<?xml version="1.0" encoding="UTF-8" standalone="no"?>
<!DOCTYPE svg PUBLIC "-//W3C//DTD SVG 1.1//EN"
 "http://www.w3.org/Graphics/SVG/1.1/DTD/svg11.dtd">
<!-- Generated by graphviz version 2.50.0 (0)
 -->
<!-- Title: G Pages: 1 -->
<svg width="1169pt" height="570pt"
 viewBox="0.00 0.00 1169.00 570.27" xmlns="http://www.w3.org/2000/svg" xmlns:xlink="http://www.w3.org/1999/xlink">
<g id="graph0" class="graph" transform="scale(1 1) rotate(0) translate(4 566.27)">
<title>G</title>
<polygon fill="white" stroke="transparent" points="-4,4 -4,-566.27 1165,-566.27 1165,4 -4,4"/>
<text text-anchor="middle" x="580.5" y="-545.47" font-family="Times,serif" font-size="16.00">model=model2/cbnb_w_mixed.json [machine 73]</text>
<!-- volt -->
<g id="node1" class="node">
<title>volt</title>
<path fill="white" stroke="black" d="M304,-370C304,-370 274,-370 274,-370 268,-370 262,-364 262,-358 262,-358 262,-346 262,-346 262,-340 268,-334 274,-334 274,-334 304,-334 304,-334 310,-334 316,-340 316,-346 316,-346 316,-358 316,-358 316,-364 310,-370 304,-370"/>
<text text-anchor="middle" x="289" y="-348.3" font-family="Helvetica,sans-Serif" font-size="14.00">volt</text>
</g>
<!-- rotate -->
<g id="node2" class="node">
<title>rotate</title>
<path fill="white" stroke="black" d="M397,-370C397,-370 364,-370 364,-370 358,-370 352,-364 352,-358 352,-358 352,-346 352,-346 352,-340 358,-334 364,-334 364,-334 397,-334 397,-334 403,-334 409,-340 409,-346 409,-346 409,-358 409,-358 409,-364 403,-370 397,-370"/>
<text text-anchor="middle" x="380.5" y="-348.3" font-family="Helvetica,sans-Serif" font-size="14.00">rotate</text>
</g>
<!-- volt&#45;&gt;rotate -->
<g id="edge1" class="edge">
<title>volt&#45;&gt;rotate</title>
<path fill="none" stroke="black" stroke-width="1.2" d="M316.37,-352C324.29,-352 333.13,-352 341.64,-352"/>
<polygon fill="black" stroke="black" stroke-width="1.2" points="341.76,-355.5 351.76,-352 341.76,-348.5 341.76,-355.5"/>
</g>
<!-- err_error1 -->
<g id="node5" class="node">
<title>err_error1</title>
<path fill="white" stroke="black" d="M518,-452C518,-452 457,-452 457,-452 451,-452 445,-446 445,-440 445,-440 445,-428 445,-428 445,-422 451,-416 457,-416 457,-416 518,-416 518,-416 524,-416 530,-422 530,-428 530,-428 530,-440 530,-440 530,-446 524,-452 518,-452"/>
<text text-anchor="middle" x="487.5" y="-430.3" font-family="Helvetica,sans-Serif" font-size="14.00">err_error1</text>
</g>
<!-- volt&#45;&gt;err_error1 -->
<g id="edge2" class="edge">
<title>volt&#45;&gt;err_error1</title>
<path fill="none" stroke="black" stroke-width="1.2" d="M325.61,-367.67C334.23,-371.42 343.43,-375.38 352,-379 379.51,-390.61 410.34,-403.25 435.53,-413.47"/>
<polygon fill="black" stroke="black" stroke-width="1.2" points="326.75,-364.35 316.19,-363.56 323.96,-370.77 326.75,-364.35"/>
<polygon fill="black" stroke="black" stroke-width="1.2" points="434.31,-416.76 444.9,-417.27 436.94,-410.27 434.31,-416.76"/>
</g>
<!-- err_error3 -->
<g id="node7" class="node">
<title>err_error3</title>
<path fill="white" stroke="black" d="M518,-200C518,-200 457,-200 457,-200 451,-200 445,-194 445,-188 445,-188 445,-176 445,-176 445,-170 451,-164 457,-164 457,-164 518,-164 518,-164 524,-164 530,-170 530,-176 530,-176 530,-188 530,-188 530,-194 524,-200 518,-200"/>
<text text-anchor="middle" x="487.5" y="-178.3" font-family="Helvetica,sans-Serif" font-size="14.00">err_error3</text>
</g>
<!-- volt&#45;&gt;err_error3 -->
<g id="edge3" class="edge">
<title>volt&#45;&gt;err_error3</title>
<path fill="none" stroke="black" stroke-width="1.2" d="M292.93,-333.67C298.68,-303.88 314.36,-245.14 352,-214 375.04,-194.94 407.51,-186.85 434.78,-183.57"/>
<polygon fill="black" stroke="black" stroke-width="1.2" points="435.34,-187.03 444.94,-182.54 434.64,-180.07 435.34,-187.03"/>
</g>
<!-- mnt_comp2 -->
<g id="node11" class="node">
<title>mnt_comp2</title>
<path fill="white" stroke="black" d="M766,-124C766,-124 692,-124 692,-124 686,-124 680,-118 680,-112 680,-112 680,-100 680,-100 680,-94 686,-88 692,-88 692,-88 766,-88 766,-88 772,-88 778,-94 778,-100 778,-100 778,-112 778,-112 778,-118 772,-124 766,-124"/>
<text text-anchor="middle" x="729" y="-102.3" font-family="Helvetica,sans-Serif" font-size="14.00">mnt_comp2</text>
</g>
<!-- volt&#45;&gt;mnt_comp2 -->
<g id="edge5" class="edge">
<title>volt&#45;&gt;mnt_comp2</title>
<path fill="none" stroke="black" stroke-width="1.2" d="M291.61,-333.87C295.61,-299.85 309,-226.17 352,-185 438.17,-102.5 587.46,-96.71 669.61,-100.72"/>
<polygon fill="black" stroke="black" stroke-width="1.2" points="669.6,-104.22 679.78,-101.28 669.99,-97.24 669.6,-104.22"/>
</g>
<!-- fail_comp4 -->
<g id="node17" class="node">
<title>fail_comp4</title>
<path fill="white" stroke="black" d="M1015,-368C1015,-368 947,-368 947,-368 941,-368 935,-362 935,-356 935,-356 935,-344 935,-344 935,-338 941,-332 947,-332 947,-332 1015,-332 1015,-332 1021,-332 1027,-338 1027,-344 1027,-344 1027,-356 1027,-356 1027,-362 1021,-368 1015,-368"/>
<text text-anchor="middle" x="981" y="-346.3" font-family="Helvetica,sans-Serif" font-size="14.00">fail_comp4</text>
</g>
<!-- volt&#45;&gt;fail_comp4 -->
<g id="edge7" class="edge">
<title>volt&#45;&gt;fail_comp4</title>
<path fill="none" stroke="black" stroke-width="1.2" d="M309.91,-370.11C337.94,-394.57 391.59,-437.8 445,-461 583.3,-521.09 629.89,-554.3 778,-526 834.83,-515.14 854.46,-514.92 899,-478 931.96,-450.68 955.76,-406.34 968.72,-377.68"/>
<polygon fill="black" stroke="black" stroke-width="1.2" points="972.04,-378.81 972.85,-368.25 965.63,-376 972.04,-378.81"/>
</g>
<!-- rotate&#45;&gt;err_error1 -->
<g id="edge8" class="edge">
<title>rotate&#45;&gt;err_error1</title>
<path fill="none" stroke="black" stroke-width="1.2" d="M404.38,-370.11C416.44,-379.63 431.5,-391.48 445,-402 448.14,-404.45 451.42,-406.99 454.7,-409.53"/>
<polygon fill="black" stroke="black" stroke-width="1.2" points="452.71,-412.42 462.77,-415.77 456.99,-406.88 452.71,-412.42"/>
</g>
<!-- err_error2 -->
<g id="node6" class="node">
<title>err_error2</title>
<path fill="white" stroke="black" d="M759.5,-368C759.5,-368 698.5,-368 698.5,-368 692.5,-368 686.5,-362 686.5,-356 686.5,-356 686.5,-344 686.5,-344 686.5,-338 692.5,-332 698.5,-332 698.5,-332 759.5,-332 759.5,-332 765.5,-332 771.5,-338 771.5,-344 771.5,-344 771.5,-356 771.5,-356 771.5,-362 765.5,-368 759.5,-368"/>
<text text-anchor="middle" x="729" y="-346.3" font-family="Helvetica,sans-Serif" font-size="14.00">err_error2</text>
</g>
<!-- rotate&#45;&gt;err_error2 -->
<g id="edge9" class="edge">
<title>rotate&#45;&gt;err_error2</title>
<path fill="none" stroke="black" stroke-width="1.2" d="M409.27,-351.84C467.25,-351.51 601.93,-350.73 676.32,-350.3"/>
<polygon fill="black" stroke="black" stroke-width="1.2" points="676.43,-353.8 686.41,-350.24 676.39,-346.8 676.43,-353.8"/>
</g>
<!-- pressure -->
<g id="node3" class="node">
<title>pressure</title>
<path fill="white" stroke="black" d="M883,-284C883,-284 830,-284 830,-284 824,-284 818,-278 818,-272 818,-272 818,-260 818,-260 818,-254 824,-248 830,-248 830,-248 883,-248 883,-248 889,-248 895,-254 895,-260 895,-260 895,-272 895,-272 895,-278 889,-284 883,-284"/>
<text text-anchor="middle" x="856.5" y="-262.3" font-family="Helvetica,sans-Serif" font-size="14.00">pressure</text>
</g>
<!-- vibration -->
<g id="node4" class="node">
<title>vibration</title>
<path fill="white" stroke="black" d="M632,-456C632,-456 578,-456 578,-456 572,-456 566,-450 566,-444 566,-444 566,-432 566,-432 566,-426 572,-420 578,-420 578,-420 632,-420 632,-420 638,-420 644,-426 644,-432 644,-432 644,-444 644,-444 644,-450 638,-456 632,-456"/>
<text text-anchor="middle" x="605" y="-434.3" font-family="Helvetica,sans-Serif" font-size="14.00">vibration</text>
</g>
<!-- pressure&#45;&gt;vibration -->
<g id="edge12" class="edge">
<title>pressure&#45;&gt;vibration</title>
<path fill="none" stroke="black" stroke-width="1.2" d="M817.87,-275.05C773.13,-286.35 701.76,-306.23 680,-323 650.32,-345.87 629.11,-384.26 617.2,-410.33"/>
<polygon fill="black" stroke="black" stroke-width="1.2" points="613.92,-409.1 613.1,-419.66 620.33,-411.92 613.92,-409.1"/>
</g>
<!-- pressure&#45;&gt;err_error1 -->
<g id="edge13" class="edge">
<title>pressure&#45;&gt;err_error1</title>
<path fill="none" stroke="black" stroke-width="1.2" d="M817.76,-263.34C781.21,-262.15 724.88,-264.03 680,-282 609.66,-310.17 544.31,-372.95 511.19,-408.39"/>
<polygon fill="black" stroke="black" stroke-width="1.2" points="508.44,-406.21 504.24,-415.93 513.59,-410.95 508.44,-406.21"/>
</g>
<!-- fail_comp3 -->
<g id="node16" class="node">
<title>fail_comp3</title>
<path fill="white" stroke="black" d="M1015,-102C1015,-102 947,-102 947,-102 941,-102 935,-96 935,-90 935,-90 935,-78 935,-78 935,-72 941,-66 947,-66 947,-66 1015,-66 1015,-66 1021,-66 1027,-72 1027,-78 1027,-78 1027,-90 1027,-90 1027,-96 1021,-102 1015,-102"/>
<text text-anchor="middle" x="981" y="-80.3" font-family="Helvetica,sans-Serif" font-size="14.00">fail_comp3</text>
</g>
<!-- pressure&#45;&gt;fail_comp3 -->
<g id="edge17" class="edge">
<title>pressure&#45;&gt;fail_comp3</title>
<path fill="none" stroke="black" stroke-width="1.2" d="M869.69,-247.88C891.43,-215.59 936.96,-147.94 962.2,-110.45"/>
<polygon fill="black" stroke="black" stroke-width="1.2" points="965.18,-112.29 967.86,-102.04 959.37,-108.38 965.18,-112.29"/>
</g>
<!-- pressure&#45;&gt;fail_comp4 -->
<g id="edge18" class="edge">
<title>pressure&#45;&gt;fail_comp4</title>
<path fill="none" stroke="black" stroke-width="1.2" d="M883.78,-284.02C901.66,-296.28 925.52,-312.64 945.01,-326.01"/>
<polygon fill="black" stroke="black" stroke-width="1.2" points="943.11,-328.95 953.34,-331.72 947.07,-323.18 943.11,-328.95"/>
</g>
<!-- vibration&#45;&gt;err_error2 -->
<g id="edge20" class="edge">
<title>vibration&#45;&gt;err_error2</title>
<path fill="none" stroke="black" stroke-width="1.2" d="M639.2,-414.05C656.38,-401.66 677.29,-386.58 694.51,-374.16"/>
<polygon fill="black" stroke="black" stroke-width="1.2" points="637.05,-411.29 630.98,-419.98 641.14,-416.97 637.05,-411.29"/>
<polygon fill="black" stroke="black" stroke-width="1.2" points="696.57,-376.99 702.63,-368.3 692.47,-371.31 696.57,-376.99"/>
</g>
<!-- err_error4 -->
<g id="node8" class="node">
<title>err_error4</title>
<path fill="white" stroke="black" d="M759.5,-498C759.5,-498 698.5,-498 698.5,-498 692.5,-498 686.5,-492 686.5,-486 686.5,-486 686.5,-474 686.5,-474 686.5,-468 692.5,-462 698.5,-462 698.5,-462 759.5,-462 759.5,-462 765.5,-462 771.5,-468 771.5,-474 771.5,-474 771.5,-486 771.5,-486 771.5,-492 765.5,-498 759.5,-498"/>
<text text-anchor="middle" x="729" y="-476.3" font-family="Helvetica,sans-Serif" font-size="14.00">err_error4</text>
</g>
<!-- vibration&#45;&gt;err_error4 -->
<g id="edge21" class="edge">
<title>vibration&#45;&gt;err_error4</title>
<path fill="none" stroke="black" stroke-width="1.2" d="M653.94,-454.5C661.5,-457.11 669.34,-459.81 676.97,-462.43"/>
<polygon fill="black" stroke="black" stroke-width="1.2" points="654.86,-451.12 644.27,-451.17 652.58,-457.74 654.86,-451.12"/>
<polygon fill="black" stroke="black" stroke-width="1.2" points="675.89,-465.76 686.48,-465.71 678.17,-459.14 675.89,-465.76"/>
</g>
<!-- err_error5 -->
<g id="node9" class="node">
<title>err_error5</title>
<path fill="white" stroke="black" d="M887,-414C887,-414 826,-414 826,-414 820,-414 814,-408 814,-402 814,-402 814,-390 814,-390 814,-384 820,-378 826,-378 826,-378 887,-378 887,-378 893,-378 899,-384 899,-390 899,-390 899,-402 899,-402 899,-408 893,-414 887,-414"/>
<text text-anchor="middle" x="856.5" y="-392.3" font-family="Helvetica,sans-Serif" font-size="14.00">err_error5</text>
</g>
<!-- vibration&#45;&gt;err_error5 -->
<g id="edge22" class="edge">
<title>vibration&#45;&gt;err_error5</title>
<path fill="none" stroke="black" stroke-width="1.2" d="M654.55,-430.33C689.03,-424.82 736.39,-417.15 778,-410 786.33,-408.57 795.15,-407.01 803.75,-405.48"/>
<polygon fill="black" stroke="black" stroke-width="1.2" points="653.61,-426.93 644.29,-431.96 654.71,-433.84 653.61,-426.93"/>
<polygon fill="black" stroke="black" stroke-width="1.2" points="804.47,-408.9 813.69,-403.69 803.23,-402.01 804.47,-408.9"/>
</g>
<!-- vibration&#45;&gt;fail_comp4 -->
<g id="edge25" class="edge">
<title>vibration&#45;&gt;fail_comp4</title>
<path fill="none" stroke="black" stroke-width="1.2" d="M618.88,-456.12C632.04,-472.93 654.18,-496.83 680,-507 720.53,-522.96 736.43,-520.01 778,-507 855.17,-482.84 924.74,-413.65 958.49,-375.69"/>
<polygon fill="black" stroke="black" stroke-width="1.2" points="961.19,-377.92 965.14,-368.09 955.92,-373.31 961.19,-377.92"/>
</g>
<!-- err_error1&#45;&gt;vibration -->
<g id="edge19" class="edge">
<title>err_error1&#45;&gt;vibration</title>
<path fill="none" stroke="black" stroke-width="1.2" d="M530.2,-435.44C538.47,-435.73 547.21,-436.03 555.68,-436.33"/>
<polygon fill="black" stroke="black" stroke-width="1.2" points="555.71,-439.83 565.82,-436.68 555.95,-432.83 555.71,-439.83"/>
</g>
<!-- err_error2&#45;&gt;pressure -->
<g id="edge14" class="edge">
<title>err_error2&#45;&gt;pressure</title>
<path fill="none" stroke="black" stroke-width="1.2" d="M757.17,-331.91C763.98,-327.37 771.26,-322.51 778,-318 791.81,-308.76 806.99,-298.58 820.23,-289.7"/>
<polygon fill="black" stroke="black" stroke-width="1.2" points="822.26,-292.55 828.61,-284.07 818.36,-286.74 822.26,-292.55"/>
</g>
<!-- err_error2&#45;&gt;err_error5 -->
<g id="edge26" class="edge">
<title>err_error2&#45;&gt;err_error5</title>
<path fill="none" stroke="black" stroke-width="1.2" d="M771.79,-365.32C782.27,-369.16 793.63,-373.32 804.5,-377.31"/>
<polygon fill="black" stroke="black" stroke-width="1.2" points="803.3,-380.59 813.89,-380.75 805.71,-374.02 803.3,-380.59"/>
</g>
<!-- err_error2&#45;&gt;fail_comp4 -->
<g id="edge27" class="edge">
<title>err_error2&#45;&gt;fail_comp4</title>
<path fill="none" stroke="black" stroke-width="1.2" d="M771.56,-350C813.51,-350 878.54,-350 924.8,-350"/>
<polygon fill="black" stroke="black" stroke-width="1.2" points="924.95,-353.5 934.95,-350 924.95,-346.5 924.95,-353.5"/>
</g>
<!-- err_error3&#45;&gt;pressure -->
<g id="edge15" class="edge">
<title>err_error3&#45;&gt;pressure</title>
<path fill="none" stroke="black" stroke-width="1.2" d="M530.24,-191.55C599.05,-207.3 735.87,-238.62 808.17,-255.17"/>
<polygon fill="black" stroke="black" stroke-width="1.2" points="807.41,-258.58 817.94,-257.4 808.97,-251.76 807.41,-258.58"/>
</g>
<!-- err_error5&#45;&gt;rotate -->
<g id="edge10" class="edge">
<title>err_error5&#45;&gt;rotate</title>
<path fill="none" stroke="black" stroke-width="1.2" d="M813.95,-394.6C739.62,-391.71 579.14,-383.72 445,-365 436.6,-363.83 427.64,-362.22 419.19,-360.53"/>
<polygon fill="black" stroke="black" stroke-width="1.2" points="419.69,-357.06 409.19,-358.46 418.27,-363.92 419.69,-357.06"/>
</g>
<!-- mnt_comp1 -->
<g id="node10" class="node">
<title>mnt_comp1</title>
<path fill="white" stroke="black" d="M214,-431C214,-431 140,-431 140,-431 134,-431 128,-425 128,-419 128,-419 128,-407 128,-407 128,-401 134,-395 140,-395 140,-395 214,-395 214,-395 220,-395 226,-401 226,-407 226,-407 226,-419 226,-419 226,-425 220,-431 214,-431"/>
<text text-anchor="middle" x="177" y="-409.3" font-family="Helvetica,sans-Serif" font-size="14.00">mnt_comp1</text>
</g>
<!-- mnt_comp1&#45;&gt;volt -->
<g id="edge4" class="edge">
<title>mnt_comp1&#45;&gt;volt</title>
<path fill="none" stroke="black" stroke-width="1.2" d="M210.71,-394.86C223.98,-387.5 239.34,-378.98 252.86,-371.49"/>
<polygon fill="black" stroke="black" stroke-width="1.2" points="254.82,-374.4 261.87,-366.49 251.43,-368.28 254.82,-374.4"/>
</g>
<!-- mnt_comp1&#45;&gt;vibration -->
<g id="edge23" class="edge">
<title>mnt_comp1&#45;&gt;vibration</title>
<path fill="none" stroke="black" stroke-width="1.2" d="M226.18,-428.32C294.04,-447.92 421.61,-477.46 530,-461 538.51,-459.71 547.39,-457.63 555.92,-455.23"/>
<polygon fill="black" stroke="black" stroke-width="1.2" points="557.15,-458.51 565.73,-452.3 555.14,-451.81 557.15,-458.51"/>
</g>
<!-- mnt_comp2&#45;&gt;pressure -->
<g id="edge16" class="edge">
<title>mnt_comp2&#45;&gt;pressure</title>
<path fill="none" stroke="black" stroke-width="1.2" d="M744.15,-124.04C766.28,-152.25 809.18,-206.94 834.78,-239.59"/>
<polygon fill="black" stroke="black" stroke-width="1.2" points="832.28,-242.07 841.21,-247.78 837.79,-237.75 832.28,-242.07"/>
</g>
<!-- mnt_comp3 -->
<g id="node12" class="node">
<title>mnt_comp3</title>
<path fill="white" stroke="black" d="M1149,-88C1149,-88 1075,-88 1075,-88 1069,-88 1063,-82 1063,-76 1063,-76 1063,-64 1063,-64 1063,-58 1069,-52 1075,-52 1075,-52 1149,-52 1149,-52 1155,-52 1161,-58 1161,-64 1161,-64 1161,-76 1161,-76 1161,-82 1155,-88 1149,-88"/>
<text text-anchor="middle" x="1112" y="-66.3" font-family="Helvetica,sans-Serif" font-size="14.00">mnt_comp3</text>
</g>
<!-- mnt_comp2&#45;&gt;mnt_comp3 -->
<g id="edge30" class="edge">
<title>mnt_comp2&#45;&gt;mnt_comp3</title>
<path fill="none" stroke="black" stroke-width="1.2" d="M778.3,-91.06C819.48,-79.14 880.49,-63.42 935,-57 975.61,-52.21 986.23,-53.86 1027,-57 1035.35,-57.64 1044.14,-58.64 1052.74,-59.8"/>
<polygon fill="black" stroke="black" stroke-width="1.2" points="1052.34,-63.28 1062.73,-61.23 1053.33,-56.35 1052.34,-63.28"/>
</g>
<!-- mnt_comp4 -->
<g id="node13" class="node">
<title>mnt_comp4</title>
<path fill="white" stroke="black" d="M1149,-161C1149,-161 1075,-161 1075,-161 1069,-161 1063,-155 1063,-149 1063,-149 1063,-137 1063,-137 1063,-131 1069,-125 1075,-125 1075,-125 1149,-125 1149,-125 1155,-125 1161,-131 1161,-137 1161,-137 1161,-149 1161,-149 1161,-155 1155,-161 1149,-161"/>
<text text-anchor="middle" x="1112" y="-139.3" font-family="Helvetica,sans-Serif" font-size="14.00">mnt_comp4</text>
</g>
<!-- mnt_comp2&#45;&gt;mnt_comp4 -->
<g id="edge31" class="edge">
<title>mnt_comp2&#45;&gt;mnt_comp4</title>
<path fill="none" stroke="black" stroke-width="1.2" d="M778.25,-110.69C848.15,-117.47 977.41,-130.03 1052.6,-137.33"/>
<polygon fill="black" stroke="black" stroke-width="1.2" points="1052.55,-140.84 1062.84,-138.32 1053.22,-133.87 1052.55,-140.84"/>
</g>
<!-- mnt_comp2&#45;&gt;fail_comp3 -->
<g id="edge32" class="edge">
<title>mnt_comp2&#45;&gt;fail_comp3</title>
<path fill="none" stroke="black" stroke-width="1.2" d="M778.2,-101.76C820.11,-98.07 880.81,-92.73 924.68,-88.87"/>
<polygon fill="black" stroke="black" stroke-width="1.2" points="925.24,-92.33 934.89,-87.97 924.62,-85.36 925.24,-92.33"/>
</g>
<!-- mnt_comp4&#45;&gt;volt -->
<g id="edge6" class="edge">
<title>mnt_comp4&#45;&gt;volt</title>
<path fill="none" stroke="black" stroke-width="1.2" d="M1062.67,-151.53C941.26,-173.62 614.46,-237.14 352,-325 343.26,-327.92 334.06,-331.59 325.49,-335.27"/>
<polygon fill="black" stroke="black" stroke-width="1.2" points="323.89,-332.16 316.15,-339.4 326.71,-338.56 323.89,-332.16"/>
</g>
<!-- fail_comp1 -->
<g id="node14" class="node">
<title>fail_comp1</title>
<path fill="white" stroke="black" d="M80,-454C80,-454 12,-454 12,-454 6,-454 0,-448 0,-442 0,-442 0,-430 0,-430 0,-424 6,-418 12,-418 12,-418 80,-418 80,-418 86,-418 92,-424 92,-430 92,-430 92,-442 92,-442 92,-448 86,-454 80,-454"/>
<text text-anchor="middle" x="46" y="-432.3" font-family="Helvetica,sans-Serif" font-size="14.00">fail_comp1</text>
</g>
<!-- fail_comp1&#45;&gt;vibration -->
<g id="edge24" class="edge">
<title>fail_comp1&#45;&gt;vibration</title>
<path fill="none" stroke="black" stroke-width="1.2" d="M78.58,-454.2C123.55,-478.36 209.33,-518 288,-518 288,-518 288,-518 381.5,-518 449.33,-518 522.3,-484.67 565.51,-461.03"/>
<polygon fill="black" stroke="black" stroke-width="1.2" points="567.24,-464.08 574.27,-456.15 563.83,-457.96 567.24,-464.08"/>
</g>
<!-- fail_comp1&#45;&gt;mnt_comp1 -->
<g id="edge28" class="edge">
<title>fail_comp1&#45;&gt;mnt_comp1</title>
<path fill="none" stroke="black" stroke-width="1.2" d="M92.12,-427.96C100.37,-426.48 109.09,-424.93 117.66,-423.4"/>
<polygon fill="black" stroke="black" stroke-width="1.2" points="118.38,-426.83 127.62,-421.63 117.16,-419.94 118.38,-426.83"/>
</g>
<!-- fail_comp2 -->
<g id="node15" class="node">
<title>fail_comp2</title>
<path fill="white" stroke="black" d="M80,-191C80,-191 12,-191 12,-191 6,-191 0,-185 0,-179 0,-179 0,-167 0,-167 0,-161 6,-155 12,-155 12,-155 80,-155 80,-155 86,-155 92,-161 92,-167 92,-167 92,-179 92,-179 92,-185 86,-191 80,-191"/>
<text text-anchor="middle" x="46" y="-169.3" font-family="Helvetica,sans-Serif" font-size="14.00">fail_comp2</text>
</g>
<!-- fail_comp2&#45;&gt;mnt_comp1 -->
<g id="edge29" class="edge">
<title>fail_comp2&#45;&gt;mnt_comp1</title>
<path fill="none" stroke="black" stroke-width="1.2" d="M56.7,-191.04C79.16,-232.82 134.85,-336.44 161.43,-385.9"/>
<polygon fill="black" stroke="black" stroke-width="1.2" points="158.37,-387.6 166.19,-394.75 164.54,-384.29 158.37,-387.6"/>
</g>
<!-- fail_comp2&#45;&gt;fail_comp3 -->
<g id="edge36" class="edge">
<title>fail_comp2&#45;&gt;fail_comp3</title>
<path fill="none" stroke="black" stroke-width="1.2" d="M59.55,-154.81C91.83,-110.4 182.67,0 288,0 288,0 288,0 730,0 807.21,0 891.18,-36.45 939.5,-61.33"/>
<polygon fill="black" stroke="black" stroke-width="1.2" points="937.9,-64.44 948.39,-65.98 941.15,-58.24 937.9,-64.44"/>
</g>
<!-- fail_comp3&#45;&gt;rotate -->
<g id="edge11" class="edge">
<title>fail_comp3&#45;&gt;rotate</title>
<path fill="none" stroke="black" stroke-width="1.2" d="M939.47,-102.15C829.13,-151.56 524.58,-287.93 418.51,-335.43"/>
<polygon fill="black" stroke="black" stroke-width="1.2" points="416.86,-332.33 409.17,-339.61 419.72,-338.72 416.86,-332.33"/>
</g>
<!-- fail_comp3&#45;&gt;mnt_comp3 -->
<g id="edge33" class="edge">
<title>fail_comp3&#45;&gt;mnt_comp3</title>
<path fill="none" stroke="black" stroke-width="1.2" d="M1027.12,-79.1C1035.37,-78.21 1044.09,-77.26 1052.66,-76.33"/>
<polygon fill="black" stroke="black" stroke-width="1.2" points="1053.05,-79.81 1062.62,-75.25 1052.3,-72.85 1053.05,-79.81"/>
</g>
<!-- fail_comp3&#45;&gt;mnt_comp4 -->
<g id="edge34" class="edge">
<title>fail_comp3&#45;&gt;mnt_comp4</title>
<path fill="none" stroke="black" stroke-width="1.2" d="M1021.41,-102.02C1034.29,-107.91 1048.75,-114.53 1062.24,-120.7"/>
<polygon fill="black" stroke="black" stroke-width="1.2" points="1060.84,-123.91 1071.39,-124.88 1063.75,-117.54 1060.84,-123.91"/>
</g>
<!-- fail_comp4&#45;&gt;mnt_comp4 -->
<g id="edge35" class="edge">
<title>fail_comp4&#45;&gt;mnt_comp4</title>
<path fill="none" stroke="black" stroke-width="1.2" d="M993.22,-331.99C1016,-295.44 1067.75,-212.41 1094.42,-169.6"/>
<polygon fill="black" stroke="black" stroke-width="1.2" points="1097.39,-171.45 1099.71,-161.11 1091.45,-167.75 1097.39,-171.45"/>
</g>
</g>
</svg>
