<?xml version="1.0" encoding="UTF-8" standalone="no"?>
<!DOCTYPE svg PUBLIC "-//W3C//DTD SVG 1.1//EN"
 "http://www.w3.org/Graphics/SVG/1.1/DTD/svg11.dtd">
<!-- Generated by graphviz version 2.50.0 (0)
 -->
<!-- Title: G Pages: 1 -->
<svg width="454pt" height="124pt"
 viewBox="0.00 0.00 454.00 124.00" xmlns="http://www.w3.org/2000/svg" xmlns:xlink="http://www.w3.org/1999/xlink">
<g id="graph0" class="graph" transform="scale(1 1) rotate(0) translate(4 120)">
<title>G</title>
<polygon fill="white" stroke="transparent" points="-4,4 -4,-120 450,-120 450,4 -4,4"/>
<text text-anchor="middle" x="223" y="-99.2" font-family="Times,serif" font-size="16.00">model=model3/cbnb_w_telemetry.json [machine 12]</text>
<!-- volt -->
<g id="node1" class="node">
<title>volt</title>
<path fill="white" stroke="black" d="M228,-90C228,-90 198,-90 198,-90 192,-90 186,-84 186,-78 186,-78 186,-66 186,-66 186,-60 192,-54 198,-54 198,-54 228,-54 228,-54 234,-54 240,-60 240,-66 240,-66 240,-78 240,-78 240,-84 234,-90 228,-90"/>
<text text-anchor="middle" x="213" y="-68.3" font-family="Helvetica,sans-Serif" font-size="14.00">volt</text>
</g>
<!-- rotate -->
<g id="node2" class="node">
<title>rotate</title>
<path fill="white" stroke="black" d="M126,-63C126,-63 93,-63 93,-63 87,-63 81,-57 81,-51 81,-51 81,-39 81,-39 81,-33 87,-27 93,-27 93,-27 126,-27 126,-27 132,-27 138,-33 138,-39 138,-39 138,-51 138,-51 138,-57 132,-63 126,-63"/>
<text text-anchor="middle" x="109.5" y="-41.3" font-family="Helvetica,sans-Serif" font-size="14.00">rotate</text>
</g>
<!-- rotate&#45;&gt;volt -->
<g id="edge1" class="edge">
<title>rotate&#45;&gt;volt</title>
<path fill="none" stroke="black" stroke-width="1.2" d="M138.24,-52.38C149.79,-55.45 163.37,-59.06 175.7,-62.34"/>
<polygon fill="black" stroke="black" stroke-width="1.2" points="175.13,-65.81 185.7,-65 176.93,-59.05 175.13,-65.81"/>
</g>
<!-- vibration -->
<g id="node4" class="node">
<title>vibration</title>
<path fill="white" stroke="black" d="M240,-36C240,-36 186,-36 186,-36 180,-36 174,-30 174,-24 174,-24 174,-12 174,-12 174,-6 180,0 186,0 186,0 240,0 240,0 246,0 252,-6 252,-12 252,-12 252,-24 252,-24 252,-30 246,-36 240,-36"/>
<text text-anchor="middle" x="213" y="-14.3" font-family="Helvetica,sans-Serif" font-size="14.00">vibration</text>
</g>
<!-- rotate&#45;&gt;vibration -->
<g id="edge2" class="edge">
<title>rotate&#45;&gt;vibration</title>
<path fill="none" stroke="black" stroke-width="1.2" d="M138.24,-37.62C146.17,-35.51 155.05,-33.15 163.83,-30.81"/>
<polygon fill="black" stroke="black" stroke-width="1.2" points="164.88,-34.16 173.65,-28.2 163.08,-27.39 164.88,-34.16"/>
</g>
<!-- pressure -->
<g id="node3" class="node">
<title>pressure</title>
<path fill="white" stroke="black" d="M353,-36C353,-36 300,-36 300,-36 294,-36 288,-30 288,-24 288,-24 288,-12 288,-12 288,-6 294,0 300,0 300,0 353,0 353,0 359,0 365,-6 365,-12 365,-12 365,-24 365,-24 365,-30 359,-36 353,-36"/>
<text text-anchor="middle" x="326.5" y="-14.3" font-family="Helvetica,sans-Serif" font-size="14.00">pressure</text>
</g>
<!-- vibration&#45;&gt;pressure -->
<g id="edge3" class="edge">
<title>vibration&#45;&gt;pressure</title>
<path fill="none" stroke="black" stroke-width="1.2" d="M252.06,-18C260.31,-18 269.14,-18 277.72,-18"/>
<polygon fill="black" stroke="black" stroke-width="1.2" points="277.99,-21.5 287.99,-18 277.99,-14.5 277.99,-21.5"/>
</g>
</g>
</svg>
