<?xml version="1.0" encoding="UTF-8" standalone="no"?>
<!DOCTYPE svg PUBLIC "-//W3C//DTD SVG 1.1//EN"
 "http://www.w3.org/Graphics/SVG/1.1/DTD/svg11.dtd">
<!-- Generated by graphviz version 2.50.0 (0)
 -->
<!-- Title: G Pages: 1 -->
<svg width="827pt" height="346pt"
 viewBox="0.00 0.00 827.00 346.00" xmlns="http://www.w3.org/2000/svg" xmlns:xlink="http://www.w3.org/1999/xlink">
<g id="graph0" class="graph" transform="scale(1 1) rotate(0) translate(4 342)">
<title>G</title>
<polygon fill="white" stroke="transparent" points="-4,4 -4,-342 823,-342 823,4 -4,4"/>
<text text-anchor="middle" x="409.5" y="-321.2" font-family="Times,serif" font-size="16.00">model=model4/cbnb_w_mixed.json [machine 74]</text>
<!-- volt -->
<g id="node1" class="node">
<title>volt</title>
<path fill="white" stroke="black" d="M42,-124C42,-124 12,-124 12,-124 6,-124 0,-118 0,-112 0,-112 0,-100 0,-100 0,-94 6,-88 12,-88 12,-88 42,-88 42,-88 48,-88 54,-94 54,-100 54,-100 54,-112 54,-112 54,-118 48,-124 42,-124"/>
<text text-anchor="middle" x="27" y="-102.3" font-family="Helvetica,sans-Serif" font-size="14.00">volt</text>
</g>
<!-- err_error1 -->
<g id="node5" class="node">
<title>err_error1</title>
<path fill="white" stroke="black" d="M163,-193C163,-193 102,-193 102,-193 96,-193 90,-187 90,-181 90,-181 90,-169 90,-169 90,-163 96,-157 102,-157 102,-157 163,-157 163,-157 169,-157 175,-163 175,-169 175,-169 175,-181 175,-181 175,-187 169,-193 163,-193"/>
<text text-anchor="middle" x="132.5" y="-171.3" font-family="Helvetica,sans-Serif" font-size="14.00">err_error1</text>
</g>
<!-- volt&#45;&gt;err_error1 -->
<g id="edge2" class="edge">
<title>volt&#45;&gt;err_error1</title>
<path fill="none" stroke="black" stroke-width="1.2" d="M62.72,-129.15C73.42,-136.28 85.2,-144.13 95.95,-151.3"/>
<polygon fill="black" stroke="black" stroke-width="1.2" points="64.38,-126.05 54.12,-123.41 60.5,-131.87 64.38,-126.05"/>
<polygon fill="black" stroke="black" stroke-width="1.2" points="94.04,-154.24 104.31,-156.87 97.93,-148.41 94.04,-154.24"/>
</g>
<!-- err_error4 -->
<g id="node8" class="node">
<title>err_error4</title>
<path fill="white" stroke="black" d="M163,-101C163,-101 102,-101 102,-101 96,-101 90,-95 90,-89 90,-89 90,-77 90,-77 90,-71 96,-65 102,-65 102,-65 163,-65 163,-65 169,-65 175,-71 175,-77 175,-77 175,-89 175,-89 175,-95 169,-101 163,-101"/>
<text text-anchor="middle" x="132.5" y="-79.3" font-family="Helvetica,sans-Serif" font-size="14.00">err_error4</text>
</g>
<!-- volt&#45;&gt;err_error4 -->
<g id="edge3" class="edge">
<title>volt&#45;&gt;err_error4</title>
<path fill="none" stroke="black" stroke-width="1.2" d="M54.12,-100.2C61.95,-98.46 70.83,-96.48 79.71,-94.51"/>
<polygon fill="black" stroke="black" stroke-width="1.2" points="80.68,-97.88 89.68,-92.29 79.16,-91.05 80.68,-97.88"/>
</g>
<!-- fail_comp1 -->
<g id="node14" class="node">
<title>fail_comp1</title>
<path fill="white" stroke="black" d="M291,-41C291,-41 223,-41 223,-41 217,-41 211,-35 211,-29 211,-29 211,-17 211,-17 211,-11 217,-5 223,-5 223,-5 291,-5 291,-5 297,-5 303,-11 303,-17 303,-17 303,-29 303,-29 303,-35 297,-41 291,-41"/>
<text text-anchor="middle" x="257" y="-19.3" font-family="Helvetica,sans-Serif" font-size="14.00">fail_comp1</text>
</g>
<!-- volt&#45;&gt;fail_comp1 -->
<g id="edge4" class="edge">
<title>volt&#45;&gt;fail_comp1</title>
<path fill="none" stroke="black" stroke-width="1.2" d="M53.24,-81.01C63.81,-71.85 76.72,-62.21 90,-56 124.86,-39.7 167.49,-31.44 200.82,-27.26"/>
<polygon fill="black" stroke="black" stroke-width="1.2" points="50.73,-78.56 45.65,-87.86 55.42,-83.76 50.73,-78.56"/>
<polygon fill="black" stroke="black" stroke-width="1.2" points="201.32,-30.73 210.85,-26.09 200.51,-23.77 201.32,-30.73"/>
</g>
<!-- rotate -->
<g id="node2" class="node">
<title>rotate</title>
<path fill="white" stroke="black" d="M273.5,-147C273.5,-147 240.5,-147 240.5,-147 234.5,-147 228.5,-141 228.5,-135 228.5,-135 228.5,-123 228.5,-123 228.5,-117 234.5,-111 240.5,-111 240.5,-111 273.5,-111 273.5,-111 279.5,-111 285.5,-117 285.5,-123 285.5,-123 285.5,-135 285.5,-135 285.5,-141 279.5,-147 273.5,-147"/>
<text text-anchor="middle" x="257" y="-125.3" font-family="Helvetica,sans-Serif" font-size="14.00">rotate</text>
</g>
<!-- rotate&#45;&gt;volt -->
<g id="edge1" class="edge">
<title>rotate&#45;&gt;volt</title>
<path fill="none" stroke="black" stroke-width="1.2" d="M228.38,-126.21C187.24,-122.06 109.83,-114.25 64.21,-109.65"/>
<polygon fill="black" stroke="black" stroke-width="1.2" points="64.46,-106.16 54.15,-108.64 63.75,-113.12 64.46,-106.16"/>
</g>
<!-- err_error3 -->
<g id="node7" class="node">
<title>err_error3</title>
<path fill="white" stroke="black" d="M418.5,-258C418.5,-258 357.5,-258 357.5,-258 351.5,-258 345.5,-252 345.5,-246 345.5,-246 345.5,-234 345.5,-234 345.5,-228 351.5,-222 357.5,-222 357.5,-222 418.5,-222 418.5,-222 424.5,-222 430.5,-228 430.5,-234 430.5,-234 430.5,-246 430.5,-246 430.5,-252 424.5,-258 418.5,-258"/>
<text text-anchor="middle" x="388" y="-236.3" font-family="Helvetica,sans-Serif" font-size="14.00">err_error3</text>
</g>
<!-- rotate&#45;&gt;err_error3 -->
<g id="edge5" class="edge">
<title>rotate&#45;&gt;err_error3</title>
<path fill="none" stroke="black" stroke-width="1.2" d="M281.99,-154.73C297.56,-170.82 318.66,-191.54 339,-208 342.33,-210.69 345.88,-213.38 349.5,-215.99"/>
<polygon fill="black" stroke="black" stroke-width="1.2" points="284.27,-152.04 274.82,-147.24 279.21,-156.89 284.27,-152.04"/>
<polygon fill="black" stroke="black" stroke-width="1.2" points="347.75,-219.04 357.95,-221.89 351.76,-213.3 347.75,-219.04"/>
</g>
<!-- err_error5 -->
<g id="node9" class="node">
<title>err_error5</title>
<path fill="white" stroke="black" d="M418.5,-312C418.5,-312 357.5,-312 357.5,-312 351.5,-312 345.5,-306 345.5,-300 345.5,-300 345.5,-288 345.5,-288 345.5,-282 351.5,-276 357.5,-276 357.5,-276 418.5,-276 418.5,-276 424.5,-276 430.5,-282 430.5,-288 430.5,-288 430.5,-300 430.5,-300 430.5,-306 424.5,-312 418.5,-312"/>
<text text-anchor="middle" x="388" y="-290.3" font-family="Helvetica,sans-Serif" font-size="14.00">err_error5</text>
</g>
<!-- rotate&#45;&gt;err_error5 -->
<g id="edge7" class="edge">
<title>rotate&#45;&gt;err_error5</title>
<path fill="none" stroke="black" stroke-width="1.2" d="M264.96,-147.11C276.64,-175.57 302.52,-231.19 339,-267 339.92,-267.9 340.88,-268.79 341.87,-269.65"/>
<polygon fill="black" stroke="black" stroke-width="1.2" points="339.86,-272.52 349.92,-275.86 344.13,-266.98 339.86,-272.52"/>
</g>
<!-- mnt_comp1 -->
<g id="node10" class="node">
<title>mnt_comp1</title>
<path fill="white" stroke="black" d="M425,-36C425,-36 351,-36 351,-36 345,-36 339,-30 339,-24 339,-24 339,-12 339,-12 339,-6 345,0 351,0 351,0 425,0 425,0 431,0 437,-6 437,-12 437,-12 437,-24 437,-24 437,-30 431,-36 425,-36"/>
<text text-anchor="middle" x="388" y="-14.3" font-family="Helvetica,sans-Serif" font-size="14.00">mnt_comp1</text>
</g>
<!-- rotate&#45;&gt;mnt_comp1 -->
<g id="edge8" class="edge">
<title>rotate&#45;&gt;mnt_comp1</title>
<path fill="none" stroke="black" stroke-width="1.2" d="M281.99,-103.27C297.56,-87.18 318.66,-66.46 339,-50 342.33,-47.31 345.88,-44.62 349.5,-42.01"/>
<polygon fill="black" stroke="black" stroke-width="1.2" points="279.21,-101.11 274.82,-110.76 284.27,-105.96 279.21,-101.11"/>
<polygon fill="black" stroke="black" stroke-width="1.2" points="351.76,-44.7 357.95,-36.11 347.75,-38.96 351.76,-44.7"/>
</g>
<!-- mnt_comp2 -->
<g id="node11" class="node">
<title>mnt_comp2</title>
<path fill="white" stroke="black" d="M693,-120C693,-120 619,-120 619,-120 613,-120 607,-114 607,-108 607,-108 607,-96 607,-96 607,-90 613,-84 619,-84 619,-84 693,-84 693,-84 699,-84 705,-90 705,-96 705,-96 705,-108 705,-108 705,-114 699,-120 693,-120"/>
<text text-anchor="middle" x="656" y="-98.3" font-family="Helvetica,sans-Serif" font-size="14.00">mnt_comp2</text>
</g>
<!-- rotate&#45;&gt;mnt_comp2 -->
<g id="edge9" class="edge">
<title>rotate&#45;&gt;mnt_comp2</title>
<path fill="none" stroke="black" stroke-width="1.2" d="M285.72,-126C301.35,-124.37 321.25,-122.41 339,-121 428.78,-113.87 533.11,-108.08 596.57,-104.84"/>
<polygon fill="black" stroke="black" stroke-width="1.2" points="596.97,-108.32 606.78,-104.32 596.61,-101.33 596.97,-108.32"/>
</g>
<!-- mnt_comp3 -->
<g id="node12" class="node">
<title>mnt_comp3</title>
<path fill="white" stroke="black" d="M425,-166C425,-166 351,-166 351,-166 345,-166 339,-160 339,-154 339,-154 339,-142 339,-142 339,-136 345,-130 351,-130 351,-130 425,-130 425,-130 431,-130 437,-136 437,-142 437,-142 437,-154 437,-154 437,-160 431,-166 425,-166"/>
<text text-anchor="middle" x="388" y="-144.3" font-family="Helvetica,sans-Serif" font-size="14.00">mnt_comp3</text>
</g>
<!-- rotate&#45;&gt;mnt_comp3 -->
<g id="edge10" class="edge">
<title>rotate&#45;&gt;mnt_comp3</title>
<path fill="none" stroke="black" stroke-width="1.2" d="M295.58,-134.53C305.92,-136.06 317.39,-137.75 328.6,-139.4"/>
<polygon fill="black" stroke="black" stroke-width="1.2" points="296.08,-131.07 285.67,-133.08 295.06,-138 296.08,-131.07"/>
<polygon fill="black" stroke="black" stroke-width="1.2" points="328.39,-142.91 338.8,-140.9 329.41,-135.98 328.39,-142.91"/>
</g>
<!-- fail_comp2 -->
<g id="node15" class="node">
<title>fail_comp2</title>
<path fill="white" stroke="black" d="M556,-166C556,-166 488,-166 488,-166 482,-166 476,-160 476,-154 476,-154 476,-142 476,-142 476,-136 482,-130 488,-130 488,-130 556,-130 556,-130 562,-130 568,-136 568,-142 568,-142 568,-154 568,-154 568,-160 562,-166 556,-166"/>
<text text-anchor="middle" x="522" y="-144.3" font-family="Helvetica,sans-Serif" font-size="14.00">fail_comp2</text>
</g>
<!-- rotate&#45;&gt;fail_comp2 -->
<g id="edge12" class="edge">
<title>rotate&#45;&gt;fail_comp2</title>
<path fill="none" stroke="black" stroke-width="1.2" d="M282.08,-147.09C297.47,-157.49 318.36,-169.55 339,-175 381.11,-186.12 393.97,-181.75 437,-175 446.55,-173.5 456.49,-171.1 466.05,-168.34"/>
<polygon fill="black" stroke="black" stroke-width="1.2" points="467.31,-171.62 475.85,-165.35 465.26,-164.92 467.31,-171.62"/>
</g>
<!-- pressure -->
<g id="node3" class="node">
<title>pressure</title>
<path fill="white" stroke="black" d="M682.5,-66C682.5,-66 629.5,-66 629.5,-66 623.5,-66 617.5,-60 617.5,-54 617.5,-54 617.5,-42 617.5,-42 617.5,-36 623.5,-30 629.5,-30 629.5,-30 682.5,-30 682.5,-30 688.5,-30 694.5,-36 694.5,-42 694.5,-42 694.5,-54 694.5,-54 694.5,-60 688.5,-66 682.5,-66"/>
<text text-anchor="middle" x="656" y="-44.3" font-family="Helvetica,sans-Serif" font-size="14.00">pressure</text>
</g>
<!-- vibration -->
<g id="node4" class="node">
<title>vibration</title>
<path fill="white" stroke="black" d="M807,-143C807,-143 753,-143 753,-143 747,-143 741,-137 741,-131 741,-131 741,-119 741,-119 741,-113 747,-107 753,-107 753,-107 807,-107 807,-107 813,-107 819,-113 819,-119 819,-119 819,-131 819,-131 819,-137 813,-143 807,-143"/>
<text text-anchor="middle" x="780" y="-121.3" font-family="Helvetica,sans-Serif" font-size="14.00">vibration</text>
</g>
<!-- vibration&#45;&gt;fail_comp2 -->
<g id="edge15" class="edge">
<title>vibration&#45;&gt;fail_comp2</title>
<path fill="none" stroke="black" stroke-width="1.2" d="M740.94,-128.42C697.9,-132.29 627.43,-138.62 578.32,-143.03"/>
<polygon fill="black" stroke="black" stroke-width="1.2" points="577.83,-139.56 568.18,-143.94 578.45,-146.53 577.83,-139.56"/>
</g>
<!-- err_error2 -->
<g id="node6" class="node">
<title>err_error2</title>
<path fill="white" stroke="black" d="M287.5,-285C287.5,-285 226.5,-285 226.5,-285 220.5,-285 214.5,-279 214.5,-273 214.5,-273 214.5,-261 214.5,-261 214.5,-255 220.5,-249 226.5,-249 226.5,-249 287.5,-249 287.5,-249 293.5,-249 299.5,-255 299.5,-261 299.5,-261 299.5,-273 299.5,-273 299.5,-279 293.5,-285 287.5,-285"/>
<text text-anchor="middle" x="257" y="-263.3" font-family="Helvetica,sans-Serif" font-size="14.00">err_error2</text>
</g>
<!-- err_error2&#45;&gt;err_error3 -->
<g id="edge16" class="edge">
<title>err_error2&#45;&gt;err_error3</title>
<path fill="none" stroke="black" stroke-width="1.2" d="M299.53,-258.31C310.92,-255.92 323.41,-253.31 335.3,-250.82"/>
<polygon fill="black" stroke="black" stroke-width="1.2" points="336.04,-254.24 345.11,-248.77 334.6,-247.39 336.04,-254.24"/>
</g>
<!-- err_error2&#45;&gt;err_error5 -->
<g id="edge17" class="edge">
<title>err_error2&#45;&gt;err_error5</title>
<path fill="none" stroke="black" stroke-width="1.2" d="M299.53,-275.69C310.92,-278.08 323.41,-280.69 335.3,-283.18"/>
<polygon fill="black" stroke="black" stroke-width="1.2" points="334.6,-286.61 345.11,-285.23 336.04,-279.76 334.6,-286.61"/>
</g>
<!-- err_error4&#45;&gt;rotate -->
<g id="edge6" class="edge">
<title>err_error4&#45;&gt;rotate</title>
<path fill="none" stroke="black" stroke-width="1.2" d="M175.31,-98.7C189.37,-103.98 204.95,-109.83 218.64,-114.97"/>
<polygon fill="black" stroke="black" stroke-width="1.2" points="217.63,-118.33 228.22,-118.57 220.09,-111.78 217.63,-118.33"/>
</g>
<!-- mnt_comp4 -->
<g id="node13" class="node">
<title>mnt_comp4</title>
<path fill="white" stroke="black" d="M559,-70C559,-70 485,-70 485,-70 479,-70 473,-64 473,-58 473,-58 473,-46 473,-46 473,-40 479,-34 485,-34 485,-34 559,-34 559,-34 565,-34 571,-40 571,-46 571,-46 571,-58 571,-58 571,-64 565,-70 559,-70"/>
<text text-anchor="middle" x="522" y="-48.3" font-family="Helvetica,sans-Serif" font-size="14.00">mnt_comp4</text>
</g>
<!-- mnt_comp1&#45;&gt;mnt_comp4 -->
<g id="edge18" class="edge">
<title>mnt_comp1&#45;&gt;mnt_comp4</title>
<path fill="none" stroke="black" stroke-width="1.2" d="M437.03,-30.37C445.49,-32.55 454.38,-34.84 463.08,-37.08"/>
<polygon fill="black" stroke="black" stroke-width="1.2" points="462.23,-40.48 472.79,-39.58 463.98,-33.7 462.23,-40.48"/>
</g>
<!-- mnt_comp2&#45;&gt;vibration -->
<g id="edge14" class="edge">
<title>mnt_comp2&#45;&gt;vibration</title>
<path fill="none" stroke="black" stroke-width="1.2" d="M705.22,-111.09C713.65,-112.68 722.42,-114.33 730.84,-115.92"/>
<polygon fill="black" stroke="black" stroke-width="1.2" points="730.43,-119.4 740.91,-117.82 731.73,-112.53 730.43,-119.4"/>
</g>
<!-- mnt_comp3&#45;&gt;fail_comp2 -->
<g id="edge22" class="edge">
<title>mnt_comp3&#45;&gt;fail_comp2</title>
<path fill="none" stroke="black" stroke-width="1.2" d="M437.03,-148C446.34,-148 456.17,-148 465.69,-148"/>
<polygon fill="black" stroke="black" stroke-width="1.2" points="465.86,-151.5 475.86,-148 465.86,-144.5 465.86,-151.5"/>
</g>
<!-- mnt_comp4&#45;&gt;rotate -->
<g id="edge11" class="edge">
<title>mnt_comp4&#45;&gt;rotate</title>
<path fill="none" stroke="black" stroke-width="1.2" d="M472.93,-57.85C435.68,-63.25 383.15,-72.78 339,-88 323.99,-93.17 308.25,-100.63 294.67,-107.76"/>
<polygon fill="black" stroke="black" stroke-width="1.2" points="292.8,-104.79 285.66,-112.62 296.12,-110.96 292.8,-104.79"/>
</g>
<!-- mnt_comp4&#45;&gt;pressure -->
<g id="edge13" class="edge">
<title>mnt_comp4&#45;&gt;pressure</title>
<path fill="none" stroke="black" stroke-width="1.2" d="M571.03,-50.54C582.77,-50.19 595.34,-49.81 607.08,-49.45"/>
<polygon fill="black" stroke="black" stroke-width="1.2" points="607.25,-52.95 617.14,-49.15 607.04,-45.95 607.25,-52.95"/>
</g>
<!-- mnt_comp4&#45;&gt;mnt_comp2 -->
<g id="edge20" class="edge">
<title>mnt_comp4&#45;&gt;mnt_comp2</title>
<path fill="none" stroke="black" stroke-width="1.2" d="M570.66,-70.05C579.53,-73.41 588.89,-76.96 598.02,-80.42"/>
<polygon fill="black" stroke="black" stroke-width="1.2" points="596.82,-83.71 607.41,-83.98 599.3,-77.16 596.82,-83.71"/>
</g>
<!-- fail_comp1&#45;&gt;mnt_comp1 -->
<g id="edge19" class="edge">
<title>fail_comp1&#45;&gt;mnt_comp1</title>
<path fill="none" stroke="black" stroke-width="1.2" d="M303.12,-21.25C311.28,-20.93 319.9,-20.6 328.38,-20.27"/>
<polygon fill="black" stroke="black" stroke-width="1.2" points="328.76,-23.76 338.62,-19.88 328.49,-16.77 328.76,-23.76"/>
</g>
<!-- fail_comp2&#45;&gt;mnt_comp2 -->
<g id="edge21" class="edge">
<title>fail_comp2&#45;&gt;mnt_comp2</title>
<path fill="none" stroke="black" stroke-width="1.2" d="M568.06,-132.3C577.47,-129.02 587.51,-125.52 597.31,-122.1"/>
<polygon fill="black" stroke="black" stroke-width="1.2" points="598.7,-125.33 606.99,-118.73 596.39,-118.72 598.7,-125.33"/>
</g>
</g>
</svg>
