<?xml version="1.0" encoding="UTF-8" standalone="no"?>
<!DOCTYPE svg PUBLIC "-//W3C//DTD SVG 1.1//EN"
 "http://www.w3.org/Graphics/SVG/1.1/DTD/svg11.dtd">
<!-- Generated by graphviz version 2.50.0 (0)
 -->
<!-- Title: G Pages: 1 -->
<svg width="1196pt" height="430pt"
 viewBox="0.00 0.00 1196.00 430.00" xmlns="http://www.w3.org/2000/svg" xmlns:xlink="http://www.w3.org/1999/xlink">
<g id="graph0" class="graph" transform="scale(1 1) rotate(0) translate(4 426)">
<title>G</title>
<polygon fill="white" stroke="transparent" points="-4,4 -4,-426 1192,-426 1192,4 -4,4"/>
<text text-anchor="middle" x="594" y="-405.2" font-family="Times,serif" font-size="16.00">model=model3/cbnb_w_mixed.json [machine 8]</text>
<!-- volt -->
<g id="node1" class="node">
<title>volt</title>
<path fill="white" stroke="black" d="M42,-231C42,-231 12,-231 12,-231 6,-231 0,-225 0,-219 0,-219 0,-207 0,-207 0,-201 6,-195 12,-195 12,-195 42,-195 42,-195 48,-195 54,-201 54,-207 54,-207 54,-219 54,-219 54,-225 48,-231 42,-231"/>
<text text-anchor="middle" x="27" y="-209.3" font-family="Helvetica,sans-Serif" font-size="14.00">volt</text>
</g>
<!-- err_error2 -->
<g id="node6" class="node">
<title>err_error2</title>
<path fill="white" stroke="black" d="M1169.5,-281C1169.5,-281 1108.5,-281 1108.5,-281 1102.5,-281 1096.5,-275 1096.5,-269 1096.5,-269 1096.5,-257 1096.5,-257 1096.5,-251 1102.5,-245 1108.5,-245 1108.5,-245 1169.5,-245 1169.5,-245 1175.5,-245 1181.5,-251 1181.5,-257 1181.5,-257 1181.5,-269 1181.5,-269 1181.5,-275 1175.5,-281 1169.5,-281"/>
<text text-anchor="middle" x="1139" y="-259.3" font-family="Helvetica,sans-Serif" font-size="14.00">err_error2</text>
</g>
<!-- volt&#45;&gt;err_error2 -->
<g id="edge1" class="edge">
<title>volt&#45;&gt;err_error2</title>
<path fill="none" stroke="black" stroke-width="1.2" d="M44.15,-239.74C77.09,-290.55 157.36,-396 256,-396 256,-396 256,-396 878.5,-396 972.15,-396 1065.95,-326.55 1110.79,-288.02"/>
<polygon fill="black" stroke="black" stroke-width="1.2" points="47.05,-237.78 38.73,-231.22 41.14,-241.53 47.05,-237.78"/>
<polygon fill="black" stroke="black" stroke-width="1.2" points="1113.36,-290.43 1118.58,-281.21 1108.75,-285.16 1113.36,-290.43"/>
</g>
<!-- err_error5 -->
<g id="node9" class="node">
<title>err_error5</title>
<path fill="white" stroke="black" d="M163,-254C163,-254 102,-254 102,-254 96,-254 90,-248 90,-242 90,-242 90,-230 90,-230 90,-224 96,-218 102,-218 102,-218 163,-218 163,-218 169,-218 175,-224 175,-230 175,-230 175,-242 175,-242 175,-248 169,-254 163,-254"/>
<text text-anchor="middle" x="132.5" y="-232.3" font-family="Helvetica,sans-Serif" font-size="14.00">err_error5</text>
</g>
<!-- volt&#45;&gt;err_error5 -->
<g id="edge2" class="edge">
<title>volt&#45;&gt;err_error5</title>
<path fill="none" stroke="black" stroke-width="1.2" d="M54.12,-218.8C61.95,-220.54 70.83,-222.52 79.71,-224.49"/>
<polygon fill="black" stroke="black" stroke-width="1.2" points="79.16,-227.95 89.68,-226.71 80.68,-221.12 79.16,-227.95"/>
</g>
<!-- mnt_comp1 -->
<g id="node10" class="node">
<title>mnt_comp1</title>
<path fill="white" stroke="black" d="M425,-254C425,-254 351,-254 351,-254 345,-254 339,-248 339,-242 339,-242 339,-230 339,-230 339,-224 345,-218 351,-218 351,-218 425,-218 425,-218 431,-218 437,-224 437,-230 437,-230 437,-242 437,-242 437,-248 431,-254 425,-254"/>
<text text-anchor="middle" x="388" y="-232.3" font-family="Helvetica,sans-Serif" font-size="14.00">mnt_comp1</text>
</g>
<!-- volt&#45;&gt;mnt_comp1 -->
<g id="edge3" class="edge">
<title>volt&#45;&gt;mnt_comp1</title>
<path fill="none" stroke="black" stroke-width="1.2" d="M54.37,-209.67C103.6,-204.1 212.67,-194.84 303,-209 311.8,-210.38 320.93,-212.52 329.79,-215.02"/>
<polygon fill="black" stroke="black" stroke-width="1.2" points="329.07,-218.45 339.65,-217.95 331.07,-211.74 329.07,-218.45"/>
</g>
<!-- rotate -->
<g id="node2" class="node">
<title>rotate</title>
<path fill="white" stroke="black" d="M773,-270C773,-270 740,-270 740,-270 734,-270 728,-264 728,-258 728,-258 728,-246 728,-246 728,-240 734,-234 740,-234 740,-234 773,-234 773,-234 779,-234 785,-240 785,-246 785,-246 785,-258 785,-258 785,-264 779,-270 773,-270"/>
<text text-anchor="middle" x="756.5" y="-248.3" font-family="Helvetica,sans-Serif" font-size="14.00">rotate</text>
</g>
<!-- vibration -->
<g id="node4" class="node">
<title>vibration</title>
<path fill="white" stroke="black" d="M284,-254C284,-254 230,-254 230,-254 224,-254 218,-248 218,-242 218,-242 218,-230 218,-230 218,-224 224,-218 230,-218 230,-218 284,-218 284,-218 290,-218 296,-224 296,-230 296,-230 296,-242 296,-242 296,-248 290,-254 284,-254"/>
<text text-anchor="middle" x="257" y="-232.3" font-family="Helvetica,sans-Serif" font-size="14.00">vibration</text>
</g>
<!-- rotate&#45;&gt;vibration -->
<g id="edge8" class="edge">
<title>rotate&#45;&gt;vibration</title>
<path fill="none" stroke="black" stroke-width="1.2" d="M717.83,-257.66C644.39,-267.67 477.15,-285.42 339,-263 328.02,-261.22 316.52,-258.16 305.75,-254.73"/>
<polygon fill="black" stroke="black" stroke-width="1.2" points="718.55,-261.09 727.97,-256.24 717.59,-254.16 718.55,-261.09"/>
<polygon fill="black" stroke="black" stroke-width="1.2" points="306.69,-251.35 296.09,-251.5 304.46,-257.99 306.69,-251.35"/>
</g>
<!-- err_error4 -->
<g id="node8" class="node">
<title>err_error4</title>
<path fill="white" stroke="black" d="M908,-226C908,-226 847,-226 847,-226 841,-226 835,-220 835,-214 835,-214 835,-202 835,-202 835,-196 841,-190 847,-190 847,-190 908,-190 908,-190 914,-190 920,-196 920,-202 920,-202 920,-214 920,-214 920,-220 914,-226 908,-226"/>
<text text-anchor="middle" x="877.5" y="-204.3" font-family="Helvetica,sans-Serif" font-size="14.00">err_error4</text>
</g>
<!-- rotate&#45;&gt;err_error4 -->
<g id="edge9" class="edge">
<title>rotate&#45;&gt;err_error4</title>
<path fill="none" stroke="black" stroke-width="1.2" d="M794.84,-238.19C804.4,-234.66 814.86,-230.79 825,-227.04"/>
<polygon fill="black" stroke="black" stroke-width="1.2" points="793.27,-235.04 785.1,-241.79 795.69,-241.61 793.27,-235.04"/>
<polygon fill="black" stroke="black" stroke-width="1.2" points="826.42,-230.25 834.59,-223.5 823.99,-223.68 826.42,-230.25"/>
</g>
<!-- rotate&#45;&gt;mnt_comp1 -->
<g id="edge10" class="edge">
<title>rotate&#45;&gt;mnt_comp1</title>
<path fill="none" stroke="black" stroke-width="1.2" d="M727.64,-250.78C668.2,-248.19 527.81,-242.06 447.7,-238.56"/>
<polygon fill="black" stroke="black" stroke-width="1.2" points="447.43,-235.05 437.29,-238.11 447.13,-242.04 447.43,-235.05"/>
</g>
<!-- pressure -->
<g id="node3" class="node">
<title>pressure</title>
<path fill="white" stroke="black" d="M666,-216C666,-216 613,-216 613,-216 607,-216 601,-210 601,-204 601,-204 601,-192 601,-192 601,-186 607,-180 613,-180 613,-180 666,-180 666,-180 672,-180 678,-186 678,-192 678,-192 678,-204 678,-204 678,-210 672,-216 666,-216"/>
<text text-anchor="middle" x="639.5" y="-194.3" font-family="Helvetica,sans-Serif" font-size="14.00">pressure</text>
</g>
<!-- pressure&#45;&gt;rotate -->
<g id="edge7" class="edge">
<title>pressure&#45;&gt;rotate</title>
<path fill="none" stroke="black" stroke-width="1.2" d="M678.16,-215.68C691.23,-221.82 705.86,-228.69 718.85,-234.79"/>
<polygon fill="black" stroke="black" stroke-width="1.2" points="717.43,-237.99 727.97,-239.07 720.41,-231.66 717.43,-237.99"/>
</g>
<!-- err_error1 -->
<g id="node5" class="node">
<title>err_error1</title>
<path fill="white" stroke="black" d="M787,-178C787,-178 726,-178 726,-178 720,-178 714,-172 714,-166 714,-166 714,-154 714,-154 714,-148 720,-142 726,-142 726,-142 787,-142 787,-142 793,-142 799,-148 799,-154 799,-154 799,-166 799,-166 799,-172 793,-178 787,-178"/>
<text text-anchor="middle" x="756.5" y="-156.3" font-family="Helvetica,sans-Serif" font-size="14.00">err_error1</text>
</g>
<!-- pressure&#45;&gt;err_error1 -->
<g id="edge13" class="edge">
<title>pressure&#45;&gt;err_error1</title>
<path fill="none" stroke="black" stroke-width="1.2" d="M687.73,-182.39C693.13,-180.61 698.65,-178.79 704.1,-176.98"/>
<polygon fill="black" stroke="black" stroke-width="1.2" points="686.55,-179.1 678.16,-185.56 688.75,-185.74 686.55,-179.1"/>
<polygon fill="black" stroke="black" stroke-width="1.2" points="705.39,-180.25 713.78,-173.78 703.19,-173.6 705.39,-180.25"/>
</g>
<!-- mnt_comp2 -->
<g id="node11" class="node">
<title>mnt_comp2</title>
<path fill="white" stroke="black" d="M1176,-113C1176,-113 1102,-113 1102,-113 1096,-113 1090,-107 1090,-101 1090,-101 1090,-89 1090,-89 1090,-83 1096,-77 1102,-77 1102,-77 1176,-77 1176,-77 1182,-77 1188,-83 1188,-89 1188,-89 1188,-101 1188,-101 1188,-107 1182,-113 1176,-113"/>
<text text-anchor="middle" x="1139" y="-91.3" font-family="Helvetica,sans-Serif" font-size="14.00">mnt_comp2</text>
</g>
<!-- pressure&#45;&gt;mnt_comp2 -->
<g id="edge15" class="edge">
<title>pressure&#45;&gt;mnt_comp2</title>
<path fill="none" stroke="black" stroke-width="1.2" d="M688.4,-198.27C720.11,-197.57 762.44,-194.96 799,-187 871.84,-171.14 884.15,-147.84 956,-128 996.71,-116.76 1043.63,-108.36 1079.63,-102.85"/>
<polygon fill="black" stroke="black" stroke-width="1.2" points="688.02,-194.78 678.08,-198.44 688.14,-201.78 688.02,-194.78"/>
<polygon fill="black" stroke="black" stroke-width="1.2" points="1080.58,-106.24 1089.95,-101.3 1079.55,-99.32 1080.58,-106.24"/>
</g>
<!-- vibration&#45;&gt;mnt_comp1 -->
<g id="edge19" class="edge">
<title>vibration&#45;&gt;mnt_comp1</title>
<path fill="none" stroke="black" stroke-width="1.2" d="M296.01,-236C306.25,-236 317.57,-236 328.65,-236"/>
<polygon fill="black" stroke="black" stroke-width="1.2" points="328.71,-239.5 338.71,-236 328.71,-232.5 328.71,-239.5"/>
</g>
<!-- mnt_comp4 -->
<g id="node13" class="node">
<title>mnt_comp4</title>
<path fill="white" stroke="black" d="M425,-346C425,-346 351,-346 351,-346 345,-346 339,-340 339,-334 339,-334 339,-322 339,-322 339,-316 345,-310 351,-310 351,-310 425,-310 425,-310 431,-310 437,-316 437,-322 437,-322 437,-334 437,-334 437,-340 431,-346 425,-346"/>
<text text-anchor="middle" x="388" y="-324.3" font-family="Helvetica,sans-Serif" font-size="14.00">mnt_comp4</text>
</g>
<!-- vibration&#45;&gt;mnt_comp4 -->
<g id="edge20" class="edge">
<title>vibration&#45;&gt;mnt_comp4</title>
<path fill="none" stroke="black" stroke-width="1.2" d="M283.84,-254.09C290.14,-258.58 296.85,-263.42 303,-268 319.26,-280.1 322.56,-284.15 339,-296 342.71,-298.67 346.63,-301.41 350.55,-304.11"/>
<polygon fill="black" stroke="black" stroke-width="1.2" points="348.85,-307.19 359.1,-309.9 352.78,-301.39 348.85,-307.19"/>
</g>
<!-- fail_comp2 -->
<g id="node14" class="node">
<title>fail_comp2</title>
<path fill="white" stroke="black" d="M553,-143C553,-143 485,-143 485,-143 479,-143 473,-137 473,-131 473,-131 473,-119 473,-119 473,-113 479,-107 485,-107 485,-107 553,-107 553,-107 559,-107 565,-113 565,-119 565,-119 565,-131 565,-131 565,-137 559,-143 553,-143"/>
<text text-anchor="middle" x="519" y="-121.3" font-family="Helvetica,sans-Serif" font-size="14.00">fail_comp2</text>
</g>
<!-- vibration&#45;&gt;fail_comp2 -->
<g id="edge21" class="edge">
<title>vibration&#45;&gt;fail_comp2</title>
<path fill="none" stroke="black" stroke-width="1.2" d="M287,-217.96C302.17,-208.93 321.23,-198.2 339,-190 379.47,-171.32 426.96,-154.29 462.85,-142.35"/>
<polygon fill="black" stroke="black" stroke-width="1.2" points="464.25,-145.57 472.65,-139.12 462.06,-138.92 464.25,-145.57"/>
</g>
<!-- err_error3 -->
<g id="node7" class="node">
<title>err_error3</title>
<path fill="white" stroke="black" d="M549.5,-208C549.5,-208 488.5,-208 488.5,-208 482.5,-208 476.5,-202 476.5,-196 476.5,-196 476.5,-184 476.5,-184 476.5,-178 482.5,-172 488.5,-172 488.5,-172 549.5,-172 549.5,-172 555.5,-172 561.5,-178 561.5,-184 561.5,-184 561.5,-196 561.5,-196 561.5,-202 555.5,-208 549.5,-208"/>
<text text-anchor="middle" x="519" y="-186.3" font-family="Helvetica,sans-Serif" font-size="14.00">err_error3</text>
</g>
<!-- err_error3&#45;&gt;pressure -->
<g id="edge14" class="edge">
<title>err_error3&#45;&gt;pressure</title>
<path fill="none" stroke="black" stroke-width="1.2" d="M561.78,-192.82C571.08,-193.45 581,-194.12 590.53,-194.76"/>
<polygon fill="black" stroke="black" stroke-width="1.2" points="590.44,-198.26 600.66,-195.45 590.91,-191.28 590.44,-198.26"/>
</g>
<!-- err_error3&#45;&gt;vibration -->
<g id="edge17" class="edge">
<title>err_error3&#45;&gt;vibration</title>
<path fill="none" stroke="black" stroke-width="1.2" d="M476.36,-191.87C439.82,-194.11 385.42,-198.92 339,-209 328.13,-211.36 316.68,-214.65 305.91,-218.14"/>
<polygon fill="black" stroke="black" stroke-width="1.2" points="304.63,-214.87 296.25,-221.36 306.85,-221.51 304.63,-214.87"/>
</g>
<!-- err_error3&#45;&gt;err_error2 -->
<g id="edge22" class="edge">
<title>err_error3&#45;&gt;err_error2</title>
<path fill="none" stroke="black" stroke-width="1.2" d="M561.61,-174C600.38,-160.01 660.14,-140.75 714,-133 751.39,-127.62 768.16,-111.18 799,-133 838.24,-160.77 797.3,-205.17 835,-235 906.87,-291.86 1020.47,-284.51 1086.24,-273.87"/>
<polygon fill="black" stroke="black" stroke-width="1.2" points="1087.1,-277.28 1096.37,-272.15 1085.93,-270.38 1087.1,-277.28"/>
</g>
<!-- err_error3&#45;&gt;mnt_comp2 -->
<g id="edge26" class="edge">
<title>err_error3&#45;&gt;mnt_comp2</title>
<path fill="none" stroke="black" stroke-width="1.2" d="M540.75,-171.94C579.89,-139.79 668.51,-76 755.5,-76 755.5,-76 755.5,-76 878.5,-76 947.74,-76 1027.1,-82.81 1079.63,-88.28"/>
<polygon fill="black" stroke="black" stroke-width="1.2" points="1079.46,-91.78 1089.77,-89.35 1080.2,-84.82 1079.46,-91.78"/>
</g>
<!-- err_error4&#45;&gt;err_error2 -->
<g id="edge23" class="edge">
<title>err_error4&#45;&gt;err_error2</title>
<path fill="none" stroke="black" stroke-width="1.2" d="M920.31,-217.25C931.87,-219.79 944.42,-222.52 956,-225 1000,-234.42 1050.04,-244.85 1086.5,-252.39"/>
<polygon fill="black" stroke="black" stroke-width="1.2" points="1085.91,-255.84 1096.41,-254.44 1087.33,-248.99 1085.91,-255.84"/>
</g>
<!-- err_error4&#45;&gt;mnt_comp2 -->
<g id="edge27" class="edge">
<title>err_error4&#45;&gt;mnt_comp2</title>
<path fill="none" stroke="black" stroke-width="1.2" d="M915.38,-189.93C928.18,-183.78 942.66,-176.96 956,-171 998.47,-152.01 1047.12,-131.77 1083.43,-116.96"/>
<polygon fill="black" stroke="black" stroke-width="1.2" points="1084.91,-120.13 1092.86,-113.12 1082.27,-113.65 1084.91,-120.13"/>
</g>
<!-- mnt_comp3 -->
<g id="node12" class="node">
<title>mnt_comp3</title>
<path fill="white" stroke="black" d="M1042,-216C1042,-216 968,-216 968,-216 962,-216 956,-210 956,-204 956,-204 956,-192 956,-192 956,-186 962,-180 968,-180 968,-180 1042,-180 1042,-180 1048,-180 1054,-186 1054,-192 1054,-192 1054,-204 1054,-204 1054,-210 1048,-216 1042,-216"/>
<text text-anchor="middle" x="1005" y="-194.3" font-family="Helvetica,sans-Serif" font-size="14.00">mnt_comp3</text>
</g>
<!-- err_error4&#45;&gt;mnt_comp3 -->
<g id="edge28" class="edge">
<title>err_error4&#45;&gt;mnt_comp3</title>
<path fill="none" stroke="black" stroke-width="1.2" d="M920.29,-204.67C928.49,-204.02 937.23,-203.32 945.85,-202.63"/>
<polygon fill="black" stroke="black" stroke-width="1.2" points="946.19,-206.12 955.88,-201.83 945.64,-199.14 946.19,-206.12"/>
</g>
<!-- err_error5&#45;&gt;vibration -->
<g id="edge18" class="edge">
<title>err_error5&#45;&gt;vibration</title>
<path fill="none" stroke="black" stroke-width="1.2" d="M175.31,-236C185.71,-236 196.95,-236 207.63,-236"/>
<polygon fill="black" stroke="black" stroke-width="1.2" points="207.67,-239.5 217.67,-236 207.67,-232.5 207.67,-239.5"/>
</g>
<!-- mnt_comp1&#45;&gt;err_error3 -->
<g id="edge25" class="edge">
<title>mnt_comp1&#45;&gt;err_error3</title>
<path fill="none" stroke="black" stroke-width="1.2" d="M437.03,-218.87C446.71,-215.42 456.91,-211.79 466.68,-208.3"/>
<polygon fill="black" stroke="black" stroke-width="1.2" points="468.04,-211.53 476.28,-204.88 465.69,-204.94 468.04,-211.53"/>
</g>
<!-- mnt_comp2&#45;&gt;volt -->
<g id="edge4" class="edge">
<title>mnt_comp2&#45;&gt;volt</title>
<path fill="none" stroke="black" stroke-width="1.2" d="M1116.2,-76.75C1100,-64.08 1076.84,-47.78 1054,-38 980.64,-6.58 958.31,0 878.5,0 256,0 256,0 256,0 148.47,0 70.6,-128.08 41.06,-185.6"/>
<polygon fill="black" stroke="black" stroke-width="1.2" points="37.78,-184.33 36.42,-194.84 44.04,-187.47 37.78,-184.33"/>
</g>
<!-- mnt_comp3&#45;&gt;err_error2 -->
<g id="edge24" class="edge">
<title>mnt_comp3&#45;&gt;err_error2</title>
<path fill="none" stroke="black" stroke-width="1.2" d="M1042.77,-216.11C1058.07,-223.64 1076.01,-232.47 1092.16,-240.43"/>
<polygon fill="black" stroke="black" stroke-width="1.2" points="1090.91,-243.71 1101.43,-244.99 1094,-237.43 1090.91,-243.71"/>
</g>
<!-- mnt_comp3&#45;&gt;mnt_comp2 -->
<g id="edge29" class="edge">
<title>mnt_comp3&#45;&gt;mnt_comp2</title>
<path fill="none" stroke="black" stroke-width="1.2" d="M1034.29,-179.91C1040.86,-175.5 1047.76,-170.7 1054,-166 1073.23,-151.53 1093.89,-134.1 1109.9,-120.13"/>
<polygon fill="black" stroke="black" stroke-width="1.2" points="1112.62,-122.41 1117.82,-113.18 1108,-117.15 1112.62,-122.41"/>
</g>
<!-- mnt_comp4&#45;&gt;volt -->
<g id="edge5" class="edge">
<title>mnt_comp4&#45;&gt;volt</title>
<path fill="none" stroke="black" stroke-width="1.2" d="M338.9,-311.32C327.24,-307.61 314.74,-303.92 303,-301 209.68,-277.79 177.5,-302.88 90,-263 76.56,-256.88 63.55,-247.16 52.94,-237.92"/>
<polygon fill="black" stroke="black" stroke-width="1.2" points="55.09,-235.14 45.33,-231.01 50.38,-240.32 55.09,-235.14"/>
</g>
<!-- mnt_comp4&#45;&gt;rotate -->
<g id="edge11" class="edge">
<title>mnt_comp4&#45;&gt;rotate</title>
<path fill="none" stroke="black" stroke-width="1.2" d="M437.03,-328.55C495.41,-327.9 596.24,-322.49 678,-296 692.95,-291.16 708.23,-283.23 721.24,-275.43"/>
<polygon fill="black" stroke="black" stroke-width="1.2" points="723.19,-278.34 729.84,-270.09 719.5,-272.39 723.19,-278.34"/>
</g>
<!-- mnt_comp4&#45;&gt;pressure -->
<g id="edge16" class="edge">
<title>mnt_comp4&#45;&gt;pressure</title>
<path fill="none" stroke="black" stroke-width="1.2" d="M423.69,-309.92C468.35,-286.66 545.97,-246.21 594.66,-220.84"/>
<polygon fill="black" stroke="black" stroke-width="1.2" points="596.45,-223.86 603.7,-216.13 593.22,-217.65 596.45,-223.86"/>
</g>
<!-- fail_comp2&#45;&gt;volt -->
<g id="edge6" class="edge">
<title>fail_comp2&#45;&gt;volt</title>
<path fill="none" stroke="black" stroke-width="1.2" d="M472.99,-129.58C436.71,-133.49 384.44,-139.66 339,-147 227.57,-165.01 200.02,-171.78 90,-197 81.51,-198.95 72.41,-201.2 63.87,-203.39"/>
<polygon fill="black" stroke="black" stroke-width="1.2" points="62.97,-200.01 54.17,-205.91 64.73,-206.78 62.97,-200.01"/>
</g>
<!-- fail_comp2&#45;&gt;rotate -->
<g id="edge12" class="edge">
<title>fail_comp2&#45;&gt;rotate</title>
<path fill="none" stroke="black" stroke-width="1.2" d="M565.11,-131.65C598.18,-138.02 643.19,-149.88 678,-171 701.16,-185.06 722.05,-207.78 736.29,-225.59"/>
<polygon fill="black" stroke="black" stroke-width="1.2" points="733.83,-228.12 742.73,-233.87 739.36,-223.83 733.83,-228.12"/>
</g>
<!-- fail_comp2&#45;&gt;mnt_comp2 -->
<g id="edge30" class="edge">
<title>fail_comp2&#45;&gt;mnt_comp2</title>
<path fill="none" stroke="black" stroke-width="1.2" d="M537.54,-106.99C552.87,-92.4 576.47,-72.59 601,-62 664.8,-34.46 686.01,-38 755.5,-38 755.5,-38 755.5,-38 878.5,-38 957.23,-38 977.82,-42.13 1054,-62 1065.26,-64.94 1077.05,-68.94 1088.12,-73.16"/>
<polygon fill="black" stroke="black" stroke-width="1.2" points="1087.05,-76.5 1097.63,-76.89 1089.6,-69.98 1087.05,-76.5"/>
</g>
<!-- fail_comp4 -->
<g id="node15" class="node">
<title>fail_comp4</title>
<path fill="white" stroke="black" d="M291,-346C291,-346 223,-346 223,-346 217,-346 211,-340 211,-334 211,-334 211,-322 211,-322 211,-316 217,-310 223,-310 223,-310 291,-310 291,-310 297,-310 303,-316 303,-322 303,-322 303,-334 303,-334 303,-340 297,-346 291,-346"/>
<text text-anchor="middle" x="257" y="-324.3" font-family="Helvetica,sans-Serif" font-size="14.00">fail_comp4</text>
</g>
<!-- fail_comp4&#45;&gt;mnt_comp4 -->
<g id="edge31" class="edge">
<title>fail_comp4&#45;&gt;mnt_comp4</title>
<path fill="none" stroke="black" stroke-width="1.2" d="M303.12,-328C311.28,-328 319.9,-328 328.38,-328"/>
<polygon fill="black" stroke="black" stroke-width="1.2" points="328.62,-331.5 338.62,-328 328.62,-324.5 328.62,-331.5"/>
</g>
</g>
</svg>
