<?xml version="1.0" encoding="UTF-8" standalone="no"?>
<!DOCTYPE svg PUBLIC "-//W3C//DTD SVG 1.1//EN"
 "http://www.w3.org/Graphics/SVG/1.1/DTD/svg11.dtd">
<!-- Generated by graphviz version 2.50.0 (0)
 -->
<!-- Title: G Pages: 1 -->
<svg width="1296pt" height="674pt"
 viewBox="0.00 0.00 1296.00 674.00" xmlns="http://www.w3.org/2000/svg" xmlns:xlink="http://www.w3.org/1999/xlink">
<g id="graph0" class="graph" transform="scale(1 1) rotate(0) translate(4 670)">
<title>G</title>
<polygon fill="white" stroke="transparent" points="-4,4 -4,-670 1292,-670 1292,4 -4,4"/>
<text text-anchor="middle" x="644" y="-649.2" font-family="Times,serif" font-size="16.00">model=model3/cbnb_w_mixed.json [machine 7]</text>
<!-- volt -->
<g id="node1" class="node">
<title>volt</title>
<path fill="white" stroke="black" d="M42,-406C42,-406 12,-406 12,-406 6,-406 0,-400 0,-394 0,-394 0,-382 0,-382 0,-376 6,-370 12,-370 12,-370 42,-370 42,-370 48,-370 54,-376 54,-382 54,-382 54,-394 54,-394 54,-400 48,-406 42,-406"/>
<text text-anchor="middle" x="27" y="-384.3" font-family="Helvetica,sans-Serif" font-size="14.00">volt</text>
</g>
<!-- err_error1 -->
<g id="node5" class="node">
<title>err_error1</title>
<path fill="white" stroke="black" d="M163,-383C163,-383 102,-383 102,-383 96,-383 90,-377 90,-371 90,-371 90,-359 90,-359 90,-353 96,-347 102,-347 102,-347 163,-347 163,-347 169,-347 175,-353 175,-359 175,-359 175,-371 175,-371 175,-377 169,-383 163,-383"/>
<text text-anchor="middle" x="132.5" y="-361.3" font-family="Helvetica,sans-Serif" font-size="14.00">err_error1</text>
</g>
<!-- volt&#45;&gt;err_error1 -->
<g id="edge1" class="edge">
<title>volt&#45;&gt;err_error1</title>
<path fill="none" stroke="black" stroke-width="1.2" d="M63.9,-380.02C68.97,-378.9 74.26,-377.72 79.55,-376.54"/>
<polygon fill="black" stroke="black" stroke-width="1.2" points="63.12,-376.61 54.12,-382.2 64.64,-383.44 63.12,-376.61"/>
<polygon fill="black" stroke="black" stroke-width="1.2" points="80.68,-379.88 89.68,-374.29 79.16,-373.05 80.68,-379.88"/>
</g>
<!-- err_error5 -->
<g id="node9" class="node">
<title>err_error5</title>
<path fill="white" stroke="black" d="M377,-467C377,-467 316,-467 316,-467 310,-467 304,-461 304,-455 304,-455 304,-443 304,-443 304,-437 310,-431 316,-431 316,-431 377,-431 377,-431 383,-431 389,-437 389,-443 389,-443 389,-455 389,-455 389,-461 383,-467 377,-467"/>
<text text-anchor="middle" x="346.5" y="-445.3" font-family="Helvetica,sans-Serif" font-size="14.00">err_error5</text>
</g>
<!-- volt&#45;&gt;err_error5 -->
<g id="edge3" class="edge">
<title>volt&#45;&gt;err_error5</title>
<path fill="none" stroke="black" stroke-width="1.2" d="M64.3,-394.97C120.68,-405.81 229.5,-426.71 293.99,-439.1"/>
<polygon fill="black" stroke="black" stroke-width="1.2" points="64.73,-391.49 54.25,-393.04 63.41,-398.37 64.73,-391.49"/>
<polygon fill="black" stroke="black" stroke-width="1.2" points="293.46,-442.57 303.94,-441.02 294.78,-435.69 293.46,-442.57"/>
</g>
<!-- mnt_comp3 -->
<g id="node12" class="node">
<title>mnt_comp3</title>
<path fill="white" stroke="black" d="M753,-208C753,-208 679,-208 679,-208 673,-208 667,-202 667,-196 667,-196 667,-184 667,-184 667,-178 673,-172 679,-172 679,-172 753,-172 753,-172 759,-172 765,-178 765,-184 765,-184 765,-196 765,-196 765,-202 759,-208 753,-208"/>
<text text-anchor="middle" x="716" y="-186.3" font-family="Helvetica,sans-Serif" font-size="14.00">mnt_comp3</text>
</g>
<!-- volt&#45;&gt;mnt_comp3 -->
<g id="edge5" class="edge">
<title>volt&#45;&gt;mnt_comp3</title>
<path fill="none" stroke="black" stroke-width="1.2" d="M29.23,-369.72C33.69,-308.26 50.89,-110.21 90,-62 135.06,-6.46 166.98,0 238.5,0 238.5,0 238.5,0 472,0 576.79,0 663.36,-111.01 698.34,-163.32"/>
<polygon fill="black" stroke="black" stroke-width="1.2" points="695.47,-165.34 703.88,-171.78 701.33,-161.5 695.47,-165.34"/>
</g>
<!-- rotate -->
<g id="node2" class="node">
<title>rotate</title>
<path fill="white" stroke="black" d="M256,-383C256,-383 223,-383 223,-383 217,-383 211,-377 211,-371 211,-371 211,-359 211,-359 211,-353 217,-347 223,-347 223,-347 256,-347 256,-347 262,-347 268,-353 268,-359 268,-359 268,-371 268,-371 268,-377 262,-383 256,-383"/>
<text text-anchor="middle" x="239.5" y="-361.3" font-family="Helvetica,sans-Serif" font-size="14.00">rotate</text>
</g>
<!-- err_error3 -->
<g id="node7" class="node">
<title>err_error3</title>
<path fill="white" stroke="black" d="M501.5,-467C501.5,-467 440.5,-467 440.5,-467 434.5,-467 428.5,-461 428.5,-455 428.5,-455 428.5,-443 428.5,-443 428.5,-437 434.5,-431 440.5,-431 440.5,-431 501.5,-431 501.5,-431 507.5,-431 513.5,-437 513.5,-443 513.5,-443 513.5,-455 513.5,-455 513.5,-461 507.5,-467 501.5,-467"/>
<text text-anchor="middle" x="471" y="-445.3" font-family="Helvetica,sans-Serif" font-size="14.00">err_error3</text>
</g>
<!-- rotate&#45;&gt;err_error3 -->
<g id="edge9" class="edge">
<title>rotate&#45;&gt;err_error3</title>
<path fill="none" stroke="black" stroke-width="1.2" d="M277.58,-378.57C315.9,-392.6 375.99,-414.59 418.82,-430.27"/>
<polygon fill="black" stroke="black" stroke-width="1.2" points="278.78,-375.28 268.18,-375.13 276.37,-381.86 278.78,-375.28"/>
<polygon fill="black" stroke="black" stroke-width="1.2" points="417.63,-433.56 428.22,-433.71 420.03,-426.98 417.63,-433.56"/>
</g>
<!-- err_error4 -->
<g id="node8" class="node">
<title>err_error4</title>
<path fill="white" stroke="black" d="M1142,-246C1142,-246 1081,-246 1081,-246 1075,-246 1069,-240 1069,-234 1069,-234 1069,-222 1069,-222 1069,-216 1075,-210 1081,-210 1081,-210 1142,-210 1142,-210 1148,-210 1154,-216 1154,-222 1154,-222 1154,-234 1154,-234 1154,-240 1148,-246 1142,-246"/>
<text text-anchor="middle" x="1111.5" y="-224.3" font-family="Helvetica,sans-Serif" font-size="14.00">err_error4</text>
</g>
<!-- rotate&#45;&gt;err_error4 -->
<g id="edge10" class="edge">
<title>rotate&#45;&gt;err_error4</title>
<path fill="none" stroke="black" stroke-width="1.2" d="M265.84,-346.82C277.23,-339.02 291.01,-330.09 304,-323 458.75,-238.51 494.47,-199.34 667,-163 807.68,-133.37 976.28,-180.36 1059.24,-208.81"/>
<polygon fill="black" stroke="black" stroke-width="1.2" points="1058.33,-212.2 1068.92,-212.18 1060.63,-205.59 1058.33,-212.2"/>
</g>
<!-- rotate&#45;&gt;err_error5 -->
<g id="edge11" class="edge">
<title>rotate&#45;&gt;err_error5</title>
<path fill="none" stroke="black" stroke-width="1.2" d="M262.41,-383.21C274.59,-393.26 290.06,-405.92 304,-417 307.12,-419.48 310.38,-422.04 313.65,-424.59"/>
<polygon fill="black" stroke="black" stroke-width="1.2" points="311.66,-427.48 321.71,-430.84 315.95,-421.95 311.66,-427.48"/>
</g>
<!-- fail_comp1 -->
<g id="node14" class="node">
<title>fail_comp1</title>
<path fill="white" stroke="black" d="M505,-574C505,-574 437,-574 437,-574 431,-574 425,-568 425,-562 425,-562 425,-550 425,-550 425,-544 431,-538 437,-538 437,-538 505,-538 505,-538 511,-538 517,-544 517,-550 517,-550 517,-562 517,-562 517,-568 511,-574 505,-574"/>
<text text-anchor="middle" x="471" y="-552.3" font-family="Helvetica,sans-Serif" font-size="14.00">fail_comp1</text>
</g>
<!-- rotate&#45;&gt;fail_comp1 -->
<g id="edge13" class="edge">
<title>rotate&#45;&gt;fail_comp1</title>
<path fill="none" stroke="black" stroke-width="1.2" d="M247.01,-383.35C256.34,-407.37 275.58,-449.51 304,-476 335.66,-505.5 380.22,-526.17 415.2,-539.09"/>
<polygon fill="black" stroke="black" stroke-width="1.2" points="414.2,-542.45 424.79,-542.53 416.56,-535.86 414.2,-542.45"/>
</g>
<!-- fail_comp2 -->
<g id="node15" class="node">
<title>fail_comp2</title>
<path fill="white" stroke="black" d="M884,-422C884,-422 816,-422 816,-422 810,-422 804,-416 804,-410 804,-410 804,-398 804,-398 804,-392 810,-386 816,-386 816,-386 884,-386 884,-386 890,-386 896,-392 896,-398 896,-398 896,-410 896,-410 896,-416 890,-422 884,-422"/>
<text text-anchor="middle" x="850" y="-400.3" font-family="Helvetica,sans-Serif" font-size="14.00">fail_comp2</text>
</g>
<!-- rotate&#45;&gt;fail_comp2 -->
<g id="edge14" class="edge">
<title>rotate&#45;&gt;fail_comp2</title>
<path fill="none" stroke="black" stroke-width="1.2" d="M278,-352.57C349.97,-330.94 510.99,-293.46 631,-346 652.61,-355.46 645.91,-374.43 667,-385 706.2,-404.65 756.03,-408.64 793.64,-408.13"/>
<polygon fill="black" stroke="black" stroke-width="1.2" points="276.57,-349.35 268.04,-355.63 278.63,-356.04 276.57,-349.35"/>
<polygon fill="black" stroke="black" stroke-width="1.2" points="793.99,-411.63 803.91,-407.88 793.82,-404.63 793.99,-411.63"/>
</g>
<!-- pressure -->
<g id="node3" class="node">
<title>pressure</title>
<path fill="white" stroke="black" d="M1010.5,-322C1010.5,-322 957.5,-322 957.5,-322 951.5,-322 945.5,-316 945.5,-310 945.5,-310 945.5,-298 945.5,-298 945.5,-292 951.5,-286 957.5,-286 957.5,-286 1010.5,-286 1010.5,-286 1016.5,-286 1022.5,-292 1022.5,-298 1022.5,-298 1022.5,-310 1022.5,-310 1022.5,-316 1016.5,-322 1010.5,-322"/>
<text text-anchor="middle" x="984" y="-300.3" font-family="Helvetica,sans-Serif" font-size="14.00">pressure</text>
</g>
<!-- err_error2 -->
<g id="node6" class="node">
<title>err_error2</title>
<path fill="white" stroke="black" d="M1142,-544C1142,-544 1081,-544 1081,-544 1075,-544 1069,-538 1069,-532 1069,-532 1069,-520 1069,-520 1069,-514 1075,-508 1081,-508 1081,-508 1142,-508 1142,-508 1148,-508 1154,-514 1154,-520 1154,-520 1154,-532 1154,-532 1154,-538 1148,-544 1142,-544"/>
<text text-anchor="middle" x="1111.5" y="-522.3" font-family="Helvetica,sans-Serif" font-size="14.00">err_error2</text>
</g>
<!-- pressure&#45;&gt;err_error2 -->
<g id="edge15" class="edge">
<title>pressure&#45;&gt;err_error2</title>
<path fill="none" stroke="black" stroke-width="1.2" d="M1030.33,-328.17C1031.26,-329.08 1032.15,-330.03 1033,-331 1076.23,-380.45 1097.01,-456.98 1105.52,-497.91"/>
<polygon fill="black" stroke="black" stroke-width="1.2" points="1032.5,-325.42 1022.59,-321.67 1027.99,-330.78 1032.5,-325.42"/>
<polygon fill="black" stroke="black" stroke-width="1.2" points="1102.09,-498.62 1107.47,-507.75 1108.96,-497.26 1102.09,-498.62"/>
</g>
<!-- pressure&#45;&gt;err_error4 -->
<g id="edge16" class="edge">
<title>pressure&#45;&gt;err_error4</title>
<path fill="none" stroke="black" stroke-width="1.2" d="M1014.74,-285.99C1031.81,-275.65 1053.43,-262.56 1071.81,-251.43"/>
<polygon fill="black" stroke="black" stroke-width="1.2" points="1073.8,-254.32 1080.54,-246.15 1070.17,-248.33 1073.8,-254.32"/>
</g>
<!-- vibration -->
<g id="node4" class="node">
<title>vibration</title>
<path fill="white" stroke="black" d="M619,-391C619,-391 565,-391 565,-391 559,-391 553,-385 553,-379 553,-379 553,-367 553,-367 553,-361 559,-355 565,-355 565,-355 619,-355 619,-355 625,-355 631,-361 631,-367 631,-367 631,-379 631,-379 631,-385 625,-391 619,-391"/>
<text text-anchor="middle" x="592" y="-369.3" font-family="Helvetica,sans-Serif" font-size="14.00">vibration</text>
</g>
<!-- vibration&#45;&gt;rotate -->
<g id="edge7" class="edge">
<title>vibration&#45;&gt;rotate</title>
<path fill="none" stroke="black" stroke-width="1.2" d="M552.99,-372.13C485.46,-370.59 345.41,-367.39 278.15,-365.86"/>
<polygon fill="black" stroke="black" stroke-width="1.2" points="278.08,-362.36 268,-365.63 277.92,-369.36 278.08,-362.36"/>
</g>
<!-- vibration&#45;&gt;err_error4 -->
<g id="edge24" class="edge">
<title>vibration&#45;&gt;err_error4</title>
<path fill="none" stroke="black" stroke-width="1.2" d="M610.83,-346.43C624.31,-328.2 644.33,-304.74 667,-290 789.41,-210.4 970.92,-214.22 1058.92,-221.91"/>
<polygon fill="black" stroke="black" stroke-width="1.2" points="607.75,-344.72 604.76,-354.89 613.43,-348.81 607.75,-344.72"/>
<polygon fill="black" stroke="black" stroke-width="1.2" points="1058.65,-225.4 1068.93,-222.84 1059.29,-218.43 1058.65,-225.4"/>
</g>
<!-- vibration&#45;&gt;mnt_comp3 -->
<g id="edge27" class="edge">
<title>vibration&#45;&gt;mnt_comp3</title>
<path fill="none" stroke="black" stroke-width="1.2" d="M598.39,-354.96C608.13,-324.71 631.03,-263.07 667,-222 669.24,-219.44 671.74,-216.99 674.38,-214.68"/>
<polygon fill="black" stroke="black" stroke-width="1.2" points="676.96,-217.09 682.62,-208.14 672.61,-211.61 676.96,-217.09"/>
</g>
<!-- fail_comp4 -->
<g id="node16" class="node">
<title>fail_comp4</title>
<path fill="white" stroke="black" d="M750,-376C750,-376 682,-376 682,-376 676,-376 670,-370 670,-364 670,-364 670,-352 670,-352 670,-346 676,-340 682,-340 682,-340 750,-340 750,-340 756,-340 762,-346 762,-352 762,-352 762,-364 762,-364 762,-370 756,-376 750,-376"/>
<text text-anchor="middle" x="716" y="-354.3" font-family="Helvetica,sans-Serif" font-size="14.00">fail_comp4</text>
</g>
<!-- vibration&#45;&gt;fail_comp4 -->
<g id="edge28" class="edge">
<title>vibration&#45;&gt;fail_comp4</title>
<path fill="none" stroke="black" stroke-width="1.2" d="M631.27,-368.3C640.2,-367.2 649.88,-366.01 659.4,-364.84"/>
<polygon fill="black" stroke="black" stroke-width="1.2" points="660.1,-368.28 669.6,-363.58 659.25,-361.33 660.1,-368.28"/>
</g>
<!-- err_error1&#45;&gt;rotate -->
<g id="edge8" class="edge">
<title>err_error1&#45;&gt;rotate</title>
<path fill="none" stroke="black" stroke-width="1.2" d="M175.3,-365C183.66,-365 192.41,-365 200.63,-365"/>
<polygon fill="black" stroke="black" stroke-width="1.2" points="200.7,-368.5 210.7,-365 200.7,-361.5 200.7,-368.5"/>
</g>
<!-- err_error1&#45;&gt;err_error4 -->
<g id="edge29" class="edge">
<title>err_error1&#45;&gt;err_error4</title>
<path fill="none" stroke="black" stroke-width="1.2" d="M136.14,-346.95C147.3,-278.4 196.99,-38 345.5,-38 345.5,-38 345.5,-38 717,-38 867.29,-38 1020.62,-151.78 1082.29,-203.24"/>
<polygon fill="black" stroke="black" stroke-width="1.2" points="1080.13,-206 1090.03,-209.78 1084.65,-200.66 1080.13,-206"/>
</g>
<!-- err_error2&#45;&gt;volt -->
<g id="edge2" class="edge">
<title>err_error2&#45;&gt;volt</title>
<path fill="none" stroke="black" stroke-width="1.2" d="M1076.57,-544.19C1059.99,-552.85 1041.75,-561.97 1033,-565 955,-592.01 933.54,-602 851,-602 238.5,-602 238.5,-602 238.5,-602 135.05,-602 65.46,-473.32 39.43,-415.53"/>
<polygon fill="black" stroke="black" stroke-width="1.2" points="42.57,-413.99 35.35,-406.25 36.17,-416.81 42.57,-413.99"/>
</g>
<!-- err_error2&#45;&gt;vibration -->
<g id="edge22" class="edge">
<title>err_error2&#45;&gt;vibration</title>
<path fill="none" stroke="black" stroke-width="1.2" d="M1068.73,-518.07C1057.18,-515.98 1044.62,-513.81 1033,-512 870.9,-486.74 810.24,-543.98 667,-464 640.67,-449.3 620.04,-421.16 607.33,-400.04"/>
<polygon fill="black" stroke="black" stroke-width="1.2" points="610.25,-398.1 602.21,-391.2 604.19,-401.6 610.25,-398.1"/>
</g>
<!-- err_error3&#45;&gt;vibration -->
<g id="edge23" class="edge">
<title>err_error3&#45;&gt;vibration</title>
<path fill="none" stroke="black" stroke-width="1.2" d="M500.2,-430.99C516.24,-420.75 536.52,-407.8 553.84,-396.73"/>
<polygon fill="black" stroke="black" stroke-width="1.2" points="556.04,-399.48 562.59,-391.15 552.28,-393.58 556.04,-399.48"/>
</g>
<!-- err_error3&#45;&gt;err_error2 -->
<g id="edge30" class="edge">
<title>err_error3&#45;&gt;err_error2</title>
<path fill="none" stroke="black" stroke-width="1.2" d="M505.93,-467.05C551.95,-489.81 637.33,-526 715,-526 715,-526 715,-526 851,-526 923.01,-526 1006.27,-526 1058.65,-526"/>
<polygon fill="black" stroke="black" stroke-width="1.2" points="1058.7,-529.5 1068.7,-526 1058.7,-522.5 1058.7,-529.5"/>
</g>
<!-- mnt_comp2 -->
<g id="node11" class="node">
<title>mnt_comp2</title>
<path fill="white" stroke="black" d="M1276,-357C1276,-357 1202,-357 1202,-357 1196,-357 1190,-351 1190,-345 1190,-345 1190,-333 1190,-333 1190,-327 1196,-321 1202,-321 1202,-321 1276,-321 1276,-321 1282,-321 1288,-327 1288,-333 1288,-333 1288,-345 1288,-345 1288,-351 1282,-357 1276,-357"/>
<text text-anchor="middle" x="1239" y="-335.3" font-family="Helvetica,sans-Serif" font-size="14.00">mnt_comp2</text>
</g>
<!-- err_error4&#45;&gt;mnt_comp2 -->
<g id="edge33" class="edge">
<title>err_error4&#45;&gt;mnt_comp2</title>
<path fill="none" stroke="black" stroke-width="1.2" d="M1132.94,-246.08C1153.91,-264.63 1186.67,-293.6 1210.03,-314.27"/>
<polygon fill="black" stroke="black" stroke-width="1.2" points="1207.76,-316.92 1217.57,-320.93 1212.39,-311.68 1207.76,-316.92"/>
</g>
<!-- err_error5&#45;&gt;vibration -->
<g id="edge25" class="edge">
<title>err_error5&#45;&gt;vibration</title>
<path fill="none" stroke="black" stroke-width="1.2" d="M389.21,-434.06C400.76,-430.03 413.34,-425.75 425,-422 464.53,-409.29 509.76,-396.02 543.02,-386.5"/>
<polygon fill="black" stroke="black" stroke-width="1.2" points="544.27,-389.78 552.93,-383.67 542.35,-383.05 544.27,-389.78"/>
</g>
<!-- err_error5&#45;&gt;err_error2 -->
<g id="edge31" class="edge">
<title>err_error5&#45;&gt;err_error2</title>
<path fill="none" stroke="black" stroke-width="1.2" d="M381.35,-467.22C444.84,-499.65 586.98,-564 715,-564 715,-564 715,-564 851,-564 923.78,-564 1006.84,-549.19 1058.97,-538.06"/>
<polygon fill="black" stroke="black" stroke-width="1.2" points="1059.95,-541.43 1068.98,-535.88 1058.46,-534.59 1059.95,-541.43"/>
</g>
<!-- err_error5&#45;&gt;err_error3 -->
<g id="edge32" class="edge">
<title>err_error5&#45;&gt;err_error3</title>
<path fill="none" stroke="black" stroke-width="1.2" d="M389.31,-449C398.58,-449 408.5,-449 418.11,-449"/>
<polygon fill="black" stroke="black" stroke-width="1.2" points="418.37,-452.5 428.37,-449 418.37,-445.5 418.37,-452.5"/>
</g>
<!-- mnt_comp1 -->
<g id="node10" class="node">
<title>mnt_comp1</title>
<path fill="white" stroke="black" d="M887,-292C887,-292 813,-292 813,-292 807,-292 801,-286 801,-280 801,-280 801,-268 801,-268 801,-262 807,-256 813,-256 813,-256 887,-256 887,-256 893,-256 899,-262 899,-268 899,-268 899,-280 899,-280 899,-286 893,-292 887,-292"/>
<text text-anchor="middle" x="850" y="-270.3" font-family="Helvetica,sans-Serif" font-size="14.00">mnt_comp1</text>
</g>
<!-- mnt_comp1&#45;&gt;volt -->
<g id="edge4" class="edge">
<title>mnt_comp1&#45;&gt;volt</title>
<path fill="none" stroke="black" stroke-width="1.2" d="M800.99,-260.56C764,-249.83 711.79,-233.83 667,-217 521.71,-162.39 502.71,-76 347.5,-76 238.5,-76 238.5,-76 238.5,-76 102.14,-76 48.22,-283.33 32.94,-359.97"/>
<polygon fill="black" stroke="black" stroke-width="1.2" points="29.49,-359.4 31.04,-369.88 36.36,-360.72 29.49,-359.4"/>
</g>
<!-- mnt_comp1&#45;&gt;pressure -->
<g id="edge17" class="edge">
<title>mnt_comp1&#45;&gt;pressure</title>
<path fill="none" stroke="black" stroke-width="1.2" d="M899.03,-284.92C910.77,-287.58 923.34,-290.44 935.08,-293.11"/>
<polygon fill="black" stroke="black" stroke-width="1.2" points="934.62,-296.59 945.14,-295.4 936.17,-289.77 934.62,-296.59"/>
</g>
<!-- mnt_comp2&#45;&gt;rotate -->
<g id="edge12" class="edge">
<title>mnt_comp2&#45;&gt;rotate</title>
<path fill="none" stroke="black" stroke-width="1.2" d="M1235.21,-320.95C1228.53,-284.45 1207.94,-202.12 1154,-164 977.16,-39.04 882.87,-133.06 667,-150 497.32,-163.31 429.11,-156.61 304,-272 283.4,-290.99 265.97,-317.87 254.61,-337.84"/>
<polygon fill="black" stroke="black" stroke-width="1.2" points="251.46,-336.31 249.68,-346.76 257.58,-339.7 251.46,-336.31"/>
</g>
<!-- mnt_comp2&#45;&gt;pressure -->
<g id="edge18" class="edge">
<title>mnt_comp2&#45;&gt;pressure</title>
<path fill="none" stroke="black" stroke-width="1.2" d="M1189.79,-332.33C1144.67,-326.09 1077.64,-316.82 1032.69,-310.6"/>
<polygon fill="black" stroke="black" stroke-width="1.2" points="1032.99,-307.11 1022.6,-309.2 1032.03,-314.04 1032.99,-307.11"/>
</g>
<!-- mnt_comp2&#45;&gt;vibration -->
<g id="edge26" class="edge">
<title>mnt_comp2&#45;&gt;vibration</title>
<path fill="none" stroke="black" stroke-width="1.2" d="M1214.73,-357.08C1171.86,-388.53 1076.37,-450 985,-450 849,-450 849,-450 849,-450 766.87,-450 743.86,-446.95 667,-418 652.85,-412.67 638.39,-404.58 626.06,-396.72"/>
<polygon fill="black" stroke="black" stroke-width="1.2" points="627.76,-393.66 617.48,-391.09 623.92,-399.51 627.76,-393.66"/>
</g>
<!-- mnt_comp3&#45;&gt;pressure -->
<g id="edge19" class="edge">
<title>mnt_comp3&#45;&gt;pressure</title>
<path fill="none" stroke="black" stroke-width="1.2" d="M765.21,-200.98C802.76,-210.5 855.62,-226.05 899,-247 917.61,-255.99 936.8,-268.7 952.13,-279.85"/>
<polygon fill="black" stroke="black" stroke-width="1.2" points="950.11,-282.7 960.22,-285.84 954.27,-277.07 950.11,-282.7"/>
</g>
<!-- mnt_comp3&#45;&gt;mnt_comp2 -->
<g id="edge36" class="edge">
<title>mnt_comp3&#45;&gt;mnt_comp2</title>
<path fill="none" stroke="black" stroke-width="1.2" d="M765.28,-177.18C850.35,-157.48 1029.69,-129.06 1154,-201 1195.18,-224.83 1218.67,-277.68 1229.83,-310.62"/>
<polygon fill="black" stroke="black" stroke-width="1.2" points="1226.63,-312.11 1233.03,-320.55 1233.3,-309.96 1226.63,-312.11"/>
</g>
<!-- mnt_comp4 -->
<g id="node13" class="node">
<title>mnt_comp4</title>
<path fill="white" stroke="black" d="M1021,-376C1021,-376 947,-376 947,-376 941,-376 935,-370 935,-364 935,-364 935,-352 935,-352 935,-346 941,-340 947,-340 947,-340 1021,-340 1021,-340 1027,-340 1033,-346 1033,-352 1033,-352 1033,-364 1033,-364 1033,-370 1027,-376 1021,-376"/>
<text text-anchor="middle" x="984" y="-354.3" font-family="Helvetica,sans-Serif" font-size="14.00">mnt_comp4</text>
</g>
<!-- mnt_comp4&#45;&gt;mnt_comp2 -->
<g id="edge37" class="edge">
<title>mnt_comp4&#45;&gt;mnt_comp2</title>
<path fill="none" stroke="black" stroke-width="1.2" d="M1033.18,-354.38C1074.95,-351.25 1135.49,-346.7 1179.92,-343.36"/>
<polygon fill="black" stroke="black" stroke-width="1.2" points="1180.29,-346.84 1190,-342.61 1179.76,-339.86 1180.29,-346.84"/>
</g>
<!-- fail_comp1&#45;&gt;volt -->
<g id="edge6" class="edge">
<title>fail_comp1&#45;&gt;volt</title>
<path fill="none" stroke="black" stroke-width="1.2" d="M424.99,-547.46C391.24,-540.51 344.14,-529.62 304,-516 205.46,-482.56 183.55,-466.59 90,-421 81.13,-416.68 71.68,-411.79 62.89,-407.13"/>
<polygon fill="black" stroke="black" stroke-width="1.2" points="64.5,-404.02 54.03,-402.39 61.2,-410.19 64.5,-404.02"/>
</g>
<!-- fail_comp1&#45;&gt;mnt_comp1 -->
<g id="edge34" class="edge">
<title>fail_comp1&#45;&gt;mnt_comp1</title>
<path fill="none" stroke="black" stroke-width="1.2" d="M494.48,-537.93C527.44,-510.63 589.43,-456.08 631,-400 651.6,-372.21 640.47,-353.2 667,-331 686.05,-315.07 745.25,-298.24 791.02,-287.03"/>
<polygon fill="black" stroke="black" stroke-width="1.2" points="791.96,-290.4 800.86,-284.66 790.32,-283.6 791.96,-290.4"/>
</g>
<!-- fail_comp1&#45;&gt;mnt_comp2 -->
<g id="edge38" class="edge">
<title>fail_comp1&#45;&gt;mnt_comp2</title>
<path fill="none" stroke="black" stroke-width="1.2" d="M502.66,-574.02C547.64,-598.7 634.88,-640 715,-640 715,-640 715,-640 985,-640 1011.89,-640 1104.31,-608.26 1154,-553 1203.19,-498.3 1225.09,-411.44 1233.5,-367.08"/>
<polygon fill="black" stroke="black" stroke-width="1.2" points="1236.98,-367.48 1235.31,-357.02 1230.09,-366.24 1236.98,-367.48"/>
</g>
<!-- fail_comp2&#45;&gt;pressure -->
<g id="edge20" class="edge">
<title>fail_comp2&#45;&gt;pressure</title>
<path fill="none" stroke="black" stroke-width="1.2" d="M869.77,-385.71C886.21,-370.18 911.15,-347.81 935,-331 936.64,-329.84 938.34,-328.69 940.06,-327.56"/>
<polygon fill="black" stroke="black" stroke-width="1.2" points="942.27,-330.31 948.9,-322.04 938.56,-324.37 942.27,-330.31"/>
</g>
<!-- fail_comp2&#45;&gt;mnt_comp2 -->
<g id="edge39" class="edge">
<title>fail_comp2&#45;&gt;mnt_comp2</title>
<path fill="none" stroke="black" stroke-width="1.2" d="M896.01,-400.36C932.92,-397.12 986.48,-391.84 1033,-385 1087.16,-377.04 1100.67,-374.35 1154,-362 1162.45,-360.04 1171.34,-357.81 1180.04,-355.51"/>
<polygon fill="black" stroke="black" stroke-width="1.2" points="1180.99,-358.88 1189.75,-352.92 1179.18,-352.12 1180.99,-358.88"/>
</g>
<!-- fail_comp2&#45;&gt;mnt_comp4 -->
<g id="edge40" class="edge">
<title>fail_comp2&#45;&gt;mnt_comp4</title>
<path fill="none" stroke="black" stroke-width="1.2" d="M896.06,-388.3C905.47,-385.02 915.51,-381.52 925.31,-378.1"/>
<polygon fill="black" stroke="black" stroke-width="1.2" points="926.7,-381.33 934.99,-374.73 924.39,-374.72 926.7,-381.33"/>
</g>
<!-- fail_comp4&#45;&gt;pressure -->
<g id="edge21" class="edge">
<title>fail_comp4&#45;&gt;pressure</title>
<path fill="none" stroke="black" stroke-width="1.2" d="M762.12,-348.84C810.28,-339.06 886.26,-323.64 935.36,-313.67"/>
<polygon fill="black" stroke="black" stroke-width="1.2" points="936.31,-317.05 945.41,-311.63 934.91,-310.19 936.31,-317.05"/>
</g>
<!-- fail_comp4&#45;&gt;mnt_comp1 -->
<g id="edge35" class="edge">
<title>fail_comp4&#45;&gt;mnt_comp1</title>
<path fill="none" stroke="black" stroke-width="1.2" d="M745.32,-339.98C764.67,-327.66 790.53,-311.21 811.58,-297.81"/>
<polygon fill="black" stroke="black" stroke-width="1.2" points="813.72,-300.6 820.27,-292.28 809.96,-294.7 813.72,-300.6"/>
</g>
<!-- fail_comp4&#45;&gt;mnt_comp4 -->
<g id="edge41" class="edge">
<title>fail_comp4&#45;&gt;mnt_comp4</title>
<path fill="none" stroke="black" stroke-width="1.2" d="M762.12,-358C806.96,-358 875.91,-358 924.83,-358"/>
<polygon fill="black" stroke="black" stroke-width="1.2" points="924.95,-361.5 934.95,-358 924.95,-354.5 924.95,-361.5"/>
</g>
</g>
</svg>
