<?xml version="1.0" encoding="UTF-8" standalone="no"?>
<!DOCTYPE svg PUBLIC "-//W3C//DTD SVG 1.1//EN"
 "http://www.w3.org/Graphics/SVG/1.1/DTD/svg11.dtd">
<!-- Generated by graphviz version 2.50.0 (0)
 -->
<!-- Title: G Pages: 1 -->
<svg width="454pt" height="124pt"
 viewBox="0.00 0.00 454.00 124.00" xmlns="http://www.w3.org/2000/svg" xmlns:xlink="http://www.w3.org/1999/xlink">
<g id="graph0" class="graph" transform="scale(1 1) rotate(0) translate(4 120)">
<title>G</title>
<polygon fill="white" stroke="transparent" points="-4,4 -4,-120 450,-120 450,4 -4,4"/>
<text text-anchor="middle" x="223" y="-99.2" font-family="Times,serif" font-size="16.00">model=model3/cbnb_w_telemetry.json [machine 27]</text>
<!-- volt -->
<g id="node1" class="node">
<title>volt</title>
<path fill="white" stroke="black" d="M124.5,-36C124.5,-36 94.5,-36 94.5,-36 88.5,-36 82.5,-30 82.5,-24 82.5,-24 82.5,-12 82.5,-12 82.5,-6 88.5,0 94.5,0 94.5,0 124.5,0 124.5,0 130.5,0 136.5,-6 136.5,-12 136.5,-12 136.5,-24 136.5,-24 136.5,-30 130.5,-36 124.5,-36"/>
<text text-anchor="middle" x="109.5" y="-14.3" font-family="Helvetica,sans-Serif" font-size="14.00">volt</text>
</g>
<!-- rotate -->
<g id="node2" class="node">
<title>rotate</title>
<path fill="white" stroke="black" d="M126,-90C126,-90 93,-90 93,-90 87,-90 81,-84 81,-78 81,-78 81,-66 81,-66 81,-60 87,-54 93,-54 93,-54 126,-54 126,-54 132,-54 138,-60 138,-66 138,-66 138,-78 138,-78 138,-84 132,-90 126,-90"/>
<text text-anchor="middle" x="109.5" y="-68.3" font-family="Helvetica,sans-Serif" font-size="14.00">rotate</text>
</g>
<!-- pressure -->
<g id="node3" class="node">
<title>pressure</title>
<path fill="white" stroke="black" d="M239,-90C239,-90 186,-90 186,-90 180,-90 174,-84 174,-78 174,-78 174,-66 174,-66 174,-60 180,-54 186,-54 186,-54 239,-54 239,-54 245,-54 251,-60 251,-66 251,-66 251,-78 251,-78 251,-84 245,-90 239,-90"/>
<text text-anchor="middle" x="212.5" y="-68.3" font-family="Helvetica,sans-Serif" font-size="14.00">pressure</text>
</g>
<!-- rotate&#45;&gt;pressure -->
<g id="edge1" class="edge">
<title>rotate&#45;&gt;pressure</title>
<path fill="none" stroke="black" stroke-width="1.2" d="M148.29,-72C153.22,-72 158.33,-72 163.41,-72"/>
<polygon fill="black" stroke="black" stroke-width="1.2" points="148.1,-68.5 138.1,-72 148.1,-75.5 148.1,-68.5"/>
<polygon fill="black" stroke="black" stroke-width="1.2" points="163.71,-75.5 173.71,-72 163.71,-68.5 163.71,-75.5"/>
</g>
<!-- vibration -->
<g id="node4" class="node">
<title>vibration</title>
<path fill="white" stroke="black" d="M353,-90C353,-90 299,-90 299,-90 293,-90 287,-84 287,-78 287,-78 287,-66 287,-66 287,-60 293,-54 299,-54 299,-54 353,-54 353,-54 359,-54 365,-60 365,-66 365,-66 365,-78 365,-78 365,-84 359,-90 353,-90"/>
<text text-anchor="middle" x="326" y="-68.3" font-family="Helvetica,sans-Serif" font-size="14.00">vibration</text>
</g>
<!-- pressure&#45;&gt;vibration -->
<g id="edge2" class="edge">
<title>pressure&#45;&gt;vibration</title>
<path fill="none" stroke="black" stroke-width="1.2" d="M251.25,-72C259.42,-72 268.18,-72 276.69,-72"/>
<polygon fill="black" stroke="black" stroke-width="1.2" points="276.91,-75.5 286.91,-72 276.91,-68.5 276.91,-75.5"/>
</g>
</g>
</svg>
