<?xml version="1.0" encoding="UTF-8" standalone="no"?>
<!DOCTYPE svg PUBLIC "-//W3C//DTD SVG 1.1//EN"
 "http://www.w3.org/Graphics/SVG/1.1/DTD/svg11.dtd">
<!-- Generated by graphviz version 2.50.0 (0)
 -->
<!-- Title: G Pages: 1 -->
<svg width="1174pt" height="636pt"
 viewBox="0.00 0.00 1174.00 636.00" xmlns="http://www.w3.org/2000/svg" xmlns:xlink="http://www.w3.org/1999/xlink">
<g id="graph0" class="graph" transform="scale(1 1) rotate(0) translate(4 632)">
<title>G</title>
<polygon fill="white" stroke="transparent" points="-4,4 -4,-632 1170,-632 1170,4 -4,4"/>
<text text-anchor="middle" x="583" y="-611.2" font-family="Times,serif" font-size="16.00">model=model3/cbnb_w_mixed.json [machine 65]</text>
<!-- volt -->
<g id="node1" class="node">
<title>volt</title>
<path fill="white" stroke="black" d="M42,-310C42,-310 12,-310 12,-310 6,-310 0,-304 0,-298 0,-298 0,-286 0,-286 0,-280 6,-274 12,-274 12,-274 42,-274 42,-274 48,-274 54,-280 54,-286 54,-286 54,-298 54,-298 54,-304 48,-310 42,-310"/>
<text text-anchor="middle" x="27" y="-288.3" font-family="Helvetica,sans-Serif" font-size="14.00">volt</text>
</g>
<!-- rotate -->
<g id="node2" class="node">
<title>rotate</title>
<path fill="white" stroke="black" d="M135,-445C135,-445 102,-445 102,-445 96,-445 90,-439 90,-433 90,-433 90,-421 90,-421 90,-415 96,-409 102,-409 102,-409 135,-409 135,-409 141,-409 147,-415 147,-421 147,-421 147,-433 147,-433 147,-439 141,-445 135,-445"/>
<text text-anchor="middle" x="118.5" y="-423.3" font-family="Helvetica,sans-Serif" font-size="14.00">rotate</text>
</g>
<!-- volt&#45;&gt;rotate -->
<g id="edge1" class="edge">
<title>volt&#45;&gt;rotate</title>
<path fill="none" stroke="black" stroke-width="1.2" d="M45.68,-318.67C61.32,-342.26 84.02,-376.51 99.7,-400.15"/>
<polygon fill="black" stroke="black" stroke-width="1.2" points="48.51,-316.61 40.07,-310.21 42.68,-320.48 48.51,-316.61"/>
<polygon fill="black" stroke="black" stroke-width="1.2" points="96.89,-402.25 105.34,-408.65 102.73,-398.38 96.89,-402.25"/>
</g>
<!-- fail_comp1 -->
<g id="node14" class="node">
<title>fail_comp1</title>
<path fill="white" stroke="black" d="M883,-536C883,-536 815,-536 815,-536 809,-536 803,-530 803,-524 803,-524 803,-512 803,-512 803,-506 809,-500 815,-500 815,-500 883,-500 883,-500 889,-500 895,-506 895,-512 895,-512 895,-524 895,-524 895,-530 889,-536 883,-536"/>
<text text-anchor="middle" x="849" y="-514.3" font-family="Helvetica,sans-Serif" font-size="14.00">fail_comp1</text>
</g>
<!-- volt&#45;&gt;fail_comp1 -->
<g id="edge7" class="edge">
<title>volt&#45;&gt;fail_comp1</title>
<path fill="none" stroke="black" stroke-width="1.2" d="M28.62,-310.09C30.89,-351.17 41.38,-453.08 90,-519 130.8,-574.32 151.76,-602 220.5,-602 220.5,-602 220.5,-602 585,-602 665.74,-602 688.64,-599.98 764,-571 782.43,-563.91 801.18,-552.56 816.28,-542.17"/>
<polygon fill="black" stroke="black" stroke-width="1.2" points="818.57,-544.84 824.72,-536.21 814.53,-539.13 818.57,-544.84"/>
</g>
<!-- pressure -->
<g id="node3" class="node">
<title>pressure</title>
<path fill="white" stroke="black" d="M248,-356C248,-356 195,-356 195,-356 189,-356 183,-350 183,-344 183,-344 183,-332 183,-332 183,-326 189,-320 195,-320 195,-320 248,-320 248,-320 254,-320 260,-326 260,-332 260,-332 260,-344 260,-344 260,-350 254,-356 248,-356"/>
<text text-anchor="middle" x="221.5" y="-334.3" font-family="Helvetica,sans-Serif" font-size="14.00">pressure</text>
</g>
<!-- rotate&#45;&gt;pressure -->
<g id="edge8" class="edge">
<title>rotate&#45;&gt;pressure</title>
<path fill="none" stroke="black" stroke-width="1.2" d="M139.94,-408.99C154.9,-395.81 175.39,-377.75 191.97,-363.14"/>
<polygon fill="black" stroke="black" stroke-width="1.2" points="194.56,-365.53 199.74,-356.29 189.93,-360.27 194.56,-365.53"/>
</g>
<!-- vibration -->
<g id="node4" class="node">
<title>vibration</title>
<path fill="white" stroke="black" d="M742,-392C742,-392 688,-392 688,-392 682,-392 676,-386 676,-380 676,-380 676,-368 676,-368 676,-362 682,-356 688,-356 688,-356 742,-356 742,-356 748,-356 754,-362 754,-368 754,-368 754,-380 754,-380 754,-386 748,-392 742,-392"/>
<text text-anchor="middle" x="715" y="-370.3" font-family="Helvetica,sans-Serif" font-size="14.00">vibration</text>
</g>
<!-- rotate&#45;&gt;vibration -->
<g id="edge9" class="edge">
<title>rotate&#45;&gt;vibration</title>
<path fill="none" stroke="black" stroke-width="1.2" d="M157.37,-433.44C200.76,-440.24 274.04,-450 337.5,-450 337.5,-450 337.5,-450 460.5,-450 536.04,-450 619.1,-418.66 668.88,-396.23"/>
<polygon fill="black" stroke="black" stroke-width="1.2" points="157.7,-429.95 147.28,-431.82 156.6,-436.86 157.7,-429.95"/>
<polygon fill="black" stroke="black" stroke-width="1.2" points="670.44,-399.36 678.07,-392.01 667.52,-393 670.44,-399.36"/>
</g>
<!-- err_error3 -->
<g id="node7" class="node">
<title>err_error3</title>
<path fill="white" stroke="black" d="M369,-356C369,-356 308,-356 308,-356 302,-356 296,-350 296,-344 296,-344 296,-332 296,-332 296,-326 302,-320 308,-320 308,-320 369,-320 369,-320 375,-320 381,-326 381,-332 381,-332 381,-344 381,-344 381,-350 375,-356 369,-356"/>
<text text-anchor="middle" x="338.5" y="-334.3" font-family="Helvetica,sans-Serif" font-size="14.00">err_error3</text>
</g>
<!-- rotate&#45;&gt;err_error3 -->
<g id="edge10" class="edge">
<title>rotate&#45;&gt;err_error3</title>
<path fill="none" stroke="black" stroke-width="1.2" d="M147.11,-415.73C182.12,-401.43 243.16,-376.52 286.69,-358.75"/>
<polygon fill="black" stroke="black" stroke-width="1.2" points="288.03,-361.98 295.97,-354.96 285.39,-355.5 288.03,-361.98"/>
</g>
<!-- fail_comp2 -->
<g id="node15" class="node">
<title>fail_comp2</title>
<path fill="white" stroke="black" d="M749,-536C749,-536 681,-536 681,-536 675,-536 669,-530 669,-524 669,-524 669,-512 669,-512 669,-506 675,-500 681,-500 681,-500 749,-500 749,-500 755,-500 761,-506 761,-512 761,-512 761,-524 761,-524 761,-530 755,-536 749,-536"/>
<text text-anchor="middle" x="715" y="-514.3" font-family="Helvetica,sans-Serif" font-size="14.00">fail_comp2</text>
</g>
<!-- rotate&#45;&gt;fail_comp2 -->
<g id="edge12" class="edge">
<title>rotate&#45;&gt;fail_comp2</title>
<path fill="none" stroke="black" stroke-width="1.2" d="M129.55,-445.1C140.34,-462.69 159.19,-488.65 183,-502 243.61,-535.99 268.01,-526 337.5,-526 337.5,-526 337.5,-526 460.5,-526 528.68,-526 607.12,-523.07 658.46,-520.76"/>
<polygon fill="black" stroke="black" stroke-width="1.2" points="658.85,-524.25 668.68,-520.29 658.53,-517.25 658.85,-524.25"/>
</g>
<!-- err_error2 -->
<g id="node6" class="node">
<title>err_error2</title>
<path fill="white" stroke="black" d="M879.5,-170C879.5,-170 818.5,-170 818.5,-170 812.5,-170 806.5,-164 806.5,-158 806.5,-158 806.5,-146 806.5,-146 806.5,-140 812.5,-134 818.5,-134 818.5,-134 879.5,-134 879.5,-134 885.5,-134 891.5,-140 891.5,-146 891.5,-146 891.5,-158 891.5,-158 891.5,-164 885.5,-170 879.5,-170"/>
<text text-anchor="middle" x="849" y="-148.3" font-family="Helvetica,sans-Serif" font-size="14.00">err_error2</text>
</g>
<!-- pressure&#45;&gt;err_error2 -->
<g id="edge13" class="edge">
<title>pressure&#45;&gt;err_error2</title>
<path fill="none" stroke="black" stroke-width="1.2" d="M235.28,-310.42C265.13,-250.55 345.59,-114 458.5,-114 458.5,-114 458.5,-114 585,-114 659.11,-114 743.78,-128.96 796.56,-140.11"/>
<polygon fill="black" stroke="black" stroke-width="1.2" points="232,-309.15 230.76,-319.67 238.29,-312.22 232,-309.15"/>
<polygon fill="black" stroke="black" stroke-width="1.2" points="795.85,-143.54 806.36,-142.21 797.32,-136.69 795.85,-143.54"/>
</g>
<!-- pressure&#45;&gt;err_error3 -->
<g id="edge14" class="edge">
<title>pressure&#45;&gt;err_error3</title>
<path fill="none" stroke="black" stroke-width="1.2" d="M260.16,-338C268.35,-338 277.15,-338 285.78,-338"/>
<polygon fill="black" stroke="black" stroke-width="1.2" points="285.78,-341.5 295.78,-338 285.78,-334.5 285.78,-341.5"/>
</g>
<!-- mnt_comp2 -->
<g id="node11" class="node">
<title>mnt_comp2</title>
<path fill="white" stroke="black" d="M886,-392C886,-392 812,-392 812,-392 806,-392 800,-386 800,-380 800,-380 800,-368 800,-368 800,-362 806,-356 812,-356 812,-356 886,-356 886,-356 892,-356 898,-362 898,-368 898,-368 898,-380 898,-380 898,-386 892,-392 886,-392"/>
<text text-anchor="middle" x="849" y="-370.3" font-family="Helvetica,sans-Serif" font-size="14.00">mnt_comp2</text>
</g>
<!-- pressure&#45;&gt;mnt_comp2 -->
<g id="edge15" class="edge">
<title>pressure&#45;&gt;mnt_comp2</title>
<path fill="none" stroke="black" stroke-width="1.2" d="M253.74,-319.87C340.43,-272.15 589.14,-153.01 764,-247 802.91,-267.92 826.81,-315.64 838.72,-346.26"/>
<polygon fill="black" stroke="black" stroke-width="1.2" points="835.55,-347.77 842.31,-355.93 842.11,-345.33 835.55,-347.77"/>
</g>
<!-- err_error1 -->
<g id="node5" class="node">
<title>err_error1</title>
<path fill="white" stroke="black" d="M490,-346C490,-346 429,-346 429,-346 423,-346 417,-340 417,-334 417,-334 417,-322 417,-322 417,-316 423,-310 429,-310 429,-310 490,-310 490,-310 496,-310 502,-316 502,-322 502,-322 502,-334 502,-334 502,-340 496,-346 490,-346"/>
<text text-anchor="middle" x="459.5" y="-324.3" font-family="Helvetica,sans-Serif" font-size="14.00">err_error1</text>
</g>
<!-- vibration&#45;&gt;err_error1 -->
<g id="edge16" class="edge">
<title>vibration&#45;&gt;err_error1</title>
<path fill="none" stroke="black" stroke-width="1.2" d="M675.83,-372.39C639.9,-370.28 584.77,-365.53 538,-355 529.42,-353.07 520.46,-350.5 511.82,-347.71"/>
<polygon fill="black" stroke="black" stroke-width="1.2" points="512.82,-344.35 502.23,-344.49 510.59,-350.99 512.82,-344.35"/>
</g>
<!-- vibration&#45;&gt;err_error2 -->
<g id="edge17" class="edge">
<title>vibration&#45;&gt;err_error2</title>
<path fill="none" stroke="black" stroke-width="1.2" d="M728.38,-355.92C738.29,-341.28 752.39,-320.04 764,-301 789.53,-259.13 817.07,-209.28 833.41,-179.17"/>
<polygon fill="black" stroke="black" stroke-width="1.2" points="836.63,-180.58 838.31,-170.12 830.47,-177.25 836.63,-180.58"/>
</g>
<!-- vibration&#45;&gt;err_error3 -->
<g id="edge18" class="edge">
<title>vibration&#45;&gt;err_error3</title>
<path fill="none" stroke="black" stroke-width="1.2" d="M665.88,-374.67C654.14,-374.81 641.62,-374.93 630,-375 589.11,-375.24 578.75,-378.35 538,-375 483.68,-370.54 470.53,-365.29 417,-355 408.64,-353.39 399.8,-351.57 391.19,-349.73"/>
<polygon fill="black" stroke="black" stroke-width="1.2" points="665.99,-378.17 675.95,-374.55 665.91,-371.17 665.99,-378.17"/>
<polygon fill="black" stroke="black" stroke-width="1.2" points="391.76,-346.27 381.25,-347.58 390.28,-353.11 391.76,-346.27"/>
</g>
<!-- err_error5 -->
<g id="node9" class="node">
<title>err_error5</title>
<path fill="white" stroke="black" d="M879.5,-482C879.5,-482 818.5,-482 818.5,-482 812.5,-482 806.5,-476 806.5,-470 806.5,-470 806.5,-458 806.5,-458 806.5,-452 812.5,-446 818.5,-446 818.5,-446 879.5,-446 879.5,-446 885.5,-446 891.5,-452 891.5,-458 891.5,-458 891.5,-470 891.5,-470 891.5,-476 885.5,-482 879.5,-482"/>
<text text-anchor="middle" x="849" y="-460.3" font-family="Helvetica,sans-Serif" font-size="14.00">err_error5</text>
</g>
<!-- vibration&#45;&gt;err_error5 -->
<g id="edge20" class="edge">
<title>vibration&#45;&gt;err_error5</title>
<path fill="none" stroke="black" stroke-width="1.2" d="M751.14,-397.96C770.24,-410.98 793.8,-427.05 812.9,-440.07"/>
<polygon fill="black" stroke="black" stroke-width="1.2" points="752.95,-394.95 742.71,-392.21 749,-400.74 752.95,-394.95"/>
<polygon fill="black" stroke="black" stroke-width="1.2" points="811.09,-443.07 821.33,-445.81 815.04,-437.29 811.09,-443.07"/>
</g>
<!-- vibration&#45;&gt;mnt_comp2 -->
<g id="edge21" class="edge">
<title>vibration&#45;&gt;mnt_comp2</title>
<path fill="none" stroke="black" stroke-width="1.2" d="M754.18,-374C765.13,-374 777.34,-374 789.23,-374"/>
<polygon fill="black" stroke="black" stroke-width="1.2" points="789.55,-377.5 799.55,-374 789.55,-370.5 789.55,-377.5"/>
</g>
<!-- err_error1&#45;&gt;volt -->
<g id="edge2" class="edge">
<title>err_error1&#45;&gt;volt</title>
<path fill="none" stroke="black" stroke-width="1.2" d="M416.89,-317.57C405.34,-315.03 392.74,-312.59 381,-311 266.07,-295.41 128.46,-292.48 64.28,-292.02"/>
<polygon fill="black" stroke="black" stroke-width="1.2" points="64.28,-288.52 54.26,-291.96 64.24,-295.52 64.28,-288.52"/>
</g>
<!-- err_error1&#45;&gt;err_error2 -->
<g id="edge23" class="edge">
<title>err_error1&#45;&gt;err_error2</title>
<path fill="none" stroke="black" stroke-width="1.2" d="M473.32,-309.95C487.25,-291.59 511.16,-263.54 538,-247 581.68,-220.07 720.37,-183.32 796.59,-164.39"/>
<polygon fill="black" stroke="black" stroke-width="1.2" points="797.6,-167.75 806.47,-161.95 795.92,-160.95 797.6,-167.75"/>
</g>
<!-- err_error4 -->
<g id="node8" class="node">
<title>err_error4</title>
<path fill="white" stroke="black" d="M614.5,-346C614.5,-346 553.5,-346 553.5,-346 547.5,-346 541.5,-340 541.5,-334 541.5,-334 541.5,-322 541.5,-322 541.5,-316 547.5,-310 553.5,-310 553.5,-310 614.5,-310 614.5,-310 620.5,-310 626.5,-316 626.5,-322 626.5,-322 626.5,-334 626.5,-334 626.5,-340 620.5,-346 614.5,-346"/>
<text text-anchor="middle" x="584" y="-324.3" font-family="Helvetica,sans-Serif" font-size="14.00">err_error4</text>
</g>
<!-- err_error1&#45;&gt;err_error4 -->
<g id="edge25" class="edge">
<title>err_error1&#45;&gt;err_error4</title>
<path fill="none" stroke="black" stroke-width="1.2" d="M502.31,-328C511.58,-328 521.5,-328 531.11,-328"/>
<polygon fill="black" stroke="black" stroke-width="1.2" points="531.37,-331.5 541.37,-328 531.37,-324.5 531.37,-331.5"/>
</g>
<!-- err_error2&#45;&gt;volt -->
<g id="edge3" class="edge">
<title>err_error2&#45;&gt;volt</title>
<path fill="none" stroke="black" stroke-width="1.2" d="M810.65,-133.99C760.53,-111.51 668.17,-76 585,-76 220.5,-76 220.5,-76 220.5,-76 120.75,-76 59.92,-205.97 37.66,-264.27"/>
<polygon fill="black" stroke="black" stroke-width="1.2" points="34.26,-263.36 34.06,-273.96 40.82,-265.8 34.26,-263.36"/>
</g>
<!-- err_error3&#45;&gt;err_error1 -->
<g id="edge24" class="edge">
<title>err_error3&#45;&gt;err_error1</title>
<path fill="none" stroke="black" stroke-width="1.2" d="M381.12,-334.5C389.32,-333.81 398.01,-333.08 406.5,-332.37"/>
<polygon fill="black" stroke="black" stroke-width="1.2" points="407.03,-335.84 416.7,-331.51 406.44,-328.86 407.03,-335.84"/>
</g>
<!-- err_error3&#45;&gt;err_error2 -->
<g id="edge26" class="edge">
<title>err_error3&#45;&gt;err_error2</title>
<path fill="none" stroke="black" stroke-width="1.2" d="M362.01,-319.9C397.5,-292.14 469.51,-238.91 538,-207 591.79,-181.94 607.73,-180.26 666,-169 709.39,-160.62 759.43,-156.32 796.04,-154.15"/>
<polygon fill="black" stroke="black" stroke-width="1.2" points="796.68,-157.62 806.47,-153.57 796.29,-150.63 796.68,-157.62"/>
</g>
<!-- err_error4&#45;&gt;vibration -->
<g id="edge19" class="edge">
<title>err_error4&#45;&gt;vibration</title>
<path fill="none" stroke="black" stroke-width="1.2" d="M626.53,-342.81C639.09,-347.29 652.98,-352.24 665.93,-356.86"/>
<polygon fill="black" stroke="black" stroke-width="1.2" points="665.02,-360.25 675.62,-360.31 667.37,-353.66 665.02,-360.25"/>
</g>
<!-- err_error5&#45;&gt;volt -->
<g id="edge4" class="edge">
<title>err_error5&#45;&gt;volt</title>
<path fill="none" stroke="black" stroke-width="1.2" d="M811.1,-482.33C807.16,-484.98 803.37,-487.88 800,-491 778.85,-510.61 788.68,-530.06 764,-545 695.56,-586.42 665,-564 585,-564 220.5,-564 220.5,-564 220.5,-564 101.92,-564 49.82,-389.62 33.76,-320.11"/>
<polygon fill="black" stroke="black" stroke-width="1.2" points="37.16,-319.27 31.57,-310.27 30.33,-320.79 37.16,-319.27"/>
</g>
<!-- err_error5&#45;&gt;rotate -->
<g id="edge11" class="edge">
<title>err_error5&#45;&gt;rotate</title>
<path fill="none" stroke="black" stroke-width="1.2" d="M806.48,-468.26C735.61,-475.16 586.71,-488 460.5,-488 337.5,-488 337.5,-488 337.5,-488 267.28,-488 249.81,-476.61 183,-455 174.25,-452.17 165.08,-448.54 156.51,-444.84"/>
<polygon fill="black" stroke="black" stroke-width="1.2" points="157.71,-441.54 147.15,-440.67 154.86,-447.94 157.71,-441.54"/>
</g>
<!-- mnt_comp1 -->
<g id="node10" class="node">
<title>mnt_comp1</title>
<path fill="white" stroke="black" d="M1020,-392C1020,-392 946,-392 946,-392 940,-392 934,-386 934,-380 934,-380 934,-368 934,-368 934,-362 940,-356 946,-356 946,-356 1020,-356 1020,-356 1026,-356 1032,-362 1032,-368 1032,-368 1032,-380 1032,-380 1032,-386 1026,-392 1020,-392"/>
<text text-anchor="middle" x="983" y="-370.3" font-family="Helvetica,sans-Serif" font-size="14.00">mnt_comp1</text>
</g>
<!-- mnt_comp1&#45;&gt;volt -->
<g id="edge5" class="edge">
<title>mnt_comp1&#45;&gt;volt</title>
<path fill="none" stroke="black" stroke-width="1.2" d="M980.65,-355.97C976.42,-311.41 959.73,-194.66 898,-125 838.54,-57.9 805.66,-38 716,-38 220.5,-38 220.5,-38 220.5,-38 156.66,-38 132.31,-50.2 90,-98 47.72,-145.76 34.24,-222.53 29.97,-263.72"/>
<polygon fill="black" stroke="black" stroke-width="1.2" points="26.46,-263.58 29.03,-273.86 33.44,-264.23 26.46,-263.58"/>
</g>
<!-- mnt_comp3 -->
<g id="node12" class="node">
<title>mnt_comp3</title>
<path fill="white" stroke="black" d="M1154,-392C1154,-392 1080,-392 1080,-392 1074,-392 1068,-386 1068,-380 1068,-380 1068,-368 1068,-368 1068,-362 1074,-356 1080,-356 1080,-356 1154,-356 1154,-356 1160,-356 1166,-362 1166,-368 1166,-368 1166,-380 1166,-380 1166,-386 1160,-392 1154,-392"/>
<text text-anchor="middle" x="1117" y="-370.3" font-family="Helvetica,sans-Serif" font-size="14.00">mnt_comp3</text>
</g>
<!-- mnt_comp1&#45;&gt;mnt_comp3 -->
<g id="edge28" class="edge">
<title>mnt_comp1&#45;&gt;mnt_comp3</title>
<path fill="none" stroke="black" stroke-width="1.2" d="M1032.03,-374C1040.31,-374 1049,-374 1057.52,-374"/>
<polygon fill="black" stroke="black" stroke-width="1.2" points="1057.79,-377.5 1067.79,-374 1057.79,-370.5 1057.79,-377.5"/>
</g>
<!-- mnt_comp2&#45;&gt;mnt_comp1 -->
<g id="edge27" class="edge">
<title>mnt_comp2&#45;&gt;mnt_comp1</title>
<path fill="none" stroke="black" stroke-width="1.2" d="M898.03,-374C906.31,-374 915,-374 923.52,-374"/>
<polygon fill="black" stroke="black" stroke-width="1.2" points="923.79,-377.5 933.79,-374 923.79,-370.5 923.79,-377.5"/>
</g>
<!-- mnt_comp3&#45;&gt;volt -->
<g id="edge6" class="edge">
<title>mnt_comp3&#45;&gt;volt</title>
<path fill="none" stroke="black" stroke-width="1.2" d="M1112.53,-355.96C1097.02,-281.25 1026.89,0 850,0 220.5,0 220.5,0 220.5,0 158.85,0 131.41,-1.33 90,-47 33.99,-108.78 26.97,-213.86 27.07,-263.9"/>
<polygon fill="black" stroke="black" stroke-width="1.2" points="23.57,-264.03 27.19,-273.99 30.57,-263.95 23.57,-264.03"/>
</g>
<!-- mnt_comp4 -->
<g id="node13" class="node">
<title>mnt_comp4</title>
<path fill="white" stroke="black" d="M752,-292C752,-292 678,-292 678,-292 672,-292 666,-286 666,-280 666,-280 666,-268 666,-268 666,-262 672,-256 678,-256 678,-256 752,-256 752,-256 758,-256 764,-262 764,-268 764,-268 764,-280 764,-280 764,-286 758,-292 752,-292"/>
<text text-anchor="middle" x="715" y="-270.3" font-family="Helvetica,sans-Serif" font-size="14.00">mnt_comp4</text>
</g>
<!-- fail_comp1&#45;&gt;mnt_comp1 -->
<g id="edge29" class="edge">
<title>fail_comp1&#45;&gt;mnt_comp1</title>
<path fill="none" stroke="black" stroke-width="1.2" d="M886.3,-499.88C890.44,-497.16 894.44,-494.19 898,-491 927.37,-464.71 952.42,-426.43 967.33,-400.9"/>
<polygon fill="black" stroke="black" stroke-width="1.2" points="970.43,-402.53 972.36,-392.11 964.36,-399.06 970.43,-402.53"/>
</g>
<!-- fail_comp1&#45;&gt;mnt_comp3 -->
<g id="edge31" class="edge">
<title>fail_comp1&#45;&gt;mnt_comp3</title>
<path fill="none" stroke="black" stroke-width="1.2" d="M883.42,-499.91C931.6,-473.83 1020.56,-425.66 1073.4,-397.06"/>
<polygon fill="black" stroke="black" stroke-width="1.2" points="1075.38,-399.97 1082.51,-392.13 1072.05,-393.81 1075.38,-399.97"/>
</g>
<!-- fail_comp2&#45;&gt;mnt_comp2 -->
<g id="edge30" class="edge">
<title>fail_comp2&#45;&gt;mnt_comp2</title>
<path fill="none" stroke="black" stroke-width="1.2" d="M732.72,-499.76C755.93,-474.44 798.03,-428.52 824.42,-399.73"/>
<polygon fill="black" stroke="black" stroke-width="1.2" points="827.24,-401.83 831.42,-392.09 822.08,-397.1 827.24,-401.83"/>
</g>
<!-- fail_comp2&#45;&gt;fail_comp1 -->
<g id="edge33" class="edge">
<title>fail_comp2&#45;&gt;fail_comp1</title>
<path fill="none" stroke="black" stroke-width="1.2" d="M761.06,-518C771.14,-518 781.95,-518 792.4,-518"/>
<polygon fill="black" stroke="black" stroke-width="1.2" points="792.7,-521.5 802.7,-518 792.7,-514.5 792.7,-521.5"/>
</g>
<!-- fail_comp4 -->
<g id="node16" class="node">
<title>fail_comp4</title>
<path fill="white" stroke="black" d="M618,-292C618,-292 550,-292 550,-292 544,-292 538,-286 538,-280 538,-280 538,-268 538,-268 538,-262 544,-256 550,-256 550,-256 618,-256 618,-256 624,-256 630,-262 630,-268 630,-268 630,-280 630,-280 630,-286 624,-292 618,-292"/>
<text text-anchor="middle" x="584" y="-270.3" font-family="Helvetica,sans-Serif" font-size="14.00">fail_comp4</text>
</g>
<!-- fail_comp4&#45;&gt;vibration -->
<g id="edge22" class="edge">
<title>fail_comp4&#45;&gt;vibration</title>
<path fill="none" stroke="black" stroke-width="1.2" d="M616.92,-292.2C621.4,-295.02 625.87,-298 630,-301 650.29,-315.73 671.59,-334.28 687.67,-349"/>
<polygon fill="black" stroke="black" stroke-width="1.2" points="685.39,-351.66 695.11,-355.88 690.15,-346.52 685.39,-351.66"/>
</g>
<!-- fail_comp4&#45;&gt;mnt_comp4 -->
<g id="edge32" class="edge">
<title>fail_comp4&#45;&gt;mnt_comp4</title>
<path fill="none" stroke="black" stroke-width="1.2" d="M630.12,-274C638.28,-274 646.9,-274 655.38,-274"/>
<polygon fill="black" stroke="black" stroke-width="1.2" points="655.62,-277.5 665.62,-274 655.62,-270.5 655.62,-277.5"/>
</g>
</g>
</svg>
