<?xml version="1.0" encoding="UTF-8" standalone="no"?>
<!DOCTYPE svg PUBLIC "-//W3C//DTD SVG 1.1//EN"
 "http://www.w3.org/Graphics/SVG/1.1/DTD/svg11.dtd">
<!-- Generated by graphviz version 2.50.0 (0)
 -->
<!-- Title: G Pages: 1 -->
<svg width="454pt" height="93pt"
 viewBox="0.00 0.00 454.00 93.00" xmlns="http://www.w3.org/2000/svg" xmlns:xlink="http://www.w3.org/1999/xlink">
<g id="graph0" class="graph" transform="scale(1 1) rotate(0) translate(4 89)">
<title>G</title>
<polygon fill="white" stroke="transparent" points="-4,4 -4,-89 450,-89 450,4 -4,4"/>
<text text-anchor="middle" x="223" y="-68.2" font-family="Times,serif" font-size="16.00">model=model3/cbnb_w_telemetry.json [machine 55]</text>
<!-- volt -->
<g id="node1" class="node">
<title>volt</title>
<path fill="white" stroke="black" d="M284,-59C284,-59 254,-59 254,-59 248,-59 242,-53 242,-47 242,-47 242,-35 242,-35 242,-29 248,-23 254,-23 254,-23 284,-23 284,-23 290,-23 296,-29 296,-35 296,-35 296,-47 296,-47 296,-53 290,-59 284,-59"/>
<text text-anchor="middle" x="269" y="-37.3" font-family="Helvetica,sans-Serif" font-size="14.00">volt</text>
</g>
<!-- vibration -->
<g id="node4" class="node">
<title>vibration</title>
<path fill="white" stroke="black" d="M398,-36C398,-36 344,-36 344,-36 338,-36 332,-30 332,-24 332,-24 332,-12 332,-12 332,-6 338,0 344,0 344,0 398,0 398,0 404,0 410,-6 410,-12 410,-12 410,-24 410,-24 410,-30 404,-36 398,-36"/>
<text text-anchor="middle" x="371" y="-14.3" font-family="Helvetica,sans-Serif" font-size="14.00">vibration</text>
</g>
<!-- volt&#45;&gt;vibration -->
<g id="edge2" class="edge">
<title>volt&#45;&gt;vibration</title>
<path fill="none" stroke="black" stroke-width="1.2" d="M305.87,-32.75C310.98,-31.57 316.3,-30.35 321.59,-29.13"/>
<polygon fill="black" stroke="black" stroke-width="1.2" points="304.97,-29.36 296.01,-35.02 306.54,-36.19 304.97,-29.36"/>
<polygon fill="black" stroke="black" stroke-width="1.2" points="322.72,-32.47 331.68,-26.81 321.15,-25.64 322.72,-32.47"/>
</g>
<!-- rotate -->
<g id="node2" class="node">
<title>rotate</title>
<path fill="white" stroke="black" d="M194,-36C194,-36 161,-36 161,-36 155,-36 149,-30 149,-24 149,-24 149,-12 149,-12 149,-6 155,0 161,0 161,0 194,0 194,0 200,0 206,-6 206,-12 206,-12 206,-24 206,-24 206,-30 200,-36 194,-36"/>
<text text-anchor="middle" x="177.5" y="-14.3" font-family="Helvetica,sans-Serif" font-size="14.00">rotate</text>
</g>
<!-- rotate&#45;&gt;volt -->
<g id="edge1" class="edge">
<title>rotate&#45;&gt;volt</title>
<path fill="none" stroke="black" stroke-width="1.2" d="M206.33,-25.15C214.44,-27.24 223.43,-29.55 231.97,-31.74"/>
<polygon fill="black" stroke="black" stroke-width="1.2" points="231.16,-35.15 241.72,-34.25 232.9,-28.37 231.16,-35.15"/>
</g>
<!-- rotate&#45;&gt;vibration -->
<g id="edge4" class="edge">
<title>rotate&#45;&gt;vibration</title>
<path fill="none" stroke="black" stroke-width="1.2" d="M206.3,-15.87C217.4,-15.12 230.3,-14.37 242,-14 265.99,-13.25 272.01,-13.35 296,-14 304.32,-14.22 313.16,-14.59 321.73,-15.01"/>
<polygon fill="black" stroke="black" stroke-width="1.2" points="321.82,-18.52 331.99,-15.55 322.19,-11.53 321.82,-18.52"/>
</g>
<!-- pressure -->
<g id="node3" class="node">
<title>pressure</title>
<path fill="white" stroke="black" d="M101,-36C101,-36 48,-36 48,-36 42,-36 36,-30 36,-24 36,-24 36,-12 36,-12 36,-6 42,0 48,0 48,0 101,0 101,0 107,0 113,-6 113,-12 113,-12 113,-24 113,-24 113,-30 107,-36 101,-36"/>
<text text-anchor="middle" x="74.5" y="-14.3" font-family="Helvetica,sans-Serif" font-size="14.00">pressure</text>
</g>
<!-- pressure&#45;&gt;rotate -->
<g id="edge3" class="edge">
<title>pressure&#45;&gt;rotate</title>
<path fill="none" stroke="black" stroke-width="1.2" d="M113.11,-18C121.47,-18 130.33,-18 138.7,-18"/>
<polygon fill="black" stroke="black" stroke-width="1.2" points="138.96,-21.5 148.96,-18 138.96,-14.5 138.96,-21.5"/>
</g>
</g>
</svg>
