<?xml version="1.0" encoding="UTF-8" standalone="no"?>
<!DOCTYPE svg PUBLIC "-//W3C//DTD SVG 1.1//EN"
 "http://www.w3.org/Graphics/SVG/1.1/DTD/svg11.dtd">
<!-- Generated by graphviz version 2.50.0 (0)
 -->
<!-- Title: G Pages: 1 -->
<svg width="454pt" height="124pt"
 viewBox="0.00 0.00 454.00 124.00" xmlns="http://www.w3.org/2000/svg" xmlns:xlink="http://www.w3.org/1999/xlink">
<g id="graph0" class="graph" transform="scale(1 1) rotate(0) translate(4 120)">
<title>G</title>
<polygon fill="white" stroke="transparent" points="-4,4 -4,-120 450,-120 450,4 -4,4"/>
<text text-anchor="middle" x="223" y="-99.2" font-family="Times,serif" font-size="16.00">model=model2/cbnb_w_telemetry.json [machine 90]</text>
<!-- volt -->
<g id="node1" class="node">
<title>volt</title>
<path fill="white" stroke="black" d="M181,-36C181,-36 151,-36 151,-36 145,-36 139,-30 139,-24 139,-24 139,-12 139,-12 139,-6 145,0 151,0 151,0 181,0 181,0 187,0 193,-6 193,-12 193,-12 193,-24 193,-24 193,-30 187,-36 181,-36"/>
<text text-anchor="middle" x="166" y="-14.3" font-family="Helvetica,sans-Serif" font-size="14.00">volt</text>
</g>
<!-- rotate -->
<g id="node2" class="node">
<title>rotate</title>
<path fill="white" stroke="black" d="M296,-36C296,-36 263,-36 263,-36 257,-36 251,-30 251,-24 251,-24 251,-12 251,-12 251,-6 257,0 263,0 263,0 296,0 296,0 302,0 308,-6 308,-12 308,-12 308,-24 308,-24 308,-30 302,-36 296,-36"/>
<text text-anchor="middle" x="279.5" y="-14.3" font-family="Helvetica,sans-Serif" font-size="14.00">rotate</text>
</g>
<!-- volt&#45;&gt;rotate -->
<g id="edge1" class="edge">
<title>volt&#45;&gt;rotate</title>
<path fill="none" stroke="black" stroke-width="1.2" d="M193.14,-18C207.26,-18 224.95,-18 240.56,-18"/>
<polygon fill="black" stroke="black" stroke-width="1.2" points="240.97,-21.5 250.97,-18 240.97,-14.5 240.97,-21.5"/>
</g>
<!-- pressure -->
<g id="node3" class="node">
<title>pressure</title>
<path fill="white" stroke="black" d="M192.5,-90C192.5,-90 139.5,-90 139.5,-90 133.5,-90 127.5,-84 127.5,-78 127.5,-78 127.5,-66 127.5,-66 127.5,-60 133.5,-54 139.5,-54 139.5,-54 192.5,-54 192.5,-54 198.5,-54 204.5,-60 204.5,-66 204.5,-66 204.5,-78 204.5,-78 204.5,-84 198.5,-90 192.5,-90"/>
<text text-anchor="middle" x="166" y="-68.3" font-family="Helvetica,sans-Serif" font-size="14.00">pressure</text>
</g>
<!-- vibration -->
<g id="node4" class="node">
<title>vibration</title>
<path fill="white" stroke="black" d="M306.5,-90C306.5,-90 252.5,-90 252.5,-90 246.5,-90 240.5,-84 240.5,-78 240.5,-78 240.5,-66 240.5,-66 240.5,-60 246.5,-54 252.5,-54 252.5,-54 306.5,-54 306.5,-54 312.5,-54 318.5,-60 318.5,-66 318.5,-66 318.5,-78 318.5,-78 318.5,-84 312.5,-90 306.5,-90"/>
<text text-anchor="middle" x="279.5" y="-68.3" font-family="Helvetica,sans-Serif" font-size="14.00">vibration</text>
</g>
<!-- pressure&#45;&gt;vibration -->
<g id="edge2" class="edge">
<title>pressure&#45;&gt;vibration</title>
<path fill="none" stroke="black" stroke-width="1.2" d="M204.75,-72C212.92,-72 221.68,-72 230.19,-72"/>
<polygon fill="black" stroke="black" stroke-width="1.2" points="230.41,-75.5 240.41,-72 230.41,-68.5 230.41,-75.5"/>
</g>
</g>
</svg>
