<?xml version="1.0" encoding="UTF-8" standalone="no"?>
<!DOCTYPE svg PUBLIC "-//W3C//DTD SVG 1.1//EN"
 "http://www.w3.org/Graphics/SVG/1.1/DTD/svg11.dtd">
<!-- Generated by graphviz version 2.50.0 (0)
 -->
<!-- Title: G Pages: 1 -->
<svg width="1083pt" height="602pt"
 viewBox="0.00 0.00 1083.00 602.00" xmlns="http://www.w3.org/2000/svg" xmlns:xlink="http://www.w3.org/1999/xlink">
<g id="graph0" class="graph" transform="scale(1 1) rotate(0) translate(4 598)">
<title>G</title>
<polygon fill="white" stroke="transparent" points="-4,4 -4,-598 1079,-598 1079,4 -4,4"/>
<text text-anchor="middle" x="537.5" y="-577.2" font-family="Times,serif" font-size="16.00">model=model3/cbnb_w_mixed.json [machine 27]</text>
<!-- volt -->
<g id="node1" class="node">
<title>volt</title>
<path fill="white" stroke="black" d="M163,-380C163,-380 133,-380 133,-380 127,-380 121,-374 121,-368 121,-368 121,-356 121,-356 121,-350 127,-344 133,-344 133,-344 163,-344 163,-344 169,-344 175,-350 175,-356 175,-356 175,-368 175,-368 175,-374 169,-380 163,-380"/>
<text text-anchor="middle" x="148" y="-358.3" font-family="Helvetica,sans-Serif" font-size="14.00">volt</text>
</g>
<!-- mnt_comp4 -->
<g id="node13" class="node">
<title>mnt_comp4</title>
<path fill="white" stroke="black" d="M821,-510C821,-510 747,-510 747,-510 741,-510 735,-504 735,-498 735,-498 735,-486 735,-486 735,-480 741,-474 747,-474 747,-474 821,-474 821,-474 827,-474 833,-480 833,-486 833,-486 833,-498 833,-498 833,-504 827,-510 821,-510"/>
<text text-anchor="middle" x="784" y="-488.3" font-family="Helvetica,sans-Serif" font-size="14.00">mnt_comp4</text>
</g>
<!-- volt&#45;&gt;mnt_comp4 -->
<g id="edge4" class="edge">
<title>volt&#45;&gt;mnt_comp4</title>
<path fill="none" stroke="black" stroke-width="1.2" d="M163.66,-389.3C195.96,-445.3 279.03,-568 387,-568 387,-568 387,-568 520,-568 598.3,-568 684.74,-536.53 736.42,-514.09"/>
<polygon fill="black" stroke="black" stroke-width="1.2" points="166.54,-387.27 158.57,-380.28 160.44,-390.71 166.54,-387.27"/>
<polygon fill="black" stroke="black" stroke-width="1.2" points="737.92,-517.25 745.65,-510.01 735.09,-510.85 737.92,-517.25"/>
</g>
<!-- fail_comp1 -->
<g id="node14" class="node">
<title>fail_comp1</title>
<path fill="white" stroke="black" d="M291,-334C291,-334 223,-334 223,-334 217,-334 211,-328 211,-322 211,-322 211,-310 211,-310 211,-304 217,-298 223,-298 223,-298 291,-298 291,-298 297,-298 303,-304 303,-310 303,-310 303,-322 303,-322 303,-328 297,-334 291,-334"/>
<text text-anchor="middle" x="257" y="-312.3" font-family="Helvetica,sans-Serif" font-size="14.00">fail_comp1</text>
</g>
<!-- volt&#45;&gt;fail_comp1 -->
<g id="edge5" class="edge">
<title>volt&#45;&gt;fail_comp1</title>
<path fill="none" stroke="black" stroke-width="1.2" d="M175.18,-350.75C184.08,-346.92 194.37,-342.5 204.55,-338.12"/>
<polygon fill="black" stroke="black" stroke-width="1.2" points="206.03,-341.29 213.84,-334.13 203.27,-334.86 206.03,-341.29"/>
</g>
<!-- rotate -->
<g id="node2" class="node">
<title>rotate</title>
<path fill="white" stroke="black" d="M404.5,-258C404.5,-258 371.5,-258 371.5,-258 365.5,-258 359.5,-252 359.5,-246 359.5,-246 359.5,-234 359.5,-234 359.5,-228 365.5,-222 371.5,-222 371.5,-222 404.5,-222 404.5,-222 410.5,-222 416.5,-228 416.5,-234 416.5,-234 416.5,-246 416.5,-246 416.5,-252 410.5,-258 404.5,-258"/>
<text text-anchor="middle" x="388" y="-236.3" font-family="Helvetica,sans-Serif" font-size="14.00">rotate</text>
</g>
<!-- pressure -->
<g id="node3" class="node">
<title>pressure</title>
<path fill="white" stroke="black" d="M545.5,-258C545.5,-258 492.5,-258 492.5,-258 486.5,-258 480.5,-252 480.5,-246 480.5,-246 480.5,-234 480.5,-234 480.5,-228 486.5,-222 492.5,-222 492.5,-222 545.5,-222 545.5,-222 551.5,-222 557.5,-228 557.5,-234 557.5,-234 557.5,-246 557.5,-246 557.5,-252 551.5,-258 545.5,-258"/>
<text text-anchor="middle" x="519" y="-236.3" font-family="Helvetica,sans-Serif" font-size="14.00">pressure</text>
</g>
<!-- rotate&#45;&gt;pressure -->
<g id="edge7" class="edge">
<title>rotate&#45;&gt;pressure</title>
<path fill="none" stroke="black" stroke-width="1.2" d="M426.7,-240C440.23,-240 455.66,-240 469.94,-240"/>
<polygon fill="black" stroke="black" stroke-width="1.2" points="426.67,-236.5 416.67,-240 426.67,-243.5 426.67,-236.5"/>
<polygon fill="black" stroke="black" stroke-width="1.2" points="470.1,-243.5 480.1,-240 470.1,-236.5 470.1,-243.5"/>
</g>
<!-- err_error1 -->
<g id="node5" class="node">
<title>err_error1</title>
<path fill="white" stroke="black" d="M1063,-212C1063,-212 1002,-212 1002,-212 996,-212 990,-206 990,-200 990,-200 990,-188 990,-188 990,-182 996,-176 1002,-176 1002,-176 1063,-176 1063,-176 1069,-176 1075,-182 1075,-188 1075,-188 1075,-200 1075,-200 1075,-206 1069,-212 1063,-212"/>
<text text-anchor="middle" x="1032.5" y="-190.3" font-family="Helvetica,sans-Serif" font-size="14.00">err_error1</text>
</g>
<!-- rotate&#45;&gt;err_error1 -->
<g id="edge8" class="edge">
<title>rotate&#45;&gt;err_error1</title>
<path fill="none" stroke="black" stroke-width="1.2" d="M416.62,-229.55C432.82,-223.82 453.82,-217.07 473,-213 549.96,-196.66 570.32,-194 649,-194 649,-194 649,-194 785,-194 852.12,-194 929.52,-194 979.41,-194"/>
<polygon fill="black" stroke="black" stroke-width="1.2" points="979.63,-197.5 989.63,-194 979.63,-190.5 979.63,-197.5"/>
</g>
<!-- err_error2 -->
<g id="node6" class="node">
<title>err_error2</title>
<path fill="white" stroke="black" d="M1063,-94C1063,-94 1002,-94 1002,-94 996,-94 990,-88 990,-82 990,-82 990,-70 990,-70 990,-64 996,-58 1002,-58 1002,-58 1063,-58 1063,-58 1069,-58 1075,-64 1075,-70 1075,-70 1075,-82 1075,-82 1075,-88 1069,-94 1063,-94"/>
<text text-anchor="middle" x="1032.5" y="-72.3" font-family="Helvetica,sans-Serif" font-size="14.00">err_error2</text>
</g>
<!-- rotate&#45;&gt;err_error2 -->
<g id="edge9" class="edge">
<title>rotate&#45;&gt;err_error2</title>
<path fill="none" stroke="black" stroke-width="1.2" d="M401.07,-212.47C414.81,-183.92 439.74,-139.68 473,-112 538.23,-57.72 564.14,-38 649,-38 649,-38 649,-38 785,-38 853.06,-38 930.46,-52.32 980.08,-63.38"/>
<polygon fill="black" stroke="black" stroke-width="1.2" points="397.74,-211.31 396.68,-221.85 404.08,-214.28 397.74,-211.31"/>
<polygon fill="black" stroke="black" stroke-width="1.2" points="979.4,-66.82 989.93,-65.62 980.95,-59.99 979.4,-66.82"/>
</g>
<!-- err_error3 -->
<g id="node7" class="node">
<title>err_error3</title>
<path fill="white" stroke="black" d="M942,-166C942,-166 881,-166 881,-166 875,-166 869,-160 869,-154 869,-154 869,-142 869,-142 869,-136 875,-130 881,-130 881,-130 942,-130 942,-130 948,-130 954,-136 954,-142 954,-142 954,-154 954,-154 954,-160 948,-166 942,-166"/>
<text text-anchor="middle" x="911.5" y="-144.3" font-family="Helvetica,sans-Serif" font-size="14.00">err_error3</text>
</g>
<!-- rotate&#45;&gt;err_error3 -->
<g id="edge10" class="edge">
<title>rotate&#45;&gt;err_error3</title>
<path fill="none" stroke="black" stroke-width="1.2" d="M399.55,-212.17C412.15,-183.39 436.24,-140.05 473,-121 506.46,-103.66 750.14,-129.33 858.63,-141.82"/>
<polygon fill="black" stroke="black" stroke-width="1.2" points="396.2,-211.11 395.57,-221.68 402.66,-213.81 396.2,-211.11"/>
<polygon fill="black" stroke="black" stroke-width="1.2" points="858.36,-145.31 868.7,-142.99 859.17,-138.36 858.36,-145.31"/>
</g>
<!-- err_error5 -->
<g id="node9" class="node">
<title>err_error5</title>
<path fill="white" stroke="black" d="M549.5,-166C549.5,-166 488.5,-166 488.5,-166 482.5,-166 476.5,-160 476.5,-154 476.5,-154 476.5,-142 476.5,-142 476.5,-136 482.5,-130 488.5,-130 488.5,-130 549.5,-130 549.5,-130 555.5,-130 561.5,-136 561.5,-142 561.5,-142 561.5,-154 561.5,-154 561.5,-160 555.5,-166 549.5,-166"/>
<text text-anchor="middle" x="519" y="-144.3" font-family="Helvetica,sans-Serif" font-size="14.00">err_error5</text>
</g>
<!-- rotate&#45;&gt;err_error5 -->
<g id="edge12" class="edge">
<title>rotate&#45;&gt;err_error5</title>
<path fill="none" stroke="black" stroke-width="1.2" d="M414.35,-221.87C431.02,-209.96 453.3,-194.04 473,-180 476.51,-177.5 480.18,-174.88 483.84,-172.28"/>
<polygon fill="black" stroke="black" stroke-width="1.2" points="486.17,-174.92 492.29,-166.27 482.12,-169.21 486.17,-174.92"/>
</g>
<!-- fail_comp2 -->
<g id="node15" class="node">
<title>fail_comp2</title>
<path fill="white" stroke="black" d="M553,-426C553,-426 485,-426 485,-426 479,-426 473,-420 473,-414 473,-414 473,-402 473,-402 473,-396 479,-390 485,-390 485,-390 553,-390 553,-390 559,-390 565,-396 565,-402 565,-402 565,-414 565,-414 565,-420 559,-426 553,-426"/>
<text text-anchor="middle" x="519" y="-404.3" font-family="Helvetica,sans-Serif" font-size="14.00">fail_comp2</text>
</g>
<!-- rotate&#45;&gt;fail_comp2 -->
<g id="edge15" class="edge">
<title>rotate&#45;&gt;fail_comp2</title>
<path fill="none" stroke="black" stroke-width="1.2" d="M408.51,-258.35C417.57,-267.25 428.25,-278.31 437,-289 461.68,-319.13 486.34,-356.68 501.85,-381.45"/>
<polygon fill="black" stroke="black" stroke-width="1.2" points="498.88,-383.31 507.13,-389.96 504.83,-379.62 498.88,-383.31"/>
</g>
<!-- vibration -->
<g id="node4" class="node">
<title>vibration</title>
<path fill="white" stroke="black" d="M677,-426C677,-426 623,-426 623,-426 617,-426 611,-420 611,-414 611,-414 611,-402 611,-402 611,-396 617,-390 623,-390 623,-390 677,-390 677,-390 683,-390 689,-396 689,-402 689,-402 689,-414 689,-414 689,-420 683,-426 677,-426"/>
<text text-anchor="middle" x="650" y="-404.3" font-family="Helvetica,sans-Serif" font-size="14.00">vibration</text>
</g>
<!-- pressure&#45;&gt;vibration -->
<g id="edge16" class="edge">
<title>pressure&#45;&gt;vibration</title>
<path fill="none" stroke="black" stroke-width="1.2" d="M534.05,-258.3C556.99,-288.17 602.55,-347.51 628.9,-381.83"/>
<polygon fill="black" stroke="black" stroke-width="1.2" points="626.3,-384.18 635.16,-389.98 631.85,-379.91 626.3,-384.18"/>
</g>
<!-- pressure&#45;&gt;err_error2 -->
<g id="edge17" class="edge">
<title>pressure&#45;&gt;err_error2</title>
<path fill="none" stroke="black" stroke-width="1.2" d="M567.14,-222.95C633.93,-199.01 760.12,-154.61 869,-121 905.85,-109.63 947.81,-98.04 979.86,-89.47"/>
<polygon fill="black" stroke="black" stroke-width="1.2" points="565.95,-219.65 557.72,-226.33 568.32,-226.24 565.95,-219.65"/>
<polygon fill="black" stroke="black" stroke-width="1.2" points="981.13,-92.76 989.9,-86.8 979.33,-85.99 981.13,-92.76"/>
</g>
<!-- mnt_comp2 -->
<g id="node11" class="node">
<title>mnt_comp2</title>
<path fill="white" stroke="black" d="M687,-334C687,-334 613,-334 613,-334 607,-334 601,-328 601,-322 601,-322 601,-310 601,-310 601,-304 607,-298 613,-298 613,-298 687,-298 687,-298 693,-298 699,-304 699,-310 699,-310 699,-322 699,-322 699,-328 693,-334 687,-334"/>
<text text-anchor="middle" x="650" y="-312.3" font-family="Helvetica,sans-Serif" font-size="14.00">mnt_comp2</text>
</g>
<!-- pressure&#45;&gt;mnt_comp2 -->
<g id="edge19" class="edge">
<title>pressure&#45;&gt;mnt_comp2</title>
<path fill="none" stroke="black" stroke-width="1.2" d="M559.27,-263.13C575.08,-272.45 593.29,-283.18 609.16,-292.53"/>
<polygon fill="black" stroke="black" stroke-width="1.2" points="560.96,-260.07 550.57,-258.01 557.41,-266.1 560.96,-260.07"/>
<polygon fill="black" stroke="black" stroke-width="1.2" points="607.81,-295.79 618.2,-297.85 611.36,-289.76 607.81,-295.79"/>
</g>
<!-- vibration&#45;&gt;err_error1 -->
<g id="edge21" class="edge">
<title>vibration&#45;&gt;err_error1</title>
<path fill="none" stroke="black" stroke-width="1.2" d="M683.11,-389.94C752.07,-351.16 914.2,-259.97 990.47,-217.07"/>
<polygon fill="black" stroke="black" stroke-width="1.2" points="992.34,-220.04 999.34,-212.09 988.91,-213.94 992.34,-220.04"/>
</g>
<!-- err_error3&#45;&gt;volt -->
<g id="edge1" class="edge">
<title>err_error3&#45;&gt;volt</title>
<path fill="none" stroke="black" stroke-width="1.2" d="M883.43,-129.85C821.78,-90.33 665,0 520,0 387,0 387,0 387,0 227.6,0 169.01,-248.11 153.56,-333.52"/>
<polygon fill="black" stroke="black" stroke-width="1.2" points="150.08,-333.1 151.81,-343.55 156.97,-334.3 150.08,-333.1"/>
</g>
<!-- err_error3&#45;&gt;err_error1 -->
<g id="edge24" class="edge">
<title>err_error3&#45;&gt;err_error1</title>
<path fill="none" stroke="black" stroke-width="1.2" d="M954.12,-164.09C962.59,-167.36 971.58,-170.84 980.34,-174.22"/>
<polygon fill="black" stroke="black" stroke-width="1.2" points="979.11,-177.5 989.7,-177.84 981.64,-170.97 979.11,-177.5"/>
</g>
<!-- err_error3&#45;&gt;err_error2 -->
<g id="edge25" class="edge">
<title>err_error3&#45;&gt;err_error2</title>
<path fill="none" stroke="black" stroke-width="1.2" d="M942.53,-129.83C957.75,-120.62 976.41,-109.33 992.71,-99.47"/>
<polygon fill="black" stroke="black" stroke-width="1.2" points="994.74,-102.33 1001.48,-94.16 991.11,-96.34 994.74,-102.33"/>
</g>
<!-- err_error4 -->
<g id="node8" class="node">
<title>err_error4</title>
<path fill="white" stroke="black" d="M73,-380C73,-380 12,-380 12,-380 6,-380 0,-374 0,-368 0,-368 0,-356 0,-356 0,-350 6,-344 12,-344 12,-344 73,-344 73,-344 79,-344 85,-350 85,-356 85,-356 85,-368 85,-368 85,-374 79,-380 73,-380"/>
<text text-anchor="middle" x="42.5" y="-358.3" font-family="Helvetica,sans-Serif" font-size="14.00">err_error4</text>
</g>
<!-- err_error4&#45;&gt;volt -->
<g id="edge2" class="edge">
<title>err_error4&#45;&gt;volt</title>
<path fill="none" stroke="black" stroke-width="1.2" d="M85,-362C93.54,-362 102.47,-362 110.81,-362"/>
<polygon fill="black" stroke="black" stroke-width="1.2" points="110.97,-365.5 120.97,-362 110.97,-358.5 110.97,-365.5"/>
</g>
<!-- err_error4&#45;&gt;rotate -->
<g id="edge11" class="edge">
<title>err_error4&#45;&gt;rotate</title>
<path fill="none" stroke="black" stroke-width="1.2" d="M80.81,-343.95C114.37,-328.15 165.26,-305.24 211,-289 257.93,-272.33 313.49,-257.68 349.45,-248.84"/>
<polygon fill="black" stroke="black" stroke-width="1.2" points="350.61,-252.16 359.5,-246.39 348.95,-245.36 350.61,-252.16"/>
</g>
<!-- err_error4&#45;&gt;vibration -->
<g id="edge22" class="edge">
<title>err_error4&#45;&gt;vibration</title>
<path fill="none" stroke="black" stroke-width="1.2" d="M67.54,-380.18C105.46,-406.99 182.43,-454 256,-454 256,-454 256,-454 389,-454 467.68,-454 488.04,-451.34 565,-435 576.94,-432.46 589.59,-428.89 601.34,-425.17"/>
<polygon fill="black" stroke="black" stroke-width="1.2" points="602.55,-428.46 610.97,-422.03 600.38,-421.8 602.55,-428.46"/>
</g>
<!-- mnt_comp1 -->
<g id="node10" class="node">
<title>mnt_comp1</title>
<path fill="white" stroke="black" d="M425,-334C425,-334 351,-334 351,-334 345,-334 339,-328 339,-322 339,-322 339,-310 339,-310 339,-304 345,-298 351,-298 351,-298 425,-298 425,-298 431,-298 437,-304 437,-310 437,-310 437,-322 437,-322 437,-328 431,-334 425,-334"/>
<text text-anchor="middle" x="388" y="-312.3" font-family="Helvetica,sans-Serif" font-size="14.00">mnt_comp1</text>
</g>
<!-- mnt_comp1&#45;&gt;pressure -->
<g id="edge18" class="edge">
<title>mnt_comp1&#45;&gt;pressure</title>
<path fill="none" stroke="black" stroke-width="1.2" d="M419.57,-297.99C437.19,-287.61 459.54,-274.44 478.49,-263.28"/>
<polygon fill="black" stroke="black" stroke-width="1.2" points="480.36,-266.24 487.2,-258.15 476.81,-260.21 480.36,-266.24"/>
</g>
<!-- mnt_comp3 -->
<g id="node12" class="node">
<title>mnt_comp3</title>
<path fill="white" stroke="black" d="M821,-288C821,-288 747,-288 747,-288 741,-288 735,-282 735,-276 735,-276 735,-264 735,-264 735,-258 741,-252 747,-252 747,-252 821,-252 821,-252 827,-252 833,-258 833,-264 833,-264 833,-276 833,-276 833,-282 827,-288 821,-288"/>
<text text-anchor="middle" x="784" y="-266.3" font-family="Helvetica,sans-Serif" font-size="14.00">mnt_comp3</text>
</g>
<!-- mnt_comp1&#45;&gt;mnt_comp3 -->
<g id="edge27" class="edge">
<title>mnt_comp1&#45;&gt;mnt_comp3</title>
<path fill="none" stroke="black" stroke-width="1.2" d="M437.38,-309.52C480.32,-303.85 544.79,-295.51 601,-289 642.22,-284.22 688.75,-279.38 724.45,-275.77"/>
<polygon fill="black" stroke="black" stroke-width="1.2" points="725.09,-279.23 734.68,-274.74 724.38,-272.26 725.09,-279.23"/>
</g>
<!-- mnt_comp1&#45;&gt;mnt_comp4 -->
<g id="edge28" class="edge">
<title>mnt_comp1&#45;&gt;mnt_comp4</title>
<path fill="none" stroke="black" stroke-width="1.2" d="M396.58,-334.14C408.66,-360.69 434.86,-409.7 473,-435 549.29,-485.61 658.26,-494.42 724.62,-494.44"/>
<polygon fill="black" stroke="black" stroke-width="1.2" points="724.91,-497.94 734.89,-494.37 724.87,-490.94 724.91,-497.94"/>
</g>
<!-- mnt_comp2&#45;&gt;volt -->
<g id="edge3" class="edge">
<title>mnt_comp2&#45;&gt;volt</title>
<path fill="none" stroke="black" stroke-width="1.2" d="M600.68,-323C557.77,-329.02 493.32,-337.56 437,-343 346.75,-351.72 240.21,-357.6 185.48,-360.31"/>
<polygon fill="black" stroke="black" stroke-width="1.2" points="185.07,-356.82 175.25,-360.8 185.41,-363.81 185.07,-356.82"/>
</g>
<!-- mnt_comp2&#45;&gt;rotate -->
<g id="edge13" class="edge">
<title>mnt_comp2&#45;&gt;rotate</title>
<path fill="none" stroke="black" stroke-width="1.2" d="M600.67,-303.1C565.23,-293.5 515.99,-279.89 473,-267 457.62,-262.39 440.75,-257.03 426.2,-252.3"/>
<polygon fill="black" stroke="black" stroke-width="1.2" points="427.13,-248.93 416.53,-249.15 424.95,-255.58 427.13,-248.93"/>
</g>
<!-- mnt_comp2&#45;&gt;mnt_comp3 -->
<g id="edge30" class="edge">
<title>mnt_comp2&#45;&gt;mnt_comp3</title>
<path fill="none" stroke="black" stroke-width="1.2" d="M699.03,-299.26C707.49,-296.31 716.38,-293.22 725.08,-290.18"/>
<polygon fill="black" stroke="black" stroke-width="1.2" points="726.49,-293.4 734.79,-286.8 724.19,-286.79 726.49,-293.4"/>
</g>
<!-- mnt_comp2&#45;&gt;mnt_comp4 -->
<g id="edge31" class="edge">
<title>mnt_comp2&#45;&gt;mnt_comp4</title>
<path fill="none" stroke="black" stroke-width="1.2" d="M664.63,-334.17C688.11,-365.48 736.26,-429.68 763.36,-465.81"/>
<polygon fill="black" stroke="black" stroke-width="1.2" points="760.64,-468.03 769.44,-473.93 766.24,-463.83 760.64,-468.03"/>
</g>
<!-- mnt_comp3&#45;&gt;pressure -->
<g id="edge20" class="edge">
<title>mnt_comp3&#45;&gt;pressure</title>
<path fill="none" stroke="black" stroke-width="1.2" d="M734.68,-261.3C723.02,-259.38 710.59,-257.48 699,-256 654.78,-250.35 604.15,-246.02 568.05,-243.3"/>
<polygon fill="black" stroke="black" stroke-width="1.2" points="568.04,-239.79 557.8,-242.54 567.52,-246.77 568.04,-239.79"/>
</g>
<!-- mnt_comp3&#45;&gt;err_error3 -->
<g id="edge26" class="edge">
<title>mnt_comp3&#45;&gt;err_error3</title>
<path fill="none" stroke="black" stroke-width="1.2" d="M803.52,-252C824.93,-231.18 860.32,-196.78 884.49,-173.29"/>
<polygon fill="black" stroke="black" stroke-width="1.2" points="887.18,-175.56 891.91,-166.08 882.3,-170.54 887.18,-175.56"/>
</g>
<!-- fail_comp1&#45;&gt;rotate -->
<g id="edge14" class="edge">
<title>fail_comp1&#45;&gt;rotate</title>
<path fill="none" stroke="black" stroke-width="1.2" d="M288.57,-297.99C307.18,-287.03 331.05,-272.96 350.63,-261.43"/>
<polygon fill="black" stroke="black" stroke-width="1.2" points="352.45,-264.42 359.29,-256.33 348.89,-258.39 352.45,-264.42"/>
</g>
<!-- fail_comp1&#45;&gt;mnt_comp1 -->
<g id="edge29" class="edge">
<title>fail_comp1&#45;&gt;mnt_comp1</title>
<path fill="none" stroke="black" stroke-width="1.2" d="M303.12,-316C311.28,-316 319.9,-316 328.38,-316"/>
<polygon fill="black" stroke="black" stroke-width="1.2" points="328.62,-319.5 338.62,-316 328.62,-312.5 328.62,-319.5"/>
</g>
<!-- fail_comp1&#45;&gt;mnt_comp4 -->
<g id="edge34" class="edge">
<title>fail_comp1&#45;&gt;mnt_comp4</title>
<path fill="none" stroke="black" stroke-width="1.2" d="M278.1,-334.01C314.43,-365.64 394.53,-431.3 473,-468 526.32,-492.94 542.63,-494.38 601,-502 642.13,-507.37 688.84,-504.62 724.65,-500.66"/>
<polygon fill="black" stroke="black" stroke-width="1.2" points="725.39,-504.09 734.92,-499.45 724.58,-497.14 725.39,-504.09"/>
</g>
<!-- fail_comp2&#45;&gt;volt -->
<g id="edge6" class="edge">
<title>fail_comp2&#45;&gt;volt</title>
<path fill="none" stroke="black" stroke-width="1.2" d="M472.78,-404.97C412.71,-400.56 303.4,-391.19 211,-376 202.56,-374.61 193.55,-372.78 185.09,-370.9"/>
<polygon fill="black" stroke="black" stroke-width="1.2" points="185.64,-367.44 175.11,-368.62 184.08,-374.26 185.64,-367.44"/>
</g>
<!-- fail_comp2&#45;&gt;vibration -->
<g id="edge23" class="edge">
<title>fail_comp2&#45;&gt;vibration</title>
<path fill="none" stroke="black" stroke-width="1.2" d="M565.12,-408C576.69,-408 589.19,-408 600.91,-408"/>
<polygon fill="black" stroke="black" stroke-width="1.2" points="600.97,-411.5 610.97,-408 600.97,-404.5 600.97,-411.5"/>
</g>
<!-- fail_comp2&#45;&gt;mnt_comp2 -->
<g id="edge32" class="edge">
<title>fail_comp2&#45;&gt;mnt_comp2</title>
<path fill="none" stroke="black" stroke-width="1.2" d="M545.84,-389.91C552.14,-385.42 558.85,-380.58 565,-376 581.26,-363.9 584.56,-359.85 601,-348 604.71,-345.33 608.63,-342.59 612.55,-339.89"/>
<polygon fill="black" stroke="black" stroke-width="1.2" points="614.78,-342.61 621.1,-334.1 610.85,-336.81 614.78,-342.61"/>
</g>
<!-- fail_comp2&#45;&gt;mnt_comp3 -->
<g id="edge33" class="edge">
<title>fail_comp2&#45;&gt;mnt_comp3</title>
<path fill="none" stroke="black" stroke-width="1.2" d="M565.11,-392.58C614.12,-375.68 687.07,-350.02 699,-343 721.18,-329.95 743.02,-310.71 758.87,-295.27"/>
<polygon fill="black" stroke="black" stroke-width="1.2" points="761.52,-297.56 766.14,-288.03 756.59,-292.6 761.52,-297.56"/>
</g>
<!-- fail_comp2&#45;&gt;mnt_comp4 -->
<g id="edge35" class="edge">
<title>fail_comp2&#45;&gt;mnt_comp4</title>
<path fill="none" stroke="black" stroke-width="1.2" d="M565.36,-423.28C576.97,-427.15 589.43,-431.26 601,-435 642.33,-448.36 689.08,-462.99 724.86,-474.09"/>
<polygon fill="black" stroke="black" stroke-width="1.2" points="724.05,-477.5 734.64,-477.12 726.13,-470.82 724.05,-477.5"/>
</g>
</g>
</svg>
