<?xml version="1.0" encoding="UTF-8" standalone="no"?>
<!DOCTYPE svg PUBLIC "-//W3C//DTD SVG 1.1//EN"
 "http://www.w3.org/Graphics/SVG/1.1/DTD/svg11.dtd">
<!-- Generated by graphviz version 2.50.0 (0)
 -->
<!-- Title: G Pages: 1 -->
<svg width="454pt" height="147pt"
 viewBox="0.00 0.00 454.00 147.00" xmlns="http://www.w3.org/2000/svg" xmlns:xlink="http://www.w3.org/1999/xlink">
<g id="graph0" class="graph" transform="scale(1 1) rotate(0) translate(4 143)">
<title>G</title>
<polygon fill="white" stroke="transparent" points="-4,4 -4,-143 450,-143 450,4 -4,4"/>
<text text-anchor="middle" x="223" y="-122.2" font-family="Times,serif" font-size="16.00">model=model4/cbnb_w_telemetry.json [machine 57]</text>
<!-- volt -->
<g id="node1" class="node">
<title>volt</title>
<path fill="white" stroke="black" d="M351.5,-59C351.5,-59 321.5,-59 321.5,-59 315.5,-59 309.5,-53 309.5,-47 309.5,-47 309.5,-35 309.5,-35 309.5,-29 315.5,-23 321.5,-23 321.5,-23 351.5,-23 351.5,-23 357.5,-23 363.5,-29 363.5,-35 363.5,-35 363.5,-47 363.5,-47 363.5,-53 357.5,-59 351.5,-59"/>
<text text-anchor="middle" x="336.5" y="-37.3" font-family="Helvetica,sans-Serif" font-size="14.00">volt</text>
</g>
<!-- rotate -->
<g id="node2" class="node">
<title>rotate</title>
<path fill="white" stroke="black" d="M138,-59C138,-59 105,-59 105,-59 99,-59 93,-53 93,-47 93,-47 93,-35 93,-35 93,-29 99,-23 105,-23 105,-23 138,-23 138,-23 144,-23 150,-29 150,-35 150,-35 150,-47 150,-47 150,-53 144,-59 138,-59"/>
<text text-anchor="middle" x="121.5" y="-37.3" font-family="Helvetica,sans-Serif" font-size="14.00">rotate</text>
</g>
<!-- rotate&#45;&gt;volt -->
<g id="edge1" class="edge">
<title>rotate&#45;&gt;volt</title>
<path fill="none" stroke="black" stroke-width="1.2" d="M150.25,-42.86C164.13,-43.69 181.2,-44.59 196.5,-45 230.71,-45.92 239.3,-46.1 273.5,-45 281.85,-44.73 290.83,-44.26 299.29,-43.73"/>
<polygon fill="black" stroke="black" stroke-width="1.2" points="299.53,-47.22 309.27,-43.07 299.06,-40.24 299.53,-47.22"/>
</g>
<!-- pressure -->
<g id="node3" class="node">
<title>pressure</title>
<path fill="white" stroke="black" d="M261.5,-36C261.5,-36 208.5,-36 208.5,-36 202.5,-36 196.5,-30 196.5,-24 196.5,-24 196.5,-12 196.5,-12 196.5,-6 202.5,0 208.5,0 208.5,0 261.5,0 261.5,0 267.5,0 273.5,-6 273.5,-12 273.5,-12 273.5,-24 273.5,-24 273.5,-30 267.5,-36 261.5,-36"/>
<text text-anchor="middle" x="235" y="-14.3" font-family="Helvetica,sans-Serif" font-size="14.00">pressure</text>
</g>
<!-- rotate&#45;&gt;pressure -->
<g id="edge3" class="edge">
<title>rotate&#45;&gt;pressure</title>
<path fill="none" stroke="black" stroke-width="1.2" d="M150.06,-35.31C160.94,-33.07 173.77,-30.42 186.08,-27.89"/>
<polygon fill="black" stroke="black" stroke-width="1.2" points="187.15,-31.24 196.24,-25.79 185.74,-24.38 187.15,-31.24"/>
</g>
<!-- pressure&#45;&gt;volt -->
<g id="edge2" class="edge">
<title>pressure&#45;&gt;volt</title>
<path fill="none" stroke="black" stroke-width="1.2" d="M273.62,-26.7C282.07,-28.65 291.02,-30.72 299.4,-32.66"/>
<polygon fill="black" stroke="black" stroke-width="1.2" points="298.75,-36.1 309.28,-34.94 300.33,-29.28 298.75,-36.1"/>
</g>
<!-- vibration -->
<g id="node4" class="node">
<title>vibration</title>
<path fill="white" stroke="black" d="M148.5,-113C148.5,-113 94.5,-113 94.5,-113 88.5,-113 82.5,-107 82.5,-101 82.5,-101 82.5,-89 82.5,-89 82.5,-83 88.5,-77 94.5,-77 94.5,-77 148.5,-77 148.5,-77 154.5,-77 160.5,-83 160.5,-89 160.5,-89 160.5,-101 160.5,-101 160.5,-107 154.5,-113 148.5,-113"/>
<text text-anchor="middle" x="121.5" y="-91.3" font-family="Helvetica,sans-Serif" font-size="14.00">vibration</text>
</g>
</g>
</svg>
