<?xml version="1.0" encoding="UTF-8" standalone="no"?>
<!DOCTYPE svg PUBLIC "-//W3C//DTD SVG 1.1//EN"
 "http://www.w3.org/Graphics/SVG/1.1/DTD/svg11.dtd">
<!-- Generated by graphviz version 2.50.0 (0)
 -->
<!-- Title: G Pages: 1 -->
<svg width="1168pt" height="476pt"
 viewBox="0.00 0.00 1168.00 476.24" xmlns="http://www.w3.org/2000/svg" xmlns:xlink="http://www.w3.org/1999/xlink">
<g id="graph0" class="graph" transform="scale(1 1) rotate(0) translate(4 472.24)">
<title>G</title>
<polygon fill="white" stroke="transparent" points="-4,4 -4,-472.24 1164,-472.24 1164,4 -4,4"/>
<text text-anchor="middle" x="580" y="-451.44" font-family="Times,serif" font-size="16.00">model=model3/cbnb_w_mixed.json [machine 6]</text>
<!-- volt -->
<g id="node1" class="node">
<title>volt</title>
<path fill="white" stroke="black" d="M42,-342.24C42,-342.24 12,-342.24 12,-342.24 6,-342.24 0,-336.24 0,-330.24 0,-330.24 0,-318.24 0,-318.24 0,-312.24 6,-306.24 12,-306.24 12,-306.24 42,-306.24 42,-306.24 48,-306.24 54,-312.24 54,-318.24 54,-318.24 54,-330.24 54,-330.24 54,-336.24 48,-342.24 42,-342.24"/>
<text text-anchor="middle" x="27" y="-320.54" font-family="Helvetica,sans-Serif" font-size="14.00">volt</text>
</g>
<!-- vibration -->
<g id="node4" class="node">
<title>vibration</title>
<path fill="white" stroke="black" d="M156,-277.24C156,-277.24 102,-277.24 102,-277.24 96,-277.24 90,-271.24 90,-265.24 90,-265.24 90,-253.24 90,-253.24 90,-247.24 96,-241.24 102,-241.24 102,-241.24 156,-241.24 156,-241.24 162,-241.24 168,-247.24 168,-253.24 168,-253.24 168,-265.24 168,-265.24 168,-271.24 162,-277.24 156,-277.24"/>
<text text-anchor="middle" x="129" y="-255.54" font-family="Helvetica,sans-Serif" font-size="14.00">vibration</text>
</g>
<!-- volt&#45;&gt;vibration -->
<g id="edge2" class="edge">
<title>volt&#45;&gt;vibration</title>
<path fill="none" stroke="black" stroke-width="1.2" d="M62.62,-301.74C71.98,-295.66 82.13,-289.06 91.57,-282.92"/>
<polygon fill="black" stroke="black" stroke-width="1.2" points="60.49,-298.95 54.01,-307.33 64.3,-304.82 60.49,-298.95"/>
<polygon fill="black" stroke="black" stroke-width="1.2" points="93.54,-285.82 100.01,-277.43 89.72,-279.95 93.54,-285.82"/>
</g>
<!-- rotate -->
<g id="node2" class="node">
<title>rotate</title>
<path fill="white" stroke="black" d="M906,-210.24C906,-210.24 873,-210.24 873,-210.24 867,-210.24 861,-204.24 861,-198.24 861,-198.24 861,-186.24 861,-186.24 861,-180.24 867,-174.24 873,-174.24 873,-174.24 906,-174.24 906,-174.24 912,-174.24 918,-180.24 918,-186.24 918,-186.24 918,-198.24 918,-198.24 918,-204.24 912,-210.24 906,-210.24"/>
<text text-anchor="middle" x="889.5" y="-188.54" font-family="Helvetica,sans-Serif" font-size="14.00">rotate</text>
</g>
<!-- pressure -->
<g id="node3" class="node">
<title>pressure</title>
<path fill="white" stroke="black" d="M1023,-346.24C1023,-346.24 970,-346.24 970,-346.24 964,-346.24 958,-340.24 958,-334.24 958,-334.24 958,-322.24 958,-322.24 958,-316.24 964,-310.24 970,-310.24 970,-310.24 1023,-310.24 1023,-310.24 1029,-310.24 1035,-316.24 1035,-322.24 1035,-322.24 1035,-334.24 1035,-334.24 1035,-340.24 1029,-346.24 1023,-346.24"/>
<text text-anchor="middle" x="996.5" y="-324.54" font-family="Helvetica,sans-Serif" font-size="14.00">pressure</text>
</g>
<!-- rotate&#45;&gt;pressure -->
<g id="edge5" class="edge">
<title>rotate&#45;&gt;pressure</title>
<path fill="none" stroke="black" stroke-width="1.2" d="M910.78,-218.5C929.37,-242.59 956.77,-278.07 975.33,-302.12"/>
<polygon fill="black" stroke="black" stroke-width="1.2" points="913.32,-216.08 904.44,-210.3 907.78,-220.36 913.32,-216.08"/>
<polygon fill="black" stroke="black" stroke-width="1.2" points="972.62,-304.33 981.5,-310.11 978.16,-300.05 972.62,-304.33"/>
</g>
<!-- rotate&#45;&gt;vibration -->
<g id="edge6" class="edge">
<title>rotate&#45;&gt;vibration</title>
<path fill="none" stroke="black" stroke-width="1.2" d="M860.83,-177.55C799.37,-146.34 646.1,-76.24 509,-76.24 373,-76.24 373,-76.24 373,-76.24 293.87,-76.24 265.45,-82.39 204,-132.24 171.74,-158.42 150.58,-202.66 139.45,-231.41"/>
<polygon fill="black" stroke="black" stroke-width="1.2" points="136.14,-230.28 135.93,-240.88 142.7,-232.72 136.14,-230.28"/>
</g>
<!-- err_error1 -->
<g id="node5" class="node">
<title>err_error1</title>
<path fill="white" stroke="black" d="M1027,-102.24C1027,-102.24 966,-102.24 966,-102.24 960,-102.24 954,-96.24 954,-90.24 954,-90.24 954,-78.24 954,-78.24 954,-72.24 960,-66.24 966,-66.24 966,-66.24 1027,-66.24 1027,-66.24 1033,-66.24 1039,-72.24 1039,-78.24 1039,-78.24 1039,-90.24 1039,-90.24 1039,-96.24 1033,-102.24 1027,-102.24"/>
<text text-anchor="middle" x="996.5" y="-80.54" font-family="Helvetica,sans-Serif" font-size="14.00">err_error1</text>
</g>
<!-- rotate&#45;&gt;err_error1 -->
<g id="edge7" class="edge">
<title>rotate&#45;&gt;err_error1</title>
<path fill="none" stroke="black" stroke-width="1.2" d="M907.84,-165.81C919.63,-149.02 936.27,-127.48 954,-111.24 954.96,-110.36 955.96,-109.49 956.98,-108.63"/>
<polygon fill="black" stroke="black" stroke-width="1.2" points="904.92,-163.88 902.14,-174.1 910.69,-167.85 904.92,-163.88"/>
<polygon fill="black" stroke="black" stroke-width="1.2" points="959.39,-111.18 965.16,-102.29 955.11,-105.65 959.39,-111.18"/>
</g>
<!-- err_error2 -->
<g id="node6" class="node">
<title>err_error2</title>
<path fill="white" stroke="black" d="M1148,-156.24C1148,-156.24 1087,-156.24 1087,-156.24 1081,-156.24 1075,-150.24 1075,-144.24 1075,-144.24 1075,-132.24 1075,-132.24 1075,-126.24 1081,-120.24 1087,-120.24 1087,-120.24 1148,-120.24 1148,-120.24 1154,-120.24 1160,-126.24 1160,-132.24 1160,-132.24 1160,-144.24 1160,-144.24 1160,-150.24 1154,-156.24 1148,-156.24"/>
<text text-anchor="middle" x="1117.5" y="-134.54" font-family="Helvetica,sans-Serif" font-size="14.00">err_error2</text>
</g>
<!-- rotate&#45;&gt;err_error2 -->
<g id="edge8" class="edge">
<title>rotate&#45;&gt;err_error2</title>
<path fill="none" stroke="black" stroke-width="1.2" d="M918.1,-206.37C948.74,-220 999.12,-236.28 1039,-219.24 1064.76,-208.24 1086.06,-183.99 1099.76,-164.88"/>
<polygon fill="black" stroke="black" stroke-width="1.2" points="1102.73,-166.75 1105.52,-156.53 1096.96,-162.78 1102.73,-166.75"/>
</g>
<!-- err_error3 -->
<g id="node7" class="node">
<title>err_error3</title>
<path fill="white" stroke="black" d="M1027,-210.24C1027,-210.24 966,-210.24 966,-210.24 960,-210.24 954,-204.24 954,-198.24 954,-198.24 954,-186.24 954,-186.24 954,-180.24 960,-174.24 966,-174.24 966,-174.24 1027,-174.24 1027,-174.24 1033,-174.24 1039,-180.24 1039,-186.24 1039,-186.24 1039,-198.24 1039,-198.24 1039,-204.24 1033,-210.24 1027,-210.24"/>
<text text-anchor="middle" x="996.5" y="-188.54" font-family="Helvetica,sans-Serif" font-size="14.00">err_error3</text>
</g>
<!-- rotate&#45;&gt;err_error3 -->
<g id="edge9" class="edge">
<title>rotate&#45;&gt;err_error3</title>
<path fill="none" stroke="black" stroke-width="1.2" d="M928.25,-192.24C933.32,-192.24 938.58,-192.24 943.83,-192.24"/>
<polygon fill="black" stroke="black" stroke-width="1.2" points="928.09,-188.74 918.09,-192.24 928.09,-195.74 928.09,-188.74"/>
<polygon fill="black" stroke="black" stroke-width="1.2" points="943.86,-195.74 953.86,-192.24 943.86,-188.74 943.86,-195.74"/>
</g>
<!-- err_error5 -->
<g id="node9" class="node">
<title>err_error5</title>
<path fill="white" stroke="black" d="M1027,-156.24C1027,-156.24 966,-156.24 966,-156.24 960,-156.24 954,-150.24 954,-144.24 954,-144.24 954,-132.24 954,-132.24 954,-126.24 960,-120.24 966,-120.24 966,-120.24 1027,-120.24 1027,-120.24 1033,-120.24 1039,-126.24 1039,-132.24 1039,-132.24 1039,-144.24 1039,-144.24 1039,-150.24 1033,-156.24 1027,-156.24"/>
<text text-anchor="middle" x="996.5" y="-134.54" font-family="Helvetica,sans-Serif" font-size="14.00">err_error5</text>
</g>
<!-- rotate&#45;&gt;err_error5 -->
<g id="edge10" class="edge">
<title>rotate&#45;&gt;err_error5</title>
<path fill="none" stroke="black" stroke-width="1.2" d="M918.09,-178.05C928.15,-172.88 939.8,-166.89 950.97,-161.15"/>
<polygon fill="black" stroke="black" stroke-width="1.2" points="952.89,-164.09 960.18,-156.41 949.69,-157.87 952.89,-164.09"/>
</g>
<!-- mnt_comp3 -->
<g id="node12" class="node">
<title>mnt_comp3</title>
<path fill="white" stroke="black" d="M545,-208.24C545,-208.24 471,-208.24 471,-208.24 465,-208.24 459,-202.24 459,-196.24 459,-196.24 459,-184.24 459,-184.24 459,-178.24 465,-172.24 471,-172.24 471,-172.24 545,-172.24 545,-172.24 551,-172.24 557,-178.24 557,-184.24 557,-184.24 557,-196.24 557,-196.24 557,-202.24 551,-208.24 545,-208.24"/>
<text text-anchor="middle" x="508" y="-186.54" font-family="Helvetica,sans-Serif" font-size="14.00">mnt_comp3</text>
</g>
<!-- rotate&#45;&gt;mnt_comp3 -->
<g id="edge12" class="edge">
<title>rotate&#45;&gt;mnt_comp3</title>
<path fill="none" stroke="black" stroke-width="1.2" d="M860.87,-185.32C849.79,-182.88 836.87,-180.44 825,-179.24 735.37,-170.16 630.79,-177.24 567.27,-183.5"/>
<polygon fill="black" stroke="black" stroke-width="1.2" points="566.64,-180.04 557.05,-184.53 567.35,-187.01 566.64,-180.04"/>
</g>
<!-- pressure&#45;&gt;volt -->
<g id="edge1" class="edge">
<title>pressure&#45;&gt;volt</title>
<path fill="none" stroke="black" stroke-width="1.2" d="M978.2,-346.38C963.39,-361.01 940.89,-381.23 918,-394.24 860.45,-426.95 843.2,-442.24 777,-442.24 245.5,-442.24 245.5,-442.24 245.5,-442.24 168.29,-442.24 92.3,-384.09 53.86,-349.43"/>
<polygon fill="black" stroke="black" stroke-width="1.2" points="55.97,-346.62 46.24,-342.42 51.23,-351.77 55.97,-346.62"/>
</g>
<!-- pressure&#45;&gt;vibration -->
<g id="edge14" class="edge">
<title>pressure&#45;&gt;vibration</title>
<path fill="none" stroke="black" stroke-width="1.2" d="M964.83,-346.25C923.58,-368.73 847.29,-404.24 777,-404.24 373,-404.24 373,-404.24 373,-404.24 280.73,-404.24 193.06,-326.2 152.9,-284.62"/>
<polygon fill="black" stroke="black" stroke-width="1.2" points="155.38,-282.16 145.96,-277.31 150.31,-286.98 155.38,-282.16"/>
</g>
<!-- pressure&#45;&gt;err_error2 -->
<g id="edge15" class="edge">
<title>pressure&#45;&gt;err_error2</title>
<path fill="none" stroke="black" stroke-width="1.2" d="M1008.91,-310.02C1029.97,-276.4 1075.03,-204.46 1099.63,-165.18"/>
<polygon fill="black" stroke="black" stroke-width="1.2" points="1102.78,-166.74 1105.12,-156.4 1096.85,-163.02 1102.78,-166.74"/>
</g>
<!-- err_error4 -->
<g id="node8" class="node">
<title>err_error4</title>
<path fill="white" stroke="black" d="M277,-300.24C277,-300.24 216,-300.24 216,-300.24 210,-300.24 204,-294.24 204,-288.24 204,-288.24 204,-276.24 204,-276.24 204,-270.24 210,-264.24 216,-264.24 216,-264.24 277,-264.24 277,-264.24 283,-264.24 289,-270.24 289,-276.24 289,-276.24 289,-288.24 289,-288.24 289,-294.24 283,-300.24 277,-300.24"/>
<text text-anchor="middle" x="246.5" y="-278.54" font-family="Helvetica,sans-Serif" font-size="14.00">err_error4</text>
</g>
<!-- pressure&#45;&gt;err_error4 -->
<g id="edge16" class="edge">
<title>pressure&#45;&gt;err_error4</title>
<path fill="none" stroke="black" stroke-width="1.2" d="M957.95,-338.83C914.69,-350.07 841.3,-366.24 777,-366.24 507,-366.24 507,-366.24 507,-366.24 424.37,-366.24 402.02,-358.18 325,-328.24 310.07,-322.44 294.69,-313.92 281.6,-305.79"/>
<polygon fill="black" stroke="black" stroke-width="1.2" points="283.25,-302.69 272.94,-300.26 279.49,-308.59 283.25,-302.69"/>
</g>
<!-- vibration&#45;&gt;err_error2 -->
<g id="edge19" class="edge">
<title>vibration&#45;&gt;err_error2</title>
<path fill="none" stroke="black" stroke-width="1.2" d="M133.67,-231.12C140.37,-191.46 158.38,-119.55 204,-80.24 262.63,-29.72 295.6,-38.24 373,-38.24 373,-38.24 373,-38.24 890.5,-38.24 957.04,-38.24 979.6,-27.26 1039,-57.24 1063.71,-69.71 1084.88,-93.33 1098.82,-111.85"/>
<polygon fill="black" stroke="black" stroke-width="1.2" points="130.19,-230.74 132.1,-241.17 137.1,-231.83 130.19,-230.74"/>
<polygon fill="black" stroke="black" stroke-width="1.2" points="1096,-113.92 1104.71,-119.95 1101.66,-109.8 1096,-113.92"/>
</g>
<!-- vibration&#45;&gt;err_error4 -->
<g id="edge20" class="edge">
<title>vibration&#45;&gt;err_error4</title>
<path fill="none" stroke="black" stroke-width="1.2" d="M168.14,-266.84C176.36,-268.47 185.18,-270.23 193.81,-271.95"/>
<polygon fill="black" stroke="black" stroke-width="1.2" points="193.33,-275.42 203.82,-273.94 194.69,-268.56 193.33,-275.42"/>
</g>
<!-- mnt_comp1 -->
<g id="node10" class="node">
<title>mnt_comp1</title>
<path fill="white" stroke="black" d="M411,-319.24C411,-319.24 337,-319.24 337,-319.24 331,-319.24 325,-313.24 325,-307.24 325,-307.24 325,-295.24 325,-295.24 325,-289.24 331,-283.24 337,-283.24 337,-283.24 411,-283.24 411,-283.24 417,-283.24 423,-289.24 423,-295.24 423,-295.24 423,-307.24 423,-307.24 423,-313.24 417,-319.24 411,-319.24"/>
<text text-anchor="middle" x="374" y="-297.54" font-family="Helvetica,sans-Serif" font-size="14.00">mnt_comp1</text>
</g>
<!-- vibration&#45;&gt;mnt_comp1 -->
<g id="edge21" class="edge">
<title>vibration&#45;&gt;mnt_comp1</title>
<path fill="none" stroke="black" stroke-width="1.2" d="M149.63,-277.33C163.64,-288.94 183.54,-302.98 204,-309.24 239.76,-320.19 281.76,-318.27 314.94,-313.57"/>
<polygon fill="black" stroke="black" stroke-width="1.2" points="315.58,-317.01 324.94,-312.04 314.52,-310.09 315.58,-317.01"/>
</g>
<!-- mnt_comp2 -->
<g id="node11" class="node">
<title>mnt_comp2</title>
<path fill="white" stroke="black" d="M679,-292.24C679,-292.24 605,-292.24 605,-292.24 599,-292.24 593,-286.24 593,-280.24 593,-280.24 593,-268.24 593,-268.24 593,-262.24 599,-256.24 605,-256.24 605,-256.24 679,-256.24 679,-256.24 685,-256.24 691,-262.24 691,-268.24 691,-268.24 691,-280.24 691,-280.24 691,-286.24 685,-292.24 679,-292.24"/>
<text text-anchor="middle" x="642" y="-270.54" font-family="Helvetica,sans-Serif" font-size="14.00">mnt_comp2</text>
</g>
<!-- vibration&#45;&gt;mnt_comp2 -->
<g id="edge22" class="edge">
<title>vibration&#45;&gt;mnt_comp2</title>
<path fill="none" stroke="black" stroke-width="1.2" d="M178.27,-256.26C186.84,-255.83 195.68,-255.47 204,-255.24 339.73,-251.58 499.02,-262.3 582.77,-269.1"/>
<polygon fill="black" stroke="black" stroke-width="1.2" points="177.81,-252.77 168.01,-256.79 178.18,-259.77 177.81,-252.77"/>
<polygon fill="black" stroke="black" stroke-width="1.2" points="582.59,-272.6 592.84,-269.93 583.16,-265.62 582.59,-272.6"/>
</g>
<!-- err_error1&#45;&gt;mnt_comp3 -->
<g id="edge24" class="edge">
<title>err_error1&#45;&gt;mnt_comp3</title>
<path fill="none" stroke="black" stroke-width="1.2" d="M953.91,-93.3C867.18,-112.2 666.86,-155.85 567.32,-177.54"/>
<polygon fill="black" stroke="black" stroke-width="1.2" points="566.45,-174.14 557.43,-179.69 567.94,-180.98 566.45,-174.14"/>
</g>
<!-- err_error2&#45;&gt;volt -->
<g id="edge3" class="edge">
<title>err_error2&#45;&gt;volt</title>
<path fill="none" stroke="black" stroke-width="1.2" d="M1108.12,-119.85C1096.25,-95.99 1072.23,-54.87 1039,-33.24 982.33,3.63 958.11,-0.24 890.5,-0.24 245.5,-0.24 245.5,-0.24 245.5,-0.24 103.8,-0.24 48.45,-216.53 32.95,-295.67"/>
<polygon fill="black" stroke="black" stroke-width="1.2" points="29.43,-295.42 31.02,-305.89 36.31,-296.72 29.43,-295.42"/>
</g>
<!-- err_error4&#45;&gt;mnt_comp1 -->
<g id="edge25" class="edge">
<title>err_error4&#45;&gt;mnt_comp1</title>
<path fill="none" stroke="black" stroke-width="1.2" d="M289.29,-288.57C297.49,-289.81 306.23,-291.13 314.85,-292.44"/>
<polygon fill="black" stroke="black" stroke-width="1.2" points="314.47,-295.92 324.88,-293.96 315.52,-289 314.47,-295.92"/>
</g>
<!-- err_error4&#45;&gt;mnt_comp3 -->
<g id="edge26" class="edge">
<title>err_error4&#45;&gt;mnt_comp3</title>
<path fill="none" stroke="black" stroke-width="1.2" d="M289.19,-267.46C332.58,-252.08 400.83,-227.88 449.36,-210.68"/>
<polygon fill="black" stroke="black" stroke-width="1.2" points="450.54,-213.97 458.79,-207.33 448.2,-207.38 450.54,-213.97"/>
</g>
<!-- mnt_comp1&#45;&gt;volt -->
<g id="edge4" class="edge">
<title>mnt_comp1&#45;&gt;volt</title>
<path fill="none" stroke="black" stroke-width="1.2" d="M324.72,-318.89C313.17,-322.35 300.77,-325.46 289,-327.24 209.52,-339.26 114.88,-333.18 64.24,-328.32"/>
<polygon fill="black" stroke="black" stroke-width="1.2" points="64.42,-324.82 54.12,-327.3 63.72,-331.78 64.42,-324.82"/>
</g>
<!-- mnt_comp1&#45;&gt;pressure -->
<g id="edge17" class="edge">
<title>mnt_comp1&#45;&gt;pressure</title>
<path fill="none" stroke="black" stroke-width="1.2" d="M423.39,-309.12C476.58,-317.09 564.64,-328.24 641,-328.24 641,-328.24 641,-328.24 777,-328.24 835.82,-328.24 903.56,-328.24 947.82,-328.24"/>
<polygon fill="black" stroke="black" stroke-width="1.2" points="948,-331.74 958,-328.24 948,-324.74 948,-331.74"/>
</g>
<!-- mnt_comp1&#45;&gt;mnt_comp2 -->
<g id="edge27" class="edge">
<title>mnt_comp1&#45;&gt;mnt_comp2</title>
<path fill="none" stroke="black" stroke-width="1.2" d="M423.17,-296.35C467.94,-291.81 534.73,-285.03 582.54,-280.18"/>
<polygon fill="black" stroke="black" stroke-width="1.2" points="583.14,-283.63 592.74,-279.14 582.44,-276.67 583.14,-283.63"/>
</g>
<!-- mnt_comp1&#45;&gt;mnt_comp3 -->
<g id="edge28" class="edge">
<title>mnt_comp1&#45;&gt;mnt_comp3</title>
<path fill="none" stroke="black" stroke-width="1.2" d="M396.5,-283.16C418.56,-264.62 453.02,-235.64 477.59,-214.98"/>
<polygon fill="black" stroke="black" stroke-width="1.2" points="480.11,-217.43 485.51,-208.32 475.6,-212.07 480.11,-217.43"/>
</g>
<!-- mnt_comp2&#45;&gt;rotate -->
<g id="edge11" class="edge">
<title>mnt_comp2&#45;&gt;rotate</title>
<path fill="none" stroke="black" stroke-width="1.2" d="M691.17,-268.12C728.7,-262.23 781.55,-251.48 825,-233.24 835.75,-228.73 846.68,-222.42 856.37,-216.09"/>
<polygon fill="black" stroke="black" stroke-width="1.2" points="858.57,-218.83 864.89,-210.33 854.65,-213.03 858.57,-218.83"/>
</g>
<!-- mnt_comp2&#45;&gt;pressure -->
<g id="edge18" class="edge">
<title>mnt_comp2&#45;&gt;pressure</title>
<path fill="none" stroke="black" stroke-width="1.2" d="M691.26,-280.75C746.24,-288.29 838.72,-301.32 918,-314.24 927.61,-315.81 937.88,-317.59 947.69,-319.34"/>
<polygon fill="black" stroke="black" stroke-width="1.2" points="947.24,-322.82 957.7,-321.15 948.48,-315.93 947.24,-322.82"/>
</g>
<!-- mnt_comp4 -->
<g id="node13" class="node">
<title>mnt_comp4</title>
<path fill="white" stroke="black" d="M813,-224.24C813,-224.24 739,-224.24 739,-224.24 733,-224.24 727,-218.24 727,-212.24 727,-212.24 727,-200.24 727,-200.24 727,-194.24 733,-188.24 739,-188.24 739,-188.24 813,-188.24 813,-188.24 819,-188.24 825,-194.24 825,-200.24 825,-200.24 825,-212.24 825,-212.24 825,-218.24 819,-224.24 813,-224.24"/>
<text text-anchor="middle" x="776" y="-202.54" font-family="Helvetica,sans-Serif" font-size="14.00">mnt_comp4</text>
</g>
<!-- mnt_comp2&#45;&gt;mnt_comp4 -->
<g id="edge30" class="edge">
<title>mnt_comp2&#45;&gt;mnt_comp4</title>
<path fill="none" stroke="black" stroke-width="1.2" d="M678.03,-256.2C694.14,-247.9 713.43,-237.96 730.56,-229.14"/>
<polygon fill="black" stroke="black" stroke-width="1.2" points="732.52,-232.06 739.81,-224.37 729.32,-225.84 732.52,-232.06"/>
</g>
<!-- mnt_comp3&#45;&gt;mnt_comp2 -->
<g id="edge29" class="edge">
<title>mnt_comp3&#45;&gt;mnt_comp2</title>
<path fill="none" stroke="black" stroke-width="1.2" d="M537.32,-208.26C556.67,-220.58 582.53,-237.03 603.58,-250.43"/>
<polygon fill="black" stroke="black" stroke-width="1.2" points="601.96,-253.55 612.27,-255.96 605.72,-247.64 601.96,-253.55"/>
</g>
<!-- mnt_comp3&#45;&gt;mnt_comp4 -->
<g id="edge31" class="edge">
<title>mnt_comp3&#45;&gt;mnt_comp4</title>
<path fill="none" stroke="black" stroke-width="1.2" d="M557.25,-199.59C568.91,-201.49 581.37,-203.21 593,-204.24 634.11,-207.87 680.65,-208.32 716.37,-207.89"/>
<polygon fill="black" stroke="black" stroke-width="1.2" points="716.67,-211.38 726.62,-207.73 716.57,-204.38 716.67,-211.38"/>
</g>
<!-- mnt_comp4&#45;&gt;rotate -->
<g id="edge13" class="edge">
<title>mnt_comp4&#45;&gt;rotate</title>
<path fill="none" stroke="black" stroke-width="1.2" d="M825.26,-200.18C833.78,-199.11 842.54,-198.01 850.73,-196.98"/>
<polygon fill="black" stroke="black" stroke-width="1.2" points="851.24,-200.45 860.72,-195.73 850.37,-193.5 851.24,-200.45"/>
</g>
<!-- mnt_comp4&#45;&gt;vibration -->
<g id="edge23" class="edge">
<title>mnt_comp4&#45;&gt;vibration</title>
<path fill="none" stroke="black" stroke-width="1.2" d="M744.26,-188.07C695.93,-161.25 598.42,-114.24 509,-114.24 373,-114.24 373,-114.24 373,-114.24 280.73,-114.24 193.06,-192.28 152.9,-233.86"/>
<polygon fill="black" stroke="black" stroke-width="1.2" points="150.31,-231.51 145.96,-241.17 155.38,-236.32 150.31,-231.51"/>
</g>
</g>
</svg>
