<?xml version="1.0" encoding="UTF-8" standalone="no"?>
<!DOCTYPE svg PUBLIC "-//W3C//DTD SVG 1.1//EN"
 "http://www.w3.org/Graphics/SVG/1.1/DTD/svg11.dtd">
<!-- Generated by graphviz version 2.50.0 (0)
 -->
<!-- Title: G Pages: 1 -->
<svg width="1355pt" height="772pt"
 viewBox="0.00 0.00 1355.00 772.00" xmlns="http://www.w3.org/2000/svg" xmlns:xlink="http://www.w3.org/1999/xlink">
<g id="graph0" class="graph" transform="scale(1 1) rotate(0) translate(4 768)">
<title>G</title>
<polygon fill="white" stroke="transparent" points="-4,4 -4,-768 1351,-768 1351,4 -4,4"/>
<text text-anchor="middle" x="673.5" y="-747.2" font-family="Times,serif" font-size="16.00">model=model2/cbnb_w_mixed.json [machine 21]</text>
<!-- volt -->
<g id="node1" class="node">
<title>volt</title>
<path fill="white" stroke="black" d="M448,-308C448,-308 418,-308 418,-308 412,-308 406,-302 406,-296 406,-296 406,-284 406,-284 406,-278 412,-272 418,-272 418,-272 448,-272 448,-272 454,-272 460,-278 460,-284 460,-284 460,-296 460,-296 460,-302 454,-308 448,-308"/>
<text text-anchor="middle" x="433" y="-286.3" font-family="Helvetica,sans-Serif" font-size="14.00">volt</text>
</g>
<!-- rotate -->
<g id="node2" class="node">
<title>rotate</title>
<path fill="white" stroke="black" d="M563,-474C563,-474 530,-474 530,-474 524,-474 518,-468 518,-462 518,-462 518,-450 518,-450 518,-444 524,-438 530,-438 530,-438 563,-438 563,-438 569,-438 575,-444 575,-450 575,-450 575,-462 575,-462 575,-468 569,-474 563,-474"/>
<text text-anchor="middle" x="546.5" y="-452.3" font-family="Helvetica,sans-Serif" font-size="14.00">rotate</text>
</g>
<!-- volt&#45;&gt;rotate -->
<g id="edge1" class="edge">
<title>volt&#45;&gt;rotate</title>
<path fill="none" stroke="black" stroke-width="1.2" d="M460.03,-300.8C467.83,-304.99 475.92,-310.38 482,-317 511.56,-349.15 529.36,-397.41 538.3,-427.79"/>
<polygon fill="black" stroke="black" stroke-width="1.2" points="535.02,-429.05 541.1,-437.73 541.76,-427.15 535.02,-429.05"/>
</g>
<!-- pressure -->
<g id="node3" class="node">
<title>pressure</title>
<path fill="white" stroke="black" d="M935,-276C935,-276 882,-276 882,-276 876,-276 870,-270 870,-264 870,-264 870,-252 870,-252 870,-246 876,-240 882,-240 882,-240 935,-240 935,-240 941,-240 947,-246 947,-252 947,-252 947,-264 947,-264 947,-270 941,-276 935,-276"/>
<text text-anchor="middle" x="908.5" y="-254.3" font-family="Helvetica,sans-Serif" font-size="14.00">pressure</text>
</g>
<!-- volt&#45;&gt;pressure -->
<g id="edge2" class="edge">
<title>volt&#45;&gt;pressure</title>
<path fill="none" stroke="black" stroke-width="1.2" d="M460.13,-288.23C536.62,-283.06 760.87,-267.91 859.74,-261.23"/>
<polygon fill="black" stroke="black" stroke-width="1.2" points="860.02,-264.72 869.76,-260.55 859.54,-257.73 860.02,-264.72"/>
</g>
<!-- err_error5 -->
<g id="node9" class="node">
<title>err_error5</title>
<path fill="white" stroke="black" d="M690.5,-672C690.5,-672 629.5,-672 629.5,-672 623.5,-672 617.5,-666 617.5,-660 617.5,-660 617.5,-648 617.5,-648 617.5,-642 623.5,-636 629.5,-636 629.5,-636 690.5,-636 690.5,-636 696.5,-636 702.5,-642 702.5,-648 702.5,-648 702.5,-660 702.5,-660 702.5,-666 696.5,-672 690.5,-672"/>
<text text-anchor="middle" x="660" y="-650.3" font-family="Helvetica,sans-Serif" font-size="14.00">err_error5</text>
</g>
<!-- volt&#45;&gt;err_error5 -->
<g id="edge4" class="edge">
<title>volt&#45;&gt;err_error5</title>
<path fill="none" stroke="black" stroke-width="1.2" d="M468.82,-304.78C473.83,-308.17 478.47,-312.22 482,-317 526.84,-377.73 477.32,-419.4 518,-483 535.1,-509.73 556.01,-500.58 575,-526 602.27,-562.51 582.67,-586.3 611,-622 613.05,-624.59 615.38,-627.04 617.86,-629.35"/>
<polygon fill="black" stroke="black" stroke-width="1.2" points="470.56,-301.74 460.17,-299.67 467.01,-307.77 470.56,-301.74"/>
<polygon fill="black" stroke="black" stroke-width="1.2" points="615.78,-632.17 625.72,-635.84 620.24,-626.77 615.78,-632.17"/>
</g>
<!-- mnt_comp1 -->
<g id="node10" class="node">
<title>mnt_comp1</title>
<path fill="white" stroke="black" d="M1201,-337C1201,-337 1127,-337 1127,-337 1121,-337 1115,-331 1115,-325 1115,-325 1115,-313 1115,-313 1115,-307 1121,-301 1127,-301 1127,-301 1201,-301 1201,-301 1207,-301 1213,-307 1213,-313 1213,-313 1213,-325 1213,-325 1213,-331 1207,-337 1201,-337"/>
<text text-anchor="middle" x="1164" y="-315.3" font-family="Helvetica,sans-Serif" font-size="14.00">mnt_comp1</text>
</g>
<!-- volt&#45;&gt;mnt_comp1 -->
<g id="edge5" class="edge">
<title>volt&#45;&gt;mnt_comp1</title>
<path fill="none" stroke="black" stroke-width="1.2" d="M460.19,-276.42C467.42,-272.36 475.16,-267.73 482,-263 543.51,-220.49 545.58,-191.21 611,-155 682.75,-115.28 704.49,-98 786.5,-98 786.5,-98 786.5,-98 909.5,-98 1026.44,-98 1115.57,-233.27 1148.82,-292.15"/>
<polygon fill="black" stroke="black" stroke-width="1.2" points="1145.77,-293.86 1153.67,-300.91 1151.89,-290.47 1145.77,-293.86"/>
</g>
<!-- fail_comp1 -->
<g id="node14" class="node">
<title>fail_comp1</title>
<path fill="white" stroke="black" d="M1067,-314C1067,-314 999,-314 999,-314 993,-314 987,-308 987,-302 987,-302 987,-290 987,-290 987,-284 993,-278 999,-278 999,-278 1067,-278 1067,-278 1073,-278 1079,-284 1079,-290 1079,-290 1079,-302 1079,-302 1079,-308 1073,-314 1067,-314"/>
<text text-anchor="middle" x="1033" y="-292.3" font-family="Helvetica,sans-Serif" font-size="14.00">fail_comp1</text>
</g>
<!-- volt&#45;&gt;fail_comp1 -->
<g id="edge6" class="edge">
<title>volt&#45;&gt;fail_comp1</title>
<path fill="none" stroke="black" stroke-width="1.2" d="M460.29,-292.7C502.26,-296.77 586.99,-304 659,-304 659,-304 659,-304 788.5,-304 853.06,-304 927.2,-301.16 976.55,-298.86"/>
<polygon fill="black" stroke="black" stroke-width="1.2" points="976.86,-302.35 986.69,-298.38 976.53,-295.36 976.86,-302.35"/>
</g>
<!-- err_error2 -->
<g id="node6" class="node">
<title>err_error2</title>
<path fill="white" stroke="black" d="M939,-661C939,-661 878,-661 878,-661 872,-661 866,-655 866,-649 866,-649 866,-637 866,-637 866,-631 872,-625 878,-625 878,-625 939,-625 939,-625 945,-625 951,-631 951,-637 951,-637 951,-649 951,-649 951,-655 945,-661 939,-661"/>
<text text-anchor="middle" x="908.5" y="-639.3" font-family="Helvetica,sans-Serif" font-size="14.00">err_error2</text>
</g>
<!-- rotate&#45;&gt;err_error2 -->
<g id="edge9" class="edge">
<title>rotate&#45;&gt;err_error2</title>
<path fill="none" stroke="black" stroke-width="1.2" d="M576.76,-482.93C598.17,-520.24 579.12,-547.11 611,-575 647.02,-606.51 780.63,-627.48 855.61,-637.05"/>
<polygon fill="black" stroke="black" stroke-width="1.2" points="579.54,-480.78 571.17,-474.28 573.66,-484.58 579.54,-480.78"/>
<polygon fill="black" stroke="black" stroke-width="1.2" points="855.43,-640.55 865.78,-638.32 856.3,-633.61 855.43,-640.55"/>
</g>
<!-- err_error3 -->
<g id="node7" class="node">
<title>err_error3</title>
<path fill="white" stroke="black" d="M818,-596C818,-596 757,-596 757,-596 751,-596 745,-590 745,-584 745,-584 745,-572 745,-572 745,-566 751,-560 757,-560 757,-560 818,-560 818,-560 824,-560 830,-566 830,-572 830,-572 830,-584 830,-584 830,-590 824,-596 818,-596"/>
<text text-anchor="middle" x="787.5" y="-574.3" font-family="Helvetica,sans-Serif" font-size="14.00">err_error3</text>
</g>
<!-- rotate&#45;&gt;err_error3 -->
<g id="edge10" class="edge">
<title>rotate&#45;&gt;err_error3</title>
<path fill="none" stroke="black" stroke-width="1.2" d="M570.68,-482.34C572.17,-484.23 573.63,-486.13 575,-488 592.94,-512.47 585.92,-528.92 611,-546 647.39,-570.78 697.47,-577.91 734.82,-579.34"/>
<polygon fill="black" stroke="black" stroke-width="1.2" points="573.05,-479.71 564,-474.22 567.65,-484.16 573.05,-479.71"/>
<polygon fill="black" stroke="black" stroke-width="1.2" points="734.91,-582.85 745,-579.61 735.09,-575.85 734.91,-582.85"/>
</g>
<!-- err_error4 -->
<g id="node8" class="node">
<title>err_error4</title>
<path fill="white" stroke="black" d="M818,-238C818,-238 757,-238 757,-238 751,-238 745,-232 745,-226 745,-226 745,-214 745,-214 745,-208 751,-202 757,-202 757,-202 818,-202 818,-202 824,-202 830,-208 830,-214 830,-214 830,-226 830,-226 830,-232 824,-238 818,-238"/>
<text text-anchor="middle" x="787.5" y="-216.3" font-family="Helvetica,sans-Serif" font-size="14.00">err_error4</text>
</g>
<!-- rotate&#45;&gt;err_error4 -->
<g id="edge11" class="edge">
<title>rotate&#45;&gt;err_error4</title>
<path fill="none" stroke="black" stroke-width="1.2" d="M573.15,-430.67C619.1,-385.29 714.96,-290.64 760.89,-245.29"/>
<polygon fill="black" stroke="black" stroke-width="1.2" points="570.51,-428.36 565.86,-437.87 575.43,-433.34 570.51,-428.36"/>
<polygon fill="black" stroke="black" stroke-width="1.2" points="763.42,-247.71 768.08,-238.19 758.51,-242.72 763.42,-247.71"/>
</g>
<!-- rotate&#45;&gt;err_error5 -->
<g id="edge12" class="edge">
<title>rotate&#45;&gt;err_error5</title>
<path fill="none" stroke="black" stroke-width="1.2" d="M565.59,-474.26C569.1,-478.51 572.47,-483.21 575,-488 603.81,-542.52 575.04,-571.9 611,-622 612.75,-624.44 614.75,-626.75 616.92,-628.92"/>
<polygon fill="black" stroke="black" stroke-width="1.2" points="614.97,-631.86 624.81,-635.79 619.56,-626.58 614.97,-631.86"/>
</g>
<!-- mnt_comp3 -->
<g id="node12" class="node">
<title>mnt_comp3</title>
<path fill="white" stroke="black" d="M697,-200C697,-200 623,-200 623,-200 617,-200 611,-194 611,-188 611,-188 611,-176 611,-176 611,-170 617,-164 623,-164 623,-164 697,-164 697,-164 703,-164 709,-170 709,-176 709,-176 709,-188 709,-188 709,-194 703,-200 697,-200"/>
<text text-anchor="middle" x="660" y="-178.3" font-family="Helvetica,sans-Serif" font-size="14.00">mnt_comp3</text>
</g>
<!-- rotate&#45;&gt;mnt_comp3 -->
<g id="edge15" class="edge">
<title>rotate&#45;&gt;mnt_comp3</title>
<path fill="none" stroke="black" stroke-width="1.2" d="M554.99,-437.6C574.15,-390.51 625.04,-265.44 647.77,-209.6"/>
<polygon fill="black" stroke="black" stroke-width="1.2" points="651.02,-210.9 651.54,-200.32 644.53,-208.27 651.02,-210.9"/>
</g>
<!-- pressure&#45;&gt;rotate -->
<g id="edge8" class="edge">
<title>pressure&#45;&gt;rotate</title>
<path fill="none" stroke="black" stroke-width="1.2" d="M874.62,-276.08C807.35,-313.08 654.42,-397.19 584.11,-435.87"/>
<polygon fill="black" stroke="black" stroke-width="1.2" points="582.23,-432.91 575.15,-440.79 585.6,-439.04 582.23,-432.91"/>
</g>
<!-- pressure&#45;&gt;fail_comp1 -->
<g id="edge21" class="edge">
<title>pressure&#45;&gt;fail_comp1</title>
<path fill="none" stroke="black" stroke-width="1.2" d="M947.25,-269.71C956.74,-272.65 967.1,-275.87 977.23,-279.01"/>
<polygon fill="black" stroke="black" stroke-width="1.2" points="976.25,-282.37 986.84,-281.99 978.32,-275.68 976.25,-282.37"/>
</g>
<!-- vibration -->
<g id="node4" class="node">
<title>vibration</title>
<path fill="white" stroke="black" d="M201,-441C201,-441 147,-441 147,-441 141,-441 135,-435 135,-429 135,-429 135,-417 135,-417 135,-411 141,-405 147,-405 147,-405 201,-405 201,-405 207,-405 213,-411 213,-417 213,-417 213,-429 213,-429 213,-435 207,-441 201,-441"/>
<text text-anchor="middle" x="174" y="-419.3" font-family="Helvetica,sans-Serif" font-size="14.00">vibration</text>
</g>
<!-- vibration&#45;&gt;err_error2 -->
<g id="edge24" class="edge">
<title>vibration&#45;&gt;err_error2</title>
<path fill="none" stroke="black" stroke-width="1.2" d="M181.48,-441.17C204.76,-502.8 290.3,-700 432,-700 432,-700 432,-700 661,-700 729.98,-700 807.08,-678.55 856.39,-661.97"/>
<polygon fill="black" stroke="black" stroke-width="1.2" points="857.54,-665.28 865.87,-658.73 855.27,-658.65 857.54,-665.28"/>
</g>
<!-- vibration&#45;&gt;err_error5 -->
<g id="edge25" class="edge">
<title>vibration&#45;&gt;err_error5</title>
<path fill="none" stroke="black" stroke-width="1.2" d="M222.14,-445.5C314.79,-489.72 519.61,-587.47 612.08,-631.61"/>
<polygon fill="black" stroke="black" stroke-width="1.2" points="223.51,-442.27 212.98,-441.13 220.5,-448.59 223.51,-442.27"/>
<polygon fill="black" stroke="black" stroke-width="1.2" points="610.67,-634.81 621.2,-635.96 613.68,-628.49 610.67,-634.81"/>
</g>
<!-- vibration&#45;&gt;mnt_comp1 -->
<g id="edge26" class="edge">
<title>vibration&#45;&gt;mnt_comp1</title>
<path fill="none" stroke="black" stroke-width="1.2" d="M223.32,-414.93C347.58,-394.43 676.22,-342 786.5,-342 786.5,-342 786.5,-342 909.5,-342 976.68,-342 1053.47,-333.89 1104.76,-327.3"/>
<polygon fill="black" stroke="black" stroke-width="1.2" points="222.63,-411.49 213.33,-416.58 223.77,-418.4 222.63,-411.49"/>
<polygon fill="black" stroke="black" stroke-width="1.2" points="1105.53,-330.73 1114.99,-325.96 1104.62,-323.79 1105.53,-330.73"/>
</g>
<!-- fail_comp4 -->
<g id="node17" class="node">
<title>fail_comp4</title>
<path fill="white" stroke="black" d="M336,-308C336,-308 268,-308 268,-308 262,-308 256,-302 256,-296 256,-296 256,-284 256,-284 256,-278 262,-272 268,-272 268,-272 336,-272 336,-272 342,-272 348,-278 348,-284 348,-284 348,-296 348,-296 348,-302 342,-308 336,-308"/>
<text text-anchor="middle" x="302" y="-286.3" font-family="Helvetica,sans-Serif" font-size="14.00">fail_comp4</text>
</g>
<!-- vibration&#45;&gt;fail_comp4 -->
<g id="edge28" class="edge">
<title>vibration&#45;&gt;fail_comp4</title>
<path fill="none" stroke="black" stroke-width="1.2" d="M190.84,-404.99C206.95,-386.81 232.79,-358.06 256,-334 261.87,-327.92 268.3,-321.5 274.41,-315.49"/>
<polygon fill="black" stroke="black" stroke-width="1.2" points="277.21,-317.66 281.93,-308.17 272.32,-312.64 277.21,-317.66"/>
</g>
<!-- err_error1 -->
<g id="node5" class="node">
<title>err_error1</title>
<path fill="white" stroke="black" d="M463.5,-362C463.5,-362 402.5,-362 402.5,-362 396.5,-362 390.5,-356 390.5,-350 390.5,-350 390.5,-338 390.5,-338 390.5,-332 396.5,-326 402.5,-326 402.5,-326 463.5,-326 463.5,-326 469.5,-326 475.5,-332 475.5,-338 475.5,-338 475.5,-350 475.5,-350 475.5,-356 469.5,-362 463.5,-362"/>
<text text-anchor="middle" x="433" y="-340.3" font-family="Helvetica,sans-Serif" font-size="14.00">err_error1</text>
</g>
<!-- err_error1&#45;&gt;vibration -->
<g id="edge23" class="edge">
<title>err_error1&#45;&gt;vibration</title>
<path fill="none" stroke="black" stroke-width="1.2" d="M390.39,-347.48C354.04,-351.47 300.3,-359.69 256,-376 239.98,-381.9 223.48,-390.87 209.58,-399.39"/>
<polygon fill="black" stroke="black" stroke-width="1.2" points="207.44,-396.6 200.85,-404.89 211.18,-402.52 207.44,-396.6"/>
</g>
<!-- err_error3&#45;&gt;pressure -->
<g id="edge18" class="edge">
<title>err_error3&#45;&gt;pressure</title>
<path fill="none" stroke="black" stroke-width="1.2" d="M795.24,-559.88C815.07,-506.54 873.35,-349.84 897.17,-285.78"/>
<polygon fill="black" stroke="black" stroke-width="1.2" points="900.48,-286.91 900.69,-276.32 893.92,-284.47 900.48,-286.91"/>
</g>
<!-- err_error3&#45;&gt;err_error2 -->
<g id="edge30" class="edge">
<title>err_error3&#45;&gt;err_error2</title>
<path fill="none" stroke="black" stroke-width="1.2" d="M821.65,-596.11C835.19,-603.5 851.01,-612.14 865.35,-619.98"/>
<polygon fill="black" stroke="black" stroke-width="1.2" points="864.08,-623.27 874.53,-624.99 867.43,-617.13 864.08,-623.27"/>
</g>
<!-- err_error4&#45;&gt;volt -->
<g id="edge3" class="edge">
<title>err_error4&#45;&gt;volt</title>
<path fill="none" stroke="black" stroke-width="1.2" d="M744.8,-221.04C691.35,-223.25 596.23,-230.2 518,-252 501.43,-256.62 483.97,-264.05 469.29,-271.13"/>
<polygon fill="black" stroke="black" stroke-width="1.2" points="467.48,-268.12 460.08,-275.69 470.59,-274.39 467.48,-268.12"/>
</g>
<!-- err_error4&#45;&gt;pressure -->
<g id="edge19" class="edge">
<title>err_error4&#45;&gt;pressure</title>
<path fill="none" stroke="black" stroke-width="1.2" d="M830.12,-233.29C839.77,-236.37 850.12,-239.68 860,-242.83"/>
<polygon fill="black" stroke="black" stroke-width="1.2" points="859.09,-246.22 869.68,-245.92 861.22,-239.55 859.09,-246.22"/>
</g>
<!-- err_error5&#45;&gt;err_error2 -->
<g id="edge31" class="edge">
<title>err_error5&#45;&gt;err_error2</title>
<path fill="none" stroke="black" stroke-width="1.2" d="M702.54,-652.15C744.67,-650.27 809.99,-647.35 855.53,-645.32"/>
<polygon fill="black" stroke="black" stroke-width="1.2" points="855.96,-648.8 865.79,-644.86 855.65,-641.81 855.96,-648.8"/>
</g>
<!-- err_error5&#45;&gt;err_error3 -->
<g id="edge32" class="edge">
<title>err_error5&#45;&gt;err_error3</title>
<path fill="none" stroke="black" stroke-width="1.2" d="M690.74,-635.99C707.81,-625.65 729.43,-612.56 747.81,-601.43"/>
<polygon fill="black" stroke="black" stroke-width="1.2" points="749.8,-604.32 756.54,-596.15 746.17,-598.33 749.8,-604.32"/>
</g>
<!-- mnt_comp1&#45;&gt;rotate -->
<g id="edge13" class="edge">
<title>mnt_comp1&#45;&gt;rotate</title>
<path fill="none" stroke="black" stroke-width="1.2" d="M1149.88,-337.07C1115.74,-381.78 1019.13,-494 909.5,-494 786.5,-494 786.5,-494 786.5,-494 714.63,-494 632.09,-477.03 585.24,-465.77"/>
<polygon fill="black" stroke="black" stroke-width="1.2" points="585.78,-462.3 575.24,-463.33 584.12,-469.1 585.78,-462.3"/>
</g>
<!-- mnt_comp1&#45;&gt;pressure -->
<g id="edge20" class="edge">
<title>mnt_comp1&#45;&gt;pressure</title>
<path fill="none" stroke="black" stroke-width="1.2" d="M1139.46,-300.85C1123.37,-289.52 1101.04,-275.84 1079,-269 1039.31,-256.69 991.95,-254.6 957.4,-255.2"/>
<polygon fill="black" stroke="black" stroke-width="1.2" points="957.01,-251.71 947.11,-255.47 957.2,-258.71 957.01,-251.71"/>
</g>
<!-- mnt_comp2 -->
<g id="node11" class="node">
<title>mnt_comp2</title>
<path fill="white" stroke="black" d="M1335,-455C1335,-455 1261,-455 1261,-455 1255,-455 1249,-449 1249,-443 1249,-443 1249,-431 1249,-431 1249,-425 1255,-419 1261,-419 1261,-419 1335,-419 1335,-419 1341,-419 1347,-425 1347,-431 1347,-431 1347,-443 1347,-443 1347,-449 1341,-455 1335,-455"/>
<text text-anchor="middle" x="1298" y="-433.3" font-family="Helvetica,sans-Serif" font-size="14.00">mnt_comp2</text>
</g>
<!-- mnt_comp1&#45;&gt;mnt_comp2 -->
<g id="edge35" class="edge">
<title>mnt_comp1&#45;&gt;mnt_comp2</title>
<path fill="none" stroke="black" stroke-width="1.2" d="M1185.34,-337.18C1207.78,-357.25 1244.06,-389.67 1269.14,-412.09"/>
<polygon fill="black" stroke="black" stroke-width="1.2" points="1267.07,-414.94 1276.86,-418.99 1271.74,-409.72 1267.07,-414.94"/>
</g>
<!-- mnt_comp2&#45;&gt;rotate -->
<g id="edge14" class="edge">
<title>mnt_comp2&#45;&gt;rotate</title>
<path fill="none" stroke="black" stroke-width="1.2" d="M1267.87,-455.09C1220.64,-482.66 1123.57,-532 1034,-532 786.5,-532 786.5,-532 786.5,-532 706.69,-532 685.22,-523.32 611,-494 601.23,-490.14 591.23,-484.87 582.13,-479.49"/>
<polygon fill="black" stroke="black" stroke-width="1.2" points="583.74,-476.36 573.38,-474.11 580.07,-482.33 583.74,-476.36"/>
</g>
<!-- mnt_comp3&#45;&gt;err_error4 -->
<g id="edge33" class="edge">
<title>mnt_comp3&#45;&gt;err_error4</title>
<path fill="none" stroke="black" stroke-width="1.2" d="M709.16,-196.58C717.61,-199.14 726.43,-201.81 734.96,-204.39"/>
<polygon fill="black" stroke="black" stroke-width="1.2" points="734.22,-207.83 744.81,-207.38 736.25,-201.13 734.22,-207.83"/>
</g>
<!-- mnt_comp4 -->
<g id="node13" class="node">
<title>mnt_comp4</title>
<path fill="white" stroke="black" d="M470,-254C470,-254 396,-254 396,-254 390,-254 384,-248 384,-242 384,-242 384,-230 384,-230 384,-224 390,-218 396,-218 396,-218 470,-218 470,-218 476,-218 482,-224 482,-230 482,-230 482,-242 482,-242 482,-248 476,-254 470,-254"/>
<text text-anchor="middle" x="433" y="-232.3" font-family="Helvetica,sans-Serif" font-size="14.00">mnt_comp4</text>
</g>
<!-- fail_comp1&#45;&gt;rotate -->
<g id="edge16" class="edge">
<title>fail_comp1&#45;&gt;rotate</title>
<path fill="none" stroke="black" stroke-width="1.2" d="M986.75,-312.41C924.47,-334.83 808.72,-375.91 709,-408 666.61,-421.64 617.52,-436.04 584.69,-445.46"/>
<polygon fill="black" stroke="black" stroke-width="1.2" points="583.7,-442.1 575.05,-448.22 585.63,-448.83 583.7,-442.1"/>
</g>
<!-- fail_comp1&#45;&gt;mnt_comp1 -->
<g id="edge36" class="edge">
<title>fail_comp1&#45;&gt;mnt_comp1</title>
<path fill="none" stroke="black" stroke-width="1.2" d="M1079.12,-304.04C1087.37,-305.52 1096.09,-307.07 1104.66,-308.6"/>
<polygon fill="black" stroke="black" stroke-width="1.2" points="1104.16,-312.06 1114.62,-310.37 1105.38,-305.17 1104.16,-312.06"/>
</g>
<!-- fail_comp2 -->
<g id="node15" class="node">
<title>fail_comp2</title>
<path fill="white" stroke="black" d="M208,-113C208,-113 140,-113 140,-113 134,-113 128,-107 128,-101 128,-101 128,-89 128,-89 128,-83 134,-77 140,-77 140,-77 208,-77 208,-77 214,-77 220,-83 220,-89 220,-89 220,-101 220,-101 220,-107 214,-113 208,-113"/>
<text text-anchor="middle" x="174" y="-91.3" font-family="Helvetica,sans-Serif" font-size="14.00">fail_comp2</text>
</g>
<!-- fail_comp2&#45;&gt;pressure -->
<g id="edge22" class="edge">
<title>fail_comp2&#45;&gt;pressure</title>
<path fill="none" stroke="black" stroke-width="1.2" d="M220.29,-78.67C271.11,-61.82 356.36,-38 432,-38 432,-38 432,-38 661,-38 775.65,-38 861.53,-172.11 893.68,-230.91"/>
<polygon fill="black" stroke="black" stroke-width="1.2" points="890.74,-232.83 898.55,-240 896.91,-229.53 890.74,-232.83"/>
</g>
<!-- fail_comp2&#45;&gt;err_error4 -->
<g id="edge34" class="edge">
<title>fail_comp2&#45;&gt;err_error4</title>
<path fill="none" stroke="black" stroke-width="1.2" d="M220.22,-91.28C315.26,-85.31 540.82,-80.89 709,-155 729.61,-164.08 749.02,-180.38 763.26,-194.38"/>
<polygon fill="black" stroke="black" stroke-width="1.2" points="761.11,-197.18 770.61,-201.86 766.1,-192.28 761.11,-197.18"/>
</g>
<!-- fail_comp2&#45;&gt;mnt_comp2 -->
<g id="edge37" class="edge">
<title>fail_comp2&#45;&gt;mnt_comp2</title>
<path fill="none" stroke="black" stroke-width="1.2" d="M198.63,-76.84C214.19,-65.66 235.42,-51.83 256,-43 330,-11.26 351.48,0 432,0 432,0 432,0 1034,0 1225.61,0 1281.2,-312.23 1293.82,-408.85"/>
<polygon fill="black" stroke="black" stroke-width="1.2" points="1290.35,-409.29 1295.06,-418.78 1297.29,-408.42 1290.35,-409.29"/>
</g>
<!-- fail_comp2&#45;&gt;mnt_comp3 -->
<g id="edge39" class="edge">
<title>fail_comp2&#45;&gt;mnt_comp3</title>
<path fill="none" stroke="black" stroke-width="1.2" d="M220.1,-103.11C308.27,-118.95 503.37,-154.03 601,-171.57"/>
<polygon fill="black" stroke="black" stroke-width="1.2" points="600.52,-175.04 610.99,-173.37 601.76,-168.16 600.52,-175.04"/>
</g>
<!-- fail_comp2&#45;&gt;mnt_comp4 -->
<g id="edge41" class="edge">
<title>fail_comp2&#45;&gt;mnt_comp4</title>
<path fill="none" stroke="black" stroke-width="1.2" d="M207.81,-113C254.28,-138.49 339.26,-185.12 390.19,-213.06"/>
<polygon fill="black" stroke="black" stroke-width="1.2" points="388.53,-216.14 398.98,-217.88 391.9,-210 388.53,-216.14"/>
</g>
<!-- fail_comp2&#45;&gt;fail_comp4 -->
<g id="edge43" class="edge">
<title>fail_comp2&#45;&gt;fail_comp4</title>
<path fill="none" stroke="black" stroke-width="1.2" d="M182.61,-113.25C195.36,-142.74 222.93,-202 256,-246 260.89,-252.51 266.75,-258.96 272.6,-264.83"/>
<polygon fill="black" stroke="black" stroke-width="1.2" points="270.3,-267.48 279.92,-271.92 275.17,-262.45 270.3,-267.48"/>
</g>
<!-- fail_comp3 -->
<g id="node16" class="node">
<title>fail_comp3</title>
<path fill="white" stroke="black" d="M80,-480C80,-480 12,-480 12,-480 6,-480 0,-474 0,-468 0,-468 0,-456 0,-456 0,-450 6,-444 12,-444 12,-444 80,-444 80,-444 86,-444 92,-450 92,-456 92,-456 92,-468 92,-468 92,-474 86,-480 80,-480"/>
<text text-anchor="middle" x="46" y="-458.3" font-family="Helvetica,sans-Serif" font-size="14.00">fail_comp3</text>
</g>
<!-- fail_comp3&#45;&gt;rotate -->
<g id="edge17" class="edge">
<title>fail_comp3&#45;&gt;rotate</title>
<path fill="none" stroke="black" stroke-width="1.2" d="M92.12,-461.46C189.41,-460.29 417.41,-457.54 507.71,-456.45"/>
<polygon fill="black" stroke="black" stroke-width="1.2" points="507.82,-459.95 517.77,-456.33 507.73,-452.95 507.82,-459.95"/>
</g>
<!-- fail_comp3&#45;&gt;vibration -->
<g id="edge27" class="edge">
<title>fail_comp3&#45;&gt;vibration</title>
<path fill="none" stroke="black" stroke-width="1.2" d="M92.13,-448.03C102.84,-444.72 114.29,-441.17 125.11,-437.82"/>
<polygon fill="black" stroke="black" stroke-width="1.2" points="126.32,-441.11 134.84,-434.81 124.25,-434.43 126.32,-441.11"/>
</g>
<!-- fail_comp3&#45;&gt;mnt_comp2 -->
<g id="edge38" class="edge">
<title>fail_comp3&#45;&gt;mnt_comp2</title>
<path fill="none" stroke="black" stroke-width="1.2" d="M53.36,-480.11C76.22,-541.51 160.34,-738 301,-738 301,-738 301,-738 1034,-738 1178.15,-738 1261.53,-539.81 1287.85,-465.07"/>
<polygon fill="black" stroke="black" stroke-width="1.2" points="1291.24,-465.97 1291.19,-455.38 1284.62,-463.69 1291.24,-465.97"/>
</g>
<!-- fail_comp3&#45;&gt;mnt_comp3 -->
<g id="edge40" class="edge">
<title>fail_comp3&#45;&gt;mnt_comp3</title>
<path fill="none" stroke="black" stroke-width="1.2" d="M53.61,-443.73C76.96,-382.75 161.76,-190 301,-190 301,-190 301,-190 434,-190 490.57,-190 555.09,-187.44 600.49,-185.22"/>
<polygon fill="black" stroke="black" stroke-width="1.2" points="600.92,-188.7 610.74,-184.71 600.58,-181.71 600.92,-188.7"/>
</g>
<!-- fail_comp4&#45;&gt;volt -->
<g id="edge7" class="edge">
<title>fail_comp4&#45;&gt;volt</title>
<path fill="none" stroke="black" stroke-width="1.2" d="M348.12,-290C363.67,-290 380.88,-290 395.64,-290"/>
<polygon fill="black" stroke="black" stroke-width="1.2" points="395.9,-293.5 405.9,-290 395.9,-286.5 395.9,-293.5"/>
</g>
<!-- fail_comp4&#45;&gt;err_error1 -->
<g id="edge29" class="edge">
<title>fail_comp4&#45;&gt;err_error1</title>
<path fill="none" stroke="black" stroke-width="1.2" d="M346.31,-308.13C357.41,-312.78 369.44,-317.81 380.89,-322.6"/>
<polygon fill="black" stroke="black" stroke-width="1.2" points="379.75,-325.92 390.33,-326.56 382.46,-319.47 379.75,-325.92"/>
</g>
<!-- fail_comp4&#45;&gt;mnt_comp4 -->
<g id="edge42" class="edge">
<title>fail_comp4&#45;&gt;mnt_comp4</title>
<path fill="none" stroke="black" stroke-width="1.2" d="M346.31,-271.87C356.84,-267.46 368.22,-262.7 379.14,-258.13"/>
<polygon fill="black" stroke="black" stroke-width="1.2" points="380.71,-261.27 388.58,-254.18 378,-254.81 380.71,-261.27"/>
</g>
</g>
</svg>
