<?xml version="1.0" encoding="UTF-8" standalone="no"?>
<!DOCTYPE svg PUBLIC "-//W3C//DTD SVG 1.1//EN"
 "http://www.w3.org/Graphics/SVG/1.1/DTD/svg11.dtd">
<!-- Generated by graphviz version 2.50.0 (0)
 -->
<!-- Title: G Pages: 1 -->
<svg width="454pt" height="178pt"
 viewBox="0.00 0.00 454.00 178.00" xmlns="http://www.w3.org/2000/svg" xmlns:xlink="http://www.w3.org/1999/xlink">
<g id="graph0" class="graph" transform="scale(1 1) rotate(0) translate(4 174)">
<title>G</title>
<polygon fill="white" stroke="transparent" points="-4,4 -4,-174 450,-174 450,4 -4,4"/>
<text text-anchor="middle" x="223" y="-153.2" font-family="Times,serif" font-size="16.00">model=model1/cbnb_w_telemetry.json [machine 85]</text>
<!-- volt -->
<g id="node1" class="node">
<title>volt</title>
<path fill="white" stroke="black" d="M181.5,-90C181.5,-90 151.5,-90 151.5,-90 145.5,-90 139.5,-84 139.5,-78 139.5,-78 139.5,-66 139.5,-66 139.5,-60 145.5,-54 151.5,-54 151.5,-54 181.5,-54 181.5,-54 187.5,-54 193.5,-60 193.5,-66 193.5,-66 193.5,-78 193.5,-78 193.5,-84 187.5,-90 181.5,-90"/>
<text text-anchor="middle" x="166.5" y="-68.3" font-family="Helvetica,sans-Serif" font-size="14.00">volt</text>
</g>
<!-- pressure -->
<g id="node3" class="node">
<title>pressure</title>
<path fill="white" stroke="black" d="M306.5,-63C306.5,-63 253.5,-63 253.5,-63 247.5,-63 241.5,-57 241.5,-51 241.5,-51 241.5,-39 241.5,-39 241.5,-33 247.5,-27 253.5,-27 253.5,-27 306.5,-27 306.5,-27 312.5,-27 318.5,-33 318.5,-39 318.5,-39 318.5,-51 318.5,-51 318.5,-57 312.5,-63 306.5,-63"/>
<text text-anchor="middle" x="280" y="-41.3" font-family="Helvetica,sans-Serif" font-size="14.00">pressure</text>
</g>
<!-- volt&#45;&gt;pressure -->
<g id="edge1" class="edge">
<title>volt&#45;&gt;pressure</title>
<path fill="none" stroke="black" stroke-width="1.2" d="M193.64,-65.67C204.93,-62.94 218.49,-59.65 231.45,-56.51"/>
<polygon fill="black" stroke="black" stroke-width="1.2" points="232.3,-59.91 241.2,-54.15 230.65,-53.11 232.3,-59.91"/>
</g>
<!-- rotate -->
<g id="node2" class="node">
<title>rotate</title>
<path fill="white" stroke="black" d="M183,-144C183,-144 150,-144 150,-144 144,-144 138,-138 138,-132 138,-132 138,-120 138,-120 138,-114 144,-108 150,-108 150,-108 183,-108 183,-108 189,-108 195,-114 195,-120 195,-120 195,-132 195,-132 195,-138 189,-144 183,-144"/>
<text text-anchor="middle" x="166.5" y="-122.3" font-family="Helvetica,sans-Serif" font-size="14.00">rotate</text>
</g>
<!-- vibration -->
<g id="node4" class="node">
<title>vibration</title>
<path fill="white" stroke="black" d="M193.5,-36C193.5,-36 139.5,-36 139.5,-36 133.5,-36 127.5,-30 127.5,-24 127.5,-24 127.5,-12 127.5,-12 127.5,-6 133.5,0 139.5,0 139.5,0 193.5,0 193.5,0 199.5,0 205.5,-6 205.5,-12 205.5,-12 205.5,-24 205.5,-24 205.5,-30 199.5,-36 193.5,-36"/>
<text text-anchor="middle" x="166.5" y="-14.3" font-family="Helvetica,sans-Serif" font-size="14.00">vibration</text>
</g>
<!-- vibration&#45;&gt;pressure -->
<g id="edge2" class="edge">
<title>vibration&#45;&gt;pressure</title>
<path fill="none" stroke="black" stroke-width="1.2" d="M205.56,-27.22C213.9,-29.24 222.84,-31.4 231.5,-33.5"/>
<polygon fill="black" stroke="black" stroke-width="1.2" points="230.95,-36.96 241.49,-35.92 232.59,-30.16 230.95,-36.96"/>
</g>
</g>
</svg>
