<?xml version="1.0" encoding="UTF-8" standalone="no"?>
<!DOCTYPE svg PUBLIC "-//W3C//DTD SVG 1.1//EN"
 "http://www.w3.org/Graphics/SVG/1.1/DTD/svg11.dtd">
<!-- Generated by graphviz version 2.50.0 (0)
 -->
<!-- Title: G Pages: 1 -->
<svg width="1220pt" height="712pt"
 viewBox="0.00 0.00 1220.00 712.00" xmlns="http://www.w3.org/2000/svg" xmlns:xlink="http://www.w3.org/1999/xlink">
<g id="graph0" class="graph" transform="scale(1 1) rotate(0) translate(4 708)">
<title>G</title>
<polygon fill="white" stroke="transparent" points="-4,4 -4,-708 1216,-708 1216,4 -4,4"/>
<text text-anchor="middle" x="606" y="-687.2" font-family="Times,serif" font-size="16.00">model=model1/cbnb_w_mixed.json [machine 58]</text>
<!-- volt -->
<g id="node1" class="node">
<title>volt</title>
<path fill="white" stroke="black" d="M61,-414C61,-414 31,-414 31,-414 25,-414 19,-408 19,-402 19,-402 19,-390 19,-390 19,-384 25,-378 31,-378 31,-378 61,-378 61,-378 67,-378 73,-384 73,-390 73,-390 73,-402 73,-402 73,-408 67,-414 61,-414"/>
<text text-anchor="middle" x="46" y="-392.3" font-family="Helvetica,sans-Serif" font-size="14.00">volt</text>
</g>
<!-- rotate -->
<g id="node2" class="node">
<title>rotate</title>
<path fill="white" stroke="black" d="M307,-288C307,-288 274,-288 274,-288 268,-288 262,-282 262,-276 262,-276 262,-264 262,-264 262,-258 268,-252 274,-252 274,-252 307,-252 307,-252 313,-252 319,-258 319,-264 319,-264 319,-276 319,-276 319,-282 313,-288 307,-288"/>
<text text-anchor="middle" x="290.5" y="-266.3" font-family="Helvetica,sans-Serif" font-size="14.00">rotate</text>
</g>
<!-- volt&#45;&gt;rotate -->
<g id="edge1" class="edge">
<title>volt&#45;&gt;rotate</title>
<path fill="none" stroke="black" stroke-width="1.2" d="M63.6,-369.12C78.01,-348.09 100.82,-319.86 128,-304 166.35,-281.62 217.45,-273.88 251.81,-271.25"/>
<polygon fill="black" stroke="black" stroke-width="1.2" points="60.56,-367.36 57.94,-377.63 66.39,-371.23 60.56,-367.36"/>
<polygon fill="black" stroke="black" stroke-width="1.2" points="252.16,-274.74 261.91,-270.59 251.7,-267.75 252.16,-274.74"/>
</g>
<!-- vibration -->
<g id="node4" class="node">
<title>vibration</title>
<path fill="white" stroke="black" d="M559,-414C559,-414 505,-414 505,-414 499,-414 493,-408 493,-402 493,-402 493,-390 493,-390 493,-384 499,-378 505,-378 505,-378 559,-378 559,-378 565,-378 571,-384 571,-390 571,-390 571,-402 571,-402 571,-408 565,-414 559,-414"/>
<text text-anchor="middle" x="532" y="-392.3" font-family="Helvetica,sans-Serif" font-size="14.00">vibration</text>
</g>
<!-- volt&#45;&gt;vibration -->
<g id="edge2" class="edge">
<title>volt&#45;&gt;vibration</title>
<path fill="none" stroke="black" stroke-width="1.2" d="M73.02,-396C150.68,-396 381.64,-396 482.72,-396"/>
<polygon fill="black" stroke="black" stroke-width="1.2" points="482.95,-399.5 492.95,-396 482.95,-392.5 482.95,-399.5"/>
</g>
<!-- err_error5 -->
<g id="node9" class="node">
<title>err_error5</title>
<path fill="white" stroke="black" d="M1200,-517C1200,-517 1139,-517 1139,-517 1133,-517 1127,-511 1127,-505 1127,-505 1127,-493 1127,-493 1127,-487 1133,-481 1139,-481 1139,-481 1200,-481 1200,-481 1206,-481 1212,-487 1212,-493 1212,-493 1212,-505 1212,-505 1212,-511 1206,-517 1200,-517"/>
<text text-anchor="middle" x="1169.5" y="-495.3" font-family="Helvetica,sans-Serif" font-size="14.00">err_error5</text>
</g>
<!-- volt&#45;&gt;err_error5 -->
<g id="edge5" class="edge">
<title>volt&#45;&gt;err_error5</title>
<path fill="none" stroke="black" stroke-width="1.2" d="M49.72,-414.06C56.4,-452.6 76.91,-543.91 128,-599 182.34,-657.59 209.59,-678 289.5,-678 289.5,-678 289.5,-678 928.5,-678 1029.27,-678 1115.05,-575.35 1150.75,-525.52"/>
<polygon fill="black" stroke="black" stroke-width="1.2" points="1153.75,-527.34 1156.64,-517.15 1148.02,-523.32 1153.75,-527.34"/>
</g>
<!-- mnt_comp3 -->
<g id="node12" class="node">
<title>mnt_comp3</title>
<path fill="white" stroke="black" d="M214,-172C214,-172 140,-172 140,-172 134,-172 128,-166 128,-160 128,-160 128,-148 128,-148 128,-142 134,-136 140,-136 140,-136 214,-136 214,-136 220,-136 226,-142 226,-148 226,-148 226,-160 226,-160 226,-166 220,-172 214,-172"/>
<text text-anchor="middle" x="177" y="-150.3" font-family="Helvetica,sans-Serif" font-size="14.00">mnt_comp3</text>
</g>
<!-- volt&#45;&gt;mnt_comp3 -->
<g id="edge7" class="edge">
<title>volt&#45;&gt;mnt_comp3</title>
<path fill="none" stroke="black" stroke-width="1.2" d="M52.17,-367.79C61.22,-324.71 83.4,-241.66 128,-186 130.07,-183.42 132.4,-180.97 134.89,-178.67"/>
<polygon fill="black" stroke="black" stroke-width="1.2" points="48.68,-367.35 50.14,-377.84 55.55,-368.73 48.68,-367.35"/>
<polygon fill="black" stroke="black" stroke-width="1.2" points="137.26,-181.25 142.76,-172.19 132.81,-175.85 137.26,-181.25"/>
</g>
<!-- err_error1 -->
<g id="node5" class="node">
<title>err_error1</title>
<path fill="white" stroke="black" d="M830.5,-290C830.5,-290 769.5,-290 769.5,-290 763.5,-290 757.5,-284 757.5,-278 757.5,-278 757.5,-266 757.5,-266 757.5,-260 763.5,-254 769.5,-254 769.5,-254 830.5,-254 830.5,-254 836.5,-254 842.5,-260 842.5,-266 842.5,-266 842.5,-278 842.5,-278 842.5,-284 836.5,-290 830.5,-290"/>
<text text-anchor="middle" x="800" y="-268.3" font-family="Helvetica,sans-Serif" font-size="14.00">err_error1</text>
</g>
<!-- rotate&#45;&gt;err_error1 -->
<g id="edge11" class="edge">
<title>rotate&#45;&gt;err_error1</title>
<path fill="none" stroke="black" stroke-width="1.2" d="M329.2,-270.15C418.86,-270.5 644.93,-271.39 747.26,-271.8"/>
<polygon fill="black" stroke="black" stroke-width="1.2" points="329.16,-266.65 319.15,-270.11 329.13,-273.65 329.16,-266.65"/>
<polygon fill="black" stroke="black" stroke-width="1.2" points="747.34,-275.3 757.36,-271.84 747.37,-268.3 747.34,-275.3"/>
</g>
<!-- err_error4 -->
<g id="node8" class="node">
<title>err_error4</title>
<path fill="white" stroke="black" d="M431.5,-498C431.5,-498 370.5,-498 370.5,-498 364.5,-498 358.5,-492 358.5,-486 358.5,-486 358.5,-474 358.5,-474 358.5,-468 364.5,-462 370.5,-462 370.5,-462 431.5,-462 431.5,-462 437.5,-462 443.5,-468 443.5,-474 443.5,-474 443.5,-486 443.5,-486 443.5,-492 437.5,-498 431.5,-498"/>
<text text-anchor="middle" x="401" y="-476.3" font-family="Helvetica,sans-Serif" font-size="14.00">err_error4</text>
</g>
<!-- rotate&#45;&gt;err_error4 -->
<g id="edge13" class="edge">
<title>rotate&#45;&gt;err_error4</title>
<path fill="none" stroke="black" stroke-width="1.2" d="M302.55,-297.45C314.41,-326.1 334.34,-372.05 355,-410 363.03,-424.74 373.04,-440.52 381.58,-453.36"/>
<polygon fill="black" stroke="black" stroke-width="1.2" points="305.74,-296.01 298.71,-288.08 299.27,-298.66 305.74,-296.01"/>
<polygon fill="black" stroke="black" stroke-width="1.2" points="378.72,-455.39 387.21,-461.73 384.53,-451.48 378.72,-455.39"/>
</g>
<!-- fail_comp2 -->
<g id="node15" class="node">
<title>fail_comp2</title>
<path fill="white" stroke="black" d="M435,-330C435,-330 367,-330 367,-330 361,-330 355,-324 355,-318 355,-318 355,-306 355,-306 355,-300 361,-294 367,-294 367,-294 435,-294 435,-294 441,-294 447,-300 447,-306 447,-306 447,-318 447,-318 447,-324 441,-330 435,-330"/>
<text text-anchor="middle" x="401" y="-308.3" font-family="Helvetica,sans-Serif" font-size="14.00">fail_comp2</text>
</g>
<!-- rotate&#45;&gt;fail_comp2 -->
<g id="edge17" class="edge">
<title>rotate&#45;&gt;fail_comp2</title>
<path fill="none" stroke="black" stroke-width="1.2" d="M328.66,-284.38C334.03,-286.46 339.64,-288.63 345.26,-290.81"/>
<polygon fill="black" stroke="black" stroke-width="1.2" points="329.75,-281.05 319.16,-280.71 327.22,-287.58 329.75,-281.05"/>
<polygon fill="black" stroke="black" stroke-width="1.2" points="344.1,-294.11 354.69,-294.46 346.62,-287.59 344.1,-294.11"/>
</g>
<!-- pressure -->
<g id="node3" class="node">
<title>pressure</title>
<path fill="white" stroke="black" d="M1075,-517C1075,-517 1022,-517 1022,-517 1016,-517 1010,-511 1010,-505 1010,-505 1010,-493 1010,-493 1010,-487 1016,-481 1022,-481 1022,-481 1075,-481 1075,-481 1081,-481 1087,-487 1087,-493 1087,-493 1087,-505 1087,-505 1087,-511 1081,-517 1075,-517"/>
<text text-anchor="middle" x="1048.5" y="-495.3" font-family="Helvetica,sans-Serif" font-size="14.00">pressure</text>
</g>
<!-- pressure&#45;&gt;err_error5 -->
<g id="edge21" class="edge">
<title>pressure&#45;&gt;err_error5</title>
<path fill="none" stroke="black" stroke-width="1.2" d="M1087.15,-499C1096.55,-499 1106.8,-499 1116.75,-499"/>
<polygon fill="black" stroke="black" stroke-width="1.2" points="1116.96,-502.5 1126.96,-499 1116.96,-495.5 1116.96,-502.5"/>
</g>
<!-- vibration&#45;&gt;pressure -->
<g id="edge18" class="edge">
<title>vibration&#45;&gt;pressure</title>
<path fill="none" stroke="black" stroke-width="1.2" d="M556.2,-414.24C572.32,-425.9 594.82,-440.25 617,-448 686.75,-472.37 902.75,-489.36 999.63,-495.95"/>
<polygon fill="black" stroke="black" stroke-width="1.2" points="999.52,-499.45 1009.73,-496.63 999.99,-492.47 999.52,-499.45"/>
</g>
<!-- vibration&#45;&gt;err_error1 -->
<g id="edge23" class="edge">
<title>vibration&#45;&gt;err_error1</title>
<path fill="none" stroke="black" stroke-width="1.2" d="M581.05,-384C618.73,-373.57 671.83,-356.59 715,-334 734.51,-323.79 754.42,-309.31 769.96,-296.9"/>
<polygon fill="black" stroke="black" stroke-width="1.2" points="580.07,-380.64 571.33,-386.64 581.9,-387.4 580.07,-380.64"/>
<polygon fill="black" stroke="black" stroke-width="1.2" points="772.57,-299.3 778.11,-290.27 768.15,-293.87 772.57,-299.3"/>
</g>
<!-- mnt_comp2 -->
<g id="node11" class="node">
<title>mnt_comp2</title>
<path fill="white" stroke="black" d="M703,-216C703,-216 629,-216 629,-216 623,-216 617,-210 617,-204 617,-204 617,-192 617,-192 617,-186 623,-180 629,-180 629,-180 703,-180 703,-180 709,-180 715,-186 715,-192 715,-192 715,-204 715,-204 715,-210 709,-216 703,-216"/>
<text text-anchor="middle" x="666" y="-194.3" font-family="Helvetica,sans-Serif" font-size="14.00">mnt_comp2</text>
</g>
<!-- vibration&#45;&gt;mnt_comp2 -->
<g id="edge28" class="edge">
<title>vibration&#45;&gt;mnt_comp2</title>
<path fill="none" stroke="black" stroke-width="1.2" d="M545.18,-377.73C568.61,-342.59 620.03,-265.46 647.26,-224.6"/>
<polygon fill="black" stroke="black" stroke-width="1.2" points="650.21,-226.49 652.85,-216.23 644.39,-222.61 650.21,-226.49"/>
</g>
<!-- fail_comp1 -->
<g id="node14" class="node">
<title>fail_comp1</title>
<path fill="white" stroke="black" d="M700,-574C700,-574 632,-574 632,-574 626,-574 620,-568 620,-562 620,-562 620,-550 620,-550 620,-544 626,-538 632,-538 632,-538 700,-538 700,-538 706,-538 712,-544 712,-550 712,-550 712,-562 712,-562 712,-568 706,-574 700,-574"/>
<text text-anchor="middle" x="666" y="-552.3" font-family="Helvetica,sans-Serif" font-size="14.00">fail_comp1</text>
</g>
<!-- vibration&#45;&gt;fail_comp1 -->
<g id="edge29" class="edge">
<title>vibration&#45;&gt;fail_comp1</title>
<path fill="none" stroke="black" stroke-width="1.2" d="M574.14,-420.65C576.62,-422.96 578.95,-425.41 581,-428 609.33,-463.7 588.67,-488.3 617,-524 619.05,-526.59 621.38,-529.04 623.86,-531.35"/>
<polygon fill="black" stroke="black" stroke-width="1.2" points="576.22,-417.83 566.28,-414.16 571.76,-423.23 576.22,-417.83"/>
<polygon fill="black" stroke="black" stroke-width="1.2" points="621.78,-534.17 631.72,-537.84 626.24,-528.77 621.78,-534.17"/>
</g>
<!-- err_error1&#45;&gt;volt -->
<g id="edge3" class="edge">
<title>err_error1&#45;&gt;volt</title>
<path fill="none" stroke="black" stroke-width="1.2" d="M757.07,-286.96C743.75,-291.31 728.87,-295.76 715,-299 477.21,-354.57 183.95,-383.94 83.07,-392.95"/>
<polygon fill="black" stroke="black" stroke-width="1.2" points="82.74,-389.46 73.09,-393.83 83.36,-396.44 82.74,-389.46"/>
</g>
<!-- err_error2 -->
<g id="node6" class="node">
<title>err_error2</title>
<path fill="white" stroke="black" d="M1079,-178C1079,-178 1018,-178 1018,-178 1012,-178 1006,-172 1006,-166 1006,-166 1006,-154 1006,-154 1006,-148 1012,-142 1018,-142 1018,-142 1079,-142 1079,-142 1085,-142 1091,-148 1091,-154 1091,-154 1091,-166 1091,-166 1091,-172 1085,-178 1079,-178"/>
<text text-anchor="middle" x="1048.5" y="-156.3" font-family="Helvetica,sans-Serif" font-size="14.00">err_error2</text>
</g>
<!-- err_error2&#45;&gt;rotate -->
<g id="edge12" class="edge">
<title>err_error2&#45;&gt;rotate</title>
<path fill="none" stroke="black" stroke-width="1.2" d="M1016.36,-141.98C970.69,-117.3 882.15,-76 801,-76 531,-76 531,-76 531,-76 426.04,-76 341.32,-189.9 307.44,-243.15"/>
<polygon fill="black" stroke="black" stroke-width="1.2" points="304.4,-241.41 302.08,-251.75 310.34,-245.12 304.4,-241.41"/>
</g>
<!-- err_error3 -->
<g id="node7" class="node">
<title>err_error3</title>
<path fill="white" stroke="black" d="M958,-330C958,-330 897,-330 897,-330 891,-330 885,-324 885,-318 885,-318 885,-306 885,-306 885,-300 891,-294 897,-294 897,-294 958,-294 958,-294 964,-294 970,-300 970,-306 970,-306 970,-318 970,-318 970,-324 964,-330 958,-330"/>
<text text-anchor="middle" x="927.5" y="-308.3" font-family="Helvetica,sans-Serif" font-size="14.00">err_error3</text>
</g>
<!-- err_error3&#45;&gt;pressure -->
<g id="edge19" class="edge">
<title>err_error3&#45;&gt;pressure</title>
<path fill="none" stroke="black" stroke-width="1.2" d="M940.13,-330.27C961.24,-363.45 1005.97,-433.74 1030.51,-472.3"/>
<polygon fill="black" stroke="black" stroke-width="1.2" points="1027.68,-474.37 1036,-480.93 1033.59,-470.61 1027.68,-474.37"/>
</g>
<!-- err_error3&#45;&gt;vibration -->
<g id="edge24" class="edge">
<title>err_error3&#45;&gt;vibration</title>
<path fill="none" stroke="black" stroke-width="1.2" d="M884.65,-324.16C842.18,-336.19 774.42,-354.57 715,-367 669.91,-376.43 617.98,-384.43 581.16,-389.62"/>
<polygon fill="black" stroke="black" stroke-width="1.2" points="580.61,-386.16 571.19,-391.01 581.58,-393.09 580.61,-386.16"/>
</g>
<!-- err_error3&#45;&gt;err_error2 -->
<g id="edge34" class="edge">
<title>err_error3&#45;&gt;err_error2</title>
<path fill="none" stroke="black" stroke-width="1.2" d="M942.62,-293.97C963.55,-267.23 1002.94,-216.92 1027.04,-186.14"/>
<polygon fill="black" stroke="black" stroke-width="1.2" points="1029.99,-188.04 1033.4,-178.01 1024.48,-183.73 1029.99,-188.04"/>
</g>
<!-- err_error4&#45;&gt;volt -->
<g id="edge4" class="edge">
<title>err_error4&#45;&gt;volt</title>
<path fill="none" stroke="black" stroke-width="1.2" d="M358.13,-480.84C303.55,-480.65 205.89,-475.9 128,-448 109.85,-441.5 91.61,-430.3 77.05,-419.95"/>
<polygon fill="black" stroke="black" stroke-width="1.2" points="79.06,-417.09 68.93,-414 74.92,-422.74 79.06,-417.09"/>
</g>
<!-- err_error4&#45;&gt;pressure -->
<g id="edge20" class="edge">
<title>err_error4&#45;&gt;pressure</title>
<path fill="none" stroke="black" stroke-width="1.2" d="M423.62,-498C466.67,-531.94 567.35,-602 665,-602 665,-602 665,-602 801,-602 882.7,-602 968.67,-553.23 1014.36,-522.81"/>
<polygon fill="black" stroke="black" stroke-width="1.2" points="1016.36,-525.68 1022.68,-517.18 1012.44,-519.89 1016.36,-525.68"/>
</g>
<!-- err_error4&#45;&gt;vibration -->
<g id="edge25" class="edge">
<title>err_error4&#45;&gt;vibration</title>
<path fill="none" stroke="black" stroke-width="1.2" d="M429.67,-461.98C448.59,-449.66 473.86,-433.21 494.43,-419.81"/>
<polygon fill="black" stroke="black" stroke-width="1.2" points="496.46,-422.67 502.93,-414.28 492.64,-416.8 496.46,-422.67"/>
</g>
<!-- err_error5&#45;&gt;vibration -->
<g id="edge26" class="edge">
<title>err_error5&#45;&gt;vibration</title>
<path fill="none" stroke="black" stroke-width="1.2" d="M1127.79,-480.89C1080.76,-461.66 1000.59,-434 928.5,-434 799,-434 799,-434 799,-434 722.09,-434 633.91,-418.24 580.88,-407.02"/>
<polygon fill="black" stroke="black" stroke-width="1.2" points="581.59,-403.59 571.08,-404.91 580.12,-410.43 581.59,-403.59"/>
</g>
<!-- mnt_comp1 -->
<g id="node10" class="node">
<title>mnt_comp1</title>
<path fill="white" stroke="black" d="M837,-536C837,-536 763,-536 763,-536 757,-536 751,-530 751,-524 751,-524 751,-512 751,-512 751,-506 757,-500 763,-500 763,-500 837,-500 837,-500 843,-500 849,-506 849,-512 849,-512 849,-524 849,-524 849,-530 843,-536 837,-536"/>
<text text-anchor="middle" x="800" y="-514.3" font-family="Helvetica,sans-Serif" font-size="14.00">mnt_comp1</text>
</g>
<!-- mnt_comp1&#45;&gt;volt -->
<g id="edge6" class="edge">
<title>mnt_comp1&#45;&gt;volt</title>
<path fill="none" stroke="black" stroke-width="1.2" d="M779.68,-536.2C763.49,-550.62 739.19,-570.37 715,-583 639.86,-622.22 617.76,-640 533,-640 289.5,-640 289.5,-640 289.5,-640 168.75,-640 87.47,-487.8 58.64,-423.82"/>
<polygon fill="black" stroke="black" stroke-width="1.2" points="61.7,-422.08 54.46,-414.34 55.29,-424.9 61.7,-422.08"/>
</g>
<!-- mnt_comp1&#45;&gt;pressure -->
<g id="edge22" class="edge">
<title>mnt_comp1&#45;&gt;pressure</title>
<path fill="none" stroke="black" stroke-width="1.2" d="M849.11,-514.29C892.7,-510.93 956.55,-506.01 999.95,-502.66"/>
<polygon fill="black" stroke="black" stroke-width="1.2" points="1000.28,-506.15 1009.98,-501.89 999.74,-499.17 1000.28,-506.15"/>
</g>
<!-- mnt_comp1&#45;&gt;vibration -->
<g id="edge27" class="edge">
<title>mnt_comp1&#45;&gt;vibration</title>
<path fill="none" stroke="black" stroke-width="1.2" d="M750.95,-519.94C711.75,-519.23 656.6,-512.78 617,-486 591.87,-469 602.1,-449.8 581,-428 578.41,-425.32 575.56,-422.75 572.58,-420.31"/>
<polygon fill="black" stroke="black" stroke-width="1.2" points="574.56,-417.41 564.47,-414.15 570.32,-422.99 574.56,-417.41"/>
</g>
<!-- mnt_comp1&#45;&gt;err_error3 -->
<g id="edge35" class="edge">
<title>mnt_comp1&#45;&gt;err_error3</title>
<path fill="none" stroke="black" stroke-width="1.2" d="M812.14,-499.72C834.33,-463.3 884.14,-381.54 910.08,-338.95"/>
<polygon fill="black" stroke="black" stroke-width="1.2" points="913.17,-340.6 915.39,-330.24 907.2,-336.96 913.17,-340.6"/>
</g>
<!-- mnt_comp2&#45;&gt;rotate -->
<g id="edge14" class="edge">
<title>mnt_comp2&#45;&gt;rotate</title>
<path fill="none" stroke="black" stroke-width="1.2" d="M616.9,-204.8C555.69,-213.81 446.88,-231.04 355,-252 346.49,-253.94 337.42,-256.32 328.88,-258.71"/>
<polygon fill="black" stroke="black" stroke-width="1.2" points="327.81,-255.37 319.16,-261.49 329.74,-262.1 327.81,-255.37"/>
</g>
<!-- mnt_comp2&#45;&gt;err_error1 -->
<g id="edge31" class="edge">
<title>mnt_comp2&#45;&gt;err_error1</title>
<path fill="none" stroke="black" stroke-width="1.2" d="M699.29,-216.1C716.87,-225.96 738.81,-238.26 757.63,-248.81"/>
<polygon fill="black" stroke="black" stroke-width="1.2" points="756.15,-251.99 766.59,-253.83 759.57,-245.88 756.15,-251.99"/>
</g>
<!-- mnt_comp2&#45;&gt;err_error3 -->
<g id="edge36" class="edge">
<title>mnt_comp2&#45;&gt;err_error3</title>
<path fill="none" stroke="black" stroke-width="1.2" d="M715.17,-204.26C753.17,-210.62 806.66,-222.8 849,-245 869.07,-255.52 888.36,-272.16 902.67,-286.23"/>
<polygon fill="black" stroke="black" stroke-width="1.2" points="900.57,-289.08 910.09,-293.72 905.54,-284.15 900.57,-289.08"/>
</g>
<!-- mnt_comp3&#45;&gt;rotate -->
<g id="edge15" class="edge">
<title>mnt_comp3&#45;&gt;rotate</title>
<path fill="none" stroke="black" stroke-width="1.2" d="M195.42,-172.12C214.05,-191.51 243.74,-222.4 264.78,-244.29"/>
<polygon fill="black" stroke="black" stroke-width="1.2" points="262.38,-246.84 271.83,-251.62 267.43,-241.98 262.38,-246.84"/>
</g>
<!-- mnt_comp4 -->
<g id="node13" class="node">
<title>mnt_comp4</title>
<path fill="white" stroke="black" d="M569,-162C569,-162 495,-162 495,-162 489,-162 483,-156 483,-150 483,-150 483,-138 483,-138 483,-132 489,-126 495,-126 495,-126 569,-126 569,-126 575,-126 581,-132 581,-138 581,-138 581,-150 581,-150 581,-156 575,-162 569,-162"/>
<text text-anchor="middle" x="532" y="-140.3" font-family="Helvetica,sans-Serif" font-size="14.00">mnt_comp4</text>
</g>
<!-- mnt_comp3&#45;&gt;mnt_comp4 -->
<g id="edge42" class="edge">
<title>mnt_comp3&#45;&gt;mnt_comp4</title>
<path fill="none" stroke="black" stroke-width="1.2" d="M226.34,-152.63C290.55,-150.81 403.85,-147.6 472.72,-145.65"/>
<polygon fill="black" stroke="black" stroke-width="1.2" points="473.06,-149.14 482.96,-145.36 472.86,-142.15 473.06,-149.14"/>
</g>
<!-- mnt_comp4&#45;&gt;volt -->
<g id="edge8" class="edge">
<title>mnt_comp4&#45;&gt;volt</title>
<path fill="none" stroke="black" stroke-width="1.2" d="M482.94,-154.67C388.92,-176.25 184.84,-226.68 128,-270 94.33,-295.66 70.72,-339.65 58,-368.27"/>
<polygon fill="black" stroke="black" stroke-width="1.2" points="54.68,-367.12 53.96,-377.69 61.12,-369.88 54.68,-367.12"/>
</g>
<!-- mnt_comp4&#45;&gt;err_error1 -->
<g id="edge32" class="edge">
<title>mnt_comp4&#45;&gt;err_error1</title>
<path fill="none" stroke="black" stroke-width="1.2" d="M581.23,-142C619.77,-142.46 673.93,-147.91 715,-171 745.71,-188.27 769.95,-221.48 784.34,-245.1"/>
<polygon fill="black" stroke="black" stroke-width="1.2" points="781.45,-247.1 789.54,-253.94 787.49,-243.55 781.45,-247.1"/>
</g>
<!-- mnt_comp4&#45;&gt;mnt_comp2 -->
<g id="edge39" class="edge">
<title>mnt_comp4&#45;&gt;mnt_comp2</title>
<path fill="none" stroke="black" stroke-width="1.2" d="M577.32,-162.13C588.2,-166.58 599.97,-171.4 611.25,-176.01"/>
<polygon fill="black" stroke="black" stroke-width="1.2" points="609.99,-179.28 620.57,-179.82 612.64,-172.8 609.99,-179.28"/>
</g>
<!-- fail_comp1&#45;&gt;volt -->
<g id="edge9" class="edge">
<title>fail_comp1&#45;&gt;volt</title>
<path fill="none" stroke="black" stroke-width="1.2" d="M619.9,-551.86C567.56,-547.42 478.6,-541 402,-541 289.5,-541 289.5,-541 289.5,-541 197.37,-541 109.9,-462.96 69.84,-421.38"/>
<polygon fill="black" stroke="black" stroke-width="1.2" points="72.34,-418.93 62.92,-414.07 67.25,-423.74 72.34,-418.93"/>
</g>
<!-- fail_comp1&#45;&gt;rotate -->
<g id="edge16" class="edge">
<title>fail_comp1&#45;&gt;rotate</title>
<path fill="none" stroke="black" stroke-width="1.2" d="M634.81,-537.94C577.5,-503.01 450.18,-422.27 355,-339 339.84,-325.74 324.5,-309.18 312.7,-295.61"/>
<polygon fill="black" stroke="black" stroke-width="1.2" points="315.35,-293.32 306.19,-288.01 310.04,-297.88 315.35,-293.32"/>
</g>
<!-- fail_comp1&#45;&gt;mnt_comp1 -->
<g id="edge38" class="edge">
<title>fail_comp1&#45;&gt;mnt_comp1</title>
<path fill="none" stroke="black" stroke-width="1.2" d="M712.06,-543.03C721.47,-540.32 731.51,-537.43 741.31,-534.61"/>
<polygon fill="black" stroke="black" stroke-width="1.2" points="742.35,-537.95 750.99,-531.82 740.41,-531.22 742.35,-537.95"/>
</g>
<!-- fail_comp2&#45;&gt;volt -->
<g id="edge10" class="edge">
<title>fail_comp2&#45;&gt;volt</title>
<path fill="none" stroke="black" stroke-width="1.2" d="M354.79,-311.18C299.63,-311.55 204.32,-316.67 128,-344 109.85,-350.5 91.61,-361.7 77.05,-372.05"/>
<polygon fill="black" stroke="black" stroke-width="1.2" points="74.92,-369.26 68.93,-378 79.06,-374.91 74.92,-369.26"/>
</g>
<!-- fail_comp2&#45;&gt;vibration -->
<g id="edge30" class="edge">
<title>fail_comp2&#45;&gt;vibration</title>
<path fill="none" stroke="black" stroke-width="1.2" d="M429.67,-330.02C448.59,-342.34 473.86,-358.79 494.43,-372.19"/>
<polygon fill="black" stroke="black" stroke-width="1.2" points="492.64,-375.2 502.93,-377.72 496.46,-369.33 492.64,-375.2"/>
</g>
<!-- fail_comp2&#45;&gt;err_error1 -->
<g id="edge33" class="edge">
<title>fail_comp2&#45;&gt;err_error1</title>
<path fill="none" stroke="black" stroke-width="1.2" d="M447.15,-307.45C521.45,-299.96 669.03,-285.09 747.37,-277.2"/>
<polygon fill="black" stroke="black" stroke-width="1.2" points="747.89,-280.67 757.48,-276.18 747.18,-273.7 747.89,-280.67"/>
</g>
<!-- fail_comp2&#45;&gt;mnt_comp2 -->
<g id="edge40" class="edge">
<title>fail_comp2&#45;&gt;mnt_comp2</title>
<path fill="none" stroke="black" stroke-width="1.2" d="M443.67,-293.94C489.8,-273.94 564.18,-241.7 613.81,-220.19"/>
<polygon fill="black" stroke="black" stroke-width="1.2" points="615.3,-223.36 623.09,-216.17 612.52,-216.93 615.3,-223.36"/>
</g>
<!-- fail_comp2&#45;&gt;mnt_comp4 -->
<g id="edge44" class="edge">
<title>fail_comp2&#45;&gt;mnt_comp4</title>
<path fill="none" stroke="black" stroke-width="1.2" d="M416.05,-293.7C438.99,-263.83 484.55,-204.49 510.9,-170.17"/>
<polygon fill="black" stroke="black" stroke-width="1.2" points="513.85,-172.09 517.16,-162.02 508.3,-167.82 513.85,-172.09"/>
</g>
<!-- fail_comp3 -->
<g id="node16" class="node">
<title>fail_comp3</title>
<path fill="white" stroke="black" d="M80,-88C80,-88 12,-88 12,-88 6,-88 0,-82 0,-76 0,-76 0,-64 0,-64 0,-58 6,-52 12,-52 12,-52 80,-52 80,-52 86,-52 92,-58 92,-64 92,-64 92,-76 92,-76 92,-82 86,-88 80,-88"/>
<text text-anchor="middle" x="46" y="-66.3" font-family="Helvetica,sans-Serif" font-size="14.00">fail_comp3</text>
</g>
<!-- fail_comp3&#45;&gt;err_error3 -->
<g id="edge37" class="edge">
<title>fail_comp3&#45;&gt;err_error3</title>
<path fill="none" stroke="black" stroke-width="1.2" d="M84.67,-51.97C131.54,-31.23 214.57,0 289.5,0 289.5,0 289.5,0 402,0 620.93,0 685.4,-61.51 849,-207 874.59,-229.76 896.99,-262.25 911.03,-285.05"/>
<polygon fill="black" stroke="black" stroke-width="1.2" points="908.19,-287.11 916.35,-293.87 914.18,-283.5 908.19,-287.11"/>
</g>
<!-- fail_comp3&#45;&gt;mnt_comp2 -->
<g id="edge41" class="edge">
<title>fail_comp3&#45;&gt;mnt_comp2</title>
<path fill="none" stroke="black" stroke-width="1.2" d="M92.35,-60.4C140.9,-50.97 220.28,-38 289.5,-38 289.5,-38 289.5,-38 402,-38 504.1,-38 600.27,-127.09 642.51,-172.31"/>
<polygon fill="black" stroke="black" stroke-width="1.2" points="640.18,-174.96 649.52,-179.96 645.34,-170.22 640.18,-174.96"/>
</g>
<!-- fail_comp3&#45;&gt;mnt_comp3 -->
<g id="edge43" class="edge">
<title>fail_comp3&#45;&gt;mnt_comp3</title>
<path fill="none" stroke="black" stroke-width="1.2" d="M74.67,-88.02C93.59,-100.34 118.86,-116.79 139.43,-130.19"/>
<polygon fill="black" stroke="black" stroke-width="1.2" points="137.64,-133.2 147.93,-135.72 141.46,-127.33 137.64,-133.2"/>
</g>
<!-- fail_comp3&#45;&gt;mnt_comp4 -->
<g id="edge45" class="edge">
<title>fail_comp3&#45;&gt;mnt_comp4</title>
<path fill="none" stroke="black" stroke-width="1.2" d="M92.1,-76.9C180.27,-90.38 375.37,-120.21 473,-135.13"/>
<polygon fill="black" stroke="black" stroke-width="1.2" points="472.57,-138.61 482.99,-136.66 473.63,-131.69 472.57,-138.61"/>
</g>
</g>
</svg>
