<?xml version="1.0" encoding="UTF-8" standalone="no"?>
<!DOCTYPE svg PUBLIC "-//W3C//DTD SVG 1.1//EN"
 "http://www.w3.org/Graphics/SVG/1.1/DTD/svg11.dtd">
<!-- Generated by graphviz version 2.50.0 (0)
 -->
<!-- Title: G Pages: 1 -->
<svg width="1169pt" height="662pt"
 viewBox="0.00 0.00 1169.00 662.00" xmlns="http://www.w3.org/2000/svg" xmlns:xlink="http://www.w3.org/1999/xlink">
<g id="graph0" class="graph" transform="scale(1 1) rotate(0) translate(4 658)">
<title>G</title>
<polygon fill="white" stroke="transparent" points="-4,4 -4,-658 1165,-658 1165,4 -4,4"/>
<text text-anchor="middle" x="580.5" y="-637.2" font-family="Times,serif" font-size="16.00">model=model1/cbnb_w_mixed.json [machine 16]</text>
<!-- volt -->
<g id="node1" class="node">
<title>volt</title>
<path fill="white" stroke="black" d="M42,-383C42,-383 12,-383 12,-383 6,-383 0,-377 0,-371 0,-371 0,-359 0,-359 0,-353 6,-347 12,-347 12,-347 42,-347 42,-347 48,-347 54,-353 54,-359 54,-359 54,-371 54,-371 54,-377 48,-383 42,-383"/>
<text text-anchor="middle" x="27" y="-361.3" font-family="Helvetica,sans-Serif" font-size="14.00">volt</text>
</g>
<!-- rotate -->
<g id="node2" class="node">
<title>rotate</title>
<path fill="white" stroke="black" d="M283.5,-383C283.5,-383 250.5,-383 250.5,-383 244.5,-383 238.5,-377 238.5,-371 238.5,-371 238.5,-359 238.5,-359 238.5,-353 244.5,-347 250.5,-347 250.5,-347 283.5,-347 283.5,-347 289.5,-347 295.5,-353 295.5,-359 295.5,-359 295.5,-371 295.5,-371 295.5,-377 289.5,-383 283.5,-383"/>
<text text-anchor="middle" x="267" y="-361.3" font-family="Helvetica,sans-Serif" font-size="14.00">rotate</text>
</g>
<!-- volt&#45;&gt;rotate -->
<g id="edge1" class="edge">
<title>volt&#45;&gt;rotate</title>
<path fill="none" stroke="black" stroke-width="1.2" d="M54.38,-365C96.66,-365 179.77,-365 228.31,-365"/>
<polygon fill="black" stroke="black" stroke-width="1.2" points="228.4,-368.5 238.4,-365 228.4,-361.5 228.4,-368.5"/>
</g>
<!-- err_error1 -->
<g id="node5" class="node">
<title>err_error1</title>
<path fill="white" stroke="black" d="M801,-562C801,-562 740,-562 740,-562 734,-562 728,-556 728,-550 728,-550 728,-538 728,-538 728,-532 734,-526 740,-526 740,-526 801,-526 801,-526 807,-526 813,-532 813,-538 813,-538 813,-550 813,-550 813,-556 807,-562 801,-562"/>
<text text-anchor="middle" x="770.5" y="-540.3" font-family="Helvetica,sans-Serif" font-size="14.00">err_error1</text>
</g>
<!-- volt&#45;&gt;err_error1 -->
<g id="edge2" class="edge">
<title>volt&#45;&gt;err_error1</title>
<path fill="none" stroke="black" stroke-width="1.2" d="M30.39,-383.06C35.64,-416.33 50.98,-488.03 90,-533 148.26,-600.14 177.11,-628 266,-628 266,-628 266,-628 402,-628 517.33,-628 648.01,-588.2 718.26,-563.39"/>
<polygon fill="black" stroke="black" stroke-width="1.2" points="719.53,-566.66 727.77,-560 717.17,-560.07 719.53,-566.66"/>
</g>
<!-- err_error2 -->
<g id="node6" class="node">
<title>err_error2</title>
<path fill="white" stroke="black" d="M431.5,-536C431.5,-536 370.5,-536 370.5,-536 364.5,-536 358.5,-530 358.5,-524 358.5,-524 358.5,-512 358.5,-512 358.5,-506 364.5,-500 370.5,-500 370.5,-500 431.5,-500 431.5,-500 437.5,-500 443.5,-506 443.5,-512 443.5,-512 443.5,-524 443.5,-524 443.5,-530 437.5,-536 431.5,-536"/>
<text text-anchor="middle" x="401" y="-514.3" font-family="Helvetica,sans-Serif" font-size="14.00">err_error2</text>
</g>
<!-- volt&#45;&gt;err_error2 -->
<g id="edge3" class="edge">
<title>volt&#45;&gt;err_error2</title>
<path fill="none" stroke="black" stroke-width="1.2" d="M54.16,-375.76C115.34,-400.92 268.68,-463.99 349.04,-497.04"/>
<polygon fill="black" stroke="black" stroke-width="1.2" points="347.89,-500.35 358.47,-500.92 350.56,-493.88 347.89,-500.35"/>
</g>
<!-- err_error5 -->
<g id="node9" class="node">
<title>err_error5</title>
<path fill="white" stroke="black" d="M1035,-343C1035,-343 974,-343 974,-343 968,-343 962,-337 962,-331 962,-331 962,-319 962,-319 962,-313 968,-307 974,-307 974,-307 1035,-307 1035,-307 1041,-307 1047,-313 1047,-319 1047,-319 1047,-331 1047,-331 1047,-337 1041,-343 1035,-343"/>
<text text-anchor="middle" x="1004.5" y="-321.3" font-family="Helvetica,sans-Serif" font-size="14.00">err_error5</text>
</g>
<!-- volt&#45;&gt;err_error5 -->
<g id="edge5" class="edge">
<title>volt&#45;&gt;err_error5</title>
<path fill="none" stroke="black" stroke-width="1.2" d="M45.52,-346.79C82.54,-310.36 172.99,-232 266,-232 266,-232 266,-232 771.5,-232 845.99,-232 924.91,-273.82 968.81,-301.37"/>
<polygon fill="black" stroke="black" stroke-width="1.2" points="967.07,-304.41 977.38,-306.85 970.84,-298.51 967.07,-304.41"/>
</g>
<!-- fail_comp1 -->
<g id="node14" class="node">
<title>fail_comp1</title>
<path fill="white" stroke="black" d="M170,-204C170,-204 102,-204 102,-204 96,-204 90,-198 90,-192 90,-192 90,-180 90,-180 90,-174 96,-168 102,-168 102,-168 170,-168 170,-168 176,-168 182,-174 182,-180 182,-180 182,-192 182,-192 182,-198 176,-204 170,-204"/>
<text text-anchor="middle" x="136" y="-182.3" font-family="Helvetica,sans-Serif" font-size="14.00">fail_comp1</text>
</g>
<!-- volt&#45;&gt;fail_comp1 -->
<g id="edge7" class="edge">
<title>volt&#45;&gt;fail_comp1</title>
<path fill="none" stroke="black" stroke-width="1.2" d="M32.26,-346.58C39.84,-316.94 57.94,-257.98 90,-218 92.04,-215.46 94.33,-213.03 96.77,-210.72"/>
<polygon fill="black" stroke="black" stroke-width="1.2" points="99.09,-213.34 104.44,-204.2 94.55,-208.01 99.09,-213.34"/>
</g>
<!-- rotate&#45;&gt;err_error2 -->
<g id="edge10" class="edge">
<title>rotate&#45;&gt;err_error2</title>
<path fill="none" stroke="black" stroke-width="1.2" d="M282.93,-392.36C298.04,-418.42 323.23,-457.76 352,-486 354.81,-488.76 357.9,-491.43 361.1,-493.97"/>
<polygon fill="black" stroke="black" stroke-width="1.2" points="285.82,-390.36 277.83,-383.4 279.74,-393.82 285.82,-390.36"/>
<polygon fill="black" stroke="black" stroke-width="1.2" points="359.11,-496.85 369.23,-500 363.28,-491.23 359.11,-496.85"/>
</g>
<!-- err_error4 -->
<g id="node8" class="node">
<title>err_error4</title>
<path fill="white" stroke="black" d="M680,-562C680,-562 619,-562 619,-562 613,-562 607,-556 607,-550 607,-550 607,-538 607,-538 607,-532 613,-526 619,-526 619,-526 680,-526 680,-526 686,-526 692,-532 692,-538 692,-538 692,-550 692,-550 692,-556 686,-562 680,-562"/>
<text text-anchor="middle" x="649.5" y="-540.3" font-family="Helvetica,sans-Serif" font-size="14.00">err_error4</text>
</g>
<!-- rotate&#45;&gt;err_error4 -->
<g id="edge12" class="edge">
<title>rotate&#45;&gt;err_error4</title>
<path fill="none" stroke="black" stroke-width="1.2" d="M291.79,-383.09C308.17,-395.05 330.73,-410.57 352,-422 434.43,-466.32 536.49,-505.05 596.83,-526.41"/>
<polygon fill="black" stroke="black" stroke-width="1.2" points="595.91,-529.8 606.51,-529.82 598.24,-523.2 595.91,-529.8"/>
</g>
<!-- rotate&#45;&gt;err_error5 -->
<g id="edge13" class="edge">
<title>rotate&#45;&gt;err_error5</title>
<path fill="none" stroke="black" stroke-width="1.2" d="M295.72,-356.6C311.96,-352.05 332.96,-346.8 352,-344 572.97,-311.51 840.5,-317.82 951.43,-322.42"/>
<polygon fill="black" stroke="black" stroke-width="1.2" points="951.52,-325.93 961.67,-322.86 951.82,-318.94 951.52,-325.93"/>
</g>
<!-- pressure -->
<g id="node3" class="node">
<title>pressure</title>
<path fill="white" stroke="black" d="M914,-398C914,-398 861,-398 861,-398 855,-398 849,-392 849,-386 849,-386 849,-374 849,-374 849,-368 855,-362 861,-362 861,-362 914,-362 914,-362 920,-362 926,-368 926,-374 926,-374 926,-386 926,-386 926,-392 920,-398 914,-398"/>
<text text-anchor="middle" x="887.5" y="-376.3" font-family="Helvetica,sans-Serif" font-size="14.00">pressure</text>
</g>
<!-- pressure&#45;&gt;rotate -->
<g id="edge8" class="edge">
<title>pressure&#45;&gt;rotate</title>
<path fill="none" stroke="black" stroke-width="1.2" d="M848.73,-371.16C802.33,-361.08 721.08,-346 650.5,-346 527.5,-346 527.5,-346 527.5,-346 448.43,-346 356.16,-354.88 305.71,-360.5"/>
<polygon fill="black" stroke="black" stroke-width="1.2" points="305.15,-357.04 295.6,-361.65 305.93,-364 305.15,-357.04"/>
</g>
<!-- err_error3 -->
<g id="node7" class="node">
<title>err_error3</title>
<path fill="white" stroke="black" d="M559,-448C559,-448 498,-448 498,-448 492,-448 486,-442 486,-436 486,-436 486,-424 486,-424 486,-418 492,-412 498,-412 498,-412 559,-412 559,-412 565,-412 571,-418 571,-424 571,-424 571,-436 571,-436 571,-442 565,-448 559,-448"/>
<text text-anchor="middle" x="528.5" y="-426.3" font-family="Helvetica,sans-Serif" font-size="14.00">err_error3</text>
</g>
<!-- pressure&#45;&gt;err_error3 -->
<g id="edge17" class="edge">
<title>pressure&#45;&gt;err_error3</title>
<path fill="none" stroke="black" stroke-width="1.2" d="M848.89,-385.27C784.79,-394.25 654.23,-412.53 581.45,-422.72"/>
<polygon fill="black" stroke="black" stroke-width="1.2" points="580.57,-419.31 571.15,-424.17 581.54,-426.25 580.57,-419.31"/>
</g>
<!-- pressure&#45;&gt;err_error4 -->
<g id="edge18" class="edge">
<title>pressure&#45;&gt;err_error4</title>
<path fill="none" stroke="black" stroke-width="1.2" d="M855.46,-404.35C842.48,-414.35 827.15,-425.92 813,-436 770.7,-466.12 720.79,-498.9 687.55,-520.35"/>
<polygon fill="black" stroke="black" stroke-width="1.2" points="857.85,-406.93 863.61,-398.04 853.56,-401.4 857.85,-406.93"/>
<polygon fill="black" stroke="black" stroke-width="1.2" points="685.57,-517.46 679.06,-525.81 689.36,-523.34 685.57,-517.46"/>
</g>
<!-- pressure&#45;&gt;err_error5 -->
<g id="edge19" class="edge">
<title>pressure&#45;&gt;err_error5</title>
<path fill="none" stroke="black" stroke-width="1.2" d="M926.16,-361.99C935.88,-357.34 946.48,-352.27 956.62,-347.42"/>
<polygon fill="black" stroke="black" stroke-width="1.2" points="958.25,-350.52 965.76,-343.05 955.23,-344.21 958.25,-350.52"/>
</g>
<!-- vibration -->
<g id="node4" class="node">
<title>vibration</title>
<path fill="white" stroke="black" d="M1149,-478C1149,-478 1095,-478 1095,-478 1089,-478 1083,-472 1083,-466 1083,-466 1083,-454 1083,-454 1083,-448 1089,-442 1095,-442 1095,-442 1149,-442 1149,-442 1155,-442 1161,-448 1161,-454 1161,-454 1161,-466 1161,-466 1161,-472 1155,-478 1149,-478"/>
<text text-anchor="middle" x="1122" y="-456.3" font-family="Helvetica,sans-Serif" font-size="14.00">vibration</text>
</g>
<!-- vibration&#45;&gt;err_error2 -->
<g id="edge22" class="edge">
<title>vibration&#45;&gt;err_error2</title>
<path fill="none" stroke="black" stroke-width="1.2" d="M1108.46,-478.3C1076.98,-521.84 989.84,-628 888.5,-628 769.5,-628 769.5,-628 769.5,-628 648.49,-628 514.12,-572.58 446.32,-540.42"/>
<polygon fill="black" stroke="black" stroke-width="1.2" points="447.73,-537.21 437.2,-536.04 444.7,-543.52 447.73,-537.21"/>
</g>
<!-- vibration&#45;&gt;err_error4 -->
<g id="edge24" class="edge">
<title>vibration&#45;&gt;err_error4</title>
<path fill="none" stroke="black" stroke-width="1.2" d="M1091.85,-478.06C1078.51,-485.82 1062.3,-494.56 1047,-501 946.94,-543.1 920.41,-555.28 813,-571 775.62,-576.47 765.25,-577.3 728,-571 719.32,-569.53 710.32,-567.2 701.66,-564.51"/>
<polygon fill="black" stroke="black" stroke-width="1.2" points="702.65,-561.15 692.06,-561.34 700.46,-567.8 702.65,-561.15"/>
</g>
<!-- err_error1&#45;&gt;rotate -->
<g id="edge9" class="edge">
<title>err_error1&#45;&gt;rotate</title>
<path fill="none" stroke="black" stroke-width="1.2" d="M753.09,-525.89C738.14,-510 714.93,-486.86 692,-470 642.47,-433.59 629.44,-422.06 571,-403 478.95,-372.98 364.02,-366.45 305.71,-365.18"/>
<polygon fill="black" stroke="black" stroke-width="1.2" points="305.56,-361.67 295.5,-365 305.44,-368.67 305.56,-361.67"/>
</g>
<!-- err_error1&#45;&gt;pressure -->
<g id="edge16" class="edge">
<title>err_error1&#45;&gt;pressure</title>
<path fill="none" stroke="black" stroke-width="1.2" d="M798.37,-525.86C803.57,-521.67 808.73,-516.96 813,-512 840.71,-479.82 862.77,-435.55 875.24,-407.35"/>
<polygon fill="black" stroke="black" stroke-width="1.2" points="878.49,-408.66 879.25,-398.09 872.07,-405.88 878.49,-408.66"/>
</g>
<!-- err_error1&#45;&gt;vibration -->
<g id="edge21" class="edge">
<title>err_error1&#45;&gt;vibration</title>
<path fill="none" stroke="black" stroke-width="1.2" d="M813.31,-533.95C878.59,-518.26 1004.35,-488.04 1073.15,-471.5"/>
<polygon fill="black" stroke="black" stroke-width="1.2" points="1073.97,-474.9 1082.88,-469.16 1072.34,-468.1 1073.97,-474.9"/>
</g>
<!-- err_error2&#45;&gt;err_error3 -->
<g id="edge30" class="edge">
<title>err_error2&#45;&gt;err_error3</title>
<path fill="none" stroke="black" stroke-width="1.2" d="M427.7,-499.98C446.61,-486.72 472.51,-468.56 493.19,-454.06"/>
<polygon fill="black" stroke="black" stroke-width="1.2" points="495.23,-456.91 501.4,-448.3 491.21,-451.17 495.23,-456.91"/>
</g>
<!-- err_error2&#45;&gt;err_error4 -->
<g id="edge31" class="edge">
<title>err_error2&#45;&gt;err_error4</title>
<path fill="none" stroke="black" stroke-width="1.2" d="M443.54,-522.38C485.76,-526.83 551.27,-533.74 596.82,-538.55"/>
<polygon fill="black" stroke="black" stroke-width="1.2" points="596.48,-542.03 606.79,-539.6 597.22,-535.07 596.48,-542.03"/>
</g>
<!-- err_error3&#45;&gt;rotate -->
<g id="edge11" class="edge">
<title>err_error3&#45;&gt;rotate</title>
<path fill="none" stroke="black" stroke-width="1.2" d="M485.85,-424.73C449.96,-419.64 396.98,-410.8 352,-398 336.33,-393.54 319.53,-387.26 305.1,-381.37"/>
<polygon fill="black" stroke="black" stroke-width="1.2" points="306.11,-378 295.53,-377.38 303.42,-384.46 306.11,-378"/>
</g>
<!-- err_error3&#45;&gt;vibration -->
<g id="edge23" class="edge">
<title>err_error3&#45;&gt;vibration</title>
<path fill="none" stroke="black" stroke-width="1.2" d="M571.36,-438.44C619.09,-447.31 699.59,-460 769.5,-460 769.5,-460 769.5,-460 888.5,-460 952.11,-460 1025.5,-460 1072.54,-460"/>
<polygon fill="black" stroke="black" stroke-width="1.2" points="1072.74,-463.5 1082.74,-460 1072.74,-456.5 1072.74,-463.5"/>
</g>
<!-- err_error3&#45;&gt;err_error1 -->
<g id="edge28" class="edge">
<title>err_error3&#45;&gt;err_error1</title>
<path fill="none" stroke="black" stroke-width="1.2" d="M559.63,-448.13C573.81,-456.39 591.07,-466.08 607,-474 643.67,-492.24 686.23,-510.47 718.59,-523.75"/>
<polygon fill="black" stroke="black" stroke-width="1.2" points="717.28,-527 727.86,-527.54 719.92,-520.52 717.28,-527"/>
</g>
<!-- err_error3&#45;&gt;err_error4 -->
<g id="edge32" class="edge">
<title>err_error3&#45;&gt;err_error4</title>
<path fill="none" stroke="black" stroke-width="1.2" d="M563.51,-454.88C566.13,-457.19 568.66,-459.58 571,-462 590.04,-481.68 587.96,-492.32 607,-512 609.34,-514.42 611.87,-516.81 614.49,-519.12"/>
<polygon fill="black" stroke="black" stroke-width="1.2" points="565.42,-451.91 555.5,-448.19 560.93,-457.29 565.42,-451.91"/>
<polygon fill="black" stroke="black" stroke-width="1.2" points="612.58,-522.09 622.5,-525.81 617.07,-516.71 612.58,-522.09"/>
</g>
<!-- err_error4&#45;&gt;volt -->
<g id="edge4" class="edge">
<title>err_error4&#45;&gt;volt</title>
<path fill="none" stroke="black" stroke-width="1.2" d="M606.63,-556.69C557.94,-570.31 474.92,-590 402,-590 266,-590 266,-590 266,-590 152.08,-590 70.7,-452.19 40.7,-392.28"/>
<polygon fill="black" stroke="black" stroke-width="1.2" points="43.72,-390.47 36.17,-383.03 37.43,-393.55 43.72,-390.47"/>
</g>
<!-- err_error4&#45;&gt;err_error1 -->
<g id="edge29" class="edge">
<title>err_error4&#45;&gt;err_error1</title>
<path fill="none" stroke="black" stroke-width="1.2" d="M692.12,-544C700.32,-544 709.01,-544 717.5,-544"/>
<polygon fill="black" stroke="black" stroke-width="1.2" points="717.7,-547.5 727.7,-544 717.7,-540.5 717.7,-547.5"/>
</g>
<!-- err_error5&#45;&gt;vibration -->
<g id="edge25" class="edge">
<title>err_error5&#45;&gt;vibration</title>
<path fill="none" stroke="black" stroke-width="1.2" d="M1021.08,-343.21C1041.05,-366.56 1075.84,-407.21 1098.64,-433.86"/>
<polygon fill="black" stroke="black" stroke-width="1.2" points="1096.14,-436.33 1105.3,-441.65 1101.46,-431.78 1096.14,-436.33"/>
</g>
<!-- mnt_comp1 -->
<g id="node10" class="node">
<title>mnt_comp1</title>
<path fill="white" stroke="black" d="M438,-161C438,-161 364,-161 364,-161 358,-161 352,-155 352,-149 352,-149 352,-137 352,-137 352,-131 358,-125 364,-125 364,-125 438,-125 438,-125 444,-125 450,-131 450,-137 450,-137 450,-149 450,-149 450,-155 444,-161 438,-161"/>
<text text-anchor="middle" x="401" y="-139.3" font-family="Helvetica,sans-Serif" font-size="14.00">mnt_comp1</text>
</g>
<!-- mnt_comp1&#45;&gt;volt -->
<g id="edge6" class="edge">
<title>mnt_comp1&#45;&gt;volt</title>
<path fill="none" stroke="black" stroke-width="1.2" d="M351.94,-130C285.53,-115.15 165.38,-99.89 90,-159 35.31,-201.89 27.37,-291.27 27.11,-336.89"/>
<polygon fill="black" stroke="black" stroke-width="1.2" points="23.61,-337 27.18,-346.97 30.61,-336.95 23.61,-337"/>
</g>
<!-- mnt_comp2 -->
<g id="node11" class="node">
<title>mnt_comp2</title>
<path fill="white" stroke="black" d="M304,-36C304,-36 230,-36 230,-36 224,-36 218,-30 218,-24 218,-24 218,-12 218,-12 218,-6 224,0 230,0 230,0 304,0 304,0 310,0 316,-6 316,-12 316,-12 316,-24 316,-24 316,-30 310,-36 304,-36"/>
<text text-anchor="middle" x="267" y="-14.3" font-family="Helvetica,sans-Serif" font-size="14.00">mnt_comp2</text>
</g>
<!-- mnt_comp3 -->
<g id="node12" class="node">
<title>mnt_comp3</title>
<path fill="white" stroke="black" d="M438,-41C438,-41 364,-41 364,-41 358,-41 352,-35 352,-29 352,-29 352,-17 352,-17 352,-11 358,-5 364,-5 364,-5 438,-5 438,-5 444,-5 450,-11 450,-17 450,-17 450,-29 450,-29 450,-35 444,-41 438,-41"/>
<text text-anchor="middle" x="401" y="-19.3" font-family="Helvetica,sans-Serif" font-size="14.00">mnt_comp3</text>
</g>
<!-- mnt_comp2&#45;&gt;mnt_comp3 -->
<g id="edge36" class="edge">
<title>mnt_comp2&#45;&gt;mnt_comp3</title>
<path fill="none" stroke="black" stroke-width="1.2" d="M316.03,-19.82C324.31,-20.13 333,-20.46 341.52,-20.78"/>
<polygon fill="black" stroke="black" stroke-width="1.2" points="341.66,-24.29 351.79,-21.17 341.93,-17.3 341.66,-24.29"/>
</g>
<!-- mnt_comp4 -->
<g id="node13" class="node">
<title>mnt_comp4</title>
<path fill="white" stroke="black" d="M304,-296C304,-296 230,-296 230,-296 224,-296 218,-290 218,-284 218,-284 218,-272 218,-272 218,-266 224,-260 230,-260 230,-260 304,-260 304,-260 310,-260 316,-266 316,-272 316,-272 316,-284 316,-284 316,-290 310,-296 304,-296"/>
<text text-anchor="middle" x="267" y="-274.3" font-family="Helvetica,sans-Serif" font-size="14.00">mnt_comp4</text>
</g>
<!-- mnt_comp4&#45;&gt;pressure -->
<g id="edge20" class="edge">
<title>mnt_comp4&#45;&gt;pressure</title>
<path fill="none" stroke="black" stroke-width="1.2" d="M316.36,-281.53C353.07,-284.38 404.78,-288.78 450,-294 611.9,-312.7 656.72,-299.74 813,-346 823.22,-349.02 833.82,-353.24 843.7,-357.67"/>
<polygon fill="black" stroke="black" stroke-width="1.2" points="842.36,-360.91 852.9,-361.96 845.31,-354.56 842.36,-360.91"/>
</g>
<!-- mnt_comp4&#45;&gt;mnt_comp1 -->
<g id="edge33" class="edge">
<title>mnt_comp4&#45;&gt;mnt_comp1</title>
<path fill="none" stroke="black" stroke-width="1.2" d="M285.8,-259.79C308.73,-236.34 348.73,-195.44 374.78,-168.79"/>
<polygon fill="black" stroke="black" stroke-width="1.2" points="377.57,-170.95 382.06,-161.35 372.56,-166.05 377.57,-170.95"/>
</g>
<!-- fail_comp1&#45;&gt;rotate -->
<g id="edge14" class="edge">
<title>fail_comp1&#45;&gt;rotate</title>
<path fill="none" stroke="black" stroke-width="1.2" d="M148.66,-204.04C164.03,-227.62 192.16,-270.02 218,-305 226.38,-316.35 236.03,-328.55 244.46,-338.98"/>
<polygon fill="black" stroke="black" stroke-width="1.2" points="241.89,-341.36 250.92,-346.9 247.32,-336.94 241.89,-341.36"/>
</g>
<!-- fail_comp1&#45;&gt;vibration -->
<g id="edge26" class="edge">
<title>fail_comp1&#45;&gt;vibration</title>
<path fill="none" stroke="black" stroke-width="1.2" d="M182.13,-188.21C234.51,-190.58 323.48,-194 400,-194 400,-194 400,-194 888.5,-194 972.76,-194 992.12,-234.07 1047,-298 1081.58,-338.29 1103.07,-397.43 1113.47,-432"/>
<polygon fill="black" stroke="black" stroke-width="1.2" points="1110.19,-433.26 1116.34,-441.89 1116.91,-431.31 1110.19,-433.26"/>
</g>
<!-- fail_comp1&#45;&gt;mnt_comp1 -->
<g id="edge34" class="edge">
<title>fail_comp1&#45;&gt;mnt_comp1</title>
<path fill="none" stroke="black" stroke-width="1.2" d="M182.21,-178.61C226.36,-171.39 293.75,-160.37 341.86,-152.51"/>
<polygon fill="black" stroke="black" stroke-width="1.2" points="342.52,-155.94 351.82,-150.88 341.39,-149.04 342.52,-155.94"/>
</g>
<!-- fail_comp2 -->
<g id="node15" class="node">
<title>fail_comp2</title>
<path fill="white" stroke="black" d="M170,-90C170,-90 102,-90 102,-90 96,-90 90,-84 90,-78 90,-78 90,-66 90,-66 90,-60 96,-54 102,-54 102,-54 170,-54 170,-54 176,-54 182,-60 182,-66 182,-66 182,-78 182,-78 182,-84 176,-90 170,-90"/>
<text text-anchor="middle" x="136" y="-68.3" font-family="Helvetica,sans-Serif" font-size="14.00">fail_comp2</text>
</g>
<!-- fail_comp2&#45;&gt;rotate -->
<g id="edge15" class="edge">
<title>fail_comp2&#45;&gt;rotate</title>
<path fill="none" stroke="black" stroke-width="1.2" d="M147.96,-90.09C158,-107.29 172.67,-134.17 182,-159 205.52,-221.56 188.43,-245.06 218,-305 224.01,-317.18 232.83,-329.16 241.27,-339.17"/>
<polygon fill="black" stroke="black" stroke-width="1.2" points="238.68,-341.53 247.9,-346.75 243.95,-336.92 238.68,-341.53"/>
</g>
<!-- fail_comp2&#45;&gt;mnt_comp2 -->
<g id="edge37" class="edge">
<title>fail_comp2&#45;&gt;mnt_comp2</title>
<path fill="none" stroke="black" stroke-width="1.2" d="M180.31,-53.87C190.84,-49.46 202.22,-44.7 213.14,-40.13"/>
<polygon fill="black" stroke="black" stroke-width="1.2" points="214.71,-43.27 222.58,-36.18 212,-36.81 214.71,-43.27"/>
</g>
<!-- fail_comp3 -->
<g id="node16" class="node">
<title>fail_comp3</title>
<path fill="white" stroke="black" d="M301,-90C301,-90 233,-90 233,-90 227,-90 221,-84 221,-78 221,-78 221,-66 221,-66 221,-60 227,-54 233,-54 233,-54 301,-54 301,-54 307,-54 313,-60 313,-66 313,-66 313,-78 313,-78 313,-84 307,-90 301,-90"/>
<text text-anchor="middle" x="267" y="-68.3" font-family="Helvetica,sans-Serif" font-size="14.00">fail_comp3</text>
</g>
<!-- fail_comp2&#45;&gt;fail_comp3 -->
<g id="edge39" class="edge">
<title>fail_comp2&#45;&gt;fail_comp3</title>
<path fill="none" stroke="black" stroke-width="1.2" d="M182.12,-72C191.3,-72 201.05,-72 210.54,-72"/>
<polygon fill="black" stroke="black" stroke-width="1.2" points="210.69,-75.5 220.69,-72 210.69,-68.5 210.69,-75.5"/>
</g>
<!-- fail_comp3&#45;&gt;vibration -->
<g id="edge27" class="edge">
<title>fail_comp3&#45;&gt;vibration</title>
<path fill="none" stroke="black" stroke-width="1.2" d="M313.42,-76.5C365.18,-81.23 452.35,-88 527.5,-88 527.5,-88 527.5,-88 888.5,-88 969.95,-88 997.6,-115.24 1047,-180 1105.91,-257.23 1118.05,-377.36 1120.46,-431.65"/>
<polygon fill="black" stroke="black" stroke-width="1.2" points="1116.97,-432.04 1120.83,-441.9 1123.97,-431.78 1116.97,-432.04"/>
</g>
<!-- fail_comp3&#45;&gt;mnt_comp1 -->
<g id="edge35" class="edge">
<title>fail_comp3&#45;&gt;mnt_comp1</title>
<path fill="none" stroke="black" stroke-width="1.2" d="M301.65,-90.1C318.56,-99.2 339.24,-110.32 357.26,-120.01"/>
<polygon fill="black" stroke="black" stroke-width="1.2" points="355.95,-123.28 366.41,-124.93 359.26,-117.11 355.95,-123.28"/>
</g>
<!-- fail_comp3&#45;&gt;mnt_comp3 -->
<g id="edge38" class="edge">
<title>fail_comp3&#45;&gt;mnt_comp3</title>
<path fill="none" stroke="black" stroke-width="1.2" d="M313.06,-55.27C322.47,-51.78 332.51,-48.05 342.31,-44.42"/>
<polygon fill="black" stroke="black" stroke-width="1.2" points="343.83,-47.58 351.99,-40.82 341.4,-41.02 343.83,-47.58"/>
</g>
</g>
</svg>
