<?xml version="1.0" encoding="UTF-8" standalone="no"?>
<!DOCTYPE svg PUBLIC "-//W3C//DTD SVG 1.1//EN"
 "http://www.w3.org/Graphics/SVG/1.1/DTD/svg11.dtd">
<!-- Generated by graphviz version 2.50.0 (0)
 -->
<!-- Title: G Pages: 1 -->
<svg width="1168pt" height="506pt"
 viewBox="0.00 0.00 1168.00 506.00" xmlns="http://www.w3.org/2000/svg" xmlns:xlink="http://www.w3.org/1999/xlink">
<g id="graph0" class="graph" transform="scale(1 1) rotate(0) translate(4 502)">
<title>G</title>
<polygon fill="white" stroke="transparent" points="-4,4 -4,-502 1164,-502 1164,4 -4,4"/>
<text text-anchor="middle" x="580" y="-481.2" font-family="Times,serif" font-size="16.00">model=model4/cbnb_w_mixed.json [machine 77]</text>
<!-- volt -->
<g id="node1" class="node">
<title>volt</title>
<path fill="white" stroke="black" d="M163,-170C163,-170 133,-170 133,-170 127,-170 121,-164 121,-158 121,-158 121,-146 121,-146 121,-140 127,-134 133,-134 133,-134 163,-134 163,-134 169,-134 175,-140 175,-146 175,-146 175,-158 175,-158 175,-164 169,-170 163,-170"/>
<text text-anchor="middle" x="148" y="-148.3" font-family="Helvetica,sans-Serif" font-size="14.00">volt</text>
</g>
<!-- rotate -->
<g id="node2" class="node">
<title>rotate</title>
<path fill="white" stroke="black" d="M256,-265C256,-265 223,-265 223,-265 217,-265 211,-259 211,-253 211,-253 211,-241 211,-241 211,-235 217,-229 223,-229 223,-229 256,-229 256,-229 262,-229 268,-235 268,-241 268,-241 268,-253 268,-253 268,-259 262,-265 256,-265"/>
<text text-anchor="middle" x="239.5" y="-243.3" font-family="Helvetica,sans-Serif" font-size="14.00">rotate</text>
</g>
<!-- volt&#45;&gt;rotate -->
<g id="edge1" class="edge">
<title>volt&#45;&gt;rotate</title>
<path fill="none" stroke="black" stroke-width="1.2" d="M173.35,-177.84C186.04,-191.31 201.51,-207.74 214.19,-221.2"/>
<polygon fill="black" stroke="black" stroke-width="1.2" points="175.66,-175.2 166.26,-170.32 170.57,-180 175.66,-175.2"/>
<polygon fill="black" stroke="black" stroke-width="1.2" points="211.89,-223.86 221.3,-228.74 216.99,-219.06 211.89,-223.86"/>
</g>
<!-- err_error1 -->
<g id="node5" class="node">
<title>err_error1</title>
<path fill="white" stroke="black" d="M1141.5,-206C1141.5,-206 1080.5,-206 1080.5,-206 1074.5,-206 1068.5,-200 1068.5,-194 1068.5,-194 1068.5,-182 1068.5,-182 1068.5,-176 1074.5,-170 1080.5,-170 1080.5,-170 1141.5,-170 1141.5,-170 1147.5,-170 1153.5,-176 1153.5,-182 1153.5,-182 1153.5,-194 1153.5,-194 1153.5,-200 1147.5,-206 1141.5,-206"/>
<text text-anchor="middle" x="1111" y="-184.3" font-family="Helvetica,sans-Serif" font-size="14.00">err_error1</text>
</g>
<!-- volt&#45;&gt;err_error1 -->
<g id="edge4" class="edge">
<title>volt&#45;&gt;err_error1</title>
<path fill="none" stroke="black" stroke-width="1.2" d="M169.4,-133.97C217.12,-93.7 341.26,0 463,0 463,0 463,0 844,0 954.89,0 1051.96,-110.3 1091.33,-161.93"/>
<polygon fill="black" stroke="black" stroke-width="1.2" points="1088.56,-164.07 1097.36,-169.97 1094.16,-159.87 1088.56,-164.07"/>
</g>
<!-- mnt_comp1 -->
<g id="node10" class="node">
<title>mnt_comp1</title>
<path fill="white" stroke="black" d="M1148,-412C1148,-412 1074,-412 1074,-412 1068,-412 1062,-406 1062,-400 1062,-400 1062,-388 1062,-388 1062,-382 1068,-376 1074,-376 1074,-376 1148,-376 1148,-376 1154,-376 1160,-382 1160,-388 1160,-388 1160,-400 1160,-400 1160,-406 1154,-412 1148,-412"/>
<text text-anchor="middle" x="1111" y="-390.3" font-family="Helvetica,sans-Serif" font-size="14.00">mnt_comp1</text>
</g>
<!-- volt&#45;&gt;mnt_comp1 -->
<g id="edge7" class="edge">
<title>volt&#45;&gt;mnt_comp1</title>
<path fill="none" stroke="black" stroke-width="1.2" d="M152.63,-180.22C164.43,-258.38 209.14,-472 345.5,-472 345.5,-472 345.5,-472 844,-472 926.73,-472 947.55,-459.25 1026,-433 1039.5,-428.48 1053.7,-422.43 1066.51,-416.44"/>
<polygon fill="black" stroke="black" stroke-width="1.2" points="156.07,-179.52 151.18,-170.12 149.14,-180.52 156.07,-179.52"/>
<polygon fill="black" stroke="black" stroke-width="1.2" points="1068.05,-419.58 1075.57,-412.11 1065.03,-413.27 1068.05,-419.58"/>
</g>
<!-- vibration -->
<g id="node4" class="node">
<title>vibration</title>
<path fill="white" stroke="black" d="M491,-330C491,-330 437,-330 437,-330 431,-330 425,-324 425,-318 425,-318 425,-306 425,-306 425,-300 431,-294 437,-294 437,-294 491,-294 491,-294 497,-294 503,-300 503,-306 503,-306 503,-318 503,-318 503,-324 497,-330 491,-330"/>
<text text-anchor="middle" x="464" y="-308.3" font-family="Helvetica,sans-Serif" font-size="14.00">vibration</text>
</g>
<!-- rotate&#45;&gt;vibration -->
<g id="edge9" class="edge">
<title>rotate&#45;&gt;vibration</title>
<path fill="none" stroke="black" stroke-width="1.2" d="M251.06,-274.67C261.05,-296.54 278.37,-325.55 304,-339 339.54,-357.65 385.13,-346.95 418.38,-333.92"/>
<polygon fill="black" stroke="black" stroke-width="1.2" points="254.15,-273 246.98,-265.2 247.72,-275.77 254.15,-273"/>
<polygon fill="black" stroke="black" stroke-width="1.2" points="419.93,-337.07 427.84,-330.02 417.26,-330.59 419.93,-337.07"/>
</g>
<!-- rotate&#45;&gt;err_error1 -->
<g id="edge10" class="edge">
<title>rotate&#45;&gt;err_error1</title>
<path fill="none" stroke="black" stroke-width="1.2" d="M269.58,-222.77C279.96,-215 292.05,-206.89 304,-201 468.89,-119.67 524.14,-112 708,-112 708,-112 708,-112 844,-112 923.13,-112 1010.57,-143.47 1062.86,-165.91"/>
<polygon fill="black" stroke="black" stroke-width="1.2" points="267.44,-220 261.66,-228.88 271.72,-225.54 267.44,-220"/>
<polygon fill="black" stroke="black" stroke-width="1.2" points="1061.64,-169.2 1072.21,-169.99 1064.44,-162.78 1061.64,-169.2"/>
</g>
<!-- err_error3 -->
<g id="node7" class="node">
<title>err_error3</title>
<path fill="white" stroke="black" d="M377,-330C377,-330 316,-330 316,-330 310,-330 304,-324 304,-318 304,-318 304,-306 304,-306 304,-300 310,-294 316,-294 316,-294 377,-294 377,-294 383,-294 389,-300 389,-306 389,-306 389,-318 389,-318 389,-324 383,-330 377,-330"/>
<text text-anchor="middle" x="346.5" y="-308.3" font-family="Helvetica,sans-Serif" font-size="14.00">err_error3</text>
</g>
<!-- rotate&#45;&gt;err_error3 -->
<g id="edge11" class="edge">
<title>rotate&#45;&gt;err_error3</title>
<path fill="none" stroke="black" stroke-width="1.2" d="M276.75,-269.44C286.73,-275.62 297.58,-282.34 307.65,-288.57"/>
<polygon fill="black" stroke="black" stroke-width="1.2" points="278.43,-266.37 268.09,-264.08 274.75,-272.32 278.43,-266.37"/>
<polygon fill="black" stroke="black" stroke-width="1.2" points="305.92,-291.61 316.26,-293.9 309.6,-285.66 305.92,-291.61"/>
</g>
<!-- err_error5 -->
<g id="node9" class="node">
<title>err_error5</title>
<path fill="white" stroke="black" d="M612,-284C612,-284 551,-284 551,-284 545,-284 539,-278 539,-272 539,-272 539,-260 539,-260 539,-254 545,-248 551,-248 551,-248 612,-248 612,-248 618,-248 624,-254 624,-260 624,-260 624,-272 624,-272 624,-278 618,-284 612,-284"/>
<text text-anchor="middle" x="581.5" y="-262.3" font-family="Helvetica,sans-Serif" font-size="14.00">err_error5</text>
</g>
<!-- rotate&#45;&gt;err_error5 -->
<g id="edge13" class="edge">
<title>rotate&#45;&gt;err_error5</title>
<path fill="none" stroke="black" stroke-width="1.2" d="M278.11,-249.1C339.1,-252.51 459.68,-259.25 528.73,-263.11"/>
<polygon fill="black" stroke="black" stroke-width="1.2" points="278.22,-245.6 268.04,-248.54 277.82,-252.59 278.22,-245.6"/>
<polygon fill="black" stroke="black" stroke-width="1.2" points="528.76,-266.61 538.94,-263.68 529.15,-259.62 528.76,-266.61"/>
</g>
<!-- rotate&#45;&gt;mnt_comp1 -->
<g id="edge14" class="edge">
<title>rotate&#45;&gt;mnt_comp1</title>
<path fill="none" stroke="black" stroke-width="1.2" d="M248.86,-274.85C258.08,-300.6 275.53,-337.84 304,-358 452.97,-463.49 525.46,-432 708,-432 708,-432 708,-432 844,-432 916.09,-432 998.08,-418.15 1051.74,-407.18"/>
<polygon fill="black" stroke="black" stroke-width="1.2" points="252.14,-273.62 245.61,-265.27 245.51,-275.87 252.14,-273.62"/>
<polygon fill="black" stroke="black" stroke-width="1.2" points="1052.68,-410.56 1061.76,-405.09 1051.25,-403.7 1052.68,-410.56"/>
</g>
<!-- pressure -->
<g id="node3" class="node">
<title>pressure</title>
<path fill="white" stroke="black" d="M608,-176C608,-176 555,-176 555,-176 549,-176 543,-170 543,-164 543,-164 543,-152 543,-152 543,-146 549,-140 555,-140 555,-140 608,-140 608,-140 614,-140 620,-146 620,-152 620,-152 620,-164 620,-164 620,-170 614,-176 608,-176"/>
<text text-anchor="middle" x="581.5" y="-154.3" font-family="Helvetica,sans-Serif" font-size="14.00">pressure</text>
</g>
<!-- pressure&#45;&gt;volt -->
<g id="edge2" class="edge">
<title>pressure&#45;&gt;volt</title>
<path fill="none" stroke="black" stroke-width="1.2" d="M542.64,-146.19C530.14,-142.85 516.1,-139.66 503,-138 374.26,-121.66 339.98,-123.62 211,-138 202.5,-138.95 193.47,-140.6 185,-142.45"/>
<polygon fill="black" stroke="black" stroke-width="1.2" points="183.98,-139.1 175.03,-144.77 185.56,-145.92 183.98,-139.1"/>
</g>
<!-- pressure&#45;&gt;rotate -->
<g id="edge8" class="edge">
<title>pressure&#45;&gt;rotate</title>
<path fill="none" stroke="black" stroke-width="1.2" d="M542.74,-166.66C489.33,-179.08 388.76,-203.1 304,-227 295.52,-229.39 286.47,-232.13 277.93,-234.8"/>
<polygon fill="black" stroke="black" stroke-width="1.2" points="276.69,-231.52 268.21,-237.87 278.8,-238.19 276.69,-231.52"/>
</g>
<!-- pressure&#45;&gt;err_error1 -->
<g id="edge16" class="edge">
<title>pressure&#45;&gt;err_error1</title>
<path fill="none" stroke="black" stroke-width="1.2" d="M620.01,-160.13C712.61,-165.4 952.19,-179.02 1058.21,-185.05"/>
<polygon fill="black" stroke="black" stroke-width="1.2" points="1058.17,-188.56 1068.35,-185.63 1058.56,-181.57 1058.17,-188.56"/>
</g>
<!-- mnt_comp4 -->
<g id="node13" class="node">
<title>mnt_comp4</title>
<path fill="white" stroke="black" d="M746,-309C746,-309 672,-309 672,-309 666,-309 660,-303 660,-297 660,-297 660,-285 660,-285 660,-279 666,-273 672,-273 672,-273 746,-273 746,-273 752,-273 758,-279 758,-285 758,-285 758,-297 758,-297 758,-303 752,-309 746,-309"/>
<text text-anchor="middle" x="709" y="-287.3" font-family="Helvetica,sans-Serif" font-size="14.00">mnt_comp4</text>
</g>
<!-- pressure&#45;&gt;mnt_comp4 -->
<g id="edge18" class="edge">
<title>pressure&#45;&gt;mnt_comp4</title>
<path fill="none" stroke="black" stroke-width="1.2" d="M612.83,-176.06C616.74,-178.87 620.57,-181.87 624,-185 650.21,-208.87 674.72,-241.45 690.42,-264.16"/>
<polygon fill="black" stroke="black" stroke-width="1.2" points="687.67,-266.34 696.19,-272.64 693.45,-262.41 687.67,-266.34"/>
</g>
<!-- vibration&#45;&gt;volt -->
<g id="edge3" class="edge">
<title>vibration&#45;&gt;volt</title>
<path fill="none" stroke="black" stroke-width="1.2" d="M441.25,-330.06C427.27,-340.46 408.2,-352.52 389,-358 352.67,-368.37 339.26,-371.57 304,-358 224.64,-327.47 177.7,-228.8 158.77,-179.94"/>
<polygon fill="black" stroke="black" stroke-width="1.2" points="161.95,-178.44 155.16,-170.31 155.4,-180.9 161.95,-178.44"/>
</g>
<!-- vibration&#45;&gt;pressure -->
<g id="edge15" class="edge">
<title>vibration&#45;&gt;pressure</title>
<path fill="none" stroke="black" stroke-width="1.2" d="M472.32,-293.86C483.61,-267.54 507.33,-218.27 539,-185 539.65,-184.32 540.32,-183.65 541,-182.98"/>
<polygon fill="black" stroke="black" stroke-width="1.2" points="543.55,-185.42 548.89,-176.27 539.01,-180.09 543.55,-185.42"/>
</g>
<!-- err_error4 -->
<g id="node8" class="node">
<title>err_error4</title>
<path fill="white" stroke="black" d="M612,-230C612,-230 551,-230 551,-230 545,-230 539,-224 539,-218 539,-218 539,-206 539,-206 539,-200 545,-194 551,-194 551,-194 612,-194 612,-194 618,-194 624,-200 624,-206 624,-206 624,-218 624,-218 624,-224 618,-230 612,-230"/>
<text text-anchor="middle" x="581.5" y="-208.3" font-family="Helvetica,sans-Serif" font-size="14.00">err_error4</text>
</g>
<!-- vibration&#45;&gt;err_error4 -->
<g id="edge20" class="edge">
<title>vibration&#45;&gt;err_error4</title>
<path fill="none" stroke="black" stroke-width="1.2" d="M488.31,-286.56C502.34,-271.9 520.92,-253.55 539,-239 540.17,-238.06 541.38,-237.12 542.61,-236.18"/>
<polygon fill="black" stroke="black" stroke-width="1.2" points="485.75,-284.18 481.42,-293.85 490.83,-288.99 485.75,-284.18"/>
<polygon fill="black" stroke="black" stroke-width="1.2" points="544.89,-238.85 550.95,-230.16 540.8,-233.17 544.89,-238.85"/>
</g>
<!-- vibration&#45;&gt;err_error5 -->
<g id="edge21" class="edge">
<title>vibration&#45;&gt;err_error5</title>
<path fill="none" stroke="black" stroke-width="1.2" d="M503.14,-296.81C511.54,-293.47 520.56,-289.87 529.37,-286.36"/>
<polygon fill="black" stroke="black" stroke-width="1.2" points="530.82,-289.55 538.82,-282.6 528.23,-283.05 530.82,-289.55"/>
</g>
<!-- err_error2 -->
<g id="node6" class="node">
<title>err_error2</title>
<path fill="white" stroke="black" d="M73,-94C73,-94 12,-94 12,-94 6,-94 0,-88 0,-82 0,-82 0,-70 0,-70 0,-64 6,-58 12,-58 12,-58 73,-58 73,-58 79,-58 85,-64 85,-70 85,-70 85,-82 85,-82 85,-88 79,-94 73,-94"/>
<text text-anchor="middle" x="42.5" y="-72.3" font-family="Helvetica,sans-Serif" font-size="14.00">err_error2</text>
</g>
<!-- err_error2&#45;&gt;volt -->
<g id="edge5" class="edge">
<title>err_error2&#45;&gt;volt</title>
<path fill="none" stroke="black" stroke-width="1.2" d="M68.03,-94.01C81.72,-104.06 98.97,-116.73 113.85,-127.66"/>
<polygon fill="black" stroke="black" stroke-width="1.2" points="112.16,-130.76 122.29,-133.85 116.3,-125.12 112.16,-130.76"/>
</g>
<!-- err_error2&#45;&gt;pressure -->
<g id="edge17" class="edge">
<title>err_error2&#45;&gt;pressure</title>
<path fill="none" stroke="black" stroke-width="1.2" d="M85.11,-76.34C166.64,-77.91 352.56,-85.88 503,-125 513.62,-127.76 524.67,-131.74 534.99,-135.98"/>
<polygon fill="black" stroke="black" stroke-width="1.2" points="533.66,-139.22 544.23,-139.93 536.4,-132.78 533.66,-139.22"/>
</g>
<!-- err_error3&#45;&gt;vibration -->
<g id="edge19" class="edge">
<title>err_error3&#45;&gt;vibration</title>
<path fill="none" stroke="black" stroke-width="1.2" d="M389.2,-312C397.47,-312 406.21,-312 414.68,-312"/>
<polygon fill="black" stroke="black" stroke-width="1.2" points="414.82,-315.5 424.82,-312 414.82,-308.5 414.82,-315.5"/>
</g>
<!-- err_error4&#45;&gt;volt -->
<g id="edge6" class="edge">
<title>err_error4&#45;&gt;volt</title>
<path fill="none" stroke="black" stroke-width="1.2" d="M538.94,-206.22C454.58,-194.49 264.54,-168.07 185.04,-157.01"/>
<polygon fill="black" stroke="black" stroke-width="1.2" points="185.41,-153.53 175.02,-155.62 184.44,-160.46 185.41,-153.53"/>
</g>
<!-- err_error4&#45;&gt;rotate -->
<g id="edge12" class="edge">
<title>err_error4&#45;&gt;rotate</title>
<path fill="none" stroke="black" stroke-width="1.2" d="M538.94,-216.28C472.22,-223.15 342.23,-236.53 278.11,-243.13"/>
<polygon fill="black" stroke="black" stroke-width="1.2" points="277.62,-239.66 268.04,-244.17 278.34,-246.62 277.62,-239.66"/>
</g>
<!-- err_error4&#45;&gt;err_error1 -->
<g id="edge24" class="edge">
<title>err_error4&#45;&gt;err_error1</title>
<path fill="none" stroke="black" stroke-width="1.2" d="M624.33,-210.1C719.84,-205.75 953.74,-195.11 1058.17,-190.36"/>
<polygon fill="black" stroke="black" stroke-width="1.2" points="1058.33,-193.85 1068.16,-189.9 1058.01,-186.86 1058.33,-193.85"/>
</g>
<!-- mnt_comp1&#45;&gt;vibration -->
<g id="edge22" class="edge">
<title>mnt_comp1&#45;&gt;vibration</title>
<path fill="none" stroke="black" stroke-width="1.2" d="M1061.95,-394C1008.67,-394 920.2,-394 844,-394 708,-394 708,-394 708,-394 633.7,-394 553.01,-359.16 505.83,-334.9"/>
<polygon fill="black" stroke="black" stroke-width="1.2" points="507.34,-331.73 496.86,-330.2 504.09,-337.94 507.34,-331.73"/>
</g>
<!-- mnt_comp2 -->
<g id="node11" class="node">
<title>mnt_comp2</title>
<path fill="white" stroke="black" d="M1014,-328C1014,-328 940,-328 940,-328 934,-328 928,-322 928,-316 928,-316 928,-304 928,-304 928,-298 934,-292 940,-292 940,-292 1014,-292 1014,-292 1020,-292 1026,-298 1026,-304 1026,-304 1026,-316 1026,-316 1026,-322 1020,-328 1014,-328"/>
<text text-anchor="middle" x="977" y="-306.3" font-family="Helvetica,sans-Serif" font-size="14.00">mnt_comp2</text>
</g>
<!-- mnt_comp2&#45;&gt;err_error1 -->
<g id="edge25" class="edge">
<title>mnt_comp2&#45;&gt;err_error1</title>
<path fill="none" stroke="black" stroke-width="1.2" d="M1007.47,-291.92C1013.78,-287.62 1020.27,-282.86 1026,-278 1049.24,-258.27 1072.66,-232.59 1088.84,-213.71"/>
<polygon fill="black" stroke="black" stroke-width="1.2" points="1091.52,-215.97 1095.31,-206.08 1086.18,-211.44 1091.52,-215.97"/>
</g>
<!-- mnt_comp2&#45;&gt;mnt_comp1 -->
<g id="edge28" class="edge">
<title>mnt_comp2&#45;&gt;mnt_comp1</title>
<path fill="none" stroke="black" stroke-width="1.2" d="M1006.32,-328.02C1025.67,-340.34 1051.53,-356.79 1072.58,-370.19"/>
<polygon fill="black" stroke="black" stroke-width="1.2" points="1070.96,-373.3 1081.27,-375.72 1074.72,-367.4 1070.96,-373.3"/>
</g>
<!-- mnt_comp3 -->
<g id="node12" class="node">
<title>mnt_comp3</title>
<path fill="white" stroke="black" d="M880,-309C880,-309 806,-309 806,-309 800,-309 794,-303 794,-297 794,-297 794,-285 794,-285 794,-279 800,-273 806,-273 806,-273 880,-273 880,-273 886,-273 892,-279 892,-285 892,-285 892,-297 892,-297 892,-303 886,-309 880,-309"/>
<text text-anchor="middle" x="843" y="-287.3" font-family="Helvetica,sans-Serif" font-size="14.00">mnt_comp3</text>
</g>
<!-- mnt_comp3&#45;&gt;err_error1 -->
<g id="edge26" class="edge">
<title>mnt_comp3&#45;&gt;err_error1</title>
<path fill="none" stroke="black" stroke-width="1.2" d="M892.02,-281.43C929.47,-273.05 982.28,-259.2 1026,-240 1043.46,-232.33 1061.6,-221.52 1076.53,-211.73"/>
<polygon fill="black" stroke="black" stroke-width="1.2" points="1078.56,-214.59 1084.92,-206.13 1074.67,-208.77 1078.56,-214.59"/>
</g>
<!-- mnt_comp3&#45;&gt;mnt_comp2 -->
<g id="edge30" class="edge">
<title>mnt_comp3&#45;&gt;mnt_comp2</title>
<path fill="none" stroke="black" stroke-width="1.2" d="M892.03,-297.91C900.4,-299.12 909.19,-300.38 917.8,-301.62"/>
<polygon fill="black" stroke="black" stroke-width="1.2" points="917.39,-305.1 927.79,-303.06 918.39,-298.17 917.39,-305.1"/>
</g>
<!-- mnt_comp4&#45;&gt;vibration -->
<g id="edge23" class="edge">
<title>mnt_comp4&#45;&gt;vibration</title>
<path fill="none" stroke="black" stroke-width="1.2" d="M659.96,-295.15C617.5,-298.82 555.89,-304.14 513.35,-307.82"/>
<polygon fill="black" stroke="black" stroke-width="1.2" points="512.9,-304.35 503.24,-308.7 513.5,-311.32 512.9,-304.35"/>
</g>
<!-- mnt_comp4&#45;&gt;err_error1 -->
<g id="edge27" class="edge">
<title>mnt_comp4&#45;&gt;err_error1</title>
<path fill="none" stroke="black" stroke-width="1.2" d="M758.23,-274.81C769.89,-271.09 782.35,-267.27 794,-264 886.38,-238.08 995.45,-213.07 1058.28,-199.19"/>
<polygon fill="black" stroke="black" stroke-width="1.2" points="1059.32,-202.54 1068.33,-196.97 1057.82,-195.71 1059.32,-202.54"/>
</g>
<!-- mnt_comp4&#45;&gt;mnt_comp1 -->
<g id="edge29" class="edge">
<title>mnt_comp4&#45;&gt;mnt_comp1</title>
<path fill="none" stroke="black" stroke-width="1.2" d="M758.23,-307.19C769.89,-310.91 782.35,-314.73 794,-318 883.34,-343.06 988.3,-367.29 1051.95,-381.41"/>
<polygon fill="black" stroke="black" stroke-width="1.2" points="1051.28,-384.85 1061.8,-383.59 1052.79,-378.01 1051.28,-384.85"/>
</g>
<!-- mnt_comp4&#45;&gt;mnt_comp3 -->
<g id="edge31" class="edge">
<title>mnt_comp4&#45;&gt;mnt_comp3</title>
<path fill="none" stroke="black" stroke-width="1.2" d="M758.03,-291C766.31,-291 775,-291 783.52,-291"/>
<polygon fill="black" stroke="black" stroke-width="1.2" points="783.79,-294.5 793.79,-291 783.79,-287.5 783.79,-294.5"/>
</g>
</g>
</svg>
