<?xml version="1.0" encoding="UTF-8" standalone="no"?>
<!DOCTYPE svg PUBLIC "-//W3C//DTD SVG 1.1//EN"
 "http://www.w3.org/Graphics/SVG/1.1/DTD/svg11.dtd">
<!-- Generated by graphviz version 2.50.0 (0)
 -->
<!-- Title: G Pages: 1 -->
<svg width="1416pt" height="675pt"
 viewBox="0.00 0.00 1416.00 675.05" xmlns="http://www.w3.org/2000/svg" xmlns:xlink="http://www.w3.org/1999/xlink">
<g id="graph0" class="graph" transform="scale(1 1) rotate(0) translate(4 671.05)">
<title>G</title>
<polygon fill="white" stroke="transparent" points="-4,4 -4,-671.05 1412,-671.05 1412,4 -4,4"/>
<text text-anchor="middle" x="704" y="-650.25" font-family="Times,serif" font-size="16.00">model=model1/cbnb_w_mixed.json [machine 23]</text>
<!-- volt -->
<g id="node1" class="node">
<title>volt</title>
<path fill="white" stroke="black" d="M163,-414C163,-414 133,-414 133,-414 127,-414 121,-408 121,-402 121,-402 121,-390 121,-390 121,-384 127,-378 133,-378 133,-378 163,-378 163,-378 169,-378 175,-384 175,-390 175,-390 175,-402 175,-402 175,-408 169,-414 163,-414"/>
<text text-anchor="middle" x="148" y="-392.3" font-family="Helvetica,sans-Serif" font-size="14.00">volt</text>
</g>
<!-- vibration -->
<g id="node4" class="node">
<title>vibration</title>
<path fill="white" stroke="black" d="M277,-216C277,-216 223,-216 223,-216 217,-216 211,-210 211,-204 211,-204 211,-192 211,-192 211,-186 217,-180 223,-180 223,-180 277,-180 277,-180 283,-180 289,-186 289,-192 289,-192 289,-204 289,-204 289,-210 283,-216 277,-216"/>
<text text-anchor="middle" x="250" y="-194.3" font-family="Helvetica,sans-Serif" font-size="14.00">vibration</text>
</g>
<!-- volt&#45;&gt;vibration -->
<g id="edge3" class="edge">
<title>volt&#45;&gt;vibration</title>
<path fill="none" stroke="black" stroke-width="1.2" d="M152.58,-377.86C159.57,-345.71 177.4,-277.64 211,-230 212.52,-227.84 214.22,-225.74 216.04,-223.72"/>
<polygon fill="black" stroke="black" stroke-width="1.2" points="218.86,-225.85 223.48,-216.32 213.92,-220.89 218.86,-225.85"/>
</g>
<!-- err_error2 -->
<g id="node6" class="node">
<title>err_error2</title>
<path fill="white" stroke="black" d="M756.5,-574C756.5,-574 695.5,-574 695.5,-574 689.5,-574 683.5,-568 683.5,-562 683.5,-562 683.5,-550 683.5,-550 683.5,-544 689.5,-538 695.5,-538 695.5,-538 756.5,-538 756.5,-538 762.5,-538 768.5,-544 768.5,-550 768.5,-550 768.5,-562 768.5,-562 768.5,-568 762.5,-574 756.5,-574"/>
<text text-anchor="middle" x="726" y="-552.3" font-family="Helvetica,sans-Serif" font-size="14.00">err_error2</text>
</g>
<!-- volt&#45;&gt;err_error2 -->
<g id="edge5" class="edge">
<title>volt&#45;&gt;err_error2</title>
<path fill="none" stroke="black" stroke-width="1.2" d="M152.27,-414.29C158.39,-442.72 174.42,-497.06 211,-524 268.55,-566.38 298.53,-548 370,-548 370,-548 370,-548 503,-548 561.32,-548 628.2,-550.79 673.18,-553.08"/>
<polygon fill="black" stroke="black" stroke-width="1.2" points="673.11,-556.58 683.28,-553.6 673.48,-549.59 673.11,-556.58"/>
</g>
<!-- mnt_comp1 -->
<g id="node10" class="node">
<title>mnt_comp1</title>
<path fill="white" stroke="black" d="M1396,-410C1396,-410 1322,-410 1322,-410 1316,-410 1310,-404 1310,-398 1310,-398 1310,-386 1310,-386 1310,-380 1316,-374 1322,-374 1322,-374 1396,-374 1396,-374 1402,-374 1408,-380 1408,-386 1408,-386 1408,-398 1408,-398 1408,-404 1402,-410 1396,-410"/>
<text text-anchor="middle" x="1359" y="-388.3" font-family="Helvetica,sans-Serif" font-size="14.00">mnt_comp1</text>
</g>
<!-- volt&#45;&gt;mnt_comp1 -->
<g id="edge9" class="edge">
<title>volt&#45;&gt;mnt_comp1</title>
<path fill="none" stroke="black" stroke-width="1.2" d="M150.51,-414.03C154.31,-446.99 167.35,-516.72 211,-551 392.47,-693.5 494.26,-624 725,-624 725,-624 725,-624 1098.5,-624 1186.77,-624 1209.85,-591.64 1274,-531 1308.02,-498.84 1333.25,-449.93 1346.77,-419.52"/>
<polygon fill="black" stroke="black" stroke-width="1.2" points="1349.99,-420.91 1350.75,-410.34 1343.56,-418.13 1349.99,-420.91"/>
</g>
<!-- fail_comp2 -->
<g id="node15" class="node">
<title>fail_comp2</title>
<path fill="white" stroke="black" d="M760,-330C760,-330 692,-330 692,-330 686,-330 680,-324 680,-318 680,-318 680,-306 680,-306 680,-300 686,-294 692,-294 692,-294 760,-294 760,-294 766,-294 772,-300 772,-306 772,-306 772,-318 772,-318 772,-324 766,-330 760,-330"/>
<text text-anchor="middle" x="726" y="-308.3" font-family="Helvetica,sans-Serif" font-size="14.00">fail_comp2</text>
</g>
<!-- volt&#45;&gt;fail_comp2 -->
<g id="edge11" class="edge">
<title>volt&#45;&gt;fail_comp2</title>
<path fill="none" stroke="black" stroke-width="1.2" d="M171.96,-370.65C182.73,-360.49 196.41,-349.83 211,-344 293.01,-311.24 554.5,-309.98 669.66,-311.12"/>
<polygon fill="black" stroke="black" stroke-width="1.2" points="169.29,-368.36 164.65,-377.88 174.22,-373.33 169.29,-368.36"/>
<polygon fill="black" stroke="black" stroke-width="1.2" points="669.64,-314.62 679.67,-311.23 669.71,-307.62 669.64,-314.62"/>
</g>
<!-- rotate -->
<g id="node2" class="node">
<title>rotate</title>
<path fill="white" stroke="black" d="M632,-292C632,-292 599,-292 599,-292 593,-292 587,-286 587,-280 587,-280 587,-268 587,-268 587,-262 593,-256 599,-256 599,-256 632,-256 632,-256 638,-256 644,-262 644,-268 644,-268 644,-280 644,-280 644,-286 638,-292 632,-292"/>
<text text-anchor="middle" x="615.5" y="-270.3" font-family="Helvetica,sans-Serif" font-size="14.00">rotate</text>
</g>
<!-- rotate&#45;&gt;volt -->
<g id="edge1" class="edge">
<title>rotate&#45;&gt;volt</title>
<path fill="none" stroke="black" stroke-width="1.2" d="M586.61,-273.94C518.92,-274.81 341.9,-283.2 211,-344 196.95,-350.52 183.51,-361.07 172.75,-370.97"/>
<polygon fill="black" stroke="black" stroke-width="1.2" points="170.22,-368.55 165.42,-377.99 175.06,-373.6 170.22,-368.55"/>
</g>
<!-- pressure -->
<g id="node3" class="node">
<title>pressure</title>
<path fill="white" stroke="black" d="M1007,-410C1007,-410 954,-410 954,-410 948,-410 942,-404 942,-398 942,-398 942,-386 942,-386 942,-380 948,-374 954,-374 954,-374 1007,-374 1007,-374 1013,-374 1019,-380 1019,-386 1019,-386 1019,-398 1019,-398 1019,-404 1013,-410 1007,-410"/>
<text text-anchor="middle" x="980.5" y="-388.3" font-family="Helvetica,sans-Serif" font-size="14.00">pressure</text>
</g>
<!-- rotate&#45;&gt;pressure -->
<g id="edge13" class="edge">
<title>rotate&#45;&gt;pressure</title>
<path fill="none" stroke="black" stroke-width="1.2" d="M644.04,-273.8C675.35,-274.07 727.84,-276.02 772,-285 833.7,-297.55 851.1,-300.17 906,-331 923.4,-340.77 940.69,-354.84 954.12,-367.01"/>
<polygon fill="black" stroke="black" stroke-width="1.2" points="951.85,-369.67 961.56,-373.9 956.61,-364.54 951.85,-369.67"/>
</g>
<!-- err_error1 -->
<g id="node5" class="node">
<title>err_error1</title>
<path fill="white" stroke="black" d="M756.5,-238C756.5,-238 695.5,-238 695.5,-238 689.5,-238 683.5,-232 683.5,-226 683.5,-226 683.5,-214 683.5,-214 683.5,-208 689.5,-202 695.5,-202 695.5,-202 756.5,-202 756.5,-202 762.5,-202 768.5,-208 768.5,-214 768.5,-214 768.5,-226 768.5,-226 768.5,-232 762.5,-238 756.5,-238"/>
<text text-anchor="middle" x="726" y="-216.3" font-family="Helvetica,sans-Serif" font-size="14.00">err_error1</text>
</g>
<!-- rotate&#45;&gt;err_error1 -->
<g id="edge15" class="edge">
<title>rotate&#45;&gt;err_error1</title>
<path fill="none" stroke="black" stroke-width="1.2" d="M653.43,-255.62C661.91,-251.4 671.01,-246.87 679.79,-242.5"/>
<polygon fill="black" stroke="black" stroke-width="1.2" points="651.55,-252.64 644.16,-260.23 654.67,-258.91 651.55,-252.64"/>
<polygon fill="black" stroke="black" stroke-width="1.2" points="681.39,-245.61 688.78,-238.03 678.27,-239.35 681.39,-245.61"/>
</g>
<!-- rotate&#45;&gt;err_error2 -->
<g id="edge16" class="edge">
<title>rotate&#45;&gt;err_error2</title>
<path fill="none" stroke="black" stroke-width="1.2" d="M623.45,-292.07C641.9,-340 692.16,-470.66 714.3,-528.18"/>
<polygon fill="black" stroke="black" stroke-width="1.2" points="711.11,-529.64 717.97,-537.72 717.64,-527.13 711.11,-529.64"/>
</g>
<!-- rotate&#45;&gt;fail_comp2 -->
<g id="edge19" class="edge">
<title>rotate&#45;&gt;fail_comp2</title>
<path fill="none" stroke="black" stroke-width="1.2" d="M644.16,-283.69C652.09,-286.46 661.03,-289.6 669.99,-292.73"/>
<polygon fill="black" stroke="black" stroke-width="1.2" points="669.09,-296.13 679.69,-296.13 671.41,-289.52 669.09,-296.13"/>
</g>
<!-- pressure&#45;&gt;volt -->
<g id="edge2" class="edge">
<title>pressure&#45;&gt;volt</title>
<path fill="none" stroke="black" stroke-width="1.2" d="M941.75,-402.27C892.67,-414.71 804.1,-434 727,-434 370,-434 370,-434 370,-434 304.04,-434 228.6,-417.36 185.11,-406.1"/>
<polygon fill="black" stroke="black" stroke-width="1.2" points="185.85,-402.68 175.28,-403.51 184.06,-409.44 185.85,-402.68"/>
</g>
<!-- err_error4 -->
<g id="node8" class="node">
<title>err_error4</title>
<path fill="white" stroke="black" d="M1128,-448C1128,-448 1067,-448 1067,-448 1061,-448 1055,-442 1055,-436 1055,-436 1055,-424 1055,-424 1055,-418 1061,-412 1067,-412 1067,-412 1128,-412 1128,-412 1134,-412 1140,-418 1140,-424 1140,-424 1140,-436 1140,-436 1140,-442 1134,-448 1128,-448"/>
<text text-anchor="middle" x="1097.5" y="-426.3" font-family="Helvetica,sans-Serif" font-size="14.00">err_error4</text>
</g>
<!-- pressure&#45;&gt;err_error4 -->
<g id="edge21" class="edge">
<title>pressure&#45;&gt;err_error4</title>
<path fill="none" stroke="black" stroke-width="1.2" d="M1028.73,-407.61C1034.13,-409.39 1039.65,-411.21 1045.1,-413.02"/>
<polygon fill="black" stroke="black" stroke-width="1.2" points="1029.75,-404.26 1019.16,-404.44 1027.55,-410.9 1029.75,-404.26"/>
<polygon fill="black" stroke="black" stroke-width="1.2" points="1044.19,-416.4 1054.78,-416.22 1046.39,-409.75 1044.19,-416.4"/>
</g>
<!-- vibration&#45;&gt;rotate -->
<g id="edge14" class="edge">
<title>vibration&#45;&gt;rotate</title>
<path fill="none" stroke="black" stroke-width="1.2" d="M289.21,-205.99C359.09,-220.6 506.66,-251.45 576.43,-266.04"/>
<polygon fill="black" stroke="black" stroke-width="1.2" points="576.03,-269.53 586.54,-268.15 577.46,-262.68 576.03,-269.53"/>
</g>
<!-- fail_comp1 -->
<g id="node14" class="node">
<title>fail_comp1</title>
<path fill="white" stroke="black" d="M405,-178C405,-178 337,-178 337,-178 331,-178 325,-172 325,-166 325,-166 325,-154 325,-154 325,-148 331,-142 337,-142 337,-142 405,-142 405,-142 411,-142 417,-148 417,-154 417,-154 417,-166 417,-166 417,-172 411,-178 405,-178"/>
<text text-anchor="middle" x="371" y="-156.3" font-family="Helvetica,sans-Serif" font-size="14.00">fail_comp1</text>
</g>
<!-- vibration&#45;&gt;fail_comp1 -->
<g id="edge25" class="edge">
<title>vibration&#45;&gt;fail_comp1</title>
<path fill="none" stroke="black" stroke-width="1.2" d="M289.31,-185.77C297.5,-183.15 306.31,-180.34 315,-177.56"/>
<polygon fill="black" stroke="black" stroke-width="1.2" points="316.24,-180.84 324.71,-174.46 314.12,-174.17 316.24,-180.84"/>
</g>
<!-- err_error1&#45;&gt;volt -->
<g id="edge4" class="edge">
<title>err_error1&#45;&gt;volt</title>
<path fill="none" stroke="black" stroke-width="1.2" d="M683.34,-219.17C591.28,-219.19 366.43,-229.59 211,-323 192.12,-334.35 176.18,-353.5 165.19,-369.34"/>
<polygon fill="black" stroke="black" stroke-width="1.2" points="162.23,-367.46 159.61,-377.73 168.06,-371.34 162.23,-367.46"/>
</g>
<!-- err_error1&#45;&gt;pressure -->
<g id="edge20" class="edge">
<title>err_error1&#45;&gt;pressure</title>
<path fill="none" stroke="black" stroke-width="1.2" d="M768.66,-217.52C807.75,-217.31 866.01,-222.71 906,-252 943.37,-279.37 963.41,-331.48 972.73,-363.83"/>
<polygon fill="black" stroke="black" stroke-width="1.2" points="969.38,-364.85 975.39,-373.58 976.13,-363.01 969.38,-364.85"/>
</g>
<!-- err_error2&#45;&gt;mnt_comp1 -->
<g id="edge29" class="edge">
<title>err_error2&#45;&gt;mnt_comp1</title>
<path fill="none" stroke="black" stroke-width="1.2" d="M768.54,-558.12C818.57,-560.49 905.16,-564 979.5,-564 979.5,-564 979.5,-564 1098.5,-564 1202.99,-564 1297.65,-465.92 1337.74,-417.89"/>
<polygon fill="black" stroke="black" stroke-width="1.2" points="1340.5,-420.03 1344.14,-410.08 1335.09,-415.59 1340.5,-420.03"/>
</g>
<!-- fail_comp3 -->
<g id="node16" class="node">
<title>fail_comp3</title>
<path fill="white" stroke="black" d="M891,-536C891,-536 823,-536 823,-536 817,-536 811,-530 811,-524 811,-524 811,-512 811,-512 811,-506 817,-500 823,-500 823,-500 891,-500 891,-500 897,-500 903,-506 903,-512 903,-512 903,-524 903,-524 903,-530 897,-536 891,-536"/>
<text text-anchor="middle" x="857" y="-514.3" font-family="Helvetica,sans-Serif" font-size="14.00">fail_comp3</text>
</g>
<!-- err_error2&#45;&gt;fail_comp3 -->
<g id="edge30" class="edge">
<title>err_error2&#45;&gt;fail_comp3</title>
<path fill="none" stroke="black" stroke-width="1.2" d="M768.53,-543.77C778.9,-540.71 790.19,-537.39 801.1,-534.17"/>
<polygon fill="black" stroke="black" stroke-width="1.2" points="802.38,-537.44 810.98,-531.26 800.4,-530.73 802.38,-537.44"/>
</g>
<!-- err_error3 -->
<g id="node7" class="node">
<title>err_error3</title>
<path fill="white" stroke="black" d="M73,-547C73,-547 12,-547 12,-547 6,-547 0,-541 0,-535 0,-535 0,-523 0,-523 0,-517 6,-511 12,-511 12,-511 73,-511 73,-511 79,-511 85,-517 85,-523 85,-523 85,-535 85,-535 85,-541 79,-547 73,-547"/>
<text text-anchor="middle" x="42.5" y="-525.3" font-family="Helvetica,sans-Serif" font-size="14.00">err_error3</text>
</g>
<!-- err_error3&#45;&gt;volt -->
<g id="edge6" class="edge">
<title>err_error3&#45;&gt;volt</title>
<path fill="none" stroke="black" stroke-width="1.2" d="M57.67,-510.79C75.46,-487.93 106.09,-448.57 126.45,-422.41"/>
<polygon fill="black" stroke="black" stroke-width="1.2" points="129.29,-424.46 132.66,-414.42 123.76,-420.16 129.29,-424.46"/>
</g>
<!-- err_error3&#45;&gt;err_error2 -->
<g id="edge28" class="edge">
<title>err_error3&#45;&gt;err_error2</title>
<path fill="none" stroke="black" stroke-width="1.2" d="M65.67,-547.09C101.75,-574.66 176.48,-624 249,-624 249,-624 249,-624 372,-624 481.01,-624 605.59,-592.35 673.75,-572.23"/>
<polygon fill="black" stroke="black" stroke-width="1.2" points="674.81,-575.57 683.39,-569.35 672.8,-568.86 674.81,-575.57"/>
</g>
<!-- err_error4&#45;&gt;volt -->
<g id="edge7" class="edge">
<title>err_error4&#45;&gt;volt</title>
<path fill="none" stroke="black" stroke-width="1.2" d="M1054.67,-441.92C1007.35,-454.34 927.79,-472 858,-472 370,-472 370,-472 370,-472 297.24,-472 278.32,-460.62 211,-433 201.88,-429.26 192.51,-424.32 183.9,-419.28"/>
<polygon fill="black" stroke="black" stroke-width="1.2" points="185.62,-416.23 175.25,-414.03 181.98,-422.21 185.62,-416.23"/>
</g>
<!-- mnt_comp3 -->
<g id="node12" class="node">
<title>mnt_comp3</title>
<path fill="white" stroke="black" d="M1262,-448C1262,-448 1188,-448 1188,-448 1182,-448 1176,-442 1176,-436 1176,-436 1176,-424 1176,-424 1176,-418 1182,-412 1188,-412 1188,-412 1262,-412 1262,-412 1268,-412 1274,-418 1274,-424 1274,-424 1274,-436 1274,-436 1274,-442 1268,-448 1262,-448"/>
<text text-anchor="middle" x="1225" y="-426.3" font-family="Helvetica,sans-Serif" font-size="14.00">mnt_comp3</text>
</g>
<!-- err_error4&#45;&gt;mnt_comp3 -->
<g id="edge31" class="edge">
<title>err_error4&#45;&gt;mnt_comp3</title>
<path fill="none" stroke="black" stroke-width="1.2" d="M1140.29,-430C1148.49,-430 1157.23,-430 1165.85,-430"/>
<polygon fill="black" stroke="black" stroke-width="1.2" points="1165.88,-433.5 1175.88,-430 1165.88,-426.5 1165.88,-433.5"/>
</g>
<!-- err_error5 -->
<g id="node9" class="node">
<title>err_error5</title>
<path fill="white" stroke="black" d="M73,-113C73,-113 12,-113 12,-113 6,-113 0,-107 0,-101 0,-101 0,-89 0,-89 0,-83 6,-77 12,-77 12,-77 73,-77 73,-77 79,-77 85,-83 85,-89 85,-89 85,-101 85,-101 85,-107 79,-113 73,-113"/>
<text text-anchor="middle" x="42.5" y="-91.3" font-family="Helvetica,sans-Serif" font-size="14.00">err_error5</text>
</g>
<!-- err_error5&#45;&gt;volt -->
<g id="edge8" class="edge">
<title>err_error5&#45;&gt;volt</title>
<path fill="none" stroke="black" stroke-width="1.2" d="M49.82,-113.38C67.33,-164.29 116.55,-307.44 137.44,-368.18"/>
<polygon fill="black" stroke="black" stroke-width="1.2" points="134.2,-369.55 140.76,-377.86 140.82,-367.27 134.2,-369.55"/>
</g>
<!-- err_error5&#45;&gt;pressure -->
<g id="edge22" class="edge">
<title>err_error5&#45;&gt;pressure</title>
<path fill="none" stroke="black" stroke-width="1.2" d="M65.67,-76.91C101.75,-49.34 176.48,0 249,0 249,0 249,0 616.5,0 776.77,0 807.38,-88.66 906,-215 941.78,-260.83 962.96,-326.57 972.8,-363.68"/>
<polygon fill="black" stroke="black" stroke-width="1.2" points="969.52,-364.97 975.39,-373.79 976.3,-363.23 969.52,-364.97"/>
</g>
<!-- err_error5&#45;&gt;vibration -->
<g id="edge24" class="edge">
<title>err_error5&#45;&gt;vibration</title>
<path fill="none" stroke="black" stroke-width="1.2" d="M79.77,-113.18C114.29,-130.48 166.36,-156.58 203.62,-175.25"/>
<polygon fill="black" stroke="black" stroke-width="1.2" points="202.24,-178.48 212.75,-179.83 205.38,-172.22 202.24,-178.48"/>
</g>
<!-- err_error5&#45;&gt;err_error1 -->
<g id="edge27" class="edge">
<title>err_error5&#45;&gt;err_error1</title>
<path fill="none" stroke="black" stroke-width="1.2" d="M85.15,-85.19C174.28,-66.26 388.61,-31.85 551,-95 609.8,-117.87 667.07,-165.31 699.02,-194.72"/>
<polygon fill="black" stroke="black" stroke-width="1.2" points="696.89,-197.52 706.59,-201.79 701.67,-192.4 696.89,-197.52"/>
</g>
<!-- mnt_comp2 -->
<g id="node11" class="node">
<title>mnt_comp2</title>
<path fill="white" stroke="black" d="M894,-376C894,-376 820,-376 820,-376 814,-376 808,-370 808,-364 808,-364 808,-352 808,-352 808,-346 814,-340 820,-340 820,-340 894,-340 894,-340 900,-340 906,-346 906,-352 906,-352 906,-364 906,-364 906,-370 900,-376 894,-376"/>
<text text-anchor="middle" x="857" y="-354.3" font-family="Helvetica,sans-Serif" font-size="14.00">mnt_comp2</text>
</g>
<!-- mnt_comp2&#45;&gt;volt -->
<g id="edge10" class="edge">
<title>mnt_comp2&#45;&gt;volt</title>
<path fill="none" stroke="black" stroke-width="1.2" d="M807.83,-358C759.47,-358 682.82,-358 616.5,-358 370,-358 370,-358 370,-358 304.04,-358 228.6,-374.64 185.11,-385.9"/>
<polygon fill="black" stroke="black" stroke-width="1.2" points="184.06,-382.56 175.28,-388.49 185.85,-389.32 184.06,-382.56"/>
</g>
<!-- mnt_comp3&#45;&gt;mnt_comp1 -->
<g id="edge32" class="edge">
<title>mnt_comp3&#45;&gt;mnt_comp1</title>
<path fill="none" stroke="black" stroke-width="1.2" d="M1274.03,-416.17C1282.49,-413.74 1291.38,-411.18 1300.08,-408.67"/>
<polygon fill="black" stroke="black" stroke-width="1.2" points="1301.14,-412.01 1309.79,-405.88 1299.21,-405.28 1301.14,-412.01"/>
</g>
<!-- mnt_comp4 -->
<g id="node13" class="node">
<title>mnt_comp4</title>
<path fill="white" stroke="black" d="M539,-140C539,-140 465,-140 465,-140 459,-140 453,-134 453,-128 453,-128 453,-116 453,-116 453,-110 459,-104 465,-104 465,-104 539,-104 539,-104 545,-104 551,-110 551,-116 551,-116 551,-128 551,-128 551,-134 545,-140 539,-140"/>
<text text-anchor="middle" x="502" y="-118.3" font-family="Helvetica,sans-Serif" font-size="14.00">mnt_comp4</text>
</g>
<!-- mnt_comp4&#45;&gt;rotate -->
<g id="edge17" class="edge">
<title>mnt_comp4&#45;&gt;rotate</title>
<path fill="none" stroke="black" stroke-width="1.2" d="M535.25,-140.25C540.91,-144.32 546.43,-148.95 551,-154 575.69,-181.33 593.9,-220 604.34,-245.99"/>
<polygon fill="black" stroke="black" stroke-width="1.2" points="601.19,-247.56 608.08,-255.61 607.72,-245.03 601.19,-247.56"/>
</g>
<!-- mnt_comp4&#45;&gt;mnt_comp1 -->
<g id="edge33" class="edge">
<title>mnt_comp4&#45;&gt;mnt_comp1</title>
<path fill="none" stroke="black" stroke-width="1.2" d="M551.05,-119.27C596,-116.95 665.03,-114 725,-114 725,-114 725,-114 1098.5,-114 1234.43,-114 1319.56,-293.79 1347.68,-364.2"/>
<polygon fill="black" stroke="black" stroke-width="1.2" points="1344.52,-365.72 1351.42,-373.76 1351.04,-363.17 1344.52,-365.72"/>
</g>
<!-- fail_comp1&#45;&gt;rotate -->
<g id="edge18" class="edge">
<title>fail_comp1&#45;&gt;rotate</title>
<path fill="none" stroke="black" stroke-width="1.2" d="M417.06,-159.27C455.27,-160.62 510.22,-167.31 551,-192 572.61,-205.08 589.61,-228.45 600.55,-246.91"/>
<polygon fill="black" stroke="black" stroke-width="1.2" points="597.6,-248.79 605.58,-255.77 603.69,-245.34 597.6,-248.79"/>
</g>
<!-- fail_comp1&#45;&gt;mnt_comp1 -->
<g id="edge34" class="edge">
<title>fail_comp1&#45;&gt;mnt_comp1</title>
<path fill="none" stroke="black" stroke-width="1.2" d="M404.67,-141.85C408.94,-139.06 413.16,-136.08 417,-133 435.14,-118.44 433.49,-107.67 453,-95 516.84,-53.55 538.38,-38 614.5,-38 614.5,-38 614.5,-38 1098.5,-38 1187.19,-38 1217.26,-64.83 1274,-133 1331.73,-202.37 1350.07,-312.32 1355.67,-363.74"/>
<polygon fill="black" stroke="black" stroke-width="1.2" points="1352.2,-364.19 1356.68,-373.79 1359.16,-363.49 1352.2,-364.19"/>
</g>
<!-- fail_comp1&#45;&gt;mnt_comp4 -->
<g id="edge38" class="edge">
<title>fail_comp1&#45;&gt;mnt_comp4</title>
<path fill="none" stroke="black" stroke-width="1.2" d="M417.12,-146.71C425.46,-144.25 434.28,-141.66 442.94,-139.1"/>
<polygon fill="black" stroke="black" stroke-width="1.2" points="444.01,-142.44 452.62,-136.25 442.03,-135.72 444.01,-142.44"/>
</g>
<!-- fail_comp2&#45;&gt;mnt_comp1 -->
<g id="edge35" class="edge">
<title>fail_comp2&#45;&gt;mnt_comp1</title>
<path fill="none" stroke="black" stroke-width="1.2" d="M772.16,-312C822.67,-312 906.95,-312 979.5,-312 979.5,-312 979.5,-312 1098.5,-312 1176.89,-312 1262.93,-345.75 1313.61,-369.41"/>
<polygon fill="black" stroke="black" stroke-width="1.2" points="1312.42,-372.72 1322.96,-373.85 1315.42,-366.4 1312.42,-372.72"/>
</g>
<!-- fail_comp2&#45;&gt;mnt_comp2 -->
<g id="edge36" class="edge">
<title>fail_comp2&#45;&gt;mnt_comp2</title>
<path fill="none" stroke="black" stroke-width="1.2" d="M772.12,-328.09C780.46,-331.06 789.28,-334.21 797.94,-337.3"/>
<polygon fill="black" stroke="black" stroke-width="1.2" points="797.02,-340.68 807.62,-340.75 799.37,-334.09 797.02,-340.68"/>
</g>
<!-- fail_comp3&#45;&gt;volt -->
<g id="edge12" class="edge">
<title>fail_comp3&#45;&gt;volt</title>
<path fill="none" stroke="black" stroke-width="1.2" d="M810.99,-515.6C762.87,-513.24 684.31,-510 616.5,-510 370,-510 370,-510 370,-510 298.53,-510 271.6,-523.88 211,-486 187.53,-471.33 170.67,-444.15 160.52,-423.48"/>
<polygon fill="black" stroke="black" stroke-width="1.2" points="163.6,-421.81 156.19,-414.23 157.25,-424.77 163.6,-421.81"/>
</g>
<!-- fail_comp3&#45;&gt;pressure -->
<g id="edge23" class="edge">
<title>fail_comp3&#45;&gt;pressure</title>
<path fill="none" stroke="black" stroke-width="1.2" d="M875.41,-499.95C896.25,-478.33 931.29,-441.99 954.9,-417.52"/>
<polygon fill="black" stroke="black" stroke-width="1.2" points="957.7,-419.65 962.12,-410.02 952.66,-414.79 957.7,-419.65"/>
</g>
<!-- fail_comp3&#45;&gt;vibration -->
<g id="edge26" class="edge">
<title>fail_comp3&#45;&gt;vibration</title>
<path fill="none" stroke="black" stroke-width="1.2" d="M836.59,-500C797.89,-466.06 707.03,-396 616.5,-396 501,-396 501,-396 501,-396 392.14,-396 303.02,-279.19 267.54,-225.01"/>
<polygon fill="black" stroke="black" stroke-width="1.2" points="270.27,-222.8 261.93,-216.27 264.38,-226.58 270.27,-222.8"/>
</g>
<!-- fail_comp3&#45;&gt;mnt_comp3 -->
<g id="edge37" class="edge">
<title>fail_comp3&#45;&gt;mnt_comp3</title>
<path fill="none" stroke="black" stroke-width="1.2" d="M903.34,-509.93C959.4,-499.56 1057.52,-480.1 1140,-457 1148.47,-454.63 1157.36,-451.96 1166.06,-449.25"/>
<polygon fill="black" stroke="black" stroke-width="1.2" points="1167.29,-452.54 1175.77,-446.19 1165.18,-445.86 1167.29,-452.54"/>
</g>
<!-- fail_comp4 -->
<g id="node17" class="node">
<title>fail_comp4</title>
<path fill="white" stroke="black" d="M405,-124C405,-124 337,-124 337,-124 331,-124 325,-118 325,-112 325,-112 325,-100 325,-100 325,-94 331,-88 337,-88 337,-88 405,-88 405,-88 411,-88 417,-94 417,-100 417,-100 417,-112 417,-112 417,-118 411,-124 405,-124"/>
<text text-anchor="middle" x="371" y="-102.3" font-family="Helvetica,sans-Serif" font-size="14.00">fail_comp4</text>
</g>
<!-- fail_comp4&#45;&gt;mnt_comp4 -->
<g id="edge39" class="edge">
<title>fail_comp4&#45;&gt;mnt_comp4</title>
<path fill="none" stroke="black" stroke-width="1.2" d="M417.12,-111.6C425.37,-112.62 434.09,-113.7 442.66,-114.76"/>
<polygon fill="black" stroke="black" stroke-width="1.2" points="442.26,-118.24 452.62,-116 443.12,-111.29 442.26,-118.24"/>
</g>
</g>
</svg>
