<?xml version="1.0" encoding="UTF-8" standalone="no"?>
<!DOCTYPE svg PUBLIC "-//W3C//DTD SVG 1.1//EN"
 "http://www.w3.org/Graphics/SVG/1.1/DTD/svg11.dtd">
<!-- Generated by graphviz version 2.50.0 (0)
 -->
<!-- Title: G Pages: 1 -->
<svg width="454pt" height="131pt"
 viewBox="0.00 0.00 454.00 131.00" xmlns="http://www.w3.org/2000/svg" xmlns:xlink="http://www.w3.org/1999/xlink">
<g id="graph0" class="graph" transform="scale(1 1) rotate(0) translate(4 127)">
<title>G</title>
<polygon fill="white" stroke="transparent" points="-4,4 -4,-127 450,-127 450,4 -4,4"/>
<text text-anchor="middle" x="223" y="-106.2" font-family="Times,serif" font-size="16.00">model=model1/cbnb_w_telemetry.json [machine 23]</text>
<!-- volt -->
<g id="node1" class="node">
<title>volt</title>
<path fill="white" stroke="black" d="M78,-51C78,-51 48,-51 48,-51 42,-51 36,-45 36,-39 36,-39 36,-27 36,-27 36,-21 42,-15 48,-15 48,-15 78,-15 78,-15 84,-15 90,-21 90,-27 90,-27 90,-39 90,-39 90,-45 84,-51 78,-51"/>
<text text-anchor="middle" x="63" y="-29.3" font-family="Helvetica,sans-Serif" font-size="14.00">volt</text>
</g>
<!-- vibration -->
<g id="node4" class="node">
<title>vibration</title>
<path fill="white" stroke="black" d="M192,-97C192,-97 138,-97 138,-97 132,-97 126,-91 126,-85 126,-85 126,-73 126,-73 126,-67 132,-61 138,-61 138,-61 192,-61 192,-61 198,-61 204,-67 204,-73 204,-73 204,-85 204,-85 204,-91 198,-97 192,-97"/>
<text text-anchor="middle" x="165" y="-75.3" font-family="Helvetica,sans-Serif" font-size="14.00">vibration</text>
</g>
<!-- volt&#45;&gt;vibration -->
<g id="edge3" class="edge">
<title>volt&#45;&gt;vibration</title>
<path fill="none" stroke="black" stroke-width="1.2" d="M90.01,-44.97C98.09,-48.68 107.26,-52.9 116.32,-57.07"/>
<polygon fill="black" stroke="black" stroke-width="1.2" points="115.14,-60.38 125.68,-61.37 118.06,-54.02 115.14,-60.38"/>
</g>
<!-- rotate -->
<g id="node2" class="node">
<title>rotate</title>
<path fill="white" stroke="black" d="M285,-59C285,-59 252,-59 252,-59 246,-59 240,-53 240,-47 240,-47 240,-35 240,-35 240,-29 246,-23 252,-23 252,-23 285,-23 285,-23 291,-23 297,-29 297,-35 297,-35 297,-47 297,-47 297,-53 291,-59 285,-59"/>
<text text-anchor="middle" x="268.5" y="-37.3" font-family="Helvetica,sans-Serif" font-size="14.00">rotate</text>
</g>
<!-- rotate&#45;&gt;volt -->
<g id="edge1" class="edge">
<title>rotate&#45;&gt;volt</title>
<path fill="none" stroke="black" stroke-width="1.2" d="M239.79,-39.91C203.63,-38.49 140.27,-36 100.3,-34.43"/>
<polygon fill="black" stroke="black" stroke-width="1.2" points="100.32,-30.93 90.19,-34.03 100.04,-37.92 100.32,-30.93"/>
</g>
<!-- pressure -->
<g id="node3" class="node">
<title>pressure</title>
<path fill="white" stroke="black" d="M398,-36C398,-36 345,-36 345,-36 339,-36 333,-30 333,-24 333,-24 333,-12 333,-12 333,-6 339,0 345,0 345,0 398,0 398,0 404,0 410,-6 410,-12 410,-12 410,-24 410,-24 410,-30 404,-36 398,-36"/>
<text text-anchor="middle" x="371.5" y="-14.3" font-family="Helvetica,sans-Serif" font-size="14.00">pressure</text>
</g>
<!-- rotate&#45;&gt;pressure -->
<g id="edge4" class="edge">
<title>rotate&#45;&gt;pressure</title>
<path fill="none" stroke="black" stroke-width="1.2" d="M297.1,-34.72C305.08,-32.9 314.02,-30.86 322.85,-28.85"/>
<polygon fill="black" stroke="black" stroke-width="1.2" points="323.74,-32.24 332.71,-26.61 322.18,-25.41 323.74,-32.24"/>
</g>
<!-- pressure&#45;&gt;volt -->
<g id="edge2" class="edge">
<title>pressure&#45;&gt;volt</title>
<path fill="none" stroke="black" stroke-width="1.2" d="M332.75,-15.55C321.27,-14.91 308.62,-14.32 297,-14 271.68,-13.31 265.3,-12.64 240,-14 191.61,-16.6 136.05,-23.21 100.52,-27.9"/>
<polygon fill="black" stroke="black" stroke-width="1.2" points="99.62,-24.49 90.17,-29.29 100.54,-31.43 99.62,-24.49"/>
</g>
<!-- vibration&#45;&gt;rotate -->
<g id="edge5" class="edge">
<title>vibration&#45;&gt;rotate</title>
<path fill="none" stroke="black" stroke-width="1.2" d="M204.08,-64.74C212.75,-61.5 221.94,-58.06 230.56,-54.83"/>
<polygon fill="black" stroke="black" stroke-width="1.2" points="231.84,-58.09 239.98,-51.3 229.39,-51.53 231.84,-58.09"/>
</g>
</g>
</svg>
