<?xml version="1.0" encoding="UTF-8" standalone="no"?>
<!DOCTYPE svg PUBLIC "-//W3C//DTD SVG 1.1//EN"
 "http://www.w3.org/Graphics/SVG/1.1/DTD/svg11.dtd">
<!-- Generated by graphviz version 2.50.0 (0)
 -->
<!-- Title: G Pages: 1 -->
<svg width="451pt" height="232pt"
 viewBox="0.00 0.00 451.00 232.00" xmlns="http://www.w3.org/2000/svg" xmlns:xlink="http://www.w3.org/1999/xlink">
<g id="graph0" class="graph" transform="scale(1 1) rotate(0) translate(4 228)">
<title>G</title>
<polygon fill="white" stroke="transparent" points="-4,4 -4,-228 447,-228 447,4 -4,4"/>
<text text-anchor="middle" x="221.5" y="-207.2" font-family="Times,serif" font-size="16.00">model=model2/cbnb_e_telemetry.json [machine 98]</text>
<!-- volt -->
<g id="node1" class="node">
<title>volt</title>
<path fill="white" stroke="black" d="M236.5,-36C236.5,-36 206.5,-36 206.5,-36 200.5,-36 194.5,-30 194.5,-24 194.5,-24 194.5,-12 194.5,-12 194.5,-6 200.5,0 206.5,0 206.5,0 236.5,0 236.5,0 242.5,0 248.5,-6 248.5,-12 248.5,-12 248.5,-24 248.5,-24 248.5,-30 242.5,-36 236.5,-36"/>
<text text-anchor="middle" x="221.5" y="-14.3" font-family="Helvetica,sans-Serif" font-size="14.00">volt</text>
</g>
<!-- rotate -->
<g id="node2" class="node">
<title>rotate</title>
<path fill="white" stroke="black" d="M238,-90C238,-90 205,-90 205,-90 199,-90 193,-84 193,-78 193,-78 193,-66 193,-66 193,-60 199,-54 205,-54 205,-54 238,-54 238,-54 244,-54 250,-60 250,-66 250,-66 250,-78 250,-78 250,-84 244,-90 238,-90"/>
<text text-anchor="middle" x="221.5" y="-68.3" font-family="Helvetica,sans-Serif" font-size="14.00">rotate</text>
</g>
<!-- pressure -->
<g id="node3" class="node">
<title>pressure</title>
<path fill="white" stroke="black" d="M248,-144C248,-144 195,-144 195,-144 189,-144 183,-138 183,-132 183,-132 183,-120 183,-120 183,-114 189,-108 195,-108 195,-108 248,-108 248,-108 254,-108 260,-114 260,-120 260,-120 260,-132 260,-132 260,-138 254,-144 248,-144"/>
<text text-anchor="middle" x="221.5" y="-122.3" font-family="Helvetica,sans-Serif" font-size="14.00">pressure</text>
</g>
<!-- vibration -->
<g id="node4" class="node">
<title>vibration</title>
<path fill="white" stroke="black" d="M248.5,-198C248.5,-198 194.5,-198 194.5,-198 188.5,-198 182.5,-192 182.5,-186 182.5,-186 182.5,-174 182.5,-174 182.5,-168 188.5,-162 194.5,-162 194.5,-162 248.5,-162 248.5,-162 254.5,-162 260.5,-168 260.5,-174 260.5,-174 260.5,-186 260.5,-186 260.5,-192 254.5,-198 248.5,-198"/>
<text text-anchor="middle" x="221.5" y="-176.3" font-family="Helvetica,sans-Serif" font-size="14.00">vibration</text>
</g>
</g>
</svg>
