<?xml version="1.0" encoding="UTF-8" standalone="no"?>
<!DOCTYPE svg PUBLIC "-//W3C//DTD SVG 1.1//EN"
 "http://www.w3.org/Graphics/SVG/1.1/DTD/svg11.dtd">
<!-- Generated by graphviz version 2.50.0 (0)
 -->
<!-- Title: G Pages: 1 -->
<svg width="1283pt" height="613pt"
 viewBox="0.00 0.00 1283.00 613.00" xmlns="http://www.w3.org/2000/svg" xmlns:xlink="http://www.w3.org/1999/xlink">
<g id="graph0" class="graph" transform="scale(1 1) rotate(0) translate(4 609)">
<title>G</title>
<polygon fill="white" stroke="transparent" points="-4,4 -4,-609 1279,-609 1279,4 -4,4"/>
<text text-anchor="middle" x="637.5" y="-588.2" font-family="Times,serif" font-size="16.00">model=model4/cbnb_w_mixed.json [machine 46]</text>
<!-- volt -->
<g id="node1" class="node">
<title>volt</title>
<path fill="white" stroke="black" d="M163,-162C163,-162 133,-162 133,-162 127,-162 121,-156 121,-150 121,-150 121,-138 121,-138 121,-132 127,-126 133,-126 133,-126 163,-126 163,-126 169,-126 175,-132 175,-138 175,-138 175,-150 175,-150 175,-156 169,-162 163,-162"/>
<text text-anchor="middle" x="148" y="-140.3" font-family="Helvetica,sans-Serif" font-size="14.00">volt</text>
</g>
<!-- rotate -->
<g id="node2" class="node">
<title>rotate</title>
<path fill="white" stroke="black" d="M256,-353C256,-353 223,-353 223,-353 217,-353 211,-347 211,-341 211,-341 211,-329 211,-329 211,-323 217,-317 223,-317 223,-317 256,-317 256,-317 262,-317 268,-323 268,-329 268,-329 268,-341 268,-341 268,-347 262,-353 256,-353"/>
<text text-anchor="middle" x="239.5" y="-331.3" font-family="Helvetica,sans-Serif" font-size="14.00">rotate</text>
</g>
<!-- volt&#45;&gt;rotate -->
<g id="edge1" class="edge">
<title>volt&#45;&gt;rotate</title>
<path fill="none" stroke="black" stroke-width="1.2" d="M157.58,-162.31C173.35,-195.97 207.02,-267.83 225.57,-307.41"/>
<polygon fill="black" stroke="black" stroke-width="1.2" points="222.53,-309.17 229.94,-316.74 228.87,-306.2 222.53,-309.17"/>
</g>
<!-- mnt_comp3 -->
<g id="node12" class="node">
<title>mnt_comp3</title>
<path fill="white" stroke="black" d="M518,-483C518,-483 444,-483 444,-483 438,-483 432,-477 432,-471 432,-471 432,-459 432,-459 432,-453 438,-447 444,-447 444,-447 518,-447 518,-447 524,-447 530,-453 530,-459 530,-459 530,-471 530,-471 530,-477 524,-483 518,-483"/>
<text text-anchor="middle" x="481" y="-461.3" font-family="Helvetica,sans-Serif" font-size="14.00">mnt_comp3</text>
</g>
<!-- volt&#45;&gt;mnt_comp3 -->
<g id="edge5" class="edge">
<title>volt&#45;&gt;mnt_comp3</title>
<path fill="none" stroke="black" stroke-width="1.2" d="M149.58,-162.2C151.74,-202.52 162.06,-300.62 211,-362 262.46,-426.54 359.39,-450.67 421.76,-459.67"/>
<polygon fill="black" stroke="black" stroke-width="1.2" points="421.47,-463.17 431.85,-461.04 422.41,-456.23 421.47,-463.17"/>
</g>
<!-- mnt_comp4 -->
<g id="node13" class="node">
<title>mnt_comp4</title>
<path fill="white" stroke="black" d="M1028,-246C1028,-246 954,-246 954,-246 948,-246 942,-240 942,-234 942,-234 942,-222 942,-222 942,-216 948,-210 954,-210 954,-210 1028,-210 1028,-210 1034,-210 1040,-216 1040,-222 1040,-222 1040,-234 1040,-234 1040,-240 1034,-246 1028,-246"/>
<text text-anchor="middle" x="991" y="-224.3" font-family="Helvetica,sans-Serif" font-size="14.00">mnt_comp4</text>
</g>
<!-- volt&#45;&gt;mnt_comp4 -->
<g id="edge6" class="edge">
<title>volt&#45;&gt;mnt_comp4</title>
<path fill="none" stroke="black" stroke-width="1.2" d="M175.1,-134.51C276.16,-99.44 648.88,14.2 906,-117 940.51,-134.61 964.74,-173.69 978.03,-200.45"/>
<polygon fill="black" stroke="black" stroke-width="1.2" points="974.97,-202.16 982.43,-209.69 981.29,-199.15 974.97,-202.16"/>
</g>
<!-- pressure -->
<g id="node3" class="node">
<title>pressure</title>
<path fill="white" stroke="black" d="M376.5,-541C376.5,-541 323.5,-541 323.5,-541 317.5,-541 311.5,-535 311.5,-529 311.5,-529 311.5,-517 311.5,-517 311.5,-511 317.5,-505 323.5,-505 323.5,-505 376.5,-505 376.5,-505 382.5,-505 388.5,-511 388.5,-517 388.5,-517 388.5,-529 388.5,-529 388.5,-535 382.5,-541 376.5,-541"/>
<text text-anchor="middle" x="350" y="-519.3" font-family="Helvetica,sans-Serif" font-size="14.00">pressure</text>
</g>
<!-- rotate&#45;&gt;pressure -->
<g id="edge7" class="edge">
<title>rotate&#45;&gt;pressure</title>
<path fill="none" stroke="black" stroke-width="1.2" d="M250.9,-353.03C270.05,-386.21 310.98,-457.12 333.44,-496.04"/>
<polygon fill="black" stroke="black" stroke-width="1.2" points="330.44,-497.84 338.47,-504.75 336.5,-494.34 330.44,-497.84"/>
</g>
<!-- err_error1 -->
<g id="node5" class="node">
<title>err_error1</title>
<path fill="white" stroke="black" d="M773,-330C773,-330 712,-330 712,-330 706,-330 700,-324 700,-318 700,-318 700,-306 700,-306 700,-300 706,-294 712,-294 712,-294 773,-294 773,-294 779,-294 785,-300 785,-306 785,-306 785,-318 785,-318 785,-324 779,-330 773,-330"/>
<text text-anchor="middle" x="742.5" y="-308.3" font-family="Helvetica,sans-Serif" font-size="14.00">err_error1</text>
</g>
<!-- rotate&#45;&gt;err_error1 -->
<g id="edge8" class="edge">
<title>rotate&#45;&gt;err_error1</title>
<path fill="none" stroke="black" stroke-width="1.2" d="M278.54,-334.79C352.76,-334.16 522.06,-331.57 664,-321 672.35,-320.38 681.19,-319.53 689.79,-318.61"/>
<polygon fill="black" stroke="black" stroke-width="1.2" points="278.26,-331.3 268.29,-334.87 278.32,-338.3 278.26,-331.3"/>
<polygon fill="black" stroke="black" stroke-width="1.2" points="690.18,-322.08 699.73,-317.49 689.4,-315.13 690.18,-322.08"/>
</g>
<!-- err_error4 -->
<g id="node8" class="node">
<title>err_error4</title>
<path fill="white" stroke="black" d="M645.5,-437C645.5,-437 584.5,-437 584.5,-437 578.5,-437 572.5,-431 572.5,-425 572.5,-425 572.5,-413 572.5,-413 572.5,-407 578.5,-401 584.5,-401 584.5,-401 645.5,-401 645.5,-401 651.5,-401 657.5,-407 657.5,-413 657.5,-413 657.5,-425 657.5,-425 657.5,-431 651.5,-437 645.5,-437"/>
<text text-anchor="middle" x="615" y="-415.3" font-family="Helvetica,sans-Serif" font-size="14.00">err_error4</text>
</g>
<!-- rotate&#45;&gt;err_error4 -->
<g id="edge10" class="edge">
<title>rotate&#45;&gt;err_error4</title>
<path fill="none" stroke="black" stroke-width="1.2" d="M256.97,-353.14C268.81,-364.92 285.85,-379.44 304,-387 389.29,-422.51 498.71,-424.89 562.13,-422.53"/>
<polygon fill="black" stroke="black" stroke-width="1.2" points="562.44,-426.02 572.28,-422.1 562.14,-419.03 562.44,-426.02"/>
</g>
<!-- fail_comp2 -->
<g id="node14" class="node">
<title>fail_comp2</title>
<path fill="white" stroke="black" d="M384,-315C384,-315 316,-315 316,-315 310,-315 304,-309 304,-303 304,-303 304,-291 304,-291 304,-285 310,-279 316,-279 316,-279 384,-279 384,-279 390,-279 396,-285 396,-291 396,-291 396,-303 396,-303 396,-309 390,-315 384,-315"/>
<text text-anchor="middle" x="350" y="-293.3" font-family="Helvetica,sans-Serif" font-size="14.00">fail_comp2</text>
</g>
<!-- rotate&#45;&gt;fail_comp2 -->
<g id="edge11" class="edge">
<title>rotate&#45;&gt;fail_comp2</title>
<path fill="none" stroke="black" stroke-width="1.2" d="M277.66,-321.99C282.89,-320.15 288.37,-318.24 293.85,-316.32"/>
<polygon fill="black" stroke="black" stroke-width="1.2" points="276.44,-318.7 268.16,-325.31 278.75,-325.31 276.44,-318.7"/>
<polygon fill="black" stroke="black" stroke-width="1.2" points="295.41,-319.48 303.69,-312.87 293.09,-312.87 295.41,-319.48"/>
</g>
<!-- pressure&#45;&gt;mnt_comp3 -->
<g id="edge14" class="edge">
<title>pressure&#45;&gt;mnt_comp3</title>
<path fill="none" stroke="black" stroke-width="1.2" d="M388.66,-506.07C401.71,-500.2 416.55,-493.53 430.41,-487.3"/>
<polygon fill="black" stroke="black" stroke-width="1.2" points="432.13,-490.36 439.82,-483.07 429.26,-483.97 432.13,-490.36"/>
</g>
<!-- vibration -->
<g id="node4" class="node">
<title>vibration</title>
<path fill="white" stroke="black" d="M1142,-360C1142,-360 1088,-360 1088,-360 1082,-360 1076,-354 1076,-348 1076,-348 1076,-336 1076,-336 1076,-330 1082,-324 1088,-324 1088,-324 1142,-324 1142,-324 1148,-324 1154,-330 1154,-336 1154,-336 1154,-348 1154,-348 1154,-354 1148,-360 1142,-360"/>
<text text-anchor="middle" x="1115" y="-338.3" font-family="Helvetica,sans-Serif" font-size="14.00">vibration</text>
</g>
<!-- vibration&#45;&gt;pressure -->
<g id="edge12" class="edge">
<title>vibration&#45;&gt;pressure</title>
<path fill="none" stroke="black" stroke-width="1.2" d="M1107.46,-360C1097.01,-386.52 1074.16,-436.14 1040,-466 976.13,-521.82 949.32,-541 864.5,-541 614,-541 614,-541 614,-541 538.7,-541 451.55,-533.56 398.89,-528.25"/>
<polygon fill="black" stroke="black" stroke-width="1.2" points="399.14,-524.76 388.84,-527.22 398.43,-531.72 399.14,-524.76"/>
</g>
<!-- err_error5 -->
<g id="node9" class="node">
<title>err_error5</title>
<path fill="white" stroke="black" d="M1263,-471C1263,-471 1202,-471 1202,-471 1196,-471 1190,-465 1190,-459 1190,-459 1190,-447 1190,-447 1190,-441 1196,-435 1202,-435 1202,-435 1263,-435 1263,-435 1269,-435 1275,-441 1275,-447 1275,-447 1275,-459 1275,-459 1275,-465 1269,-471 1263,-471"/>
<text text-anchor="middle" x="1232.5" y="-449.3" font-family="Helvetica,sans-Serif" font-size="14.00">err_error5</text>
</g>
<!-- vibration&#45;&gt;err_error5 -->
<g id="edge17" class="edge">
<title>vibration&#45;&gt;err_error5</title>
<path fill="none" stroke="black" stroke-width="1.2" d="M1134.81,-360.08C1154.03,-378.55 1184,-407.35 1205.48,-428"/>
<polygon fill="black" stroke="black" stroke-width="1.2" points="1203.06,-430.52 1212.69,-434.93 1207.91,-425.47 1203.06,-430.52"/>
</g>
<!-- vibration&#45;&gt;mnt_comp3 -->
<g id="edge19" class="edge">
<title>vibration&#45;&gt;mnt_comp3</title>
<path fill="none" stroke="black" stroke-width="1.2" d="M1099.54,-360.16C1064.25,-402.26 968.89,-503 864.5,-503 741.5,-503 741.5,-503 741.5,-503 671.92,-503 592.94,-489.46 540.58,-478.54"/>
<polygon fill="black" stroke="black" stroke-width="1.2" points="540.98,-475.05 530.47,-476.4 539.53,-481.9 540.98,-475.05"/>
</g>
<!-- err_error1&#45;&gt;vibration -->
<g id="edge15" class="edge">
<title>err_error1&#45;&gt;vibration</title>
<path fill="none" stroke="black" stroke-width="1.2" d="M785.28,-315.38C854.46,-320.98 992.4,-332.15 1065.67,-338.09"/>
<polygon fill="black" stroke="black" stroke-width="1.2" points="1065.74,-341.6 1075.99,-338.92 1066.31,-334.63 1065.74,-341.6"/>
</g>
<!-- err_error2 -->
<g id="node6" class="node">
<title>err_error2</title>
<path fill="white" stroke="black" d="M894,-162C894,-162 833,-162 833,-162 827,-162 821,-156 821,-150 821,-150 821,-138 821,-138 821,-132 827,-126 833,-126 833,-126 894,-126 894,-126 900,-126 906,-132 906,-138 906,-138 906,-150 906,-150 906,-156 900,-162 894,-162"/>
<text text-anchor="middle" x="863.5" y="-140.3" font-family="Helvetica,sans-Serif" font-size="14.00">err_error2</text>
</g>
<!-- err_error1&#45;&gt;err_error2 -->
<g id="edge21" class="edge">
<title>err_error1&#45;&gt;err_error2</title>
<path fill="none" stroke="black" stroke-width="1.2" d="M756.46,-293.7C777.53,-263.96 819.29,-205 843.65,-170.61"/>
<polygon fill="black" stroke="black" stroke-width="1.2" points="846.81,-172.21 849.73,-162.02 841.1,-168.16 846.81,-172.21"/>
</g>
<!-- err_error2&#45;&gt;volt -->
<g id="edge2" class="edge">
<title>err_error2&#45;&gt;volt</title>
<path fill="none" stroke="black" stroke-width="1.2" d="M820.98,-132.52C809.42,-129.83 796.8,-127.35 785,-126 558.11,-100 282.87,-127.74 185.37,-139.37"/>
<polygon fill="black" stroke="black" stroke-width="1.2" points="184.67,-135.93 175.16,-140.61 185.51,-142.88 184.67,-135.93"/>
</g>
<!-- err_error2&#45;&gt;vibration -->
<g id="edge16" class="edge">
<title>err_error2&#45;&gt;vibration</title>
<path fill="none" stroke="black" stroke-width="1.2" d="M906.06,-148.49C944.62,-154.57 1001.68,-168.67 1040,-201 1075.47,-230.92 1096.23,-282.21 1106.33,-313.99"/>
<polygon fill="black" stroke="black" stroke-width="1.2" points="1102.99,-315.02 1109.24,-323.58 1109.69,-312.99 1102.99,-315.02"/>
</g>
<!-- mnt_comp1 -->
<g id="node10" class="node">
<title>mnt_comp1</title>
<path fill="white" stroke="black" d="M652,-231C652,-231 578,-231 578,-231 572,-231 566,-225 566,-219 566,-219 566,-207 566,-207 566,-201 572,-195 578,-195 578,-195 652,-195 652,-195 658,-195 664,-201 664,-207 664,-207 664,-219 664,-219 664,-225 658,-231 652,-231"/>
<text text-anchor="middle" x="615" y="-209.3" font-family="Helvetica,sans-Serif" font-size="14.00">mnt_comp1</text>
</g>
<!-- err_error2&#45;&gt;mnt_comp1 -->
<g id="edge27" class="edge">
<title>err_error2&#45;&gt;mnt_comp1</title>
<path fill="none" stroke="black" stroke-width="1.2" d="M820.66,-155.71C780.27,-167.02 718.79,-184.23 673.75,-196.84"/>
<polygon fill="black" stroke="black" stroke-width="1.2" points="672.8,-193.47 664.11,-199.53 674.69,-200.21 672.8,-193.47"/>
</g>
<!-- err_error2&#45;&gt;mnt_comp4 -->
<g id="edge28" class="edge">
<title>err_error2&#45;&gt;mnt_comp4</title>
<path fill="none" stroke="black" stroke-width="1.2" d="M891.42,-162.02C909.74,-174.28 934.19,-190.64 954.15,-204.01"/>
<polygon fill="black" stroke="black" stroke-width="1.2" points="952.43,-207.07 962.69,-209.72 956.33,-201.25 952.43,-207.07"/>
</g>
<!-- err_error3 -->
<g id="node7" class="node">
<title>err_error3</title>
<path fill="white" stroke="black" d="M73,-94C73,-94 12,-94 12,-94 6,-94 0,-88 0,-82 0,-82 0,-70 0,-70 0,-64 6,-58 12,-58 12,-58 73,-58 73,-58 79,-58 85,-64 85,-70 85,-70 85,-82 85,-82 85,-88 79,-94 73,-94"/>
<text text-anchor="middle" x="42.5" y="-72.3" font-family="Helvetica,sans-Serif" font-size="14.00">err_error3</text>
</g>
<!-- err_error3&#45;&gt;volt -->
<g id="edge3" class="edge">
<title>err_error3&#45;&gt;volt</title>
<path fill="none" stroke="black" stroke-width="1.2" d="M70.96,-94.04C83.64,-102.37 98.83,-112.35 112.29,-121.19"/>
<polygon fill="black" stroke="black" stroke-width="1.2" points="110.56,-124.24 120.84,-126.81 114.4,-118.39 110.56,-124.24"/>
</g>
<!-- err_error3&#45;&gt;rotate -->
<g id="edge9" class="edge">
<title>err_error3&#45;&gt;rotate</title>
<path fill="none" stroke="black" stroke-width="1.2" d="M57.21,-94.21C91.13,-139.26 179.06,-256.05 218.66,-308.64"/>
<polygon fill="black" stroke="black" stroke-width="1.2" points="215.99,-310.92 224.8,-316.81 221.58,-306.71 215.99,-310.92"/>
</g>
<!-- err_error3&#45;&gt;err_error2 -->
<g id="edge26" class="edge">
<title>err_error3&#45;&gt;err_error2</title>
<path fill="none" stroke="black" stroke-width="1.2" d="M70.62,-57.99C107.14,-35.51 174.91,0 238.5,0 238.5,0 238.5,0 482,0 616.24,0 760.88,-79.37 826.49,-120.26"/>
<polygon fill="black" stroke="black" stroke-width="1.2" points="824.89,-123.39 835.21,-125.76 828.62,-117.47 824.89,-123.39"/>
</g>
<!-- err_error3&#45;&gt;mnt_comp1 -->
<g id="edge30" class="edge">
<title>err_error3&#45;&gt;mnt_comp1</title>
<path fill="none" stroke="black" stroke-width="1.2" d="M94.99,-86.08C184.19,-103.88 372.95,-143.1 530,-186 538.48,-188.32 547.38,-190.95 556.09,-193.65"/>
<polygon fill="black" stroke="black" stroke-width="1.2" points="95.62,-82.63 85.13,-84.12 94.26,-89.5 95.62,-82.63"/>
<polygon fill="black" stroke="black" stroke-width="1.2" points="555.21,-197.04 565.8,-196.7 557.31,-190.36 555.21,-197.04"/>
</g>
<!-- err_error4&#45;&gt;err_error1 -->
<g id="edge22" class="edge">
<title>err_error4&#45;&gt;err_error1</title>
<path fill="none" stroke="black" stroke-width="1.2" d="M645.03,-400.87C651.44,-396.54 658.07,-391.78 664,-387 682.87,-371.79 702.47,-352.79 717.24,-337.71"/>
<polygon fill="black" stroke="black" stroke-width="1.2" points="720.04,-339.85 724.49,-330.23 715.02,-334.98 720.04,-339.85"/>
</g>
<!-- err_error5&#45;&gt;pressure -->
<g id="edge13" class="edge">
<title>err_error5&#45;&gt;pressure</title>
<path fill="none" stroke="black" stroke-width="1.2" d="M1212.79,-471.05C1174.62,-505.89 1083.62,-579 992,-579 614,-579 614,-579 614,-579 537.25,-579 450.61,-555.9 398.44,-539.38"/>
<polygon fill="black" stroke="black" stroke-width="1.2" points="399.38,-536 388.79,-536.27 397.24,-542.67 399.38,-536"/>
</g>
<!-- mnt_comp1&#45;&gt;vibration -->
<g id="edge18" class="edge">
<title>mnt_comp1&#45;&gt;vibration</title>
<path fill="none" stroke="black" stroke-width="1.2" d="M664.2,-225.49C759.47,-250.16 970.85,-304.92 1065.98,-329.56"/>
<polygon fill="black" stroke="black" stroke-width="1.2" points="1065.34,-333.01 1075.9,-332.13 1067.1,-326.23 1065.34,-333.01"/>
</g>
<!-- mnt_comp1&#45;&gt;err_error1 -->
<g id="edge23" class="edge">
<title>mnt_comp1&#45;&gt;err_error1</title>
<path fill="none" stroke="black" stroke-width="1.2" d="M645.04,-231.12C651.44,-235.45 658.08,-240.22 664,-245 681.36,-259.03 683.14,-265.39 700,-280 702.85,-282.47 705.86,-284.98 708.91,-287.45"/>
<polygon fill="black" stroke="black" stroke-width="1.2" points="706.98,-290.38 716.99,-293.84 711.32,-284.89 706.98,-290.38"/>
</g>
<!-- mnt_comp1&#45;&gt;mnt_comp4 -->
<g id="edge33" class="edge">
<title>mnt_comp1&#45;&gt;mnt_comp4</title>
<path fill="none" stroke="black" stroke-width="1.2" d="M664.13,-214.93C732.62,-217.68 858.06,-222.71 931.72,-225.66"/>
<polygon fill="black" stroke="black" stroke-width="1.2" points="931.63,-229.16 941.76,-226.07 931.91,-222.17 931.63,-229.16"/>
</g>
<!-- mnt_comp2 -->
<g id="node11" class="node">
<title>mnt_comp2</title>
<path fill="white" stroke="black" d="M518,-231C518,-231 444,-231 444,-231 438,-231 432,-225 432,-219 432,-219 432,-207 432,-207 432,-201 438,-195 444,-195 444,-195 518,-195 518,-195 524,-195 530,-201 530,-207 530,-207 530,-219 530,-219 530,-225 524,-231 518,-231"/>
<text text-anchor="middle" x="481" y="-209.3" font-family="Helvetica,sans-Serif" font-size="14.00">mnt_comp2</text>
</g>
<!-- mnt_comp2&#45;&gt;volt -->
<g id="edge4" class="edge">
<title>mnt_comp2&#45;&gt;volt</title>
<path fill="none" stroke="black" stroke-width="1.2" d="M431.99,-202.99C365.11,-189.05 245.4,-164.1 185.39,-151.59"/>
<polygon fill="black" stroke="black" stroke-width="1.2" points="185.75,-148.09 175.25,-149.47 184.32,-154.94 185.75,-148.09"/>
</g>
<!-- mnt_comp2&#45;&gt;err_error1 -->
<g id="edge24" class="edge">
<title>mnt_comp2&#45;&gt;err_error1</title>
<path fill="none" stroke="black" stroke-width="1.2" d="M529.29,-231.04C574.84,-248.42 643.52,-274.62 690.33,-292.48"/>
<polygon fill="black" stroke="black" stroke-width="1.2" points="689.08,-295.75 699.67,-296.04 691.58,-289.21 689.08,-295.75"/>
</g>
<!-- mnt_comp2&#45;&gt;mnt_comp1 -->
<g id="edge31" class="edge">
<title>mnt_comp2&#45;&gt;mnt_comp1</title>
<path fill="none" stroke="black" stroke-width="1.2" d="M530.03,-213C538.31,-213 547,-213 555.52,-213"/>
<polygon fill="black" stroke="black" stroke-width="1.2" points="555.79,-216.5 565.79,-213 555.79,-209.5 555.79,-216.5"/>
</g>
<!-- mnt_comp2&#45;&gt;mnt_comp4 -->
<g id="edge34" class="edge">
<title>mnt_comp2&#45;&gt;mnt_comp4</title>
<path fill="none" stroke="black" stroke-width="1.2" d="M529.35,-194.95C541.15,-191.25 553.89,-187.9 566,-186 695.96,-165.63 849.96,-193.83 931.9,-212.95"/>
<polygon fill="black" stroke="black" stroke-width="1.2" points="931.23,-216.38 941.77,-215.29 932.84,-209.57 931.23,-216.38"/>
</g>
<!-- mnt_comp3&#45;&gt;mnt_comp1 -->
<g id="edge32" class="edge">
<title>mnt_comp3&#45;&gt;mnt_comp1</title>
<path fill="none" stroke="black" stroke-width="1.2" d="M491.49,-446.88C514.37,-403.21 572.63,-291.98 599.73,-240.24"/>
<polygon fill="black" stroke="black" stroke-width="1.2" points="602.88,-241.78 604.42,-231.3 596.68,-238.53 602.88,-241.78"/>
</g>
<!-- mnt_comp3&#45;&gt;mnt_comp4 -->
<g id="edge36" class="edge">
<title>mnt_comp3&#45;&gt;mnt_comp4</title>
<path fill="none" stroke="black" stroke-width="1.2" d="M530.37,-465.71C567.77,-464.91 620.37,-460.77 664,-446 788.83,-403.74 911.26,-300.75 963.56,-253.04"/>
<polygon fill="black" stroke="black" stroke-width="1.2" points="966.06,-255.49 971.05,-246.14 961.32,-250.34 966.06,-255.49"/>
</g>
<!-- mnt_comp4&#45;&gt;vibration -->
<g id="edge20" class="edge">
<title>mnt_comp4&#45;&gt;vibration</title>
<path fill="none" stroke="black" stroke-width="1.2" d="M1011.33,-246.06C1031.73,-265.13 1064.05,-295.33 1086.97,-316.75"/>
<polygon fill="black" stroke="black" stroke-width="1.2" points="1084.66,-319.37 1094.36,-323.64 1089.44,-314.26 1084.66,-319.37"/>
</g>
<!-- fail_comp2&#45;&gt;err_error1 -->
<g id="edge25" class="edge">
<title>fail_comp2&#45;&gt;err_error1</title>
<path fill="none" stroke="black" stroke-width="1.2" d="M396.18,-298.74C469.14,-301.54 612.49,-307.04 689.56,-310"/>
<polygon fill="black" stroke="black" stroke-width="1.2" points="689.85,-313.52 699.98,-310.41 690.12,-306.52 689.85,-313.52"/>
</g>
<!-- fail_comp2&#45;&gt;err_error2 -->
<g id="edge29" class="edge">
<title>fail_comp2&#45;&gt;err_error2</title>
<path fill="none" stroke="black" stroke-width="1.2" d="M358.51,-278.66C370.09,-253.01 394.92,-207.17 432,-186 553.41,-116.67 725.93,-125.97 811,-136.2"/>
<polygon fill="black" stroke="black" stroke-width="1.2" points="810.57,-139.67 820.93,-137.44 811.44,-132.73 810.57,-139.67"/>
</g>
<!-- fail_comp2&#45;&gt;mnt_comp2 -->
<g id="edge35" class="edge">
<title>fail_comp2&#45;&gt;mnt_comp2</title>
<path fill="none" stroke="black" stroke-width="1.2" d="M378.67,-278.98C397.59,-266.66 422.86,-250.21 443.43,-236.81"/>
<polygon fill="black" stroke="black" stroke-width="1.2" points="445.46,-239.67 451.93,-231.28 441.64,-233.8 445.46,-239.67"/>
</g>
<!-- fail_comp2&#45;&gt;mnt_comp4 -->
<g id="edge37" class="edge">
<title>fail_comp2&#45;&gt;mnt_comp4</title>
<path fill="none" stroke="black" stroke-width="1.2" d="M394.87,-315.01C475.88,-345.35 652.75,-397.9 785,-339 806.85,-329.27 801.5,-312.86 821,-299 854.76,-275.01 897.88,-257.06 932.11,-245.21"/>
<polygon fill="black" stroke="black" stroke-width="1.2" points="933.61,-248.39 941.97,-241.88 931.37,-241.76 933.61,-248.39"/>
</g>
</g>
</svg>
