<?xml version="1.0" encoding="UTF-8" standalone="no"?>
<!DOCTYPE svg PUBLIC "-//W3C//DTD SVG 1.1//EN"
 "http://www.w3.org/Graphics/SVG/1.1/DTD/svg11.dtd">
<!-- Generated by graphviz version 2.50.0 (0)
 -->
<!-- Title: G Pages: 1 -->
<svg width="1537pt" height="772pt"
 viewBox="0.00 0.00 1537.00 772.33" xmlns="http://www.w3.org/2000/svg" xmlns:xlink="http://www.w3.org/1999/xlink">
<g id="graph0" class="graph" transform="scale(1 1) rotate(0) translate(4 768.33)">
<title>G</title>
<polygon fill="white" stroke="transparent" points="-4,4 -4,-768.33 1533,-768.33 1533,4 -4,4"/>
<text text-anchor="middle" x="764.5" y="-747.53" font-family="Times,serif" font-size="16.00">model=model1/cbnb_w_mixed.json [machine 56]</text>
<!-- volt -->
<g id="node1" class="node">
<title>volt</title>
<path fill="white" stroke="black" d="M42,-189.33C42,-189.33 12,-189.33 12,-189.33 6,-189.33 0,-183.33 0,-177.33 0,-177.33 0,-165.33 0,-165.33 0,-159.33 6,-153.33 12,-153.33 12,-153.33 42,-153.33 42,-153.33 48,-153.33 54,-159.33 54,-165.33 54,-165.33 54,-177.33 54,-177.33 54,-183.33 48,-189.33 42,-189.33"/>
<text text-anchor="middle" x="27" y="-167.63" font-family="Helvetica,sans-Serif" font-size="14.00">volt</text>
</g>
<!-- vibration -->
<g id="node4" class="node">
<title>vibration</title>
<path fill="white" stroke="black" d="M156,-429.33C156,-429.33 102,-429.33 102,-429.33 96,-429.33 90,-423.33 90,-417.33 90,-417.33 90,-405.33 90,-405.33 90,-399.33 96,-393.33 102,-393.33 102,-393.33 156,-393.33 156,-393.33 162,-393.33 168,-399.33 168,-405.33 168,-405.33 168,-417.33 168,-417.33 168,-423.33 162,-429.33 156,-429.33"/>
<text text-anchor="middle" x="129" y="-407.63" font-family="Helvetica,sans-Serif" font-size="14.00">vibration</text>
</g>
<!-- volt&#45;&gt;vibration -->
<g id="edge2" class="edge">
<title>volt&#45;&gt;vibration</title>
<path fill="none" stroke="black" stroke-width="1.2" d="M35.52,-189.37C52.85,-230.98 95.74,-333.92 116.45,-383.61"/>
<polygon fill="black" stroke="black" stroke-width="1.2" points="113.32,-385.2 120.4,-393.09 119.78,-382.51 113.32,-385.2"/>
</g>
<!-- err_error1 -->
<g id="node5" class="node">
<title>err_error1</title>
<path fill="white" stroke="black" d="M1003.5,-680.33C1003.5,-680.33 942.5,-680.33 942.5,-680.33 936.5,-680.33 930.5,-674.33 930.5,-668.33 930.5,-668.33 930.5,-656.33 930.5,-656.33 930.5,-650.33 936.5,-644.33 942.5,-644.33 942.5,-644.33 1003.5,-644.33 1003.5,-644.33 1009.5,-644.33 1015.5,-650.33 1015.5,-656.33 1015.5,-656.33 1015.5,-668.33 1015.5,-668.33 1015.5,-674.33 1009.5,-680.33 1003.5,-680.33"/>
<text text-anchor="middle" x="973" y="-658.63" font-family="Helvetica,sans-Serif" font-size="14.00">err_error1</text>
</g>
<!-- volt&#45;&gt;err_error1 -->
<g id="edge3" class="edge">
<title>volt&#45;&gt;err_error1</title>
<path fill="none" stroke="black" stroke-width="1.2" d="M27.94,-199.81C28.76,-265.45 36.44,-431.33 90,-556.33 131.45,-653.08 136.25,-738.33 241.5,-738.33 241.5,-738.33 241.5,-738.33 616,-738.33 726.53,-738.33 852.2,-702.86 920.73,-680.38"/>
<polygon fill="black" stroke="black" stroke-width="1.2" points="31.43,-199.42 27.85,-189.45 24.43,-199.48 31.43,-199.42"/>
<polygon fill="black" stroke="black" stroke-width="1.2" points="922.03,-683.64 930.42,-677.17 919.82,-677 922.03,-683.64"/>
</g>
<!-- err_error3 -->
<g id="node7" class="node">
<title>err_error3</title>
<path fill="white" stroke="black" d="M1517,-509.33C1517,-509.33 1456,-509.33 1456,-509.33 1450,-509.33 1444,-503.33 1444,-497.33 1444,-497.33 1444,-485.33 1444,-485.33 1444,-479.33 1450,-473.33 1456,-473.33 1456,-473.33 1517,-473.33 1517,-473.33 1523,-473.33 1529,-479.33 1529,-485.33 1529,-485.33 1529,-497.33 1529,-497.33 1529,-503.33 1523,-509.33 1517,-509.33"/>
<text text-anchor="middle" x="1486.5" y="-487.63" font-family="Helvetica,sans-Serif" font-size="14.00">err_error3</text>
</g>
<!-- volt&#45;&gt;err_error3 -->
<g id="edge4" class="edge">
<title>volt&#45;&gt;err_error3</title>
<path fill="none" stroke="black" stroke-width="1.2" d="M31.44,-152.94C37.79,-124.24 54.12,-69.05 90,-39.33 143.54,5.02 171.97,-0.33 241.5,-0.33 241.5,-0.33 241.5,-0.33 1239,-0.33 1447.66,-0.33 1479.71,-358.87 1484.62,-463.18"/>
<polygon fill="black" stroke="black" stroke-width="1.2" points="1481.12,-463.43 1485.04,-473.28 1488.12,-463.14 1481.12,-463.43"/>
</g>
<!-- mnt_comp3 -->
<g id="node11" class="node">
<title>mnt_comp3</title>
<path fill="white" stroke="black" d="M1275,-254.33C1275,-254.33 1201,-254.33 1201,-254.33 1195,-254.33 1189,-248.33 1189,-242.33 1189,-242.33 1189,-230.33 1189,-230.33 1189,-224.33 1195,-218.33 1201,-218.33 1201,-218.33 1275,-218.33 1275,-218.33 1281,-218.33 1287,-224.33 1287,-230.33 1287,-230.33 1287,-242.33 1287,-242.33 1287,-248.33 1281,-254.33 1275,-254.33"/>
<text text-anchor="middle" x="1238" y="-232.63" font-family="Helvetica,sans-Serif" font-size="14.00">mnt_comp3</text>
</g>
<!-- volt&#45;&gt;mnt_comp3 -->
<g id="edge7" class="edge">
<title>volt&#45;&gt;mnt_comp3</title>
<path fill="none" stroke="black" stroke-width="1.2" d="M35.76,-153.33C45.49,-132.86 64.1,-99.91 90,-81.33 146.88,-40.55 171.51,-38.33 241.5,-38.33 241.5,-38.33 241.5,-38.33 974,-38.33 1086.61,-38.33 1181.67,-155.62 1219.49,-209.66"/>
<polygon fill="black" stroke="black" stroke-width="1.2" points="1216.72,-211.8 1225.27,-218.06 1222.49,-207.84 1216.72,-211.8"/>
</g>
<!-- rotate -->
<g id="node2" class="node">
<title>rotate</title>
<path fill="white" stroke="black" d="M879,-452.33C879,-452.33 846,-452.33 846,-452.33 840,-452.33 834,-446.33 834,-440.33 834,-440.33 834,-428.33 834,-428.33 834,-422.33 840,-416.33 846,-416.33 846,-416.33 879,-416.33 879,-416.33 885,-416.33 891,-422.33 891,-428.33 891,-428.33 891,-440.33 891,-440.33 891,-446.33 885,-452.33 879,-452.33"/>
<text text-anchor="middle" x="862.5" y="-430.63" font-family="Helvetica,sans-Serif" font-size="14.00">rotate</text>
</g>
<!-- rotate&#45;&gt;volt -->
<g id="edge1" class="edge">
<title>rotate&#45;&gt;volt</title>
<path fill="none" stroke="black" stroke-width="1.2" d="M855.16,-452.4C845.9,-476.53 826.62,-519.34 798,-546.33 685.21,-652.71 640.04,-700.33 485,-700.33 241.5,-700.33 241.5,-700.33 241.5,-700.33 132.47,-700.33 53.06,-309.06 32.97,-199.52"/>
<polygon fill="black" stroke="black" stroke-width="1.2" points="36.39,-198.76 31.16,-189.54 29.5,-200.01 36.39,-198.76"/>
</g>
<!-- pressure -->
<g id="node3" class="node">
<title>pressure</title>
<path fill="white" stroke="black" d="M269,-429.33C269,-429.33 216,-429.33 216,-429.33 210,-429.33 204,-423.33 204,-417.33 204,-417.33 204,-405.33 204,-405.33 204,-399.33 210,-393.33 216,-393.33 216,-393.33 269,-393.33 269,-393.33 275,-393.33 281,-399.33 281,-405.33 281,-405.33 281,-417.33 281,-417.33 281,-423.33 275,-429.33 269,-429.33"/>
<text text-anchor="middle" x="242.5" y="-407.63" font-family="Helvetica,sans-Serif" font-size="14.00">pressure</text>
</g>
<!-- rotate&#45;&gt;pressure -->
<g id="edge9" class="edge">
<title>rotate&#45;&gt;pressure</title>
<path fill="none" stroke="black" stroke-width="1.2" d="M823.81,-443.85C775.86,-455.11 690.33,-472.33 616,-472.33 483,-472.33 483,-472.33 483,-472.33 414.56,-472.33 338.42,-448.65 290.75,-430.8"/>
<polygon fill="black" stroke="black" stroke-width="1.2" points="824.82,-447.21 833.74,-441.48 823.2,-440.4 824.82,-447.21"/>
<polygon fill="black" stroke="black" stroke-width="1.2" points="291.91,-427.49 281.32,-427.2 289.42,-434.04 291.91,-427.49"/>
</g>
<!-- rotate&#45;&gt;vibration -->
<g id="edge10" class="edge">
<title>rotate&#45;&gt;vibration</title>
<path fill="none" stroke="black" stroke-width="1.2" d="M846.33,-452.37C810.64,-492.63 716.76,-586.33 616,-586.33 358.5,-586.33 358.5,-586.33 358.5,-586.33 262.07,-586.33 181.17,-486.88 147.19,-437.92"/>
<polygon fill="black" stroke="black" stroke-width="1.2" points="149.91,-435.71 141.4,-429.4 144.13,-439.64 149.91,-435.71"/>
</g>
<!-- rotate&#45;&gt;err_error1 -->
<g id="edge11" class="edge">
<title>rotate&#45;&gt;err_error1</title>
<path fill="none" stroke="black" stroke-width="1.2" d="M872.2,-452.61C891.21,-492.56 936.57,-587.88 958.99,-635"/>
<polygon fill="black" stroke="black" stroke-width="1.2" points="955.96,-636.77 963.41,-644.29 962.28,-633.76 955.96,-636.77"/>
</g>
<!-- rotate&#45;&gt;err_error3 -->
<g id="edge13" class="edge">
<title>rotate&#45;&gt;err_error3</title>
<path fill="none" stroke="black" stroke-width="1.2" d="M891.11,-446.71C902.07,-451.11 914.92,-455.63 927,-458.33 1003.57,-475.49 1024.53,-472.33 1103,-472.33 1103,-472.33 1103,-472.33 1239,-472.33 1306.32,-472.33 1383.68,-479.47 1433.5,-484.99"/>
<polygon fill="black" stroke="black" stroke-width="1.2" points="1433.38,-488.5 1443.7,-486.14 1434.16,-481.54 1433.38,-488.5"/>
</g>
<!-- err_error4 -->
<g id="node8" class="node">
<title>err_error4</title>
<path fill="white" stroke="black" d="M390,-429.33C390,-429.33 329,-429.33 329,-429.33 323,-429.33 317,-423.33 317,-417.33 317,-417.33 317,-405.33 317,-405.33 317,-399.33 323,-393.33 329,-393.33 329,-393.33 390,-393.33 390,-393.33 396,-393.33 402,-399.33 402,-405.33 402,-405.33 402,-417.33 402,-417.33 402,-423.33 396,-429.33 390,-429.33"/>
<text text-anchor="middle" x="359.5" y="-407.63" font-family="Helvetica,sans-Serif" font-size="14.00">err_error4</text>
</g>
<!-- rotate&#45;&gt;err_error4 -->
<g id="edge14" class="edge">
<title>rotate&#45;&gt;err_error4</title>
<path fill="none" stroke="black" stroke-width="1.2" d="M823.57,-432.59C734.83,-428.52 513.57,-418.36 412.42,-413.72"/>
<polygon fill="black" stroke="black" stroke-width="1.2" points="823.57,-436.1 833.72,-433.06 823.89,-429.1 823.57,-436.1"/>
<polygon fill="black" stroke="black" stroke-width="1.2" points="412.5,-410.22 402.35,-413.26 412.18,-417.21 412.5,-410.22"/>
</g>
<!-- fail_comp2 -->
<g id="node14" class="node">
<title>fail_comp2</title>
<path fill="white" stroke="black" d="M1007,-254.33C1007,-254.33 939,-254.33 939,-254.33 933,-254.33 927,-248.33 927,-242.33 927,-242.33 927,-230.33 927,-230.33 927,-224.33 933,-218.33 939,-218.33 939,-218.33 1007,-218.33 1007,-218.33 1013,-218.33 1019,-224.33 1019,-230.33 1019,-230.33 1019,-242.33 1019,-242.33 1019,-248.33 1013,-254.33 1007,-254.33"/>
<text text-anchor="middle" x="973" y="-232.63" font-family="Helvetica,sans-Serif" font-size="14.00">fail_comp2</text>
</g>
<!-- rotate&#45;&gt;fail_comp2 -->
<g id="edge17" class="edge">
<title>rotate&#45;&gt;fail_comp2</title>
<path fill="none" stroke="black" stroke-width="1.2" d="M873.51,-416.06C892.69,-381.07 934.68,-304.44 957.14,-263.45"/>
<polygon fill="black" stroke="black" stroke-width="1.2" points="960.28,-265.01 962.01,-254.56 954.14,-261.65 960.28,-265.01"/>
</g>
<!-- pressure&#45;&gt;err_error4 -->
<g id="edge22" class="edge">
<title>pressure&#45;&gt;err_error4</title>
<path fill="none" stroke="black" stroke-width="1.2" d="M281.16,-411.33C289.35,-411.33 298.15,-411.33 306.78,-411.33"/>
<polygon fill="black" stroke="black" stroke-width="1.2" points="306.78,-414.83 316.78,-411.33 306.78,-407.83 306.78,-414.83"/>
</g>
<!-- fail_comp3 -->
<g id="node15" class="node">
<title>fail_comp3</title>
<path fill="white" stroke="black" d="M1138,-254.33C1138,-254.33 1070,-254.33 1070,-254.33 1064,-254.33 1058,-248.33 1058,-242.33 1058,-242.33 1058,-230.33 1058,-230.33 1058,-224.33 1064,-218.33 1070,-218.33 1070,-218.33 1138,-218.33 1138,-218.33 1144,-218.33 1150,-224.33 1150,-230.33 1150,-230.33 1150,-242.33 1150,-242.33 1150,-248.33 1144,-254.33 1138,-254.33"/>
<text text-anchor="middle" x="1104" y="-232.63" font-family="Helvetica,sans-Serif" font-size="14.00">fail_comp3</text>
</g>
<!-- pressure&#45;&gt;fail_comp3 -->
<g id="edge23" class="edge">
<title>pressure&#45;&gt;fail_comp3</title>
<path fill="none" stroke="black" stroke-width="1.2" d="M256.09,-393.18C269.49,-374.91 292.15,-346.85 317,-328.33 433.7,-241.35 468.45,-190.33 614,-190.33 614,-190.33 614,-190.33 863.5,-190.33 933.13,-190.33 951,-194.39 1019,-209.33 1028.44,-211.41 1038.33,-214.1 1047.87,-216.98"/>
<polygon fill="black" stroke="black" stroke-width="1.2" points="1047.07,-220.39 1057.65,-220.03 1049.15,-213.71 1047.07,-220.39"/>
</g>
<!-- vibration&#45;&gt;pressure -->
<g id="edge19" class="edge">
<title>vibration&#45;&gt;pressure</title>
<path fill="none" stroke="black" stroke-width="1.2" d="M168.06,-411.33C176.31,-411.33 185.14,-411.33 193.72,-411.33"/>
<polygon fill="black" stroke="black" stroke-width="1.2" points="193.99,-414.83 203.99,-411.33 193.99,-407.83 193.99,-414.83"/>
</g>
<!-- err_error2 -->
<g id="node6" class="node">
<title>err_error2</title>
<path fill="white" stroke="black" d="M1396,-357.33C1396,-357.33 1335,-357.33 1335,-357.33 1329,-357.33 1323,-351.33 1323,-345.33 1323,-345.33 1323,-333.33 1323,-333.33 1323,-327.33 1329,-321.33 1335,-321.33 1335,-321.33 1396,-321.33 1396,-321.33 1402,-321.33 1408,-327.33 1408,-333.33 1408,-333.33 1408,-345.33 1408,-345.33 1408,-351.33 1402,-357.33 1396,-357.33"/>
<text text-anchor="middle" x="1365.5" y="-335.63" font-family="Helvetica,sans-Serif" font-size="14.00">err_error2</text>
</g>
<!-- vibration&#45;&gt;err_error2 -->
<g id="edge25" class="edge">
<title>vibration&#45;&gt;err_error2</title>
<path fill="none" stroke="black" stroke-width="1.2" d="M139.3,-383.64C163.69,-316.84 236.16,-152.33 358.5,-152.33 358.5,-152.33 358.5,-152.33 616,-152.33 854.67,-152.33 918.82,-109.24 1153,-155.33 1216,-167.73 1238.23,-167.57 1287,-209.33 1319.67,-237.31 1342.25,-282.67 1354.28,-311.73"/>
<polygon fill="black" stroke="black" stroke-width="1.2" points="135.98,-382.53 135.93,-393.12 142.58,-384.88 135.98,-382.53"/>
<polygon fill="black" stroke="black" stroke-width="1.2" points="1351.14,-313.29 1358.1,-321.28 1357.64,-310.7 1351.14,-313.29"/>
</g>
<!-- vibration&#45;&gt;err_error3 -->
<g id="edge26" class="edge">
<title>vibration&#45;&gt;err_error3</title>
<path fill="none" stroke="black" stroke-width="1.2" d="M159.82,-436.96C162.89,-440.54 165.72,-444.36 168,-448.33 201.05,-505.92 161.37,-542.42 204,-593.33 252.28,-651 283.3,-662.33 358.5,-662.33 358.5,-662.33 358.5,-662.33 485,-662.33 704.06,-662.33 752.94,-738.33 972,-738.33 972,-738.33 972,-738.33 1239,-738.33 1361.78,-738.33 1444.64,-583.54 1473.84,-519.04"/>
<polygon fill="black" stroke="black" stroke-width="1.2" points="162.21,-434.39 152.8,-429.53 157.12,-439.2 162.21,-434.39"/>
<polygon fill="black" stroke="black" stroke-width="1.2" points="1477.22,-520.06 1478.07,-509.5 1470.82,-517.22 1477.22,-520.06"/>
</g>
<!-- err_error1&#45;&gt;vibration -->
<g id="edge24" class="edge">
<title>err_error1&#45;&gt;vibration</title>
<path fill="none" stroke="black" stroke-width="1.2" d="M930.39,-656.89C846.37,-646.38 650.37,-624.33 485,-624.33 358.5,-624.33 358.5,-624.33 358.5,-624.33 282.36,-624.33 258.97,-603.01 204,-550.33 171.19,-518.89 149.79,-469.69 138.82,-439.04"/>
<polygon fill="black" stroke="black" stroke-width="1.2" points="142.06,-437.72 135.49,-429.4 135.45,-440 142.06,-437.72"/>
</g>
<!-- err_error2&#45;&gt;rotate -->
<g id="edge12" class="edge">
<title>err_error2&#45;&gt;rotate</title>
<path fill="none" stroke="black" stroke-width="1.2" d="M1350.8,-357.66C1336.86,-374.71 1313.56,-399.13 1287,-410.33 1154.47,-466.23 977.65,-450.81 901.27,-440.35"/>
<polygon fill="black" stroke="black" stroke-width="1.2" points="901.57,-436.86 891.17,-438.92 900.58,-443.79 901.57,-436.86"/>
</g>
<!-- err_error2&#45;&gt;pressure -->
<g id="edge20" class="edge">
<title>err_error2&#45;&gt;pressure</title>
<path fill="none" stroke="black" stroke-width="1.2" d="M1322.7,-330.32C1203.74,-305.99 853.38,-243.58 566,-285.33 459.28,-300.84 343.75,-356.49 284.18,-388.41"/>
<polygon fill="black" stroke="black" stroke-width="1.2" points="282.23,-385.48 275.1,-393.32 285.57,-391.64 282.23,-385.48"/>
</g>
<!-- err_error2&#45;&gt;err_error3 -->
<g id="edge28" class="edge">
<title>err_error2&#45;&gt;err_error3</title>
<path fill="none" stroke="black" stroke-width="1.2" d="M1386.98,-365.5C1408.83,-393.4 1443.23,-437.34 1465.06,-465.22"/>
<polygon fill="black" stroke="black" stroke-width="1.2" points="1389.54,-363.08 1380.62,-357.37 1384.03,-367.4 1389.54,-363.08"/>
<polygon fill="black" stroke="black" stroke-width="1.2" points="1462.48,-467.61 1471.4,-473.32 1467.99,-463.29 1462.48,-467.61"/>
</g>
<!-- err_error2&#45;&gt;err_error4 -->
<g id="edge29" class="edge">
<title>err_error2&#45;&gt;err_error4</title>
<path fill="none" stroke="black" stroke-width="1.2" d="M1322.97,-342.31C1163.17,-353.77 588.13,-395.01 412.08,-407.64"/>
<polygon fill="black" stroke="black" stroke-width="1.2" points="411.77,-404.15 402.05,-408.36 412.27,-411.13 411.77,-404.15"/>
</g>
<!-- err_error3&#45;&gt;pressure -->
<g id="edge21" class="edge">
<title>err_error3&#45;&gt;pressure</title>
<path fill="none" stroke="black" stroke-width="1.2" d="M1443.87,-507.06C1395.4,-523.93 1312.57,-548.33 1239,-548.33 483,-548.33 483,-548.33 483,-548.33 394.12,-548.33 308.27,-476.37 267.74,-436.76"/>
<polygon fill="black" stroke="black" stroke-width="1.2" points="270.04,-434.1 260.48,-429.53 265.1,-439.06 270.04,-434.1"/>
</g>
<!-- err_error3&#45;&gt;err_error4 -->
<g id="edge31" class="edge">
<title>err_error3&#45;&gt;err_error4</title>
<path fill="none" stroke="black" stroke-width="1.2" d="M1443.7,-496.53C1394.73,-502.15 1311.11,-510.33 1239,-510.33 614,-510.33 614,-510.33 614,-510.33 531.44,-510.33 443.48,-464.21 395.96,-434.93"/>
<polygon fill="black" stroke="black" stroke-width="1.2" points="397.62,-431.84 387.28,-429.49 393.9,-437.77 397.62,-431.84"/>
</g>
<!-- fail_comp1 -->
<g id="node13" class="node">
<title>fail_comp1</title>
<path fill="white" stroke="black" d="M518,-368.33C518,-368.33 450,-368.33 450,-368.33 444,-368.33 438,-362.33 438,-356.33 438,-356.33 438,-344.33 438,-344.33 438,-338.33 444,-332.33 450,-332.33 450,-332.33 518,-332.33 518,-332.33 524,-332.33 530,-338.33 530,-344.33 530,-344.33 530,-356.33 530,-356.33 530,-362.33 524,-368.33 518,-368.33"/>
<text text-anchor="middle" x="484" y="-346.63" font-family="Helvetica,sans-Serif" font-size="14.00">fail_comp1</text>
</g>
<!-- err_error4&#45;&gt;fail_comp1 -->
<g id="edge32" class="edge">
<title>err_error4&#45;&gt;fail_comp1</title>
<path fill="none" stroke="black" stroke-width="1.2" d="M396.92,-393.2C409.64,-386.86 424.08,-379.67 437.46,-373.01"/>
<polygon fill="black" stroke="black" stroke-width="1.2" points="439.12,-376.1 446.51,-368.51 435.99,-369.83 439.12,-376.1"/>
</g>
<!-- mnt_comp1 -->
<g id="node9" class="node">
<title>mnt_comp1</title>
<path fill="white" stroke="black" d="M652,-330.33C652,-330.33 578,-330.33 578,-330.33 572,-330.33 566,-324.33 566,-318.33 566,-318.33 566,-306.33 566,-306.33 566,-300.33 572,-294.33 578,-294.33 578,-294.33 652,-294.33 652,-294.33 658,-294.33 664,-300.33 664,-306.33 664,-306.33 664,-318.33 664,-318.33 664,-324.33 658,-330.33 652,-330.33"/>
<text text-anchor="middle" x="615" y="-308.63" font-family="Helvetica,sans-Serif" font-size="14.00">mnt_comp1</text>
</g>
<!-- mnt_comp1&#45;&gt;volt -->
<g id="edge5" class="edge">
<title>mnt_comp1&#45;&gt;volt</title>
<path fill="none" stroke="black" stroke-width="1.2" d="M581.91,-294.31C534.87,-269.63 443.72,-228.33 360.5,-228.33 241.5,-228.33 241.5,-228.33 241.5,-228.33 177.04,-228.33 105.22,-203.78 63.47,-186.9"/>
<polygon fill="black" stroke="black" stroke-width="1.2" points="64.61,-183.58 54.03,-183.01 61.94,-190.06 64.61,-183.58"/>
</g>
<!-- mnt_comp1&#45;&gt;rotate -->
<g id="edge15" class="edge">
<title>mnt_comp1&#45;&gt;rotate</title>
<path fill="none" stroke="black" stroke-width="1.2" d="M652.22,-330.34C698.52,-353.34 778.22,-392.95 824.76,-416.08"/>
<polygon fill="black" stroke="black" stroke-width="1.2" points="823.37,-419.3 833.89,-420.61 826.49,-413.03 823.37,-419.3"/>
</g>
<!-- mnt_comp1&#45;&gt;vibration -->
<g id="edge27" class="edge">
<title>mnt_comp1&#45;&gt;vibration</title>
<path fill="none" stroke="black" stroke-width="1.2" d="M565.92,-312.85C530.38,-313.83 480.93,-316.46 438,-323.33 331.88,-340.32 306.6,-352.32 204,-384.33 195.46,-387 186.46,-390.06 177.78,-393.15"/>
<polygon fill="black" stroke="black" stroke-width="1.2" points="176.39,-389.93 168.17,-396.62 178.77,-396.52 176.39,-389.93"/>
</g>
<!-- mnt_comp4 -->
<g id="node12" class="node">
<title>mnt_comp4</title>
<path fill="white" stroke="black" d="M786,-330.33C786,-330.33 712,-330.33 712,-330.33 706,-330.33 700,-324.33 700,-318.33 700,-318.33 700,-306.33 700,-306.33 700,-300.33 706,-294.33 712,-294.33 712,-294.33 786,-294.33 786,-294.33 792,-294.33 798,-300.33 798,-306.33 798,-306.33 798,-318.33 798,-318.33 798,-324.33 792,-330.33 786,-330.33"/>
<text text-anchor="middle" x="749" y="-308.63" font-family="Helvetica,sans-Serif" font-size="14.00">mnt_comp4</text>
</g>
<!-- mnt_comp1&#45;&gt;mnt_comp4 -->
<g id="edge33" class="edge">
<title>mnt_comp1&#45;&gt;mnt_comp4</title>
<path fill="none" stroke="black" stroke-width="1.2" d="M664.03,-312.33C672.31,-312.33 681,-312.33 689.52,-312.33"/>
<polygon fill="black" stroke="black" stroke-width="1.2" points="689.79,-315.83 699.79,-312.33 689.79,-308.83 689.79,-315.83"/>
</g>
<!-- mnt_comp2 -->
<g id="node10" class="node">
<title>mnt_comp2</title>
<path fill="white" stroke="black" d="M1141,-200.33C1141,-200.33 1067,-200.33 1067,-200.33 1061,-200.33 1055,-194.33 1055,-188.33 1055,-188.33 1055,-176.33 1055,-176.33 1055,-170.33 1061,-164.33 1067,-164.33 1067,-164.33 1141,-164.33 1141,-164.33 1147,-164.33 1153,-170.33 1153,-176.33 1153,-176.33 1153,-188.33 1153,-188.33 1153,-194.33 1147,-200.33 1141,-200.33"/>
<text text-anchor="middle" x="1104" y="-178.63" font-family="Helvetica,sans-Serif" font-size="14.00">mnt_comp2</text>
</g>
<!-- mnt_comp2&#45;&gt;volt -->
<g id="edge6" class="edge">
<title>mnt_comp2&#45;&gt;volt</title>
<path fill="none" stroke="black" stroke-width="1.2" d="M1079.71,-164.11C1038.55,-133.81 949.21,-76.33 863.5,-76.33 241.5,-76.33 241.5,-76.33 241.5,-76.33 171.38,-76.33 152.01,-87.61 90,-120.33 76.94,-127.23 64.06,-137.15 53.46,-146.42"/>
<polygon fill="black" stroke="black" stroke-width="1.2" points="50.9,-144.02 45.83,-153.32 55.6,-149.21 50.9,-144.02"/>
</g>
<!-- mnt_comp3&#45;&gt;err_error2 -->
<g id="edge30" class="edge">
<title>mnt_comp3&#45;&gt;err_error2</title>
<path fill="none" stroke="black" stroke-width="1.2" d="M1267.68,-254.41C1274.17,-258.79 1280.93,-263.58 1287,-268.33 1305.22,-282.62 1324.42,-300.18 1339.15,-314.27"/>
<polygon fill="black" stroke="black" stroke-width="1.2" points="1336.79,-316.86 1346.42,-321.28 1341.65,-311.82 1336.79,-316.86"/>
</g>
<!-- mnt_comp3&#45;&gt;mnt_comp4 -->
<g id="edge36" class="edge">
<title>mnt_comp3&#45;&gt;mnt_comp4</title>
<path fill="none" stroke="black" stroke-width="1.2" d="M1188.57,-253.63C1177.03,-257.27 1164.67,-260.77 1153,-263.33 1032.1,-289.86 887.43,-303.05 808.49,-308.72"/>
<polygon fill="black" stroke="black" stroke-width="1.2" points="807.99,-305.25 798.26,-309.44 808.48,-312.23 807.99,-305.25"/>
</g>
<!-- mnt_comp4&#45;&gt;rotate -->
<g id="edge16" class="edge">
<title>mnt_comp4&#45;&gt;rotate</title>
<path fill="none" stroke="black" stroke-width="1.2" d="M766.45,-330.34C785.39,-351.06 816.64,-385.25 838.11,-408.74"/>
<polygon fill="black" stroke="black" stroke-width="1.2" points="835.65,-411.24 844.98,-416.26 840.82,-406.52 835.65,-411.24"/>
</g>
<!-- fail_comp1&#45;&gt;mnt_comp1 -->
<g id="edge34" class="edge">
<title>fail_comp1&#45;&gt;mnt_comp1</title>
<path fill="none" stroke="black" stroke-width="1.2" d="M530.12,-337.04C538.46,-334.59 547.28,-331.99 555.94,-329.44"/>
<polygon fill="black" stroke="black" stroke-width="1.2" points="557.01,-332.77 565.62,-326.59 555.03,-326.06 557.01,-332.77"/>
</g>
<!-- fail_comp1&#45;&gt;mnt_comp4 -->
<g id="edge38" class="edge">
<title>fail_comp1&#45;&gt;mnt_comp4</title>
<path fill="none" stroke="black" stroke-width="1.2" d="M530.26,-350.66C566.68,-350.18 619.02,-347.81 664,-339.33 672.53,-337.73 681.4,-335.51 690.04,-333.03"/>
<polygon fill="black" stroke="black" stroke-width="1.2" points="691.1,-336.36 699.67,-330.13 689.09,-329.66 691.1,-336.36"/>
</g>
<!-- fail_comp2&#45;&gt;volt -->
<g id="edge8" class="edge">
<title>fail_comp2&#45;&gt;volt</title>
<path fill="none" stroke="black" stroke-width="1.2" d="M941.77,-218.33C881.84,-184.4 742.75,-114.33 616,-114.33 241.5,-114.33 241.5,-114.33 241.5,-114.33 177.04,-114.33 105.22,-138.89 63.47,-155.77"/>
<polygon fill="black" stroke="black" stroke-width="1.2" points="61.94,-152.61 54.03,-159.66 64.61,-159.08 61.94,-152.61"/>
</g>
<!-- fail_comp2&#45;&gt;mnt_comp2 -->
<g id="edge35" class="edge">
<title>fail_comp2&#45;&gt;mnt_comp2</title>
<path fill="none" stroke="black" stroke-width="1.2" d="M1017.31,-218.2C1027.84,-213.8 1039.22,-209.03 1050.14,-204.46"/>
<polygon fill="black" stroke="black" stroke-width="1.2" points="1051.71,-207.6 1059.58,-200.51 1049,-201.14 1051.71,-207.6"/>
</g>
<!-- fail_comp2&#45;&gt;mnt_comp4 -->
<g id="edge39" class="edge">
<title>fail_comp2&#45;&gt;mnt_comp4</title>
<path fill="none" stroke="black" stroke-width="1.2" d="M926.95,-251.76C892.6,-263.52 845.03,-279.8 807.87,-292.52"/>
<polygon fill="black" stroke="black" stroke-width="1.2" points="806.5,-289.29 798.17,-295.84 808.77,-295.92 806.5,-289.29"/>
</g>
<!-- fail_comp2&#45;&gt;fail_comp3 -->
<g id="edge40" class="edge">
<title>fail_comp2&#45;&gt;fail_comp3</title>
<path fill="none" stroke="black" stroke-width="1.2" d="M1019.12,-236.33C1028.3,-236.33 1038.05,-236.33 1047.54,-236.33"/>
<polygon fill="black" stroke="black" stroke-width="1.2" points="1047.69,-239.83 1057.69,-236.33 1047.69,-232.83 1047.69,-239.83"/>
</g>
<!-- fail_comp3&#45;&gt;rotate -->
<g id="edge18" class="edge">
<title>fail_comp3&#45;&gt;rotate</title>
<path fill="none" stroke="black" stroke-width="1.2" d="M1080.95,-254.56C1037.86,-290.18 942.44,-369.07 893.59,-409.46"/>
<polygon fill="black" stroke="black" stroke-width="1.2" points="891.08,-406.99 885.6,-416.06 895.54,-412.39 891.08,-406.99"/>
</g>
<!-- fail_comp3&#45;&gt;mnt_comp3 -->
<g id="edge37" class="edge">
<title>fail_comp3&#45;&gt;mnt_comp3</title>
<path fill="none" stroke="black" stroke-width="1.2" d="M1150.06,-236.33C1159.27,-236.33 1169.09,-236.33 1178.7,-236.33"/>
<polygon fill="black" stroke="black" stroke-width="1.2" points="1178.99,-239.83 1188.99,-236.33 1178.99,-232.83 1178.99,-239.83"/>
</g>
</g>
</svg>
