<?xml version="1.0" encoding="UTF-8" standalone="no"?>
<!DOCTYPE svg PUBLIC "-//W3C//DTD SVG 1.1//EN"
 "http://www.w3.org/Graphics/SVG/1.1/DTD/svg11.dtd">
<!-- Generated by graphviz version 2.50.0 (0)
 -->
<!-- Title: G Pages: 1 -->
<svg width="1397pt" height="598pt"
 viewBox="0.00 0.00 1397.00 598.00" xmlns="http://www.w3.org/2000/svg" xmlns:xlink="http://www.w3.org/1999/xlink">
<g id="graph0" class="graph" transform="scale(1 1) rotate(0) translate(4 594)">
<title>G</title>
<polygon fill="white" stroke="transparent" points="-4,4 -4,-594 1393,-594 1393,4 -4,4"/>
<text text-anchor="middle" x="694.5" y="-573.2" font-family="Times,serif" font-size="16.00">model=model1/cbnb_w_mixed.json [machine 85]</text>
<!-- volt -->
<g id="node1" class="node">
<title>volt</title>
<path fill="white" stroke="black" d="M170,-186C170,-186 140,-186 140,-186 134,-186 128,-180 128,-174 128,-174 128,-162 128,-162 128,-156 134,-150 140,-150 140,-150 170,-150 170,-150 176,-150 182,-156 182,-162 182,-162 182,-174 182,-174 182,-180 176,-186 170,-186"/>
<text text-anchor="middle" x="155" y="-164.3" font-family="Helvetica,sans-Serif" font-size="14.00">volt</text>
</g>
<!-- pressure -->
<g id="node3" class="node">
<title>pressure</title>
<path fill="white" stroke="black" d="M283,-361C283,-361 230,-361 230,-361 224,-361 218,-355 218,-349 218,-349 218,-337 218,-337 218,-331 224,-325 230,-325 230,-325 283,-325 283,-325 289,-325 295,-331 295,-337 295,-337 295,-349 295,-349 295,-355 289,-361 283,-361"/>
<text text-anchor="middle" x="256.5" y="-339.3" font-family="Helvetica,sans-Serif" font-size="14.00">pressure</text>
</g>
<!-- volt&#45;&gt;pressure -->
<g id="edge1" class="edge">
<title>volt&#45;&gt;pressure</title>
<path fill="none" stroke="black" stroke-width="1.2" d="M162.73,-186.34C172.79,-212.63 193.23,-262.05 218,-300 221.78,-305.8 226.29,-311.63 230.85,-317.05"/>
<polygon fill="black" stroke="black" stroke-width="1.2" points="228.28,-319.42 237.49,-324.65 233.55,-314.82 228.28,-319.42"/>
</g>
<!-- rotate -->
<g id="node2" class="node">
<title>rotate</title>
<path fill="white" stroke="black" d="M746,-178C746,-178 713,-178 713,-178 707,-178 701,-172 701,-166 701,-166 701,-154 701,-154 701,-148 707,-142 713,-142 713,-142 746,-142 746,-142 752,-142 758,-148 758,-154 758,-154 758,-166 758,-166 758,-172 752,-178 746,-178"/>
<text text-anchor="middle" x="729.5" y="-156.3" font-family="Helvetica,sans-Serif" font-size="14.00">rotate</text>
</g>
<!-- err_error3 -->
<g id="node7" class="node">
<title>err_error3</title>
<path fill="white" stroke="black" d="M1001.5,-254C1001.5,-254 940.5,-254 940.5,-254 934.5,-254 928.5,-248 928.5,-242 928.5,-242 928.5,-230 928.5,-230 928.5,-224 934.5,-218 940.5,-218 940.5,-218 1001.5,-218 1001.5,-218 1007.5,-218 1013.5,-224 1013.5,-230 1013.5,-230 1013.5,-242 1013.5,-242 1013.5,-248 1007.5,-254 1001.5,-254"/>
<text text-anchor="middle" x="971" y="-232.3" font-family="Helvetica,sans-Serif" font-size="14.00">err_error3</text>
</g>
<!-- rotate&#45;&gt;err_error3 -->
<g id="edge9" class="edge">
<title>rotate&#45;&gt;err_error3</title>
<path fill="none" stroke="black" stroke-width="1.2" d="M767.45,-176.67C776.08,-180.29 785.29,-183.95 794,-187 835.14,-201.4 882.83,-214.47 918.19,-223.47"/>
<polygon fill="black" stroke="black" stroke-width="1.2" points="768.58,-173.35 758.01,-172.62 765.82,-179.78 768.58,-173.35"/>
<polygon fill="black" stroke="black" stroke-width="1.2" points="917.72,-226.97 928.28,-226.02 919.44,-220.18 917.72,-226.97"/>
</g>
<!-- mnt_comp1 -->
<g id="node10" class="node">
<title>mnt_comp1</title>
<path fill="white" stroke="black" d="M1008,-52C1008,-52 934,-52 934,-52 928,-52 922,-46 922,-40 922,-40 922,-28 922,-28 922,-22 928,-16 934,-16 934,-16 1008,-16 1008,-16 1014,-16 1020,-22 1020,-28 1020,-28 1020,-40 1020,-40 1020,-46 1014,-52 1008,-52"/>
<text text-anchor="middle" x="971" y="-30.3" font-family="Helvetica,sans-Serif" font-size="14.00">mnt_comp1</text>
</g>
<!-- rotate&#45;&gt;mnt_comp1 -->
<g id="edge10" class="edge">
<title>rotate&#45;&gt;mnt_comp1</title>
<path fill="none" stroke="black" stroke-width="1.2" d="M758.44,-145.3C799.83,-123.53 877.77,-82.52 926.62,-56.82"/>
<polygon fill="black" stroke="black" stroke-width="1.2" points="928.46,-59.81 935.68,-52.05 925.2,-53.61 928.46,-59.81"/>
</g>
<!-- fail_comp2 -->
<g id="node15" class="node">
<title>fail_comp2</title>
<path fill="white" stroke="black" d="M874,-178C874,-178 806,-178 806,-178 800,-178 794,-172 794,-166 794,-166 794,-154 794,-154 794,-148 800,-142 806,-142 806,-142 874,-142 874,-142 880,-142 886,-148 886,-154 886,-154 886,-166 886,-166 886,-172 880,-178 874,-178"/>
<text text-anchor="middle" x="840" y="-156.3" font-family="Helvetica,sans-Serif" font-size="14.00">fail_comp2</text>
</g>
<!-- rotate&#45;&gt;fail_comp2 -->
<g id="edge11" class="edge">
<title>rotate&#45;&gt;fail_comp2</title>
<path fill="none" stroke="black" stroke-width="1.2" d="M758.16,-160C765.92,-160 774.65,-160 783.42,-160"/>
<polygon fill="black" stroke="black" stroke-width="1.2" points="783.69,-163.5 793.69,-160 783.69,-156.5 783.69,-163.5"/>
</g>
<!-- fail_comp4 -->
<g id="node17" class="node">
<title>fail_comp4</title>
<path fill="white" stroke="black" d="M874,-270C874,-270 806,-270 806,-270 800,-270 794,-264 794,-258 794,-258 794,-246 794,-246 794,-240 800,-234 806,-234 806,-234 874,-234 874,-234 880,-234 886,-240 886,-246 886,-246 886,-258 886,-258 886,-264 880,-270 874,-270"/>
<text text-anchor="middle" x="840" y="-248.3" font-family="Helvetica,sans-Serif" font-size="14.00">fail_comp4</text>
</g>
<!-- rotate&#45;&gt;fail_comp4 -->
<g id="edge12" class="edge">
<title>rotate&#45;&gt;fail_comp4</title>
<path fill="none" stroke="black" stroke-width="1.2" d="M755.67,-185.32C767.05,-196.36 780.86,-209.21 794,-220 797.25,-222.67 800.71,-225.36 804.21,-228"/>
<polygon fill="black" stroke="black" stroke-width="1.2" points="757.82,-182.53 748.23,-178.02 752.92,-187.52 757.82,-182.53"/>
<polygon fill="black" stroke="black" stroke-width="1.2" points="802.23,-230.89 812.37,-233.99 806.38,-225.25 802.23,-230.89"/>
</g>
<!-- err_error4 -->
<g id="node8" class="node">
<title>err_error4</title>
<path fill="white" stroke="black" d="M1243,-352C1243,-352 1182,-352 1182,-352 1176,-352 1170,-346 1170,-340 1170,-340 1170,-328 1170,-328 1170,-322 1176,-316 1182,-316 1182,-316 1243,-316 1243,-316 1249,-316 1255,-322 1255,-328 1255,-328 1255,-340 1255,-340 1255,-346 1249,-352 1243,-352"/>
<text text-anchor="middle" x="1212.5" y="-330.3" font-family="Helvetica,sans-Serif" font-size="14.00">err_error4</text>
</g>
<!-- pressure&#45;&gt;err_error4 -->
<g id="edge14" class="edge">
<title>pressure&#45;&gt;err_error4</title>
<path fill="none" stroke="black" stroke-width="1.2" d="M273.72,-316.11C286.89,-296.36 307.16,-270.25 331,-254 539.61,-111.81 634.37,-112.48 886,-133 946.15,-137.91 965.85,-128.36 1020,-155 1094.91,-191.85 1160.8,-267.81 1192.13,-307.9"/>
<polygon fill="black" stroke="black" stroke-width="1.2" points="270.67,-314.38 268.17,-324.68 276.54,-318.19 270.67,-314.38"/>
<polygon fill="black" stroke="black" stroke-width="1.2" points="1189.4,-310.1 1198.28,-315.88 1194.95,-305.83 1189.4,-310.1"/>
</g>
<!-- fail_comp3 -->
<g id="node16" class="node">
<title>fail_comp3</title>
<path fill="white" stroke="black" d="M411,-382C411,-382 343,-382 343,-382 337,-382 331,-376 331,-370 331,-370 331,-358 331,-358 331,-352 337,-346 343,-346 343,-346 411,-346 411,-346 417,-346 423,-352 423,-358 423,-358 423,-370 423,-370 423,-376 417,-382 411,-382"/>
<text text-anchor="middle" x="377" y="-360.3" font-family="Helvetica,sans-Serif" font-size="14.00">fail_comp3</text>
</g>
<!-- pressure&#45;&gt;fail_comp3 -->
<g id="edge16" class="edge">
<title>pressure&#45;&gt;fail_comp3</title>
<path fill="none" stroke="black" stroke-width="1.2" d="M295.32,-349.7C303.4,-351.13 312.1,-352.68 320.68,-354.2"/>
<polygon fill="black" stroke="black" stroke-width="1.2" points="320.21,-357.67 330.67,-355.97 321.43,-350.78 320.21,-357.67"/>
</g>
<!-- vibration -->
<g id="node4" class="node">
<title>vibration</title>
<path fill="white" stroke="black" d="M1122,-392C1122,-392 1068,-392 1068,-392 1062,-392 1056,-386 1056,-380 1056,-380 1056,-368 1056,-368 1056,-362 1062,-356 1068,-356 1068,-356 1122,-356 1122,-356 1128,-356 1134,-362 1134,-368 1134,-368 1134,-380 1134,-380 1134,-386 1128,-392 1122,-392"/>
<text text-anchor="middle" x="1095" y="-370.3" font-family="Helvetica,sans-Serif" font-size="14.00">vibration</text>
</g>
<!-- vibration&#45;&gt;pressure -->
<g id="edge13" class="edge">
<title>vibration&#45;&gt;pressure</title>
<path fill="none" stroke="black" stroke-width="1.2" d="M1065.94,-392.1C1052.56,-399.85 1036,-408.21 1020,-413 962.68,-430.16 945.77,-423.11 886,-426 696.33,-435.18 647.16,-436.58 459,-411 401.95,-403.25 384.75,-411.65 331,-391 315.86,-385.18 300.6,-375.91 287.94,-367.05"/>
<polygon fill="black" stroke="black" stroke-width="1.2" points="289.78,-364.06 279.63,-361.04 285.68,-369.73 289.78,-364.06"/>
</g>
<!-- vibration&#45;&gt;err_error4 -->
<g id="edge20" class="edge">
<title>vibration&#45;&gt;err_error4</title>
<path fill="none" stroke="black" stroke-width="1.2" d="M1143.74,-357.47C1149.14,-355.59 1154.67,-353.68 1160.13,-351.79"/>
<polygon fill="black" stroke="black" stroke-width="1.2" points="1142.44,-354.21 1134.14,-360.79 1144.73,-360.83 1142.44,-354.21"/>
<polygon fill="black" stroke="black" stroke-width="1.2" points="1161.51,-355.02 1169.82,-348.44 1159.22,-348.4 1161.51,-355.02"/>
</g>
<!-- err_error5 -->
<g id="node9" class="node">
<title>err_error5</title>
<path fill="white" stroke="black" d="M1243,-432C1243,-432 1182,-432 1182,-432 1176,-432 1170,-426 1170,-420 1170,-420 1170,-408 1170,-408 1170,-402 1176,-396 1182,-396 1182,-396 1243,-396 1243,-396 1249,-396 1255,-402 1255,-408 1255,-408 1255,-420 1255,-420 1255,-426 1249,-432 1243,-432"/>
<text text-anchor="middle" x="1212.5" y="-410.3" font-family="Helvetica,sans-Serif" font-size="14.00">err_error5</text>
</g>
<!-- vibration&#45;&gt;err_error5 -->
<g id="edge21" class="edge">
<title>vibration&#45;&gt;err_error5</title>
<path fill="none" stroke="black" stroke-width="1.2" d="M1143.74,-390.53C1149.14,-392.41 1154.67,-394.32 1160.13,-396.21"/>
<polygon fill="black" stroke="black" stroke-width="1.2" points="1144.73,-387.17 1134.14,-387.21 1142.44,-393.79 1144.73,-387.17"/>
<polygon fill="black" stroke="black" stroke-width="1.2" points="1159.22,-399.6 1169.82,-399.56 1161.51,-392.98 1159.22,-399.6"/>
</g>
<!-- err_error1 -->
<g id="node5" class="node">
<title>err_error1</title>
<path fill="white" stroke="black" d="M532,-308C532,-308 471,-308 471,-308 465,-308 459,-302 459,-296 459,-296 459,-284 459,-284 459,-278 465,-272 471,-272 471,-272 532,-272 532,-272 538,-272 544,-278 544,-284 544,-284 544,-296 544,-296 544,-302 538,-308 532,-308"/>
<text text-anchor="middle" x="501.5" y="-286.3" font-family="Helvetica,sans-Serif" font-size="14.00">err_error1</text>
</g>
<!-- err_error1&#45;&gt;volt -->
<g id="edge2" class="edge">
<title>err_error1&#45;&gt;volt</title>
<path fill="none" stroke="black" stroke-width="1.2" d="M458.98,-275.3C390.78,-251.14 256.2,-203.48 191.88,-180.7"/>
<polygon fill="black" stroke="black" stroke-width="1.2" points="192.77,-177.31 182.18,-177.27 190.43,-183.91 192.77,-177.31"/>
</g>
<!-- err_error1&#45;&gt;rotate -->
<g id="edge7" class="edge">
<title>err_error1&#45;&gt;rotate</title>
<path fill="none" stroke="black" stroke-width="1.2" d="M533.92,-271.92C575.37,-248.09 648.16,-206.22 691.99,-181"/>
<polygon fill="black" stroke="black" stroke-width="1.2" points="693.96,-183.9 700.89,-175.88 690.47,-177.84 693.96,-183.9"/>
</g>
<!-- err_error2 -->
<g id="node6" class="node">
<title>err_error2</title>
<path fill="white" stroke="black" d="M653,-316C653,-316 592,-316 592,-316 586,-316 580,-310 580,-304 580,-304 580,-292 580,-292 580,-286 586,-280 592,-280 592,-280 653,-280 653,-280 659,-280 665,-286 665,-292 665,-292 665,-304 665,-304 665,-310 659,-316 653,-316"/>
<text text-anchor="middle" x="622.5" y="-294.3" font-family="Helvetica,sans-Serif" font-size="14.00">err_error2</text>
</g>
<!-- err_error1&#45;&gt;err_error2 -->
<g id="edge24" class="edge">
<title>err_error1&#45;&gt;err_error2</title>
<path fill="none" stroke="black" stroke-width="1.2" d="M544.12,-292.8C552.32,-293.35 561.01,-293.93 569.5,-294.5"/>
<polygon fill="black" stroke="black" stroke-width="1.2" points="569.49,-298.01 579.7,-295.19 569.96,-291.03 569.49,-298.01"/>
</g>
<!-- err_error2&#45;&gt;rotate -->
<g id="edge8" class="edge">
<title>err_error2&#45;&gt;rotate</title>
<path fill="none" stroke="black" stroke-width="1.2" d="M637.23,-279.96C655.46,-255.99 687.8,-213.49 708.69,-186.04"/>
<polygon fill="black" stroke="black" stroke-width="1.2" points="711.5,-188.12 714.77,-178.05 705.93,-183.88 711.5,-188.12"/>
</g>
<!-- err_error2&#45;&gt;vibration -->
<g id="edge18" class="edge">
<title>err_error2&#45;&gt;vibration</title>
<path fill="none" stroke="black" stroke-width="1.2" d="M665.32,-306.12C676.88,-308.36 689.43,-310.78 701,-313 799.19,-331.83 823.13,-340.17 922,-355 963.6,-361.24 1011.15,-366.34 1045.69,-369.68"/>
<polygon fill="black" stroke="black" stroke-width="1.2" points="1045.69,-373.19 1055.97,-370.66 1046.35,-366.22 1045.69,-373.19"/>
</g>
<!-- err_error2&#45;&gt;fail_comp3 -->
<g id="edge27" class="edge">
<title>err_error2&#45;&gt;fail_comp3</title>
<path fill="none" stroke="black" stroke-width="1.2" d="M579.76,-309.31C539.25,-320.29 477.52,-337.02 433.02,-349.09"/>
<polygon fill="black" stroke="black" stroke-width="1.2" points="431.97,-345.75 423.23,-351.74 433.8,-352.5 431.97,-345.75"/>
</g>
<!-- err_error3&#45;&gt;vibration -->
<g id="edge19" class="edge">
<title>err_error3&#45;&gt;vibration</title>
<path fill="none" stroke="black" stroke-width="1.2" d="M1002.76,-254.01C1008.8,-258.22 1014.85,-262.96 1020,-268 1044.25,-291.73 1065.66,-324.4 1079.13,-347.17"/>
<polygon fill="black" stroke="black" stroke-width="1.2" points="1076.19,-349.08 1084.24,-355.97 1082.25,-345.57 1076.19,-349.08"/>
</g>
<!-- err_error3&#45;&gt;err_error2 -->
<g id="edge26" class="edge">
<title>err_error3&#45;&gt;err_error2</title>
<path fill="none" stroke="black" stroke-width="1.2" d="M941.64,-254.14C925.88,-263.27 905.56,-273.53 886,-279 815.04,-298.84 729.33,-301.23 675.6,-300.27"/>
<polygon fill="black" stroke="black" stroke-width="1.2" points="675.37,-296.77 665.29,-300.04 675.21,-303.77 675.37,-296.77"/>
</g>
<!-- err_error5&#45;&gt;pressure -->
<g id="edge15" class="edge">
<title>err_error5&#45;&gt;pressure</title>
<path fill="none" stroke="black" stroke-width="1.2" d="M1169.95,-427.51C1074.53,-457.3 831.86,-526 623.5,-526 500.5,-526 500.5,-526 500.5,-526 397.87,-526 311.03,-420.55 275.14,-369.74"/>
<polygon fill="black" stroke="black" stroke-width="1.2" points="277.81,-367.44 269.24,-361.22 272.05,-371.43 277.81,-367.44"/>
</g>
<!-- mnt_comp3 -->
<g id="node12" class="node">
<title>mnt_comp3</title>
<path fill="white" stroke="black" d="M1377,-432C1377,-432 1303,-432 1303,-432 1297,-432 1291,-426 1291,-420 1291,-420 1291,-408 1291,-408 1291,-402 1297,-396 1303,-396 1303,-396 1377,-396 1377,-396 1383,-396 1389,-402 1389,-408 1389,-408 1389,-420 1389,-420 1389,-426 1383,-432 1377,-432"/>
<text text-anchor="middle" x="1340" y="-410.3" font-family="Helvetica,sans-Serif" font-size="14.00">mnt_comp3</text>
</g>
<!-- err_error5&#45;&gt;mnt_comp3 -->
<g id="edge29" class="edge">
<title>err_error5&#45;&gt;mnt_comp3</title>
<path fill="none" stroke="black" stroke-width="1.2" d="M1255.29,-414C1263.49,-414 1272.23,-414 1280.85,-414"/>
<polygon fill="black" stroke="black" stroke-width="1.2" points="1280.88,-417.5 1290.88,-414 1280.88,-410.5 1280.88,-417.5"/>
</g>
<!-- mnt_comp1&#45;&gt;volt -->
<g id="edge3" class="edge">
<title>mnt_comp1&#45;&gt;volt</title>
<path fill="none" stroke="black" stroke-width="1.2" d="M921.84,-35.28C873.48,-36.45 796.83,-38 730.5,-38 376,-38 376,-38 376,-38 294.82,-38 217.29,-104.42 179.67,-142.31"/>
<polygon fill="black" stroke="black" stroke-width="1.2" points="176.72,-140.32 172.26,-149.92 181.74,-145.2 176.72,-140.32"/>
</g>
<!-- mnt_comp1&#45;&gt;mnt_comp3 -->
<g id="edge30" class="edge">
<title>mnt_comp1&#45;&gt;mnt_comp3</title>
<path fill="none" stroke="black" stroke-width="1.2" d="M1020.05,-33.87C1054.42,-35.94 1100.37,-43.32 1134,-66 1252.09,-145.64 1311.85,-318 1331.49,-385.79"/>
<polygon fill="black" stroke="black" stroke-width="1.2" points="1328.22,-387.08 1334.3,-395.75 1334.95,-385.17 1328.22,-387.08"/>
</g>
<!-- mnt_comp2 -->
<g id="node11" class="node">
<title>mnt_comp2</title>
<path fill="white" stroke="black" d="M1008,-200C1008,-200 934,-200 934,-200 928,-200 922,-194 922,-188 922,-188 922,-176 922,-176 922,-170 928,-164 934,-164 934,-164 1008,-164 1008,-164 1014,-164 1020,-170 1020,-176 1020,-176 1020,-188 1020,-188 1020,-194 1014,-200 1008,-200"/>
<text text-anchor="middle" x="971" y="-178.3" font-family="Helvetica,sans-Serif" font-size="14.00">mnt_comp2</text>
</g>
<!-- mnt_comp2&#45;&gt;mnt_comp3 -->
<g id="edge33" class="edge">
<title>mnt_comp2&#45;&gt;mnt_comp3</title>
<path fill="none" stroke="black" stroke-width="1.2" d="M1020.11,-195.31C1079.67,-213.48 1182.16,-250.4 1255,-307 1283.77,-329.36 1308.38,-363.63 1323.38,-387.34"/>
<polygon fill="black" stroke="black" stroke-width="1.2" points="1320.42,-389.2 1328.65,-395.86 1326.37,-385.51 1320.42,-389.2"/>
</g>
<!-- mnt_comp4 -->
<g id="node13" class="node">
<title>mnt_comp4</title>
<path fill="white" stroke="black" d="M1008,-346C1008,-346 934,-346 934,-346 928,-346 922,-340 922,-334 922,-334 922,-322 922,-322 922,-316 928,-310 934,-310 934,-310 1008,-310 1008,-310 1014,-310 1020,-316 1020,-322 1020,-322 1020,-334 1020,-334 1020,-340 1014,-346 1008,-346"/>
<text text-anchor="middle" x="971" y="-324.3" font-family="Helvetica,sans-Serif" font-size="14.00">mnt_comp4</text>
</g>
<!-- fail_comp1 -->
<g id="node14" class="node">
<title>fail_comp1</title>
<path fill="white" stroke="black" d="M80,-186C80,-186 12,-186 12,-186 6,-186 0,-180 0,-174 0,-174 0,-162 0,-162 0,-156 6,-150 12,-150 12,-150 80,-150 80,-150 86,-150 92,-156 92,-162 92,-162 92,-174 92,-174 92,-180 86,-186 80,-186"/>
<text text-anchor="middle" x="46" y="-164.3" font-family="Helvetica,sans-Serif" font-size="14.00">fail_comp1</text>
</g>
<!-- fail_comp1&#45;&gt;volt -->
<g id="edge4" class="edge">
<title>fail_comp1&#45;&gt;volt</title>
<path fill="none" stroke="black" stroke-width="1.2" d="M92.07,-168C100.66,-168 109.55,-168 117.83,-168"/>
<polygon fill="black" stroke="black" stroke-width="1.2" points="117.9,-171.5 127.9,-168 117.9,-164.5 117.9,-171.5"/>
</g>
<!-- fail_comp1&#45;&gt;mnt_comp1 -->
<g id="edge31" class="edge">
<title>fail_comp1&#45;&gt;mnt_comp1</title>
<path fill="none" stroke="black" stroke-width="1.2" d="M57.77,-149.7C84.95,-106.16 160.9,0 255.5,0 255.5,0 255.5,0 730.5,0 792.84,0 863.41,-11.43 911.71,-21.04"/>
<polygon fill="black" stroke="black" stroke-width="1.2" points="911.17,-24.5 921.66,-23.06 912.56,-17.64 911.17,-24.5"/>
</g>
<!-- fail_comp1&#45;&gt;mnt_comp3 -->
<g id="edge36" class="edge">
<title>fail_comp1&#45;&gt;mnt_comp3</title>
<path fill="none" stroke="black" stroke-width="1.2" d="M47.86,-186.04C52.62,-263.51 82.24,-564 255.5,-564 255.5,-564 255.5,-564 1096,-564 1170.92,-564 1192.75,-549.69 1255,-508 1282.01,-489.91 1305.96,-461.17 1321.3,-440.22"/>
<polygon fill="black" stroke="black" stroke-width="1.2" points="1324.17,-442.23 1327.14,-432.06 1318.47,-438.16 1324.17,-442.23"/>
</g>
<!-- fail_comp2&#45;&gt;volt -->
<g id="edge5" class="edge">
<title>fail_comp2&#45;&gt;volt</title>
<path fill="none" stroke="black" stroke-width="1.2" d="M793.58,-143.25C782.09,-139.46 769.69,-135.75 758,-133 699.23,-119.18 683.87,-114 623.5,-114 376,-114 376,-114 376,-114 309.41,-114 234.67,-137.62 191.69,-153.62"/>
<polygon fill="black" stroke="black" stroke-width="1.2" points="190.35,-150.38 182.24,-157.2 192.83,-156.93 190.35,-150.38"/>
</g>
<!-- fail_comp2&#45;&gt;err_error3 -->
<g id="edge28" class="edge">
<title>fail_comp2&#45;&gt;err_error3</title>
<path fill="none" stroke="black" stroke-width="1.2" d="M870.49,-178.15C885.79,-187.48 904.82,-198.98 922,-209 924.2,-210.29 926.47,-211.6 928.76,-212.91"/>
<polygon fill="black" stroke="black" stroke-width="1.2" points="927.23,-216.07 937.65,-217.99 930.7,-209.99 927.23,-216.07"/>
</g>
<!-- fail_comp2&#45;&gt;mnt_comp1 -->
<g id="edge32" class="edge">
<title>fail_comp2&#45;&gt;mnt_comp1</title>
<path fill="none" stroke="black" stroke-width="1.2" d="M868.4,-141.99C874.4,-137.65 880.57,-132.86 886,-128 909.55,-106.93 933.25,-79.73 949.45,-60.01"/>
<polygon fill="black" stroke="black" stroke-width="1.2" points="952.32,-62.03 955.91,-52.06 946.88,-57.62 952.32,-62.03"/>
</g>
<!-- fail_comp2&#45;&gt;mnt_comp2 -->
<g id="edge34" class="edge">
<title>fail_comp2&#45;&gt;mnt_comp2</title>
<path fill="none" stroke="black" stroke-width="1.2" d="M886.12,-167.69C894.37,-169.1 903.09,-170.59 911.66,-172.05"/>
<polygon fill="black" stroke="black" stroke-width="1.2" points="911.17,-175.52 921.62,-173.75 912.35,-168.62 911.17,-175.52"/>
</g>
<!-- fail_comp3&#45;&gt;vibration -->
<g id="edge22" class="edge">
<title>fail_comp3&#45;&gt;vibration</title>
<path fill="none" stroke="black" stroke-width="1.2" d="M423.25,-378.4C471.75,-392.54 551.27,-412 621.5,-412 621.5,-412 621.5,-412 841,-412 912.89,-412 995,-396.81 1045.68,-385.64"/>
<polygon fill="black" stroke="black" stroke-width="1.2" points="1046.7,-389 1055.69,-383.39 1045.17,-382.17 1046.7,-389"/>
</g>
<!-- fail_comp3&#45;&gt;err_error1 -->
<g id="edge25" class="edge">
<title>fail_comp3&#45;&gt;err_error1</title>
<path fill="none" stroke="black" stroke-width="1.2" d="M407.97,-345.9C424.13,-336.13 444.27,-323.97 461.63,-313.48"/>
<polygon fill="black" stroke="black" stroke-width="1.2" points="463.67,-316.34 470.42,-308.17 460.05,-310.35 463.67,-316.34"/>
</g>
<!-- fail_comp3&#45;&gt;mnt_comp3 -->
<g id="edge37" class="edge">
<title>fail_comp3&#45;&gt;mnt_comp3</title>
<path fill="none" stroke="black" stroke-width="1.2" d="M414.54,-382.22C417.43,-383.8 420.28,-385.4 423,-387 439.59,-396.73 441.32,-403.43 459,-411 672.99,-502.66 737.21,-526 970,-526 970,-526 970,-526 1096,-526 1179.13,-526 1264.79,-471.26 1308.82,-438.32"/>
<polygon fill="black" stroke="black" stroke-width="1.2" points="1310.96,-441.09 1316.8,-432.24 1306.72,-435.52 1310.96,-441.09"/>
</g>
<!-- fail_comp3&#45;&gt;mnt_comp4 -->
<g id="edge38" class="edge">
<title>fail_comp3&#45;&gt;mnt_comp4</title>
<path fill="none" stroke="black" stroke-width="1.2" d="M423.47,-361.23C529.65,-354.78 793.81,-338.71 911.65,-331.55"/>
<polygon fill="black" stroke="black" stroke-width="1.2" points="912.14,-335.03 921.91,-330.92 911.71,-328.04 912.14,-335.03"/>
</g>
<!-- fail_comp4&#45;&gt;volt -->
<g id="edge6" class="edge">
<title>fail_comp4&#45;&gt;volt</title>
<path fill="none" stroke="black" stroke-width="1.2" d="M793.6,-245.72C782,-244.15 769.54,-242.48 758,-241 543.59,-213.44 285.83,-183.13 192.21,-172.21"/>
<polygon fill="black" stroke="black" stroke-width="1.2" points="192.46,-168.71 182.13,-171.03 191.65,-175.67 192.46,-168.71"/>
</g>
<!-- fail_comp4&#45;&gt;pressure -->
<g id="edge17" class="edge">
<title>fail_comp4&#45;&gt;pressure</title>
<path fill="none" stroke="black" stroke-width="1.2" d="M793.61,-249.34C750.01,-247.01 682.28,-244 623.5,-244 500.5,-244 500.5,-244 500.5,-244 421.06,-244 337.1,-289.93 291.63,-319.22"/>
<polygon fill="black" stroke="black" stroke-width="1.2" points="289.51,-316.43 283.06,-324.84 293.35,-322.29 289.51,-316.43"/>
</g>
<!-- fail_comp4&#45;&gt;vibration -->
<g id="edge23" class="edge">
<title>fail_comp4&#45;&gt;vibration</title>
<path fill="none" stroke="black" stroke-width="1.2" d="M886.12,-257.83C923.87,-264.19 978.13,-276.86 1020,-301 1040.77,-312.97 1059.91,-332.18 1073.52,-347.88"/>
<polygon fill="black" stroke="black" stroke-width="1.2" points="1071,-350.32 1080.11,-355.72 1076.35,-345.82 1071,-350.32"/>
</g>
<!-- fail_comp4&#45;&gt;mnt_comp2 -->
<g id="edge35" class="edge">
<title>fail_comp4&#45;&gt;mnt_comp2</title>
<path fill="none" stroke="black" stroke-width="1.2" d="M874.22,-233.97C890.49,-225.14 910.27,-214.41 927.62,-204.99"/>
<polygon fill="black" stroke="black" stroke-width="1.2" points="929.32,-208.05 936.44,-200.21 925.98,-201.9 929.32,-208.05"/>
</g>
<!-- fail_comp4&#45;&gt;mnt_comp4 -->
<g id="edge39" class="edge">
<title>fail_comp4&#45;&gt;mnt_comp4</title>
<path fill="none" stroke="black" stroke-width="1.2" d="M871.57,-270.01C889.19,-280.39 911.54,-293.56 930.49,-304.72"/>
<polygon fill="black" stroke="black" stroke-width="1.2" points="928.81,-307.79 939.2,-309.85 932.36,-301.76 928.81,-307.79"/>
</g>
</g>
</svg>
