<?xml version="1.0" encoding="UTF-8" standalone="no"?>
<!DOCTYPE svg PUBLIC "-//W3C//DTD SVG 1.1//EN"
 "http://www.w3.org/Graphics/SVG/1.1/DTD/svg11.dtd">
<!-- Generated by graphviz version 2.50.0 (0)
 -->
<!-- Title: G Pages: 1 -->
<svg width="1160pt" height="666pt"
 viewBox="0.00 0.00 1160.00 666.00" xmlns="http://www.w3.org/2000/svg" xmlns:xlink="http://www.w3.org/1999/xlink">
<g id="graph0" class="graph" transform="scale(1 1) rotate(0) translate(4 662)">
<title>G</title>
<polygon fill="white" stroke="transparent" points="-4,4 -4,-662 1156,-662 1156,4 -4,4"/>
<text text-anchor="middle" x="576" y="-641.2" font-family="Times,serif" font-size="16.00">model=model4/cbnb_w_mixed.json [machine 57]</text>
<!-- volt -->
<g id="node1" class="node">
<title>volt</title>
<path fill="white" stroke="black" d="M42,-205C42,-205 12,-205 12,-205 6,-205 0,-199 0,-193 0,-193 0,-181 0,-181 0,-175 6,-169 12,-169 12,-169 42,-169 42,-169 48,-169 54,-175 54,-181 54,-181 54,-193 54,-193 54,-199 48,-205 42,-205"/>
<text text-anchor="middle" x="27" y="-183.3" font-family="Helvetica,sans-Serif" font-size="14.00">volt</text>
</g>
<!-- err_error1 -->
<g id="node5" class="node">
<title>err_error1</title>
<path fill="white" stroke="black" d="M878.5,-548C878.5,-548 817.5,-548 817.5,-548 811.5,-548 805.5,-542 805.5,-536 805.5,-536 805.5,-524 805.5,-524 805.5,-518 811.5,-512 817.5,-512 817.5,-512 878.5,-512 878.5,-512 884.5,-512 890.5,-518 890.5,-524 890.5,-524 890.5,-536 890.5,-536 890.5,-542 884.5,-548 878.5,-548"/>
<text text-anchor="middle" x="848" y="-526.3" font-family="Helvetica,sans-Serif" font-size="14.00">err_error1</text>
</g>
<!-- volt&#45;&gt;err_error1 -->
<g id="edge3" class="edge">
<title>volt&#45;&gt;err_error1</title>
<path fill="none" stroke="black" stroke-width="1.2" d="M29.18,-205.01C35.4,-283.78 71.33,-594 251.5,-594 251.5,-594 251.5,-594 608.5,-594 675.08,-594 748.65,-570.45 796.23,-551.92"/>
<polygon fill="black" stroke="black" stroke-width="1.2" points="797.68,-555.11 805.68,-548.17 795.1,-548.6 797.68,-555.11"/>
</g>
<!-- mnt_comp1 -->
<g id="node9" class="node">
<title>mnt_comp1</title>
<path fill="white" stroke="black" d="M176,-140C176,-140 102,-140 102,-140 96,-140 90,-134 90,-128 90,-128 90,-116 90,-116 90,-110 96,-104 102,-104 102,-104 176,-104 176,-104 182,-104 188,-110 188,-116 188,-116 188,-128 188,-128 188,-134 182,-140 176,-140"/>
<text text-anchor="middle" x="139" y="-118.3" font-family="Helvetica,sans-Serif" font-size="14.00">mnt_comp1</text>
</g>
<!-- volt&#45;&gt;mnt_comp1 -->
<g id="edge4" class="edge">
<title>volt&#45;&gt;mnt_comp1</title>
<path fill="none" stroke="black" stroke-width="1.2" d="M54.07,-171.6C67.33,-163.76 83.72,-154.07 98.49,-145.35"/>
<polygon fill="black" stroke="black" stroke-width="1.2" points="100.61,-148.16 107.44,-140.06 97.05,-142.13 100.61,-148.16"/>
</g>
<!-- fail_comp1 -->
<g id="node13" class="node">
<title>fail_comp1</title>
<path fill="white" stroke="black" d="M400,-140C400,-140 332,-140 332,-140 326,-140 320,-134 320,-128 320,-128 320,-116 320,-116 320,-110 326,-104 332,-104 332,-104 400,-104 400,-104 406,-104 412,-110 412,-116 412,-116 412,-128 412,-128 412,-134 406,-140 400,-140"/>
<text text-anchor="middle" x="366" y="-118.3" font-family="Helvetica,sans-Serif" font-size="14.00">fail_comp1</text>
</g>
<!-- volt&#45;&gt;fail_comp1 -->
<g id="edge6" class="edge">
<title>volt&#45;&gt;fail_comp1</title>
<path fill="none" stroke="black" stroke-width="1.2" d="M54.16,-181.95C108.81,-171.41 236.1,-146.86 309.72,-132.66"/>
<polygon fill="black" stroke="black" stroke-width="1.2" points="310.58,-136.06 319.74,-130.73 309.26,-129.19 310.58,-136.06"/>
</g>
<!-- rotate -->
<g id="node2" class="node">
<title>rotate</title>
<path fill="white" stroke="black" d="M269,-313C269,-313 236,-313 236,-313 230,-313 224,-307 224,-301 224,-301 224,-289 224,-289 224,-283 230,-277 236,-277 236,-277 269,-277 269,-277 275,-277 281,-283 281,-289 281,-289 281,-301 281,-301 281,-307 275,-313 269,-313"/>
<text text-anchor="middle" x="252.5" y="-291.3" font-family="Helvetica,sans-Serif" font-size="14.00">rotate</text>
</g>
<!-- rotate&#45;&gt;volt -->
<g id="edge1" class="edge">
<title>rotate&#45;&gt;volt</title>
<path fill="none" stroke="black" stroke-width="1.2" d="M223.85,-282.71C191.52,-268.21 136.49,-243.15 90,-220 81.17,-215.6 71.73,-210.69 62.94,-206.03"/>
<polygon fill="black" stroke="black" stroke-width="1.2" points="64.55,-202.92 54.08,-201.29 61.25,-209.09 64.55,-202.92"/>
</g>
<!-- pressure -->
<g id="node3" class="node">
<title>pressure</title>
<path fill="white" stroke="black" d="M751,-254C751,-254 698,-254 698,-254 692,-254 686,-248 686,-242 686,-242 686,-230 686,-230 686,-224 692,-218 698,-218 698,-218 751,-218 751,-218 757,-218 763,-224 763,-230 763,-230 763,-242 763,-242 763,-248 757,-254 751,-254"/>
<text text-anchor="middle" x="724.5" y="-232.3" font-family="Helvetica,sans-Serif" font-size="14.00">pressure</text>
</g>
<!-- rotate&#45;&gt;pressure -->
<g id="edge7" class="edge">
<title>rotate&#45;&gt;pressure</title>
<path fill="none" stroke="black" stroke-width="1.2" d="M281.15,-291.53C358.51,-281.82 577.91,-254.28 675.58,-242.02"/>
<polygon fill="black" stroke="black" stroke-width="1.2" points="676.27,-245.46 685.76,-240.74 675.4,-238.51 676.27,-245.46"/>
</g>
<!-- rotate&#45;&gt;err_error1 -->
<g id="edge8" class="edge">
<title>rotate&#45;&gt;err_error1</title>
<path fill="none" stroke="black" stroke-width="1.2" d="M255.97,-323.29C260.89,-363.39 275.33,-436.9 317,-482 373.48,-543.12 405.78,-556 489,-556 489,-556 489,-556 608.5,-556 673.24,-556 747.3,-546.41 795.48,-538.88"/>
<polygon fill="black" stroke="black" stroke-width="1.2" points="259.42,-322.7 254.84,-313.15 252.47,-323.47 259.42,-322.7"/>
<polygon fill="black" stroke="black" stroke-width="1.2" points="796.03,-542.34 805.36,-537.31 794.93,-535.43 796.03,-542.34"/>
</g>
<!-- mnt_comp2 -->
<g id="node10" class="node">
<title>mnt_comp2</title>
<path fill="white" stroke="black" d="M403,-422C403,-422 329,-422 329,-422 323,-422 317,-416 317,-410 317,-410 317,-398 317,-398 317,-392 323,-386 329,-386 329,-386 403,-386 403,-386 409,-386 415,-392 415,-398 415,-398 415,-410 415,-410 415,-416 409,-422 403,-422"/>
<text text-anchor="middle" x="366" y="-400.3" font-family="Helvetica,sans-Serif" font-size="14.00">mnt_comp2</text>
</g>
<!-- rotate&#45;&gt;mnt_comp2 -->
<g id="edge13" class="edge">
<title>rotate&#45;&gt;mnt_comp2</title>
<path fill="none" stroke="black" stroke-width="1.2" d="M279.33,-320.25C297.24,-337.76 321.01,-361 338.97,-378.55"/>
<polygon fill="black" stroke="black" stroke-width="1.2" points="281.76,-317.73 272.16,-313.24 276.87,-322.74 281.76,-317.73"/>
<polygon fill="black" stroke="black" stroke-width="1.2" points="336.68,-381.21 346.28,-385.7 341.57,-376.2 336.68,-381.21"/>
</g>
<!-- mnt_comp3 -->
<g id="node11" class="node">
<title>mnt_comp3</title>
<path fill="white" stroke="black" d="M885,-56C885,-56 811,-56 811,-56 805,-56 799,-50 799,-44 799,-44 799,-32 799,-32 799,-26 805,-20 811,-20 811,-20 885,-20 885,-20 891,-20 897,-26 897,-32 897,-32 897,-44 897,-44 897,-50 891,-56 885,-56"/>
<text text-anchor="middle" x="848" y="-34.3" font-family="Helvetica,sans-Serif" font-size="14.00">mnt_comp3</text>
</g>
<!-- rotate&#45;&gt;mnt_comp3 -->
<g id="edge14" class="edge">
<title>rotate&#45;&gt;mnt_comp3</title>
<path fill="none" stroke="black" stroke-width="1.2" d="M281.33,-282.95C374.26,-242.71 674.83,-112.55 795.84,-60.16"/>
<polygon fill="black" stroke="black" stroke-width="1.2" points="797.48,-63.26 805.26,-56.07 794.7,-56.83 797.48,-63.26"/>
</g>
<!-- rotate&#45;&gt;fail_comp1 -->
<g id="edge15" class="edge">
<title>rotate&#45;&gt;fail_comp1</title>
<path fill="none" stroke="black" stroke-width="1.2" d="M258.16,-276.76C266.23,-248.04 285.06,-191.69 317,-154 319.2,-151.4 321.66,-148.93 324.28,-146.6"/>
<polygon fill="black" stroke="black" stroke-width="1.2" points="326.87,-149.01 332.48,-140.02 322.49,-143.54 326.87,-149.01"/>
</g>
<!-- pressure&#45;&gt;volt -->
<g id="edge2" class="edge">
<title>pressure&#45;&gt;volt</title>
<path fill="none" stroke="black" stroke-width="1.2" d="M685.72,-233.34C564.19,-224.78 184.28,-198.01 64.53,-189.57"/>
<polygon fill="black" stroke="black" stroke-width="1.2" points="64.64,-186.07 54.42,-188.86 64.14,-193.06 64.64,-186.07"/>
</g>
<!-- pressure&#45;&gt;err_error1 -->
<g id="edge16" class="edge">
<title>pressure&#45;&gt;err_error1</title>
<path fill="none" stroke="black" stroke-width="1.2" d="M728.21,-254C735.05,-295.57 755.62,-400.52 799,-477 804.57,-486.82 812.24,-496.35 819.81,-504.56"/>
<polygon fill="black" stroke="black" stroke-width="1.2" points="817.52,-507.22 826.98,-511.99 822.56,-502.36 817.52,-507.22"/>
</g>
<!-- err_error3 -->
<g id="node7" class="node">
<title>err_error3</title>
<path fill="white" stroke="black" d="M878.5,-468C878.5,-468 817.5,-468 817.5,-468 811.5,-468 805.5,-462 805.5,-456 805.5,-456 805.5,-444 805.5,-444 805.5,-438 811.5,-432 817.5,-432 817.5,-432 878.5,-432 878.5,-432 884.5,-432 890.5,-438 890.5,-444 890.5,-444 890.5,-456 890.5,-456 890.5,-462 884.5,-468 878.5,-468"/>
<text text-anchor="middle" x="848" y="-446.3" font-family="Helvetica,sans-Serif" font-size="14.00">err_error3</text>
</g>
<!-- pressure&#45;&gt;err_error3 -->
<g id="edge18" class="edge">
<title>pressure&#45;&gt;err_error3</title>
<path fill="none" stroke="black" stroke-width="1.2" d="M740.84,-263.01C764.15,-304.08 808.26,-381.77 831.61,-422.89"/>
<polygon fill="black" stroke="black" stroke-width="1.2" points="743.84,-261.21 735.86,-254.25 737.75,-264.67 743.84,-261.21"/>
<polygon fill="black" stroke="black" stroke-width="1.2" points="828.69,-424.83 836.67,-431.8 834.77,-421.38 828.69,-424.83"/>
</g>
<!-- pressure&#45;&gt;mnt_comp3 -->
<g id="edge21" class="edge">
<title>pressure&#45;&gt;mnt_comp3</title>
<path fill="none" stroke="black" stroke-width="1.2" d="M742.01,-209.09C765.18,-171.34 807.08,-103.05 830.33,-65.17"/>
<polygon fill="black" stroke="black" stroke-width="1.2" points="738.96,-207.37 736.71,-217.73 744.93,-211.03 738.96,-207.37"/>
<polygon fill="black" stroke="black" stroke-width="1.2" points="833.57,-66.58 835.81,-56.23 827.6,-62.92 833.57,-66.58"/>
</g>
<!-- mnt_comp4 -->
<g id="node12" class="node">
<title>mnt_comp4</title>
<path fill="white" stroke="black" d="M1019,-169C1019,-169 945,-169 945,-169 939,-169 933,-163 933,-157 933,-157 933,-145 933,-145 933,-139 939,-133 945,-133 945,-133 1019,-133 1019,-133 1025,-133 1031,-139 1031,-145 1031,-145 1031,-157 1031,-157 1031,-163 1025,-169 1019,-169"/>
<text text-anchor="middle" x="982" y="-147.3" font-family="Helvetica,sans-Serif" font-size="14.00">mnt_comp4</text>
</g>
<!-- pressure&#45;&gt;mnt_comp4 -->
<g id="edge22" class="edge">
<title>pressure&#45;&gt;mnt_comp4</title>
<path fill="none" stroke="black" stroke-width="1.2" d="M763.16,-221.81C774.63,-217.58 787.3,-213.01 799,-209 840.29,-194.84 887.24,-179.91 923.1,-168.74"/>
<polygon fill="black" stroke="black" stroke-width="1.2" points="924.4,-172.01 932.91,-165.7 922.33,-165.32 924.4,-172.01"/>
</g>
<!-- vibration -->
<g id="node4" class="node">
<title>vibration</title>
<path fill="white" stroke="black" d="M517,-376C517,-376 463,-376 463,-376 457,-376 451,-370 451,-364 451,-364 451,-352 451,-352 451,-346 457,-340 463,-340 463,-340 517,-340 517,-340 523,-340 529,-346 529,-352 529,-352 529,-364 529,-364 529,-370 523,-376 517,-376"/>
<text text-anchor="middle" x="490" y="-354.3" font-family="Helvetica,sans-Serif" font-size="14.00">vibration</text>
</g>
<!-- vibration&#45;&gt;err_error1 -->
<g id="edge23" class="edge">
<title>vibration&#45;&gt;err_error1</title>
<path fill="none" stroke="black" stroke-width="1.2" d="M528.43,-376.08C593.86,-407.7 728.88,-472.93 800.32,-507.45"/>
<polygon fill="black" stroke="black" stroke-width="1.2" points="799.02,-510.7 809.54,-511.9 802.06,-504.4 799.02,-510.7"/>
</g>
<!-- err_error2 -->
<g id="node6" class="node">
<title>err_error2</title>
<path fill="white" stroke="black" d="M638,-315C638,-315 577,-315 577,-315 571,-315 565,-309 565,-303 565,-303 565,-291 565,-291 565,-285 571,-279 577,-279 577,-279 638,-279 638,-279 644,-279 650,-285 650,-291 650,-291 650,-303 650,-303 650,-309 644,-315 638,-315"/>
<text text-anchor="middle" x="607.5" y="-293.3" font-family="Helvetica,sans-Serif" font-size="14.00">err_error2</text>
</g>
<!-- vibration&#45;&gt;err_error2 -->
<g id="edge24" class="edge">
<title>vibration&#45;&gt;err_error2</title>
<path fill="none" stroke="black" stroke-width="1.2" d="M525.34,-339.86C537.22,-333.59 550.69,-326.48 563.19,-319.87"/>
<polygon fill="black" stroke="black" stroke-width="1.2" points="564.88,-322.94 572.09,-315.17 561.61,-316.75 564.88,-322.94"/>
</g>
<!-- err_error2&#45;&gt;rotate -->
<g id="edge9" class="edge">
<title>err_error2&#45;&gt;rotate</title>
<path fill="none" stroke="black" stroke-width="1.2" d="M564.81,-296.76C495.55,-296.37 357.81,-295.59 291.25,-295.21"/>
<polygon fill="black" stroke="black" stroke-width="1.2" points="291.22,-291.71 281.2,-295.16 291.18,-298.71 291.22,-291.71"/>
</g>
<!-- err_error2&#45;&gt;pressure -->
<g id="edge17" class="edge">
<title>err_error2&#45;&gt;pressure</title>
<path fill="none" stroke="black" stroke-width="1.2" d="M642.69,-278.86C654.52,-272.59 667.93,-265.48 680.38,-258.87"/>
<polygon fill="black" stroke="black" stroke-width="1.2" points="682.05,-261.95 689.24,-254.17 678.77,-255.77 682.05,-261.95"/>
</g>
<!-- err_error3&#45;&gt;rotate -->
<g id="edge10" class="edge">
<title>err_error3&#45;&gt;rotate</title>
<path fill="none" stroke="black" stroke-width="1.2" d="M808.71,-468.04C762.37,-488.19 681.48,-518 608.5,-518 489,-518 489,-518 489,-518 403.33,-518 376.62,-492.52 317,-431 287.15,-400.2 269.44,-352.79 260.59,-322.85"/>
<polygon fill="black" stroke="black" stroke-width="1.2" points="263.91,-321.73 257.83,-313.05 257.17,-323.63 263.91,-321.73"/>
</g>
<!-- err_error4 -->
<g id="node8" class="node">
<title>err_error4</title>
<path fill="white" stroke="black" d="M1140,-192C1140,-192 1079,-192 1079,-192 1073,-192 1067,-186 1067,-180 1067,-180 1067,-168 1067,-168 1067,-162 1073,-156 1079,-156 1079,-156 1140,-156 1140,-156 1146,-156 1152,-162 1152,-168 1152,-168 1152,-180 1152,-180 1152,-186 1146,-192 1140,-192"/>
<text text-anchor="middle" x="1109.5" y="-170.3" font-family="Helvetica,sans-Serif" font-size="14.00">err_error4</text>
</g>
<!-- err_error4&#45;&gt;rotate -->
<g id="edge11" class="edge">
<title>err_error4&#45;&gt;rotate</title>
<path fill="none" stroke="black" stroke-width="1.2" d="M1107.08,-192.24C1099.36,-277.42 1054.86,-632 849,-632 489,-632 489,-632 489,-632 399.9,-632 370.79,-600.04 317,-529 269.5,-466.27 257.51,-370.38 254.5,-323.2"/>
<polygon fill="black" stroke="black" stroke-width="1.2" points="257.99,-322.9 253.95,-313.11 251,-323.28 257.99,-322.9"/>
</g>
<!-- err_error4&#45;&gt;pressure -->
<g id="edge19" class="edge">
<title>err_error4&#45;&gt;pressure</title>
<path fill="none" stroke="black" stroke-width="1.2" d="M1066.98,-180.72C995.42,-192.31 849.28,-215.96 773.48,-228.23"/>
<polygon fill="black" stroke="black" stroke-width="1.2" points="772.58,-224.83 763.27,-229.89 773.7,-231.74 772.58,-224.83"/>
</g>
<!-- mnt_comp1&#45;&gt;rotate -->
<g id="edge12" class="edge">
<title>mnt_comp1&#45;&gt;rotate</title>
<path fill="none" stroke="black" stroke-width="1.2" d="M151.72,-140.19C171.46,-170.82 211.43,-232.82 234.33,-268.37"/>
<polygon fill="black" stroke="black" stroke-width="1.2" points="231.41,-270.29 239.77,-276.8 237.29,-266.5 231.41,-270.29"/>
</g>
<!-- mnt_comp2&#45;&gt;pressure -->
<g id="edge20" class="edge">
<title>mnt_comp2&#45;&gt;pressure</title>
<path fill="none" stroke="black" stroke-width="1.2" d="M415.03,-402.76C447.74,-400.85 491.71,-396.2 529,-385 586.68,-367.67 602.83,-361.44 650,-324 672.17,-306.4 692.39,-281.2 705.99,-262.27"/>
<polygon fill="black" stroke="black" stroke-width="1.2" points="708.87,-264.26 711.75,-254.06 703.14,-260.23 708.87,-264.26"/>
</g>
<!-- mnt_comp2&#45;&gt;vibration -->
<g id="edge25" class="edge">
<title>mnt_comp2&#45;&gt;vibration</title>
<path fill="none" stroke="black" stroke-width="1.2" d="M414.87,-385.95C423.5,-382.7 432.5,-379.3 441.14,-376.05"/>
<polygon fill="black" stroke="black" stroke-width="1.2" points="442.57,-379.25 450.69,-372.45 440.1,-372.7 442.57,-379.25"/>
</g>
<!-- mnt_comp2&#45;&gt;err_error3 -->
<g id="edge27" class="edge">
<title>mnt_comp2&#45;&gt;err_error3</title>
<path fill="none" stroke="black" stroke-width="1.2" d="M388.54,-422.05C404.62,-434.28 427.74,-449.38 451,-456 570.46,-489.98 718.51,-473.02 795.31,-460.09"/>
<polygon fill="black" stroke="black" stroke-width="1.2" points="795.96,-463.53 805.22,-458.38 794.77,-456.63 795.96,-463.53"/>
</g>
<!-- mnt_comp2&#45;&gt;mnt_comp4 -->
<g id="edge33" class="edge">
<title>mnt_comp2&#45;&gt;mnt_comp4</title>
<path fill="none" stroke="black" stroke-width="1.2" d="M415.23,-409.26C447.64,-411.65 491.19,-412.66 529,-406 708.49,-374.38 886.53,-233.52 953.35,-175.8"/>
<polygon fill="black" stroke="black" stroke-width="1.2" points="955.7,-178.39 960.94,-169.18 951.1,-173.12 955.7,-178.39"/>
</g>
<!-- mnt_comp3&#45;&gt;volt -->
<g id="edge5" class="edge">
<title>mnt_comp3&#45;&gt;volt</title>
<path fill="none" stroke="black" stroke-width="1.2" d="M798.94,-25.77C751.02,-14.66 675.17,0 608.5,0 251.5,0 251.5,0 251.5,0 152.94,0 74.96,-108.28 43.31,-160.05"/>
<polygon fill="black" stroke="black" stroke-width="1.2" points="40.25,-158.35 38.12,-168.73 46.26,-161.95 40.25,-158.35"/>
</g>
<!-- mnt_comp3&#45;&gt;err_error4 -->
<g id="edge28" class="edge">
<title>mnt_comp3&#45;&gt;err_error4</title>
<path fill="none" stroke="black" stroke-width="1.2" d="M891.35,-56.11C928.75,-72.55 984.41,-98.11 1031,-124 1045.47,-132.04 1060.88,-141.74 1074.13,-150.44"/>
<polygon fill="black" stroke="black" stroke-width="1.2" points="1072.22,-153.38 1082.48,-156 1076.09,-147.55 1072.22,-153.38"/>
</g>
<!-- mnt_comp3&#45;&gt;mnt_comp1 -->
<g id="edge30" class="edge">
<title>mnt_comp3&#45;&gt;mnt_comp1</title>
<path fill="none" stroke="black" stroke-width="1.2" d="M798.58,-38C750.39,-38 674.34,-38 608.5,-38 365,-38 365,-38 365,-38 301.43,-38 282.69,-37.57 224,-62 203.62,-70.48 183.4,-84.7 167.91,-97.16"/>
<polygon fill="black" stroke="black" stroke-width="1.2" points="165.29,-94.78 159.82,-103.86 169.75,-100.18 165.29,-94.78"/>
</g>
<!-- mnt_comp3&#45;&gt;mnt_comp4 -->
<g id="edge34" class="edge">
<title>mnt_comp3&#45;&gt;mnt_comp4</title>
<path fill="none" stroke="black" stroke-width="1.2" d="M878.03,-56.14C884.43,-60.47 891.07,-65.23 897,-70 918.49,-87.29 940.88,-109.1 957.13,-125.73"/>
<polygon fill="black" stroke="black" stroke-width="1.2" points="954.68,-128.22 964.15,-132.97 959.71,-123.36 954.68,-128.22"/>
</g>
<!-- mnt_comp4&#45;&gt;err_error4 -->
<g id="edge29" class="edge">
<title>mnt_comp4&#45;&gt;err_error4</title>
<path fill="none" stroke="black" stroke-width="1.2" d="M1031.16,-159.83C1039.61,-161.37 1048.43,-162.99 1056.96,-164.55"/>
<polygon fill="black" stroke="black" stroke-width="1.2" points="1056.34,-168 1066.81,-166.36 1057.6,-161.11 1056.34,-168"/>
</g>
<!-- mnt_comp4&#45;&gt;mnt_comp1 -->
<g id="edge31" class="edge">
<title>mnt_comp4&#45;&gt;mnt_comp1</title>
<path fill="none" stroke="black" stroke-width="1.2" d="M936.7,-132.88C924.06,-128.34 910.15,-123.94 897,-121 838.61,-107.95 822.7,-112.01 763,-108 626.79,-98.86 421.29,-87.09 317,-95 277.08,-98.03 232.53,-104.84 198.11,-110.87"/>
<polygon fill="black" stroke="black" stroke-width="1.2" points="197.46,-107.43 188.23,-112.62 198.69,-114.32 197.46,-107.43"/>
</g>
<!-- fail_comp1&#45;&gt;err_error2 -->
<g id="edge26" class="edge">
<title>fail_comp1&#45;&gt;err_error2</title>
<path fill="none" stroke="black" stroke-width="1.2" d="M391.73,-140.07C435.02,-171.7 524.57,-237.13 573.24,-272.7"/>
<polygon fill="black" stroke="black" stroke-width="1.2" points="571.41,-275.69 581.55,-278.77 575.54,-270.04 571.41,-275.69"/>
</g>
<!-- fail_comp1&#45;&gt;mnt_comp1 -->
<g id="edge32" class="edge">
<title>fail_comp1&#45;&gt;mnt_comp1</title>
<path fill="none" stroke="black" stroke-width="1.2" d="M319.88,-122C285.02,-122 236.51,-122 198.64,-122"/>
<polygon fill="black" stroke="black" stroke-width="1.2" points="198.27,-118.5 188.27,-122 198.27,-125.5 198.27,-118.5"/>
</g>
<!-- fail_comp1&#45;&gt;mnt_comp4 -->
<g id="edge35" class="edge">
<title>fail_comp1&#45;&gt;mnt_comp4</title>
<path fill="none" stroke="black" stroke-width="1.2" d="M412.02,-122C460.16,-122 538.72,-122 606.5,-122 606.5,-122 606.5,-122 725.5,-122 793.51,-122 871.06,-132.27 922.71,-140.59"/>
<polygon fill="black" stroke="black" stroke-width="1.2" points="922.25,-144.06 932.68,-142.22 923.38,-137.15 922.25,-144.06"/>
</g>
</g>
</svg>
