<?xml version="1.0" encoding="UTF-8" standalone="no"?>
<!DOCTYPE svg PUBLIC "-//W3C//DTD SVG 1.1//EN"
 "http://www.w3.org/Graphics/SVG/1.1/DTD/svg11.dtd">
<!-- Generated by graphviz version 2.50.0 (0)
 -->
<!-- Title: G Pages: 1 -->
<svg width="454pt" height="125pt"
 viewBox="0.00 0.00 454.00 125.49" xmlns="http://www.w3.org/2000/svg" xmlns:xlink="http://www.w3.org/1999/xlink">
<g id="graph0" class="graph" transform="scale(1 1) rotate(0) translate(4 121.49)">
<title>G</title>
<polygon fill="white" stroke="transparent" points="-4,4 -4,-121.49 450,-121.49 450,4 -4,4"/>
<text text-anchor="middle" x="223" y="-100.69" font-family="Times,serif" font-size="16.00">model=model2/cbnb_w_telemetry.json [machine 76]</text>
<!-- volt -->
<g id="node1" class="node">
<title>volt</title>
<path fill="white" stroke="black" d="M192,-49.49C192,-49.49 162,-49.49 162,-49.49 156,-49.49 150,-43.49 150,-37.49 150,-37.49 150,-25.49 150,-25.49 150,-19.49 156,-13.49 162,-13.49 162,-13.49 192,-13.49 192,-13.49 198,-13.49 204,-19.49 204,-25.49 204,-25.49 204,-37.49 204,-37.49 204,-43.49 198,-49.49 192,-49.49"/>
<text text-anchor="middle" x="177" y="-27.79" font-family="Helvetica,sans-Serif" font-size="14.00">volt</text>
</g>
<!-- rotate -->
<g id="node2" class="node">
<title>rotate</title>
<path fill="white" stroke="black" d="M285,-91.49C285,-91.49 252,-91.49 252,-91.49 246,-91.49 240,-85.49 240,-79.49 240,-79.49 240,-67.49 240,-67.49 240,-61.49 246,-55.49 252,-55.49 252,-55.49 285,-55.49 285,-55.49 291,-55.49 297,-61.49 297,-67.49 297,-67.49 297,-79.49 297,-79.49 297,-85.49 291,-91.49 285,-91.49"/>
<text text-anchor="middle" x="268.5" y="-69.79" font-family="Helvetica,sans-Serif" font-size="14.00">rotate</text>
</g>
<!-- volt&#45;&gt;rotate -->
<g id="edge1" class="edge">
<title>volt&#45;&gt;rotate</title>
<path fill="none" stroke="black" stroke-width="1.2" d="M204.37,-43.86C212.55,-47.7 221.72,-52.01 230.48,-56.12"/>
<polygon fill="black" stroke="black" stroke-width="1.2" points="229.22,-59.39 239.76,-60.47 232.2,-53.06 229.22,-59.39"/>
</g>
<!-- pressure -->
<g id="node3" class="node">
<title>pressure</title>
<path fill="white" stroke="black" d="M398,-45.49C398,-45.49 345,-45.49 345,-45.49 339,-45.49 333,-39.49 333,-33.49 333,-33.49 333,-21.49 333,-21.49 333,-15.49 339,-9.49 345,-9.49 345,-9.49 398,-9.49 398,-9.49 404,-9.49 410,-15.49 410,-21.49 410,-21.49 410,-33.49 410,-33.49 410,-39.49 404,-45.49 398,-45.49"/>
<text text-anchor="middle" x="371.5" y="-23.79" font-family="Helvetica,sans-Serif" font-size="14.00">pressure</text>
</g>
<!-- volt&#45;&gt;pressure -->
<g id="edge2" class="edge">
<title>volt&#45;&gt;pressure</title>
<path fill="none" stroke="black" stroke-width="1.2" d="M204.36,-30.94C234.76,-30.31 285.35,-29.26 322.73,-28.48"/>
<polygon fill="black" stroke="black" stroke-width="1.2" points="322.97,-31.98 332.89,-28.27 322.82,-24.98 322.97,-31.98"/>
</g>
<!-- rotate&#45;&gt;pressure -->
<g id="edge4" class="edge">
<title>rotate&#45;&gt;pressure</title>
<path fill="none" stroke="black" stroke-width="1.2" d="M297.1,-60.92C305.25,-57.21 314.41,-53.04 323.42,-48.93"/>
<polygon fill="black" stroke="black" stroke-width="1.2" points="325.06,-52.03 332.71,-44.7 322.16,-45.66 325.06,-52.03"/>
</g>
<!-- vibration -->
<g id="node4" class="node">
<title>vibration</title>
<path fill="white" stroke="black" d="M102,-49.49C102,-49.49 48,-49.49 48,-49.49 42,-49.49 36,-43.49 36,-37.49 36,-37.49 36,-25.49 36,-25.49 36,-19.49 42,-13.49 48,-13.49 48,-13.49 102,-13.49 102,-13.49 108,-13.49 114,-19.49 114,-25.49 114,-25.49 114,-37.49 114,-37.49 114,-43.49 108,-49.49 102,-49.49"/>
<text text-anchor="middle" x="75" y="-27.79" font-family="Helvetica,sans-Serif" font-size="14.00">vibration</text>
</g>
<!-- vibration&#45;&gt;volt -->
<g id="edge3" class="edge">
<title>vibration&#45;&gt;volt</title>
<path fill="none" stroke="black" stroke-width="1.2" d="M114.09,-31.49C122.47,-31.49 131.33,-31.49 139.64,-31.49"/>
<polygon fill="black" stroke="black" stroke-width="1.2" points="139.8,-34.99 149.8,-31.49 139.8,-27.99 139.8,-34.99"/>
</g>
<!-- vibration&#45;&gt;rotate -->
<g id="edge5" class="edge">
<title>vibration&#45;&gt;rotate</title>
<path fill="none" stroke="black" stroke-width="1.2" d="M114.29,-47.3C125.63,-51.48 138.17,-55.61 150,-58.49 176.17,-64.85 206.31,-68.63 229.51,-70.8"/>
<polygon fill="black" stroke="black" stroke-width="1.2" points="229.38,-74.3 239.64,-71.69 229.99,-67.33 229.38,-74.3"/>
</g>
<!-- vibration&#45;&gt;pressure -->
<g id="edge6" class="edge">
<title>vibration&#45;&gt;pressure</title>
<path fill="none" stroke="black" stroke-width="1.2" d="M114.09,-14.71C125.42,-10.52 138.01,-6.61 150,-4.49 209.2,5.97 278.24,-4.89 323.08,-14.95"/>
<polygon fill="black" stroke="black" stroke-width="1.2" points="322.29,-18.36 332.82,-17.21 323.87,-11.55 322.29,-18.36"/>
</g>
</g>
</svg>
