<?xml version="1.0" encoding="UTF-8" standalone="no"?>
<!DOCTYPE svg PUBLIC "-//W3C//DTD SVG 1.1//EN"
 "http://www.w3.org/Graphics/SVG/1.1/DTD/svg11.dtd">
<!-- Generated by graphviz version 2.50.0 (0)
 -->
<!-- Title: G Pages: 1 -->
<svg width="454pt" height="116pt"
 viewBox="0.00 0.00 454.00 116.00" xmlns="http://www.w3.org/2000/svg" xmlns:xlink="http://www.w3.org/1999/xlink">
<g id="graph0" class="graph" transform="scale(1 1) rotate(0) translate(4 112)">
<title>G</title>
<polygon fill="white" stroke="transparent" points="-4,4 -4,-112 450,-112 450,4 -4,4"/>
<text text-anchor="middle" x="223" y="-91.2" font-family="Times,serif" font-size="16.00">model=model4/cbnb_w_telemetry.json [machine 36]</text>
<!-- volt -->
<g id="node1" class="node">
<title>volt</title>
<path fill="white" stroke="black" d="M78,-59C78,-59 48,-59 48,-59 42,-59 36,-53 36,-47 36,-47 36,-35 36,-35 36,-29 42,-23 48,-23 48,-23 78,-23 78,-23 84,-23 90,-29 90,-35 90,-35 90,-47 90,-47 90,-53 84,-59 78,-59"/>
<text text-anchor="middle" x="63" y="-37.3" font-family="Helvetica,sans-Serif" font-size="14.00">volt</text>
</g>
<!-- rotate -->
<g id="node2" class="node">
<title>rotate</title>
<path fill="white" stroke="black" d="M171,-82C171,-82 138,-82 138,-82 132,-82 126,-76 126,-70 126,-70 126,-58 126,-58 126,-52 132,-46 138,-46 138,-46 171,-46 171,-46 177,-46 183,-52 183,-58 183,-58 183,-70 183,-70 183,-76 177,-82 171,-82"/>
<text text-anchor="middle" x="154.5" y="-60.3" font-family="Helvetica,sans-Serif" font-size="14.00">rotate</text>
</g>
<!-- volt&#45;&gt;rotate -->
<g id="edge1" class="edge">
<title>volt&#45;&gt;rotate</title>
<path fill="none" stroke="black" stroke-width="1.2" d="M100.12,-50.28C105.33,-51.62 110.7,-53 115.94,-54.35"/>
<polygon fill="black" stroke="black" stroke-width="1.2" points="100.93,-46.88 90.37,-47.78 99.18,-53.66 100.93,-46.88"/>
<polygon fill="black" stroke="black" stroke-width="1.2" points="115.21,-57.77 125.76,-56.87 116.95,-50.99 115.21,-57.77"/>
</g>
<!-- vibration -->
<g id="node4" class="node">
<title>vibration</title>
<path fill="white" stroke="black" d="M285,-36C285,-36 231,-36 231,-36 225,-36 219,-30 219,-24 219,-24 219,-12 219,-12 219,-6 225,0 231,0 231,0 285,0 285,0 291,0 297,-6 297,-12 297,-12 297,-24 297,-24 297,-30 291,-36 285,-36"/>
<text text-anchor="middle" x="258" y="-14.3" font-family="Helvetica,sans-Serif" font-size="14.00">vibration</text>
</g>
<!-- volt&#45;&gt;vibration -->
<g id="edge2" class="edge">
<title>volt&#45;&gt;vibration</title>
<path fill="none" stroke="black" stroke-width="1.2" d="M100.39,-36.66C131.04,-33.01 175.12,-27.76 208.71,-23.75"/>
<polygon fill="black" stroke="black" stroke-width="1.2" points="99.54,-33.24 90.03,-37.9 100.37,-40.19 99.54,-33.24"/>
<polygon fill="black" stroke="black" stroke-width="1.2" points="209.26,-27.21 218.77,-22.56 208.43,-20.26 209.26,-27.21"/>
</g>
<!-- pressure -->
<g id="node3" class="node">
<title>pressure</title>
<path fill="white" stroke="black" d="M398,-59C398,-59 345,-59 345,-59 339,-59 333,-53 333,-47 333,-47 333,-35 333,-35 333,-29 339,-23 345,-23 345,-23 398,-23 398,-23 404,-23 410,-29 410,-35 410,-35 410,-47 410,-47 410,-53 404,-59 398,-59"/>
<text text-anchor="middle" x="371.5" y="-37.3" font-family="Helvetica,sans-Serif" font-size="14.00">pressure</text>
</g>
<!-- rotate&#45;&gt;pressure -->
<g id="edge3" class="edge">
<title>rotate&#45;&gt;pressure</title>
<path fill="none" stroke="black" stroke-width="1.2" d="M183.17,-61.04C218.37,-57.27 279.74,-50.71 322.62,-46.12"/>
<polygon fill="black" stroke="black" stroke-width="1.2" points="323.25,-49.57 332.82,-45.03 322.5,-42.61 323.25,-49.57"/>
</g>
<!-- rotate&#45;&gt;vibration -->
<g id="edge4" class="edge">
<title>rotate&#45;&gt;vibration</title>
<path fill="none" stroke="black" stroke-width="1.2" d="M183.24,-51.43C191.34,-47.76 200.43,-43.64 209.4,-39.57"/>
<polygon fill="black" stroke="black" stroke-width="1.2" points="210.98,-42.7 218.65,-35.38 208.09,-36.32 210.98,-42.7"/>
</g>
<!-- vibration&#45;&gt;pressure -->
<g id="edge5" class="edge">
<title>vibration&#45;&gt;pressure</title>
<path fill="none" stroke="black" stroke-width="1.2" d="M297.06,-25.85C305.4,-27.57 314.34,-29.41 323,-31.2"/>
<polygon fill="black" stroke="black" stroke-width="1.2" points="322.49,-34.67 332.99,-33.26 323.9,-27.81 322.49,-34.67"/>
</g>
</g>
</svg>
