<?xml version="1.0" encoding="UTF-8" standalone="no"?>
<!DOCTYPE svg PUBLIC "-//W3C//DTD SVG 1.1//EN"
 "http://www.w3.org/Graphics/SVG/1.1/DTD/svg11.dtd">
<!-- Generated by graphviz version 2.50.0 (0)
 -->
<!-- Title: G Pages: 1 -->
<svg width="454pt" height="93pt"
 viewBox="0.00 0.00 454.00 93.00" xmlns="http://www.w3.org/2000/svg" xmlns:xlink="http://www.w3.org/1999/xlink">
<g id="graph0" class="graph" transform="scale(1 1) rotate(0) translate(4 89)">
<title>G</title>
<polygon fill="white" stroke="transparent" points="-4,4 -4,-89 450,-89 450,4 -4,4"/>
<text text-anchor="middle" x="223" y="-68.2" font-family="Times,serif" font-size="16.00">model=model2/cbnb_w_telemetry.json [machine 11]</text>
<!-- volt -->
<g id="node1" class="node">
<title>volt</title>
<path fill="white" stroke="black" d="M398,-36C398,-36 368,-36 368,-36 362,-36 356,-30 356,-24 356,-24 356,-12 356,-12 356,-6 362,0 368,0 368,0 398,0 398,0 404,0 410,-6 410,-12 410,-12 410,-24 410,-24 410,-30 404,-36 398,-36"/>
<text text-anchor="middle" x="383" y="-14.3" font-family="Helvetica,sans-Serif" font-size="14.00">volt</text>
</g>
<!-- rotate -->
<g id="node2" class="node">
<title>rotate</title>
<path fill="white" stroke="black" d="M81,-36C81,-36 48,-36 48,-36 42,-36 36,-30 36,-24 36,-24 36,-12 36,-12 36,-6 42,0 48,0 48,0 81,0 81,0 87,0 93,-6 93,-12 93,-12 93,-24 93,-24 93,-30 87,-36 81,-36"/>
<text text-anchor="middle" x="64.5" y="-14.3" font-family="Helvetica,sans-Serif" font-size="14.00">rotate</text>
</g>
<!-- pressure -->
<g id="node3" class="node">
<title>pressure</title>
<path fill="white" stroke="black" d="M194,-59C194,-59 141,-59 141,-59 135,-59 129,-53 129,-47 129,-47 129,-35 129,-35 129,-29 135,-23 141,-23 141,-23 194,-23 194,-23 200,-23 206,-29 206,-35 206,-35 206,-47 206,-47 206,-53 200,-59 194,-59"/>
<text text-anchor="middle" x="167.5" y="-37.3" font-family="Helvetica,sans-Serif" font-size="14.00">pressure</text>
</g>
<!-- rotate&#45;&gt;pressure -->
<g id="edge2" class="edge">
<title>rotate&#45;&gt;pressure</title>
<path fill="none" stroke="black" stroke-width="1.2" d="M93.1,-24.28C101.08,-26.1 110.02,-28.14 118.85,-30.15"/>
<polygon fill="black" stroke="black" stroke-width="1.2" points="118.18,-33.59 128.71,-32.39 119.74,-26.76 118.18,-33.59"/>
</g>
<!-- vibration -->
<g id="node4" class="node">
<title>vibration</title>
<path fill="white" stroke="black" d="M308,-36C308,-36 254,-36 254,-36 248,-36 242,-30 242,-24 242,-24 242,-12 242,-12 242,-6 248,0 254,0 254,0 308,0 308,0 314,0 320,-6 320,-12 320,-12 320,-24 320,-24 320,-30 314,-36 308,-36"/>
<text text-anchor="middle" x="281" y="-14.3" font-family="Helvetica,sans-Serif" font-size="14.00">vibration</text>
</g>
<!-- rotate&#45;&gt;vibration -->
<g id="edge3" class="edge">
<title>rotate&#45;&gt;vibration</title>
<path fill="none" stroke="black" stroke-width="1.2" d="M103.3,-15.23C111.76,-14.72 120.68,-14.26 129,-14 163.21,-12.92 171.79,-13.08 206,-14 214.32,-14.22 223.16,-14.59 231.73,-15.01"/>
<polygon fill="black" stroke="black" stroke-width="1.2" points="103.06,-11.74 93.3,-15.87 103.5,-18.72 103.06,-11.74"/>
<polygon fill="black" stroke="black" stroke-width="1.2" points="231.82,-18.52 241.99,-15.55 232.19,-11.53 231.82,-18.52"/>
</g>
<!-- pressure&#45;&gt;vibration -->
<g id="edge4" class="edge">
<title>pressure&#45;&gt;vibration</title>
<path fill="none" stroke="black" stroke-width="1.2" d="M206.25,-33.21C214.51,-31.51 223.37,-29.68 231.97,-27.91"/>
<polygon fill="black" stroke="black" stroke-width="1.2" points="232.82,-31.31 241.91,-25.86 231.41,-24.45 232.82,-31.31"/>
</g>
<!-- vibration&#45;&gt;volt -->
<g id="edge1" class="edge">
<title>vibration&#45;&gt;volt</title>
<path fill="none" stroke="black" stroke-width="1.2" d="M320.09,-18C328.47,-18 337.33,-18 345.64,-18"/>
<polygon fill="black" stroke="black" stroke-width="1.2" points="345.8,-21.5 355.8,-18 345.8,-14.5 345.8,-21.5"/>
</g>
</g>
</svg>
