<?xml version="1.0" encoding="UTF-8" standalone="no"?>
<!DOCTYPE svg PUBLIC "-//W3C//DTD SVG 1.1//EN"
 "http://www.w3.org/Graphics/SVG/1.1/DTD/svg11.dtd">
<!-- Generated by graphviz version 2.50.0 (0)
 -->
<!-- Title: G Pages: 1 -->
<svg width="1403pt" height="814pt"
 viewBox="0.00 0.00 1403.00 813.69" xmlns="http://www.w3.org/2000/svg" xmlns:xlink="http://www.w3.org/1999/xlink">
<g id="graph0" class="graph" transform="scale(1 1) rotate(0) translate(4 809.69)">
<title>G</title>
<polygon fill="white" stroke="transparent" points="-4,4 -4,-809.69 1399,-809.69 1399,4 -4,4"/>
<text text-anchor="middle" x="697.5" y="-788.89" font-family="Times,serif" font-size="16.00">model=model3/cbnb_w_mixed.json [machine 59]</text>
<!-- volt -->
<g id="node1" class="node">
<title>volt</title>
<path fill="white" stroke="black" d="M163,-347.62C163,-347.62 133,-347.62 133,-347.62 127,-347.62 121,-341.62 121,-335.62 121,-335.62 121,-323.62 121,-323.62 121,-317.62 127,-311.62 133,-311.62 133,-311.62 163,-311.62 163,-311.62 169,-311.62 175,-317.62 175,-323.62 175,-323.62 175,-335.62 175,-335.62 175,-341.62 169,-347.62 163,-347.62"/>
<text text-anchor="middle" x="148" y="-325.92" font-family="Helvetica,sans-Serif" font-size="14.00">volt</text>
</g>
<!-- rotate -->
<g id="node2" class="node">
<title>rotate</title>
<path fill="white" stroke="black" d="M384,-511.62C384,-511.62 351,-511.62 351,-511.62 345,-511.62 339,-505.62 339,-499.62 339,-499.62 339,-487.62 339,-487.62 339,-481.62 345,-475.62 351,-475.62 351,-475.62 384,-475.62 384,-475.62 390,-475.62 396,-481.62 396,-487.62 396,-487.62 396,-499.62 396,-499.62 396,-505.62 390,-511.62 384,-511.62"/>
<text text-anchor="middle" x="367.5" y="-489.92" font-family="Helvetica,sans-Serif" font-size="14.00">rotate</text>
</g>
<!-- volt&#45;&gt;rotate -->
<g id="edge1" class="edge">
<title>volt&#45;&gt;rotate</title>
<path fill="none" stroke="black" stroke-width="1.2" d="M154.5,-347.66C162.84,-372.12 180.99,-415.61 211,-440.62 244.95,-468.93 294.78,-482.38 328.82,-488.6"/>
<polygon fill="black" stroke="black" stroke-width="1.2" points="328.4,-492.08 338.84,-490.3 329.57,-485.18 328.4,-492.08"/>
</g>
<!-- pressure -->
<g id="node3" class="node">
<title>pressure</title>
<path fill="white" stroke="black" d="M1141,-416.62C1141,-416.62 1088,-416.62 1088,-416.62 1082,-416.62 1076,-410.62 1076,-404.62 1076,-404.62 1076,-392.62 1076,-392.62 1076,-386.62 1082,-380.62 1088,-380.62 1088,-380.62 1141,-380.62 1141,-380.62 1147,-380.62 1153,-386.62 1153,-392.62 1153,-392.62 1153,-404.62 1153,-404.62 1153,-410.62 1147,-416.62 1141,-416.62"/>
<text text-anchor="middle" x="1114.5" y="-394.92" font-family="Helvetica,sans-Serif" font-size="14.00">pressure</text>
</g>
<!-- volt&#45;&gt;pressure -->
<g id="edge2" class="edge">
<title>volt&#45;&gt;pressure</title>
<path fill="none" stroke="black" stroke-width="1.2" d="M150.34,-311.41C154.97,-253.79 172.12,-76.98 211,-37.62 260.79,12.77 295.66,-2.62 366.5,-2.62 366.5,-2.62 366.5,-2.62 858,-2.62 949.04,-2.62 983.72,-25.06 1040,-96.62 1105.34,-179.71 1113.72,-312.45 1114.05,-370.22"/>
<polygon fill="black" stroke="black" stroke-width="1.2" points="1110.55,-370.42 1114.03,-380.42 1117.55,-370.43 1110.55,-370.42"/>
</g>
<!-- vibration -->
<g id="node4" class="node">
<title>vibration</title>
<path fill="white" stroke="black" d="M760,-416.62C760,-416.62 706,-416.62 706,-416.62 700,-416.62 694,-410.62 694,-404.62 694,-404.62 694,-392.62 694,-392.62 694,-386.62 700,-380.62 706,-380.62 706,-380.62 760,-380.62 760,-380.62 766,-380.62 772,-386.62 772,-392.62 772,-392.62 772,-404.62 772,-404.62 772,-410.62 766,-416.62 760,-416.62"/>
<text text-anchor="middle" x="733" y="-394.92" font-family="Helvetica,sans-Serif" font-size="14.00">vibration</text>
</g>
<!-- volt&#45;&gt;vibration -->
<g id="edge3" class="edge">
<title>volt&#45;&gt;vibration</title>
<path fill="none" stroke="black" stroke-width="1.2" d="M175.22,-339.78C186.14,-343.67 199.05,-347.84 211,-350.62 381.59,-390.3 590.77,-397.44 683.63,-398.55"/>
<polygon fill="black" stroke="black" stroke-width="1.2" points="683.81,-402.05 693.84,-398.65 683.88,-395.05 683.81,-402.05"/>
</g>
<!-- err_error4 -->
<g id="node8" class="node">
<title>err_error4</title>
<path fill="white" stroke="black" d="M1262,-606.62C1262,-606.62 1201,-606.62 1201,-606.62 1195,-606.62 1189,-600.62 1189,-594.62 1189,-594.62 1189,-582.62 1189,-582.62 1189,-576.62 1195,-570.62 1201,-570.62 1201,-570.62 1262,-570.62 1262,-570.62 1268,-570.62 1274,-576.62 1274,-582.62 1274,-582.62 1274,-594.62 1274,-594.62 1274,-600.62 1268,-606.62 1262,-606.62"/>
<text text-anchor="middle" x="1231.5" y="-584.92" font-family="Helvetica,sans-Serif" font-size="14.00">err_error4</text>
</g>
<!-- volt&#45;&gt;err_error4 -->
<g id="edge6" class="edge">
<title>volt&#45;&gt;err_error4</title>
<path fill="none" stroke="black" stroke-width="1.2" d="M151.5,-358.14C158.02,-426.94 177.37,-599.7 211,-645.62 320.94,-795.76 421.92,-778.62 608,-778.62 608,-778.62 608,-778.62 734,-778.62 872.59,-778.62 912.15,-772.11 1040,-718.62 1103.09,-692.23 1166.8,-643.18 1202.21,-613.46"/>
<polygon fill="black" stroke="black" stroke-width="1.2" points="154.97,-357.67 150.57,-348.03 148,-358.31 154.97,-357.67"/>
<polygon fill="black" stroke="black" stroke-width="1.2" points="1204.81,-615.85 1210.17,-606.71 1200.28,-610.51 1204.81,-615.85"/>
</g>
<!-- mnt_comp4 -->
<g id="node13" class="node">
<title>mnt_comp4</title>
<path fill="white" stroke="black" d="M1028,-141.62C1028,-141.62 954,-141.62 954,-141.62 948,-141.62 942,-135.62 942,-129.62 942,-129.62 942,-117.62 942,-117.62 942,-111.62 948,-105.62 954,-105.62 954,-105.62 1028,-105.62 1028,-105.62 1034,-105.62 1040,-111.62 1040,-117.62 1040,-117.62 1040,-129.62 1040,-129.62 1040,-135.62 1034,-141.62 1028,-141.62"/>
<text text-anchor="middle" x="991" y="-119.92" font-family="Helvetica,sans-Serif" font-size="14.00">mnt_comp4</text>
</g>
<!-- volt&#45;&gt;mnt_comp4 -->
<g id="edge10" class="edge">
<title>volt&#45;&gt;mnt_comp4</title>
<path fill="none" stroke="black" stroke-width="1.2" d="M151.31,-311.37C158.09,-260.62 179.44,-119.4 211,-86.62 260.99,-34.71 294.43,-40.62 366.5,-40.62 366.5,-40.62 366.5,-40.62 734,-40.62 812.57,-40.62 898.38,-76.44 948.02,-101.01"/>
<polygon fill="black" stroke="black" stroke-width="1.2" points="946.64,-104.24 957.15,-105.61 949.79,-97.99 946.64,-104.24"/>
</g>
<!-- fail_comp1 -->
<g id="node14" class="node">
<title>fail_comp1</title>
<path fill="white" stroke="black" d="M291,-431.62C291,-431.62 223,-431.62 223,-431.62 217,-431.62 211,-425.62 211,-419.62 211,-419.62 211,-407.62 211,-407.62 211,-401.62 217,-395.62 223,-395.62 223,-395.62 291,-395.62 291,-395.62 297,-395.62 303,-401.62 303,-407.62 303,-407.62 303,-419.62 303,-419.62 303,-425.62 297,-431.62 291,-431.62"/>
<text text-anchor="middle" x="257" y="-409.92" font-family="Helvetica,sans-Serif" font-size="14.00">fail_comp1</text>
</g>
<!-- volt&#45;&gt;fail_comp1 -->
<g id="edge11" class="edge">
<title>volt&#45;&gt;fail_comp1</title>
<path fill="none" stroke="black" stroke-width="1.2" d="M177.81,-354.6C188.13,-363.33 199.95,-373.08 211,-381.62 214.33,-384.2 217.84,-386.83 221.37,-389.42"/>
<polygon fill="black" stroke="black" stroke-width="1.2" points="179.77,-351.68 169.89,-347.86 175.24,-357.01 179.77,-351.68"/>
<polygon fill="black" stroke="black" stroke-width="1.2" points="219.42,-392.33 229.57,-395.36 223.52,-386.66 219.42,-392.33"/>
</g>
<!-- rotate&#45;&gt;vibration -->
<g id="edge15" class="edge">
<title>rotate&#45;&gt;vibration</title>
<path fill="none" stroke="black" stroke-width="1.2" d="M406.64,-493.49C463.42,-492.09 572.66,-484.71 658,-450.62 674.39,-444.08 690.65,-433.26 703.73,-423.18"/>
<polygon fill="black" stroke="black" stroke-width="1.2" points="406.26,-490 396.33,-493.7 406.4,-497 406.26,-490"/>
<polygon fill="black" stroke="black" stroke-width="1.2" points="706.21,-425.68 711.85,-416.71 701.84,-420.21 706.21,-425.68"/>
</g>
<!-- err_error3 -->
<g id="node7" class="node">
<title>err_error3</title>
<path fill="white" stroke="black" d="M1021.5,-709.62C1021.5,-709.62 960.5,-709.62 960.5,-709.62 954.5,-709.62 948.5,-703.62 948.5,-697.62 948.5,-697.62 948.5,-685.62 948.5,-685.62 948.5,-679.62 954.5,-673.62 960.5,-673.62 960.5,-673.62 1021.5,-673.62 1021.5,-673.62 1027.5,-673.62 1033.5,-679.62 1033.5,-685.62 1033.5,-685.62 1033.5,-697.62 1033.5,-697.62 1033.5,-703.62 1027.5,-709.62 1021.5,-709.62"/>
<text text-anchor="middle" x="991" y="-687.92" font-family="Helvetica,sans-Serif" font-size="14.00">err_error3</text>
</g>
<!-- rotate&#45;&gt;err_error3 -->
<g id="edge16" class="edge">
<title>rotate&#45;&gt;err_error3</title>
<path fill="none" stroke="black" stroke-width="1.2" d="M371.47,-511.94C377.33,-541.64 393.34,-599.88 432,-628.62 511.35,-687.61 815.27,-692.67 938.07,-692.23"/>
<polygon fill="black" stroke="black" stroke-width="1.2" points="938.35,-695.73 948.34,-692.18 938.32,-688.73 938.35,-695.73"/>
</g>
<!-- err_error5 -->
<g id="node9" class="node">
<title>err_error5</title>
<path fill="white" stroke="black" d="M887.5,-652.62C887.5,-652.62 826.5,-652.62 826.5,-652.62 820.5,-652.62 814.5,-646.62 814.5,-640.62 814.5,-640.62 814.5,-628.62 814.5,-628.62 814.5,-622.62 820.5,-616.62 826.5,-616.62 826.5,-616.62 887.5,-616.62 887.5,-616.62 893.5,-616.62 899.5,-622.62 899.5,-628.62 899.5,-628.62 899.5,-640.62 899.5,-640.62 899.5,-646.62 893.5,-652.62 887.5,-652.62"/>
<text text-anchor="middle" x="857" y="-630.92" font-family="Helvetica,sans-Serif" font-size="14.00">err_error5</text>
</g>
<!-- rotate&#45;&gt;err_error5 -->
<g id="edge18" class="edge">
<title>rotate&#45;&gt;err_error5</title>
<path fill="none" stroke="black" stroke-width="1.2" d="M373.26,-511.63C380.97,-536.82 398.77,-581.82 432,-602.62 492.74,-640.64 705.18,-639.4 804.32,-636.58"/>
<polygon fill="black" stroke="black" stroke-width="1.2" points="804.51,-640.08 814.4,-636.28 804.3,-633.08 804.51,-640.08"/>
</g>
<!-- mnt_comp3 -->
<g id="node12" class="node">
<title>mnt_comp3</title>
<path fill="white" stroke="black" d="M894,-183.62C894,-183.62 820,-183.62 820,-183.62 814,-183.62 808,-177.62 808,-171.62 808,-171.62 808,-159.62 808,-159.62 808,-153.62 814,-147.62 820,-147.62 820,-147.62 894,-147.62 894,-147.62 900,-147.62 906,-153.62 906,-159.62 906,-159.62 906,-171.62 906,-171.62 906,-177.62 900,-183.62 894,-183.62"/>
<text text-anchor="middle" x="857" y="-161.92" font-family="Helvetica,sans-Serif" font-size="14.00">mnt_comp3</text>
</g>
<!-- rotate&#45;&gt;mnt_comp3 -->
<g id="edge20" class="edge">
<title>rotate&#45;&gt;mnt_comp3</title>
<path fill="none" stroke="black" stroke-width="1.2" d="M396.21,-475.8C447.95,-442.45 562.64,-368.13 658,-303.62 716.08,-264.34 782.83,-217.44 822.1,-189.68"/>
<polygon fill="black" stroke="black" stroke-width="1.2" points="824.39,-192.35 830.53,-183.72 820.34,-186.64 824.39,-192.35"/>
</g>
<!-- fail_comp2 -->
<g id="node15" class="node">
<title>fail_comp2</title>
<path fill="white" stroke="black" d="M512,-370.62C512,-370.62 444,-370.62 444,-370.62 438,-370.62 432,-364.62 432,-358.62 432,-358.62 432,-346.62 432,-346.62 432,-340.62 438,-334.62 444,-334.62 444,-334.62 512,-334.62 512,-334.62 518,-334.62 524,-340.62 524,-346.62 524,-346.62 524,-358.62 524,-358.62 524,-364.62 518,-370.62 512,-370.62"/>
<text text-anchor="middle" x="478" y="-348.92" font-family="Helvetica,sans-Serif" font-size="14.00">fail_comp2</text>
</g>
<!-- rotate&#45;&gt;fail_comp2 -->
<g id="edge22" class="edge">
<title>rotate&#45;&gt;fail_comp2</title>
<path fill="none" stroke="black" stroke-width="1.2" d="M388.77,-467.28C408.25,-441.97 437.5,-403.96 456.91,-378.73"/>
<polygon fill="black" stroke="black" stroke-width="1.2" points="385.79,-465.42 382.46,-475.48 391.33,-469.69 385.79,-465.42"/>
<polygon fill="black" stroke="black" stroke-width="1.2" points="459.77,-380.76 463.09,-370.7 454.22,-376.49 459.77,-380.76"/>
</g>
<!-- pressure&#45;&gt;rotate -->
<g id="edge14" class="edge">
<title>pressure&#45;&gt;rotate</title>
<path fill="none" stroke="black" stroke-width="1.2" d="M1088.23,-416.66C1029.25,-456.92 876.66,-550.62 734,-550.62 608,-550.62 608,-550.62 608,-550.62 534.73,-550.62 452.2,-525.07 405.66,-508.18"/>
<polygon fill="black" stroke="black" stroke-width="1.2" points="406.61,-504.8 396.02,-504.61 404.18,-511.36 406.61,-504.8"/>
</g>
<!-- pressure&#45;&gt;err_error4 -->
<g id="edge24" class="edge">
<title>pressure&#45;&gt;err_error4</title>
<path fill="none" stroke="black" stroke-width="1.2" d="M1131.85,-425.63C1153.69,-461.72 1192.17,-525.3 1214.06,-561.46"/>
<polygon fill="black" stroke="black" stroke-width="1.2" points="1134.7,-423.58 1126.53,-416.84 1128.71,-427.21 1134.7,-423.58"/>
<polygon fill="black" stroke="black" stroke-width="1.2" points="1211.33,-563.72 1219.51,-570.46 1217.32,-560.09 1211.33,-563.72"/>
</g>
<!-- vibration&#45;&gt;pressure -->
<g id="edge23" class="edge">
<title>vibration&#45;&gt;pressure</title>
<path fill="none" stroke="black" stroke-width="1.2" d="M772.13,-398.62C841.78,-398.62 989.43,-398.62 1065.69,-398.62"/>
<polygon fill="black" stroke="black" stroke-width="1.2" points="1065.96,-402.12 1075.96,-398.62 1065.96,-395.12 1065.96,-402.12"/>
</g>
<!-- vibration&#45;&gt;err_error4 -->
<g id="edge27" class="edge">
<title>vibration&#45;&gt;err_error4</title>
<path fill="none" stroke="black" stroke-width="1.2" d="M772.14,-413.22C860.48,-447.02 1079.21,-530.73 1179.18,-568.98"/>
<polygon fill="black" stroke="black" stroke-width="1.2" points="1178.17,-572.35 1188.76,-572.65 1180.67,-565.81 1178.17,-572.35"/>
</g>
<!-- vibration&#45;&gt;err_error5 -->
<g id="edge28" class="edge">
<title>vibration&#45;&gt;err_error5</title>
<path fill="none" stroke="black" stroke-width="1.2" d="M748.02,-425.75C771.5,-471.16 818.47,-562.03 841.96,-607.46"/>
<polygon fill="black" stroke="black" stroke-width="1.2" points="751.07,-424.03 743.37,-416.75 744.85,-427.24 751.07,-424.03"/>
<polygon fill="black" stroke="black" stroke-width="1.2" points="838.9,-609.16 846.6,-616.44 845.11,-605.94 838.9,-609.16"/>
</g>
<!-- vibration&#45;&gt;mnt_comp3 -->
<g id="edge30" class="edge">
<title>vibration&#45;&gt;mnt_comp3</title>
<path fill="none" stroke="black" stroke-width="1.2" d="M743.57,-380.34C764.95,-339.51 816.68,-240.72 841.82,-192.71"/>
<polygon fill="black" stroke="black" stroke-width="1.2" points="844.93,-194.3 846.47,-183.82 838.73,-191.06 844.93,-194.3"/>
</g>
<!-- fail_comp4 -->
<g id="node16" class="node">
<title>fail_comp4</title>
<path fill="white" stroke="black" d="M891,-316.62C891,-316.62 823,-316.62 823,-316.62 817,-316.62 811,-310.62 811,-304.62 811,-304.62 811,-292.62 811,-292.62 811,-286.62 817,-280.62 823,-280.62 823,-280.62 891,-280.62 891,-280.62 897,-280.62 903,-286.62 903,-292.62 903,-292.62 903,-304.62 903,-304.62 903,-310.62 897,-316.62 891,-316.62"/>
<text text-anchor="middle" x="857" y="-294.92" font-family="Helvetica,sans-Serif" font-size="14.00">fail_comp4</text>
</g>
<!-- vibration&#45;&gt;fail_comp4 -->
<g id="edge32" class="edge">
<title>vibration&#45;&gt;fail_comp4</title>
<path fill="none" stroke="black" stroke-width="1.2" d="M763.97,-374.06C782.74,-358.67 806.85,-338.91 825.68,-323.48"/>
<polygon fill="black" stroke="black" stroke-width="1.2" points="761.61,-371.47 756.09,-380.51 766.05,-376.88 761.61,-371.47"/>
<polygon fill="black" stroke="black" stroke-width="1.2" points="828.14,-325.98 833.66,-316.94 823.71,-320.57 828.14,-325.98"/>
</g>
<!-- err_error1 -->
<g id="node5" class="node">
<title>err_error1</title>
<path fill="white" stroke="black" d="M73,-560.62C73,-560.62 12,-560.62 12,-560.62 6,-560.62 0,-554.62 0,-548.62 0,-548.62 0,-536.62 0,-536.62 0,-530.62 6,-524.62 12,-524.62 12,-524.62 73,-524.62 73,-524.62 79,-524.62 85,-530.62 85,-536.62 85,-536.62 85,-548.62 85,-548.62 85,-554.62 79,-560.62 73,-560.62"/>
<text text-anchor="middle" x="42.5" y="-538.92" font-family="Helvetica,sans-Serif" font-size="14.00">err_error1</text>
</g>
<!-- err_error1&#45;&gt;volt -->
<g id="edge4" class="edge">
<title>err_error1&#45;&gt;volt</title>
<path fill="none" stroke="black" stroke-width="1.2" d="M52.32,-524.46C70.54,-486.97 112.4,-400.84 133.83,-356.73"/>
<polygon fill="black" stroke="black" stroke-width="1.2" points="136.98,-358.26 138.2,-347.74 130.68,-355.2 136.98,-358.26"/>
</g>
<!-- err_error1&#45;&gt;err_error5 -->
<g id="edge33" class="edge">
<title>err_error1&#45;&gt;err_error5</title>
<path fill="none" stroke="black" stroke-width="1.2" d="M53.8,-560.65C76.48,-598.24 134.8,-684.21 211,-716.62 419.67,-805.39 698.04,-704.34 808.22,-656.73"/>
<polygon fill="black" stroke="black" stroke-width="1.2" points="809.65,-659.92 817.41,-652.7 806.85,-653.5 809.65,-659.92"/>
</g>
<!-- err_error2 -->
<g id="node6" class="node">
<title>err_error2</title>
<path fill="white" stroke="black" d="M1383,-682.62C1383,-682.62 1322,-682.62 1322,-682.62 1316,-682.62 1310,-676.62 1310,-670.62 1310,-670.62 1310,-658.62 1310,-658.62 1310,-652.62 1316,-646.62 1322,-646.62 1322,-646.62 1383,-646.62 1383,-646.62 1389,-646.62 1395,-652.62 1395,-658.62 1395,-658.62 1395,-670.62 1395,-670.62 1395,-676.62 1389,-682.62 1383,-682.62"/>
<text text-anchor="middle" x="1352.5" y="-660.92" font-family="Helvetica,sans-Serif" font-size="14.00">err_error2</text>
</g>
<!-- err_error2&#45;&gt;vibration -->
<g id="edge26" class="edge">
<title>err_error2&#45;&gt;vibration</title>
<path fill="none" stroke="black" stroke-width="1.2" d="M1309.73,-653.25C1276.69,-643.96 1229.53,-630.05 1189,-615.62 1016.45,-554.22 965.45,-552.17 808,-458.62 791.24,-448.67 774.23,-435.16 760.75,-423.48"/>
<polygon fill="black" stroke="black" stroke-width="1.2" points="763.06,-420.85 753.24,-416.86 758.42,-426.1 763.06,-420.85"/>
</g>
<!-- err_error3&#45;&gt;volt -->
<g id="edge5" class="edge">
<title>err_error3&#45;&gt;volt</title>
<path fill="none" stroke="black" stroke-width="1.2" d="M948.27,-699.37C934.83,-701.52 919.83,-703.56 906,-704.62 716.78,-719.18 668.78,-702.62 479,-702.62 366.5,-702.62 366.5,-702.62 366.5,-702.62 206.93,-702.62 162.34,-444.72 151.85,-357.82"/>
<polygon fill="black" stroke="black" stroke-width="1.2" points="155.33,-357.4 150.71,-347.87 148.37,-358.2 155.33,-357.4"/>
</g>
<!-- err_error3&#45;&gt;err_error2 -->
<g id="edge34" class="edge">
<title>err_error3&#45;&gt;err_error2</title>
<path fill="none" stroke="black" stroke-width="1.2" d="M1033.71,-691.43C1088.86,-690.77 1189.02,-688.22 1274,-678.62 1282.4,-677.68 1291.26,-676.37 1299.87,-674.93"/>
<polygon fill="black" stroke="black" stroke-width="1.2" points="1300.57,-678.36 1309.82,-673.2 1299.37,-671.47 1300.57,-678.36"/>
</g>
<!-- err_error4&#45;&gt;rotate -->
<g id="edge17" class="edge">
<title>err_error4&#45;&gt;rotate</title>
<path fill="none" stroke="black" stroke-width="1.2" d="M1188.71,-588.62C1141.09,-588.62 1060.94,-588.62 992,-588.62 608,-588.62 608,-588.62 608,-588.62 527.26,-588.62 504.39,-579.37 432,-543.62 418.77,-537.09 405.69,-527.48 394.87,-518.43"/>
<polygon fill="black" stroke="black" stroke-width="1.2" points="396.92,-515.58 387.07,-511.68 392.34,-520.87 396.92,-515.58"/>
</g>
<!-- err_error4&#45;&gt;err_error2 -->
<g id="edge35" class="edge">
<title>err_error4&#45;&gt;err_error2</title>
<path fill="none" stroke="black" stroke-width="1.2" d="M1260.7,-606.63C1276.74,-616.88 1297.02,-629.83 1314.34,-640.89"/>
<polygon fill="black" stroke="black" stroke-width="1.2" points="1312.78,-644.05 1323.09,-646.48 1316.54,-638.15 1312.78,-644.05"/>
</g>
<!-- mnt_comp1 -->
<g id="node10" class="node">
<title>mnt_comp1</title>
<path fill="white" stroke="black" d="M1028,-293.62C1028,-293.62 954,-293.62 954,-293.62 948,-293.62 942,-287.62 942,-281.62 942,-281.62 942,-269.62 942,-269.62 942,-263.62 948,-257.62 954,-257.62 954,-257.62 1028,-257.62 1028,-257.62 1034,-257.62 1040,-263.62 1040,-269.62 1040,-269.62 1040,-281.62 1040,-281.62 1040,-287.62 1034,-293.62 1028,-293.62"/>
<text text-anchor="middle" x="991" y="-271.92" font-family="Helvetica,sans-Serif" font-size="14.00">mnt_comp1</text>
</g>
<!-- mnt_comp1&#45;&gt;volt -->
<g id="edge7" class="edge">
<title>mnt_comp1&#45;&gt;volt</title>
<path fill="none" stroke="black" stroke-width="1.2" d="M984.13,-257.17C973.6,-227.21 948.52,-168.37 906,-138.62 796.01,-61.68 744.23,-78.62 610,-78.62 366.5,-78.62 366.5,-78.62 366.5,-78.62 285.05,-78.62 263.34,-113.21 211,-175.62 179.58,-213.08 162.58,-268.52 154.68,-301.66"/>
<polygon fill="black" stroke="black" stroke-width="1.2" points="151.23,-301.06 152.43,-311.59 158.05,-302.61 151.23,-301.06"/>
</g>
<!-- mnt_comp1&#45;&gt;rotate -->
<g id="edge19" class="edge">
<title>mnt_comp1&#45;&gt;rotate</title>
<path fill="none" stroke="black" stroke-width="1.2" d="M971.59,-293.85C955.16,-309.61 930.06,-332.48 906,-349.62 804.98,-421.6 776.8,-441.95 658,-477.62 561.38,-506.63 532.8,-502.59 432,-498.62 423.67,-498.3 414.75,-497.73 406.29,-497.09"/>
<polygon fill="black" stroke="black" stroke-width="1.2" points="406.54,-493.6 396.29,-496.29 405.98,-500.58 406.54,-493.6"/>
</g>
<!-- mnt_comp1&#45;&gt;pressure -->
<g id="edge25" class="edge">
<title>mnt_comp1&#45;&gt;pressure</title>
<path fill="none" stroke="black" stroke-width="1.2" d="M1009.93,-293.77C1030.66,-314.76 1064.92,-349.44 1088.31,-373.13"/>
<polygon fill="black" stroke="black" stroke-width="1.2" points="1085.98,-375.75 1095.5,-380.4 1090.96,-370.83 1085.98,-375.75"/>
</g>
<!-- mnt_comp2 -->
<g id="node11" class="node">
<title>mnt_comp2</title>
<path fill="white" stroke="black" d="M646,-294.62C646,-294.62 572,-294.62 572,-294.62 566,-294.62 560,-288.62 560,-282.62 560,-282.62 560,-270.62 560,-270.62 560,-264.62 566,-258.62 572,-258.62 572,-258.62 646,-258.62 646,-258.62 652,-258.62 658,-264.62 658,-270.62 658,-270.62 658,-282.62 658,-282.62 658,-288.62 652,-294.62 646,-294.62"/>
<text text-anchor="middle" x="609" y="-272.92" font-family="Helvetica,sans-Serif" font-size="14.00">mnt_comp2</text>
</g>
<!-- mnt_comp2&#45;&gt;volt -->
<g id="edge8" class="edge">
<title>mnt_comp2&#45;&gt;volt</title>
<path fill="none" stroke="black" stroke-width="1.2" d="M559.78,-282.19C467.46,-292.85 267.63,-315.93 185.44,-325.42"/>
<polygon fill="black" stroke="black" stroke-width="1.2" points="184.86,-321.96 175.33,-326.58 185.66,-328.91 184.86,-321.96"/>
</g>
<!-- mnt_comp2&#45;&gt;vibration -->
<g id="edge29" class="edge">
<title>mnt_comp2&#45;&gt;vibration</title>
<path fill="none" stroke="black" stroke-width="1.2" d="M628,-294.63C648.82,-315.44 683.22,-349.84 706.71,-373.33"/>
<polygon fill="black" stroke="black" stroke-width="1.2" points="704.38,-375.95 713.92,-380.55 709.33,-371 704.38,-375.95"/>
</g>
<!-- mnt_comp2&#45;&gt;mnt_comp1 -->
<g id="edge37" class="edge">
<title>mnt_comp2&#45;&gt;mnt_comp1</title>
<path fill="none" stroke="black" stroke-width="1.2" d="M658.2,-274.61C716.78,-272.43 818.65,-269.55 906,-271.62 914.2,-271.82 922.84,-272.12 931.34,-272.47"/>
<polygon fill="black" stroke="black" stroke-width="1.2" points="931.45,-275.98 941.6,-272.92 931.76,-268.99 931.45,-275.98"/>
</g>
<!-- mnt_comp2&#45;&gt;mnt_comp4 -->
<g id="edge42" class="edge">
<title>mnt_comp2&#45;&gt;mnt_comp4</title>
<path fill="none" stroke="black" stroke-width="1.2" d="M628.51,-258.41C661.4,-227.38 733.57,-165.05 808,-138.62 847.57,-124.58 894.9,-121.05 931.38,-120.92"/>
<polygon fill="black" stroke="black" stroke-width="1.2" points="931.83,-124.42 941.84,-120.97 931.86,-117.42 931.83,-124.42"/>
</g>
<!-- mnt_comp3&#45;&gt;volt -->
<g id="edge9" class="edge">
<title>mnt_comp3&#45;&gt;volt</title>
<path fill="none" stroke="black" stroke-width="1.2" d="M807.81,-174.42C699.97,-194.52 431.33,-246.88 211,-308.62 202.43,-311.03 193.29,-313.92 184.75,-316.79"/>
<polygon fill="black" stroke="black" stroke-width="1.2" points="183.38,-313.56 175.05,-320.11 185.65,-320.18 183.38,-313.56"/>
</g>
<!-- mnt_comp3&#45;&gt;mnt_comp1 -->
<g id="edge38" class="edge">
<title>mnt_comp3&#45;&gt;mnt_comp1</title>
<path fill="none" stroke="black" stroke-width="1.2" d="M886.71,-183.67C893.19,-188.05 899.95,-192.85 906,-197.62 926.67,-213.94 948.42,-234.23 964.61,-250.03"/>
<polygon fill="black" stroke="black" stroke-width="1.2" points="962.5,-252.86 972.08,-257.39 967.41,-247.88 962.5,-252.86"/>
</g>
<!-- mnt_comp3&#45;&gt;mnt_comp4 -->
<g id="edge44" class="edge">
<title>mnt_comp3&#45;&gt;mnt_comp4</title>
<path fill="none" stroke="black" stroke-width="1.2" d="M906.03,-150.34C914.49,-147.65 923.38,-144.82 932.08,-142.05"/>
<polygon fill="black" stroke="black" stroke-width="1.2" points="933.32,-145.33 941.79,-138.96 931.2,-138.66 933.32,-145.33"/>
</g>
<!-- fail_comp1&#45;&gt;rotate -->
<g id="edge21" class="edge">
<title>fail_comp1&#45;&gt;rotate</title>
<path fill="none" stroke="black" stroke-width="1.2" d="M282.62,-431.78C297.74,-442.93 317.29,-457.34 333.71,-469.45"/>
<polygon fill="black" stroke="black" stroke-width="1.2" points="331.85,-472.42 341.98,-475.54 336.01,-466.79 331.85,-472.42"/>
</g>
<!-- fail_comp1&#45;&gt;mnt_comp1 -->
<g id="edge39" class="edge">
<title>fail_comp1&#45;&gt;mnt_comp1</title>
<path fill="none" stroke="black" stroke-width="1.2" d="M281.31,-395.56C329.85,-359.25 446.66,-278.41 560,-249.62 689.73,-216.67 848.24,-242.5 931.88,-261.03"/>
<polygon fill="black" stroke="black" stroke-width="1.2" points="931.17,-264.46 941.7,-263.25 932.72,-257.63 931.17,-264.46"/>
</g>
<!-- fail_comp2&#45;&gt;volt -->
<g id="edge12" class="edge">
<title>fail_comp2&#45;&gt;volt</title>
<path fill="none" stroke="black" stroke-width="1.2" d="M431.72,-349.45C365.97,-344.84 245.38,-336.38 185.18,-332.16"/>
<polygon fill="black" stroke="black" stroke-width="1.2" points="185.23,-328.66 175.01,-331.45 184.74,-335.64 185.23,-328.66"/>
</g>
<!-- fail_comp2&#45;&gt;vibration -->
<g id="edge31" class="edge">
<title>fail_comp2&#45;&gt;vibration</title>
<path fill="none" stroke="black" stroke-width="1.2" d="M524.27,-360.59C560.47,-366.99 612.51,-376.26 658,-384.62 666.41,-386.17 675.35,-387.84 684.01,-389.47"/>
<polygon fill="black" stroke="black" stroke-width="1.2" points="683.51,-392.94 693.99,-391.36 684.81,-386.06 683.51,-392.94"/>
</g>
<!-- fail_comp2&#45;&gt;mnt_comp1 -->
<g id="edge40" class="edge">
<title>fail_comp2&#45;&gt;mnt_comp1</title>
<path fill="none" stroke="black" stroke-width="1.2" d="M524.19,-356.59C603.5,-362.07 772.06,-367.06 906,-325.62 924.43,-319.92 943.06,-309.42 958.07,-299.51"/>
<polygon fill="black" stroke="black" stroke-width="1.2" points="960.18,-302.31 966.47,-293.79 956.23,-296.53 960.18,-302.31"/>
</g>
<!-- fail_comp2&#45;&gt;mnt_comp2 -->
<g id="edge43" class="edge">
<title>fail_comp2&#45;&gt;mnt_comp2</title>
<path fill="none" stroke="black" stroke-width="1.2" d="M509.57,-334.61C527.19,-324.23 549.54,-311.06 568.49,-299.9"/>
<polygon fill="black" stroke="black" stroke-width="1.2" points="570.36,-302.86 577.2,-294.77 566.81,-296.83 570.36,-302.86"/>
</g>
<!-- fail_comp4&#45;&gt;volt -->
<g id="edge13" class="edge">
<title>fail_comp4&#45;&gt;volt</title>
<path fill="none" stroke="black" stroke-width="1.2" d="M821.86,-280.48C720.5,-229.36 415.72,-95.44 211,-216.62 180.09,-234.92 163.57,-274.69 155.54,-301.82"/>
<polygon fill="black" stroke="black" stroke-width="1.2" points="152.15,-300.95 152.87,-311.52 158.9,-302.81 152.15,-300.95"/>
</g>
<!-- fail_comp4&#45;&gt;err_error3 -->
<g id="edge36" class="edge">
<title>fail_comp4&#45;&gt;err_error3</title>
<path fill="none" stroke="black" stroke-width="1.2" d="M864.1,-316.79C885.17,-379.51 954.94,-587.25 980.51,-663.36"/>
<polygon fill="black" stroke="black" stroke-width="1.2" points="977.31,-664.83 983.81,-673.2 983.94,-662.6 977.31,-664.83"/>
</g>
<!-- fail_comp4&#45;&gt;mnt_comp1 -->
<g id="edge41" class="edge">
<title>fail_comp4&#45;&gt;mnt_comp1</title>
<path fill="none" stroke="black" stroke-width="1.2" d="M903.06,-290.77C912.37,-289.15 922.3,-287.42 932,-285.73"/>
<polygon fill="black" stroke="black" stroke-width="1.2" points="932.74,-289.15 941.99,-283.99 931.54,-282.26 932.74,-289.15"/>
</g>
<!-- fail_comp4&#45;&gt;mnt_comp4 -->
<g id="edge45" class="edge">
<title>fail_comp4&#45;&gt;mnt_comp4</title>
<path fill="none" stroke="black" stroke-width="1.2" d="M871.63,-280.55C895.05,-249.51 943.01,-185.92 970.15,-149.94"/>
<polygon fill="black" stroke="black" stroke-width="1.2" points="973.02,-151.95 976.25,-141.86 967.43,-147.73 973.02,-151.95"/>
</g>
</g>
</svg>
