<?xml version="1.0" encoding="UTF-8" standalone="no"?>
<!DOCTYPE svg PUBLIC "-//W3C//DTD SVG 1.1//EN"
 "http://www.w3.org/Graphics/SVG/1.1/DTD/svg11.dtd">
<!-- Generated by graphviz version 2.50.0 (0)
 -->
<!-- Title: G Pages: 1 -->
<svg width="914pt" height="614pt"
 viewBox="0.00 0.00 914.00 614.00" xmlns="http://www.w3.org/2000/svg" xmlns:xlink="http://www.w3.org/1999/xlink">
<g id="graph0" class="graph" transform="scale(1 1) rotate(0) translate(4 610)">
<title>G</title>
<polygon fill="white" stroke="transparent" points="-4,4 -4,-610 910,-610 910,4 -4,4"/>
<text text-anchor="middle" x="453" y="-589.2" font-family="Times,serif" font-size="16.00">model=model4/cbnb_w_mixed.json [machine 51]</text>
<!-- volt -->
<g id="node1" class="node">
<title>volt</title>
<path fill="white" stroke="black" d="M170,-392C170,-392 140,-392 140,-392 134,-392 128,-386 128,-380 128,-380 128,-368 128,-368 128,-362 134,-356 140,-356 140,-356 170,-356 170,-356 176,-356 182,-362 182,-368 182,-368 182,-380 182,-380 182,-386 176,-392 170,-392"/>
<text text-anchor="middle" x="155" y="-370.3" font-family="Helvetica,sans-Serif" font-size="14.00">volt</text>
</g>
<!-- rotate -->
<g id="node2" class="node">
<title>rotate</title>
<path fill="white" stroke="black" d="M263,-262C263,-262 230,-262 230,-262 224,-262 218,-256 218,-250 218,-250 218,-238 218,-238 218,-232 224,-226 230,-226 230,-226 263,-226 263,-226 269,-226 275,-232 275,-238 275,-238 275,-250 275,-250 275,-256 269,-262 263,-262"/>
<text text-anchor="middle" x="246.5" y="-240.3" font-family="Helvetica,sans-Serif" font-size="14.00">rotate</text>
</g>
<!-- volt&#45;&gt;rotate -->
<g id="edge1" class="edge">
<title>volt&#45;&gt;rotate</title>
<path fill="none" stroke="black" stroke-width="1.2" d="M174.24,-347.51C189.65,-325.12 211.63,-293.2 227.09,-270.74"/>
<polygon fill="black" stroke="black" stroke-width="1.2" points="171.23,-345.7 168.44,-355.92 177,-349.67 171.23,-345.7"/>
<polygon fill="black" stroke="black" stroke-width="1.2" points="230.08,-272.56 232.87,-262.34 224.32,-268.59 230.08,-272.56"/>
</g>
<!-- err_error1 -->
<g id="node5" class="node">
<title>err_error1</title>
<path fill="white" stroke="black" d="M766.5,-522C766.5,-522 705.5,-522 705.5,-522 699.5,-522 693.5,-516 693.5,-510 693.5,-510 693.5,-498 693.5,-498 693.5,-492 699.5,-486 705.5,-486 705.5,-486 766.5,-486 766.5,-486 772.5,-486 778.5,-492 778.5,-498 778.5,-498 778.5,-510 778.5,-510 778.5,-516 772.5,-522 766.5,-522"/>
<text text-anchor="middle" x="736" y="-500.3" font-family="Helvetica,sans-Serif" font-size="14.00">err_error1</text>
</g>
<!-- volt&#45;&gt;err_error1 -->
<g id="edge2" class="edge">
<title>volt&#45;&gt;err_error1</title>
<path fill="none" stroke="black" stroke-width="1.2" d="M166.14,-392.3C191.77,-435.84 263.72,-542 356,-542 356,-542 356,-542 489,-542 561.27,-542 579.93,-541.1 651,-528 661.51,-526.06 672.6,-523.37 683.16,-520.49"/>
<polygon fill="black" stroke="black" stroke-width="1.2" points="684.4,-523.78 693.07,-517.69 682.5,-517.04 684.4,-523.78"/>
</g>
<!-- err_error5 -->
<g id="node9" class="node">
<title>err_error5</title>
<path fill="white" stroke="black" d="M894,-522C894,-522 833,-522 833,-522 827,-522 821,-516 821,-510 821,-510 821,-498 821,-498 821,-492 827,-486 833,-486 833,-486 894,-486 894,-486 900,-486 906,-492 906,-498 906,-498 906,-510 906,-510 906,-516 900,-522 894,-522"/>
<text text-anchor="middle" x="863.5" y="-500.3" font-family="Helvetica,sans-Serif" font-size="14.00">err_error5</text>
</g>
<!-- volt&#45;&gt;err_error5 -->
<g id="edge4" class="edge">
<title>volt&#45;&gt;err_error5</title>
<path fill="none" stroke="black" stroke-width="1.2" d="M163.68,-401.74C172.74,-430.25 190.19,-474.52 218,-504 266.04,-554.94 285.98,-580 356,-580 356,-580 356,-580 613,-580 687.29,-580 768.83,-548.79 817.82,-526.37"/>
<polygon fill="black" stroke="black" stroke-width="1.2" points="166.98,-400.56 160.72,-392.01 160.28,-402.59 166.98,-400.56"/>
<polygon fill="black" stroke="black" stroke-width="1.2" points="819.58,-529.41 827.17,-522.01 816.63,-523.06 819.58,-529.41"/>
</g>
<!-- mnt_comp1 -->
<g id="node10" class="node">
<title>mnt_comp1</title>
<path fill="white" stroke="black" d="M773,-454C773,-454 699,-454 699,-454 693,-454 687,-448 687,-442 687,-442 687,-430 687,-430 687,-424 693,-418 699,-418 699,-418 773,-418 773,-418 779,-418 785,-424 785,-430 785,-430 785,-442 785,-442 785,-448 779,-454 773,-454"/>
<text text-anchor="middle" x="736" y="-432.3" font-family="Helvetica,sans-Serif" font-size="14.00">mnt_comp1</text>
</g>
<!-- volt&#45;&gt;mnt_comp1 -->
<g id="edge5" class="edge">
<title>volt&#45;&gt;mnt_comp1</title>
<path fill="none" stroke="black" stroke-width="1.2" d="M182.21,-374C220.42,-374 293.67,-374 356,-374 356,-374 356,-374 489,-374 556.92,-374 632.29,-396.5 681.47,-414.39"/>
<polygon fill="black" stroke="black" stroke-width="1.2" points="680.36,-417.71 690.95,-417.9 682.79,-411.15 680.36,-417.71"/>
</g>
<!-- pressure -->
<g id="node3" class="node">
<title>pressure</title>
<path fill="white" stroke="black" d="M890,-297C890,-297 837,-297 837,-297 831,-297 825,-291 825,-285 825,-285 825,-273 825,-273 825,-267 831,-261 837,-261 837,-261 890,-261 890,-261 896,-261 902,-267 902,-273 902,-273 902,-285 902,-285 902,-291 896,-297 890,-297"/>
<text text-anchor="middle" x="863.5" y="-275.3" font-family="Helvetica,sans-Serif" font-size="14.00">pressure</text>
</g>
<!-- rotate&#45;&gt;pressure -->
<g id="edge8" class="edge">
<title>rotate&#45;&gt;pressure</title>
<path fill="none" stroke="black" stroke-width="1.2" d="M275.3,-236.67C319.7,-225.63 409.54,-206 487,-206 487,-206 487,-206 613,-206 689.91,-206 713,-197.96 785,-225 802.8,-231.68 820.37,-243.39 834.27,-254.2"/>
<polygon fill="black" stroke="black" stroke-width="1.2" points="832.44,-257.21 842.42,-260.76 836.83,-251.76 832.44,-257.21"/>
</g>
<!-- err_error3 -->
<g id="node7" class="node">
<title>err_error3</title>
<path fill="white" stroke="black" d="M387.5,-64C387.5,-64 326.5,-64 326.5,-64 320.5,-64 314.5,-58 314.5,-52 314.5,-52 314.5,-40 314.5,-40 314.5,-34 320.5,-28 326.5,-28 326.5,-28 387.5,-28 387.5,-28 393.5,-28 399.5,-34 399.5,-40 399.5,-40 399.5,-52 399.5,-52 399.5,-58 393.5,-64 387.5,-64"/>
<text text-anchor="middle" x="357" y="-42.3" font-family="Helvetica,sans-Serif" font-size="14.00">err_error3</text>
</g>
<!-- rotate&#45;&gt;err_error3 -->
<g id="edge12" class="edge">
<title>rotate&#45;&gt;err_error3</title>
<path fill="none" stroke="black" stroke-width="1.2" d="M260.04,-216.55C272.27,-190.32 291.79,-149.87 311,-116 319.34,-101.3 329.46,-85.41 337.98,-72.5"/>
<polygon fill="black" stroke="black" stroke-width="1.2" points="256.75,-215.32 255.72,-225.87 263.1,-218.26 256.75,-215.32"/>
<polygon fill="black" stroke="black" stroke-width="1.2" points="340.96,-74.34 343.59,-64.08 335.13,-70.46 340.96,-74.34"/>
</g>
<!-- err_error4 -->
<g id="node8" class="node">
<title>err_error4</title>
<path fill="white" stroke="black" d="M766.5,-163C766.5,-163 705.5,-163 705.5,-163 699.5,-163 693.5,-157 693.5,-151 693.5,-151 693.5,-139 693.5,-139 693.5,-133 699.5,-127 705.5,-127 705.5,-127 766.5,-127 766.5,-127 772.5,-127 778.5,-133 778.5,-139 778.5,-139 778.5,-151 778.5,-151 778.5,-157 772.5,-163 766.5,-163"/>
<text text-anchor="middle" x="736" y="-141.3" font-family="Helvetica,sans-Serif" font-size="14.00">err_error4</text>
</g>
<!-- rotate&#45;&gt;err_error4 -->
<g id="edge13" class="edge">
<title>rotate&#45;&gt;err_error4</title>
<path fill="none" stroke="black" stroke-width="1.2" d="M263.98,-225.9C275.84,-214.14 292.88,-199.63 311,-192 376.95,-164.25 584.87,-151.62 682.89,-147.09"/>
<polygon fill="black" stroke="black" stroke-width="1.2" points="683.33,-150.57 693.16,-146.62 683.01,-143.58 683.33,-150.57"/>
</g>
<!-- fail_comp2 -->
<g id="node15" class="node">
<title>fail_comp2</title>
<path fill="white" stroke="black" d="M391,-438C391,-438 323,-438 323,-438 317,-438 311,-432 311,-426 311,-426 311,-414 311,-414 311,-408 317,-402 323,-402 323,-402 391,-402 391,-402 397,-402 403,-408 403,-414 403,-414 403,-426 403,-426 403,-432 397,-438 391,-438"/>
<text text-anchor="middle" x="357" y="-416.3" font-family="Helvetica,sans-Serif" font-size="14.00">fail_comp2</text>
</g>
<!-- rotate&#45;&gt;fail_comp2 -->
<g id="edge14" class="edge">
<title>rotate&#45;&gt;fail_comp2</title>
<path fill="none" stroke="black" stroke-width="1.2" d="M258.11,-262.11C270.59,-283.3 291.99,-319.38 311,-350 319.98,-364.46 330.22,-380.44 338.67,-393.47"/>
<polygon fill="black" stroke="black" stroke-width="1.2" points="335.8,-395.49 344.19,-401.97 341.67,-391.68 335.8,-395.49"/>
</g>
<!-- vibration -->
<g id="node4" class="node">
<title>vibration</title>
<path fill="white" stroke="black" d="M639,-346C639,-346 585,-346 585,-346 579,-346 573,-340 573,-334 573,-334 573,-322 573,-322 573,-316 579,-310 585,-310 585,-310 639,-310 639,-310 645,-310 651,-316 651,-322 651,-322 651,-334 651,-334 651,-340 645,-346 639,-346"/>
<text text-anchor="middle" x="612" y="-324.3" font-family="Helvetica,sans-Serif" font-size="14.00">vibration</text>
</g>
<!-- vibration&#45;&gt;rotate -->
<g id="edge9" class="edge">
<title>vibration&#45;&gt;rotate</title>
<path fill="none" stroke="black" stroke-width="1.2" d="M572.97,-328.81C537.82,-328.81 484.32,-326.85 439,-317 383.23,-304.88 322.16,-279.29 284.34,-261.86"/>
<polygon fill="black" stroke="black" stroke-width="1.2" points="285.78,-258.68 275.24,-257.62 282.82,-265.02 285.78,-258.68"/>
</g>
<!-- vibration&#45;&gt;pressure -->
<g id="edge16" class="edge">
<title>vibration&#45;&gt;pressure</title>
<path fill="none" stroke="black" stroke-width="1.2" d="M651.22,-336.14C686.74,-342.08 740.68,-346.92 785,-333 803.7,-327.13 821.84,-314.96 835.86,-303.67"/>
<polygon fill="black" stroke="black" stroke-width="1.2" points="838.19,-306.28 843.61,-297.17 833.7,-300.91 838.19,-306.28"/>
</g>
<!-- vibration&#45;&gt;err_error1 -->
<g id="edge19" class="edge">
<title>vibration&#45;&gt;err_error1</title>
<path fill="none" stroke="black" stroke-width="1.2" d="M620.47,-346.31C632.13,-373.52 656.48,-425.46 687,-463 691.66,-468.73 697.19,-474.28 702.81,-479.36"/>
<polygon fill="black" stroke="black" stroke-width="1.2" points="700.6,-482.07 710.46,-485.95 705.17,-476.77 700.6,-482.07"/>
</g>
<!-- vibration&#45;&gt;err_error4 -->
<g id="edge20" class="edge">
<title>vibration&#45;&gt;err_error4</title>
<path fill="none" stroke="black" stroke-width="1.2" d="M625.14,-309.78C646.79,-277.31 692.14,-209.3 717.27,-171.59"/>
<polygon fill="black" stroke="black" stroke-width="1.2" points="720.27,-173.4 722.91,-163.14 714.45,-169.52 720.27,-173.4"/>
</g>
<!-- vibration&#45;&gt;err_error5 -->
<g id="edge21" class="edge">
<title>vibration&#45;&gt;err_error5</title>
<path fill="none" stroke="black" stroke-width="1.2" d="M660.67,-343.85C697.09,-357.45 747.28,-379.52 785,-409 809.65,-428.27 831.55,-456.73 845.72,-477.48"/>
<polygon fill="black" stroke="black" stroke-width="1.2" points="661.85,-340.55 651.25,-340.41 659.44,-347.13 661.85,-340.55"/>
<polygon fill="black" stroke="black" stroke-width="1.2" points="842.85,-479.47 851.31,-485.85 848.67,-475.59 842.85,-479.47"/>
</g>
<!-- vibration&#45;&gt;mnt_comp1 -->
<g id="edge22" class="edge">
<title>vibration&#45;&gt;mnt_comp1</title>
<path fill="none" stroke="black" stroke-width="1.2" d="M636.12,-346.29C641.18,-350.62 646.4,-355.33 651,-360 668.74,-377.99 668.28,-387.03 687,-404 689.96,-406.69 693.17,-409.31 696.47,-411.83"/>
<polygon fill="black" stroke="black" stroke-width="1.2" points="694.63,-414.82 704.79,-417.85 698.74,-409.15 694.63,-414.82"/>
</g>
<!-- mnt_comp3 -->
<g id="node12" class="node">
<title>mnt_comp3</title>
<path fill="white" stroke="black" d="M773,-324C773,-324 699,-324 699,-324 693,-324 687,-318 687,-312 687,-312 687,-300 687,-300 687,-294 693,-288 699,-288 699,-288 773,-288 773,-288 779,-288 785,-294 785,-300 785,-300 785,-312 785,-312 785,-318 779,-324 773,-324"/>
<text text-anchor="middle" x="736" y="-302.3" font-family="Helvetica,sans-Serif" font-size="14.00">mnt_comp3</text>
</g>
<!-- vibration&#45;&gt;mnt_comp3 -->
<g id="edge23" class="edge">
<title>vibration&#45;&gt;mnt_comp3</title>
<path fill="none" stroke="black" stroke-width="1.2" d="M651.27,-321.1C659.4,-319.63 668.17,-318.05 676.86,-316.48"/>
<polygon fill="black" stroke="black" stroke-width="1.2" points="677.76,-319.88 686.98,-314.66 676.52,-312.99 677.76,-319.88"/>
</g>
<!-- fail_comp4 -->
<g id="node16" class="node">
<title>fail_comp4</title>
<path fill="white" stroke="black" d="M770,-270C770,-270 702,-270 702,-270 696,-270 690,-264 690,-258 690,-258 690,-246 690,-246 690,-240 696,-234 702,-234 702,-234 770,-234 770,-234 776,-234 782,-240 782,-246 782,-246 782,-258 782,-258 782,-264 776,-270 770,-270"/>
<text text-anchor="middle" x="736" y="-248.3" font-family="Helvetica,sans-Serif" font-size="14.00">fail_comp4</text>
</g>
<!-- vibration&#45;&gt;fail_comp4 -->
<g id="edge25" class="edge">
<title>vibration&#45;&gt;fail_comp4</title>
<path fill="none" stroke="black" stroke-width="1.2" d="M647.98,-304.09C660.2,-295.93 674.09,-286.89 687,-279 688.96,-277.8 690.97,-276.6 693,-275.39"/>
<polygon fill="black" stroke="black" stroke-width="1.2" points="645.77,-301.36 639.42,-309.84 649.67,-307.17 645.77,-301.36"/>
<polygon fill="black" stroke="black" stroke-width="1.2" points="695.15,-278.19 702.02,-270.13 691.62,-272.14 695.15,-278.19"/>
</g>
<!-- err_error1&#45;&gt;rotate -->
<g id="edge10" class="edge">
<title>err_error1&#45;&gt;rotate</title>
<path fill="none" stroke="black" stroke-width="1.2" d="M693.46,-512.85C608.64,-528.26 414.82,-549.31 311,-447 262.75,-399.45 251.04,-315.8 248.28,-272.21"/>
<polygon fill="black" stroke="black" stroke-width="1.2" points="251.77,-271.84 247.76,-262.04 244.78,-272.21 251.77,-271.84"/>
</g>
<!-- err_error1&#45;&gt;err_error5 -->
<g id="edge26" class="edge">
<title>err_error1&#45;&gt;err_error5</title>
<path fill="none" stroke="black" stroke-width="1.2" d="M778.79,-504C789.06,-504 800.17,-504 810.84,-504"/>
<polygon fill="black" stroke="black" stroke-width="1.2" points="810.89,-507.5 820.89,-504 810.89,-500.5 810.89,-507.5"/>
</g>
<!-- err_error2 -->
<g id="node6" class="node">
<title>err_error2</title>
<path fill="white" stroke="black" d="M518.5,-133C518.5,-133 457.5,-133 457.5,-133 451.5,-133 445.5,-127 445.5,-121 445.5,-121 445.5,-109 445.5,-109 445.5,-103 451.5,-97 457.5,-97 457.5,-97 518.5,-97 518.5,-97 524.5,-97 530.5,-103 530.5,-109 530.5,-109 530.5,-121 530.5,-121 530.5,-127 524.5,-133 518.5,-133"/>
<text text-anchor="middle" x="488" y="-111.3" font-family="Helvetica,sans-Serif" font-size="14.00">err_error2</text>
</g>
<!-- err_error2&#45;&gt;volt -->
<g id="edge3" class="edge">
<title>err_error2&#45;&gt;volt</title>
<path fill="none" stroke="black" stroke-width="1.2" d="M445.22,-106.52C408.27,-101.07 353.76,-98.09 311,-117 217.25,-158.48 176.05,-288.01 162,-345.74"/>
<polygon fill="black" stroke="black" stroke-width="1.2" points="158.55,-345.11 159.68,-355.65 165.37,-346.71 158.55,-345.11"/>
</g>
<!-- err_error2&#45;&gt;rotate -->
<g id="edge11" class="edge">
<title>err_error2&#45;&gt;rotate</title>
<path fill="none" stroke="black" stroke-width="1.2" d="M445.29,-115.87C407.39,-118.5 351.38,-127.12 311,-154 287.91,-169.37 270.6,-196.21 259.94,-216.59"/>
<polygon fill="black" stroke="black" stroke-width="1.2" points="256.71,-215.21 255.37,-225.72 262.97,-218.34 256.71,-215.21"/>
</g>
<!-- err_error2&#45;&gt;err_error4 -->
<g id="edge28" class="edge">
<title>err_error2&#45;&gt;err_error4</title>
<path fill="none" stroke="black" stroke-width="1.2" d="M540.68,-121.3C582.65,-126.42 641.54,-133.6 683.47,-138.72"/>
<polygon fill="black" stroke="black" stroke-width="1.2" points="541.08,-117.83 530.73,-120.09 540.23,-124.77 541.08,-117.83"/>
<polygon fill="black" stroke="black" stroke-width="1.2" points="683.13,-142.2 693.48,-139.94 683.97,-135.25 683.13,-142.2"/>
</g>
<!-- err_error3&#45;&gt;err_error2 -->
<g id="edge27" class="edge">
<title>err_error3&#45;&gt;err_error2</title>
<path fill="none" stroke="black" stroke-width="1.2" d="M391.89,-64.13C407.89,-72.69 427.16,-82.99 444.16,-92.08"/>
<polygon fill="black" stroke="black" stroke-width="1.2" points="442.86,-95.36 453.33,-96.99 446.17,-89.19 442.86,-95.36"/>
</g>
<!-- err_error3&#45;&gt;err_error4 -->
<g id="edge29" class="edge">
<title>err_error3&#45;&gt;err_error4</title>
<path fill="none" stroke="black" stroke-width="1.2" d="M399.74,-55.17C436.11,-63.32 490.21,-75.78 537,-88 587.09,-101.08 643.83,-117.59 683.69,-129.47"/>
<polygon fill="black" stroke="black" stroke-width="1.2" points="682.86,-132.87 693.45,-132.38 684.87,-126.17 682.86,-132.87"/>
</g>
<!-- mnt_comp1&#45;&gt;pressure -->
<g id="edge17" class="edge">
<title>mnt_comp1&#45;&gt;pressure</title>
<path fill="none" stroke="black" stroke-width="1.2" d="M751.4,-417.99C773.5,-390.34 815.92,-337.28 841.47,-305.31"/>
<polygon fill="black" stroke="black" stroke-width="1.2" points="844.37,-307.28 847.88,-297.28 838.91,-302.91 844.37,-307.28"/>
</g>
<!-- mnt_comp2 -->
<g id="node11" class="node">
<title>mnt_comp2</title>
<path fill="white" stroke="black" d="M525,-476C525,-476 451,-476 451,-476 445,-476 439,-470 439,-464 439,-464 439,-452 439,-452 439,-446 445,-440 451,-440 451,-440 525,-440 525,-440 531,-440 537,-446 537,-452 537,-452 537,-464 537,-464 537,-470 531,-476 525,-476"/>
<text text-anchor="middle" x="488" y="-454.3" font-family="Helvetica,sans-Serif" font-size="14.00">mnt_comp2</text>
</g>
<!-- mnt_comp4 -->
<g id="node13" class="node">
<title>mnt_comp4</title>
<path fill="white" stroke="black" d="M525,-308C525,-308 451,-308 451,-308 445,-308 439,-302 439,-296 439,-296 439,-284 439,-284 439,-278 445,-272 451,-272 451,-272 525,-272 525,-272 531,-272 537,-278 537,-284 537,-284 537,-296 537,-296 537,-302 531,-308 525,-308"/>
<text text-anchor="middle" x="488" y="-286.3" font-family="Helvetica,sans-Serif" font-size="14.00">mnt_comp4</text>
</g>
<!-- mnt_comp4&#45;&gt;vibration -->
<g id="edge24" class="edge">
<title>mnt_comp4&#45;&gt;vibration</title>
<path fill="none" stroke="black" stroke-width="1.2" d="M537.22,-305.02C545.74,-307.67 554.61,-310.44 563.12,-313.09"/>
<polygon fill="black" stroke="black" stroke-width="1.2" points="562.32,-316.5 572.91,-316.13 564.4,-309.82 562.32,-316.5"/>
</g>
<!-- fail_comp1 -->
<g id="node14" class="node">
<title>fail_comp1</title>
<path fill="white" stroke="black" d="M80,-205C80,-205 12,-205 12,-205 6,-205 0,-199 0,-193 0,-193 0,-181 0,-181 0,-175 6,-169 12,-169 12,-169 80,-169 80,-169 86,-169 92,-175 92,-181 92,-181 92,-193 92,-193 92,-199 86,-205 80,-205"/>
<text text-anchor="middle" x="46" y="-183.3" font-family="Helvetica,sans-Serif" font-size="14.00">fail_comp1</text>
</g>
<!-- fail_comp1&#45;&gt;volt -->
<g id="edge6" class="edge">
<title>fail_comp1&#45;&gt;volt</title>
<path fill="none" stroke="black" stroke-width="1.2" d="M57.45,-205.27C76.36,-238.31 116.32,-308.15 138.44,-346.81"/>
<polygon fill="black" stroke="black" stroke-width="1.2" points="135.66,-348.99 143.66,-355.93 141.73,-345.51 135.66,-348.99"/>
</g>
<!-- fail_comp1&#45;&gt;pressure -->
<g id="edge18" class="edge">
<title>fail_comp1&#45;&gt;pressure</title>
<path fill="none" stroke="black" stroke-width="1.2" d="M55.43,-168.73C78.53,-121.68 147.73,0 245.5,0 245.5,0 245.5,0 613,0 746.78,0 826.75,-180.44 852.94,-251.1"/>
<polygon fill="black" stroke="black" stroke-width="1.2" points="849.71,-252.48 856.41,-260.69 856.3,-250.1 849.71,-252.48"/>
</g>
<!-- fail_comp2&#45;&gt;volt -->
<g id="edge7" class="edge">
<title>fail_comp2&#45;&gt;volt</title>
<path fill="none" stroke="black" stroke-width="1.2" d="M310.73,-409.59C274.77,-401.32 225.17,-389.91 191.91,-382.26"/>
<polygon fill="black" stroke="black" stroke-width="1.2" points="192.68,-378.84 182.15,-380.01 191.11,-385.67 192.68,-378.84"/>
</g>
<!-- fail_comp2&#45;&gt;mnt_comp1 -->
<g id="edge30" class="edge">
<title>fail_comp2&#45;&gt;mnt_comp1</title>
<path fill="none" stroke="black" stroke-width="1.2" d="M403.1,-421.91C471.42,-424.81 601.16,-430.32 676.6,-433.52"/>
<polygon fill="black" stroke="black" stroke-width="1.2" points="676.74,-437.03 686.88,-433.96 677.03,-430.04 676.74,-437.03"/>
</g>
<!-- fail_comp2&#45;&gt;mnt_comp2 -->
<g id="edge31" class="edge">
<title>fail_comp2&#45;&gt;mnt_comp2</title>
<path fill="none" stroke="black" stroke-width="1.2" d="M403.12,-433.29C411.46,-435.75 420.28,-438.34 428.94,-440.9"/>
<polygon fill="black" stroke="black" stroke-width="1.2" points="428.03,-444.28 438.62,-443.75 430.01,-437.56 428.03,-444.28"/>
</g>
<!-- fail_comp2&#45;&gt;mnt_comp4 -->
<g id="edge32" class="edge">
<title>fail_comp2&#45;&gt;mnt_comp4</title>
<path fill="none" stroke="black" stroke-width="1.2" d="M375.94,-401.92C398.24,-379.45 436.46,-340.94 461.72,-315.47"/>
<polygon fill="black" stroke="black" stroke-width="1.2" points="464.24,-317.91 468.8,-308.34 459.27,-312.97 464.24,-317.91"/>
</g>
<!-- fail_comp4&#45;&gt;rotate -->
<g id="edge15" class="edge">
<title>fail_comp4&#45;&gt;rotate</title>
<path fill="none" stroke="black" stroke-width="1.2" d="M689.8,-251.26C594.34,-249.69 373.72,-246.07 285.23,-244.62"/>
<polygon fill="black" stroke="black" stroke-width="1.2" points="285.16,-241.12 275.11,-244.45 285.05,-248.12 285.16,-241.12"/>
</g>
<!-- fail_comp4&#45;&gt;mnt_comp4 -->
<g id="edge33" class="edge">
<title>fail_comp4&#45;&gt;mnt_comp4</title>
<path fill="none" stroke="black" stroke-width="1.2" d="M689.6,-259.01C649.39,-265.22 590.49,-274.32 546.91,-281.06"/>
<polygon fill="black" stroke="black" stroke-width="1.2" points="546.36,-277.6 537.02,-282.58 547.43,-284.52 546.36,-277.6"/>
</g>
</g>
</svg>
