<?xml version="1.0" encoding="UTF-8" standalone="no"?>
<!DOCTYPE svg PUBLIC "-//W3C//DTD SVG 1.1//EN"
 "http://www.w3.org/Graphics/SVG/1.1/DTD/svg11.dtd">
<!-- Generated by graphviz version 2.50.0 (0)
 -->
<!-- Title: G Pages: 1 -->
<svg width="1006pt" height="712pt"
 viewBox="0.00 0.00 1006.00 712.26" xmlns="http://www.w3.org/2000/svg" xmlns:xlink="http://www.w3.org/1999/xlink">
<g id="graph0" class="graph" transform="scale(1 1) rotate(0) translate(4 708.26)">
<title>G</title>
<polygon fill="white" stroke="transparent" points="-4,4 -4,-708.26 1002,-708.26 1002,4 -4,4"/>
<text text-anchor="middle" x="499" y="-687.46" font-family="Times,serif" font-size="16.00">model=model3/cbnb_w_mixed.json [machine 82]</text>
<!-- volt -->
<g id="node1" class="node">
<title>volt</title>
<path fill="white" stroke="black" d="M61,-357C61,-357 31,-357 31,-357 25,-357 19,-351 19,-345 19,-345 19,-333 19,-333 19,-327 25,-321 31,-321 31,-321 61,-321 61,-321 67,-321 73,-327 73,-333 73,-333 73,-345 73,-345 73,-351 67,-357 61,-357"/>
<text text-anchor="middle" x="46" y="-335.3" font-family="Helvetica,sans-Serif" font-size="14.00">volt</text>
</g>
<!-- rotate -->
<g id="node2" class="node">
<title>rotate</title>
<path fill="white" stroke="black" d="M190.5,-540C190.5,-540 157.5,-540 157.5,-540 151.5,-540 145.5,-534 145.5,-528 145.5,-528 145.5,-516 145.5,-516 145.5,-510 151.5,-504 157.5,-504 157.5,-504 190.5,-504 190.5,-504 196.5,-504 202.5,-510 202.5,-516 202.5,-516 202.5,-528 202.5,-528 202.5,-534 196.5,-540 190.5,-540"/>
<text text-anchor="middle" x="174" y="-518.3" font-family="Helvetica,sans-Serif" font-size="14.00">rotate</text>
</g>
<!-- volt&#45;&gt;rotate -->
<g id="edge1" class="edge">
<title>volt&#45;&gt;rotate</title>
<path fill="none" stroke="black" stroke-width="1.2" d="M57.46,-367.07C70.44,-399.3 94.98,-452.55 128,-490 130.78,-493.16 133.93,-496.17 137.24,-499"/>
<polygon fill="black" stroke="black" stroke-width="1.2" points="60.57,-365.41 53.65,-357.39 54.05,-367.97 60.57,-365.41"/>
<polygon fill="black" stroke="black" stroke-width="1.2" points="135.14,-501.8 145.16,-505.24 139.47,-496.3 135.14,-501.8"/>
</g>
<!-- err_error1 -->
<g id="node5" class="node">
<title>err_error1</title>
<path fill="white" stroke="black" d="M335.5,-330C335.5,-330 274.5,-330 274.5,-330 268.5,-330 262.5,-324 262.5,-318 262.5,-318 262.5,-306 262.5,-306 262.5,-300 268.5,-294 274.5,-294 274.5,-294 335.5,-294 335.5,-294 341.5,-294 347.5,-300 347.5,-306 347.5,-306 347.5,-318 347.5,-318 347.5,-324 341.5,-330 335.5,-330"/>
<text text-anchor="middle" x="305" y="-308.3" font-family="Helvetica,sans-Serif" font-size="14.00">err_error1</text>
</g>
<!-- volt&#45;&gt;err_error1 -->
<g id="edge4" class="edge">
<title>volt&#45;&gt;err_error1</title>
<path fill="none" stroke="black" stroke-width="1.2" d="M83.11,-335.21C127.19,-330.58 202.02,-322.71 252.22,-317.44"/>
<polygon fill="black" stroke="black" stroke-width="1.2" points="82.64,-331.74 73.06,-336.26 83.37,-338.7 82.64,-331.74"/>
<polygon fill="black" stroke="black" stroke-width="1.2" points="252.65,-320.91 262.22,-316.39 251.91,-313.95 252.65,-320.91"/>
</g>
<!-- err_error2 -->
<g id="node6" class="node">
<title>err_error2</title>
<path fill="white" stroke="black" d="M335.5,-422C335.5,-422 274.5,-422 274.5,-422 268.5,-422 262.5,-416 262.5,-410 262.5,-410 262.5,-398 262.5,-398 262.5,-392 268.5,-386 274.5,-386 274.5,-386 335.5,-386 335.5,-386 341.5,-386 347.5,-392 347.5,-398 347.5,-398 347.5,-410 347.5,-410 347.5,-416 341.5,-422 335.5,-422"/>
<text text-anchor="middle" x="305" y="-400.3" font-family="Helvetica,sans-Serif" font-size="14.00">err_error2</text>
</g>
<!-- volt&#45;&gt;err_error2 -->
<g id="edge5" class="edge">
<title>volt&#45;&gt;err_error2</title>
<path fill="none" stroke="black" stroke-width="1.2" d="M73.14,-351.26C88.77,-358.19 109.19,-366.52 128,-372 168.98,-383.93 216.68,-392.28 252.08,-397.45"/>
<polygon fill="black" stroke="black" stroke-width="1.2" points="251.79,-400.94 262.19,-398.88 252.78,-394.01 251.79,-400.94"/>
</g>
<!-- mnt_comp2 -->
<g id="node11" class="node">
<title>mnt_comp2</title>
<path fill="white" stroke="black" d="M342,-200C342,-200 268,-200 268,-200 262,-200 256,-194 256,-188 256,-188 256,-176 256,-176 256,-170 262,-164 268,-164 268,-164 342,-164 342,-164 348,-164 354,-170 354,-176 354,-176 354,-188 354,-188 354,-194 348,-200 342,-200"/>
<text text-anchor="middle" x="305" y="-178.3" font-family="Helvetica,sans-Serif" font-size="14.00">mnt_comp2</text>
</g>
<!-- volt&#45;&gt;mnt_comp2 -->
<g id="edge8" class="edge">
<title>volt&#45;&gt;mnt_comp2</title>
<path fill="none" stroke="black" stroke-width="1.2" d="M57.26,-311.12C69.48,-282.04 92.77,-237.48 128,-214 162.61,-190.94 209.17,-183.25 245.7,-181.16"/>
<polygon fill="black" stroke="black" stroke-width="1.2" points="53.89,-310.12 53.4,-320.71 60.38,-312.74 53.89,-310.12"/>
<polygon fill="black" stroke="black" stroke-width="1.2" points="245.89,-184.65 255.73,-180.71 245.58,-177.66 245.89,-184.65"/>
</g>
<!-- fail_comp1 -->
<g id="node14" class="node">
<title>fail_comp1</title>
<path fill="white" stroke="black" d="M208,-132C208,-132 140,-132 140,-132 134,-132 128,-126 128,-120 128,-120 128,-108 128,-108 128,-102 134,-96 140,-96 140,-96 208,-96 208,-96 214,-96 220,-102 220,-108 220,-108 220,-120 220,-120 220,-126 214,-132 208,-132"/>
<text text-anchor="middle" x="174" y="-110.3" font-family="Helvetica,sans-Serif" font-size="14.00">fail_comp1</text>
</g>
<!-- volt&#45;&gt;fail_comp1 -->
<g id="edge10" class="edge">
<title>volt&#45;&gt;fail_comp1</title>
<path fill="none" stroke="black" stroke-width="1.2" d="M58.22,-311.54C72.52,-277.67 98.91,-218.84 128,-172 134.76,-161.11 143.15,-149.83 150.85,-140.14"/>
<polygon fill="black" stroke="black" stroke-width="1.2" points="54.97,-310.23 54.34,-320.8 61.43,-312.93 54.97,-310.23"/>
<polygon fill="black" stroke="black" stroke-width="1.2" points="153.8,-142.06 157.38,-132.09 148.36,-137.66 153.8,-142.06"/>
</g>
<!-- rotate&#45;&gt;err_error2 -->
<g id="edge11" class="edge">
<title>rotate&#45;&gt;err_error2</title>
<path fill="none" stroke="black" stroke-width="1.2" d="M190.05,-503.73C205.56,-485.48 230.94,-457.18 256,-436 259.23,-433.27 262.69,-430.58 266.23,-427.97"/>
<polygon fill="black" stroke="black" stroke-width="1.2" points="268.4,-430.73 274.55,-422.1 264.36,-425.01 268.4,-430.73"/>
</g>
<!-- err_error4 -->
<g id="node8" class="node">
<title>err_error4</title>
<path fill="white" stroke="black" d="M463,-422C463,-422 402,-422 402,-422 396,-422 390,-416 390,-410 390,-410 390,-398 390,-398 390,-392 396,-386 402,-386 402,-386 463,-386 463,-386 469,-386 475,-392 475,-398 475,-398 475,-410 475,-410 475,-416 469,-422 463,-422"/>
<text text-anchor="middle" x="432.5" y="-400.3" font-family="Helvetica,sans-Serif" font-size="14.00">err_error4</text>
</g>
<!-- rotate&#45;&gt;err_error4 -->
<g id="edge12" class="edge">
<title>rotate&#45;&gt;err_error4</title>
<path fill="none" stroke="black" stroke-width="1.2" d="M202.94,-509.15C246.18,-489.26 329.86,-450.76 383.08,-426.27"/>
<polygon fill="black" stroke="black" stroke-width="1.2" points="384.7,-429.38 392.32,-422.02 381.78,-423.02 384.7,-429.38"/>
</g>
<!-- mnt_comp3 -->
<g id="node12" class="node">
<title>mnt_comp3</title>
<path fill="white" stroke="black" d="M852,-276C852,-276 778,-276 778,-276 772,-276 766,-270 766,-264 766,-264 766,-252 766,-252 766,-246 772,-240 778,-240 778,-240 852,-240 852,-240 858,-240 864,-246 864,-252 864,-252 864,-264 864,-264 864,-270 858,-276 852,-276"/>
<text text-anchor="middle" x="815" y="-254.3" font-family="Helvetica,sans-Serif" font-size="14.00">mnt_comp3</text>
</g>
<!-- rotate&#45;&gt;mnt_comp3 -->
<g id="edge14" class="edge">
<title>rotate&#45;&gt;mnt_comp3</title>
<path fill="none" stroke="black" stroke-width="1.2" d="M202.75,-532.1C218.23,-537.35 237.96,-543.39 256,-547 463.17,-588.44 562.96,-712.36 730,-583 777.44,-546.26 802.91,-358.33 811.06,-286.22"/>
<polygon fill="black" stroke="black" stroke-width="1.2" points="814.56,-286.39 812.18,-276.07 807.61,-285.62 814.56,-286.39"/>
</g>
<!-- mnt_comp4 -->
<g id="node13" class="node">
<title>mnt_comp4</title>
<path fill="white" stroke="black" d="M718,-215C718,-215 644,-215 644,-215 638,-215 632,-209 632,-203 632,-203 632,-191 632,-191 632,-185 638,-179 644,-179 644,-179 718,-179 718,-179 724,-179 730,-185 730,-191 730,-191 730,-203 730,-203 730,-209 724,-215 718,-215"/>
<text text-anchor="middle" x="681" y="-193.3" font-family="Helvetica,sans-Serif" font-size="14.00">mnt_comp4</text>
</g>
<!-- rotate&#45;&gt;mnt_comp4 -->
<g id="edge15" class="edge">
<title>rotate&#45;&gt;mnt_comp4</title>
<path fill="none" stroke="black" stroke-width="1.2" d="M184.23,-494.41C205.04,-432.3 253.95,-286.81 256,-285 359.26,-193.87 531.85,-188.1 621.67,-192.19"/>
<polygon fill="black" stroke="black" stroke-width="1.2" points="180.89,-493.37 181.03,-503.96 187.53,-495.59 180.89,-493.37"/>
<polygon fill="black" stroke="black" stroke-width="1.2" points="621.52,-195.69 631.68,-192.7 621.87,-188.7 621.52,-195.69"/>
</g>
<!-- pressure -->
<g id="node3" class="node">
<title>pressure</title>
<path fill="white" stroke="black" d="M459,-330C459,-330 406,-330 406,-330 400,-330 394,-324 394,-318 394,-318 394,-306 394,-306 394,-300 400,-294 406,-294 406,-294 459,-294 459,-294 465,-294 471,-300 471,-306 471,-306 471,-318 471,-318 471,-324 465,-330 459,-330"/>
<text text-anchor="middle" x="432.5" y="-308.3" font-family="Helvetica,sans-Serif" font-size="14.00">pressure</text>
</g>
<!-- pressure&#45;&gt;volt -->
<g id="edge2" class="edge">
<title>pressure&#45;&gt;volt</title>
<path fill="none" stroke="black" stroke-width="1.2" d="M393.93,-327.93C381.46,-332.44 367.35,-336.74 354,-339 257.28,-355.37 140.96,-348.2 83.2,-342.88"/>
<polygon fill="black" stroke="black" stroke-width="1.2" points="83.41,-339.38 73.12,-341.91 82.74,-346.35 83.41,-339.38"/>
</g>
<!-- vibration -->
<g id="node4" class="node">
<title>vibration</title>
<path fill="white" stroke="black" d="M580.5,-284C580.5,-284 526.5,-284 526.5,-284 520.5,-284 514.5,-278 514.5,-272 514.5,-272 514.5,-260 514.5,-260 514.5,-254 520.5,-248 526.5,-248 526.5,-248 580.5,-248 580.5,-248 586.5,-248 592.5,-254 592.5,-260 592.5,-260 592.5,-272 592.5,-272 592.5,-278 586.5,-284 580.5,-284"/>
<text text-anchor="middle" x="553.5" y="-262.3" font-family="Helvetica,sans-Serif" font-size="14.00">vibration</text>
</g>
<!-- pressure&#45;&gt;vibration -->
<g id="edge17" class="edge">
<title>pressure&#45;&gt;vibration</title>
<path fill="none" stroke="black" stroke-width="1.2" d="M480.74,-293.74C488.65,-290.68 496.87,-287.51 504.79,-284.44"/>
<polygon fill="black" stroke="black" stroke-width="1.2" points="479.22,-290.58 471.15,-297.45 481.74,-297.1 479.22,-290.58"/>
<polygon fill="black" stroke="black" stroke-width="1.2" points="506.21,-287.65 514.27,-280.78 503.69,-281.12 506.21,-287.65"/>
</g>
<!-- err_error3 -->
<g id="node7" class="node">
<title>err_error3</title>
<path fill="white" stroke="black" d="M584,-422C584,-422 523,-422 523,-422 517,-422 511,-416 511,-410 511,-410 511,-398 511,-398 511,-392 517,-386 523,-386 523,-386 584,-386 584,-386 590,-386 596,-392 596,-398 596,-398 596,-410 596,-410 596,-416 590,-422 584,-422"/>
<text text-anchor="middle" x="553.5" y="-400.3" font-family="Helvetica,sans-Serif" font-size="14.00">err_error3</text>
</g>
<!-- pressure&#45;&gt;err_error3 -->
<g id="edge20" class="edge">
<title>pressure&#45;&gt;err_error3</title>
<path fill="none" stroke="black" stroke-width="1.2" d="M457.21,-330.27C463.03,-334.76 469.24,-339.55 475,-344 490.2,-355.74 507.05,-368.79 521.16,-379.71"/>
<polygon fill="black" stroke="black" stroke-width="1.2" points="519.06,-382.51 529.11,-385.87 523.35,-376.98 519.06,-382.51"/>
</g>
<!-- vibration&#45;&gt;volt -->
<g id="edge3" class="edge">
<title>vibration&#45;&gt;volt</title>
<path fill="none" stroke="black" stroke-width="1.2" d="M514.36,-265.25C481.4,-264.89 432.5,-265.05 390,-268 271.82,-276.2 242.63,-287.11 128,-317 113.25,-320.85 97.03,-325.22 83,-329.05"/>
<polygon fill="black" stroke="black" stroke-width="1.2" points="81.95,-325.71 73.23,-331.73 83.8,-332.46 81.95,-325.71"/>
</g>
<!-- err_error5 -->
<g id="node9" class="node">
<title>err_error5</title>
<path fill="white" stroke="black" d="M711.5,-574C711.5,-574 650.5,-574 650.5,-574 644.5,-574 638.5,-568 638.5,-562 638.5,-562 638.5,-550 638.5,-550 638.5,-544 644.5,-538 650.5,-538 650.5,-538 711.5,-538 711.5,-538 717.5,-538 723.5,-544 723.5,-550 723.5,-550 723.5,-562 723.5,-562 723.5,-568 717.5,-574 711.5,-574"/>
<text text-anchor="middle" x="681" y="-552.3" font-family="Helvetica,sans-Serif" font-size="14.00">err_error5</text>
</g>
<!-- vibration&#45;&gt;err_error5 -->
<g id="edge25" class="edge">
<title>vibration&#45;&gt;err_error5</title>
<path fill="none" stroke="black" stroke-width="1.2" d="M566.41,-293.53C590.35,-348.85 644.05,-472.93 668.03,-528.35"/>
<polygon fill="black" stroke="black" stroke-width="1.2" points="569.53,-291.93 562.35,-284.14 563.11,-294.71 569.53,-291.93"/>
<polygon fill="black" stroke="black" stroke-width="1.2" points="664.97,-530.08 672.15,-537.87 671.39,-527.3 664.97,-530.08"/>
</g>
<!-- vibration&#45;&gt;mnt_comp4 -->
<g id="edge27" class="edge">
<title>vibration&#45;&gt;mnt_comp4</title>
<path fill="none" stroke="black" stroke-width="1.2" d="M587.47,-247.87C603.04,-239.31 621.78,-229.01 638.32,-219.92"/>
<polygon fill="black" stroke="black" stroke-width="1.2" points="640.17,-222.89 647.25,-215.01 636.8,-216.76 640.17,-222.89"/>
</g>
<!-- err_error1&#45;&gt;pressure -->
<g id="edge18" class="edge">
<title>err_error1&#45;&gt;pressure</title>
<path fill="none" stroke="black" stroke-width="1.2" d="M347.79,-312C359.26,-312 371.79,-312 383.57,-312"/>
<polygon fill="black" stroke="black" stroke-width="1.2" points="383.7,-315.5 393.7,-312 383.7,-308.5 383.7,-315.5"/>
</g>
<!-- err_error1&#45;&gt;vibration -->
<g id="edge23" class="edge">
<title>err_error1&#45;&gt;vibration</title>
<path fill="none" stroke="black" stroke-width="1.2" d="M347.87,-296.78C361.19,-292.41 376.08,-288.02 390,-285 427.95,-276.77 471.7,-271.91 504.25,-269.17"/>
<polygon fill="black" stroke="black" stroke-width="1.2" points="504.71,-272.64 514.4,-268.35 504.15,-265.66 504.71,-272.64"/>
</g>
<!-- err_error1&#45;&gt;err_error3 -->
<g id="edge30" class="edge">
<title>err_error1&#45;&gt;err_error3</title>
<path fill="none" stroke="black" stroke-width="1.2" d="M347.54,-327.5C389.94,-343.33 455.82,-367.92 501.39,-384.93"/>
<polygon fill="black" stroke="black" stroke-width="1.2" points="500.2,-388.22 510.79,-388.43 502.65,-381.66 500.2,-388.22"/>
</g>
<!-- err_error2&#45;&gt;pressure -->
<g id="edge19" class="edge">
<title>err_error2&#45;&gt;pressure</title>
<path fill="none" stroke="black" stroke-width="1.2" d="M333.9,-385.89C340.55,-381.43 347.58,-376.62 354,-372 369.82,-360.62 387,-347.42 401.15,-336.3"/>
<polygon fill="black" stroke="black" stroke-width="1.2" points="403.42,-338.96 409.1,-330.02 399.08,-333.47 403.42,-338.96"/>
</g>
<!-- err_error2&#45;&gt;err_error4 -->
<g id="edge32" class="edge">
<title>err_error2&#45;&gt;err_error4</title>
<path fill="none" stroke="black" stroke-width="1.2" d="M347.79,-404C358.06,-404 369.17,-404 379.84,-404"/>
<polygon fill="black" stroke="black" stroke-width="1.2" points="379.89,-407.5 389.89,-404 379.89,-400.5 379.89,-407.5"/>
</g>
<!-- err_error3&#45;&gt;volt -->
<g id="edge6" class="edge">
<title>err_error3&#45;&gt;volt</title>
<path fill="none" stroke="black" stroke-width="1.2" d="M527.71,-422.02C513.14,-431.48 493.92,-442.1 475,-447 438.43,-456.47 427.71,-449.24 390,-447 271.58,-439.96 235.33,-446.54 128,-396 109.79,-387.43 91.3,-374.78 76.6,-363.58"/>
<polygon fill="black" stroke="black" stroke-width="1.2" points="78.44,-360.58 68.41,-357.19 74.14,-366.1 78.44,-360.58"/>
</g>
<!-- err_error3&#45;&gt;err_error2 -->
<g id="edge31" class="edge">
<title>err_error3&#45;&gt;err_error2</title>
<path fill="none" stroke="black" stroke-width="1.2" d="M510.94,-421.34C499.5,-425.32 486.94,-428.98 475,-431 437.75,-437.3 427.32,-436.85 390,-431 379.22,-429.31 367.94,-426.47 357.28,-423.26"/>
<polygon fill="black" stroke="black" stroke-width="1.2" points="358.27,-419.9 347.68,-420.22 356.16,-426.57 358.27,-419.9"/>
</g>
<!-- err_error4&#45;&gt;vibration -->
<g id="edge24" class="edge">
<title>err_error4&#45;&gt;vibration</title>
<path fill="none" stroke="black" stroke-width="1.2" d="M449.06,-385.96C469.81,-361.89 506.69,-319.12 530.35,-291.69"/>
<polygon fill="black" stroke="black" stroke-width="1.2" points="533.06,-293.9 536.94,-284.05 527.76,-289.33 533.06,-293.9"/>
</g>
<!-- err_error5&#45;&gt;volt -->
<g id="edge7" class="edge">
<title>err_error5&#45;&gt;volt</title>
<path fill="none" stroke="black" stroke-width="1.2" d="M638.49,-571.33C537.33,-605.73 275.56,-676.54 128,-549 73.12,-501.57 55.24,-412.52 49.56,-367.14"/>
<polygon fill="black" stroke="black" stroke-width="1.2" points="53.02,-366.65 48.41,-357.11 46.07,-367.44 53.02,-366.65"/>
</g>
<!-- err_error5&#45;&gt;rotate -->
<g id="edge13" class="edge">
<title>err_error5&#45;&gt;rotate</title>
<path fill="none" stroke="black" stroke-width="1.2" d="M638.2,-554.07C581.81,-551.37 478.28,-546.13 390,-540 327.86,-535.69 255.73,-529.38 212.81,-525.49"/>
<polygon fill="black" stroke="black" stroke-width="1.2" points="213.09,-522 202.81,-524.58 212.45,-528.97 213.09,-522"/>
</g>
<!-- mnt_comp1 -->
<g id="node10" class="node">
<title>mnt_comp1</title>
<path fill="white" stroke="black" d="M986,-215C986,-215 912,-215 912,-215 906,-215 900,-209 900,-203 900,-203 900,-191 900,-191 900,-185 906,-179 912,-179 912,-179 986,-179 986,-179 992,-179 998,-185 998,-191 998,-191 998,-203 998,-203 998,-209 992,-215 986,-215"/>
<text text-anchor="middle" x="949" y="-193.3" font-family="Helvetica,sans-Serif" font-size="14.00">mnt_comp1</text>
</g>
<!-- mnt_comp2&#45;&gt;pressure -->
<g id="edge21" class="edge">
<title>mnt_comp2&#45;&gt;pressure</title>
<path fill="none" stroke="black" stroke-width="1.2" d="M323.45,-200.08C345.06,-222.46 382.01,-260.73 406.59,-286.2"/>
<polygon fill="black" stroke="black" stroke-width="1.2" points="404.33,-288.89 413.79,-293.66 409.37,-284.03 404.33,-288.89"/>
</g>
<!-- mnt_comp2&#45;&gt;mnt_comp4 -->
<g id="edge36" class="edge">
<title>mnt_comp2&#45;&gt;mnt_comp4</title>
<path fill="none" stroke="black" stroke-width="1.2" d="M354.19,-176.81C411.91,-171.56 511.41,-165.59 596,-176 604.47,-177.04 613.32,-178.66 621.96,-180.54"/>
<polygon fill="black" stroke="black" stroke-width="1.2" points="621.43,-184.01 631.96,-182.85 623.01,-177.19 621.43,-184.01"/>
</g>
<!-- mnt_comp3&#45;&gt;volt -->
<g id="edge9" class="edge">
<title>mnt_comp3&#45;&gt;volt</title>
<path fill="none" stroke="black" stroke-width="1.2" d="M809.94,-239.98C801.3,-205.81 777.86,-131.41 730,-91 624.68,-2.06 571.34,0 433.5,0 304,0 304,0 304,0 216.74,0 184.97,-20.9 128,-87 70.98,-153.16 53.98,-259.98 49,-310.62"/>
<polygon fill="black" stroke="black" stroke-width="1.2" points="45.5,-310.55 48.09,-320.82 52.47,-311.17 45.5,-310.55"/>
</g>
<!-- mnt_comp3&#45;&gt;pressure -->
<g id="edge22" class="edge">
<title>mnt_comp3&#45;&gt;pressure</title>
<path fill="none" stroke="black" stroke-width="1.2" d="M765.72,-269.08C754.06,-271.55 741.62,-274.02 730,-276 642.72,-290.86 539.96,-301.91 481.21,-307.63"/>
<polygon fill="black" stroke="black" stroke-width="1.2" points="480.73,-304.16 471.11,-308.6 481.4,-311.12 480.73,-304.16"/>
</g>
<!-- mnt_comp3&#45;&gt;vibration -->
<g id="edge26" class="edge">
<title>mnt_comp3&#45;&gt;vibration</title>
<path fill="none" stroke="black" stroke-width="1.2" d="M765.72,-259.49C719.17,-260.92 649.13,-263.08 602.64,-264.52"/>
<polygon fill="black" stroke="black" stroke-width="1.2" points="602.4,-261.02 592.51,-264.83 602.61,-268.02 602.4,-261.02"/>
</g>
<!-- mnt_comp3&#45;&gt;mnt_comp1 -->
<g id="edge33" class="edge">
<title>mnt_comp3&#45;&gt;mnt_comp1</title>
<path fill="none" stroke="black" stroke-width="1.2" d="M855.25,-239.86C869.09,-233.47 884.82,-226.2 899.34,-219.49"/>
<polygon fill="black" stroke="black" stroke-width="1.2" points="901.07,-222.54 908.68,-215.17 898.13,-216.19 901.07,-222.54"/>
</g>
<!-- mnt_comp4&#45;&gt;mnt_comp1 -->
<g id="edge34" class="edge">
<title>mnt_comp4&#45;&gt;mnt_comp1</title>
<path fill="none" stroke="black" stroke-width="1.2" d="M730.17,-197C774.94,-197 841.73,-197 889.54,-197"/>
<polygon fill="black" stroke="black" stroke-width="1.2" points="889.74,-200.5 899.74,-197 889.74,-193.5 889.74,-200.5"/>
</g>
<!-- mnt_comp4&#45;&gt;mnt_comp3 -->
<g id="edge39" class="edge">
<title>mnt_comp4&#45;&gt;mnt_comp3</title>
<path fill="none" stroke="black" stroke-width="1.2" d="M721.25,-215.14C735.09,-221.53 750.82,-228.8 765.34,-235.51"/>
<polygon fill="black" stroke="black" stroke-width="1.2" points="764.13,-238.81 774.68,-239.83 767.07,-232.46 764.13,-238.81"/>
</g>
<!-- fail_comp1&#45;&gt;vibration -->
<g id="edge28" class="edge">
<title>fail_comp1&#45;&gt;vibration</title>
<path fill="none" stroke="black" stroke-width="1.2" d="M220.31,-121.41C256.99,-128.12 309.66,-139.34 354,-155 410.42,-174.92 423.15,-184.15 475,-214 489.74,-222.49 505.43,-232.76 518.81,-241.93"/>
<polygon fill="black" stroke="black" stroke-width="1.2" points="517.02,-244.94 527.23,-247.76 521,-239.19 517.02,-244.94"/>
</g>
<!-- fail_comp1&#45;&gt;mnt_comp1 -->
<g id="edge35" class="edge">
<title>fail_comp1&#45;&gt;mnt_comp1</title>
<path fill="none" stroke="black" stroke-width="1.2" d="M207.49,-95.82C221.91,-88.65 239.35,-81.14 256,-77 460.54,-26.16 530.81,-22.14 730,-91 794.66,-113.35 865.11,-150.06 907.92,-173.88"/>
<polygon fill="black" stroke="black" stroke-width="1.2" points="906.45,-177.07 916.89,-178.91 909.87,-170.96 906.45,-177.07"/>
</g>
<!-- fail_comp1&#45;&gt;mnt_comp2 -->
<g id="edge37" class="edge">
<title>fail_comp1&#45;&gt;mnt_comp2</title>
<path fill="none" stroke="black" stroke-width="1.2" d="M209.23,-132.04C224.98,-140.34 243.83,-150.28 260.57,-159.1"/>
<polygon fill="black" stroke="black" stroke-width="1.2" points="259.13,-162.3 269.61,-163.87 262.39,-156.11 259.13,-162.3"/>
</g>
<!-- fail_comp1&#45;&gt;mnt_comp3 -->
<g id="edge40" class="edge">
<title>fail_comp1&#45;&gt;mnt_comp3</title>
<path fill="none" stroke="black" stroke-width="1.2" d="M220.11,-103.21C271.11,-91.98 356.77,-76 431.5,-76 431.5,-76 431.5,-76 554.5,-76 661.66,-76 755.95,-181.31 794.94,-231.72"/>
<polygon fill="black" stroke="black" stroke-width="1.2" points="792.31,-234.04 801.14,-239.88 797.88,-229.8 792.31,-234.04"/>
</g>
<!-- fail_comp2 -->
<g id="node15" class="node">
<title>fail_comp2</title>
<path fill="white" stroke="black" d="M80,-582C80,-582 12,-582 12,-582 6,-582 0,-576 0,-570 0,-570 0,-558 0,-558 0,-552 6,-546 12,-546 12,-546 80,-546 80,-546 86,-546 92,-552 92,-558 92,-558 92,-570 92,-570 92,-576 86,-582 80,-582"/>
<text text-anchor="middle" x="46" y="-560.3" font-family="Helvetica,sans-Serif" font-size="14.00">fail_comp2</text>
</g>
<!-- fail_comp2&#45;&gt;rotate -->
<g id="edge16" class="edge">
<title>fail_comp2&#45;&gt;rotate</title>
<path fill="none" stroke="black" stroke-width="1.2" d="M92.13,-548.96C106.45,-544.18 122.11,-538.96 135.81,-534.4"/>
<polygon fill="black" stroke="black" stroke-width="1.2" points="137.01,-537.69 145.39,-531.2 134.79,-531.05 137.01,-537.69"/>
</g>
<!-- fail_comp2&#45;&gt;vibration -->
<g id="edge29" class="edge">
<title>fail_comp2&#45;&gt;vibration</title>
<path fill="none" stroke="black" stroke-width="1.2" d="M92.18,-564.33C127.52,-563.58 177.61,-560.27 220,-549 340.68,-516.9 386.45,-519.05 475,-431 495.53,-410.59 526.29,-335.11 542.18,-293.67"/>
<polygon fill="black" stroke="black" stroke-width="1.2" points="545.51,-294.76 545.79,-284.17 538.96,-292.27 545.51,-294.76"/>
</g>
<!-- fail_comp2&#45;&gt;mnt_comp2 -->
<g id="edge38" class="edge">
<title>fail_comp2&#45;&gt;mnt_comp2</title>
<path fill="none" stroke="black" stroke-width="1.2" d="M59.18,-545.67C91.23,-497.45 180.65,-363.18 256,-252 265.74,-237.63 276.68,-221.66 285.65,-208.61"/>
<polygon fill="black" stroke="black" stroke-width="1.2" points="288.73,-210.31 291.51,-200.09 282.96,-206.35 288.73,-210.31"/>
</g>
<!-- fail_comp2&#45;&gt;mnt_comp3 -->
<g id="edge41" class="edge">
<title>fail_comp2&#45;&gt;mnt_comp3</title>
<path fill="none" stroke="black" stroke-width="1.2" d="M69.92,-582.06C113.09,-614.21 210.53,-678 304,-678 304,-678 304,-678 554.5,-678 636.37,-678 674.53,-682.22 730,-622 775.65,-572.44 802.53,-363.54 811.04,-286.6"/>
<polygon fill="black" stroke="black" stroke-width="1.2" points="814.57,-286.56 812.16,-276.24 807.61,-285.81 814.57,-286.56"/>
</g>
</g>
</svg>
