<?xml version="1.0" encoding="UTF-8" standalone="no"?>
<!DOCTYPE svg PUBLIC "-//W3C//DTD SVG 1.1//EN"
 "http://www.w3.org/Graphics/SVG/1.1/DTD/svg11.dtd">
<!-- Generated by graphviz version 2.50.0 (0)
 -->
<!-- Title: G Pages: 1 -->
<svg width="1410pt" height="696pt"
 viewBox="0.00 0.00 1410.00 696.00" xmlns="http://www.w3.org/2000/svg" xmlns:xlink="http://www.w3.org/1999/xlink">
<g id="graph0" class="graph" transform="scale(1 1) rotate(0) translate(4 692)">
<title>G</title>
<polygon fill="white" stroke="transparent" points="-4,4 -4,-692 1406,-692 1406,4 -4,4"/>
<text text-anchor="middle" x="701" y="-671.2" font-family="Times,serif" font-size="16.00">model=model1/cbnb_w_mixed.json [machine 92]</text>
<!-- volt -->
<g id="node1" class="node">
<title>volt</title>
<path fill="white" stroke="black" d="M163,-490C163,-490 133,-490 133,-490 127,-490 121,-484 121,-478 121,-478 121,-466 121,-466 121,-460 127,-454 133,-454 133,-454 163,-454 163,-454 169,-454 175,-460 175,-466 175,-466 175,-478 175,-478 175,-484 169,-490 163,-490"/>
<text text-anchor="middle" x="148" y="-468.3" font-family="Helvetica,sans-Serif" font-size="14.00">volt</text>
</g>
<!-- rotate -->
<g id="node2" class="node">
<title>rotate</title>
<path fill="white" stroke="black" d="M256,-360C256,-360 223,-360 223,-360 217,-360 211,-354 211,-348 211,-348 211,-336 211,-336 211,-330 217,-324 223,-324 223,-324 256,-324 256,-324 262,-324 268,-330 268,-336 268,-336 268,-348 268,-348 268,-354 262,-360 256,-360"/>
<text text-anchor="middle" x="239.5" y="-338.3" font-family="Helvetica,sans-Serif" font-size="14.00">rotate</text>
</g>
<!-- volt&#45;&gt;rotate -->
<g id="edge1" class="edge">
<title>volt&#45;&gt;rotate</title>
<path fill="none" stroke="black" stroke-width="1.2" d="M165.93,-445.27C178.13,-426.28 195.17,-400.29 211,-378 213.29,-374.77 215.74,-371.43 218.21,-368.13"/>
<polygon fill="black" stroke="black" stroke-width="1.2" points="162.96,-443.42 160.52,-453.73 168.86,-447.19 162.96,-443.42"/>
<polygon fill="black" stroke="black" stroke-width="1.2" points="221.02,-370.22 224.26,-360.13 215.44,-365.99 221.02,-370.22"/>
</g>
<!-- mnt_comp1 -->
<g id="node10" class="node">
<title>mnt_comp1</title>
<path fill="white" stroke="black" d="M760,-417C760,-417 686,-417 686,-417 680,-417 674,-411 674,-405 674,-405 674,-393 674,-393 674,-387 680,-381 686,-381 686,-381 760,-381 760,-381 766,-381 772,-387 772,-393 772,-393 772,-405 772,-405 772,-411 766,-417 760,-417"/>
<text text-anchor="middle" x="723" y="-395.3" font-family="Helvetica,sans-Serif" font-size="14.00">mnt_comp1</text>
</g>
<!-- volt&#45;&gt;mnt_comp1 -->
<g id="edge6" class="edge">
<title>volt&#45;&gt;mnt_comp1</title>
<path fill="none" stroke="black" stroke-width="1.2" d="M175.01,-469.03C199.13,-466.26 236,-461.96 268,-458 410.31,-440.38 577.52,-418.29 663.86,-406.79"/>
<polygon fill="black" stroke="black" stroke-width="1.2" points="664.53,-410.23 673.98,-405.44 663.6,-403.29 664.53,-410.23"/>
</g>
<!-- fail_comp1 -->
<g id="node14" class="node">
<title>fail_comp1</title>
<path fill="white" stroke="black" d="M498,-406C498,-406 430,-406 430,-406 424,-406 418,-400 418,-394 418,-394 418,-382 418,-382 418,-376 424,-370 430,-370 430,-370 498,-370 498,-370 504,-370 510,-376 510,-382 510,-382 510,-394 510,-394 510,-400 504,-406 498,-406"/>
<text text-anchor="middle" x="464" y="-384.3" font-family="Helvetica,sans-Serif" font-size="14.00">fail_comp1</text>
</g>
<!-- volt&#45;&gt;fail_comp1 -->
<g id="edge9" class="edge">
<title>volt&#45;&gt;fail_comp1</title>
<path fill="none" stroke="black" stroke-width="1.2" d="M184.98,-462.38C239.59,-447.77 343.83,-419.88 408,-402.71"/>
<polygon fill="black" stroke="black" stroke-width="1.2" points="183.99,-459.02 175.23,-464.98 185.8,-465.78 183.99,-459.02"/>
<polygon fill="black" stroke="black" stroke-width="1.2" points="409.18,-406.02 417.94,-400.05 407.38,-399.26 409.18,-406.02"/>
</g>
<!-- vibration -->
<g id="node4" class="node">
<title>vibration</title>
<path fill="white" stroke="black" d="M370,-265C370,-265 316,-265 316,-265 310,-265 304,-259 304,-253 304,-253 304,-241 304,-241 304,-235 310,-229 316,-229 316,-229 370,-229 370,-229 376,-229 382,-235 382,-241 382,-241 382,-253 382,-253 382,-259 376,-265 370,-265"/>
<text text-anchor="middle" x="343" y="-243.3" font-family="Helvetica,sans-Serif" font-size="14.00">vibration</text>
</g>
<!-- rotate&#45;&gt;vibration -->
<g id="edge11" class="edge">
<title>rotate&#45;&gt;vibration</title>
<path fill="none" stroke="black" stroke-width="1.2" d="M267.64,-316.6C282.36,-302.82 300.5,-285.85 315.17,-272.11"/>
<polygon fill="black" stroke="black" stroke-width="1.2" points="264.98,-314.29 260.07,-323.68 269.76,-319.4 264.98,-314.29"/>
<polygon fill="black" stroke="black" stroke-width="1.2" points="317.58,-274.65 322.49,-265.26 312.8,-269.54 317.58,-274.65"/>
</g>
<!-- err_error3 -->
<g id="node7" class="node">
<title>err_error3</title>
<path fill="white" stroke="black" d="M1262.5,-105C1262.5,-105 1201.5,-105 1201.5,-105 1195.5,-105 1189.5,-99 1189.5,-93 1189.5,-93 1189.5,-81 1189.5,-81 1189.5,-75 1195.5,-69 1201.5,-69 1201.5,-69 1262.5,-69 1262.5,-69 1268.5,-69 1274.5,-75 1274.5,-81 1274.5,-81 1274.5,-93 1274.5,-93 1274.5,-99 1268.5,-105 1262.5,-105"/>
<text text-anchor="middle" x="1232" y="-83.3" font-family="Helvetica,sans-Serif" font-size="14.00">err_error3</text>
</g>
<!-- rotate&#45;&gt;err_error3 -->
<g id="edge13" class="edge">
<title>rotate&#45;&gt;err_error3</title>
<path fill="none" stroke="black" stroke-width="1.2" d="M244.9,-313.74C259.43,-231.81 313.71,0 463,0 463,0 463,0 981.5,0 1059.5,0 1143.96,-38.38 1191.88,-64.16"/>
<polygon fill="black" stroke="black" stroke-width="1.2" points="241.45,-313.17 243.22,-323.61 248.35,-314.34 241.45,-313.17"/>
<polygon fill="black" stroke="black" stroke-width="1.2" points="1190.23,-67.25 1200.68,-68.97 1193.59,-61.1 1190.23,-67.25"/>
</g>
<!-- pressure -->
<g id="node3" class="node">
<title>pressure</title>
<path fill="white" stroke="black" d="M1007,-398C1007,-398 954,-398 954,-398 948,-398 942,-392 942,-386 942,-386 942,-374 942,-374 942,-368 948,-362 954,-362 954,-362 1007,-362 1007,-362 1013,-362 1019,-368 1019,-374 1019,-374 1019,-386 1019,-386 1019,-392 1013,-398 1007,-398"/>
<text text-anchor="middle" x="980.5" y="-376.3" font-family="Helvetica,sans-Serif" font-size="14.00">pressure</text>
</g>
<!-- pressure&#45;&gt;rotate -->
<g id="edge10" class="edge">
<title>pressure&#45;&gt;rotate</title>
<path fill="none" stroke="black" stroke-width="1.2" d="M941.67,-370.8C892.02,-359.56 802.03,-342 724,-342 463,-342 463,-342 463,-342 398.09,-342 322.54,-342 278.27,-342"/>
<polygon fill="black" stroke="black" stroke-width="1.2" points="278.25,-338.5 268.25,-342 278.25,-345.5 278.25,-338.5"/>
</g>
<!-- err_error2 -->
<g id="node6" class="node">
<title>err_error2</title>
<path fill="white" stroke="black" d="M1131.5,-158C1131.5,-158 1070.5,-158 1070.5,-158 1064.5,-158 1058.5,-152 1058.5,-146 1058.5,-146 1058.5,-134 1058.5,-134 1058.5,-128 1064.5,-122 1070.5,-122 1070.5,-122 1131.5,-122 1131.5,-122 1137.5,-122 1143.5,-128 1143.5,-134 1143.5,-134 1143.5,-146 1143.5,-146 1143.5,-152 1137.5,-158 1131.5,-158"/>
<text text-anchor="middle" x="1101" y="-136.3" font-family="Helvetica,sans-Serif" font-size="14.00">err_error2</text>
</g>
<!-- pressure&#45;&gt;err_error2 -->
<g id="edge15" class="edge">
<title>pressure&#45;&gt;err_error2</title>
<path fill="none" stroke="black" stroke-width="1.2" d="M990.41,-361.96C1010.99,-320.26 1061.99,-216.99 1086.46,-167.41"/>
<polygon fill="black" stroke="black" stroke-width="1.2" points="1089.7,-168.76 1090.99,-158.25 1083.42,-165.67 1089.7,-168.76"/>
</g>
<!-- err_error4 -->
<g id="node8" class="node">
<title>err_error4</title>
<path fill="white" stroke="black" d="M1131.5,-398C1131.5,-398 1070.5,-398 1070.5,-398 1064.5,-398 1058.5,-392 1058.5,-386 1058.5,-386 1058.5,-374 1058.5,-374 1058.5,-368 1064.5,-362 1070.5,-362 1070.5,-362 1131.5,-362 1131.5,-362 1137.5,-362 1143.5,-368 1143.5,-374 1143.5,-374 1143.5,-386 1143.5,-386 1143.5,-392 1137.5,-398 1131.5,-398"/>
<text text-anchor="middle" x="1101" y="-376.3" font-family="Helvetica,sans-Serif" font-size="14.00">err_error4</text>
</g>
<!-- pressure&#45;&gt;err_error4 -->
<g id="edge16" class="edge">
<title>pressure&#45;&gt;err_error4</title>
<path fill="none" stroke="black" stroke-width="1.2" d="M1029.51,-380C1035.65,-380 1041.96,-380 1048.16,-380"/>
<polygon fill="black" stroke="black" stroke-width="1.2" points="1029.32,-376.5 1019.32,-380 1029.32,-383.5 1029.32,-376.5"/>
<polygon fill="black" stroke="black" stroke-width="1.2" points="1048.43,-383.5 1058.43,-380 1048.43,-376.5 1048.43,-383.5"/>
</g>
<!-- pressure&#45;&gt;mnt_comp1 -->
<g id="edge17" class="edge">
<title>pressure&#45;&gt;mnt_comp1</title>
<path fill="none" stroke="black" stroke-width="1.2" d="M941.64,-382.82C899.55,-385.95 831.08,-391.04 782.18,-394.67"/>
<polygon fill="black" stroke="black" stroke-width="1.2" points="781.77,-391.19 772.06,-395.43 782.29,-398.17 781.77,-391.19"/>
</g>
<!-- fail_comp3 -->
<g id="node16" class="node">
<title>fail_comp3</title>
<path fill="white" stroke="black" d="M1135,-452C1135,-452 1067,-452 1067,-452 1061,-452 1055,-446 1055,-440 1055,-440 1055,-428 1055,-428 1055,-422 1061,-416 1067,-416 1067,-416 1135,-416 1135,-416 1141,-416 1147,-422 1147,-428 1147,-428 1147,-440 1147,-440 1147,-446 1141,-452 1135,-452"/>
<text text-anchor="middle" x="1101" y="-430.3" font-family="Helvetica,sans-Serif" font-size="14.00">fail_comp3</text>
</g>
<!-- pressure&#45;&gt;fail_comp3 -->
<g id="edge19" class="edge">
<title>pressure&#45;&gt;fail_comp3</title>
<path fill="none" stroke="black" stroke-width="1.2" d="M1019.32,-397.23C1029.48,-401.87 1040.62,-406.94 1051.28,-411.8"/>
<polygon fill="black" stroke="black" stroke-width="1.2" points="1049.95,-415.04 1060.5,-416 1052.85,-408.67 1049.95,-415.04"/>
</g>
<!-- vibration&#45;&gt;err_error2 -->
<g id="edge21" class="edge">
<title>vibration&#45;&gt;err_error2</title>
<path fill="none" stroke="black" stroke-width="1.2" d="M357.36,-228.83C370.71,-212.13 392.85,-188.19 418,-176 487.85,-142.15 513.37,-152 591,-152 591,-152 591,-152 858,-152 923.78,-152 999.5,-147.52 1048.46,-144.04"/>
<polygon fill="black" stroke="black" stroke-width="1.2" points="1048.77,-147.52 1058.49,-143.31 1048.27,-140.54 1048.77,-147.52"/>
</g>
<!-- vibration&#45;&gt;err_error3 -->
<g id="edge22" class="edge">
<title>vibration&#45;&gt;err_error3</title>
<path fill="none" stroke="black" stroke-width="1.2" d="M352.12,-228.95C363.43,-206.01 386.18,-167 418,-147 484.27,-105.35 512.72,-114 591,-114 591,-114 591,-114 724,-114 890.57,-114 1087.48,-99.29 1179.18,-91.58"/>
<polygon fill="black" stroke="black" stroke-width="1.2" points="1179.64,-95.06 1189.31,-90.73 1179.05,-88.08 1179.64,-95.06"/>
</g>
<!-- vibration&#45;&gt;fail_comp1 -->
<g id="edge28" class="edge">
<title>vibration&#45;&gt;fail_comp1</title>
<path fill="none" stroke="black" stroke-width="1.2" d="M359.31,-265.14C380.11,-289.79 417.41,-333.98 441.14,-362.1"/>
<polygon fill="black" stroke="black" stroke-width="1.2" points="438.62,-364.54 447.75,-369.93 443.97,-360.03 438.62,-364.54"/>
</g>
<!-- err_error1 -->
<g id="node5" class="node">
<title>err_error1</title>
<path fill="white" stroke="black" d="M1390,-158C1390,-158 1329,-158 1329,-158 1323,-158 1317,-152 1317,-146 1317,-146 1317,-134 1317,-134 1317,-128 1323,-122 1329,-122 1329,-122 1390,-122 1390,-122 1396,-122 1402,-128 1402,-134 1402,-134 1402,-146 1402,-146 1402,-152 1396,-158 1390,-158"/>
<text text-anchor="middle" x="1359.5" y="-136.3" font-family="Helvetica,sans-Serif" font-size="14.00">err_error1</text>
</g>
<!-- err_error1&#45;&gt;volt -->
<g id="edge2" class="edge">
<title>err_error1&#45;&gt;volt</title>
<path fill="none" stroke="black" stroke-width="1.2" d="M1357.01,-158.19C1350.94,-228.94 1326.17,-485.13 1281,-551 1228.06,-628.2 1195.61,-662 1102,-662 342,-662 342,-662 342,-662 277.78,-662 256.69,-646.14 211,-601 182.35,-572.69 165.12,-528.52 156.34,-499.91"/>
<polygon fill="black" stroke="black" stroke-width="1.2" points="159.65,-498.75 153.48,-490.14 152.93,-500.72 159.65,-498.75"/>
</g>
<!-- err_error1&#45;&gt;rotate -->
<g id="edge12" class="edge">
<title>err_error1&#45;&gt;rotate</title>
<path fill="none" stroke="black" stroke-width="1.2" d="M1356.67,-158.22C1349.82,-223.45 1323.81,-444.46 1281,-499 1226.38,-568.58 1190.45,-586 1102,-586 856,-586 856,-586 856,-586 618.77,-586 364.02,-427.42 274.17,-365.95"/>
<polygon fill="black" stroke="black" stroke-width="1.2" points="275.97,-362.94 265.75,-360.14 272,-368.7 275.97,-362.94"/>
</g>
<!-- err_error1&#45;&gt;vibration -->
<g id="edge20" class="edge">
<title>err_error1&#45;&gt;vibration</title>
<path fill="none" stroke="black" stroke-width="1.2" d="M1347.46,-121.93C1334.37,-102.44 1310.56,-72.52 1281,-60 1052.95,36.59 971.66,-76 724,-76 591,-76 591,-76 591,-76 512.64,-76 481.09,-63.53 418,-110 381.63,-136.79 361.21,-186.98 351.41,-218.61"/>
<polygon fill="black" stroke="black" stroke-width="1.2" points="347.95,-217.98 348.49,-228.56 354.67,-219.95 347.95,-217.98"/>
</g>
<!-- err_error2&#45;&gt;volt -->
<g id="edge3" class="edge">
<title>err_error2&#45;&gt;volt</title>
<path fill="none" stroke="black" stroke-width="1.2" d="M1060.88,-122C993.57,-92.72 850.82,-38 724,-38 342,-38 342,-38 342,-38 163.74,-38 148.92,-347.45 148.62,-443.75"/>
<polygon fill="black" stroke="black" stroke-width="1.2" points="145.12,-443.91 148.64,-453.9 152.12,-443.9 145.12,-443.91"/>
</g>
<!-- err_error2&#45;&gt;err_error1 -->
<g id="edge29" class="edge">
<title>err_error2&#45;&gt;err_error1</title>
<path fill="none" stroke="black" stroke-width="1.2" d="M1143.78,-140C1188.22,-140 1258.58,-140 1306.56,-140"/>
<polygon fill="black" stroke="black" stroke-width="1.2" points="1306.74,-143.5 1316.74,-140 1306.74,-136.5 1306.74,-143.5"/>
</g>
<!-- err_error2&#45;&gt;err_error3 -->
<g id="edge31" class="edge">
<title>err_error2&#45;&gt;err_error3</title>
<path fill="none" stroke="black" stroke-width="1.2" d="M1143.53,-122.94C1155.03,-118.21 1167.66,-113.02 1179.66,-108.09"/>
<polygon fill="black" stroke="black" stroke-width="1.2" points="1181.19,-111.25 1189.11,-104.21 1178.53,-104.77 1181.19,-111.25"/>
</g>
<!-- err_error3&#45;&gt;err_error1 -->
<g id="edge30" class="edge">
<title>err_error3&#45;&gt;err_error1</title>
<path fill="none" stroke="black" stroke-width="1.2" d="M1274.79,-104.65C1285.27,-109.07 1296.63,-113.87 1307.5,-118.46"/>
<polygon fill="black" stroke="black" stroke-width="1.2" points="1306.32,-121.76 1316.89,-122.43 1309.04,-115.31 1306.32,-121.76"/>
</g>
<!-- err_error4&#45;&gt;volt -->
<g id="edge4" class="edge">
<title>err_error4&#45;&gt;volt</title>
<path fill="none" stroke="black" stroke-width="1.2" d="M1068.47,-398.1C977.83,-448.37 707.52,-586 465,-586 342,-586 342,-586 342,-586 279.68,-586 263.03,-570.31 211,-536 195.28,-525.63 180.49,-510.65 169.3,-497.79"/>
<polygon fill="black" stroke="black" stroke-width="1.2" points="171.95,-495.5 162.82,-490.12 166.6,-500.02 171.95,-495.5"/>
</g>
<!-- err_error4&#45;&gt;vibration -->
<g id="edge23" class="edge">
<title>err_error4&#45;&gt;vibration</title>
<path fill="none" stroke="black" stroke-width="1.2" d="M1085.1,-361.97C1050.04,-321.7 957.72,-228 858,-228 591,-228 591,-228 591,-228 521.74,-228 441.87,-235.52 392.15,-241.1"/>
<polygon fill="black" stroke="black" stroke-width="1.2" points="391.55,-237.64 382.01,-242.25 392.35,-244.6 391.55,-237.64"/>
</g>
<!-- err_error5 -->
<g id="node9" class="node">
<title>err_error5</title>
<path fill="white" stroke="black" d="M73,-360C73,-360 12,-360 12,-360 6,-360 0,-354 0,-348 0,-348 0,-336 0,-336 0,-330 6,-324 12,-324 12,-324 73,-324 73,-324 79,-324 85,-330 85,-336 85,-336 85,-348 85,-348 85,-354 79,-360 73,-360"/>
<text text-anchor="middle" x="42.5" y="-338.3" font-family="Helvetica,sans-Serif" font-size="14.00">err_error5</text>
</g>
<!-- err_error5&#45;&gt;volt -->
<g id="edge5" class="edge">
<title>err_error5&#45;&gt;volt</title>
<path fill="none" stroke="black" stroke-width="1.2" d="M57.89,-360.08C75.56,-382.26 105.66,-420.08 125.93,-445.54"/>
<polygon fill="black" stroke="black" stroke-width="1.2" points="123.43,-448.02 132.4,-453.66 128.91,-443.66 123.43,-448.02"/>
</g>
<!-- err_error5&#45;&gt;rotate -->
<g id="edge14" class="edge">
<title>err_error5&#45;&gt;rotate</title>
<path fill="none" stroke="black" stroke-width="1.2" d="M85.33,-342C119.56,-342 167.57,-342 200.66,-342"/>
<polygon fill="black" stroke="black" stroke-width="1.2" points="200.85,-345.5 210.85,-342 200.85,-338.5 200.85,-345.5"/>
</g>
<!-- err_error5&#45;&gt;vibration -->
<g id="edge24" class="edge">
<title>err_error5&#45;&gt;vibration</title>
<path fill="none" stroke="black" stroke-width="1.2" d="M85.01,-328.79C139.82,-311.34 236.17,-280.68 294.04,-262.26"/>
<polygon fill="black" stroke="black" stroke-width="1.2" points="295.21,-265.56 303.68,-259.19 293.09,-258.89 295.21,-265.56"/>
</g>
<!-- mnt_comp1&#45;&gt;vibration -->
<g id="edge25" class="edge">
<title>mnt_comp1&#45;&gt;vibration</title>
<path fill="none" stroke="black" stroke-width="1.2" d="M673.81,-380.93C613.63,-358.18 507.67,-317.52 418,-280 409.42,-276.41 400.34,-272.48 391.59,-268.61"/>
<polygon fill="black" stroke="black" stroke-width="1.2" points="392.82,-265.33 382.26,-264.47 389.98,-271.73 392.82,-265.33"/>
</g>
<!-- mnt_comp4 -->
<g id="node13" class="node">
<title>mnt_comp4</title>
<path fill="white" stroke="black" d="M894,-444C894,-444 820,-444 820,-444 814,-444 808,-438 808,-432 808,-432 808,-420 808,-420 808,-414 814,-408 820,-408 820,-408 894,-408 894,-408 900,-408 906,-414 906,-420 906,-420 906,-432 906,-432 906,-438 900,-444 894,-444"/>
<text text-anchor="middle" x="857" y="-422.3" font-family="Helvetica,sans-Serif" font-size="14.00">mnt_comp4</text>
</g>
<!-- mnt_comp1&#45;&gt;mnt_comp4 -->
<g id="edge32" class="edge">
<title>mnt_comp1&#45;&gt;mnt_comp4</title>
<path fill="none" stroke="black" stroke-width="1.2" d="M772.03,-408.82C780.4,-410.54 789.19,-412.33 797.8,-414.1"/>
<polygon fill="black" stroke="black" stroke-width="1.2" points="797.29,-417.56 807.79,-416.14 798.69,-410.71 797.29,-417.56"/>
</g>
<!-- mnt_comp2 -->
<g id="node11" class="node">
<title>mnt_comp2</title>
<path fill="white" stroke="black" d="M760,-482C760,-482 686,-482 686,-482 680,-482 674,-476 674,-470 674,-470 674,-458 674,-458 674,-452 680,-446 686,-446 686,-446 760,-446 760,-446 766,-446 772,-452 772,-458 772,-458 772,-470 772,-470 772,-476 766,-482 760,-482"/>
<text text-anchor="middle" x="723" y="-460.3" font-family="Helvetica,sans-Serif" font-size="14.00">mnt_comp2</text>
</g>
<!-- mnt_comp3 -->
<g id="node12" class="node">
<title>mnt_comp3</title>
<path fill="white" stroke="black" d="M1269,-490C1269,-490 1195,-490 1195,-490 1189,-490 1183,-484 1183,-478 1183,-478 1183,-466 1183,-466 1183,-460 1189,-454 1195,-454 1195,-454 1269,-454 1269,-454 1275,-454 1281,-460 1281,-466 1281,-466 1281,-478 1281,-478 1281,-484 1275,-490 1269,-490"/>
<text text-anchor="middle" x="1232" y="-468.3" font-family="Helvetica,sans-Serif" font-size="14.00">mnt_comp3</text>
</g>
<!-- mnt_comp2&#45;&gt;mnt_comp3 -->
<g id="edge35" class="edge">
<title>mnt_comp2&#45;&gt;mnt_comp3</title>
<path fill="none" stroke="black" stroke-width="1.2" d="M772.15,-464.76C865.71,-466.24 1071.7,-469.49 1172.76,-471.08"/>
<polygon fill="black" stroke="black" stroke-width="1.2" points="1172.74,-474.58 1182.8,-471.24 1172.85,-467.58 1172.74,-474.58"/>
</g>
<!-- mnt_comp2&#45;&gt;mnt_comp4 -->
<g id="edge36" class="edge">
<title>mnt_comp2&#45;&gt;mnt_comp4</title>
<path fill="none" stroke="black" stroke-width="1.2" d="M772.03,-450.17C780.49,-447.74 789.38,-445.18 798.08,-442.67"/>
<polygon fill="black" stroke="black" stroke-width="1.2" points="799.14,-446.01 807.79,-439.88 797.21,-439.28 799.14,-446.01"/>
</g>
<!-- mnt_comp3&#45;&gt;volt -->
<g id="edge7" class="edge">
<title>mnt_comp3&#45;&gt;volt</title>
<path fill="none" stroke="black" stroke-width="1.2" d="M1187,-490.03C1084.65,-530.3 821.87,-624 593,-624 342,-624 342,-624 342,-624 278.51,-624 259.5,-607.98 211,-567 188.95,-548.37 171.83,-519.94 161.22,-499.03"/>
<polygon fill="black" stroke="black" stroke-width="1.2" points="164.34,-497.46 156.81,-490.02 158.06,-500.54 164.34,-497.46"/>
</g>
<!-- mnt_comp3&#45;&gt;vibration -->
<g id="edge26" class="edge">
<title>mnt_comp3&#45;&gt;vibration</title>
<path fill="none" stroke="black" stroke-width="1.2" d="M1225.12,-453.93C1203.62,-391.69 1123.03,-190 981.5,-190 591,-190 591,-190 591,-190 520.39,-190 441.26,-212.39 392.03,-229.1"/>
<polygon fill="black" stroke="black" stroke-width="1.2" points="390.61,-225.89 382.3,-232.47 392.89,-232.51 390.61,-225.89"/>
</g>
<!-- mnt_comp4&#45;&gt;volt -->
<g id="edge8" class="edge">
<title>mnt_comp4&#45;&gt;volt</title>
<path fill="none" stroke="black" stroke-width="1.2" d="M827.32,-444.08C820.83,-448.45 814.07,-453.24 808,-458 790.92,-471.39 791.42,-481.31 772,-491 647.82,-552.95 603.78,-548 465,-548 342,-548 342,-548 342,-548 283.57,-548 221.68,-517.47 184.18,-495.11"/>
<polygon fill="black" stroke="black" stroke-width="1.2" points="185.55,-491.85 175.19,-489.63 181.91,-497.82 185.55,-491.85"/>
</g>
<!-- mnt_comp4&#45;&gt;pressure -->
<g id="edge18" class="edge">
<title>mnt_comp4&#45;&gt;pressure</title>
<path fill="none" stroke="black" stroke-width="1.2" d="M905.67,-407.95C914.37,-404.66 923.44,-401.23 932.12,-397.94"/>
<polygon fill="black" stroke="black" stroke-width="1.2" points="933.61,-401.12 941.73,-394.3 931.13,-394.57 933.61,-401.12"/>
</g>
<!-- mnt_comp4&#45;&gt;vibration -->
<g id="edge27" class="edge">
<title>mnt_comp4&#45;&gt;vibration</title>
<path fill="none" stroke="black" stroke-width="1.2" d="M831.17,-407.85C814.91,-396.52 792.87,-382.2 772,-372 661.12,-317.82 629.04,-312.56 510,-280 470.83,-269.29 425.57,-260.52 392.22,-254.73"/>
<polygon fill="black" stroke="black" stroke-width="1.2" points="392.71,-251.26 382.27,-253.02 391.53,-258.16 392.71,-251.26"/>
</g>
<!-- fail_comp1&#45;&gt;mnt_comp1 -->
<g id="edge33" class="edge">
<title>fail_comp1&#45;&gt;mnt_comp1</title>
<path fill="none" stroke="black" stroke-width="1.2" d="M510.06,-389.93C552.75,-391.76 617.1,-394.51 663.69,-396.5"/>
<polygon fill="black" stroke="black" stroke-width="1.2" points="663.79,-400.01 673.93,-396.94 664.09,-393.02 663.79,-400.01"/>
</g>
<!-- fail_comp2 -->
<g id="node15" class="node">
<title>fail_comp2</title>
<path fill="white" stroke="black" d="M626,-482C626,-482 558,-482 558,-482 552,-482 546,-476 546,-470 546,-470 546,-458 546,-458 546,-452 552,-446 558,-446 558,-446 626,-446 626,-446 632,-446 638,-452 638,-458 638,-458 638,-470 638,-470 638,-476 632,-482 626,-482"/>
<text text-anchor="middle" x="592" y="-460.3" font-family="Helvetica,sans-Serif" font-size="14.00">fail_comp2</text>
</g>
<!-- fail_comp1&#45;&gt;fail_comp2 -->
<g id="edge40" class="edge">
<title>fail_comp1&#45;&gt;fail_comp2</title>
<path fill="none" stroke="black" stroke-width="1.2" d="M494.86,-406.01C512,-416.35 533.7,-429.44 552.16,-440.57"/>
<polygon fill="black" stroke="black" stroke-width="1.2" points="550.55,-443.69 560.92,-445.85 554.16,-437.69 550.55,-443.69"/>
</g>
<!-- fail_comp2&#45;&gt;mnt_comp1 -->
<g id="edge34" class="edge">
<title>fail_comp2&#45;&gt;mnt_comp1</title>
<path fill="none" stroke="black" stroke-width="1.2" d="M628.93,-445.89C643.89,-438.36 661.42,-429.53 677.2,-421.57"/>
<polygon fill="black" stroke="black" stroke-width="1.2" points="678.9,-424.63 686.26,-417.01 675.75,-418.38 678.9,-424.63"/>
</g>
<!-- fail_comp2&#45;&gt;mnt_comp2 -->
<g id="edge37" class="edge">
<title>fail_comp2&#45;&gt;mnt_comp2</title>
<path fill="none" stroke="black" stroke-width="1.2" d="M638.12,-464C646.28,-464 654.9,-464 663.38,-464"/>
<polygon fill="black" stroke="black" stroke-width="1.2" points="663.62,-467.5 673.62,-464 663.62,-460.5 663.62,-467.5"/>
</g>
<!-- fail_comp3&#45;&gt;mnt_comp3 -->
<g id="edge38" class="edge">
<title>fail_comp3&#45;&gt;mnt_comp3</title>
<path fill="none" stroke="black" stroke-width="1.2" d="M1147.12,-447.29C1155.46,-449.75 1164.28,-452.34 1172.94,-454.9"/>
<polygon fill="black" stroke="black" stroke-width="1.2" points="1172.03,-458.28 1182.62,-457.75 1174.01,-451.56 1172.03,-458.28"/>
</g>
<!-- fail_comp3&#45;&gt;mnt_comp4 -->
<g id="edge39" class="edge">
<title>fail_comp3&#45;&gt;mnt_comp4</title>
<path fill="none" stroke="black" stroke-width="1.2" d="M1054.85,-432.51C1015.73,-431.21 958.88,-429.33 916.32,-427.93"/>
<polygon fill="black" stroke="black" stroke-width="1.2" points="916.21,-424.42 906.1,-427.59 915.98,-431.42 916.21,-424.42"/>
</g>
</g>
</svg>
