<?xml version="1.0" encoding="UTF-8" standalone="no"?>
<!DOCTYPE svg PUBLIC "-//W3C//DTD SVG 1.1//EN"
 "http://www.w3.org/Graphics/SVG/1.1/DTD/svg11.dtd">
<!-- Generated by graphviz version 2.50.0 (0)
 -->
<!-- Title: G Pages: 1 -->
<svg width="454pt" height="93pt"
 viewBox="0.00 0.00 454.00 93.00" xmlns="http://www.w3.org/2000/svg" xmlns:xlink="http://www.w3.org/1999/xlink">
<g id="graph0" class="graph" transform="scale(1 1) rotate(0) translate(4 89)">
<title>G</title>
<polygon fill="white" stroke="transparent" points="-4,4 -4,-89 450,-89 450,4 -4,4"/>
<text text-anchor="middle" x="223" y="-68.2" font-family="Times,serif" font-size="16.00">model=model4/cbnb_w_telemetry.json [machine 83]</text>
<!-- volt -->
<g id="node1" class="node">
<title>volt</title>
<path fill="white" stroke="black" d="M171,-59C171,-59 141,-59 141,-59 135,-59 129,-53 129,-47 129,-47 129,-35 129,-35 129,-29 135,-23 141,-23 141,-23 171,-23 171,-23 177,-23 183,-29 183,-35 183,-35 183,-47 183,-47 183,-53 177,-59 171,-59"/>
<text text-anchor="middle" x="156" y="-37.3" font-family="Helvetica,sans-Serif" font-size="14.00">volt</text>
</g>
<!-- vibration -->
<g id="node4" class="node">
<title>vibration</title>
<path fill="white" stroke="black" d="M285,-59C285,-59 231,-59 231,-59 225,-59 219,-53 219,-47 219,-47 219,-35 219,-35 219,-29 225,-23 231,-23 231,-23 285,-23 285,-23 291,-23 297,-29 297,-35 297,-35 297,-47 297,-47 297,-53 291,-59 285,-59"/>
<text text-anchor="middle" x="258" y="-37.3" font-family="Helvetica,sans-Serif" font-size="14.00">vibration</text>
</g>
<!-- volt&#45;&gt;vibration -->
<g id="edge2" class="edge">
<title>volt&#45;&gt;vibration</title>
<path fill="none" stroke="black" stroke-width="1.2" d="M183.01,-41C190.83,-41 199.68,-41 208.46,-41"/>
<polygon fill="black" stroke="black" stroke-width="1.2" points="208.68,-44.5 218.68,-41 208.68,-37.5 208.68,-44.5"/>
</g>
<!-- rotate -->
<g id="node2" class="node">
<title>rotate</title>
<path fill="white" stroke="black" d="M81,-36C81,-36 48,-36 48,-36 42,-36 36,-30 36,-24 36,-24 36,-12 36,-12 36,-6 42,0 48,0 48,0 81,0 81,0 87,0 93,-6 93,-12 93,-12 93,-24 93,-24 93,-30 87,-36 81,-36"/>
<text text-anchor="middle" x="64.5" y="-14.3" font-family="Helvetica,sans-Serif" font-size="14.00">rotate</text>
</g>
<!-- rotate&#45;&gt;volt -->
<g id="edge1" class="edge">
<title>rotate&#45;&gt;volt</title>
<path fill="none" stroke="black" stroke-width="1.2" d="M93.33,-25.15C101.44,-27.24 110.43,-29.55 118.97,-31.74"/>
<polygon fill="black" stroke="black" stroke-width="1.2" points="118.16,-35.15 128.72,-34.25 119.9,-28.37 118.16,-35.15"/>
</g>
<!-- pressure -->
<g id="node3" class="node">
<title>pressure</title>
<path fill="white" stroke="black" d="M398,-36C398,-36 345,-36 345,-36 339,-36 333,-30 333,-24 333,-24 333,-12 333,-12 333,-6 339,0 345,0 345,0 398,0 398,0 404,0 410,-6 410,-12 410,-12 410,-24 410,-24 410,-30 404,-36 398,-36"/>
<text text-anchor="middle" x="371.5" y="-14.3" font-family="Helvetica,sans-Serif" font-size="14.00">pressure</text>
</g>
<!-- rotate&#45;&gt;pressure -->
<g id="edge3" class="edge">
<title>rotate&#45;&gt;pressure</title>
<path fill="none" stroke="black" stroke-width="1.2" d="M103.3,-15.23C111.76,-14.72 120.68,-14.26 129,-14 203.63,-11.65 222.36,-11.97 297,-14 305.26,-14.22 314.05,-14.59 322.56,-15.01"/>
<polygon fill="black" stroke="black" stroke-width="1.2" points="103.06,-11.74 93.3,-15.87 103.5,-18.72 103.06,-11.74"/>
<polygon fill="black" stroke="black" stroke-width="1.2" points="322.58,-18.52 332.75,-15.55 322.94,-11.53 322.58,-18.52"/>
</g>
<!-- vibration&#45;&gt;pressure -->
<g id="edge4" class="edge">
<title>vibration&#45;&gt;pressure</title>
<path fill="none" stroke="black" stroke-width="1.2" d="M297.06,-33.15C305.4,-31.43 314.34,-29.59 323,-27.8"/>
<polygon fill="black" stroke="black" stroke-width="1.2" points="323.9,-31.19 332.99,-25.74 322.49,-24.33 323.9,-31.19"/>
</g>
</g>
</svg>
