<?xml version="1.0" encoding="UTF-8" standalone="no"?>
<!DOCTYPE svg PUBLIC "-//W3C//DTD SVG 1.1//EN"
 "http://www.w3.org/Graphics/SVG/1.1/DTD/svg11.dtd">
<!-- Generated by graphviz version 2.50.0 (0)
 -->
<!-- Title: G Pages: 1 -->
<svg width="1303pt" height="734pt"
 viewBox="0.00 0.00 1303.00 734.00" xmlns="http://www.w3.org/2000/svg" xmlns:xlink="http://www.w3.org/1999/xlink">
<g id="graph0" class="graph" transform="scale(1 1) rotate(0) translate(4 730)">
<title>G</title>
<polygon fill="white" stroke="transparent" points="-4,4 -4,-730 1299,-730 1299,4 -4,4"/>
<text text-anchor="middle" x="647.5" y="-709.2" font-family="Times,serif" font-size="16.00">model=model4/cbnb_w_mixed.json [machine 50]</text>
<!-- volt -->
<g id="node1" class="node">
<title>volt</title>
<path fill="white" stroke="black" d="M42,-414C42,-414 12,-414 12,-414 6,-414 0,-408 0,-402 0,-402 0,-390 0,-390 0,-384 6,-378 12,-378 12,-378 42,-378 42,-378 48,-378 54,-384 54,-390 54,-390 54,-402 54,-402 54,-408 48,-414 42,-414"/>
<text text-anchor="middle" x="27" y="-392.3" font-family="Helvetica,sans-Serif" font-size="14.00">volt</text>
</g>
<!-- pressure -->
<g id="node3" class="node">
<title>pressure</title>
<path fill="white" stroke="black" d="M159,-414C159,-414 106,-414 106,-414 100,-414 94,-408 94,-402 94,-402 94,-390 94,-390 94,-384 100,-378 106,-378 106,-378 159,-378 159,-378 165,-378 171,-384 171,-390 171,-390 171,-402 171,-402 171,-408 165,-414 159,-414"/>
<text text-anchor="middle" x="132.5" y="-392.3" font-family="Helvetica,sans-Serif" font-size="14.00">pressure</text>
</g>
<!-- volt&#45;&gt;pressure -->
<g id="edge2" class="edge">
<title>volt&#45;&gt;pressure</title>
<path fill="none" stroke="black" stroke-width="1.2" d="M54.12,-396C63.1,-396 73.46,-396 83.62,-396"/>
<polygon fill="black" stroke="black" stroke-width="1.2" points="83.66,-399.5 93.66,-396 83.66,-392.5 83.66,-399.5"/>
</g>
<!-- err_error2 -->
<g id="node6" class="node">
<title>err_error2</title>
<path fill="white" stroke="black" d="M1142.5,-479C1142.5,-479 1081.5,-479 1081.5,-479 1075.5,-479 1069.5,-473 1069.5,-467 1069.5,-467 1069.5,-455 1069.5,-455 1069.5,-449 1075.5,-443 1081.5,-443 1081.5,-443 1142.5,-443 1142.5,-443 1148.5,-443 1154.5,-449 1154.5,-455 1154.5,-455 1154.5,-467 1154.5,-467 1154.5,-473 1148.5,-479 1142.5,-479"/>
<text text-anchor="middle" x="1112" y="-457.3" font-family="Helvetica,sans-Serif" font-size="14.00">err_error2</text>
</g>
<!-- volt&#45;&gt;err_error2 -->
<g id="edge5" class="edge">
<title>volt&#45;&gt;err_error2</title>
<path fill="none" stroke="black" stroke-width="1.2" d="M27.51,-414.07C27.3,-457.59 32.73,-569.48 90,-635 140.24,-692.48 172.66,-700 249,-700 249,-700 249,-700 871.5,-700 989.99,-700 1070.44,-551.62 1099.24,-488.69"/>
<polygon fill="black" stroke="black" stroke-width="1.2" points="1102.53,-489.91 1103.42,-479.36 1096.14,-487.05 1102.53,-489.91"/>
</g>
<!-- err_error3 -->
<g id="node7" class="node">
<title>err_error3</title>
<path fill="white" stroke="black" d="M1011.5,-498C1011.5,-498 950.5,-498 950.5,-498 944.5,-498 938.5,-492 938.5,-486 938.5,-486 938.5,-474 938.5,-474 938.5,-468 944.5,-462 950.5,-462 950.5,-462 1011.5,-462 1011.5,-462 1017.5,-462 1023.5,-468 1023.5,-474 1023.5,-474 1023.5,-486 1023.5,-486 1023.5,-492 1017.5,-498 1011.5,-498"/>
<text text-anchor="middle" x="981" y="-476.3" font-family="Helvetica,sans-Serif" font-size="14.00">err_error3</text>
</g>
<!-- volt&#45;&gt;err_error3 -->
<g id="edge6" class="edge">
<title>volt&#45;&gt;err_error3</title>
<path fill="none" stroke="black" stroke-width="1.2" d="M29,-414.16C31.99,-451.58 43.8,-538.11 90,-590 141.58,-647.94 171.43,-662 249,-662 249,-662 249,-662 758,-662 854.65,-662 932.27,-557.56 964.22,-506.91"/>
<polygon fill="black" stroke="black" stroke-width="1.2" points="967.38,-508.46 969.65,-498.12 961.42,-504.79 967.38,-508.46"/>
</g>
<!-- rotate -->
<g id="node2" class="node">
<title>rotate</title>
<path fill="white" stroke="black" d="M887,-444C887,-444 854,-444 854,-444 848,-444 842,-438 842,-432 842,-432 842,-420 842,-420 842,-414 848,-408 854,-408 854,-408 887,-408 887,-408 893,-408 899,-414 899,-420 899,-420 899,-432 899,-432 899,-438 893,-444 887,-444"/>
<text text-anchor="middle" x="870.5" y="-422.3" font-family="Helvetica,sans-Serif" font-size="14.00">rotate</text>
</g>
<!-- rotate&#45;&gt;volt -->
<g id="edge1" class="edge">
<title>rotate&#45;&gt;volt</title>
<path fill="none" stroke="black" stroke-width="1.2" d="M860,-444.13C849.15,-463.37 829.77,-493.63 806,-513 692.71,-605.31 642.63,-624 496.5,-624 249,-624 249,-624 249,-624 169.28,-624 144.15,-599.5 90,-541 58.92,-507.43 42,-455.9 33.99,-424.16"/>
<polygon fill="black" stroke="black" stroke-width="1.2" points="37.34,-423.12 31.61,-414.21 30.53,-424.75 37.34,-423.12"/>
</g>
<!-- rotate&#45;&gt;pressure -->
<g id="edge8" class="edge">
<title>rotate&#45;&gt;pressure</title>
<path fill="none" stroke="black" stroke-width="1.2" d="M841.9,-427.49C796.47,-429.8 703.1,-434 624,-434 370,-434 370,-434 370,-434 303.94,-434 228.81,-419.37 181.29,-408.27"/>
<polygon fill="black" stroke="black" stroke-width="1.2" points="181.83,-404.8 171.29,-405.88 180.21,-411.61 181.83,-404.8"/>
</g>
<!-- rotate&#45;&gt;err_error2 -->
<g id="edge10" class="edge">
<title>rotate&#45;&gt;err_error2</title>
<path fill="none" stroke="black" stroke-width="1.2" d="M899.44,-430.08C938.5,-435.79 1010.1,-446.26 1059.1,-453.42"/>
<polygon fill="black" stroke="black" stroke-width="1.2" points="1058.79,-456.91 1069.19,-454.89 1059.8,-449.98 1058.79,-456.91"/>
</g>
<!-- rotate&#45;&gt;err_error3 -->
<g id="edge11" class="edge">
<title>rotate&#45;&gt;err_error3</title>
<path fill="none" stroke="black" stroke-width="1.2" d="M908.43,-444.38C916.91,-448.6 926.01,-453.13 934.79,-457.5"/>
<polygon fill="black" stroke="black" stroke-width="1.2" points="909.67,-441.09 899.16,-439.77 906.55,-447.36 909.67,-441.09"/>
<polygon fill="black" stroke="black" stroke-width="1.2" points="933.27,-460.65 943.78,-461.97 936.39,-454.39 933.27,-460.65"/>
</g>
<!-- fail_comp2 -->
<g id="node15" class="node">
<title>fail_comp2</title>
<path fill="white" stroke="black" d="M1015,-368C1015,-368 947,-368 947,-368 941,-368 935,-362 935,-356 935,-356 935,-344 935,-344 935,-338 941,-332 947,-332 947,-332 1015,-332 1015,-332 1021,-332 1027,-338 1027,-344 1027,-344 1027,-356 1027,-356 1027,-362 1021,-368 1015,-368"/>
<text text-anchor="middle" x="981" y="-346.3" font-family="Helvetica,sans-Serif" font-size="14.00">fail_comp2</text>
</g>
<!-- rotate&#45;&gt;fail_comp2 -->
<g id="edge15" class="edge">
<title>rotate&#45;&gt;fail_comp2</title>
<path fill="none" stroke="black" stroke-width="1.2" d="M897.21,-407.99C911.7,-397.84 929.98,-385.03 945.68,-374.04"/>
<polygon fill="black" stroke="black" stroke-width="1.2" points="947.91,-376.75 954.1,-368.15 943.9,-371.02 947.91,-376.75"/>
</g>
<!-- vibration -->
<g id="node4" class="node">
<title>vibration</title>
<path fill="white" stroke="black" d="M277,-368C277,-368 223,-368 223,-368 217,-368 211,-362 211,-356 211,-356 211,-344 211,-344 211,-338 217,-332 223,-332 223,-332 277,-332 277,-332 283,-332 289,-338 289,-344 289,-344 289,-356 289,-356 289,-362 283,-368 277,-368"/>
<text text-anchor="middle" x="250" y="-346.3" font-family="Helvetica,sans-Serif" font-size="14.00">vibration</text>
</g>
<!-- pressure&#45;&gt;vibration -->
<g id="edge16" class="edge">
<title>pressure&#45;&gt;vibration</title>
<path fill="none" stroke="black" stroke-width="1.2" d="M180.71,-377.2C187.41,-374.53 194.31,-371.78 201.03,-369.1"/>
<polygon fill="black" stroke="black" stroke-width="1.2" points="179.31,-373.99 171.32,-380.94 181.9,-380.49 179.31,-373.99"/>
<polygon fill="black" stroke="black" stroke-width="1.2" points="202.71,-372.21 210.7,-365.25 200.12,-365.7 202.71,-372.21"/>
</g>
<!-- pressure&#45;&gt;err_error3 -->
<g id="edge18" class="edge">
<title>pressure&#45;&gt;err_error3</title>
<path fill="none" stroke="black" stroke-width="1.2" d="M146.65,-423.48C163.36,-457.22 192.26,-511.51 211,-524 270.46,-563.65 298.53,-548 370,-548 370,-548 370,-548 496.5,-548 655.09,-548 840.12,-511.68 928.24,-492.13"/>
<polygon fill="black" stroke="black" stroke-width="1.2" points="149.62,-421.6 142.08,-414.15 143.34,-424.67 149.62,-421.6"/>
<polygon fill="black" stroke="black" stroke-width="1.2" points="929.25,-495.49 938.24,-489.89 927.72,-488.66 929.25,-495.49"/>
</g>
<!-- mnt_comp1 -->
<g id="node10" class="node">
<title>mnt_comp1</title>
<path fill="white" stroke="black" d="M660,-178C660,-178 586,-178 586,-178 580,-178 574,-172 574,-166 574,-166 574,-154 574,-154 574,-148 580,-142 586,-142 586,-142 660,-142 660,-142 666,-142 672,-148 672,-154 672,-154 672,-166 672,-166 672,-172 666,-178 660,-178"/>
<text text-anchor="middle" x="623" y="-156.3" font-family="Helvetica,sans-Serif" font-size="14.00">mnt_comp1</text>
</g>
<!-- pressure&#45;&gt;mnt_comp1 -->
<g id="edge19" class="edge">
<title>pressure&#45;&gt;mnt_comp1</title>
<path fill="none" stroke="black" stroke-width="1.2" d="M146.37,-377.82C185.14,-325.05 307.16,-173.03 453,-133 489.74,-122.91 532.08,-129.71 565.19,-139"/>
<polygon fill="black" stroke="black" stroke-width="1.2" points="564.57,-142.47 575.15,-141.95 566.55,-135.75 564.57,-142.47"/>
</g>
<!-- mnt_comp3 -->
<g id="node12" class="node">
<title>mnt_comp3</title>
<path fill="white" stroke="black" d="M794,-368C794,-368 720,-368 720,-368 714,-368 708,-362 708,-356 708,-356 708,-344 708,-344 708,-338 714,-332 720,-332 720,-332 794,-332 794,-332 800,-332 806,-338 806,-344 806,-344 806,-356 806,-356 806,-362 800,-368 794,-368"/>
<text text-anchor="middle" x="757" y="-346.3" font-family="Helvetica,sans-Serif" font-size="14.00">mnt_comp3</text>
</g>
<!-- pressure&#45;&gt;mnt_comp3 -->
<g id="edge21" class="edge">
<title>pressure&#45;&gt;mnt_comp3</title>
<path fill="none" stroke="black" stroke-width="1.2" d="M171.04,-393.23C275.74,-385.49 571.55,-363.63 697.76,-354.3"/>
<polygon fill="black" stroke="black" stroke-width="1.2" points="698.28,-357.77 708,-353.55 697.77,-350.79 698.28,-357.77"/>
</g>
<!-- vibration&#45;&gt;volt -->
<g id="edge3" class="edge">
<title>vibration&#45;&gt;volt</title>
<path fill="none" stroke="black" stroke-width="1.2" d="M210.82,-351.44C178.24,-353.41 130.38,-358.05 90,-369 81.19,-371.39 72.01,-374.82 63.51,-378.43"/>
<polygon fill="black" stroke="black" stroke-width="1.2" points="61.96,-375.29 54.24,-382.55 64.8,-381.69 61.96,-375.29"/>
</g>
<!-- vibration&#45;&gt;rotate -->
<g id="edge9" class="edge">
<title>vibration&#45;&gt;rotate</title>
<path fill="none" stroke="black" stroke-width="1.2" d="M289.22,-354.7C400.21,-368.33 721.59,-407.83 831.85,-421.37"/>
<polygon fill="black" stroke="black" stroke-width="1.2" points="831.5,-424.86 841.85,-422.6 832.35,-417.91 831.5,-424.86"/>
</g>
<!-- vibration&#45;&gt;err_error2 -->
<g id="edge22" class="edge">
<title>vibration&#45;&gt;err_error2</title>
<path fill="none" stroke="black" stroke-width="1.2" d="M299.48,-341.9C449.26,-317.85 902.05,-252.78 1027,-323 1068.7,-346.43 1092.12,-399.89 1103.11,-432.97"/>
<polygon fill="black" stroke="black" stroke-width="1.2" points="298.54,-338.5 289.23,-343.56 299.66,-345.41 298.54,-338.5"/>
<polygon fill="black" stroke="black" stroke-width="1.2" points="1099.9,-434.44 1106.25,-442.93 1106.58,-432.34 1099.9,-434.44"/>
</g>
<!-- vibration&#45;&gt;err_error3 -->
<g id="edge23" class="edge">
<title>vibration&#45;&gt;err_error3</title>
<path fill="none" stroke="black" stroke-width="1.2" d="M270.79,-368C310.23,-401.94 402.77,-472 494.5,-472 494.5,-472 494.5,-472 758,-472 816.32,-472 883.2,-474.79 928.18,-477.08"/>
<polygon fill="black" stroke="black" stroke-width="1.2" points="928.11,-480.58 938.28,-477.6 928.48,-473.59 928.11,-480.58"/>
</g>
<!-- mnt_comp4 -->
<g id="node13" class="node">
<title>mnt_comp4</title>
<path fill="white" stroke="black" d="M1283,-189C1283,-189 1209,-189 1209,-189 1203,-189 1197,-183 1197,-177 1197,-177 1197,-165 1197,-165 1197,-159 1203,-153 1209,-153 1209,-153 1283,-153 1283,-153 1289,-153 1295,-159 1295,-165 1295,-165 1295,-177 1295,-177 1295,-183 1289,-189 1283,-189"/>
<text text-anchor="middle" x="1246" y="-167.3" font-family="Helvetica,sans-Serif" font-size="14.00">mnt_comp4</text>
</g>
<!-- vibration&#45;&gt;mnt_comp4 -->
<g id="edge26" class="edge">
<title>vibration&#45;&gt;mnt_comp4</title>
<path fill="none" stroke="black" stroke-width="1.2" d="M256.96,-331.57C267.08,-302.6 289.99,-245.9 325,-209 346.98,-185.83 614.88,-38 622,-38 622,-38 622,-38 982,-38 1076.85,-38 1172.23,-107.74 1217.65,-146.21"/>
<polygon fill="black" stroke="black" stroke-width="1.2" points="1215.42,-148.91 1225.28,-152.79 1219.98,-143.61 1215.42,-148.91"/>
</g>
<!-- fail_comp1 -->
<g id="node14" class="node">
<title>fail_comp1</title>
<path fill="white" stroke="black" d="M405,-254C405,-254 337,-254 337,-254 331,-254 325,-248 325,-242 325,-242 325,-230 325,-230 325,-224 331,-218 337,-218 337,-218 405,-218 405,-218 411,-218 417,-224 417,-230 417,-230 417,-242 417,-242 417,-248 411,-254 405,-254"/>
<text text-anchor="middle" x="371" y="-232.3" font-family="Helvetica,sans-Serif" font-size="14.00">fail_comp1</text>
</g>
<!-- vibration&#45;&gt;fail_comp1 -->
<g id="edge27" class="edge">
<title>vibration&#45;&gt;fail_comp1</title>
<path fill="none" stroke="black" stroke-width="1.2" d="M265.55,-331.68C279.78,-314.32 302.51,-288.02 325,-268 327.98,-265.35 331.17,-262.72 334.44,-260.17"/>
<polygon fill="black" stroke="black" stroke-width="1.2" points="336.72,-262.83 342.61,-254.03 332.52,-257.23 336.72,-262.83"/>
</g>
<!-- err_error1 -->
<g id="node5" class="node">
<title>err_error1</title>
<path fill="white" stroke="black" d="M526,-178C526,-178 465,-178 465,-178 459,-178 453,-172 453,-166 453,-166 453,-154 453,-154 453,-148 459,-142 465,-142 465,-142 526,-142 526,-142 532,-142 538,-148 538,-154 538,-154 538,-166 538,-166 538,-172 532,-178 526,-178"/>
<text text-anchor="middle" x="495.5" y="-156.3" font-family="Helvetica,sans-Serif" font-size="14.00">err_error1</text>
</g>
<!-- err_error1&#45;&gt;volt -->
<g id="edge4" class="edge">
<title>err_error1&#45;&gt;volt</title>
<path fill="none" stroke="black" stroke-width="1.2" d="M452.69,-168.85C417.71,-177.01 366.95,-190.64 325,-209 221.36,-254.35 111.83,-332.28 59.47,-371.68"/>
<polygon fill="black" stroke="black" stroke-width="1.2" points="57.13,-369.06 51.27,-377.89 61.35,-374.64 57.13,-369.06"/>
</g>
<!-- err_error1&#45;&gt;mnt_comp1 -->
<g id="edge28" class="edge">
<title>err_error1&#45;&gt;mnt_comp1</title>
<path fill="none" stroke="black" stroke-width="1.2" d="M538.29,-160C546.49,-160 555.23,-160 563.85,-160"/>
<polygon fill="black" stroke="black" stroke-width="1.2" points="563.88,-163.5 573.88,-160 563.88,-156.5 563.88,-163.5"/>
</g>
<!-- err_error2&#45;&gt;pressure -->
<g id="edge17" class="edge">
<title>err_error2&#45;&gt;pressure</title>
<path fill="none" stroke="black" stroke-width="1.2" d="M1085.92,-479.04C1069.91,-489.42 1048.24,-501.48 1027,-507 853.64,-552.05 803.12,-510 624,-510 370,-510 370,-510 370,-510 288.17,-510 204.8,-453.93 162.29,-420.44"/>
<polygon fill="black" stroke="black" stroke-width="1.2" points="164.34,-417.59 154.35,-414.06 159.96,-423.05 164.34,-417.59"/>
</g>
<!-- err_error4 -->
<g id="node8" class="node">
<title>err_error4</title>
<path fill="white" stroke="black" d="M1276.5,-479C1276.5,-479 1215.5,-479 1215.5,-479 1209.5,-479 1203.5,-473 1203.5,-467 1203.5,-467 1203.5,-455 1203.5,-455 1203.5,-449 1209.5,-443 1215.5,-443 1215.5,-443 1276.5,-443 1276.5,-443 1282.5,-443 1288.5,-449 1288.5,-455 1288.5,-455 1288.5,-467 1288.5,-467 1288.5,-473 1282.5,-479 1276.5,-479"/>
<text text-anchor="middle" x="1246" y="-457.3" font-family="Helvetica,sans-Serif" font-size="14.00">err_error4</text>
</g>
<!-- err_error2&#45;&gt;err_error4 -->
<g id="edge31" class="edge">
<title>err_error2&#45;&gt;err_error4</title>
<path fill="none" stroke="black" stroke-width="1.2" d="M1154.77,-461C1166.8,-461 1180.09,-461 1192.68,-461"/>
<polygon fill="black" stroke="black" stroke-width="1.2" points="1193.05,-464.5 1203.05,-461 1193.05,-457.5 1193.05,-464.5"/>
</g>
<!-- err_error3&#45;&gt;err_error2 -->
<g id="edge30" class="edge">
<title>err_error3&#45;&gt;err_error2</title>
<path fill="none" stroke="black" stroke-width="1.2" d="M1023.53,-473.88C1034.81,-472.22 1047.16,-470.4 1058.95,-468.67"/>
<polygon fill="black" stroke="black" stroke-width="1.2" points="1059.73,-472.09 1069.11,-467.17 1058.71,-465.16 1059.73,-472.09"/>
</g>
<!-- err_error5 -->
<g id="node9" class="node">
<title>err_error5</title>
<path fill="white" stroke="black" d="M163,-532C163,-532 102,-532 102,-532 96,-532 90,-526 90,-520 90,-520 90,-508 90,-508 90,-502 96,-496 102,-496 102,-496 163,-496 163,-496 169,-496 175,-502 175,-508 175,-508 175,-520 175,-520 175,-526 169,-532 163,-532"/>
<text text-anchor="middle" x="132.5" y="-510.3" font-family="Helvetica,sans-Serif" font-size="14.00">err_error5</text>
</g>
<!-- err_error5&#45;&gt;rotate -->
<g id="edge12" class="edge">
<title>err_error5&#45;&gt;rotate</title>
<path fill="none" stroke="black" stroke-width="1.2" d="M156.97,-532.04C171.7,-542.45 191.54,-554.85 211,-562 278.08,-586.65 298.53,-586 370,-586 370,-586 370,-586 496.5,-586 632.78,-586 776.04,-494.68 837.95,-450.02"/>
<polygon fill="black" stroke="black" stroke-width="1.2" points="840.12,-452.77 846.13,-444.04 835.99,-447.11 840.12,-452.77"/>
</g>
<!-- err_error5&#45;&gt;vibration -->
<g id="edge24" class="edge">
<title>err_error5&#45;&gt;vibration</title>
<path fill="none" stroke="black" stroke-width="1.2" d="M146.3,-495.82C166.68,-466.88 206.61,-410.19 230.23,-376.66"/>
<polygon fill="black" stroke="black" stroke-width="1.2" points="233.24,-378.45 236.14,-368.26 227.52,-374.42 233.24,-378.45"/>
</g>
<!-- mnt_comp1&#45;&gt;mnt_comp3 -->
<g id="edge33" class="edge">
<title>mnt_comp1&#45;&gt;mnt_comp3</title>
<path fill="none" stroke="black" stroke-width="1.2" d="M636.66,-178.22C660.11,-211.98 710.42,-284.39 737.63,-323.55"/>
<polygon fill="black" stroke="black" stroke-width="1.2" points="734.8,-325.62 743.38,-331.84 740.55,-321.63 734.8,-325.62"/>
</g>
<!-- mnt_comp1&#45;&gt;mnt_comp4 -->
<g id="edge34" class="edge">
<title>mnt_comp1&#45;&gt;mnt_comp4</title>
<path fill="none" stroke="black" stroke-width="1.2" d="M672.43,-157.49C721.94,-155.14 801.06,-152 869.5,-152 869.5,-152 869.5,-152 982,-152 1052.38,-152 1133.09,-158.85 1186.33,-164.33"/>
<polygon fill="black" stroke="black" stroke-width="1.2" points="1186.29,-167.84 1196.6,-165.4 1187.02,-160.88 1186.29,-167.84"/>
</g>
<!-- mnt_comp2 -->
<g id="node11" class="node">
<title>mnt_comp2</title>
<path fill="white" stroke="black" d="M1149,-269C1149,-269 1075,-269 1075,-269 1069,-269 1063,-263 1063,-257 1063,-257 1063,-245 1063,-245 1063,-239 1069,-233 1075,-233 1075,-233 1149,-233 1149,-233 1155,-233 1161,-239 1161,-245 1161,-245 1161,-257 1161,-257 1161,-263 1155,-269 1149,-269"/>
<text text-anchor="middle" x="1112" y="-247.3" font-family="Helvetica,sans-Serif" font-size="14.00">mnt_comp2</text>
</g>
<!-- mnt_comp2&#45;&gt;pressure -->
<g id="edge20" class="edge">
<title>mnt_comp2&#45;&gt;pressure</title>
<path fill="none" stroke="black" stroke-width="1.2" d="M1073.35,-232.99C957.22,-180.11 596.08,-35.57 325,-144 267.77,-166.89 250.38,-175.58 211,-223 174.36,-267.13 151.68,-331.36 140.95,-367.87"/>
<polygon fill="black" stroke="black" stroke-width="1.2" points="137.48,-367.25 138.11,-377.82 144.22,-369.16 137.48,-367.25"/>
</g>
<!-- mnt_comp2&#45;&gt;vibration -->
<g id="edge25" class="edge">
<title>mnt_comp2&#45;&gt;vibration</title>
<path fill="none" stroke="black" stroke-width="1.2" d="M1062.91,-251.46C914.25,-253.35 463.8,-262.59 325,-306 310.54,-310.52 295.92,-318.37 283.54,-326.19"/>
<polygon fill="black" stroke="black" stroke-width="1.2" points="281.39,-323.41 274.96,-331.83 285.24,-329.26 281.39,-323.41"/>
</g>
<!-- mnt_comp2&#45;&gt;mnt_comp4 -->
<g id="edge36" class="edge">
<title>mnt_comp2&#45;&gt;mnt_comp4</title>
<path fill="none" stroke="black" stroke-width="1.2" d="M1142.95,-232.85C1161.77,-221.44 1186.23,-206.62 1206.48,-194.34"/>
<polygon fill="black" stroke="black" stroke-width="1.2" points="1208.43,-197.26 1215.17,-189.08 1204.8,-191.27 1208.43,-197.26"/>
</g>
<!-- mnt_comp3&#45;&gt;rotate -->
<g id="edge13" class="edge">
<title>mnt_comp3&#45;&gt;rotate</title>
<path fill="none" stroke="black" stroke-width="1.2" d="M785.22,-368.02C792.02,-372.56 799.29,-377.44 806,-382 815.51,-388.47 825.78,-395.54 835.22,-402.08"/>
<polygon fill="black" stroke="black" stroke-width="1.2" points="833.41,-405.08 843.62,-407.91 837.4,-399.33 833.41,-405.08"/>
</g>
<!-- mnt_comp4&#45;&gt;volt -->
<g id="edge7" class="edge">
<title>mnt_comp4&#45;&gt;volt</title>
<path fill="none" stroke="black" stroke-width="1.2" d="M1237.04,-152.57C1224.67,-126.09 1198.29,-77.55 1161,-51 1093.62,-3.02 1064.72,0 982,0 249,0 249,0 249,0 80.29,0 39.17,-277.47 30.25,-367.89"/>
<polygon fill="black" stroke="black" stroke-width="1.2" points="26.76,-367.67 29.32,-377.96 33.73,-368.32 26.76,-367.67"/>
</g>
<!-- mnt_comp4&#45;&gt;rotate -->
<g id="edge14" class="edge">
<title>mnt_comp4&#45;&gt;rotate</title>
<path fill="none" stroke="black" stroke-width="1.2" d="M1232.95,-189.25C1217.72,-211.57 1189.97,-249.86 1161,-278 1107.88,-329.59 1092.99,-343.41 1027,-377 988.87,-396.4 941.56,-409.98 909.2,-417.84"/>
<polygon fill="black" stroke="black" stroke-width="1.2" points="908.18,-414.48 899.25,-420.19 909.79,-421.3 908.18,-414.48"/>
</g>
<!-- fail_comp1&#45;&gt;err_error1 -->
<g id="edge29" class="edge">
<title>fail_comp1&#45;&gt;err_error1</title>
<path fill="none" stroke="black" stroke-width="1.2" d="M401.03,-217.99C417.69,-207.65 438.8,-194.56 456.73,-183.43"/>
<polygon fill="black" stroke="black" stroke-width="1.2" points="458.6,-186.39 465.25,-178.15 454.91,-180.44 458.6,-186.39"/>
</g>
<!-- fail_comp1&#45;&gt;mnt_comp1 -->
<g id="edge35" class="edge">
<title>fail_comp1&#45;&gt;mnt_comp1</title>
<path fill="none" stroke="black" stroke-width="1.2" d="M417.18,-222.98C450.61,-213.27 497.22,-199.57 538,-187 546.4,-184.41 555.26,-181.62 563.95,-178.86"/>
<polygon fill="black" stroke="black" stroke-width="1.2" points="565.19,-182.14 573.65,-175.76 563.05,-175.47 565.19,-182.14"/>
</g>
<!-- fail_comp1&#45;&gt;mnt_comp4 -->
<g id="edge39" class="edge">
<title>fail_comp1&#45;&gt;mnt_comp4</title>
<path fill="none" stroke="black" stroke-width="1.2" d="M417.1,-232.64C563.15,-221.77 1023.19,-187.51 1186.66,-175.34"/>
<polygon fill="black" stroke="black" stroke-width="1.2" points="1187.28,-178.81 1196.99,-174.57 1186.76,-171.83 1187.28,-178.81"/>
</g>
<!-- fail_comp2&#45;&gt;err_error2 -->
<g id="edge32" class="edge">
<title>fail_comp2&#45;&gt;err_error2</title>
<path fill="none" stroke="black" stroke-width="1.2" d="M1003.01,-368.08C1024.57,-386.63 1058.24,-415.6 1082.25,-436.27"/>
<polygon fill="black" stroke="black" stroke-width="1.2" points="1080.13,-439.06 1090,-442.93 1084.7,-433.75 1080.13,-439.06"/>
</g>
<!-- fail_comp2&#45;&gt;mnt_comp2 -->
<g id="edge37" class="edge">
<title>fail_comp2&#45;&gt;mnt_comp2</title>
<path fill="none" stroke="black" stroke-width="1.2" d="M1005.66,-331.84C1026.39,-315.93 1056.68,-292.69 1079.47,-275.2"/>
<polygon fill="black" stroke="black" stroke-width="1.2" points="1081.69,-277.91 1087.49,-269.04 1077.43,-272.35 1081.69,-277.91"/>
</g>
<!-- fail_comp2&#45;&gt;mnt_comp3 -->
<g id="edge38" class="edge">
<title>fail_comp2&#45;&gt;mnt_comp3</title>
<path fill="none" stroke="black" stroke-width="1.2" d="M934.95,-350C900.75,-350 853.44,-350 816.34,-350"/>
<polygon fill="black" stroke="black" stroke-width="1.2" points="816.17,-346.5 806.17,-350 816.17,-353.5 816.17,-346.5"/>
</g>
</g>
</svg>
