<?xml version="1.0" encoding="UTF-8" standalone="no"?>
<!DOCTYPE svg PUBLIC "-//W3C//DTD SVG 1.1//EN"
 "http://www.w3.org/Graphics/SVG/1.1/DTD/svg11.dtd">
<!-- Generated by graphviz version 2.50.0 (0)
 -->
<!-- Title: G Pages: 1 -->
<svg width="451pt" height="178pt"
 viewBox="0.00 0.00 451.00 178.00" xmlns="http://www.w3.org/2000/svg" xmlns:xlink="http://www.w3.org/1999/xlink">
<g id="graph0" class="graph" transform="scale(1 1) rotate(0) translate(4 174)">
<title>G</title>
<polygon fill="white" stroke="transparent" points="-4,4 -4,-174 447,-174 447,4 -4,4"/>
<text text-anchor="middle" x="221.5" y="-153.2" font-family="Times,serif" font-size="16.00">model=model1/cbnb_e_telemetry.json [machine 58]</text>
<!-- volt -->
<g id="node1" class="node">
<title>volt</title>
<path fill="white" stroke="black" d="M293.5,-36C293.5,-36 263.5,-36 263.5,-36 257.5,-36 251.5,-30 251.5,-24 251.5,-24 251.5,-12 251.5,-12 251.5,-6 257.5,0 263.5,0 263.5,0 293.5,0 293.5,0 299.5,0 305.5,-6 305.5,-12 305.5,-12 305.5,-24 305.5,-24 305.5,-30 299.5,-36 293.5,-36"/>
<text text-anchor="middle" x="278.5" y="-14.3" font-family="Helvetica,sans-Serif" font-size="14.00">volt</text>
</g>
<!-- rotate -->
<g id="node2" class="node">
<title>rotate</title>
<path fill="white" stroke="black" d="M193,-36C193,-36 160,-36 160,-36 154,-36 148,-30 148,-24 148,-24 148,-12 148,-12 148,-6 154,0 160,0 160,0 193,0 193,0 199,0 205,-6 205,-12 205,-12 205,-24 205,-24 205,-30 199,-36 193,-36"/>
<text text-anchor="middle" x="176.5" y="-14.3" font-family="Helvetica,sans-Serif" font-size="14.00">rotate</text>
</g>
<!-- rotate&#45;&gt;volt -->
<g id="edge1" class="edge">
<title>rotate&#45;&gt;volt</title>
<path fill="none" stroke="black" stroke-width="1.2" d="M205.09,-18C216.27,-18 229.33,-18 241.26,-18"/>
<polygon fill="black" stroke="black" stroke-width="1.2" points="241.38,-21.5 251.38,-18 241.38,-14.5 241.38,-21.5"/>
</g>
<!-- pressure -->
<g id="node3" class="node">
<title>pressure</title>
<path fill="white" stroke="black" d="M203,-90C203,-90 150,-90 150,-90 144,-90 138,-84 138,-78 138,-78 138,-66 138,-66 138,-60 144,-54 150,-54 150,-54 203,-54 203,-54 209,-54 215,-60 215,-66 215,-66 215,-78 215,-78 215,-84 209,-90 203,-90"/>
<text text-anchor="middle" x="176.5" y="-68.3" font-family="Helvetica,sans-Serif" font-size="14.00">pressure</text>
</g>
<!-- vibration -->
<g id="node4" class="node">
<title>vibration</title>
<path fill="white" stroke="black" d="M203.5,-144C203.5,-144 149.5,-144 149.5,-144 143.5,-144 137.5,-138 137.5,-132 137.5,-132 137.5,-120 137.5,-120 137.5,-114 143.5,-108 149.5,-108 149.5,-108 203.5,-108 203.5,-108 209.5,-108 215.5,-114 215.5,-120 215.5,-120 215.5,-132 215.5,-132 215.5,-138 209.5,-144 203.5,-144"/>
<text text-anchor="middle" x="176.5" y="-122.3" font-family="Helvetica,sans-Serif" font-size="14.00">vibration</text>
</g>
</g>
</svg>
