<?xml version="1.0" encoding="UTF-8" standalone="no"?>
<!DOCTYPE svg PUBLIC "-//W3C//DTD SVG 1.1//EN"
 "http://www.w3.org/Graphics/SVG/1.1/DTD/svg11.dtd">
<!-- Generated by graphviz version 2.50.0 (0)
 -->
<!-- Title: G Pages: 1 -->
<svg width="1317pt" height="636pt"
 viewBox="0.00 0.00 1317.00 636.00" xmlns="http://www.w3.org/2000/svg" xmlns:xlink="http://www.w3.org/1999/xlink">
<g id="graph0" class="graph" transform="scale(1 1) rotate(0) translate(4 632)">
<title>G</title>
<polygon fill="white" stroke="transparent" points="-4,4 -4,-632 1313,-632 1313,4 -4,4"/>
<text text-anchor="middle" x="654.5" y="-611.2" font-family="Times,serif" font-size="16.00">model=model4/cbnb_w_mixed.json [machine 83]</text>
<!-- volt -->
<g id="node1" class="node">
<title>volt</title>
<path fill="white" stroke="black" d="M42,-316C42,-316 12,-316 12,-316 6,-316 0,-310 0,-304 0,-304 0,-292 0,-292 0,-286 6,-280 12,-280 12,-280 42,-280 42,-280 48,-280 54,-286 54,-292 54,-292 54,-304 54,-304 54,-310 48,-316 42,-316"/>
<text text-anchor="middle" x="27" y="-294.3" font-family="Helvetica,sans-Serif" font-size="14.00">volt</text>
</g>
<!-- vibration -->
<g id="node4" class="node">
<title>vibration</title>
<path fill="white" stroke="black" d="M156,-377C156,-377 102,-377 102,-377 96,-377 90,-371 90,-365 90,-365 90,-353 90,-353 90,-347 96,-341 102,-341 102,-341 156,-341 156,-341 162,-341 168,-347 168,-353 168,-353 168,-365 168,-365 168,-371 162,-377 156,-377"/>
<text text-anchor="middle" x="129" y="-355.3" font-family="Helvetica,sans-Serif" font-size="14.00">vibration</text>
</g>
<!-- volt&#45;&gt;vibration -->
<g id="edge2" class="edge">
<title>volt&#45;&gt;vibration</title>
<path fill="none" stroke="black" stroke-width="1.2" d="M54.01,-313.87C64.8,-320.45 77.55,-328.22 89.39,-335.45"/>
<polygon fill="black" stroke="black" stroke-width="1.2" points="87.87,-338.62 98.23,-340.84 91.51,-332.64 87.87,-338.62"/>
</g>
<!-- err_error1 -->
<g id="node5" class="node">
<title>err_error1</title>
<path fill="white" stroke="black" d="M277,-270C277,-270 216,-270 216,-270 210,-270 204,-264 204,-258 204,-258 204,-246 204,-246 204,-240 210,-234 216,-234 216,-234 277,-234 277,-234 283,-234 289,-240 289,-246 289,-246 289,-258 289,-258 289,-264 283,-270 277,-270"/>
<text text-anchor="middle" x="246.5" y="-248.3" font-family="Helvetica,sans-Serif" font-size="14.00">err_error1</text>
</g>
<!-- volt&#45;&gt;err_error1 -->
<g id="edge3" class="edge">
<title>volt&#45;&gt;err_error1</title>
<path fill="none" stroke="black" stroke-width="1.2" d="M64.2,-289.7C72.66,-287.8 81.64,-285.8 90,-284 124.61,-276.53 163.65,-268.5 193.95,-262.35"/>
<polygon fill="black" stroke="black" stroke-width="1.2" points="63.2,-286.34 54.22,-291.96 64.75,-293.17 63.2,-286.34"/>
<polygon fill="black" stroke="black" stroke-width="1.2" points="194.77,-265.76 203.87,-260.34 193.38,-258.9 194.77,-265.76"/>
</g>
<!-- err_error2 -->
<g id="node6" class="node">
<title>err_error2</title>
<path fill="white" stroke="black" d="M398,-308C398,-308 337,-308 337,-308 331,-308 325,-302 325,-296 325,-296 325,-284 325,-284 325,-278 331,-272 337,-272 337,-272 398,-272 398,-272 404,-272 410,-278 410,-284 410,-284 410,-296 410,-296 410,-302 404,-308 398,-308"/>
<text text-anchor="middle" x="367.5" y="-286.3" font-family="Helvetica,sans-Serif" font-size="14.00">err_error2</text>
</g>
<!-- volt&#45;&gt;err_error2 -->
<g id="edge4" class="edge">
<title>volt&#45;&gt;err_error2</title>
<path fill="none" stroke="black" stroke-width="1.2" d="M54.28,-297.38C110.02,-296.06 241,-292.97 314.37,-291.23"/>
<polygon fill="black" stroke="black" stroke-width="1.2" points="314.85,-294.72 324.76,-290.99 314.68,-287.72 314.85,-294.72"/>
</g>
<!-- fail_comp1 -->
<g id="node14" class="node">
<title>fail_comp1</title>
<path fill="white" stroke="black" d="M654,-102C654,-102 586,-102 586,-102 580,-102 574,-96 574,-90 574,-90 574,-78 574,-78 574,-72 580,-66 586,-66 586,-66 654,-66 654,-66 660,-66 666,-72 666,-78 666,-78 666,-90 666,-90 666,-96 660,-102 654,-102"/>
<text text-anchor="middle" x="620" y="-80.3" font-family="Helvetica,sans-Serif" font-size="14.00">fail_comp1</text>
</g>
<!-- volt&#45;&gt;fail_comp1 -->
<g id="edge9" class="edge">
<title>volt&#45;&gt;fail_comp1</title>
<path fill="none" stroke="black" stroke-width="1.2" d="M40.07,-270.47C67.48,-212.68 140.34,-84 245.5,-84 245.5,-84 245.5,-84 368.5,-84 435.63,-84 512.89,-84 563.64,-84"/>
<polygon fill="black" stroke="black" stroke-width="1.2" points="36.8,-269.21 35.77,-279.75 43.15,-272.15 36.8,-269.21"/>
<polygon fill="black" stroke="black" stroke-width="1.2" points="563.75,-87.5 573.75,-84 563.75,-80.5 563.75,-87.5"/>
</g>
<!-- rotate -->
<g id="node2" class="node">
<title>rotate</title>
<path fill="white" stroke="black" d="M636.5,-384C636.5,-384 603.5,-384 603.5,-384 597.5,-384 591.5,-378 591.5,-372 591.5,-372 591.5,-360 591.5,-360 591.5,-354 597.5,-348 603.5,-348 603.5,-348 636.5,-348 636.5,-348 642.5,-348 648.5,-354 648.5,-360 648.5,-360 648.5,-372 648.5,-372 648.5,-378 642.5,-384 636.5,-384"/>
<text text-anchor="middle" x="620" y="-362.3" font-family="Helvetica,sans-Serif" font-size="14.00">rotate</text>
</g>
<!-- rotate&#45;&gt;volt -->
<g id="edge1" class="edge">
<title>rotate&#45;&gt;volt</title>
<path fill="none" stroke="black" stroke-width="1.2" d="M591.38,-376.01C509.3,-403.97 261.94,-475.19 90,-386 65.65,-373.37 48.85,-346.3 38.93,-325.5"/>
<polygon fill="black" stroke="black" stroke-width="1.2" points="42.03,-323.85 34.74,-316.17 35.65,-326.72 42.03,-323.85"/>
</g>
<!-- pressure -->
<g id="node3" class="node">
<title>pressure</title>
<path fill="white" stroke="black" d="M767,-346C767,-346 714,-346 714,-346 708,-346 702,-340 702,-334 702,-334 702,-322 702,-322 702,-316 708,-310 714,-310 714,-310 767,-310 767,-310 773,-310 779,-316 779,-322 779,-322 779,-334 779,-334 779,-340 773,-346 767,-346"/>
<text text-anchor="middle" x="740.5" y="-324.3" font-family="Helvetica,sans-Serif" font-size="14.00">pressure</text>
</g>
<!-- rotate&#45;&gt;pressure -->
<g id="edge10" class="edge">
<title>rotate&#45;&gt;pressure</title>
<path fill="none" stroke="black" stroke-width="1.2" d="M658.43,-354C669.07,-350.59 680.8,-346.82 691.96,-343.24"/>
<polygon fill="black" stroke="black" stroke-width="1.2" points="657.24,-350.7 648.78,-357.09 659.37,-357.37 657.24,-350.7"/>
<polygon fill="black" stroke="black" stroke-width="1.2" points="693.12,-346.55 701.57,-340.16 690.98,-339.88 693.12,-346.55"/>
</g>
<!-- rotate&#45;&gt;err_error2 -->
<g id="edge11" class="edge">
<title>rotate&#45;&gt;err_error2</title>
<path fill="none" stroke="black" stroke-width="1.2" d="M581.46,-354.61C538.49,-341.58 467.87,-320.15 419.83,-305.57"/>
<polygon fill="black" stroke="black" stroke-width="1.2" points="580.65,-358.02 591.24,-357.58 582.69,-351.32 580.65,-358.02"/>
<polygon fill="black" stroke="black" stroke-width="1.2" points="420.73,-302.19 410.15,-302.64 418.7,-308.89 420.73,-302.19"/>
</g>
<!-- err_error5 -->
<g id="node9" class="node">
<title>err_error5</title>
<path fill="white" stroke="black" d="M894.5,-506C894.5,-506 833.5,-506 833.5,-506 827.5,-506 821.5,-500 821.5,-494 821.5,-494 821.5,-482 821.5,-482 821.5,-476 827.5,-470 833.5,-470 833.5,-470 894.5,-470 894.5,-470 900.5,-470 906.5,-476 906.5,-482 906.5,-482 906.5,-494 906.5,-494 906.5,-500 900.5,-506 894.5,-506"/>
<text text-anchor="middle" x="864" y="-484.3" font-family="Helvetica,sans-Serif" font-size="14.00">err_error5</text>
</g>
<!-- rotate&#45;&gt;err_error5 -->
<g id="edge13" class="edge">
<title>rotate&#45;&gt;err_error5</title>
<path fill="none" stroke="black" stroke-width="1.2" d="M658.2,-380.78C690.66,-394.08 738.72,-414.74 779,-436 795.2,-444.55 812.51,-455.02 827.18,-464.32"/>
<polygon fill="black" stroke="black" stroke-width="1.2" points="659.24,-377.43 648.66,-376.9 656.6,-383.91 659.24,-377.43"/>
<polygon fill="black" stroke="black" stroke-width="1.2" points="825.63,-467.48 835.94,-469.93 829.41,-461.59 825.63,-467.48"/>
</g>
<!-- mnt_comp3 -->
<g id="node12" class="node">
<title>mnt_comp3</title>
<path fill="white" stroke="black" d="M1163,-441C1163,-441 1089,-441 1089,-441 1083,-441 1077,-435 1077,-429 1077,-429 1077,-417 1077,-417 1077,-411 1083,-405 1089,-405 1089,-405 1163,-405 1163,-405 1169,-405 1175,-411 1175,-417 1175,-417 1175,-429 1175,-429 1175,-435 1169,-441 1163,-441"/>
<text text-anchor="middle" x="1126" y="-419.3" font-family="Helvetica,sans-Serif" font-size="14.00">mnt_comp3</text>
</g>
<!-- rotate&#45;&gt;mnt_comp3 -->
<g id="edge14" class="edge">
<title>rotate&#45;&gt;mnt_comp3</title>
<path fill="none" stroke="black" stroke-width="1.2" d="M648.65,-368.87C680.61,-372.69 734.53,-380.69 779,-395 795.84,-400.42 797.99,-407.11 815,-412 911.77,-439.83 940.35,-430.99 1041,-428 1049.2,-427.76 1057.85,-427.38 1066.35,-426.94"/>
<polygon fill="black" stroke="black" stroke-width="1.2" points="1066.81,-430.42 1076.61,-426.37 1066.43,-423.43 1066.81,-430.42"/>
</g>
<!-- err_error4 -->
<g id="node8" class="node">
<title>err_error4</title>
<path fill="white" stroke="black" d="M894.5,-376C894.5,-376 833.5,-376 833.5,-376 827.5,-376 821.5,-370 821.5,-364 821.5,-364 821.5,-352 821.5,-352 821.5,-346 827.5,-340 833.5,-340 833.5,-340 894.5,-340 894.5,-340 900.5,-340 906.5,-346 906.5,-352 906.5,-352 906.5,-364 906.5,-364 906.5,-370 900.5,-376 894.5,-376"/>
<text text-anchor="middle" x="864" y="-354.3" font-family="Helvetica,sans-Serif" font-size="14.00">err_error4</text>
</g>
<!-- pressure&#45;&gt;err_error4 -->
<g id="edge18" class="edge">
<title>pressure&#45;&gt;err_error4</title>
<path fill="none" stroke="black" stroke-width="1.2" d="M779.28,-337.33C789.52,-339.86 800.78,-342.64 811.63,-345.32"/>
<polygon fill="black" stroke="black" stroke-width="1.2" points="810.89,-348.74 821.44,-347.74 812.57,-341.94 810.89,-348.74"/>
</g>
<!-- pressure&#45;&gt;err_error5 -->
<g id="edge19" class="edge">
<title>pressure&#45;&gt;err_error5</title>
<path fill="none" stroke="black" stroke-width="1.2" d="M761.4,-354.21C783.9,-383.83 820.33,-431.81 842.91,-461.54"/>
<polygon fill="black" stroke="black" stroke-width="1.2" points="764.04,-351.89 755.2,-346.04 758.46,-356.12 764.04,-351.89"/>
<polygon fill="black" stroke="black" stroke-width="1.2" points="840.33,-463.93 849.16,-469.78 845.9,-459.7 840.33,-463.93"/>
</g>
<!-- mnt_comp1 -->
<g id="node10" class="node">
<title>mnt_comp1</title>
<path fill="white" stroke="black" d="M901,-208C901,-208 827,-208 827,-208 821,-208 815,-202 815,-196 815,-196 815,-184 815,-184 815,-178 821,-172 827,-172 827,-172 901,-172 901,-172 907,-172 913,-178 913,-184 913,-184 913,-196 913,-196 913,-202 907,-208 901,-208"/>
<text text-anchor="middle" x="864" y="-186.3" font-family="Helvetica,sans-Serif" font-size="14.00">mnt_comp1</text>
</g>
<!-- pressure&#45;&gt;mnt_comp1 -->
<g id="edge20" class="edge">
<title>pressure&#45;&gt;mnt_comp1</title>
<path fill="none" stroke="black" stroke-width="1.2" d="M764.11,-302.32C785.9,-277.56 818.69,-240.33 840.46,-215.6"/>
<polygon fill="black" stroke="black" stroke-width="1.2" points="761.37,-300.14 757.38,-309.96 766.62,-304.77 761.37,-300.14"/>
<polygon fill="black" stroke="black" stroke-width="1.2" points="843.13,-217.86 847.11,-208.05 837.88,-213.24 843.13,-217.86"/>
</g>
<!-- vibration&#45;&gt;pressure -->
<g id="edge16" class="edge">
<title>vibration&#45;&gt;pressure</title>
<path fill="none" stroke="black" stroke-width="1.2" d="M168.35,-365.51C275.29,-383.01 574.88,-427.51 666,-393 686.83,-385.11 705.56,-368.32 718.9,-353.78"/>
<polygon fill="black" stroke="black" stroke-width="1.2" points="721.76,-355.82 725.74,-346 716.5,-351.2 721.76,-355.82"/>
</g>
<!-- vibration&#45;&gt;err_error1 -->
<g id="edge24" class="edge">
<title>vibration&#45;&gt;err_error1</title>
<path fill="none" stroke="black" stroke-width="1.2" d="M149.59,-340.85C168.51,-323.32 197.31,-296.64 218.42,-277.09"/>
<polygon fill="black" stroke="black" stroke-width="1.2" points="220.85,-279.6 225.81,-270.24 216.1,-274.47 220.85,-279.6"/>
</g>
<!-- vibration&#45;&gt;err_error5 -->
<g id="edge25" class="edge">
<title>vibration&#45;&gt;err_error5</title>
<path fill="none" stroke="black" stroke-width="1.2" d="M168.1,-382.46C232.25,-419.66 366.98,-488 491,-488 491,-488 491,-488 621,-488 686.7,-488 762.43,-488 811.43,-488"/>
<polygon fill="black" stroke="black" stroke-width="1.2" points="169.55,-379.25 159.16,-377.21 166.01,-385.29 169.55,-379.25"/>
<polygon fill="black" stroke="black" stroke-width="1.2" points="811.46,-491.5 821.46,-488 811.46,-484.5 811.46,-491.5"/>
</g>
<!-- err_error1&#45;&gt;err_error2 -->
<g id="edge28" class="edge">
<title>err_error1&#45;&gt;err_error2</title>
<path fill="none" stroke="black" stroke-width="1.2" d="M289.12,-265.29C297.5,-267.97 306.39,-270.81 315.06,-273.57"/>
<polygon fill="black" stroke="black" stroke-width="1.2" points="314.11,-276.94 324.7,-276.65 316.24,-270.28 314.11,-276.94"/>
</g>
<!-- err_error3 -->
<g id="node7" class="node">
<title>err_error3</title>
<path fill="white" stroke="black" d="M522.5,-262C522.5,-262 461.5,-262 461.5,-262 455.5,-262 449.5,-256 449.5,-250 449.5,-250 449.5,-238 449.5,-238 449.5,-232 455.5,-226 461.5,-226 461.5,-226 522.5,-226 522.5,-226 528.5,-226 534.5,-232 534.5,-238 534.5,-238 534.5,-250 534.5,-250 534.5,-256 528.5,-262 522.5,-262"/>
<text text-anchor="middle" x="492" y="-240.3" font-family="Helvetica,sans-Serif" font-size="14.00">err_error3</text>
</g>
<!-- err_error1&#45;&gt;err_error3 -->
<g id="edge29" class="edge">
<title>err_error1&#45;&gt;err_error3</title>
<path fill="none" stroke="black" stroke-width="1.2" d="M289.08,-250.63C330.54,-249.27 394.33,-247.18 439.09,-245.71"/>
<polygon fill="black" stroke="black" stroke-width="1.2" points="439.3,-249.2 449.18,-245.37 439.07,-242.2 439.3,-249.2"/>
</g>
<!-- err_error1&#45;&gt;err_error5 -->
<g id="edge30" class="edge">
<title>err_error1&#45;&gt;err_error5</title>
<path fill="none" stroke="black" stroke-width="1.2" d="M265.59,-270.18C280.51,-284.4 302.77,-303.88 325,-317 488.06,-413.19 711.35,-461.58 811.14,-479.54"/>
<polygon fill="black" stroke="black" stroke-width="1.2" points="810.81,-483.03 821.27,-481.33 812.03,-476.14 810.81,-483.03"/>
</g>
<!-- err_error1&#45;&gt;fail_comp1 -->
<g id="edge31" class="edge">
<title>err_error1&#45;&gt;fail_comp1</title>
<path fill="none" stroke="black" stroke-width="1.2" d="M275.87,-233.84C313.61,-210.23 382.92,-168.72 446,-141 484.34,-124.15 529.31,-109.48 563.79,-99.24"/>
<polygon fill="black" stroke="black" stroke-width="1.2" points="565.06,-102.52 573.67,-96.34 563.09,-95.8 565.06,-102.52"/>
</g>
<!-- err_error2&#45;&gt;err_error3 -->
<g id="edge32" class="edge">
<title>err_error2&#45;&gt;err_error3</title>
<path fill="none" stroke="black" stroke-width="1.2" d="M410.31,-274.3C419.78,-270.75 429.93,-266.93 439.73,-263.25"/>
<polygon fill="black" stroke="black" stroke-width="1.2" points="441.24,-266.42 449.37,-259.63 438.78,-259.87 441.24,-266.42"/>
</g>
<!-- err_error3&#45;&gt;volt -->
<g id="edge5" class="edge">
<title>err_error3&#45;&gt;volt</title>
<path fill="none" stroke="black" stroke-width="1.2" d="M449.36,-235.28C393.25,-224.89 290.45,-210.62 204,-225 151.18,-233.79 138.99,-242.38 90,-264 81,-267.97 71.55,-272.79 62.83,-277.54"/>
<polygon fill="black" stroke="black" stroke-width="1.2" points="61.09,-274.5 54.04,-282.42 64.49,-280.62 61.09,-274.5"/>
</g>
<!-- err_error3&#45;&gt;rotate -->
<g id="edge12" class="edge">
<title>err_error3&#45;&gt;rotate</title>
<path fill="none" stroke="black" stroke-width="1.2" d="M520.48,-262.33C526.6,-267.05 532.81,-272.4 538,-278 558.12,-299.7 553.57,-312.59 574,-334 576.9,-337.04 580.13,-339.98 583.49,-342.77"/>
<polygon fill="black" stroke="black" stroke-width="1.2" points="581.43,-345.59 591.47,-348.95 585.71,-340.06 581.43,-345.59"/>
</g>
<!-- err_error3&#45;&gt;pressure -->
<g id="edge17" class="edge">
<title>err_error3&#45;&gt;pressure</title>
<path fill="none" stroke="black" stroke-width="1.2" d="M534.54,-258.15C578.13,-273.01 646.53,-296.32 692.18,-311.87"/>
<polygon fill="black" stroke="black" stroke-width="1.2" points="691.25,-315.25 701.84,-315.17 693.5,-308.63 691.25,-315.25"/>
</g>
<!-- err_error3&#45;&gt;mnt_comp1 -->
<g id="edge33" class="edge">
<title>err_error3&#45;&gt;mnt_comp1</title>
<path fill="none" stroke="black" stroke-width="1.2" d="M534.58,-236.54C547.22,-234.34 561.17,-232 574,-230 653.79,-217.59 746.29,-205.12 804.71,-197.48"/>
<polygon fill="black" stroke="black" stroke-width="1.2" points="805.4,-200.92 814.86,-196.16 804.49,-193.98 805.4,-200.92"/>
</g>
<!-- fail_comp4 -->
<g id="node16" class="node">
<title>fail_comp4</title>
<path fill="white" stroke="black" d="M1029,-231C1029,-231 961,-231 961,-231 955,-231 949,-225 949,-219 949,-219 949,-207 949,-207 949,-201 955,-195 961,-195 961,-195 1029,-195 1029,-195 1035,-195 1041,-201 1041,-207 1041,-207 1041,-219 1041,-219 1041,-225 1035,-231 1029,-231"/>
<text text-anchor="middle" x="995" y="-209.3" font-family="Helvetica,sans-Serif" font-size="14.00">fail_comp4</text>
</g>
<!-- err_error3&#45;&gt;fail_comp4 -->
<g id="edge34" class="edge">
<title>err_error3&#45;&gt;fail_comp4</title>
<path fill="none" stroke="black" stroke-width="1.2" d="M534.85,-241.41C625,-235.83 837.54,-222.68 938.67,-216.42"/>
<polygon fill="black" stroke="black" stroke-width="1.2" points="938.92,-219.92 948.68,-215.8 938.48,-212.93 938.92,-219.92"/>
</g>
<!-- err_error5&#45;&gt;volt -->
<g id="edge6" class="edge">
<title>err_error5&#45;&gt;volt</title>
<path fill="none" stroke="black" stroke-width="1.2" d="M821.3,-496.35C807.85,-498.66 792.85,-500.85 779,-502 577.71,-518.66 522.34,-525.03 325,-482 218.77,-458.84 174.49,-482.44 90,-414 61.96,-391.29 44.91,-352.42 35.97,-325.99"/>
<polygon fill="black" stroke="black" stroke-width="1.2" points="39.22,-324.64 32.83,-316.19 32.55,-326.78 39.22,-324.64"/>
</g>
<!-- mnt_comp4 -->
<g id="node13" class="node">
<title>mnt_comp4</title>
<path fill="white" stroke="black" d="M1163,-143C1163,-143 1089,-143 1089,-143 1083,-143 1077,-137 1077,-131 1077,-131 1077,-119 1077,-119 1077,-113 1083,-107 1089,-107 1089,-107 1163,-107 1163,-107 1169,-107 1175,-113 1175,-119 1175,-119 1175,-131 1175,-131 1175,-137 1169,-143 1163,-143"/>
<text text-anchor="middle" x="1126" y="-121.3" font-family="Helvetica,sans-Serif" font-size="14.00">mnt_comp4</text>
</g>
<!-- mnt_comp1&#45;&gt;mnt_comp4 -->
<g id="edge35" class="edge">
<title>mnt_comp1&#45;&gt;mnt_comp4</title>
<path fill="none" stroke="black" stroke-width="1.2" d="M913.29,-177.93C956.8,-167.05 1020.84,-151.04 1067.09,-139.48"/>
<polygon fill="black" stroke="black" stroke-width="1.2" points="1068.11,-142.83 1076.96,-137.01 1066.41,-136.04 1068.11,-142.83"/>
</g>
<!-- mnt_comp1&#45;&gt;fail_comp4 -->
<g id="edge37" class="edge">
<title>mnt_comp1&#45;&gt;fail_comp4</title>
<path fill="none" stroke="black" stroke-width="1.2" d="M913.03,-198.56C921.48,-200.07 930.33,-201.65 938.94,-203.18"/>
<polygon fill="black" stroke="black" stroke-width="1.2" points="938.46,-206.65 948.92,-204.96 939.69,-199.76 938.46,-206.65"/>
</g>
<!-- mnt_comp2 -->
<g id="node11" class="node">
<title>mnt_comp2</title>
<path fill="white" stroke="black" d="M1297,-330C1297,-330 1223,-330 1223,-330 1217,-330 1211,-324 1211,-318 1211,-318 1211,-306 1211,-306 1211,-300 1217,-294 1223,-294 1223,-294 1297,-294 1297,-294 1303,-294 1309,-300 1309,-306 1309,-306 1309,-318 1309,-318 1309,-324 1303,-330 1297,-330"/>
<text text-anchor="middle" x="1260" y="-308.3" font-family="Helvetica,sans-Serif" font-size="14.00">mnt_comp2</text>
</g>
<!-- mnt_comp2&#45;&gt;pressure -->
<g id="edge21" class="edge">
<title>mnt_comp2&#45;&gt;pressure</title>
<path fill="none" stroke="black" stroke-width="1.2" d="M1210.84,-313.49C1112.12,-316.54 887.87,-323.47 789.39,-326.52"/>
<polygon fill="black" stroke="black" stroke-width="1.2" points="789.02,-323.03 779.13,-326.84 789.24,-330.03 789.02,-323.03"/>
</g>
<!-- mnt_comp3&#45;&gt;volt -->
<g id="edge7" class="edge">
<title>mnt_comp3&#45;&gt;volt</title>
<path fill="none" stroke="black" stroke-width="1.2" d="M1115.82,-441.21C1102.49,-465.92 1075.57,-509.98 1041,-536 974.25,-586.24 948.54,-602 865,-602 245.5,-602 245.5,-602 245.5,-602 110.66,-602 51.42,-401.73 33.89,-326.29"/>
<polygon fill="black" stroke="black" stroke-width="1.2" points="37.21,-325.1 31.6,-316.11 30.38,-326.63 37.21,-325.1"/>
</g>
<!-- mnt_comp3&#45;&gt;pressure -->
<g id="edge22" class="edge">
<title>mnt_comp3&#45;&gt;pressure</title>
<path fill="none" stroke="black" stroke-width="1.2" d="M1076.81,-424.86C1014.1,-425.58 902.23,-420.94 815,-385 809.95,-382.92 789.71,-367.12 771.75,-352.68"/>
<polygon fill="black" stroke="black" stroke-width="1.2" points="773.7,-349.76 763.72,-346.2 769.3,-355.2 773.7,-349.76"/>
</g>
<!-- mnt_comp3&#45;&gt;vibration -->
<g id="edge26" class="edge">
<title>mnt_comp3&#45;&gt;vibration</title>
<path fill="none" stroke="black" stroke-width="1.2" d="M1106.97,-441.14C1067.11,-479.23 966.93,-564 865,-564 619,-564 619,-564 619,-564 588.89,-564 289.61,-492.61 204,-436 183.19,-422.24 163.82,-401.67 150.11,-385.26"/>
<polygon fill="black" stroke="black" stroke-width="1.2" points="152.51,-382.66 143.49,-377.11 147.08,-387.08 152.51,-382.66"/>
</g>
<!-- mnt_comp3&#45;&gt;mnt_comp2 -->
<g id="edge38" class="edge">
<title>mnt_comp3&#45;&gt;mnt_comp2</title>
<path fill="none" stroke="black" stroke-width="1.2" d="M1148.5,-404.92C1170.56,-386.37 1205.02,-357.4 1229.59,-336.73"/>
<polygon fill="black" stroke="black" stroke-width="1.2" points="1232.11,-339.19 1237.51,-330.07 1227.6,-333.83 1232.11,-339.19"/>
</g>
<!-- mnt_comp4&#45;&gt;volt -->
<g id="edge8" class="edge">
<title>mnt_comp4&#45;&gt;volt</title>
<path fill="none" stroke="black" stroke-width="1.2" d="M1109.03,-106.95C1093.28,-90.19 1067.75,-65.69 1041,-51 969.61,-11.8 946.44,0 865,0 245.5,0 245.5,0 245.5,0 161.61,0 140.17,-39.76 90,-107 52.76,-156.91 37.3,-230.16 31.36,-269.88"/>
<polygon fill="black" stroke="black" stroke-width="1.2" points="27.88,-269.53 29.96,-279.92 34.81,-270.5 27.88,-269.53"/>
</g>
<!-- fail_comp1&#45;&gt;mnt_comp1 -->
<g id="edge36" class="edge">
<title>fail_comp1&#45;&gt;mnt_comp1</title>
<path fill="none" stroke="black" stroke-width="1.2" d="M640.97,-102.01C656.59,-115.27 679.4,-132.86 702,-144 734.47,-160 773.44,-171.32 804.91,-178.73"/>
<polygon fill="black" stroke="black" stroke-width="1.2" points="804.32,-182.18 814.85,-180.99 805.88,-175.36 804.32,-182.18"/>
</g>
<!-- fail_comp1&#45;&gt;fail_comp4 -->
<g id="edge44" class="edge">
<title>fail_comp1&#45;&gt;fail_comp4</title>
<path fill="none" stroke="black" stroke-width="1.2" d="M666.13,-92C724.68,-103.31 829.26,-126.74 913,-163 929.33,-170.07 946.25,-180.04 960.37,-189.21"/>
<polygon fill="black" stroke="black" stroke-width="1.2" points="958.51,-192.18 968.78,-194.79 962.38,-186.34 958.51,-192.18"/>
</g>
<!-- fail_comp2 -->
<g id="node15" class="node">
<title>fail_comp2</title>
<path fill="white" stroke="black" d="M526,-186C526,-186 458,-186 458,-186 452,-186 446,-180 446,-174 446,-174 446,-162 446,-162 446,-156 452,-150 458,-150 458,-150 526,-150 526,-150 532,-150 538,-156 538,-162 538,-162 538,-174 538,-174 538,-180 532,-186 526,-186"/>
<text text-anchor="middle" x="492" y="-164.3" font-family="Helvetica,sans-Serif" font-size="14.00">fail_comp2</text>
</g>
<!-- fail_comp2&#45;&gt;rotate -->
<g id="edge15" class="edge">
<title>fail_comp2&#45;&gt;rotate</title>
<path fill="none" stroke="black" stroke-width="1.2" d="M511.67,-186.15C520.24,-195.02 530.21,-206.1 538,-217 566.42,-256.78 592.05,-307.63 606.55,-338.46"/>
<polygon fill="black" stroke="black" stroke-width="1.2" points="603.47,-340.14 610.86,-347.73 609.82,-337.19 603.47,-340.14"/>
</g>
<!-- fail_comp2&#45;&gt;pressure -->
<g id="edge23" class="edge">
<title>fail_comp2&#45;&gt;pressure</title>
<path fill="none" stroke="black" stroke-width="1.2" d="M526.67,-186.07C562.14,-205.52 619.25,-237.99 666,-270 681.11,-280.34 697.15,-292.81 710.37,-303.53"/>
<polygon fill="black" stroke="black" stroke-width="1.2" points="708.26,-306.32 718.21,-309.95 712.69,-300.91 708.26,-306.32"/>
</g>
<!-- fail_comp2&#45;&gt;mnt_comp2 -->
<g id="edge39" class="edge">
<title>fail_comp2&#45;&gt;mnt_comp2</title>
<path fill="none" stroke="black" stroke-width="1.2" d="M538.23,-155.96C673.34,-121.13 1071,-27.1 1175,-98 1236.95,-140.24 1253.22,-235.73 1257.48,-283.57"/>
<polygon fill="black" stroke="black" stroke-width="1.2" points="1254.02,-284.13 1258.28,-293.83 1260.99,-283.59 1254.02,-284.13"/>
</g>
<!-- fail_comp2&#45;&gt;mnt_comp4 -->
<g id="edge41" class="edge">
<title>fail_comp2&#45;&gt;mnt_comp4</title>
<path fill="none" stroke="black" stroke-width="1.2" d="M500.06,-149.6C511.23,-123.43 535.72,-76.46 574,-57 744.02,29.41 980.39,-58.38 1078.97,-102.71"/>
<polygon fill="black" stroke="black" stroke-width="1.2" points="1077.52,-105.89 1088.07,-106.85 1080.42,-99.52 1077.52,-105.89"/>
</g>
<!-- fail_comp2&#45;&gt;fail_comp1 -->
<g id="edge43" class="edge">
<title>fail_comp2&#45;&gt;fail_comp1</title>
<path fill="none" stroke="black" stroke-width="1.2" d="M520.03,-149.98C538.42,-137.72 562.97,-121.36 583.01,-107.99"/>
<polygon fill="black" stroke="black" stroke-width="1.2" points="585.2,-110.74 591.58,-102.28 581.32,-104.92 585.2,-110.74"/>
</g>
<!-- fail_comp4&#45;&gt;vibration -->
<g id="edge27" class="edge">
<title>fail_comp4&#45;&gt;vibration</title>
<path fill="none" stroke="black" stroke-width="1.2" d="M948.79,-226.17C937.19,-229.3 924.68,-232.47 913,-235 691.63,-282.97 633.78,-281.98 410,-317 328.62,-329.74 233.81,-343.79 178.02,-351.99"/>
<polygon fill="black" stroke="black" stroke-width="1.2" points="177.45,-348.53 168.07,-353.45 178.47,-355.46 177.45,-348.53"/>
</g>
<!-- fail_comp4&#45;&gt;mnt_comp3 -->
<g id="edge40" class="edge">
<title>fail_comp4&#45;&gt;mnt_comp3</title>
<path fill="none" stroke="black" stroke-width="1.2" d="M1007.22,-231.27C1030.06,-268.44 1082.01,-353.01 1108.62,-396.34"/>
<polygon fill="black" stroke="black" stroke-width="1.2" points="1105.68,-398.23 1113.9,-404.92 1111.64,-394.57 1105.68,-398.23"/>
</g>
<!-- fail_comp4&#45;&gt;mnt_comp4 -->
<g id="edge42" class="edge">
<title>fail_comp4&#45;&gt;mnt_comp4</title>
<path fill="none" stroke="black" stroke-width="1.2" d="M1022.42,-194.98C1041.85,-181.72 1068.48,-163.56 1089.73,-149.06"/>
<polygon fill="black" stroke="black" stroke-width="1.2" points="1091.89,-151.83 1098.18,-143.3 1087.94,-146.04 1091.89,-151.83"/>
</g>
</g>
</svg>
