<?xml version="1.0" encoding="UTF-8" standalone="no"?>
<!DOCTYPE svg PUBLIC "-//W3C//DTD SVG 1.1//EN"
 "http://www.w3.org/Graphics/SVG/1.1/DTD/svg11.dtd">
<!-- Generated by graphviz version 2.50.0 (0)
 -->
<!-- Title: G Pages: 1 -->
<svg width="1423pt" height="678pt"
 viewBox="0.00 0.00 1423.00 678.00" xmlns="http://www.w3.org/2000/svg" xmlns:xlink="http://www.w3.org/1999/xlink">
<g id="graph0" class="graph" transform="scale(1 1) rotate(0) translate(4 674)">
<title>G</title>
<polygon fill="white" stroke="transparent" points="-4,4 -4,-674 1419,-674 1419,4 -4,4"/>
<text text-anchor="middle" x="707.5" y="-653.2" font-family="Times,serif" font-size="16.00">model=model4/cbnb_w_mixed.json [machine 88]</text>
<!-- volt -->
<g id="node1" class="node">
<title>volt</title>
<path fill="white" stroke="black" d="M42,-395C42,-395 12,-395 12,-395 6,-395 0,-389 0,-383 0,-383 0,-371 0,-371 0,-365 6,-359 12,-359 12,-359 42,-359 42,-359 48,-359 54,-365 54,-371 54,-371 54,-383 54,-383 54,-389 48,-395 42,-395"/>
<text text-anchor="middle" x="27" y="-373.3" font-family="Helvetica,sans-Serif" font-size="14.00">volt</text>
</g>
<!-- rotate -->
<g id="node2" class="node">
<title>rotate</title>
<path fill="white" stroke="black" d="M135,-372C135,-372 102,-372 102,-372 96,-372 90,-366 90,-360 90,-360 90,-348 90,-348 90,-342 96,-336 102,-336 102,-336 135,-336 135,-336 141,-336 147,-342 147,-348 147,-348 147,-360 147,-360 147,-366 141,-372 135,-372"/>
<text text-anchor="middle" x="118.5" y="-350.3" font-family="Helvetica,sans-Serif" font-size="14.00">rotate</text>
</g>
<!-- volt&#45;&gt;rotate -->
<g id="edge1" class="edge">
<title>volt&#45;&gt;rotate</title>
<path fill="none" stroke="black" stroke-width="1.2" d="M54.37,-370.22C62.37,-368.17 71.33,-365.87 79.92,-363.66"/>
<polygon fill="black" stroke="black" stroke-width="1.2" points="80.95,-367.01 89.76,-361.13 79.21,-360.23 80.95,-367.01"/>
</g>
<!-- vibration -->
<g id="node4" class="node">
<title>vibration</title>
<path fill="white" stroke="black" d="M1272,-434C1272,-434 1218,-434 1218,-434 1212,-434 1206,-428 1206,-422 1206,-422 1206,-410 1206,-410 1206,-404 1212,-398 1218,-398 1218,-398 1272,-398 1272,-398 1278,-398 1284,-404 1284,-410 1284,-410 1284,-422 1284,-422 1284,-428 1278,-434 1272,-434"/>
<text text-anchor="middle" x="1245" y="-412.3" font-family="Helvetica,sans-Serif" font-size="14.00">vibration</text>
</g>
<!-- volt&#45;&gt;vibration -->
<g id="edge2" class="edge">
<title>volt&#45;&gt;vibration</title>
<path fill="none" stroke="black" stroke-width="1.2" d="M39.31,-395.23C61.97,-430.09 116.49,-506.11 183,-544 296.2,-608.49 339.22,-606 469.5,-606 469.5,-606 469.5,-606 729,-606 919.18,-606 1125.81,-490.54 1207.67,-439.63"/>
<polygon fill="black" stroke="black" stroke-width="1.2" points="1209.96,-442.33 1216.57,-434.05 1206.24,-436.4 1209.96,-442.33"/>
</g>
<!-- err_error1 -->
<g id="node5" class="node">
<title>err_error1</title>
<path fill="white" stroke="black" d="M1403,-457C1403,-457 1342,-457 1342,-457 1336,-457 1330,-451 1330,-445 1330,-445 1330,-433 1330,-433 1330,-427 1336,-421 1342,-421 1342,-421 1403,-421 1403,-421 1409,-421 1415,-427 1415,-433 1415,-433 1415,-445 1415,-445 1415,-451 1409,-457 1403,-457"/>
<text text-anchor="middle" x="1372.5" y="-435.3" font-family="Helvetica,sans-Serif" font-size="14.00">err_error1</text>
</g>
<!-- volt&#45;&gt;err_error1 -->
<g id="edge3" class="edge">
<title>volt&#45;&gt;err_error1</title>
<path fill="none" stroke="black" stroke-width="1.2" d="M31.98,-395.35C46.27,-455.67 100.76,-644 224.5,-644 224.5,-644 224.5,-644 1112,-644 1225.67,-644 1318.73,-521.39 1355.07,-465.82"/>
<polygon fill="black" stroke="black" stroke-width="1.2" points="1358.15,-467.5 1360.61,-457.19 1352.26,-463.72 1358.15,-467.5"/>
</g>
<!-- err_error4 -->
<g id="node8" class="node">
<title>err_error4</title>
<path fill="white" stroke="black" d="M886,-140C886,-140 825,-140 825,-140 819,-140 813,-134 813,-128 813,-128 813,-116 813,-116 813,-110 819,-104 825,-104 825,-104 886,-104 886,-104 892,-104 898,-110 898,-116 898,-116 898,-128 898,-128 898,-134 892,-140 886,-140"/>
<text text-anchor="middle" x="855.5" y="-118.3" font-family="Helvetica,sans-Serif" font-size="14.00">err_error4</text>
</g>
<!-- volt&#45;&gt;err_error4 -->
<g id="edge6" class="edge">
<title>volt&#45;&gt;err_error4</title>
<path fill="none" stroke="black" stroke-width="1.2" d="M29.69,-358.77C37.29,-288.36 74.84,-38 224.5,-38 224.5,-38 224.5,-38 595,-38 674.85,-38 762.1,-74.45 812.36,-99.33"/>
<polygon fill="black" stroke="black" stroke-width="1.2" points="811.1,-102.61 821.6,-103.98 814.24,-96.36 811.1,-102.61"/>
</g>
<!-- fail_comp1 -->
<g id="node14" class="node">
<title>fail_comp1</title>
<path fill="white" stroke="black" d="M384,-182C384,-182 316,-182 316,-182 310,-182 304,-176 304,-170 304,-170 304,-158 304,-158 304,-152 310,-146 316,-146 316,-146 384,-146 384,-146 390,-146 396,-152 396,-158 396,-158 396,-170 396,-170 396,-176 390,-182 384,-182"/>
<text text-anchor="middle" x="350" y="-160.3" font-family="Helvetica,sans-Serif" font-size="14.00">fail_comp1</text>
</g>
<!-- volt&#45;&gt;fail_comp1 -->
<g id="edge8" class="edge">
<title>volt&#45;&gt;fail_comp1</title>
<path fill="none" stroke="black" stroke-width="1.2" d="M38,-349.18C57.3,-300.27 104.79,-200.25 183,-160 216.8,-142.61 259.82,-144.19 293.6,-149.82"/>
<polygon fill="black" stroke="black" stroke-width="1.2" points="34.63,-348.21 34.31,-358.8 41.16,-350.72 34.63,-348.21"/>
<polygon fill="black" stroke="black" stroke-width="1.2" points="293.29,-153.32 303.76,-151.68 294.55,-146.44 293.29,-153.32"/>
</g>
<!-- err_error5 -->
<g id="node9" class="node">
<title>err_error5</title>
<path fill="white" stroke="black" d="M256,-464C256,-464 195,-464 195,-464 189,-464 183,-458 183,-452 183,-452 183,-440 183,-440 183,-434 189,-428 195,-428 195,-428 256,-428 256,-428 262,-428 268,-434 268,-440 268,-440 268,-452 268,-452 268,-458 262,-464 256,-464"/>
<text text-anchor="middle" x="225.5" y="-442.3" font-family="Helvetica,sans-Serif" font-size="14.00">err_error5</text>
</g>
<!-- rotate&#45;&gt;err_error5 -->
<g id="edge13" class="edge">
<title>rotate&#45;&gt;err_error5</title>
<path fill="none" stroke="black" stroke-width="1.2" d="M140.24,-372.18C156.21,-386.16 178.44,-405.65 196.07,-421.09"/>
<polygon fill="black" stroke="black" stroke-width="1.2" points="193.97,-423.9 203.8,-427.86 198.58,-418.64 193.97,-423.9"/>
</g>
<!-- rotate&#45;&gt;fail_comp1 -->
<g id="edge14" class="edge">
<title>rotate&#45;&gt;fail_comp1</title>
<path fill="none" stroke="black" stroke-width="1.2" d="M121.24,-335.82C125.46,-302.56 139.32,-232.02 183,-196 213.71,-170.68 258.47,-163.2 293.77,-161.77"/>
<polygon fill="black" stroke="black" stroke-width="1.2" points="294.02,-165.27 303.93,-161.52 293.84,-158.27 294.02,-165.27"/>
</g>
<!-- pressure -->
<g id="node3" class="node">
<title>pressure</title>
<path fill="white" stroke="black" d="M497,-312C497,-312 444,-312 444,-312 438,-312 432,-306 432,-300 432,-300 432,-288 432,-288 432,-282 438,-276 444,-276 444,-276 497,-276 497,-276 503,-276 509,-282 509,-288 509,-288 509,-300 509,-300 509,-306 503,-312 497,-312"/>
<text text-anchor="middle" x="470.5" y="-290.3" font-family="Helvetica,sans-Serif" font-size="14.00">pressure</text>
</g>
<!-- pressure&#45;&gt;err_error1 -->
<g id="edge17" class="edge">
<title>pressure&#45;&gt;err_error1</title>
<path fill="none" stroke="black" stroke-width="1.2" d="M509.33,-303.2C558.98,-314.44 648.97,-332 727,-332 727,-332 727,-332 1112,-332 1198.71,-332 1290.24,-383.69 1338.01,-415.21"/>
<polygon fill="black" stroke="black" stroke-width="1.2" points="1336.15,-418.18 1346.41,-420.85 1340.05,-412.37 1336.15,-418.18"/>
</g>
<!-- err_error2 -->
<g id="node6" class="node">
<title>err_error2</title>
<path fill="white" stroke="black" d="M624.5,-480C624.5,-480 563.5,-480 563.5,-480 557.5,-480 551.5,-474 551.5,-468 551.5,-468 551.5,-456 551.5,-456 551.5,-450 557.5,-444 563.5,-444 563.5,-444 624.5,-444 624.5,-444 630.5,-444 636.5,-450 636.5,-456 636.5,-456 636.5,-468 636.5,-468 636.5,-474 630.5,-480 624.5,-480"/>
<text text-anchor="middle" x="594" y="-458.3" font-family="Helvetica,sans-Serif" font-size="14.00">err_error2</text>
</g>
<!-- pressure&#45;&gt;err_error2 -->
<g id="edge18" class="edge">
<title>pressure&#45;&gt;err_error2</title>
<path fill="none" stroke="black" stroke-width="1.2" d="M484.73,-312.3C506.34,-342.17 549.25,-401.51 574.07,-435.83"/>
<polygon fill="black" stroke="black" stroke-width="1.2" points="571.27,-437.93 579.97,-443.98 576.94,-433.82 571.27,-437.93"/>
</g>
<!-- mnt_comp1 -->
<g id="node10" class="node">
<title>mnt_comp1</title>
<path fill="white" stroke="black" d="M1282,-182C1282,-182 1208,-182 1208,-182 1202,-182 1196,-176 1196,-170 1196,-170 1196,-158 1196,-158 1196,-152 1202,-146 1208,-146 1208,-146 1282,-146 1282,-146 1288,-146 1294,-152 1294,-158 1294,-158 1294,-170 1294,-170 1294,-176 1288,-182 1282,-182"/>
<text text-anchor="middle" x="1245" y="-160.3" font-family="Helvetica,sans-Serif" font-size="14.00">mnt_comp1</text>
</g>
<!-- pressure&#45;&gt;mnt_comp1 -->
<g id="edge20" class="edge">
<title>pressure&#45;&gt;mnt_comp1</title>
<path fill="none" stroke="black" stroke-width="1.2" d="M509.16,-294C559,-294 649.6,-294 727,-294 727,-294 727,-294 981,-294 1061,-294 1090.35,-314.36 1160,-275 1193.54,-256.05 1217.88,-217.65 1231.48,-191.38"/>
<polygon fill="black" stroke="black" stroke-width="1.2" points="1234.67,-192.82 1235.99,-182.31 1228.4,-189.7 1234.67,-192.82"/>
</g>
<!-- fail_comp4 -->
<g id="node16" class="node">
<title>fail_comp4</title>
<path fill="white" stroke="black" d="M628,-228C628,-228 560,-228 560,-228 554,-228 548,-222 548,-216 548,-216 548,-204 548,-204 548,-198 554,-192 560,-192 560,-192 628,-192 628,-192 634,-192 640,-198 640,-204 640,-204 640,-216 640,-216 640,-222 634,-228 628,-228"/>
<text text-anchor="middle" x="594" y="-206.3" font-family="Helvetica,sans-Serif" font-size="14.00">fail_comp4</text>
</g>
<!-- pressure&#45;&gt;fail_comp4 -->
<g id="edge22" class="edge">
<title>pressure&#45;&gt;fail_comp4</title>
<path fill="none" stroke="black" stroke-width="1.2" d="M497.56,-275.98C515.3,-263.72 538.97,-247.36 558.3,-233.99"/>
<polygon fill="black" stroke="black" stroke-width="1.2" points="560.32,-236.85 566.56,-228.28 556.34,-231.09 560.32,-236.85"/>
</g>
<!-- vibration&#45;&gt;rotate -->
<g id="edge9" class="edge">
<title>vibration&#45;&gt;rotate</title>
<path fill="none" stroke="black" stroke-width="1.2" d="M1205.6,-404.98C1154.7,-391.37 1061.89,-370 981,-370 727,-370 727,-370 727,-370 579.4,-370 543.48,-349 396,-343 355.14,-341.34 344.87,-341.78 304,-343 253.35,-344.51 194.99,-348.34 157.7,-351.06"/>
<polygon fill="black" stroke="black" stroke-width="1.2" points="157.01,-347.6 147.3,-351.83 157.53,-354.58 157.01,-347.6"/>
</g>
<!-- vibration&#45;&gt;err_error1 -->
<g id="edge23" class="edge">
<title>vibration&#45;&gt;err_error1</title>
<path fill="none" stroke="black" stroke-width="1.2" d="M1284.34,-423.03C1295.6,-425.09 1308.11,-427.38 1320.05,-429.57"/>
<polygon fill="black" stroke="black" stroke-width="1.2" points="1319.44,-433.02 1329.91,-431.38 1320.7,-426.13 1319.44,-433.02"/>
</g>
<!-- err_error1&#45;&gt;rotate -->
<g id="edge10" class="edge">
<title>err_error1&#45;&gt;rotate</title>
<path fill="none" stroke="black" stroke-width="1.2" d="M1351.35,-457.21C1309.83,-492.77 1210.36,-568 1112,-568 593,-568 593,-568 593,-568 500.72,-568 255.76,-558.77 183,-502 145.31,-472.59 129.64,-416.44 123.39,-382.39"/>
<polygon fill="black" stroke="black" stroke-width="1.2" points="126.78,-381.46 121.67,-372.17 119.88,-382.62 126.78,-381.46"/>
</g>
<!-- err_error2&#45;&gt;volt -->
<g id="edge4" class="edge">
<title>err_error2&#45;&gt;volt</title>
<path fill="none" stroke="black" stroke-width="1.2" d="M567.41,-480.19C551.38,-490.65 529.88,-503.05 509,-510 371.48,-555.76 314.78,-562.32 183,-502 130.2,-477.83 79.95,-431.56 51.64,-402.59"/>
<polygon fill="black" stroke="black" stroke-width="1.2" points="54.05,-400.05 44.59,-395.27 49.01,-404.9 54.05,-400.05"/>
</g>
<!-- err_error2&#45;&gt;rotate -->
<g id="edge11" class="edge">
<title>err_error2&#45;&gt;rotate</title>
<path fill="none" stroke="black" stroke-width="1.2" d="M551.23,-476.81C472.69,-501.87 300.39,-543.42 183,-473 150.27,-453.37 133.48,-410.5 125.59,-381.94"/>
<polygon fill="black" stroke="black" stroke-width="1.2" points="128.95,-380.95 123.08,-372.13 122.17,-382.69 128.95,-380.95"/>
</g>
<!-- err_error2&#45;&gt;err_error1 -->
<g id="edge26" class="edge">
<title>err_error2&#45;&gt;err_error1</title>
<path fill="none" stroke="black" stroke-width="1.2" d="M636.8,-462C688.08,-462 777.69,-462 854.5,-462 854.5,-462 854.5,-462 1112,-462 1184.3,-462 1267.48,-453.03 1319.77,-446.3"/>
<polygon fill="black" stroke="black" stroke-width="1.2" points="1320.34,-449.75 1329.8,-444.98 1319.43,-442.81 1320.34,-449.75"/>
</g>
<!-- err_error3 -->
<g id="node7" class="node">
<title>err_error3</title>
<path fill="white" stroke="black" d="M380.5,-388C380.5,-388 319.5,-388 319.5,-388 313.5,-388 307.5,-382 307.5,-376 307.5,-376 307.5,-364 307.5,-364 307.5,-358 313.5,-352 319.5,-352 319.5,-352 380.5,-352 380.5,-352 386.5,-352 392.5,-358 392.5,-364 392.5,-364 392.5,-376 392.5,-376 392.5,-382 386.5,-388 380.5,-388"/>
<text text-anchor="middle" x="350" y="-366.3" font-family="Helvetica,sans-Serif" font-size="14.00">err_error3</text>
</g>
<!-- err_error3&#45;&gt;volt -->
<g id="edge5" class="edge">
<title>err_error3&#45;&gt;volt</title>
<path fill="none" stroke="black" stroke-width="1.2" d="M307.29,-373.69C256.12,-377.77 166.7,-383.47 90,-381 81.65,-380.73 72.67,-380.26 64.21,-379.73"/>
<polygon fill="black" stroke="black" stroke-width="1.2" points="64.44,-376.24 54.23,-379.07 63.97,-383.22 64.44,-376.24"/>
</g>
<!-- err_error3&#45;&gt;rotate -->
<g id="edge12" class="edge">
<title>err_error3&#45;&gt;rotate</title>
<path fill="none" stroke="black" stroke-width="1.2" d="M307.22,-367.09C264.47,-364.11 198.64,-359.52 157.37,-356.64"/>
<polygon fill="black" stroke="black" stroke-width="1.2" points="157.4,-353.13 147.18,-355.93 156.92,-360.12 157.4,-353.13"/>
</g>
<!-- err_error3&#45;&gt;pressure -->
<g id="edge19" class="edge">
<title>err_error3&#45;&gt;pressure</title>
<path fill="none" stroke="black" stroke-width="1.2" d="M379.08,-351.99C395.05,-341.75 415.24,-328.8 432.49,-317.73"/>
<polygon fill="black" stroke="black" stroke-width="1.2" points="434.68,-320.49 441.21,-312.15 430.9,-314.6 434.68,-320.49"/>
</g>
<!-- err_error3&#45;&gt;err_error2 -->
<g id="edge28" class="edge">
<title>err_error3&#45;&gt;err_error2</title>
<path fill="none" stroke="black" stroke-width="1.2" d="M392.6,-385.82C433.9,-401.51 497.28,-425.61 541.68,-442.49"/>
<polygon fill="black" stroke="black" stroke-width="1.2" points="540.54,-445.8 551.13,-446.08 543.03,-439.26 540.54,-445.8"/>
</g>
<!-- err_error4&#45;&gt;err_error1 -->
<g id="edge27" class="edge">
<title>err_error4&#45;&gt;err_error1</title>
<path fill="none" stroke="black" stroke-width="1.2" d="M898.01,-108.63C983.01,-84.09 1178.58,-42.53 1294,-137 1336.64,-171.9 1360.48,-342.32 1368.45,-410.62"/>
<polygon fill="black" stroke="black" stroke-width="1.2" points="1364.98,-411.12 1369.59,-420.66 1371.94,-410.33 1364.98,-411.12"/>
</g>
<!-- err_error4&#45;&gt;mnt_comp1 -->
<g id="edge31" class="edge">
<title>err_error4&#45;&gt;mnt_comp1</title>
<path fill="none" stroke="black" stroke-width="1.2" d="M908.4,-125.63C968.94,-130.13 1071.95,-138.62 1160,-150 1168.33,-151.08 1177.09,-152.36 1185.69,-153.72"/>
<polygon fill="black" stroke="black" stroke-width="1.2" points="908.57,-122.13 898.34,-124.89 908.05,-129.11 908.57,-122.13"/>
<polygon fill="black" stroke="black" stroke-width="1.2" points="1185.24,-157.19 1195.67,-155.32 1186.36,-150.28 1185.24,-157.19"/>
</g>
<!-- fail_comp2 -->
<g id="node15" class="node">
<title>fail_comp2</title>
<path fill="white" stroke="black" d="M1014,-228C1014,-228 946,-228 946,-228 940,-228 934,-222 934,-216 934,-216 934,-204 934,-204 934,-198 940,-192 946,-192 946,-192 1014,-192 1014,-192 1020,-192 1026,-198 1026,-204 1026,-204 1026,-216 1026,-216 1026,-222 1020,-228 1014,-228"/>
<text text-anchor="middle" x="980" y="-206.3" font-family="Helvetica,sans-Serif" font-size="14.00">fail_comp2</text>
</g>
<!-- err_error4&#45;&gt;fail_comp2 -->
<g id="edge33" class="edge">
<title>err_error4&#45;&gt;fail_comp2</title>
<path fill="none" stroke="black" stroke-width="1.2" d="M889.84,-145.95C907.09,-158.34 928.09,-173.42 945.37,-185.84"/>
<polygon fill="black" stroke="black" stroke-width="1.2" points="891.75,-143.01 881.59,-140.02 887.66,-148.7 891.75,-143.01"/>
<polygon fill="black" stroke="black" stroke-width="1.2" points="943.36,-188.71 953.53,-191.7 947.45,-183.02 943.36,-188.71"/>
</g>
<!-- err_error5&#45;&gt;vibration -->
<g id="edge24" class="edge">
<title>err_error5&#45;&gt;vibration</title>
<path fill="none" stroke="black" stroke-width="1.2" d="M268.02,-437.72C316.24,-428.84 398.3,-416 469.5,-416 469.5,-416 469.5,-416 981,-416 1055.91,-416 1142.82,-416 1195.59,-416"/>
<polygon fill="black" stroke="black" stroke-width="1.2" points="1195.67,-419.5 1205.67,-416 1195.67,-412.5 1195.67,-419.5"/>
</g>
<!-- err_error5&#45;&gt;err_error2 -->
<g id="edge29" class="edge">
<title>err_error5&#45;&gt;err_error2</title>
<path fill="none" stroke="black" stroke-width="1.2" d="M268.19,-447.82C335.42,-450.76 467.67,-456.53 540.98,-459.73"/>
<polygon fill="black" stroke="black" stroke-width="1.2" points="541.21,-463.24 551.35,-460.18 541.52,-456.25 541.21,-463.24"/>
</g>
<!-- err_error5&#45;&gt;err_error3 -->
<g id="edge30" class="edge">
<title>err_error5&#45;&gt;err_error3</title>
<path fill="none" stroke="black" stroke-width="1.2" d="M255.53,-427.99C272.19,-417.65 293.3,-404.56 311.23,-393.43"/>
<polygon fill="black" stroke="black" stroke-width="1.2" points="313.1,-396.39 319.75,-388.15 309.41,-390.44 313.1,-396.39"/>
</g>
<!-- mnt_comp1&#45;&gt;volt -->
<g id="edge7" class="edge">
<title>mnt_comp1&#45;&gt;volt</title>
<path fill="none" stroke="black" stroke-width="1.2" d="M1229.88,-145.82C1214.59,-127.35 1188.53,-99.22 1160,-83 1038.44,-13.87 996.34,0 856.5,0 224.5,0 224.5,0 224.5,0 158.49,0 130.67,-11.01 90,-63 55.15,-107.56 36.51,-279.86 30.35,-348.53"/>
<polygon fill="black" stroke="black" stroke-width="1.2" points="26.85,-348.35 29.46,-358.62 33.82,-348.96 26.85,-348.35"/>
</g>
<!-- mnt_comp2 -->
<g id="node11" class="node">
<title>mnt_comp2</title>
<path fill="white" stroke="black" d="M1148,-266C1148,-266 1074,-266 1074,-266 1068,-266 1062,-260 1062,-254 1062,-254 1062,-242 1062,-242 1062,-236 1068,-230 1074,-230 1074,-230 1148,-230 1148,-230 1154,-230 1160,-236 1160,-242 1160,-242 1160,-254 1160,-254 1160,-260 1154,-266 1148,-266"/>
<text text-anchor="middle" x="1111" y="-244.3" font-family="Helvetica,sans-Serif" font-size="14.00">mnt_comp2</text>
</g>
<!-- mnt_comp2&#45;&gt;vibration -->
<g id="edge25" class="edge">
<title>mnt_comp2&#45;&gt;vibration</title>
<path fill="none" stroke="black" stroke-width="1.2" d="M1126.38,-266.3C1149.85,-296.17 1196.47,-355.51 1223.43,-389.83"/>
<polygon fill="black" stroke="black" stroke-width="1.2" points="1220.91,-392.28 1229.84,-397.98 1226.41,-387.95 1220.91,-392.28"/>
</g>
<!-- mnt_comp2&#45;&gt;mnt_comp1 -->
<g id="edge34" class="edge">
<title>mnt_comp2&#45;&gt;mnt_comp1</title>
<path fill="none" stroke="black" stroke-width="1.2" d="M1140.32,-229.98C1159.67,-217.66 1185.53,-201.21 1206.58,-187.81"/>
<polygon fill="black" stroke="black" stroke-width="1.2" points="1208.72,-190.6 1215.27,-182.28 1204.96,-184.7 1208.72,-190.6"/>
</g>
<!-- mnt_comp3 -->
<g id="node12" class="node">
<title>mnt_comp3</title>
<path fill="white" stroke="black" d="M631,-121C631,-121 557,-121 557,-121 551,-121 545,-115 545,-109 545,-109 545,-97 545,-97 545,-91 551,-85 557,-85 557,-85 631,-85 631,-85 637,-85 643,-91 643,-97 643,-97 643,-109 643,-109 643,-115 637,-121 631,-121"/>
<text text-anchor="middle" x="594" y="-99.3" font-family="Helvetica,sans-Serif" font-size="14.00">mnt_comp3</text>
</g>
<!-- mnt_comp3&#45;&gt;mnt_comp1 -->
<g id="edge35" class="edge">
<title>mnt_comp3&#45;&gt;mnt_comp1</title>
<path fill="none" stroke="black" stroke-width="1.2" d="M643.15,-94.97C695.13,-87.01 780.44,-76 854.5,-76 854.5,-76 854.5,-76 981,-76 1063.27,-76 1152.88,-115.2 1203.38,-141.28"/>
<polygon fill="black" stroke="black" stroke-width="1.2" points="1201.86,-144.43 1212.35,-145.98 1205.12,-138.23 1201.86,-144.43"/>
</g>
<!-- mnt_comp4 -->
<g id="node13" class="node">
<title>mnt_comp4</title>
<path fill="white" stroke="black" d="M765,-140C765,-140 691,-140 691,-140 685,-140 679,-134 679,-128 679,-128 679,-116 679,-116 679,-110 685,-104 691,-104 691,-104 765,-104 765,-104 771,-104 777,-110 777,-116 777,-116 777,-128 777,-128 777,-134 771,-140 765,-140"/>
<text text-anchor="middle" x="728" y="-118.3" font-family="Helvetica,sans-Serif" font-size="14.00">mnt_comp4</text>
</g>
<!-- mnt_comp3&#45;&gt;mnt_comp4 -->
<g id="edge39" class="edge">
<title>mnt_comp3&#45;&gt;mnt_comp4</title>
<path fill="none" stroke="black" stroke-width="1.2" d="M643.03,-109.91C651.4,-111.12 660.19,-112.38 668.8,-113.62"/>
<polygon fill="black" stroke="black" stroke-width="1.2" points="668.39,-117.1 678.79,-115.06 669.39,-110.17 668.39,-117.1"/>
</g>
<!-- mnt_comp4&#45;&gt;err_error4 -->
<g id="edge32" class="edge">
<title>mnt_comp4&#45;&gt;err_error4</title>
<path fill="none" stroke="black" stroke-width="1.2" d="M777.16,-122C785.52,-122 794.24,-122 802.68,-122"/>
<polygon fill="black" stroke="black" stroke-width="1.2" points="802.81,-125.5 812.81,-122 802.81,-118.5 802.81,-125.5"/>
</g>
<!-- fail_comp1&#45;&gt;pressure -->
<g id="edge21" class="edge">
<title>fail_comp1&#45;&gt;pressure</title>
<path fill="none" stroke="black" stroke-width="1.2" d="M367.48,-182.08C387.88,-204.46 422.77,-242.73 445.98,-268.2"/>
<polygon fill="black" stroke="black" stroke-width="1.2" points="443.46,-270.63 452.78,-275.66 448.63,-265.91 443.46,-270.63"/>
</g>
<!-- fail_comp1&#45;&gt;mnt_comp1 -->
<g id="edge36" class="edge">
<title>fail_comp1&#45;&gt;mnt_comp1</title>
<path fill="none" stroke="black" stroke-width="1.2" d="M396.2,-164C545.01,-164 1019.56,-164 1185.8,-164"/>
<polygon fill="black" stroke="black" stroke-width="1.2" points="1185.83,-167.5 1195.83,-164 1185.83,-160.5 1185.83,-167.5"/>
</g>
<!-- fail_comp2&#45;&gt;rotate -->
<g id="edge15" class="edge">
<title>fail_comp2&#45;&gt;rotate</title>
<path fill="none" stroke="black" stroke-width="1.2" d="M933.69,-218.48C922.08,-220.48 909.6,-222.46 898,-224 691.81,-251.29 638.2,-239.73 432,-267 320.67,-281.73 286.94,-267.46 183,-310 170.98,-314.92 158.96,-322.42 148.66,-329.84"/>
<polygon fill="black" stroke="black" stroke-width="1.2" points="146.36,-327.19 140.46,-335.99 150.56,-332.79 146.36,-327.19"/>
</g>
<!-- fail_comp2&#45;&gt;mnt_comp1 -->
<g id="edge37" class="edge">
<title>fail_comp2&#45;&gt;mnt_comp1</title>
<path fill="none" stroke="black" stroke-width="1.2" d="M1026.21,-202.09C1070.36,-194.37 1137.75,-182.58 1185.86,-174.17"/>
<polygon fill="black" stroke="black" stroke-width="1.2" points="1186.57,-177.6 1195.82,-172.43 1185.37,-170.7 1186.57,-177.6"/>
</g>
<!-- fail_comp2&#45;&gt;mnt_comp2 -->
<g id="edge38" class="edge">
<title>fail_comp2&#45;&gt;mnt_comp2</title>
<path fill="none" stroke="black" stroke-width="1.2" d="M1026.12,-223.29C1034.46,-225.75 1043.28,-228.34 1051.94,-230.9"/>
<polygon fill="black" stroke="black" stroke-width="1.2" points="1051.03,-234.28 1061.62,-233.75 1053.01,-227.56 1051.03,-234.28"/>
</g>
<!-- fail_comp4&#45;&gt;rotate -->
<g id="edge16" class="edge">
<title>fail_comp4&#45;&gt;rotate</title>
<path fill="none" stroke="black" stroke-width="1.2" d="M547.83,-207.22C454.1,-202.32 242.23,-195.93 183,-234 150.68,-254.77 133.78,-297.73 125.76,-326.21"/>
<polygon fill="black" stroke="black" stroke-width="1.2" points="122.35,-325.42 123.19,-335.98 129.12,-327.2 122.35,-325.42"/>
</g>
<!-- fail_comp4&#45;&gt;mnt_comp4 -->
<g id="edge40" class="edge">
<title>fail_comp4&#45;&gt;mnt_comp4</title>
<path fill="none" stroke="black" stroke-width="1.2" d="M622.03,-191.98C642.01,-178.66 669.4,-160.4 691.2,-145.87"/>
<polygon fill="black" stroke="black" stroke-width="1.2" points="693.17,-148.76 699.55,-140.3 689.29,-142.93 693.17,-148.76"/>
</g>
<!-- fail_comp4&#45;&gt;fail_comp2 -->
<g id="edge41" class="edge">
<title>fail_comp4&#45;&gt;fail_comp2</title>
<path fill="none" stroke="black" stroke-width="1.2" d="M640.18,-210C710.81,-210 847.18,-210 923.62,-210"/>
<polygon fill="black" stroke="black" stroke-width="1.2" points="923.99,-213.5 933.99,-210 923.99,-206.5 923.99,-213.5"/>
</g>
</g>
</svg>
