<?xml version="1.0" encoding="UTF-8" standalone="no"?>
<!DOCTYPE svg PUBLIC "-//W3C//DTD SVG 1.1//EN"
 "http://www.w3.org/Graphics/SVG/1.1/DTD/svg11.dtd">
<!-- Generated by graphviz version 2.50.0 (0)
 -->
<!-- Title: G Pages: 1 -->
<svg width="1316pt" height="468pt"
 viewBox="0.00 0.00 1316.00 468.00" xmlns="http://www.w3.org/2000/svg" xmlns:xlink="http://www.w3.org/1999/xlink">
<g id="graph0" class="graph" transform="scale(1 1) rotate(0) translate(4 464)">
<title>G</title>
<polygon fill="white" stroke="transparent" points="-4,4 -4,-464 1312,-464 1312,4 -4,4"/>
<text text-anchor="middle" x="654" y="-443.2" font-family="Times,serif" font-size="16.00">model=model4/cbnb_w_mixed.json [machine 41]</text>
<!-- volt -->
<g id="node1" class="node">
<title>volt</title>
<path fill="white" stroke="black" d="M276,-295C276,-295 246,-295 246,-295 240,-295 234,-289 234,-283 234,-283 234,-271 234,-271 234,-265 240,-259 246,-259 246,-259 276,-259 276,-259 282,-259 288,-265 288,-271 288,-271 288,-283 288,-283 288,-289 282,-295 276,-295"/>
<text text-anchor="middle" x="261" y="-273.3" font-family="Helvetica,sans-Serif" font-size="14.00">volt</text>
</g>
<!-- rotate -->
<g id="node2" class="node">
<title>rotate</title>
<path fill="white" stroke="black" d="M383,-224C383,-224 350,-224 350,-224 344,-224 338,-218 338,-212 338,-212 338,-200 338,-200 338,-194 344,-188 350,-188 350,-188 383,-188 383,-188 389,-188 395,-194 395,-200 395,-200 395,-212 395,-212 395,-218 389,-224 383,-224"/>
<text text-anchor="middle" x="366.5" y="-202.3" font-family="Helvetica,sans-Serif" font-size="14.00">rotate</text>
</g>
<!-- volt&#45;&gt;rotate -->
<g id="edge1" class="edge">
<title>volt&#45;&gt;rotate</title>
<path fill="none" stroke="black" stroke-width="1.2" d="M288.12,-259.08C301.01,-250.24 316.75,-239.45 330.65,-229.91"/>
<polygon fill="black" stroke="black" stroke-width="1.2" points="332.76,-232.7 339.03,-224.16 328.8,-226.93 332.76,-232.7"/>
</g>
<!-- err_error4 -->
<g id="node8" class="node">
<title>err_error4</title>
<path fill="white" stroke="black" d="M397,-357C397,-357 336,-357 336,-357 330,-357 324,-351 324,-345 324,-345 324,-333 324,-333 324,-327 330,-321 336,-321 336,-321 397,-321 397,-321 403,-321 409,-327 409,-333 409,-333 409,-345 409,-345 409,-351 403,-357 397,-357"/>
<text text-anchor="middle" x="366.5" y="-335.3" font-family="Helvetica,sans-Serif" font-size="14.00">err_error4</text>
</g>
<!-- volt&#45;&gt;err_error4 -->
<g id="edge4" class="edge">
<title>volt&#45;&gt;err_error4</title>
<path fill="none" stroke="black" stroke-width="1.2" d="M288.12,-292.65C299.79,-299.64 313.8,-308.03 326.67,-315.74"/>
<polygon fill="black" stroke="black" stroke-width="1.2" points="324.98,-318.81 335.35,-320.94 328.57,-312.8 324.98,-318.81"/>
</g>
<!-- fail_comp1 -->
<g id="node14" class="node">
<title>fail_comp1</title>
<path fill="white" stroke="black" d="M646,-395C646,-395 578,-395 578,-395 572,-395 566,-389 566,-383 566,-383 566,-371 566,-371 566,-365 572,-359 578,-359 578,-359 646,-359 646,-359 652,-359 658,-365 658,-371 658,-371 658,-383 658,-383 658,-389 652,-395 646,-395"/>
<text text-anchor="middle" x="612" y="-373.3" font-family="Helvetica,sans-Serif" font-size="14.00">fail_comp1</text>
</g>
<!-- volt&#45;&gt;fail_comp1 -->
<g id="edge6" class="edge">
<title>volt&#45;&gt;fail_comp1</title>
<path fill="none" stroke="black" stroke-width="1.2" d="M268.79,-295.17C277.8,-316.41 295.93,-350.6 324,-366 396.32,-405.68 495.02,-398.67 555.8,-388.74"/>
<polygon fill="black" stroke="black" stroke-width="1.2" points="556.7,-392.14 565.96,-387 555.51,-385.24 556.7,-392.14"/>
</g>
<!-- err_error1 -->
<g id="node5" class="node">
<title>err_error1</title>
<path fill="white" stroke="black" d="M518,-140C518,-140 457,-140 457,-140 451,-140 445,-134 445,-128 445,-128 445,-116 445,-116 445,-110 451,-104 457,-104 457,-104 518,-104 518,-104 524,-104 530,-110 530,-116 530,-116 530,-128 530,-128 530,-134 524,-140 518,-140"/>
<text text-anchor="middle" x="487.5" y="-118.3" font-family="Helvetica,sans-Serif" font-size="14.00">err_error1</text>
</g>
<!-- rotate&#45;&gt;err_error1 -->
<g id="edge8" class="edge">
<title>rotate&#45;&gt;err_error1</title>
<path fill="none" stroke="black" stroke-width="1.2" d="M401.34,-182.11C417.23,-170.9 436.13,-157.56 452.08,-146.3"/>
<polygon fill="black" stroke="black" stroke-width="1.2" points="399.18,-179.35 393.03,-187.98 403.22,-185.07 399.18,-179.35"/>
<polygon fill="black" stroke="black" stroke-width="1.2" points="454.45,-148.91 460.6,-140.28 450.42,-143.19 454.45,-148.91"/>
</g>
<!-- mnt_comp1 -->
<g id="node10" class="node">
<title>mnt_comp1</title>
<path fill="white" stroke="black" d="M1162,-281C1162,-281 1088,-281 1088,-281 1082,-281 1076,-275 1076,-269 1076,-269 1076,-257 1076,-257 1076,-251 1082,-245 1088,-245 1088,-245 1162,-245 1162,-245 1168,-245 1174,-251 1174,-257 1174,-257 1174,-269 1174,-269 1174,-275 1168,-281 1162,-281"/>
<text text-anchor="middle" x="1125" y="-259.3" font-family="Helvetica,sans-Serif" font-size="14.00">mnt_comp1</text>
</g>
<!-- rotate&#45;&gt;mnt_comp1 -->
<g id="edge11" class="edge">
<title>rotate&#45;&gt;mnt_comp1</title>
<path fill="none" stroke="black" stroke-width="1.2" d="M389.06,-224.06C429.7,-256.21 521.61,-320 611,-320 611,-320 611,-320 858,-320 930.92,-320 1012.63,-299.27 1066.01,-282.81"/>
<polygon fill="black" stroke="black" stroke-width="1.2" points="1067.14,-286.12 1075.64,-279.79 1065.05,-279.44 1067.14,-286.12"/>
</g>
<!-- mnt_comp2 -->
<g id="node11" class="node">
<title>mnt_comp2</title>
<path fill="white" stroke="black" d="M894,-136C894,-136 820,-136 820,-136 814,-136 808,-130 808,-124 808,-124 808,-112 808,-112 808,-106 814,-100 820,-100 820,-100 894,-100 894,-100 900,-100 906,-106 906,-112 906,-112 906,-124 906,-124 906,-130 900,-136 894,-136"/>
<text text-anchor="middle" x="857" y="-114.3" font-family="Helvetica,sans-Serif" font-size="14.00">mnt_comp2</text>
</g>
<!-- rotate&#45;&gt;mnt_comp2 -->
<g id="edge12" class="edge">
<title>rotate&#45;&gt;mnt_comp2</title>
<path fill="none" stroke="black" stroke-width="1.2" d="M374.02,-187.63C384.41,-161.49 407.49,-114.56 445,-95 558.68,-35.72 714.87,-70.82 798.16,-97.13"/>
<polygon fill="black" stroke="black" stroke-width="1.2" points="797.11,-100.47 807.7,-100.21 799.26,-93.81 797.11,-100.47"/>
</g>
<!-- mnt_comp4 -->
<g id="node13" class="node">
<title>mnt_comp4</title>
<path fill="white" stroke="black" d="M1028,-182C1028,-182 954,-182 954,-182 948,-182 942,-176 942,-170 942,-170 942,-158 942,-158 942,-152 948,-146 954,-146 954,-146 1028,-146 1028,-146 1034,-146 1040,-152 1040,-158 1040,-158 1040,-170 1040,-170 1040,-176 1034,-182 1028,-182"/>
<text text-anchor="middle" x="991" y="-160.3" font-family="Helvetica,sans-Serif" font-size="14.00">mnt_comp4</text>
</g>
<!-- rotate&#45;&gt;mnt_comp4 -->
<g id="edge13" class="edge">
<title>rotate&#45;&gt;mnt_comp4</title>
<path fill="none" stroke="black" stroke-width="1.2" d="M404.88,-215.52C452.44,-226.78 537.26,-244 611,-244 611,-244 611,-244 734,-244 811.43,-244 896.28,-210.25 946.24,-186.59"/>
<polygon fill="black" stroke="black" stroke-width="1.2" points="405.58,-212.09 395.04,-213.15 403.94,-218.89 405.58,-212.09"/>
<polygon fill="black" stroke="black" stroke-width="1.2" points="947.96,-189.65 955.46,-182.15 944.93,-183.34 947.96,-189.65"/>
</g>
<!-- pressure -->
<g id="node3" class="node">
<title>pressure</title>
<path fill="white" stroke="black" d="M65,-224C65,-224 12,-224 12,-224 6,-224 0,-218 0,-212 0,-212 0,-200 0,-200 0,-194 6,-188 12,-188 12,-188 65,-188 65,-188 71,-188 77,-194 77,-200 77,-200 77,-212 77,-212 77,-218 71,-224 65,-224"/>
<text text-anchor="middle" x="38.5" y="-202.3" font-family="Helvetica,sans-Serif" font-size="14.00">pressure</text>
</g>
<!-- vibration -->
<g id="node4" class="node">
<title>vibration</title>
<path fill="white" stroke="black" d="M760,-178C760,-178 706,-178 706,-178 700,-178 694,-172 694,-166 694,-166 694,-154 694,-154 694,-148 700,-142 706,-142 706,-142 760,-142 760,-142 766,-142 772,-148 772,-154 772,-154 772,-166 772,-166 772,-172 766,-178 760,-178"/>
<text text-anchor="middle" x="733" y="-156.3" font-family="Helvetica,sans-Serif" font-size="14.00">vibration</text>
</g>
<!-- pressure&#45;&gt;vibration -->
<g id="edge14" class="edge">
<title>pressure&#45;&gt;vibration</title>
<path fill="none" stroke="black" stroke-width="1.2" d="M52.54,-178.7C81.42,-122.7 156.5,0 260,0 260,0 260,0 488.5,0 584.93,0 672.77,-88.72 711.34,-134.03"/>
<polygon fill="black" stroke="black" stroke-width="1.2" points="49.37,-177.21 48,-187.72 55.62,-180.37 49.37,-177.21"/>
<polygon fill="black" stroke="black" stroke-width="1.2" points="708.86,-136.53 717.96,-141.96 714.24,-132.04 708.86,-136.53"/>
</g>
<!-- pressure&#45;&gt;err_error1 -->
<g id="edge15" class="edge">
<title>pressure&#45;&gt;err_error1</title>
<path fill="none" stroke="black" stroke-width="1.2" d="M77.19,-190.51C88.55,-186.29 101.15,-182.05 113,-179 225.77,-149.99 361.74,-133.81 434.51,-126.61"/>
<polygon fill="black" stroke="black" stroke-width="1.2" points="435.16,-130.06 444.78,-125.61 434.49,-123.09 435.16,-130.06"/>
</g>
<!-- err_error3 -->
<g id="node7" class="node">
<title>err_error3</title>
<path fill="white" stroke="black" d="M186,-224C186,-224 125,-224 125,-224 119,-224 113,-218 113,-212 113,-212 113,-200 113,-200 113,-194 119,-188 125,-188 125,-188 186,-188 186,-188 192,-188 198,-194 198,-200 198,-200 198,-212 198,-212 198,-218 192,-224 186,-224"/>
<text text-anchor="middle" x="155.5" y="-202.3" font-family="Helvetica,sans-Serif" font-size="14.00">err_error3</text>
</g>
<!-- pressure&#45;&gt;err_error3 -->
<g id="edge16" class="edge">
<title>pressure&#45;&gt;err_error3</title>
<path fill="none" stroke="black" stroke-width="1.2" d="M77.16,-206C85.35,-206 94.15,-206 102.78,-206"/>
<polygon fill="black" stroke="black" stroke-width="1.2" points="102.78,-209.5 112.78,-206 102.78,-202.5 102.78,-209.5"/>
</g>
<!-- err_error5 -->
<g id="node9" class="node">
<title>err_error5</title>
<path fill="white" stroke="black" d="M186,-284C186,-284 125,-284 125,-284 119,-284 113,-278 113,-272 113,-272 113,-260 113,-260 113,-254 119,-248 125,-248 125,-248 186,-248 186,-248 192,-248 198,-254 198,-260 198,-260 198,-272 198,-272 198,-278 192,-284 186,-284"/>
<text text-anchor="middle" x="155.5" y="-262.3" font-family="Helvetica,sans-Serif" font-size="14.00">err_error5</text>
</g>
<!-- pressure&#45;&gt;err_error5 -->
<g id="edge17" class="edge">
<title>pressure&#45;&gt;err_error5</title>
<path fill="none" stroke="black" stroke-width="1.2" d="M74,-224C85.5,-230 98.46,-236.76 110.57,-243.08"/>
<polygon fill="black" stroke="black" stroke-width="1.2" points="109.14,-246.28 119.62,-247.8 112.38,-240.07 109.14,-246.28"/>
</g>
<!-- pressure&#45;&gt;mnt_comp1 -->
<g id="edge18" class="edge">
<title>pressure&#45;&gt;mnt_comp1</title>
<path fill="none" stroke="black" stroke-width="1.2" d="M46.61,-224.27C69.01,-278.38 143.53,-434 260,-434 260,-434 260,-434 858,-434 944.99,-434 969.3,-412.68 1040,-362 1067.53,-342.26 1091.69,-311.58 1106.94,-289.6"/>
<polygon fill="black" stroke="black" stroke-width="1.2" points="1110.02,-291.31 1112.73,-281.07 1104.22,-287.38 1110.02,-291.31"/>
</g>
<!-- vibration&#45;&gt;rotate -->
<g id="edge7" class="edge">
<title>vibration&#45;&gt;rotate</title>
<path fill="none" stroke="black" stroke-width="1.2" d="M693.82,-176.28C682.48,-180.46 669.91,-184.49 658,-187 568.79,-205.79 461.08,-207.53 405.22,-206.92"/>
<polygon fill="black" stroke="black" stroke-width="1.2" points="405.13,-203.42 395.09,-206.78 405.04,-210.42 405.13,-203.42"/>
</g>
<!-- vibration&#45;&gt;mnt_comp2 -->
<g id="edge22" class="edge">
<title>vibration&#45;&gt;mnt_comp2</title>
<path fill="none" stroke="black" stroke-width="1.2" d="M781.79,-143.55C787.17,-141.7 792.69,-139.8 798.18,-137.91"/>
<polygon fill="black" stroke="black" stroke-width="1.2" points="780.58,-140.26 772.27,-146.83 782.86,-146.88 780.58,-140.26"/>
<polygon fill="black" stroke="black" stroke-width="1.2" points="799.66,-141.1 807.98,-134.53 797.39,-134.48 799.66,-141.1"/>
</g>
<!-- err_error2 -->
<g id="node6" class="node">
<title>err_error2</title>
<path fill="white" stroke="black" d="M642.5,-178C642.5,-178 581.5,-178 581.5,-178 575.5,-178 569.5,-172 569.5,-166 569.5,-166 569.5,-154 569.5,-154 569.5,-148 575.5,-142 581.5,-142 581.5,-142 642.5,-142 642.5,-142 648.5,-142 654.5,-148 654.5,-154 654.5,-154 654.5,-166 654.5,-166 654.5,-172 648.5,-178 642.5,-178"/>
<text text-anchor="middle" x="612" y="-156.3" font-family="Helvetica,sans-Serif" font-size="14.00">err_error2</text>
</g>
<!-- err_error1&#45;&gt;err_error2 -->
<g id="edge24" class="edge">
<title>err_error1&#45;&gt;err_error2</title>
<path fill="none" stroke="black" stroke-width="1.2" d="M530.31,-134.97C539.78,-137.91 549.93,-141.05 559.73,-144.1"/>
<polygon fill="black" stroke="black" stroke-width="1.2" points="558.79,-147.47 569.37,-147.09 560.86,-140.78 558.79,-147.47"/>
</g>
<!-- err_error2&#45;&gt;volt -->
<g id="edge2" class="edge">
<title>err_error2&#45;&gt;volt</title>
<path fill="none" stroke="black" stroke-width="1.2" d="M574.36,-178.04C560.62,-184.46 544.76,-191.46 530,-197 448.61,-227.57 349.96,-254.52 298.01,-267.95"/>
<polygon fill="black" stroke="black" stroke-width="1.2" points="297.08,-264.58 288.27,-270.45 298.82,-271.36 297.08,-264.58"/>
</g>
<!-- err_error2&#45;&gt;rotate -->
<g id="edge9" class="edge">
<title>err_error2&#45;&gt;rotate</title>
<path fill="none" stroke="black" stroke-width="1.2" d="M569.18,-167.9C523.19,-176.59 449.95,-190.42 405.53,-198.82"/>
<polygon fill="black" stroke="black" stroke-width="1.2" points="404.61,-195.43 395.43,-200.72 405.91,-202.31 404.61,-195.43"/>
</g>
<!-- err_error2&#45;&gt;vibration -->
<g id="edge19" class="edge">
<title>err_error2&#45;&gt;vibration</title>
<path fill="none" stroke="black" stroke-width="1.2" d="M654.62,-160C663.97,-160 673.97,-160 683.58,-160"/>
<polygon fill="black" stroke="black" stroke-width="1.2" points="683.79,-163.5 693.79,-160 683.79,-156.5 683.79,-163.5"/>
</g>
<!-- err_error3&#45;&gt;volt -->
<g id="edge3" class="edge">
<title>err_error3&#45;&gt;volt</title>
<path fill="none" stroke="black" stroke-width="1.2" d="M182.89,-224.1C195.78,-232.95 211.47,-243.71 225.32,-253.21"/>
<polygon fill="black" stroke="black" stroke-width="1.2" points="223.44,-256.16 233.66,-258.93 227.4,-250.39 223.44,-256.16"/>
</g>
<!-- err_error3&#45;&gt;rotate -->
<g id="edge10" class="edge">
<title>err_error3&#45;&gt;rotate</title>
<path fill="none" stroke="black" stroke-width="1.2" d="M198.04,-206C235.75,-206 290.89,-206 327.46,-206"/>
<polygon fill="black" stroke="black" stroke-width="1.2" points="327.71,-209.5 337.71,-206 327.71,-202.5 327.71,-209.5"/>
</g>
<!-- err_error3&#45;&gt;vibration -->
<g id="edge20" class="edge">
<title>err_error3&#45;&gt;vibration</title>
<path fill="none" stroke="black" stroke-width="1.2" d="M191.25,-187.79C244.24,-161.15 349.23,-112.79 445,-95 530.71,-79.08 629.66,-113.26 686.13,-137.82"/>
<polygon fill="black" stroke="black" stroke-width="1.2" points="684.93,-141.12 695.49,-141.98 687.77,-134.72 684.93,-141.12"/>
</g>
<!-- err_error4&#45;&gt;fail_comp1 -->
<g id="edge25" class="edge">
<title>err_error4&#45;&gt;fail_comp1</title>
<path fill="none" stroke="black" stroke-width="1.2" d="M409.08,-345.49C449.53,-351.8 511.24,-361.43 555.79,-368.38"/>
<polygon fill="black" stroke="black" stroke-width="1.2" points="555.45,-371.87 565.87,-369.96 556.53,-364.96 555.45,-371.87"/>
</g>
<!-- err_error5&#45;&gt;volt -->
<g id="edge5" class="edge">
<title>err_error5&#45;&gt;volt</title>
<path fill="none" stroke="black" stroke-width="1.2" d="M198,-270.41C206.54,-271.32 215.47,-272.27 223.81,-273.15"/>
<polygon fill="black" stroke="black" stroke-width="1.2" points="223.66,-276.66 233.97,-274.23 224.4,-269.7 223.66,-276.66"/>
</g>
<!-- mnt_comp1&#45;&gt;vibration -->
<g id="edge21" class="edge">
<title>mnt_comp1&#45;&gt;vibration</title>
<path fill="none" stroke="black" stroke-width="1.2" d="M1075.77,-250.26C1000.8,-230.46 857.16,-192.53 782.21,-172.73"/>
<polygon fill="black" stroke="black" stroke-width="1.2" points="782.67,-169.23 772.1,-170.06 780.88,-176 782.67,-169.23"/>
</g>
<!-- mnt_comp3 -->
<g id="node12" class="node">
<title>mnt_comp3</title>
<path fill="white" stroke="black" d="M1296,-182C1296,-182 1222,-182 1222,-182 1216,-182 1210,-176 1210,-170 1210,-170 1210,-158 1210,-158 1210,-152 1216,-146 1222,-146 1222,-146 1296,-146 1296,-146 1302,-146 1308,-152 1308,-158 1308,-158 1308,-170 1308,-170 1308,-176 1302,-182 1296,-182"/>
<text text-anchor="middle" x="1259" y="-160.3" font-family="Helvetica,sans-Serif" font-size="14.00">mnt_comp3</text>
</g>
<!-- mnt_comp1&#45;&gt;mnt_comp3 -->
<g id="edge26" class="edge">
<title>mnt_comp1&#45;&gt;mnt_comp3</title>
<path fill="none" stroke="black" stroke-width="1.2" d="M1150.21,-244.84C1171.42,-228.93 1202.42,-205.69 1225.73,-188.2"/>
<polygon fill="black" stroke="black" stroke-width="1.2" points="1228.04,-190.84 1233.94,-182.04 1223.84,-185.24 1228.04,-190.84"/>
</g>
<!-- mnt_comp2&#45;&gt;mnt_comp3 -->
<g id="edge29" class="edge">
<title>mnt_comp2&#45;&gt;mnt_comp3</title>
<path fill="none" stroke="black" stroke-width="1.2" d="M906.31,-122.79C943,-126.49 994.71,-131.83 1040,-137 1094.31,-143.2 1156.14,-150.92 1200.05,-156.52"/>
<polygon fill="black" stroke="black" stroke-width="1.2" points="1199.61,-159.99 1209.97,-157.78 1200.5,-153.04 1199.61,-159.99"/>
</g>
<!-- mnt_comp2&#45;&gt;mnt_comp4 -->
<g id="edge30" class="edge">
<title>mnt_comp2&#45;&gt;mnt_comp4</title>
<path fill="none" stroke="black" stroke-width="1.2" d="M906.03,-134.74C914.49,-137.69 923.38,-140.78 932.08,-143.82"/>
<polygon fill="black" stroke="black" stroke-width="1.2" points="931.19,-147.21 941.79,-147.2 933.49,-140.6 931.19,-147.21"/>
</g>
<!-- mnt_comp4&#45;&gt;vibration -->
<g id="edge23" class="edge">
<title>mnt_comp4&#45;&gt;vibration</title>
<path fill="none" stroke="black" stroke-width="1.2" d="M941.68,-163.24C896.03,-162.53 827.92,-161.47 782.28,-160.75"/>
<polygon fill="black" stroke="black" stroke-width="1.2" points="782.1,-157.25 772.05,-160.59 781.99,-164.25 782.1,-157.25"/>
</g>
<!-- mnt_comp4&#45;&gt;mnt_comp1 -->
<g id="edge27" class="edge">
<title>mnt_comp4&#45;&gt;mnt_comp1</title>
<path fill="none" stroke="black" stroke-width="1.2" d="M1019.94,-182.05C1026.59,-186.5 1033.61,-191.33 1040,-196 1058.47,-209.49 1078.52,-225.43 1094.4,-238.37"/>
<polygon fill="black" stroke="black" stroke-width="1.2" points="1092.34,-241.21 1102.29,-244.84 1096.78,-235.8 1092.34,-241.21"/>
</g>
<!-- mnt_comp4&#45;&gt;mnt_comp3 -->
<g id="edge31" class="edge">
<title>mnt_comp4&#45;&gt;mnt_comp3</title>
<path fill="none" stroke="black" stroke-width="1.2" d="M1040.17,-164C1084.94,-164 1151.73,-164 1199.54,-164"/>
<polygon fill="black" stroke="black" stroke-width="1.2" points="1199.74,-167.5 1209.74,-164 1199.74,-160.5 1199.74,-167.5"/>
</g>
<!-- fail_comp1&#45;&gt;mnt_comp1 -->
<g id="edge28" class="edge">
<title>fail_comp1&#45;&gt;mnt_comp1</title>
<path fill="none" stroke="black" stroke-width="1.2" d="M658.16,-380.96C738.49,-386.2 910.01,-389.12 1040,-334 1063.87,-323.88 1086.05,-304.52 1101.62,-288.57"/>
<polygon fill="black" stroke="black" stroke-width="1.2" points="1104.38,-290.74 1108.71,-281.07 1099.29,-285.93 1104.38,-290.74"/>
</g>
<!-- fail_comp1&#45;&gt;mnt_comp4 -->
<g id="edge32" class="edge">
<title>fail_comp1&#45;&gt;mnt_comp4</title>
<path fill="none" stroke="black" stroke-width="1.2" d="M658.07,-365.63C718.45,-348.92 827.11,-313.57 906,-258 932.42,-239.39 956.31,-210.98 971.8,-190.26"/>
<polygon fill="black" stroke="black" stroke-width="1.2" points="974.63,-192.32 977.7,-182.18 968.97,-188.19 974.63,-192.32"/>
</g>
</g>
</svg>
