<?xml version="1.0" encoding="UTF-8" standalone="no"?>
<!DOCTYPE svg PUBLIC "-//W3C//DTD SVG 1.1//EN"
 "http://www.w3.org/Graphics/SVG/1.1/DTD/svg11.dtd">
<!-- Generated by graphviz version 2.50.0 (0)
 -->
<!-- Title: G Pages: 1 -->
<svg width="454pt" height="178pt"
 viewBox="0.00 0.00 454.00 178.00" xmlns="http://www.w3.org/2000/svg" xmlns:xlink="http://www.w3.org/1999/xlink">
<g id="graph0" class="graph" transform="scale(1 1) rotate(0) translate(4 174)">
<title>G</title>
<polygon fill="white" stroke="transparent" points="-4,4 -4,-174 450,-174 450,4 -4,4"/>
<text text-anchor="middle" x="223" y="-153.2" font-family="Times,serif" font-size="16.00">model=model4/cbnb_w_telemetry.json [machine 91]</text>
<!-- volt -->
<g id="node1" class="node">
<title>volt</title>
<path fill="white" stroke="black" d="M295,-63C295,-63 265,-63 265,-63 259,-63 253,-57 253,-51 253,-51 253,-39 253,-39 253,-33 259,-27 265,-27 265,-27 295,-27 295,-27 301,-27 307,-33 307,-39 307,-39 307,-51 307,-51 307,-57 301,-63 295,-63"/>
<text text-anchor="middle" x="280" y="-41.3" font-family="Helvetica,sans-Serif" font-size="14.00">volt</text>
</g>
<!-- rotate -->
<g id="node2" class="node">
<title>rotate</title>
<path fill="white" stroke="black" d="M194.5,-90C194.5,-90 161.5,-90 161.5,-90 155.5,-90 149.5,-84 149.5,-78 149.5,-78 149.5,-66 149.5,-66 149.5,-60 155.5,-54 161.5,-54 161.5,-54 194.5,-54 194.5,-54 200.5,-54 206.5,-60 206.5,-66 206.5,-66 206.5,-78 206.5,-78 206.5,-84 200.5,-90 194.5,-90"/>
<text text-anchor="middle" x="178" y="-68.3" font-family="Helvetica,sans-Serif" font-size="14.00">rotate</text>
</g>
<!-- rotate&#45;&gt;volt -->
<g id="edge1" class="edge">
<title>rotate&#45;&gt;volt</title>
<path fill="none" stroke="black" stroke-width="1.2" d="M206.59,-64.55C217.88,-61.5 231.1,-57.93 243.12,-54.69"/>
<polygon fill="black" stroke="black" stroke-width="1.2" points="244.13,-58.04 252.88,-52.05 242.31,-51.28 244.13,-58.04"/>
</g>
<!-- pressure -->
<g id="node3" class="node">
<title>pressure</title>
<path fill="white" stroke="black" d="M204.5,-36C204.5,-36 151.5,-36 151.5,-36 145.5,-36 139.5,-30 139.5,-24 139.5,-24 139.5,-12 139.5,-12 139.5,-6 145.5,0 151.5,0 151.5,0 204.5,0 204.5,0 210.5,0 216.5,-6 216.5,-12 216.5,-12 216.5,-24 216.5,-24 216.5,-30 210.5,-36 204.5,-36"/>
<text text-anchor="middle" x="178" y="-14.3" font-family="Helvetica,sans-Serif" font-size="14.00">pressure</text>
</g>
<!-- pressure&#45;&gt;volt -->
<g id="edge2" class="edge">
<title>pressure&#45;&gt;volt</title>
<path fill="none" stroke="black" stroke-width="1.2" d="M216.52,-28.13C225.2,-30.48 234.42,-32.96 243.04,-35.29"/>
<polygon fill="black" stroke="black" stroke-width="1.2" points="242.24,-38.7 252.81,-37.93 244.06,-31.94 242.24,-38.7"/>
</g>
<!-- vibration -->
<g id="node4" class="node">
<title>vibration</title>
<path fill="white" stroke="black" d="M205,-144C205,-144 151,-144 151,-144 145,-144 139,-138 139,-132 139,-132 139,-120 139,-120 139,-114 145,-108 151,-108 151,-108 205,-108 205,-108 211,-108 217,-114 217,-120 217,-120 217,-132 217,-132 217,-138 211,-144 205,-144"/>
<text text-anchor="middle" x="178" y="-122.3" font-family="Helvetica,sans-Serif" font-size="14.00">vibration</text>
</g>
</g>
</svg>
