<?xml version="1.0" encoding="UTF-8" standalone="no"?>
<!DOCTYPE svg PUBLIC "-//W3C//DTD SVG 1.1//EN"
 "http://www.w3.org/Graphics/SVG/1.1/DTD/svg11.dtd">
<!-- Generated by graphviz version 2.50.0 (0)
 -->
<!-- Title: G Pages: 1 -->
<svg width="1074pt" height="666pt"
 viewBox="0.00 0.00 1074.00 666.00" xmlns="http://www.w3.org/2000/svg" xmlns:xlink="http://www.w3.org/1999/xlink">
<g id="graph0" class="graph" transform="scale(1 1) rotate(0) translate(4 662)">
<title>G</title>
<polygon fill="white" stroke="transparent" points="-4,4 -4,-662 1070,-662 1070,4 -4,4"/>
<text text-anchor="middle" x="533" y="-641.2" font-family="Times,serif" font-size="16.00">model=model4/cbnb_w_mixed.json [machine 63]</text>
<!-- volt -->
<g id="node1" class="node">
<title>volt</title>
<path fill="white" stroke="black" d="M42,-501C42,-501 12,-501 12,-501 6,-501 0,-495 0,-489 0,-489 0,-477 0,-477 0,-471 6,-465 12,-465 12,-465 42,-465 42,-465 48,-465 54,-471 54,-477 54,-477 54,-489 54,-489 54,-495 48,-501 42,-501"/>
<text text-anchor="middle" x="27" y="-479.3" font-family="Helvetica,sans-Serif" font-size="14.00">volt</text>
</g>
<!-- pressure -->
<g id="node3" class="node">
<title>pressure</title>
<path fill="white" stroke="black" d="M155,-345C155,-345 102,-345 102,-345 96,-345 90,-339 90,-333 90,-333 90,-321 90,-321 90,-315 96,-309 102,-309 102,-309 155,-309 155,-309 161,-309 167,-315 167,-321 167,-321 167,-333 167,-333 167,-339 161,-345 155,-345"/>
<text text-anchor="middle" x="128.5" y="-323.3" font-family="Helvetica,sans-Serif" font-size="14.00">pressure</text>
</g>
<!-- volt&#45;&gt;pressure -->
<g id="edge1" class="edge">
<title>volt&#45;&gt;pressure</title>
<path fill="none" stroke="black" stroke-width="1.2" d="M39.61,-464.8C57.06,-437.44 90.15,-385.55 110.38,-353.84"/>
<polygon fill="black" stroke="black" stroke-width="1.2" points="113.54,-355.4 115.97,-345.08 107.64,-351.63 113.54,-355.4"/>
</g>
<!-- err_error2 -->
<g id="node6" class="node">
<title>err_error2</title>
<path fill="white" stroke="black" d="M645.5,-490C645.5,-490 584.5,-490 584.5,-490 578.5,-490 572.5,-484 572.5,-478 572.5,-478 572.5,-466 572.5,-466 572.5,-460 578.5,-454 584.5,-454 584.5,-454 645.5,-454 645.5,-454 651.5,-454 657.5,-460 657.5,-466 657.5,-466 657.5,-478 657.5,-478 657.5,-484 651.5,-490 645.5,-490"/>
<text text-anchor="middle" x="615" y="-468.3" font-family="Helvetica,sans-Serif" font-size="14.00">err_error2</text>
</g>
<!-- volt&#45;&gt;err_error2 -->
<g id="edge3" class="edge">
<title>volt&#45;&gt;err_error2</title>
<path fill="none" stroke="black" stroke-width="1.2" d="M54.26,-494.12C65.19,-498.5 78.08,-503.34 90,-507 139.27,-522.12 151.79,-527.19 203,-533 332.82,-547.74 484.67,-511.09 562.4,-488.39"/>
<polygon fill="black" stroke="black" stroke-width="1.2" points="563.82,-491.62 572.41,-485.42 561.83,-484.91 563.82,-491.62"/>
</g>
<!-- err_error3 -->
<g id="node7" class="node">
<title>err_error3</title>
<path fill="white" stroke="black" d="M779.5,-513C779.5,-513 718.5,-513 718.5,-513 712.5,-513 706.5,-507 706.5,-501 706.5,-501 706.5,-489 706.5,-489 706.5,-483 712.5,-477 718.5,-477 718.5,-477 779.5,-477 779.5,-477 785.5,-477 791.5,-483 791.5,-489 791.5,-489 791.5,-501 791.5,-501 791.5,-507 785.5,-513 779.5,-513"/>
<text text-anchor="middle" x="749" y="-491.3" font-family="Helvetica,sans-Serif" font-size="14.00">err_error3</text>
</g>
<!-- volt&#45;&gt;err_error3 -->
<g id="edge4" class="edge">
<title>volt&#45;&gt;err_error3</title>
<path fill="none" stroke="black" stroke-width="1.2" d="M55.21,-507.72C94.14,-540.43 169.38,-594 244.5,-594 244.5,-594 244.5,-594 485,-594 566.82,-594 589.02,-583.75 664,-551 682.97,-542.71 702.32,-530.15 717.66,-519.02"/>
<polygon fill="black" stroke="black" stroke-width="1.2" points="57.33,-504.93 47.46,-501.08 52.78,-510.25 57.33,-504.93"/>
<polygon fill="black" stroke="black" stroke-width="1.2" points="719.8,-521.79 725.74,-513.02 715.62,-516.17 719.8,-521.79"/>
</g>
<!-- err_error4 -->
<g id="node8" class="node">
<title>err_error4</title>
<path fill="white" stroke="black" d="M276,-470C276,-470 215,-470 215,-470 209,-470 203,-464 203,-458 203,-458 203,-446 203,-446 203,-440 209,-434 215,-434 215,-434 276,-434 276,-434 282,-434 288,-440 288,-446 288,-446 288,-458 288,-458 288,-464 282,-470 276,-470"/>
<text text-anchor="middle" x="245.5" y="-448.3" font-family="Helvetica,sans-Serif" font-size="14.00">err_error4</text>
</g>
<!-- volt&#45;&gt;err_error4 -->
<g id="edge5" class="edge">
<title>volt&#45;&gt;err_error4</title>
<path fill="none" stroke="black" stroke-width="1.2" d="M54.11,-479.26C88.27,-474.37 148.87,-465.69 192.55,-459.44"/>
<polygon fill="black" stroke="black" stroke-width="1.2" points="193.3,-462.87 202.7,-457.99 192.31,-455.94 193.3,-462.87"/>
</g>
<!-- fail_comp1 -->
<g id="node14" class="node">
<title>fail_comp1</title>
<path fill="white" stroke="black" d="M518,-220C518,-220 450,-220 450,-220 444,-220 438,-214 438,-208 438,-208 438,-196 438,-196 438,-190 444,-184 450,-184 450,-184 518,-184 518,-184 524,-184 530,-190 530,-196 530,-196 530,-208 530,-208 530,-214 524,-220 518,-220"/>
<text text-anchor="middle" x="484" y="-198.3" font-family="Helvetica,sans-Serif" font-size="14.00">fail_comp1</text>
</g>
<!-- volt&#45;&gt;fail_comp1 -->
<g id="edge8" class="edge">
<title>volt&#45;&gt;fail_comp1</title>
<path fill="none" stroke="black" stroke-width="1.2" d="M29.85,-454.8C33.97,-414.92 47.26,-342.21 90,-300 181.5,-209.65 342.82,-198.37 427.52,-199.3"/>
<polygon fill="black" stroke="black" stroke-width="1.2" points="26.35,-454.61 28.93,-464.89 33.32,-455.25 26.35,-454.61"/>
<polygon fill="black" stroke="black" stroke-width="1.2" points="427.64,-202.81 437.7,-199.48 427.76,-195.81 427.64,-202.81"/>
</g>
<!-- rotate -->
<g id="node2" class="node">
<title>rotate</title>
<path fill="white" stroke="black" d="M500.5,-350C500.5,-350 467.5,-350 467.5,-350 461.5,-350 455.5,-344 455.5,-338 455.5,-338 455.5,-326 455.5,-326 455.5,-320 461.5,-314 467.5,-314 467.5,-314 500.5,-314 500.5,-314 506.5,-314 512.5,-320 512.5,-326 512.5,-326 512.5,-338 512.5,-338 512.5,-344 506.5,-350 500.5,-350"/>
<text text-anchor="middle" x="484" y="-328.3" font-family="Helvetica,sans-Serif" font-size="14.00">rotate</text>
</g>
<!-- rotate&#45;&gt;pressure -->
<g id="edge9" class="edge">
<title>rotate&#45;&gt;pressure</title>
<path fill="none" stroke="black" stroke-width="1.2" d="M445.31,-331.47C380.63,-330.55 248.6,-328.68 177.46,-327.68"/>
<polygon fill="black" stroke="black" stroke-width="1.2" points="445.42,-334.97 455.46,-331.61 445.51,-327.97 445.42,-334.97"/>
<polygon fill="black" stroke="black" stroke-width="1.2" points="177.38,-324.18 167.33,-327.54 177.28,-331.18 177.38,-324.18"/>
</g>
<!-- rotate&#45;&gt;err_error2 -->
<g id="edge11" class="edge">
<title>rotate&#45;&gt;err_error2</title>
<path fill="none" stroke="black" stroke-width="1.2" d="M501.48,-358.94C516.47,-382.1 540.15,-415.54 566,-440 568.86,-442.71 571.98,-445.34 575.21,-447.86"/>
<polygon fill="black" stroke="black" stroke-width="1.2" points="504.3,-356.86 495.98,-350.3 498.4,-360.62 504.3,-356.86"/>
<polygon fill="black" stroke="black" stroke-width="1.2" points="573.24,-450.76 583.37,-453.85 577.38,-445.11 573.24,-450.76"/>
</g>
<!-- fail_comp2 -->
<g id="node15" class="node">
<title>fail_comp2</title>
<path fill="white" stroke="black" d="M649,-208C649,-208 581,-208 581,-208 575,-208 569,-202 569,-196 569,-196 569,-184 569,-184 569,-178 575,-172 581,-172 581,-172 649,-172 649,-172 655,-172 661,-178 661,-184 661,-184 661,-196 661,-196 661,-202 655,-208 649,-208"/>
<text text-anchor="middle" x="615" y="-186.3" font-family="Helvetica,sans-Serif" font-size="14.00">fail_comp2</text>
</g>
<!-- rotate&#45;&gt;fail_comp2 -->
<g id="edge17" class="edge">
<title>rotate&#45;&gt;fail_comp2</title>
<path fill="none" stroke="black" stroke-width="1.2" d="M508.44,-306.2C531.77,-280.52 567.36,-241.34 590.66,-215.7"/>
<polygon fill="black" stroke="black" stroke-width="1.2" points="505.73,-303.97 501.6,-313.73 510.92,-308.68 505.73,-303.97"/>
<polygon fill="black" stroke="black" stroke-width="1.2" points="593.33,-217.96 597.46,-208.2 588.15,-213.25 593.33,-217.96"/>
</g>
<!-- err_error1 -->
<g id="node5" class="node">
<title>err_error1</title>
<path fill="white" stroke="black" d="M276,-524C276,-524 215,-524 215,-524 209,-524 203,-518 203,-512 203,-512 203,-500 203,-500 203,-494 209,-488 215,-488 215,-488 276,-488 276,-488 282,-488 288,-494 288,-500 288,-500 288,-512 288,-512 288,-518 282,-524 276,-524"/>
<text text-anchor="middle" x="245.5" y="-502.3" font-family="Helvetica,sans-Serif" font-size="14.00">err_error1</text>
</g>
<!-- pressure&#45;&gt;err_error1 -->
<g id="edge18" class="edge">
<title>pressure&#45;&gt;err_error1</title>
<path fill="none" stroke="black" stroke-width="1.2" d="M134.74,-345.21C144.25,-375.72 166.77,-437.87 203,-479 203.62,-479.71 204.27,-480.4 204.93,-481.08"/>
<polygon fill="black" stroke="black" stroke-width="1.2" points="202.85,-483.92 212.65,-487.95 207.51,-478.69 202.85,-483.92"/>
</g>
<!-- pressure&#45;&gt;err_error3 -->
<g id="edge19" class="edge">
<title>pressure&#45;&gt;err_error3</title>
<path fill="none" stroke="black" stroke-width="1.2" d="M162.41,-345.14C233.45,-383.13 407.58,-469.9 566,-499 609.47,-506.98 659.76,-505.05 696.45,-501.65"/>
<polygon fill="black" stroke="black" stroke-width="1.2" points="696.81,-505.14 706.42,-500.66 696.12,-498.17 696.81,-505.14"/>
</g>
<!-- mnt_comp4 -->
<g id="node13" class="node">
<title>mnt_comp4</title>
<path fill="white" stroke="black" d="M920,-147C920,-147 846,-147 846,-147 840,-147 834,-141 834,-135 834,-135 834,-123 834,-123 834,-117 840,-111 846,-111 846,-111 920,-111 920,-111 926,-111 932,-117 932,-123 932,-123 932,-135 932,-135 932,-141 926,-147 920,-147"/>
<text text-anchor="middle" x="883" y="-125.3" font-family="Helvetica,sans-Serif" font-size="14.00">mnt_comp4</text>
</g>
<!-- pressure&#45;&gt;mnt_comp4 -->
<g id="edge21" class="edge">
<title>pressure&#45;&gt;mnt_comp4</title>
<path fill="none" stroke="black" stroke-width="1.2" d="M129.44,-298.5C131.05,-249.53 142.11,-150.03 203,-102 297.98,-27.08 676.53,-89.52 823.36,-117.33"/>
<polygon fill="black" stroke="black" stroke-width="1.2" points="125.94,-298.63 129.22,-308.7 132.94,-298.78 125.94,-298.63"/>
<polygon fill="black" stroke="black" stroke-width="1.2" points="823.05,-120.83 833.53,-119.27 824.36,-113.95 823.05,-120.83"/>
</g>
<!-- fail_comp4 -->
<g id="node16" class="node">
<title>fail_comp4</title>
<path fill="white" stroke="black" d="M518,-128C518,-128 450,-128 450,-128 444,-128 438,-122 438,-116 438,-116 438,-104 438,-104 438,-98 444,-92 450,-92 450,-92 518,-92 518,-92 524,-92 530,-98 530,-104 530,-104 530,-116 530,-116 530,-122 524,-128 518,-128"/>
<text text-anchor="middle" x="484" y="-106.3" font-family="Helvetica,sans-Serif" font-size="14.00">fail_comp4</text>
</g>
<!-- pressure&#45;&gt;fail_comp4 -->
<g id="edge24" class="edge">
<title>pressure&#45;&gt;fail_comp4</title>
<path fill="none" stroke="black" stroke-width="1.2" d="M131.88,-298.93C137.03,-257.34 153.14,-180.16 203,-142 267.55,-92.6 366.25,-93.84 427.58,-100.8"/>
<polygon fill="black" stroke="black" stroke-width="1.2" points="128.39,-298.61 130.77,-308.93 135.35,-299.38 128.39,-298.61"/>
<polygon fill="black" stroke="black" stroke-width="1.2" points="427.49,-104.31 437.84,-102.06 428.34,-97.37 427.49,-104.31"/>
</g>
<!-- vibration -->
<g id="node4" class="node">
<title>vibration</title>
<path fill="white" stroke="black" d="M390,-299C390,-299 336,-299 336,-299 330,-299 324,-293 324,-287 324,-287 324,-275 324,-275 324,-269 330,-263 336,-263 336,-263 390,-263 390,-263 396,-263 402,-269 402,-275 402,-275 402,-287 402,-287 402,-293 396,-299 390,-299"/>
<text text-anchor="middle" x="363" y="-277.3" font-family="Helvetica,sans-Serif" font-size="14.00">vibration</text>
</g>
<!-- vibration&#45;&gt;rotate -->
<g id="edge10" class="edge">
<title>vibration&#45;&gt;rotate</title>
<path fill="none" stroke="black" stroke-width="1.2" d="M402.31,-297.42C416.33,-303.43 432.16,-310.21 446.06,-316.17"/>
<polygon fill="black" stroke="black" stroke-width="1.2" points="444.76,-319.42 455.33,-320.14 447.51,-312.98 444.76,-319.42"/>
</g>
<!-- mnt_comp1 -->
<g id="node10" class="node">
<title>mnt_comp1</title>
<path fill="white" stroke="black" d="M1054,-254C1054,-254 980,-254 980,-254 974,-254 968,-248 968,-242 968,-242 968,-230 968,-230 968,-224 974,-218 980,-218 980,-218 1054,-218 1054,-218 1060,-218 1066,-224 1066,-230 1066,-230 1066,-242 1066,-242 1066,-248 1060,-254 1054,-254"/>
<text text-anchor="middle" x="1017" y="-232.3" font-family="Helvetica,sans-Serif" font-size="14.00">mnt_comp1</text>
</g>
<!-- vibration&#45;&gt;mnt_comp1 -->
<g id="edge26" class="edge">
<title>vibration&#45;&gt;mnt_comp1</title>
<path fill="none" stroke="black" stroke-width="1.2" d="M412.42,-277.66C529.97,-269.54 830.13,-248.83 957.47,-240.04"/>
<polygon fill="black" stroke="black" stroke-width="1.2" points="412.09,-274.17 402.35,-278.35 412.57,-281.16 412.09,-274.17"/>
<polygon fill="black" stroke="black" stroke-width="1.2" points="958.05,-243.51 967.79,-239.33 957.57,-236.52 958.05,-243.51"/>
</g>
<!-- mnt_comp2 -->
<g id="node11" class="node">
<title>mnt_comp2</title>
<path fill="white" stroke="black" d="M786,-170C786,-170 712,-170 712,-170 706,-170 700,-164 700,-158 700,-158 700,-146 700,-146 700,-140 706,-134 712,-134 712,-134 786,-134 786,-134 792,-134 798,-140 798,-146 798,-146 798,-158 798,-158 798,-164 792,-170 786,-170"/>
<text text-anchor="middle" x="749" y="-148.3" font-family="Helvetica,sans-Serif" font-size="14.00">mnt_comp2</text>
</g>
<!-- vibration&#45;&gt;mnt_comp2 -->
<g id="edge27" class="edge">
<title>vibration&#45;&gt;mnt_comp2</title>
<path fill="none" stroke="black" stroke-width="1.2" d="M402.14,-277.29C438.53,-271.99 493.12,-259.28 530,-229 555.82,-207.8 537.8,-180.92 566,-163 602.27,-139.96 651.24,-138.26 689.25,-141.75"/>
<polygon fill="black" stroke="black" stroke-width="1.2" points="689.35,-145.28 699.66,-142.86 690.09,-138.32 689.35,-145.28"/>
</g>
<!-- vibration&#45;&gt;fail_comp1 -->
<g id="edge28" class="edge">
<title>vibration&#45;&gt;fail_comp1</title>
<path fill="none" stroke="black" stroke-width="1.2" d="M399.81,-257.22C414.84,-247.25 432.28,-235.67 447.3,-225.7"/>
<polygon fill="black" stroke="black" stroke-width="1.2" points="397.7,-254.43 391.3,-262.88 401.57,-260.26 397.7,-254.43"/>
<polygon fill="black" stroke="black" stroke-width="1.2" points="449.43,-228.49 455.83,-220.04 445.56,-222.65 449.43,-228.49"/>
</g>
<!-- err_error1&#45;&gt;volt -->
<g id="edge2" class="edge">
<title>err_error1&#45;&gt;volt</title>
<path fill="none" stroke="black" stroke-width="1.2" d="M202.7,-501.56C162.54,-497.29 102.47,-490.91 64.27,-486.85"/>
<polygon fill="black" stroke="black" stroke-width="1.2" points="64.43,-483.35 54.11,-485.77 63.69,-490.31 64.43,-483.35"/>
</g>
<!-- err_error1&#45;&gt;vibration -->
<g id="edge25" class="edge">
<title>err_error1&#45;&gt;vibration</title>
<path fill="none" stroke="black" stroke-width="1.2" d="M279.06,-487.87C282.35,-485.18 285.42,-482.22 288,-479 329.39,-427.38 349.19,-350.25 357.27,-309.16"/>
<polygon fill="black" stroke="black" stroke-width="1.2" points="360.72,-309.76 359.13,-299.28 353.84,-308.47 360.72,-309.76"/>
</g>
<!-- err_error2&#45;&gt;err_error1 -->
<g id="edge29" class="edge">
<title>err_error2&#45;&gt;err_error1</title>
<path fill="none" stroke="black" stroke-width="1.2" d="M572.16,-468.42C558.71,-467.43 543.73,-466.49 530,-466 489.14,-464.54 478.67,-461.8 438,-466 390.09,-470.95 336.48,-482.69 298.2,-492.18"/>
<polygon fill="black" stroke="black" stroke-width="1.2" points="297.17,-488.83 288.32,-494.67 298.88,-495.62 297.17,-488.83"/>
</g>
<!-- err_error2&#45;&gt;err_error3 -->
<g id="edge31" class="edge">
<title>err_error2&#45;&gt;err_error3</title>
<path fill="none" stroke="black" stroke-width="1.2" d="M657.77,-479.28C669.92,-481.4 683.36,-483.74 696.06,-485.95"/>
<polygon fill="black" stroke="black" stroke-width="1.2" points="695.6,-489.42 706.05,-487.69 696.8,-482.53 695.6,-489.42"/>
</g>
<!-- err_error5 -->
<g id="node9" class="node">
<title>err_error5</title>
<path fill="white" stroke="black" d="M779.5,-406C779.5,-406 718.5,-406 718.5,-406 712.5,-406 706.5,-400 706.5,-394 706.5,-394 706.5,-382 706.5,-382 706.5,-376 712.5,-370 718.5,-370 718.5,-370 779.5,-370 779.5,-370 785.5,-370 791.5,-376 791.5,-382 791.5,-382 791.5,-394 791.5,-394 791.5,-400 785.5,-406 779.5,-406"/>
<text text-anchor="middle" x="749" y="-384.3" font-family="Helvetica,sans-Serif" font-size="14.00">err_error5</text>
</g>
<!-- err_error2&#45;&gt;err_error5 -->
<g id="edge32" class="edge">
<title>err_error2&#45;&gt;err_error5</title>
<path fill="none" stroke="black" stroke-width="1.2" d="M644.32,-453.98C663.67,-441.66 689.53,-425.21 710.58,-411.81"/>
<polygon fill="black" stroke="black" stroke-width="1.2" points="712.72,-414.6 719.27,-406.28 708.96,-408.7 712.72,-414.6"/>
</g>
<!-- err_error3&#45;&gt;rotate -->
<g id="edge12" class="edge">
<title>err_error3&#45;&gt;rotate</title>
<path fill="none" stroke="black" stroke-width="1.2" d="M718.73,-476.86C670.37,-446.89 573.95,-387.13 521.32,-354.51"/>
<polygon fill="black" stroke="black" stroke-width="1.2" points="522.99,-351.43 512.65,-349.14 519.3,-357.38 522.99,-351.43"/>
</g>
<!-- err_error3&#45;&gt;err_error1 -->
<g id="edge30" class="edge">
<title>err_error3&#45;&gt;err_error1</title>
<path fill="none" stroke="black" stroke-width="1.2" d="M715.55,-513.07C700.38,-520.51 681.78,-528.26 664,-532 534.61,-559.23 378.08,-534.58 298.47,-518.07"/>
<polygon fill="black" stroke="black" stroke-width="1.2" points="298.73,-514.54 288.22,-515.9 297.28,-521.39 298.73,-514.54"/>
</g>
<!-- err_error3&#45;&gt;mnt_comp1 -->
<g id="edge33" class="edge">
<title>err_error3&#45;&gt;mnt_comp1</title>
<path fill="none" stroke="black" stroke-width="1.2" d="M770.37,-476.95C804.49,-446.53 875.06,-382.79 932,-326 953,-305.06 975.91,-280.38 992.49,-262.16"/>
<polygon fill="black" stroke="black" stroke-width="1.2" points="995.51,-264.05 999.64,-254.29 990.33,-259.34 995.51,-264.05"/>
</g>
<!-- err_error4&#45;&gt;rotate -->
<g id="edge13" class="edge">
<title>err_error4&#45;&gt;rotate</title>
<path fill="none" stroke="black" stroke-width="1.2" d="M282.16,-433.9C326.38,-411.47 401.35,-373.43 446.12,-350.71"/>
<polygon fill="black" stroke="black" stroke-width="1.2" points="447.86,-353.75 455.19,-346.11 444.69,-347.51 447.86,-353.75"/>
</g>
<!-- err_error5&#45;&gt;rotate -->
<g id="edge14" class="edge">
<title>err_error5&#45;&gt;rotate</title>
<path fill="none" stroke="black" stroke-width="1.2" d="M706.09,-379.08C655.44,-368.29 570.99,-350.31 522.44,-339.97"/>
<polygon fill="black" stroke="black" stroke-width="1.2" points="523.16,-336.55 512.65,-337.89 521.7,-343.39 523.16,-336.55"/>
</g>
<!-- err_error5&#45;&gt;pressure -->
<g id="edge20" class="edge">
<title>err_error5&#45;&gt;pressure</title>
<path fill="none" stroke="black" stroke-width="1.2" d="M706.43,-384.93C669.53,-382.18 614.16,-377.98 566,-374 404.59,-360.68 363.27,-365.34 203,-342 194.57,-340.77 185.65,-339.19 177.04,-337.52"/>
<polygon fill="black" stroke="black" stroke-width="1.2" points="177.62,-334.07 167.13,-335.53 176.24,-340.93 177.62,-334.07"/>
</g>
<!-- mnt_comp1&#45;&gt;volt -->
<g id="edge6" class="edge">
<title>mnt_comp1&#45;&gt;volt</title>
<path fill="none" stroke="black" stroke-width="1.2" d="M1013.09,-254.04C999.46,-331.51 934.69,-632 750,-632 244.5,-632 244.5,-632 244.5,-632 170.34,-632 148.28,-614.86 90,-569 69.71,-553.03 53.03,-528.74 42.11,-510.04"/>
<polygon fill="black" stroke="black" stroke-width="1.2" points="45.03,-508.1 37.08,-501.11 38.94,-511.54 45.03,-508.1"/>
</g>
<!-- mnt_comp1&#45;&gt;rotate -->
<g id="edge15" class="edge">
<title>mnt_comp1&#45;&gt;rotate</title>
<path fill="none" stroke="black" stroke-width="1.2" d="M967.77,-244.72C863.14,-263.64 617.12,-308.11 522.76,-325.17"/>
<polygon fill="black" stroke="black" stroke-width="1.2" points="522.02,-321.75 512.8,-326.97 523.26,-328.64 522.02,-321.75"/>
</g>
<!-- mnt_comp2&#45;&gt;rotate -->
<g id="edge16" class="edge">
<title>mnt_comp2&#45;&gt;rotate</title>
<path fill="none" stroke="black" stroke-width="1.2" d="M725.59,-170.2C708.89,-183.55 685.39,-201.9 664,-217 615.88,-250.98 558.24,-287.25 521.62,-309.78"/>
<polygon fill="black" stroke="black" stroke-width="1.2" points="519.48,-306.99 512.79,-315.2 523.14,-312.95 519.48,-306.99"/>
</g>
<!-- mnt_comp2&#45;&gt;mnt_comp4 -->
<g id="edge38" class="edge">
<title>mnt_comp2&#45;&gt;mnt_comp4</title>
<path fill="none" stroke="black" stroke-width="1.2" d="M798.03,-143.63C806.4,-142.17 815.19,-140.64 823.8,-139.14"/>
<polygon fill="black" stroke="black" stroke-width="1.2" points="824.54,-142.57 833.79,-137.4 823.33,-135.67 824.54,-142.57"/>
</g>
<!-- mnt_comp3 -->
<g id="node12" class="node">
<title>mnt_comp3</title>
<path fill="white" stroke="black" d="M652,-36C652,-36 578,-36 578,-36 572,-36 566,-30 566,-24 566,-24 566,-12 566,-12 566,-6 572,0 578,0 578,0 652,0 652,0 658,0 664,-6 664,-12 664,-12 664,-24 664,-24 664,-30 658,-36 652,-36"/>
<text text-anchor="middle" x="615" y="-14.3" font-family="Helvetica,sans-Serif" font-size="14.00">mnt_comp3</text>
</g>
<!-- mnt_comp3&#45;&gt;volt -->
<g id="edge7" class="edge">
<title>mnt_comp3&#45;&gt;volt</title>
<path fill="none" stroke="black" stroke-width="1.2" d="M565.65,-13.69C515.33,-9.57 434.21,-4 364,-4 244.5,-4 244.5,-4 244.5,-4 45.5,-4 28.43,-351.53 27.74,-454.55"/>
<polygon fill="black" stroke="black" stroke-width="1.2" points="24.24,-454.8 27.73,-464.81 31.24,-454.81 24.24,-454.8"/>
</g>
<!-- mnt_comp3&#45;&gt;mnt_comp1 -->
<g id="edge34" class="edge">
<title>mnt_comp3&#45;&gt;mnt_comp1</title>
<path fill="none" stroke="black" stroke-width="1.2" d="M664.15,-18.7C731.41,-22.13 853.99,-37.55 932,-102 966.99,-130.91 991.82,-178.36 1005.02,-208.35"/>
<polygon fill="black" stroke="black" stroke-width="1.2" points="1001.91,-209.97 1009.05,-217.8 1008.34,-207.23 1001.91,-209.97"/>
</g>
<!-- mnt_comp3&#45;&gt;mnt_comp2 -->
<g id="edge37" class="edge">
<title>mnt_comp3&#45;&gt;mnt_comp2</title>
<path fill="none" stroke="black" stroke-width="1.2" d="M633.8,-36.07C656.73,-59.35 696.73,-99.95 722.78,-126.4"/>
<polygon fill="black" stroke="black" stroke-width="1.2" points="720.55,-129.12 730.06,-133.79 725.53,-124.21 720.55,-129.12"/>
</g>
<!-- mnt_comp4&#45;&gt;mnt_comp1 -->
<g id="edge35" class="edge">
<title>mnt_comp4&#45;&gt;mnt_comp1</title>
<path fill="none" stroke="black" stroke-width="1.2" d="M906.39,-147.15C928.2,-164.83 961.51,-191.83 985.68,-211.42"/>
<polygon fill="black" stroke="black" stroke-width="1.2" points="983.53,-214.18 993.5,-217.76 987.93,-208.74 983.53,-214.18"/>
</g>
<!-- fail_comp1&#45;&gt;pressure -->
<g id="edge22" class="edge">
<title>fail_comp1&#45;&gt;pressure</title>
<path fill="none" stroke="black" stroke-width="1.2" d="M437.94,-216.17C406.01,-226.35 362.23,-240.58 324,-254 273.49,-271.73 216.17,-293.44 176.91,-308.55"/>
<polygon fill="black" stroke="black" stroke-width="1.2" points="175.41,-305.38 167.34,-312.25 177.93,-311.91 175.41,-305.38"/>
</g>
<!-- fail_comp1&#45;&gt;fail_comp2 -->
<g id="edge42" class="edge">
<title>fail_comp1&#45;&gt;fail_comp2</title>
<path fill="none" stroke="black" stroke-width="1.2" d="M530.12,-197.8C539.3,-196.95 549.05,-196.04 558.54,-195.16"/>
<polygon fill="black" stroke="black" stroke-width="1.2" points="559.06,-198.63 568.69,-194.21 558.41,-191.66 559.06,-198.63"/>
</g>
<!-- fail_comp2&#45;&gt;pressure -->
<g id="edge23" class="edge">
<title>fail_comp2&#45;&gt;pressure</title>
<path fill="none" stroke="black" stroke-width="1.2" d="M568.83,-179.61C533.09,-172.95 482.04,-166.94 438,-175 328.14,-195.11 299.06,-207.03 203,-264 185.48,-274.39 168.07,-289.07 154.6,-301.64"/>
<polygon fill="black" stroke="black" stroke-width="1.2" points="151.97,-299.31 147.15,-308.75 156.8,-304.38 151.97,-299.31"/>
</g>
<!-- fail_comp2&#45;&gt;mnt_comp1 -->
<g id="edge36" class="edge">
<title>fail_comp2&#45;&gt;mnt_comp1</title>
<path fill="none" stroke="black" stroke-width="1.2" d="M661.11,-193.65C722.52,-198.83 835.81,-209.13 932,-222 940.32,-223.11 949.08,-224.42 957.68,-225.78"/>
<polygon fill="black" stroke="black" stroke-width="1.2" points="957.23,-229.26 967.66,-227.4 958.35,-222.35 957.23,-229.26"/>
</g>
<!-- fail_comp2&#45;&gt;mnt_comp2 -->
<g id="edge39" class="edge">
<title>fail_comp2&#45;&gt;mnt_comp2</title>
<path fill="none" stroke="black" stroke-width="1.2" d="M661.06,-177.03C670.47,-174.32 680.51,-171.43 690.31,-168.61"/>
<polygon fill="black" stroke="black" stroke-width="1.2" points="691.35,-171.95 699.99,-165.82 689.41,-165.22 691.35,-171.95"/>
</g>
<!-- fail_comp4&#45;&gt;mnt_comp3 -->
<g id="edge40" class="edge">
<title>fail_comp4&#45;&gt;mnt_comp3</title>
<path fill="none" stroke="black" stroke-width="1.2" d="M510.49,-91.82C530.45,-77.58 558.41,-57.65 580.23,-42.08"/>
<polygon fill="black" stroke="black" stroke-width="1.2" points="582.46,-44.79 588.57,-36.14 578.39,-39.1 582.46,-44.79"/>
</g>
<!-- fail_comp4&#45;&gt;mnt_comp4 -->
<g id="edge41" class="edge">
<title>fail_comp4&#45;&gt;mnt_comp4</title>
<path fill="none" stroke="black" stroke-width="1.2" d="M530.15,-112.16C602.31,-115.61 743.6,-122.38 823.43,-126.2"/>
<polygon fill="black" stroke="black" stroke-width="1.2" points="823.64,-129.71 833.8,-126.69 823.98,-122.72 823.64,-129.71"/>
</g>
</g>
</svg>
