<?xml version="1.0" encoding="UTF-8" standalone="no"?>
<!DOCTYPE svg PUBLIC "-//W3C//DTD SVG 1.1//EN"
 "http://www.w3.org/Graphics/SVG/1.1/DTD/svg11.dtd">
<!-- Generated by graphviz version 2.50.0 (0)
 -->
<!-- Title: G Pages: 1 -->
<svg width="947pt" height="590pt"
 viewBox="0.00 0.00 947.00 590.00" xmlns="http://www.w3.org/2000/svg" xmlns:xlink="http://www.w3.org/1999/xlink">
<g id="graph0" class="graph" transform="scale(1 1) rotate(0) translate(4 586)">
<title>G</title>
<polygon fill="white" stroke="transparent" points="-4,4 -4,-586 943,-586 943,4 -4,4"/>
<text text-anchor="middle" x="469.5" y="-565.2" font-family="Times,serif" font-size="16.00">model=model2/cbnb_w_mixed.json [machine 90]</text>
<!-- volt -->
<g id="node1" class="node">
<title>volt</title>
<path fill="white" stroke="black" d="M42,-277C42,-277 12,-277 12,-277 6,-277 0,-271 0,-265 0,-265 0,-253 0,-253 0,-247 6,-241 12,-241 12,-241 42,-241 42,-241 48,-241 54,-247 54,-253 54,-253 54,-265 54,-265 54,-271 48,-277 42,-277"/>
<text text-anchor="middle" x="27" y="-255.3" font-family="Helvetica,sans-Serif" font-size="14.00">volt</text>
</g>
<!-- rotate -->
<g id="node2" class="node">
<title>rotate</title>
<path fill="white" stroke="black" d="M280.5,-254C280.5,-254 247.5,-254 247.5,-254 241.5,-254 235.5,-248 235.5,-242 235.5,-242 235.5,-230 235.5,-230 235.5,-224 241.5,-218 247.5,-218 247.5,-218 280.5,-218 280.5,-218 286.5,-218 292.5,-224 292.5,-230 292.5,-230 292.5,-242 292.5,-242 292.5,-248 286.5,-254 280.5,-254"/>
<text text-anchor="middle" x="264" y="-232.3" font-family="Helvetica,sans-Serif" font-size="14.00">rotate</text>
</g>
<!-- volt&#45;&gt;rotate -->
<g id="edge1" class="edge">
<title>volt&#45;&gt;rotate</title>
<path fill="none" stroke="black" stroke-width="1.2" d="M54.05,-256.45C95.69,-252.38 177.42,-244.38 225.4,-239.68"/>
<polygon fill="black" stroke="black" stroke-width="1.2" points="225.77,-243.16 235.38,-238.7 225.09,-236.19 225.77,-243.16"/>
</g>
<!-- err_error1 -->
<g id="node5" class="node">
<title>err_error1</title>
<path fill="white" stroke="black" d="M920.5,-475C920.5,-475 859.5,-475 859.5,-475 853.5,-475 847.5,-469 847.5,-463 847.5,-463 847.5,-451 847.5,-451 847.5,-445 853.5,-439 859.5,-439 859.5,-439 920.5,-439 920.5,-439 926.5,-439 932.5,-445 932.5,-451 932.5,-451 932.5,-463 932.5,-463 932.5,-469 926.5,-475 920.5,-475"/>
<text text-anchor="middle" x="890" y="-453.3" font-family="Helvetica,sans-Serif" font-size="14.00">err_error1</text>
</g>
<!-- volt&#45;&gt;err_error1 -->
<g id="edge2" class="edge">
<title>volt&#45;&gt;err_error1</title>
<path fill="none" stroke="black" stroke-width="1.2" d="M30,-287.12C34.34,-329.25 47.93,-409.31 90,-461 145.38,-529.03 175.28,-556 263,-556 263,-556 263,-556 633,-556 716.27,-556 805.13,-509.88 853.16,-480.59"/>
<polygon fill="black" stroke="black" stroke-width="1.2" points="33.48,-286.66 29.07,-277.02 26.51,-287.3 33.48,-286.66"/>
<polygon fill="black" stroke="black" stroke-width="1.2" points="855.27,-483.4 861.93,-475.16 851.58,-477.45 855.27,-483.4"/>
</g>
<!-- mnt_comp4 -->
<g id="node12" class="node">
<title>mnt_comp4</title>
<path fill="white" stroke="black" d="M793,-285C793,-285 719,-285 719,-285 713,-285 707,-279 707,-273 707,-273 707,-261 707,-261 707,-255 713,-249 719,-249 719,-249 793,-249 793,-249 799,-249 805,-255 805,-261 805,-261 805,-273 805,-273 805,-279 799,-285 793,-285"/>
<text text-anchor="middle" x="756" y="-263.3" font-family="Helvetica,sans-Serif" font-size="14.00">mnt_comp4</text>
</g>
<!-- volt&#45;&gt;mnt_comp4 -->
<g id="edge4" class="edge">
<title>volt&#45;&gt;mnt_comp4</title>
<path fill="none" stroke="black" stroke-width="1.2" d="M64.5,-260.99C72.88,-261.38 81.74,-261.75 90,-262 313.47,-268.74 369.43,-266.67 593,-268 627.67,-268.21 636.33,-268.21 671,-268 679.19,-267.95 687.83,-267.88 696.33,-267.79"/>
<polygon fill="black" stroke="black" stroke-width="1.2" points="64.4,-257.48 54.24,-260.48 64.05,-264.47 64.4,-257.48"/>
<polygon fill="black" stroke="black" stroke-width="1.2" points="696.62,-271.28 706.58,-267.67 696.55,-264.29 696.62,-271.28"/>
</g>
<!-- fail_comp1 -->
<g id="node13" class="node">
<title>fail_comp1</title>
<path fill="white" stroke="black" d="M170,-148C170,-148 102,-148 102,-148 96,-148 90,-142 90,-136 90,-136 90,-124 90,-124 90,-118 96,-112 102,-112 102,-112 170,-112 170,-112 176,-112 182,-118 182,-124 182,-124 182,-136 182,-136 182,-142 176,-148 170,-148"/>
<text text-anchor="middle" x="136" y="-126.3" font-family="Helvetica,sans-Serif" font-size="14.00">fail_comp1</text>
</g>
<!-- volt&#45;&gt;fail_comp1 -->
<g id="edge5" class="edge">
<title>volt&#45;&gt;fail_comp1</title>
<path fill="none" stroke="black" stroke-width="1.2" d="M45.42,-232.24C57.24,-214.77 73.64,-191.8 90,-173 95.29,-166.93 101.31,-160.74 107.19,-155.03"/>
<polygon fill="black" stroke="black" stroke-width="1.2" points="42.33,-230.56 39.68,-240.82 48.15,-234.45 42.33,-230.56"/>
<polygon fill="black" stroke="black" stroke-width="1.2" points="109.66,-157.51 114.5,-148.09 104.84,-152.44 109.66,-157.51"/>
</g>
<!-- err_error3 -->
<g id="node7" class="node">
<title>err_error3</title>
<path fill="white" stroke="black" d="M425.5,-384C425.5,-384 364.5,-384 364.5,-384 358.5,-384 352.5,-378 352.5,-372 352.5,-372 352.5,-360 352.5,-360 352.5,-354 358.5,-348 364.5,-348 364.5,-348 425.5,-348 425.5,-348 431.5,-348 437.5,-354 437.5,-360 437.5,-360 437.5,-372 437.5,-372 437.5,-378 431.5,-384 425.5,-384"/>
<text text-anchor="middle" x="395" y="-362.3" font-family="Helvetica,sans-Serif" font-size="14.00">err_error3</text>
</g>
<!-- rotate&#45;&gt;err_error3 -->
<g id="edge7" class="edge">
<title>rotate&#45;&gt;err_error3</title>
<path fill="none" stroke="black" stroke-width="1.2" d="M290.3,-261.5C312.92,-284.29 345.88,-317.51 368.54,-340.34"/>
<polygon fill="black" stroke="black" stroke-width="1.2" points="292.47,-258.71 282.94,-254.08 287.5,-263.64 292.47,-258.71"/>
<polygon fill="black" stroke="black" stroke-width="1.2" points="366.27,-343.03 375.8,-347.66 371.24,-338.09 366.27,-343.03"/>
</g>
<!-- rotate&#45;&gt;mnt_comp4 -->
<g id="edge9" class="edge">
<title>rotate&#45;&gt;mnt_comp4</title>
<path fill="none" stroke="black" stroke-width="1.2" d="M292.75,-237.76C370.34,-242.66 590.76,-256.61 696.72,-263.31"/>
<polygon fill="black" stroke="black" stroke-width="1.2" points="696.71,-266.82 706.91,-263.96 697.16,-259.83 696.71,-266.82"/>
</g>
<!-- fail_comp2 -->
<g id="node14" class="node">
<title>fail_comp2</title>
<path fill="white" stroke="black" d="M790,-106C790,-106 722,-106 722,-106 716,-106 710,-100 710,-94 710,-94 710,-82 710,-82 710,-76 716,-70 722,-70 722,-70 790,-70 790,-70 796,-70 802,-76 802,-82 802,-82 802,-94 802,-94 802,-100 796,-106 790,-106"/>
<text text-anchor="middle" x="756" y="-84.3" font-family="Helvetica,sans-Serif" font-size="14.00">fail_comp2</text>
</g>
<!-- rotate&#45;&gt;fail_comp2 -->
<g id="edge10" class="edge">
<title>rotate&#45;&gt;fail_comp2</title>
<path fill="none" stroke="black" stroke-width="1.2" d="M292.75,-227.62C371.2,-203.92 595.68,-136.12 700.21,-104.55"/>
<polygon fill="black" stroke="black" stroke-width="1.2" points="701.38,-107.85 709.94,-101.61 699.36,-101.15 701.38,-107.85"/>
</g>
<!-- pressure -->
<g id="node3" class="node">
<title>pressure</title>
<path fill="white" stroke="black" d="M545,-338C545,-338 492,-338 492,-338 486,-338 480,-332 480,-326 480,-326 480,-314 480,-314 480,-308 486,-302 492,-302 492,-302 545,-302 545,-302 551,-302 557,-308 557,-314 557,-314 557,-326 557,-326 557,-332 551,-338 545,-338"/>
<text text-anchor="middle" x="518.5" y="-316.3" font-family="Helvetica,sans-Serif" font-size="14.00">pressure</text>
</g>
<!-- vibration -->
<g id="node4" class="node">
<title>vibration</title>
<path fill="white" stroke="black" d="M659,-384C659,-384 605,-384 605,-384 599,-384 593,-378 593,-372 593,-372 593,-360 593,-360 593,-354 599,-348 605,-348 605,-348 659,-348 659,-348 665,-348 671,-354 671,-360 671,-360 671,-372 671,-372 671,-378 665,-384 659,-384"/>
<text text-anchor="middle" x="632" y="-362.3" font-family="Helvetica,sans-Serif" font-size="14.00">vibration</text>
</g>
<!-- pressure&#45;&gt;vibration -->
<g id="edge11" class="edge">
<title>pressure&#45;&gt;vibration</title>
<path fill="none" stroke="black" stroke-width="1.2" d="M557.25,-335.57C565.69,-339.06 574.75,-342.8 583.54,-346.42"/>
<polygon fill="black" stroke="black" stroke-width="1.2" points="582.33,-349.71 592.91,-350.29 585,-343.24 582.33,-349.71"/>
</g>
<!-- pressure&#45;&gt;mnt_comp4 -->
<g id="edge16" class="edge">
<title>pressure&#45;&gt;mnt_comp4</title>
<path fill="none" stroke="black" stroke-width="1.2" d="M557.22,-315.89C588.1,-312.08 632.76,-305.55 671,-296 679.79,-293.8 688.98,-291.09 697.9,-288.21"/>
<polygon fill="black" stroke="black" stroke-width="1.2" points="699.07,-291.51 707.46,-285.03 696.87,-284.86 699.07,-291.51"/>
</g>
<!-- vibration&#45;&gt;err_error1 -->
<g id="edge17" class="edge">
<title>vibration&#45;&gt;err_error1</title>
<path fill="none" stroke="black" stroke-width="1.2" d="M681.18,-377.17C716.11,-385.88 764.17,-399.14 805,-415 819.2,-420.52 834.23,-427.6 847.58,-434.38"/>
<polygon fill="black" stroke="black" stroke-width="1.2" points="681.79,-373.71 671.24,-374.72 680.12,-380.51 681.79,-373.71"/>
<polygon fill="black" stroke="black" stroke-width="1.2" points="846.04,-437.52 856.53,-438.99 849.25,-431.3 846.04,-437.52"/>
</g>
<!-- err_error2 -->
<g id="node6" class="node">
<title>err_error2</title>
<path fill="white" stroke="black" d="M786.5,-460C786.5,-460 725.5,-460 725.5,-460 719.5,-460 713.5,-454 713.5,-448 713.5,-448 713.5,-436 713.5,-436 713.5,-430 719.5,-424 725.5,-424 725.5,-424 786.5,-424 786.5,-424 792.5,-424 798.5,-430 798.5,-436 798.5,-436 798.5,-448 798.5,-448 798.5,-454 792.5,-460 786.5,-460"/>
<text text-anchor="middle" x="756" y="-438.3" font-family="Helvetica,sans-Serif" font-size="14.00">err_error2</text>
</g>
<!-- vibration&#45;&gt;err_error2 -->
<g id="edge18" class="edge">
<title>vibration&#45;&gt;err_error2</title>
<path fill="none" stroke="black" stroke-width="1.2" d="M661.91,-384.01C678.35,-394.25 699.14,-407.2 716.9,-418.27"/>
<polygon fill="black" stroke="black" stroke-width="1.2" points="715.53,-421.54 725.87,-423.85 719.24,-415.6 715.53,-421.54"/>
</g>
<!-- vibration&#45;&gt;mnt_comp4 -->
<g id="edge20" class="edge">
<title>vibration&#45;&gt;mnt_comp4</title>
<path fill="none" stroke="black" stroke-width="1.2" d="M663.26,-341.44C682.03,-326.21 706.06,-306.71 724.82,-291.49"/>
<polygon fill="black" stroke="black" stroke-width="1.2" points="660.94,-338.82 655.38,-347.84 665.35,-344.26 660.94,-338.82"/>
<polygon fill="black" stroke="black" stroke-width="1.2" points="727.21,-294.06 732.77,-285.04 722.79,-288.63 727.21,-294.06"/>
</g>
<!-- err_error2&#45;&gt;volt -->
<g id="edge3" class="edge">
<title>err_error2&#45;&gt;volt</title>
<path fill="none" stroke="black" stroke-width="1.2" d="M713.33,-456.74C647.03,-478.84 513.06,-518 396,-518 263,-518 263,-518 263,-518 169.17,-518 149.82,-469.28 90,-397 62.59,-363.88 44.88,-316.69 35.68,-286.96"/>
<polygon fill="black" stroke="black" stroke-width="1.2" points="38.99,-285.81 32.77,-277.23 32.28,-287.81 38.99,-285.81"/>
</g>
<!-- err_error3&#45;&gt;pressure -->
<g id="edge12" class="edge">
<title>err_error3&#45;&gt;pressure</title>
<path fill="none" stroke="black" stroke-width="1.2" d="M437.81,-350.17C448.22,-346.23 459.45,-341.98 470.1,-337.94"/>
<polygon fill="black" stroke="black" stroke-width="1.2" points="471.57,-341.13 479.68,-334.32 469.09,-334.58 471.57,-341.13"/>
</g>
<!-- err_error3&#45;&gt;err_error2 -->
<g id="edge24" class="edge">
<title>err_error3&#45;&gt;err_error2</title>
<path fill="none" stroke="black" stroke-width="1.2" d="M437.53,-374.79C503.33,-388.72 631.39,-415.83 703.13,-431.02"/>
<polygon fill="black" stroke="black" stroke-width="1.2" points="702.78,-434.52 713.29,-433.17 704.23,-427.67 702.78,-434.52"/>
</g>
<!-- err_error4 -->
<g id="node8" class="node">
<title>err_error4</title>
<path fill="white" stroke="black" d="M166.5,-388C166.5,-388 105.5,-388 105.5,-388 99.5,-388 93.5,-382 93.5,-376 93.5,-376 93.5,-364 93.5,-364 93.5,-358 99.5,-352 105.5,-352 105.5,-352 166.5,-352 166.5,-352 172.5,-352 178.5,-358 178.5,-364 178.5,-364 178.5,-376 178.5,-376 178.5,-382 172.5,-388 166.5,-388"/>
<text text-anchor="middle" x="136" y="-366.3" font-family="Helvetica,sans-Serif" font-size="14.00">err_error4</text>
</g>
<!-- err_error4&#45;&gt;rotate -->
<g id="edge8" class="edge">
<title>err_error4&#45;&gt;rotate</title>
<path fill="none" stroke="black" stroke-width="1.2" d="M153.99,-351.93C175.88,-328.65 214.06,-288.05 238.93,-261.6"/>
<polygon fill="black" stroke="black" stroke-width="1.2" points="241.57,-263.9 245.87,-254.21 236.47,-259.1 241.57,-263.9"/>
</g>
<!-- err_error4&#45;&gt;pressure -->
<g id="edge13" class="edge">
<title>err_error4&#45;&gt;pressure</title>
<path fill="none" stroke="black" stroke-width="1.2" d="M178.57,-363.37C220.71,-356.76 287.8,-346.54 346,-339 387.73,-333.6 435.3,-328.4 469.74,-324.81"/>
<polygon fill="black" stroke="black" stroke-width="1.2" points="470.4,-328.26 479.98,-323.75 469.68,-321.3 470.4,-328.26"/>
</g>
<!-- err_error4&#45;&gt;vibration -->
<g id="edge19" class="edge">
<title>err_error4&#45;&gt;vibration</title>
<path fill="none" stroke="black" stroke-width="1.2" d="M178.71,-377C237.75,-386.03 349.11,-399.82 444,-393 491.4,-389.6 545.04,-381.4 582.68,-374.92"/>
<polygon fill="black" stroke="black" stroke-width="1.2" points="583.6,-378.31 592.85,-373.15 582.4,-371.42 583.6,-378.31"/>
</g>
<!-- err_error4&#45;&gt;err_error1 -->
<g id="edge22" class="edge">
<title>err_error4&#45;&gt;err_error1</title>
<path fill="none" stroke="black" stroke-width="1.2" d="M178.87,-388.1C191.28,-392.9 205.02,-397.66 218,-401 430.5,-455.68 488.1,-453.85 707,-469 750.45,-472.01 761.55,-472.09 805,-469 815.47,-468.26 826.61,-467 837.25,-465.57"/>
<polygon fill="black" stroke="black" stroke-width="1.2" points="837.84,-469.02 847.25,-464.16 836.86,-462.09 837.84,-469.02"/>
</g>
<!-- mnt_comp1 -->
<g id="node9" class="node">
<title>mnt_comp1</title>
<path fill="white" stroke="black" d="M927,-83C927,-83 853,-83 853,-83 847,-83 841,-77 841,-71 841,-71 841,-59 841,-59 841,-53 847,-47 853,-47 853,-47 927,-47 927,-47 933,-47 939,-53 939,-59 939,-59 939,-71 939,-71 939,-77 933,-83 927,-83"/>
<text text-anchor="middle" x="890" y="-61.3" font-family="Helvetica,sans-Serif" font-size="14.00">mnt_comp1</text>
</g>
<!-- mnt_comp2 -->
<g id="node10" class="node">
<title>mnt_comp2</title>
<path fill="white" stroke="black" d="M927,-188C927,-188 853,-188 853,-188 847,-188 841,-182 841,-176 841,-176 841,-164 841,-164 841,-158 847,-152 853,-152 853,-152 927,-152 927,-152 933,-152 939,-158 939,-164 939,-164 939,-176 939,-176 939,-182 933,-188 927,-188"/>
<text text-anchor="middle" x="890" y="-166.3" font-family="Helvetica,sans-Serif" font-size="14.00">mnt_comp2</text>
</g>
<!-- mnt_comp2&#45;&gt;pressure -->
<g id="edge14" class="edge">
<title>mnt_comp2&#45;&gt;pressure</title>
<path fill="none" stroke="black" stroke-width="1.2" d="M840.91,-187.95C804.12,-201.82 752.18,-221.68 707,-240 658.77,-259.55 604.09,-283.04 566.28,-299.49"/>
<polygon fill="black" stroke="black" stroke-width="1.2" points="564.81,-296.31 557.04,-303.51 567.61,-302.72 564.81,-296.31"/>
</g>
<!-- mnt_comp3 -->
<g id="node11" class="node">
<title>mnt_comp3</title>
<path fill="white" stroke="black" d="M432,-64C432,-64 358,-64 358,-64 352,-64 346,-58 346,-52 346,-52 346,-40 346,-40 346,-34 352,-28 358,-28 358,-28 432,-28 432,-28 438,-28 444,-34 444,-40 444,-40 444,-52 444,-52 444,-58 438,-64 432,-64"/>
<text text-anchor="middle" x="395" y="-42.3" font-family="Helvetica,sans-Serif" font-size="14.00">mnt_comp3</text>
</g>
<!-- mnt_comp3&#45;&gt;pressure -->
<g id="edge15" class="edge">
<title>mnt_comp3&#45;&gt;pressure</title>
<path fill="none" stroke="black" stroke-width="1.2" d="M404.16,-64.4C425.04,-111.49 480.5,-236.56 505.26,-292.4"/>
<polygon fill="black" stroke="black" stroke-width="1.2" points="502.12,-293.95 509.37,-301.68 508.52,-291.12 502.12,-293.95"/>
</g>
<!-- mnt_comp3&#45;&gt;mnt_comp1 -->
<g id="edge25" class="edge">
<title>mnt_comp3&#45;&gt;mnt_comp1</title>
<path fill="none" stroke="black" stroke-width="1.2" d="M444.17,-47.6C520.65,-50.17 674.55,-55.5 805,-61 813.19,-61.35 821.83,-61.73 830.33,-62.12"/>
<polygon fill="black" stroke="black" stroke-width="1.2" points="830.43,-65.63 840.59,-62.6 830.76,-58.64 830.43,-65.63"/>
</g>
<!-- mnt_comp4&#45;&gt;err_error1 -->
<g id="edge23" class="edge">
<title>mnt_comp4&#45;&gt;err_error1</title>
<path fill="none" stroke="black" stroke-width="1.2" d="M769.66,-285.22C793.11,-318.98 843.42,-391.39 870.63,-430.55"/>
<polygon fill="black" stroke="black" stroke-width="1.2" points="867.8,-432.62 876.38,-438.84 873.55,-428.63 867.8,-432.62"/>
</g>
<!-- mnt_comp4&#45;&gt;mnt_comp1 -->
<g id="edge26" class="edge">
<title>mnt_comp4&#45;&gt;mnt_comp1</title>
<path fill="none" stroke="black" stroke-width="1.2" d="M768.95,-248.72C792.36,-212.89 844.37,-133.3 871.6,-91.63"/>
<polygon fill="black" stroke="black" stroke-width="1.2" points="874.63,-93.38 877.18,-83.1 868.77,-89.55 874.63,-93.38"/>
</g>
<!-- mnt_comp4&#45;&gt;mnt_comp2 -->
<g id="edge29" class="edge">
<title>mnt_comp4&#45;&gt;mnt_comp2</title>
<path fill="none" stroke="black" stroke-width="1.2" d="M781.52,-248.98C802.5,-233.56 832.89,-211.23 856.01,-194.24"/>
<polygon fill="black" stroke="black" stroke-width="1.2" points="858.18,-196.99 864.16,-188.25 854.03,-191.35 858.18,-196.99"/>
</g>
<!-- fail_comp1&#45;&gt;mnt_comp1 -->
<g id="edge27" class="edge">
<title>fail_comp1&#45;&gt;mnt_comp1</title>
<path fill="none" stroke="black" stroke-width="1.2" d="M156.58,-111.92C197.41,-76.2 296,0 394,0 394,0 394,0 633,0 704.94,0 784.85,-24.41 835.95,-43.32"/>
<polygon fill="black" stroke="black" stroke-width="1.2" points="834.86,-46.65 845.46,-46.89 837.33,-40.1 834.86,-46.65"/>
</g>
<!-- fail_comp3 -->
<g id="node15" class="node">
<title>fail_comp3</title>
<path fill="white" stroke="black" d="M298,-148C298,-148 230,-148 230,-148 224,-148 218,-142 218,-136 218,-136 218,-124 218,-124 218,-118 224,-112 230,-112 230,-112 298,-112 298,-112 304,-112 310,-118 310,-124 310,-124 310,-136 310,-136 310,-142 304,-148 298,-148"/>
<text text-anchor="middle" x="264" y="-126.3" font-family="Helvetica,sans-Serif" font-size="14.00">fail_comp3</text>
</g>
<!-- fail_comp1&#45;&gt;fail_comp3 -->
<g id="edge34" class="edge">
<title>fail_comp1&#45;&gt;fail_comp3</title>
<path fill="none" stroke="black" stroke-width="1.2" d="M182.13,-130C190.37,-130 199.04,-130 207.53,-130"/>
<polygon fill="black" stroke="black" stroke-width="1.2" points="207.76,-133.5 217.76,-130 207.76,-126.5 207.76,-133.5"/>
</g>
<!-- fail_comp2&#45;&gt;mnt_comp1 -->
<g id="edge28" class="edge">
<title>fail_comp2&#45;&gt;mnt_comp1</title>
<path fill="none" stroke="black" stroke-width="1.2" d="M802.06,-80.15C811.37,-78.53 821.3,-76.8 831,-75.11"/>
<polygon fill="black" stroke="black" stroke-width="1.2" points="831.74,-78.53 840.99,-73.37 830.54,-71.63 831.74,-78.53"/>
</g>
<!-- fail_comp2&#45;&gt;mnt_comp2 -->
<g id="edge30" class="edge">
<title>fail_comp2&#45;&gt;mnt_comp2</title>
<path fill="none" stroke="black" stroke-width="1.2" d="M786.3,-106.2C805.44,-118.09 830.61,-133.73 851.25,-146.55"/>
<polygon fill="black" stroke="black" stroke-width="1.2" points="849.45,-149.55 859.79,-151.85 853.14,-143.6 849.45,-149.55"/>
</g>
<!-- fail_comp3&#45;&gt;volt -->
<g id="edge6" class="edge">
<title>fail_comp3&#45;&gt;volt</title>
<path fill="none" stroke="black" stroke-width="1.2" d="M230.06,-148.08C185.93,-172.3 107.97,-215.1 62.88,-239.85"/>
<polygon fill="black" stroke="black" stroke-width="1.2" points="61.13,-236.82 54.05,-244.7 64.5,-242.96 61.13,-236.82"/>
</g>
<!-- fail_comp3&#45;&gt;vibration -->
<g id="edge21" class="edge">
<title>fail_comp3&#45;&gt;vibration</title>
<path fill="none" stroke="black" stroke-width="1.2" d="M276.62,-148.25C305.2,-191.39 383.66,-299.55 480,-347 511.84,-362.68 551.83,-367.14 582.66,-367.83"/>
<polygon fill="black" stroke="black" stroke-width="1.2" points="582.71,-371.33 592.74,-367.93 582.78,-364.33 582.71,-371.33"/>
</g>
<!-- fail_comp3&#45;&gt;mnt_comp2 -->
<g id="edge31" class="edge">
<title>fail_comp3&#45;&gt;mnt_comp2</title>
<path fill="none" stroke="black" stroke-width="1.2" d="M310.13,-132.89C421.09,-140.01 707.16,-158.34 830.73,-166.26"/>
<polygon fill="black" stroke="black" stroke-width="1.2" points="830.55,-169.76 840.76,-166.91 831,-162.77 830.55,-169.76"/>
</g>
<!-- fail_comp3&#45;&gt;mnt_comp3 -->
<g id="edge32" class="edge">
<title>fail_comp3&#45;&gt;mnt_comp3</title>
<path fill="none" stroke="black" stroke-width="1.2" d="M292.67,-111.98C311.59,-99.66 336.86,-83.21 357.43,-69.81"/>
<polygon fill="black" stroke="black" stroke-width="1.2" points="359.46,-72.67 365.93,-64.28 355.64,-66.8 359.46,-72.67"/>
</g>
<!-- fail_comp3&#45;&gt;mnt_comp4 -->
<g id="edge33" class="edge">
<title>fail_comp3&#45;&gt;mnt_comp4</title>
<path fill="none" stroke="black" stroke-width="1.2" d="M310.22,-142.64C399.44,-167.59 598.02,-223.11 696.83,-250.74"/>
<polygon fill="black" stroke="black" stroke-width="1.2" points="696.07,-254.16 706.65,-253.48 697.96,-247.42 696.07,-254.16"/>
</g>
</g>
</svg>
