<?xml version="1.0" encoding="UTF-8" standalone="no"?>
<!DOCTYPE svg PUBLIC "-//W3C//DTD SVG 1.1//EN"
 "http://www.w3.org/Graphics/SVG/1.1/DTD/svg11.dtd">
<!-- Generated by graphviz version 2.50.0 (0)
 -->
<!-- Title: G Pages: 1 -->
<svg width="1079pt" height="701pt"
 viewBox="0.00 0.00 1079.00 701.00" xmlns="http://www.w3.org/2000/svg" xmlns:xlink="http://www.w3.org/1999/xlink">
<g id="graph0" class="graph" transform="scale(1 1) rotate(0) translate(4 697)">
<title>G</title>
<polygon fill="white" stroke="transparent" points="-4,4 -4,-697 1075,-697 1075,4 -4,4"/>
<text text-anchor="middle" x="535.5" y="-676.2" font-family="Times,serif" font-size="16.00">model=model3/cbnb_w_mixed.json [machine 5]</text>
<!-- volt -->
<g id="node1" class="node">
<title>volt</title>
<path fill="white" stroke="black" d="M182,-184C182,-184 152,-184 152,-184 146,-184 140,-178 140,-172 140,-172 140,-160 140,-160 140,-154 146,-148 152,-148 152,-148 182,-148 182,-148 188,-148 194,-154 194,-160 194,-160 194,-172 194,-172 194,-178 188,-184 182,-184"/>
<text text-anchor="middle" x="167" y="-162.3" font-family="Helvetica,sans-Serif" font-size="14.00">volt</text>
</g>
<!-- err_error1 -->
<g id="node5" class="node">
<title>err_error1</title>
<path fill="white" stroke="black" d="M462.5,-140C462.5,-140 401.5,-140 401.5,-140 395.5,-140 389.5,-134 389.5,-128 389.5,-128 389.5,-116 389.5,-116 389.5,-110 395.5,-104 401.5,-104 401.5,-104 462.5,-104 462.5,-104 468.5,-104 474.5,-110 474.5,-116 474.5,-116 474.5,-128 474.5,-128 474.5,-134 468.5,-140 462.5,-140"/>
<text text-anchor="middle" x="432" y="-118.3" font-family="Helvetica,sans-Serif" font-size="14.00">err_error1</text>
</g>
<!-- volt&#45;&gt;err_error1 -->
<g id="edge2" class="edge">
<title>volt&#45;&gt;err_error1</title>
<path fill="none" stroke="black" stroke-width="1.2" d="M194.26,-161.41C210.1,-158.65 230.71,-155.09 249,-152 293.02,-144.57 343.06,-136.34 379.52,-130.38"/>
<polygon fill="black" stroke="black" stroke-width="1.2" points="380.12,-133.83 389.42,-128.76 378.99,-126.92 380.12,-133.83"/>
</g>
<!-- err_error2 -->
<g id="node6" class="node">
<title>err_error2</title>
<path fill="white" stroke="black" d="M1059,-289C1059,-289 998,-289 998,-289 992,-289 986,-283 986,-277 986,-277 986,-265 986,-265 986,-259 992,-253 998,-253 998,-253 1059,-253 1059,-253 1065,-253 1071,-259 1071,-265 1071,-265 1071,-277 1071,-277 1071,-283 1065,-289 1059,-289"/>
<text text-anchor="middle" x="1028.5" y="-267.3" font-family="Helvetica,sans-Serif" font-size="14.00">err_error2</text>
</g>
<!-- volt&#45;&gt;err_error2 -->
<g id="edge3" class="edge">
<title>volt&#45;&gt;err_error2</title>
<path fill="none" stroke="black" stroke-width="1.2" d="M194.06,-150.38C265.57,-109.06 471.96,0 658.5,0 658.5,0 658.5,0 771,0 860.65,0 888.82,-27.47 950,-93 990.68,-136.57 1012.15,-204.9 1021.53,-242.98"/>
<polygon fill="black" stroke="black" stroke-width="1.2" points="1018.16,-243.94 1023.86,-252.88 1024.97,-242.34 1018.16,-243.94"/>
</g>
<!-- err_error4 -->
<g id="node8" class="node">
<title>err_error4</title>
<path fill="white" stroke="black" d="M328.5,-230C328.5,-230 267.5,-230 267.5,-230 261.5,-230 255.5,-224 255.5,-218 255.5,-218 255.5,-206 255.5,-206 255.5,-200 261.5,-194 267.5,-194 267.5,-194 328.5,-194 328.5,-194 334.5,-194 340.5,-200 340.5,-206 340.5,-206 340.5,-218 340.5,-218 340.5,-224 334.5,-230 328.5,-230"/>
<text text-anchor="middle" x="298" y="-208.3" font-family="Helvetica,sans-Serif" font-size="14.00">err_error4</text>
</g>
<!-- volt&#45;&gt;err_error4 -->
<g id="edge4" class="edge">
<title>volt&#45;&gt;err_error4</title>
<path fill="none" stroke="black" stroke-width="1.2" d="M194.11,-175.31C208.95,-180.6 228.06,-187.42 245.78,-193.74"/>
<polygon fill="black" stroke="black" stroke-width="1.2" points="244.85,-197.12 255.44,-197.18 247.2,-190.53 244.85,-197.12"/>
</g>
<!-- mnt_comp4 -->
<g id="node13" class="node">
<title>mnt_comp4</title>
<path fill="white" stroke="black" d="M335,-322C335,-322 261,-322 261,-322 255,-322 249,-316 249,-310 249,-310 249,-298 249,-298 249,-292 255,-286 261,-286 261,-286 335,-286 335,-286 341,-286 347,-292 347,-298 347,-298 347,-310 347,-310 347,-316 341,-322 335,-322"/>
<text text-anchor="middle" x="298" y="-300.3" font-family="Helvetica,sans-Serif" font-size="14.00">mnt_comp4</text>
</g>
<!-- volt&#45;&gt;mnt_comp4 -->
<g id="edge5" class="edge">
<title>volt&#45;&gt;mnt_comp4</title>
<path fill="none" stroke="black" stroke-width="1.2" d="M184.86,-184.04C207.37,-208.11 247.34,-250.88 272.99,-278.31"/>
<polygon fill="black" stroke="black" stroke-width="1.2" points="270.75,-281.04 280.13,-285.95 275.86,-276.26 270.75,-281.04"/>
</g>
<!-- rotate -->
<g id="node2" class="node">
<title>rotate</title>
<path fill="white" stroke="black" d="M676,-498C676,-498 643,-498 643,-498 637,-498 631,-492 631,-486 631,-486 631,-474 631,-474 631,-468 637,-462 643,-462 643,-462 676,-462 676,-462 682,-462 688,-468 688,-474 688,-474 688,-486 688,-486 688,-492 682,-498 676,-498"/>
<text text-anchor="middle" x="659.5" y="-476.3" font-family="Helvetica,sans-Serif" font-size="14.00">rotate</text>
</g>
<!-- rotate&#45;&gt;err_error2 -->
<g id="edge7" class="edge">
<title>rotate&#45;&gt;err_error2</title>
<path fill="none" stroke="black" stroke-width="1.2" d="M688.29,-478.33C743.73,-473.68 869.64,-456.37 950,-393 981.76,-367.95 1004.25,-326.07 1016.56,-298.49"/>
<polygon fill="black" stroke="black" stroke-width="1.2" points="1019.89,-299.61 1020.62,-289.04 1013.46,-296.84 1019.89,-299.61"/>
</g>
<!-- fail_comp2 -->
<g id="node15" class="node">
<title>fail_comp2</title>
<path fill="white" stroke="black" d="M804,-563C804,-563 736,-563 736,-563 730,-563 724,-557 724,-551 724,-551 724,-539 724,-539 724,-533 730,-527 736,-527 736,-527 804,-527 804,-527 810,-527 816,-533 816,-539 816,-539 816,-551 816,-551 816,-557 810,-563 804,-563"/>
<text text-anchor="middle" x="770" y="-541.3" font-family="Helvetica,sans-Serif" font-size="14.00">fail_comp2</text>
</g>
<!-- rotate&#45;&gt;fail_comp2 -->
<g id="edge11" class="edge">
<title>rotate&#45;&gt;fail_comp2</title>
<path fill="none" stroke="black" stroke-width="1.2" d="M688.16,-496.57C700.83,-504.16 716.07,-513.29 729.89,-521.57"/>
<polygon fill="black" stroke="black" stroke-width="1.2" points="728.34,-524.72 738.72,-526.86 731.94,-518.72 728.34,-524.72"/>
</g>
<!-- pressure -->
<g id="node3" class="node">
<title>pressure</title>
<path fill="white" stroke="black" d="M582.5,-224C582.5,-224 529.5,-224 529.5,-224 523.5,-224 517.5,-218 517.5,-212 517.5,-212 517.5,-200 517.5,-200 517.5,-194 523.5,-188 529.5,-188 529.5,-188 582.5,-188 582.5,-188 588.5,-188 594.5,-194 594.5,-200 594.5,-200 594.5,-212 594.5,-212 594.5,-218 588.5,-224 582.5,-224"/>
<text text-anchor="middle" x="556" y="-202.3" font-family="Helvetica,sans-Serif" font-size="14.00">pressure</text>
</g>
<!-- pressure&#45;&gt;volt -->
<g id="edge1" class="edge">
<title>pressure&#45;&gt;volt</title>
<path fill="none" stroke="black" stroke-width="1.2" d="M517.48,-198.12C505.83,-195.88 492.92,-193.62 481,-192 381.3,-178.47 262.72,-170.93 204.27,-167.78"/>
<polygon fill="black" stroke="black" stroke-width="1.2" points="204.24,-164.28 194.07,-167.25 203.87,-171.27 204.24,-164.28"/>
</g>
<!-- vibration -->
<g id="node4" class="node">
<title>vibration</title>
<path fill="white" stroke="black" d="M583,-487C583,-487 529,-487 529,-487 523,-487 517,-481 517,-475 517,-475 517,-463 517,-463 517,-457 523,-451 529,-451 529,-451 583,-451 583,-451 589,-451 595,-457 595,-463 595,-463 595,-475 595,-475 595,-481 589,-487 583,-487"/>
<text text-anchor="middle" x="556" y="-465.3" font-family="Helvetica,sans-Serif" font-size="14.00">vibration</text>
</g>
<!-- vibration&#45;&gt;rotate -->
<g id="edge6" class="edge">
<title>vibration&#45;&gt;rotate</title>
<path fill="none" stroke="black" stroke-width="1.2" d="M595.08,-473.13C603.56,-474.05 612.54,-475.02 621,-475.94"/>
<polygon fill="black" stroke="black" stroke-width="1.2" points="620.66,-479.42 630.98,-477.02 621.42,-472.46 620.66,-479.42"/>
</g>
<!-- vibration&#45;&gt;err_error4 -->
<g id="edge16" class="edge">
<title>vibration&#45;&gt;err_error4</title>
<path fill="none" stroke="black" stroke-width="1.2" d="M532.17,-450.96C498.13,-423.59 432.74,-369.24 383,-317 358.98,-291.78 334.43,-260.29 318.12,-238.41"/>
<polygon fill="black" stroke="black" stroke-width="1.2" points="320.84,-236.2 312.08,-230.24 315.21,-240.36 320.84,-236.2"/>
</g>
<!-- vibration&#45;&gt;fail_comp2 -->
<g id="edge20" class="edge">
<title>vibration&#45;&gt;fail_comp2</title>
<path fill="none" stroke="black" stroke-width="1.2" d="M597.8,-491.85C608.41,-497.26 619.97,-502.7 631,-507 657.68,-517.39 688.29,-526.13 713.9,-532.59"/>
<polygon fill="black" stroke="black" stroke-width="1.2" points="599.24,-488.65 588.75,-487.13 596,-494.85 599.24,-488.65"/>
<polygon fill="black" stroke="black" stroke-width="1.2" points="713.26,-536.04 723.81,-535.05 714.94,-529.25 713.26,-536.04"/>
</g>
<!-- err_error1&#45;&gt;pressure -->
<g id="edge12" class="edge">
<title>err_error1&#45;&gt;pressure</title>
<path fill="none" stroke="black" stroke-width="1.2" d="M460.49,-140.16C467.22,-144.65 474.39,-149.47 481,-154 494.16,-163.01 508.52,-173.05 521.07,-181.89"/>
<polygon fill="black" stroke="black" stroke-width="1.2" points="519.24,-184.89 529.42,-187.8 523.27,-179.17 519.24,-184.89"/>
</g>
<!-- err_error3 -->
<g id="node7" class="node">
<title>err_error3</title>
<path fill="white" stroke="black" d="M931.5,-525C931.5,-525 870.5,-525 870.5,-525 864.5,-525 858.5,-519 858.5,-513 858.5,-513 858.5,-501 858.5,-501 858.5,-495 864.5,-489 870.5,-489 870.5,-489 931.5,-489 931.5,-489 937.5,-489 943.5,-495 943.5,-501 943.5,-501 943.5,-513 943.5,-513 943.5,-519 937.5,-525 931.5,-525"/>
<text text-anchor="middle" x="901" y="-503.3" font-family="Helvetica,sans-Serif" font-size="14.00">err_error3</text>
</g>
<!-- err_error3&#45;&gt;rotate -->
<g id="edge8" class="edge">
<title>err_error3&#45;&gt;rotate</title>
<path fill="none" stroke="black" stroke-width="1.2" d="M858.19,-502.29C813.17,-497.21 742.16,-489.21 698.62,-484.3"/>
<polygon fill="black" stroke="black" stroke-width="1.2" points="698.77,-480.79 688.44,-483.15 697.99,-487.75 698.77,-480.79"/>
</g>
<!-- err_error3&#45;&gt;err_error2 -->
<g id="edge21" class="edge">
<title>err_error3&#45;&gt;err_error2</title>
<path fill="none" stroke="black" stroke-width="1.2" d="M935.27,-488.83C940.69,-484.8 945.88,-480.17 950,-475 992.88,-421.19 1013.93,-341.06 1022.53,-299.04"/>
<polygon fill="black" stroke="black" stroke-width="1.2" points="1025.97,-299.7 1024.46,-289.21 1019.1,-298.35 1025.97,-299.7"/>
</g>
<!-- err_error4&#45;&gt;err_error2 -->
<g id="edge22" class="edge">
<title>err_error4&#45;&gt;err_error2</title>
<path fill="none" stroke="black" stroke-width="1.2" d="M306.34,-193.64C318.12,-166.87 343.93,-117.84 383,-95 449.39,-56.18 478.09,-76 555,-76 555,-76 555,-76 771,-76 880.95,-76 973.27,-190.96 1010.22,-244.34"/>
<polygon fill="black" stroke="black" stroke-width="1.2" points="1007.35,-246.35 1015.87,-252.65 1013.14,-242.42 1007.35,-246.35"/>
</g>
<!-- mnt_comp3 -->
<g id="node12" class="node">
<title>mnt_comp3</title>
<path fill="white" stroke="black" d="M469,-308C469,-308 395,-308 395,-308 389,-308 383,-302 383,-296 383,-296 383,-284 383,-284 383,-278 389,-272 395,-272 395,-272 469,-272 469,-272 475,-272 481,-278 481,-284 481,-284 481,-296 481,-296 481,-302 475,-308 469,-308"/>
<text text-anchor="middle" x="432" y="-286.3" font-family="Helvetica,sans-Serif" font-size="14.00">mnt_comp3</text>
</g>
<!-- err_error4&#45;&gt;mnt_comp3 -->
<g id="edge25" class="edge">
<title>err_error4&#45;&gt;mnt_comp3</title>
<path fill="none" stroke="black" stroke-width="1.2" d="M329.62,-230.09C347.98,-240.94 371.52,-254.85 391.3,-266.54"/>
<polygon fill="black" stroke="black" stroke-width="1.2" points="389.7,-269.66 400.09,-271.74 393.26,-263.64 389.7,-269.66"/>
</g>
<!-- err_error5 -->
<g id="node9" class="node">
<title>err_error5</title>
<path fill="white" stroke="black" d="M73,-520C73,-520 12,-520 12,-520 6,-520 0,-514 0,-508 0,-508 0,-496 0,-496 0,-490 6,-484 12,-484 12,-484 73,-484 73,-484 79,-484 85,-490 85,-496 85,-496 85,-508 85,-508 85,-514 79,-520 73,-520"/>
<text text-anchor="middle" x="42.5" y="-498.3" font-family="Helvetica,sans-Serif" font-size="14.00">err_error5</text>
</g>
<!-- err_error5&#45;&gt;rotate -->
<g id="edge9" class="edge">
<title>err_error5&#45;&gt;rotate</title>
<path fill="none" stroke="black" stroke-width="1.2" d="M85.37,-512.18C135.4,-523.44 221.79,-540 297,-540 297,-540 297,-540 433,-540 501.17,-540 577.15,-514.08 621.22,-496.31"/>
<polygon fill="black" stroke="black" stroke-width="1.2" points="622.74,-499.47 630.66,-492.43 620.08,-493 622.74,-499.47"/>
</g>
<!-- err_error5&#45;&gt;vibration -->
<g id="edge17" class="edge">
<title>err_error5&#45;&gt;vibration</title>
<path fill="none" stroke="black" stroke-width="1.2" d="M85.36,-499.3C179.38,-493.23 406.86,-478.56 506.68,-472.12"/>
<polygon fill="black" stroke="black" stroke-width="1.2" points="507.04,-475.6 516.79,-471.47 506.59,-468.62 507.04,-475.6"/>
</g>
<!-- mnt_comp1 -->
<g id="node10" class="node">
<title>mnt_comp1</title>
<path fill="white" stroke="black" d="M938,-384C938,-384 864,-384 864,-384 858,-384 852,-378 852,-372 852,-372 852,-360 852,-360 852,-354 858,-348 864,-348 864,-348 938,-348 938,-348 944,-348 950,-354 950,-360 950,-360 950,-372 950,-372 950,-378 944,-384 938,-384"/>
<text text-anchor="middle" x="901" y="-362.3" font-family="Helvetica,sans-Serif" font-size="14.00">mnt_comp1</text>
</g>
<!-- err_error5&#45;&gt;mnt_comp1 -->
<g id="edge26" class="edge">
<title>err_error5&#45;&gt;mnt_comp1</title>
<path fill="none" stroke="black" stroke-width="1.2" d="M44.93,-483.76C50.49,-417.4 72.79,-190.08 121,-139 203.89,-51.18 263.32,-83.14 383,-67 426.16,-61.18 439.52,-53.72 481,-67 654.03,-122.41 816.49,-278.39 876.04,-340.25"/>
<polygon fill="black" stroke="black" stroke-width="1.2" points="873.68,-342.84 883.11,-347.66 878.74,-338.01 873.68,-342.84"/>
</g>
<!-- mnt_comp2 -->
<g id="node11" class="node">
<title>mnt_comp2</title>
<path fill="white" stroke="black" d="M938,-628C938,-628 864,-628 864,-628 858,-628 852,-622 852,-616 852,-616 852,-604 852,-604 852,-598 858,-592 864,-592 864,-592 938,-592 938,-592 944,-592 950,-598 950,-604 950,-604 950,-616 950,-616 950,-622 944,-628 938,-628"/>
<text text-anchor="middle" x="901" y="-606.3" font-family="Helvetica,sans-Serif" font-size="14.00">mnt_comp2</text>
</g>
<!-- err_error5&#45;&gt;mnt_comp2 -->
<g id="edge27" class="edge">
<title>err_error5&#45;&gt;mnt_comp2</title>
<path fill="none" stroke="black" stroke-width="1.2" d="M57.89,-520.29C93.46,-563.25 190.4,-667 297,-667 297,-667 297,-667 660.5,-667 724.48,-667 795.52,-647.51 843.49,-631.33"/>
<polygon fill="black" stroke="black" stroke-width="1.2" points="844.75,-634.6 853.07,-628.04 842.48,-627.98 844.75,-634.6"/>
</g>
<!-- fail_comp1 -->
<g id="node14" class="node">
<title>fail_comp1</title>
<path fill="white" stroke="black" d="M201,-430C201,-430 133,-430 133,-430 127,-430 121,-424 121,-418 121,-418 121,-406 121,-406 121,-400 127,-394 133,-394 133,-394 201,-394 201,-394 207,-394 213,-400 213,-406 213,-406 213,-418 213,-418 213,-424 207,-430 201,-430"/>
<text text-anchor="middle" x="167" y="-408.3" font-family="Helvetica,sans-Serif" font-size="14.00">fail_comp1</text>
</g>
<!-- err_error5&#45;&gt;fail_comp1 -->
<g id="edge28" class="edge">
<title>err_error5&#45;&gt;fail_comp1</title>
<path fill="none" stroke="black" stroke-width="1.2" d="M68.29,-483.79C86.97,-470.06 112.76,-451.11 133.16,-436.13"/>
<polygon fill="black" stroke="black" stroke-width="1.2" points="135.26,-438.93 141.25,-430.19 131.12,-433.29 135.26,-438.93"/>
</g>
<!-- mnt_comp1&#45;&gt;rotate -->
<g id="edge10" class="edge">
<title>mnt_comp1&#45;&gt;rotate</title>
<path fill="none" stroke="black" stroke-width="1.2" d="M859.2,-384.11C823.36,-400.18 769.92,-424.52 724,-447 715.22,-451.3 705.84,-456.07 697.06,-460.62"/>
<polygon fill="black" stroke="black" stroke-width="1.2" points="695.42,-457.53 688.17,-465.25 698.66,-463.73 695.42,-457.53"/>
</g>
<!-- mnt_comp1&#45;&gt;vibration -->
<g id="edge18" class="edge">
<title>mnt_comp1&#45;&gt;vibration</title>
<path fill="none" stroke="black" stroke-width="1.2" d="M851.94,-372.61C816.2,-378.17 766.48,-387.26 724,-400 682.43,-412.46 637.02,-431.61 604.06,-446.57"/>
<polygon fill="black" stroke="black" stroke-width="1.2" points="602.31,-443.52 594.68,-450.87 605.23,-449.89 602.31,-443.52"/>
</g>
<!-- mnt_comp3&#45;&gt;pressure -->
<g id="edge13" class="edge">
<title>mnt_comp3&#45;&gt;pressure</title>
<path fill="none" stroke="black" stroke-width="1.2" d="M460.49,-271.84C467.22,-267.35 474.39,-262.53 481,-258 494.16,-248.99 508.52,-238.95 521.07,-230.11"/>
<polygon fill="black" stroke="black" stroke-width="1.2" points="523.27,-232.83 529.42,-224.2 519.24,-227.11 523.27,-232.83"/>
</g>
<!-- mnt_comp3&#45;&gt;vibration -->
<g id="edge19" class="edge">
<title>mnt_comp3&#45;&gt;vibration</title>
<path fill="none" stroke="black" stroke-width="1.2" d="M465.34,-308.18C470.98,-312.25 476.49,-316.9 481,-322 512.79,-357.91 534.7,-409.92 546.02,-441.48"/>
<polygon fill="black" stroke="black" stroke-width="1.2" points="542.73,-442.67 549.33,-450.96 549.34,-440.37 542.73,-442.67"/>
</g>
<!-- mnt_comp3&#45;&gt;err_error2 -->
<g id="edge23" class="edge">
<title>mnt_comp3&#45;&gt;err_error2</title>
<path fill="none" stroke="black" stroke-width="1.2" d="M481.29,-283.57C526.88,-278.06 597.21,-271 658.5,-271 658.5,-271 658.5,-271 771,-271 841.82,-271 923.65,-271 975.47,-271"/>
<polygon fill="black" stroke="black" stroke-width="1.2" points="975.74,-274.5 985.74,-271 975.74,-267.5 975.74,-274.5"/>
</g>
<!-- mnt_comp3&#45;&gt;mnt_comp2 -->
<g id="edge32" class="edge">
<title>mnt_comp3&#45;&gt;mnt_comp2</title>
<path fill="none" stroke="black" stroke-width="1.2" d="M435.41,-308.15C441.62,-347.75 461.7,-442.62 517,-496 606.6,-582.49 758.87,-603.74 841.86,-608.71"/>
<polygon fill="black" stroke="black" stroke-width="1.2" points="841.7,-612.21 851.87,-609.26 842.07,-605.22 841.7,-612.21"/>
</g>
<!-- mnt_comp4&#45;&gt;pressure -->
<g id="edge14" class="edge">
<title>mnt_comp4&#45;&gt;pressure</title>
<path fill="none" stroke="black" stroke-width="1.2" d="M333.26,-285.98C348.31,-278.41 366.32,-269.8 383,-263 424.23,-246.19 472.44,-230.55 507.31,-219.92"/>
<polygon fill="black" stroke="black" stroke-width="1.2" points="508.67,-223.16 517.23,-216.92 506.65,-216.46 508.67,-223.16"/>
</g>
<!-- mnt_comp4&#45;&gt;mnt_comp1 -->
<g id="edge29" class="edge">
<title>mnt_comp4&#45;&gt;mnt_comp1</title>
<path fill="none" stroke="black" stroke-width="1.2" d="M347.3,-312.46C358.95,-314.23 371.39,-315.89 383,-317 574.7,-335.31 627.48,-293.68 816,-333 828.1,-335.52 840.73,-339.63 852.4,-344.1"/>
<polygon fill="black" stroke="black" stroke-width="1.2" points="851.36,-347.45 861.95,-347.91 853.96,-340.95 851.36,-347.45"/>
</g>
<!-- mnt_comp4&#45;&gt;mnt_comp3 -->
<g id="edge35" class="edge">
<title>mnt_comp4&#45;&gt;mnt_comp3</title>
<path fill="none" stroke="black" stroke-width="1.2" d="M347.03,-298.91C355.4,-298.02 364.19,-297.09 372.8,-296.17"/>
<polygon fill="black" stroke="black" stroke-width="1.2" points="373.21,-299.65 382.79,-295.11 372.47,-292.69 373.21,-299.65"/>
</g>
<!-- fail_comp1&#45;&gt;pressure -->
<g id="edge15" class="edge">
<title>fail_comp1&#45;&gt;pressure</title>
<path fill="none" stroke="black" stroke-width="1.2" d="M174.49,-393.66C185.52,-364.97 210.54,-309.4 249,-277 284.73,-246.9 303.66,-256.43 347,-239 363.08,-232.53 366.2,-228.28 383,-224 424,-213.55 471.98,-209.15 506.83,-207.31"/>
<polygon fill="black" stroke="black" stroke-width="1.2" points="507.38,-210.79 517.21,-206.81 507.05,-203.79 507.38,-210.79"/>
</g>
<!-- fail_comp1&#45;&gt;mnt_comp1 -->
<g id="edge30" class="edge">
<title>fail_comp1&#45;&gt;mnt_comp1</title>
<path fill="none" stroke="black" stroke-width="1.2" d="M213.02,-408.57C307.61,-401.45 533.95,-384.81 724,-374 763.16,-371.77 807.25,-369.77 841.5,-368.32"/>
<polygon fill="black" stroke="black" stroke-width="1.2" points="841.96,-371.81 851.8,-367.89 841.67,-364.81 841.96,-371.81"/>
</g>
<!-- fail_comp1&#45;&gt;mnt_comp2 -->
<g id="edge33" class="edge">
<title>fail_comp1&#45;&gt;mnt_comp2</title>
<path fill="none" stroke="black" stroke-width="1.2" d="M201.48,-430.06C285.99,-474.31 516.04,-586.54 724,-614 762.99,-619.15 807.26,-618.11 841.64,-615.8"/>
<polygon fill="black" stroke="black" stroke-width="1.2" points="842.26,-619.27 851.98,-615.05 841.75,-612.29 842.26,-619.27"/>
</g>
<!-- fail_comp1&#45;&gt;mnt_comp4 -->
<g id="edge36" class="edge">
<title>fail_comp1&#45;&gt;mnt_comp4</title>
<path fill="none" stroke="black" stroke-width="1.2" d="M189.59,-393.92C210.99,-376.01 243.91,-348.45 267.66,-328.56"/>
<polygon fill="black" stroke="black" stroke-width="1.2" points="269.92,-331.24 275.34,-322.14 265.42,-325.87 269.92,-331.24"/>
</g>
<!-- fail_comp2&#45;&gt;err_error3 -->
<g id="edge24" class="edge">
<title>fail_comp2&#45;&gt;err_error3</title>
<path fill="none" stroke="black" stroke-width="1.2" d="M816.12,-531.71C826.58,-528.63 837.78,-525.33 848.49,-522.17"/>
<polygon fill="black" stroke="black" stroke-width="1.2" points="849.55,-525.51 858.15,-519.33 847.57,-518.8 849.55,-525.51"/>
</g>
<!-- fail_comp2&#45;&gt;mnt_comp1 -->
<g id="edge31" class="edge">
<title>fail_comp2&#45;&gt;mnt_comp1</title>
<path fill="none" stroke="black" stroke-width="1.2" d="M784.08,-526.85C806.97,-495.09 854.38,-429.31 880.93,-392.47"/>
<polygon fill="black" stroke="black" stroke-width="1.2" points="883.88,-394.36 886.89,-384.2 878.2,-390.26 883.88,-394.36"/>
</g>
<!-- fail_comp2&#45;&gt;mnt_comp2 -->
<g id="edge34" class="edge">
<title>fail_comp2&#45;&gt;mnt_comp2</title>
<path fill="none" stroke="black" stroke-width="1.2" d="M806.93,-563.11C821.89,-570.64 839.42,-579.47 855.2,-587.43"/>
<polygon fill="black" stroke="black" stroke-width="1.2" points="853.75,-590.62 864.26,-591.99 856.9,-584.37 853.75,-590.62"/>
</g>
</g>
</svg>
