<?xml version="1.0" encoding="UTF-8" standalone="no"?>
<!DOCTYPE svg PUBLIC "-//W3C//DTD SVG 1.1//EN"
 "http://www.w3.org/Graphics/SVG/1.1/DTD/svg11.dtd">
<!-- Generated by graphviz version 2.50.0 (0)
 -->
<!-- Title: G Pages: 1 -->
<svg width="1169pt" height="354pt"
 viewBox="0.00 0.00 1169.00 354.00" xmlns="http://www.w3.org/2000/svg" xmlns:xlink="http://www.w3.org/1999/xlink">
<g id="graph0" class="graph" transform="scale(1 1) rotate(0) translate(4 350)">
<title>G</title>
<polygon fill="white" stroke="transparent" points="-4,4 -4,-350 1165,-350 1165,4 -4,4"/>
<text text-anchor="middle" x="580.5" y="-329.2" font-family="Times,serif" font-size="16.00">model=model3/cbnb_w_mixed.json [machine 89]</text>
<!-- volt -->
<g id="node1" class="node">
<title>volt</title>
<path fill="white" stroke="black" d="M42,-190C42,-190 12,-190 12,-190 6,-190 0,-184 0,-178 0,-178 0,-166 0,-166 0,-160 6,-154 12,-154 12,-154 42,-154 42,-154 48,-154 54,-160 54,-166 54,-166 54,-178 54,-178 54,-184 48,-190 42,-190"/>
<text text-anchor="middle" x="27" y="-168.3" font-family="Helvetica,sans-Serif" font-size="14.00">volt</text>
</g>
<!-- err_error1 -->
<g id="node5" class="node">
<title>err_error1</title>
<path fill="white" stroke="black" d="M163,-236C163,-236 102,-236 102,-236 96,-236 90,-230 90,-224 90,-224 90,-212 90,-212 90,-206 96,-200 102,-200 102,-200 163,-200 163,-200 169,-200 175,-206 175,-212 175,-212 175,-224 175,-224 175,-230 169,-236 163,-236"/>
<text text-anchor="middle" x="132.5" y="-214.3" font-family="Helvetica,sans-Serif" font-size="14.00">err_error1</text>
</g>
<!-- volt&#45;&gt;err_error1 -->
<g id="edge1" class="edge">
<title>volt&#45;&gt;err_error1</title>
<path fill="none" stroke="black" stroke-width="1.2" d="M63.39,-187.73C69.19,-190.31 75.31,-193.03 81.39,-195.73"/>
<polygon fill="black" stroke="black" stroke-width="1.2" points="64.68,-184.47 54.12,-183.61 61.83,-190.87 64.68,-184.47"/>
<polygon fill="black" stroke="black" stroke-width="1.2" points="80.32,-199.08 90.88,-199.95 83.17,-192.69 80.32,-199.08"/>
</g>
<!-- err_error3 -->
<g id="node7" class="node">
<title>err_error3</title>
<path fill="white" stroke="black" d="M615.5,-240C615.5,-240 554.5,-240 554.5,-240 548.5,-240 542.5,-234 542.5,-228 542.5,-228 542.5,-216 542.5,-216 542.5,-210 548.5,-204 554.5,-204 554.5,-204 615.5,-204 615.5,-204 621.5,-204 627.5,-210 627.5,-216 627.5,-216 627.5,-228 627.5,-228 627.5,-234 621.5,-240 615.5,-240"/>
<text text-anchor="middle" x="585" y="-218.3" font-family="Helvetica,sans-Serif" font-size="14.00">err_error3</text>
</g>
<!-- volt&#45;&gt;err_error3 -->
<g id="edge2" class="edge">
<title>volt&#45;&gt;err_error3</title>
<path fill="none" stroke="black" stroke-width="1.2" d="M39.52,-190.16C50.68,-206.48 68.97,-230.1 90,-245 147.68,-285.88 167.81,-302 238.5,-302 238.5,-302 238.5,-302 347.5,-302 419.27,-302 497.15,-268.53 543.2,-244.89"/>
<polygon fill="black" stroke="black" stroke-width="1.2" points="545.01,-247.89 552.25,-240.15 541.77,-241.68 545.01,-247.89"/>
</g>
<!-- mnt_comp1 -->
<g id="node10" class="node">
<title>mnt_comp1</title>
<path fill="white" stroke="black" d="M1149,-56C1149,-56 1075,-56 1075,-56 1069,-56 1063,-50 1063,-44 1063,-44 1063,-32 1063,-32 1063,-26 1069,-20 1075,-20 1075,-20 1149,-20 1149,-20 1155,-20 1161,-26 1161,-32 1161,-32 1161,-44 1161,-44 1161,-50 1155,-56 1149,-56"/>
<text text-anchor="middle" x="1112" y="-34.3" font-family="Helvetica,sans-Serif" font-size="14.00">mnt_comp1</text>
</g>
<!-- volt&#45;&gt;mnt_comp1 -->
<g id="edge4" class="edge">
<title>volt&#45;&gt;mnt_comp1</title>
<path fill="none" stroke="black" stroke-width="1.2" d="M38.41,-153.92C65.34,-109.76 141.99,0 238.5,0 238.5,0 238.5,0 851,0 921.07,0 1000.66,-13.68 1053.11,-24.62"/>
<polygon fill="black" stroke="black" stroke-width="1.2" points="1052.4,-28.05 1062.91,-26.7 1053.85,-21.2 1052.4,-28.05"/>
</g>
<!-- fail_comp4 -->
<g id="node16" class="node">
<title>fail_comp4</title>
<path fill="white" stroke="black" d="M750,-140C750,-140 682,-140 682,-140 676,-140 670,-134 670,-128 670,-128 670,-116 670,-116 670,-110 676,-104 682,-104 682,-104 750,-104 750,-104 756,-104 762,-110 762,-116 762,-116 762,-128 762,-128 762,-134 756,-140 750,-140"/>
<text text-anchor="middle" x="716" y="-118.3" font-family="Helvetica,sans-Serif" font-size="14.00">fail_comp4</text>
</g>
<!-- volt&#45;&gt;fail_comp4 -->
<g id="edge5" class="edge">
<title>volt&#45;&gt;fail_comp4</title>
<path fill="none" stroke="black" stroke-width="1.2" d="M61.4,-148.3C101.48,-122.23 171.66,-84 238.5,-84 238.5,-84 238.5,-84 465,-84 532.56,-84 609.24,-97.73 659.66,-108.69"/>
<polygon fill="black" stroke="black" stroke-width="1.2" points="59.24,-145.53 52.84,-153.98 63.11,-151.37 59.24,-145.53"/>
<polygon fill="black" stroke="black" stroke-width="1.2" points="659.18,-112.16 669.7,-110.91 660.69,-105.33 659.18,-112.16"/>
</g>
<!-- rotate -->
<g id="node2" class="node">
<title>rotate</title>
<path fill="white" stroke="black" d="M256,-236C256,-236 223,-236 223,-236 217,-236 211,-230 211,-224 211,-224 211,-212 211,-212 211,-206 217,-200 223,-200 223,-200 256,-200 256,-200 262,-200 268,-206 268,-212 268,-212 268,-224 268,-224 268,-230 262,-236 256,-236"/>
<text text-anchor="middle" x="239.5" y="-214.3" font-family="Helvetica,sans-Serif" font-size="14.00">rotate</text>
</g>
<!-- err_error2 -->
<g id="node6" class="node">
<title>err_error2</title>
<path fill="white" stroke="black" d="M377,-252C377,-252 316,-252 316,-252 310,-252 304,-246 304,-240 304,-240 304,-228 304,-228 304,-222 310,-216 316,-216 316,-216 377,-216 377,-216 383,-216 389,-222 389,-228 389,-228 389,-240 389,-240 389,-246 383,-252 377,-252"/>
<text text-anchor="middle" x="346.5" y="-230.3" font-family="Helvetica,sans-Serif" font-size="14.00">err_error2</text>
</g>
<!-- rotate&#45;&gt;err_error2 -->
<g id="edge7" class="edge">
<title>rotate&#45;&gt;err_error2</title>
<path fill="none" stroke="black" stroke-width="1.2" d="M277.98,-223.71C283.09,-224.49 288.41,-225.3 293.72,-226.11"/>
<polygon fill="black" stroke="black" stroke-width="1.2" points="278.5,-220.25 268.09,-222.2 277.45,-227.17 278.5,-220.25"/>
<polygon fill="black" stroke="black" stroke-width="1.2" points="293.45,-229.61 303.86,-227.65 294.5,-222.69 293.45,-229.61"/>
</g>
<!-- err_error5 -->
<g id="node9" class="node">
<title>err_error5</title>
<path fill="white" stroke="black" d="M377,-198C377,-198 316,-198 316,-198 310,-198 304,-192 304,-186 304,-186 304,-174 304,-174 304,-168 310,-162 316,-162 316,-162 377,-162 377,-162 383,-162 389,-168 389,-174 389,-174 389,-186 389,-186 389,-192 383,-198 377,-198"/>
<text text-anchor="middle" x="346.5" y="-176.3" font-family="Helvetica,sans-Serif" font-size="14.00">err_error5</text>
</g>
<!-- rotate&#45;&gt;err_error5 -->
<g id="edge8" class="edge">
<title>rotate&#45;&gt;err_error5</title>
<path fill="none" stroke="black" stroke-width="1.2" d="M268.09,-208.02C276.2,-205.08 285.36,-201.77 294.45,-198.48"/>
<polygon fill="black" stroke="black" stroke-width="1.2" points="295.65,-201.76 303.86,-195.07 293.27,-195.18 295.65,-201.76"/>
</g>
<!-- pressure -->
<g id="node3" class="node">
<title>pressure</title>
<path fill="white" stroke="black" d="M876.5,-121C876.5,-121 823.5,-121 823.5,-121 817.5,-121 811.5,-115 811.5,-109 811.5,-109 811.5,-97 811.5,-97 811.5,-91 817.5,-85 823.5,-85 823.5,-85 876.5,-85 876.5,-85 882.5,-85 888.5,-91 888.5,-97 888.5,-97 888.5,-109 888.5,-109 888.5,-115 882.5,-121 876.5,-121"/>
<text text-anchor="middle" x="850" y="-99.3" font-family="Helvetica,sans-Serif" font-size="14.00">pressure</text>
</g>
<!-- vibration -->
<g id="node4" class="node">
<title>vibration</title>
<path fill="white" stroke="black" d="M491,-160C491,-160 437,-160 437,-160 431,-160 425,-154 425,-148 425,-148 425,-136 425,-136 425,-130 431,-124 437,-124 437,-124 491,-124 491,-124 497,-124 503,-130 503,-136 503,-136 503,-148 503,-148 503,-154 497,-160 491,-160"/>
<text text-anchor="middle" x="464" y="-138.3" font-family="Helvetica,sans-Serif" font-size="14.00">vibration</text>
</g>
<!-- pressure&#45;&gt;vibration -->
<g id="edge9" class="edge">
<title>pressure&#45;&gt;vibration</title>
<path fill="none" stroke="black" stroke-width="1.2" d="M801.27,-97.66C789.44,-96.56 776.77,-95.56 765,-95 721.49,-92.93 710.27,-90.03 667,-95 613.46,-101.15 553.49,-116.17 512.9,-127.59"/>
<polygon fill="black" stroke="black" stroke-width="1.2" points="801.13,-101.16 811.42,-98.65 801.81,-94.2 801.13,-101.16"/>
<polygon fill="black" stroke="black" stroke-width="1.2" points="511.92,-124.23 503.26,-130.33 513.84,-130.96 511.92,-124.23"/>
</g>
<!-- fail_comp1 -->
<g id="node14" class="node">
<title>fail_comp1</title>
<path fill="white" stroke="black" d="M1015,-102C1015,-102 947,-102 947,-102 941,-102 935,-96 935,-90 935,-90 935,-78 935,-78 935,-72 941,-66 947,-66 947,-66 1015,-66 1015,-66 1021,-66 1027,-72 1027,-78 1027,-78 1027,-90 1027,-90 1027,-96 1021,-102 1015,-102"/>
<text text-anchor="middle" x="981" y="-80.3" font-family="Helvetica,sans-Serif" font-size="14.00">fail_comp1</text>
</g>
<!-- pressure&#45;&gt;fail_comp1 -->
<g id="edge13" class="edge">
<title>pressure&#45;&gt;fail_comp1</title>
<path fill="none" stroke="black" stroke-width="1.2" d="M888.66,-97.45C899.93,-95.79 912.53,-93.94 924.69,-92.15"/>
<polygon fill="black" stroke="black" stroke-width="1.2" points="925.38,-95.58 934.76,-90.66 924.36,-88.66 925.38,-95.58"/>
</g>
<!-- vibration&#45;&gt;err_error1 -->
<g id="edge15" class="edge">
<title>vibration&#45;&gt;err_error1</title>
<path fill="none" stroke="black" stroke-width="1.2" d="M424.97,-141.5C392.47,-141.82 344.67,-144.05 304,-153 260.92,-162.48 214.26,-180.88 180.66,-195.69"/>
<polygon fill="black" stroke="black" stroke-width="1.2" points="178.81,-192.68 171.1,-199.96 181.66,-199.08 178.81,-192.68"/>
</g>
<!-- vibration&#45;&gt;err_error3 -->
<g id="edge17" class="edge">
<title>vibration&#45;&gt;err_error3</title>
<path fill="none" stroke="black" stroke-width="1.2" d="M489.32,-160.17C503.59,-170.65 522.09,-183.9 539,-195 540.66,-196.09 542.36,-197.19 544.08,-198.28"/>
<polygon fill="black" stroke="black" stroke-width="1.2" points="542.47,-201.41 552.81,-203.73 546.18,-195.47 542.47,-201.41"/>
</g>
<!-- fail_comp2 -->
<g id="node15" class="node">
<title>fail_comp2</title>
<path fill="white" stroke="black" d="M619,-186C619,-186 551,-186 551,-186 545,-186 539,-180 539,-174 539,-174 539,-162 539,-162 539,-156 545,-150 551,-150 551,-150 619,-150 619,-150 625,-150 631,-156 631,-162 631,-162 631,-174 631,-174 631,-180 625,-186 619,-186"/>
<text text-anchor="middle" x="585" y="-164.3" font-family="Helvetica,sans-Serif" font-size="14.00">fail_comp2</text>
</g>
<!-- vibration&#45;&gt;fail_comp2 -->
<g id="edge19" class="edge">
<title>vibration&#45;&gt;fail_comp2</title>
<path fill="none" stroke="black" stroke-width="1.2" d="M503.31,-150.37C511.41,-152.14 520.12,-154.04 528.72,-155.92"/>
<polygon fill="black" stroke="black" stroke-width="1.2" points="528.19,-159.39 538.71,-158.1 529.68,-152.55 528.19,-159.39"/>
</g>
<!-- vibration&#45;&gt;fail_comp4 -->
<g id="edge20" class="edge">
<title>vibration&#45;&gt;fail_comp4</title>
<path fill="none" stroke="black" stroke-width="1.2" d="M503.24,-138.94C545.04,-135.6 612.37,-130.21 659.88,-126.41"/>
<polygon fill="black" stroke="black" stroke-width="1.2" points="660.3,-129.89 669.99,-125.6 659.75,-122.91 660.3,-129.89"/>
</g>
<!-- err_error1&#45;&gt;rotate -->
<g id="edge6" class="edge">
<title>err_error1&#45;&gt;rotate</title>
<path fill="none" stroke="black" stroke-width="1.2" d="M175.3,-218C183.66,-218 192.41,-218 200.63,-218"/>
<polygon fill="black" stroke="black" stroke-width="1.2" points="200.7,-221.5 210.7,-218 200.7,-214.5 200.7,-221.5"/>
</g>
<!-- err_error2&#45;&gt;vibration -->
<g id="edge16" class="edge">
<title>err_error2&#45;&gt;vibration</title>
<path fill="none" stroke="black" stroke-width="1.2" d="M376.45,-215.94C380.72,-213.05 385.03,-210.01 389,-207 405.29,-194.65 422.5,-179.66 436.22,-167.19"/>
<polygon fill="black" stroke="black" stroke-width="1.2" points="438.86,-169.52 443.86,-160.18 434.13,-164.36 438.86,-169.52"/>
</g>
<!-- err_error2&#45;&gt;err_error3 -->
<g id="edge21" class="edge">
<title>err_error2&#45;&gt;err_error3</title>
<path fill="none" stroke="black" stroke-width="1.2" d="M389.24,-231.88C429.05,-229.86 489.15,-226.81 532.04,-224.64"/>
<polygon fill="black" stroke="black" stroke-width="1.2" points="532.47,-228.12 542.28,-224.12 532.12,-221.13 532.47,-228.12"/>
</g>
<!-- err_error4 -->
<g id="node8" class="node">
<title>err_error4</title>
<path fill="white" stroke="black" d="M880.5,-320C880.5,-320 819.5,-320 819.5,-320 813.5,-320 807.5,-314 807.5,-308 807.5,-308 807.5,-296 807.5,-296 807.5,-290 813.5,-284 819.5,-284 819.5,-284 880.5,-284 880.5,-284 886.5,-284 892.5,-290 892.5,-296 892.5,-296 892.5,-308 892.5,-308 892.5,-314 886.5,-320 880.5,-320"/>
<text text-anchor="middle" x="850" y="-298.3" font-family="Helvetica,sans-Serif" font-size="14.00">err_error4</text>
</g>
<!-- err_error2&#45;&gt;err_error4 -->
<g id="edge22" class="edge">
<title>err_error2&#45;&gt;err_error4</title>
<path fill="none" stroke="black" stroke-width="1.2" d="M389.21,-250.58C400.65,-254.56 413.17,-258.41 425,-261 556.87,-289.91 716.28,-298.44 796.89,-300.95"/>
<polygon fill="black" stroke="black" stroke-width="1.2" points="797.16,-304.46 807.26,-301.25 797.37,-297.46 797.16,-304.46"/>
</g>
<!-- err_error5&#45;&gt;volt -->
<g id="edge3" class="edge">
<title>err_error5&#45;&gt;volt</title>
<path fill="none" stroke="black" stroke-width="1.2" d="M303.94,-178.95C241.3,-177.37 123.69,-174.41 64.3,-172.91"/>
<polygon fill="black" stroke="black" stroke-width="1.2" points="64.34,-169.41 54.25,-172.66 64.16,-176.41 64.34,-169.41"/>
</g>
<!-- err_error5&#45;&gt;vibration -->
<g id="edge18" class="edge">
<title>err_error5&#45;&gt;vibration</title>
<path fill="none" stroke="black" stroke-width="1.2" d="M389.2,-166.28C397.65,-163.5 406.6,-160.56 415.24,-157.71"/>
<polygon fill="black" stroke="black" stroke-width="1.2" points="416.42,-161.01 424.82,-154.56 414.23,-154.36 416.42,-161.01"/>
</g>
<!-- err_error5&#45;&gt;err_error3 -->
<g id="edge24" class="edge">
<title>err_error5&#45;&gt;err_error3</title>
<path fill="none" stroke="black" stroke-width="1.2" d="M389.24,-187.41C429.14,-194.5 489.4,-205.2 532.32,-212.82"/>
<polygon fill="black" stroke="black" stroke-width="1.2" points="531.83,-216.29 542.28,-214.59 533.05,-209.4 531.83,-216.29"/>
</g>
<!-- mnt_comp1&#45;&gt;pressure -->
<g id="edge10" class="edge">
<title>mnt_comp1&#45;&gt;pressure</title>
<path fill="none" stroke="black" stroke-width="1.2" d="M1062.91,-38.14C1026.93,-39.45 976.93,-43.83 935,-57 918.19,-62.28 900.89,-71.07 886.4,-79.57"/>
<polygon fill="black" stroke="black" stroke-width="1.2" points="884.52,-76.62 877.77,-84.78 888.14,-82.61 884.52,-76.62"/>
</g>
<!-- mnt_comp2 -->
<g id="node11" class="node">
<title>mnt_comp2</title>
<path fill="white" stroke="black" d="M887,-232C887,-232 813,-232 813,-232 807,-232 801,-226 801,-220 801,-220 801,-208 801,-208 801,-202 807,-196 813,-196 813,-196 887,-196 887,-196 893,-196 899,-202 899,-208 899,-208 899,-220 899,-220 899,-226 893,-232 887,-232"/>
<text text-anchor="middle" x="850" y="-210.3" font-family="Helvetica,sans-Serif" font-size="14.00">mnt_comp2</text>
</g>
<!-- mnt_comp2&#45;&gt;err_error2 -->
<g id="edge23" class="edge">
<title>mnt_comp2&#45;&gt;err_error2</title>
<path fill="none" stroke="black" stroke-width="1.2" d="M800.67,-231.81C789.13,-235.43 776.74,-238.8 765,-241 635.27,-265.32 478.88,-251.5 399.38,-241.5"/>
<polygon fill="black" stroke="black" stroke-width="1.2" points="399.51,-237.99 389.15,-240.18 398.62,-244.93 399.51,-237.99"/>
</g>
<!-- mnt_comp3 -->
<g id="node12" class="node">
<title>mnt_comp3</title>
<path fill="white" stroke="black" d="M753,-232C753,-232 679,-232 679,-232 673,-232 667,-226 667,-220 667,-220 667,-208 667,-208 667,-202 673,-196 679,-196 679,-196 753,-196 753,-196 759,-196 765,-202 765,-208 765,-208 765,-220 765,-220 765,-226 759,-232 753,-232"/>
<text text-anchor="middle" x="716" y="-210.3" font-family="Helvetica,sans-Serif" font-size="14.00">mnt_comp3</text>
</g>
<!-- mnt_comp3&#45;&gt;pressure -->
<g id="edge11" class="edge">
<title>mnt_comp3&#45;&gt;pressure</title>
<path fill="none" stroke="black" stroke-width="1.2" d="M738.5,-195.92C760.56,-177.37 795.02,-148.4 819.59,-127.73"/>
<polygon fill="black" stroke="black" stroke-width="1.2" points="822.11,-130.19 827.51,-121.07 817.6,-124.83 822.11,-130.19"/>
</g>
<!-- mnt_comp3&#45;&gt;err_error4 -->
<g id="edge25" class="edge">
<title>mnt_comp3&#45;&gt;err_error4</title>
<path fill="none" stroke="black" stroke-width="1.2" d="M744.03,-232.02C764.01,-245.34 791.4,-263.6 813.2,-278.13"/>
<polygon fill="black" stroke="black" stroke-width="1.2" points="811.29,-281.07 821.55,-283.7 815.17,-275.24 811.29,-281.07"/>
</g>
<!-- mnt_comp3&#45;&gt;mnt_comp2 -->
<g id="edge27" class="edge">
<title>mnt_comp3&#45;&gt;mnt_comp2</title>
<path fill="none" stroke="black" stroke-width="1.2" d="M765.03,-214C773.31,-214 782,-214 790.52,-214"/>
<polygon fill="black" stroke="black" stroke-width="1.2" points="790.79,-217.5 800.79,-214 790.79,-210.5 790.79,-217.5"/>
</g>
<!-- mnt_comp4 -->
<g id="node13" class="node">
<title>mnt_comp4</title>
<path fill="white" stroke="black" d="M1149,-148C1149,-148 1075,-148 1075,-148 1069,-148 1063,-142 1063,-136 1063,-136 1063,-124 1063,-124 1063,-118 1069,-112 1075,-112 1075,-112 1149,-112 1149,-112 1155,-112 1161,-118 1161,-124 1161,-124 1161,-136 1161,-136 1161,-142 1155,-148 1149,-148"/>
<text text-anchor="middle" x="1112" y="-126.3" font-family="Helvetica,sans-Serif" font-size="14.00">mnt_comp4</text>
</g>
<!-- mnt_comp4&#45;&gt;pressure -->
<g id="edge12" class="edge">
<title>mnt_comp4&#45;&gt;pressure</title>
<path fill="none" stroke="black" stroke-width="1.2" d="M1062.86,-125C1016.05,-120.14 945.35,-112.8 898.68,-107.95"/>
<polygon fill="black" stroke="black" stroke-width="1.2" points="898.84,-104.45 888.53,-106.9 898.11,-111.41 898.84,-104.45"/>
</g>
<!-- fail_comp1&#45;&gt;mnt_comp1 -->
<g id="edge26" class="edge">
<title>fail_comp1&#45;&gt;mnt_comp1</title>
<path fill="none" stroke="black" stroke-width="1.2" d="M1027.12,-67.91C1035.46,-64.94 1044.28,-61.79 1052.94,-58.7"/>
<polygon fill="black" stroke="black" stroke-width="1.2" points="1054.37,-61.91 1062.62,-55.25 1052.02,-55.32 1054.37,-61.91"/>
</g>
<!-- fail_comp1&#45;&gt;mnt_comp4 -->
<g id="edge31" class="edge">
<title>fail_comp1&#45;&gt;mnt_comp4</title>
<path fill="none" stroke="black" stroke-width="1.2" d="M1027.12,-100.09C1035.46,-103.06 1044.28,-106.21 1052.94,-109.3"/>
<polygon fill="black" stroke="black" stroke-width="1.2" points="1052.02,-112.68 1062.62,-112.75 1054.37,-106.09 1052.02,-112.68"/>
</g>
<!-- fail_comp2&#45;&gt;mnt_comp2 -->
<g id="edge28" class="edge">
<title>fail_comp2&#45;&gt;mnt_comp2</title>
<path fill="none" stroke="black" stroke-width="1.2" d="M631.27,-170.23C667.71,-172.64 720.05,-177.5 765,-187 773.49,-188.8 782.34,-191.12 790.97,-193.65"/>
<polygon fill="black" stroke="black" stroke-width="1.2" points="790.01,-197.02 800.6,-196.58 792.05,-190.32 790.01,-197.02"/>
</g>
<!-- fail_comp2&#45;&gt;mnt_comp3 -->
<g id="edge30" class="edge">
<title>fail_comp2&#45;&gt;mnt_comp3</title>
<path fill="none" stroke="black" stroke-width="1.2" d="M631.12,-184.09C639.46,-187.06 648.28,-190.21 656.94,-193.3"/>
<polygon fill="black" stroke="black" stroke-width="1.2" points="656.02,-196.68 666.62,-196.75 658.37,-190.09 656.02,-196.68"/>
</g>
<!-- fail_comp4&#45;&gt;pressure -->
<g id="edge14" class="edge">
<title>fail_comp4&#45;&gt;pressure</title>
<path fill="none" stroke="black" stroke-width="1.2" d="M762.06,-115.51C774.67,-113.7 788.42,-111.72 801.18,-109.88"/>
<polygon fill="black" stroke="black" stroke-width="1.2" points="801.77,-113.33 811.17,-108.45 800.77,-106.41 801.77,-113.33"/>
</g>
<!-- fail_comp4&#45;&gt;mnt_comp2 -->
<g id="edge29" class="edge">
<title>fail_comp4&#45;&gt;mnt_comp2</title>
<path fill="none" stroke="black" stroke-width="1.2" d="M744.9,-140.1C751.55,-144.56 758.58,-149.37 765,-154 781.44,-165.85 784.56,-170.15 801,-182 804.71,-184.67 808.63,-187.41 812.55,-190.11"/>
<polygon fill="black" stroke="black" stroke-width="1.2" points="810.85,-193.19 821.1,-195.9 814.78,-187.39 810.85,-193.19"/>
</g>
<!-- fail_comp4&#45;&gt;mnt_comp4 -->
<g id="edge32" class="edge">
<title>fail_comp4&#45;&gt;mnt_comp4</title>
<path fill="none" stroke="black" stroke-width="1.2" d="M762.28,-127.11C774.81,-128.3 788.42,-129.4 801,-130 888.72,-134.17 990.55,-133.02 1052.87,-131.64"/>
<polygon fill="black" stroke="black" stroke-width="1.2" points="1052.99,-135.14 1062.91,-131.41 1052.83,-128.14 1052.99,-135.14"/>
</g>
</g>
</svg>
