<?xml version="1.0" encoding="UTF-8" standalone="no"?>
<!DOCTYPE svg PUBLIC "-//W3C//DTD SVG 1.1//EN"
 "http://www.w3.org/Graphics/SVG/1.1/DTD/svg11.dtd">
<!-- Generated by graphviz version 2.50.0 (0)
 -->
<!-- Title: G Pages: 1 -->
<svg width="440pt" height="151pt"
 viewBox="0.00 0.00 440.00 151.00" xmlns="http://www.w3.org/2000/svg" xmlns:xlink="http://www.w3.org/1999/xlink">
<g id="graph0" class="graph" transform="scale(1 1) rotate(0) translate(4 147)">
<title>G</title>
<polygon fill="white" stroke="transparent" points="-4,4 -4,-147 436,-147 436,4 -4,4"/>
<text text-anchor="middle" x="216" y="-126.2" font-family="Times,serif" font-size="16.00">model=model3/cbnb_e_telemetry.json [machine 5]</text>
<!-- volt -->
<g id="node1" class="node">
<title>volt</title>
<path fill="white" stroke="black" d="M174.5,-36C174.5,-36 144.5,-36 144.5,-36 138.5,-36 132.5,-30 132.5,-24 132.5,-24 132.5,-12 132.5,-12 132.5,-6 138.5,0 144.5,0 144.5,0 174.5,0 174.5,0 180.5,0 186.5,-6 186.5,-12 186.5,-12 186.5,-24 186.5,-24 186.5,-30 180.5,-36 174.5,-36"/>
<text text-anchor="middle" x="159.5" y="-14.3" font-family="Helvetica,sans-Serif" font-size="14.00">volt</text>
</g>
<!-- rotate -->
<g id="node2" class="node">
<title>rotate</title>
<path fill="white" stroke="black" d="M289.5,-117C289.5,-117 256.5,-117 256.5,-117 250.5,-117 244.5,-111 244.5,-105 244.5,-105 244.5,-93 244.5,-93 244.5,-87 250.5,-81 256.5,-81 256.5,-81 289.5,-81 289.5,-81 295.5,-81 301.5,-87 301.5,-93 301.5,-93 301.5,-105 301.5,-105 301.5,-111 295.5,-117 289.5,-117"/>
<text text-anchor="middle" x="273" y="-95.3" font-family="Helvetica,sans-Serif" font-size="14.00">rotate</text>
</g>
<!-- pressure -->
<g id="node3" class="node">
<title>pressure</title>
<path fill="white" stroke="black" d="M299.5,-63C299.5,-63 246.5,-63 246.5,-63 240.5,-63 234.5,-57 234.5,-51 234.5,-51 234.5,-39 234.5,-39 234.5,-33 240.5,-27 246.5,-27 246.5,-27 299.5,-27 299.5,-27 305.5,-27 311.5,-33 311.5,-39 311.5,-39 311.5,-51 311.5,-51 311.5,-57 305.5,-63 299.5,-63"/>
<text text-anchor="middle" x="273" y="-41.3" font-family="Helvetica,sans-Serif" font-size="14.00">pressure</text>
</g>
<!-- vibration -->
<g id="node4" class="node">
<title>vibration</title>
<path fill="white" stroke="black" d="M186.5,-90C186.5,-90 132.5,-90 132.5,-90 126.5,-90 120.5,-84 120.5,-78 120.5,-78 120.5,-66 120.5,-66 120.5,-60 126.5,-54 132.5,-54 132.5,-54 186.5,-54 186.5,-54 192.5,-54 198.5,-60 198.5,-66 198.5,-66 198.5,-78 198.5,-78 198.5,-84 192.5,-90 186.5,-90"/>
<text text-anchor="middle" x="159.5" y="-68.3" font-family="Helvetica,sans-Serif" font-size="14.00">vibration</text>
</g>
<!-- vibration&#45;&gt;rotate -->
<g id="edge1" class="edge">
<title>vibration&#45;&gt;rotate</title>
<path fill="none" stroke="black" stroke-width="1.2" d="M198.56,-81.22C210.17,-84.03 222.93,-87.12 234.5,-89.92"/>
<polygon fill="black" stroke="black" stroke-width="1.2" points="233.77,-93.34 244.31,-92.3 235.42,-86.54 233.77,-93.34"/>
</g>
<!-- vibration&#45;&gt;pressure -->
<g id="edge2" class="edge">
<title>vibration&#45;&gt;pressure</title>
<path fill="none" stroke="black" stroke-width="1.2" d="M198.56,-62.78C206.9,-60.76 215.84,-58.6 224.5,-56.5"/>
<polygon fill="black" stroke="black" stroke-width="1.2" points="225.59,-59.84 234.49,-54.08 223.95,-53.04 225.59,-59.84"/>
</g>
</g>
</svg>
