<?xml version="1.0" encoding="UTF-8" standalone="no"?>
<!DOCTYPE svg PUBLIC "-//W3C//DTD SVG 1.1//EN"
 "http://www.w3.org/Graphics/SVG/1.1/DTD/svg11.dtd">
<!-- Generated by graphviz version 2.50.0 (0)
 -->
<!-- Title: G Pages: 1 -->
<svg width="454pt" height="131pt"
 viewBox="0.00 0.00 454.00 131.00" xmlns="http://www.w3.org/2000/svg" xmlns:xlink="http://www.w3.org/1999/xlink">
<g id="graph0" class="graph" transform="scale(1 1) rotate(0) translate(4 127)">
<title>G</title>
<polygon fill="white" stroke="transparent" points="-4,4 -4,-127 450,-127 450,4 -4,4"/>
<text text-anchor="middle" x="223" y="-106.2" font-family="Times,serif" font-size="16.00">model=model1/cbnb_w_telemetry.json [machine 56]</text>
<!-- volt -->
<g id="node1" class="node">
<title>volt</title>
<path fill="white" stroke="black" d="M171,-97C171,-97 141,-97 141,-97 135,-97 129,-91 129,-85 129,-85 129,-73 129,-73 129,-67 135,-61 141,-61 141,-61 171,-61 171,-61 177,-61 183,-67 183,-73 183,-73 183,-85 183,-85 183,-91 177,-97 171,-97"/>
<text text-anchor="middle" x="156" y="-75.3" font-family="Helvetica,sans-Serif" font-size="14.00">volt</text>
</g>
<!-- vibration -->
<g id="node4" class="node">
<title>vibration</title>
<path fill="white" stroke="black" d="M285,-59C285,-59 231,-59 231,-59 225,-59 219,-53 219,-47 219,-47 219,-35 219,-35 219,-29 225,-23 231,-23 231,-23 285,-23 285,-23 291,-23 297,-29 297,-35 297,-35 297,-47 297,-47 297,-53 291,-59 285,-59"/>
<text text-anchor="middle" x="258" y="-37.3" font-family="Helvetica,sans-Serif" font-size="14.00">vibration</text>
</g>
<!-- volt&#45;&gt;vibration -->
<g id="edge2" class="edge">
<title>volt&#45;&gt;vibration</title>
<path fill="none" stroke="black" stroke-width="1.2" d="M183.01,-69.12C191.09,-66.05 200.26,-62.56 209.32,-59.12"/>
<polygon fill="black" stroke="black" stroke-width="1.2" points="210.58,-62.38 218.68,-55.56 208.09,-55.84 210.58,-62.38"/>
</g>
<!-- rotate -->
<g id="node2" class="node">
<title>rotate</title>
<path fill="white" stroke="black" d="M81,-51C81,-51 48,-51 48,-51 42,-51 36,-45 36,-39 36,-39 36,-27 36,-27 36,-21 42,-15 48,-15 48,-15 81,-15 81,-15 87,-15 93,-21 93,-27 93,-27 93,-39 93,-39 93,-45 87,-51 81,-51"/>
<text text-anchor="middle" x="64.5" y="-29.3" font-family="Helvetica,sans-Serif" font-size="14.00">rotate</text>
</g>
<!-- rotate&#45;&gt;volt -->
<g id="edge1" class="edge">
<title>rotate&#45;&gt;volt</title>
<path fill="none" stroke="black" stroke-width="1.2" d="M93.33,-47.3C101.71,-51.61 111.01,-56.39 119.8,-60.91"/>
<polygon fill="black" stroke="black" stroke-width="1.2" points="118.22,-64.03 128.72,-65.49 121.42,-57.81 118.22,-64.03"/>
</g>
<!-- pressure -->
<g id="node3" class="node">
<title>pressure</title>
<path fill="white" stroke="black" d="M398,-36C398,-36 345,-36 345,-36 339,-36 333,-30 333,-24 333,-24 333,-12 333,-12 333,-6 339,0 345,0 345,0 398,0 398,0 404,0 410,-6 410,-12 410,-12 410,-24 410,-24 410,-30 404,-36 398,-36"/>
<text text-anchor="middle" x="371.5" y="-14.3" font-family="Helvetica,sans-Serif" font-size="14.00">pressure</text>
</g>
<!-- rotate&#45;&gt;pressure -->
<g id="edge3" class="edge">
<title>rotate&#45;&gt;pressure</title>
<path fill="none" stroke="black" stroke-width="1.2" d="M103.08,-27.04C134.08,-22.43 179.27,-16.45 219,-14 253.6,-11.87 262.35,-13.06 297,-14 305.26,-14.22 314.05,-14.59 322.56,-15.01"/>
<polygon fill="black" stroke="black" stroke-width="1.2" points="102.5,-23.58 93.13,-28.54 103.55,-30.51 102.5,-23.58"/>
<polygon fill="black" stroke="black" stroke-width="1.2" points="322.58,-18.52 332.75,-15.55 322.94,-11.53 322.58,-18.52"/>
</g>
<!-- rotate&#45;&gt;vibration -->
<g id="edge4" class="edge">
<title>rotate&#45;&gt;vibration</title>
<path fill="none" stroke="black" stroke-width="1.2" d="M93.35,-34.16C123.46,-35.42 172.05,-37.45 208.47,-38.97"/>
<polygon fill="black" stroke="black" stroke-width="1.2" points="208.74,-42.49 218.88,-39.41 209.03,-35.49 208.74,-42.49"/>
</g>
<!-- vibration&#45;&gt;pressure -->
<g id="edge5" class="edge">
<title>vibration&#45;&gt;pressure</title>
<path fill="none" stroke="black" stroke-width="1.2" d="M297.06,-33.15C305.4,-31.43 314.34,-29.59 323,-27.8"/>
<polygon fill="black" stroke="black" stroke-width="1.2" points="323.9,-31.19 332.99,-25.74 322.49,-24.33 323.9,-31.19"/>
</g>
</g>
</svg>
