<?xml version="1.0" encoding="UTF-8" standalone="no"?>
<!DOCTYPE svg PUBLIC "-//W3C//DTD SVG 1.1//EN"
 "http://www.w3.org/Graphics/SVG/1.1/DTD/svg11.dtd">
<!-- Generated by graphviz version 2.50.0 (0)
 -->
<!-- Title: G Pages: 1 -->
<svg width="1189pt" height="856pt"
 viewBox="0.00 0.00 1189.00 856.00" xmlns="http://www.w3.org/2000/svg" xmlns:xlink="http://www.w3.org/1999/xlink">
<g id="graph0" class="graph" transform="scale(1 1) rotate(0) translate(4 852)">
<title>G</title>
<polygon fill="white" stroke="transparent" points="-4,4 -4,-852 1185,-852 1185,4 -4,4"/>
<text text-anchor="middle" x="590.5" y="-831.2" font-family="Times,serif" font-size="16.00">model=model3/cbnb_w_mixed.json [machine 26]</text>
<!-- volt -->
<g id="node1" class="node">
<title>volt</title>
<path fill="white" stroke="black" d="M170,-399C170,-399 140,-399 140,-399 134,-399 128,-393 128,-387 128,-387 128,-375 128,-375 128,-369 134,-363 140,-363 140,-363 170,-363 170,-363 176,-363 182,-369 182,-375 182,-375 182,-387 182,-387 182,-393 176,-399 170,-399"/>
<text text-anchor="middle" x="155" y="-377.3" font-family="Helvetica,sans-Serif" font-size="14.00">volt</text>
</g>
<!-- pressure -->
<g id="node3" class="node">
<title>pressure</title>
<path fill="white" stroke="black" d="M283,-376C283,-376 230,-376 230,-376 224,-376 218,-370 218,-364 218,-364 218,-352 218,-352 218,-346 224,-340 230,-340 230,-340 283,-340 283,-340 289,-340 295,-346 295,-352 295,-352 295,-364 295,-364 295,-370 289,-376 283,-376"/>
<text text-anchor="middle" x="256.5" y="-354.3" font-family="Helvetica,sans-Serif" font-size="14.00">pressure</text>
</g>
<!-- volt&#45;&gt;pressure -->
<g id="edge2" class="edge">
<title>volt&#45;&gt;pressure</title>
<path fill="none" stroke="black" stroke-width="1.2" d="M192.05,-372.67C197.18,-371.48 202.52,-370.25 207.83,-369.02"/>
<polygon fill="black" stroke="black" stroke-width="1.2" points="191.1,-369.29 182.14,-374.96 192.67,-376.11 191.1,-369.29"/>
<polygon fill="black" stroke="black" stroke-width="1.2" points="208.98,-372.35 217.93,-366.68 207.4,-365.53 208.98,-372.35"/>
</g>
<!-- err_error1 -->
<g id="node5" class="node">
<title>err_error1</title>
<path fill="white" stroke="black" d="M1055,-629C1055,-629 994,-629 994,-629 988,-629 982,-623 982,-617 982,-617 982,-605 982,-605 982,-599 988,-593 994,-593 994,-593 1055,-593 1055,-593 1061,-593 1067,-599 1067,-605 1067,-605 1067,-617 1067,-617 1067,-623 1061,-629 1055,-629"/>
<text text-anchor="middle" x="1024.5" y="-607.3" font-family="Helvetica,sans-Serif" font-size="14.00">err_error1</text>
</g>
<!-- volt&#45;&gt;err_error1 -->
<g id="edge4" class="edge">
<title>volt&#45;&gt;err_error1</title>
<path fill="none" stroke="black" stroke-width="1.2" d="M155.6,-409.54C156.27,-462.09 164.37,-575.59 218,-650 289.25,-748.85 607.94,-822 628,-822 628,-822 628,-822 764,-822 879.23,-822 971.75,-695.2 1007.52,-638.19"/>
<polygon fill="black" stroke="black" stroke-width="1.2" points="159.1,-409.27 155.56,-399.29 152.1,-409.3 159.1,-409.27"/>
<polygon fill="black" stroke="black" stroke-width="1.2" points="1010.7,-639.71 1012.97,-629.36 1004.74,-636.04 1010.7,-639.71"/>
</g>
<!-- err_error2 -->
<g id="node6" class="node">
<title>err_error2</title>
<path fill="white" stroke="black" d="M404,-170C404,-170 343,-170 343,-170 337,-170 331,-164 331,-158 331,-158 331,-146 331,-146 331,-140 337,-134 343,-134 343,-134 404,-134 404,-134 410,-134 416,-140 416,-146 416,-146 416,-158 416,-158 416,-164 410,-170 404,-170"/>
<text text-anchor="middle" x="373.5" y="-148.3" font-family="Helvetica,sans-Serif" font-size="14.00">err_error2</text>
</g>
<!-- volt&#45;&gt;err_error2 -->
<g id="edge5" class="edge">
<title>volt&#45;&gt;err_error2</title>
<path fill="none" stroke="black" stroke-width="1.2" d="M156.38,-352.81C158.56,-309.76 169.33,-228 218,-184 245.71,-158.94 287.75,-151.5 320.98,-150.02"/>
<polygon fill="black" stroke="black" stroke-width="1.2" points="152.88,-352.75 155.99,-362.87 159.87,-353.02 152.88,-352.75"/>
<polygon fill="black" stroke="black" stroke-width="1.2" points="321.09,-153.52 330.99,-149.74 320.9,-146.52 321.09,-153.52"/>
</g>
<!-- err_error3 -->
<g id="node7" class="node">
<title>err_error3</title>
<path fill="white" stroke="black" d="M528.5,-278C528.5,-278 467.5,-278 467.5,-278 461.5,-278 455.5,-272 455.5,-266 455.5,-266 455.5,-254 455.5,-254 455.5,-248 461.5,-242 467.5,-242 467.5,-242 528.5,-242 528.5,-242 534.5,-242 540.5,-248 540.5,-254 540.5,-254 540.5,-266 540.5,-266 540.5,-272 534.5,-278 528.5,-278"/>
<text text-anchor="middle" x="498" y="-256.3" font-family="Helvetica,sans-Serif" font-size="14.00">err_error3</text>
</g>
<!-- volt&#45;&gt;err_error3 -->
<g id="edge6" class="edge">
<title>volt&#45;&gt;err_error3</title>
<path fill="none" stroke="black" stroke-width="1.2" d="M182.65,-356.14C214.89,-327.99 272.19,-283.83 331,-267 368.03,-256.4 411.6,-254.96 444.81,-256"/>
<polygon fill="black" stroke="black" stroke-width="1.2" points="180.16,-353.67 175.01,-362.93 184.81,-358.91 180.16,-353.67"/>
<polygon fill="black" stroke="black" stroke-width="1.2" points="445.08,-259.51 455.21,-256.41 445.36,-252.52 445.08,-259.51"/>
</g>
<!-- mnt_comp3 -->
<g id="node12" class="node">
<title>mnt_comp3</title>
<path fill="white" stroke="black" d="M800,-604C800,-604 726,-604 726,-604 720,-604 714,-598 714,-592 714,-592 714,-580 714,-580 714,-574 720,-568 726,-568 726,-568 800,-568 800,-568 806,-568 812,-574 812,-580 812,-580 812,-592 812,-592 812,-598 806,-604 800,-604"/>
<text text-anchor="middle" x="763" y="-582.3" font-family="Helvetica,sans-Serif" font-size="14.00">mnt_comp3</text>
</g>
<!-- volt&#45;&gt;mnt_comp3 -->
<g id="edge7" class="edge">
<title>volt&#45;&gt;mnt_comp3</title>
<path fill="none" stroke="black" stroke-width="1.2" d="M158.83,-399.05C170.72,-467.6 223.05,-708 372.5,-708 372.5,-708 372.5,-708 499,-708 590.92,-708 685.54,-645.91 732.23,-610.32"/>
<polygon fill="black" stroke="black" stroke-width="1.2" points="734.62,-612.89 740.38,-604 730.33,-607.36 734.62,-612.89"/>
</g>
<!-- fail_comp1 -->
<g id="node14" class="node">
<title>fail_comp1</title>
<path fill="white" stroke="black" d="M532,-398C532,-398 464,-398 464,-398 458,-398 452,-392 452,-386 452,-386 452,-374 452,-374 452,-368 458,-362 464,-362 464,-362 532,-362 532,-362 538,-362 544,-368 544,-374 544,-374 544,-386 544,-386 544,-392 538,-398 532,-398"/>
<text text-anchor="middle" x="498" y="-376.3" font-family="Helvetica,sans-Serif" font-size="14.00">fail_comp1</text>
</g>
<!-- volt&#45;&gt;fail_comp1 -->
<g id="edge8" class="edge">
<title>volt&#45;&gt;fail_comp1</title>
<path fill="none" stroke="black" stroke-width="1.2" d="M182.23,-383.07C193.26,-383.84 206.25,-384.62 218,-385 305.95,-387.83 328.04,-387.71 416,-385 424.21,-384.75 432.88,-384.35 441.38,-383.89"/>
<polygon fill="black" stroke="black" stroke-width="1.2" points="441.83,-387.37 451.61,-383.3 441.43,-380.38 441.83,-387.37"/>
</g>
<!-- rotate -->
<g id="node2" class="node">
<title>rotate</title>
<path fill="white" stroke="black" d="M390,-468C390,-468 357,-468 357,-468 351,-468 345,-462 345,-456 345,-456 345,-444 345,-444 345,-438 351,-432 357,-432 357,-432 390,-432 390,-432 396,-432 402,-438 402,-444 402,-444 402,-456 402,-456 402,-462 396,-468 390,-468"/>
<text text-anchor="middle" x="373.5" y="-446.3" font-family="Helvetica,sans-Serif" font-size="14.00">rotate</text>
</g>
<!-- rotate&#45;&gt;volt -->
<g id="edge1" class="edge">
<title>rotate&#45;&gt;volt</title>
<path fill="none" stroke="black" stroke-width="1.2" d="M344.92,-447.1C313.39,-443.15 260.63,-434.59 218,-418 208.72,-414.39 199.24,-409.46 190.56,-404.37"/>
<polygon fill="black" stroke="black" stroke-width="1.2" points="192.22,-401.29 181.86,-399.07 188.57,-407.26 192.22,-401.29"/>
</g>
<!-- rotate&#45;&gt;err_error1 -->
<g id="edge11" class="edge">
<title>rotate&#45;&gt;err_error1</title>
<path fill="none" stroke="black" stroke-width="1.2" d="M387.67,-468.09C401.72,-486.17 425.55,-513.58 452,-530 555.77,-594.43 593.26,-594.52 714,-613 803.75,-626.74 909.86,-621.47 971.63,-616.3"/>
<polygon fill="black" stroke="black" stroke-width="1.2" points="972.24,-619.76 981.9,-615.41 971.63,-612.79 972.24,-619.76"/>
</g>
<!-- rotate&#45;&gt;err_error3 -->
<g id="edge12" class="edge">
<title>rotate&#45;&gt;err_error3</title>
<path fill="none" stroke="black" stroke-width="1.2" d="M391.91,-422.99C415.28,-386.75 456.52,-322.78 479.78,-286.7"/>
<polygon fill="black" stroke="black" stroke-width="1.2" points="388.72,-421.48 386.25,-431.78 394.61,-425.27 388.72,-421.48"/>
<polygon fill="black" stroke="black" stroke-width="1.2" points="482.81,-288.46 485.29,-278.16 476.93,-284.67 482.81,-288.46"/>
</g>
<!-- mnt_comp2 -->
<g id="node11" class="node">
<title>mnt_comp2</title>
<path fill="white" stroke="black" d="M800,-490C800,-490 726,-490 726,-490 720,-490 714,-484 714,-478 714,-478 714,-466 714,-466 714,-460 720,-454 726,-454 726,-454 800,-454 800,-454 806,-454 812,-460 812,-466 812,-466 812,-478 812,-478 812,-484 806,-490 800,-490"/>
<text text-anchor="middle" x="763" y="-468.3" font-family="Helvetica,sans-Serif" font-size="14.00">mnt_comp2</text>
</g>
<!-- rotate&#45;&gt;mnt_comp2 -->
<g id="edge13" class="edge">
<title>rotate&#45;&gt;mnt_comp2</title>
<path fill="none" stroke="black" stroke-width="1.2" d="M411.8,-463.67C469.04,-482.91 582,-514.05 678,-499 686.8,-497.62 695.93,-495.48 704.79,-492.98"/>
<polygon fill="black" stroke="black" stroke-width="1.2" points="412.7,-460.27 402.11,-460.34 410.43,-466.9 412.7,-460.27"/>
<polygon fill="black" stroke="black" stroke-width="1.2" points="706.07,-496.26 714.65,-490.05 704.07,-489.55 706.07,-496.26"/>
</g>
<!-- rotate&#45;&gt;fail_comp1 -->
<g id="edge16" class="edge">
<title>rotate&#45;&gt;fail_comp1</title>
<path fill="none" stroke="black" stroke-width="1.2" d="M411.02,-429.13C425.35,-420.94 441.86,-411.51 456.55,-403.12"/>
<polygon fill="black" stroke="black" stroke-width="1.2" points="409.24,-426.12 402.3,-434.12 412.72,-432.19 409.24,-426.12"/>
<polygon fill="black" stroke="black" stroke-width="1.2" points="458.48,-406.04 465.43,-398.04 455.01,-399.96 458.48,-406.04"/>
</g>
<!-- pressure&#45;&gt;rotate -->
<g id="edge10" class="edge">
<title>pressure&#45;&gt;rotate</title>
<path fill="none" stroke="black" stroke-width="1.2" d="M280.22,-376.18C297.86,-390.29 322.5,-410 341.88,-425.5"/>
<polygon fill="black" stroke="black" stroke-width="1.2" points="339.83,-428.35 349.83,-431.86 344.2,-422.88 339.83,-428.35"/>
</g>
<!-- vibration -->
<g id="node4" class="node">
<title>vibration</title>
<path fill="white" stroke="black" d="M1169,-216C1169,-216 1115,-216 1115,-216 1109,-216 1103,-210 1103,-204 1103,-204 1103,-192 1103,-192 1103,-186 1109,-180 1115,-180 1115,-180 1169,-180 1169,-180 1175,-180 1181,-186 1181,-192 1181,-192 1181,-204 1181,-204 1181,-210 1175,-216 1169,-216"/>
<text text-anchor="middle" x="1142" y="-194.3" font-family="Helvetica,sans-Serif" font-size="14.00">vibration</text>
</g>
<!-- pressure&#45;&gt;vibration -->
<g id="edge17" class="edge">
<title>pressure&#45;&gt;vibration</title>
<path fill="none" stroke="black" stroke-width="1.2" d="M272.74,-331.22C285.72,-310.75 306.18,-283.35 331,-267 377.64,-236.26 396.87,-242.03 452,-233 690.12,-194 980.16,-194.71 1092.93,-196.78"/>
<polygon fill="black" stroke="black" stroke-width="1.2" points="269.73,-329.43 267.49,-339.79 275.7,-333.09 269.73,-329.43"/>
<polygon fill="black" stroke="black" stroke-width="1.2" points="1092.9,-200.28 1102.97,-196.98 1093.04,-193.28 1092.9,-200.28"/>
</g>
<!-- pressure&#45;&gt;err_error2 -->
<g id="edge19" class="edge">
<title>pressure&#45;&gt;err_error2</title>
<path fill="none" stroke="black" stroke-width="1.2" d="M267.02,-339.84C280.82,-313.64 307.32,-263.8 331,-222 339.12,-207.66 348.46,-191.85 356.22,-178.89"/>
<polygon fill="black" stroke="black" stroke-width="1.2" points="359.4,-180.39 361.55,-170.01 353.4,-176.78 359.4,-180.39"/>
</g>
<!-- err_error5 -->
<g id="node9" class="node">
<title>err_error5</title>
<path fill="white" stroke="black" d="M404,-376C404,-376 343,-376 343,-376 337,-376 331,-370 331,-364 331,-364 331,-352 331,-352 331,-346 337,-340 343,-340 343,-340 404,-340 404,-340 410,-340 416,-346 416,-352 416,-352 416,-364 416,-364 416,-370 410,-376 404,-376"/>
<text text-anchor="middle" x="373.5" y="-354.3" font-family="Helvetica,sans-Serif" font-size="14.00">err_error5</text>
</g>
<!-- pressure&#45;&gt;err_error5 -->
<g id="edge21" class="edge">
<title>pressure&#45;&gt;err_error5</title>
<path fill="none" stroke="black" stroke-width="1.2" d="M305.29,-358C310.31,-358 315.44,-358 320.51,-358"/>
<polygon fill="black" stroke="black" stroke-width="1.2" points="305.16,-354.5 295.16,-358 305.16,-361.5 305.16,-354.5"/>
<polygon fill="black" stroke="black" stroke-width="1.2" points="320.78,-361.5 330.78,-358 320.78,-354.5 320.78,-361.5"/>
</g>
<!-- pressure&#45;&gt;mnt_comp3 -->
<g id="edge22" class="edge">
<title>pressure&#45;&gt;mnt_comp3</title>
<path fill="none" stroke="black" stroke-width="1.2" d="M268.67,-385.54C280.63,-412.05 301.9,-451.73 331,-477 438.03,-569.96 613.34,-585.64 703.86,-587.08"/>
<polygon fill="black" stroke="black" stroke-width="1.2" points="271.75,-383.85 264.54,-376.09 265.33,-386.65 271.75,-383.85"/>
<polygon fill="black" stroke="black" stroke-width="1.2" points="703.9,-590.58 713.94,-587.18 703.97,-583.58 703.9,-590.58"/>
</g>
<!-- mnt_comp4 -->
<g id="node13" class="node">
<title>mnt_comp4</title>
<path fill="white" stroke="black" d="M934,-368C934,-368 860,-368 860,-368 854,-368 848,-362 848,-356 848,-356 848,-344 848,-344 848,-338 854,-332 860,-332 860,-332 934,-332 934,-332 940,-332 946,-338 946,-344 946,-344 946,-356 946,-356 946,-362 940,-368 934,-368"/>
<text text-anchor="middle" x="897" y="-346.3" font-family="Helvetica,sans-Serif" font-size="14.00">mnt_comp4</text>
</g>
<!-- pressure&#45;&gt;mnt_comp4 -->
<g id="edge23" class="edge">
<title>pressure&#45;&gt;mnt_comp4</title>
<path fill="none" stroke="black" stroke-width="1.2" d="M304.68,-338.8C313.32,-335.82 322.35,-333.05 331,-331 403.25,-313.85 422.74,-312 497,-312 497,-312 497,-312 630,-312 702.09,-312 784.08,-325.85 837.74,-336.82"/>
<polygon fill="black" stroke="black" stroke-width="1.2" points="303.35,-335.56 295.12,-342.23 305.71,-342.15 303.35,-335.56"/>
<polygon fill="black" stroke="black" stroke-width="1.2" points="837.25,-340.3 847.76,-338.91 838.68,-333.44 837.25,-340.3"/>
</g>
<!-- vibration&#45;&gt;volt -->
<g id="edge3" class="edge">
<title>vibration&#45;&gt;volt</title>
<path fill="none" stroke="black" stroke-width="1.2" d="M1136.76,-179.85C1128.61,-149.02 1107.86,-86.42 1067,-52 1006.9,-1.37 976.59,0 898,0 372.5,0 372.5,0 372.5,0 210.18,0 168.04,-264.63 158.51,-352.8"/>
<polygon fill="black" stroke="black" stroke-width="1.2" points="155.01,-352.58 157.48,-362.88 161.98,-353.29 155.01,-352.58"/>
</g>
<!-- err_error1&#45;&gt;pressure -->
<g id="edge18" class="edge">
<title>err_error1&#45;&gt;pressure</title>
<path fill="none" stroke="black" stroke-width="1.2" d="M1004.44,-629.21C963.78,-666.06 864.04,-746 764,-746 628,-746 628,-746 628,-746 428.46,-746 303.41,-474.25 267.93,-385.6"/>
<polygon fill="black" stroke="black" stroke-width="1.2" points="271.15,-384.22 264.23,-376.19 264.63,-386.78 271.15,-384.22"/>
</g>
<!-- err_error1&#45;&gt;vibration -->
<g id="edge24" class="edge">
<title>err_error1&#45;&gt;vibration</title>
<path fill="none" stroke="black" stroke-width="1.2" d="M1038.92,-592.84C1048.09,-579.63 1059.82,-560.98 1067,-543 1111.77,-430.79 1131.48,-286.71 1138.17,-226.46"/>
<polygon fill="black" stroke="black" stroke-width="1.2" points="1141.68,-226.53 1139.27,-216.21 1134.72,-225.78 1141.68,-226.53"/>
</g>
<!-- err_error2&#45;&gt;vibration -->
<g id="edge25" class="edge">
<title>err_error2&#45;&gt;vibration</title>
<path fill="none" stroke="black" stroke-width="1.2" d="M414.25,-133.85C525.27,-86.03 845.02,31.8 1067,-87 1099.59,-104.44 1120.31,-143.28 1131.29,-170.06"/>
<polygon fill="black" stroke="black" stroke-width="1.2" points="1128.14,-171.61 1135.03,-179.66 1134.66,-169.07 1128.14,-171.61"/>
</g>
<!-- err_error2&#45;&gt;err_error3 -->
<g id="edge32" class="edge">
<title>err_error2&#45;&gt;err_error3</title>
<path fill="none" stroke="black" stroke-width="1.2" d="M398.95,-170.23C404.63,-174.63 410.6,-179.4 416,-184 435.18,-200.33 455.88,-219.78 471.55,-234.92"/>
<polygon fill="black" stroke="black" stroke-width="1.2" points="469.2,-237.51 478.81,-241.97 474.07,-232.49 469.2,-237.51"/>
</g>
<!-- err_error4 -->
<g id="node8" class="node">
<title>err_error4</title>
<path fill="white" stroke="black" d="M1055,-132C1055,-132 994,-132 994,-132 988,-132 982,-126 982,-120 982,-120 982,-108 982,-108 982,-102 988,-96 994,-96 994,-96 1055,-96 1055,-96 1061,-96 1067,-102 1067,-108 1067,-108 1067,-120 1067,-120 1067,-126 1061,-132 1055,-132"/>
<text text-anchor="middle" x="1024.5" y="-110.3" font-family="Helvetica,sans-Serif" font-size="14.00">err_error4</text>
</g>
<!-- err_error2&#45;&gt;err_error4 -->
<g id="edge33" class="edge">
<title>err_error2&#45;&gt;err_error4</title>
<path fill="none" stroke="black" stroke-width="1.2" d="M416.09,-149.57C529.97,-142.9 846.7,-124.35 971.76,-117.03"/>
<polygon fill="black" stroke="black" stroke-width="1.2" points="972.06,-120.52 981.84,-116.44 971.65,-113.53 972.06,-120.52"/>
</g>
<!-- err_error3&#45;&gt;pressure -->
<g id="edge20" class="edge">
<title>err_error3&#45;&gt;pressure</title>
<path fill="none" stroke="black" stroke-width="1.2" d="M455.33,-264.18C420.65,-268.88 370.71,-278.58 331,-298 313.06,-306.77 295.63,-320.69 282.25,-332.91"/>
<polygon fill="black" stroke="black" stroke-width="1.2" points="279.75,-330.46 274.87,-339.86 284.55,-335.55 279.75,-330.46"/>
</g>
<!-- err_error3&#45;&gt;mnt_comp2 -->
<g id="edge34" class="edge">
<title>err_error3&#45;&gt;mnt_comp2</title>
<path fill="none" stroke="black" stroke-width="1.2" d="M521.42,-278.08C568.59,-316.09 678.1,-404.37 731.55,-447.46"/>
<polygon fill="black" stroke="black" stroke-width="1.2" points="729.65,-450.42 739.63,-453.97 734.04,-444.97 729.65,-450.42"/>
</g>
<!-- err_error3&#45;&gt;mnt_comp4 -->
<g id="edge35" class="edge">
<title>err_error3&#45;&gt;mnt_comp4</title>
<path fill="none" stroke="black" stroke-width="1.2" d="M540.54,-259.43C601.73,-259.82 718.9,-265.32 812,-298 830.53,-304.51 849.3,-315.6 864.37,-325.87"/>
<polygon fill="black" stroke="black" stroke-width="1.2" points="862.6,-328.9 872.79,-331.78 866.62,-323.17 862.6,-328.9"/>
</g>
<!-- err_error4&#45;&gt;vibration -->
<g id="edge26" class="edge">
<title>err_error4&#45;&gt;vibration</title>
<path fill="none" stroke="black" stroke-width="1.2" d="M1050.28,-132.02C1067.06,-144.23 1089.43,-160.5 1107.76,-173.83"/>
<polygon fill="black" stroke="black" stroke-width="1.2" points="1105.72,-176.67 1115.86,-179.72 1109.84,-171.01 1105.72,-176.67"/>
</g>
<!-- mnt_comp1 -->
<g id="node10" class="node">
<title>mnt_comp1</title>
<path fill="white" stroke="black" d="M666,-490C666,-490 592,-490 592,-490 586,-490 580,-484 580,-478 580,-478 580,-466 580,-466 580,-460 586,-454 592,-454 592,-454 666,-454 666,-454 672,-454 678,-460 678,-466 678,-466 678,-478 678,-478 678,-484 672,-490 666,-490"/>
<text text-anchor="middle" x="629" y="-468.3" font-family="Helvetica,sans-Serif" font-size="14.00">mnt_comp1</text>
</g>
<!-- mnt_comp1&#45;&gt;mnt_comp2 -->
<g id="edge38" class="edge">
<title>mnt_comp1&#45;&gt;mnt_comp2</title>
<path fill="none" stroke="black" stroke-width="1.2" d="M678.03,-472C686.31,-472 695,-472 703.52,-472"/>
<polygon fill="black" stroke="black" stroke-width="1.2" points="703.79,-475.5 713.79,-472 703.79,-468.5 703.79,-475.5"/>
</g>
<!-- mnt_comp1&#45;&gt;mnt_comp3 -->
<g id="edge39" class="edge">
<title>mnt_comp1&#45;&gt;mnt_comp3</title>
<path fill="none" stroke="black" stroke-width="1.2" d="M650.92,-490.06C673.09,-509.21 708.26,-539.59 733.08,-561.02"/>
<polygon fill="black" stroke="black" stroke-width="1.2" points="730.89,-563.76 740.74,-567.64 735.46,-558.46 730.89,-563.76"/>
</g>
<!-- mnt_comp2&#45;&gt;vibration -->
<g id="edge27" class="edge">
<title>mnt_comp2&#45;&gt;vibration</title>
<path fill="none" stroke="black" stroke-width="1.2" d="M805.89,-453.96C843.96,-436.68 900.92,-408.63 946,-377 1013.61,-329.56 1082.39,-260.51 1117.38,-223.57"/>
<polygon fill="black" stroke="black" stroke-width="1.2" points="1120.02,-225.88 1124.32,-216.2 1114.92,-221.08 1120.02,-225.88"/>
</g>
<!-- mnt_comp2&#45;&gt;mnt_comp4 -->
<g id="edge41" class="edge">
<title>mnt_comp2&#45;&gt;mnt_comp4</title>
<path fill="none" stroke="black" stroke-width="1.2" d="M793.47,-453.92C799.78,-449.62 806.27,-444.86 812,-440 835.24,-420.27 858.66,-394.59 874.84,-375.71"/>
<polygon fill="black" stroke="black" stroke-width="1.2" points="877.52,-377.97 881.31,-368.08 872.18,-373.44 877.52,-377.97"/>
</g>
<!-- mnt_comp3&#45;&gt;rotate -->
<g id="edge14" class="edge">
<title>mnt_comp3&#45;&gt;rotate</title>
<path fill="none" stroke="black" stroke-width="1.2" d="M713.98,-577.38C651.69,-565.14 540.54,-539.73 452,-500 436.42,-493.01 420.37,-483.17 406.95,-474.06"/>
<polygon fill="black" stroke="black" stroke-width="1.2" points="408.75,-471.05 398.54,-468.22 404.76,-476.8 408.75,-471.05"/>
</g>
<!-- mnt_comp3&#45;&gt;vibration -->
<g id="edge28" class="edge">
<title>mnt_comp3&#45;&gt;vibration</title>
<path fill="none" stroke="black" stroke-width="1.2" d="M790.5,-567.86C846.59,-528.53 979.33,-430.44 1067,-325 1093.01,-293.72 1115.32,-252.15 1128.46,-225.23"/>
<polygon fill="black" stroke="black" stroke-width="1.2" points="1131.7,-226.56 1132.87,-216.02 1125.39,-223.53 1131.7,-226.56"/>
</g>
<!-- mnt_comp3&#45;&gt;err_error1 -->
<g id="edge30" class="edge">
<title>mnt_comp3&#45;&gt;err_error1</title>
<path fill="none" stroke="black" stroke-width="1.2" d="M812.2,-590.64C857.58,-595.02 925.33,-601.54 971.81,-606.02"/>
<polygon fill="black" stroke="black" stroke-width="1.2" points="971.69,-609.52 981.98,-607 972.36,-602.56 971.69,-609.52"/>
</g>
<!-- mnt_comp3&#45;&gt;mnt_comp4 -->
<g id="edge43" class="edge">
<title>mnt_comp3&#45;&gt;mnt_comp4</title>
<path fill="none" stroke="black" stroke-width="1.2" d="M774.14,-567.87C797.17,-526.69 853.55,-425.89 880.79,-377.2"/>
<polygon fill="black" stroke="black" stroke-width="1.2" points="884,-378.62 885.83,-368.19 877.89,-375.21 884,-378.62"/>
</g>
<!-- mnt_comp4&#45;&gt;rotate -->
<g id="edge15" class="edge">
<title>mnt_comp4&#45;&gt;rotate</title>
<path fill="none" stroke="black" stroke-width="1.2" d="M847.81,-364.72C836.15,-368.02 823.68,-371.33 812,-374 665.41,-407.57 488.19,-434.11 412.14,-444.84"/>
<polygon fill="black" stroke="black" stroke-width="1.2" points="411.51,-441.39 402.09,-446.25 412.48,-448.33 411.51,-441.39"/>
</g>
<!-- mnt_comp4&#45;&gt;err_error1 -->
<g id="edge31" class="edge">
<title>mnt_comp4&#45;&gt;err_error1</title>
<path fill="none" stroke="black" stroke-width="1.2" d="M906.82,-368.35C928.52,-413.47 984.55,-529.99 1010.25,-583.45"/>
<polygon fill="black" stroke="black" stroke-width="1.2" points="1007.2,-585.17 1014.68,-592.67 1013.51,-582.14 1007.2,-585.17"/>
</g>
<!-- mnt_comp4&#45;&gt;err_error4 -->
<g id="edge36" class="edge">
<title>mnt_comp4&#45;&gt;err_error4</title>
<path fill="none" stroke="black" stroke-width="1.2" d="M907.64,-331.87C929.54,-290.69 983.15,-189.89 1009.04,-141.2"/>
<polygon fill="black" stroke="black" stroke-width="1.2" points="1012.22,-142.66 1013.83,-132.19 1006.04,-139.37 1012.22,-142.66"/>
</g>
<!-- fail_comp1&#45;&gt;vibration -->
<g id="edge29" class="edge">
<title>fail_comp1&#45;&gt;vibration</title>
<path fill="none" stroke="black" stroke-width="1.2" d="M544.14,-367.2C661.16,-334.03 973.46,-245.49 1093.28,-211.53"/>
<polygon fill="black" stroke="black" stroke-width="1.2" points="1094.26,-214.89 1102.92,-208.79 1092.35,-208.15 1094.26,-214.89"/>
</g>
<!-- fail_comp1&#45;&gt;mnt_comp1 -->
<g id="edge40" class="edge">
<title>fail_comp1&#45;&gt;mnt_comp1</title>
<path fill="none" stroke="black" stroke-width="1.2" d="M524.49,-398.18C544.45,-412.42 572.41,-432.35 594.23,-447.92"/>
<polygon fill="black" stroke="black" stroke-width="1.2" points="592.39,-450.9 602.57,-453.86 596.46,-445.21 592.39,-450.9"/>
</g>
<!-- fail_comp1&#45;&gt;mnt_comp4 -->
<g id="edge45" class="edge">
<title>fail_comp1&#45;&gt;mnt_comp4</title>
<path fill="none" stroke="black" stroke-width="1.2" d="M544.15,-376.59C616.31,-371.14 757.6,-360.46 837.43,-354.43"/>
<polygon fill="black" stroke="black" stroke-width="1.2" points="838.09,-357.89 847.8,-353.64 837.56,-350.91 838.09,-357.89"/>
</g>
<!-- fail_comp2 -->
<g id="node15" class="node">
<title>fail_comp2</title>
<path fill="white" stroke="black" d="M80,-399C80,-399 12,-399 12,-399 6,-399 0,-393 0,-387 0,-387 0,-375 0,-375 0,-369 6,-363 12,-363 12,-363 80,-363 80,-363 86,-363 92,-369 92,-375 92,-375 92,-387 92,-387 92,-393 86,-399 80,-399"/>
<text text-anchor="middle" x="46" y="-377.3" font-family="Helvetica,sans-Serif" font-size="14.00">fail_comp2</text>
</g>
<!-- fail_comp2&#45;&gt;volt -->
<g id="edge9" class="edge">
<title>fail_comp2&#45;&gt;volt</title>
<path fill="none" stroke="black" stroke-width="1.2" d="M92.07,-381C100.66,-381 109.55,-381 117.83,-381"/>
<polygon fill="black" stroke="black" stroke-width="1.2" points="117.9,-384.5 127.9,-381 117.9,-377.5 117.9,-384.5"/>
</g>
<!-- fail_comp2&#45;&gt;err_error4 -->
<g id="edge37" class="edge">
<title>fail_comp2&#45;&gt;err_error4</title>
<path fill="none" stroke="black" stroke-width="1.2" d="M49.11,-362.56C58.4,-291.31 102.19,-38 255.5,-38 255.5,-38 255.5,-38 630,-38 754.69,-38 897.63,-75.24 972.17,-97.59"/>
<polygon fill="black" stroke="black" stroke-width="1.2" points="971.21,-100.95 981.79,-100.5 973.24,-94.25 971.21,-100.95"/>
</g>
<!-- fail_comp2&#45;&gt;mnt_comp2 -->
<g id="edge42" class="edge">
<title>fail_comp2&#45;&gt;mnt_comp2</title>
<path fill="none" stroke="black" stroke-width="1.2" d="M52.21,-399.05C70.02,-456.6 134.27,-632 255.5,-632 255.5,-632 255.5,-632 374.5,-632 445.6,-632 633.89,-538.8 719.07,-494.67"/>
<polygon fill="black" stroke="black" stroke-width="1.2" points="720.7,-497.76 727.96,-490.04 717.47,-491.55 720.7,-497.76"/>
</g>
<!-- fail_comp2&#45;&gt;mnt_comp3 -->
<g id="edge44" class="edge">
<title>fail_comp2&#45;&gt;mnt_comp3</title>
<path fill="none" stroke="black" stroke-width="1.2" d="M47.73,-399.1C51.94,-477.52 79.64,-784 255.5,-784 255.5,-784 255.5,-784 499,-784 611.61,-784 706.67,-666.71 744.49,-612.68"/>
<polygon fill="black" stroke="black" stroke-width="1.2" points="747.49,-614.5 750.27,-604.27 741.72,-610.53 747.49,-614.5"/>
</g>
<!-- fail_comp2&#45;&gt;mnt_comp4 -->
<g id="edge46" class="edge">
<title>fail_comp2&#45;&gt;mnt_comp4</title>
<path fill="none" stroke="black" stroke-width="1.2" d="M54.83,-362.69C74.84,-318.22 132.41,-204.16 218,-149 261.16,-121.19 279.94,-130.36 331,-125 553.06,-101.68 622.35,-152.15 812,-270 835.73,-284.75 858.42,-307.01 874.21,-324.31"/>
<polygon fill="black" stroke="black" stroke-width="1.2" points="871.69,-326.74 880.97,-331.86 876.91,-322.07 871.69,-326.74"/>
</g>
</g>
</svg>
