<?xml version="1.0" encoding="UTF-8" standalone="no"?>
<!DOCTYPE svg PUBLIC "-//W3C//DTD SVG 1.1//EN"
 "http://www.w3.org/Graphics/SVG/1.1/DTD/svg11.dtd">
<!-- Generated by graphviz version 2.50.0 (0)
 -->
<!-- Title: G Pages: 1 -->
<svg width="1182pt" height="863pt"
 viewBox="0.00 0.00 1182.00 863.00" xmlns="http://www.w3.org/2000/svg" xmlns:xlink="http://www.w3.org/1999/xlink">
<g id="graph0" class="graph" transform="scale(1 1) rotate(0) translate(4 859)">
<title>G</title>
<polygon fill="white" stroke="transparent" points="-4,4 -4,-859 1178,-859 1178,4 -4,4"/>
<text text-anchor="middle" x="587" y="-838.2" font-family="Times,serif" font-size="16.00">model=model4/cbnb_w_mixed.json [machine 62]</text>
<!-- volt -->
<g id="node1" class="node">
<title>volt</title>
<path fill="white" stroke="black" d="M42,-402C42,-402 12,-402 12,-402 6,-402 0,-396 0,-390 0,-390 0,-378 0,-378 0,-372 6,-366 12,-366 12,-366 42,-366 42,-366 48,-366 54,-372 54,-378 54,-378 54,-390 54,-390 54,-396 48,-402 42,-402"/>
<text text-anchor="middle" x="27" y="-380.3" font-family="Helvetica,sans-Serif" font-size="14.00">volt</text>
</g>
<!-- rotate -->
<g id="node2" class="node">
<title>rotate</title>
<path fill="white" stroke="black" d="M135,-426C135,-426 102,-426 102,-426 96,-426 90,-420 90,-414 90,-414 90,-402 90,-402 90,-396 96,-390 102,-390 102,-390 135,-390 135,-390 141,-390 147,-396 147,-402 147,-402 147,-414 147,-414 147,-420 141,-426 135,-426"/>
<text text-anchor="middle" x="118.5" y="-404.3" font-family="Helvetica,sans-Serif" font-size="14.00">rotate</text>
</g>
<!-- volt&#45;&gt;rotate -->
<g id="edge1" class="edge">
<title>volt&#45;&gt;rotate</title>
<path fill="none" stroke="black" stroke-width="1.2" d="M64.12,-393.69C69.33,-395.08 74.7,-396.52 79.94,-397.93"/>
<polygon fill="black" stroke="black" stroke-width="1.2" points="64.93,-390.28 54.37,-391.07 63.12,-397.04 64.93,-390.28"/>
<polygon fill="black" stroke="black" stroke-width="1.2" points="79.2,-401.35 89.76,-400.56 81.01,-394.59 79.2,-401.35"/>
</g>
<!-- pressure -->
<g id="node3" class="node">
<title>pressure</title>
<path fill="white" stroke="black" d="M520.5,-574C520.5,-574 467.5,-574 467.5,-574 461.5,-574 455.5,-568 455.5,-562 455.5,-562 455.5,-550 455.5,-550 455.5,-544 461.5,-538 467.5,-538 467.5,-538 520.5,-538 520.5,-538 526.5,-538 532.5,-544 532.5,-550 532.5,-550 532.5,-562 532.5,-562 532.5,-568 526.5,-574 520.5,-574"/>
<text text-anchor="middle" x="494" y="-552.3" font-family="Helvetica,sans-Serif" font-size="14.00">pressure</text>
</g>
<!-- volt&#45;&gt;pressure -->
<g id="edge2" class="edge">
<title>volt&#45;&gt;pressure</title>
<path fill="none" stroke="black" stroke-width="1.2" d="M28.97,-402.12C31.99,-444.92 44,-554.45 90,-631 118.69,-678.74 132.63,-691.23 183,-715 274.16,-758.02 323.86,-787.96 409,-734 461.3,-700.85 481.65,-625.43 489.07,-584.2"/>
<polygon fill="black" stroke="black" stroke-width="1.2" points="492.54,-584.7 490.73,-574.26 485.63,-583.55 492.54,-584.7"/>
</g>
<!-- vibration -->
<g id="node4" class="node">
<title>vibration</title>
<path fill="white" stroke="black" d="M256,-504C256,-504 202,-504 202,-504 196,-504 190,-498 190,-492 190,-492 190,-480 190,-480 190,-474 196,-468 202,-468 202,-468 256,-468 256,-468 262,-468 268,-474 268,-480 268,-480 268,-492 268,-492 268,-498 262,-504 256,-504"/>
<text text-anchor="middle" x="229" y="-482.3" font-family="Helvetica,sans-Serif" font-size="14.00">vibration</text>
</g>
<!-- volt&#45;&gt;vibration -->
<g id="edge3" class="edge">
<title>volt&#45;&gt;vibration</title>
<path fill="none" stroke="black" stroke-width="1.2" d="M46.58,-402.1C58.3,-412.77 74.17,-425.91 90,-435 118.31,-451.25 152.75,-463.99 180.14,-472.67"/>
<polygon fill="black" stroke="black" stroke-width="1.2" points="179.3,-476.07 189.89,-475.68 181.37,-469.39 179.3,-476.07"/>
</g>
<!-- err_error1 -->
<g id="node5" class="node">
<title>err_error1</title>
<path fill="white" stroke="black" d="M390.5,-725C390.5,-725 329.5,-725 329.5,-725 323.5,-725 317.5,-719 317.5,-713 317.5,-713 317.5,-701 317.5,-701 317.5,-695 323.5,-689 329.5,-689 329.5,-689 390.5,-689 390.5,-689 396.5,-689 402.5,-695 402.5,-701 402.5,-701 402.5,-713 402.5,-713 402.5,-719 396.5,-725 390.5,-725"/>
<text text-anchor="middle" x="360" y="-703.3" font-family="Helvetica,sans-Serif" font-size="14.00">err_error1</text>
</g>
<!-- volt&#45;&gt;err_error1 -->
<g id="edge4" class="edge">
<title>volt&#45;&gt;err_error1</title>
<path fill="none" stroke="black" stroke-width="1.2" d="M33.03,-412.2C45.73,-474.15 85.28,-621.96 183,-689 219,-713.7 269.28,-716.52 306.88,-714.14"/>
<polygon fill="black" stroke="black" stroke-width="1.2" points="36.39,-411.14 31.03,-402 29.53,-412.49 36.39,-411.14"/>
<polygon fill="black" stroke="black" stroke-width="1.2" points="307.43,-717.61 317.13,-713.35 306.89,-710.63 307.43,-717.61"/>
</g>
<!-- err_error3 -->
<g id="node7" class="node">
<title>err_error3</title>
<path fill="white" stroke="black" d="M1041,-490C1041,-490 980,-490 980,-490 974,-490 968,-484 968,-478 968,-478 968,-466 968,-466 968,-460 974,-454 980,-454 980,-454 1041,-454 1041,-454 1047,-454 1053,-460 1053,-466 1053,-466 1053,-478 1053,-478 1053,-484 1047,-490 1041,-490"/>
<text text-anchor="middle" x="1010.5" y="-468.3" font-family="Helvetica,sans-Serif" font-size="14.00">err_error3</text>
</g>
<!-- volt&#45;&gt;err_error3 -->
<g id="edge6" class="edge">
<title>volt&#45;&gt;err_error3</title>
<path fill="none" stroke="black" stroke-width="1.2" d="M29.25,-402.37C33.97,-467.15 52.32,-684.09 90,-741 130.16,-801.65 155.26,-829 228,-829 228,-829 228,-829 361,-829 639.12,-829 741.53,-775.66 932,-573 955.42,-548.08 946.16,-531.31 968,-505 970.37,-502.14 973.03,-499.36 975.82,-496.71"/>
<polygon fill="black" stroke="black" stroke-width="1.2" points="978.23,-499.25 983.43,-490.02 973.61,-494 978.23,-499.25"/>
</g>
<!-- err_error4 -->
<g id="node8" class="node">
<title>err_error4</title>
<path fill="white" stroke="black" d="M1162,-466C1162,-466 1101,-466 1101,-466 1095,-466 1089,-460 1089,-454 1089,-454 1089,-442 1089,-442 1089,-436 1095,-430 1101,-430 1101,-430 1162,-430 1162,-430 1168,-430 1174,-436 1174,-442 1174,-442 1174,-454 1174,-454 1174,-460 1168,-466 1162,-466"/>
<text text-anchor="middle" x="1131.5" y="-444.3" font-family="Helvetica,sans-Serif" font-size="14.00">err_error4</text>
</g>
<!-- volt&#45;&gt;err_error4 -->
<g id="edge7" class="edge">
<title>volt&#45;&gt;err_error4</title>
<path fill="none" stroke="black" stroke-width="1.2" d="M29.38,-365.69C34.26,-305.05 52.51,-111.91 90,-64 131.66,-10.75 160.39,0 228,0 228,0 228,0 890.5,0 1081.86,0 1121.24,-321.51 1128.8,-419.8"/>
<polygon fill="black" stroke="black" stroke-width="1.2" points="1125.32,-420.16 1129.53,-429.88 1132.3,-419.66 1125.32,-420.16"/>
</g>
<!-- mnt_comp2 -->
<g id="node11" class="node">
<title>mnt_comp2</title>
<path fill="white" stroke="black" d="M799,-300C799,-300 725,-300 725,-300 719,-300 713,-294 713,-288 713,-288 713,-276 713,-276 713,-270 719,-264 725,-264 725,-264 799,-264 799,-264 805,-264 811,-270 811,-276 811,-276 811,-288 811,-288 811,-294 805,-300 799,-300"/>
<text text-anchor="middle" x="762" y="-278.3" font-family="Helvetica,sans-Serif" font-size="14.00">mnt_comp2</text>
</g>
<!-- volt&#45;&gt;mnt_comp2 -->
<g id="edge9" class="edge">
<title>volt&#45;&gt;mnt_comp2</title>
<path fill="none" stroke="black" stroke-width="1.2" d="M36.81,-365.87C47.52,-344.95 67.05,-310.18 90,-285 169.47,-197.82 197.24,-169.23 311,-138 470.24,-94.29 540.73,-108.72 677,-202 699.77,-217.59 722.23,-239.4 738.19,-256.32"/>
<polygon fill="black" stroke="black" stroke-width="1.2" points="735.67,-258.76 745.04,-263.71 740.8,-254 735.67,-258.76"/>
</g>
<!-- mnt_comp3 -->
<g id="node12" class="node">
<title>mnt_comp3</title>
<path fill="white" stroke="black" d="M665,-444C665,-444 591,-444 591,-444 585,-444 579,-438 579,-432 579,-432 579,-420 579,-420 579,-414 585,-408 591,-408 591,-408 665,-408 665,-408 671,-408 677,-414 677,-420 677,-420 677,-432 677,-432 677,-438 671,-444 665,-444"/>
<text text-anchor="middle" x="628" y="-422.3" font-family="Helvetica,sans-Serif" font-size="14.00">mnt_comp3</text>
</g>
<!-- volt&#45;&gt;mnt_comp3 -->
<g id="edge10" class="edge">
<title>volt&#45;&gt;mnt_comp3</title>
<path fill="none" stroke="black" stroke-width="1.2" d="M33.7,-365.8C52.09,-311.1 115.26,-152 228,-152 228,-152 228,-152 361,-152 442.33,-152 479.67,-119.97 543,-171 613.11,-227.5 625.24,-343.95 626.97,-397.69"/>
<polygon fill="black" stroke="black" stroke-width="1.2" points="623.48,-397.94 627.2,-407.86 630.48,-397.78 623.48,-397.94"/>
</g>
<!-- fail_comp1 -->
<g id="node14" class="node">
<title>fail_comp1</title>
<path fill="white" stroke="black" d="M263,-379C263,-379 195,-379 195,-379 189,-379 183,-373 183,-367 183,-367 183,-355 183,-355 183,-349 189,-343 195,-343 195,-343 263,-343 263,-343 269,-343 275,-349 275,-355 275,-355 275,-367 275,-367 275,-373 269,-379 263,-379"/>
<text text-anchor="middle" x="229" y="-357.3" font-family="Helvetica,sans-Serif" font-size="14.00">fail_comp1</text>
</g>
<!-- volt&#45;&gt;fail_comp1 -->
<g id="edge12" class="edge">
<title>volt&#45;&gt;fail_comp1</title>
<path fill="none" stroke="black" stroke-width="1.2" d="M64.34,-379.82C94.61,-376.34 138.19,-371.33 172.77,-367.35"/>
<polygon fill="black" stroke="black" stroke-width="1.2" points="63.68,-376.37 54.15,-380.99 64.48,-383.33 63.68,-376.37"/>
<polygon fill="black" stroke="black" stroke-width="1.2" points="173.19,-370.83 182.73,-366.21 172.39,-363.87 173.19,-370.83"/>
</g>
<!-- rotate&#45;&gt;vibration -->
<g id="edge13" class="edge">
<title>rotate&#45;&gt;vibration</title>
<path fill="none" stroke="black" stroke-width="1.2" d="M144.66,-426.09C159.35,-436.65 178.07,-450.1 194.05,-461.59"/>
<polygon fill="black" stroke="black" stroke-width="1.2" points="192.43,-464.74 202.6,-467.74 196.52,-459.06 192.43,-464.74"/>
</g>
<!-- rotate&#45;&gt;err_error1 -->
<g id="edge14" class="edge">
<title>rotate&#45;&gt;err_error1</title>
<path fill="none" stroke="black" stroke-width="1.2" d="M123.32,-436.22C131.64,-493.74 153.11,-621.76 183,-653 215.32,-686.78 268.16,-699.59 307.53,-704.36"/>
<polygon fill="black" stroke="black" stroke-width="1.2" points="126.74,-435.43 121.87,-426.02 119.81,-436.41 126.74,-435.43"/>
<polygon fill="black" stroke="black" stroke-width="1.2" points="307.16,-707.84 317.48,-705.43 307.91,-700.88 307.16,-707.84"/>
</g>
<!-- err_error2 -->
<g id="node6" class="node">
<title>err_error2</title>
<path fill="white" stroke="black" d="M920,-324C920,-324 859,-324 859,-324 853,-324 847,-318 847,-312 847,-312 847,-300 847,-300 847,-294 853,-288 859,-288 859,-288 920,-288 920,-288 926,-288 932,-294 932,-300 932,-300 932,-312 932,-312 932,-318 926,-324 920,-324"/>
<text text-anchor="middle" x="889.5" y="-302.3" font-family="Helvetica,sans-Serif" font-size="14.00">err_error2</text>
</g>
<!-- rotate&#45;&gt;err_error2 -->
<g id="edge15" class="edge">
<title>rotate&#45;&gt;err_error2</title>
<path fill="none" stroke="black" stroke-width="1.2" d="M125.7,-389.99C135.04,-364.88 154.68,-318.95 183,-288 269.1,-193.92 318.46,-186.8 445,-171 610.61,-150.32 662.91,-178.03 811,-255 826.12,-262.86 841.99,-272.94 855.39,-282.05"/>
<polygon fill="black" stroke="black" stroke-width="1.2" points="853.6,-285.07 863.82,-287.87 857.58,-279.31 853.6,-285.07"/>
</g>
<!-- fail_comp2 -->
<g id="node15" class="node">
<title>fail_comp2</title>
<path fill="white" stroke="black" d="M394,-292C394,-292 326,-292 326,-292 320,-292 314,-286 314,-280 314,-280 314,-268 314,-268 314,-262 320,-256 326,-256 326,-256 394,-256 394,-256 400,-256 406,-262 406,-268 406,-268 406,-280 406,-280 406,-286 400,-292 394,-292"/>
<text text-anchor="middle" x="360" y="-270.3" font-family="Helvetica,sans-Serif" font-size="14.00">fail_comp2</text>
</g>
<!-- rotate&#45;&gt;fail_comp2 -->
<g id="edge17" class="edge">
<title>rotate&#45;&gt;fail_comp2</title>
<path fill="none" stroke="black" stroke-width="1.2" d="M130.99,-389.72C142.33,-373.04 161.13,-348.8 183,-334 219.53,-309.27 267.21,-293.85 303.73,-284.84"/>
<polygon fill="black" stroke="black" stroke-width="1.2" points="304.79,-288.18 313.71,-282.47 303.18,-281.37 304.79,-288.18"/>
</g>
<!-- pressure&#45;&gt;vibration -->
<g id="edge19" class="edge">
<title>pressure&#45;&gt;vibration</title>
<path fill="none" stroke="black" stroke-width="1.2" d="M445.34,-550.66C408.16,-545.71 355.53,-536.97 311,-523 298.66,-519.13 285.74,-513.84 273.93,-508.47"/>
<polygon fill="black" stroke="black" stroke-width="1.2" points="445.03,-554.15 455.4,-551.96 445.93,-547.21 445.03,-554.15"/>
<polygon fill="black" stroke="black" stroke-width="1.2" points="275.27,-505.23 264.73,-504.17 272.31,-511.58 275.27,-505.23"/>
</g>
<!-- pressure&#45;&gt;err_error4 -->
<g id="edge20" class="edge">
<title>pressure&#45;&gt;err_error4</title>
<path fill="none" stroke="black" stroke-width="1.2" d="M532.65,-564.06C609.35,-578.97 788.58,-606.02 932,-568 998.95,-550.25 1065.54,-502.19 1102.03,-472.55"/>
<polygon fill="black" stroke="black" stroke-width="1.2" points="1104.29,-475.23 1109.78,-466.17 1099.84,-469.82 1104.29,-475.23"/>
</g>
<!-- err_error5 -->
<g id="node9" class="node">
<title>err_error5</title>
<path fill="white" stroke="black" d="M658.5,-656C658.5,-656 597.5,-656 597.5,-656 591.5,-656 585.5,-650 585.5,-644 585.5,-644 585.5,-632 585.5,-632 585.5,-626 591.5,-620 597.5,-620 597.5,-620 658.5,-620 658.5,-620 664.5,-620 670.5,-626 670.5,-632 670.5,-632 670.5,-644 670.5,-644 670.5,-650 664.5,-656 658.5,-656"/>
<text text-anchor="middle" x="628" y="-634.3" font-family="Helvetica,sans-Serif" font-size="14.00">err_error5</text>
</g>
<!-- pressure&#45;&gt;err_error5 -->
<g id="edge21" class="edge">
<title>pressure&#45;&gt;err_error5</title>
<path fill="none" stroke="black" stroke-width="1.2" d="M532.84,-579.5C550.42,-590.43 571.29,-603.39 588.91,-614.34"/>
<polygon fill="black" stroke="black" stroke-width="1.2" points="534.64,-576.5 524.3,-574.2 530.94,-582.45 534.64,-576.5"/>
<polygon fill="black" stroke="black" stroke-width="1.2" points="587.45,-617.55 597.79,-619.85 591.14,-611.6 587.45,-617.55"/>
</g>
<!-- pressure&#45;&gt;mnt_comp3 -->
<g id="edge23" class="edge">
<title>pressure&#45;&gt;mnt_comp3</title>
<path fill="none" stroke="black" stroke-width="1.2" d="M524.88,-537.93C531.1,-533.66 537.45,-528.92 543,-524 567.62,-502.19 591.62,-473.17 607.62,-452.38"/>
<polygon fill="black" stroke="black" stroke-width="1.2" points="610.5,-454.38 613.76,-444.3 604.92,-450.15 610.5,-454.38"/>
</g>
<!-- vibration&#45;&gt;err_error1 -->
<g id="edge26" class="edge">
<title>vibration&#45;&gt;err_error1</title>
<path fill="none" stroke="black" stroke-width="1.2" d="M243.47,-513.21C258.88,-543.83 285.32,-594.81 311,-637 319.96,-651.73 330.76,-667.61 339.84,-680.53"/>
<polygon fill="black" stroke="black" stroke-width="1.2" points="246.47,-511.39 238.86,-504.02 240.21,-514.53 246.47,-511.39"/>
<polygon fill="black" stroke="black" stroke-width="1.2" points="337.17,-682.81 345.81,-688.94 342.88,-678.76 337.17,-682.81"/>
</g>
<!-- vibration&#45;&gt;err_error5 -->
<g id="edge28" class="edge">
<title>vibration&#45;&gt;err_error5</title>
<path fill="none" stroke="black" stroke-width="1.2" d="M241.56,-513.26C254.39,-539.88 277.76,-579.19 311,-599 393.25,-648.03 508.89,-648.56 575.06,-643.78"/>
<polygon fill="black" stroke="black" stroke-width="1.2" points="244.69,-511.69 237.31,-504.08 238.34,-514.63 244.69,-511.69"/>
<polygon fill="black" stroke="black" stroke-width="1.2" points="575.55,-647.25 585.24,-642.98 575,-640.28 575.55,-647.25"/>
</g>
<!-- mnt_comp1 -->
<g id="node10" class="node">
<title>mnt_comp1</title>
<path fill="white" stroke="black" d="M397,-481C397,-481 323,-481 323,-481 317,-481 311,-475 311,-469 311,-469 311,-457 311,-457 311,-451 317,-445 323,-445 323,-445 397,-445 397,-445 403,-445 409,-451 409,-457 409,-457 409,-469 409,-469 409,-475 403,-481 397,-481"/>
<text text-anchor="middle" x="360" y="-459.3" font-family="Helvetica,sans-Serif" font-size="14.00">mnt_comp1</text>
</g>
<!-- vibration&#45;&gt;mnt_comp1 -->
<g id="edge29" class="edge">
<title>vibration&#45;&gt;mnt_comp1</title>
<path fill="none" stroke="black" stroke-width="1.2" d="M268.01,-479.22C278.25,-477.4 289.57,-475.38 300.65,-473.4"/>
<polygon fill="black" stroke="black" stroke-width="1.2" points="301.48,-476.81 310.71,-471.61 300.25,-469.92 301.48,-476.81"/>
</g>
<!-- vibration&#45;&gt;mnt_comp2 -->
<g id="edge30" class="edge">
<title>vibration&#45;&gt;mnt_comp2</title>
<path fill="none" stroke="black" stroke-width="1.2" d="M239.03,-467.69C251.74,-443.91 277.17,-402.88 311,-381 434.21,-301.32 611.89,-285 702.72,-282.15"/>
<polygon fill="black" stroke="black" stroke-width="1.2" points="702.93,-285.64 712.83,-281.87 702.74,-278.64 702.93,-285.64"/>
</g>
<!-- vibration&#45;&gt;mnt_comp3 -->
<g id="edge31" class="edge">
<title>vibration&#45;&gt;mnt_comp3</title>
<path fill="none" stroke="black" stroke-width="1.2" d="M278.38,-488.78C289.11,-489.29 300.44,-489.74 311,-490 354.54,-491.07 365.74,-495.09 409,-490 469.81,-482.84 484.49,-476.05 543,-458 552.94,-454.93 563.41,-451.29 573.45,-447.58"/>
<polygon fill="black" stroke="black" stroke-width="1.2" points="278.47,-485.28 268.31,-488.28 278.12,-492.27 278.47,-485.28"/>
<polygon fill="black" stroke="black" stroke-width="1.2" points="574.78,-450.82 582.91,-444.03 572.32,-444.27 574.78,-450.82"/>
</g>
<!-- fail_comp4 -->
<g id="node16" class="node">
<title>fail_comp4</title>
<path fill="white" stroke="black" d="M394,-426C394,-426 326,-426 326,-426 320,-426 314,-420 314,-414 314,-414 314,-402 314,-402 314,-396 320,-390 326,-390 326,-390 394,-390 394,-390 400,-390 406,-396 406,-402 406,-402 406,-414 406,-414 406,-420 400,-426 394,-426"/>
<text text-anchor="middle" x="360" y="-404.3" font-family="Helvetica,sans-Serif" font-size="14.00">fail_comp4</text>
</g>
<!-- vibration&#45;&gt;fail_comp4 -->
<g id="edge32" class="edge">
<title>vibration&#45;&gt;fail_comp4</title>
<path fill="none" stroke="black" stroke-width="1.2" d="M267.76,-462.42C281.35,-454.01 296.82,-444.51 311,-436 313.6,-434.44 316.29,-432.83 319.01,-431.23"/>
<polygon fill="black" stroke="black" stroke-width="1.2" points="265.79,-459.53 259.14,-467.77 269.48,-465.47 265.79,-459.53"/>
<polygon fill="black" stroke="black" stroke-width="1.2" points="320.85,-434.2 327.69,-426.11 317.3,-428.17 320.85,-434.2"/>
</g>
<!-- err_error2&#45;&gt;volt -->
<g id="edge5" class="edge">
<title>err_error2&#45;&gt;volt</title>
<path fill="none" stroke="black" stroke-width="1.2" d="M881.55,-288C857.05,-227.91 768.57,-38 629,-38 228,-38 228,-38 228,-38 81.58,-38 40.65,-273.11 30.79,-355.72"/>
<polygon fill="black" stroke="black" stroke-width="1.2" points="27.29,-355.56 29.65,-365.88 34.24,-356.34 27.29,-355.56"/>
</g>
<!-- err_error2&#45;&gt;err_error3 -->
<g id="edge33" class="edge">
<title>err_error2&#45;&gt;err_error3</title>
<path fill="none" stroke="black" stroke-width="1.2" d="M903.46,-324.08C924.47,-353.39 966.08,-411.42 990.46,-445.44"/>
<polygon fill="black" stroke="black" stroke-width="1.2" points="987.88,-447.85 996.55,-453.94 993.57,-443.77 987.88,-447.85"/>
</g>
<!-- err_error2&#45;&gt;err_error4 -->
<g id="edge34" class="edge">
<title>err_error2&#45;&gt;err_error4</title>
<path fill="none" stroke="black" stroke-width="1.2" d="M921.38,-324.27C964.68,-349.89 1043.42,-396.48 1090.95,-424.6"/>
<polygon fill="black" stroke="black" stroke-width="1.2" points="1089.35,-427.72 1099.73,-429.8 1092.91,-421.69 1089.35,-427.72"/>
</g>
<!-- err_error3&#45;&gt;rotate -->
<g id="edge16" class="edge">
<title>err_error3&#45;&gt;rotate</title>
<path fill="none" stroke="black" stroke-width="1.2" d="M986.52,-490.17C967.8,-504.85 942.77,-524.14 932,-531 824.02,-599.79 801.3,-634.33 677,-665 576.83,-689.72 547.36,-669.93 445,-657 384.81,-649.4 365.14,-658.38 311,-631 241.95,-596.08 231.95,-572.92 183,-513 163.04,-488.57 144.93,-457.27 133.2,-435.22"/>
<polygon fill="black" stroke="black" stroke-width="1.2" points="136.16,-433.33 128.43,-426.09 129.96,-436.58 136.16,-433.33"/>
</g>
<!-- err_error3&#45;&gt;vibration -->
<g id="edge27" class="edge">
<title>err_error3&#45;&gt;vibration</title>
<path fill="none" stroke="black" stroke-width="1.2" d="M967.68,-489.68C874.48,-527 642.39,-608.35 445,-583 383.95,-575.16 366.31,-575.02 311,-548 291.4,-538.42 271.91,-523.71 256.96,-511.02"/>
<polygon fill="black" stroke="black" stroke-width="1.2" points="258.99,-508.14 249.15,-504.22 254.39,-513.42 258.99,-508.14"/>
</g>
<!-- err_error3&#45;&gt;err_error4 -->
<g id="edge37" class="edge">
<title>err_error3&#45;&gt;err_error4</title>
<path fill="none" stroke="black" stroke-width="1.2" d="M1053.12,-463.61C1061.41,-461.93 1070.2,-460.16 1078.78,-458.43"/>
<polygon fill="black" stroke="black" stroke-width="1.2" points="1079.59,-461.84 1088.7,-456.43 1078.21,-454.98 1079.59,-461.84"/>
</g>
<!-- err_error3&#45;&gt;mnt_comp1 -->
<g id="edge38" class="edge">
<title>err_error3&#45;&gt;mnt_comp1</title>
<path fill="none" stroke="black" stroke-width="1.2" d="M967.63,-472C918.59,-472 834.9,-472 763,-472 627,-472 627,-472 627,-472 555.37,-472 472.96,-468.7 419.09,-466.1"/>
<polygon fill="black" stroke="black" stroke-width="1.2" points="419.2,-462.6 409.04,-465.6 418.85,-469.59 419.2,-462.6"/>
</g>
<!-- err_error3&#45;&gt;mnt_comp3 -->
<g id="edge39" class="edge">
<title>err_error3&#45;&gt;mnt_comp3</title>
<path fill="none" stroke="black" stroke-width="1.2" d="M967.76,-463.88C956.21,-461.79 943.64,-459.66 932,-458 847.23,-445.88 748.51,-436.29 687.37,-430.88"/>
<polygon fill="black" stroke="black" stroke-width="1.2" points="687.42,-427.37 677.15,-429.99 686.81,-434.35 687.42,-427.37"/>
</g>
<!-- err_error5&#45;&gt;volt -->
<g id="edge8" class="edge">
<title>err_error5&#45;&gt;volt</title>
<path fill="none" stroke="black" stroke-width="1.2" d="M610.27,-656.15C570.99,-696.68 468.08,-791 361,-791 228,-791 228,-791 228,-791 58.91,-791 32.77,-504.54 28.73,-412.27"/>
<polygon fill="black" stroke="black" stroke-width="1.2" points="32.22,-411.87 28.34,-402.01 25.23,-412.14 32.22,-411.87"/>
</g>
<!-- mnt_comp1&#45;&gt;pressure -->
<g id="edge22" class="edge">
<title>mnt_comp1&#45;&gt;pressure</title>
<path fill="none" stroke="black" stroke-width="1.2" d="M386.76,-481.15C407.39,-495.68 436.49,-516.19 459.02,-532.06"/>
<polygon fill="black" stroke="black" stroke-width="1.2" points="457.11,-535 467.3,-537.89 461.14,-529.27 457.11,-535"/>
</g>
<!-- mnt_comp1&#45;&gt;mnt_comp2 -->
<g id="edge40" class="edge">
<title>mnt_comp1&#45;&gt;mnt_comp2</title>
<path fill="none" stroke="black" stroke-width="1.2" d="M400.82,-444.98C474.4,-411.69 631.46,-340.62 711.66,-304.33"/>
<polygon fill="black" stroke="black" stroke-width="1.2" points="713.38,-307.39 721.05,-300.08 710.5,-301.01 713.38,-307.39"/>
</g>
<!-- mnt_comp1&#45;&gt;mnt_comp3 -->
<g id="edge41" class="edge">
<title>mnt_comp1&#45;&gt;mnt_comp3</title>
<path fill="none" stroke="black" stroke-width="1.2" d="M409.17,-456.3C453.94,-450.07 520.73,-440.78 568.54,-434.13"/>
<polygon fill="black" stroke="black" stroke-width="1.2" points="569.32,-437.56 578.74,-432.71 568.35,-430.62 569.32,-437.56"/>
</g>
<!-- mnt_comp2&#45;&gt;err_error2 -->
<g id="edge35" class="edge">
<title>mnt_comp2&#45;&gt;err_error2</title>
<path fill="none" stroke="black" stroke-width="1.2" d="M811.16,-291.21C819.61,-292.83 828.43,-294.51 836.96,-296.14"/>
<polygon fill="black" stroke="black" stroke-width="1.2" points="836.33,-299.59 846.81,-298.03 837.64,-292.71 836.33,-299.59"/>
</g>
<!-- mnt_comp3&#45;&gt;err_error2 -->
<g id="edge36" class="edge">
<title>mnt_comp3&#45;&gt;err_error2</title>
<path fill="none" stroke="black" stroke-width="1.2" d="M668.13,-407.9C714.15,-386.62 790.56,-351.29 840.22,-328.32"/>
<polygon fill="black" stroke="black" stroke-width="1.2" points="841.87,-331.42 849.48,-324.05 838.93,-325.07 841.87,-331.42"/>
</g>
<!-- mnt_comp3&#45;&gt;mnt_comp2 -->
<g id="edge43" class="edge">
<title>mnt_comp3&#45;&gt;mnt_comp2</title>
<path fill="none" stroke="black" stroke-width="1.2" d="M659.63,-407.85C665.67,-403.65 671.76,-398.96 677,-394 677.12,-393.89 716.07,-341.94 740.88,-308.84"/>
<polygon fill="black" stroke="black" stroke-width="1.2" points="743.96,-310.57 747.16,-300.47 738.36,-306.37 743.96,-310.57"/>
</g>
<!-- mnt_comp4 -->
<g id="node13" class="node">
<title>mnt_comp4</title>
<path fill="white" stroke="black" d="M531,-216C531,-216 457,-216 457,-216 451,-216 445,-210 445,-204 445,-204 445,-192 445,-192 445,-186 451,-180 457,-180 457,-180 531,-180 531,-180 537,-180 543,-186 543,-192 543,-192 543,-204 543,-204 543,-210 537,-216 531,-216"/>
<text text-anchor="middle" x="494" y="-194.3" font-family="Helvetica,sans-Serif" font-size="14.00">mnt_comp4</text>
</g>
<!-- mnt_comp4&#45;&gt;volt -->
<g id="edge11" class="edge">
<title>mnt_comp4&#45;&gt;volt</title>
<path fill="none" stroke="black" stroke-width="1.2" d="M444.72,-193.13C407.36,-190.96 354.79,-191.4 311,-205 207.09,-237.28 103.84,-318.05 55.84,-359.14"/>
<polygon fill="black" stroke="black" stroke-width="1.2" points="53.34,-356.67 48.07,-365.86 57.92,-361.96 53.34,-356.67"/>
</g>
<!-- mnt_comp4&#45;&gt;mnt_comp2 -->
<g id="edge44" class="edge">
<title>mnt_comp4&#45;&gt;mnt_comp2</title>
<path fill="none" stroke="black" stroke-width="1.2" d="M543.07,-201.45C580.55,-205.31 633.38,-213.37 677,-230 695.22,-236.95 713.82,-247.98 728.88,-258.1"/>
<polygon fill="black" stroke="black" stroke-width="1.2" points="727.08,-261.11 737.3,-263.91 731.06,-255.35 727.08,-261.11"/>
</g>
<!-- fail_comp1&#45;&gt;mnt_comp1 -->
<g id="edge42" class="edge">
<title>fail_comp1&#45;&gt;mnt_comp1</title>
<path fill="none" stroke="black" stroke-width="1.2" d="M247.7,-379.22C263.49,-394.97 287.68,-417.85 311,-435 313.04,-436.5 315.17,-437.99 317.34,-439.45"/>
<polygon fill="black" stroke="black" stroke-width="1.2" points="315.57,-442.47 325.87,-444.92 319.35,-436.58 315.57,-442.47"/>
</g>
<!-- fail_comp1&#45;&gt;mnt_comp3 -->
<g id="edge46" class="edge">
<title>fail_comp1&#45;&gt;mnt_comp3</title>
<path fill="none" stroke="black" stroke-width="1.2" d="M275.03,-364.87C311.32,-368.27 363.6,-373.79 409,-381 463.53,-389.66 525.09,-402.67 568.86,-412.47"/>
<polygon fill="black" stroke="black" stroke-width="1.2" points="568.22,-415.92 578.75,-414.7 569.76,-409.09 568.22,-415.92"/>
</g>
<!-- fail_comp1&#45;&gt;mnt_comp4 -->
<g id="edge48" class="edge">
<title>fail_comp1&#45;&gt;mnt_comp4</title>
<path fill="none" stroke="black" stroke-width="1.2" d="M238.1,-342.58C250.22,-317.16 275.53,-271.69 311,-247 347.61,-221.52 396.84,-209.28 434.86,-203.41"/>
<polygon fill="black" stroke="black" stroke-width="1.2" points="435.37,-206.87 444.77,-201.98 434.38,-199.94 435.37,-206.87"/>
</g>
<!-- fail_comp2&#45;&gt;pressure -->
<g id="edge24" class="edge">
<title>fail_comp2&#45;&gt;pressure</title>
<path fill="none" stroke="black" stroke-width="1.2" d="M369.46,-292.07C391.94,-340.1 453.3,-471.2 480.14,-528.54"/>
<polygon fill="black" stroke="black" stroke-width="1.2" points="477.03,-530.14 484.44,-537.72 483.37,-527.18 477.03,-530.14"/>
</g>
<!-- fail_comp2&#45;&gt;mnt_comp2 -->
<g id="edge45" class="edge">
<title>fail_comp2&#45;&gt;mnt_comp2</title>
<path fill="none" stroke="black" stroke-width="1.2" d="M406.09,-270.27C467.49,-265.86 580.76,-260.03 677,-268 685.37,-268.69 694.15,-269.77 702.76,-271.02"/>
<polygon fill="black" stroke="black" stroke-width="1.2" points="702.34,-274.49 712.75,-272.56 703.4,-267.58 702.34,-274.49"/>
</g>
<!-- fail_comp2&#45;&gt;mnt_comp4 -->
<g id="edge49" class="edge">
<title>fail_comp2&#45;&gt;mnt_comp4</title>
<path fill="none" stroke="black" stroke-width="1.2" d="M392.28,-255.99C410.32,-245.61 433.18,-232.44 452.57,-221.28"/>
<polygon fill="black" stroke="black" stroke-width="1.2" points="454.57,-224.17 461.48,-216.15 451.07,-218.1 454.57,-224.17"/>
</g>
<!-- fail_comp4&#45;&gt;rotate -->
<g id="edge18" class="edge">
<title>fail_comp4&#45;&gt;rotate</title>
<path fill="none" stroke="black" stroke-width="1.2" d="M313.69,-408C268.56,-408 200.06,-408 157.64,-408"/>
<polygon fill="black" stroke="black" stroke-width="1.2" points="157.44,-404.5 147.44,-408 157.44,-411.5 157.44,-404.5"/>
</g>
<!-- fail_comp4&#45;&gt;pressure -->
<g id="edge25" class="edge">
<title>fail_comp4&#45;&gt;pressure</title>
<path fill="none" stroke="black" stroke-width="1.2" d="M396.33,-426.2C400.82,-429.19 405.17,-432.47 409,-436 438.66,-463.3 463.8,-502.81 478.64,-528.93"/>
<polygon fill="black" stroke="black" stroke-width="1.2" points="475.71,-530.87 483.63,-537.91 481.83,-527.47 475.71,-530.87"/>
</g>
<!-- fail_comp4&#45;&gt;mnt_comp3 -->
<g id="edge47" class="edge">
<title>fail_comp4&#45;&gt;mnt_comp3</title>
<path fill="none" stroke="black" stroke-width="1.2" d="M406.26,-410.91C443.08,-413.3 496.4,-416.8 543,-420 551.28,-420.57 560.02,-421.18 568.61,-421.79"/>
<polygon fill="black" stroke="black" stroke-width="1.2" points="568.36,-425.28 578.59,-422.5 568.86,-418.3 568.36,-425.28"/>
</g>
<!-- fail_comp4&#45;&gt;mnt_comp4 -->
<g id="edge50" class="edge">
<title>fail_comp4&#45;&gt;mnt_comp4</title>
<path fill="none" stroke="black" stroke-width="1.2" d="M372.48,-389.73C395.85,-352.56 449.01,-267.99 476.24,-224.66"/>
<polygon fill="black" stroke="black" stroke-width="1.2" points="479.28,-226.41 481.64,-216.08 473.35,-222.68 479.28,-226.41"/>
</g>
</g>
</svg>
