<?xml version="1.0" encoding="UTF-8" standalone="no"?>
<!DOCTYPE svg PUBLIC "-//W3C//DTD SVG 1.1//EN"
 "http://www.w3.org/Graphics/SVG/1.1/DTD/svg11.dtd">
<!-- Generated by graphviz version 2.50.0 (0)
 -->
<!-- Title: G Pages: 1 -->
<svg width="454pt" height="178pt"
 viewBox="0.00 0.00 454.00 178.00" xmlns="http://www.w3.org/2000/svg" xmlns:xlink="http://www.w3.org/1999/xlink">
<g id="graph0" class="graph" transform="scale(1 1) rotate(0) translate(4 174)">
<title>G</title>
<polygon fill="white" stroke="transparent" points="-4,4 -4,-174 450,-174 450,4 -4,4"/>
<text text-anchor="middle" x="223" y="-153.2" font-family="Times,serif" font-size="16.00">model=model3/cbnb_w_telemetry.json [machine 89]</text>
<!-- volt -->
<g id="node1" class="node">
<title>volt</title>
<path fill="white" stroke="black" d="M181,-36C181,-36 151,-36 151,-36 145,-36 139,-30 139,-24 139,-24 139,-12 139,-12 139,-6 145,0 151,0 151,0 181,0 181,0 187,0 193,-6 193,-12 193,-12 193,-24 193,-24 193,-30 187,-36 181,-36"/>
<text text-anchor="middle" x="166" y="-14.3" font-family="Helvetica,sans-Serif" font-size="14.00">volt</text>
</g>
<!-- rotate -->
<g id="node2" class="node">
<title>rotate</title>
<path fill="white" stroke="black" d="M182.5,-90C182.5,-90 149.5,-90 149.5,-90 143.5,-90 137.5,-84 137.5,-78 137.5,-78 137.5,-66 137.5,-66 137.5,-60 143.5,-54 149.5,-54 149.5,-54 182.5,-54 182.5,-54 188.5,-54 194.5,-60 194.5,-66 194.5,-66 194.5,-78 194.5,-78 194.5,-84 188.5,-90 182.5,-90"/>
<text text-anchor="middle" x="166" y="-68.3" font-family="Helvetica,sans-Serif" font-size="14.00">rotate</text>
</g>
<!-- pressure -->
<g id="node3" class="node">
<title>pressure</title>
<path fill="white" stroke="black" d="M192.5,-144C192.5,-144 139.5,-144 139.5,-144 133.5,-144 127.5,-138 127.5,-132 127.5,-132 127.5,-120 127.5,-120 127.5,-114 133.5,-108 139.5,-108 139.5,-108 192.5,-108 192.5,-108 198.5,-108 204.5,-114 204.5,-120 204.5,-120 204.5,-132 204.5,-132 204.5,-138 198.5,-144 192.5,-144"/>
<text text-anchor="middle" x="166" y="-122.3" font-family="Helvetica,sans-Serif" font-size="14.00">pressure</text>
</g>
<!-- vibration -->
<g id="node4" class="node">
<title>vibration</title>
<path fill="white" stroke="black" d="M306.5,-144C306.5,-144 252.5,-144 252.5,-144 246.5,-144 240.5,-138 240.5,-132 240.5,-132 240.5,-120 240.5,-120 240.5,-114 246.5,-108 252.5,-108 252.5,-108 306.5,-108 306.5,-108 312.5,-108 318.5,-114 318.5,-120 318.5,-120 318.5,-132 318.5,-132 318.5,-138 312.5,-144 306.5,-144"/>
<text text-anchor="middle" x="279.5" y="-122.3" font-family="Helvetica,sans-Serif" font-size="14.00">vibration</text>
</g>
<!-- pressure&#45;&gt;vibration -->
<g id="edge1" class="edge">
<title>pressure&#45;&gt;vibration</title>
<path fill="none" stroke="black" stroke-width="1.2" d="M214.95,-126C220.01,-126 225.15,-126 230.2,-126"/>
<polygon fill="black" stroke="black" stroke-width="1.2" points="214.75,-122.5 204.75,-126 214.75,-129.5 214.75,-122.5"/>
<polygon fill="black" stroke="black" stroke-width="1.2" points="230.41,-129.5 240.41,-126 230.41,-122.5 230.41,-129.5"/>
</g>
</g>
</svg>
