<?xml version="1.0" encoding="UTF-8" standalone="no"?>
<!DOCTYPE svg PUBLIC "-//W3C//DTD SVG 1.1//EN"
 "http://www.w3.org/Graphics/SVG/1.1/DTD/svg11.dtd">
<!-- Generated by graphviz version 2.50.0 (0)
 -->
<!-- Title: G Pages: 1 -->
<svg width="451pt" height="124pt"
 viewBox="0.00 0.00 451.00 124.00" xmlns="http://www.w3.org/2000/svg" xmlns:xlink="http://www.w3.org/1999/xlink">
<g id="graph0" class="graph" transform="scale(1 1) rotate(0) translate(4 120)">
<title>G</title>
<polygon fill="white" stroke="transparent" points="-4,4 -4,-120 447,-120 447,4 -4,4"/>
<text text-anchor="middle" x="221.5" y="-99.2" font-family="Times,serif" font-size="16.00">model=model4/cbnb_e_telemetry.json [machine 83]</text>
<!-- volt -->
<g id="node1" class="node">
<title>volt</title>
<path fill="white" stroke="black" d="M180,-36C180,-36 150,-36 150,-36 144,-36 138,-30 138,-24 138,-24 138,-12 138,-12 138,-6 144,0 150,0 150,0 180,0 180,0 186,0 192,-6 192,-12 192,-12 192,-24 192,-24 192,-30 186,-36 180,-36"/>
<text text-anchor="middle" x="165" y="-14.3" font-family="Helvetica,sans-Serif" font-size="14.00">volt</text>
</g>
<!-- rotate -->
<g id="node2" class="node">
<title>rotate</title>
<path fill="white" stroke="black" d="M295,-36C295,-36 262,-36 262,-36 256,-36 250,-30 250,-24 250,-24 250,-12 250,-12 250,-6 256,0 262,0 262,0 295,0 295,0 301,0 307,-6 307,-12 307,-12 307,-24 307,-24 307,-30 301,-36 295,-36"/>
<text text-anchor="middle" x="278.5" y="-14.3" font-family="Helvetica,sans-Serif" font-size="14.00">rotate</text>
</g>
<!-- volt&#45;&gt;rotate -->
<g id="edge1" class="edge">
<title>volt&#45;&gt;rotate</title>
<path fill="none" stroke="black" stroke-width="1.2" d="M202.42,-18C214.38,-18 227.7,-18 239.76,-18"/>
<polygon fill="black" stroke="black" stroke-width="1.2" points="202.14,-14.5 192.14,-18 202.14,-21.5 202.14,-14.5"/>
<polygon fill="black" stroke="black" stroke-width="1.2" points="239.97,-21.5 249.97,-18 239.97,-14.5 239.97,-21.5"/>
</g>
<!-- pressure -->
<g id="node3" class="node">
<title>pressure</title>
<path fill="white" stroke="black" d="M305,-90C305,-90 252,-90 252,-90 246,-90 240,-84 240,-78 240,-78 240,-66 240,-66 240,-60 246,-54 252,-54 252,-54 305,-54 305,-54 311,-54 317,-60 317,-66 317,-66 317,-78 317,-78 317,-84 311,-90 305,-90"/>
<text text-anchor="middle" x="278.5" y="-68.3" font-family="Helvetica,sans-Serif" font-size="14.00">pressure</text>
</g>
<!-- vibration -->
<g id="node4" class="node">
<title>vibration</title>
<path fill="white" stroke="black" d="M192,-90C192,-90 138,-90 138,-90 132,-90 126,-84 126,-78 126,-78 126,-66 126,-66 126,-60 132,-54 138,-54 138,-54 192,-54 192,-54 198,-54 204,-60 204,-66 204,-66 204,-78 204,-78 204,-84 198,-90 192,-90"/>
<text text-anchor="middle" x="165" y="-68.3" font-family="Helvetica,sans-Serif" font-size="14.00">vibration</text>
</g>
<!-- vibration&#45;&gt;pressure -->
<g id="edge2" class="edge">
<title>vibration&#45;&gt;pressure</title>
<path fill="none" stroke="black" stroke-width="1.2" d="M204.06,-72C212.31,-72 221.14,-72 229.72,-72"/>
<polygon fill="black" stroke="black" stroke-width="1.2" points="229.99,-75.5 239.99,-72 229.99,-68.5 229.99,-75.5"/>
</g>
</g>
</svg>
