<?xml version="1.0" encoding="UTF-8" standalone="no"?>
<!DOCTYPE svg PUBLIC "-//W3C//DTD SVG 1.1//EN"
 "http://www.w3.org/Graphics/SVG/1.1/DTD/svg11.dtd">
<!-- Generated by graphviz version 2.50.0 (0)
 -->
<!-- Title: G Pages: 1 -->
<svg width="454pt" height="178pt"
 viewBox="0.00 0.00 454.00 178.00" xmlns="http://www.w3.org/2000/svg" xmlns:xlink="http://www.w3.org/1999/xlink">
<g id="graph0" class="graph" transform="scale(1 1) rotate(0) translate(4 174)">
<title>G</title>
<polygon fill="white" stroke="transparent" points="-4,4 -4,-174 450,-174 450,4 -4,4"/>
<text text-anchor="middle" x="223" y="-153.2" font-family="Times,serif" font-size="16.00">model=model1/cbnb_w_telemetry.json [machine 35]</text>
<!-- volt -->
<g id="node1" class="node">
<title>volt</title>
<path fill="white" stroke="black" d="M181.5,-36C181.5,-36 151.5,-36 151.5,-36 145.5,-36 139.5,-30 139.5,-24 139.5,-24 139.5,-12 139.5,-12 139.5,-6 145.5,0 151.5,0 151.5,0 181.5,0 181.5,0 187.5,0 193.5,-6 193.5,-12 193.5,-12 193.5,-24 193.5,-24 193.5,-30 187.5,-36 181.5,-36"/>
<text text-anchor="middle" x="166.5" y="-14.3" font-family="Helvetica,sans-Serif" font-size="14.00">volt</text>
</g>
<!-- rotate -->
<g id="node2" class="node">
<title>rotate</title>
<path fill="white" stroke="black" d="M183,-90C183,-90 150,-90 150,-90 144,-90 138,-84 138,-78 138,-78 138,-66 138,-66 138,-60 144,-54 150,-54 150,-54 183,-54 183,-54 189,-54 195,-60 195,-66 195,-66 195,-78 195,-78 195,-84 189,-90 183,-90"/>
<text text-anchor="middle" x="166.5" y="-68.3" font-family="Helvetica,sans-Serif" font-size="14.00">rotate</text>
</g>
<!-- pressure -->
<g id="node3" class="node">
<title>pressure</title>
<path fill="white" stroke="black" d="M306.5,-90C306.5,-90 253.5,-90 253.5,-90 247.5,-90 241.5,-84 241.5,-78 241.5,-78 241.5,-66 241.5,-66 241.5,-60 247.5,-54 253.5,-54 253.5,-54 306.5,-54 306.5,-54 312.5,-54 318.5,-60 318.5,-66 318.5,-66 318.5,-78 318.5,-78 318.5,-84 312.5,-90 306.5,-90"/>
<text text-anchor="middle" x="280" y="-68.3" font-family="Helvetica,sans-Serif" font-size="14.00">pressure</text>
</g>
<!-- rotate&#45;&gt;pressure -->
<g id="edge1" class="edge">
<title>rotate&#45;&gt;pressure</title>
<path fill="none" stroke="black" stroke-width="1.2" d="M195.06,-72C205.94,-72 218.77,-72 231.08,-72"/>
<polygon fill="black" stroke="black" stroke-width="1.2" points="231.24,-75.5 241.24,-72 231.24,-68.5 231.24,-75.5"/>
</g>
<!-- vibration -->
<g id="node4" class="node">
<title>vibration</title>
<path fill="white" stroke="black" d="M193.5,-144C193.5,-144 139.5,-144 139.5,-144 133.5,-144 127.5,-138 127.5,-132 127.5,-132 127.5,-120 127.5,-120 127.5,-114 133.5,-108 139.5,-108 139.5,-108 193.5,-108 193.5,-108 199.5,-108 205.5,-114 205.5,-120 205.5,-120 205.5,-132 205.5,-132 205.5,-138 199.5,-144 193.5,-144"/>
<text text-anchor="middle" x="166.5" y="-122.3" font-family="Helvetica,sans-Serif" font-size="14.00">vibration</text>
</g>
</g>
</svg>
