<?xml version="1.0" encoding="UTF-8" standalone="no"?>
<!DOCTYPE svg PUBLIC "-//W3C//DTD SVG 1.1//EN"
 "http://www.w3.org/Graphics/SVG/1.1/DTD/svg11.dtd">
<!-- Generated by graphviz version 2.50.0 (0)
 -->
<!-- Title: G Pages: 1 -->
<svg width="454pt" height="124pt"
 viewBox="0.00 0.00 454.00 124.00" xmlns="http://www.w3.org/2000/svg" xmlns:xlink="http://www.w3.org/1999/xlink">
<g id="graph0" class="graph" transform="scale(1 1) rotate(0) translate(4 120)">
<title>G</title>
<polygon fill="white" stroke="transparent" points="-4,4 -4,-120 450,-120 450,4 -4,4"/>
<text text-anchor="middle" x="223" y="-99.2" font-family="Times,serif" font-size="16.00">model=model1/cbnb_w_telemetry.json [machine 13]</text>
<!-- volt -->
<g id="node1" class="node">
<title>volt</title>
<path fill="white" stroke="black" d="M124.5,-63C124.5,-63 94.5,-63 94.5,-63 88.5,-63 82.5,-57 82.5,-51 82.5,-51 82.5,-39 82.5,-39 82.5,-33 88.5,-27 94.5,-27 94.5,-27 124.5,-27 124.5,-27 130.5,-27 136.5,-33 136.5,-39 136.5,-39 136.5,-51 136.5,-51 136.5,-57 130.5,-63 124.5,-63"/>
<text text-anchor="middle" x="109.5" y="-41.3" font-family="Helvetica,sans-Serif" font-size="14.00">volt</text>
</g>
<!-- rotate -->
<g id="node2" class="node">
<title>rotate</title>
<path fill="white" stroke="black" d="M228,-90C228,-90 195,-90 195,-90 189,-90 183,-84 183,-78 183,-78 183,-66 183,-66 183,-60 189,-54 195,-54 195,-54 228,-54 228,-54 234,-54 240,-60 240,-66 240,-66 240,-78 240,-78 240,-84 234,-90 228,-90"/>
<text text-anchor="middle" x="211.5" y="-68.3" font-family="Helvetica,sans-Serif" font-size="14.00">rotate</text>
</g>
<!-- volt&#45;&gt;rotate -->
<g id="edge1" class="edge">
<title>volt&#45;&gt;rotate</title>
<path fill="none" stroke="black" stroke-width="1.2" d="M136.51,-52.02C147.63,-55.03 160.83,-58.59 172.98,-61.87"/>
<polygon fill="black" stroke="black" stroke-width="1.2" points="172.3,-65.31 182.87,-64.54 174.13,-58.55 172.3,-65.31"/>
</g>
<!-- vibration -->
<g id="node4" class="node">
<title>vibration</title>
<path fill="white" stroke="black" d="M238.5,-36C238.5,-36 184.5,-36 184.5,-36 178.5,-36 172.5,-30 172.5,-24 172.5,-24 172.5,-12 172.5,-12 172.5,-6 178.5,0 184.5,0 184.5,0 238.5,0 238.5,0 244.5,0 250.5,-6 250.5,-12 250.5,-12 250.5,-24 250.5,-24 250.5,-30 244.5,-36 238.5,-36"/>
<text text-anchor="middle" x="211.5" y="-14.3" font-family="Helvetica,sans-Serif" font-size="14.00">vibration</text>
</g>
<!-- volt&#45;&gt;vibration -->
<g id="edge2" class="edge">
<title>volt&#45;&gt;vibration</title>
<path fill="none" stroke="black" stroke-width="1.2" d="M146.37,-35.31C151.61,-33.9 157.07,-32.43 162.5,-30.96"/>
<polygon fill="black" stroke="black" stroke-width="1.2" points="145.25,-31.99 136.51,-37.98 147.08,-38.75 145.25,-31.99"/>
<polygon fill="black" stroke="black" stroke-width="1.2" points="163.44,-34.33 172.18,-28.35 161.62,-27.57 163.44,-34.33"/>
</g>
<!-- pressure -->
<g id="node3" class="node">
<title>pressure</title>
<path fill="white" stroke="black" d="M351.5,-36C351.5,-36 298.5,-36 298.5,-36 292.5,-36 286.5,-30 286.5,-24 286.5,-24 286.5,-12 286.5,-12 286.5,-6 292.5,0 298.5,0 298.5,0 351.5,0 351.5,0 357.5,0 363.5,-6 363.5,-12 363.5,-12 363.5,-24 363.5,-24 363.5,-30 357.5,-36 351.5,-36"/>
<text text-anchor="middle" x="325" y="-14.3" font-family="Helvetica,sans-Serif" font-size="14.00">pressure</text>
</g>
<!-- vibration&#45;&gt;pressure -->
<g id="edge3" class="edge">
<title>vibration&#45;&gt;pressure</title>
<path fill="none" stroke="black" stroke-width="1.2" d="M250.56,-18C258.81,-18 267.64,-18 276.22,-18"/>
<polygon fill="black" stroke="black" stroke-width="1.2" points="276.49,-21.5 286.49,-18 276.49,-14.5 276.49,-21.5"/>
</g>
</g>
</svg>
