<?xml version="1.0" encoding="UTF-8" standalone="no"?>
<!DOCTYPE svg PUBLIC "-//W3C//DTD SVG 1.1//EN"
 "http://www.w3.org/Graphics/SVG/1.1/DTD/svg11.dtd">
<!-- Generated by graphviz version 2.50.0 (0)
 -->
<!-- Title: G Pages: 1 -->
<svg width="1296pt" height="585pt"
 viewBox="0.00 0.00 1296.00 584.93" xmlns="http://www.w3.org/2000/svg" xmlns:xlink="http://www.w3.org/1999/xlink">
<g id="graph0" class="graph" transform="scale(1 1) rotate(0) translate(4 580.93)">
<title>G</title>
<polygon fill="white" stroke="transparent" points="-4,4 -4,-580.93 1292,-580.93 1292,4 -4,4"/>
<text text-anchor="middle" x="644" y="-560.13" font-family="Times,serif" font-size="16.00">model=model3/cbnb_w_mixed.json [machine 12]</text>
<!-- volt -->
<g id="node1" class="node">
<title>volt</title>
<path fill="white" stroke="black" d="M42,-278.31C42,-278.31 12,-278.31 12,-278.31 6,-278.31 0,-272.31 0,-266.31 0,-266.31 0,-254.31 0,-254.31 0,-248.31 6,-242.31 12,-242.31 12,-242.31 42,-242.31 42,-242.31 48,-242.31 54,-248.31 54,-254.31 54,-254.31 54,-266.31 54,-266.31 54,-272.31 48,-278.31 42,-278.31"/>
<text text-anchor="middle" x="27" y="-256.61" font-family="Helvetica,sans-Serif" font-size="14.00">volt</text>
</g>
<!-- pressure -->
<g id="node3" class="node">
<title>pressure</title>
<path fill="white" stroke="black" d="M997.5,-462.31C997.5,-462.31 944.5,-462.31 944.5,-462.31 938.5,-462.31 932.5,-456.31 932.5,-450.31 932.5,-450.31 932.5,-438.31 932.5,-438.31 932.5,-432.31 938.5,-426.31 944.5,-426.31 944.5,-426.31 997.5,-426.31 997.5,-426.31 1003.5,-426.31 1009.5,-432.31 1009.5,-438.31 1009.5,-438.31 1009.5,-450.31 1009.5,-450.31 1009.5,-456.31 1003.5,-462.31 997.5,-462.31"/>
<text text-anchor="middle" x="971" y="-440.61" font-family="Helvetica,sans-Serif" font-size="14.00">pressure</text>
</g>
<!-- volt&#45;&gt;pressure -->
<g id="edge1" class="edge">
<title>volt&#45;&gt;pressure</title>
<path fill="none" stroke="black" stroke-width="1.2" d="M30.2,-278.45C36.74,-329.6 57.69,-473.38 90,-506.31 142.1,-559.42 177.11,-550.31 251.5,-550.31 251.5,-550.31 251.5,-550.31 595.5,-550.31 717.31,-550.31 853.27,-497.75 923.05,-466.65"/>
<polygon fill="black" stroke="black" stroke-width="1.2" points="924.77,-469.72 932.45,-462.42 921.9,-463.34 924.77,-469.72"/>
</g>
<!-- err_error1 -->
<g id="node5" class="node">
<title>err_error1</title>
<path fill="white" stroke="black" d="M169.5,-305.31C169.5,-305.31 108.5,-305.31 108.5,-305.31 102.5,-305.31 96.5,-299.31 96.5,-293.31 96.5,-293.31 96.5,-281.31 96.5,-281.31 96.5,-275.31 102.5,-269.31 108.5,-269.31 108.5,-269.31 169.5,-269.31 169.5,-269.31 175.5,-269.31 181.5,-275.31 181.5,-281.31 181.5,-281.31 181.5,-293.31 181.5,-293.31 181.5,-299.31 175.5,-305.31 169.5,-305.31"/>
<text text-anchor="middle" x="139" y="-283.61" font-family="Helvetica,sans-Serif" font-size="14.00">err_error1</text>
</g>
<!-- volt&#45;&gt;err_error1 -->
<g id="edge2" class="edge">
<title>volt&#45;&gt;err_error1</title>
<path fill="none" stroke="black" stroke-width="1.2" d="M54.07,-266.71C63.8,-269.1 75.22,-271.9 86.44,-274.66"/>
<polygon fill="black" stroke="black" stroke-width="1.2" points="85.66,-278.07 96.21,-277.06 87.33,-271.27 85.66,-278.07"/>
</g>
<!-- mnt_comp3 -->
<g id="node12" class="node">
<title>mnt_comp3</title>
<path fill="white" stroke="black" d="M176,-251.31C176,-251.31 102,-251.31 102,-251.31 96,-251.31 90,-245.31 90,-239.31 90,-239.31 90,-227.31 90,-227.31 90,-221.31 96,-215.31 102,-215.31 102,-215.31 176,-215.31 176,-215.31 182,-215.31 188,-221.31 188,-227.31 188,-227.31 188,-239.31 188,-239.31 188,-245.31 182,-251.31 176,-251.31"/>
<text text-anchor="middle" x="139" y="-229.61" font-family="Helvetica,sans-Serif" font-size="14.00">mnt_comp3</text>
</g>
<!-- volt&#45;&gt;mnt_comp3 -->
<g id="edge6" class="edge">
<title>volt&#45;&gt;mnt_comp3</title>
<path fill="none" stroke="black" stroke-width="1.2" d="M64.05,-251.47C69.17,-250.21 74.55,-248.89 79.96,-247.56"/>
<polygon fill="black" stroke="black" stroke-width="1.2" points="62.95,-248.13 54.07,-253.92 64.61,-254.93 62.95,-248.13"/>
<polygon fill="black" stroke="black" stroke-width="1.2" points="80.83,-250.95 89.7,-245.17 79.16,-244.15 80.83,-250.95"/>
</g>
<!-- mnt_comp4 -->
<g id="node13" class="node">
<title>mnt_comp4</title>
<path fill="white" stroke="black" d="M1008,-145.31C1008,-145.31 934,-145.31 934,-145.31 928,-145.31 922,-139.31 922,-133.31 922,-133.31 922,-121.31 922,-121.31 922,-115.31 928,-109.31 934,-109.31 934,-109.31 1008,-109.31 1008,-109.31 1014,-109.31 1020,-115.31 1020,-121.31 1020,-121.31 1020,-133.31 1020,-133.31 1020,-139.31 1014,-145.31 1008,-145.31"/>
<text text-anchor="middle" x="971" y="-123.61" font-family="Helvetica,sans-Serif" font-size="14.00">mnt_comp4</text>
</g>
<!-- volt&#45;&gt;mnt_comp4 -->
<g id="edge7" class="edge">
<title>volt&#45;&gt;mnt_comp4</title>
<path fill="none" stroke="black" stroke-width="1.2" d="M29.44,-242.09C33.14,-207.51 46.08,-132.11 90,-90.31 144.43,-38.51 176.36,-40.31 251.5,-40.31 251.5,-40.31 251.5,-40.31 716.5,-40.31 795.62,-40.31 881.48,-78.7 930.21,-104.47"/>
<polygon fill="black" stroke="black" stroke-width="1.2" points="928.7,-107.63 939.16,-109.29 932.01,-101.47 928.7,-107.63"/>
</g>
<!-- rotate -->
<g id="node2" class="node">
<title>rotate</title>
<path fill="white" stroke="black" d="M269,-305.31C269,-305.31 236,-305.31 236,-305.31 230,-305.31 224,-299.31 224,-293.31 224,-293.31 224,-281.31 224,-281.31 224,-275.31 230,-269.31 236,-269.31 236,-269.31 269,-269.31 269,-269.31 275,-269.31 281,-275.31 281,-281.31 281,-281.31 281,-293.31 281,-293.31 281,-299.31 275,-305.31 269,-305.31"/>
<text text-anchor="middle" x="252.5" y="-283.61" font-family="Helvetica,sans-Serif" font-size="14.00">rotate</text>
</g>
<!-- vibration -->
<g id="node4" class="node">
<title>vibration</title>
<path fill="white" stroke="black" d="M504,-522.31C504,-522.31 450,-522.31 450,-522.31 444,-522.31 438,-516.31 438,-510.31 438,-510.31 438,-498.31 438,-498.31 438,-492.31 444,-486.31 450,-486.31 450,-486.31 504,-486.31 504,-486.31 510,-486.31 516,-492.31 516,-498.31 516,-498.31 516,-510.31 516,-510.31 516,-516.31 510,-522.31 504,-522.31"/>
<text text-anchor="middle" x="477" y="-500.61" font-family="Helvetica,sans-Serif" font-size="14.00">vibration</text>
</g>
<!-- rotate&#45;&gt;vibration -->
<g id="edge9" class="edge">
<title>rotate&#45;&gt;vibration</title>
<path fill="none" stroke="black" stroke-width="1.2" d="M268.95,-305.56C281.52,-320.17 299.92,-341.01 317,-358.31 360.81,-402.7 414.84,-451.07 447.3,-479.49"/>
<polygon fill="black" stroke="black" stroke-width="1.2" points="445.23,-482.33 455.07,-486.27 449.84,-477.06 445.23,-482.33"/>
</g>
<!-- err_error2 -->
<g id="node6" class="node">
<title>err_error2</title>
<path fill="white" stroke="black" d="M870.5,-321.31C870.5,-321.31 809.5,-321.31 809.5,-321.31 803.5,-321.31 797.5,-315.31 797.5,-309.31 797.5,-309.31 797.5,-297.31 797.5,-297.31 797.5,-291.31 803.5,-285.31 809.5,-285.31 809.5,-285.31 870.5,-285.31 870.5,-285.31 876.5,-285.31 882.5,-291.31 882.5,-297.31 882.5,-297.31 882.5,-309.31 882.5,-309.31 882.5,-315.31 876.5,-321.31 870.5,-321.31"/>
<text text-anchor="middle" x="840" y="-299.61" font-family="Helvetica,sans-Serif" font-size="14.00">err_error2</text>
</g>
<!-- rotate&#45;&gt;err_error2 -->
<g id="edge11" class="edge">
<title>rotate&#45;&gt;err_error2</title>
<path fill="none" stroke="black" stroke-width="1.2" d="M291.19,-282.12C335.37,-276.5 410.86,-268.31 476,-268.31 476,-268.31 476,-268.31 595.5,-268.31 662.29,-268.31 738.34,-281.37 787.42,-291.54"/>
<polygon fill="black" stroke="black" stroke-width="1.2" points="290.65,-278.66 281.19,-283.42 291.55,-285.61 290.65,-278.66"/>
<polygon fill="black" stroke="black" stroke-width="1.2" points="786.96,-295.02 797.47,-293.66 788.4,-288.17 786.96,-295.02"/>
</g>
<!-- err_error3 -->
<g id="node7" class="node">
<title>err_error3</title>
<path fill="white" stroke="black" d="M625,-378.31C625,-378.31 564,-378.31 564,-378.31 558,-378.31 552,-372.31 552,-366.31 552,-366.31 552,-354.31 552,-354.31 552,-348.31 558,-342.31 564,-342.31 564,-342.31 625,-342.31 625,-342.31 631,-342.31 637,-348.31 637,-354.31 637,-354.31 637,-366.31 637,-366.31 637,-372.31 631,-378.31 625,-378.31"/>
<text text-anchor="middle" x="594.5" y="-356.61" font-family="Helvetica,sans-Serif" font-size="14.00">err_error3</text>
</g>
<!-- rotate&#45;&gt;err_error3 -->
<g id="edge12" class="edge">
<title>rotate&#45;&gt;err_error3</title>
<path fill="none" stroke="black" stroke-width="1.2" d="M290.08,-308.96C298.67,-313.3 307.97,-317.41 317,-320.31 392.84,-344.73 485.21,-354.28 541.66,-357.99"/>
<polygon fill="black" stroke="black" stroke-width="1.2" points="291.55,-305.78 281.07,-304.21 288.28,-311.97 291.55,-305.78"/>
<polygon fill="black" stroke="black" stroke-width="1.2" points="541.57,-361.49 551.77,-358.62 542,-354.51 541.57,-361.49"/>
</g>
<!-- err_error4 -->
<g id="node8" class="node">
<title>err_error4</title>
<path fill="white" stroke="black" d="M746,-332.31C746,-332.31 685,-332.31 685,-332.31 679,-332.31 673,-326.31 673,-320.31 673,-320.31 673,-308.31 673,-308.31 673,-302.31 679,-296.31 685,-296.31 685,-296.31 746,-296.31 746,-296.31 752,-296.31 758,-302.31 758,-308.31 758,-308.31 758,-320.31 758,-320.31 758,-326.31 752,-332.31 746,-332.31"/>
<text text-anchor="middle" x="715.5" y="-310.61" font-family="Helvetica,sans-Serif" font-size="14.00">err_error4</text>
</g>
<!-- rotate&#45;&gt;err_error4 -->
<g id="edge13" class="edge">
<title>rotate&#45;&gt;err_error4</title>
<path fill="none" stroke="black" stroke-width="1.2" d="M291.33,-289.53C373.67,-294.35 569.21,-305.8 662.82,-311.29"/>
<polygon fill="black" stroke="black" stroke-width="1.2" points="291.49,-286.03 281.3,-288.94 291.08,-293.02 291.49,-286.03"/>
<polygon fill="black" stroke="black" stroke-width="1.2" points="662.72,-314.79 672.91,-311.88 663.13,-307.8 662.72,-314.79"/>
</g>
<!-- err_error5 -->
<g id="node9" class="node">
<title>err_error5</title>
<path fill="white" stroke="black" d="M390,-522.31C390,-522.31 329,-522.31 329,-522.31 323,-522.31 317,-516.31 317,-510.31 317,-510.31 317,-498.31 317,-498.31 317,-492.31 323,-486.31 329,-486.31 329,-486.31 390,-486.31 390,-486.31 396,-486.31 402,-492.31 402,-498.31 402,-498.31 402,-510.31 402,-510.31 402,-516.31 396,-522.31 390,-522.31"/>
<text text-anchor="middle" x="359.5" y="-500.61" font-family="Helvetica,sans-Serif" font-size="14.00">err_error5</text>
</g>
<!-- rotate&#45;&gt;err_error5 -->
<g id="edge14" class="edge">
<title>rotate&#45;&gt;err_error5</title>
<path fill="none" stroke="black" stroke-width="1.2" d="M262.27,-305.44C280.69,-343.5 323.46,-431.9 345.24,-476.91"/>
<polygon fill="black" stroke="black" stroke-width="1.2" points="342.17,-478.61 349.68,-486.08 348.47,-475.56 342.17,-478.61"/>
</g>
<!-- fail_comp2 -->
<g id="node15" class="node">
<title>fail_comp2</title>
<path fill="white" stroke="black" d="M1005,-275.31C1005,-275.31 937,-275.31 937,-275.31 931,-275.31 925,-269.31 925,-263.31 925,-263.31 925,-251.31 925,-251.31 925,-245.31 931,-239.31 937,-239.31 937,-239.31 1005,-239.31 1005,-239.31 1011,-239.31 1017,-245.31 1017,-251.31 1017,-251.31 1017,-263.31 1017,-263.31 1017,-269.31 1011,-275.31 1005,-275.31"/>
<text text-anchor="middle" x="971" y="-253.61" font-family="Helvetica,sans-Serif" font-size="14.00">fail_comp2</text>
</g>
<!-- rotate&#45;&gt;fail_comp2 -->
<g id="edge17" class="edge">
<title>rotate&#45;&gt;fail_comp2</title>
<path fill="none" stroke="black" stroke-width="1.2" d="M290.34,-271.82C333.88,-254.94 408.9,-230.31 476,-230.31 476,-230.31 476,-230.31 595.5,-230.31 709.04,-230.31 841.45,-242.81 914.49,-250.8"/>
<polygon fill="black" stroke="black" stroke-width="1.2" points="289.03,-268.57 281.02,-275.5 291.6,-275.08 289.03,-268.57"/>
<polygon fill="black" stroke="black" stroke-width="1.2" points="914.5,-254.33 924.82,-251.95 915.27,-247.37 914.5,-254.33"/>
</g>
<!-- vibration&#45;&gt;pressure -->
<g id="edge18" class="edge">
<title>vibration&#45;&gt;pressure</title>
<path fill="none" stroke="black" stroke-width="1.2" d="M516.2,-499.66C604.86,-488.84 824.47,-462.06 922,-450.17"/>
<polygon fill="black" stroke="black" stroke-width="1.2" points="922.66,-453.61 932.17,-448.93 921.82,-446.66 922.66,-453.61"/>
</g>
<!-- vibration&#45;&gt;err_error3 -->
<g id="edge20" class="edge">
<title>vibration&#45;&gt;err_error3</title>
<path fill="none" stroke="black" stroke-width="1.2" d="M502.87,-486.16C507.61,-481.97 512.26,-477.27 516,-472.31 539.5,-441.2 527.84,-422.91 552,-392.31 553.85,-389.97 555.91,-387.7 558.09,-385.53"/>
<polygon fill="black" stroke="black" stroke-width="1.2" points="560.77,-387.82 565.86,-378.53 556.09,-382.62 560.77,-387.82"/>
</g>
<!-- mnt_comp2 -->
<g id="node11" class="node">
<title>mnt_comp2</title>
<path fill="white" stroke="black" d="M1142,-298.31C1142,-298.31 1068,-298.31 1068,-298.31 1062,-298.31 1056,-292.31 1056,-286.31 1056,-286.31 1056,-274.31 1056,-274.31 1056,-268.31 1062,-262.31 1068,-262.31 1068,-262.31 1142,-262.31 1142,-262.31 1148,-262.31 1154,-268.31 1154,-274.31 1154,-274.31 1154,-286.31 1154,-286.31 1154,-292.31 1148,-298.31 1142,-298.31"/>
<text text-anchor="middle" x="1105" y="-276.61" font-family="Helvetica,sans-Serif" font-size="14.00">mnt_comp2</text>
</g>
<!-- vibration&#45;&gt;mnt_comp2 -->
<g id="edge23" class="edge">
<title>vibration&#45;&gt;mnt_comp2</title>
<path fill="none" stroke="black" stroke-width="1.2" d="M516.19,-514.4C611.33,-537.13 862.56,-582.16 1020,-471.31 1074.34,-433.06 1093.94,-351.55 1100.68,-308.42"/>
<polygon fill="black" stroke="black" stroke-width="1.2" points="1104.17,-308.73 1102.13,-298.33 1097.24,-307.73 1104.17,-308.73"/>
</g>
<!-- err_error1&#45;&gt;rotate -->
<g id="edge10" class="edge">
<title>err_error1&#45;&gt;rotate</title>
<path fill="none" stroke="black" stroke-width="1.2" d="M181.52,-287.31C192.11,-287.31 203.43,-287.31 213.81,-287.31"/>
<polygon fill="black" stroke="black" stroke-width="1.2" points="213.82,-290.81 223.82,-287.31 213.82,-283.81 213.82,-290.81"/>
</g>
<!-- err_error1&#45;&gt;err_error2 -->
<g id="edge24" class="edge">
<title>err_error1&#45;&gt;err_error2</title>
<path fill="none" stroke="black" stroke-width="1.2" d="M172.67,-269.25C177.83,-266.31 183.08,-263.26 188,-260.31 264.56,-214.49 269.27,-154.31 358.5,-154.31 358.5,-154.31 358.5,-154.31 595.5,-154.31 688.81,-154.31 776.58,-234.91 816.49,-277.55"/>
<polygon fill="black" stroke="black" stroke-width="1.2" points="814.03,-280.05 823.37,-285.04 819.18,-275.31 814.03,-280.05"/>
</g>
<!-- err_error1&#45;&gt;err_error3 -->
<g id="edge25" class="edge">
<title>err_error1&#45;&gt;err_error3</title>
<path fill="none" stroke="black" stroke-width="1.2" d="M181.73,-302.58C217.3,-315.15 269.98,-332.72 317,-344.31 403.35,-365.6 427.11,-368.18 516,-365.31 524.24,-365.05 532.96,-364.62 541.47,-364.13"/>
<polygon fill="black" stroke="black" stroke-width="1.2" points="541.93,-367.61 551.69,-363.51 541.5,-360.62 541.93,-367.61"/>
</g>
<!-- err_error2&#45;&gt;pressure -->
<g id="edge19" class="edge">
<title>err_error2&#45;&gt;pressure</title>
<path fill="none" stroke="black" stroke-width="1.2" d="M857.6,-321.46C880.24,-346.21 920.92,-390.67 946.64,-418.78"/>
<polygon fill="black" stroke="black" stroke-width="1.2" points="944.13,-421.22 953.46,-426.24 949.3,-416.5 944.13,-421.22"/>
</g>
<!-- err_error2&#45;&gt;mnt_comp4 -->
<g id="edge29" class="edge">
<title>err_error2&#45;&gt;mnt_comp4</title>
<path fill="none" stroke="black" stroke-width="1.2" d="M854.32,-285.14C877.26,-253.84 924.32,-189.63 950.8,-153.5"/>
<polygon fill="black" stroke="black" stroke-width="1.2" points="953.66,-155.52 956.75,-145.39 948.02,-151.38 953.66,-155.52"/>
</g>
<!-- err_error2&#45;&gt;fail_comp2 -->
<g id="edge30" class="edge">
<title>err_error2&#45;&gt;fail_comp2</title>
<path fill="none" stroke="black" stroke-width="1.2" d="M882.53,-288.51C893.01,-284.77 904.42,-280.7 915.44,-276.77"/>
<polygon fill="black" stroke="black" stroke-width="1.2" points="916.74,-280.02 924.98,-273.37 914.39,-273.43 916.74,-280.02"/>
</g>
<!-- err_error3&#45;&gt;volt -->
<g id="edge3" class="edge">
<title>err_error3&#45;&gt;volt</title>
<path fill="none" stroke="black" stroke-width="1.2" d="M559.48,-378.52C505.26,-406.86 401.2,-458.31 360.5,-458.31 251.5,-458.31 251.5,-458.31 251.5,-458.31 149.78,-458.31 72.69,-341.99 42.23,-287.66"/>
<polygon fill="black" stroke="black" stroke-width="1.2" points="45.13,-285.67 37.25,-278.59 38.99,-289.04 45.13,-285.67"/>
</g>
<!-- err_error3&#45;&gt;err_error2 -->
<g id="edge26" class="edge">
<title>err_error3&#45;&gt;err_error2</title>
<path fill="none" stroke="black" stroke-width="1.2" d="M637.29,-359.12C670.55,-357.29 717.98,-352.71 758,-341.31 771.33,-337.52 785.21,-331.75 797.64,-325.84"/>
<polygon fill="black" stroke="black" stroke-width="1.2" points="799.39,-328.88 806.83,-321.33 796.31,-322.6 799.39,-328.88"/>
</g>
<!-- err_error3&#45;&gt;err_error4 -->
<g id="edge31" class="edge">
<title>err_error3&#45;&gt;err_error4</title>
<path fill="none" stroke="black" stroke-width="1.2" d="M646.48,-340.61C651.95,-338.49 657.51,-336.34 662.99,-334.23"/>
<polygon fill="black" stroke="black" stroke-width="1.2" points="645.19,-337.35 637.12,-344.23 647.71,-343.88 645.19,-337.35"/>
<polygon fill="black" stroke="black" stroke-width="1.2" points="664.64,-337.34 672.7,-330.47 662.11,-330.81 664.64,-337.34"/>
</g>
<!-- err_error4&#45;&gt;vibration -->
<g id="edge21" class="edge">
<title>err_error4&#45;&gt;vibration</title>
<path fill="none" stroke="black" stroke-width="1.2" d="M698.2,-332.37C683.31,-348.17 660.15,-371.07 637,-387.31 602.35,-411.63 585.31,-404.18 552,-430.31 532.66,-445.49 533.46,-455.01 516,-472.31 513.61,-474.68 511.07,-477.07 508.47,-479.42"/>
<polygon fill="black" stroke="black" stroke-width="1.2" points="505.85,-477.06 500.64,-486.28 510.47,-482.33 505.85,-477.06"/>
</g>
<!-- err_error4&#45;&gt;err_error2 -->
<g id="edge27" class="edge">
<title>err_error4&#45;&gt;err_error2</title>
<path fill="none" stroke="black" stroke-width="1.2" d="M758.31,-310.56C767.58,-309.73 777.5,-308.84 787.11,-307.97"/>
<polygon fill="black" stroke="black" stroke-width="1.2" points="787.73,-311.43 797.37,-307.05 787.1,-304.46 787.73,-311.43"/>
</g>
<!-- err_error5&#45;&gt;volt -->
<g id="edge4" class="edge">
<title>err_error5&#45;&gt;volt</title>
<path fill="none" stroke="black" stroke-width="1.2" d="M316.67,-512.25C258.67,-520.68 153.78,-526.3 90,-472.31 35.54,-426.21 27.49,-335.12 27.16,-288.8"/>
<polygon fill="black" stroke="black" stroke-width="1.2" points="30.66,-288.59 27.21,-278.57 23.66,-288.55 30.66,-288.59"/>
</g>
<!-- err_error5&#45;&gt;vibration -->
<g id="edge22" class="edge">
<title>err_error5&#45;&gt;vibration</title>
<path fill="none" stroke="black" stroke-width="1.2" d="M402.2,-504.31C410.47,-504.31 419.21,-504.31 427.68,-504.31"/>
<polygon fill="black" stroke="black" stroke-width="1.2" points="427.82,-507.81 437.82,-504.31 427.82,-500.81 427.82,-507.81"/>
</g>
<!-- mnt_comp1 -->
<g id="node10" class="node">
<title>mnt_comp1</title>
<path fill="white" stroke="black" d="M1276,-172.31C1276,-172.31 1202,-172.31 1202,-172.31 1196,-172.31 1190,-166.31 1190,-160.31 1190,-160.31 1190,-148.31 1190,-148.31 1190,-142.31 1196,-136.31 1202,-136.31 1202,-136.31 1276,-136.31 1276,-136.31 1282,-136.31 1288,-142.31 1288,-148.31 1288,-148.31 1288,-160.31 1288,-160.31 1288,-166.31 1282,-172.31 1276,-172.31"/>
<text text-anchor="middle" x="1239" y="-150.61" font-family="Helvetica,sans-Serif" font-size="14.00">mnt_comp1</text>
</g>
<!-- mnt_comp1&#45;&gt;volt -->
<g id="edge5" class="edge">
<title>mnt_comp1&#45;&gt;volt</title>
<path fill="none" stroke="black" stroke-width="1.2" d="M1221.25,-136.28C1181.92,-96.02 1078.91,-2.31 972,-2.31 251.5,-2.31 251.5,-2.31 251.5,-2.31 177.96,-2.31 143.36,12.29 90,-38.31 35.59,-89.92 27.61,-184.93 27.25,-232.15"/>
<polygon fill="black" stroke="black" stroke-width="1.2" points="23.75,-232.28 27.28,-242.27 30.75,-232.26 23.75,-232.28"/>
</g>
<!-- mnt_comp2&#45;&gt;err_error2 -->
<g id="edge28" class="edge">
<title>mnt_comp2&#45;&gt;err_error2</title>
<path fill="none" stroke="black" stroke-width="1.2" d="M1055.83,-284.53C1009.63,-288.57 940.08,-294.65 892.72,-298.79"/>
<polygon fill="black" stroke="black" stroke-width="1.2" points="892.33,-295.31 882.67,-299.67 892.94,-302.28 892.33,-295.31"/>
</g>
<!-- mnt_comp2&#45;&gt;mnt_comp1 -->
<g id="edge32" class="edge">
<title>mnt_comp2&#45;&gt;mnt_comp1</title>
<path fill="none" stroke="black" stroke-width="1.2" d="M1124.91,-262.26C1147.65,-240.55 1185.96,-203.99 1211.6,-179.51"/>
<polygon fill="black" stroke="black" stroke-width="1.2" points="1214.31,-181.77 1219.12,-172.33 1209.47,-176.71 1214.31,-181.77"/>
</g>
<!-- mnt_comp3&#45;&gt;rotate -->
<g id="edge15" class="edge">
<title>mnt_comp3&#45;&gt;rotate</title>
<path fill="none" stroke="black" stroke-width="1.2" d="M177.44,-251.45C189.42,-257.25 202.67,-263.66 214.61,-269.45"/>
<polygon fill="black" stroke="black" stroke-width="1.2" points="213.33,-272.72 223.86,-273.93 216.38,-266.42 213.33,-272.72"/>
</g>
<!-- mnt_comp3&#45;&gt;mnt_comp4 -->
<g id="edge36" class="edge">
<title>mnt_comp3&#45;&gt;mnt_comp4</title>
<path fill="none" stroke="black" stroke-width="1.2" d="M158.37,-215.29C193.86,-182.47 275.67,-116.31 358.5,-116.31 358.5,-116.31 358.5,-116.31 595.5,-116.31 707.48,-116.31 838.21,-121.29 911.83,-124.55"/>
<polygon fill="black" stroke="black" stroke-width="1.2" points="911.69,-128.04 921.83,-124.99 912,-121.05 911.69,-128.04"/>
</g>
<!-- mnt_comp4&#45;&gt;rotate -->
<g id="edge16" class="edge">
<title>mnt_comp4&#45;&gt;rotate</title>
<path fill="none" stroke="black" stroke-width="1.2" d="M921.98,-130.93C886.47,-133.98 837.03,-139.03 794,-146.31 704.71,-161.42 686.06,-192.31 595.5,-192.31 476,-192.31 476,-192.31 476,-192.31 402.91,-192.31 381.94,-200.76 317,-234.31 303.04,-241.53 289.41,-252.26 278.38,-262.18"/>
<polygon fill="black" stroke="black" stroke-width="1.2" points="275.77,-259.83 270.84,-269.2 280.54,-264.95 275.77,-259.83"/>
</g>
<!-- mnt_comp4&#45;&gt;mnt_comp1 -->
<g id="edge33" class="edge">
<title>mnt_comp4&#45;&gt;mnt_comp1</title>
<path fill="none" stroke="black" stroke-width="1.2" d="M1020.17,-132.2C1064.94,-136.75 1131.73,-143.53 1179.54,-148.38"/>
<polygon fill="black" stroke="black" stroke-width="1.2" points="1179.44,-151.89 1189.74,-149.41 1180.14,-144.92 1179.44,-151.89"/>
</g>
<!-- fail_comp1 -->
<g id="node14" class="node">
<title>fail_comp1</title>
<path fill="white" stroke="black" d="M874,-191.31C874,-191.31 806,-191.31 806,-191.31 800,-191.31 794,-185.31 794,-179.31 794,-179.31 794,-167.31 794,-167.31 794,-161.31 800,-155.31 806,-155.31 806,-155.31 874,-155.31 874,-155.31 880,-155.31 886,-161.31 886,-167.31 886,-167.31 886,-179.31 886,-179.31 886,-185.31 880,-191.31 874,-191.31"/>
<text text-anchor="middle" x="840" y="-169.61" font-family="Helvetica,sans-Serif" font-size="14.00">fail_comp1</text>
</g>
<!-- fail_comp1&#45;&gt;mnt_comp1 -->
<g id="edge34" class="edge">
<title>fail_comp1&#45;&gt;mnt_comp1</title>
<path fill="none" stroke="black" stroke-width="1.2" d="M886.15,-171.15C958.31,-167.7 1099.6,-160.94 1179.43,-157.12"/>
<polygon fill="black" stroke="black" stroke-width="1.2" points="1179.98,-160.59 1189.8,-156.62 1179.64,-153.6 1179.98,-160.59"/>
</g>
<!-- fail_comp1&#45;&gt;mnt_comp4 -->
<g id="edge37" class="edge">
<title>fail_comp1&#45;&gt;mnt_comp4</title>
<path fill="none" stroke="black" stroke-width="1.2" d="M886.12,-157.23C894.46,-154.25 903.28,-151.11 911.94,-148.02"/>
<polygon fill="black" stroke="black" stroke-width="1.2" points="913.37,-151.22 921.62,-144.57 911.02,-144.63 913.37,-151.22"/>
</g>
<!-- fail_comp1&#45;&gt;fail_comp2 -->
<g id="edge38" class="edge">
<title>fail_comp1&#45;&gt;fail_comp2</title>
<path fill="none" stroke="black" stroke-width="1.2" d="M868.67,-191.33C887.59,-203.65 912.86,-220.11 933.43,-233.5"/>
<polygon fill="black" stroke="black" stroke-width="1.2" points="931.64,-236.51 941.93,-239.03 935.46,-230.64 931.64,-236.51"/>
</g>
<!-- fail_comp2&#45;&gt;volt -->
<g id="edge8" class="edge">
<title>fail_comp2&#45;&gt;volt</title>
<path fill="none" stroke="black" stroke-width="1.2" d="M924.59,-244.82C880.34,-232.26 816.54,-212.98 794,-200.31 775.59,-189.97 775.3,-181.42 758,-169.31 690.19,-121.85 678.28,-78.31 595.5,-78.31 251.5,-78.31 251.5,-78.31 251.5,-78.31 154.46,-78.31 76.18,-182.76 43.93,-233.4"/>
<polygon fill="black" stroke="black" stroke-width="1.2" points="40.77,-231.86 38.45,-242.2 46.71,-235.56 40.77,-231.86"/>
</g>
<!-- fail_comp2&#45;&gt;mnt_comp2 -->
<g id="edge35" class="edge">
<title>fail_comp2&#45;&gt;mnt_comp2</title>
<path fill="none" stroke="black" stroke-width="1.2" d="M1017.06,-265.16C1026.37,-266.79 1036.3,-268.52 1046,-270.21"/>
<polygon fill="black" stroke="black" stroke-width="1.2" points="1045.54,-273.68 1055.99,-271.95 1046.74,-266.78 1045.54,-273.68"/>
</g>
</g>
</svg>
