<?xml version="1.0" encoding="UTF-8" standalone="no"?>
<!DOCTYPE svg PUBLIC "-//W3C//DTD SVG 1.1//EN"
 "http://www.w3.org/Graphics/SVG/1.1/DTD/svg11.dtd">
<!-- Generated by graphviz version 2.50.0 (0)
 -->
<!-- Title: G Pages: 1 -->
<svg width="948pt" height="628pt"
 viewBox="0.00 0.00 948.00 628.00" xmlns="http://www.w3.org/2000/svg" xmlns:xlink="http://www.w3.org/1999/xlink">
<g id="graph0" class="graph" transform="scale(1 1) rotate(0) translate(4 624)">
<title>G</title>
<polygon fill="white" stroke="transparent" points="-4,4 -4,-624 944,-624 944,4 -4,4"/>
<text text-anchor="middle" x="470" y="-603.2" font-family="Times,serif" font-size="16.00">model=model2/cbnb_w_mixed.json [machine 96]</text>
<!-- volt -->
<g id="node1" class="node">
<title>volt</title>
<path fill="white" stroke="black" d="M42,-233C42,-233 12,-233 12,-233 6,-233 0,-227 0,-221 0,-221 0,-209 0,-209 0,-203 6,-197 12,-197 12,-197 42,-197 42,-197 48,-197 54,-203 54,-209 54,-209 54,-221 54,-221 54,-227 48,-233 42,-233"/>
<text text-anchor="middle" x="27" y="-211.3" font-family="Helvetica,sans-Serif" font-size="14.00">volt</text>
</g>
<!-- rotate -->
<g id="node2" class="node">
<title>rotate</title>
<path fill="white" stroke="black" d="M149,-259C149,-259 116,-259 116,-259 110,-259 104,-253 104,-247 104,-247 104,-235 104,-235 104,-229 110,-223 116,-223 116,-223 149,-223 149,-223 155,-223 161,-229 161,-235 161,-235 161,-247 161,-247 161,-253 155,-259 149,-259"/>
<text text-anchor="middle" x="132.5" y="-237.3" font-family="Helvetica,sans-Serif" font-size="14.00">rotate</text>
</g>
<!-- volt&#45;&gt;rotate -->
<g id="edge1" class="edge">
<title>volt&#45;&gt;rotate</title>
<path fill="none" stroke="black" stroke-width="1.2" d="M54.12,-221.56C66.24,-224.61 80.87,-228.28 94.13,-231.61"/>
<polygon fill="black" stroke="black" stroke-width="1.2" points="93.39,-235.04 103.94,-234.08 95.1,-228.25 93.39,-235.04"/>
</g>
<!-- pressure -->
<g id="node3" class="node">
<title>pressure</title>
<path fill="white" stroke="black" d="M649.5,-178C649.5,-178 596.5,-178 596.5,-178 590.5,-178 584.5,-172 584.5,-166 584.5,-166 584.5,-154 584.5,-154 584.5,-148 590.5,-142 596.5,-142 596.5,-142 649.5,-142 649.5,-142 655.5,-142 661.5,-148 661.5,-154 661.5,-154 661.5,-166 661.5,-166 661.5,-172 655.5,-178 649.5,-178"/>
<text text-anchor="middle" x="623" y="-156.3" font-family="Helvetica,sans-Serif" font-size="14.00">pressure</text>
</g>
<!-- volt&#45;&gt;pressure -->
<g id="edge2" class="edge">
<title>volt&#45;&gt;pressure</title>
<path fill="none" stroke="black" stroke-width="1.2" d="M54.18,-205.8C105.39,-188.36 222.76,-151.04 325,-138 362.47,-133.22 372.26,-136.38 410,-138 466.52,-140.42 531.15,-147.8 574.04,-153.35"/>
<polygon fill="black" stroke="black" stroke-width="1.2" points="573.82,-156.85 584.19,-154.68 574.73,-149.91 573.82,-156.85"/>
</g>
<!-- err_error1 -->
<g id="node5" class="node">
<title>err_error1</title>
<path fill="white" stroke="black" d="M522.5,-238C522.5,-238 461.5,-238 461.5,-238 455.5,-238 449.5,-232 449.5,-226 449.5,-226 449.5,-214 449.5,-214 449.5,-208 455.5,-202 461.5,-202 461.5,-202 522.5,-202 522.5,-202 528.5,-202 534.5,-208 534.5,-214 534.5,-214 534.5,-226 534.5,-226 534.5,-232 528.5,-238 522.5,-238"/>
<text text-anchor="middle" x="492" y="-216.3" font-family="Helvetica,sans-Serif" font-size="14.00">err_error1</text>
</g>
<!-- volt&#45;&gt;err_error1 -->
<g id="edge4" class="edge">
<title>volt&#45;&gt;err_error1</title>
<path fill="none" stroke="black" stroke-width="1.2" d="M64.51,-214.31C72.88,-214.18 81.75,-214.07 90,-214 215.34,-212.99 362.71,-216.37 439.14,-218.46"/>
<polygon fill="black" stroke="black" stroke-width="1.2" points="64.19,-210.82 54.24,-214.48 64.3,-217.82 64.19,-210.82"/>
<polygon fill="black" stroke="black" stroke-width="1.2" points="439.34,-221.97 449.44,-218.75 439.54,-214.97 439.34,-221.97"/>
</g>
<!-- err_error2 -->
<g id="node6" class="node">
<title>err_error2</title>
<path fill="white" stroke="black" d="M787.5,-102C787.5,-102 726.5,-102 726.5,-102 720.5,-102 714.5,-96 714.5,-90 714.5,-90 714.5,-78 714.5,-78 714.5,-72 720.5,-66 726.5,-66 726.5,-66 787.5,-66 787.5,-66 793.5,-66 799.5,-72 799.5,-78 799.5,-78 799.5,-90 799.5,-90 799.5,-96 793.5,-102 787.5,-102"/>
<text text-anchor="middle" x="757" y="-80.3" font-family="Helvetica,sans-Serif" font-size="14.00">err_error2</text>
</g>
<!-- volt&#45;&gt;err_error2 -->
<g id="edge5" class="edge">
<title>volt&#45;&gt;err_error2</title>
<path fill="none" stroke="black" stroke-width="1.2" d="M44.33,-188.11C76.7,-138.59 154.13,-38 249,-38 249,-38 249,-38 368.5,-38 489.5,-38 630.27,-60.39 704.33,-73.93"/>
<polygon fill="black" stroke="black" stroke-width="1.2" points="41.26,-186.42 38.82,-196.72 47.16,-190.19 41.26,-186.42"/>
<polygon fill="black" stroke="black" stroke-width="1.2" points="703.86,-77.4 714.33,-75.78 705.14,-70.52 703.86,-77.4"/>
</g>
<!-- err_error4 -->
<g id="node8" class="node">
<title>err_error4</title>
<path fill="white" stroke="black" d="M921.5,-79C921.5,-79 860.5,-79 860.5,-79 854.5,-79 848.5,-73 848.5,-67 848.5,-67 848.5,-55 848.5,-55 848.5,-49 854.5,-43 860.5,-43 860.5,-43 921.5,-43 921.5,-43 927.5,-43 933.5,-49 933.5,-55 933.5,-55 933.5,-67 933.5,-67 933.5,-73 927.5,-79 921.5,-79"/>
<text text-anchor="middle" x="891" y="-57.3" font-family="Helvetica,sans-Serif" font-size="14.00">err_error4</text>
</g>
<!-- volt&#45;&gt;err_error4 -->
<g id="edge7" class="edge">
<title>volt&#45;&gt;err_error4</title>
<path fill="none" stroke="black" stroke-width="1.2" d="M30.04,-196.93C34.68,-164.12 49.04,-94.49 90,-55 143.83,-3.1 174.22,0 249,0 249,0 249,0 624,0 700.27,0 785.8,-24.12 838.79,-42.03"/>
<polygon fill="black" stroke="black" stroke-width="1.2" points="837.7,-45.35 848.29,-45.29 839.97,-38.73 837.7,-45.35"/>
</g>
<!-- mnt_comp4 -->
<g id="node13" class="node">
<title>mnt_comp4</title>
<path fill="white" stroke="black" d="M928,-520C928,-520 854,-520 854,-520 848,-520 842,-514 842,-508 842,-508 842,-496 842,-496 842,-490 848,-484 854,-484 854,-484 928,-484 928,-484 934,-484 940,-490 940,-496 940,-496 940,-508 940,-508 940,-514 934,-520 928,-520"/>
<text text-anchor="middle" x="891" y="-498.3" font-family="Helvetica,sans-Serif" font-size="14.00">mnt_comp4</text>
</g>
<!-- volt&#45;&gt;mnt_comp4 -->
<g id="edge10" class="edge">
<title>volt&#45;&gt;mnt_comp4</title>
<path fill="none" stroke="black" stroke-width="1.2" d="M29.68,-233.02C37.8,-308.34 79.72,-594 249,-594 249,-594 249,-594 624,-594 708.18,-594 799.53,-552.34 850.27,-525.08"/>
<polygon fill="black" stroke="black" stroke-width="1.2" points="852.16,-528.04 859.26,-520.18 848.81,-521.89 852.16,-528.04"/>
</g>
<!-- vibration -->
<g id="node4" class="node">
<title>vibration</title>
<path fill="white" stroke="black" d="M277,-368C277,-368 223,-368 223,-368 217,-368 211,-362 211,-356 211,-356 211,-344 211,-344 211,-338 217,-332 223,-332 223,-332 277,-332 277,-332 283,-332 289,-338 289,-344 289,-344 289,-356 289,-356 289,-362 283,-368 277,-368"/>
<text text-anchor="middle" x="250" y="-346.3" font-family="Helvetica,sans-Serif" font-size="14.00">vibration</text>
</g>
<!-- rotate&#45;&gt;vibration -->
<g id="edge11" class="edge">
<title>rotate&#45;&gt;vibration</title>
<path fill="none" stroke="black" stroke-width="1.2" d="M150.95,-259.16C166.4,-275.04 189.73,-298.54 211,-318 213.48,-320.27 216.09,-322.59 218.73,-324.9"/>
<polygon fill="black" stroke="black" stroke-width="1.2" points="216.77,-327.83 226.63,-331.69 221.33,-322.52 216.77,-327.83"/>
</g>
<!-- rotate&#45;&gt;err_error1 -->
<g id="edge12" class="edge">
<title>rotate&#45;&gt;err_error1</title>
<path fill="none" stroke="black" stroke-width="1.2" d="M171.43,-238.77C235.73,-235 366.19,-227.33 438.97,-223.06"/>
<polygon fill="black" stroke="black" stroke-width="1.2" points="171.03,-235.29 161.25,-239.37 171.44,-242.28 171.03,-235.29"/>
<polygon fill="black" stroke="black" stroke-width="1.2" points="439.49,-226.53 449.27,-222.45 439.08,-219.54 439.49,-226.53"/>
</g>
<!-- err_error3 -->
<g id="node7" class="node">
<title>err_error3</title>
<path fill="white" stroke="black" d="M398,-368C398,-368 337,-368 337,-368 331,-368 325,-362 325,-356 325,-356 325,-344 325,-344 325,-338 331,-332 337,-332 337,-332 398,-332 398,-332 404,-332 410,-338 410,-344 410,-344 410,-356 410,-356 410,-362 404,-368 398,-368"/>
<text text-anchor="middle" x="367.5" y="-346.3" font-family="Helvetica,sans-Serif" font-size="14.00">err_error3</text>
</g>
<!-- rotate&#45;&gt;err_error3 -->
<g id="edge13" class="edge">
<title>rotate&#45;&gt;err_error3</title>
<path fill="none" stroke="black" stroke-width="1.2" d="M170.33,-259.94C183.14,-266.42 197.65,-273.64 211,-280 245.76,-296.56 285.33,-314.36 315.86,-327.87"/>
<polygon fill="black" stroke="black" stroke-width="1.2" points="171.84,-256.78 161.34,-255.37 168.67,-263.02 171.84,-256.78"/>
<polygon fill="black" stroke="black" stroke-width="1.2" points="314.46,-331.08 325.02,-331.91 317.29,-324.67 314.46,-331.08"/>
</g>
<!-- mnt_comp3 -->
<g id="node12" class="node">
<title>mnt_comp3</title>
<path fill="white" stroke="black" d="M928,-284C928,-284 854,-284 854,-284 848,-284 842,-278 842,-272 842,-272 842,-260 842,-260 842,-254 848,-248 854,-248 854,-248 928,-248 928,-248 934,-248 940,-254 940,-260 940,-260 940,-272 940,-272 940,-278 934,-284 928,-284"/>
<text text-anchor="middle" x="891" y="-262.3" font-family="Helvetica,sans-Serif" font-size="14.00">mnt_comp3</text>
</g>
<!-- rotate&#45;&gt;mnt_comp3 -->
<g id="edge15" class="edge">
<title>rotate&#45;&gt;mnt_comp3</title>
<path fill="none" stroke="black" stroke-width="1.2" d="M161.02,-245.88C204.5,-253.16 291.85,-266 366.5,-266 366.5,-266 366.5,-266 624,-266 695.58,-266 778,-266 831.89,-266"/>
<polygon fill="black" stroke="black" stroke-width="1.2" points="831.95,-269.5 841.95,-266 831.95,-262.5 831.95,-269.5"/>
</g>
<!-- pressure&#45;&gt;err_error2 -->
<g id="edge17" class="edge">
<title>pressure&#45;&gt;err_error2</title>
<path fill="none" stroke="black" stroke-width="1.2" d="M655.28,-141.99C673.32,-131.61 696.18,-118.44 715.57,-107.28"/>
<polygon fill="black" stroke="black" stroke-width="1.2" points="717.57,-110.17 724.48,-102.15 714.07,-104.1 717.57,-110.17"/>
</g>
<!-- pressure&#45;&gt;err_error4 -->
<g id="edge18" class="edge">
<title>pressure&#45;&gt;err_error4</title>
<path fill="none" stroke="black" stroke-width="1.2" d="M671.72,-150.9C709.14,-142.89 762.06,-129.58 806,-111 822.83,-103.89 840.36,-93.91 855.02,-84.74"/>
<polygon fill="black" stroke="black" stroke-width="1.2" points="670.66,-147.55 661.59,-153.02 672.1,-154.4 670.66,-147.55"/>
<polygon fill="black" stroke="black" stroke-width="1.2" points="857.21,-87.5 863.75,-79.17 853.44,-81.6 857.21,-87.5"/>
</g>
<!-- mnt_comp1 -->
<g id="node10" class="node">
<title>mnt_comp1</title>
<path fill="white" stroke="black" d="M794,-452C794,-452 720,-452 720,-452 714,-452 708,-446 708,-440 708,-440 708,-428 708,-428 708,-422 714,-416 720,-416 720,-416 794,-416 794,-416 800,-416 806,-422 806,-428 806,-428 806,-440 806,-440 806,-446 800,-452 794,-452"/>
<text text-anchor="middle" x="757" y="-430.3" font-family="Helvetica,sans-Serif" font-size="14.00">mnt_comp1</text>
</g>
<!-- pressure&#45;&gt;mnt_comp1 -->
<g id="edge19" class="edge">
<title>pressure&#45;&gt;mnt_comp1</title>
<path fill="none" stroke="black" stroke-width="1.2" d="M632.87,-178.4C655.55,-225.49 715.8,-350.56 742.7,-406.4"/>
<polygon fill="black" stroke="black" stroke-width="1.2" points="739.68,-408.19 747.17,-415.68 745.99,-405.15 739.68,-408.19"/>
</g>
<!-- vibration&#45;&gt;volt -->
<g id="edge3" class="edge">
<title>vibration&#45;&gt;volt</title>
<path fill="none" stroke="black" stroke-width="1.2" d="M211,-333.43C177.89,-318.3 129.18,-294.33 90,-268 77.73,-259.75 65.16,-249.42 54.57,-240.07"/>
<polygon fill="black" stroke="black" stroke-width="1.2" points="56.67,-237.26 46.9,-233.17 51.99,-242.46 56.67,-237.26"/>
</g>
<!-- vibration&#45;&gt;err_error1 -->
<g id="edge22" class="edge">
<title>vibration&#45;&gt;err_error1</title>
<path fill="none" stroke="black" stroke-width="1.2" d="M284.37,-331.92C327.24,-308.7 401.68,-268.38 448.54,-243"/>
<polygon fill="black" stroke="black" stroke-width="1.2" points="450.4,-245.97 457.53,-238.13 447.07,-239.82 450.4,-245.97"/>
</g>
<!-- vibration&#45;&gt;err_error3 -->
<g id="edge23" class="edge">
<title>vibration&#45;&gt;err_error3</title>
<path fill="none" stroke="black" stroke-width="1.2" d="M289.14,-350C297.36,-350 306.18,-350 314.81,-350"/>
<polygon fill="black" stroke="black" stroke-width="1.2" points="314.82,-353.5 324.82,-350 314.82,-346.5 314.82,-353.5"/>
</g>
<!-- err_error1&#45;&gt;pressure -->
<g id="edge16" class="edge">
<title>err_error1&#45;&gt;pressure</title>
<path fill="none" stroke="black" stroke-width="1.2" d="M531.7,-202C545.34,-195.66 560.82,-188.46 575.06,-181.83"/>
<polygon fill="black" stroke="black" stroke-width="1.2" points="576.62,-184.97 584.21,-177.58 573.67,-178.62 576.62,-184.97"/>
</g>
<!-- err_error2&#45;&gt;err_error4 -->
<g id="edge26" class="edge">
<title>err_error2&#45;&gt;err_error4</title>
<path fill="none" stroke="black" stroke-width="1.2" d="M799.77,-76.72C811.92,-74.6 825.36,-72.26 838.06,-70.05"/>
<polygon fill="black" stroke="black" stroke-width="1.2" points="838.8,-73.47 848.05,-68.31 837.6,-66.58 838.8,-73.47"/>
</g>
<!-- err_error3&#45;&gt;volt -->
<g id="edge6" class="edge">
<title>err_error3&#45;&gt;volt</title>
<path fill="none" stroke="black" stroke-width="1.2" d="M328.2,-368.14C270.96,-392.31 162.12,-426.62 90,-377 46.19,-346.86 33.32,-281.23 29.55,-243.4"/>
<polygon fill="black" stroke="black" stroke-width="1.2" points="33.01,-242.75 28.68,-233.08 26.03,-243.34 33.01,-242.75"/>
</g>
<!-- err_error3&#45;&gt;err_error1 -->
<g id="edge25" class="edge">
<title>err_error3&#45;&gt;err_error1</title>
<path fill="none" stroke="black" stroke-width="1.2" d="M393.83,-331.91C399.35,-327.58 405.03,-322.81 410,-318 433.19,-295.58 456.3,-266.83 471.86,-246.27"/>
<polygon fill="black" stroke="black" stroke-width="1.2" points="474.86,-248.11 478.05,-238.01 469.25,-243.92 474.86,-248.11"/>
</g>
<!-- err_error4&#45;&gt;rotate -->
<g id="edge14" class="edge">
<title>err_error4&#45;&gt;rotate</title>
<path fill="none" stroke="black" stroke-width="1.2" d="M848.16,-55.92C811.09,-52.4 755.62,-49.56 708,-57 498.09,-89.79 260.11,-186.15 170.35,-224.74"/>
<polygon fill="black" stroke="black" stroke-width="1.2" points="168.93,-221.55 161.14,-228.73 171.71,-227.97 168.93,-221.55"/>
</g>
<!-- err_error5 -->
<g id="node9" class="node">
<title>err_error5</title>
<path fill="white" stroke="black" d="M163,-368C163,-368 102,-368 102,-368 96,-368 90,-362 90,-356 90,-356 90,-344 90,-344 90,-338 96,-332 102,-332 102,-332 163,-332 163,-332 169,-332 175,-338 175,-344 175,-344 175,-356 175,-356 175,-362 169,-368 163,-368"/>
<text text-anchor="middle" x="132.5" y="-346.3" font-family="Helvetica,sans-Serif" font-size="14.00">err_error5</text>
</g>
<!-- err_error5&#45;&gt;vibration -->
<g id="edge24" class="edge">
<title>err_error5&#45;&gt;vibration</title>
<path fill="none" stroke="black" stroke-width="1.2" d="M175.2,-350C183.47,-350 192.21,-350 200.68,-350"/>
<polygon fill="black" stroke="black" stroke-width="1.2" points="200.82,-353.5 210.82,-350 200.82,-346.5 200.82,-353.5"/>
</g>
<!-- fail_comp3 -->
<g id="node14" class="node">
<title>fail_comp3</title>
<path fill="white" stroke="black" d="M526,-444C526,-444 458,-444 458,-444 452,-444 446,-438 446,-432 446,-432 446,-420 446,-420 446,-414 452,-408 458,-408 458,-408 526,-408 526,-408 532,-408 538,-414 538,-420 538,-420 538,-432 538,-432 538,-438 532,-444 526,-444"/>
<text text-anchor="middle" x="492" y="-422.3" font-family="Helvetica,sans-Serif" font-size="14.00">fail_comp3</text>
</g>
<!-- err_error5&#45;&gt;fail_comp3 -->
<g id="edge28" class="edge">
<title>err_error5&#45;&gt;fail_comp3</title>
<path fill="none" stroke="black" stroke-width="1.2" d="M175.35,-365.97C186.8,-369.95 199.28,-373.95 211,-377 287.89,-396.98 378.8,-411.21 435.69,-419.02"/>
<polygon fill="black" stroke="black" stroke-width="1.2" points="435.53,-422.53 445.91,-420.4 436.47,-415.59 435.53,-422.53"/>
</g>
<!-- mnt_comp1&#45;&gt;volt -->
<g id="edge8" class="edge">
<title>mnt_comp1&#45;&gt;volt</title>
<path fill="none" stroke="black" stroke-width="1.2" d="M707.82,-441.78C634.69,-452.9 491.19,-472 368.5,-472 249,-472 249,-472 249,-472 171.97,-472 141.94,-459.89 90,-403 48.5,-357.55 34.72,-283.69 30.19,-243.41"/>
<polygon fill="black" stroke="black" stroke-width="1.2" points="33.65,-242.82 29.16,-233.22 26.68,-243.52 33.65,-242.82"/>
</g>
<!-- mnt_comp1&#45;&gt;mnt_comp3 -->
<g id="edge29" class="edge">
<title>mnt_comp1&#45;&gt;mnt_comp3</title>
<path fill="none" stroke="black" stroke-width="1.2" d="M789.48,-415.86C795.33,-411.72 801.13,-407.04 806,-402 837.53,-369.36 863.05,-322.93 877.38,-293.65"/>
<polygon fill="black" stroke="black" stroke-width="1.2" points="880.63,-294.95 881.8,-284.41 874.32,-291.92 880.63,-294.95"/>
</g>
<!-- mnt_comp1&#45;&gt;mnt_comp4 -->
<g id="edge30" class="edge">
<title>mnt_comp1&#45;&gt;mnt_comp4</title>
<path fill="none" stroke="black" stroke-width="1.2" d="M793.03,-452.04C809.14,-460.34 828.43,-470.28 845.56,-479.1"/>
<polygon fill="black" stroke="black" stroke-width="1.2" points="844.32,-482.4 854.81,-483.87 847.52,-476.18 844.32,-482.4"/>
</g>
<!-- mnt_comp2 -->
<g id="node11" class="node">
<title>mnt_comp2</title>
<path fill="white" stroke="black" d="M660,-566C660,-566 586,-566 586,-566 580,-566 574,-560 574,-554 574,-554 574,-542 574,-542 574,-536 580,-530 586,-530 586,-530 660,-530 660,-530 666,-530 672,-536 672,-542 672,-542 672,-554 672,-554 672,-560 666,-566 660,-566"/>
<text text-anchor="middle" x="623" y="-544.3" font-family="Helvetica,sans-Serif" font-size="14.00">mnt_comp2</text>
</g>
<!-- mnt_comp2&#45;&gt;mnt_comp4 -->
<g id="edge32" class="edge">
<title>mnt_comp2&#45;&gt;mnt_comp4</title>
<path fill="none" stroke="black" stroke-width="1.2" d="M672.17,-539.67C717.04,-531.91 784.01,-520.33 831.84,-512.06"/>
<polygon fill="black" stroke="black" stroke-width="1.2" points="832.48,-515.5 841.74,-510.35 831.29,-508.6 832.48,-515.5"/>
</g>
<!-- mnt_comp3&#45;&gt;volt -->
<g id="edge9" class="edge">
<title>mnt_comp3&#45;&gt;volt</title>
<path fill="none" stroke="black" stroke-width="1.2" d="M841.81,-252.73C774.45,-234.94 648.05,-204.29 538,-193 360.88,-174.83 147.65,-198.73 64.08,-209.86"/>
<polygon fill="black" stroke="black" stroke-width="1.2" points="63.53,-206.4 54.09,-211.21 64.46,-213.34 63.53,-206.4"/>
</g>
<!-- mnt_comp3&#45;&gt;pressure -->
<g id="edge20" class="edge">
<title>mnt_comp3&#45;&gt;pressure</title>
<path fill="none" stroke="black" stroke-width="1.2" d="M874.96,-247.95C859.51,-230.69 833.85,-205.39 806,-192 763.58,-171.61 710.01,-164.08 672,-161.37"/>
<polygon fill="black" stroke="black" stroke-width="1.2" points="671.91,-157.85 661.71,-160.72 671.47,-164.84 671.91,-157.85"/>
</g>
<!-- mnt_comp4&#45;&gt;err_error3 -->
<g id="edge27" class="edge">
<title>mnt_comp4&#45;&gt;err_error3</title>
<path fill="none" stroke="black" stroke-width="1.2" d="M879.61,-483.76C865.87,-461.54 839.44,-424.76 806,-407 680.05,-340.12 505.89,-340.37 420.27,-345.48"/>
<polygon fill="black" stroke="black" stroke-width="1.2" points="420.03,-341.99 410.28,-346.13 420.48,-348.98 420.03,-341.99"/>
</g>
<!-- fail_comp3&#45;&gt;pressure -->
<g id="edge21" class="edge">
<title>fail_comp3&#45;&gt;pressure</title>
<path fill="none" stroke="black" stroke-width="1.2" d="M501.87,-407.72C524.15,-361.76 582.6,-241.25 608.87,-187.07"/>
<polygon fill="black" stroke="black" stroke-width="1.2" points="612.03,-188.58 613.24,-178.06 605.73,-185.53 612.03,-188.58"/>
</g>
<!-- fail_comp3&#45;&gt;mnt_comp1 -->
<g id="edge31" class="edge">
<title>fail_comp3&#45;&gt;mnt_comp1</title>
<path fill="none" stroke="black" stroke-width="1.2" d="M538.21,-427.38C582.27,-428.72 649.46,-430.76 697.56,-432.22"/>
<polygon fill="black" stroke="black" stroke-width="1.2" points="697.72,-435.73 707.82,-432.53 697.93,-428.73 697.72,-435.73"/>
</g>
<!-- fail_comp3&#45;&gt;mnt_comp2 -->
<g id="edge33" class="edge">
<title>fail_comp3&#45;&gt;mnt_comp2</title>
<path fill="none" stroke="black" stroke-width="1.2" d="M507.04,-444.13C522.33,-463.23 548.08,-493.59 574,-516 577.2,-518.76 580.64,-521.49 584.17,-524.1"/>
<polygon fill="black" stroke="black" stroke-width="1.2" points="582.29,-527.06 592.47,-530 586.34,-521.35 582.29,-527.06"/>
</g>
<!-- fail_comp3&#45;&gt;mnt_comp3 -->
<g id="edge34" class="edge">
<title>fail_comp3&#45;&gt;mnt_comp3</title>
<path fill="none" stroke="black" stroke-width="1.2" d="M537.77,-407.96C611.14,-378.39 756.69,-319.73 835.78,-287.85"/>
<polygon fill="black" stroke="black" stroke-width="1.2" points="837.12,-291.08 845.09,-284.1 834.51,-284.59 837.12,-291.08"/>
</g>
<!-- fail_comp3&#45;&gt;mnt_comp4 -->
<g id="edge35" class="edge">
<title>fail_comp3&#45;&gt;mnt_comp4</title>
<path fill="none" stroke="black" stroke-width="1.2" d="M538.35,-436.39C549.95,-438.96 562.42,-441.65 574,-444 663.71,-462.19 768.27,-480.9 831.77,-491.98"/>
<polygon fill="black" stroke="black" stroke-width="1.2" points="831.53,-495.49 841.98,-493.76 832.73,-488.59 831.53,-495.49"/>
</g>
</g>
</svg>
