<?xml version="1.0" encoding="UTF-8" standalone="no"?>
<!DOCTYPE svg PUBLIC "-//W3C//DTD SVG 1.1//EN"
 "http://www.w3.org/Graphics/SVG/1.1/DTD/svg11.dtd">
<!-- Generated by graphviz version 2.50.0 (0)
 -->
<!-- Title: G Pages: 1 -->
<svg width="444pt" height="178pt"
 viewBox="0.00 0.00 444.00 178.00" xmlns="http://www.w3.org/2000/svg" xmlns:xlink="http://www.w3.org/1999/xlink">
<g id="graph0" class="graph" transform="scale(1 1) rotate(0) translate(4 174)">
<title>G</title>
<polygon fill="white" stroke="transparent" points="-4,4 -4,-174 440,-174 440,4 -4,4"/>
<text text-anchor="middle" x="218" y="-153.2" font-family="Times,serif" font-size="16.00">model=model3/cbnb_w_telemetry.json [machine 7]</text>
<!-- volt -->
<g id="node1" class="node">
<title>volt</title>
<path fill="white" stroke="black" d="M176,-36C176,-36 146,-36 146,-36 140,-36 134,-30 134,-24 134,-24 134,-12 134,-12 134,-6 140,0 146,0 146,0 176,0 176,0 182,0 188,-6 188,-12 188,-12 188,-24 188,-24 188,-30 182,-36 176,-36"/>
<text text-anchor="middle" x="161" y="-14.3" font-family="Helvetica,sans-Serif" font-size="14.00">volt</text>
</g>
<!-- rotate -->
<g id="node2" class="node">
<title>rotate</title>
<path fill="white" stroke="black" d="M177.5,-90C177.5,-90 144.5,-90 144.5,-90 138.5,-90 132.5,-84 132.5,-78 132.5,-78 132.5,-66 132.5,-66 132.5,-60 138.5,-54 144.5,-54 144.5,-54 177.5,-54 177.5,-54 183.5,-54 189.5,-60 189.5,-66 189.5,-66 189.5,-78 189.5,-78 189.5,-84 183.5,-90 177.5,-90"/>
<text text-anchor="middle" x="161" y="-68.3" font-family="Helvetica,sans-Serif" font-size="14.00">rotate</text>
</g>
<!-- vibration -->
<g id="node4" class="node">
<title>vibration</title>
<path fill="white" stroke="black" d="M301.5,-90C301.5,-90 247.5,-90 247.5,-90 241.5,-90 235.5,-84 235.5,-78 235.5,-78 235.5,-66 235.5,-66 235.5,-60 241.5,-54 247.5,-54 247.5,-54 301.5,-54 301.5,-54 307.5,-54 313.5,-60 313.5,-66 313.5,-66 313.5,-78 313.5,-78 313.5,-84 307.5,-90 301.5,-90"/>
<text text-anchor="middle" x="274.5" y="-68.3" font-family="Helvetica,sans-Serif" font-size="14.00">vibration</text>
</g>
<!-- rotate&#45;&gt;vibration -->
<g id="edge1" class="edge">
<title>rotate&#45;&gt;vibration</title>
<path fill="none" stroke="black" stroke-width="1.2" d="M199.72,-72C207.88,-72 216.61,-72 225.12,-72"/>
<polygon fill="black" stroke="black" stroke-width="1.2" points="199.56,-68.5 189.56,-72 199.56,-75.5 199.56,-68.5"/>
<polygon fill="black" stroke="black" stroke-width="1.2" points="225.32,-75.5 235.32,-72 225.32,-68.5 225.32,-75.5"/>
</g>
<!-- pressure -->
<g id="node3" class="node">
<title>pressure</title>
<path fill="white" stroke="black" d="M187.5,-144C187.5,-144 134.5,-144 134.5,-144 128.5,-144 122.5,-138 122.5,-132 122.5,-132 122.5,-120 122.5,-120 122.5,-114 128.5,-108 134.5,-108 134.5,-108 187.5,-108 187.5,-108 193.5,-108 199.5,-114 199.5,-120 199.5,-120 199.5,-132 199.5,-132 199.5,-138 193.5,-144 187.5,-144"/>
<text text-anchor="middle" x="161" y="-122.3" font-family="Helvetica,sans-Serif" font-size="14.00">pressure</text>
</g>
</g>
</svg>
