<?xml version="1.0" encoding="UTF-8" standalone="no"?>
<!DOCTYPE svg PUBLIC "-//W3C//DTD SVG 1.1//EN"
 "http://www.w3.org/Graphics/SVG/1.1/DTD/svg11.dtd">
<!-- Generated by graphviz version 2.50.0 (0)
 -->
<!-- Title: G Pages: 1 -->
<svg width="454pt" height="124pt"
 viewBox="0.00 0.00 454.00 124.00" xmlns="http://www.w3.org/2000/svg" xmlns:xlink="http://www.w3.org/1999/xlink">
<g id="graph0" class="graph" transform="scale(1 1) rotate(0) translate(4 120)">
<title>G</title>
<polygon fill="white" stroke="transparent" points="-4,4 -4,-120 450,-120 450,4 -4,4"/>
<text text-anchor="middle" x="223" y="-99.2" font-family="Times,serif" font-size="16.00">model=model4/cbnb_w_telemetry.json [machine 41]</text>
<!-- volt -->
<g id="node1" class="node">
<title>volt</title>
<path fill="white" stroke="black" d="M248,-90C248,-90 218,-90 218,-90 212,-90 206,-84 206,-78 206,-78 206,-66 206,-66 206,-60 212,-54 218,-54 218,-54 248,-54 248,-54 254,-54 260,-60 260,-66 260,-66 260,-78 260,-78 260,-84 254,-90 248,-90"/>
<text text-anchor="middle" x="233" y="-68.3" font-family="Helvetica,sans-Serif" font-size="14.00">volt</text>
</g>
<!-- rotate -->
<g id="node2" class="node">
<title>rotate</title>
<path fill="white" stroke="black" d="M353,-63C353,-63 320,-63 320,-63 314,-63 308,-57 308,-51 308,-51 308,-39 308,-39 308,-33 314,-27 320,-27 320,-27 353,-27 353,-27 359,-27 365,-33 365,-39 365,-39 365,-51 365,-51 365,-57 359,-63 353,-63"/>
<text text-anchor="middle" x="336.5" y="-41.3" font-family="Helvetica,sans-Serif" font-size="14.00">rotate</text>
</g>
<!-- volt&#45;&gt;rotate -->
<g id="edge1" class="edge">
<title>volt&#45;&gt;rotate</title>
<path fill="none" stroke="black" stroke-width="1.2" d="M260.14,-65.05C271.63,-61.99 285.35,-58.34 297.91,-55"/>
<polygon fill="black" stroke="black" stroke-width="1.2" points="298.91,-58.36 307.67,-52.4 297.11,-51.59 298.91,-58.36"/>
</g>
<!-- pressure -->
<g id="node3" class="node">
<title>pressure</title>
<path fill="white" stroke="black" d="M146,-36C146,-36 93,-36 93,-36 87,-36 81,-30 81,-24 81,-24 81,-12 81,-12 81,-6 87,0 93,0 93,0 146,0 146,0 152,0 158,-6 158,-12 158,-12 158,-24 158,-24 158,-30 152,-36 146,-36"/>
<text text-anchor="middle" x="119.5" y="-14.3" font-family="Helvetica,sans-Serif" font-size="14.00">pressure</text>
</g>
<!-- vibration -->
<g id="node4" class="node">
<title>vibration</title>
<path fill="white" stroke="black" d="M260,-36C260,-36 206,-36 206,-36 200,-36 194,-30 194,-24 194,-24 194,-12 194,-12 194,-6 200,0 206,0 206,0 260,0 260,0 266,0 272,-6 272,-12 272,-12 272,-24 272,-24 272,-30 266,-36 260,-36"/>
<text text-anchor="middle" x="233" y="-14.3" font-family="Helvetica,sans-Serif" font-size="14.00">vibration</text>
</g>
<!-- pressure&#45;&gt;vibration -->
<g id="edge3" class="edge">
<title>pressure&#45;&gt;vibration</title>
<path fill="none" stroke="black" stroke-width="1.2" d="M168.45,-18C173.51,-18 178.65,-18 183.7,-18"/>
<polygon fill="black" stroke="black" stroke-width="1.2" points="168.25,-14.5 158.25,-18 168.25,-21.5 168.25,-14.5"/>
<polygon fill="black" stroke="black" stroke-width="1.2" points="183.91,-21.5 193.91,-18 183.91,-14.5 183.91,-21.5"/>
</g>
<!-- vibration&#45;&gt;rotate -->
<g id="edge2" class="edge">
<title>vibration&#45;&gt;rotate</title>
<path fill="none" stroke="black" stroke-width="1.2" d="M272.08,-28.13C280.66,-30.41 289.74,-32.83 298.28,-35.1"/>
<polygon fill="black" stroke="black" stroke-width="1.2" points="297.42,-38.49 307.98,-37.68 299.22,-31.73 297.42,-38.49"/>
</g>
</g>
</svg>
