<?xml version="1.0" encoding="UTF-8" standalone="no"?>
<!DOCTYPE svg PUBLIC "-//W3C//DTD SVG 1.1//EN"
 "http://www.w3.org/Graphics/SVG/1.1/DTD/svg11.dtd">
<!-- Generated by graphviz version 2.50.0 (0)
 -->
<!-- Title: G Pages: 1 -->
<svg width="454pt" height="107pt"
 viewBox="0.00 0.00 454.00 107.20" xmlns="http://www.w3.org/2000/svg" xmlns:xlink="http://www.w3.org/1999/xlink">
<g id="graph0" class="graph" transform="scale(1 1) rotate(0) translate(4 103.2)">
<title>G</title>
<polygon fill="white" stroke="transparent" points="-4,4 -4,-103.2 450,-103.2 450,4 -4,4"/>
<text text-anchor="middle" x="223" y="-82.4" font-family="Times,serif" font-size="16.00">model=model3/cbnb_w_telemetry.json [machine 52]</text>
<!-- volt -->
<g id="node1" class="node">
<title>volt</title>
<path fill="white" stroke="black" d="M192,-59C192,-59 162,-59 162,-59 156,-59 150,-53 150,-47 150,-47 150,-35 150,-35 150,-29 156,-23 162,-23 162,-23 192,-23 192,-23 198,-23 204,-29 204,-35 204,-35 204,-47 204,-47 204,-53 198,-59 192,-59"/>
<text text-anchor="middle" x="177" y="-37.3" font-family="Helvetica,sans-Serif" font-size="14.00">volt</text>
</g>
<!-- rotate -->
<g id="node2" class="node">
<title>rotate</title>
<path fill="white" stroke="black" d="M398,-59C398,-59 365,-59 365,-59 359,-59 353,-53 353,-47 353,-47 353,-35 353,-35 353,-29 359,-23 365,-23 365,-23 398,-23 398,-23 404,-23 410,-29 410,-35 410,-35 410,-47 410,-47 410,-53 404,-59 398,-59"/>
<text text-anchor="middle" x="381.5" y="-37.3" font-family="Helvetica,sans-Serif" font-size="14.00">rotate</text>
</g>
<!-- volt&#45;&gt;rotate -->
<g id="edge1" class="edge">
<title>volt&#45;&gt;rotate</title>
<path fill="none" stroke="black" stroke-width="1.2" d="M213.32,-59.34C221.84,-62.92 231.06,-66.14 240,-68 273.5,-74.98 283.47,-74.83 317,-68 325.87,-66.19 335.04,-63.1 343.55,-59.64"/>
<polygon fill="black" stroke="black" stroke-width="1.2" points="214.62,-56.08 204.06,-55.19 211.76,-62.47 214.62,-56.08"/>
<polygon fill="black" stroke="black" stroke-width="1.2" points="345.05,-62.8 352.84,-55.62 342.27,-56.38 345.05,-62.8"/>
</g>
<!-- pressure -->
<g id="node3" class="node">
<title>pressure</title>
<path fill="white" stroke="black" d="M305,-59C305,-59 252,-59 252,-59 246,-59 240,-53 240,-47 240,-47 240,-35 240,-35 240,-29 246,-23 252,-23 252,-23 305,-23 305,-23 311,-23 317,-29 317,-35 317,-35 317,-47 317,-47 317,-53 311,-59 305,-59"/>
<text text-anchor="middle" x="278.5" y="-37.3" font-family="Helvetica,sans-Serif" font-size="14.00">pressure</text>
</g>
<!-- volt&#45;&gt;pressure -->
<g id="edge2" class="edge">
<title>volt&#45;&gt;pressure</title>
<path fill="none" stroke="black" stroke-width="1.2" d="M204.14,-41C212.01,-41 220.89,-41 229.7,-41"/>
<polygon fill="black" stroke="black" stroke-width="1.2" points="229.93,-44.5 239.93,-41 229.93,-37.5 229.93,-44.5"/>
</g>
<!-- pressure&#45;&gt;rotate -->
<g id="edge4" class="edge">
<title>pressure&#45;&gt;rotate</title>
<path fill="none" stroke="black" stroke-width="1.2" d="M317.11,-41C325.47,-41 334.33,-41 342.7,-41"/>
<polygon fill="black" stroke="black" stroke-width="1.2" points="342.96,-44.5 352.96,-41 342.96,-37.5 342.96,-44.5"/>
</g>
<!-- vibration -->
<g id="node4" class="node">
<title>vibration</title>
<path fill="white" stroke="black" d="M102,-36C102,-36 48,-36 48,-36 42,-36 36,-30 36,-24 36,-24 36,-12 36,-12 36,-6 42,0 48,0 48,0 102,0 102,0 108,0 114,-6 114,-12 114,-12 114,-24 114,-24 114,-30 108,-36 102,-36"/>
<text text-anchor="middle" x="75" y="-14.3" font-family="Helvetica,sans-Serif" font-size="14.00">vibration</text>
</g>
<!-- vibration&#45;&gt;volt -->
<g id="edge3" class="edge">
<title>vibration&#45;&gt;volt</title>
<path fill="none" stroke="black" stroke-width="1.2" d="M114.09,-26.76C122.57,-28.71 131.53,-30.77 139.92,-32.7"/>
<polygon fill="black" stroke="black" stroke-width="1.2" points="139.27,-36.14 149.8,-34.97 140.84,-29.32 139.27,-36.14"/>
</g>
<!-- vibration&#45;&gt;rotate -->
<g id="edge5" class="edge">
<title>vibration&#45;&gt;rotate</title>
<path fill="none" stroke="black" stroke-width="1.2" d="M114.03,-12.35C161.93,-6.37 246.47,0.37 317,-14 325.87,-15.81 335.04,-18.9 343.55,-22.36"/>
<polygon fill="black" stroke="black" stroke-width="1.2" points="342.27,-25.62 352.84,-26.38 345.05,-19.2 342.27,-25.62"/>
</g>
</g>
</svg>
