<?xml version="1.0" encoding="UTF-8" standalone="no"?>
<!DOCTYPE svg PUBLIC "-//W3C//DTD SVG 1.1//EN"
 "http://www.w3.org/Graphics/SVG/1.1/DTD/svg11.dtd">
<!-- Generated by graphviz version 2.50.0 (0)
 -->
<!-- Title: G Pages: 1 -->
<svg width="1296pt" height="720pt"
 viewBox="0.00 0.00 1296.00 720.00" xmlns="http://www.w3.org/2000/svg" xmlns:xlink="http://www.w3.org/1999/xlink">
<g id="graph0" class="graph" transform="scale(1 1) rotate(0) translate(4 716)">
<title>G</title>
<polygon fill="white" stroke="transparent" points="-4,4 -4,-716 1292,-716 1292,4 -4,4"/>
<text text-anchor="middle" x="644" y="-695.2" font-family="Times,serif" font-size="16.00">model=model3/cbnb_w_mixed.json [machine 84]</text>
<!-- volt -->
<g id="node1" class="node">
<title>volt</title>
<path fill="white" stroke="black" d="M163,-391C163,-391 133,-391 133,-391 127,-391 121,-385 121,-379 121,-379 121,-367 121,-367 121,-361 127,-355 133,-355 133,-355 163,-355 163,-355 169,-355 175,-361 175,-367 175,-367 175,-379 175,-379 175,-385 169,-391 163,-391"/>
<text text-anchor="middle" x="148" y="-369.3" font-family="Helvetica,sans-Serif" font-size="14.00">volt</text>
</g>
<!-- pressure -->
<g id="node3" class="node">
<title>pressure</title>
<path fill="white" stroke="black" d="M548.5,-292C548.5,-292 495.5,-292 495.5,-292 489.5,-292 483.5,-286 483.5,-280 483.5,-280 483.5,-268 483.5,-268 483.5,-262 489.5,-256 495.5,-256 495.5,-256 548.5,-256 548.5,-256 554.5,-256 560.5,-262 560.5,-268 560.5,-268 560.5,-280 560.5,-280 560.5,-286 554.5,-292 548.5,-292"/>
<text text-anchor="middle" x="522" y="-270.3" font-family="Helvetica,sans-Serif" font-size="14.00">pressure</text>
</g>
<!-- volt&#45;&gt;pressure -->
<g id="edge2" class="edge">
<title>volt&#45;&gt;pressure</title>
<path fill="none" stroke="black" stroke-width="1.2" d="M175.16,-366.04C237.25,-349.51 394.24,-307.73 473.57,-286.62"/>
<polygon fill="black" stroke="black" stroke-width="1.2" points="474.54,-289.99 483.31,-284.03 472.74,-283.22 474.54,-289.99"/>
</g>
<!-- fail_comp1 -->
<g id="node14" class="node">
<title>fail_comp1</title>
<path fill="white" stroke="black" d="M291,-471C291,-471 223,-471 223,-471 217,-471 211,-465 211,-459 211,-459 211,-447 211,-447 211,-441 217,-435 223,-435 223,-435 291,-435 291,-435 297,-435 303,-441 303,-447 303,-447 303,-459 303,-459 303,-465 297,-471 291,-471"/>
<text text-anchor="middle" x="257" y="-449.3" font-family="Helvetica,sans-Serif" font-size="14.00">fail_comp1</text>
</g>
<!-- volt&#45;&gt;fail_comp1 -->
<g id="edge5" class="edge">
<title>volt&#45;&gt;fail_comp1</title>
<path fill="none" stroke="black" stroke-width="1.2" d="M173.28,-391.15C188.19,-402.3 207.47,-416.72 223.67,-428.83"/>
<polygon fill="black" stroke="black" stroke-width="1.2" points="221.71,-431.73 231.82,-434.92 225.9,-426.13 221.71,-431.73"/>
</g>
<!-- rotate -->
<g id="node2" class="node">
<title>rotate</title>
<path fill="white" stroke="black" d="M766,-406C766,-406 733,-406 733,-406 727,-406 721,-400 721,-394 721,-394 721,-382 721,-382 721,-376 727,-370 733,-370 733,-370 766,-370 766,-370 772,-370 778,-376 778,-382 778,-382 778,-394 778,-394 778,-400 772,-406 766,-406"/>
<text text-anchor="middle" x="749.5" y="-384.3" font-family="Helvetica,sans-Serif" font-size="14.00">rotate</text>
</g>
<!-- rotate&#45;&gt;volt -->
<g id="edge1" class="edge">
<title>rotate&#45;&gt;volt</title>
<path fill="none" stroke="black" stroke-width="1.2" d="M720.73,-388C678.17,-388 594.25,-388 523,-388 387,-388 387,-388 387,-388 315.37,-388 231.84,-381.15 185.23,-376.71"/>
<polygon fill="black" stroke="black" stroke-width="1.2" points="185.32,-373.2 175.03,-375.72 184.64,-380.17 185.32,-373.2"/>
</g>
<!-- err_error1 -->
<g id="node5" class="node">
<title>err_error1</title>
<path fill="white" stroke="black" d="M1008,-208C1008,-208 947,-208 947,-208 941,-208 935,-202 935,-196 935,-196 935,-184 935,-184 935,-178 941,-172 947,-172 947,-172 1008,-172 1008,-172 1014,-172 1020,-178 1020,-184 1020,-184 1020,-196 1020,-196 1020,-202 1014,-208 1008,-208"/>
<text text-anchor="middle" x="977.5" y="-186.3" font-family="Helvetica,sans-Serif" font-size="14.00">err_error1</text>
</g>
<!-- rotate&#45;&gt;err_error1 -->
<g id="edge7" class="edge">
<title>rotate&#45;&gt;err_error1</title>
<path fill="none" stroke="black" stroke-width="1.2" d="M778.23,-388.36C810.61,-387.37 864.17,-381.12 899,-353 941.72,-318.51 962.26,-254.88 970.98,-218.15"/>
<polygon fill="black" stroke="black" stroke-width="1.2" points="974.46,-218.64 973.22,-208.12 967.62,-217.11 974.46,-218.64"/>
</g>
<!-- err_error3 -->
<g id="node7" class="node">
<title>err_error3</title>
<path fill="white" stroke="black" d="M887,-344C887,-344 826,-344 826,-344 820,-344 814,-338 814,-332 814,-332 814,-320 814,-320 814,-314 820,-308 826,-308 826,-308 887,-308 887,-308 893,-308 899,-314 899,-320 899,-320 899,-332 899,-332 899,-338 893,-344 887,-344"/>
<text text-anchor="middle" x="856.5" y="-322.3" font-family="Helvetica,sans-Serif" font-size="14.00">err_error3</text>
</g>
<!-- rotate&#45;&gt;err_error3 -->
<g id="edge8" class="edge">
<title>rotate&#45;&gt;err_error3</title>
<path fill="none" stroke="black" stroke-width="1.2" d="M786.81,-366.56C796.28,-360.97 806.53,-354.91 816.15,-349.23"/>
<polygon fill="black" stroke="black" stroke-width="1.2" points="784.92,-363.61 778.09,-371.71 788.48,-369.64 784.92,-363.61"/>
<polygon fill="black" stroke="black" stroke-width="1.2" points="817.94,-352.24 824.77,-344.15 814.38,-346.22 817.94,-352.24"/>
</g>
<!-- err_error4 -->
<g id="node8" class="node">
<title>err_error4</title>
<path fill="white" stroke="black" d="M887,-284C887,-284 826,-284 826,-284 820,-284 814,-278 814,-272 814,-272 814,-260 814,-260 814,-254 820,-248 826,-248 826,-248 887,-248 887,-248 893,-248 899,-254 899,-260 899,-260 899,-272 899,-272 899,-278 893,-284 887,-284"/>
<text text-anchor="middle" x="856.5" y="-262.3" font-family="Helvetica,sans-Serif" font-size="14.00">err_error4</text>
</g>
<!-- rotate&#45;&gt;err_error4 -->
<g id="edge9" class="edge">
<title>rotate&#45;&gt;err_error4</title>
<path fill="none" stroke="black" stroke-width="1.2" d="M761.33,-369.83C773.02,-351.02 792.83,-321.3 814,-299 816.7,-296.15 819.66,-293.34 822.7,-290.62"/>
<polygon fill="black" stroke="black" stroke-width="1.2" points="825.01,-293.26 830.38,-284.12 820.49,-287.92 825.01,-293.26"/>
</g>
<!-- vibration -->
<g id="node4" class="node">
<title>vibration</title>
<path fill="white" stroke="black" d="M673,-292C673,-292 619,-292 619,-292 613,-292 607,-286 607,-280 607,-280 607,-268 607,-268 607,-262 613,-256 619,-256 619,-256 673,-256 673,-256 679,-256 685,-262 685,-268 685,-268 685,-280 685,-280 685,-286 679,-292 673,-292"/>
<text text-anchor="middle" x="646" y="-270.3" font-family="Helvetica,sans-Serif" font-size="14.00">vibration</text>
</g>
<!-- pressure&#45;&gt;vibration -->
<g id="edge11" class="edge">
<title>pressure&#45;&gt;vibration</title>
<path fill="none" stroke="black" stroke-width="1.2" d="M560.6,-274C571.97,-274 584.62,-274 596.6,-274"/>
<polygon fill="black" stroke="black" stroke-width="1.2" points="596.89,-277.5 606.89,-274 596.89,-270.5 596.89,-277.5"/>
</g>
<!-- vibration&#45;&gt;rotate -->
<g id="edge6" class="edge">
<title>vibration&#45;&gt;rotate</title>
<path fill="none" stroke="black" stroke-width="1.2" d="M663.08,-292.06C679.84,-310.88 706.25,-340.54 725.26,-361.9"/>
<polygon fill="black" stroke="black" stroke-width="1.2" points="722.89,-364.5 732.16,-369.64 728.12,-359.85 722.89,-364.5"/>
</g>
<!-- vibration&#45;&gt;err_error1 -->
<g id="edge18" class="edge">
<title>vibration&#45;&gt;err_error1</title>
<path fill="none" stroke="black" stroke-width="1.2" d="M685.12,-264.28C744.34,-249.19 858.51,-220.08 925,-203.13"/>
<polygon fill="black" stroke="black" stroke-width="1.2" points="926.02,-206.48 934.85,-200.62 924.3,-199.7 926.02,-206.48"/>
</g>
<!-- vibration&#45;&gt;err_error4 -->
<g id="edge20" class="edge">
<title>vibration&#45;&gt;err_error4</title>
<path fill="none" stroke="black" stroke-width="1.2" d="M695.48,-272.14C727.88,-270.9 770.45,-269.26 803.54,-267.99"/>
<polygon fill="black" stroke="black" stroke-width="1.2" points="695.1,-268.65 685.24,-272.53 695.37,-275.65 695.1,-268.65"/>
<polygon fill="black" stroke="black" stroke-width="1.2" points="804.07,-271.48 813.93,-267.6 803.8,-264.48 804.07,-271.48"/>
</g>
<!-- mnt_comp3 -->
<g id="node12" class="node">
<title>mnt_comp3</title>
<path fill="white" stroke="black" d="M1142,-475C1142,-475 1068,-475 1068,-475 1062,-475 1056,-469 1056,-463 1056,-463 1056,-451 1056,-451 1056,-445 1062,-439 1068,-439 1068,-439 1142,-439 1142,-439 1148,-439 1154,-445 1154,-451 1154,-451 1154,-463 1154,-463 1154,-469 1148,-475 1142,-475"/>
<text text-anchor="middle" x="1105" y="-453.3" font-family="Helvetica,sans-Serif" font-size="14.00">mnt_comp3</text>
</g>
<!-- vibration&#45;&gt;mnt_comp3 -->
<g id="edge21" class="edge">
<title>vibration&#45;&gt;mnt_comp3</title>
<path fill="none" stroke="black" stroke-width="1.2" d="M652.74,-302.49C661.22,-336.14 680.65,-390.61 721,-415 834.76,-483.77 891.83,-371.74 1020,-407 1038.88,-412.19 1057.8,-422.86 1072.89,-433.01"/>
<polygon fill="black" stroke="black" stroke-width="1.2" points="656.06,-301.3 650.36,-292.36 649.24,-302.9 656.06,-301.3"/>
<polygon fill="black" stroke="black" stroke-width="1.2" points="1071.1,-436.03 1081.31,-438.88 1075.11,-430.29 1071.1,-436.03"/>
</g>
<!-- err_error1&#45;&gt;volt -->
<g id="edge3" class="edge">
<title>err_error1&#45;&gt;volt</title>
<path fill="none" stroke="black" stroke-width="1.2" d="M954.94,-171.97C904.54,-131.7 773.63,-38 647,-38 387,-38 387,-38 387,-38 236.79,-38 172.67,-264.6 154.64,-345.07"/>
<polygon fill="black" stroke="black" stroke-width="1.2" points="151.19,-344.47 152.48,-354.99 158.03,-345.96 151.19,-344.47"/>
</g>
<!-- err_error1&#45;&gt;pressure -->
<g id="edge12" class="edge">
<title>err_error1&#45;&gt;pressure</title>
<path fill="none" stroke="black" stroke-width="1.2" d="M934.97,-191.42C865.74,-194.65 722.9,-205.08 607,-238 594.35,-241.59 581.1,-246.63 568.95,-251.8"/>
<polygon fill="black" stroke="black" stroke-width="1.2" points="567.23,-248.73 559.47,-255.95 570.04,-255.14 567.23,-248.73"/>
</g>
<!-- err_error1&#45;&gt;mnt_comp3 -->
<g id="edge25" class="edge">
<title>err_error1&#45;&gt;mnt_comp3</title>
<path fill="none" stroke="black" stroke-width="1.2" d="M987.13,-208.35C1008.76,-254.38 1065.43,-374.94 1091.07,-429.49"/>
<polygon fill="black" stroke="black" stroke-width="1.2" points="1088.06,-431.31 1095.48,-438.87 1094.39,-428.33 1088.06,-431.31"/>
</g>
<!-- err_error2 -->
<g id="node6" class="node">
<title>err_error2</title>
<path fill="white" stroke="black" d="M73,-391C73,-391 12,-391 12,-391 6,-391 0,-385 0,-379 0,-379 0,-367 0,-367 0,-361 6,-355 12,-355 12,-355 73,-355 73,-355 79,-355 85,-361 85,-367 85,-367 85,-379 85,-379 85,-385 79,-391 73,-391"/>
<text text-anchor="middle" x="42.5" y="-369.3" font-family="Helvetica,sans-Serif" font-size="14.00">err_error2</text>
</g>
<!-- err_error2&#45;&gt;volt -->
<g id="edge4" class="edge">
<title>err_error2&#45;&gt;volt</title>
<path fill="none" stroke="black" stroke-width="1.2" d="M85,-373C93.54,-373 102.47,-373 110.81,-373"/>
<polygon fill="black" stroke="black" stroke-width="1.2" points="110.97,-376.5 120.97,-373 110.97,-369.5 110.97,-376.5"/>
</g>
<!-- err_error2&#45;&gt;pressure -->
<g id="edge13" class="edge">
<title>err_error2&#45;&gt;pressure</title>
<path fill="none" stroke="black" stroke-width="1.2" d="M56.2,-354.7C69.87,-336.67 93.41,-310.14 121,-298 239.08,-246.05 395.96,-256.77 473.48,-266.62"/>
<polygon fill="black" stroke="black" stroke-width="1.2" points="473.06,-270.1 483.43,-267.94 473.98,-263.16 473.06,-270.1"/>
</g>
<!-- err_error2&#45;&gt;err_error1 -->
<g id="edge23" class="edge">
<title>err_error2&#45;&gt;err_error1</title>
<path fill="none" stroke="black" stroke-width="1.2" d="M45.02,-354.76C52.33,-279.87 90.73,0 256,0 256,0 256,0 647,0 764.37,0 804.33,-9.61 899,-79 928.75,-100.81 951.15,-137.6 964.03,-162.8"/>
<polygon fill="black" stroke="black" stroke-width="1.2" points="960.93,-164.42 968.5,-171.84 967.21,-161.32 960.93,-164.42"/>
</g>
<!-- err_error2&#45;&gt;err_error3 -->
<g id="edge26" class="edge">
<title>err_error2&#45;&gt;err_error3</title>
<path fill="none" stroke="black" stroke-width="1.2" d="M85.1,-355.88C96.54,-351.89 109.09,-348.18 121,-346 373.38,-299.75 682.59,-313.83 803.53,-321.99"/>
<polygon fill="black" stroke="black" stroke-width="1.2" points="803.4,-325.49 813.62,-322.69 803.89,-318.51 803.4,-325.49"/>
</g>
<!-- mnt_comp2 -->
<g id="node11" class="node">
<title>mnt_comp2</title>
<path fill="white" stroke="black" d="M559,-658C559,-658 485,-658 485,-658 479,-658 473,-652 473,-646 473,-646 473,-634 473,-634 473,-628 479,-622 485,-622 485,-622 559,-622 559,-622 565,-622 571,-628 571,-634 571,-634 571,-646 571,-646 571,-652 565,-658 559,-658"/>
<text text-anchor="middle" x="522" y="-636.3" font-family="Helvetica,sans-Serif" font-size="14.00">mnt_comp2</text>
</g>
<!-- err_error2&#45;&gt;mnt_comp2 -->
<g id="edge27" class="edge">
<title>err_error2&#45;&gt;mnt_comp2</title>
<path fill="none" stroke="black" stroke-width="1.2" d="M57.67,-391.27C96.46,-439.72 210.14,-571.4 339,-625 378.07,-641.25 425.86,-644.63 462.67,-644.15"/>
<polygon fill="black" stroke="black" stroke-width="1.2" points="462.82,-647.65 472.74,-643.92 462.66,-640.65 462.82,-647.65"/>
</g>
<!-- mnt_comp4 -->
<g id="node13" class="node">
<title>mnt_comp4</title>
<path fill="white" stroke="black" d="M1276,-536C1276,-536 1202,-536 1202,-536 1196,-536 1190,-530 1190,-524 1190,-524 1190,-512 1190,-512 1190,-506 1196,-500 1202,-500 1202,-500 1276,-500 1276,-500 1282,-500 1288,-506 1288,-512 1288,-512 1288,-524 1288,-524 1288,-530 1282,-536 1276,-536"/>
<text text-anchor="middle" x="1239" y="-514.3" font-family="Helvetica,sans-Serif" font-size="14.00">mnt_comp4</text>
</g>
<!-- err_error2&#45;&gt;mnt_comp4 -->
<g id="edge28" class="edge">
<title>err_error2&#45;&gt;mnt_comp4</title>
<path fill="none" stroke="black" stroke-width="1.2" d="M46.61,-391.18C59.15,-457.98 112.49,-686 256,-686 256,-686 256,-686 978.5,-686 1081.74,-686 1176.36,-591.13 1217.01,-543.98"/>
<polygon fill="black" stroke="black" stroke-width="1.2" points="1219.72,-546.19 1223.51,-536.3 1214.38,-541.67 1219.72,-546.19"/>
</g>
<!-- err_error2&#45;&gt;fail_comp1 -->
<g id="edge29" class="edge">
<title>err_error2&#45;&gt;fail_comp1</title>
<path fill="none" stroke="black" stroke-width="1.2" d="M85.23,-388.71C118.41,-401.2 165.09,-418.77 201.26,-432.39"/>
<polygon fill="black" stroke="black" stroke-width="1.2" points="200.1,-435.69 210.69,-435.94 202.56,-429.14 200.1,-435.69"/>
</g>
<!-- err_error3&#45;&gt;vibration -->
<g id="edge19" class="edge">
<title>err_error3&#45;&gt;vibration</title>
<path fill="none" stroke="black" stroke-width="1.2" d="M813.93,-315.63C779.64,-307.08 730.97,-294.94 695.02,-285.98"/>
<polygon fill="black" stroke="black" stroke-width="1.2" points="695.79,-282.56 685.24,-283.54 694.1,-289.35 695.79,-282.56"/>
</g>
<!-- err_error3&#45;&gt;err_error1 -->
<g id="edge24" class="edge">
<title>err_error3&#45;&gt;err_error1</title>
<path fill="none" stroke="black" stroke-width="1.2" d="M882.53,-307.79C888.18,-303.22 893.99,-298.14 899,-293 922.19,-269.18 944.56,-238.33 959.25,-216.62"/>
<polygon fill="black" stroke="black" stroke-width="1.2" points="962.23,-218.47 964.87,-208.21 956.41,-214.58 962.23,-218.47"/>
</g>
<!-- err_error4&#45;&gt;pressure -->
<g id="edge14" class="edge">
<title>err_error4&#45;&gt;pressure</title>
<path fill="none" stroke="black" stroke-width="1.2" d="M813.94,-256.98C764.4,-247.58 679.24,-235.68 607,-247 594.94,-248.89 582.25,-252.22 570.49,-255.91"/>
<polygon fill="black" stroke="black" stroke-width="1.2" points="569.27,-252.63 560.86,-259.07 571.46,-259.28 569.27,-252.63"/>
</g>
<!-- err_error5 -->
<g id="node9" class="node">
<title>err_error5</title>
<path fill="white" stroke="black" d="M1008,-452C1008,-452 947,-452 947,-452 941,-452 935,-446 935,-440 935,-440 935,-428 935,-428 935,-422 941,-416 947,-416 947,-416 1008,-416 1008,-416 1014,-416 1020,-422 1020,-428 1020,-428 1020,-440 1020,-440 1020,-446 1014,-452 1008,-452"/>
<text text-anchor="middle" x="977.5" y="-430.3" font-family="Helvetica,sans-Serif" font-size="14.00">err_error5</text>
</g>
<!-- err_error5&#45;&gt;mnt_comp3 -->
<g id="edge30" class="edge">
<title>err_error5&#45;&gt;mnt_comp3</title>
<path fill="none" stroke="black" stroke-width="1.2" d="M1020.29,-441.66C1028.49,-443.16 1037.23,-444.76 1045.85,-446.34"/>
<polygon fill="black" stroke="black" stroke-width="1.2" points="1045.42,-449.82 1055.88,-448.18 1046.68,-442.94 1045.42,-449.82"/>
</g>
<!-- mnt_comp1 -->
<g id="node10" class="node">
<title>mnt_comp1</title>
<path fill="white" stroke="black" d="M425,-582C425,-582 351,-582 351,-582 345,-582 339,-576 339,-570 339,-570 339,-558 339,-558 339,-552 345,-546 351,-546 351,-546 425,-546 425,-546 431,-546 437,-552 437,-558 437,-558 437,-570 437,-570 437,-576 431,-582 425,-582"/>
<text text-anchor="middle" x="388" y="-560.3" font-family="Helvetica,sans-Serif" font-size="14.00">mnt_comp1</text>
</g>
<!-- mnt_comp1&#45;&gt;pressure -->
<g id="edge15" class="edge">
<title>mnt_comp1&#45;&gt;pressure</title>
<path fill="none" stroke="black" stroke-width="1.2" d="M427.77,-545.83C431.18,-543.2 434.34,-540.26 437,-537 494.95,-465.89 513.2,-354.11 518.72,-302.21"/>
<polygon fill="black" stroke="black" stroke-width="1.2" points="522.22,-302.38 519.72,-292.09 515.26,-301.7 522.22,-302.38"/>
</g>
<!-- mnt_comp1&#45;&gt;mnt_comp2 -->
<g id="edge31" class="edge">
<title>mnt_comp1&#45;&gt;mnt_comp2</title>
<path fill="none" stroke="black" stroke-width="1.2" d="M420.28,-582.01C438.32,-592.39 461.18,-605.56 480.57,-616.72"/>
<polygon fill="black" stroke="black" stroke-width="1.2" points="479.07,-619.9 489.48,-621.85 482.57,-613.83 479.07,-619.9"/>
</g>
<!-- mnt_comp1&#45;&gt;mnt_comp4 -->
<g id="edge32" class="edge">
<title>mnt_comp1&#45;&gt;mnt_comp4</title>
<path fill="none" stroke="black" stroke-width="1.2" d="M437.4,-573.08C488.73,-581.91 572.28,-594 645,-594 645,-594 645,-594 978.5,-594 1058.12,-594 1078.5,-583.3 1154,-558 1167.93,-553.33 1182.56,-546.93 1195.63,-540.62"/>
<polygon fill="black" stroke="black" stroke-width="1.2" points="1197.44,-543.64 1204.85,-536.07 1194.34,-537.36 1197.44,-543.64"/>
</g>
<!-- mnt_comp3&#45;&gt;mnt_comp4 -->
<g id="edge36" class="edge">
<title>mnt_comp3&#45;&gt;mnt_comp4</title>
<path fill="none" stroke="black" stroke-width="1.2" d="M1145.25,-475.14C1159.09,-481.53 1174.82,-488.8 1189.34,-495.51"/>
<polygon fill="black" stroke="black" stroke-width="1.2" points="1188.13,-498.81 1198.68,-499.83 1191.07,-492.46 1188.13,-498.81"/>
</g>
<!-- mnt_comp4&#45;&gt;pressure -->
<g id="edge16" class="edge">
<title>mnt_comp4&#45;&gt;pressure</title>
<path fill="none" stroke="black" stroke-width="1.2" d="M1235.67,-499.63C1227.37,-436.92 1197.43,-232.54 1154,-185 1111.43,-138.41 1082.22,-148.59 1020,-138 835.93,-106.66 772.99,-129.49 607,-215 588.15,-224.71 568.68,-238.14 553.24,-249.73"/>
<polygon fill="black" stroke="black" stroke-width="1.2" points="550.92,-247.09 545.1,-255.95 555.17,-252.66 550.92,-247.09"/>
</g>
<!-- mnt_comp4&#45;&gt;vibration -->
<g id="edge22" class="edge">
<title>mnt_comp4&#45;&gt;vibration</title>
<path fill="none" stroke="black" stroke-width="1.2" d="M1233.57,-499.87C1217.52,-438.64 1156.02,-239.09 1020,-163 903.19,-97.65 743.8,-199.92 677.68,-249.51"/>
<polygon fill="black" stroke="black" stroke-width="1.2" points="675.19,-247.01 669.35,-255.85 679.43,-252.58 675.19,-247.01"/>
</g>
<!-- fail_comp1&#45;&gt;pressure -->
<g id="edge17" class="edge">
<title>fail_comp1&#45;&gt;pressure</title>
<path fill="none" stroke="black" stroke-width="1.2" d="M303.19,-435.86C340.98,-420.32 395.26,-395.12 437,-364 461.74,-345.56 485.29,-319.29 501.13,-299.89"/>
<polygon fill="black" stroke="black" stroke-width="1.2" points="503.9,-302.03 507.42,-292.04 498.43,-297.65 503.9,-302.03"/>
</g>
<!-- fail_comp1&#45;&gt;mnt_comp1 -->
<g id="edge33" class="edge">
<title>fail_comp1&#45;&gt;mnt_comp1</title>
<path fill="none" stroke="black" stroke-width="1.2" d="M272.81,-471.22C288.12,-489.32 313.35,-517.18 339,-537 340.53,-538.18 342.12,-539.35 343.75,-540.49"/>
<polygon fill="black" stroke="black" stroke-width="1.2" points="341.86,-543.43 352.14,-545.99 345.7,-537.58 341.86,-543.43"/>
</g>
<!-- fail_comp1&#45;&gt;mnt_comp2 -->
<g id="edge34" class="edge">
<title>fail_comp1&#45;&gt;mnt_comp2</title>
<path fill="none" stroke="black" stroke-width="1.2" d="M263.64,-471.28C273.77,-501.02 297.91,-559.67 339,-591 374.71,-618.23 424.44,-630.35 462.89,-635.73"/>
<polygon fill="black" stroke="black" stroke-width="1.2" points="462.54,-639.21 472.91,-637.02 463.44,-632.27 462.54,-639.21"/>
</g>
<!-- fail_comp1&#45;&gt;mnt_comp3 -->
<g id="edge37" class="edge">
<title>fail_comp1&#45;&gt;mnt_comp3</title>
<path fill="none" stroke="black" stroke-width="1.2" d="M303.26,-457.16C389.71,-464.73 584.33,-480 748.5,-480 748.5,-480 748.5,-480 857.5,-480 922.24,-480 996.13,-472.04 1045.99,-465.48"/>
<polygon fill="black" stroke="black" stroke-width="1.2" points="1046.5,-468.95 1055.95,-464.15 1045.57,-462.01 1046.5,-468.95"/>
</g>
<!-- fail_comp2 -->
<g id="node15" class="node">
<title>fail_comp2</title>
<path fill="white" stroke="black" d="M422,-528C422,-528 354,-528 354,-528 348,-528 342,-522 342,-516 342,-516 342,-504 342,-504 342,-498 348,-492 354,-492 354,-492 422,-492 422,-492 428,-492 434,-498 434,-504 434,-504 434,-516 434,-516 434,-522 428,-528 422,-528"/>
<text text-anchor="middle" x="388" y="-506.3" font-family="Helvetica,sans-Serif" font-size="14.00">fail_comp2</text>
</g>
<!-- fail_comp2&#45;&gt;rotate -->
<g id="edge10" class="edge">
<title>fail_comp2&#45;&gt;rotate</title>
<path fill="none" stroke="black" stroke-width="1.2" d="M434.17,-494.67C505.92,-470.32 644.61,-423.26 711.13,-400.68"/>
<polygon fill="black" stroke="black" stroke-width="1.2" points="712.44,-403.93 720.79,-397.41 710.19,-397.3 712.44,-403.93"/>
</g>
<!-- fail_comp2&#45;&gt;mnt_comp2 -->
<g id="edge35" class="edge">
<title>fail_comp2&#45;&gt;mnt_comp2</title>
<path fill="none" stroke="black" stroke-width="1.2" d="M424.62,-528.01C428.96,-530.78 433.2,-533.8 437,-537 463.65,-559.43 488.08,-591.22 503.64,-613.54"/>
<polygon fill="black" stroke="black" stroke-width="1.2" points="500.82,-615.6 509.35,-621.88 506.59,-611.65 500.82,-615.6"/>
</g>
<!-- fail_comp2&#45;&gt;mnt_comp3 -->
<g id="edge38" class="edge">
<title>fail_comp2&#45;&gt;mnt_comp3</title>
<path fill="none" stroke="black" stroke-width="1.2" d="M434.31,-512.27C485.46,-514.64 571.19,-518 645,-518 645,-518 645,-518 857.5,-518 930.51,-518 949.85,-514.23 1020,-494 1033.18,-490.2 1046.99,-484.77 1059.52,-479.24"/>
<polygon fill="black" stroke="black" stroke-width="1.2" points="1061.16,-482.34 1068.82,-475.02 1058.26,-475.97 1061.16,-482.34"/>
</g>
<!-- fail_comp2&#45;&gt;mnt_comp4 -->
<g id="edge39" class="edge">
<title>fail_comp2&#45;&gt;mnt_comp4</title>
<path fill="none" stroke="black" stroke-width="1.2" d="M434.34,-523.18C485.17,-536.77 570.27,-556 645,-556 645,-556 645,-556 978.5,-556 1048.08,-556 1127.06,-542.46 1179.42,-531.54"/>
<polygon fill="black" stroke="black" stroke-width="1.2" points="1180.47,-534.9 1189.53,-529.4 1179.02,-528.05 1180.47,-534.9"/>
</g>
</g>
</svg>
