<?xml version="1.0" encoding="UTF-8" standalone="no"?>
<!DOCTYPE svg PUBLIC "-//W3C//DTD SVG 1.1//EN"
 "http://www.w3.org/Graphics/SVG/1.1/DTD/svg11.dtd">
<!-- Generated by graphviz version 2.50.0 (0)
 -->
<!-- Title: G Pages: 1 -->
<svg width="844pt" height="506pt"
 viewBox="0.00 0.00 844.00 506.00" xmlns="http://www.w3.org/2000/svg" xmlns:xlink="http://www.w3.org/1999/xlink">
<g id="graph0" class="graph" transform="scale(1 1) rotate(0) translate(4 502)">
<title>G</title>
<polygon fill="white" stroke="transparent" points="-4,4 -4,-502 840,-502 840,4 -4,4"/>
<text text-anchor="middle" x="418" y="-481.2" font-family="Times,serif" font-size="16.00">model=model2/cbnb_w_mixed.json [machine 76]</text>
<!-- volt -->
<g id="node1" class="node">
<title>volt</title>
<path fill="white" stroke="black" d="M182,-338C182,-338 152,-338 152,-338 146,-338 140,-332 140,-326 140,-326 140,-314 140,-314 140,-308 146,-302 152,-302 152,-302 182,-302 182,-302 188,-302 194,-308 194,-314 194,-314 194,-326 194,-326 194,-332 188,-338 182,-338"/>
<text text-anchor="middle" x="167" y="-316.3" font-family="Helvetica,sans-Serif" font-size="14.00">volt</text>
</g>
<!-- rotate -->
<g id="node2" class="node">
<title>rotate</title>
<path fill="white" stroke="black" d="M294,-216C294,-216 261,-216 261,-216 255,-216 249,-210 249,-204 249,-204 249,-192 249,-192 249,-186 255,-180 261,-180 261,-180 294,-180 294,-180 300,-180 306,-186 306,-192 306,-192 306,-204 306,-204 306,-210 300,-216 294,-216"/>
<text text-anchor="middle" x="277.5" y="-194.3" font-family="Helvetica,sans-Serif" font-size="14.00">rotate</text>
</g>
<!-- volt&#45;&gt;rotate -->
<g id="edge1" class="edge">
<title>volt&#45;&gt;rotate</title>
<path fill="none" stroke="black" stroke-width="1.2" d="M184.79,-301.96C193.3,-292.75 203.76,-281.33 213,-271 226.85,-255.51 242.14,-237.94 254.25,-223.92"/>
<polygon fill="black" stroke="black" stroke-width="1.2" points="257.1,-225.98 260.98,-216.12 251.8,-221.41 257.1,-225.98"/>
</g>
<!-- pressure -->
<g id="node3" class="node">
<title>pressure</title>
<path fill="white" stroke="black" d="M417.5,-200C417.5,-200 364.5,-200 364.5,-200 358.5,-200 352.5,-194 352.5,-188 352.5,-188 352.5,-176 352.5,-176 352.5,-170 358.5,-164 364.5,-164 364.5,-164 417.5,-164 417.5,-164 423.5,-164 429.5,-170 429.5,-176 429.5,-176 429.5,-188 429.5,-188 429.5,-194 423.5,-200 417.5,-200"/>
<text text-anchor="middle" x="391" y="-178.3" font-family="Helvetica,sans-Serif" font-size="14.00">pressure</text>
</g>
<!-- volt&#45;&gt;pressure -->
<g id="edge2" class="edge">
<title>volt&#45;&gt;pressure</title>
<path fill="none" stroke="black" stroke-width="1.2" d="M194.34,-303.63C233.53,-279.26 307.4,-233.35 352.31,-205.43"/>
<polygon fill="black" stroke="black" stroke-width="1.2" points="354.24,-208.35 360.88,-200.1 350.54,-202.41 354.24,-208.35"/>
</g>
<!-- err_error1 -->
<g id="node5" class="node">
<title>err_error1</title>
<path fill="white" stroke="black" d="M552.5,-346C552.5,-346 491.5,-346 491.5,-346 485.5,-346 479.5,-340 479.5,-334 479.5,-334 479.5,-322 479.5,-322 479.5,-316 485.5,-310 491.5,-310 491.5,-310 552.5,-310 552.5,-310 558.5,-310 564.5,-316 564.5,-322 564.5,-322 564.5,-334 564.5,-334 564.5,-340 558.5,-346 552.5,-346"/>
<text text-anchor="middle" x="522" y="-324.3" font-family="Helvetica,sans-Serif" font-size="14.00">err_error1</text>
</g>
<!-- volt&#45;&gt;err_error1 -->
<g id="edge4" class="edge">
<title>volt&#45;&gt;err_error1</title>
<path fill="none" stroke="black" stroke-width="1.2" d="M196.79,-344.24C211.43,-354.99 230.1,-366.46 249,-372 330.46,-395.9 357.73,-392.9 440,-372 456.29,-367.86 472.84,-359.72 486.7,-351.55"/>
<polygon fill="black" stroke="black" stroke-width="1.2" points="198.74,-341.32 188.66,-338.04 194.49,-346.89 198.74,-341.32"/>
<polygon fill="black" stroke="black" stroke-width="1.2" points="488.7,-354.43 495.39,-346.22 485.04,-348.46 488.7,-354.43"/>
</g>
<!-- err_error2 -->
<g id="node6" class="node">
<title>err_error2</title>
<path fill="white" stroke="black" d="M421.5,-330C421.5,-330 360.5,-330 360.5,-330 354.5,-330 348.5,-324 348.5,-318 348.5,-318 348.5,-306 348.5,-306 348.5,-300 354.5,-294 360.5,-294 360.5,-294 421.5,-294 421.5,-294 427.5,-294 433.5,-300 433.5,-306 433.5,-306 433.5,-318 433.5,-318 433.5,-324 427.5,-330 421.5,-330"/>
<text text-anchor="middle" x="391" y="-308.3" font-family="Helvetica,sans-Serif" font-size="14.00">err_error2</text>
</g>
<!-- volt&#45;&gt;err_error2 -->
<g id="edge5" class="edge">
<title>volt&#45;&gt;err_error2</title>
<path fill="none" stroke="black" stroke-width="1.2" d="M204.57,-318.68C240.96,-317.37 297.13,-315.35 338.11,-313.87"/>
<polygon fill="black" stroke="black" stroke-width="1.2" points="204.21,-315.19 194.34,-319.05 204.46,-322.19 204.21,-315.19"/>
<polygon fill="black" stroke="black" stroke-width="1.2" points="338.32,-317.36 348.18,-313.51 338.06,-310.37 338.32,-317.36"/>
</g>
<!-- err_error4 -->
<g id="node8" class="node">
<title>err_error4</title>
<path fill="white" stroke="black" d="M552.5,-292C552.5,-292 491.5,-292 491.5,-292 485.5,-292 479.5,-286 479.5,-280 479.5,-280 479.5,-268 479.5,-268 479.5,-262 485.5,-256 491.5,-256 491.5,-256 552.5,-256 552.5,-256 558.5,-256 564.5,-262 564.5,-268 564.5,-268 564.5,-280 564.5,-280 564.5,-286 558.5,-292 552.5,-292"/>
<text text-anchor="middle" x="522" y="-270.3" font-family="Helvetica,sans-Serif" font-size="14.00">err_error4</text>
</g>
<!-- volt&#45;&gt;err_error4 -->
<g id="edge6" class="edge">
<title>volt&#45;&gt;err_error4</title>
<path fill="none" stroke="black" stroke-width="1.2" d="M194.06,-329.44C244.09,-345.97 356.07,-375.1 440,-339 461.37,-329.81 457.86,-315.56 476,-301 477.32,-299.94 478.68,-298.89 480.08,-297.86"/>
<polygon fill="black" stroke="black" stroke-width="1.2" points="482.1,-300.72 488.33,-292.15 478.11,-294.97 482.1,-300.72"/>
</g>
<!-- mnt_comp1 -->
<g id="node10" class="node">
<title>mnt_comp1</title>
<path fill="white" stroke="black" d="M824,-173C824,-173 750,-173 750,-173 744,-173 738,-167 738,-161 738,-161 738,-149 738,-149 738,-143 744,-137 750,-137 750,-137 824,-137 824,-137 830,-137 836,-143 836,-149 836,-149 836,-161 836,-161 836,-167 830,-173 824,-173"/>
<text text-anchor="middle" x="787" y="-151.3" font-family="Helvetica,sans-Serif" font-size="14.00">mnt_comp1</text>
</g>
<!-- volt&#45;&gt;mnt_comp1 -->
<g id="edge7" class="edge">
<title>volt&#45;&gt;mnt_comp1</title>
<path fill="none" stroke="black" stroke-width="1.2" d="M180.05,-338.32C194.37,-358.87 220.01,-392.07 249,-413 304.08,-452.76 322.07,-472 390,-472 390,-472 390,-472 523,-472 672.53,-472 753.26,-260.49 777.81,-183.01"/>
<polygon fill="black" stroke="black" stroke-width="1.2" points="781.17,-184 780.78,-173.41 774.48,-181.93 781.17,-184"/>
</g>
<!-- mnt_comp4 -->
<g id="node13" class="node">
<title>mnt_comp4</title>
<path fill="white" stroke="black" d="M428,-102C428,-102 354,-102 354,-102 348,-102 342,-96 342,-90 342,-90 342,-78 342,-78 342,-72 348,-66 354,-66 354,-66 428,-66 428,-66 434,-66 440,-72 440,-78 440,-78 440,-90 440,-90 440,-96 434,-102 428,-102"/>
<text text-anchor="middle" x="391" y="-80.3" font-family="Helvetica,sans-Serif" font-size="14.00">mnt_comp4</text>
</g>
<!-- volt&#45;&gt;mnt_comp4 -->
<g id="edge9" class="edge">
<title>volt&#45;&gt;mnt_comp4</title>
<path fill="none" stroke="black" stroke-width="1.2" d="M187.88,-301.89C196.51,-293.21 206.18,-282.26 213,-271 237.46,-230.59 219.23,-207.68 249,-171 271.9,-142.79 306.53,-121.23 335.74,-106.63"/>
<polygon fill="black" stroke="black" stroke-width="1.2" points="337.54,-109.65 345.02,-102.14 334.49,-103.35 337.54,-109.65"/>
</g>
<!-- rotate&#45;&gt;pressure -->
<g id="edge10" class="edge">
<title>rotate&#45;&gt;pressure</title>
<path fill="none" stroke="black" stroke-width="1.2" d="M306.06,-194.04C316.94,-192.48 329.77,-190.64 342.08,-188.88"/>
<polygon fill="black" stroke="black" stroke-width="1.2" points="342.84,-192.3 352.24,-187.42 341.85,-185.37 342.84,-192.3"/>
</g>
<!-- rotate&#45;&gt;err_error1 -->
<g id="edge12" class="edge">
<title>rotate&#45;&gt;err_error1</title>
<path fill="none" stroke="black" stroke-width="1.2" d="M310.52,-221.97C320.37,-228.84 331.41,-236.08 342,-242 383.52,-265.21 397.19,-264.28 440,-285 452.92,-291.25 466.78,-298.43 479.32,-305.11"/>
<polygon fill="black" stroke="black" stroke-width="1.2" points="312.39,-219 302.22,-216.06 308.34,-224.71 312.39,-219"/>
<polygon fill="black" stroke="black" stroke-width="1.2" points="477.71,-308.22 488.18,-309.86 481.02,-302.05 477.71,-308.22"/>
</g>
<!-- rotate&#45;&gt;err_error2 -->
<g id="edge13" class="edge">
<title>rotate&#45;&gt;err_error2</title>
<path fill="none" stroke="black" stroke-width="1.2" d="M290.14,-216.33C301.87,-233.92 321.18,-260.61 342,-280 344.93,-282.73 348.11,-285.38 351.39,-287.92"/>
<polygon fill="black" stroke="black" stroke-width="1.2" points="349.54,-290.9 359.68,-293.96 353.67,-285.24 349.54,-290.9"/>
</g>
<!-- mnt_comp3 -->
<g id="node12" class="node">
<title>mnt_comp3</title>
<path fill="white" stroke="black" d="M690,-246C690,-246 616,-246 616,-246 610,-246 604,-240 604,-234 604,-234 604,-222 604,-222 604,-216 610,-210 616,-210 616,-210 690,-210 690,-210 696,-210 702,-216 702,-222 702,-222 702,-234 702,-234 702,-240 696,-246 690,-246"/>
<text text-anchor="middle" x="653" y="-224.3" font-family="Helvetica,sans-Serif" font-size="14.00">mnt_comp3</text>
</g>
<!-- rotate&#45;&gt;mnt_comp3 -->
<g id="edge15" class="edge">
<title>rotate&#45;&gt;mnt_comp3</title>
<path fill="none" stroke="black" stroke-width="1.2" d="M316.22,-205.24C324.68,-206.67 333.63,-208.02 342,-209 429.39,-219.22 531.31,-224.13 593.74,-226.35"/>
<polygon fill="black" stroke="black" stroke-width="1.2" points="316.68,-201.77 306.22,-203.49 315.47,-208.66 316.68,-201.77"/>
<polygon fill="black" stroke="black" stroke-width="1.2" points="593.68,-229.85 603.79,-226.69 593.92,-222.85 593.68,-229.85"/>
</g>
<!-- rotate&#45;&gt;mnt_comp4 -->
<g id="edge16" class="edge">
<title>rotate&#45;&gt;mnt_comp4</title>
<path fill="none" stroke="black" stroke-width="1.2" d="M290.91,-179.93C302.9,-163.14 322.14,-137.95 342,-119 345.82,-115.36 350.03,-111.77 354.32,-108.36"/>
<polygon fill="black" stroke="black" stroke-width="1.2" points="356.76,-110.91 362.6,-102.07 352.52,-105.34 356.76,-110.91"/>
</g>
<!-- pressure&#45;&gt;err_error1 -->
<g id="edge20" class="edge">
<title>pressure&#45;&gt;err_error1</title>
<path fill="none" stroke="black" stroke-width="1.2" d="M410.37,-208.61C433.84,-242.52 471.93,-297.22 476,-301 476.94,-301.87 477.91,-302.73 478.91,-303.57"/>
<polygon fill="black" stroke="black" stroke-width="1.2" points="413.03,-206.31 404.47,-200.07 407.27,-210.29 413.03,-206.31"/>
<polygon fill="black" stroke="black" stroke-width="1.2" points="476.89,-306.43 486.96,-309.71 481.13,-300.86 476.89,-306.43"/>
</g>
<!-- pressure&#45;&gt;err_error4 -->
<g id="edge21" class="edge">
<title>pressure&#45;&gt;err_error4</title>
<path fill="none" stroke="black" stroke-width="1.2" d="M425.83,-206.12C444.76,-219.63 468.3,-236.41 487.23,-249.91"/>
<polygon fill="black" stroke="black" stroke-width="1.2" points="427.66,-203.13 417.49,-200.18 423.6,-208.83 427.66,-203.13"/>
<polygon fill="black" stroke="black" stroke-width="1.2" points="485.39,-252.9 495.57,-255.86 489.46,-247.21 485.39,-252.9"/>
</g>
<!-- fail_comp2 -->
<g id="node15" class="node">
<title>fail_comp2</title>
<path fill="white" stroke="black" d="M556,-146C556,-146 488,-146 488,-146 482,-146 476,-140 476,-134 476,-134 476,-122 476,-122 476,-116 482,-110 488,-110 488,-110 556,-110 556,-110 562,-110 568,-116 568,-122 568,-122 568,-134 568,-134 568,-140 562,-146 556,-146"/>
<text text-anchor="middle" x="522" y="-124.3" font-family="Helvetica,sans-Serif" font-size="14.00">fail_comp2</text>
</g>
<!-- pressure&#45;&gt;fail_comp2 -->
<g id="edge23" class="edge">
<title>pressure&#45;&gt;fail_comp2</title>
<path fill="none" stroke="black" stroke-width="1.2" d="M429.66,-166.24C441.75,-161.18 455.37,-155.47 468.33,-150.05"/>
<polygon fill="black" stroke="black" stroke-width="1.2" points="469.74,-153.25 477.61,-146.16 467.04,-146.79 469.74,-153.25"/>
</g>
<!-- fail_comp3 -->
<g id="node16" class="node">
<title>fail_comp3</title>
<path fill="white" stroke="black" d="M556,-200C556,-200 488,-200 488,-200 482,-200 476,-194 476,-188 476,-188 476,-176 476,-176 476,-170 482,-164 488,-164 488,-164 556,-164 556,-164 562,-164 568,-170 568,-176 568,-176 568,-188 568,-188 568,-194 562,-200 556,-200"/>
<text text-anchor="middle" x="522" y="-178.3" font-family="Helvetica,sans-Serif" font-size="14.00">fail_comp3</text>
</g>
<!-- pressure&#45;&gt;fail_comp3 -->
<g id="edge24" class="edge">
<title>pressure&#45;&gt;fail_comp3</title>
<path fill="none" stroke="black" stroke-width="1.2" d="M429.66,-182C440.93,-182 453.53,-182 465.69,-182"/>
<polygon fill="black" stroke="black" stroke-width="1.2" points="465.76,-185.5 475.76,-182 465.76,-178.5 465.76,-185.5"/>
</g>
<!-- vibration -->
<g id="node4" class="node">
<title>vibration</title>
<path fill="white" stroke="black" d="M69.5,-239C69.5,-239 15.5,-239 15.5,-239 9.5,-239 3.5,-233 3.5,-227 3.5,-227 3.5,-215 3.5,-215 3.5,-209 9.5,-203 15.5,-203 15.5,-203 69.5,-203 69.5,-203 75.5,-203 81.5,-209 81.5,-215 81.5,-215 81.5,-227 81.5,-227 81.5,-233 75.5,-239 69.5,-239"/>
<text text-anchor="middle" x="42.5" y="-217.3" font-family="Helvetica,sans-Serif" font-size="14.00">vibration</text>
</g>
<!-- vibration&#45;&gt;volt -->
<g id="edge3" class="edge">
<title>vibration&#45;&gt;volt</title>
<path fill="none" stroke="black" stroke-width="1.2" d="M72.46,-239.04C76.74,-241.94 81.04,-244.98 85,-248 104.11,-262.58 124.31,-280.53 139.76,-294.87"/>
<polygon fill="black" stroke="black" stroke-width="1.2" points="137.69,-297.72 147.38,-301.99 142.47,-292.61 137.69,-297.72"/>
</g>
<!-- vibration&#45;&gt;rotate -->
<g id="edge11" class="edge">
<title>vibration&#45;&gt;rotate</title>
<path fill="none" stroke="black" stroke-width="1.2" d="M81.71,-217.23C125.13,-212.94 195.54,-205.99 238.76,-201.73"/>
<polygon fill="black" stroke="black" stroke-width="1.2" points="239.25,-205.19 248.86,-200.73 238.57,-198.23 239.25,-205.19"/>
</g>
<!-- vibration&#45;&gt;pressure -->
<g id="edge19" class="edge">
<title>vibration&#45;&gt;pressure</title>
<path fill="none" stroke="black" stroke-width="1.2" d="M81.65,-210.32C94.16,-206.91 108.15,-203.2 121,-200 201.77,-179.92 222.95,-165.59 306,-171 317.81,-171.77 330.49,-173.14 342.32,-174.66"/>
<polygon fill="black" stroke="black" stroke-width="1.2" points="342.09,-178.16 352.47,-176.02 343.02,-171.22 342.09,-178.16"/>
</g>
<!-- err_error3 -->
<g id="node7" class="node">
<title>err_error3</title>
<path fill="white" stroke="black" d="M197.5,-262C197.5,-262 136.5,-262 136.5,-262 130.5,-262 124.5,-256 124.5,-250 124.5,-250 124.5,-238 124.5,-238 124.5,-232 130.5,-226 136.5,-226 136.5,-226 197.5,-226 197.5,-226 203.5,-226 209.5,-232 209.5,-238 209.5,-238 209.5,-250 209.5,-250 209.5,-256 203.5,-262 197.5,-262"/>
<text text-anchor="middle" x="167" y="-240.3" font-family="Helvetica,sans-Serif" font-size="14.00">err_error3</text>
</g>
<!-- vibration&#45;&gt;err_error3 -->
<g id="edge25" class="edge">
<title>vibration&#45;&gt;err_error3</title>
<path fill="none" stroke="black" stroke-width="1.2" d="M81.59,-228.15C91.91,-230.09 103.27,-232.22 114.21,-234.28"/>
<polygon fill="black" stroke="black" stroke-width="1.2" points="113.63,-237.73 124.1,-236.13 114.92,-230.85 113.63,-237.73"/>
</g>
<!-- err_error2&#45;&gt;err_error1 -->
<g id="edge26" class="edge">
<title>err_error2&#45;&gt;err_error1</title>
<path fill="none" stroke="black" stroke-width="1.2" d="M433.53,-317.15C444.81,-318.55 457.16,-320.08 468.95,-321.54"/>
<polygon fill="black" stroke="black" stroke-width="1.2" points="468.75,-325.05 479.11,-322.8 469.62,-318.1 468.75,-325.05"/>
</g>
<!-- err_error3&#45;&gt;rotate -->
<g id="edge14" class="edge">
<title>err_error3&#45;&gt;rotate</title>
<path fill="none" stroke="black" stroke-width="1.2" d="M209.64,-226.35C219.5,-222.17 229.95,-217.74 239.58,-213.65"/>
<polygon fill="black" stroke="black" stroke-width="1.2" points="241.05,-216.83 248.89,-209.7 238.32,-210.39 241.05,-216.83"/>
</g>
<!-- err_error3&#45;&gt;err_error2 -->
<g id="edge27" class="edge">
<title>err_error3&#45;&gt;err_error2</title>
<path fill="none" stroke="black" stroke-width="1.2" d="M209.76,-256.79C246.35,-268 299.65,-284.32 338.8,-296.32"/>
<polygon fill="black" stroke="black" stroke-width="1.2" points="337.84,-299.68 348.43,-299.27 339.89,-292.99 337.84,-299.68"/>
</g>
<!-- err_error5 -->
<g id="node9" class="node">
<title>err_error5</title>
<path fill="white" stroke="black" d="M73,-293C73,-293 12,-293 12,-293 6,-293 0,-287 0,-281 0,-281 0,-269 0,-269 0,-263 6,-257 12,-257 12,-257 73,-257 73,-257 79,-257 85,-263 85,-269 85,-269 85,-281 85,-281 85,-287 79,-293 73,-293"/>
<text text-anchor="middle" x="42.5" y="-271.3" font-family="Helvetica,sans-Serif" font-size="14.00">err_error5</text>
</g>
<!-- mnt_comp2 -->
<g id="node11" class="node">
<title>mnt_comp2</title>
<path fill="white" stroke="black" d="M690,-123C690,-123 616,-123 616,-123 610,-123 604,-117 604,-111 604,-111 604,-99 604,-99 604,-93 610,-87 616,-87 616,-87 690,-87 690,-87 696,-87 702,-93 702,-99 702,-99 702,-111 702,-111 702,-117 696,-123 690,-123"/>
<text text-anchor="middle" x="653" y="-101.3" font-family="Helvetica,sans-Serif" font-size="14.00">mnt_comp2</text>
</g>
<!-- mnt_comp2&#45;&gt;mnt_comp1 -->
<g id="edge28" class="edge">
<title>mnt_comp2&#45;&gt;mnt_comp1</title>
<path fill="none" stroke="black" stroke-width="1.2" d="M701.66,-123.05C710.53,-126.41 719.89,-129.96 729.02,-133.42"/>
<polygon fill="black" stroke="black" stroke-width="1.2" points="727.82,-136.71 738.41,-136.98 730.3,-130.16 727.82,-136.71"/>
</g>
<!-- mnt_comp3&#45;&gt;volt -->
<g id="edge8" class="edge">
<title>mnt_comp3&#45;&gt;volt</title>
<path fill="none" stroke="black" stroke-width="1.2" d="M644.86,-246.03C633.04,-273.6 606.77,-326.07 568,-355 520.34,-390.57 498.82,-385.24 440,-394 356.03,-406.51 328.02,-423.02 249,-392 224.92,-382.55 203.34,-362.48 188.52,-345.92"/>
<polygon fill="black" stroke="black" stroke-width="1.2" points="190.99,-343.43 181.81,-338.14 185.69,-348 190.99,-343.43"/>
</g>
<!-- mnt_comp4&#45;&gt;mnt_comp2 -->
<g id="edge31" class="edge">
<title>mnt_comp4&#45;&gt;mnt_comp2</title>
<path fill="none" stroke="black" stroke-width="1.2" d="M440.29,-87.9C483.71,-91.41 547.57,-96.57 593.8,-100.3"/>
<polygon fill="black" stroke="black" stroke-width="1.2" points="593.71,-103.8 603.96,-101.12 594.28,-96.83 593.71,-103.8"/>
</g>
<!-- fail_comp1 -->
<g id="node14" class="node">
<title>fail_comp1</title>
<path fill="white" stroke="black" d="M201,-90C201,-90 133,-90 133,-90 127,-90 121,-84 121,-78 121,-78 121,-66 121,-66 121,-60 127,-54 133,-54 133,-54 201,-54 201,-54 207,-54 213,-60 213,-66 213,-66 213,-78 213,-78 213,-84 207,-90 201,-90"/>
<text text-anchor="middle" x="167" y="-68.3" font-family="Helvetica,sans-Serif" font-size="14.00">fail_comp1</text>
</g>
<!-- fail_comp1&#45;&gt;rotate -->
<g id="edge17" class="edge">
<title>fail_comp1&#45;&gt;rotate</title>
<path fill="none" stroke="black" stroke-width="1.2" d="M183.55,-90.05C202.08,-111.57 233.18,-147.69 254.25,-172.17"/>
<polygon fill="black" stroke="black" stroke-width="1.2" points="251.81,-174.69 260.98,-179.98 257.11,-170.12 251.81,-174.69"/>
</g>
<!-- fail_comp1&#45;&gt;pressure -->
<g id="edge22" class="edge">
<title>fail_comp1&#45;&gt;pressure</title>
<path fill="none" stroke="black" stroke-width="1.2" d="M206.85,-90.12C234.6,-103.17 272.76,-121.35 306,-138 319.51,-144.77 334.14,-152.34 347.34,-159.27"/>
<polygon fill="black" stroke="black" stroke-width="1.2" points="345.74,-162.39 356.22,-163.95 349,-156.19 345.74,-162.39"/>
</g>
<!-- fail_comp1&#45;&gt;mnt_comp1 -->
<g id="edge29" class="edge">
<title>fail_comp1&#45;&gt;mnt_comp1</title>
<path fill="none" stroke="black" stroke-width="1.2" d="M201.51,-53.83C244.05,-32.5 320.31,0 390,0 390,0 390,0 523,0 623.75,0 719.88,-85.46 762.71,-129.47"/>
<polygon fill="black" stroke="black" stroke-width="1.2" points="760.39,-132.11 769.84,-136.92 765.45,-127.27 760.39,-132.11"/>
</g>
<!-- fail_comp1&#45;&gt;mnt_comp2 -->
<g id="edge32" class="edge">
<title>fail_comp1&#45;&gt;mnt_comp2</title>
<path fill="none" stroke="black" stroke-width="1.2" d="M213.36,-67.01C248.43,-63.42 298.23,-58.88 342,-57 385.52,-55.13 396.71,-52.16 440,-57 492.77,-62.9 551.59,-76.82 593.85,-88.15"/>
<polygon fill="black" stroke="black" stroke-width="1.2" points="593.12,-91.58 603.69,-90.83 594.95,-84.83 593.12,-91.58"/>
</g>
<!-- fail_comp2&#45;&gt;rotate -->
<g id="edge18" class="edge">
<title>fail_comp2&#45;&gt;rotate</title>
<path fill="none" stroke="black" stroke-width="1.2" d="M475.81,-129.3C438.74,-131.65 385.47,-138.02 342,-155 330.18,-159.62 318.36,-166.76 308.18,-173.9"/>
<polygon fill="black" stroke="black" stroke-width="1.2" points="306.05,-171.12 300.04,-179.85 310.18,-176.77 306.05,-171.12"/>
</g>
<!-- fail_comp2&#45;&gt;mnt_comp2 -->
<g id="edge33" class="edge">
<title>fail_comp2&#45;&gt;mnt_comp2</title>
<path fill="none" stroke="black" stroke-width="1.2" d="M568.12,-119.96C576.37,-118.48 585.09,-116.93 593.66,-115.4"/>
<polygon fill="black" stroke="black" stroke-width="1.2" points="594.38,-118.83 603.62,-113.63 593.16,-111.94 594.38,-118.83"/>
</g>
<!-- fail_comp3&#45;&gt;mnt_comp1 -->
<g id="edge30" class="edge">
<title>fail_comp3&#45;&gt;mnt_comp1</title>
<path fill="none" stroke="black" stroke-width="1.2" d="M568.21,-177.36C612.36,-172.83 679.75,-165.91 727.86,-160.97"/>
<polygon fill="black" stroke="black" stroke-width="1.2" points="728.23,-164.45 737.82,-159.95 727.52,-157.49 728.23,-164.45"/>
</g>
<!-- fail_comp3&#45;&gt;mnt_comp3 -->
<g id="edge34" class="edge">
<title>fail_comp3&#45;&gt;mnt_comp3</title>
<path fill="none" stroke="black" stroke-width="1.2" d="M568.12,-198.09C576.46,-201.06 585.28,-204.21 593.94,-207.3"/>
<polygon fill="black" stroke="black" stroke-width="1.2" points="593.02,-210.68 603.62,-210.75 595.37,-204.09 593.02,-210.68"/>
</g>
</g>
</svg>
