<?xml version="1.0" encoding="UTF-8" standalone="no"?>
<!DOCTYPE svg PUBLIC "-//W3C//DTD SVG 1.1//EN"
 "http://www.w3.org/Graphics/SVG/1.1/DTD/svg11.dtd">
<!-- Generated by graphviz version 2.50.0 (0)
 -->
<!-- Title: G Pages: 1 -->
<svg width="1189pt" height="488pt"
 viewBox="0.00 0.00 1189.00 488.00" xmlns="http://www.w3.org/2000/svg" xmlns:xlink="http://www.w3.org/1999/xlink">
<g id="graph0" class="graph" transform="scale(1 1) rotate(0) translate(4 484)">
<title>G</title>
<polygon fill="white" stroke="transparent" points="-4,4 -4,-484 1185,-484 1185,4 -4,4"/>
<text text-anchor="middle" x="590.5" y="-463.2" font-family="Times,serif" font-size="16.00">model=model1/cbnb_w_mixed.json [machine 42]</text>
<!-- volt -->
<g id="node1" class="node">
<title>volt</title>
<path fill="white" stroke="black" d="M170,-272C170,-272 140,-272 140,-272 134,-272 128,-266 128,-260 128,-260 128,-248 128,-248 128,-242 134,-236 140,-236 140,-236 170,-236 170,-236 176,-236 182,-242 182,-248 182,-248 182,-260 182,-260 182,-266 176,-272 170,-272"/>
<text text-anchor="middle" x="155" y="-250.3" font-family="Helvetica,sans-Serif" font-size="14.00">volt</text>
</g>
<!-- vibration -->
<g id="node4" class="node">
<title>vibration</title>
<path fill="white" stroke="black" d="M408.5,-297C408.5,-297 354.5,-297 354.5,-297 348.5,-297 342.5,-291 342.5,-285 342.5,-285 342.5,-273 342.5,-273 342.5,-267 348.5,-261 354.5,-261 354.5,-261 408.5,-261 408.5,-261 414.5,-261 420.5,-267 420.5,-273 420.5,-273 420.5,-285 420.5,-285 420.5,-291 414.5,-297 408.5,-297"/>
<text text-anchor="middle" x="381.5" y="-275.3" font-family="Helvetica,sans-Serif" font-size="14.00">vibration</text>
</g>
<!-- volt&#45;&gt;vibration -->
<g id="edge2" class="edge">
<title>volt&#45;&gt;vibration</title>
<path fill="none" stroke="black" stroke-width="1.2" d="M182.19,-256.92C218.86,-261 286.15,-268.49 332.08,-273.61"/>
<polygon fill="black" stroke="black" stroke-width="1.2" points="331.79,-277.1 342.11,-274.73 332.56,-270.14 331.79,-277.1"/>
</g>
<!-- err_error1 -->
<g id="node5" class="node">
<title>err_error1</title>
<path fill="white" stroke="black" d="M291,-202C291,-202 230,-202 230,-202 224,-202 218,-196 218,-190 218,-190 218,-178 218,-178 218,-172 224,-166 230,-166 230,-166 291,-166 291,-166 297,-166 303,-172 303,-178 303,-178 303,-190 303,-190 303,-196 297,-202 291,-202"/>
<text text-anchor="middle" x="260.5" y="-180.3" font-family="Helvetica,sans-Serif" font-size="14.00">err_error1</text>
</g>
<!-- volt&#45;&gt;err_error1 -->
<g id="edge3" class="edge">
<title>volt&#45;&gt;err_error1</title>
<path fill="none" stroke="black" stroke-width="1.2" d="M182.12,-236.34C194.91,-227.68 210.5,-217.14 224.33,-207.79"/>
<polygon fill="black" stroke="black" stroke-width="1.2" points="226.35,-210.65 232.67,-202.15 222.43,-204.85 226.35,-210.65"/>
</g>
<!-- err_error2 -->
<g id="node6" class="node">
<title>err_error2</title>
<path fill="white" stroke="black" d="M1028.5,-388C1028.5,-388 967.5,-388 967.5,-388 961.5,-388 955.5,-382 955.5,-376 955.5,-376 955.5,-364 955.5,-364 955.5,-358 961.5,-352 967.5,-352 967.5,-352 1028.5,-352 1028.5,-352 1034.5,-352 1040.5,-358 1040.5,-364 1040.5,-364 1040.5,-376 1040.5,-376 1040.5,-382 1034.5,-388 1028.5,-388"/>
<text text-anchor="middle" x="998" y="-366.3" font-family="Helvetica,sans-Serif" font-size="14.00">err_error2</text>
</g>
<!-- volt&#45;&gt;err_error2 -->
<g id="edge4" class="edge">
<title>volt&#45;&gt;err_error2</title>
<path fill="none" stroke="black" stroke-width="1.2" d="M173.95,-272.06C185.56,-282.69 201.53,-295.48 218,-303 267.8,-325.74 285.07,-316.64 339,-326 392.64,-335.31 405.93,-338.65 460,-345 637.3,-365.81 849.45,-369.48 945.39,-370.01"/>
<polygon fill="black" stroke="black" stroke-width="1.2" points="945.39,-373.51 955.4,-370.05 945.42,-366.51 945.39,-373.51"/>
</g>
<!-- rotate -->
<g id="node2" class="node">
<title>rotate</title>
<path fill="white" stroke="black" d="M901,-189C901,-189 868,-189 868,-189 862,-189 856,-183 856,-177 856,-177 856,-165 856,-165 856,-159 862,-153 868,-153 868,-153 901,-153 901,-153 907,-153 913,-159 913,-165 913,-165 913,-177 913,-177 913,-183 907,-189 901,-189"/>
<text text-anchor="middle" x="884.5" y="-167.3" font-family="Helvetica,sans-Serif" font-size="14.00">rotate</text>
</g>
<!-- rotate&#45;&gt;volt -->
<g id="edge1" class="edge">
<title>rotate&#45;&gt;volt</title>
<path fill="none" stroke="black" stroke-width="1.2" d="M855.74,-172.4C823.53,-174.13 768.85,-177.43 722,-182 521.19,-201.59 281.62,-235.59 192.09,-248.66"/>
<polygon fill="black" stroke="black" stroke-width="1.2" points="191.56,-245.2 182.17,-250.12 192.58,-252.13 191.56,-245.2"/>
</g>
<!-- rotate&#45;&gt;err_error2 -->
<g id="edge11" class="edge">
<title>rotate&#45;&gt;err_error2</title>
<path fill="none" stroke="black" stroke-width="1.2" d="M895.59,-189.01C915.24,-224.07 958.71,-301.66 981.84,-342.94"/>
<polygon fill="black" stroke="black" stroke-width="1.2" points="978.91,-344.87 986.85,-351.89 985.02,-341.45 978.91,-344.87"/>
</g>
<!-- err_error3 -->
<g id="node7" class="node">
<title>err_error3</title>
<path fill="white" stroke="black" d="M1162.5,-411C1162.5,-411 1101.5,-411 1101.5,-411 1095.5,-411 1089.5,-405 1089.5,-399 1089.5,-399 1089.5,-387 1089.5,-387 1089.5,-381 1095.5,-375 1101.5,-375 1101.5,-375 1162.5,-375 1162.5,-375 1168.5,-375 1174.5,-381 1174.5,-387 1174.5,-387 1174.5,-399 1174.5,-399 1174.5,-405 1168.5,-411 1162.5,-411"/>
<text text-anchor="middle" x="1132" y="-389.3" font-family="Helvetica,sans-Serif" font-size="14.00">err_error3</text>
</g>
<!-- rotate&#45;&gt;err_error3 -->
<g id="edge12" class="edge">
<title>rotate&#45;&gt;err_error3</title>
<path fill="none" stroke="black" stroke-width="1.2" d="M913.12,-195.98C960.33,-238.67 1056,-325.18 1103.28,-367.93"/>
<polygon fill="black" stroke="black" stroke-width="1.2" points="915.35,-193.28 905.59,-189.17 910.66,-198.47 915.35,-193.28"/>
<polygon fill="black" stroke="black" stroke-width="1.2" points="1101.21,-370.78 1110.98,-374.89 1105.91,-365.59 1101.21,-370.78"/>
</g>
<!-- mnt_comp3 -->
<g id="node11" class="node">
<title>mnt_comp3</title>
<path fill="white" stroke="black" d="M1035,-145C1035,-145 961,-145 961,-145 955,-145 949,-139 949,-133 949,-133 949,-121 949,-121 949,-115 955,-109 961,-109 961,-109 1035,-109 1035,-109 1041,-109 1047,-115 1047,-121 1047,-121 1047,-133 1047,-133 1047,-139 1041,-145 1035,-145"/>
<text text-anchor="middle" x="998" y="-123.3" font-family="Helvetica,sans-Serif" font-size="14.00">mnt_comp3</text>
</g>
<!-- rotate&#45;&gt;mnt_comp3 -->
<g id="edge15" class="edge">
<title>rotate&#45;&gt;mnt_comp3</title>
<path fill="none" stroke="black" stroke-width="1.2" d="M922.61,-156.35C928.74,-153.94 935.21,-151.38 941.68,-148.83"/>
<polygon fill="black" stroke="black" stroke-width="1.2" points="921.08,-153.2 913.06,-160.12 923.65,-159.71 921.08,-153.2"/>
<polygon fill="black" stroke="black" stroke-width="1.2" points="943.08,-152.04 951.1,-145.11 940.51,-145.53 943.08,-152.04"/>
</g>
<!-- fail_comp1 -->
<g id="node13" class="node">
<title>fail_comp1</title>
<path fill="white" stroke="black" d="M540,-270C540,-270 472,-270 472,-270 466,-270 460,-264 460,-258 460,-258 460,-246 460,-246 460,-240 466,-234 472,-234 472,-234 540,-234 540,-234 546,-234 552,-240 552,-246 552,-246 552,-258 552,-258 552,-264 546,-270 540,-270"/>
<text text-anchor="middle" x="506" y="-248.3" font-family="Helvetica,sans-Serif" font-size="14.00">fail_comp1</text>
</g>
<!-- rotate&#45;&gt;fail_comp1 -->
<g id="edge17" class="edge">
<title>rotate&#45;&gt;fail_comp1</title>
<path fill="none" stroke="black" stroke-width="1.2" d="M855.52,-177.02C793.54,-190.35 643.68,-222.59 562.12,-240.14"/>
<polygon fill="black" stroke="black" stroke-width="1.2" points="561.08,-236.78 552.04,-242.31 562.55,-243.63 561.08,-236.78"/>
</g>
<!-- pressure -->
<g id="node3" class="node">
<title>pressure</title>
<path fill="white" stroke="black" d="M797.5,-64C797.5,-64 744.5,-64 744.5,-64 738.5,-64 732.5,-58 732.5,-52 732.5,-52 732.5,-40 732.5,-40 732.5,-34 738.5,-28 744.5,-28 744.5,-28 797.5,-28 797.5,-28 803.5,-28 809.5,-34 809.5,-40 809.5,-40 809.5,-52 809.5,-52 809.5,-58 803.5,-64 797.5,-64"/>
<text text-anchor="middle" x="771" y="-42.3" font-family="Helvetica,sans-Serif" font-size="14.00">pressure</text>
</g>
<!-- pressure&#45;&gt;rotate -->
<g id="edge9" class="edge">
<title>pressure&#45;&gt;rotate</title>
<path fill="none" stroke="black" stroke-width="1.2" d="M803.05,-64.15C809,-68.31 814.94,-73 820,-78 839.8,-97.58 857.23,-124.17 868.79,-143.9"/>
<polygon fill="black" stroke="black" stroke-width="1.2" points="865.82,-145.76 873.83,-152.7 871.9,-142.28 865.82,-145.76"/>
</g>
<!-- pressure&#45;&gt;mnt_comp3 -->
<g id="edge19" class="edge">
<title>pressure&#45;&gt;mnt_comp3</title>
<path fill="none" stroke="black" stroke-width="1.2" d="M809.66,-59.56C844.98,-72.27 898.32,-91.48 939.07,-106.14"/>
<polygon fill="black" stroke="black" stroke-width="1.2" points="938.01,-109.48 948.61,-109.58 940.38,-102.9 938.01,-109.48"/>
</g>
<!-- vibration&#45;&gt;err_error3 -->
<g id="edge21" class="edge">
<title>vibration&#45;&gt;err_error3</title>
<path fill="none" stroke="black" stroke-width="1.2" d="M417.5,-297.08C430.64,-303.5 445.82,-310.49 460,-316 515.43,-337.54 529.78,-342.85 588,-355 746.12,-388.01 787.74,-387.65 949,-397 992.79,-399.54 1042.6,-398.15 1079.03,-396.34"/>
<polygon fill="black" stroke="black" stroke-width="1.2" points="1079.6,-399.82 1089.4,-395.8 1079.23,-392.83 1079.6,-399.82"/>
</g>
<!-- vibration&#45;&gt;fail_comp1 -->
<g id="edge23" class="edge">
<title>vibration&#45;&gt;fail_comp1</title>
<path fill="none" stroke="black" stroke-width="1.2" d="M420.59,-270.61C429.86,-268.56 439.96,-266.34 449.85,-264.16"/>
<polygon fill="black" stroke="black" stroke-width="1.2" points="450.61,-267.57 459.62,-262 449.11,-260.74 450.61,-267.57"/>
</g>
<!-- err_error1&#45;&gt;rotate -->
<g id="edge10" class="edge">
<title>err_error1&#45;&gt;rotate</title>
<path fill="none" stroke="black" stroke-width="1.2" d="M303.04,-176.57C396.04,-161.07 627.94,-128.74 820,-154 828.62,-155.13 837.73,-157.1 846.28,-159.3"/>
<polygon fill="black" stroke="black" stroke-width="1.2" points="845.43,-162.69 856,-161.96 847.28,-155.94 845.43,-162.69"/>
</g>
<!-- err_error1&#45;&gt;vibration -->
<g id="edge20" class="edge">
<title>err_error1&#45;&gt;vibration</title>
<path fill="none" stroke="black" stroke-width="1.2" d="M284.16,-202.09C302.86,-217.02 329.55,-238.32 350.1,-254.73"/>
<polygon fill="black" stroke="black" stroke-width="1.2" points="347.92,-257.47 357.92,-260.97 352.29,-252 347.92,-257.47"/>
</g>
<!-- err_error4 -->
<g id="node8" class="node">
<title>err_error4</title>
<path fill="white" stroke="black" d="M412,-110C412,-110 351,-110 351,-110 345,-110 339,-104 339,-98 339,-98 339,-86 339,-86 339,-80 345,-74 351,-74 351,-74 412,-74 412,-74 418,-74 424,-80 424,-86 424,-86 424,-98 424,-98 424,-104 418,-110 412,-110"/>
<text text-anchor="middle" x="381.5" y="-88.3" font-family="Helvetica,sans-Serif" font-size="14.00">err_error4</text>
</g>
<!-- err_error1&#45;&gt;err_error4 -->
<g id="edge25" class="edge">
<title>err_error1&#45;&gt;err_error4</title>
<path fill="none" stroke="black" stroke-width="1.2" d="M285.01,-165.82C303.35,-151.65 328.99,-131.83 349.08,-116.29"/>
<polygon fill="black" stroke="black" stroke-width="1.2" points="351.27,-119.02 357.04,-110.14 346.99,-113.49 351.27,-119.02"/>
</g>
<!-- err_error2&#45;&gt;err_error3 -->
<g id="edge26" class="edge">
<title>err_error2&#45;&gt;err_error3</title>
<path fill="none" stroke="black" stroke-width="1.2" d="M1040.77,-377.28C1052.92,-379.4 1066.36,-381.74 1079.06,-383.95"/>
<polygon fill="black" stroke="black" stroke-width="1.2" points="1078.6,-387.42 1089.05,-385.69 1079.8,-380.53 1078.6,-387.42"/>
</g>
<!-- err_error3&#45;&gt;volt -->
<g id="edge5" class="edge">
<title>err_error3&#45;&gt;volt</title>
<path fill="none" stroke="black" stroke-width="1.2" d="M1089.21,-409.99C1040.97,-428.04 958.84,-454 885.5,-454 380.5,-454 380.5,-454 380.5,-454 277.62,-454 200.08,-335.45 169.85,-280.89"/>
<polygon fill="black" stroke="black" stroke-width="1.2" points="172.92,-279.22 165.08,-272.1 166.77,-282.56 172.92,-279.22"/>
</g>
<!-- err_error4&#45;&gt;volt -->
<g id="edge6" class="edge">
<title>err_error4&#45;&gt;volt</title>
<path fill="none" stroke="black" stroke-width="1.2" d="M338.75,-101.07C303.53,-110.39 253.35,-127.75 218,-157 195.3,-175.78 178.18,-205.1 167.75,-226.59"/>
<polygon fill="black" stroke="black" stroke-width="1.2" points="164.49,-225.31 163.43,-235.85 170.83,-228.27 164.49,-225.31"/>
</g>
<!-- err_error4&#45;&gt;rotate -->
<g id="edge13" class="edge">
<title>err_error4&#45;&gt;rotate</title>
<path fill="none" stroke="black" stroke-width="1.2" d="M424.24,-90.89C519.27,-88.89 749.04,-87.3 820,-116 835.71,-122.35 850.24,-134.27 861.42,-145.39"/>
<polygon fill="black" stroke="black" stroke-width="1.2" points="859.16,-148.08 868.61,-152.88 864.21,-143.24 859.16,-148.08"/>
</g>
<!-- err_error4&#45;&gt;pressure -->
<g id="edge18" class="edge">
<title>err_error4&#45;&gt;pressure</title>
<path fill="none" stroke="black" stroke-width="1.2" d="M424.24,-83.86C435.79,-81.77 448.36,-79.65 460,-78 552.42,-64.9 661.06,-54.92 722.09,-49.81"/>
<polygon fill="black" stroke="black" stroke-width="1.2" points="722.51,-53.29 732.19,-48.97 721.93,-46.31 722.51,-53.29"/>
</g>
<!-- mnt_comp1 -->
<g id="node9" class="node">
<title>mnt_comp1</title>
<path fill="white" stroke="black" d="M674,-346C674,-346 600,-346 600,-346 594,-346 588,-340 588,-334 588,-334 588,-322 588,-322 588,-316 594,-310 600,-310 600,-310 674,-310 674,-310 680,-310 686,-316 686,-322 686,-322 686,-334 686,-334 686,-340 680,-346 674,-346"/>
<text text-anchor="middle" x="637" y="-324.3" font-family="Helvetica,sans-Serif" font-size="14.00">mnt_comp1</text>
</g>
<!-- mnt_comp1&#45;&gt;volt -->
<g id="edge7" class="edge">
<title>mnt_comp1&#45;&gt;volt</title>
<path fill="none" stroke="black" stroke-width="1.2" d="M587.8,-328.05C508.76,-326.89 347.43,-319.24 218,-279 209.3,-276.3 200.11,-272.9 191.55,-269.49"/>
<polygon fill="black" stroke="black" stroke-width="1.2" points="192.79,-266.22 182.2,-265.67 190.14,-272.7 192.79,-266.22"/>
</g>
<!-- mnt_comp1&#45;&gt;vibration -->
<g id="edge22" class="edge">
<title>mnt_comp1&#45;&gt;vibration</title>
<path fill="none" stroke="black" stroke-width="1.2" d="M587.92,-318.71C542.8,-309.98 475.68,-297.01 430.57,-288.29"/>
<polygon fill="black" stroke="black" stroke-width="1.2" points="431.21,-284.85 420.73,-286.39 429.88,-291.72 431.21,-284.85"/>
</g>
<!-- mnt_comp2 -->
<g id="node10" class="node">
<title>mnt_comp2</title>
<path fill="white" stroke="black" d="M1169,-191C1169,-191 1095,-191 1095,-191 1089,-191 1083,-185 1083,-179 1083,-179 1083,-167 1083,-167 1083,-161 1089,-155 1095,-155 1095,-155 1169,-155 1169,-155 1175,-155 1181,-161 1181,-167 1181,-167 1181,-179 1181,-179 1181,-185 1175,-191 1169,-191"/>
<text text-anchor="middle" x="1132" y="-169.3" font-family="Helvetica,sans-Serif" font-size="14.00">mnt_comp2</text>
</g>
<!-- mnt_comp1&#45;&gt;mnt_comp2 -->
<g id="edge27" class="edge">
<title>mnt_comp1&#45;&gt;mnt_comp2</title>
<path fill="none" stroke="black" stroke-width="1.2" d="M686.01,-324.74C723,-321.56 775.21,-315.59 820,-305 924.1,-280.38 950.52,-271.2 1047,-225 1063.94,-216.89 1081.76,-206.2 1096.6,-196.63"/>
<polygon fill="black" stroke="black" stroke-width="1.2" points="1098.52,-199.55 1104.97,-191.15 1094.69,-193.7 1098.52,-199.55"/>
</g>
<!-- mnt_comp4 -->
<g id="node12" class="node">
<title>mnt_comp4</title>
<path fill="white" stroke="black" d="M808,-296C808,-296 734,-296 734,-296 728,-296 722,-290 722,-284 722,-284 722,-272 722,-272 722,-266 728,-260 734,-260 734,-260 808,-260 808,-260 814,-260 820,-266 820,-272 820,-272 820,-284 820,-284 820,-290 814,-296 808,-296"/>
<text text-anchor="middle" x="771" y="-274.3" font-family="Helvetica,sans-Serif" font-size="14.00">mnt_comp4</text>
</g>
<!-- mnt_comp1&#45;&gt;mnt_comp4 -->
<g id="edge28" class="edge">
<title>mnt_comp1&#45;&gt;mnt_comp4</title>
<path fill="none" stroke="black" stroke-width="1.2" d="M685.66,-309.95C694.53,-306.59 703.89,-303.04 713.02,-299.58"/>
<polygon fill="black" stroke="black" stroke-width="1.2" points="714.3,-302.84 722.41,-296.02 711.82,-296.29 714.3,-302.84"/>
</g>
<!-- mnt_comp2&#45;&gt;rotate -->
<g id="edge14" class="edge">
<title>mnt_comp2&#45;&gt;rotate</title>
<path fill="none" stroke="black" stroke-width="1.2" d="M1082.76,-172.61C1036,-172.23 966.01,-171.66 923.19,-171.31"/>
<polygon fill="black" stroke="black" stroke-width="1.2" points="923.21,-167.81 913.18,-171.23 923.16,-174.81 923.21,-167.81"/>
</g>
<!-- mnt_comp2&#45;&gt;mnt_comp4 -->
<g id="edge31" class="edge">
<title>mnt_comp2&#45;&gt;mnt_comp4</title>
<path fill="none" stroke="black" stroke-width="1.2" d="M1082.95,-187.05C1017.49,-206.2 900.37,-240.45 830.07,-261.02"/>
<polygon fill="black" stroke="black" stroke-width="1.2" points="828.66,-257.78 820.04,-263.95 830.62,-264.5 828.66,-257.78"/>
</g>
<!-- mnt_comp3&#45;&gt;mnt_comp2 -->
<g id="edge30" class="edge">
<title>mnt_comp3&#45;&gt;mnt_comp2</title>
<path fill="none" stroke="black" stroke-width="1.2" d="M1047.03,-143.74C1055.49,-146.69 1064.38,-149.78 1073.08,-152.82"/>
<polygon fill="black" stroke="black" stroke-width="1.2" points="1072.19,-156.21 1082.79,-156.2 1074.49,-149.6 1072.19,-156.21"/>
</g>
<!-- mnt_comp4&#45;&gt;rotate -->
<g id="edge16" class="edge">
<title>mnt_comp4&#45;&gt;rotate</title>
<path fill="none" stroke="black" stroke-width="1.2" d="M801.9,-259.95C808.12,-255.69 814.47,-250.93 820,-246 836.44,-231.34 852.45,-212.4 864.28,-197.21"/>
<polygon fill="black" stroke="black" stroke-width="1.2" points="867.1,-199.29 870.4,-189.22 861.54,-195.03 867.1,-199.29"/>
</g>
<!-- fail_comp1&#45;&gt;mnt_comp1 -->
<g id="edge29" class="edge">
<title>fail_comp1&#45;&gt;mnt_comp1</title>
<path fill="none" stroke="black" stroke-width="1.2" d="M537.57,-270.01C555.19,-280.39 577.54,-293.56 596.49,-304.72"/>
<polygon fill="black" stroke="black" stroke-width="1.2" points="594.81,-307.79 605.2,-309.85 598.36,-301.76 594.81,-307.79"/>
</g>
<!-- fail_comp1&#45;&gt;mnt_comp4 -->
<g id="edge34" class="edge">
<title>fail_comp1&#45;&gt;mnt_comp4</title>
<path fill="none" stroke="black" stroke-width="1.2" d="M552.21,-256.47C596.36,-260.83 663.75,-267.5 711.86,-272.25"/>
<polygon fill="black" stroke="black" stroke-width="1.2" points="711.53,-275.74 721.82,-273.24 712.21,-268.77 711.53,-275.74"/>
</g>
<!-- fail_comp2 -->
<g id="node14" class="node">
<title>fail_comp2</title>
<path fill="white" stroke="black" d="M1032,-91C1032,-91 964,-91 964,-91 958,-91 952,-85 952,-79 952,-79 952,-67 952,-67 952,-61 958,-55 964,-55 964,-55 1032,-55 1032,-55 1038,-55 1044,-61 1044,-67 1044,-67 1044,-79 1044,-79 1044,-85 1038,-91 1032,-91"/>
<text text-anchor="middle" x="998" y="-69.3" font-family="Helvetica,sans-Serif" font-size="14.00">fail_comp2</text>
</g>
<!-- fail_comp2&#45;&gt;mnt_comp2 -->
<g id="edge32" class="edge">
<title>fail_comp2&#45;&gt;mnt_comp2</title>
<path fill="none" stroke="black" stroke-width="1.2" d="M1033.1,-91.04C1037.86,-93.89 1042.62,-96.92 1047,-100 1067.49,-114.44 1088.79,-133 1104.82,-147.79"/>
<polygon fill="black" stroke="black" stroke-width="1.2" points="1102.54,-150.45 1112.23,-154.71 1107.31,-145.33 1102.54,-150.45"/>
</g>
<!-- fail_comp3 -->
<g id="node15" class="node">
<title>fail_comp3</title>
<path fill="white" stroke="black" d="M80,-221C80,-221 12,-221 12,-221 6,-221 0,-215 0,-209 0,-209 0,-197 0,-197 0,-191 6,-185 12,-185 12,-185 80,-185 80,-185 86,-185 92,-191 92,-197 92,-197 92,-209 92,-209 92,-215 86,-221 80,-221"/>
<text text-anchor="middle" x="46" y="-199.3" font-family="Helvetica,sans-Serif" font-size="14.00">fail_comp3</text>
</g>
<!-- fail_comp3&#45;&gt;volt -->
<g id="edge8" class="edge">
<title>fail_comp3&#45;&gt;volt</title>
<path fill="none" stroke="black" stroke-width="1.2" d="M85.03,-221.12C95.99,-226.35 107.9,-232.03 118.69,-237.17"/>
<polygon fill="black" stroke="black" stroke-width="1.2" points="117.3,-240.39 127.84,-241.53 120.32,-234.07 117.3,-240.39"/>
</g>
<!-- fail_comp3&#45;&gt;vibration -->
<g id="edge24" class="edge">
<title>fail_comp3&#45;&gt;vibration</title>
<path fill="none" stroke="black" stroke-width="1.2" d="M59.36,-221.34C73.41,-240.38 98.31,-269.03 128,-281 194.89,-307.97 280.1,-299.45 332.45,-289.91"/>
<polygon fill="black" stroke="black" stroke-width="1.2" points="333.3,-293.31 342.47,-288 331.99,-286.44 333.3,-293.31"/>
</g>
<!-- fail_comp3&#45;&gt;mnt_comp3 -->
<g id="edge33" class="edge">
<title>fail_comp3&#45;&gt;mnt_comp3</title>
<path fill="none" stroke="black" stroke-width="1.2" d="M55.08,-184.99C78.71,-135.3 152.87,0 259.5,0 259.5,0 259.5,0 772,0 794.94,0 799.36,-8.99 820,-19 863.01,-39.85 873.15,-46.62 913,-73 929.68,-84.04 932.25,-89.07 949,-100 950.89,-101.23 952.83,-102.46 954.81,-103.69"/>
<polygon fill="black" stroke="black" stroke-width="1.2" points="953.24,-106.82 963.61,-108.97 956.84,-100.82 953.24,-106.82"/>
</g>
<!-- fail_comp3&#45;&gt;mnt_comp4 -->
<g id="edge35" class="edge">
<title>fail_comp3&#45;&gt;mnt_comp4</title>
<path fill="none" stroke="black" stroke-width="1.2" d="M92.06,-187.39C126.17,-176.44 174.42,-162.76 218,-157 406.77,-132.05 626.59,-214.48 721.88,-255.81"/>
<polygon fill="black" stroke="black" stroke-width="1.2" points="720.68,-259.11 731.25,-259.92 723.49,-252.7 720.68,-259.11"/>
</g>
</g>
</svg>
