<?xml version="1.0" encoding="UTF-8" standalone="no"?>
<!DOCTYPE svg PUBLIC "-//W3C//DTD SVG 1.1//EN"
 "http://www.w3.org/Graphics/SVG/1.1/DTD/svg11.dtd">
<!-- Generated by graphviz version 2.50.0 (0)
 -->
<!-- Title: G Pages: 1 -->
<svg width="1167pt" height="682pt"
 viewBox="0.00 0.00 1167.00 682.00" xmlns="http://www.w3.org/2000/svg" xmlns:xlink="http://www.w3.org/1999/xlink">
<g id="graph0" class="graph" transform="scale(1 1) rotate(0) translate(4 678)">
<title>G</title>
<polygon fill="white" stroke="transparent" points="-4,4 -4,-678 1163,-678 1163,4 -4,4"/>
<text text-anchor="middle" x="579.5" y="-657.2" font-family="Times,serif" font-size="16.00">model=model4/cbnb_w_mixed.json [machine 61]</text>
<!-- volt -->
<g id="node1" class="node">
<title>volt</title>
<path fill="white" stroke="black" d="M42,-438C42,-438 12,-438 12,-438 6,-438 0,-432 0,-426 0,-426 0,-414 0,-414 0,-408 6,-402 12,-402 12,-402 42,-402 42,-402 48,-402 54,-408 54,-414 54,-414 54,-426 54,-426 54,-432 48,-438 42,-438"/>
<text text-anchor="middle" x="27" y="-416.3" font-family="Helvetica,sans-Serif" font-size="14.00">volt</text>
</g>
<!-- err_error1 -->
<g id="node5" class="node">
<title>err_error1</title>
<path fill="white" stroke="black" d="M163,-308C163,-308 102,-308 102,-308 96,-308 90,-302 90,-296 90,-296 90,-284 90,-284 90,-278 96,-272 102,-272 102,-272 163,-272 163,-272 169,-272 175,-278 175,-284 175,-284 175,-296 175,-296 175,-302 169,-308 163,-308"/>
<text text-anchor="middle" x="132.5" y="-286.3" font-family="Helvetica,sans-Serif" font-size="14.00">err_error1</text>
</g>
<!-- volt&#45;&gt;err_error1 -->
<g id="edge4" class="edge">
<title>volt&#45;&gt;err_error1</title>
<path fill="none" stroke="black" stroke-width="1.2" d="M42.39,-401.92C60.06,-379.74 90.16,-341.92 110.43,-316.46"/>
<polygon fill="black" stroke="black" stroke-width="1.2" points="113.41,-318.34 116.9,-308.34 107.93,-313.98 113.41,-318.34"/>
</g>
<!-- err_error4 -->
<g id="node8" class="node">
<title>err_error4</title>
<path fill="white" stroke="black" d="M875.5,-582C875.5,-582 814.5,-582 814.5,-582 808.5,-582 802.5,-576 802.5,-570 802.5,-570 802.5,-558 802.5,-558 802.5,-552 808.5,-546 814.5,-546 814.5,-546 875.5,-546 875.5,-546 881.5,-546 887.5,-552 887.5,-558 887.5,-558 887.5,-570 887.5,-570 887.5,-576 881.5,-582 875.5,-582"/>
<text text-anchor="middle" x="845" y="-560.3" font-family="Helvetica,sans-Serif" font-size="14.00">err_error4</text>
</g>
<!-- volt&#45;&gt;err_error4 -->
<g id="edge5" class="edge">
<title>volt&#45;&gt;err_error4</title>
<path fill="none" stroke="black" stroke-width="1.2" d="M34.79,-438.01C44.03,-460.15 62.59,-497.42 90,-519 148.36,-564.95 174.22,-572 248.5,-572 248.5,-572 248.5,-572 632,-572 686.61,-572 749.08,-569.32 791.99,-567.06"/>
<polygon fill="black" stroke="black" stroke-width="1.2" points="792.39,-570.54 802.18,-566.51 792.01,-563.55 792.39,-570.54"/>
</g>
<!-- err_error5 -->
<g id="node9" class="node">
<title>err_error5</title>
<path fill="white" stroke="black" d="M403.5,-392C403.5,-392 342.5,-392 342.5,-392 336.5,-392 330.5,-386 330.5,-380 330.5,-380 330.5,-368 330.5,-368 330.5,-362 336.5,-356 342.5,-356 342.5,-356 403.5,-356 403.5,-356 409.5,-356 415.5,-362 415.5,-368 415.5,-368 415.5,-380 415.5,-380 415.5,-386 409.5,-392 403.5,-392"/>
<text text-anchor="middle" x="373" y="-370.3" font-family="Helvetica,sans-Serif" font-size="14.00">err_error5</text>
</g>
<!-- volt&#45;&gt;err_error5 -->
<g id="edge6" class="edge">
<title>volt&#45;&gt;err_error5</title>
<path fill="none" stroke="black" stroke-width="1.2" d="M64.28,-414.33C101.18,-408.64 160,-399.77 211,-393 247.35,-388.17 288.39,-383.34 319.94,-379.76"/>
<polygon fill="black" stroke="black" stroke-width="1.2" points="63.38,-410.93 54.03,-415.92 64.45,-417.85 63.38,-410.93"/>
<polygon fill="black" stroke="black" stroke-width="1.2" points="320.72,-383.19 330.26,-378.59 319.93,-376.24 320.72,-383.19"/>
</g>
<!-- mnt_comp1 -->
<g id="node10" class="node">
<title>mnt_comp1</title>
<path fill="white" stroke="black" d="M1147,-132C1147,-132 1073,-132 1073,-132 1067,-132 1061,-126 1061,-120 1061,-120 1061,-108 1061,-108 1061,-102 1067,-96 1073,-96 1073,-96 1147,-96 1147,-96 1153,-96 1159,-102 1159,-108 1159,-108 1159,-120 1159,-120 1159,-126 1153,-132 1147,-132"/>
<text text-anchor="middle" x="1110" y="-110.3" font-family="Helvetica,sans-Serif" font-size="14.00">mnt_comp1</text>
</g>
<!-- volt&#45;&gt;mnt_comp1 -->
<g id="edge7" class="edge">
<title>volt&#45;&gt;mnt_comp1</title>
<path fill="none" stroke="black" stroke-width="1.2" d="M29.49,-391.75C36.1,-297.53 71.05,0 248.5,0 248.5,0 248.5,0 846,0 935.72,0 1029.5,-56.53 1077.13,-89.98"/>
<polygon fill="black" stroke="black" stroke-width="1.2" points="25.98,-391.75 28.83,-401.95 32.97,-392.2 25.98,-391.75"/>
<polygon fill="black" stroke="black" stroke-width="1.2" points="1075.3,-92.97 1085.48,-95.94 1079.37,-87.28 1075.3,-92.97"/>
</g>
<!-- rotate -->
<g id="node2" class="node">
<title>rotate</title>
<path fill="white" stroke="black" d="M751,-506C751,-506 718,-506 718,-506 712,-506 706,-500 706,-494 706,-494 706,-482 706,-482 706,-476 712,-470 718,-470 718,-470 751,-470 751,-470 757,-470 763,-476 763,-482 763,-482 763,-494 763,-494 763,-500 757,-506 751,-506"/>
<text text-anchor="middle" x="734.5" y="-484.3" font-family="Helvetica,sans-Serif" font-size="14.00">rotate</text>
</g>
<!-- rotate&#45;&gt;volt -->
<g id="edge1" class="edge">
<title>rotate&#45;&gt;volt</title>
<path fill="none" stroke="black" stroke-width="1.2" d="M705.75,-497.42C663.56,-510.88 580.52,-534 508,-534 248.5,-534 248.5,-534 248.5,-534 174.63,-534 152.84,-522.82 90,-484 73.87,-474.03 58.97,-458.94 47.83,-445.92"/>
<polygon fill="black" stroke="black" stroke-width="1.2" points="50.46,-443.61 41.39,-438.14 45.07,-448.07 50.46,-443.61"/>
</g>
<!-- err_error2 -->
<g id="node6" class="node">
<title>err_error2</title>
<path fill="white" stroke="black" d="M1006.5,-475C1006.5,-475 945.5,-475 945.5,-475 939.5,-475 933.5,-469 933.5,-463 933.5,-463 933.5,-451 933.5,-451 933.5,-445 939.5,-439 945.5,-439 945.5,-439 1006.5,-439 1006.5,-439 1012.5,-439 1018.5,-445 1018.5,-451 1018.5,-451 1018.5,-463 1018.5,-463 1018.5,-469 1012.5,-475 1006.5,-475"/>
<text text-anchor="middle" x="976" y="-453.3" font-family="Helvetica,sans-Serif" font-size="14.00">err_error2</text>
</g>
<!-- rotate&#45;&gt;err_error2 -->
<g id="edge9" class="edge">
<title>rotate&#45;&gt;err_error2</title>
<path fill="none" stroke="black" stroke-width="1.2" d="M773.62,-483.07C814.01,-477.84 878.05,-469.55 923.04,-463.73"/>
<polygon fill="black" stroke="black" stroke-width="1.2" points="772.91,-479.63 763.44,-484.38 773.81,-486.57 772.91,-479.63"/>
<polygon fill="black" stroke="black" stroke-width="1.2" points="923.72,-467.17 933.19,-462.41 922.82,-460.22 923.72,-467.17"/>
</g>
<!-- err_error3 -->
<g id="node7" class="node">
<title>err_error3</title>
<path fill="white" stroke="black" d="M1140.5,-582C1140.5,-582 1079.5,-582 1079.5,-582 1073.5,-582 1067.5,-576 1067.5,-570 1067.5,-570 1067.5,-558 1067.5,-558 1067.5,-552 1073.5,-546 1079.5,-546 1079.5,-546 1140.5,-546 1140.5,-546 1146.5,-546 1152.5,-552 1152.5,-558 1152.5,-558 1152.5,-570 1152.5,-570 1152.5,-576 1146.5,-582 1140.5,-582"/>
<text text-anchor="middle" x="1110" y="-560.3" font-family="Helvetica,sans-Serif" font-size="14.00">err_error3</text>
</g>
<!-- rotate&#45;&gt;err_error3 -->
<g id="edge10" class="edge">
<title>rotate&#45;&gt;err_error3</title>
<path fill="none" stroke="black" stroke-width="1.2" d="M763.27,-493.65C825.61,-506.33 977.47,-537.24 1057.58,-553.54"/>
<polygon fill="black" stroke="black" stroke-width="1.2" points="1056.95,-556.98 1067.45,-555.55 1058.35,-550.12 1056.95,-556.98"/>
</g>
<!-- rotate&#45;&gt;err_error4 -->
<g id="edge11" class="edge">
<title>rotate&#45;&gt;err_error4</title>
<path fill="none" stroke="black" stroke-width="1.2" d="M761.21,-506.01C775.7,-516.16 793.98,-528.97 809.68,-539.96"/>
<polygon fill="black" stroke="black" stroke-width="1.2" points="807.9,-542.98 818.1,-545.85 811.91,-537.25 807.9,-542.98"/>
</g>
<!-- fail_comp2 -->
<g id="node15" class="node">
<title>fail_comp2</title>
<path fill="white" stroke="black" d="M879,-357C879,-357 811,-357 811,-357 805,-357 799,-351 799,-345 799,-345 799,-333 799,-333 799,-327 805,-321 811,-321 811,-321 879,-321 879,-321 885,-321 891,-327 891,-333 891,-333 891,-345 891,-345 891,-351 885,-357 879,-357"/>
<text text-anchor="middle" x="845" y="-335.3" font-family="Helvetica,sans-Serif" font-size="14.00">fail_comp2</text>
</g>
<!-- rotate&#45;&gt;fail_comp2 -->
<g id="edge13" class="edge">
<title>rotate&#45;&gt;fail_comp2</title>
<path fill="none" stroke="black" stroke-width="1.2" d="M748.8,-469.73C767.76,-443.7 802.65,-395.78 824.52,-365.75"/>
<polygon fill="black" stroke="black" stroke-width="1.2" points="827.53,-367.56 830.59,-357.42 821.87,-363.44 827.53,-367.56"/>
</g>
<!-- pressure -->
<g id="node3" class="node">
<title>pressure</title>
<path fill="white" stroke="black" d="M276,-438C276,-438 223,-438 223,-438 217,-438 211,-432 211,-426 211,-426 211,-414 211,-414 211,-408 217,-402 223,-402 223,-402 276,-402 276,-402 282,-402 288,-408 288,-414 288,-414 288,-426 288,-426 288,-432 282,-438 276,-438"/>
<text text-anchor="middle" x="249.5" y="-416.3" font-family="Helvetica,sans-Serif" font-size="14.00">pressure</text>
</g>
<!-- pressure&#45;&gt;volt -->
<g id="edge2" class="edge">
<title>pressure&#45;&gt;volt</title>
<path fill="none" stroke="black" stroke-width="1.2" d="M210.96,-420C170.01,-420 104.89,-420 64.39,-420"/>
<polygon fill="black" stroke="black" stroke-width="1.2" points="64.16,-416.5 54.16,-420 64.16,-423.5 64.16,-416.5"/>
</g>
<!-- vibration -->
<g id="node4" class="node">
<title>vibration</title>
<path fill="white" stroke="black" d="M658,-476C658,-476 604,-476 604,-476 598,-476 592,-470 592,-464 592,-464 592,-452 592,-452 592,-446 598,-440 604,-440 604,-440 658,-440 658,-440 664,-440 670,-446 670,-452 670,-452 670,-464 670,-464 670,-470 664,-476 658,-476"/>
<text text-anchor="middle" x="631" y="-454.3" font-family="Helvetica,sans-Serif" font-size="14.00">vibration</text>
</g>
<!-- pressure&#45;&gt;vibration -->
<g id="edge14" class="edge">
<title>pressure&#45;&gt;vibration</title>
<path fill="none" stroke="black" stroke-width="1.2" d="M288.14,-427.99C299.61,-430.21 312.28,-432.43 324,-434 414.62,-446.15 521.22,-452.79 581.68,-455.85"/>
<polygon fill="black" stroke="black" stroke-width="1.2" points="581.53,-459.35 591.69,-456.35 581.88,-452.36 581.53,-459.35"/>
</g>
<!-- pressure&#45;&gt;err_error5 -->
<g id="edge17" class="edge">
<title>pressure&#45;&gt;err_error5</title>
<path fill="none" stroke="black" stroke-width="1.2" d="M288.28,-405.7C298.62,-401.78 310.01,-397.47 320.96,-393.32"/>
<polygon fill="black" stroke="black" stroke-width="1.2" points="322.33,-396.55 330.44,-389.73 319.85,-390 322.33,-396.55"/>
</g>
<!-- mnt_comp2 -->
<g id="node11" class="node">
<title>mnt_comp2</title>
<path fill="white" stroke="black" d="M410,-170C410,-170 336,-170 336,-170 330,-170 324,-164 324,-158 324,-158 324,-146 324,-146 324,-140 330,-134 336,-134 336,-134 410,-134 410,-134 416,-134 422,-140 422,-146 422,-146 422,-158 422,-158 422,-164 416,-170 410,-170"/>
<text text-anchor="middle" x="373" y="-148.3" font-family="Helvetica,sans-Serif" font-size="14.00">mnt_comp2</text>
</g>
<!-- pressure&#45;&gt;mnt_comp2 -->
<g id="edge18" class="edge">
<title>pressure&#45;&gt;mnt_comp2</title>
<path fill="none" stroke="black" stroke-width="1.2" d="M255.15,-401.89C264.91,-365.49 289.49,-281.43 324,-217 331.3,-203.37 341.22,-189.42 350.14,-177.96"/>
<polygon fill="black" stroke="black" stroke-width="1.2" points="352.91,-180.1 356.41,-170.1 347.44,-175.73 352.91,-180.1"/>
</g>
<!-- vibration&#45;&gt;volt -->
<g id="edge3" class="edge">
<title>vibration&#45;&gt;volt</title>
<path fill="none" stroke="black" stroke-width="1.2" d="M591.66,-467.3C541.83,-478.55 451.96,-496 374,-496 248.5,-496 248.5,-496 248.5,-496 179.84,-496 105.4,-462.66 62.96,-440.14"/>
<polygon fill="black" stroke="black" stroke-width="1.2" points="64.61,-437.06 54.15,-435.38 61.28,-443.21 64.61,-437.06"/>
</g>
<!-- vibration&#45;&gt;rotate -->
<g id="edge8" class="edge">
<title>vibration&#45;&gt;rotate</title>
<path fill="none" stroke="black" stroke-width="1.2" d="M670.08,-469.26C678.66,-471.79 687.74,-474.48 696.28,-477"/>
<polygon fill="black" stroke="black" stroke-width="1.2" points="695.4,-480.39 705.98,-479.87 697.38,-473.68 695.4,-480.39"/>
</g>
<!-- vibration&#45;&gt;err_error3 -->
<g id="edge22" class="edge">
<title>vibration&#45;&gt;err_error3</title>
<path fill="none" stroke="black" stroke-width="1.2" d="M645.18,-476.19C658.91,-494.23 681.75,-521.87 706,-541 742.84,-570.07 753.49,-579.54 799,-591 887.95,-613.4 995.28,-594.21 1057.48,-578.74"/>
<polygon fill="black" stroke="black" stroke-width="1.2" points="1058.61,-582.06 1067.44,-576.2 1056.88,-575.28 1058.61,-582.06"/>
</g>
<!-- vibration&#45;&gt;err_error4 -->
<g id="edge23" class="edge">
<title>vibration&#45;&gt;err_error4</title>
<path fill="none" stroke="black" stroke-width="1.2" d="M659.67,-482.68C672.99,-493.65 689.61,-506.07 706,-515 733.22,-529.83 765.82,-541.65 792.49,-549.96"/>
<polygon fill="black" stroke="black" stroke-width="1.2" points="661.74,-479.84 651.84,-476.08 657.23,-485.2 661.74,-479.84"/>
<polygon fill="black" stroke="black" stroke-width="1.2" points="791.82,-553.41 802.4,-552.97 793.85,-546.71 791.82,-553.41"/>
</g>
<!-- mnt_comp4 -->
<g id="node13" class="node">
<title>mnt_comp4</title>
<path fill="white" stroke="black" d="M1013,-357C1013,-357 939,-357 939,-357 933,-357 927,-351 927,-345 927,-345 927,-333 927,-333 927,-327 933,-321 939,-321 939,-321 1013,-321 1013,-321 1019,-321 1025,-327 1025,-333 1025,-333 1025,-345 1025,-345 1025,-351 1019,-357 1013,-357"/>
<text text-anchor="middle" x="976" y="-335.3" font-family="Helvetica,sans-Serif" font-size="14.00">mnt_comp4</text>
</g>
<!-- vibration&#45;&gt;mnt_comp4 -->
<g id="edge25" class="edge">
<title>vibration&#45;&gt;mnt_comp4</title>
<path fill="none" stroke="black" stroke-width="1.2" d="M670.02,-444.81C729.99,-424 846.95,-383.43 917.31,-359.01"/>
<polygon fill="black" stroke="black" stroke-width="1.2" points="918.62,-362.26 926.92,-355.68 916.33,-355.65 918.62,-362.26"/>
</g>
<!-- err_error1&#45;&gt;pressure -->
<g id="edge15" class="edge">
<title>err_error1&#45;&gt;pressure</title>
<path fill="none" stroke="black" stroke-width="1.2" d="M149.49,-308.08C169.2,-330.36 202.86,-368.4 225.38,-393.87"/>
<polygon fill="black" stroke="black" stroke-width="1.2" points="223.03,-396.49 232.27,-401.66 228.27,-391.85 223.03,-396.49"/>
</g>
<!-- err_error1&#45;&gt;vibration -->
<g id="edge20" class="edge">
<title>err_error1&#45;&gt;vibration</title>
<path fill="none" stroke="black" stroke-width="1.2" d="M175.12,-297.52C249.35,-311.04 399.01,-338.8 422,-347 485.62,-369.69 553.65,-409.25 593.97,-434.5"/>
<polygon fill="black" stroke="black" stroke-width="1.2" points="592.3,-437.59 602.62,-439.97 596.04,-431.67 592.3,-437.59"/>
</g>
<!-- mnt_comp3 -->
<g id="node12" class="node">
<title>mnt_comp3</title>
<path fill="white" stroke="black" d="M544,-216C544,-216 470,-216 470,-216 464,-216 458,-210 458,-204 458,-204 458,-192 458,-192 458,-186 464,-180 470,-180 470,-180 544,-180 544,-180 550,-180 556,-186 556,-192 556,-192 556,-204 556,-204 556,-210 550,-216 544,-216"/>
<text text-anchor="middle" x="507" y="-194.3" font-family="Helvetica,sans-Serif" font-size="14.00">mnt_comp3</text>
</g>
<!-- err_error1&#45;&gt;mnt_comp3 -->
<g id="edge27" class="edge">
<title>err_error1&#45;&gt;mnt_comp3</title>
<path fill="none" stroke="black" stroke-width="1.2" d="M171.59,-271.99C209.39,-254.94 269.41,-230.07 324,-217 364.63,-207.27 411.55,-202.52 447.57,-200.21"/>
<polygon fill="black" stroke="black" stroke-width="1.2" points="448.13,-203.68 457.91,-199.59 447.71,-196.69 448.13,-203.68"/>
</g>
<!-- err_error2&#45;&gt;vibration -->
<g id="edge21" class="edge">
<title>err_error2&#45;&gt;vibration</title>
<path fill="none" stroke="black" stroke-width="1.2" d="M933.34,-457.12C869.56,-457.31 747.99,-457.66 680.39,-457.86"/>
<polygon fill="black" stroke="black" stroke-width="1.2" points="680.01,-454.36 670.02,-457.89 680.03,-461.36 680.01,-454.36"/>
</g>
<!-- err_error2&#45;&gt;err_error1 -->
<g id="edge26" class="edge">
<title>err_error2&#45;&gt;err_error1</title>
<path fill="none" stroke="black" stroke-width="1.2" d="M966.37,-439C926.55,-358.8 751.99,-38 508,-38 372,-38 372,-38 372,-38 287.53,-38 268.1,-76.76 211,-139 177.39,-175.64 154.41,-229.58 142.66,-262.1"/>
<polygon fill="black" stroke="black" stroke-width="1.2" points="139.24,-261.26 139.24,-271.85 145.85,-263.58 139.24,-261.26"/>
</g>
<!-- err_error2&#45;&gt;err_error3 -->
<g id="edge30" class="edge">
<title>err_error2&#45;&gt;err_error3</title>
<path fill="none" stroke="black" stroke-width="1.2" d="M999.39,-475.15C1021.2,-492.83 1054.51,-519.83 1078.68,-539.42"/>
<polygon fill="black" stroke="black" stroke-width="1.2" points="1076.53,-542.18 1086.5,-545.76 1080.93,-536.74 1076.53,-542.18"/>
</g>
<!-- err_error2&#45;&gt;mnt_comp1 -->
<g id="edge32" class="edge">
<title>err_error2&#45;&gt;mnt_comp1</title>
<path fill="none" stroke="black" stroke-width="1.2" d="M987.65,-438.96C998.03,-420.9 1013.85,-392.12 1025,-366 1058.84,-286.75 1088.04,-188.92 1101.33,-141.87"/>
<polygon fill="black" stroke="black" stroke-width="1.2" points="1104.75,-142.67 1104.07,-132.09 1098.01,-140.78 1104.75,-142.67"/>
</g>
<!-- err_error3&#45;&gt;pressure -->
<g id="edge16" class="edge">
<title>err_error3&#45;&gt;pressure</title>
<path fill="none" stroke="black" stroke-width="1.2" d="M1078.32,-582.03C1062.76,-590.57 1043.32,-600.33 1025,-607 948.31,-634.92 927.62,-648 846,-648 506,-648 506,-648 506,-648 386.65,-648 297.36,-507.78 264.38,-447.27"/>
<polygon fill="black" stroke="black" stroke-width="1.2" points="267.38,-445.44 259.58,-438.27 261.2,-448.74 267.38,-445.44"/>
</g>
<!-- err_error4&#45;&gt;err_error2 -->
<g id="edge31" class="edge">
<title>err_error4&#45;&gt;err_error2</title>
<path fill="none" stroke="black" stroke-width="1.2" d="M867.88,-545.85C889.1,-528.25 921.46,-501.41 945.06,-481.83"/>
<polygon fill="black" stroke="black" stroke-width="1.2" points="947.55,-484.32 953.01,-475.24 943.08,-478.93 947.55,-484.32"/>
</g>
<!-- err_error4&#45;&gt;err_error3 -->
<g id="edge33" class="edge">
<title>err_error4&#45;&gt;err_error3</title>
<path fill="none" stroke="black" stroke-width="1.2" d="M887.67,-564C933.51,-564 1007.25,-564 1056.88,-564"/>
<polygon fill="black" stroke="black" stroke-width="1.2" points="1057.09,-567.5 1067.09,-564 1057.09,-560.5 1057.09,-567.5"/>
</g>
<!-- mnt_comp1&#45;&gt;mnt_comp2 -->
<g id="edge34" class="edge">
<title>mnt_comp1&#45;&gt;mnt_comp2</title>
<path fill="none" stroke="black" stroke-width="1.2" d="M1060.83,-102.8C1008.32,-91.6 921.66,-76 846,-76 630,-76 630,-76 630,-76 553.78,-76 469.88,-107.34 419.59,-129.77"/>
<polygon fill="black" stroke="black" stroke-width="1.2" points="417.96,-126.67 410.3,-133.99 420.85,-133.05 417.96,-126.67"/>
</g>
<!-- mnt_comp1&#45;&gt;mnt_comp3 -->
<g id="edge35" class="edge">
<title>mnt_comp1&#45;&gt;mnt_comp3</title>
<path fill="none" stroke="black" stroke-width="1.2" d="M1060.53,-114C1007.76,-114 920.88,-114 846,-114 733.5,-114 733.5,-114 733.5,-114 663.49,-114 588.51,-150 545.06,-174.86"/>
<polygon fill="black" stroke="black" stroke-width="1.2" points="543.16,-171.92 536.29,-179.98 546.69,-177.97 543.16,-171.92"/>
</g>
<!-- mnt_comp2&#45;&gt;mnt_comp3 -->
<g id="edge37" class="edge">
<title>mnt_comp2&#45;&gt;mnt_comp3</title>
<path fill="none" stroke="black" stroke-width="1.2" d="M422.03,-168.74C430.49,-171.69 439.38,-174.78 448.08,-177.82"/>
<polygon fill="black" stroke="black" stroke-width="1.2" points="447.19,-181.21 457.79,-181.2 449.49,-174.6 447.19,-181.21"/>
</g>
<!-- mnt_comp3&#45;&gt;vibration -->
<g id="edge24" class="edge">
<title>mnt_comp3&#45;&gt;vibration</title>
<path fill="none" stroke="black" stroke-width="1.2" d="M516.58,-216.28C537.67,-261.22 592.13,-377.3 617.12,-430.56"/>
<polygon fill="black" stroke="black" stroke-width="1.2" points="614.01,-432.17 621.43,-439.74 620.35,-429.2 614.01,-432.17"/>
</g>
<!-- mnt_comp4&#45;&gt;err_error1 -->
<g id="edge28" class="edge">
<title>mnt_comp4&#45;&gt;err_error1</title>
<path fill="none" stroke="black" stroke-width="1.2" d="M945.26,-320.86C891.82,-288.9 775.29,-222.05 670,-181 621.08,-161.93 607.18,-161.71 556,-150 496.94,-136.48 482.33,-130.58 422,-125 378.63,-120.99 364.81,-109.78 324,-125 249.3,-152.85 184.42,-224.65 153.23,-263.72"/>
<polygon fill="black" stroke="black" stroke-width="1.2" points="150.16,-261.97 146.75,-271.99 155.67,-266.29 150.16,-261.97"/>
</g>
<!-- fail_comp1 -->
<g id="node14" class="node">
<title>fail_comp1</title>
<path fill="white" stroke="black" d="M407,-262C407,-262 339,-262 339,-262 333,-262 327,-256 327,-250 327,-250 327,-238 327,-238 327,-232 333,-226 339,-226 339,-226 407,-226 407,-226 413,-226 419,-232 419,-238 419,-238 419,-250 419,-250 419,-256 413,-262 407,-262"/>
<text text-anchor="middle" x="373" y="-240.3" font-family="Helvetica,sans-Serif" font-size="14.00">fail_comp1</text>
</g>
<!-- fail_comp1&#45;&gt;rotate -->
<g id="edge12" class="edge">
<title>fail_comp1&#45;&gt;rotate</title>
<path fill="none" stroke="black" stroke-width="1.2" d="M410.49,-262.01C447.91,-280.94 507.36,-312.33 556,-344 609.41,-378.78 620.91,-390.35 670,-431 682.21,-441.11 695.31,-452.73 706.42,-462.83"/>
<polygon fill="black" stroke="black" stroke-width="1.2" points="704.38,-465.71 714.12,-469.87 709.1,-460.54 704.38,-465.71"/>
</g>
<!-- fail_comp1&#45;&gt;mnt_comp1 -->
<g id="edge36" class="edge">
<title>fail_comp1&#45;&gt;mnt_comp1</title>
<path fill="none" stroke="black" stroke-width="1.2" d="M419.03,-240.49C455.95,-237.32 509.52,-232.08 556,-225 737.8,-197.33 950.47,-150.52 1050.88,-127.54"/>
<polygon fill="black" stroke="black" stroke-width="1.2" points="1051.86,-130.91 1060.82,-125.26 1050.29,-124.09 1051.86,-130.91"/>
</g>
<!-- fail_comp1&#45;&gt;mnt_comp3 -->
<g id="edge39" class="edge">
<title>fail_comp1&#45;&gt;mnt_comp3</title>
<path fill="none" stroke="black" stroke-width="1.2" d="M419.06,-228.3C428.47,-225.02 438.51,-221.52 448.31,-218.1"/>
<polygon fill="black" stroke="black" stroke-width="1.2" points="449.7,-221.33 457.99,-214.73 447.39,-214.72 449.7,-221.33"/>
</g>
<!-- fail_comp2&#45;&gt;pressure -->
<g id="edge19" class="edge">
<title>fail_comp2&#45;&gt;pressure</title>
<path fill="none" stroke="black" stroke-width="1.2" d="M798.8,-346.18C721.64,-358.31 559.52,-383.29 422,-401 380.27,-406.38 332.7,-411.57 298.26,-415.17"/>
<polygon fill="black" stroke="black" stroke-width="1.2" points="297.6,-411.72 288.02,-416.23 298.32,-418.68 297.6,-411.72"/>
</g>
<!-- fail_comp2&#45;&gt;err_error1 -->
<g id="edge29" class="edge">
<title>fail_comp2&#45;&gt;err_error1</title>
<path fill="none" stroke="black" stroke-width="1.2" d="M798.58,-335.87C672.52,-327.17 318.87,-302.78 185.38,-293.58"/>
<polygon fill="black" stroke="black" stroke-width="1.2" points="185.25,-290.06 175.03,-292.86 184.77,-297.04 185.25,-290.06"/>
</g>
<!-- fail_comp2&#45;&gt;mnt_comp2 -->
<g id="edge38" class="edge">
<title>fail_comp2&#45;&gt;mnt_comp2</title>
<path fill="none" stroke="black" stroke-width="1.2" d="M821.01,-320.91C774.23,-285.2 663.29,-206.08 556,-171 516.15,-157.97 469.02,-153.32 432.7,-151.88"/>
<polygon fill="black" stroke="black" stroke-width="1.2" points="432.39,-148.37 422.28,-151.54 432.16,-155.37 432.39,-148.37"/>
</g>
<!-- fail_comp2&#45;&gt;mnt_comp4 -->
<g id="edge40" class="edge">
<title>fail_comp2&#45;&gt;mnt_comp4</title>
<path fill="none" stroke="black" stroke-width="1.2" d="M891.12,-339C899.28,-339 907.9,-339 916.38,-339"/>
<polygon fill="black" stroke="black" stroke-width="1.2" points="916.62,-342.5 926.62,-339 916.62,-335.5 916.62,-342.5"/>
</g>
</g>
</svg>
