<?xml version="1.0" encoding="UTF-8" standalone="no"?>
<!DOCTYPE svg PUBLIC "-//W3C//DTD SVG 1.1//EN"
 "http://www.w3.org/Graphics/SVG/1.1/DTD/svg11.dtd">
<!-- Generated by graphviz version 2.50.0 (0)
 -->
<!-- Title: G Pages: 1 -->
<svg width="1297pt" height="682pt"
 viewBox="0.00 0.00 1297.00 682.00" xmlns="http://www.w3.org/2000/svg" xmlns:xlink="http://www.w3.org/1999/xlink">
<g id="graph0" class="graph" transform="scale(1 1) rotate(0) translate(4 678)">
<title>G</title>
<polygon fill="white" stroke="transparent" points="-4,4 -4,-678 1293,-678 1293,4 -4,4"/>
<text text-anchor="middle" x="644.5" y="-657.2" font-family="Times,serif" font-size="16.00">model=model1/cbnb_w_mixed.json [machine 35]</text>
<!-- volt -->
<g id="node1" class="node">
<title>volt</title>
<path fill="white" stroke="black" d="M304,-384C304,-384 274,-384 274,-384 268,-384 262,-378 262,-372 262,-372 262,-360 262,-360 262,-354 268,-348 274,-348 274,-348 304,-348 304,-348 310,-348 316,-354 316,-360 316,-360 316,-372 316,-372 316,-378 310,-384 304,-384"/>
<text text-anchor="middle" x="289" y="-362.3" font-family="Helvetica,sans-Serif" font-size="14.00">volt</text>
</g>
<!-- err_error2 -->
<g id="node6" class="node">
<title>err_error2</title>
<path fill="white" stroke="black" d="M1277,-118C1277,-118 1216,-118 1216,-118 1210,-118 1204,-112 1204,-106 1204,-106 1204,-94 1204,-94 1204,-88 1210,-82 1216,-82 1216,-82 1277,-82 1277,-82 1283,-82 1289,-88 1289,-94 1289,-94 1289,-106 1289,-106 1289,-112 1283,-118 1277,-118"/>
<text text-anchor="middle" x="1246.5" y="-96.3" font-family="Helvetica,sans-Serif" font-size="14.00">err_error2</text>
</g>
<!-- volt&#45;&gt;err_error2 -->
<g id="edge2" class="edge">
<title>volt&#45;&gt;err_error2</title>
<path fill="none" stroke="black" stroke-width="1.2" d="M303.5,-347.81C341.48,-298.32 455.11,-161.52 587,-110 799.19,-27.12 1079.95,-67.19 1194.03,-89.03"/>
<polygon fill="black" stroke="black" stroke-width="1.2" points="1193.41,-92.48 1203.9,-90.96 1194.75,-85.61 1193.41,-92.48"/>
</g>
<!-- err_error5 -->
<g id="node9" class="node">
<title>err_error5</title>
<path fill="white" stroke="black" d="M425,-384C425,-384 364,-384 364,-384 358,-384 352,-378 352,-372 352,-372 352,-360 352,-360 352,-354 358,-348 364,-348 364,-348 425,-348 425,-348 431,-348 437,-354 437,-360 437,-360 437,-372 437,-372 437,-378 431,-384 425,-384"/>
<text text-anchor="middle" x="394.5" y="-362.3" font-family="Helvetica,sans-Serif" font-size="14.00">err_error5</text>
</g>
<!-- volt&#45;&gt;err_error5 -->
<g id="edge4" class="edge">
<title>volt&#45;&gt;err_error5</title>
<path fill="none" stroke="black" stroke-width="1.2" d="M316.12,-366C323.87,-366 332.64,-366 341.42,-366"/>
<polygon fill="black" stroke="black" stroke-width="1.2" points="341.68,-369.5 351.68,-366 341.68,-362.5 341.68,-369.5"/>
</g>
<!-- mnt_comp2 -->
<g id="node11" class="node">
<title>mnt_comp2</title>
<path fill="white" stroke="black" d="M1022,-484C1022,-484 948,-484 948,-484 942,-484 936,-478 936,-472 936,-472 936,-460 936,-460 936,-454 942,-448 948,-448 948,-448 1022,-448 1022,-448 1028,-448 1034,-454 1034,-460 1034,-460 1034,-472 1034,-472 1034,-478 1028,-484 1022,-484"/>
<text text-anchor="middle" x="985" y="-462.3" font-family="Helvetica,sans-Serif" font-size="14.00">mnt_comp2</text>
</g>
<!-- volt&#45;&gt;mnt_comp2 -->
<g id="edge6" class="edge">
<title>volt&#45;&gt;mnt_comp2</title>
<path fill="none" stroke="black" stroke-width="1.2" d="M310.4,-384.01C321.87,-393.19 336.89,-403.71 352,-410 541.42,-488.86 603.06,-472.11 808,-482 848.84,-483.97 859.29,-485.84 900,-482 908.39,-481.21 917.19,-479.98 925.81,-478.55"/>
<polygon fill="black" stroke="black" stroke-width="1.2" points="926.56,-481.97 935.81,-476.79 925.35,-475.08 926.56,-481.97"/>
</g>
<!-- rotate -->
<g id="node2" class="node">
<title>rotate</title>
<path fill="white" stroke="black" d="M760,-308C760,-308 727,-308 727,-308 721,-308 715,-302 715,-296 715,-296 715,-284 715,-284 715,-278 721,-272 727,-272 727,-272 760,-272 760,-272 766,-272 772,-278 772,-284 772,-284 772,-296 772,-296 772,-302 766,-308 760,-308"/>
<text text-anchor="middle" x="743.5" y="-286.3" font-family="Helvetica,sans-Serif" font-size="14.00">rotate</text>
</g>
<!-- pressure -->
<g id="node3" class="node">
<title>pressure</title>
<path fill="white" stroke="black" d="M1145.5,-461C1145.5,-461 1092.5,-461 1092.5,-461 1086.5,-461 1080.5,-455 1080.5,-449 1080.5,-449 1080.5,-437 1080.5,-437 1080.5,-431 1086.5,-425 1092.5,-425 1092.5,-425 1145.5,-425 1145.5,-425 1151.5,-425 1157.5,-431 1157.5,-437 1157.5,-437 1157.5,-449 1157.5,-449 1157.5,-455 1151.5,-461 1145.5,-461"/>
<text text-anchor="middle" x="1119" y="-439.3" font-family="Helvetica,sans-Serif" font-size="14.00">pressure</text>
</g>
<!-- rotate&#45;&gt;pressure -->
<g id="edge8" class="edge">
<title>rotate&#45;&gt;pressure</title>
<path fill="none" stroke="black" stroke-width="1.2" d="M749.33,-308.06C757.13,-333.37 775.04,-378.79 808,-401 829.33,-415.37 988.78,-431.47 1070.3,-438.87"/>
<polygon fill="black" stroke="black" stroke-width="1.2" points="1070.04,-442.36 1080.32,-439.77 1070.67,-435.39 1070.04,-442.36"/>
</g>
<!-- rotate&#45;&gt;err_error2 -->
<g id="edge9" class="edge">
<title>rotate&#45;&gt;err_error2</title>
<path fill="none" stroke="black" stroke-width="1.2" d="M782,-302.35C861.09,-325.9 1047.61,-368.05 1168,-287 1221.35,-251.09 1238.03,-170.97 1243.2,-128.19"/>
<polygon fill="black" stroke="black" stroke-width="1.2" points="782.6,-298.87 772.01,-299.3 780.56,-305.56 782.6,-298.87"/>
<polygon fill="black" stroke="black" stroke-width="1.2" points="1246.69,-128.49 1244.29,-118.17 1239.73,-127.73 1246.69,-128.49"/>
</g>
<!-- fail_comp2 -->
<g id="node15" class="node">
<title>fail_comp2</title>
<path fill="white" stroke="black" d="M888,-392C888,-392 820,-392 820,-392 814,-392 808,-386 808,-380 808,-380 808,-368 808,-368 808,-362 814,-356 820,-356 820,-356 888,-356 888,-356 894,-356 900,-362 900,-368 900,-368 900,-380 900,-380 900,-386 894,-392 888,-392"/>
<text text-anchor="middle" x="854" y="-370.3" font-family="Helvetica,sans-Serif" font-size="14.00">fail_comp2</text>
</g>
<!-- rotate&#45;&gt;fail_comp2 -->
<g id="edge13" class="edge">
<title>rotate&#45;&gt;fail_comp2</title>
<path fill="none" stroke="black" stroke-width="1.2" d="M775.82,-314.25C790.1,-325.3 806.97,-338.36 821.29,-349.45"/>
<polygon fill="black" stroke="black" stroke-width="1.2" points="777.83,-311.37 767.78,-308.02 773.54,-316.91 777.83,-311.37"/>
<polygon fill="black" stroke="black" stroke-width="1.2" points="819.34,-352.37 829.39,-355.72 823.62,-346.83 819.34,-352.37"/>
</g>
<!-- fail_comp4 -->
<g id="node17" class="node">
<title>fail_comp4</title>
<path fill="white" stroke="black" d="M888,-224C888,-224 820,-224 820,-224 814,-224 808,-218 808,-212 808,-212 808,-200 808,-200 808,-194 814,-188 820,-188 820,-188 888,-188 888,-188 894,-188 900,-194 900,-200 900,-200 900,-212 900,-212 900,-218 894,-224 888,-224"/>
<text text-anchor="middle" x="854" y="-202.3" font-family="Helvetica,sans-Serif" font-size="14.00">fail_comp4</text>
</g>
<!-- rotate&#45;&gt;fail_comp4 -->
<g id="edge15" class="edge">
<title>rotate&#45;&gt;fail_comp4</title>
<path fill="none" stroke="black" stroke-width="1.2" d="M765.96,-271.82C778.12,-261.66 793.73,-248.9 808,-238 811.34,-235.45 814.86,-232.83 818.4,-230.24"/>
<polygon fill="black" stroke="black" stroke-width="1.2" points="820.55,-233.01 826.61,-224.32 816.45,-227.33 820.55,-233.01"/>
</g>
<!-- err_error1 -->
<g id="node5" class="node">
<title>err_error1</title>
<path fill="white" stroke="black" d="M1277,-544C1277,-544 1216,-544 1216,-544 1210,-544 1204,-538 1204,-532 1204,-532 1204,-520 1204,-520 1204,-514 1210,-508 1216,-508 1216,-508 1277,-508 1277,-508 1283,-508 1289,-514 1289,-520 1289,-520 1289,-532 1289,-532 1289,-538 1283,-544 1277,-544"/>
<text text-anchor="middle" x="1246.5" y="-522.3" font-family="Helvetica,sans-Serif" font-size="14.00">err_error1</text>
</g>
<!-- pressure&#45;&gt;err_error1 -->
<g id="edge16" class="edge">
<title>pressure&#45;&gt;err_error1</title>
<path fill="none" stroke="black" stroke-width="1.2" d="M1147.23,-461.01C1165.44,-473.05 1189.61,-489.03 1209.41,-502.13"/>
<polygon fill="black" stroke="black" stroke-width="1.2" points="1207.62,-505.14 1217.89,-507.74 1211.48,-499.3 1207.62,-505.14"/>
</g>
<!-- pressure&#45;&gt;err_error2 -->
<g id="edge17" class="edge">
<title>pressure&#45;&gt;err_error2</title>
<path fill="none" stroke="black" stroke-width="1.2" d="M1131.91,-424.71C1142.47,-407.89 1157.77,-382.01 1168,-358 1202.36,-277.4 1227.93,-176.61 1239.18,-128.33"/>
<polygon fill="black" stroke="black" stroke-width="1.2" points="1242.65,-128.84 1241.48,-118.31 1235.83,-127.27 1242.65,-128.84"/>
</g>
<!-- vibration -->
<g id="node4" class="node">
<title>vibration</title>
<path fill="white" stroke="black" d="M539,-300C539,-300 485,-300 485,-300 479,-300 473,-294 473,-288 473,-288 473,-276 473,-276 473,-270 479,-264 485,-264 485,-264 539,-264 539,-264 545,-264 551,-270 551,-276 551,-276 551,-288 551,-288 551,-294 545,-300 539,-300"/>
<text text-anchor="middle" x="512" y="-278.3" font-family="Helvetica,sans-Serif" font-size="14.00">vibration</text>
</g>
<!-- vibration&#45;&gt;volt -->
<g id="edge1" class="edge">
<title>vibration&#45;&gt;volt</title>
<path fill="none" stroke="black" stroke-width="1.2" d="M472.83,-294.89C440.45,-306.01 392.89,-322.79 352,-339 343.36,-342.43 334.13,-346.32 325.5,-350.06"/>
<polygon fill="black" stroke="black" stroke-width="1.2" points="323.84,-346.96 316.08,-354.18 326.65,-353.38 323.84,-346.96"/>
</g>
<!-- vibration&#45;&gt;err_error2 -->
<g id="edge21" class="edge">
<title>vibration&#45;&gt;err_error2</title>
<path fill="none" stroke="black" stroke-width="1.2" d="M518.1,-253.86C526.08,-218.86 545.18,-160.4 587,-133 637.2,-100.11 1047.07,-98.96 1193.63,-99.62"/>
<polygon fill="black" stroke="black" stroke-width="1.2" points="514.62,-253.4 515.96,-263.91 521.47,-254.85 514.62,-253.4"/>
<polygon fill="black" stroke="black" stroke-width="1.2" points="1193.71,-103.12 1203.72,-99.67 1193.74,-96.12 1193.71,-103.12"/>
</g>
<!-- vibration&#45;&gt;mnt_comp2 -->
<g id="edge23" class="edge">
<title>vibration&#45;&gt;mnt_comp2</title>
<path fill="none" stroke="black" stroke-width="1.2" d="M521.86,-300.04C536.99,-330.08 567.98,-388.31 587,-401 690.77,-470.23 842.99,-474.5 925.54,-470.75"/>
<polygon fill="black" stroke="black" stroke-width="1.2" points="925.93,-474.24 935.74,-470.23 925.58,-467.25 925.93,-474.24"/>
</g>
<!-- fail_comp3 -->
<g id="node16" class="node">
<title>fail_comp3</title>
<path fill="white" stroke="black" d="M667,-392C667,-392 599,-392 599,-392 593,-392 587,-386 587,-380 587,-380 587,-368 587,-368 587,-362 593,-356 599,-356 599,-356 667,-356 667,-356 673,-356 679,-362 679,-368 679,-368 679,-380 679,-380 679,-386 673,-392 667,-392"/>
<text text-anchor="middle" x="633" y="-370.3" font-family="Helvetica,sans-Serif" font-size="14.00">fail_comp3</text>
</g>
<!-- vibration&#45;&gt;fail_comp3 -->
<g id="edge25" class="edge">
<title>vibration&#45;&gt;fail_comp3</title>
<path fill="none" stroke="black" stroke-width="1.2" d="M536.51,-300.18C554.85,-314.35 580.49,-334.17 600.58,-349.71"/>
<polygon fill="black" stroke="black" stroke-width="1.2" points="598.49,-352.51 608.54,-355.86 602.77,-346.98 598.49,-352.51"/>
</g>
<!-- vibration&#45;&gt;fail_comp4 -->
<g id="edge26" class="edge">
<title>vibration&#45;&gt;fail_comp4</title>
<path fill="none" stroke="black" stroke-width="1.2" d="M551.01,-273.5C611.21,-260.05 728.76,-233.77 798.11,-218.27"/>
<polygon fill="black" stroke="black" stroke-width="1.2" points="798.98,-221.66 807.98,-216.06 797.46,-214.83 798.98,-221.66"/>
</g>
<!-- err_error3 -->
<g id="node7" class="node">
<title>err_error3</title>
<path fill="white" stroke="black" d="M207.5,-224C207.5,-224 146.5,-224 146.5,-224 140.5,-224 134.5,-218 134.5,-212 134.5,-212 134.5,-200 134.5,-200 134.5,-194 140.5,-188 146.5,-188 146.5,-188 207.5,-188 207.5,-188 213.5,-188 219.5,-194 219.5,-200 219.5,-200 219.5,-212 219.5,-212 219.5,-218 213.5,-224 207.5,-224"/>
<text text-anchor="middle" x="177" y="-202.3" font-family="Helvetica,sans-Serif" font-size="14.00">err_error3</text>
</g>
<!-- err_error3&#45;&gt;volt -->
<g id="edge3" class="edge">
<title>err_error3&#45;&gt;volt</title>
<path fill="none" stroke="black" stroke-width="1.2" d="M190.4,-224.04C209.72,-252.13 247.08,-306.48 269.55,-339.17"/>
<polygon fill="black" stroke="black" stroke-width="1.2" points="266.92,-341.52 275.47,-347.78 272.69,-337.55 266.92,-341.52"/>
</g>
<!-- err_error3&#45;&gt;rotate -->
<g id="edge10" class="edge">
<title>err_error3&#45;&gt;rotate</title>
<path fill="none" stroke="black" stroke-width="1.2" d="M219.72,-206C263.13,-206 333.08,-206 393.5,-206 393.5,-206 393.5,-206 513,-206 584.7,-206 661.74,-242.6 705.83,-267.48"/>
<polygon fill="black" stroke="black" stroke-width="1.2" points="704.31,-270.64 714.72,-272.6 707.8,-264.58 704.31,-270.64"/>
</g>
<!-- err_error3&#45;&gt;err_error2 -->
<g id="edge30" class="edge">
<title>err_error3&#45;&gt;err_error2</title>
<path fill="none" stroke="black" stroke-width="1.2" d="M189.29,-187.7C217.73,-144.16 296.96,-38 393.5,-38 393.5,-38 393.5,-38 634,-38 811.96,-38 856.36,-45.38 1034,-56 1093.61,-59.56 1110.05,-51.57 1168,-66 1179.36,-68.83 1191.15,-73.19 1202.01,-77.85"/>
<polygon fill="black" stroke="black" stroke-width="1.2" points="1200.72,-81.11 1211.28,-82 1203.58,-74.72 1200.72,-81.11"/>
</g>
<!-- err_error4 -->
<g id="node8" class="node">
<title>err_error4</title>
<path fill="white" stroke="black" d="M663.5,-178C663.5,-178 602.5,-178 602.5,-178 596.5,-178 590.5,-172 590.5,-166 590.5,-166 590.5,-154 590.5,-154 590.5,-148 596.5,-142 602.5,-142 602.5,-142 663.5,-142 663.5,-142 669.5,-142 675.5,-148 675.5,-154 675.5,-154 675.5,-166 675.5,-166 675.5,-172 669.5,-178 663.5,-178"/>
<text text-anchor="middle" x="633" y="-156.3" font-family="Helvetica,sans-Serif" font-size="14.00">err_error4</text>
</g>
<!-- err_error4&#45;&gt;rotate -->
<g id="edge11" class="edge">
<title>err_error4&#45;&gt;rotate</title>
<path fill="none" stroke="black" stroke-width="1.2" d="M662.92,-178.1C668.58,-182.3 674.23,-187.02 679,-192 699.43,-213.33 717.17,-242.12 728.67,-262.97"/>
<polygon fill="black" stroke="black" stroke-width="1.2" points="725.68,-264.8 733.5,-271.94 731.84,-261.48 725.68,-264.8"/>
</g>
<!-- mnt_comp3 -->
<g id="node12" class="node">
<title>mnt_comp3</title>
<path fill="white" stroke="black" d="M1022,-278C1022,-278 948,-278 948,-278 942,-278 936,-272 936,-266 936,-266 936,-254 936,-254 936,-248 942,-242 948,-242 948,-242 1022,-242 1022,-242 1028,-242 1034,-248 1034,-254 1034,-254 1034,-266 1034,-266 1034,-272 1028,-278 1022,-278"/>
<text text-anchor="middle" x="985" y="-256.3" font-family="Helvetica,sans-Serif" font-size="14.00">mnt_comp3</text>
</g>
<!-- err_error4&#45;&gt;mnt_comp3 -->
<g id="edge31" class="edge">
<title>err_error4&#45;&gt;mnt_comp3</title>
<path fill="none" stroke="black" stroke-width="1.2" d="M675.74,-154.51C729.98,-149.21 826.42,-146.21 900,-179 926.6,-190.85 949.81,-214.93 965.05,-233.77"/>
<polygon fill="black" stroke="black" stroke-width="1.2" points="962.36,-236.01 971.28,-241.73 967.87,-231.7 962.36,-236.01"/>
</g>
<!-- err_error4&#45;&gt;fail_comp4 -->
<g id="edge32" class="edge">
<title>err_error4&#45;&gt;fail_comp4</title>
<path fill="none" stroke="black" stroke-width="1.2" d="M685.8,-170.88C719.51,-177.96 763.43,-187.19 797.79,-194.4"/>
<polygon fill="black" stroke="black" stroke-width="1.2" points="686.21,-167.39 675.71,-168.76 684.77,-174.24 686.21,-167.39"/>
<polygon fill="black" stroke="black" stroke-width="1.2" points="797.17,-197.85 807.67,-196.48 798.61,-191 797.17,-197.85"/>
</g>
<!-- err_error5&#45;&gt;rotate -->
<g id="edge12" class="edge">
<title>err_error5&#45;&gt;rotate</title>
<path fill="none" stroke="black" stroke-width="1.2" d="M437.01,-356.91C505.14,-341.99 639.64,-312.53 705.03,-298.21"/>
<polygon fill="black" stroke="black" stroke-width="1.2" points="705.9,-301.6 714.92,-296.04 704.4,-294.76 705.9,-301.6"/>
</g>
<!-- err_error5&#45;&gt;vibration -->
<g id="edge22" class="edge">
<title>err_error5&#45;&gt;vibration</title>
<path fill="none" stroke="black" stroke-width="1.2" d="M420.28,-347.98C437.06,-335.77 459.43,-319.5 477.76,-306.17"/>
<polygon fill="black" stroke="black" stroke-width="1.2" points="479.84,-308.99 485.86,-300.28 475.72,-303.33 479.84,-308.99"/>
</g>
<!-- err_error5&#45;&gt;err_error1 -->
<g id="edge27" class="edge">
<title>err_error5&#45;&gt;err_error1</title>
<path fill="none" stroke="black" stroke-width="1.2" d="M437.19,-382.83C475.64,-397.91 534.53,-419.92 587,-435 739.48,-478.82 778.68,-489.47 936,-510 1026.03,-521.75 1131.84,-524.96 1193.51,-525.79"/>
<polygon fill="black" stroke="black" stroke-width="1.2" points="1193.72,-529.29 1203.76,-525.91 1193.8,-522.29 1193.72,-529.29"/>
</g>
<!-- mnt_comp1 -->
<g id="node10" class="node">
<title>mnt_comp1</title>
<path fill="white" stroke="black" d="M214,-455C214,-455 140,-455 140,-455 134,-455 128,-449 128,-443 128,-443 128,-431 128,-431 128,-425 134,-419 140,-419 140,-419 214,-419 214,-419 220,-419 226,-425 226,-431 226,-431 226,-443 226,-443 226,-449 220,-455 214,-455"/>
<text text-anchor="middle" x="177" y="-433.3" font-family="Helvetica,sans-Serif" font-size="14.00">mnt_comp1</text>
</g>
<!-- mnt_comp1&#45;&gt;volt -->
<g id="edge5" class="edge">
<title>mnt_comp1&#45;&gt;volt</title>
<path fill="none" stroke="black" stroke-width="1.2" d="M206.04,-418.9C220.41,-409.63 238.04,-398.25 253.26,-388.43"/>
<polygon fill="black" stroke="black" stroke-width="1.2" points="255.39,-391.21 261.9,-382.85 251.6,-385.33 255.39,-391.21"/>
</g>
<!-- mnt_comp1&#45;&gt;mnt_comp2 -->
<g id="edge33" class="edge">
<title>mnt_comp1&#45;&gt;mnt_comp2</title>
<path fill="none" stroke="black" stroke-width="1.2" d="M196.46,-455.03C212.52,-469.75 237.08,-490 262,-502 316.2,-528.09 333.35,-534 393.5,-534 393.5,-534 393.5,-534 744.5,-534 813.04,-534 888.56,-507.91 936.12,-488.05"/>
<polygon fill="black" stroke="black" stroke-width="1.2" points="937.71,-491.18 945.54,-484.04 934.97,-484.74 937.71,-491.18"/>
</g>
<!-- mnt_comp1&#45;&gt;mnt_comp3 -->
<g id="edge34" class="edge">
<title>mnt_comp1&#45;&gt;mnt_comp3</title>
<path fill="none" stroke="black" stroke-width="1.2" d="M226.1,-438.66C316.28,-440.67 516.35,-439.79 679,-401 739.46,-386.58 750.06,-369.5 808,-347 848.49,-331.27 861.03,-333.2 900,-314 905.17,-311.45 927.64,-296.98 948.04,-283.65"/>
<polygon fill="black" stroke="black" stroke-width="1.2" points="950.15,-286.46 956.6,-278.05 946.32,-280.6 950.15,-286.46"/>
</g>
<!-- mnt_comp2&#45;&gt;pressure -->
<g id="edge18" class="edge">
<title>mnt_comp2&#45;&gt;pressure</title>
<path fill="none" stroke="black" stroke-width="1.2" d="M1034.03,-457.63C1045.77,-455.58 1058.34,-453.4 1070.08,-451.35"/>
<polygon fill="black" stroke="black" stroke-width="1.2" points="1070.89,-454.76 1080.14,-449.6 1069.69,-447.87 1070.89,-454.76"/>
</g>
<!-- mnt_comp4 -->
<g id="node13" class="node">
<title>mnt_comp4</title>
<path fill="white" stroke="black" d="M1156,-278C1156,-278 1082,-278 1082,-278 1076,-278 1070,-272 1070,-266 1070,-266 1070,-254 1070,-254 1070,-248 1076,-242 1082,-242 1082,-242 1156,-242 1156,-242 1162,-242 1168,-248 1168,-254 1168,-254 1168,-266 1168,-266 1168,-272 1162,-278 1156,-278"/>
<text text-anchor="middle" x="1119" y="-256.3" font-family="Helvetica,sans-Serif" font-size="14.00">mnt_comp4</text>
</g>
<!-- mnt_comp2&#45;&gt;mnt_comp4 -->
<g id="edge36" class="edge">
<title>mnt_comp2&#45;&gt;mnt_comp4</title>
<path fill="none" stroke="black" stroke-width="1.2" d="M997.71,-447.72C1021.1,-411.22 1073.66,-329.2 1100.9,-286.68"/>
<polygon fill="black" stroke="black" stroke-width="1.2" points="1103.86,-288.55 1106.31,-278.24 1097.97,-284.77 1103.86,-288.55"/>
</g>
<!-- mnt_comp3&#45;&gt;mnt_comp4 -->
<g id="edge38" class="edge">
<title>mnt_comp3&#45;&gt;mnt_comp4</title>
<path fill="none" stroke="black" stroke-width="1.2" d="M1034.03,-260C1042.31,-260 1051,-260 1059.52,-260"/>
<polygon fill="black" stroke="black" stroke-width="1.2" points="1059.79,-263.5 1069.79,-260 1059.79,-256.5 1059.79,-263.5"/>
</g>
<!-- fail_comp1 -->
<g id="node14" class="node">
<title>fail_comp1</title>
<path fill="white" stroke="black" d="M80,-403C80,-403 12,-403 12,-403 6,-403 0,-397 0,-391 0,-391 0,-379 0,-379 0,-373 6,-367 12,-367 12,-367 80,-367 80,-367 86,-367 92,-373 92,-379 92,-379 92,-391 92,-391 92,-397 86,-403 80,-403"/>
<text text-anchor="middle" x="46" y="-381.3" font-family="Helvetica,sans-Serif" font-size="14.00">fail_comp1</text>
</g>
<!-- fail_comp1&#45;&gt;vibration -->
<g id="edge24" class="edge">
<title>fail_comp1&#45;&gt;vibration</title>
<path fill="none" stroke="black" stroke-width="1.2" d="M92.07,-371.18C151.23,-353.47 258.54,-322.8 352,-304 388.82,-296.59 430.93,-290.89 462.57,-287.15"/>
<polygon fill="black" stroke="black" stroke-width="1.2" points="463.34,-290.58 472.87,-285.95 462.54,-283.63 463.34,-290.58"/>
</g>
<!-- fail_comp1&#45;&gt;err_error1 -->
<g id="edge28" class="edge">
<title>fail_comp1&#45;&gt;err_error1</title>
<path fill="none" stroke="black" stroke-width="1.2" d="M53.32,-403.08C75.36,-462.5 154.85,-648 288,-648 288,-648 288,-648 986,-648 1076.92,-648 1170.19,-585.91 1216.18,-550.32"/>
<polygon fill="black" stroke="black" stroke-width="1.2" points="1218.51,-552.94 1224.2,-544 1214.18,-547.44 1218.51,-552.94"/>
</g>
<!-- fail_comp1&#45;&gt;mnt_comp1 -->
<g id="edge35" class="edge">
<title>fail_comp1&#45;&gt;mnt_comp1</title>
<path fill="none" stroke="black" stroke-width="1.2" d="M91.76,-403.04C101.46,-406.95 111.83,-411.13 121.85,-415.17"/>
<polygon fill="black" stroke="black" stroke-width="1.2" points="120.74,-418.5 131.32,-418.99 123.36,-412.01 120.74,-418.5"/>
</g>
<!-- fail_comp1&#45;&gt;mnt_comp4 -->
<g id="edge41" class="edge">
<title>fail_comp1&#45;&gt;mnt_comp4</title>
<path fill="none" stroke="black" stroke-width="1.2" d="M49.29,-366.95C60.03,-290.83 112.55,0 288,0 288,0 288,0 634,0 831.01,0 1025.17,-169.24 1092.84,-234.63"/>
<polygon fill="black" stroke="black" stroke-width="1.2" points="1090.5,-237.24 1100.1,-241.72 1095.39,-232.23 1090.5,-237.24"/>
</g>
<!-- fail_comp2&#45;&gt;pressure -->
<g id="edge19" class="edge">
<title>fail_comp2&#45;&gt;pressure</title>
<path fill="none" stroke="black" stroke-width="1.2" d="M900.2,-379.05C936.82,-383.87 989.46,-392.42 1034,-406 1046.88,-409.93 1060.4,-415.29 1072.74,-420.71"/>
<polygon fill="black" stroke="black" stroke-width="1.2" points="1071.37,-423.93 1081.92,-424.85 1074.24,-417.55 1071.37,-423.93"/>
</g>
<!-- fail_comp2&#45;&gt;mnt_comp2 -->
<g id="edge37" class="edge">
<title>fail_comp2&#45;&gt;mnt_comp2</title>
<path fill="none" stroke="black" stroke-width="1.2" d="M880.49,-392.18C900.45,-406.42 928.41,-426.35 950.23,-441.92"/>
<polygon fill="black" stroke="black" stroke-width="1.2" points="948.39,-444.9 958.57,-447.86 952.46,-439.21 948.39,-444.9"/>
</g>
<!-- fail_comp2&#45;&gt;mnt_comp4 -->
<g id="edge42" class="edge">
<title>fail_comp2&#45;&gt;mnt_comp4</title>
<path fill="none" stroke="black" stroke-width="1.2" d="M896.67,-355.94C942.8,-335.94 1017.18,-303.7 1066.81,-282.19"/>
<polygon fill="black" stroke="black" stroke-width="1.2" points="1068.3,-285.36 1076.09,-278.17 1065.52,-278.93 1068.3,-285.36"/>
</g>
<!-- fail_comp3&#45;&gt;volt -->
<g id="edge7" class="edge">
<title>fail_comp3&#45;&gt;volt</title>
<path fill="none" stroke="black" stroke-width="1.2" d="M586.87,-384.51C531.1,-395.8 433.57,-409.99 352,-393 343.06,-391.14 333.84,-387.92 325.32,-384.34"/>
<polygon fill="black" stroke="black" stroke-width="1.2" points="326.62,-381.08 316.06,-380.19 323.76,-387.47 326.62,-381.08"/>
</g>
<!-- fail_comp3&#45;&gt;rotate -->
<g id="edge14" class="edge">
<title>fail_comp3&#45;&gt;rotate</title>
<path fill="none" stroke="black" stroke-width="1.2" d="M660.39,-355.68C666.56,-351.28 673.06,-346.54 679,-342 690.37,-333.32 702.59,-323.45 713.24,-314.65"/>
<polygon fill="black" stroke="black" stroke-width="1.2" points="715.59,-317.26 721.04,-308.18 711.11,-311.87 715.59,-317.26"/>
</g>
<!-- fail_comp3&#45;&gt;pressure -->
<g id="edge20" class="edge">
<title>fail_comp3&#45;&gt;pressure</title>
<path fill="none" stroke="black" stroke-width="1.2" d="M667.61,-392.12C722.08,-420.35 833.85,-473.6 936,-493 978.79,-501.13 992,-504.55 1034,-493 1052.88,-487.81 1071.8,-477.14 1086.89,-466.99"/>
<polygon fill="black" stroke="black" stroke-width="1.2" points="1089.11,-469.71 1095.31,-461.12 1085.1,-463.97 1089.11,-469.71"/>
</g>
<!-- fail_comp3&#45;&gt;mnt_comp3 -->
<g id="edge39" class="edge">
<title>fail_comp3&#45;&gt;mnt_comp3</title>
<path fill="none" stroke="black" stroke-width="1.2" d="M679.29,-357.91C714.32,-345.57 764.1,-328.3 808,-314 847.14,-301.25 891.44,-287.66 925.81,-277.31"/>
<polygon fill="black" stroke="black" stroke-width="1.2" points="927.11,-280.57 935.68,-274.34 925.09,-273.87 927.11,-280.57"/>
</g>
<!-- fail_comp4&#45;&gt;err_error1 -->
<g id="edge29" class="edge">
<title>fail_comp4&#45;&gt;err_error1</title>
<path fill="none" stroke="black" stroke-width="1.2" d="M900.2,-194.67C967.67,-180.72 1094.63,-166.34 1168,-233 1207.47,-268.86 1233.03,-431.65 1241.96,-497.86"/>
<polygon fill="black" stroke="black" stroke-width="1.2" points="1238.51,-498.53 1243.29,-507.99 1245.45,-497.61 1238.51,-498.53"/>
</g>
<!-- fail_comp4&#45;&gt;mnt_comp3 -->
<g id="edge40" class="edge">
<title>fail_comp4&#45;&gt;mnt_comp3</title>
<path fill="none" stroke="black" stroke-width="1.2" d="M898.31,-224.13C908.84,-228.54 920.22,-233.3 931.14,-237.87"/>
<polygon fill="black" stroke="black" stroke-width="1.2" points="930,-241.19 940.58,-241.82 932.71,-234.73 930,-241.19"/>
</g>
<!-- fail_comp4&#45;&gt;mnt_comp4 -->
<g id="edge43" class="edge">
<title>fail_comp4&#45;&gt;mnt_comp4</title>
<path fill="none" stroke="black" stroke-width="1.2" d="M900.26,-210.78C936.68,-215.11 989.02,-222.45 1034,-233 1042.56,-235.01 1051.5,-237.47 1060.23,-240.09"/>
<polygon fill="black" stroke="black" stroke-width="1.2" points="1059.37,-243.49 1069.96,-243.09 1061.43,-236.8 1059.37,-243.49"/>
</g>
</g>
</svg>
