<?xml version="1.0" encoding="UTF-8" standalone="no"?>
<!DOCTYPE svg PUBLIC "-//W3C//DTD SVG 1.1//EN"
 "http://www.w3.org/Graphics/SVG/1.1/DTD/svg11.dtd">
<!-- Generated by graphviz version 2.50.0 (0)
 -->
<!-- Title: G Pages: 1 -->
<svg width="1013pt" height="827pt"
 viewBox="0.00 0.00 1013.00 826.97" xmlns="http://www.w3.org/2000/svg" xmlns:xlink="http://www.w3.org/1999/xlink">
<g id="graph0" class="graph" transform="scale(1 1) rotate(0) translate(4 822.97)">
<title>G</title>
<polygon fill="white" stroke="transparent" points="-4,4 -4,-822.97 1009,-822.97 1009,4 -4,4"/>
<text text-anchor="middle" x="502.5" y="-802.17" font-family="Times,serif" font-size="16.00">model=model3/cbnb_w_mixed.json [machine 33]</text>
<!-- volt -->
<g id="node1" class="node">
<title>volt</title>
<path fill="white" stroke="black" d="M189,-639.97C189,-639.97 159,-639.97 159,-639.97 153,-639.97 147,-633.97 147,-627.97 147,-627.97 147,-615.97 147,-615.97 147,-609.97 153,-603.97 159,-603.97 159,-603.97 189,-603.97 189,-603.97 195,-603.97 201,-609.97 201,-615.97 201,-615.97 201,-627.97 201,-627.97 201,-633.97 195,-639.97 189,-639.97"/>
<text text-anchor="middle" x="174" y="-618.27" font-family="Helvetica,sans-Serif" font-size="14.00">volt</text>
</g>
<!-- rotate -->
<g id="node2" class="node">
<title>rotate</title>
<path fill="white" stroke="black" d="M321.5,-507.97C321.5,-507.97 288.5,-507.97 288.5,-507.97 282.5,-507.97 276.5,-501.97 276.5,-495.97 276.5,-495.97 276.5,-483.97 276.5,-483.97 276.5,-477.97 282.5,-471.97 288.5,-471.97 288.5,-471.97 321.5,-471.97 321.5,-471.97 327.5,-471.97 333.5,-477.97 333.5,-483.97 333.5,-483.97 333.5,-495.97 333.5,-495.97 333.5,-501.97 327.5,-507.97 321.5,-507.97"/>
<text text-anchor="middle" x="305" y="-486.27" font-family="Helvetica,sans-Serif" font-size="14.00">rotate</text>
</g>
<!-- volt&#45;&gt;rotate -->
<g id="edge1" class="edge">
<title>volt&#45;&gt;rotate</title>
<path fill="none" stroke="black" stroke-width="1.2" d="M199.74,-596.66C222.55,-573.31 256.26,-538.82 279.12,-515.43"/>
<polygon fill="black" stroke="black" stroke-width="1.2" points="197.15,-594.29 192.67,-603.89 202.16,-599.18 197.15,-594.29"/>
<polygon fill="black" stroke="black" stroke-width="1.2" points="281.65,-517.85 286.13,-508.25 276.64,-512.96 281.65,-517.85"/>
</g>
<!-- pressure -->
<g id="node3" class="node">
<title>pressure</title>
<path fill="white" stroke="black" d="M465.5,-471.97C465.5,-471.97 412.5,-471.97 412.5,-471.97 406.5,-471.97 400.5,-465.97 400.5,-459.97 400.5,-459.97 400.5,-447.97 400.5,-447.97 400.5,-441.97 406.5,-435.97 412.5,-435.97 412.5,-435.97 465.5,-435.97 465.5,-435.97 471.5,-435.97 477.5,-441.97 477.5,-447.97 477.5,-447.97 477.5,-459.97 477.5,-459.97 477.5,-465.97 471.5,-471.97 465.5,-471.97"/>
<text text-anchor="middle" x="439" y="-450.27" font-family="Helvetica,sans-Serif" font-size="14.00">pressure</text>
</g>
<!-- volt&#45;&gt;pressure -->
<g id="edge2" class="edge">
<title>volt&#45;&gt;pressure</title>
<path fill="none" stroke="black" stroke-width="1.2" d="M201.05,-607.9C236.4,-588.55 301.2,-552.09 354,-516.97 372.06,-504.96 391.47,-490.5 407.08,-478.47"/>
<polygon fill="black" stroke="black" stroke-width="1.2" points="409.58,-480.96 415.33,-472.07 405.29,-475.43 409.58,-480.96"/>
</g>
<!-- err_error1 -->
<g id="node5" class="node">
<title>err_error1</title>
<path fill="white" stroke="black" d="M721.5,-612.97C721.5,-612.97 660.5,-612.97 660.5,-612.97 654.5,-612.97 648.5,-606.97 648.5,-600.97 648.5,-600.97 648.5,-588.97 648.5,-588.97 648.5,-582.97 654.5,-576.97 660.5,-576.97 660.5,-576.97 721.5,-576.97 721.5,-576.97 727.5,-576.97 733.5,-582.97 733.5,-588.97 733.5,-588.97 733.5,-600.97 733.5,-600.97 733.5,-606.97 727.5,-612.97 721.5,-612.97"/>
<text text-anchor="middle" x="691" y="-591.27" font-family="Helvetica,sans-Serif" font-size="14.00">err_error1</text>
</g>
<!-- volt&#45;&gt;err_error1 -->
<g id="edge3" class="edge">
<title>volt&#45;&gt;err_error1</title>
<path fill="none" stroke="black" stroke-width="1.2" d="M201.23,-632.9C271.26,-660.32 466.93,-725.31 609,-659.97 628.72,-650.9 626.63,-636.97 643.97,-619.93"/>
<polygon fill="black" stroke="black" stroke-width="1.2" points="646.72,-622.18 652,-612.99 642.15,-616.88 646.72,-622.18"/>
</g>
<!-- err_error2 -->
<g id="node6" class="node">
<title>err_error2</title>
<path fill="white" stroke="black" d="M721.5,-264.97C721.5,-264.97 660.5,-264.97 660.5,-264.97 654.5,-264.97 648.5,-258.97 648.5,-252.97 648.5,-252.97 648.5,-240.97 648.5,-240.97 648.5,-234.97 654.5,-228.97 660.5,-228.97 660.5,-228.97 721.5,-228.97 721.5,-228.97 727.5,-228.97 733.5,-234.97 733.5,-240.97 733.5,-240.97 733.5,-252.97 733.5,-252.97 733.5,-258.97 727.5,-264.97 721.5,-264.97"/>
<text text-anchor="middle" x="691" y="-243.27" font-family="Helvetica,sans-Serif" font-size="14.00">err_error2</text>
</g>
<!-- volt&#45;&gt;err_error2 -->
<g id="edge4" class="edge">
<title>volt&#45;&gt;err_error2</title>
<path fill="none" stroke="black" stroke-width="1.2" d="M181.17,-594.11C198.92,-521.48 257.51,-326.34 390,-244.97 466.15,-198.2 574.98,-215.02 638.48,-231.2"/>
<polygon fill="black" stroke="black" stroke-width="1.2" points="177.75,-593.37 178.85,-603.91 184.56,-594.99 177.75,-593.37"/>
<polygon fill="black" stroke="black" stroke-width="1.2" points="637.71,-234.61 648.27,-233.78 639.49,-227.85 637.71,-234.61"/>
</g>
<!-- err_error5 -->
<g id="node9" class="node">
<title>err_error5</title>
<path fill="white" stroke="black" d="M597,-650.97C597,-650.97 536,-650.97 536,-650.97 530,-650.97 524,-644.97 524,-638.97 524,-638.97 524,-626.97 524,-626.97 524,-620.97 530,-614.97 536,-614.97 536,-614.97 597,-614.97 597,-614.97 603,-614.97 609,-620.97 609,-626.97 609,-626.97 609,-638.97 609,-638.97 609,-644.97 603,-650.97 597,-650.97"/>
<text text-anchor="middle" x="566.5" y="-629.27" font-family="Helvetica,sans-Serif" font-size="14.00">err_error5</text>
</g>
<!-- volt&#45;&gt;err_error5 -->
<g id="edge5" class="edge">
<title>volt&#45;&gt;err_error5</title>
<path fill="none" stroke="black" stroke-width="1.2" d="M201.23,-622.71C265,-624.5 429.14,-629.13 513.6,-631.51"/>
<polygon fill="black" stroke="black" stroke-width="1.2" points="513.64,-635.01 523.74,-631.79 513.84,-628.01 513.64,-635.01"/>
</g>
<!-- mnt_comp1 -->
<g id="node10" class="node">
<title>mnt_comp1</title>
<path fill="white" stroke="black" d="M476,-742.97C476,-742.97 402,-742.97 402,-742.97 396,-742.97 390,-736.97 390,-730.97 390,-730.97 390,-718.97 390,-718.97 390,-712.97 396,-706.97 402,-706.97 402,-706.97 476,-706.97 476,-706.97 482,-706.97 488,-712.97 488,-718.97 488,-718.97 488,-730.97 488,-730.97 488,-736.97 482,-742.97 476,-742.97"/>
<text text-anchor="middle" x="439" y="-721.27" font-family="Helvetica,sans-Serif" font-size="14.00">mnt_comp1</text>
</g>
<!-- volt&#45;&gt;mnt_comp1 -->
<g id="edge6" class="edge">
<title>volt&#45;&gt;mnt_comp1</title>
<path fill="none" stroke="black" stroke-width="1.2" d="M197.24,-647.57C212.25,-663.18 233.39,-682.13 256,-692.97 294.74,-711.53 342.75,-719.43 379.73,-722.74"/>
<polygon fill="black" stroke="black" stroke-width="1.2" points="199.76,-645.15 190.38,-640.23 194.65,-649.93 199.76,-645.15"/>
<polygon fill="black" stroke="black" stroke-width="1.2" points="379.61,-726.24 389.85,-723.56 380.17,-719.27 379.61,-726.24"/>
</g>
<!-- rotate&#45;&gt;pressure -->
<g id="edge7" class="edge">
<title>rotate&#45;&gt;pressure</title>
<path fill="none" stroke="black" stroke-width="1.2" d="M343.69,-479.69C358.26,-475.71 375.1,-471.12 390.49,-466.93"/>
<polygon fill="black" stroke="black" stroke-width="1.2" points="342.4,-476.41 333.67,-482.42 344.24,-483.17 342.4,-476.41"/>
<polygon fill="black" stroke="black" stroke-width="1.2" points="391.62,-470.24 400.35,-464.24 389.78,-463.49 391.62,-470.24"/>
</g>
<!-- rotate&#45;&gt;err_error1 -->
<g id="edge8" class="edge">
<title>rotate&#45;&gt;err_error1</title>
<path fill="none" stroke="black" stroke-width="1.2" d="M330.48,-508.16C346.61,-519.28 368.62,-532.87 390,-540.97 473.51,-572.58 577.27,-585.98 638.3,-591.44"/>
<polygon fill="black" stroke="black" stroke-width="1.2" points="638.19,-594.95 648.45,-592.31 638.79,-587.97 638.19,-594.95"/>
</g>
<!-- rotate&#45;&gt;err_error2 -->
<g id="edge9" class="edge">
<title>rotate&#45;&gt;err_error2</title>
<path fill="none" stroke="black" stroke-width="1.2" d="M309.27,-461.99C315.99,-418.2 335.6,-334.12 390,-291.97 461.92,-236.24 573.39,-235.23 638.28,-240.47"/>
<polygon fill="black" stroke="black" stroke-width="1.2" points="305.8,-461.57 307.86,-471.96 312.73,-462.55 305.8,-461.57"/>
<polygon fill="black" stroke="black" stroke-width="1.2" points="638.01,-243.96 648.28,-241.36 638.63,-236.99 638.01,-243.96"/>
</g>
<!-- rotate&#45;&gt;mnt_comp1 -->
<g id="edge12" class="edge">
<title>rotate&#45;&gt;mnt_comp1</title>
<path fill="none" stroke="black" stroke-width="1.2" d="M316.14,-508.02C339.17,-549.03 395.55,-649.4 422.79,-697.88"/>
<polygon fill="black" stroke="black" stroke-width="1.2" points="419.88,-699.85 427.83,-706.86 425.98,-696.42 419.88,-699.85"/>
</g>
<!-- fail_comp2 -->
<g id="node15" class="node">
<title>fail_comp2</title>
<path fill="white" stroke="black" d="M725,-354.97C725,-354.97 657,-354.97 657,-354.97 651,-354.97 645,-348.97 645,-342.97 645,-342.97 645,-330.97 645,-330.97 645,-324.97 651,-318.97 657,-318.97 657,-318.97 725,-318.97 725,-318.97 731,-318.97 737,-324.97 737,-330.97 737,-330.97 737,-342.97 737,-342.97 737,-348.97 731,-354.97 725,-354.97"/>
<text text-anchor="middle" x="691" y="-333.27" font-family="Helvetica,sans-Serif" font-size="14.00">fail_comp2</text>
</g>
<!-- rotate&#45;&gt;fail_comp2 -->
<g id="edge15" class="edge">
<title>rotate&#45;&gt;fail_comp2</title>
<path fill="none" stroke="black" stroke-width="1.2" d="M318.31,-462.82C332.37,-434.16 357.67,-389.07 390,-358.97 439.64,-312.75 458.28,-302.71 524,-285.97 560.61,-276.64 572.7,-275.49 609,-285.97 627.55,-291.32 645.95,-302.32 660.51,-312.74"/>
<polygon fill="black" stroke="black" stroke-width="1.2" points="315.14,-461.33 313.98,-471.86 321.45,-464.35 315.14,-461.33"/>
<polygon fill="black" stroke="black" stroke-width="1.2" points="658.5,-315.61 668.61,-318.76 662.67,-309.99 658.5,-315.61"/>
</g>
<!-- pressure&#45;&gt;err_error2 -->
<g id="edge18" class="edge">
<title>pressure&#45;&gt;err_error2</title>
<path fill="none" stroke="black" stroke-width="1.2" d="M459.69,-435.66C468.4,-427.52 478.75,-417.8 488,-408.97 504.14,-393.56 505.28,-386.12 524,-373.97 558.12,-351.81 575.82,-363.52 609,-339.97 634.66,-321.75 657.56,-293.79 672.41,-273.28"/>
<polygon fill="black" stroke="black" stroke-width="1.2" points="675.35,-275.18 678.26,-265 669.63,-271.14 675.35,-275.18"/>
</g>
<!-- err_error3 -->
<g id="node7" class="node">
<title>err_error3</title>
<path fill="white" stroke="black" d="M597,-330.97C597,-330.97 536,-330.97 536,-330.97 530,-330.97 524,-324.97 524,-318.97 524,-318.97 524,-306.97 524,-306.97 524,-300.97 530,-294.97 536,-294.97 536,-294.97 597,-294.97 597,-294.97 603,-294.97 609,-300.97 609,-306.97 609,-306.97 609,-318.97 609,-318.97 609,-324.97 603,-330.97 597,-330.97"/>
<text text-anchor="middle" x="566.5" y="-309.27" font-family="Helvetica,sans-Serif" font-size="14.00">err_error3</text>
</g>
<!-- pressure&#45;&gt;err_error3 -->
<g id="edge19" class="edge">
<title>pressure&#45;&gt;err_error3</title>
<path fill="none" stroke="black" stroke-width="1.2" d="M457.45,-427.57C473.36,-404.49 498.24,-370.74 524,-344.97 526.38,-342.59 528.94,-340.23 531.58,-337.93"/>
<polygon fill="black" stroke="black" stroke-width="1.2" points="454.55,-425.61 451.81,-435.85 460.33,-429.55 454.55,-425.61"/>
<polygon fill="black" stroke="black" stroke-width="1.2" points="534.14,-340.35 539.62,-331.27 529.68,-334.95 534.14,-340.35"/>
</g>
<!-- pressure&#45;&gt;err_error5 -->
<g id="edge20" class="edge">
<title>pressure&#45;&gt;err_error5</title>
<path fill="none" stroke="black" stroke-width="1.2" d="M452.72,-472.12C474.99,-503.88 521.11,-569.66 546.94,-606.5"/>
<polygon fill="black" stroke="black" stroke-width="1.2" points="544.14,-608.59 552.74,-614.77 549.87,-604.57 544.14,-608.59"/>
</g>
<!-- mnt_comp2 -->
<g id="node11" class="node">
<title>mnt_comp2</title>
<path fill="white" stroke="black" d="M993,-213.97C993,-213.97 919,-213.97 919,-213.97 913,-213.97 907,-207.97 907,-201.97 907,-201.97 907,-189.97 907,-189.97 907,-183.97 913,-177.97 919,-177.97 919,-177.97 993,-177.97 993,-177.97 999,-177.97 1005,-183.97 1005,-189.97 1005,-189.97 1005,-201.97 1005,-201.97 1005,-207.97 999,-213.97 993,-213.97"/>
<text text-anchor="middle" x="956" y="-192.27" font-family="Helvetica,sans-Serif" font-size="14.00">mnt_comp2</text>
</g>
<!-- pressure&#45;&gt;mnt_comp2 -->
<g id="edge21" class="edge">
<title>pressure&#45;&gt;mnt_comp2</title>
<path fill="none" stroke="black" stroke-width="1.2" d="M477.83,-444.79C512.24,-436.23 564.32,-422.75 609,-408.97 733.03,-370.72 769.48,-360.84 871,-279.97 893.24,-262.25 915.89,-239.25 932.06,-221.8"/>
<polygon fill="black" stroke="black" stroke-width="1.2" points="934.84,-223.95 939.01,-214.21 929.67,-219.22 934.84,-223.95"/>
</g>
<!-- pressure&#45;&gt;fail_comp2 -->
<g id="edge23" class="edge">
<title>pressure&#45;&gt;fail_comp2</title>
<path fill="none" stroke="black" stroke-width="1.2" d="M477.7,-436.33C521.56,-415.8 594.07,-381.86 641.94,-359.46"/>
<polygon fill="black" stroke="black" stroke-width="1.2" points="643.6,-362.55 651.17,-355.14 640.63,-356.21 643.6,-362.55"/>
</g>
<!-- vibration -->
<g id="node4" class="node">
<title>vibration</title>
<path fill="white" stroke="black" d="M983,-639.97C983,-639.97 929,-639.97 929,-639.97 923,-639.97 917,-633.97 917,-627.97 917,-627.97 917,-615.97 917,-615.97 917,-609.97 923,-603.97 929,-603.97 929,-603.97 983,-603.97 983,-603.97 989,-603.97 995,-609.97 995,-615.97 995,-615.97 995,-627.97 995,-627.97 995,-633.97 989,-639.97 983,-639.97"/>
<text text-anchor="middle" x="956" y="-618.27" font-family="Helvetica,sans-Serif" font-size="14.00">vibration</text>
</g>
<!-- vibration&#45;&gt;pressure -->
<g id="edge16" class="edge">
<title>vibration&#45;&gt;pressure</title>
<path fill="none" stroke="black" stroke-width="1.2" d="M949.19,-603.91C938.75,-574.71 913.8,-517.77 871,-491.97 807.61,-453.75 586.41,-451.86 487.93,-453.01"/>
<polygon fill="black" stroke="black" stroke-width="1.2" points="487.62,-449.51 477.66,-453.14 487.71,-456.51 487.62,-449.51"/>
</g>
<!-- vibration&#45;&gt;err_error1 -->
<g id="edge24" class="edge">
<title>vibration&#45;&gt;err_error1</title>
<path fill="none" stroke="black" stroke-width="1.2" d="M916.94,-618.06C871.35,-613.38 794.78,-605.52 743.82,-600.29"/>
<polygon fill="black" stroke="black" stroke-width="1.2" points="743.98,-596.79 733.67,-599.25 743.26,-603.75 743.98,-596.79"/>
</g>
<!-- vibration&#45;&gt;err_error5 -->
<g id="edge26" class="edge">
<title>vibration&#45;&gt;err_error5</title>
<path fill="none" stroke="black" stroke-width="1.2" d="M906.47,-623.35C833.18,-625.43 694.85,-629.35 619.55,-631.49"/>
<polygon fill="black" stroke="black" stroke-width="1.2" points="906.9,-626.83 916.79,-623.05 906.7,-619.84 906.9,-626.83"/>
<polygon fill="black" stroke="black" stroke-width="1.2" points="619.23,-628 609.34,-631.78 619.43,-634.99 619.23,-628"/>
</g>
<!-- err_error1&#45;&gt;pressure -->
<g id="edge17" class="edge">
<title>err_error1&#45;&gt;pressure</title>
<path fill="none" stroke="black" stroke-width="1.2" d="M657.88,-576.85C612.66,-551.35 530.24,-504.86 480.76,-476.95"/>
<polygon fill="black" stroke="black" stroke-width="1.2" points="482.35,-473.83 471.92,-471.97 478.91,-479.93 482.35,-473.83"/>
</g>
<!-- err_error1&#45;&gt;mnt_comp2 -->
<g id="edge32" class="edge">
<title>err_error1&#45;&gt;mnt_comp2</title>
<path fill="none" stroke="black" stroke-width="1.2" d="M733.5,-595.08C774.17,-592.88 835.13,-582.99 871,-545.97 916.07,-499.45 943.23,-298.76 951.93,-224.09"/>
<polygon fill="black" stroke="black" stroke-width="1.2" points="955.42,-224.36 953.08,-214.02 948.47,-223.56 955.42,-224.36"/>
</g>
<!-- mnt_comp3 -->
<g id="node12" class="node">
<title>mnt_comp3</title>
<path fill="white" stroke="black" d="M859,-536.97C859,-536.97 785,-536.97 785,-536.97 779,-536.97 773,-530.97 773,-524.97 773,-524.97 773,-512.97 773,-512.97 773,-506.97 779,-500.97 785,-500.97 785,-500.97 859,-500.97 859,-500.97 865,-500.97 871,-506.97 871,-512.97 871,-512.97 871,-524.97 871,-524.97 871,-530.97 865,-536.97 859,-536.97"/>
<text text-anchor="middle" x="822" y="-515.27" font-family="Helvetica,sans-Serif" font-size="14.00">mnt_comp3</text>
</g>
<!-- err_error1&#45;&gt;mnt_comp3 -->
<g id="edge33" class="edge">
<title>err_error1&#45;&gt;mnt_comp3</title>
<path fill="none" stroke="black" stroke-width="1.2" d="M722.57,-576.96C740.19,-566.57 762.54,-553.41 781.49,-542.25"/>
<polygon fill="black" stroke="black" stroke-width="1.2" points="783.36,-545.2 790.2,-537.11 779.81,-539.17 783.36,-545.2"/>
</g>
<!-- err_error3&#45;&gt;rotate -->
<g id="edge10" class="edge">
<title>err_error3&#45;&gt;rotate</title>
<path fill="none" stroke="black" stroke-width="1.2" d="M536.22,-331.14C501.05,-353.16 440.48,-391.7 390,-426.97 372.35,-439.3 353.1,-453.66 337.49,-465.56"/>
<polygon fill="black" stroke="black" stroke-width="1.2" points="335.04,-463.03 329.22,-471.89 339.29,-468.59 335.04,-463.03"/>
</g>
<!-- err_error3&#45;&gt;err_error2 -->
<g id="edge34" class="edge">
<title>err_error3&#45;&gt;err_error2</title>
<path fill="none" stroke="black" stroke-width="1.2" d="M600.97,-294.93C615.29,-287.22 632.17,-278.13 647.36,-269.94"/>
<polygon fill="black" stroke="black" stroke-width="1.2" points="649.42,-272.81 656.57,-264.98 646.1,-266.64 649.42,-272.81"/>
</g>
<!-- err_error4 -->
<g id="node8" class="node">
<title>err_error4</title>
<path fill="white" stroke="black" d="M852.5,-704.97C852.5,-704.97 791.5,-704.97 791.5,-704.97 785.5,-704.97 779.5,-698.97 779.5,-692.97 779.5,-692.97 779.5,-680.97 779.5,-680.97 779.5,-674.97 785.5,-668.97 791.5,-668.97 791.5,-668.97 852.5,-668.97 852.5,-668.97 858.5,-668.97 864.5,-674.97 864.5,-680.97 864.5,-680.97 864.5,-692.97 864.5,-692.97 864.5,-698.97 858.5,-704.97 852.5,-704.97"/>
<text text-anchor="middle" x="822" y="-683.27" font-family="Helvetica,sans-Serif" font-size="14.00">err_error4</text>
</g>
<!-- err_error4&#45;&gt;vibration -->
<g id="edge25" class="edge">
<title>err_error4&#45;&gt;vibration</title>
<path fill="none" stroke="black" stroke-width="1.2" d="M859.77,-668.86C875.07,-661.33 893.01,-652.49 909.16,-644.54"/>
<polygon fill="black" stroke="black" stroke-width="1.2" points="911,-647.53 918.43,-639.98 907.91,-641.25 911,-647.53"/>
</g>
<!-- err_error5&#45;&gt;rotate -->
<g id="edge11" class="edge">
<title>err_error5&#45;&gt;rotate</title>
<path fill="none" stroke="black" stroke-width="1.2" d="M523.97,-626.43C486.73,-619.17 431.69,-604.9 390,-578.97 363.79,-562.67 340.28,-536.21 324.85,-516.38"/>
<polygon fill="black" stroke="black" stroke-width="1.2" points="327.57,-514.18 318.74,-508.33 322,-518.41 327.57,-514.18"/>
</g>
<!-- err_error5&#45;&gt;err_error1 -->
<g id="edge31" class="edge">
<title>err_error5&#45;&gt;err_error1</title>
<path fill="none" stroke="black" stroke-width="1.2" d="M609.31,-620C618.78,-617.06 628.93,-613.91 638.73,-610.87"/>
<polygon fill="black" stroke="black" stroke-width="1.2" points="639.86,-614.19 648.37,-607.88 637.79,-607.5 639.86,-614.19"/>
</g>
<!-- mnt_comp1&#45;&gt;vibration -->
<g id="edge27" class="edge">
<title>mnt_comp1&#45;&gt;vibration</title>
<path fill="none" stroke="black" stroke-width="1.2" d="M488.31,-735.48C571.01,-751 743.15,-772.32 871,-713.97 900.74,-700.39 924.65,-670.77 939.24,-648.78"/>
<polygon fill="black" stroke="black" stroke-width="1.2" points="942.3,-650.5 944.73,-640.19 936.4,-646.73 942.3,-650.5"/>
</g>
<!-- mnt_comp1&#45;&gt;mnt_comp3 -->
<g id="edge35" class="edge">
<title>mnt_comp1&#45;&gt;mnt_comp3</title>
<path fill="none" stroke="black" stroke-width="1.2" d="M488.07,-720.01C522.49,-715.47 569.54,-707.23 609,-692.97 670.18,-670.86 687.1,-663.7 737,-621.97 763.72,-599.62 788.14,-567.81 803.67,-545.47"/>
<polygon fill="black" stroke="black" stroke-width="1.2" points="806.63,-547.35 809.38,-537.12 800.85,-543.4 806.63,-547.35"/>
</g>
<!-- mnt_comp2&#45;&gt;rotate -->
<g id="edge13" class="edge">
<title>mnt_comp2&#45;&gt;rotate</title>
<path fill="none" stroke="black" stroke-width="1.2" d="M906.91,-183.3C854.47,-170.62 767.88,-152.97 692,-152.97 565.5,-152.97 565.5,-152.97 565.5,-152.97 477.43,-152.97 447.35,-178.13 390,-244.97 334.62,-309.51 315.22,-412.4 308.87,-461.76"/>
<polygon fill="black" stroke="black" stroke-width="1.2" points="305.39,-461.37 307.67,-471.72 312.34,-462.21 305.39,-461.37"/>
</g>
<!-- mnt_comp3&#45;&gt;rotate -->
<g id="edge14" class="edge">
<title>mnt_comp3&#45;&gt;rotate</title>
<path fill="none" stroke="black" stroke-width="1.2" d="M772.85,-516.26C671.09,-510.53 435.98,-497.29 343.93,-492.1"/>
<polygon fill="black" stroke="black" stroke-width="1.2" points="343.87,-488.59 333.69,-491.53 343.48,-495.58 343.87,-488.59"/>
</g>
<!-- mnt_comp3&#45;&gt;vibration -->
<g id="edge28" class="edge">
<title>mnt_comp3&#45;&gt;vibration</title>
<path fill="none" stroke="black" stroke-width="1.2" d="M846.3,-537.15C867.75,-553.88 899.74,-578.85 923.48,-597.37"/>
<polygon fill="black" stroke="black" stroke-width="1.2" points="921.46,-600.23 931.49,-603.63 925.76,-594.71 921.46,-600.23"/>
</g>
<!-- mnt_comp3&#45;&gt;mnt_comp2 -->
<g id="edge37" class="edge">
<title>mnt_comp3&#45;&gt;mnt_comp2</title>
<path fill="none" stroke="black" stroke-width="1.2" d="M831.41,-500.73C841.2,-479.35 857.72,-442.78 871,-410.97 898.82,-344.31 929.1,-264.95 944.59,-223.81"/>
<polygon fill="black" stroke="black" stroke-width="1.2" points="947.96,-224.79 948.2,-214.2 941.4,-222.33 947.96,-224.79"/>
</g>
<!-- mnt_comp4 -->
<g id="node13" class="node">
<title>mnt_comp4</title>
<path fill="white" stroke="black" d="M342,-178.97C342,-178.97 268,-178.97 268,-178.97 262,-178.97 256,-172.97 256,-166.97 256,-166.97 256,-154.97 256,-154.97 256,-148.97 262,-142.97 268,-142.97 268,-142.97 342,-142.97 342,-142.97 348,-142.97 354,-148.97 354,-154.97 354,-154.97 354,-166.97 354,-166.97 354,-172.97 348,-178.97 342,-178.97"/>
<text text-anchor="middle" x="305" y="-157.27" font-family="Helvetica,sans-Serif" font-size="14.00">mnt_comp4</text>
</g>
<!-- mnt_comp4&#45;&gt;pressure -->
<g id="edge22" class="edge">
<title>mnt_comp4&#45;&gt;pressure</title>
<path fill="none" stroke="black" stroke-width="1.2" d="M314.26,-179.3C336.67,-229.04 398.73,-366.8 425.47,-426.16"/>
<polygon fill="black" stroke="black" stroke-width="1.2" points="422.45,-427.97 429.75,-435.65 428.83,-425.09 422.45,-427.97"/>
</g>
<!-- mnt_comp4&#45;&gt;mnt_comp2 -->
<g id="edge38" class="edge">
<title>mnt_comp4&#45;&gt;mnt_comp2</title>
<path fill="none" stroke="black" stroke-width="1.2" d="M338.9,-142.95C387.12,-118.27 480.5,-76.97 565.5,-76.97 565.5,-76.97 565.5,-76.97 692,-76.97 783.06,-76.97 877.34,-136.91 924.4,-171.71"/>
<polygon fill="black" stroke="black" stroke-width="1.2" points="922.53,-174.68 932.63,-177.89 926.74,-169.09 922.53,-174.68"/>
</g>
<!-- fail_comp1 -->
<g id="node14" class="node">
<title>fail_comp1</title>
<path fill="white" stroke="black" d="M80,-475.97C80,-475.97 12,-475.97 12,-475.97 6,-475.97 0,-469.97 0,-463.97 0,-463.97 0,-451.97 0,-451.97 0,-445.97 6,-439.97 12,-439.97 12,-439.97 80,-439.97 80,-439.97 86,-439.97 92,-445.97 92,-451.97 92,-451.97 92,-463.97 92,-463.97 92,-469.97 86,-475.97 80,-475.97"/>
<text text-anchor="middle" x="46" y="-454.27" font-family="Helvetica,sans-Serif" font-size="14.00">fail_comp1</text>
</g>
<!-- fail_comp1&#45;&gt;vibration -->
<g id="edge29" class="edge">
<title>fail_comp1&#45;&gt;vibration</title>
<path fill="none" stroke="black" stroke-width="1.2" d="M48.86,-475.97C54.07,-518.36 72.31,-625.9 128,-692.97 185.48,-762.18 214.03,-792.97 304,-792.97 304,-792.97 304,-792.97 692,-792.97 774.72,-792.97 803.62,-789.95 871,-741.97 904.35,-718.22 928.98,-676.87 942.66,-649.46"/>
<polygon fill="black" stroke="black" stroke-width="1.2" points="945.84,-650.92 947.04,-640.4 939.54,-647.88 945.84,-650.92"/>
</g>
<!-- fail_comp1&#45;&gt;mnt_comp1 -->
<g id="edge36" class="edge">
<title>fail_comp1&#45;&gt;mnt_comp1</title>
<path fill="none" stroke="black" stroke-width="1.2" d="M50.54,-476.16C58.5,-512.84 80.9,-596.62 128,-648.97 171.52,-697.33 193.25,-702.81 256,-719.97 296.24,-730.97 343.36,-731.96 379.57,-730.33"/>
<polygon fill="black" stroke="black" stroke-width="1.2" points="380.16,-733.81 389.96,-729.78 379.79,-726.82 380.16,-733.81"/>
</g>
<!-- fail_comp1&#45;&gt;mnt_comp2 -->
<g id="edge39" class="edge">
<title>fail_comp1&#45;&gt;mnt_comp2</title>
<path fill="none" stroke="black" stroke-width="1.2" d="M46.59,-439.81C46.25,-384.82 51.9,-217.4 128,-110.97 181.65,-35.93 211.76,-0.97 304,-0.97 304,-0.97 304,-0.97 692,-0.97 773.42,-0.97 805.97,9.03 871,-39.97 913.71,-72.15 937.15,-132.56 947.79,-168.02"/>
<polygon fill="black" stroke="black" stroke-width="1.2" points="944.46,-169.09 950.58,-177.74 951.19,-167.16 944.46,-169.09"/>
</g>
<!-- fail_comp4 -->
<g id="node16" class="node">
<title>fail_comp4</title>
<path fill="white" stroke="black" d="M208,-155.97C208,-155.97 140,-155.97 140,-155.97 134,-155.97 128,-149.97 128,-143.97 128,-143.97 128,-131.97 128,-131.97 128,-125.97 134,-119.97 140,-119.97 140,-119.97 208,-119.97 208,-119.97 214,-119.97 220,-125.97 220,-131.97 220,-131.97 220,-143.97 220,-143.97 220,-149.97 214,-155.97 208,-155.97"/>
<text text-anchor="middle" x="174" y="-134.27" font-family="Helvetica,sans-Serif" font-size="14.00">fail_comp4</text>
</g>
<!-- fail_comp1&#45;&gt;fail_comp4 -->
<g id="edge44" class="edge">
<title>fail_comp1&#45;&gt;fail_comp4</title>
<path fill="none" stroke="black" stroke-width="1.2" d="M54.14,-439.85C75.14,-386.51 136.84,-229.81 162.06,-165.74"/>
<polygon fill="black" stroke="black" stroke-width="1.2" points="165.38,-166.87 165.79,-156.29 158.87,-164.31 165.38,-166.87"/>
</g>
<!-- fail_comp2&#45;&gt;vibration -->
<g id="edge30" class="edge">
<title>fail_comp2&#45;&gt;vibration</title>
<path fill="none" stroke="black" stroke-width="1.2" d="M728.91,-355.01C768.17,-375.69 830.14,-412.77 871,-458.97 907.38,-500.1 932.87,-559.79 945.63,-594.37"/>
<polygon fill="black" stroke="black" stroke-width="1.2" points="942.35,-595.61 949.03,-603.83 948.94,-593.24 942.35,-595.61"/>
</g>
<!-- fail_comp2&#45;&gt;mnt_comp2 -->
<g id="edge40" class="edge">
<title>fail_comp2&#45;&gt;mnt_comp2</title>
<path fill="none" stroke="black" stroke-width="1.2" d="M725.58,-318.97C773.13,-293.47 860.09,-246.85 912.21,-218.91"/>
<polygon fill="black" stroke="black" stroke-width="1.2" points="914.05,-221.89 921.21,-214.08 910.74,-215.72 914.05,-221.89"/>
</g>
<!-- fail_comp4&#45;&gt;mnt_comp2 -->
<g id="edge41" class="edge">
<title>fail_comp4&#45;&gt;mnt_comp2</title>
<path fill="none" stroke="black" stroke-width="1.2" d="M202.88,-119.81C249.54,-91.23 347.26,-38.97 438,-38.97 438,-38.97 438,-38.97 692,-38.97 774.48,-38.97 802.39,-42.18 871,-87.97 901.83,-108.55 926.29,-144.17 940.69,-168.85"/>
<polygon fill="black" stroke="black" stroke-width="1.2" points="937.73,-170.74 945.71,-177.72 943.83,-167.29 937.73,-170.74"/>
</g>
<!-- fail_comp4&#45;&gt;mnt_comp3 -->
<g id="edge42" class="edge">
<title>fail_comp4&#45;&gt;mnt_comp3</title>
<path fill="none" stroke="black" stroke-width="1.2" d="M220.04,-131.62C272.33,-124.81 361.23,-114.97 438,-114.97 438,-114.97 438,-114.97 567.5,-114.97 656.12,-114.97 683.72,-149.16 737,-219.97 800.35,-304.16 815.93,-434.03 819.76,-490.79"/>
<polygon fill="black" stroke="black" stroke-width="1.2" points="816.27,-491.05 820.36,-500.83 823.25,-490.63 816.27,-491.05"/>
</g>
<!-- fail_comp4&#45;&gt;mnt_comp4 -->
<g id="edge43" class="edge">
<title>fail_comp4&#45;&gt;mnt_comp4</title>
<path fill="none" stroke="black" stroke-width="1.2" d="M220.12,-146.01C228.37,-147.48 237.09,-149.04 245.66,-150.57"/>
<polygon fill="black" stroke="black" stroke-width="1.2" points="245.16,-154.03 255.62,-152.34 246.38,-147.14 245.16,-154.03"/>
</g>
</g>
</svg>
