<?xml version="1.0" encoding="UTF-8" standalone="no"?>
<!DOCTYPE svg PUBLIC "-//W3C//DTD SVG 1.1//EN"
 "http://www.w3.org/Graphics/SVG/1.1/DTD/svg11.dtd">
<!-- Generated by graphviz version 2.50.0 (0)
 -->
<!-- Title: G Pages: 1 -->
<svg width="451pt" height="178pt"
 viewBox="0.00 0.00 451.00 178.00" xmlns="http://www.w3.org/2000/svg" xmlns:xlink="http://www.w3.org/1999/xlink">
<g id="graph0" class="graph" transform="scale(1 1) rotate(0) translate(4 174)">
<title>G</title>
<polygon fill="white" stroke="transparent" points="-4,4 -4,-174 447,-174 447,4 -4,4"/>
<text text-anchor="middle" x="221.5" y="-153.2" font-family="Times,serif" font-size="16.00">model=model4/cbnb_e_telemetry.json [machine 36]</text>
<!-- volt -->
<g id="node1" class="node">
<title>volt</title>
<path fill="white" stroke="black" d="M190,-90C190,-90 160,-90 160,-90 154,-90 148,-84 148,-78 148,-78 148,-66 148,-66 148,-60 154,-54 160,-54 160,-54 190,-54 190,-54 196,-54 202,-60 202,-66 202,-66 202,-78 202,-78 202,-84 196,-90 190,-90"/>
<text text-anchor="middle" x="175" y="-68.3" font-family="Helvetica,sans-Serif" font-size="14.00">volt</text>
</g>
<!-- rotate -->
<g id="node2" class="node">
<title>rotate</title>
<path fill="white" stroke="black" d="M295,-63C295,-63 262,-63 262,-63 256,-63 250,-57 250,-51 250,-51 250,-39 250,-39 250,-33 256,-27 262,-27 262,-27 295,-27 295,-27 301,-27 307,-33 307,-39 307,-39 307,-51 307,-51 307,-57 301,-63 295,-63"/>
<text text-anchor="middle" x="278.5" y="-41.3" font-family="Helvetica,sans-Serif" font-size="14.00">rotate</text>
</g>
<!-- volt&#45;&gt;rotate -->
<g id="edge1" class="edge">
<title>volt&#45;&gt;rotate</title>
<path fill="none" stroke="black" stroke-width="1.2" d="M202.14,-65.05C213.63,-61.99 227.35,-58.34 239.91,-55"/>
<polygon fill="black" stroke="black" stroke-width="1.2" points="240.91,-58.36 249.67,-52.4 239.11,-51.59 240.91,-58.36"/>
</g>
<!-- pressure -->
<g id="node3" class="node">
<title>pressure</title>
<path fill="white" stroke="black" d="M201.5,-144C201.5,-144 148.5,-144 148.5,-144 142.5,-144 136.5,-138 136.5,-132 136.5,-132 136.5,-120 136.5,-120 136.5,-114 142.5,-108 148.5,-108 148.5,-108 201.5,-108 201.5,-108 207.5,-108 213.5,-114 213.5,-120 213.5,-120 213.5,-132 213.5,-132 213.5,-138 207.5,-144 201.5,-144"/>
<text text-anchor="middle" x="175" y="-122.3" font-family="Helvetica,sans-Serif" font-size="14.00">pressure</text>
</g>
<!-- vibration -->
<g id="node4" class="node">
<title>vibration</title>
<path fill="white" stroke="black" d="M202,-36C202,-36 148,-36 148,-36 142,-36 136,-30 136,-24 136,-24 136,-12 136,-12 136,-6 142,0 148,0 148,0 202,0 202,0 208,0 214,-6 214,-12 214,-12 214,-24 214,-24 214,-30 208,-36 202,-36"/>
<text text-anchor="middle" x="175" y="-14.3" font-family="Helvetica,sans-Serif" font-size="14.00">vibration</text>
</g>
<!-- vibration&#45;&gt;rotate -->
<g id="edge2" class="edge">
<title>vibration&#45;&gt;rotate</title>
<path fill="none" stroke="black" stroke-width="1.2" d="M214.08,-28.13C222.66,-30.41 231.74,-32.83 240.28,-35.1"/>
<polygon fill="black" stroke="black" stroke-width="1.2" points="239.42,-38.49 249.98,-37.68 241.22,-31.73 239.42,-38.49"/>
</g>
</g>
</svg>
