<?xml version="1.0" encoding="UTF-8" standalone="no"?>
<!DOCTYPE svg PUBLIC "-//W3C//DTD SVG 1.1//EN"
 "http://www.w3.org/Graphics/SVG/1.1/DTD/svg11.dtd">
<!-- Generated by graphviz version 2.50.0 (0)
 -->
<!-- Title: G Pages: 1 -->
<svg width="1069pt" height="842pt"
 viewBox="0.00 0.00 1069.00 842.00" xmlns="http://www.w3.org/2000/svg" xmlns:xlink="http://www.w3.org/1999/xlink">
<g id="graph0" class="graph" transform="scale(1 1) rotate(0) translate(4 838)">
<title>G</title>
<polygon fill="white" stroke="transparent" points="-4,4 -4,-838 1065,-838 1065,4 -4,4"/>
<text text-anchor="middle" x="530.5" y="-817.2" font-family="Times,serif" font-size="16.00">model=model1/cbnb_w_mixed.json [machine 99]</text>
<!-- volt -->
<g id="node1" class="node">
<title>volt</title>
<path fill="white" stroke="black" d="M170,-292C170,-292 140,-292 140,-292 134,-292 128,-286 128,-280 128,-280 128,-268 128,-268 128,-262 134,-256 140,-256 140,-256 170,-256 170,-256 176,-256 182,-262 182,-268 182,-268 182,-280 182,-280 182,-286 176,-292 170,-292"/>
<text text-anchor="middle" x="155" y="-270.3" font-family="Helvetica,sans-Serif" font-size="14.00">volt</text>
</g>
<!-- rotate -->
<g id="node2" class="node">
<title>rotate</title>
<path fill="white" stroke="black" d="M263,-452C263,-452 230,-452 230,-452 224,-452 218,-446 218,-440 218,-440 218,-428 218,-428 218,-422 224,-416 230,-416 230,-416 263,-416 263,-416 269,-416 275,-422 275,-428 275,-428 275,-440 275,-440 275,-446 269,-452 263,-452"/>
<text text-anchor="middle" x="246.5" y="-430.3" font-family="Helvetica,sans-Serif" font-size="14.00">rotate</text>
</g>
<!-- volt&#45;&gt;rotate -->
<g id="edge1" class="edge">
<title>volt&#45;&gt;rotate</title>
<path fill="none" stroke="black" stroke-width="1.2" d="M166.09,-292.04C181.74,-320.01 211.94,-374.01 230.26,-406.75"/>
<polygon fill="black" stroke="black" stroke-width="1.2" points="227.37,-408.76 235.31,-415.78 233.48,-405.34 227.37,-408.76"/>
</g>
<!-- pressure -->
<g id="node3" class="node">
<title>pressure</title>
<path fill="white" stroke="black" d="M383.5,-650C383.5,-650 330.5,-650 330.5,-650 324.5,-650 318.5,-644 318.5,-638 318.5,-638 318.5,-626 318.5,-626 318.5,-620 324.5,-614 330.5,-614 330.5,-614 383.5,-614 383.5,-614 389.5,-614 395.5,-620 395.5,-626 395.5,-626 395.5,-638 395.5,-638 395.5,-644 389.5,-650 383.5,-650"/>
<text text-anchor="middle" x="357" y="-628.3" font-family="Helvetica,sans-Serif" font-size="14.00">pressure</text>
</g>
<!-- volt&#45;&gt;pressure -->
<g id="edge2" class="edge">
<title>volt&#45;&gt;pressure</title>
<path fill="none" stroke="black" stroke-width="1.2" d="M156.91,-292.1C160.39,-353.9 174.89,-555.13 218,-600 241.02,-623.95 278.16,-631.54 308.12,-633.36"/>
<polygon fill="black" stroke="black" stroke-width="1.2" points="308.25,-636.87 318.38,-633.78 308.54,-629.87 308.25,-636.87"/>
</g>
<!-- vibration -->
<g id="node4" class="node">
<title>vibration</title>
<path fill="white" stroke="black" d="M908,-189C908,-189 854,-189 854,-189 848,-189 842,-183 842,-177 842,-177 842,-165 842,-165 842,-159 848,-153 854,-153 854,-153 908,-153 908,-153 914,-153 920,-159 920,-165 920,-165 920,-177 920,-177 920,-183 914,-189 908,-189"/>
<text text-anchor="middle" x="881" y="-167.3" font-family="Helvetica,sans-Serif" font-size="14.00">vibration</text>
</g>
<!-- volt&#45;&gt;vibration -->
<g id="edge3" class="edge">
<title>volt&#45;&gt;vibration</title>
<path fill="none" stroke="black" stroke-width="1.2" d="M161.48,-255.87C179.41,-200.61 241.87,-38 356,-38 356,-38 356,-38 620,-38 701.62,-38 728.87,-37.25 799,-79 826.04,-95.1 848.87,-123.3 863.33,-144.24"/>
<polygon fill="black" stroke="black" stroke-width="1.2" points="860.53,-146.36 869,-152.72 866.35,-142.46 860.53,-146.36"/>
</g>
<!-- mnt_comp1 -->
<g id="node10" class="node">
<title>mnt_comp1</title>
<path fill="white" stroke="black" d="M525,-273C525,-273 451,-273 451,-273 445,-273 439,-267 439,-261 439,-261 439,-249 439,-249 439,-243 445,-237 451,-237 451,-237 525,-237 525,-237 531,-237 537,-243 537,-249 537,-249 537,-261 537,-261 537,-267 531,-273 525,-273"/>
<text text-anchor="middle" x="488" y="-251.3" font-family="Helvetica,sans-Serif" font-size="14.00">mnt_comp1</text>
</g>
<!-- volt&#45;&gt;mnt_comp1 -->
<g id="edge6" class="edge">
<title>volt&#45;&gt;mnt_comp1</title>
<path fill="none" stroke="black" stroke-width="1.2" d="M182.15,-268.02C212.82,-261.35 265.28,-250.95 311,-247 351.74,-243.48 362.16,-245.06 403,-247 411.31,-247.39 420.06,-248.01 428.66,-248.72"/>
<polygon fill="black" stroke="black" stroke-width="1.2" points="428.37,-252.21 438.64,-249.6 428.99,-245.24 428.37,-252.21"/>
</g>
<!-- mnt_comp3 -->
<g id="node12" class="node">
<title>mnt_comp3</title>
<path fill="white" stroke="black" d="M1049,-456C1049,-456 975,-456 975,-456 969,-456 963,-450 963,-444 963,-444 963,-432 963,-432 963,-426 969,-420 975,-420 975,-420 1049,-420 1049,-420 1055,-420 1061,-426 1061,-432 1061,-432 1061,-444 1061,-444 1061,-450 1055,-456 1049,-456"/>
<text text-anchor="middle" x="1012" y="-434.3" font-family="Helvetica,sans-Serif" font-size="14.00">mnt_comp3</text>
</g>
<!-- volt&#45;&gt;mnt_comp3 -->
<g id="edge8" class="edge">
<title>volt&#45;&gt;mnt_comp3</title>
<path fill="none" stroke="black" stroke-width="1.2" d="M157.07,-292.38C161.49,-363.9 179.88,-623.23 218,-695 255.19,-765.01 276.73,-808 356,-808 356,-808 356,-808 751,-808 918.12,-808 987.09,-552.17 1005.58,-465.97"/>
<polygon fill="black" stroke="black" stroke-width="1.2" points="1009.02,-466.6 1007.63,-456.1 1002.17,-465.17 1009.02,-466.6"/>
</g>
<!-- fail_comp1 -->
<g id="node14" class="node">
<title>fail_comp1</title>
<path fill="white" stroke="black" d="M391,-292C391,-292 323,-292 323,-292 317,-292 311,-286 311,-280 311,-280 311,-268 311,-268 311,-262 317,-256 323,-256 323,-256 391,-256 391,-256 397,-256 403,-262 403,-268 403,-268 403,-280 403,-280 403,-286 397,-292 391,-292"/>
<text text-anchor="middle" x="357" y="-270.3" font-family="Helvetica,sans-Serif" font-size="14.00">fail_comp1</text>
</g>
<!-- volt&#45;&gt;fail_comp1 -->
<g id="edge10" class="edge">
<title>volt&#45;&gt;fail_comp1</title>
<path fill="none" stroke="black" stroke-width="1.2" d="M192.34,-274C222.48,-274 265.81,-274 300.32,-274"/>
<polygon fill="black" stroke="black" stroke-width="1.2" points="192.15,-270.5 182.15,-274 192.15,-277.5 192.15,-270.5"/>
<polygon fill="black" stroke="black" stroke-width="1.2" points="300.73,-277.5 310.73,-274 300.73,-270.5 300.73,-277.5"/>
</g>
<!-- rotate&#45;&gt;pressure -->
<g id="edge14" class="edge">
<title>rotate&#45;&gt;pressure</title>
<path fill="none" stroke="black" stroke-width="1.2" d="M255.72,-452.13C267.28,-477.24 289.34,-523.81 311,-562 319.34,-576.7 329.46,-592.59 337.98,-605.5"/>
<polygon fill="black" stroke="black" stroke-width="1.2" points="335.13,-607.54 343.59,-613.92 340.96,-603.66 335.13,-607.54"/>
</g>
<!-- err_error3 -->
<g id="node7" class="node">
<title>err_error3</title>
<path fill="white" stroke="black" d="M780.5,-551C780.5,-551 719.5,-551 719.5,-551 713.5,-551 707.5,-545 707.5,-539 707.5,-539 707.5,-527 707.5,-527 707.5,-521 713.5,-515 719.5,-515 719.5,-515 780.5,-515 780.5,-515 786.5,-515 792.5,-521 792.5,-527 792.5,-527 792.5,-539 792.5,-539 792.5,-545 786.5,-551 780.5,-551"/>
<text text-anchor="middle" x="750" y="-529.3" font-family="Helvetica,sans-Serif" font-size="14.00">err_error3</text>
</g>
<!-- rotate&#45;&gt;err_error3 -->
<g id="edge17" class="edge">
<title>rotate&#45;&gt;err_error3</title>
<path fill="none" stroke="black" stroke-width="1.2" d="M263.98,-452.12C275.83,-463.89 292.86,-478.41 311,-486 379.56,-514.71 596.51,-526.92 696.99,-531.13"/>
<polygon fill="black" stroke="black" stroke-width="1.2" points="697.07,-534.64 707.21,-531.55 697.36,-527.64 697.07,-534.64"/>
</g>
<!-- err_error4 -->
<g id="node8" class="node">
<title>err_error4</title>
<path fill="white" stroke="black" d="M518.5,-574C518.5,-574 457.5,-574 457.5,-574 451.5,-574 445.5,-568 445.5,-562 445.5,-562 445.5,-550 445.5,-550 445.5,-544 451.5,-538 457.5,-538 457.5,-538 518.5,-538 518.5,-538 524.5,-538 530.5,-544 530.5,-550 530.5,-550 530.5,-562 530.5,-562 530.5,-568 524.5,-574 518.5,-574"/>
<text text-anchor="middle" x="488" y="-552.3" font-family="Helvetica,sans-Serif" font-size="14.00">err_error4</text>
</g>
<!-- rotate&#45;&gt;err_error4 -->
<g id="edge18" class="edge">
<title>rotate&#45;&gt;err_error4</title>
<path fill="none" stroke="black" stroke-width="1.2" d="M255.08,-452.09C264.81,-472.96 283.76,-506.61 311,-524 348.09,-547.67 398.03,-554.95 435.24,-556.72"/>
<polygon fill="black" stroke="black" stroke-width="1.2" points="435.26,-560.22 445.38,-557.08 435.51,-553.23 435.26,-560.22"/>
</g>
<!-- err_error5 -->
<g id="node9" class="node">
<title>err_error5</title>
<path fill="white" stroke="black" d="M1042.5,-402C1042.5,-402 981.5,-402 981.5,-402 975.5,-402 969.5,-396 969.5,-390 969.5,-390 969.5,-378 969.5,-378 969.5,-372 975.5,-366 981.5,-366 981.5,-366 1042.5,-366 1042.5,-366 1048.5,-366 1054.5,-372 1054.5,-378 1054.5,-378 1054.5,-390 1054.5,-390 1054.5,-396 1048.5,-402 1042.5,-402"/>
<text text-anchor="middle" x="1012" y="-380.3" font-family="Helvetica,sans-Serif" font-size="14.00">err_error5</text>
</g>
<!-- rotate&#45;&gt;err_error5 -->
<g id="edge19" class="edge">
<title>rotate&#45;&gt;err_error5</title>
<path fill="none" stroke="black" stroke-width="1.2" d="M275.16,-434C319.75,-434 410.29,-434 487,-434 487,-434 487,-434 751,-434 829.68,-434 850.4,-432.98 927,-415 937.78,-412.47 949.06,-408.95 959.72,-405.19"/>
<polygon fill="black" stroke="black" stroke-width="1.2" points="961.13,-408.4 969.32,-401.68 958.73,-401.82 961.13,-408.4"/>
</g>
<!-- rotate&#45;&gt;fail_comp1 -->
<g id="edge20" class="edge">
<title>rotate&#45;&gt;fail_comp1</title>
<path fill="none" stroke="black" stroke-width="1.2" d="M259.74,-415.96C278.78,-387.87 315.64,-333.52 337.81,-300.83"/>
<polygon fill="black" stroke="black" stroke-width="1.2" points="340.93,-302.46 343.64,-292.22 335.13,-298.53 340.93,-302.46"/>
</g>
<!-- fail_comp2 -->
<g id="node15" class="node">
<title>fail_comp2</title>
<path fill="white" stroke="black" d="M653,-254C653,-254 585,-254 585,-254 579,-254 573,-248 573,-242 573,-242 573,-230 573,-230 573,-224 579,-218 585,-218 585,-218 653,-218 653,-218 659,-218 665,-224 665,-230 665,-230 665,-242 665,-242 665,-248 659,-254 653,-254"/>
<text text-anchor="middle" x="619" y="-232.3" font-family="Helvetica,sans-Serif" font-size="14.00">fail_comp2</text>
</g>
<!-- rotate&#45;&gt;fail_comp2 -->
<g id="edge21" class="edge">
<title>rotate&#45;&gt;fail_comp2</title>
<path fill="none" stroke="black" stroke-width="1.2" d="M266.76,-415.91C278.84,-405.17 295.1,-391.78 311,-382 404.56,-324.46 438.9,-331.4 537,-282 550.85,-275.03 565.68,-266.82 578.83,-259.29"/>
<polygon fill="black" stroke="black" stroke-width="1.2" points="580.72,-262.24 587.62,-254.21 577.21,-256.18 580.72,-262.24"/>
</g>
<!-- err_error1 -->
<g id="node5" class="node">
<title>err_error1</title>
<path fill="white" stroke="black" d="M518.5,-666C518.5,-666 457.5,-666 457.5,-666 451.5,-666 445.5,-660 445.5,-654 445.5,-654 445.5,-642 445.5,-642 445.5,-636 451.5,-630 457.5,-630 457.5,-630 518.5,-630 518.5,-630 524.5,-630 530.5,-636 530.5,-642 530.5,-642 530.5,-654 530.5,-654 530.5,-660 524.5,-666 518.5,-666"/>
<text text-anchor="middle" x="488" y="-644.3" font-family="Helvetica,sans-Serif" font-size="14.00">err_error1</text>
</g>
<!-- pressure&#45;&gt;err_error1 -->
<g id="edge22" class="edge">
<title>pressure&#45;&gt;err_error1</title>
<path fill="none" stroke="black" stroke-width="1.2" d="M395.66,-636.67C408.1,-638.21 422.17,-639.96 435.47,-641.61"/>
<polygon fill="black" stroke="black" stroke-width="1.2" points="435.1,-645.09 445.45,-642.85 435.96,-638.14 435.1,-645.09"/>
</g>
<!-- pressure&#45;&gt;err_error3 -->
<g id="edge24" class="edge">
<title>pressure&#45;&gt;err_error3</title>
<path fill="none" stroke="black" stroke-width="1.2" d="M384.03,-650.03C399.29,-659.49 419.38,-670.11 439,-675 481.27,-685.52 495.33,-687.67 537,-675 612.58,-652.03 685.73,-592.16 723.16,-557.95"/>
<polygon fill="black" stroke="black" stroke-width="1.2" points="725.64,-560.42 730.6,-551.06 720.88,-555.29 725.64,-560.42"/>
</g>
<!-- pressure&#45;&gt;err_error4 -->
<g id="edge25" class="edge">
<title>pressure&#45;&gt;err_error4</title>
<path fill="none" stroke="black" stroke-width="1.2" d="M397.27,-608.87C413.08,-599.55 431.29,-588.82 447.16,-579.47"/>
<polygon fill="black" stroke="black" stroke-width="1.2" points="395.41,-605.9 388.57,-613.99 398.96,-611.93 395.41,-605.9"/>
<polygon fill="black" stroke="black" stroke-width="1.2" points="449.36,-582.24 456.2,-574.15 445.81,-576.21 449.36,-582.24"/>
</g>
<!-- pressure&#45;&gt;err_error5 -->
<g id="edge26" class="edge">
<title>pressure&#45;&gt;err_error5</title>
<path fill="none" stroke="black" stroke-width="1.2" d="M395.85,-626.29C409.43,-624.39 424.88,-622.41 439,-621 655.26,-599.47 763.31,-732.96 927,-590 988.12,-536.62 915.29,-476.64 963,-411 963.37,-410.49 963.75,-409.99 964.14,-409.5"/>
<polygon fill="black" stroke="black" stroke-width="1.2" points="966.8,-411.79 971.4,-402.25 961.85,-406.84 966.8,-411.79"/>
</g>
<!-- vibration&#45;&gt;rotate -->
<g id="edge15" class="edge">
<title>vibration&#45;&gt;rotate</title>
<path fill="none" stroke="black" stroke-width="1.2" d="M841.83,-187.62C761.13,-222.66 567.15,-306.35 403,-373 362.75,-389.34 316.37,-407.44 284.81,-419.65"/>
<polygon fill="black" stroke="black" stroke-width="1.2" points="283.17,-416.53 275.11,-423.4 285.7,-423.06 283.17,-416.53"/>
</g>
<!-- vibration&#45;&gt;err_error5 -->
<g id="edge27" class="edge">
<title>vibration&#45;&gt;err_error5</title>
<path fill="none" stroke="black" stroke-width="1.2" d="M898.28,-197.89C923.09,-238.84 970.07,-316.41 994.82,-357.28"/>
<polygon fill="black" stroke="black" stroke-width="1.2" points="901.17,-195.9 893,-189.16 895.19,-199.53 901.17,-195.9"/>
<polygon fill="black" stroke="black" stroke-width="1.2" points="991.86,-359.15 1000.03,-365.89 997.84,-355.52 991.86,-359.15"/>
</g>
<!-- vibration&#45;&gt;mnt_comp1 -->
<g id="edge28" class="edge">
<title>vibration&#45;&gt;mnt_comp1</title>
<path fill="none" stroke="black" stroke-width="1.2" d="M831.48,-171.41C769.93,-173.19 661.18,-180.55 573,-209 556.23,-214.41 538.94,-223.23 524.45,-231.7"/>
<polygon fill="black" stroke="black" stroke-width="1.2" points="831.77,-174.91 841.68,-171.16 831.59,-167.91 831.77,-174.91"/>
<polygon fill="black" stroke="black" stroke-width="1.2" points="522.57,-228.75 515.81,-236.9 526.18,-234.74 522.57,-228.75"/>
</g>
<!-- vibration&#45;&gt;fail_comp1 -->
<g id="edge30" class="edge">
<title>vibration&#45;&gt;fail_comp1</title>
<path fill="none" stroke="black" stroke-width="1.2" d="M841.68,-169.86C828.19,-169.51 812.93,-169.17 799,-169 636.88,-167 587.25,-162.35 439,-228 424.34,-234.49 408.89,-242.85 395.46,-250.66"/>
<polygon fill="black" stroke="black" stroke-width="1.2" points="393.34,-247.85 386.52,-255.95 396.91,-253.87 393.34,-247.85"/>
</g>
<!-- err_error2 -->
<g id="node6" class="node">
<title>err_error2</title>
<path fill="white" stroke="black" d="M911.5,-581C911.5,-581 850.5,-581 850.5,-581 844.5,-581 838.5,-575 838.5,-569 838.5,-569 838.5,-557 838.5,-557 838.5,-551 844.5,-545 850.5,-545 850.5,-545 911.5,-545 911.5,-545 917.5,-545 923.5,-551 923.5,-557 923.5,-557 923.5,-569 923.5,-569 923.5,-575 917.5,-581 911.5,-581"/>
<text text-anchor="middle" x="881" y="-559.3" font-family="Helvetica,sans-Serif" font-size="14.00">err_error2</text>
</g>
<!-- err_error2&#45;&gt;volt -->
<g id="edge4" class="edge">
<title>err_error2&#45;&gt;volt</title>
<path fill="none" stroke="black" stroke-width="1.2" d="M869.35,-581.01C838.04,-631.37 740.88,-770 620,-770 356,-770 356,-770 356,-770 268,-770 258.03,-706.37 218,-628 161.51,-517.4 155.38,-364.78 155.45,-302.34"/>
<polygon fill="black" stroke="black" stroke-width="1.2" points="158.95,-302.13 155.52,-292.1 151.95,-302.08 158.95,-302.13"/>
</g>
<!-- err_error2&#45;&gt;rotate -->
<g id="edge16" class="edge">
<title>err_error2&#45;&gt;rotate</title>
<path fill="none" stroke="black" stroke-width="1.2" d="M859.49,-544.82C843.95,-532.02 821.49,-515.52 799,-506 724.43,-474.43 700.98,-472 620,-472 487,-472 487,-472 487,-472 414.83,-472 331.92,-454.96 285.02,-443.7"/>
<polygon fill="black" stroke="black" stroke-width="1.2" points="285.84,-440.3 275.3,-441.33 284.18,-447.1 285.84,-440.3"/>
</g>
<!-- err_error2&#45;&gt;pressure -->
<g id="edge23" class="edge">
<title>err_error2&#45;&gt;pressure</title>
<path fill="none" stroke="black" stroke-width="1.2" d="M845.72,-581.14C785.37,-611.87 655.33,-672.81 537,-693 494.07,-700.33 480.31,-706.81 439,-693 417.73,-685.89 397.57,-670.74 382.68,-657.33"/>
<polygon fill="black" stroke="black" stroke-width="1.2" points="384.67,-654.39 374.98,-650.11 379.88,-659.5 384.67,-654.39"/>
</g>
<!-- err_error3&#45;&gt;err_error2 -->
<g id="edge31" class="edge">
<title>err_error3&#45;&gt;err_error2</title>
<path fill="none" stroke="black" stroke-width="1.2" d="M792.53,-542.66C803.92,-545.31 816.41,-548.21 828.3,-550.98"/>
<polygon fill="black" stroke="black" stroke-width="1.2" points="827.58,-554.4 838.11,-553.26 829.16,-547.58 827.58,-554.4"/>
</g>
<!-- fail_comp3 -->
<g id="node16" class="node">
<title>fail_comp3</title>
<path fill="white" stroke="black" d="M915,-406C915,-406 847,-406 847,-406 841,-406 835,-400 835,-394 835,-394 835,-382 835,-382 835,-376 841,-370 847,-370 847,-370 915,-370 915,-370 921,-370 927,-376 927,-382 927,-382 927,-394 927,-394 927,-400 921,-406 915,-406"/>
<text text-anchor="middle" x="881" y="-384.3" font-family="Helvetica,sans-Serif" font-size="14.00">fail_comp3</text>
</g>
<!-- err_error3&#45;&gt;fail_comp3 -->
<g id="edge34" class="edge">
<title>err_error3&#45;&gt;fail_comp3</title>
<path fill="none" stroke="black" stroke-width="1.2" d="M767.08,-514.93C789.67,-489.53 830.95,-443.13 856.85,-414.02"/>
<polygon fill="black" stroke="black" stroke-width="1.2" points="859.69,-416.1 863.72,-406.3 854.46,-411.44 859.69,-416.1"/>
</g>
<!-- err_error4&#45;&gt;volt -->
<g id="edge5" class="edge">
<title>err_error4&#45;&gt;volt</title>
<path fill="none" stroke="black" stroke-width="1.2" d="M445.38,-563.39C408.54,-568.03 354.1,-570.15 311,-552 209.39,-509.21 172.01,-364.25 160.47,-302.37"/>
<polygon fill="black" stroke="black" stroke-width="1.2" points="163.85,-301.4 158.66,-292.17 156.96,-302.63 163.85,-301.4"/>
</g>
<!-- err_error4&#45;&gt;err_error3 -->
<g id="edge32" class="edge">
<title>err_error4&#45;&gt;err_error3</title>
<path fill="none" stroke="black" stroke-width="1.2" d="M530.77,-552.3C576.07,-548.3 648.43,-541.9 697.28,-537.58"/>
<polygon fill="black" stroke="black" stroke-width="1.2" points="697.68,-541.05 707.33,-536.69 697.06,-534.08 697.68,-541.05"/>
</g>
<!-- mnt_comp1&#45;&gt;mnt_comp3 -->
<g id="edge35" class="edge">
<title>mnt_comp1&#45;&gt;mnt_comp3</title>
<path fill="none" stroke="black" stroke-width="1.2" d="M537.14,-262.29C637.07,-278.12 863.02,-317.7 927,-361 949.68,-376.35 942.59,-392.75 963,-411 964.11,-412 965.27,-412.97 966.46,-413.92"/>
<polygon fill="black" stroke="black" stroke-width="1.2" points="964.55,-416.86 974.7,-419.88 968.65,-411.18 964.55,-416.86"/>
</g>
<!-- mnt_comp1&#45;&gt;fail_comp2 -->
<g id="edge37" class="edge">
<title>mnt_comp1&#45;&gt;fail_comp2</title>
<path fill="none" stroke="black" stroke-width="1.2" d="M537.03,-247.93C545.48,-246.68 554.33,-245.38 562.94,-244.11"/>
<polygon fill="black" stroke="black" stroke-width="1.2" points="563.53,-247.56 572.92,-242.64 562.51,-240.63 563.53,-247.56"/>
</g>
<!-- mnt_comp1&#45;&gt;fail_comp3 -->
<g id="edge38" class="edge">
<title>mnt_comp1&#45;&gt;fail_comp3</title>
<path fill="none" stroke="black" stroke-width="1.2" d="M522.77,-273.04C537.88,-280.71 556.07,-289.38 573,-296 659.03,-329.63 762.58,-358.33 824.75,-374.35"/>
<polygon fill="black" stroke="black" stroke-width="1.2" points="824.19,-377.82 834.74,-376.91 825.92,-371.04 824.19,-377.82"/>
</g>
<!-- mnt_comp2 -->
<g id="node11" class="node">
<title>mnt_comp2</title>
<path fill="white" stroke="black" d="M1049,-254C1049,-254 975,-254 975,-254 969,-254 963,-248 963,-242 963,-242 963,-230 963,-230 963,-224 969,-218 975,-218 975,-218 1049,-218 1049,-218 1055,-218 1061,-224 1061,-230 1061,-230 1061,-242 1061,-242 1061,-248 1055,-254 1049,-254"/>
<text text-anchor="middle" x="1012" y="-232.3" font-family="Helvetica,sans-Serif" font-size="14.00">mnt_comp2</text>
</g>
<!-- mnt_comp2&#45;&gt;volt -->
<g id="edge7" class="edge">
<title>mnt_comp2&#45;&gt;volt</title>
<path fill="none" stroke="black" stroke-width="1.2" d="M1002.25,-217.87C974.17,-162.61 880.54,0 751,0 356,0 356,0 356,0 287.43,0 262.2,-16.57 218,-69 174.26,-120.89 161.37,-203 157.58,-245.86"/>
<polygon fill="black" stroke="black" stroke-width="1.2" points="154.09,-245.63 156.8,-255.87 161.07,-246.17 154.09,-245.63"/>
</g>
<!-- mnt_comp4 -->
<g id="node13" class="node">
<title>mnt_comp4</title>
<path fill="white" stroke="black" d="M787,-124C787,-124 713,-124 713,-124 707,-124 701,-118 701,-112 701,-112 701,-100 701,-100 701,-94 707,-88 713,-88 713,-88 787,-88 787,-88 793,-88 799,-94 799,-100 799,-100 799,-112 799,-112 799,-118 793,-124 787,-124"/>
<text text-anchor="middle" x="750" y="-102.3" font-family="Helvetica,sans-Serif" font-size="14.00">mnt_comp4</text>
</g>
<!-- mnt_comp4&#45;&gt;volt -->
<g id="edge9" class="edge">
<title>mnt_comp4&#45;&gt;volt</title>
<path fill="none" stroke="black" stroke-width="1.2" d="M700.62,-108.38C648.41,-110.74 562.84,-114 489,-114 356,-114 356,-114 356,-114 271.58,-114 202.38,-201.99 172.25,-247.47"/>
<polygon fill="black" stroke="black" stroke-width="1.2" points="169.25,-245.66 166.76,-255.96 175.13,-249.47 169.25,-245.66"/>
</g>
<!-- mnt_comp4&#45;&gt;vibration -->
<g id="edge29" class="edge">
<title>mnt_comp4&#45;&gt;vibration</title>
<path fill="none" stroke="black" stroke-width="1.2" d="M786.93,-124.11C801.89,-131.64 819.42,-140.47 835.2,-148.43"/>
<polygon fill="black" stroke="black" stroke-width="1.2" points="833.75,-151.62 844.26,-152.99 836.9,-145.37 833.75,-151.62"/>
</g>
<!-- fail_comp1&#45;&gt;mnt_comp1 -->
<g id="edge36" class="edge">
<title>fail_comp1&#45;&gt;mnt_comp1</title>
<path fill="none" stroke="black" stroke-width="1.2" d="M403.12,-267.35C411.37,-266.14 420.09,-264.86 428.66,-263.59"/>
<polygon fill="black" stroke="black" stroke-width="1.2" points="429.23,-267.05 438.62,-262.13 428.21,-260.12 429.23,-267.05"/>
</g>
<!-- fail_comp2&#45;&gt;volt -->
<g id="edge11" class="edge">
<title>fail_comp2&#45;&gt;volt</title>
<path fill="none" stroke="black" stroke-width="1.2" d="M572.65,-230.73C561.04,-229.6 548.57,-228.57 537,-228 395.14,-221.01 355.68,-212.1 218,-247 209.15,-249.24 199.96,-252.61 191.45,-256.22"/>
<polygon fill="black" stroke="black" stroke-width="1.2" points="189.9,-253.08 182.19,-260.34 192.74,-259.47 189.9,-253.08"/>
</g>
<!-- fail_comp2&#45;&gt;err_error3 -->
<g id="edge33" class="edge">
<title>fail_comp2&#45;&gt;err_error3</title>
<path fill="none" stroke="black" stroke-width="1.2" d="M627.88,-254.13C649.69,-304.36 711.01,-445.53 737.05,-505.5"/>
<polygon fill="black" stroke="black" stroke-width="1.2" points="733.87,-506.95 741.06,-514.73 740.29,-504.16 733.87,-506.95"/>
</g>
<!-- fail_comp2&#45;&gt;mnt_comp2 -->
<g id="edge39" class="edge">
<title>fail_comp2&#45;&gt;mnt_comp2</title>
<path fill="none" stroke="black" stroke-width="1.2" d="M665.23,-236C736.32,-236 874.15,-236 952.62,-236"/>
<polygon fill="black" stroke="black" stroke-width="1.2" points="952.82,-239.5 962.82,-236 952.82,-232.5 952.82,-239.5"/>
</g>
<!-- fail_comp2&#45;&gt;mnt_comp4 -->
<g id="edge42" class="edge">
<title>fail_comp2&#45;&gt;mnt_comp4</title>
<path fill="none" stroke="black" stroke-width="1.2" d="M637.94,-217.92C660.24,-195.45 698.46,-156.94 723.72,-131.47"/>
<polygon fill="black" stroke="black" stroke-width="1.2" points="726.24,-133.91 730.8,-124.34 721.27,-128.97 726.24,-133.91"/>
</g>
<!-- fail_comp3&#45;&gt;volt -->
<g id="edge12" class="edge">
<title>fail_comp3&#45;&gt;volt</title>
<path fill="none" stroke="black" stroke-width="1.2" d="M834.68,-383.26C798.45,-379.33 746.39,-373.37 701,-367 485.59,-336.76 431.52,-329.53 218,-288 209.61,-286.37 200.61,-284.44 192.15,-282.55"/>
<polygon fill="black" stroke="black" stroke-width="1.2" points="192.7,-279.08 182.17,-280.28 191.15,-285.91 192.7,-279.08"/>
</g>
<!-- fail_comp3&#45;&gt;mnt_comp2 -->
<g id="edge40" class="edge">
<title>fail_comp3&#45;&gt;mnt_comp2</title>
<path fill="none" stroke="black" stroke-width="1.2" d="M897.3,-369.97C920.1,-343.11 963.06,-292.49 989.15,-261.74"/>
<polygon fill="black" stroke="black" stroke-width="1.2" points="991.91,-263.9 995.72,-254.01 986.58,-259.37 991.91,-263.9"/>
</g>
<!-- fail_comp3&#45;&gt;mnt_comp3 -->
<g id="edge41" class="edge">
<title>fail_comp3&#45;&gt;mnt_comp3</title>
<path fill="none" stroke="black" stroke-width="1.2" d="M927.12,-405.49C936.07,-408.96 945.57,-412.64 954.84,-416.23"/>
<polygon fill="black" stroke="black" stroke-width="1.2" points="953.79,-419.58 964.38,-419.93 956.32,-413.05 953.79,-419.58"/>
</g>
<!-- fail_comp4 -->
<g id="node17" class="node">
<title>fail_comp4</title>
<path fill="white" stroke="black" d="M80,-136C80,-136 12,-136 12,-136 6,-136 0,-130 0,-124 0,-124 0,-112 0,-112 0,-106 6,-100 12,-100 12,-100 80,-100 80,-100 86,-100 92,-106 92,-112 92,-112 92,-124 92,-124 92,-130 86,-136 80,-136"/>
<text text-anchor="middle" x="46" y="-114.3" font-family="Helvetica,sans-Serif" font-size="14.00">fail_comp4</text>
</g>
<!-- fail_comp4&#45;&gt;volt -->
<g id="edge13" class="edge">
<title>fail_comp4&#45;&gt;volt</title>
<path fill="none" stroke="black" stroke-width="1.2" d="M59.48,-136.2C78.33,-163.68 114.15,-215.89 135.87,-247.57"/>
<polygon fill="black" stroke="black" stroke-width="1.2" points="133.05,-249.65 141.6,-255.92 138.83,-245.69 133.05,-249.65"/>
</g>
<!-- fail_comp4&#45;&gt;mnt_comp4 -->
<g id="edge43" class="edge">
<title>fail_comp4&#45;&gt;mnt_comp4</title>
<path fill="none" stroke="black" stroke-width="1.2" d="M92.25,-115.25C165.2,-110.96 313.34,-102.88 439,-100 482.54,-99 493.45,-99.38 537,-100 588.87,-100.73 647.85,-102.48 690.41,-103.9"/>
<polygon fill="black" stroke="black" stroke-width="1.2" points="690.48,-107.4 700.59,-104.24 690.72,-100.4 690.48,-107.4"/>
</g>
</g>
</svg>
