<?xml version="1.0" encoding="UTF-8" standalone="no"?>
<!DOCTYPE svg PUBLIC "-//W3C//DTD SVG 1.1//EN"
 "http://www.w3.org/Graphics/SVG/1.1/DTD/svg11.dtd">
<!-- Generated by graphviz version 2.50.0 (0)
 -->
<!-- Title: G Pages: 1 -->
<svg width="454pt" height="107pt"
 viewBox="0.00 0.00 454.00 106.98" xmlns="http://www.w3.org/2000/svg" xmlns:xlink="http://www.w3.org/1999/xlink">
<g id="graph0" class="graph" transform="scale(1 1) rotate(0) translate(4 102.98)">
<title>G</title>
<polygon fill="white" stroke="transparent" points="-4,4 -4,-102.98 450,-102.98 450,4 -4,4"/>
<text text-anchor="middle" x="223" y="-82.18" font-family="Times,serif" font-size="16.00">model=model2/cbnb_w_telemetry.json [machine 94]</text>
<!-- volt -->
<g id="node1" class="node">
<title>volt</title>
<path fill="white" stroke="black" d="M78,-49.98C78,-49.98 48,-49.98 48,-49.98 42,-49.98 36,-43.98 36,-37.98 36,-37.98 36,-25.98 36,-25.98 36,-19.98 42,-13.98 48,-13.98 48,-13.98 78,-13.98 78,-13.98 84,-13.98 90,-19.98 90,-25.98 90,-25.98 90,-37.98 90,-37.98 90,-43.98 84,-49.98 78,-49.98"/>
<text text-anchor="middle" x="63" y="-28.28" font-family="Helvetica,sans-Serif" font-size="14.00">volt</text>
</g>
<!-- rotate -->
<g id="node2" class="node">
<title>rotate</title>
<path fill="white" stroke="black" d="M398,-72.98C398,-72.98 365,-72.98 365,-72.98 359,-72.98 353,-66.98 353,-60.98 353,-60.98 353,-48.98 353,-48.98 353,-42.98 359,-36.98 365,-36.98 365,-36.98 398,-36.98 398,-36.98 404,-36.98 410,-42.98 410,-48.98 410,-48.98 410,-60.98 410,-60.98 410,-66.98 404,-72.98 398,-72.98"/>
<text text-anchor="middle" x="381.5" y="-51.28" font-family="Helvetica,sans-Serif" font-size="14.00">rotate</text>
</g>
<!-- volt&#45;&gt;rotate -->
<g id="edge1" class="edge">
<title>volt&#45;&gt;rotate</title>
<path fill="none" stroke="black" stroke-width="1.2" d="M99.32,-50.31C107.84,-53.9 117.06,-57.12 126,-58.98 201.53,-74.71 292.4,-67.12 342.57,-60.71"/>
<polygon fill="black" stroke="black" stroke-width="1.2" points="100.62,-47.06 90.06,-46.17 97.76,-53.45 100.62,-47.06"/>
<polygon fill="black" stroke="black" stroke-width="1.2" points="343.18,-64.16 352.63,-59.37 342.26,-57.22 343.18,-64.16"/>
</g>
<!-- pressure -->
<g id="node3" class="node">
<title>pressure</title>
<path fill="white" stroke="black" d="M191,-49.98C191,-49.98 138,-49.98 138,-49.98 132,-49.98 126,-43.98 126,-37.98 126,-37.98 126,-25.98 126,-25.98 126,-19.98 132,-13.98 138,-13.98 138,-13.98 191,-13.98 191,-13.98 197,-13.98 203,-19.98 203,-25.98 203,-25.98 203,-37.98 203,-37.98 203,-43.98 197,-49.98 191,-49.98"/>
<text text-anchor="middle" x="164.5" y="-28.28" font-family="Helvetica,sans-Serif" font-size="14.00">pressure</text>
</g>
<!-- volt&#45;&gt;pressure -->
<g id="edge2" class="edge">
<title>volt&#45;&gt;pressure</title>
<path fill="none" stroke="black" stroke-width="1.2" d="M90.14,-31.98C98.01,-31.98 106.89,-31.98 115.7,-31.98"/>
<polygon fill="black" stroke="black" stroke-width="1.2" points="115.93,-35.48 125.93,-31.98 115.93,-28.48 115.93,-35.48"/>
</g>
<!-- vibration -->
<g id="node4" class="node">
<title>vibration</title>
<path fill="white" stroke="black" d="M305,-49.98C305,-49.98 251,-49.98 251,-49.98 245,-49.98 239,-43.98 239,-37.98 239,-37.98 239,-25.98 239,-25.98 239,-19.98 245,-13.98 251,-13.98 251,-13.98 305,-13.98 305,-13.98 311,-13.98 317,-19.98 317,-25.98 317,-25.98 317,-37.98 317,-37.98 317,-43.98 311,-49.98 305,-49.98"/>
<text text-anchor="middle" x="278" y="-28.28" font-family="Helvetica,sans-Serif" font-size="14.00">vibration</text>
</g>
<!-- pressure&#45;&gt;vibration -->
<g id="edge5" class="edge">
<title>pressure&#45;&gt;vibration</title>
<path fill="none" stroke="black" stroke-width="1.2" d="M203.25,-31.98C211.42,-31.98 220.18,-31.98 228.69,-31.98"/>
<polygon fill="black" stroke="black" stroke-width="1.2" points="228.91,-35.48 238.91,-31.98 228.91,-28.48 228.91,-35.48"/>
</g>
<!-- vibration&#45;&gt;volt -->
<g id="edge3" class="edge">
<title>vibration&#45;&gt;volt</title>
<path fill="none" stroke="black" stroke-width="1.2" d="M238.91,-15.2C227.58,-11.01 214.99,-7.1 203,-4.98 169.3,0.98 159.5,2 126,-4.98 117.06,-6.84 107.84,-10.06 99.32,-13.64"/>
<polygon fill="black" stroke="black" stroke-width="1.2" points="97.76,-10.51 90.06,-17.79 100.62,-16.9 97.76,-10.51"/>
</g>
<!-- vibration&#45;&gt;rotate -->
<g id="edge4" class="edge">
<title>vibration&#45;&gt;rotate</title>
<path fill="none" stroke="black" stroke-width="1.2" d="M317.08,-40.61C325.56,-42.53 334.54,-44.56 343,-46.48"/>
<polygon fill="black" stroke="black" stroke-width="1.2" points="342.45,-49.95 352.98,-48.74 344,-43.12 342.45,-49.95"/>
</g>
</g>
</svg>
