<?xml version="1.0" encoding="UTF-8" standalone="no"?>
<!DOCTYPE svg PUBLIC "-//W3C//DTD SVG 1.1//EN"
 "http://www.w3.org/Graphics/SVG/1.1/DTD/svg11.dtd">
<!-- Generated by graphviz version 2.50.0 (0)
 -->
<!-- Title: G Pages: 1 -->
<svg width="454pt" height="124pt"
 viewBox="0.00 0.00 454.00 124.00" xmlns="http://www.w3.org/2000/svg" xmlns:xlink="http://www.w3.org/1999/xlink">
<g id="graph0" class="graph" transform="scale(1 1) rotate(0) translate(4 120)">
<title>G</title>
<polygon fill="white" stroke="transparent" points="-4,4 -4,-120 450,-120 450,4 -4,4"/>
<text text-anchor="middle" x="223" y="-99.2" font-family="Times,serif" font-size="16.00">model=model4/cbnb_w_telemetry.json [machine 34]</text>
<!-- volt -->
<g id="node1" class="node">
<title>volt</title>
<path fill="white" stroke="black" d="M351.5,-90C351.5,-90 321.5,-90 321.5,-90 315.5,-90 309.5,-84 309.5,-78 309.5,-78 309.5,-66 309.5,-66 309.5,-60 315.5,-54 321.5,-54 321.5,-54 351.5,-54 351.5,-54 357.5,-54 363.5,-60 363.5,-66 363.5,-66 363.5,-78 363.5,-78 363.5,-84 357.5,-90 351.5,-90"/>
<text text-anchor="middle" x="336.5" y="-68.3" font-family="Helvetica,sans-Serif" font-size="14.00">volt</text>
</g>
<!-- rotate -->
<g id="node2" class="node">
<title>rotate</title>
<path fill="white" stroke="black" d="M251,-90C251,-90 218,-90 218,-90 212,-90 206,-84 206,-78 206,-78 206,-66 206,-66 206,-60 212,-54 218,-54 218,-54 251,-54 251,-54 257,-54 263,-60 263,-66 263,-66 263,-78 263,-78 263,-84 257,-90 251,-90"/>
<text text-anchor="middle" x="234.5" y="-68.3" font-family="Helvetica,sans-Serif" font-size="14.00">rotate</text>
</g>
<!-- rotate&#45;&gt;volt -->
<g id="edge1" class="edge">
<title>rotate&#45;&gt;volt</title>
<path fill="none" stroke="black" stroke-width="1.2" d="M263.09,-72C274.27,-72 287.33,-72 299.26,-72"/>
<polygon fill="black" stroke="black" stroke-width="1.2" points="299.38,-75.5 309.38,-72 299.38,-68.5 299.38,-75.5"/>
</g>
<!-- pressure -->
<g id="node3" class="node">
<title>pressure</title>
<path fill="white" stroke="black" d="M147.5,-63C147.5,-63 94.5,-63 94.5,-63 88.5,-63 82.5,-57 82.5,-51 82.5,-51 82.5,-39 82.5,-39 82.5,-33 88.5,-27 94.5,-27 94.5,-27 147.5,-27 147.5,-27 153.5,-27 159.5,-33 159.5,-39 159.5,-39 159.5,-51 159.5,-51 159.5,-57 153.5,-63 147.5,-63"/>
<text text-anchor="middle" x="121" y="-41.3" font-family="Helvetica,sans-Serif" font-size="14.00">pressure</text>
</g>
<!-- pressure&#45;&gt;rotate -->
<g id="edge2" class="edge">
<title>pressure&#45;&gt;rotate</title>
<path fill="none" stroke="black" stroke-width="1.2" d="M159.75,-54.14C171.38,-56.96 184.18,-60.06 195.8,-62.87"/>
<polygon fill="black" stroke="black" stroke-width="1.2" points="195.12,-66.31 205.66,-65.26 196.77,-59.5 195.12,-66.31"/>
</g>
<!-- vibration -->
<g id="node4" class="node">
<title>vibration</title>
<path fill="white" stroke="black" d="M261.5,-36C261.5,-36 207.5,-36 207.5,-36 201.5,-36 195.5,-30 195.5,-24 195.5,-24 195.5,-12 195.5,-12 195.5,-6 201.5,0 207.5,0 207.5,0 261.5,0 261.5,0 267.5,0 273.5,-6 273.5,-12 273.5,-12 273.5,-24 273.5,-24 273.5,-30 267.5,-36 261.5,-36"/>
<text text-anchor="middle" x="234.5" y="-14.3" font-family="Helvetica,sans-Serif" font-size="14.00">vibration</text>
</g>
<!-- pressure&#45;&gt;vibration -->
<g id="edge3" class="edge">
<title>pressure&#45;&gt;vibration</title>
<path fill="none" stroke="black" stroke-width="1.2" d="M159.75,-35.86C168.01,-33.86 176.87,-31.71 185.47,-29.63"/>
<polygon fill="black" stroke="black" stroke-width="1.2" points="186.52,-32.98 195.41,-27.22 184.87,-26.18 186.52,-32.98"/>
</g>
</g>
</svg>
