<?xml version="1.0" encoding="UTF-8" standalone="no"?>
<!DOCTYPE svg PUBLIC "-//W3C//DTD SVG 1.1//EN"
 "http://www.w3.org/Graphics/SVG/1.1/DTD/svg11.dtd">
<!-- Generated by graphviz version 2.50.0 (0)
 -->
<!-- Title: G Pages: 1 -->
<svg width="444pt" height="178pt"
 viewBox="0.00 0.00 444.00 178.00" xmlns="http://www.w3.org/2000/svg" xmlns:xlink="http://www.w3.org/1999/xlink">
<g id="graph0" class="graph" transform="scale(1 1) rotate(0) translate(4 174)">
<title>G</title>
<polygon fill="white" stroke="transparent" points="-4,4 -4,-174 440,-174 440,4 -4,4"/>
<text text-anchor="middle" x="218" y="-153.2" font-family="Times,serif" font-size="16.00">model=model3/cbnb_w_telemetry.json [machine 3]</text>
<!-- volt -->
<g id="node1" class="node">
<title>volt</title>
<path fill="white" stroke="black" d="M186.5,-36C186.5,-36 156.5,-36 156.5,-36 150.5,-36 144.5,-30 144.5,-24 144.5,-24 144.5,-12 144.5,-12 144.5,-6 150.5,0 156.5,0 156.5,0 186.5,0 186.5,0 192.5,0 198.5,-6 198.5,-12 198.5,-12 198.5,-24 198.5,-24 198.5,-30 192.5,-36 186.5,-36"/>
<text text-anchor="middle" x="171.5" y="-14.3" font-family="Helvetica,sans-Serif" font-size="14.00">volt</text>
</g>
<!-- rotate -->
<g id="node2" class="node">
<title>rotate</title>
<path fill="white" stroke="black" d="M291.5,-90C291.5,-90 258.5,-90 258.5,-90 252.5,-90 246.5,-84 246.5,-78 246.5,-78 246.5,-66 246.5,-66 246.5,-60 252.5,-54 258.5,-54 258.5,-54 291.5,-54 291.5,-54 297.5,-54 303.5,-60 303.5,-66 303.5,-66 303.5,-78 303.5,-78 303.5,-84 297.5,-90 291.5,-90"/>
<text text-anchor="middle" x="275" y="-68.3" font-family="Helvetica,sans-Serif" font-size="14.00">rotate</text>
</g>
<!-- pressure -->
<g id="node3" class="node">
<title>pressure</title>
<path fill="white" stroke="black" d="M198,-144C198,-144 145,-144 145,-144 139,-144 133,-138 133,-132 133,-132 133,-120 133,-120 133,-114 139,-108 145,-108 145,-108 198,-108 198,-108 204,-108 210,-114 210,-120 210,-120 210,-132 210,-132 210,-138 204,-144 198,-144"/>
<text text-anchor="middle" x="171.5" y="-122.3" font-family="Helvetica,sans-Serif" font-size="14.00">pressure</text>
</g>
<!-- vibration -->
<g id="node4" class="node">
<title>vibration</title>
<path fill="white" stroke="black" d="M198.5,-90C198.5,-90 144.5,-90 144.5,-90 138.5,-90 132.5,-84 132.5,-78 132.5,-78 132.5,-66 132.5,-66 132.5,-60 138.5,-54 144.5,-54 144.5,-54 198.5,-54 198.5,-54 204.5,-54 210.5,-60 210.5,-66 210.5,-66 210.5,-78 210.5,-78 210.5,-84 204.5,-90 198.5,-90"/>
<text text-anchor="middle" x="171.5" y="-68.3" font-family="Helvetica,sans-Serif" font-size="14.00">vibration</text>
</g>
<!-- vibration&#45;&gt;rotate -->
<g id="edge1" class="edge">
<title>vibration&#45;&gt;rotate</title>
<path fill="none" stroke="black" stroke-width="1.2" d="M210.58,-72C218.97,-72 227.85,-72 236.22,-72"/>
<polygon fill="black" stroke="black" stroke-width="1.2" points="236.48,-75.5 246.48,-72 236.48,-68.5 236.48,-75.5"/>
</g>
</g>
</svg>
