<?xml version="1.0" encoding="UTF-8" standalone="no"?>
<!DOCTYPE svg PUBLIC "-//W3C//DTD SVG 1.1//EN"
 "http://www.w3.org/Graphics/SVG/1.1/DTD/svg11.dtd">
<!-- Generated by graphviz version 2.50.0 (0)
 -->
<!-- Title: G Pages: 1 -->
<svg width="1203pt" height="627pt"
 viewBox="0.00 0.00 1203.00 627.00" xmlns="http://www.w3.org/2000/svg" xmlns:xlink="http://www.w3.org/1999/xlink">
<g id="graph0" class="graph" transform="scale(1 1) rotate(0) translate(4 623)">
<title>G</title>
<polygon fill="white" stroke="transparent" points="-4,4 -4,-623 1199,-623 1199,4 -4,4"/>
<text text-anchor="middle" x="597.5" y="-602.2" font-family="Times,serif" font-size="16.00">model=model4/cbnb_w_mixed.json [machine 34]</text>
<!-- volt -->
<g id="node1" class="node">
<title>volt</title>
<path fill="white" stroke="black" d="M42,-386C42,-386 12,-386 12,-386 6,-386 0,-380 0,-374 0,-374 0,-362 0,-362 0,-356 6,-350 12,-350 12,-350 42,-350 42,-350 48,-350 54,-356 54,-362 54,-362 54,-374 54,-374 54,-380 48,-386 42,-386"/>
<text text-anchor="middle" x="27" y="-364.3" font-family="Helvetica,sans-Serif" font-size="14.00">volt</text>
</g>
<!-- pressure -->
<g id="node3" class="node">
<title>pressure</title>
<path fill="white" stroke="black" d="M159,-253C159,-253 106,-253 106,-253 100,-253 94,-247 94,-241 94,-241 94,-229 94,-229 94,-223 100,-217 106,-217 106,-217 159,-217 159,-217 165,-217 171,-223 171,-229 171,-229 171,-241 171,-241 171,-247 165,-253 159,-253"/>
<text text-anchor="middle" x="132.5" y="-231.3" font-family="Helvetica,sans-Serif" font-size="14.00">pressure</text>
</g>
<!-- volt&#45;&gt;pressure -->
<g id="edge2" class="edge">
<title>volt&#45;&gt;pressure</title>
<path fill="none" stroke="black" stroke-width="1.2" d="M42.17,-349.79C59.96,-326.93 90.59,-287.57 110.95,-261.41"/>
<polygon fill="black" stroke="black" stroke-width="1.2" points="113.79,-263.46 117.16,-253.42 108.26,-259.16 113.79,-263.46"/>
</g>
<!-- err_error4 -->
<g id="node8" class="node">
<title>err_error4</title>
<path fill="white" stroke="black" d="M1062,-406C1062,-406 1001,-406 1001,-406 995,-406 989,-400 989,-394 989,-394 989,-382 989,-382 989,-376 995,-370 1001,-370 1001,-370 1062,-370 1062,-370 1068,-370 1074,-376 1074,-382 1074,-382 1074,-394 1074,-394 1074,-400 1068,-406 1062,-406"/>
<text text-anchor="middle" x="1031.5" y="-384.3" font-family="Helvetica,sans-Serif" font-size="14.00">err_error4</text>
</g>
<!-- volt&#45;&gt;err_error4 -->
<g id="edge4" class="edge">
<title>volt&#45;&gt;err_error4</title>
<path fill="none" stroke="black" stroke-width="1.2" d="M34.28,-386.03C42.99,-407.94 61.02,-443.95 90,-460 309.8,-581.71 403.75,-479 655,-479 655,-479 655,-479 791,-479 865.38,-479 884.75,-466.56 953,-437 968.46,-430.3 984.38,-420.77 997.74,-411.89"/>
<polygon fill="black" stroke="black" stroke-width="1.2" points="999.82,-414.71 1006.12,-406.19 995.88,-408.92 999.82,-414.71"/>
</g>
<!-- err_error5 -->
<g id="node9" class="node">
<title>err_error5</title>
<path fill="white" stroke="black" d="M163,-451C163,-451 102,-451 102,-451 96,-451 90,-445 90,-439 90,-439 90,-427 90,-427 90,-421 96,-415 102,-415 102,-415 163,-415 163,-415 169,-415 175,-421 175,-427 175,-427 175,-439 175,-439 175,-445 169,-451 163,-451"/>
<text text-anchor="middle" x="132.5" y="-429.3" font-family="Helvetica,sans-Serif" font-size="14.00">err_error5</text>
</g>
<!-- volt&#45;&gt;err_error5 -->
<g id="edge5" class="edge">
<title>volt&#45;&gt;err_error5</title>
<path fill="none" stroke="black" stroke-width="1.2" d="M62.75,-389.82C72.73,-396.09 83.65,-402.95 93.8,-409.32"/>
<polygon fill="black" stroke="black" stroke-width="1.2" points="64.45,-386.76 54.12,-384.4 60.72,-392.68 64.45,-386.76"/>
<polygon fill="black" stroke="black" stroke-width="1.2" points="92.14,-412.42 102.47,-414.77 95.86,-406.49 92.14,-412.42"/>
</g>
<!-- mnt_comp4 -->
<g id="node13" class="node">
<title>mnt_comp4</title>
<path fill="white" stroke="black" d="M297,-36C297,-36 223,-36 223,-36 217,-36 211,-30 211,-24 211,-24 211,-12 211,-12 211,-6 217,0 223,0 223,0 297,0 297,0 303,0 309,-6 309,-12 309,-12 309,-24 309,-24 309,-30 303,-36 297,-36"/>
<text text-anchor="middle" x="260" y="-14.3" font-family="Helvetica,sans-Serif" font-size="14.00">mnt_comp4</text>
</g>
<!-- volt&#45;&gt;mnt_comp4 -->
<g id="edge7" class="edge">
<title>volt&#45;&gt;mnt_comp4</title>
<path fill="none" stroke="black" stroke-width="1.2" d="M27.43,-349.7C26.95,-303.83 31.63,-182.26 90,-107 117.8,-71.16 164.13,-48.21 201.26,-34.61"/>
<polygon fill="black" stroke="black" stroke-width="1.2" points="202.71,-37.81 210.98,-31.18 200.38,-31.21 202.71,-37.81"/>
</g>
<!-- rotate -->
<g id="node2" class="node">
<title>rotate</title>
<path fill="white" stroke="black" d="M276.5,-417C276.5,-417 243.5,-417 243.5,-417 237.5,-417 231.5,-411 231.5,-405 231.5,-405 231.5,-393 231.5,-393 231.5,-387 237.5,-381 243.5,-381 243.5,-381 276.5,-381 276.5,-381 282.5,-381 288.5,-387 288.5,-393 288.5,-393 288.5,-405 288.5,-405 288.5,-411 282.5,-417 276.5,-417"/>
<text text-anchor="middle" x="260" y="-395.3" font-family="Helvetica,sans-Serif" font-size="14.00">rotate</text>
</g>
<!-- rotate&#45;&gt;volt -->
<g id="edge1" class="edge">
<title>rotate&#45;&gt;volt</title>
<path fill="none" stroke="black" stroke-width="1.2" d="M231.25,-395.28C189.5,-389.67 110.48,-379.07 64.23,-372.86"/>
<polygon fill="black" stroke="black" stroke-width="1.2" points="64.43,-369.36 54.05,-371.5 63.5,-376.29 64.43,-369.36"/>
</g>
<!-- fail_comp1 -->
<g id="node14" class="node">
<title>fail_comp1</title>
<path fill="white" stroke="black" d="M556,-357C556,-357 488,-357 488,-357 482,-357 476,-351 476,-345 476,-345 476,-333 476,-333 476,-327 482,-321 488,-321 488,-321 556,-321 556,-321 562,-321 568,-327 568,-333 568,-333 568,-345 568,-345 568,-351 562,-357 556,-357"/>
<text text-anchor="middle" x="522" y="-335.3" font-family="Helvetica,sans-Serif" font-size="14.00">fail_comp1</text>
</g>
<!-- rotate&#45;&gt;fail_comp1 -->
<g id="edge14" class="edge">
<title>rotate&#45;&gt;fail_comp1</title>
<path fill="none" stroke="black" stroke-width="1.2" d="M288.68,-398.66C323.82,-397.6 386,-393.6 437,-379 451.64,-374.81 466.88,-368.28 480.3,-361.71"/>
<polygon fill="black" stroke="black" stroke-width="1.2" points="481.93,-364.81 489.27,-357.18 478.77,-358.56 481.93,-364.81"/>
</g>
<!-- fail_comp2 -->
<g id="node15" class="node">
<title>fail_comp2</title>
<path fill="white" stroke="black" d="M425,-337C425,-337 357,-337 357,-337 351,-337 345,-331 345,-325 345,-325 345,-313 345,-313 345,-307 351,-301 357,-301 357,-301 425,-301 425,-301 431,-301 437,-307 437,-313 437,-313 437,-325 437,-325 437,-331 431,-337 425,-337"/>
<text text-anchor="middle" x="391" y="-315.3" font-family="Helvetica,sans-Serif" font-size="14.00">fail_comp2</text>
</g>
<!-- rotate&#45;&gt;fail_comp2 -->
<g id="edge15" class="edge">
<title>rotate&#45;&gt;fail_comp2</title>
<path fill="none" stroke="black" stroke-width="1.2" d="M297.23,-376.53C314.26,-365.97 334.58,-353.37 351.86,-342.66"/>
<polygon fill="black" stroke="black" stroke-width="1.2" points="295.33,-373.59 288.67,-381.84 299.02,-379.54 295.33,-373.59"/>
<polygon fill="black" stroke="black" stroke-width="1.2" points="353.92,-345.49 360.58,-337.25 350.23,-339.54 353.92,-345.49"/>
</g>
<!-- pressure&#45;&gt;rotate -->
<g id="edge9" class="edge">
<title>pressure&#45;&gt;rotate</title>
<path fill="none" stroke="black" stroke-width="1.2" d="M147.41,-253.18C169.65,-282.24 213.31,-339.29 238.93,-372.77"/>
<polygon fill="black" stroke="black" stroke-width="1.2" points="236.17,-374.93 245.03,-380.74 241.73,-370.67 236.17,-374.93"/>
</g>
<!-- vibration -->
<g id="node4" class="node">
<title>vibration</title>
<path fill="white" stroke="black" d="M941,-280C941,-280 887,-280 887,-280 881,-280 875,-274 875,-268 875,-268 875,-256 875,-256 875,-250 881,-244 887,-244 887,-244 941,-244 941,-244 947,-244 953,-250 953,-256 953,-256 953,-268 953,-268 953,-274 947,-280 941,-280"/>
<text text-anchor="middle" x="914" y="-258.3" font-family="Helvetica,sans-Serif" font-size="14.00">vibration</text>
</g>
<!-- pressure&#45;&gt;vibration -->
<g id="edge16" class="edge">
<title>pressure&#45;&gt;vibration</title>
<path fill="none" stroke="black" stroke-width="1.2" d="M154.3,-216.84C169.07,-205.05 189.94,-190.53 211,-183 418.35,-108.88 491.3,-91.88 705,-145 773.78,-162.1 843.52,-208.59 882.22,-237.55"/>
<polygon fill="black" stroke="black" stroke-width="1.2" points="880.37,-240.55 890.45,-243.81 884.6,-234.97 880.37,-240.55"/>
</g>
<!-- pressure&#45;&gt;err_error4 -->
<g id="edge18" class="edge">
<title>pressure&#45;&gt;err_error4</title>
<path fill="none" stroke="black" stroke-width="1.2" d="M171.05,-225.9C220.8,-214.66 311.44,-197 390,-197 390,-197 390,-197 523,-197 604.33,-197 635.39,-173.95 705,-216 729.69,-230.91 718.66,-251.75 741,-270 812.57,-328.46 917.01,-361.36 978.93,-376.83"/>
<polygon fill="black" stroke="black" stroke-width="1.2" points="978.31,-380.29 988.86,-379.26 979.97,-373.49 978.31,-380.29"/>
</g>
<!-- mnt_comp1 -->
<g id="node10" class="node">
<title>mnt_comp1</title>
<path fill="white" stroke="black" d="M693,-261C693,-261 619,-261 619,-261 613,-261 607,-255 607,-249 607,-249 607,-237 607,-237 607,-231 613,-225 619,-225 619,-225 693,-225 693,-225 699,-225 705,-231 705,-237 705,-237 705,-249 705,-249 705,-255 699,-261 693,-261"/>
<text text-anchor="middle" x="656" y="-239.3" font-family="Helvetica,sans-Serif" font-size="14.00">mnt_comp1</text>
</g>
<!-- pressure&#45;&gt;mnt_comp1 -->
<g id="edge19" class="edge">
<title>pressure&#45;&gt;mnt_comp1</title>
<path fill="none" stroke="black" stroke-width="1.2" d="M171,-235.58C260.83,-236.95 488.8,-240.45 596.69,-242.11"/>
<polygon fill="black" stroke="black" stroke-width="1.2" points="596.7,-245.61 606.75,-242.26 596.8,-238.61 596.7,-245.61"/>
</g>
<!-- mnt_comp2 -->
<g id="node11" class="node">
<title>mnt_comp2</title>
<path fill="white" stroke="black" d="M559,-303C559,-303 485,-303 485,-303 479,-303 473,-297 473,-291 473,-291 473,-279 473,-279 473,-273 479,-267 485,-267 485,-267 559,-267 559,-267 565,-267 571,-273 571,-279 571,-279 571,-291 571,-291 571,-297 565,-303 559,-303"/>
<text text-anchor="middle" x="522" y="-281.3" font-family="Helvetica,sans-Serif" font-size="14.00">mnt_comp2</text>
</g>
<!-- pressure&#45;&gt;mnt_comp2 -->
<g id="edge20" class="edge">
<title>pressure&#45;&gt;mnt_comp2</title>
<path fill="none" stroke="black" stroke-width="1.2" d="M171.26,-242.31C183.87,-244.63 198.02,-247.08 211,-249 298.45,-261.96 400.36,-273.03 462.77,-279.35"/>
<polygon fill="black" stroke="black" stroke-width="1.2" points="462.52,-282.84 472.82,-280.36 463.22,-275.87 462.52,-282.84"/>
</g>
<!-- pressure&#45;&gt;mnt_comp4 -->
<g id="edge21" class="edge">
<title>pressure&#45;&gt;mnt_comp4</title>
<path fill="none" stroke="black" stroke-width="1.2" d="M137.37,-216.87C145.67,-181.48 168.01,-102.11 211,-50 213.1,-47.45 215.46,-45.03 217.97,-42.74"/>
<polygon fill="black" stroke="black" stroke-width="1.2" points="220.34,-45.32 225.88,-36.29 215.92,-39.9 220.34,-45.32"/>
</g>
<!-- err_error2 -->
<g id="node6" class="node">
<title>err_error2</title>
<path fill="white" stroke="black" d="M1062,-280C1062,-280 1001,-280 1001,-280 995,-280 989,-274 989,-268 989,-268 989,-256 989,-256 989,-250 995,-244 1001,-244 1001,-244 1062,-244 1062,-244 1068,-244 1074,-250 1074,-256 1074,-256 1074,-268 1074,-268 1074,-274 1068,-280 1062,-280"/>
<text text-anchor="middle" x="1031.5" y="-258.3" font-family="Helvetica,sans-Serif" font-size="14.00">err_error2</text>
</g>
<!-- vibration&#45;&gt;err_error2 -->
<g id="edge24" class="edge">
<title>vibration&#45;&gt;err_error2</title>
<path fill="none" stroke="black" stroke-width="1.2" d="M963.29,-262C968.33,-262 973.46,-262 978.54,-262"/>
<polygon fill="black" stroke="black" stroke-width="1.2" points="963.14,-258.5 953.14,-262 963.14,-265.5 963.14,-258.5"/>
<polygon fill="black" stroke="black" stroke-width="1.2" points="978.82,-265.5 988.82,-262 978.82,-258.5 978.82,-265.5"/>
</g>
<!-- vibration&#45;&gt;err_error4 -->
<g id="edge25" class="edge">
<title>vibration&#45;&gt;err_error4</title>
<path fill="none" stroke="black" stroke-width="1.2" d="M938.42,-287.55C958.42,-309.36 987.03,-340.58 1007.03,-362.4"/>
<polygon fill="black" stroke="black" stroke-width="1.2" points="940.89,-285.06 931.55,-280.05 935.73,-289.79 940.89,-285.06"/>
<polygon fill="black" stroke="black" stroke-width="1.2" points="1004.65,-364.97 1013.98,-369.98 1009.81,-360.24 1004.65,-364.97"/>
</g>
<!-- vibration&#45;&gt;mnt_comp2 -->
<g id="edge27" class="edge">
<title>vibration&#45;&gt;mnt_comp2</title>
<path fill="none" stroke="black" stroke-width="1.2" d="M874.63,-266.59C863.18,-267.84 850.59,-269.1 839,-270 749.26,-276.97 644.92,-281.17 581.45,-283.28"/>
<polygon fill="black" stroke="black" stroke-width="1.2" points="581.12,-279.79 571.24,-283.61 581.35,-286.79 581.12,-279.79"/>
</g>
<!-- err_error1 -->
<g id="node5" class="node">
<title>err_error1</title>
<path fill="white" stroke="black" d="M820.5,-109C820.5,-109 759.5,-109 759.5,-109 753.5,-109 747.5,-103 747.5,-97 747.5,-97 747.5,-85 747.5,-85 747.5,-79 753.5,-73 759.5,-73 759.5,-73 820.5,-73 820.5,-73 826.5,-73 832.5,-79 832.5,-85 832.5,-85 832.5,-97 832.5,-97 832.5,-103 826.5,-109 820.5,-109"/>
<text text-anchor="middle" x="790" y="-87.3" font-family="Helvetica,sans-Serif" font-size="14.00">err_error1</text>
</g>
<!-- err_error1&#45;&gt;vibration -->
<g id="edge23" class="edge">
<title>err_error1&#45;&gt;vibration</title>
<path fill="none" stroke="black" stroke-width="1.2" d="M823.24,-109.26C828.9,-113.33 834.43,-117.95 839,-123 869.18,-156.31 891.11,-204.17 902.95,-234.15"/>
<polygon fill="black" stroke="black" stroke-width="1.2" points="899.72,-235.5 906.57,-243.58 906.25,-232.99 899.72,-235.5"/>
</g>
<!-- err_error2&#45;&gt;pressure -->
<g id="edge17" class="edge">
<title>err_error2&#45;&gt;pressure</title>
<path fill="none" stroke="black" stroke-width="1.2" d="M1021.69,-243.87C994.91,-191.72 909.11,-45 791,-45 521,-45 521,-45 521,-45 375.96,-45 332.06,-67.11 211,-147 186.43,-163.21 164.89,-189.19 150.8,-208.72"/>
<polygon fill="black" stroke="black" stroke-width="1.2" points="147.92,-206.72 145.04,-216.92 153.65,-210.75 147.92,-206.72"/>
</g>
<!-- err_error3 -->
<g id="node7" class="node">
<title>err_error3</title>
<path fill="white" stroke="black" d="M1183,-535C1183,-535 1122,-535 1122,-535 1116,-535 1110,-529 1110,-523 1110,-523 1110,-511 1110,-511 1110,-505 1116,-499 1122,-499 1122,-499 1183,-499 1183,-499 1189,-499 1195,-505 1195,-511 1195,-511 1195,-523 1195,-523 1195,-529 1189,-535 1183,-535"/>
<text text-anchor="middle" x="1152.5" y="-513.3" font-family="Helvetica,sans-Serif" font-size="14.00">err_error3</text>
</g>
<!-- err_error2&#45;&gt;err_error3 -->
<g id="edge29" class="edge">
<title>err_error2&#45;&gt;err_error3</title>
<path fill="none" stroke="black" stroke-width="1.2" d="M1045.43,-289.7C1068.34,-338.81 1115.81,-440.53 1138.66,-489.49"/>
<polygon fill="black" stroke="black" stroke-width="1.2" points="1048.46,-287.92 1041.06,-280.34 1042.12,-290.88 1048.46,-287.92"/>
<polygon fill="black" stroke="black" stroke-width="1.2" points="1135.62,-491.25 1143.02,-498.83 1141.96,-488.29 1135.62,-491.25"/>
</g>
<!-- err_error3&#45;&gt;volt -->
<g id="edge3" class="edge">
<title>err_error3&#45;&gt;volt</title>
<path fill="none" stroke="black" stroke-width="1.2" d="M1118.12,-535.01C1073.28,-557.49 990.47,-593 915,-593 259,-593 259,-593 259,-593 171.72,-593 149.39,-556.95 90,-493 63.69,-464.67 46.09,-423.08 36.56,-395.77"/>
<polygon fill="black" stroke="black" stroke-width="1.2" points="39.8,-394.43 33.3,-386.06 33.17,-396.66 39.8,-394.43"/>
</g>
<!-- err_error3&#45;&gt;rotate -->
<g id="edge10" class="edge">
<title>err_error3&#45;&gt;rotate</title>
<path fill="none" stroke="black" stroke-width="1.2" d="M1109.63,-517C1062.37,-517 983.16,-517 915,-517 521,-517 521,-517 521,-517 431.17,-517 338.23,-457.87 291.6,-423.32"/>
<polygon fill="black" stroke="black" stroke-width="1.2" points="293.54,-420.4 283.44,-417.18 289.32,-425.99 293.54,-420.4"/>
</g>
<!-- err_error4&#45;&gt;rotate -->
<g id="edge11" class="edge">
<title>err_error4&#45;&gt;rotate</title>
<path fill="none" stroke="black" stroke-width="1.2" d="M988.72,-403.05C941.41,-418.72 861.69,-441 791,-441 521,-441 521,-441 521,-441 441.01,-441 348.92,-421.39 298.63,-408.96"/>
<polygon fill="black" stroke="black" stroke-width="1.2" points="299.4,-405.55 288.85,-406.51 297.69,-412.34 299.4,-405.55"/>
</g>
<!-- err_error5&#45;&gt;rotate -->
<g id="edge12" class="edge">
<title>err_error5&#45;&gt;rotate</title>
<path fill="none" stroke="black" stroke-width="1.2" d="M175.29,-421.68C190.24,-417.63 206.98,-413.09 221.54,-409.15"/>
<polygon fill="black" stroke="black" stroke-width="1.2" points="222.48,-412.52 231.22,-406.53 220.65,-405.76 222.48,-412.52"/>
</g>
<!-- err_error5&#45;&gt;vibration -->
<g id="edge26" class="edge">
<title>err_error5&#45;&gt;vibration</title>
<path fill="none" stroke="black" stroke-width="1.2" d="M175.14,-433.22C210.79,-432.95 263.44,-431.5 309,-426 521.45,-400.35 764.49,-317.11 865.32,-280.06"/>
<polygon fill="black" stroke="black" stroke-width="1.2" points="866.74,-283.27 874.91,-276.52 864.32,-276.7 866.74,-283.27"/>
</g>
<!-- mnt_comp3 -->
<g id="node12" class="node">
<title>mnt_comp3</title>
<path fill="white" stroke="black" d="M827,-261C827,-261 753,-261 753,-261 747,-261 741,-255 741,-249 741,-249 741,-237 741,-237 741,-231 747,-225 753,-225 753,-225 827,-225 827,-225 833,-225 839,-231 839,-237 839,-237 839,-249 839,-249 839,-255 833,-261 827,-261"/>
<text text-anchor="middle" x="790" y="-239.3" font-family="Helvetica,sans-Serif" font-size="14.00">mnt_comp3</text>
</g>
<!-- mnt_comp1&#45;&gt;mnt_comp3 -->
<g id="edge31" class="edge">
<title>mnt_comp1&#45;&gt;mnt_comp3</title>
<path fill="none" stroke="black" stroke-width="1.2" d="M705.03,-243C713.31,-243 722,-243 730.52,-243"/>
<polygon fill="black" stroke="black" stroke-width="1.2" points="730.79,-246.5 740.79,-243 730.79,-239.5 730.79,-246.5"/>
</g>
<!-- mnt_comp2&#45;&gt;rotate -->
<g id="edge13" class="edge">
<title>mnt_comp2&#45;&gt;rotate</title>
<path fill="none" stroke="black" stroke-width="1.2" d="M486.53,-303.03C481.87,-305.86 477.23,-308.88 473,-312 455.28,-325.05 456.05,-334.98 437,-346 413.36,-359.68 342.65,-378.76 298.38,-389.9"/>
<polygon fill="black" stroke="black" stroke-width="1.2" points="297.41,-386.54 288.56,-392.36 299.11,-393.33 297.41,-386.54"/>
</g>
<!-- mnt_comp2&#45;&gt;mnt_comp1 -->
<g id="edge30" class="edge">
<title>mnt_comp2&#45;&gt;mnt_comp1</title>
<path fill="none" stroke="black" stroke-width="1.2" d="M571.03,-269.72C579.49,-267.03 588.38,-264.2 597.08,-261.43"/>
<polygon fill="black" stroke="black" stroke-width="1.2" points="598.32,-264.71 606.79,-258.34 596.2,-258.04 598.32,-264.71"/>
</g>
<!-- mnt_comp3&#45;&gt;volt -->
<g id="edge6" class="edge">
<title>mnt_comp3&#45;&gt;volt</title>
<path fill="none" stroke="black" stroke-width="1.2" d="M770.89,-224.88C755.04,-210.39 730.6,-191.2 705,-183 495.92,-116 429.42,-160.67 211,-183 156.37,-188.58 131.91,-172.52 90,-208 50.44,-241.49 36.01,-303.37 30.83,-339.58"/>
<polygon fill="black" stroke="black" stroke-width="1.2" points="27.3,-339.56 29.5,-349.93 34.25,-340.46 27.3,-339.56"/>
</g>
<!-- mnt_comp3&#45;&gt;vibration -->
<g id="edge28" class="edge">
<title>mnt_comp3&#45;&gt;vibration</title>
<path fill="none" stroke="black" stroke-width="1.2" d="M839.22,-250.51C847.65,-251.82 856.42,-253.19 864.84,-254.5"/>
<polygon fill="black" stroke="black" stroke-width="1.2" points="864.49,-257.99 874.91,-256.07 865.56,-251.07 864.49,-257.99"/>
</g>
<!-- mnt_comp4&#45;&gt;mnt_comp3 -->
<g id="edge34" class="edge">
<title>mnt_comp4&#45;&gt;mnt_comp3</title>
<path fill="none" stroke="black" stroke-width="1.2" d="M309.09,-22.61C394.79,-32.71 576.95,-62.86 705,-145 733.51,-163.29 757.64,-194.15 772.62,-216.36"/>
<polygon fill="black" stroke="black" stroke-width="1.2" points="769.87,-218.55 778.28,-224.99 775.73,-214.71 769.87,-218.55"/>
</g>
<!-- fail_comp1&#45;&gt;mnt_comp1 -->
<g id="edge32" class="edge">
<title>fail_comp1&#45;&gt;mnt_comp1</title>
<path fill="none" stroke="black" stroke-width="1.2" d="M556.77,-321C561.63,-318.12 566.5,-315.08 571,-312 590.63,-298.57 611.29,-281.64 627.21,-267.91"/>
<polygon fill="black" stroke="black" stroke-width="1.2" points="629.83,-270.27 635.07,-261.06 625.23,-264.99 629.83,-270.27"/>
</g>
<!-- fail_comp1&#45;&gt;mnt_comp3 -->
<g id="edge35" class="edge">
<title>fail_comp1&#45;&gt;mnt_comp3</title>
<path fill="none" stroke="black" stroke-width="1.2" d="M568.12,-322.71C613.15,-306.47 682.49,-281.44 731.45,-263.77"/>
<polygon fill="black" stroke="black" stroke-width="1.2" points="732.74,-267.03 740.95,-260.34 730.36,-260.44 732.74,-267.03"/>
</g>
<!-- fail_comp2&#45;&gt;volt -->
<g id="edge8" class="edge">
<title>fail_comp2&#45;&gt;volt</title>
<path fill="none" stroke="black" stroke-width="1.2" d="M344.99,-325.09C272.31,-334.93 130.52,-354.12 64.04,-363.12"/>
<polygon fill="black" stroke="black" stroke-width="1.2" points="63.47,-359.67 54.03,-364.48 64.41,-366.6 63.47,-359.67"/>
</g>
<!-- fail_comp2&#45;&gt;pressure -->
<g id="edge22" class="edge">
<title>fail_comp2&#45;&gt;pressure</title>
<path fill="none" stroke="black" stroke-width="1.2" d="M344.81,-316.1C307.74,-312.52 254.47,-304.56 211,-287 194.08,-280.16 177.05,-269.28 163.28,-259.23"/>
<polygon fill="black" stroke="black" stroke-width="1.2" points="165.25,-256.34 155.15,-253.12 161.04,-261.93 165.25,-256.34"/>
</g>
<!-- fail_comp2&#45;&gt;mnt_comp2 -->
<g id="edge33" class="edge">
<title>fail_comp2&#45;&gt;mnt_comp2</title>
<path fill="none" stroke="black" stroke-width="1.2" d="M437.12,-307.11C445.46,-304.91 454.28,-302.59 462.94,-300.3"/>
<polygon fill="black" stroke="black" stroke-width="1.2" points="463.84,-303.69 472.62,-297.75 462.05,-296.92 463.84,-303.69"/>
</g>
</g>
</svg>
