<?xml version="1.0" encoding="UTF-8" standalone="no"?>
<!DOCTYPE svg PUBLIC "-//W3C//DTD SVG 1.1//EN"
 "http://www.w3.org/Graphics/SVG/1.1/DTD/svg11.dtd">
<!-- Generated by graphviz version 2.50.0 (0)
 -->
<!-- Title: G Pages: 1 -->
<svg width="1317pt" height="547pt"
 viewBox="0.00 0.00 1317.00 547.34" xmlns="http://www.w3.org/2000/svg" xmlns:xlink="http://www.w3.org/1999/xlink">
<g id="graph0" class="graph" transform="scale(1 1) rotate(0) translate(4 543.34)">
<title>G</title>
<polygon fill="white" stroke="transparent" points="-4,4 -4,-543.34 1313,-543.34 1313,4 -4,4"/>
<text text-anchor="middle" x="654.5" y="-522.54" font-family="Times,serif" font-size="16.00">model=model3/cbnb_w_mixed.json [machine 55]</text>
<!-- volt -->
<g id="node1" class="node">
<title>volt</title>
<path fill="white" stroke="black" d="M42,-176.34C42,-176.34 12,-176.34 12,-176.34 6,-176.34 0,-170.34 0,-164.34 0,-164.34 0,-152.34 0,-152.34 0,-146.34 6,-140.34 12,-140.34 12,-140.34 42,-140.34 42,-140.34 48,-140.34 54,-146.34 54,-152.34 54,-152.34 54,-164.34 54,-164.34 54,-170.34 48,-176.34 42,-176.34"/>
<text text-anchor="middle" x="27" y="-154.64" font-family="Helvetica,sans-Serif" font-size="14.00">volt</text>
</g>
<!-- vibration -->
<g id="node4" class="node">
<title>vibration</title>
<path fill="white" stroke="black" d="M294,-241.34C294,-241.34 240,-241.34 240,-241.34 234,-241.34 228,-235.34 228,-229.34 228,-229.34 228,-217.34 228,-217.34 228,-211.34 234,-205.34 240,-205.34 240,-205.34 294,-205.34 294,-205.34 300,-205.34 306,-211.34 306,-217.34 306,-217.34 306,-229.34 306,-229.34 306,-235.34 300,-241.34 294,-241.34"/>
<text text-anchor="middle" x="267" y="-219.64" font-family="Helvetica,sans-Serif" font-size="14.00">vibration</text>
</g>
<!-- volt&#45;&gt;vibration -->
<g id="edge2" class="edge">
<title>volt&#45;&gt;vibration</title>
<path fill="none" stroke="black" stroke-width="1.2" d="M64.04,-166.49C95.37,-173.75 141.89,-184.96 182,-196.34 193.74,-199.67 206.31,-203.55 218.06,-207.3"/>
<polygon fill="black" stroke="black" stroke-width="1.2" points="64.56,-163.02 54.03,-164.18 62.99,-169.84 64.56,-163.02"/>
<polygon fill="black" stroke="black" stroke-width="1.2" points="217.11,-210.67 227.7,-210.41 219.26,-204.01 217.11,-210.67"/>
</g>
<!-- err_error1 -->
<g id="node5" class="node">
<title>err_error1</title>
<path fill="white" stroke="black" d="M166.5,-401.34C166.5,-401.34 105.5,-401.34 105.5,-401.34 99.5,-401.34 93.5,-395.34 93.5,-389.34 93.5,-389.34 93.5,-377.34 93.5,-377.34 93.5,-371.34 99.5,-365.34 105.5,-365.34 105.5,-365.34 166.5,-365.34 166.5,-365.34 172.5,-365.34 178.5,-371.34 178.5,-377.34 178.5,-377.34 178.5,-389.34 178.5,-389.34 178.5,-395.34 172.5,-401.34 166.5,-401.34"/>
<text text-anchor="middle" x="136" y="-379.64" font-family="Helvetica,sans-Serif" font-size="14.00">err_error1</text>
</g>
<!-- volt&#45;&gt;err_error1 -->
<g id="edge3" class="edge">
<title>volt&#45;&gt;err_error1</title>
<path fill="none" stroke="black" stroke-width="1.2" d="M31.39,-186.67C37.37,-226.71 52.88,-300.61 90,-351.34 91.75,-353.73 93.74,-356.02 95.87,-358.18"/>
<polygon fill="black" stroke="black" stroke-width="1.2" points="34.83,-185.98 29.98,-176.56 27.9,-186.95 34.83,-185.98"/>
<polygon fill="black" stroke="black" stroke-width="1.2" points="93.81,-361.03 103.61,-365.06 98.46,-355.8 93.81,-361.03"/>
</g>
<!-- err_error4 -->
<g id="node8" class="node">
<title>err_error4</title>
<path fill="white" stroke="black" d="M425,-157.34C425,-157.34 364,-157.34 364,-157.34 358,-157.34 352,-151.34 352,-145.34 352,-145.34 352,-133.34 352,-133.34 352,-127.34 358,-121.34 364,-121.34 364,-121.34 425,-121.34 425,-121.34 431,-121.34 437,-127.34 437,-133.34 437,-133.34 437,-145.34 437,-145.34 437,-151.34 431,-157.34 425,-157.34"/>
<text text-anchor="middle" x="394.5" y="-135.64" font-family="Helvetica,sans-Serif" font-size="14.00">err_error4</text>
</g>
<!-- volt&#45;&gt;err_error4 -->
<g id="edge4" class="edge">
<title>volt&#45;&gt;err_error4</title>
<path fill="none" stroke="black" stroke-width="1.2" d="M64.57,-156.44C129.92,-153.04 266.91,-145.92 341.84,-142.02"/>
<polygon fill="black" stroke="black" stroke-width="1.2" points="64.09,-152.96 54.29,-156.97 64.45,-159.95 64.09,-152.96"/>
<polygon fill="black" stroke="black" stroke-width="1.2" points="342.18,-145.51 351.99,-141.5 341.82,-138.52 342.18,-145.51"/>
</g>
<!-- fail_comp1 -->
<g id="node14" class="node">
<title>fail_comp1</title>
<path fill="white" stroke="black" d="M170,-111.34C170,-111.34 102,-111.34 102,-111.34 96,-111.34 90,-105.34 90,-99.34 90,-99.34 90,-87.34 90,-87.34 90,-81.34 96,-75.34 102,-75.34 102,-75.34 170,-75.34 170,-75.34 176,-75.34 182,-81.34 182,-87.34 182,-87.34 182,-99.34 182,-99.34 182,-105.34 176,-111.34 170,-111.34"/>
<text text-anchor="middle" x="136" y="-89.64" font-family="Helvetica,sans-Serif" font-size="14.00">fail_comp1</text>
</g>
<!-- volt&#45;&gt;fail_comp1 -->
<g id="edge8" class="edge">
<title>volt&#45;&gt;fail_comp1</title>
<path fill="none" stroke="black" stroke-width="1.2" d="M54.18,-142.44C66.98,-134.66 82.65,-125.14 96.77,-116.57"/>
<polygon fill="black" stroke="black" stroke-width="1.2" points="98.59,-119.55 105.32,-111.37 94.95,-113.57 98.59,-119.55"/>
</g>
<!-- rotate -->
<g id="node2" class="node">
<title>rotate</title>
<path fill="white" stroke="black" d="M518,-314.34C518,-314.34 485,-314.34 485,-314.34 479,-314.34 473,-308.34 473,-302.34 473,-302.34 473,-290.34 473,-290.34 473,-284.34 479,-278.34 485,-278.34 485,-278.34 518,-278.34 518,-278.34 524,-278.34 530,-284.34 530,-290.34 530,-290.34 530,-302.34 530,-302.34 530,-308.34 524,-314.34 518,-314.34"/>
<text text-anchor="middle" x="501.5" y="-292.64" font-family="Helvetica,sans-Serif" font-size="14.00">rotate</text>
</g>
<!-- rotate&#45;&gt;volt -->
<g id="edge1" class="edge">
<title>rotate&#45;&gt;volt</title>
<path fill="none" stroke="black" stroke-width="1.2" d="M472.83,-300.69C402.87,-310.23 215.58,-326.42 90,-250.34 65.57,-235.54 48.64,-207.02 38.72,-185.63"/>
<polygon fill="black" stroke="black" stroke-width="1.2" points="41.88,-184.13 34.65,-176.39 35.47,-186.95 41.88,-184.13"/>
</g>
<!-- rotate&#45;&gt;vibration -->
<g id="edge10" class="edge">
<title>rotate&#45;&gt;vibration</title>
<path fill="none" stroke="black" stroke-width="1.2" d="M472.92,-287.68C434.23,-275.53 363.28,-253.26 315.87,-238.37"/>
<polygon fill="black" stroke="black" stroke-width="1.2" points="316.72,-234.97 306.13,-235.31 314.62,-241.65 316.72,-234.97"/>
</g>
<!-- err_error2 -->
<g id="node6" class="node">
<title>err_error2</title>
<path fill="white" stroke="black" d="M642.5,-474.34C642.5,-474.34 581.5,-474.34 581.5,-474.34 575.5,-474.34 569.5,-468.34 569.5,-462.34 569.5,-462.34 569.5,-450.34 569.5,-450.34 569.5,-444.34 575.5,-438.34 581.5,-438.34 581.5,-438.34 642.5,-438.34 642.5,-438.34 648.5,-438.34 654.5,-444.34 654.5,-450.34 654.5,-450.34 654.5,-462.34 654.5,-462.34 654.5,-468.34 648.5,-474.34 642.5,-474.34"/>
<text text-anchor="middle" x="612" y="-452.64" font-family="Helvetica,sans-Serif" font-size="14.00">err_error2</text>
</g>
<!-- rotate&#45;&gt;err_error2 -->
<g id="edge12" class="edge">
<title>rotate&#45;&gt;err_error2</title>
<path fill="none" stroke="black" stroke-width="1.2" d="M514.74,-314.38C533.78,-342.47 570.64,-396.82 592.81,-429.51"/>
<polygon fill="black" stroke="black" stroke-width="1.2" points="590.13,-431.8 598.64,-438.12 595.93,-427.88 590.13,-431.8"/>
</g>
<!-- fail_comp2 -->
<g id="node15" class="node">
<title>fail_comp2</title>
<path fill="white" stroke="black" d="M646,-230.34C646,-230.34 578,-230.34 578,-230.34 572,-230.34 566,-224.34 566,-218.34 566,-218.34 566,-206.34 566,-206.34 566,-200.34 572,-194.34 578,-194.34 578,-194.34 646,-194.34 646,-194.34 652,-194.34 658,-200.34 658,-206.34 658,-206.34 658,-218.34 658,-218.34 658,-224.34 652,-230.34 646,-230.34"/>
<text text-anchor="middle" x="612" y="-208.64" font-family="Helvetica,sans-Serif" font-size="14.00">fail_comp2</text>
</g>
<!-- rotate&#45;&gt;fail_comp2 -->
<g id="edge16" class="edge">
<title>rotate&#45;&gt;fail_comp2</title>
<path fill="none" stroke="black" stroke-width="1.2" d="M523.96,-278.16C536.12,-268 551.73,-255.24 566,-244.34 569.34,-241.79 572.86,-239.17 576.4,-236.58"/>
<polygon fill="black" stroke="black" stroke-width="1.2" points="578.55,-239.35 584.61,-230.66 574.45,-233.67 578.55,-239.35"/>
</g>
<!-- pressure -->
<g id="node3" class="node">
<title>pressure</title>
<path fill="white" stroke="black" d="M1155.5,-293.34C1155.5,-293.34 1102.5,-293.34 1102.5,-293.34 1096.5,-293.34 1090.5,-287.34 1090.5,-281.34 1090.5,-281.34 1090.5,-269.34 1090.5,-269.34 1090.5,-263.34 1096.5,-257.34 1102.5,-257.34 1102.5,-257.34 1155.5,-257.34 1155.5,-257.34 1161.5,-257.34 1167.5,-263.34 1167.5,-269.34 1167.5,-269.34 1167.5,-281.34 1167.5,-281.34 1167.5,-287.34 1161.5,-293.34 1155.5,-293.34"/>
<text text-anchor="middle" x="1129" y="-271.64" font-family="Helvetica,sans-Serif" font-size="14.00">pressure</text>
</g>
<!-- pressure&#45;&gt;rotate -->
<g id="edge9" class="edge">
<title>pressure&#45;&gt;rotate</title>
<path fill="none" stroke="black" stroke-width="1.2" d="M1090.39,-280.48C1041.54,-286.69 953.57,-296.34 878,-296.34 742,-296.34 742,-296.34 742,-296.34 670.68,-296.34 587.41,-296.34 540.23,-296.34"/>
<polygon fill="black" stroke="black" stroke-width="1.2" points="540.16,-292.84 530.16,-296.34 540.16,-299.84 540.16,-292.84"/>
</g>
<!-- vibration&#45;&gt;err_error4 -->
<g id="edge21" class="edge">
<title>vibration&#45;&gt;err_error4</title>
<path fill="none" stroke="black" stroke-width="1.2" d="M294.92,-205.32C313.24,-193.06 337.69,-176.69 357.65,-163.33"/>
<polygon fill="black" stroke="black" stroke-width="1.2" points="359.83,-166.09 366.19,-157.62 355.93,-160.27 359.83,-166.09"/>
</g>
<!-- err_error1&#45;&gt;rotate -->
<g id="edge11" class="edge">
<title>err_error1&#45;&gt;rotate</title>
<path fill="none" stroke="black" stroke-width="1.2" d="M178.51,-386.53C238.29,-389.47 350.89,-388.77 437,-351.34 452.43,-344.63 466.85,-332.8 478.04,-321.82"/>
<polygon fill="black" stroke="black" stroke-width="1.2" points="480.77,-324.04 485.24,-314.43 475.75,-319.15 480.77,-324.04"/>
</g>
<!-- err_error1&#45;&gt;vibration -->
<g id="edge20" class="edge">
<title>err_error1&#45;&gt;vibration</title>
<path fill="none" stroke="black" stroke-width="1.2" d="M151.55,-365.3C174.29,-337.09 218.38,-282.4 244.71,-249.75"/>
<polygon fill="black" stroke="black" stroke-width="1.2" points="247.76,-251.54 251.31,-241.56 242.31,-247.15 247.76,-251.54"/>
</g>
<!-- err_error1&#45;&gt;err_error2 -->
<g id="edge26" class="edge">
<title>err_error1&#45;&gt;err_error2</title>
<path fill="none" stroke="black" stroke-width="1.2" d="M163.48,-401.46C178.73,-410.91 198.65,-421.66 218,-427.34 336.18,-462.04 482.5,-462.28 558.94,-459.36"/>
<polygon fill="black" stroke="black" stroke-width="1.2" points="559.4,-462.85 569.25,-458.93 559.11,-455.85 559.4,-462.85"/>
</g>
<!-- err_error3 -->
<g id="node7" class="node">
<title>err_error3</title>
<path fill="white" stroke="black" d="M1035,-389.34C1035,-389.34 974,-389.34 974,-389.34 968,-389.34 962,-383.34 962,-377.34 962,-377.34 962,-365.34 962,-365.34 962,-359.34 968,-353.34 974,-353.34 974,-353.34 1035,-353.34 1035,-353.34 1041,-353.34 1047,-359.34 1047,-365.34 1047,-365.34 1047,-377.34 1047,-377.34 1047,-383.34 1041,-389.34 1035,-389.34"/>
<text text-anchor="middle" x="1004.5" y="-367.64" font-family="Helvetica,sans-Serif" font-size="14.00">err_error3</text>
</g>
<!-- err_error1&#45;&gt;err_error3 -->
<g id="edge27" class="edge">
<title>err_error1&#45;&gt;err_error3</title>
<path fill="none" stroke="black" stroke-width="1.2" d="M178.84,-392.6C191.37,-394.96 205.18,-397.16 218,-398.34 261.37,-402.32 272.45,-399.19 316,-398.34 553.41,-393.68 836.68,-379.98 951.42,-374.08"/>
<polygon fill="black" stroke="black" stroke-width="1.2" points="951.86,-377.57 961.66,-373.56 951.5,-370.57 951.86,-377.57"/>
</g>
<!-- err_error2&#45;&gt;err_error3 -->
<g id="edge28" class="edge">
<title>err_error2&#45;&gt;err_error3</title>
<path fill="none" stroke="black" stroke-width="1.2" d="M654.57,-455.35C715.55,-452.85 832.18,-444.08 926,-413.34 940.04,-408.74 954.52,-401.63 967.1,-394.57"/>
<polygon fill="black" stroke="black" stroke-width="1.2" points="969,-397.51 975.9,-389.47 965.49,-391.46 969,-397.51"/>
</g>
<!-- err_error3&#45;&gt;rotate -->
<g id="edge13" class="edge">
<title>err_error3&#45;&gt;rotate</title>
<path fill="none" stroke="black" stroke-width="1.2" d="M961.7,-366.62C883.65,-357.56 710.55,-336.31 566,-310.34 557.63,-308.84 548.68,-307 540.22,-305.17"/>
<polygon fill="black" stroke="black" stroke-width="1.2" points="540.75,-301.7 530.22,-302.95 539.23,-308.53 540.75,-301.7"/>
</g>
<!-- err_error3&#45;&gt;pressure -->
<g id="edge17" class="edge">
<title>err_error3&#45;&gt;pressure</title>
<path fill="none" stroke="black" stroke-width="1.2" d="M1028.54,-353.28C1047.75,-338.23 1075.32,-316.63 1096.56,-299.98"/>
<polygon fill="black" stroke="black" stroke-width="1.2" points="1098.93,-302.56 1104.65,-293.64 1094.62,-297.06 1098.93,-302.56"/>
</g>
<!-- fail_comp4 -->
<g id="node16" class="node">
<title>fail_comp4</title>
<path fill="white" stroke="black" d="M1163,-418.34C1163,-418.34 1095,-418.34 1095,-418.34 1089,-418.34 1083,-412.34 1083,-406.34 1083,-406.34 1083,-394.34 1083,-394.34 1083,-388.34 1089,-382.34 1095,-382.34 1095,-382.34 1163,-382.34 1163,-382.34 1169,-382.34 1175,-388.34 1175,-394.34 1175,-394.34 1175,-406.34 1175,-406.34 1175,-412.34 1169,-418.34 1163,-418.34"/>
<text text-anchor="middle" x="1129" y="-396.64" font-family="Helvetica,sans-Serif" font-size="14.00">fail_comp4</text>
</g>
<!-- err_error3&#45;&gt;fail_comp4 -->
<g id="edge30" class="edge">
<title>err_error3&#45;&gt;fail_comp4</title>
<path fill="none" stroke="black" stroke-width="1.2" d="M1047.31,-381.24C1055.48,-383.17 1064.17,-385.23 1072.7,-387.25"/>
<polygon fill="black" stroke="black" stroke-width="1.2" points="1072.06,-390.69 1082.6,-389.59 1073.68,-383.88 1072.06,-390.69"/>
</g>
<!-- err_error4&#45;&gt;rotate -->
<g id="edge14" class="edge">
<title>err_error4&#45;&gt;rotate</title>
<path fill="none" stroke="black" stroke-width="1.2" d="M407.54,-157.35C425.96,-184.88 461.22,-237.61 482.63,-269.62"/>
<polygon fill="black" stroke="black" stroke-width="1.2" points="479.8,-271.69 488.27,-278.06 485.62,-267.8 479.8,-271.69"/>
</g>
<!-- err_error4&#45;&gt;pressure -->
<g id="edge18" class="edge">
<title>err_error4&#45;&gt;pressure</title>
<path fill="none" stroke="black" stroke-width="1.2" d="M422.42,-121.32C461.97,-96.64 538.92,-55.34 611,-55.34 611,-55.34 611,-55.34 878,-55.34 993.56,-55.34 1081.07,-189.45 1113.88,-248.25"/>
<polygon fill="black" stroke="black" stroke-width="1.2" points="1110.98,-250.24 1118.85,-257.34 1117.12,-246.88 1110.98,-250.24"/>
</g>
<!-- err_error5 -->
<g id="node9" class="node">
<title>err_error5</title>
<path fill="white" stroke="black" d="M166.5,-241.34C166.5,-241.34 105.5,-241.34 105.5,-241.34 99.5,-241.34 93.5,-235.34 93.5,-229.34 93.5,-229.34 93.5,-217.34 93.5,-217.34 93.5,-211.34 99.5,-205.34 105.5,-205.34 105.5,-205.34 166.5,-205.34 166.5,-205.34 172.5,-205.34 178.5,-211.34 178.5,-217.34 178.5,-217.34 178.5,-229.34 178.5,-229.34 178.5,-235.34 172.5,-241.34 166.5,-241.34"/>
<text text-anchor="middle" x="136" y="-219.64" font-family="Helvetica,sans-Serif" font-size="14.00">err_error5</text>
</g>
<!-- err_error5&#45;&gt;vibration -->
<g id="edge22" class="edge">
<title>err_error5&#45;&gt;vibration</title>
<path fill="none" stroke="black" stroke-width="1.2" d="M178.53,-223.34C190.96,-223.34 204.71,-223.34 217.55,-223.34"/>
<polygon fill="black" stroke="black" stroke-width="1.2" points="217.62,-226.84 227.62,-223.34 217.61,-219.84 217.62,-226.84"/>
</g>
<!-- mnt_comp1 -->
<g id="node10" class="node">
<title>mnt_comp1</title>
<path fill="white" stroke="black" d="M304,-65.34C304,-65.34 230,-65.34 230,-65.34 224,-65.34 218,-59.34 218,-53.34 218,-53.34 218,-41.34 218,-41.34 218,-35.34 224,-29.34 230,-29.34 230,-29.34 304,-29.34 304,-29.34 310,-29.34 316,-35.34 316,-41.34 316,-41.34 316,-53.34 316,-53.34 316,-59.34 310,-65.34 304,-65.34"/>
<text text-anchor="middle" x="267" y="-43.64" font-family="Helvetica,sans-Serif" font-size="14.00">mnt_comp1</text>
</g>
<!-- mnt_comp1&#45;&gt;volt -->
<g id="edge5" class="edge">
<title>mnt_comp1&#45;&gt;volt</title>
<path fill="none" stroke="black" stroke-width="1.2" d="M217.72,-42.01C180.27,-40.25 128.42,-43.17 90,-66.34 65.54,-81.09 48.62,-109.62 38.7,-131.02"/>
<polygon fill="black" stroke="black" stroke-width="1.2" points="35.45,-129.71 34.64,-140.27 41.86,-132.52 35.45,-129.71"/>
</g>
<!-- mnt_comp2 -->
<g id="node11" class="node">
<title>mnt_comp2</title>
<path fill="white" stroke="black" d="M780,-207.34C780,-207.34 706,-207.34 706,-207.34 700,-207.34 694,-201.34 694,-195.34 694,-195.34 694,-183.34 694,-183.34 694,-177.34 700,-171.34 706,-171.34 706,-171.34 780,-171.34 780,-171.34 786,-171.34 792,-177.34 792,-183.34 792,-183.34 792,-195.34 792,-195.34 792,-201.34 786,-207.34 780,-207.34"/>
<text text-anchor="middle" x="743" y="-185.64" font-family="Helvetica,sans-Serif" font-size="14.00">mnt_comp2</text>
</g>
<!-- mnt_comp2&#45;&gt;vibration -->
<g id="edge23" class="edge">
<title>mnt_comp2&#45;&gt;vibration</title>
<path fill="none" stroke="black" stroke-width="1.2" d="M693.6,-186.64C681.94,-186.1 669.53,-185.61 658,-185.34 617.12,-184.37 606.81,-182.75 566,-185.34 477.62,-190.95 375.37,-205.84 316.54,-215.23"/>
<polygon fill="black" stroke="black" stroke-width="1.2" points="315.74,-211.81 306.43,-216.85 316.86,-218.72 315.74,-211.81"/>
</g>
<!-- mnt_comp3 -->
<g id="node12" class="node">
<title>mnt_comp3</title>
<path fill="white" stroke="black" d="M914,-268.34C914,-268.34 840,-268.34 840,-268.34 834,-268.34 828,-262.34 828,-256.34 828,-256.34 828,-244.34 828,-244.34 828,-238.34 834,-232.34 840,-232.34 840,-232.34 914,-232.34 914,-232.34 920,-232.34 926,-238.34 926,-244.34 926,-244.34 926,-256.34 926,-256.34 926,-262.34 920,-268.34 914,-268.34"/>
<text text-anchor="middle" x="877" y="-246.64" font-family="Helvetica,sans-Serif" font-size="14.00">mnt_comp3</text>
</g>
<!-- mnt_comp2&#45;&gt;mnt_comp3 -->
<g id="edge32" class="edge">
<title>mnt_comp2&#45;&gt;mnt_comp3</title>
<path fill="none" stroke="black" stroke-width="1.2" d="M783.25,-207.48C797.09,-213.87 812.82,-221.14 827.34,-227.85"/>
<polygon fill="black" stroke="black" stroke-width="1.2" points="826.13,-231.15 836.68,-232.17 829.07,-224.8 826.13,-231.15"/>
</g>
<!-- mnt_comp3&#45;&gt;volt -->
<g id="edge6" class="edge">
<title>mnt_comp3&#45;&gt;volt</title>
<path fill="none" stroke="black" stroke-width="1.2" d="M867.76,-232.03C840.5,-174.53 747.24,-1.34 613,-1.34 266,-1.34 266,-1.34 266,-1.34 186.07,-1.34 153.61,10.07 90,-38.34 60.05,-61.13 43.29,-102.51 34.94,-130.21"/>
<polygon fill="black" stroke="black" stroke-width="1.2" points="31.5,-129.52 32.15,-140.09 38.24,-131.42 31.5,-129.52"/>
</g>
<!-- mnt_comp3&#45;&gt;rotate -->
<g id="edge15" class="edge">
<title>mnt_comp3&#45;&gt;rotate</title>
<path fill="none" stroke="black" stroke-width="1.2" d="M827.98,-253.59C766.86,-258.11 658.14,-267.48 566,-282.34 557.6,-283.69 548.64,-285.46 540.19,-287.29"/>
<polygon fill="black" stroke="black" stroke-width="1.2" points="539.19,-283.93 530.19,-289.52 540.71,-290.76 539.19,-283.93"/>
</g>
<!-- mnt_comp3&#45;&gt;pressure -->
<g id="edge19" class="edge">
<title>mnt_comp3&#45;&gt;pressure</title>
<path fill="none" stroke="black" stroke-width="1.2" d="M926.2,-255.16C970.47,-259.59 1035.72,-266.11 1079.94,-270.53"/>
<polygon fill="black" stroke="black" stroke-width="1.2" points="1079.85,-274.04 1090.15,-271.55 1080.55,-267.08 1079.85,-274.04"/>
</g>
<!-- mnt_comp3&#45;&gt;err_error3 -->
<g id="edge29" class="edge">
<title>mnt_comp3&#45;&gt;err_error3</title>
<path fill="none" stroke="black" stroke-width="1.2" d="M896.79,-268.45C918.14,-289.04 953.13,-322.78 977.19,-345.97"/>
<polygon fill="black" stroke="black" stroke-width="1.2" points="974.95,-348.68 984.58,-353.1 979.81,-343.64 974.95,-348.68"/>
</g>
<!-- mnt_comp4 -->
<g id="node13" class="node">
<title>mnt_comp4</title>
<path fill="white" stroke="black" d="M1297,-493.34C1297,-493.34 1223,-493.34 1223,-493.34 1217,-493.34 1211,-487.34 1211,-481.34 1211,-481.34 1211,-469.34 1211,-469.34 1211,-463.34 1217,-457.34 1223,-457.34 1223,-457.34 1297,-457.34 1297,-457.34 1303,-457.34 1309,-463.34 1309,-469.34 1309,-469.34 1309,-481.34 1309,-481.34 1309,-487.34 1303,-493.34 1297,-493.34"/>
<text text-anchor="middle" x="1260" y="-471.64" font-family="Helvetica,sans-Serif" font-size="14.00">mnt_comp4</text>
</g>
<!-- mnt_comp4&#45;&gt;volt -->
<g id="edge7" class="edge">
<title>mnt_comp4&#45;&gt;volt</title>
<path fill="none" stroke="black" stroke-width="1.2" d="M1210.72,-486.95C1159.96,-498.12 1077.59,-513.34 1005.5,-513.34 266,-513.34 266,-513.34 266,-513.34 175.37,-513.34 144.22,-482.97 90,-410.34 38.9,-341.89 29.48,-236.61 28.04,-186.6"/>
<polygon fill="black" stroke="black" stroke-width="1.2" points="31.53,-186.45 27.83,-176.52 24.54,-186.59 31.53,-186.45"/>
</g>
<!-- mnt_comp4&#45;&gt;vibration -->
<g id="edge24" class="edge">
<title>mnt_comp4&#45;&gt;vibration</title>
<path fill="none" stroke="black" stroke-width="1.2" d="M1210.89,-469.11C1086.93,-452.39 747.1,-402.38 473,-323.34 417.57,-307.35 403.52,-302.3 352,-276.34 335.01,-267.78 317.06,-256.75 302.13,-246.97"/>
<polygon fill="black" stroke="black" stroke-width="1.2" points="303.99,-244.01 293.72,-241.39 300.12,-249.84 303.99,-244.01"/>
</g>
<!-- fail_comp1&#45;&gt;mnt_comp1 -->
<g id="edge31" class="edge">
<title>fail_comp1&#45;&gt;mnt_comp1</title>
<path fill="none" stroke="black" stroke-width="1.2" d="M182.12,-77.25C190.46,-74.28 199.28,-71.13 207.94,-68.04"/>
<polygon fill="black" stroke="black" stroke-width="1.2" points="209.37,-71.25 217.62,-64.59 207.02,-64.66 209.37,-71.25"/>
</g>
<!-- fail_comp1&#45;&gt;mnt_comp2 -->
<g id="edge33" class="edge">
<title>fail_comp1&#45;&gt;mnt_comp2</title>
<path fill="none" stroke="black" stroke-width="1.2" d="M182.41,-93.34C233.67,-93.34 319.58,-93.34 393.5,-93.34 393.5,-93.34 393.5,-93.34 502.5,-93.34 580.19,-93.34 662.54,-137.4 707.58,-165.82"/>
<polygon fill="black" stroke="black" stroke-width="1.2" points="705.77,-168.82 716.08,-171.28 709.55,-162.93 705.77,-168.82"/>
</g>
<!-- fail_comp2&#45;&gt;vibration -->
<g id="edge25" class="edge">
<title>fail_comp2&#45;&gt;vibration</title>
<path fill="none" stroke="black" stroke-width="1.2" d="M565.76,-213.79C501.03,-215.87 382.52,-219.67 316.2,-221.79"/>
<polygon fill="black" stroke="black" stroke-width="1.2" points="315.9,-218.3 306.02,-222.12 316.12,-225.3 315.9,-218.3"/>
</g>
<!-- fail_comp2&#45;&gt;mnt_comp2 -->
<g id="edge34" class="edge">
<title>fail_comp2&#45;&gt;mnt_comp2</title>
<path fill="none" stroke="black" stroke-width="1.2" d="M658.12,-204.3C666.37,-202.82 675.09,-201.27 683.66,-199.74"/>
<polygon fill="black" stroke="black" stroke-width="1.2" points="684.38,-203.17 693.62,-197.97 683.16,-196.28 684.38,-203.17"/>
</g>
<!-- fail_comp4&#45;&gt;mnt_comp4 -->
<g id="edge35" class="edge">
<title>fail_comp4&#45;&gt;mnt_comp4</title>
<path fill="none" stroke="black" stroke-width="1.2" d="M1161.23,-418.49C1178.53,-428.55 1200.23,-441.17 1218.79,-451.96"/>
<polygon fill="black" stroke="black" stroke-width="1.2" points="1217.21,-455.09 1227.61,-457.09 1220.73,-449.04 1217.21,-455.09"/>
</g>
</g>
</svg>
