<?xml version="1.0" encoding="UTF-8" standalone="no"?>
<!DOCTYPE svg PUBLIC "-//W3C//DTD SVG 1.1//EN"
 "http://www.w3.org/Graphics/SVG/1.1/DTD/svg11.dtd">
<!-- Generated by graphviz version 2.50.0 (0)
 -->
<!-- Title: G Pages: 1 -->
<svg width="454pt" height="133pt"
 viewBox="0.00 0.00 454.00 133.00" xmlns="http://www.w3.org/2000/svg" xmlns:xlink="http://www.w3.org/1999/xlink">
<g id="graph0" class="graph" transform="scale(1 1) rotate(0) translate(4 129)">
<title>G</title>
<polygon fill="white" stroke="transparent" points="-4,4 -4,-129 450,-129 450,4 -4,4"/>
<text text-anchor="middle" x="223" y="-108.2" font-family="Times,serif" font-size="16.00">model=model4/cbnb_w_telemetry.json [machine 60]</text>
<!-- volt -->
<g id="node1" class="node">
<title>volt</title>
<path fill="white" stroke="black" d="M124.5,-63C124.5,-63 94.5,-63 94.5,-63 88.5,-63 82.5,-57 82.5,-51 82.5,-51 82.5,-39 82.5,-39 82.5,-33 88.5,-27 94.5,-27 94.5,-27 124.5,-27 124.5,-27 130.5,-27 136.5,-33 136.5,-39 136.5,-39 136.5,-51 136.5,-51 136.5,-57 130.5,-63 124.5,-63"/>
<text text-anchor="middle" x="109.5" y="-41.3" font-family="Helvetica,sans-Serif" font-size="14.00">volt</text>
</g>
<!-- pressure -->
<g id="node3" class="node">
<title>pressure</title>
<path fill="white" stroke="black" d="M237.5,-63C237.5,-63 184.5,-63 184.5,-63 178.5,-63 172.5,-57 172.5,-51 172.5,-51 172.5,-39 172.5,-39 172.5,-33 178.5,-27 184.5,-27 184.5,-27 237.5,-27 237.5,-27 243.5,-27 249.5,-33 249.5,-39 249.5,-39 249.5,-51 249.5,-51 249.5,-57 243.5,-63 237.5,-63"/>
<text text-anchor="middle" x="211" y="-41.3" font-family="Helvetica,sans-Serif" font-size="14.00">pressure</text>
</g>
<!-- volt&#45;&gt;pressure -->
<g id="edge2" class="edge">
<title>volt&#45;&gt;pressure</title>
<path fill="none" stroke="black" stroke-width="1.2" d="M146.83,-45C151.78,-45 156.92,-45 162.04,-45"/>
<polygon fill="black" stroke="black" stroke-width="1.2" points="146.64,-41.5 136.64,-45 146.64,-48.5 146.64,-41.5"/>
<polygon fill="black" stroke="black" stroke-width="1.2" points="162.43,-48.5 172.43,-45 162.43,-41.5 162.43,-48.5"/>
</g>
<!-- vibration -->
<g id="node4" class="node">
<title>vibration</title>
<path fill="white" stroke="black" d="M351.5,-36C351.5,-36 297.5,-36 297.5,-36 291.5,-36 285.5,-30 285.5,-24 285.5,-24 285.5,-12 285.5,-12 285.5,-6 291.5,0 297.5,0 297.5,0 351.5,0 351.5,0 357.5,0 363.5,-6 363.5,-12 363.5,-12 363.5,-24 363.5,-24 363.5,-30 357.5,-36 351.5,-36"/>
<text text-anchor="middle" x="324.5" y="-14.3" font-family="Helvetica,sans-Serif" font-size="14.00">vibration</text>
</g>
<!-- volt&#45;&gt;vibration -->
<g id="edge3" class="edge">
<title>volt&#45;&gt;vibration</title>
<path fill="none" stroke="black" stroke-width="1.2" d="M145.82,-26.66C154.34,-23.08 163.56,-19.86 172.5,-18 206.25,-10.97 245.17,-11.16 275.04,-13.01"/>
<polygon fill="black" stroke="black" stroke-width="1.2" points="144.26,-23.53 136.56,-30.81 147.12,-29.92 144.26,-23.53"/>
<polygon fill="black" stroke="black" stroke-width="1.2" points="274.98,-16.52 285.21,-13.73 275.48,-9.53 274.98,-16.52"/>
</g>
<!-- rotate -->
<g id="node2" class="node">
<title>rotate</title>
<path fill="white" stroke="black" d="M341,-99C341,-99 308,-99 308,-99 302,-99 296,-93 296,-87 296,-87 296,-75 296,-75 296,-69 302,-63 308,-63 308,-63 341,-63 341,-63 347,-63 353,-69 353,-75 353,-75 353,-87 353,-87 353,-93 347,-99 341,-99"/>
<text text-anchor="middle" x="324.5" y="-77.3" font-family="Helvetica,sans-Serif" font-size="14.00">rotate</text>
</g>
<!-- rotate&#45;&gt;volt -->
<g id="edge1" class="edge">
<title>rotate&#45;&gt;volt</title>
<path fill="none" stroke="black" stroke-width="1.2" d="M295.8,-82.22C265.19,-82.92 214.64,-82.09 172.5,-72 163.62,-69.87 154.42,-66.55 145.91,-62.95"/>
<polygon fill="black" stroke="black" stroke-width="1.2" points="147.2,-59.69 136.65,-58.82 144.35,-66.09 147.2,-59.69"/>
</g>
<!-- pressure&#45;&gt;rotate -->
<g id="edge4" class="edge">
<title>pressure&#45;&gt;rotate</title>
<path fill="none" stroke="black" stroke-width="1.2" d="M249.75,-57.19C261.38,-60.94 274.18,-65.08 285.8,-68.83"/>
<polygon fill="black" stroke="black" stroke-width="1.2" points="285.07,-72.27 295.66,-72.01 287.22,-65.61 285.07,-72.27"/>
</g>
<!-- pressure&#45;&gt;vibration -->
<g id="edge5" class="edge">
<title>pressure&#45;&gt;vibration</title>
<path fill="none" stroke="black" stroke-width="1.2" d="M249.75,-35.86C258.01,-33.86 266.87,-31.71 275.47,-29.63"/>
<polygon fill="black" stroke="black" stroke-width="1.2" points="276.52,-32.98 285.41,-27.22 274.87,-26.18 276.52,-32.98"/>
</g>
</g>
</svg>
