<?xml version="1.0" encoding="UTF-8" standalone="no"?>
<!DOCTYPE svg PUBLIC "-//W3C//DTD SVG 1.1//EN"
 "http://www.w3.org/Graphics/SVG/1.1/DTD/svg11.dtd">
<!-- Generated by graphviz version 2.50.0 (0)
 -->
<!-- Title: G Pages: 1 -->
<svg width="1302pt" height="682pt"
 viewBox="0.00 0.00 1302.00 682.00" xmlns="http://www.w3.org/2000/svg" xmlns:xlink="http://www.w3.org/1999/xlink">
<g id="graph0" class="graph" transform="scale(1 1) rotate(0) translate(4 678)">
<title>G</title>
<polygon fill="white" stroke="transparent" points="-4,4 -4,-678 1298,-678 1298,4 -4,4"/>
<text text-anchor="middle" x="647" y="-657.2" font-family="Times,serif" font-size="16.00">model=model2/cbnb_w_mixed.json [machine 94]</text>
<!-- volt -->
<g id="node1" class="node">
<title>volt</title>
<path fill="white" stroke="black" d="M42,-222C42,-222 12,-222 12,-222 6,-222 0,-216 0,-210 0,-210 0,-198 0,-198 0,-192 6,-186 12,-186 12,-186 42,-186 42,-186 48,-186 54,-192 54,-198 54,-198 54,-210 54,-210 54,-216 48,-222 42,-222"/>
<text text-anchor="middle" x="27" y="-200.3" font-family="Helvetica,sans-Serif" font-size="14.00">volt</text>
</g>
<!-- rotate -->
<g id="node2" class="node">
<title>rotate</title>
<path fill="white" stroke="black" d="M135,-287C135,-287 102,-287 102,-287 96,-287 90,-281 90,-275 90,-275 90,-263 90,-263 90,-257 96,-251 102,-251 102,-251 135,-251 135,-251 141,-251 147,-257 147,-263 147,-263 147,-275 147,-275 147,-281 141,-287 135,-287"/>
<text text-anchor="middle" x="118.5" y="-265.3" font-family="Helvetica,sans-Serif" font-size="14.00">rotate</text>
</g>
<!-- volt&#45;&gt;rotate -->
<g id="edge1" class="edge">
<title>volt&#45;&gt;rotate</title>
<path fill="none" stroke="black" stroke-width="1.2" d="M61.08,-228.02C68.6,-233.49 76.59,-239.29 84.13,-244.76"/>
<polygon fill="black" stroke="black" stroke-width="1.2" points="63.08,-225.15 52.93,-222.11 58.97,-230.81 63.08,-225.15"/>
<polygon fill="black" stroke="black" stroke-width="1.2" points="82.55,-247.95 92.7,-250.99 86.67,-242.28 82.55,-247.95"/>
</g>
<!-- pressure -->
<g id="node3" class="node">
<title>pressure</title>
<path fill="white" stroke="black" d="M618,-390C618,-390 565,-390 565,-390 559,-390 553,-384 553,-378 553,-378 553,-366 553,-366 553,-360 559,-354 565,-354 565,-354 618,-354 618,-354 624,-354 630,-360 630,-366 630,-366 630,-378 630,-378 630,-384 624,-390 618,-390"/>
<text text-anchor="middle" x="591.5" y="-368.3" font-family="Helvetica,sans-Serif" font-size="14.00">pressure</text>
</g>
<!-- volt&#45;&gt;pressure -->
<g id="edge2" class="edge">
<title>volt&#45;&gt;pressure</title>
<path fill="none" stroke="black" stroke-width="1.2" d="M54.14,-209.33C98.48,-218.56 191.09,-238.69 268,-261 367.06,-289.73 480.61,-330.75 543.08,-354.04"/>
<polygon fill="black" stroke="black" stroke-width="1.2" points="542.07,-357.4 552.66,-357.62 544.52,-350.84 542.07,-357.4"/>
</g>
<!-- err_error1 -->
<g id="node5" class="node">
<title>err_error1</title>
<path fill="white" stroke="black" d="M873.5,-132C873.5,-132 812.5,-132 812.5,-132 806.5,-132 800.5,-126 800.5,-120 800.5,-120 800.5,-108 800.5,-108 800.5,-102 806.5,-96 812.5,-96 812.5,-96 873.5,-96 873.5,-96 879.5,-96 885.5,-102 885.5,-108 885.5,-108 885.5,-120 885.5,-120 885.5,-126 879.5,-132 873.5,-132"/>
<text text-anchor="middle" x="843" y="-110.3" font-family="Helvetica,sans-Serif" font-size="14.00">err_error1</text>
</g>
<!-- volt&#45;&gt;err_error1 -->
<g id="edge4" class="edge">
<title>volt&#45;&gt;err_error1</title>
<path fill="none" stroke="black" stroke-width="1.2" d="M43.17,-177.17C71.96,-130.19 139.3,-38 224.5,-38 224.5,-38 224.5,-38 472,-38 587.87,-38 720.05,-74.2 790.83,-96.64"/>
<polygon fill="black" stroke="black" stroke-width="1.2" points="40.07,-175.54 37.94,-185.92 46.07,-179.14 40.07,-175.54"/>
<polygon fill="black" stroke="black" stroke-width="1.2" points="789.81,-99.98 800.4,-99.7 791.95,-93.32 789.81,-99.98"/>
</g>
<!-- err_error3 -->
<g id="node7" class="node">
<title>err_error3</title>
<path fill="white" stroke="black" d="M377,-390C377,-390 316,-390 316,-390 310,-390 304,-384 304,-378 304,-378 304,-366 304,-366 304,-360 310,-354 316,-354 316,-354 377,-354 377,-354 383,-354 389,-360 389,-366 389,-366 389,-378 389,-378 389,-384 383,-390 377,-390"/>
<text text-anchor="middle" x="346.5" y="-368.3" font-family="Helvetica,sans-Serif" font-size="14.00">err_error3</text>
</g>
<!-- volt&#45;&gt;err_error3 -->
<g id="edge5" class="edge">
<title>volt&#45;&gt;err_error3</title>
<path fill="none" stroke="black" stroke-width="1.2" d="M36.78,-222.2C47.2,-242.3 66.2,-274.65 90,-296 146.91,-347.07 236.78,-363.87 293.37,-369.37"/>
<polygon fill="black" stroke="black" stroke-width="1.2" points="293.26,-372.88 303.53,-370.27 293.88,-365.9 293.26,-372.88"/>
</g>
<!-- err_error4 -->
<g id="node8" class="node">
<title>err_error4</title>
<path fill="white" stroke="black" d="M1141.5,-208C1141.5,-208 1080.5,-208 1080.5,-208 1074.5,-208 1068.5,-202 1068.5,-196 1068.5,-196 1068.5,-184 1068.5,-184 1068.5,-178 1074.5,-172 1080.5,-172 1080.5,-172 1141.5,-172 1141.5,-172 1147.5,-172 1153.5,-178 1153.5,-184 1153.5,-184 1153.5,-196 1153.5,-196 1153.5,-202 1147.5,-208 1141.5,-208"/>
<text text-anchor="middle" x="1111" y="-186.3" font-family="Helvetica,sans-Serif" font-size="14.00">err_error4</text>
</g>
<!-- volt&#45;&gt;err_error4 -->
<g id="edge6" class="edge">
<title>volt&#45;&gt;err_error4</title>
<path fill="none" stroke="black" stroke-width="1.2" d="M33.77,-175.91C41.56,-144.32 58.29,-93.24 90,-61 136.02,-14.2 158.86,0 224.5,0 224.5,0 224.5,0 844,0 955.28,0 1052.15,-111.47 1091.39,-163.65"/>
<polygon fill="black" stroke="black" stroke-width="1.2" points="30.32,-175.29 31.46,-185.82 37.13,-176.88 30.32,-175.29"/>
<polygon fill="black" stroke="black" stroke-width="1.2" points="1088.65,-165.82 1097.41,-171.78 1094.28,-161.66 1088.65,-165.82"/>
</g>
<!-- err_error5 -->
<g id="node9" class="node">
<title>err_error5</title>
<path fill="white" stroke="black" d="M256,-306C256,-306 195,-306 195,-306 189,-306 183,-300 183,-294 183,-294 183,-282 183,-282 183,-276 189,-270 195,-270 195,-270 256,-270 256,-270 262,-270 268,-276 268,-282 268,-282 268,-294 268,-294 268,-300 262,-306 256,-306"/>
<text text-anchor="middle" x="225.5" y="-284.3" font-family="Helvetica,sans-Serif" font-size="14.00">err_error5</text>
</g>
<!-- rotate&#45;&gt;err_error5 -->
<g id="edge10" class="edge">
<title>rotate&#45;&gt;err_error5</title>
<path fill="none" stroke="black" stroke-width="1.2" d="M147.09,-273.99C155.03,-275.43 163.97,-277.05 172.88,-278.66"/>
<polygon fill="black" stroke="black" stroke-width="1.2" points="172.4,-282.13 182.86,-280.47 173.64,-275.24 172.4,-282.13"/>
</g>
<!-- vibration -->
<g id="node4" class="node">
<title>vibration</title>
<path fill="white" stroke="black" d="M739,-254C739,-254 685,-254 685,-254 679,-254 673,-248 673,-242 673,-242 673,-230 673,-230 673,-224 679,-218 685,-218 685,-218 739,-218 739,-218 745,-218 751,-224 751,-230 751,-230 751,-242 751,-242 751,-248 745,-254 739,-254"/>
<text text-anchor="middle" x="712" y="-232.3" font-family="Helvetica,sans-Serif" font-size="14.00">vibration</text>
</g>
<!-- pressure&#45;&gt;vibration -->
<g id="edge11" class="edge">
<title>pressure&#45;&gt;vibration</title>
<path fill="none" stroke="black" stroke-width="1.2" d="M616.88,-353.69C621.57,-349.51 626.2,-344.85 630,-340 652.05,-311.82 642.73,-295.18 666,-268 668.18,-265.45 670.61,-263 673.17,-260.67"/>
<polygon fill="black" stroke="black" stroke-width="1.2" points="675.69,-263.13 681.17,-254.06 671.23,-257.74 675.69,-263.13"/>
</g>
<!-- pressure&#45;&gt;err_error4 -->
<g id="edge14" class="edge">
<title>pressure&#45;&gt;err_error4</title>
<path fill="none" stroke="black" stroke-width="1.2" d="M630.15,-356.78C641.62,-352.24 654.29,-347.33 666,-343 807.29,-290.81 975.88,-234.27 1058.79,-206.83"/>
<polygon fill="black" stroke="black" stroke-width="1.2" points="1060.07,-210.1 1068.47,-203.63 1057.87,-203.45 1060.07,-210.1"/>
</g>
<!-- fail_comp3 -->
<g id="node15" class="node">
<title>fail_comp3</title>
<path fill="white" stroke="black" d="M746,-388C746,-388 678,-388 678,-388 672,-388 666,-382 666,-376 666,-376 666,-364 666,-364 666,-358 672,-352 678,-352 678,-352 746,-352 746,-352 752,-352 758,-358 758,-364 758,-364 758,-376 758,-376 758,-382 752,-388 746,-388"/>
<text text-anchor="middle" x="712" y="-366.3" font-family="Helvetica,sans-Serif" font-size="14.00">fail_comp3</text>
</g>
<!-- pressure&#45;&gt;fail_comp3 -->
<g id="edge16" class="edge">
<title>pressure&#45;&gt;fail_comp3</title>
<path fill="none" stroke="black" stroke-width="1.2" d="M630.32,-371.36C638.31,-371.23 646.91,-371.08 655.4,-370.94"/>
<polygon fill="black" stroke="black" stroke-width="1.2" points="655.73,-374.43 665.67,-370.77 655.61,-367.43 655.73,-374.43"/>
</g>
<!-- vibration&#45;&gt;volt -->
<g id="edge3" class="edge">
<title>vibration&#45;&gt;volt</title>
<path fill="none" stroke="black" stroke-width="1.2" d="M672.95,-218.24C607.8,-189.5 470.06,-136 347.5,-136 224.5,-136 224.5,-136 224.5,-136 165.43,-136 101.59,-163.78 63.21,-183.83"/>
<polygon fill="black" stroke="black" stroke-width="1.2" points="61.19,-180.94 54.02,-188.74 64.49,-187.12 61.19,-180.94"/>
</g>
<!-- vibration&#45;&gt;rotate -->
<g id="edge8" class="edge">
<title>vibration&#45;&gt;rotate</title>
<path fill="none" stroke="black" stroke-width="1.2" d="M672.68,-237.31C640.68,-238.44 593.86,-240.18 553,-242 388.5,-249.35 347.02,-246.48 183,-261 174.66,-261.74 165.73,-262.74 157.27,-263.77"/>
<polygon fill="black" stroke="black" stroke-width="1.2" points="156.75,-260.31 147.27,-265.05 157.63,-267.26 156.75,-260.31"/>
</g>
<!-- vibration&#45;&gt;err_error1 -->
<g id="edge18" class="edge">
<title>vibration&#45;&gt;err_error1</title>
<path fill="none" stroke="black" stroke-width="1.2" d="M732.03,-218C754.14,-197.09 790.73,-162.48 815.58,-138.98"/>
<polygon fill="black" stroke="black" stroke-width="1.2" points="818.03,-141.49 822.89,-132.08 813.22,-136.4 818.03,-141.49"/>
</g>
<!-- vibration&#45;&gt;err_error4 -->
<g id="edge21" class="edge">
<title>vibration&#45;&gt;err_error4</title>
<path fill="none" stroke="black" stroke-width="1.2" d="M761.3,-227.08C772.05,-225.26 783.39,-223.45 794,-222 886.89,-209.28 995.79,-199.34 1058.46,-194.1"/>
<polygon fill="black" stroke="black" stroke-width="1.2" points="760.49,-223.67 751.23,-228.82 761.68,-230.57 760.49,-223.67"/>
<polygon fill="black" stroke="black" stroke-width="1.2" points="1058.8,-197.58 1068.48,-193.27 1058.23,-190.61 1058.8,-197.58"/>
</g>
<!-- vibration&#45;&gt;err_error5 -->
<g id="edge22" class="edge">
<title>vibration&#45;&gt;err_error5</title>
<path fill="none" stroke="black" stroke-width="1.2" d="M662.81,-241.17C571.16,-251.01 372.49,-272.33 278.19,-282.45"/>
<polygon fill="black" stroke="black" stroke-width="1.2" points="663.35,-244.63 672.92,-240.09 662.6,-237.67 663.35,-244.63"/>
<polygon fill="black" stroke="black" stroke-width="1.2" points="277.8,-278.97 268.23,-283.52 278.54,-285.93 277.8,-278.97"/>
</g>
<!-- mnt_comp1 -->
<g id="node10" class="node">
<title>mnt_comp1</title>
<path fill="white" stroke="black" d="M1282,-254C1282,-254 1208,-254 1208,-254 1202,-254 1196,-248 1196,-242 1196,-242 1196,-230 1196,-230 1196,-224 1202,-218 1208,-218 1208,-218 1282,-218 1282,-218 1288,-218 1294,-224 1294,-230 1294,-230 1294,-242 1294,-242 1294,-248 1288,-254 1282,-254"/>
<text text-anchor="middle" x="1245" y="-232.3" font-family="Helvetica,sans-Serif" font-size="14.00">mnt_comp1</text>
</g>
<!-- vibration&#45;&gt;mnt_comp1 -->
<g id="edge23" class="edge">
<title>vibration&#45;&gt;mnt_comp1</title>
<path fill="none" stroke="black" stroke-width="1.2" d="M761.41,-236C859.18,-236 1079.86,-236 1185.5,-236"/>
<polygon fill="black" stroke="black" stroke-width="1.2" points="761.19,-232.5 751.19,-236 761.19,-239.5 761.19,-232.5"/>
<polygon fill="black" stroke="black" stroke-width="1.2" points="1185.66,-239.5 1195.66,-236 1185.66,-232.5 1185.66,-239.5"/>
</g>
<!-- fail_comp2 -->
<g id="node14" class="node">
<title>fail_comp2</title>
<path fill="white" stroke="black" d="M877,-468C877,-468 809,-468 809,-468 803,-468 797,-462 797,-456 797,-456 797,-444 797,-444 797,-438 803,-432 809,-432 809,-432 877,-432 877,-432 883,-432 889,-438 889,-444 889,-444 889,-456 889,-456 889,-462 883,-468 877,-468"/>
<text text-anchor="middle" x="843" y="-446.3" font-family="Helvetica,sans-Serif" font-size="14.00">fail_comp2</text>
</g>
<!-- vibration&#45;&gt;fail_comp2 -->
<g id="edge25" class="edge">
<title>vibration&#45;&gt;fail_comp2</title>
<path fill="none" stroke="black" stroke-width="1.2" d="M724.74,-263.73C746.5,-315.02 791.14,-419.83 794,-423 794.74,-423.82 795.5,-424.61 796.3,-425.39"/>
<polygon fill="black" stroke="black" stroke-width="1.2" points="727.84,-262.07 720.71,-254.23 721.39,-264.8 727.84,-262.07"/>
<polygon fill="black" stroke="black" stroke-width="1.2" points="794.13,-428.14 804.04,-431.9 798.63,-422.78 794.13,-428.14"/>
</g>
<!-- err_error1&#45;&gt;pressure -->
<g id="edge12" class="edge">
<title>err_error1&#45;&gt;pressure</title>
<path fill="none" stroke="black" stroke-width="1.2" d="M800.43,-127.59C761.3,-142.24 703.27,-168.98 666,-209 629.48,-248.22 608.79,-308.67 599.19,-343.88"/>
<polygon fill="black" stroke="black" stroke-width="1.2" points="595.7,-343.39 596.56,-353.95 602.47,-345.16 595.7,-343.39"/>
</g>
<!-- err_error1&#45;&gt;err_error5 -->
<g id="edge26" class="edge">
<title>err_error1&#45;&gt;err_error5</title>
<path fill="none" stroke="black" stroke-width="1.2" d="M800.47,-119.4C764.64,-124.4 711.6,-132.63 666,-143 522.21,-175.72 358.69,-236.05 277.64,-267.59"/>
<polygon fill="black" stroke="black" stroke-width="1.2" points="276.21,-264.39 268.17,-271.29 278.76,-270.91 276.21,-264.39"/>
</g>
<!-- err_error2 -->
<g id="node6" class="node">
<title>err_error2</title>
<path fill="white" stroke="black" d="M1275.5,-552C1275.5,-552 1214.5,-552 1214.5,-552 1208.5,-552 1202.5,-546 1202.5,-540 1202.5,-540 1202.5,-528 1202.5,-528 1202.5,-522 1208.5,-516 1214.5,-516 1214.5,-516 1275.5,-516 1275.5,-516 1281.5,-516 1287.5,-522 1287.5,-528 1287.5,-528 1287.5,-540 1287.5,-540 1287.5,-546 1281.5,-552 1275.5,-552"/>
<text text-anchor="middle" x="1245" y="-530.3" font-family="Helvetica,sans-Serif" font-size="14.00">err_error2</text>
</g>
<!-- err_error2&#45;&gt;vibration -->
<g id="edge19" class="edge">
<title>err_error2&#45;&gt;vibration</title>
<path fill="none" stroke="black" stroke-width="1.2" d="M1207.06,-515.9C1129.19,-477.35 943.06,-383.21 794,-292 777.79,-282.08 760.38,-270.21 745.87,-259.96"/>
<polygon fill="black" stroke="black" stroke-width="1.2" points="747.87,-257.09 737.7,-254.14 743.81,-262.79 747.87,-257.09"/>
</g>
<!-- err_error2&#45;&gt;err_error5 -->
<g id="edge28" class="edge">
<title>err_error2&#45;&gt;err_error5</title>
<path fill="none" stroke="black" stroke-width="1.2" d="M1211.72,-558.02C1163.5,-591.47 1068.58,-648 978,-648 590.5,-648 590.5,-648 590.5,-648 401.55,-648 275.41,-399.76 238.05,-315.55"/>
<polygon fill="black" stroke="black" stroke-width="1.2" points="1214.02,-560.69 1220.17,-552.06 1209.99,-554.97 1214.02,-560.69"/>
<polygon fill="black" stroke="black" stroke-width="1.2" points="241.24,-314.11 234.04,-306.35 234.83,-316.91 241.24,-314.11"/>
</g>
<!-- err_error3&#45;&gt;rotate -->
<g id="edge9" class="edge">
<title>err_error3&#45;&gt;rotate</title>
<path fill="none" stroke="black" stroke-width="1.2" d="M303.73,-360.98C270.06,-351.25 222.07,-335.45 183,-315 171.41,-308.93 159.57,-300.94 149.31,-293.32"/>
<polygon fill="black" stroke="black" stroke-width="1.2" points="151.17,-290.34 141.1,-287.06 146.93,-295.91 151.17,-290.34"/>
</g>
<!-- err_error3&#45;&gt;pressure -->
<g id="edge13" class="edge">
<title>err_error3&#45;&gt;pressure</title>
<path fill="none" stroke="black" stroke-width="1.2" d="M389.3,-375.83C400.85,-376.73 413.4,-377.55 425,-378 465.86,-379.58 476.15,-379.66 517,-378 525.28,-377.66 534.06,-377.11 542.57,-376.48"/>
<polygon fill="black" stroke="black" stroke-width="1.2" points="543.07,-379.95 552.77,-375.67 542.52,-372.97 543.07,-379.95"/>
</g>
<!-- err_error3&#45;&gt;vibration -->
<g id="edge20" class="edge">
<title>err_error3&#45;&gt;vibration</title>
<path fill="none" stroke="black" stroke-width="1.2" d="M389.07,-361.04C444.93,-345.73 546.84,-315.77 630,-280 644.09,-273.94 658.99,-266.24 672.12,-258.99"/>
<polygon fill="black" stroke="black" stroke-width="1.2" points="673.88,-262.02 680.89,-254.07 670.45,-255.91 673.88,-262.02"/>
</g>
<!-- err_error3&#45;&gt;err_error2 -->
<g id="edge27" class="edge">
<title>err_error3&#45;&gt;err_error2</title>
<path fill="none" stroke="black" stroke-width="1.2" d="M357.73,-390.1C387.03,-439.33 476.58,-572 590.5,-572 590.5,-572 590.5,-572 978,-572 1053.16,-572 1139.08,-556.95 1192.44,-545.79"/>
<polygon fill="black" stroke="black" stroke-width="1.2" points="1193.28,-549.19 1202.34,-543.69 1191.83,-542.34 1193.28,-549.19"/>
</g>
<!-- fail_comp4 -->
<g id="node16" class="node">
<title>fail_comp4</title>
<path fill="white" stroke="black" d="M505,-468C505,-468 437,-468 437,-468 431,-468 425,-462 425,-456 425,-456 425,-444 425,-444 425,-438 431,-432 437,-432 437,-432 505,-432 505,-432 511,-432 517,-438 517,-444 517,-444 517,-456 517,-456 517,-462 511,-468 505,-468"/>
<text text-anchor="middle" x="471" y="-446.3" font-family="Helvetica,sans-Serif" font-size="14.00">fail_comp4</text>
</g>
<!-- err_error3&#45;&gt;fail_comp4 -->
<g id="edge33" class="edge">
<title>err_error3&#45;&gt;fail_comp4</title>
<path fill="none" stroke="black" stroke-width="1.2" d="M375.91,-390.09C392.8,-400.84 414.41,-414.6 432.66,-426.23"/>
<polygon fill="black" stroke="black" stroke-width="1.2" points="431,-429.32 441.32,-431.74 434.76,-423.41 431,-429.32"/>
</g>
<!-- err_error4&#45;&gt;err_error3 -->
<g id="edge31" class="edge">
<title>err_error4&#45;&gt;err_error3</title>
<path fill="none" stroke="black" stroke-width="1.2" d="M1068.2,-186.28C988.54,-180.4 810.09,-173.01 666,-209 551.95,-237.49 527.21,-259.93 425,-318 409.41,-326.85 393.01,-337.99 379.32,-347.85"/>
<polygon fill="black" stroke="black" stroke-width="1.2" points="377.2,-345.07 371.19,-353.79 381.33,-350.72 377.2,-345.07"/>
</g>
<!-- err_error4&#45;&gt;err_error5 -->
<g id="edge34" class="edge">
<title>err_error4&#45;&gt;err_error5</title>
<path fill="none" stroke="black" stroke-width="1.2" d="M1073.48,-166.54C1031.59,-141.14 959.92,-102.24 892,-87 849.5,-77.47 837.22,-81.64 794,-87 783.78,-88.27 433.61,-151.96 304,-226 285.99,-236.29 267.78,-250.61 253.54,-262.9"/>
<polygon fill="black" stroke="black" stroke-width="1.2" points="1071.85,-169.64 1082.2,-171.89 1075.51,-163.68 1071.85,-169.64"/>
<polygon fill="black" stroke="black" stroke-width="1.2" points="250.84,-260.61 245.65,-269.85 255.47,-265.87 250.84,-260.61"/>
</g>
<!-- err_error4&#45;&gt;mnt_comp1 -->
<g id="edge35" class="edge">
<title>err_error4&#45;&gt;mnt_comp1</title>
<path fill="none" stroke="black" stroke-width="1.2" d="M1163.33,-207.89C1170.79,-210.49 1178.52,-213.18 1186.1,-215.82"/>
<polygon fill="black" stroke="black" stroke-width="1.2" points="1164.36,-204.54 1153.77,-204.55 1162.06,-211.15 1164.36,-204.54"/>
<polygon fill="black" stroke="black" stroke-width="1.2" points="1185,-219.15 1195.6,-219.13 1187.31,-212.54 1185,-219.15"/>
</g>
<!-- err_error5&#45;&gt;err_error3 -->
<g id="edge32" class="edge">
<title>err_error5&#45;&gt;err_error3</title>
<path fill="none" stroke="black" stroke-width="1.2" d="M252.03,-306.02C269.32,-318.23 292.37,-334.5 311.26,-347.83"/>
<polygon fill="black" stroke="black" stroke-width="1.2" points="309.42,-350.81 319.6,-353.72 313.45,-345.09 309.42,-350.81"/>
</g>
<!-- mnt_comp2 -->
<g id="node11" class="node">
<title>mnt_comp2</title>
<path fill="white" stroke="black" d="M1014,-338C1014,-338 940,-338 940,-338 934,-338 928,-332 928,-326 928,-326 928,-314 928,-314 928,-308 934,-302 940,-302 940,-302 1014,-302 1014,-302 1020,-302 1026,-308 1026,-314 1026,-314 1026,-326 1026,-326 1026,-332 1020,-338 1014,-338"/>
<text text-anchor="middle" x="977" y="-316.3" font-family="Helvetica,sans-Serif" font-size="14.00">mnt_comp2</text>
</g>
<!-- mnt_comp1&#45;&gt;mnt_comp2 -->
<g id="edge38" class="edge">
<title>mnt_comp1&#45;&gt;mnt_comp2</title>
<path fill="none" stroke="black" stroke-width="1.2" d="M1195.69,-251.02C1158.99,-262.46 1107.29,-278.63 1062,-293 1053.62,-295.66 1044.77,-298.48 1036.09,-301.26"/>
<polygon fill="black" stroke="black" stroke-width="1.2" points="1034.85,-297.99 1026.4,-304.38 1036.99,-304.65 1034.85,-297.99"/>
</g>
<!-- mnt_comp2&#45;&gt;vibration -->
<g id="edge24" class="edge">
<title>mnt_comp2&#45;&gt;vibration</title>
<path fill="none" stroke="black" stroke-width="1.2" d="M927.89,-304.63C880.44,-289.48 808.35,-266.45 760.96,-251.32"/>
<polygon fill="black" stroke="black" stroke-width="1.2" points="761.83,-247.92 751.24,-248.21 759.7,-254.59 761.83,-247.92"/>
</g>
<!-- mnt_comp2&#45;&gt;err_error4 -->
<g id="edge36" class="edge">
<title>mnt_comp2&#45;&gt;err_error4</title>
<path fill="none" stroke="black" stroke-width="1.2" d="M1007.88,-301.93C1014.1,-297.66 1020.45,-292.92 1026,-288 1050.62,-266.19 1074.62,-237.17 1090.62,-216.38"/>
<polygon fill="black" stroke="black" stroke-width="1.2" points="1093.5,-218.38 1096.76,-208.3 1087.92,-214.15 1093.5,-218.38"/>
</g>
<!-- mnt_comp4 -->
<g id="node13" class="node">
<title>mnt_comp4</title>
<path fill="white" stroke="black" d="M1148,-338C1148,-338 1074,-338 1074,-338 1068,-338 1062,-332 1062,-326 1062,-326 1062,-314 1062,-314 1062,-308 1068,-302 1074,-302 1074,-302 1148,-302 1148,-302 1154,-302 1160,-308 1160,-314 1160,-314 1160,-326 1160,-326 1160,-332 1154,-338 1148,-338"/>
<text text-anchor="middle" x="1111" y="-316.3" font-family="Helvetica,sans-Serif" font-size="14.00">mnt_comp4</text>
</g>
<!-- mnt_comp2&#45;&gt;mnt_comp4 -->
<g id="edge39" class="edge">
<title>mnt_comp2&#45;&gt;mnt_comp4</title>
<path fill="none" stroke="black" stroke-width="1.2" d="M1026.03,-320C1034.31,-320 1043,-320 1051.52,-320"/>
<polygon fill="black" stroke="black" stroke-width="1.2" points="1051.79,-323.5 1061.79,-320 1051.79,-316.5 1051.79,-323.5"/>
</g>
<!-- mnt_comp3 -->
<g id="node12" class="node">
<title>mnt_comp3</title>
<path fill="white" stroke="black" d="M880,-414C880,-414 806,-414 806,-414 800,-414 794,-408 794,-402 794,-402 794,-390 794,-390 794,-384 800,-378 806,-378 806,-378 880,-378 880,-378 886,-378 892,-384 892,-390 892,-390 892,-402 892,-402 892,-408 886,-414 880,-414"/>
<text text-anchor="middle" x="843" y="-392.3" font-family="Helvetica,sans-Serif" font-size="14.00">mnt_comp3</text>
</g>
<!-- mnt_comp4&#45;&gt;err_error2 -->
<g id="edge29" class="edge">
<title>mnt_comp4&#45;&gt;err_error2</title>
<path fill="none" stroke="black" stroke-width="1.2" d="M1144.48,-338.05C1150.11,-342.14 1155.57,-346.82 1160,-352 1200.01,-398.77 1224.83,-467.79 1236.35,-505.99"/>
<polygon fill="black" stroke="black" stroke-width="1.2" points="1233.09,-507.29 1239.25,-515.9 1239.8,-505.32 1233.09,-507.29"/>
</g>
<!-- fail_comp2&#45;&gt;volt -->
<g id="edge7" class="edge">
<title>fail_comp2&#45;&gt;volt</title>
<path fill="none" stroke="black" stroke-width="1.2" d="M827.52,-468.04C792.17,-509.89 696.7,-610 592.5,-610 224.5,-610 224.5,-610 224.5,-610 56.34,-610 32.03,-324.31 28.56,-232.23"/>
<polygon fill="black" stroke="black" stroke-width="1.2" points="32.06,-232.12 28.24,-222.23 25.06,-232.34 32.06,-232.12"/>
</g>
<!-- fail_comp2&#45;&gt;pressure -->
<g id="edge15" class="edge">
<title>fail_comp2&#45;&gt;pressure</title>
<path fill="none" stroke="black" stroke-width="1.2" d="M796.65,-436.82C761.02,-426.36 710.21,-411.17 666,-397 657.51,-394.28 648.51,-391.3 639.82,-388.37"/>
<polygon fill="black" stroke="black" stroke-width="1.2" points="640.78,-385 630.18,-385.1 638.53,-391.63 640.78,-385"/>
</g>
<!-- fail_comp2&#45;&gt;mnt_comp2 -->
<g id="edge40" class="edge">
<title>fail_comp2&#45;&gt;mnt_comp2</title>
<path fill="none" stroke="black" stroke-width="1.2" d="M879.62,-431.99C883.96,-429.22 888.2,-426.2 892,-423 918.65,-400.57 943.08,-368.78 958.64,-346.46"/>
<polygon fill="black" stroke="black" stroke-width="1.2" points="961.59,-348.35 964.35,-338.12 955.82,-344.4 961.59,-348.35"/>
</g>
<!-- fail_comp2&#45;&gt;fail_comp4 -->
<g id="edge43" class="edge">
<title>fail_comp2&#45;&gt;fail_comp4</title>
<path fill="none" stroke="black" stroke-width="1.2" d="M796.84,-450C729.09,-450 601.29,-450 527.8,-450"/>
<polygon fill="black" stroke="black" stroke-width="1.2" points="527.37,-446.5 517.37,-450 527.37,-453.5 527.37,-446.5"/>
</g>
<!-- fail_comp3&#45;&gt;mnt_comp3 -->
<g id="edge41" class="edge">
<title>fail_comp3&#45;&gt;mnt_comp3</title>
<path fill="none" stroke="black" stroke-width="1.2" d="M758.12,-379.09C766.37,-380.76 775.09,-382.51 783.66,-384.24"/>
<polygon fill="black" stroke="black" stroke-width="1.2" points="783.12,-387.7 793.62,-386.25 784.5,-380.84 783.12,-387.7"/>
</g>
<!-- fail_comp4&#45;&gt;pressure -->
<g id="edge17" class="edge">
<title>fail_comp4&#45;&gt;pressure</title>
<path fill="none" stroke="black" stroke-width="1.2" d="M499.48,-431.91C515.82,-421.16 536.73,-407.4 554.38,-395.77"/>
<polygon fill="black" stroke="black" stroke-width="1.2" points="556.33,-398.68 562.75,-390.26 552.48,-392.84 556.33,-398.68"/>
</g>
<!-- fail_comp4&#45;&gt;err_error2 -->
<g id="edge30" class="edge">
<title>fail_comp4&#45;&gt;err_error2</title>
<path fill="none" stroke="black" stroke-width="1.2" d="M500.33,-468.18C515.48,-477.26 534.73,-487.82 553,-495 620.32,-521.46 638.67,-534 711,-534 711,-534 711,-534 978,-534 1052.25,-534 1138.16,-534 1191.79,-534"/>
<polygon fill="black" stroke="black" stroke-width="1.2" points="1192.08,-537.5 1202.08,-534 1192.08,-530.5 1192.08,-537.5"/>
</g>
<!-- fail_comp4&#45;&gt;err_error5 -->
<g id="edge37" class="edge">
<title>fail_comp4&#45;&gt;err_error5</title>
<path fill="none" stroke="black" stroke-width="1.2" d="M424.83,-444.33C389.24,-438.04 339.82,-425.1 304,-399 274.19,-377.28 251.8,-340.47 238.94,-315.24"/>
<polygon fill="black" stroke="black" stroke-width="1.2" points="242.04,-313.61 234.48,-306.19 235.76,-316.71 242.04,-313.61"/>
</g>
<!-- fail_comp4&#45;&gt;mnt_comp4 -->
<g id="edge42" class="edge">
<title>fail_comp4&#45;&gt;mnt_comp4</title>
<path fill="none" stroke="black" stroke-width="1.2" d="M517.32,-464.05C565.02,-477.58 642.55,-496 711,-496 711,-496 711,-496 844,-496 951.31,-496 1048.58,-395.15 1089.52,-346.13"/>
<polygon fill="black" stroke="black" stroke-width="1.2" points="1092.41,-348.12 1096.05,-338.17 1087,-343.68 1092.41,-348.12"/>
</g>
</g>
</svg>
