<?xml version="1.0" encoding="UTF-8" standalone="no"?>
<!DOCTYPE svg PUBLIC "-//W3C//DTD SVG 1.1//EN"
 "http://www.w3.org/Graphics/SVG/1.1/DTD/svg11.dtd">
<!-- Generated by graphviz version 2.50.0 (0)
 -->
<!-- Title: G Pages: 1 -->
<svg width="502pt" height="556pt"
 viewBox="0.00 0.00 502.00 556.00" xmlns="http://www.w3.org/2000/svg" xmlns:xlink="http://www.w3.org/1999/xlink">
<g id="graph0" class="graph" transform="scale(1 1) rotate(0) translate(4 552)">
<title>G</title>
<polygon fill="white" stroke="transparent" points="-4,4 -4,-552 498,-552 498,4 -4,4"/>
<text text-anchor="middle" x="247" y="-531.2" font-family="Times,serif" font-size="16.00">model=model4/cbnb_w_mixed.json [aggregate]</text>
<!-- err_error1 -->
<g id="node1" class="node">
<title>err_error1</title>
<path fill="white" stroke="black" d="M79.5,-36C79.5,-36 18.5,-36 18.5,-36 12.5,-36 6.5,-30 6.5,-24 6.5,-24 6.5,-12 6.5,-12 6.5,-6 12.5,0 18.5,0 18.5,0 79.5,0 79.5,0 85.5,0 91.5,-6 91.5,-12 91.5,-12 91.5,-24 91.5,-24 91.5,-30 85.5,-36 79.5,-36"/>
<text text-anchor="middle" x="49" y="-14.3" font-family="Helvetica,sans-Serif" font-size="14.00">err_error1</text>
</g>
<!-- err_error2 -->
<g id="node2" class="node">
<title>err_error2</title>
<path fill="white" stroke="black" d="M79.5,-90C79.5,-90 18.5,-90 18.5,-90 12.5,-90 6.5,-84 6.5,-78 6.5,-78 6.5,-66 6.5,-66 6.5,-60 12.5,-54 18.5,-54 18.5,-54 79.5,-54 79.5,-54 85.5,-54 91.5,-60 91.5,-66 91.5,-66 91.5,-78 91.5,-78 91.5,-84 85.5,-90 79.5,-90"/>
<text text-anchor="middle" x="49" y="-68.3" font-family="Helvetica,sans-Serif" font-size="14.00">err_error2</text>
</g>
<!-- err_error3 -->
<g id="node3" class="node">
<title>err_error3</title>
<path fill="white" stroke="black" d="M79.5,-198C79.5,-198 18.5,-198 18.5,-198 12.5,-198 6.5,-192 6.5,-186 6.5,-186 6.5,-174 6.5,-174 6.5,-168 12.5,-162 18.5,-162 18.5,-162 79.5,-162 79.5,-162 85.5,-162 91.5,-168 91.5,-174 91.5,-174 91.5,-186 91.5,-186 91.5,-192 85.5,-198 79.5,-198"/>
<text text-anchor="middle" x="49" y="-176.3" font-family="Helvetica,sans-Serif" font-size="14.00">err_error3</text>
</g>
<!-- rotate -->
<g id="node14" class="node">
<title>rotate</title>
<path fill="white" stroke="black" d="M199.5,-171C199.5,-171 166.5,-171 166.5,-171 160.5,-171 154.5,-165 154.5,-159 154.5,-159 154.5,-147 154.5,-147 154.5,-141 160.5,-135 166.5,-135 166.5,-135 199.5,-135 199.5,-135 205.5,-135 211.5,-141 211.5,-147 211.5,-147 211.5,-159 211.5,-159 211.5,-165 205.5,-171 199.5,-171"/>
<text text-anchor="middle" x="183" y="-149.3" font-family="Helvetica,sans-Serif" font-size="14.00">rotate</text>
</g>
<!-- err_error3&#45;&gt;rotate -->
<g id="edge1" class="edge">
<title>err_error3&#45;&gt;rotate</title>
<path fill="none" stroke="black" stroke-width="1.2" d="M91.77,-171.46C108.65,-168 128,-164.05 144.44,-160.68"/>
<polygon fill="black" stroke="black" stroke-width="1.2" points="145.15,-164.11 154.25,-158.68 143.75,-157.25 145.15,-164.11"/>
</g>
<!-- err_error4 -->
<g id="node4" class="node">
<title>err_error4</title>
<path fill="white" stroke="black" d="M475.5,-144C475.5,-144 414.5,-144 414.5,-144 408.5,-144 402.5,-138 402.5,-132 402.5,-132 402.5,-120 402.5,-120 402.5,-114 408.5,-108 414.5,-108 414.5,-108 475.5,-108 475.5,-108 481.5,-108 487.5,-114 487.5,-120 487.5,-120 487.5,-132 487.5,-132 487.5,-138 481.5,-144 475.5,-144"/>
<text text-anchor="middle" x="445" y="-122.3" font-family="Helvetica,sans-Serif" font-size="14.00">err_error4</text>
</g>
<!-- err_error5 -->
<g id="node5" class="node">
<title>err_error5</title>
<path fill="white" stroke="black" d="M79.5,-252C79.5,-252 18.5,-252 18.5,-252 12.5,-252 6.5,-246 6.5,-240 6.5,-240 6.5,-228 6.5,-228 6.5,-222 12.5,-216 18.5,-216 18.5,-216 79.5,-216 79.5,-216 85.5,-216 91.5,-222 91.5,-228 91.5,-228 91.5,-240 91.5,-240 91.5,-246 85.5,-252 79.5,-252"/>
<text text-anchor="middle" x="49" y="-230.3" font-family="Helvetica,sans-Serif" font-size="14.00">err_error5</text>
</g>
<!-- fail_comp1 -->
<g id="node6" class="node">
<title>fail_comp1</title>
<path fill="white" stroke="black" d="M83,-306C83,-306 15,-306 15,-306 9,-306 3,-300 3,-294 3,-294 3,-282 3,-282 3,-276 9,-270 15,-270 15,-270 83,-270 83,-270 89,-270 95,-276 95,-282 95,-282 95,-294 95,-294 95,-300 89,-306 83,-306"/>
<text text-anchor="middle" x="49" y="-284.3" font-family="Helvetica,sans-Serif" font-size="14.00">fail_comp1</text>
</g>
<!-- mnt_comp1 -->
<g id="node9" class="node">
<title>mnt_comp1</title>
<path fill="white" stroke="black" d="M220,-306C220,-306 146,-306 146,-306 140,-306 134,-300 134,-294 134,-294 134,-282 134,-282 134,-276 140,-270 146,-270 146,-270 220,-270 220,-270 226,-270 232,-276 232,-282 232,-282 232,-294 232,-294 232,-300 226,-306 220,-306"/>
<text text-anchor="middle" x="183" y="-284.3" font-family="Helvetica,sans-Serif" font-size="14.00">mnt_comp1</text>
</g>
<!-- fail_comp1&#45;&gt;mnt_comp1 -->
<g id="edge3" class="edge">
<title>fail_comp1&#45;&gt;mnt_comp1</title>
<path fill="none" stroke="black" stroke-width="1.2" d="M95.06,-288C104.27,-288 114.09,-288 123.7,-288"/>
<polygon fill="black" stroke="black" stroke-width="1.2" points="123.99,-291.5 133.99,-288 123.99,-284.5 123.99,-291.5"/>
</g>
<!-- fail_comp2 -->
<g id="node7" class="node">
<title>fail_comp2</title>
<path fill="white" stroke="black" d="M348,-198C348,-198 280,-198 280,-198 274,-198 268,-192 268,-186 268,-186 268,-174 268,-174 268,-168 274,-162 280,-162 280,-162 348,-162 348,-162 354,-162 360,-168 360,-174 360,-174 360,-186 360,-186 360,-192 354,-198 348,-198"/>
<text text-anchor="middle" x="314" y="-176.3" font-family="Helvetica,sans-Serif" font-size="14.00">fail_comp2</text>
</g>
<!-- mnt_comp2 -->
<g id="node10" class="node">
<title>mnt_comp2</title>
<path fill="white" stroke="black" d="M482,-198C482,-198 408,-198 408,-198 402,-198 396,-192 396,-186 396,-186 396,-174 396,-174 396,-168 402,-162 408,-162 408,-162 482,-162 482,-162 488,-162 494,-168 494,-174 494,-174 494,-186 494,-186 494,-192 488,-198 482,-198"/>
<text text-anchor="middle" x="445" y="-176.3" font-family="Helvetica,sans-Serif" font-size="14.00">mnt_comp2</text>
</g>
<!-- fail_comp2&#45;&gt;mnt_comp2 -->
<g id="edge4" class="edge">
<title>fail_comp2&#45;&gt;mnt_comp2</title>
<path fill="none" stroke="black" stroke-width="1.2" d="M360.12,-180C368.28,-180 376.9,-180 385.38,-180"/>
<polygon fill="black" stroke="black" stroke-width="1.2" points="385.62,-183.5 395.62,-180 385.62,-176.5 385.62,-183.5"/>
</g>
<!-- fail_comp4 -->
<g id="node8" class="node">
<title>fail_comp4</title>
<path fill="white" stroke="black" d="M83,-360C83,-360 15,-360 15,-360 9,-360 3,-354 3,-348 3,-348 3,-336 3,-336 3,-330 9,-324 15,-324 15,-324 83,-324 83,-324 89,-324 95,-330 95,-336 95,-336 95,-348 95,-348 95,-354 89,-360 83,-360"/>
<text text-anchor="middle" x="49" y="-338.3" font-family="Helvetica,sans-Serif" font-size="14.00">fail_comp4</text>
</g>
<!-- mnt_comp3 -->
<g id="node11" class="node">
<title>mnt_comp3</title>
<path fill="white" stroke="black" d="M86,-414C86,-414 12,-414 12,-414 6,-414 0,-408 0,-402 0,-402 0,-390 0,-390 0,-384 6,-378 12,-378 12,-378 86,-378 86,-378 92,-378 98,-384 98,-390 98,-390 98,-402 98,-402 98,-408 92,-414 86,-414"/>
<text text-anchor="middle" x="49" y="-392.3" font-family="Helvetica,sans-Serif" font-size="14.00">mnt_comp3</text>
</g>
<!-- mnt_comp4 -->
<g id="node12" class="node">
<title>mnt_comp4</title>
<path fill="white" stroke="black" d="M86,-468C86,-468 12,-468 12,-468 6,-468 0,-462 0,-456 0,-456 0,-444 0,-444 0,-438 6,-432 12,-432 12,-432 86,-432 86,-432 92,-432 98,-438 98,-444 98,-444 98,-456 98,-456 98,-462 92,-468 86,-468"/>
<text text-anchor="middle" x="49" y="-446.3" font-family="Helvetica,sans-Serif" font-size="14.00">mnt_comp4</text>
</g>
<!-- pressure -->
<g id="node13" class="node">
<title>pressure</title>
<path fill="white" stroke="black" d="M75.5,-522C75.5,-522 22.5,-522 22.5,-522 16.5,-522 10.5,-516 10.5,-510 10.5,-510 10.5,-498 10.5,-498 10.5,-492 16.5,-486 22.5,-486 22.5,-486 75.5,-486 75.5,-486 81.5,-486 87.5,-492 87.5,-498 87.5,-498 87.5,-510 87.5,-510 87.5,-516 81.5,-522 75.5,-522"/>
<text text-anchor="middle" x="49" y="-500.3" font-family="Helvetica,sans-Serif" font-size="14.00">pressure</text>
</g>
<!-- rotate&#45;&gt;fail_comp2 -->
<g id="edge5" class="edge">
<title>rotate&#45;&gt;fail_comp2</title>
<path fill="none" stroke="black" stroke-width="1.2" d="M211.67,-158.79C225.22,-161.63 242.03,-165.15 258.04,-168.5"/>
<polygon fill="black" stroke="black" stroke-width="1.2" points="257.36,-171.93 267.87,-170.55 258.8,-165.08 257.36,-171.93"/>
</g>
<!-- volt -->
<g id="node16" class="node">
<title>volt</title>
<path fill="white" stroke="black" d="M329,-144C329,-144 299,-144 299,-144 293,-144 287,-138 287,-132 287,-132 287,-120 287,-120 287,-114 293,-108 299,-108 299,-108 329,-108 329,-108 335,-108 341,-114 341,-120 341,-120 341,-132 341,-132 341,-138 335,-144 329,-144"/>
<text text-anchor="middle" x="314" y="-122.3" font-family="Helvetica,sans-Serif" font-size="14.00">volt</text>
</g>
<!-- rotate&#45;&gt;volt -->
<g id="edge7" class="edge">
<title>rotate&#45;&gt;volt</title>
<path fill="none" stroke="black" stroke-width="1.2" d="M211.67,-147.21C230.67,-143.23 256.08,-137.91 276.71,-133.6"/>
<polygon fill="black" stroke="black" stroke-width="1.2" points="277.62,-136.98 286.69,-131.51 276.19,-130.13 277.62,-136.98"/>
</g>
<!-- vibration -->
<g id="node15" class="node">
<title>vibration</title>
<path fill="white" stroke="black" d="M76,-144C76,-144 22,-144 22,-144 16,-144 10,-138 10,-132 10,-132 10,-120 10,-120 10,-114 16,-108 22,-108 22,-108 76,-108 76,-108 82,-108 88,-114 88,-120 88,-120 88,-132 88,-132 88,-138 82,-144 76,-144"/>
<text text-anchor="middle" x="49" y="-122.3" font-family="Helvetica,sans-Serif" font-size="14.00">vibration</text>
</g>
<!-- vibration&#45;&gt;rotate -->
<g id="edge6" class="edge">
<title>vibration&#45;&gt;rotate</title>
<path fill="none" stroke="black" stroke-width="1.2" d="M88.18,-133.81C105.87,-137.43 126.83,-141.72 144.45,-145.32"/>
<polygon fill="black" stroke="black" stroke-width="1.2" points="143.89,-148.78 154.39,-147.35 145.29,-141.92 143.89,-148.78"/>
</g>
<!-- volt&#45;&gt;err_error4 -->
<g id="edge2" class="edge">
<title>volt&#45;&gt;err_error4</title>
<path fill="none" stroke="black" stroke-width="1.2" d="M341.11,-126C355.81,-126 374.71,-126 392.29,-126"/>
<polygon fill="black" stroke="black" stroke-width="1.2" points="392.44,-129.5 402.44,-126 392.44,-122.5 392.44,-129.5"/>
</g>
</g>
</svg>
