<?xml version="1.0" encoding="UTF-8" standalone="no"?>
<!DOCTYPE svg PUBLIC "-//W3C//DTD SVG 1.1//EN"
 "http://www.w3.org/Graphics/SVG/1.1/DTD/svg11.dtd">
<!-- Generated by graphviz version 2.50.0 (0)
 -->
<!-- Title: G Pages: 1 -->
<svg width="454pt" height="93pt"
 viewBox="0.00 0.00 454.00 93.00" xmlns="http://www.w3.org/2000/svg" xmlns:xlink="http://www.w3.org/1999/xlink">
<g id="graph0" class="graph" transform="scale(1 1) rotate(0) translate(4 89)">
<title>G</title>
<polygon fill="white" stroke="transparent" points="-4,4 -4,-89 450,-89 450,4 -4,4"/>
<text text-anchor="middle" x="223" y="-68.2" font-family="Times,serif" font-size="16.00">model=model2/cbnb_w_telemetry.json [machine 40]</text>
<!-- volt -->
<g id="node1" class="node">
<title>volt</title>
<path fill="white" stroke="black" d="M171,-36C171,-36 141,-36 141,-36 135,-36 129,-30 129,-24 129,-24 129,-12 129,-12 129,-6 135,0 141,0 141,0 171,0 171,0 177,0 183,-6 183,-12 183,-12 183,-24 183,-24 183,-30 177,-36 171,-36"/>
<text text-anchor="middle" x="156" y="-14.3" font-family="Helvetica,sans-Serif" font-size="14.00">volt</text>
</g>
<!-- vibration -->
<g id="node4" class="node">
<title>vibration</title>
<path fill="white" stroke="black" d="M285,-59C285,-59 231,-59 231,-59 225,-59 219,-53 219,-47 219,-47 219,-35 219,-35 219,-29 225,-23 231,-23 231,-23 285,-23 285,-23 291,-23 297,-29 297,-35 297,-35 297,-47 297,-47 297,-53 291,-59 285,-59"/>
<text text-anchor="middle" x="258" y="-37.3" font-family="Helvetica,sans-Serif" font-size="14.00">vibration</text>
</g>
<!-- volt&#45;&gt;vibration -->
<g id="edge3" class="edge">
<title>volt&#45;&gt;vibration</title>
<path fill="none" stroke="black" stroke-width="1.2" d="M183.01,-23.98C190.92,-25.8 199.87,-27.86 208.75,-29.9"/>
<polygon fill="black" stroke="black" stroke-width="1.2" points="208.15,-33.36 218.68,-32.19 209.72,-26.53 208.15,-33.36"/>
</g>
<!-- rotate -->
<g id="node2" class="node">
<title>rotate</title>
<path fill="white" stroke="black" d="M81,-36C81,-36 48,-36 48,-36 42,-36 36,-30 36,-24 36,-24 36,-12 36,-12 36,-6 42,0 48,0 48,0 81,0 81,0 87,0 93,-6 93,-12 93,-12 93,-24 93,-24 93,-30 87,-36 81,-36"/>
<text text-anchor="middle" x="64.5" y="-14.3" font-family="Helvetica,sans-Serif" font-size="14.00">rotate</text>
</g>
<!-- rotate&#45;&gt;volt -->
<g id="edge1" class="edge">
<title>rotate&#45;&gt;volt</title>
<path fill="none" stroke="black" stroke-width="1.2" d="M93.33,-18C101.35,-18 110.23,-18 118.69,-18"/>
<polygon fill="black" stroke="black" stroke-width="1.2" points="118.72,-21.5 128.72,-18 118.72,-14.5 118.72,-21.5"/>
</g>
<!-- pressure -->
<g id="node3" class="node">
<title>pressure</title>
<path fill="white" stroke="black" d="M398,-36C398,-36 345,-36 345,-36 339,-36 333,-30 333,-24 333,-24 333,-12 333,-12 333,-6 339,0 345,0 345,0 398,0 398,0 404,0 410,-6 410,-12 410,-12 410,-24 410,-24 410,-30 404,-36 398,-36"/>
<text text-anchor="middle" x="371.5" y="-14.3" font-family="Helvetica,sans-Serif" font-size="14.00">pressure</text>
</g>
<!-- pressure&#45;&gt;volt -->
<g id="edge2" class="edge">
<title>pressure&#45;&gt;volt</title>
<path fill="none" stroke="black" stroke-width="1.2" d="M332.75,-15.55C321.27,-14.91 308.62,-14.32 297,-14 262.35,-13.06 253.65,-12.88 219,-14 210.65,-14.27 201.67,-14.74 193.21,-15.27"/>
<polygon fill="black" stroke="black" stroke-width="1.2" points="192.97,-11.78 183.23,-15.93 193.44,-18.76 192.97,-11.78"/>
</g>
<!-- vibration&#45;&gt;pressure -->
<g id="edge4" class="edge">
<title>vibration&#45;&gt;pressure</title>
<path fill="none" stroke="black" stroke-width="1.2" d="M297.06,-33.15C305.4,-31.43 314.34,-29.59 323,-27.8"/>
<polygon fill="black" stroke="black" stroke-width="1.2" points="323.9,-31.19 332.99,-25.74 322.49,-24.33 323.9,-31.19"/>
</g>
</g>
</svg>
