<?xml version="1.0" encoding="UTF-8" standalone="no"?>
<!DOCTYPE svg PUBLIC "-//W3C//DTD SVG 1.1//EN"
 "http://www.w3.org/Graphics/SVG/1.1/DTD/svg11.dtd">
<!-- Generated by graphviz version 2.50.0 (0)
 -->
<!-- Title: G Pages: 1 -->
<svg width="1290pt" height="652pt"
 viewBox="0.00 0.00 1290.00 652.00" xmlns="http://www.w3.org/2000/svg" xmlns:xlink="http://www.w3.org/1999/xlink">
<g id="graph0" class="graph" transform="scale(1 1) rotate(0) translate(4 648)">
<title>G</title>
<polygon fill="white" stroke="transparent" points="-4,4 -4,-648 1286,-648 1286,4 -4,4"/>
<text text-anchor="middle" x="641" y="-627.2" font-family="Times,serif" font-size="16.00">model=model2/cbnb_w_mixed.json [machine 97]</text>
<!-- volt -->
<g id="node1" class="node">
<title>volt</title>
<path fill="white" stroke="black" d="M304,-328C304,-328 274,-328 274,-328 268,-328 262,-322 262,-316 262,-316 262,-304 262,-304 262,-298 268,-292 274,-292 274,-292 304,-292 304,-292 310,-292 316,-298 316,-304 316,-304 316,-316 316,-316 316,-322 310,-328 304,-328"/>
<text text-anchor="middle" x="289" y="-306.3" font-family="Helvetica,sans-Serif" font-size="14.00">volt</text>
</g>
<!-- err_error5 -->
<g id="node9" class="node">
<title>err_error5</title>
<path fill="white" stroke="black" d="M425,-492C425,-492 364,-492 364,-492 358,-492 352,-486 352,-480 352,-480 352,-468 352,-468 352,-462 358,-456 364,-456 364,-456 425,-456 425,-456 431,-456 437,-462 437,-468 437,-468 437,-480 437,-480 437,-486 431,-492 425,-492"/>
<text text-anchor="middle" x="394.5" y="-470.3" font-family="Helvetica,sans-Serif" font-size="14.00">err_error5</text>
</g>
<!-- volt&#45;&gt;err_error5 -->
<g id="edge6" class="edge">
<title>volt&#45;&gt;err_error5</title>
<path fill="none" stroke="black" stroke-width="1.2" d="M295.46,-328.15C304.2,-355.08 323.31,-406.27 352,-442 353.87,-444.33 355.94,-446.58 358.13,-448.75"/>
<polygon fill="black" stroke="black" stroke-width="1.2" points="356.14,-451.67 365.93,-455.73 360.81,-446.45 356.14,-451.67"/>
</g>
<!-- rotate -->
<g id="node2" class="node">
<title>rotate</title>
<path fill="white" stroke="black" d="M518,-324C518,-324 485,-324 485,-324 479,-324 473,-318 473,-312 473,-312 473,-300 473,-300 473,-294 479,-288 485,-288 485,-288 518,-288 518,-288 524,-288 530,-294 530,-300 530,-300 530,-312 530,-312 530,-318 524,-324 518,-324"/>
<text text-anchor="middle" x="501.5" y="-302.3" font-family="Helvetica,sans-Serif" font-size="14.00">rotate</text>
</g>
<!-- err_error3 -->
<g id="node7" class="node">
<title>err_error3</title>
<path fill="white" stroke="black" d="M642.5,-286C642.5,-286 581.5,-286 581.5,-286 575.5,-286 569.5,-280 569.5,-274 569.5,-274 569.5,-262 569.5,-262 569.5,-256 575.5,-250 581.5,-250 581.5,-250 642.5,-250 642.5,-250 648.5,-250 654.5,-256 654.5,-262 654.5,-262 654.5,-274 654.5,-274 654.5,-280 648.5,-286 642.5,-286"/>
<text text-anchor="middle" x="612" y="-264.3" font-family="Helvetica,sans-Serif" font-size="14.00">err_error3</text>
</g>
<!-- rotate&#45;&gt;err_error3 -->
<g id="edge13" class="edge">
<title>rotate&#45;&gt;err_error3</title>
<path fill="none" stroke="black" stroke-width="1.2" d="M539.78,-292.94C546.21,-290.69 552.98,-288.32 559.7,-285.97"/>
<polygon fill="black" stroke="black" stroke-width="1.2" points="538.44,-289.7 530.16,-296.31 540.75,-296.31 538.44,-289.7"/>
<polygon fill="black" stroke="black" stroke-width="1.2" points="561.17,-289.16 569.45,-282.55 558.85,-282.55 561.17,-289.16"/>
</g>
<!-- err_error4 -->
<g id="node8" class="node">
<title>err_error4</title>
<path fill="white" stroke="black" d="M1270,-541C1270,-541 1209,-541 1209,-541 1203,-541 1197,-535 1197,-529 1197,-529 1197,-517 1197,-517 1197,-511 1203,-505 1209,-505 1209,-505 1270,-505 1270,-505 1276,-505 1282,-511 1282,-517 1282,-517 1282,-529 1282,-529 1282,-535 1276,-541 1270,-541"/>
<text text-anchor="middle" x="1239.5" y="-519.3" font-family="Helvetica,sans-Serif" font-size="14.00">err_error4</text>
</g>
<!-- rotate&#45;&gt;err_error4 -->
<g id="edge14" class="edge">
<title>rotate&#45;&gt;err_error4</title>
<path fill="none" stroke="black" stroke-width="1.2" d="M518.06,-333.01C551.51,-387.19 635.92,-504 742,-504 742,-504 742,-504 1005.5,-504 1068.08,-504 1139.8,-510.89 1186.95,-516.37"/>
<polygon fill="black" stroke="black" stroke-width="1.2" points="520.94,-331.02 512.77,-324.27 514.95,-334.64 520.94,-331.02"/>
<polygon fill="black" stroke="black" stroke-width="1.2" points="1186.57,-519.85 1196.91,-517.56 1187.4,-512.9 1186.57,-519.85"/>
</g>
<!-- fail_comp2 -->
<g id="node14" class="node">
<title>fail_comp2</title>
<path fill="white" stroke="black" d="M646,-232C646,-232 578,-232 578,-232 572,-232 566,-226 566,-220 566,-220 566,-208 566,-208 566,-202 572,-196 578,-196 578,-196 646,-196 646,-196 652,-196 658,-202 658,-208 658,-208 658,-220 658,-220 658,-226 652,-232 646,-232"/>
<text text-anchor="middle" x="612" y="-210.3" font-family="Helvetica,sans-Serif" font-size="14.00">fail_comp2</text>
</g>
<!-- rotate&#45;&gt;fail_comp2 -->
<g id="edge17" class="edge">
<title>rotate&#45;&gt;fail_comp2</title>
<path fill="none" stroke="black" stroke-width="1.2" d="M517.84,-287.94C530.06,-274.15 548.05,-255.18 566,-241 567.33,-239.95 568.7,-238.91 570.1,-237.89"/>
<polygon fill="black" stroke="black" stroke-width="1.2" points="572.11,-240.75 578.37,-232.21 568.15,-234.98 572.11,-240.75"/>
</g>
<!-- pressure -->
<g id="node3" class="node">
<title>pressure</title>
<path fill="white" stroke="black" d="M769.5,-324C769.5,-324 716.5,-324 716.5,-324 710.5,-324 704.5,-318 704.5,-312 704.5,-312 704.5,-300 704.5,-300 704.5,-294 710.5,-288 716.5,-288 716.5,-288 769.5,-288 769.5,-288 775.5,-288 781.5,-294 781.5,-300 781.5,-300 781.5,-312 781.5,-312 781.5,-318 775.5,-324 769.5,-324"/>
<text text-anchor="middle" x="743" y="-302.3" font-family="Helvetica,sans-Serif" font-size="14.00">pressure</text>
</g>
<!-- pressure&#45;&gt;volt -->
<g id="edge1" class="edge">
<title>pressure&#45;&gt;volt</title>
<path fill="none" stroke="black" stroke-width="1.2" d="M704.44,-312.79C689.96,-315.26 673.24,-317.96 658,-320 576.3,-330.95 555.26,-338.15 473,-333 421.95,-329.8 363.36,-321.64 326.52,-315.96"/>
<polygon fill="black" stroke="black" stroke-width="1.2" points="326.69,-312.44 316.27,-314.35 325.61,-319.36 326.69,-312.44"/>
</g>
<!-- pressure&#45;&gt;rotate -->
<g id="edge11" class="edge">
<title>pressure&#45;&gt;rotate</title>
<path fill="none" stroke="black" stroke-width="1.2" d="M704.42,-306C659.74,-306 585.59,-306 540.65,-306"/>
<polygon fill="black" stroke="black" stroke-width="1.2" points="540.44,-302.5 530.44,-306 540.44,-309.5 540.44,-302.5"/>
</g>
<!-- mnt_comp2 -->
<g id="node11" class="node">
<title>mnt_comp2</title>
<path fill="white" stroke="black" d="M914,-220C914,-220 840,-220 840,-220 834,-220 828,-214 828,-208 828,-208 828,-196 828,-196 828,-190 834,-184 840,-184 840,-184 914,-184 914,-184 920,-184 926,-190 926,-196 926,-196 926,-208 926,-208 926,-214 920,-220 914,-220"/>
<text text-anchor="middle" x="877" y="-198.3" font-family="Helvetica,sans-Serif" font-size="14.00">mnt_comp2</text>
</g>
<!-- pressure&#45;&gt;mnt_comp2 -->
<g id="edge19" class="edge">
<title>pressure&#45;&gt;mnt_comp2</title>
<path fill="none" stroke="black" stroke-width="1.2" d="M775.03,-281.55C796.06,-264.98 823.76,-243.16 844.82,-226.56"/>
<polygon fill="black" stroke="black" stroke-width="1.2" points="772.68,-278.95 766.99,-287.88 777.01,-284.45 772.68,-278.95"/>
<polygon fill="black" stroke="black" stroke-width="1.2" points="847.14,-229.19 852.83,-220.26 842.81,-223.7 847.14,-229.19"/>
</g>
<!-- vibration -->
<g id="node4" class="node">
<title>vibration</title>
<path fill="white" stroke="black" d="M1149,-389C1149,-389 1095,-389 1095,-389 1089,-389 1083,-383 1083,-377 1083,-377 1083,-365 1083,-365 1083,-359 1089,-353 1095,-353 1095,-353 1149,-353 1149,-353 1155,-353 1161,-359 1161,-365 1161,-365 1161,-377 1161,-377 1161,-383 1155,-389 1149,-389"/>
<text text-anchor="middle" x="1122" y="-367.3" font-family="Helvetica,sans-Serif" font-size="14.00">vibration</text>
</g>
<!-- vibration&#45;&gt;volt -->
<g id="edge2" class="edge">
<title>vibration&#45;&gt;volt</title>
<path fill="none" stroke="black" stroke-width="1.2" d="M1111.4,-389.18C1083.09,-440.03 994.58,-580 878,-580 500.5,-580 500.5,-580 500.5,-580 425.74,-580 400.04,-558.28 352,-501 311.8,-453.06 297.49,-378.47 292.53,-338.15"/>
<polygon fill="black" stroke="black" stroke-width="1.2" points="296.01,-337.76 291.41,-328.21 289.05,-338.54 296.01,-337.76"/>
</g>
<!-- vibration&#45;&gt;rotate -->
<g id="edge12" class="edge">
<title>vibration&#45;&gt;rotate</title>
<path fill="none" stroke="black" stroke-width="1.2" d="M1082.77,-375.84C1034.97,-381.47 950.57,-390 878,-390 742,-390 742,-390 742,-390 666.56,-390 584.91,-352.43 539.09,-327.54"/>
<polygon fill="black" stroke="black" stroke-width="1.2" points="540.59,-324.37 530.15,-322.6 537.2,-330.5 540.59,-324.37"/>
</g>
<!-- vibration&#45;&gt;err_error3 -->
<g id="edge23" class="edge">
<title>vibration&#45;&gt;err_error3</title>
<path fill="none" stroke="black" stroke-width="1.2" d="M1082.68,-370.41C991.52,-368.57 764.08,-361.2 694,-333 672.21,-324.23 651.61,-307.55 636.65,-293.29"/>
<polygon fill="black" stroke="black" stroke-width="1.2" points="638.94,-290.63 629.36,-286.1 634.02,-295.61 638.94,-290.63"/>
</g>
<!-- vibration&#45;&gt;err_error4 -->
<g id="edge24" class="edge">
<title>vibration&#45;&gt;err_error4</title>
<path fill="none" stroke="black" stroke-width="1.2" d="M1136.7,-389.03C1157.02,-415.77 1195.25,-466.08 1218.64,-496.86"/>
<polygon fill="black" stroke="black" stroke-width="1.2" points="1215.98,-499.15 1224.81,-504.99 1221.55,-494.91 1215.98,-499.15"/>
</g>
<!-- vibration&#45;&gt;err_error5 -->
<g id="edge25" class="edge">
<title>vibration&#45;&gt;err_error5</title>
<path fill="none" stroke="black" stroke-width="1.2" d="M1085.62,-394.5C1039.76,-422.63 956.35,-466 878,-466 611,-466 611,-466 611,-466 555.02,-466 490.92,-468.73 447.28,-471"/>
<polygon fill="black" stroke="black" stroke-width="1.2" points="1087.65,-397.36 1094.28,-389.09 1083.94,-391.42 1087.65,-397.36"/>
<polygon fill="black" stroke="black" stroke-width="1.2" points="447,-467.51 437.2,-471.53 447.37,-474.5 447,-467.51"/>
</g>
<!-- err_error1 -->
<g id="node5" class="node">
<title>err_error1</title>
<path fill="white" stroke="black" d="M1035,-220C1035,-220 974,-220 974,-220 968,-220 962,-214 962,-208 962,-208 962,-196 962,-196 962,-190 968,-184 974,-184 974,-184 1035,-184 1035,-184 1041,-184 1047,-190 1047,-196 1047,-196 1047,-208 1047,-208 1047,-214 1041,-220 1035,-220"/>
<text text-anchor="middle" x="1004.5" y="-198.3" font-family="Helvetica,sans-Serif" font-size="14.00">err_error1</text>
</g>
<!-- err_error1&#45;&gt;volt -->
<g id="edge3" class="edge">
<title>err_error1&#45;&gt;volt</title>
<path fill="none" stroke="black" stroke-width="1.2" d="M994.16,-220.11C965.05,-273.74 870.36,-428 744,-428 500.5,-428 500.5,-428 500.5,-428 425.21,-428 351.89,-369.85 314.88,-335.19"/>
<polygon fill="black" stroke="black" stroke-width="1.2" points="317.19,-332.56 307.54,-328.18 312.35,-337.62 317.19,-332.56"/>
</g>
<!-- err_error1&#45;&gt;vibration -->
<g id="edge21" class="edge">
<title>err_error1&#45;&gt;vibration</title>
<path fill="none" stroke="black" stroke-width="1.2" d="M1024.23,-220.03C1031.73,-227.69 1040.18,-236.94 1047,-246 1070.91,-277.76 1093.43,-317.8 1107.21,-343.89"/>
<polygon fill="black" stroke="black" stroke-width="1.2" points="1104.15,-345.58 1111.88,-352.82 1110.35,-342.34 1104.15,-345.58"/>
</g>
<!-- err_error2 -->
<g id="node6" class="node">
<title>err_error2</title>
<path fill="white" stroke="black" d="M773.5,-48C773.5,-48 712.5,-48 712.5,-48 706.5,-48 700.5,-42 700.5,-36 700.5,-36 700.5,-24 700.5,-24 700.5,-18 706.5,-12 712.5,-12 712.5,-12 773.5,-12 773.5,-12 779.5,-12 785.5,-18 785.5,-24 785.5,-24 785.5,-36 785.5,-36 785.5,-42 779.5,-48 773.5,-48"/>
<text text-anchor="middle" x="743" y="-26.3" font-family="Helvetica,sans-Serif" font-size="14.00">err_error2</text>
</g>
<!-- err_error2&#45;&gt;volt -->
<g id="edge4" class="edge">
<title>err_error2&#45;&gt;volt</title>
<path fill="none" stroke="black" stroke-width="1.2" d="M700.28,-30.73C663.61,-32.68 609.47,-38.77 566,-57 456.49,-102.93 433.68,-130.79 352,-217 332.99,-237.07 315.94,-263.59 304.55,-283.18"/>
<polygon fill="black" stroke="black" stroke-width="1.2" points="301.49,-281.49 299.59,-291.91 307.57,-284.95 301.49,-281.49"/>
</g>
<!-- err_error2&#45;&gt;vibration -->
<g id="edge22" class="edge">
<title>err_error2&#45;&gt;vibration</title>
<path fill="none" stroke="black" stroke-width="1.2" d="M785.73,-39.33C850.33,-55.85 974.63,-96.17 1047,-175 1091.58,-223.55 1110.13,-301.59 1117.16,-343.03"/>
<polygon fill="black" stroke="black" stroke-width="1.2" points="1113.71,-343.65 1118.74,-352.98 1120.63,-342.55 1113.71,-343.65"/>
</g>
<!-- err_error3&#45;&gt;pressure -->
<g id="edge18" class="edge">
<title>err_error3&#45;&gt;pressure</title>
<path fill="none" stroke="black" stroke-width="1.2" d="M654.53,-280.23C667.32,-284 681.5,-288.18 694.66,-292.05"/>
<polygon fill="black" stroke="black" stroke-width="1.2" points="693.9,-295.48 704.48,-294.95 695.88,-288.76 693.9,-295.48"/>
</g>
<!-- err_error3&#45;&gt;err_error2 -->
<g id="edge29" class="edge">
<title>err_error3&#45;&gt;err_error2</title>
<path fill="none" stroke="black" stroke-width="1.2" d="M649.73,-249.87C652.86,-247.23 655.7,-244.28 658,-241 705.86,-172.79 645.19,-124.54 694,-57 694.37,-56.49 694.75,-55.99 695.14,-55.5"/>
<polygon fill="black" stroke="black" stroke-width="1.2" points="697.8,-57.79 702.38,-48.24 692.84,-52.85 697.8,-57.79"/>
</g>
<!-- err_error4&#45;&gt;volt -->
<g id="edge5" class="edge">
<title>err_error4&#45;&gt;volt</title>
<path fill="none" stroke="black" stroke-width="1.2" d="M1212.99,-541.09C1171.54,-568.66 1086.1,-618 1005.5,-618 500.5,-618 500.5,-618 500.5,-618 427.72,-618 398.6,-604.9 352,-549 300.33,-487.01 291.13,-386.94 289.87,-338.32"/>
<polygon fill="black" stroke="black" stroke-width="1.2" points="293.37,-338.16 289.71,-328.22 286.37,-338.27 293.37,-338.16"/>
</g>
<!-- err_error5&#45;&gt;rotate -->
<g id="edge15" class="edge">
<title>err_error5&#45;&gt;rotate</title>
<path fill="none" stroke="black" stroke-width="1.2" d="M406.94,-455.7C425.53,-425.96 462.38,-367 483.87,-332.61"/>
<polygon fill="black" stroke="black" stroke-width="1.2" points="486.9,-334.36 489.24,-324.02 480.97,-330.65 486.9,-334.36"/>
</g>
<!-- err_error5&#45;&gt;err_error4 -->
<g id="edge32" class="edge">
<title>err_error5&#45;&gt;err_error4</title>
<path fill="none" stroke="black" stroke-width="1.2" d="M429.91,-492.04C471.59,-512.19 544.5,-542 611,-542 611,-542 611,-542 1005.5,-542 1068.08,-542 1139.8,-535.11 1186.95,-529.63"/>
<polygon fill="black" stroke="black" stroke-width="1.2" points="1187.4,-533.1 1196.91,-528.44 1186.57,-526.15 1187.4,-533.1"/>
</g>
<!-- mnt_comp1 -->
<g id="node10" class="node">
<title>mnt_comp1</title>
<path fill="white" stroke="black" d="M780,-194C780,-194 706,-194 706,-194 700,-194 694,-188 694,-182 694,-182 694,-170 694,-170 694,-164 700,-158 706,-158 706,-158 780,-158 780,-158 786,-158 792,-164 792,-170 792,-170 792,-182 792,-182 792,-188 786,-194 780,-194"/>
<text text-anchor="middle" x="743" y="-172.3" font-family="Helvetica,sans-Serif" font-size="14.00">mnt_comp1</text>
</g>
<!-- mnt_comp1&#45;&gt;volt -->
<g id="edge7" class="edge">
<title>mnt_comp1&#45;&gt;volt</title>
<path fill="none" stroke="black" stroke-width="1.2" d="M693.73,-175.47C658.1,-175.93 608.61,-178.37 566,-187 467.22,-207 440.54,-213.86 352,-262 340.11,-268.46 328.1,-277.15 317.86,-285.35"/>
<polygon fill="black" stroke="black" stroke-width="1.2" points="315.56,-282.71 310.07,-291.78 320.01,-288.12 315.56,-282.71"/>
</g>
<!-- mnt_comp1&#45;&gt;mnt_comp2 -->
<g id="edge33" class="edge">
<title>mnt_comp1&#45;&gt;mnt_comp2</title>
<path fill="none" stroke="black" stroke-width="1.2" d="M792.03,-185.46C800.4,-187.11 809.19,-188.84 817.8,-190.54"/>
<polygon fill="black" stroke="black" stroke-width="1.2" points="817.3,-194 827.79,-192.5 818.65,-187.14 817.3,-194"/>
</g>
<!-- mnt_comp2&#45;&gt;err_error1 -->
<g id="edge27" class="edge">
<title>mnt_comp2&#45;&gt;err_error1</title>
<path fill="none" stroke="black" stroke-width="1.2" d="M926.16,-202C934.52,-202 943.24,-202 951.68,-202"/>
<polygon fill="black" stroke="black" stroke-width="1.2" points="951.81,-205.5 961.81,-202 951.81,-198.5 951.81,-205.5"/>
</g>
<!-- mnt_comp3 -->
<g id="node12" class="node">
<title>mnt_comp3</title>
<path fill="white" stroke="black" d="M214,-240C214,-240 140,-240 140,-240 134,-240 128,-234 128,-228 128,-228 128,-216 128,-216 128,-210 134,-204 140,-204 140,-204 214,-204 214,-204 220,-204 226,-210 226,-216 226,-216 226,-228 226,-228 226,-234 220,-240 214,-240"/>
<text text-anchor="middle" x="177" y="-218.3" font-family="Helvetica,sans-Serif" font-size="14.00">mnt_comp3</text>
</g>
<!-- mnt_comp3&#45;&gt;volt -->
<g id="edge8" class="edge">
<title>mnt_comp3&#45;&gt;volt</title>
<path fill="none" stroke="black" stroke-width="1.2" d="M200.53,-240.02C216.88,-253.1 239.2,-270.96 257.2,-285.36"/>
<polygon fill="black" stroke="black" stroke-width="1.2" points="255.13,-288.19 265.13,-291.7 259.5,-282.72 255.13,-288.19"/>
</g>
<!-- mnt_comp3&#45;&gt;rotate -->
<g id="edge16" class="edge">
<title>mnt_comp3&#45;&gt;rotate</title>
<path fill="none" stroke="black" stroke-width="1.2" d="M226.28,-234.58C290.93,-251.41 404.26,-280.93 462.93,-296.21"/>
<polygon fill="black" stroke="black" stroke-width="1.2" points="462.32,-299.67 472.88,-298.81 464.09,-292.9 462.32,-299.67"/>
</g>
<!-- mnt_comp4 -->
<g id="node13" class="node">
<title>mnt_comp4</title>
<path fill="white" stroke="black" d="M780,-102C780,-102 706,-102 706,-102 700,-102 694,-96 694,-90 694,-90 694,-78 694,-78 694,-72 700,-66 706,-66 706,-66 780,-66 780,-66 786,-66 792,-72 792,-78 792,-78 792,-90 792,-90 792,-96 786,-102 780,-102"/>
<text text-anchor="middle" x="743" y="-80.3" font-family="Helvetica,sans-Serif" font-size="14.00">mnt_comp4</text>
</g>
<!-- mnt_comp4&#45;&gt;err_error1 -->
<g id="edge28" class="edge">
<title>mnt_comp4&#45;&gt;err_error1</title>
<path fill="none" stroke="black" stroke-width="1.2" d="M783.69,-102.05C829.58,-122.91 905.11,-157.26 954.58,-179.76"/>
<polygon fill="black" stroke="black" stroke-width="1.2" points="953.26,-183 963.81,-183.95 956.16,-176.63 953.26,-183"/>
</g>
<!-- mnt_comp4&#45;&gt;mnt_comp2 -->
<g id="edge36" class="edge">
<title>mnt_comp4&#45;&gt;mnt_comp2</title>
<path fill="none" stroke="black" stroke-width="1.2" d="M773.13,-102.01C779.53,-106.34 786.14,-111.14 792,-116 814.29,-134.49 837.09,-158.2 853.3,-176.04"/>
<polygon fill="black" stroke="black" stroke-width="1.2" points="850.98,-178.69 860.26,-183.78 856.18,-174.01 850.98,-178.69"/>
</g>
<!-- fail_comp2&#45;&gt;volt -->
<g id="edge9" class="edge">
<title>fail_comp2&#45;&gt;volt</title>
<path fill="none" stroke="black" stroke-width="1.2" d="M565.86,-227.5C501.51,-246.75 384.69,-281.68 325.87,-299.27"/>
<polygon fill="black" stroke="black" stroke-width="1.2" points="324.85,-295.93 316.27,-302.14 326.85,-302.63 324.85,-295.93"/>
</g>
<!-- fail_comp2&#45;&gt;vibration -->
<g id="edge26" class="edge">
<title>fail_comp2&#45;&gt;vibration</title>
<path fill="none" stroke="black" stroke-width="1.2" d="M658.08,-227.93C753.51,-257.43 975.19,-325.94 1073.07,-356.19"/>
<polygon fill="black" stroke="black" stroke-width="1.2" points="1072.12,-359.56 1082.71,-359.17 1074.19,-352.87 1072.12,-359.56"/>
</g>
<!-- fail_comp2&#45;&gt;mnt_comp1 -->
<g id="edge34" class="edge">
<title>fail_comp2&#45;&gt;mnt_comp1</title>
<path fill="none" stroke="black" stroke-width="1.2" d="M658.12,-200.71C666.46,-198.25 675.28,-195.66 683.94,-193.1"/>
<polygon fill="black" stroke="black" stroke-width="1.2" points="685.01,-196.44 693.62,-190.25 683.03,-189.72 685.01,-196.44"/>
</g>
<!-- fail_comp2&#45;&gt;mnt_comp2 -->
<g id="edge37" class="edge">
<title>fail_comp2&#45;&gt;mnt_comp2</title>
<path fill="none" stroke="black" stroke-width="1.2" d="M658.21,-211.94C702.27,-209.93 769.46,-206.86 817.56,-204.67"/>
<polygon fill="black" stroke="black" stroke-width="1.2" points="817.99,-208.15 827.82,-204.2 817.67,-201.16 817.99,-208.15"/>
</g>
<!-- fail_comp3 -->
<g id="node15" class="node">
<title>fail_comp3</title>
<path fill="white" stroke="black" d="M80,-118C80,-118 12,-118 12,-118 6,-118 0,-112 0,-106 0,-106 0,-94 0,-94 0,-88 6,-82 12,-82 12,-82 80,-82 80,-82 86,-82 92,-88 92,-94 92,-94 92,-106 92,-106 92,-112 86,-118 80,-118"/>
<text text-anchor="middle" x="46" y="-96.3" font-family="Helvetica,sans-Serif" font-size="14.00">fail_comp3</text>
</g>
<!-- fail_comp3&#45;&gt;volt -->
<g id="edge10" class="edge">
<title>fail_comp3&#45;&gt;volt</title>
<path fill="none" stroke="black" stroke-width="1.2" d="M52.29,-118.24C62.18,-149.29 86.33,-212.56 128,-249 163.64,-280.17 216.87,-296.17 252,-303.81"/>
<polygon fill="black" stroke="black" stroke-width="1.2" points="251.34,-307.24 261.84,-305.83 252.75,-300.39 251.34,-307.24"/>
</g>
<!-- fail_comp3&#45;&gt;err_error2 -->
<g id="edge30" class="edge">
<title>fail_comp3&#45;&gt;err_error2</title>
<path fill="none" stroke="black" stroke-width="1.2" d="M71.96,-81.89C114.22,-53.07 203.52,0 288,0 288,0 288,0 502.5,0 567.64,0 641.97,-11.06 690.32,-19.75"/>
<polygon fill="black" stroke="black" stroke-width="1.2" points="689.77,-23.21 700.23,-21.56 691.03,-16.32 689.77,-23.21"/>
</g>
<!-- fail_comp3&#45;&gt;mnt_comp2 -->
<g id="edge38" class="edge">
<title>fail_comp3&#45;&gt;mnt_comp2</title>
<path fill="none" stroke="black" stroke-width="1.2" d="M92.31,-100C140.74,-100 219.8,-100 288,-100 288,-100 288,-100 395.5,-100 439.89,-100 750.19,-134.07 792,-149 810.87,-155.74 829.92,-167.28 845.09,-177.87"/>
<polygon fill="black" stroke="black" stroke-width="1.2" points="843.38,-180.96 853.55,-183.96 847.47,-175.28 843.38,-180.96"/>
</g>
<!-- fail_comp3&#45;&gt;mnt_comp3 -->
<g id="edge39" class="edge">
<title>fail_comp3&#45;&gt;mnt_comp3</title>
<path fill="none" stroke="black" stroke-width="1.2" d="M66.03,-118C88.14,-138.91 124.73,-173.52 149.58,-197.02"/>
<polygon fill="black" stroke="black" stroke-width="1.2" points="147.22,-199.6 156.89,-203.92 152.03,-194.51 147.22,-199.6"/>
</g>
<!-- fail_comp4 -->
<g id="node16" class="node">
<title>fail_comp4</title>
<path fill="white" stroke="black" d="M646,-102C646,-102 578,-102 578,-102 572,-102 566,-96 566,-90 566,-90 566,-78 566,-78 566,-72 572,-66 578,-66 578,-66 646,-66 646,-66 652,-66 658,-72 658,-78 658,-78 658,-90 658,-90 658,-96 652,-102 646,-102"/>
<text text-anchor="middle" x="612" y="-80.3" font-family="Helvetica,sans-Serif" font-size="14.00">fail_comp4</text>
</g>
<!-- fail_comp3&#45;&gt;fail_comp4 -->
<g id="edge41" class="edge">
<title>fail_comp3&#45;&gt;fail_comp4</title>
<path fill="none" stroke="black" stroke-width="1.2" d="M92.42,-88.5C140.62,-77.31 219.17,-62 288,-62 288,-62 288,-62 395.5,-62 450.16,-62 512.22,-69.09 555.66,-75.22"/>
<polygon fill="black" stroke="black" stroke-width="1.2" points="555.33,-78.71 565.73,-76.67 556.33,-71.78 555.33,-78.71"/>
</g>
<!-- fail_comp4&#45;&gt;pressure -->
<g id="edge20" class="edge">
<title>fail_comp4&#45;&gt;pressure</title>
<path fill="none" stroke="black" stroke-width="1.2" d="M623.56,-102.17C646.24,-141.21 699.74,-233.28 726.38,-279.11"/>
<polygon fill="black" stroke="black" stroke-width="1.2" points="723.43,-281.01 731.48,-287.89 729.48,-277.49 723.43,-281.01"/>
</g>
<!-- fail_comp4&#45;&gt;err_error2 -->
<g id="edge31" class="edge">
<title>fail_comp4&#45;&gt;err_error2</title>
<path fill="none" stroke="black" stroke-width="1.2" d="M656.31,-65.87C667.41,-61.22 679.44,-56.19 690.89,-51.4"/>
<polygon fill="black" stroke="black" stroke-width="1.2" points="692.46,-54.53 700.33,-47.44 689.75,-48.08 692.46,-54.53"/>
</g>
<!-- fail_comp4&#45;&gt;mnt_comp1 -->
<g id="edge35" class="edge">
<title>fail_comp4&#45;&gt;mnt_comp1</title>
<path fill="none" stroke="black" stroke-width="1.2" d="M638.49,-102.18C658.45,-116.42 686.41,-136.35 708.23,-151.92"/>
<polygon fill="black" stroke="black" stroke-width="1.2" points="706.39,-154.9 716.57,-157.86 710.46,-149.21 706.39,-154.9"/>
</g>
<!-- fail_comp4&#45;&gt;mnt_comp4 -->
<g id="edge40" class="edge">
<title>fail_comp4&#45;&gt;mnt_comp4</title>
<path fill="none" stroke="black" stroke-width="1.2" d="M658.12,-84C666.28,-84 674.9,-84 683.38,-84"/>
<polygon fill="black" stroke="black" stroke-width="1.2" points="683.62,-87.5 693.62,-84 683.62,-80.5 683.62,-87.5"/>
</g>
</g>
</svg>
