<?xml version="1.0" encoding="UTF-8" standalone="no"?>
<!DOCTYPE svg PUBLIC "-//W3C//DTD SVG 1.1//EN"
 "http://www.w3.org/Graphics/SVG/1.1/DTD/svg11.dtd">
<!-- Generated by graphviz version 2.50.0 (0)
 -->
<!-- Title: G Pages: 1 -->
<svg width="1321pt" height="598pt"
 viewBox="0.00 0.00 1321.00 598.00" xmlns="http://www.w3.org/2000/svg" xmlns:xlink="http://www.w3.org/1999/xlink">
<g id="graph0" class="graph" transform="scale(1 1) rotate(0) translate(4 594)">
<title>G</title>
<polygon fill="white" stroke="transparent" points="-4,4 -4,-594 1317,-594 1317,4 -4,4"/>
<text text-anchor="middle" x="656.5" y="-573.2" font-family="Times,serif" font-size="16.00">model=model4/cbnb_w_mixed.json [machine 36]</text>
<!-- volt -->
<g id="node1" class="node">
<title>volt</title>
<path fill="white" stroke="black" d="M57.5,-194C57.5,-194 27.5,-194 27.5,-194 21.5,-194 15.5,-188 15.5,-182 15.5,-182 15.5,-170 15.5,-170 15.5,-164 21.5,-158 27.5,-158 27.5,-158 57.5,-158 57.5,-158 63.5,-158 69.5,-164 69.5,-170 69.5,-170 69.5,-182 69.5,-182 69.5,-188 63.5,-194 57.5,-194"/>
<text text-anchor="middle" x="42.5" y="-172.3" font-family="Helvetica,sans-Serif" font-size="14.00">volt</text>
</g>
<!-- rotate -->
<g id="node2" class="node">
<title>rotate</title>
<path fill="white" stroke="black" d="M166,-286C166,-286 133,-286 133,-286 127,-286 121,-280 121,-274 121,-274 121,-262 121,-262 121,-256 127,-250 133,-250 133,-250 166,-250 166,-250 172,-250 178,-256 178,-262 178,-262 178,-274 178,-274 178,-280 172,-286 166,-286"/>
<text text-anchor="middle" x="149.5" y="-264.3" font-family="Helvetica,sans-Serif" font-size="14.00">rotate</text>
</g>
<!-- volt&#45;&gt;rotate -->
<g id="edge1" class="edge">
<title>volt&#45;&gt;rotate</title>
<path fill="none" stroke="black" stroke-width="1.2" d="M69.58,-191.71C74.84,-195.22 80.21,-199.08 85,-203 99.55,-214.93 114.32,-229.85 125.95,-242.39"/>
<polygon fill="black" stroke="black" stroke-width="1.2" points="123.43,-244.81 132.76,-249.83 128.6,-240.09 123.43,-244.81"/>
</g>
<!-- vibration -->
<g id="node4" class="node">
<title>vibration</title>
<path fill="white" stroke="black" d="M408,-280C408,-280 354,-280 354,-280 348,-280 342,-274 342,-268 342,-268 342,-256 342,-256 342,-250 348,-244 354,-244 354,-244 408,-244 408,-244 414,-244 420,-250 420,-256 420,-256 420,-268 420,-268 420,-274 414,-280 408,-280"/>
<text text-anchor="middle" x="381" y="-258.3" font-family="Helvetica,sans-Serif" font-size="14.00">vibration</text>
</g>
<!-- volt&#45;&gt;vibration -->
<g id="edge2" class="edge">
<title>volt&#45;&gt;vibration</title>
<path fill="none" stroke="black" stroke-width="1.2" d="M79.65,-185.24C140.55,-200.8 263.58,-232.25 331.76,-249.67"/>
<polygon fill="black" stroke="black" stroke-width="1.2" points="80.18,-181.76 69.62,-182.68 78.45,-188.54 80.18,-181.76"/>
<polygon fill="black" stroke="black" stroke-width="1.2" points="331.26,-253.16 341.81,-252.24 332.99,-246.37 331.26,-253.16"/>
</g>
<!-- err_error1 -->
<g id="node5" class="node">
<title>err_error1</title>
<path fill="white" stroke="black" d="M1180,-243C1180,-243 1119,-243 1119,-243 1113,-243 1107,-237 1107,-231 1107,-231 1107,-219 1107,-219 1107,-213 1113,-207 1119,-207 1119,-207 1180,-207 1180,-207 1186,-207 1192,-213 1192,-219 1192,-219 1192,-231 1192,-231 1192,-237 1186,-243 1180,-243"/>
<text text-anchor="middle" x="1149.5" y="-221.3" font-family="Helvetica,sans-Serif" font-size="14.00">err_error1</text>
</g>
<!-- volt&#45;&gt;err_error1 -->
<g id="edge3" class="edge">
<title>volt&#45;&gt;err_error1</title>
<path fill="none" stroke="black" stroke-width="1.2" d="M55.66,-148.51C68.53,-122.17 91.13,-82.85 121,-58 172.15,-15.46 192.47,0 259,0 259,0 259,0 902,0 1018.09,0 1103.45,-137.81 1135.07,-197.72"/>
<polygon fill="black" stroke="black" stroke-width="1.2" points="52.48,-147.05 51.36,-157.58 58.8,-150.04 52.48,-147.05"/>
<polygon fill="black" stroke="black" stroke-width="1.2" points="1132.15,-199.69 1139.85,-206.97 1138.37,-196.48 1132.15,-199.69"/>
</g>
<!-- err_error4 -->
<g id="node8" class="node">
<title>err_error4</title>
<path fill="white" stroke="black" d="M931.5,-430C931.5,-430 870.5,-430 870.5,-430 864.5,-430 858.5,-424 858.5,-418 858.5,-418 858.5,-406 858.5,-406 858.5,-400 864.5,-394 870.5,-394 870.5,-394 931.5,-394 931.5,-394 937.5,-394 943.5,-400 943.5,-406 943.5,-406 943.5,-418 943.5,-418 943.5,-424 937.5,-430 931.5,-430"/>
<text text-anchor="middle" x="901" y="-408.3" font-family="Helvetica,sans-Serif" font-size="14.00">err_error4</text>
</g>
<!-- volt&#45;&gt;err_error4 -->
<g id="edge4" class="edge">
<title>volt&#45;&gt;err_error4</title>
<path fill="none" stroke="black" stroke-width="1.2" d="M69.65,-189.47C75.26,-193.26 80.77,-197.8 85,-203 112.73,-237.04 101.67,-255.57 121,-295 173.64,-402.39 139.41,-526 259,-526 259,-526 259,-526 634,-526 717.77,-526 740.97,-514.25 816,-477 836.96,-466.6 857.77,-450.54 873.44,-436.99"/>
<polygon fill="black" stroke="black" stroke-width="1.2" points="875.97,-439.42 881.14,-430.17 871.33,-434.18 875.97,-439.42"/>
</g>
<!-- mnt_comp3 -->
<g id="node12" class="node">
<title>mnt_comp3</title>
<path fill="white" stroke="black" d="M938,-182C938,-182 864,-182 864,-182 858,-182 852,-176 852,-170 852,-170 852,-158 852,-158 852,-152 858,-146 864,-146 864,-146 938,-146 938,-146 944,-146 950,-152 950,-158 950,-158 950,-170 950,-170 950,-176 944,-182 938,-182"/>
<text text-anchor="middle" x="901" y="-160.3" font-family="Helvetica,sans-Serif" font-size="14.00">mnt_comp3</text>
</g>
<!-- volt&#45;&gt;mnt_comp3 -->
<g id="edge5" class="edge">
<title>volt&#45;&gt;mnt_comp3</title>
<path fill="none" stroke="black" stroke-width="1.2" d="M58.13,-157.96C90.23,-120.55 171.03,-38 259,-38 259,-38 259,-38 634,-38 717.54,-38 742.83,-44.67 816,-85 840.48,-98.49 863.24,-120.76 878.88,-138.23"/>
<polygon fill="black" stroke="black" stroke-width="1.2" points="876.33,-140.63 885.54,-145.86 881.61,-136.03 876.33,-140.63"/>
</g>
<!-- fail_comp1 -->
<g id="node14" class="node">
<title>fail_comp1</title>
<path fill="white" stroke="black" d="M536,-232C536,-232 468,-232 468,-232 462,-232 456,-226 456,-220 456,-220 456,-208 456,-208 456,-202 462,-196 468,-196 468,-196 536,-196 536,-196 542,-196 548,-202 548,-208 548,-208 548,-220 548,-220 548,-226 542,-232 536,-232"/>
<text text-anchor="middle" x="502" y="-210.3" font-family="Helvetica,sans-Serif" font-size="14.00">fail_comp1</text>
</g>
<!-- volt&#45;&gt;fail_comp1 -->
<g id="edge6" class="edge">
<title>volt&#45;&gt;fail_comp1</title>
<path fill="none" stroke="black" stroke-width="1.2" d="M79.55,-166.32C130.3,-154.04 225.62,-135.96 306,-149 356.5,-157.19 411.58,-176.59 450.29,-192.08"/>
<polygon fill="black" stroke="black" stroke-width="1.2" points="78.58,-162.95 69.71,-168.76 80.26,-169.75 78.58,-162.95"/>
<polygon fill="black" stroke="black" stroke-width="1.2" points="449.18,-195.41 459.76,-195.92 451.81,-188.92 449.18,-195.41"/>
</g>
<!-- pressure -->
<g id="node3" class="node">
<title>pressure</title>
<path fill="white" stroke="black" d="M286.5,-373C286.5,-373 233.5,-373 233.5,-373 227.5,-373 221.5,-367 221.5,-361 221.5,-361 221.5,-349 221.5,-349 221.5,-343 227.5,-337 233.5,-337 233.5,-337 286.5,-337 286.5,-337 292.5,-337 298.5,-343 298.5,-349 298.5,-349 298.5,-361 298.5,-361 298.5,-367 292.5,-373 286.5,-373"/>
<text text-anchor="middle" x="260" y="-351.3" font-family="Helvetica,sans-Serif" font-size="14.00">pressure</text>
</g>
<!-- rotate&#45;&gt;pressure -->
<g id="edge7" class="edge">
<title>rotate&#45;&gt;pressure</title>
<path fill="none" stroke="black" stroke-width="1.2" d="M172.98,-286.03C188.98,-298.86 210.68,-316.26 228.28,-330.37"/>
<polygon fill="black" stroke="black" stroke-width="1.2" points="226.56,-333.47 236.55,-337 230.94,-328.01 226.56,-333.47"/>
</g>
<!-- rotate&#45;&gt;err_error4 -->
<g id="edge9" class="edge">
<title>rotate&#45;&gt;err_error4</title>
<path fill="none" stroke="black" stroke-width="1.2" d="M161.37,-295.86C172.02,-320.58 190.13,-356.61 214,-382 273.96,-445.77 292.46,-488 380,-488 380,-488 380,-488 634,-488 713.13,-488 800.57,-456.53 852.86,-434.09"/>
<polygon fill="black" stroke="black" stroke-width="1.2" points="164.48,-294.22 157.39,-286.34 158.02,-296.92 164.48,-294.22"/>
<polygon fill="black" stroke="black" stroke-width="1.2" points="854.44,-437.22 862.21,-430.01 851.64,-430.8 854.44,-437.22"/>
</g>
<!-- fail_comp2 -->
<g id="node15" class="node">
<title>fail_comp2</title>
<path fill="white" stroke="black" d="M294,-194C294,-194 226,-194 226,-194 220,-194 214,-188 214,-182 214,-182 214,-170 214,-170 214,-164 220,-158 226,-158 226,-158 294,-158 294,-158 300,-158 306,-164 306,-170 306,-170 306,-182 306,-182 306,-188 300,-194 294,-194"/>
<text text-anchor="middle" x="260" y="-172.3" font-family="Helvetica,sans-Serif" font-size="14.00">fail_comp2</text>
</g>
<!-- rotate&#45;&gt;fail_comp2 -->
<g id="edge10" class="edge">
<title>rotate&#45;&gt;fail_comp2</title>
<path fill="none" stroke="black" stroke-width="1.2" d="M171.94,-249.82C188.43,-235.84 211.41,-216.35 229.62,-200.91"/>
<polygon fill="black" stroke="black" stroke-width="1.2" points="232.24,-203.28 237.61,-194.14 227.72,-197.94 232.24,-203.28"/>
</g>
<!-- pressure&#45;&gt;vibration -->
<g id="edge11" class="edge">
<title>pressure&#45;&gt;vibration</title>
<path fill="none" stroke="black" stroke-width="1.2" d="M292.24,-330.59C309.64,-316.99 331.24,-300.11 348.65,-286.5"/>
<polygon fill="black" stroke="black" stroke-width="1.2" points="289.95,-327.93 284.23,-336.85 294.26,-333.45 289.95,-327.93"/>
<polygon fill="black" stroke="black" stroke-width="1.2" points="351.11,-289.02 356.83,-280.11 346.8,-283.51 351.11,-289.02"/>
</g>
<!-- err_error2 -->
<g id="node6" class="node">
<title>err_error2</title>
<path fill="white" stroke="black" d="M1301,-289C1301,-289 1240,-289 1240,-289 1234,-289 1228,-283 1228,-277 1228,-277 1228,-265 1228,-265 1228,-259 1234,-253 1240,-253 1240,-253 1301,-253 1301,-253 1307,-253 1313,-259 1313,-265 1313,-265 1313,-277 1313,-277 1313,-283 1307,-289 1301,-289"/>
<text text-anchor="middle" x="1270.5" y="-267.3" font-family="Helvetica,sans-Serif" font-size="14.00">err_error2</text>
</g>
<!-- pressure&#45;&gt;err_error2 -->
<g id="edge12" class="edge">
<title>pressure&#45;&gt;err_error2</title>
<path fill="none" stroke="black" stroke-width="1.2" d="M298.3,-373.05C300.96,-374.64 303.55,-376.3 306,-378 323.83,-390.38 323,-400.5 342,-411 567.08,-535.36 642.85,-564 900,-564 900,-564 900,-564 1029.5,-564 1165.5,-564 1238.4,-372.75 1261.39,-299.28"/>
<polygon fill="black" stroke="black" stroke-width="1.2" points="1264.86,-299.91 1264.42,-289.33 1258.16,-297.87 1264.86,-299.91"/>
</g>
<!-- pressure&#45;&gt;err_error4 -->
<g id="edge14" class="edge">
<title>pressure&#45;&gt;err_error4</title>
<path fill="none" stroke="black" stroke-width="1.2" d="M298.67,-372.51C312.11,-378.18 327.51,-384.01 342,-388 410.91,-406.95 429.53,-412 501,-412 501,-412 501,-412 634,-412 708.25,-412 794.16,-412 847.79,-412"/>
<polygon fill="black" stroke="black" stroke-width="1.2" points="848.08,-415.5 858.08,-412 848.08,-408.5 848.08,-415.5"/>
</g>
<!-- vibration&#45;&gt;rotate -->
<g id="edge8" class="edge">
<title>vibration&#45;&gt;rotate</title>
<path fill="none" stroke="black" stroke-width="1.2" d="M341.92,-263C299.36,-264.11 230.87,-265.9 188.39,-267.01"/>
<polygon fill="black" stroke="black" stroke-width="1.2" points="188.09,-263.52 178.18,-267.28 188.27,-270.51 188.09,-263.52"/>
</g>
<!-- vibration&#45;&gt;err_error1 -->
<g id="edge16" class="edge">
<title>vibration&#45;&gt;err_error1</title>
<path fill="none" stroke="black" stroke-width="1.2" d="M420.16,-262.77C515.54,-264.64 772.07,-269.41 986,-271 1023.78,-271.28 1034.57,-281 1071,-271 1087.34,-266.52 1103.72,-257.6 1117.19,-248.79"/>
<polygon fill="black" stroke="black" stroke-width="1.2" points="1119.29,-251.6 1125.58,-243.08 1115.35,-245.81 1119.29,-251.6"/>
</g>
<!-- vibration&#45;&gt;err_error2 -->
<g id="edge17" class="edge">
<title>vibration&#45;&gt;err_error2</title>
<path fill="none" stroke="black" stroke-width="1.2" d="M420.07,-271.22C505.42,-291.06 718.77,-336 900,-336 900,-336 900,-336 1029.5,-336 1096.94,-336 1171.46,-311.79 1219.29,-292.92"/>
<polygon fill="black" stroke="black" stroke-width="1.2" points="1220.81,-296.08 1228.79,-289.11 1218.2,-289.59 1220.81,-296.08"/>
</g>
<!-- vibration&#45;&gt;err_error4 -->
<g id="edge18" class="edge">
<title>vibration&#45;&gt;err_error4</title>
<path fill="none" stroke="black" stroke-width="1.2" d="M412.09,-286.08C424.97,-295.37 440.59,-305.34 456,-312 526.74,-342.57 747.43,-384.61 848.51,-402.89"/>
<polygon fill="black" stroke="black" stroke-width="1.2" points="414.16,-283.26 404.04,-280.11 409.99,-288.88 414.16,-283.26"/>
<polygon fill="black" stroke="black" stroke-width="1.2" points="848.03,-406.36 858.49,-404.69 849.27,-399.47 848.03,-406.36"/>
</g>
<!-- vibration&#45;&gt;fail_comp1 -->
<g id="edge19" class="edge">
<title>vibration&#45;&gt;fail_comp1</title>
<path fill="none" stroke="black" stroke-width="1.2" d="M420.31,-246.55C428.69,-243.17 437.72,-239.53 446.59,-235.95"/>
<polygon fill="black" stroke="black" stroke-width="1.2" points="448.16,-239.09 456.13,-232.1 445.54,-232.59 448.16,-239.09"/>
</g>
<!-- err_error1&#45;&gt;err_error2 -->
<g id="edge21" class="edge">
<title>err_error1&#45;&gt;err_error2</title>
<path fill="none" stroke="black" stroke-width="1.2" d="M1192.12,-241.09C1200.59,-244.36 1209.58,-247.84 1218.34,-251.22"/>
<polygon fill="black" stroke="black" stroke-width="1.2" points="1217.11,-254.5 1227.7,-254.84 1219.64,-247.97 1217.11,-254.5"/>
</g>
<!-- err_error1&#45;&gt;mnt_comp3 -->
<g id="edge23" class="edge">
<title>err_error1&#45;&gt;mnt_comp3</title>
<path fill="none" stroke="black" stroke-width="1.2" d="M1106.66,-214.65C1066.36,-204.67 1005.04,-189.5 960.03,-178.36"/>
<polygon fill="black" stroke="black" stroke-width="1.2" points="960.66,-174.91 950.11,-175.91 958.98,-181.71 960.66,-174.91"/>
</g>
<!-- err_error3 -->
<g id="node7" class="node">
<title>err_error3</title>
<path fill="white" stroke="black" d="M1059,-262C1059,-262 998,-262 998,-262 992,-262 986,-256 986,-250 986,-250 986,-238 986,-238 986,-232 992,-226 998,-226 998,-226 1059,-226 1059,-226 1065,-226 1071,-232 1071,-238 1071,-238 1071,-250 1071,-250 1071,-256 1065,-262 1059,-262"/>
<text text-anchor="middle" x="1028.5" y="-240.3" font-family="Helvetica,sans-Serif" font-size="14.00">err_error3</text>
</g>
<!-- err_error2&#45;&gt;err_error3 -->
<g id="edge24" class="edge">
<title>err_error2&#45;&gt;err_error3</title>
<path fill="none" stroke="black" stroke-width="1.2" d="M1217.5,-265.15C1177.15,-260.61 1121.47,-254.35 1081.19,-249.82"/>
<polygon fill="black" stroke="black" stroke-width="1.2" points="1217.34,-268.65 1227.67,-266.29 1218.13,-261.7 1217.34,-268.65"/>
<polygon fill="black" stroke="black" stroke-width="1.2" points="1081.36,-246.31 1071.03,-248.67 1080.58,-253.27 1081.36,-246.31"/>
</g>
<!-- err_error2&#45;&gt;mnt_comp3 -->
<g id="edge25" class="edge">
<title>err_error2&#45;&gt;mnt_comp3</title>
<path fill="none" stroke="black" stroke-width="1.2" d="M1255.96,-252.98C1241.97,-235.8 1218.49,-210.72 1192,-198 1117.8,-162.38 1021.08,-158.27 960.24,-160.02"/>
<polygon fill="black" stroke="black" stroke-width="1.2" points="959.92,-156.53 950.05,-160.38 960.17,-163.53 959.92,-156.53"/>
</g>
<!-- err_error3&#45;&gt;pressure -->
<g id="edge13" class="edge">
<title>err_error3&#45;&gt;pressure</title>
<path fill="none" stroke="black" stroke-width="1.2" d="M985.98,-250.01C854.59,-269.04 448.37,-327.87 308.72,-348.09"/>
<polygon fill="black" stroke="black" stroke-width="1.2" points="308.14,-344.64 298.75,-349.53 309.15,-351.56 308.14,-344.64"/>
</g>
<!-- err_error3&#45;&gt;err_error1 -->
<g id="edge22" class="edge">
<title>err_error3&#45;&gt;err_error1</title>
<path fill="none" stroke="black" stroke-width="1.2" d="M1071.12,-237.35C1079.41,-236.03 1088.2,-234.63 1096.78,-233.26"/>
<polygon fill="black" stroke="black" stroke-width="1.2" points="1097.38,-236.71 1106.7,-231.67 1096.28,-229.79 1097.38,-236.71"/>
</g>
<!-- err_error5 -->
<g id="node9" class="node">
<title>err_error5</title>
<path fill="white" stroke="black" d="M73,-248C73,-248 12,-248 12,-248 6,-248 0,-242 0,-236 0,-236 0,-224 0,-224 0,-218 6,-212 12,-212 12,-212 73,-212 73,-212 79,-212 85,-218 85,-224 85,-224 85,-236 85,-236 85,-242 79,-248 73,-248"/>
<text text-anchor="middle" x="42.5" y="-226.3" font-family="Helvetica,sans-Serif" font-size="14.00">err_error5</text>
</g>
<!-- mnt_comp1 -->
<g id="node10" class="node">
<title>mnt_comp1</title>
<path fill="white" stroke="black" d="M670,-232C670,-232 596,-232 596,-232 590,-232 584,-226 584,-220 584,-220 584,-208 584,-208 584,-202 590,-196 596,-196 596,-196 670,-196 670,-196 676,-196 682,-202 682,-208 682,-208 682,-220 682,-220 682,-226 676,-232 670,-232"/>
<text text-anchor="middle" x="633" y="-210.3" font-family="Helvetica,sans-Serif" font-size="14.00">mnt_comp1</text>
</g>
<!-- mnt_comp4 -->
<g id="node13" class="node">
<title>mnt_comp4</title>
<path fill="white" stroke="black" d="M804,-232C804,-232 730,-232 730,-232 724,-232 718,-226 718,-220 718,-220 718,-208 718,-208 718,-202 724,-196 730,-196 730,-196 804,-196 804,-196 810,-196 816,-202 816,-208 816,-208 816,-220 816,-220 816,-226 810,-232 804,-232"/>
<text text-anchor="middle" x="767" y="-210.3" font-family="Helvetica,sans-Serif" font-size="14.00">mnt_comp4</text>
</g>
<!-- mnt_comp1&#45;&gt;mnt_comp4 -->
<g id="edge29" class="edge">
<title>mnt_comp1&#45;&gt;mnt_comp4</title>
<path fill="none" stroke="black" stroke-width="1.2" d="M682.03,-214C690.31,-214 699,-214 707.52,-214"/>
<polygon fill="black" stroke="black" stroke-width="1.2" points="707.79,-217.5 717.79,-214 707.79,-210.5 707.79,-217.5"/>
</g>
<!-- mnt_comp2 -->
<g id="node11" class="node">
<title>mnt_comp2</title>
<path fill="white" stroke="black" d="M670,-140C670,-140 596,-140 596,-140 590,-140 584,-134 584,-128 584,-128 584,-116 584,-116 584,-110 590,-104 596,-104 596,-104 670,-104 670,-104 676,-104 682,-110 682,-116 682,-116 682,-128 682,-128 682,-134 676,-140 670,-140"/>
<text text-anchor="middle" x="633" y="-118.3" font-family="Helvetica,sans-Serif" font-size="14.00">mnt_comp2</text>
</g>
<!-- mnt_comp2&#45;&gt;mnt_comp3 -->
<g id="edge31" class="edge">
<title>mnt_comp2&#45;&gt;mnt_comp3</title>
<path fill="none" stroke="black" stroke-width="1.2" d="M682.17,-129.61C727.04,-136.69 794.01,-147.26 841.84,-154.82"/>
<polygon fill="black" stroke="black" stroke-width="1.2" points="841.32,-158.28 851.74,-156.38 842.41,-151.36 841.32,-158.28"/>
</g>
<!-- mnt_comp2&#45;&gt;mnt_comp4 -->
<g id="edge32" class="edge">
<title>mnt_comp2&#45;&gt;mnt_comp4</title>
<path fill="none" stroke="black" stroke-width="1.2" d="M660.08,-140.18C680.6,-154.48 709.37,-174.53 731.74,-190.12"/>
<polygon fill="black" stroke="black" stroke-width="1.2" points="729.77,-193.01 739.98,-195.86 733.77,-187.27 729.77,-193.01"/>
</g>
<!-- mnt_comp3&#45;&gt;err_error3 -->
<g id="edge26" class="edge">
<title>mnt_comp3&#45;&gt;err_error3</title>
<path fill="none" stroke="black" stroke-width="1.2" d="M930.48,-182.15C948.29,-193.51 971.41,-208.25 990.62,-220.49"/>
<polygon fill="black" stroke="black" stroke-width="1.2" points="988.82,-223.49 999.13,-225.92 992.58,-217.59 988.82,-223.49"/>
</g>
<!-- mnt_comp4&#45;&gt;err_error3 -->
<g id="edge27" class="edge">
<title>mnt_comp4&#45;&gt;err_error3</title>
<path fill="none" stroke="black" stroke-width="1.2" d="M816.2,-219.57C861.58,-224.82 929.33,-232.65 975.81,-238.02"/>
<polygon fill="black" stroke="black" stroke-width="1.2" points="975.64,-241.53 985.98,-239.2 976.44,-234.57 975.64,-241.53"/>
</g>
<!-- mnt_comp4&#45;&gt;err_error4 -->
<g id="edge28" class="edge">
<title>mnt_comp4&#45;&gt;err_error4</title>
<path fill="none" stroke="black" stroke-width="1.2" d="M780.18,-232.27C803.61,-267.41 855.03,-344.54 882.26,-385.4"/>
<polygon fill="black" stroke="black" stroke-width="1.2" points="879.39,-387.39 887.85,-393.77 885.21,-383.51 879.39,-387.39"/>
</g>
<!-- mnt_comp4&#45;&gt;mnt_comp3 -->
<g id="edge34" class="edge">
<title>mnt_comp4&#45;&gt;mnt_comp3</title>
<path fill="none" stroke="black" stroke-width="1.2" d="M815.66,-195.95C824.53,-192.59 833.89,-189.04 843.02,-185.58"/>
<polygon fill="black" stroke="black" stroke-width="1.2" points="844.3,-188.84 852.41,-182.02 841.82,-182.29 844.3,-188.84"/>
</g>
<!-- fail_comp1&#45;&gt;pressure -->
<g id="edge15" class="edge">
<title>fail_comp1&#45;&gt;pressure</title>
<path fill="none" stroke="black" stroke-width="1.2" d="M485.1,-232C469.74,-248.54 445.17,-272.86 420,-289 385.12,-311.37 341.38,-328.87 308.61,-340.21"/>
<polygon fill="black" stroke="black" stroke-width="1.2" points="307.16,-337.01 298.81,-343.53 309.41,-343.64 307.16,-337.01"/>
</g>
<!-- fail_comp1&#45;&gt;mnt_comp1 -->
<g id="edge30" class="edge">
<title>fail_comp1&#45;&gt;mnt_comp1</title>
<path fill="none" stroke="black" stroke-width="1.2" d="M548.12,-214C556.28,-214 564.9,-214 573.38,-214"/>
<polygon fill="black" stroke="black" stroke-width="1.2" points="573.62,-217.5 583.62,-214 573.62,-210.5 573.62,-217.5"/>
</g>
<!-- fail_comp1&#45;&gt;mnt_comp3 -->
<g id="edge35" class="edge">
<title>fail_comp1&#45;&gt;mnt_comp3</title>
<path fill="none" stroke="black" stroke-width="1.2" d="M548.3,-196.7C559.79,-192.92 572.23,-189.35 584,-187 672.65,-169.29 777.72,-164.84 841.58,-163.92"/>
<polygon fill="black" stroke="black" stroke-width="1.2" points="841.9,-167.42 851.86,-163.8 841.82,-160.42 841.9,-167.42"/>
</g>
<!-- fail_comp2&#45;&gt;vibration -->
<g id="edge20" class="edge">
<title>fail_comp2&#45;&gt;vibration</title>
<path fill="none" stroke="black" stroke-width="1.2" d="M286.74,-194.22C293.05,-198.71 299.78,-203.52 306,-208 319.55,-217.76 334.43,-228.6 347.28,-237.99"/>
<polygon fill="black" stroke="black" stroke-width="1.2" points="345.25,-240.84 355.39,-243.92 349.38,-235.19 345.25,-240.84"/>
</g>
<!-- fail_comp2&#45;&gt;mnt_comp2 -->
<g id="edge33" class="edge">
<title>fail_comp2&#45;&gt;mnt_comp2</title>
<path fill="none" stroke="black" stroke-width="1.2" d="M306.12,-169.43C373.35,-159.65 499.81,-141.24 573.88,-130.46"/>
<polygon fill="black" stroke="black" stroke-width="1.2" points="574.58,-133.89 583.97,-128.99 573.57,-126.97 574.58,-133.89"/>
</g>
<!-- fail_comp2&#45;&gt;mnt_comp3 -->
<g id="edge36" class="edge">
<title>fail_comp2&#45;&gt;mnt_comp3</title>
<path fill="none" stroke="black" stroke-width="1.2" d="M285.85,-157.89C327.91,-129.07 416.82,-76 501,-76 501,-76 501,-76 634,-76 717.11,-76 807.78,-115.2 858.89,-141.28"/>
<polygon fill="black" stroke="black" stroke-width="1.2" points="857.47,-144.48 867.96,-145.98 860.69,-138.27 857.47,-144.48"/>
</g>
</g>
</svg>
