<?xml version="1.0" encoding="UTF-8" standalone="no"?>
<!DOCTYPE svg PUBLIC "-//W3C//DTD SVG 1.1//EN"
 "http://www.w3.org/Graphics/SVG/1.1/DTD/svg11.dtd">
<!-- Generated by graphviz version 2.50.0 (0)
 -->
<!-- Title: G Pages: 1 -->
<svg width="1416pt" height="731pt"
 viewBox="0.00 0.00 1416.00 730.95" xmlns="http://www.w3.org/2000/svg" xmlns:xlink="http://www.w3.org/1999/xlink">
<g id="graph0" class="graph" transform="scale(1 1) rotate(0) translate(4 726.95)">
<title>G</title>
<polygon fill="white" stroke="transparent" points="-4,4 -4,-726.95 1412,-726.95 1412,4 -4,4"/>
<text text-anchor="middle" x="704" y="-706.15" font-family="Times,serif" font-size="16.00">model=model1/cbnb_w_mixed.json [machine 24]</text>
<!-- volt -->
<g id="node1" class="node">
<title>volt</title>
<path fill="white" stroke="black" d="M42,-302.95C42,-302.95 12,-302.95 12,-302.95 6,-302.95 0,-296.95 0,-290.95 0,-290.95 0,-278.95 0,-278.95 0,-272.95 6,-266.95 12,-266.95 12,-266.95 42,-266.95 42,-266.95 48,-266.95 54,-272.95 54,-278.95 54,-278.95 54,-290.95 54,-290.95 54,-296.95 48,-302.95 42,-302.95"/>
<text text-anchor="middle" x="27" y="-281.25" font-family="Helvetica,sans-Serif" font-size="14.00">volt</text>
</g>
<!-- rotate -->
<g id="node2" class="node">
<title>rotate</title>
<path fill="white" stroke="black" d="M135,-470.95C135,-470.95 102,-470.95 102,-470.95 96,-470.95 90,-464.95 90,-458.95 90,-458.95 90,-446.95 90,-446.95 90,-440.95 96,-434.95 102,-434.95 102,-434.95 135,-434.95 135,-434.95 141,-434.95 147,-440.95 147,-446.95 147,-446.95 147,-458.95 147,-458.95 147,-464.95 141,-470.95 135,-470.95"/>
<text text-anchor="middle" x="118.5" y="-449.25" font-family="Helvetica,sans-Serif" font-size="14.00">rotate</text>
</g>
<!-- volt&#45;&gt;rotate -->
<g id="edge1" class="edge">
<title>volt&#45;&gt;rotate</title>
<path fill="none" stroke="black" stroke-width="1.2" d="M42.58,-312.32C59.29,-343.67 86.48,-394.72 103.1,-425.92"/>
<polygon fill="black" stroke="black" stroke-width="1.2" points="45.54,-310.42 37.75,-303.24 39.36,-313.72 45.54,-310.42"/>
<polygon fill="black" stroke="black" stroke-width="1.2" points="100.11,-427.74 107.9,-434.92 106.29,-424.45 100.11,-427.74"/>
</g>
<!-- pressure -->
<g id="node3" class="node">
<title>pressure</title>
<path fill="white" stroke="black" d="M369,-321.95C369,-321.95 316,-321.95 316,-321.95 310,-321.95 304,-315.95 304,-309.95 304,-309.95 304,-297.95 304,-297.95 304,-291.95 310,-285.95 316,-285.95 316,-285.95 369,-285.95 369,-285.95 375,-285.95 381,-291.95 381,-297.95 381,-297.95 381,-309.95 381,-309.95 381,-315.95 375,-321.95 369,-321.95"/>
<text text-anchor="middle" x="342.5" y="-300.25" font-family="Helvetica,sans-Serif" font-size="14.00">pressure</text>
</g>
<!-- volt&#45;&gt;pressure -->
<g id="edge2" class="edge">
<title>volt&#45;&gt;pressure</title>
<path fill="none" stroke="black" stroke-width="1.2" d="M54.19,-286.53C106.92,-289.73 226.57,-296.98 293.64,-301.05"/>
<polygon fill="black" stroke="black" stroke-width="1.2" points="293.74,-304.56 303.94,-301.67 294.17,-297.57 293.74,-304.56"/>
</g>
<!-- vibration -->
<g id="node4" class="node">
<title>vibration</title>
<path fill="white" stroke="black" d="M879,-448.95C879,-448.95 825,-448.95 825,-448.95 819,-448.95 813,-442.95 813,-436.95 813,-436.95 813,-424.95 813,-424.95 813,-418.95 819,-412.95 825,-412.95 825,-412.95 879,-412.95 879,-412.95 885,-412.95 891,-418.95 891,-424.95 891,-424.95 891,-436.95 891,-436.95 891,-442.95 885,-448.95 879,-448.95"/>
<text text-anchor="middle" x="852" y="-427.25" font-family="Helvetica,sans-Serif" font-size="14.00">vibration</text>
</g>
<!-- volt&#45;&gt;vibration -->
<g id="edge3" class="edge">
<title>volt&#45;&gt;vibration</title>
<path fill="none" stroke="black" stroke-width="1.2" d="M29.56,-313.19C36.02,-400.29 68.35,-658.95 224.5,-658.95 224.5,-658.95 224.5,-658.95 595,-658.95 714.48,-658.95 804,-518.73 837.07,-458.21"/>
<polygon fill="black" stroke="black" stroke-width="1.2" points="33.03,-312.72 28.86,-302.98 26.05,-313.2 33.03,-312.72"/>
<polygon fill="black" stroke="black" stroke-width="1.2" points="840.26,-459.69 841.89,-449.22 834.09,-456.38 840.26,-459.69"/>
</g>
<!-- err_error1 -->
<g id="node5" class="node">
<title>err_error1</title>
<path fill="white" stroke="black" d="M493.5,-52.95C493.5,-52.95 432.5,-52.95 432.5,-52.95 426.5,-52.95 420.5,-46.95 420.5,-40.95 420.5,-40.95 420.5,-28.95 420.5,-28.95 420.5,-22.95 426.5,-16.95 432.5,-16.95 432.5,-16.95 493.5,-16.95 493.5,-16.95 499.5,-16.95 505.5,-22.95 505.5,-28.95 505.5,-28.95 505.5,-40.95 505.5,-40.95 505.5,-46.95 499.5,-52.95 493.5,-52.95"/>
<text text-anchor="middle" x="463" y="-31.25" font-family="Helvetica,sans-Serif" font-size="14.00">err_error1</text>
</g>
<!-- volt&#45;&gt;err_error1 -->
<g id="edge4" class="edge">
<title>volt&#45;&gt;err_error1</title>
<path fill="none" stroke="black" stroke-width="1.2" d="M32.01,-256.77C40.21,-203.51 60.61,-91.19 90,-66.95 181.28,8.36 331.54,-7.46 410.25,-22.74"/>
<polygon fill="black" stroke="black" stroke-width="1.2" points="28.51,-256.48 30.49,-266.89 35.44,-257.52 28.51,-256.48"/>
<polygon fill="black" stroke="black" stroke-width="1.2" points="409.91,-26.24 420.41,-24.79 411.3,-19.38 409.91,-26.24"/>
</g>
<!-- err_error3 -->
<g id="node7" class="node">
<title>err_error3</title>
<path fill="white" stroke="black" d="M256,-554.95C256,-554.95 195,-554.95 195,-554.95 189,-554.95 183,-548.95 183,-542.95 183,-542.95 183,-530.95 183,-530.95 183,-524.95 189,-518.95 195,-518.95 195,-518.95 256,-518.95 256,-518.95 262,-518.95 268,-524.95 268,-530.95 268,-530.95 268,-542.95 268,-542.95 268,-548.95 262,-554.95 256,-554.95"/>
<text text-anchor="middle" x="225.5" y="-533.25" font-family="Helvetica,sans-Serif" font-size="14.00">err_error3</text>
</g>
<!-- volt&#45;&gt;err_error3 -->
<g id="edge5" class="edge">
<title>volt&#45;&gt;err_error3</title>
<path fill="none" stroke="black" stroke-width="1.2" d="M28.85,-303C31.56,-340.63 42.87,-428.21 90,-479.95 111.77,-503.84 145.21,-518.07 173.3,-526.34"/>
<polygon fill="black" stroke="black" stroke-width="1.2" points="172.41,-529.73 182.98,-529.02 174.28,-522.98 172.41,-529.73"/>
</g>
<!-- mnt_comp2 -->
<g id="node11" class="node">
<title>mnt_comp2</title>
<path fill="white" stroke="black" d="M1275,-269.95C1275,-269.95 1201,-269.95 1201,-269.95 1195,-269.95 1189,-263.95 1189,-257.95 1189,-257.95 1189,-245.95 1189,-245.95 1189,-239.95 1195,-233.95 1201,-233.95 1201,-233.95 1275,-233.95 1275,-233.95 1281,-233.95 1287,-239.95 1287,-245.95 1287,-245.95 1287,-257.95 1287,-257.95 1287,-263.95 1281,-269.95 1275,-269.95"/>
<text text-anchor="middle" x="1238" y="-248.25" font-family="Helvetica,sans-Serif" font-size="14.00">mnt_comp2</text>
</g>
<!-- volt&#45;&gt;mnt_comp2 -->
<g id="edge7" class="edge">
<title>volt&#45;&gt;mnt_comp2</title>
<path fill="none" stroke="black" stroke-width="1.2" d="M36.79,-256.96C46.4,-229.88 63.99,-188.93 90,-160.95 137.36,-110 154.95,-80.95 224.5,-80.95 224.5,-80.95 224.5,-80.95 974,-80.95 1079.03,-80.95 1175.06,-177.98 1216.05,-225.86"/>
<polygon fill="black" stroke="black" stroke-width="1.2" points="33.41,-256.01 33.49,-266.6 40.04,-258.27 33.41,-256.01"/>
<polygon fill="black" stroke="black" stroke-width="1.2" points="1213.49,-228.25 1222.61,-233.65 1218.85,-223.74 1213.49,-228.25"/>
</g>
<!-- fail_comp1 -->
<g id="node14" class="node">
<title>fail_comp1</title>
<path fill="white" stroke="black" d="M1007,-494.95C1007,-494.95 939,-494.95 939,-494.95 933,-494.95 927,-488.95 927,-482.95 927,-482.95 927,-470.95 927,-470.95 927,-464.95 933,-458.95 939,-458.95 939,-458.95 1007,-458.95 1007,-458.95 1013,-458.95 1019,-464.95 1019,-470.95 1019,-470.95 1019,-482.95 1019,-482.95 1019,-488.95 1013,-494.95 1007,-494.95"/>
<text text-anchor="middle" x="973" y="-473.25" font-family="Helvetica,sans-Serif" font-size="14.00">fail_comp1</text>
</g>
<!-- volt&#45;&gt;fail_comp1 -->
<g id="edge8" class="edge">
<title>volt&#45;&gt;fail_comp1</title>
<path fill="none" stroke="black" stroke-width="1.2" d="M30.52,-313.23C37.18,-383.16 57.08,-562.08 90,-610.95 129.65,-669.79 153.55,-696.95 224.5,-696.95 224.5,-696.95 224.5,-696.95 595,-696.95 747.71,-696.95 893.61,-560.62 948.8,-502.59"/>
<polygon fill="black" stroke="black" stroke-width="1.2" points="33.97,-312.61 29.56,-302.98 27,-313.26 33.97,-312.61"/>
<polygon fill="black" stroke="black" stroke-width="1.2" points="951.68,-504.64 955.97,-494.95 946.57,-499.85 951.68,-504.64"/>
</g>
<!-- err_error2 -->
<g id="node6" class="node">
<title>err_error2</title>
<path fill="white" stroke="black" d="M256,-386.95C256,-386.95 195,-386.95 195,-386.95 189,-386.95 183,-380.95 183,-374.95 183,-374.95 183,-362.95 183,-362.95 183,-356.95 189,-350.95 195,-350.95 195,-350.95 256,-350.95 256,-350.95 262,-350.95 268,-356.95 268,-362.95 268,-362.95 268,-374.95 268,-374.95 268,-380.95 262,-386.95 256,-386.95"/>
<text text-anchor="middle" x="225.5" y="-365.25" font-family="Helvetica,sans-Serif" font-size="14.00">err_error2</text>
</g>
<!-- rotate&#45;&gt;err_error2 -->
<g id="edge12" class="edge">
<title>rotate&#45;&gt;err_error2</title>
<path fill="none" stroke="black" stroke-width="1.2" d="M149.2,-428.32C159.81,-419.61 171.89,-409.78 183,-400.95 186.12,-398.47 189.38,-395.9 192.65,-393.35"/>
<polygon fill="black" stroke="black" stroke-width="1.2" points="146.91,-425.68 141.41,-434.74 151.36,-431.08 146.91,-425.68"/>
<polygon fill="black" stroke="black" stroke-width="1.2" points="194.95,-396 200.71,-387.1 190.66,-390.47 194.95,-396"/>
</g>
<!-- rotate&#45;&gt;err_error3 -->
<g id="edge13" class="edge">
<title>rotate&#45;&gt;err_error3</title>
<path fill="none" stroke="black" stroke-width="1.2" d="M141.41,-471.15C153.59,-481.21 169.06,-493.86 183,-504.95 186.12,-507.42 189.38,-509.99 192.65,-512.54"/>
<polygon fill="black" stroke="black" stroke-width="1.2" points="190.66,-515.42 200.71,-518.79 194.95,-509.89 190.66,-515.42"/>
</g>
<!-- err_error4 -->
<g id="node8" class="node">
<title>err_error4</title>
<path fill="white" stroke="black" d="M1396,-174.95C1396,-174.95 1335,-174.95 1335,-174.95 1329,-174.95 1323,-168.95 1323,-162.95 1323,-162.95 1323,-150.95 1323,-150.95 1323,-144.95 1329,-138.95 1335,-138.95 1335,-138.95 1396,-138.95 1396,-138.95 1402,-138.95 1408,-144.95 1408,-150.95 1408,-150.95 1408,-162.95 1408,-162.95 1408,-168.95 1402,-174.95 1396,-174.95"/>
<text text-anchor="middle" x="1365.5" y="-153.25" font-family="Helvetica,sans-Serif" font-size="14.00">err_error4</text>
</g>
<!-- rotate&#45;&gt;err_error4 -->
<g id="edge14" class="edge">
<title>rotate&#45;&gt;err_error4</title>
<path fill="none" stroke="black" stroke-width="1.2" d="M122.54,-471.33C128.49,-501.17 144.63,-559.86 183,-589.95 239.49,-634.24 269.72,-620.95 341.5,-620.95 341.5,-620.95 341.5,-620.95 595,-620.95 763.4,-620.95 803.6,-658.95 972,-658.95 972,-658.95 972,-658.95 1105,-658.95 1319.86,-658.95 1357.02,-291.57 1363.27,-185.37"/>
<polygon fill="black" stroke="black" stroke-width="1.2" points="1366.78,-185.28 1363.82,-175.11 1359.79,-184.91 1366.78,-185.28"/>
</g>
<!-- rotate&#45;&gt;mnt_comp2 -->
<g id="edge15" class="edge">
<title>rotate&#45;&gt;mnt_comp2</title>
<path fill="none" stroke="black" stroke-width="1.2" d="M124.29,-471.07C132.03,-496.47 149.87,-541.99 183,-563.95 242.14,-603.14 270.55,-582.95 341.5,-582.95 341.5,-582.95 341.5,-582.95 974,-582.95 1128.18,-582.95 1206.42,-360.07 1229.53,-280.09"/>
<polygon fill="black" stroke="black" stroke-width="1.2" points="1232.97,-280.79 1232.31,-270.21 1226.23,-278.89 1232.97,-280.79"/>
</g>
<!-- rotate&#45;&gt;fail_comp1 -->
<g id="edge16" class="edge">
<title>rotate&#45;&gt;fail_comp1</title>
<path fill="none" stroke="black" stroke-width="1.2" d="M147.23,-458.07C158.31,-459.92 171.22,-461.83 183,-462.95 461.9,-489.45 532.88,-479.28 813,-483.95 847.66,-484.52 856.37,-485.44 891,-483.95 899.22,-483.59 907.9,-483.04 916.4,-482.39"/>
<polygon fill="black" stroke="black" stroke-width="1.2" points="916.95,-485.85 926.63,-481.56 916.38,-478.88 916.95,-485.85"/>
</g>
<!-- pressure&#45;&gt;rotate -->
<g id="edge10" class="edge">
<title>pressure&#45;&gt;rotate</title>
<path fill="none" stroke="black" stroke-width="1.2" d="M303.68,-304.71C269.12,-307.2 218.21,-315.55 183,-341.95 155.08,-362.87 137.51,-399.93 128.11,-425.43"/>
<polygon fill="black" stroke="black" stroke-width="1.2" points="124.79,-424.32 124.79,-434.91 131.39,-426.63 124.79,-424.32"/>
</g>
<!-- pressure&#45;&gt;err_error1 -->
<g id="edge18" class="edge">
<title>pressure&#45;&gt;err_error1</title>
<path fill="none" stroke="black" stroke-width="1.2" d="M351.46,-285.88C371.73,-239.86 425.43,-117.96 449.74,-62.78"/>
<polygon fill="black" stroke="black" stroke-width="1.2" points="453.09,-63.85 453.92,-53.29 446.69,-61.03 453.09,-63.85"/>
</g>
<!-- pressure&#45;&gt;err_error4 -->
<g id="edge20" class="edge">
<title>pressure&#45;&gt;err_error4</title>
<path fill="none" stroke="black" stroke-width="1.2" d="M370.1,-278.48C441.59,-212.84 646.37,-42.95 851,-42.95 851,-42.95 851,-42.95 1105,-42.95 1193.71,-42.95 1286.17,-99.48 1333.1,-132.92"/>
<polygon fill="black" stroke="black" stroke-width="1.2" points="367.38,-276.23 362.43,-285.59 372.14,-281.36 367.38,-276.23"/>
<polygon fill="black" stroke="black" stroke-width="1.2" points="1331.18,-135.85 1341.33,-138.88 1335.28,-130.18 1331.18,-135.85"/>
</g>
<!-- pressure&#45;&gt;mnt_comp2 -->
<g id="edge21" class="edge">
<title>pressure&#45;&gt;mnt_comp2</title>
<path fill="none" stroke="black" stroke-width="1.2" d="M381.25,-298.28C451.09,-287.38 597.52,-262.5 643,-238.95 662.27,-228.96 658.77,-213.81 679,-205.95 851.01,-139.04 1074.83,-196.69 1178.97,-230.93"/>
<polygon fill="black" stroke="black" stroke-width="1.2" points="1178.08,-234.32 1188.67,-234.17 1180.3,-227.68 1178.08,-234.32"/>
</g>
<!-- pressure&#45;&gt;fail_comp1 -->
<g id="edge22" class="edge">
<title>pressure&#45;&gt;fail_comp1</title>
<path fill="none" stroke="black" stroke-width="1.2" d="M368.86,-322.17C382.66,-331.56 400.28,-342.73 417,-350.95 528.03,-405.5 558.45,-417.15 679,-444.95 760.38,-463.71 857.08,-471.56 916.49,-474.78"/>
<polygon fill="black" stroke="black" stroke-width="1.2" points="916.61,-478.29 926.78,-475.31 916.97,-471.3 916.61,-478.29"/>
</g>
<!-- fail_comp3 -->
<g id="node15" class="node">
<title>fail_comp3</title>
<path fill="white" stroke="black" d="M497,-341.95C497,-341.95 429,-341.95 429,-341.95 423,-341.95 417,-335.95 417,-329.95 417,-329.95 417,-317.95 417,-317.95 417,-311.95 423,-305.95 429,-305.95 429,-305.95 497,-305.95 497,-305.95 503,-305.95 509,-311.95 509,-317.95 509,-317.95 509,-329.95 509,-329.95 509,-335.95 503,-341.95 497,-341.95"/>
<text text-anchor="middle" x="463" y="-320.25" font-family="Helvetica,sans-Serif" font-size="14.00">fail_comp3</text>
</g>
<!-- pressure&#45;&gt;fail_comp3 -->
<g id="edge23" class="edge">
<title>pressure&#45;&gt;fail_comp3</title>
<path fill="none" stroke="black" stroke-width="1.2" d="M381.32,-310.33C389.4,-311.69 398.1,-313.16 406.68,-314.61"/>
<polygon fill="black" stroke="black" stroke-width="1.2" points="406.22,-318.08 416.67,-316.29 407.39,-311.18 406.22,-318.08"/>
</g>
<!-- vibration&#45;&gt;rotate -->
<g id="edge11" class="edge">
<title>vibration&#45;&gt;rotate</title>
<path fill="none" stroke="black" stroke-width="1.2" d="M812.63,-432.1C686.2,-435.9 283.59,-448.01 157.58,-451.8"/>
<polygon fill="black" stroke="black" stroke-width="1.2" points="157.17,-448.31 147.28,-452.11 157.38,-455.31 157.17,-448.31"/>
</g>
<!-- vibration&#45;&gt;err_error2 -->
<g id="edge24" class="edge">
<title>vibration&#45;&gt;err_error2</title>
<path fill="none" stroke="black" stroke-width="1.2" d="M802.82,-421.11C794.25,-419.57 785.38,-418.1 777,-416.95 594.53,-391.79 376.1,-377.37 278.3,-371.73"/>
<polygon fill="black" stroke="black" stroke-width="1.2" points="802.24,-424.56 812.71,-422.95 803.52,-417.68 802.24,-424.56"/>
<polygon fill="black" stroke="black" stroke-width="1.2" points="278.28,-368.22 268.09,-371.15 277.88,-375.21 278.28,-368.22"/>
</g>
<!-- err_error5 -->
<g id="node9" class="node">
<title>err_error5</title>
<path fill="white" stroke="black" d="M1003.5,-440.95C1003.5,-440.95 942.5,-440.95 942.5,-440.95 936.5,-440.95 930.5,-434.95 930.5,-428.95 930.5,-428.95 930.5,-416.95 930.5,-416.95 930.5,-410.95 936.5,-404.95 942.5,-404.95 942.5,-404.95 1003.5,-404.95 1003.5,-404.95 1009.5,-404.95 1015.5,-410.95 1015.5,-416.95 1015.5,-416.95 1015.5,-428.95 1015.5,-428.95 1015.5,-434.95 1009.5,-440.95 1003.5,-440.95"/>
<text text-anchor="middle" x="973" y="-419.25" font-family="Helvetica,sans-Serif" font-size="14.00">err_error5</text>
</g>
<!-- vibration&#45;&gt;err_error5 -->
<g id="edge26" class="edge">
<title>vibration&#45;&gt;err_error5</title>
<path fill="none" stroke="black" stroke-width="1.2" d="M901.52,-427.68C907.68,-427.27 913.99,-426.85 920.19,-426.43"/>
<polygon fill="black" stroke="black" stroke-width="1.2" points="901.05,-424.21 891.31,-428.37 901.52,-431.19 901.05,-424.21"/>
<polygon fill="black" stroke="black" stroke-width="1.2" points="920.73,-429.9 930.47,-425.74 920.26,-422.92 920.73,-429.9"/>
</g>
<!-- vibration&#45;&gt;fail_comp1 -->
<g id="edge29" class="edge">
<title>vibration&#45;&gt;fail_comp1</title>
<path fill="none" stroke="black" stroke-width="1.2" d="M900.78,-449.42C906.13,-451.48 911.61,-453.6 917.03,-455.7"/>
<polygon fill="black" stroke="black" stroke-width="1.2" points="901.9,-446.09 891.31,-445.75 899.37,-452.62 901.9,-446.09"/>
<polygon fill="black" stroke="black" stroke-width="1.2" points="916.12,-459.1 926.71,-459.44 918.64,-452.57 916.12,-459.1"/>
</g>
<!-- fail_comp4 -->
<g id="node16" class="node">
<title>fail_comp4</title>
<path fill="white" stroke="black" d="M1007,-338.95C1007,-338.95 939,-338.95 939,-338.95 933,-338.95 927,-332.95 927,-326.95 927,-326.95 927,-314.95 927,-314.95 927,-308.95 933,-302.95 939,-302.95 939,-302.95 1007,-302.95 1007,-302.95 1013,-302.95 1019,-308.95 1019,-314.95 1019,-314.95 1019,-326.95 1019,-326.95 1019,-332.95 1013,-338.95 1007,-338.95"/>
<text text-anchor="middle" x="973" y="-317.25" font-family="Helvetica,sans-Serif" font-size="14.00">fail_comp4</text>
</g>
<!-- vibration&#45;&gt;fail_comp4 -->
<g id="edge31" class="edge">
<title>vibration&#45;&gt;fail_comp4</title>
<path fill="none" stroke="black" stroke-width="1.2" d="M875.51,-412.79C880.71,-408.38 886.14,-403.59 891,-398.95 908.06,-382.65 910.06,-376.36 927,-359.95 931.89,-355.21 937.24,-350.33 942.49,-345.69"/>
<polygon fill="black" stroke="black" stroke-width="1.2" points="944.8,-348.32 950.05,-339.12 940.21,-343.04 944.8,-348.32"/>
</g>
<!-- err_error1&#45;&gt;err_error4 -->
<g id="edge32" class="edge">
<title>err_error1&#45;&gt;err_error4</title>
<path fill="none" stroke="black" stroke-width="1.2" d="M505.74,-27.22C557.47,-18.33 648.42,-4.95 727,-4.95 727,-4.95 727,-4.95 1105,-4.95 1186.59,-4.95 1218.7,15.68 1287,-28.95 1323.15,-52.56 1345.03,-99.47 1355.93,-129.47"/>
<polygon fill="black" stroke="black" stroke-width="1.2" points="1352.63,-130.63 1359.21,-138.94 1359.24,-128.34 1352.63,-130.63"/>
</g>
<!-- err_error2&#45;&gt;pressure -->
<g id="edge19" class="edge">
<title>err_error2&#45;&gt;pressure</title>
<path fill="none" stroke="black" stroke-width="1.2" d="M258.53,-350.84C271.62,-343.44 286.91,-334.8 300.77,-326.97"/>
<polygon fill="black" stroke="black" stroke-width="1.2" points="302.65,-329.92 309.64,-321.95 299.21,-323.83 302.65,-329.92"/>
</g>
<!-- err_error3&#45;&gt;vibration -->
<g id="edge25" class="edge">
<title>err_error3&#45;&gt;vibration</title>
<path fill="none" stroke="black" stroke-width="1.2" d="M268.18,-539.22C315.23,-541.58 394.09,-544.95 462,-544.95 462,-544.95 462,-544.95 595,-544.95 682.71,-544.95 773.84,-488.41 820.08,-454.97"/>
<polygon fill="black" stroke="black" stroke-width="1.2" points="822.2,-457.75 828.18,-449.01 818.05,-452.11 822.2,-457.75"/>
</g>
<!-- mnt_comp1 -->
<g id="node10" class="node">
<title>mnt_comp1</title>
<path fill="white" stroke="black" d="M765,-250.95C765,-250.95 691,-250.95 691,-250.95 685,-250.95 679,-244.95 679,-238.95 679,-238.95 679,-226.95 679,-226.95 679,-220.95 685,-214.95 691,-214.95 691,-214.95 765,-214.95 765,-214.95 771,-214.95 777,-220.95 777,-226.95 777,-226.95 777,-238.95 777,-238.95 777,-244.95 771,-250.95 765,-250.95"/>
<text text-anchor="middle" x="728" y="-229.25" font-family="Helvetica,sans-Serif" font-size="14.00">mnt_comp1</text>
</g>
<!-- mnt_comp1&#45;&gt;volt -->
<g id="edge6" class="edge">
<title>mnt_comp1&#45;&gt;volt</title>
<path fill="none" stroke="black" stroke-width="1.2" d="M678.97,-219.39C626.57,-205.82 540.02,-186.95 464,-186.95 224.5,-186.95 224.5,-186.95 224.5,-186.95 159.03,-186.95 92.97,-231.05 56.58,-260.08"/>
<polygon fill="black" stroke="black" stroke-width="1.2" points="53.95,-257.71 48.41,-266.74 58.37,-263.13 53.95,-257.71"/>
</g>
<!-- mnt_comp1&#45;&gt;vibration -->
<g id="edge27" class="edge">
<title>mnt_comp1&#45;&gt;vibration</title>
<path fill="none" stroke="black" stroke-width="1.2" d="M740.26,-251.22C761.87,-286.29 809.24,-363.17 834.45,-404.08"/>
<polygon fill="black" stroke="black" stroke-width="1.2" points="831.54,-406.04 839.77,-412.72 837.5,-402.37 831.54,-406.04"/>
</g>
<!-- mnt_comp1&#45;&gt;err_error4 -->
<g id="edge33" class="edge">
<title>mnt_comp1&#45;&gt;err_error4</title>
<path fill="none" stroke="black" stroke-width="1.2" d="M763.35,-214.93C809.49,-192.46 894.65,-156.95 972,-156.95 972,-156.95 972,-156.95 1105,-156.95 1177.01,-156.95 1260.27,-156.95 1312.65,-156.95"/>
<polygon fill="black" stroke="black" stroke-width="1.2" points="1312.7,-160.45 1322.7,-156.95 1312.7,-153.45 1312.7,-160.45"/>
</g>
<!-- mnt_comp1&#45;&gt;mnt_comp2 -->
<g id="edge35" class="edge">
<title>mnt_comp1&#45;&gt;mnt_comp2</title>
<path fill="none" stroke="black" stroke-width="1.2" d="M777.25,-234.75C870.99,-238.26 1077.39,-245.98 1178.65,-249.76"/>
<polygon fill="black" stroke="black" stroke-width="1.2" points="1178.58,-253.26 1188.7,-250.14 1178.84,-246.27 1178.58,-253.26"/>
</g>
<!-- mnt_comp2&#45;&gt;err_error4 -->
<g id="edge34" class="edge">
<title>mnt_comp2&#45;&gt;err_error4</title>
<path fill="none" stroke="black" stroke-width="1.2" d="M1262.9,-233.85C1282.62,-218.93 1310.76,-197.62 1332.44,-181.22"/>
<polygon fill="black" stroke="black" stroke-width="1.2" points="1334.83,-183.8 1340.69,-174.97 1330.6,-178.22 1334.83,-183.8"/>
</g>
<!-- mnt_comp3 -->
<g id="node12" class="node">
<title>mnt_comp3</title>
<path fill="white" stroke="black" d="M631,-326.95C631,-326.95 557,-326.95 557,-326.95 551,-326.95 545,-320.95 545,-314.95 545,-314.95 545,-302.95 545,-302.95 545,-296.95 551,-290.95 557,-290.95 557,-290.95 631,-290.95 631,-290.95 637,-290.95 643,-296.95 643,-302.95 643,-302.95 643,-314.95 643,-314.95 643,-320.95 637,-326.95 631,-326.95"/>
<text text-anchor="middle" x="594" y="-305.25" font-family="Helvetica,sans-Serif" font-size="14.00">mnt_comp3</text>
</g>
<!-- mnt_comp3&#45;&gt;mnt_comp1 -->
<g id="edge36" class="edge">
<title>mnt_comp3&#45;&gt;mnt_comp1</title>
<path fill="none" stroke="black" stroke-width="1.2" d="M626.28,-290.93C644.32,-280.55 667.18,-267.39 686.57,-256.22"/>
<polygon fill="black" stroke="black" stroke-width="1.2" points="688.57,-259.11 695.48,-251.09 685.07,-253.05 688.57,-259.11"/>
</g>
<!-- mnt_comp3&#45;&gt;mnt_comp2 -->
<g id="edge39" class="edge">
<title>mnt_comp3&#45;&gt;mnt_comp2</title>
<path fill="none" stroke="black" stroke-width="1.2" d="M643.25,-304.66C759.12,-294.37 1052.73,-268.31 1178.43,-257.15"/>
<polygon fill="black" stroke="black" stroke-width="1.2" points="1178.97,-260.61 1188.62,-256.24 1178.35,-253.64 1178.97,-260.61"/>
</g>
<!-- mnt_comp4 -->
<g id="node13" class="node">
<title>mnt_comp4</title>
<path fill="white" stroke="black" d="M1141,-338.95C1141,-338.95 1067,-338.95 1067,-338.95 1061,-338.95 1055,-332.95 1055,-326.95 1055,-326.95 1055,-314.95 1055,-314.95 1055,-308.95 1061,-302.95 1067,-302.95 1067,-302.95 1141,-302.95 1141,-302.95 1147,-302.95 1153,-308.95 1153,-314.95 1153,-314.95 1153,-326.95 1153,-326.95 1153,-332.95 1147,-338.95 1141,-338.95"/>
<text text-anchor="middle" x="1104" y="-317.25" font-family="Helvetica,sans-Serif" font-size="14.00">mnt_comp4</text>
</g>
<!-- mnt_comp4&#45;&gt;vibration -->
<g id="edge28" class="edge">
<title>mnt_comp4&#45;&gt;vibration</title>
<path fill="none" stroke="black" stroke-width="1.2" d="M1059.4,-338.97C1023.66,-353.88 971.84,-375.8 927,-395.95 918.15,-399.92 908.75,-404.27 899.74,-408.5"/>
<polygon fill="black" stroke="black" stroke-width="1.2" points="898.06,-405.42 890.51,-412.86 901.05,-411.75 898.06,-405.42"/>
</g>
<!-- mnt_comp4&#45;&gt;mnt_comp2 -->
<g id="edge40" class="edge">
<title>mnt_comp4&#45;&gt;mnt_comp2</title>
<path fill="none" stroke="black" stroke-width="1.2" d="M1139.68,-302.82C1156.2,-294.18 1176.13,-283.76 1193.64,-274.61"/>
<polygon fill="black" stroke="black" stroke-width="1.2" points="1195.31,-277.69 1202.55,-269.95 1192.07,-271.48 1195.31,-277.69"/>
</g>
<!-- fail_comp1&#45;&gt;mnt_comp1 -->
<g id="edge37" class="edge">
<title>fail_comp1&#45;&gt;mnt_comp1</title>
<path fill="none" stroke="black" stroke-width="1.2" d="M938.58,-458.81C934.52,-456.06 930.55,-453.08 927,-449.95 907.54,-432.76 907.95,-423.61 891,-403.95 845.03,-350.6 787.61,-291.65 754.94,-258.77"/>
<polygon fill="black" stroke="black" stroke-width="1.2" points="757.11,-256 747.58,-251.38 752.16,-260.94 757.11,-256"/>
</g>
<!-- fail_comp1&#45;&gt;mnt_comp2 -->
<g id="edge41" class="edge">
<title>fail_comp1&#45;&gt;mnt_comp2</title>
<path fill="none" stroke="black" stroke-width="1.2" d="M1005.27,-458.8C1009.92,-455.92 1014.63,-452.91 1019,-449.95 1080.96,-407.96 1098.3,-399.03 1153,-347.95 1176.47,-326.02 1200.31,-298.13 1216.56,-278.07"/>
<polygon fill="black" stroke="black" stroke-width="1.2" points="1219.3,-280.25 1222.83,-270.26 1213.84,-275.87 1219.3,-280.25"/>
</g>
<!-- fail_comp3&#45;&gt;rotate -->
<g id="edge17" class="edge">
<title>fail_comp3&#45;&gt;rotate</title>
<path fill="none" stroke="black" stroke-width="1.2" d="M416.98,-340.9C348.7,-366.62 220.24,-415 156.84,-438.88"/>
<polygon fill="black" stroke="black" stroke-width="1.2" points="155.36,-435.7 147.24,-442.5 157.83,-442.25 155.36,-435.7"/>
</g>
<!-- fail_comp3&#45;&gt;vibration -->
<g id="edge30" class="edge">
<title>fail_comp3&#45;&gt;vibration</title>
<path fill="none" stroke="black" stroke-width="1.2" d="M509.27,-330.78C589.98,-343.14 752.63,-368.84 777,-378.95 793.18,-385.66 809.31,-396.4 822.36,-406.38"/>
<polygon fill="black" stroke="black" stroke-width="1.2" points="820.45,-409.32 830.47,-412.77 824.79,-403.83 820.45,-409.32"/>
</g>
<!-- fail_comp3&#45;&gt;mnt_comp3 -->
<g id="edge42" class="edge">
<title>fail_comp3&#45;&gt;mnt_comp3</title>
<path fill="none" stroke="black" stroke-width="1.2" d="M509.12,-318.7C517.37,-317.74 526.09,-316.73 534.66,-315.73"/>
<polygon fill="black" stroke="black" stroke-width="1.2" points="535.09,-319.2 544.62,-314.57 534.28,-312.25 535.09,-319.2"/>
</g>
<!-- fail_comp4&#45;&gt;volt -->
<g id="edge9" class="edge">
<title>fail_comp4&#45;&gt;volt</title>
<path fill="none" stroke="black" stroke-width="1.2" d="M950.23,-302.86C894.77,-258.7 742.12,-148.95 595,-148.95 224.5,-148.95 224.5,-148.95 224.5,-148.95 160.25,-148.95 141.06,-162.94 90,-201.95 70.28,-217.01 53.81,-239.94 42.81,-257.88"/>
<polygon fill="black" stroke="black" stroke-width="1.2" points="39.65,-256.36 37.57,-266.75 45.68,-259.92 39.65,-256.36"/>
</g>
<!-- fail_comp4&#45;&gt;mnt_comp1 -->
<g id="edge38" class="edge">
<title>fail_comp4&#45;&gt;mnt_comp1</title>
<path fill="none" stroke="black" stroke-width="1.2" d="M926.96,-304.64C887.34,-290.29 829.44,-269.32 786.48,-253.76"/>
<polygon fill="black" stroke="black" stroke-width="1.2" points="787.6,-250.45 777.01,-250.33 785.22,-257.03 787.6,-250.45"/>
</g>
<!-- fail_comp4&#45;&gt;mnt_comp3 -->
<g id="edge43" class="edge">
<title>fail_comp4&#45;&gt;mnt_comp3</title>
<path fill="none" stroke="black" stroke-width="1.2" d="M926.8,-319.51C858.46,-317.33 728.81,-313.21 653.4,-310.8"/>
<polygon fill="black" stroke="black" stroke-width="1.2" points="653.24,-307.3 643.13,-310.48 653.01,-314.29 653.24,-307.3"/>
</g>
<!-- fail_comp4&#45;&gt;mnt_comp4 -->
<g id="edge44" class="edge">
<title>fail_comp4&#45;&gt;mnt_comp4</title>
<path fill="none" stroke="black" stroke-width="1.2" d="M1019.12,-320.95C1027.28,-320.95 1035.9,-320.95 1044.38,-320.95"/>
<polygon fill="black" stroke="black" stroke-width="1.2" points="1044.62,-324.45 1054.62,-320.95 1044.62,-317.45 1044.62,-324.45"/>
</g>
</g>
</svg>
