<?xml version="1.0" encoding="UTF-8" standalone="no"?>
<!DOCTYPE svg PUBLIC "-//W3C//DTD SVG 1.1//EN"
 "http://www.w3.org/Graphics/SVG/1.1/DTD/svg11.dtd">
<!-- Generated by graphviz version 2.50.0 (0)
 -->
<!-- Title: G Pages: 1 -->
<svg width="454pt" height="131pt"
 viewBox="0.00 0.00 454.00 131.00" xmlns="http://www.w3.org/2000/svg" xmlns:xlink="http://www.w3.org/1999/xlink">
<g id="graph0" class="graph" transform="scale(1 1) rotate(0) translate(4 127)">
<title>G</title>
<polygon fill="white" stroke="transparent" points="-4,4 -4,-127 450,-127 450,4 -4,4"/>
<text text-anchor="middle" x="223" y="-106.2" font-family="Times,serif" font-size="16.00">model=model2/cbnb_w_telemetry.json [machine 20]</text>
<!-- volt -->
<g id="node1" class="node">
<title>volt</title>
<path fill="white" stroke="black" d="M78,-51C78,-51 48,-51 48,-51 42,-51 36,-45 36,-39 36,-39 36,-27 36,-27 36,-21 42,-15 48,-15 48,-15 78,-15 78,-15 84,-15 90,-21 90,-27 90,-27 90,-39 90,-39 90,-45 84,-51 78,-51"/>
<text text-anchor="middle" x="63" y="-29.3" font-family="Helvetica,sans-Serif" font-size="14.00">volt</text>
</g>
<!-- rotate -->
<g id="node2" class="node">
<title>rotate</title>
<path fill="white" stroke="black" d="M171,-97C171,-97 138,-97 138,-97 132,-97 126,-91 126,-85 126,-85 126,-73 126,-73 126,-67 132,-61 138,-61 138,-61 171,-61 171,-61 177,-61 183,-67 183,-73 183,-73 183,-85 183,-85 183,-91 177,-97 171,-97"/>
<text text-anchor="middle" x="154.5" y="-75.3" font-family="Helvetica,sans-Serif" font-size="14.00">rotate</text>
</g>
<!-- volt&#45;&gt;rotate -->
<g id="edge1" class="edge">
<title>volt&#45;&gt;rotate</title>
<path fill="none" stroke="black" stroke-width="1.2" d="M90.37,-46.55C98.64,-50.8 107.91,-55.57 116.76,-60.12"/>
<polygon fill="black" stroke="black" stroke-width="1.2" points="115.27,-63.29 125.76,-64.74 118.47,-57.06 115.27,-63.29"/>
</g>
<!-- pressure -->
<g id="node3" class="node">
<title>pressure</title>
<path fill="white" stroke="black" d="M284,-59C284,-59 231,-59 231,-59 225,-59 219,-53 219,-47 219,-47 219,-35 219,-35 219,-29 225,-23 231,-23 231,-23 284,-23 284,-23 290,-23 296,-29 296,-35 296,-35 296,-47 296,-47 296,-53 290,-59 284,-59"/>
<text text-anchor="middle" x="257.5" y="-37.3" font-family="Helvetica,sans-Serif" font-size="14.00">pressure</text>
</g>
<!-- rotate&#45;&gt;pressure -->
<g id="edge4" class="edge">
<title>rotate&#45;&gt;pressure</title>
<path fill="none" stroke="black" stroke-width="1.2" d="M183.1,-68.62C191.16,-65.58 200.21,-62.18 209.14,-58.82"/>
<polygon fill="black" stroke="black" stroke-width="1.2" points="210.58,-62.01 218.71,-55.22 208.12,-55.46 210.58,-62.01"/>
</g>
<!-- pressure&#45;&gt;volt -->
<g id="edge2" class="edge">
<title>pressure&#45;&gt;volt</title>
<path fill="none" stroke="black" stroke-width="1.2" d="M218.89,-39.44C184.73,-38.02 134.65,-35.94 100.76,-34.53"/>
<polygon fill="black" stroke="black" stroke-width="1.2" points="100.5,-31.01 90.36,-34.1 100.21,-38.01 100.5,-31.01"/>
</g>
<!-- vibration -->
<g id="node4" class="node">
<title>vibration</title>
<path fill="white" stroke="black" d="M398,-36C398,-36 344,-36 344,-36 338,-36 332,-30 332,-24 332,-24 332,-12 332,-12 332,-6 338,0 344,0 344,0 398,0 398,0 404,0 410,-6 410,-12 410,-12 410,-24 410,-24 410,-30 404,-36 398,-36"/>
<text text-anchor="middle" x="371" y="-14.3" font-family="Helvetica,sans-Serif" font-size="14.00">vibration</text>
</g>
<!-- pressure&#45;&gt;vibration -->
<g id="edge5" class="edge">
<title>pressure&#45;&gt;vibration</title>
<path fill="none" stroke="black" stroke-width="1.2" d="M296.25,-33.21C304.51,-31.51 313.37,-29.68 321.97,-27.91"/>
<polygon fill="black" stroke="black" stroke-width="1.2" points="322.82,-31.31 331.91,-25.86 321.41,-24.45 322.82,-31.31"/>
</g>
<!-- vibration&#45;&gt;volt -->
<g id="edge3" class="edge">
<title>vibration&#45;&gt;volt</title>
<path fill="none" stroke="black" stroke-width="1.2" d="M331.99,-15.55C320.44,-14.91 307.7,-14.32 296,-14 261.79,-13.08 253.16,-11.91 219,-14 178.16,-16.49 131.59,-22.65 100.25,-27.29"/>
<polygon fill="black" stroke="black" stroke-width="1.2" points="99.61,-23.84 90.24,-28.79 100.65,-30.77 99.61,-23.84"/>
</g>
</g>
</svg>
