<?xml version="1.0" encoding="UTF-8" standalone="no"?>
<!DOCTYPE svg PUBLIC "-//W3C//DTD SVG 1.1//EN"
 "http://www.w3.org/Graphics/SVG/1.1/DTD/svg11.dtd">
<!-- Generated by graphviz version 2.50.0 (0)
 -->
<!-- Title: G Pages: 1 -->
<svg width="439pt" height="232pt"
 viewBox="0.00 0.00 439.00 232.00" xmlns="http://www.w3.org/2000/svg" xmlns:xlink="http://www.w3.org/1999/xlink">
<g id="graph0" class="graph" transform="scale(1 1) rotate(0) translate(4 228)">
<title>G</title>
<polygon fill="white" stroke="transparent" points="-4,4 -4,-228 435,-228 435,4 -4,4"/>
<text text-anchor="middle" x="215.5" y="-207.2" font-family="Times,serif" font-size="16.00">model=model4/cbnb_e_telemetry.json [aggregate]</text>
<!-- pressure -->
<g id="node1" class="node">
<title>pressure</title>
<path fill="white" stroke="black" d="M242,-36C242,-36 189,-36 189,-36 183,-36 177,-30 177,-24 177,-24 177,-12 177,-12 177,-6 183,0 189,0 189,0 242,0 242,0 248,0 254,-6 254,-12 254,-12 254,-24 254,-24 254,-30 248,-36 242,-36"/>
<text text-anchor="middle" x="215.5" y="-14.3" font-family="Helvetica,sans-Serif" font-size="14.00">pressure</text>
</g>
<!-- rotate -->
<g id="node2" class="node">
<title>rotate</title>
<path fill="white" stroke="black" d="M232,-90C232,-90 199,-90 199,-90 193,-90 187,-84 187,-78 187,-78 187,-66 187,-66 187,-60 193,-54 199,-54 199,-54 232,-54 232,-54 238,-54 244,-60 244,-66 244,-66 244,-78 244,-78 244,-84 238,-90 232,-90"/>
<text text-anchor="middle" x="215.5" y="-68.3" font-family="Helvetica,sans-Serif" font-size="14.00">rotate</text>
</g>
<!-- vibration -->
<g id="node3" class="node">
<title>vibration</title>
<path fill="white" stroke="black" d="M242.5,-144C242.5,-144 188.5,-144 188.5,-144 182.5,-144 176.5,-138 176.5,-132 176.5,-132 176.5,-120 176.5,-120 176.5,-114 182.5,-108 188.5,-108 188.5,-108 242.5,-108 242.5,-108 248.5,-108 254.5,-114 254.5,-120 254.5,-120 254.5,-132 254.5,-132 254.5,-138 248.5,-144 242.5,-144"/>
<text text-anchor="middle" x="215.5" y="-122.3" font-family="Helvetica,sans-Serif" font-size="14.00">vibration</text>
</g>
<!-- volt -->
<g id="node4" class="node">
<title>volt</title>
<path fill="white" stroke="black" d="M230.5,-198C230.5,-198 200.5,-198 200.5,-198 194.5,-198 188.5,-192 188.5,-186 188.5,-186 188.5,-174 188.5,-174 188.5,-168 194.5,-162 200.5,-162 200.5,-162 230.5,-162 230.5,-162 236.5,-162 242.5,-168 242.5,-174 242.5,-174 242.5,-186 242.5,-186 242.5,-192 236.5,-198 230.5,-198"/>
<text text-anchor="middle" x="215.5" y="-176.3" font-family="Helvetica,sans-Serif" font-size="14.00">volt</text>
</g>
</g>
</svg>
