<?xml version="1.0" encoding="UTF-8" standalone="no"?>
<!DOCTYPE svg PUBLIC "-//W3C//DTD SVG 1.1//EN"
 "http://www.w3.org/Graphics/SVG/1.1/DTD/svg11.dtd">
<!-- Generated by graphviz version 2.50.0 (0)
 -->
<!-- Title: G Pages: 1 -->
<svg width="454pt" height="124pt"
 viewBox="0.00 0.00 454.00 124.00" xmlns="http://www.w3.org/2000/svg" xmlns:xlink="http://www.w3.org/1999/xlink">
<g id="graph0" class="graph" transform="scale(1 1) rotate(0) translate(4 120)">
<title>G</title>
<polygon fill="white" stroke="transparent" points="-4,4 -4,-120 450,-120 450,4 -4,4"/>
<text text-anchor="middle" x="223" y="-99.2" font-family="Times,serif" font-size="16.00">model=model3/cbnb_w_telemetry.json [machine 82]</text>
<!-- volt -->
<g id="node1" class="node">
<title>volt</title>
<path fill="white" stroke="black" d="M238.5,-82C238.5,-82 208.5,-82 208.5,-82 202.5,-82 196.5,-76 196.5,-70 196.5,-70 196.5,-58 196.5,-58 196.5,-52 202.5,-46 208.5,-46 208.5,-46 238.5,-46 238.5,-46 244.5,-46 250.5,-52 250.5,-58 250.5,-58 250.5,-70 250.5,-70 250.5,-76 244.5,-82 238.5,-82"/>
<text text-anchor="middle" x="223.5" y="-60.3" font-family="Helvetica,sans-Serif" font-size="14.00">volt</text>
</g>
<!-- rotate -->
<g id="node2" class="node">
<title>rotate</title>
<path fill="white" stroke="black" d="M341.5,-90C341.5,-90 308.5,-90 308.5,-90 302.5,-90 296.5,-84 296.5,-78 296.5,-78 296.5,-66 296.5,-66 296.5,-60 302.5,-54 308.5,-54 308.5,-54 341.5,-54 341.5,-54 347.5,-54 353.5,-60 353.5,-66 353.5,-66 353.5,-78 353.5,-78 353.5,-84 347.5,-90 341.5,-90"/>
<text text-anchor="middle" x="325" y="-68.3" font-family="Helvetica,sans-Serif" font-size="14.00">rotate</text>
</g>
<!-- volt&#45;&gt;rotate -->
<g id="edge1" class="edge">
<title>volt&#45;&gt;rotate</title>
<path fill="none" stroke="black" stroke-width="1.2" d="M260.62,-66.9C268.89,-67.57 277.71,-68.28 286.05,-68.95"/>
<polygon fill="black" stroke="black" stroke-width="1.2" points="260.89,-63.41 250.64,-66.1 260.33,-70.39 260.89,-63.41"/>
<polygon fill="black" stroke="black" stroke-width="1.2" points="286.04,-72.46 296.29,-69.77 286.6,-65.48 286.04,-72.46"/>
</g>
<!-- pressure -->
<g id="node3" class="node">
<title>pressure</title>
<path fill="white" stroke="black" d="M351.5,-36C351.5,-36 298.5,-36 298.5,-36 292.5,-36 286.5,-30 286.5,-24 286.5,-24 286.5,-12 286.5,-12 286.5,-6 292.5,0 298.5,0 298.5,0 351.5,0 351.5,0 357.5,0 363.5,-6 363.5,-12 363.5,-12 363.5,-24 363.5,-24 363.5,-30 357.5,-36 351.5,-36"/>
<text text-anchor="middle" x="325" y="-14.3" font-family="Helvetica,sans-Serif" font-size="14.00">pressure</text>
</g>
<!-- volt&#45;&gt;pressure -->
<g id="edge2" class="edge">
<title>volt&#45;&gt;pressure</title>
<path fill="none" stroke="black" stroke-width="1.2" d="M250.64,-51.91C258.85,-48.12 268.17,-43.81 277.35,-39.57"/>
<polygon fill="black" stroke="black" stroke-width="1.2" points="278.82,-42.74 286.43,-35.37 275.89,-36.39 278.82,-42.74"/>
</g>
<!-- vibration -->
<g id="node4" class="node">
<title>vibration</title>
<path fill="white" stroke="black" d="M148.5,-59C148.5,-59 94.5,-59 94.5,-59 88.5,-59 82.5,-53 82.5,-47 82.5,-47 82.5,-35 82.5,-35 82.5,-29 88.5,-23 94.5,-23 94.5,-23 148.5,-23 148.5,-23 154.5,-23 160.5,-29 160.5,-35 160.5,-35 160.5,-47 160.5,-47 160.5,-53 154.5,-59 148.5,-59"/>
<text text-anchor="middle" x="121.5" y="-37.3" font-family="Helvetica,sans-Serif" font-size="14.00">vibration</text>
</g>
<!-- vibration&#45;&gt;volt -->
<g id="edge3" class="edge">
<title>vibration&#45;&gt;volt</title>
<path fill="none" stroke="black" stroke-width="1.2" d="M160.59,-49.76C169.07,-51.71 178.03,-53.77 186.42,-55.7"/>
<polygon fill="black" stroke="black" stroke-width="1.2" points="185.77,-59.14 196.3,-57.97 187.34,-52.32 185.77,-59.14"/>
</g>
<!-- vibration&#45;&gt;pressure -->
<g id="edge4" class="edge">
<title>vibration&#45;&gt;pressure</title>
<path fill="none" stroke="black" stroke-width="1.2" d="M160.87,-36.62C193.72,-32.87 241.13,-27.46 276.39,-23.43"/>
<polygon fill="black" stroke="black" stroke-width="1.2" points="276.91,-26.9 286.45,-22.29 276.12,-19.94 276.91,-26.9"/>
</g>
</g>
</svg>
