<?xml version="1.0" encoding="UTF-8" standalone="no"?>
<!DOCTYPE svg PUBLIC "-//W3C//DTD SVG 1.1//EN"
 "http://www.w3.org/Graphics/SVG/1.1/DTD/svg11.dtd">
<!-- Generated by graphviz version 2.50.0 (0)
 -->
<!-- Title: G Pages: 1 -->
<svg width="451pt" height="124pt"
 viewBox="0.00 0.00 451.00 124.00" xmlns="http://www.w3.org/2000/svg" xmlns:xlink="http://www.w3.org/1999/xlink">
<g id="graph0" class="graph" transform="scale(1 1) rotate(0) translate(4 120)">
<title>G</title>
<polygon fill="white" stroke="transparent" points="-4,4 -4,-120 447,-120 447,4 -4,4"/>
<text text-anchor="middle" x="221.5" y="-99.2" font-family="Times,serif" font-size="16.00">model=model4/cbnb_e_telemetry.json [machine 62]</text>
<!-- volt -->
<g id="node1" class="node">
<title>volt</title>
<path fill="white" stroke="black" d="M133,-36C133,-36 103,-36 103,-36 97,-36 91,-30 91,-24 91,-24 91,-12 91,-12 91,-6 97,0 103,0 103,0 133,0 133,0 139,0 145,-6 145,-12 145,-12 145,-24 145,-24 145,-30 139,-36 133,-36"/>
<text text-anchor="middle" x="118" y="-14.3" font-family="Helvetica,sans-Serif" font-size="14.00">volt</text>
</g>
<!-- vibration -->
<g id="node4" class="node">
<title>vibration</title>
<path fill="white" stroke="black" d="M258.5,-36C258.5,-36 204.5,-36 204.5,-36 198.5,-36 192.5,-30 192.5,-24 192.5,-24 192.5,-12 192.5,-12 192.5,-6 198.5,0 204.5,0 204.5,0 258.5,0 258.5,0 264.5,0 270.5,-6 270.5,-12 270.5,-12 270.5,-24 270.5,-24 270.5,-30 264.5,-36 258.5,-36"/>
<text text-anchor="middle" x="231.5" y="-14.3" font-family="Helvetica,sans-Serif" font-size="14.00">vibration</text>
</g>
<!-- volt&#45;&gt;vibration -->
<g id="edge1" class="edge">
<title>volt&#45;&gt;vibration</title>
<path fill="none" stroke="black" stroke-width="1.2" d="M145.14,-18C156.21,-18 169.48,-18 182.22,-18"/>
<polygon fill="black" stroke="black" stroke-width="1.2" points="182.27,-21.5 192.27,-18 182.27,-14.5 182.27,-21.5"/>
</g>
<!-- rotate -->
<g id="node2" class="node">
<title>rotate</title>
<path fill="white" stroke="black" d="M351.5,-36C351.5,-36 318.5,-36 318.5,-36 312.5,-36 306.5,-30 306.5,-24 306.5,-24 306.5,-12 306.5,-12 306.5,-6 312.5,0 318.5,0 318.5,0 351.5,0 351.5,0 357.5,0 363.5,-6 363.5,-12 363.5,-12 363.5,-24 363.5,-24 363.5,-30 357.5,-36 351.5,-36"/>
<text text-anchor="middle" x="335" y="-14.3" font-family="Helvetica,sans-Serif" font-size="14.00">rotate</text>
</g>
<!-- pressure -->
<g id="node3" class="node">
<title>pressure</title>
<path fill="white" stroke="black" d="M144.5,-90C144.5,-90 91.5,-90 91.5,-90 85.5,-90 79.5,-84 79.5,-78 79.5,-78 79.5,-66 79.5,-66 79.5,-60 85.5,-54 91.5,-54 91.5,-54 144.5,-54 144.5,-54 150.5,-54 156.5,-60 156.5,-66 156.5,-66 156.5,-78 156.5,-78 156.5,-84 150.5,-90 144.5,-90"/>
<text text-anchor="middle" x="118" y="-68.3" font-family="Helvetica,sans-Serif" font-size="14.00">pressure</text>
</g>
<!-- vibration&#45;&gt;rotate -->
<g id="edge2" class="edge">
<title>vibration&#45;&gt;rotate</title>
<path fill="none" stroke="black" stroke-width="1.2" d="M270.58,-18C278.97,-18 287.85,-18 296.22,-18"/>
<polygon fill="black" stroke="black" stroke-width="1.2" points="296.48,-21.5 306.48,-18 296.48,-14.5 296.48,-21.5"/>
</g>
</g>
</svg>
