<?xml version="1.0" encoding="UTF-8" standalone="no"?>
<!DOCTYPE svg PUBLIC "-//W3C//DTD SVG 1.1//EN"
 "http://www.w3.org/Graphics/SVG/1.1/DTD/svg11.dtd">
<!-- Generated by graphviz version 2.50.0 (0)
 -->
<!-- Title: G Pages: 1 -->
<svg width="413pt" height="772pt"
 viewBox="0.00 0.00 413.00 772.00" xmlns="http://www.w3.org/2000/svg" xmlns:xlink="http://www.w3.org/1999/xlink">
<g id="graph0" class="graph" transform="scale(1 1) rotate(0) translate(4 768)">
<title>G</title>
<polygon fill="white" stroke="transparent" points="-4,4 -4,-768 409,-768 409,4 -4,4"/>
<text text-anchor="middle" x="202.5" y="-747.2" font-family="Times,serif" font-size="16.00">model=model3/gcmvl_mixed.json [machine 19]</text>
<!-- volt -->
<g id="node1" class="node">
<title>volt</title>
<path fill="white" stroke="black" d="M160.5,-36C160.5,-36 130.5,-36 130.5,-36 124.5,-36 118.5,-30 118.5,-24 118.5,-24 118.5,-12 118.5,-12 118.5,-6 124.5,0 130.5,0 130.5,0 160.5,0 160.5,0 166.5,0 172.5,-6 172.5,-12 172.5,-12 172.5,-24 172.5,-24 172.5,-30 166.5,-36 160.5,-36"/>
<text text-anchor="middle" x="145.5" y="-14.3" font-family="Helvetica,sans-Serif" font-size="14.00">volt</text>
</g>
<!-- rotate -->
<g id="node2" class="node">
<title>rotate</title>
<path fill="white" stroke="black" d="M162,-90C162,-90 129,-90 129,-90 123,-90 117,-84 117,-78 117,-78 117,-66 117,-66 117,-60 123,-54 129,-54 129,-54 162,-54 162,-54 168,-54 174,-60 174,-66 174,-66 174,-78 174,-78 174,-84 168,-90 162,-90"/>
<text text-anchor="middle" x="145.5" y="-68.3" font-family="Helvetica,sans-Serif" font-size="14.00">rotate</text>
</g>
<!-- pressure -->
<g id="node3" class="node">
<title>pressure</title>
<path fill="white" stroke="black" d="M172,-144C172,-144 119,-144 119,-144 113,-144 107,-138 107,-132 107,-132 107,-120 107,-120 107,-114 113,-108 119,-108 119,-108 172,-108 172,-108 178,-108 184,-114 184,-120 184,-120 184,-132 184,-132 184,-138 178,-144 172,-144"/>
<text text-anchor="middle" x="145.5" y="-122.3" font-family="Helvetica,sans-Serif" font-size="14.00">pressure</text>
</g>
<!-- vibration -->
<g id="node4" class="node">
<title>vibration</title>
<path fill="white" stroke="black" d="M296.5,-333C296.5,-333 242.5,-333 242.5,-333 236.5,-333 230.5,-327 230.5,-321 230.5,-321 230.5,-309 230.5,-309 230.5,-303 236.5,-297 242.5,-297 242.5,-297 296.5,-297 296.5,-297 302.5,-297 308.5,-303 308.5,-309 308.5,-309 308.5,-321 308.5,-321 308.5,-327 302.5,-333 296.5,-333"/>
<text text-anchor="middle" x="269.5" y="-311.3" font-family="Helvetica,sans-Serif" font-size="14.00">vibration</text>
</g>
<!-- err_error1 -->
<g id="node5" class="node">
<title>err_error1</title>
<path fill="white" stroke="black" d="M176,-522C176,-522 115,-522 115,-522 109,-522 103,-516 103,-510 103,-510 103,-498 103,-498 103,-492 109,-486 115,-486 115,-486 176,-486 176,-486 182,-486 188,-492 188,-498 188,-498 188,-510 188,-510 188,-516 182,-522 176,-522"/>
<text text-anchor="middle" x="145.5" y="-500.3" font-family="Helvetica,sans-Serif" font-size="14.00">err_error1</text>
</g>
<!-- err_error2 -->
<g id="node6" class="node">
<title>err_error2</title>
<path fill="white" stroke="black" d="M176,-468C176,-468 115,-468 115,-468 109,-468 103,-462 103,-456 103,-456 103,-444 103,-444 103,-438 109,-432 115,-432 115,-432 176,-432 176,-432 182,-432 188,-438 188,-444 188,-444 188,-456 188,-456 188,-462 182,-468 176,-468"/>
<text text-anchor="middle" x="145.5" y="-446.3" font-family="Helvetica,sans-Serif" font-size="14.00">err_error2</text>
</g>
<!-- err_error2&#45;&gt;vibration -->
<g id="edge1" class="edge">
<title>err_error2&#45;&gt;vibration</title>
<path fill="none" stroke="black" stroke-width="1.2" d="M182.87,-431.96C186.99,-429.22 190.97,-426.23 194.5,-423 219.99,-399.67 241.31,-365.95 254.42,-342.42"/>
<polygon fill="black" stroke="black" stroke-width="1.2" points="257.66,-343.78 259.35,-333.32 251.51,-340.44 257.66,-343.78"/>
</g>
<!-- err_error3 -->
<g id="node7" class="node">
<title>err_error3</title>
<path fill="white" stroke="black" d="M176,-576C176,-576 115,-576 115,-576 109,-576 103,-570 103,-564 103,-564 103,-552 103,-552 103,-546 109,-540 115,-540 115,-540 176,-540 176,-540 182,-540 188,-546 188,-552 188,-552 188,-564 188,-564 188,-570 182,-576 176,-576"/>
<text text-anchor="middle" x="145.5" y="-554.3" font-family="Helvetica,sans-Serif" font-size="14.00">err_error3</text>
</g>
<!-- err_error4 -->
<g id="node8" class="node">
<title>err_error4</title>
<path fill="white" stroke="black" d="M176,-414C176,-414 115,-414 115,-414 109,-414 103,-408 103,-402 103,-402 103,-390 103,-390 103,-384 109,-378 115,-378 115,-378 176,-378 176,-378 182,-378 188,-384 188,-390 188,-390 188,-402 188,-402 188,-408 182,-414 176,-414"/>
<text text-anchor="middle" x="145.5" y="-392.3" font-family="Helvetica,sans-Serif" font-size="14.00">err_error4</text>
</g>
<!-- err_error4&#45;&gt;vibration -->
<g id="edge2" class="edge">
<title>err_error4&#45;&gt;vibration</title>
<path fill="none" stroke="black" stroke-width="1.2" d="M179.85,-377.91C184.82,-375.03 189.84,-372 194.5,-369 208.77,-359.83 223.99,-348.93 236.89,-339.33"/>
<polygon fill="black" stroke="black" stroke-width="1.2" points="239.11,-342.04 245.01,-333.24 234.91,-336.44 239.11,-342.04"/>
</g>
<!-- err_error5 -->
<g id="node9" class="node">
<title>err_error5</title>
<path fill="white" stroke="black" d="M176,-360C176,-360 115,-360 115,-360 109,-360 103,-354 103,-348 103,-348 103,-336 103,-336 103,-330 109,-324 115,-324 115,-324 176,-324 176,-324 182,-324 188,-330 188,-336 188,-336 188,-348 188,-348 188,-354 182,-360 176,-360"/>
<text text-anchor="middle" x="145.5" y="-338.3" font-family="Helvetica,sans-Serif" font-size="14.00">err_error5</text>
</g>
<!-- err_error5&#45;&gt;vibration -->
<g id="edge3" class="edge">
<title>err_error5&#45;&gt;vibration</title>
<path fill="none" stroke="black" stroke-width="1.2" d="M188.14,-332.78C198.5,-330.49 209.69,-328.02 220.33,-325.66"/>
<polygon fill="black" stroke="black" stroke-width="1.2" points="221.32,-329.03 230.32,-323.45 219.8,-322.19 221.32,-329.03"/>
</g>
<!-- mnt_comp1 -->
<g id="node10" class="node">
<title>mnt_comp1</title>
<path fill="white" stroke="black" d="M182.5,-306C182.5,-306 108.5,-306 108.5,-306 102.5,-306 96.5,-300 96.5,-294 96.5,-294 96.5,-282 96.5,-282 96.5,-276 102.5,-270 108.5,-270 108.5,-270 182.5,-270 182.5,-270 188.5,-270 194.5,-276 194.5,-282 194.5,-282 194.5,-294 194.5,-294 194.5,-300 188.5,-306 182.5,-306"/>
<text text-anchor="middle" x="145.5" y="-284.3" font-family="Helvetica,sans-Serif" font-size="14.00">mnt_comp1</text>
</g>
<!-- mnt_comp1&#45;&gt;vibration -->
<g id="edge4" class="edge">
<title>mnt_comp1&#45;&gt;vibration</title>
<path fill="none" stroke="black" stroke-width="1.2" d="M194.72,-298.67C203.24,-300.56 212.11,-302.52 220.62,-304.4"/>
<polygon fill="black" stroke="black" stroke-width="1.2" points="219.89,-307.83 230.41,-306.57 221.4,-300.99 219.89,-307.83"/>
</g>
<!-- mnt_comp2 -->
<g id="node11" class="node">
<title>mnt_comp2</title>
<path fill="white" stroke="black" d="M182.5,-252C182.5,-252 108.5,-252 108.5,-252 102.5,-252 96.5,-246 96.5,-240 96.5,-240 96.5,-228 96.5,-228 96.5,-222 102.5,-216 108.5,-216 108.5,-216 182.5,-216 182.5,-216 188.5,-216 194.5,-222 194.5,-228 194.5,-228 194.5,-240 194.5,-240 194.5,-246 188.5,-252 182.5,-252"/>
<text text-anchor="middle" x="145.5" y="-230.3" font-family="Helvetica,sans-Serif" font-size="14.00">mnt_comp2</text>
</g>
<!-- mnt_comp2&#45;&gt;vibration -->
<g id="edge5" class="edge">
<title>mnt_comp2&#45;&gt;vibration</title>
<path fill="none" stroke="black" stroke-width="1.2" d="M179.85,-252.09C184.82,-254.97 189.84,-258 194.5,-261 208.77,-270.17 223.99,-281.07 236.89,-290.67"/>
<polygon fill="black" stroke="black" stroke-width="1.2" points="234.91,-293.56 245.01,-296.76 239.11,-287.96 234.91,-293.56"/>
</g>
<!-- mnt_comp3 -->
<g id="node12" class="node">
<title>mnt_comp3</title>
<path fill="white" stroke="black" d="M182.5,-630C182.5,-630 108.5,-630 108.5,-630 102.5,-630 96.5,-624 96.5,-618 96.5,-618 96.5,-606 96.5,-606 96.5,-600 102.5,-594 108.5,-594 108.5,-594 182.5,-594 182.5,-594 188.5,-594 194.5,-600 194.5,-606 194.5,-606 194.5,-618 194.5,-618 194.5,-624 188.5,-630 182.5,-630"/>
<text text-anchor="middle" x="145.5" y="-608.3" font-family="Helvetica,sans-Serif" font-size="14.00">mnt_comp3</text>
</g>
<!-- mnt_comp4 -->
<g id="node13" class="node">
<title>mnt_comp4</title>
<path fill="white" stroke="black" d="M182.5,-198C182.5,-198 108.5,-198 108.5,-198 102.5,-198 96.5,-192 96.5,-186 96.5,-186 96.5,-174 96.5,-174 96.5,-168 102.5,-162 108.5,-162 108.5,-162 182.5,-162 182.5,-162 188.5,-162 194.5,-168 194.5,-174 194.5,-174 194.5,-186 194.5,-186 194.5,-192 188.5,-198 182.5,-198"/>
<text text-anchor="middle" x="145.5" y="-176.3" font-family="Helvetica,sans-Serif" font-size="14.00">mnt_comp4</text>
</g>
<!-- mnt_comp4&#45;&gt;vibration -->
<g id="edge6" class="edge">
<title>mnt_comp4&#45;&gt;vibration</title>
<path fill="none" stroke="black" stroke-width="1.2" d="M182.87,-198.04C186.99,-200.78 190.97,-203.77 194.5,-207 219.99,-230.33 241.31,-264.05 254.42,-287.58"/>
<polygon fill="black" stroke="black" stroke-width="1.2" points="251.51,-289.56 259.35,-296.68 257.66,-286.22 251.51,-289.56"/>
</g>
<!-- fail_comp1 -->
<g id="node14" class="node">
<title>fail_comp1</title>
<path fill="white" stroke="black" d="M179.5,-684C179.5,-684 111.5,-684 111.5,-684 105.5,-684 99.5,-678 99.5,-672 99.5,-672 99.5,-660 99.5,-660 99.5,-654 105.5,-648 111.5,-648 111.5,-648 179.5,-648 179.5,-648 185.5,-648 191.5,-654 191.5,-660 191.5,-660 191.5,-672 191.5,-672 191.5,-678 185.5,-684 179.5,-684"/>
<text text-anchor="middle" x="145.5" y="-662.3" font-family="Helvetica,sans-Serif" font-size="14.00">fail_comp1</text>
</g>
<!-- fail_comp4 -->
<g id="node15" class="node">
<title>fail_comp4</title>
<path fill="white" stroke="black" d="M179.5,-738C179.5,-738 111.5,-738 111.5,-738 105.5,-738 99.5,-732 99.5,-726 99.5,-726 99.5,-714 99.5,-714 99.5,-708 105.5,-702 111.5,-702 111.5,-702 179.5,-702 179.5,-702 185.5,-702 191.5,-708 191.5,-714 191.5,-714 191.5,-726 191.5,-726 191.5,-732 185.5,-738 179.5,-738"/>
<text text-anchor="middle" x="145.5" y="-716.3" font-family="Helvetica,sans-Serif" font-size="14.00">fail_comp4</text>
</g>
</g>
</svg>
