<?xml version="1.0" encoding="UTF-8" standalone="no"?>
<!DOCTYPE svg PUBLIC "-//W3C//DTD SVG 1.1//EN"
 "http://www.w3.org/Graphics/SVG/1.1/DTD/svg11.dtd">
<!-- Generated by graphviz version 2.50.0 (0)
 -->
<!-- Title: G Pages: 1 -->
<svg width="441pt" height="232pt"
 viewBox="0.00 0.00 441.00 232.00" xmlns="http://www.w3.org/2000/svg" xmlns:xlink="http://www.w3.org/1999/xlink">
<g id="graph0" class="graph" transform="scale(1 1) rotate(0) translate(4 228)">
<title>G</title>
<polygon fill="white" stroke="transparent" points="-4,4 -4,-228 437,-228 437,4 -4,4"/>
<text text-anchor="middle" x="216.5" y="-207.2" font-family="Times,serif" font-size="16.00">model=model1/gcmvl_telemetry.json [machine 31]</text>
<!-- volt -->
<g id="node1" class="node">
<title>volt</title>
<path fill="white" stroke="black" d="M231.5,-36C231.5,-36 201.5,-36 201.5,-36 195.5,-36 189.5,-30 189.5,-24 189.5,-24 189.5,-12 189.5,-12 189.5,-6 195.5,0 201.5,0 201.5,0 231.5,0 231.5,0 237.5,0 243.5,-6 243.5,-12 243.5,-12 243.5,-24 243.5,-24 243.5,-30 237.5,-36 231.5,-36"/>
<text text-anchor="middle" x="216.5" y="-14.3" font-family="Helvetica,sans-Serif" font-size="14.00">volt</text>
</g>
<!-- rotate -->
<g id="node2" class="node">
<title>rotate</title>
<path fill="white" stroke="black" d="M233,-90C233,-90 200,-90 200,-90 194,-90 188,-84 188,-78 188,-78 188,-66 188,-66 188,-60 194,-54 200,-54 200,-54 233,-54 233,-54 239,-54 245,-60 245,-66 245,-66 245,-78 245,-78 245,-84 239,-90 233,-90"/>
<text text-anchor="middle" x="216.5" y="-68.3" font-family="Helvetica,sans-Serif" font-size="14.00">rotate</text>
</g>
<!-- pressure -->
<g id="node3" class="node">
<title>pressure</title>
<path fill="white" stroke="black" d="M243,-144C243,-144 190,-144 190,-144 184,-144 178,-138 178,-132 178,-132 178,-120 178,-120 178,-114 184,-108 190,-108 190,-108 243,-108 243,-108 249,-108 255,-114 255,-120 255,-120 255,-132 255,-132 255,-138 249,-144 243,-144"/>
<text text-anchor="middle" x="216.5" y="-122.3" font-family="Helvetica,sans-Serif" font-size="14.00">pressure</text>
</g>
<!-- vibration -->
<g id="node4" class="node">
<title>vibration</title>
<path fill="white" stroke="black" d="M243.5,-198C243.5,-198 189.5,-198 189.5,-198 183.5,-198 177.5,-192 177.5,-186 177.5,-186 177.5,-174 177.5,-174 177.5,-168 183.5,-162 189.5,-162 189.5,-162 243.5,-162 243.5,-162 249.5,-162 255.5,-168 255.5,-174 255.5,-174 255.5,-186 255.5,-186 255.5,-192 249.5,-198 243.5,-198"/>
<text text-anchor="middle" x="216.5" y="-176.3" font-family="Helvetica,sans-Serif" font-size="14.00">vibration</text>
</g>
</g>
</svg>
