<?xml version="1.0" encoding="UTF-8" standalone="no"?>
<!DOCTYPE svg PUBLIC "-//W3C//DTD SVG 1.1//EN"
 "http://www.w3.org/Graphics/SVG/1.1/DTD/svg11.dtd">
<!-- Generated by graphviz version 2.50.0 (0)
 -->
<!-- Title: G Pages: 1 -->
<svg width="413pt" height="772pt"
 viewBox="0.00 0.00 413.00 772.00" xmlns="http://www.w3.org/2000/svg" xmlns:xlink="http://www.w3.org/1999/xlink">
<g id="graph0" class="graph" transform="scale(1 1) rotate(0) translate(4 768)">
<title>G</title>
<polygon fill="white" stroke="transparent" points="-4,4 -4,-768 409,-768 409,4 -4,4"/>
<text text-anchor="middle" x="202.5" y="-747.2" font-family="Times,serif" font-size="16.00">model=model1/gcmvl_mixed.json [machine 16]</text>
<!-- volt -->
<g id="node1" class="node">
<title>volt</title>
<path fill="white" stroke="black" d="M161,-36C161,-36 131,-36 131,-36 125,-36 119,-30 119,-24 119,-24 119,-12 119,-12 119,-6 125,0 131,0 131,0 161,0 161,0 167,0 173,-6 173,-12 173,-12 173,-24 173,-24 173,-30 167,-36 161,-36"/>
<text text-anchor="middle" x="146" y="-14.3" font-family="Helvetica,sans-Serif" font-size="14.00">volt</text>
</g>
<!-- rotate -->
<g id="node2" class="node">
<title>rotate</title>
<path fill="white" stroke="black" d="M286,-441C286,-441 253,-441 253,-441 247,-441 241,-435 241,-429 241,-429 241,-417 241,-417 241,-411 247,-405 253,-405 253,-405 286,-405 286,-405 292,-405 298,-411 298,-417 298,-417 298,-429 298,-429 298,-435 292,-441 286,-441"/>
<text text-anchor="middle" x="269.5" y="-419.3" font-family="Helvetica,sans-Serif" font-size="14.00">rotate</text>
</g>
<!-- pressure -->
<g id="node3" class="node">
<title>pressure</title>
<path fill="white" stroke="black" d="M296,-306C296,-306 243,-306 243,-306 237,-306 231,-300 231,-294 231,-294 231,-282 231,-282 231,-276 237,-270 243,-270 243,-270 296,-270 296,-270 302,-270 308,-276 308,-282 308,-282 308,-294 308,-294 308,-300 302,-306 296,-306"/>
<text text-anchor="middle" x="269.5" y="-284.3" font-family="Helvetica,sans-Serif" font-size="14.00">pressure</text>
</g>
<!-- vibration -->
<g id="node4" class="node">
<title>vibration</title>
<path fill="white" stroke="black" d="M173,-684C173,-684 119,-684 119,-684 113,-684 107,-678 107,-672 107,-672 107,-660 107,-660 107,-654 113,-648 119,-648 119,-648 173,-648 173,-648 179,-648 185,-654 185,-660 185,-660 185,-672 185,-672 185,-678 179,-684 173,-684"/>
<text text-anchor="middle" x="146" y="-662.3" font-family="Helvetica,sans-Serif" font-size="14.00">vibration</text>
</g>
<!-- err_error1 -->
<g id="node5" class="node">
<title>err_error1</title>
<path fill="white" stroke="black" d="M176.5,-360C176.5,-360 115.5,-360 115.5,-360 109.5,-360 103.5,-354 103.5,-348 103.5,-348 103.5,-336 103.5,-336 103.5,-330 109.5,-324 115.5,-324 115.5,-324 176.5,-324 176.5,-324 182.5,-324 188.5,-330 188.5,-336 188.5,-336 188.5,-348 188.5,-348 188.5,-354 182.5,-360 176.5,-360"/>
<text text-anchor="middle" x="146" y="-338.3" font-family="Helvetica,sans-Serif" font-size="14.00">err_error1</text>
</g>
<!-- err_error1&#45;&gt;rotate -->
<g id="edge1" class="edge">
<title>err_error1&#45;&gt;rotate</title>
<path fill="none" stroke="black" stroke-width="1.2" d="M180.36,-360.07C185.33,-362.96 190.34,-365.99 195,-369 209.3,-378.23 224.54,-389.22 237.42,-398.87"/>
<polygon fill="black" stroke="black" stroke-width="1.2" points="235.42,-401.75 245.51,-404.99 239.65,-396.17 235.42,-401.75"/>
</g>
<!-- err_error1&#45;&gt;pressure -->
<g id="edge9" class="edge">
<title>err_error1&#45;&gt;pressure</title>
<path fill="none" stroke="black" stroke-width="1.2" d="M187.8,-323.87C198.68,-319.03 210.52,-313.77 221.69,-308.8"/>
<polygon fill="black" stroke="black" stroke-width="1.2" points="223.17,-311.98 230.88,-304.72 220.33,-305.58 223.17,-311.98"/>
</g>
<!-- err_error2 -->
<g id="node6" class="node">
<title>err_error2</title>
<path fill="white" stroke="black" d="M176.5,-576C176.5,-576 115.5,-576 115.5,-576 109.5,-576 103.5,-570 103.5,-564 103.5,-564 103.5,-552 103.5,-552 103.5,-546 109.5,-540 115.5,-540 115.5,-540 176.5,-540 176.5,-540 182.5,-540 188.5,-546 188.5,-552 188.5,-552 188.5,-564 188.5,-564 188.5,-570 182.5,-576 176.5,-576"/>
<text text-anchor="middle" x="146" y="-554.3" font-family="Helvetica,sans-Serif" font-size="14.00">err_error2</text>
</g>
<!-- err_error2&#45;&gt;rotate -->
<g id="edge2" class="edge">
<title>err_error2&#45;&gt;rotate</title>
<path fill="none" stroke="black" stroke-width="1.2" d="M183.38,-539.97C187.5,-537.23 191.48,-534.23 195,-531 220.4,-507.68 241.56,-473.96 254.55,-450.42"/>
<polygon fill="black" stroke="black" stroke-width="1.2" points="257.79,-451.79 259.45,-441.33 251.62,-448.47 257.79,-451.79"/>
</g>
<!-- err_error3 -->
<g id="node7" class="node">
<title>err_error3</title>
<path fill="white" stroke="black" d="M176.5,-306C176.5,-306 115.5,-306 115.5,-306 109.5,-306 103.5,-300 103.5,-294 103.5,-294 103.5,-282 103.5,-282 103.5,-276 109.5,-270 115.5,-270 115.5,-270 176.5,-270 176.5,-270 182.5,-270 188.5,-276 188.5,-282 188.5,-282 188.5,-294 188.5,-294 188.5,-300 182.5,-306 176.5,-306"/>
<text text-anchor="middle" x="146" y="-284.3" font-family="Helvetica,sans-Serif" font-size="14.00">err_error3</text>
</g>
<!-- err_error3&#45;&gt;rotate -->
<g id="edge3" class="edge">
<title>err_error3&#45;&gt;rotate</title>
<path fill="none" stroke="black" stroke-width="1.2" d="M183.38,-306.03C187.5,-308.77 191.48,-311.77 195,-315 220.4,-338.32 241.56,-372.04 254.55,-395.58"/>
<polygon fill="black" stroke="black" stroke-width="1.2" points="251.62,-397.53 259.45,-404.67 257.79,-394.21 251.62,-397.53"/>
</g>
<!-- err_error3&#45;&gt;pressure -->
<g id="edge10" class="edge">
<title>err_error3&#45;&gt;pressure</title>
<path fill="none" stroke="black" stroke-width="1.2" d="M188.81,-288C199.01,-288 209.99,-288 220.45,-288"/>
<polygon fill="black" stroke="black" stroke-width="1.2" points="220.68,-291.5 230.68,-288 220.68,-284.5 220.68,-291.5"/>
</g>
<!-- err_error4 -->
<g id="node8" class="node">
<title>err_error4</title>
<path fill="white" stroke="black" d="M176.5,-252C176.5,-252 115.5,-252 115.5,-252 109.5,-252 103.5,-246 103.5,-240 103.5,-240 103.5,-228 103.5,-228 103.5,-222 109.5,-216 115.5,-216 115.5,-216 176.5,-216 176.5,-216 182.5,-216 188.5,-222 188.5,-228 188.5,-228 188.5,-240 188.5,-240 188.5,-246 182.5,-252 176.5,-252"/>
<text text-anchor="middle" x="146" y="-230.3" font-family="Helvetica,sans-Serif" font-size="14.00">err_error4</text>
</g>
<!-- err_error4&#45;&gt;rotate -->
<g id="edge4" class="edge">
<title>err_error4&#45;&gt;rotate</title>
<path fill="none" stroke="black" stroke-width="1.2" d="M184.91,-252.15C188.57,-254.81 192.03,-257.76 195,-261 213.95,-281.67 243.01,-354.54 258.29,-395.15"/>
<polygon fill="black" stroke="black" stroke-width="1.2" points="255.09,-396.58 261.86,-404.72 261.65,-394.13 255.09,-396.58"/>
</g>
<!-- err_error4&#45;&gt;pressure -->
<g id="edge11" class="edge">
<title>err_error4&#45;&gt;pressure</title>
<path fill="none" stroke="black" stroke-width="1.2" d="M187.8,-252.13C198.68,-256.97 210.52,-262.23 221.69,-267.2"/>
<polygon fill="black" stroke="black" stroke-width="1.2" points="220.33,-270.42 230.88,-271.28 223.17,-264.02 220.33,-270.42"/>
</g>
<!-- err_error5 -->
<g id="node9" class="node">
<title>err_error5</title>
<path fill="white" stroke="black" d="M176.5,-738C176.5,-738 115.5,-738 115.5,-738 109.5,-738 103.5,-732 103.5,-726 103.5,-726 103.5,-714 103.5,-714 103.5,-708 109.5,-702 115.5,-702 115.5,-702 176.5,-702 176.5,-702 182.5,-702 188.5,-708 188.5,-714 188.5,-714 188.5,-726 188.5,-726 188.5,-732 182.5,-738 176.5,-738"/>
<text text-anchor="middle" x="146" y="-716.3" font-family="Helvetica,sans-Serif" font-size="14.00">err_error5</text>
</g>
<!-- mnt_comp1 -->
<g id="node10" class="node">
<title>mnt_comp1</title>
<path fill="white" stroke="black" d="M183,-198C183,-198 109,-198 109,-198 103,-198 97,-192 97,-186 97,-186 97,-174 97,-174 97,-168 103,-162 109,-162 109,-162 183,-162 183,-162 189,-162 195,-168 195,-174 195,-174 195,-186 195,-186 195,-192 189,-198 183,-198"/>
<text text-anchor="middle" x="146" y="-176.3" font-family="Helvetica,sans-Serif" font-size="14.00">mnt_comp1</text>
</g>
<!-- mnt_comp1&#45;&gt;pressure -->
<g id="edge12" class="edge">
<title>mnt_comp1&#45;&gt;pressure</title>
<path fill="none" stroke="black" stroke-width="1.2" d="M182.21,-198.05C186.66,-200.83 191.04,-203.84 195,-207 215.16,-223.07 234.61,-244.88 248.43,-261.82"/>
<polygon fill="black" stroke="black" stroke-width="1.2" points="245.76,-264.09 254.75,-269.7 251.22,-259.71 245.76,-264.09"/>
</g>
<!-- mnt_comp2 -->
<g id="node11" class="node">
<title>mnt_comp2</title>
<path fill="white" stroke="black" d="M183,-522C183,-522 109,-522 109,-522 103,-522 97,-516 97,-510 97,-510 97,-498 97,-498 97,-492 103,-486 109,-486 109,-486 183,-486 183,-486 189,-486 195,-492 195,-498 195,-498 195,-510 195,-510 195,-516 189,-522 183,-522"/>
<text text-anchor="middle" x="146" y="-500.3" font-family="Helvetica,sans-Serif" font-size="14.00">mnt_comp2</text>
</g>
<!-- mnt_comp2&#45;&gt;rotate -->
<g id="edge5" class="edge">
<title>mnt_comp2&#45;&gt;rotate</title>
<path fill="none" stroke="black" stroke-width="1.2" d="M180.36,-485.93C185.33,-483.04 190.34,-480.01 195,-477 209.3,-467.77 224.54,-456.78 237.42,-447.13"/>
<polygon fill="black" stroke="black" stroke-width="1.2" points="239.65,-449.83 245.51,-441.01 235.42,-444.25 239.65,-449.83"/>
</g>
<!-- mnt_comp2&#45;&gt;pressure -->
<g id="edge13" class="edge">
<title>mnt_comp2&#45;&gt;pressure</title>
<path fill="none" stroke="black" stroke-width="1.2" d="M185.56,-485.66C189.02,-483.06 192.24,-480.18 195,-477 206.04,-464.28 241.63,-365.01 258.91,-315.66"/>
<polygon fill="black" stroke="black" stroke-width="1.2" points="262.21,-316.81 262.21,-306.22 255.6,-314.51 262.21,-316.81"/>
</g>
<!-- mnt_comp3 -->
<g id="node12" class="node">
<title>mnt_comp3</title>
<path fill="white" stroke="black" d="M183,-144C183,-144 109,-144 109,-144 103,-144 97,-138 97,-132 97,-132 97,-120 97,-120 97,-114 103,-108 109,-108 109,-108 183,-108 183,-108 189,-108 195,-114 195,-120 195,-120 195,-132 195,-132 195,-138 189,-144 183,-144"/>
<text text-anchor="middle" x="146" y="-122.3" font-family="Helvetica,sans-Serif" font-size="14.00">mnt_comp3</text>
</g>
<!-- mnt_comp3&#45;&gt;pressure -->
<g id="edge14" class="edge">
<title>mnt_comp3&#45;&gt;pressure</title>
<path fill="none" stroke="black" stroke-width="1.2" d="M184.19,-144.04C188.08,-146.74 191.78,-149.73 195,-153 225.68,-184.1 247.17,-230.63 258.69,-260.14"/>
<polygon fill="black" stroke="black" stroke-width="1.2" points="255.54,-261.69 262.34,-269.81 262.08,-259.22 255.54,-261.69"/>
</g>
<!-- mnt_comp4 -->
<g id="node13" class="node">
<title>mnt_comp4</title>
<path fill="white" stroke="black" d="M183,-468C183,-468 109,-468 109,-468 103,-468 97,-462 97,-456 97,-456 97,-444 97,-444 97,-438 103,-432 109,-432 109,-432 183,-432 183,-432 189,-432 195,-438 195,-444 195,-444 195,-456 195,-456 195,-462 189,-468 183,-468"/>
<text text-anchor="middle" x="146" y="-446.3" font-family="Helvetica,sans-Serif" font-size="14.00">mnt_comp4</text>
</g>
<!-- mnt_comp4&#45;&gt;rotate -->
<g id="edge6" class="edge">
<title>mnt_comp4&#45;&gt;rotate</title>
<path fill="none" stroke="black" stroke-width="1.2" d="M195.02,-439.33C206.9,-436.69 219.47,-433.9 230.78,-431.38"/>
<polygon fill="black" stroke="black" stroke-width="1.2" points="231.76,-434.75 240.76,-429.16 230.24,-427.92 231.76,-434.75"/>
</g>
<!-- mnt_comp4&#45;&gt;pressure -->
<g id="edge15" class="edge">
<title>mnt_comp4&#45;&gt;pressure</title>
<path fill="none" stroke="black" stroke-width="1.2" d="M184.19,-431.96C188.08,-429.26 191.78,-426.27 195,-423 225.68,-391.9 247.17,-345.37 258.69,-315.86"/>
<polygon fill="black" stroke="black" stroke-width="1.2" points="262.08,-316.78 262.34,-306.19 255.54,-314.31 262.08,-316.78"/>
</g>
<!-- fail_comp1 -->
<g id="node14" class="node">
<title>fail_comp1</title>
<path fill="white" stroke="black" d="M180,-414C180,-414 112,-414 112,-414 106,-414 100,-408 100,-402 100,-402 100,-390 100,-390 100,-384 106,-378 112,-378 112,-378 180,-378 180,-378 186,-378 192,-384 192,-390 192,-390 192,-402 192,-402 192,-408 186,-414 180,-414"/>
<text text-anchor="middle" x="146" y="-392.3" font-family="Helvetica,sans-Serif" font-size="14.00">fail_comp1</text>
</g>
<!-- fail_comp1&#45;&gt;rotate -->
<g id="edge7" class="edge">
<title>fail_comp1&#45;&gt;rotate</title>
<path fill="none" stroke="black" stroke-width="1.2" d="M192.24,-406.05C205,-408.89 218.73,-411.94 230.98,-414.66"/>
<polygon fill="black" stroke="black" stroke-width="1.2" points="230.35,-418.11 240.87,-416.86 231.87,-411.27 230.35,-418.11"/>
</g>
<!-- fail_comp1&#45;&gt;pressure -->
<g id="edge16" class="edge">
<title>fail_comp1&#45;&gt;pressure</title>
<path fill="none" stroke="black" stroke-width="1.2" d="M182.21,-377.95C186.66,-375.17 191.04,-372.16 195,-369 215.16,-352.93 234.61,-331.12 248.43,-314.18"/>
<polygon fill="black" stroke="black" stroke-width="1.2" points="251.22,-316.29 254.75,-306.3 245.76,-311.91 251.22,-316.29"/>
</g>
<!-- fail_comp2 -->
<g id="node15" class="node">
<title>fail_comp2</title>
<path fill="white" stroke="black" d="M180,-630C180,-630 112,-630 112,-630 106,-630 100,-624 100,-618 100,-618 100,-606 100,-606 100,-600 106,-594 112,-594 112,-594 180,-594 180,-594 186,-594 192,-600 192,-606 192,-606 192,-618 192,-618 192,-624 186,-630 180,-630"/>
<text text-anchor="middle" x="146" y="-608.3" font-family="Helvetica,sans-Serif" font-size="14.00">fail_comp2</text>
</g>
<!-- fail_comp2&#45;&gt;rotate -->
<g id="edge8" class="edge">
<title>fail_comp2&#45;&gt;rotate</title>
<path fill="none" stroke="black" stroke-width="1.2" d="M184.91,-593.85C188.57,-591.19 192.03,-588.24 195,-585 230.94,-545.81 251.79,-486.05 261.58,-451.12"/>
<polygon fill="black" stroke="black" stroke-width="1.2" points="265.05,-451.69 264.27,-441.13 258.29,-449.87 265.05,-451.69"/>
</g>
<!-- fail_comp3 -->
<g id="node16" class="node">
<title>fail_comp3</title>
<path fill="white" stroke="black" d="M180,-90C180,-90 112,-90 112,-90 106,-90 100,-84 100,-78 100,-78 100,-66 100,-66 100,-60 106,-54 112,-54 112,-54 180,-54 180,-54 186,-54 192,-60 192,-66 192,-66 192,-78 192,-78 192,-84 186,-90 180,-90"/>
<text text-anchor="middle" x="146" y="-68.3" font-family="Helvetica,sans-Serif" font-size="14.00">fail_comp3</text>
</g>
<!-- fail_comp3&#45;&gt;pressure -->
<g id="edge17" class="edge">
<title>fail_comp3&#45;&gt;pressure</title>
<path fill="none" stroke="black" stroke-width="1.2" d="M185.56,-90.34C189.02,-92.94 192.24,-95.82 195,-99 236.3,-146.6 255.78,-220.04 263.76,-259.91"/>
<polygon fill="black" stroke="black" stroke-width="1.2" points="260.33,-260.58 265.63,-269.75 267.2,-259.28 260.33,-260.58"/>
</g>
</g>
</svg>
