<?xml version="1.0" encoding="UTF-8" standalone="no"?>
<!DOCTYPE svg PUBLIC "-//W3C//DTD SVG 1.1//EN"
 "http://www.w3.org/Graphics/SVG/1.1/DTD/svg11.dtd">
<!-- Generated by graphviz version 2.50.0 (0)
 -->
<!-- Title: G Pages: 1 -->
<svg width="413pt" height="880pt"
 viewBox="0.00 0.00 413.00 880.00" xmlns="http://www.w3.org/2000/svg" xmlns:xlink="http://www.w3.org/1999/xlink">
<g id="graph0" class="graph" transform="scale(1 1) rotate(0) translate(4 876)">
<title>G</title>
<polygon fill="white" stroke="transparent" points="-4,4 -4,-876 409,-876 409,4 -4,4"/>
<text text-anchor="middle" x="202.5" y="-855.2" font-family="Times,serif" font-size="16.00">model=model2/gcmvl_mixed.json [machine 71]</text>
<!-- volt -->
<g id="node1" class="node">
<title>volt</title>
<path fill="white" stroke="black" d="M161,-36C161,-36 131,-36 131,-36 125,-36 119,-30 119,-24 119,-24 119,-12 119,-12 119,-6 125,0 131,0 131,0 161,0 161,0 167,0 173,-6 173,-12 173,-12 173,-24 173,-24 173,-30 167,-36 161,-36"/>
<text text-anchor="middle" x="146" y="-14.3" font-family="Helvetica,sans-Serif" font-size="14.00">volt</text>
</g>
<!-- rotate -->
<g id="node2" class="node">
<title>rotate</title>
<path fill="white" stroke="black" d="M162.5,-90C162.5,-90 129.5,-90 129.5,-90 123.5,-90 117.5,-84 117.5,-78 117.5,-78 117.5,-66 117.5,-66 117.5,-60 123.5,-54 129.5,-54 129.5,-54 162.5,-54 162.5,-54 168.5,-54 174.5,-60 174.5,-66 174.5,-66 174.5,-78 174.5,-78 174.5,-84 168.5,-90 162.5,-90"/>
<text text-anchor="middle" x="146" y="-68.3" font-family="Helvetica,sans-Serif" font-size="14.00">rotate</text>
</g>
<!-- pressure -->
<g id="node3" class="node">
<title>pressure</title>
<path fill="white" stroke="black" d="M296,-360C296,-360 243,-360 243,-360 237,-360 231,-354 231,-348 231,-348 231,-336 231,-336 231,-330 237,-324 243,-324 243,-324 296,-324 296,-324 302,-324 308,-330 308,-336 308,-336 308,-348 308,-348 308,-354 302,-360 296,-360"/>
<text text-anchor="middle" x="269.5" y="-338.3" font-family="Helvetica,sans-Serif" font-size="14.00">pressure</text>
</g>
<!-- vibration -->
<g id="node4" class="node">
<title>vibration</title>
<path fill="white" stroke="black" d="M173,-630C173,-630 119,-630 119,-630 113,-630 107,-624 107,-618 107,-618 107,-606 107,-606 107,-600 113,-594 119,-594 119,-594 173,-594 173,-594 179,-594 185,-600 185,-606 185,-606 185,-618 185,-618 185,-624 179,-630 173,-630"/>
<text text-anchor="middle" x="146" y="-608.3" font-family="Helvetica,sans-Serif" font-size="14.00">vibration</text>
</g>
<!-- err_error1 -->
<g id="node5" class="node">
<title>err_error1</title>
<path fill="white" stroke="black" d="M176.5,-576C176.5,-576 115.5,-576 115.5,-576 109.5,-576 103.5,-570 103.5,-564 103.5,-564 103.5,-552 103.5,-552 103.5,-546 109.5,-540 115.5,-540 115.5,-540 176.5,-540 176.5,-540 182.5,-540 188.5,-546 188.5,-552 188.5,-552 188.5,-564 188.5,-564 188.5,-570 182.5,-576 176.5,-576"/>
<text text-anchor="middle" x="146" y="-554.3" font-family="Helvetica,sans-Serif" font-size="14.00">err_error1</text>
</g>
<!-- err_error1&#45;&gt;pressure -->
<g id="edge1" class="edge">
<title>err_error1&#45;&gt;pressure</title>
<path fill="none" stroke="black" stroke-width="1.2" d="M185.56,-539.66C189.02,-537.06 192.24,-534.18 195,-531 236.3,-483.4 255.78,-409.96 263.76,-370.09"/>
<polygon fill="black" stroke="black" stroke-width="1.2" points="267.2,-370.72 265.63,-360.25 260.33,-369.42 267.2,-370.72"/>
</g>
<!-- err_error2 -->
<g id="node6" class="node">
<title>err_error2</title>
<path fill="white" stroke="black" d="M176.5,-522C176.5,-522 115.5,-522 115.5,-522 109.5,-522 103.5,-516 103.5,-510 103.5,-510 103.5,-498 103.5,-498 103.5,-492 109.5,-486 115.5,-486 115.5,-486 176.5,-486 176.5,-486 182.5,-486 188.5,-492 188.5,-498 188.5,-498 188.5,-510 188.5,-510 188.5,-516 182.5,-522 176.5,-522"/>
<text text-anchor="middle" x="146" y="-500.3" font-family="Helvetica,sans-Serif" font-size="14.00">err_error2</text>
</g>
<!-- err_error2&#45;&gt;pressure -->
<g id="edge2" class="edge">
<title>err_error2&#45;&gt;pressure</title>
<path fill="none" stroke="black" stroke-width="1.2" d="M184.19,-485.96C188.08,-483.26 191.78,-480.27 195,-477 225.68,-445.9 247.17,-399.37 258.69,-369.86"/>
<polygon fill="black" stroke="black" stroke-width="1.2" points="262.08,-370.78 262.34,-360.19 255.54,-368.31 262.08,-370.78"/>
</g>
<!-- err_error3 -->
<g id="node7" class="node">
<title>err_error3</title>
<path fill="white" stroke="black" d="M176.5,-468C176.5,-468 115.5,-468 115.5,-468 109.5,-468 103.5,-462 103.5,-456 103.5,-456 103.5,-444 103.5,-444 103.5,-438 109.5,-432 115.5,-432 115.5,-432 176.5,-432 176.5,-432 182.5,-432 188.5,-438 188.5,-444 188.5,-444 188.5,-456 188.5,-456 188.5,-462 182.5,-468 176.5,-468"/>
<text text-anchor="middle" x="146" y="-446.3" font-family="Helvetica,sans-Serif" font-size="14.00">err_error3</text>
</g>
<!-- err_error3&#45;&gt;pressure -->
<g id="edge3" class="edge">
<title>err_error3&#45;&gt;pressure</title>
<path fill="none" stroke="black" stroke-width="1.2" d="M182.21,-431.95C186.66,-429.17 191.04,-426.16 195,-423 215.16,-406.93 234.61,-385.12 248.43,-368.18"/>
<polygon fill="black" stroke="black" stroke-width="1.2" points="251.22,-370.29 254.75,-360.3 245.76,-365.91 251.22,-370.29"/>
</g>
<!-- err_error4 -->
<g id="node8" class="node">
<title>err_error4</title>
<path fill="white" stroke="black" d="M176.5,-414C176.5,-414 115.5,-414 115.5,-414 109.5,-414 103.5,-408 103.5,-402 103.5,-402 103.5,-390 103.5,-390 103.5,-384 109.5,-378 115.5,-378 115.5,-378 176.5,-378 176.5,-378 182.5,-378 188.5,-384 188.5,-390 188.5,-390 188.5,-402 188.5,-402 188.5,-408 182.5,-414 176.5,-414"/>
<text text-anchor="middle" x="146" y="-392.3" font-family="Helvetica,sans-Serif" font-size="14.00">err_error4</text>
</g>
<!-- err_error4&#45;&gt;pressure -->
<g id="edge4" class="edge">
<title>err_error4&#45;&gt;pressure</title>
<path fill="none" stroke="black" stroke-width="1.2" d="M187.8,-377.87C198.68,-373.03 210.52,-367.77 221.69,-362.8"/>
<polygon fill="black" stroke="black" stroke-width="1.2" points="223.17,-365.98 230.88,-358.72 220.33,-359.58 223.17,-365.98"/>
</g>
<!-- err_error5 -->
<g id="node9" class="node">
<title>err_error5</title>
<path fill="white" stroke="black" d="M176.5,-684C176.5,-684 115.5,-684 115.5,-684 109.5,-684 103.5,-678 103.5,-672 103.5,-672 103.5,-660 103.5,-660 103.5,-654 109.5,-648 115.5,-648 115.5,-648 176.5,-648 176.5,-648 182.5,-648 188.5,-654 188.5,-660 188.5,-660 188.5,-672 188.5,-672 188.5,-678 182.5,-684 176.5,-684"/>
<text text-anchor="middle" x="146" y="-662.3" font-family="Helvetica,sans-Serif" font-size="14.00">err_error5</text>
</g>
<!-- mnt_comp1 -->
<g id="node10" class="node">
<title>mnt_comp1</title>
<path fill="white" stroke="black" d="M183,-360C183,-360 109,-360 109,-360 103,-360 97,-354 97,-348 97,-348 97,-336 97,-336 97,-330 103,-324 109,-324 109,-324 183,-324 183,-324 189,-324 195,-330 195,-336 195,-336 195,-348 195,-348 195,-354 189,-360 183,-360"/>
<text text-anchor="middle" x="146" y="-338.3" font-family="Helvetica,sans-Serif" font-size="14.00">mnt_comp1</text>
</g>
<!-- mnt_comp1&#45;&gt;pressure -->
<g id="edge5" class="edge">
<title>mnt_comp1&#45;&gt;pressure</title>
<path fill="none" stroke="black" stroke-width="1.2" d="M195.02,-342C203.51,-342 212.34,-342 220.82,-342"/>
<polygon fill="black" stroke="black" stroke-width="1.2" points="220.94,-345.5 230.94,-342 220.94,-338.5 220.94,-345.5"/>
</g>
<!-- mnt_comp2 -->
<g id="node11" class="node">
<title>mnt_comp2</title>
<path fill="white" stroke="black" d="M183,-306C183,-306 109,-306 109,-306 103,-306 97,-300 97,-294 97,-294 97,-282 97,-282 97,-276 103,-270 109,-270 109,-270 183,-270 183,-270 189,-270 195,-276 195,-282 195,-282 195,-294 195,-294 195,-300 189,-306 183,-306"/>
<text text-anchor="middle" x="146" y="-284.3" font-family="Helvetica,sans-Serif" font-size="14.00">mnt_comp2</text>
</g>
<!-- mnt_comp2&#45;&gt;pressure -->
<g id="edge6" class="edge">
<title>mnt_comp2&#45;&gt;pressure</title>
<path fill="none" stroke="black" stroke-width="1.2" d="M187.8,-306.13C198.68,-310.97 210.52,-316.23 221.69,-321.2"/>
<polygon fill="black" stroke="black" stroke-width="1.2" points="220.33,-324.42 230.88,-325.28 223.17,-318.02 220.33,-324.42"/>
</g>
<!-- mnt_comp3 -->
<g id="node12" class="node">
<title>mnt_comp3</title>
<path fill="white" stroke="black" d="M183,-252C183,-252 109,-252 109,-252 103,-252 97,-246 97,-240 97,-240 97,-228 97,-228 97,-222 103,-216 109,-216 109,-216 183,-216 183,-216 189,-216 195,-222 195,-228 195,-228 195,-240 195,-240 195,-246 189,-252 183,-252"/>
<text text-anchor="middle" x="146" y="-230.3" font-family="Helvetica,sans-Serif" font-size="14.00">mnt_comp3</text>
</g>
<!-- mnt_comp3&#45;&gt;pressure -->
<g id="edge7" class="edge">
<title>mnt_comp3&#45;&gt;pressure</title>
<path fill="none" stroke="black" stroke-width="1.2" d="M182.21,-252.05C186.66,-254.83 191.04,-257.84 195,-261 215.16,-277.07 234.61,-298.88 248.43,-315.82"/>
<polygon fill="black" stroke="black" stroke-width="1.2" points="245.76,-318.09 254.75,-323.7 251.22,-313.71 245.76,-318.09"/>
</g>
<!-- mnt_comp4 -->
<g id="node13" class="node">
<title>mnt_comp4</title>
<path fill="white" stroke="black" d="M183,-738C183,-738 109,-738 109,-738 103,-738 97,-732 97,-726 97,-726 97,-714 97,-714 97,-708 103,-702 109,-702 109,-702 183,-702 183,-702 189,-702 195,-708 195,-714 195,-714 195,-726 195,-726 195,-732 189,-738 183,-738"/>
<text text-anchor="middle" x="146" y="-716.3" font-family="Helvetica,sans-Serif" font-size="14.00">mnt_comp4</text>
</g>
<!-- fail_comp1 -->
<g id="node14" class="node">
<title>fail_comp1</title>
<path fill="white" stroke="black" d="M180,-792C180,-792 112,-792 112,-792 106,-792 100,-786 100,-780 100,-780 100,-768 100,-768 100,-762 106,-756 112,-756 112,-756 180,-756 180,-756 186,-756 192,-762 192,-768 192,-768 192,-780 192,-780 192,-786 186,-792 180,-792"/>
<text text-anchor="middle" x="146" y="-770.3" font-family="Helvetica,sans-Serif" font-size="14.00">fail_comp1</text>
</g>
<!-- fail_comp2 -->
<g id="node15" class="node">
<title>fail_comp2</title>
<path fill="white" stroke="black" d="M180,-846C180,-846 112,-846 112,-846 106,-846 100,-840 100,-834 100,-834 100,-822 100,-822 100,-816 106,-810 112,-810 112,-810 180,-810 180,-810 186,-810 192,-816 192,-822 192,-822 192,-834 192,-834 192,-840 186,-846 180,-846"/>
<text text-anchor="middle" x="146" y="-824.3" font-family="Helvetica,sans-Serif" font-size="14.00">fail_comp2</text>
</g>
<!-- fail_comp3 -->
<g id="node16" class="node">
<title>fail_comp3</title>
<path fill="white" stroke="black" d="M180,-198C180,-198 112,-198 112,-198 106,-198 100,-192 100,-186 100,-186 100,-174 100,-174 100,-168 106,-162 112,-162 112,-162 180,-162 180,-162 186,-162 192,-168 192,-174 192,-174 192,-186 192,-186 192,-192 186,-198 180,-198"/>
<text text-anchor="middle" x="146" y="-176.3" font-family="Helvetica,sans-Serif" font-size="14.00">fail_comp3</text>
</g>
<!-- fail_comp3&#45;&gt;pressure -->
<g id="edge8" class="edge">
<title>fail_comp3&#45;&gt;pressure</title>
<path fill="none" stroke="black" stroke-width="1.2" d="M184.19,-198.04C188.08,-200.74 191.78,-203.73 195,-207 225.68,-238.1 247.17,-284.63 258.69,-314.14"/>
<polygon fill="black" stroke="black" stroke-width="1.2" points="255.54,-315.69 262.34,-323.81 262.08,-313.22 255.54,-315.69"/>
</g>
<!-- fail_comp4 -->
<g id="node17" class="node">
<title>fail_comp4</title>
<path fill="white" stroke="black" d="M180,-144C180,-144 112,-144 112,-144 106,-144 100,-138 100,-132 100,-132 100,-120 100,-120 100,-114 106,-108 112,-108 112,-108 180,-108 180,-108 186,-108 192,-114 192,-120 192,-120 192,-132 192,-132 192,-138 186,-144 180,-144"/>
<text text-anchor="middle" x="146" y="-122.3" font-family="Helvetica,sans-Serif" font-size="14.00">fail_comp4</text>
</g>
<!-- fail_comp4&#45;&gt;pressure -->
<g id="edge9" class="edge">
<title>fail_comp4&#45;&gt;pressure</title>
<path fill="none" stroke="black" stroke-width="1.2" d="M185.56,-144.34C189.02,-146.94 192.24,-149.82 195,-153 236.3,-200.6 255.78,-274.04 263.76,-313.91"/>
<polygon fill="black" stroke="black" stroke-width="1.2" points="260.33,-314.58 265.63,-323.75 267.2,-313.28 260.33,-314.58"/>
</g>
</g>
</svg>
