<?xml version="1.0" encoding="UTF-8" standalone="no"?>
<!DOCTYPE svg PUBLIC "-//W3C//DTD SVG 1.1//EN"
 "http://www.w3.org/Graphics/SVG/1.1/DTD/svg11.dtd">
<!-- Generated by graphviz version 2.50.0 (0)
 -->
<!-- Title: G Pages: 1 -->
<svg width="430pt" height="232pt"
 viewBox="0.00 0.00 430.00 232.00" xmlns="http://www.w3.org/2000/svg" xmlns:xlink="http://www.w3.org/1999/xlink">
<g id="graph0" class="graph" transform="scale(1 1) rotate(0) translate(4 228)">
<title>G</title>
<polygon fill="white" stroke="transparent" points="-4,4 -4,-228 426,-228 426,4 -4,4"/>
<text text-anchor="middle" x="211" y="-207.2" font-family="Times,serif" font-size="16.00">model=model3/gcmvl_telemetry.json [machine 8]</text>
<!-- volt -->
<g id="node1" class="node">
<title>volt</title>
<path fill="white" stroke="black" d="M226,-36C226,-36 196,-36 196,-36 190,-36 184,-30 184,-24 184,-24 184,-12 184,-12 184,-6 190,0 196,0 196,0 226,0 226,0 232,0 238,-6 238,-12 238,-12 238,-24 238,-24 238,-30 232,-36 226,-36"/>
<text text-anchor="middle" x="211" y="-14.3" font-family="Helvetica,sans-Serif" font-size="14.00">volt</text>
</g>
<!-- rotate -->
<g id="node2" class="node">
<title>rotate</title>
<path fill="white" stroke="black" d="M227.5,-90C227.5,-90 194.5,-90 194.5,-90 188.5,-90 182.5,-84 182.5,-78 182.5,-78 182.5,-66 182.5,-66 182.5,-60 188.5,-54 194.5,-54 194.5,-54 227.5,-54 227.5,-54 233.5,-54 239.5,-60 239.5,-66 239.5,-66 239.5,-78 239.5,-78 239.5,-84 233.5,-90 227.5,-90"/>
<text text-anchor="middle" x="211" y="-68.3" font-family="Helvetica,sans-Serif" font-size="14.00">rotate</text>
</g>
<!-- pressure -->
<g id="node3" class="node">
<title>pressure</title>
<path fill="white" stroke="black" d="M237.5,-144C237.5,-144 184.5,-144 184.5,-144 178.5,-144 172.5,-138 172.5,-132 172.5,-132 172.5,-120 172.5,-120 172.5,-114 178.5,-108 184.5,-108 184.5,-108 237.5,-108 237.5,-108 243.5,-108 249.5,-114 249.5,-120 249.5,-120 249.5,-132 249.5,-132 249.5,-138 243.5,-144 237.5,-144"/>
<text text-anchor="middle" x="211" y="-122.3" font-family="Helvetica,sans-Serif" font-size="14.00">pressure</text>
</g>
<!-- vibration -->
<g id="node4" class="node">
<title>vibration</title>
<path fill="white" stroke="black" d="M238,-198C238,-198 184,-198 184,-198 178,-198 172,-192 172,-186 172,-186 172,-174 172,-174 172,-168 178,-162 184,-162 184,-162 238,-162 238,-162 244,-162 250,-168 250,-174 250,-174 250,-186 250,-186 250,-192 244,-198 238,-198"/>
<text text-anchor="middle" x="211" y="-176.3" font-family="Helvetica,sans-Serif" font-size="14.00">vibration</text>
</g>
</g>
</svg>
