<?xml version="1.0" encoding="UTF-8" standalone="no"?>
<!DOCTYPE svg PUBLIC "-//W3C//DTD SVG 1.1//EN"
 "http://www.w3.org/Graphics/SVG/1.1/DTD/svg11.dtd">
<!-- Generated by graphviz version 2.50.0 (0)
 -->
<!-- Title: G Pages: 1 -->
<svg width="413pt" height="772pt"
 viewBox="0.00 0.00 413.00 772.00" xmlns="http://www.w3.org/2000/svg" xmlns:xlink="http://www.w3.org/1999/xlink">
<g id="graph0" class="graph" transform="scale(1 1) rotate(0) translate(4 768)">
<title>G</title>
<polygon fill="white" stroke="transparent" points="-4,4 -4,-768 409,-768 409,4 -4,4"/>
<text text-anchor="middle" x="202.5" y="-747.2" font-family="Times,serif" font-size="16.00">model=model1/gcmvl_mixed.json [machine 56]</text>
<!-- volt -->
<g id="node1" class="node">
<title>volt</title>
<path fill="white" stroke="black" d="M160.5,-36C160.5,-36 130.5,-36 130.5,-36 124.5,-36 118.5,-30 118.5,-24 118.5,-24 118.5,-12 118.5,-12 118.5,-6 124.5,0 130.5,0 130.5,0 160.5,0 160.5,0 166.5,0 172.5,-6 172.5,-12 172.5,-12 172.5,-24 172.5,-24 172.5,-30 166.5,-36 160.5,-36"/>
<text text-anchor="middle" x="145.5" y="-14.3" font-family="Helvetica,sans-Serif" font-size="14.00">volt</text>
</g>
<!-- rotate -->
<g id="node2" class="node">
<title>rotate</title>
<path fill="white" stroke="black" d="M162,-90C162,-90 129,-90 129,-90 123,-90 117,-84 117,-78 117,-78 117,-66 117,-66 117,-60 123,-54 129,-54 129,-54 162,-54 162,-54 168,-54 174,-60 174,-66 174,-66 174,-78 174,-78 174,-84 168,-90 162,-90"/>
<text text-anchor="middle" x="145.5" y="-68.3" font-family="Helvetica,sans-Serif" font-size="14.00">rotate</text>
</g>
<!-- pressure -->
<g id="node3" class="node">
<title>pressure</title>
<path fill="white" stroke="black" d="M172,-144C172,-144 119,-144 119,-144 113,-144 107,-138 107,-132 107,-132 107,-120 107,-120 107,-114 113,-108 119,-108 119,-108 172,-108 172,-108 178,-108 184,-114 184,-120 184,-120 184,-132 184,-132 184,-138 178,-144 172,-144"/>
<text text-anchor="middle" x="145.5" y="-122.3" font-family="Helvetica,sans-Serif" font-size="14.00">pressure</text>
</g>
<!-- vibration -->
<g id="node4" class="node">
<title>vibration</title>
<path fill="white" stroke="black" d="M296.5,-198C296.5,-198 242.5,-198 242.5,-198 236.5,-198 230.5,-192 230.5,-186 230.5,-186 230.5,-174 230.5,-174 230.5,-168 236.5,-162 242.5,-162 242.5,-162 296.5,-162 296.5,-162 302.5,-162 308.5,-168 308.5,-174 308.5,-174 308.5,-186 308.5,-186 308.5,-192 302.5,-198 296.5,-198"/>
<text text-anchor="middle" x="269.5" y="-176.3" font-family="Helvetica,sans-Serif" font-size="14.00">vibration</text>
</g>
<!-- err_error1 -->
<g id="node5" class="node">
<title>err_error1</title>
<path fill="white" stroke="black" d="M176,-252C176,-252 115,-252 115,-252 109,-252 103,-246 103,-240 103,-240 103,-228 103,-228 103,-222 109,-216 115,-216 115,-216 176,-216 176,-216 182,-216 188,-222 188,-228 188,-228 188,-240 188,-240 188,-246 182,-252 176,-252"/>
<text text-anchor="middle" x="145.5" y="-230.3" font-family="Helvetica,sans-Serif" font-size="14.00">err_error1</text>
</g>
<!-- err_error2 -->
<g id="node6" class="node">
<title>err_error2</title>
<path fill="white" stroke="black" d="M176,-306C176,-306 115,-306 115,-306 109,-306 103,-300 103,-294 103,-294 103,-282 103,-282 103,-276 109,-270 115,-270 115,-270 176,-270 176,-270 182,-270 188,-276 188,-282 188,-282 188,-294 188,-294 188,-300 182,-306 176,-306"/>
<text text-anchor="middle" x="145.5" y="-284.3" font-family="Helvetica,sans-Serif" font-size="14.00">err_error2</text>
</g>
<!-- err_error3 -->
<g id="node7" class="node">
<title>err_error3</title>
<path fill="white" stroke="black" d="M176,-198C176,-198 115,-198 115,-198 109,-198 103,-192 103,-186 103,-186 103,-174 103,-174 103,-168 109,-162 115,-162 115,-162 176,-162 176,-162 182,-162 188,-168 188,-174 188,-174 188,-186 188,-186 188,-192 182,-198 176,-198"/>
<text text-anchor="middle" x="145.5" y="-176.3" font-family="Helvetica,sans-Serif" font-size="14.00">err_error3</text>
</g>
<!-- err_error3&#45;&gt;vibration -->
<g id="edge1" class="edge">
<title>err_error3&#45;&gt;vibration</title>
<path fill="none" stroke="black" stroke-width="1.2" d="M188.14,-180C198.39,-180 209.46,-180 220,-180"/>
<polygon fill="black" stroke="black" stroke-width="1.2" points="220.32,-183.5 230.32,-180 220.32,-176.5 220.32,-183.5"/>
</g>
<!-- err_error4 -->
<g id="node8" class="node">
<title>err_error4</title>
<path fill="white" stroke="black" d="M176,-360C176,-360 115,-360 115,-360 109,-360 103,-354 103,-348 103,-348 103,-336 103,-336 103,-330 109,-324 115,-324 115,-324 176,-324 176,-324 182,-324 188,-330 188,-336 188,-336 188,-348 188,-348 188,-354 182,-360 176,-360"/>
<text text-anchor="middle" x="145.5" y="-338.3" font-family="Helvetica,sans-Serif" font-size="14.00">err_error4</text>
</g>
<!-- mnt_comp1 -->
<g id="node9" class="node">
<title>mnt_comp1</title>
<path fill="white" stroke="black" d="M182.5,-414C182.5,-414 108.5,-414 108.5,-414 102.5,-414 96.5,-408 96.5,-402 96.5,-402 96.5,-390 96.5,-390 96.5,-384 102.5,-378 108.5,-378 108.5,-378 182.5,-378 182.5,-378 188.5,-378 194.5,-384 194.5,-390 194.5,-390 194.5,-402 194.5,-402 194.5,-408 188.5,-414 182.5,-414"/>
<text text-anchor="middle" x="145.5" y="-392.3" font-family="Helvetica,sans-Serif" font-size="14.00">mnt_comp1</text>
</g>
<!-- mnt_comp2 -->
<g id="node10" class="node">
<title>mnt_comp2</title>
<path fill="white" stroke="black" d="M182.5,-468C182.5,-468 108.5,-468 108.5,-468 102.5,-468 96.5,-462 96.5,-456 96.5,-456 96.5,-444 96.5,-444 96.5,-438 102.5,-432 108.5,-432 108.5,-432 182.5,-432 182.5,-432 188.5,-432 194.5,-438 194.5,-444 194.5,-444 194.5,-456 194.5,-456 194.5,-462 188.5,-468 182.5,-468"/>
<text text-anchor="middle" x="145.5" y="-446.3" font-family="Helvetica,sans-Serif" font-size="14.00">mnt_comp2</text>
</g>
<!-- mnt_comp3 -->
<g id="node11" class="node">
<title>mnt_comp3</title>
<path fill="white" stroke="black" d="M182.5,-522C182.5,-522 108.5,-522 108.5,-522 102.5,-522 96.5,-516 96.5,-510 96.5,-510 96.5,-498 96.5,-498 96.5,-492 102.5,-486 108.5,-486 108.5,-486 182.5,-486 182.5,-486 188.5,-486 194.5,-492 194.5,-498 194.5,-498 194.5,-510 194.5,-510 194.5,-516 188.5,-522 182.5,-522"/>
<text text-anchor="middle" x="145.5" y="-500.3" font-family="Helvetica,sans-Serif" font-size="14.00">mnt_comp3</text>
</g>
<!-- mnt_comp4 -->
<g id="node12" class="node">
<title>mnt_comp4</title>
<path fill="white" stroke="black" d="M182.5,-576C182.5,-576 108.5,-576 108.5,-576 102.5,-576 96.5,-570 96.5,-564 96.5,-564 96.5,-552 96.5,-552 96.5,-546 102.5,-540 108.5,-540 108.5,-540 182.5,-540 182.5,-540 188.5,-540 194.5,-546 194.5,-552 194.5,-552 194.5,-564 194.5,-564 194.5,-570 188.5,-576 182.5,-576"/>
<text text-anchor="middle" x="145.5" y="-554.3" font-family="Helvetica,sans-Serif" font-size="14.00">mnt_comp4</text>
</g>
<!-- fail_comp1 -->
<g id="node13" class="node">
<title>fail_comp1</title>
<path fill="white" stroke="black" d="M179.5,-630C179.5,-630 111.5,-630 111.5,-630 105.5,-630 99.5,-624 99.5,-618 99.5,-618 99.5,-606 99.5,-606 99.5,-600 105.5,-594 111.5,-594 111.5,-594 179.5,-594 179.5,-594 185.5,-594 191.5,-600 191.5,-606 191.5,-606 191.5,-618 191.5,-618 191.5,-624 185.5,-630 179.5,-630"/>
<text text-anchor="middle" x="145.5" y="-608.3" font-family="Helvetica,sans-Serif" font-size="14.00">fail_comp1</text>
</g>
<!-- fail_comp2 -->
<g id="node14" class="node">
<title>fail_comp2</title>
<path fill="white" stroke="black" d="M179.5,-684C179.5,-684 111.5,-684 111.5,-684 105.5,-684 99.5,-678 99.5,-672 99.5,-672 99.5,-660 99.5,-660 99.5,-654 105.5,-648 111.5,-648 111.5,-648 179.5,-648 179.5,-648 185.5,-648 191.5,-654 191.5,-660 191.5,-660 191.5,-672 191.5,-672 191.5,-678 185.5,-684 179.5,-684"/>
<text text-anchor="middle" x="145.5" y="-662.3" font-family="Helvetica,sans-Serif" font-size="14.00">fail_comp2</text>
</g>
<!-- fail_comp3 -->
<g id="node15" class="node">
<title>fail_comp3</title>
<path fill="white" stroke="black" d="M179.5,-738C179.5,-738 111.5,-738 111.5,-738 105.5,-738 99.5,-732 99.5,-726 99.5,-726 99.5,-714 99.5,-714 99.5,-708 105.5,-702 111.5,-702 111.5,-702 179.5,-702 179.5,-702 185.5,-702 191.5,-708 191.5,-714 191.5,-714 191.5,-726 191.5,-726 191.5,-732 185.5,-738 179.5,-738"/>
<text text-anchor="middle" x="145.5" y="-716.3" font-family="Helvetica,sans-Serif" font-size="14.00">fail_comp3</text>
</g>
</g>
</svg>
