<?xml version="1.0" encoding="UTF-8" standalone="no"?>
<!DOCTYPE svg PUBLIC "-//W3C//DTD SVG 1.1//EN"
 "http://www.w3.org/Graphics/SVG/1.1/DTD/svg11.dtd">
<!-- Generated by graphviz version 2.50.0 (0)
 -->
<!-- Title: G Pages: 1 -->
<svg width="413pt" height="664pt"
 viewBox="0.00 0.00 413.00 664.00" xmlns="http://www.w3.org/2000/svg" xmlns:xlink="http://www.w3.org/1999/xlink">
<g id="graph0" class="graph" transform="scale(1 1) rotate(0) translate(4 660)">
<title>G</title>
<polygon fill="white" stroke="transparent" points="-4,4 -4,-660 409,-660 409,4 -4,4"/>
<text text-anchor="middle" x="202.5" y="-639.2" font-family="Times,serif" font-size="16.00">model=model2/gcmvl_mixed.json [machine 11]</text>
<!-- volt -->
<g id="node1" class="node">
<title>volt</title>
<path fill="white" stroke="black" d="M160.5,-36C160.5,-36 130.5,-36 130.5,-36 124.5,-36 118.5,-30 118.5,-24 118.5,-24 118.5,-12 118.5,-12 118.5,-6 124.5,0 130.5,0 130.5,0 160.5,0 160.5,0 166.5,0 172.5,-6 172.5,-12 172.5,-12 172.5,-24 172.5,-24 172.5,-30 166.5,-36 160.5,-36"/>
<text text-anchor="middle" x="145.5" y="-14.3" font-family="Helvetica,sans-Serif" font-size="14.00">volt</text>
</g>
<!-- rotate -->
<g id="node2" class="node">
<title>rotate</title>
<path fill="white" stroke="black" d="M286,-252C286,-252 253,-252 253,-252 247,-252 241,-246 241,-240 241,-240 241,-228 241,-228 241,-222 247,-216 253,-216 253,-216 286,-216 286,-216 292,-216 298,-222 298,-228 298,-228 298,-240 298,-240 298,-246 292,-252 286,-252"/>
<text text-anchor="middle" x="269.5" y="-230.3" font-family="Helvetica,sans-Serif" font-size="14.00">rotate</text>
</g>
<!-- pressure -->
<g id="node3" class="node">
<title>pressure</title>
<path fill="white" stroke="black" d="M172,-468C172,-468 119,-468 119,-468 113,-468 107,-462 107,-456 107,-456 107,-444 107,-444 107,-438 113,-432 119,-432 119,-432 172,-432 172,-432 178,-432 184,-438 184,-444 184,-444 184,-456 184,-456 184,-462 178,-468 172,-468"/>
<text text-anchor="middle" x="145.5" y="-446.3" font-family="Helvetica,sans-Serif" font-size="14.00">pressure</text>
</g>
<!-- vibration -->
<g id="node4" class="node">
<title>vibration</title>
<path fill="white" stroke="black" d="M296.5,-198C296.5,-198 242.5,-198 242.5,-198 236.5,-198 230.5,-192 230.5,-186 230.5,-186 230.5,-174 230.5,-174 230.5,-168 236.5,-162 242.5,-162 242.5,-162 296.5,-162 296.5,-162 302.5,-162 308.5,-168 308.5,-174 308.5,-174 308.5,-186 308.5,-186 308.5,-192 302.5,-198 296.5,-198"/>
<text text-anchor="middle" x="269.5" y="-176.3" font-family="Helvetica,sans-Serif" font-size="14.00">vibration</text>
</g>
<!-- err_error1 -->
<g id="node5" class="node">
<title>err_error1</title>
<path fill="white" stroke="black" d="M176,-198C176,-198 115,-198 115,-198 109,-198 103,-192 103,-186 103,-186 103,-174 103,-174 103,-168 109,-162 115,-162 115,-162 176,-162 176,-162 182,-162 188,-168 188,-174 188,-174 188,-186 188,-186 188,-192 182,-198 176,-198"/>
<text text-anchor="middle" x="145.5" y="-176.3" font-family="Helvetica,sans-Serif" font-size="14.00">err_error1</text>
</g>
<!-- err_error1&#45;&gt;rotate -->
<g id="edge1" class="edge">
<title>err_error1&#45;&gt;rotate</title>
<path fill="none" stroke="black" stroke-width="1.2" d="M187.46,-198.13C201.75,-204.45 217.68,-211.51 231.62,-217.68"/>
<polygon fill="black" stroke="black" stroke-width="1.2" points="230.34,-220.94 240.9,-221.78 233.17,-214.54 230.34,-220.94"/>
</g>
<!-- err_error1&#45;&gt;vibration -->
<g id="edge8" class="edge">
<title>err_error1&#45;&gt;vibration</title>
<path fill="none" stroke="black" stroke-width="1.2" d="M188.14,-180C198.39,-180 209.46,-180 220,-180"/>
<polygon fill="black" stroke="black" stroke-width="1.2" points="220.32,-183.5 230.32,-180 220.32,-176.5 220.32,-183.5"/>
</g>
<!-- err_error2 -->
<g id="node6" class="node">
<title>err_error2</title>
<path fill="white" stroke="black" d="M176,-144C176,-144 115,-144 115,-144 109,-144 103,-138 103,-132 103,-132 103,-120 103,-120 103,-114 109,-108 115,-108 115,-108 176,-108 176,-108 182,-108 188,-114 188,-120 188,-120 188,-132 188,-132 188,-138 182,-144 176,-144"/>
<text text-anchor="middle" x="145.5" y="-122.3" font-family="Helvetica,sans-Serif" font-size="14.00">err_error2</text>
</g>
<!-- err_error2&#45;&gt;rotate -->
<g id="edge2" class="edge">
<title>err_error2&#45;&gt;rotate</title>
<path fill="none" stroke="black" stroke-width="1.2" d="M183.4,-144.33C187.34,-146.98 191.13,-149.88 194.5,-153 215.65,-172.61 210.41,-186.3 230.5,-207 231.39,-207.91 232.31,-208.82 233.26,-209.71"/>
<polygon fill="black" stroke="black" stroke-width="1.2" points="231.06,-212.44 240.94,-216.27 235.61,-207.11 231.06,-212.44"/>
</g>
<!-- err_error2&#45;&gt;vibration -->
<g id="edge9" class="edge">
<title>err_error2&#45;&gt;vibration</title>
<path fill="none" stroke="black" stroke-width="1.2" d="M187.46,-144.13C198.28,-148.92 210.04,-154.12 221.16,-159.05"/>
<polygon fill="black" stroke="black" stroke-width="1.2" points="219.76,-162.25 230.32,-163.1 222.59,-155.85 219.76,-162.25"/>
</g>
<!-- err_error3 -->
<g id="node7" class="node">
<title>err_error3</title>
<path fill="white" stroke="black" d="M176,-90C176,-90 115,-90 115,-90 109,-90 103,-84 103,-78 103,-78 103,-66 103,-66 103,-60 109,-54 115,-54 115,-54 176,-54 176,-54 182,-54 188,-60 188,-66 188,-66 188,-78 188,-78 188,-84 182,-90 176,-90"/>
<text text-anchor="middle" x="145.5" y="-68.3" font-family="Helvetica,sans-Serif" font-size="14.00">err_error3</text>
</g>
<!-- err_error3&#45;&gt;rotate -->
<g id="edge3" class="edge">
<title>err_error3&#45;&gt;rotate</title>
<path fill="none" stroke="black" stroke-width="1.2" d="M185.22,-90.21C188.65,-92.83 191.82,-95.76 194.5,-99 226.71,-138.02 200.39,-166.34 230.5,-207 231.4,-208.22 232.38,-209.41 233.41,-210.56"/>
<polygon fill="black" stroke="black" stroke-width="1.2" points="231.2,-213.28 240.87,-217.62 236.01,-208.2 231.2,-213.28"/>
</g>
<!-- err_error3&#45;&gt;vibration -->
<g id="edge10" class="edge">
<title>err_error3&#45;&gt;vibration</title>
<path fill="none" stroke="black" stroke-width="1.2" d="M181.7,-90.06C186.15,-92.84 190.53,-95.85 194.5,-99 214.75,-115.09 234.34,-136.9 248.27,-153.83"/>
<polygon fill="black" stroke="black" stroke-width="1.2" points="245.62,-156.13 254.63,-161.71 251.07,-151.73 245.62,-156.13"/>
</g>
<!-- err_error4 -->
<g id="node8" class="node">
<title>err_error4</title>
<path fill="white" stroke="black" d="M176,-360C176,-360 115,-360 115,-360 109,-360 103,-354 103,-348 103,-348 103,-336 103,-336 103,-330 109,-324 115,-324 115,-324 176,-324 176,-324 182,-324 188,-330 188,-336 188,-336 188,-348 188,-348 188,-354 182,-360 176,-360"/>
<text text-anchor="middle" x="145.5" y="-338.3" font-family="Helvetica,sans-Serif" font-size="14.00">err_error4</text>
</g>
<!-- err_error4&#45;&gt;rotate -->
<g id="edge4" class="edge">
<title>err_error4&#45;&gt;rotate</title>
<path fill="none" stroke="black" stroke-width="1.2" d="M181.7,-323.94C186.15,-321.16 190.53,-318.15 194.5,-315 214.75,-298.91 234.34,-277.1 248.27,-260.17"/>
<polygon fill="black" stroke="black" stroke-width="1.2" points="251.07,-262.27 254.63,-252.29 245.62,-257.87 251.07,-262.27"/>
</g>
<!-- err_error4&#45;&gt;vibration -->
<g id="edge11" class="edge">
<title>err_error4&#45;&gt;vibration</title>
<path fill="none" stroke="black" stroke-width="1.2" d="M185.22,-323.79C188.65,-321.17 191.82,-318.24 194.5,-315 226.71,-275.98 200.39,-247.66 230.5,-207 230.86,-206.51 231.23,-206.03 231.62,-205.55"/>
<polygon fill="black" stroke="black" stroke-width="1.2" points="234.16,-207.95 238.59,-198.33 229.12,-203.1 234.16,-207.95"/>
</g>
<!-- mnt_comp1 -->
<g id="node9" class="node">
<title>mnt_comp1</title>
<path fill="white" stroke="black" d="M182.5,-522C182.5,-522 108.5,-522 108.5,-522 102.5,-522 96.5,-516 96.5,-510 96.5,-510 96.5,-498 96.5,-498 96.5,-492 102.5,-486 108.5,-486 108.5,-486 182.5,-486 182.5,-486 188.5,-486 194.5,-492 194.5,-498 194.5,-498 194.5,-510 194.5,-510 194.5,-516 188.5,-522 182.5,-522"/>
<text text-anchor="middle" x="145.5" y="-500.3" font-family="Helvetica,sans-Serif" font-size="14.00">mnt_comp1</text>
</g>
<!-- mnt_comp2 -->
<g id="node10" class="node">
<title>mnt_comp2</title>
<path fill="white" stroke="black" d="M182.5,-576C182.5,-576 108.5,-576 108.5,-576 102.5,-576 96.5,-570 96.5,-564 96.5,-564 96.5,-552 96.5,-552 96.5,-546 102.5,-540 108.5,-540 108.5,-540 182.5,-540 182.5,-540 188.5,-540 194.5,-546 194.5,-552 194.5,-552 194.5,-564 194.5,-564 194.5,-570 188.5,-576 182.5,-576"/>
<text text-anchor="middle" x="145.5" y="-554.3" font-family="Helvetica,sans-Serif" font-size="14.00">mnt_comp2</text>
</g>
<!-- mnt_comp3 -->
<g id="node11" class="node">
<title>mnt_comp3</title>
<path fill="white" stroke="black" d="M182.5,-306C182.5,-306 108.5,-306 108.5,-306 102.5,-306 96.5,-300 96.5,-294 96.5,-294 96.5,-282 96.5,-282 96.5,-276 102.5,-270 108.5,-270 108.5,-270 182.5,-270 182.5,-270 188.5,-270 194.5,-276 194.5,-282 194.5,-282 194.5,-294 194.5,-294 194.5,-300 188.5,-306 182.5,-306"/>
<text text-anchor="middle" x="145.5" y="-284.3" font-family="Helvetica,sans-Serif" font-size="14.00">mnt_comp3</text>
</g>
<!-- mnt_comp3&#45;&gt;rotate -->
<g id="edge5" class="edge">
<title>mnt_comp3&#45;&gt;rotate</title>
<path fill="none" stroke="black" stroke-width="1.2" d="M187.46,-269.87C201.75,-263.55 217.68,-256.49 231.62,-250.32"/>
<polygon fill="black" stroke="black" stroke-width="1.2" points="233.17,-253.46 240.9,-246.22 230.34,-247.06 233.17,-253.46"/>
</g>
<!-- mnt_comp3&#45;&gt;vibration -->
<g id="edge12" class="edge">
<title>mnt_comp3&#45;&gt;vibration</title>
<path fill="none" stroke="black" stroke-width="1.2" d="M183.4,-269.67C187.34,-267.02 191.13,-264.12 194.5,-261 215.65,-241.39 210.41,-227.7 230.5,-207 231.26,-206.22 232.05,-205.44 232.85,-204.67"/>
<polygon fill="black" stroke="black" stroke-width="1.2" points="235.25,-207.22 240.54,-198.05 230.68,-201.92 235.25,-207.22"/>
</g>
<!-- mnt_comp4 -->
<g id="node12" class="node">
<title>mnt_comp4</title>
<path fill="white" stroke="black" d="M182.5,-252C182.5,-252 108.5,-252 108.5,-252 102.5,-252 96.5,-246 96.5,-240 96.5,-240 96.5,-228 96.5,-228 96.5,-222 102.5,-216 108.5,-216 108.5,-216 182.5,-216 182.5,-216 188.5,-216 194.5,-222 194.5,-228 194.5,-228 194.5,-240 194.5,-240 194.5,-246 188.5,-252 182.5,-252"/>
<text text-anchor="middle" x="145.5" y="-230.3" font-family="Helvetica,sans-Serif" font-size="14.00">mnt_comp4</text>
</g>
<!-- mnt_comp4&#45;&gt;rotate -->
<g id="edge6" class="edge">
<title>mnt_comp4&#45;&gt;rotate</title>
<path fill="none" stroke="black" stroke-width="1.2" d="M194.72,-234C206.75,-234 219.48,-234 230.92,-234"/>
<polygon fill="black" stroke="black" stroke-width="1.2" points="231,-237.5 241,-234 231,-230.5 231,-237.5"/>
</g>
<!-- mnt_comp4&#45;&gt;vibration -->
<g id="edge13" class="edge">
<title>mnt_comp4&#45;&gt;vibration</title>
<path fill="none" stroke="black" stroke-width="1.2" d="M187.46,-215.87C198.28,-211.08 210.04,-205.88 221.16,-200.95"/>
<polygon fill="black" stroke="black" stroke-width="1.2" points="222.59,-204.15 230.32,-196.9 219.76,-197.75 222.59,-204.15"/>
</g>
<!-- fail_comp2 -->
<g id="node13" class="node">
<title>fail_comp2</title>
<path fill="white" stroke="black" d="M179.5,-630C179.5,-630 111.5,-630 111.5,-630 105.5,-630 99.5,-624 99.5,-618 99.5,-618 99.5,-606 99.5,-606 99.5,-600 105.5,-594 111.5,-594 111.5,-594 179.5,-594 179.5,-594 185.5,-594 191.5,-600 191.5,-606 191.5,-606 191.5,-618 191.5,-618 191.5,-624 185.5,-630 179.5,-630"/>
<text text-anchor="middle" x="145.5" y="-608.3" font-family="Helvetica,sans-Serif" font-size="14.00">fail_comp2</text>
</g>
<!-- fail_comp3 -->
<g id="node14" class="node">
<title>fail_comp3</title>
<path fill="white" stroke="black" d="M179.5,-414C179.5,-414 111.5,-414 111.5,-414 105.5,-414 99.5,-408 99.5,-402 99.5,-402 99.5,-390 99.5,-390 99.5,-384 105.5,-378 111.5,-378 111.5,-378 179.5,-378 179.5,-378 185.5,-378 191.5,-384 191.5,-390 191.5,-390 191.5,-402 191.5,-402 191.5,-408 185.5,-414 179.5,-414"/>
<text text-anchor="middle" x="145.5" y="-392.3" font-family="Helvetica,sans-Serif" font-size="14.00">fail_comp3</text>
</g>
<!-- fail_comp3&#45;&gt;rotate -->
<g id="edge7" class="edge">
<title>fail_comp3&#45;&gt;rotate</title>
<path fill="none" stroke="black" stroke-width="1.2" d="M183.68,-377.95C187.57,-375.25 191.27,-372.26 194.5,-369 225.27,-337.89 246.95,-291.37 258.58,-261.86"/>
<polygon fill="black" stroke="black" stroke-width="1.2" points="261.97,-262.78 262.27,-252.19 255.43,-260.28 261.97,-262.78"/>
</g>
</g>
</svg>
