<?xml version="1.0" encoding="UTF-8" standalone="no"?>
<!DOCTYPE svg PUBLIC "-//W3C//DTD SVG 1.1//EN"
 "http://www.w3.org/Graphics/SVG/1.1/DTD/svg11.dtd">
<!-- Generated by graphviz version 2.50.0 (0)
 -->
<!-- Title: G Pages: 1 -->
<svg width="413pt" height="880pt"
 viewBox="0.00 0.00 413.00 880.00" xmlns="http://www.w3.org/2000/svg" xmlns:xlink="http://www.w3.org/1999/xlink">
<g id="graph0" class="graph" transform="scale(1 1) rotate(0) translate(4 876)">
<title>G</title>
<polygon fill="white" stroke="transparent" points="-4,4 -4,-876 409,-876 409,4 -4,4"/>
<text text-anchor="middle" x="202.5" y="-855.2" font-family="Times,serif" font-size="16.00">model=model1/gcmvl_mixed.json [machine 22]</text>
<!-- volt -->
<g id="node1" class="node">
<title>volt</title>
<path fill="white" stroke="black" d="M161,-36C161,-36 131,-36 131,-36 125,-36 119,-30 119,-24 119,-24 119,-12 119,-12 119,-6 125,0 131,0 131,0 161,0 161,0 167,0 173,-6 173,-12 173,-12 173,-24 173,-24 173,-30 167,-36 161,-36"/>
<text text-anchor="middle" x="146" y="-14.3" font-family="Helvetica,sans-Serif" font-size="14.00">volt</text>
</g>
<!-- rotate -->
<g id="node2" class="node">
<title>rotate</title>
<path fill="white" stroke="black" d="M162.5,-90C162.5,-90 129.5,-90 129.5,-90 123.5,-90 117.5,-84 117.5,-78 117.5,-78 117.5,-66 117.5,-66 117.5,-60 123.5,-54 129.5,-54 129.5,-54 162.5,-54 162.5,-54 168.5,-54 174.5,-60 174.5,-66 174.5,-66 174.5,-78 174.5,-78 174.5,-84 168.5,-90 162.5,-90"/>
<text text-anchor="middle" x="146" y="-68.3" font-family="Helvetica,sans-Serif" font-size="14.00">rotate</text>
</g>
<!-- pressure -->
<g id="node3" class="node">
<title>pressure</title>
<path fill="white" stroke="black" d="M296,-441C296,-441 243,-441 243,-441 237,-441 231,-435 231,-429 231,-429 231,-417 231,-417 231,-411 237,-405 243,-405 243,-405 296,-405 296,-405 302,-405 308,-411 308,-417 308,-417 308,-429 308,-429 308,-435 302,-441 296,-441"/>
<text text-anchor="middle" x="269.5" y="-419.3" font-family="Helvetica,sans-Serif" font-size="14.00">pressure</text>
</g>
<!-- vibration -->
<g id="node4" class="node">
<title>vibration</title>
<path fill="white" stroke="black" d="M173,-792C173,-792 119,-792 119,-792 113,-792 107,-786 107,-780 107,-780 107,-768 107,-768 107,-762 113,-756 119,-756 119,-756 173,-756 173,-756 179,-756 185,-762 185,-768 185,-768 185,-780 185,-780 185,-786 179,-792 173,-792"/>
<text text-anchor="middle" x="146" y="-770.3" font-family="Helvetica,sans-Serif" font-size="14.00">vibration</text>
</g>
<!-- err_error1 -->
<g id="node5" class="node">
<title>err_error1</title>
<path fill="white" stroke="black" d="M176.5,-738C176.5,-738 115.5,-738 115.5,-738 109.5,-738 103.5,-732 103.5,-726 103.5,-726 103.5,-714 103.5,-714 103.5,-708 109.5,-702 115.5,-702 115.5,-702 176.5,-702 176.5,-702 182.5,-702 188.5,-708 188.5,-714 188.5,-714 188.5,-726 188.5,-726 188.5,-732 182.5,-738 176.5,-738"/>
<text text-anchor="middle" x="146" y="-716.3" font-family="Helvetica,sans-Serif" font-size="14.00">err_error1</text>
</g>
<!-- err_error1&#45;&gt;pressure -->
<g id="edge1" class="edge">
<title>err_error1&#45;&gt;pressure</title>
<path fill="none" stroke="black" stroke-width="1.2" d="M185.91,-701.95C189.3,-699.29 192.41,-696.32 195,-693 252.42,-619.34 265.05,-504.04 267.78,-451.18"/>
<polygon fill="black" stroke="black" stroke-width="1.2" points="271.28,-451.33 268.21,-441.18 264.28,-451.02 271.28,-451.33"/>
</g>
<!-- err_error2 -->
<g id="node6" class="node">
<title>err_error2</title>
<path fill="white" stroke="black" d="M176.5,-684C176.5,-684 115.5,-684 115.5,-684 109.5,-684 103.5,-678 103.5,-672 103.5,-672 103.5,-660 103.5,-660 103.5,-654 109.5,-648 115.5,-648 115.5,-648 176.5,-648 176.5,-648 182.5,-648 188.5,-654 188.5,-660 188.5,-660 188.5,-672 188.5,-672 188.5,-678 182.5,-684 176.5,-684"/>
<text text-anchor="middle" x="146" y="-662.3" font-family="Helvetica,sans-Serif" font-size="14.00">err_error2</text>
</g>
<!-- err_error2&#45;&gt;pressure -->
<g id="edge2" class="edge">
<title>err_error2&#45;&gt;pressure</title>
<path fill="none" stroke="black" stroke-width="1.2" d="M185.7,-647.78C189.13,-645.16 192.31,-642.24 195,-639 241.65,-582.84 259.23,-495.59 265.41,-451.12"/>
<polygon fill="black" stroke="black" stroke-width="1.2" points="268.9,-451.4 266.72,-441.04 261.96,-450.5 268.9,-451.4"/>
</g>
<!-- err_error3 -->
<g id="node7" class="node">
<title>err_error3</title>
<path fill="white" stroke="black" d="M176.5,-630C176.5,-630 115.5,-630 115.5,-630 109.5,-630 103.5,-624 103.5,-618 103.5,-618 103.5,-606 103.5,-606 103.5,-600 109.5,-594 115.5,-594 115.5,-594 176.5,-594 176.5,-594 182.5,-594 188.5,-600 188.5,-606 188.5,-606 188.5,-618 188.5,-618 188.5,-624 182.5,-630 176.5,-630"/>
<text text-anchor="middle" x="146" y="-608.3" font-family="Helvetica,sans-Serif" font-size="14.00">err_error3</text>
</g>
<!-- err_error3&#45;&gt;pressure -->
<g id="edge3" class="edge">
<title>err_error3&#45;&gt;pressure</title>
<path fill="none" stroke="black" stroke-width="1.2" d="M184.91,-593.85C188.57,-591.19 192.03,-588.24 195,-585 230.94,-545.81 251.79,-486.05 261.58,-451.12"/>
<polygon fill="black" stroke="black" stroke-width="1.2" points="265.05,-451.69 264.27,-441.13 258.29,-449.87 265.05,-451.69"/>
</g>
<!-- err_error4 -->
<g id="node8" class="node">
<title>err_error4</title>
<path fill="white" stroke="black" d="M176.5,-576C176.5,-576 115.5,-576 115.5,-576 109.5,-576 103.5,-570 103.5,-564 103.5,-564 103.5,-552 103.5,-552 103.5,-546 109.5,-540 115.5,-540 115.5,-540 176.5,-540 176.5,-540 182.5,-540 188.5,-546 188.5,-552 188.5,-552 188.5,-564 188.5,-564 188.5,-570 182.5,-576 176.5,-576"/>
<text text-anchor="middle" x="146" y="-554.3" font-family="Helvetica,sans-Serif" font-size="14.00">err_error4</text>
</g>
<!-- err_error4&#45;&gt;pressure -->
<g id="edge4" class="edge">
<title>err_error4&#45;&gt;pressure</title>
<path fill="none" stroke="black" stroke-width="1.2" d="M183.38,-539.97C187.5,-537.23 191.48,-534.23 195,-531 220.4,-507.68 241.56,-473.96 254.55,-450.42"/>
<polygon fill="black" stroke="black" stroke-width="1.2" points="257.79,-451.79 259.45,-441.33 251.62,-448.47 257.79,-451.79"/>
</g>
<!-- err_error5 -->
<g id="node9" class="node">
<title>err_error5</title>
<path fill="white" stroke="black" d="M176.5,-522C176.5,-522 115.5,-522 115.5,-522 109.5,-522 103.5,-516 103.5,-510 103.5,-510 103.5,-498 103.5,-498 103.5,-492 109.5,-486 115.5,-486 115.5,-486 176.5,-486 176.5,-486 182.5,-486 188.5,-492 188.5,-498 188.5,-498 188.5,-510 188.5,-510 188.5,-516 182.5,-522 176.5,-522"/>
<text text-anchor="middle" x="146" y="-500.3" font-family="Helvetica,sans-Serif" font-size="14.00">err_error5</text>
</g>
<!-- err_error5&#45;&gt;pressure -->
<g id="edge5" class="edge">
<title>err_error5&#45;&gt;pressure</title>
<path fill="none" stroke="black" stroke-width="1.2" d="M180.36,-485.93C185.33,-483.04 190.34,-480.01 195,-477 209.3,-467.77 224.54,-456.78 237.42,-447.13"/>
<polygon fill="black" stroke="black" stroke-width="1.2" points="239.65,-449.83 245.51,-441.01 235.42,-444.25 239.65,-449.83"/>
</g>
<!-- mnt_comp1 -->
<g id="node10" class="node">
<title>mnt_comp1</title>
<path fill="white" stroke="black" d="M183,-468C183,-468 109,-468 109,-468 103,-468 97,-462 97,-456 97,-456 97,-444 97,-444 97,-438 103,-432 109,-432 109,-432 183,-432 183,-432 189,-432 195,-438 195,-444 195,-444 195,-456 195,-456 195,-462 189,-468 183,-468"/>
<text text-anchor="middle" x="146" y="-446.3" font-family="Helvetica,sans-Serif" font-size="14.00">mnt_comp1</text>
</g>
<!-- mnt_comp1&#45;&gt;pressure -->
<g id="edge6" class="edge">
<title>mnt_comp1&#45;&gt;pressure</title>
<path fill="none" stroke="black" stroke-width="1.2" d="M195.02,-439.33C203.6,-437.42 212.54,-435.44 221.1,-433.53"/>
<polygon fill="black" stroke="black" stroke-width="1.2" points="221.94,-436.93 230.94,-431.35 220.42,-430.1 221.94,-436.93"/>
</g>
<!-- mnt_comp2 -->
<g id="node11" class="node">
<title>mnt_comp2</title>
<path fill="white" stroke="black" d="M183,-414C183,-414 109,-414 109,-414 103,-414 97,-408 97,-402 97,-402 97,-390 97,-390 97,-384 103,-378 109,-378 109,-378 183,-378 183,-378 189,-378 195,-384 195,-390 195,-390 195,-402 195,-402 195,-408 189,-414 183,-414"/>
<text text-anchor="middle" x="146" y="-392.3" font-family="Helvetica,sans-Serif" font-size="14.00">mnt_comp2</text>
</g>
<!-- mnt_comp2&#45;&gt;pressure -->
<g id="edge7" class="edge">
<title>mnt_comp2&#45;&gt;pressure</title>
<path fill="none" stroke="black" stroke-width="1.2" d="M195.02,-406.67C203.6,-408.58 212.54,-410.56 221.1,-412.47"/>
<polygon fill="black" stroke="black" stroke-width="1.2" points="220.42,-415.9 230.94,-414.65 221.94,-409.07 220.42,-415.9"/>
</g>
<!-- mnt_comp3 -->
<g id="node12" class="node">
<title>mnt_comp3</title>
<path fill="white" stroke="black" d="M183,-360C183,-360 109,-360 109,-360 103,-360 97,-354 97,-348 97,-348 97,-336 97,-336 97,-330 103,-324 109,-324 109,-324 183,-324 183,-324 189,-324 195,-330 195,-336 195,-336 195,-348 195,-348 195,-354 189,-360 183,-360"/>
<text text-anchor="middle" x="146" y="-338.3" font-family="Helvetica,sans-Serif" font-size="14.00">mnt_comp3</text>
</g>
<!-- mnt_comp3&#45;&gt;pressure -->
<g id="edge8" class="edge">
<title>mnt_comp3&#45;&gt;pressure</title>
<path fill="none" stroke="black" stroke-width="1.2" d="M180.36,-360.07C185.33,-362.96 190.34,-365.99 195,-369 209.3,-378.23 224.54,-389.22 237.42,-398.87"/>
<polygon fill="black" stroke="black" stroke-width="1.2" points="235.42,-401.75 245.51,-404.99 239.65,-396.17 235.42,-401.75"/>
</g>
<!-- mnt_comp4 -->
<g id="node13" class="node">
<title>mnt_comp4</title>
<path fill="white" stroke="black" d="M183,-306C183,-306 109,-306 109,-306 103,-306 97,-300 97,-294 97,-294 97,-282 97,-282 97,-276 103,-270 109,-270 109,-270 183,-270 183,-270 189,-270 195,-276 195,-282 195,-282 195,-294 195,-294 195,-300 189,-306 183,-306"/>
<text text-anchor="middle" x="146" y="-284.3" font-family="Helvetica,sans-Serif" font-size="14.00">mnt_comp4</text>
</g>
<!-- mnt_comp4&#45;&gt;pressure -->
<g id="edge9" class="edge">
<title>mnt_comp4&#45;&gt;pressure</title>
<path fill="none" stroke="black" stroke-width="1.2" d="M183.38,-306.03C187.5,-308.77 191.48,-311.77 195,-315 220.4,-338.32 241.56,-372.04 254.55,-395.58"/>
<polygon fill="black" stroke="black" stroke-width="1.2" points="251.62,-397.53 259.45,-404.67 257.79,-394.21 251.62,-397.53"/>
</g>
<!-- fail_comp1 -->
<g id="node14" class="node">
<title>fail_comp1</title>
<path fill="white" stroke="black" d="M180,-252C180,-252 112,-252 112,-252 106,-252 100,-246 100,-240 100,-240 100,-228 100,-228 100,-222 106,-216 112,-216 112,-216 180,-216 180,-216 186,-216 192,-222 192,-228 192,-228 192,-240 192,-240 192,-246 186,-252 180,-252"/>
<text text-anchor="middle" x="146" y="-230.3" font-family="Helvetica,sans-Serif" font-size="14.00">fail_comp1</text>
</g>
<!-- fail_comp1&#45;&gt;pressure -->
<g id="edge10" class="edge">
<title>fail_comp1&#45;&gt;pressure</title>
<path fill="none" stroke="black" stroke-width="1.2" d="M184.91,-252.15C188.57,-254.81 192.03,-257.76 195,-261 230.94,-300.19 251.79,-359.95 261.58,-394.88"/>
<polygon fill="black" stroke="black" stroke-width="1.2" points="258.29,-396.13 264.27,-404.87 265.05,-394.31 258.29,-396.13"/>
</g>
<!-- fail_comp2 -->
<g id="node15" class="node">
<title>fail_comp2</title>
<path fill="white" stroke="black" d="M180,-198C180,-198 112,-198 112,-198 106,-198 100,-192 100,-186 100,-186 100,-174 100,-174 100,-168 106,-162 112,-162 112,-162 180,-162 180,-162 186,-162 192,-168 192,-174 192,-174 192,-186 192,-186 192,-192 186,-198 180,-198"/>
<text text-anchor="middle" x="146" y="-176.3" font-family="Helvetica,sans-Serif" font-size="14.00">fail_comp2</text>
</g>
<!-- fail_comp2&#45;&gt;pressure -->
<g id="edge11" class="edge">
<title>fail_comp2&#45;&gt;pressure</title>
<path fill="none" stroke="black" stroke-width="1.2" d="M185.7,-198.22C189.13,-200.84 192.31,-203.76 195,-207 241.65,-263.16 259.23,-350.41 265.41,-394.88"/>
<polygon fill="black" stroke="black" stroke-width="1.2" points="261.96,-395.5 266.72,-404.96 268.9,-394.6 261.96,-395.5"/>
</g>
<!-- fail_comp3 -->
<g id="node16" class="node">
<title>fail_comp3</title>
<path fill="white" stroke="black" d="M180,-144C180,-144 112,-144 112,-144 106,-144 100,-138 100,-132 100,-132 100,-120 100,-120 100,-114 106,-108 112,-108 112,-108 180,-108 180,-108 186,-108 192,-114 192,-120 192,-120 192,-132 192,-132 192,-138 186,-144 180,-144"/>
<text text-anchor="middle" x="146" y="-122.3" font-family="Helvetica,sans-Serif" font-size="14.00">fail_comp3</text>
</g>
<!-- fail_comp3&#45;&gt;pressure -->
<g id="edge12" class="edge">
<title>fail_comp3&#45;&gt;pressure</title>
<path fill="none" stroke="black" stroke-width="1.2" d="M185.91,-144.05C189.3,-146.71 192.41,-149.68 195,-153 252.42,-226.66 265.05,-341.96 267.78,-394.82"/>
<polygon fill="black" stroke="black" stroke-width="1.2" points="264.28,-394.98 268.21,-404.82 271.28,-394.67 264.28,-394.98"/>
</g>
<!-- fail_comp4 -->
<g id="node17" class="node">
<title>fail_comp4</title>
<path fill="white" stroke="black" d="M180,-846C180,-846 112,-846 112,-846 106,-846 100,-840 100,-834 100,-834 100,-822 100,-822 100,-816 106,-810 112,-810 112,-810 180,-810 180,-810 186,-810 192,-816 192,-822 192,-822 192,-834 192,-834 192,-840 186,-846 180,-846"/>
<text text-anchor="middle" x="146" y="-824.3" font-family="Helvetica,sans-Serif" font-size="14.00">fail_comp4</text>
</g>
</g>
</svg>
