<?xml version="1.0" encoding="UTF-8" standalone="no"?>
<!DOCTYPE svg PUBLIC "-//W3C//DTD SVG 1.1//EN"
 "http://www.w3.org/Graphics/SVG/1.1/DTD/svg11.dtd">
<!-- Generated by graphviz version 2.50.0 (0)
 -->
<!-- Title: G Pages: 1 -->
<svg width="430pt" height="232pt"
 viewBox="0.00 0.00 430.00 232.00" xmlns="http://www.w3.org/2000/svg" xmlns:xlink="http://www.w3.org/1999/xlink">
<g id="graph0" class="graph" transform="scale(1 1) rotate(0) translate(4 228)">
<title>G</title>
<polygon fill="white" stroke="transparent" points="-4,4 -4,-228 426,-228 426,4 -4,4"/>
<text text-anchor="middle" x="211" y="-207.2" font-family="Times,serif" font-size="16.00">model=model4/gcmvl_telemetry.json [aggregate]</text>
<!-- pressure -->
<g id="node1" class="node">
<title>pressure</title>
<path fill="white" stroke="black" d="M237.5,-36C237.5,-36 184.5,-36 184.5,-36 178.5,-36 172.5,-30 172.5,-24 172.5,-24 172.5,-12 172.5,-12 172.5,-6 178.5,0 184.5,0 184.5,0 237.5,0 237.5,0 243.5,0 249.5,-6 249.5,-12 249.5,-12 249.5,-24 249.5,-24 249.5,-30 243.5,-36 237.5,-36"/>
<text text-anchor="middle" x="211" y="-14.3" font-family="Helvetica,sans-Serif" font-size="14.00">pressure</text>
</g>
<!-- rotate -->
<g id="node2" class="node">
<title>rotate</title>
<path fill="white" stroke="black" d="M227.5,-90C227.5,-90 194.5,-90 194.5,-90 188.5,-90 182.5,-84 182.5,-78 182.5,-78 182.5,-66 182.5,-66 182.5,-60 188.5,-54 194.5,-54 194.5,-54 227.5,-54 227.5,-54 233.5,-54 239.5,-60 239.5,-66 239.5,-66 239.5,-78 239.5,-78 239.5,-84 233.5,-90 227.5,-90"/>
<text text-anchor="middle" x="211" y="-68.3" font-family="Helvetica,sans-Serif" font-size="14.00">rotate</text>
</g>
<!-- vibration -->
<g id="node3" class="node">
<title>vibration</title>
<path fill="white" stroke="black" d="M238,-144C238,-144 184,-144 184,-144 178,-144 172,-138 172,-132 172,-132 172,-120 172,-120 172,-114 178,-108 184,-108 184,-108 238,-108 238,-108 244,-108 250,-114 250,-120 250,-120 250,-132 250,-132 250,-138 244,-144 238,-144"/>
<text text-anchor="middle" x="211" y="-122.3" font-family="Helvetica,sans-Serif" font-size="14.00">vibration</text>
</g>
<!-- volt -->
<g id="node4" class="node">
<title>volt</title>
<path fill="white" stroke="black" d="M226,-198C226,-198 196,-198 196,-198 190,-198 184,-192 184,-186 184,-186 184,-174 184,-174 184,-168 190,-162 196,-162 196,-162 226,-162 226,-162 232,-162 238,-168 238,-174 238,-174 238,-186 238,-186 238,-192 232,-198 226,-198"/>
<text text-anchor="middle" x="211" y="-176.3" font-family="Helvetica,sans-Serif" font-size="14.00">volt</text>
</g>
</g>
</svg>
