<?xml version="1.0" encoding="UTF-8" standalone="no"?>
<!DOCTYPE svg PUBLIC "-//W3C//DTD SVG 1.1//EN"
 "http://www.w3.org/Graphics/SVG/1.1/DTD/svg11.dtd">
<!-- Generated by graphviz version 2.50.0 (0)
 -->
<!-- Title: G Pages: 1 -->
<svg width="403pt" height="826pt"
 viewBox="0.00 0.00 403.00 826.00" xmlns="http://www.w3.org/2000/svg" xmlns:xlink="http://www.w3.org/1999/xlink">
<g id="graph0" class="graph" transform="scale(1 1) rotate(0) translate(4 822)">
<title>G</title>
<polygon fill="white" stroke="transparent" points="-4,4 -4,-822 399,-822 399,4 -4,4"/>
<text text-anchor="middle" x="197.5" y="-801.2" font-family="Times,serif" font-size="16.00">model=model4/gcmvl_mixed.json [machine 2]</text>
<!-- volt -->
<g id="node1" class="node">
<title>volt</title>
<path fill="white" stroke="black" d="M212.5,-36C212.5,-36 182.5,-36 182.5,-36 176.5,-36 170.5,-30 170.5,-24 170.5,-24 170.5,-12 170.5,-12 170.5,-6 176.5,0 182.5,0 182.5,0 212.5,0 212.5,0 218.5,0 224.5,-6 224.5,-12 224.5,-12 224.5,-24 224.5,-24 224.5,-30 218.5,-36 212.5,-36"/>
<text text-anchor="middle" x="197.5" y="-14.3" font-family="Helvetica,sans-Serif" font-size="14.00">volt</text>
</g>
<!-- rotate -->
<g id="node2" class="node">
<title>rotate</title>
<path fill="white" stroke="black" d="M214,-90C214,-90 181,-90 181,-90 175,-90 169,-84 169,-78 169,-78 169,-66 169,-66 169,-60 175,-54 181,-54 181,-54 214,-54 214,-54 220,-54 226,-60 226,-66 226,-66 226,-78 226,-78 226,-84 220,-90 214,-90"/>
<text text-anchor="middle" x="197.5" y="-68.3" font-family="Helvetica,sans-Serif" font-size="14.00">rotate</text>
</g>
<!-- pressure -->
<g id="node3" class="node">
<title>pressure</title>
<path fill="white" stroke="black" d="M224,-144C224,-144 171,-144 171,-144 165,-144 159,-138 159,-132 159,-132 159,-120 159,-120 159,-114 165,-108 171,-108 171,-108 224,-108 224,-108 230,-108 236,-114 236,-120 236,-120 236,-132 236,-132 236,-138 230,-144 224,-144"/>
<text text-anchor="middle" x="197.5" y="-122.3" font-family="Helvetica,sans-Serif" font-size="14.00">pressure</text>
</g>
<!-- vibration -->
<g id="node4" class="node">
<title>vibration</title>
<path fill="white" stroke="black" d="M224.5,-198C224.5,-198 170.5,-198 170.5,-198 164.5,-198 158.5,-192 158.5,-186 158.5,-186 158.5,-174 158.5,-174 158.5,-168 164.5,-162 170.5,-162 170.5,-162 224.5,-162 224.5,-162 230.5,-162 236.5,-168 236.5,-174 236.5,-174 236.5,-186 236.5,-186 236.5,-192 230.5,-198 224.5,-198"/>
<text text-anchor="middle" x="197.5" y="-176.3" font-family="Helvetica,sans-Serif" font-size="14.00">vibration</text>
</g>
<!-- err_error1 -->
<g id="node5" class="node">
<title>err_error1</title>
<path fill="white" stroke="black" d="M228,-252C228,-252 167,-252 167,-252 161,-252 155,-246 155,-240 155,-240 155,-228 155,-228 155,-222 161,-216 167,-216 167,-216 228,-216 228,-216 234,-216 240,-222 240,-228 240,-228 240,-240 240,-240 240,-246 234,-252 228,-252"/>
<text text-anchor="middle" x="197.5" y="-230.3" font-family="Helvetica,sans-Serif" font-size="14.00">err_error1</text>
</g>
<!-- err_error2 -->
<g id="node6" class="node">
<title>err_error2</title>
<path fill="white" stroke="black" d="M228,-306C228,-306 167,-306 167,-306 161,-306 155,-300 155,-294 155,-294 155,-282 155,-282 155,-276 161,-270 167,-270 167,-270 228,-270 228,-270 234,-270 240,-276 240,-282 240,-282 240,-294 240,-294 240,-300 234,-306 228,-306"/>
<text text-anchor="middle" x="197.5" y="-284.3" font-family="Helvetica,sans-Serif" font-size="14.00">err_error2</text>
</g>
<!-- err_error3 -->
<g id="node7" class="node">
<title>err_error3</title>
<path fill="white" stroke="black" d="M228,-360C228,-360 167,-360 167,-360 161,-360 155,-354 155,-348 155,-348 155,-336 155,-336 155,-330 161,-324 167,-324 167,-324 228,-324 228,-324 234,-324 240,-330 240,-336 240,-336 240,-348 240,-348 240,-354 234,-360 228,-360"/>
<text text-anchor="middle" x="197.5" y="-338.3" font-family="Helvetica,sans-Serif" font-size="14.00">err_error3</text>
</g>
<!-- err_error4 -->
<g id="node8" class="node">
<title>err_error4</title>
<path fill="white" stroke="black" d="M228,-414C228,-414 167,-414 167,-414 161,-414 155,-408 155,-402 155,-402 155,-390 155,-390 155,-384 161,-378 167,-378 167,-378 228,-378 228,-378 234,-378 240,-384 240,-390 240,-390 240,-402 240,-402 240,-408 234,-414 228,-414"/>
<text text-anchor="middle" x="197.5" y="-392.3" font-family="Helvetica,sans-Serif" font-size="14.00">err_error4</text>
</g>
<!-- err_error5 -->
<g id="node9" class="node">
<title>err_error5</title>
<path fill="white" stroke="black" d="M228,-468C228,-468 167,-468 167,-468 161,-468 155,-462 155,-456 155,-456 155,-444 155,-444 155,-438 161,-432 167,-432 167,-432 228,-432 228,-432 234,-432 240,-438 240,-444 240,-444 240,-456 240,-456 240,-462 234,-468 228,-468"/>
<text text-anchor="middle" x="197.5" y="-446.3" font-family="Helvetica,sans-Serif" font-size="14.00">err_error5</text>
</g>
<!-- mnt_comp1 -->
<g id="node10" class="node">
<title>mnt_comp1</title>
<path fill="white" stroke="black" d="M234.5,-522C234.5,-522 160.5,-522 160.5,-522 154.5,-522 148.5,-516 148.5,-510 148.5,-510 148.5,-498 148.5,-498 148.5,-492 154.5,-486 160.5,-486 160.5,-486 234.5,-486 234.5,-486 240.5,-486 246.5,-492 246.5,-498 246.5,-498 246.5,-510 246.5,-510 246.5,-516 240.5,-522 234.5,-522"/>
<text text-anchor="middle" x="197.5" y="-500.3" font-family="Helvetica,sans-Serif" font-size="14.00">mnt_comp1</text>
</g>
<!-- mnt_comp2 -->
<g id="node11" class="node">
<title>mnt_comp2</title>
<path fill="white" stroke="black" d="M234.5,-576C234.5,-576 160.5,-576 160.5,-576 154.5,-576 148.5,-570 148.5,-564 148.5,-564 148.5,-552 148.5,-552 148.5,-546 154.5,-540 160.5,-540 160.5,-540 234.5,-540 234.5,-540 240.5,-540 246.5,-546 246.5,-552 246.5,-552 246.5,-564 246.5,-564 246.5,-570 240.5,-576 234.5,-576"/>
<text text-anchor="middle" x="197.5" y="-554.3" font-family="Helvetica,sans-Serif" font-size="14.00">mnt_comp2</text>
</g>
<!-- mnt_comp3 -->
<g id="node12" class="node">
<title>mnt_comp3</title>
<path fill="white" stroke="black" d="M234.5,-630C234.5,-630 160.5,-630 160.5,-630 154.5,-630 148.5,-624 148.5,-618 148.5,-618 148.5,-606 148.5,-606 148.5,-600 154.5,-594 160.5,-594 160.5,-594 234.5,-594 234.5,-594 240.5,-594 246.5,-600 246.5,-606 246.5,-606 246.5,-618 246.5,-618 246.5,-624 240.5,-630 234.5,-630"/>
<text text-anchor="middle" x="197.5" y="-608.3" font-family="Helvetica,sans-Serif" font-size="14.00">mnt_comp3</text>
</g>
<!-- mnt_comp4 -->
<g id="node13" class="node">
<title>mnt_comp4</title>
<path fill="white" stroke="black" d="M234.5,-684C234.5,-684 160.5,-684 160.5,-684 154.5,-684 148.5,-678 148.5,-672 148.5,-672 148.5,-660 148.5,-660 148.5,-654 154.5,-648 160.5,-648 160.5,-648 234.5,-648 234.5,-648 240.5,-648 246.5,-654 246.5,-660 246.5,-660 246.5,-672 246.5,-672 246.5,-678 240.5,-684 234.5,-684"/>
<text text-anchor="middle" x="197.5" y="-662.3" font-family="Helvetica,sans-Serif" font-size="14.00">mnt_comp4</text>
</g>
<!-- fail_comp1 -->
<g id="node14" class="node">
<title>fail_comp1</title>
<path fill="white" stroke="black" d="M231.5,-738C231.5,-738 163.5,-738 163.5,-738 157.5,-738 151.5,-732 151.5,-726 151.5,-726 151.5,-714 151.5,-714 151.5,-708 157.5,-702 163.5,-702 163.5,-702 231.5,-702 231.5,-702 237.5,-702 243.5,-708 243.5,-714 243.5,-714 243.5,-726 243.5,-726 243.5,-732 237.5,-738 231.5,-738"/>
<text text-anchor="middle" x="197.5" y="-716.3" font-family="Helvetica,sans-Serif" font-size="14.00">fail_comp1</text>
</g>
<!-- fail_comp2 -->
<g id="node15" class="node">
<title>fail_comp2</title>
<path fill="white" stroke="black" d="M231.5,-792C231.5,-792 163.5,-792 163.5,-792 157.5,-792 151.5,-786 151.5,-780 151.5,-780 151.5,-768 151.5,-768 151.5,-762 157.5,-756 163.5,-756 163.5,-756 231.5,-756 231.5,-756 237.5,-756 243.5,-762 243.5,-768 243.5,-768 243.5,-780 243.5,-780 243.5,-786 237.5,-792 231.5,-792"/>
<text text-anchor="middle" x="197.5" y="-770.3" font-family="Helvetica,sans-Serif" font-size="14.00">fail_comp2</text>
</g>
</g>
</svg>
