<?xml version="1.0" encoding="UTF-8" standalone="no"?>
<!DOCTYPE svg PUBLIC "-//W3C//DTD SVG 1.1//EN"
 "http://www.w3.org/Graphics/SVG/1.1/DTD/svg11.dtd">
<!-- Generated by graphviz version 2.50.0 (0)
 -->
<!-- Title: G Pages: 1 -->
<svg width="413pt" height="880pt"
 viewBox="0.00 0.00 413.00 880.00" xmlns="http://www.w3.org/2000/svg" xmlns:xlink="http://www.w3.org/1999/xlink">
<g id="graph0" class="graph" transform="scale(1 1) rotate(0) translate(4 876)">
<title>G</title>
<polygon fill="white" stroke="transparent" points="-4,4 -4,-876 409,-876 409,4 -4,4"/>
<text text-anchor="middle" x="202.5" y="-855.2" font-family="Times,serif" font-size="16.00">model=model1/gcmvl_mixed.json [machine 37]</text>
<!-- volt -->
<g id="node1" class="node">
<title>volt</title>
<path fill="white" stroke="black" d="M160.5,-36C160.5,-36 130.5,-36 130.5,-36 124.5,-36 118.5,-30 118.5,-24 118.5,-24 118.5,-12 118.5,-12 118.5,-6 124.5,0 130.5,0 130.5,0 160.5,0 160.5,0 166.5,0 172.5,-6 172.5,-12 172.5,-12 172.5,-24 172.5,-24 172.5,-30 166.5,-36 160.5,-36"/>
<text text-anchor="middle" x="145.5" y="-14.3" font-family="Helvetica,sans-Serif" font-size="14.00">volt</text>
</g>
<!-- rotate -->
<g id="node2" class="node">
<title>rotate</title>
<path fill="white" stroke="black" d="M162,-90C162,-90 129,-90 129,-90 123,-90 117,-84 117,-78 117,-78 117,-66 117,-66 117,-60 123,-54 129,-54 129,-54 162,-54 162,-54 168,-54 174,-60 174,-66 174,-66 174,-78 174,-78 174,-84 168,-90 162,-90"/>
<text text-anchor="middle" x="145.5" y="-68.3" font-family="Helvetica,sans-Serif" font-size="14.00">rotate</text>
</g>
<!-- pressure -->
<g id="node3" class="node">
<title>pressure</title>
<path fill="white" stroke="black" d="M172,-144C172,-144 119,-144 119,-144 113,-144 107,-138 107,-132 107,-132 107,-120 107,-120 107,-114 113,-108 119,-108 119,-108 172,-108 172,-108 178,-108 184,-114 184,-120 184,-120 184,-132 184,-132 184,-138 178,-144 172,-144"/>
<text text-anchor="middle" x="145.5" y="-122.3" font-family="Helvetica,sans-Serif" font-size="14.00">pressure</text>
</g>
<!-- vibration -->
<g id="node4" class="node">
<title>vibration</title>
<path fill="white" stroke="black" d="M296.5,-387C296.5,-387 242.5,-387 242.5,-387 236.5,-387 230.5,-381 230.5,-375 230.5,-375 230.5,-363 230.5,-363 230.5,-357 236.5,-351 242.5,-351 242.5,-351 296.5,-351 296.5,-351 302.5,-351 308.5,-357 308.5,-363 308.5,-363 308.5,-375 308.5,-375 308.5,-381 302.5,-387 296.5,-387"/>
<text text-anchor="middle" x="269.5" y="-365.3" font-family="Helvetica,sans-Serif" font-size="14.00">vibration</text>
</g>
<!-- err_error1 -->
<g id="node5" class="node">
<title>err_error1</title>
<path fill="white" stroke="black" d="M176,-630C176,-630 115,-630 115,-630 109,-630 103,-624 103,-618 103,-618 103,-606 103,-606 103,-600 109,-594 115,-594 115,-594 176,-594 176,-594 182,-594 188,-600 188,-606 188,-606 188,-618 188,-618 188,-624 182,-630 176,-630"/>
<text text-anchor="middle" x="145.5" y="-608.3" font-family="Helvetica,sans-Serif" font-size="14.00">err_error1</text>
</g>
<!-- err_error2 -->
<g id="node6" class="node">
<title>err_error2</title>
<path fill="white" stroke="black" d="M176,-576C176,-576 115,-576 115,-576 109,-576 103,-570 103,-564 103,-564 103,-552 103,-552 103,-546 109,-540 115,-540 115,-540 176,-540 176,-540 182,-540 188,-546 188,-552 188,-552 188,-564 188,-564 188,-570 182,-576 176,-576"/>
<text text-anchor="middle" x="145.5" y="-554.3" font-family="Helvetica,sans-Serif" font-size="14.00">err_error2</text>
</g>
<!-- err_error2&#45;&gt;vibration -->
<g id="edge1" class="edge">
<title>err_error2&#45;&gt;vibration</title>
<path fill="none" stroke="black" stroke-width="1.2" d="M184.4,-539.84C188.07,-537.18 191.52,-534.24 194.5,-531 230.54,-491.81 251.57,-432.05 261.49,-397.12"/>
<polygon fill="black" stroke="black" stroke-width="1.2" points="264.96,-397.7 264.21,-387.13 258.2,-395.86 264.96,-397.7"/>
</g>
<!-- err_error3 -->
<g id="node7" class="node">
<title>err_error3</title>
<path fill="white" stroke="black" d="M176,-684C176,-684 115,-684 115,-684 109,-684 103,-678 103,-672 103,-672 103,-660 103,-660 103,-654 109,-648 115,-648 115,-648 176,-648 176,-648 182,-648 188,-654 188,-660 188,-660 188,-672 188,-672 188,-678 182,-684 176,-684"/>
<text text-anchor="middle" x="145.5" y="-662.3" font-family="Helvetica,sans-Serif" font-size="14.00">err_error3</text>
</g>
<!-- err_error4 -->
<g id="node8" class="node">
<title>err_error4</title>
<path fill="white" stroke="black" d="M176,-522C176,-522 115,-522 115,-522 109,-522 103,-516 103,-510 103,-510 103,-498 103,-498 103,-492 109,-486 115,-486 115,-486 176,-486 176,-486 182,-486 188,-492 188,-498 188,-498 188,-510 188,-510 188,-516 182,-522 176,-522"/>
<text text-anchor="middle" x="145.5" y="-500.3" font-family="Helvetica,sans-Serif" font-size="14.00">err_error4</text>
</g>
<!-- err_error4&#45;&gt;vibration -->
<g id="edge2" class="edge">
<title>err_error4&#45;&gt;vibration</title>
<path fill="none" stroke="black" stroke-width="1.2" d="M182.87,-485.96C186.99,-483.22 190.97,-480.23 194.5,-477 219.99,-453.67 241.31,-419.95 254.42,-396.42"/>
<polygon fill="black" stroke="black" stroke-width="1.2" points="257.66,-397.78 259.35,-387.32 251.51,-394.44 257.66,-397.78"/>
</g>
<!-- err_error5 -->
<g id="node9" class="node">
<title>err_error5</title>
<path fill="white" stroke="black" d="M176,-468C176,-468 115,-468 115,-468 109,-468 103,-462 103,-456 103,-456 103,-444 103,-444 103,-438 109,-432 115,-432 115,-432 176,-432 176,-432 182,-432 188,-438 188,-444 188,-444 188,-456 188,-456 188,-462 182,-468 176,-468"/>
<text text-anchor="middle" x="145.5" y="-446.3" font-family="Helvetica,sans-Serif" font-size="14.00">err_error5</text>
</g>
<!-- err_error5&#45;&gt;vibration -->
<g id="edge3" class="edge">
<title>err_error5&#45;&gt;vibration</title>
<path fill="none" stroke="black" stroke-width="1.2" d="M179.85,-431.91C184.82,-429.03 189.84,-426 194.5,-423 208.77,-413.83 223.99,-402.93 236.89,-393.33"/>
<polygon fill="black" stroke="black" stroke-width="1.2" points="239.11,-396.04 245.01,-387.24 234.91,-390.44 239.11,-396.04"/>
</g>
<!-- mnt_comp1 -->
<g id="node10" class="node">
<title>mnt_comp1</title>
<path fill="white" stroke="black" d="M182.5,-738C182.5,-738 108.5,-738 108.5,-738 102.5,-738 96.5,-732 96.5,-726 96.5,-726 96.5,-714 96.5,-714 96.5,-708 102.5,-702 108.5,-702 108.5,-702 182.5,-702 182.5,-702 188.5,-702 194.5,-708 194.5,-714 194.5,-714 194.5,-726 194.5,-726 194.5,-732 188.5,-738 182.5,-738"/>
<text text-anchor="middle" x="145.5" y="-716.3" font-family="Helvetica,sans-Serif" font-size="14.00">mnt_comp1</text>
</g>
<!-- mnt_comp2 -->
<g id="node11" class="node">
<title>mnt_comp2</title>
<path fill="white" stroke="black" d="M182.5,-414C182.5,-414 108.5,-414 108.5,-414 102.5,-414 96.5,-408 96.5,-402 96.5,-402 96.5,-390 96.5,-390 96.5,-384 102.5,-378 108.5,-378 108.5,-378 182.5,-378 182.5,-378 188.5,-378 194.5,-384 194.5,-390 194.5,-390 194.5,-402 194.5,-402 194.5,-408 188.5,-414 182.5,-414"/>
<text text-anchor="middle" x="145.5" y="-392.3" font-family="Helvetica,sans-Serif" font-size="14.00">mnt_comp2</text>
</g>
<!-- mnt_comp2&#45;&gt;vibration -->
<g id="edge4" class="edge">
<title>mnt_comp2&#45;&gt;vibration</title>
<path fill="none" stroke="black" stroke-width="1.2" d="M194.72,-385.33C203.24,-383.44 212.11,-381.48 220.62,-379.6"/>
<polygon fill="black" stroke="black" stroke-width="1.2" points="221.4,-383.01 230.41,-377.43 219.89,-376.17 221.4,-383.01"/>
</g>
<!-- mnt_comp3 -->
<g id="node12" class="node">
<title>mnt_comp3</title>
<path fill="white" stroke="black" d="M182.5,-360C182.5,-360 108.5,-360 108.5,-360 102.5,-360 96.5,-354 96.5,-348 96.5,-348 96.5,-336 96.5,-336 96.5,-330 102.5,-324 108.5,-324 108.5,-324 182.5,-324 182.5,-324 188.5,-324 194.5,-330 194.5,-336 194.5,-336 194.5,-348 194.5,-348 194.5,-354 188.5,-360 182.5,-360"/>
<text text-anchor="middle" x="145.5" y="-338.3" font-family="Helvetica,sans-Serif" font-size="14.00">mnt_comp3</text>
</g>
<!-- mnt_comp3&#45;&gt;vibration -->
<g id="edge5" class="edge">
<title>mnt_comp3&#45;&gt;vibration</title>
<path fill="none" stroke="black" stroke-width="1.2" d="M194.72,-352.67C203.24,-354.56 212.11,-356.52 220.62,-358.4"/>
<polygon fill="black" stroke="black" stroke-width="1.2" points="219.89,-361.83 230.41,-360.57 221.4,-354.99 219.89,-361.83"/>
</g>
<!-- mnt_comp4 -->
<g id="node13" class="node">
<title>mnt_comp4</title>
<path fill="white" stroke="black" d="M182.5,-306C182.5,-306 108.5,-306 108.5,-306 102.5,-306 96.5,-300 96.5,-294 96.5,-294 96.5,-282 96.5,-282 96.5,-276 102.5,-270 108.5,-270 108.5,-270 182.5,-270 182.5,-270 188.5,-270 194.5,-276 194.5,-282 194.5,-282 194.5,-294 194.5,-294 194.5,-300 188.5,-306 182.5,-306"/>
<text text-anchor="middle" x="145.5" y="-284.3" font-family="Helvetica,sans-Serif" font-size="14.00">mnt_comp4</text>
</g>
<!-- mnt_comp4&#45;&gt;vibration -->
<g id="edge6" class="edge">
<title>mnt_comp4&#45;&gt;vibration</title>
<path fill="none" stroke="black" stroke-width="1.2" d="M179.85,-306.09C184.82,-308.97 189.84,-312 194.5,-315 208.77,-324.17 223.99,-335.07 236.89,-344.67"/>
<polygon fill="black" stroke="black" stroke-width="1.2" points="234.91,-347.56 245.01,-350.76 239.11,-341.96 234.91,-347.56"/>
</g>
<!-- fail_comp1 -->
<g id="node14" class="node">
<title>fail_comp1</title>
<path fill="white" stroke="black" d="M179.5,-792C179.5,-792 111.5,-792 111.5,-792 105.5,-792 99.5,-786 99.5,-780 99.5,-780 99.5,-768 99.5,-768 99.5,-762 105.5,-756 111.5,-756 111.5,-756 179.5,-756 179.5,-756 185.5,-756 191.5,-762 191.5,-768 191.5,-768 191.5,-780 191.5,-780 191.5,-786 185.5,-792 179.5,-792"/>
<text text-anchor="middle" x="145.5" y="-770.3" font-family="Helvetica,sans-Serif" font-size="14.00">fail_comp1</text>
</g>
<!-- fail_comp2 -->
<g id="node15" class="node">
<title>fail_comp2</title>
<path fill="white" stroke="black" d="M179.5,-252C179.5,-252 111.5,-252 111.5,-252 105.5,-252 99.5,-246 99.5,-240 99.5,-240 99.5,-228 99.5,-228 99.5,-222 105.5,-216 111.5,-216 111.5,-216 179.5,-216 179.5,-216 185.5,-216 191.5,-222 191.5,-228 191.5,-228 191.5,-240 191.5,-240 191.5,-246 185.5,-252 179.5,-252"/>
<text text-anchor="middle" x="145.5" y="-230.3" font-family="Helvetica,sans-Serif" font-size="14.00">fail_comp2</text>
</g>
<!-- fail_comp2&#45;&gt;vibration -->
<g id="edge7" class="edge">
<title>fail_comp2&#45;&gt;vibration</title>
<path fill="none" stroke="black" stroke-width="1.2" d="M182.87,-252.04C186.99,-254.78 190.97,-257.77 194.5,-261 219.99,-284.33 241.31,-318.05 254.42,-341.58"/>
<polygon fill="black" stroke="black" stroke-width="1.2" points="251.51,-343.56 259.35,-350.68 257.66,-340.22 251.51,-343.56"/>
</g>
<!-- fail_comp3 -->
<g id="node16" class="node">
<title>fail_comp3</title>
<path fill="white" stroke="black" d="M179.5,-846C179.5,-846 111.5,-846 111.5,-846 105.5,-846 99.5,-840 99.5,-834 99.5,-834 99.5,-822 99.5,-822 99.5,-816 105.5,-810 111.5,-810 111.5,-810 179.5,-810 179.5,-810 185.5,-810 191.5,-816 191.5,-822 191.5,-822 191.5,-834 191.5,-834 191.5,-840 185.5,-846 179.5,-846"/>
<text text-anchor="middle" x="145.5" y="-824.3" font-family="Helvetica,sans-Serif" font-size="14.00">fail_comp3</text>
</g>
<!-- fail_comp4 -->
<g id="node17" class="node">
<title>fail_comp4</title>
<path fill="white" stroke="black" d="M179.5,-198C179.5,-198 111.5,-198 111.5,-198 105.5,-198 99.5,-192 99.5,-186 99.5,-186 99.5,-174 99.5,-174 99.5,-168 105.5,-162 111.5,-162 111.5,-162 179.5,-162 179.5,-162 185.5,-162 191.5,-168 191.5,-174 191.5,-174 191.5,-186 191.5,-186 191.5,-192 185.5,-198 179.5,-198"/>
<text text-anchor="middle" x="145.5" y="-176.3" font-family="Helvetica,sans-Serif" font-size="14.00">fail_comp4</text>
</g>
<!-- fail_comp4&#45;&gt;vibration -->
<g id="edge8" class="edge">
<title>fail_comp4&#45;&gt;vibration</title>
<path fill="none" stroke="black" stroke-width="1.2" d="M184.4,-198.16C188.07,-200.82 191.52,-203.76 194.5,-207 230.54,-246.19 251.57,-305.95 261.49,-340.88"/>
<polygon fill="black" stroke="black" stroke-width="1.2" points="258.2,-342.14 264.21,-350.87 264.96,-340.3 258.2,-342.14"/>
</g>
</g>
</svg>
