<?xml version="1.0" encoding="UTF-8" standalone="no"?>
<!DOCTYPE svg PUBLIC "-//W3C//DTD SVG 1.1//EN"
 "http://www.w3.org/Graphics/SVG/1.1/DTD/svg11.dtd">
<!-- Generated by graphviz version 2.50.0 (0)
 -->
<!-- Title: G Pages: 1 -->
<svg width="413pt" height="772pt"
 viewBox="0.00 0.00 413.00 772.00" xmlns="http://www.w3.org/2000/svg" xmlns:xlink="http://www.w3.org/1999/xlink">
<g id="graph0" class="graph" transform="scale(1 1) rotate(0) translate(4 768)">
<title>G</title>
<polygon fill="white" stroke="transparent" points="-4,4 -4,-768 409,-768 409,4 -4,4"/>
<text text-anchor="middle" x="202.5" y="-747.2" font-family="Times,serif" font-size="16.00">model=model3/gcmvl_mixed.json [machine 26]</text>
<!-- volt -->
<g id="node1" class="node">
<title>volt</title>
<path fill="white" stroke="black" d="M284.5,-90C284.5,-90 254.5,-90 254.5,-90 248.5,-90 242.5,-84 242.5,-78 242.5,-78 242.5,-66 242.5,-66 242.5,-60 248.5,-54 254.5,-54 254.5,-54 284.5,-54 284.5,-54 290.5,-54 296.5,-60 296.5,-66 296.5,-66 296.5,-78 296.5,-78 296.5,-84 290.5,-90 284.5,-90"/>
<text text-anchor="middle" x="269.5" y="-68.3" font-family="Helvetica,sans-Serif" font-size="14.00">volt</text>
</g>
<!-- rotate -->
<g id="node2" class="node">
<title>rotate</title>
<path fill="white" stroke="black" d="M174,-198C174,-198 141,-198 141,-198 135,-198 129,-192 129,-186 129,-186 129,-174 129,-174 129,-168 135,-162 141,-162 141,-162 174,-162 174,-162 180,-162 186,-168 186,-174 186,-174 186,-186 186,-186 186,-192 180,-198 174,-198"/>
<text text-anchor="middle" x="157.5" y="-176.3" font-family="Helvetica,sans-Serif" font-size="14.00">rotate</text>
</g>
<!-- pressure -->
<g id="node3" class="node">
<title>pressure</title>
<path fill="white" stroke="black" d="M184,-252C184,-252 131,-252 131,-252 125,-252 119,-246 119,-240 119,-240 119,-228 119,-228 119,-222 125,-216 131,-216 131,-216 184,-216 184,-216 190,-216 196,-222 196,-228 196,-228 196,-240 196,-240 196,-246 190,-252 184,-252"/>
<text text-anchor="middle" x="157.5" y="-230.3" font-family="Helvetica,sans-Serif" font-size="14.00">pressure</text>
</g>
<!-- vibration -->
<g id="node4" class="node">
<title>vibration</title>
<path fill="white" stroke="black" d="M184.5,-306C184.5,-306 130.5,-306 130.5,-306 124.5,-306 118.5,-300 118.5,-294 118.5,-294 118.5,-282 118.5,-282 118.5,-276 124.5,-270 130.5,-270 130.5,-270 184.5,-270 184.5,-270 190.5,-270 196.5,-276 196.5,-282 196.5,-282 196.5,-294 196.5,-294 196.5,-300 190.5,-306 184.5,-306"/>
<text text-anchor="middle" x="157.5" y="-284.3" font-family="Helvetica,sans-Serif" font-size="14.00">vibration</text>
</g>
<!-- err_error1 -->
<g id="node5" class="node">
<title>err_error1</title>
<path fill="white" stroke="black" d="M188,-144C188,-144 127,-144 127,-144 121,-144 115,-138 115,-132 115,-132 115,-120 115,-120 115,-114 121,-108 127,-108 127,-108 188,-108 188,-108 194,-108 200,-114 200,-120 200,-120 200,-132 200,-132 200,-138 194,-144 188,-144"/>
<text text-anchor="middle" x="157.5" y="-122.3" font-family="Helvetica,sans-Serif" font-size="14.00">err_error1</text>
</g>
<!-- err_error1&#45;&gt;volt -->
<g id="edge1" class="edge">
<title>err_error1&#45;&gt;volt</title>
<path fill="none" stroke="black" stroke-width="1.2" d="M195.43,-107.87C207.55,-101.92 220.98,-95.33 232.99,-89.43"/>
<polygon fill="black" stroke="black" stroke-width="1.2" points="234.83,-92.43 242.26,-84.88 231.74,-86.15 234.83,-92.43"/>
</g>
<!-- err_error2 -->
<g id="node6" class="node">
<title>err_error2</title>
<path fill="white" stroke="black" d="M188,-90C188,-90 127,-90 127,-90 121,-90 115,-84 115,-78 115,-78 115,-66 115,-66 115,-60 121,-54 127,-54 127,-54 188,-54 188,-54 194,-54 200,-60 200,-66 200,-66 200,-78 200,-78 200,-84 194,-90 188,-90"/>
<text text-anchor="middle" x="157.5" y="-68.3" font-family="Helvetica,sans-Serif" font-size="14.00">err_error2</text>
</g>
<!-- err_error2&#45;&gt;volt -->
<g id="edge2" class="edge">
<title>err_error2&#45;&gt;volt</title>
<path fill="none" stroke="black" stroke-width="1.2" d="M200.09,-72C210.65,-72 221.92,-72 232.2,-72"/>
<polygon fill="black" stroke="black" stroke-width="1.2" points="232.49,-75.5 242.49,-72 232.49,-68.5 232.49,-75.5"/>
</g>
<!-- err_error3 -->
<g id="node7" class="node">
<title>err_error3</title>
<path fill="white" stroke="black" d="M188,-36C188,-36 127,-36 127,-36 121,-36 115,-30 115,-24 115,-24 115,-12 115,-12 115,-6 121,0 127,0 127,0 188,0 188,0 194,0 200,-6 200,-12 200,-12 200,-24 200,-24 200,-30 194,-36 188,-36"/>
<text text-anchor="middle" x="157.5" y="-14.3" font-family="Helvetica,sans-Serif" font-size="14.00">err_error3</text>
</g>
<!-- err_error3&#45;&gt;volt -->
<g id="edge3" class="edge">
<title>err_error3&#45;&gt;volt</title>
<path fill="none" stroke="black" stroke-width="1.2" d="M195.43,-36.13C207.55,-42.08 220.98,-48.67 232.99,-54.57"/>
<polygon fill="black" stroke="black" stroke-width="1.2" points="231.74,-57.85 242.26,-59.12 234.83,-51.57 231.74,-57.85"/>
</g>
<!-- err_error4 -->
<g id="node8" class="node">
<title>err_error4</title>
<path fill="white" stroke="black" d="M188,-360C188,-360 127,-360 127,-360 121,-360 115,-354 115,-348 115,-348 115,-336 115,-336 115,-330 121,-324 127,-324 127,-324 188,-324 188,-324 194,-324 200,-330 200,-336 200,-336 200,-348 200,-348 200,-354 194,-360 188,-360"/>
<text text-anchor="middle" x="157.5" y="-338.3" font-family="Helvetica,sans-Serif" font-size="14.00">err_error4</text>
</g>
<!-- err_error5 -->
<g id="node9" class="node">
<title>err_error5</title>
<path fill="white" stroke="black" d="M188,-414C188,-414 127,-414 127,-414 121,-414 115,-408 115,-402 115,-402 115,-390 115,-390 115,-384 121,-378 127,-378 127,-378 188,-378 188,-378 194,-378 200,-384 200,-390 200,-390 200,-402 200,-402 200,-408 194,-414 188,-414"/>
<text text-anchor="middle" x="157.5" y="-392.3" font-family="Helvetica,sans-Serif" font-size="14.00">err_error5</text>
</g>
<!-- mnt_comp1 -->
<g id="node10" class="node">
<title>mnt_comp1</title>
<path fill="white" stroke="black" d="M194.5,-468C194.5,-468 120.5,-468 120.5,-468 114.5,-468 108.5,-462 108.5,-456 108.5,-456 108.5,-444 108.5,-444 108.5,-438 114.5,-432 120.5,-432 120.5,-432 194.5,-432 194.5,-432 200.5,-432 206.5,-438 206.5,-444 206.5,-444 206.5,-456 206.5,-456 206.5,-462 200.5,-468 194.5,-468"/>
<text text-anchor="middle" x="157.5" y="-446.3" font-family="Helvetica,sans-Serif" font-size="14.00">mnt_comp1</text>
</g>
<!-- mnt_comp2 -->
<g id="node11" class="node">
<title>mnt_comp2</title>
<path fill="white" stroke="black" d="M194.5,-522C194.5,-522 120.5,-522 120.5,-522 114.5,-522 108.5,-516 108.5,-510 108.5,-510 108.5,-498 108.5,-498 108.5,-492 114.5,-486 120.5,-486 120.5,-486 194.5,-486 194.5,-486 200.5,-486 206.5,-492 206.5,-498 206.5,-498 206.5,-510 206.5,-510 206.5,-516 200.5,-522 194.5,-522"/>
<text text-anchor="middle" x="157.5" y="-500.3" font-family="Helvetica,sans-Serif" font-size="14.00">mnt_comp2</text>
</g>
<!-- mnt_comp3 -->
<g id="node12" class="node">
<title>mnt_comp3</title>
<path fill="white" stroke="black" d="M194.5,-576C194.5,-576 120.5,-576 120.5,-576 114.5,-576 108.5,-570 108.5,-564 108.5,-564 108.5,-552 108.5,-552 108.5,-546 114.5,-540 120.5,-540 120.5,-540 194.5,-540 194.5,-540 200.5,-540 206.5,-546 206.5,-552 206.5,-552 206.5,-564 206.5,-564 206.5,-570 200.5,-576 194.5,-576"/>
<text text-anchor="middle" x="157.5" y="-554.3" font-family="Helvetica,sans-Serif" font-size="14.00">mnt_comp3</text>
</g>
<!-- mnt_comp4 -->
<g id="node13" class="node">
<title>mnt_comp4</title>
<path fill="white" stroke="black" d="M194.5,-630C194.5,-630 120.5,-630 120.5,-630 114.5,-630 108.5,-624 108.5,-618 108.5,-618 108.5,-606 108.5,-606 108.5,-600 114.5,-594 120.5,-594 120.5,-594 194.5,-594 194.5,-594 200.5,-594 206.5,-600 206.5,-606 206.5,-606 206.5,-618 206.5,-618 206.5,-624 200.5,-630 194.5,-630"/>
<text text-anchor="middle" x="157.5" y="-608.3" font-family="Helvetica,sans-Serif" font-size="14.00">mnt_comp4</text>
</g>
<!-- fail_comp1 -->
<g id="node14" class="node">
<title>fail_comp1</title>
<path fill="white" stroke="black" d="M191.5,-684C191.5,-684 123.5,-684 123.5,-684 117.5,-684 111.5,-678 111.5,-672 111.5,-672 111.5,-660 111.5,-660 111.5,-654 117.5,-648 123.5,-648 123.5,-648 191.5,-648 191.5,-648 197.5,-648 203.5,-654 203.5,-660 203.5,-660 203.5,-672 203.5,-672 203.5,-678 197.5,-684 191.5,-684"/>
<text text-anchor="middle" x="157.5" y="-662.3" font-family="Helvetica,sans-Serif" font-size="14.00">fail_comp1</text>
</g>
<!-- fail_comp2 -->
<g id="node15" class="node">
<title>fail_comp2</title>
<path fill="white" stroke="black" d="M191.5,-738C191.5,-738 123.5,-738 123.5,-738 117.5,-738 111.5,-732 111.5,-726 111.5,-726 111.5,-714 111.5,-714 111.5,-708 117.5,-702 123.5,-702 123.5,-702 191.5,-702 191.5,-702 197.5,-702 203.5,-708 203.5,-714 203.5,-714 203.5,-726 203.5,-726 203.5,-732 197.5,-738 191.5,-738"/>
<text text-anchor="middle" x="157.5" y="-716.3" font-family="Helvetica,sans-Serif" font-size="14.00">fail_comp2</text>
</g>
</g>
</svg>
