<?xml version="1.0" encoding="UTF-8" standalone="no"?>
<!DOCTYPE svg PUBLIC "-//W3C//DTD SVG 1.1//EN"
 "http://www.w3.org/Graphics/SVG/1.1/DTD/svg11.dtd">
<!-- Generated by graphviz version 2.50.0 (0)
 -->
<!-- Title: G Pages: 1 -->
<svg width="413pt" height="826pt"
 viewBox="0.00 0.00 413.00 826.00" xmlns="http://www.w3.org/2000/svg" xmlns:xlink="http://www.w3.org/1999/xlink">
<g id="graph0" class="graph" transform="scale(1 1) rotate(0) translate(4 822)">
<title>G</title>
<polygon fill="white" stroke="transparent" points="-4,4 -4,-822 409,-822 409,4 -4,4"/>
<text text-anchor="middle" x="202.5" y="-801.2" font-family="Times,serif" font-size="16.00">model=model4/gcmvl_mixed.json [machine 74]</text>
<!-- volt -->
<g id="node1" class="node">
<title>volt</title>
<path fill="white" stroke="black" d="M217.5,-36C217.5,-36 187.5,-36 187.5,-36 181.5,-36 175.5,-30 175.5,-24 175.5,-24 175.5,-12 175.5,-12 175.5,-6 181.5,0 187.5,0 187.5,0 217.5,0 217.5,0 223.5,0 229.5,-6 229.5,-12 229.5,-12 229.5,-24 229.5,-24 229.5,-30 223.5,-36 217.5,-36"/>
<text text-anchor="middle" x="202.5" y="-14.3" font-family="Helvetica,sans-Serif" font-size="14.00">volt</text>
</g>
<!-- rotate -->
<g id="node2" class="node">
<title>rotate</title>
<path fill="white" stroke="black" d="M219,-90C219,-90 186,-90 186,-90 180,-90 174,-84 174,-78 174,-78 174,-66 174,-66 174,-60 180,-54 186,-54 186,-54 219,-54 219,-54 225,-54 231,-60 231,-66 231,-66 231,-78 231,-78 231,-84 225,-90 219,-90"/>
<text text-anchor="middle" x="202.5" y="-68.3" font-family="Helvetica,sans-Serif" font-size="14.00">rotate</text>
</g>
<!-- pressure -->
<g id="node3" class="node">
<title>pressure</title>
<path fill="white" stroke="black" d="M229,-144C229,-144 176,-144 176,-144 170,-144 164,-138 164,-132 164,-132 164,-120 164,-120 164,-114 170,-108 176,-108 176,-108 229,-108 229,-108 235,-108 241,-114 241,-120 241,-120 241,-132 241,-132 241,-138 235,-144 229,-144"/>
<text text-anchor="middle" x="202.5" y="-122.3" font-family="Helvetica,sans-Serif" font-size="14.00">pressure</text>
</g>
<!-- vibration -->
<g id="node4" class="node">
<title>vibration</title>
<path fill="white" stroke="black" d="M229.5,-198C229.5,-198 175.5,-198 175.5,-198 169.5,-198 163.5,-192 163.5,-186 163.5,-186 163.5,-174 163.5,-174 163.5,-168 169.5,-162 175.5,-162 175.5,-162 229.5,-162 229.5,-162 235.5,-162 241.5,-168 241.5,-174 241.5,-174 241.5,-186 241.5,-186 241.5,-192 235.5,-198 229.5,-198"/>
<text text-anchor="middle" x="202.5" y="-176.3" font-family="Helvetica,sans-Serif" font-size="14.00">vibration</text>
</g>
<!-- err_error1 -->
<g id="node5" class="node">
<title>err_error1</title>
<path fill="white" stroke="black" d="M233,-252C233,-252 172,-252 172,-252 166,-252 160,-246 160,-240 160,-240 160,-228 160,-228 160,-222 166,-216 172,-216 172,-216 233,-216 233,-216 239,-216 245,-222 245,-228 245,-228 245,-240 245,-240 245,-246 239,-252 233,-252"/>
<text text-anchor="middle" x="202.5" y="-230.3" font-family="Helvetica,sans-Serif" font-size="14.00">err_error1</text>
</g>
<!-- err_error2 -->
<g id="node6" class="node">
<title>err_error2</title>
<path fill="white" stroke="black" d="M233,-306C233,-306 172,-306 172,-306 166,-306 160,-300 160,-294 160,-294 160,-282 160,-282 160,-276 166,-270 172,-270 172,-270 233,-270 233,-270 239,-270 245,-276 245,-282 245,-282 245,-294 245,-294 245,-300 239,-306 233,-306"/>
<text text-anchor="middle" x="202.5" y="-284.3" font-family="Helvetica,sans-Serif" font-size="14.00">err_error2</text>
</g>
<!-- err_error3 -->
<g id="node7" class="node">
<title>err_error3</title>
<path fill="white" stroke="black" d="M233,-360C233,-360 172,-360 172,-360 166,-360 160,-354 160,-348 160,-348 160,-336 160,-336 160,-330 166,-324 172,-324 172,-324 233,-324 233,-324 239,-324 245,-330 245,-336 245,-336 245,-348 245,-348 245,-354 239,-360 233,-360"/>
<text text-anchor="middle" x="202.5" y="-338.3" font-family="Helvetica,sans-Serif" font-size="14.00">err_error3</text>
</g>
<!-- err_error4 -->
<g id="node8" class="node">
<title>err_error4</title>
<path fill="white" stroke="black" d="M233,-414C233,-414 172,-414 172,-414 166,-414 160,-408 160,-402 160,-402 160,-390 160,-390 160,-384 166,-378 172,-378 172,-378 233,-378 233,-378 239,-378 245,-384 245,-390 245,-390 245,-402 245,-402 245,-408 239,-414 233,-414"/>
<text text-anchor="middle" x="202.5" y="-392.3" font-family="Helvetica,sans-Serif" font-size="14.00">err_error4</text>
</g>
<!-- err_error5 -->
<g id="node9" class="node">
<title>err_error5</title>
<path fill="white" stroke="black" d="M233,-468C233,-468 172,-468 172,-468 166,-468 160,-462 160,-456 160,-456 160,-444 160,-444 160,-438 166,-432 172,-432 172,-432 233,-432 233,-432 239,-432 245,-438 245,-444 245,-444 245,-456 245,-456 245,-462 239,-468 233,-468"/>
<text text-anchor="middle" x="202.5" y="-446.3" font-family="Helvetica,sans-Serif" font-size="14.00">err_error5</text>
</g>
<!-- mnt_comp1 -->
<g id="node10" class="node">
<title>mnt_comp1</title>
<path fill="white" stroke="black" d="M239.5,-522C239.5,-522 165.5,-522 165.5,-522 159.5,-522 153.5,-516 153.5,-510 153.5,-510 153.5,-498 153.5,-498 153.5,-492 159.5,-486 165.5,-486 165.5,-486 239.5,-486 239.5,-486 245.5,-486 251.5,-492 251.5,-498 251.5,-498 251.5,-510 251.5,-510 251.5,-516 245.5,-522 239.5,-522"/>
<text text-anchor="middle" x="202.5" y="-500.3" font-family="Helvetica,sans-Serif" font-size="14.00">mnt_comp1</text>
</g>
<!-- mnt_comp2 -->
<g id="node11" class="node">
<title>mnt_comp2</title>
<path fill="white" stroke="black" d="M239.5,-576C239.5,-576 165.5,-576 165.5,-576 159.5,-576 153.5,-570 153.5,-564 153.5,-564 153.5,-552 153.5,-552 153.5,-546 159.5,-540 165.5,-540 165.5,-540 239.5,-540 239.5,-540 245.5,-540 251.5,-546 251.5,-552 251.5,-552 251.5,-564 251.5,-564 251.5,-570 245.5,-576 239.5,-576"/>
<text text-anchor="middle" x="202.5" y="-554.3" font-family="Helvetica,sans-Serif" font-size="14.00">mnt_comp2</text>
</g>
<!-- mnt_comp3 -->
<g id="node12" class="node">
<title>mnt_comp3</title>
<path fill="white" stroke="black" d="M239.5,-630C239.5,-630 165.5,-630 165.5,-630 159.5,-630 153.5,-624 153.5,-618 153.5,-618 153.5,-606 153.5,-606 153.5,-600 159.5,-594 165.5,-594 165.5,-594 239.5,-594 239.5,-594 245.5,-594 251.5,-600 251.5,-606 251.5,-606 251.5,-618 251.5,-618 251.5,-624 245.5,-630 239.5,-630"/>
<text text-anchor="middle" x="202.5" y="-608.3" font-family="Helvetica,sans-Serif" font-size="14.00">mnt_comp3</text>
</g>
<!-- mnt_comp4 -->
<g id="node13" class="node">
<title>mnt_comp4</title>
<path fill="white" stroke="black" d="M239.5,-684C239.5,-684 165.5,-684 165.5,-684 159.5,-684 153.5,-678 153.5,-672 153.5,-672 153.5,-660 153.5,-660 153.5,-654 159.5,-648 165.5,-648 165.5,-648 239.5,-648 239.5,-648 245.5,-648 251.5,-654 251.5,-660 251.5,-660 251.5,-672 251.5,-672 251.5,-678 245.5,-684 239.5,-684"/>
<text text-anchor="middle" x="202.5" y="-662.3" font-family="Helvetica,sans-Serif" font-size="14.00">mnt_comp4</text>
</g>
<!-- fail_comp1 -->
<g id="node14" class="node">
<title>fail_comp1</title>
<path fill="white" stroke="black" d="M236.5,-738C236.5,-738 168.5,-738 168.5,-738 162.5,-738 156.5,-732 156.5,-726 156.5,-726 156.5,-714 156.5,-714 156.5,-708 162.5,-702 168.5,-702 168.5,-702 236.5,-702 236.5,-702 242.5,-702 248.5,-708 248.5,-714 248.5,-714 248.5,-726 248.5,-726 248.5,-732 242.5,-738 236.5,-738"/>
<text text-anchor="middle" x="202.5" y="-716.3" font-family="Helvetica,sans-Serif" font-size="14.00">fail_comp1</text>
</g>
<!-- fail_comp2 -->
<g id="node15" class="node">
<title>fail_comp2</title>
<path fill="white" stroke="black" d="M236.5,-792C236.5,-792 168.5,-792 168.5,-792 162.5,-792 156.5,-786 156.5,-780 156.5,-780 156.5,-768 156.5,-768 156.5,-762 162.5,-756 168.5,-756 168.5,-756 236.5,-756 236.5,-756 242.5,-756 248.5,-762 248.5,-768 248.5,-768 248.5,-780 248.5,-780 248.5,-786 242.5,-792 236.5,-792"/>
<text text-anchor="middle" x="202.5" y="-770.3" font-family="Helvetica,sans-Serif" font-size="14.00">fail_comp2</text>
</g>
</g>
</svg>
