<?xml version="1.0" encoding="UTF-8" standalone="no"?>
<!DOCTYPE svg PUBLIC "-//W3C//DTD SVG 1.1//EN"
 "http://www.w3.org/Graphics/SVG/1.1/DTD/svg11.dtd">
<!-- Generated by graphviz version 2.50.0 (0)
 -->
<!-- Title: G Pages: 1 -->
<svg width="413pt" height="826pt"
 viewBox="0.00 0.00 413.00 826.00" xmlns="http://www.w3.org/2000/svg" xmlns:xlink="http://www.w3.org/1999/xlink">
<g id="graph0" class="graph" transform="scale(1 1) rotate(0) translate(4 822)">
<title>G</title>
<polygon fill="white" stroke="transparent" points="-4,4 -4,-822 409,-822 409,4 -4,4"/>
<text text-anchor="middle" x="202.5" y="-801.2" font-family="Times,serif" font-size="16.00">model=model2/gcmvl_mixed.json [machine 76]</text>
<!-- volt -->
<g id="node1" class="node">
<title>volt</title>
<path fill="white" stroke="black" d="M161,-36C161,-36 131,-36 131,-36 125,-36 119,-30 119,-24 119,-24 119,-12 119,-12 119,-6 125,0 131,0 131,0 161,0 161,0 167,0 173,-6 173,-12 173,-12 173,-24 173,-24 173,-30 167,-36 161,-36"/>
<text text-anchor="middle" x="146" y="-14.3" font-family="Helvetica,sans-Serif" font-size="14.00">volt</text>
</g>
<!-- rotate -->
<g id="node2" class="node">
<title>rotate</title>
<path fill="white" stroke="black" d="M162.5,-90C162.5,-90 129.5,-90 129.5,-90 123.5,-90 117.5,-84 117.5,-78 117.5,-78 117.5,-66 117.5,-66 117.5,-60 123.5,-54 129.5,-54 129.5,-54 162.5,-54 162.5,-54 168.5,-54 174.5,-60 174.5,-66 174.5,-66 174.5,-78 174.5,-78 174.5,-84 168.5,-90 162.5,-90"/>
<text text-anchor="middle" x="146" y="-68.3" font-family="Helvetica,sans-Serif" font-size="14.00">rotate</text>
</g>
<!-- pressure -->
<g id="node3" class="node">
<title>pressure</title>
<path fill="white" stroke="black" d="M296,-387C296,-387 243,-387 243,-387 237,-387 231,-381 231,-375 231,-375 231,-363 231,-363 231,-357 237,-351 243,-351 243,-351 296,-351 296,-351 302,-351 308,-357 308,-363 308,-363 308,-375 308,-375 308,-381 302,-387 296,-387"/>
<text text-anchor="middle" x="269.5" y="-365.3" font-family="Helvetica,sans-Serif" font-size="14.00">pressure</text>
</g>
<!-- vibration -->
<g id="node4" class="node">
<title>vibration</title>
<path fill="white" stroke="black" d="M173,-684C173,-684 119,-684 119,-684 113,-684 107,-678 107,-672 107,-672 107,-660 107,-660 107,-654 113,-648 119,-648 119,-648 173,-648 173,-648 179,-648 185,-654 185,-660 185,-660 185,-672 185,-672 185,-678 179,-684 173,-684"/>
<text text-anchor="middle" x="146" y="-662.3" font-family="Helvetica,sans-Serif" font-size="14.00">vibration</text>
</g>
<!-- err_error1 -->
<g id="node5" class="node">
<title>err_error1</title>
<path fill="white" stroke="black" d="M176.5,-630C176.5,-630 115.5,-630 115.5,-630 109.5,-630 103.5,-624 103.5,-618 103.5,-618 103.5,-606 103.5,-606 103.5,-600 109.5,-594 115.5,-594 115.5,-594 176.5,-594 176.5,-594 182.5,-594 188.5,-600 188.5,-606 188.5,-606 188.5,-618 188.5,-618 188.5,-624 182.5,-630 176.5,-630"/>
<text text-anchor="middle" x="146" y="-608.3" font-family="Helvetica,sans-Serif" font-size="14.00">err_error1</text>
</g>
<!-- err_error1&#45;&gt;pressure -->
<g id="edge1" class="edge">
<title>err_error1&#45;&gt;pressure</title>
<path fill="none" stroke="black" stroke-width="1.2" d="M185.7,-593.78C189.13,-591.16 192.31,-588.24 195,-585 241.65,-528.84 259.23,-441.59 265.41,-397.12"/>
<polygon fill="black" stroke="black" stroke-width="1.2" points="268.9,-397.4 266.72,-387.04 261.96,-396.5 268.9,-397.4"/>
</g>
<!-- err_error2 -->
<g id="node6" class="node">
<title>err_error2</title>
<path fill="white" stroke="black" d="M176.5,-576C176.5,-576 115.5,-576 115.5,-576 109.5,-576 103.5,-570 103.5,-564 103.5,-564 103.5,-552 103.5,-552 103.5,-546 109.5,-540 115.5,-540 115.5,-540 176.5,-540 176.5,-540 182.5,-540 188.5,-546 188.5,-552 188.5,-552 188.5,-564 188.5,-564 188.5,-570 182.5,-576 176.5,-576"/>
<text text-anchor="middle" x="146" y="-554.3" font-family="Helvetica,sans-Serif" font-size="14.00">err_error2</text>
</g>
<!-- err_error2&#45;&gt;pressure -->
<g id="edge2" class="edge">
<title>err_error2&#45;&gt;pressure</title>
<path fill="none" stroke="black" stroke-width="1.2" d="M184.91,-539.85C188.57,-537.19 192.03,-534.24 195,-531 230.94,-491.81 251.79,-432.05 261.58,-397.12"/>
<polygon fill="black" stroke="black" stroke-width="1.2" points="265.05,-397.69 264.27,-387.13 258.29,-395.87 265.05,-397.69"/>
</g>
<!-- err_error3 -->
<g id="node7" class="node">
<title>err_error3</title>
<path fill="white" stroke="black" d="M176.5,-522C176.5,-522 115.5,-522 115.5,-522 109.5,-522 103.5,-516 103.5,-510 103.5,-510 103.5,-498 103.5,-498 103.5,-492 109.5,-486 115.5,-486 115.5,-486 176.5,-486 176.5,-486 182.5,-486 188.5,-492 188.5,-498 188.5,-498 188.5,-510 188.5,-510 188.5,-516 182.5,-522 176.5,-522"/>
<text text-anchor="middle" x="146" y="-500.3" font-family="Helvetica,sans-Serif" font-size="14.00">err_error3</text>
</g>
<!-- err_error3&#45;&gt;pressure -->
<g id="edge3" class="edge">
<title>err_error3&#45;&gt;pressure</title>
<path fill="none" stroke="black" stroke-width="1.2" d="M183.38,-485.97C187.5,-483.23 191.48,-480.23 195,-477 220.4,-453.68 241.56,-419.96 254.55,-396.42"/>
<polygon fill="black" stroke="black" stroke-width="1.2" points="257.79,-397.79 259.45,-387.33 251.62,-394.47 257.79,-397.79"/>
</g>
<!-- err_error4 -->
<g id="node8" class="node">
<title>err_error4</title>
<path fill="white" stroke="black" d="M176.5,-468C176.5,-468 115.5,-468 115.5,-468 109.5,-468 103.5,-462 103.5,-456 103.5,-456 103.5,-444 103.5,-444 103.5,-438 109.5,-432 115.5,-432 115.5,-432 176.5,-432 176.5,-432 182.5,-432 188.5,-438 188.5,-444 188.5,-444 188.5,-456 188.5,-456 188.5,-462 182.5,-468 176.5,-468"/>
<text text-anchor="middle" x="146" y="-446.3" font-family="Helvetica,sans-Serif" font-size="14.00">err_error4</text>
</g>
<!-- err_error4&#45;&gt;pressure -->
<g id="edge4" class="edge">
<title>err_error4&#45;&gt;pressure</title>
<path fill="none" stroke="black" stroke-width="1.2" d="M180.36,-431.93C185.33,-429.04 190.34,-426.01 195,-423 209.3,-413.77 224.54,-402.78 237.42,-393.13"/>
<polygon fill="black" stroke="black" stroke-width="1.2" points="239.65,-395.83 245.51,-387.01 235.42,-390.25 239.65,-395.83"/>
</g>
<!-- err_error5 -->
<g id="node9" class="node">
<title>err_error5</title>
<path fill="white" stroke="black" d="M176.5,-738C176.5,-738 115.5,-738 115.5,-738 109.5,-738 103.5,-732 103.5,-726 103.5,-726 103.5,-714 103.5,-714 103.5,-708 109.5,-702 115.5,-702 115.5,-702 176.5,-702 176.5,-702 182.5,-702 188.5,-708 188.5,-714 188.5,-714 188.5,-726 188.5,-726 188.5,-732 182.5,-738 176.5,-738"/>
<text text-anchor="middle" x="146" y="-716.3" font-family="Helvetica,sans-Serif" font-size="14.00">err_error5</text>
</g>
<!-- mnt_comp1 -->
<g id="node10" class="node">
<title>mnt_comp1</title>
<path fill="white" stroke="black" d="M183,-414C183,-414 109,-414 109,-414 103,-414 97,-408 97,-402 97,-402 97,-390 97,-390 97,-384 103,-378 109,-378 109,-378 183,-378 183,-378 189,-378 195,-384 195,-390 195,-390 195,-402 195,-402 195,-408 189,-414 183,-414"/>
<text text-anchor="middle" x="146" y="-392.3" font-family="Helvetica,sans-Serif" font-size="14.00">mnt_comp1</text>
</g>
<!-- mnt_comp1&#45;&gt;pressure -->
<g id="edge5" class="edge">
<title>mnt_comp1&#45;&gt;pressure</title>
<path fill="none" stroke="black" stroke-width="1.2" d="M195.02,-385.33C203.6,-383.42 212.54,-381.44 221.1,-379.53"/>
<polygon fill="black" stroke="black" stroke-width="1.2" points="221.94,-382.93 230.94,-377.35 220.42,-376.1 221.94,-382.93"/>
</g>
<!-- mnt_comp2 -->
<g id="node11" class="node">
<title>mnt_comp2</title>
<path fill="white" stroke="black" d="M183,-360C183,-360 109,-360 109,-360 103,-360 97,-354 97,-348 97,-348 97,-336 97,-336 97,-330 103,-324 109,-324 109,-324 183,-324 183,-324 189,-324 195,-330 195,-336 195,-336 195,-348 195,-348 195,-354 189,-360 183,-360"/>
<text text-anchor="middle" x="146" y="-338.3" font-family="Helvetica,sans-Serif" font-size="14.00">mnt_comp2</text>
</g>
<!-- mnt_comp2&#45;&gt;pressure -->
<g id="edge6" class="edge">
<title>mnt_comp2&#45;&gt;pressure</title>
<path fill="none" stroke="black" stroke-width="1.2" d="M195.02,-352.67C203.6,-354.58 212.54,-356.56 221.1,-358.47"/>
<polygon fill="black" stroke="black" stroke-width="1.2" points="220.42,-361.9 230.94,-360.65 221.94,-355.07 220.42,-361.9"/>
</g>
<!-- mnt_comp3 -->
<g id="node12" class="node">
<title>mnt_comp3</title>
<path fill="white" stroke="black" d="M183,-306C183,-306 109,-306 109,-306 103,-306 97,-300 97,-294 97,-294 97,-282 97,-282 97,-276 103,-270 109,-270 109,-270 183,-270 183,-270 189,-270 195,-276 195,-282 195,-282 195,-294 195,-294 195,-300 189,-306 183,-306"/>
<text text-anchor="middle" x="146" y="-284.3" font-family="Helvetica,sans-Serif" font-size="14.00">mnt_comp3</text>
</g>
<!-- mnt_comp3&#45;&gt;pressure -->
<g id="edge7" class="edge">
<title>mnt_comp3&#45;&gt;pressure</title>
<path fill="none" stroke="black" stroke-width="1.2" d="M180.36,-306.07C185.33,-308.96 190.34,-311.99 195,-315 209.3,-324.23 224.54,-335.22 237.42,-344.87"/>
<polygon fill="black" stroke="black" stroke-width="1.2" points="235.42,-347.75 245.51,-350.99 239.65,-342.17 235.42,-347.75"/>
</g>
<!-- mnt_comp4 -->
<g id="node13" class="node">
<title>mnt_comp4</title>
<path fill="white" stroke="black" d="M183,-252C183,-252 109,-252 109,-252 103,-252 97,-246 97,-240 97,-240 97,-228 97,-228 97,-222 103,-216 109,-216 109,-216 183,-216 183,-216 189,-216 195,-222 195,-228 195,-228 195,-240 195,-240 195,-246 189,-252 183,-252"/>
<text text-anchor="middle" x="146" y="-230.3" font-family="Helvetica,sans-Serif" font-size="14.00">mnt_comp4</text>
</g>
<!-- mnt_comp4&#45;&gt;pressure -->
<g id="edge8" class="edge">
<title>mnt_comp4&#45;&gt;pressure</title>
<path fill="none" stroke="black" stroke-width="1.2" d="M183.38,-252.03C187.5,-254.77 191.48,-257.77 195,-261 220.4,-284.32 241.56,-318.04 254.55,-341.58"/>
<polygon fill="black" stroke="black" stroke-width="1.2" points="251.62,-343.53 259.45,-350.67 257.79,-340.21 251.62,-343.53"/>
</g>
<!-- fail_comp1 -->
<g id="node14" class="node">
<title>fail_comp1</title>
<path fill="white" stroke="black" d="M180,-198C180,-198 112,-198 112,-198 106,-198 100,-192 100,-186 100,-186 100,-174 100,-174 100,-168 106,-162 112,-162 112,-162 180,-162 180,-162 186,-162 192,-168 192,-174 192,-174 192,-186 192,-186 192,-192 186,-198 180,-198"/>
<text text-anchor="middle" x="146" y="-176.3" font-family="Helvetica,sans-Serif" font-size="14.00">fail_comp1</text>
</g>
<!-- fail_comp1&#45;&gt;pressure -->
<g id="edge9" class="edge">
<title>fail_comp1&#45;&gt;pressure</title>
<path fill="none" stroke="black" stroke-width="1.2" d="M184.91,-198.15C188.57,-200.81 192.03,-203.76 195,-207 230.94,-246.19 251.79,-305.95 261.58,-340.88"/>
<polygon fill="black" stroke="black" stroke-width="1.2" points="258.29,-342.13 264.27,-350.87 265.05,-340.31 258.29,-342.13"/>
</g>
<!-- fail_comp2 -->
<g id="node15" class="node">
<title>fail_comp2</title>
<path fill="white" stroke="black" d="M180,-792C180,-792 112,-792 112,-792 106,-792 100,-786 100,-780 100,-780 100,-768 100,-768 100,-762 106,-756 112,-756 112,-756 180,-756 180,-756 186,-756 192,-762 192,-768 192,-768 192,-780 192,-780 192,-786 186,-792 180,-792"/>
<text text-anchor="middle" x="146" y="-770.3" font-family="Helvetica,sans-Serif" font-size="14.00">fail_comp2</text>
</g>
<!-- fail_comp3 -->
<g id="node16" class="node">
<title>fail_comp3</title>
<path fill="white" stroke="black" d="M180,-144C180,-144 112,-144 112,-144 106,-144 100,-138 100,-132 100,-132 100,-120 100,-120 100,-114 106,-108 112,-108 112,-108 180,-108 180,-108 186,-108 192,-114 192,-120 192,-120 192,-132 192,-132 192,-138 186,-144 180,-144"/>
<text text-anchor="middle" x="146" y="-122.3" font-family="Helvetica,sans-Serif" font-size="14.00">fail_comp3</text>
</g>
<!-- fail_comp3&#45;&gt;pressure -->
<g id="edge10" class="edge">
<title>fail_comp3&#45;&gt;pressure</title>
<path fill="none" stroke="black" stroke-width="1.2" d="M185.7,-144.22C189.13,-146.84 192.31,-149.76 195,-153 241.65,-209.16 259.23,-296.41 265.41,-340.88"/>
<polygon fill="black" stroke="black" stroke-width="1.2" points="261.96,-341.5 266.72,-350.96 268.9,-340.6 261.96,-341.5"/>
</g>
</g>
</svg>
