<?xml version="1.0" encoding="UTF-8" standalone="no"?>
<!DOCTYPE svg PUBLIC "-//W3C//DTD SVG 1.1//EN"
 "http://www.w3.org/Graphics/SVG/1.1/DTD/svg11.dtd">
<!-- Generated by graphviz version 2.50.0 (0)
 -->
<!-- Title: G Pages: 1 -->
<svg width="413pt" height="826pt"
 viewBox="0.00 0.00 413.00 826.00" xmlns="http://www.w3.org/2000/svg" xmlns:xlink="http://www.w3.org/1999/xlink">
<g id="graph0" class="graph" transform="scale(1 1) rotate(0) translate(4 822)">
<title>G</title>
<polygon fill="white" stroke="transparent" points="-4,4 -4,-822 409,-822 409,4 -4,4"/>
<text text-anchor="middle" x="202.5" y="-801.2" font-family="Times,serif" font-size="16.00">model=model4/gcmvl_mixed.json [machine 83]</text>
<!-- volt -->
<g id="node1" class="node">
<title>volt</title>
<path fill="white" stroke="black" d="M160.5,-36C160.5,-36 130.5,-36 130.5,-36 124.5,-36 118.5,-30 118.5,-24 118.5,-24 118.5,-12 118.5,-12 118.5,-6 124.5,0 130.5,0 130.5,0 160.5,0 160.5,0 166.5,0 172.5,-6 172.5,-12 172.5,-12 172.5,-24 172.5,-24 172.5,-30 166.5,-36 160.5,-36"/>
<text text-anchor="middle" x="145.5" y="-14.3" font-family="Helvetica,sans-Serif" font-size="14.00">volt</text>
</g>
<!-- rotate -->
<g id="node2" class="node">
<title>rotate</title>
<path fill="white" stroke="black" d="M162,-90C162,-90 129,-90 129,-90 123,-90 117,-84 117,-78 117,-78 117,-66 117,-66 117,-60 123,-54 129,-54 129,-54 162,-54 162,-54 168,-54 174,-60 174,-66 174,-66 174,-78 174,-78 174,-84 168,-90 162,-90"/>
<text text-anchor="middle" x="145.5" y="-68.3" font-family="Helvetica,sans-Serif" font-size="14.00">rotate</text>
</g>
<!-- pressure -->
<g id="node3" class="node">
<title>pressure</title>
<path fill="white" stroke="black" d="M172,-144C172,-144 119,-144 119,-144 113,-144 107,-138 107,-132 107,-132 107,-120 107,-120 107,-114 113,-108 119,-108 119,-108 172,-108 172,-108 178,-108 184,-114 184,-120 184,-120 184,-132 184,-132 184,-138 178,-144 172,-144"/>
<text text-anchor="middle" x="145.5" y="-122.3" font-family="Helvetica,sans-Serif" font-size="14.00">pressure</text>
</g>
<!-- vibration -->
<g id="node4" class="node">
<title>vibration</title>
<path fill="white" stroke="black" d="M296.5,-360C296.5,-360 242.5,-360 242.5,-360 236.5,-360 230.5,-354 230.5,-348 230.5,-348 230.5,-336 230.5,-336 230.5,-330 236.5,-324 242.5,-324 242.5,-324 296.5,-324 296.5,-324 302.5,-324 308.5,-330 308.5,-336 308.5,-336 308.5,-348 308.5,-348 308.5,-354 302.5,-360 296.5,-360"/>
<text text-anchor="middle" x="269.5" y="-338.3" font-family="Helvetica,sans-Serif" font-size="14.00">vibration</text>
</g>
<!-- err_error1 -->
<g id="node5" class="node">
<title>err_error1</title>
<path fill="white" stroke="black" d="M176,-522C176,-522 115,-522 115,-522 109,-522 103,-516 103,-510 103,-510 103,-498 103,-498 103,-492 109,-486 115,-486 115,-486 176,-486 176,-486 182,-486 188,-492 188,-498 188,-498 188,-510 188,-510 188,-516 182,-522 176,-522"/>
<text text-anchor="middle" x="145.5" y="-500.3" font-family="Helvetica,sans-Serif" font-size="14.00">err_error1</text>
</g>
<!-- err_error1&#45;&gt;vibration -->
<g id="edge1" class="edge">
<title>err_error1&#45;&gt;vibration</title>
<path fill="none" stroke="black" stroke-width="1.2" d="M183.68,-485.95C187.57,-483.25 191.27,-480.26 194.5,-477 225.27,-445.89 246.95,-399.37 258.58,-369.86"/>
<polygon fill="black" stroke="black" stroke-width="1.2" points="261.97,-370.78 262.27,-360.19 255.43,-368.28 261.97,-370.78"/>
</g>
<!-- err_error2 -->
<g id="node6" class="node">
<title>err_error2</title>
<path fill="white" stroke="black" d="M176,-576C176,-576 115,-576 115,-576 109,-576 103,-570 103,-564 103,-564 103,-552 103,-552 103,-546 109,-540 115,-540 115,-540 176,-540 176,-540 182,-540 188,-546 188,-552 188,-552 188,-564 188,-564 188,-570 182,-576 176,-576"/>
<text text-anchor="middle" x="145.5" y="-554.3" font-family="Helvetica,sans-Serif" font-size="14.00">err_error2</text>
</g>
<!-- err_error3 -->
<g id="node7" class="node">
<title>err_error3</title>
<path fill="white" stroke="black" d="M176,-468C176,-468 115,-468 115,-468 109,-468 103,-462 103,-456 103,-456 103,-444 103,-444 103,-438 109,-432 115,-432 115,-432 176,-432 176,-432 182,-432 188,-438 188,-444 188,-444 188,-456 188,-456 188,-462 182,-468 176,-468"/>
<text text-anchor="middle" x="145.5" y="-446.3" font-family="Helvetica,sans-Serif" font-size="14.00">err_error3</text>
</g>
<!-- err_error3&#45;&gt;vibration -->
<g id="edge2" class="edge">
<title>err_error3&#45;&gt;vibration</title>
<path fill="none" stroke="black" stroke-width="1.2" d="M181.7,-431.94C186.15,-429.16 190.53,-426.15 194.5,-423 214.75,-406.91 234.34,-385.1 248.27,-368.17"/>
<polygon fill="black" stroke="black" stroke-width="1.2" points="251.07,-370.27 254.63,-360.29 245.62,-365.87 251.07,-370.27"/>
</g>
<!-- err_error4 -->
<g id="node8" class="node">
<title>err_error4</title>
<path fill="white" stroke="black" d="M176,-630C176,-630 115,-630 115,-630 109,-630 103,-624 103,-618 103,-618 103,-606 103,-606 103,-600 109,-594 115,-594 115,-594 176,-594 176,-594 182,-594 188,-600 188,-606 188,-606 188,-618 188,-618 188,-624 182,-630 176,-630"/>
<text text-anchor="middle" x="145.5" y="-608.3" font-family="Helvetica,sans-Serif" font-size="14.00">err_error4</text>
</g>
<!-- err_error5 -->
<g id="node9" class="node">
<title>err_error5</title>
<path fill="white" stroke="black" d="M176,-414C176,-414 115,-414 115,-414 109,-414 103,-408 103,-402 103,-402 103,-390 103,-390 103,-384 109,-378 115,-378 115,-378 176,-378 176,-378 182,-378 188,-384 188,-390 188,-390 188,-402 188,-402 188,-408 182,-414 176,-414"/>
<text text-anchor="middle" x="145.5" y="-392.3" font-family="Helvetica,sans-Serif" font-size="14.00">err_error5</text>
</g>
<!-- err_error5&#45;&gt;vibration -->
<g id="edge3" class="edge">
<title>err_error5&#45;&gt;vibration</title>
<path fill="none" stroke="black" stroke-width="1.2" d="M187.46,-377.87C198.28,-373.08 210.04,-367.88 221.16,-362.95"/>
<polygon fill="black" stroke="black" stroke-width="1.2" points="222.59,-366.15 230.32,-358.9 219.76,-359.75 222.59,-366.15"/>
</g>
<!-- mnt_comp1 -->
<g id="node10" class="node">
<title>mnt_comp1</title>
<path fill="white" stroke="black" d="M182.5,-684C182.5,-684 108.5,-684 108.5,-684 102.5,-684 96.5,-678 96.5,-672 96.5,-672 96.5,-660 96.5,-660 96.5,-654 102.5,-648 108.5,-648 108.5,-648 182.5,-648 182.5,-648 188.5,-648 194.5,-654 194.5,-660 194.5,-660 194.5,-672 194.5,-672 194.5,-678 188.5,-684 182.5,-684"/>
<text text-anchor="middle" x="145.5" y="-662.3" font-family="Helvetica,sans-Serif" font-size="14.00">mnt_comp1</text>
</g>
<!-- mnt_comp2 -->
<g id="node11" class="node">
<title>mnt_comp2</title>
<path fill="white" stroke="black" d="M182.5,-360C182.5,-360 108.5,-360 108.5,-360 102.5,-360 96.5,-354 96.5,-348 96.5,-348 96.5,-336 96.5,-336 96.5,-330 102.5,-324 108.5,-324 108.5,-324 182.5,-324 182.5,-324 188.5,-324 194.5,-330 194.5,-336 194.5,-336 194.5,-348 194.5,-348 194.5,-354 188.5,-360 182.5,-360"/>
<text text-anchor="middle" x="145.5" y="-338.3" font-family="Helvetica,sans-Serif" font-size="14.00">mnt_comp2</text>
</g>
<!-- mnt_comp2&#45;&gt;vibration -->
<g id="edge4" class="edge">
<title>mnt_comp2&#45;&gt;vibration</title>
<path fill="none" stroke="black" stroke-width="1.2" d="M194.72,-342C203.15,-342 211.92,-342 220.34,-342"/>
<polygon fill="black" stroke="black" stroke-width="1.2" points="220.41,-345.5 230.41,-342 220.41,-338.5 220.41,-345.5"/>
</g>
<!-- mnt_comp3 -->
<g id="node12" class="node">
<title>mnt_comp3</title>
<path fill="white" stroke="black" d="M182.5,-306C182.5,-306 108.5,-306 108.5,-306 102.5,-306 96.5,-300 96.5,-294 96.5,-294 96.5,-282 96.5,-282 96.5,-276 102.5,-270 108.5,-270 108.5,-270 182.5,-270 182.5,-270 188.5,-270 194.5,-276 194.5,-282 194.5,-282 194.5,-294 194.5,-294 194.5,-300 188.5,-306 182.5,-306"/>
<text text-anchor="middle" x="145.5" y="-284.3" font-family="Helvetica,sans-Serif" font-size="14.00">mnt_comp3</text>
</g>
<!-- mnt_comp3&#45;&gt;vibration -->
<g id="edge5" class="edge">
<title>mnt_comp3&#45;&gt;vibration</title>
<path fill="none" stroke="black" stroke-width="1.2" d="M187.46,-306.13C198.28,-310.92 210.04,-316.12 221.16,-321.05"/>
<polygon fill="black" stroke="black" stroke-width="1.2" points="219.76,-324.25 230.32,-325.1 222.59,-317.85 219.76,-324.25"/>
</g>
<!-- mnt_comp4 -->
<g id="node13" class="node">
<title>mnt_comp4</title>
<path fill="white" stroke="black" d="M182.5,-252C182.5,-252 108.5,-252 108.5,-252 102.5,-252 96.5,-246 96.5,-240 96.5,-240 96.5,-228 96.5,-228 96.5,-222 102.5,-216 108.5,-216 108.5,-216 182.5,-216 182.5,-216 188.5,-216 194.5,-222 194.5,-228 194.5,-228 194.5,-240 194.5,-240 194.5,-246 188.5,-252 182.5,-252"/>
<text text-anchor="middle" x="145.5" y="-230.3" font-family="Helvetica,sans-Serif" font-size="14.00">mnt_comp4</text>
</g>
<!-- mnt_comp4&#45;&gt;vibration -->
<g id="edge6" class="edge">
<title>mnt_comp4&#45;&gt;vibration</title>
<path fill="none" stroke="black" stroke-width="1.2" d="M181.7,-252.06C186.15,-254.84 190.53,-257.85 194.5,-261 214.75,-277.09 234.34,-298.9 248.27,-315.83"/>
<polygon fill="black" stroke="black" stroke-width="1.2" points="245.62,-318.13 254.63,-323.71 251.07,-313.73 245.62,-318.13"/>
</g>
<!-- fail_comp1 -->
<g id="node14" class="node">
<title>fail_comp1</title>
<path fill="white" stroke="black" d="M179.5,-738C179.5,-738 111.5,-738 111.5,-738 105.5,-738 99.5,-732 99.5,-726 99.5,-726 99.5,-714 99.5,-714 99.5,-708 105.5,-702 111.5,-702 111.5,-702 179.5,-702 179.5,-702 185.5,-702 191.5,-708 191.5,-714 191.5,-714 191.5,-726 191.5,-726 191.5,-732 185.5,-738 179.5,-738"/>
<text text-anchor="middle" x="145.5" y="-716.3" font-family="Helvetica,sans-Serif" font-size="14.00">fail_comp1</text>
</g>
<!-- fail_comp2 -->
<g id="node15" class="node">
<title>fail_comp2</title>
<path fill="white" stroke="black" d="M179.5,-792C179.5,-792 111.5,-792 111.5,-792 105.5,-792 99.5,-786 99.5,-780 99.5,-780 99.5,-768 99.5,-768 99.5,-762 105.5,-756 111.5,-756 111.5,-756 179.5,-756 179.5,-756 185.5,-756 191.5,-762 191.5,-768 191.5,-768 191.5,-780 191.5,-780 191.5,-786 185.5,-792 179.5,-792"/>
<text text-anchor="middle" x="145.5" y="-770.3" font-family="Helvetica,sans-Serif" font-size="14.00">fail_comp2</text>
</g>
<!-- fail_comp4 -->
<g id="node16" class="node">
<title>fail_comp4</title>
<path fill="white" stroke="black" d="M179.5,-198C179.5,-198 111.5,-198 111.5,-198 105.5,-198 99.5,-192 99.5,-186 99.5,-186 99.5,-174 99.5,-174 99.5,-168 105.5,-162 111.5,-162 111.5,-162 179.5,-162 179.5,-162 185.5,-162 191.5,-168 191.5,-174 191.5,-174 191.5,-186 191.5,-186 191.5,-192 185.5,-198 179.5,-198"/>
<text text-anchor="middle" x="145.5" y="-176.3" font-family="Helvetica,sans-Serif" font-size="14.00">fail_comp4</text>
</g>
<!-- fail_comp4&#45;&gt;vibration -->
<g id="edge7" class="edge">
<title>fail_comp4&#45;&gt;vibration</title>
<path fill="none" stroke="black" stroke-width="1.2" d="M183.68,-198.05C187.57,-200.75 191.27,-203.74 194.5,-207 225.27,-238.11 246.95,-284.63 258.58,-314.14"/>
<polygon fill="black" stroke="black" stroke-width="1.2" points="255.43,-315.72 262.27,-323.81 261.97,-313.22 255.43,-315.72"/>
</g>
</g>
</svg>
