<?xml version="1.0" encoding="UTF-8" standalone="no"?>
<!DOCTYPE svg PUBLIC "-//W3C//DTD SVG 1.1//EN"
 "http://www.w3.org/Graphics/SVG/1.1/DTD/svg11.dtd">
<!-- Generated by graphviz version 2.50.0 (0)
 -->
<!-- Title: G Pages: 1 -->
<svg width="413pt" height="826pt"
 viewBox="0.00 0.00 413.00 826.00" xmlns="http://www.w3.org/2000/svg" xmlns:xlink="http://www.w3.org/1999/xlink">
<g id="graph0" class="graph" transform="scale(1 1) rotate(0) translate(4 822)">
<title>G</title>
<polygon fill="white" stroke="transparent" points="-4,4 -4,-822 409,-822 409,4 -4,4"/>
<text text-anchor="middle" x="202.5" y="-801.2" font-family="Times,serif" font-size="16.00">model=model1/gcmvl_mixed.json [machine 92]</text>
<!-- volt -->
<g id="node1" class="node">
<title>volt</title>
<path fill="white" stroke="black" d="M161,-36C161,-36 131,-36 131,-36 125,-36 119,-30 119,-24 119,-24 119,-12 119,-12 119,-6 125,0 131,0 131,0 161,0 161,0 167,0 173,-6 173,-12 173,-12 173,-24 173,-24 173,-30 167,-36 161,-36"/>
<text text-anchor="middle" x="146" y="-14.3" font-family="Helvetica,sans-Serif" font-size="14.00">volt</text>
</g>
<!-- rotate -->
<g id="node2" class="node">
<title>rotate</title>
<path fill="white" stroke="black" d="M162.5,-90C162.5,-90 129.5,-90 129.5,-90 123.5,-90 117.5,-84 117.5,-78 117.5,-78 117.5,-66 117.5,-66 117.5,-60 123.5,-54 129.5,-54 129.5,-54 162.5,-54 162.5,-54 168.5,-54 174.5,-60 174.5,-66 174.5,-66 174.5,-78 174.5,-78 174.5,-84 168.5,-90 162.5,-90"/>
<text text-anchor="middle" x="146" y="-68.3" font-family="Helvetica,sans-Serif" font-size="14.00">rotate</text>
</g>
<!-- pressure -->
<g id="node3" class="node">
<title>pressure</title>
<path fill="white" stroke="black" d="M296,-252C296,-252 243,-252 243,-252 237,-252 231,-246 231,-240 231,-240 231,-228 231,-228 231,-222 237,-216 243,-216 243,-216 296,-216 296,-216 302,-216 308,-222 308,-228 308,-228 308,-240 308,-240 308,-246 302,-252 296,-252"/>
<text text-anchor="middle" x="269.5" y="-230.3" font-family="Helvetica,sans-Serif" font-size="14.00">pressure</text>
</g>
<!-- vibration -->
<g id="node4" class="node">
<title>vibration</title>
<path fill="white" stroke="black" d="M173,-414C173,-414 119,-414 119,-414 113,-414 107,-408 107,-402 107,-402 107,-390 107,-390 107,-384 113,-378 119,-378 119,-378 173,-378 173,-378 179,-378 185,-384 185,-390 185,-390 185,-402 185,-402 185,-408 179,-414 173,-414"/>
<text text-anchor="middle" x="146" y="-392.3" font-family="Helvetica,sans-Serif" font-size="14.00">vibration</text>
</g>
<!-- err_error1 -->
<g id="node5" class="node">
<title>err_error1</title>
<path fill="white" stroke="black" d="M176.5,-360C176.5,-360 115.5,-360 115.5,-360 109.5,-360 103.5,-354 103.5,-348 103.5,-348 103.5,-336 103.5,-336 103.5,-330 109.5,-324 115.5,-324 115.5,-324 176.5,-324 176.5,-324 182.5,-324 188.5,-330 188.5,-336 188.5,-336 188.5,-348 188.5,-348 188.5,-354 182.5,-360 176.5,-360"/>
<text text-anchor="middle" x="146" y="-338.3" font-family="Helvetica,sans-Serif" font-size="14.00">err_error1</text>
</g>
<!-- err_error1&#45;&gt;pressure -->
<g id="edge1" class="edge">
<title>err_error1&#45;&gt;pressure</title>
<path fill="none" stroke="black" stroke-width="1.2" d="M182.21,-323.95C186.66,-321.17 191.04,-318.16 195,-315 215.16,-298.93 234.61,-277.12 248.43,-260.18"/>
<polygon fill="black" stroke="black" stroke-width="1.2" points="251.22,-262.29 254.75,-252.3 245.76,-257.91 251.22,-262.29"/>
</g>
<!-- err_error2 -->
<g id="node6" class="node">
<title>err_error2</title>
<path fill="white" stroke="black" d="M176.5,-468C176.5,-468 115.5,-468 115.5,-468 109.5,-468 103.5,-462 103.5,-456 103.5,-456 103.5,-444 103.5,-444 103.5,-438 109.5,-432 115.5,-432 115.5,-432 176.5,-432 176.5,-432 182.5,-432 188.5,-438 188.5,-444 188.5,-444 188.5,-456 188.5,-456 188.5,-462 182.5,-468 176.5,-468"/>
<text text-anchor="middle" x="146" y="-446.3" font-family="Helvetica,sans-Serif" font-size="14.00">err_error2</text>
</g>
<!-- err_error3 -->
<g id="node7" class="node">
<title>err_error3</title>
<path fill="white" stroke="black" d="M176.5,-306C176.5,-306 115.5,-306 115.5,-306 109.5,-306 103.5,-300 103.5,-294 103.5,-294 103.5,-282 103.5,-282 103.5,-276 109.5,-270 115.5,-270 115.5,-270 176.5,-270 176.5,-270 182.5,-270 188.5,-276 188.5,-282 188.5,-282 188.5,-294 188.5,-294 188.5,-300 182.5,-306 176.5,-306"/>
<text text-anchor="middle" x="146" y="-284.3" font-family="Helvetica,sans-Serif" font-size="14.00">err_error3</text>
</g>
<!-- err_error3&#45;&gt;pressure -->
<g id="edge2" class="edge">
<title>err_error3&#45;&gt;pressure</title>
<path fill="none" stroke="black" stroke-width="1.2" d="M187.8,-269.87C198.68,-265.03 210.52,-259.77 221.69,-254.8"/>
<polygon fill="black" stroke="black" stroke-width="1.2" points="223.17,-257.98 230.88,-250.72 220.33,-251.58 223.17,-257.98"/>
</g>
<!-- err_error4 -->
<g id="node8" class="node">
<title>err_error4</title>
<path fill="white" stroke="black" d="M176.5,-252C176.5,-252 115.5,-252 115.5,-252 109.5,-252 103.5,-246 103.5,-240 103.5,-240 103.5,-228 103.5,-228 103.5,-222 109.5,-216 115.5,-216 115.5,-216 176.5,-216 176.5,-216 182.5,-216 188.5,-222 188.5,-228 188.5,-228 188.5,-240 188.5,-240 188.5,-246 182.5,-252 176.5,-252"/>
<text text-anchor="middle" x="146" y="-230.3" font-family="Helvetica,sans-Serif" font-size="14.00">err_error4</text>
</g>
<!-- err_error4&#45;&gt;pressure -->
<g id="edge3" class="edge">
<title>err_error4&#45;&gt;pressure</title>
<path fill="none" stroke="black" stroke-width="1.2" d="M188.81,-234C199.01,-234 209.99,-234 220.45,-234"/>
<polygon fill="black" stroke="black" stroke-width="1.2" points="220.68,-237.5 230.68,-234 220.68,-230.5 220.68,-237.5"/>
</g>
<!-- err_error5 -->
<g id="node9" class="node">
<title>err_error5</title>
<path fill="white" stroke="black" d="M176.5,-522C176.5,-522 115.5,-522 115.5,-522 109.5,-522 103.5,-516 103.5,-510 103.5,-510 103.5,-498 103.5,-498 103.5,-492 109.5,-486 115.5,-486 115.5,-486 176.5,-486 176.5,-486 182.5,-486 188.5,-492 188.5,-498 188.5,-498 188.5,-510 188.5,-510 188.5,-516 182.5,-522 176.5,-522"/>
<text text-anchor="middle" x="146" y="-500.3" font-family="Helvetica,sans-Serif" font-size="14.00">err_error5</text>
</g>
<!-- mnt_comp1 -->
<g id="node10" class="node">
<title>mnt_comp1</title>
<path fill="white" stroke="black" d="M183,-576C183,-576 109,-576 109,-576 103,-576 97,-570 97,-564 97,-564 97,-552 97,-552 97,-546 103,-540 109,-540 109,-540 183,-540 183,-540 189,-540 195,-546 195,-552 195,-552 195,-564 195,-564 195,-570 189,-576 183,-576"/>
<text text-anchor="middle" x="146" y="-554.3" font-family="Helvetica,sans-Serif" font-size="14.00">mnt_comp1</text>
</g>
<!-- mnt_comp2 -->
<g id="node11" class="node">
<title>mnt_comp2</title>
<path fill="white" stroke="black" d="M183,-630C183,-630 109,-630 109,-630 103,-630 97,-624 97,-618 97,-618 97,-606 97,-606 97,-600 103,-594 109,-594 109,-594 183,-594 183,-594 189,-594 195,-600 195,-606 195,-606 195,-618 195,-618 195,-624 189,-630 183,-630"/>
<text text-anchor="middle" x="146" y="-608.3" font-family="Helvetica,sans-Serif" font-size="14.00">mnt_comp2</text>
</g>
<!-- mnt_comp3 -->
<g id="node12" class="node">
<title>mnt_comp3</title>
<path fill="white" stroke="black" d="M183,-198C183,-198 109,-198 109,-198 103,-198 97,-192 97,-186 97,-186 97,-174 97,-174 97,-168 103,-162 109,-162 109,-162 183,-162 183,-162 189,-162 195,-168 195,-174 195,-174 195,-186 195,-186 195,-192 189,-198 183,-198"/>
<text text-anchor="middle" x="146" y="-176.3" font-family="Helvetica,sans-Serif" font-size="14.00">mnt_comp3</text>
</g>
<!-- mnt_comp3&#45;&gt;pressure -->
<g id="edge4" class="edge">
<title>mnt_comp3&#45;&gt;pressure</title>
<path fill="none" stroke="black" stroke-width="1.2" d="M187.8,-198.13C198.68,-202.97 210.52,-208.23 221.69,-213.2"/>
<polygon fill="black" stroke="black" stroke-width="1.2" points="220.33,-216.42 230.88,-217.28 223.17,-210.02 220.33,-216.42"/>
</g>
<!-- mnt_comp4 -->
<g id="node13" class="node">
<title>mnt_comp4</title>
<path fill="white" stroke="black" d="M183,-684C183,-684 109,-684 109,-684 103,-684 97,-678 97,-672 97,-672 97,-660 97,-660 97,-654 103,-648 109,-648 109,-648 183,-648 183,-648 189,-648 195,-654 195,-660 195,-660 195,-672 195,-672 195,-678 189,-684 183,-684"/>
<text text-anchor="middle" x="146" y="-662.3" font-family="Helvetica,sans-Serif" font-size="14.00">mnt_comp4</text>
</g>
<!-- fail_comp1 -->
<g id="node14" class="node">
<title>fail_comp1</title>
<path fill="white" stroke="black" d="M180,-738C180,-738 112,-738 112,-738 106,-738 100,-732 100,-726 100,-726 100,-714 100,-714 100,-708 106,-702 112,-702 112,-702 180,-702 180,-702 186,-702 192,-708 192,-714 192,-714 192,-726 192,-726 192,-732 186,-738 180,-738"/>
<text text-anchor="middle" x="146" y="-716.3" font-family="Helvetica,sans-Serif" font-size="14.00">fail_comp1</text>
</g>
<!-- fail_comp2 -->
<g id="node15" class="node">
<title>fail_comp2</title>
<path fill="white" stroke="black" d="M180,-792C180,-792 112,-792 112,-792 106,-792 100,-786 100,-780 100,-780 100,-768 100,-768 100,-762 106,-756 112,-756 112,-756 180,-756 180,-756 186,-756 192,-762 192,-768 192,-768 192,-780 192,-780 192,-786 186,-792 180,-792"/>
<text text-anchor="middle" x="146" y="-770.3" font-family="Helvetica,sans-Serif" font-size="14.00">fail_comp2</text>
</g>
<!-- fail_comp3 -->
<g id="node16" class="node">
<title>fail_comp3</title>
<path fill="white" stroke="black" d="M180,-144C180,-144 112,-144 112,-144 106,-144 100,-138 100,-132 100,-132 100,-120 100,-120 100,-114 106,-108 112,-108 112,-108 180,-108 180,-108 186,-108 192,-114 192,-120 192,-120 192,-132 192,-132 192,-138 186,-144 180,-144"/>
<text text-anchor="middle" x="146" y="-122.3" font-family="Helvetica,sans-Serif" font-size="14.00">fail_comp3</text>
</g>
<!-- fail_comp3&#45;&gt;pressure -->
<g id="edge5" class="edge">
<title>fail_comp3&#45;&gt;pressure</title>
<path fill="none" stroke="black" stroke-width="1.2" d="M182.21,-144.05C186.66,-146.83 191.04,-149.84 195,-153 215.16,-169.07 234.61,-190.88 248.43,-207.82"/>
<polygon fill="black" stroke="black" stroke-width="1.2" points="245.76,-210.09 254.75,-215.7 251.22,-205.71 245.76,-210.09"/>
</g>
</g>
</svg>
