<?xml version="1.0" encoding="UTF-8" standalone="no"?>
<!DOCTYPE svg PUBLIC "-//W3C//DTD SVG 1.1//EN"
 "http://www.w3.org/Graphics/SVG/1.1/DTD/svg11.dtd">
<!-- Generated by graphviz version 2.50.0 (0)
 -->
<!-- Title: G Pages: 1 -->
<svg width="1195pt" height="438pt"
 viewBox="0.00 0.00 1195.00 438.00" xmlns="http://www.w3.org/2000/svg" xmlns:xlink="http://www.w3.org/1999/xlink">
<g id="graph0" class="graph" transform="scale(1 1) rotate(0) translate(4 434)">
<title>G</title>
<polygon fill="white" stroke="transparent" points="-4,4 -4,-434 1191,-434 1191,4 -4,4"/>
<text text-anchor="middle" x="593.5" y="-413.2" font-family="Times,serif" font-size="16.00">model=model3/nbcb_w_mixed.json [machine 8]</text>
<!-- volt -->
<g id="node1" class="node">
<title>volt</title>
<path fill="white" stroke="black" d="M42,-254C42,-254 12,-254 12,-254 6,-254 0,-248 0,-242 0,-242 0,-230 0,-230 0,-224 6,-218 12,-218 12,-218 42,-218 42,-218 48,-218 54,-224 54,-230 54,-230 54,-242 54,-242 54,-248 48,-254 42,-254"/>
<text text-anchor="middle" x="27" y="-232.3" font-family="Helvetica,sans-Serif" font-size="14.00">volt</text>
</g>
<!-- err_error2 -->
<g id="node6" class="node">
<title>err_error2</title>
<path fill="white" stroke="black" d="M1168.5,-361C1168.5,-361 1107.5,-361 1107.5,-361 1101.5,-361 1095.5,-355 1095.5,-349 1095.5,-349 1095.5,-337 1095.5,-337 1095.5,-331 1101.5,-325 1107.5,-325 1107.5,-325 1168.5,-325 1168.5,-325 1174.5,-325 1180.5,-331 1180.5,-337 1180.5,-337 1180.5,-349 1180.5,-349 1180.5,-355 1174.5,-361 1168.5,-361"/>
<text text-anchor="middle" x="1138" y="-339.3" font-family="Helvetica,sans-Serif" font-size="14.00">err_error2</text>
</g>
<!-- volt&#45;&gt;err_error2 -->
<g id="edge1" class="edge">
<title>volt&#45;&gt;err_error2</title>
<path fill="none" stroke="black" stroke-width="1.2" d="M43.6,-262.68C54.85,-280.26 71.3,-302.92 90,-319 150.76,-371.24 168.87,-404 249,-404 249,-404 249,-404 874,-404 949.08,-404 1033.17,-380.12 1085.6,-362.24"/>
<polygon fill="black" stroke="black" stroke-width="1.2" points="46.46,-260.65 38.21,-254.01 40.51,-264.35 46.46,-260.65"/>
<polygon fill="black" stroke="black" stroke-width="1.2" points="1087.03,-365.45 1095.33,-358.87 1084.73,-358.84 1087.03,-365.45"/>
</g>
<!-- err_error5 -->
<g id="node9" class="node">
<title>err_error5</title>
<path fill="white" stroke="black" d="M163,-254C163,-254 102,-254 102,-254 96,-254 90,-248 90,-242 90,-242 90,-230 90,-230 90,-224 96,-218 102,-218 102,-218 163,-218 163,-218 169,-218 175,-224 175,-230 175,-230 175,-242 175,-242 175,-248 169,-254 163,-254"/>
<text text-anchor="middle" x="132.5" y="-232.3" font-family="Helvetica,sans-Serif" font-size="14.00">err_error5</text>
</g>
<!-- volt&#45;&gt;err_error5 -->
<g id="edge2" class="edge">
<title>volt&#45;&gt;err_error5</title>
<path fill="none" stroke="black" stroke-width="1.2" d="M54.12,-236C61.87,-236 70.64,-236 79.42,-236"/>
<polygon fill="black" stroke="black" stroke-width="1.2" points="79.68,-239.5 89.68,-236 79.68,-232.5 79.68,-239.5"/>
</g>
<!-- mnt_comp1 -->
<g id="node10" class="node">
<title>mnt_comp1</title>
<path fill="white" stroke="black" d="M411,-208C411,-208 337,-208 337,-208 331,-208 325,-202 325,-196 325,-196 325,-184 325,-184 325,-178 331,-172 337,-172 337,-172 411,-172 411,-172 417,-172 423,-178 423,-184 423,-184 423,-196 423,-196 423,-202 417,-208 411,-208"/>
<text text-anchor="middle" x="374" y="-186.3" font-family="Helvetica,sans-Serif" font-size="14.00">mnt_comp1</text>
</g>
<!-- volt&#45;&gt;mnt_comp1 -->
<g id="edge3" class="edge">
<title>volt&#45;&gt;mnt_comp1</title>
<path fill="none" stroke="black" stroke-width="1.2" d="M54.16,-222.23C64.96,-217.18 77.79,-211.97 90,-209 166.16,-190.45 257.04,-187.62 314.87,-188.14"/>
<polygon fill="black" stroke="black" stroke-width="1.2" points="314.88,-191.64 324.92,-188.27 314.97,-184.64 314.88,-191.64"/>
</g>
<!-- fail_comp4 -->
<g id="node15" class="node">
<title>fail_comp4</title>
<path fill="white" stroke="black" d="M408,-338C408,-338 340,-338 340,-338 334,-338 328,-332 328,-326 328,-326 328,-314 328,-314 328,-308 334,-302 340,-302 340,-302 408,-302 408,-302 414,-302 420,-308 420,-314 420,-314 420,-326 420,-326 420,-332 414,-338 408,-338"/>
<text text-anchor="middle" x="374" y="-316.3" font-family="Helvetica,sans-Serif" font-size="14.00">fail_comp4</text>
</g>
<!-- volt&#45;&gt;fail_comp4 -->
<g id="edge7" class="edge">
<title>volt&#45;&gt;fail_comp4</title>
<path fill="none" stroke="black" stroke-width="1.2" d="M54.08,-248.82C64.98,-253.8 77.9,-259.2 90,-263 167.35,-287.33 259.96,-303.67 317.65,-312.41"/>
<polygon fill="black" stroke="black" stroke-width="1.2" points="317.25,-315.89 327.65,-313.9 318.28,-308.96 317.25,-315.89"/>
</g>
<!-- rotate -->
<g id="node2" class="node">
<title>rotate</title>
<path fill="white" stroke="black" d="M765,-208C765,-208 732,-208 732,-208 726,-208 720,-202 720,-196 720,-196 720,-184 720,-184 720,-178 726,-172 732,-172 732,-172 765,-172 765,-172 771,-172 777,-178 777,-184 777,-184 777,-196 777,-196 777,-202 771,-208 765,-208"/>
<text text-anchor="middle" x="748.5" y="-186.3" font-family="Helvetica,sans-Serif" font-size="14.00">rotate</text>
</g>
<!-- vibration -->
<g id="node4" class="node">
<title>vibration</title>
<path fill="white" stroke="black" d="M277,-254C277,-254 223,-254 223,-254 217,-254 211,-248 211,-242 211,-242 211,-230 211,-230 211,-224 217,-218 223,-218 223,-218 277,-218 277,-218 283,-218 289,-224 289,-230 289,-230 289,-242 289,-242 289,-248 283,-254 277,-254"/>
<text text-anchor="middle" x="250" y="-232.3" font-family="Helvetica,sans-Serif" font-size="14.00">vibration</text>
</g>
<!-- rotate&#45;&gt;vibration -->
<g id="edge9" class="edge">
<title>rotate&#45;&gt;vibration</title>
<path fill="none" stroke="black" stroke-width="1.2" d="M710.38,-177.13C634.62,-153.07 458.09,-108.4 325,-163 302.11,-172.39 282.51,-192.66 269.25,-209.46"/>
<polygon fill="black" stroke="black" stroke-width="1.2" points="709.38,-180.48 719.97,-180.24 711.53,-173.82 709.38,-180.48"/>
<polygon fill="black" stroke="black" stroke-width="1.2" points="266.14,-207.77 262.9,-217.86 271.72,-211.99 266.14,-207.77"/>
</g>
<!-- err_error3 -->
<g id="node7" class="node">
<title>err_error3</title>
<path fill="white" stroke="black" d="M538.5,-254C538.5,-254 477.5,-254 477.5,-254 471.5,-254 465.5,-248 465.5,-242 465.5,-242 465.5,-230 465.5,-230 465.5,-224 471.5,-218 477.5,-218 477.5,-218 538.5,-218 538.5,-218 544.5,-218 550.5,-224 550.5,-230 550.5,-230 550.5,-242 550.5,-242 550.5,-248 544.5,-254 538.5,-254"/>
<text text-anchor="middle" x="508" y="-232.3" font-family="Helvetica,sans-Serif" font-size="14.00">err_error3</text>
</g>
<!-- rotate&#45;&gt;err_error3 -->
<g id="edge10" class="edge">
<title>rotate&#45;&gt;err_error3</title>
<path fill="none" stroke="black" stroke-width="1.2" d="M719.82,-195.34C680.94,-202.84 609.46,-216.62 560.6,-226.05"/>
<polygon fill="black" stroke="black" stroke-width="1.2" points="559.7,-222.66 550.54,-227.99 561.03,-229.53 559.7,-222.66"/>
</g>
<!-- err_error4 -->
<g id="node8" class="node">
<title>err_error4</title>
<path fill="white" stroke="black" d="M903.5,-286C903.5,-286 842.5,-286 842.5,-286 836.5,-286 830.5,-280 830.5,-274 830.5,-274 830.5,-262 830.5,-262 830.5,-256 836.5,-250 842.5,-250 842.5,-250 903.5,-250 903.5,-250 909.5,-250 915.5,-256 915.5,-262 915.5,-262 915.5,-274 915.5,-274 915.5,-280 909.5,-286 903.5,-286"/>
<text text-anchor="middle" x="873" y="-264.3" font-family="Helvetica,sans-Serif" font-size="14.00">err_error4</text>
</g>
<!-- rotate&#45;&gt;err_error4 -->
<g id="edge11" class="edge">
<title>rotate&#45;&gt;err_error4</title>
<path fill="none" stroke="black" stroke-width="1.2" d="M785.75,-213.08C801.15,-222.89 819.11,-234.32 834.64,-244.21"/>
<polygon fill="black" stroke="black" stroke-width="1.2" points="787.61,-210.12 777.3,-207.7 783.85,-216.02 787.61,-210.12"/>
<polygon fill="black" stroke="black" stroke-width="1.2" points="833.15,-247.41 843.46,-249.83 836.91,-241.51 833.15,-247.41"/>
</g>
<!-- rotate&#45;&gt;mnt_comp1 -->
<g id="edge12" class="edge">
<title>rotate&#45;&gt;mnt_comp1</title>
<path fill="none" stroke="black" stroke-width="1.2" d="M720,-190C659.75,-190 514.99,-190 433.42,-190"/>
<polygon fill="black" stroke="black" stroke-width="1.2" points="433.32,-186.5 423.32,-190 433.32,-193.5 433.32,-186.5"/>
</g>
<!-- fail_comp2 -->
<g id="node14" class="node">
<title>fail_comp2</title>
<path fill="white" stroke="black" d="M907,-86C907,-86 839,-86 839,-86 833,-86 827,-80 827,-74 827,-74 827,-62 827,-62 827,-56 833,-50 839,-50 839,-50 907,-50 907,-50 913,-50 919,-56 919,-62 919,-62 919,-74 919,-74 919,-80 913,-86 907,-86"/>
<text text-anchor="middle" x="873" y="-64.3" font-family="Helvetica,sans-Serif" font-size="14.00">fail_comp2</text>
</g>
<!-- rotate&#45;&gt;fail_comp2 -->
<g id="edge14" class="edge">
<title>rotate&#45;&gt;fail_comp2</title>
<path fill="none" stroke="black" stroke-width="1.2" d="M774.81,-164.79C795.8,-143.89 825.49,-114.32 846.53,-93.37"/>
<polygon fill="black" stroke="black" stroke-width="1.2" points="772.19,-162.46 767.58,-172 777.13,-167.42 772.19,-162.46"/>
<polygon fill="black" stroke="black" stroke-width="1.2" points="849.23,-95.61 853.85,-86.08 844.3,-90.65 849.23,-95.61"/>
</g>
<!-- pressure -->
<g id="node3" class="node">
<title>pressure</title>
<path fill="white" stroke="black" d="M658,-330C658,-330 605,-330 605,-330 599,-330 593,-324 593,-318 593,-318 593,-306 593,-306 593,-300 599,-294 605,-294 605,-294 658,-294 658,-294 664,-294 670,-300 670,-306 670,-306 670,-318 670,-318 670,-324 664,-330 658,-330"/>
<text text-anchor="middle" x="631.5" y="-308.3" font-family="Helvetica,sans-Serif" font-size="14.00">pressure</text>
</g>
<!-- pressure&#45;&gt;rotate -->
<g id="edge8" class="edge">
<title>pressure&#45;&gt;rotate</title>
<path fill="none" stroke="black" stroke-width="1.2" d="M656.29,-293.87C661.12,-289.61 665.96,-284.88 670,-280 690.57,-255.16 683.86,-240.45 706,-217 707.76,-215.14 709.66,-213.35 711.66,-211.63"/>
<polygon fill="black" stroke="black" stroke-width="1.2" points="713.94,-214.3 719.72,-205.42 709.66,-208.76 713.94,-214.3"/>
</g>
<!-- err_error1 -->
<g id="node5" class="node">
<title>err_error1</title>
<path fill="white" stroke="black" d="M779,-262C779,-262 718,-262 718,-262 712,-262 706,-256 706,-250 706,-250 706,-238 706,-238 706,-232 712,-226 718,-226 718,-226 779,-226 779,-226 785,-226 791,-232 791,-238 791,-238 791,-250 791,-250 791,-256 785,-262 779,-262"/>
<text text-anchor="middle" x="748.5" y="-240.3" font-family="Helvetica,sans-Serif" font-size="14.00">err_error1</text>
</g>
<!-- pressure&#45;&gt;err_error1 -->
<g id="edge15" class="edge">
<title>pressure&#45;&gt;err_error1</title>
<path fill="none" stroke="black" stroke-width="1.2" d="M671.9,-288.7C683.61,-281.78 696.44,-274.19 708.14,-267.27"/>
<polygon fill="black" stroke="black" stroke-width="1.2" points="669.84,-285.85 663.02,-293.96 673.41,-291.88 669.84,-285.85"/>
<polygon fill="black" stroke="black" stroke-width="1.2" points="710.02,-270.23 716.84,-262.13 706.45,-264.21 710.02,-270.23"/>
</g>
<!-- mnt_comp2 -->
<g id="node11" class="node">
<title>mnt_comp2</title>
<path fill="white" stroke="black" d="M1175,-170C1175,-170 1101,-170 1101,-170 1095,-170 1089,-164 1089,-158 1089,-158 1089,-146 1089,-146 1089,-140 1095,-134 1101,-134 1101,-134 1175,-134 1175,-134 1181,-134 1187,-140 1187,-146 1187,-146 1187,-158 1187,-158 1187,-164 1181,-170 1175,-170"/>
<text text-anchor="middle" x="1138" y="-148.3" font-family="Helvetica,sans-Serif" font-size="14.00">mnt_comp2</text>
</g>
<!-- pressure&#45;&gt;mnt_comp2 -->
<g id="edge17" class="edge">
<title>pressure&#45;&gt;mnt_comp2</title>
<path fill="none" stroke="black" stroke-width="1.2" d="M680.2,-305.32C712.73,-299.43 756.08,-288.91 791,-271 809.53,-261.49 808.6,-250.75 827,-241 908.84,-197.65 1014.33,-173.16 1078.75,-161.26"/>
<polygon fill="black" stroke="black" stroke-width="1.2" points="679.3,-301.92 670.04,-307.07 680.49,-308.82 679.3,-301.92"/>
<polygon fill="black" stroke="black" stroke-width="1.2" points="1079.51,-164.68 1088.73,-159.46 1078.27,-157.79 1079.51,-164.68"/>
</g>
<!-- vibration&#45;&gt;mnt_comp1 -->
<g id="edge21" class="edge">
<title>vibration&#45;&gt;mnt_comp1</title>
<path fill="none" stroke="black" stroke-width="1.2" d="M289.27,-221.57C297.58,-218.44 306.55,-215.05 315.43,-211.71"/>
<polygon fill="black" stroke="black" stroke-width="1.2" points="316.86,-214.91 324.98,-208.11 314.39,-208.36 316.86,-214.91"/>
</g>
<!-- mnt_comp4 -->
<g id="node13" class="node">
<title>mnt_comp4</title>
<path fill="white" stroke="black" d="M545,-330C545,-330 471,-330 471,-330 465,-330 459,-324 459,-318 459,-318 459,-306 459,-306 459,-300 465,-294 471,-294 471,-294 545,-294 545,-294 551,-294 557,-300 557,-306 557,-306 557,-318 557,-318 557,-324 551,-330 545,-330"/>
<text text-anchor="middle" x="508" y="-308.3" font-family="Helvetica,sans-Serif" font-size="14.00">mnt_comp4</text>
</g>
<!-- vibration&#45;&gt;mnt_comp4 -->
<g id="edge22" class="edge">
<title>vibration&#45;&gt;mnt_comp4</title>
<path fill="none" stroke="black" stroke-width="1.2" d="M289.05,-247.3C331.27,-259.83 399.89,-280.2 448.85,-294.74"/>
<polygon fill="black" stroke="black" stroke-width="1.2" points="448.09,-298.16 458.68,-297.65 450.09,-291.45 448.09,-298.16"/>
</g>
<!-- vibration&#45;&gt;fail_comp2 -->
<g id="edge23" class="edge">
<title>vibration&#45;&gt;fail_comp2</title>
<path fill="none" stroke="black" stroke-width="1.2" d="M260.22,-217.62C272.24,-195.45 295.27,-158.5 325,-137 394.13,-87 421.69,-76 507,-76 507,-76 507,-76 632.5,-76 695.68,-76 768.18,-73.18 816.71,-70.89"/>
<polygon fill="black" stroke="black" stroke-width="1.2" points="817.17,-74.38 826.99,-70.4 816.83,-67.38 817.17,-74.38"/>
</g>
<!-- vibration&#45;&gt;fail_comp4 -->
<g id="edge24" class="edge">
<title>vibration&#45;&gt;fail_comp4</title>
<path fill="none" stroke="black" stroke-width="1.2" d="M276.58,-254.2C290.78,-264.26 308.8,-276.91 325,-288 328.93,-290.69 333.05,-293.48 337.16,-296.24"/>
<polygon fill="black" stroke="black" stroke-width="1.2" points="335.25,-299.18 345.51,-301.84 339.15,-293.37 335.25,-299.18"/>
</g>
<!-- err_error3&#45;&gt;pressure -->
<g id="edge16" class="edge">
<title>err_error3&#45;&gt;pressure</title>
<path fill="none" stroke="black" stroke-width="1.2" d="M537.79,-254.01C554.17,-264.25 574.87,-277.2 592.56,-288.27"/>
<polygon fill="black" stroke="black" stroke-width="1.2" points="591.16,-291.52 601.49,-293.85 594.87,-285.58 591.16,-291.52"/>
</g>
<!-- err_error3&#45;&gt;vibration -->
<g id="edge19" class="edge">
<title>err_error3&#45;&gt;vibration</title>
<path fill="none" stroke="black" stroke-width="1.2" d="M465.34,-236C419.84,-236 347.09,-236 299.17,-236"/>
<polygon fill="black" stroke="black" stroke-width="1.2" points="299.05,-232.5 289.05,-236 299.05,-239.5 299.05,-232.5"/>
</g>
<!-- err_error3&#45;&gt;err_error2 -->
<g id="edge25" class="edge">
<title>err_error3&#45;&gt;err_error2</title>
<path fill="none" stroke="black" stroke-width="1.2" d="M528.56,-254.31C537.63,-263.21 548.3,-274.27 557,-285 575.17,-307.4 568.64,-323.55 593,-339 651.62,-376.19 678.08,-362 747.5,-362 747.5,-362 747.5,-362 874,-362 947.39,-362 1032,-354.55 1085,-348.98"/>
<polygon fill="black" stroke="black" stroke-width="1.2" points="1085.59,-352.44 1095.16,-347.89 1084.85,-345.48 1085.59,-352.44"/>
</g>
<!-- err_error3&#45;&gt;mnt_comp2 -->
<g id="edge29" class="edge">
<title>err_error3&#45;&gt;mnt_comp2</title>
<path fill="none" stroke="black" stroke-width="1.2" d="M528.31,-218C566.83,-184.06 657.27,-114 747.5,-114 747.5,-114 747.5,-114 874,-114 945.08,-114 1025.86,-127.76 1078.92,-138.72"/>
<polygon fill="black" stroke="black" stroke-width="1.2" points="1078.32,-142.17 1088.83,-140.8 1079.76,-135.32 1078.32,-142.17"/>
</g>
<!-- err_error4&#45;&gt;err_error2 -->
<g id="edge26" class="edge">
<title>err_error4&#45;&gt;err_error2</title>
<path fill="none" stroke="black" stroke-width="1.2" d="M909.2,-286.15C923.18,-292.8 939.58,-299.94 955,-305 998.03,-319.12 1048.56,-329.18 1085.45,-335.39"/>
<polygon fill="black" stroke="black" stroke-width="1.2" points="1085.04,-338.87 1095.47,-337.03 1086.17,-331.96 1085.04,-338.87"/>
</g>
<!-- err_error4&#45;&gt;mnt_comp2 -->
<g id="edge30" class="edge">
<title>err_error4&#45;&gt;mnt_comp2</title>
<path fill="none" stroke="black" stroke-width="1.2" d="M915.74,-257.4C952.83,-247.19 1007.97,-230.07 1053,-208 1071.02,-199.17 1089.73,-187.03 1104.91,-176.31"/>
<polygon fill="black" stroke="black" stroke-width="1.2" points="1107.33,-178.88 1113.4,-170.2 1103.24,-173.2 1107.33,-178.88"/>
</g>
<!-- mnt_comp3 -->
<g id="node12" class="node">
<title>mnt_comp3</title>
<path fill="white" stroke="black" d="M1041,-296C1041,-296 967,-296 967,-296 961,-296 955,-290 955,-284 955,-284 955,-272 955,-272 955,-266 961,-260 967,-260 967,-260 1041,-260 1041,-260 1047,-260 1053,-266 1053,-272 1053,-272 1053,-284 1053,-284 1053,-290 1047,-296 1041,-296"/>
<text text-anchor="middle" x="1004" y="-274.3" font-family="Helvetica,sans-Serif" font-size="14.00">mnt_comp3</text>
</g>
<!-- err_error4&#45;&gt;mnt_comp3 -->
<g id="edge31" class="edge">
<title>err_error4&#45;&gt;mnt_comp3</title>
<path fill="none" stroke="black" stroke-width="1.2" d="M915.53,-271.22C924.82,-271.94 934.84,-272.72 944.68,-273.48"/>
<polygon fill="black" stroke="black" stroke-width="1.2" points="944.57,-276.98 954.81,-274.26 945.11,-270 944.57,-276.98"/>
</g>
<!-- err_error5&#45;&gt;vibration -->
<g id="edge20" class="edge">
<title>err_error5&#45;&gt;vibration</title>
<path fill="none" stroke="black" stroke-width="1.2" d="M175.2,-236C183.47,-236 192.21,-236 200.68,-236"/>
<polygon fill="black" stroke="black" stroke-width="1.2" points="200.82,-239.5 210.82,-236 200.82,-232.5 200.82,-239.5"/>
</g>
<!-- mnt_comp1&#45;&gt;err_error3 -->
<g id="edge28" class="edge">
<title>mnt_comp1&#45;&gt;err_error3</title>
<path fill="none" stroke="black" stroke-width="1.2" d="M423.03,-206.74C433.64,-210.43 444.92,-214.37 455.66,-218.11"/>
<polygon fill="black" stroke="black" stroke-width="1.2" points="454.73,-221.49 465.33,-221.48 457.04,-214.88 454.73,-221.49"/>
</g>
<!-- mnt_comp2&#45;&gt;volt -->
<g id="edge4" class="edge">
<title>mnt_comp2&#45;&gt;volt</title>
<path fill="none" stroke="black" stroke-width="1.2" d="M1121.49,-133.98C1105.7,-116.51 1079.78,-90.2 1053,-73 980.71,-26.57 959.92,0 874,0 249,0 249,0 249,0 173.63,0 142.81,-5.21 90,-59 49.55,-100.2 35.39,-169.25 30.51,-207.8"/>
<polygon fill="black" stroke="black" stroke-width="1.2" points="27.02,-207.48 29.36,-217.81 33.98,-208.28 27.02,-207.48"/>
</g>
<!-- mnt_comp3&#45;&gt;err_error2 -->
<g id="edge27" class="edge">
<title>mnt_comp3&#45;&gt;err_error2</title>
<path fill="none" stroke="black" stroke-width="1.2" d="M1041.77,-296.11C1057.07,-303.64 1075.01,-312.47 1091.16,-320.43"/>
<polygon fill="black" stroke="black" stroke-width="1.2" points="1089.91,-323.71 1100.43,-324.99 1093,-317.43 1089.91,-323.71"/>
</g>
<!-- mnt_comp3&#45;&gt;mnt_comp2 -->
<g id="edge32" class="edge">
<title>mnt_comp3&#45;&gt;mnt_comp2</title>
<path fill="none" stroke="black" stroke-width="1.2" d="M1034.8,-259.84C1041.03,-255.58 1047.4,-250.86 1053,-246 1076.86,-225.29 1100.53,-198.04 1116.63,-178.22"/>
<polygon fill="black" stroke="black" stroke-width="1.2" points="1119.52,-180.21 1123.04,-170.22 1114.06,-175.83 1119.52,-180.21"/>
</g>
<!-- mnt_comp4&#45;&gt;volt -->
<g id="edge5" class="edge">
<title>mnt_comp4&#45;&gt;volt</title>
<path fill="none" stroke="black" stroke-width="1.2" d="M472.42,-330.03C457.62,-336.78 439.89,-343.62 423,-347 380.29,-355.54 368.23,-352.34 325,-347 218.13,-333.79 185.91,-336.96 90,-288 76.41,-281.06 63.19,-270.65 52.47,-260.96"/>
<polygon fill="black" stroke="black" stroke-width="1.2" points="54.83,-258.37 45.14,-254.09 50.04,-263.48 54.83,-258.37"/>
</g>
<!-- mnt_comp4&#45;&gt;rotate -->
<g id="edge13" class="edge">
<title>mnt_comp4&#45;&gt;rotate</title>
<path fill="none" stroke="black" stroke-width="1.2" d="M544.19,-294C588.83,-271.16 665.44,-231.98 710.79,-208.78"/>
<polygon fill="black" stroke="black" stroke-width="1.2" points="712.66,-211.75 719.97,-204.08 709.47,-205.52 712.66,-211.75"/>
</g>
<!-- mnt_comp4&#45;&gt;pressure -->
<g id="edge18" class="edge">
<title>mnt_comp4&#45;&gt;pressure</title>
<path fill="none" stroke="black" stroke-width="1.2" d="M557.02,-312C565.51,-312 574.34,-312 582.82,-312"/>
<polygon fill="black" stroke="black" stroke-width="1.2" points="582.94,-315.5 592.94,-312 582.94,-308.5 582.94,-315.5"/>
</g>
<!-- fail_comp2&#45;&gt;volt -->
<g id="edge6" class="edge">
<title>fail_comp2&#45;&gt;volt</title>
<path fill="none" stroke="black" stroke-width="1.2" d="M826.74,-58.92C778.74,-50.09 700.6,-38 632.5,-38 249,-38 249,-38 249,-38 147.92,-38 71.96,-154.32 41.99,-208.65"/>
<polygon fill="black" stroke="black" stroke-width="1.2" points="38.76,-207.26 37.09,-217.73 44.92,-210.59 38.76,-207.26"/>
</g>
<!-- fail_comp2&#45;&gt;mnt_comp2 -->
<g id="edge33" class="edge">
<title>fail_comp2&#45;&gt;mnt_comp2</title>
<path fill="none" stroke="black" stroke-width="1.2" d="M919.02,-71.32C956,-75.16 1009.22,-83.24 1053,-100 1071.21,-106.97 1089.81,-118.01 1104.87,-128.12"/>
<polygon fill="black" stroke="black" stroke-width="1.2" points="1103.07,-131.13 1113.29,-133.93 1107.05,-125.37 1103.07,-131.13"/>
</g>
<!-- fail_comp4&#45;&gt;mnt_comp4 -->
<g id="edge34" class="edge">
<title>fail_comp4&#45;&gt;mnt_comp4</title>
<path fill="none" stroke="black" stroke-width="1.2" d="M420.06,-317.27C429.37,-316.7 439.3,-316.1 449,-315.52"/>
<polygon fill="black" stroke="black" stroke-width="1.2" points="449.22,-319.01 458.99,-314.91 448.8,-312.02 449.22,-319.01"/>
</g>
</g>
</svg>
