<?xml version="1.0" encoding="UTF-8" standalone="no"?>
<!DOCTYPE svg PUBLIC "-//W3C//DTD SVG 1.1//EN"
 "http://www.w3.org/Graphics/SVG/1.1/DTD/svg11.dtd">
<!-- Generated by graphviz version 2.50.0 (0)
 -->
<!-- Title: G Pages: 1 -->
<svg width="454pt" height="178pt"
 viewBox="0.00 0.00 454.00 178.00" xmlns="http://www.w3.org/2000/svg" xmlns:xlink="http://www.w3.org/1999/xlink">
<g id="graph0" class="graph" transform="scale(1 1) rotate(0) translate(4 174)">
<title>G</title>
<polygon fill="white" stroke="transparent" points="-4,4 -4,-174 450,-174 450,4 -4,4"/>
<text text-anchor="middle" x="223" y="-153.2" font-family="Times,serif" font-size="16.00">model=model1/nbcb_w_telemetry.json [machine 31]</text>
<!-- volt -->
<g id="node1" class="node">
<title>volt</title>
<path fill="white" stroke="black" d="M191.5,-90C191.5,-90 161.5,-90 161.5,-90 155.5,-90 149.5,-84 149.5,-78 149.5,-78 149.5,-66 149.5,-66 149.5,-60 155.5,-54 161.5,-54 161.5,-54 191.5,-54 191.5,-54 197.5,-54 203.5,-60 203.5,-66 203.5,-66 203.5,-78 203.5,-78 203.5,-84 197.5,-90 191.5,-90"/>
<text text-anchor="middle" x="176.5" y="-68.3" font-family="Helvetica,sans-Serif" font-size="14.00">volt</text>
</g>
<!-- rotate -->
<g id="node2" class="node">
<title>rotate</title>
<path fill="white" stroke="black" d="M296.5,-63C296.5,-63 263.5,-63 263.5,-63 257.5,-63 251.5,-57 251.5,-51 251.5,-51 251.5,-39 251.5,-39 251.5,-33 257.5,-27 263.5,-27 263.5,-27 296.5,-27 296.5,-27 302.5,-27 308.5,-33 308.5,-39 308.5,-39 308.5,-51 308.5,-51 308.5,-57 302.5,-63 296.5,-63"/>
<text text-anchor="middle" x="280" y="-41.3" font-family="Helvetica,sans-Serif" font-size="14.00">rotate</text>
</g>
<!-- volt&#45;&gt;rotate -->
<g id="edge1" class="edge">
<title>volt&#45;&gt;rotate</title>
<path fill="none" stroke="black" stroke-width="1.2" d="M203.64,-65.05C215.13,-61.99 228.85,-58.34 241.41,-55"/>
<polygon fill="black" stroke="black" stroke-width="1.2" points="242.41,-58.36 251.17,-52.4 240.61,-51.59 242.41,-58.36"/>
</g>
<!-- pressure -->
<g id="node3" class="node">
<title>pressure</title>
<path fill="white" stroke="black" d="M203,-144C203,-144 150,-144 150,-144 144,-144 138,-138 138,-132 138,-132 138,-120 138,-120 138,-114 144,-108 150,-108 150,-108 203,-108 203,-108 209,-108 215,-114 215,-120 215,-120 215,-132 215,-132 215,-138 209,-144 203,-144"/>
<text text-anchor="middle" x="176.5" y="-122.3" font-family="Helvetica,sans-Serif" font-size="14.00">pressure</text>
</g>
<!-- vibration -->
<g id="node4" class="node">
<title>vibration</title>
<path fill="white" stroke="black" d="M203.5,-36C203.5,-36 149.5,-36 149.5,-36 143.5,-36 137.5,-30 137.5,-24 137.5,-24 137.5,-12 137.5,-12 137.5,-6 143.5,0 149.5,0 149.5,0 203.5,0 203.5,0 209.5,0 215.5,-6 215.5,-12 215.5,-12 215.5,-24 215.5,-24 215.5,-30 209.5,-36 203.5,-36"/>
<text text-anchor="middle" x="176.5" y="-14.3" font-family="Helvetica,sans-Serif" font-size="14.00">vibration</text>
</g>
<!-- vibration&#45;&gt;rotate -->
<g id="edge2" class="edge">
<title>vibration&#45;&gt;rotate</title>
<path fill="none" stroke="black" stroke-width="1.2" d="M215.58,-28.13C224.16,-30.41 233.24,-32.83 241.78,-35.1"/>
<polygon fill="black" stroke="black" stroke-width="1.2" points="240.92,-38.49 251.48,-37.68 242.72,-31.73 240.92,-38.49"/>
</g>
</g>
</svg>
