<?xml version="1.0" encoding="UTF-8" standalone="no"?>
<!DOCTYPE svg PUBLIC "-//W3C//DTD SVG 1.1//EN"
 "http://www.w3.org/Graphics/SVG/1.1/DTD/svg11.dtd">
<!-- Generated by graphviz version 2.50.0 (0)
 -->
<!-- Title: G Pages: 1 -->
<svg width="451pt" height="178pt"
 viewBox="0.00 0.00 451.00 178.00" xmlns="http://www.w3.org/2000/svg" xmlns:xlink="http://www.w3.org/1999/xlink">
<g id="graph0" class="graph" transform="scale(1 1) rotate(0) translate(4 174)">
<title>G</title>
<polygon fill="white" stroke="transparent" points="-4,4 -4,-174 447,-174 447,4 -4,4"/>
<text text-anchor="middle" x="221.5" y="-153.2" font-family="Times,serif" font-size="16.00">model=model1/nbcb_e_telemetry.json [machine 22]</text>
<!-- volt -->
<g id="node1" class="node">
<title>volt</title>
<path fill="white" stroke="black" d="M190,-36C190,-36 160,-36 160,-36 154,-36 148,-30 148,-24 148,-24 148,-12 148,-12 148,-6 154,0 160,0 160,0 190,0 190,0 196,0 202,-6 202,-12 202,-12 202,-24 202,-24 202,-30 196,-36 190,-36"/>
<text text-anchor="middle" x="175" y="-14.3" font-family="Helvetica,sans-Serif" font-size="14.00">volt</text>
</g>
<!-- rotate -->
<g id="node2" class="node">
<title>rotate</title>
<path fill="white" stroke="black" d="M295,-90C295,-90 262,-90 262,-90 256,-90 250,-84 250,-78 250,-78 250,-66 250,-66 250,-60 256,-54 262,-54 262,-54 295,-54 295,-54 301,-54 307,-60 307,-66 307,-66 307,-78 307,-78 307,-84 301,-90 295,-90"/>
<text text-anchor="middle" x="278.5" y="-68.3" font-family="Helvetica,sans-Serif" font-size="14.00">rotate</text>
</g>
<!-- pressure -->
<g id="node3" class="node">
<title>pressure</title>
<path fill="white" stroke="black" d="M201.5,-144C201.5,-144 148.5,-144 148.5,-144 142.5,-144 136.5,-138 136.5,-132 136.5,-132 136.5,-120 136.5,-120 136.5,-114 142.5,-108 148.5,-108 148.5,-108 201.5,-108 201.5,-108 207.5,-108 213.5,-114 213.5,-120 213.5,-120 213.5,-132 213.5,-132 213.5,-138 207.5,-144 201.5,-144"/>
<text text-anchor="middle" x="175" y="-122.3" font-family="Helvetica,sans-Serif" font-size="14.00">pressure</text>
</g>
<!-- vibration -->
<g id="node4" class="node">
<title>vibration</title>
<path fill="white" stroke="black" d="M202,-90C202,-90 148,-90 148,-90 142,-90 136,-84 136,-78 136,-78 136,-66 136,-66 136,-60 142,-54 148,-54 148,-54 202,-54 202,-54 208,-54 214,-60 214,-66 214,-66 214,-78 214,-78 214,-84 208,-90 202,-90"/>
<text text-anchor="middle" x="175" y="-68.3" font-family="Helvetica,sans-Serif" font-size="14.00">vibration</text>
</g>
<!-- vibration&#45;&gt;rotate -->
<g id="edge1" class="edge">
<title>vibration&#45;&gt;rotate</title>
<path fill="none" stroke="black" stroke-width="1.2" d="M214.08,-72C222.47,-72 231.35,-72 239.72,-72"/>
<polygon fill="black" stroke="black" stroke-width="1.2" points="239.98,-75.5 249.98,-72 239.98,-68.5 239.98,-75.5"/>
</g>
</g>
</svg>
