<?xml version="1.0" encoding="UTF-8" standalone="no"?>
<!DOCTYPE svg PUBLIC "-//W3C//DTD SVG 1.1//EN"
 "http://www.w3.org/Graphics/SVG/1.1/DTD/svg11.dtd">
<!-- Generated by graphviz version 2.50.0 (0)
 -->
<!-- Title: G Pages: 1 -->
<svg width="1409pt" height="756pt"
 viewBox="0.00 0.00 1409.00 756.04" xmlns="http://www.w3.org/2000/svg" xmlns:xlink="http://www.w3.org/1999/xlink">
<g id="graph0" class="graph" transform="scale(1 1) rotate(0) translate(4 752.04)">
<title>G</title>
<polygon fill="white" stroke="transparent" points="-4,4 -4,-752.04 1405,-752.04 1405,4 -4,4"/>
<text text-anchor="middle" x="700.5" y="-731.24" font-family="Times,serif" font-size="16.00">model=model2/nbcb_w_mixed.json [machine 97]</text>
<!-- volt -->
<g id="node1" class="node">
<title>volt</title>
<path fill="white" stroke="black" d="M42,-425.04C42,-425.04 12,-425.04 12,-425.04 6,-425.04 0,-419.04 0,-413.04 0,-413.04 0,-401.04 0,-401.04 0,-395.04 6,-389.04 12,-389.04 12,-389.04 42,-389.04 42,-389.04 48,-389.04 54,-395.04 54,-401.04 54,-401.04 54,-413.04 54,-413.04 54,-419.04 48,-425.04 42,-425.04"/>
<text text-anchor="middle" x="27" y="-403.34" font-family="Helvetica,sans-Serif" font-size="14.00">volt</text>
</g>
<!-- err_error5 -->
<g id="node9" class="node">
<title>err_error5</title>
<path fill="white" stroke="black" d="M163,-360.04C163,-360.04 102,-360.04 102,-360.04 96,-360.04 90,-354.04 90,-348.04 90,-348.04 90,-336.04 90,-336.04 90,-330.04 96,-324.04 102,-324.04 102,-324.04 163,-324.04 163,-324.04 169,-324.04 175,-330.04 175,-336.04 175,-336.04 175,-348.04 175,-348.04 175,-354.04 169,-360.04 163,-360.04"/>
<text text-anchor="middle" x="132.5" y="-338.34" font-family="Helvetica,sans-Serif" font-size="14.00">err_error5</text>
</g>
<!-- volt&#45;&gt;err_error5 -->
<g id="edge6" class="edge">
<title>volt&#45;&gt;err_error5</title>
<path fill="none" stroke="black" stroke-width="1.2" d="M54.12,-390.63C66.09,-383.12 80.5,-374.06 93.63,-365.82"/>
<polygon fill="black" stroke="black" stroke-width="1.2" points="95.86,-368.55 102.47,-360.27 92.14,-362.62 95.86,-368.55"/>
</g>
<!-- rotate -->
<g id="node2" class="node">
<title>rotate</title>
<path fill="white" stroke="black" d="M256,-360.04C256,-360.04 223,-360.04 223,-360.04 217,-360.04 211,-354.04 211,-348.04 211,-348.04 211,-336.04 211,-336.04 211,-330.04 217,-324.04 223,-324.04 223,-324.04 256,-324.04 256,-324.04 262,-324.04 268,-330.04 268,-336.04 268,-336.04 268,-348.04 268,-348.04 268,-354.04 262,-360.04 256,-360.04"/>
<text text-anchor="middle" x="239.5" y="-338.34" font-family="Helvetica,sans-Serif" font-size="14.00">rotate</text>
</g>
<!-- err_error3 -->
<g id="node7" class="node">
<title>err_error3</title>
<path fill="white" stroke="black" d="M377,-406.04C377,-406.04 316,-406.04 316,-406.04 310,-406.04 304,-400.04 304,-394.04 304,-394.04 304,-382.04 304,-382.04 304,-376.04 310,-370.04 316,-370.04 316,-370.04 377,-370.04 377,-370.04 383,-370.04 389,-376.04 389,-382.04 389,-382.04 389,-394.04 389,-394.04 389,-400.04 383,-406.04 377,-406.04"/>
<text text-anchor="middle" x="346.5" y="-384.34" font-family="Helvetica,sans-Serif" font-size="14.00">err_error3</text>
</g>
<!-- rotate&#45;&gt;err_error3 -->
<g id="edge13" class="edge">
<title>rotate&#45;&gt;err_error3</title>
<path fill="none" stroke="black" stroke-width="1.2" d="M277.25,-358.14C282.98,-360.65 288.98,-363.28 294.95,-365.89"/>
<polygon fill="black" stroke="black" stroke-width="1.2" points="278.65,-354.93 268.09,-354.12 275.84,-361.34 278.65,-354.93"/>
<polygon fill="black" stroke="black" stroke-width="1.2" points="293.7,-369.16 304.26,-369.97 296.51,-362.75 293.7,-369.16"/>
</g>
<!-- err_error4 -->
<g id="node8" class="node">
<title>err_error4</title>
<path fill="white" stroke="black" d="M1389,-584.04C1389,-584.04 1328,-584.04 1328,-584.04 1322,-584.04 1316,-578.04 1316,-572.04 1316,-572.04 1316,-560.04 1316,-560.04 1316,-554.04 1322,-548.04 1328,-548.04 1328,-548.04 1389,-548.04 1389,-548.04 1395,-548.04 1401,-554.04 1401,-560.04 1401,-560.04 1401,-572.04 1401,-572.04 1401,-578.04 1395,-584.04 1389,-584.04"/>
<text text-anchor="middle" x="1358.5" y="-562.34" font-family="Helvetica,sans-Serif" font-size="14.00">err_error4</text>
</g>
<!-- rotate&#45;&gt;err_error4 -->
<g id="edge14" class="edge">
<title>rotate&#45;&gt;err_error4</title>
<path fill="none" stroke="black" stroke-width="1.2" d="M251.08,-369.5C261.71,-394.58 279.96,-431.68 304,-458.04 404.75,-568.52 433.48,-646.04 583,-646.04 583,-646.04 583,-646.04 1118,-646.04 1190.59,-646.04 1269.48,-612.56 1316.15,-588.92"/>
<polygon fill="black" stroke="black" stroke-width="1.2" points="254.29,-368.11 247.25,-360.19 247.82,-370.77 254.29,-368.11"/>
<polygon fill="black" stroke="black" stroke-width="1.2" points="1318.04,-591.88 1325.32,-584.19 1314.83,-585.66 1318.04,-591.88"/>
</g>
<!-- fail_comp2 -->
<g id="node14" class="node">
<title>fail_comp2</title>
<path fill="white" stroke="black" d="M883,-165.04C883,-165.04 815,-165.04 815,-165.04 809,-165.04 803,-159.04 803,-153.04 803,-153.04 803,-141.04 803,-141.04 803,-135.04 809,-129.04 815,-129.04 815,-129.04 883,-129.04 883,-129.04 889,-129.04 895,-135.04 895,-141.04 895,-141.04 895,-153.04 895,-153.04 895,-159.04 889,-165.04 883,-165.04"/>
<text text-anchor="middle" x="849" y="-143.34" font-family="Helvetica,sans-Serif" font-size="14.00">fail_comp2</text>
</g>
<!-- rotate&#45;&gt;fail_comp2 -->
<g id="edge17" class="edge">
<title>rotate&#45;&gt;fail_comp2</title>
<path fill="none" stroke="black" stroke-width="1.2" d="M249.62,-323.98C260.15,-304.96 279.24,-275.54 304,-259.04 458.5,-156.01 688.42,-144.61 792.84,-145.28"/>
<polygon fill="black" stroke="black" stroke-width="1.2" points="792.81,-148.78 802.85,-145.39 792.88,-141.78 792.81,-148.78"/>
</g>
<!-- fail_comp3 -->
<g id="node15" class="node">
<title>fail_comp3</title>
<path fill="white" stroke="black" d="M618,-318.04C618,-318.04 550,-318.04 550,-318.04 544,-318.04 538,-312.04 538,-306.04 538,-306.04 538,-294.04 538,-294.04 538,-288.04 544,-282.04 550,-282.04 550,-282.04 618,-282.04 618,-282.04 624,-282.04 630,-288.04 630,-294.04 630,-294.04 630,-306.04 630,-306.04 630,-312.04 624,-318.04 618,-318.04"/>
<text text-anchor="middle" x="584" y="-296.34" font-family="Helvetica,sans-Serif" font-size="14.00">fail_comp3</text>
</g>
<!-- rotate&#45;&gt;fail_comp3 -->
<g id="edge18" class="edge">
<title>rotate&#45;&gt;fail_comp3</title>
<path fill="none" stroke="black" stroke-width="1.2" d="M268.18,-335.19C279.27,-332.65 292.18,-329.92 304,-328.04 381.16,-315.7 471.24,-307.83 527.71,-303.67"/>
<polygon fill="black" stroke="black" stroke-width="1.2" points="528.13,-307.15 537.85,-302.93 527.62,-300.17 528.13,-307.15"/>
</g>
<!-- pressure -->
<g id="node3" class="node">
<title>pressure</title>
<path fill="white" stroke="black" d="M490,-272.04C490,-272.04 437,-272.04 437,-272.04 431,-272.04 425,-266.04 425,-260.04 425,-260.04 425,-248.04 425,-248.04 425,-242.04 431,-236.04 437,-236.04 437,-236.04 490,-236.04 490,-236.04 496,-236.04 502,-242.04 502,-248.04 502,-248.04 502,-260.04 502,-260.04 502,-266.04 496,-272.04 490,-272.04"/>
<text text-anchor="middle" x="463.5" y="-250.34" font-family="Helvetica,sans-Serif" font-size="14.00">pressure</text>
</g>
<!-- pressure&#45;&gt;volt -->
<g id="edge1" class="edge">
<title>pressure&#45;&gt;volt</title>
<path fill="none" stroke="black" stroke-width="1.2" d="M424.81,-248.53C413.34,-247.09 400.68,-245.75 389,-245.04 252.77,-236.73 196.32,-229.46 90,-315.04 68.37,-332.45 51.44,-359.42 40.77,-379.67"/>
<polygon fill="black" stroke="black" stroke-width="1.2" points="37.59,-378.22 36.18,-388.72 43.83,-381.39 37.59,-378.22"/>
</g>
<!-- pressure&#45;&gt;rotate -->
<g id="edge11" class="edge">
<title>pressure&#45;&gt;rotate</title>
<path fill="none" stroke="black" stroke-width="1.2" d="M424.68,-257.66C391.51,-261.98 342.66,-271.13 304,-290.04 290.09,-296.83 276.56,-307.23 265.58,-316.94"/>
<polygon fill="black" stroke="black" stroke-width="1.2" points="263.07,-314.49 258.07,-323.83 267.8,-319.65 263.07,-314.49"/>
</g>
<!-- pressure&#45;&gt;err_error5 -->
<g id="edge20" class="edge">
<title>pressure&#45;&gt;err_error5</title>
<path fill="none" stroke="black" stroke-width="1.2" d="M424.75,-250.84C392.25,-249.11 344.36,-249.06 304,-259.04 255.07,-271.13 203.68,-298.44 170.28,-318.45"/>
<polygon fill="black" stroke="black" stroke-width="1.2" points="168.07,-315.69 161.35,-323.88 171.71,-321.67 168.07,-315.69"/>
</g>
<!-- mnt_comp2 -->
<g id="node11" class="node">
<title>mnt_comp2</title>
<path fill="white" stroke="black" d="M1020,-249.04C1020,-249.04 946,-249.04 946,-249.04 940,-249.04 934,-243.04 934,-237.04 934,-237.04 934,-225.04 934,-225.04 934,-219.04 940,-213.04 946,-213.04 946,-213.04 1020,-213.04 1020,-213.04 1026,-213.04 1032,-219.04 1032,-225.04 1032,-225.04 1032,-237.04 1032,-237.04 1032,-243.04 1026,-249.04 1020,-249.04"/>
<text text-anchor="middle" x="983" y="-227.34" font-family="Helvetica,sans-Serif" font-size="14.00">mnt_comp2</text>
</g>
<!-- pressure&#45;&gt;mnt_comp2 -->
<g id="edge21" class="edge">
<title>pressure&#45;&gt;mnt_comp2</title>
<path fill="none" stroke="black" stroke-width="1.2" d="M512.18,-246.13C552.92,-239.68 613.15,-230.88 666,-226.04 768.71,-216.62 795.07,-213.32 898,-220.04 906.33,-220.58 915.1,-221.42 923.7,-222.41"/>
<polygon fill="black" stroke="black" stroke-width="1.2" points="511.58,-242.68 502.26,-247.72 512.69,-249.59 511.58,-242.68"/>
<polygon fill="black" stroke="black" stroke-width="1.2" points="923.34,-225.89 933.69,-223.62 924.18,-218.94 923.34,-225.89"/>
</g>
<!-- pressure&#45;&gt;fail_comp3 -->
<g id="edge22" class="edge">
<title>pressure&#45;&gt;fail_comp3</title>
<path fill="none" stroke="black" stroke-width="1.2" d="M502.32,-268.72C510.58,-271.92 519.48,-275.38 528.24,-278.78"/>
<polygon fill="black" stroke="black" stroke-width="1.2" points="527.08,-282.08 537.67,-282.44 529.61,-275.56 527.08,-282.08"/>
</g>
<!-- vibration -->
<g id="node4" class="node">
<title>vibration</title>
<path fill="white" stroke="black" d="M1268,-478.04C1268,-478.04 1214,-478.04 1214,-478.04 1208,-478.04 1202,-472.04 1202,-466.04 1202,-466.04 1202,-454.04 1202,-454.04 1202,-448.04 1208,-442.04 1214,-442.04 1214,-442.04 1268,-442.04 1268,-442.04 1274,-442.04 1280,-448.04 1280,-454.04 1280,-454.04 1280,-466.04 1280,-466.04 1280,-472.04 1274,-478.04 1268,-478.04"/>
<text text-anchor="middle" x="1241" y="-456.34" font-family="Helvetica,sans-Serif" font-size="14.00">vibration</text>
</g>
<!-- vibration&#45;&gt;volt -->
<g id="edge2" class="edge">
<title>vibration&#45;&gt;volt</title>
<path fill="none" stroke="black" stroke-width="1.2" d="M1232.93,-478.04C1208.36,-537.24 1120.73,-722.04 984,-722.04 238.5,-722.04 238.5,-722.04 238.5,-722.04 101.24,-722.04 47.88,-512.72 32.85,-435.34"/>
<polygon fill="black" stroke="black" stroke-width="1.2" points="36.25,-434.52 30.98,-425.33 29.37,-435.81 36.25,-434.52"/>
</g>
<!-- vibration&#45;&gt;rotate -->
<g id="edge12" class="edge">
<title>vibration&#45;&gt;rotate</title>
<path fill="none" stroke="black" stroke-width="1.2" d="M1228.25,-478.3C1215.18,-497.25 1192.39,-526.52 1166,-544.04 1094.92,-591.22 1069.31,-605.04 984,-605.04 848,-605.04 848,-605.04 848,-605.04 591.9,-605.04 508.86,-568.73 304,-415.04 286.7,-402.06 270.74,-383.67 259.15,-368.6"/>
<polygon fill="black" stroke="black" stroke-width="1.2" points="261.64,-366.09 252.85,-360.17 256.04,-370.28 261.64,-366.09"/>
</g>
<!-- vibration&#45;&gt;err_error3 -->
<g id="edge26" class="edge">
<title>vibration&#45;&gt;err_error3</title>
<path fill="none" stroke="black" stroke-width="1.2" d="M1215.28,-478.19C1171.19,-508.71 1075.04,-567.04 984,-567.04 848,-567.04 848,-567.04 848,-567.04 665.4,-567.04 466.06,-460.09 384.95,-411.53"/>
<polygon fill="black" stroke="black" stroke-width="1.2" points="386.47,-408.36 376.11,-406.18 382.85,-414.35 386.47,-408.36"/>
</g>
<!-- vibration&#45;&gt;err_error4 -->
<g id="edge27" class="edge">
<title>vibration&#45;&gt;err_error4</title>
<path fill="none" stroke="black" stroke-width="1.2" d="M1261.86,-478.26C1280.61,-495.47 1308.92,-521.45 1329.88,-540.69"/>
<polygon fill="black" stroke="black" stroke-width="1.2" points="1327.78,-543.51 1337.52,-547.7 1332.52,-538.36 1327.78,-543.51"/>
</g>
<!-- vibration&#45;&gt;err_error5 -->
<g id="edge28" class="edge">
<title>vibration&#45;&gt;err_error5</title>
<path fill="none" stroke="black" stroke-width="1.2" d="M1237.24,-432.03C1229.72,-361.23 1206.65,-177.65 1166,-134.04 1108.38,-72.22 1068.5,-79.04 984,-79.04 714,-79.04 714,-79.04 714,-79.04 522.7,-79.04 477.92,-130.37 304,-210.04 259.93,-230.23 249.28,-237.29 211,-267.04 193.38,-280.73 191.03,-286.51 175,-302.04 170.07,-306.81 164.81,-311.89 159.74,-316.77"/>
<polygon fill="black" stroke="black" stroke-width="1.2" points="1233.76,-432.42 1238.27,-442 1240.72,-431.7 1233.76,-432.42"/>
<polygon fill="black" stroke="black" stroke-width="1.2" points="157.29,-314.27 152.52,-323.73 162.15,-319.31 157.29,-314.27"/>
</g>
<!-- vibration&#45;&gt;fail_comp3 -->
<g id="edge30" class="edge">
<title>vibration&#45;&gt;fail_comp3</title>
<path fill="none" stroke="black" stroke-width="1.2" d="M1201.68,-458.59C1107.06,-454.35 865.33,-439.37 800,-395.04 774.9,-378 788.88,-354.41 764,-337.04 744.29,-323.27 685.19,-312.84 640.24,-306.61"/>
<polygon fill="black" stroke="black" stroke-width="1.2" points="640.69,-303.14 630.31,-305.27 639.75,-310.08 640.69,-303.14"/>
</g>
<!-- fail_comp4 -->
<g id="node16" class="node">
<title>fail_comp4</title>
<path fill="white" stroke="black" d="M749,-295.04C749,-295.04 681,-295.04 681,-295.04 675,-295.04 669,-289.04 669,-283.04 669,-283.04 669,-271.04 669,-271.04 669,-265.04 675,-259.04 681,-259.04 681,-259.04 749,-259.04 749,-259.04 755,-259.04 761,-265.04 761,-271.04 761,-271.04 761,-283.04 761,-283.04 761,-289.04 755,-295.04 749,-295.04"/>
<text text-anchor="middle" x="715" y="-273.34" font-family="Helvetica,sans-Serif" font-size="14.00">fail_comp4</text>
</g>
<!-- vibration&#45;&gt;fail_comp4 -->
<g id="edge31" class="edge">
<title>vibration&#45;&gt;fail_comp4</title>
<path fill="none" stroke="black" stroke-width="1.2" d="M1199.72,-437.21C1189.03,-431.9 1177.3,-426.73 1166,-423.04 1009.17,-371.81 939.21,-449.58 800,-361.04 776.28,-345.95 784.05,-328.74 764,-309.04 761.31,-306.39 758.36,-303.83 755.3,-301.38"/>
<polygon fill="black" stroke="black" stroke-width="1.2" points="1198.33,-440.42 1208.82,-441.87 1201.52,-434.2 1198.33,-440.42"/>
<polygon fill="black" stroke="black" stroke-width="1.2" points="757.13,-298.38 747.03,-295.21 752.95,-303.99 757.13,-298.38"/>
</g>
<!-- err_error1 -->
<g id="node5" class="node">
<title>err_error1</title>
<path fill="white" stroke="black" d="M1147.5,-371.04C1147.5,-371.04 1086.5,-371.04 1086.5,-371.04 1080.5,-371.04 1074.5,-365.04 1074.5,-359.04 1074.5,-359.04 1074.5,-347.04 1074.5,-347.04 1074.5,-341.04 1080.5,-335.04 1086.5,-335.04 1086.5,-335.04 1147.5,-335.04 1147.5,-335.04 1153.5,-335.04 1159.5,-341.04 1159.5,-347.04 1159.5,-347.04 1159.5,-359.04 1159.5,-359.04 1159.5,-365.04 1153.5,-371.04 1147.5,-371.04"/>
<text text-anchor="middle" x="1117" y="-349.34" font-family="Helvetica,sans-Serif" font-size="14.00">err_error1</text>
</g>
<!-- err_error1&#45;&gt;volt -->
<g id="edge3" class="edge">
<title>err_error1&#45;&gt;volt</title>
<path fill="none" stroke="black" stroke-width="1.2" d="M1097.5,-371.27C1062.13,-404.94 981.02,-476.47 898,-510.04 686.07,-595.73 617.01,-567.55 389,-584.04 254.83,-593.74 188.93,-628.19 90,-537.04 60.03,-509.42 43.09,-464.27 34.74,-435.11"/>
<polygon fill="black" stroke="black" stroke-width="1.2" points="38.03,-433.89 32.04,-425.16 31.28,-435.72 38.03,-433.89"/>
</g>
<!-- err_error1&#45;&gt;vibration -->
<g id="edge24" class="edge">
<title>err_error1&#45;&gt;vibration</title>
<path fill="none" stroke="black" stroke-width="1.2" d="M1147.11,-371.06C1153.51,-375.4 1160.13,-380.19 1166,-385.04 1184.38,-400.21 1203.22,-419.36 1217.29,-434.52"/>
<polygon fill="black" stroke="black" stroke-width="1.2" points="1214.85,-437.03 1224.18,-442.03 1220,-432.3 1214.85,-437.03"/>
</g>
<!-- err_error2 -->
<g id="node6" class="node">
<title>err_error2</title>
<path fill="white" stroke="black" d="M879.5,-501.04C879.5,-501.04 818.5,-501.04 818.5,-501.04 812.5,-501.04 806.5,-495.04 806.5,-489.04 806.5,-489.04 806.5,-477.04 806.5,-477.04 806.5,-471.04 812.5,-465.04 818.5,-465.04 818.5,-465.04 879.5,-465.04 879.5,-465.04 885.5,-465.04 891.5,-471.04 891.5,-477.04 891.5,-477.04 891.5,-489.04 891.5,-489.04 891.5,-495.04 885.5,-501.04 879.5,-501.04"/>
<text text-anchor="middle" x="849" y="-479.34" font-family="Helvetica,sans-Serif" font-size="14.00">err_error2</text>
</g>
<!-- err_error2&#45;&gt;volt -->
<g id="edge4" class="edge">
<title>err_error2&#45;&gt;volt</title>
<path fill="none" stroke="black" stroke-width="1.2" d="M806.31,-490.38C687.17,-511.35 353.29,-570.04 347.5,-570.04 238.5,-570.04 238.5,-570.04 238.5,-570.04 150.35,-570.04 76.72,-479.58 44.89,-433.44"/>
<polygon fill="black" stroke="black" stroke-width="1.2" points="47.76,-431.43 39.27,-425.1 41.96,-435.35 47.76,-431.43"/>
</g>
<!-- err_error2&#45;&gt;vibration -->
<g id="edge25" class="edge">
<title>err_error2&#45;&gt;vibration</title>
<path fill="none" stroke="black" stroke-width="1.2" d="M891.74,-480.57C964.46,-476.29 1114.02,-467.47 1191.33,-462.91"/>
<polygon fill="black" stroke="black" stroke-width="1.2" points="1191.97,-466.37 1201.74,-462.29 1191.56,-459.39 1191.97,-466.37"/>
</g>
<!-- err_error3&#45;&gt;pressure -->
<g id="edge19" class="edge">
<title>err_error3&#45;&gt;pressure</title>
<path fill="none" stroke="black" stroke-width="1.2" d="M363.01,-369.96C382.9,-346.79 417.53,-306.43 440.24,-279.98"/>
<polygon fill="black" stroke="black" stroke-width="1.2" points="443.01,-282.12 446.87,-272.25 437.7,-277.56 443.01,-282.12"/>
</g>
<!-- err_error3&#45;&gt;err_error2 -->
<g id="edge34" class="edge">
<title>err_error3&#45;&gt;err_error2</title>
<path fill="none" stroke="black" stroke-width="1.2" d="M389.31,-395.97C480.42,-413.26 696.63,-454.3 796.19,-473.2"/>
<polygon fill="black" stroke="black" stroke-width="1.2" points="795.83,-476.7 806.31,-475.12 797.14,-469.82 795.83,-476.7"/>
</g>
<!-- err_error4&#45;&gt;volt -->
<g id="edge5" class="edge">
<title>err_error4&#45;&gt;volt</title>
<path fill="none" stroke="black" stroke-width="1.2" d="M1354.02,-547.84C1335,-450.97 1239.9,-0.04 1118,-0.04 238.5,-0.04 238.5,-0.04 238.5,-0.04 168.42,-0.04 135.18,0.53 90,-53.04 48.3,-102.47 33.48,-303.98 29.35,-378.85"/>
<polygon fill="black" stroke="black" stroke-width="1.2" points="25.85,-378.77 28.82,-388.94 32.84,-379.14 25.85,-378.77"/>
</g>
<!-- err_error5&#45;&gt;rotate -->
<g id="edge15" class="edge">
<title>err_error5&#45;&gt;rotate</title>
<path fill="none" stroke="black" stroke-width="1.2" d="M175.3,-342.04C183.66,-342.04 192.41,-342.04 200.63,-342.04"/>
<polygon fill="black" stroke="black" stroke-width="1.2" points="200.7,-345.54 210.7,-342.04 200.7,-338.54 200.7,-345.54"/>
</g>
<!-- err_error5&#45;&gt;err_error4 -->
<g id="edge37" class="edge">
<title>err_error5&#45;&gt;err_error4</title>
<path fill="none" stroke="black" stroke-width="1.2" d="M140.44,-360.42C168.55,-431.46 281.25,-684.04 462.5,-684.04 462.5,-684.04 462.5,-684.04 1118,-684.04 1193.48,-684.04 1214.08,-669.81 1280,-633.04 1299.66,-622.07 1318.82,-605.57 1333.17,-591.69"/>
<polygon fill="black" stroke="black" stroke-width="1.2" points="1335.99,-593.82 1340.62,-584.3 1331.06,-588.85 1335.99,-593.82"/>
</g>
<!-- mnt_comp1 -->
<g id="node10" class="node">
<title>mnt_comp1</title>
<path fill="white" stroke="black" d="M1154,-230.04C1154,-230.04 1080,-230.04 1080,-230.04 1074,-230.04 1068,-224.04 1068,-218.04 1068,-218.04 1068,-206.04 1068,-206.04 1068,-200.04 1074,-194.04 1080,-194.04 1080,-194.04 1154,-194.04 1154,-194.04 1160,-194.04 1166,-200.04 1166,-206.04 1166,-206.04 1166,-218.04 1166,-218.04 1166,-224.04 1160,-230.04 1154,-230.04"/>
<text text-anchor="middle" x="1117" y="-208.34" font-family="Helvetica,sans-Serif" font-size="14.00">mnt_comp1</text>
</g>
<!-- mnt_comp1&#45;&gt;volt -->
<g id="edge7" class="edge">
<title>mnt_comp1&#45;&gt;volt</title>
<path fill="none" stroke="black" stroke-width="1.2" d="M1101.74,-193.74C1065.15,-149.07 962.85,-38.04 850,-38.04 238.5,-38.04 238.5,-38.04 238.5,-38.04 81.66,-38.04 40.14,-292.66 30.57,-378.88"/>
<polygon fill="black" stroke="black" stroke-width="1.2" points="27.07,-378.68 29.51,-388.99 34.04,-379.41 27.07,-378.68"/>
</g>
<!-- mnt_comp2&#45;&gt;err_error1 -->
<g id="edge32" class="edge">
<title>mnt_comp2&#45;&gt;err_error1</title>
<path fill="none" stroke="black" stroke-width="1.2" d="M1003.48,-249.04C1026.09,-269.94 1063.54,-304.55 1088.97,-328.05"/>
<polygon fill="black" stroke="black" stroke-width="1.2" points="1086.72,-330.74 1096.44,-334.96 1091.47,-325.6 1086.72,-330.74"/>
</g>
<!-- mnt_comp2&#45;&gt;mnt_comp1 -->
<g id="edge38" class="edge">
<title>mnt_comp2&#45;&gt;mnt_comp1</title>
<path fill="none" stroke="black" stroke-width="1.2" d="M1032.03,-224.12C1040.4,-222.92 1049.19,-221.65 1057.8,-220.41"/>
<polygon fill="black" stroke="black" stroke-width="1.2" points="1058.39,-223.86 1067.79,-218.98 1057.39,-216.94 1058.39,-223.86"/>
</g>
<!-- mnt_comp3 -->
<g id="node12" class="node">
<title>mnt_comp3</title>
<path fill="white" stroke="black" d="M752,-425.04C752,-425.04 678,-425.04 678,-425.04 672,-425.04 666,-419.04 666,-413.04 666,-413.04 666,-401.04 666,-401.04 666,-395.04 672,-389.04 678,-389.04 678,-389.04 752,-389.04 752,-389.04 758,-389.04 764,-395.04 764,-401.04 764,-401.04 764,-413.04 764,-413.04 764,-419.04 758,-425.04 752,-425.04"/>
<text text-anchor="middle" x="715" y="-403.34" font-family="Helvetica,sans-Serif" font-size="14.00">mnt_comp3</text>
</g>
<!-- mnt_comp3&#45;&gt;volt -->
<g id="edge8" class="edge">
<title>mnt_comp3&#45;&gt;volt</title>
<path fill="none" stroke="black" stroke-width="1.2" d="M665.87,-414.03C576.42,-426.27 378.42,-449.87 211,-445.04 157.15,-443.48 142.05,-451.92 90,-438.04 80.95,-435.62 71.67,-431.81 63.14,-427.67"/>
<polygon fill="black" stroke="black" stroke-width="1.2" points="64.72,-424.55 54.22,-423.11 61.53,-430.78 64.72,-424.55"/>
</g>
<!-- mnt_comp3&#45;&gt;rotate -->
<g id="edge16" class="edge">
<title>mnt_comp3&#45;&gt;rotate</title>
<path fill="none" stroke="black" stroke-width="1.2" d="M665.64,-396.38C653.99,-393.9 641.56,-391.31 630,-389.04 573.29,-377.87 559.28,-373.8 502,-366.04 422.71,-355.29 329.22,-348 278.28,-344.48"/>
<polygon fill="black" stroke="black" stroke-width="1.2" points="278.29,-340.97 268.07,-343.78 277.81,-347.95 278.29,-340.97"/>
</g>
<!-- mnt_comp4 -->
<g id="node13" class="node">
<title>mnt_comp4</title>
<path fill="white" stroke="black" d="M886,-333.04C886,-333.04 812,-333.04 812,-333.04 806,-333.04 800,-327.04 800,-321.04 800,-321.04 800,-309.04 800,-309.04 800,-303.04 806,-297.04 812,-297.04 812,-297.04 886,-297.04 886,-297.04 892,-297.04 898,-303.04 898,-309.04 898,-309.04 898,-321.04 898,-321.04 898,-327.04 892,-333.04 886,-333.04"/>
<text text-anchor="middle" x="849" y="-311.34" font-family="Helvetica,sans-Serif" font-size="14.00">mnt_comp4</text>
</g>
<!-- mnt_comp4&#45;&gt;err_error1 -->
<g id="edge33" class="edge">
<title>mnt_comp4&#45;&gt;err_error1</title>
<path fill="none" stroke="black" stroke-width="1.2" d="M898.17,-321.92C945.04,-328.61 1016.02,-338.75 1064.11,-345.62"/>
<polygon fill="black" stroke="black" stroke-width="1.2" points="1063.92,-349.13 1074.31,-347.08 1064.91,-342.2 1063.92,-349.13"/>
</g>
<!-- mnt_comp4&#45;&gt;mnt_comp2 -->
<g id="edge41" class="edge">
<title>mnt_comp4&#45;&gt;mnt_comp2</title>
<path fill="none" stroke="black" stroke-width="1.2" d="M878.32,-297.02C897.67,-284.7 923.53,-268.24 944.58,-254.85"/>
<polygon fill="black" stroke="black" stroke-width="1.2" points="946.72,-257.64 953.27,-249.32 942.96,-251.73 946.72,-257.64"/>
</g>
<!-- fail_comp2&#45;&gt;volt -->
<g id="edge9" class="edge">
<title>fail_comp2&#45;&gt;volt</title>
<path fill="none" stroke="black" stroke-width="1.2" d="M802.93,-138.58C674.24,-117.23 300.86,-74.97 90,-257.04 53.53,-288.53 38.12,-344.87 31.91,-378.82"/>
<polygon fill="black" stroke="black" stroke-width="1.2" points="28.4,-378.55 30.2,-388.99 35.3,-379.71 28.4,-378.55"/>
</g>
<!-- fail_comp2&#45;&gt;vibration -->
<g id="edge29" class="edge">
<title>fail_comp2&#45;&gt;vibration</title>
<path fill="none" stroke="black" stroke-width="1.2" d="M895.19,-137.88C963.02,-126.98 1091.17,-117.84 1166,-185.04 1202.95,-218.21 1227.48,-368.65 1236.32,-431.89"/>
<polygon fill="black" stroke="black" stroke-width="1.2" points="1232.88,-432.52 1237.7,-441.95 1239.81,-431.57 1232.88,-432.52"/>
</g>
<!-- fail_comp2&#45;&gt;mnt_comp1 -->
<g id="edge39" class="edge">
<title>fail_comp2&#45;&gt;mnt_comp1</title>
<path fill="none" stroke="black" stroke-width="1.2" d="M895.12,-158.06C940.05,-169.04 1009.2,-185.94 1058.14,-197.9"/>
<polygon fill="black" stroke="black" stroke-width="1.2" points="1057.41,-201.32 1067.95,-200.3 1059.07,-194.52 1057.41,-201.32"/>
</g>
<!-- fail_comp2&#45;&gt;mnt_comp2 -->
<g id="edge42" class="edge">
<title>fail_comp2&#45;&gt;mnt_comp2</title>
<path fill="none" stroke="black" stroke-width="1.2" d="M878.32,-165.06C897.67,-177.37 923.53,-193.83 944.58,-207.22"/>
<polygon fill="black" stroke="black" stroke-width="1.2" points="942.96,-210.34 953.27,-212.76 946.72,-204.43 942.96,-210.34"/>
</g>
<!-- fail_comp3&#45;&gt;volt -->
<g id="edge10" class="edge">
<title>fail_comp3&#45;&gt;volt</title>
<path fill="none" stroke="black" stroke-width="1.2" d="M561.53,-318.13C527.54,-345.47 458.1,-396.09 389,-415.04 273.65,-446.66 129.72,-426.7 63.88,-414.48"/>
<polygon fill="black" stroke="black" stroke-width="1.2" points="64.48,-411.03 54,-412.6 63.17,-417.91 64.48,-411.03"/>
</g>
<!-- fail_comp3&#45;&gt;err_error2 -->
<g id="edge35" class="edge">
<title>fail_comp3&#45;&gt;err_error2</title>
<path fill="none" stroke="black" stroke-width="1.2" d="M624.5,-318.22C637.68,-324.25 652.45,-330.97 666,-337.04 709.41,-356.47 729.44,-347.35 764,-380.04 789.71,-404.35 776.51,-424.58 800,-451.04 802.33,-453.66 804.92,-456.17 807.66,-458.54"/>
<polygon fill="black" stroke="black" stroke-width="1.2" points="805.65,-461.41 815.68,-464.85 809.99,-455.91 805.65,-461.41"/>
</g>
<!-- fail_comp3&#45;&gt;mnt_comp2 -->
<g id="edge43" class="edge">
<title>fail_comp3&#45;&gt;mnt_comp2</title>
<path fill="none" stroke="black" stroke-width="1.2" d="M607.58,-281.85C623.05,-270.51 644.57,-256.82 666,-250.04 752.67,-222.6 859.26,-222.69 923.84,-226.18"/>
<polygon fill="black" stroke="black" stroke-width="1.2" points="923.65,-229.68 933.84,-226.77 924.06,-222.69 923.65,-229.68"/>
</g>
<!-- fail_comp3&#45;&gt;mnt_comp3 -->
<g id="edge45" class="edge">
<title>fail_comp3&#45;&gt;mnt_comp3</title>
<path fill="none" stroke="black" stroke-width="1.2" d="M612.99,-318.26C618.83,-322.52 624.79,-327.22 630,-332.04 648.31,-348.95 647.44,-358.4 666,-375.04 669.1,-377.82 672.47,-380.54 675.92,-383.15"/>
<polygon fill="black" stroke="black" stroke-width="1.2" points="673.92,-386.02 684.08,-389.01 678,-380.34 673.92,-386.02"/>
</g>
<!-- fail_comp3&#45;&gt;fail_comp4 -->
<g id="edge47" class="edge">
<title>fail_comp3&#45;&gt;fail_comp4</title>
<path fill="none" stroke="black" stroke-width="1.2" d="M630.12,-291.99C639.39,-290.34 649.26,-288.58 658.84,-286.87"/>
<polygon fill="black" stroke="black" stroke-width="1.2" points="659.46,-290.32 668.69,-285.11 658.23,-283.42 659.46,-290.32"/>
</g>
<!-- fail_comp4&#45;&gt;pressure -->
<g id="edge23" class="edge">
<title>fail_comp4&#45;&gt;pressure</title>
<path fill="none" stroke="black" stroke-width="1.2" d="M668.88,-272.88C624.62,-268.8 557.39,-262.6 512.25,-258.44"/>
<polygon fill="black" stroke="black" stroke-width="1.2" points="512.4,-254.94 502.12,-257.5 511.76,-261.91 512.4,-254.94"/>
</g>
<!-- fail_comp4&#45;&gt;err_error2 -->
<g id="edge36" class="edge">
<title>fail_comp4&#45;&gt;err_error2</title>
<path fill="none" stroke="black" stroke-width="1.2" d="M729.15,-295.12C739.1,-309.06 752.91,-328.95 764,-347.04 781.47,-375.52 782.53,-384.55 800,-413.04 809.01,-427.73 819.82,-443.62 828.89,-456.53"/>
<polygon fill="black" stroke="black" stroke-width="1.2" points="826.21,-458.81 834.85,-464.95 831.92,-454.77 826.21,-458.81"/>
</g>
<!-- fail_comp4&#45;&gt;mnt_comp1 -->
<g id="edge40" class="edge">
<title>fail_comp4&#45;&gt;mnt_comp1</title>
<path fill="none" stroke="black" stroke-width="1.2" d="M744.68,-295.11C751.17,-299.49 757.93,-304.28 764,-309.04 781.08,-322.43 779.77,-334.17 800,-342.04 840.59,-357.83 856.01,-353.61 898,-342.04 972.37,-321.55 1046.96,-268.29 1086.7,-236.66"/>
<polygon fill="black" stroke="black" stroke-width="1.2" points="1089.05,-239.27 1094.64,-230.26 1084.66,-233.82 1089.05,-239.27"/>
</g>
<!-- fail_comp4&#45;&gt;mnt_comp2 -->
<g id="edge44" class="edge">
<title>fail_comp4&#45;&gt;mnt_comp2</title>
<path fill="none" stroke="black" stroke-width="1.2" d="M761.12,-269.23C805.96,-261.48 874.91,-249.55 923.83,-241.09"/>
<polygon fill="black" stroke="black" stroke-width="1.2" points="924.7,-244.5 933.95,-239.34 923.5,-237.6 924.7,-244.5"/>
</g>
<!-- fail_comp4&#45;&gt;mnt_comp4 -->
<g id="edge46" class="edge">
<title>fail_comp4&#45;&gt;mnt_comp4</title>
<path fill="none" stroke="black" stroke-width="1.2" d="M761.06,-290.01C770.47,-292.72 780.51,-295.61 790.31,-298.43"/>
<polygon fill="black" stroke="black" stroke-width="1.2" points="789.41,-301.81 799.99,-301.21 791.35,-295.08 789.41,-301.81"/>
</g>
</g>
</svg>
