<?xml version="1.0" encoding="UTF-8" standalone="no"?>
<!DOCTYPE svg PUBLIC "-//W3C//DTD SVG 1.1//EN"
 "http://www.w3.org/Graphics/SVG/1.1/DTD/svg11.dtd">
<!-- Generated by graphviz version 2.50.0 (0)
 -->
<!-- Title: G Pages: 1 -->
<svg width="1068pt" height="685pt"
 viewBox="0.00 0.00 1068.00 685.00" xmlns="http://www.w3.org/2000/svg" xmlns:xlink="http://www.w3.org/1999/xlink">
<g id="graph0" class="graph" transform="scale(1 1) rotate(0) translate(4 681)">
<title>G</title>
<polygon fill="white" stroke="transparent" points="-4,4 -4,-681 1064,-681 1064,4 -4,4"/>
<text text-anchor="middle" x="530" y="-660.2" font-family="Times,serif" font-size="16.00">model=model3/nbcb_w_mixed.json [machine 5]</text>
<!-- volt -->
<g id="node1" class="node">
<title>volt</title>
<path fill="white" stroke="black" d="M42,-561C42,-561 12,-561 12,-561 6,-561 0,-555 0,-549 0,-549 0,-537 0,-537 0,-531 6,-525 12,-525 12,-525 42,-525 42,-525 48,-525 54,-531 54,-537 54,-537 54,-549 54,-549 54,-555 48,-561 42,-561"/>
<text text-anchor="middle" x="27" y="-539.3" font-family="Helvetica,sans-Serif" font-size="14.00">volt</text>
</g>
<!-- err_error1 -->
<g id="node5" class="node">
<title>err_error1</title>
<path fill="white" stroke="black" d="M418,-623C418,-623 357,-623 357,-623 351,-623 345,-617 345,-611 345,-611 345,-599 345,-599 345,-593 351,-587 357,-587 357,-587 418,-587 418,-587 424,-587 430,-593 430,-599 430,-599 430,-611 430,-611 430,-617 424,-623 418,-623"/>
<text text-anchor="middle" x="387.5" y="-601.3" font-family="Helvetica,sans-Serif" font-size="14.00">err_error1</text>
</g>
<!-- volt&#45;&gt;err_error1 -->
<g id="edge2" class="edge">
<title>volt&#45;&gt;err_error1</title>
<path fill="none" stroke="black" stroke-width="1.2" d="M54.06,-558.08C64.85,-563.66 77.7,-569.48 90,-573 173.34,-596.88 274.51,-603.21 334.53,-604.74"/>
<polygon fill="black" stroke="black" stroke-width="1.2" points="334.81,-608.24 344.88,-604.96 334.96,-601.24 334.81,-608.24"/>
</g>
<!-- err_error2 -->
<g id="node6" class="node">
<title>err_error2</title>
<path fill="white" stroke="black" d="M163,-173C163,-173 102,-173 102,-173 96,-173 90,-167 90,-161 90,-161 90,-149 90,-149 90,-143 96,-137 102,-137 102,-137 163,-137 163,-137 169,-137 175,-143 175,-149 175,-149 175,-161 175,-161 175,-167 169,-173 163,-173"/>
<text text-anchor="middle" x="132.5" y="-151.3" font-family="Helvetica,sans-Serif" font-size="14.00">err_error2</text>
</g>
<!-- volt&#45;&gt;err_error2 -->
<g id="edge3" class="edge">
<title>volt&#45;&gt;err_error2</title>
<path fill="none" stroke="black" stroke-width="1.2" d="M32.85,-524.81C49.46,-462.56 104.07,-257.84 124.07,-182.85"/>
<polygon fill="black" stroke="black" stroke-width="1.2" points="127.46,-183.72 126.66,-173.15 120.7,-181.91 127.46,-183.72"/>
</g>
<!-- err_error4 -->
<g id="node8" class="node">
<title>err_error4</title>
<path fill="white" stroke="black" d="M539,-36C539,-36 478,-36 478,-36 472,-36 466,-30 466,-24 466,-24 466,-12 466,-12 466,-6 472,0 478,0 478,0 539,0 539,0 545,0 551,-6 551,-12 551,-12 551,-24 551,-24 551,-30 545,-36 539,-36"/>
<text text-anchor="middle" x="508.5" y="-14.3" font-family="Helvetica,sans-Serif" font-size="14.00">err_error4</text>
</g>
<!-- volt&#45;&gt;err_error4 -->
<g id="edge4" class="edge">
<title>volt&#45;&gt;err_error4</title>
<path fill="none" stroke="black" stroke-width="1.2" d="M28.89,-524.77C32.63,-453.82 48.82,-196.74 90,-128 163.8,-4.82 360.94,-4.4 455.5,-11.99"/>
<polygon fill="black" stroke="black" stroke-width="1.2" points="455.42,-15.5 465.69,-12.87 456.03,-8.52 455.42,-15.5"/>
</g>
<!-- err_error5 -->
<g id="node9" class="node">
<title>err_error5</title>
<path fill="white" stroke="black" d="M290.5,-470C290.5,-470 229.5,-470 229.5,-470 223.5,-470 217.5,-464 217.5,-458 217.5,-458 217.5,-446 217.5,-446 217.5,-440 223.5,-434 229.5,-434 229.5,-434 290.5,-434 290.5,-434 296.5,-434 302.5,-440 302.5,-446 302.5,-446 302.5,-458 302.5,-458 302.5,-464 296.5,-470 290.5,-470"/>
<text text-anchor="middle" x="260" y="-448.3" font-family="Helvetica,sans-Serif" font-size="14.00">err_error5</text>
</g>
<!-- volt&#45;&gt;err_error5 -->
<g id="edge5" class="edge">
<title>volt&#45;&gt;err_error5</title>
<path fill="none" stroke="black" stroke-width="1.2" d="M54.05,-532.74C91.25,-518.08 160.35,-490.86 207.96,-472.11"/>
<polygon fill="black" stroke="black" stroke-width="1.2" points="209.45,-475.28 217.47,-468.36 206.89,-468.77 209.45,-475.28"/>
</g>
<!-- mnt_comp4 -->
<g id="node13" class="node">
<title>mnt_comp4</title>
<path fill="white" stroke="black" d="M935,-500C935,-500 861,-500 861,-500 855,-500 849,-494 849,-488 849,-488 849,-476 849,-476 849,-470 855,-464 861,-464 861,-464 935,-464 935,-464 941,-464 947,-470 947,-476 947,-476 947,-488 947,-488 947,-494 941,-500 935,-500"/>
<text text-anchor="middle" x="898" y="-478.3" font-family="Helvetica,sans-Serif" font-size="14.00">mnt_comp4</text>
</g>
<!-- volt&#45;&gt;mnt_comp4 -->
<g id="edge6" class="edge">
<title>volt&#45;&gt;mnt_comp4</title>
<path fill="none" stroke="black" stroke-width="1.2" d="M54.18,-545.6C142.56,-553.85 437.77,-577.27 679,-548 739.89,-540.61 754.55,-533.59 813,-515 823.4,-511.69 834.37,-507.74 844.81,-503.74"/>
<polygon fill="black" stroke="black" stroke-width="1.2" points="846.18,-506.96 854.23,-500.07 843.64,-500.44 846.18,-506.96"/>
</g>
<!-- rotate -->
<g id="node2" class="node">
<title>rotate</title>
<path fill="white" stroke="black" d="M525,-409C525,-409 492,-409 492,-409 486,-409 480,-403 480,-397 480,-397 480,-385 480,-385 480,-379 486,-373 492,-373 492,-373 525,-373 525,-373 531,-373 537,-379 537,-385 537,-385 537,-397 537,-397 537,-403 531,-409 525,-409"/>
<text text-anchor="middle" x="508.5" y="-387.3" font-family="Helvetica,sans-Serif" font-size="14.00">rotate</text>
</g>
<!-- rotate&#45;&gt;err_error2 -->
<g id="edge8" class="edge">
<title>rotate&#45;&gt;err_error2</title>
<path fill="none" stroke="black" stroke-width="1.2" d="M479.74,-384.57C446.3,-376.1 389.11,-359.25 345,-334 269.39,-290.72 194.9,-219.08 157.79,-180.88"/>
<polygon fill="black" stroke="black" stroke-width="1.2" points="159.91,-178.03 150.46,-173.25 154.87,-182.89 159.91,-178.03"/>
</g>
<!-- fail_comp1 -->
<g id="node14" class="node">
<title>fail_comp1</title>
<path fill="white" stroke="black" d="M667,-539C667,-539 599,-539 599,-539 593,-539 587,-533 587,-527 587,-527 587,-515 587,-515 587,-509 593,-503 599,-503 599,-503 667,-503 667,-503 673,-503 679,-509 679,-515 679,-515 679,-527 679,-527 679,-533 673,-539 667,-539"/>
<text text-anchor="middle" x="633" y="-517.3" font-family="Helvetica,sans-Serif" font-size="14.00">fail_comp1</text>
</g>
<!-- rotate&#45;&gt;fail_comp1 -->
<g id="edge12" class="edge">
<title>rotate&#45;&gt;fail_comp1</title>
<path fill="none" stroke="black" stroke-width="1.2" d="M526.53,-409.08C547.62,-431.46 583.69,-469.73 607.69,-495.2"/>
<polygon fill="black" stroke="black" stroke-width="1.2" points="605.31,-497.78 614.72,-502.66 610.41,-492.98 605.31,-497.78"/>
</g>
<!-- fail_comp2 -->
<g id="node15" class="node">
<title>fail_comp2</title>
<path fill="white" stroke="black" d="M667,-333C667,-333 599,-333 599,-333 593,-333 587,-327 587,-321 587,-321 587,-309 587,-309 587,-303 593,-297 599,-297 599,-297 667,-297 667,-297 673,-297 679,-303 679,-309 679,-309 679,-321 679,-321 679,-327 673,-333 667,-333"/>
<text text-anchor="middle" x="633" y="-311.3" font-family="Helvetica,sans-Serif" font-size="14.00">fail_comp2</text>
</g>
<!-- rotate&#45;&gt;fail_comp2 -->
<g id="edge13" class="edge">
<title>rotate&#45;&gt;fail_comp2</title>
<path fill="none" stroke="black" stroke-width="1.2" d="M537.3,-373.75C554.04,-363.37 575.59,-349.99 593.91,-338.63"/>
<polygon fill="black" stroke="black" stroke-width="1.2" points="595.95,-341.48 602.6,-333.24 592.26,-335.53 595.95,-341.48"/>
</g>
<!-- pressure -->
<g id="node3" class="node">
<title>pressure</title>
<path fill="white" stroke="black" d="M1048,-546C1048,-546 995,-546 995,-546 989,-546 983,-540 983,-534 983,-534 983,-522 983,-522 983,-516 989,-510 995,-510 995,-510 1048,-510 1048,-510 1054,-510 1060,-516 1060,-522 1060,-522 1060,-534 1060,-534 1060,-540 1054,-546 1048,-546"/>
<text text-anchor="middle" x="1021.5" y="-524.3" font-family="Helvetica,sans-Serif" font-size="14.00">pressure</text>
</g>
<!-- pressure&#45;&gt;volt -->
<g id="edge1" class="edge">
<title>pressure&#45;&gt;volt</title>
<path fill="none" stroke="black" stroke-width="1.2" d="M1004.28,-546.01C990.35,-560.51 969.07,-580.47 947,-593 873.17,-634.91 849.9,-651 765,-651 259,-651 259,-651 259,-651 179.87,-651 159.1,-633.55 90,-595 77,-587.75 64.13,-577.58 53.52,-568.17"/>
<polygon fill="black" stroke="black" stroke-width="1.2" points="55.62,-565.34 45.88,-561.17 50.9,-570.51 55.62,-565.34"/>
</g>
<!-- vibration -->
<g id="node4" class="node">
<title>vibration</title>
<path fill="white" stroke="black" d="M414.5,-325C414.5,-325 360.5,-325 360.5,-325 354.5,-325 348.5,-319 348.5,-313 348.5,-313 348.5,-301 348.5,-301 348.5,-295 354.5,-289 360.5,-289 360.5,-289 414.5,-289 414.5,-289 420.5,-289 426.5,-295 426.5,-301 426.5,-301 426.5,-313 426.5,-313 426.5,-319 420.5,-325 414.5,-325"/>
<text text-anchor="middle" x="387.5" y="-303.3" font-family="Helvetica,sans-Serif" font-size="14.00">vibration</text>
</g>
<!-- vibration&#45;&gt;rotate -->
<g id="edge7" class="edge">
<title>vibration&#45;&gt;rotate</title>
<path fill="none" stroke="black" stroke-width="1.2" d="M414.03,-325.02C431.32,-337.23 454.37,-353.5 473.26,-366.83"/>
<polygon fill="black" stroke="black" stroke-width="1.2" points="471.42,-369.81 481.6,-372.72 475.45,-364.09 471.42,-369.81"/>
</g>
<!-- vibration&#45;&gt;err_error4 -->
<g id="edge18" class="edge">
<title>vibration&#45;&gt;err_error4</title>
<path fill="none" stroke="black" stroke-width="1.2" d="M395.94,-288.92C416.15,-239.86 472.1,-103.98 496.21,-45.42"/>
<polygon fill="black" stroke="black" stroke-width="1.2" points="499.49,-46.65 500.06,-36.07 493.01,-43.99 499.49,-46.65"/>
</g>
<!-- mnt_comp2 -->
<g id="node11" class="node">
<title>mnt_comp2</title>
<path fill="white" stroke="black" d="M801,-333C801,-333 727,-333 727,-333 721,-333 715,-327 715,-321 715,-321 715,-309 715,-309 715,-303 721,-297 727,-297 727,-297 801,-297 801,-297 807,-297 813,-303 813,-309 813,-309 813,-321 813,-321 813,-327 807,-333 801,-333"/>
<text text-anchor="middle" x="764" y="-311.3" font-family="Helvetica,sans-Serif" font-size="14.00">mnt_comp2</text>
</g>
<!-- vibration&#45;&gt;mnt_comp2 -->
<g id="edge21" class="edge">
<title>vibration&#45;&gt;mnt_comp2</title>
<path fill="none" stroke="black" stroke-width="1.2" d="M426.81,-299.16C482.61,-288.94 589.37,-273.95 679,-288 687.8,-289.38 696.93,-291.52 705.79,-294.02"/>
<polygon fill="black" stroke="black" stroke-width="1.2" points="705.07,-297.45 715.65,-296.95 707.07,-290.74 705.07,-297.45"/>
</g>
<!-- vibration&#45;&gt;fail_comp2 -->
<g id="edge23" class="edge">
<title>vibration&#45;&gt;fail_comp2</title>
<path fill="none" stroke="black" stroke-width="1.2" d="M436.63,-308.58C476.93,-309.91 534.47,-311.8 576.66,-313.18"/>
<polygon fill="black" stroke="black" stroke-width="1.2" points="436.66,-305.08 426.55,-308.25 436.43,-312.08 436.66,-305.08"/>
<polygon fill="black" stroke="black" stroke-width="1.2" points="576.66,-316.68 586.77,-313.51 576.89,-309.69 576.66,-316.68"/>
</g>
<!-- err_error1&#45;&gt;pressure -->
<g id="edge14" class="edge">
<title>err_error1&#45;&gt;pressure</title>
<path fill="none" stroke="black" stroke-width="1.2" d="M430.29,-605C478.8,-605 561.19,-605 632,-605 632,-605 632,-605 765,-605 841.38,-605 925.36,-573.06 975.46,-550.32"/>
<polygon fill="black" stroke="black" stroke-width="1.2" points="977.1,-553.42 984.72,-546.05 974.17,-547.07 977.1,-553.42"/>
</g>
<!-- mnt_comp3 -->
<g id="node12" class="node">
<title>mnt_comp3</title>
<path fill="white" stroke="black" d="M297,-127C297,-127 223,-127 223,-127 217,-127 211,-121 211,-115 211,-115 211,-103 211,-103 211,-97 217,-91 223,-91 223,-91 297,-91 297,-91 303,-91 309,-97 309,-103 309,-103 309,-115 309,-115 309,-121 303,-127 297,-127"/>
<text text-anchor="middle" x="260" y="-105.3" font-family="Helvetica,sans-Serif" font-size="14.00">mnt_comp3</text>
</g>
<!-- err_error2&#45;&gt;mnt_comp3 -->
<g id="edge26" class="edge">
<title>err_error2&#45;&gt;mnt_comp3</title>
<path fill="none" stroke="black" stroke-width="1.2" d="M175.29,-139.68C183.67,-136.61 192.61,-133.33 201.41,-130.11"/>
<polygon fill="black" stroke="black" stroke-width="1.2" points="202.7,-133.36 210.88,-126.64 200.29,-126.79 202.7,-133.36"/>
</g>
<!-- err_error3 -->
<g id="node7" class="node">
<title>err_error3</title>
<path fill="white" stroke="black" d="M794.5,-211C794.5,-211 733.5,-211 733.5,-211 727.5,-211 721.5,-205 721.5,-199 721.5,-199 721.5,-187 721.5,-187 721.5,-181 727.5,-175 733.5,-175 733.5,-175 794.5,-175 794.5,-175 800.5,-175 806.5,-181 806.5,-187 806.5,-187 806.5,-199 806.5,-199 806.5,-205 800.5,-211 794.5,-211"/>
<text text-anchor="middle" x="764" y="-189.3" font-family="Helvetica,sans-Serif" font-size="14.00">err_error3</text>
</g>
<!-- err_error3&#45;&gt;rotate -->
<g id="edge9" class="edge">
<title>err_error3&#45;&gt;rotate</title>
<path fill="none" stroke="black" stroke-width="1.2" d="M721.48,-209.3C683.72,-225.48 627.8,-252.9 587,-288 561.5,-309.93 539.23,-341.61 525.19,-364.04"/>
<polygon fill="black" stroke="black" stroke-width="1.2" points="522.1,-362.37 519.86,-372.73 528.07,-366.03 522.1,-362.37"/>
</g>
<!-- err_error3&#45;&gt;err_error2 -->
<g id="edge24" class="edge">
<title>err_error3&#45;&gt;err_error2</title>
<path fill="none" stroke="black" stroke-width="1.2" d="M721.13,-182.82C671.1,-171.56 584.71,-155 509.5,-155 386.5,-155 386.5,-155 386.5,-155 316.85,-155 236.41,-155 185.27,-155"/>
<polygon fill="black" stroke="black" stroke-width="1.2" points="185.14,-151.5 175.14,-155 185.14,-158.5 185.14,-151.5"/>
</g>
<!-- err_error4&#45;&gt;err_error2 -->
<g id="edge25" class="edge">
<title>err_error4&#45;&gt;err_error2</title>
<path fill="none" stroke="black" stroke-width="1.2" d="M465.99,-18.48C405.57,-20.95 291.82,-32.48 211,-82 190.2,-94.75 170.24,-113.76 155.79,-129.18"/>
<polygon fill="black" stroke="black" stroke-width="1.2" points="152.93,-127.13 148.76,-136.87 158.1,-131.85 152.93,-127.13"/>
</g>
<!-- err_error4&#45;&gt;mnt_comp3 -->
<g id="edge28" class="edge">
<title>err_error4&#45;&gt;mnt_comp3</title>
<path fill="none" stroke="black" stroke-width="1.2" d="M465.99,-27.55C432.69,-35.8 385.06,-48.91 345,-65 330.23,-70.93 314.63,-78.66 300.94,-85.98"/>
<polygon fill="black" stroke="black" stroke-width="1.2" points="298.91,-83.1 291.8,-90.96 302.26,-89.25 298.91,-83.1"/>
</g>
<!-- err_error5&#45;&gt;rotate -->
<g id="edge10" class="edge">
<title>err_error5&#45;&gt;rotate</title>
<path fill="none" stroke="black" stroke-width="1.2" d="M302.52,-436.4C315.95,-431.69 331,-426.78 345,-423 387.21,-411.62 436.6,-402.47 469.76,-396.91"/>
<polygon fill="black" stroke="black" stroke-width="1.2" points="470.62,-400.32 479.92,-395.24 469.48,-393.41 470.62,-400.32"/>
</g>
<!-- err_error5&#45;&gt;vibration -->
<g id="edge19" class="edge">
<title>err_error5&#45;&gt;vibration</title>
<path fill="none" stroke="black" stroke-width="1.2" d="M276.64,-433.93C298.62,-408.53 338.78,-362.13 363.98,-333.02"/>
<polygon fill="black" stroke="black" stroke-width="1.2" points="366.76,-335.15 370.66,-325.3 361.47,-330.57 366.76,-335.15"/>
</g>
<!-- mnt_comp1 -->
<g id="node10" class="node">
<title>mnt_comp1</title>
<path fill="white" stroke="black" d="M801,-459C801,-459 727,-459 727,-459 721,-459 715,-453 715,-447 715,-447 715,-435 715,-435 715,-429 721,-423 727,-423 727,-423 801,-423 801,-423 807,-423 813,-429 813,-435 813,-435 813,-447 813,-447 813,-453 807,-459 801,-459"/>
<text text-anchor="middle" x="764" y="-437.3" font-family="Helvetica,sans-Serif" font-size="14.00">mnt_comp1</text>
</g>
<!-- err_error5&#45;&gt;mnt_comp1 -->
<g id="edge29" class="edge">
<title>err_error5&#45;&gt;mnt_comp1</title>
<path fill="none" stroke="black" stroke-width="1.2" d="M302.79,-452.43C359.16,-452.88 462.67,-453.23 551,-451 602.89,-449.69 661.88,-446.79 704.43,-444.45"/>
<polygon fill="black" stroke="black" stroke-width="1.2" points="704.82,-447.94 714.61,-443.89 704.43,-440.95 704.82,-447.94"/>
</g>
<!-- err_error5&#45;&gt;mnt_comp2 -->
<g id="edge30" class="edge">
<title>err_error5&#45;&gt;mnt_comp2</title>
<path fill="none" stroke="black" stroke-width="1.2" d="M302.69,-451.46C359.81,-449.76 465.12,-443.11 551,-418 615.22,-399.22 683.88,-362.42 725.12,-338.27"/>
<polygon fill="black" stroke="black" stroke-width="1.2" points="726.92,-341.27 733.74,-333.17 723.35,-335.25 726.92,-341.27"/>
</g>
<!-- err_error5&#45;&gt;fail_comp1 -->
<g id="edge31" class="edge">
<title>err_error5&#45;&gt;fail_comp1</title>
<path fill="none" stroke="black" stroke-width="1.2" d="M295.69,-470.12C310.51,-477.11 328.23,-484.48 345,-489 423.78,-510.21 518.37,-517.38 576.84,-519.8"/>
<polygon fill="black" stroke="black" stroke-width="1.2" points="576.85,-523.3 586.97,-520.18 577.11,-516.31 576.85,-523.3"/>
</g>
<!-- mnt_comp1&#45;&gt;rotate -->
<g id="edge11" class="edge">
<title>mnt_comp1&#45;&gt;rotate</title>
<path fill="none" stroke="black" stroke-width="1.2" d="M714.9,-434.92C679.36,-430.05 629.9,-422.47 587,-413 573.85,-410.1 559.63,-406.27 547.01,-402.62"/>
<polygon fill="black" stroke="black" stroke-width="1.2" points="547.86,-399.22 537.28,-399.75 545.88,-405.93 547.86,-399.22"/>
</g>
<!-- mnt_comp1&#45;&gt;vibration -->
<g id="edge20" class="edge">
<title>mnt_comp1&#45;&gt;vibration</title>
<path fill="none" stroke="black" stroke-width="1.2" d="M714.64,-423.26C671.71,-407.56 607.24,-384.08 551,-364 512.47,-350.25 468.7,-334.91 436.3,-323.61"/>
<polygon fill="black" stroke="black" stroke-width="1.2" points="437.22,-320.23 426.63,-320.24 434.92,-326.84 437.22,-320.23"/>
</g>
<!-- mnt_comp1&#45;&gt;mnt_comp4 -->
<g id="edge32" class="edge">
<title>mnt_comp1&#45;&gt;mnt_comp4</title>
<path fill="none" stroke="black" stroke-width="1.2" d="M813.03,-455.92C821.49,-458.55 830.38,-461.31 839.08,-464.01"/>
<polygon fill="black" stroke="black" stroke-width="1.2" points="838.2,-467.4 848.79,-467.02 840.27,-460.72 838.2,-467.4"/>
</g>
<!-- mnt_comp2&#45;&gt;mnt_comp3 -->
<g id="edge35" class="edge">
<title>mnt_comp2&#45;&gt;mnt_comp3</title>
<path fill="none" stroke="black" stroke-width="1.2" d="M722.52,-296.87C708.75,-290.78 693.24,-284.01 679,-278 549.77,-223.43 396.62,-162.44 316.38,-130.76"/>
<polygon fill="black" stroke="black" stroke-width="1.2" points="317.55,-127.46 306.96,-127.05 314.98,-133.97 317.55,-127.46"/>
</g>
<!-- mnt_comp3&#45;&gt;pressure -->
<g id="edge15" class="edge">
<title>mnt_comp3&#45;&gt;pressure</title>
<path fill="none" stroke="black" stroke-width="1.2" d="M309.43,-99.59C358.98,-90.79 438.31,-79 507.5,-79 507.5,-79 507.5,-79 765,-79 959.51,-79 1007.82,-401.23 1018.05,-499.74"/>
<polygon fill="black" stroke="black" stroke-width="1.2" points="1014.58,-500.23 1019.05,-509.84 1021.55,-499.55 1014.58,-500.23"/>
</g>
<!-- mnt_comp3&#45;&gt;vibration -->
<g id="edge22" class="edge">
<title>mnt_comp3&#45;&gt;vibration</title>
<path fill="none" stroke="black" stroke-width="1.2" d="M271.93,-127.17C287.77,-153.38 318.13,-203.22 345,-245 352.57,-256.78 361.15,-269.66 368.53,-280.62"/>
<polygon fill="black" stroke="black" stroke-width="1.2" points="365.66,-282.61 374.16,-288.94 371.46,-278.69 365.66,-282.61"/>
</g>
<!-- mnt_comp4&#45;&gt;pressure -->
<g id="edge16" class="edge">
<title>mnt_comp4&#45;&gt;pressure</title>
<path fill="none" stroke="black" stroke-width="1.2" d="M946.67,-500.05C955.37,-503.34 964.44,-506.77 973.12,-510.06"/>
<polygon fill="black" stroke="black" stroke-width="1.2" points="972.13,-513.43 982.73,-513.7 974.61,-506.88 972.13,-513.43"/>
</g>
<!-- mnt_comp4&#45;&gt;mnt_comp3 -->
<g id="edge38" class="edge">
<title>mnt_comp4&#45;&gt;mnt_comp3</title>
<path fill="none" stroke="black" stroke-width="1.2" d="M894.53,-463.61C886.02,-402.76 855.99,-209.31 813,-166 754.89,-107.46 716.48,-117 634,-117 507.5,-117 507.5,-117 507.5,-117 443.14,-117 369.38,-114.24 319.45,-111.96"/>
<polygon fill="black" stroke="black" stroke-width="1.2" points="319.31,-108.46 309.16,-111.49 318.99,-115.45 319.31,-108.46"/>
</g>
<!-- fail_comp1&#45;&gt;pressure -->
<g id="edge17" class="edge">
<title>fail_comp1&#45;&gt;pressure</title>
<path fill="none" stroke="black" stroke-width="1.2" d="M679.09,-521.82C752.6,-523.15 897.58,-525.77 972.76,-527.14"/>
<polygon fill="black" stroke="black" stroke-width="1.2" points="972.83,-530.64 982.89,-527.32 972.96,-523.64 972.83,-530.64"/>
</g>
<!-- fail_comp1&#45;&gt;mnt_comp1 -->
<g id="edge33" class="edge">
<title>fail_comp1&#45;&gt;mnt_comp1</title>
<path fill="none" stroke="black" stroke-width="1.2" d="M663.27,-502.85C681.58,-491.49 705.35,-476.75 725.09,-464.51"/>
<polygon fill="black" stroke="black" stroke-width="1.2" points="727.19,-467.33 733.84,-459.08 723.5,-461.38 727.19,-467.33"/>
</g>
<!-- fail_comp1&#45;&gt;mnt_comp2 -->
<g id="edge36" class="edge">
<title>fail_comp1&#45;&gt;mnt_comp2</title>
<path fill="none" stroke="black" stroke-width="1.2" d="M645.45,-502.72C668.25,-466.3 719.45,-384.54 746.12,-341.95"/>
<polygon fill="black" stroke="black" stroke-width="1.2" points="749.24,-343.57 751.58,-333.24 743.3,-339.86 749.24,-343.57"/>
</g>
<!-- fail_comp1&#45;&gt;mnt_comp4 -->
<g id="edge39" class="edge">
<title>fail_comp1&#45;&gt;mnt_comp4</title>
<path fill="none" stroke="black" stroke-width="1.2" d="M679.21,-514.3C723.36,-507.75 790.75,-497.76 838.86,-490.62"/>
<polygon fill="black" stroke="black" stroke-width="1.2" points="839.44,-494.07 848.82,-489.14 838.42,-487.15 839.44,-494.07"/>
</g>
<!-- fail_comp2&#45;&gt;err_error3 -->
<g id="edge27" class="edge">
<title>fail_comp2&#45;&gt;err_error3</title>
<path fill="none" stroke="black" stroke-width="1.2" d="M653.03,-297C675.14,-276.09 711.73,-241.48 736.58,-217.98"/>
<polygon fill="black" stroke="black" stroke-width="1.2" points="739.03,-220.49 743.89,-211.08 734.22,-215.4 739.03,-220.49"/>
</g>
<!-- fail_comp2&#45;&gt;mnt_comp1 -->
<g id="edge34" class="edge">
<title>fail_comp2&#45;&gt;mnt_comp1</title>
<path fill="none" stroke="black" stroke-width="1.2" d="M652.48,-333.05C674.71,-354.76 712.14,-391.32 737.2,-415.8"/>
<polygon fill="black" stroke="black" stroke-width="1.2" points="734.95,-418.5 744.55,-422.98 739.84,-413.49 734.95,-418.5"/>
</g>
<!-- fail_comp2&#45;&gt;mnt_comp2 -->
<g id="edge37" class="edge">
<title>fail_comp2&#45;&gt;mnt_comp2</title>
<path fill="none" stroke="black" stroke-width="1.2" d="M679.12,-315C687.28,-315 695.9,-315 704.38,-315"/>
<polygon fill="black" stroke="black" stroke-width="1.2" points="704.62,-318.5 714.62,-315 704.62,-311.5 704.62,-318.5"/>
</g>
</g>
</svg>
