<?xml version="1.0" encoding="UTF-8" standalone="no"?>
<!DOCTYPE svg PUBLIC "-//W3C//DTD SVG 1.1//EN"
 "http://www.w3.org/Graphics/SVG/1.1/DTD/svg11.dtd">
<!-- Generated by graphviz version 2.50.0 (0)
 -->
<!-- Title: G Pages: 1 -->
<svg width="1161pt" height="810pt"
 viewBox="0.00 0.00 1161.00 810.00" xmlns="http://www.w3.org/2000/svg" xmlns:xlink="http://www.w3.org/1999/xlink">
<g id="graph0" class="graph" transform="scale(1 1) rotate(0) translate(4 806)">
<title>G</title>
<polygon fill="white" stroke="transparent" points="-4,4 -4,-806 1157,-806 1157,4 -4,4"/>
<text text-anchor="middle" x="576.5" y="-785.2" font-family="Times,serif" font-size="16.00">model=model4/nbcb_w_mixed.json [machine 63]</text>
<!-- volt -->
<g id="node1" class="node">
<title>volt</title>
<path fill="white" stroke="black" d="M42,-513C42,-513 12,-513 12,-513 6,-513 0,-507 0,-501 0,-501 0,-489 0,-489 0,-483 6,-477 12,-477 12,-477 42,-477 42,-477 48,-477 54,-483 54,-489 54,-489 54,-501 54,-501 54,-507 48,-513 42,-513"/>
<text text-anchor="middle" x="27" y="-491.3" font-family="Helvetica,sans-Serif" font-size="14.00">volt</text>
</g>
<!-- pressure -->
<g id="node3" class="node">
<title>pressure</title>
<path fill="white" stroke="black" d="M155,-376C155,-376 102,-376 102,-376 96,-376 90,-370 90,-364 90,-364 90,-352 90,-352 90,-346 96,-340 102,-340 102,-340 155,-340 155,-340 161,-340 167,-346 167,-352 167,-352 167,-364 167,-364 167,-370 161,-376 155,-376"/>
<text text-anchor="middle" x="128.5" y="-354.3" font-family="Helvetica,sans-Serif" font-size="14.00">pressure</text>
</g>
<!-- volt&#45;&gt;pressure -->
<g id="edge1" class="edge">
<title>volt&#45;&gt;pressure</title>
<path fill="none" stroke="black" stroke-width="1.2" d="M41.21,-476.81C58.39,-453.16 88.5,-411.7 108.22,-384.54"/>
<polygon fill="black" stroke="black" stroke-width="1.2" points="111.19,-386.42 114.23,-376.27 105.52,-382.3 111.19,-386.42"/>
</g>
<!-- err_error2 -->
<g id="node6" class="node">
<title>err_error2</title>
<path fill="white" stroke="black" d="M607.5,-612C607.5,-612 546.5,-612 546.5,-612 540.5,-612 534.5,-606 534.5,-600 534.5,-600 534.5,-588 534.5,-588 534.5,-582 540.5,-576 546.5,-576 546.5,-576 607.5,-576 607.5,-576 613.5,-576 619.5,-582 619.5,-588 619.5,-588 619.5,-600 619.5,-600 619.5,-606 613.5,-612 607.5,-612"/>
<text text-anchor="middle" x="577" y="-590.3" font-family="Helvetica,sans-Serif" font-size="14.00">err_error2</text>
</g>
<!-- volt&#45;&gt;err_error2 -->
<g id="edge3" class="edge">
<title>volt&#45;&gt;err_error2</title>
<path fill="none" stroke="black" stroke-width="1.2" d="M39.98,-513.05C65.07,-548.87 127.1,-627.64 203,-653 315.48,-690.58 455.22,-645.6 527.55,-615.97"/>
<polygon fill="black" stroke="black" stroke-width="1.2" points="528.99,-619.16 536.88,-612.08 526.3,-612.7 528.99,-619.16"/>
</g>
<!-- err_error3 -->
<g id="node7" class="node">
<title>err_error3</title>
<path fill="white" stroke="black" d="M735.5,-635C735.5,-635 674.5,-635 674.5,-635 668.5,-635 662.5,-629 662.5,-623 662.5,-623 662.5,-611 662.5,-611 662.5,-605 668.5,-599 674.5,-599 674.5,-599 735.5,-599 735.5,-599 741.5,-599 747.5,-605 747.5,-611 747.5,-611 747.5,-623 747.5,-623 747.5,-629 741.5,-635 735.5,-635"/>
<text text-anchor="middle" x="705" y="-613.3" font-family="Helvetica,sans-Serif" font-size="14.00">err_error3</text>
</g>
<!-- volt&#45;&gt;err_error3 -->
<g id="edge4" class="edge">
<title>volt&#45;&gt;err_error3</title>
<path fill="none" stroke="black" stroke-width="1.2" d="M37.53,-522.7C61.43,-586.43 130.26,-738 244.5,-738 244.5,-738 244.5,-738 467.5,-738 551.17,-738 635.01,-677.24 676.77,-641.83"/>
<polygon fill="black" stroke="black" stroke-width="1.2" points="40.81,-521.46 34.09,-513.26 34.23,-523.86 40.81,-521.46"/>
<polygon fill="black" stroke="black" stroke-width="1.2" points="679.27,-644.3 684.55,-635.11 674.7,-639 679.27,-644.3"/>
</g>
<!-- err_error4 -->
<g id="node8" class="node">
<title>err_error4</title>
<path fill="white" stroke="black" d="M276,-174C276,-174 215,-174 215,-174 209,-174 203,-168 203,-162 203,-162 203,-150 203,-150 203,-144 209,-138 215,-138 215,-138 276,-138 276,-138 282,-138 288,-144 288,-150 288,-150 288,-162 288,-162 288,-168 282,-174 276,-174"/>
<text text-anchor="middle" x="245.5" y="-152.3" font-family="Helvetica,sans-Serif" font-size="14.00">err_error4</text>
</g>
<!-- volt&#45;&gt;err_error4 -->
<g id="edge5" class="edge">
<title>volt&#45;&gt;err_error4</title>
<path fill="none" stroke="black" stroke-width="1.2" d="M32.83,-476.97C41.59,-445.9 61.81,-380.8 90,-331 129.9,-260.51 145.38,-244.94 203,-188 205.61,-185.42 208.43,-182.85 211.33,-180.37"/>
<polygon fill="black" stroke="black" stroke-width="1.2" points="213.58,-183.05 219.1,-174.01 209.14,-177.64 213.58,-183.05"/>
</g>
<!-- fail_comp1 -->
<g id="node14" class="node">
<title>fail_comp1</title>
<path fill="white" stroke="black" d="M611,-102C611,-102 543,-102 543,-102 537,-102 531,-96 531,-90 531,-90 531,-78 531,-78 531,-72 537,-66 543,-66 543,-66 611,-66 611,-66 617,-66 623,-72 623,-78 623,-78 623,-90 623,-90 623,-96 617,-102 611,-102"/>
<text text-anchor="middle" x="577" y="-80.3" font-family="Helvetica,sans-Serif" font-size="14.00">fail_comp1</text>
</g>
<!-- volt&#45;&gt;fail_comp1 -->
<g id="edge8" class="edge">
<title>volt&#45;&gt;fail_comp1</title>
<path fill="none" stroke="black" stroke-width="1.2" d="M28.45,-466.61C30.52,-414.19 40.81,-300.33 90,-221 124.13,-165.96 143.39,-154.32 203,-129 308.79,-84.06 445.67,-79.67 520.72,-81.29"/>
<polygon fill="black" stroke="black" stroke-width="1.2" points="24.95,-466.72 28.13,-476.83 31.95,-466.94 24.95,-466.72"/>
<polygon fill="black" stroke="black" stroke-width="1.2" points="520.8,-84.8 530.88,-81.56 520.98,-77.8 520.8,-84.8"/>
</g>
<!-- rotate -->
<g id="node2" class="node">
<title>rotate</title>
<path fill="white" stroke="black" d="M483,-304C483,-304 450,-304 450,-304 444,-304 438,-298 438,-292 438,-292 438,-280 438,-280 438,-274 444,-268 450,-268 450,-268 483,-268 483,-268 489,-268 495,-274 495,-280 495,-280 495,-292 495,-292 495,-298 489,-304 483,-304"/>
<text text-anchor="middle" x="466.5" y="-282.3" font-family="Helvetica,sans-Serif" font-size="14.00">rotate</text>
</g>
<!-- rotate&#45;&gt;pressure -->
<g id="edge9" class="edge">
<title>rotate&#45;&gt;pressure</title>
<path fill="none" stroke="black" stroke-width="1.2" d="M427.79,-294.08C366.29,-307.26 244.5,-333.36 177.12,-347.79"/>
<polygon fill="black" stroke="black" stroke-width="1.2" points="428.8,-297.44 437.84,-291.93 427.33,-290.6 428.8,-297.44"/>
<polygon fill="black" stroke="black" stroke-width="1.2" points="176.11,-344.43 167.07,-349.95 177.58,-351.28 176.11,-344.43"/>
</g>
<!-- rotate&#45;&gt;err_error2 -->
<g id="edge11" class="edge">
<title>rotate&#45;&gt;err_error2</title>
<path fill="none" stroke="black" stroke-width="1.2" d="M472.11,-314.29C480.17,-359.87 499.08,-451.75 531,-524 537.74,-539.25 547.54,-554.97 556.28,-567.64"/>
<polygon fill="black" stroke="black" stroke-width="1.2" points="475.52,-313.52 470.38,-304.26 468.63,-314.71 475.52,-313.52"/>
<polygon fill="black" stroke="black" stroke-width="1.2" points="553.48,-569.74 562.11,-575.88 559.19,-565.7 553.48,-569.74"/>
</g>
<!-- rotate&#45;&gt;fail_comp1 -->
<g id="edge17" class="edge">
<title>rotate&#45;&gt;fail_comp1</title>
<path fill="none" stroke="black" stroke-width="1.2" d="M474.77,-267.93C480.39,-253.82 488.33,-233.72 495,-216 511.64,-171.79 502.45,-153.63 531,-116 532.97,-113.4 535.21,-110.93 537.62,-108.6"/>
<polygon fill="black" stroke="black" stroke-width="1.2" points="539.94,-111.21 545.21,-102.02 535.36,-105.92 539.94,-111.21"/>
</g>
<!-- fail_comp2 -->
<g id="node15" class="node">
<title>fail_comp2</title>
<path fill="white" stroke="black" d="M739,-102C739,-102 671,-102 671,-102 665,-102 659,-96 659,-90 659,-90 659,-78 659,-78 659,-72 665,-66 671,-66 671,-66 739,-66 739,-66 745,-66 751,-72 751,-78 751,-78 751,-90 751,-90 751,-96 745,-102 739,-102"/>
<text text-anchor="middle" x="705" y="-80.3" font-family="Helvetica,sans-Serif" font-size="14.00">fail_comp2</text>
</g>
<!-- rotate&#45;&gt;fail_comp2 -->
<g id="edge18" class="edge">
<title>rotate&#45;&gt;fail_comp2</title>
<path fill="none" stroke="black" stroke-width="1.2" d="M481.77,-258.78C493.22,-238.71 510.69,-211.59 531,-192 568.24,-156.08 619.33,-125.98 656.32,-106.76"/>
<polygon fill="black" stroke="black" stroke-width="1.2" points="478.6,-257.29 476.8,-267.73 484.72,-260.69 478.6,-257.29"/>
<polygon fill="black" stroke="black" stroke-width="1.2" points="658.1,-109.78 665.41,-102.11 654.91,-103.55 658.1,-109.78"/>
</g>
<!-- fail_comp4 -->
<g id="node16" class="node">
<title>fail_comp4</title>
<path fill="white" stroke="black" d="M870,-200C870,-200 802,-200 802,-200 796,-200 790,-194 790,-188 790,-188 790,-176 790,-176 790,-170 796,-164 802,-164 802,-164 870,-164 870,-164 876,-164 882,-170 882,-176 882,-176 882,-188 882,-188 882,-194 876,-200 870,-200"/>
<text text-anchor="middle" x="836" y="-178.3" font-family="Helvetica,sans-Serif" font-size="14.00">fail_comp4</text>
</g>
<!-- rotate&#45;&gt;fail_comp4 -->
<g id="edge19" class="edge">
<title>rotate&#45;&gt;fail_comp4</title>
<path fill="none" stroke="black" stroke-width="1.2" d="M495.07,-268.01C505.92,-261.57 518.7,-254.74 531,-250 614.89,-217.66 718.03,-198.65 780.03,-189.29"/>
<polygon fill="black" stroke="black" stroke-width="1.2" points="780.62,-192.74 790,-187.82 779.59,-185.82 780.62,-192.74"/>
</g>
<!-- err_error1 -->
<g id="node5" class="node">
<title>err_error1</title>
<path fill="white" stroke="black" d="M276,-644C276,-644 215,-644 215,-644 209,-644 203,-638 203,-632 203,-632 203,-620 203,-620 203,-614 209,-608 215,-608 215,-608 276,-608 276,-608 282,-608 288,-614 288,-620 288,-620 288,-632 288,-632 288,-638 282,-644 276,-644"/>
<text text-anchor="middle" x="245.5" y="-622.3" font-family="Helvetica,sans-Serif" font-size="14.00">err_error1</text>
</g>
<!-- pressure&#45;&gt;err_error1 -->
<g id="edge20" class="edge">
<title>pressure&#45;&gt;err_error1</title>
<path fill="none" stroke="black" stroke-width="1.2" d="M131.4,-376.19C136.52,-418.09 153.73,-523.2 203,-594 204.66,-596.38 206.54,-598.66 208.58,-600.84"/>
<polygon fill="black" stroke="black" stroke-width="1.2" points="206.27,-603.47 215.95,-607.79 211.07,-598.38 206.27,-603.47"/>
</g>
<!-- pressure&#45;&gt;err_error3 -->
<g id="edge21" class="edge">
<title>pressure&#45;&gt;err_error3</title>
<path fill="none" stroke="black" stroke-width="1.2" d="M147.76,-376.33C200.93,-428.18 362.58,-575.06 531,-621 570.7,-631.83 617.45,-629.92 652.33,-625.81"/>
<polygon fill="black" stroke="black" stroke-width="1.2" points="652.82,-629.28 662.3,-624.54 651.93,-622.33 652.82,-629.28"/>
</g>
<!-- mnt_comp4 -->
<g id="node13" class="node">
<title>mnt_comp4</title>
<path fill="white" stroke="black" d="M1007,-254C1007,-254 933,-254 933,-254 927,-254 921,-248 921,-242 921,-242 921,-230 921,-230 921,-224 927,-218 933,-218 933,-218 1007,-218 1007,-218 1013,-218 1019,-224 1019,-230 1019,-230 1019,-242 1019,-242 1019,-248 1013,-254 1007,-254"/>
<text text-anchor="middle" x="970" y="-232.3" font-family="Helvetica,sans-Serif" font-size="14.00">mnt_comp4</text>
</g>
<!-- pressure&#45;&gt;mnt_comp4 -->
<g id="edge23" class="edge">
<title>pressure&#45;&gt;mnt_comp4</title>
<path fill="none" stroke="black" stroke-width="1.2" d="M177.55,-358C224.56,-358 298.21,-358 362,-358 362,-358 362,-358 706,-358 797.92,-358 892.54,-295.91 939.23,-260.32"/>
<polygon fill="black" stroke="black" stroke-width="1.2" points="177.35,-354.5 167.35,-358 177.35,-361.5 177.35,-354.5"/>
<polygon fill="black" stroke="black" stroke-width="1.2" points="941.62,-262.89 947.38,-254 937.33,-257.36 941.62,-262.89"/>
</g>
<!-- pressure&#45;&gt;fail_comp4 -->
<g id="edge26" class="edge">
<title>pressure&#45;&gt;fail_comp4</title>
<path fill="none" stroke="black" stroke-width="1.2" d="M171.67,-335.3C181.79,-330.27 192.66,-325.19 203,-321 398.4,-241.75 449.93,-217.42 659,-190 699.13,-184.74 744.79,-182.78 779.55,-182.11"/>
<polygon fill="black" stroke="black" stroke-width="1.2" points="169.97,-332.24 162.63,-339.89 173.14,-338.49 169.97,-332.24"/>
<polygon fill="black" stroke="black" stroke-width="1.2" points="780.02,-185.61 789.97,-181.95 779.91,-178.61 780.02,-185.61"/>
</g>
<!-- vibration -->
<g id="node4" class="node">
<title>vibration</title>
<path fill="white" stroke="black" d="M390,-490C390,-490 336,-490 336,-490 330,-490 324,-484 324,-478 324,-478 324,-466 324,-466 324,-460 330,-454 336,-454 336,-454 390,-454 390,-454 396,-454 402,-460 402,-466 402,-466 402,-478 402,-478 402,-484 396,-490 390,-490"/>
<text text-anchor="middle" x="363" y="-468.3" font-family="Helvetica,sans-Serif" font-size="14.00">vibration</text>
</g>
<!-- vibration&#45;&gt;rotate -->
<g id="edge10" class="edge">
<title>vibration&#45;&gt;rotate</title>
<path fill="none" stroke="black" stroke-width="1.2" d="M373.92,-453.83C391.81,-421.05 429.56,-351.85 450.58,-313.34"/>
<polygon fill="black" stroke="black" stroke-width="1.2" points="453.82,-314.7 455.54,-304.25 447.68,-311.35 453.82,-314.7"/>
</g>
<!-- vibration&#45;&gt;err_error2 -->
<g id="edge28" class="edge">
<title>vibration&#45;&gt;err_error2</title>
<path fill="none" stroke="black" stroke-width="1.2" d="M388.08,-490.24C402.27,-500.65 420.77,-513.65 438,-524 466.94,-541.39 500.73,-558.57 527.63,-571.57"/>
<polygon fill="black" stroke="black" stroke-width="1.2" points="526.3,-574.81 536.83,-575.98 529.33,-568.5 526.3,-574.81"/>
</g>
<!-- err_error5 -->
<g id="node9" class="node">
<title>err_error5</title>
<path fill="white" stroke="black" d="M735.5,-433C735.5,-433 674.5,-433 674.5,-433 668.5,-433 662.5,-427 662.5,-421 662.5,-421 662.5,-409 662.5,-409 662.5,-403 668.5,-397 674.5,-397 674.5,-397 735.5,-397 735.5,-397 741.5,-397 747.5,-403 747.5,-409 747.5,-409 747.5,-421 747.5,-421 747.5,-427 741.5,-433 735.5,-433"/>
<text text-anchor="middle" x="705" y="-411.3" font-family="Helvetica,sans-Serif" font-size="14.00">err_error5</text>
</g>
<!-- vibration&#45;&gt;err_error5 -->
<g id="edge29" class="edge">
<title>vibration&#45;&gt;err_error5</title>
<path fill="none" stroke="black" stroke-width="1.2" d="M402.37,-464.54C413.82,-462.37 426.41,-460.03 438,-458 512.45,-444.94 598.89,-431.24 652.53,-422.9"/>
<polygon fill="black" stroke="black" stroke-width="1.2" points="653.13,-426.35 662.48,-421.36 652.06,-419.43 653.13,-426.35"/>
</g>
<!-- mnt_comp1 -->
<g id="node10" class="node">
<title>mnt_comp1</title>
<path fill="white" stroke="black" d="M1141,-300C1141,-300 1067,-300 1067,-300 1061,-300 1055,-294 1055,-288 1055,-288 1055,-276 1055,-276 1055,-270 1061,-264 1067,-264 1067,-264 1141,-264 1141,-264 1147,-264 1153,-270 1153,-276 1153,-276 1153,-288 1153,-288 1153,-294 1147,-300 1141,-300"/>
<text text-anchor="middle" x="1104" y="-278.3" font-family="Helvetica,sans-Serif" font-size="14.00">mnt_comp1</text>
</g>
<!-- vibration&#45;&gt;mnt_comp1 -->
<g id="edge30" class="edge">
<title>vibration&#45;&gt;mnt_comp1</title>
<path fill="none" stroke="black" stroke-width="1.2" d="M411.71,-489.64C476.81,-512.09 597.57,-548 704,-548 704,-548 704,-548 837,-548 970.83,-548 1060.85,-377.56 1091.44,-309.54"/>
<polygon fill="black" stroke="black" stroke-width="1.2" points="412.73,-486.29 402.13,-486.3 410.42,-492.9 412.73,-486.29"/>
<polygon fill="black" stroke="black" stroke-width="1.2" points="1094.69,-310.85 1095.52,-300.28 1088.29,-308.02 1094.69,-310.85"/>
</g>
<!-- mnt_comp2 -->
<g id="node11" class="node">
<title>mnt_comp2</title>
<path fill="white" stroke="black" d="M873,-254C873,-254 799,-254 799,-254 793,-254 787,-248 787,-242 787,-242 787,-230 787,-230 787,-224 793,-218 799,-218 799,-218 873,-218 873,-218 879,-218 885,-224 885,-230 885,-230 885,-242 885,-242 885,-248 879,-254 873,-254"/>
<text text-anchor="middle" x="836" y="-232.3" font-family="Helvetica,sans-Serif" font-size="14.00">mnt_comp2</text>
</g>
<!-- vibration&#45;&gt;mnt_comp2 -->
<g id="edge31" class="edge">
<title>vibration&#45;&gt;mnt_comp2</title>
<path fill="none" stroke="black" stroke-width="1.2" d="M402.23,-481.08C477.17,-496.5 645.26,-519.17 751,-442 809.05,-399.63 827.09,-310.01 832.62,-264.22"/>
<polygon fill="black" stroke="black" stroke-width="1.2" points="836.12,-264.42 833.72,-254.1 829.16,-263.66 836.12,-264.42"/>
</g>
<!-- vibration&#45;&gt;fail_comp1 -->
<g id="edge32" class="edge">
<title>vibration&#45;&gt;fail_comp1</title>
<path fill="none" stroke="black" stroke-width="1.2" d="M370.98,-444.2C382.03,-402.55 405.64,-322.1 438,-259 458.08,-219.83 470.43,-214.52 495,-178 511.52,-153.45 511.48,-144.24 531,-122 534.98,-117.47 539.51,-113.01 544.12,-108.83"/>
<polygon fill="black" stroke="black" stroke-width="1.2" points="367.58,-443.36 368.45,-453.92 374.36,-445.13 367.58,-443.36"/>
<polygon fill="black" stroke="black" stroke-width="1.2" points="546.63,-111.29 551.9,-102.1 542.05,-106 546.63,-111.29"/>
</g>
<!-- err_error1&#45;&gt;volt -->
<g id="edge2" class="edge">
<title>err_error1&#45;&gt;volt</title>
<path fill="none" stroke="black" stroke-width="1.2" d="M214.47,-607.83C174.76,-583.8 104.9,-541.53 62.89,-516.11"/>
<polygon fill="black" stroke="black" stroke-width="1.2" points="64.48,-512.98 54.11,-510.8 60.86,-518.97 64.48,-512.98"/>
</g>
<!-- err_error1&#45;&gt;vibration -->
<g id="edge27" class="edge">
<title>err_error1&#45;&gt;vibration</title>
<path fill="none" stroke="black" stroke-width="1.2" d="M260.2,-607.73C280.52,-580.64 318.75,-529.67 342.14,-498.48"/>
<polygon fill="black" stroke="black" stroke-width="1.2" points="345.11,-500.35 348.31,-490.25 339.51,-496.15 345.11,-500.35"/>
</g>
<!-- err_error2&#45;&gt;err_error1 -->
<g id="edge33" class="edge">
<title>err_error2&#45;&gt;err_error1</title>
<path fill="none" stroke="black" stroke-width="1.2" d="M534.35,-598.05C474.31,-603.88 363.52,-614.63 298.29,-620.97"/>
<polygon fill="black" stroke="black" stroke-width="1.2" points="297.85,-617.5 288.23,-621.95 298.52,-624.46 297.85,-617.5"/>
</g>
<!-- err_error2&#45;&gt;err_error3 -->
<g id="edge35" class="edge">
<title>err_error2&#45;&gt;err_error3</title>
<path fill="none" stroke="black" stroke-width="1.2" d="M619.61,-601.59C630.14,-603.52 641.59,-605.61 652.55,-607.61"/>
<polygon fill="black" stroke="black" stroke-width="1.2" points="651.97,-611.06 662.44,-609.41 653.23,-604.17 651.97,-611.06"/>
</g>
<!-- err_error2&#45;&gt;err_error5 -->
<g id="edge36" class="edge">
<title>err_error2&#45;&gt;err_error5</title>
<path fill="none" stroke="black" stroke-width="1.2" d="M590.77,-575.85C613.13,-544.09 659.44,-478.31 685.37,-441.47"/>
<polygon fill="black" stroke="black" stroke-width="1.2" points="688.3,-443.39 691.19,-433.2 682.57,-439.36 688.3,-443.39"/>
</g>
<!-- err_error3&#45;&gt;rotate -->
<g id="edge12" class="edge">
<title>err_error3&#45;&gt;rotate</title>
<path fill="none" stroke="black" stroke-width="1.2" d="M690.99,-598.79C651.55,-543.59 533.21,-377.96 486.63,-312.78"/>
<polygon fill="black" stroke="black" stroke-width="1.2" points="489.21,-310.37 480.55,-304.27 483.52,-314.44 489.21,-310.37"/>
</g>
<!-- err_error3&#45;&gt;err_error1 -->
<g id="edge34" class="edge">
<title>err_error3&#45;&gt;err_error1</title>
<path fill="none" stroke="black" stroke-width="1.2" d="M672.78,-635.06C658.17,-642.51 640.22,-650.25 623,-654 508.92,-678.82 371.32,-655.55 298.16,-639.09"/>
<polygon fill="black" stroke="black" stroke-width="1.2" points="298.8,-635.65 288.27,-636.82 297.23,-642.47 298.8,-635.65"/>
</g>
<!-- err_error3&#45;&gt;mnt_comp1 -->
<g id="edge37" class="edge">
<title>err_error3&#45;&gt;mnt_comp1</title>
<path fill="none" stroke="black" stroke-width="1.2" d="M747.54,-622.33C813.58,-628.34 942.82,-629.72 1019,-562 1093.3,-495.96 1103.08,-367.05 1103.57,-310.15"/>
<polygon fill="black" stroke="black" stroke-width="1.2" points="1107.07,-310.08 1103.57,-300.08 1100.07,-310.08 1107.07,-310.08"/>
</g>
<!-- err_error4&#45;&gt;rotate -->
<g id="edge13" class="edge">
<title>err_error4&#45;&gt;rotate</title>
<path fill="none" stroke="black" stroke-width="1.2" d="M276.95,-174.08C316.78,-197.72 386.49,-239.1 429.07,-264.38"/>
<polygon fill="black" stroke="black" stroke-width="1.2" points="427.34,-267.42 437.73,-269.51 430.92,-261.4 427.34,-267.42"/>
</g>
<!-- err_error5&#45;&gt;rotate -->
<g id="edge14" class="edge">
<title>err_error5&#45;&gt;rotate</title>
<path fill="none" stroke="black" stroke-width="1.2" d="M670.9,-396.95C626.97,-372.98 549.65,-330.81 504.04,-305.93"/>
<polygon fill="black" stroke="black" stroke-width="1.2" points="505.55,-302.77 495.09,-301.05 502.2,-308.91 505.55,-302.77"/>
</g>
<!-- err_error5&#45;&gt;pressure -->
<g id="edge22" class="edge">
<title>err_error5&#45;&gt;pressure</title>
<path fill="none" stroke="black" stroke-width="1.2" d="M662.21,-409.61C615.02,-403.99 535.88,-396 467.5,-396 362,-396 362,-396 362,-396 297.22,-396 223.61,-381.46 176.88,-370.36"/>
<polygon fill="black" stroke="black" stroke-width="1.2" points="177.59,-366.93 167.05,-367.98 175.94,-373.74 177.59,-366.93"/>
</g>
<!-- mnt_comp1&#45;&gt;volt -->
<g id="edge6" class="edge">
<title>mnt_comp1&#45;&gt;volt</title>
<path fill="none" stroke="black" stroke-width="1.2" d="M1102.01,-300.17C1096.08,-389.29 1057.63,-776 837,-776 244.5,-776 244.5,-776 244.5,-776 164.81,-776 139.92,-747.12 90,-685 51.17,-636.69 36.35,-563.29 30.93,-523.34"/>
<polygon fill="black" stroke="black" stroke-width="1.2" points="34.38,-522.73 29.66,-513.24 27.43,-523.6 34.38,-522.73"/>
</g>
<!-- mnt_comp1&#45;&gt;rotate -->
<g id="edge15" class="edge">
<title>mnt_comp1&#45;&gt;rotate</title>
<path fill="none" stroke="black" stroke-width="1.2" d="M1054.95,-282C1001.67,-282 913.2,-282 837,-282 704,-282 704,-282 704,-282 633.9,-282 552.13,-283.78 505.42,-284.96"/>
<polygon fill="black" stroke="black" stroke-width="1.2" points="505.08,-281.47 495.17,-285.23 505.26,-288.47 505.08,-281.47"/>
</g>
<!-- mnt_comp2&#45;&gt;rotate -->
<g id="edge16" class="edge">
<title>mnt_comp2&#45;&gt;rotate</title>
<path fill="none" stroke="black" stroke-width="1.2" d="M786.97,-238.51C726.74,-242.23 620.5,-250.74 531,-268 522.43,-269.65 513.33,-271.92 504.79,-274.28"/>
<polygon fill="black" stroke="black" stroke-width="1.2" points="503.72,-270.95 495.07,-277.07 505.65,-277.68 503.72,-270.95"/>
</g>
<!-- mnt_comp3 -->
<g id="node12" class="node">
<title>mnt_comp3</title>
<path fill="white" stroke="black" d="M1007,-200C1007,-200 933,-200 933,-200 927,-200 921,-194 921,-188 921,-188 921,-176 921,-176 921,-170 927,-164 933,-164 933,-164 1007,-164 1007,-164 1013,-164 1019,-170 1019,-176 1019,-176 1019,-188 1019,-188 1019,-194 1013,-200 1007,-200"/>
<text text-anchor="middle" x="970" y="-178.3" font-family="Helvetica,sans-Serif" font-size="14.00">mnt_comp3</text>
</g>
<!-- mnt_comp2&#45;&gt;mnt_comp3 -->
<g id="edge41" class="edge">
<title>mnt_comp2&#45;&gt;mnt_comp3</title>
<path fill="none" stroke="black" stroke-width="1.2" d="M881.32,-217.87C892.2,-213.42 903.97,-208.6 915.25,-203.99"/>
<polygon fill="black" stroke="black" stroke-width="1.2" points="916.64,-207.2 924.57,-200.18 913.99,-200.72 916.64,-207.2"/>
</g>
<!-- mnt_comp2&#45;&gt;mnt_comp4 -->
<g id="edge42" class="edge">
<title>mnt_comp2&#45;&gt;mnt_comp4</title>
<path fill="none" stroke="black" stroke-width="1.2" d="M885.03,-236C893.31,-236 902,-236 910.52,-236"/>
<polygon fill="black" stroke="black" stroke-width="1.2" points="910.79,-239.5 920.79,-236 910.79,-232.5 910.79,-239.5"/>
</g>
<!-- mnt_comp3&#45;&gt;volt -->
<g id="edge7" class="edge">
<title>mnt_comp3&#45;&gt;volt</title>
<path fill="none" stroke="black" stroke-width="1.2" d="M955.91,-163.88C920.98,-117.85 820.38,0 706,0 244.5,0 244.5,0 244.5,0 39.31,0 26.71,-361.46 27.38,-466.62"/>
<polygon fill="black" stroke="black" stroke-width="1.2" points="23.89,-466.84 27.5,-476.8 30.89,-466.76 23.89,-466.84"/>
</g>
<!-- mnt_comp3&#45;&gt;mnt_comp1 -->
<g id="edge38" class="edge">
<title>mnt_comp3&#45;&gt;mnt_comp1</title>
<path fill="none" stroke="black" stroke-width="1.2" d="M1005.1,-200.04C1009.86,-202.89 1014.62,-205.92 1019,-209 1039.49,-223.44 1060.79,-242 1076.82,-256.79"/>
<polygon fill="black" stroke="black" stroke-width="1.2" points="1074.54,-259.45 1084.23,-263.71 1079.31,-254.33 1074.54,-259.45"/>
</g>
<!-- mnt_comp4&#45;&gt;mnt_comp1 -->
<g id="edge39" class="edge">
<title>mnt_comp4&#45;&gt;mnt_comp1</title>
<path fill="none" stroke="black" stroke-width="1.2" d="M1019.03,-252.74C1027.49,-255.69 1036.38,-258.78 1045.08,-261.82"/>
<polygon fill="black" stroke="black" stroke-width="1.2" points="1044.19,-265.21 1054.79,-265.2 1046.49,-258.6 1044.19,-265.21"/>
</g>
<!-- fail_comp1&#45;&gt;pressure -->
<g id="edge24" class="edge">
<title>fail_comp1&#45;&gt;pressure</title>
<path fill="none" stroke="black" stroke-width="1.2" d="M530.86,-99.21C437.31,-131.02 228.81,-203.47 203,-226 177.83,-247.97 183.25,-262.81 167,-292 159.87,-304.81 151.85,-318.95 145.07,-330.85"/>
<polygon fill="black" stroke="black" stroke-width="1.2" points="141.85,-329.42 139.93,-339.84 147.93,-332.89 141.85,-329.42"/>
</g>
<!-- fail_comp1&#45;&gt;fail_comp2 -->
<g id="edge46" class="edge">
<title>fail_comp1&#45;&gt;fail_comp2</title>
<path fill="none" stroke="black" stroke-width="1.2" d="M623.13,-84C631.37,-84 640.04,-84 648.53,-84"/>
<polygon fill="black" stroke="black" stroke-width="1.2" points="648.76,-87.5 658.76,-84 648.76,-80.5 648.76,-87.5"/>
</g>
<!-- fail_comp2&#45;&gt;pressure -->
<g id="edge25" class="edge">
<title>fail_comp2&#45;&gt;pressure</title>
<path fill="none" stroke="black" stroke-width="1.2" d="M658.81,-66.09C647.31,-62.33 634.85,-58.92 623,-57 436.06,-26.66 343.09,-1.56 203,-129 144.71,-182.03 132.42,-281.33 129.98,-329.86"/>
<polygon fill="black" stroke="black" stroke-width="1.2" points="126.48,-329.82 129.58,-339.95 133.48,-330.1 126.48,-329.82"/>
</g>
<!-- fail_comp2&#45;&gt;mnt_comp1 -->
<g id="edge40" class="edge">
<title>fail_comp2&#45;&gt;mnt_comp1</title>
<path fill="none" stroke="black" stroke-width="1.2" d="M751.1,-84C815.94,-86.11 936.72,-98.13 1019,-155 1054.75,-179.71 1079.23,-225.07 1092.17,-254.35"/>
<polygon fill="black" stroke="black" stroke-width="1.2" points="1088.97,-255.79 1096.11,-263.62 1095.41,-253.05 1088.97,-255.79"/>
</g>
<!-- fail_comp2&#45;&gt;mnt_comp2 -->
<g id="edge43" class="edge">
<title>fail_comp2&#45;&gt;mnt_comp2</title>
<path fill="none" stroke="black" stroke-width="1.2" d="M714.21,-102.08C726.81,-128.28 753.07,-177.13 787,-209 787.94,-209.88 788.92,-210.75 789.92,-211.6"/>
<polygon fill="black" stroke="black" stroke-width="1.2" points="787.96,-214.5 798.05,-217.71 792.17,-208.91 787.96,-214.5"/>
</g>
<!-- fail_comp4&#45;&gt;mnt_comp3 -->
<g id="edge44" class="edge">
<title>fail_comp4&#45;&gt;mnt_comp3</title>
<path fill="none" stroke="black" stroke-width="1.2" d="M882.06,-182C891.27,-182 901.09,-182 910.7,-182"/>
<polygon fill="black" stroke="black" stroke-width="1.2" points="910.99,-185.5 920.99,-182 910.99,-178.5 910.99,-185.5"/>
</g>
<!-- fail_comp4&#45;&gt;mnt_comp4 -->
<g id="edge45" class="edge">
<title>fail_comp4&#45;&gt;mnt_comp4</title>
<path fill="none" stroke="black" stroke-width="1.2" d="M881.32,-200.13C892.2,-204.58 903.97,-209.4 915.25,-214.01"/>
<polygon fill="black" stroke="black" stroke-width="1.2" points="913.99,-217.28 924.57,-217.82 916.64,-210.8 913.99,-217.28"/>
</g>
</g>
</svg>
