<?xml version="1.0" encoding="UTF-8" standalone="no"?>
<!DOCTYPE svg PUBLIC "-//W3C//DTD SVG 1.1//EN"
 "http://www.w3.org/Graphics/SVG/1.1/DTD/svg11.dtd">
<!-- Generated by graphviz version 2.50.0 (0)
 -->
<!-- Title: G Pages: 1 -->
<svg width="454pt" height="124pt"
 viewBox="0.00 0.00 454.00 124.00" xmlns="http://www.w3.org/2000/svg" xmlns:xlink="http://www.w3.org/1999/xlink">
<g id="graph0" class="graph" transform="scale(1 1) rotate(0) translate(4 120)">
<title>G</title>
<polygon fill="white" stroke="transparent" points="-4,4 -4,-120 450,-120 450,4 -4,4"/>
<text text-anchor="middle" x="223" y="-99.2" font-family="Times,serif" font-size="16.00">model=model2/nbcb_w_telemetry.json [machine 47]</text>
<!-- volt -->
<g id="node1" class="node">
<title>volt</title>
<path fill="white" stroke="black" d="M124.5,-59C124.5,-59 94.5,-59 94.5,-59 88.5,-59 82.5,-53 82.5,-47 82.5,-47 82.5,-35 82.5,-35 82.5,-29 88.5,-23 94.5,-23 94.5,-23 124.5,-23 124.5,-23 130.5,-23 136.5,-29 136.5,-35 136.5,-35 136.5,-47 136.5,-47 136.5,-53 130.5,-59 124.5,-59"/>
<text text-anchor="middle" x="109.5" y="-37.3" font-family="Helvetica,sans-Serif" font-size="14.00">volt</text>
</g>
<!-- vibration -->
<g id="node4" class="node">
<title>vibration</title>
<path fill="white" stroke="black" d="M238.5,-82C238.5,-82 184.5,-82 184.5,-82 178.5,-82 172.5,-76 172.5,-70 172.5,-70 172.5,-58 172.5,-58 172.5,-52 178.5,-46 184.5,-46 184.5,-46 238.5,-46 238.5,-46 244.5,-46 250.5,-52 250.5,-58 250.5,-58 250.5,-70 250.5,-70 250.5,-76 244.5,-82 238.5,-82"/>
<text text-anchor="middle" x="211.5" y="-60.3" font-family="Helvetica,sans-Serif" font-size="14.00">vibration</text>
</g>
<!-- volt&#45;&gt;vibration -->
<g id="edge2" class="edge">
<title>volt&#45;&gt;vibration</title>
<path fill="none" stroke="black" stroke-width="1.2" d="M136.51,-46.98C144.42,-48.8 153.37,-50.86 162.25,-52.9"/>
<polygon fill="black" stroke="black" stroke-width="1.2" points="161.65,-56.36 172.18,-55.19 163.22,-49.53 161.65,-56.36"/>
</g>
<!-- rotate -->
<g id="node2" class="node">
<title>rotate</title>
<path fill="white" stroke="black" d="M341.5,-90C341.5,-90 308.5,-90 308.5,-90 302.5,-90 296.5,-84 296.5,-78 296.5,-78 296.5,-66 296.5,-66 296.5,-60 302.5,-54 308.5,-54 308.5,-54 341.5,-54 341.5,-54 347.5,-54 353.5,-60 353.5,-66 353.5,-66 353.5,-78 353.5,-78 353.5,-84 347.5,-90 341.5,-90"/>
<text text-anchor="middle" x="325" y="-68.3" font-family="Helvetica,sans-Serif" font-size="14.00">rotate</text>
</g>
<!-- pressure -->
<g id="node3" class="node">
<title>pressure</title>
<path fill="white" stroke="black" d="M351.5,-36C351.5,-36 298.5,-36 298.5,-36 292.5,-36 286.5,-30 286.5,-24 286.5,-24 286.5,-12 286.5,-12 286.5,-6 292.5,0 298.5,0 298.5,0 351.5,0 351.5,0 357.5,0 363.5,-6 363.5,-12 363.5,-12 363.5,-24 363.5,-24 363.5,-30 357.5,-36 351.5,-36"/>
<text text-anchor="middle" x="325" y="-14.3" font-family="Helvetica,sans-Serif" font-size="14.00">pressure</text>
</g>
<!-- pressure&#45;&gt;volt -->
<g id="edge1" class="edge">
<title>pressure&#45;&gt;volt</title>
<path fill="none" stroke="black" stroke-width="1.2" d="M286.46,-22.04C247.18,-26.28 185.92,-32.88 147.02,-37.07"/>
<polygon fill="black" stroke="black" stroke-width="1.2" points="146.25,-33.63 136.68,-38.18 147,-40.59 146.25,-33.63"/>
</g>
<!-- vibration&#45;&gt;rotate -->
<g id="edge3" class="edge">
<title>vibration&#45;&gt;rotate</title>
<path fill="none" stroke="black" stroke-width="1.2" d="M250.56,-66.73C262.06,-67.56 274.67,-68.46 286.15,-69.28"/>
<polygon fill="black" stroke="black" stroke-width="1.2" points="286.09,-72.79 296.31,-70.01 286.59,-65.81 286.09,-72.79"/>
</g>
<!-- vibration&#45;&gt;pressure -->
<g id="edge4" class="edge">
<title>vibration&#45;&gt;pressure</title>
<path fill="none" stroke="black" stroke-width="1.2" d="M250.56,-48.3C259.08,-44.78 268.23,-41.01 277.06,-37.36"/>
<polygon fill="black" stroke="black" stroke-width="1.2" points="278.58,-40.52 286.49,-33.48 275.91,-34.05 278.58,-40.52"/>
</g>
</g>
</svg>
