<?xml version="1.0" encoding="UTF-8" standalone="no"?>
<!DOCTYPE svg PUBLIC "-//W3C//DTD SVG 1.1//EN"
 "http://www.w3.org/Graphics/SVG/1.1/DTD/svg11.dtd">
<!-- Generated by graphviz version 2.50.0 (0)
 -->
<!-- Title: G Pages: 1 -->
<svg width="1416pt" height="848pt"
 viewBox="0.00 0.00 1416.00 848.00" xmlns="http://www.w3.org/2000/svg" xmlns:xlink="http://www.w3.org/1999/xlink">
<g id="graph0" class="graph" transform="scale(1 1) rotate(0) translate(4 844)">
<title>G</title>
<polygon fill="white" stroke="transparent" points="-4,4 -4,-844 1412,-844 1412,4 -4,4"/>
<text text-anchor="middle" x="704" y="-823.2" font-family="Times,serif" font-size="16.00">model=model1/nbcb_w_mixed.json [machine 24]</text>
<!-- volt -->
<g id="node1" class="node">
<title>volt</title>
<path fill="white" stroke="black" d="M42,-387C42,-387 12,-387 12,-387 6,-387 0,-381 0,-375 0,-375 0,-363 0,-363 0,-357 6,-351 12,-351 12,-351 42,-351 42,-351 48,-351 54,-357 54,-363 54,-363 54,-375 54,-375 54,-381 48,-387 42,-387"/>
<text text-anchor="middle" x="27" y="-365.3" font-family="Helvetica,sans-Serif" font-size="14.00">volt</text>
</g>
<!-- rotate -->
<g id="node2" class="node">
<title>rotate</title>
<path fill="white" stroke="black" d="M135,-452C135,-452 102,-452 102,-452 96,-452 90,-446 90,-440 90,-440 90,-428 90,-428 90,-422 96,-416 102,-416 102,-416 135,-416 135,-416 141,-416 147,-422 147,-428 147,-428 147,-440 147,-440 147,-446 141,-452 135,-452"/>
<text text-anchor="middle" x="118.5" y="-430.3" font-family="Helvetica,sans-Serif" font-size="14.00">rotate</text>
</g>
<!-- volt&#45;&gt;rotate -->
<g id="edge1" class="edge">
<title>volt&#45;&gt;rotate</title>
<path fill="none" stroke="black" stroke-width="1.2" d="M61.08,-393.02C68.6,-398.49 76.59,-404.29 84.13,-409.76"/>
<polygon fill="black" stroke="black" stroke-width="1.2" points="63.08,-390.15 52.93,-387.11 58.97,-395.81 63.08,-390.15"/>
<polygon fill="black" stroke="black" stroke-width="1.2" points="82.55,-412.95 92.7,-415.99 86.67,-407.28 82.55,-412.95"/>
</g>
<!-- pressure -->
<g id="node3" class="node">
<title>pressure</title>
<path fill="white" stroke="black" d="M369,-246C369,-246 316,-246 316,-246 310,-246 304,-240 304,-234 304,-234 304,-222 304,-222 304,-216 310,-210 316,-210 316,-210 369,-210 369,-210 375,-210 381,-216 381,-222 381,-222 381,-234 381,-234 381,-240 375,-246 369,-246"/>
<text text-anchor="middle" x="342.5" y="-224.3" font-family="Helvetica,sans-Serif" font-size="14.00">pressure</text>
</g>
<!-- volt&#45;&gt;pressure -->
<g id="edge2" class="edge">
<title>volt&#45;&gt;pressure</title>
<path fill="none" stroke="black" stroke-width="1.2" d="M38.03,-350.83C48.73,-332.99 67.27,-306.17 90,-290 151.27,-246.4 239.81,-233.31 293.85,-229.47"/>
<polygon fill="black" stroke="black" stroke-width="1.2" points="294.09,-232.96 303.85,-228.84 293.65,-225.97 294.09,-232.96"/>
</g>
<!-- vibration -->
<g id="node4" class="node">
<title>vibration</title>
<path fill="white" stroke="black" d="M879,-608C879,-608 825,-608 825,-608 819,-608 813,-602 813,-596 813,-596 813,-584 813,-584 813,-578 819,-572 825,-572 825,-572 879,-572 879,-572 885,-572 891,-578 891,-584 891,-584 891,-596 891,-596 891,-602 885,-608 879,-608"/>
<text text-anchor="middle" x="852" y="-586.3" font-family="Helvetica,sans-Serif" font-size="14.00">vibration</text>
</g>
<!-- volt&#45;&gt;vibration -->
<g id="edge3" class="edge">
<title>volt&#45;&gt;vibration</title>
<path fill="none" stroke="black" stroke-width="1.2" d="M31.48,-397.35C41.27,-462.94 75.75,-624.19 183,-685 291.03,-746.24 337.82,-700 462,-700 462,-700 462,-700 595,-700 677.54,-700 704.15,-701.82 777,-663 798.43,-651.58 817.77,-632 831.31,-615.99"/>
<polygon fill="black" stroke="black" stroke-width="1.2" points="34.93,-396.73 30.07,-387.32 28,-397.71 34.93,-396.73"/>
<polygon fill="black" stroke="black" stroke-width="1.2" points="834.21,-617.97 837.83,-608.01 828.79,-613.54 834.21,-617.97"/>
</g>
<!-- err_error1 -->
<g id="node5" class="node">
<title>err_error1</title>
<path fill="white" stroke="black" d="M493.5,-86C493.5,-86 432.5,-86 432.5,-86 426.5,-86 420.5,-80 420.5,-74 420.5,-74 420.5,-62 420.5,-62 420.5,-56 426.5,-50 432.5,-50 432.5,-50 493.5,-50 493.5,-50 499.5,-50 505.5,-56 505.5,-62 505.5,-62 505.5,-74 505.5,-74 505.5,-80 499.5,-86 493.5,-86"/>
<text text-anchor="middle" x="463" y="-64.3" font-family="Helvetica,sans-Serif" font-size="14.00">err_error1</text>
</g>
<!-- volt&#45;&gt;err_error1 -->
<g id="edge4" class="edge">
<title>volt&#45;&gt;err_error1</title>
<path fill="none" stroke="black" stroke-width="1.2" d="M30.41,-340.52C36.33,-277.92 53.81,-131.42 90,-100 179.47,-22.31 330.83,-39.25 410.09,-55.29"/>
<polygon fill="black" stroke="black" stroke-width="1.2" points="26.89,-340.57 29.47,-350.84 33.86,-341.2 26.89,-340.57"/>
<polygon fill="black" stroke="black" stroke-width="1.2" points="409.81,-58.81 420.31,-57.44 411.24,-51.96 409.81,-58.81"/>
</g>
<!-- err_error3 -->
<g id="node7" class="node">
<title>err_error3</title>
<path fill="white" stroke="black" d="M256,-676C256,-676 195,-676 195,-676 189,-676 183,-670 183,-664 183,-664 183,-652 183,-652 183,-646 189,-640 195,-640 195,-640 256,-640 256,-640 262,-640 268,-646 268,-652 268,-652 268,-664 268,-664 268,-670 262,-676 256,-676"/>
<text text-anchor="middle" x="225.5" y="-654.3" font-family="Helvetica,sans-Serif" font-size="14.00">err_error3</text>
</g>
<!-- volt&#45;&gt;err_error3 -->
<g id="edge5" class="edge">
<title>volt&#45;&gt;err_error3</title>
<path fill="none" stroke="black" stroke-width="1.2" d="M35.98,-387.01C56.11,-431.15 112.42,-546.87 183,-626 185.18,-628.44 187.57,-630.83 190.06,-633.14"/>
<polygon fill="black" stroke="black" stroke-width="1.2" points="187.89,-635.89 197.76,-639.75 192.45,-630.58 187.89,-635.89"/>
</g>
<!-- mnt_comp2 -->
<g id="node11" class="node">
<title>mnt_comp2</title>
<path fill="white" stroke="black" d="M1275,-357C1275,-357 1201,-357 1201,-357 1195,-357 1189,-351 1189,-345 1189,-345 1189,-333 1189,-333 1189,-327 1195,-321 1201,-321 1201,-321 1275,-321 1275,-321 1281,-321 1287,-327 1287,-333 1287,-333 1287,-345 1287,-345 1287,-351 1281,-357 1275,-357"/>
<text text-anchor="middle" x="1238" y="-335.3" font-family="Helvetica,sans-Serif" font-size="14.00">mnt_comp2</text>
</g>
<!-- volt&#45;&gt;mnt_comp2 -->
<g id="edge7" class="edge">
<title>volt&#45;&gt;mnt_comp2</title>
<path fill="none" stroke="black" stroke-width="1.2" d="M35.15,-340.87C53.89,-274.55 110.97,-114 224.5,-114 224.5,-114 224.5,-114 729,-114 921.74,-114 995.24,-94.27 1153,-205 1190.52,-231.33 1214.82,-280.3 1227.2,-311.19"/>
<polygon fill="black" stroke="black" stroke-width="1.2" points="31.74,-340.09 32.47,-350.66 38.49,-341.94 31.74,-340.09"/>
<polygon fill="black" stroke="black" stroke-width="1.2" points="1223.93,-312.46 1230.79,-320.53 1230.46,-309.94 1223.93,-312.46"/>
</g>
<!-- fail_comp1 -->
<g id="node14" class="node">
<title>fail_comp1</title>
<path fill="white" stroke="black" d="M1007,-292C1007,-292 939,-292 939,-292 933,-292 927,-286 927,-280 927,-280 927,-268 927,-268 927,-262 933,-256 939,-256 939,-256 1007,-256 1007,-256 1013,-256 1019,-262 1019,-268 1019,-268 1019,-280 1019,-280 1019,-286 1013,-292 1007,-292"/>
<text text-anchor="middle" x="973" y="-270.3" font-family="Helvetica,sans-Serif" font-size="14.00">fail_comp1</text>
</g>
<!-- volt&#45;&gt;fail_comp1 -->
<g id="edge9" class="edge">
<title>volt&#45;&gt;fail_comp1</title>
<path fill="none" stroke="black" stroke-width="1.2" d="M30.5,-340.25C36.89,-272.5 55.82,-105.23 90,-62 130.83,-10.37 158.68,0 224.5,0 224.5,0 224.5,0 464,0 671.93,0 876.54,-180.02 946.6,-248.23"/>
<polygon fill="black" stroke="black" stroke-width="1.2" points="26.98,-340.33 29.54,-350.61 33.95,-340.97 26.98,-340.33"/>
<polygon fill="black" stroke="black" stroke-width="1.2" points="944.51,-251.08 954.09,-255.6 949.42,-246.09 944.51,-251.08"/>
</g>
<!-- err_error2 -->
<g id="node6" class="node">
<title>err_error2</title>
<path fill="white" stroke="black" d="M256,-368C256,-368 195,-368 195,-368 189,-368 183,-362 183,-356 183,-356 183,-344 183,-344 183,-338 189,-332 195,-332 195,-332 256,-332 256,-332 262,-332 268,-338 268,-344 268,-344 268,-356 268,-356 268,-362 262,-368 256,-368"/>
<text text-anchor="middle" x="225.5" y="-346.3" font-family="Helvetica,sans-Serif" font-size="14.00">err_error2</text>
</g>
<!-- rotate&#45;&gt;err_error2 -->
<g id="edge13" class="edge">
<title>rotate&#45;&gt;err_error2</title>
<path fill="none" stroke="black" stroke-width="1.2" d="M149.2,-409.38C159.81,-400.66 171.89,-390.83 183,-382 186.12,-379.52 189.38,-376.96 192.65,-374.41"/>
<polygon fill="black" stroke="black" stroke-width="1.2" points="146.91,-406.73 141.41,-415.79 151.36,-412.14 146.91,-406.73"/>
<polygon fill="black" stroke="black" stroke-width="1.2" points="194.95,-377.05 200.71,-368.16 190.66,-371.52 194.95,-377.05"/>
</g>
<!-- rotate&#45;&gt;err_error3 -->
<g id="edge14" class="edge">
<title>rotate&#45;&gt;err_error3</title>
<path fill="none" stroke="black" stroke-width="1.2" d="M121.9,-452.27C127.37,-488.4 143.51,-570.29 183,-626 184.68,-628.37 186.58,-630.64 188.63,-632.8"/>
<polygon fill="black" stroke="black" stroke-width="1.2" points="186.33,-635.45 196.02,-639.74 191.12,-630.34 186.33,-635.45"/>
</g>
<!-- err_error4 -->
<g id="node8" class="node">
<title>err_error4</title>
<path fill="white" stroke="black" d="M1396,-132C1396,-132 1335,-132 1335,-132 1329,-132 1323,-126 1323,-120 1323,-120 1323,-108 1323,-108 1323,-102 1329,-96 1335,-96 1335,-96 1396,-96 1396,-96 1402,-96 1408,-102 1408,-108 1408,-108 1408,-120 1408,-120 1408,-126 1402,-132 1396,-132"/>
<text text-anchor="middle" x="1365.5" y="-110.3" font-family="Helvetica,sans-Serif" font-size="14.00">err_error4</text>
</g>
<!-- rotate&#45;&gt;err_error4 -->
<g id="edge15" class="edge">
<title>rotate&#45;&gt;err_error4</title>
<path fill="none" stroke="black" stroke-width="1.2" d="M129.01,-452.03C143.19,-478.57 169.66,-526.56 183,-541 234.5,-596.75 386.1,-738 462,-738 462,-738 462,-738 1105,-738 1235.97,-738 1335.87,-263.39 1359.28,-142.01"/>
<polygon fill="black" stroke="black" stroke-width="1.2" points="1362.75,-142.48 1361.19,-132 1355.88,-141.17 1362.75,-142.48"/>
</g>
<!-- rotate&#45;&gt;mnt_comp2 -->
<g id="edge16" class="edge">
<title>rotate&#45;&gt;mnt_comp2</title>
<path fill="none" stroke="black" stroke-width="1.2" d="M147.19,-434C189.19,-434 271.55,-434 341.5,-434 341.5,-434 341.5,-434 595,-434 845,-434 908.11,-413.26 1153,-363 1161.53,-361.25 1170.45,-359.08 1179.17,-356.76"/>
<polygon fill="black" stroke="black" stroke-width="1.2" points="1180.17,-360.12 1188.89,-354.1 1178.32,-353.36 1180.17,-360.12"/>
</g>
<!-- rotate&#45;&gt;fail_comp1 -->
<g id="edge17" class="edge">
<title>rotate&#45;&gt;fail_comp1</title>
<path fill="none" stroke="black" stroke-width="1.2" d="M147.11,-427.64C240.36,-406.33 552.35,-336.4 813,-294 847.42,-288.4 886.24,-283.49 916.91,-279.94"/>
<polygon fill="black" stroke="black" stroke-width="1.2" points="917.45,-283.4 926.99,-278.78 916.65,-276.44 917.45,-283.4"/>
</g>
<!-- pressure&#45;&gt;rotate -->
<g id="edge11" class="edge">
<title>pressure&#45;&gt;rotate</title>
<path fill="none" stroke="black" stroke-width="1.2" d="M303.87,-243.8C269.22,-259.8 218.03,-287.25 183,-323 159.24,-347.25 141.2,-382.14 130.54,-406.3"/>
<polygon fill="black" stroke="black" stroke-width="1.2" points="127.26,-405.05 126.55,-415.62 133.7,-407.8 127.26,-405.05"/>
</g>
<!-- pressure&#45;&gt;err_error1 -->
<g id="edge19" class="edge">
<title>pressure&#45;&gt;err_error1</title>
<path fill="none" stroke="black" stroke-width="1.2" d="M356.86,-209.96C377.76,-181.75 418.26,-127.06 442.44,-94.41"/>
<polygon fill="black" stroke="black" stroke-width="1.2" points="445.36,-96.34 448.5,-86.22 439.74,-92.18 445.36,-96.34"/>
</g>
<!-- pressure&#45;&gt;err_error4 -->
<g id="edge21" class="edge">
<title>pressure&#45;&gt;err_error4</title>
<path fill="none" stroke="black" stroke-width="1.2" d="M377.67,-204.23C442.57,-161.47 589.51,-76 727,-76 727,-76 727,-76 1105,-76 1177.78,-76 1260.84,-90.81 1312.97,-101.94"/>
<polygon fill="black" stroke="black" stroke-width="1.2" points="375.44,-201.51 369.06,-209.97 379.33,-207.33 375.44,-201.51"/>
<polygon fill="black" stroke="black" stroke-width="1.2" points="1312.46,-105.41 1322.98,-104.12 1313.95,-98.57 1312.46,-105.41"/>
</g>
<!-- pressure&#45;&gt;mnt_comp2 -->
<g id="edge22" class="edge">
<title>pressure&#45;&gt;mnt_comp2</title>
<path fill="none" stroke="black" stroke-width="1.2" d="M381.27,-218.61C429.91,-207.35 517.2,-190 593,-190 593,-190 593,-190 974,-190 1073.01,-190 1168.93,-270.93 1212.54,-313.5"/>
<polygon fill="black" stroke="black" stroke-width="1.2" points="1210.26,-316.17 1219.82,-320.73 1215.19,-311.2 1210.26,-316.17"/>
</g>
<!-- pressure&#45;&gt;fail_comp1 -->
<g id="edge23" class="edge">
<title>pressure&#45;&gt;fail_comp1</title>
<path fill="none" stroke="black" stroke-width="1.2" d="M381.12,-228C429.96,-228 517.85,-228 593,-228 593,-228 593,-228 729,-228 794.48,-228 868.17,-244.32 917.06,-257.52"/>
<polygon fill="black" stroke="black" stroke-width="1.2" points="916.23,-260.92 926.8,-260.2 918.09,-254.17 916.23,-260.92"/>
</g>
<!-- fail_comp3 -->
<g id="node15" class="node">
<title>fail_comp3</title>
<path fill="white" stroke="black" d="M497,-498C497,-498 429,-498 429,-498 423,-498 417,-492 417,-486 417,-486 417,-474 417,-474 417,-468 423,-462 429,-462 429,-462 497,-462 497,-462 503,-462 509,-468 509,-474 509,-474 509,-486 509,-486 509,-492 503,-498 497,-498"/>
<text text-anchor="middle" x="463" y="-476.3" font-family="Helvetica,sans-Serif" font-size="14.00">fail_comp3</text>
</g>
<!-- pressure&#45;&gt;fail_comp3 -->
<g id="edge24" class="edge">
<title>pressure&#45;&gt;fail_comp3</title>
<path fill="none" stroke="black" stroke-width="1.2" d="M352.02,-246.12C372.51,-289.7 424.64,-400.56 449.04,-452.44"/>
<polygon fill="black" stroke="black" stroke-width="1.2" points="445.97,-454.14 453.4,-461.7 452.31,-451.16 445.97,-454.14"/>
</g>
<!-- vibration&#45;&gt;rotate -->
<g id="edge12" class="edge">
<title>vibration&#45;&gt;rotate</title>
<path fill="none" stroke="black" stroke-width="1.2" d="M812.61,-598.32C762.72,-608.38 672.79,-624 595,-624 462,-624 462,-624 462,-624 327.84,-624 197.04,-511.15 144.11,-459.39"/>
<polygon fill="black" stroke="black" stroke-width="1.2" points="146.44,-456.77 136.87,-452.22 141.51,-461.74 146.44,-456.77"/>
</g>
<!-- vibration&#45;&gt;err_error2 -->
<g id="edge25" class="edge">
<title>vibration&#45;&gt;err_error2</title>
<path fill="none" stroke="black" stroke-width="1.2" d="M802.67,-588.8C751.21,-587.62 667.36,-586 595,-586 462,-586 462,-586 462,-586 345.25,-586 266.27,-439.48 238.03,-377.34"/>
<polygon fill="black" stroke="black" stroke-width="1.2" points="802.76,-592.3 812.84,-589.03 802.92,-585.3 802.76,-592.3"/>
<polygon fill="black" stroke="black" stroke-width="1.2" points="241.19,-375.84 233.93,-368.13 234.8,-378.69 241.19,-375.84"/>
</g>
<!-- err_error5 -->
<g id="node9" class="node">
<title>err_error5</title>
<path fill="white" stroke="black" d="M1003.5,-612C1003.5,-612 942.5,-612 942.5,-612 936.5,-612 930.5,-606 930.5,-600 930.5,-600 930.5,-588 930.5,-588 930.5,-582 936.5,-576 942.5,-576 942.5,-576 1003.5,-576 1003.5,-576 1009.5,-576 1015.5,-582 1015.5,-588 1015.5,-588 1015.5,-600 1015.5,-600 1015.5,-606 1009.5,-612 1003.5,-612"/>
<text text-anchor="middle" x="973" y="-590.3" font-family="Helvetica,sans-Serif" font-size="14.00">err_error5</text>
</g>
<!-- vibration&#45;&gt;err_error5 -->
<g id="edge27" class="edge">
<title>vibration&#45;&gt;err_error5</title>
<path fill="none" stroke="black" stroke-width="1.2" d="M901.52,-591.63C907.68,-591.84 913.99,-592.05 920.19,-592.26"/>
<polygon fill="black" stroke="black" stroke-width="1.2" points="901.42,-588.13 891.31,-591.29 901.18,-595.12 901.42,-588.13"/>
<polygon fill="black" stroke="black" stroke-width="1.2" points="920.36,-595.77 930.47,-592.6 920.6,-588.77 920.36,-595.77"/>
</g>
<!-- mnt_comp4 -->
<g id="node13" class="node">
<title>mnt_comp4</title>
<path fill="white" stroke="black" d="M1141,-608C1141,-608 1067,-608 1067,-608 1061,-608 1055,-602 1055,-596 1055,-596 1055,-584 1055,-584 1055,-578 1061,-572 1067,-572 1067,-572 1141,-572 1141,-572 1147,-572 1153,-578 1153,-584 1153,-584 1153,-596 1153,-596 1153,-602 1147,-608 1141,-608"/>
<text text-anchor="middle" x="1104" y="-586.3" font-family="Helvetica,sans-Serif" font-size="14.00">mnt_comp4</text>
</g>
<!-- vibration&#45;&gt;mnt_comp4 -->
<g id="edge29" class="edge">
<title>vibration&#45;&gt;mnt_comp4</title>
<path fill="none" stroke="black" stroke-width="1.2" d="M897.49,-611.96C907.01,-615.71 917.17,-619.02 927,-621 967.09,-629.06 978.75,-628.19 1019,-621 1030.36,-618.97 1042.2,-615.51 1053.28,-611.62"/>
<polygon fill="black" stroke="black" stroke-width="1.2" points="898.8,-608.71 888.22,-608.1 896.11,-615.18 898.8,-608.71"/>
<polygon fill="black" stroke="black" stroke-width="1.2" points="1054.62,-614.86 1062.79,-608.12 1052.2,-608.29 1054.62,-614.86"/>
</g>
<!-- vibration&#45;&gt;fail_comp1 -->
<g id="edge30" class="edge">
<title>vibration&#45;&gt;fail_comp1</title>
<path fill="none" stroke="black" stroke-width="1.2" d="M863.44,-562.28C886.01,-502.34 939.12,-361.3 961.63,-301.54"/>
<polygon fill="black" stroke="black" stroke-width="1.2" points="860.16,-561.05 859.91,-571.64 866.71,-563.52 860.16,-561.05"/>
<polygon fill="black" stroke="black" stroke-width="1.2" points="964.97,-302.6 965.22,-292.01 958.42,-300.14 964.97,-302.6"/>
</g>
<!-- fail_comp4 -->
<g id="node16" class="node">
<title>fail_comp4</title>
<path fill="white" stroke="black" d="M1007,-558C1007,-558 939,-558 939,-558 933,-558 927,-552 927,-546 927,-546 927,-534 927,-534 927,-528 933,-522 939,-522 939,-522 1007,-522 1007,-522 1013,-522 1019,-528 1019,-534 1019,-534 1019,-546 1019,-546 1019,-552 1013,-558 1007,-558"/>
<text text-anchor="middle" x="973" y="-536.3" font-family="Helvetica,sans-Serif" font-size="14.00">fail_comp4</text>
</g>
<!-- vibration&#45;&gt;fail_comp4 -->
<g id="edge32" class="edge">
<title>vibration&#45;&gt;fail_comp4</title>
<path fill="none" stroke="black" stroke-width="1.2" d="M891.31,-573.9C900.28,-570.14 909.98,-566.06 919.45,-562.08"/>
<polygon fill="black" stroke="black" stroke-width="1.2" points="920.94,-565.25 928.81,-558.15 918.23,-558.8 920.94,-565.25"/>
</g>
<!-- err_error1&#45;&gt;err_error4 -->
<g id="edge33" class="edge">
<title>err_error1&#45;&gt;err_error4</title>
<path fill="none" stroke="black" stroke-width="1.2" d="M505.67,-55.76C576.13,-36.19 723.61,0 851,0 851,0 851,0 1105,0 1193.71,0 1286.17,-56.53 1333.1,-89.98"/>
<polygon fill="black" stroke="black" stroke-width="1.2" points="1331.18,-92.9 1341.33,-95.94 1335.28,-87.24 1331.18,-92.9"/>
</g>
<!-- err_error2&#45;&gt;pressure -->
<g id="edge20" class="edge">
<title>err_error2&#45;&gt;pressure</title>
<path fill="none" stroke="black" stroke-width="1.2" d="M243.47,-332C263,-311.28 295.24,-277.08 317.37,-253.59"/>
<polygon fill="black" stroke="black" stroke-width="1.2" points="320.15,-255.75 324.46,-246.08 315.06,-250.95 320.15,-255.75"/>
</g>
<!-- err_error3&#45;&gt;vibration -->
<g id="edge26" class="edge">
<title>err_error3&#45;&gt;vibration</title>
<path fill="none" stroke="black" stroke-width="1.2" d="M268.19,-659.14C315.25,-660.32 394.12,-662 462,-662 462,-662 462,-662 595,-662 676.59,-662 700.45,-666.23 777,-638 792.29,-632.36 807.66,-623.11 820.4,-614.23"/>
<polygon fill="black" stroke="black" stroke-width="1.2" points="822.7,-616.88 828.76,-608.19 818.61,-611.21 822.7,-616.88"/>
</g>
<!-- mnt_comp1 -->
<g id="node10" class="node">
<title>mnt_comp1</title>
<path fill="white" stroke="black" d="M765,-398C765,-398 691,-398 691,-398 685,-398 679,-392 679,-386 679,-386 679,-374 679,-374 679,-368 685,-362 691,-362 691,-362 765,-362 765,-362 771,-362 777,-368 777,-374 777,-374 777,-386 777,-386 777,-392 771,-398 765,-398"/>
<text text-anchor="middle" x="728" y="-376.3" font-family="Helvetica,sans-Serif" font-size="14.00">mnt_comp1</text>
</g>
<!-- mnt_comp1&#45;&gt;volt -->
<g id="edge6" class="edge">
<title>mnt_comp1&#45;&gt;volt</title>
<path fill="none" stroke="black" stroke-width="1.2" d="M689.65,-361.99C639.53,-339.51 547.17,-304 464,-304 224.5,-304 224.5,-304 224.5,-304 165.7,-304 101.79,-330.56 63.32,-349.72"/>
<polygon fill="black" stroke="black" stroke-width="1.2" points="61.43,-346.76 54.11,-354.41 64.61,-352.99 61.43,-346.76"/>
</g>
<!-- mnt_comp1&#45;&gt;vibration -->
<g id="edge28" class="edge">
<title>mnt_comp1&#45;&gt;vibration</title>
<path fill="none" stroke="black" stroke-width="1.2" d="M739.61,-398.27C761.16,-435.36 810.13,-519.66 835.35,-563.06"/>
<polygon fill="black" stroke="black" stroke-width="1.2" points="832.45,-565.03 840.5,-571.92 838.5,-561.52 832.45,-565.03"/>
</g>
<!-- mnt_comp1&#45;&gt;err_error4 -->
<g id="edge34" class="edge">
<title>mnt_comp1&#45;&gt;err_error4</title>
<path fill="none" stroke="black" stroke-width="1.2" d="M777.06,-370.47C835.49,-358.07 936.53,-334.04 1019,-301 1136.98,-253.74 1266.25,-176.2 1327.88,-137.51"/>
<polygon fill="black" stroke="black" stroke-width="1.2" points="1329.88,-140.38 1336.47,-132.09 1326.15,-134.46 1329.88,-140.38"/>
</g>
<!-- mnt_comp1&#45;&gt;mnt_comp2 -->
<g id="edge36" class="edge">
<title>mnt_comp1&#45;&gt;mnt_comp2</title>
<path fill="none" stroke="black" stroke-width="1.2" d="M777.25,-376.11C870.99,-368.54 1077.39,-351.88 1178.65,-343.71"/>
<polygon fill="black" stroke="black" stroke-width="1.2" points="1179.02,-347.19 1188.7,-342.9 1178.45,-340.21 1179.02,-347.19"/>
</g>
<!-- mnt_comp2&#45;&gt;err_error4 -->
<g id="edge35" class="edge">
<title>mnt_comp2&#45;&gt;err_error4</title>
<path fill="none" stroke="black" stroke-width="1.2" d="M1249.06,-320.97C1271.04,-281.55 1323.48,-187.54 1349.43,-141.02"/>
<polygon fill="black" stroke="black" stroke-width="1.2" points="1352.58,-142.56 1354.39,-132.12 1346.47,-139.15 1352.58,-142.56"/>
</g>
<!-- mnt_comp3 -->
<g id="node12" class="node">
<title>mnt_comp3</title>
<path fill="white" stroke="black" d="M631,-498C631,-498 557,-498 557,-498 551,-498 545,-492 545,-486 545,-486 545,-474 545,-474 545,-468 551,-462 557,-462 557,-462 631,-462 631,-462 637,-462 643,-468 643,-474 643,-474 643,-486 643,-486 643,-492 637,-498 631,-498"/>
<text text-anchor="middle" x="594" y="-476.3" font-family="Helvetica,sans-Serif" font-size="14.00">mnt_comp3</text>
</g>
<!-- mnt_comp3&#45;&gt;mnt_comp1 -->
<g id="edge37" class="edge">
<title>mnt_comp3&#45;&gt;mnt_comp1</title>
<path fill="none" stroke="black" stroke-width="1.2" d="M618.9,-461.89C640.08,-445.85 671.17,-422.29 694.58,-404.56"/>
<polygon fill="black" stroke="black" stroke-width="1.2" points="696.97,-407.14 702.83,-398.31 692.74,-401.56 696.97,-407.14"/>
</g>
<!-- mnt_comp3&#45;&gt;mnt_comp2 -->
<g id="edge40" class="edge">
<title>mnt_comp3&#45;&gt;mnt_comp2</title>
<path fill="none" stroke="black" stroke-width="1.2" d="M643.23,-481.71C770.59,-485.88 1109.17,-494.48 1153,-470 1192.8,-447.77 1216.63,-397.93 1228.25,-366.54"/>
<polygon fill="black" stroke="black" stroke-width="1.2" points="1231.57,-367.65 1231.6,-357.05 1224.97,-365.32 1231.57,-367.65"/>
</g>
<!-- mnt_comp4&#45;&gt;volt -->
<g id="edge8" class="edge">
<title>mnt_comp4&#45;&gt;volt</title>
<path fill="none" stroke="black" stroke-width="1.2" d="M1087.2,-608.33C1039.22,-661.83 888.7,-814 729,-814 224.5,-814 224.5,-814 224.5,-814 154.49,-814 129.31,-789.93 90,-732 52.79,-677.17 35.19,-473.1 29.84,-397.45"/>
<polygon fill="black" stroke="black" stroke-width="1.2" points="33.31,-396.99 29.14,-387.26 26.33,-397.47 33.31,-396.99"/>
</g>
<!-- mnt_comp4&#45;&gt;mnt_comp2 -->
<g id="edge41" class="edge">
<title>mnt_comp4&#45;&gt;mnt_comp2</title>
<path fill="none" stroke="black" stroke-width="1.2" d="M1116.04,-571.96C1126.01,-555.48 1140.92,-530.35 1153,-508 1179.58,-458.81 1208.05,-400.1 1224.08,-366.42"/>
<polygon fill="black" stroke="black" stroke-width="1.2" points="1227.32,-367.75 1228.45,-357.22 1221,-364.75 1227.32,-367.75"/>
</g>
<!-- fail_comp1&#45;&gt;mnt_comp1 -->
<g id="edge38" class="edge">
<title>fail_comp1&#45;&gt;mnt_comp1</title>
<path fill="none" stroke="black" stroke-width="1.2" d="M926.73,-286.38C894.32,-295.96 850.04,-310.52 813,-328 796.01,-336.01 778.19,-346.69 763.35,-356.28"/>
<polygon fill="black" stroke="black" stroke-width="1.2" points="761.43,-353.36 754.99,-361.77 765.27,-359.21 761.43,-353.36"/>
</g>
<!-- fail_comp1&#45;&gt;mnt_comp2 -->
<g id="edge42" class="edge">
<title>fail_comp1&#45;&gt;mnt_comp2</title>
<path fill="none" stroke="black" stroke-width="1.2" d="M1019.21,-285.17C1063.36,-296.09 1130.75,-312.74 1178.86,-324.63"/>
<polygon fill="black" stroke="black" stroke-width="1.2" points="1178.27,-328.09 1188.82,-327.09 1179.95,-321.3 1178.27,-328.09"/>
</g>
<!-- fail_comp3&#45;&gt;rotate -->
<g id="edge18" class="edge">
<title>fail_comp3&#45;&gt;rotate</title>
<path fill="none" stroke="black" stroke-width="1.2" d="M416.86,-476.26C361.52,-471.35 264.99,-461.7 183,-448 174.61,-446.6 165.66,-444.81 157.2,-442.98"/>
<polygon fill="black" stroke="black" stroke-width="1.2" points="157.72,-439.51 147.2,-440.76 156.2,-446.34 157.72,-439.51"/>
</g>
<!-- fail_comp3&#45;&gt;vibration -->
<g id="edge31" class="edge">
<title>fail_comp3&#45;&gt;vibration</title>
<path fill="none" stroke="black" stroke-width="1.2" d="M509.27,-495.59C520.87,-499.45 533.36,-503.49 545,-507 635.41,-534.31 742.08,-562.29 802.61,-577.78"/>
<polygon fill="black" stroke="black" stroke-width="1.2" points="802.08,-581.26 812.64,-580.34 803.81,-574.48 802.08,-581.26"/>
</g>
<!-- fail_comp3&#45;&gt;mnt_comp3 -->
<g id="edge43" class="edge">
<title>fail_comp3&#45;&gt;mnt_comp3</title>
<path fill="none" stroke="black" stroke-width="1.2" d="M509.12,-480C517.28,-480 525.9,-480 534.38,-480"/>
<polygon fill="black" stroke="black" stroke-width="1.2" points="534.62,-483.5 544.62,-480 534.62,-476.5 534.62,-483.5"/>
</g>
<!-- fail_comp4&#45;&gt;volt -->
<g id="edge10" class="edge">
<title>fail_comp4&#45;&gt;volt</title>
<path fill="none" stroke="black" stroke-width="1.2" d="M938.46,-558C934.41,-560.77 930.49,-563.79 927,-567 906.85,-585.54 908.84,-596.22 891,-617 825.29,-693.55 829.88,-776 729,-776 224.5,-776 224.5,-776 224.5,-776 55.98,-776 31.92,-489.54 28.54,-397.27"/>
<polygon fill="black" stroke="black" stroke-width="1.2" points="32.03,-396.9 28.22,-387.01 25.03,-397.12 32.03,-396.9"/>
</g>
<!-- fail_comp4&#45;&gt;mnt_comp1 -->
<g id="edge39" class="edge">
<title>fail_comp4&#45;&gt;mnt_comp1</title>
<path fill="none" stroke="black" stroke-width="1.2" d="M944.32,-521.78C900.12,-492.67 813.61,-435.71 764.78,-403.56"/>
<polygon fill="black" stroke="black" stroke-width="1.2" points="766.68,-400.62 756.4,-398.04 762.83,-406.47 766.68,-400.62"/>
</g>
<!-- fail_comp4&#45;&gt;mnt_comp3 -->
<g id="edge44" class="edge">
<title>fail_comp4&#45;&gt;mnt_comp3</title>
<path fill="none" stroke="black" stroke-width="1.2" d="M926.8,-532.81C858.46,-521.93 728.81,-501.3 653.4,-489.29"/>
<polygon fill="black" stroke="black" stroke-width="1.2" points="653.56,-485.78 643.13,-487.66 652.46,-492.69 653.56,-485.78"/>
</g>
<!-- fail_comp4&#45;&gt;mnt_comp4 -->
<g id="edge45" class="edge">
<title>fail_comp4&#45;&gt;mnt_comp4</title>
<path fill="none" stroke="black" stroke-width="1.2" d="M1019.12,-557.49C1028.07,-560.96 1037.57,-564.64 1046.84,-568.23"/>
<polygon fill="black" stroke="black" stroke-width="1.2" points="1045.79,-571.58 1056.38,-571.93 1048.32,-565.05 1045.79,-571.58"/>
</g>
</g>
</svg>
