<?xml version="1.0" encoding="UTF-8" standalone="no"?>
<!DOCTYPE svg PUBLIC "-//W3C//DTD SVG 1.1//EN"
 "http://www.w3.org/Graphics/SVG/1.1/DTD/svg11.dtd">
<!-- Generated by graphviz version 2.50.0 (0)
 -->
<!-- Title: G Pages: 1 -->
<svg width="489pt" height="502pt"
 viewBox="0.00 0.00 489.00 502.00" xmlns="http://www.w3.org/2000/svg" xmlns:xlink="http://www.w3.org/1999/xlink">
<g id="graph0" class="graph" transform="scale(1 1) rotate(0) translate(4 498)">
<title>G</title>
<polygon fill="white" stroke="transparent" points="-4,4 -4,-498 485,-498 485,4 -4,4"/>
<text text-anchor="middle" x="240.5" y="-477.2" font-family="Times,serif" font-size="16.00">model=model4/nbcb_w_mixed.json [aggregate]</text>
<!-- err_error1 -->
<g id="node1" class="node">
<title>err_error1</title>
<path fill="white" stroke="black" d="M76.5,-36C76.5,-36 15.5,-36 15.5,-36 9.5,-36 3.5,-30 3.5,-24 3.5,-24 3.5,-12 3.5,-12 3.5,-6 9.5,0 15.5,0 15.5,0 76.5,0 76.5,0 82.5,0 88.5,-6 88.5,-12 88.5,-12 88.5,-24 88.5,-24 88.5,-30 82.5,-36 76.5,-36"/>
<text text-anchor="middle" x="46" y="-14.3" font-family="Helvetica,sans-Serif" font-size="14.00">err_error1</text>
</g>
<!-- err_error2 -->
<g id="node2" class="node">
<title>err_error2</title>
<path fill="white" stroke="black" d="M76.5,-90C76.5,-90 15.5,-90 15.5,-90 9.5,-90 3.5,-84 3.5,-78 3.5,-78 3.5,-66 3.5,-66 3.5,-60 9.5,-54 15.5,-54 15.5,-54 76.5,-54 76.5,-54 82.5,-54 88.5,-60 88.5,-66 88.5,-66 88.5,-78 88.5,-78 88.5,-84 82.5,-90 76.5,-90"/>
<text text-anchor="middle" x="46" y="-68.3" font-family="Helvetica,sans-Serif" font-size="14.00">err_error2</text>
</g>
<!-- err_error3 -->
<g id="node3" class="node">
<title>err_error3</title>
<path fill="white" stroke="black" d="M76.5,-306C76.5,-306 15.5,-306 15.5,-306 9.5,-306 3.5,-300 3.5,-294 3.5,-294 3.5,-282 3.5,-282 3.5,-276 9.5,-270 15.5,-270 15.5,-270 76.5,-270 76.5,-270 82.5,-270 88.5,-276 88.5,-282 88.5,-282 88.5,-294 88.5,-294 88.5,-300 82.5,-306 76.5,-306"/>
<text text-anchor="middle" x="46" y="-284.3" font-family="Helvetica,sans-Serif" font-size="14.00">err_error3</text>
</g>
<!-- rotate -->
<g id="node14" class="node">
<title>rotate</title>
<path fill="white" stroke="black" d="M193.5,-252C193.5,-252 160.5,-252 160.5,-252 154.5,-252 148.5,-246 148.5,-240 148.5,-240 148.5,-228 148.5,-228 148.5,-222 154.5,-216 160.5,-216 160.5,-216 193.5,-216 193.5,-216 199.5,-216 205.5,-222 205.5,-228 205.5,-228 205.5,-240 205.5,-240 205.5,-246 199.5,-252 193.5,-252"/>
<text text-anchor="middle" x="177" y="-230.3" font-family="Helvetica,sans-Serif" font-size="14.00">rotate</text>
</g>
<!-- err_error3&#45;&gt;rotate -->
<g id="edge1" class="edge">
<title>err_error3&#45;&gt;rotate</title>
<path fill="none" stroke="black" stroke-width="1.2" d="M88.53,-270.62C104.75,-263.83 123.21,-256.1 138.97,-249.5"/>
<polygon fill="black" stroke="black" stroke-width="1.2" points="140.52,-252.65 148.39,-245.56 137.82,-246.19 140.52,-252.65"/>
</g>
<!-- err_error4 -->
<g id="node4" class="node">
<title>err_error4</title>
<path fill="white" stroke="black" d="M469,-252C469,-252 408,-252 408,-252 402,-252 396,-246 396,-240 396,-240 396,-228 396,-228 396,-222 402,-216 408,-216 408,-216 469,-216 469,-216 475,-216 481,-222 481,-228 481,-228 481,-240 481,-240 481,-246 475,-252 469,-252"/>
<text text-anchor="middle" x="438.5" y="-230.3" font-family="Helvetica,sans-Serif" font-size="14.00">err_error4</text>
</g>
<!-- err_error5 -->
<g id="node5" class="node">
<title>err_error5</title>
<path fill="white" stroke="black" d="M76.5,-360C76.5,-360 15.5,-360 15.5,-360 9.5,-360 3.5,-354 3.5,-348 3.5,-348 3.5,-336 3.5,-336 3.5,-330 9.5,-324 15.5,-324 15.5,-324 76.5,-324 76.5,-324 82.5,-324 88.5,-330 88.5,-336 88.5,-336 88.5,-348 88.5,-348 88.5,-354 82.5,-360 76.5,-360"/>
<text text-anchor="middle" x="46" y="-338.3" font-family="Helvetica,sans-Serif" font-size="14.00">err_error5</text>
</g>
<!-- fail_comp1 -->
<g id="node6" class="node">
<title>fail_comp1</title>
<path fill="white" stroke="black" d="M80,-144C80,-144 12,-144 12,-144 6,-144 0,-138 0,-132 0,-132 0,-120 0,-120 0,-114 6,-108 12,-108 12,-108 80,-108 80,-108 86,-108 92,-114 92,-120 92,-120 92,-132 92,-132 92,-138 86,-144 80,-144"/>
<text text-anchor="middle" x="46" y="-122.3" font-family="Helvetica,sans-Serif" font-size="14.00">fail_comp1</text>
</g>
<!-- mnt_comp1 -->
<g id="node9" class="node">
<title>mnt_comp1</title>
<path fill="white" stroke="black" d="M214,-144C214,-144 140,-144 140,-144 134,-144 128,-138 128,-132 128,-132 128,-120 128,-120 128,-114 134,-108 140,-108 140,-108 214,-108 214,-108 220,-108 226,-114 226,-120 226,-120 226,-132 226,-132 226,-138 220,-144 214,-144"/>
<text text-anchor="middle" x="177" y="-122.3" font-family="Helvetica,sans-Serif" font-size="14.00">mnt_comp1</text>
</g>
<!-- fail_comp1&#45;&gt;mnt_comp1 -->
<g id="edge3" class="edge">
<title>fail_comp1&#45;&gt;mnt_comp1</title>
<path fill="none" stroke="black" stroke-width="1.2" d="M92.12,-126C100.28,-126 108.9,-126 117.38,-126"/>
<polygon fill="black" stroke="black" stroke-width="1.2" points="117.62,-129.5 127.62,-126 117.62,-122.5 117.62,-129.5"/>
</g>
<!-- fail_comp2 -->
<g id="node7" class="node">
<title>fail_comp2</title>
<path fill="white" stroke="black" d="M80,-198C80,-198 12,-198 12,-198 6,-198 0,-192 0,-186 0,-186 0,-174 0,-174 0,-168 6,-162 12,-162 12,-162 80,-162 80,-162 86,-162 92,-168 92,-174 92,-174 92,-186 92,-186 92,-192 86,-198 80,-198"/>
<text text-anchor="middle" x="46" y="-176.3" font-family="Helvetica,sans-Serif" font-size="14.00">fail_comp2</text>
</g>
<!-- mnt_comp2 -->
<g id="node10" class="node">
<title>mnt_comp2</title>
<path fill="white" stroke="black" d="M214,-198C214,-198 140,-198 140,-198 134,-198 128,-192 128,-186 128,-186 128,-174 128,-174 128,-168 134,-162 140,-162 140,-162 214,-162 214,-162 220,-162 226,-168 226,-174 226,-174 226,-186 226,-186 226,-192 220,-198 214,-198"/>
<text text-anchor="middle" x="177" y="-176.3" font-family="Helvetica,sans-Serif" font-size="14.00">mnt_comp2</text>
</g>
<!-- fail_comp2&#45;&gt;mnt_comp2 -->
<g id="edge4" class="edge">
<title>fail_comp2&#45;&gt;mnt_comp2</title>
<path fill="none" stroke="black" stroke-width="1.2" d="M92.12,-180C100.28,-180 108.9,-180 117.38,-180"/>
<polygon fill="black" stroke="black" stroke-width="1.2" points="117.62,-183.5 127.62,-180 117.62,-176.5 117.62,-183.5"/>
</g>
<!-- fail_comp2&#45;&gt;rotate -->
<g id="edge5" class="edge">
<title>fail_comp2&#45;&gt;rotate</title>
<path fill="none" stroke="black" stroke-width="1.2" d="M99.94,-202.16C113.06,-207.65 126.84,-213.42 139.01,-218.51"/>
<polygon fill="black" stroke="black" stroke-width="1.2" points="100.89,-198.76 90.31,-198.13 98.19,-205.22 100.89,-198.76"/>
<polygon fill="black" stroke="black" stroke-width="1.2" points="137.8,-221.81 148.38,-222.44 140.51,-215.35 137.8,-221.81"/>
</g>
<!-- fail_comp4 -->
<g id="node8" class="node">
<title>fail_comp4</title>
<path fill="white" stroke="black" d="M80,-414C80,-414 12,-414 12,-414 6,-414 0,-408 0,-402 0,-402 0,-390 0,-390 0,-384 6,-378 12,-378 12,-378 80,-378 80,-378 86,-378 92,-384 92,-390 92,-390 92,-402 92,-402 92,-408 86,-414 80,-414"/>
<text text-anchor="middle" x="46" y="-392.3" font-family="Helvetica,sans-Serif" font-size="14.00">fail_comp4</text>
</g>
<!-- mnt_comp3 -->
<g id="node11" class="node">
<title>mnt_comp3</title>
<path fill="white" stroke="black" d="M348,-144C348,-144 274,-144 274,-144 268,-144 262,-138 262,-132 262,-132 262,-120 262,-120 262,-114 268,-108 274,-108 274,-108 348,-108 348,-108 354,-108 360,-114 360,-120 360,-120 360,-132 360,-132 360,-138 354,-144 348,-144"/>
<text text-anchor="middle" x="311" y="-122.3" font-family="Helvetica,sans-Serif" font-size="14.00">mnt_comp3</text>
</g>
<!-- mnt_comp1&#45;&gt;mnt_comp3 -->
<g id="edge6" class="edge">
<title>mnt_comp1&#45;&gt;mnt_comp3</title>
<path fill="none" stroke="black" stroke-width="1.2" d="M226.03,-126C234.31,-126 243,-126 251.52,-126"/>
<polygon fill="black" stroke="black" stroke-width="1.2" points="251.79,-129.5 261.79,-126 251.79,-122.5 251.79,-129.5"/>
</g>
<!-- mnt_comp4 -->
<g id="node12" class="node">
<title>mnt_comp4</title>
<path fill="white" stroke="black" d="M348,-198C348,-198 274,-198 274,-198 268,-198 262,-192 262,-186 262,-186 262,-174 262,-174 262,-168 268,-162 274,-162 274,-162 348,-162 348,-162 354,-162 360,-168 360,-174 360,-174 360,-186 360,-186 360,-192 354,-198 348,-198"/>
<text text-anchor="middle" x="311" y="-176.3" font-family="Helvetica,sans-Serif" font-size="14.00">mnt_comp4</text>
</g>
<!-- mnt_comp1&#45;&gt;mnt_comp4 -->
<g id="edge7" class="edge">
<title>mnt_comp1&#45;&gt;mnt_comp4</title>
<path fill="none" stroke="black" stroke-width="1.2" d="M222.32,-144.13C233.2,-148.58 244.97,-153.4 256.25,-158.01"/>
<polygon fill="black" stroke="black" stroke-width="1.2" points="254.99,-161.28 265.57,-161.82 257.64,-154.8 254.99,-161.28"/>
</g>
<!-- mnt_comp2&#45;&gt;mnt_comp4 -->
<g id="edge8" class="edge">
<title>mnt_comp2&#45;&gt;mnt_comp4</title>
<path fill="none" stroke="black" stroke-width="1.2" d="M226.03,-180C234.31,-180 243,-180 251.52,-180"/>
<polygon fill="black" stroke="black" stroke-width="1.2" points="251.79,-183.5 261.79,-180 251.79,-176.5 251.79,-183.5"/>
</g>
<!-- pressure -->
<g id="node13" class="node">
<title>pressure</title>
<path fill="white" stroke="black" d="M72.5,-468C72.5,-468 19.5,-468 19.5,-468 13.5,-468 7.5,-462 7.5,-456 7.5,-456 7.5,-444 7.5,-444 7.5,-438 13.5,-432 19.5,-432 19.5,-432 72.5,-432 72.5,-432 78.5,-432 84.5,-438 84.5,-444 84.5,-444 84.5,-456 84.5,-456 84.5,-462 78.5,-468 72.5,-468"/>
<text text-anchor="middle" x="46" y="-446.3" font-family="Helvetica,sans-Serif" font-size="14.00">pressure</text>
</g>
<!-- volt -->
<g id="node16" class="node">
<title>volt</title>
<path fill="white" stroke="black" d="M326,-252C326,-252 296,-252 296,-252 290,-252 284,-246 284,-240 284,-240 284,-228 284,-228 284,-222 290,-216 296,-216 296,-216 326,-216 326,-216 332,-216 338,-222 338,-228 338,-228 338,-240 338,-240 338,-246 332,-252 326,-252"/>
<text text-anchor="middle" x="311" y="-230.3" font-family="Helvetica,sans-Serif" font-size="14.00">volt</text>
</g>
<!-- rotate&#45;&gt;volt -->
<g id="edge10" class="edge">
<title>rotate&#45;&gt;volt</title>
<path fill="none" stroke="black" stroke-width="1.2" d="M205.67,-234C225.42,-234 252.18,-234 273.65,-234"/>
<polygon fill="black" stroke="black" stroke-width="1.2" points="273.71,-237.5 283.71,-234 273.71,-230.5 273.71,-237.5"/>
</g>
<!-- vibration -->
<g id="node15" class="node">
<title>vibration</title>
<path fill="white" stroke="black" d="M73,-252C73,-252 19,-252 19,-252 13,-252 7,-246 7,-240 7,-240 7,-228 7,-228 7,-222 13,-216 19,-216 19,-216 73,-216 73,-216 79,-216 85,-222 85,-228 85,-228 85,-240 85,-240 85,-246 79,-252 73,-252"/>
<text text-anchor="middle" x="46" y="-230.3" font-family="Helvetica,sans-Serif" font-size="14.00">vibration</text>
</g>
<!-- vibration&#45;&gt;rotate -->
<g id="edge9" class="edge">
<title>vibration&#45;&gt;rotate</title>
<path fill="none" stroke="black" stroke-width="1.2" d="M85.01,-234C101.87,-234 121.66,-234 138.47,-234"/>
<polygon fill="black" stroke="black" stroke-width="1.2" points="138.49,-237.5 148.49,-234 138.49,-230.5 138.49,-237.5"/>
</g>
<!-- volt&#45;&gt;err_error4 -->
<g id="edge2" class="edge">
<title>volt&#45;&gt;err_error4</title>
<path fill="none" stroke="black" stroke-width="1.2" d="M338,-234C351.8,-234 369.25,-234 385.67,-234"/>
<polygon fill="black" stroke="black" stroke-width="1.2" points="385.72,-237.5 395.72,-234 385.72,-230.5 385.72,-237.5"/>
</g>
</g>
</svg>
