<?xml version="1.0" encoding="UTF-8" standalone="no"?>
<!DOCTYPE svg PUBLIC "-//W3C//DTD SVG 1.1//EN"
 "http://www.w3.org/Graphics/SVG/1.1/DTD/svg11.dtd">
<!-- Generated by graphviz version 2.50.0 (0)
 -->
<!-- Title: G Pages: 1 -->
<svg width="1302pt" height="789pt"
 viewBox="0.00 0.00 1302.00 789.42" xmlns="http://www.w3.org/2000/svg" xmlns:xlink="http://www.w3.org/1999/xlink">
<g id="graph0" class="graph" transform="scale(1 1) rotate(0) translate(4 785.42)">
<title>G</title>
<polygon fill="white" stroke="transparent" points="-4,4 -4,-785.42 1298,-785.42 1298,4 -4,4"/>
<text text-anchor="middle" x="647" y="-764.62" font-family="Times,serif" font-size="16.00">model=model1/nbcb_w_mixed.json [machine 23]</text>
<!-- volt -->
<g id="node1" class="node">
<title>volt</title>
<path fill="white" stroke="black" d="M42,-285.42C42,-285.42 12,-285.42 12,-285.42 6,-285.42 0,-279.42 0,-273.42 0,-273.42 0,-261.42 0,-261.42 0,-255.42 6,-249.42 12,-249.42 12,-249.42 42,-249.42 42,-249.42 48,-249.42 54,-255.42 54,-261.42 54,-261.42 54,-273.42 54,-273.42 54,-279.42 48,-285.42 42,-285.42"/>
<text text-anchor="middle" x="27" y="-263.72" font-family="Helvetica,sans-Serif" font-size="14.00">volt</text>
</g>
<!-- vibration -->
<g id="node4" class="node">
<title>vibration</title>
<path fill="white" stroke="black" d="M156,-460.42C156,-460.42 102,-460.42 102,-460.42 96,-460.42 90,-454.42 90,-448.42 90,-448.42 90,-436.42 90,-436.42 90,-430.42 96,-424.42 102,-424.42 102,-424.42 156,-424.42 156,-424.42 162,-424.42 168,-430.42 168,-436.42 168,-436.42 168,-448.42 168,-448.42 168,-454.42 162,-460.42 156,-460.42"/>
<text text-anchor="middle" x="129" y="-438.72" font-family="Helvetica,sans-Serif" font-size="14.00">vibration</text>
</g>
<!-- volt&#45;&gt;vibration -->
<g id="edge3" class="edge">
<title>volt&#45;&gt;vibration</title>
<path fill="none" stroke="black" stroke-width="1.2" d="M38.33,-285.49C55.92,-316.27 91.79,-379.06 112.44,-415.18"/>
<polygon fill="black" stroke="black" stroke-width="1.2" points="109.58,-417.24 117.58,-424.19 115.66,-413.77 109.58,-417.24"/>
</g>
<!-- err_error2 -->
<g id="node6" class="node">
<title>err_error2</title>
<path fill="white" stroke="black" d="M879.5,-537.42C879.5,-537.42 818.5,-537.42 818.5,-537.42 812.5,-537.42 806.5,-531.42 806.5,-525.42 806.5,-525.42 806.5,-513.42 806.5,-513.42 806.5,-507.42 812.5,-501.42 818.5,-501.42 818.5,-501.42 879.5,-501.42 879.5,-501.42 885.5,-501.42 891.5,-507.42 891.5,-513.42 891.5,-513.42 891.5,-525.42 891.5,-525.42 891.5,-531.42 885.5,-537.42 879.5,-537.42"/>
<text text-anchor="middle" x="849" y="-515.72" font-family="Helvetica,sans-Serif" font-size="14.00">err_error2</text>
</g>
<!-- volt&#45;&gt;err_error2 -->
<g id="edge5" class="edge">
<title>volt&#45;&gt;err_error2</title>
<path fill="none" stroke="black" stroke-width="1.2" d="M29.29,-285.44C34.13,-348.97 52.84,-561.72 90,-617.42 136.33,-686.87 165.52,-717.42 249,-717.42 249,-717.42 249,-717.42 495.5,-717.42 634.65,-717.42 769.68,-598.68 823.52,-545.1"/>
<polygon fill="black" stroke="black" stroke-width="1.2" points="826.31,-547.26 830.87,-537.7 821.34,-542.33 826.31,-547.26"/>
</g>
<!-- mnt_comp1 -->
<g id="node10" class="node">
<title>mnt_comp1</title>
<path fill="white" stroke="black" d="M1282,-600.42C1282,-600.42 1208,-600.42 1208,-600.42 1202,-600.42 1196,-594.42 1196,-588.42 1196,-588.42 1196,-576.42 1196,-576.42 1196,-570.42 1202,-564.42 1208,-564.42 1208,-564.42 1282,-564.42 1282,-564.42 1288,-564.42 1294,-570.42 1294,-576.42 1294,-576.42 1294,-588.42 1294,-588.42 1294,-594.42 1288,-600.42 1282,-600.42"/>
<text text-anchor="middle" x="1245" y="-578.72" font-family="Helvetica,sans-Serif" font-size="14.00">mnt_comp1</text>
</g>
<!-- volt&#45;&gt;mnt_comp1 -->
<g id="edge9" class="edge">
<title>volt&#45;&gt;mnt_comp1</title>
<path fill="none" stroke="black" stroke-width="1.2" d="M28.65,-285.9C31.47,-356.57 44.59,-608.92 90,-672.42 136.37,-737.26 169.28,-755.42 249,-755.42 249,-755.42 249,-755.42 981,-755.42 1086.65,-755.42 1182.71,-656.77 1223.42,-608.46"/>
<polygon fill="black" stroke="black" stroke-width="1.2" points="1226.24,-610.54 1229.92,-600.61 1220.85,-606.08 1226.24,-610.54"/>
</g>
<!-- mnt_comp3 -->
<g id="node12" class="node">
<title>mnt_comp3</title>
<path fill="white" stroke="black" d="M1148,-128.42C1148,-128.42 1074,-128.42 1074,-128.42 1068,-128.42 1062,-122.42 1062,-116.42 1062,-116.42 1062,-104.42 1062,-104.42 1062,-98.42 1068,-92.42 1074,-92.42 1074,-92.42 1148,-92.42 1148,-92.42 1154,-92.42 1160,-98.42 1160,-104.42 1160,-104.42 1160,-116.42 1160,-116.42 1160,-122.42 1154,-128.42 1148,-128.42"/>
<text text-anchor="middle" x="1111" y="-106.72" font-family="Helvetica,sans-Serif" font-size="14.00">mnt_comp3</text>
</g>
<!-- volt&#45;&gt;mnt_comp3 -->
<g id="edge11" class="edge">
<title>volt&#45;&gt;mnt_comp3</title>
<path fill="none" stroke="black" stroke-width="1.2" d="M30.39,-249.14C37.22,-199.71 58.4,-65.11 90,-35.42 142.54,13.93 176.92,-3.42 249,-3.42 249,-3.42 249,-3.42 850,-3.42 936.85,-3.42 1028.57,-55.11 1076.44,-86.64"/>
<polygon fill="black" stroke="black" stroke-width="1.2" points="1074.6,-89.62 1084.85,-92.27 1078.49,-83.8 1074.6,-89.62"/>
</g>
<!-- fail_comp2 -->
<g id="node15" class="node">
<title>fail_comp2</title>
<path fill="white" stroke="black" d="M752,-235.42C752,-235.42 684,-235.42 684,-235.42 678,-235.42 672,-229.42 672,-223.42 672,-223.42 672,-211.42 672,-211.42 672,-205.42 678,-199.42 684,-199.42 684,-199.42 752,-199.42 752,-199.42 758,-199.42 764,-205.42 764,-211.42 764,-211.42 764,-223.42 764,-223.42 764,-229.42 758,-235.42 752,-235.42"/>
<text text-anchor="middle" x="718" y="-213.72" font-family="Helvetica,sans-Serif" font-size="14.00">fail_comp2</text>
</g>
<!-- volt&#45;&gt;fail_comp2 -->
<g id="edge12" class="edge">
<title>volt&#45;&gt;fail_comp2</title>
<path fill="none" stroke="black" stroke-width="1.2" d="M63.21,-249.44C105.99,-229.29 180.89,-199.42 249,-199.42 249,-199.42 249,-199.42 495.5,-199.42 552.23,-199.42 616.87,-205.36 661.62,-210.42"/>
<polygon fill="black" stroke="black" stroke-width="1.2" points="61.57,-246.34 54.07,-253.83 64.6,-252.65 61.57,-246.34"/>
<polygon fill="black" stroke="black" stroke-width="1.2" points="661.36,-213.91 671.7,-211.58 662.16,-206.96 661.36,-213.91"/>
</g>
<!-- rotate -->
<g id="node2" class="node">
<title>rotate</title>
<path fill="white" stroke="black" d="M511,-442.42C511,-442.42 478,-442.42 478,-442.42 472,-442.42 466,-436.42 466,-430.42 466,-430.42 466,-418.42 466,-418.42 466,-412.42 472,-406.42 478,-406.42 478,-406.42 511,-406.42 511,-406.42 517,-406.42 523,-412.42 523,-418.42 523,-418.42 523,-430.42 523,-430.42 523,-436.42 517,-442.42 511,-442.42"/>
<text text-anchor="middle" x="494.5" y="-420.72" font-family="Helvetica,sans-Serif" font-size="14.00">rotate</text>
</g>
<!-- rotate&#45;&gt;volt -->
<g id="edge1" class="edge">
<title>rotate&#45;&gt;volt</title>
<path fill="none" stroke="black" stroke-width="1.2" d="M465.57,-421.45C397.79,-413.34 220.59,-386.79 90,-319.42 76.44,-312.43 63.22,-302 52.5,-292.32"/>
<polygon fill="black" stroke="black" stroke-width="1.2" points="54.86,-289.74 45.16,-285.46 50.08,-294.85 54.86,-289.74"/>
</g>
<!-- pressure -->
<g id="node3" class="node">
<title>pressure</title>
<path fill="white" stroke="black" d="M624,-301.42C624,-301.42 571,-301.42 571,-301.42 565,-301.42 559,-295.42 559,-289.42 559,-289.42 559,-277.42 559,-277.42 559,-271.42 565,-265.42 571,-265.42 571,-265.42 624,-265.42 624,-265.42 630,-265.42 636,-271.42 636,-277.42 636,-277.42 636,-289.42 636,-289.42 636,-295.42 630,-301.42 624,-301.42"/>
<text text-anchor="middle" x="597.5" y="-279.72" font-family="Helvetica,sans-Serif" font-size="14.00">pressure</text>
</g>
<!-- rotate&#45;&gt;pressure -->
<g id="edge14" class="edge">
<title>rotate&#45;&gt;pressure</title>
<path fill="none" stroke="black" stroke-width="1.2" d="M508.5,-406.28C526.07,-381.74 557.53,-337.82 577.69,-309.69"/>
<polygon fill="black" stroke="black" stroke-width="1.2" points="580.57,-311.67 583.55,-301.5 574.88,-307.59 580.57,-311.67"/>
</g>
<!-- err_error1 -->
<g id="node5" class="node">
<title>err_error1</title>
<path fill="white" stroke="black" d="M879.5,-349.42C879.5,-349.42 818.5,-349.42 818.5,-349.42 812.5,-349.42 806.5,-343.42 806.5,-337.42 806.5,-337.42 806.5,-325.42 806.5,-325.42 806.5,-319.42 812.5,-313.42 818.5,-313.42 818.5,-313.42 879.5,-313.42 879.5,-313.42 885.5,-313.42 891.5,-319.42 891.5,-325.42 891.5,-325.42 891.5,-337.42 891.5,-337.42 891.5,-343.42 885.5,-349.42 879.5,-349.42"/>
<text text-anchor="middle" x="849" y="-327.72" font-family="Helvetica,sans-Serif" font-size="14.00">err_error1</text>
</g>
<!-- rotate&#45;&gt;err_error1 -->
<g id="edge16" class="edge">
<title>rotate&#45;&gt;err_error1</title>
<path fill="none" stroke="black" stroke-width="1.2" d="M533.59,-421.7C586.54,-417.03 684.83,-405.18 764,-377.42 780.22,-371.74 797.03,-363.14 811.32,-354.92"/>
<polygon fill="black" stroke="black" stroke-width="1.2" points="532.98,-418.23 523.31,-422.56 533.57,-425.21 532.98,-418.23"/>
<polygon fill="black" stroke="black" stroke-width="1.2" points="813.49,-357.7 820.31,-349.6 809.92,-351.68 813.49,-357.7"/>
</g>
<!-- rotate&#45;&gt;err_error2 -->
<g id="edge17" class="edge">
<title>rotate&#45;&gt;err_error2</title>
<path fill="none" stroke="black" stroke-width="1.2" d="M523.12,-441.16C533.98,-447.09 546.75,-453.31 559,-457.42 646.61,-486.86 674.22,-470.45 764,-492.42 774.71,-495.04 786.03,-498.32 796.78,-501.69"/>
<polygon fill="black" stroke="black" stroke-width="1.2" points="795.87,-505.07 806.46,-504.78 798,-498.4 795.87,-505.07"/>
</g>
<!-- err_error3 -->
<g id="node7" class="node">
<title>err_error3</title>
<path fill="white" stroke="black" d="M748.5,-537.42C748.5,-537.42 687.5,-537.42 687.5,-537.42 681.5,-537.42 675.5,-531.42 675.5,-525.42 675.5,-525.42 675.5,-513.42 675.5,-513.42 675.5,-507.42 681.5,-501.42 687.5,-501.42 687.5,-501.42 748.5,-501.42 748.5,-501.42 754.5,-501.42 760.5,-507.42 760.5,-513.42 760.5,-513.42 760.5,-525.42 760.5,-525.42 760.5,-531.42 754.5,-537.42 748.5,-537.42"/>
<text text-anchor="middle" x="718" y="-515.72" font-family="Helvetica,sans-Serif" font-size="14.00">err_error3</text>
</g>
<!-- rotate&#45;&gt;err_error3 -->
<g id="edge18" class="edge">
<title>rotate&#45;&gt;err_error3</title>
<path fill="none" stroke="black" stroke-width="1.2" d="M506.4,-442.52C517.46,-459.16 536.16,-483.07 559,-495.42 591.48,-512.99 632.89,-518.78 665.17,-520.29"/>
<polygon fill="black" stroke="black" stroke-width="1.2" points="665.2,-523.79 675.31,-520.64 665.44,-516.8 665.2,-523.79"/>
</g>
<!-- rotate&#45;&gt;fail_comp2 -->
<g id="edge21" class="edge">
<title>rotate&#45;&gt;fail_comp2</title>
<path fill="none" stroke="black" stroke-width="1.2" d="M496.97,-406.16C500.75,-371.57 513.98,-296.36 559,-256.42 586.96,-231.61 628.23,-222.03 661.57,-218.56"/>
<polygon fill="black" stroke="black" stroke-width="1.2" points="661.99,-222.04 671.65,-217.67 661.38,-215.07 661.99,-222.04"/>
</g>
<!-- fail_comp3 -->
<g id="node16" class="node">
<title>fail_comp3</title>
<path fill="white" stroke="black" d="M1014,-369.42C1014,-369.42 946,-369.42 946,-369.42 940,-369.42 934,-363.42 934,-357.42 934,-357.42 934,-345.42 934,-345.42 934,-339.42 940,-333.42 946,-333.42 946,-333.42 1014,-333.42 1014,-333.42 1020,-333.42 1026,-339.42 1026,-345.42 1026,-345.42 1026,-357.42 1026,-357.42 1026,-363.42 1020,-369.42 1014,-369.42"/>
<text text-anchor="middle" x="980" y="-347.72" font-family="Helvetica,sans-Serif" font-size="14.00">fail_comp3</text>
</g>
<!-- rotate&#45;&gt;fail_comp3 -->
<g id="edge22" class="edge">
<title>rotate&#45;&gt;fail_comp3</title>
<path fill="none" stroke="black" stroke-width="1.2" d="M523.03,-426.92C551.41,-429.04 596.9,-431.21 636,-427.42 739.22,-417.44 856.63,-387.19 923.85,-368"/>
<polygon fill="black" stroke="black" stroke-width="1.2" points="925.15,-371.27 933.8,-365.14 923.22,-364.54 925.15,-371.27"/>
</g>
<!-- pressure&#45;&gt;volt -->
<g id="edge2" class="edge">
<title>pressure&#45;&gt;volt</title>
<path fill="none" stroke="black" stroke-width="1.2" d="M558.98,-278.92C516.21,-274.19 444.18,-267.42 382,-267.42 249,-267.42 249,-267.42 249,-267.42 183.96,-267.42 108.15,-267.42 64.35,-267.42"/>
<polygon fill="black" stroke="black" stroke-width="1.2" points="64.2,-263.92 54.2,-267.42 64.2,-270.92 64.2,-263.92"/>
</g>
<!-- pressure&#45;&gt;err_error3 -->
<g id="edge24" class="edge">
<title>pressure&#45;&gt;err_error3</title>
<path fill="none" stroke="black" stroke-width="1.2" d="M607.6,-301.55C628.28,-342.73 678.9,-443.54 703.34,-492.22"/>
<polygon fill="black" stroke="black" stroke-width="1.2" points="700.25,-493.87 707.87,-501.23 706.51,-490.73 700.25,-493.87"/>
</g>
<!-- err_error4 -->
<g id="node8" class="node">
<title>err_error4</title>
<path fill="white" stroke="black" d="M748.5,-105.42C748.5,-105.42 687.5,-105.42 687.5,-105.42 681.5,-105.42 675.5,-99.42 675.5,-93.42 675.5,-93.42 675.5,-81.42 675.5,-81.42 675.5,-75.42 681.5,-69.42 687.5,-69.42 687.5,-69.42 748.5,-69.42 748.5,-69.42 754.5,-69.42 760.5,-75.42 760.5,-81.42 760.5,-81.42 760.5,-93.42 760.5,-93.42 760.5,-99.42 754.5,-105.42 748.5,-105.42"/>
<text text-anchor="middle" x="718" y="-83.72" font-family="Helvetica,sans-Serif" font-size="14.00">err_error4</text>
</g>
<!-- pressure&#45;&gt;err_error4 -->
<g id="edge25" class="edge">
<title>pressure&#45;&gt;err_error4</title>
<path fill="none" stroke="black" stroke-width="1.2" d="M614.76,-256.53C637.39,-219.1 678.13,-151.71 700.75,-114.3"/>
<polygon fill="black" stroke="black" stroke-width="1.2" points="611.61,-254.97 609.44,-265.33 617.6,-258.59 611.61,-254.97"/>
<polygon fill="black" stroke="black" stroke-width="1.2" points="703.91,-115.84 706.09,-105.47 697.92,-112.21 703.91,-115.84"/>
</g>
<!-- err_error5 -->
<g id="node9" class="node">
<title>err_error5</title>
<path fill="white" stroke="black" d="M748.5,-368.42C748.5,-368.42 687.5,-368.42 687.5,-368.42 681.5,-368.42 675.5,-362.42 675.5,-356.42 675.5,-356.42 675.5,-344.42 675.5,-344.42 675.5,-338.42 681.5,-332.42 687.5,-332.42 687.5,-332.42 748.5,-332.42 748.5,-332.42 754.5,-332.42 760.5,-338.42 760.5,-344.42 760.5,-344.42 760.5,-356.42 760.5,-356.42 760.5,-362.42 754.5,-368.42 748.5,-368.42"/>
<text text-anchor="middle" x="718" y="-346.72" font-family="Helvetica,sans-Serif" font-size="14.00">err_error5</text>
</g>
<!-- pressure&#45;&gt;err_error5 -->
<g id="edge26" class="edge">
<title>pressure&#45;&gt;err_error5</title>
<path fill="none" stroke="black" stroke-width="1.2" d="M639.56,-306.64C651.39,-313.33 664.29,-320.62 676.11,-327.31"/>
<polygon fill="black" stroke="black" stroke-width="1.2" points="641,-303.43 630.57,-301.55 637.55,-309.52 641,-303.43"/>
<polygon fill="black" stroke="black" stroke-width="1.2" points="674.48,-330.4 684.91,-332.28 677.92,-324.31 674.48,-330.4"/>
</g>
<!-- pressure&#45;&gt;fail_comp2 -->
<g id="edge27" class="edge">
<title>pressure&#45;&gt;fail_comp2</title>
<path fill="none" stroke="black" stroke-width="1.2" d="M630.88,-265.39C644.73,-257.68 661.06,-248.58 675.76,-240.39"/>
<polygon fill="black" stroke="black" stroke-width="1.2" points="677.63,-243.36 684.66,-235.44 674.22,-237.24 677.63,-243.36"/>
</g>
<!-- pressure&#45;&gt;fail_comp3 -->
<g id="edge28" class="edge">
<title>pressure&#45;&gt;fail_comp3</title>
<path fill="none" stroke="black" stroke-width="1.2" d="M646.77,-280.04C707.04,-277.34 812.61,-277.65 898,-304.42 914.83,-309.7 931.94,-318.94 946.07,-327.85"/>
<polygon fill="black" stroke="black" stroke-width="1.2" points="646.23,-276.57 636.42,-280.56 646.58,-283.56 646.23,-276.57"/>
<polygon fill="black" stroke="black" stroke-width="1.2" points="944.17,-330.78 954.46,-333.31 947.99,-324.92 944.17,-330.78"/>
</g>
<!-- vibration&#45;&gt;rotate -->
<g id="edge15" class="edge">
<title>vibration&#45;&gt;rotate</title>
<path fill="none" stroke="black" stroke-width="1.2" d="M168.02,-440.33C179.58,-439.7 192.31,-439.02 204,-438.42 294.41,-433.79 400.72,-428.76 455.93,-426.17"/>
<polygon fill="black" stroke="black" stroke-width="1.2" points="456.13,-429.67 465.95,-425.7 455.8,-422.67 456.13,-429.67"/>
</g>
<!-- fail_comp1 -->
<g id="node14" class="node">
<title>fail_comp1</title>
<path fill="white" stroke="black" d="M284,-537.42C284,-537.42 216,-537.42 216,-537.42 210,-537.42 204,-531.42 204,-525.42 204,-525.42 204,-513.42 204,-513.42 204,-507.42 210,-501.42 216,-501.42 216,-501.42 284,-501.42 284,-501.42 290,-501.42 296,-507.42 296,-513.42 296,-513.42 296,-525.42 296,-525.42 296,-531.42 290,-537.42 284,-537.42"/>
<text text-anchor="middle" x="250" y="-515.72" font-family="Helvetica,sans-Serif" font-size="14.00">fail_comp1</text>
</g>
<!-- vibration&#45;&gt;fail_comp1 -->
<g id="edge30" class="edge">
<title>vibration&#45;&gt;fail_comp1</title>
<path fill="none" stroke="black" stroke-width="1.2" d="M156.14,-460.59C170.21,-470.23 187.92,-482.17 204,-492.42 205.87,-493.62 207.8,-494.83 209.75,-496.04"/>
<polygon fill="black" stroke="black" stroke-width="1.2" points="208.01,-499.08 218.36,-501.34 211.68,-493.12 208.01,-499.08"/>
</g>
<!-- fail_comp4 -->
<g id="node17" class="node">
<title>fail_comp4</title>
<path fill="white" stroke="black" d="M284,-483.42C284,-483.42 216,-483.42 216,-483.42 210,-483.42 204,-477.42 204,-471.42 204,-471.42 204,-459.42 204,-459.42 204,-453.42 210,-447.42 216,-447.42 216,-447.42 284,-447.42 284,-447.42 290,-447.42 296,-453.42 296,-459.42 296,-459.42 296,-471.42 296,-471.42 296,-477.42 290,-483.42 284,-483.42"/>
<text text-anchor="middle" x="250" y="-461.72" font-family="Helvetica,sans-Serif" font-size="14.00">fail_comp4</text>
</g>
<!-- vibration&#45;&gt;fail_comp4 -->
<g id="edge32" class="edge">
<title>vibration&#45;&gt;fail_comp4</title>
<path fill="none" stroke="black" stroke-width="1.2" d="M168.31,-449.83C176.41,-451.39 185.12,-453.08 193.72,-454.74"/>
<polygon fill="black" stroke="black" stroke-width="1.2" points="193.22,-458.21 203.71,-456.67 194.55,-451.33 193.22,-458.21"/>
</g>
<!-- err_error1&#45;&gt;volt -->
<g id="edge4" class="edge">
<title>err_error1&#45;&gt;volt</title>
<path fill="none" stroke="black" stroke-width="1.2" d="M839.7,-313.24C823.51,-278.63 787.26,-205.35 764,-190.42 662.98,-125.6 615.53,-161.42 495.5,-161.42 249,-161.42 249,-161.42 249,-161.42 175.31,-161.42 153.8,-171.55 90,-208.42 74.91,-217.14 60.63,-230.26 49.59,-241.91"/>
<polygon fill="black" stroke="black" stroke-width="1.2" points="47,-239.56 42.82,-249.3 52.16,-244.29 47,-239.56"/>
</g>
<!-- err_error1&#45;&gt;pressure -->
<g id="edge23" class="edge">
<title>err_error1&#45;&gt;pressure</title>
<path fill="none" stroke="black" stroke-width="1.2" d="M806.32,-323.4C762.16,-314.91 692.54,-301.51 646.21,-292.6"/>
<polygon fill="black" stroke="black" stroke-width="1.2" points="646.6,-289.11 636.12,-290.66 645.28,-295.99 646.6,-289.11"/>
</g>
<!-- err_error2&#45;&gt;mnt_comp1 -->
<g id="edge35" class="edge">
<title>err_error2&#45;&gt;mnt_comp1</title>
<path fill="none" stroke="black" stroke-width="1.2" d="M891.79,-526.11C962.44,-537.4 1105.63,-560.3 1185.97,-573.14"/>
<polygon fill="black" stroke="black" stroke-width="1.2" points="1185.5,-576.61 1195.92,-574.74 1186.6,-569.7 1185.5,-576.61"/>
</g>
<!-- err_error2&#45;&gt;fail_comp3 -->
<g id="edge36" class="edge">
<title>err_error2&#45;&gt;fail_comp3</title>
<path fill="none" stroke="black" stroke-width="1.2" d="M864.05,-501.12C886.99,-471.25 932.55,-411.92 958.9,-377.6"/>
<polygon fill="black" stroke="black" stroke-width="1.2" points="961.85,-379.51 965.16,-369.44 956.3,-375.24 961.85,-379.51"/>
</g>
<!-- err_error3&#45;&gt;volt -->
<g id="edge6" class="edge">
<title>err_error3&#45;&gt;volt</title>
<path fill="none" stroke="black" stroke-width="1.2" d="M704.61,-537.47C674.24,-579.31 591.56,-679.42 495.5,-679.42 249,-679.42 249,-679.42 249,-679.42 74.5,-679.42 37.23,-388.86 29.76,-295.76"/>
<polygon fill="black" stroke="black" stroke-width="1.2" points="33.24,-295.37 29.01,-285.66 26.26,-295.89 33.24,-295.37"/>
</g>
<!-- err_error3&#45;&gt;err_error2 -->
<g id="edge34" class="edge">
<title>err_error3&#45;&gt;err_error2</title>
<path fill="none" stroke="black" stroke-width="1.2" d="M760.53,-519.42C771.81,-519.42 784.16,-519.42 795.95,-519.42"/>
<polygon fill="black" stroke="black" stroke-width="1.2" points="796.11,-522.92 806.11,-519.42 796.11,-515.92 796.11,-522.92"/>
</g>
<!-- err_error4&#45;&gt;volt -->
<g id="edge7" class="edge">
<title>err_error4&#45;&gt;volt</title>
<path fill="none" stroke="black" stroke-width="1.2" d="M675.36,-86.82C630.84,-86.23 558.18,-85.42 495.5,-85.42 249,-85.42 249,-85.42 249,-85.42 177.53,-85.42 145.87,-64.86 90,-109.42 49.92,-141.4 35.68,-202.9 30.67,-239.02"/>
<polygon fill="black" stroke="black" stroke-width="1.2" points="27.15,-239 29.39,-249.35 34.09,-239.85 27.15,-239"/>
</g>
<!-- err_error4&#45;&gt;mnt_comp3 -->
<g id="edge37" class="edge">
<title>err_error4&#45;&gt;mnt_comp3</title>
<path fill="none" stroke="black" stroke-width="1.2" d="M760.84,-89.88C830.79,-94 971.64,-102.28 1051.41,-106.98"/>
<polygon fill="black" stroke="black" stroke-width="1.2" points="1051.59,-110.49 1061.77,-107.59 1052,-103.5 1051.59,-110.49"/>
</g>
<!-- err_error5&#45;&gt;volt -->
<g id="edge8" class="edge">
<title>err_error5&#45;&gt;volt</title>
<path fill="none" stroke="black" stroke-width="1.2" d="M675.33,-347.47C574.39,-339.95 308.99,-318.08 90,-281.42 81.57,-280.01 72.56,-278.17 64.09,-276.29"/>
<polygon fill="black" stroke="black" stroke-width="1.2" points="64.65,-272.83 54.12,-274.01 63.08,-279.65 64.65,-272.83"/>
</g>
<!-- err_error5&#45;&gt;vibration -->
<g id="edge29" class="edge">
<title>err_error5&#45;&gt;vibration</title>
<path fill="none" stroke="black" stroke-width="1.2" d="M675.39,-356.53C587.99,-369.41 378.94,-400.59 204,-429.42 195.67,-430.79 186.83,-432.3 178.26,-433.79"/>
<polygon fill="black" stroke="black" stroke-width="1.2" points="177.63,-430.35 168.38,-435.52 178.83,-437.25 177.63,-430.35"/>
</g>
<!-- err_error5&#45;&gt;err_error1 -->
<g id="edge33" class="edge">
<title>err_error5&#45;&gt;err_error1</title>
<path fill="none" stroke="black" stroke-width="1.2" d="M760.53,-344.31C771.81,-342.65 784.16,-340.82 795.95,-339.09"/>
<polygon fill="black" stroke="black" stroke-width="1.2" points="796.73,-342.51 806.11,-337.59 795.71,-335.59 796.73,-342.51"/>
</g>
<!-- mnt_comp2 -->
<g id="node11" class="node">
<title>mnt_comp2</title>
<path fill="white" stroke="black" d="M886,-151.42C886,-151.42 812,-151.42 812,-151.42 806,-151.42 800,-145.42 800,-139.42 800,-139.42 800,-127.42 800,-127.42 800,-121.42 806,-115.42 812,-115.42 812,-115.42 886,-115.42 886,-115.42 892,-115.42 898,-121.42 898,-127.42 898,-127.42 898,-139.42 898,-139.42 898,-145.42 892,-151.42 886,-151.42"/>
<text text-anchor="middle" x="849" y="-129.72" font-family="Helvetica,sans-Serif" font-size="14.00">mnt_comp2</text>
</g>
<!-- mnt_comp2&#45;&gt;volt -->
<g id="edge10" class="edge">
<title>mnt_comp2&#45;&gt;volt</title>
<path fill="none" stroke="black" stroke-width="1.2" d="M833.07,-115.26C817.71,-97.97 792.11,-72.81 764,-60.42 696.24,-30.58 672.54,-41.42 598.5,-41.42 249,-41.42 249,-41.42 249,-41.42 176.64,-41.42 143.59,-27.8 90,-76.42 43.09,-118.98 31.54,-197.34 28.78,-239.24"/>
<polygon fill="black" stroke="black" stroke-width="1.2" points="25.28,-239.13 28.24,-249.31 32.27,-239.51 25.28,-239.13"/>
</g>
<!-- mnt_comp3&#45;&gt;mnt_comp1 -->
<g id="edge38" class="edge">
<title>mnt_comp3&#45;&gt;mnt_comp1</title>
<path fill="none" stroke="black" stroke-width="1.2" d="M1132.07,-128.46C1141.94,-138.41 1153.16,-151.56 1160,-165.42 1226.51,-300.28 1240.36,-484.4 1243.24,-554.12"/>
<polygon fill="black" stroke="black" stroke-width="1.2" points="1239.75,-554.44 1243.62,-564.3 1246.75,-554.18 1239.75,-554.44"/>
</g>
<!-- mnt_comp4 -->
<g id="node13" class="node">
<title>mnt_comp4</title>
<path fill="white" stroke="black" d="M418,-533.42C418,-533.42 344,-533.42 344,-533.42 338,-533.42 332,-527.42 332,-521.42 332,-521.42 332,-509.42 332,-509.42 332,-503.42 338,-497.42 344,-497.42 344,-497.42 418,-497.42 418,-497.42 424,-497.42 430,-503.42 430,-509.42 430,-509.42 430,-521.42 430,-521.42 430,-527.42 424,-533.42 418,-533.42"/>
<text text-anchor="middle" x="381" y="-511.72" font-family="Helvetica,sans-Serif" font-size="14.00">mnt_comp4</text>
</g>
<!-- mnt_comp4&#45;&gt;rotate -->
<g id="edge19" class="edge">
<title>mnt_comp4&#45;&gt;rotate</title>
<path fill="none" stroke="black" stroke-width="1.2" d="M404.3,-497.23C421.24,-483.4 444.72,-464.24 463.33,-449.04"/>
<polygon fill="black" stroke="black" stroke-width="1.2" points="465.71,-451.62 471.24,-442.59 461.28,-446.2 465.71,-451.62"/>
</g>
<!-- mnt_comp4&#45;&gt;mnt_comp1 -->
<g id="edge39" class="edge">
<title>mnt_comp4&#45;&gt;mnt_comp1</title>
<path fill="none" stroke="black" stroke-width="1.2" d="M407.36,-533.44C446.16,-559.19 523.44,-603.42 596.5,-603.42 596.5,-603.42 596.5,-603.42 981,-603.42 1051.57,-603.42 1132.46,-595.82 1185.68,-589.76"/>
<polygon fill="black" stroke="black" stroke-width="1.2" points="1186.09,-593.24 1195.62,-588.61 1185.28,-586.28 1186.09,-593.24"/>
</g>
<!-- fail_comp1&#45;&gt;rotate -->
<g id="edge20" class="edge">
<title>fail_comp1&#45;&gt;rotate</title>
<path fill="none" stroke="black" stroke-width="1.2" d="M296.04,-501.78C342.17,-483.71 413.04,-455.94 456.15,-439.05"/>
<polygon fill="black" stroke="black" stroke-width="1.2" points="457.66,-442.22 465.7,-435.31 455.11,-435.7 457.66,-442.22"/>
</g>
<!-- fail_comp1&#45;&gt;mnt_comp1 -->
<g id="edge40" class="edge">
<title>fail_comp1&#45;&gt;mnt_comp1</title>
<path fill="none" stroke="black" stroke-width="1.2" d="M289.85,-537.47C383.63,-579.31 630.71,-679.42 848,-679.42 848,-679.42 848,-679.42 981,-679.42 1065.99,-679.42 1157.41,-634.29 1206.94,-605.59"/>
<polygon fill="black" stroke="black" stroke-width="1.2" points="1208.85,-608.53 1215.69,-600.44 1205.29,-602.5 1208.85,-608.53"/>
</g>
<!-- fail_comp1&#45;&gt;mnt_comp4 -->
<g id="edge44" class="edge">
<title>fail_comp1&#45;&gt;mnt_comp4</title>
<path fill="none" stroke="black" stroke-width="1.2" d="M296.12,-518.02C304.28,-517.77 312.9,-517.5 321.38,-517.24"/>
<polygon fill="black" stroke="black" stroke-width="1.2" points="321.73,-520.73 331.62,-516.92 321.51,-513.73 321.73,-520.73"/>
</g>
<!-- fail_comp2&#45;&gt;mnt_comp1 -->
<g id="edge41" class="edge">
<title>fail_comp2&#45;&gt;mnt_comp1</title>
<path fill="none" stroke="black" stroke-width="1.2" d="M764.08,-225.32C827.13,-238.01 943.21,-267.5 1026,-324.42 1119.68,-388.83 1196.49,-503.64 1228.26,-555.58"/>
<polygon fill="black" stroke="black" stroke-width="1.2" points="1225.32,-557.49 1233.49,-564.23 1231.31,-553.87 1225.32,-557.49"/>
</g>
<!-- fail_comp2&#45;&gt;mnt_comp2 -->
<g id="edge42" class="edge">
<title>fail_comp2&#45;&gt;mnt_comp2</title>
<path fill="none" stroke="black" stroke-width="1.2" d="M746.67,-199.4C765.59,-187.09 790.86,-170.63 811.43,-157.24"/>
<polygon fill="black" stroke="black" stroke-width="1.2" points="813.46,-160.09 819.93,-151.7 809.64,-154.23 813.46,-160.09"/>
</g>
<!-- fail_comp3&#45;&gt;volt -->
<g id="edge13" class="edge">
<title>fail_comp3&#45;&gt;volt</title>
<path fill="none" stroke="black" stroke-width="1.2" d="M966.48,-333.34C936.83,-292.2 857.77,-191.9 764,-149.42 654.79,-99.95 615.39,-123.42 495.5,-123.42 249,-123.42 249,-123.42 249,-123.42 175.79,-123.42 148.62,-122.58 90,-166.42 65.17,-184.99 48.09,-216.7 38.24,-239.64"/>
<polygon fill="black" stroke="black" stroke-width="1.2" points="34.88,-238.6 34.34,-249.18 41.36,-241.25 34.88,-238.6"/>
</g>
<!-- fail_comp3&#45;&gt;vibration -->
<g id="edge31" class="edge">
<title>fail_comp3&#45;&gt;vibration</title>
<path fill="none" stroke="black" stroke-width="1.2" d="M977.43,-369.63C972.97,-409.15 956.45,-502.77 898,-546.42 833.9,-594.29 799,-565.42 719,-565.42 380,-565.42 380,-565.42 380,-565.42 301.32,-565.42 271.88,-586.19 204,-546.42 174.29,-529.02 153.39,-494.43 141.54,-469.93"/>
<polygon fill="black" stroke="black" stroke-width="1.2" points="144.68,-468.37 137.3,-460.77 138.33,-471.31 144.68,-468.37"/>
</g>
<!-- fail_comp3&#45;&gt;mnt_comp3 -->
<g id="edge43" class="edge">
<title>fail_comp3&#45;&gt;mnt_comp3</title>
<path fill="none" stroke="black" stroke-width="1.2" d="M990.7,-333.31C1013.16,-291.35 1068.85,-187.3 1095.43,-137.64"/>
<polygon fill="black" stroke="black" stroke-width="1.2" points="1098.56,-139.22 1100.19,-128.75 1092.39,-135.91 1098.56,-139.22"/>
</g>
<!-- fail_comp4&#45;&gt;mnt_comp4 -->
<g id="edge45" class="edge">
<title>fail_comp4&#45;&gt;mnt_comp4</title>
<path fill="none" stroke="black" stroke-width="1.2" d="M296.12,-482.91C305.07,-486.38 314.57,-490.06 323.84,-493.65"/>
<polygon fill="black" stroke="black" stroke-width="1.2" points="322.79,-497 333.38,-497.35 325.32,-490.47 322.79,-497"/>
</g>
</g>
</svg>
