<?xml version="1.0" encoding="UTF-8" standalone="no"?>
<!DOCTYPE svg PUBLIC "-//W3C//DTD SVG 1.1//EN"
 "http://www.w3.org/Graphics/SVG/1.1/DTD/svg11.dtd">
<!-- Generated by graphviz version 2.50.0 (0)
 -->
<!-- Title: G Pages: 1 -->
<svg width="451pt" height="178pt"
 viewBox="0.00 0.00 451.00 178.00" xmlns="http://www.w3.org/2000/svg" xmlns:xlink="http://www.w3.org/1999/xlink">
<g id="graph0" class="graph" transform="scale(1 1) rotate(0) translate(4 174)">
<title>G</title>
<polygon fill="white" stroke="transparent" points="-4,4 -4,-174 447,-174 447,4 -4,4"/>
<text text-anchor="middle" x="221.5" y="-153.2" font-family="Times,serif" font-size="16.00">model=model2/nbcb_e_telemetry.json [machine 76]</text>
<!-- volt -->
<g id="node1" class="node">
<title>volt</title>
<path fill="white" stroke="black" d="M293.5,-144C293.5,-144 263.5,-144 263.5,-144 257.5,-144 251.5,-138 251.5,-132 251.5,-132 251.5,-120 251.5,-120 251.5,-114 257.5,-108 263.5,-108 263.5,-108 293.5,-108 293.5,-108 299.5,-108 305.5,-114 305.5,-120 305.5,-120 305.5,-132 305.5,-132 305.5,-138 299.5,-144 293.5,-144"/>
<text text-anchor="middle" x="278.5" y="-122.3" font-family="Helvetica,sans-Serif" font-size="14.00">volt</text>
</g>
<!-- rotate -->
<g id="node2" class="node">
<title>rotate</title>
<path fill="white" stroke="black" d="M295,-90C295,-90 262,-90 262,-90 256,-90 250,-84 250,-78 250,-78 250,-66 250,-66 250,-60 256,-54 262,-54 262,-54 295,-54 295,-54 301,-54 307,-60 307,-66 307,-66 307,-78 307,-78 307,-84 301,-90 295,-90"/>
<text text-anchor="middle" x="278.5" y="-68.3" font-family="Helvetica,sans-Serif" font-size="14.00">rotate</text>
</g>
<!-- pressure -->
<g id="node3" class="node">
<title>pressure</title>
<path fill="white" stroke="black" d="M305,-36C305,-36 252,-36 252,-36 246,-36 240,-30 240,-24 240,-24 240,-12 240,-12 240,-6 246,0 252,0 252,0 305,0 305,0 311,0 317,-6 317,-12 317,-12 317,-24 317,-24 317,-30 311,-36 305,-36"/>
<text text-anchor="middle" x="278.5" y="-14.3" font-family="Helvetica,sans-Serif" font-size="14.00">pressure</text>
</g>
<!-- vibration -->
<g id="node4" class="node">
<title>vibration</title>
<path fill="white" stroke="black" d="M192,-90C192,-90 138,-90 138,-90 132,-90 126,-84 126,-78 126,-78 126,-66 126,-66 126,-60 132,-54 138,-54 138,-54 192,-54 192,-54 198,-54 204,-60 204,-66 204,-66 204,-78 204,-78 204,-84 198,-90 192,-90"/>
<text text-anchor="middle" x="165" y="-68.3" font-family="Helvetica,sans-Serif" font-size="14.00">vibration</text>
</g>
<!-- vibration&#45;&gt;volt -->
<g id="edge1" class="edge">
<title>vibration&#45;&gt;volt</title>
<path fill="none" stroke="black" stroke-width="1.2" d="M203.44,-90.13C215.94,-96.19 229.83,-102.91 242.16,-108.89"/>
<polygon fill="black" stroke="black" stroke-width="1.2" points="240.72,-112.08 251.25,-113.29 243.77,-105.78 240.72,-112.08"/>
</g>
<!-- vibration&#45;&gt;rotate -->
<g id="edge2" class="edge">
<title>vibration&#45;&gt;rotate</title>
<path fill="none" stroke="black" stroke-width="1.2" d="M204.06,-72C215.56,-72 228.17,-72 239.65,-72"/>
<polygon fill="black" stroke="black" stroke-width="1.2" points="239.81,-75.5 249.81,-72 239.81,-68.5 239.81,-75.5"/>
</g>
<!-- vibration&#45;&gt;pressure -->
<g id="edge3" class="edge">
<title>vibration&#45;&gt;pressure</title>
<path fill="none" stroke="black" stroke-width="1.2" d="M203.44,-53.87C212.26,-49.59 221.78,-44.99 230.95,-40.54"/>
<polygon fill="black" stroke="black" stroke-width="1.2" points="232.5,-43.68 239.97,-36.18 229.45,-37.38 232.5,-43.68"/>
</g>
</g>
</svg>
