<?xml version="1.0" encoding="UTF-8" standalone="no"?>
<!DOCTYPE svg PUBLIC "-//W3C//DTD SVG 1.1//EN"
 "http://www.w3.org/Graphics/SVG/1.1/DTD/svg11.dtd">
<!-- Generated by graphviz version 2.50.0 (0)
 -->
<!-- Title: G Pages: 1 -->
<svg width="1093pt" height="810pt"
 viewBox="0.00 0.00 1093.00 810.00" xmlns="http://www.w3.org/2000/svg" xmlns:xlink="http://www.w3.org/1999/xlink">
<g id="graph0" class="graph" transform="scale(1 1) rotate(0) translate(4 806)">
<title>G</title>
<polygon fill="white" stroke="transparent" points="-4,4 -4,-806 1089,-806 1089,4 -4,4"/>
<text text-anchor="middle" x="542.5" y="-785.2" font-family="Times,serif" font-size="16.00">model=model1/nbcb_w_mixed.json [machine 31]</text>
<!-- volt -->
<g id="node1" class="node">
<title>volt</title>
<path fill="white" stroke="black" d="M61,-602C61,-602 31,-602 31,-602 25,-602 19,-596 19,-590 19,-590 19,-578 19,-578 19,-572 25,-566 31,-566 31,-566 61,-566 61,-566 67,-566 73,-572 73,-578 73,-578 73,-590 73,-590 73,-596 67,-602 61,-602"/>
<text text-anchor="middle" x="46" y="-580.3" font-family="Helvetica,sans-Serif" font-size="14.00">volt</text>
</g>
<!-- rotate -->
<g id="node2" class="node">
<title>rotate</title>
<path fill="white" stroke="black" d="M173,-322C173,-322 140,-322 140,-322 134,-322 128,-316 128,-310 128,-310 128,-298 128,-298 128,-292 134,-286 140,-286 140,-286 173,-286 173,-286 179,-286 185,-292 185,-298 185,-298 185,-310 185,-310 185,-316 179,-322 173,-322"/>
<text text-anchor="middle" x="156.5" y="-300.3" font-family="Helvetica,sans-Serif" font-size="14.00">rotate</text>
</g>
<!-- volt&#45;&gt;rotate -->
<g id="edge1" class="edge">
<title>volt&#45;&gt;rotate</title>
<path fill="none" stroke="black" stroke-width="1.2" d="M54.12,-565.63C72.71,-517.65 122.8,-388.39 144.84,-331.51"/>
<polygon fill="black" stroke="black" stroke-width="1.2" points="148.15,-332.66 148.5,-322.08 141.62,-330.13 148.15,-332.66"/>
</g>
<!-- err_error1 -->
<g id="node5" class="node">
<title>err_error1</title>
<path fill="white" stroke="black" d="M932.5,-358C932.5,-358 871.5,-358 871.5,-358 865.5,-358 859.5,-352 859.5,-346 859.5,-346 859.5,-334 859.5,-334 859.5,-328 865.5,-322 871.5,-322 871.5,-322 932.5,-322 932.5,-322 938.5,-322 944.5,-328 944.5,-334 944.5,-334 944.5,-346 944.5,-346 944.5,-352 938.5,-358 932.5,-358"/>
<text text-anchor="middle" x="902" y="-336.3" font-family="Helvetica,sans-Serif" font-size="14.00">err_error1</text>
</g>
<!-- volt&#45;&gt;err_error1 -->
<g id="edge2" class="edge">
<title>volt&#45;&gt;err_error1</title>
<path fill="none" stroke="black" stroke-width="1.2" d="M47.75,-565.98C51.66,-497.93 75.7,-255.46 221,-158 331.08,-84.17 725.34,-86.25 817,-182 858.75,-225.62 815.82,-265.42 853,-313 853.57,-313.73 854.16,-314.43 854.77,-315.13"/>
<polygon fill="black" stroke="black" stroke-width="1.2" points="852.39,-317.69 862.1,-321.94 857.16,-312.56 852.39,-317.69"/>
</g>
<!-- fail_comp1 -->
<g id="node14" class="node">
<title>fail_comp1</title>
<path fill="white" stroke="black" d="M301,-482C301,-482 233,-482 233,-482 227,-482 221,-476 221,-470 221,-470 221,-458 221,-458 221,-452 227,-446 233,-446 233,-446 301,-446 301,-446 307,-446 313,-452 313,-458 313,-458 313,-470 313,-470 313,-476 307,-482 301,-482"/>
<text text-anchor="middle" x="267" y="-460.3" font-family="Helvetica,sans-Serif" font-size="14.00">fail_comp1</text>
</g>
<!-- volt&#45;&gt;fail_comp1 -->
<g id="edge8" class="edge">
<title>volt&#45;&gt;fail_comp1</title>
<path fill="none" stroke="black" stroke-width="1.2" d="M82.37,-564.62C121.06,-543.42 183.03,-509.46 224.12,-486.95"/>
<polygon fill="black" stroke="black" stroke-width="1.2" points="80.5,-561.65 73.42,-569.53 83.87,-567.79 80.5,-561.65"/>
<polygon fill="black" stroke="black" stroke-width="1.2" points="225.98,-489.92 233.07,-482.05 222.61,-483.78 225.98,-489.92"/>
</g>
<!-- err_error2 -->
<g id="node6" class="node">
<title>err_error2</title>
<path fill="white" stroke="black" d="M805,-304C805,-304 744,-304 744,-304 738,-304 732,-298 732,-292 732,-292 732,-280 732,-280 732,-274 738,-268 744,-268 744,-268 805,-268 805,-268 811,-268 817,-274 817,-280 817,-280 817,-292 817,-292 817,-298 811,-304 805,-304"/>
<text text-anchor="middle" x="774.5" y="-282.3" font-family="Helvetica,sans-Serif" font-size="14.00">err_error2</text>
</g>
<!-- rotate&#45;&gt;err_error2 -->
<g id="edge11" class="edge">
<title>rotate&#45;&gt;err_error2</title>
<path fill="none" stroke="black" stroke-width="1.2" d="M185.29,-300.25C196.39,-298.82 209.29,-297.23 221,-296 394,-277.79 437.2,-270.34 611,-263 648.74,-261.41 658.61,-257.57 696,-263 704.49,-264.23 713.33,-266.19 721.89,-268.45"/>
<polygon fill="black" stroke="black" stroke-width="1.2" points="721.19,-271.89 731.76,-271.22 723.08,-265.15 721.19,-271.89"/>
</g>
<!-- err_error3 -->
<g id="node7" class="node">
<title>err_error3</title>
<path fill="white" stroke="black" d="M684,-216C684,-216 623,-216 623,-216 617,-216 611,-210 611,-204 611,-204 611,-192 611,-192 611,-186 617,-180 623,-180 623,-180 684,-180 684,-180 690,-180 696,-186 696,-192 696,-192 696,-204 696,-204 696,-210 690,-216 684,-216"/>
<text text-anchor="middle" x="653.5" y="-194.3" font-family="Helvetica,sans-Serif" font-size="14.00">err_error3</text>
</g>
<!-- rotate&#45;&gt;err_error3 -->
<g id="edge12" class="edge">
<title>rotate&#45;&gt;err_error3</title>
<path fill="none" stroke="black" stroke-width="1.2" d="M183.05,-279.14C194.02,-269.55 207.42,-259.2 221,-252 344.91,-186.33 516.18,-187.53 600.85,-193.13"/>
<polygon fill="black" stroke="black" stroke-width="1.2" points="180.61,-276.62 175.52,-285.92 185.3,-281.82 180.61,-276.62"/>
<polygon fill="black" stroke="black" stroke-width="1.2" points="600.76,-196.63 610.98,-193.85 601.25,-189.65 600.76,-196.63"/>
</g>
<!-- mnt_comp2 -->
<g id="node11" class="node">
<title>mnt_comp2</title>
<path fill="white" stroke="black" d="M939,-304C939,-304 865,-304 865,-304 859,-304 853,-298 853,-292 853,-292 853,-280 853,-280 853,-274 859,-268 865,-268 865,-268 939,-268 939,-268 945,-268 951,-274 951,-280 951,-280 951,-292 951,-292 951,-298 945,-304 939,-304"/>
<text text-anchor="middle" x="902" y="-282.3" font-family="Helvetica,sans-Serif" font-size="14.00">mnt_comp2</text>
</g>
<!-- rotate&#45;&gt;mnt_comp2 -->
<g id="edge15" class="edge">
<title>rotate&#45;&gt;mnt_comp2</title>
<path fill="none" stroke="black" stroke-width="1.2" d="M164.99,-285.66C174.65,-264.52 193.52,-230.46 221,-213 259.44,-188.59 401.99,-160.73 732,-138 769.69,-135.4 784.35,-118.99 817,-138 861.5,-163.91 884.34,-223.14 894.39,-258.31"/>
<polygon fill="black" stroke="black" stroke-width="1.2" points="891.01,-259.23 897,-267.97 897.77,-257.4 891.01,-259.23"/>
</g>
<!-- mnt_comp3 -->
<g id="node12" class="node">
<title>mnt_comp3</title>
<path fill="white" stroke="black" d="M563,-694C563,-694 489,-694 489,-694 483,-694 477,-688 477,-682 477,-682 477,-670 477,-670 477,-664 483,-658 489,-658 489,-658 563,-658 563,-658 569,-658 575,-664 575,-670 575,-670 575,-682 575,-682 575,-688 569,-694 563,-694"/>
<text text-anchor="middle" x="526" y="-672.3" font-family="Helvetica,sans-Serif" font-size="14.00">mnt_comp3</text>
</g>
<!-- rotate&#45;&gt;mnt_comp3 -->
<g id="edge16" class="edge">
<title>rotate&#45;&gt;mnt_comp3</title>
<path fill="none" stroke="black" stroke-width="1.2" d="M159.14,-322.19C163.47,-362.16 177.98,-459.43 221,-527 261.44,-590.52 281.65,-604.33 349,-638 385.77,-656.38 431.22,-665.91 466.71,-670.82"/>
<polygon fill="black" stroke="black" stroke-width="1.2" points="466.55,-674.33 476.92,-672.15 467.45,-667.39 466.55,-674.33"/>
</g>
<!-- rotate&#45;&gt;fail_comp1 -->
<g id="edge17" class="edge">
<title>rotate&#45;&gt;fail_comp1</title>
<path fill="none" stroke="black" stroke-width="1.2" d="M169.74,-322.04C188.78,-350.13 225.64,-404.48 247.81,-437.17"/>
<polygon fill="black" stroke="black" stroke-width="1.2" points="245.13,-439.47 253.64,-445.78 250.93,-435.54 245.13,-439.47"/>
</g>
<!-- pressure -->
<g id="node3" class="node">
<title>pressure</title>
<path fill="white" stroke="black" d="M801,-428C801,-428 748,-428 748,-428 742,-428 736,-422 736,-416 736,-416 736,-404 736,-404 736,-398 742,-392 748,-392 748,-392 801,-392 801,-392 807,-392 813,-398 813,-404 813,-404 813,-416 813,-416 813,-422 807,-428 801,-428"/>
<text text-anchor="middle" x="774.5" y="-406.3" font-family="Helvetica,sans-Serif" font-size="14.00">pressure</text>
</g>
<!-- pressure&#45;&gt;err_error1 -->
<g id="edge19" class="edge">
<title>pressure&#45;&gt;err_error1</title>
<path fill="none" stroke="black" stroke-width="1.2" d="M807.82,-391.97C823.51,-383.22 842.54,-372.61 859.31,-363.25"/>
<polygon fill="black" stroke="black" stroke-width="1.2" points="861.33,-366.14 868.35,-358.21 857.92,-360.02 861.33,-366.14"/>
</g>
<!-- err_error4 -->
<g id="node8" class="node">
<title>err_error4</title>
<path fill="white" stroke="black" d="M1066.5,-358C1066.5,-358 1005.5,-358 1005.5,-358 999.5,-358 993.5,-352 993.5,-346 993.5,-346 993.5,-334 993.5,-334 993.5,-328 999.5,-322 1005.5,-322 1005.5,-322 1066.5,-322 1066.5,-322 1072.5,-322 1078.5,-328 1078.5,-334 1078.5,-334 1078.5,-346 1078.5,-346 1078.5,-352 1072.5,-358 1066.5,-358"/>
<text text-anchor="middle" x="1036" y="-336.3" font-family="Helvetica,sans-Serif" font-size="14.00">err_error4</text>
</g>
<!-- pressure&#45;&gt;err_error4 -->
<g id="edge20" class="edge">
<title>pressure&#45;&gt;err_error4</title>
<path fill="none" stroke="black" stroke-width="1.2" d="M823.08,-399.3C858.52,-391.1 908,-379.16 951,-367 961.61,-364 972.89,-360.55 983.63,-357.15"/>
<polygon fill="black" stroke="black" stroke-width="1.2" points="821.98,-395.96 813.02,-401.62 823.55,-402.79 821.98,-395.96"/>
<polygon fill="black" stroke="black" stroke-width="1.2" points="984.85,-360.43 993.3,-354.04 982.71,-353.76 984.85,-360.43"/>
</g>
<!-- pressure&#45;&gt;mnt_comp2 -->
<g id="edge22" class="edge">
<title>pressure&#45;&gt;mnt_comp2</title>
<path fill="none" stroke="black" stroke-width="1.2" d="M802.38,-391.87C807.58,-387.67 812.73,-382.97 817,-378 838.52,-352.95 829.73,-336.43 853,-313 853.91,-312.08 854.86,-311.19 855.84,-310.32"/>
<polygon fill="black" stroke="black" stroke-width="1.2" points="858.11,-312.98 863.84,-304.06 853.8,-307.46 858.11,-312.98"/>
</g>
<!-- pressure&#45;&gt;fail_comp1 -->
<g id="edge23" class="edge">
<title>pressure&#45;&gt;fail_comp1</title>
<path fill="none" stroke="black" stroke-width="1.2" d="M735.89,-409.16C661.33,-408.21 489.79,-409.54 349,-437 340.44,-438.67 331.53,-441 322.89,-443.6"/>
<polygon fill="black" stroke="black" stroke-width="1.2" points="321.77,-440.28 313.28,-446.62 323.87,-446.96 321.77,-440.28"/>
</g>
<!-- fail_comp3 -->
<g id="node16" class="node">
<title>fail_comp3</title>
<path fill="white" stroke="black" d="M429,-482C429,-482 361,-482 361,-482 355,-482 349,-476 349,-470 349,-470 349,-458 349,-458 349,-452 355,-446 361,-446 361,-446 429,-446 429,-446 435,-446 441,-452 441,-458 441,-458 441,-470 441,-470 441,-476 435,-482 429,-482"/>
<text text-anchor="middle" x="395" y="-460.3" font-family="Helvetica,sans-Serif" font-size="14.00">fail_comp3</text>
</g>
<!-- pressure&#45;&gt;fail_comp3 -->
<g id="edge24" class="edge">
<title>pressure&#45;&gt;fail_comp3</title>
<path fill="none" stroke="black" stroke-width="1.2" d="M735.97,-422.05C723.38,-425.71 709.18,-429.45 696,-432 611.42,-448.39 511.68,-456.93 451.18,-460.94"/>
<polygon fill="black" stroke="black" stroke-width="1.2" points="450.84,-457.45 441.08,-461.59 451.29,-464.44 450.84,-457.45"/>
</g>
<!-- vibration -->
<g id="node4" class="node">
<title>vibration</title>
<path fill="white" stroke="black" d="M553,-360C553,-360 499,-360 499,-360 493,-360 487,-354 487,-348 487,-348 487,-336 487,-336 487,-330 493,-324 499,-324 499,-324 553,-324 553,-324 559,-324 565,-330 565,-336 565,-336 565,-348 565,-348 565,-354 559,-360 553,-360"/>
<text text-anchor="middle" x="526" y="-338.3" font-family="Helvetica,sans-Serif" font-size="14.00">vibration</text>
</g>
<!-- vibration&#45;&gt;rotate -->
<g id="edge9" class="edge">
<title>vibration&#45;&gt;rotate</title>
<path fill="none" stroke="black" stroke-width="1.2" d="M486.89,-340.68C429.12,-338.3 316.04,-332.16 221,-318 212.59,-316.75 203.62,-315.02 195.16,-313.2"/>
<polygon fill="black" stroke="black" stroke-width="1.2" points="195.69,-309.73 185.16,-310.97 194.16,-316.57 195.69,-309.73"/>
</g>
<!-- vibration&#45;&gt;err_error2 -->
<g id="edge25" class="edge">
<title>vibration&#45;&gt;err_error2</title>
<path fill="none" stroke="black" stroke-width="1.2" d="M565.11,-338.93C599.7,-335.53 651.9,-328.9 696,-317 705.24,-314.51 714.87,-311.23 724.08,-307.75"/>
<polygon fill="black" stroke="black" stroke-width="1.2" points="725.45,-310.98 733.48,-304.07 722.9,-304.46 725.45,-310.98"/>
</g>
<!-- vibration&#45;&gt;err_error3 -->
<g id="edge26" class="edge">
<title>vibration&#45;&gt;err_error3</title>
<path fill="none" stroke="black" stroke-width="1.2" d="M542.89,-323.76C564.96,-298.44 604.99,-252.52 630.08,-223.73"/>
<polygon fill="black" stroke="black" stroke-width="1.2" points="632.8,-225.93 636.73,-216.09 627.53,-221.33 632.8,-225.93"/>
</g>
<!-- err_error5 -->
<g id="node9" class="node">
<title>err_error5</title>
<path fill="white" stroke="black" d="M684,-308C684,-308 623,-308 623,-308 617,-308 611,-302 611,-296 611,-296 611,-284 611,-284 611,-278 617,-272 623,-272 623,-272 684,-272 684,-272 690,-272 696,-278 696,-284 696,-284 696,-296 696,-296 696,-302 690,-308 684,-308"/>
<text text-anchor="middle" x="653.5" y="-286.3" font-family="Helvetica,sans-Serif" font-size="14.00">err_error5</text>
</g>
<!-- vibration&#45;&gt;err_error5 -->
<g id="edge27" class="edge">
<title>vibration&#45;&gt;err_error5</title>
<path fill="none" stroke="black" stroke-width="1.2" d="M574.7,-322.24C583.45,-318.61 592.62,-314.81 601.47,-311.15"/>
<polygon fill="black" stroke="black" stroke-width="1.2" points="573.23,-319.05 565.34,-326.12 575.91,-325.52 573.23,-319.05"/>
<polygon fill="black" stroke="black" stroke-width="1.2" points="603.01,-314.3 610.91,-307.23 600.33,-307.83 603.01,-314.3"/>
</g>
<!-- vibration&#45;&gt;mnt_comp2 -->
<g id="edge28" class="edge">
<title>vibration&#45;&gt;mnt_comp2</title>
<path fill="none" stroke="black" stroke-width="1.2" d="M565.07,-343.8C599.41,-344.88 651.26,-345.2 696,-340 750.73,-333.64 763.83,-327.45 817,-313 825.48,-310.69 834.39,-308.07 843.09,-305.37"/>
<polygon fill="black" stroke="black" stroke-width="1.2" points="844.32,-308.66 852.81,-302.32 842.22,-301.98 844.32,-308.66"/>
</g>
<!-- mnt_comp4 -->
<g id="node13" class="node">
<title>mnt_comp4</title>
<path fill="white" stroke="black" d="M1073,-626C1073,-626 999,-626 999,-626 993,-626 987,-620 987,-614 987,-614 987,-602 987,-602 987,-596 993,-590 999,-590 999,-590 1073,-590 1073,-590 1079,-590 1085,-596 1085,-602 1085,-602 1085,-614 1085,-614 1085,-620 1079,-626 1073,-626"/>
<text text-anchor="middle" x="1036" y="-604.3" font-family="Helvetica,sans-Serif" font-size="14.00">mnt_comp4</text>
</g>
<!-- vibration&#45;&gt;mnt_comp4 -->
<g id="edge29" class="edge">
<title>vibration&#45;&gt;mnt_comp4</title>
<path fill="none" stroke="black" stroke-width="1.2" d="M570.67,-364.87C666.68,-415.14 895.23,-534.82 991.29,-585.11"/>
<polygon fill="black" stroke="black" stroke-width="1.2" points="572,-361.61 561.52,-360.07 568.75,-367.81 572,-361.61"/>
<polygon fill="black" stroke="black" stroke-width="1.2" points="989.95,-588.36 1000.44,-589.9 993.2,-582.16 989.95,-588.36"/>
</g>
<!-- vibration&#45;&gt;fail_comp1 -->
<g id="edge30" class="edge">
<title>vibration&#45;&gt;fail_comp1</title>
<path fill="none" stroke="black" stroke-width="1.2" d="M486.9,-351.85C450.3,-362.12 394.06,-380.07 349,-404 330.48,-413.83 311.55,-427.6 296.66,-439.47"/>
<polygon fill="black" stroke="black" stroke-width="1.2" points="294.38,-436.81 288.82,-445.84 298.79,-442.25 294.38,-436.81"/>
</g>
<!-- err_error1&#45;&gt;rotate -->
<g id="edge10" class="edge">
<title>err_error1&#45;&gt;rotate</title>
<path fill="none" stroke="black" stroke-width="1.2" d="M864.1,-321.67C860.16,-319.02 856.37,-316.12 853,-313 831.85,-293.39 836.98,-279.81 817,-259 770.95,-211.03 759.24,-191.56 696,-171 494.45,-105.46 399.9,-99.37 221,-213 197.17,-228.14 179.81,-255.77 169.33,-276.62"/>
<polygon fill="black" stroke="black" stroke-width="1.2" points="166.16,-275.13 164.99,-285.66 172.47,-278.16 166.16,-275.13"/>
</g>
<!-- err_error1&#45;&gt;err_error4 -->
<g id="edge33" class="edge">
<title>err_error1&#45;&gt;err_error4</title>
<path fill="none" stroke="black" stroke-width="1.2" d="M944.77,-340C956.8,-340 970.09,-340 982.68,-340"/>
<polygon fill="black" stroke="black" stroke-width="1.2" points="983.05,-343.5 993.05,-340 983.05,-336.5 983.05,-343.5"/>
</g>
<!-- err_error2&#45;&gt;volt -->
<g id="edge3" class="edge">
<title>err_error2&#45;&gt;volt</title>
<path fill="none" stroke="black" stroke-width="1.2" d="M765.51,-304.14C730.8,-382.81 593.92,-691.05 575,-703 411.42,-806.3 169.43,-666.46 80.96,-607.76"/>
<polygon fill="black" stroke="black" stroke-width="1.2" points="82.9,-604.85 72.65,-602.18 79,-610.66 82.9,-604.85"/>
</g>
<!-- err_error3&#45;&gt;err_error2 -->
<g id="edge34" class="edge">
<title>err_error3&#45;&gt;err_error2</title>
<path fill="none" stroke="black" stroke-width="1.2" d="M678.87,-216.02C696.72,-229.22 721.14,-247.28 740.7,-261.75"/>
<polygon fill="black" stroke="black" stroke-width="1.2" points="738.63,-264.57 748.76,-267.7 742.8,-258.94 738.63,-264.57"/>
</g>
<!-- err_error3&#45;&gt;err_error4 -->
<g id="edge35" class="edge">
<title>err_error3&#45;&gt;err_error4</title>
<path fill="none" stroke="black" stroke-width="1.2" d="M696.25,-199.33C755.98,-202.79 867.78,-215.14 951,-259 976.33,-272.35 999.3,-295.65 1014.79,-313.85"/>
<polygon fill="black" stroke="black" stroke-width="1.2" points="1012.29,-316.32 1021.36,-321.79 1017.69,-311.86 1012.29,-316.32"/>
</g>
<!-- err_error4&#45;&gt;volt -->
<g id="edge4" class="edge">
<title>err_error4&#45;&gt;volt</title>
<path fill="none" stroke="black" stroke-width="1.2" d="M1030.74,-321.72C1013.09,-251.1 938.86,0 775.5,0 652.5,0 652.5,0 652.5,0 548.77,0 230.81,-28.26 128,-185 87.36,-246.95 58.96,-475.01 50.01,-555.58"/>
<polygon fill="black" stroke="black" stroke-width="1.2" points="46.48,-555.61 48.88,-565.94 53.44,-556.38 46.48,-555.61"/>
</g>
<!-- err_error5&#45;&gt;rotate -->
<g id="edge13" class="edge">
<title>err_error5&#45;&gt;rotate</title>
<path fill="none" stroke="black" stroke-width="1.2" d="M610.97,-291.17C516.4,-293.85 286.18,-300.36 195.3,-302.93"/>
<polygon fill="black" stroke="black" stroke-width="1.2" points="195.07,-299.44 185.17,-303.22 195.27,-306.43 195.07,-299.44"/>
</g>
<!-- err_error5&#45;&gt;pressure -->
<g id="edge21" class="edge">
<title>err_error5&#45;&gt;pressure</title>
<path fill="none" stroke="black" stroke-width="1.2" d="M672.57,-308.23C692.79,-328.61 725.66,-361.76 748.37,-384.66"/>
<polygon fill="black" stroke="black" stroke-width="1.2" points="746.12,-387.36 755.65,-392 751.09,-382.43 746.12,-387.36"/>
</g>
<!-- mnt_comp1 -->
<g id="node10" class="node">
<title>mnt_comp1</title>
<path fill="white" stroke="black" d="M563,-562C563,-562 489,-562 489,-562 483,-562 477,-556 477,-550 477,-550 477,-538 477,-538 477,-532 483,-526 489,-526 489,-526 563,-526 563,-526 569,-526 575,-532 575,-538 575,-538 575,-550 575,-550 575,-556 569,-562 563,-562"/>
<text text-anchor="middle" x="526" y="-540.3" font-family="Helvetica,sans-Serif" font-size="14.00">mnt_comp1</text>
</g>
<!-- mnt_comp1&#45;&gt;volt -->
<g id="edge5" class="edge">
<title>mnt_comp1&#45;&gt;volt</title>
<path fill="none" stroke="black" stroke-width="1.2" d="M476.81,-555.67C465.15,-558.12 452.68,-560.43 441,-562 310.22,-579.56 153.19,-583.15 83.45,-583.85"/>
<polygon fill="black" stroke="black" stroke-width="1.2" points="83.38,-580.35 73.42,-583.94 83.45,-587.35 83.38,-580.35"/>
</g>
<!-- mnt_comp1&#45;&gt;rotate -->
<g id="edge14" class="edge">
<title>mnt_comp1&#45;&gt;rotate</title>
<path fill="none" stroke="black" stroke-width="1.2" d="M476.84,-549.91C410.77,-555.18 292.14,-554.11 221,-491 174.62,-449.85 162.08,-373.52 158.71,-332.25"/>
<polygon fill="black" stroke="black" stroke-width="1.2" points="162.19,-331.81 158.01,-322.08 155.21,-332.29 162.19,-331.81"/>
</g>
<!-- mnt_comp1&#45;&gt;err_error4 -->
<g id="edge36" class="edge">
<title>mnt_comp1&#45;&gt;err_error4</title>
<path fill="none" stroke="black" stroke-width="1.2" d="M575.19,-530.92C655.41,-508.27 820.41,-458 951,-394 968.44,-385.45 986.7,-374.05 1001.72,-363.92"/>
<polygon fill="black" stroke="black" stroke-width="1.2" points="1003.89,-366.68 1010.16,-358.14 999.94,-360.9 1003.89,-366.68"/>
</g>
<!-- mnt_comp1&#45;&gt;mnt_comp4 -->
<g id="edge37" class="edge">
<title>mnt_comp1&#45;&gt;mnt_comp4</title>
<path fill="none" stroke="black" stroke-width="1.2" d="M575.25,-550.08C668.99,-561.89 875.39,-587.89 976.65,-600.65"/>
<polygon fill="black" stroke="black" stroke-width="1.2" points="976.34,-604.14 986.7,-601.92 977.22,-597.19 976.34,-604.14"/>
</g>
<!-- mnt_comp2&#45;&gt;mnt_comp4 -->
<g id="edge40" class="edge">
<title>mnt_comp2&#45;&gt;mnt_comp4</title>
<path fill="none" stroke="black" stroke-width="1.2" d="M941.87,-304.09C945.27,-306.73 948.39,-309.7 951,-313 1015.31,-394.53 1030.39,-523.02 1033.92,-579.62"/>
<polygon fill="black" stroke="black" stroke-width="1.2" points="1030.44,-580.15 1034.48,-589.95 1037.43,-579.77 1030.44,-580.15"/>
</g>
<!-- mnt_comp3&#45;&gt;volt -->
<g id="edge6" class="edge">
<title>mnt_comp3&#45;&gt;volt</title>
<path fill="none" stroke="black" stroke-width="1.2" d="M476.9,-675.96C441.36,-675.28 391.9,-672.96 349,-666 251.06,-650.1 139.16,-615.15 83.06,-596.43"/>
<polygon fill="black" stroke="black" stroke-width="1.2" points="83.85,-593 73.25,-593.13 81.62,-599.63 83.85,-593"/>
</g>
<!-- mnt_comp3&#45;&gt;mnt_comp4 -->
<g id="edge42" class="edge">
<title>mnt_comp3&#45;&gt;mnt_comp4</title>
<path fill="none" stroke="black" stroke-width="1.2" d="M575.29,-675.63C654.62,-674.15 817.1,-667.41 951,-638 961.09,-635.78 971.62,-632.69 981.68,-629.32"/>
<polygon fill="black" stroke="black" stroke-width="1.2" points="982.85,-632.62 991.15,-626.03 980.55,-626 982.85,-632.62"/>
</g>
<!-- mnt_comp4&#45;&gt;volt -->
<g id="edge7" class="edge">
<title>mnt_comp4&#45;&gt;volt</title>
<path fill="none" stroke="black" stroke-width="1.2" d="M1020.51,-626.3C984.27,-669.84 884.72,-776 775.5,-776 266,-776 266,-776 266,-776 167.02,-776 91.37,-663.74 61.24,-610.9"/>
<polygon fill="black" stroke="black" stroke-width="1.2" points="64.23,-609.09 56.31,-602.06 58.12,-612.5 64.23,-609.09"/>
</g>
<!-- fail_comp1&#45;&gt;mnt_comp1 -->
<g id="edge38" class="edge">
<title>fail_comp1&#45;&gt;mnt_comp1</title>
<path fill="none" stroke="black" stroke-width="1.2" d="M313.33,-479.37C324.94,-483.23 337.41,-487.33 349,-491 388.17,-503.42 432.48,-516.76 466.83,-526.95"/>
<polygon fill="black" stroke="black" stroke-width="1.2" points="466.12,-530.39 476.7,-529.87 468.11,-523.68 466.12,-530.39"/>
</g>
<!-- fail_comp1&#45;&gt;mnt_comp4 -->
<g id="edge44" class="edge">
<title>fail_comp1&#45;&gt;mnt_comp4</title>
<path fill="none" stroke="black" stroke-width="1.2" d="M283.04,-482.04C319.71,-523.89 418.57,-624 525,-624 525,-624 525,-624 775.5,-624 844.69,-624 924.05,-618.26 976.61,-613.66"/>
<polygon fill="black" stroke="black" stroke-width="1.2" points="977.1,-617.13 986.75,-612.76 976.48,-610.16 977.1,-617.13"/>
</g>
<!-- fail_comp1&#45;&gt;fail_comp3 -->
<g id="edge45" class="edge">
<title>fail_comp1&#45;&gt;fail_comp3</title>
<path fill="none" stroke="black" stroke-width="1.2" d="M313.13,-464C321.37,-464 330.04,-464 338.53,-464"/>
<polygon fill="black" stroke="black" stroke-width="1.2" points="338.76,-467.5 348.76,-464 338.76,-460.5 338.76,-467.5"/>
</g>
<!-- fail_comp2 -->
<g id="node15" class="node">
<title>fail_comp2</title>
<path fill="white" stroke="black" d="M80,-56C80,-56 12,-56 12,-56 6,-56 0,-50 0,-44 0,-44 0,-32 0,-32 0,-26 6,-20 12,-20 12,-20 80,-20 80,-20 86,-20 92,-26 92,-32 92,-32 92,-44 92,-44 92,-50 86,-56 80,-56"/>
<text text-anchor="middle" x="46" y="-34.3" font-family="Helvetica,sans-Serif" font-size="14.00">fail_comp2</text>
</g>
<!-- fail_comp2&#45;&gt;rotate -->
<g id="edge18" class="edge">
<title>fail_comp2&#45;&gt;rotate</title>
<path fill="none" stroke="black" stroke-width="1.2" d="M54.46,-56.28C73.16,-102.14 122.15,-222.25 144.32,-276.59"/>
<polygon fill="black" stroke="black" stroke-width="1.2" points="141.12,-278 148.13,-285.94 147.6,-275.36 141.12,-278"/>
</g>
<!-- fail_comp2&#45;&gt;vibration -->
<g id="edge31" class="edge">
<title>fail_comp2&#45;&gt;vibration</title>
<path fill="none" stroke="black" stroke-width="1.2" d="M75.47,-56.11C157.75,-108.43 395.83,-259.85 487.97,-318.45"/>
<polygon fill="black" stroke="black" stroke-width="1.2" points="486.36,-321.58 496.68,-323.99 490.12,-315.67 486.36,-321.58"/>
</g>
<!-- fail_comp2&#45;&gt;mnt_comp2 -->
<g id="edge41" class="edge">
<title>fail_comp2&#45;&gt;mnt_comp2</title>
<path fill="none" stroke="black" stroke-width="1.2" d="M92.34,-29.56C219.52,-8.51 585.41,33.85 817,-125 862.67,-156.33 885.21,-220.47 894.87,-257.64"/>
<polygon fill="black" stroke="black" stroke-width="1.2" points="891.58,-258.92 897.36,-267.8 898.38,-257.25 891.58,-258.92"/>
</g>
<!-- fail_comp3&#45;&gt;vibration -->
<g id="edge32" class="edge">
<title>fail_comp3&#45;&gt;vibration</title>
<path fill="none" stroke="black" stroke-width="1.2" d="M415.03,-446C437.14,-425.09 473.73,-390.48 498.58,-366.98"/>
<polygon fill="black" stroke="black" stroke-width="1.2" points="501.03,-369.49 505.89,-360.08 496.22,-364.4 501.03,-369.49"/>
</g>
<!-- fail_comp3&#45;&gt;mnt_comp1 -->
<g id="edge39" class="edge">
<title>fail_comp3&#45;&gt;mnt_comp1</title>
<path fill="none" stroke="black" stroke-width="1.2" d="M425.27,-482.15C443.58,-493.51 467.35,-508.25 487.09,-520.49"/>
<polygon fill="black" stroke="black" stroke-width="1.2" points="485.5,-523.62 495.84,-525.92 489.19,-517.67 485.5,-523.62"/>
</g>
<!-- fail_comp3&#45;&gt;mnt_comp3 -->
<g id="edge43" class="edge">
<title>fail_comp3&#45;&gt;mnt_comp3</title>
<path fill="none" stroke="black" stroke-width="1.2" d="M407,-482.08C429.75,-519.47 482.09,-605.48 508.75,-649.29"/>
<polygon fill="black" stroke="black" stroke-width="1.2" points="505.84,-651.25 514.03,-657.97 511.82,-647.61 505.84,-651.25"/>
</g>
</g>
</svg>
