<?xml version="1.0" encoding="UTF-8" standalone="no"?>
<!DOCTYPE svg PUBLIC "-//W3C//DTD SVG 1.1//EN"
 "http://www.w3.org/Graphics/SVG/1.1/DTD/svg11.dtd">
<!-- Generated by graphviz version 2.50.0 (0)
 -->
<!-- Title: G Pages: 1 -->
<svg width="1035pt" height="674pt"
 viewBox="0.00 0.00 1035.00 674.10" xmlns="http://www.w3.org/2000/svg" xmlns:xlink="http://www.w3.org/1999/xlink">
<g id="graph0" class="graph" transform="scale(1 1) rotate(0) translate(4 670.1)">
<title>G</title>
<polygon fill="white" stroke="transparent" points="-4,4 -4,-670.1 1031,-670.1 1031,4 -4,4"/>
<text text-anchor="middle" x="513.5" y="-649.3" font-family="Times,serif" font-size="16.00">model=model2/nbcb_w_mixed.json [machine 73]</text>
<!-- volt -->
<g id="node1" class="node">
<title>volt</title>
<path fill="white" stroke="black" d="M42,-507C42,-507 12,-507 12,-507 6,-507 0,-501 0,-495 0,-495 0,-483 0,-483 0,-477 6,-471 12,-471 12,-471 42,-471 42,-471 48,-471 54,-477 54,-483 54,-483 54,-495 54,-495 54,-501 48,-507 42,-507"/>
<text text-anchor="middle" x="27" y="-485.3" font-family="Helvetica,sans-Serif" font-size="14.00">volt</text>
</g>
<!-- rotate -->
<g id="node2" class="node">
<title>rotate</title>
<path fill="white" stroke="black" d="M135,-224C135,-224 102,-224 102,-224 96,-224 90,-218 90,-212 90,-212 90,-200 90,-200 90,-194 96,-188 102,-188 102,-188 135,-188 135,-188 141,-188 147,-194 147,-200 147,-200 147,-212 147,-212 147,-218 141,-224 135,-224"/>
<text text-anchor="middle" x="118.5" y="-202.3" font-family="Helvetica,sans-Serif" font-size="14.00">rotate</text>
</g>
<!-- volt&#45;&gt;rotate -->
<g id="edge1" class="edge">
<title>volt&#45;&gt;rotate</title>
<path fill="none" stroke="black" stroke-width="1.2" d="M33.73,-470.87C48.95,-422.76 90.41,-291.65 108.67,-233.92"/>
<polygon fill="black" stroke="black" stroke-width="1.2" points="112.02,-234.94 111.7,-224.35 105.34,-232.83 112.02,-234.94"/>
</g>
<!-- err_error1 -->
<g id="node5" class="node">
<title>err_error1</title>
<path fill="white" stroke="black" d="M256,-374C256,-374 195,-374 195,-374 189,-374 183,-368 183,-362 183,-362 183,-350 183,-350 183,-344 189,-338 195,-338 195,-338 256,-338 256,-338 262,-338 268,-344 268,-350 268,-350 268,-362 268,-362 268,-368 262,-374 256,-374"/>
<text text-anchor="middle" x="225.5" y="-352.3" font-family="Helvetica,sans-Serif" font-size="14.00">err_error1</text>
</g>
<!-- volt&#45;&gt;err_error1 -->
<g id="edge2" class="edge">
<title>volt&#45;&gt;err_error1</title>
<path fill="none" stroke="black" stroke-width="1.2" d="M62.42,-465.71C97.93,-441.67 153.06,-404.35 188.98,-380.04"/>
<polygon fill="black" stroke="black" stroke-width="1.2" points="60.41,-462.83 54.09,-471.34 64.34,-468.63 60.41,-462.83"/>
<polygon fill="black" stroke="black" stroke-width="1.2" points="191.35,-382.66 197.67,-374.16 187.42,-376.87 191.35,-382.66"/>
</g>
<!-- err_error3 -->
<g id="node7" class="node">
<title>err_error3</title>
<path fill="white" stroke="black" d="M256,-522C256,-522 195,-522 195,-522 189,-522 183,-516 183,-510 183,-510 183,-498 183,-498 183,-492 189,-486 195,-486 195,-486 256,-486 256,-486 262,-486 268,-492 268,-498 268,-498 268,-510 268,-510 268,-516 262,-522 256,-522"/>
<text text-anchor="middle" x="225.5" y="-500.3" font-family="Helvetica,sans-Serif" font-size="14.00">err_error3</text>
</g>
<!-- volt&#45;&gt;err_error3 -->
<g id="edge3" class="edge">
<title>volt&#45;&gt;err_error3</title>
<path fill="none" stroke="black" stroke-width="1.2" d="M54.09,-490.99C84.15,-493.29 134.3,-497.11 172.43,-500.02"/>
<polygon fill="black" stroke="black" stroke-width="1.2" points="172.6,-503.55 182.84,-500.82 173.13,-496.57 172.6,-503.55"/>
</g>
<!-- mnt_comp2 -->
<g id="node11" class="node">
<title>mnt_comp2</title>
<path fill="white" stroke="black" d="M881,-363C881,-363 807,-363 807,-363 801,-363 795,-357 795,-351 795,-351 795,-339 795,-339 795,-333 801,-327 807,-327 807,-327 881,-327 881,-327 887,-327 893,-333 893,-339 893,-339 893,-351 893,-351 893,-357 887,-363 881,-363"/>
<text text-anchor="middle" x="844" y="-341.3" font-family="Helvetica,sans-Serif" font-size="14.00">mnt_comp2</text>
</g>
<!-- volt&#45;&gt;mnt_comp2 -->
<g id="edge5" class="edge">
<title>volt&#45;&gt;mnt_comp2</title>
<path fill="none" stroke="black" stroke-width="1.2" d="M62.79,-511.15C100.92,-533.27 164.67,-564 224.5,-564 224.5,-564 224.5,-564 586,-564 665.02,-564 697.71,-572.88 759,-523 788.3,-499.16 778.89,-480.17 795,-446 806.74,-421.1 820.2,-392.8 829.87,-372.5"/>
<polygon fill="black" stroke="black" stroke-width="1.2" points="64.51,-508.11 54.12,-506.02 60.94,-514.13 64.51,-508.11"/>
<polygon fill="black" stroke="black" stroke-width="1.2" points="833.15,-373.76 834.29,-363.23 826.83,-370.75 833.15,-373.76"/>
</g>
<!-- fail_comp1 -->
<g id="node14" class="node">
<title>fail_comp1</title>
<path fill="white" stroke="black" d="M747,-514C747,-514 679,-514 679,-514 673,-514 667,-508 667,-502 667,-502 667,-490 667,-490 667,-484 673,-478 679,-478 679,-478 747,-478 747,-478 753,-478 759,-484 759,-490 759,-490 759,-502 759,-502 759,-508 753,-514 747,-514"/>
<text text-anchor="middle" x="713" y="-492.3" font-family="Helvetica,sans-Serif" font-size="14.00">fail_comp1</text>
</g>
<!-- volt&#45;&gt;fail_comp1 -->
<g id="edge7" class="edge">
<title>volt&#45;&gt;fail_comp1</title>
<path fill="none" stroke="black" stroke-width="1.2" d="M35.5,-507.27C44.98,-527.94 63.36,-560.94 90,-578 141.14,-610.74 163.78,-602 224.5,-602 224.5,-602 224.5,-602 461.5,-602 545.13,-602 632.92,-551.28 679.11,-520.01"/>
<polygon fill="black" stroke="black" stroke-width="1.2" points="681.25,-522.78 687.5,-514.22 677.28,-517.01 681.25,-522.78"/>
</g>
<!-- fail_comp4 -->
<g id="node17" class="node">
<title>fail_comp4</title>
<path fill="white" stroke="black" d="M747,-224C747,-224 679,-224 679,-224 673,-224 667,-218 667,-212 667,-212 667,-200 667,-200 667,-194 673,-188 679,-188 679,-188 747,-188 747,-188 753,-188 759,-194 759,-200 759,-200 759,-212 759,-212 759,-218 753,-224 747,-224"/>
<text text-anchor="middle" x="713" y="-202.3" font-family="Helvetica,sans-Serif" font-size="14.00">fail_comp4</text>
</g>
<!-- volt&#45;&gt;fail_comp4 -->
<g id="edge8" class="edge">
<title>volt&#45;&gt;fail_comp4</title>
<path fill="none" stroke="black" stroke-width="1.2" d="M27.49,-470.76C26.17,-386.39 32.33,-38 224.5,-38 224.5,-38 224.5,-38 461.5,-38 539.92,-38 567.51,-40.97 631,-87 663.44,-110.52 687.01,-151.25 700.11,-178.41"/>
<polygon fill="black" stroke="black" stroke-width="1.2" points="697.06,-180.16 704.45,-187.74 703.4,-177.2 697.06,-180.16"/>
</g>
<!-- rotate&#45;&gt;err_error1 -->
<g id="edge9" class="edge">
<title>rotate&#45;&gt;err_error1</title>
<path fill="none" stroke="black" stroke-width="1.2" d="M132.17,-224.09C150.53,-250.33 184.68,-299.12 205.91,-329.44"/>
<polygon fill="black" stroke="black" stroke-width="1.2" points="203.19,-331.66 211.79,-337.84 208.92,-327.64 203.19,-331.66"/>
</g>
<!-- err_error2 -->
<g id="node6" class="node">
<title>err_error2</title>
<path fill="white" stroke="black" d="M491,-178C491,-178 430,-178 430,-178 424,-178 418,-172 418,-166 418,-166 418,-154 418,-154 418,-148 424,-142 430,-142 430,-142 491,-142 491,-142 497,-142 503,-148 503,-154 503,-154 503,-166 503,-166 503,-172 497,-178 491,-178"/>
<text text-anchor="middle" x="460.5" y="-156.3" font-family="Helvetica,sans-Serif" font-size="14.00">err_error2</text>
</g>
<!-- rotate&#45;&gt;err_error2 -->
<g id="edge10" class="edge">
<title>rotate&#45;&gt;err_error2</title>
<path fill="none" stroke="black" stroke-width="1.2" d="M147.2,-199.25C158.28,-196.72 171.2,-193.98 183,-192 260.84,-178.95 351.91,-169.53 407.64,-164.41"/>
<polygon fill="black" stroke="black" stroke-width="1.2" points="407.98,-167.9 417.62,-163.51 407.35,-160.93 407.98,-167.9"/>
</g>
<!-- pressure -->
<g id="node3" class="node">
<title>pressure</title>
<path fill="white" stroke="black" d="M611.5,-367C611.5,-367 558.5,-367 558.5,-367 552.5,-367 546.5,-361 546.5,-355 546.5,-355 546.5,-343 546.5,-343 546.5,-337 552.5,-331 558.5,-331 558.5,-331 611.5,-331 611.5,-331 617.5,-331 623.5,-337 623.5,-343 623.5,-343 623.5,-355 623.5,-355 623.5,-361 617.5,-367 611.5,-367"/>
<text text-anchor="middle" x="585" y="-345.3" font-family="Helvetica,sans-Serif" font-size="14.00">pressure</text>
</g>
<!-- vibration -->
<g id="node4" class="node">
<title>vibration</title>
<path fill="white" stroke="black" d="M370,-346C370,-346 316,-346 316,-346 310,-346 304,-340 304,-334 304,-334 304,-322 304,-322 304,-316 310,-310 316,-310 316,-310 370,-310 370,-310 376,-310 382,-316 382,-322 382,-322 382,-334 382,-334 382,-340 376,-346 370,-346"/>
<text text-anchor="middle" x="343" y="-324.3" font-family="Helvetica,sans-Serif" font-size="14.00">vibration</text>
</g>
<!-- pressure&#45;&gt;vibration -->
<g id="edge13" class="edge">
<title>pressure&#45;&gt;vibration</title>
<path fill="none" stroke="black" stroke-width="1.2" d="M546.44,-354.82C512.59,-359.01 461.59,-362.7 418,-355 409.29,-353.46 400.26,-350.98 391.63,-348.12"/>
<polygon fill="black" stroke="black" stroke-width="1.2" points="392.68,-344.78 382.09,-344.77 390.36,-351.39 392.68,-344.78"/>
</g>
<!-- pressure&#45;&gt;err_error1 -->
<g id="edge14" class="edge">
<title>pressure&#45;&gt;err_error1</title>
<path fill="none" stroke="black" stroke-width="1.2" d="M546.11,-361.52C532.65,-365.37 517.3,-369.09 503,-371 425.17,-381.38 334.1,-372.41 278.36,-364.55"/>
<polygon fill="black" stroke="black" stroke-width="1.2" points="278.78,-361.08 268.38,-363.11 277.77,-368.01 278.78,-361.08"/>
</g>
<!-- pressure&#45;&gt;fail_comp1 -->
<g id="edge18" class="edge">
<title>pressure&#45;&gt;fail_comp1</title>
<path fill="none" stroke="black" stroke-width="1.2" d="M618.68,-367.03C623.04,-370.09 627.28,-373.43 631,-377 659.42,-404.28 683.56,-443.09 697.9,-468.88"/>
<polygon fill="black" stroke="black" stroke-width="1.2" points="694.88,-470.64 702.74,-477.75 701.03,-467.29 694.88,-470.64"/>
</g>
<!-- fail_comp3 -->
<g id="node16" class="node">
<title>fail_comp3</title>
<path fill="white" stroke="black" d="M747,-317C747,-317 679,-317 679,-317 673,-317 667,-311 667,-305 667,-305 667,-293 667,-293 667,-287 673,-281 679,-281 679,-281 747,-281 747,-281 753,-281 759,-287 759,-293 759,-293 759,-305 759,-305 759,-311 753,-317 747,-317"/>
<text text-anchor="middle" x="713" y="-295.3" font-family="Helvetica,sans-Serif" font-size="14.00">fail_comp3</text>
</g>
<!-- pressure&#45;&gt;fail_comp3 -->
<g id="edge19" class="edge">
<title>pressure&#45;&gt;fail_comp3</title>
<path fill="none" stroke="black" stroke-width="1.2" d="M623.8,-334C634.34,-329.82 646,-325.19 657.29,-320.71"/>
<polygon fill="black" stroke="black" stroke-width="1.2" points="658.66,-323.93 666.66,-316.99 656.08,-317.43 658.66,-323.93"/>
</g>
<!-- pressure&#45;&gt;fail_comp4 -->
<g id="edge20" class="edge">
<title>pressure&#45;&gt;fail_comp4</title>
<path fill="none" stroke="black" stroke-width="1.2" d="M601.96,-330.89C623.99,-305.88 663.86,-260.64 689.08,-232.02"/>
<polygon fill="black" stroke="black" stroke-width="1.2" points="691.79,-234.23 695.77,-224.42 686.54,-229.6 691.79,-234.23"/>
</g>
<!-- vibration&#45;&gt;err_error2 -->
<g id="edge22" class="edge">
<title>vibration&#45;&gt;err_error2</title>
<path fill="none" stroke="black" stroke-width="1.2" d="M362.52,-301.07C384.13,-269.63 419.64,-217.98 441.17,-186.66"/>
<polygon fill="black" stroke="black" stroke-width="1.2" points="359.36,-299.48 356.58,-309.7 365.13,-303.44 359.36,-299.48"/>
<polygon fill="black" stroke="black" stroke-width="1.2" points="444.33,-188.25 447.11,-178.02 438.56,-184.28 444.33,-188.25"/>
</g>
<!-- err_error4 -->
<g id="node8" class="node">
<title>err_error4</title>
<path fill="white" stroke="black" d="M491,-346C491,-346 430,-346 430,-346 424,-346 418,-340 418,-334 418,-334 418,-322 418,-322 418,-316 424,-310 430,-310 430,-310 491,-310 491,-310 497,-310 503,-316 503,-322 503,-322 503,-334 503,-334 503,-340 497,-346 491,-346"/>
<text text-anchor="middle" x="460.5" y="-324.3" font-family="Helvetica,sans-Serif" font-size="14.00">err_error4</text>
</g>
<!-- vibration&#45;&gt;err_error4 -->
<g id="edge23" class="edge">
<title>vibration&#45;&gt;err_error4</title>
<path fill="none" stroke="black" stroke-width="1.2" d="M392.29,-328C397.33,-328 402.46,-328 407.54,-328"/>
<polygon fill="black" stroke="black" stroke-width="1.2" points="392.14,-324.5 382.14,-328 392.14,-331.5 392.14,-324.5"/>
<polygon fill="black" stroke="black" stroke-width="1.2" points="407.82,-331.5 417.82,-328 407.82,-324.5 407.82,-331.5"/>
</g>
<!-- err_error5 -->
<g id="node9" class="node">
<title>err_error5</title>
<path fill="white" stroke="black" d="M615.5,-132C615.5,-132 554.5,-132 554.5,-132 548.5,-132 542.5,-126 542.5,-120 542.5,-120 542.5,-108 542.5,-108 542.5,-102 548.5,-96 554.5,-96 554.5,-96 615.5,-96 615.5,-96 621.5,-96 627.5,-102 627.5,-108 627.5,-108 627.5,-120 627.5,-120 627.5,-126 621.5,-132 615.5,-132"/>
<text text-anchor="middle" x="585" y="-110.3" font-family="Helvetica,sans-Serif" font-size="14.00">err_error5</text>
</g>
<!-- vibration&#45;&gt;err_error5 -->
<g id="edge24" class="edge">
<title>vibration&#45;&gt;err_error5</title>
<path fill="none" stroke="black" stroke-width="1.2" d="M345.83,-299.72C350.28,-256.25 365.56,-173.78 418,-133 449.99,-108.12 496.5,-104.74 532.16,-106.8"/>
<polygon fill="black" stroke="black" stroke-width="1.2" points="342.32,-299.61 344.91,-309.88 349.29,-300.24 342.32,-299.61"/>
<polygon fill="black" stroke="black" stroke-width="1.2" points="532.15,-110.31 542.38,-107.55 532.66,-103.33 532.15,-110.31"/>
</g>
<!-- vibration&#45;&gt;fail_comp3 -->
<g id="edge27" class="edge">
<title>vibration&#45;&gt;fail_comp3</title>
<path fill="none" stroke="black" stroke-width="1.2" d="M382.09,-311.28C393.43,-307.08 406.02,-303.16 418,-301 500.1,-286.2 597.2,-289.48 656.69,-293.79"/>
<polygon fill="black" stroke="black" stroke-width="1.2" points="656.75,-297.31 666.98,-294.57 657.28,-290.33 656.75,-297.31"/>
</g>
<!-- vibration&#45;&gt;fail_comp4 -->
<g id="edge28" class="edge">
<title>vibration&#45;&gt;fail_comp4</title>
<path fill="none" stroke="black" stroke-width="1.2" d="M372.74,-309.99C386.13,-302.15 402.5,-293.33 418,-287 498.51,-254.15 596.74,-230.11 656.8,-217.1"/>
<polygon fill="black" stroke="black" stroke-width="1.2" points="657.79,-220.47 666.83,-214.95 656.32,-213.62 657.79,-220.47"/>
</g>
<!-- err_error1&#45;&gt;vibration -->
<g id="edge21" class="edge">
<title>err_error1&#45;&gt;vibration</title>
<path fill="none" stroke="black" stroke-width="1.2" d="M268.2,-345.89C276.56,-343.86 285.41,-341.72 293.96,-339.65"/>
<polygon fill="black" stroke="black" stroke-width="1.2" points="294.93,-343.01 303.82,-337.26 293.28,-336.21 294.93,-343.01"/>
</g>
<!-- err_error2&#45;&gt;pressure -->
<g id="edge15" class="edge">
<title>err_error2&#45;&gt;pressure</title>
<path fill="none" stroke="black" stroke-width="1.2" d="M473.25,-178.12C494.92,-211.57 541.31,-283.13 566.63,-322.2"/>
<polygon fill="black" stroke="black" stroke-width="1.2" points="563.91,-324.44 572.29,-330.93 569.79,-320.64 563.91,-324.44"/>
</g>
<!-- err_error2&#45;&gt;err_error5 -->
<g id="edge29" class="edge">
<title>err_error2&#45;&gt;err_error5</title>
<path fill="none" stroke="black" stroke-width="1.2" d="M503.31,-144.3C512.78,-140.75 522.93,-136.93 532.73,-133.25"/>
<polygon fill="black" stroke="black" stroke-width="1.2" points="534.24,-136.42 542.37,-129.63 531.78,-129.87 534.24,-136.42"/>
</g>
<!-- err_error2&#45;&gt;fail_comp4 -->
<g id="edge30" class="edge">
<title>err_error2&#45;&gt;fail_comp4</title>
<path fill="none" stroke="black" stroke-width="1.2" d="M503.15,-167.65C545.27,-175.38 610.61,-187.38 656.98,-195.9"/>
<polygon fill="black" stroke="black" stroke-width="1.2" points="656.4,-199.35 666.86,-197.71 657.66,-192.46 656.4,-199.35"/>
</g>
<!-- err_error3&#45;&gt;pressure -->
<g id="edge16" class="edge">
<title>err_error3&#45;&gt;pressure</title>
<path fill="none" stroke="black" stroke-width="1.2" d="M268.41,-486.85C322.76,-464.48 420.41,-423.83 503,-387 514.08,-382.06 525.95,-376.59 537.08,-371.38"/>
<polygon fill="black" stroke="black" stroke-width="1.2" points="538.66,-374.51 546.23,-367.09 535.69,-368.17 538.66,-374.51"/>
</g>
<!-- err_error5&#45;&gt;rotate -->
<g id="edge11" class="edge">
<title>err_error5&#45;&gt;rotate</title>
<path fill="none" stroke="black" stroke-width="1.2" d="M542.17,-106.21C508.47,-101.13 459.96,-96.55 418,-103 320.11,-118.05 211.73,-163.15 156.41,-188.4"/>
<polygon fill="black" stroke="black" stroke-width="1.2" points="154.65,-185.35 147.04,-192.72 157.58,-191.71 154.65,-185.35"/>
</g>
<!-- mnt_comp1 -->
<g id="node10" class="node">
<title>mnt_comp1</title>
<path fill="white" stroke="black" d="M881,-491C881,-491 807,-491 807,-491 801,-491 795,-485 795,-479 795,-479 795,-467 795,-467 795,-461 801,-455 807,-455 807,-455 881,-455 881,-455 887,-455 893,-461 893,-467 893,-467 893,-479 893,-479 893,-485 887,-491 881,-491"/>
<text text-anchor="middle" x="844" y="-469.3" font-family="Helvetica,sans-Serif" font-size="14.00">mnt_comp1</text>
</g>
<!-- mnt_comp1&#45;&gt;volt -->
<g id="edge4" class="edge">
<title>mnt_comp1&#45;&gt;volt</title>
<path fill="none" stroke="black" stroke-width="1.2" d="M832.84,-491.15C818.98,-514.37 792.06,-554.4 759,-578 692.53,-625.46 667.68,-640 586,-640 224.5,-640 224.5,-640 224.5,-640 162.5,-640 138.57,-641.53 90,-603 62.26,-581 45.22,-543.05 36.19,-517.03"/>
<polygon fill="black" stroke="black" stroke-width="1.2" points="39.46,-515.77 33.01,-507.36 32.81,-517.95 39.46,-515.77"/>
</g>
<!-- mnt_comp1&#45;&gt;vibration -->
<g id="edge25" class="edge">
<title>mnt_comp1&#45;&gt;vibration</title>
<path fill="none" stroke="black" stroke-width="1.2" d="M794.84,-471.13C734.02,-467.69 626.71,-458.02 539,-431 481.63,-413.33 470.87,-399.43 418,-371 406.43,-364.78 394.04,-357.73 382.76,-351.17"/>
<polygon fill="black" stroke="black" stroke-width="1.2" points="384.39,-348.06 373.99,-346.03 380.85,-354.1 384.39,-348.06"/>
</g>
<!-- mnt_comp2&#45;&gt;pressure -->
<g id="edge17" class="edge">
<title>mnt_comp2&#45;&gt;pressure</title>
<path fill="none" stroke="black" stroke-width="1.2" d="M794.72,-345.75C748.71,-346.47 679.83,-347.54 633.93,-348.25"/>
<polygon fill="black" stroke="black" stroke-width="1.2" points="633.59,-344.76 623.65,-348.41 633.7,-351.76 633.59,-344.76"/>
</g>
<!-- mnt_comp3 -->
<g id="node12" class="node">
<title>mnt_comp3</title>
<path fill="white" stroke="black" d="M1015,-330C1015,-330 941,-330 941,-330 935,-330 929,-324 929,-318 929,-318 929,-306 929,-306 929,-300 935,-294 941,-294 941,-294 1015,-294 1015,-294 1021,-294 1027,-300 1027,-306 1027,-306 1027,-318 1027,-318 1027,-324 1021,-330 1015,-330"/>
<text text-anchor="middle" x="978" y="-308.3" font-family="Helvetica,sans-Serif" font-size="14.00">mnt_comp3</text>
</g>
<!-- mnt_comp2&#45;&gt;mnt_comp3 -->
<g id="edge33" class="edge">
<title>mnt_comp2&#45;&gt;mnt_comp3</title>
<path fill="none" stroke="black" stroke-width="1.2" d="M893.03,-332.99C901.49,-330.88 910.38,-328.66 919.08,-326.48"/>
<polygon fill="black" stroke="black" stroke-width="1.2" points="919.93,-329.87 928.79,-324.05 918.24,-323.08 919.93,-329.87"/>
</g>
<!-- mnt_comp4 -->
<g id="node13" class="node">
<title>mnt_comp4</title>
<path fill="white" stroke="black" d="M1015,-265C1015,-265 941,-265 941,-265 935,-265 929,-259 929,-253 929,-253 929,-241 929,-241 929,-235 935,-229 941,-229 941,-229 1015,-229 1015,-229 1021,-229 1027,-235 1027,-241 1027,-241 1027,-253 1027,-253 1027,-259 1021,-265 1015,-265"/>
<text text-anchor="middle" x="978" y="-243.3" font-family="Helvetica,sans-Serif" font-size="14.00">mnt_comp4</text>
</g>
<!-- mnt_comp2&#45;&gt;mnt_comp4 -->
<g id="edge34" class="edge">
<title>mnt_comp2&#45;&gt;mnt_comp4</title>
<path fill="none" stroke="black" stroke-width="1.2" d="M869.52,-326.8C890.63,-311.12 921.28,-288.37 944.45,-271.17"/>
<polygon fill="black" stroke="black" stroke-width="1.2" points="946.67,-273.88 952.61,-265.11 942.5,-268.26 946.67,-273.88"/>
</g>
<!-- mnt_comp4&#45;&gt;volt -->
<g id="edge6" class="edge">
<title>mnt_comp4&#45;&gt;volt</title>
<path fill="none" stroke="black" stroke-width="1.2" d="M968.72,-228.84C941.33,-171.8 847.73,0 714,0 224.5,0 224.5,0 224.5,0 159.22,0 129.52,-7.05 90,-59 41.66,-122.55 30.87,-375.09 28.58,-460.56"/>
<polygon fill="black" stroke="black" stroke-width="1.2" points="25.08,-460.72 28.33,-470.8 32.08,-460.89 25.08,-460.72"/>
</g>
<!-- fail_comp1&#45;&gt;vibration -->
<g id="edge26" class="edge">
<title>fail_comp1&#45;&gt;vibration</title>
<path fill="none" stroke="black" stroke-width="1.2" d="M666.85,-503.19C605.14,-510.52 493.49,-514.59 418,-464 380.49,-438.86 360.34,-388.14 350.92,-356.25"/>
<polygon fill="black" stroke="black" stroke-width="1.2" points="354.18,-354.91 348.13,-346.22 347.44,-356.79 354.18,-354.91"/>
</g>
<!-- fail_comp1&#45;&gt;mnt_comp1 -->
<g id="edge31" class="edge">
<title>fail_comp1&#45;&gt;mnt_comp1</title>
<path fill="none" stroke="black" stroke-width="1.2" d="M759.12,-487.96C767.37,-486.48 776.09,-484.93 784.66,-483.4"/>
<polygon fill="black" stroke="black" stroke-width="1.2" points="785.38,-486.83 794.62,-481.63 784.16,-479.94 785.38,-486.83"/>
</g>
<!-- fail_comp2 -->
<g id="node15" class="node">
<title>fail_comp2</title>
<path fill="white" stroke="black" d="M619,-422C619,-422 551,-422 551,-422 545,-422 539,-416 539,-410 539,-410 539,-398 539,-398 539,-392 545,-386 551,-386 551,-386 619,-386 619,-386 625,-386 631,-392 631,-398 631,-398 631,-410 631,-410 631,-416 625,-422 619,-422"/>
<text text-anchor="middle" x="585" y="-400.3" font-family="Helvetica,sans-Serif" font-size="14.00">fail_comp2</text>
</g>
<!-- fail_comp2&#45;&gt;mnt_comp1 -->
<g id="edge32" class="edge">
<title>fail_comp2&#45;&gt;mnt_comp1</title>
<path fill="none" stroke="black" stroke-width="1.2" d="M631.13,-409.42C666.45,-414.37 716.53,-422.91 759,-436 771.86,-439.96 785.38,-445.34 797.73,-450.77"/>
<polygon fill="black" stroke="black" stroke-width="1.2" points="796.35,-453.98 806.9,-454.9 799.23,-447.6 796.35,-453.98"/>
</g>
<!-- fail_comp2&#45;&gt;fail_comp3 -->
<g id="edge39" class="edge">
<title>fail_comp2&#45;&gt;fail_comp3</title>
<path fill="none" stroke="black" stroke-width="1.2" d="M617.06,-385.83C621.84,-382.71 626.63,-379.38 631,-376 651.31,-360.29 672.27,-340.24 687.78,-324.54"/>
<polygon fill="black" stroke="black" stroke-width="1.2" points="690.44,-326.82 694.93,-317.22 685.44,-321.93 690.44,-326.82"/>
</g>
<!-- fail_comp3&#45;&gt;rotate -->
<g id="edge12" class="edge">
<title>fail_comp3&#45;&gt;rotate</title>
<path fill="none" stroke="black" stroke-width="1.2" d="M666.59,-291.68C654.99,-289.82 642.53,-287.83 631,-286 453.74,-257.91 241.82,-224.97 157.15,-211.84"/>
<polygon fill="black" stroke="black" stroke-width="1.2" points="157.65,-208.37 147.23,-210.3 156.57,-215.29 157.65,-208.37"/>
</g>
<!-- fail_comp3&#45;&gt;mnt_comp2 -->
<g id="edge35" class="edge">
<title>fail_comp3&#45;&gt;mnt_comp2</title>
<path fill="none" stroke="black" stroke-width="1.2" d="M759.12,-315.09C767.46,-318.06 776.28,-321.21 784.94,-324.3"/>
<polygon fill="black" stroke="black" stroke-width="1.2" points="784.02,-327.68 794.62,-327.75 786.37,-321.09 784.02,-327.68"/>
</g>
<!-- fail_comp3&#45;&gt;mnt_comp3 -->
<g id="edge36" class="edge">
<title>fail_comp3&#45;&gt;mnt_comp3</title>
<path fill="none" stroke="black" stroke-width="1.2" d="M759.21,-301.23C803.27,-303.41 870.46,-306.73 918.56,-309.11"/>
<polygon fill="black" stroke="black" stroke-width="1.2" points="918.66,-312.62 928.82,-309.62 919.01,-305.63 918.66,-312.62"/>
</g>
<!-- fail_comp3&#45;&gt;mnt_comp4 -->
<g id="edge37" class="edge">
<title>fail_comp3&#45;&gt;mnt_comp4</title>
<path fill="none" stroke="black" stroke-width="1.2" d="M759.21,-290.06C803.36,-281.33 870.75,-268.01 918.86,-258.49"/>
<polygon fill="black" stroke="black" stroke-width="1.2" points="919.69,-261.9 928.82,-256.53 918.33,-255.03 919.69,-261.9"/>
</g>
<!-- fail_comp4&#45;&gt;mnt_comp4 -->
<g id="edge38" class="edge">
<title>fail_comp4&#45;&gt;mnt_comp4</title>
<path fill="none" stroke="black" stroke-width="1.2" d="M759.21,-213.05C803.36,-219.93 870.75,-230.44 918.86,-237.94"/>
<polygon fill="black" stroke="black" stroke-width="1.2" points="918.4,-241.41 928.82,-239.49 919.48,-234.49 918.4,-241.41"/>
</g>
</g>
</svg>
