<?xml version="1.0" encoding="UTF-8" standalone="no"?>
<!DOCTYPE svg PUBLIC "-//W3C//DTD SVG 1.1//EN"
 "http://www.w3.org/Graphics/SVG/1.1/DTD/svg11.dtd">
<!-- Generated by graphviz version 2.50.0 (0)
 -->
<!-- Title: G Pages: 1 -->
<svg width="1786pt" height="684pt"
 viewBox="0.00 0.00 1786.00 684.05" xmlns="http://www.w3.org/2000/svg" xmlns:xlink="http://www.w3.org/1999/xlink">
<g id="graph0" class="graph" transform="scale(1 1) rotate(0) translate(4 680.05)">
<title>G</title>
<polygon fill="white" stroke="transparent" points="-4,4 -4,-680.05 1782,-680.05 1782,4 -4,4"/>
<text text-anchor="middle" x="889" y="-659.25" font-family="Times,serif" font-size="16.00">model=model1/nbcb_w_mixed.json [machine 16]</text>
<!-- volt -->
<g id="node1" class="node">
<title>volt</title>
<path fill="white" stroke="black" d="M42,-319.05C42,-319.05 12,-319.05 12,-319.05 6,-319.05 0,-313.05 0,-307.05 0,-307.05 0,-295.05 0,-295.05 0,-289.05 6,-283.05 12,-283.05 12,-283.05 42,-283.05 42,-283.05 48,-283.05 54,-289.05 54,-295.05 54,-295.05 54,-307.05 54,-307.05 54,-313.05 48,-319.05 42,-319.05"/>
<text text-anchor="middle" x="27" y="-297.35" font-family="Helvetica,sans-Serif" font-size="14.00">volt</text>
</g>
<!-- rotate -->
<g id="node2" class="node">
<title>rotate</title>
<path fill="white" stroke="black" d="M263,-319.05C263,-319.05 230,-319.05 230,-319.05 224,-319.05 218,-313.05 218,-307.05 218,-307.05 218,-295.05 218,-295.05 218,-289.05 224,-283.05 230,-283.05 230,-283.05 263,-283.05 263,-283.05 269,-283.05 275,-289.05 275,-295.05 275,-295.05 275,-307.05 275,-307.05 275,-313.05 269,-319.05 263,-319.05"/>
<text text-anchor="middle" x="246.5" y="-297.35" font-family="Helvetica,sans-Serif" font-size="14.00">rotate</text>
</g>
<!-- volt&#45;&gt;rotate -->
<g id="edge1" class="edge">
<title>volt&#45;&gt;rotate</title>
<path fill="none" stroke="black" stroke-width="1.2" d="M54.24,-301.05C92.44,-301.05 163.6,-301.05 207.52,-301.05"/>
<polygon fill="black" stroke="black" stroke-width="1.2" points="207.8,-304.55 217.8,-301.05 207.8,-297.55 207.8,-304.55"/>
</g>
<!-- err_error1 -->
<g id="node5" class="node">
<title>err_error1</title>
<path fill="white" stroke="black" d="M753.5,-368.05C753.5,-368.05 692.5,-368.05 692.5,-368.05 686.5,-368.05 680.5,-362.05 680.5,-356.05 680.5,-356.05 680.5,-344.05 680.5,-344.05 680.5,-338.05 686.5,-332.05 692.5,-332.05 692.5,-332.05 753.5,-332.05 753.5,-332.05 759.5,-332.05 765.5,-338.05 765.5,-344.05 765.5,-344.05 765.5,-356.05 765.5,-356.05 765.5,-362.05 759.5,-368.05 753.5,-368.05"/>
<text text-anchor="middle" x="723" y="-346.35" font-family="Helvetica,sans-Serif" font-size="14.00">err_error1</text>
</g>
<!-- volt&#45;&gt;err_error1 -->
<g id="edge2" class="edge">
<title>volt&#45;&gt;err_error1</title>
<path fill="none" stroke="black" stroke-width="1.2" d="M40.67,-319.13C70.97,-360.02 152.07,-456.05 245.5,-456.05 245.5,-456.05 245.5,-456.05 354.5,-456.05 474.21,-456.05 607.56,-403.48 675.97,-372.39"/>
<polygon fill="black" stroke="black" stroke-width="1.2" points="677.57,-375.51 685.19,-368.15 674.64,-369.15 677.57,-375.51"/>
</g>
<!-- err_error2 -->
<g id="node6" class="node">
<title>err_error2</title>
<path fill="white" stroke="black" d="M384,-216.05C384,-216.05 323,-216.05 323,-216.05 317,-216.05 311,-210.05 311,-204.05 311,-204.05 311,-192.05 311,-192.05 311,-186.05 317,-180.05 323,-180.05 323,-180.05 384,-180.05 384,-180.05 390,-180.05 396,-186.05 396,-192.05 396,-192.05 396,-204.05 396,-204.05 396,-210.05 390,-216.05 384,-216.05"/>
<text text-anchor="middle" x="353.5" y="-194.35" font-family="Helvetica,sans-Serif" font-size="14.00">err_error2</text>
</g>
<!-- volt&#45;&gt;err_error2 -->
<g id="edge3" class="edge">
<title>volt&#45;&gt;err_error2</title>
<path fill="none" stroke="black" stroke-width="1.2" d="M54.01,-292.79C107.58,-275.79 231.11,-236.58 301.31,-214.29"/>
<polygon fill="black" stroke="black" stroke-width="1.2" points="302.38,-217.63 310.85,-211.27 300.26,-210.96 302.38,-217.63"/>
</g>
<!-- err_error5 -->
<g id="node9" class="node">
<title>err_error5</title>
<path fill="white" stroke="black" d="M994,-455.05C994,-455.05 933,-455.05 933,-455.05 927,-455.05 921,-449.05 921,-443.05 921,-443.05 921,-431.05 921,-431.05 921,-425.05 927,-419.05 933,-419.05 933,-419.05 994,-419.05 994,-419.05 1000,-419.05 1006,-425.05 1006,-431.05 1006,-431.05 1006,-443.05 1006,-443.05 1006,-449.05 1000,-455.05 994,-455.05"/>
<text text-anchor="middle" x="963.5" y="-433.35" font-family="Helvetica,sans-Serif" font-size="14.00">err_error5</text>
</g>
<!-- volt&#45;&gt;err_error5 -->
<g id="edge5" class="edge">
<title>volt&#45;&gt;err_error5</title>
<path fill="none" stroke="black" stroke-width="1.2" d="M32.99,-319.09C41.02,-345.16 59.13,-393.45 90,-423.05 144.83,-475.63 169.53,-494.05 245.5,-494.05 245.5,-494.05 245.5,-494.05 475.5,-494.05 635.17,-494.05 822.31,-463.45 910.94,-447.09"/>
<polygon fill="black" stroke="black" stroke-width="1.2" points="911.81,-450.49 921,-445.21 910.53,-443.6 911.81,-450.49"/>
</g>
<!-- mnt_comp3 -->
<g id="node12" class="node">
<title>mnt_comp3</title>
<path fill="white" stroke="black" d="M1504,-179.05C1504,-179.05 1430,-179.05 1430,-179.05 1424,-179.05 1418,-173.05 1418,-167.05 1418,-167.05 1418,-155.05 1418,-155.05 1418,-149.05 1424,-143.05 1430,-143.05 1430,-143.05 1504,-143.05 1504,-143.05 1510,-143.05 1516,-149.05 1516,-155.05 1516,-155.05 1516,-167.05 1516,-167.05 1516,-173.05 1510,-179.05 1504,-179.05"/>
<text text-anchor="middle" x="1467" y="-157.35" font-family="Helvetica,sans-Serif" font-size="14.00">mnt_comp3</text>
</g>
<!-- volt&#45;&gt;mnt_comp3 -->
<g id="edge7" class="edge">
<title>volt&#45;&gt;mnt_comp3</title>
<path fill="none" stroke="black" stroke-width="1.2" d="M30.28,-282.86C37.04,-231.56 58.53,-87.26 90,-53.05 139.43,0.69 172.48,-0.05 245.5,-0.05 245.5,-0.05 245.5,-0.05 1203,-0.05 1287.64,-0.05 1312.15,-17.25 1382,-65.05 1409.31,-83.73 1433.35,-113.31 1448.64,-134.7"/>
<polygon fill="black" stroke="black" stroke-width="1.2" points="1445.86,-136.82 1454.45,-143.02 1451.6,-132.82 1445.86,-136.82"/>
</g>
<!-- fail_comp1 -->
<g id="node14" class="node">
<title>fail_comp1</title>
<path fill="white" stroke="black" d="M170,-569.05C170,-569.05 102,-569.05 102,-569.05 96,-569.05 90,-563.05 90,-557.05 90,-557.05 90,-545.05 90,-545.05 90,-539.05 96,-533.05 102,-533.05 102,-533.05 170,-533.05 170,-533.05 176,-533.05 182,-539.05 182,-545.05 182,-545.05 182,-557.05 182,-557.05 182,-563.05 176,-569.05 170,-569.05"/>
<text text-anchor="middle" x="136" y="-547.35" font-family="Helvetica,sans-Serif" font-size="14.00">fail_comp1</text>
</g>
<!-- volt&#45;&gt;fail_comp1 -->
<g id="edge8" class="edge">
<title>volt&#45;&gt;fail_comp1</title>
<path fill="none" stroke="black" stroke-width="1.2" d="M30.25,-319.21C35.57,-356.87 51.5,-445.18 90,-508.05 93.88,-514.38 98.92,-520.41 104.22,-525.85"/>
<polygon fill="black" stroke="black" stroke-width="1.2" points="101.89,-528.46 111.52,-532.87 106.74,-523.42 101.89,-528.46"/>
</g>
<!-- fail_comp2 -->
<g id="node15" class="node">
<title>fail_comp2</title>
<path fill="white" stroke="black" d="M1236,-107.05C1236,-107.05 1168,-107.05 1168,-107.05 1162,-107.05 1156,-101.05 1156,-95.05 1156,-95.05 1156,-83.05 1156,-83.05 1156,-77.05 1162,-71.05 1168,-71.05 1168,-71.05 1236,-71.05 1236,-71.05 1242,-71.05 1248,-77.05 1248,-83.05 1248,-83.05 1248,-95.05 1248,-95.05 1248,-101.05 1242,-107.05 1236,-107.05"/>
<text text-anchor="middle" x="1202" y="-85.35" font-family="Helvetica,sans-Serif" font-size="14.00">fail_comp2</text>
</g>
<!-- volt&#45;&gt;fail_comp2 -->
<g id="edge9" class="edge">
<title>volt&#45;&gt;fail_comp2</title>
<path fill="none" stroke="black" stroke-width="1.2" d="M33.15,-282.97C51.28,-223.55 118.11,-38.05 245.5,-38.05 245.5,-38.05 245.5,-38.05 964.5,-38.05 1027.83,-38.05 1098.6,-55.74 1146.08,-70.28"/>
<polygon fill="black" stroke="black" stroke-width="1.2" points="1145.25,-73.69 1155.84,-73.33 1147.34,-67.01 1145.25,-73.69"/>
</g>
<!-- rotate&#45;&gt;err_error2 -->
<g id="edge12" class="edge">
<title>rotate&#45;&gt;err_error2</title>
<path fill="none" stroke="black" stroke-width="1.2" d="M268.6,-275.21C280.48,-261.26 295.91,-244.07 311,-230.05 313.69,-227.55 316.56,-225.04 319.5,-222.59"/>
<polygon fill="black" stroke="black" stroke-width="1.2" points="265.81,-273.09 262.05,-283 271.16,-277.6 265.81,-273.09"/>
<polygon fill="black" stroke="black" stroke-width="1.2" points="321.73,-225.28 327.31,-216.28 317.33,-219.84 321.73,-225.28"/>
</g>
<!-- err_error4 -->
<g id="node8" class="node">
<title>err_error4</title>
<path fill="white" stroke="black" d="M626,-200.05C626,-200.05 565,-200.05 565,-200.05 559,-200.05 553,-194.05 553,-188.05 553,-188.05 553,-176.05 553,-176.05 553,-170.05 559,-164.05 565,-164.05 565,-164.05 626,-164.05 626,-164.05 632,-164.05 638,-170.05 638,-176.05 638,-176.05 638,-188.05 638,-188.05 638,-194.05 632,-200.05 626,-200.05"/>
<text text-anchor="middle" x="595.5" y="-178.35" font-family="Helvetica,sans-Serif" font-size="14.00">err_error4</text>
</g>
<!-- rotate&#45;&gt;err_error4 -->
<g id="edge14" class="edge">
<title>rotate&#45;&gt;err_error4</title>
<path fill="none" stroke="black" stroke-width="1.2" d="M275.31,-291.38C286.41,-287.54 299.31,-283.07 311,-279.05 392.14,-251.11 486.42,-218.9 543.22,-199.53"/>
<polygon fill="black" stroke="black" stroke-width="1.2" points="544.36,-202.84 552.69,-196.29 542.1,-196.21 544.36,-202.84"/>
</g>
<!-- rotate&#45;&gt;err_error5 -->
<g id="edge15" class="edge">
<title>rotate&#45;&gt;err_error5</title>
<path fill="none" stroke="black" stroke-width="1.2" d="M263.39,-319.19C275.23,-331.44 292.48,-346.82 311,-355.05 360.57,-377.07 378.2,-364.14 432,-371.05 607.46,-393.56 815.73,-419.14 910.68,-430.73"/>
<polygon fill="black" stroke="black" stroke-width="1.2" points="910.53,-434.24 920.88,-431.98 911.37,-427.29 910.53,-434.24"/>
</g>
<!-- rotate&#45;&gt;fail_comp2 -->
<g id="edge17" class="edge">
<title>rotate&#45;&gt;fail_comp2</title>
<path fill="none" stroke="black" stroke-width="1.2" d="M255.84,-272.98C265.42,-244.58 283.46,-200.73 311,-171.05 367.91,-109.72 389.84,-76.05 473.5,-76.05 473.5,-76.05 473.5,-76.05 964.5,-76.05 1026.56,-76.05 1097.65,-80.56 1145.55,-84.27"/>
<polygon fill="black" stroke="black" stroke-width="1.2" points="252.45,-272.1 252.69,-282.69 259.11,-274.26 252.45,-272.1"/>
<polygon fill="black" stroke="black" stroke-width="1.2" points="1145.46,-87.78 1155.7,-85.08 1146.01,-80.8 1145.46,-87.78"/>
</g>
<!-- pressure -->
<g id="node3" class="node">
<title>pressure</title>
<path fill="white" stroke="black" d="M873,-322.05C873,-322.05 820,-322.05 820,-322.05 814,-322.05 808,-316.05 808,-310.05 808,-310.05 808,-298.05 808,-298.05 808,-292.05 814,-286.05 820,-286.05 820,-286.05 873,-286.05 873,-286.05 879,-286.05 885,-292.05 885,-298.05 885,-298.05 885,-310.05 885,-310.05 885,-316.05 879,-322.05 873,-322.05"/>
<text text-anchor="middle" x="846.5" y="-300.35" font-family="Helvetica,sans-Serif" font-size="14.00">pressure</text>
</g>
<!-- pressure&#45;&gt;rotate -->
<g id="edge10" class="edge">
<title>pressure&#45;&gt;rotate</title>
<path fill="none" stroke="black" stroke-width="1.2" d="M807.91,-304.06C720.64,-304.06 497.51,-303.86 311,-302.05 302.61,-301.96 293.6,-301.84 285.08,-301.71"/>
<polygon fill="black" stroke="black" stroke-width="1.2" points="285.06,-298.21 275,-301.55 284.95,-305.21 285.06,-298.21"/>
</g>
<!-- err_error3 -->
<g id="node7" class="node">
<title>err_error3</title>
<path fill="white" stroke="black" d="M505,-292.05C505,-292.05 444,-292.05 444,-292.05 438,-292.05 432,-286.05 432,-280.05 432,-280.05 432,-268.05 432,-268.05 432,-262.05 438,-256.05 444,-256.05 444,-256.05 505,-256.05 505,-256.05 511,-256.05 517,-262.05 517,-268.05 517,-268.05 517,-280.05 517,-280.05 517,-286.05 511,-292.05 505,-292.05"/>
<text text-anchor="middle" x="474.5" y="-270.35" font-family="Helvetica,sans-Serif" font-size="14.00">err_error3</text>
</g>
<!-- pressure&#45;&gt;err_error3 -->
<g id="edge19" class="edge">
<title>pressure&#45;&gt;err_error3</title>
<path fill="none" stroke="black" stroke-width="1.2" d="M807.88,-295.87C796.41,-293.66 783.73,-291.47 772,-290.05 686.8,-279.68 587,-276.03 527.64,-274.74"/>
<polygon fill="black" stroke="black" stroke-width="1.2" points="527.46,-271.24 517.39,-274.54 527.32,-278.24 527.46,-271.24"/>
</g>
<!-- pressure&#45;&gt;err_error4 -->
<g id="edge20" class="edge">
<title>pressure&#45;&gt;err_error4</title>
<path fill="none" stroke="black" stroke-width="1.2" d="M814.89,-279.94C802.08,-270.51 786.76,-260.06 772,-252.05 731.95,-230.29 683.68,-211.53 647.91,-198.92"/>
<polygon fill="black" stroke="black" stroke-width="1.2" points="812.81,-282.76 822.91,-285.95 817.01,-277.15 812.81,-282.76"/>
<polygon fill="black" stroke="black" stroke-width="1.2" points="648.76,-195.52 638.17,-195.53 646.46,-202.13 648.76,-195.52"/>
</g>
<!-- pressure&#45;&gt;err_error5 -->
<g id="edge21" class="edge">
<title>pressure&#45;&gt;err_error5</title>
<path fill="none" stroke="black" stroke-width="1.2" d="M863.25,-322.26C883.1,-345.21 917.34,-384.82 939.96,-410.97"/>
<polygon fill="black" stroke="black" stroke-width="1.2" points="937.38,-413.35 946.57,-418.63 942.68,-408.77 937.38,-413.35"/>
</g>
<!-- pressure&#45;&gt;mnt_comp3 -->
<g id="edge22" class="edge">
<title>pressure&#45;&gt;mnt_comp3</title>
<path fill="none" stroke="black" stroke-width="1.2" d="M874.81,-286.03C911.25,-262.97 978.59,-223.77 1042,-205.05 1168.6,-167.66 1324.62,-161.01 1407.61,-160.42"/>
<polygon fill="black" stroke="black" stroke-width="1.2" points="1407.86,-163.92 1417.84,-160.37 1407.83,-156.92 1407.86,-163.92"/>
</g>
<!-- vibration -->
<g id="node4" class="node">
<title>vibration</title>
<path fill="white" stroke="black" d="M1108,-250.05C1108,-250.05 1054,-250.05 1054,-250.05 1048,-250.05 1042,-244.05 1042,-238.05 1042,-238.05 1042,-226.05 1042,-226.05 1042,-220.05 1048,-214.05 1054,-214.05 1054,-214.05 1108,-214.05 1108,-214.05 1114,-214.05 1120,-220.05 1120,-226.05 1120,-226.05 1120,-238.05 1120,-238.05 1120,-244.05 1114,-250.05 1108,-250.05"/>
<text text-anchor="middle" x="1081" y="-228.35" font-family="Helvetica,sans-Serif" font-size="14.00">vibration</text>
</g>
<!-- vibration&#45;&gt;err_error2 -->
<g id="edge25" class="edge">
<title>vibration&#45;&gt;err_error2</title>
<path fill="none" stroke="black" stroke-width="1.2" d="M1060.27,-213.87C1022.19,-180.77 934.64,-114.05 847.5,-114.05 594.5,-114.05 594.5,-114.05 594.5,-114.05 520.21,-114.05 439.88,-150.34 393.56,-175.22"/>
<polygon fill="black" stroke="black" stroke-width="1.2" points="391.86,-172.16 384.76,-180.03 395.21,-178.3 391.86,-172.16"/>
</g>
<!-- vibration&#45;&gt;err_error4 -->
<g id="edge27" class="edge">
<title>vibration&#45;&gt;err_error4</title>
<path fill="none" stroke="black" stroke-width="1.2" d="M1041.83,-221.52C1030.39,-218.7 1017.75,-215.92 1006,-214.05 878.29,-193.66 726.01,-186.1 648.07,-183.42"/>
<polygon fill="black" stroke="black" stroke-width="1.2" points="648.14,-179.92 638.03,-183.09 647.91,-186.92 648.14,-179.92"/>
</g>
<!-- vibration&#45;&gt;mnt_comp3 -->
<g id="edge29" class="edge">
<title>vibration&#45;&gt;mnt_comp3</title>
<path fill="none" stroke="black" stroke-width="1.2" d="M1120.16,-231.95C1177.88,-230.92 1290.39,-225.45 1382,-200.05 1396.21,-196.11 1411.03,-189.98 1424.18,-183.74"/>
<polygon fill="black" stroke="black" stroke-width="1.2" points="1426,-186.75 1433.44,-179.21 1422.92,-180.47 1426,-186.75"/>
</g>
<!-- vibration&#45;&gt;fail_comp2 -->
<g id="edge31" class="edge">
<title>vibration&#45;&gt;fail_comp2</title>
<path fill="none" stroke="black" stroke-width="1.2" d="M1097.07,-213.94C1117.79,-189.04 1155.21,-144.07 1179.04,-115.43"/>
<polygon fill="black" stroke="black" stroke-width="1.2" points="1181.97,-117.39 1185.68,-107.46 1176.59,-112.91 1181.97,-117.39"/>
</g>
<!-- err_error1&#45;&gt;rotate -->
<g id="edge11" class="edge">
<title>err_error1&#45;&gt;rotate</title>
<path fill="none" stroke="black" stroke-width="1.2" d="M680.28,-354.34C605.02,-360.78 442.15,-368.81 311,-334.05 301.92,-331.64 292.66,-327.77 284.12,-323.52"/>
<polygon fill="black" stroke="black" stroke-width="1.2" points="285.66,-320.37 275.18,-318.81 282.39,-326.57 285.66,-320.37"/>
</g>
<!-- err_error1&#45;&gt;pressure -->
<g id="edge18" class="edge">
<title>err_error1&#45;&gt;pressure</title>
<path fill="none" stroke="black" stroke-width="1.2" d="M765.81,-334.22C776.22,-330.28 787.45,-326.02 798.1,-321.99"/>
<polygon fill="black" stroke="black" stroke-width="1.2" points="799.57,-325.18 807.68,-318.36 797.09,-318.63 799.57,-325.18"/>
</g>
<!-- err_error1&#45;&gt;vibration -->
<g id="edge24" class="edge">
<title>err_error1&#45;&gt;vibration</title>
<path fill="none" stroke="black" stroke-width="1.2" d="M765.51,-349.14C798.51,-347.48 845.53,-342.98 885,-331.05 943.54,-313.35 1005.62,-278.72 1043.6,-255.48"/>
<polygon fill="black" stroke="black" stroke-width="1.2" points="1045.6,-258.36 1052.26,-250.13 1041.91,-252.41 1045.6,-258.36"/>
</g>
<!-- err_error2&#45;&gt;err_error3 -->
<g id="edge35" class="edge">
<title>err_error2&#45;&gt;err_error3</title>
<path fill="none" stroke="black" stroke-width="1.2" d="M382.7,-216.06C398.74,-226.3 419.02,-239.25 436.34,-250.31"/>
<polygon fill="black" stroke="black" stroke-width="1.2" points="434.78,-253.47 445.09,-255.9 438.54,-247.57 434.78,-253.47"/>
</g>
<!-- err_error2&#45;&gt;err_error4 -->
<g id="edge36" class="edge">
<title>err_error2&#45;&gt;err_error4</title>
<path fill="none" stroke="black" stroke-width="1.2" d="M396.03,-195.28C436.65,-192.57 498.62,-188.44 542.49,-185.51"/>
<polygon fill="black" stroke="black" stroke-width="1.2" points="542.93,-188.99 552.67,-184.83 542.46,-182.01 542.93,-188.99"/>
</g>
<!-- err_error3&#45;&gt;rotate -->
<g id="edge13" class="edge">
<title>err_error3&#45;&gt;rotate</title>
<path fill="none" stroke="black" stroke-width="1.2" d="M431.72,-279.04C389.75,-284.05 325.67,-291.71 285.21,-296.54"/>
<polygon fill="black" stroke="black" stroke-width="1.2" points="284.73,-293.07 275.21,-297.74 285.56,-300.02 284.73,-293.07"/>
</g>
<!-- err_error3&#45;&gt;vibration -->
<g id="edge26" class="edge">
<title>err_error3&#45;&gt;vibration</title>
<path fill="none" stroke="black" stroke-width="1.2" d="M517.37,-261.35C566.06,-247.74 649.08,-228.05 722,-228.05 722,-228.05 722,-228.05 847.5,-228.05 911.12,-228.05 984.51,-229.56 1031.54,-230.73"/>
<polygon fill="black" stroke="black" stroke-width="1.2" points="1031.66,-234.23 1041.74,-230.98 1031.83,-227.23 1031.66,-234.23"/>
</g>
<!-- err_error3&#45;&gt;err_error1 -->
<g id="edge33" class="edge">
<title>err_error3&#45;&gt;err_error1</title>
<path fill="none" stroke="black" stroke-width="1.2" d="M517.04,-286.85C559.35,-299.9 625.04,-320.15 670.61,-334.2"/>
<polygon fill="black" stroke="black" stroke-width="1.2" points="669.71,-337.59 680.29,-337.19 671.77,-330.9 669.71,-337.59"/>
</g>
<!-- err_error3&#45;&gt;err_error4 -->
<g id="edge37" class="edge">
<title>err_error3&#45;&gt;err_error4</title>
<path fill="none" stroke="black" stroke-width="1.2" d="M507.29,-249.56C510.57,-247.02 513.85,-244.48 517,-242.05 533.03,-229.64 536.97,-226.46 553,-214.05 556.15,-211.61 559.43,-209.07 562.71,-206.54"/>
<polygon fill="black" stroke="black" stroke-width="1.2" points="504.99,-246.91 499.21,-255.79 509.27,-252.45 504.99,-246.91"/>
<polygon fill="black" stroke="black" stroke-width="1.2" points="565.01,-209.19 570.79,-200.31 560.73,-203.64 565.01,-209.19"/>
</g>
<!-- err_error4&#45;&gt;volt -->
<g id="edge4" class="edge">
<title>err_error4&#45;&gt;volt</title>
<path fill="none" stroke="black" stroke-width="1.2" d="M552.64,-173.61C504.91,-164.74 424.41,-152.05 354.5,-152.05 245.5,-152.05 245.5,-152.05 245.5,-152.05 159.68,-152.05 82.9,-231.98 47.95,-274.75"/>
<polygon fill="black" stroke="black" stroke-width="1.2" points="45.04,-272.78 41.53,-282.78 50.51,-277.15 45.04,-272.78"/>
</g>
<!-- err_error4&#45;&gt;err_error1 -->
<g id="edge34" class="edge">
<title>err_error4&#45;&gt;err_error1</title>
<path fill="none" stroke="black" stroke-width="1.2" d="M610.17,-200.34C632.48,-230.21 676.81,-289.55 702.45,-323.87"/>
<polygon fill="black" stroke="black" stroke-width="1.2" points="699.75,-326.11 708.54,-332.02 705.36,-321.92 699.75,-326.11"/>
</g>
<!-- err_error5&#45;&gt;vibration -->
<g id="edge28" class="edge">
<title>err_error5&#45;&gt;vibration</title>
<path fill="none" stroke="black" stroke-width="1.2" d="M974.93,-418.76C983.34,-404.01 995.46,-382.71 1006,-364.05 1026.45,-327.82 1049.91,-285.91 1064.84,-259.21"/>
<polygon fill="black" stroke="black" stroke-width="1.2" points="1067.92,-260.87 1069.74,-250.43 1061.81,-257.45 1067.92,-260.87"/>
</g>
<!-- mnt_comp1 -->
<g id="node10" class="node">
<title>mnt_comp1</title>
<path fill="white" stroke="black" d="M1766,-601.05C1766,-601.05 1692,-601.05 1692,-601.05 1686,-601.05 1680,-595.05 1680,-589.05 1680,-589.05 1680,-577.05 1680,-577.05 1680,-571.05 1686,-565.05 1692,-565.05 1692,-565.05 1766,-565.05 1766,-565.05 1772,-565.05 1778,-571.05 1778,-577.05 1778,-577.05 1778,-589.05 1778,-589.05 1778,-595.05 1772,-601.05 1766,-601.05"/>
<text text-anchor="middle" x="1729" y="-579.35" font-family="Helvetica,sans-Serif" font-size="14.00">mnt_comp1</text>
</g>
<!-- mnt_comp1&#45;&gt;volt -->
<g id="edge6" class="edge">
<title>mnt_comp1&#45;&gt;volt</title>
<path fill="none" stroke="black" stroke-width="1.2" d="M1685.17,-601.18C1634.33,-621.02 1546.54,-650.05 1468,-650.05 245.5,-650.05 245.5,-650.05 245.5,-650.05 169.34,-650.05 137.81,-637.33 90,-578.05 59,-539.61 38.54,-391.6 31.12,-329.12"/>
<polygon fill="black" stroke="black" stroke-width="1.2" points="34.59,-328.71 29.96,-319.18 27.64,-329.52 34.59,-328.71"/>
</g>
<!-- mnt_comp2 -->
<g id="node11" class="node">
<title>mnt_comp2</title>
<path fill="white" stroke="black" d="M1370,-110.05C1370,-110.05 1296,-110.05 1296,-110.05 1290,-110.05 1284,-104.05 1284,-98.05 1284,-98.05 1284,-86.05 1284,-86.05 1284,-80.05 1290,-74.05 1296,-74.05 1296,-74.05 1370,-74.05 1370,-74.05 1376,-74.05 1382,-80.05 1382,-86.05 1382,-86.05 1382,-98.05 1382,-98.05 1382,-104.05 1376,-110.05 1370,-110.05"/>
<text text-anchor="middle" x="1333" y="-88.35" font-family="Helvetica,sans-Serif" font-size="14.00">mnt_comp2</text>
</g>
<!-- mnt_comp2&#45;&gt;mnt_comp3 -->
<g id="edge41" class="edge">
<title>mnt_comp2&#45;&gt;mnt_comp3</title>
<path fill="none" stroke="black" stroke-width="1.2" d="M1368.68,-110.18C1385.2,-118.81 1405.13,-129.23 1422.64,-138.38"/>
<polygon fill="black" stroke="black" stroke-width="1.2" points="1421.07,-141.51 1431.55,-143.04 1424.31,-135.3 1421.07,-141.51"/>
</g>
<!-- fail_comp3 -->
<g id="node16" class="node">
<title>fail_comp3</title>
<path fill="white" stroke="black" d="M1632,-223.05C1632,-223.05 1564,-223.05 1564,-223.05 1558,-223.05 1552,-217.05 1552,-211.05 1552,-211.05 1552,-199.05 1552,-199.05 1552,-193.05 1558,-187.05 1564,-187.05 1564,-187.05 1632,-187.05 1632,-187.05 1638,-187.05 1644,-193.05 1644,-199.05 1644,-199.05 1644,-211.05 1644,-211.05 1644,-217.05 1638,-223.05 1632,-223.05"/>
<text text-anchor="middle" x="1598" y="-201.35" font-family="Helvetica,sans-Serif" font-size="14.00">fail_comp3</text>
</g>
<!-- mnt_comp3&#45;&gt;fail_comp3 -->
<g id="edge44" class="edge">
<title>mnt_comp3&#45;&gt;fail_comp3</title>
<path fill="none" stroke="black" stroke-width="1.2" d="M1516.03,-177.43C1524.57,-180.34 1533.52,-183.39 1542.22,-186.36"/>
<polygon fill="black" stroke="black" stroke-width="1.2" points="1541.32,-189.75 1551.92,-189.67 1543.58,-183.13 1541.32,-189.75"/>
</g>
<!-- mnt_comp4 -->
<g id="node13" class="node">
<title>mnt_comp4</title>
<path fill="white" stroke="black" d="M760,-546.05C760,-546.05 686,-546.05 686,-546.05 680,-546.05 674,-540.05 674,-534.05 674,-534.05 674,-522.05 674,-522.05 674,-516.05 680,-510.05 686,-510.05 686,-510.05 760,-510.05 760,-510.05 766,-510.05 772,-516.05 772,-522.05 772,-522.05 772,-534.05 772,-534.05 772,-540.05 766,-546.05 760,-546.05"/>
<text text-anchor="middle" x="723" y="-524.35" font-family="Helvetica,sans-Serif" font-size="14.00">mnt_comp4</text>
</g>
<!-- mnt_comp4&#45;&gt;pressure -->
<g id="edge23" class="edge">
<title>mnt_comp4&#45;&gt;pressure</title>
<path fill="none" stroke="black" stroke-width="1.2" d="M733.94,-509.72C755.31,-470.32 805.7,-377.42 830.78,-331.18"/>
<polygon fill="black" stroke="black" stroke-width="1.2" points="833.9,-332.78 835.59,-322.32 827.75,-329.44 833.9,-332.78"/>
</g>
<!-- mnt_comp4&#45;&gt;mnt_comp1 -->
<g id="edge38" class="edge">
<title>mnt_comp4&#45;&gt;mnt_comp1</title>
<path fill="none" stroke="black" stroke-width="1.2" d="M772.28,-534.04C840.66,-541.99 969.67,-555.05 1080,-555.05 1080,-555.05 1080,-555.05 1468,-555.05 1537.59,-555.05 1617.06,-565.08 1669.62,-573.14"/>
<polygon fill="black" stroke="black" stroke-width="1.2" points="1669.35,-576.64 1679.77,-574.72 1670.43,-569.72 1669.35,-576.64"/>
</g>
<!-- fail_comp1&#45;&gt;rotate -->
<g id="edge16" class="edge">
<title>fail_comp1&#45;&gt;rotate</title>
<path fill="none" stroke="black" stroke-width="1.2" d="M144.98,-532.66C163.84,-489.21 211.24,-379.98 233.55,-328.59"/>
<polygon fill="black" stroke="black" stroke-width="1.2" points="236.89,-329.69 237.66,-319.12 230.46,-326.9 236.89,-329.69"/>
</g>
<!-- fail_comp1&#45;&gt;vibration -->
<g id="edge30" class="edge">
<title>fail_comp1&#45;&gt;vibration</title>
<path fill="none" stroke="black" stroke-width="1.2" d="M182.26,-558.7C225.76,-565.4 293.43,-574.05 352.5,-574.05 352.5,-574.05 352.5,-574.05 724,-574.05 858.53,-574.05 913.92,-562.13 1006,-464.05 1060.34,-406.16 1074.78,-308.35 1078.61,-260.35"/>
<polygon fill="black" stroke="black" stroke-width="1.2" points="1082.11,-260.57 1079.31,-250.35 1075.12,-260.08 1082.11,-260.57"/>
</g>
<!-- fail_comp1&#45;&gt;mnt_comp1 -->
<g id="edge39" class="edge">
<title>fail_comp1&#45;&gt;mnt_comp1</title>
<path fill="none" stroke="black" stroke-width="1.2" d="M176.17,-569.18C218.66,-587.16 288.93,-612.05 352.5,-612.05 352.5,-612.05 352.5,-612.05 1468,-612.05 1537.62,-612.05 1617.08,-601.65 1669.64,-593.31"/>
<polygon fill="black" stroke="black" stroke-width="1.2" points="1670.47,-596.72 1679.78,-591.67 1669.35,-589.81 1670.47,-596.72"/>
</g>
<!-- fail_comp2&#45;&gt;mnt_comp2 -->
<g id="edge42" class="edge">
<title>fail_comp2&#45;&gt;mnt_comp2</title>
<path fill="none" stroke="black" stroke-width="1.2" d="M1248.12,-90.1C1256.28,-90.29 1264.9,-90.49 1273.38,-90.68"/>
<polygon fill="black" stroke="black" stroke-width="1.2" points="1273.54,-94.19 1283.62,-90.92 1273.7,-87.19 1273.54,-94.19"/>
</g>
<!-- fail_comp2&#45;&gt;mnt_comp3 -->
<g id="edge43" class="edge">
<title>fail_comp2&#45;&gt;mnt_comp3</title>
<path fill="none" stroke="black" stroke-width="1.2" d="M1248.07,-106.9C1259.68,-111.18 1272.22,-115.52 1284,-119.05 1324.89,-131.28 1371.85,-142.04 1407.82,-149.6"/>
<polygon fill="black" stroke="black" stroke-width="1.2" points="1407.16,-153.04 1417.66,-151.65 1408.58,-146.19 1407.16,-153.04"/>
</g>
<!-- fail_comp2&#45;&gt;fail_comp3 -->
<g id="edge45" class="edge">
<title>fail_comp2&#45;&gt;fail_comp3</title>
<path fill="none" stroke="black" stroke-width="1.2" d="M1248.32,-73.12C1259.82,-69.78 1272.24,-66.75 1284,-65.05 1327.1,-58.79 1339.67,-54.79 1382,-65.05 1459.6,-83.85 1533.94,-144.96 1571.54,-179.91"/>
<polygon fill="black" stroke="black" stroke-width="1.2" points="1569.32,-182.63 1578.99,-186.95 1574.12,-177.54 1569.32,-182.63"/>
</g>
<!-- fail_comp3&#45;&gt;vibration -->
<g id="edge32" class="edge">
<title>fail_comp3&#45;&gt;vibration</title>
<path fill="none" stroke="black" stroke-width="1.2" d="M1551.97,-212.96C1472.23,-226.02 1300.92,-249.83 1156,-241.05 1147.73,-240.55 1138.98,-239.73 1130.49,-238.8"/>
<polygon fill="black" stroke="black" stroke-width="1.2" points="1130.67,-235.29 1120.33,-237.6 1129.85,-242.24 1130.67,-235.29"/>
</g>
<!-- fail_comp3&#45;&gt;mnt_comp1 -->
<g id="edge40" class="edge">
<title>fail_comp3&#45;&gt;mnt_comp1</title>
<path fill="none" stroke="black" stroke-width="1.2" d="M1605.22,-223.28C1626.08,-284.41 1693.64,-482.36 1718.61,-555.53"/>
<polygon fill="black" stroke="black" stroke-width="1.2" points="1715.3,-556.66 1721.84,-565 1721.92,-554.4 1715.3,-556.66"/>
</g>
</g>
</svg>
