<?xml version="1.0" encoding="UTF-8" standalone="no"?>
<!DOCTYPE svg PUBLIC "-//W3C//DTD SVG 1.1//EN"
 "http://www.w3.org/Graphics/SVG/1.1/DTD/svg11.dtd">
<!-- Generated by graphviz version 2.50.0 (0)
 -->
<!-- Title: G Pages: 1 -->
<svg width="1551pt" height="637pt"
 viewBox="0.00 0.00 1551.00 637.22" xmlns="http://www.w3.org/2000/svg" xmlns:xlink="http://www.w3.org/1999/xlink">
<g id="graph0" class="graph" transform="scale(1 1) rotate(0) translate(4 633.22)">
<title>G</title>
<polygon fill="white" stroke="transparent" points="-4,4 -4,-633.22 1547,-633.22 1547,4 -4,4"/>
<text text-anchor="middle" x="771.5" y="-612.42" font-family="Times,serif" font-size="16.00">model=model1/nbcb_w_mixed.json [machine 85]</text>
<!-- volt -->
<g id="node1" class="node">
<title>volt</title>
<path fill="white" stroke="black" d="M42,-190C42,-190 12,-190 12,-190 6,-190 0,-184 0,-178 0,-178 0,-166 0,-166 0,-160 6,-154 12,-154 12,-154 42,-154 42,-154 48,-154 54,-160 54,-166 54,-166 54,-178 54,-178 54,-184 48,-190 42,-190"/>
<text text-anchor="middle" x="27" y="-168.3" font-family="Helvetica,sans-Serif" font-size="14.00">volt</text>
</g>
<!-- pressure -->
<g id="node3" class="node">
<title>pressure</title>
<path fill="white" stroke="black" d="M155,-316C155,-316 102,-316 102,-316 96,-316 90,-310 90,-304 90,-304 90,-292 90,-292 90,-286 96,-280 102,-280 102,-280 155,-280 155,-280 161,-280 167,-286 167,-292 167,-292 167,-304 167,-304 167,-310 161,-316 155,-316"/>
<text text-anchor="middle" x="128.5" y="-294.3" font-family="Helvetica,sans-Serif" font-size="14.00">pressure</text>
</g>
<!-- volt&#45;&gt;pressure -->
<g id="edge1" class="edge">
<title>volt&#45;&gt;pressure</title>
<path fill="none" stroke="black" stroke-width="1.2" d="M42.26,-190.05C59.18,-211.48 87.53,-247.38 106.85,-271.85"/>
<polygon fill="black" stroke="black" stroke-width="1.2" points="104.33,-274.3 113.27,-279.98 109.82,-269.96 104.33,-274.3"/>
</g>
<!-- fail_comp3 -->
<g id="node16" class="node">
<title>fail_comp3</title>
<path fill="white" stroke="black" d="M417,-270C417,-270 349,-270 349,-270 343,-270 337,-264 337,-258 337,-258 337,-246 337,-246 337,-240 343,-234 349,-234 349,-234 417,-234 417,-234 423,-234 429,-240 429,-246 429,-246 429,-258 429,-258 429,-264 423,-270 417,-270"/>
<text text-anchor="middle" x="383" y="-248.3" font-family="Helvetica,sans-Serif" font-size="14.00">fail_comp3</text>
</g>
<!-- volt&#45;&gt;fail_comp3 -->
<g id="edge6" class="edge">
<title>volt&#45;&gt;fail_comp3</title>
<path fill="none" stroke="black" stroke-width="1.2" d="M54.03,-177.88C111.33,-190.83 249.45,-222.04 326.93,-239.55"/>
<polygon fill="black" stroke="black" stroke-width="1.2" points="326.46,-243.04 336.98,-241.83 328,-236.21 326.46,-243.04"/>
</g>
<!-- rotate -->
<g id="node2" class="node">
<title>rotate</title>
<path fill="white" stroke="black" d="M873,-278C873,-278 840,-278 840,-278 834,-278 828,-272 828,-266 828,-266 828,-254 828,-254 828,-248 834,-242 840,-242 840,-242 873,-242 873,-242 879,-242 885,-248 885,-254 885,-254 885,-266 885,-266 885,-272 879,-278 873,-278"/>
<text text-anchor="middle" x="856.5" y="-256.3" font-family="Helvetica,sans-Serif" font-size="14.00">rotate</text>
</g>
<!-- err_error3 -->
<g id="node7" class="node">
<title>err_error3</title>
<path fill="white" stroke="black" d="M659,-362C659,-362 598,-362 598,-362 592,-362 586,-356 586,-350 586,-350 586,-338 586,-338 586,-332 592,-326 598,-326 598,-326 659,-326 659,-326 665,-326 671,-332 671,-338 671,-338 671,-350 671,-350 671,-356 665,-362 659,-362"/>
<text text-anchor="middle" x="628.5" y="-340.3" font-family="Helvetica,sans-Serif" font-size="14.00">err_error3</text>
</g>
<!-- rotate&#45;&gt;err_error3 -->
<g id="edge10" class="edge">
<title>rotate&#45;&gt;err_error3</title>
<path fill="none" stroke="black" stroke-width="1.2" d="M818.4,-276.25C809.78,-279.89 800.6,-283.67 792,-287 755.12,-301.29 712.95,-316.04 680.81,-326.95"/>
<polygon fill="black" stroke="black" stroke-width="1.2" points="820.02,-279.37 827.84,-272.22 817.27,-272.93 820.02,-279.37"/>
<polygon fill="black" stroke="black" stroke-width="1.2" points="679.53,-323.69 671.18,-330.21 681.77,-330.32 679.53,-323.69"/>
</g>
<!-- mnt_comp1 -->
<g id="node10" class="node">
<title>mnt_comp1</title>
<path fill="white" stroke="black" d="M1135,-133C1135,-133 1061,-133 1061,-133 1055,-133 1049,-127 1049,-121 1049,-121 1049,-109 1049,-109 1049,-103 1055,-97 1061,-97 1061,-97 1135,-97 1135,-97 1141,-97 1147,-103 1147,-109 1147,-109 1147,-121 1147,-121 1147,-127 1141,-133 1135,-133"/>
<text text-anchor="middle" x="1098" y="-111.3" font-family="Helvetica,sans-Serif" font-size="14.00">mnt_comp1</text>
</g>
<!-- rotate&#45;&gt;mnt_comp1 -->
<g id="edge11" class="edge">
<title>rotate&#45;&gt;mnt_comp1</title>
<path fill="none" stroke="black" stroke-width="1.2" d="M885.44,-243.08C928.19,-217.2 1009.95,-167.7 1058.35,-138.4"/>
<polygon fill="black" stroke="black" stroke-width="1.2" points="1060.24,-141.34 1066.99,-133.17 1056.62,-135.36 1060.24,-141.34"/>
</g>
<!-- fail_comp1 -->
<g id="node14" class="node">
<title>fail_comp1</title>
<path fill="white" stroke="black" d="M1001,-64C1001,-64 933,-64 933,-64 927,-64 921,-58 921,-52 921,-52 921,-40 921,-40 921,-34 927,-28 933,-28 933,-28 1001,-28 1001,-28 1007,-28 1013,-34 1013,-40 1013,-40 1013,-52 1013,-52 1013,-58 1007,-64 1001,-64"/>
<text text-anchor="middle" x="967" y="-42.3" font-family="Helvetica,sans-Serif" font-size="14.00">fail_comp1</text>
</g>
<!-- rotate&#45;&gt;fail_comp1 -->
<g id="edge12" class="edge">
<title>rotate&#45;&gt;fail_comp1</title>
<path fill="none" stroke="black" stroke-width="1.2" d="M864.45,-241.84C875.29,-214.1 897.45,-159.8 921,-116 928.95,-101.22 938.95,-85.43 947.51,-72.6"/>
<polygon fill="black" stroke="black" stroke-width="1.2" points="950.46,-74.49 953.16,-64.24 944.66,-70.57 950.46,-74.49"/>
</g>
<!-- fail_comp2 -->
<g id="node15" class="node">
<title>fail_comp2</title>
<path fill="white" stroke="black" d="M1263,-332C1263,-332 1195,-332 1195,-332 1189,-332 1183,-326 1183,-320 1183,-320 1183,-308 1183,-308 1183,-302 1189,-296 1195,-296 1195,-296 1263,-296 1263,-296 1269,-296 1275,-302 1275,-308 1275,-308 1275,-320 1275,-320 1275,-326 1269,-332 1263,-332"/>
<text text-anchor="middle" x="1229" y="-310.3" font-family="Helvetica,sans-Serif" font-size="14.00">fail_comp2</text>
</g>
<!-- rotate&#45;&gt;fail_comp2 -->
<g id="edge13" class="edge">
<title>rotate&#45;&gt;fail_comp2</title>
<path fill="none" stroke="black" stroke-width="1.2" d="M885.05,-264.01C945.84,-272.88 1092.46,-294.24 1172.9,-305.97"/>
<polygon fill="black" stroke="black" stroke-width="1.2" points="1172.45,-309.44 1182.85,-307.42 1173.46,-302.51 1172.45,-309.44"/>
</g>
<!-- fail_comp4 -->
<g id="node17" class="node">
<title>fail_comp4</title>
<path fill="white" stroke="black" d="M1001,-519C1001,-519 933,-519 933,-519 927,-519 921,-513 921,-507 921,-507 921,-495 921,-495 921,-489 927,-483 933,-483 933,-483 1001,-483 1001,-483 1007,-483 1013,-489 1013,-495 1013,-495 1013,-507 1013,-507 1013,-513 1007,-519 1001,-519"/>
<text text-anchor="middle" x="967" y="-497.3" font-family="Helvetica,sans-Serif" font-size="14.00">fail_comp4</text>
</g>
<!-- rotate&#45;&gt;fail_comp4 -->
<g id="edge14" class="edge">
<title>rotate&#45;&gt;fail_comp4</title>
<path fill="none" stroke="black" stroke-width="1.2" d="M869.78,-287.28C890.63,-333.59 932.71,-427.06 953.62,-473.51"/>
<polygon fill="black" stroke="black" stroke-width="1.2" points="872.95,-285.8 865.66,-278.11 866.57,-288.67 872.95,-285.8"/>
<polygon fill="black" stroke="black" stroke-width="1.2" points="950.45,-474.99 957.75,-482.68 956.84,-472.12 950.45,-474.99"/>
</g>
<!-- err_error4 -->
<g id="node8" class="node">
<title>err_error4</title>
<path fill="white" stroke="black" d="M659,-454C659,-454 598,-454 598,-454 592,-454 586,-448 586,-442 586,-442 586,-430 586,-430 586,-424 592,-418 598,-418 598,-418 659,-418 659,-418 665,-418 671,-424 671,-430 671,-430 671,-442 671,-442 671,-448 665,-454 659,-454"/>
<text text-anchor="middle" x="628.5" y="-432.3" font-family="Helvetica,sans-Serif" font-size="14.00">err_error4</text>
</g>
<!-- pressure&#45;&gt;err_error4 -->
<g id="edge16" class="edge">
<title>pressure&#45;&gt;err_error4</title>
<path fill="none" stroke="black" stroke-width="1.2" d="M148.84,-324.35C162.2,-340.5 181.39,-360.11 203,-371 325.9,-432.96 492.29,-439.36 575.54,-438.11"/>
<polygon fill="black" stroke="black" stroke-width="1.2" points="151.38,-321.92 142.41,-316.28 145.91,-326.28 151.38,-321.92"/>
<polygon fill="black" stroke="black" stroke-width="1.2" points="575.83,-441.61 585.76,-437.91 575.69,-434.61 575.83,-441.61"/>
</g>
<!-- mnt_comp4 -->
<g id="node13" class="node">
<title>mnt_comp4</title>
<path fill="white" stroke="black" d="M289,-362C289,-362 215,-362 215,-362 209,-362 203,-356 203,-350 203,-350 203,-338 203,-338 203,-332 209,-326 215,-326 215,-326 289,-326 289,-326 295,-326 301,-332 301,-338 301,-338 301,-350 301,-350 301,-356 295,-362 289,-362"/>
<text text-anchor="middle" x="252" y="-340.3" font-family="Helvetica,sans-Serif" font-size="14.00">mnt_comp4</text>
</g>
<!-- pressure&#45;&gt;mnt_comp4 -->
<g id="edge18" class="edge">
<title>pressure&#45;&gt;mnt_comp4</title>
<path fill="none" stroke="black" stroke-width="1.2" d="M167.28,-312.3C175.76,-315.51 184.94,-318.99 194,-322.42"/>
<polygon fill="black" stroke="black" stroke-width="1.2" points="192.79,-325.7 203.38,-325.97 195.26,-319.16 192.79,-325.7"/>
</g>
<!-- pressure&#45;&gt;fail_comp3 -->
<g id="edge19" class="edge">
<title>pressure&#45;&gt;fail_comp3</title>
<path fill="none" stroke="black" stroke-width="1.2" d="M167.25,-290.72C178.73,-288.54 191.38,-286.15 203,-284 244.39,-276.36 291.23,-268 326.61,-261.74"/>
<polygon fill="black" stroke="black" stroke-width="1.2" points="327.49,-265.13 336.73,-259.95 326.27,-258.24 327.49,-265.13"/>
</g>
<!-- vibration -->
<g id="node4" class="node">
<title>vibration</title>
<path fill="white" stroke="black" d="M534.5,-350C534.5,-350 480.5,-350 480.5,-350 474.5,-350 468.5,-344 468.5,-338 468.5,-338 468.5,-326 468.5,-326 468.5,-320 474.5,-314 480.5,-314 480.5,-314 534.5,-314 534.5,-314 540.5,-314 546.5,-320 546.5,-326 546.5,-326 546.5,-338 546.5,-338 546.5,-344 540.5,-350 534.5,-350"/>
<text text-anchor="middle" x="507.5" y="-328.3" font-family="Helvetica,sans-Serif" font-size="14.00">vibration</text>
</g>
<!-- vibration&#45;&gt;pressure -->
<g id="edge15" class="edge">
<title>vibration&#45;&gt;pressure</title>
<path fill="none" stroke="black" stroke-width="1.2" d="M468.28,-328.55C399.02,-322.31 252.92,-309.13 177.23,-302.3"/>
<polygon fill="black" stroke="black" stroke-width="1.2" points="177.3,-298.8 167.03,-301.38 176.67,-305.77 177.3,-298.8"/>
</g>
<!-- vibration&#45;&gt;err_error3 -->
<g id="edge22" class="edge">
<title>vibration&#45;&gt;err_error3</title>
<path fill="none" stroke="black" stroke-width="1.2" d="M557.02,-336.89C563.18,-337.51 569.49,-338.15 575.69,-338.78"/>
<polygon fill="black" stroke="black" stroke-width="1.2" points="557.11,-333.38 546.81,-335.86 556.41,-340.35 557.11,-333.38"/>
<polygon fill="black" stroke="black" stroke-width="1.2" points="575.67,-342.29 585.97,-339.81 576.38,-335.33 575.67,-342.29"/>
</g>
<!-- vibration&#45;&gt;err_error4 -->
<g id="edge23" class="edge">
<title>vibration&#45;&gt;err_error4</title>
<path fill="none" stroke="black" stroke-width="1.2" d="M534.49,-357.26C549.28,-371.36 568.34,-389.04 586,-404 588.88,-406.44 591.91,-408.92 594.97,-411.38"/>
<polygon fill="black" stroke="black" stroke-width="1.2" points="536.81,-354.64 527.17,-350.25 531.97,-359.7 536.81,-354.64"/>
<polygon fill="black" stroke="black" stroke-width="1.2" points="593.04,-414.31 603.06,-417.75 597.38,-408.82 593.04,-414.31"/>
</g>
<!-- err_error5 -->
<g id="node9" class="node">
<title>err_error5</title>
<path fill="white" stroke="black" d="M659,-156C659,-156 598,-156 598,-156 592,-156 586,-150 586,-144 586,-144 586,-132 586,-132 586,-126 592,-120 598,-120 598,-120 659,-120 659,-120 665,-120 671,-126 671,-132 671,-132 671,-144 671,-144 671,-150 665,-156 659,-156"/>
<text text-anchor="middle" x="628.5" y="-134.3" font-family="Helvetica,sans-Serif" font-size="14.00">err_error5</text>
</g>
<!-- vibration&#45;&gt;err_error5 -->
<g id="edge24" class="edge">
<title>vibration&#45;&gt;err_error5</title>
<path fill="none" stroke="black" stroke-width="1.2" d="M525.05,-305.02C547.78,-267.97 588.4,-201.74 611.07,-164.79"/>
<polygon fill="black" stroke="black" stroke-width="1.2" points="521.94,-303.39 519.7,-313.75 527.91,-307.05 521.94,-303.39"/>
<polygon fill="black" stroke="black" stroke-width="1.2" points="614.18,-166.42 616.42,-156.06 608.21,-162.76 614.18,-166.42"/>
</g>
<!-- vibration&#45;&gt;mnt_comp4 -->
<g id="edge25" class="edge">
<title>vibration&#45;&gt;mnt_comp4</title>
<path fill="none" stroke="black" stroke-width="1.2" d="M468.33,-333.81C426.68,-335.78 359.52,-338.96 311.27,-341.24"/>
<polygon fill="black" stroke="black" stroke-width="1.2" points="311.1,-337.75 301.28,-341.71 311.43,-344.74 311.1,-337.75"/>
</g>
<!-- vibration&#45;&gt;fail_comp4 -->
<g id="edge27" class="edge">
<title>vibration&#45;&gt;fail_comp4</title>
<path fill="none" stroke="black" stroke-width="1.2" d="M550.76,-354.73C562.05,-360.39 574.35,-366.21 586,-371 715.22,-424.11 753.78,-420.06 885,-468 894.41,-471.44 904.36,-475.3 913.93,-479.13"/>
<polygon fill="black" stroke="black" stroke-width="1.2" points="552.05,-351.46 541.55,-350.03 548.87,-357.69 552.05,-351.46"/>
<polygon fill="black" stroke="black" stroke-width="1.2" points="912.77,-482.44 923.35,-482.94 915.39,-475.95 912.77,-482.44"/>
</g>
<!-- err_error1 -->
<g id="node5" class="node">
<title>err_error1</title>
<path fill="white" stroke="black" d="M538,-232C538,-232 477,-232 477,-232 471,-232 465,-226 465,-220 465,-220 465,-208 465,-208 465,-202 471,-196 477,-196 477,-196 538,-196 538,-196 544,-196 550,-202 550,-208 550,-208 550,-220 550,-220 550,-226 544,-232 538,-232"/>
<text text-anchor="middle" x="507.5" y="-210.3" font-family="Helvetica,sans-Serif" font-size="14.00">err_error1</text>
</g>
<!-- err_error1&#45;&gt;volt -->
<g id="edge2" class="edge">
<title>err_error1&#45;&gt;volt</title>
<path fill="none" stroke="black" stroke-width="1.2" d="M464.98,-209.79C401.02,-203.37 274.53,-190.93 167,-182 132.15,-179.1 92.34,-176.29 64.29,-174.39"/>
<polygon fill="black" stroke="black" stroke-width="1.2" points="64.36,-170.89 54.14,-173.71 63.89,-177.87 64.36,-170.89"/>
</g>
<!-- err_error1&#45;&gt;rotate -->
<g id="edge8" class="edge">
<title>err_error1&#45;&gt;rotate</title>
<path fill="none" stroke="black" stroke-width="1.2" d="M550.01,-212.4C605.85,-211.23 707.87,-212.58 792,-233 800.8,-235.14 809.93,-238.36 818.44,-241.85"/>
<polygon fill="black" stroke="black" stroke-width="1.2" points="817.16,-245.11 827.73,-245.86 819.93,-238.68 817.16,-245.11"/>
</g>
<!-- err_error2 -->
<g id="node6" class="node">
<title>err_error2</title>
<path fill="white" stroke="black" d="M780,-278C780,-278 719,-278 719,-278 713,-278 707,-272 707,-266 707,-266 707,-254 707,-254 707,-248 713,-242 719,-242 719,-242 780,-242 780,-242 786,-242 792,-248 792,-254 792,-254 792,-266 792,-266 792,-272 786,-278 780,-278"/>
<text text-anchor="middle" x="749.5" y="-256.3" font-family="Helvetica,sans-Serif" font-size="14.00">err_error2</text>
</g>
<!-- err_error1&#45;&gt;err_error2 -->
<g id="edge28" class="edge">
<title>err_error1&#45;&gt;err_error2</title>
<path fill="none" stroke="black" stroke-width="1.2" d="M550.03,-221.96C590.73,-229.76 652.88,-241.67 696.77,-250.08"/>
<polygon fill="black" stroke="black" stroke-width="1.2" points="696.19,-253.54 706.67,-251.98 697.51,-246.66 696.19,-253.54"/>
</g>
<!-- err_error2&#45;&gt;rotate -->
<g id="edge9" class="edge">
<title>err_error2&#45;&gt;rotate</title>
<path fill="none" stroke="black" stroke-width="1.2" d="M792.3,-260C800.66,-260 809.41,-260 817.63,-260"/>
<polygon fill="black" stroke="black" stroke-width="1.2" points="817.7,-263.5 827.7,-260 817.7,-256.5 817.7,-263.5"/>
</g>
<!-- err_error2&#45;&gt;vibration -->
<g id="edge21" class="edge">
<title>err_error2&#45;&gt;vibration</title>
<path fill="none" stroke="black" stroke-width="1.2" d="M706.62,-272.57C664.62,-285.16 600.04,-304.54 556.12,-317.71"/>
<polygon fill="black" stroke="black" stroke-width="1.2" points="555.1,-314.37 546.53,-320.59 557.11,-321.07 555.1,-314.37"/>
</g>
<!-- err_error2&#45;&gt;fail_comp3 -->
<g id="edge31" class="edge">
<title>err_error2&#45;&gt;fail_comp3</title>
<path fill="none" stroke="black" stroke-width="1.2" d="M706.92,-259.09C641.14,-257.64 513.05,-254.83 439.5,-253.22"/>
<polygon fill="black" stroke="black" stroke-width="1.2" points="439.13,-249.71 429.06,-252.99 438.98,-256.71 439.13,-249.71"/>
</g>
<!-- err_error3&#45;&gt;err_error2 -->
<g id="edge30" class="edge">
<title>err_error3&#45;&gt;err_error2</title>
<path fill="none" stroke="black" stroke-width="1.2" d="M655.03,-325.98C672.32,-313.77 695.37,-297.5 714.26,-284.17"/>
<polygon fill="black" stroke="black" stroke-width="1.2" points="716.45,-286.91 722.6,-278.28 712.42,-281.19 716.45,-286.91"/>
</g>
<!-- err_error5&#45;&gt;pressure -->
<g id="edge17" class="edge">
<title>err_error5&#45;&gt;pressure</title>
<path fill="none" stroke="black" stroke-width="1.2" d="M585.74,-147.67C508.73,-166.06 339.73,-208.99 203,-262 192.96,-265.89 182.42,-270.63 172.56,-275.38"/>
<polygon fill="black" stroke="black" stroke-width="1.2" points="170.79,-272.36 163.36,-279.91 173.88,-278.64 170.79,-272.36"/>
</g>
<!-- mnt_comp3 -->
<g id="node12" class="node">
<title>mnt_comp3</title>
<path fill="white" stroke="black" d="M1531,-133C1531,-133 1457,-133 1457,-133 1451,-133 1445,-127 1445,-121 1445,-121 1445,-109 1445,-109 1445,-103 1451,-97 1457,-97 1457,-97 1531,-97 1531,-97 1537,-97 1543,-103 1543,-109 1543,-109 1543,-121 1543,-121 1543,-127 1537,-133 1531,-133"/>
<text text-anchor="middle" x="1494" y="-111.3" font-family="Helvetica,sans-Serif" font-size="14.00">mnt_comp3</text>
</g>
<!-- err_error5&#45;&gt;mnt_comp3 -->
<g id="edge33" class="edge">
<title>err_error5&#45;&gt;mnt_comp3</title>
<path fill="none" stroke="black" stroke-width="1.2" d="M671.03,-142.46C752.58,-150.82 939.42,-168 1097,-168 1097,-168 1097,-168 1230,-168 1301.54,-168 1381.92,-148.92 1434.77,-133.66"/>
<polygon fill="black" stroke="black" stroke-width="1.2" points="1436.02,-136.93 1444.63,-130.76 1434.05,-130.22 1436.02,-136.93"/>
</g>
<!-- mnt_comp1&#45;&gt;volt -->
<g id="edge3" class="edge">
<title>mnt_comp1&#45;&gt;volt</title>
<path fill="none" stroke="black" stroke-width="1.2" d="M1048.96,-107.66C1000.7,-100.93 924.12,-92 857.5,-92 251,-92 251,-92 251,-92 181.07,-92 105.66,-127.29 62.9,-150.99"/>
<polygon fill="black" stroke="black" stroke-width="1.2" points="61.01,-148.04 54.03,-156 64.46,-154.13 61.01,-148.04"/>
</g>
<!-- mnt_comp1&#45;&gt;mnt_comp3 -->
<g id="edge34" class="edge">
<title>mnt_comp1&#45;&gt;mnt_comp3</title>
<path fill="none" stroke="black" stroke-width="1.2" d="M1147.31,-115C1219.88,-115 1356.8,-115 1434.77,-115"/>
<polygon fill="black" stroke="black" stroke-width="1.2" points="1434.91,-118.5 1444.91,-115 1434.91,-111.5 1434.91,-118.5"/>
</g>
<!-- mnt_comp1&#45;&gt;fail_comp2 -->
<g id="edge36" class="edge">
<title>mnt_comp1&#45;&gt;fail_comp2</title>
<path fill="none" stroke="black" stroke-width="1.2" d="M1110.68,-133.01C1133.5,-168.22 1184.12,-246.31 1210.79,-287.46"/>
<polygon fill="black" stroke="black" stroke-width="1.2" points="1207.88,-289.4 1216.26,-295.89 1213.76,-285.59 1207.88,-289.4"/>
</g>
<!-- mnt_comp2 -->
<g id="node11" class="node">
<title>mnt_comp2</title>
<path fill="white" stroke="black" d="M1397,-332C1397,-332 1323,-332 1323,-332 1317,-332 1311,-326 1311,-320 1311,-320 1311,-308 1311,-308 1311,-302 1317,-296 1323,-296 1323,-296 1397,-296 1397,-296 1403,-296 1409,-302 1409,-308 1409,-308 1409,-320 1409,-320 1409,-326 1403,-332 1397,-332"/>
<text text-anchor="middle" x="1360" y="-310.3" font-family="Helvetica,sans-Serif" font-size="14.00">mnt_comp2</text>
</g>
<!-- mnt_comp2&#45;&gt;mnt_comp3 -->
<g id="edge37" class="edge">
<title>mnt_comp2&#45;&gt;mnt_comp3</title>
<path fill="none" stroke="black" stroke-width="1.2" d="M1372.95,-295.99C1396.3,-260.78 1448.1,-182.69 1475.39,-141.54"/>
<polygon fill="black" stroke="black" stroke-width="1.2" points="1478.37,-143.38 1480.98,-133.11 1472.54,-139.51 1478.37,-143.38"/>
</g>
<!-- mnt_comp4&#45;&gt;fail_comp3 -->
<g id="edge42" class="edge">
<title>mnt_comp4&#45;&gt;fail_comp3</title>
<path fill="none" stroke="black" stroke-width="1.2" d="M278.49,-325.82C298.45,-311.58 326.41,-291.65 348.23,-276.08"/>
<polygon fill="black" stroke="black" stroke-width="1.2" points="350.46,-278.79 356.57,-270.14 346.39,-273.1 350.46,-278.79"/>
</g>
<!-- fail_comp1&#45;&gt;volt -->
<g id="edge4" class="edge">
<title>fail_comp1&#45;&gt;volt</title>
<path fill="none" stroke="black" stroke-width="1.2" d="M920.93,-41.08C838.96,-32.57 659.93,-16 508.5,-16 251,-16 251,-16 251,-16 174.32,-16 149.74,-29.93 90,-78 67.78,-95.88 50.75,-123.91 40.21,-144.72"/>
<polygon fill="black" stroke="black" stroke-width="1.2" points="36.93,-143.46 35.7,-153.99 43.22,-146.53 36.93,-143.46"/>
</g>
<!-- fail_comp1&#45;&gt;mnt_comp1 -->
<g id="edge35" class="edge">
<title>fail_comp1&#45;&gt;mnt_comp1</title>
<path fill="none" stroke="black" stroke-width="1.2" d="M1001.89,-64.13C1017.89,-72.69 1037.16,-82.99 1054.16,-92.08"/>
<polygon fill="black" stroke="black" stroke-width="1.2" points="1052.86,-95.36 1063.33,-96.99 1056.17,-89.19 1052.86,-95.36"/>
</g>
<!-- fail_comp1&#45;&gt;mnt_comp3 -->
<g id="edge40" class="edge">
<title>fail_comp1&#45;&gt;mnt_comp3</title>
<path fill="none" stroke="black" stroke-width="1.2" d="M1013.22,-51.94C1108.29,-64.44 1328.85,-93.43 1434.51,-107.31"/>
<polygon fill="black" stroke="black" stroke-width="1.2" points="1434.31,-110.82 1444.68,-108.65 1435.22,-103.88 1434.31,-110.82"/>
</g>
<!-- fail_comp2&#45;&gt;volt -->
<g id="edge5" class="edge">
<title>fail_comp2&#45;&gt;volt</title>
<path fill="none" stroke="black" stroke-width="1.2" d="M1221.64,-332.07C1198.45,-394.31 1112.17,-596 968,-596 748.5,-596 748.5,-596 748.5,-596 585.62,-596 546.88,-558 384,-558 251,-558 251,-558 251,-558 85.69,-558 41,-289.3 30.72,-200.27"/>
<polygon fill="black" stroke="black" stroke-width="1.2" points="34.18,-199.66 29.61,-190.1 27.22,-200.42 34.18,-199.66"/>
</g>
<!-- fail_comp2&#45;&gt;err_error3 -->
<g id="edge32" class="edge">
<title>fail_comp2&#45;&gt;err_error3</title>
<path fill="none" stroke="black" stroke-width="1.2" d="M1182.62,-322.44C1130.88,-331.31 1043.65,-344 968,-344 855.5,-344 855.5,-344 855.5,-344 795.8,-344 727.24,-344 681.43,-344"/>
<polygon fill="black" stroke="black" stroke-width="1.2" points="681.15,-340.5 671.15,-344 681.15,-347.5 681.15,-340.5"/>
</g>
<!-- fail_comp2&#45;&gt;mnt_comp2 -->
<g id="edge38" class="edge">
<title>fail_comp2&#45;&gt;mnt_comp2</title>
<path fill="none" stroke="black" stroke-width="1.2" d="M1275.12,-314C1283.28,-314 1291.9,-314 1300.38,-314"/>
<polygon fill="black" stroke="black" stroke-width="1.2" points="1300.62,-317.5 1310.62,-314 1300.62,-310.5 1300.62,-317.5"/>
</g>
<!-- fail_comp3&#45;&gt;vibration -->
<g id="edge26" class="edge">
<title>fail_comp3&#45;&gt;vibration</title>
<path fill="none" stroke="black" stroke-width="1.2" d="M411.8,-270.15C429.1,-281.46 451.55,-296.12 470.25,-308.32"/>
<polygon fill="black" stroke="black" stroke-width="1.2" points="468.53,-311.38 478.81,-313.92 472.35,-305.52 468.53,-311.38"/>
</g>
<!-- fail_comp3&#45;&gt;err_error1 -->
<g id="edge29" class="edge">
<title>fail_comp3&#45;&gt;err_error1</title>
<path fill="none" stroke="black" stroke-width="1.2" d="M429.27,-237.96C437.59,-235.37 446.35,-232.66 454.84,-230.02"/>
<polygon fill="black" stroke="black" stroke-width="1.2" points="456.15,-233.28 464.67,-226.98 454.08,-226.6 456.15,-233.28"/>
</g>
<!-- fail_comp3&#45;&gt;mnt_comp3 -->
<g id="edge41" class="edge">
<title>fail_comp3&#45;&gt;mnt_comp3</title>
<path fill="none" stroke="black" stroke-width="1.2" d="M401.87,-233.88C460.85,-176.1 656.87,0 855.5,0 855.5,0 855.5,0 1230,0 1319.84,0 1413.57,-57.03 1461.16,-90.77"/>
<polygon fill="black" stroke="black" stroke-width="1.2" points="1459.34,-93.77 1469.5,-96.78 1463.44,-88.09 1459.34,-93.77"/>
</g>
<!-- fail_comp4&#45;&gt;volt -->
<g id="edge7" class="edge">
<title>fail_comp4&#45;&gt;volt</title>
<path fill="none" stroke="black" stroke-width="1.2" d="M920.59,-517.79C909.1,-521.58 896.7,-525.28 885,-528 666.12,-578.86 608.71,-596 384,-596 251,-596 251,-596 251,-596 178.65,-596 141.3,-623.01 90,-572 37.54,-519.84 29.43,-282.91 28.21,-200.42"/>
<polygon fill="black" stroke="black" stroke-width="1.2" points="31.71,-200.23 28.08,-190.27 24.71,-200.32 31.71,-200.23"/>
</g>
<!-- fail_comp4&#45;&gt;pressure -->
<g id="edge20" class="edge">
<title>fail_comp4&#45;&gt;pressure</title>
<path fill="none" stroke="black" stroke-width="1.2" d="M920.7,-507.33C877.16,-512.85 809.47,-520 750.5,-520 382,-520 382,-520 382,-520 265.09,-520 176.56,-384.12 143.56,-324.97"/>
<polygon fill="black" stroke="black" stroke-width="1.2" points="146.62,-323.26 138.75,-316.17 140.48,-326.62 146.62,-323.26"/>
</g>
<!-- fail_comp4&#45;&gt;mnt_comp2 -->
<g id="edge39" class="edge">
<title>fail_comp4&#45;&gt;mnt_comp2</title>
<path fill="none" stroke="black" stroke-width="1.2" d="M1005.85,-482.9C1077.67,-448.55 1233.56,-373.99 1311.97,-336.49"/>
<polygon fill="black" stroke="black" stroke-width="1.2" points="1313.62,-339.58 1321.13,-332.11 1310.6,-333.27 1313.62,-339.58"/>
</g>
<!-- fail_comp4&#45;&gt;mnt_comp4 -->
<g id="edge43" class="edge">
<title>fail_comp4&#45;&gt;mnt_comp4</title>
<path fill="none" stroke="black" stroke-width="1.2" d="M920.7,-494.67C877.16,-489.15 809.47,-482 750.5,-482 627.5,-482 627.5,-482 627.5,-482 496.47,-482 354.67,-406.7 289.51,-367.34"/>
<polygon fill="black" stroke="black" stroke-width="1.2" points="291.19,-364.27 280.83,-362.04 287.54,-370.24 291.19,-364.27"/>
</g>
</g>
</svg>
