<?xml version="1.0" encoding="UTF-8" standalone="no"?>
<!DOCTYPE svg PUBLIC "-//W3C//DTD SVG 1.1//EN"
 "http://www.w3.org/Graphics/SVG/1.1/DTD/svg11.dtd">
<!-- Generated by graphviz version 2.50.0 (0)
 -->
<!-- Title: G Pages: 1 -->
<svg width="1444pt" height="658pt"
 viewBox="0.00 0.00 1444.00 658.00" xmlns="http://www.w3.org/2000/svg" xmlns:xlink="http://www.w3.org/1999/xlink">
<g id="graph0" class="graph" transform="scale(1 1) rotate(0) translate(4 654)">
<title>G</title>
<polygon fill="white" stroke="transparent" points="-4,4 -4,-654 1440,-654 1440,4 -4,4"/>
<text text-anchor="middle" x="718" y="-633.2" font-family="Times,serif" font-size="16.00">model=model2/nbcb_w_mixed.json [machine 96]</text>
<!-- volt -->
<g id="node1" class="node">
<title>volt</title>
<path fill="white" stroke="black" d="M42,-470C42,-470 12,-470 12,-470 6,-470 0,-464 0,-458 0,-458 0,-446 0,-446 0,-440 6,-434 12,-434 12,-434 42,-434 42,-434 48,-434 54,-440 54,-446 54,-446 54,-458 54,-458 54,-464 48,-470 42,-470"/>
<text text-anchor="middle" x="27" y="-448.3" font-family="Helvetica,sans-Serif" font-size="14.00">volt</text>
</g>
<!-- rotate -->
<g id="node2" class="node">
<title>rotate</title>
<path fill="white" stroke="black" d="M149,-139C149,-139 116,-139 116,-139 110,-139 104,-133 104,-127 104,-127 104,-115 104,-115 104,-109 110,-103 116,-103 116,-103 149,-103 149,-103 155,-103 161,-109 161,-115 161,-115 161,-127 161,-127 161,-133 155,-139 149,-139"/>
<text text-anchor="middle" x="132.5" y="-117.3" font-family="Helvetica,sans-Serif" font-size="14.00">rotate</text>
</g>
<!-- volt&#45;&gt;rotate -->
<g id="edge1" class="edge">
<title>volt&#45;&gt;rotate</title>
<path fill="none" stroke="black" stroke-width="1.2" d="M27.55,-433.91C27.15,-384.77 31.64,-246.25 90,-153 91.79,-150.15 93.92,-147.45 96.27,-144.92"/>
<polygon fill="black" stroke="black" stroke-width="1.2" points="98.9,-147.26 103.81,-137.87 94.12,-142.14 98.9,-147.26"/>
</g>
<!-- pressure -->
<g id="node3" class="node">
<title>pressure</title>
<path fill="white" stroke="black" d="M1182,-452C1182,-452 1129,-452 1129,-452 1123,-452 1117,-446 1117,-440 1117,-440 1117,-428 1117,-428 1117,-422 1123,-416 1129,-416 1129,-416 1182,-416 1182,-416 1188,-416 1194,-422 1194,-428 1194,-428 1194,-440 1194,-440 1194,-446 1188,-452 1182,-452"/>
<text text-anchor="middle" x="1155.5" y="-430.3" font-family="Helvetica,sans-Serif" font-size="14.00">pressure</text>
</g>
<!-- volt&#45;&gt;pressure -->
<g id="edge2" class="edge">
<title>volt&#45;&gt;pressure</title>
<path fill="none" stroke="black" stroke-width="1.2" d="M46.37,-470.23C58.01,-480.86 73.87,-493.76 90,-502 159.33,-537.41 181.16,-548 259,-548 259,-548 259,-548 918.5,-548 1000.19,-548 1083.37,-491.93 1125.77,-458.44"/>
<polygon fill="black" stroke="black" stroke-width="1.2" points="1128.1,-461.06 1133.7,-452.06 1123.71,-455.6 1128.1,-461.06"/>
</g>
<!-- err_error1 -->
<g id="node5" class="node">
<title>err_error1</title>
<path fill="white" stroke="black" d="M1069,-360C1069,-360 1008,-360 1008,-360 1002,-360 996,-354 996,-348 996,-348 996,-336 996,-336 996,-330 1002,-324 1008,-324 1008,-324 1069,-324 1069,-324 1075,-324 1081,-330 1081,-336 1081,-336 1081,-348 1081,-348 1081,-354 1075,-360 1069,-360"/>
<text text-anchor="middle" x="1038.5" y="-338.3" font-family="Helvetica,sans-Serif" font-size="14.00">err_error1</text>
</g>
<!-- volt&#45;&gt;err_error1 -->
<g id="edge4" class="edge">
<title>volt&#45;&gt;err_error1</title>
<path fill="none" stroke="black" stroke-width="1.2" d="M63.69,-466.78C108.49,-483.96 188.08,-510 259,-510 259,-510 259,-510 657,-510 797.35,-510 943.91,-413.16 1006.35,-366.53"/>
<polygon fill="black" stroke="black" stroke-width="1.2" points="64.73,-463.43 54.14,-463.05 62.18,-469.95 64.73,-463.43"/>
<polygon fill="black" stroke="black" stroke-width="1.2" points="1008.73,-369.12 1014.6,-360.3 1004.51,-363.54 1008.73,-369.12"/>
</g>
<!-- err_error2 -->
<g id="node6" class="node">
<title>err_error2</title>
<path fill="white" stroke="black" d="M1303,-498C1303,-498 1242,-498 1242,-498 1236,-498 1230,-492 1230,-486 1230,-486 1230,-474 1230,-474 1230,-468 1236,-462 1242,-462 1242,-462 1303,-462 1303,-462 1309,-462 1315,-468 1315,-474 1315,-474 1315,-486 1315,-486 1315,-492 1309,-498 1303,-498"/>
<text text-anchor="middle" x="1272.5" y="-476.3" font-family="Helvetica,sans-Serif" font-size="14.00">err_error2</text>
</g>
<!-- volt&#45;&gt;err_error2 -->
<g id="edge5" class="edge">
<title>volt&#45;&gt;err_error2</title>
<path fill="none" stroke="black" stroke-width="1.2" d="M42.53,-479.22C53.4,-497.16 69.83,-519.88 90,-534 154.37,-579.08 180.41,-586 259,-586 259,-586 259,-586 1039.5,-586 1117.59,-586 1198.19,-535.7 1240.78,-504.4"/>
<polygon fill="black" stroke="black" stroke-width="1.2" points="45.41,-477.22 37.36,-470.34 39.36,-480.74 45.41,-477.22"/>
<polygon fill="black" stroke="black" stroke-width="1.2" points="1243.12,-507.02 1249.03,-498.22 1238.93,-501.41 1243.12,-507.02"/>
</g>
<!-- err_error4 -->
<g id="node8" class="node">
<title>err_error4</title>
<path fill="white" stroke="black" d="M1424,-475C1424,-475 1363,-475 1363,-475 1357,-475 1351,-469 1351,-463 1351,-463 1351,-451 1351,-451 1351,-445 1357,-439 1363,-439 1363,-439 1424,-439 1424,-439 1430,-439 1436,-445 1436,-451 1436,-451 1436,-463 1436,-463 1436,-469 1430,-475 1424,-475"/>
<text text-anchor="middle" x="1393.5" y="-453.3" font-family="Helvetica,sans-Serif" font-size="14.00">err_error4</text>
</g>
<!-- volt&#45;&gt;err_error4 -->
<g id="edge7" class="edge">
<title>volt&#45;&gt;err_error4</title>
<path fill="none" stroke="black" stroke-width="1.2" d="M32.9,-470.2C40.74,-495.87 58.5,-542.52 90,-569 150.46,-619.83 180.01,-624 259,-624 259,-624 259,-624 1156.5,-624 1252.66,-624 1337.06,-530.48 1373.45,-483.41"/>
<polygon fill="black" stroke="black" stroke-width="1.2" points="1376.43,-485.27 1379.68,-475.19 1370.85,-481.04 1376.43,-485.27"/>
</g>
<!-- mnt_comp4 -->
<g id="node13" class="node">
<title>mnt_comp4</title>
<path fill="white" stroke="black" d="M827,-261C827,-261 753,-261 753,-261 747,-261 741,-255 741,-249 741,-249 741,-237 741,-237 741,-231 747,-225 753,-225 753,-225 827,-225 827,-225 833,-225 839,-231 839,-237 839,-237 839,-249 839,-249 839,-255 833,-261 827,-261"/>
<text text-anchor="middle" x="790" y="-239.3" font-family="Helvetica,sans-Serif" font-size="14.00">mnt_comp4</text>
</g>
<!-- volt&#45;&gt;mnt_comp4 -->
<g id="edge10" class="edge">
<title>volt&#45;&gt;mnt_comp4</title>
<path fill="none" stroke="black" stroke-width="1.2" d="M31.69,-433.83C38.81,-401.97 56.76,-334.96 90,-288 130.63,-230.59 144.93,-210.13 211,-186 259,-168.47 593.42,-214.44 730.55,-234.34"/>
<polygon fill="black" stroke="black" stroke-width="1.2" points="730.45,-237.87 740.85,-235.84 731.46,-230.94 730.45,-237.87"/>
</g>
<!-- vibration -->
<g id="node4" class="node">
<title>vibration</title>
<path fill="white" stroke="black" d="M287,-361C287,-361 233,-361 233,-361 227,-361 221,-355 221,-349 221,-349 221,-337 221,-337 221,-331 227,-325 233,-325 233,-325 287,-325 287,-325 293,-325 299,-331 299,-337 299,-337 299,-349 299,-349 299,-355 293,-361 287,-361"/>
<text text-anchor="middle" x="260" y="-339.3" font-family="Helvetica,sans-Serif" font-size="14.00">vibration</text>
</g>
<!-- rotate&#45;&gt;vibration -->
<g id="edge11" class="edge">
<title>rotate&#45;&gt;vibration</title>
<path fill="none" stroke="black" stroke-width="1.2" d="M141.83,-139.19C155.3,-168.12 183.15,-226.15 211,-273 219.75,-287.72 230.44,-303.49 239.51,-316.34"/>
<polygon fill="black" stroke="black" stroke-width="1.2" points="236.83,-318.61 245.49,-324.71 242.53,-314.54 236.83,-318.61"/>
</g>
<!-- rotate&#45;&gt;err_error1 -->
<g id="edge12" class="edge">
<title>rotate&#45;&gt;err_error1</title>
<path fill="none" stroke="black" stroke-width="1.2" d="M170.97,-110.22C220.61,-96.9 311.12,-76 390,-76 390,-76 390,-76 657,-76 805.35,-76 850.77,-115.63 960,-216 990.62,-244.13 1013.51,-287.08 1026.2,-314.85"/>
<polygon fill="black" stroke="black" stroke-width="1.2" points="170.03,-106.84 161.31,-112.85 171.87,-113.6 170.03,-106.84"/>
<polygon fill="black" stroke="black" stroke-width="1.2" points="1023,-316.27 1030.26,-323.99 1029.4,-313.43 1023,-316.27"/>
</g>
<!-- err_error3 -->
<g id="node7" class="node">
<title>err_error3</title>
<path fill="white" stroke="black" d="M948,-261C948,-261 887,-261 887,-261 881,-261 875,-255 875,-249 875,-249 875,-237 875,-237 875,-231 881,-225 887,-225 887,-225 948,-225 948,-225 954,-225 960,-231 960,-237 960,-237 960,-249 960,-249 960,-255 954,-261 948,-261"/>
<text text-anchor="middle" x="917.5" y="-239.3" font-family="Helvetica,sans-Serif" font-size="14.00">err_error3</text>
</g>
<!-- rotate&#45;&gt;err_error3 -->
<g id="edge13" class="edge">
<title>rotate&#45;&gt;err_error3</title>
<path fill="none" stroke="black" stroke-width="1.2" d="M171.23,-119.33C221.24,-117.26 312.23,-114 390,-114 390,-114 390,-114 523,-114 657.68,-114 805.97,-183.08 875.83,-220.14"/>
<polygon fill="black" stroke="black" stroke-width="1.2" points="171.05,-115.83 161.2,-119.75 171.34,-122.82 171.05,-115.83"/>
<polygon fill="black" stroke="black" stroke-width="1.2" points="874.29,-223.28 884.76,-224.93 877.6,-217.12 874.29,-223.28"/>
</g>
<!-- mnt_comp3 -->
<g id="node12" class="node">
<title>mnt_comp3</title>
<path fill="white" stroke="black" d="M559,-444C559,-444 485,-444 485,-444 479,-444 473,-438 473,-432 473,-432 473,-420 473,-420 473,-414 479,-408 485,-408 485,-408 559,-408 559,-408 565,-408 571,-414 571,-420 571,-420 571,-432 571,-432 571,-438 565,-444 559,-444"/>
<text text-anchor="middle" x="522" y="-422.3" font-family="Helvetica,sans-Serif" font-size="14.00">mnt_comp3</text>
</g>
<!-- rotate&#45;&gt;mnt_comp3 -->
<g id="edge15" class="edge">
<title>rotate&#45;&gt;mnt_comp3</title>
<path fill="none" stroke="black" stroke-width="1.2" d="M137.99,-139.13C151.67,-193.78 193.02,-354.11 211,-370 229.63,-386.47 378.23,-407.8 462.74,-418.77"/>
<polygon fill="black" stroke="black" stroke-width="1.2" points="462.35,-422.25 472.72,-420.06 463.25,-415.31 462.35,-422.25"/>
</g>
<!-- fail_comp3 -->
<g id="node14" class="node">
<title>fail_comp3</title>
<path fill="white" stroke="black" d="M425,-276C425,-276 357,-276 357,-276 351,-276 345,-270 345,-264 345,-264 345,-252 345,-252 345,-246 351,-240 357,-240 357,-240 425,-240 425,-240 431,-240 437,-246 437,-252 437,-252 437,-264 437,-264 437,-270 431,-276 425,-276"/>
<text text-anchor="middle" x="391" y="-254.3" font-family="Helvetica,sans-Serif" font-size="14.00">fail_comp3</text>
</g>
<!-- rotate&#45;&gt;fail_comp3 -->
<g id="edge16" class="edge">
<title>rotate&#45;&gt;fail_comp3</title>
<path fill="none" stroke="black" stroke-width="1.2" d="M139.58,-139.23C149.67,-166.36 172.67,-216.67 211,-240 247.82,-262.42 296.97,-265.89 334.45,-264.34"/>
<polygon fill="black" stroke="black" stroke-width="1.2" points="334.9,-267.82 344.69,-263.78 334.52,-260.83 334.9,-267.82"/>
</g>
<!-- pressure&#45;&gt;err_error2 -->
<g id="edge18" class="edge">
<title>pressure&#45;&gt;err_error2</title>
<path fill="none" stroke="black" stroke-width="1.2" d="M1194.16,-449.06C1202.53,-452.41 1211.54,-456.01 1220.34,-459.54"/>
<polygon fill="black" stroke="black" stroke-width="1.2" points="1219.2,-462.85 1229.78,-463.31 1221.8,-456.35 1219.2,-462.85"/>
</g>
<!-- pressure&#45;&gt;err_error4 -->
<g id="edge19" class="edge">
<title>pressure&#45;&gt;err_error4</title>
<path fill="none" stroke="black" stroke-width="1.2" d="M1204.35,-438.66C1243.91,-442.52 1299.99,-447.98 1340.62,-451.94"/>
<polygon fill="black" stroke="black" stroke-width="1.2" points="1204.45,-435.16 1194.16,-437.67 1203.77,-442.12 1204.45,-435.16"/>
<polygon fill="black" stroke="black" stroke-width="1.2" points="1340.31,-455.43 1350.6,-452.92 1340.99,-448.46 1340.31,-455.43"/>
</g>
<!-- mnt_comp1 -->
<g id="node10" class="node">
<title>mnt_comp1</title>
<path fill="white" stroke="black" d="M693,-414C693,-414 619,-414 619,-414 613,-414 607,-408 607,-402 607,-402 607,-390 607,-390 607,-384 613,-378 619,-378 619,-378 693,-378 693,-378 699,-378 705,-384 705,-390 705,-390 705,-402 705,-402 705,-408 699,-414 693,-414"/>
<text text-anchor="middle" x="656" y="-392.3" font-family="Helvetica,sans-Serif" font-size="14.00">mnt_comp1</text>
</g>
<!-- pressure&#45;&gt;mnt_comp1 -->
<g id="edge20" class="edge">
<title>pressure&#45;&gt;mnt_comp1</title>
<path fill="none" stroke="black" stroke-width="1.2" d="M1116.77,-431.12C1030.55,-424.53 818.62,-408.34 715.4,-400.46"/>
<polygon fill="black" stroke="black" stroke-width="1.2" points="715.39,-396.95 705.15,-399.68 714.86,-403.93 715.39,-396.95"/>
</g>
<!-- pressure&#45;&gt;fail_comp3 -->
<g id="edge22" class="edge">
<title>pressure&#45;&gt;fail_comp3</title>
<path fill="none" stroke="black" stroke-width="1.2" d="M1141.73,-406.92C1115.96,-356.17 1052.22,-248.92 960,-216 780.92,-152.08 550.39,-207.88 446.74,-239.62"/>
<polygon fill="black" stroke="black" stroke-width="1.2" points="1138.66,-408.59 1146.24,-415.99 1144.93,-405.48 1138.66,-408.59"/>
<polygon fill="black" stroke="black" stroke-width="1.2" points="445.63,-236.3 437.12,-242.61 447.7,-242.98 445.63,-236.3"/>
</g>
<!-- vibration&#45;&gt;volt -->
<g id="edge3" class="edge">
<title>vibration&#45;&gt;volt</title>
<path fill="none" stroke="black" stroke-width="1.2" d="M220.74,-359.34C186.27,-374.27 134.34,-397.26 90,-419 81.14,-423.34 71.69,-428.24 62.91,-432.9"/>
<polygon fill="black" stroke="black" stroke-width="1.2" points="61.21,-429.84 54.05,-437.64 64.52,-436.01 61.21,-429.84"/>
</g>
<!-- vibration&#45;&gt;err_error1 -->
<g id="edge23" class="edge">
<title>vibration&#45;&gt;err_error1</title>
<path fill="none" stroke="black" stroke-width="1.2" d="M299.33,-342.76C350.04,-342.46 442.23,-342 521,-342 521,-342 521,-342 791,-342 858.12,-342 935.52,-342 985.41,-342"/>
<polygon fill="black" stroke="black" stroke-width="1.2" points="985.63,-345.5 995.63,-342 985.63,-338.5 985.63,-345.5"/>
</g>
<!-- vibration&#45;&gt;err_error3 -->
<g id="edge24" class="edge">
<title>vibration&#45;&gt;err_error3</title>
<path fill="none" stroke="black" stroke-width="1.2" d="M299.06,-333.66C349.48,-322.12 441.35,-304 521,-304 521,-304 521,-304 657,-304 730.91,-304 813.6,-280.26 865.35,-262.4"/>
<polygon fill="black" stroke="black" stroke-width="1.2" points="866.68,-265.64 874.96,-259.03 864.36,-259.04 866.68,-265.64"/>
</g>
<!-- vibration&#45;&gt;fail_comp3 -->
<g id="edge26" class="edge">
<title>vibration&#45;&gt;fail_comp3</title>
<path fill="none" stroke="black" stroke-width="1.2" d="M288.36,-324.97C307.51,-312.35 333.3,-295.36 354.1,-281.65"/>
<polygon fill="black" stroke="black" stroke-width="1.2" points="356.26,-284.43 362.68,-276 352.41,-278.58 356.26,-284.43"/>
</g>
<!-- err_error1&#45;&gt;pressure -->
<g id="edge17" class="edge">
<title>err_error1&#45;&gt;pressure</title>
<path fill="none" stroke="black" stroke-width="1.2" d="M1062.22,-360.18C1079.86,-374.29 1104.5,-394 1123.88,-409.5"/>
<polygon fill="black" stroke="black" stroke-width="1.2" points="1121.83,-412.35 1131.83,-415.86 1126.2,-406.88 1121.83,-412.35"/>
</g>
<!-- err_error2&#45;&gt;err_error4 -->
<g id="edge28" class="edge">
<title>err_error2&#45;&gt;err_error4</title>
<path fill="none" stroke="black" stroke-width="1.2" d="M1315.12,-471.96C1323.41,-470.35 1332.2,-468.65 1340.78,-467"/>
<polygon fill="black" stroke="black" stroke-width="1.2" points="1341.55,-470.41 1350.7,-465.08 1340.22,-463.54 1341.55,-470.41"/>
</g>
<!-- err_error3&#45;&gt;volt -->
<g id="edge6" class="edge">
<title>err_error3&#45;&gt;volt</title>
<path fill="none" stroke="black" stroke-width="1.2" d="M904.65,-224.65C891.02,-204.87 866.89,-173.73 839,-155 604.76,2.3 490.8,-25.63 211,-62 155.84,-69.17 127.59,-52.99 90,-94 45.82,-142.2 32.54,-347.1 29.08,-423.3"/>
<polygon fill="black" stroke="black" stroke-width="1.2" points="25.57,-423.43 28.64,-433.58 32.57,-423.74 25.57,-423.43"/>
</g>
<!-- err_error3&#45;&gt;err_error1 -->
<g id="edge27" class="edge">
<title>err_error3&#45;&gt;err_error1</title>
<path fill="none" stroke="black" stroke-width="1.2" d="M940.33,-261.16C959.28,-276.93 986.9,-299.91 1007.86,-317.34"/>
<polygon fill="black" stroke="black" stroke-width="1.2" points="1005.89,-320.25 1015.81,-323.96 1010.36,-314.87 1005.89,-320.25"/>
</g>
<!-- err_error4&#45;&gt;rotate -->
<g id="edge14" class="edge">
<title>err_error4&#45;&gt;rotate</title>
<path fill="none" stroke="black" stroke-width="1.2" d="M1391.81,-438.8C1387.53,-353.81 1357.64,0 1156.5,0 655,0 655,0 655,0 454.57,0 400.2,-12.85 211,-79 197.05,-83.88 182.6,-91.05 170.01,-98.09"/>
<polygon fill="black" stroke="black" stroke-width="1.2" points="168.12,-95.14 161.2,-103.17 171.61,-101.21 168.12,-95.14"/>
</g>
<!-- err_error5 -->
<g id="node9" class="node">
<title>err_error5</title>
<path fill="white" stroke="black" d="M163,-333C163,-333 102,-333 102,-333 96,-333 90,-327 90,-321 90,-321 90,-309 90,-309 90,-303 96,-297 102,-297 102,-297 163,-297 163,-297 169,-297 175,-303 175,-309 175,-309 175,-321 175,-321 175,-327 169,-333 163,-333"/>
<text text-anchor="middle" x="132.5" y="-311.3" font-family="Helvetica,sans-Serif" font-size="14.00">err_error5</text>
</g>
<!-- err_error5&#45;&gt;vibration -->
<g id="edge25" class="edge">
<title>err_error5&#45;&gt;vibration</title>
<path fill="none" stroke="black" stroke-width="1.2" d="M175.29,-324.32C186.65,-326.86 199.05,-329.62 210.73,-332.23"/>
<polygon fill="black" stroke="black" stroke-width="1.2" points="210.26,-335.71 220.78,-334.47 211.78,-328.88 210.26,-335.71"/>
</g>
<!-- err_error5&#45;&gt;fail_comp3 -->
<g id="edge30" class="edge">
<title>err_error5&#45;&gt;fail_comp3</title>
<path fill="none" stroke="black" stroke-width="1.2" d="M175.28,-305.72C218.75,-296.06 287.03,-280.88 334.89,-270.25"/>
<polygon fill="black" stroke="black" stroke-width="1.2" points="335.78,-273.64 344.78,-268.05 334.26,-266.8 335.78,-273.64"/>
</g>
<!-- mnt_comp1&#45;&gt;volt -->
<g id="edge8" class="edge">
<title>mnt_comp1&#45;&gt;volt</title>
<path fill="none" stroke="black" stroke-width="1.2" d="M635.75,-414.06C619.79,-427.73 595.76,-445.39 571,-453 387.67,-509.33 152.79,-475.5 64.08,-459.23"/>
<polygon fill="black" stroke="black" stroke-width="1.2" points="64.71,-455.79 54.24,-457.39 63.43,-462.67 64.71,-455.79"/>
</g>
<!-- mnt_comp1&#45;&gt;mnt_comp4 -->
<g id="edge32" class="edge">
<title>mnt_comp1&#45;&gt;mnt_comp4</title>
<path fill="none" stroke="black" stroke-width="1.2" d="M672.66,-377.85C695.98,-350.82 739.95,-299.86 766.64,-268.91"/>
<polygon fill="black" stroke="black" stroke-width="1.2" points="769.48,-270.99 773.36,-261.13 764.18,-266.41 769.48,-270.99"/>
</g>
<!-- mnt_comp2 -->
<g id="node11" class="node">
<title>mnt_comp2</title>
<path fill="white" stroke="black" d="M297,-231C297,-231 223,-231 223,-231 217,-231 211,-225 211,-219 211,-219 211,-207 211,-207 211,-201 217,-195 223,-195 223,-195 297,-195 297,-195 303,-195 309,-201 309,-207 309,-207 309,-219 309,-219 309,-225 303,-231 297,-231"/>
<text text-anchor="middle" x="260" y="-209.3" font-family="Helvetica,sans-Serif" font-size="14.00">mnt_comp2</text>
</g>
<!-- mnt_comp2&#45;&gt;mnt_comp4 -->
<g id="edge34" class="edge">
<title>mnt_comp2&#45;&gt;mnt_comp4</title>
<path fill="none" stroke="black" stroke-width="1.2" d="M309.07,-207.98C391.01,-200.55 562.68,-189.96 705,-214 715.26,-215.73 725.94,-218.57 736.12,-221.8"/>
<polygon fill="black" stroke="black" stroke-width="1.2" points="735.09,-225.15 745.68,-225 737.31,-218.51 735.09,-225.15"/>
</g>
<!-- mnt_comp2&#45;&gt;fail_comp3 -->
<g id="edge35" class="edge">
<title>mnt_comp2&#45;&gt;fail_comp3</title>
<path fill="none" stroke="black" stroke-width="1.2" d="M309.03,-229.76C317.57,-232.73 326.52,-235.86 335.22,-238.89"/>
<polygon fill="black" stroke="black" stroke-width="1.2" points="334.32,-242.28 344.92,-242.27 336.63,-235.67 334.32,-242.28"/>
</g>
<!-- mnt_comp3&#45;&gt;volt -->
<g id="edge9" class="edge">
<title>mnt_comp3&#45;&gt;volt</title>
<path fill="none" stroke="black" stroke-width="1.2" d="M472.89,-428.54C374.44,-433.73 151.96,-445.46 64.39,-450.08"/>
<polygon fill="black" stroke="black" stroke-width="1.2" points="63.96,-446.6 54.16,-450.62 64.33,-453.59 63.96,-446.6"/>
</g>
<!-- mnt_comp3&#45;&gt;pressure -->
<g id="edge21" class="edge">
<title>mnt_comp3&#45;&gt;pressure</title>
<path fill="none" stroke="black" stroke-width="1.2" d="M571.11,-439.43C624.06,-453.01 711.91,-472 789,-472 789,-472 789,-472 918.5,-472 984.42,-472 1059.4,-457.37 1106.81,-446.27"/>
<polygon fill="black" stroke="black" stroke-width="1.2" points="1107.87,-449.61 1116.79,-443.88 1106.25,-442.8 1107.87,-449.61"/>
</g>
<!-- mnt_comp3&#45;&gt;mnt_comp1 -->
<g id="edge31" class="edge">
<title>mnt_comp3&#45;&gt;mnt_comp1</title>
<path fill="none" stroke="black" stroke-width="1.2" d="M571.03,-415.08C579.4,-413.18 588.19,-411.18 596.8,-409.23"/>
<polygon fill="black" stroke="black" stroke-width="1.2" points="597.81,-412.59 606.79,-406.96 596.26,-405.76 597.81,-412.59"/>
</g>
<!-- mnt_comp4&#45;&gt;err_error3 -->
<g id="edge29" class="edge">
<title>mnt_comp4&#45;&gt;err_error3</title>
<path fill="none" stroke="black" stroke-width="1.2" d="M839.16,-243C847.52,-243 856.24,-243 864.68,-243"/>
<polygon fill="black" stroke="black" stroke-width="1.2" points="864.81,-246.5 874.81,-243 864.81,-239.5 864.81,-246.5"/>
</g>
<!-- fail_comp3&#45;&gt;mnt_comp1 -->
<g id="edge33" class="edge">
<title>fail_comp3&#45;&gt;mnt_comp1</title>
<path fill="none" stroke="black" stroke-width="1.2" d="M426.38,-276.04C473.93,-300.99 559.76,-346.02 611.65,-373.25"/>
<polygon fill="black" stroke="black" stroke-width="1.2" points="610.13,-376.41 620.61,-377.95 613.38,-370.21 610.13,-376.41"/>
</g>
<!-- fail_comp3&#45;&gt;mnt_comp3 -->
<g id="edge36" class="edge">
<title>fail_comp3&#45;&gt;mnt_comp3</title>
<path fill="none" stroke="black" stroke-width="1.2" d="M399.75,-276.43C412.14,-304.3 438.54,-357.75 473,-394 475.57,-396.7 478.4,-399.29 481.37,-401.75"/>
<polygon fill="black" stroke="black" stroke-width="1.2" points="479.38,-404.63 489.45,-407.92 483.63,-399.07 479.38,-404.63"/>
</g>
<!-- fail_comp3&#45;&gt;mnt_comp4 -->
<g id="edge37" class="edge">
<title>fail_comp3&#45;&gt;mnt_comp4</title>
<path fill="none" stroke="black" stroke-width="1.2" d="M437.15,-256.29C509.31,-253.57 650.6,-248.23 730.43,-245.21"/>
<polygon fill="black" stroke="black" stroke-width="1.2" points="730.94,-248.7 740.8,-244.82 730.67,-241.7 730.94,-248.7"/>
</g>
</g>
</svg>
