<?xml version="1.0" encoding="UTF-8" standalone="no"?>
<!DOCTYPE svg PUBLIC "-//W3C//DTD SVG 1.1//EN"
 "http://www.w3.org/Graphics/SVG/1.1/DTD/svg11.dtd">
<!-- Generated by graphviz version 2.50.0 (0)
 -->
<!-- Title: G Pages: 1 -->
<svg width="454pt" height="93pt"
 viewBox="0.00 0.00 454.00 93.00" xmlns="http://www.w3.org/2000/svg" xmlns:xlink="http://www.w3.org/1999/xlink">
<g id="graph0" class="graph" transform="scale(1 1) rotate(0) translate(4 89)">
<title>G</title>
<polygon fill="white" stroke="transparent" points="-4,4 -4,-89 450,-89 450,4 -4,4"/>
<text text-anchor="middle" x="223" y="-68.2" font-family="Times,serif" font-size="16.00">model=model3/nbcb_w_telemetry.json [machine 84]</text>
<!-- volt -->
<g id="node1" class="node">
<title>volt</title>
<path fill="white" stroke="black" d="M78,-36C78,-36 48,-36 48,-36 42,-36 36,-30 36,-24 36,-24 36,-12 36,-12 36,-6 42,0 48,0 48,0 78,0 78,0 84,0 90,-6 90,-12 90,-12 90,-24 90,-24 90,-30 84,-36 78,-36"/>
<text text-anchor="middle" x="63" y="-14.3" font-family="Helvetica,sans-Serif" font-size="14.00">volt</text>
</g>
<!-- pressure -->
<g id="node3" class="node">
<title>pressure</title>
<path fill="white" stroke="black" d="M191,-59C191,-59 138,-59 138,-59 132,-59 126,-53 126,-47 126,-47 126,-35 126,-35 126,-29 132,-23 138,-23 138,-23 191,-23 191,-23 197,-23 203,-29 203,-35 203,-35 203,-47 203,-47 203,-53 197,-59 191,-59"/>
<text text-anchor="middle" x="164.5" y="-37.3" font-family="Helvetica,sans-Serif" font-size="14.00">pressure</text>
</g>
<!-- volt&#45;&gt;pressure -->
<g id="edge2" class="edge">
<title>volt&#45;&gt;pressure</title>
<path fill="none" stroke="black" stroke-width="1.2" d="M90.14,-24.04C98.09,-25.88 107.09,-27.96 115.99,-30.02"/>
<polygon fill="black" stroke="black" stroke-width="1.2" points="115.4,-33.47 125.93,-32.32 116.98,-26.65 115.4,-33.47"/>
</g>
<!-- rotate -->
<g id="node2" class="node">
<title>rotate</title>
<path fill="white" stroke="black" d="M398,-36C398,-36 365,-36 365,-36 359,-36 353,-30 353,-24 353,-24 353,-12 353,-12 353,-6 359,0 365,0 365,0 398,0 398,0 404,0 410,-6 410,-12 410,-12 410,-24 410,-24 410,-30 404,-36 398,-36"/>
<text text-anchor="middle" x="381.5" y="-14.3" font-family="Helvetica,sans-Serif" font-size="14.00">rotate</text>
</g>
<!-- rotate&#45;&gt;volt -->
<g id="edge1" class="edge">
<title>rotate&#45;&gt;volt</title>
<path fill="none" stroke="black" stroke-width="1.2" d="M352.7,-15.87C341.6,-15.12 328.7,-14.37 317,-14 232.15,-11.33 210.84,-11.27 126,-14 117.65,-14.27 108.67,-14.74 100.21,-15.27"/>
<polygon fill="black" stroke="black" stroke-width="1.2" points="99.97,-11.78 90.23,-15.93 100.44,-18.76 99.97,-11.78"/>
</g>
<!-- vibration -->
<g id="node4" class="node">
<title>vibration</title>
<path fill="white" stroke="black" d="M305,-59C305,-59 251,-59 251,-59 245,-59 239,-53 239,-47 239,-47 239,-35 239,-35 239,-29 245,-23 251,-23 251,-23 305,-23 305,-23 311,-23 317,-29 317,-35 317,-35 317,-47 317,-47 317,-53 311,-59 305,-59"/>
<text text-anchor="middle" x="278" y="-37.3" font-family="Helvetica,sans-Serif" font-size="14.00">vibration</text>
</g>
<!-- pressure&#45;&gt;vibration -->
<g id="edge4" class="edge">
<title>pressure&#45;&gt;vibration</title>
<path fill="none" stroke="black" stroke-width="1.2" d="M203.25,-41C211.42,-41 220.18,-41 228.69,-41"/>
<polygon fill="black" stroke="black" stroke-width="1.2" points="228.91,-44.5 238.91,-41 228.91,-37.5 228.91,-44.5"/>
</g>
<!-- vibration&#45;&gt;rotate -->
<g id="edge3" class="edge">
<title>vibration&#45;&gt;rotate</title>
<path fill="none" stroke="black" stroke-width="1.2" d="M317.08,-32.37C325.56,-30.45 334.54,-28.41 343,-26.5"/>
<polygon fill="black" stroke="black" stroke-width="1.2" points="344,-29.86 352.98,-24.24 342.45,-23.03 344,-29.86"/>
</g>
</g>
</svg>
