<?xml version="1.0" encoding="UTF-8" standalone="no"?>
<!DOCTYPE svg PUBLIC "-//W3C//DTD SVG 1.1//EN"
 "http://www.w3.org/Graphics/SVG/1.1/DTD/svg11.dtd">
<!-- Generated by graphviz version 2.50.0 (0)
 -->
<!-- Title: G Pages: 1 -->
<svg width="440pt" height="178pt"
 viewBox="0.00 0.00 440.00 178.00" xmlns="http://www.w3.org/2000/svg" xmlns:xlink="http://www.w3.org/1999/xlink">
<g id="graph0" class="graph" transform="scale(1 1) rotate(0) translate(4 174)">
<title>G</title>
<polygon fill="white" stroke="transparent" points="-4,4 -4,-174 436,-174 436,4 -4,4"/>
<text text-anchor="middle" x="216" y="-153.2" font-family="Times,serif" font-size="16.00">model=model4/nbcb_e_telemetry.json [machine 2]</text>
<!-- volt -->
<g id="node1" class="node">
<title>volt</title>
<path fill="white" stroke="black" d="M288,-36C288,-36 258,-36 258,-36 252,-36 246,-30 246,-24 246,-24 246,-12 246,-12 246,-6 252,0 258,0 258,0 288,0 288,0 294,0 300,-6 300,-12 300,-12 300,-24 300,-24 300,-30 294,-36 288,-36"/>
<text text-anchor="middle" x="273" y="-14.3" font-family="Helvetica,sans-Serif" font-size="14.00">volt</text>
</g>
<!-- rotate -->
<g id="node2" class="node">
<title>rotate</title>
<path fill="white" stroke="black" d="M187.5,-36C187.5,-36 154.5,-36 154.5,-36 148.5,-36 142.5,-30 142.5,-24 142.5,-24 142.5,-12 142.5,-12 142.5,-6 148.5,0 154.5,0 154.5,0 187.5,0 187.5,0 193.5,0 199.5,-6 199.5,-12 199.5,-12 199.5,-24 199.5,-24 199.5,-30 193.5,-36 187.5,-36"/>
<text text-anchor="middle" x="171" y="-14.3" font-family="Helvetica,sans-Serif" font-size="14.00">rotate</text>
</g>
<!-- rotate&#45;&gt;volt -->
<g id="edge1" class="edge">
<title>rotate&#45;&gt;volt</title>
<path fill="none" stroke="black" stroke-width="1.2" d="M199.59,-18C210.77,-18 223.83,-18 235.76,-18"/>
<polygon fill="black" stroke="black" stroke-width="1.2" points="235.88,-21.5 245.88,-18 235.88,-14.5 235.88,-21.5"/>
</g>
<!-- pressure -->
<g id="node3" class="node">
<title>pressure</title>
<path fill="white" stroke="black" d="M197.5,-90C197.5,-90 144.5,-90 144.5,-90 138.5,-90 132.5,-84 132.5,-78 132.5,-78 132.5,-66 132.5,-66 132.5,-60 138.5,-54 144.5,-54 144.5,-54 197.5,-54 197.5,-54 203.5,-54 209.5,-60 209.5,-66 209.5,-66 209.5,-78 209.5,-78 209.5,-84 203.5,-90 197.5,-90"/>
<text text-anchor="middle" x="171" y="-68.3" font-family="Helvetica,sans-Serif" font-size="14.00">pressure</text>
</g>
<!-- vibration -->
<g id="node4" class="node">
<title>vibration</title>
<path fill="white" stroke="black" d="M198,-144C198,-144 144,-144 144,-144 138,-144 132,-138 132,-132 132,-132 132,-120 132,-120 132,-114 138,-108 144,-108 144,-108 198,-108 198,-108 204,-108 210,-114 210,-120 210,-120 210,-132 210,-132 210,-138 204,-144 198,-144"/>
<text text-anchor="middle" x="171" y="-122.3" font-family="Helvetica,sans-Serif" font-size="14.00">vibration</text>
</g>
</g>
</svg>
