<?xml version="1.0" encoding="UTF-8" standalone="no"?>
<!DOCTYPE svg PUBLIC "-//W3C//DTD SVG 1.1//EN"
 "http://www.w3.org/Graphics/SVG/1.1/DTD/svg11.dtd">
<!-- Generated by graphviz version 2.50.0 (0)
 -->
<!-- Title: G Pages: 1 -->
<svg width="1424pt" height="599pt"
 viewBox="0.00 0.00 1424.00 599.46" xmlns="http://www.w3.org/2000/svg" xmlns:xlink="http://www.w3.org/1999/xlink">
<g id="graph0" class="graph" transform="scale(1 1) rotate(0) translate(4 595.46)">
<title>G</title>
<polygon fill="white" stroke="transparent" points="-4,4 -4,-595.46 1420,-595.46 1420,4 -4,4"/>
<text text-anchor="middle" x="708" y="-574.66" font-family="Times,serif" font-size="16.00">model=model3/nbcb_w_mixed.json [machine 55]</text>
<!-- volt -->
<g id="node1" class="node">
<title>volt</title>
<path fill="white" stroke="black" d="M42,-345.46C42,-345.46 12,-345.46 12,-345.46 6,-345.46 0,-339.46 0,-333.46 0,-333.46 0,-321.46 0,-321.46 0,-315.46 6,-309.46 12,-309.46 12,-309.46 42,-309.46 42,-309.46 48,-309.46 54,-315.46 54,-321.46 54,-321.46 54,-333.46 54,-333.46 54,-339.46 48,-345.46 42,-345.46"/>
<text text-anchor="middle" x="27" y="-323.76" font-family="Helvetica,sans-Serif" font-size="14.00">volt</text>
</g>
<!-- vibration -->
<g id="node4" class="node">
<title>vibration</title>
<path fill="white" stroke="black" d="M277,-365.46C277,-365.46 223,-365.46 223,-365.46 217,-365.46 211,-359.46 211,-353.46 211,-353.46 211,-341.46 211,-341.46 211,-335.46 217,-329.46 223,-329.46 223,-329.46 277,-329.46 277,-329.46 283,-329.46 289,-335.46 289,-341.46 289,-341.46 289,-353.46 289,-353.46 289,-359.46 283,-365.46 277,-365.46"/>
<text text-anchor="middle" x="250" y="-343.76" font-family="Helvetica,sans-Serif" font-size="14.00">vibration</text>
</g>
<!-- volt&#45;&gt;vibration -->
<g id="edge2" class="edge">
<title>volt&#45;&gt;vibration</title>
<path fill="none" stroke="black" stroke-width="1.2" d="M64.19,-330.73C101.47,-334.1 159.78,-339.38 200.92,-343.1"/>
<polygon fill="black" stroke="black" stroke-width="1.2" points="64.49,-327.24 54.22,-329.83 63.86,-334.22 64.49,-327.24"/>
<polygon fill="black" stroke="black" stroke-width="1.2" points="200.71,-346.6 210.99,-344.02 201.34,-339.63 200.71,-346.6"/>
</g>
<!-- err_error1 -->
<g id="node5" class="node">
<title>err_error1</title>
<path fill="white" stroke="black" d="M163,-299.46C163,-299.46 102,-299.46 102,-299.46 96,-299.46 90,-293.46 90,-287.46 90,-287.46 90,-275.46 90,-275.46 90,-269.46 96,-263.46 102,-263.46 102,-263.46 163,-263.46 163,-263.46 169,-263.46 175,-269.46 175,-275.46 175,-275.46 175,-287.46 175,-287.46 175,-293.46 169,-299.46 163,-299.46"/>
<text text-anchor="middle" x="132.5" y="-277.76" font-family="Helvetica,sans-Serif" font-size="14.00">err_error1</text>
</g>
<!-- volt&#45;&gt;err_error1 -->
<g id="edge3" class="edge">
<title>volt&#45;&gt;err_error1</title>
<path fill="none" stroke="black" stroke-width="1.2" d="M63.39,-311.73C69.19,-309.15 75.31,-306.43 81.39,-303.73"/>
<polygon fill="black" stroke="black" stroke-width="1.2" points="61.83,-308.59 54.12,-315.85 64.68,-314.98 61.83,-308.59"/>
<polygon fill="black" stroke="black" stroke-width="1.2" points="83.17,-306.77 90.88,-299.51 80.32,-300.37 83.17,-306.77"/>
</g>
<!-- err_error4 -->
<g id="node8" class="node">
<title>err_error4</title>
<path fill="white" stroke="black" d="M398,-483.46C398,-483.46 337,-483.46 337,-483.46 331,-483.46 325,-477.46 325,-471.46 325,-471.46 325,-459.46 325,-459.46 325,-453.46 331,-447.46 337,-447.46 337,-447.46 398,-447.46 398,-447.46 404,-447.46 410,-453.46 410,-459.46 410,-459.46 410,-471.46 410,-471.46 410,-477.46 404,-483.46 398,-483.46"/>
<text text-anchor="middle" x="367.5" y="-461.76" font-family="Helvetica,sans-Serif" font-size="14.00">err_error4</text>
</g>
<!-- volt&#45;&gt;err_error4 -->
<g id="edge4" class="edge">
<title>volt&#45;&gt;err_error4</title>
<path fill="none" stroke="black" stroke-width="1.2" d="M36.32,-355.23C45.31,-380.09 62.23,-415.32 90,-433.46 157.76,-477.69 255.17,-477.75 314.46,-472.5"/>
<polygon fill="black" stroke="black" stroke-width="1.2" points="39.58,-353.95 33.04,-345.62 32.95,-356.21 39.58,-353.95"/>
<polygon fill="black" stroke="black" stroke-width="1.2" points="315.09,-475.95 324.71,-471.5 314.42,-468.98 315.09,-475.95"/>
</g>
<!-- fail_comp1 -->
<g id="node14" class="node">
<title>fail_comp1</title>
<path fill="white" stroke="black" d="M1267,-381.46C1267,-381.46 1199,-381.46 1199,-381.46 1193,-381.46 1187,-375.46 1187,-369.46 1187,-369.46 1187,-357.46 1187,-357.46 1187,-351.46 1193,-345.46 1199,-345.46 1199,-345.46 1267,-345.46 1267,-345.46 1273,-345.46 1279,-351.46 1279,-357.46 1279,-357.46 1279,-369.46 1279,-369.46 1279,-375.46 1273,-381.46 1267,-381.46"/>
<text text-anchor="middle" x="1233" y="-359.76" font-family="Helvetica,sans-Serif" font-size="14.00">fail_comp1</text>
</g>
<!-- volt&#45;&gt;fail_comp1 -->
<g id="edge8" class="edge">
<title>volt&#45;&gt;fail_comp1</title>
<path fill="none" stroke="black" stroke-width="1.2" d="M29.41,-345.6C33.08,-380.86 46,-459.14 90,-504.46 142.73,-558.76 173.31,-565.46 249,-565.46 249,-565.46 249,-565.46 978.5,-565.46 1089.64,-565.46 1180.18,-445.22 1215.75,-390.28"/>
<polygon fill="black" stroke="black" stroke-width="1.2" points="1218.77,-392.06 1221.17,-381.74 1212.86,-388.3 1218.77,-392.06"/>
</g>
<!-- fail_comp4 -->
<g id="node16" class="node">
<title>fail_comp4</title>
<path fill="white" stroke="black" d="M1136,-187.46C1136,-187.46 1068,-187.46 1068,-187.46 1062,-187.46 1056,-181.46 1056,-175.46 1056,-175.46 1056,-163.46 1056,-163.46 1056,-157.46 1062,-151.46 1068,-151.46 1068,-151.46 1136,-151.46 1136,-151.46 1142,-151.46 1148,-157.46 1148,-163.46 1148,-163.46 1148,-175.46 1148,-175.46 1148,-181.46 1142,-187.46 1136,-187.46"/>
<text text-anchor="middle" x="1102" y="-165.76" font-family="Helvetica,sans-Serif" font-size="14.00">fail_comp4</text>
</g>
<!-- volt&#45;&gt;fail_comp4 -->
<g id="edge9" class="edge">
<title>volt&#45;&gt;fail_comp4</title>
<path fill="none" stroke="black" stroke-width="1.2" d="M34.02,-309.07C54.22,-251.34 125.32,-77.46 249,-77.46 249,-77.46 249,-77.46 851,-77.46 930.51,-77.46 1015.98,-118.95 1063.54,-146.2"/>
<polygon fill="black" stroke="black" stroke-width="1.2" points="1061.85,-149.27 1072.25,-151.28 1065.38,-143.22 1061.85,-149.27"/>
</g>
<!-- rotate -->
<g id="node2" class="node">
<title>rotate</title>
<path fill="white" stroke="black" d="M491,-407.46C491,-407.46 458,-407.46 458,-407.46 452,-407.46 446,-401.46 446,-395.46 446,-395.46 446,-383.46 446,-383.46 446,-377.46 452,-371.46 458,-371.46 458,-371.46 491,-371.46 491,-371.46 497,-371.46 503,-377.46 503,-383.46 503,-383.46 503,-395.46 503,-395.46 503,-401.46 497,-407.46 491,-407.46"/>
<text text-anchor="middle" x="474.5" y="-385.76" font-family="Helvetica,sans-Serif" font-size="14.00">rotate</text>
</g>
<!-- rotate&#45;&gt;volt -->
<g id="edge1" class="edge">
<title>rotate&#45;&gt;volt</title>
<path fill="none" stroke="black" stroke-width="1.2" d="M445.81,-398.26C380.29,-417.44 212.11,-456.95 90,-400.46 69.5,-390.97 53.3,-371 42.61,-354.34"/>
<polygon fill="black" stroke="black" stroke-width="1.2" points="45.43,-352.24 37.24,-345.51 39.44,-355.87 45.43,-352.24"/>
</g>
<!-- rotate&#45;&gt;vibration -->
<g id="edge11" class="edge">
<title>rotate&#45;&gt;vibration</title>
<path fill="none" stroke="black" stroke-width="1.2" d="M445.92,-384.25C409.34,-377.35 344.18,-365.04 299.34,-356.58"/>
<polygon fill="black" stroke="black" stroke-width="1.2" points="299.72,-353.09 289.25,-354.68 298.43,-359.97 299.72,-353.09"/>
</g>
<!-- err_error2 -->
<g id="node6" class="node">
<title>err_error2</title>
<path fill="white" stroke="black" d="M615.5,-255.46C615.5,-255.46 554.5,-255.46 554.5,-255.46 548.5,-255.46 542.5,-249.46 542.5,-243.46 542.5,-243.46 542.5,-231.46 542.5,-231.46 542.5,-225.46 548.5,-219.46 554.5,-219.46 554.5,-219.46 615.5,-219.46 615.5,-219.46 621.5,-219.46 627.5,-225.46 627.5,-231.46 627.5,-231.46 627.5,-243.46 627.5,-243.46 627.5,-249.46 621.5,-255.46 615.5,-255.46"/>
<text text-anchor="middle" x="585" y="-233.76" font-family="Helvetica,sans-Serif" font-size="14.00">err_error2</text>
</g>
<!-- rotate&#45;&gt;err_error2 -->
<g id="edge13" class="edge">
<title>rotate&#45;&gt;err_error2</title>
<path fill="none" stroke="black" stroke-width="1.2" d="M488.37,-371.42C507.38,-344.8 543.07,-294.8 565.06,-263.99"/>
<polygon fill="black" stroke="black" stroke-width="1.2" points="568.18,-265.64 571.14,-255.47 562.49,-261.57 568.18,-265.64"/>
</g>
<!-- fail_comp2 -->
<g id="node15" class="node">
<title>fail_comp2</title>
<path fill="white" stroke="black" d="M619,-347.46C619,-347.46 551,-347.46 551,-347.46 545,-347.46 539,-341.46 539,-335.46 539,-335.46 539,-323.46 539,-323.46 539,-317.46 545,-311.46 551,-311.46 551,-311.46 619,-311.46 619,-311.46 625,-311.46 631,-317.46 631,-323.46 631,-323.46 631,-335.46 631,-335.46 631,-341.46 625,-347.46 619,-347.46"/>
<text text-anchor="middle" x="585" y="-325.76" font-family="Helvetica,sans-Serif" font-size="14.00">fail_comp2</text>
</g>
<!-- rotate&#45;&gt;fail_comp2 -->
<g id="edge17" class="edge">
<title>rotate&#45;&gt;fail_comp2</title>
<path fill="none" stroke="black" stroke-width="1.2" d="M503.16,-374.16C515.1,-367.56 529.32,-359.7 542.48,-352.42"/>
<polygon fill="black" stroke="black" stroke-width="1.2" points="544.32,-355.4 551.38,-347.5 540.93,-349.27 544.32,-355.4"/>
</g>
<!-- pressure -->
<g id="node3" class="node">
<title>pressure</title>
<path fill="white" stroke="black" d="M1128.5,-423.46C1128.5,-423.46 1075.5,-423.46 1075.5,-423.46 1069.5,-423.46 1063.5,-417.46 1063.5,-411.46 1063.5,-411.46 1063.5,-399.46 1063.5,-399.46 1063.5,-393.46 1069.5,-387.46 1075.5,-387.46 1075.5,-387.46 1128.5,-387.46 1128.5,-387.46 1134.5,-387.46 1140.5,-393.46 1140.5,-399.46 1140.5,-399.46 1140.5,-411.46 1140.5,-411.46 1140.5,-417.46 1134.5,-423.46 1128.5,-423.46"/>
<text text-anchor="middle" x="1102" y="-401.76" font-family="Helvetica,sans-Serif" font-size="14.00">pressure</text>
</g>
<!-- pressure&#45;&gt;rotate -->
<g id="edge10" class="edge">
<title>pressure&#45;&gt;rotate</title>
<path fill="none" stroke="black" stroke-width="1.2" d="M1063.28,-416.83C1014.68,-430.45 927.35,-451.46 851,-451.46 715,-451.46 715,-451.46 715,-451.46 641.42,-451.46 559.06,-423.69 512.63,-405.32"/>
<polygon fill="black" stroke="black" stroke-width="1.2" points="513.87,-402.05 503.28,-401.56 511.25,-408.54 513.87,-402.05"/>
</g>
<!-- pressure&#45;&gt;fail_comp1 -->
<g id="edge21" class="edge">
<title>pressure&#45;&gt;fail_comp1</title>
<path fill="none" stroke="black" stroke-width="1.2" d="M1140.66,-393.19C1152.04,-389.49 1164.78,-385.34 1177.05,-381.34"/>
<polygon fill="black" stroke="black" stroke-width="1.2" points="1178.33,-384.61 1186.76,-378.19 1176.17,-377.95 1178.33,-384.61"/>
</g>
<!-- vibration&#45;&gt;err_error4 -->
<g id="edge23" class="edge">
<title>vibration&#45;&gt;err_error4</title>
<path fill="none" stroke="black" stroke-width="1.2" d="M268.79,-365.63C288.35,-385.61 319.9,-417.85 341.84,-440.26"/>
<polygon fill="black" stroke="black" stroke-width="1.2" points="339.38,-442.75 348.88,-447.45 344.38,-437.86 339.38,-442.75"/>
</g>
<!-- vibration&#45;&gt;fail_comp2 -->
<g id="edge27" class="edge">
<title>vibration&#45;&gt;fail_comp2</title>
<path fill="none" stroke="black" stroke-width="1.2" d="M299.47,-344.84C360.34,-341.55 464.55,-335.91 528.54,-332.45"/>
<polygon fill="black" stroke="black" stroke-width="1.2" points="299,-341.36 289.2,-345.39 299.37,-348.35 299,-341.36"/>
<polygon fill="black" stroke="black" stroke-width="1.2" points="529.04,-335.93 538.84,-331.9 528.67,-328.94 529.04,-335.93"/>
</g>
<!-- vibration&#45;&gt;fail_comp4 -->
<g id="edge28" class="edge">
<title>vibration&#45;&gt;fail_comp4</title>
<path fill="none" stroke="black" stroke-width="1.2" d="M279.4,-329.23C329.49,-298.2 437.8,-236 539,-210.46 720.12,-164.74 943.71,-164.41 1045.65,-167.2"/>
<polygon fill="black" stroke="black" stroke-width="1.2" points="1045.62,-170.7 1055.72,-167.49 1045.83,-163.7 1045.62,-170.7"/>
</g>
<!-- err_error1&#45;&gt;rotate -->
<g id="edge12" class="edge">
<title>err_error1&#45;&gt;rotate</title>
<path fill="none" stroke="black" stroke-width="1.2" d="M175.22,-289.82C230.2,-301.54 329.38,-325.09 410,-357.46 418.83,-361 428.11,-365.32 436.75,-369.61"/>
<polygon fill="black" stroke="black" stroke-width="1.2" points="435.34,-372.82 445.84,-374.23 438.51,-366.58 435.34,-372.82"/>
</g>
<!-- err_error1&#45;&gt;vibration -->
<g id="edge22" class="edge">
<title>err_error1&#45;&gt;vibration</title>
<path fill="none" stroke="black" stroke-width="1.2" d="M165.06,-299.49C178.43,-307.13 194.17,-316.13 208.39,-324.25"/>
<polygon fill="black" stroke="black" stroke-width="1.2" points="207.06,-327.52 217.48,-329.44 210.53,-321.44 207.06,-327.52"/>
</g>
<!-- err_error1&#45;&gt;err_error2 -->
<g id="edge29" class="edge">
<title>err_error1&#45;&gt;err_error2</title>
<path fill="none" stroke="black" stroke-width="1.2" d="M175.07,-277.4C257.61,-269.33 441.93,-251.33 532.19,-242.52"/>
<polygon fill="black" stroke="black" stroke-width="1.2" points="532.59,-245.99 542.2,-241.54 531.91,-239.03 532.59,-245.99"/>
</g>
<!-- err_error3 -->
<g id="node7" class="node">
<title>err_error3</title>
<path fill="white" stroke="black" d="M1008,-291.46C1008,-291.46 947,-291.46 947,-291.46 941,-291.46 935,-285.46 935,-279.46 935,-279.46 935,-267.46 935,-267.46 935,-261.46 941,-255.46 947,-255.46 947,-255.46 1008,-255.46 1008,-255.46 1014,-255.46 1020,-261.46 1020,-267.46 1020,-267.46 1020,-279.46 1020,-279.46 1020,-285.46 1014,-291.46 1008,-291.46"/>
<text text-anchor="middle" x="977.5" y="-269.76" font-family="Helvetica,sans-Serif" font-size="14.00">err_error3</text>
</g>
<!-- err_error1&#45;&gt;err_error3 -->
<g id="edge30" class="edge">
<title>err_error1&#45;&gt;err_error3</title>
<path fill="none" stroke="black" stroke-width="1.2" d="M151.27,-263.39C187.97,-228.1 276.27,-153.46 366.5,-153.46 366.5,-153.46 366.5,-153.46 586,-153.46 717.17,-153.46 862.63,-216.09 933.27,-250.85"/>
<polygon fill="black" stroke="black" stroke-width="1.2" points="931.81,-254.04 942.32,-255.36 934.93,-247.77 931.81,-254.04"/>
</g>
<!-- err_error2&#45;&gt;err_error3 -->
<g id="edge31" class="edge">
<title>err_error2&#45;&gt;err_error3</title>
<path fill="none" stroke="black" stroke-width="1.2" d="M627.79,-241.31C699.63,-247.93 846.33,-261.46 924.6,-268.67"/>
<polygon fill="black" stroke="black" stroke-width="1.2" points="924.44,-272.17 934.72,-269.6 925.08,-265.2 924.44,-272.17"/>
</g>
<!-- err_error3&#45;&gt;rotate -->
<g id="edge14" class="edge">
<title>err_error3&#45;&gt;rotate</title>
<path fill="none" stroke="black" stroke-width="1.2" d="M936.44,-291.59C894.54,-309.8 826.45,-337.27 765,-352.46 676.28,-374.38 568.86,-383.78 513.14,-387.42"/>
<polygon fill="black" stroke="black" stroke-width="1.2" points="512.79,-383.93 503.03,-388.05 513.23,-390.92 512.79,-383.93"/>
</g>
<!-- err_error3&#45;&gt;pressure -->
<g id="edge18" class="edge">
<title>err_error3&#45;&gt;pressure</title>
<path fill="none" stroke="black" stroke-width="1.2" d="M995.28,-291.53C1016.42,-314.31 1052.89,-353.62 1076.98,-379.58"/>
<polygon fill="black" stroke="black" stroke-width="1.2" points="1074.67,-382.22 1084.03,-387.17 1079.8,-377.46 1074.67,-382.22"/>
</g>
<!-- err_error3&#45;&gt;fail_comp4 -->
<g id="edge33" class="edge">
<title>err_error3&#45;&gt;fail_comp4</title>
<path fill="none" stroke="black" stroke-width="1.2" d="M999.84,-255.34C1019.74,-238.44 1049.6,-213.09 1071.73,-194.31"/>
<polygon fill="black" stroke="black" stroke-width="1.2" points="1074.14,-196.85 1079.5,-187.71 1069.61,-191.52 1074.14,-196.85"/>
</g>
<!-- err_error4&#45;&gt;rotate -->
<g id="edge15" class="edge">
<title>err_error4&#45;&gt;rotate</title>
<path fill="none" stroke="black" stroke-width="1.2" d="M393.38,-447.44C407.4,-437.3 425.1,-424.49 440.29,-413.49"/>
<polygon fill="black" stroke="black" stroke-width="1.2" points="442.38,-416.3 448.43,-407.6 438.28,-410.63 442.38,-416.3"/>
</g>
<!-- err_error4&#45;&gt;pressure -->
<g id="edge19" class="edge">
<title>err_error4&#45;&gt;pressure</title>
<path fill="none" stroke="black" stroke-width="1.2" d="M410.06,-472.85C453.35,-479.9 523.2,-489.46 584,-489.46 584,-489.46 584,-489.46 851,-489.46 928.19,-489.46 947.9,-477.01 1020,-449.46 1034.7,-443.84 1050.05,-436.05 1063.39,-428.58"/>
<polygon fill="black" stroke="black" stroke-width="1.2" points="1065.33,-431.5 1072.27,-423.49 1061.85,-425.43 1065.33,-431.5"/>
</g>
<!-- err_error5 -->
<g id="node9" class="node">
<title>err_error5</title>
<path fill="white" stroke="black" d="M163,-391.46C163,-391.46 102,-391.46 102,-391.46 96,-391.46 90,-385.46 90,-379.46 90,-379.46 90,-367.46 90,-367.46 90,-361.46 96,-355.46 102,-355.46 102,-355.46 163,-355.46 163,-355.46 169,-355.46 175,-361.46 175,-367.46 175,-367.46 175,-379.46 175,-379.46 175,-385.46 169,-391.46 163,-391.46"/>
<text text-anchor="middle" x="132.5" y="-369.76" font-family="Helvetica,sans-Serif" font-size="14.00">err_error5</text>
</g>
<!-- err_error5&#45;&gt;vibration -->
<g id="edge24" class="edge">
<title>err_error5&#45;&gt;vibration</title>
<path fill="none" stroke="black" stroke-width="1.2" d="M175.2,-364.07C183.56,-362.19 192.41,-360.2 200.96,-358.27"/>
<polygon fill="black" stroke="black" stroke-width="1.2" points="201.83,-361.66 210.82,-356.05 200.3,-354.83 201.83,-361.66"/>
</g>
<!-- mnt_comp1 -->
<g id="node10" class="node">
<title>mnt_comp1</title>
<path fill="white" stroke="black" d="M1404,-179.46C1404,-179.46 1330,-179.46 1330,-179.46 1324,-179.46 1318,-173.46 1318,-167.46 1318,-167.46 1318,-155.46 1318,-155.46 1318,-149.46 1324,-143.46 1330,-143.46 1330,-143.46 1404,-143.46 1404,-143.46 1410,-143.46 1416,-149.46 1416,-155.46 1416,-155.46 1416,-167.46 1416,-167.46 1416,-173.46 1410,-179.46 1404,-179.46"/>
<text text-anchor="middle" x="1367" y="-157.76" font-family="Helvetica,sans-Serif" font-size="14.00">mnt_comp1</text>
</g>
<!-- mnt_comp1&#45;&gt;volt -->
<g id="edge5" class="edge">
<title>mnt_comp1&#45;&gt;volt</title>
<path fill="none" stroke="black" stroke-width="1.2" d="M1350.52,-143.41C1312.8,-101.57 1211.23,-1.46 1103,-1.46 249,-1.46 249,-1.46 249,-1.46 176.13,-1.46 140.67,10.91 90,-41.46 54.43,-78.22 36.46,-234.08 30.41,-298.95"/>
<polygon fill="black" stroke="black" stroke-width="1.2" points="26.89,-298.98 29.48,-309.25 33.86,-299.61 26.89,-298.98"/>
</g>
<!-- mnt_comp2 -->
<g id="node11" class="node">
<title>mnt_comp2</title>
<path fill="white" stroke="black" d="M753,-343.46C753,-343.46 679,-343.46 679,-343.46 673,-343.46 667,-337.46 667,-331.46 667,-331.46 667,-319.46 667,-319.46 667,-313.46 673,-307.46 679,-307.46 679,-307.46 753,-307.46 753,-307.46 759,-307.46 765,-313.46 765,-319.46 765,-319.46 765,-331.46 765,-331.46 765,-337.46 759,-343.46 753,-343.46"/>
<text text-anchor="middle" x="716" y="-321.76" font-family="Helvetica,sans-Serif" font-size="14.00">mnt_comp2</text>
</g>
<!-- mnt_comp2&#45;&gt;vibration -->
<g id="edge25" class="edge">
<title>mnt_comp2&#45;&gt;vibration</title>
<path fill="none" stroke="black" stroke-width="1.2" d="M666.6,-309.84C655.05,-306.78 642.69,-304.03 631,-302.46 511.68,-286.42 370.86,-315.64 298.78,-334.08"/>
<polygon fill="black" stroke="black" stroke-width="1.2" points="297.87,-330.7 289.07,-336.6 299.63,-337.47 297.87,-330.7"/>
</g>
<!-- mnt_comp3 -->
<g id="node12" class="node">
<title>mnt_comp3</title>
<path fill="white" stroke="black" d="M887,-423.46C887,-423.46 813,-423.46 813,-423.46 807,-423.46 801,-417.46 801,-411.46 801,-411.46 801,-399.46 801,-399.46 801,-393.46 807,-387.46 813,-387.46 813,-387.46 887,-387.46 887,-387.46 893,-387.46 899,-393.46 899,-399.46 899,-399.46 899,-411.46 899,-411.46 899,-417.46 893,-423.46 887,-423.46"/>
<text text-anchor="middle" x="850" y="-401.76" font-family="Helvetica,sans-Serif" font-size="14.00">mnt_comp3</text>
</g>
<!-- mnt_comp2&#45;&gt;mnt_comp3 -->
<g id="edge35" class="edge">
<title>mnt_comp2&#45;&gt;mnt_comp3</title>
<path fill="none" stroke="black" stroke-width="1.2" d="M746.95,-343.61C765.77,-355.01 790.23,-369.84 810.48,-382.11"/>
<polygon fill="black" stroke="black" stroke-width="1.2" points="808.8,-385.18 819.17,-387.37 812.43,-379.2 808.8,-385.18"/>
</g>
<!-- mnt_comp3&#45;&gt;volt -->
<g id="edge6" class="edge">
<title>mnt_comp3&#45;&gt;volt</title>
<path fill="none" stroke="black" stroke-width="1.2" d="M827.38,-423.46C784.33,-457.39 683.65,-527.46 586,-527.46 249,-527.46 249,-527.46 249,-527.46 172.82,-527.46 145.06,-516.09 90,-463.46 59.13,-433.94 42.32,-386.16 34.26,-355.8"/>
<polygon fill="black" stroke="black" stroke-width="1.2" points="37.59,-354.7 31.76,-345.85 30.8,-356.4 37.59,-354.7"/>
</g>
<!-- mnt_comp3&#45;&gt;rotate -->
<g id="edge16" class="edge">
<title>mnt_comp3&#45;&gt;rotate</title>
<path fill="none" stroke="black" stroke-width="1.2" d="M800.97,-403.4C725.85,-400.18 582.08,-394.02 513.59,-391.09"/>
<polygon fill="black" stroke="black" stroke-width="1.2" points="513.41,-387.58 503.27,-390.65 513.11,-394.57 513.41,-387.58"/>
</g>
<!-- mnt_comp3&#45;&gt;pressure -->
<g id="edge20" class="edge">
<title>mnt_comp3&#45;&gt;pressure</title>
<path fill="none" stroke="black" stroke-width="1.2" d="M899.2,-405.46C943.47,-405.46 1008.72,-405.46 1052.94,-405.46"/>
<polygon fill="black" stroke="black" stroke-width="1.2" points="1053.15,-408.96 1063.15,-405.46 1053.15,-401.96 1053.15,-408.96"/>
</g>
<!-- mnt_comp3&#45;&gt;err_error3 -->
<g id="edge32" class="edge">
<title>mnt_comp3&#45;&gt;err_error3</title>
<path fill="none" stroke="black" stroke-width="1.2" d="M881.31,-387.42C887.45,-383.18 893.65,-378.44 899,-373.46 922.77,-351.32 944.94,-321.39 959.42,-300.06"/>
<polygon fill="black" stroke="black" stroke-width="1.2" points="962.5,-301.75 965.14,-291.49 956.68,-297.86 962.5,-301.75"/>
</g>
<!-- mnt_comp4 -->
<g id="node13" class="node">
<title>mnt_comp4</title>
<path fill="white" stroke="black" d="M1270,-133.46C1270,-133.46 1196,-133.46 1196,-133.46 1190,-133.46 1184,-127.46 1184,-121.46 1184,-121.46 1184,-109.46 1184,-109.46 1184,-103.46 1190,-97.46 1196,-97.46 1196,-97.46 1270,-97.46 1270,-97.46 1276,-97.46 1282,-103.46 1282,-109.46 1282,-109.46 1282,-121.46 1282,-121.46 1282,-127.46 1276,-133.46 1270,-133.46"/>
<text text-anchor="middle" x="1233" y="-111.76" font-family="Helvetica,sans-Serif" font-size="14.00">mnt_comp4</text>
</g>
<!-- mnt_comp4&#45;&gt;volt -->
<g id="edge7" class="edge">
<title>mnt_comp4&#45;&gt;volt</title>
<path fill="none" stroke="black" stroke-width="1.2" d="M1196.07,-97.44C1147.84,-74.97 1058.91,-39.46 978.5,-39.46 249,-39.46 249,-39.46 249,-39.46 173.47,-39.46 140.8,-43.56 90,-99.46 38.42,-156.2 29.11,-251.65 27.84,-299.02"/>
<polygon fill="black" stroke="black" stroke-width="1.2" points="24.34,-299.12 27.67,-309.17 31.34,-299.23 24.34,-299.12"/>
</g>
<!-- mnt_comp4&#45;&gt;vibration -->
<g id="edge26" class="edge">
<title>mnt_comp4&#45;&gt;vibration</title>
<path fill="none" stroke="black" stroke-width="1.2" d="M1183.87,-115.46C1132.88,-115.46 1050.02,-115.46 978.5,-115.46 473.5,-115.46 473.5,-115.46 473.5,-115.46 361.43,-115.46 288.27,-258.22 261.94,-319.77"/>
<polygon fill="black" stroke="black" stroke-width="1.2" points="258.6,-318.67 257.97,-329.25 265.06,-321.37 258.6,-318.67"/>
</g>
<!-- fail_comp1&#45;&gt;mnt_comp1 -->
<g id="edge34" class="edge">
<title>fail_comp1&#45;&gt;mnt_comp1</title>
<path fill="none" stroke="black" stroke-width="1.2" d="M1245.95,-345.17C1269.36,-309.34 1321.37,-229.76 1348.6,-188.08"/>
<polygon fill="black" stroke="black" stroke-width="1.2" points="1351.63,-189.84 1354.18,-179.55 1345.77,-186.01 1351.63,-189.84"/>
</g>
<!-- fail_comp1&#45;&gt;mnt_comp2 -->
<g id="edge36" class="edge">
<title>fail_comp1&#45;&gt;mnt_comp2</title>
<path fill="none" stroke="black" stroke-width="1.2" d="M1186.64,-360.11C1093.15,-353.21 879.12,-337.42 775.43,-329.77"/>
<polygon fill="black" stroke="black" stroke-width="1.2" points="775.68,-326.28 765.45,-329.03 775.17,-333.26 775.68,-326.28"/>
</g>
<!-- fail_comp2&#45;&gt;mnt_comp2 -->
<g id="edge37" class="edge">
<title>fail_comp2&#45;&gt;mnt_comp2</title>
<path fill="none" stroke="black" stroke-width="1.2" d="M631.12,-328.06C639.28,-327.8 647.9,-327.54 656.38,-327.27"/>
<polygon fill="black" stroke="black" stroke-width="1.2" points="656.73,-330.76 666.62,-326.96 656.51,-323.77 656.73,-330.76"/>
</g>
<!-- fail_comp4&#45;&gt;mnt_comp4 -->
<g id="edge38" class="edge">
<title>fail_comp4&#45;&gt;mnt_comp4</title>
<path fill="none" stroke="black" stroke-width="1.2" d="M1146.31,-151.32C1156.84,-146.92 1168.22,-142.15 1179.14,-137.58"/>
<polygon fill="black" stroke="black" stroke-width="1.2" points="1180.71,-140.72 1188.58,-133.63 1178,-134.26 1180.71,-140.72"/>
</g>
</g>
</svg>
