<?xml version="1.0" encoding="UTF-8" standalone="no"?>
<!DOCTYPE svg PUBLIC "-//W3C//DTD SVG 1.1//EN"
 "http://www.w3.org/Graphics/SVG/1.1/DTD/svg11.dtd">
<!-- Generated by graphviz version 2.50.0 (0)
 -->
<!-- Title: G Pages: 1 -->
<svg width="955pt" height="745pt"
 viewBox="0.00 0.00 955.00 745.09" xmlns="http://www.w3.org/2000/svg" xmlns:xlink="http://www.w3.org/1999/xlink">
<g id="graph0" class="graph" transform="scale(1 1) rotate(0) translate(4 741.09)">
<title>G</title>
<polygon fill="white" stroke="transparent" points="-4,4 -4,-741.09 951,-741.09 951,4 -4,4"/>
<text text-anchor="middle" x="473.5" y="-720.29" font-family="Times,serif" font-size="16.00">model=model2/nbcb_w_mixed.json [machine 95]</text>
<!-- volt -->
<g id="node1" class="node">
<title>volt</title>
<path fill="white" stroke="black" d="M42,-406.09C42,-406.09 12,-406.09 12,-406.09 6,-406.09 0,-400.09 0,-394.09 0,-394.09 0,-382.09 0,-382.09 0,-376.09 6,-370.09 12,-370.09 12,-370.09 42,-370.09 42,-370.09 48,-370.09 54,-376.09 54,-382.09 54,-382.09 54,-394.09 54,-394.09 54,-400.09 48,-406.09 42,-406.09"/>
<text text-anchor="middle" x="27" y="-384.39" font-family="Helvetica,sans-Serif" font-size="14.00">volt</text>
</g>
<!-- err_error3 -->
<g id="node7" class="node">
<title>err_error3</title>
<path fill="white" stroke="black" d="M663.5,-67.09C663.5,-67.09 602.5,-67.09 602.5,-67.09 596.5,-67.09 590.5,-61.09 590.5,-55.09 590.5,-55.09 590.5,-43.09 590.5,-43.09 590.5,-37.09 596.5,-31.09 602.5,-31.09 602.5,-31.09 663.5,-31.09 663.5,-31.09 669.5,-31.09 675.5,-37.09 675.5,-43.09 675.5,-43.09 675.5,-55.09 675.5,-55.09 675.5,-61.09 669.5,-67.09 663.5,-67.09"/>
<text text-anchor="middle" x="633" y="-45.39" font-family="Helvetica,sans-Serif" font-size="14.00">err_error3</text>
</g>
<!-- volt&#45;&gt;err_error3 -->
<g id="edge3" class="edge">
<title>volt&#45;&gt;err_error3</title>
<path fill="none" stroke="black" stroke-width="1.2" d="M29.72,-359.6C34.46,-291 50.12,-119.48 90,-81.09 145.79,-27.37 184.55,-53.09 262,-53.09 262,-53.09 262,-53.09 381.5,-53.09 450.27,-53.09 529.64,-51.56 580.29,-50.39"/>
<polygon fill="black" stroke="black" stroke-width="1.2" points="26.22,-359.48 29.05,-369.69 33.2,-359.94 26.22,-359.48"/>
<polygon fill="black" stroke="black" stroke-width="1.2" points="580.42,-53.89 590.34,-50.16 580.26,-46.89 580.42,-53.89"/>
</g>
<!-- mnt_comp3 -->
<g id="node12" class="node">
<title>mnt_comp3</title>
<path fill="white" stroke="black" d="M176,-623.09C176,-623.09 102,-623.09 102,-623.09 96,-623.09 90,-617.09 90,-611.09 90,-611.09 90,-599.09 90,-599.09 90,-593.09 96,-587.09 102,-587.09 102,-587.09 176,-587.09 176,-587.09 182,-587.09 188,-593.09 188,-599.09 188,-599.09 188,-611.09 188,-611.09 188,-617.09 182,-623.09 176,-623.09"/>
<text text-anchor="middle" x="139" y="-601.39" font-family="Helvetica,sans-Serif" font-size="14.00">mnt_comp3</text>
</g>
<!-- volt&#45;&gt;mnt_comp3 -->
<g id="edge4" class="edge">
<title>volt&#45;&gt;mnt_comp3</title>
<path fill="none" stroke="black" stroke-width="1.2" d="M30.12,-406.2C35.05,-441.56 50.07,-520.89 90,-573.09 92.01,-575.71 94.3,-578.19 96.76,-580.52"/>
<polygon fill="black" stroke="black" stroke-width="1.2" points="94.65,-583.32 104.56,-587.05 99.14,-577.95 94.65,-583.32"/>
</g>
<!-- fail_comp1 -->
<g id="node14" class="node">
<title>fail_comp1</title>
<path fill="white" stroke="black" d="M539,-471.09C539,-471.09 471,-471.09 471,-471.09 465,-471.09 459,-465.09 459,-459.09 459,-459.09 459,-447.09 459,-447.09 459,-441.09 465,-435.09 471,-435.09 471,-435.09 539,-435.09 539,-435.09 545,-435.09 551,-441.09 551,-447.09 551,-447.09 551,-459.09 551,-459.09 551,-465.09 545,-471.09 539,-471.09"/>
<text text-anchor="middle" x="505" y="-449.39" font-family="Helvetica,sans-Serif" font-size="14.00">fail_comp1</text>
</g>
<!-- volt&#45;&gt;fail_comp1 -->
<g id="edge6" class="edge">
<title>volt&#45;&gt;fail_comp1</title>
<path fill="none" stroke="black" stroke-width="1.2" d="M54.37,-394C107.65,-405.69 232.08,-431.7 338,-444.09 374.73,-448.38 416.28,-450.63 448.62,-451.81"/>
<polygon fill="black" stroke="black" stroke-width="1.2" points="448.67,-455.31 458.78,-452.15 448.9,-448.32 448.67,-455.31"/>
</g>
<!-- fail_comp2 -->
<g id="node15" class="node">
<title>fail_comp2</title>
<path fill="white" stroke="black" d="M798,-333.09C798,-333.09 730,-333.09 730,-333.09 724,-333.09 718,-327.09 718,-321.09 718,-321.09 718,-309.09 718,-309.09 718,-303.09 724,-297.09 730,-297.09 730,-297.09 798,-297.09 798,-297.09 804,-297.09 810,-303.09 810,-309.09 810,-309.09 810,-321.09 810,-321.09 810,-327.09 804,-333.09 798,-333.09"/>
<text text-anchor="middle" x="764" y="-311.39" font-family="Helvetica,sans-Serif" font-size="14.00">fail_comp2</text>
</g>
<!-- volt&#45;&gt;fail_comp2 -->
<g id="edge7" class="edge">
<title>volt&#45;&gt;fail_comp2</title>
<path fill="none" stroke="black" stroke-width="1.2" d="M32.8,-369.76C50.82,-305.61 120.73,-95.09 262,-95.09 262,-95.09 262,-95.09 506,-95.09 623.63,-95.09 714.51,-229.75 748.5,-288.36"/>
<polygon fill="black" stroke="black" stroke-width="1.2" points="745.47,-290.12 753.46,-297.08 751.55,-286.66 745.47,-290.12"/>
</g>
<!-- rotate -->
<g id="node2" class="node">
<title>rotate</title>
<path fill="white" stroke="black" d="M521.5,-265.09C521.5,-265.09 488.5,-265.09 488.5,-265.09 482.5,-265.09 476.5,-259.09 476.5,-253.09 476.5,-253.09 476.5,-241.09 476.5,-241.09 476.5,-235.09 482.5,-229.09 488.5,-229.09 488.5,-229.09 521.5,-229.09 521.5,-229.09 527.5,-229.09 533.5,-235.09 533.5,-241.09 533.5,-241.09 533.5,-253.09 533.5,-253.09 533.5,-259.09 527.5,-265.09 521.5,-265.09"/>
<text text-anchor="middle" x="505" y="-243.39" font-family="Helvetica,sans-Serif" font-size="14.00">rotate</text>
</g>
<!-- pressure -->
<g id="node3" class="node">
<title>pressure</title>
<path fill="white" stroke="black" d="M659.5,-349.09C659.5,-349.09 606.5,-349.09 606.5,-349.09 600.5,-349.09 594.5,-343.09 594.5,-337.09 594.5,-337.09 594.5,-325.09 594.5,-325.09 594.5,-319.09 600.5,-313.09 606.5,-313.09 606.5,-313.09 659.5,-313.09 659.5,-313.09 665.5,-313.09 671.5,-319.09 671.5,-325.09 671.5,-325.09 671.5,-337.09 671.5,-337.09 671.5,-343.09 665.5,-349.09 659.5,-349.09"/>
<text text-anchor="middle" x="633" y="-327.39" font-family="Helvetica,sans-Serif" font-size="14.00">pressure</text>
</g>
<!-- rotate&#45;&gt;pressure -->
<g id="edge9" class="edge">
<title>rotate&#45;&gt;pressure</title>
<path fill="none" stroke="black" stroke-width="1.2" d="M533.03,-265.11C551.42,-277.37 575.97,-293.73 596.01,-307.09"/>
<polygon fill="black" stroke="black" stroke-width="1.2" points="594.32,-310.17 604.58,-312.81 598.2,-304.35 594.32,-310.17"/>
</g>
<!-- err_error1 -->
<g id="node5" class="node">
<title>err_error1</title>
<path fill="white" stroke="black" d="M928.5,-151.09C928.5,-151.09 867.5,-151.09 867.5,-151.09 861.5,-151.09 855.5,-145.09 855.5,-139.09 855.5,-139.09 855.5,-127.09 855.5,-127.09 855.5,-121.09 861.5,-115.09 867.5,-115.09 867.5,-115.09 928.5,-115.09 928.5,-115.09 934.5,-115.09 940.5,-121.09 940.5,-127.09 940.5,-127.09 940.5,-139.09 940.5,-139.09 940.5,-145.09 934.5,-151.09 928.5,-151.09"/>
<text text-anchor="middle" x="898" y="-129.39" font-family="Helvetica,sans-Serif" font-size="14.00">err_error1</text>
</g>
<!-- rotate&#45;&gt;err_error1 -->
<g id="edge10" class="edge">
<title>rotate&#45;&gt;err_error1</title>
<path fill="none" stroke="black" stroke-width="1.2" d="M543.42,-236.94C601.36,-221.11 716.2,-189.35 813,-160.09 823.55,-156.9 834.81,-153.37 845.54,-149.94"/>
<polygon fill="black" stroke="black" stroke-width="1.2" points="542.34,-233.6 533.61,-239.61 544.18,-240.35 542.34,-233.6"/>
<polygon fill="black" stroke="black" stroke-width="1.2" points="846.77,-153.22 855.22,-146.83 844.63,-146.56 846.77,-153.22"/>
</g>
<!-- err_error2 -->
<g id="node6" class="node">
<title>err_error2</title>
<path fill="white" stroke="black" d="M794.5,-151.09C794.5,-151.09 733.5,-151.09 733.5,-151.09 727.5,-151.09 721.5,-145.09 721.5,-139.09 721.5,-139.09 721.5,-127.09 721.5,-127.09 721.5,-121.09 727.5,-115.09 733.5,-115.09 733.5,-115.09 794.5,-115.09 794.5,-115.09 800.5,-115.09 806.5,-121.09 806.5,-127.09 806.5,-127.09 806.5,-139.09 806.5,-139.09 806.5,-145.09 800.5,-151.09 794.5,-151.09"/>
<text text-anchor="middle" x="764" y="-129.39" font-family="Helvetica,sans-Serif" font-size="14.00">err_error2</text>
</g>
<!-- rotate&#45;&gt;err_error2 -->
<g id="edge11" class="edge">
<title>rotate&#45;&gt;err_error2</title>
<path fill="none" stroke="black" stroke-width="1.2" d="M531.01,-228.88C546.58,-218.09 567.33,-204.7 587,-195.09 627.44,-175.32 675.82,-158.75 711.62,-147.72"/>
<polygon fill="black" stroke="black" stroke-width="1.2" points="712.81,-151.02 721.36,-144.76 710.78,-144.32 712.81,-151.02"/>
</g>
<!-- rotate&#45;&gt;err_error3 -->
<g id="edge12" class="edge">
<title>rotate&#45;&gt;err_error3</title>
<path fill="none" stroke="black" stroke-width="1.2" d="M523.13,-220.17C547.25,-182.27 590.97,-113.56 615.02,-75.77"/>
<polygon fill="black" stroke="black" stroke-width="1.2" points="520.04,-218.5 517.63,-228.81 525.95,-222.26 520.04,-218.5"/>
<polygon fill="black" stroke="black" stroke-width="1.2" points="617.98,-77.63 620.4,-67.32 612.08,-73.87 617.98,-77.63"/>
</g>
<!-- rotate&#45;&gt;fail_comp2 -->
<g id="edge15" class="edge">
<title>rotate&#45;&gt;fail_comp2</title>
<path fill="none" stroke="black" stroke-width="1.2" d="M544.04,-248.61C579.65,-250.9 633.99,-256.66 679,-271.09 694.95,-276.2 711.48,-284.19 725.62,-291.98"/>
<polygon fill="black" stroke="black" stroke-width="1.2" points="543.8,-245.09 533.61,-248 543.39,-252.08 543.8,-245.09"/>
<polygon fill="black" stroke="black" stroke-width="1.2" points="724.11,-295.14 734.54,-297.03 727.56,-289.05 724.11,-295.14"/>
</g>
<!-- fail_comp4 -->
<g id="node17" class="node">
<title>fail_comp4</title>
<path fill="white" stroke="black" d="M667,-555.09C667,-555.09 599,-555.09 599,-555.09 593,-555.09 587,-549.09 587,-543.09 587,-543.09 587,-531.09 587,-531.09 587,-525.09 593,-519.09 599,-519.09 599,-519.09 667,-519.09 667,-519.09 673,-519.09 679,-525.09 679,-531.09 679,-531.09 679,-543.09 679,-543.09 679,-549.09 673,-555.09 667,-555.09"/>
<text text-anchor="middle" x="633" y="-533.39" font-family="Helvetica,sans-Serif" font-size="14.00">fail_comp4</text>
</g>
<!-- rotate&#45;&gt;fail_comp4 -->
<g id="edge17" class="edge">
<title>rotate&#45;&gt;fail_comp4</title>
<path fill="none" stroke="black" stroke-width="1.2" d="M517.96,-274.61C542.04,-330.05 596.13,-454.53 620.14,-509.78"/>
<polygon fill="black" stroke="black" stroke-width="1.2" points="521.08,-273 513.88,-265.23 514.66,-275.79 521.08,-273"/>
<polygon fill="black" stroke="black" stroke-width="1.2" points="616.93,-511.18 624.12,-518.95 623.35,-508.39 616.93,-511.18"/>
</g>
<!-- pressure&#45;&gt;volt -->
<g id="edge1" class="edge">
<title>pressure&#45;&gt;volt</title>
<path fill="none" stroke="black" stroke-width="1.2" d="M594.5,-321.79C545.75,-310.54 457.82,-293.09 381.5,-293.09 262,-293.09 262,-293.09 262,-293.09 185.09,-293.09 157.56,-275.33 90,-312.09 69.68,-323.14 53.47,-343.86 42.73,-360.88"/>
<polygon fill="black" stroke="black" stroke-width="1.2" points="39.48,-359.49 37.33,-369.87 45.48,-363.1 39.48,-359.49"/>
</g>
<!-- pressure&#45;&gt;fail_comp2 -->
<g id="edge20" class="edge">
<title>pressure&#45;&gt;fail_comp2</title>
<path fill="none" stroke="black" stroke-width="1.2" d="M671.66,-326.42C682.93,-325.02 695.53,-323.45 707.69,-321.95"/>
<polygon fill="black" stroke="black" stroke-width="1.2" points="708.27,-325.4 717.76,-320.7 707.4,-318.46 708.27,-325.4"/>
</g>
<!-- fail_comp3 -->
<g id="node16" class="node">
<title>fail_comp3</title>
<path fill="white" stroke="black" d="M798,-387.09C798,-387.09 730,-387.09 730,-387.09 724,-387.09 718,-381.09 718,-375.09 718,-375.09 718,-363.09 718,-363.09 718,-357.09 724,-351.09 730,-351.09 730,-351.09 798,-351.09 798,-351.09 804,-351.09 810,-357.09 810,-363.09 810,-363.09 810,-375.09 810,-375.09 810,-381.09 804,-387.09 798,-387.09"/>
<text text-anchor="middle" x="764" y="-365.39" font-family="Helvetica,sans-Serif" font-size="14.00">fail_comp3</text>
</g>
<!-- pressure&#45;&gt;fail_comp3 -->
<g id="edge21" class="edge">
<title>pressure&#45;&gt;fail_comp3</title>
<path fill="none" stroke="black" stroke-width="1.2" d="M671.66,-342.18C683.04,-345.53 695.78,-349.29 708.05,-352.9"/>
<polygon fill="black" stroke="black" stroke-width="1.2" points="707.18,-356.29 717.76,-355.76 709.16,-349.58 707.18,-356.29"/>
</g>
<!-- vibration -->
<g id="node4" class="node">
<title>vibration</title>
<path fill="white" stroke="black" d="M290,-410.09C290,-410.09 236,-410.09 236,-410.09 230,-410.09 224,-404.09 224,-398.09 224,-398.09 224,-386.09 224,-386.09 224,-380.09 230,-374.09 236,-374.09 236,-374.09 290,-374.09 290,-374.09 296,-374.09 302,-380.09 302,-386.09 302,-386.09 302,-398.09 302,-398.09 302,-404.09 296,-410.09 290,-410.09"/>
<text text-anchor="middle" x="263" y="-388.39" font-family="Helvetica,sans-Serif" font-size="14.00">vibration</text>
</g>
<!-- vibration&#45;&gt;err_error2 -->
<g id="edge22" class="edge">
<title>vibration&#45;&gt;err_error2</title>
<path fill="none" stroke="black" stroke-width="1.2" d="M268.3,-364.01C275.67,-325.76 294.35,-257.74 338,-220.09 445,-127.78 623.44,-124.05 711.14,-128.64"/>
<polygon fill="black" stroke="black" stroke-width="1.2" points="264.84,-363.49 266.52,-373.96 271.73,-364.73 264.84,-363.49"/>
<polygon fill="black" stroke="black" stroke-width="1.2" points="711.18,-132.14 721.37,-129.23 711.59,-125.16 711.18,-132.14"/>
</g>
<!-- err_error5 -->
<g id="node9" class="node">
<title>err_error5</title>
<path fill="white" stroke="black" d="M411,-265.09C411,-265.09 350,-265.09 350,-265.09 344,-265.09 338,-259.09 338,-253.09 338,-253.09 338,-241.09 338,-241.09 338,-235.09 344,-229.09 350,-229.09 350,-229.09 411,-229.09 411,-229.09 417,-229.09 423,-235.09 423,-241.09 423,-241.09 423,-253.09 423,-253.09 423,-259.09 417,-265.09 411,-265.09"/>
<text text-anchor="middle" x="380.5" y="-243.39" font-family="Helvetica,sans-Serif" font-size="14.00">err_error5</text>
</g>
<!-- vibration&#45;&gt;err_error5 -->
<g id="edge24" class="edge">
<title>vibration&#45;&gt;err_error5</title>
<path fill="none" stroke="black" stroke-width="1.2" d="M284.82,-365.95C305.68,-339.76 337.63,-299.64 358.55,-273.39"/>
<polygon fill="black" stroke="black" stroke-width="1.2" points="281.89,-364.01 278.39,-374.02 287.36,-368.37 281.89,-364.01"/>
<polygon fill="black" stroke="black" stroke-width="1.2" points="361.43,-275.39 364.92,-265.39 355.96,-271.03 361.43,-275.39"/>
</g>
<!-- vibration&#45;&gt;fail_comp1 -->
<g id="edge27" class="edge">
<title>vibration&#45;&gt;fail_comp1</title>
<path fill="none" stroke="black" stroke-width="1.2" d="M302.33,-408.65C313.67,-413.12 326.2,-417.67 338,-421.09 374.25,-431.59 415.96,-439.61 448.51,-445"/>
<polygon fill="black" stroke="black" stroke-width="1.2" points="448.3,-448.51 458.73,-446.66 449.42,-441.6 448.3,-448.51"/>
</g>
<!-- vibration&#45;&gt;fail_comp2 -->
<g id="edge28" class="edge">
<title>vibration&#45;&gt;fail_comp2</title>
<path fill="none" stroke="black" stroke-width="1.2" d="M302.23,-390.86C390.99,-387.69 608.78,-378.08 679,-358.09 687.84,-355.57 705.07,-347 721.64,-338.16"/>
<polygon fill="black" stroke="black" stroke-width="1.2" points="723.58,-341.09 730.72,-333.26 720.25,-334.93 723.58,-341.09"/>
</g>
<!-- vibration&#45;&gt;fail_comp4 -->
<g id="edge29" class="edge">
<title>vibration&#45;&gt;fail_comp4</title>
<path fill="none" stroke="black" stroke-width="1.2" d="M285.87,-410.15C300.04,-421.15 319.28,-434.83 338,-444.09 417.2,-483.27 516.49,-510.59 577.04,-525.05"/>
<polygon fill="black" stroke="black" stroke-width="1.2" points="576.25,-528.46 586.78,-527.35 577.85,-521.65 576.25,-528.46"/>
</g>
<!-- err_error1&#45;&gt;volt -->
<g id="edge2" class="edge">
<title>err_error1&#45;&gt;volt</title>
<path fill="none" stroke="black" stroke-width="1.2" d="M876.88,-115.01C834.96,-79.29 733.83,-3.09 634,-3.09 262,-3.09 262,-3.09 262,-3.09 183.62,-3.09 144.15,14.59 90,-42.09 46.41,-87.72 32.78,-285.46 29.16,-359.75"/>
<polygon fill="black" stroke="black" stroke-width="1.2" points="25.66,-359.63 28.69,-369.78 32.65,-359.95 25.66,-359.63"/>
</g>
<!-- err_error1&#45;&gt;err_error3 -->
<g id="edge31" class="edge">
<title>err_error1&#45;&gt;err_error3</title>
<path fill="none" stroke="black" stroke-width="1.2" d="M845.46,-116.5C834.74,-113.05 823.5,-109.45 813,-106.09 769.98,-92.32 721.13,-76.77 685.34,-65.39"/>
<polygon fill="black" stroke="black" stroke-width="1.2" points="844.54,-119.88 855.13,-119.61 846.69,-113.21 844.54,-119.88"/>
<polygon fill="black" stroke="black" stroke-width="1.2" points="686.19,-61.99 675.6,-62.3 684.07,-68.66 686.19,-61.99"/>
</g>
<!-- err_error2&#45;&gt;err_error1 -->
<g id="edge30" class="edge">
<title>err_error2&#45;&gt;err_error1</title>
<path fill="none" stroke="black" stroke-width="1.2" d="M806.77,-133.09C818.8,-133.09 832.09,-133.09 844.68,-133.09"/>
<polygon fill="black" stroke="black" stroke-width="1.2" points="845.05,-136.59 855.05,-133.09 845.05,-129.59 845.05,-136.59"/>
</g>
<!-- err_error3&#45;&gt;err_error2 -->
<g id="edge33" class="edge">
<title>err_error3&#45;&gt;err_error2</title>
<path fill="none" stroke="black" stroke-width="1.2" d="M661.67,-67.11C680.59,-79.42 705.86,-95.88 726.43,-109.27"/>
<polygon fill="black" stroke="black" stroke-width="1.2" points="724.64,-112.28 734.93,-114.81 728.46,-106.42 724.64,-112.28"/>
</g>
<!-- err_error4 -->
<g id="node8" class="node">
<title>err_error4</title>
<path fill="white" stroke="black" d="M169.5,-357.09C169.5,-357.09 108.5,-357.09 108.5,-357.09 102.5,-357.09 96.5,-351.09 96.5,-345.09 96.5,-345.09 96.5,-333.09 96.5,-333.09 96.5,-327.09 102.5,-321.09 108.5,-321.09 108.5,-321.09 169.5,-321.09 169.5,-321.09 175.5,-321.09 181.5,-327.09 181.5,-333.09 181.5,-333.09 181.5,-345.09 181.5,-345.09 181.5,-351.09 175.5,-357.09 169.5,-357.09"/>
<text text-anchor="middle" x="139" y="-335.39" font-family="Helvetica,sans-Serif" font-size="14.00">err_error4</text>
</g>
<!-- err_error4&#45;&gt;rotate -->
<g id="edge13" class="edge">
<title>err_error4&#45;&gt;rotate</title>
<path fill="none" stroke="black" stroke-width="1.2" d="M161.02,-321.05C195.33,-292.94 266.7,-239.86 338,-220.09 381.41,-208.05 432.78,-220.32 466.76,-231.98"/>
<polygon fill="black" stroke="black" stroke-width="1.2" points="465.69,-235.32 476.29,-235.39 468.05,-228.73 465.69,-235.32"/>
</g>
<!-- err_error4&#45;&gt;pressure -->
<g id="edge18" class="edge">
<title>err_error4&#45;&gt;pressure</title>
<path fill="none" stroke="black" stroke-width="1.2" d="M181.52,-338.41C272.39,-336.93 488.38,-333.42 584.48,-331.86"/>
<polygon fill="black" stroke="black" stroke-width="1.2" points="584.56,-335.36 594.5,-331.7 584.44,-328.36 584.56,-335.36"/>
</g>
<!-- err_error4&#45;&gt;vibration -->
<g id="edge23" class="edge">
<title>err_error4&#45;&gt;vibration</title>
<path fill="none" stroke="black" stroke-width="1.2" d="M181.64,-357.18C192.22,-361.77 203.65,-366.74 214.49,-371.45"/>
<polygon fill="black" stroke="black" stroke-width="1.2" points="213.26,-374.73 223.82,-375.5 216.05,-368.31 213.26,-374.73"/>
</g>
<!-- err_error5&#45;&gt;rotate -->
<g id="edge14" class="edge">
<title>err_error5&#45;&gt;rotate</title>
<path fill="none" stroke="black" stroke-width="1.2" d="M423.31,-247.09C437.1,-247.09 452.34,-247.09 465.84,-247.09"/>
<polygon fill="black" stroke="black" stroke-width="1.2" points="466.22,-250.59 476.22,-247.09 466.22,-243.59 466.22,-250.59"/>
</g>
<!-- mnt_comp1 -->
<g id="node10" class="node">
<title>mnt_comp1</title>
<path fill="white" stroke="black" d="M935,-532.09C935,-532.09 861,-532.09 861,-532.09 855,-532.09 849,-526.09 849,-520.09 849,-520.09 849,-508.09 849,-508.09 849,-502.09 855,-496.09 861,-496.09 861,-496.09 935,-496.09 935,-496.09 941,-496.09 947,-502.09 947,-508.09 947,-508.09 947,-520.09 947,-520.09 947,-526.09 941,-532.09 935,-532.09"/>
<text text-anchor="middle" x="898" y="-510.39" font-family="Helvetica,sans-Serif" font-size="14.00">mnt_comp1</text>
</g>
<!-- mnt_comp1&#45;&gt;mnt_comp3 -->
<g id="edge34" class="edge">
<title>mnt_comp1&#45;&gt;mnt_comp3</title>
<path fill="none" stroke="black" stroke-width="1.2" d="M875.02,-532.2C831.75,-565.96 731.25,-635.09 634,-635.09 379.5,-635.09 379.5,-635.09 379.5,-635.09 317.3,-635.09 246.7,-625 198.37,-616.52"/>
<polygon fill="black" stroke="black" stroke-width="1.2" points="198.86,-613.06 188.4,-614.74 197.63,-619.95 198.86,-613.06"/>
</g>
<!-- mnt_comp2 -->
<g id="node11" class="node">
<title>mnt_comp2</title>
<path fill="white" stroke="black" d="M935,-410.09C935,-410.09 861,-410.09 861,-410.09 855,-410.09 849,-404.09 849,-398.09 849,-398.09 849,-386.09 849,-386.09 849,-380.09 855,-374.09 861,-374.09 861,-374.09 935,-374.09 935,-374.09 941,-374.09 947,-380.09 947,-386.09 947,-386.09 947,-398.09 947,-398.09 947,-404.09 941,-410.09 935,-410.09"/>
<text text-anchor="middle" x="898" y="-388.39" font-family="Helvetica,sans-Serif" font-size="14.00">mnt_comp2</text>
</g>
<!-- mnt_comp2&#45;&gt;vibration -->
<g id="edge25" class="edge">
<title>mnt_comp2&#45;&gt;vibration</title>
<path fill="none" stroke="black" stroke-width="1.2" d="M848.6,-394.79C836.94,-395.33 824.53,-395.81 813,-396.09 769.46,-397.12 758.56,-396.26 715,-396.09 547.44,-395.42 505.55,-394.89 338,-393.09 329.69,-393 320.85,-392.89 312.29,-392.78"/>
<polygon fill="black" stroke="black" stroke-width="1.2" points="312.07,-389.27 302.03,-392.64 311.98,-396.27 312.07,-389.27"/>
</g>
<!-- mnt_comp3&#45;&gt;vibration -->
<g id="edge26" class="edge">
<title>mnt_comp3&#45;&gt;vibration</title>
<path fill="none" stroke="black" stroke-width="1.2" d="M150.4,-586.93C171.92,-549.36 221.42,-462.94 246.63,-418.92"/>
<polygon fill="black" stroke="black" stroke-width="1.2" points="249.69,-420.62 251.62,-410.2 243.62,-417.14 249.69,-420.62"/>
</g>
<!-- mnt_comp4 -->
<g id="node13" class="node">
<title>mnt_comp4</title>
<path fill="white" stroke="black" d="M801,-699.09C801,-699.09 727,-699.09 727,-699.09 721,-699.09 715,-693.09 715,-687.09 715,-687.09 715,-675.09 715,-675.09 715,-669.09 721,-663.09 727,-663.09 727,-663.09 801,-663.09 801,-663.09 807,-663.09 813,-669.09 813,-675.09 813,-675.09 813,-687.09 813,-687.09 813,-693.09 807,-699.09 801,-699.09"/>
<text text-anchor="middle" x="764" y="-677.39" font-family="Helvetica,sans-Serif" font-size="14.00">mnt_comp4</text>
</g>
<!-- mnt_comp4&#45;&gt;volt -->
<g id="edge5" class="edge">
<title>mnt_comp4&#45;&gt;volt</title>
<path fill="none" stroke="black" stroke-width="1.2" d="M714.88,-690.09C663.39,-698.92 579.22,-711.09 506,-711.09 262,-711.09 262,-711.09 262,-711.09 177.88,-711.09 143.84,-696.72 90,-632.09 37.21,-568.71 28.56,-466.17 27.66,-416.65"/>
<polygon fill="black" stroke="black" stroke-width="1.2" points="31.15,-416.34 27.57,-406.37 24.15,-416.39 31.15,-416.34"/>
</g>
<!-- mnt_comp4&#45;&gt;mnt_comp1 -->
<g id="edge35" class="edge">
<title>mnt_comp4&#45;&gt;mnt_comp1</title>
<path fill="none" stroke="black" stroke-width="1.2" d="M796.47,-662.93C802.32,-658.8 808.12,-654.12 813,-649.09 844.41,-616.67 869.97,-570.59 884.33,-541.52"/>
<polygon fill="black" stroke="black" stroke-width="1.2" points="887.56,-542.89 888.77,-532.36 881.26,-539.84 887.56,-542.89"/>
</g>
<!-- mnt_comp4&#45;&gt;mnt_comp3 -->
<g id="edge43" class="edge">
<title>mnt_comp4&#45;&gt;mnt_comp3</title>
<path fill="none" stroke="black" stroke-width="1.2" d="M714.7,-678.69C663.06,-676.33 578.76,-673.09 506,-673.09 379.5,-673.09 379.5,-673.09 379.5,-673.09 309.57,-673.09 290.43,-670.94 224,-649.09 208.22,-643.9 191.83,-635.96 177.76,-628.25"/>
<polygon fill="black" stroke="black" stroke-width="1.2" points="179.31,-625.11 168.88,-623.25 175.88,-631.21 179.31,-625.11"/>
</g>
<!-- fail_comp1&#45;&gt;pressure -->
<g id="edge19" class="edge">
<title>fail_comp1&#45;&gt;pressure</title>
<path fill="none" stroke="black" stroke-width="1.2" d="M524.59,-435.09C546.09,-414.27 581.62,-379.87 605.88,-356.38"/>
<polygon fill="black" stroke="black" stroke-width="1.2" points="608.58,-358.63 613.33,-349.16 603.71,-353.6 608.58,-358.63"/>
</g>
<!-- fail_comp1&#45;&gt;mnt_comp1 -->
<g id="edge36" class="edge">
<title>fail_comp1&#45;&gt;mnt_comp1</title>
<path fill="none" stroke="black" stroke-width="1.2" d="M551.38,-461.1C562.99,-463.1 575.45,-465.21 587,-467.09 674.67,-481.31 776.52,-496.49 838.86,-505.64"/>
<polygon fill="black" stroke="black" stroke-width="1.2" points="838.49,-509.12 848.89,-507.11 839.5,-502.2 838.49,-509.12"/>
</g>
<!-- fail_comp1&#45;&gt;mnt_comp2 -->
<g id="edge40" class="edge">
<title>fail_comp1&#45;&gt;mnt_comp2</title>
<path fill="none" stroke="black" stroke-width="1.2" d="M551.25,-454.25C611.81,-454.75 722.14,-451.94 813,-429.09 826.8,-425.61 841.2,-420.06 854.1,-414.3"/>
<polygon fill="black" stroke="black" stroke-width="1.2" points="855.58,-417.47 863.19,-410.1 852.65,-411.12 855.58,-417.47"/>
</g>
<!-- fail_comp2&#45;&gt;err_error1 -->
<g id="edge32" class="edge">
<title>fail_comp2&#45;&gt;err_error1</title>
<path fill="none" stroke="black" stroke-width="1.2" d="M778.14,-296.97C801.56,-264.67 850.62,-197.03 877.82,-159.53"/>
<polygon fill="black" stroke="black" stroke-width="1.2" points="880.88,-161.28 883.91,-151.13 875.21,-157.17 880.88,-161.28"/>
</g>
<!-- fail_comp2&#45;&gt;mnt_comp1 -->
<g id="edge37" class="edge">
<title>fail_comp2&#45;&gt;mnt_comp1</title>
<path fill="none" stroke="black" stroke-width="1.2" d="M802.87,-333.28C806.54,-335.92 810.01,-338.86 813,-342.09 838.69,-369.78 832.48,-385.11 849,-419.09 860.2,-442.12 873.34,-468.05 883.04,-487"/>
<polygon fill="black" stroke="black" stroke-width="1.2" points="879.95,-488.66 887.63,-495.96 886.18,-485.46 879.95,-488.66"/>
</g>
<!-- fail_comp2&#45;&gt;mnt_comp2 -->
<g id="edge41" class="edge">
<title>fail_comp2&#45;&gt;mnt_comp2</title>
<path fill="none" stroke="black" stroke-width="1.2" d="M797.34,-333.13C802.58,-336.1 807.95,-339.17 813,-342.09 827.7,-350.59 843.74,-360.09 857.83,-368.5"/>
<polygon fill="black" stroke="black" stroke-width="1.2" points="856.4,-371.72 866.78,-373.86 859.99,-365.72 856.4,-371.72"/>
</g>
<!-- fail_comp3&#45;&gt;rotate -->
<g id="edge16" class="edge">
<title>fail_comp3&#45;&gt;rotate</title>
<path fill="none" stroke="black" stroke-width="1.2" d="M727.86,-350.96C723.39,-348.19 719,-345.2 715,-342.09 696.66,-327.78 698.64,-316.55 679,-304.09 667.31,-296.67 590.72,-272.75 543.45,-258.36"/>
<polygon fill="black" stroke="black" stroke-width="1.2" points="544.43,-255 533.84,-255.44 542.39,-261.69 544.43,-255"/>
</g>
<!-- fail_comp3&#45;&gt;mnt_comp1 -->
<g id="edge38" class="edge">
<title>fail_comp3&#45;&gt;mnt_comp1</title>
<path fill="none" stroke="black" stroke-width="1.2" d="M781.45,-387.16C804.57,-412.56 846.81,-458.96 873.31,-488.07"/>
<polygon fill="black" stroke="black" stroke-width="1.2" points="871.02,-490.75 880.34,-495.79 876.2,-486.04 871.02,-490.75"/>
</g>
<!-- fail_comp3&#45;&gt;mnt_comp2 -->
<g id="edge42" class="edge">
<title>fail_comp3&#45;&gt;mnt_comp2</title>
<path fill="none" stroke="black" stroke-width="1.2" d="M810.06,-376.94C819.37,-378.56 829.3,-380.29 839,-381.98"/>
<polygon fill="black" stroke="black" stroke-width="1.2" points="838.54,-385.45 848.99,-383.72 839.74,-378.56 838.54,-385.45"/>
</g>
<!-- fail_comp3&#45;&gt;mnt_comp3 -->
<g id="edge44" class="edge">
<title>fail_comp3&#45;&gt;mnt_comp3</title>
<path fill="none" stroke="black" stroke-width="1.2" d="M760.83,-387.25C755.14,-426.27 736.07,-518.29 679,-564.09 617.95,-613.08 584.28,-597.09 506,-597.09 379.5,-597.09 379.5,-597.09 379.5,-597.09 317.55,-597.09 246.64,-599.79 198.15,-602.06"/>
<polygon fill="black" stroke="black" stroke-width="1.2" points="197.97,-598.56 188.15,-602.53 198.31,-605.55 197.97,-598.56"/>
</g>
<!-- fail_comp4&#45;&gt;volt -->
<g id="edge8" class="edge">
<title>fail_comp4&#45;&gt;volt</title>
<path fill="none" stroke="black" stroke-width="1.2" d="M586.85,-543.45C536.77,-549.95 453.53,-559.09 381.5,-559.09 262,-559.09 262,-559.09 262,-559.09 165.37,-559.09 82.03,-462.85 46.42,-414.77"/>
<polygon fill="black" stroke="black" stroke-width="1.2" points="49.04,-412.42 40.34,-406.39 43.38,-416.54 49.04,-412.42"/>
</g>
<!-- fail_comp4&#45;&gt;mnt_comp1 -->
<g id="edge39" class="edge">
<title>fail_comp4&#45;&gt;mnt_comp1</title>
<path fill="none" stroke="black" stroke-width="1.2" d="M679.21,-533.13C723.27,-529.28 790.46,-523.4 838.56,-519.2"/>
<polygon fill="black" stroke="black" stroke-width="1.2" points="839.16,-522.66 848.82,-518.3 838.55,-515.68 839.16,-522.66"/>
</g>
<!-- fail_comp4&#45;&gt;mnt_comp4 -->
<g id="edge45" class="edge">
<title>fail_comp4&#45;&gt;mnt_comp4</title>
<path fill="none" stroke="black" stroke-width="1.2" d="M650.34,-555.32C673.02,-580.64 714.16,-626.57 739.95,-655.36"/>
<polygon fill="black" stroke="black" stroke-width="1.2" points="737.52,-657.88 746.79,-663 742.73,-653.21 737.52,-657.88"/>
</g>
</g>
</svg>
