<?xml version="1.0" encoding="UTF-8" standalone="no"?>
<!DOCTYPE svg PUBLIC "-//W3C//DTD SVG 1.1//EN"
 "http://www.w3.org/Graphics/SVG/1.1/DTD/svg11.dtd">
<!-- Generated by graphviz version 2.50.0 (0)
 -->
<!-- Title: G Pages: 1 -->
<svg width="454pt" height="138pt"
 viewBox="0.00 0.00 454.00 137.98" xmlns="http://www.w3.org/2000/svg" xmlns:xlink="http://www.w3.org/1999/xlink">
<g id="graph0" class="graph" transform="scale(1 1) rotate(0) translate(4 133.98)">
<title>G</title>
<polygon fill="white" stroke="transparent" points="-4,4 -4,-133.98 450,-133.98 450,4 -4,4"/>
<text text-anchor="middle" x="223" y="-113.18" font-family="Times,serif" font-size="16.00">model=model4/nbcb_w_telemetry.json [machine 62]</text>
<!-- volt -->
<g id="node1" class="node">
<title>volt</title>
<path fill="white" stroke="black" d="M124.5,-49.98C124.5,-49.98 94.5,-49.98 94.5,-49.98 88.5,-49.98 82.5,-43.98 82.5,-37.98 82.5,-37.98 82.5,-25.98 82.5,-25.98 82.5,-19.98 88.5,-13.98 94.5,-13.98 94.5,-13.98 124.5,-13.98 124.5,-13.98 130.5,-13.98 136.5,-19.98 136.5,-25.98 136.5,-25.98 136.5,-37.98 136.5,-37.98 136.5,-43.98 130.5,-49.98 124.5,-49.98"/>
<text text-anchor="middle" x="109.5" y="-28.28" font-family="Helvetica,sans-Serif" font-size="14.00">volt</text>
</g>
<!-- rotate -->
<g id="node2" class="node">
<title>rotate</title>
<path fill="white" stroke="black" d="M227.5,-103.98C227.5,-103.98 194.5,-103.98 194.5,-103.98 188.5,-103.98 182.5,-97.98 182.5,-91.98 182.5,-91.98 182.5,-79.98 182.5,-79.98 182.5,-73.98 188.5,-67.98 194.5,-67.98 194.5,-67.98 227.5,-67.98 227.5,-67.98 233.5,-67.98 239.5,-73.98 239.5,-79.98 239.5,-79.98 239.5,-91.98 239.5,-91.98 239.5,-97.98 233.5,-103.98 227.5,-103.98"/>
<text text-anchor="middle" x="211" y="-82.28" font-family="Helvetica,sans-Serif" font-size="14.00">rotate</text>
</g>
<!-- volt&#45;&gt;rotate -->
<g id="edge1" class="edge">
<title>volt&#45;&gt;rotate</title>
<path fill="none" stroke="black" stroke-width="1.2" d="M145.56,-51C154.59,-55.91 164.34,-61.2 173.44,-66.14"/>
<polygon fill="black" stroke="black" stroke-width="1.2" points="147.1,-47.86 136.64,-46.17 143.76,-54.01 147.1,-47.86"/>
<polygon fill="black" stroke="black" stroke-width="1.2" points="171.83,-69.25 182.29,-70.94 175.17,-63.09 171.83,-69.25"/>
</g>
<!-- pressure -->
<g id="node3" class="node">
<title>pressure</title>
<path fill="white" stroke="black" d="M237.5,-49.98C237.5,-49.98 184.5,-49.98 184.5,-49.98 178.5,-49.98 172.5,-43.98 172.5,-37.98 172.5,-37.98 172.5,-25.98 172.5,-25.98 172.5,-19.98 178.5,-13.98 184.5,-13.98 184.5,-13.98 237.5,-13.98 237.5,-13.98 243.5,-13.98 249.5,-19.98 249.5,-25.98 249.5,-25.98 249.5,-37.98 249.5,-37.98 249.5,-43.98 243.5,-49.98 237.5,-49.98"/>
<text text-anchor="middle" x="211" y="-28.28" font-family="Helvetica,sans-Serif" font-size="14.00">pressure</text>
</g>
<!-- volt&#45;&gt;pressure -->
<g id="edge2" class="edge">
<title>volt&#45;&gt;pressure</title>
<path fill="none" stroke="black" stroke-width="1.2" d="M136.64,-31.98C144.51,-31.98 153.39,-31.98 162.2,-31.98"/>
<polygon fill="black" stroke="black" stroke-width="1.2" points="162.43,-35.48 172.43,-31.98 162.43,-28.48 162.43,-35.48"/>
</g>
<!-- vibration -->
<g id="node4" class="node">
<title>vibration</title>
<path fill="white" stroke="black" d="M351.5,-49.98C351.5,-49.98 297.5,-49.98 297.5,-49.98 291.5,-49.98 285.5,-43.98 285.5,-37.98 285.5,-37.98 285.5,-25.98 285.5,-25.98 285.5,-19.98 291.5,-13.98 297.5,-13.98 297.5,-13.98 351.5,-13.98 351.5,-13.98 357.5,-13.98 363.5,-19.98 363.5,-25.98 363.5,-25.98 363.5,-37.98 363.5,-37.98 363.5,-43.98 357.5,-49.98 351.5,-49.98"/>
<text text-anchor="middle" x="324.5" y="-28.28" font-family="Helvetica,sans-Serif" font-size="14.00">vibration</text>
</g>
<!-- volt&#45;&gt;vibration -->
<g id="edge3" class="edge">
<title>volt&#45;&gt;vibration</title>
<path fill="none" stroke="black" stroke-width="1.2" d="M136.56,-17.79C147.35,-12.68 160.2,-7.54 172.5,-4.98 206,2 215.8,0.98 249.5,-4.98 258.21,-6.52 267.24,-9 275.87,-11.86"/>
<polygon fill="black" stroke="black" stroke-width="1.2" points="274.82,-15.19 285.41,-15.2 277.14,-8.59 274.82,-15.19"/>
</g>
<!-- rotate&#45;&gt;vibration -->
<g id="edge4" class="edge">
<title>rotate&#45;&gt;vibration</title>
<path fill="none" stroke="black" stroke-width="1.2" d="M239.56,-72.63C250.87,-67.15 264.29,-60.65 277.04,-54.48"/>
<polygon fill="black" stroke="black" stroke-width="1.2" points="278.69,-57.57 286.16,-50.06 275.64,-51.27 278.69,-57.57"/>
</g>
<!-- pressure&#45;&gt;vibration -->
<g id="edge5" class="edge">
<title>pressure&#45;&gt;vibration</title>
<path fill="none" stroke="black" stroke-width="1.2" d="M259.95,-31.98C265.01,-31.98 270.15,-31.98 275.2,-31.98"/>
<polygon fill="black" stroke="black" stroke-width="1.2" points="259.75,-28.48 249.75,-31.98 259.75,-35.48 259.75,-28.48"/>
<polygon fill="black" stroke="black" stroke-width="1.2" points="275.41,-35.48 285.41,-31.98 275.41,-28.48 275.41,-35.48"/>
</g>
</g>
</svg>
