<?xml version="1.0" encoding="UTF-8" standalone="no"?>
<!DOCTYPE svg PUBLIC "-//W3C//DTD SVG 1.1//EN"
 "http://www.w3.org/Graphics/SVG/1.1/DTD/svg11.dtd">
<!-- Generated by graphviz version 2.50.0 (0)
 -->
<!-- Title: G Pages: 1 -->
<svg width="1410pt" height="848pt"
 viewBox="0.00 0.00 1410.00 848.00" xmlns="http://www.w3.org/2000/svg" xmlns:xlink="http://www.w3.org/1999/xlink">
<g id="graph0" class="graph" transform="scale(1 1) rotate(0) translate(4 844)">
<title>G</title>
<polygon fill="white" stroke="transparent" points="-4,4 -4,-844 1406,-844 1406,4 -4,4"/>
<text text-anchor="middle" x="701" y="-823.2" font-family="Times,serif" font-size="16.00">model=model1/nbcb_w_mixed.json [machine 92]</text>
<!-- volt -->
<g id="node1" class="node">
<title>volt</title>
<path fill="white" stroke="black" d="M163,-642C163,-642 133,-642 133,-642 127,-642 121,-636 121,-630 121,-630 121,-618 121,-618 121,-612 127,-606 133,-606 133,-606 163,-606 163,-606 169,-606 175,-612 175,-618 175,-618 175,-630 175,-630 175,-636 169,-642 163,-642"/>
<text text-anchor="middle" x="148" y="-620.3" font-family="Helvetica,sans-Serif" font-size="14.00">volt</text>
</g>
<!-- rotate -->
<g id="node2" class="node">
<title>rotate</title>
<path fill="white" stroke="black" d="M256,-121C256,-121 223,-121 223,-121 217,-121 211,-115 211,-109 211,-109 211,-97 211,-97 211,-91 217,-85 223,-85 223,-85 256,-85 256,-85 262,-85 268,-91 268,-97 268,-97 268,-109 268,-109 268,-115 262,-121 256,-121"/>
<text text-anchor="middle" x="239.5" y="-99.3" font-family="Helvetica,sans-Serif" font-size="14.00">rotate</text>
</g>
<!-- volt&#45;&gt;rotate -->
<g id="edge1" class="edge">
<title>volt&#45;&gt;rotate</title>
<path fill="none" stroke="black" stroke-width="1.2" d="M150.56,-595.58C155,-523.72 170.16,-329.38 211,-173 214.75,-158.65 220.59,-143.24 225.92,-130.55"/>
<polygon fill="black" stroke="black" stroke-width="1.2" points="147.06,-595.46 149.96,-605.65 154.05,-595.88 147.06,-595.46"/>
<polygon fill="black" stroke="black" stroke-width="1.2" points="229.29,-131.59 230.04,-121.03 222.86,-128.81 229.29,-131.59"/>
</g>
<!-- mnt_comp1 -->
<g id="node10" class="node">
<title>mnt_comp1</title>
<path fill="white" stroke="black" d="M760,-566C760,-566 686,-566 686,-566 680,-566 674,-560 674,-554 674,-554 674,-542 674,-542 674,-536 680,-530 686,-530 686,-530 760,-530 760,-530 766,-530 772,-536 772,-542 772,-542 772,-554 772,-554 772,-560 766,-566 760,-566"/>
<text text-anchor="middle" x="723" y="-544.3" font-family="Helvetica,sans-Serif" font-size="14.00">mnt_comp1</text>
</g>
<!-- volt&#45;&gt;mnt_comp1 -->
<g id="edge6" class="edge">
<title>volt&#45;&gt;mnt_comp1</title>
<path fill="none" stroke="black" stroke-width="1.2" d="M175.22,-624C212.35,-624 282.36,-624 342,-624 342,-624 342,-624 465,-624 541.49,-624 625.73,-592.66 676.22,-570.23"/>
<polygon fill="black" stroke="black" stroke-width="1.2" points="677.88,-573.32 685.55,-566.01 675,-566.94 677.88,-573.32"/>
</g>
<!-- fail_comp1 -->
<g id="node14" class="node">
<title>fail_comp1</title>
<path fill="white" stroke="black" d="M498,-520C498,-520 430,-520 430,-520 424,-520 418,-514 418,-508 418,-508 418,-496 418,-496 418,-490 424,-484 430,-484 430,-484 498,-484 498,-484 504,-484 510,-490 510,-496 510,-496 510,-508 510,-508 510,-514 504,-520 498,-520"/>
<text text-anchor="middle" x="464" y="-498.3" font-family="Helvetica,sans-Serif" font-size="14.00">fail_comp1</text>
</g>
<!-- volt&#45;&gt;fail_comp1 -->
<g id="edge9" class="edge">
<title>volt&#45;&gt;fail_comp1</title>
<path fill="none" stroke="black" stroke-width="1.2" d="M174.11,-598.71C184.74,-589.19 197.72,-578.99 211,-572 274.23,-538.73 354.94,-519.91 407.75,-510.35"/>
<polygon fill="black" stroke="black" stroke-width="1.2" points="171.42,-596.43 166.47,-605.8 176.18,-601.56 171.42,-596.43"/>
<polygon fill="black" stroke="black" stroke-width="1.2" points="408.36,-513.8 417.6,-508.61 407.15,-506.9 408.36,-513.8"/>
</g>
<!-- vibration -->
<g id="node4" class="node">
<title>vibration</title>
<path fill="white" stroke="black" d="M370,-322C370,-322 316,-322 316,-322 310,-322 304,-316 304,-310 304,-310 304,-298 304,-298 304,-292 310,-286 316,-286 316,-286 370,-286 370,-286 376,-286 382,-292 382,-298 382,-298 382,-310 382,-310 382,-316 376,-322 370,-322"/>
<text text-anchor="middle" x="343" y="-300.3" font-family="Helvetica,sans-Serif" font-size="14.00">vibration</text>
</g>
<!-- rotate&#45;&gt;vibration -->
<g id="edge13" class="edge">
<title>rotate&#45;&gt;vibration</title>
<path fill="none" stroke="black" stroke-width="1.2" d="M264.1,-129.27C265.48,-131.17 266.8,-133.09 268,-135 297.2,-181.44 320.45,-241.39 332.65,-275.98"/>
<polygon fill="black" stroke="black" stroke-width="1.2" points="266.71,-126.92 257.77,-121.22 261.2,-131.25 266.71,-126.92"/>
<polygon fill="black" stroke="black" stroke-width="1.2" points="329.49,-277.56 336.07,-285.86 336.1,-275.27 329.49,-277.56"/>
</g>
<!-- err_error2 -->
<g id="node6" class="node">
<title>err_error2</title>
<path fill="white" stroke="black" d="M1131.5,-193C1131.5,-193 1070.5,-193 1070.5,-193 1064.5,-193 1058.5,-187 1058.5,-181 1058.5,-181 1058.5,-169 1058.5,-169 1058.5,-163 1064.5,-157 1070.5,-157 1070.5,-157 1131.5,-157 1131.5,-157 1137.5,-157 1143.5,-163 1143.5,-169 1143.5,-169 1143.5,-181 1143.5,-181 1143.5,-187 1137.5,-193 1131.5,-193"/>
<text text-anchor="middle" x="1101" y="-171.3" font-family="Helvetica,sans-Serif" font-size="14.00">err_error2</text>
</g>
<!-- rotate&#45;&gt;err_error2 -->
<g id="edge15" class="edge">
<title>rotate&#45;&gt;err_error2</title>
<path fill="none" stroke="black" stroke-width="1.2" d="M268.12,-105.31C390.64,-115.58 886.03,-157.08 1048.28,-170.67"/>
<polygon fill="black" stroke="black" stroke-width="1.2" points="1048.22,-174.17 1058.48,-171.52 1048.8,-167.2 1048.22,-174.17"/>
</g>
<!-- err_error3 -->
<g id="node7" class="node">
<title>err_error3</title>
<path fill="white" stroke="black" d="M1262.5,-132C1262.5,-132 1201.5,-132 1201.5,-132 1195.5,-132 1189.5,-126 1189.5,-120 1189.5,-120 1189.5,-108 1189.5,-108 1189.5,-102 1195.5,-96 1201.5,-96 1201.5,-96 1262.5,-96 1262.5,-96 1268.5,-96 1274.5,-102 1274.5,-108 1274.5,-108 1274.5,-120 1274.5,-120 1274.5,-126 1268.5,-132 1262.5,-132"/>
<text text-anchor="middle" x="1232" y="-110.3" font-family="Helvetica,sans-Serif" font-size="14.00">err_error3</text>
</g>
<!-- rotate&#45;&gt;err_error3 -->
<g id="edge16" class="edge">
<title>rotate&#45;&gt;err_error3</title>
<path fill="none" stroke="black" stroke-width="1.2" d="M277.48,-85.17C320.87,-65.93 395.47,-38 463,-38 463,-38 463,-38 593,-38 812.36,-38 1071.19,-82.85 1179.41,-103.64"/>
<polygon fill="black" stroke="black" stroke-width="1.2" points="275.86,-82.06 268.19,-89.37 278.74,-88.44 275.86,-82.06"/>
<polygon fill="black" stroke="black" stroke-width="1.2" points="1178.92,-107.11 1189.4,-105.58 1180.25,-100.24 1178.92,-107.11"/>
</g>
<!-- fail_comp2 -->
<g id="node15" class="node">
<title>fail_comp2</title>
<path fill="white" stroke="black" d="M626,-566C626,-566 558,-566 558,-566 552,-566 546,-560 546,-554 546,-554 546,-542 546,-542 546,-536 552,-530 558,-530 558,-530 626,-530 626,-530 632,-530 638,-536 638,-542 638,-542 638,-554 638,-554 638,-560 632,-566 626,-566"/>
<text text-anchor="middle" x="592" y="-544.3" font-family="Helvetica,sans-Serif" font-size="14.00">fail_comp2</text>
</g>
<!-- rotate&#45;&gt;fail_comp2 -->
<g id="edge18" class="edge">
<title>rotate&#45;&gt;fail_comp2</title>
<path fill="none" stroke="black" stroke-width="1.2" d="M241.35,-121.11C245.64,-189.49 271.12,-433 418,-529 452.41,-551.49 499.12,-555.44 535.33,-554.21"/>
<polygon fill="black" stroke="black" stroke-width="1.2" points="535.9,-557.68 545.72,-553.7 535.56,-550.69 535.9,-557.68"/>
</g>
<!-- pressure -->
<g id="node3" class="node">
<title>pressure</title>
<path fill="white" stroke="black" d="M1007,-566C1007,-566 954,-566 954,-566 948,-566 942,-560 942,-554 942,-554 942,-542 942,-542 942,-536 948,-530 954,-530 954,-530 1007,-530 1007,-530 1013,-530 1019,-536 1019,-542 1019,-542 1019,-554 1019,-554 1019,-560 1013,-566 1007,-566"/>
<text text-anchor="middle" x="980.5" y="-544.3" font-family="Helvetica,sans-Serif" font-size="14.00">pressure</text>
</g>
<!-- pressure&#45;&gt;rotate -->
<g id="edge12" class="edge">
<title>pressure&#45;&gt;rotate</title>
<path fill="none" stroke="black" stroke-width="1.2" d="M957.23,-529.9C881.17,-468.85 623.09,-267.7 382,-150 348.19,-133.49 307.15,-120.58 278,-112.5"/>
<polygon fill="black" stroke="black" stroke-width="1.2" points="278.78,-109.08 268.21,-109.84 276.95,-115.84 278.78,-109.08"/>
</g>
<!-- pressure&#45;&gt;err_error2 -->
<g id="edge19" class="edge">
<title>pressure&#45;&gt;err_error2</title>
<path fill="none" stroke="black" stroke-width="1.2" d="M987.3,-529.76C1006.47,-469.39 1067.96,-275.85 1091.09,-203.04"/>
<polygon fill="black" stroke="black" stroke-width="1.2" points="1094.52,-203.8 1094.22,-193.21 1087.85,-201.68 1094.52,-203.8"/>
</g>
<!-- err_error4 -->
<g id="node8" class="node">
<title>err_error4</title>
<path fill="white" stroke="black" d="M1131.5,-566C1131.5,-566 1070.5,-566 1070.5,-566 1064.5,-566 1058.5,-560 1058.5,-554 1058.5,-554 1058.5,-542 1058.5,-542 1058.5,-536 1064.5,-530 1070.5,-530 1070.5,-530 1131.5,-530 1131.5,-530 1137.5,-530 1143.5,-536 1143.5,-542 1143.5,-542 1143.5,-554 1143.5,-554 1143.5,-560 1137.5,-566 1131.5,-566"/>
<text text-anchor="middle" x="1101" y="-544.3" font-family="Helvetica,sans-Serif" font-size="14.00">err_error4</text>
</g>
<!-- pressure&#45;&gt;err_error4 -->
<g id="edge20" class="edge">
<title>pressure&#45;&gt;err_error4</title>
<path fill="none" stroke="black" stroke-width="1.2" d="M1029.51,-548C1035.65,-548 1041.96,-548 1048.16,-548"/>
<polygon fill="black" stroke="black" stroke-width="1.2" points="1029.32,-544.5 1019.32,-548 1029.32,-551.5 1029.32,-544.5"/>
<polygon fill="black" stroke="black" stroke-width="1.2" points="1048.43,-551.5 1058.43,-548 1048.43,-544.5 1048.43,-551.5"/>
</g>
<!-- pressure&#45;&gt;mnt_comp1 -->
<g id="edge21" class="edge">
<title>pressure&#45;&gt;mnt_comp1</title>
<path fill="none" stroke="black" stroke-width="1.2" d="M941.64,-548C899.55,-548 831.08,-548 782.18,-548"/>
<polygon fill="black" stroke="black" stroke-width="1.2" points="782.06,-544.5 772.06,-548 782.06,-551.5 782.06,-544.5"/>
</g>
<!-- fail_comp3 -->
<g id="node16" class="node">
<title>fail_comp3</title>
<path fill="white" stroke="black" d="M1135,-671C1135,-671 1067,-671 1067,-671 1061,-671 1055,-665 1055,-659 1055,-659 1055,-647 1055,-647 1055,-641 1061,-635 1067,-635 1067,-635 1135,-635 1135,-635 1141,-635 1147,-641 1147,-647 1147,-647 1147,-659 1147,-659 1147,-665 1141,-671 1135,-671"/>
<text text-anchor="middle" x="1101" y="-649.3" font-family="Helvetica,sans-Serif" font-size="14.00">fail_comp3</text>
</g>
<!-- pressure&#45;&gt;fail_comp3 -->
<g id="edge23" class="edge">
<title>pressure&#45;&gt;fail_comp3</title>
<path fill="none" stroke="black" stroke-width="1.2" d="M1001.87,-566.05C1021.2,-583.18 1050.42,-609.07 1071.95,-628.14"/>
<polygon fill="black" stroke="black" stroke-width="1.2" points="1069.69,-630.82 1079.5,-634.83 1074.33,-625.58 1069.69,-630.82"/>
</g>
<!-- vibration&#45;&gt;err_error2 -->
<g id="edge25" class="edge">
<title>vibration&#45;&gt;err_error2</title>
<path fill="none" stroke="black" stroke-width="1.2" d="M382.22,-294.41C430.53,-283.15 516.38,-266 591,-266 591,-266 591,-266 858,-266 934.8,-266 1017.04,-225.35 1063.14,-198.39"/>
<polygon fill="black" stroke="black" stroke-width="1.2" points="1065.06,-201.32 1071.87,-193.2 1061.48,-195.3 1065.06,-201.32"/>
</g>
<!-- vibration&#45;&gt;err_error3 -->
<g id="edge26" class="edge">
<title>vibration&#45;&gt;err_error3</title>
<path fill="none" stroke="black" stroke-width="1.2" d="M376.04,-285.86C388.79,-279.2 403.8,-272.07 418,-267 492.24,-240.52 512.18,-228 591,-228 591,-228 591,-228 724,-228 875.35,-228 907.11,-180.14 1055,-148 1096.66,-138.95 1144.12,-129.85 1179.26,-123.34"/>
<polygon fill="black" stroke="black" stroke-width="1.2" points="1180.08,-126.75 1189.28,-121.5 1178.81,-119.87 1180.08,-126.75"/>
</g>
<!-- vibration&#45;&gt;fail_comp1 -->
<g id="edge32" class="edge">
<title>vibration&#45;&gt;fail_comp1</title>
<path fill="none" stroke="black" stroke-width="1.2" d="M348.65,-322.16C357.66,-354.64 380.02,-423.61 418,-470 420.06,-472.52 422.37,-474.94 424.83,-477.23"/>
<polygon fill="black" stroke="black" stroke-width="1.2" points="422.62,-479.95 432.52,-483.73 427.14,-474.61 422.62,-479.95"/>
</g>
<!-- vibration&#45;&gt;fail_comp2 -->
<g id="edge33" class="edge">
<title>vibration&#45;&gt;fail_comp2</title>
<path fill="none" stroke="black" stroke-width="1.2" d="M350.51,-322.44C360.94,-349.62 383.75,-400.61 418,-432 451.27,-462.5 472.38,-450.06 510,-475 530.56,-488.63 551.17,-507.29 566.46,-522.34"/>
<polygon fill="black" stroke="black" stroke-width="1.2" points="564.4,-525.23 573.94,-529.83 569.35,-520.28 564.4,-525.23"/>
</g>
<!-- err_error1 -->
<g id="node5" class="node">
<title>err_error1</title>
<path fill="white" stroke="black" d="M1390,-132C1390,-132 1329,-132 1329,-132 1323,-132 1317,-126 1317,-120 1317,-120 1317,-108 1317,-108 1317,-102 1323,-96 1329,-96 1329,-96 1390,-96 1390,-96 1396,-96 1402,-102 1402,-108 1402,-108 1402,-120 1402,-120 1402,-126 1396,-132 1390,-132"/>
<text text-anchor="middle" x="1359.5" y="-110.3" font-family="Helvetica,sans-Serif" font-size="14.00">err_error1</text>
</g>
<!-- err_error1&#45;&gt;volt -->
<g id="edge2" class="edge">
<title>err_error1&#45;&gt;volt</title>
<path fill="none" stroke="black" stroke-width="1.2" d="M1358.42,-132.16C1357.7,-222.64 1350.57,-624.2 1281,-723 1229.62,-795.97 1191.25,-814 1102,-814 342,-814 342,-814 342,-814 280.29,-814 256.11,-810.11 211,-768 177.57,-736.8 161.32,-684.53 154.09,-652.28"/>
<polygon fill="black" stroke="black" stroke-width="1.2" points="157.45,-651.25 151.98,-642.18 150.6,-652.68 157.45,-651.25"/>
</g>
<!-- err_error1&#45;&gt;rotate -->
<g id="edge14" class="edge">
<title>err_error1&#45;&gt;rotate</title>
<path fill="none" stroke="black" stroke-width="1.2" d="M1342.43,-95.74C1327.87,-80.3 1305.06,-58.71 1281,-46 1208.37,-7.64 1184.14,0 1102,0 463,0 463,0 463,0 389.56,0 368.17,-9.28 304,-45 288.8,-53.46 274.29,-66.23 262.98,-77.63"/>
<polygon fill="black" stroke="black" stroke-width="1.2" points="260.44,-75.23 256.04,-84.87 265.49,-80.08 260.44,-75.23"/>
</g>
<!-- err_error1&#45;&gt;vibration -->
<g id="edge24" class="edge">
<title>err_error1&#45;&gt;vibration</title>
<path fill="none" stroke="black" stroke-width="1.2" d="M1322.12,-95.99C1273.3,-73.51 1183.28,-38 1102,-38 979.5,-38 979.5,-38 979.5,-38 715.47,-38 642.79,-93.5 418,-232 397.99,-244.33 379.06,-262.92 365.36,-278.12"/>
<polygon fill="black" stroke="black" stroke-width="1.2" points="362.66,-275.89 358.69,-285.71 367.92,-280.51 362.66,-275.89"/>
</g>
<!-- err_error2&#45;&gt;volt -->
<g id="edge3" class="edge">
<title>err_error2&#45;&gt;volt</title>
<path fill="none" stroke="black" stroke-width="1.2" d="M1058.08,-179.18C1009.86,-183.62 928.3,-190 858,-190 722,-190 722,-190 722,-190 704.77,-190 392.56,-192.26 304,-277 208.04,-368.82 167.15,-530.78 154.06,-595.81"/>
<polygon fill="black" stroke="black" stroke-width="1.2" points="150.6,-595.26 152.13,-605.74 157.48,-596.6 150.6,-595.26"/>
</g>
<!-- err_error2&#45;&gt;err_error1 -->
<g id="edge34" class="edge">
<title>err_error2&#45;&gt;err_error1</title>
<path fill="none" stroke="black" stroke-width="1.2" d="M1143.63,-168.88C1180.16,-163.08 1234.55,-153.43 1281,-141 1289.5,-138.73 1298.41,-135.98 1307.04,-133.12"/>
<polygon fill="black" stroke="black" stroke-width="1.2" points="1308.28,-136.39 1316.62,-129.86 1306.02,-129.76 1308.28,-136.39"/>
</g>
<!-- err_error2&#45;&gt;err_error3 -->
<g id="edge36" class="edge">
<title>err_error2&#45;&gt;err_error3</title>
<path fill="none" stroke="black" stroke-width="1.2" d="M1140.35,-156.86C1153.88,-150.47 1169.25,-143.2 1183.44,-136.49"/>
<polygon fill="black" stroke="black" stroke-width="1.2" points="1185.03,-139.61 1192.57,-132.17 1182.03,-133.28 1185.03,-139.61"/>
</g>
<!-- err_error3&#45;&gt;err_error1 -->
<g id="edge35" class="edge">
<title>err_error3&#45;&gt;err_error1</title>
<path fill="none" stroke="black" stroke-width="1.2" d="M1274.79,-114C1285.06,-114 1296.17,-114 1306.84,-114"/>
<polygon fill="black" stroke="black" stroke-width="1.2" points="1306.89,-117.5 1316.89,-114 1306.89,-110.5 1306.89,-117.5"/>
</g>
<!-- err_error4&#45;&gt;volt -->
<g id="edge4" class="edge">
<title>err_error4&#45;&gt;volt</title>
<path fill="none" stroke="black" stroke-width="1.2" d="M1058.44,-565.34C1019.21,-581.66 958.7,-606.71 906,-628 846.62,-651.99 834.19,-665.7 772,-681 694.31,-700.11 673,-700 593,-700 342,-700 342,-700 342,-700 283.57,-700 221.68,-669.47 184.18,-647.11"/>
<polygon fill="black" stroke="black" stroke-width="1.2" points="185.55,-643.85 175.19,-641.63 181.91,-649.82 185.55,-643.85"/>
</g>
<!-- err_error4&#45;&gt;vibration -->
<g id="edge27" class="edge">
<title>err_error4&#45;&gt;vibration</title>
<path fill="none" stroke="black" stroke-width="1.2" d="M1058.4,-534.06C1045.75,-529.84 1031.81,-525.21 1019,-521 793.08,-446.73 736.58,-428.21 510,-356 470.36,-343.37 425.32,-329.27 392.16,-318.95"/>
<polygon fill="black" stroke="black" stroke-width="1.2" points="392.86,-315.5 382.27,-315.87 390.78,-322.19 392.86,-315.5"/>
</g>
<!-- err_error5 -->
<g id="node9" class="node">
<title>err_error5</title>
<path fill="white" stroke="black" d="M73,-167C73,-167 12,-167 12,-167 6,-167 0,-161 0,-155 0,-155 0,-143 0,-143 0,-137 6,-131 12,-131 12,-131 73,-131 73,-131 79,-131 85,-137 85,-143 85,-143 85,-155 85,-155 85,-161 79,-167 73,-167"/>
<text text-anchor="middle" x="42.5" y="-145.3" font-family="Helvetica,sans-Serif" font-size="14.00">err_error5</text>
</g>
<!-- err_error5&#45;&gt;volt -->
<g id="edge5" class="edge">
<title>err_error5&#45;&gt;volt</title>
<path fill="none" stroke="black" stroke-width="1.2" d="M47.43,-167.04C63.19,-239.34 121.82,-508.46 140.94,-596.17"/>
<polygon fill="black" stroke="black" stroke-width="1.2" points="137.52,-596.92 143.07,-605.94 144.36,-595.43 137.52,-596.92"/>
</g>
<!-- err_error5&#45;&gt;rotate -->
<g id="edge17" class="edge">
<title>err_error5&#45;&gt;rotate</title>
<path fill="none" stroke="black" stroke-width="1.2" d="M85.33,-139.13C119.71,-131.02 167.98,-119.64 201.09,-111.82"/>
<polygon fill="black" stroke="black" stroke-width="1.2" points="201.92,-115.23 210.85,-109.52 200.31,-108.41 201.92,-115.23"/>
</g>
<!-- err_error5&#45;&gt;vibration -->
<g id="edge28" class="edge">
<title>err_error5&#45;&gt;vibration</title>
<path fill="none" stroke="black" stroke-width="1.2" d="M78.33,-167.08C132.78,-195.36 238.01,-250 297.75,-281.02"/>
<polygon fill="black" stroke="black" stroke-width="1.2" points="296.45,-284.29 306.93,-285.79 299.67,-278.08 296.45,-284.29"/>
</g>
<!-- mnt_comp1&#45;&gt;vibration -->
<g id="edge29" class="edge">
<title>mnt_comp1&#45;&gt;vibration</title>
<path fill="none" stroke="black" stroke-width="1.2" d="M691.3,-529.82C650.55,-506.01 576.04,-463.59 510,-432 470.09,-412.91 453.56,-420.32 418,-394 394.59,-376.68 374.11,-350.38 360.67,-330.67"/>
<polygon fill="black" stroke="black" stroke-width="1.2" points="363.45,-328.54 355,-322.14 357.62,-332.41 363.45,-328.54"/>
</g>
<!-- mnt_comp4 -->
<g id="node13" class="node">
<title>mnt_comp4</title>
<path fill="white" stroke="black" d="M894,-619C894,-619 820,-619 820,-619 814,-619 808,-613 808,-607 808,-607 808,-595 808,-595 808,-589 814,-583 820,-583 820,-583 894,-583 894,-583 900,-583 906,-589 906,-595 906,-595 906,-607 906,-607 906,-613 900,-619 894,-619"/>
<text text-anchor="middle" x="857" y="-597.3" font-family="Helvetica,sans-Serif" font-size="14.00">mnt_comp4</text>
</g>
<!-- mnt_comp1&#45;&gt;mnt_comp4 -->
<g id="edge37" class="edge">
<title>mnt_comp1&#45;&gt;mnt_comp4</title>
<path fill="none" stroke="black" stroke-width="1.2" d="M769.06,-566.09C779.57,-570.31 790.88,-574.85 801.74,-579.21"/>
<polygon fill="black" stroke="black" stroke-width="1.2" points="800.56,-582.51 811.15,-582.99 803.17,-576.02 800.56,-582.51"/>
</g>
<!-- mnt_comp2 -->
<g id="node11" class="node">
<title>mnt_comp2</title>
<path fill="white" stroke="black" d="M760,-672C760,-672 686,-672 686,-672 680,-672 674,-666 674,-660 674,-660 674,-648 674,-648 674,-642 680,-636 686,-636 686,-636 760,-636 760,-636 766,-636 772,-642 772,-648 772,-648 772,-660 772,-660 772,-666 766,-672 760,-672"/>
<text text-anchor="middle" x="723" y="-650.3" font-family="Helvetica,sans-Serif" font-size="14.00">mnt_comp2</text>
</g>
<!-- mnt_comp3 -->
<g id="node12" class="node">
<title>mnt_comp3</title>
<path fill="white" stroke="black" d="M1269,-714C1269,-714 1195,-714 1195,-714 1189,-714 1183,-708 1183,-702 1183,-702 1183,-690 1183,-690 1183,-684 1189,-678 1195,-678 1195,-678 1269,-678 1269,-678 1275,-678 1281,-684 1281,-690 1281,-690 1281,-702 1281,-702 1281,-708 1275,-714 1269,-714"/>
<text text-anchor="middle" x="1232" y="-692.3" font-family="Helvetica,sans-Serif" font-size="14.00">mnt_comp3</text>
</g>
<!-- mnt_comp2&#45;&gt;mnt_comp3 -->
<g id="edge40" class="edge">
<title>mnt_comp2&#45;&gt;mnt_comp3</title>
<path fill="none" stroke="black" stroke-width="1.2" d="M772.15,-657.99C865.71,-665.74 1071.7,-682.8 1172.76,-691.18"/>
<polygon fill="black" stroke="black" stroke-width="1.2" points="1172.54,-694.67 1182.8,-692.01 1173.12,-687.69 1172.54,-694.67"/>
</g>
<!-- mnt_comp2&#45;&gt;mnt_comp4 -->
<g id="edge41" class="edge">
<title>mnt_comp2&#45;&gt;mnt_comp4</title>
<path fill="none" stroke="black" stroke-width="1.2" d="M769.06,-635.91C779.57,-631.69 790.88,-627.15 801.74,-622.79"/>
<polygon fill="black" stroke="black" stroke-width="1.2" points="803.17,-625.98 811.15,-619.01 800.56,-619.49 803.17,-625.98"/>
</g>
<!-- mnt_comp3&#45;&gt;volt -->
<g id="edge7" class="edge">
<title>mnt_comp3&#45;&gt;volt</title>
<path fill="none" stroke="black" stroke-width="1.2" d="M1197.39,-714.15C1150.46,-737.76 1062.01,-776 981.5,-776 342,-776 342,-776 342,-776 281.5,-776 258.2,-776.84 211,-739 183.04,-716.58 165.97,-678.02 157,-651.79"/>
<polygon fill="black" stroke="black" stroke-width="1.2" points="160.27,-650.5 153.86,-642.06 153.61,-652.65 160.27,-650.5"/>
</g>
<!-- mnt_comp3&#45;&gt;vibration -->
<g id="edge30" class="edge">
<title>mnt_comp3&#45;&gt;vibration</title>
<path fill="none" stroke="black" stroke-width="1.2" d="M1228.56,-677.88C1217.08,-600.78 1161.19,-304 981.5,-304 591,-304 591,-304 591,-304 521.94,-304 442.02,-304 392.23,-304"/>
<polygon fill="black" stroke="black" stroke-width="1.2" points="392.08,-300.5 382.08,-304 392.08,-307.5 392.08,-300.5"/>
</g>
<!-- mnt_comp4&#45;&gt;volt -->
<g id="edge8" class="edge">
<title>mnt_comp4&#45;&gt;volt</title>
<path fill="none" stroke="black" stroke-width="1.2" d="M807.67,-607.58C770.97,-612.66 719.26,-619.98 674,-627 580.93,-641.44 559.18,-662 465,-662 342,-662 342,-662 342,-662 286.36,-662 223.36,-646.61 184.91,-635.41"/>
<polygon fill="black" stroke="black" stroke-width="1.2" points="185.8,-632.03 175.21,-632.53 183.8,-638.74 185.8,-632.03"/>
</g>
<!-- mnt_comp4&#45;&gt;pressure -->
<g id="edge22" class="edge">
<title>mnt_comp4&#45;&gt;pressure</title>
<path fill="none" stroke="black" stroke-width="1.2" d="M899.47,-582.91C910.11,-578.27 921.62,-573.25 932.51,-568.5"/>
<polygon fill="black" stroke="black" stroke-width="1.2" points="934.12,-571.62 941.88,-564.41 931.32,-565.2 934.12,-571.62"/>
</g>
<!-- mnt_comp4&#45;&gt;vibration -->
<g id="edge31" class="edge">
<title>mnt_comp4&#45;&gt;vibration</title>
<path fill="none" stroke="black" stroke-width="1.2" d="M839.44,-582.78C823.27,-565.61 797.44,-539.77 772,-521 717.08,-480.48 699.48,-475.64 638,-446 626.11,-440.26 429.59,-362.34 418,-356 403.2,-347.9 387.78,-337.44 374.88,-328.03"/>
<polygon fill="black" stroke="black" stroke-width="1.2" points="376.91,-325.18 366.79,-322.03 372.74,-330.8 376.91,-325.18"/>
</g>
<!-- fail_comp1&#45;&gt;mnt_comp1 -->
<g id="edge38" class="edge">
<title>fail_comp1&#45;&gt;mnt_comp1</title>
<path fill="none" stroke="black" stroke-width="1.2" d="M510.2,-504.46C545.34,-506.98 595.15,-511.86 638,-521 646.49,-522.81 655.34,-525.14 663.97,-527.68"/>
<polygon fill="black" stroke="black" stroke-width="1.2" points="663,-531.04 673.59,-530.61 665.04,-524.35 663,-531.04"/>
</g>
<!-- fail_comp1&#45;&gt;fail_comp2 -->
<g id="edge45" class="edge">
<title>fail_comp1&#45;&gt;fail_comp2</title>
<path fill="none" stroke="black" stroke-width="1.2" d="M510.13,-518.48C518.55,-521.55 527.42,-524.79 536.09,-527.96"/>
<polygon fill="black" stroke="black" stroke-width="1.2" points="535.16,-531.34 545.76,-531.48 537.57,-524.77 535.16,-531.34"/>
</g>
<!-- fail_comp2&#45;&gt;volt -->
<g id="edge10" class="edge">
<title>fail_comp2&#45;&gt;volt</title>
<path fill="none" stroke="black" stroke-width="1.2" d="M545.8,-554.47C474.44,-564.89 331.41,-586.6 211,-610 202.61,-611.63 193.61,-613.56 185.15,-615.45"/>
<polygon fill="black" stroke="black" stroke-width="1.2" points="184.15,-612.09 175.17,-617.72 185.7,-618.92 184.15,-612.09"/>
</g>
<!-- fail_comp2&#45;&gt;mnt_comp1 -->
<g id="edge39" class="edge">
<title>fail_comp2&#45;&gt;mnt_comp1</title>
<path fill="none" stroke="black" stroke-width="1.2" d="M638.12,-548C646.28,-548 654.9,-548 663.38,-548"/>
<polygon fill="black" stroke="black" stroke-width="1.2" points="663.62,-551.5 673.62,-548 663.62,-544.5 663.62,-551.5"/>
</g>
<!-- fail_comp2&#45;&gt;mnt_comp2 -->
<g id="edge42" class="edge">
<title>fail_comp2&#45;&gt;mnt_comp2</title>
<path fill="none" stroke="black" stroke-width="1.2" d="M615.18,-566.22C636.31,-583.59 668.3,-609.88 691.77,-629.16"/>
<polygon fill="black" stroke="black" stroke-width="1.2" points="689.73,-632.02 699.68,-635.66 694.18,-626.61 689.73,-632.02"/>
</g>
<!-- fail_comp3&#45;&gt;volt -->
<g id="edge11" class="edge">
<title>fail_comp3&#45;&gt;volt</title>
<path fill="none" stroke="black" stroke-width="1.2" d="M1054.84,-666.89C1043.23,-670.17 1030.71,-673.45 1019,-676 1010.6,-677.83 640.34,-738 593,-738 342,-738 342,-738 342,-738 282.81,-738 260.69,-746.16 211,-714 187.76,-698.96 170.87,-671.83 160.64,-651.28"/>
<polygon fill="black" stroke="black" stroke-width="1.2" points="163.73,-649.62 156.29,-642.08 157.41,-652.62 163.73,-649.62"/>
</g>
<!-- fail_comp3&#45;&gt;mnt_comp3 -->
<g id="edge43" class="edge">
<title>fail_comp3&#45;&gt;mnt_comp3</title>
<path fill="none" stroke="black" stroke-width="1.2" d="M1147.12,-668.04C1155.46,-670.82 1164.28,-673.76 1172.94,-676.65"/>
<polygon fill="black" stroke="black" stroke-width="1.2" points="1172.02,-680.03 1182.62,-679.87 1174.24,-673.39 1172.02,-680.03"/>
</g>
<!-- fail_comp3&#45;&gt;mnt_comp4 -->
<g id="edge44" class="edge">
<title>fail_comp3&#45;&gt;mnt_comp4</title>
<path fill="none" stroke="black" stroke-width="1.2" d="M1054.85,-643.3C1015.65,-634.87 958.64,-622.62 916.05,-613.47"/>
<polygon fill="black" stroke="black" stroke-width="1.2" points="916.61,-610.01 906.1,-611.34 915.14,-616.86 916.61,-610.01"/>
</g>
</g>
</svg>
