<?xml version="1.0" encoding="UTF-8" standalone="no"?>
<!DOCTYPE svg PUBLIC "-//W3C//DTD SVG 1.1//EN"
 "http://www.w3.org/Graphics/SVG/1.1/DTD/svg11.dtd">
<!-- Generated by graphviz version 2.50.0 (0)
 -->
<!-- Title: G Pages: 1 -->
<svg width="454pt" height="147pt"
 viewBox="0.00 0.00 454.00 147.00" xmlns="http://www.w3.org/2000/svg" xmlns:xlink="http://www.w3.org/1999/xlink">
<g id="graph0" class="graph" transform="scale(1 1) rotate(0) translate(4 143)">
<title>G</title>
<polygon fill="white" stroke="transparent" points="-4,4 -4,-143 450,-143 450,4 -4,4"/>
<text text-anchor="middle" x="223" y="-122.2" font-family="Times,serif" font-size="16.00">model=model2/nbcb_w_telemetry.json [machine 21]</text>
<!-- volt -->
<g id="node1" class="node">
<title>volt</title>
<path fill="white" stroke="black" d="M135,-59C135,-59 105,-59 105,-59 99,-59 93,-53 93,-47 93,-47 93,-35 93,-35 93,-29 99,-23 105,-23 105,-23 135,-23 135,-23 141,-23 147,-29 147,-35 147,-35 147,-47 147,-47 147,-53 141,-59 135,-59"/>
<text text-anchor="middle" x="120" y="-37.3" font-family="Helvetica,sans-Serif" font-size="14.00">volt</text>
</g>
<!-- rotate -->
<g id="node2" class="node">
<title>rotate</title>
<path fill="white" stroke="black" d="M353,-59C353,-59 320,-59 320,-59 314,-59 308,-53 308,-47 308,-47 308,-35 308,-35 308,-29 314,-23 320,-23 320,-23 353,-23 353,-23 359,-23 365,-29 365,-35 365,-35 365,-47 365,-47 365,-53 359,-59 353,-59"/>
<text text-anchor="middle" x="336.5" y="-37.3" font-family="Helvetica,sans-Serif" font-size="14.00">rotate</text>
</g>
<!-- volt&#45;&gt;rotate -->
<g id="edge1" class="edge">
<title>volt&#45;&gt;rotate</title>
<path fill="none" stroke="black" stroke-width="1.2" d="M147.01,-42.75C161.19,-43.62 179.05,-44.57 195,-45 229.21,-45.92 237.79,-46.08 272,-45 280.32,-44.74 289.24,-44.28 297.7,-43.77"/>
<polygon fill="black" stroke="black" stroke-width="1.2" points="297.94,-47.26 307.7,-43.13 297.5,-40.28 297.94,-47.26"/>
</g>
<!-- pressure -->
<g id="node3" class="node">
<title>pressure</title>
<path fill="white" stroke="black" d="M260,-36C260,-36 207,-36 207,-36 201,-36 195,-30 195,-24 195,-24 195,-12 195,-12 195,-6 201,0 207,0 207,0 260,0 260,0 266,0 272,-6 272,-12 272,-12 272,-24 272,-24 272,-30 266,-36 260,-36"/>
<text text-anchor="middle" x="233.5" y="-14.3" font-family="Helvetica,sans-Serif" font-size="14.00">pressure</text>
</g>
<!-- volt&#45;&gt;pressure -->
<g id="edge2" class="edge">
<title>volt&#45;&gt;pressure</title>
<path fill="none" stroke="black" stroke-width="1.2" d="M147.14,-35.61C158.32,-33.3 171.72,-30.54 184.57,-27.89"/>
<polygon fill="black" stroke="black" stroke-width="1.2" points="185.61,-31.25 194.7,-25.8 184.19,-24.39 185.61,-31.25"/>
</g>
<!-- pressure&#45;&gt;rotate -->
<g id="edge3" class="edge">
<title>pressure&#45;&gt;rotate</title>
<path fill="none" stroke="black" stroke-width="1.2" d="M272.11,-26.56C280.56,-28.49 289.53,-30.53 297.98,-32.46"/>
<polygon fill="black" stroke="black" stroke-width="1.2" points="297.43,-35.92 307.96,-34.73 298.99,-29.1 297.43,-35.92"/>
</g>
<!-- vibration -->
<g id="node4" class="node">
<title>vibration</title>
<path fill="white" stroke="black" d="M147,-113C147,-113 93,-113 93,-113 87,-113 81,-107 81,-101 81,-101 81,-89 81,-89 81,-83 87,-77 93,-77 93,-77 147,-77 147,-77 153,-77 159,-83 159,-89 159,-89 159,-101 159,-101 159,-107 153,-113 147,-113"/>
<text text-anchor="middle" x="120" y="-91.3" font-family="Helvetica,sans-Serif" font-size="14.00">vibration</text>
</g>
</g>
</svg>
