<?xml version="1.0" encoding="UTF-8" standalone="no"?>
<!DOCTYPE svg PUBLIC "-//W3C//DTD SVG 1.1//EN"
 "http://www.w3.org/Graphics/SVG/1.1/DTD/svg11.dtd">
<!-- Generated by graphviz version 2.50.0 (0)
 -->
<!-- Title: G Pages: 1 -->
<svg width="451pt" height="178pt"
 viewBox="0.00 0.00 451.00 178.00" xmlns="http://www.w3.org/2000/svg" xmlns:xlink="http://www.w3.org/1999/xlink">
<g id="graph0" class="graph" transform="scale(1 1) rotate(0) translate(4 174)">
<title>G</title>
<polygon fill="white" stroke="transparent" points="-4,4 -4,-174 447,-174 447,4 -4,4"/>
<text text-anchor="middle" x="221.5" y="-153.2" font-family="Times,serif" font-size="16.00">model=model3/nbcb_e_telemetry.json [machine 33]</text>
<!-- volt -->
<g id="node1" class="node">
<title>volt</title>
<path fill="white" stroke="black" d="M190,-90C190,-90 160,-90 160,-90 154,-90 148,-84 148,-78 148,-78 148,-66 148,-66 148,-60 154,-54 160,-54 160,-54 190,-54 190,-54 196,-54 202,-60 202,-66 202,-66 202,-78 202,-78 202,-84 196,-90 190,-90"/>
<text text-anchor="middle" x="175" y="-68.3" font-family="Helvetica,sans-Serif" font-size="14.00">volt</text>
</g>
<!-- rotate -->
<g id="node2" class="node">
<title>rotate</title>
<path fill="white" stroke="black" d="M295,-63C295,-63 262,-63 262,-63 256,-63 250,-57 250,-51 250,-51 250,-39 250,-39 250,-33 256,-27 262,-27 262,-27 295,-27 295,-27 301,-27 307,-33 307,-39 307,-39 307,-51 307,-51 307,-57 301,-63 295,-63"/>
<text text-anchor="middle" x="278.5" y="-41.3" font-family="Helvetica,sans-Serif" font-size="14.00">rotate</text>
</g>
<!-- volt&#45;&gt;rotate -->
<g id="edge1" class="edge">
<title>volt&#45;&gt;rotate</title>
<path fill="none" stroke="black" stroke-width="1.2" d="M202.14,-65.05C213.63,-61.99 227.35,-58.34 239.91,-55"/>
<polygon fill="black" stroke="black" stroke-width="1.2" points="240.91,-58.36 249.67,-52.4 239.11,-51.59 240.91,-58.36"/>
</g>
<!-- pressure -->
<g id="node3" class="node">
<title>pressure</title>
<path fill="white" stroke="black" d="M201.5,-36C201.5,-36 148.5,-36 148.5,-36 142.5,-36 136.5,-30 136.5,-24 136.5,-24 136.5,-12 136.5,-12 136.5,-6 142.5,0 148.5,0 148.5,0 201.5,0 201.5,0 207.5,0 213.5,-6 213.5,-12 213.5,-12 213.5,-24 213.5,-24 213.5,-30 207.5,-36 201.5,-36"/>
<text text-anchor="middle" x="175" y="-14.3" font-family="Helvetica,sans-Serif" font-size="14.00">pressure</text>
</g>
<!-- pressure&#45;&gt;rotate -->
<g id="edge2" class="edge">
<title>pressure&#45;&gt;rotate</title>
<path fill="none" stroke="black" stroke-width="1.2" d="M213.51,-27.98C222.19,-30.29 231.44,-32.75 240.12,-35.06"/>
<polygon fill="black" stroke="black" stroke-width="1.2" points="239.42,-38.49 249.98,-37.68 241.22,-31.73 239.42,-38.49"/>
</g>
<!-- vibration -->
<g id="node4" class="node">
<title>vibration</title>
<path fill="white" stroke="black" d="M202,-144C202,-144 148,-144 148,-144 142,-144 136,-138 136,-132 136,-132 136,-120 136,-120 136,-114 142,-108 148,-108 148,-108 202,-108 202,-108 208,-108 214,-114 214,-120 214,-120 214,-132 214,-132 214,-138 208,-144 202,-144"/>
<text text-anchor="middle" x="175" y="-122.3" font-family="Helvetica,sans-Serif" font-size="14.00">vibration</text>
</g>
</g>
</svg>
