<?xml version="1.0" encoding="UTF-8" standalone="no"?>
<!DOCTYPE svg PUBLIC "-//W3C//DTD SVG 1.1//EN"
 "http://www.w3.org/Graphics/SVG/1.1/DTD/svg11.dtd">
<!-- Generated by graphviz version 2.50.0 (0)
 -->
<!-- Title: G Pages: 1 -->
<svg width="451pt" height="178pt"
 viewBox="0.00 0.00 451.00 178.00" xmlns="http://www.w3.org/2000/svg" xmlns:xlink="http://www.w3.org/1999/xlink">
<g id="graph0" class="graph" transform="scale(1 1) rotate(0) translate(4 174)">
<title>G</title>
<polygon fill="white" stroke="transparent" points="-4,4 -4,-174 447,-174 447,4 -4,4"/>
<text text-anchor="middle" x="221.5" y="-153.2" font-family="Times,serif" font-size="16.00">model=model3/nbcb_e_telemetry.json [machine 82]</text>
<!-- volt -->
<g id="node1" class="node">
<title>volt</title>
<path fill="white" stroke="black" d="M180,-90C180,-90 150,-90 150,-90 144,-90 138,-84 138,-78 138,-78 138,-66 138,-66 138,-60 144,-54 150,-54 150,-54 180,-54 180,-54 186,-54 192,-60 192,-66 192,-66 192,-78 192,-78 192,-84 186,-90 180,-90"/>
<text text-anchor="middle" x="165" y="-68.3" font-family="Helvetica,sans-Serif" font-size="14.00">volt</text>
</g>
<!-- pressure -->
<g id="node3" class="node">
<title>pressure</title>
<path fill="white" stroke="black" d="M305,-63C305,-63 252,-63 252,-63 246,-63 240,-57 240,-51 240,-51 240,-39 240,-39 240,-33 246,-27 252,-27 252,-27 305,-27 305,-27 311,-27 317,-33 317,-39 317,-39 317,-51 317,-51 317,-57 311,-63 305,-63"/>
<text text-anchor="middle" x="278.5" y="-41.3" font-family="Helvetica,sans-Serif" font-size="14.00">pressure</text>
</g>
<!-- volt&#45;&gt;pressure -->
<g id="edge1" class="edge">
<title>volt&#45;&gt;pressure</title>
<path fill="none" stroke="black" stroke-width="1.2" d="M192.14,-65.67C203.43,-62.94 216.99,-59.65 229.95,-56.51"/>
<polygon fill="black" stroke="black" stroke-width="1.2" points="230.8,-59.91 239.7,-54.15 229.15,-53.11 230.8,-59.91"/>
</g>
<!-- rotate -->
<g id="node2" class="node">
<title>rotate</title>
<path fill="white" stroke="black" d="M181.5,-144C181.5,-144 148.5,-144 148.5,-144 142.5,-144 136.5,-138 136.5,-132 136.5,-132 136.5,-120 136.5,-120 136.5,-114 142.5,-108 148.5,-108 148.5,-108 181.5,-108 181.5,-108 187.5,-108 193.5,-114 193.5,-120 193.5,-120 193.5,-132 193.5,-132 193.5,-138 187.5,-144 181.5,-144"/>
<text text-anchor="middle" x="165" y="-122.3" font-family="Helvetica,sans-Serif" font-size="14.00">rotate</text>
</g>
<!-- vibration -->
<g id="node4" class="node">
<title>vibration</title>
<path fill="white" stroke="black" d="M192,-36C192,-36 138,-36 138,-36 132,-36 126,-30 126,-24 126,-24 126,-12 126,-12 126,-6 132,0 138,0 138,0 192,0 192,0 198,0 204,-6 204,-12 204,-12 204,-24 204,-24 204,-30 198,-36 192,-36"/>
<text text-anchor="middle" x="165" y="-14.3" font-family="Helvetica,sans-Serif" font-size="14.00">vibration</text>
</g>
<!-- vibration&#45;&gt;pressure -->
<g id="edge2" class="edge">
<title>vibration&#45;&gt;pressure</title>
<path fill="none" stroke="black" stroke-width="1.2" d="M204.06,-27.22C212.4,-29.24 221.34,-31.4 230,-33.5"/>
<polygon fill="black" stroke="black" stroke-width="1.2" points="229.45,-36.96 239.99,-35.92 231.09,-30.16 229.45,-36.96"/>
</g>
</g>
</svg>
