<?xml version="1.0" encoding="UTF-8" standalone="no"?>
<!DOCTYPE svg PUBLIC "-//W3C//DTD SVG 1.1//EN"
 "http://www.w3.org/Graphics/SVG/1.1/DTD/svg11.dtd">
<!-- Generated by graphviz version 2.50.0 (0)
 -->
<!-- Title: G Pages: 1 -->
<svg width="440pt" height="232pt"
 viewBox="0.00 0.00 440.00 232.00" xmlns="http://www.w3.org/2000/svg" xmlns:xlink="http://www.w3.org/1999/xlink">
<g id="graph0" class="graph" transform="scale(1 1) rotate(0) translate(4 228)">
<title>G</title>
<polygon fill="white" stroke="transparent" points="-4,4 -4,-228 436,-228 436,4 -4,4"/>
<text text-anchor="middle" x="216" y="-207.2" font-family="Times,serif" font-size="16.00">model=model3/nbcb_e_telemetry.json [machine 8]</text>
<!-- volt -->
<g id="node1" class="node">
<title>volt</title>
<path fill="white" stroke="black" d="M231,-36C231,-36 201,-36 201,-36 195,-36 189,-30 189,-24 189,-24 189,-12 189,-12 189,-6 195,0 201,0 201,0 231,0 231,0 237,0 243,-6 243,-12 243,-12 243,-24 243,-24 243,-30 237,-36 231,-36"/>
<text text-anchor="middle" x="216" y="-14.3" font-family="Helvetica,sans-Serif" font-size="14.00">volt</text>
</g>
<!-- rotate -->
<g id="node2" class="node">
<title>rotate</title>
<path fill="white" stroke="black" d="M232.5,-90C232.5,-90 199.5,-90 199.5,-90 193.5,-90 187.5,-84 187.5,-78 187.5,-78 187.5,-66 187.5,-66 187.5,-60 193.5,-54 199.5,-54 199.5,-54 232.5,-54 232.5,-54 238.5,-54 244.5,-60 244.5,-66 244.5,-66 244.5,-78 244.5,-78 244.5,-84 238.5,-90 232.5,-90"/>
<text text-anchor="middle" x="216" y="-68.3" font-family="Helvetica,sans-Serif" font-size="14.00">rotate</text>
</g>
<!-- pressure -->
<g id="node3" class="node">
<title>pressure</title>
<path fill="white" stroke="black" d="M242.5,-144C242.5,-144 189.5,-144 189.5,-144 183.5,-144 177.5,-138 177.5,-132 177.5,-132 177.5,-120 177.5,-120 177.5,-114 183.5,-108 189.5,-108 189.5,-108 242.5,-108 242.5,-108 248.5,-108 254.5,-114 254.5,-120 254.5,-120 254.5,-132 254.5,-132 254.5,-138 248.5,-144 242.5,-144"/>
<text text-anchor="middle" x="216" y="-122.3" font-family="Helvetica,sans-Serif" font-size="14.00">pressure</text>
</g>
<!-- vibration -->
<g id="node4" class="node">
<title>vibration</title>
<path fill="white" stroke="black" d="M243,-198C243,-198 189,-198 189,-198 183,-198 177,-192 177,-186 177,-186 177,-174 177,-174 177,-168 183,-162 189,-162 189,-162 243,-162 243,-162 249,-162 255,-168 255,-174 255,-174 255,-186 255,-186 255,-192 249,-198 243,-198"/>
<text text-anchor="middle" x="216" y="-176.3" font-family="Helvetica,sans-Serif" font-size="14.00">vibration</text>
</g>
</g>
</svg>
