<?xml version="1.0" encoding="UTF-8" standalone="no"?>
<!DOCTYPE svg PUBLIC "-//W3C//DTD SVG 1.1//EN"
 "http://www.w3.org/Graphics/SVG/1.1/DTD/svg11.dtd">
<!-- Generated by graphviz version 2.50.0 (0)
 -->
<!-- Title: G Pages: 1 -->
<svg width="1417pt" height="728pt"
 viewBox="0.00 0.00 1417.00 728.00" xmlns="http://www.w3.org/2000/svg" xmlns:xlink="http://www.w3.org/1999/xlink">
<g id="graph0" class="graph" transform="scale(1 1) rotate(0) translate(4 724)">
<title>G</title>
<polygon fill="white" stroke="transparent" points="-4,4 -4,-724 1413,-724 1413,4 -4,4"/>
<text text-anchor="middle" x="704.5" y="-703.2" font-family="Times,serif" font-size="16.00">model=model3/nbcb_w_mixed.json [machine 7]</text>
<!-- volt -->
<g id="node1" class="node">
<title>volt</title>
<path fill="white" stroke="black" d="M42,-132C42,-132 12,-132 12,-132 6,-132 0,-126 0,-120 0,-120 0,-108 0,-108 0,-102 6,-96 12,-96 12,-96 42,-96 42,-96 48,-96 54,-102 54,-108 54,-108 54,-120 54,-120 54,-126 48,-132 42,-132"/>
<text text-anchor="middle" x="27" y="-110.3" font-family="Helvetica,sans-Serif" font-size="14.00">volt</text>
</g>
<!-- err_error1 -->
<g id="node5" class="node">
<title>err_error1</title>
<path fill="white" stroke="black" d="M163,-359C163,-359 102,-359 102,-359 96,-359 90,-353 90,-347 90,-347 90,-335 90,-335 90,-329 96,-323 102,-323 102,-323 163,-323 163,-323 169,-323 175,-329 175,-335 175,-335 175,-347 175,-347 175,-353 169,-359 163,-359"/>
<text text-anchor="middle" x="132.5" y="-337.3" font-family="Helvetica,sans-Serif" font-size="14.00">err_error1</text>
</g>
<!-- volt&#45;&gt;err_error1 -->
<g id="edge1" class="edge">
<title>volt&#45;&gt;err_error1</title>
<path fill="none" stroke="black" stroke-width="1.2" d="M40.52,-141.46C60.43,-185.12 99.08,-269.9 118.99,-313.56"/>
<polygon fill="black" stroke="black" stroke-width="1.2" points="43.63,-139.84 36.29,-132.19 37.26,-142.74 43.63,-139.84"/>
<polygon fill="black" stroke="black" stroke-width="1.2" points="115.83,-315.07 123.17,-322.72 122.2,-312.17 115.83,-315.07"/>
</g>
<!-- err_error5 -->
<g id="node9" class="node">
<title>err_error5</title>
<path fill="white" stroke="black" d="M629.5,-140C629.5,-140 568.5,-140 568.5,-140 562.5,-140 556.5,-134 556.5,-128 556.5,-128 556.5,-116 556.5,-116 556.5,-110 562.5,-104 568.5,-104 568.5,-104 629.5,-104 629.5,-104 635.5,-104 641.5,-110 641.5,-116 641.5,-116 641.5,-128 641.5,-128 641.5,-134 635.5,-140 629.5,-140"/>
<text text-anchor="middle" x="599" y="-118.3" font-family="Helvetica,sans-Serif" font-size="14.00">err_error5</text>
</g>
<!-- volt&#45;&gt;err_error5 -->
<g id="edge3" class="edge">
<title>volt&#45;&gt;err_error5</title>
<path fill="none" stroke="black" stroke-width="1.2" d="M64.27,-114C106.21,-114 177.35,-114 238.5,-114 238.5,-114 238.5,-114 347.5,-114 416.3,-114 495.66,-117.05 546.3,-119.39"/>
<polygon fill="black" stroke="black" stroke-width="1.2" points="64.25,-110.5 54.25,-114 64.25,-117.5 64.25,-110.5"/>
<polygon fill="black" stroke="black" stroke-width="1.2" points="546.2,-122.88 556.35,-119.86 546.52,-115.89 546.2,-122.88"/>
</g>
<!-- mnt_comp3 -->
<g id="node12" class="node">
<title>mnt_comp3</title>
<path fill="white" stroke="black" d="M1029,-258C1029,-258 955,-258 955,-258 949,-258 943,-252 943,-246 943,-246 943,-234 943,-234 943,-228 949,-222 955,-222 955,-222 1029,-222 1029,-222 1035,-222 1041,-228 1041,-234 1041,-234 1041,-246 1041,-246 1041,-252 1035,-258 1029,-258"/>
<text text-anchor="middle" x="992" y="-236.3" font-family="Helvetica,sans-Serif" font-size="14.00">mnt_comp3</text>
</g>
<!-- volt&#45;&gt;mnt_comp3 -->
<g id="edge5" class="edge">
<title>volt&#45;&gt;mnt_comp3</title>
<path fill="none" stroke="black" stroke-width="1.2" d="M53.62,-95.91C64.45,-88.91 77.44,-81.31 90,-76 152.74,-49.46 170.37,-38 238.5,-38 238.5,-38 238.5,-38 472,-38 549.82,-38 570.93,-41.15 645,-65 764.09,-103.35 892.63,-178.26 954.13,-216.42"/>
<polygon fill="black" stroke="black" stroke-width="1.2" points="952.37,-219.45 962.71,-221.78 956.08,-213.52 952.37,-219.45"/>
</g>
<!-- mnt_comp4 -->
<g id="node13" class="node">
<title>mnt_comp4</title>
<path fill="white" stroke="black" d="M767,-292C767,-292 693,-292 693,-292 687,-292 681,-286 681,-280 681,-280 681,-268 681,-268 681,-262 687,-256 693,-256 693,-256 767,-256 767,-256 773,-256 779,-262 779,-268 779,-268 779,-280 779,-280 779,-286 773,-292 767,-292"/>
<text text-anchor="middle" x="730" y="-270.3" font-family="Helvetica,sans-Serif" font-size="14.00">mnt_comp4</text>
</g>
<!-- volt&#45;&gt;mnt_comp4 -->
<g id="edge6" class="edge">
<title>volt&#45;&gt;mnt_comp4</title>
<path fill="none" stroke="black" stroke-width="1.2" d="M54.31,-106.13C93.89,-95 171.28,-76 238.5,-76 238.5,-76 238.5,-76 472,-76 549.35,-76 582.08,-50.01 645,-95 695.37,-131.01 716.46,-205.15 724.53,-245.8"/>
<polygon fill="black" stroke="black" stroke-width="1.2" points="721.13,-246.65 726.39,-255.84 728.01,-245.37 721.13,-246.65"/>
</g>
<!-- fail_comp1 -->
<g id="node14" class="node">
<title>fail_comp1</title>
<path fill="white" stroke="black" d="M505,-666C505,-666 437,-666 437,-666 431,-666 425,-660 425,-654 425,-654 425,-642 425,-642 425,-636 431,-630 437,-630 437,-630 505,-630 505,-630 511,-630 517,-636 517,-642 517,-642 517,-654 517,-654 517,-660 511,-666 505,-666"/>
<text text-anchor="middle" x="471" y="-644.3" font-family="Helvetica,sans-Serif" font-size="14.00">fail_comp1</text>
</g>
<!-- volt&#45;&gt;fail_comp1 -->
<g id="edge7" class="edge">
<title>volt&#45;&gt;fail_comp1</title>
<path fill="none" stroke="black" stroke-width="1.2" d="M28.15,-142.18C30.31,-230.24 50.28,-501.28 211,-616 270.54,-658.5 357.99,-660.12 414.47,-655.52"/>
<polygon fill="black" stroke="black" stroke-width="1.2" points="31.65,-142.07 27.96,-132.14 24.65,-142.2 31.65,-142.07"/>
<polygon fill="black" stroke="black" stroke-width="1.2" points="415,-658.99 424.64,-654.6 414.37,-652.01 415,-658.99"/>
</g>
<!-- rotate -->
<g id="node2" class="node">
<title>rotate</title>
<path fill="white" stroke="black" d="M256,-359C256,-359 223,-359 223,-359 217,-359 211,-353 211,-347 211,-347 211,-335 211,-335 211,-329 217,-323 223,-323 223,-323 256,-323 256,-323 262,-323 268,-329 268,-335 268,-335 268,-347 268,-347 268,-353 262,-359 256,-359"/>
<text text-anchor="middle" x="239.5" y="-337.3" font-family="Helvetica,sans-Serif" font-size="14.00">rotate</text>
</g>
<!-- err_error3 -->
<g id="node7" class="node">
<title>err_error3</title>
<path fill="white" stroke="black" d="M377,-248C377,-248 316,-248 316,-248 310,-248 304,-242 304,-236 304,-236 304,-224 304,-224 304,-218 310,-212 316,-212 316,-212 377,-212 377,-212 383,-212 389,-218 389,-224 389,-224 389,-236 389,-236 389,-242 383,-248 377,-248"/>
<text text-anchor="middle" x="346.5" y="-226.3" font-family="Helvetica,sans-Serif" font-size="14.00">err_error3</text>
</g>
<!-- rotate&#45;&gt;err_error3 -->
<g id="edge10" class="edge">
<title>rotate&#45;&gt;err_error3</title>
<path fill="none" stroke="black" stroke-width="1.2" d="M260.91,-314.94C272.92,-300.11 288.72,-281.46 304,-266 307.68,-262.28 311.68,-258.5 315.71,-254.86"/>
<polygon fill="black" stroke="black" stroke-width="1.2" points="258.17,-312.76 254.65,-322.75 263.63,-317.14 258.17,-312.76"/>
<polygon fill="black" stroke="black" stroke-width="1.2" points="318.21,-257.32 323.39,-248.08 313.58,-252.07 318.21,-257.32"/>
</g>
<!-- err_error4 -->
<g id="node8" class="node">
<title>err_error4</title>
<path fill="white" stroke="black" d="M1263,-418C1263,-418 1202,-418 1202,-418 1196,-418 1190,-412 1190,-406 1190,-406 1190,-394 1190,-394 1190,-388 1196,-382 1202,-382 1202,-382 1263,-382 1263,-382 1269,-382 1275,-388 1275,-394 1275,-394 1275,-406 1275,-406 1275,-412 1269,-418 1263,-418"/>
<text text-anchor="middle" x="1232.5" y="-396.3" font-family="Helvetica,sans-Serif" font-size="14.00">err_error4</text>
</g>
<!-- rotate&#45;&gt;err_error4 -->
<g id="edge11" class="edge">
<title>rotate&#45;&gt;err_error4</title>
<path fill="none" stroke="black" stroke-width="1.2" d="M268.31,-356.82C279.19,-362.52 291.93,-368.62 304,-373 410.82,-411.73 440.11,-418.03 553,-431 785.6,-457.73 1065.54,-424.35 1179.47,-408.02"/>
<polygon fill="black" stroke="black" stroke-width="1.2" points="1180.25,-411.44 1189.65,-406.54 1179.25,-404.52 1180.25,-411.44"/>
</g>
<!-- rotate&#45;&gt;err_error5 -->
<g id="edge12" class="edge">
<title>rotate&#45;&gt;err_error5</title>
<path fill="none" stroke="black" stroke-width="1.2" d="M243.86,-322.93C250.28,-293.5 267.06,-235.28 304,-203 340.08,-171.48 472.09,-144.04 546.36,-130.67"/>
<polygon fill="black" stroke="black" stroke-width="1.2" points="547.21,-134.07 556.44,-128.88 545.98,-127.18 547.21,-134.07"/>
</g>
<!-- rotate&#45;&gt;fail_comp1 -->
<g id="edge14" class="edge">
<title>rotate&#45;&gt;fail_comp1</title>
<path fill="none" stroke="black" stroke-width="1.2" d="M242.19,-359.07C246.5,-396.41 260.79,-483.33 304,-540 333.4,-578.56 380.8,-607.42 417.43,-625.55"/>
<polygon fill="black" stroke="black" stroke-width="1.2" points="415.97,-628.74 426.5,-629.93 419.02,-622.43 415.97,-628.74"/>
</g>
<!-- fail_comp2 -->
<g id="node15" class="node">
<title>fail_comp2</title>
<path fill="white" stroke="black" d="M895,-334C895,-334 827,-334 827,-334 821,-334 815,-328 815,-322 815,-322 815,-310 815,-310 815,-304 821,-298 827,-298 827,-298 895,-298 895,-298 901,-298 907,-304 907,-310 907,-310 907,-322 907,-322 907,-328 901,-334 895,-334"/>
<text text-anchor="middle" x="861" y="-312.3" font-family="Helvetica,sans-Serif" font-size="14.00">fail_comp2</text>
</g>
<!-- rotate&#45;&gt;fail_comp2 -->
<g id="edge15" class="edge">
<title>rotate&#45;&gt;fail_comp2</title>
<path fill="none" stroke="black" stroke-width="1.2" d="M278.32,-335.41C323.73,-329.19 402.26,-320 470,-320 470,-320 470,-320 600,-320 670.68,-320 752.15,-318.5 804.78,-317.34"/>
<polygon fill="black" stroke="black" stroke-width="1.2" points="277.75,-331.95 268.33,-336.8 278.72,-338.88 277.75,-331.95"/>
<polygon fill="black" stroke="black" stroke-width="1.2" points="804.99,-320.84 814.91,-317.11 804.84,-313.84 804.99,-320.84"/>
</g>
<!-- fail_comp4 -->
<g id="node16" class="node">
<title>fail_comp4</title>
<path fill="white" stroke="black" d="M633,-422C633,-422 565,-422 565,-422 559,-422 553,-416 553,-410 553,-410 553,-398 553,-398 553,-392 559,-386 565,-386 565,-386 633,-386 633,-386 639,-386 645,-392 645,-398 645,-398 645,-410 645,-410 645,-416 639,-422 633,-422"/>
<text text-anchor="middle" x="599" y="-400.3" font-family="Helvetica,sans-Serif" font-size="14.00">fail_comp4</text>
</g>
<!-- rotate&#45;&gt;fail_comp4 -->
<g id="edge16" class="edge">
<title>rotate&#45;&gt;fail_comp4</title>
<path fill="none" stroke="black" stroke-width="1.2" d="M268.25,-345.89C327.05,-356.25 465.11,-380.58 542.66,-394.25"/>
<polygon fill="black" stroke="black" stroke-width="1.2" points="542.27,-397.73 552.72,-396.02 543.48,-390.84 542.27,-397.73"/>
</g>
<!-- pressure -->
<g id="node3" class="node">
<title>pressure</title>
<path fill="white" stroke="black" d="M1142,-372C1142,-372 1089,-372 1089,-372 1083,-372 1077,-366 1077,-360 1077,-360 1077,-348 1077,-348 1077,-342 1083,-336 1089,-336 1089,-336 1142,-336 1142,-336 1148,-336 1154,-342 1154,-348 1154,-348 1154,-360 1154,-360 1154,-366 1148,-372 1142,-372"/>
<text text-anchor="middle" x="1115.5" y="-350.3" font-family="Helvetica,sans-Serif" font-size="14.00">pressure</text>
</g>
<!-- err_error2 -->
<g id="node6" class="node">
<title>err_error2</title>
<path fill="white" stroke="black" d="M1263,-136C1263,-136 1202,-136 1202,-136 1196,-136 1190,-130 1190,-124 1190,-124 1190,-112 1190,-112 1190,-106 1196,-100 1202,-100 1202,-100 1263,-100 1263,-100 1269,-100 1275,-106 1275,-112 1275,-112 1275,-124 1275,-124 1275,-130 1269,-136 1263,-136"/>
<text text-anchor="middle" x="1232.5" y="-114.3" font-family="Helvetica,sans-Serif" font-size="14.00">err_error2</text>
</g>
<!-- pressure&#45;&gt;err_error2 -->
<g id="edge17" class="edge">
<title>pressure&#45;&gt;err_error2</title>
<path fill="none" stroke="black" stroke-width="1.2" d="M1129.72,-326.87C1151.8,-281.56 1195.94,-190.97 1218.13,-145.45"/>
<polygon fill="black" stroke="black" stroke-width="1.2" points="1126.57,-325.35 1125.33,-335.87 1132.86,-328.42 1126.57,-325.35"/>
<polygon fill="black" stroke="black" stroke-width="1.2" points="1221.4,-146.71 1222.64,-136.19 1215.11,-143.64 1221.4,-146.71"/>
</g>
<!-- pressure&#45;&gt;err_error4 -->
<g id="edge18" class="edge">
<title>pressure&#45;&gt;err_error4</title>
<path fill="none" stroke="black" stroke-width="1.2" d="M1154.16,-369.06C1162.53,-372.41 1171.54,-376.01 1180.34,-379.54"/>
<polygon fill="black" stroke="black" stroke-width="1.2" points="1179.2,-382.85 1189.78,-383.31 1181.8,-376.35 1179.2,-382.85"/>
</g>
<!-- vibration -->
<g id="node4" class="node">
<title>vibration</title>
<path fill="white" stroke="black" d="M498,-292C498,-292 444,-292 444,-292 438,-292 432,-286 432,-280 432,-280 432,-268 432,-268 432,-262 438,-256 444,-256 444,-256 498,-256 498,-256 504,-256 510,-262 510,-268 510,-268 510,-280 510,-280 510,-286 504,-292 498,-292"/>
<text text-anchor="middle" x="471" y="-270.3" font-family="Helvetica,sans-Serif" font-size="14.00">vibration</text>
</g>
<!-- vibration&#45;&gt;rotate -->
<g id="edge8" class="edge">
<title>vibration&#45;&gt;rotate</title>
<path fill="none" stroke="black" stroke-width="1.2" d="M431.85,-277.91C397.61,-282.22 346.37,-290.67 304,-306 294.86,-309.31 285.46,-313.8 276.79,-318.46"/>
<polygon fill="black" stroke="black" stroke-width="1.2" points="275.08,-315.41 268.05,-323.35 278.49,-321.52 275.08,-315.41"/>
</g>
<!-- vibration&#45;&gt;err_error4 -->
<g id="edge26" class="edge">
<title>vibration&#45;&gt;err_error4</title>
<path fill="none" stroke="black" stroke-width="1.2" d="M520.33,-284.59C586.6,-298.91 709.47,-324.75 815,-343 930.94,-363.05 960.38,-365.37 1077,-381 1111.14,-385.57 1149.59,-390.3 1179.59,-393.9"/>
<polygon fill="black" stroke="black" stroke-width="1.2" points="520.71,-281.09 510.2,-282.39 519.23,-287.93 520.71,-281.09"/>
<polygon fill="black" stroke="black" stroke-width="1.2" points="1179.48,-397.41 1189.83,-395.12 1180.31,-390.46 1179.48,-397.41"/>
</g>
<!-- vibration&#45;&gt;err_error5 -->
<g id="edge27" class="edge">
<title>vibration&#45;&gt;err_error5</title>
<path fill="none" stroke="black" stroke-width="1.2" d="M493.36,-248.23C516.57,-220.24 553.41,-175.79 576.62,-147.79"/>
<polygon fill="black" stroke="black" stroke-width="1.2" points="490.64,-246.03 486.95,-255.97 496.03,-250.5 490.64,-246.03"/>
<polygon fill="black" stroke="black" stroke-width="1.2" points="579.38,-149.94 583.07,-140.01 573.99,-145.47 579.38,-149.94"/>
</g>
<!-- vibration&#45;&gt;mnt_comp3 -->
<g id="edge29" class="edge">
<title>vibration&#45;&gt;mnt_comp3</title>
<path fill="none" stroke="black" stroke-width="1.2" d="M510.38,-267.59C552.2,-260.94 621.13,-250.98 681,-247 781.22,-240.33 806.63,-249.8 907,-246 915.21,-245.69 923.85,-245.23 932.36,-244.69"/>
<polygon fill="black" stroke="black" stroke-width="1.2" points="932.87,-248.17 942.61,-244.01 932.4,-241.18 932.87,-248.17"/>
</g>
<!-- vibration&#45;&gt;fail_comp4 -->
<g id="edge30" class="edge">
<title>vibration&#45;&gt;fail_comp4</title>
<path fill="none" stroke="black" stroke-width="1.2" d="M484.78,-292.2C499.76,-312.84 526.01,-346.9 553,-372 555.76,-374.57 558.73,-377.1 561.79,-379.55"/>
<polygon fill="black" stroke="black" stroke-width="1.2" points="559.91,-382.52 569.98,-385.8 564.16,-376.95 559.91,-382.52"/>
</g>
<!-- err_error1&#45;&gt;rotate -->
<g id="edge9" class="edge">
<title>err_error1&#45;&gt;rotate</title>
<path fill="none" stroke="black" stroke-width="1.2" d="M175.3,-341C183.66,-341 192.41,-341 200.63,-341"/>
<polygon fill="black" stroke="black" stroke-width="1.2" points="200.7,-344.5 210.7,-341 200.7,-337.5 200.7,-344.5"/>
</g>
<!-- err_error1&#45;&gt;err_error4 -->
<g id="edge31" class="edge">
<title>err_error1&#45;&gt;err_error4</title>
<path fill="none" stroke="black" stroke-width="1.2" d="M154.02,-359.25C216.09,-412.51 409.25,-564 598,-564 598,-564 598,-564 731,-564 910.13,-564 1108.2,-467.96 1191.32,-422.87"/>
<polygon fill="black" stroke="black" stroke-width="1.2" points="1193.09,-425.89 1200.18,-418.02 1189.73,-419.75 1193.09,-425.89"/>
</g>
<!-- err_error2&#45;&gt;volt -->
<g id="edge2" class="edge">
<title>err_error2&#45;&gt;volt</title>
<path fill="none" stroke="black" stroke-width="1.2" d="M1211.17,-99.82C1171.97,-66.72 1081.93,0 993,0 238.5,0 238.5,0 238.5,0 170.15,0 147.61,-3.22 90,-40 71.29,-51.95 55.34,-71.35 44.31,-87.28"/>
<polygon fill="black" stroke="black" stroke-width="1.2" points="41.32,-85.45 38.69,-95.71 47.15,-89.33 41.32,-85.45"/>
</g>
<!-- err_error2&#45;&gt;vibration -->
<g id="edge24" class="edge">
<title>err_error2&#45;&gt;vibration</title>
<path fill="none" stroke="black" stroke-width="1.2" d="M1189.77,-125.7C1046.88,-152.08 584.32,-237.68 553,-246 542.21,-248.87 530.79,-252.46 520.03,-256.1"/>
<polygon fill="black" stroke="black" stroke-width="1.2" points="518.68,-252.87 510.37,-259.45 520.97,-259.48 518.68,-252.87"/>
</g>
<!-- err_error3&#45;&gt;vibration -->
<g id="edge25" class="edge">
<title>err_error3&#45;&gt;vibration</title>
<path fill="none" stroke="black" stroke-width="1.2" d="M389.31,-245.02C399.82,-248.79 411.18,-252.87 421.96,-256.75"/>
<polygon fill="black" stroke="black" stroke-width="1.2" points="421.07,-260.14 431.67,-260.23 423.44,-253.56 421.07,-260.14"/>
</g>
<!-- err_error3&#45;&gt;err_error2 -->
<g id="edge32" class="edge">
<title>err_error3&#45;&gt;err_error2</title>
<path fill="none" stroke="black" stroke-width="1.2" d="M389.35,-223.62C500.89,-206.79 814.67,-160.52 1077,-132 1111.13,-128.29 1149.58,-124.8 1179.58,-122.24"/>
<polygon fill="black" stroke="black" stroke-width="1.2" points="1180.15,-125.7 1189.82,-121.37 1179.56,-118.73 1180.15,-125.7"/>
</g>
<!-- mnt_comp2 -->
<g id="node11" class="node">
<title>mnt_comp2</title>
<path fill="white" stroke="black" d="M1397,-395C1397,-395 1323,-395 1323,-395 1317,-395 1311,-389 1311,-383 1311,-383 1311,-371 1311,-371 1311,-365 1317,-359 1323,-359 1323,-359 1397,-359 1397,-359 1403,-359 1409,-365 1409,-371 1409,-371 1409,-383 1409,-383 1409,-389 1403,-395 1397,-395"/>
<text text-anchor="middle" x="1360" y="-373.3" font-family="Helvetica,sans-Serif" font-size="14.00">mnt_comp2</text>
</g>
<!-- err_error4&#45;&gt;mnt_comp2 -->
<g id="edge35" class="edge">
<title>err_error4&#45;&gt;mnt_comp2</title>
<path fill="none" stroke="black" stroke-width="1.2" d="M1275.29,-392.34C1283.49,-390.84 1292.23,-389.24 1300.85,-387.66"/>
<polygon fill="black" stroke="black" stroke-width="1.2" points="1301.68,-391.06 1310.88,-385.82 1300.42,-384.18 1301.68,-391.06"/>
</g>
<!-- err_error5&#45;&gt;err_error2 -->
<g id="edge33" class="edge">
<title>err_error5&#45;&gt;err_error2</title>
<path fill="none" stroke="black" stroke-width="1.2" d="M641.55,-111.07C692.6,-98.63 782.04,-80 860,-80 860,-80 860,-80 993,-80 1057.98,-80 1131.69,-93.93 1179.75,-104.92"/>
<polygon fill="black" stroke="black" stroke-width="1.2" points="1179.07,-108.35 1189.6,-107.21 1180.66,-101.54 1179.07,-108.35"/>
</g>
<!-- err_error5&#45;&gt;err_error3 -->
<g id="edge34" class="edge">
<title>err_error5&#45;&gt;err_error3</title>
<path fill="none" stroke="black" stroke-width="1.2" d="M566.97,-140.15C552.09,-148.51 533.88,-158.27 517,-166 478.21,-183.76 432.96,-200.66 398.97,-212.63"/>
<polygon fill="black" stroke="black" stroke-width="1.2" points="397.53,-209.43 389.25,-216.03 399.84,-216.03 397.53,-209.43"/>
</g>
<!-- mnt_comp1 -->
<g id="node10" class="node">
<title>mnt_comp1</title>
<path fill="white" stroke="black" d="M767,-498C767,-498 693,-498 693,-498 687,-498 681,-492 681,-486 681,-486 681,-474 681,-474 681,-468 687,-462 693,-462 693,-462 767,-462 767,-462 773,-462 779,-468 779,-474 779,-474 779,-486 779,-486 779,-492 773,-498 767,-498"/>
<text text-anchor="middle" x="730" y="-476.3" font-family="Helvetica,sans-Serif" font-size="14.00">mnt_comp1</text>
</g>
<!-- mnt_comp1&#45;&gt;volt -->
<g id="edge4" class="edge">
<title>mnt_comp1&#45;&gt;volt</title>
<path fill="none" stroke="black" stroke-width="1.2" d="M718.9,-498.25C688.76,-550 593.93,-694 472,-694 238.5,-694 238.5,-694 238.5,-694 142.45,-694 131.91,-623.42 90,-537 55.87,-466.62 35.91,-225.42 29.93,-142.37"/>
<polygon fill="black" stroke="black" stroke-width="1.2" points="33.42,-142.11 29.22,-132.38 26.43,-142.61 33.42,-142.11"/>
</g>
<!-- mnt_comp1&#45;&gt;pressure -->
<g id="edge19" class="edge">
<title>mnt_comp1&#45;&gt;pressure</title>
<path fill="none" stroke="black" stroke-width="1.2" d="M779.18,-464.17C853.06,-439.9 993.46,-393.77 1066.95,-369.62"/>
<polygon fill="black" stroke="black" stroke-width="1.2" points="1068.46,-372.81 1076.86,-366.37 1066.27,-366.16 1068.46,-372.81"/>
</g>
<!-- mnt_comp2&#45;&gt;rotate -->
<g id="edge13" class="edge">
<title>mnt_comp2&#45;&gt;rotate</title>
<path fill="none" stroke="black" stroke-width="1.2" d="M1350.58,-395.03C1324.25,-448.42 1237.97,-602 1116.5,-602 598,-602 598,-602 598,-602 440.25,-602 305.61,-434.17 258.46,-367.67"/>
<polygon fill="black" stroke="black" stroke-width="1.2" points="261.24,-365.54 252.64,-359.35 255.5,-369.55 261.24,-365.54"/>
</g>
<!-- mnt_comp2&#45;&gt;pressure -->
<g id="edge20" class="edge">
<title>mnt_comp2&#45;&gt;pressure</title>
<path fill="none" stroke="black" stroke-width="1.2" d="M1310.83,-372.43C1268.29,-368.4 1206.6,-362.55 1164.2,-358.52"/>
<polygon fill="black" stroke="black" stroke-width="1.2" points="1164.41,-355.03 1154.12,-357.57 1163.75,-362 1164.41,-355.03"/>
</g>
<!-- mnt_comp2&#45;&gt;vibration -->
<g id="edge28" class="edge">
<title>mnt_comp2&#45;&gt;vibration</title>
<path fill="none" stroke="black" stroke-width="1.2" d="M1335.42,-395.05C1298.91,-421.78 1225.43,-470.79 1154,-490 898.23,-558.77 769.84,-531.39 681,-507 617.2,-489.49 598.37,-479.15 553,-431 517.17,-392.97 493.15,-336.02 481.1,-302.18"/>
<polygon fill="black" stroke="black" stroke-width="1.2" points="484.31,-300.77 477.74,-292.46 477.7,-303.06 484.31,-300.77"/>
</g>
<!-- mnt_comp3&#45;&gt;pressure -->
<g id="edge21" class="edge">
<title>mnt_comp3&#45;&gt;pressure</title>
<path fill="none" stroke="black" stroke-width="1.2" d="M1012.25,-258.06C1032.57,-277.13 1064.76,-307.33 1087.58,-328.75"/>
<polygon fill="black" stroke="black" stroke-width="1.2" points="1085.25,-331.35 1094.94,-335.64 1090.04,-326.25 1085.25,-331.35"/>
</g>
<!-- mnt_comp3&#45;&gt;mnt_comp2 -->
<g id="edge38" class="edge">
<title>mnt_comp3&#45;&gt;mnt_comp2</title>
<path fill="none" stroke="black" stroke-width="1.2" d="M1041.23,-234.77C1100.2,-230.68 1201.24,-231.27 1275,-272 1307.07,-289.71 1331.39,-325.17 1345.41,-349.96"/>
<polygon fill="black" stroke="black" stroke-width="1.2" points="1342.41,-351.78 1350.27,-358.88 1348.56,-348.42 1342.41,-351.78"/>
</g>
<!-- mnt_comp4&#45;&gt;mnt_comp2 -->
<g id="edge39" class="edge">
<title>mnt_comp4&#45;&gt;mnt_comp2</title>
<path fill="none" stroke="black" stroke-width="1.2" d="M766.12,-255.85C815.12,-232.24 907.41,-194 991,-194 991,-194 991,-194 1116.5,-194 1189.61,-194 1216.76,-193.81 1275,-238 1312.7,-266.6 1337.07,-317.45 1349.39,-349.07"/>
<polygon fill="black" stroke="black" stroke-width="1.2" points="1346.18,-350.48 1352.97,-358.62 1352.73,-348.02 1346.18,-350.48"/>
</g>
<!-- mnt_comp4&#45;&gt;fail_comp2 -->
<g id="edge43" class="edge">
<title>mnt_comp4&#45;&gt;fail_comp2</title>
<path fill="none" stroke="black" stroke-width="1.2" d="M779.03,-289.64C787.57,-292.42 796.52,-295.33 805.22,-298.17"/>
<polygon fill="black" stroke="black" stroke-width="1.2" points="804.32,-301.55 814.92,-301.32 806.49,-294.9 804.32,-301.55"/>
</g>
<!-- fail_comp1&#45;&gt;mnt_comp1 -->
<g id="edge36" class="edge">
<title>fail_comp1&#45;&gt;mnt_comp1</title>
<path fill="none" stroke="black" stroke-width="1.2" d="M499.99,-629.7C546.85,-599.07 641.1,-537.46 692.89,-503.61"/>
<polygon fill="black" stroke="black" stroke-width="1.2" points="694.98,-506.42 701.43,-498.02 691.15,-500.56 694.98,-506.42"/>
</g>
<!-- fail_comp1&#45;&gt;mnt_comp2 -->
<g id="edge40" class="edge">
<title>fail_comp1&#45;&gt;mnt_comp2</title>
<path fill="none" stroke="black" stroke-width="1.2" d="M517.03,-646.88C568.34,-645.69 654.7,-644 729,-644 729,-644 729,-644 1116.5,-644 1188.04,-644 1220.46,-662.29 1275,-616 1338.88,-561.77 1354.2,-455.89 1357.86,-405.27"/>
<polygon fill="black" stroke="black" stroke-width="1.2" points="1361.37,-405.26 1358.49,-395.06 1354.38,-404.82 1361.37,-405.26"/>
</g>
<!-- fail_comp2&#45;&gt;pressure -->
<g id="edge22" class="edge">
<title>fail_comp2&#45;&gt;pressure</title>
<path fill="none" stroke="black" stroke-width="1.2" d="M907.14,-322.79C952.11,-329.56 1020.89,-339.91 1066.75,-346.81"/>
<polygon fill="black" stroke="black" stroke-width="1.2" points="1066.34,-350.29 1076.75,-348.32 1067.38,-343.37 1066.34,-350.29"/>
</g>
<!-- fail_comp2&#45;&gt;mnt_comp2 -->
<g id="edge41" class="edge">
<title>fail_comp2&#45;&gt;mnt_comp2</title>
<path fill="none" stroke="black" stroke-width="1.2" d="M907.27,-314.89C964.88,-314.13 1067.33,-314.92 1154,-327 1204.28,-334.01 1260.19,-348.08 1300.91,-359.51"/>
<polygon fill="black" stroke="black" stroke-width="1.2" points="1300.08,-362.92 1310.66,-362.28 1302,-356.18 1300.08,-362.92"/>
</g>
<!-- fail_comp2&#45;&gt;mnt_comp3 -->
<g id="edge42" class="edge">
<title>fail_comp2&#45;&gt;mnt_comp3</title>
<path fill="none" stroke="black" stroke-width="1.2" d="M892.57,-297.99C910.19,-287.61 932.54,-274.44 951.49,-263.28"/>
<polygon fill="black" stroke="black" stroke-width="1.2" points="953.36,-266.24 960.2,-258.15 949.81,-260.21 953.36,-266.24"/>
</g>
<!-- fail_comp4&#45;&gt;pressure -->
<g id="edge23" class="edge">
<title>fail_comp4&#45;&gt;pressure</title>
<path fill="none" stroke="black" stroke-width="1.2" d="M645.21,-399.61C741.83,-390.22 967.71,-368.27 1066.65,-358.65"/>
<polygon fill="black" stroke="black" stroke-width="1.2" points="1067.05,-362.13 1076.66,-357.68 1066.37,-355.16 1067.05,-362.13"/>
</g>
<!-- fail_comp4&#45;&gt;mnt_comp1 -->
<g id="edge37" class="edge">
<title>fail_comp4&#45;&gt;mnt_comp1</title>
<path fill="none" stroke="black" stroke-width="1.2" d="M630.57,-422.01C648.19,-432.39 670.54,-445.56 689.49,-456.72"/>
<polygon fill="black" stroke="black" stroke-width="1.2" points="687.81,-459.79 698.2,-461.85 691.36,-453.76 687.81,-459.79"/>
</g>
<!-- fail_comp4&#45;&gt;mnt_comp4 -->
<g id="edge44" class="edge">
<title>fail_comp4&#45;&gt;mnt_comp4</title>
<path fill="none" stroke="black" stroke-width="1.2" d="M617.94,-385.92C640.24,-363.45 678.46,-324.94 703.72,-299.47"/>
<polygon fill="black" stroke="black" stroke-width="1.2" points="706.24,-301.91 710.8,-292.34 701.27,-296.97 706.24,-301.91"/>
</g>
</g>
</svg>
