<?xml version="1.0" encoding="UTF-8" standalone="no"?>
<!DOCTYPE svg PUBLIC "-//W3C//DTD SVG 1.1//EN"
 "http://www.w3.org/Graphics/SVG/1.1/DTD/svg11.dtd">
<!-- Generated by graphviz version 2.50.0 (0)
 -->
<!-- Title: G Pages: 1 -->
<svg width="444pt" height="124pt"
 viewBox="0.00 0.00 444.00 124.00" xmlns="http://www.w3.org/2000/svg" xmlns:xlink="http://www.w3.org/1999/xlink">
<g id="graph0" class="graph" transform="scale(1 1) rotate(0) translate(4 120)">
<title>G</title>
<polygon fill="white" stroke="transparent" points="-4,4 -4,-120 440,-120 440,4 -4,4"/>
<text text-anchor="middle" x="218" y="-99.2" font-family="Times,serif" font-size="16.00">model=model3/nbcb_w_telemetry.json [machine 8]</text>
<!-- volt -->
<g id="node1" class="node">
<title>volt</title>
<path fill="white" stroke="black" d="M129.5,-36C129.5,-36 99.5,-36 99.5,-36 93.5,-36 87.5,-30 87.5,-24 87.5,-24 87.5,-12 87.5,-12 87.5,-6 93.5,0 99.5,0 99.5,0 129.5,0 129.5,0 135.5,0 141.5,-6 141.5,-12 141.5,-12 141.5,-24 141.5,-24 141.5,-30 135.5,-36 129.5,-36"/>
<text text-anchor="middle" x="114.5" y="-14.3" font-family="Helvetica,sans-Serif" font-size="14.00">volt</text>
</g>
<!-- rotate -->
<g id="node2" class="node">
<title>rotate</title>
<path fill="white" stroke="black" d="M234,-90C234,-90 201,-90 201,-90 195,-90 189,-84 189,-78 189,-78 189,-66 189,-66 189,-60 195,-54 201,-54 201,-54 234,-54 234,-54 240,-54 246,-60 246,-66 246,-66 246,-78 246,-78 246,-84 240,-90 234,-90"/>
<text text-anchor="middle" x="217.5" y="-68.3" font-family="Helvetica,sans-Serif" font-size="14.00">rotate</text>
</g>
<!-- vibration -->
<g id="node4" class="node">
<title>vibration</title>
<path fill="white" stroke="black" d="M348,-90C348,-90 294,-90 294,-90 288,-90 282,-84 282,-78 282,-78 282,-66 282,-66 282,-60 288,-54 294,-54 294,-54 348,-54 348,-54 354,-54 360,-60 360,-66 360,-66 360,-78 360,-78 360,-84 354,-90 348,-90"/>
<text text-anchor="middle" x="321" y="-68.3" font-family="Helvetica,sans-Serif" font-size="14.00">vibration</text>
</g>
<!-- rotate&#45;&gt;vibration -->
<g id="edge2" class="edge">
<title>rotate&#45;&gt;vibration</title>
<path fill="none" stroke="black" stroke-width="1.2" d="M256.36,-72C261.27,-72 266.34,-72 271.39,-72"/>
<polygon fill="black" stroke="black" stroke-width="1.2" points="256.24,-68.5 246.24,-72 256.24,-75.5 256.24,-68.5"/>
<polygon fill="black" stroke="black" stroke-width="1.2" points="271.65,-75.5 281.65,-72 271.65,-68.5 271.65,-75.5"/>
</g>
<!-- pressure -->
<g id="node3" class="node">
<title>pressure</title>
<path fill="white" stroke="black" d="M141,-90C141,-90 88,-90 88,-90 82,-90 76,-84 76,-78 76,-78 76,-66 76,-66 76,-60 82,-54 88,-54 88,-54 141,-54 141,-54 147,-54 153,-60 153,-66 153,-66 153,-78 153,-78 153,-84 147,-90 141,-90"/>
<text text-anchor="middle" x="114.5" y="-68.3" font-family="Helvetica,sans-Serif" font-size="14.00">pressure</text>
</g>
<!-- pressure&#45;&gt;rotate -->
<g id="edge1" class="edge">
<title>pressure&#45;&gt;rotate</title>
<path fill="none" stroke="black" stroke-width="1.2" d="M153.11,-72C161.47,-72 170.33,-72 178.7,-72"/>
<polygon fill="black" stroke="black" stroke-width="1.2" points="178.96,-75.5 188.96,-72 178.96,-68.5 178.96,-75.5"/>
</g>
</g>
</svg>
