<?xml version="1.0" encoding="UTF-8" standalone="no"?>
<!DOCTYPE svg PUBLIC "-//W3C//DTD SVG 1.1//EN"
 "http://www.w3.org/Graphics/SVG/1.1/DTD/svg11.dtd">
<!-- Generated by graphviz version 2.50.0 (0)
 -->
<!-- Title: G Pages: 1 -->
<svg width="1068pt" height="612pt"
 viewBox="0.00 0.00 1068.00 612.00" xmlns="http://www.w3.org/2000/svg" xmlns:xlink="http://www.w3.org/1999/xlink">
<g id="graph0" class="graph" transform="scale(1 1) rotate(0) translate(4 608)">
<title>G</title>
<polygon fill="white" stroke="transparent" points="-4,4 -4,-608 1064,-608 1064,4 -4,4"/>
<text text-anchor="middle" x="530" y="-587.2" font-family="Times,serif" font-size="16.00">model=model2/nbcb_w_mixed.json [machine 90]</text>
<!-- volt -->
<g id="node1" class="node">
<title>volt</title>
<path fill="white" stroke="black" d="M42,-425C42,-425 12,-425 12,-425 6,-425 0,-419 0,-413 0,-413 0,-401 0,-401 0,-395 6,-389 12,-389 12,-389 42,-389 42,-389 48,-389 54,-395 54,-401 54,-401 54,-413 54,-413 54,-419 48,-425 42,-425"/>
<text text-anchor="middle" x="27" y="-403.3" font-family="Helvetica,sans-Serif" font-size="14.00">volt</text>
</g>
<!-- rotate -->
<g id="node2" class="node">
<title>rotate</title>
<path fill="white" stroke="black" d="M256,-310C256,-310 223,-310 223,-310 217,-310 211,-304 211,-298 211,-298 211,-286 211,-286 211,-280 217,-274 223,-274 223,-274 256,-274 256,-274 262,-274 268,-280 268,-286 268,-286 268,-298 268,-298 268,-304 262,-310 256,-310"/>
<text text-anchor="middle" x="239.5" y="-288.3" font-family="Helvetica,sans-Serif" font-size="14.00">rotate</text>
</g>
<!-- volt&#45;&gt;rotate -->
<g id="edge1" class="edge">
<title>volt&#45;&gt;rotate</title>
<path fill="none" stroke="black" stroke-width="1.2" d="M38.43,-388.79C49.19,-371.62 67.55,-346.44 90,-332 123.69,-310.33 168.9,-300.32 200.55,-295.75"/>
<polygon fill="black" stroke="black" stroke-width="1.2" points="201.28,-299.18 210.73,-294.4 200.36,-292.24 201.28,-299.18"/>
</g>
<!-- err_error1 -->
<g id="node5" class="node">
<title>err_error1</title>
<path fill="white" stroke="black" d="M1041.5,-463C1041.5,-463 980.5,-463 980.5,-463 974.5,-463 968.5,-457 968.5,-451 968.5,-451 968.5,-439 968.5,-439 968.5,-433 974.5,-427 980.5,-427 980.5,-427 1041.5,-427 1041.5,-427 1047.5,-427 1053.5,-433 1053.5,-439 1053.5,-439 1053.5,-451 1053.5,-451 1053.5,-457 1047.5,-463 1041.5,-463"/>
<text text-anchor="middle" x="1011" y="-441.3" font-family="Helvetica,sans-Serif" font-size="14.00">err_error1</text>
</g>
<!-- volt&#45;&gt;err_error1 -->
<g id="edge2" class="edge">
<title>volt&#45;&gt;err_error1</title>
<path fill="none" stroke="black" stroke-width="1.2" d="M36.59,-434.71C45.92,-460.55 63.17,-498.54 90,-522 143.1,-568.43 167.96,-578 238.5,-578 238.5,-578 238.5,-578 744,-578 839.71,-578 936.28,-508.26 982.29,-469.79"/>
<polygon fill="black" stroke="black" stroke-width="1.2" points="39.86,-433.44 33.29,-425.12 33.24,-435.72 39.86,-433.44"/>
<polygon fill="black" stroke="black" stroke-width="1.2" points="984.66,-472.36 990.01,-463.21 980.13,-467.03 984.66,-472.36"/>
</g>
<!-- err_error4 -->
<g id="node8" class="node">
<title>err_error4</title>
<path fill="white" stroke="black" d="M163,-425C163,-425 102,-425 102,-425 96,-425 90,-419 90,-413 90,-413 90,-401 90,-401 90,-395 96,-389 102,-389 102,-389 163,-389 163,-389 169,-389 175,-395 175,-401 175,-401 175,-413 175,-413 175,-419 169,-425 163,-425"/>
<text text-anchor="middle" x="132.5" y="-403.3" font-family="Helvetica,sans-Serif" font-size="14.00">err_error4</text>
</g>
<!-- volt&#45;&gt;err_error4 -->
<g id="edge4" class="edge">
<title>volt&#45;&gt;err_error4</title>
<path fill="none" stroke="black" stroke-width="1.2" d="M54.12,-407C61.87,-407 70.64,-407 79.42,-407"/>
<polygon fill="black" stroke="black" stroke-width="1.2" points="79.68,-410.5 89.68,-407 79.68,-403.5 79.68,-410.5"/>
</g>
<!-- mnt_comp4 -->
<g id="node12" class="node">
<title>mnt_comp4</title>
<path fill="white" stroke="black" d="M914,-398C914,-398 840,-398 840,-398 834,-398 828,-392 828,-386 828,-386 828,-374 828,-374 828,-368 834,-362 840,-362 840,-362 914,-362 914,-362 920,-362 926,-368 926,-374 926,-374 926,-386 926,-386 926,-392 920,-398 914,-398"/>
<text text-anchor="middle" x="877" y="-376.3" font-family="Helvetica,sans-Serif" font-size="14.00">mnt_comp4</text>
</g>
<!-- volt&#45;&gt;mnt_comp4 -->
<g id="edge5" class="edge">
<title>volt&#45;&gt;mnt_comp4</title>
<path fill="none" stroke="black" stroke-width="1.2" d="M44.3,-433.86C55.42,-450.26 71.47,-470.58 90,-484 147.13,-525.37 167.96,-540 238.5,-540 238.5,-540 238.5,-540 610,-540 713.16,-540 810.77,-450.54 853.46,-405.4"/>
<polygon fill="black" stroke="black" stroke-width="1.2" points="47.05,-431.67 38.65,-425.22 41.2,-435.5 47.05,-431.67"/>
<polygon fill="black" stroke="black" stroke-width="1.2" points="856.06,-407.75 860.3,-398.04 850.93,-402.98 856.06,-407.75"/>
</g>
<!-- fail_comp1 -->
<g id="node13" class="node">
<title>fail_comp1</title>
<path fill="white" stroke="black" d="M384,-360C384,-360 316,-360 316,-360 310,-360 304,-354 304,-348 304,-348 304,-336 304,-336 304,-330 310,-324 316,-324 316,-324 384,-324 384,-324 390,-324 396,-330 396,-336 396,-336 396,-348 396,-348 396,-354 390,-360 384,-360"/>
<text text-anchor="middle" x="350" y="-338.3" font-family="Helvetica,sans-Serif" font-size="14.00">fail_comp1</text>
</g>
<!-- volt&#45;&gt;fail_comp1 -->
<g id="edge6" class="edge">
<title>volt&#45;&gt;fail_comp1</title>
<path fill="none" stroke="black" stroke-width="1.2" d="M63.55,-389.6C72.06,-385.98 81.22,-382.51 90,-380 158.62,-360.4 240.51,-350.55 293.57,-345.86"/>
<polygon fill="black" stroke="black" stroke-width="1.2" points="62.01,-386.46 54.28,-393.71 64.85,-392.86 62.01,-386.46"/>
<polygon fill="black" stroke="black" stroke-width="1.2" points="294.12,-349.33 303.78,-344.99 293.52,-342.35 294.12,-349.33"/>
</g>
<!-- err_error3 -->
<g id="node7" class="node">
<title>err_error3</title>
<path fill="white" stroke="black" d="M380.5,-306C380.5,-306 319.5,-306 319.5,-306 313.5,-306 307.5,-300 307.5,-294 307.5,-294 307.5,-282 307.5,-282 307.5,-276 313.5,-270 319.5,-270 319.5,-270 380.5,-270 380.5,-270 386.5,-270 392.5,-276 392.5,-282 392.5,-282 392.5,-294 392.5,-294 392.5,-300 386.5,-306 380.5,-306"/>
<text text-anchor="middle" x="350" y="-284.3" font-family="Helvetica,sans-Serif" font-size="14.00">err_error3</text>
</g>
<!-- rotate&#45;&gt;err_error3 -->
<g id="edge8" class="edge">
<title>rotate&#45;&gt;err_error3</title>
<path fill="none" stroke="black" stroke-width="1.2" d="M278.39,-290.6C284.55,-290.38 291.03,-290.14 297.45,-289.9"/>
<polygon fill="black" stroke="black" stroke-width="1.2" points="278.02,-287.11 268.16,-290.98 278.28,-294.11 278.02,-287.11"/>
<polygon fill="black" stroke="black" stroke-width="1.2" points="297.59,-293.4 307.45,-289.53 297.33,-286.4 297.59,-293.4"/>
</g>
<!-- rotate&#45;&gt;mnt_comp4 -->
<g id="edge10" class="edge">
<title>rotate&#45;&gt;mnt_comp4</title>
<path fill="none" stroke="black" stroke-width="1.2" d="M258.93,-273.95C296.55,-239.11 386.28,-166 477,-166 477,-166 477,-166 610,-166 691.98,-166 726.88,-146.19 792,-196 842.55,-234.66 863.62,-310.79 871.62,-351.97"/>
<polygon fill="black" stroke="black" stroke-width="1.2" points="868.19,-352.67 873.43,-361.88 875.08,-351.42 868.19,-352.67"/>
</g>
<!-- rotate&#45;&gt;fail_comp1 -->
<g id="edge11" class="edge">
<title>rotate&#45;&gt;fail_comp1</title>
<path fill="none" stroke="black" stroke-width="1.2" d="M268.16,-304.75C278.07,-309.31 289.55,-314.6 300.69,-319.74"/>
<polygon fill="black" stroke="black" stroke-width="1.2" points="299.38,-322.99 309.93,-323.99 302.31,-316.63 299.38,-322.99"/>
</g>
<!-- fail_comp2 -->
<g id="node14" class="node">
<title>fail_comp2</title>
<path fill="white" stroke="black" d="M512,-64C512,-64 444,-64 444,-64 438,-64 432,-58 432,-52 432,-52 432,-40 432,-40 432,-34 438,-28 444,-28 444,-28 512,-28 512,-28 518,-28 524,-34 524,-40 524,-40 524,-52 524,-52 524,-58 518,-64 512,-64"/>
<text text-anchor="middle" x="478" y="-42.3" font-family="Helvetica,sans-Serif" font-size="14.00">fail_comp2</text>
</g>
<!-- rotate&#45;&gt;fail_comp2 -->
<g id="edge12" class="edge">
<title>rotate&#45;&gt;fail_comp2</title>
<path fill="none" stroke="black" stroke-width="1.2" d="M245.03,-273.74C252.91,-245.03 271.49,-188.81 304,-152 336.89,-114.76 386.05,-86.38 423.57,-68.4"/>
<polygon fill="black" stroke="black" stroke-width="1.2" points="425.28,-71.47 432.85,-64.05 422.31,-65.13 425.28,-71.47"/>
</g>
<!-- pressure -->
<g id="node3" class="node">
<title>pressure</title>
<path fill="white" stroke="black" d="M504.5,-314C504.5,-314 451.5,-314 451.5,-314 445.5,-314 439.5,-308 439.5,-302 439.5,-302 439.5,-290 439.5,-290 439.5,-284 445.5,-278 451.5,-278 451.5,-278 504.5,-278 504.5,-278 510.5,-278 516.5,-284 516.5,-290 516.5,-290 516.5,-302 516.5,-302 516.5,-308 510.5,-314 504.5,-314"/>
<text text-anchor="middle" x="478" y="-292.3" font-family="Helvetica,sans-Serif" font-size="14.00">pressure</text>
</g>
<!-- vibration -->
<g id="node4" class="node">
<title>vibration</title>
<path fill="white" stroke="black" d="M770,-436C770,-436 716,-436 716,-436 710,-436 704,-430 704,-424 704,-424 704,-412 704,-412 704,-406 710,-400 716,-400 716,-400 770,-400 770,-400 776,-400 782,-406 782,-412 782,-412 782,-424 782,-424 782,-430 776,-436 770,-436"/>
<text text-anchor="middle" x="743" y="-414.3" font-family="Helvetica,sans-Serif" font-size="14.00">vibration</text>
</g>
<!-- pressure&#45;&gt;vibration -->
<g id="edge13" class="edge">
<title>pressure&#45;&gt;vibration</title>
<path fill="none" stroke="black" stroke-width="1.2" d="M494.55,-314.25C509.65,-330.87 534.06,-354.89 560,-369 602.04,-391.87 655.44,-404.6 693.51,-411.31"/>
<polygon fill="black" stroke="black" stroke-width="1.2" points="693.37,-414.84 703.82,-413.05 694.54,-407.94 693.37,-414.84"/>
</g>
<!-- pressure&#45;&gt;mnt_comp4 -->
<g id="edge18" class="edge">
<title>pressure&#45;&gt;mnt_comp4</title>
<path fill="none" stroke="black" stroke-width="1.2" d="M516.6,-298.35C552.99,-301 609.58,-306.16 658,-315 718.55,-326.06 733.18,-331.85 792,-350 800.49,-352.62 809.4,-355.57 818.11,-358.58"/>
<polygon fill="black" stroke="black" stroke-width="1.2" points="817.23,-361.98 827.83,-361.98 819.54,-355.37 817.23,-361.98"/>
</g>
<!-- fail_comp3 -->
<g id="node15" class="node">
<title>fail_comp3</title>
<path fill="white" stroke="black" d="M643,-360C643,-360 575,-360 575,-360 569,-360 563,-354 563,-348 563,-348 563,-336 563,-336 563,-330 569,-324 575,-324 575,-324 643,-324 643,-324 649,-324 655,-330 655,-336 655,-336 655,-348 655,-348 655,-354 649,-360 643,-360"/>
<text text-anchor="middle" x="609" y="-338.3" font-family="Helvetica,sans-Serif" font-size="14.00">fail_comp3</text>
</g>
<!-- pressure&#45;&gt;fail_comp3 -->
<g id="edge19" class="edge">
<title>pressure&#45;&gt;fail_comp3</title>
<path fill="none" stroke="black" stroke-width="1.2" d="M516.66,-309.43C528.04,-313.49 540.78,-318.03 553.05,-322.41"/>
<polygon fill="black" stroke="black" stroke-width="1.2" points="552.16,-325.81 562.76,-325.87 554.52,-319.21 552.16,-325.81"/>
</g>
<!-- vibration&#45;&gt;err_error1 -->
<g id="edge20" class="edge">
<title>vibration&#45;&gt;err_error1</title>
<path fill="none" stroke="black" stroke-width="1.2" d="M792.1,-422.88C839.01,-427.64 910.14,-434.86 958.25,-439.75"/>
<polygon fill="black" stroke="black" stroke-width="1.2" points="792.41,-419.4 782.11,-421.87 791.71,-426.36 792.41,-419.4"/>
<polygon fill="black" stroke="black" stroke-width="1.2" points="958.15,-443.26 968.46,-440.78 958.86,-436.29 958.15,-443.26"/>
</g>
<!-- err_error2 -->
<g id="node6" class="node">
<title>err_error2</title>
<path fill="white" stroke="black" d="M907.5,-106C907.5,-106 846.5,-106 846.5,-106 840.5,-106 834.5,-100 834.5,-94 834.5,-94 834.5,-82 834.5,-82 834.5,-76 840.5,-70 846.5,-70 846.5,-70 907.5,-70 907.5,-70 913.5,-70 919.5,-76 919.5,-82 919.5,-82 919.5,-94 919.5,-94 919.5,-100 913.5,-106 907.5,-106"/>
<text text-anchor="middle" x="877" y="-84.3" font-family="Helvetica,sans-Serif" font-size="14.00">err_error2</text>
</g>
<!-- vibration&#45;&gt;err_error2 -->
<g id="edge21" class="edge">
<title>vibration&#45;&gt;err_error2</title>
<path fill="none" stroke="black" stroke-width="1.2" d="M751.28,-399.79C773.19,-345.02 838.57,-181.57 864.87,-115.84"/>
<polygon fill="black" stroke="black" stroke-width="1.2" points="868.27,-116.74 868.74,-106.16 861.77,-114.14 868.27,-116.74"/>
</g>
<!-- vibration&#45;&gt;mnt_comp4 -->
<g id="edge23" class="edge">
<title>vibration&#45;&gt;mnt_comp4</title>
<path fill="none" stroke="black" stroke-width="1.2" d="M792.09,-404.16C800.48,-401.74 809.29,-399.2 817.92,-396.72"/>
<polygon fill="black" stroke="black" stroke-width="1.2" points="790.82,-400.88 782.18,-407.01 792.76,-407.61 790.82,-400.88"/>
<polygon fill="black" stroke="black" stroke-width="1.2" points="818.91,-400.08 827.55,-393.95 816.98,-393.35 818.91,-400.08"/>
</g>
<!-- err_error2&#45;&gt;volt -->
<g id="edge3" class="edge">
<title>err_error2&#45;&gt;volt</title>
<path fill="none" stroke="black" stroke-width="1.2" d="M843.96,-69.98C795.09,-44.23 698.29,0 610,0 238.5,0 238.5,0 238.5,0 67.65,0 35.31,-286.46 29.33,-378.73"/>
<polygon fill="black" stroke="black" stroke-width="1.2" points="25.82,-378.8 28.72,-388.99 32.8,-379.21 25.82,-378.8"/>
</g>
<!-- err_error3&#45;&gt;pressure -->
<g id="edge14" class="edge">
<title>err_error3&#45;&gt;pressure</title>
<path fill="none" stroke="black" stroke-width="1.2" d="M392.61,-290.64C404.25,-291.38 417,-292.19 428.98,-292.95"/>
<polygon fill="black" stroke="black" stroke-width="1.2" points="429.06,-296.46 439.26,-293.6 429.51,-289.48 429.06,-296.46"/>
</g>
<!-- err_error3&#45;&gt;err_error2 -->
<g id="edge27" class="edge">
<title>err_error3&#45;&gt;err_error2</title>
<path fill="none" stroke="black" stroke-width="1.2" d="M371.95,-269.9C387.89,-256.51 410.67,-238.21 432,-224 486.14,-187.94 498.99,-175.59 560,-153 649.81,-119.74 760.61,-101.92 824.31,-93.74"/>
<polygon fill="black" stroke="black" stroke-width="1.2" points="825.01,-97.18 834.49,-92.47 824.14,-90.24 825.01,-97.18"/>
</g>
<!-- err_error4&#45;&gt;rotate -->
<g id="edge9" class="edge">
<title>err_error4&#45;&gt;rotate</title>
<path fill="none" stroke="black" stroke-width="1.2" d="M150.14,-388.78C167.65,-369.6 195.35,-339.25 215.07,-317.66"/>
<polygon fill="black" stroke="black" stroke-width="1.2" points="217.78,-319.88 221.94,-310.14 212.61,-315.16 217.78,-319.88"/>
</g>
<!-- err_error4&#45;&gt;pressure -->
<g id="edge15" class="edge">
<title>err_error4&#45;&gt;pressure</title>
<path fill="none" stroke="black" stroke-width="1.2" d="M175.18,-408.28C228.81,-408.32 323.67,-402.93 396,-369 419.27,-358.08 440.64,-338.21 455.58,-321.95"/>
<polygon fill="black" stroke="black" stroke-width="1.2" points="458.35,-324.11 462.38,-314.32 453.12,-319.46 458.35,-324.11"/>
</g>
<!-- err_error4&#45;&gt;vibration -->
<g id="edge22" class="edge">
<title>err_error4&#45;&gt;vibration</title>
<path fill="none" stroke="black" stroke-width="1.2" d="M175.12,-412.86C218.45,-418.44 288.34,-426 349,-426 349,-426 349,-426 479,-426 553.95,-426 640.85,-422.71 693.6,-420.35"/>
<polygon fill="black" stroke="black" stroke-width="1.2" points="693.85,-423.85 703.68,-419.9 693.53,-416.85 693.85,-423.85"/>
</g>
<!-- err_error4&#45;&gt;err_error1 -->
<g id="edge25" class="edge">
<title>err_error4&#45;&gt;err_error1</title>
<path fill="none" stroke="black" stroke-width="1.2" d="M175.16,-424.88C217.95,-441.59 286.89,-464 349,-464 349,-464 349,-464 744,-464 818.44,-464 904.3,-456.51 957.87,-450.93"/>
<polygon fill="black" stroke="black" stroke-width="1.2" points="958.57,-454.38 968.14,-449.84 957.83,-447.42 958.57,-454.38"/>
</g>
<!-- mnt_comp1 -->
<g id="node9" class="node">
<title>mnt_comp1</title>
<path fill="white" stroke="black" d="M646,-230C646,-230 572,-230 572,-230 566,-230 560,-224 560,-218 560,-218 560,-206 560,-206 560,-200 566,-194 572,-194 572,-194 646,-194 646,-194 652,-194 658,-200 658,-206 658,-206 658,-218 658,-218 658,-224 652,-230 646,-230"/>
<text text-anchor="middle" x="609" y="-208.3" font-family="Helvetica,sans-Serif" font-size="14.00">mnt_comp1</text>
</g>
<!-- mnt_comp3 -->
<g id="node11" class="node">
<title>mnt_comp3</title>
<path fill="white" stroke="black" d="M780,-268C780,-268 706,-268 706,-268 700,-268 694,-262 694,-256 694,-256 694,-244 694,-244 694,-238 700,-232 706,-232 706,-232 780,-232 780,-232 786,-232 792,-238 792,-244 792,-244 792,-256 792,-256 792,-262 786,-268 780,-268"/>
<text text-anchor="middle" x="743" y="-246.3" font-family="Helvetica,sans-Serif" font-size="14.00">mnt_comp3</text>
</g>
<!-- mnt_comp1&#45;&gt;mnt_comp3 -->
<g id="edge28" class="edge">
<title>mnt_comp1&#45;&gt;mnt_comp3</title>
<path fill="none" stroke="black" stroke-width="1.2" d="M658.03,-225.83C666.49,-228.26 675.38,-230.82 684.08,-233.33"/>
<polygon fill="black" stroke="black" stroke-width="1.2" points="683.21,-236.72 693.79,-236.12 685.14,-229.99 683.21,-236.72"/>
</g>
<!-- mnt_comp1&#45;&gt;mnt_comp4 -->
<g id="edge29" class="edge">
<title>mnt_comp1&#45;&gt;mnt_comp4</title>
<path fill="none" stroke="black" stroke-width="1.2" d="M658.39,-202.77C697.52,-198 752.42,-197.64 792,-223 837.6,-252.22 860.13,-314.98 869.81,-351.69"/>
<polygon fill="black" stroke="black" stroke-width="1.2" points="866.5,-352.88 872.31,-361.74 873.29,-351.19 866.5,-352.88"/>
</g>
<!-- mnt_comp2 -->
<g id="node10" class="node">
<title>mnt_comp2</title>
<path fill="white" stroke="black" d="M1048,-253C1048,-253 974,-253 974,-253 968,-253 962,-247 962,-241 962,-241 962,-229 962,-229 962,-223 968,-217 974,-217 974,-217 1048,-217 1048,-217 1054,-217 1060,-223 1060,-229 1060,-229 1060,-241 1060,-241 1060,-247 1054,-253 1048,-253"/>
<text text-anchor="middle" x="1011" y="-231.3" font-family="Helvetica,sans-Serif" font-size="14.00">mnt_comp2</text>
</g>
<!-- mnt_comp2&#45;&gt;pressure -->
<g id="edge16" class="edge">
<title>mnt_comp2&#45;&gt;pressure</title>
<path fill="none" stroke="black" stroke-width="1.2" d="M971,-216.94C889.62,-182.1 697.87,-114.93 560,-185 525.91,-202.33 502.75,-241.48 490.2,-268.33"/>
<polygon fill="black" stroke="black" stroke-width="1.2" points="486.94,-267.05 486.06,-277.6 493.33,-269.9 486.94,-267.05"/>
</g>
<!-- mnt_comp3&#45;&gt;pressure -->
<g id="edge17" class="edge">
<title>mnt_comp3&#45;&gt;pressure</title>
<path fill="none" stroke="black" stroke-width="1.2" d="M693.67,-258.45C646.13,-266.77 573.99,-279.39 526.68,-287.66"/>
<polygon fill="black" stroke="black" stroke-width="1.2" points="525.93,-284.24 516.68,-289.41 527.13,-291.13 525.93,-284.24"/>
</g>
<!-- mnt_comp4&#45;&gt;err_error1 -->
<g id="edge26" class="edge">
<title>mnt_comp4&#45;&gt;err_error1</title>
<path fill="none" stroke="black" stroke-width="1.2" d="M914.77,-398.11C930.07,-405.64 948.01,-414.47 964.16,-422.43"/>
<polygon fill="black" stroke="black" stroke-width="1.2" points="962.91,-425.71 973.43,-426.99 966,-419.43 962.91,-425.71"/>
</g>
<!-- mnt_comp4&#45;&gt;mnt_comp2 -->
<g id="edge32" class="edge">
<title>mnt_comp4&#45;&gt;mnt_comp2</title>
<path fill="none" stroke="black" stroke-width="1.2" d="M908.64,-361.87C914.69,-357.67 920.77,-352.97 926,-348 953.34,-322.02 978.24,-286.31 993.71,-262.04"/>
<polygon fill="black" stroke="black" stroke-width="1.2" points="996.81,-263.67 999.16,-253.34 990.88,-259.95 996.81,-263.67"/>
</g>
<!-- fail_comp1&#45;&gt;mnt_comp1 -->
<g id="edge30" class="edge">
<title>fail_comp1&#45;&gt;mnt_comp1</title>
<path fill="none" stroke="black" stroke-width="1.2" d="M384.42,-323.86C388.48,-321.11 392.45,-318.14 396,-315 415.46,-297.81 410.72,-283.87 432,-269 467.13,-244.45 513.46,-230 549.77,-221.8"/>
<polygon fill="black" stroke="black" stroke-width="1.2" points="550.69,-225.18 559.73,-219.65 549.22,-218.34 550.69,-225.18"/>
</g>
<!-- fail_comp1&#45;&gt;fail_comp3 -->
<g id="edge37" class="edge">
<title>fail_comp1&#45;&gt;fail_comp3</title>
<path fill="none" stroke="black" stroke-width="1.2" d="M396.06,-342C439.69,-342 505.93,-342 552.73,-342"/>
<polygon fill="black" stroke="black" stroke-width="1.2" points="552.99,-345.5 562.99,-342 552.99,-338.5 552.99,-345.5"/>
</g>
<!-- fail_comp2&#45;&gt;mnt_comp1 -->
<g id="edge31" class="edge">
<title>fail_comp2&#45;&gt;mnt_comp1</title>
<path fill="none" stroke="black" stroke-width="1.2" d="M493.05,-64.08C515.93,-93.52 561.31,-151.92 587.69,-185.87"/>
<polygon fill="black" stroke="black" stroke-width="1.2" points="585.07,-188.19 593.97,-193.94 590.59,-183.9 585.07,-188.19"/>
</g>
<!-- fail_comp2&#45;&gt;mnt_comp2 -->
<g id="edge33" class="edge">
<title>fail_comp2&#45;&gt;mnt_comp2</title>
<path fill="none" stroke="black" stroke-width="1.2" d="M524.07,-33.42C610.13,-12.22 800.43,20.79 926,-61 976.57,-93.94 997.55,-166.53 1005.55,-206.76"/>
<polygon fill="black" stroke="black" stroke-width="1.2" points="1002.13,-207.52 1007.4,-216.72 1009.02,-206.25 1002.13,-207.52"/>
</g>
<!-- fail_comp3&#45;&gt;volt -->
<g id="edge7" class="edge">
<title>fail_comp3&#45;&gt;volt</title>
<path fill="none" stroke="black" stroke-width="1.2" d="M592.96,-360.04C556.29,-401.89 457.43,-502 351,-502 238.5,-502 238.5,-502 238.5,-502 169.73,-502 98.61,-459.35 59.17,-431.2"/>
<polygon fill="black" stroke="black" stroke-width="1.2" points="60.92,-428.15 50.78,-425.09 56.8,-433.81 60.92,-428.15"/>
</g>
<!-- fail_comp3&#45;&gt;vibration -->
<g id="edge24" class="edge">
<title>fail_comp3&#45;&gt;vibration</title>
<path fill="none" stroke="black" stroke-width="1.2" d="M641.28,-360.01C659.32,-370.39 682.18,-383.56 701.57,-394.72"/>
<polygon fill="black" stroke="black" stroke-width="1.2" points="700.07,-397.9 710.48,-399.85 703.57,-391.83 700.07,-397.9"/>
</g>
<!-- fail_comp3&#45;&gt;mnt_comp2 -->
<g id="edge34" class="edge">
<title>fail_comp3&#45;&gt;mnt_comp2</title>
<path fill="none" stroke="black" stroke-width="1.2" d="M655.11,-329.93C728,-310.44 871.6,-272.02 952,-250.52"/>
<polygon fill="black" stroke="black" stroke-width="1.2" points="953.2,-253.82 961.96,-247.85 951.39,-247.05 953.2,-253.82"/>
</g>
<!-- fail_comp3&#45;&gt;mnt_comp3 -->
<g id="edge35" class="edge">
<title>fail_comp3&#45;&gt;mnt_comp3</title>
<path fill="none" stroke="black" stroke-width="1.2" d="M636.08,-323.82C656.6,-309.52 685.37,-289.47 707.74,-273.88"/>
<polygon fill="black" stroke="black" stroke-width="1.2" points="709.77,-276.73 715.98,-268.14 705.77,-270.99 709.77,-276.73"/>
</g>
<!-- fail_comp3&#45;&gt;mnt_comp4 -->
<g id="edge36" class="edge">
<title>fail_comp3&#45;&gt;mnt_comp4</title>
<path fill="none" stroke="black" stroke-width="1.2" d="M655.12,-348.45C699.96,-354.85 768.91,-364.7 817.83,-371.69"/>
<polygon fill="black" stroke="black" stroke-width="1.2" points="817.56,-375.19 827.95,-373.14 818.55,-368.26 817.56,-375.19"/>
</g>
</g>
</svg>
