<?xml version="1.0" encoding="UTF-8" standalone="no"?>
<!DOCTYPE svg PUBLIC "-//W3C//DTD SVG 1.1//EN"
 "http://www.w3.org/Graphics/SVG/1.1/DTD/svg11.dtd">
<!-- Generated by graphviz version 2.50.0 (0)
 -->
<!-- Title: G Pages: 1 -->
<svg width="443pt" height="124pt"
 viewBox="0.00 0.00 443.00 124.00" xmlns="http://www.w3.org/2000/svg" xmlns:xlink="http://www.w3.org/1999/xlink">
<g id="graph0" class="graph" transform="scale(1 1) rotate(0) translate(4 120)">
<title>G</title>
<polygon fill="white" stroke="transparent" points="-4,4 -4,-120 439,-120 439,4 -4,4"/>
<text text-anchor="middle" x="217.5" y="-99.2" font-family="Times,serif" font-size="16.00">model=model4/nbcb_w_telemetry.json [aggregate]</text>
<!-- pressure -->
<g id="node1" class="node">
<title>pressure</title>
<path fill="white" stroke="black" d="M152.5,-36C152.5,-36 99.5,-36 99.5,-36 93.5,-36 87.5,-30 87.5,-24 87.5,-24 87.5,-12 87.5,-12 87.5,-6 93.5,0 99.5,0 99.5,0 152.5,0 152.5,0 158.5,0 164.5,-6 164.5,-12 164.5,-12 164.5,-24 164.5,-24 164.5,-30 158.5,-36 152.5,-36"/>
<text text-anchor="middle" x="126" y="-14.3" font-family="Helvetica,sans-Serif" font-size="14.00">pressure</text>
</g>
<!-- rotate -->
<g id="node2" class="node">
<title>rotate</title>
<path fill="white" stroke="black" d="M246,-90C246,-90 213,-90 213,-90 207,-90 201,-84 201,-78 201,-78 201,-66 201,-66 201,-60 207,-54 213,-54 213,-54 246,-54 246,-54 252,-54 258,-60 258,-66 258,-66 258,-78 258,-78 258,-84 252,-90 246,-90"/>
<text text-anchor="middle" x="229.5" y="-68.3" font-family="Helvetica,sans-Serif" font-size="14.00">rotate</text>
</g>
<!-- volt -->
<g id="node4" class="node">
<title>volt</title>
<path fill="white" stroke="black" d="M336,-90C336,-90 306,-90 306,-90 300,-90 294,-84 294,-78 294,-78 294,-66 294,-66 294,-60 300,-54 306,-54 306,-54 336,-54 336,-54 342,-54 348,-60 348,-66 348,-66 348,-78 348,-78 348,-84 342,-90 336,-90"/>
<text text-anchor="middle" x="321" y="-68.3" font-family="Helvetica,sans-Serif" font-size="14.00">volt</text>
</g>
<!-- rotate&#45;&gt;volt -->
<g id="edge2" class="edge">
<title>rotate&#45;&gt;volt</title>
<path fill="none" stroke="black" stroke-width="1.2" d="M258.33,-72C266.35,-72 275.23,-72 283.69,-72"/>
<polygon fill="black" stroke="black" stroke-width="1.2" points="283.72,-75.5 293.72,-72 283.72,-68.5 283.72,-75.5"/>
</g>
<!-- vibration -->
<g id="node3" class="node">
<title>vibration</title>
<path fill="white" stroke="black" d="M153,-90C153,-90 99,-90 99,-90 93,-90 87,-84 87,-78 87,-78 87,-66 87,-66 87,-60 93,-54 99,-54 99,-54 153,-54 153,-54 159,-54 165,-60 165,-66 165,-66 165,-78 165,-78 165,-84 159,-90 153,-90"/>
<text text-anchor="middle" x="126" y="-68.3" font-family="Helvetica,sans-Serif" font-size="14.00">vibration</text>
</g>
<!-- vibration&#45;&gt;rotate -->
<g id="edge1" class="edge">
<title>vibration&#45;&gt;rotate</title>
<path fill="none" stroke="black" stroke-width="1.2" d="M165.08,-72C173.47,-72 182.35,-72 190.72,-72"/>
<polygon fill="black" stroke="black" stroke-width="1.2" points="190.98,-75.5 200.98,-72 190.98,-68.5 190.98,-75.5"/>
</g>
</g>
</svg>
