<?xml version="1.0" encoding="UTF-8" standalone="no"?>
<!DOCTYPE svg PUBLIC "-//W3C//DTD SVG 1.1//EN"
 "http://www.w3.org/Graphics/SVG/1.1/DTD/svg11.dtd">
<!-- Generated by graphviz version 2.50.0 (0)
 -->
<!-- Title: G Pages: 1 -->
<svg width="1289pt" height="788pt"
 viewBox="0.00 0.00 1289.00 788.00" xmlns="http://www.w3.org/2000/svg" xmlns:xlink="http://www.w3.org/1999/xlink">
<g id="graph0" class="graph" transform="scale(1 1) rotate(0) translate(4 784)">
<title>G</title>
<polygon fill="white" stroke="transparent" points="-4,4 -4,-784 1285,-784 1285,4 -4,4"/>
<text text-anchor="middle" x="640.5" y="-763.2" font-family="Times,serif" font-size="16.00">model=model2/nbcb_w_mixed.json [machine 20]</text>
<!-- volt -->
<g id="node1" class="node">
<title>volt</title>
<path fill="white" stroke="black" d="M42,-376C42,-376 12,-376 12,-376 6,-376 0,-370 0,-364 0,-364 0,-352 0,-352 0,-346 6,-340 12,-340 12,-340 42,-340 42,-340 48,-340 54,-346 54,-352 54,-352 54,-364 54,-364 54,-370 48,-376 42,-376"/>
<text text-anchor="middle" x="27" y="-354.3" font-family="Helvetica,sans-Serif" font-size="14.00">volt</text>
</g>
<!-- rotate -->
<g id="node2" class="node">
<title>rotate</title>
<path fill="white" stroke="black" d="M135,-338C135,-338 102,-338 102,-338 96,-338 90,-332 90,-326 90,-326 90,-314 90,-314 90,-308 96,-302 102,-302 102,-302 135,-302 135,-302 141,-302 147,-308 147,-314 147,-314 147,-326 147,-326 147,-332 141,-338 135,-338"/>
<text text-anchor="middle" x="118.5" y="-316.3" font-family="Helvetica,sans-Serif" font-size="14.00">rotate</text>
</g>
<!-- volt&#45;&gt;rotate -->
<g id="edge1" class="edge">
<title>volt&#45;&gt;rotate</title>
<path fill="none" stroke="black" stroke-width="1.2" d="M54.37,-346.8C62.55,-343.33 71.72,-339.44 80.48,-335.72"/>
<polygon fill="black" stroke="black" stroke-width="1.2" points="81.93,-338.91 89.76,-331.78 79.19,-332.46 81.93,-338.91"/>
</g>
<!-- err_error1 -->
<g id="node5" class="node">
<title>err_error1</title>
<path fill="white" stroke="black" d="M752.5,-292C752.5,-292 691.5,-292 691.5,-292 685.5,-292 679.5,-286 679.5,-280 679.5,-280 679.5,-268 679.5,-268 679.5,-262 685.5,-256 691.5,-256 691.5,-256 752.5,-256 752.5,-256 758.5,-256 764.5,-262 764.5,-268 764.5,-268 764.5,-280 764.5,-280 764.5,-286 758.5,-292 752.5,-292"/>
<text text-anchor="middle" x="722" y="-270.3" font-family="Helvetica,sans-Serif" font-size="14.00">err_error1</text>
</g>
<!-- volt&#45;&gt;err_error1 -->
<g id="edge3" class="edge">
<title>volt&#45;&gt;err_error1</title>
<path fill="none" stroke="black" stroke-width="1.2" d="M38.54,-330.36C61.96,-274.19 123.99,-152 220.5,-152 220.5,-152 220.5,-152 467.5,-152 556.7,-152 647.65,-214.09 692.45,-249.68"/>
<polygon fill="black" stroke="black" stroke-width="1.2" points="35.26,-329.14 34.74,-339.72 41.74,-331.77 35.26,-329.14"/>
<polygon fill="black" stroke="black" stroke-width="1.2" points="690.29,-252.44 700.27,-256 694.69,-246.99 690.29,-252.44"/>
</g>
<!-- err_error4 -->
<g id="node8" class="node">
<title>err_error4</title>
<path fill="white" stroke="black" d="M621.5,-514C621.5,-514 560.5,-514 560.5,-514 554.5,-514 548.5,-508 548.5,-502 548.5,-502 548.5,-490 548.5,-490 548.5,-484 554.5,-478 560.5,-478 560.5,-478 621.5,-478 621.5,-478 627.5,-478 633.5,-484 633.5,-490 633.5,-490 633.5,-502 633.5,-502 633.5,-508 627.5,-514 621.5,-514"/>
<text text-anchor="middle" x="591" y="-492.3" font-family="Helvetica,sans-Serif" font-size="14.00">err_error4</text>
</g>
<!-- volt&#45;&gt;err_error4 -->
<g id="edge5" class="edge">
<title>volt&#45;&gt;err_error4</title>
<path fill="none" stroke="black" stroke-width="1.2" d="M39.08,-376.24C50.2,-393.29 68.69,-418.51 90,-435 125.87,-462.75 139.12,-465.54 183,-477 307.28,-509.47 460.04,-505.44 538.34,-500.35"/>
<polygon fill="black" stroke="black" stroke-width="1.2" points="538.69,-503.83 548.43,-499.66 538.21,-496.85 538.69,-503.83"/>
</g>
<!-- mnt_comp2 -->
<g id="node11" class="node">
<title>mnt_comp2</title>
<path fill="white" stroke="black" d="M1135,-246C1135,-246 1061,-246 1061,-246 1055,-246 1049,-240 1049,-234 1049,-234 1049,-222 1049,-222 1049,-216 1055,-210 1061,-210 1061,-210 1135,-210 1135,-210 1141,-210 1147,-216 1147,-222 1147,-222 1147,-234 1147,-234 1147,-240 1141,-246 1135,-246"/>
<text text-anchor="middle" x="1098" y="-224.3" font-family="Helvetica,sans-Serif" font-size="14.00">mnt_comp2</text>
</g>
<!-- volt&#45;&gt;mnt_comp2 -->
<g id="edge8" class="edge">
<title>volt&#45;&gt;mnt_comp2</title>
<path fill="none" stroke="black" stroke-width="1.2" d="M28.53,-339.73C30.58,-297.72 40.67,-192.58 90,-124 130.56,-67.61 151.04,-38 220.5,-38 220.5,-38 220.5,-38 723,-38 866.98,-38 1011.63,-151.32 1070.05,-202.93"/>
<polygon fill="black" stroke="black" stroke-width="1.2" points="1067.92,-205.72 1077.71,-209.78 1072.59,-200.51 1067.92,-205.72"/>
</g>
<!-- mnt_comp4 -->
<g id="node13" class="node">
<title>mnt_comp4</title>
<path fill="white" stroke="black" d="M759,-151C759,-151 685,-151 685,-151 679,-151 673,-145 673,-139 673,-139 673,-127 673,-127 673,-121 679,-115 685,-115 685,-115 759,-115 759,-115 765,-115 771,-121 771,-127 771,-127 771,-139 771,-139 771,-145 765,-151 759,-151"/>
<text text-anchor="middle" x="722" y="-129.3" font-family="Helvetica,sans-Serif" font-size="14.00">mnt_comp4</text>
</g>
<!-- volt&#45;&gt;mnt_comp4 -->
<g id="edge9" class="edge">
<title>volt&#45;&gt;mnt_comp4</title>
<path fill="none" stroke="black" stroke-width="1.2" d="M29.4,-339.96C33.08,-304.05 46.05,-222.88 90,-174 132.69,-126.53 156.66,-114 220.5,-114 220.5,-114 220.5,-114 467.5,-114 534.6,-114 611.4,-120.7 662.72,-126.14"/>
<polygon fill="black" stroke="black" stroke-width="1.2" points="662.64,-129.65 672.95,-127.25 663.39,-122.69 662.64,-129.65"/>
</g>
<!-- fail_comp1 -->
<g id="node14" class="node">
<title>fail_comp1</title>
<path fill="white" stroke="black" d="M1001,-658C1001,-658 933,-658 933,-658 927,-658 921,-652 921,-646 921,-646 921,-634 921,-634 921,-628 927,-622 933,-622 933,-622 1001,-622 1001,-622 1007,-622 1013,-628 1013,-634 1013,-634 1013,-646 1013,-646 1013,-652 1007,-658 1001,-658"/>
<text text-anchor="middle" x="967" y="-636.3" font-family="Helvetica,sans-Serif" font-size="14.00">fail_comp1</text>
</g>
<!-- volt&#45;&gt;fail_comp1 -->
<g id="edge10" class="edge">
<title>volt&#45;&gt;fail_comp1</title>
<path fill="none" stroke="black" stroke-width="1.2" d="M30.65,-386.42C37.49,-454.98 57.52,-627.26 90,-674 128.82,-729.87 152.47,-754 220.5,-754 220.5,-754 220.5,-754 723,-754 806.83,-754 892.85,-697.7 936.57,-664.23"/>
<polygon fill="black" stroke="black" stroke-width="1.2" points="34.12,-385.95 29.66,-376.34 27.15,-386.63 34.12,-385.95"/>
<polygon fill="black" stroke="black" stroke-width="1.2" points="938.75,-666.97 944.49,-658.06 934.45,-661.45 938.75,-666.97"/>
</g>
<!-- pressure -->
<g id="node3" class="node">
<title>pressure</title>
<path fill="white" stroke="black" d="M248,-468C248,-468 195,-468 195,-468 189,-468 183,-462 183,-456 183,-456 183,-444 183,-444 183,-438 189,-432 195,-432 195,-432 248,-432 248,-432 254,-432 260,-438 260,-444 260,-444 260,-456 260,-456 260,-462 254,-468 248,-468"/>
<text text-anchor="middle" x="221.5" y="-446.3" font-family="Helvetica,sans-Serif" font-size="14.00">pressure</text>
</g>
<!-- rotate&#45;&gt;pressure -->
<g id="edge11" class="edge">
<title>rotate&#45;&gt;pressure</title>
<path fill="none" stroke="black" stroke-width="1.2" d="M133.54,-338.08C150.78,-360.26 180.16,-398.08 199.94,-423.54"/>
<polygon fill="black" stroke="black" stroke-width="1.2" points="197.35,-425.91 206.25,-431.66 202.88,-421.61 197.35,-425.91"/>
</g>
<!-- err_error2 -->
<g id="node6" class="node">
<title>err_error2</title>
<path fill="white" stroke="black" d="M372.5,-384C372.5,-384 311.5,-384 311.5,-384 305.5,-384 299.5,-378 299.5,-372 299.5,-372 299.5,-360 299.5,-360 299.5,-354 305.5,-348 311.5,-348 311.5,-348 372.5,-348 372.5,-348 378.5,-348 384.5,-354 384.5,-360 384.5,-360 384.5,-372 384.5,-372 384.5,-378 378.5,-384 372.5,-384"/>
<text text-anchor="middle" x="342" y="-362.3" font-family="Helvetica,sans-Serif" font-size="14.00">err_error2</text>
</g>
<!-- rotate&#45;&gt;err_error2 -->
<g id="edge13" class="edge">
<title>rotate&#45;&gt;err_error2</title>
<path fill="none" stroke="black" stroke-width="1.2" d="M147.3,-326.24C158.39,-328.7 171.29,-331.52 183,-334 218.43,-341.49 258.4,-349.58 289.27,-355.76"/>
<polygon fill="black" stroke="black" stroke-width="1.2" points="288.89,-359.25 299.38,-357.77 290.26,-352.38 288.89,-359.25"/>
</g>
<!-- mnt_comp1 -->
<g id="node10" class="node">
<title>mnt_comp1</title>
<path fill="white" stroke="black" d="M1269,-246C1269,-246 1195,-246 1195,-246 1189,-246 1183,-240 1183,-234 1183,-234 1183,-222 1183,-222 1183,-216 1189,-210 1195,-210 1195,-210 1269,-210 1269,-210 1275,-210 1281,-216 1281,-222 1281,-222 1281,-234 1281,-234 1281,-240 1275,-246 1269,-246"/>
<text text-anchor="middle" x="1232" y="-224.3" font-family="Helvetica,sans-Serif" font-size="14.00">mnt_comp1</text>
</g>
<!-- rotate&#45;&gt;mnt_comp1 -->
<g id="edge15" class="edge">
<title>rotate&#45;&gt;mnt_comp1</title>
<path fill="none" stroke="black" stroke-width="1.2" d="M125.83,-301.66C146.72,-244.92 219.14,-76 341,-76 341,-76 341,-76 968,-76 1068,-76 1164.15,-159.39 1207.29,-202.64"/>
<polygon fill="black" stroke="black" stroke-width="1.2" points="1204.98,-205.28 1214.48,-209.97 1209.97,-200.38 1204.98,-205.28"/>
</g>
<!-- rotate&#45;&gt;fail_comp1 -->
<g id="edge17" class="edge">
<title>rotate&#45;&gt;fail_comp1</title>
<path fill="none" stroke="black" stroke-width="1.2" d="M125.33,-348.52C133.43,-382.33 150.86,-438.86 183,-477 308.57,-626 395.14,-640 590,-640 590,-640 590,-640 723,-640 787.4,-640 861.39,-640 910.64,-640"/>
<polygon fill="black" stroke="black" stroke-width="1.2" points="128.66,-347.37 123.02,-338.4 121.83,-348.93 128.66,-347.37"/>
<polygon fill="black" stroke="black" stroke-width="1.2" points="910.77,-643.5 920.77,-640 910.77,-636.5 910.77,-643.5"/>
</g>
<!-- fail_comp2 -->
<g id="node15" class="node">
<title>fail_comp2</title>
<path fill="white" stroke="black" d="M376,-254C376,-254 308,-254 308,-254 302,-254 296,-248 296,-242 296,-242 296,-230 296,-230 296,-224 302,-218 308,-218 308,-218 376,-218 376,-218 382,-218 388,-224 388,-230 388,-230 388,-242 388,-242 388,-248 382,-254 376,-254"/>
<text text-anchor="middle" x="342" y="-232.3" font-family="Helvetica,sans-Serif" font-size="14.00">fail_comp2</text>
</g>
<!-- rotate&#45;&gt;fail_comp2 -->
<g id="edge18" class="edge">
<title>rotate&#45;&gt;fail_comp2</title>
<path fill="none" stroke="black" stroke-width="1.2" d="M136.74,-301.91C148.66,-290.46 165.49,-276.31 183,-268 215.15,-252.75 254.33,-244.75 285.63,-240.57"/>
<polygon fill="black" stroke="black" stroke-width="1.2" points="286.43,-244 295.92,-239.29 285.57,-237.05 286.43,-244"/>
</g>
<!-- pressure&#45;&gt;volt -->
<g id="edge2" class="edge">
<title>pressure&#45;&gt;volt</title>
<path fill="none" stroke="black" stroke-width="1.2" d="M182.93,-442.69C155.97,-436.46 119.36,-425.95 90,-410 76.82,-402.84 63.85,-392.6 53.2,-383.11"/>
<polygon fill="black" stroke="black" stroke-width="1.2" points="55.28,-380.26 45.55,-376.05 50.53,-385.4 55.28,-380.26"/>
</g>
<!-- vibration -->
<g id="node4" class="node">
<title>vibration</title>
<path fill="white" stroke="black" d="M873,-514C873,-514 819,-514 819,-514 813,-514 807,-508 807,-502 807,-502 807,-490 807,-490 807,-484 813,-478 819,-478 819,-478 873,-478 873,-478 879,-478 885,-484 885,-490 885,-490 885,-502 885,-502 885,-508 879,-514 873,-514"/>
<text text-anchor="middle" x="846" y="-492.3" font-family="Helvetica,sans-Serif" font-size="14.00">vibration</text>
</g>
<!-- pressure&#45;&gt;vibration -->
<g id="edge19" class="edge">
<title>pressure&#45;&gt;vibration</title>
<path fill="none" stroke="black" stroke-width="1.2" d="M257.67,-468.05C269.58,-473.55 283.14,-479.15 296,-483 442.19,-526.73 484.58,-530.38 637,-523 696.77,-520.11 711.77,-518.46 771,-510 779.37,-508.8 788.24,-507.32 796.82,-505.77"/>
<polygon fill="black" stroke="black" stroke-width="1.2" points="797.51,-509.2 806.7,-503.93 796.23,-502.32 797.51,-509.2"/>
</g>
<!-- pressure&#45;&gt;err_error2 -->
<g id="edge20" class="edge">
<title>pressure&#45;&gt;err_error2</title>
<path fill="none" stroke="black" stroke-width="1.2" d="M247.92,-431.98C265.14,-419.77 288.1,-403.5 306.9,-390.17"/>
<polygon fill="black" stroke="black" stroke-width="1.2" points="309.08,-392.92 315.21,-384.28 305.03,-387.21 309.08,-392.92"/>
</g>
<!-- pressure&#45;&gt;err_error4 -->
<g id="edge21" class="edge">
<title>pressure&#45;&gt;err_error4</title>
<path fill="none" stroke="black" stroke-width="1.2" d="M270.09,-459.64C278.69,-461.22 287.6,-462.74 296,-464 380.55,-476.63 479.49,-486.37 538.33,-491.63"/>
<polygon fill="black" stroke="black" stroke-width="1.2" points="270.65,-456.18 260.17,-457.77 269.35,-463.06 270.65,-456.18"/>
<polygon fill="black" stroke="black" stroke-width="1.2" points="538.21,-495.14 548.48,-492.53 538.83,-488.16 538.21,-495.14"/>
</g>
<!-- fail_comp3 -->
<g id="node16" class="node">
<title>fail_comp3</title>
<path fill="white" stroke="black" d="M1001,-346C1001,-346 933,-346 933,-346 927,-346 921,-340 921,-334 921,-334 921,-322 921,-322 921,-316 927,-310 933,-310 933,-310 1001,-310 1001,-310 1007,-310 1013,-316 1013,-322 1013,-322 1013,-334 1013,-334 1013,-340 1007,-346 1001,-346"/>
<text text-anchor="middle" x="967" y="-324.3" font-family="Helvetica,sans-Serif" font-size="14.00">fail_comp3</text>
</g>
<!-- pressure&#45;&gt;fail_comp3 -->
<g id="edge24" class="edge">
<title>pressure&#45;&gt;fail_comp3</title>
<path fill="none" stroke="black" stroke-width="1.2" d="M260.38,-450C308.19,-450 392.94,-450 465.5,-450 465.5,-450 465.5,-450 723,-450 809.03,-450 895.73,-388.17 938.54,-352.54"/>
<polygon fill="black" stroke="black" stroke-width="1.2" points="940.89,-355.14 946.26,-346 936.37,-349.79 940.89,-355.14"/>
</g>
<!-- fail_comp4 -->
<g id="node17" class="node">
<title>fail_comp4</title>
<path fill="white" stroke="black" d="M625,-346C625,-346 557,-346 557,-346 551,-346 545,-340 545,-334 545,-334 545,-322 545,-322 545,-316 551,-310 557,-310 557,-310 625,-310 625,-310 631,-310 637,-316 637,-322 637,-322 637,-334 637,-334 637,-340 631,-346 625,-346"/>
<text text-anchor="middle" x="591" y="-324.3" font-family="Helvetica,sans-Serif" font-size="14.00">fail_comp4</text>
</g>
<!-- pressure&#45;&gt;fail_comp4 -->
<g id="edge25" class="edge">
<title>pressure&#45;&gt;fail_comp4</title>
<path fill="none" stroke="black" stroke-width="1.2" d="M260.3,-438.01C294.07,-427.06 344.74,-410.03 388,-393 404.29,-386.59 407.57,-383.05 424,-377 460.42,-363.6 502.34,-351.25 534.94,-342.3"/>
<polygon fill="black" stroke="black" stroke-width="1.2" points="536.01,-345.64 544.74,-339.63 534.17,-338.88 536.01,-345.64"/>
</g>
<!-- err_error5 -->
<g id="node9" class="node">
<title>err_error5</title>
<path fill="white" stroke="black" d="M997.5,-582C997.5,-582 936.5,-582 936.5,-582 930.5,-582 924.5,-576 924.5,-570 924.5,-570 924.5,-558 924.5,-558 924.5,-552 930.5,-546 936.5,-546 936.5,-546 997.5,-546 997.5,-546 1003.5,-546 1009.5,-552 1009.5,-558 1009.5,-558 1009.5,-570 1009.5,-570 1009.5,-576 1003.5,-582 997.5,-582"/>
<text text-anchor="middle" x="967" y="-560.3" font-family="Helvetica,sans-Serif" font-size="14.00">err_error5</text>
</g>
<!-- vibration&#45;&gt;err_error5 -->
<g id="edge27" class="edge">
<title>vibration&#45;&gt;err_error5</title>
<path fill="none" stroke="black" stroke-width="1.2" d="M887.34,-519.05C899.66,-526.09 913.22,-533.84 925.55,-540.88"/>
<polygon fill="black" stroke="black" stroke-width="1.2" points="889,-515.97 878.58,-514.04 885.52,-522.04 889,-515.97"/>
<polygon fill="black" stroke="black" stroke-width="1.2" points="923.86,-543.95 934.28,-545.87 927.33,-537.87 923.86,-543.95"/>
</g>
<!-- vibration&#45;&gt;fail_comp1 -->
<g id="edge29" class="edge">
<title>vibration&#45;&gt;fail_comp1</title>
<path fill="none" stroke="black" stroke-width="1.2" d="M860.49,-514.2C875.01,-533.59 898.99,-564.99 921,-591 927.47,-598.64 934.71,-606.72 941.47,-614.07"/>
<polygon fill="black" stroke="black" stroke-width="1.2" points="939.18,-616.75 948.54,-621.7 944.31,-611.99 939.18,-616.75"/>
</g>
<!-- vibration&#45;&gt;fail_comp3 -->
<g id="edge30" class="edge">
<title>vibration&#45;&gt;fail_comp3</title>
<path fill="none" stroke="black" stroke-width="1.2" d="M878.75,-470.72C880.95,-468.53 883.06,-466.28 885,-464 913.93,-429.94 938.79,-384.27 953.08,-355.49"/>
<polygon fill="black" stroke="black" stroke-width="1.2" points="876.01,-468.49 871.05,-477.85 880.76,-473.63 876.01,-468.49"/>
<polygon fill="black" stroke="black" stroke-width="1.2" points="956.26,-356.94 957.51,-346.42 949.97,-353.87 956.26,-356.94"/>
</g>
<!-- vibration&#45;&gt;fail_comp4 -->
<g id="edge31" class="edge">
<title>vibration&#45;&gt;fail_comp4</title>
<path fill="none" stroke="black" stroke-width="1.2" d="M835.34,-477.66C823.04,-455.92 799.89,-419.89 771,-398 760.56,-390.09 695.58,-365.54 646.89,-347.75"/>
<polygon fill="black" stroke="black" stroke-width="1.2" points="647.99,-344.42 637.39,-344.29 645.59,-351 647.99,-344.42"/>
</g>
<!-- err_error1&#45;&gt;rotate -->
<g id="edge12" class="edge">
<title>err_error1&#45;&gt;rotate</title>
<path fill="none" stroke="black" stroke-width="1.2" d="M679.3,-276.12C629.07,-278.49 542.13,-282 467.5,-282 341,-282 341,-282 341,-282 275.62,-282 200.93,-298.28 157.13,-309.53"/>
<polygon fill="black" stroke="black" stroke-width="1.2" points="156,-306.21 147.21,-312.13 157.77,-312.98 156,-306.21"/>
</g>
<!-- err_error2&#45;&gt;volt -->
<g id="edge4" class="edge">
<title>err_error2&#45;&gt;volt</title>
<path fill="none" stroke="black" stroke-width="1.2" d="M299.32,-364.93C237.61,-363.36 122.92,-360.43 64.4,-358.93"/>
<polygon fill="black" stroke="black" stroke-width="1.2" points="64.23,-355.43 54.15,-358.67 64.06,-362.42 64.23,-355.43"/>
</g>
<!-- err_error3 -->
<g id="node7" class="node">
<title>err_error3</title>
<path fill="white" stroke="black" d="M497,-422C497,-422 436,-422 436,-422 430,-422 424,-416 424,-410 424,-410 424,-398 424,-398 424,-392 430,-386 436,-386 436,-386 497,-386 497,-386 503,-386 509,-392 509,-398 509,-398 509,-410 509,-410 509,-416 503,-422 497,-422"/>
<text text-anchor="middle" x="466.5" y="-400.3" font-family="Helvetica,sans-Serif" font-size="14.00">err_error3</text>
</g>
<!-- err_error2&#45;&gt;err_error3 -->
<g id="edge33" class="edge">
<title>err_error2&#45;&gt;err_error3</title>
<path fill="none" stroke="black" stroke-width="1.2" d="M384.81,-378.97C394.28,-381.91 404.43,-385.05 414.23,-388.1"/>
<polygon fill="black" stroke="black" stroke-width="1.2" points="413.29,-391.47 423.87,-391.09 415.36,-384.78 413.29,-391.47"/>
</g>
<!-- err_error3&#45;&gt;rotate -->
<g id="edge14" class="edge">
<title>err_error3&#45;&gt;rotate</title>
<path fill="none" stroke="black" stroke-width="1.2" d="M450.05,-385.79C435.73,-370.32 412.91,-349.07 388,-339 310.63,-307.71 210.53,-310.83 157.08,-315.58"/>
<polygon fill="black" stroke="black" stroke-width="1.2" points="156.65,-312.1 147.03,-316.54 157.32,-319.07 156.65,-312.1"/>
</g>
<!-- err_error3&#45;&gt;err_error4 -->
<g id="edge34" class="edge">
<title>err_error3&#45;&gt;err_error4</title>
<path fill="none" stroke="black" stroke-width="1.2" d="M491.7,-422.18C510.58,-436.35 536.97,-456.17 557.66,-471.71"/>
<polygon fill="black" stroke="black" stroke-width="1.2" points="555.75,-474.65 565.85,-477.86 559.95,-469.06 555.75,-474.65"/>
</g>
<!-- err_error3&#45;&gt;err_error5 -->
<g id="edge35" class="edge">
<title>err_error3&#45;&gt;err_error5</title>
<path fill="none" stroke="black" stroke-width="1.2" d="M509.2,-419.9C572.87,-443.89 698.38,-490.02 807,-523 842.57,-533.8 883.15,-544.23 914.41,-551.87"/>
<polygon fill="black" stroke="black" stroke-width="1.2" points="913.68,-555.3 924.22,-554.25 915.33,-548.49 913.68,-555.3"/>
</g>
<!-- mnt_comp3 -->
<g id="node12" class="node">
<title>mnt_comp3</title>
<path fill="white" stroke="black" d="M759,-346C759,-346 685,-346 685,-346 679,-346 673,-340 673,-334 673,-334 673,-322 673,-322 673,-316 679,-310 685,-310 685,-310 759,-310 759,-310 765,-310 771,-316 771,-322 771,-322 771,-334 771,-334 771,-340 765,-346 759,-346"/>
<text text-anchor="middle" x="722" y="-324.3" font-family="Helvetica,sans-Serif" font-size="14.00">mnt_comp3</text>
</g>
<!-- err_error3&#45;&gt;mnt_comp3 -->
<g id="edge36" class="edge">
<title>err_error3&#45;&gt;mnt_comp3</title>
<path fill="none" stroke="black" stroke-width="1.2" d="M509.05,-392.36C543.43,-382.64 593.49,-368.28 637,-355 645.41,-352.43 654.27,-349.66 662.96,-346.9"/>
<polygon fill="black" stroke="black" stroke-width="1.2" points="664.2,-350.18 672.66,-343.81 662.07,-343.51 664.2,-350.18"/>
</g>
<!-- err_error3&#45;&gt;fail_comp4 -->
<g id="edge37" class="edge">
<title>err_error3&#45;&gt;fail_comp4</title>
<path fill="none" stroke="black" stroke-width="1.2" d="M496.53,-385.99C513.19,-375.65 534.3,-362.56 552.23,-351.43"/>
<polygon fill="black" stroke="black" stroke-width="1.2" points="554.1,-354.39 560.75,-346.15 550.41,-348.44 554.1,-354.39"/>
</g>
<!-- err_error4&#45;&gt;vibration -->
<g id="edge26" class="edge">
<title>err_error4&#45;&gt;vibration</title>
<path fill="none" stroke="black" stroke-width="1.2" d="M633.78,-496C678.53,-496 749.47,-496 796.62,-496"/>
<polygon fill="black" stroke="black" stroke-width="1.2" points="796.89,-499.5 806.89,-496 796.89,-492.5 796.89,-499.5"/>
</g>
<!-- err_error5&#45;&gt;volt -->
<g id="edge6" class="edge">
<title>err_error5&#45;&gt;volt</title>
<path fill="none" stroke="black" stroke-width="1.2" d="M941.14,-582.03C883.09,-622.3 732.88,-716 592,-716 220.5,-716 220.5,-716 220.5,-716 71.09,-716 37.15,-471.14 29.88,-386.43"/>
<polygon fill="black" stroke="black" stroke-width="1.2" points="33.35,-385.94 29.07,-376.25 26.37,-386.49 33.35,-385.94"/>
</g>
<!-- err_error5&#45;&gt;pressure -->
<g id="edge22" class="edge">
<title>err_error5&#45;&gt;pressure</title>
<path fill="none" stroke="black" stroke-width="1.2" d="M924.17,-574.59C875.99,-585.83 794.31,-602 723,-602 590,-602 590,-602 590,-602 452.95,-602 416.83,-573.67 296,-509 279.03,-499.92 262.15,-486.73 248.84,-475.13"/>
<polygon fill="black" stroke="black" stroke-width="1.2" points="250.84,-472.22 241.06,-468.16 246.17,-477.43 250.84,-472.22"/>
</g>
<!-- mnt_comp1&#45;&gt;volt -->
<g id="edge7" class="edge">
<title>mnt_comp1&#45;&gt;volt</title>
<path fill="none" stroke="black" stroke-width="1.2" d="M1223.75,-209.85C1211.61,-181.36 1184.72,-125.82 1147,-91 1081.43,-30.46 1057.25,0 968,0 220.5,0 220.5,0 220.5,0 157.56,0 129.91,-6.33 90,-55 55.49,-97.08 36.76,-262.51 30.45,-329.55"/>
<polygon fill="black" stroke="black" stroke-width="1.2" points="26.94,-329.52 29.52,-339.8 33.91,-330.16 26.94,-329.52"/>
</g>
<!-- mnt_comp2&#45;&gt;rotate -->
<g id="edge16" class="edge">
<title>mnt_comp2&#45;&gt;rotate</title>
<path fill="none" stroke="black" stroke-width="1.2" d="M1048.94,-216.29C998.84,-205.12 917.9,-190 847,-190 341,-190 341,-190 341,-190 267.35,-190 243.66,-198.22 183,-240 162.98,-253.79 146.19,-275.76 134.91,-293.18"/>
<polygon fill="black" stroke="black" stroke-width="1.2" points="131.85,-291.48 129.53,-301.82 137.79,-295.18 131.85,-291.48"/>
</g>
<!-- mnt_comp2&#45;&gt;mnt_comp1 -->
<g id="edge38" class="edge">
<title>mnt_comp2&#45;&gt;mnt_comp1</title>
<path fill="none" stroke="black" stroke-width="1.2" d="M1147.03,-228C1155.31,-228 1164,-228 1172.52,-228"/>
<polygon fill="black" stroke="black" stroke-width="1.2" points="1172.79,-231.5 1182.79,-228 1172.79,-224.5 1172.79,-231.5"/>
</g>
<!-- mnt_comp2&#45;&gt;mnt_comp3 -->
<g id="edge41" class="edge">
<title>mnt_comp2&#45;&gt;mnt_comp3</title>
<path fill="none" stroke="black" stroke-width="1.2" d="M1048.76,-240.9C980.21,-259.23 854.77,-292.77 781.16,-312.45"/>
<polygon fill="black" stroke="black" stroke-width="1.2" points="779.88,-309.17 771.13,-315.13 781.69,-315.93 779.88,-309.17"/>
</g>
<!-- mnt_comp3&#45;&gt;vibration -->
<g id="edge28" class="edge">
<title>mnt_comp3&#45;&gt;vibration</title>
<path fill="none" stroke="black" stroke-width="1.2" d="M755.2,-346.29C760.86,-350.36 766.4,-354.97 771,-360 800.69,-392.48 822.67,-439.03 834.66,-468.38"/>
<polygon fill="black" stroke="black" stroke-width="1.2" points="831.53,-469.99 838.48,-477.99 838.03,-467.4 831.53,-469.99"/>
</g>
<!-- fail_comp1&#45;&gt;pressure -->
<g id="edge23" class="edge">
<title>fail_comp1&#45;&gt;pressure</title>
<path fill="none" stroke="black" stroke-width="1.2" d="M920.77,-649.22C909.16,-651.2 896.66,-653 885,-654 734.44,-666.92 693.01,-684.46 545,-654 427.02,-629.72 390.85,-621.24 296,-547 271.4,-527.74 250.69,-498.37 237.59,-476.99"/>
<polygon fill="black" stroke="black" stroke-width="1.2" points="240.58,-475.17 232.45,-468.37 234.57,-478.75 240.58,-475.17"/>
</g>
<!-- fail_comp1&#45;&gt;mnt_comp1 -->
<g id="edge39" class="edge">
<title>fail_comp1&#45;&gt;mnt_comp1</title>
<path fill="none" stroke="black" stroke-width="1.2" d="M986.46,-621.69C994.99,-612.8 1004.98,-601.73 1013,-591 1101.15,-473.07 1184.8,-317.48 1217.04,-255.34"/>
<polygon fill="black" stroke="black" stroke-width="1.2" points="1220.29,-256.68 1221.77,-246.19 1214.07,-253.47 1220.29,-256.68"/>
</g>
<!-- fail_comp2&#45;&gt;mnt_comp2 -->
<g id="edge42" class="edge">
<title>fail_comp2&#45;&gt;mnt_comp2</title>
<path fill="none" stroke="black" stroke-width="1.2" d="M388.06,-233.66C437.56,-231.3 519.42,-228 590,-228 590,-228 590,-228 847,-228 912.58,-228 987.83,-228 1038.5,-228"/>
<polygon fill="black" stroke="black" stroke-width="1.2" points="1038.61,-231.5 1048.61,-228 1038.61,-224.5 1038.61,-231.5"/>
</g>
<!-- fail_comp3&#45;&gt;mnt_comp1 -->
<g id="edge40" class="edge">
<title>fail_comp3&#45;&gt;mnt_comp1</title>
<path fill="none" stroke="black" stroke-width="1.2" d="M1013.21,-310.81C1057.68,-293.9 1125.73,-268.03 1173.91,-249.71"/>
<polygon fill="black" stroke="black" stroke-width="1.2" points="1175.17,-252.97 1183.27,-246.15 1172.68,-246.43 1175.17,-252.97"/>
</g>
<!-- fail_comp3&#45;&gt;mnt_comp2 -->
<g id="edge43" class="edge">
<title>fail_comp3&#45;&gt;mnt_comp2</title>
<path fill="none" stroke="black" stroke-width="1.2" d="M991.36,-309.89C1012.05,-293.85 1042.44,-270.29 1065.32,-252.56"/>
<polygon fill="black" stroke="black" stroke-width="1.2" points="1067.62,-255.21 1073.38,-246.31 1063.33,-249.67 1067.62,-255.21"/>
</g>
<!-- fail_comp3&#45;&gt;mnt_comp3 -->
<g id="edge44" class="edge">
<title>fail_comp3&#45;&gt;mnt_comp3</title>
<path fill="none" stroke="black" stroke-width="1.2" d="M920.96,-328C881.51,-328 823.93,-328 781.03,-328"/>
<polygon fill="black" stroke="black" stroke-width="1.2" points="781.01,-324.5 771.01,-328 781.01,-331.5 781.01,-324.5"/>
</g>
<!-- fail_comp4&#45;&gt;err_error1 -->
<g id="edge32" class="edge">
<title>fail_comp4&#45;&gt;err_error1</title>
<path fill="none" stroke="black" stroke-width="1.2" d="M635.31,-309.87C646.41,-305.22 658.44,-300.19 669.89,-295.4"/>
<polygon fill="black" stroke="black" stroke-width="1.2" points="671.46,-298.53 679.33,-291.44 668.75,-292.08 671.46,-298.53"/>
</g>
<!-- fail_comp4&#45;&gt;mnt_comp3 -->
<g id="edge45" class="edge">
<title>fail_comp4&#45;&gt;mnt_comp3</title>
<path fill="none" stroke="black" stroke-width="1.2" d="M637.12,-328C645.28,-328 653.9,-328 662.38,-328"/>
<polygon fill="black" stroke="black" stroke-width="1.2" points="662.62,-331.5 672.62,-328 662.62,-324.5 662.62,-331.5"/>
</g>
<!-- fail_comp4&#45;&gt;mnt_comp4 -->
<g id="edge46" class="edge">
<title>fail_comp4&#45;&gt;mnt_comp4</title>
<path fill="none" stroke="black" stroke-width="1.2" d="M604.14,-309.65C627.05,-275.01 676.77,-199.85 703.37,-159.65"/>
<polygon fill="black" stroke="black" stroke-width="1.2" points="706.39,-161.43 708.99,-151.15 700.55,-157.56 706.39,-161.43"/>
</g>
</g>
</svg>
