<?xml version="1.0" encoding="UTF-8" standalone="no"?>
<!DOCTYPE svg PUBLIC "-//W3C//DTD SVG 1.1//EN"
 "http://www.w3.org/Graphics/SVG/1.1/DTD/svg11.dtd">
<!-- Generated by graphviz version 2.50.0 (0)
 -->
<!-- Title: G Pages: 1 -->
<svg width="1288pt" height="666pt"
 viewBox="0.00 0.00 1288.00 665.75" xmlns="http://www.w3.org/2000/svg" xmlns:xlink="http://www.w3.org/1999/xlink">
<g id="graph0" class="graph" transform="scale(1 1) rotate(0) translate(4 661.75)">
<title>G</title>
<polygon fill="white" stroke="transparent" points="-4,4 -4,-661.75 1284,-661.75 1284,4 -4,4"/>
<text text-anchor="middle" x="640" y="-640.95" font-family="Times,serif" font-size="16.00">model=model3/nbcb_w_mixed.json [machine 12]</text>
<!-- volt -->
<g id="node1" class="node">
<title>volt</title>
<path fill="white" stroke="black" d="M42,-240.75C42,-240.75 12,-240.75 12,-240.75 6,-240.75 0,-234.75 0,-228.75 0,-228.75 0,-216.75 0,-216.75 0,-210.75 6,-204.75 12,-204.75 12,-204.75 42,-204.75 42,-204.75 48,-204.75 54,-210.75 54,-216.75 54,-216.75 54,-228.75 54,-228.75 54,-234.75 48,-240.75 42,-240.75"/>
<text text-anchor="middle" x="27" y="-219.05" font-family="Helvetica,sans-Serif" font-size="14.00">volt</text>
</g>
<!-- pressure -->
<g id="node3" class="node">
<title>pressure</title>
<path fill="white" stroke="black" d="M155,-478.75C155,-478.75 102,-478.75 102,-478.75 96,-478.75 90,-472.75 90,-466.75 90,-466.75 90,-454.75 90,-454.75 90,-448.75 96,-442.75 102,-442.75 102,-442.75 155,-442.75 155,-442.75 161,-442.75 167,-448.75 167,-454.75 167,-454.75 167,-466.75 167,-466.75 167,-472.75 161,-478.75 155,-478.75"/>
<text text-anchor="middle" x="128.5" y="-457.05" font-family="Helvetica,sans-Serif" font-size="14.00">pressure</text>
</g>
<!-- volt&#45;&gt;pressure -->
<g id="edge1" class="edge">
<title>volt&#45;&gt;pressure</title>
<path fill="none" stroke="black" stroke-width="1.2" d="M31.97,-240.76C39.94,-274.99 59.77,-351.26 90,-409.75 94.28,-418.03 99.84,-426.42 105.36,-433.94"/>
<polygon fill="black" stroke="black" stroke-width="1.2" points="102.9,-436.48 111.75,-442.31 108.46,-432.23 102.9,-436.48"/>
</g>
<!-- err_error1 -->
<g id="node5" class="node">
<title>err_error1</title>
<path fill="white" stroke="black" d="M544.5,-549.75C544.5,-549.75 483.5,-549.75 483.5,-549.75 477.5,-549.75 471.5,-543.75 471.5,-537.75 471.5,-537.75 471.5,-525.75 471.5,-525.75 471.5,-519.75 477.5,-513.75 483.5,-513.75 483.5,-513.75 544.5,-513.75 544.5,-513.75 550.5,-513.75 556.5,-519.75 556.5,-525.75 556.5,-525.75 556.5,-537.75 556.5,-537.75 556.5,-543.75 550.5,-549.75 544.5,-549.75"/>
<text text-anchor="middle" x="514" y="-528.05" font-family="Helvetica,sans-Serif" font-size="14.00">err_error1</text>
</g>
<!-- volt&#45;&gt;err_error1 -->
<g id="edge2" class="edge">
<title>volt&#45;&gt;err_error1</title>
<path fill="none" stroke="black" stroke-width="1.2" d="M29.57,-240.99C34.65,-295.38 52.51,-454.71 90,-487.75 194.17,-579.54 373.56,-560.22 461.44,-543.49"/>
<polygon fill="black" stroke="black" stroke-width="1.2" points="462.3,-546.89 471.44,-541.52 460.95,-540.02 462.3,-546.89"/>
</g>
<!-- mnt_comp3 -->
<g id="node12" class="node">
<title>mnt_comp3</title>
<path fill="white" stroke="black" d="M417,-156.75C417,-156.75 343,-156.75 343,-156.75 337,-156.75 331,-150.75 331,-144.75 331,-144.75 331,-132.75 331,-132.75 331,-126.75 337,-120.75 343,-120.75 343,-120.75 417,-120.75 417,-120.75 423,-120.75 429,-126.75 429,-132.75 429,-132.75 429,-144.75 429,-144.75 429,-150.75 423,-156.75 417,-156.75"/>
<text text-anchor="middle" x="380" y="-135.05" font-family="Helvetica,sans-Serif" font-size="14.00">mnt_comp3</text>
</g>
<!-- volt&#45;&gt;mnt_comp3 -->
<g id="edge6" class="edge">
<title>volt&#45;&gt;mnt_comp3</title>
<path fill="none" stroke="black" stroke-width="1.2" d="M64.05,-214.12C124.75,-199.59 247.85,-170.13 320.88,-152.65"/>
<polygon fill="black" stroke="black" stroke-width="1.2" points="63.01,-210.77 54.1,-216.5 64.64,-217.58 63.01,-210.77"/>
<polygon fill="black" stroke="black" stroke-width="1.2" points="321.93,-156 330.84,-150.27 320.3,-149.19 321.93,-156"/>
</g>
<!-- mnt_comp4 -->
<g id="node13" class="node">
<title>mnt_comp4</title>
<path fill="white" stroke="black" d="M551,-111.75C551,-111.75 477,-111.75 477,-111.75 471,-111.75 465,-105.75 465,-99.75 465,-99.75 465,-87.75 465,-87.75 465,-81.75 471,-75.75 477,-75.75 477,-75.75 551,-75.75 551,-75.75 557,-75.75 563,-81.75 563,-87.75 563,-87.75 563,-99.75 563,-99.75 563,-105.75 557,-111.75 551,-111.75"/>
<text text-anchor="middle" x="514" y="-90.05" font-family="Helvetica,sans-Serif" font-size="14.00">mnt_comp4</text>
</g>
<!-- volt&#45;&gt;mnt_comp4 -->
<g id="edge7" class="edge">
<title>volt&#45;&gt;mnt_comp4</title>
<path fill="none" stroke="black" stroke-width="1.2" d="M54.04,-204.73C64.82,-197.82 77.68,-190.28 90,-184.75 192.1,-138.91 221.23,-133.58 331,-111.75 371.81,-103.63 418.54,-99.1 454.43,-96.62"/>
<polygon fill="black" stroke="black" stroke-width="1.2" points="454.97,-100.09 464.72,-95.94 454.52,-93.11 454.97,-100.09"/>
</g>
<!-- fail_comp1 -->
<g id="node14" class="node">
<title>fail_comp1</title>
<path fill="white" stroke="black" d="M414,-64.75C414,-64.75 346,-64.75 346,-64.75 340,-64.75 334,-58.75 334,-52.75 334,-52.75 334,-40.75 334,-40.75 334,-34.75 340,-28.75 346,-28.75 346,-28.75 414,-28.75 414,-28.75 420,-28.75 426,-34.75 426,-40.75 426,-40.75 426,-52.75 426,-52.75 426,-58.75 420,-64.75 414,-64.75"/>
<text text-anchor="middle" x="380" y="-43.05" font-family="Helvetica,sans-Serif" font-size="14.00">fail_comp1</text>
</g>
<!-- volt&#45;&gt;fail_comp1 -->
<g id="edge8" class="edge">
<title>volt&#45;&gt;fail_comp1</title>
<path fill="none" stroke="black" stroke-width="1.2" d="M30.02,-204.61C34.56,-173.26 48.65,-109.35 90,-78.75 158.03,-28.39 260.91,-30.27 323.82,-37.56"/>
<polygon fill="black" stroke="black" stroke-width="1.2" points="323.58,-41.06 333.94,-38.82 324.45,-34.11 323.58,-41.06"/>
</g>
<!-- rotate -->
<g id="node2" class="node">
<title>rotate</title>
<path fill="white" stroke="black" d="M644,-310.75C644,-310.75 611,-310.75 611,-310.75 605,-310.75 599,-304.75 599,-298.75 599,-298.75 599,-286.75 599,-286.75 599,-280.75 605,-274.75 611,-274.75 611,-274.75 644,-274.75 644,-274.75 650,-274.75 656,-280.75 656,-286.75 656,-286.75 656,-298.75 656,-298.75 656,-304.75 650,-310.75 644,-310.75"/>
<text text-anchor="middle" x="627.5" y="-289.05" font-family="Helvetica,sans-Serif" font-size="14.00">rotate</text>
</g>
<!-- vibration -->
<g id="node4" class="node">
<title>vibration</title>
<path fill="white" stroke="black" d="M879,-375.75C879,-375.75 825,-375.75 825,-375.75 819,-375.75 813,-369.75 813,-363.75 813,-363.75 813,-351.75 813,-351.75 813,-345.75 819,-339.75 825,-339.75 825,-339.75 879,-339.75 879,-339.75 885,-339.75 891,-345.75 891,-351.75 891,-351.75 891,-363.75 891,-363.75 891,-369.75 885,-375.75 879,-375.75"/>
<text text-anchor="middle" x="852" y="-354.05" font-family="Helvetica,sans-Serif" font-size="14.00">vibration</text>
</g>
<!-- rotate&#45;&gt;vibration -->
<g id="edge10" class="edge">
<title>rotate&#45;&gt;vibration</title>
<path fill="none" stroke="black" stroke-width="1.2" d="M656.19,-309.29C667.05,-315.2 679.81,-321.45 692,-325.75 728.18,-338.5 770.89,-346.74 802.93,-351.66"/>
<polygon fill="black" stroke="black" stroke-width="1.2" points="802.53,-355.14 812.93,-353.15 803.56,-348.22 802.53,-355.14"/>
</g>
<!-- err_error2 -->
<g id="node6" class="node">
<title>err_error2</title>
<path fill="white" stroke="black" d="M1268,-317.75C1268,-317.75 1207,-317.75 1207,-317.75 1201,-317.75 1195,-311.75 1195,-305.75 1195,-305.75 1195,-293.75 1195,-293.75 1195,-287.75 1201,-281.75 1207,-281.75 1207,-281.75 1268,-281.75 1268,-281.75 1274,-281.75 1280,-287.75 1280,-293.75 1280,-293.75 1280,-305.75 1280,-305.75 1280,-311.75 1274,-317.75 1268,-317.75"/>
<text text-anchor="middle" x="1237.5" y="-296.05" font-family="Helvetica,sans-Serif" font-size="14.00">err_error2</text>
</g>
<!-- rotate&#45;&gt;err_error2 -->
<g id="edge12" class="edge">
<title>rotate&#45;&gt;err_error2</title>
<path fill="none" stroke="black" stroke-width="1.2" d="M666.19,-287.56C710.37,-281.93 785.86,-273.75 851,-273.75 851,-273.75 851,-273.75 977,-273.75 1049.37,-273.75 1132.54,-283.88 1184.8,-291.5"/>
<polygon fill="black" stroke="black" stroke-width="1.2" points="665.65,-284.1 656.19,-288.85 666.55,-291.04 665.65,-284.1"/>
<polygon fill="black" stroke="black" stroke-width="1.2" points="1184.43,-294.98 1194.83,-292.98 1185.45,-288.05 1184.43,-294.98"/>
</g>
<!-- err_error3 -->
<g id="node7" class="node">
<title>err_error3</title>
<path fill="white" stroke="black" d="M1006.5,-417.75C1006.5,-417.75 945.5,-417.75 945.5,-417.75 939.5,-417.75 933.5,-411.75 933.5,-405.75 933.5,-405.75 933.5,-393.75 933.5,-393.75 933.5,-387.75 939.5,-381.75 945.5,-381.75 945.5,-381.75 1006.5,-381.75 1006.5,-381.75 1012.5,-381.75 1018.5,-387.75 1018.5,-393.75 1018.5,-393.75 1018.5,-405.75 1018.5,-405.75 1018.5,-411.75 1012.5,-417.75 1006.5,-417.75"/>
<text text-anchor="middle" x="976" y="-396.05" font-family="Helvetica,sans-Serif" font-size="14.00">err_error3</text>
</g>
<!-- rotate&#45;&gt;err_error3 -->
<g id="edge13" class="edge">
<title>rotate&#45;&gt;err_error3</title>
<path fill="none" stroke="black" stroke-width="1.2" d="M651.64,-318.18C662.88,-329.23 677.16,-341.51 692,-349.75 765.05,-390.28 863.62,-399.18 923.06,-400.49"/>
<polygon fill="black" stroke="black" stroke-width="1.2" points="653.88,-315.46 644.37,-310.78 648.89,-320.37 653.88,-315.46"/>
<polygon fill="black" stroke="black" stroke-width="1.2" points="923.28,-403.99 933.33,-400.64 923.39,-396.99 923.28,-403.99"/>
</g>
<!-- err_error4 -->
<g id="node8" class="node">
<title>err_error4</title>
<path fill="white" stroke="black" d="M1140.5,-343.75C1140.5,-343.75 1079.5,-343.75 1079.5,-343.75 1073.5,-343.75 1067.5,-337.75 1067.5,-331.75 1067.5,-331.75 1067.5,-319.75 1067.5,-319.75 1067.5,-313.75 1073.5,-307.75 1079.5,-307.75 1079.5,-307.75 1140.5,-307.75 1140.5,-307.75 1146.5,-307.75 1152.5,-313.75 1152.5,-319.75 1152.5,-319.75 1152.5,-331.75 1152.5,-331.75 1152.5,-337.75 1146.5,-343.75 1140.5,-343.75"/>
<text text-anchor="middle" x="1110" y="-322.05" font-family="Helvetica,sans-Serif" font-size="14.00">err_error4</text>
</g>
<!-- rotate&#45;&gt;err_error4 -->
<g id="edge14" class="edge">
<title>rotate&#45;&gt;err_error4</title>
<path fill="none" stroke="black" stroke-width="1.2" d="M666.18,-295.33C751.56,-301.2 959.88,-315.5 1057.25,-322.19"/>
<polygon fill="black" stroke="black" stroke-width="1.2" points="666.28,-291.83 656.06,-294.64 665.8,-298.82 666.28,-291.83"/>
<polygon fill="black" stroke="black" stroke-width="1.2" points="1057.22,-325.7 1067.44,-322.89 1057.7,-318.71 1057.22,-325.7"/>
</g>
<!-- err_error5 -->
<g id="node9" class="node">
<title>err_error5</title>
<path fill="white" stroke="black" d="M765,-451.75C765,-451.75 704,-451.75 704,-451.75 698,-451.75 692,-445.75 692,-439.75 692,-439.75 692,-427.75 692,-427.75 692,-421.75 698,-415.75 704,-415.75 704,-415.75 765,-415.75 765,-415.75 771,-415.75 777,-421.75 777,-427.75 777,-427.75 777,-439.75 777,-439.75 777,-445.75 771,-451.75 765,-451.75"/>
<text text-anchor="middle" x="734.5" y="-430.05" font-family="Helvetica,sans-Serif" font-size="14.00">err_error5</text>
</g>
<!-- rotate&#45;&gt;err_error5 -->
<g id="edge15" class="edge">
<title>rotate&#45;&gt;err_error5</title>
<path fill="none" stroke="black" stroke-width="1.2" d="M636.49,-311.11C647.02,-333.97 667.14,-373.44 692,-401.75 694.16,-404.21 696.54,-406.61 699.02,-408.92"/>
<polygon fill="black" stroke="black" stroke-width="1.2" points="696.84,-411.66 706.7,-415.54 701.41,-406.36 696.84,-411.66"/>
</g>
<!-- fail_comp2 -->
<g id="node15" class="node">
<title>fail_comp2</title>
<path fill="white" stroke="black" d="M283,-240.75C283,-240.75 215,-240.75 215,-240.75 209,-240.75 203,-234.75 203,-228.75 203,-228.75 203,-216.75 203,-216.75 203,-210.75 209,-204.75 215,-204.75 215,-204.75 283,-204.75 283,-204.75 289,-204.75 295,-210.75 295,-216.75 295,-216.75 295,-228.75 295,-228.75 295,-234.75 289,-240.75 283,-240.75"/>
<text text-anchor="middle" x="249" y="-219.05" font-family="Helvetica,sans-Serif" font-size="14.00">fail_comp2</text>
</g>
<!-- rotate&#45;&gt;fail_comp2 -->
<g id="edge19" class="edge">
<title>rotate&#45;&gt;fail_comp2</title>
<path fill="none" stroke="black" stroke-width="1.2" d="M588.42,-285.67C521.49,-273.22 382.54,-247.39 305.12,-232.99"/>
<polygon fill="black" stroke="black" stroke-width="1.2" points="588.05,-289.16 598.52,-287.54 589.33,-282.27 588.05,-289.16"/>
<polygon fill="black" stroke="black" stroke-width="1.2" points="305.51,-229.51 295.04,-231.12 304.23,-236.39 305.51,-229.51"/>
</g>
<!-- pressure&#45;&gt;fail_comp2 -->
<g id="edge22" class="edge">
<title>pressure&#45;&gt;fail_comp2</title>
<path fill="none" stroke="black" stroke-width="1.2" d="M138.6,-442.47C159.33,-400.83 210.14,-298.78 234.52,-249.81"/>
<polygon fill="black" stroke="black" stroke-width="1.2" points="237.71,-251.27 239.03,-240.76 231.44,-248.15 237.71,-251.27"/>
</g>
<!-- vibration&#45;&gt;pressure -->
<g id="edge20" class="edge">
<title>vibration&#45;&gt;pressure</title>
<path fill="none" stroke="black" stroke-width="1.2" d="M843.59,-375.82C832.78,-399.66 810.29,-440.9 777,-460.75 719.85,-494.81 695.04,-479.75 628.5,-479.75 379,-479.75 379,-479.75 379,-479.75 308.63,-479.75 227.43,-472.14 177.27,-466.55"/>
<polygon fill="black" stroke="black" stroke-width="1.2" points="177.38,-463.04 167.05,-465.39 176.59,-470 177.38,-463.04"/>
</g>
<!-- vibration&#45;&gt;err_error3 -->
<g id="edge23" class="edge">
<title>vibration&#45;&gt;err_error3</title>
<path fill="none" stroke="black" stroke-width="1.2" d="M891.27,-370.92C901.64,-374.49 913.05,-378.42 924,-382.19"/>
<polygon fill="black" stroke="black" stroke-width="1.2" points="922.89,-385.51 933.48,-385.45 925.17,-378.89 922.89,-385.51"/>
</g>
<!-- mnt_comp2 -->
<g id="node11" class="node">
<title>mnt_comp2</title>
<path fill="white" stroke="black" d="M1013,-182.75C1013,-182.75 939,-182.75 939,-182.75 933,-182.75 927,-176.75 927,-170.75 927,-170.75 927,-158.75 927,-158.75 927,-152.75 933,-146.75 939,-146.75 939,-146.75 1013,-146.75 1013,-146.75 1019,-146.75 1025,-152.75 1025,-158.75 1025,-158.75 1025,-170.75 1025,-170.75 1025,-176.75 1019,-182.75 1013,-182.75"/>
<text text-anchor="middle" x="976" y="-161.05" font-family="Helvetica,sans-Serif" font-size="14.00">mnt_comp2</text>
</g>
<!-- vibration&#45;&gt;mnt_comp2 -->
<g id="edge26" class="edge">
<title>vibration&#45;&gt;mnt_comp2</title>
<path fill="none" stroke="black" stroke-width="1.2" d="M864.48,-339.59C886.05,-305.46 932.74,-231.6 957.98,-191.67"/>
<polygon fill="black" stroke="black" stroke-width="1.2" points="961.08,-193.32 963.46,-182.99 955.16,-189.58 961.08,-193.32"/>
</g>
<!-- err_error1&#45;&gt;rotate -->
<g id="edge11" class="edge">
<title>err_error1&#45;&gt;rotate</title>
<path fill="none" stroke="black" stroke-width="1.2" d="M523.56,-513.39C543.07,-471.58 590.88,-369.09 613.82,-319.93"/>
<polygon fill="black" stroke="black" stroke-width="1.2" points="617,-321.38 618.06,-310.84 610.66,-318.42 617,-321.38"/>
</g>
<!-- err_error1&#45;&gt;err_error2 -->
<g id="edge27" class="edge">
<title>err_error1&#45;&gt;err_error2</title>
<path fill="none" stroke="black" stroke-width="1.2" d="M556.74,-539.08C600.6,-546.13 671.68,-555.75 733.5,-555.75 733.5,-555.75 733.5,-555.75 977,-555.75 1106.12,-555.75 1194.26,-393.14 1224.72,-327.12"/>
<polygon fill="black" stroke="black" stroke-width="1.2" points="1228.03,-328.3 1228.95,-317.75 1221.65,-325.42 1228.03,-328.3"/>
</g>
<!-- err_error1&#45;&gt;err_error3 -->
<g id="edge28" class="edge">
<title>err_error1&#45;&gt;err_error3</title>
<path fill="none" stroke="black" stroke-width="1.2" d="M556.67,-529.55C609.07,-525.92 701.33,-516.63 777,-493.75 834.49,-476.36 896.36,-444.68 935.35,-422.94"/>
<polygon fill="black" stroke="black" stroke-width="1.2" points="937.28,-425.87 944.28,-417.91 933.85,-419.77 937.28,-425.87"/>
</g>
<!-- err_error2&#45;&gt;pressure -->
<g id="edge21" class="edge">
<title>err_error2&#45;&gt;pressure</title>
<path fill="none" stroke="black" stroke-width="1.2" d="M1233.84,-318C1227.43,-356.1 1207.9,-445.06 1159,-499.75 1114.21,-549.84 1090.25,-553.73 1025,-569.75 783.24,-629.09 710.91,-597.45 465,-558.75 359.52,-542.14 240.53,-502.06 176.44,-478.62"/>
<polygon fill="black" stroke="black" stroke-width="1.2" points="177.61,-475.32 167.02,-475.15 175.19,-481.89 177.61,-475.32"/>
</g>
<!-- err_error2&#45;&gt;mnt_comp4 -->
<g id="edge32" class="edge">
<title>err_error2&#45;&gt;mnt_comp4</title>
<path fill="none" stroke="black" stroke-width="1.2" d="M1231.38,-281.49C1222.1,-251.81 1199.57,-193.37 1159,-162.75 1092.58,-112.61 1060.22,-118.75 977,-118.75 733.5,-118.75 733.5,-118.75 733.5,-118.75 678.95,-118.75 617.23,-110.96 573.34,-104.08"/>
<polygon fill="black" stroke="black" stroke-width="1.2" points="573.84,-100.61 563.42,-102.49 572.74,-107.53 573.84,-100.61"/>
</g>
<!-- err_error2&#45;&gt;fail_comp2 -->
<g id="edge33" class="edge">
<title>err_error2&#45;&gt;fail_comp2</title>
<path fill="none" stroke="black" stroke-width="1.2" d="M1194.79,-283.17C1183.35,-279.19 1170.83,-275.34 1159,-272.75 1100.55,-259.92 1084.68,-264.06 1025,-259.75 755.48,-240.25 432.46,-228.59 305.29,-224.45"/>
<polygon fill="black" stroke="black" stroke-width="1.2" points="305.14,-220.95 295.04,-224.12 304.92,-227.94 305.14,-220.95"/>
</g>
<!-- err_error3&#45;&gt;volt -->
<g id="edge3" class="edge">
<title>err_error3&#45;&gt;volt</title>
<path fill="none" stroke="black" stroke-width="1.2" d="M961.41,-417.95C918.88,-472.64 781.98,-631.75 628.5,-631.75 248,-631.75 248,-631.75 248,-631.75 162.94,-631.75 137.12,-594.56 90,-523.75 32.36,-437.13 26.56,-307.82 27.07,-251.12"/>
<polygon fill="black" stroke="black" stroke-width="1.2" points="30.57,-250.84 27.24,-240.78 23.57,-250.72 30.57,-250.84"/>
</g>
<!-- err_error3&#45;&gt;err_error2 -->
<g id="edge29" class="edge">
<title>err_error3&#45;&gt;err_error2</title>
<path fill="none" stroke="black" stroke-width="1.2" d="M1018.86,-393.2C1056.67,-386.31 1113.24,-373.53 1159,-352.75 1175.59,-345.21 1192.47,-334.15 1206.23,-324.08"/>
<polygon fill="black" stroke="black" stroke-width="1.2" points="1208.46,-326.78 1214.35,-317.98 1204.26,-321.18 1208.46,-326.78"/>
</g>
<!-- err_error3&#45;&gt;err_error4 -->
<g id="edge34" class="edge">
<title>err_error3&#45;&gt;err_error4</title>
<path fill="none" stroke="black" stroke-width="1.2" d="M1018.24,-376.63C1033.96,-367.81 1051.87,-357.77 1067.61,-348.95"/>
<polygon fill="black" stroke="black" stroke-width="1.2" points="1016.3,-373.7 1009.29,-381.64 1019.73,-379.81 1016.3,-373.7"/>
<polygon fill="black" stroke="black" stroke-width="1.2" points="1069.57,-351.86 1076.59,-343.92 1066.15,-345.75 1069.57,-351.86"/>
</g>
<!-- err_error4&#45;&gt;vibration -->
<g id="edge24" class="edge">
<title>err_error4&#45;&gt;vibration</title>
<path fill="none" stroke="black" stroke-width="1.2" d="M1067.34,-330.95C1021.84,-336.64 949.09,-345.73 901.17,-351.72"/>
<polygon fill="black" stroke="black" stroke-width="1.2" points="900.54,-348.28 891.05,-352.99 901.41,-355.22 900.54,-348.28"/>
</g>
<!-- err_error4&#45;&gt;err_error2 -->
<g id="edge30" class="edge">
<title>err_error4&#45;&gt;err_error2</title>
<path fill="none" stroke="black" stroke-width="1.2" d="M1152.79,-317.09C1163.06,-314.96 1174.17,-312.66 1184.84,-310.45"/>
<polygon fill="black" stroke="black" stroke-width="1.2" points="1185.81,-313.82 1194.89,-308.37 1184.39,-306.97 1185.81,-313.82"/>
</g>
<!-- err_error5&#45;&gt;volt -->
<g id="edge4" class="edge">
<title>err_error5&#45;&gt;volt</title>
<path fill="none" stroke="black" stroke-width="1.2" d="M691.99,-422.14C648.31,-410.96 577.38,-395.75 515,-395.75 248,-395.75 248,-395.75 248,-395.75 154.46,-395.75 77.19,-297.91 44.62,-249.38"/>
<polygon fill="black" stroke="black" stroke-width="1.2" points="47.48,-247.37 39.06,-240.93 41.63,-251.21 47.48,-247.37"/>
</g>
<!-- err_error5&#45;&gt;vibration -->
<g id="edge25" class="edge">
<title>err_error5&#45;&gt;vibration</title>
<path fill="none" stroke="black" stroke-width="1.2" d="M762.87,-415.73C778.44,-405.49 798.12,-392.54 814.93,-381.48"/>
<polygon fill="black" stroke="black" stroke-width="1.2" points="816.99,-384.31 823.42,-375.89 813.15,-378.46 816.99,-384.31"/>
</g>
<!-- mnt_comp1 -->
<g id="node10" class="node">
<title>mnt_comp1</title>
<path fill="white" stroke="black" d="M1147,-75.75C1147,-75.75 1073,-75.75 1073,-75.75 1067,-75.75 1061,-69.75 1061,-63.75 1061,-63.75 1061,-51.75 1061,-51.75 1061,-45.75 1067,-39.75 1073,-39.75 1073,-39.75 1147,-39.75 1147,-39.75 1153,-39.75 1159,-45.75 1159,-51.75 1159,-51.75 1159,-63.75 1159,-63.75 1159,-69.75 1153,-75.75 1147,-75.75"/>
<text text-anchor="middle" x="1110" y="-54.05" font-family="Helvetica,sans-Serif" font-size="14.00">mnt_comp1</text>
</g>
<!-- mnt_comp1&#45;&gt;volt -->
<g id="edge5" class="edge">
<title>mnt_comp1&#45;&gt;volt</title>
<path fill="none" stroke="black" stroke-width="1.2" d="M1060.64,-40.33C1009.69,-23.57 926.76,-0.75 853,-0.75 248,-0.75 248,-0.75 248,-0.75 175.56,-0.75 143.24,8.38 90,-40.75 46.07,-81.28 33.26,-154.17 29.53,-194.31"/>
<polygon fill="black" stroke="black" stroke-width="1.2" points="26.03,-194.22 28.72,-204.47 33,-194.78 26.03,-194.22"/>
</g>
<!-- mnt_comp2&#45;&gt;rotate -->
<g id="edge16" class="edge">
<title>mnt_comp2&#45;&gt;rotate</title>
<path fill="none" stroke="black" stroke-width="1.2" d="M926.84,-178.42C869.84,-195.17 772.5,-225.56 692,-259.75 683.18,-263.49 673.91,-267.97 665.27,-272.41"/>
<polygon fill="black" stroke="black" stroke-width="1.2" points="663.42,-269.43 656.18,-277.17 666.67,-275.63 663.42,-269.43"/>
</g>
<!-- mnt_comp2&#45;&gt;err_error2 -->
<g id="edge31" class="edge">
<title>mnt_comp2&#45;&gt;err_error2</title>
<path fill="none" stroke="black" stroke-width="1.2" d="M1025.23,-163.78C1064.01,-165.11 1118.52,-171.93 1159,-196.75 1188.48,-214.81 1210.6,-248.59 1223.51,-272.53"/>
<polygon fill="black" stroke="black" stroke-width="1.2" points="1220.45,-274.22 1228.16,-281.48 1226.66,-270.99 1220.45,-274.22"/>
</g>
<!-- mnt_comp2&#45;&gt;mnt_comp1 -->
<g id="edge35" class="edge">
<title>mnt_comp2&#45;&gt;mnt_comp1</title>
<path fill="none" stroke="black" stroke-width="1.2" d="M999.39,-146.59C1021.2,-128.92 1054.51,-101.92 1078.68,-82.32"/>
<polygon fill="black" stroke="black" stroke-width="1.2" points="1080.93,-85 1086.5,-75.99 1076.53,-79.56 1080.93,-85"/>
</g>
<!-- mnt_comp3&#45;&gt;rotate -->
<g id="edge17" class="edge">
<title>mnt_comp3&#45;&gt;rotate</title>
<path fill="none" stroke="black" stroke-width="1.2" d="M410.13,-157.02C455.08,-185.22 541.3,-239.3 590.23,-270"/>
<polygon fill="black" stroke="black" stroke-width="1.2" points="588.59,-273.1 598.92,-275.44 592.31,-267.17 588.59,-273.1"/>
</g>
<!-- mnt_comp3&#45;&gt;mnt_comp4 -->
<g id="edge39" class="edge">
<title>mnt_comp3&#45;&gt;mnt_comp4</title>
<path fill="none" stroke="black" stroke-width="1.2" d="M429.03,-122.37C437.49,-119.49 446.38,-116.46 455.08,-113.49"/>
<polygon fill="black" stroke="black" stroke-width="1.2" points="456.45,-116.72 464.79,-110.18 454.19,-110.1 456.45,-116.72"/>
</g>
<!-- mnt_comp4&#45;&gt;rotate -->
<g id="edge18" class="edge">
<title>mnt_comp4&#45;&gt;rotate</title>
<path fill="none" stroke="black" stroke-width="1.2" d="M544.72,-111.98C551.38,-117.1 557.96,-123.11 563,-129.75 594.54,-171.29 612.34,-230.45 620.64,-264.89"/>
<polygon fill="black" stroke="black" stroke-width="1.2" points="617.25,-265.79 622.92,-274.74 624.08,-264.21 617.25,-265.79"/>
</g>
<!-- mnt_comp4&#45;&gt;mnt_comp1 -->
<g id="edge36" class="edge">
<title>mnt_comp4&#45;&gt;mnt_comp1</title>
<path fill="none" stroke="black" stroke-width="1.2" d="M563.12,-89.24C607.36,-85.48 674.79,-80.75 733.5,-80.75 733.5,-80.75 733.5,-80.75 853,-80.75 921.19,-80.75 999.19,-72.55 1050.99,-65.94"/>
<polygon fill="black" stroke="black" stroke-width="1.2" points="1051.52,-69.4 1060.99,-64.65 1050.62,-62.46 1051.52,-69.4"/>
</g>
<!-- fail_comp1&#45;&gt;mnt_comp1 -->
<g id="edge37" class="edge">
<title>fail_comp1&#45;&gt;mnt_comp1</title>
<path fill="none" stroke="black" stroke-width="1.2" d="M426.24,-45.57C475.5,-44.39 556.59,-42.75 626.5,-42.75 626.5,-42.75 626.5,-42.75 853,-42.75 921.03,-42.75 999.06,-48.09 1050.91,-52.4"/>
<polygon fill="black" stroke="black" stroke-width="1.2" points="1050.66,-55.89 1060.92,-53.24 1051.25,-48.92 1050.66,-55.89"/>
</g>
<!-- fail_comp1&#45;&gt;mnt_comp4 -->
<g id="edge40" class="edge">
<title>fail_comp1&#45;&gt;mnt_comp4</title>
<path fill="none" stroke="black" stroke-width="1.2" d="M426.06,-62.79C435.47,-66.14 445.51,-69.72 455.31,-73.2"/>
<polygon fill="black" stroke="black" stroke-width="1.2" points="454.39,-76.59 464.99,-76.65 456.74,-70 454.39,-76.59"/>
</g>
<!-- fail_comp2&#45;&gt;volt -->
<g id="edge9" class="edge">
<title>fail_comp2&#45;&gt;volt</title>
<path fill="none" stroke="black" stroke-width="1.2" d="M202.85,-222.75C161.85,-222.75 102.14,-222.75 64.19,-222.75"/>
<polygon fill="black" stroke="black" stroke-width="1.2" points="64.1,-219.25 54.1,-222.75 64.1,-226.25 64.1,-219.25"/>
</g>
<!-- fail_comp2&#45;&gt;mnt_comp2 -->
<g id="edge38" class="edge">
<title>fail_comp2&#45;&gt;mnt_comp2</title>
<path fill="none" stroke="black" stroke-width="1.2" d="M295.29,-214.08C306.9,-212.09 319.38,-210.15 331,-208.75 545.97,-182.79 803.3,-170.95 916.59,-166.7"/>
<polygon fill="black" stroke="black" stroke-width="1.2" points="916.91,-170.19 926.77,-166.33 916.65,-163.2 916.91,-170.19"/>
</g>
<!-- fail_comp2&#45;&gt;fail_comp1 -->
<g id="edge41" class="edge">
<title>fail_comp2&#45;&gt;fail_comp1</title>
<path fill="none" stroke="black" stroke-width="1.2" d="M263.16,-204.65C279.16,-182.66 307,-144.44 331,-111.75 340.35,-99.01 350.77,-84.89 359.5,-73.08"/>
<polygon fill="black" stroke="black" stroke-width="1.2" points="362.39,-75.06 365.52,-64.94 356.76,-70.9 362.39,-75.06"/>
</g>
</g>
</svg>
