<?xml version="1.0" encoding="UTF-8" standalone="no"?>
<!DOCTYPE svg PUBLIC "-//W3C//DTD SVG 1.1//EN"
 "http://www.w3.org/Graphics/SVG/1.1/DTD/svg11.dtd">
<!-- Generated by graphviz version 2.50.0 (0)
 -->
<!-- Title: G Pages: 1 -->
<svg width="454pt" height="138pt"
 viewBox="0.00 0.00 454.00 138.27" xmlns="http://www.w3.org/2000/svg" xmlns:xlink="http://www.w3.org/1999/xlink">
<g id="graph0" class="graph" transform="scale(1 1) rotate(0) translate(4 134.27)">
<title>G</title>
<polygon fill="white" stroke="transparent" points="-4,4 -4,-134.27 450,-134.27 450,4 -4,4"/>
<text text-anchor="middle" x="223" y="-113.47" font-family="Times,serif" font-size="16.00">model=model4/nbcb_w_telemetry.json [machine 32]</text>
<!-- volt -->
<g id="node1" class="node">
<title>volt</title>
<path fill="white" stroke="black" d="M134.5,-50.27C134.5,-50.27 104.5,-50.27 104.5,-50.27 98.5,-50.27 92.5,-44.27 92.5,-38.27 92.5,-38.27 92.5,-26.27 92.5,-26.27 92.5,-20.27 98.5,-14.27 104.5,-14.27 104.5,-14.27 134.5,-14.27 134.5,-14.27 140.5,-14.27 146.5,-20.27 146.5,-26.27 146.5,-26.27 146.5,-38.27 146.5,-38.27 146.5,-44.27 140.5,-50.27 134.5,-50.27"/>
<text text-anchor="middle" x="119.5" y="-28.57" font-family="Helvetica,sans-Serif" font-size="14.00">volt</text>
</g>
<!-- pressure -->
<g id="node3" class="node">
<title>pressure</title>
<path fill="white" stroke="black" d="M248,-104.27C248,-104.27 195,-104.27 195,-104.27 189,-104.27 183,-98.27 183,-92.27 183,-92.27 183,-80.27 183,-80.27 183,-74.27 189,-68.27 195,-68.27 195,-68.27 248,-68.27 248,-68.27 254,-68.27 260,-74.27 260,-80.27 260,-80.27 260,-92.27 260,-92.27 260,-98.27 254,-104.27 248,-104.27"/>
<text text-anchor="middle" x="221.5" y="-82.57" font-family="Helvetica,sans-Serif" font-size="14.00">pressure</text>
</g>
<!-- volt&#45;&gt;pressure -->
<g id="edge2" class="edge">
<title>volt&#45;&gt;pressure</title>
<path fill="none" stroke="black" stroke-width="1.2" d="M146.51,-46.31C156.19,-51.54 167.43,-57.61 178.19,-63.42"/>
<polygon fill="black" stroke="black" stroke-width="1.2" points="176.61,-66.54 187.07,-68.21 179.93,-60.38 176.61,-66.54"/>
</g>
<!-- vibration -->
<g id="node4" class="node">
<title>vibration</title>
<path fill="white" stroke="black" d="M248.5,-50.27C248.5,-50.27 194.5,-50.27 194.5,-50.27 188.5,-50.27 182.5,-44.27 182.5,-38.27 182.5,-38.27 182.5,-26.27 182.5,-26.27 182.5,-20.27 188.5,-14.27 194.5,-14.27 194.5,-14.27 248.5,-14.27 248.5,-14.27 254.5,-14.27 260.5,-20.27 260.5,-26.27 260.5,-26.27 260.5,-38.27 260.5,-38.27 260.5,-44.27 254.5,-50.27 248.5,-50.27"/>
<text text-anchor="middle" x="221.5" y="-28.57" font-family="Helvetica,sans-Serif" font-size="14.00">vibration</text>
</g>
<!-- volt&#45;&gt;vibration -->
<g id="edge3" class="edge">
<title>volt&#45;&gt;vibration</title>
<path fill="none" stroke="black" stroke-width="1.2" d="M146.51,-32.27C154.33,-32.27 163.18,-32.27 171.96,-32.27"/>
<polygon fill="black" stroke="black" stroke-width="1.2" points="172.18,-35.77 182.18,-32.27 172.18,-28.77 172.18,-35.77"/>
</g>
<!-- rotate -->
<g id="node2" class="node">
<title>rotate</title>
<path fill="white" stroke="black" d="M341.5,-50.27C341.5,-50.27 308.5,-50.27 308.5,-50.27 302.5,-50.27 296.5,-44.27 296.5,-38.27 296.5,-38.27 296.5,-26.27 296.5,-26.27 296.5,-20.27 302.5,-14.27 308.5,-14.27 308.5,-14.27 341.5,-14.27 341.5,-14.27 347.5,-14.27 353.5,-20.27 353.5,-26.27 353.5,-26.27 353.5,-38.27 353.5,-38.27 353.5,-44.27 347.5,-50.27 341.5,-50.27"/>
<text text-anchor="middle" x="325" y="-28.57" font-family="Helvetica,sans-Serif" font-size="14.00">rotate</text>
</g>
<!-- rotate&#45;&gt;volt -->
<g id="edge1" class="edge">
<title>rotate&#45;&gt;volt</title>
<path fill="none" stroke="black" stroke-width="1.2" d="M296.34,-17.64C285.48,-12.68 272.71,-7.75 260.5,-5.27 226.53,1.66 216.44,1.8 182.5,-5.27 173.56,-7.13 164.34,-10.35 155.82,-13.93"/>
<polygon fill="black" stroke="black" stroke-width="1.2" points="154.26,-10.8 146.56,-18.08 157.12,-17.18 154.26,-10.8"/>
</g>
<!-- pressure&#45;&gt;rotate -->
<g id="edge4" class="edge">
<title>pressure&#45;&gt;rotate</title>
<path fill="none" stroke="black" stroke-width="1.2" d="M256.58,-68.13C266.46,-62.88 277.28,-57.12 287.31,-51.78"/>
<polygon fill="black" stroke="black" stroke-width="1.2" points="289.06,-54.82 296.25,-47.03 285.78,-48.64 289.06,-54.82"/>
</g>
<!-- vibration&#45;&gt;rotate -->
<g id="edge5" class="edge">
<title>vibration&#45;&gt;rotate</title>
<path fill="none" stroke="black" stroke-width="1.2" d="M260.58,-32.27C268.97,-32.27 277.85,-32.27 286.22,-32.27"/>
<polygon fill="black" stroke="black" stroke-width="1.2" points="286.48,-35.77 296.48,-32.27 286.48,-28.77 286.48,-35.77"/>
</g>
</g>
</svg>
