<?xml version="1.0" encoding="UTF-8" standalone="no"?>
<!DOCTYPE svg PUBLIC "-//W3C//DTD SVG 1.1//EN"
 "http://www.w3.org/Graphics/SVG/1.1/DTD/svg11.dtd">
<!-- Generated by graphviz version 2.50.0 (0)
 -->
<!-- Title: G Pages: 1 -->
<svg width="1182pt" height="675pt"
 viewBox="0.00 0.00 1182.00 674.50" xmlns="http://www.w3.org/2000/svg" xmlns:xlink="http://www.w3.org/1999/xlink">
<g id="graph0" class="graph" transform="scale(1 1) rotate(0) translate(4 670.5)">
<title>G</title>
<polygon fill="white" stroke="transparent" points="-4,4 -4,-670.5 1178,-670.5 1178,4 -4,4"/>
<text text-anchor="middle" x="587" y="-649.7" font-family="Times,serif" font-size="16.00">model=model3/nbcb_w_mixed.json [machine 82]</text>
<!-- volt -->
<g id="node1" class="node">
<title>volt</title>
<path fill="white" stroke="black" d="M42,-273.5C42,-273.5 12,-273.5 12,-273.5 6,-273.5 0,-267.5 0,-261.5 0,-261.5 0,-249.5 0,-249.5 0,-243.5 6,-237.5 12,-237.5 12,-237.5 42,-237.5 42,-237.5 48,-237.5 54,-243.5 54,-249.5 54,-249.5 54,-261.5 54,-261.5 54,-267.5 48,-273.5 42,-273.5"/>
<text text-anchor="middle" x="27" y="-251.8" font-family="Helvetica,sans-Serif" font-size="14.00">volt</text>
</g>
<!-- rotate -->
<g id="node2" class="node">
<title>rotate</title>
<path fill="white" stroke="black" d="M135,-468.5C135,-468.5 102,-468.5 102,-468.5 96,-468.5 90,-462.5 90,-456.5 90,-456.5 90,-444.5 90,-444.5 90,-438.5 96,-432.5 102,-432.5 102,-432.5 135,-432.5 135,-432.5 141,-432.5 147,-438.5 147,-444.5 147,-444.5 147,-456.5 147,-456.5 147,-462.5 141,-468.5 135,-468.5"/>
<text text-anchor="middle" x="118.5" y="-446.8" font-family="Helvetica,sans-Serif" font-size="14.00">rotate</text>
</g>
<!-- volt&#45;&gt;rotate -->
<g id="edge1" class="edge">
<title>volt&#45;&gt;rotate</title>
<path fill="none" stroke="black" stroke-width="1.2" d="M40.68,-283.14C57.75,-320.33 87.94,-386.09 104.94,-423.14"/>
<polygon fill="black" stroke="black" stroke-width="1.2" points="43.77,-281.48 36.42,-273.85 37.41,-284.4 43.77,-281.48"/>
<polygon fill="black" stroke="black" stroke-width="1.2" points="101.82,-424.72 109.17,-432.35 108.18,-421.8 101.82,-424.72"/>
</g>
<!-- pressure -->
<g id="node3" class="node">
<title>pressure</title>
<path fill="white" stroke="black" d="M373,-292.5C373,-292.5 320,-292.5 320,-292.5 314,-292.5 308,-286.5 308,-280.5 308,-280.5 308,-268.5 308,-268.5 308,-262.5 314,-256.5 320,-256.5 320,-256.5 373,-256.5 373,-256.5 379,-256.5 385,-262.5 385,-268.5 385,-268.5 385,-280.5 385,-280.5 385,-286.5 379,-292.5 373,-292.5"/>
<text text-anchor="middle" x="346.5" y="-270.8" font-family="Helvetica,sans-Serif" font-size="14.00">pressure</text>
</g>
<!-- volt&#45;&gt;pressure -->
<g id="edge2" class="edge">
<title>volt&#45;&gt;pressure</title>
<path fill="none" stroke="black" stroke-width="1.2" d="M54.25,-257.07C107.74,-260.27 230.01,-267.59 297.89,-271.65"/>
<polygon fill="black" stroke="black" stroke-width="1.2" points="297.7,-275.15 307.89,-272.25 298.12,-268.16 297.7,-275.15"/>
</g>
<!-- err_error1 -->
<g id="node5" class="node">
<title>err_error1</title>
<path fill="white" stroke="black" d="M256,-246.5C256,-246.5 195,-246.5 195,-246.5 189,-246.5 183,-240.5 183,-234.5 183,-234.5 183,-222.5 183,-222.5 183,-216.5 189,-210.5 195,-210.5 195,-210.5 256,-210.5 256,-210.5 262,-210.5 268,-216.5 268,-222.5 268,-222.5 268,-234.5 268,-234.5 268,-240.5 262,-246.5 256,-246.5"/>
<text text-anchor="middle" x="225.5" y="-224.8" font-family="Helvetica,sans-Serif" font-size="14.00">err_error1</text>
</g>
<!-- volt&#45;&gt;err_error1 -->
<g id="edge4" class="edge">
<title>volt&#45;&gt;err_error1</title>
<path fill="none" stroke="black" stroke-width="1.2" d="M64.38,-250.5C94.78,-246.33 138.51,-240.32 172.59,-235.64"/>
<polygon fill="black" stroke="black" stroke-width="1.2" points="63.52,-247.09 54.09,-251.92 64.48,-254.02 63.52,-247.09"/>
<polygon fill="black" stroke="black" stroke-width="1.2" points="173.41,-239.06 182.84,-234.23 172.45,-232.12 173.41,-239.06"/>
</g>
<!-- err_error2 -->
<g id="node6" class="node">
<title>err_error2</title>
<path fill="white" stroke="black" d="M256,-338.5C256,-338.5 195,-338.5 195,-338.5 189,-338.5 183,-332.5 183,-326.5 183,-326.5 183,-314.5 183,-314.5 183,-308.5 189,-302.5 195,-302.5 195,-302.5 256,-302.5 256,-302.5 262,-302.5 268,-308.5 268,-314.5 268,-314.5 268,-326.5 268,-326.5 268,-332.5 262,-338.5 256,-338.5"/>
<text text-anchor="middle" x="225.5" y="-316.8" font-family="Helvetica,sans-Serif" font-size="14.00">err_error2</text>
</g>
<!-- volt&#45;&gt;err_error2 -->
<g id="edge5" class="edge">
<title>volt&#45;&gt;err_error2</title>
<path fill="none" stroke="black" stroke-width="1.2" d="M54.16,-271.34C64.96,-277.37 77.8,-283.89 90,-288.5 116.66,-298.58 147.52,-306.19 172.96,-311.46"/>
<polygon fill="black" stroke="black" stroke-width="1.2" points="172.28,-314.89 182.78,-313.43 173.66,-308.03 172.28,-314.89"/>
</g>
<!-- mnt_comp2 -->
<g id="node11" class="node">
<title>mnt_comp2</title>
<path fill="white" stroke="black" d="M760,-376.5C760,-376.5 686,-376.5 686,-376.5 680,-376.5 674,-370.5 674,-364.5 674,-364.5 674,-352.5 674,-352.5 674,-346.5 680,-340.5 686,-340.5 686,-340.5 760,-340.5 760,-340.5 766,-340.5 772,-346.5 772,-352.5 772,-352.5 772,-364.5 772,-364.5 772,-370.5 766,-376.5 760,-376.5"/>
<text text-anchor="middle" x="723" y="-354.8" font-family="Helvetica,sans-Serif" font-size="14.00">mnt_comp2</text>
</g>
<!-- volt&#45;&gt;mnt_comp2 -->
<g id="edge9" class="edge">
<title>volt&#45;&gt;mnt_comp2</title>
<path fill="none" stroke="black" stroke-width="1.2" d="M29.19,-283.7C34.61,-372.49 64.22,-640.5 224.5,-640.5 224.5,-640.5 224.5,-640.5 468.5,-640.5 551.61,-640.5 580.53,-621.55 638,-561.5 686.14,-511.21 708.33,-429.43 717.11,-386.64"/>
<polygon fill="black" stroke="black" stroke-width="1.2" points="32.68,-283.35 28.64,-273.56 25.69,-283.73 32.68,-283.35"/>
<polygon fill="black" stroke="black" stroke-width="1.2" points="720.58,-387.13 719.06,-376.64 713.71,-385.79 720.58,-387.13"/>
</g>
<!-- fail_comp1 -->
<g id="node14" class="node">
<title>fail_comp1</title>
<path fill="white" stroke="black" d="M626,-276.5C626,-276.5 558,-276.5 558,-276.5 552,-276.5 546,-270.5 546,-264.5 546,-264.5 546,-252.5 546,-252.5 546,-246.5 552,-240.5 558,-240.5 558,-240.5 626,-240.5 626,-240.5 632,-240.5 638,-246.5 638,-252.5 638,-252.5 638,-264.5 638,-264.5 638,-270.5 632,-276.5 626,-276.5"/>
<text text-anchor="middle" x="592" y="-254.8" font-family="Helvetica,sans-Serif" font-size="14.00">fail_comp1</text>
</g>
<!-- volt&#45;&gt;fail_comp1 -->
<g id="edge11" class="edge">
<title>volt&#45;&gt;fail_comp1</title>
<path fill="none" stroke="black" stroke-width="1.2" d="M31.06,-227.23C36.46,-191.88 51.1,-132.18 90,-100.5 137.08,-62.16 163.78,-76.5 224.5,-76.5 224.5,-76.5 224.5,-76.5 347.5,-76.5 420.51,-76.5 450.66,-57.97 510,-100.5 553.78,-131.88 575.54,-194.04 584.93,-230.34"/>
<polygon fill="black" stroke="black" stroke-width="1.2" points="27.56,-226.98 29.66,-237.36 34.49,-227.93 27.56,-226.98"/>
<polygon fill="black" stroke="black" stroke-width="1.2" points="581.59,-231.4 587.36,-240.28 588.39,-229.73 581.59,-231.4"/>
</g>
<!-- fail_comp2 -->
<g id="node15" class="node">
<title>fail_comp2</title>
<path fill="white" stroke="black" d="M626,-330.5C626,-330.5 558,-330.5 558,-330.5 552,-330.5 546,-324.5 546,-318.5 546,-318.5 546,-306.5 546,-306.5 546,-300.5 552,-294.5 558,-294.5 558,-294.5 626,-294.5 626,-294.5 632,-294.5 638,-300.5 638,-306.5 638,-306.5 638,-318.5 638,-318.5 638,-324.5 632,-330.5 626,-330.5"/>
<text text-anchor="middle" x="592" y="-308.8" font-family="Helvetica,sans-Serif" font-size="14.00">fail_comp2</text>
</g>
<!-- volt&#45;&gt;fail_comp2 -->
<g id="edge12" class="edge">
<title>volt&#45;&gt;fail_comp2</title>
<path fill="none" stroke="black" stroke-width="1.2" d="M40.67,-237.36C68.92,-199.28 141.15,-114.5 224.5,-114.5 224.5,-114.5 224.5,-114.5 347.5,-114.5 420.21,-114.5 455.69,-85.16 510,-133.5 561.86,-179.66 505.02,-229.47 546,-285.5 546.37,-286.01 546.75,-286.51 547.15,-287"/>
<polygon fill="black" stroke="black" stroke-width="1.2" points="544.86,-289.66 554.4,-294.28 549.82,-284.72 544.86,-289.66"/>
</g>
<!-- rotate&#45;&gt;err_error2 -->
<g id="edge13" class="edge">
<title>rotate&#45;&gt;err_error2</title>
<path fill="none" stroke="black" stroke-width="1.2" d="M134.1,-432.43C152.1,-410.14 182.83,-372.1 203.39,-346.63"/>
<polygon fill="black" stroke="black" stroke-width="1.2" points="206.13,-348.82 209.69,-338.84 200.68,-344.42 206.13,-348.82"/>
</g>
<!-- err_error4 -->
<g id="node8" class="node">
<title>err_error4</title>
<path fill="white" stroke="black" d="M377,-384.5C377,-384.5 316,-384.5 316,-384.5 310,-384.5 304,-378.5 304,-372.5 304,-372.5 304,-360.5 304,-360.5 304,-354.5 310,-348.5 316,-348.5 316,-348.5 377,-348.5 377,-348.5 383,-348.5 389,-354.5 389,-360.5 389,-360.5 389,-372.5 389,-372.5 389,-378.5 383,-384.5 377,-384.5"/>
<text text-anchor="middle" x="346.5" y="-362.8" font-family="Helvetica,sans-Serif" font-size="14.00">err_error4</text>
</g>
<!-- rotate&#45;&gt;err_error4 -->
<g id="edge14" class="edge">
<title>rotate&#45;&gt;err_error4</title>
<path fill="none" stroke="black" stroke-width="1.2" d="M147.21,-440.2C183.75,-426.62 248.71,-402.48 294.3,-385.53"/>
<polygon fill="black" stroke="black" stroke-width="1.2" points="295.56,-388.8 303.72,-382.03 293.13,-382.24 295.56,-388.8"/>
</g>
<!-- mnt_comp3 -->
<g id="node12" class="node">
<title>mnt_comp3</title>
<path fill="white" stroke="black" d="M1028,-311.5C1028,-311.5 954,-311.5 954,-311.5 948,-311.5 942,-305.5 942,-299.5 942,-299.5 942,-287.5 942,-287.5 942,-281.5 948,-275.5 954,-275.5 954,-275.5 1028,-275.5 1028,-275.5 1034,-275.5 1040,-281.5 1040,-287.5 1040,-287.5 1040,-299.5 1040,-299.5 1040,-305.5 1034,-311.5 1028,-311.5"/>
<text text-anchor="middle" x="991" y="-289.8" font-family="Helvetica,sans-Serif" font-size="14.00">mnt_comp3</text>
</g>
<!-- rotate&#45;&gt;mnt_comp3 -->
<g id="edge16" class="edge">
<title>rotate&#45;&gt;mnt_comp3</title>
<path fill="none" stroke="black" stroke-width="1.2" d="M147.09,-459.32C158.16,-462.6 171.09,-466.1 183,-468.5 254.33,-482.91 272.73,-488.5 345.5,-488.5 345.5,-488.5 345.5,-488.5 468.5,-488.5 670.01,-488.5 737.14,-479.47 906,-369.5 927.17,-355.71 923.28,-342.48 942,-325.5 944.96,-322.82 948.17,-320.19 951.47,-317.67"/>
<polygon fill="black" stroke="black" stroke-width="1.2" points="953.74,-320.35 959.79,-311.65 949.63,-314.68 953.74,-320.35"/>
</g>
<!-- mnt_comp4 -->
<g id="node13" class="node">
<title>mnt_comp4</title>
<path fill="white" stroke="black" d="M894,-506.5C894,-506.5 820,-506.5 820,-506.5 814,-506.5 808,-500.5 808,-494.5 808,-494.5 808,-482.5 808,-482.5 808,-476.5 814,-470.5 820,-470.5 820,-470.5 894,-470.5 894,-470.5 900,-470.5 906,-476.5 906,-482.5 906,-482.5 906,-494.5 906,-494.5 906,-500.5 900,-506.5 894,-506.5"/>
<text text-anchor="middle" x="857" y="-484.8" font-family="Helvetica,sans-Serif" font-size="14.00">mnt_comp4</text>
</g>
<!-- rotate&#45;&gt;mnt_comp4 -->
<g id="edge17" class="edge">
<title>rotate&#45;&gt;mnt_comp4</title>
<path fill="none" stroke="black" stroke-width="1.2" d="M136.58,-477.27C148.12,-493.72 164.57,-514.28 183,-528.5 245.82,-577 266.14,-602.5 345.5,-602.5 345.5,-602.5 345.5,-602.5 593,-602.5 682.72,-602.5 776.5,-545.97 824.13,-512.52"/>
<polygon fill="black" stroke="black" stroke-width="1.2" points="139.21,-474.93 130.69,-468.63 133.43,-478.87 139.21,-474.93"/>
<polygon fill="black" stroke="black" stroke-width="1.2" points="826.37,-515.23 832.48,-506.57 822.3,-509.53 826.37,-515.23"/>
</g>
<!-- rotate&#45;&gt;fail_comp2 -->
<g id="edge18" class="edge">
<title>rotate&#45;&gt;fail_comp2</title>
<path fill="none" stroke="black" stroke-width="1.2" d="M157.14,-452.84C242.98,-457.52 450.39,-464.92 510,-431.5 545.69,-411.5 568.85,-368.42 580.92,-339.96"/>
<polygon fill="black" stroke="black" stroke-width="1.2" points="157.23,-449.34 147.05,-452.27 156.84,-456.33 157.23,-449.34"/>
<polygon fill="black" stroke="black" stroke-width="1.2" points="584.22,-341.14 584.73,-330.56 577.73,-338.51 584.22,-341.14"/>
</g>
<!-- vibration -->
<g id="node4" class="node">
<title>vibration</title>
<path fill="white" stroke="black" d="M494.5,-422.5C494.5,-422.5 440.5,-422.5 440.5,-422.5 434.5,-422.5 428.5,-416.5 428.5,-410.5 428.5,-410.5 428.5,-398.5 428.5,-398.5 428.5,-392.5 434.5,-386.5 440.5,-386.5 440.5,-386.5 494.5,-386.5 494.5,-386.5 500.5,-386.5 506.5,-392.5 506.5,-398.5 506.5,-398.5 506.5,-410.5 506.5,-410.5 506.5,-416.5 500.5,-422.5 494.5,-422.5"/>
<text text-anchor="middle" x="467.5" y="-400.8" font-family="Helvetica,sans-Serif" font-size="14.00">vibration</text>
</g>
<!-- pressure&#45;&gt;vibration -->
<g id="edge19" class="edge">
<title>pressure&#45;&gt;vibration</title>
<path fill="none" stroke="black" stroke-width="1.2" d="M382.06,-299.26C384.52,-301.59 386.87,-304.01 389,-306.5 410.69,-331.92 403.31,-347.09 425,-372.5 427.13,-374.99 429.48,-377.42 431.94,-379.74"/>
<polygon fill="black" stroke="black" stroke-width="1.2" points="384.25,-296.53 374.41,-292.61 379.66,-301.81 384.25,-296.53"/>
<polygon fill="black" stroke="black" stroke-width="1.2" points="429.75,-382.47 439.59,-386.39 434.34,-377.19 429.75,-382.47"/>
</g>
<!-- err_error3 -->
<g id="node7" class="node">
<title>err_error3</title>
<path fill="white" stroke="black" d="M498,-178.5C498,-178.5 437,-178.5 437,-178.5 431,-178.5 425,-172.5 425,-166.5 425,-166.5 425,-154.5 425,-154.5 425,-148.5 431,-142.5 437,-142.5 437,-142.5 498,-142.5 498,-142.5 504,-142.5 510,-148.5 510,-154.5 510,-154.5 510,-166.5 510,-166.5 510,-172.5 504,-178.5 498,-178.5"/>
<text text-anchor="middle" x="467.5" y="-156.8" font-family="Helvetica,sans-Serif" font-size="14.00">err_error3</text>
</g>
<!-- pressure&#45;&gt;err_error3 -->
<g id="edge22" class="edge">
<title>pressure&#45;&gt;err_error3</title>
<path fill="none" stroke="black" stroke-width="1.2" d="M373.5,-256.31C378.88,-252.06 384.32,-247.34 389,-242.5 408.04,-222.82 405.96,-212.18 425,-192.5 427.34,-190.08 429.87,-187.7 432.49,-185.38"/>
<polygon fill="black" stroke="black" stroke-width="1.2" points="435.07,-187.79 440.5,-178.69 430.58,-182.42 435.07,-187.79"/>
</g>
<!-- pressure&#45;&gt;fail_comp2 -->
<g id="edge25" class="edge">
<title>pressure&#45;&gt;fail_comp2</title>
<path fill="none" stroke="black" stroke-width="1.2" d="M385.01,-280.36C425.32,-286.65 489.79,-296.71 535.87,-303.9"/>
<polygon fill="black" stroke="black" stroke-width="1.2" points="535.57,-307.39 545.99,-305.48 536.65,-300.48 535.57,-307.39"/>
</g>
<!-- vibration&#45;&gt;volt -->
<g id="edge3" class="edge">
<title>vibration&#45;&gt;volt</title>
<path fill="none" stroke="black" stroke-width="1.2" d="M428.29,-405.08C395.08,-404.83 345.85,-402.66 304,-393.5 298.42,-392.28 106.25,-320.52 90,-310.5 76.59,-302.24 63.32,-290.99 52.51,-280.82"/>
<polygon fill="black" stroke="black" stroke-width="1.2" points="54.74,-278.1 45.12,-273.66 49.87,-283.13 54.74,-278.1"/>
</g>
<!-- err_error5 -->
<g id="node9" class="node">
<title>err_error5</title>
<path fill="white" stroke="black" d="M622.5,-552.5C622.5,-552.5 561.5,-552.5 561.5,-552.5 555.5,-552.5 549.5,-546.5 549.5,-540.5 549.5,-540.5 549.5,-528.5 549.5,-528.5 549.5,-522.5 555.5,-516.5 561.5,-516.5 561.5,-516.5 622.5,-516.5 622.5,-516.5 628.5,-516.5 634.5,-522.5 634.5,-528.5 634.5,-528.5 634.5,-540.5 634.5,-540.5 634.5,-546.5 628.5,-552.5 622.5,-552.5"/>
<text text-anchor="middle" x="592" y="-530.8" font-family="Helvetica,sans-Serif" font-size="14.00">err_error5</text>
</g>
<!-- vibration&#45;&gt;err_error5 -->
<g id="edge28" class="edge">
<title>vibration&#45;&gt;err_error5</title>
<path fill="none" stroke="black" stroke-width="1.2" d="M492.53,-430C514,-452.79 545.31,-486.01 566.82,-508.85"/>
<polygon fill="black" stroke="black" stroke-width="1.2" points="494.94,-427.46 485.53,-422.58 489.84,-432.26 494.94,-427.46"/>
<polygon fill="black" stroke="black" stroke-width="1.2" points="564.31,-511.28 573.72,-516.16 569.41,-506.48 564.31,-511.28"/>
</g>
<!-- vibration&#45;&gt;mnt_comp4 -->
<g id="edge30" class="edge">
<title>vibration&#45;&gt;mnt_comp4</title>
<path fill="none" stroke="black" stroke-width="1.2" d="M506.72,-412.79C574.83,-427.55 717.6,-458.5 797.92,-475.91"/>
<polygon fill="black" stroke="black" stroke-width="1.2" points="797.35,-479.37 807.87,-478.07 798.84,-472.53 797.35,-479.37"/>
</g>
<!-- vibration&#45;&gt;fail_comp1 -->
<g id="edge31" class="edge">
<title>vibration&#45;&gt;fail_comp1</title>
<path fill="none" stroke="black" stroke-width="1.2" d="M481.82,-376.9C495.31,-351.01 518.14,-312.36 546,-285.5 546.92,-284.61 547.88,-283.74 548.86,-282.89"/>
<polygon fill="black" stroke="black" stroke-width="1.2" points="478.53,-375.65 477.11,-386.15 484.76,-378.83 478.53,-375.65"/>
<polygon fill="black" stroke="black" stroke-width="1.2" points="551.11,-285.58 556.85,-276.67 546.81,-280.05 551.11,-285.58"/>
</g>
<!-- vibration&#45;&gt;fail_comp2 -->
<g id="edge32" class="edge">
<title>vibration&#45;&gt;fail_comp2</title>
<path fill="none" stroke="black" stroke-width="1.2" d="M500.9,-380.17C518.68,-366.81 540.68,-350.3 558.48,-336.93"/>
<polygon fill="black" stroke="black" stroke-width="1.2" points="498.6,-377.52 492.7,-386.33 502.8,-383.12 498.6,-377.52"/>
<polygon fill="black" stroke="black" stroke-width="1.2" points="560.95,-339.45 566.85,-330.64 556.75,-333.85 560.95,-339.45"/>
</g>
<!-- err_error1&#45;&gt;pressure -->
<g id="edge20" class="edge">
<title>err_error1&#45;&gt;pressure</title>
<path fill="none" stroke="black" stroke-width="1.2" d="M268.12,-244.59C277.87,-248.36 288.33,-252.4 298.31,-256.26"/>
<polygon fill="black" stroke="black" stroke-width="1.2" points="297.09,-259.54 307.68,-259.89 299.62,-253.01 297.09,-259.54"/>
</g>
<!-- err_error1&#45;&gt;vibration -->
<g id="edge26" class="edge">
<title>err_error1&#45;&gt;vibration</title>
<path fill="none" stroke="black" stroke-width="1.2" d="M242.33,-246.52C257.08,-262.5 280.31,-285.71 304,-301.5 338.43,-324.46 354.41,-316.78 389,-339.5 407.14,-351.42 408.39,-358.53 425,-372.5 427.88,-374.93 430.92,-377.41 433.99,-379.86"/>
<polygon fill="black" stroke="black" stroke-width="1.2" points="432.06,-382.8 442.09,-386.23 436.39,-377.3 432.06,-382.8"/>
</g>
<!-- err_error1&#45;&gt;err_error3 -->
<g id="edge33" class="edge">
<title>err_error1&#45;&gt;err_error3</title>
<path fill="none" stroke="black" stroke-width="1.2" d="M268.03,-216.74C308.82,-205.18 371.14,-187.52 415.04,-175.08"/>
<polygon fill="black" stroke="black" stroke-width="1.2" points="416.01,-178.45 424.67,-172.35 414.1,-171.71 416.01,-178.45"/>
</g>
<!-- err_error2&#45;&gt;pressure -->
<g id="edge21" class="edge">
<title>err_error2&#45;&gt;pressure</title>
<path fill="none" stroke="black" stroke-width="1.2" d="M268.12,-304.41C277.87,-300.64 288.33,-296.6 298.31,-292.75"/>
<polygon fill="black" stroke="black" stroke-width="1.2" points="299.62,-295.99 307.68,-289.12 297.09,-289.46 299.62,-295.99"/>
</g>
<!-- err_error2&#45;&gt;err_error4 -->
<g id="edge35" class="edge">
<title>err_error2&#45;&gt;err_error4</title>
<path fill="none" stroke="black" stroke-width="1.2" d="M268.12,-336.59C276.59,-339.86 285.58,-343.34 294.34,-346.73"/>
<polygon fill="black" stroke="black" stroke-width="1.2" points="293.11,-350 303.7,-350.35 295.64,-343.48 293.11,-350"/>
</g>
<!-- err_error3&#45;&gt;volt -->
<g id="edge6" class="edge">
<title>err_error3&#45;&gt;volt</title>
<path fill="none" stroke="black" stroke-width="1.2" d="M424.54,-163.36C368.62,-167.89 266.98,-178.67 183,-201.5 141.44,-212.8 94.93,-229.58 63.79,-241.43"/>
<polygon fill="black" stroke="black" stroke-width="1.2" points="62.33,-238.24 54.25,-245.09 64.84,-244.78 62.33,-238.24"/>
</g>
<!-- err_error3&#45;&gt;err_error2 -->
<g id="edge34" class="edge">
<title>err_error3&#45;&gt;err_error2</title>
<path fill="none" stroke="black" stroke-width="1.2" d="M439.01,-178.69C424.41,-188.05 406.01,-199.38 389,-208.5 352.37,-228.15 338.47,-224.28 304,-247.5 284.03,-260.96 264.31,-279.63 249.76,-294.72"/>
<polygon fill="black" stroke="black" stroke-width="1.2" points="246.98,-292.56 242.65,-302.23 252.07,-297.37 246.98,-292.56"/>
</g>
<!-- err_error4&#45;&gt;vibration -->
<g id="edge27" class="edge">
<title>err_error4&#45;&gt;vibration</title>
<path fill="none" stroke="black" stroke-width="1.2" d="M389.12,-379.79C398.67,-382.84 408.9,-386.11 418.69,-389.24"/>
<polygon fill="black" stroke="black" stroke-width="1.2" points="417.7,-392.59 428.29,-392.3 419.83,-385.93 417.7,-392.59"/>
</g>
<!-- err_error5&#45;&gt;volt -->
<g id="edge7" class="edge">
<title>err_error5&#45;&gt;volt</title>
<path fill="none" stroke="black" stroke-width="1.2" d="M549.11,-543.68C536.58,-546.18 522.77,-548.7 510,-550.5 438.22,-560.65 419.99,-564.5 347.5,-564.5 224.5,-564.5 224.5,-564.5 224.5,-564.5 153.31,-564.5 132.2,-534.84 90,-477.5 46.28,-418.11 33.38,-329.17 29.58,-284.01"/>
<polygon fill="black" stroke="black" stroke-width="1.2" points="33.05,-283.49 28.81,-273.78 26.07,-284.01 33.05,-283.49"/>
</g>
<!-- err_error5&#45;&gt;rotate -->
<g id="edge15" class="edge">
<title>err_error5&#45;&gt;rotate</title>
<path fill="none" stroke="black" stroke-width="1.2" d="M549.2,-539.2C473.19,-546.06 308.59,-552.99 183,-502.5 168.21,-496.56 154.22,-485.88 143.16,-475.74"/>
<polygon fill="black" stroke="black" stroke-width="1.2" points="145.29,-472.93 135.65,-468.53 140.44,-477.98 145.29,-472.93"/>
</g>
<!-- mnt_comp1 -->
<g id="node10" class="node">
<title>mnt_comp1</title>
<path fill="white" stroke="black" d="M1162,-254.5C1162,-254.5 1088,-254.5 1088,-254.5 1082,-254.5 1076,-248.5 1076,-242.5 1076,-242.5 1076,-230.5 1076,-230.5 1076,-224.5 1082,-218.5 1088,-218.5 1088,-218.5 1162,-218.5 1162,-218.5 1168,-218.5 1174,-224.5 1174,-230.5 1174,-230.5 1174,-242.5 1174,-242.5 1174,-248.5 1168,-254.5 1162,-254.5"/>
<text text-anchor="middle" x="1125" y="-232.8" font-family="Helvetica,sans-Serif" font-size="14.00">mnt_comp1</text>
</g>
<!-- mnt_comp1&#45;&gt;volt -->
<g id="edge8" class="edge">
<title>mnt_comp1&#45;&gt;volt</title>
<path fill="none" stroke="black" stroke-width="1.2" d="M1114.93,-218.38C1085.87,-163.11 989.19,-0.5 858,-0.5 224.5,-0.5 224.5,-0.5 224.5,-0.5 162.62,-0.5 134.07,6.94 90,-36.5 37.63,-88.12 28.64,-180.41 27.63,-226.97"/>
<polygon fill="black" stroke="black" stroke-width="1.2" points="24.13,-227.21 27.52,-237.24 31.13,-227.28 24.13,-227.21"/>
</g>
<!-- mnt_comp2&#45;&gt;pressure -->
<g id="edge23" class="edge">
<title>mnt_comp2&#45;&gt;pressure</title>
<path fill="none" stroke="black" stroke-width="1.2" d="M673.89,-355.38C638.34,-352.57 588.88,-347.61 546,-339.5 491.23,-329.15 477.75,-324.51 425,-306.5 415.08,-303.12 404.61,-299.11 394.69,-295.09"/>
<polygon fill="black" stroke="black" stroke-width="1.2" points="395.95,-291.82 385.37,-291.25 393.29,-298.3 395.95,-291.82"/>
</g>
<!-- mnt_comp2&#45;&gt;mnt_comp4 -->
<g id="edge39" class="edge">
<title>mnt_comp2&#45;&gt;mnt_comp4</title>
<path fill="none" stroke="black" stroke-width="1.2" d="M742.35,-376.58C765.18,-399.06 804.28,-437.57 830.14,-463.03"/>
<polygon fill="black" stroke="black" stroke-width="1.2" points="827.8,-465.64 837.38,-470.16 832.71,-460.65 827.8,-465.64"/>
</g>
<!-- mnt_comp3&#45;&gt;volt -->
<g id="edge10" class="edge">
<title>mnt_comp3&#45;&gt;volt</title>
<path fill="none" stroke="black" stroke-width="1.2" d="M981.92,-275.16C954.8,-216.69 860.9,-38.5 724,-38.5 224.5,-38.5 224.5,-38.5 224.5,-38.5 163.05,-38.5 135.36,-29.05 90,-70.5 44.9,-111.73 32.57,-186.7 29.23,-227.4"/>
<polygon fill="black" stroke="black" stroke-width="1.2" points="25.73,-227.23 28.53,-237.44 32.71,-227.71 25.73,-227.23"/>
</g>
<!-- mnt_comp3&#45;&gt;pressure -->
<g id="edge24" class="edge">
<title>mnt_comp3&#45;&gt;pressure</title>
<path fill="none" stroke="black" stroke-width="1.2" d="M941.84,-278.95C860.47,-256.12 690.52,-216.03 546,-231.5 493.64,-237.11 434.82,-250.81 394.89,-261.25"/>
<polygon fill="black" stroke="black" stroke-width="1.2" points="393.93,-257.88 385.16,-263.83 395.72,-264.65 393.93,-257.88"/>
</g>
<!-- mnt_comp3&#45;&gt;vibration -->
<g id="edge29" class="edge">
<title>mnt_comp3&#45;&gt;vibration</title>
<path fill="none" stroke="black" stroke-width="1.2" d="M956.84,-311.69C915.11,-333.57 840.58,-369.38 772,-385.5 683.82,-406.24 577.51,-407.71 516.98,-406.43"/>
<polygon fill="black" stroke="black" stroke-width="1.2" points="517.03,-402.93 506.95,-406.18 516.86,-409.93 517.03,-402.93"/>
</g>
<!-- mnt_comp3&#45;&gt;mnt_comp1 -->
<g id="edge36" class="edge">
<title>mnt_comp3&#45;&gt;mnt_comp1</title>
<path fill="none" stroke="black" stroke-width="1.2" d="M1033.77,-275.47C1046.16,-270.11 1059.89,-264.19 1072.81,-258.61"/>
<polygon fill="black" stroke="black" stroke-width="1.2" points="1074.26,-261.79 1082.05,-254.62 1071.48,-255.37 1074.26,-261.79"/>
</g>
<!-- mnt_comp4&#45;&gt;mnt_comp1 -->
<g id="edge37" class="edge">
<title>mnt_comp4&#45;&gt;mnt_comp1</title>
<path fill="none" stroke="black" stroke-width="1.2" d="M887.11,-470.47C893.51,-466.13 900.12,-461.34 906,-456.5 983.4,-392.76 1063.71,-305.14 1101.63,-262.26"/>
<polygon fill="black" stroke="black" stroke-width="1.2" points="1104.44,-264.36 1108.42,-254.54 1099.18,-259.74 1104.44,-264.36"/>
</g>
<!-- mnt_comp4&#45;&gt;mnt_comp3 -->
<g id="edge42" class="edge">
<title>mnt_comp4&#45;&gt;mnt_comp3</title>
<path fill="none" stroke="black" stroke-width="1.2" d="M890.3,-470.29C895.95,-466.22 901.46,-461.58 906,-456.5 925.3,-434.9 959.61,-361.63 977.84,-321.08"/>
<polygon fill="black" stroke="black" stroke-width="1.2" points="981.12,-322.32 982,-311.76 974.73,-319.46 981.12,-322.32"/>
</g>
<!-- fail_comp1&#45;&gt;mnt_comp1 -->
<g id="edge38" class="edge">
<title>fail_comp1&#45;&gt;mnt_comp1</title>
<path fill="none" stroke="black" stroke-width="1.2" d="M638.27,-256.63C734.39,-252.64 958.76,-243.35 1065.53,-238.93"/>
<polygon fill="black" stroke="black" stroke-width="1.2" points="1065.95,-242.41 1075.79,-238.5 1065.66,-235.42 1065.95,-242.41"/>
</g>
<!-- fail_comp1&#45;&gt;mnt_comp2 -->
<g id="edge40" class="edge">
<title>fail_comp1&#45;&gt;mnt_comp2</title>
<path fill="none" stroke="black" stroke-width="1.2" d="M624.92,-276.7C629.4,-279.53 633.87,-282.51 638,-285.5 658.29,-300.23 679.59,-318.79 695.67,-333.5"/>
<polygon fill="black" stroke="black" stroke-width="1.2" points="693.39,-336.17 703.11,-340.38 698.15,-331.03 693.39,-336.17"/>
</g>
<!-- fail_comp1&#45;&gt;mnt_comp3 -->
<g id="edge43" class="edge">
<title>fail_comp1&#45;&gt;mnt_comp3</title>
<path fill="none" stroke="black" stroke-width="1.2" d="M638.15,-262.48C710.31,-268.85 851.6,-281.3 931.43,-288.34"/>
<polygon fill="black" stroke="black" stroke-width="1.2" points="931.53,-291.86 941.8,-289.25 932.15,-284.89 931.53,-291.86"/>
</g>
<!-- fail_comp2&#45;&gt;mnt_comp2 -->
<g id="edge41" class="edge">
<title>fail_comp2&#45;&gt;mnt_comp2</title>
<path fill="none" stroke="black" stroke-width="1.2" d="M638.12,-328.59C646.46,-331.57 655.28,-334.71 663.94,-337.8"/>
<polygon fill="black" stroke="black" stroke-width="1.2" points="663.02,-341.19 673.62,-341.25 665.37,-334.59 663.02,-341.19"/>
</g>
<!-- fail_comp2&#45;&gt;mnt_comp3 -->
<g id="edge44" class="edge">
<title>fail_comp2&#45;&gt;mnt_comp3</title>
<path fill="none" stroke="black" stroke-width="1.2" d="M638.15,-310.34C710.31,-306.89 851.6,-300.13 931.43,-296.31"/>
<polygon fill="black" stroke="black" stroke-width="1.2" points="931.98,-299.78 941.8,-295.81 931.64,-292.79 931.98,-299.78"/>
</g>
</g>
</svg>
