<?xml version="1.0" encoding="UTF-8" standalone="no"?>
<!DOCTYPE svg PUBLIC "-//W3C//DTD SVG 1.1//EN"
 "http://www.w3.org/Graphics/SVG/1.1/DTD/svg11.dtd">
<!-- Generated by graphviz version 2.50.0 (0)
 -->
<!-- Title: G Pages: 1 -->
<svg width="451pt" height="178pt"
 viewBox="0.00 0.00 451.00 178.00" xmlns="http://www.w3.org/2000/svg" xmlns:xlink="http://www.w3.org/1999/xlink">
<g id="graph0" class="graph" transform="scale(1 1) rotate(0) translate(4 174)">
<title>G</title>
<polygon fill="white" stroke="transparent" points="-4,4 -4,-174 447,-174 447,4 -4,4"/>
<text text-anchor="middle" x="221.5" y="-153.2" font-family="Times,serif" font-size="16.00">model=model2/nbcb_e_telemetry.json [machine 20]</text>
<!-- volt -->
<g id="node1" class="node">
<title>volt</title>
<path fill="white" stroke="black" d="M179.5,-36C179.5,-36 149.5,-36 149.5,-36 143.5,-36 137.5,-30 137.5,-24 137.5,-24 137.5,-12 137.5,-12 137.5,-6 143.5,0 149.5,0 149.5,0 179.5,0 179.5,0 185.5,0 191.5,-6 191.5,-12 191.5,-12 191.5,-24 191.5,-24 191.5,-30 185.5,-36 179.5,-36"/>
<text text-anchor="middle" x="164.5" y="-14.3" font-family="Helvetica,sans-Serif" font-size="14.00">volt</text>
</g>
<!-- rotate -->
<g id="node2" class="node">
<title>rotate</title>
<path fill="white" stroke="black" d="M181,-90C181,-90 148,-90 148,-90 142,-90 136,-84 136,-78 136,-78 136,-66 136,-66 136,-60 142,-54 148,-54 148,-54 181,-54 181,-54 187,-54 193,-60 193,-66 193,-66 193,-78 193,-78 193,-84 187,-90 181,-90"/>
<text text-anchor="middle" x="164.5" y="-68.3" font-family="Helvetica,sans-Serif" font-size="14.00">rotate</text>
</g>
<!-- vibration -->
<g id="node4" class="node">
<title>vibration</title>
<path fill="white" stroke="black" d="M305,-90C305,-90 251,-90 251,-90 245,-90 239,-84 239,-78 239,-78 239,-66 239,-66 239,-60 245,-54 251,-54 251,-54 305,-54 305,-54 311,-54 317,-60 317,-66 317,-66 317,-78 317,-78 317,-84 311,-90 305,-90"/>
<text text-anchor="middle" x="278" y="-68.3" font-family="Helvetica,sans-Serif" font-size="14.00">vibration</text>
</g>
<!-- rotate&#45;&gt;vibration -->
<g id="edge1" class="edge">
<title>rotate&#45;&gt;vibration</title>
<path fill="none" stroke="black" stroke-width="1.2" d="M193.06,-72C203.84,-72 216.53,-72 228.74,-72"/>
<polygon fill="black" stroke="black" stroke-width="1.2" points="228.82,-75.5 238.82,-72 228.82,-68.5 228.82,-75.5"/>
</g>
<!-- pressure -->
<g id="node3" class="node">
<title>pressure</title>
<path fill="white" stroke="black" d="M191,-144C191,-144 138,-144 138,-144 132,-144 126,-138 126,-132 126,-132 126,-120 126,-120 126,-114 132,-108 138,-108 138,-108 191,-108 191,-108 197,-108 203,-114 203,-120 203,-120 203,-132 203,-132 203,-138 197,-144 191,-144"/>
<text text-anchor="middle" x="164.5" y="-122.3" font-family="Helvetica,sans-Serif" font-size="14.00">pressure</text>
</g>
</g>
</svg>
