<?xml version="1.0" encoding="UTF-8" standalone="no"?>
<!DOCTYPE svg PUBLIC "-//W3C//DTD SVG 1.1//EN"
 "http://www.w3.org/Graphics/SVG/1.1/DTD/svg11.dtd">
<!-- Generated by graphviz version 2.50.0 (0)
 -->
<!-- Title: G Pages: 1 -->
<svg width="454pt" height="162pt"
 viewBox="0.00 0.00 454.00 162.00" xmlns="http://www.w3.org/2000/svg" xmlns:xlink="http://www.w3.org/1999/xlink">
<g id="graph0" class="graph" transform="scale(1 1) rotate(0) translate(4 158)">
<title>G</title>
<polygon fill="white" stroke="transparent" points="-4,4 -4,-158 450,-158 450,4 -4,4"/>
<text text-anchor="middle" x="223" y="-137.2" font-family="Times,serif" font-size="16.00">model=model2/nbcb_w_telemetry.json [machine 96]</text>
<!-- volt -->
<g id="node1" class="node">
<title>volt</title>
<path fill="white" stroke="black" d="M124.5,-105C124.5,-105 94.5,-105 94.5,-105 88.5,-105 82.5,-99 82.5,-93 82.5,-93 82.5,-81 82.5,-81 82.5,-75 88.5,-69 94.5,-69 94.5,-69 124.5,-69 124.5,-69 130.5,-69 136.5,-75 136.5,-81 136.5,-81 136.5,-93 136.5,-93 136.5,-99 130.5,-105 124.5,-105"/>
<text text-anchor="middle" x="109.5" y="-83.3" font-family="Helvetica,sans-Serif" font-size="14.00">volt</text>
</g>
<!-- pressure -->
<g id="node3" class="node">
<title>pressure</title>
<path fill="white" stroke="black" d="M237.5,-128C237.5,-128 184.5,-128 184.5,-128 178.5,-128 172.5,-122 172.5,-116 172.5,-116 172.5,-104 172.5,-104 172.5,-98 178.5,-92 184.5,-92 184.5,-92 237.5,-92 237.5,-92 243.5,-92 249.5,-98 249.5,-104 249.5,-104 249.5,-116 249.5,-116 249.5,-122 243.5,-128 237.5,-128"/>
<text text-anchor="middle" x="211" y="-106.3" font-family="Helvetica,sans-Serif" font-size="14.00">pressure</text>
</g>
<!-- volt&#45;&gt;pressure -->
<g id="edge1" class="edge">
<title>volt&#45;&gt;pressure</title>
<path fill="none" stroke="black" stroke-width="1.2" d="M136.64,-93.04C144.59,-94.88 153.59,-96.96 162.49,-99.02"/>
<polygon fill="black" stroke="black" stroke-width="1.2" points="161.9,-102.47 172.43,-101.32 163.48,-95.65 161.9,-102.47"/>
</g>
<!-- rotate -->
<g id="node2" class="node">
<title>rotate</title>
<path fill="white" stroke="black" d="M227.5,-36C227.5,-36 194.5,-36 194.5,-36 188.5,-36 182.5,-30 182.5,-24 182.5,-24 182.5,-12 182.5,-12 182.5,-6 188.5,0 194.5,0 194.5,0 227.5,0 227.5,0 233.5,0 239.5,-6 239.5,-12 239.5,-12 239.5,-24 239.5,-24 239.5,-30 233.5,-36 227.5,-36"/>
<text text-anchor="middle" x="211" y="-14.3" font-family="Helvetica,sans-Serif" font-size="14.00">rotate</text>
</g>
<!-- vibration -->
<g id="node4" class="node">
<title>vibration</title>
<path fill="white" stroke="black" d="M351.5,-82C351.5,-82 297.5,-82 297.5,-82 291.5,-82 285.5,-76 285.5,-70 285.5,-70 285.5,-58 285.5,-58 285.5,-52 291.5,-46 297.5,-46 297.5,-46 351.5,-46 351.5,-46 357.5,-46 363.5,-52 363.5,-58 363.5,-58 363.5,-70 363.5,-70 363.5,-76 357.5,-82 351.5,-82"/>
<text text-anchor="middle" x="324.5" y="-60.3" font-family="Helvetica,sans-Serif" font-size="14.00">vibration</text>
</g>
<!-- rotate&#45;&gt;vibration -->
<g id="edge3" class="edge">
<title>rotate&#45;&gt;vibration</title>
<path fill="none" stroke="black" stroke-width="1.2" d="M239.56,-29.37C250.56,-33.91 263.54,-39.26 275.97,-44.39"/>
<polygon fill="black" stroke="black" stroke-width="1.2" points="274.74,-47.67 285.32,-48.25 277.41,-41.2 274.74,-47.67"/>
</g>
<!-- pressure&#45;&gt;vibration -->
<g id="edge4" class="edge">
<title>pressure&#45;&gt;vibration</title>
<path fill="none" stroke="black" stroke-width="1.2" d="M249.75,-94.43C258.19,-90.94 267.25,-87.2 276.04,-83.58"/>
<polygon fill="black" stroke="black" stroke-width="1.2" points="277.5,-86.76 285.41,-79.71 274.83,-80.29 277.5,-86.76"/>
</g>
<!-- vibration&#45;&gt;volt -->
<g id="edge2" class="edge">
<title>vibration&#45;&gt;volt</title>
<path fill="none" stroke="black" stroke-width="1.2" d="M285.28,-68.13C246.04,-72.36 185.42,-78.91 146.87,-83.07"/>
<polygon fill="black" stroke="black" stroke-width="1.2" points="146.18,-79.63 136.62,-84.18 146.94,-86.59 146.18,-79.63"/>
</g>
</g>
</svg>
