<?xml version="1.0" encoding="UTF-8" standalone="no"?>
<!DOCTYPE svg PUBLIC "-//W3C//DTD SVG 1.1//EN"
 "http://www.w3.org/Graphics/SVG/1.1/DTD/svg11.dtd">
<!-- Generated by graphviz version 2.50.0 (0)
 -->
<!-- Title: G Pages: 1 -->
<svg width="1195pt" height="408pt"
 viewBox="0.00 0.00 1195.00 408.00" xmlns="http://www.w3.org/2000/svg" xmlns:xlink="http://www.w3.org/1999/xlink">
<g id="graph0" class="graph" transform="scale(1 1) rotate(0) translate(4 404)">
<title>G</title>
<polygon fill="white" stroke="transparent" points="-4,4 -4,-404 1191,-404 1191,4 -4,4"/>
<text text-anchor="middle" x="593.5" y="-383.2" font-family="Times,serif" font-size="16.00">model=model4/nbcb_w_mixed.json [machine 41]</text>
<!-- volt -->
<g id="node1" class="node">
<title>volt</title>
<path fill="white" stroke="black" d="M276,-140C276,-140 246,-140 246,-140 240,-140 234,-134 234,-128 234,-128 234,-116 234,-116 234,-110 240,-104 246,-104 246,-104 276,-104 276,-104 282,-104 288,-110 288,-116 288,-116 288,-128 288,-128 288,-134 282,-140 276,-140"/>
<text text-anchor="middle" x="261" y="-118.3" font-family="Helvetica,sans-Serif" font-size="14.00">volt</text>
</g>
<!-- rotate -->
<g id="node2" class="node">
<title>rotate</title>
<path fill="white" stroke="black" d="M383,-232C383,-232 350,-232 350,-232 344,-232 338,-226 338,-220 338,-220 338,-208 338,-208 338,-202 344,-196 350,-196 350,-196 383,-196 383,-196 389,-196 395,-202 395,-208 395,-208 395,-220 395,-220 395,-226 389,-232 383,-232"/>
<text text-anchor="middle" x="366.5" y="-210.3" font-family="Helvetica,sans-Serif" font-size="14.00">rotate</text>
</g>
<!-- volt&#45;&gt;rotate -->
<g id="edge1" class="edge">
<title>volt&#45;&gt;rotate</title>
<path fill="none" stroke="black" stroke-width="1.2" d="M282.45,-140.18C298.18,-154.16 320.1,-173.65 337.47,-189.09"/>
<polygon fill="black" stroke="black" stroke-width="1.2" points="335.29,-191.83 345.09,-195.86 339.95,-186.6 335.29,-191.83"/>
</g>
<!-- err_error4 -->
<g id="node8" class="node">
<title>err_error4</title>
<path fill="white" stroke="black" d="M397,-72C397,-72 336,-72 336,-72 330,-72 324,-66 324,-60 324,-60 324,-48 324,-48 324,-42 330,-36 336,-36 336,-36 397,-36 397,-36 403,-36 409,-42 409,-48 409,-48 409,-60 409,-60 409,-66 403,-72 397,-72"/>
<text text-anchor="middle" x="366.5" y="-50.3" font-family="Helvetica,sans-Serif" font-size="14.00">err_error4</text>
</g>
<!-- volt&#45;&gt;err_error4 -->
<g id="edge4" class="edge">
<title>volt&#45;&gt;err_error4</title>
<path fill="none" stroke="black" stroke-width="1.2" d="M288.12,-104.84C300.59,-96.64 315.73,-86.7 329.3,-77.78"/>
<polygon fill="black" stroke="black" stroke-width="1.2" points="331.51,-80.52 337.94,-72.11 327.66,-74.67 331.51,-80.52"/>
</g>
<!-- fail_comp1 -->
<g id="node14" class="node">
<title>fail_comp1</title>
<path fill="white" stroke="black" d="M525,-64C525,-64 457,-64 457,-64 451,-64 445,-58 445,-52 445,-52 445,-40 445,-40 445,-34 451,-28 457,-28 457,-28 525,-28 525,-28 531,-28 537,-34 537,-40 537,-40 537,-52 537,-52 537,-58 531,-64 525,-64"/>
<text text-anchor="middle" x="491" y="-42.3" font-family="Helvetica,sans-Serif" font-size="14.00">fail_comp1</text>
</g>
<!-- volt&#45;&gt;fail_comp1 -->
<g id="edge6" class="edge">
<title>volt&#45;&gt;fail_comp1</title>
<path fill="none" stroke="black" stroke-width="1.2" d="M288.09,-115.86C317.74,-108.63 367.41,-95.71 409,-81 419.62,-77.25 430.81,-72.76 441.38,-68.28"/>
<polygon fill="black" stroke="black" stroke-width="1.2" points="443.08,-71.36 450.88,-64.18 440.31,-64.93 443.08,-71.36"/>
</g>
<!-- err_error1 -->
<g id="node5" class="node">
<title>err_error1</title>
<path fill="white" stroke="black" d="M521.5,-346C521.5,-346 460.5,-346 460.5,-346 454.5,-346 448.5,-340 448.5,-334 448.5,-334 448.5,-322 448.5,-322 448.5,-316 454.5,-310 460.5,-310 460.5,-310 521.5,-310 521.5,-310 527.5,-310 533.5,-316 533.5,-322 533.5,-322 533.5,-334 533.5,-334 533.5,-340 527.5,-346 521.5,-346"/>
<text text-anchor="middle" x="491" y="-324.3" font-family="Helvetica,sans-Serif" font-size="14.00">err_error1</text>
</g>
<!-- rotate&#45;&gt;err_error1 -->
<g id="edge8" class="edge">
<title>rotate&#45;&gt;err_error1</title>
<path fill="none" stroke="black" stroke-width="1.2" d="M394.29,-238.93C414.61,-257.84 442.43,-283.73 462.85,-302.73"/>
<polygon fill="black" stroke="black" stroke-width="1.2" points="396.62,-236.31 386.91,-232.06 391.85,-241.44 396.62,-236.31"/>
<polygon fill="black" stroke="black" stroke-width="1.2" points="460.57,-305.39 470.27,-309.64 465.34,-300.27 460.57,-305.39"/>
</g>
<!-- mnt_comp1 -->
<g id="node10" class="node">
<title>mnt_comp1</title>
<path fill="white" stroke="black" d="M659,-64C659,-64 585,-64 585,-64 579,-64 573,-58 573,-52 573,-52 573,-40 573,-40 573,-34 579,-28 585,-28 585,-28 659,-28 659,-28 665,-28 671,-34 671,-40 671,-40 671,-52 671,-52 671,-58 665,-64 659,-64"/>
<text text-anchor="middle" x="622" y="-42.3" font-family="Helvetica,sans-Serif" font-size="14.00">mnt_comp1</text>
</g>
<!-- rotate&#45;&gt;mnt_comp1 -->
<g id="edge11" class="edge">
<title>rotate&#45;&gt;mnt_comp1</title>
<path fill="none" stroke="black" stroke-width="1.2" d="M377.85,-195.71C390.95,-174.01 415.43,-138.02 445,-116 464.43,-101.53 519.81,-80.52 563.31,-65.3"/>
<polygon fill="black" stroke="black" stroke-width="1.2" points="564.65,-68.54 572.95,-61.95 562.36,-61.93 564.65,-68.54"/>
</g>
<!-- mnt_comp2 -->
<g id="node11" class="node">
<title>mnt_comp2</title>
<path fill="white" stroke="black" d="M907,-232C907,-232 833,-232 833,-232 827,-232 821,-226 821,-220 821,-220 821,-208 821,-208 821,-202 827,-196 833,-196 833,-196 907,-196 907,-196 913,-196 919,-202 919,-208 919,-208 919,-220 919,-220 919,-226 913,-232 907,-232"/>
<text text-anchor="middle" x="870" y="-210.3" font-family="Helvetica,sans-Serif" font-size="14.00">mnt_comp2</text>
</g>
<!-- rotate&#45;&gt;mnt_comp2 -->
<g id="edge12" class="edge">
<title>rotate&#45;&gt;mnt_comp2</title>
<path fill="none" stroke="black" stroke-width="1.2" d="M371.25,-232.15C378.86,-263.74 399.44,-328.05 445,-355 480.19,-375.82 496.93,-363.16 537,-355 648.48,-332.31 768.94,-270.81 829.48,-237.02"/>
<polygon fill="black" stroke="black" stroke-width="1.2" points="831.33,-240 838.33,-232.04 827.9,-233.9 831.33,-240"/>
</g>
<!-- mnt_comp4 -->
<g id="node13" class="node">
<title>mnt_comp4</title>
<path fill="white" stroke="black" d="M1041,-148C1041,-148 967,-148 967,-148 961,-148 955,-142 955,-136 955,-136 955,-124 955,-124 955,-118 961,-112 967,-112 967,-112 1041,-112 1041,-112 1047,-112 1053,-118 1053,-124 1053,-124 1053,-136 1053,-136 1053,-142 1047,-148 1041,-148"/>
<text text-anchor="middle" x="1004" y="-126.3" font-family="Helvetica,sans-Serif" font-size="14.00">mnt_comp4</text>
</g>
<!-- rotate&#45;&gt;mnt_comp4 -->
<g id="edge13" class="edge">
<title>rotate&#45;&gt;mnt_comp4</title>
<path fill="none" stroke="black" stroke-width="1.2" d="M404.11,-193.63C452.3,-168.76 540.37,-130 621,-130 621,-130 621,-130 747,-130 814.92,-130 892.97,-130 944.86,-130"/>
<polygon fill="black" stroke="black" stroke-width="1.2" points="402.25,-190.65 395.02,-198.4 405.5,-196.85 402.25,-190.65"/>
<polygon fill="black" stroke="black" stroke-width="1.2" points="944.87,-133.5 954.87,-130 944.87,-126.5 944.87,-133.5"/>
</g>
<!-- rotate&#45;&gt;fail_comp1 -->
<g id="edge14" class="edge">
<title>rotate&#45;&gt;fail_comp1</title>
<path fill="none" stroke="black" stroke-width="1.2" d="M376.58,-195.87C393.02,-163.48 427.59,-97.25 445,-78 447.25,-75.51 449.73,-73.11 452.33,-70.81"/>
<polygon fill="black" stroke="black" stroke-width="1.2" points="454.84,-73.28 460.38,-64.25 450.42,-67.85 454.84,-73.28"/>
</g>
<!-- pressure -->
<g id="node3" class="node">
<title>pressure</title>
<path fill="white" stroke="black" d="M65,-194C65,-194 12,-194 12,-194 6,-194 0,-188 0,-182 0,-182 0,-170 0,-170 0,-164 6,-158 12,-158 12,-158 65,-158 65,-158 71,-158 77,-164 77,-170 77,-170 77,-182 77,-182 77,-188 71,-194 65,-194"/>
<text text-anchor="middle" x="38.5" y="-172.3" font-family="Helvetica,sans-Serif" font-size="14.00">pressure</text>
</g>
<!-- vibration -->
<g id="node4" class="node">
<title>vibration</title>
<path fill="white" stroke="black" d="M773,-224C773,-224 719,-224 719,-224 713,-224 707,-218 707,-212 707,-212 707,-200 707,-200 707,-194 713,-188 719,-188 719,-188 773,-188 773,-188 779,-188 785,-194 785,-200 785,-200 785,-212 785,-212 785,-218 779,-224 773,-224"/>
<text text-anchor="middle" x="746" y="-202.3" font-family="Helvetica,sans-Serif" font-size="14.00">vibration</text>
</g>
<!-- pressure&#45;&gt;vibration -->
<g id="edge15" class="edge">
<title>pressure&#45;&gt;vibration</title>
<path fill="none" stroke="black" stroke-width="1.2" d="M53.44,-203.35C83.31,-257.68 159.05,-374 260,-374 260,-374 260,-374 492,-374 519.03,-374 588.35,-356.75 671,-294 683.26,-284.69 707.63,-254.64 725.05,-232.23"/>
<polygon fill="black" stroke="black" stroke-width="1.2" points="56.38,-201.42 48.56,-194.27 50.21,-204.74 56.38,-201.42"/>
<polygon fill="black" stroke="black" stroke-width="1.2" points="728,-234.12 731.34,-224.07 722.46,-229.85 728,-234.12"/>
</g>
<!-- pressure&#45;&gt;err_error1 -->
<g id="edge16" class="edge">
<title>pressure&#45;&gt;err_error1</title>
<path fill="none" stroke="black" stroke-width="1.2" d="M77.19,-190.11C88.66,-194.33 101.32,-198.92 113,-203 228.8,-243.45 365.69,-288.04 438.46,-311.49"/>
<polygon fill="black" stroke="black" stroke-width="1.2" points="437.7,-314.92 448.29,-314.65 439.85,-308.26 437.7,-314.92"/>
</g>
<!-- err_error3 -->
<g id="node7" class="node">
<title>err_error3</title>
<path fill="white" stroke="black" d="M186,-194C186,-194 125,-194 125,-194 119,-194 113,-188 113,-182 113,-182 113,-170 113,-170 113,-164 119,-158 125,-158 125,-158 186,-158 186,-158 192,-158 198,-164 198,-170 198,-170 198,-182 198,-182 198,-188 192,-194 186,-194"/>
<text text-anchor="middle" x="155.5" y="-172.3" font-family="Helvetica,sans-Serif" font-size="14.00">err_error3</text>
</g>
<!-- pressure&#45;&gt;err_error3 -->
<g id="edge17" class="edge">
<title>pressure&#45;&gt;err_error3</title>
<path fill="none" stroke="black" stroke-width="1.2" d="M77.16,-176C85.35,-176 94.15,-176 102.78,-176"/>
<polygon fill="black" stroke="black" stroke-width="1.2" points="102.78,-179.5 112.78,-176 102.78,-172.5 102.78,-179.5"/>
</g>
<!-- err_error5 -->
<g id="node9" class="node">
<title>err_error5</title>
<path fill="white" stroke="black" d="M186,-140C186,-140 125,-140 125,-140 119,-140 113,-134 113,-128 113,-128 113,-116 113,-116 113,-110 119,-104 125,-104 125,-104 186,-104 186,-104 192,-104 198,-110 198,-116 198,-116 198,-128 198,-128 198,-134 192,-140 186,-140"/>
<text text-anchor="middle" x="155.5" y="-118.3" font-family="Helvetica,sans-Serif" font-size="14.00">err_error5</text>
</g>
<!-- pressure&#45;&gt;err_error5 -->
<g id="edge18" class="edge">
<title>pressure&#45;&gt;err_error5</title>
<path fill="none" stroke="black" stroke-width="1.2" d="M77.16,-158.32C86.59,-153.89 96.83,-149.08 106.68,-144.45"/>
<polygon fill="black" stroke="black" stroke-width="1.2" points="108.41,-147.51 115.97,-140.09 105.43,-141.17 108.41,-147.51"/>
</g>
<!-- pressure&#45;&gt;mnt_comp1 -->
<g id="edge19" class="edge">
<title>pressure&#45;&gt;mnt_comp1</title>
<path fill="none" stroke="black" stroke-width="1.2" d="M55.82,-149.26C88.16,-100.02 165.47,0 260,0 260,0 260,0 367.5,0 443.31,0 462.88,-3.1 537,-19 545.49,-20.82 554.33,-23.16 562.96,-25.7"/>
<polygon fill="black" stroke="black" stroke-width="1.2" points="52.78,-147.52 50.31,-157.83 58.66,-151.31 52.78,-147.52"/>
<polygon fill="black" stroke="black" stroke-width="1.2" points="562,-29.06 572.59,-28.63 564.04,-22.36 562,-29.06"/>
</g>
<!-- vibration&#45;&gt;rotate -->
<g id="edge7" class="edge">
<title>vibration&#45;&gt;rotate</title>
<path fill="none" stroke="black" stroke-width="1.2" d="M706.79,-206.81C634.26,-208.35 477.46,-211.67 405.27,-213.2"/>
<polygon fill="black" stroke="black" stroke-width="1.2" points="405.18,-209.7 395.26,-213.41 405.33,-216.7 405.18,-209.7"/>
</g>
<!-- vibration&#45;&gt;mnt_comp2 -->
<g id="edge23" class="edge">
<title>vibration&#45;&gt;mnt_comp2</title>
<path fill="none" stroke="black" stroke-width="1.2" d="M795.34,-209.17C800.48,-209.51 805.75,-209.85 810.99,-210.2"/>
<polygon fill="black" stroke="black" stroke-width="1.2" points="795.47,-205.67 785.27,-208.51 795.02,-212.66 795.47,-205.67"/>
<polygon fill="black" stroke="black" stroke-width="1.2" points="810.77,-213.69 820.98,-210.85 811.23,-206.7 810.77,-213.69"/>
</g>
<!-- vibration&#45;&gt;mnt_comp4 -->
<g id="edge24" class="edge">
<title>vibration&#45;&gt;mnt_comp4</title>
<path fill="none" stroke="black" stroke-width="1.2" d="M794.71,-191.84C837.23,-179.21 899.58,-160.7 944.97,-147.23"/>
<polygon fill="black" stroke="black" stroke-width="1.2" points="793.64,-188.5 785.05,-194.7 795.63,-195.21 793.64,-188.5"/>
<polygon fill="black" stroke="black" stroke-width="1.2" points="946.09,-150.55 954.68,-144.35 944.09,-143.84 946.09,-150.55"/>
</g>
<!-- err_error2 -->
<g id="node6" class="node">
<title>err_error2</title>
<path fill="white" stroke="black" d="M652.5,-285C652.5,-285 591.5,-285 591.5,-285 585.5,-285 579.5,-279 579.5,-273 579.5,-273 579.5,-261 579.5,-261 579.5,-255 585.5,-249 591.5,-249 591.5,-249 652.5,-249 652.5,-249 658.5,-249 664.5,-255 664.5,-261 664.5,-261 664.5,-273 664.5,-273 664.5,-279 658.5,-285 652.5,-285"/>
<text text-anchor="middle" x="622" y="-263.3" font-family="Helvetica,sans-Serif" font-size="14.00">err_error2</text>
</g>
<!-- err_error1&#45;&gt;err_error2 -->
<g id="edge25" class="edge">
<title>err_error1&#45;&gt;err_error2</title>
<path fill="none" stroke="black" stroke-width="1.2" d="M530.35,-309.86C543.88,-303.47 559.25,-296.2 573.44,-289.49"/>
<polygon fill="black" stroke="black" stroke-width="1.2" points="575.03,-292.61 582.57,-285.17 572.03,-286.28 575.03,-292.61"/>
</g>
<!-- err_error2&#45;&gt;volt -->
<g id="edge2" class="edge">
<title>err_error2&#45;&gt;volt</title>
<path fill="none" stroke="black" stroke-width="1.2" d="M579.44,-275.13C517.94,-284.75 401.6,-293.49 324,-241 292.86,-219.94 276.34,-178.14 268.39,-150.12"/>
<polygon fill="black" stroke="black" stroke-width="1.2" points="271.68,-148.9 265.74,-140.13 264.92,-150.69 271.68,-148.9"/>
</g>
<!-- err_error2&#45;&gt;rotate -->
<g id="edge9" class="edge">
<title>err_error2&#45;&gt;rotate</title>
<path fill="none" stroke="black" stroke-width="1.2" d="M579.16,-258.25C530.72,-248.13 451.65,-231.59 405.09,-221.86"/>
<polygon fill="black" stroke="black" stroke-width="1.2" points="405.62,-218.39 395.11,-219.77 404.18,-225.25 405.62,-218.39"/>
</g>
<!-- err_error2&#45;&gt;vibration -->
<g id="edge20" class="edge">
<title>err_error2&#45;&gt;vibration</title>
<path fill="none" stroke="black" stroke-width="1.2" d="M659.27,-248.86C671.94,-242.53 686.33,-235.34 699.64,-228.68"/>
<polygon fill="black" stroke="black" stroke-width="1.2" points="701.28,-231.77 708.66,-224.17 698.15,-225.51 701.28,-231.77"/>
</g>
<!-- err_error3&#45;&gt;volt -->
<g id="edge3" class="edge">
<title>err_error3&#45;&gt;volt</title>
<path fill="none" stroke="black" stroke-width="1.2" d="M191.25,-157.87C201.97,-152.28 213.79,-146.11 224.55,-140.5"/>
<polygon fill="black" stroke="black" stroke-width="1.2" points="226.44,-143.46 233.69,-135.73 223.2,-137.25 226.44,-143.46"/>
</g>
<!-- err_error3&#45;&gt;rotate -->
<g id="edge10" class="edge">
<title>err_error3&#45;&gt;rotate</title>
<path fill="none" stroke="black" stroke-width="1.2" d="M198.04,-183.55C235.75,-190.41 290.89,-200.43 327.46,-207.08"/>
<polygon fill="black" stroke="black" stroke-width="1.2" points="327.25,-210.6 337.71,-208.95 328.5,-203.72 327.25,-210.6"/>
</g>
<!-- err_error3&#45;&gt;vibration -->
<g id="edge21" class="edge">
<title>err_error3&#45;&gt;vibration</title>
<path fill="none" stroke="black" stroke-width="1.2" d="M198.12,-173.47C240.29,-171.12 307.4,-168 365.5,-168 365.5,-168 365.5,-168 492,-168 563.89,-168 646,-183.19 696.68,-194.36"/>
<polygon fill="black" stroke="black" stroke-width="1.2" points="696.17,-197.83 706.69,-196.61 697.7,-191 696.17,-197.83"/>
</g>
<!-- err_error4&#45;&gt;fail_comp1 -->
<g id="edge26" class="edge">
<title>err_error4&#45;&gt;fail_comp1</title>
<path fill="none" stroke="black" stroke-width="1.2" d="M409.31,-51.27C417.4,-50.74 425.98,-50.18 434.42,-49.63"/>
<polygon fill="black" stroke="black" stroke-width="1.2" points="434.85,-53.11 444.6,-48.96 434.39,-46.12 434.85,-53.11"/>
</g>
<!-- err_error5&#45;&gt;volt -->
<g id="edge5" class="edge">
<title>err_error5&#45;&gt;volt</title>
<path fill="none" stroke="black" stroke-width="1.2" d="M198,-122C206.54,-122 215.47,-122 223.81,-122"/>
<polygon fill="black" stroke="black" stroke-width="1.2" points="223.97,-125.5 233.97,-122 223.97,-118.5 223.97,-125.5"/>
</g>
<!-- mnt_comp1&#45;&gt;vibration -->
<g id="edge22" class="edge">
<title>mnt_comp1&#45;&gt;vibration</title>
<path fill="none" stroke="black" stroke-width="1.2" d="M636.76,-64.04C658.27,-92.25 699.97,-146.94 724.86,-179.59"/>
<polygon fill="black" stroke="black" stroke-width="1.2" points="722.26,-181.95 731.11,-187.78 727.83,-177.7 722.26,-181.95"/>
</g>
<!-- mnt_comp3 -->
<g id="node12" class="node">
<title>mnt_comp3</title>
<path fill="white" stroke="black" d="M1175,-148C1175,-148 1101,-148 1101,-148 1095,-148 1089,-142 1089,-136 1089,-136 1089,-124 1089,-124 1089,-118 1095,-112 1101,-112 1101,-112 1175,-112 1175,-112 1181,-112 1187,-118 1187,-124 1187,-124 1187,-136 1187,-136 1187,-142 1181,-148 1175,-148"/>
<text text-anchor="middle" x="1138" y="-126.3" font-family="Helvetica,sans-Serif" font-size="14.00">mnt_comp3</text>
</g>
<!-- mnt_comp1&#45;&gt;mnt_comp3 -->
<g id="edge27" class="edge">
<title>mnt_comp1&#45;&gt;mnt_comp3</title>
<path fill="none" stroke="black" stroke-width="1.2" d="M671.39,-42.63C683.05,-41.95 695.46,-41.34 707,-41 741.65,-39.97 750.36,-39.71 785,-41 844.68,-43.22 860.6,-38.49 919,-51 978.96,-63.85 1044.75,-89.37 1088.2,-107.94"/>
<polygon fill="black" stroke="black" stroke-width="1.2" points="1086.82,-111.16 1097.39,-111.91 1089.6,-104.74 1086.82,-111.16"/>
</g>
<!-- mnt_comp1&#45;&gt;mnt_comp4 -->
<g id="edge28" class="edge">
<title>mnt_comp1&#45;&gt;mnt_comp4</title>
<path fill="none" stroke="black" stroke-width="1.2" d="M671.06,-44.74C730.81,-44.62 835.17,-49.19 919,-78 937.71,-84.43 956.62,-95.62 971.74,-105.98"/>
<polygon fill="black" stroke="black" stroke-width="1.2" points="969.99,-109.03 980.18,-111.94 974.03,-103.32 969.99,-109.03"/>
</g>
<!-- mnt_comp2&#45;&gt;mnt_comp3 -->
<g id="edge30" class="edge">
<title>mnt_comp2&#45;&gt;mnt_comp3</title>
<path fill="none" stroke="black" stroke-width="1.2" d="M919.31,-198.98C956.01,-187.54 1007.71,-171.37 1053,-157 1061.38,-154.34 1070.23,-151.52 1078.91,-148.74"/>
<polygon fill="black" stroke="black" stroke-width="1.2" points="1080.15,-152.01 1088.6,-145.62 1078.01,-145.35 1080.15,-152.01"/>
</g>
<!-- mnt_comp2&#45;&gt;mnt_comp4 -->
<g id="edge31" class="edge">
<title>mnt_comp2&#45;&gt;mnt_comp4</title>
<path fill="none" stroke="black" stroke-width="1.2" d="M899.32,-195.98C918.67,-183.66 944.53,-167.21 965.58,-153.81"/>
<polygon fill="black" stroke="black" stroke-width="1.2" points="967.72,-156.6 974.27,-148.28 963.96,-150.7 967.72,-156.6"/>
</g>
<!-- mnt_comp4&#45;&gt;mnt_comp3 -->
<g id="edge32" class="edge">
<title>mnt_comp4&#45;&gt;mnt_comp3</title>
<path fill="none" stroke="black" stroke-width="1.2" d="M1053.03,-130C1061.31,-130 1070,-130 1078.52,-130"/>
<polygon fill="black" stroke="black" stroke-width="1.2" points="1078.79,-133.5 1088.79,-130 1078.79,-126.5 1078.79,-133.5"/>
</g>
<!-- fail_comp1&#45;&gt;mnt_comp1 -->
<g id="edge29" class="edge">
<title>fail_comp1&#45;&gt;mnt_comp1</title>
<path fill="none" stroke="black" stroke-width="1.2" d="M537.12,-46C545.28,-46 553.9,-46 562.38,-46"/>
<polygon fill="black" stroke="black" stroke-width="1.2" points="562.62,-49.5 572.62,-46 562.62,-42.5 562.62,-49.5"/>
</g>
<!-- fail_comp1&#45;&gt;mnt_comp4 -->
<g id="edge33" class="edge">
<title>fail_comp1&#45;&gt;mnt_comp4</title>
<path fill="none" stroke="black" stroke-width="1.2" d="M537.39,-62.88C548.88,-66.67 561.29,-70.35 573,-73 724.13,-107.22 765.65,-93.7 919,-116 927.31,-117.21 936.06,-118.57 944.66,-119.96"/>
<polygon fill="black" stroke="black" stroke-width="1.2" points="944.2,-123.43 954.64,-121.59 945.33,-116.52 944.2,-123.43"/>
</g>
</g>
</svg>
