<?xml version="1.0" encoding="UTF-8" standalone="no"?>
<!DOCTYPE svg PUBLIC "-//W3C//DTD SVG 1.1//EN"
 "http://www.w3.org/Graphics/SVG/1.1/DTD/svg11.dtd">
<!-- Generated by graphviz version 2.50.0 (0)
 -->
<!-- Title: G Pages: 1 -->
<svg width="454pt" height="128pt"
 viewBox="0.00 0.00 454.00 127.53" xmlns="http://www.w3.org/2000/svg" xmlns:xlink="http://www.w3.org/1999/xlink">
<g id="graph0" class="graph" transform="scale(1 1) rotate(0) translate(4 123.53)">
<title>G</title>
<polygon fill="white" stroke="transparent" points="-4,4 -4,-123.53 450,-123.53 450,4 -4,4"/>
<text text-anchor="middle" x="223" y="-102.73" font-family="Times,serif" font-size="16.00">model=model3/nbcb_w_telemetry.json [machine 59]</text>
<!-- volt -->
<g id="node1" class="node">
<title>volt</title>
<path fill="white" stroke="black" d="M78,-51.53C78,-51.53 48,-51.53 48,-51.53 42,-51.53 36,-45.53 36,-39.53 36,-39.53 36,-27.53 36,-27.53 36,-21.53 42,-15.53 48,-15.53 48,-15.53 78,-15.53 78,-15.53 84,-15.53 90,-21.53 90,-27.53 90,-27.53 90,-39.53 90,-39.53 90,-45.53 84,-51.53 78,-51.53"/>
<text text-anchor="middle" x="63" y="-29.83" font-family="Helvetica,sans-Serif" font-size="14.00">volt</text>
</g>
<!-- rotate -->
<g id="node2" class="node">
<title>rotate</title>
<path fill="white" stroke="black" d="M171,-51.53C171,-51.53 138,-51.53 138,-51.53 132,-51.53 126,-45.53 126,-39.53 126,-39.53 126,-27.53 126,-27.53 126,-21.53 132,-15.53 138,-15.53 138,-15.53 171,-15.53 171,-15.53 177,-15.53 183,-21.53 183,-27.53 183,-27.53 183,-39.53 183,-39.53 183,-45.53 177,-51.53 171,-51.53"/>
<text text-anchor="middle" x="154.5" y="-29.83" font-family="Helvetica,sans-Serif" font-size="14.00">rotate</text>
</g>
<!-- volt&#45;&gt;rotate -->
<g id="edge1" class="edge">
<title>volt&#45;&gt;rotate</title>
<path fill="none" stroke="black" stroke-width="1.2" d="M90.37,-33.53C98.29,-33.53 107.13,-33.53 115.64,-33.53"/>
<polygon fill="black" stroke="black" stroke-width="1.2" points="115.76,-37.03 125.76,-33.53 115.76,-30.03 115.76,-37.03"/>
</g>
<!-- pressure -->
<g id="node3" class="node">
<title>pressure</title>
<path fill="white" stroke="black" d="M398,-47.53C398,-47.53 345,-47.53 345,-47.53 339,-47.53 333,-41.53 333,-35.53 333,-35.53 333,-23.53 333,-23.53 333,-17.53 339,-11.53 345,-11.53 345,-11.53 398,-11.53 398,-11.53 404,-11.53 410,-17.53 410,-23.53 410,-23.53 410,-35.53 410,-35.53 410,-41.53 404,-47.53 398,-47.53"/>
<text text-anchor="middle" x="371.5" y="-25.83" font-family="Helvetica,sans-Serif" font-size="14.00">pressure</text>
</g>
<!-- volt&#45;&gt;pressure -->
<g id="edge2" class="edge">
<title>volt&#45;&gt;pressure</title>
<path fill="none" stroke="black" stroke-width="1.2" d="M90.06,-19.34C100.85,-14.23 113.7,-9.09 126,-6.53 193.56,7.54 273.42,-5.37 323.03,-16.77"/>
<polygon fill="black" stroke="black" stroke-width="1.2" points="322.3,-20.2 332.83,-19.1 323.91,-13.39 322.3,-20.2"/>
</g>
<!-- vibration -->
<g id="node4" class="node">
<title>vibration</title>
<path fill="white" stroke="black" d="M285,-93.53C285,-93.53 231,-93.53 231,-93.53 225,-93.53 219,-87.53 219,-81.53 219,-81.53 219,-69.53 219,-69.53 219,-63.53 225,-57.53 231,-57.53 231,-57.53 285,-57.53 285,-57.53 291,-57.53 297,-63.53 297,-69.53 297,-69.53 297,-81.53 297,-81.53 297,-87.53 291,-93.53 285,-93.53"/>
<text text-anchor="middle" x="258" y="-71.83" font-family="Helvetica,sans-Serif" font-size="14.00">vibration</text>
</g>
<!-- volt&#45;&gt;vibration -->
<g id="edge3" class="edge">
<title>volt&#45;&gt;vibration</title>
<path fill="none" stroke="black" stroke-width="1.2" d="M90.23,-47.01C101.05,-52.02 113.87,-57.27 126,-60.53 152.91,-67.76 183.85,-71.5 208.9,-73.44"/>
<polygon fill="black" stroke="black" stroke-width="1.2" points="208.67,-76.94 218.89,-74.15 209.16,-69.95 208.67,-76.94"/>
</g>
<!-- rotate&#45;&gt;vibration -->
<g id="edge5" class="edge">
<title>rotate&#45;&gt;vibration</title>
<path fill="none" stroke="black" stroke-width="1.2" d="M192.54,-48.86C197.98,-51.11 203.66,-53.46 209.28,-55.78"/>
<polygon fill="black" stroke="black" stroke-width="1.2" points="193.81,-45.6 183.24,-45.01 191.14,-52.06 193.81,-45.6"/>
<polygon fill="black" stroke="black" stroke-width="1.2" points="208.07,-59.07 218.65,-59.66 210.74,-52.6 208.07,-59.07"/>
</g>
<!-- pressure&#45;&gt;rotate -->
<g id="edge4" class="edge">
<title>pressure&#45;&gt;rotate</title>
<path fill="none" stroke="black" stroke-width="1.2" d="M332.82,-30.23C293.64,-30.96 232.64,-32.09 193.38,-32.82"/>
<polygon fill="black" stroke="black" stroke-width="1.2" points="193.1,-29.33 183.17,-33.01 193.23,-36.33 193.1,-29.33"/>
</g>
<!-- vibration&#45;&gt;pressure -->
<g id="edge6" class="edge">
<title>vibration&#45;&gt;pressure</title>
<path fill="none" stroke="black" stroke-width="1.2" d="M297.06,-59.83C305.58,-56.31 314.73,-52.54 323.56,-48.89"/>
<polygon fill="black" stroke="black" stroke-width="1.2" points="325.08,-52.05 332.99,-45 322.41,-45.58 325.08,-52.05"/>
</g>
</g>
</svg>
