<?xml version="1.0" encoding="UTF-8" standalone="no"?>
<!DOCTYPE svg PUBLIC "-//W3C//DTD SVG 1.1//EN"
 "http://www.w3.org/Graphics/SVG/1.1/DTD/svg11.dtd">
<!-- Generated by graphviz version 2.50.0 (0)
 -->
<!-- Title: G Pages: 1 -->
<svg width="454pt" height="124pt"
 viewBox="0.00 0.00 454.00 124.00" xmlns="http://www.w3.org/2000/svg" xmlns:xlink="http://www.w3.org/1999/xlink">
<g id="graph0" class="graph" transform="scale(1 1) rotate(0) translate(4 120)">
<title>G</title>
<polygon fill="white" stroke="transparent" points="-4,4 -4,-120 450,-120 450,4 -4,4"/>
<text text-anchor="middle" x="223" y="-99.2" font-family="Times,serif" font-size="16.00">model=model4/nbcb_w_telemetry.json [machine 67]</text>
<!-- volt -->
<g id="node1" class="node">
<title>volt</title>
<path fill="white" stroke="black" d="M238.5,-90C238.5,-90 208.5,-90 208.5,-90 202.5,-90 196.5,-84 196.5,-78 196.5,-78 196.5,-66 196.5,-66 196.5,-60 202.5,-54 208.5,-54 208.5,-54 238.5,-54 238.5,-54 244.5,-54 250.5,-60 250.5,-66 250.5,-66 250.5,-78 250.5,-78 250.5,-84 244.5,-90 238.5,-90"/>
<text text-anchor="middle" x="223.5" y="-68.3" font-family="Helvetica,sans-Serif" font-size="14.00">volt</text>
</g>
<!-- rotate -->
<g id="node2" class="node">
<title>rotate</title>
<path fill="white" stroke="black" d="M240,-36C240,-36 207,-36 207,-36 201,-36 195,-30 195,-24 195,-24 195,-12 195,-12 195,-6 201,0 207,0 207,0 240,0 240,0 246,0 252,-6 252,-12 252,-12 252,-24 252,-24 252,-30 246,-36 240,-36"/>
<text text-anchor="middle" x="223.5" y="-14.3" font-family="Helvetica,sans-Serif" font-size="14.00">rotate</text>
</g>
<!-- pressure -->
<g id="node3" class="node">
<title>pressure</title>
<path fill="white" stroke="black" d="M353,-36C353,-36 300,-36 300,-36 294,-36 288,-30 288,-24 288,-24 288,-12 288,-12 288,-6 294,0 300,0 300,0 353,0 353,0 359,0 365,-6 365,-12 365,-12 365,-24 365,-24 365,-30 359,-36 353,-36"/>
<text text-anchor="middle" x="326.5" y="-14.3" font-family="Helvetica,sans-Serif" font-size="14.00">pressure</text>
</g>
<!-- rotate&#45;&gt;pressure -->
<g id="edge2" class="edge">
<title>rotate&#45;&gt;pressure</title>
<path fill="none" stroke="black" stroke-width="1.2" d="M252.1,-18C259.99,-18 268.83,-18 277.57,-18"/>
<polygon fill="black" stroke="black" stroke-width="1.2" points="277.71,-21.5 287.71,-18 277.71,-14.5 277.71,-21.5"/>
</g>
<!-- vibration -->
<g id="node4" class="node">
<title>vibration</title>
<path fill="white" stroke="black" d="M147,-63C147,-63 93,-63 93,-63 87,-63 81,-57 81,-51 81,-51 81,-39 81,-39 81,-33 87,-27 93,-27 93,-27 147,-27 147,-27 153,-27 159,-33 159,-39 159,-39 159,-51 159,-51 159,-57 153,-63 147,-63"/>
<text text-anchor="middle" x="120" y="-41.3" font-family="Helvetica,sans-Serif" font-size="14.00">vibration</text>
</g>
<!-- vibration&#45;&gt;volt -->
<g id="edge1" class="edge">
<title>vibration&#45;&gt;volt</title>
<path fill="none" stroke="black" stroke-width="1.2" d="M159.08,-55.13C168.08,-57.52 177.63,-60.07 186.53,-62.43"/>
<polygon fill="black" stroke="black" stroke-width="1.2" points="185.66,-65.82 196.22,-65.01 187.46,-59.06 185.66,-65.82"/>
</g>
<!-- vibration&#45;&gt;rotate -->
<g id="edge3" class="edge">
<title>vibration&#45;&gt;rotate</title>
<path fill="none" stroke="black" stroke-width="1.2" d="M159.08,-34.87C167.66,-32.59 176.74,-30.17 185.28,-27.9"/>
<polygon fill="black" stroke="black" stroke-width="1.2" points="186.22,-31.27 194.98,-25.32 184.42,-24.51 186.22,-31.27"/>
</g>
</g>
</svg>
