<?xml version="1.0" encoding="UTF-8" standalone="no"?>
<!DOCTYPE svg PUBLIC "-//W3C//DTD SVG 1.1//EN"
 "http://www.w3.org/Graphics/SVG/1.1/DTD/svg11.dtd">
<!-- Generated by graphviz version 2.50.0 (0)
 -->
<!-- Title: G Pages: 1 -->
<svg width="940pt" height="598pt"
 viewBox="0.00 0.00 940.00 598.36" xmlns="http://www.w3.org/2000/svg" xmlns:xlink="http://www.w3.org/1999/xlink">
<g id="graph0" class="graph" transform="scale(1 1) rotate(0) translate(4 594.36)">
<title>G</title>
<polygon fill="white" stroke="transparent" points="-4,4 -4,-594.36 936,-594.36 936,4 -4,4"/>
<text text-anchor="middle" x="466" y="-573.56" font-family="Times,serif" font-size="16.00">model=model4/nbcb_w_mixed.json [machine 2]</text>
<!-- volt -->
<g id="node1" class="node">
<title>volt</title>
<path fill="white" stroke="black" d="M42,-384.36C42,-384.36 12,-384.36 12,-384.36 6,-384.36 0,-378.36 0,-372.36 0,-372.36 0,-360.36 0,-360.36 0,-354.36 6,-348.36 12,-348.36 12,-348.36 42,-348.36 42,-348.36 48,-348.36 54,-354.36 54,-360.36 54,-360.36 54,-372.36 54,-372.36 54,-378.36 48,-384.36 42,-384.36"/>
<text text-anchor="middle" x="27" y="-362.66" font-family="Helvetica,sans-Serif" font-size="14.00">volt</text>
</g>
<!-- vibration -->
<g id="node4" class="node">
<title>vibration</title>
<path fill="white" stroke="black" d="M156,-277.36C156,-277.36 102,-277.36 102,-277.36 96,-277.36 90,-271.36 90,-265.36 90,-265.36 90,-253.36 90,-253.36 90,-247.36 96,-241.36 102,-241.36 102,-241.36 156,-241.36 156,-241.36 162,-241.36 168,-247.36 168,-253.36 168,-253.36 168,-265.36 168,-265.36 168,-271.36 162,-277.36 156,-277.36"/>
<text text-anchor="middle" x="129" y="-255.66" font-family="Helvetica,sans-Serif" font-size="14.00">vibration</text>
</g>
<!-- volt&#45;&gt;vibration -->
<g id="edge2" class="edge">
<title>volt&#45;&gt;vibration</title>
<path fill="none" stroke="black" stroke-width="1.2" d="M44.96,-348.21C61.2,-330.84 85.84,-304.47 104.07,-284.97"/>
<polygon fill="black" stroke="black" stroke-width="1.2" points="106.68,-287.3 110.95,-277.6 101.57,-282.52 106.68,-287.3"/>
</g>
<!-- err_error1 -->
<g id="node5" class="node">
<title>err_error1</title>
<path fill="white" stroke="black" d="M532.5,-148.36C532.5,-148.36 471.5,-148.36 471.5,-148.36 465.5,-148.36 459.5,-142.36 459.5,-136.36 459.5,-136.36 459.5,-124.36 459.5,-124.36 459.5,-118.36 465.5,-112.36 471.5,-112.36 471.5,-112.36 532.5,-112.36 532.5,-112.36 538.5,-112.36 544.5,-118.36 544.5,-124.36 544.5,-124.36 544.5,-136.36 544.5,-136.36 544.5,-142.36 538.5,-148.36 532.5,-148.36"/>
<text text-anchor="middle" x="502" y="-126.66" font-family="Helvetica,sans-Serif" font-size="14.00">err_error1</text>
</g>
<!-- volt&#45;&gt;err_error1 -->
<g id="edge3" class="edge">
<title>volt&#45;&gt;err_error1</title>
<path fill="none" stroke="black" stroke-width="1.2" d="M30.29,-348C37.09,-296.19 58.65,-150.4 90,-115.36 188.43,-5.37 278.74,-5.68 417,-57.36 442.04,-66.72 464.55,-87.29 479.95,-104.21"/>
<polygon fill="black" stroke="black" stroke-width="1.2" points="477.7,-106.95 486.92,-112.16 482.96,-102.34 477.7,-106.95"/>
</g>
<!-- err_error2 -->
<g id="node6" class="node">
<title>err_error2</title>
<path fill="white" stroke="black" d="M666.5,-125.36C666.5,-125.36 605.5,-125.36 605.5,-125.36 599.5,-125.36 593.5,-119.36 593.5,-113.36 593.5,-113.36 593.5,-101.36 593.5,-101.36 593.5,-95.36 599.5,-89.36 605.5,-89.36 605.5,-89.36 666.5,-89.36 666.5,-89.36 672.5,-89.36 678.5,-95.36 678.5,-101.36 678.5,-101.36 678.5,-113.36 678.5,-113.36 678.5,-119.36 672.5,-125.36 666.5,-125.36"/>
<text text-anchor="middle" x="636" y="-103.66" font-family="Helvetica,sans-Serif" font-size="14.00">err_error2</text>
</g>
<!-- volt&#45;&gt;err_error2 -->
<g id="edge4" class="edge">
<title>volt&#45;&gt;err_error2</title>
<path fill="none" stroke="black" stroke-width="1.2" d="M29.88,-337.7C35.04,-267.78 51.64,-91.06 90,-48.36 138.34,5.44 173.17,-0.36 245.5,-0.36 245.5,-0.36 245.5,-0.36 372,-0.36 459.71,-0.36 552.54,-52.05 601.01,-83.58"/>
<polygon fill="black" stroke="black" stroke-width="1.2" points="26.37,-337.74 29.15,-347.97 33.35,-338.24 26.37,-337.74"/>
<polygon fill="black" stroke="black" stroke-width="1.2" points="599.26,-86.62 609.53,-89.21 603.12,-80.78 599.26,-86.62"/>
</g>
<!-- err_error4 -->
<g id="node8" class="node">
<title>err_error4</title>
<path fill="white" stroke="black" d="M401.5,-346.36C401.5,-346.36 340.5,-346.36 340.5,-346.36 334.5,-346.36 328.5,-340.36 328.5,-334.36 328.5,-334.36 328.5,-322.36 328.5,-322.36 328.5,-316.36 334.5,-310.36 340.5,-310.36 340.5,-310.36 401.5,-310.36 401.5,-310.36 407.5,-310.36 413.5,-316.36 413.5,-322.36 413.5,-322.36 413.5,-334.36 413.5,-334.36 413.5,-340.36 407.5,-346.36 401.5,-346.36"/>
<text text-anchor="middle" x="371" y="-324.66" font-family="Helvetica,sans-Serif" font-size="14.00">err_error4</text>
</g>
<!-- volt&#45;&gt;err_error4 -->
<g id="edge6" class="edge">
<title>volt&#45;&gt;err_error4</title>
<path fill="none" stroke="black" stroke-width="1.2" d="M54.06,-376.28C102.03,-392.99 206.92,-422.22 289,-393.36 292.12,-392.26 318.35,-371.01 340.13,-353.1"/>
<polygon fill="black" stroke="black" stroke-width="1.2" points="342.41,-355.76 347.9,-346.7 337.96,-350.35 342.41,-355.76"/>
</g>
<!-- err_error5 -->
<g id="node9" class="node">
<title>err_error5</title>
<path fill="white" stroke="black" d="M277,-384.36C277,-384.36 216,-384.36 216,-384.36 210,-384.36 204,-378.36 204,-372.36 204,-372.36 204,-360.36 204,-360.36 204,-354.36 210,-348.36 216,-348.36 216,-348.36 277,-348.36 277,-348.36 283,-348.36 289,-354.36 289,-360.36 289,-360.36 289,-372.36 289,-372.36 289,-378.36 283,-384.36 277,-384.36"/>
<text text-anchor="middle" x="246.5" y="-362.66" font-family="Helvetica,sans-Serif" font-size="14.00">err_error5</text>
</g>
<!-- volt&#45;&gt;err_error5 -->
<g id="edge7" class="edge">
<title>volt&#45;&gt;err_error5</title>
<path fill="none" stroke="black" stroke-width="1.2" d="M64.48,-366.36C99.9,-366.36 154.01,-366.36 193.85,-366.36"/>
<polygon fill="black" stroke="black" stroke-width="1.2" points="64.24,-362.86 54.24,-366.36 64.24,-369.86 64.24,-362.86"/>
<polygon fill="black" stroke="black" stroke-width="1.2" points="193.91,-369.86 203.91,-366.36 193.91,-362.86 193.91,-369.86"/>
</g>
<!-- fail_comp1 -->
<g id="node14" class="node">
<title>fail_comp1</title>
<path fill="white" stroke="black" d="M405,-411.36C405,-411.36 337,-411.36 337,-411.36 331,-411.36 325,-405.36 325,-399.36 325,-399.36 325,-387.36 325,-387.36 325,-381.36 331,-375.36 337,-375.36 337,-375.36 405,-375.36 405,-375.36 411,-375.36 417,-381.36 417,-387.36 417,-387.36 417,-399.36 417,-399.36 417,-405.36 411,-411.36 405,-411.36"/>
<text text-anchor="middle" x="371" y="-389.66" font-family="Helvetica,sans-Serif" font-size="14.00">fail_comp1</text>
</g>
<!-- volt&#45;&gt;fail_comp1 -->
<g id="edge10" class="edge">
<title>volt&#45;&gt;fail_comp1</title>
<path fill="none" stroke="black" stroke-width="1.2" d="M40.37,-384.37C51.47,-398.78 69.17,-417.93 90,-426.36 171.99,-459.54 202.21,-443.36 289,-426.36 300.99,-424.01 313.45,-419.88 324.89,-415.32"/>
<polygon fill="black" stroke="black" stroke-width="1.2" points="326.36,-418.5 334.23,-411.41 323.66,-412.04 326.36,-418.5"/>
</g>
<!-- fail_comp2 -->
<g id="node15" class="node">
<title>fail_comp2</title>
<path fill="white" stroke="black" d="M536,-411.36C536,-411.36 468,-411.36 468,-411.36 462,-411.36 456,-405.36 456,-399.36 456,-399.36 456,-387.36 456,-387.36 456,-381.36 462,-375.36 468,-375.36 468,-375.36 536,-375.36 536,-375.36 542,-375.36 548,-381.36 548,-387.36 548,-387.36 548,-399.36 548,-399.36 548,-405.36 542,-411.36 536,-411.36"/>
<text text-anchor="middle" x="502" y="-389.66" font-family="Helvetica,sans-Serif" font-size="14.00">fail_comp2</text>
</g>
<!-- volt&#45;&gt;fail_comp2 -->
<g id="edge11" class="edge">
<title>volt&#45;&gt;fail_comp2</title>
<path fill="none" stroke="black" stroke-width="1.2" d="M35.53,-384.6C44.94,-404.68 63.15,-435.9 90,-449.36 211.41,-510.21 376.98,-451.02 455.76,-415.63"/>
<polygon fill="black" stroke="black" stroke-width="1.2" points="457.29,-418.78 464.93,-411.44 454.38,-412.41 457.29,-418.78"/>
</g>
<!-- rotate -->
<g id="node2" class="node">
<title>rotate</title>
<path fill="white" stroke="black" d="M263,-254.36C263,-254.36 230,-254.36 230,-254.36 224,-254.36 218,-248.36 218,-242.36 218,-242.36 218,-230.36 218,-230.36 218,-224.36 224,-218.36 230,-218.36 230,-218.36 263,-218.36 263,-218.36 269,-218.36 275,-224.36 275,-230.36 275,-230.36 275,-242.36 275,-242.36 275,-248.36 269,-254.36 263,-254.36"/>
<text text-anchor="middle" x="246.5" y="-232.66" font-family="Helvetica,sans-Serif" font-size="14.00">rotate</text>
</g>
<!-- rotate&#45;&gt;volt -->
<g id="edge1" class="edge">
<title>rotate&#45;&gt;volt</title>
<path fill="none" stroke="black" stroke-width="1.2" d="M218.11,-254.54C203.38,-264.19 184.83,-276.13 168,-286.36 132.6,-307.88 91.34,-331.25 62.83,-347.14"/>
<polygon fill="black" stroke="black" stroke-width="1.2" points="61.08,-344.11 54.05,-352.03 64.49,-350.23 61.08,-344.11"/>
</g>
<!-- rotate&#45;&gt;err_error1 -->
<g id="edge13" class="edge">
<title>rotate&#45;&gt;err_error1</title>
<path fill="none" stroke="black" stroke-width="1.2" d="M275.11,-224.82C316.91,-207.34 396.95,-173.87 449.66,-151.83"/>
<polygon fill="black" stroke="black" stroke-width="1.2" points="451.29,-154.94 459.16,-147.86 448.59,-148.48 451.29,-154.94"/>
</g>
<!-- err_error3 -->
<g id="node7" class="node">
<title>err_error3</title>
<path fill="white" stroke="black" d="M401.5,-102.36C401.5,-102.36 340.5,-102.36 340.5,-102.36 334.5,-102.36 328.5,-96.36 328.5,-90.36 328.5,-90.36 328.5,-78.36 328.5,-78.36 328.5,-72.36 334.5,-66.36 340.5,-66.36 340.5,-66.36 401.5,-66.36 401.5,-66.36 407.5,-66.36 413.5,-72.36 413.5,-78.36 413.5,-78.36 413.5,-90.36 413.5,-90.36 413.5,-96.36 407.5,-102.36 401.5,-102.36"/>
<text text-anchor="middle" x="371" y="-80.66" font-family="Helvetica,sans-Serif" font-size="14.00">err_error3</text>
</g>
<!-- rotate&#45;&gt;err_error3 -->
<g id="edge14" class="edge">
<title>rotate&#45;&gt;err_error3</title>
<path fill="none" stroke="black" stroke-width="1.2" d="M262.03,-218.33C283.58,-191.59 324.13,-141.28 348.94,-110.5"/>
<polygon fill="black" stroke="black" stroke-width="1.2" points="351.94,-112.35 355.49,-102.37 346.49,-107.96 351.94,-112.35"/>
</g>
<!-- rotate&#45;&gt;err_error4 -->
<g id="edge15" class="edge">
<title>rotate&#45;&gt;err_error4</title>
<path fill="none" stroke="black" stroke-width="1.2" d="M271.21,-254.62C277.03,-259.11 283.25,-263.91 289,-268.36 305.03,-280.77 308.74,-284.26 325,-296.36 328.46,-298.94 332.1,-301.6 335.74,-304.23"/>
<polygon fill="black" stroke="black" stroke-width="1.2" points="334,-307.29 344.16,-310.28 338.08,-301.6 334,-307.29"/>
</g>
<!-- rotate&#45;&gt;fail_comp1 -->
<g id="edge17" class="edge">
<title>rotate&#45;&gt;fail_comp1</title>
<path fill="none" stroke="black" stroke-width="1.2" d="M258.59,-254.8C276.15,-283.74 309.9,-338.27 325,-355.36 328.99,-359.88 333.53,-364.33 338.15,-368.51"/>
<polygon fill="black" stroke="black" stroke-width="1.2" points="336.07,-371.34 345.92,-375.24 340.66,-366.05 336.07,-371.34"/>
</g>
<!-- rotate&#45;&gt;fail_comp2 -->
<g id="edge18" class="edge">
<title>rotate&#45;&gt;fail_comp2</title>
<path fill="none" stroke="black" stroke-width="1.2" d="M284.71,-248.39C327.56,-262.62 394.9,-286.29 417,-301.36 443.11,-319.17 466.78,-346.62 482.29,-366.91"/>
<polygon fill="black" stroke="black" stroke-width="1.2" points="285.77,-245.05 275.18,-245.24 283.58,-251.7 285.77,-245.05"/>
<polygon fill="black" stroke="black" stroke-width="1.2" points="479.63,-369.2 488.42,-375.11 485.24,-365.01 479.63,-369.2"/>
</g>
<!-- pressure -->
<g id="node3" class="node">
<title>pressure</title>
<path fill="white" stroke="black" d="M786,-411.36C786,-411.36 733,-411.36 733,-411.36 727,-411.36 721,-405.36 721,-399.36 721,-399.36 721,-387.36 721,-387.36 721,-381.36 727,-375.36 733,-375.36 733,-375.36 786,-375.36 786,-375.36 792,-375.36 798,-381.36 798,-387.36 798,-387.36 798,-399.36 798,-399.36 798,-405.36 792,-411.36 786,-411.36"/>
<text text-anchor="middle" x="759.5" y="-389.66" font-family="Helvetica,sans-Serif" font-size="14.00">pressure</text>
</g>
<!-- mnt_comp3 -->
<g id="node12" class="node">
<title>mnt_comp3</title>
<path fill="white" stroke="black" d="M920,-365.36C920,-365.36 846,-365.36 846,-365.36 840,-365.36 834,-359.36 834,-353.36 834,-353.36 834,-341.36 834,-341.36 834,-335.36 840,-329.36 846,-329.36 846,-329.36 920,-329.36 920,-329.36 926,-329.36 932,-335.36 932,-341.36 932,-341.36 932,-353.36 932,-353.36 932,-359.36 926,-365.36 920,-365.36"/>
<text text-anchor="middle" x="883" y="-343.66" font-family="Helvetica,sans-Serif" font-size="14.00">mnt_comp3</text>
</g>
<!-- pressure&#45;&gt;mnt_comp3 -->
<g id="edge20" class="edge">
<title>pressure&#45;&gt;mnt_comp3</title>
<path fill="none" stroke="black" stroke-width="1.2" d="M807.89,-375.42C813.47,-373.31 819.2,-371.14 824.88,-368.99"/>
<polygon fill="black" stroke="black" stroke-width="1.2" points="806.39,-372.25 798.28,-379.06 808.87,-378.79 806.39,-372.25"/>
<polygon fill="black" stroke="black" stroke-width="1.2" points="826.26,-372.21 834.38,-365.39 823.79,-365.66 826.26,-372.21"/>
</g>
<!-- mnt_comp4 -->
<g id="node13" class="node">
<title>mnt_comp4</title>
<path fill="white" stroke="black" d="M920,-476.36C920,-476.36 846,-476.36 846,-476.36 840,-476.36 834,-470.36 834,-464.36 834,-464.36 834,-452.36 834,-452.36 834,-446.36 840,-440.36 846,-440.36 846,-440.36 920,-440.36 920,-440.36 926,-440.36 932,-446.36 932,-452.36 932,-452.36 932,-464.36 932,-464.36 932,-470.36 926,-476.36 920,-476.36"/>
<text text-anchor="middle" x="883" y="-454.66" font-family="Helvetica,sans-Serif" font-size="14.00">mnt_comp4</text>
</g>
<!-- pressure&#45;&gt;mnt_comp4 -->
<g id="edge21" class="edge">
<title>pressure&#45;&gt;mnt_comp4</title>
<path fill="none" stroke="black" stroke-width="1.2" d="M803.31,-416.26C814.96,-422.5 827.58,-429.25 839.24,-435.49"/>
<polygon fill="black" stroke="black" stroke-width="1.2" points="804.81,-413.1 794.34,-411.47 801.51,-419.27 804.81,-413.1"/>
<polygon fill="black" stroke="black" stroke-width="1.2" points="837.87,-438.72 848.34,-440.35 841.17,-432.55 837.87,-438.72"/>
</g>
<!-- vibration&#45;&gt;rotate -->
<g id="edge12" class="edge">
<title>vibration&#45;&gt;rotate</title>
<path fill="none" stroke="black" stroke-width="1.2" d="M168.14,-251.77C180.89,-249.23 195.1,-246.4 207.82,-243.87"/>
<polygon fill="black" stroke="black" stroke-width="1.2" points="208.52,-247.3 217.64,-241.91 207.15,-240.43 208.52,-247.3"/>
</g>
<!-- vibration&#45;&gt;err_error2 -->
<g id="edge23" class="edge">
<title>vibration&#45;&gt;err_error2</title>
<path fill="none" stroke="black" stroke-width="1.2" d="M151.21,-241.26C165.27,-230.25 184.64,-216.9 204,-209.36 349.31,-152.76 404.13,-209.78 551,-157.36 568.9,-150.97 587.22,-140.6 602.16,-130.96"/>
<polygon fill="black" stroke="black" stroke-width="1.2" points="604.15,-133.84 610.54,-125.4 600.28,-128.01 604.15,-133.84"/>
</g>
<!-- vibration&#45;&gt;err_error3 -->
<g id="edge24" class="edge">
<title>vibration&#45;&gt;err_error3</title>
<path fill="none" stroke="black" stroke-width="1.2" d="M136.49,-240.96C146.76,-214.49 169.21,-165.82 204,-138.36 237.02,-112.3 283.03,-98.63 318.24,-91.57"/>
<polygon fill="black" stroke="black" stroke-width="1.2" points="319.15,-94.96 328.33,-89.66 317.85,-88.08 319.15,-94.96"/>
</g>
<!-- vibration&#45;&gt;err_error4 -->
<g id="edge25" class="edge">
<title>vibration&#45;&gt;err_error4</title>
<path fill="none" stroke="black" stroke-width="1.2" d="M177.9,-273.13C218.55,-284.82 276.76,-301.56 318.43,-313.54"/>
<polygon fill="black" stroke="black" stroke-width="1.2" points="178.61,-269.7 168.03,-270.3 176.67,-276.42 178.61,-269.7"/>
<polygon fill="black" stroke="black" stroke-width="1.2" points="317.54,-316.92 328.12,-316.32 319.47,-310.19 317.54,-316.92"/>
</g>
<!-- vibration&#45;&gt;err_error5 -->
<g id="edge26" class="edge">
<title>vibration&#45;&gt;err_error5</title>
<path fill="none" stroke="black" stroke-width="1.2" d="M153.66,-285.02C167.8,-299.92 186.39,-318.77 204,-334.36 206.82,-336.86 209.82,-339.39 212.86,-341.87"/>
<polygon fill="black" stroke="black" stroke-width="1.2" points="156.1,-282.51 146.7,-277.63 151,-287.31 156.1,-282.51"/>
<polygon fill="black" stroke="black" stroke-width="1.2" points="210.91,-344.8 220.92,-348.29 215.27,-339.32 210.91,-344.8"/>
</g>
<!-- err_error1&#45;&gt;vibration -->
<g id="edge22" class="edge">
<title>err_error1&#45;&gt;vibration</title>
<path fill="none" stroke="black" stroke-width="1.2" d="M459.33,-128.24C399.19,-127 286.28,-131.61 204,-176.36 179.84,-189.5 159.66,-213.72 146.5,-232.61"/>
<polygon fill="black" stroke="black" stroke-width="1.2" points="143.46,-230.87 140.8,-241.13 149.27,-234.77 143.46,-230.87"/>
</g>
<!-- err_error1&#45;&gt;err_error2 -->
<g id="edge28" class="edge">
<title>err_error1&#45;&gt;err_error2</title>
<path fill="none" stroke="black" stroke-width="1.2" d="M544.77,-123.09C556.92,-120.97 570.36,-118.63 583.06,-116.41"/>
<polygon fill="black" stroke="black" stroke-width="1.2" points="583.8,-119.84 593.05,-114.67 582.6,-112.94 583.8,-119.84"/>
</g>
<!-- err_error3&#45;&gt;volt -->
<g id="edge5" class="edge">
<title>err_error3&#45;&gt;volt</title>
<path fill="none" stroke="black" stroke-width="1.2" d="M328.39,-78.37C293.29,-75.29 242.73,-75.62 204,-95.36 105.22,-145.72 54.06,-279.84 35.87,-338.38"/>
<polygon fill="black" stroke="black" stroke-width="1.2" points="32.48,-337.49 32.95,-348.07 39.19,-339.51 32.48,-337.49"/>
</g>
<!-- err_error3&#45;&gt;err_error1 -->
<g id="edge29" class="edge">
<title>err_error3&#45;&gt;err_error1</title>
<path fill="none" stroke="black" stroke-width="1.2" d="M413.53,-99.17C425.03,-103.27 437.66,-107.78 449.66,-112.05"/>
<polygon fill="black" stroke="black" stroke-width="1.2" points="448.51,-115.36 459.11,-115.42 450.87,-108.77 448.51,-115.36"/>
</g>
<!-- err_error3&#45;&gt;err_error2 -->
<g id="edge30" class="edge">
<title>err_error3&#45;&gt;err_error2</title>
<path fill="none" stroke="black" stroke-width="1.2" d="M413.67,-88.01C459.51,-92.02 533.25,-98.46 582.88,-102.8"/>
<polygon fill="black" stroke="black" stroke-width="1.2" points="582.82,-106.31 593.09,-103.7 583.43,-99.34 582.82,-106.31"/>
</g>
<!-- mnt_comp1 -->
<g id="node10" class="node">
<title>mnt_comp1</title>
<path fill="white" stroke="black" d="M539,-495.36C539,-495.36 465,-495.36 465,-495.36 459,-495.36 453,-489.36 453,-483.36 453,-483.36 453,-471.36 453,-471.36 453,-465.36 459,-459.36 465,-459.36 465,-459.36 539,-459.36 539,-459.36 545,-459.36 551,-465.36 551,-471.36 551,-471.36 551,-483.36 551,-483.36 551,-489.36 545,-495.36 539,-495.36"/>
<text text-anchor="middle" x="502" y="-473.66" font-family="Helvetica,sans-Serif" font-size="14.00">mnt_comp1</text>
</g>
<!-- mnt_comp1&#45;&gt;volt -->
<g id="edge8" class="edge">
<title>mnt_comp1&#45;&gt;volt</title>
<path fill="none" stroke="black" stroke-width="1.2" d="M452.94,-492.32C371.09,-514.7 202.58,-546.99 90,-474.36 61.58,-456.03 44.74,-419.77 35.94,-394.34"/>
<polygon fill="black" stroke="black" stroke-width="1.2" points="39.17,-392.95 32.75,-384.52 32.51,-395.11 39.17,-392.95"/>
</g>
<!-- mnt_comp1&#45;&gt;vibration -->
<g id="edge27" class="edge">
<title>mnt_comp1&#45;&gt;vibration</title>
<path fill="none" stroke="black" stroke-width="1.2" d="M452.71,-472.53C413.99,-466.34 360.45,-452.27 325,-420.36 295.72,-394.01 317.52,-366.54 289,-339.36 259.67,-311.4 240.17,-324.65 204,-306.36 190.56,-299.57 176.45,-291 164.2,-283.05"/>
<polygon fill="black" stroke="black" stroke-width="1.2" points="165.91,-279.99 155.64,-277.4 162.06,-285.83 165.91,-279.99"/>
</g>
<!-- mnt_comp1&#45;&gt;mnt_comp3 -->
<g id="edge31" class="edge">
<title>mnt_comp1&#45;&gt;mnt_comp3</title>
<path fill="none" stroke="black" stroke-width="1.2" d="M519.1,-459.31C528.68,-448.3 540.9,-433.81 551,-420.36 568.32,-397.29 562.02,-380.78 587,-366.36 660.05,-324.19 760.89,-328.34 823.73,-336.71"/>
<polygon fill="black" stroke="black" stroke-width="1.2" points="823.47,-340.21 833.86,-338.14 824.45,-333.28 823.47,-340.21"/>
</g>
<!-- mnt_comp1&#45;&gt;mnt_comp4 -->
<g id="edge32" class="edge">
<title>mnt_comp1&#45;&gt;mnt_comp4</title>
<path fill="none" stroke="black" stroke-width="1.2" d="M551,-474.96C620.44,-471.48 748.76,-465.04 823.6,-461.29"/>
<polygon fill="black" stroke="black" stroke-width="1.2" points="823.98,-464.78 833.79,-460.78 823.63,-457.78 823.98,-464.78"/>
</g>
<!-- mnt_comp2 -->
<g id="node11" class="node">
<title>mnt_comp2</title>
<path fill="white" stroke="black" d="M673,-411.36C673,-411.36 599,-411.36 599,-411.36 593,-411.36 587,-405.36 587,-399.36 587,-399.36 587,-387.36 587,-387.36 587,-381.36 593,-375.36 599,-375.36 599,-375.36 673,-375.36 673,-375.36 679,-375.36 685,-381.36 685,-387.36 685,-387.36 685,-399.36 685,-399.36 685,-405.36 679,-411.36 673,-411.36"/>
<text text-anchor="middle" x="636" y="-389.66" font-family="Helvetica,sans-Serif" font-size="14.00">mnt_comp2</text>
</g>
<!-- mnt_comp2&#45;&gt;pressure -->
<g id="edge19" class="edge">
<title>mnt_comp2&#45;&gt;pressure</title>
<path fill="none" stroke="black" stroke-width="1.2" d="M685.02,-393.36C693.51,-393.36 702.34,-393.36 710.82,-393.36"/>
<polygon fill="black" stroke="black" stroke-width="1.2" points="710.94,-396.86 720.94,-393.36 710.94,-389.86 710.94,-396.86"/>
</g>
<!-- mnt_comp2&#45;&gt;mnt_comp4 -->
<g id="edge34" class="edge">
<title>mnt_comp2&#45;&gt;mnt_comp4</title>
<path fill="none" stroke="black" stroke-width="1.2" d="M685.22,-409.58C696.88,-413.31 709.34,-417.12 721,-420.36 754.81,-429.77 793.02,-438.85 823.73,-445.78"/>
<polygon fill="black" stroke="black" stroke-width="1.2" points="823.32,-449.27 833.84,-448.04 824.85,-442.44 823.32,-449.27"/>
</g>
<!-- mnt_comp3&#45;&gt;rotate -->
<g id="edge16" class="edge">
<title>mnt_comp3&#45;&gt;rotate</title>
<path fill="none" stroke="black" stroke-width="1.2" d="M857.35,-329.19C814.73,-299.62 723.51,-244.36 637,-244.36 501,-244.36 501,-244.36 501,-244.36 424.49,-244.36 335.06,-240.68 285.5,-238.31"/>
<polygon fill="black" stroke="black" stroke-width="1.2" points="285.41,-234.8 275.25,-237.81 285.07,-241.79 285.41,-234.8"/>
</g>
<!-- mnt_comp4&#45;&gt;volt -->
<g id="edge9" class="edge">
<title>mnt_comp4&#45;&gt;volt</title>
<path fill="none" stroke="black" stroke-width="1.2" d="M858.1,-476.58C815.9,-506.89 724.36,-564.36 637,-564.36 245.5,-564.36 245.5,-564.36 245.5,-564.36 171.42,-564.36 143.78,-555.31 90,-504.36 58.45,-474.47 41.78,-425.56 33.94,-394.71"/>
<polygon fill="black" stroke="black" stroke-width="1.2" points="37.25,-393.52 31.52,-384.61 30.44,-395.15 37.25,-393.52"/>
</g>
<!-- fail_comp1&#45;&gt;mnt_comp1 -->
<g id="edge33" class="edge">
<title>fail_comp1&#45;&gt;mnt_comp1</title>
<path fill="none" stroke="black" stroke-width="1.2" d="M399.67,-411.38C418.59,-423.7 443.86,-440.15 464.43,-453.55"/>
<polygon fill="black" stroke="black" stroke-width="1.2" points="462.64,-456.56 472.93,-459.08 466.46,-450.69 462.64,-456.56"/>
</g>
<!-- fail_comp1&#45;&gt;fail_comp2 -->
<g id="edge36" class="edge">
<title>fail_comp1&#45;&gt;fail_comp2</title>
<path fill="none" stroke="black" stroke-width="1.2" d="M417.12,-393.36C426.3,-393.36 436.05,-393.36 445.54,-393.36"/>
<polygon fill="black" stroke="black" stroke-width="1.2" points="445.69,-396.86 455.69,-393.36 445.69,-389.86 445.69,-396.86"/>
</g>
<!-- fail_comp2&#45;&gt;mnt_comp2 -->
<g id="edge35" class="edge">
<title>fail_comp2&#45;&gt;mnt_comp2</title>
<path fill="none" stroke="black" stroke-width="1.2" d="M548.06,-393.36C557.27,-393.36 567.09,-393.36 576.7,-393.36"/>
<polygon fill="black" stroke="black" stroke-width="1.2" points="576.99,-396.86 586.99,-393.36 576.99,-389.86 576.99,-396.86"/>
</g>
</g>
</svg>
