<?xml version="1.0" encoding="UTF-8" standalone="no"?>
<!DOCTYPE svg PUBLIC "-//W3C//DTD SVG 1.1//EN"
 "http://www.w3.org/Graphics/SVG/1.1/DTD/svg11.dtd">
<!-- Generated by graphviz version 2.50.0 (0)
 -->
<!-- Title: G Pages: 1 -->
<svg width="454pt" height="124pt"
 viewBox="0.00 0.00 454.00 124.00" xmlns="http://www.w3.org/2000/svg" xmlns:xlink="http://www.w3.org/1999/xlink">
<g id="graph0" class="graph" transform="scale(1 1) rotate(0) translate(4 120)">
<title>G</title>
<polygon fill="white" stroke="transparent" points="-4,4 -4,-120 450,-120 450,4 -4,4"/>
<text text-anchor="middle" x="223" y="-99.2" font-family="Times,serif" font-size="16.00">model=model1/nbcb_w_telemetry.json [machine 37]</text>
<!-- volt -->
<g id="node1" class="node">
<title>volt</title>
<path fill="white" stroke="black" d="M181.5,-90C181.5,-90 151.5,-90 151.5,-90 145.5,-90 139.5,-84 139.5,-78 139.5,-78 139.5,-66 139.5,-66 139.5,-60 145.5,-54 151.5,-54 151.5,-54 181.5,-54 181.5,-54 187.5,-54 193.5,-60 193.5,-66 193.5,-66 193.5,-78 193.5,-78 193.5,-84 187.5,-90 181.5,-90"/>
<text text-anchor="middle" x="166.5" y="-68.3" font-family="Helvetica,sans-Serif" font-size="14.00">volt</text>
</g>
<!-- rotate -->
<g id="node2" class="node">
<title>rotate</title>
<path fill="white" stroke="black" d="M296.5,-90C296.5,-90 263.5,-90 263.5,-90 257.5,-90 251.5,-84 251.5,-78 251.5,-78 251.5,-66 251.5,-66 251.5,-60 257.5,-54 263.5,-54 263.5,-54 296.5,-54 296.5,-54 302.5,-54 308.5,-60 308.5,-66 308.5,-66 308.5,-78 308.5,-78 308.5,-84 302.5,-90 296.5,-90"/>
<text text-anchor="middle" x="280" y="-68.3" font-family="Helvetica,sans-Serif" font-size="14.00">rotate</text>
</g>
<!-- volt&#45;&gt;rotate -->
<g id="edge1" class="edge">
<title>volt&#45;&gt;rotate</title>
<path fill="none" stroke="black" stroke-width="1.2" d="M193.64,-72C207.76,-72 225.45,-72 241.06,-72"/>
<polygon fill="black" stroke="black" stroke-width="1.2" points="241.47,-75.5 251.47,-72 241.47,-68.5 241.47,-75.5"/>
</g>
<!-- pressure -->
<g id="node3" class="node">
<title>pressure</title>
<path fill="white" stroke="black" d="M306.5,-36C306.5,-36 253.5,-36 253.5,-36 247.5,-36 241.5,-30 241.5,-24 241.5,-24 241.5,-12 241.5,-12 241.5,-6 247.5,0 253.5,0 253.5,0 306.5,0 306.5,0 312.5,0 318.5,-6 318.5,-12 318.5,-12 318.5,-24 318.5,-24 318.5,-30 312.5,-36 306.5,-36"/>
<text text-anchor="middle" x="280" y="-14.3" font-family="Helvetica,sans-Serif" font-size="14.00">pressure</text>
</g>
<!-- volt&#45;&gt;pressure -->
<g id="edge2" class="edge">
<title>volt&#45;&gt;pressure</title>
<path fill="none" stroke="black" stroke-width="1.2" d="M202.75,-54.93C212.23,-50.34 222.62,-45.3 232.61,-40.47"/>
<polygon fill="black" stroke="black" stroke-width="1.2" points="201.12,-51.83 193.64,-59.34 204.17,-58.13 201.12,-51.83"/>
<polygon fill="black" stroke="black" stroke-width="1.2" points="234.15,-43.61 241.62,-36.1 231.1,-37.31 234.15,-43.61"/>
</g>
<!-- vibration -->
<g id="node4" class="node">
<title>vibration</title>
<path fill="white" stroke="black" d="M193.5,-36C193.5,-36 139.5,-36 139.5,-36 133.5,-36 127.5,-30 127.5,-24 127.5,-24 127.5,-12 127.5,-12 127.5,-6 133.5,0 139.5,0 139.5,0 193.5,0 193.5,0 199.5,0 205.5,-6 205.5,-12 205.5,-12 205.5,-24 205.5,-24 205.5,-30 199.5,-36 193.5,-36"/>
<text text-anchor="middle" x="166.5" y="-14.3" font-family="Helvetica,sans-Serif" font-size="14.00">vibration</text>
</g>
<!-- vibration&#45;&gt;pressure -->
<g id="edge3" class="edge">
<title>vibration&#45;&gt;pressure</title>
<path fill="none" stroke="black" stroke-width="1.2" d="M205.56,-18C213.81,-18 222.64,-18 231.22,-18"/>
<polygon fill="black" stroke="black" stroke-width="1.2" points="231.49,-21.5 241.49,-18 231.49,-14.5 231.49,-21.5"/>
</g>
</g>
</svg>
