<?xml version="1.0" encoding="UTF-8" standalone="no"?>
<!DOCTYPE svg PUBLIC "-//W3C//DTD SVG 1.1//EN"
 "http://www.w3.org/Graphics/SVG/1.1/DTD/svg11.dtd">
<!-- Generated by graphviz version 2.50.0 (0)
 -->
<!-- Title: G Pages: 1 -->
<svg width="1181pt" height="402pt"
 viewBox="0.00 0.00 1181.00 401.64" xmlns="http://www.w3.org/2000/svg" xmlns:xlink="http://www.w3.org/1999/xlink">
<g id="graph0" class="graph" transform="scale(1 1) rotate(0) translate(4 397.64)">
<title>G</title>
<polygon fill="white" stroke="transparent" points="-4,4 -4,-397.64 1177,-397.64 1177,4 -4,4"/>
<text text-anchor="middle" x="586.5" y="-376.84" font-family="Times,serif" font-size="16.00">model=model4/nbcb_w_mixed.json [machine 74]</text>
<!-- volt -->
<g id="node1" class="node">
<title>volt</title>
<path fill="white" stroke="black" d="M42,-291.64C42,-291.64 12,-291.64 12,-291.64 6,-291.64 0,-285.64 0,-279.64 0,-279.64 0,-267.64 0,-267.64 0,-261.64 6,-255.64 12,-255.64 12,-255.64 42,-255.64 42,-255.64 48,-255.64 54,-261.64 54,-267.64 54,-267.64 54,-279.64 54,-279.64 54,-285.64 48,-291.64 42,-291.64"/>
<text text-anchor="middle" x="27" y="-269.94" font-family="Helvetica,sans-Serif" font-size="14.00">volt</text>
</g>
<!-- err_error1 -->
<g id="node5" class="node">
<title>err_error1</title>
<path fill="white" stroke="black" d="M163,-367.64C163,-367.64 102,-367.64 102,-367.64 96,-367.64 90,-361.64 90,-355.64 90,-355.64 90,-343.64 90,-343.64 90,-337.64 96,-331.64 102,-331.64 102,-331.64 163,-331.64 163,-331.64 169,-331.64 175,-337.64 175,-343.64 175,-343.64 175,-355.64 175,-355.64 175,-361.64 169,-367.64 163,-367.64"/>
<text text-anchor="middle" x="132.5" y="-345.94" font-family="Helvetica,sans-Serif" font-size="14.00">err_error1</text>
</g>
<!-- volt&#45;&gt;err_error1 -->
<g id="edge2" class="edge">
<title>volt&#45;&gt;err_error1</title>
<path fill="none" stroke="black" stroke-width="1.2" d="M60.96,-297.84C72.91,-306.62 86.42,-316.54 98.39,-325.33"/>
<polygon fill="black" stroke="black" stroke-width="1.2" points="62.66,-294.75 52.53,-291.65 58.52,-300.39 62.66,-294.75"/>
<polygon fill="black" stroke="black" stroke-width="1.2" points="96.66,-328.4 106.79,-331.49 100.8,-322.75 96.66,-328.4"/>
</g>
<!-- err_error4 -->
<g id="node8" class="node">
<title>err_error4</title>
<path fill="white" stroke="black" d="M163,-268.64C163,-268.64 102,-268.64 102,-268.64 96,-268.64 90,-262.64 90,-256.64 90,-256.64 90,-244.64 90,-244.64 90,-238.64 96,-232.64 102,-232.64 102,-232.64 163,-232.64 163,-232.64 169,-232.64 175,-238.64 175,-244.64 175,-244.64 175,-256.64 175,-256.64 175,-262.64 169,-268.64 163,-268.64"/>
<text text-anchor="middle" x="132.5" y="-246.94" font-family="Helvetica,sans-Serif" font-size="14.00">err_error4</text>
</g>
<!-- volt&#45;&gt;err_error4 -->
<g id="edge3" class="edge">
<title>volt&#45;&gt;err_error4</title>
<path fill="none" stroke="black" stroke-width="1.2" d="M54.12,-267.84C61.95,-266.1 70.83,-264.12 79.71,-262.15"/>
<polygon fill="black" stroke="black" stroke-width="1.2" points="80.68,-265.52 89.68,-259.93 79.16,-258.69 80.68,-265.52"/>
</g>
<!-- fail_comp1 -->
<g id="node14" class="node">
<title>fail_comp1</title>
<path fill="white" stroke="black" d="M1027,-329.64C1027,-329.64 959,-329.64 959,-329.64 953,-329.64 947,-323.64 947,-317.64 947,-317.64 947,-305.64 947,-305.64 947,-299.64 953,-293.64 959,-293.64 959,-293.64 1027,-293.64 1027,-293.64 1033,-293.64 1039,-299.64 1039,-305.64 1039,-305.64 1039,-317.64 1039,-317.64 1039,-323.64 1033,-329.64 1027,-329.64"/>
<text text-anchor="middle" x="993" y="-307.94" font-family="Helvetica,sans-Serif" font-size="14.00">fail_comp1</text>
</g>
<!-- volt&#45;&gt;fail_comp1 -->
<g id="edge4" class="edge">
<title>volt&#45;&gt;fail_comp1</title>
<path fill="none" stroke="black" stroke-width="1.2" d="M64.04,-281.95C105.79,-290.82 176.73,-303.64 238.5,-303.64 238.5,-303.64 238.5,-303.64 750,-303.64 814.17,-303.64 887.85,-306.48 936.89,-308.78"/>
<polygon fill="black" stroke="black" stroke-width="1.2" points="64.6,-278.48 54.08,-279.78 63.11,-285.32 64.6,-278.48"/>
<polygon fill="black" stroke="black" stroke-width="1.2" points="936.81,-312.28 946.97,-309.26 937.15,-305.29 936.81,-312.28"/>
</g>
<!-- rotate -->
<g id="node2" class="node">
<title>rotate</title>
<path fill="white" stroke="black" d="M256,-194.64C256,-194.64 223,-194.64 223,-194.64 217,-194.64 211,-188.64 211,-182.64 211,-182.64 211,-170.64 211,-170.64 211,-164.64 217,-158.64 223,-158.64 223,-158.64 256,-158.64 256,-158.64 262,-158.64 268,-164.64 268,-170.64 268,-170.64 268,-182.64 268,-182.64 268,-188.64 262,-194.64 256,-194.64"/>
<text text-anchor="middle" x="239.5" y="-172.94" font-family="Helvetica,sans-Serif" font-size="14.00">rotate</text>
</g>
<!-- rotate&#45;&gt;volt -->
<g id="edge1" class="edge">
<title>rotate&#45;&gt;volt</title>
<path fill="none" stroke="black" stroke-width="1.2" d="M210.73,-182.17C179.94,-189.03 129.43,-202.47 90,-223.64 77.38,-230.41 64.82,-239.89 54.34,-248.78"/>
<polygon fill="black" stroke="black" stroke-width="1.2" points="51.99,-246.19 46.76,-255.4 56.59,-251.46 51.99,-246.19"/>
</g>
<!-- err_error3 -->
<g id="node7" class="node">
<title>err_error3</title>
<path fill="white" stroke="black" d="M1154.5,-136.64C1154.5,-136.64 1093.5,-136.64 1093.5,-136.64 1087.5,-136.64 1081.5,-130.64 1081.5,-124.64 1081.5,-124.64 1081.5,-112.64 1081.5,-112.64 1081.5,-106.64 1087.5,-100.64 1093.5,-100.64 1093.5,-100.64 1154.5,-100.64 1154.5,-100.64 1160.5,-100.64 1166.5,-106.64 1166.5,-112.64 1166.5,-112.64 1166.5,-124.64 1166.5,-124.64 1166.5,-130.64 1160.5,-136.64 1154.5,-136.64"/>
<text text-anchor="middle" x="1124" y="-114.94" font-family="Helvetica,sans-Serif" font-size="14.00">err_error3</text>
</g>
<!-- rotate&#45;&gt;err_error3 -->
<g id="edge5" class="edge">
<title>rotate&#45;&gt;err_error3</title>
<path fill="none" stroke="black" stroke-width="1.2" d="M278.51,-175.44C352.68,-173 521.9,-166.86 664,-157.64 811.86,-148.04 986.11,-131.91 1071.11,-123.73"/>
<polygon fill="black" stroke="black" stroke-width="1.2" points="278.15,-171.95 268.27,-175.78 278.38,-178.95 278.15,-171.95"/>
<polygon fill="black" stroke="black" stroke-width="1.2" points="1071.66,-127.19 1081.27,-122.75 1070.98,-120.22 1071.66,-127.19"/>
</g>
<!-- err_error5 -->
<g id="node9" class="node">
<title>err_error5</title>
<path fill="white" stroke="black" d="M1154.5,-48.64C1154.5,-48.64 1093.5,-48.64 1093.5,-48.64 1087.5,-48.64 1081.5,-42.64 1081.5,-36.64 1081.5,-36.64 1081.5,-24.64 1081.5,-24.64 1081.5,-18.64 1087.5,-12.64 1093.5,-12.64 1093.5,-12.64 1154.5,-12.64 1154.5,-12.64 1160.5,-12.64 1166.5,-18.64 1166.5,-24.64 1166.5,-24.64 1166.5,-36.64 1166.5,-36.64 1166.5,-42.64 1160.5,-48.64 1154.5,-48.64"/>
<text text-anchor="middle" x="1124" y="-26.94" font-family="Helvetica,sans-Serif" font-size="14.00">err_error5</text>
</g>
<!-- rotate&#45;&gt;err_error5 -->
<g id="edge7" class="edge">
<title>rotate&#45;&gt;err_error5</title>
<path fill="none" stroke="black" stroke-width="1.2" d="M242.39,-158.62C246.8,-126.45 260.93,-59.49 304,-27.64 368.32,19.93 403,-8.64 483,-8.64 483,-8.64 483,-8.64 873.5,-8.64 942.05,-8.64 1020.78,-16.98 1071.16,-23.39"/>
<polygon fill="black" stroke="black" stroke-width="1.2" points="1070.79,-26.87 1081.16,-24.69 1071.69,-19.93 1070.79,-26.87"/>
</g>
<!-- mnt_comp1 -->
<g id="node10" class="node">
<title>mnt_comp1</title>
<path fill="white" stroke="black" d="M1161,-283.64C1161,-283.64 1087,-283.64 1087,-283.64 1081,-283.64 1075,-277.64 1075,-271.64 1075,-271.64 1075,-259.64 1075,-259.64 1075,-253.64 1081,-247.64 1087,-247.64 1087,-247.64 1161,-247.64 1161,-247.64 1167,-247.64 1173,-253.64 1173,-259.64 1173,-259.64 1173,-271.64 1173,-271.64 1173,-277.64 1167,-283.64 1161,-283.64"/>
<text text-anchor="middle" x="1124" y="-261.94" font-family="Helvetica,sans-Serif" font-size="14.00">mnt_comp1</text>
</g>
<!-- rotate&#45;&gt;mnt_comp1 -->
<g id="edge8" class="edge">
<title>rotate&#45;&gt;mnt_comp1</title>
<path fill="none" stroke="black" stroke-width="1.2" d="M276.75,-199.08C322.88,-225.45 405.85,-265.64 483,-265.64 483,-265.64 483,-265.64 873.5,-265.64 938.95,-265.64 1014.05,-265.64 1064.61,-265.64"/>
<polygon fill="black" stroke="black" stroke-width="1.2" points="278.44,-196.01 268.03,-194.01 274.92,-202.06 278.44,-196.01"/>
<polygon fill="black" stroke="black" stroke-width="1.2" points="1064.7,-269.14 1074.7,-265.64 1064.7,-262.14 1064.7,-269.14"/>
</g>
<!-- mnt_comp2 -->
<g id="node11" class="node">
<title>mnt_comp2</title>
<path fill="white" stroke="black" d="M652,-148.64C652,-148.64 578,-148.64 578,-148.64 572,-148.64 566,-142.64 566,-136.64 566,-136.64 566,-124.64 566,-124.64 566,-118.64 572,-112.64 578,-112.64 578,-112.64 652,-112.64 652,-112.64 658,-112.64 664,-118.64 664,-124.64 664,-124.64 664,-136.64 664,-136.64 664,-142.64 658,-148.64 652,-148.64"/>
<text text-anchor="middle" x="615" y="-126.94" font-family="Helvetica,sans-Serif" font-size="14.00">mnt_comp2</text>
</g>
<!-- rotate&#45;&gt;mnt_comp2 -->
<g id="edge9" class="edge">
<title>rotate&#45;&gt;mnt_comp2</title>
<path fill="none" stroke="black" stroke-width="1.2" d="M268.19,-169.82C279.27,-167.27 292.19,-164.55 304,-162.64 391.28,-148.56 493.44,-139.42 555.92,-134.64"/>
<polygon fill="black" stroke="black" stroke-width="1.2" points="556.27,-138.13 565.98,-133.89 555.75,-131.15 556.27,-138.13"/>
</g>
<!-- mnt_comp3 -->
<g id="node12" class="node">
<title>mnt_comp3</title>
<path fill="white" stroke="black" d="M390,-72.64C390,-72.64 316,-72.64 316,-72.64 310,-72.64 304,-66.64 304,-60.64 304,-60.64 304,-48.64 304,-48.64 304,-42.64 310,-36.64 316,-36.64 316,-36.64 390,-36.64 390,-36.64 396,-36.64 402,-42.64 402,-48.64 402,-48.64 402,-60.64 402,-60.64 402,-66.64 396,-72.64 390,-72.64"/>
<text text-anchor="middle" x="353" y="-50.94" font-family="Helvetica,sans-Serif" font-size="14.00">mnt_comp3</text>
</g>
<!-- rotate&#45;&gt;mnt_comp3 -->
<g id="edge10" class="edge">
<title>rotate&#45;&gt;mnt_comp3</title>
<path fill="none" stroke="black" stroke-width="1.2" d="M255.75,-149.83C267.4,-130.82 284.69,-105.44 304,-86.64 306.83,-83.89 309.92,-81.23 313.13,-78.69"/>
<polygon fill="black" stroke="black" stroke-width="1.2" points="252.64,-148.22 250.5,-158.6 258.64,-151.82 252.64,-148.22"/>
<polygon fill="black" stroke="black" stroke-width="1.2" points="315.3,-81.43 321.26,-72.67 311.14,-75.81 315.3,-81.43"/>
</g>
<!-- fail_comp2 -->
<g id="node15" class="node">
<title>fail_comp2</title>
<path fill="white" stroke="black" d="M518,-106.64C518,-106.64 450,-106.64 450,-106.64 444,-106.64 438,-100.64 438,-94.64 438,-94.64 438,-82.64 438,-82.64 438,-76.64 444,-70.64 450,-70.64 450,-70.64 518,-70.64 518,-70.64 524,-70.64 530,-76.64 530,-82.64 530,-82.64 530,-94.64 530,-94.64 530,-100.64 524,-106.64 518,-106.64"/>
<text text-anchor="middle" x="484" y="-84.94" font-family="Helvetica,sans-Serif" font-size="14.00">fail_comp2</text>
</g>
<!-- rotate&#45;&gt;fail_comp2 -->
<g id="edge12" class="edge">
<title>rotate&#45;&gt;fail_comp2</title>
<path fill="none" stroke="black" stroke-width="1.2" d="M257.73,-158.54C269.66,-147.09 286.49,-132.93 304,-124.64 343.02,-106.16 391.18,-97.15 427.72,-92.77"/>
<polygon fill="black" stroke="black" stroke-width="1.2" points="428.15,-96.25 437.7,-91.65 427.37,-89.29 428.15,-96.25"/>
</g>
<!-- pressure -->
<g id="node3" class="node">
<title>pressure</title>
<path fill="white" stroke="black" d="M899,-237.64C899,-237.64 846,-237.64 846,-237.64 840,-237.64 834,-231.64 834,-225.64 834,-225.64 834,-213.64 834,-213.64 834,-207.64 840,-201.64 846,-201.64 846,-201.64 899,-201.64 899,-201.64 905,-201.64 911,-207.64 911,-213.64 911,-213.64 911,-225.64 911,-225.64 911,-231.64 905,-237.64 899,-237.64"/>
<text text-anchor="middle" x="872.5" y="-215.94" font-family="Helvetica,sans-Serif" font-size="14.00">pressure</text>
</g>
<!-- err_error2 -->
<g id="node6" class="node">
<title>err_error2</title>
<path fill="white" stroke="black" d="M1023.5,-107.64C1023.5,-107.64 962.5,-107.64 962.5,-107.64 956.5,-107.64 950.5,-101.64 950.5,-95.64 950.5,-95.64 950.5,-83.64 950.5,-83.64 950.5,-77.64 956.5,-71.64 962.5,-71.64 962.5,-71.64 1023.5,-71.64 1023.5,-71.64 1029.5,-71.64 1035.5,-77.64 1035.5,-83.64 1035.5,-83.64 1035.5,-95.64 1035.5,-95.64 1035.5,-101.64 1029.5,-107.64 1023.5,-107.64"/>
<text text-anchor="middle" x="993" y="-85.94" font-family="Helvetica,sans-Serif" font-size="14.00">err_error2</text>
</g>
<!-- pressure&#45;&gt;err_error2 -->
<g id="edge13" class="edge">
<title>pressure&#45;&gt;err_error2</title>
<path fill="none" stroke="black" stroke-width="1.2" d="M889.98,-201.56C910.38,-179.18 945.27,-140.91 968.48,-115.44"/>
<polygon fill="black" stroke="black" stroke-width="1.2" points="971.13,-117.73 975.28,-107.98 965.96,-113.01 971.13,-117.73"/>
</g>
<!-- pressure&#45;&gt;fail_comp1 -->
<g id="edge15" class="edge">
<title>pressure&#45;&gt;fail_comp1</title>
<path fill="none" stroke="black" stroke-width="1.2" d="M896.91,-237.82C915.17,-251.99 940.7,-271.81 960.71,-287.35"/>
<polygon fill="black" stroke="black" stroke-width="1.2" points="958.59,-290.13 968.64,-293.5 962.88,-284.6 958.59,-290.13"/>
</g>
<!-- vibration -->
<g id="node4" class="node">
<title>vibration</title>
<path fill="white" stroke="black" d="M776,-107.64C776,-107.64 722,-107.64 722,-107.64 716,-107.64 710,-101.64 710,-95.64 710,-95.64 710,-83.64 710,-83.64 710,-77.64 716,-71.64 722,-71.64 722,-71.64 776,-71.64 776,-71.64 782,-71.64 788,-77.64 788,-83.64 788,-83.64 788,-95.64 788,-95.64 788,-101.64 782,-107.64 776,-107.64"/>
<text text-anchor="middle" x="749" y="-85.94" font-family="Helvetica,sans-Serif" font-size="14.00">vibration</text>
</g>
<!-- vibration&#45;&gt;err_error2 -->
<g id="edge16" class="edge">
<title>vibration&#45;&gt;err_error2</title>
<path fill="none" stroke="black" stroke-width="1.2" d="M788.08,-89.64C829.16,-89.64 894.82,-89.64 940.49,-89.64"/>
<polygon fill="black" stroke="black" stroke-width="1.2" points="940.5,-93.14 950.5,-89.64 940.5,-86.14 940.5,-93.14"/>
</g>
<!-- vibration&#45;&gt;fail_comp2 -->
<g id="edge18" class="edge">
<title>vibration&#45;&gt;fail_comp2</title>
<path fill="none" stroke="black" stroke-width="1.2" d="M709.78,-89.49C665.22,-89.32 591.22,-89.04 540.37,-88.85"/>
<polygon fill="black" stroke="black" stroke-width="1.2" points="540.22,-85.35 530.21,-88.81 540.2,-92.35 540.22,-85.35"/>
</g>
<!-- err_error2&#45;&gt;err_error3 -->
<g id="edge19" class="edge">
<title>err_error2&#45;&gt;err_error3</title>
<path fill="none" stroke="black" stroke-width="1.2" d="M1035.53,-98.97C1046.92,-101.54 1059.41,-104.34 1071.3,-107.02"/>
<polygon fill="black" stroke="black" stroke-width="1.2" points="1070.58,-110.44 1081.11,-109.22 1072.12,-103.61 1070.58,-110.44"/>
</g>
<!-- err_error2&#45;&gt;err_error5 -->
<g id="edge20" class="edge">
<title>err_error2&#45;&gt;err_error5</title>
<path fill="none" stroke="black" stroke-width="1.2" d="M1033.41,-71.62C1046.29,-65.72 1060.75,-59.11 1074.24,-52.94"/>
<polygon fill="black" stroke="black" stroke-width="1.2" points="1075.75,-56.1 1083.39,-48.75 1072.84,-49.73 1075.75,-56.1"/>
</g>
<!-- err_error4&#45;&gt;rotate -->
<g id="edge6" class="edge">
<title>err_error4&#45;&gt;rotate</title>
<path fill="none" stroke="black" stroke-width="1.2" d="M159.19,-232.54C172.79,-222.95 189.67,-211.05 204.36,-200.7"/>
<polygon fill="black" stroke="black" stroke-width="1.2" points="206.56,-203.43 212.72,-194.81 202.53,-197.71 206.56,-203.43"/>
</g>
<!-- mnt_comp4 -->
<g id="node13" class="node">
<title>mnt_comp4</title>
<path fill="white" stroke="black" d="M786,-213.64C786,-213.64 712,-213.64 712,-213.64 706,-213.64 700,-207.64 700,-201.64 700,-201.64 700,-189.64 700,-189.64 700,-183.64 706,-177.64 712,-177.64 712,-177.64 786,-177.64 786,-177.64 792,-177.64 798,-183.64 798,-189.64 798,-189.64 798,-201.64 798,-201.64 798,-207.64 792,-213.64 786,-213.64"/>
<text text-anchor="middle" x="749" y="-191.94" font-family="Helvetica,sans-Serif" font-size="14.00">mnt_comp4</text>
</g>
<!-- mnt_comp1&#45;&gt;mnt_comp4 -->
<g id="edge21" class="edge">
<title>mnt_comp1&#45;&gt;mnt_comp4</title>
<path fill="none" stroke="black" stroke-width="1.2" d="M1083.4,-247.55C1041.57,-229.52 973.2,-203.05 911,-192.64 877.25,-186.99 868.22,-192.03 834,-192.64 825.81,-192.79 817.16,-193.01 808.66,-193.28"/>
<polygon fill="black" stroke="black" stroke-width="1.2" points="808.29,-189.79 798.41,-193.62 808.52,-196.78 808.29,-189.79"/>
</g>
<!-- mnt_comp2&#45;&gt;vibration -->
<g id="edge17" class="edge">
<title>mnt_comp2&#45;&gt;vibration</title>
<path fill="none" stroke="black" stroke-width="1.2" d="M664.03,-115.72C675.78,-112.07 688.35,-108.17 700.09,-104.52"/>
<polygon fill="black" stroke="black" stroke-width="1.2" points="701.21,-107.84 709.72,-101.53 699.14,-101.15 701.21,-107.84"/>
</g>
<!-- mnt_comp2&#45;&gt;mnt_comp4 -->
<g id="edge23" class="edge">
<title>mnt_comp2&#45;&gt;mnt_comp4</title>
<path fill="none" stroke="black" stroke-width="1.2" d="M652.77,-148.75C668.07,-156.28 686.01,-165.11 702.16,-173.07"/>
<polygon fill="black" stroke="black" stroke-width="1.2" points="700.91,-176.35 711.43,-177.63 704,-170.07 700.91,-176.35"/>
</g>
<!-- mnt_comp3&#45;&gt;fail_comp2 -->
<g id="edge25" class="edge">
<title>mnt_comp3&#45;&gt;fail_comp2</title>
<path fill="none" stroke="black" stroke-width="1.2" d="M402.03,-67.3C410.57,-69.55 419.52,-71.91 428.22,-74.2"/>
<polygon fill="black" stroke="black" stroke-width="1.2" points="427.35,-77.59 437.92,-76.76 429.14,-70.82 427.35,-77.59"/>
</g>
<!-- mnt_comp4&#45;&gt;rotate -->
<g id="edge11" class="edge">
<title>mnt_comp4&#45;&gt;rotate</title>
<path fill="none" stroke="black" stroke-width="1.2" d="M699.83,-198.32C618.11,-202.16 447.22,-207.06 304,-190.64 295.55,-189.67 286.57,-188.06 278.11,-186.27"/>
<polygon fill="black" stroke="black" stroke-width="1.2" points="278.63,-182.8 268.11,-184.02 277.1,-189.63 278.63,-182.8"/>
</g>
<!-- mnt_comp4&#45;&gt;pressure -->
<g id="edge14" class="edge">
<title>mnt_comp4&#45;&gt;pressure</title>
<path fill="none" stroke="black" stroke-width="1.2" d="M798.02,-205.12C806.6,-206.82 815.54,-208.59 824.1,-210.28"/>
<polygon fill="black" stroke="black" stroke-width="1.2" points="823.45,-213.72 833.94,-212.22 824.81,-206.85 823.45,-213.72"/>
</g>
<!-- fail_comp1&#45;&gt;mnt_comp1 -->
<g id="edge22" class="edge">
<title>fail_comp1&#45;&gt;mnt_comp1</title>
<path fill="none" stroke="black" stroke-width="1.2" d="M1039.12,-295.55C1047.46,-292.58 1056.28,-289.43 1064.94,-286.34"/>
<polygon fill="black" stroke="black" stroke-width="1.2" points="1066.37,-289.55 1074.62,-282.89 1064.02,-282.96 1066.37,-289.55"/>
</g>
<!-- fail_comp2&#45;&gt;mnt_comp2 -->
<g id="edge24" class="edge">
<title>fail_comp2&#45;&gt;mnt_comp2</title>
<path fill="none" stroke="black" stroke-width="1.2" d="M530.12,-103.33C538.46,-106.04 547.28,-108.92 555.94,-111.74"/>
<polygon fill="black" stroke="black" stroke-width="1.2" points="555.02,-115.12 565.62,-114.89 557.19,-108.46 555.02,-115.12"/>
</g>
</g>
</svg>
