<?xml version="1.0" encoding="UTF-8" standalone="no"?>
<!DOCTYPE svg PUBLIC "-//W3C//DTD SVG 1.1//EN"
 "http://www.w3.org/Graphics/SVG/1.1/DTD/svg11.dtd">
<!-- Generated by graphviz version 2.50.0 (0)
 -->
<!-- Title: G Pages: 1 -->
<svg width="1176pt" height="598pt"
 viewBox="0.00 0.00 1176.00 598.35" xmlns="http://www.w3.org/2000/svg" xmlns:xlink="http://www.w3.org/1999/xlink">
<g id="graph0" class="graph" transform="scale(1 1) rotate(0) translate(4 594.35)">
<title>G</title>
<polygon fill="white" stroke="transparent" points="-4,4 -4,-594.35 1172,-594.35 1172,4 -4,4"/>
<text text-anchor="middle" x="584" y="-573.55" font-family="Times,serif" font-size="16.00">model=model3/nbcb_w_mixed.json [machine 27]</text>
<!-- volt -->
<g id="node1" class="node">
<title>volt</title>
<path fill="white" stroke="black" d="M163,-193C163,-193 133,-193 133,-193 127,-193 121,-187 121,-181 121,-181 121,-169 121,-169 121,-163 127,-157 133,-157 133,-157 163,-157 163,-157 169,-157 175,-163 175,-169 175,-169 175,-181 175,-181 175,-187 169,-193 163,-193"/>
<text text-anchor="middle" x="148" y="-171.3" font-family="Helvetica,sans-Serif" font-size="14.00">volt</text>
</g>
<!-- mnt_comp4 -->
<g id="node13" class="node">
<title>mnt_comp4</title>
<path fill="white" stroke="black" d="M914,-170C914,-170 840,-170 840,-170 834,-170 828,-164 828,-158 828,-158 828,-146 828,-146 828,-140 834,-134 840,-134 840,-134 914,-134 914,-134 920,-134 926,-140 926,-146 926,-146 926,-158 926,-158 926,-164 920,-170 914,-170"/>
<text text-anchor="middle" x="877" y="-148.3" font-family="Helvetica,sans-Serif" font-size="14.00">mnt_comp4</text>
</g>
<!-- volt&#45;&gt;mnt_comp4 -->
<g id="edge4" class="edge">
<title>volt&#45;&gt;mnt_comp4</title>
<path fill="none" stroke="black" stroke-width="1.2" d="M170.77,-149.33C206.99,-109.67 283.87,-38 366.5,-38 366.5,-38 366.5,-38 613,-38 702.72,-38 796.5,-94.53 844.13,-127.98"/>
<polygon fill="black" stroke="black" stroke-width="1.2" points="168.14,-147.02 164.07,-156.81 173.35,-151.69 168.14,-147.02"/>
<polygon fill="black" stroke="black" stroke-width="1.2" points="842.3,-130.97 852.48,-133.94 846.37,-125.28 842.3,-130.97"/>
</g>
<!-- fail_comp1 -->
<g id="node14" class="node">
<title>fail_comp1</title>
<path fill="white" stroke="black" d="M291,-216C291,-216 223,-216 223,-216 217,-216 211,-210 211,-204 211,-204 211,-192 211,-192 211,-186 217,-180 223,-180 223,-180 291,-180 291,-180 297,-180 303,-186 303,-192 303,-192 303,-204 303,-204 303,-210 297,-216 291,-216"/>
<text text-anchor="middle" x="257" y="-194.3" font-family="Helvetica,sans-Serif" font-size="14.00">fail_comp1</text>
</g>
<!-- volt&#45;&gt;fail_comp1 -->
<g id="edge5" class="edge">
<title>volt&#45;&gt;fail_comp1</title>
<path fill="none" stroke="black" stroke-width="1.2" d="M175.18,-180.63C183.08,-182.33 192.07,-184.26 201.12,-186.2"/>
<polygon fill="black" stroke="black" stroke-width="1.2" points="200.4,-189.63 210.91,-188.31 201.87,-182.78 200.4,-189.63"/>
</g>
<!-- rotate -->
<g id="node2" class="node">
<title>rotate</title>
<path fill="white" stroke="black" d="M384,-346C384,-346 351,-346 351,-346 345,-346 339,-340 339,-334 339,-334 339,-322 339,-322 339,-316 345,-310 351,-310 351,-310 384,-310 384,-310 390,-310 396,-316 396,-322 396,-322 396,-334 396,-334 396,-340 390,-346 384,-346"/>
<text text-anchor="middle" x="367.5" y="-324.3" font-family="Helvetica,sans-Serif" font-size="14.00">rotate</text>
</g>
<!-- pressure -->
<g id="node3" class="node">
<title>pressure</title>
<path fill="white" stroke="black" d="M638.5,-400C638.5,-400 585.5,-400 585.5,-400 579.5,-400 573.5,-394 573.5,-388 573.5,-388 573.5,-376 573.5,-376 573.5,-370 579.5,-364 585.5,-364 585.5,-364 638.5,-364 638.5,-364 644.5,-364 650.5,-370 650.5,-376 650.5,-376 650.5,-388 650.5,-388 650.5,-394 644.5,-400 638.5,-400"/>
<text text-anchor="middle" x="612" y="-378.3" font-family="Helvetica,sans-Serif" font-size="14.00">pressure</text>
</g>
<!-- rotate&#45;&gt;pressure -->
<g id="edge7" class="edge">
<title>rotate&#45;&gt;pressure</title>
<path fill="none" stroke="black" stroke-width="1.2" d="M406.08,-336.37C448.35,-345.78 517.09,-361.09 563.16,-371.35"/>
<polygon fill="black" stroke="black" stroke-width="1.2" points="406.84,-332.95 396.32,-334.19 405.32,-339.78 406.84,-332.95"/>
<polygon fill="black" stroke="black" stroke-width="1.2" points="562.68,-374.83 573.2,-373.58 564.2,-367.99 562.68,-374.83"/>
</g>
<!-- err_error1 -->
<g id="node5" class="node">
<title>err_error1</title>
<path fill="white" stroke="black" d="M1156,-544C1156,-544 1095,-544 1095,-544 1089,-544 1083,-538 1083,-532 1083,-532 1083,-520 1083,-520 1083,-514 1089,-508 1095,-508 1095,-508 1156,-508 1156,-508 1162,-508 1168,-514 1168,-520 1168,-520 1168,-532 1168,-532 1168,-538 1162,-544 1156,-544"/>
<text text-anchor="middle" x="1125.5" y="-522.3" font-family="Helvetica,sans-Serif" font-size="14.00">err_error1</text>
</g>
<!-- rotate&#45;&gt;err_error1 -->
<g id="edge8" class="edge">
<title>rotate&#45;&gt;err_error1</title>
<path fill="none" stroke="black" stroke-width="1.2" d="M371.25,-346.3C376.9,-377.39 392.75,-440.49 432,-475 539.64,-569.66 598.66,-564 742,-564 742,-564 742,-564 878,-564 946.06,-564 1023.46,-549.68 1073.08,-538.62"/>
<polygon fill="black" stroke="black" stroke-width="1.2" points="1073.95,-542.01 1082.93,-536.38 1072.4,-535.18 1073.95,-542.01"/>
</g>
<!-- err_error2 -->
<g id="node6" class="node">
<title>err_error2</title>
<path fill="white" stroke="black" d="M1156,-414C1156,-414 1095,-414 1095,-414 1089,-414 1083,-408 1083,-402 1083,-402 1083,-390 1083,-390 1083,-384 1089,-378 1095,-378 1095,-378 1156,-378 1156,-378 1162,-378 1168,-384 1168,-390 1168,-390 1168,-402 1168,-402 1168,-408 1162,-414 1156,-414"/>
<text text-anchor="middle" x="1125.5" y="-392.3" font-family="Helvetica,sans-Serif" font-size="14.00">err_error2</text>
</g>
<!-- rotate&#45;&gt;err_error2 -->
<g id="edge9" class="edge">
<title>rotate&#45;&gt;err_error2</title>
<path fill="none" stroke="black" stroke-width="1.2" d="M373.78,-299.65C381.4,-265.54 398.43,-208.24 432,-171 492.3,-104.1 520.93,-76 611,-76 611,-76 611,-76 878,-76 1024.68,-76 1096.23,-289.62 1117.5,-367.78"/>
<polygon fill="black" stroke="black" stroke-width="1.2" points="370.27,-299.34 371.63,-309.85 377.12,-300.79 370.27,-299.34"/>
<polygon fill="black" stroke="black" stroke-width="1.2" points="1114.22,-369.11 1120.17,-377.88 1120.99,-367.32 1114.22,-369.11"/>
</g>
<!-- err_error3 -->
<g id="node7" class="node">
<title>err_error3</title>
<path fill="white" stroke="black" d="M1035,-460C1035,-460 974,-460 974,-460 968,-460 962,-454 962,-448 962,-448 962,-436 962,-436 962,-430 968,-424 974,-424 974,-424 1035,-424 1035,-424 1041,-424 1047,-430 1047,-436 1047,-436 1047,-448 1047,-448 1047,-454 1041,-460 1035,-460"/>
<text text-anchor="middle" x="1004.5" y="-438.3" font-family="Helvetica,sans-Serif" font-size="14.00">err_error3</text>
</g>
<!-- rotate&#45;&gt;err_error3 -->
<g id="edge10" class="edge">
<title>rotate&#45;&gt;err_error3</title>
<path fill="none" stroke="black" stroke-width="1.2" d="M377.42,-355.74C386.97,-381.09 404.58,-417.75 432,-439 497.2,-489.52 528.52,-488 611,-488 611,-488 611,-488 744,-488 816.92,-488 899.62,-470.17 951.67,-456.71"/>
<polygon fill="black" stroke="black" stroke-width="1.2" points="380.71,-354.54 374.03,-346.31 374.12,-356.91 380.71,-354.54"/>
<polygon fill="black" stroke="black" stroke-width="1.2" points="952.87,-460.01 961.65,-454.09 951.09,-453.24 952.87,-460.01"/>
</g>
<!-- err_error5 -->
<g id="node9" class="node">
<title>err_error5</title>
<path fill="white" stroke="black" d="M511.5,-430C511.5,-430 450.5,-430 450.5,-430 444.5,-430 438.5,-424 438.5,-418 438.5,-418 438.5,-406 438.5,-406 438.5,-400 444.5,-394 450.5,-394 450.5,-394 511.5,-394 511.5,-394 517.5,-394 523.5,-400 523.5,-406 523.5,-406 523.5,-418 523.5,-418 523.5,-424 517.5,-430 511.5,-430"/>
<text text-anchor="middle" x="481" y="-408.3" font-family="Helvetica,sans-Serif" font-size="14.00">err_error5</text>
</g>
<!-- rotate&#45;&gt;err_error5 -->
<g id="edge12" class="edge">
<title>rotate&#45;&gt;err_error5</title>
<path fill="none" stroke="black" stroke-width="1.2" d="M389.54,-346.1C401.71,-356.35 417.45,-369.24 432,-380 435.63,-382.69 439.47,-385.42 443.34,-388.1"/>
<polygon fill="black" stroke="black" stroke-width="1.2" points="441.53,-391.1 451.76,-393.84 445.47,-385.32 441.53,-391.1"/>
</g>
<!-- mnt_comp1 -->
<g id="node10" class="node">
<title>mnt_comp1</title>
<path fill="white" stroke="black" d="M518,-216C518,-216 444,-216 444,-216 438,-216 432,-210 432,-204 432,-204 432,-192 432,-192 432,-186 438,-180 444,-180 444,-180 518,-180 518,-180 524,-180 530,-186 530,-192 530,-192 530,-204 530,-204 530,-210 524,-216 518,-216"/>
<text text-anchor="middle" x="481" y="-194.3" font-family="Helvetica,sans-Serif" font-size="14.00">mnt_comp1</text>
</g>
<!-- rotate&#45;&gt;mnt_comp1 -->
<g id="edge13" class="edge">
<title>rotate&#45;&gt;mnt_comp1</title>
<path fill="none" stroke="black" stroke-width="1.2" d="M377.37,-309.81C388.2,-288.87 408.07,-254.24 432,-230 434.65,-227.31 437.57,-224.72 440.61,-222.26"/>
<polygon fill="black" stroke="black" stroke-width="1.2" points="442.97,-224.86 448.85,-216.05 438.76,-219.27 442.97,-224.86"/>
</g>
<!-- fail_comp2 -->
<g id="node15" class="node">
<title>fail_comp2</title>
<path fill="white" stroke="black" d="M646,-346C646,-346 578,-346 578,-346 572,-346 566,-340 566,-334 566,-334 566,-322 566,-322 566,-316 572,-310 578,-310 578,-310 646,-310 646,-310 652,-310 658,-316 658,-322 658,-322 658,-334 658,-334 658,-340 652,-346 646,-346"/>
<text text-anchor="middle" x="612" y="-324.3" font-family="Helvetica,sans-Serif" font-size="14.00">fail_comp2</text>
</g>
<!-- rotate&#45;&gt;fail_comp2 -->
<g id="edge16" class="edge">
<title>rotate&#45;&gt;fail_comp2</title>
<path fill="none" stroke="black" stroke-width="1.2" d="M396.32,-328C434.99,-328 505.85,-328 555.55,-328"/>
<polygon fill="black" stroke="black" stroke-width="1.2" points="555.82,-331.5 565.82,-328 555.82,-324.5 555.82,-331.5"/>
</g>
<!-- vibration -->
<g id="node4" class="node">
<title>vibration</title>
<path fill="white" stroke="black" d="M770,-460C770,-460 716,-460 716,-460 710,-460 704,-454 704,-448 704,-448 704,-436 704,-436 704,-430 710,-424 716,-424 716,-424 770,-424 770,-424 776,-424 782,-430 782,-436 782,-436 782,-448 782,-448 782,-454 776,-460 770,-460"/>
<text text-anchor="middle" x="743" y="-438.3" font-family="Helvetica,sans-Serif" font-size="14.00">vibration</text>
</g>
<!-- pressure&#45;&gt;vibration -->
<g id="edge17" class="edge">
<title>pressure&#45;&gt;vibration</title>
<path fill="none" stroke="black" stroke-width="1.2" d="M650.66,-399.52C664.32,-405.87 679.95,-413.14 694.36,-419.84"/>
<polygon fill="black" stroke="black" stroke-width="1.2" points="693.08,-423.11 703.62,-424.15 696.03,-416.76 693.08,-423.11"/>
</g>
<!-- pressure&#45;&gt;err_error2 -->
<g id="edge18" class="edge">
<title>pressure&#45;&gt;err_error2</title>
<path fill="none" stroke="black" stroke-width="1.2" d="M660.69,-383.31C756.88,-385.94 973.43,-391.87 1072.84,-394.59"/>
<polygon fill="black" stroke="black" stroke-width="1.2" points="660.7,-379.8 650.61,-383.03 660.51,-386.8 660.7,-379.8"/>
<polygon fill="black" stroke="black" stroke-width="1.2" points="1072.85,-398.09 1082.94,-394.86 1073.04,-391.09 1072.85,-398.09"/>
</g>
<!-- mnt_comp2 -->
<g id="node11" class="node">
<title>mnt_comp2</title>
<path fill="white" stroke="black" d="M780,-216C780,-216 706,-216 706,-216 700,-216 694,-210 694,-204 694,-204 694,-192 694,-192 694,-186 700,-180 706,-180 706,-180 780,-180 780,-180 786,-180 792,-186 792,-192 792,-192 792,-204 792,-204 792,-210 786,-216 780,-216"/>
<text text-anchor="middle" x="743" y="-194.3" font-family="Helvetica,sans-Serif" font-size="14.00">mnt_comp2</text>
</g>
<!-- pressure&#45;&gt;mnt_comp2 -->
<g id="edge20" class="edge">
<title>pressure&#45;&gt;mnt_comp2</title>
<path fill="none" stroke="black" stroke-width="1.2" d="M655.66,-357.33C656.46,-356.57 657.25,-355.79 658,-355 694.32,-316.85 719.5,-259.94 732.28,-226.14"/>
<polygon fill="black" stroke="black" stroke-width="1.2" points="653.35,-354.7 647.88,-363.76 657.81,-360.09 653.35,-354.7"/>
<polygon fill="black" stroke="black" stroke-width="1.2" points="735.68,-227.03 735.85,-216.44 729.11,-224.62 735.68,-227.03"/>
</g>
<!-- vibration&#45;&gt;err_error1 -->
<g id="edge22" class="edge">
<title>vibration&#45;&gt;err_error1</title>
<path fill="none" stroke="black" stroke-width="1.2" d="M782.23,-450.44C850.94,-465.61 995.38,-497.49 1072.83,-514.59"/>
<polygon fill="black" stroke="black" stroke-width="1.2" points="1072.33,-518.07 1082.85,-516.8 1073.84,-511.23 1072.33,-518.07"/>
</g>
<!-- vibration&#45;&gt;err_error3 -->
<g id="edge23" class="edge">
<title>vibration&#45;&gt;err_error3</title>
<path fill="none" stroke="black" stroke-width="1.2" d="M782.01,-442C826.83,-442 901.54,-442 951.65,-442"/>
<polygon fill="black" stroke="black" stroke-width="1.2" points="951.95,-445.5 961.95,-442 951.95,-438.5 951.95,-445.5"/>
</g>
<!-- err_error3&#45;&gt;volt -->
<g id="edge1" class="edge">
<title>err_error3&#45;&gt;volt</title>
<path fill="none" stroke="black" stroke-width="1.2" d="M1003.43,-423.72C1002.36,-372.06 993.29,-222.43 926,-125 870.24,-44.25 842.13,0 744,0 366.5,0 366.5,0 366.5,0 294.04,0 265.98,-1.8 211,-49 181.02,-74.74 164.15,-118.4 155.8,-146.97"/>
<polygon fill="black" stroke="black" stroke-width="1.2" points="152.39,-146.18 153.11,-156.75 159.14,-148.04 152.39,-146.18"/>
</g>
<!-- err_error3&#45;&gt;err_error1 -->
<g id="edge26" class="edge">
<title>err_error3&#45;&gt;err_error1</title>
<path fill="none" stroke="black" stroke-width="1.2" d="M1031.03,-460.02C1048.32,-472.23 1071.37,-488.5 1090.26,-501.83"/>
<polygon fill="black" stroke="black" stroke-width="1.2" points="1088.42,-504.81 1098.6,-507.72 1092.45,-499.09 1088.42,-504.81"/>
</g>
<!-- err_error3&#45;&gt;err_error2 -->
<g id="edge27" class="edge">
<title>err_error3&#45;&gt;err_error2</title>
<path fill="none" stroke="black" stroke-width="1.2" d="M1047.12,-425.91C1055.59,-422.64 1064.58,-419.16 1073.34,-415.78"/>
<polygon fill="black" stroke="black" stroke-width="1.2" points="1074.64,-419.03 1082.7,-412.16 1072.11,-412.5 1074.64,-419.03"/>
</g>
<!-- err_error4 -->
<g id="node8" class="node">
<title>err_error4</title>
<path fill="white" stroke="black" d="M73,-346C73,-346 12,-346 12,-346 6,-346 0,-340 0,-334 0,-334 0,-322 0,-322 0,-316 6,-310 12,-310 12,-310 73,-310 73,-310 79,-310 85,-316 85,-322 85,-322 85,-334 85,-334 85,-340 79,-346 73,-346"/>
<text text-anchor="middle" x="42.5" y="-324.3" font-family="Helvetica,sans-Serif" font-size="14.00">err_error4</text>
</g>
<!-- err_error4&#45;&gt;volt -->
<g id="edge2" class="edge">
<title>err_error4&#45;&gt;volt</title>
<path fill="none" stroke="black" stroke-width="1.2" d="M55.78,-309.85C73.91,-283.05 107.95,-232.72 128.93,-201.71"/>
<polygon fill="black" stroke="black" stroke-width="1.2" points="132.03,-203.37 134.74,-193.13 126.23,-199.45 132.03,-203.37"/>
</g>
<!-- err_error4&#45;&gt;rotate -->
<g id="edge11" class="edge">
<title>err_error4&#45;&gt;rotate</title>
<path fill="none" stroke="black" stroke-width="1.2" d="M85.07,-328C148.23,-328 267.48,-328 328.48,-328"/>
<polygon fill="black" stroke="black" stroke-width="1.2" points="328.81,-331.5 338.81,-328 328.81,-324.5 328.81,-331.5"/>
</g>
<!-- err_error4&#45;&gt;vibration -->
<g id="edge24" class="edge">
<title>err_error4&#45;&gt;vibration</title>
<path fill="none" stroke="black" stroke-width="1.2" d="M49.67,-346.13C69.77,-401.39 138.84,-564 256,-564 256,-564 256,-564 368.5,-564 494.89,-564 633.98,-500.09 701.18,-464.78"/>
<polygon fill="black" stroke="black" stroke-width="1.2" points="702.99,-467.79 710.18,-460 699.7,-461.61 702.99,-467.79"/>
</g>
<!-- mnt_comp1&#45;&gt;pressure -->
<g id="edge19" class="edge">
<title>mnt_comp1&#45;&gt;pressure</title>
<path fill="none" stroke="black" stroke-width="1.2" d="M488.15,-216.44C499.41,-247.97 525.93,-312.91 566,-355 566.75,-355.79 567.54,-356.57 568.34,-357.33"/>
<polygon fill="black" stroke="black" stroke-width="1.2" points="566.19,-360.09 576.12,-363.76 570.65,-354.7 566.19,-360.09"/>
</g>
<!-- mnt_comp3 -->
<g id="node12" class="node">
<title>mnt_comp3</title>
<path fill="white" stroke="black" d="M914,-338C914,-338 840,-338 840,-338 834,-338 828,-332 828,-326 828,-326 828,-314 828,-314 828,-308 834,-302 840,-302 840,-302 914,-302 914,-302 920,-302 926,-308 926,-314 926,-314 926,-326 926,-326 926,-332 920,-338 914,-338"/>
<text text-anchor="middle" x="877" y="-316.3" font-family="Helvetica,sans-Serif" font-size="14.00">mnt_comp3</text>
</g>
<!-- mnt_comp1&#45;&gt;mnt_comp3 -->
<g id="edge29" class="edge">
<title>mnt_comp1&#45;&gt;mnt_comp3</title>
<path fill="none" stroke="black" stroke-width="1.2" d="M530.31,-212.96C603.03,-235.48 740.36,-278 818.25,-302.12"/>
<polygon fill="black" stroke="black" stroke-width="1.2" points="817.32,-305.49 827.91,-305.11 819.39,-298.81 817.32,-305.49"/>
</g>
<!-- mnt_comp1&#45;&gt;mnt_comp4 -->
<g id="edge30" class="edge">
<title>mnt_comp1&#45;&gt;mnt_comp4</title>
<path fill="none" stroke="black" stroke-width="1.2" d="M530.38,-191.52C573.32,-185.85 637.79,-177.51 694,-171 735.22,-166.22 781.75,-161.38 817.45,-157.77"/>
<polygon fill="black" stroke="black" stroke-width="1.2" points="818.09,-161.23 827.68,-156.74 817.38,-154.26 818.09,-161.23"/>
</g>
<!-- mnt_comp2&#45;&gt;volt -->
<g id="edge3" class="edge">
<title>mnt_comp2&#45;&gt;volt</title>
<path fill="none" stroke="black" stroke-width="1.2" d="M693.57,-184.2C641.69,-170.65 556.72,-152 482,-152 366.5,-152 366.5,-152 366.5,-152 302.31,-152 228.04,-162.03 185.01,-168.84"/>
<polygon fill="black" stroke="black" stroke-width="1.2" points="184.33,-165.41 175.02,-170.46 185.45,-172.32 184.33,-165.41"/>
</g>
<!-- mnt_comp2&#45;&gt;rotate -->
<g id="edge14" class="edge">
<title>mnt_comp2&#45;&gt;rotate</title>
<path fill="none" stroke="black" stroke-width="1.2" d="M693.97,-214.72C618.54,-240.97 473.89,-291.32 405.75,-315.04"/>
<polygon fill="black" stroke="black" stroke-width="1.2" points="404.56,-311.74 396.27,-318.34 406.86,-318.35 404.56,-311.74"/>
</g>
<!-- mnt_comp2&#45;&gt;mnt_comp3 -->
<g id="edge32" class="edge">
<title>mnt_comp2&#45;&gt;mnt_comp3</title>
<path fill="none" stroke="black" stroke-width="1.2" d="M763.48,-216C786.09,-236.91 823.54,-271.52 848.97,-295.02"/>
<polygon fill="black" stroke="black" stroke-width="1.2" points="846.72,-297.71 856.44,-301.92 851.47,-292.57 846.72,-297.71"/>
</g>
<!-- mnt_comp2&#45;&gt;mnt_comp4 -->
<g id="edge33" class="edge">
<title>mnt_comp2&#45;&gt;mnt_comp4</title>
<path fill="none" stroke="black" stroke-width="1.2" d="M792.03,-181.26C800.49,-178.31 809.38,-175.22 818.08,-172.18"/>
<polygon fill="black" stroke="black" stroke-width="1.2" points="819.49,-175.4 827.79,-168.8 817.19,-168.79 819.49,-175.4"/>
</g>
<!-- mnt_comp3&#45;&gt;pressure -->
<g id="edge21" class="edge">
<title>mnt_comp3&#45;&gt;pressure</title>
<path fill="none" stroke="black" stroke-width="1.2" d="M827.67,-331.39C780.13,-342.6 707.99,-359.61 660.68,-370.76"/>
<polygon fill="black" stroke="black" stroke-width="1.2" points="659.61,-367.42 650.68,-373.12 661.22,-374.23 659.61,-367.42"/>
</g>
<!-- mnt_comp3&#45;&gt;err_error3 -->
<g id="edge28" class="edge">
<title>mnt_comp3&#45;&gt;err_error3</title>
<path fill="none" stroke="black" stroke-width="1.2" d="M896.52,-338C917.93,-358.82 953.32,-393.22 977.49,-416.71"/>
<polygon fill="black" stroke="black" stroke-width="1.2" points="975.3,-419.46 984.91,-423.92 980.18,-414.44 975.3,-419.46"/>
</g>
<!-- fail_comp1&#45;&gt;rotate -->
<g id="edge15" class="edge">
<title>fail_comp1&#45;&gt;rotate</title>
<path fill="none" stroke="black" stroke-width="1.2" d="M273.09,-216.08C291.69,-238.36 323.44,-276.4 344.69,-301.87"/>
<polygon fill="black" stroke="black" stroke-width="1.2" points="342.1,-304.22 351.19,-309.66 347.47,-299.74 342.1,-304.22"/>
</g>
<!-- fail_comp1&#45;&gt;mnt_comp1 -->
<g id="edge31" class="edge">
<title>fail_comp1&#45;&gt;mnt_comp1</title>
<path fill="none" stroke="black" stroke-width="1.2" d="M303.19,-198C337.38,-198 384.6,-198 421.64,-198"/>
<polygon fill="black" stroke="black" stroke-width="1.2" points="421.8,-201.5 431.8,-198 421.8,-194.5 421.8,-201.5"/>
</g>
<!-- fail_comp1&#45;&gt;mnt_comp4 -->
<g id="edge36" class="edge">
<title>fail_comp1&#45;&gt;mnt_comp4</title>
<path fill="none" stroke="black" stroke-width="1.2" d="M285.81,-179.98C326.65,-155.3 406.03,-114 480,-114 480,-114 480,-114 613,-114 684.08,-114 764.86,-127.76 817.92,-138.72"/>
<polygon fill="black" stroke="black" stroke-width="1.2" points="817.32,-142.17 827.83,-140.8 818.76,-135.32 817.32,-142.17"/>
</g>
<!-- fail_comp2&#45;&gt;volt -->
<g id="edge6" class="edge">
<title>fail_comp2&#45;&gt;volt</title>
<path fill="none" stroke="black" stroke-width="1.2" d="M565.91,-322.74C489.46,-312.47 331,-285.25 211,-225 198,-218.47 185.22,-208.87 174.67,-199.82"/>
<polygon fill="black" stroke="black" stroke-width="1.2" points="176.87,-197.09 167.07,-193.06 172.22,-202.32 176.87,-197.09"/>
</g>
<!-- fail_comp2&#45;&gt;vibration -->
<g id="edge25" class="edge">
<title>fail_comp2&#45;&gt;vibration</title>
<path fill="none" stroke="black" stroke-width="1.2" d="M645.64,-346.18C649.92,-348.97 654.15,-351.94 658,-355 681.09,-373.36 704.13,-397.76 720.23,-416.06"/>
<polygon fill="black" stroke="black" stroke-width="1.2" points="717.91,-418.73 727.11,-423.99 723.2,-414.14 717.91,-418.73"/>
</g>
<!-- fail_comp2&#45;&gt;mnt_comp2 -->
<g id="edge34" class="edge">
<title>fail_comp2&#45;&gt;mnt_comp2</title>
<path fill="none" stroke="black" stroke-width="1.2" d="M625.64,-309.66C640.5,-288.87 666.63,-254.69 694,-230 696.97,-227.32 700.18,-224.7 703.48,-222.18"/>
<polygon fill="black" stroke="black" stroke-width="1.2" points="705.75,-224.86 711.81,-216.17 701.65,-219.19 705.75,-224.86"/>
</g>
<!-- fail_comp2&#45;&gt;mnt_comp3 -->
<g id="edge35" class="edge">
<title>fail_comp2&#45;&gt;mnt_comp3</title>
<path fill="none" stroke="black" stroke-width="1.2" d="M658.21,-326.62C702.27,-325.28 769.46,-323.24 817.56,-321.78"/>
<polygon fill="black" stroke="black" stroke-width="1.2" points="817.93,-325.27 827.82,-321.47 817.72,-318.27 817.93,-325.27"/>
</g>
<!-- fail_comp2&#45;&gt;mnt_comp4 -->
<g id="edge37" class="edge">
<title>fail_comp2&#45;&gt;mnt_comp4</title>
<path fill="none" stroke="black" stroke-width="1.2" d="M648.88,-309.99C685.94,-290.79 744.83,-258.59 792,-225 812.42,-210.46 833.72,-191.9 849.77,-177.14"/>
<polygon fill="black" stroke="black" stroke-width="1.2" points="852.26,-179.6 857.19,-170.23 847.49,-174.48 852.26,-179.6"/>
</g>
</g>
</svg>
