<?xml version="1.0" encoding="UTF-8" standalone="no"?>
<!DOCTYPE svg PUBLIC "-//W3C//DTD SVG 1.1//EN"
 "http://www.w3.org/Graphics/SVG/1.1/DTD/svg11.dtd">
<!-- Generated by graphviz version 2.50.0 (0)
 -->
<!-- Title: G Pages: 1 -->
<svg width="1303pt" height="607pt"
 viewBox="0.00 0.00 1303.00 607.41" xmlns="http://www.w3.org/2000/svg" xmlns:xlink="http://www.w3.org/1999/xlink">
<g id="graph0" class="graph" transform="scale(1 1) rotate(0) translate(4 603.41)">
<title>G</title>
<polygon fill="white" stroke="transparent" points="-4,4 -4,-603.41 1299,-603.41 1299,4 -4,4"/>
<text text-anchor="middle" x="647.5" y="-582.61" font-family="Times,serif" font-size="16.00">model=model1/nbcb_w_mixed.json [machine 42]</text>
<!-- volt -->
<g id="node1" class="node">
<title>volt</title>
<path fill="white" stroke="black" d="M42,-222.31C42,-222.31 12,-222.31 12,-222.31 6,-222.31 0,-216.31 0,-210.31 0,-210.31 0,-198.31 0,-198.31 0,-192.31 6,-186.31 12,-186.31 12,-186.31 42,-186.31 42,-186.31 48,-186.31 54,-192.31 54,-198.31 54,-198.31 54,-210.31 54,-210.31 54,-216.31 48,-222.31 42,-222.31"/>
<text text-anchor="middle" x="27" y="-200.61" font-family="Helvetica,sans-Serif" font-size="14.00">volt</text>
</g>
<!-- vibration -->
<g id="node4" class="node">
<title>vibration</title>
<path fill="white" stroke="black" d="M398,-324.31C398,-324.31 344,-324.31 344,-324.31 338,-324.31 332,-318.31 332,-312.31 332,-312.31 332,-300.31 332,-300.31 332,-294.31 338,-288.31 344,-288.31 344,-288.31 398,-288.31 398,-288.31 404,-288.31 410,-294.31 410,-300.31 410,-300.31 410,-312.31 410,-312.31 410,-318.31 404,-324.31 398,-324.31"/>
<text text-anchor="middle" x="371" y="-302.61" font-family="Helvetica,sans-Serif" font-size="14.00">vibration</text>
</g>
<!-- volt&#45;&gt;vibration -->
<g id="edge2" class="edge">
<title>volt&#45;&gt;vibration</title>
<path fill="none" stroke="black" stroke-width="1.2" d="M54.26,-215.45C89.45,-230.05 154.05,-255.74 211,-272.31 247.69,-282.99 290.03,-291.88 321.79,-297.89"/>
<polygon fill="black" stroke="black" stroke-width="1.2" points="321.23,-301.35 331.71,-299.74 322.52,-294.46 321.23,-301.35"/>
</g>
<!-- err_error1 -->
<g id="node5" class="node">
<title>err_error1</title>
<path fill="white" stroke="black" d="M163,-199.31C163,-199.31 102,-199.31 102,-199.31 96,-199.31 90,-193.31 90,-187.31 90,-187.31 90,-175.31 90,-175.31 90,-169.31 96,-163.31 102,-163.31 102,-163.31 163,-163.31 163,-163.31 169,-163.31 175,-169.31 175,-175.31 175,-175.31 175,-187.31 175,-187.31 175,-193.31 169,-199.31 163,-199.31"/>
<text text-anchor="middle" x="132.5" y="-177.61" font-family="Helvetica,sans-Serif" font-size="14.00">err_error1</text>
</g>
<!-- volt&#45;&gt;err_error1 -->
<g id="edge3" class="edge">
<title>volt&#45;&gt;err_error1</title>
<path fill="none" stroke="black" stroke-width="1.2" d="M54.12,-198.51C61.95,-196.77 70.83,-194.79 79.71,-192.82"/>
<polygon fill="black" stroke="black" stroke-width="1.2" points="80.68,-196.19 89.68,-190.6 79.16,-189.36 80.68,-196.19"/>
</g>
<!-- err_error2 -->
<g id="node6" class="node">
<title>err_error2</title>
<path fill="white" stroke="black" d="M1011.5,-120.31C1011.5,-120.31 950.5,-120.31 950.5,-120.31 944.5,-120.31 938.5,-114.31 938.5,-108.31 938.5,-108.31 938.5,-96.31 938.5,-96.31 938.5,-90.31 944.5,-84.31 950.5,-84.31 950.5,-84.31 1011.5,-84.31 1011.5,-84.31 1017.5,-84.31 1023.5,-90.31 1023.5,-96.31 1023.5,-96.31 1023.5,-108.31 1023.5,-108.31 1023.5,-114.31 1017.5,-120.31 1011.5,-120.31"/>
<text text-anchor="middle" x="981" y="-98.61" font-family="Helvetica,sans-Serif" font-size="14.00">err_error2</text>
</g>
<!-- volt&#45;&gt;err_error2 -->
<g id="edge4" class="edge">
<title>volt&#45;&gt;err_error2</title>
<path fill="none" stroke="black" stroke-width="1.2" d="M31.6,-185.86C38.1,-157.7 54.55,-104.33 90,-76.31 148.03,-30.44 178.53,-40.31 252.5,-40.31 252.5,-40.31 252.5,-40.31 758,-40.31 819.33,-40.31 886.79,-62.53 931.06,-80.37"/>
<polygon fill="black" stroke="black" stroke-width="1.2" points="929.84,-83.65 940.42,-84.21 932.5,-77.17 929.84,-83.65"/>
</g>
<!-- fail_comp1 -->
<g id="node13" class="node">
<title>fail_comp1</title>
<path fill="white" stroke="black" d="M1015,-500.31C1015,-500.31 947,-500.31 947,-500.31 941,-500.31 935,-494.31 935,-488.31 935,-488.31 935,-476.31 935,-476.31 935,-470.31 941,-464.31 947,-464.31 947,-464.31 1015,-464.31 1015,-464.31 1021,-464.31 1027,-470.31 1027,-476.31 1027,-476.31 1027,-488.31 1027,-488.31 1027,-494.31 1021,-500.31 1015,-500.31"/>
<text text-anchor="middle" x="981" y="-478.61" font-family="Helvetica,sans-Serif" font-size="14.00">fail_comp1</text>
</g>
<!-- volt&#45;&gt;fail_comp1 -->
<g id="edge8" class="edge">
<title>volt&#45;&gt;fail_comp1</title>
<path fill="none" stroke="black" stroke-width="1.2" d="M29.09,-232.64C32.54,-306.02 45.71,-499.54 90,-542.31 142.51,-593.03 179.49,-566.31 252.5,-566.31 252.5,-566.31 252.5,-566.31 758,-566.31 827.06,-566.31 900.83,-530.32 943.56,-505.45"/>
<polygon fill="black" stroke="black" stroke-width="1.2" points="32.58,-232.16 28.64,-222.32 25.58,-232.47 32.58,-232.16"/>
<polygon fill="black" stroke="black" stroke-width="1.2" points="945.38,-508.44 952.19,-500.33 941.8,-502.42 945.38,-508.44"/>
</g>
<!-- fail_comp2 -->
<g id="node14" class="node">
<title>fail_comp2</title>
<path fill="white" stroke="black" d="M1015,-174.31C1015,-174.31 947,-174.31 947,-174.31 941,-174.31 935,-168.31 935,-162.31 935,-162.31 935,-150.31 935,-150.31 935,-144.31 941,-138.31 947,-138.31 947,-138.31 1015,-138.31 1015,-138.31 1021,-138.31 1027,-144.31 1027,-150.31 1027,-150.31 1027,-162.31 1027,-162.31 1027,-168.31 1021,-174.31 1015,-174.31"/>
<text text-anchor="middle" x="981" y="-152.61" font-family="Helvetica,sans-Serif" font-size="14.00">fail_comp2</text>
</g>
<!-- volt&#45;&gt;fail_comp2 -->
<g id="edge9" class="edge">
<title>volt&#45;&gt;fail_comp2</title>
<path fill="none" stroke="black" stroke-width="1.2" d="M36.14,-186C45.99,-166 64.48,-134.53 90,-117.31 151.57,-75.77 178.23,-78.31 252.5,-78.31 252.5,-78.31 252.5,-78.31 758,-78.31 824.98,-78.31 897.23,-110.31 940.53,-133.32"/>
<polygon fill="black" stroke="black" stroke-width="1.2" points="939.12,-136.53 949.57,-138.22 942.45,-130.38 939.12,-136.53"/>
</g>
<!-- fail_comp3 -->
<g id="node15" class="node">
<title>fail_comp3</title>
<path fill="white" stroke="black" d="M526,-370.31C526,-370.31 458,-370.31 458,-370.31 452,-370.31 446,-364.31 446,-358.31 446,-358.31 446,-346.31 446,-346.31 446,-340.31 452,-334.31 458,-334.31 458,-334.31 526,-334.31 526,-334.31 532,-334.31 538,-340.31 538,-346.31 538,-346.31 538,-358.31 538,-358.31 538,-364.31 532,-370.31 526,-370.31"/>
<text text-anchor="middle" x="492" y="-348.61" font-family="Helvetica,sans-Serif" font-size="14.00">fail_comp3</text>
</g>
<!-- volt&#45;&gt;fail_comp3 -->
<g id="edge10" class="edge">
<title>volt&#45;&gt;fail_comp3</title>
<path fill="none" stroke="black" stroke-width="1.2" d="M51.72,-229.72C62.55,-240.11 76.06,-251.49 90,-259.31 202.14,-322.22 354.73,-342.64 435.52,-349.22"/>
<polygon fill="black" stroke="black" stroke-width="1.2" points="53.9,-226.96 44.34,-222.4 48.97,-231.93 53.9,-226.96"/>
<polygon fill="black" stroke="black" stroke-width="1.2" points="435.71,-352.74 445.95,-350.02 436.25,-345.77 435.71,-352.74"/>
</g>
<!-- rotate -->
<g id="node2" class="node">
<title>rotate</title>
<path fill="white" stroke="black" d="M887,-218.31C887,-218.31 854,-218.31 854,-218.31 848,-218.31 842,-212.31 842,-206.31 842,-206.31 842,-194.31 842,-194.31 842,-188.31 848,-182.31 854,-182.31 854,-182.31 887,-182.31 887,-182.31 893,-182.31 899,-188.31 899,-194.31 899,-194.31 899,-206.31 899,-206.31 899,-212.31 893,-218.31 887,-218.31"/>
<text text-anchor="middle" x="870.5" y="-196.61" font-family="Helvetica,sans-Serif" font-size="14.00">rotate</text>
</g>
<!-- rotate&#45;&gt;volt -->
<g id="edge1" class="edge">
<title>rotate&#45;&gt;volt</title>
<path fill="none" stroke="black" stroke-width="1.2" d="M847.19,-182.17C835.53,-173.5 820.66,-163.66 806,-157.31 729.9,-124.38 706.92,-116.31 624,-116.31 252.5,-116.31 252.5,-116.31 252.5,-116.31 178.33,-116.31 156.65,-121.77 90,-154.31 76.93,-160.69 64.13,-170.27 53.59,-179.34"/>
<polygon fill="black" stroke="black" stroke-width="1.2" points="51.13,-176.85 46,-186.12 55.79,-182.07 51.13,-176.85"/>
</g>
<!-- rotate&#45;&gt;err_error2 -->
<g id="edge13" class="edge">
<title>rotate&#45;&gt;err_error2</title>
<path fill="none" stroke="black" stroke-width="1.2" d="M885.07,-182.31C897.12,-167.06 915.75,-145.22 935,-129.31 936.3,-128.23 937.65,-127.17 939.04,-126.12"/>
<polygon fill="black" stroke="black" stroke-width="1.2" points="941.08,-128.97 947.25,-120.36 937.05,-123.24 941.08,-128.97"/>
</g>
<!-- err_error3 -->
<g id="node7" class="node">
<title>err_error3</title>
<path fill="white" stroke="black" d="M1142.5,-170.31C1142.5,-170.31 1081.5,-170.31 1081.5,-170.31 1075.5,-170.31 1069.5,-164.31 1069.5,-158.31 1069.5,-158.31 1069.5,-146.31 1069.5,-146.31 1069.5,-140.31 1075.5,-134.31 1081.5,-134.31 1081.5,-134.31 1142.5,-134.31 1142.5,-134.31 1148.5,-134.31 1154.5,-140.31 1154.5,-146.31 1154.5,-146.31 1154.5,-158.31 1154.5,-158.31 1154.5,-164.31 1148.5,-170.31 1142.5,-170.31"/>
<text text-anchor="middle" x="1112" y="-148.61" font-family="Helvetica,sans-Serif" font-size="14.00">err_error3</text>
</g>
<!-- rotate&#45;&gt;err_error3 -->
<g id="edge14" class="edge">
<title>rotate&#45;&gt;err_error3</title>
<path fill="none" stroke="black" stroke-width="1.2" d="M909.27,-198.77C941.03,-196.85 987.46,-192.62 1027,-183.31 1037.77,-180.77 1049.05,-177.25 1059.72,-173.49"/>
<polygon fill="black" stroke="black" stroke-width="1.2" points="908.88,-195.28 899.09,-199.33 909.27,-202.27 908.88,-195.28"/>
<polygon fill="black" stroke="black" stroke-width="1.2" points="1061.13,-176.7 1069.32,-169.98 1058.72,-170.12 1061.13,-176.7"/>
</g>
<!-- mnt_comp3 -->
<g id="node11" class="node">
<title>mnt_comp3</title>
<path fill="white" stroke="black" d="M660,-324.31C660,-324.31 586,-324.31 586,-324.31 580,-324.31 574,-318.31 574,-312.31 574,-312.31 574,-300.31 574,-300.31 574,-294.31 580,-288.31 586,-288.31 586,-288.31 660,-288.31 660,-288.31 666,-288.31 672,-294.31 672,-300.31 672,-300.31 672,-312.31 672,-312.31 672,-318.31 666,-324.31 660,-324.31"/>
<text text-anchor="middle" x="623" y="-302.61" font-family="Helvetica,sans-Serif" font-size="14.00">mnt_comp3</text>
</g>
<!-- rotate&#45;&gt;mnt_comp3 -->
<g id="edge17" class="edge">
<title>rotate&#45;&gt;mnt_comp3</title>
<path fill="none" stroke="black" stroke-width="1.2" d="M838.29,-224.5C828.33,-231.5 817.02,-238.75 806,-244.31 766.36,-264.3 718.79,-280.26 682.22,-290.97"/>
<polygon fill="black" stroke="black" stroke-width="1.2" points="840.6,-227.15 846.65,-218.45 836.5,-221.47 840.6,-227.15"/>
<polygon fill="black" stroke="black" stroke-width="1.2" points="680.86,-287.72 672.22,-293.85 682.79,-294.45 680.86,-287.72"/>
</g>
<!-- rotate&#45;&gt;fail_comp1 -->
<g id="edge19" class="edge">
<title>rotate&#45;&gt;fail_comp1</title>
<path fill="none" stroke="black" stroke-width="1.2" d="M878.45,-218.38C896.9,-266.32 947.16,-396.97 969.3,-454.49"/>
<polygon fill="black" stroke="black" stroke-width="1.2" points="966.11,-455.95 972.97,-464.03 972.64,-453.44 966.11,-455.95"/>
</g>
<!-- rotate&#45;&gt;fail_comp2 -->
<g id="edge20" class="edge">
<title>rotate&#45;&gt;fail_comp2</title>
<path fill="none" stroke="black" stroke-width="1.2" d="M899.16,-189.09C907.45,-185.73 916.83,-181.93 926.2,-178.13"/>
<polygon fill="black" stroke="black" stroke-width="1.2" points="927.57,-181.35 935.53,-174.35 924.94,-174.86 927.57,-181.35"/>
</g>
<!-- pressure -->
<g id="node3" class="node">
<title>pressure</title>
<path fill="white" stroke="black" d="M397.5,-263.31C397.5,-263.31 344.5,-263.31 344.5,-263.31 338.5,-263.31 332.5,-257.31 332.5,-251.31 332.5,-251.31 332.5,-239.31 332.5,-239.31 332.5,-233.31 338.5,-227.31 344.5,-227.31 344.5,-227.31 397.5,-227.31 397.5,-227.31 403.5,-227.31 409.5,-233.31 409.5,-239.31 409.5,-239.31 409.5,-251.31 409.5,-251.31 409.5,-257.31 403.5,-263.31 397.5,-263.31"/>
<text text-anchor="middle" x="371" y="-241.61" font-family="Helvetica,sans-Serif" font-size="14.00">pressure</text>
</g>
<!-- pressure&#45;&gt;rotate -->
<g id="edge11" class="edge">
<title>pressure&#45;&gt;rotate</title>
<path fill="none" stroke="black" stroke-width="1.2" d="M409.74,-241.98C485.08,-235.31 659.48,-219.82 806,-206.31 814.39,-205.54 823.4,-204.69 831.92,-203.89"/>
<polygon fill="black" stroke="black" stroke-width="1.2" points="832.37,-207.36 842,-202.94 831.71,-200.39 832.37,-207.36"/>
</g>
<!-- pressure&#45;&gt;mnt_comp3 -->
<g id="edge22" class="edge">
<title>pressure&#45;&gt;mnt_comp3</title>
<path fill="none" stroke="black" stroke-width="1.2" d="M409.7,-254.51C450.58,-264.48 516.34,-280.53 563.84,-292.12"/>
<polygon fill="black" stroke="black" stroke-width="1.2" points="563.14,-295.55 573.69,-294.52 564.8,-288.75 563.14,-295.55"/>
</g>
<!-- pressure&#45;&gt;fail_comp3 -->
<g id="edge23" class="edge">
<title>pressure&#45;&gt;fail_comp3</title>
<path fill="none" stroke="black" stroke-width="1.2" d="M392.52,-263.65C398.19,-268.72 404.34,-274.22 410,-279.31 427.75,-295.25 447.66,-313.19 463.29,-327.29"/>
<polygon fill="black" stroke="black" stroke-width="1.2" points="461.28,-330.19 471.05,-334.29 465.97,-324.99 461.28,-330.19"/>
</g>
<!-- vibration&#45;&gt;err_error3 -->
<g id="edge25" class="edge">
<title>vibration&#45;&gt;err_error3</title>
<path fill="none" stroke="black" stroke-width="1.2" d="M384.66,-324.51C397.81,-341.83 420.08,-367.01 446,-379.31 517.08,-413.04 543.32,-398.31 622,-398.31 622,-398.31 622,-398.31 871.5,-398.31 992.3,-398.31 1071.93,-244.15 1099.87,-179.9"/>
<polygon fill="black" stroke="black" stroke-width="1.2" points="1103.22,-180.97 1103.91,-170.4 1096.78,-178.23 1103.22,-180.97"/>
</g>
<!-- vibration&#45;&gt;mnt_comp3 -->
<g id="edge27" class="edge">
<title>vibration&#45;&gt;mnt_comp3</title>
<path fill="none" stroke="black" stroke-width="1.2" d="M410.24,-306.31C451.15,-306.31 516.51,-306.31 563.81,-306.31"/>
<polygon fill="black" stroke="black" stroke-width="1.2" points="563.91,-309.81 573.91,-306.31 563.91,-302.81 563.91,-309.81"/>
</g>
<!-- vibration&#45;&gt;fail_comp1 -->
<g id="edge28" class="edge">
<title>vibration&#45;&gt;fail_comp1</title>
<path fill="none" stroke="black" stroke-width="1.2" d="M375.71,-324.33C383.15,-355.51 402.98,-419.14 446,-450.31 510.14,-496.78 542.79,-478.31 622,-478.31 622,-478.31 622,-478.31 758,-478.31 814.86,-478.31 879.9,-479.64 924.82,-480.76"/>
<polygon fill="black" stroke="black" stroke-width="1.2" points="924.85,-484.27 934.93,-481.02 925.03,-477.27 924.85,-484.27"/>
</g>
<!-- vibration&#45;&gt;fail_comp3 -->
<g id="edge29" class="edge">
<title>vibration&#45;&gt;fail_comp3</title>
<path fill="none" stroke="black" stroke-width="1.2" d="M419.78,-324.78C425.13,-326.85 430.61,-328.96 436.03,-331.06"/>
<polygon fill="black" stroke="black" stroke-width="1.2" points="420.9,-321.46 410.31,-321.12 418.37,-327.99 420.9,-321.46"/>
<polygon fill="black" stroke="black" stroke-width="1.2" points="435.12,-334.46 445.71,-334.8 437.64,-327.93 435.12,-334.46"/>
</g>
<!-- err_error1&#45;&gt;rotate -->
<g id="edge12" class="edge">
<title>err_error1&#45;&gt;rotate</title>
<path fill="none" stroke="black" stroke-width="1.2" d="M175.2,-173.65C222.32,-165.66 301.4,-154.31 370,-154.31 370,-154.31 370,-154.31 624,-154.31 698.74,-154.31 784.12,-175.16 831.94,-188.79"/>
<polygon fill="black" stroke="black" stroke-width="1.2" points="831.26,-192.23 841.84,-191.66 833.21,-185.51 831.26,-192.23"/>
</g>
<!-- err_error1&#45;&gt;vibration -->
<g id="edge24" class="edge">
<title>err_error1&#45;&gt;vibration</title>
<path fill="none" stroke="black" stroke-width="1.2" d="M155.29,-199.45C170.33,-211.43 191.13,-226.96 211,-238.31 246.79,-258.76 289.92,-276.84 322.23,-289.2"/>
<polygon fill="black" stroke="black" stroke-width="1.2" points="321.3,-292.59 331.89,-292.85 323.77,-286.04 321.3,-292.59"/>
</g>
<!-- err_error4 -->
<g id="node8" class="node">
<title>err_error4</title>
<path fill="white" stroke="black" d="M284,-229.31C284,-229.31 223,-229.31 223,-229.31 217,-229.31 211,-223.31 211,-217.31 211,-217.31 211,-205.31 211,-205.31 211,-199.31 217,-193.31 223,-193.31 223,-193.31 284,-193.31 284,-193.31 290,-193.31 296,-199.31 296,-205.31 296,-205.31 296,-217.31 296,-217.31 296,-223.31 290,-229.31 284,-229.31"/>
<text text-anchor="middle" x="253.5" y="-207.61" font-family="Helvetica,sans-Serif" font-size="14.00">err_error4</text>
</g>
<!-- err_error1&#45;&gt;err_error4 -->
<g id="edge30" class="edge">
<title>err_error1&#45;&gt;err_error4</title>
<path fill="none" stroke="black" stroke-width="1.2" d="M175.12,-191.8C183.41,-193.89 192.2,-196.11 200.78,-198.27"/>
<polygon fill="black" stroke="black" stroke-width="1.2" points="200.15,-201.72 210.7,-200.77 201.86,-194.94 200.15,-201.72"/>
</g>
<!-- err_error2&#45;&gt;err_error3 -->
<g id="edge31" class="edge">
<title>err_error2&#45;&gt;err_error3</title>
<path fill="none" stroke="black" stroke-width="1.2" d="M1023.53,-118.41C1035.03,-122.87 1047.66,-127.76 1059.66,-132.41"/>
<polygon fill="black" stroke="black" stroke-width="1.2" points="1058.52,-135.72 1069.11,-136.07 1061.05,-129.2 1058.52,-135.72"/>
</g>
<!-- err_error3&#45;&gt;volt -->
<g id="edge5" class="edge">
<title>err_error3&#45;&gt;volt</title>
<path fill="none" stroke="black" stroke-width="1.2" d="M1095.98,-134.22C1061.06,-94.32 969.87,-2.31 871.5,-2.31 252.5,-2.31 252.5,-2.31 252.5,-2.31 178.71,-2.31 145.87,11.88 90,-36.31 48.54,-72.07 34.78,-138.14 30.23,-175.89"/>
<polygon fill="black" stroke="black" stroke-width="1.2" points="26.71,-175.87 29.14,-186.19 33.68,-176.61 26.71,-175.87"/>
</g>
<!-- err_error4&#45;&gt;volt -->
<g id="edge6" class="edge">
<title>err_error4&#45;&gt;volt</title>
<path fill="none" stroke="black" stroke-width="1.2" d="M210.74,-211.07C177.9,-210.75 131.02,-210.01 90,-208.31 81.65,-207.96 72.67,-207.46 64.21,-206.93"/>
<polygon fill="black" stroke="black" stroke-width="1.2" points="64.44,-203.44 54.23,-206.27 63.98,-210.42 64.44,-203.44"/>
</g>
<!-- err_error4&#45;&gt;rotate -->
<g id="edge15" class="edge">
<title>err_error4&#45;&gt;rotate</title>
<path fill="none" stroke="black" stroke-width="1.2" d="M296.29,-205.92C343.48,-200.3 422.62,-192.31 491,-192.31 491,-192.31 491,-192.31 624,-192.31 697.54,-192.31 783.41,-195.94 831.63,-198.31"/>
<polygon fill="black" stroke="black" stroke-width="1.2" points="831.73,-201.82 841.9,-198.82 832.08,-194.83 831.73,-201.82"/>
</g>
<!-- err_error4&#45;&gt;pressure -->
<g id="edge21" class="edge">
<title>err_error4&#45;&gt;pressure</title>
<path fill="none" stroke="black" stroke-width="1.2" d="M296.2,-223.59C304.74,-226.1 313.8,-228.77 322.53,-231.34"/>
<polygon fill="black" stroke="black" stroke-width="1.2" points="321.62,-234.72 332.2,-234.18 323.6,-228 321.62,-234.72"/>
</g>
<!-- mnt_comp1 -->
<g id="node9" class="node">
<title>mnt_comp1</title>
<path fill="white" stroke="black" d="M1149,-454.31C1149,-454.31 1075,-454.31 1075,-454.31 1069,-454.31 1063,-448.31 1063,-442.31 1063,-442.31 1063,-430.31 1063,-430.31 1063,-424.31 1069,-418.31 1075,-418.31 1075,-418.31 1149,-418.31 1149,-418.31 1155,-418.31 1161,-424.31 1161,-430.31 1161,-430.31 1161,-442.31 1161,-442.31 1161,-448.31 1155,-454.31 1149,-454.31"/>
<text text-anchor="middle" x="1112" y="-432.61" font-family="Helvetica,sans-Serif" font-size="14.00">mnt_comp1</text>
</g>
<!-- mnt_comp1&#45;&gt;volt -->
<g id="edge7" class="edge">
<title>mnt_comp1&#45;&gt;volt</title>
<path fill="none" stroke="black" stroke-width="1.2" d="M1096.05,-454.43C1080.67,-471.69 1055.07,-496.83 1027,-509.31 963.38,-537.61 941.13,-528.31 871.5,-528.31 252.5,-528.31 252.5,-528.31 252.5,-528.31 109.36,-528.31 50.26,-312.02 33.42,-232.88"/>
<polygon fill="black" stroke="black" stroke-width="1.2" points="36.76,-231.75 31.32,-222.66 29.91,-233.16 36.76,-231.75"/>
</g>
<!-- mnt_comp1&#45;&gt;vibration -->
<g id="edge26" class="edge">
<title>mnt_comp1&#45;&gt;vibration</title>
<path fill="none" stroke="black" stroke-width="1.2" d="M1062.83,-436.31C1014.47,-436.31 937.82,-436.31 871.5,-436.31 622,-436.31 622,-436.31 622,-436.31 543.05,-436.31 513.37,-453.47 446,-412.31 416.07,-394.03 395.11,-358.57 383.32,-333.72"/>
<polygon fill="black" stroke="black" stroke-width="1.2" points="386.43,-332.1 379.11,-324.45 380.06,-335 386.43,-332.1"/>
</g>
<!-- mnt_comp2 -->
<g id="node10" class="node">
<title>mnt_comp2</title>
<path fill="white" stroke="black" d="M794,-332.31C794,-332.31 720,-332.31 720,-332.31 714,-332.31 708,-326.31 708,-320.31 708,-320.31 708,-308.31 708,-308.31 708,-302.31 714,-296.31 720,-296.31 720,-296.31 794,-296.31 794,-296.31 800,-296.31 806,-302.31 806,-308.31 806,-308.31 806,-320.31 806,-320.31 806,-326.31 800,-332.31 794,-332.31"/>
<text text-anchor="middle" x="757" y="-310.61" font-family="Helvetica,sans-Serif" font-size="14.00">mnt_comp2</text>
</g>
<!-- mnt_comp1&#45;&gt;mnt_comp2 -->
<g id="edge32" class="edge">
<title>mnt_comp1&#45;&gt;mnt_comp2</title>
<path fill="none" stroke="black" stroke-width="1.2" d="M1062.96,-419.71C998.77,-397.52 885.14,-358.25 816.18,-334.42"/>
<polygon fill="black" stroke="black" stroke-width="1.2" points="816.94,-330.98 806.34,-331.02 814.65,-337.59 816.94,-330.98"/>
</g>
<!-- mnt_comp4 -->
<g id="node12" class="node">
<title>mnt_comp4</title>
<path fill="white" stroke="black" d="M1283,-340.31C1283,-340.31 1209,-340.31 1209,-340.31 1203,-340.31 1197,-334.31 1197,-328.31 1197,-328.31 1197,-316.31 1197,-316.31 1197,-310.31 1203,-304.31 1209,-304.31 1209,-304.31 1283,-304.31 1283,-304.31 1289,-304.31 1295,-310.31 1295,-316.31 1295,-316.31 1295,-328.31 1295,-328.31 1295,-334.31 1289,-340.31 1283,-340.31"/>
<text text-anchor="middle" x="1246" y="-318.61" font-family="Helvetica,sans-Serif" font-size="14.00">mnt_comp4</text>
</g>
<!-- mnt_comp1&#45;&gt;mnt_comp4 -->
<g id="edge33" class="edge">
<title>mnt_comp1&#45;&gt;mnt_comp4</title>
<path fill="none" stroke="black" stroke-width="1.2" d="M1133.92,-418.25C1156.09,-399.1 1191.26,-368.72 1216.08,-347.29"/>
<polygon fill="black" stroke="black" stroke-width="1.2" points="1218.46,-349.85 1223.74,-340.67 1213.89,-344.55 1218.46,-349.85"/>
</g>
<!-- mnt_comp2&#45;&gt;rotate -->
<g id="edge16" class="edge">
<title>mnt_comp2&#45;&gt;rotate</title>
<path fill="none" stroke="black" stroke-width="1.2" d="M788.7,-296.24C794.74,-292.04 800.81,-287.32 806,-282.31 825.71,-263.3 825.06,-253.83 842,-232.31 843.59,-230.3 845.25,-228.23 846.95,-226.18"/>
<polygon fill="black" stroke="black" stroke-width="1.2" points="849.76,-228.27 853.52,-218.36 844.4,-223.76 849.76,-228.27"/>
</g>
<!-- mnt_comp2&#45;&gt;mnt_comp4 -->
<g id="edge36" class="edge">
<title>mnt_comp2&#45;&gt;mnt_comp4</title>
<path fill="none" stroke="black" stroke-width="1.2" d="M806.18,-310.57C881.87,-305.37 1033.21,-297.73 1161,-308.31 1169.37,-309 1178.15,-310.08 1186.76,-311.33"/>
<polygon fill="black" stroke="black" stroke-width="1.2" points="1186.34,-314.8 1196.75,-312.87 1187.4,-307.89 1186.34,-314.8"/>
</g>
<!-- mnt_comp3&#45;&gt;mnt_comp2 -->
<g id="edge35" class="edge">
<title>mnt_comp3&#45;&gt;mnt_comp2</title>
<path fill="none" stroke="black" stroke-width="1.2" d="M672.03,-309.22C680.4,-309.73 689.19,-310.26 697.8,-310.78"/>
<polygon fill="black" stroke="black" stroke-width="1.2" points="697.59,-314.28 707.79,-311.39 698.02,-307.29 697.59,-314.28"/>
</g>
<!-- mnt_comp4&#45;&gt;rotate -->
<g id="edge18" class="edge">
<title>mnt_comp4&#45;&gt;rotate</title>
<path fill="none" stroke="black" stroke-width="1.2" d="M1220.4,-304.17C1204.23,-293 1182.21,-279.17 1161,-270.31 1074.54,-234.18 965.41,-214.13 909.04,-205.49"/>
<polygon fill="black" stroke="black" stroke-width="1.2" points="909.55,-202.03 899.15,-204.01 908.52,-208.95 909.55,-202.03"/>
</g>
<!-- fail_comp1&#45;&gt;mnt_comp1 -->
<g id="edge34" class="edge">
<title>fail_comp1&#45;&gt;mnt_comp1</title>
<path fill="none" stroke="black" stroke-width="1.2" d="M1027.12,-466.22C1035.46,-463.25 1044.28,-460.1 1052.94,-457.02"/>
<polygon fill="black" stroke="black" stroke-width="1.2" points="1054.37,-460.22 1062.62,-453.56 1052.02,-453.63 1054.37,-460.22"/>
</g>
<!-- fail_comp1&#45;&gt;mnt_comp4 -->
<g id="edge39" class="edge">
<title>fail_comp1&#45;&gt;mnt_comp4</title>
<path fill="none" stroke="black" stroke-width="1.2" d="M1027.2,-488.16C1065.76,-490.81 1121.13,-488.85 1161,-463.31 1201.88,-437.13 1225.55,-383.34 1236.81,-350.29"/>
<polygon fill="black" stroke="black" stroke-width="1.2" points="1240.15,-351.35 1239.92,-340.76 1233.5,-349.18 1240.15,-351.35"/>
</g>
<!-- fail_comp2&#45;&gt;mnt_comp2 -->
<g id="edge37" class="edge">
<title>fail_comp2&#45;&gt;mnt_comp2</title>
<path fill="none" stroke="black" stroke-width="1.2" d="M961.12,-174.48C945.17,-189.42 921.41,-210.75 899,-227.31 866.96,-250.98 828.31,-274.51 799.59,-291.12"/>
<polygon fill="black" stroke="black" stroke-width="1.2" points="797.56,-288.24 790.63,-296.26 801.05,-294.31 797.56,-288.24"/>
</g>
<!-- fail_comp3&#45;&gt;mnt_comp3 -->
<g id="edge38" class="edge">
<title>fail_comp3&#45;&gt;mnt_comp3</title>
<path fill="none" stroke="black" stroke-width="1.2" d="M538.12,-336.22C546.46,-333.25 555.28,-330.1 563.94,-327.02"/>
<polygon fill="black" stroke="black" stroke-width="1.2" points="565.37,-330.22 573.62,-323.56 563.02,-323.63 565.37,-330.22"/>
</g>
<!-- fail_comp3&#45;&gt;mnt_comp4 -->
<g id="edge40" class="edge">
<title>fail_comp3&#45;&gt;mnt_comp4</title>
<path fill="none" stroke="black" stroke-width="1.2" d="M538.1,-350.84C598.93,-348.83 710.65,-345.05 806,-341.31 942.47,-335.96 1102.77,-328.8 1186.82,-324.98"/>
<polygon fill="black" stroke="black" stroke-width="1.2" points="1187.1,-328.47 1196.93,-324.52 1186.79,-321.48 1187.1,-328.47"/>
</g>
</g>
</svg>
