<?xml version="1.0" encoding="UTF-8" standalone="no"?>
<!DOCTYPE svg PUBLIC "-//W3C//DTD SVG 1.1//EN"
 "http://www.w3.org/Graphics/SVG/1.1/DTD/svg11.dtd">
<!-- Generated by graphviz version 2.50.0 (0)
 -->
<!-- Title: G Pages: 1 -->
<svg width="1537pt" height="810pt"
 viewBox="0.00 0.00 1537.00 810.00" xmlns="http://www.w3.org/2000/svg" xmlns:xlink="http://www.w3.org/1999/xlink">
<g id="graph0" class="graph" transform="scale(1 1) rotate(0) translate(4 806)">
<title>G</title>
<polygon fill="white" stroke="transparent" points="-4,4 -4,-806 1533,-806 1533,4 -4,4"/>
<text text-anchor="middle" x="764.5" y="-785.2" font-family="Times,serif" font-size="16.00">model=model1/nbcb_w_mixed.json [machine 56]</text>
<!-- volt -->
<g id="node1" class="node">
<title>volt</title>
<path fill="white" stroke="black" d="M42,-475C42,-475 12,-475 12,-475 6,-475 0,-469 0,-463 0,-463 0,-451 0,-451 0,-445 6,-439 12,-439 12,-439 42,-439 42,-439 48,-439 54,-445 54,-451 54,-451 54,-463 54,-463 54,-469 48,-475 42,-475"/>
<text text-anchor="middle" x="27" y="-453.3" font-family="Helvetica,sans-Serif" font-size="14.00">volt</text>
</g>
<!-- vibration -->
<g id="node4" class="node">
<title>vibration</title>
<path fill="white" stroke="black" d="M156,-498C156,-498 102,-498 102,-498 96,-498 90,-492 90,-486 90,-486 90,-474 90,-474 90,-468 96,-462 102,-462 102,-462 156,-462 156,-462 162,-462 168,-468 168,-474 168,-474 168,-486 168,-486 168,-492 162,-498 156,-498"/>
<text text-anchor="middle" x="129" y="-476.3" font-family="Helvetica,sans-Serif" font-size="14.00">vibration</text>
</g>
<!-- volt&#45;&gt;vibration -->
<g id="edge2" class="edge">
<title>volt&#45;&gt;vibration</title>
<path fill="none" stroke="black" stroke-width="1.2" d="M54.01,-462.98C61.92,-464.8 70.87,-466.86 79.75,-468.9"/>
<polygon fill="black" stroke="black" stroke-width="1.2" points="79.15,-472.36 89.68,-471.19 80.72,-465.53 79.15,-472.36"/>
</g>
<!-- err_error1 -->
<g id="node5" class="node">
<title>err_error1</title>
<path fill="white" stroke="black" d="M1003.5,-642C1003.5,-642 942.5,-642 942.5,-642 936.5,-642 930.5,-636 930.5,-630 930.5,-630 930.5,-618 930.5,-618 930.5,-612 936.5,-606 942.5,-606 942.5,-606 1003.5,-606 1003.5,-606 1009.5,-606 1015.5,-612 1015.5,-618 1015.5,-618 1015.5,-630 1015.5,-630 1015.5,-636 1009.5,-642 1003.5,-642"/>
<text text-anchor="middle" x="973" y="-620.3" font-family="Helvetica,sans-Serif" font-size="14.00">err_error1</text>
</g>
<!-- volt&#45;&gt;err_error1 -->
<g id="edge3" class="edge">
<title>volt&#45;&gt;err_error1</title>
<path fill="none" stroke="black" stroke-width="1.2" d="M32.64,-485.02C39.65,-519.8 55.95,-579.27 90,-618 140.55,-675.5 164.94,-700 241.5,-700 241.5,-700 241.5,-700 750,-700 816.42,-700 888.28,-669.17 931.71,-646.79"/>
<polygon fill="black" stroke="black" stroke-width="1.2" points="36.05,-484.23 30.75,-475.06 29.17,-485.54 36.05,-484.23"/>
<polygon fill="black" stroke="black" stroke-width="1.2" points="933.58,-649.76 940.8,-642.01 930.32,-643.56 933.58,-649.76"/>
</g>
<!-- err_error3 -->
<g id="node7" class="node">
<title>err_error3</title>
<path fill="white" stroke="black" d="M1517,-246C1517,-246 1456,-246 1456,-246 1450,-246 1444,-240 1444,-234 1444,-234 1444,-222 1444,-222 1444,-216 1450,-210 1456,-210 1456,-210 1517,-210 1517,-210 1523,-210 1529,-216 1529,-222 1529,-222 1529,-234 1529,-234 1529,-240 1523,-246 1517,-246"/>
<text text-anchor="middle" x="1486.5" y="-224.3" font-family="Helvetica,sans-Serif" font-size="14.00">err_error3</text>
</g>
<!-- volt&#45;&gt;err_error3 -->
<g id="edge4" class="edge">
<title>volt&#45;&gt;err_error3</title>
<path fill="none" stroke="black" stroke-width="1.2" d="M27.96,-438.8C28.82,-353.81 44.25,0 241.5,0 241.5,0 241.5,0 1239,0 1325.16,0 1346.6,-34.55 1408,-95 1439,-125.53 1461.92,-171.02 1474.49,-200.09"/>
<polygon fill="black" stroke="black" stroke-width="1.2" points="1471.4,-201.78 1478.5,-209.64 1477.86,-199.06 1471.4,-201.78"/>
</g>
<!-- mnt_comp3 -->
<g id="node11" class="node">
<title>mnt_comp3</title>
<path fill="white" stroke="black" d="M1275,-345C1275,-345 1201,-345 1201,-345 1195,-345 1189,-339 1189,-333 1189,-333 1189,-321 1189,-321 1189,-315 1195,-309 1201,-309 1201,-309 1275,-309 1275,-309 1281,-309 1287,-315 1287,-321 1287,-321 1287,-333 1287,-333 1287,-339 1281,-345 1275,-345"/>
<text text-anchor="middle" x="1238" y="-323.3" font-family="Helvetica,sans-Serif" font-size="14.00">mnt_comp3</text>
</g>
<!-- volt&#45;&gt;mnt_comp3 -->
<g id="edge7" class="edge">
<title>volt&#45;&gt;mnt_comp3</title>
<path fill="none" stroke="black" stroke-width="1.2" d="M31.46,-438.77C38.07,-408.29 55.03,-346.42 90,-307 254.69,-121.33 365.82,-114 614,-114 614,-114 614,-114 974,-114 1091.12,-114 1185.31,-243.14 1221.26,-300.31"/>
<polygon fill="black" stroke="black" stroke-width="1.2" points="1218.3,-302.17 1226.53,-308.84 1224.25,-298.49 1218.3,-302.17"/>
</g>
<!-- fail_comp2 -->
<g id="node14" class="node">
<title>fail_comp2</title>
<path fill="white" stroke="black" d="M1007,-406C1007,-406 939,-406 939,-406 933,-406 927,-400 927,-394 927,-394 927,-382 927,-382 927,-376 933,-370 939,-370 939,-370 1007,-370 1007,-370 1013,-370 1019,-376 1019,-382 1019,-382 1019,-394 1019,-394 1019,-400 1013,-406 1007,-406"/>
<text text-anchor="middle" x="973" y="-384.3" font-family="Helvetica,sans-Serif" font-size="14.00">fail_comp2</text>
</g>
<!-- volt&#45;&gt;fail_comp2 -->
<g id="edge8" class="edge">
<title>volt&#45;&gt;fail_comp2</title>
<path fill="none" stroke="black" stroke-width="1.2" d="M47.88,-430.81C77.76,-393.2 137.85,-324.14 204,-285 297.54,-229.66 330.49,-229.95 438,-214 632.96,-185.07 852.97,-310.31 936.92,-364.29"/>
<polygon fill="black" stroke="black" stroke-width="1.2" points="45.05,-428.75 41.63,-438.78 50.55,-433.07 45.05,-428.75"/>
<polygon fill="black" stroke="black" stroke-width="1.2" points="935.25,-367.38 945.55,-369.9 939.07,-361.51 935.25,-367.38"/>
</g>
<!-- rotate -->
<g id="node2" class="node">
<title>rotate</title>
<path fill="white" stroke="black" d="M879,-490C879,-490 846,-490 846,-490 840,-490 834,-484 834,-478 834,-478 834,-466 834,-466 834,-460 840,-454 846,-454 846,-454 879,-454 879,-454 885,-454 891,-460 891,-466 891,-466 891,-478 891,-478 891,-484 885,-490 879,-490"/>
<text text-anchor="middle" x="862.5" y="-468.3" font-family="Helvetica,sans-Serif" font-size="14.00">rotate</text>
</g>
<!-- rotate&#45;&gt;volt -->
<g id="edge1" class="edge">
<title>rotate&#45;&gt;volt</title>
<path fill="none" stroke="black" stroke-width="1.2" d="M848.07,-490.26C836.39,-504.92 818.19,-524.96 798,-537 624.31,-640.57 562.73,-662 360.5,-662 241.5,-662 241.5,-662 241.5,-662 140.19,-662 68.29,-540.4 40.59,-484.51"/>
<polygon fill="black" stroke="black" stroke-width="1.2" points="43.59,-482.67 36.09,-475.19 37.29,-485.72 43.59,-482.67"/>
</g>
<!-- pressure -->
<g id="node3" class="node">
<title>pressure</title>
<path fill="white" stroke="black" d="M269,-330C269,-330 216,-330 216,-330 210,-330 204,-324 204,-318 204,-318 204,-306 204,-306 204,-300 210,-294 216,-294 216,-294 269,-294 269,-294 275,-294 281,-300 281,-306 281,-306 281,-318 281,-318 281,-324 275,-330 269,-330"/>
<text text-anchor="middle" x="242.5" y="-308.3" font-family="Helvetica,sans-Serif" font-size="14.00">pressure</text>
</g>
<!-- rotate&#45;&gt;pressure -->
<g id="edge9" class="edge">
<title>rotate&#45;&gt;pressure</title>
<path fill="none" stroke="black" stroke-width="1.2" d="M823.79,-481.41C767.04,-494.03 656.65,-512.48 566,-491 448,-463.04 328.11,-378.5 273.69,-336.38"/>
<polygon fill="black" stroke="black" stroke-width="1.2" points="824.78,-484.78 833.75,-479.14 823.22,-477.95 824.78,-484.78"/>
<polygon fill="black" stroke="black" stroke-width="1.2" points="275.56,-333.41 265.53,-330 271.25,-338.92 275.56,-333.41"/>
</g>
<!-- rotate&#45;&gt;vibration -->
<g id="edge10" class="edge">
<title>rotate&#45;&gt;vibration</title>
<path fill="none" stroke="black" stroke-width="1.2" d="M833.87,-489.45C823.01,-495.71 810.24,-502.36 798,-507 720.48,-536.42 698.92,-548 616,-548 358.5,-548 358.5,-548 358.5,-548 293,-548 221.17,-522.02 175.86,-502.17"/>
<polygon fill="black" stroke="black" stroke-width="1.2" points="177.16,-498.92 166.61,-498.04 174.31,-505.32 177.16,-498.92"/>
</g>
<!-- rotate&#45;&gt;err_error1 -->
<g id="edge11" class="edge">
<title>rotate&#45;&gt;err_error1</title>
<path fill="none" stroke="black" stroke-width="1.2" d="M876.37,-490.03C895.38,-516.66 931.07,-566.65 953.06,-597.47"/>
<polygon fill="black" stroke="black" stroke-width="1.2" points="950.49,-599.88 959.14,-605.99 956.18,-595.82 950.49,-599.88"/>
</g>
<!-- err_error2 -->
<g id="node6" class="node">
<title>err_error2</title>
<path fill="white" stroke="black" d="M1396,-269C1396,-269 1335,-269 1335,-269 1329,-269 1323,-263 1323,-257 1323,-257 1323,-245 1323,-245 1323,-239 1329,-233 1335,-233 1335,-233 1396,-233 1396,-233 1402,-233 1408,-239 1408,-245 1408,-245 1408,-257 1408,-257 1408,-263 1402,-269 1396,-269"/>
<text text-anchor="middle" x="1365.5" y="-247.3" font-family="Helvetica,sans-Serif" font-size="14.00">err_error2</text>
</g>
<!-- rotate&#45;&gt;err_error2 -->
<g id="edge12" class="edge">
<title>rotate&#45;&gt;err_error2</title>
<path fill="none" stroke="black" stroke-width="1.2" d="M901.17,-471.12C980.97,-467.39 1169.38,-448.43 1287,-354 1313.38,-332.82 1335.63,-300.74 1349.43,-278.01"/>
<polygon fill="black" stroke="black" stroke-width="1.2" points="900.94,-467.63 891.09,-471.54 901.23,-474.62 900.94,-467.63"/>
<polygon fill="black" stroke="black" stroke-width="1.2" points="1352.56,-279.6 1354.64,-269.21 1346.53,-276.03 1352.56,-279.6"/>
</g>
<!-- rotate&#45;&gt;err_error3 -->
<g id="edge13" class="edge">
<title>rotate&#45;&gt;err_error3</title>
<path fill="none" stroke="black" stroke-width="1.2" d="M891.3,-479.33C935.7,-490.37 1025.54,-510 1103,-510 1103,-510 1103,-510 1239,-510 1373.18,-510 1451.21,-326.78 1476.42,-255.71"/>
<polygon fill="black" stroke="black" stroke-width="1.2" points="1479.79,-256.66 1479.76,-246.07 1473.18,-254.37 1479.79,-256.66"/>
</g>
<!-- err_error4 -->
<g id="node8" class="node">
<title>err_error4</title>
<path fill="white" stroke="black" d="M390,-330C390,-330 329,-330 329,-330 323,-330 317,-324 317,-318 317,-318 317,-306 317,-306 317,-300 323,-294 329,-294 329,-294 390,-294 390,-294 396,-294 402,-300 402,-306 402,-306 402,-318 402,-318 402,-324 396,-330 390,-330"/>
<text text-anchor="middle" x="359.5" y="-308.3" font-family="Helvetica,sans-Serif" font-size="14.00">err_error4</text>
</g>
<!-- rotate&#45;&gt;err_error4 -->
<g id="edge14" class="edge">
<title>rotate&#45;&gt;err_error4</title>
<path fill="none" stroke="black" stroke-width="1.2" d="M826.2,-448.61C817.25,-443.32 807.47,-438.07 798,-434 664.11,-376.5 495.55,-338.45 412.14,-321.72"/>
<polygon fill="black" stroke="black" stroke-width="1.2" points="824.48,-451.66 834.84,-453.88 828.13,-445.69 824.48,-451.66"/>
<polygon fill="black" stroke="black" stroke-width="1.2" points="412.65,-318.25 402.16,-319.74 411.28,-325.12 412.65,-318.25"/>
</g>
<!-- fail_comp1 -->
<g id="node13" class="node">
<title>fail_comp1</title>
<path fill="white" stroke="black" d="M518,-406C518,-406 450,-406 450,-406 444,-406 438,-400 438,-394 438,-394 438,-382 438,-382 438,-376 444,-370 450,-370 450,-370 518,-370 518,-370 524,-370 530,-376 530,-382 530,-382 530,-394 530,-394 530,-400 524,-406 518,-406"/>
<text text-anchor="middle" x="484" y="-384.3" font-family="Helvetica,sans-Serif" font-size="14.00">fail_comp1</text>
</g>
<!-- rotate&#45;&gt;fail_comp1 -->
<g id="edge17" class="edge">
<title>rotate&#45;&gt;fail_comp1</title>
<path fill="none" stroke="black" stroke-width="1.2" d="M833.52,-465.76C771.54,-451.93 621.68,-418.49 540.12,-400.3"/>
<polygon fill="black" stroke="black" stroke-width="1.2" points="540.56,-396.81 530.04,-398.05 539.04,-403.64 540.56,-396.81"/>
</g>
<!-- rotate&#45;&gt;fail_comp2 -->
<g id="edge18" class="edge">
<title>rotate&#45;&gt;fail_comp2</title>
<path fill="none" stroke="black" stroke-width="1.2" d="M884.96,-453.82C897.12,-443.66 912.73,-430.9 927,-420 930.34,-417.45 933.86,-414.83 937.4,-412.24"/>
<polygon fill="black" stroke="black" stroke-width="1.2" points="939.55,-415.01 945.61,-406.32 935.45,-409.33 939.55,-415.01"/>
</g>
<!-- pressure&#45;&gt;err_error4 -->
<g id="edge23" class="edge">
<title>pressure&#45;&gt;err_error4</title>
<path fill="none" stroke="black" stroke-width="1.2" d="M281.16,-312C289.35,-312 298.15,-312 306.78,-312"/>
<polygon fill="black" stroke="black" stroke-width="1.2" points="306.78,-315.5 316.78,-312 306.78,-308.5 306.78,-315.5"/>
</g>
<!-- pressure&#45;&gt;fail_comp1 -->
<g id="edge24" class="edge">
<title>pressure&#45;&gt;fail_comp1</title>
<path fill="none" stroke="black" stroke-width="1.2" d="M281.1,-326.35C292.57,-330.58 305.26,-335.11 317,-339 353.71,-351.15 395.46,-363.46 427.91,-372.71"/>
<polygon fill="black" stroke="black" stroke-width="1.2" points="427.09,-376.12 437.66,-375.48 429,-369.38 427.09,-376.12"/>
</g>
<!-- fail_comp3 -->
<g id="node15" class="node">
<title>fail_comp3</title>
<path fill="white" stroke="black" d="M1138,-406C1138,-406 1070,-406 1070,-406 1064,-406 1058,-400 1058,-394 1058,-394 1058,-382 1058,-382 1058,-376 1064,-370 1070,-370 1070,-370 1138,-370 1138,-370 1144,-370 1150,-376 1150,-382 1150,-382 1150,-394 1150,-394 1150,-400 1144,-406 1138,-406"/>
<text text-anchor="middle" x="1104" y="-384.3" font-family="Helvetica,sans-Serif" font-size="14.00">fail_comp3</text>
</g>
<!-- pressure&#45;&gt;fail_comp3 -->
<g id="edge25" class="edge">
<title>pressure&#45;&gt;fail_comp3</title>
<path fill="none" stroke="black" stroke-width="1.2" d="M281.12,-296.23C292.48,-292 305.1,-287.83 317,-285 389.25,-267.85 408.74,-266 483,-266 483,-266 483,-266 750,-266 869.9,-266 1000.75,-329.65 1064.19,-365"/>
<polygon fill="black" stroke="black" stroke-width="1.2" points="1062.62,-368.13 1073.05,-370 1066.06,-362.04 1062.62,-368.13"/>
</g>
<!-- vibration&#45;&gt;pressure -->
<g id="edge20" class="edge">
<title>vibration&#45;&gt;pressure</title>
<path fill="none" stroke="black" stroke-width="1.2" d="M142.14,-461.7C161.89,-431.96 201.02,-373 223.84,-338.61"/>
<polygon fill="black" stroke="black" stroke-width="1.2" points="226.93,-340.29 229.54,-330.02 221.09,-336.42 226.93,-340.29"/>
</g>
<!-- vibration&#45;&gt;err_error2 -->
<g id="edge27" class="edge">
<title>vibration&#45;&gt;err_error2</title>
<path fill="none" stroke="black" stroke-width="1.2" d="M137.51,-451.62C156.28,-386.26 211.47,-224.13 317,-138 424.9,-49.93 474.72,-38 614,-38 614,-38 614,-38 1105,-38 1220.94,-38 1313.39,-166.61 1348.84,-223.96"/>
<polygon fill="black" stroke="black" stroke-width="1.2" points="134.04,-451.03 134.71,-461.61 140.78,-452.92 134.04,-451.03"/>
<polygon fill="black" stroke="black" stroke-width="1.2" points="1346.05,-226.1 1354.23,-232.84 1352.04,-222.47 1346.05,-226.1"/>
</g>
<!-- vibration&#45;&gt;err_error3 -->
<g id="edge28" class="edge">
<title>vibration&#45;&gt;err_error3</title>
<path fill="none" stroke="black" stroke-width="1.2" d="M148.05,-506.51C161.51,-524.36 181.42,-547.1 204,-561 279.46,-607.45 883.39,-776 972,-776 972,-776 972,-776 1239,-776 1469.19,-776 1485.69,-368.88 1485.86,-256.46"/>
<polygon fill="black" stroke="black" stroke-width="1.2" points="150.7,-504.21 141.98,-498.2 145.05,-508.34 150.7,-504.21"/>
<polygon fill="black" stroke="black" stroke-width="1.2" points="1489.36,-256.22 1485.83,-246.23 1482.36,-256.24 1489.36,-256.22"/>
</g>
<!-- err_error1&#45;&gt;vibration -->
<g id="edge26" class="edge">
<title>err_error1&#45;&gt;vibration</title>
<path fill="none" stroke="black" stroke-width="1.2" d="M930.47,-621.19C826.69,-613.91 547.78,-592.66 317,-560 266.42,-552.84 250.47,-560.22 204,-539 185.88,-530.73 168.33,-517.06 154.87,-504.96"/>
<polygon fill="black" stroke="black" stroke-width="1.2" points="157.16,-502.31 147.45,-498.08 152.4,-507.44 157.16,-502.31"/>
</g>
<!-- err_error2&#45;&gt;pressure -->
<g id="edge21" class="edge">
<title>err_error2&#45;&gt;pressure</title>
<path fill="none" stroke="black" stroke-width="1.2" d="M1322.82,-237.03C1237.61,-209.74 1036.83,-152 863.5,-152 614,-152 614,-152 614,-152 478.49,-152 336.27,-243.32 274.82,-287.98"/>
<polygon fill="black" stroke="black" stroke-width="1.2" points="272.67,-285.21 266.69,-293.96 276.82,-290.85 272.67,-285.21"/>
</g>
<!-- err_error2&#45;&gt;err_error3 -->
<g id="edge30" class="edge">
<title>err_error2&#45;&gt;err_error3</title>
<path fill="none" stroke="black" stroke-width="1.2" d="M1418.04,-241.04C1423.26,-240.03 1428.57,-239 1433.8,-237.99"/>
<polygon fill="black" stroke="black" stroke-width="1.2" points="1417.27,-237.62 1408.12,-242.96 1418.6,-244.49 1417.27,-237.62"/>
<polygon fill="black" stroke="black" stroke-width="1.2" points="1434.55,-241.41 1443.7,-236.08 1433.22,-234.54 1434.55,-241.41"/>
</g>
<!-- err_error2&#45;&gt;err_error4 -->
<g id="edge31" class="edge">
<title>err_error2&#45;&gt;err_error4</title>
<path fill="none" stroke="black" stroke-width="1.2" d="M1322.88,-257.08C1223.85,-271 966.3,-304 750,-304 614,-304 614,-304 614,-304 544.18,-304 463.59,-307.07 412.36,-309.41"/>
<polygon fill="black" stroke="black" stroke-width="1.2" points="412.03,-305.92 402.2,-309.88 412.36,-312.91 412.03,-305.92"/>
</g>
<!-- err_error3&#45;&gt;pressure -->
<g id="edge22" class="edge">
<title>err_error3&#45;&gt;pressure</title>
<path fill="none" stroke="black" stroke-width="1.2" d="M1470.25,-209.97C1434.38,-169.7 1340.06,-76 1239,-76 614,-76 614,-76 614,-76 469.55,-76 428.69,-116.4 317,-208 291.01,-229.32 269.96,-262 257.16,-285.03"/>
<polygon fill="black" stroke="black" stroke-width="1.2" points="254.02,-283.48 252.34,-293.94 260.17,-286.81 254.02,-283.48"/>
</g>
<!-- err_error3&#45;&gt;err_error4 -->
<g id="edge33" class="edge">
<title>err_error3&#45;&gt;err_error4</title>
<path fill="none" stroke="black" stroke-width="1.2" d="M1443.93,-217.62C1395.17,-206.37 1311.75,-190 1239,-190 972,-190 972,-190 972,-190 760.68,-190 516.09,-260.93 411.83,-294.63"/>
<polygon fill="black" stroke="black" stroke-width="1.2" points="410.61,-291.34 402.18,-297.77 412.78,-298 410.61,-291.34"/>
</g>
<!-- err_error4&#45;&gt;fail_comp1 -->
<g id="edge34" class="edge">
<title>err_error4&#45;&gt;fail_comp1</title>
<path fill="none" stroke="black" stroke-width="1.2" d="M389.53,-330.01C406.19,-340.35 427.3,-353.44 445.23,-364.57"/>
<polygon fill="black" stroke="black" stroke-width="1.2" points="443.41,-367.56 453.75,-369.85 447.1,-361.61 443.41,-367.56"/>
</g>
<!-- mnt_comp1 -->
<g id="node9" class="node">
<title>mnt_comp1</title>
<path fill="white" stroke="black" d="M652,-482C652,-482 578,-482 578,-482 572,-482 566,-476 566,-470 566,-470 566,-458 566,-458 566,-452 572,-446 578,-446 578,-446 652,-446 652,-446 658,-446 664,-452 664,-458 664,-458 664,-470 664,-470 664,-476 658,-482 652,-482"/>
<text text-anchor="middle" x="615" y="-460.3" font-family="Helvetica,sans-Serif" font-size="14.00">mnt_comp1</text>
</g>
<!-- mnt_comp1&#45;&gt;volt -->
<g id="edge5" class="edge">
<title>mnt_comp1&#45;&gt;volt</title>
<path fill="none" stroke="black" stroke-width="1.2" d="M565.6,-454.84C514.74,-446.01 432.29,-434 360.5,-434 241.5,-434 241.5,-434 241.5,-434 178.95,-434 106.68,-443.88 64.3,-450.69"/>
<polygon fill="black" stroke="black" stroke-width="1.2" points="63.5,-447.27 54.2,-452.35 64.63,-454.18 63.5,-447.27"/>
</g>
<!-- mnt_comp1&#45;&gt;rotate -->
<g id="edge15" class="edge">
<title>mnt_comp1&#45;&gt;rotate</title>
<path fill="none" stroke="black" stroke-width="1.2" d="M664.21,-465.57C711.04,-467.1 781.16,-469.38 823.97,-470.78"/>
<polygon fill="black" stroke="black" stroke-width="1.2" points="823.87,-474.28 833.98,-471.1 824.1,-467.28 823.87,-474.28"/>
</g>
<!-- mnt_comp1&#45;&gt;vibration -->
<g id="edge29" class="edge">
<title>mnt_comp1&#45;&gt;vibration</title>
<path fill="none" stroke="black" stroke-width="1.2" d="M565.75,-465.6C473.15,-468.66 271.51,-475.32 178.63,-478.39"/>
<polygon fill="black" stroke="black" stroke-width="1.2" points="178.26,-474.9 168.38,-478.73 178.49,-481.9 178.26,-474.9"/>
</g>
<!-- mnt_comp4 -->
<g id="node12" class="node">
<title>mnt_comp4</title>
<path fill="white" stroke="black" d="M786,-368C786,-368 712,-368 712,-368 706,-368 700,-362 700,-356 700,-356 700,-344 700,-344 700,-338 706,-332 712,-332 712,-332 786,-332 786,-332 792,-332 798,-338 798,-344 798,-344 798,-356 798,-356 798,-362 792,-368 786,-368"/>
<text text-anchor="middle" x="749" y="-346.3" font-family="Helvetica,sans-Serif" font-size="14.00">mnt_comp4</text>
</g>
<!-- mnt_comp1&#45;&gt;mnt_comp4 -->
<g id="edge35" class="edge">
<title>mnt_comp1&#45;&gt;mnt_comp4</title>
<path fill="none" stroke="black" stroke-width="1.2" d="M636.92,-445.94C659.09,-426.79 694.26,-396.41 719.08,-374.98"/>
<polygon fill="black" stroke="black" stroke-width="1.2" points="721.46,-377.54 726.74,-368.36 716.89,-372.24 721.46,-377.54"/>
</g>
<!-- mnt_comp2 -->
<g id="node10" class="node">
<title>mnt_comp2</title>
<path fill="white" stroke="black" d="M1141,-661C1141,-661 1067,-661 1067,-661 1061,-661 1055,-655 1055,-649 1055,-649 1055,-637 1055,-637 1055,-631 1061,-625 1067,-625 1067,-625 1141,-625 1141,-625 1147,-625 1153,-631 1153,-637 1153,-637 1153,-649 1153,-649 1153,-655 1147,-661 1141,-661"/>
<text text-anchor="middle" x="1104" y="-639.3" font-family="Helvetica,sans-Serif" font-size="14.00">mnt_comp2</text>
</g>
<!-- mnt_comp2&#45;&gt;volt -->
<g id="edge6" class="edge">
<title>mnt_comp2&#45;&gt;volt</title>
<path fill="none" stroke="black" stroke-width="1.2" d="M1076.7,-661.09C1034,-688.66 946.03,-738 863.5,-738 241.5,-738 241.5,-738 241.5,-738 166.95,-738 138.47,-722.64 90,-666 44.97,-613.38 32.64,-529.19 29.27,-485.46"/>
<polygon fill="black" stroke="black" stroke-width="1.2" points="32.74,-485 28.59,-475.26 25.76,-485.47 32.74,-485"/>
</g>
<!-- mnt_comp3&#45;&gt;err_error2 -->
<g id="edge32" class="edge">
<title>mnt_comp3&#45;&gt;err_error2</title>
<path fill="none" stroke="black" stroke-width="1.2" d="M1268.74,-308.99C1285.81,-298.65 1307.43,-285.56 1325.81,-274.43"/>
<polygon fill="black" stroke="black" stroke-width="1.2" points="1327.8,-277.32 1334.54,-269.15 1324.17,-271.33 1327.8,-277.32"/>
</g>
<!-- mnt_comp3&#45;&gt;mnt_comp4 -->
<g id="edge38" class="edge">
<title>mnt_comp3&#45;&gt;mnt_comp4</title>
<path fill="none" stroke="black" stroke-width="1.2" d="M1188.97,-329.27C1099.02,-333.52 905.5,-342.66 808.26,-347.25"/>
<polygon fill="black" stroke="black" stroke-width="1.2" points="807.85,-343.76 798.03,-347.73 808.18,-350.76 807.85,-343.76"/>
</g>
<!-- mnt_comp4&#45;&gt;rotate -->
<g id="edge16" class="edge">
<title>mnt_comp4&#45;&gt;rotate</title>
<path fill="none" stroke="black" stroke-width="1.2" d="M780.74,-368.03C786.78,-372.24 792.83,-376.97 798,-382 817.31,-400.8 834.6,-426.18 846.25,-445.2"/>
<polygon fill="black" stroke="black" stroke-width="1.2" points="843.36,-447.18 851.5,-453.96 849.36,-443.58 843.36,-447.18"/>
</g>
<!-- fail_comp1&#45;&gt;mnt_comp1 -->
<g id="edge36" class="edge">
<title>fail_comp1&#45;&gt;mnt_comp1</title>
<path fill="none" stroke="black" stroke-width="1.2" d="M515.57,-406.01C533.19,-416.39 555.54,-429.56 574.49,-440.72"/>
<polygon fill="black" stroke="black" stroke-width="1.2" points="572.81,-443.79 583.2,-445.85 576.36,-437.76 572.81,-443.79"/>
</g>
<!-- fail_comp1&#45;&gt;mnt_comp4 -->
<g id="edge40" class="edge">
<title>fail_comp1&#45;&gt;mnt_comp4</title>
<path fill="none" stroke="black" stroke-width="1.2" d="M530.21,-381.47C574.36,-375.09 641.75,-365.35 689.86,-358.4"/>
<polygon fill="black" stroke="black" stroke-width="1.2" points="690.42,-361.86 699.82,-356.96 689.42,-354.93 690.42,-361.86"/>
</g>
<!-- fail_comp2&#45;&gt;mnt_comp2 -->
<g id="edge37" class="edge">
<title>fail_comp2&#45;&gt;mnt_comp2</title>
<path fill="none" stroke="black" stroke-width="1.2" d="M983.28,-406.34C1005.68,-450.63 1062.85,-563.63 1089.25,-615.82"/>
<polygon fill="black" stroke="black" stroke-width="1.2" points="1086.17,-617.48 1093.81,-624.83 1092.42,-614.32 1086.17,-617.48"/>
</g>
<!-- fail_comp2&#45;&gt;mnt_comp4 -->
<g id="edge41" class="edge">
<title>fail_comp2&#45;&gt;mnt_comp4</title>
<path fill="none" stroke="black" stroke-width="1.2" d="M926.95,-380.29C892.75,-374.43 845.44,-366.34 808.34,-359.99"/>
<polygon fill="black" stroke="black" stroke-width="1.2" points="808.62,-356.48 798.17,-358.25 807.44,-363.38 808.62,-356.48"/>
</g>
<!-- fail_comp2&#45;&gt;fail_comp3 -->
<g id="edge42" class="edge">
<title>fail_comp2&#45;&gt;fail_comp3</title>
<path fill="none" stroke="black" stroke-width="1.2" d="M1019.12,-388C1028.3,-388 1038.05,-388 1047.54,-388"/>
<polygon fill="black" stroke="black" stroke-width="1.2" points="1047.69,-391.5 1057.69,-388 1047.69,-384.5 1047.69,-391.5"/>
</g>
<!-- fail_comp3&#45;&gt;rotate -->
<g id="edge19" class="edge">
<title>fail_comp3&#45;&gt;rotate</title>
<path fill="none" stroke="black" stroke-width="1.2" d="M1057.69,-403.89C1012.37,-419.79 943.48,-443.95 901.1,-458.81"/>
<polygon fill="black" stroke="black" stroke-width="1.2" points="899.72,-455.59 891.44,-462.2 902.04,-462.19 899.72,-455.59"/>
</g>
<!-- fail_comp3&#45;&gt;mnt_comp3 -->
<g id="edge39" class="edge">
<title>fail_comp3&#45;&gt;mnt_comp3</title>
<path fill="none" stroke="black" stroke-width="1.2" d="M1144.25,-369.86C1158.09,-363.47 1173.82,-356.2 1188.34,-349.49"/>
<polygon fill="black" stroke="black" stroke-width="1.2" points="1190.07,-352.54 1197.68,-345.17 1187.13,-346.19 1190.07,-352.54"/>
</g>
</g>
</svg>
