<?xml version="1.0" encoding="UTF-8" standalone="no"?>
<!DOCTYPE svg PUBLIC "-//W3C//DTD SVG 1.1//EN"
 "http://www.w3.org/Graphics/SVG/1.1/DTD/svg11.dtd">
<!-- Generated by graphviz version 2.50.0 (0)
 -->
<!-- Title: G Pages: 1 -->
<svg width="1074pt" height="706pt"
 viewBox="0.00 0.00 1074.00 706.00" xmlns="http://www.w3.org/2000/svg" xmlns:xlink="http://www.w3.org/1999/xlink">
<g id="graph0" class="graph" transform="scale(1 1) rotate(0) translate(4 702)">
<title>G</title>
<polygon fill="white" stroke="transparent" points="-4,4 -4,-702 1070,-702 1070,4 -4,4"/>
<text text-anchor="middle" x="533" y="-681.2" font-family="Times,serif" font-size="16.00">model=model3/nbcb_w_mixed.json [machine 84]</text>
<!-- volt -->
<g id="node1" class="node">
<title>volt</title>
<path fill="white" stroke="black" d="M163,-339C163,-339 133,-339 133,-339 127,-339 121,-333 121,-327 121,-327 121,-315 121,-315 121,-309 127,-303 133,-303 133,-303 163,-303 163,-303 169,-303 175,-309 175,-315 175,-315 175,-327 175,-327 175,-333 169,-339 163,-339"/>
<text text-anchor="middle" x="148" y="-317.3" font-family="Helvetica,sans-Serif" font-size="14.00">volt</text>
</g>
<!-- pressure -->
<g id="node3" class="node">
<title>pressure</title>
<path fill="white" stroke="black" d="M276,-485C276,-485 223,-485 223,-485 217,-485 211,-479 211,-473 211,-473 211,-461 211,-461 211,-455 217,-449 223,-449 223,-449 276,-449 276,-449 282,-449 288,-455 288,-461 288,-461 288,-473 288,-473 288,-479 282,-485 276,-485"/>
<text text-anchor="middle" x="249.5" y="-463.3" font-family="Helvetica,sans-Serif" font-size="14.00">pressure</text>
</g>
<!-- volt&#45;&gt;pressure -->
<g id="edge2" class="edge">
<title>volt&#45;&gt;pressure</title>
<path fill="none" stroke="black" stroke-width="1.2" d="M156.41,-339.22C166.54,-362.83 186.31,-404.55 211,-435 212.87,-437.31 214.92,-439.57 217.07,-441.77"/>
<polygon fill="black" stroke="black" stroke-width="1.2" points="214.97,-444.6 224.64,-448.94 219.78,-439.52 214.97,-444.6"/>
</g>
<!-- fail_comp1 -->
<g id="node14" class="node">
<title>fail_comp1</title>
<path fill="white" stroke="black" d="M518,-530C518,-530 450,-530 450,-530 444,-530 438,-524 438,-518 438,-518 438,-506 438,-506 438,-500 444,-494 450,-494 450,-494 518,-494 518,-494 524,-494 530,-500 530,-506 530,-506 530,-518 530,-518 530,-524 524,-530 518,-530"/>
<text text-anchor="middle" x="484" y="-508.3" font-family="Helvetica,sans-Serif" font-size="14.00">fail_comp1</text>
</g>
<!-- volt&#45;&gt;fail_comp1 -->
<g id="edge5" class="edge">
<title>volt&#45;&gt;fail_comp1</title>
<path fill="none" stroke="black" stroke-width="1.2" d="M175.21,-335.99C233.2,-369.15 372.71,-448.93 442.22,-488.68"/>
<polygon fill="black" stroke="black" stroke-width="1.2" points="440.73,-491.86 451.14,-493.78 444.2,-485.78 440.73,-491.86"/>
</g>
<!-- rotate -->
<g id="node2" class="node">
<title>rotate</title>
<path fill="white" stroke="black" d="M500.5,-270C500.5,-270 467.5,-270 467.5,-270 461.5,-270 455.5,-264 455.5,-258 455.5,-258 455.5,-246 455.5,-246 455.5,-240 461.5,-234 467.5,-234 467.5,-234 500.5,-234 500.5,-234 506.5,-234 512.5,-240 512.5,-246 512.5,-246 512.5,-258 512.5,-258 512.5,-264 506.5,-270 500.5,-270"/>
<text text-anchor="middle" x="484" y="-248.3" font-family="Helvetica,sans-Serif" font-size="14.00">rotate</text>
</g>
<!-- rotate&#45;&gt;volt -->
<g id="edge1" class="edge">
<title>rotate&#45;&gt;volt</title>
<path fill="none" stroke="black" stroke-width="1.2" d="M455.04,-257.78C394.74,-270.23 252.49,-299.62 185.32,-313.5"/>
<polygon fill="black" stroke="black" stroke-width="1.2" points="184.29,-310.13 175.21,-315.59 185.71,-316.99 184.29,-310.13"/>
</g>
<!-- err_error1 -->
<g id="node5" class="node">
<title>err_error1</title>
<path fill="white" stroke="black" d="M779.5,-178C779.5,-178 718.5,-178 718.5,-178 712.5,-178 706.5,-172 706.5,-166 706.5,-166 706.5,-154 706.5,-154 706.5,-148 712.5,-142 718.5,-142 718.5,-142 779.5,-142 779.5,-142 785.5,-142 791.5,-148 791.5,-154 791.5,-154 791.5,-166 791.5,-166 791.5,-172 785.5,-178 779.5,-178"/>
<text text-anchor="middle" x="749" y="-156.3" font-family="Helvetica,sans-Serif" font-size="14.00">err_error1</text>
</g>
<!-- rotate&#45;&gt;err_error1 -->
<g id="edge7" class="edge">
<title>rotate&#45;&gt;err_error1</title>
<path fill="none" stroke="black" stroke-width="1.2" d="M512.65,-242.33C556.19,-227.1 641.45,-197.27 696.51,-178.01"/>
<polygon fill="black" stroke="black" stroke-width="1.2" points="697.8,-181.27 706.09,-174.66 695.49,-174.66 697.8,-181.27"/>
</g>
<!-- err_error3 -->
<g id="node7" class="node">
<title>err_error3</title>
<path fill="white" stroke="black" d="M645.5,-178C645.5,-178 584.5,-178 584.5,-178 578.5,-178 572.5,-172 572.5,-166 572.5,-166 572.5,-154 572.5,-154 572.5,-148 578.5,-142 584.5,-142 584.5,-142 645.5,-142 645.5,-142 651.5,-142 657.5,-148 657.5,-154 657.5,-154 657.5,-166 657.5,-166 657.5,-172 651.5,-178 645.5,-178"/>
<text text-anchor="middle" x="615" y="-156.3" font-family="Helvetica,sans-Serif" font-size="14.00">err_error3</text>
</g>
<!-- rotate&#45;&gt;err_error3 -->
<g id="edge8" class="edge">
<title>rotate&#45;&gt;err_error3</title>
<path fill="none" stroke="black" stroke-width="1.2" d="M517.18,-227.6C531.93,-216.56 549.72,-203.44 566,-192 569.89,-189.26 573.99,-186.44 578.09,-183.66"/>
<polygon fill="black" stroke="black" stroke-width="1.2" points="514.77,-225.03 508.87,-233.83 518.97,-230.63 514.77,-225.03"/>
<polygon fill="black" stroke="black" stroke-width="1.2" points="580.09,-186.53 586.43,-178.04 576.18,-180.73 580.09,-186.53"/>
</g>
<!-- err_error4 -->
<g id="node8" class="node">
<title>err_error4</title>
<path fill="white" stroke="black" d="M645.5,-362C645.5,-362 584.5,-362 584.5,-362 578.5,-362 572.5,-356 572.5,-350 572.5,-350 572.5,-338 572.5,-338 572.5,-332 578.5,-326 584.5,-326 584.5,-326 645.5,-326 645.5,-326 651.5,-326 657.5,-332 657.5,-338 657.5,-338 657.5,-350 657.5,-350 657.5,-356 651.5,-362 645.5,-362"/>
<text text-anchor="middle" x="615" y="-340.3" font-family="Helvetica,sans-Serif" font-size="14.00">err_error4</text>
</g>
<!-- rotate&#45;&gt;err_error4 -->
<g id="edge9" class="edge">
<title>rotate&#45;&gt;err_error4</title>
<path fill="none" stroke="black" stroke-width="1.2" d="M508.87,-270.17C524.89,-282.23 546.53,-298.31 566,-312 569.89,-314.74 573.99,-317.56 578.09,-320.34"/>
<polygon fill="black" stroke="black" stroke-width="1.2" points="576.18,-323.27 586.43,-325.96 580.09,-317.47 576.18,-323.27"/>
</g>
<!-- fail_comp2 -->
<g id="node15" class="node">
<title>fail_comp2</title>
<path fill="white" stroke="black" d="M649,-270C649,-270 581,-270 581,-270 575,-270 569,-264 569,-258 569,-258 569,-246 569,-246 569,-240 575,-234 581,-234 581,-234 649,-234 649,-234 655,-234 661,-240 661,-246 661,-246 661,-258 661,-258 661,-264 655,-270 649,-270"/>
<text text-anchor="middle" x="615" y="-248.3" font-family="Helvetica,sans-Serif" font-size="14.00">fail_comp2</text>
</g>
<!-- rotate&#45;&gt;fail_comp2 -->
<g id="edge11" class="edge">
<title>rotate&#45;&gt;fail_comp2</title>
<path fill="none" stroke="black" stroke-width="1.2" d="M522.75,-252C534.03,-252 546.64,-252 558.8,-252"/>
<polygon fill="black" stroke="black" stroke-width="1.2" points="522.67,-248.5 512.67,-252 522.67,-255.5 522.67,-248.5"/>
<polygon fill="black" stroke="black" stroke-width="1.2" points="558.87,-255.5 568.87,-252 558.87,-248.5 558.87,-255.5"/>
</g>
<!-- vibration -->
<g id="node4" class="node">
<title>vibration</title>
<path fill="white" stroke="black" d="M390,-393C390,-393 336,-393 336,-393 330,-393 324,-387 324,-381 324,-381 324,-369 324,-369 324,-363 330,-357 336,-357 336,-357 390,-357 390,-357 396,-357 402,-363 402,-369 402,-369 402,-381 402,-381 402,-387 396,-393 390,-393"/>
<text text-anchor="middle" x="363" y="-371.3" font-family="Helvetica,sans-Serif" font-size="14.00">vibration</text>
</g>
<!-- pressure&#45;&gt;vibration -->
<g id="edge12" class="edge">
<title>pressure&#45;&gt;vibration</title>
<path fill="none" stroke="black" stroke-width="1.2" d="M272.53,-448.82C289.56,-434.77 313.31,-415.18 332.06,-399.71"/>
<polygon fill="black" stroke="black" stroke-width="1.2" points="334.53,-402.2 340.02,-393.14 330.08,-396.8 334.53,-402.2"/>
</g>
<!-- pressure&#45;&gt;fail_comp1 -->
<g id="edge18" class="edge">
<title>pressure&#45;&gt;fail_comp1</title>
<path fill="none" stroke="black" stroke-width="1.2" d="M298.12,-476.22C335.77,-483.5 388.4,-493.69 427.87,-501.33"/>
<polygon fill="black" stroke="black" stroke-width="1.2" points="298.6,-472.74 288.11,-474.28 297.27,-479.62 298.6,-472.74"/>
<polygon fill="black" stroke="black" stroke-width="1.2" points="427.38,-504.8 437.87,-503.26 428.71,-497.93 427.38,-504.8"/>
</g>
<!-- vibration&#45;&gt;rotate -->
<g id="edge6" class="edge">
<title>vibration&#45;&gt;rotate</title>
<path fill="none" stroke="black" stroke-width="1.2" d="M381.56,-356.85C401.86,-335.87 435.42,-301.18 458.33,-277.5"/>
<polygon fill="black" stroke="black" stroke-width="1.2" points="460.93,-279.84 465.37,-270.22 455.9,-274.98 460.93,-279.84"/>
</g>
<!-- vibration&#45;&gt;err_error1 -->
<g id="edge19" class="edge">
<title>vibration&#45;&gt;err_error1</title>
<path fill="none" stroke="black" stroke-width="1.2" d="M402.12,-386.87C463.32,-403.42 584.66,-425.68 664,-371 724.84,-329.07 741.62,-235.46 746.24,-188.3"/>
<polygon fill="black" stroke="black" stroke-width="1.2" points="749.74,-188.44 747.12,-178.17 742.77,-187.83 749.74,-188.44"/>
</g>
<!-- vibration&#45;&gt;err_error4 -->
<g id="edge21" class="edge">
<title>vibration&#45;&gt;err_error4</title>
<path fill="none" stroke="black" stroke-width="1.2" d="M412.37,-369C455.5,-363.65 518.44,-355.85 562.5,-350.39"/>
<polygon fill="black" stroke="black" stroke-width="1.2" points="411.74,-365.55 402.24,-370.26 412.6,-372.5 411.74,-365.55"/>
<polygon fill="black" stroke="black" stroke-width="1.2" points="562.93,-353.86 572.43,-349.15 562.07,-346.91 562.93,-353.86"/>
</g>
<!-- mnt_comp3 -->
<g id="node12" class="node">
<title>mnt_comp3</title>
<path fill="white" stroke="black" d="M920,-419C920,-419 846,-419 846,-419 840,-419 834,-413 834,-407 834,-407 834,-395 834,-395 834,-389 840,-383 846,-383 846,-383 920,-383 920,-383 926,-383 932,-389 932,-395 932,-395 932,-407 932,-407 932,-413 926,-419 920,-419"/>
<text text-anchor="middle" x="883" y="-397.3" font-family="Helvetica,sans-Serif" font-size="14.00">mnt_comp3</text>
</g>
<!-- vibration&#45;&gt;mnt_comp3 -->
<g id="edge22" class="edge">
<title>vibration&#45;&gt;mnt_comp3</title>
<path fill="none" stroke="black" stroke-width="1.2" d="M399.81,-398.33C411.51,-404.71 424.87,-410.75 438,-414 572.88,-447.37 737.83,-427.33 823.72,-412.53"/>
<polygon fill="black" stroke="black" stroke-width="1.2" points="401.24,-395.12 390.83,-393.19 397.77,-401.2 401.24,-395.12"/>
<polygon fill="black" stroke="black" stroke-width="1.2" points="824.55,-415.93 833.79,-410.75 823.34,-409.04 824.55,-415.93"/>
</g>
<!-- vibration&#45;&gt;fail_comp1 -->
<g id="edge24" class="edge">
<title>vibration&#45;&gt;fail_comp1</title>
<path fill="none" stroke="black" stroke-width="1.2" d="M388.74,-393.25C393.49,-397.44 398.17,-402.11 402,-407 424.31,-435.48 414.55,-452.46 438,-480 440.18,-482.55 442.6,-485.01 445.16,-487.34"/>
<polygon fill="black" stroke="black" stroke-width="1.2" points="443.21,-490.27 453.14,-493.96 447.68,-484.88 443.21,-490.27"/>
</g>
<!-- err_error1&#45;&gt;volt -->
<g id="edge3" class="edge">
<title>err_error1&#45;&gt;volt</title>
<path fill="none" stroke="black" stroke-width="1.2" d="M714.63,-141.98C665.72,-117.3 571.04,-76 485,-76 362,-76 362,-76 362,-76 247.78,-76 180.92,-229.54 158.01,-293.52"/>
<polygon fill="black" stroke="black" stroke-width="1.2" points="154.7,-292.39 154.71,-302.98 161.31,-294.69 154.7,-292.39"/>
</g>
<!-- err_error1&#45;&gt;pressure -->
<g id="edge13" class="edge">
<title>err_error1&#45;&gt;pressure</title>
<path fill="none" stroke="black" stroke-width="1.2" d="M706.32,-143.78C693.01,-139.37 678.07,-135.21 664,-133 563.15,-117.19 521.83,-115.75 438,-174 339.98,-242.11 281.56,-379.68 260.01,-438.87"/>
<polygon fill="black" stroke="black" stroke-width="1.2" points="256.58,-438.06 256.53,-448.66 263.18,-440.41 256.58,-438.06"/>
</g>
<!-- err_error1&#45;&gt;mnt_comp3 -->
<g id="edge27" class="edge">
<title>err_error1&#45;&gt;mnt_comp3</title>
<path fill="none" stroke="black" stroke-width="1.2" d="M759.92,-178.11C782.9,-220.07 839.89,-324.12 867.09,-373.78"/>
<polygon fill="black" stroke="black" stroke-width="1.2" points="864.09,-375.59 871.96,-382.68 870.23,-372.22 864.09,-375.59"/>
</g>
<!-- err_error2 -->
<g id="node6" class="node">
<title>err_error2</title>
<path fill="white" stroke="black" d="M73,-339C73,-339 12,-339 12,-339 6,-339 0,-333 0,-327 0,-327 0,-315 0,-315 0,-309 6,-303 12,-303 12,-303 73,-303 73,-303 79,-303 85,-309 85,-315 85,-315 85,-327 85,-327 85,-333 79,-339 73,-339"/>
<text text-anchor="middle" x="42.5" y="-317.3" font-family="Helvetica,sans-Serif" font-size="14.00">err_error2</text>
</g>
<!-- err_error2&#45;&gt;volt -->
<g id="edge4" class="edge">
<title>err_error2&#45;&gt;volt</title>
<path fill="none" stroke="black" stroke-width="1.2" d="M85,-321C93.54,-321 102.47,-321 110.81,-321"/>
<polygon fill="black" stroke="black" stroke-width="1.2" points="110.97,-324.5 120.97,-321 110.97,-317.5 110.97,-324.5"/>
</g>
<!-- err_error2&#45;&gt;pressure -->
<g id="edge14" class="edge">
<title>err_error2&#45;&gt;pressure</title>
<path fill="none" stroke="black" stroke-width="1.2" d="M69.05,-339.2C105.82,-365.39 173.74,-413.76 214.65,-442.89"/>
<polygon fill="black" stroke="black" stroke-width="1.2" points="212.78,-445.85 222.95,-448.8 216.84,-440.15 212.78,-445.85"/>
</g>
<!-- err_error2&#45;&gt;err_error1 -->
<g id="edge25" class="edge">
<title>err_error2&#45;&gt;err_error1</title>
<path fill="none" stroke="black" stroke-width="1.2" d="M47.25,-302.87C61.35,-240.41 117.15,-38 248.5,-38 248.5,-38 248.5,-38 485,-38 566.92,-38 591.9,-43.1 664,-82 688.3,-95.11 710.94,-116.92 726.57,-134.15"/>
<polygon fill="black" stroke="black" stroke-width="1.2" points="724,-136.52 733.24,-141.7 729.24,-131.89 724,-136.52"/>
</g>
<!-- err_error2&#45;&gt;err_error3 -->
<g id="edge28" class="edge">
<title>err_error2&#45;&gt;err_error3</title>
<path fill="none" stroke="black" stroke-width="1.2" d="M54.61,-302.84C81.93,-260.74 156.86,-160 248.5,-160 248.5,-160 248.5,-160 364,-160 432.62,-160 511.84,-160 562.39,-160"/>
<polygon fill="black" stroke="black" stroke-width="1.2" points="562.42,-163.5 572.42,-160 562.42,-156.5 562.42,-163.5"/>
</g>
<!-- mnt_comp2 -->
<g id="node11" class="node">
<title>mnt_comp2</title>
<path fill="white" stroke="black" d="M786,-568C786,-568 712,-568 712,-568 706,-568 700,-562 700,-556 700,-556 700,-544 700,-544 700,-538 706,-532 712,-532 712,-532 786,-532 786,-532 792,-532 798,-538 798,-544 798,-544 798,-556 798,-556 798,-562 792,-568 786,-568"/>
<text text-anchor="middle" x="749" y="-546.3" font-family="Helvetica,sans-Serif" font-size="14.00">mnt_comp2</text>
</g>
<!-- err_error2&#45;&gt;mnt_comp2 -->
<g id="edge29" class="edge">
<title>err_error2&#45;&gt;mnt_comp2</title>
<path fill="none" stroke="black" stroke-width="1.2" d="M45.26,-339.38C53.26,-411.6 92.89,-672 248.5,-672 248.5,-672 248.5,-672 485,-672 568.49,-672 590.08,-653.81 664,-615 684.58,-604.2 705.25,-588.28 720.94,-574.9"/>
<polygon fill="black" stroke="black" stroke-width="1.2" points="723.42,-577.38 728.67,-568.17 718.83,-572.1 723.42,-577.38"/>
</g>
<!-- mnt_comp4 -->
<g id="node13" class="node">
<title>mnt_comp4</title>
<path fill="white" stroke="black" d="M1054,-461C1054,-461 980,-461 980,-461 974,-461 968,-455 968,-449 968,-449 968,-437 968,-437 968,-431 974,-425 980,-425 980,-425 1054,-425 1054,-425 1060,-425 1066,-431 1066,-437 1066,-437 1066,-449 1066,-449 1066,-455 1060,-461 1054,-461"/>
<text text-anchor="middle" x="1017" y="-439.3" font-family="Helvetica,sans-Serif" font-size="14.00">mnt_comp4</text>
</g>
<!-- err_error2&#45;&gt;mnt_comp4 -->
<g id="edge30" class="edge">
<title>err_error2&#45;&gt;mnt_comp4</title>
<path fill="none" stroke="black" stroke-width="1.2" d="M43.87,-302.96C45.75,-256.61 56.85,-131.85 121,-58 161.83,-11 186.25,0 248.5,0 248.5,0 248.5,0 750,0 944.34,0 1000.25,-317.22 1012.85,-414.79"/>
<polygon fill="black" stroke="black" stroke-width="1.2" points="1009.39,-415.31 1014.09,-424.81 1016.34,-414.45 1009.39,-415.31"/>
</g>
<!-- err_error2&#45;&gt;fail_comp1 -->
<g id="edge31" class="edge">
<title>err_error2&#45;&gt;fail_comp1</title>
<path fill="none" stroke="black" stroke-width="1.2" d="M54.09,-339.02C77.1,-376.19 135.69,-460.67 211,-494 280.87,-524.92 370.8,-524 427.69,-519.1"/>
<polygon fill="black" stroke="black" stroke-width="1.2" points="428.29,-522.56 437.92,-518.15 427.64,-515.59 428.29,-522.56"/>
</g>
<!-- err_error3&#45;&gt;vibration -->
<g id="edge20" class="edge">
<title>err_error3&#45;&gt;vibration</title>
<path fill="none" stroke="black" stroke-width="1.2" d="M572.44,-166.29C533.59,-174.08 476,-190.78 438,-225 401.4,-257.97 380.81,-313.11 371.09,-346.56"/>
<polygon fill="black" stroke="black" stroke-width="1.2" points="367.6,-346.03 368.3,-356.6 374.35,-347.9 367.6,-346.03"/>
</g>
<!-- err_error3&#45;&gt;err_error1 -->
<g id="edge26" class="edge">
<title>err_error3&#45;&gt;err_error1</title>
<path fill="none" stroke="black" stroke-width="1.2" d="M657.77,-160C669.8,-160 683.09,-160 695.68,-160"/>
<polygon fill="black" stroke="black" stroke-width="1.2" points="696.05,-163.5 706.05,-160 696.05,-156.5 696.05,-163.5"/>
</g>
<!-- err_error4&#45;&gt;pressure -->
<g id="edge15" class="edge">
<title>err_error4&#45;&gt;pressure</title>
<path fill="none" stroke="black" stroke-width="1.2" d="M572.36,-332.81C512.95,-319.31 402.41,-303.56 324,-348 289.57,-367.52 269.19,-410.42 258.92,-439.02"/>
<polygon fill="black" stroke="black" stroke-width="1.2" points="255.49,-438.24 255.59,-448.83 262.12,-440.49 255.49,-438.24"/>
</g>
<!-- err_error5 -->
<g id="node9" class="node">
<title>err_error5</title>
<path fill="white" stroke="black" d="M779.5,-400C779.5,-400 718.5,-400 718.5,-400 712.5,-400 706.5,-394 706.5,-388 706.5,-388 706.5,-376 706.5,-376 706.5,-370 712.5,-364 718.5,-364 718.5,-364 779.5,-364 779.5,-364 785.5,-364 791.5,-370 791.5,-376 791.5,-376 791.5,-388 791.5,-388 791.5,-394 785.5,-400 779.5,-400"/>
<text text-anchor="middle" x="749" y="-378.3" font-family="Helvetica,sans-Serif" font-size="14.00">err_error5</text>
</g>
<!-- err_error5&#45;&gt;mnt_comp3 -->
<g id="edge32" class="edge">
<title>err_error5&#45;&gt;mnt_comp3</title>
<path fill="none" stroke="black" stroke-width="1.2" d="M791.77,-388.01C801.84,-389.46 812.79,-391.04 823.47,-392.58"/>
<polygon fill="black" stroke="black" stroke-width="1.2" points="823.2,-396.07 833.6,-394.03 824.2,-389.14 823.2,-396.07"/>
</g>
<!-- mnt_comp1 -->
<g id="node10" class="node">
<title>mnt_comp1</title>
<path fill="white" stroke="black" d="M652,-606C652,-606 578,-606 578,-606 572,-606 566,-600 566,-594 566,-594 566,-582 566,-582 566,-576 572,-570 578,-570 578,-570 652,-570 652,-570 658,-570 664,-576 664,-582 664,-582 664,-594 664,-594 664,-600 658,-606 652,-606"/>
<text text-anchor="middle" x="615" y="-584.3" font-family="Helvetica,sans-Serif" font-size="14.00">mnt_comp1</text>
</g>
<!-- mnt_comp1&#45;&gt;pressure -->
<g id="edge16" class="edge">
<title>mnt_comp1&#45;&gt;pressure</title>
<path fill="none" stroke="black" stroke-width="1.2" d="M565.88,-576.59C507.61,-562.12 406.93,-535.04 324,-502 314.55,-498.23 304.6,-493.82 295.18,-489.41"/>
<polygon fill="black" stroke="black" stroke-width="1.2" points="296.51,-486.17 285.97,-485.04 293.5,-492.49 296.51,-486.17"/>
</g>
<!-- mnt_comp1&#45;&gt;mnt_comp2 -->
<g id="edge33" class="edge">
<title>mnt_comp1&#45;&gt;mnt_comp2</title>
<path fill="none" stroke="black" stroke-width="1.2" d="M664.03,-574.17C672.49,-571.74 681.38,-569.18 690.08,-566.67"/>
<polygon fill="black" stroke="black" stroke-width="1.2" points="691.14,-570.01 699.79,-563.88 689.21,-563.28 691.14,-570.01"/>
</g>
<!-- mnt_comp1&#45;&gt;mnt_comp4 -->
<g id="edge34" class="edge">
<title>mnt_comp1&#45;&gt;mnt_comp4</title>
<path fill="none" stroke="black" stroke-width="1.2" d="M664.29,-591.38C701.65,-592.51 754.23,-590.82 798,-577 872.36,-553.53 947.23,-499.25 986.95,-467.45"/>
<polygon fill="black" stroke="black" stroke-width="1.2" points="989.32,-470.03 994.89,-461.02 984.91,-464.6 989.32,-470.03"/>
</g>
<!-- mnt_comp2&#45;&gt;rotate -->
<g id="edge10" class="edge">
<title>mnt_comp2&#45;&gt;rotate</title>
<path fill="none" stroke="black" stroke-width="1.2" d="M741.87,-531.68C723.88,-478.11 672.01,-325.03 664,-317 658.77,-311.76 573.28,-282.05 522.37,-264.66"/>
<polygon fill="black" stroke="black" stroke-width="1.2" points="523.28,-261.28 512.68,-261.36 521.02,-267.9 523.28,-261.28"/>
</g>
<!-- mnt_comp3&#45;&gt;mnt_comp4 -->
<g id="edge38" class="edge">
<title>mnt_comp3&#45;&gt;mnt_comp4</title>
<path fill="none" stroke="black" stroke-width="1.2" d="M932.03,-416.28C940.49,-418.97 949.38,-421.8 958.08,-424.57"/>
<polygon fill="black" stroke="black" stroke-width="1.2" points="957.2,-427.96 967.79,-427.66 959.32,-421.29 957.2,-427.96"/>
</g>
<!-- mnt_comp4&#45;&gt;pressure -->
<g id="edge17" class="edge">
<title>mnt_comp4&#45;&gt;pressure</title>
<path fill="none" stroke="black" stroke-width="1.2" d="M1006.16,-461.1C992.47,-484.7 965.53,-525.83 932,-550 797.98,-646.61 728.81,-643.07 566,-615 453.51,-595.61 423,-585.82 324,-529 306.45,-518.93 289.04,-504.49 275.58,-492.09"/>
<polygon fill="black" stroke="black" stroke-width="1.2" points="277.81,-489.38 268.13,-485.06 273,-494.47 277.81,-489.38"/>
</g>
<!-- mnt_comp4&#45;&gt;vibration -->
<g id="edge23" class="edge">
<title>mnt_comp4&#45;&gt;vibration</title>
<path fill="none" stroke="black" stroke-width="1.2" d="M967.57,-449.71C914.34,-456.5 826.25,-466 750,-466 614,-466 614,-466 614,-466 534.57,-466 510.27,-467.95 438,-435 419.63,-426.62 401.96,-412.6 388.49,-400.21"/>
<polygon fill="black" stroke="black" stroke-width="1.2" points="390.74,-397.52 381.08,-393.16 385.91,-402.59 390.74,-397.52"/>
</g>
<!-- fail_comp1&#45;&gt;mnt_comp1 -->
<g id="edge35" class="edge">
<title>fail_comp1&#45;&gt;mnt_comp1</title>
<path fill="none" stroke="black" stroke-width="1.2" d="M515.57,-530.01C533.19,-540.39 555.54,-553.56 574.49,-564.72"/>
<polygon fill="black" stroke="black" stroke-width="1.2" points="572.81,-567.79 583.2,-569.85 576.36,-561.76 572.81,-567.79"/>
</g>
<!-- fail_comp1&#45;&gt;mnt_comp2 -->
<g id="edge36" class="edge">
<title>fail_comp1&#45;&gt;mnt_comp2</title>
<path fill="none" stroke="black" stroke-width="1.2" d="M530.21,-518.53C574.36,-524.91 641.75,-534.65 689.86,-541.6"/>
<polygon fill="black" stroke="black" stroke-width="1.2" points="689.42,-545.07 699.82,-543.04 690.42,-538.14 689.42,-545.07"/>
</g>
<!-- fail_comp1&#45;&gt;mnt_comp3 -->
<g id="edge39" class="edge">
<title>fail_comp1&#45;&gt;mnt_comp3</title>
<path fill="none" stroke="black" stroke-width="1.2" d="M530.24,-505.3C591.93,-495.4 705.38,-474.46 798,-442 812.05,-437.08 826.82,-430.42 839.98,-423.9"/>
<polygon fill="black" stroke="black" stroke-width="1.2" points="841.91,-426.84 849.25,-419.2 838.75,-420.6 841.91,-426.84"/>
</g>
<!-- fail_comp2&#45;&gt;mnt_comp2 -->
<g id="edge37" class="edge">
<title>fail_comp2&#45;&gt;mnt_comp2</title>
<path fill="none" stroke="black" stroke-width="1.2" d="M650.11,-270.27C655.32,-274.24 660.22,-278.83 664,-284 698.14,-330.66 682.68,-353.84 700,-409 712.42,-448.55 728.11,-493.86 738.1,-522.21"/>
<polygon fill="black" stroke="black" stroke-width="1.2" points="734.87,-523.58 741.51,-531.84 741.47,-521.24 734.87,-523.58"/>
</g>
<!-- fail_comp2&#45;&gt;mnt_comp3 -->
<g id="edge40" class="edge">
<title>fail_comp2&#45;&gt;mnt_comp3</title>
<path fill="none" stroke="black" stroke-width="1.2" d="M648.35,-270.12C696.65,-297.17 787.59,-348.11 840.65,-377.84"/>
<polygon fill="black" stroke="black" stroke-width="1.2" points="839.02,-380.94 849.46,-382.77 842.44,-374.83 839.02,-380.94"/>
</g>
<!-- fail_comp2&#45;&gt;mnt_comp4 -->
<g id="edge41" class="edge">
<title>fail_comp2&#45;&gt;mnt_comp4</title>
<path fill="none" stroke="black" stroke-width="1.2" d="M661.25,-259.17C698.78,-265.99 753.06,-277.94 798,-296 861.94,-321.7 875.42,-334.67 932,-374 951.4,-387.48 971.91,-404.28 987.81,-417.92"/>
<polygon fill="black" stroke="black" stroke-width="1.2" points="985.82,-420.83 995.67,-424.74 990.41,-415.54 985.82,-420.83"/>
</g>
</g>
</svg>
