<?xml version="1.0" encoding="UTF-8" standalone="no"?>
<!DOCTYPE svg PUBLIC "-//W3C//DTD SVG 1.1//EN"
 "http://www.w3.org/Graphics/SVG/1.1/DTD/svg11.dtd">
<!-- Generated by graphviz version 2.50.0 (0)
 -->
<!-- Title: G Pages: 1 -->
<svg width="454pt" height="124pt"
 viewBox="0.00 0.00 454.00 124.00" xmlns="http://www.w3.org/2000/svg" xmlns:xlink="http://www.w3.org/1999/xlink">
<g id="graph0" class="graph" transform="scale(1 1) rotate(0) translate(4 120)">
<title>G</title>
<polygon fill="white" stroke="transparent" points="-4,4 -4,-120 450,-120 450,4 -4,4"/>
<text text-anchor="middle" x="223" y="-99.2" font-family="Times,serif" font-size="16.00">model=model4/nbcb_w_telemetry.json [machine 63]</text>
<!-- volt -->
<g id="node1" class="node">
<title>volt</title>
<path fill="white" stroke="black" d="M238.5,-90C238.5,-90 208.5,-90 208.5,-90 202.5,-90 196.5,-84 196.5,-78 196.5,-78 196.5,-66 196.5,-66 196.5,-60 202.5,-54 208.5,-54 208.5,-54 238.5,-54 238.5,-54 244.5,-54 250.5,-60 250.5,-66 250.5,-66 250.5,-78 250.5,-78 250.5,-84 244.5,-90 238.5,-90"/>
<text text-anchor="middle" x="223.5" y="-68.3" font-family="Helvetica,sans-Serif" font-size="14.00">volt</text>
</g>
<!-- pressure -->
<g id="node3" class="node">
<title>pressure</title>
<path fill="white" stroke="black" d="M353,-63C353,-63 300,-63 300,-63 294,-63 288,-57 288,-51 288,-51 288,-39 288,-39 288,-33 294,-27 300,-27 300,-27 353,-27 353,-27 359,-27 365,-33 365,-39 365,-39 365,-51 365,-51 365,-57 359,-63 353,-63"/>
<text text-anchor="middle" x="326.5" y="-41.3" font-family="Helvetica,sans-Serif" font-size="14.00">pressure</text>
</g>
<!-- volt&#45;&gt;pressure -->
<g id="edge1" class="edge">
<title>volt&#45;&gt;pressure</title>
<path fill="none" stroke="black" stroke-width="1.2" d="M250.51,-65.05C258.93,-62.8 268.54,-60.23 278.01,-57.7"/>
<polygon fill="black" stroke="black" stroke-width="1.2" points="279.02,-61.05 287.77,-55.09 277.21,-54.29 279.02,-61.05"/>
</g>
<!-- rotate -->
<g id="node2" class="node">
<title>rotate</title>
<path fill="white" stroke="black" d="M240,-36C240,-36 207,-36 207,-36 201,-36 195,-30 195,-24 195,-24 195,-12 195,-12 195,-6 201,0 207,0 207,0 240,0 240,0 246,0 252,-6 252,-12 252,-12 252,-24 252,-24 252,-30 246,-36 240,-36"/>
<text text-anchor="middle" x="223.5" y="-14.3" font-family="Helvetica,sans-Serif" font-size="14.00">rotate</text>
</g>
<!-- rotate&#45;&gt;pressure -->
<g id="edge2" class="edge">
<title>rotate&#45;&gt;pressure</title>
<path fill="none" stroke="black" stroke-width="1.2" d="M262.01,-28.03C267.13,-29.39 272.43,-30.81 277.7,-32.22"/>
<polygon fill="black" stroke="black" stroke-width="1.2" points="262.66,-24.58 252.1,-25.38 260.86,-31.34 262.66,-24.58"/>
<polygon fill="black" stroke="black" stroke-width="1.2" points="277.15,-35.7 287.71,-34.9 278.95,-28.93 277.15,-35.7"/>
</g>
<!-- vibration -->
<g id="node4" class="node">
<title>vibration</title>
<path fill="white" stroke="black" d="M147,-36C147,-36 93,-36 93,-36 87,-36 81,-30 81,-24 81,-24 81,-12 81,-12 81,-6 87,0 93,0 93,0 147,0 147,0 153,0 159,-6 159,-12 159,-12 159,-24 159,-24 159,-30 153,-36 147,-36"/>
<text text-anchor="middle" x="120" y="-14.3" font-family="Helvetica,sans-Serif" font-size="14.00">vibration</text>
</g>
<!-- vibration&#45;&gt;rotate -->
<g id="edge3" class="edge">
<title>vibration&#45;&gt;rotate</title>
<path fill="none" stroke="black" stroke-width="1.2" d="M159.08,-18C167.47,-18 176.35,-18 184.72,-18"/>
<polygon fill="black" stroke="black" stroke-width="1.2" points="184.98,-21.5 194.98,-18 184.98,-14.5 184.98,-21.5"/>
</g>
</g>
</svg>
