<?xml version="1.0" encoding="UTF-8" standalone="no"?>
<!DOCTYPE svg PUBLIC "-//W3C//DTD SVG 1.1//EN"
 "http://www.w3.org/Graphics/SVG/1.1/DTD/svg11.dtd">
<!-- Generated by graphviz version 2.50.0 (0)
 -->
<!-- Title: G Pages: 1 -->
<svg width="454pt" height="178pt"
 viewBox="0.00 0.00 454.00 178.00" xmlns="http://www.w3.org/2000/svg" xmlns:xlink="http://www.w3.org/1999/xlink">
<g id="graph0" class="graph" transform="scale(1 1) rotate(0) translate(4 174)">
<title>G</title>
<polygon fill="white" stroke="transparent" points="-4,4 -4,-174 450,-174 450,4 -4,4"/>
<text text-anchor="middle" x="223" y="-153.2" font-family="Times,serif" font-size="16.00">model=model1/nbcb_w_telemetry.json [machine 49]</text>
<!-- volt -->
<g id="node1" class="node">
<title>volt</title>
<path fill="white" stroke="black" d="M295,-63C295,-63 265,-63 265,-63 259,-63 253,-57 253,-51 253,-51 253,-39 253,-39 253,-33 259,-27 265,-27 265,-27 295,-27 295,-27 301,-27 307,-33 307,-39 307,-39 307,-51 307,-51 307,-57 301,-63 295,-63"/>
<text text-anchor="middle" x="280" y="-41.3" font-family="Helvetica,sans-Serif" font-size="14.00">volt</text>
</g>
<!-- rotate -->
<g id="node2" class="node">
<title>rotate</title>
<path fill="white" stroke="black" d="M194.5,-144C194.5,-144 161.5,-144 161.5,-144 155.5,-144 149.5,-138 149.5,-132 149.5,-132 149.5,-120 149.5,-120 149.5,-114 155.5,-108 161.5,-108 161.5,-108 194.5,-108 194.5,-108 200.5,-108 206.5,-114 206.5,-120 206.5,-120 206.5,-132 206.5,-132 206.5,-138 200.5,-144 194.5,-144"/>
<text text-anchor="middle" x="178" y="-122.3" font-family="Helvetica,sans-Serif" font-size="14.00">rotate</text>
</g>
<!-- pressure -->
<g id="node3" class="node">
<title>pressure</title>
<path fill="white" stroke="black" d="M204.5,-90C204.5,-90 151.5,-90 151.5,-90 145.5,-90 139.5,-84 139.5,-78 139.5,-78 139.5,-66 139.5,-66 139.5,-60 145.5,-54 151.5,-54 151.5,-54 204.5,-54 204.5,-54 210.5,-54 216.5,-60 216.5,-66 216.5,-66 216.5,-78 216.5,-78 216.5,-84 210.5,-90 204.5,-90"/>
<text text-anchor="middle" x="178" y="-68.3" font-family="Helvetica,sans-Serif" font-size="14.00">pressure</text>
</g>
<!-- pressure&#45;&gt;volt -->
<g id="edge1" class="edge">
<title>pressure&#45;&gt;volt</title>
<path fill="none" stroke="black" stroke-width="1.2" d="M216.52,-61.87C225.2,-59.52 234.42,-57.04 243.04,-54.71"/>
<polygon fill="black" stroke="black" stroke-width="1.2" points="244.06,-58.06 252.81,-52.07 242.24,-51.3 244.06,-58.06"/>
</g>
<!-- vibration -->
<g id="node4" class="node">
<title>vibration</title>
<path fill="white" stroke="black" d="M205,-36C205,-36 151,-36 151,-36 145,-36 139,-30 139,-24 139,-24 139,-12 139,-12 139,-6 145,0 151,0 151,0 205,0 205,0 211,0 217,-6 217,-12 217,-12 217,-24 217,-24 217,-30 211,-36 205,-36"/>
<text text-anchor="middle" x="178" y="-14.3" font-family="Helvetica,sans-Serif" font-size="14.00">vibration</text>
</g>
<!-- vibration&#45;&gt;volt -->
<g id="edge2" class="edge">
<title>vibration&#45;&gt;volt</title>
<path fill="none" stroke="black" stroke-width="1.2" d="M217.09,-28.28C225.57,-30.57 234.53,-32.99 242.92,-35.26"/>
<polygon fill="black" stroke="black" stroke-width="1.2" points="242.24,-38.7 252.8,-37.93 244.06,-31.94 242.24,-38.7"/>
</g>
</g>
</svg>
