<?xml version="1.0" encoding="UTF-8" standalone="no"?>
<!DOCTYPE svg PUBLIC "-//W3C//DTD SVG 1.1//EN"
 "http://www.w3.org/Graphics/SVG/1.1/DTD/svg11.dtd">
<!-- Generated by graphviz version 2.50.0 (0)
 -->
<!-- Title: G Pages: 1 -->
<svg width="1409pt" height="848pt"
 viewBox="0.00 0.00 1409.00 848.00" xmlns="http://www.w3.org/2000/svg" xmlns:xlink="http://www.w3.org/1999/xlink">
<g id="graph0" class="graph" transform="scale(1 1) rotate(0) translate(4 844)">
<title>G</title>
<polygon fill="white" stroke="transparent" points="-4,4 -4,-844 1405,-844 1405,4 -4,4"/>
<text text-anchor="middle" x="700.5" y="-823.2" font-family="Times,serif" font-size="16.00">model=model1/nbcb_w_mixed.json [machine 13]</text>
<!-- volt -->
<g id="node1" class="node">
<title>volt</title>
<path fill="white" stroke="black" d="M42,-428C42,-428 12,-428 12,-428 6,-428 0,-422 0,-416 0,-416 0,-404 0,-404 0,-398 6,-392 12,-392 12,-392 42,-392 42,-392 48,-392 54,-398 54,-404 54,-404 54,-416 54,-416 54,-422 48,-428 42,-428"/>
<text text-anchor="middle" x="27" y="-406.3" font-family="Helvetica,sans-Serif" font-size="14.00">volt</text>
</g>
<!-- rotate -->
<g id="node2" class="node">
<title>rotate</title>
<path fill="white" stroke="black" d="M135,-208C135,-208 102,-208 102,-208 96,-208 90,-202 90,-196 90,-196 90,-184 90,-184 90,-178 96,-172 102,-172 102,-172 135,-172 135,-172 141,-172 147,-178 147,-184 147,-184 147,-196 147,-196 147,-202 141,-208 135,-208"/>
<text text-anchor="middle" x="118.5" y="-186.3" font-family="Helvetica,sans-Serif" font-size="14.00">rotate</text>
</g>
<!-- volt&#45;&gt;rotate -->
<g id="edge1" class="edge">
<title>volt&#45;&gt;rotate</title>
<path fill="none" stroke="black" stroke-width="1.2" d="M34.81,-391.89C45.97,-362.41 68.99,-302.3 90,-252 94.76,-240.6 100.24,-228.14 105.04,-217.39"/>
<polygon fill="black" stroke="black" stroke-width="1.2" points="108.32,-218.64 109.23,-208.09 101.93,-215.77 108.32,-218.64"/>
</g>
<!-- vibration -->
<g id="node4" class="node">
<title>vibration</title>
<path fill="white" stroke="black" d="M725,-406C725,-406 671,-406 671,-406 665,-406 659,-400 659,-394 659,-394 659,-382 659,-382 659,-376 665,-370 671,-370 671,-370 725,-370 725,-370 731,-370 737,-376 737,-382 737,-382 737,-394 737,-394 737,-400 731,-406 725,-406"/>
<text text-anchor="middle" x="698" y="-384.3" font-family="Helvetica,sans-Serif" font-size="14.00">vibration</text>
</g>
<!-- volt&#45;&gt;vibration -->
<g id="edge2" class="edge">
<title>volt&#45;&gt;vibration</title>
<path fill="none" stroke="black" stroke-width="1.2" d="M46.31,-383.7C77.62,-342.16 145.76,-266 224.5,-266 224.5,-266 224.5,-266 464.5,-266 547.41,-266 629.86,-327.58 670.66,-363.24"/>
<polygon fill="black" stroke="black" stroke-width="1.2" points="43.48,-381.64 40.37,-391.76 49.12,-385.79 43.48,-381.64"/>
<polygon fill="black" stroke="black" stroke-width="1.2" points="668.46,-365.96 678.25,-370 673.11,-360.73 668.46,-365.96"/>
</g>
<!-- err_error1 -->
<g id="node5" class="node">
<title>err_error1</title>
<path fill="white" stroke="black" d="M377,-558C377,-558 316,-558 316,-558 310,-558 304,-552 304,-546 304,-546 304,-534 304,-534 304,-528 310,-522 316,-522 316,-522 377,-522 377,-522 383,-522 389,-528 389,-534 389,-534 389,-546 389,-546 389,-552 383,-558 377,-558"/>
<text text-anchor="middle" x="346.5" y="-536.3" font-family="Helvetica,sans-Serif" font-size="14.00">err_error1</text>
</g>
<!-- volt&#45;&gt;err_error1 -->
<g id="edge3" class="edge">
<title>volt&#45;&gt;err_error1</title>
<path fill="none" stroke="black" stroke-width="1.2" d="M37.84,-437.85C47.44,-460.66 64.39,-491.74 90,-508 151.69,-547.17 238.77,-549.36 293.67,-545.83"/>
<polygon fill="black" stroke="black" stroke-width="1.2" points="41,-436.33 34.05,-428.34 34.5,-438.92 41,-436.33"/>
<polygon fill="black" stroke="black" stroke-width="1.2" points="294.15,-549.31 303.86,-545.09 293.63,-542.32 294.15,-549.31"/>
</g>
<!-- err_error2 -->
<g id="node6" class="node">
<title>err_error2</title>
<path fill="white" stroke="black" d="M256,-428C256,-428 195,-428 195,-428 189,-428 183,-422 183,-416 183,-416 183,-404 183,-404 183,-398 189,-392 195,-392 195,-392 256,-392 256,-392 262,-392 268,-398 268,-404 268,-404 268,-416 268,-416 268,-422 262,-428 256,-428"/>
<text text-anchor="middle" x="225.5" y="-406.3" font-family="Helvetica,sans-Serif" font-size="14.00">err_error2</text>
</g>
<!-- volt&#45;&gt;err_error2 -->
<g id="edge4" class="edge">
<title>volt&#45;&gt;err_error2</title>
<path fill="none" stroke="black" stroke-width="1.2" d="M54.09,-410C84.15,-410 134.3,-410 172.43,-410"/>
<polygon fill="black" stroke="black" stroke-width="1.2" points="172.84,-413.5 182.84,-410 172.84,-406.5 172.84,-413.5"/>
</g>
<!-- err_error5 -->
<g id="node9" class="node">
<title>err_error5</title>
<path fill="white" stroke="black" d="M611,-558C611,-558 550,-558 550,-558 544,-558 538,-552 538,-546 538,-546 538,-534 538,-534 538,-528 544,-522 550,-522 550,-522 611,-522 611,-522 617,-522 623,-528 623,-534 623,-534 623,-546 623,-546 623,-552 617,-558 611,-558"/>
<text text-anchor="middle" x="580.5" y="-536.3" font-family="Helvetica,sans-Serif" font-size="14.00">err_error5</text>
</g>
<!-- volt&#45;&gt;err_error5 -->
<g id="edge5" class="edge">
<title>volt&#45;&gt;err_error5</title>
<path fill="none" stroke="black" stroke-width="1.2" d="M41.72,-428.2C53.1,-441.93 70.53,-460.04 90,-470 144.06,-497.65 163.78,-494 224.5,-494 224.5,-494 224.5,-494 347.5,-494 410.43,-494 481.16,-510.49 527.8,-523.72"/>
<polygon fill="black" stroke="black" stroke-width="1.2" points="527.08,-527.16 537.66,-526.57 529.03,-520.43 527.08,-527.16"/>
</g>
<!-- fail_comp1 -->
<g id="node14" class="node">
<title>fail_comp1</title>
<path fill="white" stroke="black" d="M853,-536C853,-536 785,-536 785,-536 779,-536 773,-530 773,-524 773,-524 773,-512 773,-512 773,-506 779,-500 785,-500 785,-500 853,-500 853,-500 859,-500 865,-506 865,-512 865,-512 865,-524 865,-524 865,-530 859,-536 853,-536"/>
<text text-anchor="middle" x="819" y="-514.3" font-family="Helvetica,sans-Serif" font-size="14.00">fail_comp1</text>
</g>
<!-- volt&#45;&gt;fail_comp1 -->
<g id="edge6" class="edge">
<title>volt&#45;&gt;fail_comp1</title>
<path fill="none" stroke="black" stroke-width="1.2" d="M54.24,-420.21C91.5,-433.76 162.13,-456 224.5,-456 224.5,-456 224.5,-456 464.5,-456 571.55,-456 694.12,-483.92 763.17,-502.29"/>
<polygon fill="black" stroke="black" stroke-width="1.2" points="762.4,-505.71 772.96,-504.93 764.22,-498.95 762.4,-505.71"/>
</g>
<!-- rotate&#45;&gt;err_error2 -->
<g id="edge8" class="edge">
<title>rotate&#45;&gt;err_error2</title>
<path fill="none" stroke="black" stroke-width="1.2" d="M123.75,-218.26C130.72,-257.23 147.51,-328.27 183,-378 184.68,-380.36 186.59,-382.63 188.64,-384.79"/>
<polygon fill="black" stroke="black" stroke-width="1.2" points="127.16,-217.44 122.04,-208.17 120.26,-218.61 127.16,-217.44"/>
<polygon fill="black" stroke="black" stroke-width="1.2" points="186.35,-387.44 196.04,-391.72 191.14,-382.33 186.35,-387.44"/>
</g>
<!-- err_error4 -->
<g id="node8" class="node">
<title>err_error4</title>
<path fill="white" stroke="black" d="M849.5,-590C849.5,-590 788.5,-590 788.5,-590 782.5,-590 776.5,-584 776.5,-578 776.5,-578 776.5,-566 776.5,-566 776.5,-560 782.5,-554 788.5,-554 788.5,-554 849.5,-554 849.5,-554 855.5,-554 861.5,-560 861.5,-566 861.5,-566 861.5,-578 861.5,-578 861.5,-584 855.5,-590 849.5,-590"/>
<text text-anchor="middle" x="819" y="-568.3" font-family="Helvetica,sans-Serif" font-size="14.00">err_error4</text>
</g>
<!-- rotate&#45;&gt;err_error4 -->
<g id="edge9" class="edge">
<title>rotate&#45;&gt;err_error4</title>
<path fill="none" stroke="black" stroke-width="1.2" d="M139.55,-208.23C151.65,-218.76 167.65,-231.88 183,-242 388.63,-377.52 656.53,-501.03 766.99,-549.87"/>
<polygon fill="black" stroke="black" stroke-width="1.2" points="765.68,-553.12 776.24,-553.95 768.5,-546.71 765.68,-553.12"/>
</g>
<!-- mnt_comp2 -->
<g id="node11" class="node">
<title>mnt_comp2</title>
<path fill="white" stroke="black" d="M1121,-273C1121,-273 1047,-273 1047,-273 1041,-273 1035,-267 1035,-261 1035,-261 1035,-249 1035,-249 1035,-243 1041,-237 1047,-237 1047,-237 1121,-237 1121,-237 1127,-237 1133,-243 1133,-249 1133,-249 1133,-261 1133,-261 1133,-267 1127,-273 1121,-273"/>
<text text-anchor="middle" x="1084" y="-251.3" font-family="Helvetica,sans-Serif" font-size="14.00">mnt_comp2</text>
</g>
<!-- rotate&#45;&gt;mnt_comp2 -->
<g id="edge11" class="edge">
<title>rotate&#45;&gt;mnt_comp2</title>
<path fill="none" stroke="black" stroke-width="1.2" d="M129.08,-171.92C139.76,-153.63 158.74,-125.97 183,-111 245.87,-72.2 271.62,-76 345.5,-76 345.5,-76 345.5,-76 820,-76 927.29,-76 1023.19,-179.07 1063.21,-228.79"/>
<polygon fill="black" stroke="black" stroke-width="1.2" points="1060.64,-231.18 1069.59,-236.85 1066.13,-226.84 1060.64,-231.18"/>
</g>
<!-- mnt_comp3 -->
<g id="node12" class="node">
<title>mnt_comp3</title>
<path fill="white" stroke="black" d="M1389,-342C1389,-342 1315,-342 1315,-342 1309,-342 1303,-336 1303,-330 1303,-330 1303,-318 1303,-318 1303,-312 1309,-306 1315,-306 1315,-306 1389,-306 1389,-306 1395,-306 1401,-312 1401,-318 1401,-318 1401,-330 1401,-330 1401,-336 1395,-342 1389,-342"/>
<text text-anchor="middle" x="1352" y="-320.3" font-family="Helvetica,sans-Serif" font-size="14.00">mnt_comp3</text>
</g>
<!-- rotate&#45;&gt;mnt_comp3 -->
<g id="edge12" class="edge">
<title>rotate&#45;&gt;mnt_comp3</title>
<path fill="none" stroke="black" stroke-width="1.2" d="M124.43,-171.71C132.33,-145.99 150.38,-99.55 183,-75 242.19,-30.46 271.43,-38 345.5,-38 345.5,-38 345.5,-38 1085,-38 1225.21,-38 1312.46,-224.59 1340.83,-296.34"/>
<polygon fill="black" stroke="black" stroke-width="1.2" points="1337.57,-297.61 1344.44,-305.67 1344.1,-295.09 1337.57,-297.61"/>
</g>
<!-- fail_comp2 -->
<g id="node15" class="node">
<title>fail_comp2</title>
<path fill="white" stroke="black" d="M984,-230C984,-230 916,-230 916,-230 910,-230 904,-224 904,-218 904,-218 904,-206 904,-206 904,-200 910,-194 916,-194 916,-194 984,-194 984,-194 990,-194 996,-200 996,-206 996,-206 996,-218 996,-218 996,-224 990,-230 984,-230"/>
<text text-anchor="middle" x="950" y="-208.3" font-family="Helvetica,sans-Serif" font-size="14.00">fail_comp2</text>
</g>
<!-- rotate&#45;&gt;fail_comp2 -->
<g id="edge13" class="edge">
<title>rotate&#45;&gt;fail_comp2</title>
<path fill="none" stroke="black" stroke-width="1.2" d="M143.84,-164.8C154.86,-154.88 168.63,-144.35 183,-138 249.77,-108.47 272.49,-114 345.5,-114 345.5,-114 345.5,-114 699,-114 773.54,-114 797.33,-106.73 865,-138 889.11,-149.14 911.41,-169.47 926.97,-186.01"/>
<polygon fill="black" stroke="black" stroke-width="1.2" points="141.23,-162.46 136.33,-171.86 146.02,-167.56 141.23,-162.46"/>
<polygon fill="black" stroke="black" stroke-width="1.2" points="924.72,-188.73 934.04,-193.76 929.89,-184.01 924.72,-188.73"/>
</g>
<!-- fail_comp4 -->
<g id="node17" class="node">
<title>fail_comp4</title>
<path fill="white" stroke="black" d="M1118,-365C1118,-365 1050,-365 1050,-365 1044,-365 1038,-359 1038,-353 1038,-353 1038,-341 1038,-341 1038,-335 1044,-329 1050,-329 1050,-329 1118,-329 1118,-329 1124,-329 1130,-335 1130,-341 1130,-341 1130,-353 1130,-353 1130,-359 1124,-365 1118,-365"/>
<text text-anchor="middle" x="1084" y="-343.3" font-family="Helvetica,sans-Serif" font-size="14.00">fail_comp4</text>
</g>
<!-- rotate&#45;&gt;fail_comp4 -->
<g id="edge15" class="edge">
<title>rotate&#45;&gt;fail_comp4</title>
<path fill="none" stroke="black" stroke-width="1.2" d="M147.33,-190C189.99,-190 274.09,-190 345.5,-190 345.5,-190 345.5,-190 699,-190 773.68,-190 805.3,-171.14 865,-216 895.2,-238.69 872.37,-268.35 901,-293 936.38,-323.47 988.34,-336.75 1027.69,-342.54"/>
<polygon fill="black" stroke="black" stroke-width="1.2" points="1027.28,-346.02 1037.66,-343.89 1028.22,-339.08 1027.28,-346.02"/>
</g>
<!-- pressure -->
<g id="node3" class="node">
<title>pressure</title>
<path fill="white" stroke="black" d="M490,-680C490,-680 437,-680 437,-680 431,-680 425,-674 425,-668 425,-668 425,-656 425,-656 425,-650 431,-644 437,-644 437,-644 490,-644 490,-644 496,-644 502,-650 502,-656 502,-656 502,-668 502,-668 502,-674 496,-680 490,-680"/>
<text text-anchor="middle" x="463.5" y="-658.3" font-family="Helvetica,sans-Serif" font-size="14.00">pressure</text>
</g>
<!-- pressure&#45;&gt;err_error5 -->
<g id="edge19" class="edge">
<title>pressure&#45;&gt;err_error5</title>
<path fill="none" stroke="black" stroke-width="1.2" d="M488.55,-636.49C508.16,-615.69 535.72,-586.44 555.36,-565.61"/>
<polygon fill="black" stroke="black" stroke-width="1.2" points="485.78,-634.32 481.47,-644 490.87,-639.12 485.78,-634.32"/>
<polygon fill="black" stroke="black" stroke-width="1.2" points="558.15,-567.75 562.46,-558.08 553.06,-562.95 558.15,-567.75"/>
</g>
<!-- mnt_comp1 -->
<g id="node10" class="node">
<title>mnt_comp1</title>
<path fill="white" stroke="black" d="M987,-517C987,-517 913,-517 913,-517 907,-517 901,-511 901,-505 901,-505 901,-493 901,-493 901,-487 907,-481 913,-481 913,-481 987,-481 987,-481 993,-481 999,-487 999,-493 999,-493 999,-505 999,-505 999,-511 993,-517 987,-517"/>
<text text-anchor="middle" x="950" y="-495.3" font-family="Helvetica,sans-Serif" font-size="14.00">mnt_comp1</text>
</g>
<!-- pressure&#45;&gt;mnt_comp1 -->
<g id="edge20" class="edge">
<title>pressure&#45;&gt;mnt_comp1</title>
<path fill="none" stroke="black" stroke-width="1.2" d="M482.96,-680.01C496.83,-692.22 517,-707.32 538,-714 607.25,-736.02 804.99,-754.98 865,-714 927.3,-671.45 943.4,-575.21 947.55,-527.26"/>
<polygon fill="black" stroke="black" stroke-width="1.2" points="951.05,-527.48 948.31,-517.25 944.07,-526.96 951.05,-527.48"/>
</g>
<!-- fail_comp3 -->
<g id="node16" class="node">
<title>fail_comp3</title>
<path fill="white" stroke="black" d="M984,-284C984,-284 916,-284 916,-284 910,-284 904,-278 904,-272 904,-272 904,-260 904,-260 904,-254 910,-248 916,-248 916,-248 984,-248 984,-248 990,-248 996,-254 996,-260 996,-260 996,-272 996,-272 996,-278 990,-284 984,-284"/>
<text text-anchor="middle" x="950" y="-262.3" font-family="Helvetica,sans-Serif" font-size="14.00">fail_comp3</text>
</g>
<!-- pressure&#45;&gt;fail_comp3 -->
<g id="edge24" class="edge">
<title>pressure&#45;&gt;fail_comp3</title>
<path fill="none" stroke="black" stroke-width="1.2" d="M502.36,-672.49C513.73,-675.17 526.29,-677.66 538,-679 686.65,-695.97 770.89,-715.32 865,-599 874.81,-586.88 924.66,-372.27 942.58,-294.15"/>
<polygon fill="black" stroke="black" stroke-width="1.2" points="946.07,-294.59 944.89,-284.06 939.24,-293.03 946.07,-294.59"/>
</g>
<!-- vibration&#45;&gt;pressure -->
<g id="edge16" class="edge">
<title>vibration&#45;&gt;pressure</title>
<path fill="none" stroke="black" stroke-width="1.2" d="M666.41,-406.11C631.68,-427.9 575.05,-467.32 538,-513 507.67,-550.4 485.64,-602.38 473.99,-634.02"/>
<polygon fill="black" stroke="black" stroke-width="1.2" points="470.65,-632.94 470.57,-643.54 477.24,-635.31 470.65,-632.94"/>
</g>
<!-- vibration&#45;&gt;err_error2 -->
<g id="edge25" class="edge">
<title>vibration&#45;&gt;err_error2</title>
<path fill="none" stroke="black" stroke-width="1.2" d="M648.88,-390.25C559.81,-394.41 369.98,-403.29 278.24,-407.58"/>
<polygon fill="black" stroke="black" stroke-width="1.2" points="649.15,-393.74 658.98,-389.78 648.83,-386.75 649.15,-393.74"/>
<polygon fill="black" stroke="black" stroke-width="1.2" points="278.08,-404.08 268.25,-408.05 278.41,-411.08 278.08,-404.08"/>
</g>
<!-- err_error3 -->
<g id="node7" class="node">
<title>err_error3</title>
<path fill="white" stroke="black" d="M849.5,-292C849.5,-292 788.5,-292 788.5,-292 782.5,-292 776.5,-286 776.5,-280 776.5,-280 776.5,-268 776.5,-268 776.5,-262 782.5,-256 788.5,-256 788.5,-256 849.5,-256 849.5,-256 855.5,-256 861.5,-262 861.5,-268 861.5,-268 861.5,-280 861.5,-280 861.5,-286 855.5,-292 849.5,-292"/>
<text text-anchor="middle" x="819" y="-270.3" font-family="Helvetica,sans-Serif" font-size="14.00">err_error3</text>
</g>
<!-- vibration&#45;&gt;err_error3 -->
<g id="edge26" class="edge">
<title>vibration&#45;&gt;err_error3</title>
<path fill="none" stroke="black" stroke-width="1.2" d="M722.33,-369.92C727.38,-365.58 732.54,-360.81 737,-356 755.61,-335.92 753.58,-325.31 773,-306 775.6,-303.41 778.43,-300.89 781.36,-298.46"/>
<polygon fill="black" stroke="black" stroke-width="1.2" points="783.53,-301.2 789.26,-292.29 779.23,-295.68 783.53,-301.2"/>
</g>
<!-- vibration&#45;&gt;err_error4 -->
<g id="edge27" class="edge">
<title>vibration&#45;&gt;err_error4</title>
<path fill="none" stroke="black" stroke-width="1.2" d="M703.85,-406.46C712.9,-438.01 734.99,-502.99 773,-545 773.73,-545.81 774.5,-546.6 775.29,-547.38"/>
<polygon fill="black" stroke="black" stroke-width="1.2" points="773.08,-550.1 782.96,-553.91 777.62,-544.77 773.08,-550.1"/>
</g>
<!-- mnt_comp4 -->
<g id="node13" class="node">
<title>mnt_comp4</title>
<path fill="white" stroke="black" d="M1255,-410C1255,-410 1181,-410 1181,-410 1175,-410 1169,-404 1169,-398 1169,-398 1169,-386 1169,-386 1169,-380 1175,-374 1181,-374 1181,-374 1255,-374 1255,-374 1261,-374 1267,-380 1267,-386 1267,-386 1267,-398 1267,-398 1267,-404 1261,-410 1255,-410"/>
<text text-anchor="middle" x="1218" y="-388.3" font-family="Helvetica,sans-Serif" font-size="14.00">mnt_comp4</text>
</g>
<!-- vibration&#45;&gt;mnt_comp4 -->
<g id="edge31" class="edge">
<title>vibration&#45;&gt;mnt_comp4</title>
<path fill="none" stroke="black" stroke-width="1.2" d="M737.09,-388.29C826.74,-388.99 1051.57,-390.72 1158.6,-391.55"/>
<polygon fill="black" stroke="black" stroke-width="1.2" points="1158.87,-395.05 1168.9,-391.63 1158.92,-388.05 1158.87,-395.05"/>
</g>
<!-- vibration&#45;&gt;fail_comp1 -->
<g id="edge32" class="edge">
<title>vibration&#45;&gt;fail_comp1</title>
<path fill="none" stroke="black" stroke-width="1.2" d="M723.19,-406.03C728.08,-410.3 732.96,-415.06 737,-420 758.14,-445.87 750.82,-461.01 773,-486 775.23,-488.51 777.69,-490.93 780.27,-493.24"/>
<polygon fill="black" stroke="black" stroke-width="1.2" points="778.35,-496.19 788.31,-499.82 782.79,-490.77 778.35,-496.19"/>
</g>
<!-- vibration&#45;&gt;fail_comp2 -->
<g id="edge33" class="edge">
<title>vibration&#45;&gt;fail_comp2</title>
<path fill="none" stroke="black" stroke-width="1.2" d="M736.37,-364.8C747.97,-357.87 760.89,-350.41 773,-344 812.89,-322.88 831.7,-331.47 865,-301 888.51,-279.49 878.32,-261.38 901,-239 901.92,-238.09 902.87,-237.21 903.86,-236.34"/>
<polygon fill="black" stroke="black" stroke-width="1.2" points="734.55,-361.82 727.79,-369.98 738.16,-367.81 734.55,-361.82"/>
<polygon fill="black" stroke="black" stroke-width="1.2" points="906.13,-239.01 911.9,-230.13 901.85,-233.47 906.13,-239.01"/>
</g>
<!-- vibration&#45;&gt;fail_comp4 -->
<g id="edge34" class="edge">
<title>vibration&#45;&gt;fail_comp4</title>
<path fill="none" stroke="black" stroke-width="1.2" d="M737.22,-383.92C805.49,-376.63 948.59,-361.35 1027.62,-352.91"/>
<polygon fill="black" stroke="black" stroke-width="1.2" points="1028.3,-356.36 1037.87,-351.82 1027.55,-349.4 1028.3,-356.36"/>
</g>
<!-- err_error1&#45;&gt;pressure -->
<g id="edge17" class="edge">
<title>err_error1&#45;&gt;pressure</title>
<path fill="none" stroke="black" stroke-width="1.2" d="M364.47,-558C384,-578.72 416.24,-612.92 438.37,-636.41"/>
<polygon fill="black" stroke="black" stroke-width="1.2" points="436.06,-639.05 445.46,-643.92 441.15,-634.25 436.06,-639.05"/>
</g>
<!-- err_error2&#45;&gt;err_error1 -->
<g id="edge35" class="edge">
<title>err_error2&#45;&gt;err_error1</title>
<path fill="none" stroke="black" stroke-width="1.2" d="M243.05,-428.08C263.53,-450.46 298.57,-488.73 321.88,-514.2"/>
<polygon fill="black" stroke="black" stroke-width="1.2" points="319.38,-516.65 328.71,-521.66 324.54,-511.92 319.38,-516.65"/>
</g>
<!-- err_error2&#45;&gt;err_error3 -->
<g id="edge38" class="edge">
<title>err_error2&#45;&gt;err_error3</title>
<path fill="none" stroke="black" stroke-width="1.2" d="M249.41,-391.78C289.9,-361.47 377.83,-304 462.5,-304 462.5,-304 462.5,-304 581.5,-304 645.51,-304 718.49,-293.05 766.24,-284.38"/>
<polygon fill="black" stroke="black" stroke-width="1.2" points="767.14,-287.78 776.34,-282.52 765.87,-280.89 767.14,-287.78"/>
</g>
<!-- err_error3&#45;&gt;err_error1 -->
<g id="edge36" class="edge">
<title>err_error3&#45;&gt;err_error1</title>
<path fill="none" stroke="black" stroke-width="1.2" d="M782.04,-292.15C778.97,-293.77 775.93,-295.4 773,-297 756.75,-305.89 753.11,-308.86 737,-318 702.57,-337.53 693.5,-341.58 659,-361 561.03,-416.15 446.6,-482.38 387.45,-516.74"/>
<polygon fill="black" stroke="black" stroke-width="1.2" points="385.67,-513.72 378.79,-521.78 389.19,-519.78 385.67,-513.72"/>
</g>
<!-- err_error4&#45;&gt;pressure -->
<g id="edge18" class="edge">
<title>err_error4&#45;&gt;pressure</title>
<path fill="none" stroke="black" stroke-width="1.2" d="M802,-590.08C786.94,-605.74 762.88,-627.49 737,-638 662.85,-668.11 568.25,-668.98 512.25,-666.06"/>
<polygon fill="black" stroke="black" stroke-width="1.2" points="512.44,-662.56 502.25,-665.47 512.03,-669.55 512.44,-662.56"/>
</g>
<!-- err_error4&#45;&gt;err_error1 -->
<g id="edge37" class="edge">
<title>err_error4&#45;&gt;err_error1</title>
<path fill="none" stroke="black" stroke-width="1.2" d="M776.49,-571.62C744.4,-571.29 698.88,-570.75 659,-570 605.22,-569 591.61,-571.45 538,-567 490.99,-563.1 437.87,-555.29 399.69,-549.06"/>
<polygon fill="black" stroke="black" stroke-width="1.2" points="399.77,-545.53 389.34,-547.35 398.63,-552.44 399.77,-545.53"/>
</g>
<!-- err_error5&#45;&gt;vibration -->
<g id="edge28" class="edge">
<title>err_error5&#45;&gt;vibration</title>
<path fill="none" stroke="black" stroke-width="1.2" d="M595.2,-521.97C615.52,-495.23 653.75,-444.92 677.14,-414.14"/>
<polygon fill="black" stroke="black" stroke-width="1.2" points="680.05,-416.09 683.31,-406.01 674.48,-411.85 680.05,-416.09"/>
</g>
<!-- err_error5&#45;&gt;err_error4 -->
<g id="edge39" class="edge">
<title>err_error5&#45;&gt;err_error4</title>
<path fill="none" stroke="black" stroke-width="1.2" d="M623.24,-545.65C663.14,-551.05 723.4,-559.2 766.32,-565.01"/>
<polygon fill="black" stroke="black" stroke-width="1.2" points="765.9,-568.48 776.28,-566.36 766.84,-561.55 765.9,-568.48"/>
</g>
<!-- mnt_comp1&#45;&gt;rotate -->
<g id="edge10" class="edge">
<title>mnt_comp1&#45;&gt;rotate</title>
<path fill="none" stroke="black" stroke-width="1.2" d="M944.2,-480.98C929.34,-425.88 884.03,-262.43 865,-247 807.33,-200.22 773.26,-228 699,-228 345.5,-228 345.5,-228 345.5,-228 278.32,-228 201.44,-211.47 156.89,-200.21"/>
<polygon fill="black" stroke="black" stroke-width="1.2" points="157.64,-196.79 147.08,-197.69 155.89,-203.57 157.64,-196.79"/>
</g>
<!-- mnt_comp1&#45;&gt;vibration -->
<g id="edge29" class="edge">
<title>mnt_comp1&#45;&gt;vibration</title>
<path fill="none" stroke="black" stroke-width="1.2" d="M900.73,-490.44C864.21,-482.71 813.6,-469.22 773,-448 767.9,-445.34 746.49,-427.85 728,-412.43"/>
<polygon fill="black" stroke="black" stroke-width="1.2" points="730.23,-409.73 720.31,-406 725.74,-415.1 730.23,-409.73"/>
</g>
<!-- mnt_comp2&#45;&gt;pressure -->
<g id="edge21" class="edge">
<title>mnt_comp2&#45;&gt;pressure</title>
<path fill="none" stroke="black" stroke-width="1.2" d="M1065.96,-273.17C1055.39,-285.47 1042.45,-302.59 1035,-320 998.42,-405.44 1032.37,-439.26 999,-526 916.67,-740 902.77,-776 820,-776 697,-776 697,-776 697,-776 624.13,-776 601.32,-772.06 538,-736 516.83,-723.94 497.61,-704.12 484.14,-688.02"/>
<polygon fill="black" stroke="black" stroke-width="1.2" points="486.65,-685.57 477.64,-680.01 481.22,-689.98 486.65,-685.57"/>
</g>
<!-- mnt_comp2&#45;&gt;mnt_comp3 -->
<g id="edge42" class="edge">
<title>mnt_comp2&#45;&gt;mnt_comp3</title>
<path fill="none" stroke="black" stroke-width="1.2" d="M1133.25,-260.27C1170.37,-265.08 1222.64,-273.55 1267,-287 1279.88,-290.91 1293.41,-296.26 1305.75,-301.69"/>
<polygon fill="black" stroke="black" stroke-width="1.2" points="1304.37,-304.91 1314.93,-305.83 1307.25,-298.53 1304.37,-304.91"/>
</g>
<!-- mnt_comp3&#45;&gt;vibration -->
<g id="edge30" class="edge">
<title>mnt_comp3&#45;&gt;vibration</title>
<path fill="none" stroke="black" stroke-width="1.2" d="M1341.42,-342.15C1328.18,-365.03 1301.93,-403.26 1267,-419 1089.24,-499.1 847.84,-437.22 746.68,-404.71"/>
<polygon fill="black" stroke="black" stroke-width="1.2" points="747.64,-401.34 737.05,-401.56 745.47,-407.99 747.64,-401.34"/>
</g>
<!-- mnt_comp4&#45;&gt;pressure -->
<g id="edge22" class="edge">
<title>mnt_comp4&#45;&gt;pressure</title>
<path fill="none" stroke="black" stroke-width="1.2" d="M1210.5,-410.13C1180.28,-490.91 1045.32,-814 820,-814 697,-814 697,-814 697,-814 623.31,-814 597.81,-810.04 538,-767 510.22,-747.01 489.29,-713.14 477.01,-689.28"/>
<polygon fill="black" stroke="black" stroke-width="1.2" points="480.01,-687.45 472.43,-680.05 473.74,-690.57 480.01,-687.45"/>
</g>
<!-- mnt_comp4&#45;&gt;mnt_comp3 -->
<g id="edge45" class="edge">
<title>mnt_comp4&#45;&gt;mnt_comp3</title>
<path fill="none" stroke="black" stroke-width="1.2" d="M1254.03,-373.96C1270.14,-365.66 1289.43,-355.72 1306.56,-346.9"/>
<polygon fill="black" stroke="black" stroke-width="1.2" points="1308.52,-349.82 1315.81,-342.13 1305.32,-343.6 1308.52,-349.82"/>
</g>
<!-- fail_comp1&#45;&gt;pressure -->
<g id="edge23" class="edge">
<title>fail_comp1&#45;&gt;pressure</title>
<path fill="none" stroke="black" stroke-width="1.2" d="M773.55,-536.11C706.52,-563.41 580.16,-614.88 511.61,-642.81"/>
<polygon fill="black" stroke="black" stroke-width="1.2" points="510.27,-639.58 502.33,-646.59 512.91,-646.06 510.27,-639.58"/>
</g>
<!-- fail_comp1&#45;&gt;err_error5 -->
<g id="edge40" class="edge">
<title>fail_comp1&#45;&gt;err_error5</title>
<path fill="none" stroke="black" stroke-width="1.2" d="M772.65,-522.22C732.88,-525.92 675.07,-531.3 633.45,-535.17"/>
<polygon fill="black" stroke="black" stroke-width="1.2" points="632.87,-531.71 623.24,-536.12 633.52,-538.68 632.87,-531.71"/>
</g>
<!-- fail_comp1&#45;&gt;mnt_comp1 -->
<g id="edge41" class="edge">
<title>fail_comp1&#45;&gt;mnt_comp1</title>
<path fill="none" stroke="black" stroke-width="1.2" d="M865.12,-511.35C873.37,-510.14 882.09,-508.86 890.66,-507.59"/>
<polygon fill="black" stroke="black" stroke-width="1.2" points="891.23,-511.05 900.62,-506.13 890.21,-504.12 891.23,-511.05"/>
</g>
<!-- fail_comp1&#45;&gt;fail_comp2 -->
<g id="edge49" class="edge">
<title>fail_comp1&#45;&gt;fail_comp2</title>
<path fill="none" stroke="black" stroke-width="1.2" d="M824.47,-499.64C838.9,-440.9 884.23,-260.14 901,-239 901.57,-238.28 902.17,-237.57 902.79,-236.88"/>
<polygon fill="black" stroke="black" stroke-width="1.2" points="905.17,-239.45 910.14,-230.1 900.42,-234.31 905.17,-239.45"/>
</g>
<!-- fail_comp1&#45;&gt;fail_comp3 -->
<g id="edge50" class="edge">
<title>fail_comp1&#45;&gt;fail_comp3</title>
<path fill="none" stroke="black" stroke-width="1.2" d="M829.28,-499.88C851.63,-456.21 908.57,-344.98 935.06,-293.24"/>
<polygon fill="black" stroke="black" stroke-width="1.2" points="938.19,-294.79 939.63,-284.3 931.96,-291.6 938.19,-294.79"/>
</g>
<!-- fail_comp2&#45;&gt;mnt_comp2 -->
<g id="edge43" class="edge">
<title>fail_comp2&#45;&gt;mnt_comp2</title>
<path fill="none" stroke="black" stroke-width="1.2" d="M996.06,-226.68C1005.47,-229.74 1015.51,-233.02 1025.31,-236.21"/>
<polygon fill="black" stroke="black" stroke-width="1.2" points="1024.4,-239.59 1034.99,-239.36 1026.56,-232.93 1024.4,-239.59"/>
</g>
<!-- fail_comp3&#45;&gt;volt -->
<g id="edge7" class="edge">
<title>fail_comp3&#45;&gt;volt</title>
<path fill="none" stroke="black" stroke-width="1.2" d="M910.42,-247.67C906.97,-245.07 903.75,-242.18 901,-239 871.77,-205.13 890.6,-181.69 865,-145 808.94,-64.67 796.96,0 699,0 224.5,0 224.5,0 224.5,0 54.8,0 31.54,-289.16 28.45,-381.8"/>
<polygon fill="black" stroke="black" stroke-width="1.2" points="24.95,-381.76 28.17,-391.85 31.95,-381.96 24.95,-381.76"/>
</g>
<!-- fail_comp3&#45;&gt;rotate -->
<g id="edge14" class="edge">
<title>fail_comp3&#45;&gt;rotate</title>
<path fill="none" stroke="black" stroke-width="1.2" d="M911.88,-247.9C907.98,-245.2 904.26,-242.23 901,-239 878.12,-216.27 891.66,-194.15 865,-176 803.38,-134.06 773.54,-152 699,-152 345.5,-152 345.5,-152 345.5,-152 278.32,-152 201.44,-168.53 156.89,-179.79"/>
<polygon fill="black" stroke="black" stroke-width="1.2" points="155.89,-176.43 147.08,-182.31 157.64,-183.21 155.89,-176.43"/>
</g>
<!-- fail_comp3&#45;&gt;mnt_comp2 -->
<g id="edge44" class="edge">
<title>fail_comp3&#45;&gt;mnt_comp2</title>
<path fill="none" stroke="black" stroke-width="1.2" d="M996.06,-262.25C1005.37,-261.47 1015.3,-260.64 1025,-259.83"/>
<polygon fill="black" stroke="black" stroke-width="1.2" points="1025.31,-263.32 1034.99,-259 1024.73,-256.34 1025.31,-263.32"/>
</g>
<!-- fail_comp3&#45;&gt;mnt_comp3 -->
<g id="edge46" class="edge">
<title>fail_comp3&#45;&gt;mnt_comp3</title>
<path fill="none" stroke="black" stroke-width="1.2" d="M996.26,-275.1C1008.78,-277.49 1022.4,-279.96 1035,-282 1124.66,-296.49 1229.23,-309.66 1292.75,-317.25"/>
<polygon fill="black" stroke="black" stroke-width="1.2" points="1292.62,-320.76 1302.96,-318.47 1293.45,-313.81 1292.62,-320.76"/>
</g>
<!-- fail_comp3&#45;&gt;fail_comp4 -->
<g id="edge51" class="edge">
<title>fail_comp3&#45;&gt;fail_comp4</title>
<path fill="none" stroke="black" stroke-width="1.2" d="M980.62,-284.18C999.56,-295.8 1024.31,-310.98 1044.73,-323.51"/>
<polygon fill="black" stroke="black" stroke-width="1.2" points="1043.12,-326.64 1053.48,-328.88 1046.78,-320.67 1043.12,-326.64"/>
</g>
<!-- fail_comp4&#45;&gt;mnt_comp3 -->
<g id="edge47" class="edge">
<title>fail_comp4&#45;&gt;mnt_comp3</title>
<path fill="none" stroke="black" stroke-width="1.2" d="M1130.12,-343.1C1174.96,-339.22 1243.91,-333.26 1292.83,-329.03"/>
<polygon fill="black" stroke="black" stroke-width="1.2" points="1293.29,-332.5 1302.95,-328.15 1292.69,-325.53 1293.29,-332.5"/>
</g>
<!-- fail_comp4&#45;&gt;mnt_comp4 -->
<g id="edge48" class="edge">
<title>fail_comp4&#45;&gt;mnt_comp4</title>
<path fill="none" stroke="black" stroke-width="1.2" d="M1130.06,-362.36C1139.47,-365.57 1149.51,-368.99 1159.31,-372.33"/>
<polygon fill="black" stroke="black" stroke-width="1.2" points="1158.39,-375.72 1168.99,-375.63 1160.65,-369.09 1158.39,-375.72"/>
</g>
</g>
</svg>
