<?xml version="1.0" encoding="UTF-8" standalone="no"?>
<!DOCTYPE svg PUBLIC "-//W3C//DTD SVG 1.1//EN"
 "http://www.w3.org/Graphics/SVG/1.1/DTD/svg11.dtd">
<!-- Generated by graphviz version 2.50.0 (0)
 -->
<!-- Title: G Pages: 1 -->
<svg width="1297pt" height="690pt"
 viewBox="0.00 0.00 1297.00 690.00" xmlns="http://www.w3.org/2000/svg" xmlns:xlink="http://www.w3.org/1999/xlink">
<g id="graph0" class="graph" transform="scale(1 1) rotate(0) translate(4 686)">
<title>G</title>
<polygon fill="white" stroke="transparent" points="-4,4 -4,-686 1293,-686 1293,4 -4,4"/>
<text text-anchor="middle" x="644.5" y="-665.2" font-family="Times,serif" font-size="16.00">model=model4/nbcb_w_mixed.json [machine 51]</text>
<!-- volt -->
<g id="node1" class="node">
<title>volt</title>
<path fill="white" stroke="black" d="M170,-503C170,-503 140,-503 140,-503 134,-503 128,-497 128,-491 128,-491 128,-479 128,-479 128,-473 134,-467 140,-467 140,-467 170,-467 170,-467 176,-467 182,-473 182,-479 182,-479 182,-491 182,-491 182,-497 176,-503 170,-503"/>
<text text-anchor="middle" x="155" y="-481.3" font-family="Helvetica,sans-Serif" font-size="14.00">volt</text>
</g>
<!-- rotate -->
<g id="node2" class="node">
<title>rotate</title>
<path fill="white" stroke="black" d="M263,-347C263,-347 230,-347 230,-347 224,-347 218,-341 218,-335 218,-335 218,-323 218,-323 218,-317 224,-311 230,-311 230,-311 263,-311 263,-311 269,-311 275,-317 275,-323 275,-323 275,-335 275,-335 275,-341 269,-347 263,-347"/>
<text text-anchor="middle" x="246.5" y="-325.3" font-family="Helvetica,sans-Serif" font-size="14.00">rotate</text>
</g>
<!-- volt&#45;&gt;rotate -->
<g id="edge1" class="edge">
<title>volt&#45;&gt;rotate</title>
<path fill="none" stroke="black" stroke-width="1.2" d="M171.48,-458.02C187.85,-429.48 213.54,-384.71 229.94,-356.11"/>
<polygon fill="black" stroke="black" stroke-width="1.2" points="168.38,-456.38 166.44,-466.8 174.45,-459.87 168.38,-456.38"/>
<polygon fill="black" stroke="black" stroke-width="1.2" points="233.18,-357.5 235.12,-347.08 227.11,-354.02 233.18,-357.5"/>
</g>
<!-- err_error1 -->
<g id="node5" class="node">
<title>err_error1</title>
<path fill="white" stroke="black" d="M766.5,-514C766.5,-514 705.5,-514 705.5,-514 699.5,-514 693.5,-508 693.5,-502 693.5,-502 693.5,-490 693.5,-490 693.5,-484 699.5,-478 705.5,-478 705.5,-478 766.5,-478 766.5,-478 772.5,-478 778.5,-484 778.5,-490 778.5,-490 778.5,-502 778.5,-502 778.5,-508 772.5,-514 766.5,-514"/>
<text text-anchor="middle" x="736" y="-492.3" font-family="Helvetica,sans-Serif" font-size="14.00">err_error1</text>
</g>
<!-- volt&#45;&gt;err_error1 -->
<g id="edge2" class="edge">
<title>volt&#45;&gt;err_error1</title>
<path fill="none" stroke="black" stroke-width="1.2" d="M182.13,-489.08C220.25,-494.66 293.39,-504 356,-504 356,-504 356,-504 489,-504 556.02,-504 633.26,-501 683.04,-498.67"/>
<polygon fill="black" stroke="black" stroke-width="1.2" points="683.41,-502.16 693.23,-498.19 683.07,-495.17 683.41,-502.16"/>
</g>
<!-- err_error3 -->
<g id="node7" class="node">
<title>err_error3</title>
<path fill="white" stroke="black" d="M1028.5,-443C1028.5,-443 967.5,-443 967.5,-443 961.5,-443 955.5,-437 955.5,-431 955.5,-431 955.5,-419 955.5,-419 955.5,-413 961.5,-407 967.5,-407 967.5,-407 1028.5,-407 1028.5,-407 1034.5,-407 1040.5,-413 1040.5,-419 1040.5,-419 1040.5,-431 1040.5,-431 1040.5,-437 1034.5,-443 1028.5,-443"/>
<text text-anchor="middle" x="998" y="-421.3" font-family="Helvetica,sans-Serif" font-size="14.00">err_error3</text>
</g>
<!-- volt&#45;&gt;err_error3 -->
<g id="edge4" class="edge">
<title>volt&#45;&gt;err_error3</title>
<path fill="none" stroke="black" stroke-width="1.2" d="M166.73,-503.1C177.72,-520.28 196.24,-545.82 218,-562 271.12,-601.49 289.81,-618 356,-618 356,-618 356,-618 489,-618 555.09,-618 901.01,-556.73 913,-549 948.77,-525.93 973.14,-481.66 986.07,-452.74"/>
<polygon fill="black" stroke="black" stroke-width="1.2" points="989.43,-453.78 990.16,-443.21 983,-451.01 989.43,-453.78"/>
</g>
<!-- err_error5 -->
<g id="node9" class="node">
<title>err_error5</title>
<path fill="white" stroke="black" d="M897.5,-514C897.5,-514 836.5,-514 836.5,-514 830.5,-514 824.5,-508 824.5,-502 824.5,-502 824.5,-490 824.5,-490 824.5,-484 830.5,-478 836.5,-478 836.5,-478 897.5,-478 897.5,-478 903.5,-478 909.5,-484 909.5,-490 909.5,-490 909.5,-502 909.5,-502 909.5,-508 903.5,-514 897.5,-514"/>
<text text-anchor="middle" x="867" y="-492.3" font-family="Helvetica,sans-Serif" font-size="14.00">err_error5</text>
</g>
<!-- volt&#45;&gt;err_error5 -->
<g id="edge5" class="edge">
<title>volt&#45;&gt;err_error5</title>
<path fill="none" stroke="black" stroke-width="1.2" d="M185.42,-509.2C222.7,-537.35 290.06,-580 356,-580 356,-580 356,-580 613,-580 691.04,-580 776.05,-543.55 824.98,-518.67"/>
<polygon fill="black" stroke="black" stroke-width="1.2" points="187.55,-506.43 177.49,-503.09 183.27,-511.97 187.55,-506.43"/>
<polygon fill="black" stroke="black" stroke-width="1.2" points="826.71,-521.72 833.98,-514.02 823.49,-515.5 826.71,-521.72"/>
</g>
<!-- mnt_comp1 -->
<g id="node10" class="node">
<title>mnt_comp1</title>
<path fill="white" stroke="black" d="M773,-254C773,-254 699,-254 699,-254 693,-254 687,-248 687,-242 687,-242 687,-230 687,-230 687,-224 693,-218 699,-218 699,-218 773,-218 773,-218 779,-218 785,-224 785,-230 785,-230 785,-242 785,-242 785,-248 779,-254 773,-254"/>
<text text-anchor="middle" x="736" y="-232.3" font-family="Helvetica,sans-Serif" font-size="14.00">mnt_comp1</text>
</g>
<!-- volt&#45;&gt;mnt_comp1 -->
<g id="edge6" class="edge">
<title>volt&#45;&gt;mnt_comp1</title>
<path fill="none" stroke="black" stroke-width="1.2" d="M182,-473.82C270.91,-435.58 563.9,-309.58 683.48,-258.16"/>
<polygon fill="black" stroke="black" stroke-width="1.2" points="685,-261.31 692.81,-254.14 682.24,-254.88 685,-261.31"/>
</g>
<!-- pressure -->
<g id="node3" class="node">
<title>pressure</title>
<path fill="white" stroke="black" d="M893.5,-443C893.5,-443 840.5,-443 840.5,-443 834.5,-443 828.5,-437 828.5,-431 828.5,-431 828.5,-419 828.5,-419 828.5,-413 834.5,-407 840.5,-407 840.5,-407 893.5,-407 893.5,-407 899.5,-407 905.5,-413 905.5,-419 905.5,-419 905.5,-431 905.5,-431 905.5,-437 899.5,-443 893.5,-443"/>
<text text-anchor="middle" x="867" y="-421.3" font-family="Helvetica,sans-Serif" font-size="14.00">pressure</text>
</g>
<!-- rotate&#45;&gt;pressure -->
<g id="edge9" class="edge">
<title>rotate&#45;&gt;pressure</title>
<path fill="none" stroke="black" stroke-width="1.2" d="M275.04,-338.79C286.1,-342.43 299.05,-346.32 311,-349 496.18,-390.53 721.53,-412.91 818.21,-421.2"/>
<polygon fill="black" stroke="black" stroke-width="1.2" points="818,-424.69 828.26,-422.05 818.59,-417.72 818,-424.69"/>
</g>
<!-- rotate&#45;&gt;err_error3 -->
<g id="edge13" class="edge">
<title>rotate&#45;&gt;err_error3</title>
<path fill="none" stroke="black" stroke-width="1.2" d="M259.45,-356.21C270.43,-378.96 288.4,-411.26 311,-434 375.68,-499.1 395.22,-542 487,-542 487,-542 487,-542 737,-542 815.68,-542 843.39,-559.67 913,-523 943.45,-506.96 967.6,-474.88 982.05,-451.79"/>
<polygon fill="black" stroke="black" stroke-width="1.2" points="262.59,-354.67 255.18,-347.1 256.26,-357.64 262.59,-354.67"/>
<polygon fill="black" stroke="black" stroke-width="1.2" points="985.11,-453.5 987.28,-443.13 979.12,-449.88 985.11,-453.5"/>
</g>
<!-- err_error4 -->
<g id="node8" class="node">
<title>err_error4</title>
<path fill="white" stroke="black" d="M1277,-298C1277,-298 1216,-298 1216,-298 1210,-298 1204,-292 1204,-286 1204,-286 1204,-274 1204,-274 1204,-268 1210,-262 1216,-262 1216,-262 1277,-262 1277,-262 1283,-262 1289,-268 1289,-274 1289,-274 1289,-286 1289,-286 1289,-292 1283,-298 1277,-298"/>
<text text-anchor="middle" x="1246.5" y="-276.3" font-family="Helvetica,sans-Serif" font-size="14.00">err_error4</text>
</g>
<!-- rotate&#45;&gt;err_error4 -->
<g id="edge14" class="edge">
<title>rotate&#45;&gt;err_error4</title>
<path fill="none" stroke="black" stroke-width="1.2" d="M247.09,-310.86C247.22,-269.41 253.66,-167.22 311,-114 369.66,-59.56 406.98,-76 487,-76 487,-76 487,-76 613,-76 861.4,-76 966.91,3.83 1168,-142 1205.53,-169.22 1227.26,-220.51 1237.71,-252.32"/>
<polygon fill="black" stroke="black" stroke-width="1.2" points="1234.38,-253.41 1240.71,-261.9 1241.06,-251.31 1234.38,-253.41"/>
</g>
<!-- rotate&#45;&gt;mnt_comp1 -->
<g id="edge15" class="edge">
<title>rotate&#45;&gt;mnt_comp1</title>
<path fill="none" stroke="black" stroke-width="1.2" d="M266.46,-310.92C278.43,-300.35 294.68,-287.45 311,-279 429.54,-217.62 591.59,-221.4 676.94,-228.98"/>
<polygon fill="black" stroke="black" stroke-width="1.2" points="676.68,-232.47 686.96,-229.92 677.33,-225.5 676.68,-232.47"/>
</g>
<!-- fail_comp2 -->
<g id="node15" class="node">
<title>fail_comp2</title>
<path fill="white" stroke="black" d="M901,-193C901,-193 833,-193 833,-193 827,-193 821,-187 821,-181 821,-181 821,-169 821,-169 821,-163 827,-157 833,-157 833,-157 901,-157 901,-157 907,-157 913,-163 913,-169 913,-169 913,-181 913,-181 913,-187 907,-193 901,-193"/>
<text text-anchor="middle" x="867" y="-171.3" font-family="Helvetica,sans-Serif" font-size="14.00">fail_comp2</text>
</g>
<!-- rotate&#45;&gt;fail_comp2 -->
<g id="edge16" class="edge">
<title>rotate&#45;&gt;fail_comp2</title>
<path fill="none" stroke="black" stroke-width="1.2" d="M262.51,-302.1C273.94,-283.45 291.08,-259 311,-242 377.83,-184.97 399.14,-152 487,-152 487,-152 487,-152 613,-152 681.29,-152 759.52,-160.41 810.69,-167.06"/>
<polygon fill="black" stroke="black" stroke-width="1.2" points="259.48,-300.35 257.37,-310.73 265.5,-303.93 259.48,-300.35"/>
<polygon fill="black" stroke="black" stroke-width="1.2" points="810.49,-170.57 820.87,-168.41 811.41,-163.63 810.49,-170.57"/>
</g>
<!-- fail_comp4 -->
<g id="node16" class="node">
<title>fail_comp4</title>
<path fill="white" stroke="black" d="M391,-324C391,-324 323,-324 323,-324 317,-324 311,-318 311,-312 311,-312 311,-300 311,-300 311,-294 317,-288 323,-288 323,-288 391,-288 391,-288 397,-288 403,-294 403,-300 403,-300 403,-312 403,-312 403,-318 397,-324 391,-324"/>
<text text-anchor="middle" x="357" y="-302.3" font-family="Helvetica,sans-Serif" font-size="14.00">fail_comp4</text>
</g>
<!-- rotate&#45;&gt;fail_comp4 -->
<g id="edge17" class="edge">
<title>rotate&#45;&gt;fail_comp4</title>
<path fill="none" stroke="black" stroke-width="1.2" d="M285.21,-321.01C290.22,-319.95 295.43,-318.84 300.66,-317.73"/>
<polygon fill="black" stroke="black" stroke-width="1.2" points="284.22,-317.64 275.16,-323.14 285.67,-324.49 284.22,-317.64"/>
<polygon fill="black" stroke="black" stroke-width="1.2" points="301.63,-321.1 310.69,-315.61 300.18,-314.26 301.63,-321.1"/>
</g>
<!-- pressure&#45;&gt;err_error3 -->
<g id="edge19" class="edge">
<title>pressure&#45;&gt;err_error3</title>
<path fill="none" stroke="black" stroke-width="1.2" d="M905.66,-425C917.98,-425 931.9,-425 945.08,-425"/>
<polygon fill="black" stroke="black" stroke-width="1.2" points="945.45,-428.5 955.45,-425 945.45,-421.5 945.45,-428.5"/>
</g>
<!-- vibration -->
<g id="node4" class="node">
<title>vibration</title>
<path fill="white" stroke="black" d="M639,-362C639,-362 585,-362 585,-362 579,-362 573,-356 573,-350 573,-350 573,-338 573,-338 573,-332 579,-326 585,-326 585,-326 639,-326 639,-326 645,-326 651,-332 651,-338 651,-338 651,-350 651,-350 651,-356 645,-362 639,-362"/>
<text text-anchor="middle" x="612" y="-340.3" font-family="Helvetica,sans-Serif" font-size="14.00">vibration</text>
</g>
<!-- vibration&#45;&gt;rotate -->
<g id="edge10" class="edge">
<title>vibration&#45;&gt;rotate</title>
<path fill="none" stroke="black" stroke-width="1.2" d="M572.63,-342.94C515.56,-341.3 404.95,-337.79 311,-333 302.69,-332.58 293.76,-332.05 285.31,-331.53"/>
<polygon fill="black" stroke="black" stroke-width="1.2" points="285.51,-328.04 275.31,-330.9 285.07,-335.02 285.51,-328.04"/>
</g>
<!-- vibration&#45;&gt;pressure -->
<g id="edge18" class="edge">
<title>vibration&#45;&gt;pressure</title>
<path fill="none" stroke="black" stroke-width="1.2" d="M651.32,-355.82C686.21,-366.63 739.14,-383.16 785,-398 795.8,-401.49 807.38,-405.31 818.32,-408.95"/>
<polygon fill="black" stroke="black" stroke-width="1.2" points="817.54,-412.38 828.13,-412.23 819.76,-405.74 817.54,-412.38"/>
</g>
<!-- vibration&#45;&gt;err_error1 -->
<g id="edge22" class="edge">
<title>vibration&#45;&gt;err_error1</title>
<path fill="none" stroke="black" stroke-width="1.2" d="M627.47,-362.03C648.94,-388.77 689.32,-439.08 714.02,-469.86"/>
<polygon fill="black" stroke="black" stroke-width="1.2" points="711.56,-472.38 720.54,-477.99 717.01,-468 711.56,-472.38"/>
</g>
<!-- vibration&#45;&gt;err_error4 -->
<g id="edge23" class="edge">
<title>vibration&#45;&gt;err_error4</title>
<path fill="none" stroke="black" stroke-width="1.2" d="M651.14,-342.04C700.65,-339.67 789.75,-336 866,-336 866,-336 866,-336 999,-336 1067.91,-336 1145.03,-314.93 1194.36,-298.64"/>
<polygon fill="black" stroke="black" stroke-width="1.2" points="1195.48,-301.95 1203.85,-295.45 1193.25,-295.32 1195.48,-301.95"/>
</g>
<!-- vibration&#45;&gt;err_error5 -->
<g id="edge24" class="edge">
<title>vibration&#45;&gt;err_error5</title>
<path fill="none" stroke="black" stroke-width="1.2" d="M644.92,-368.1C657.77,-377.47 672.86,-388.07 687,-397 731.56,-425.15 784.62,-453.93 821.35,-473.16"/>
<polygon fill="black" stroke="black" stroke-width="1.2" points="646.97,-365.26 636.84,-362.15 642.82,-370.9 646.97,-365.26"/>
<polygon fill="black" stroke="black" stroke-width="1.2" points="819.83,-476.31 830.32,-477.83 823.07,-470.11 819.83,-476.31"/>
</g>
<!-- vibration&#45;&gt;mnt_comp1 -->
<g id="edge25" class="edge">
<title>vibration&#45;&gt;mnt_comp1</title>
<path fill="none" stroke="black" stroke-width="1.2" d="M636.3,-325.88C641.35,-321.55 646.52,-316.79 651,-312 669.47,-292.27 666.77,-280.92 687,-263 688.12,-262.01 689.28,-261.04 690.47,-260.09"/>
<polygon fill="black" stroke="black" stroke-width="1.2" points="692.65,-262.83 698.73,-254.16 688.57,-257.15 692.65,-262.83"/>
</g>
<!-- mnt_comp3 -->
<g id="node12" class="node">
<title>mnt_comp3</title>
<path fill="white" stroke="black" d="M773,-308C773,-308 699,-308 699,-308 693,-308 687,-302 687,-296 687,-296 687,-284 687,-284 687,-278 693,-272 699,-272 699,-272 773,-272 773,-272 779,-272 785,-278 785,-284 785,-284 785,-296 785,-296 785,-302 779,-308 773,-308"/>
<text text-anchor="middle" x="736" y="-286.3" font-family="Helvetica,sans-Serif" font-size="14.00">mnt_comp3</text>
</g>
<!-- vibration&#45;&gt;mnt_comp3 -->
<g id="edge26" class="edge">
<title>vibration&#45;&gt;mnt_comp3</title>
<path fill="none" stroke="black" stroke-width="1.2" d="M651.27,-327.06C661.86,-322.37 673.52,-317.21 684.68,-312.27"/>
<polygon fill="black" stroke="black" stroke-width="1.2" points="686.18,-315.44 693.91,-308.19 683.35,-309.03 686.18,-315.44"/>
</g>
<!-- vibration&#45;&gt;fail_comp4 -->
<g id="edge28" class="edge">
<title>vibration&#45;&gt;fail_comp4</title>
<path fill="none" stroke="black" stroke-width="1.2" d="M562.64,-336.74C519.97,-330.33 457.81,-320.99 413.2,-314.29"/>
<polygon fill="black" stroke="black" stroke-width="1.2" points="562.36,-340.23 572.77,-338.26 563.4,-333.31 562.36,-340.23"/>
<polygon fill="black" stroke="black" stroke-width="1.2" points="413.64,-310.82 403.23,-312.79 412.6,-317.74 413.64,-310.82"/>
</g>
<!-- err_error1&#45;&gt;rotate -->
<g id="edge11" class="edge">
<title>err_error1&#45;&gt;rotate</title>
<path fill="none" stroke="black" stroke-width="1.2" d="M693.33,-490.43C599.71,-477.38 375.81,-442.93 311,-404 291.38,-392.21 274.88,-372.18 263.63,-355.79"/>
<polygon fill="black" stroke="black" stroke-width="1.2" points="266.35,-353.55 257.93,-347.13 260.5,-357.4 266.35,-353.55"/>
</g>
<!-- err_error1&#45;&gt;err_error5 -->
<g id="edge29" class="edge">
<title>err_error1&#45;&gt;err_error5</title>
<path fill="none" stroke="black" stroke-width="1.2" d="M778.53,-496C789.81,-496 802.16,-496 813.95,-496"/>
<polygon fill="black" stroke="black" stroke-width="1.2" points="814.11,-499.5 824.11,-496 814.11,-492.5 814.11,-499.5"/>
</g>
<!-- err_error2 -->
<g id="node6" class="node">
<title>err_error2</title>
<path fill="white" stroke="black" d="M1156,-187C1156,-187 1095,-187 1095,-187 1089,-187 1083,-181 1083,-175 1083,-175 1083,-163 1083,-163 1083,-157 1089,-151 1095,-151 1095,-151 1156,-151 1156,-151 1162,-151 1168,-157 1168,-163 1168,-163 1168,-175 1168,-175 1168,-181 1162,-187 1156,-187"/>
<text text-anchor="middle" x="1125.5" y="-165.3" font-family="Helvetica,sans-Serif" font-size="14.00">err_error2</text>
</g>
<!-- err_error2&#45;&gt;volt -->
<g id="edge3" class="edge">
<title>err_error2&#45;&gt;volt</title>
<path fill="none" stroke="black" stroke-width="1.2" d="M1101.21,-150.85C1086.38,-140.03 1066.38,-126.74 1047,-118 864.79,-35.81 812.89,0 613,0 356,0 356,0 356,0 288.2,0 258.41,-10.56 218,-65 171.6,-127.51 159.56,-372.83 156.77,-456.7"/>
<polygon fill="black" stroke="black" stroke-width="1.2" points="153.27,-456.67 156.45,-466.77 160.26,-456.89 153.27,-456.67"/>
</g>
<!-- err_error2&#45;&gt;rotate -->
<g id="edge12" class="edge">
<title>err_error2&#45;&gt;rotate</title>
<path fill="none" stroke="black" stroke-width="1.2" d="M1082.88,-154.41C1032.61,-138.11 945.2,-114 868,-114 487,-114 487,-114 487,-114 405.31,-114 371.06,-111.62 311,-167 272.46,-202.54 256.99,-264.34 251.02,-300.47"/>
<polygon fill="black" stroke="black" stroke-width="1.2" points="247.5,-300.39 249.46,-310.8 254.42,-301.43 247.5,-300.39"/>
</g>
<!-- err_error2&#45;&gt;err_error4 -->
<g id="edge31" class="edge">
<title>err_error2&#45;&gt;err_error4</title>
<path fill="none" stroke="black" stroke-width="1.2" d="M1153.32,-194.01C1172.86,-212.24 1199.21,-236.83 1218.74,-255.04"/>
<polygon fill="black" stroke="black" stroke-width="1.2" points="1155.58,-191.34 1145.88,-187.08 1150.81,-196.46 1155.58,-191.34"/>
<polygon fill="black" stroke="black" stroke-width="1.2" points="1216.42,-257.67 1226.12,-261.93 1221.2,-252.55 1216.42,-257.67"/>
</g>
<!-- err_error3&#45;&gt;err_error2 -->
<g id="edge30" class="edge">
<title>err_error3&#45;&gt;err_error2</title>
<path fill="none" stroke="black" stroke-width="1.2" d="M1007.82,-407C1029.47,-362.86 1085.27,-249.01 1111.07,-196.4"/>
<polygon fill="black" stroke="black" stroke-width="1.2" points="1114.26,-197.84 1115.52,-187.32 1107.97,-194.76 1114.26,-197.84"/>
</g>
<!-- err_error3&#45;&gt;err_error4 -->
<g id="edge32" class="edge">
<title>err_error3&#45;&gt;err_error4</title>
<path fill="none" stroke="black" stroke-width="1.2" d="M1040.81,-410.7C1076.2,-397.61 1127.49,-376.32 1168,-350 1187.55,-337.3 1207.01,-319.7 1221.54,-305.32"/>
<polygon fill="black" stroke="black" stroke-width="1.2" points="1224.11,-307.7 1228.67,-298.14 1219.14,-302.77 1224.11,-307.7"/>
</g>
<!-- mnt_comp1&#45;&gt;pressure -->
<g id="edge20" class="edge">
<title>mnt_comp1&#45;&gt;pressure</title>
<path fill="none" stroke="black" stroke-width="1.2" d="M774.78,-254.27C778.47,-256.9 781.97,-259.82 785,-263 822.5,-302.38 846.3,-362.48 857.79,-397.33"/>
<polygon fill="black" stroke="black" stroke-width="1.2" points="854.47,-398.41 860.84,-406.88 861.13,-396.28 854.47,-398.41"/>
</g>
<!-- mnt_comp1&#45;&gt;fail_comp2 -->
<g id="edge33" class="edge">
<title>mnt_comp1&#45;&gt;fail_comp2</title>
<path fill="none" stroke="black" stroke-width="1.2" d="M775.35,-217.86C788.88,-211.47 804.25,-204.2 818.44,-197.49"/>
<polygon fill="black" stroke="black" stroke-width="1.2" points="820.03,-200.61 827.57,-193.17 817.03,-194.28 820.03,-200.61"/>
</g>
<!-- mnt_comp2 -->
<g id="node11" class="node">
<title>mnt_comp2</title>
<path fill="white" stroke="black" d="M1035,-193C1035,-193 961,-193 961,-193 955,-193 949,-187 949,-181 949,-181 949,-169 949,-169 949,-163 955,-157 961,-157 961,-157 1035,-157 1035,-157 1041,-157 1047,-163 1047,-169 1047,-169 1047,-181 1047,-181 1047,-187 1041,-193 1035,-193"/>
<text text-anchor="middle" x="998" y="-171.3" font-family="Helvetica,sans-Serif" font-size="14.00">mnt_comp2</text>
</g>
<!-- mnt_comp4 -->
<g id="node13" class="node">
<title>mnt_comp4</title>
<path fill="white" stroke="black" d="M525,-286C525,-286 451,-286 451,-286 445,-286 439,-280 439,-274 439,-274 439,-262 439,-262 439,-256 445,-250 451,-250 451,-250 525,-250 525,-250 531,-250 537,-256 537,-262 537,-262 537,-274 537,-274 537,-280 531,-286 525,-286"/>
<text text-anchor="middle" x="488" y="-264.3" font-family="Helvetica,sans-Serif" font-size="14.00">mnt_comp4</text>
</g>
<!-- mnt_comp4&#45;&gt;vibration -->
<g id="edge27" class="edge">
<title>mnt_comp4&#45;&gt;vibration</title>
<path fill="none" stroke="black" stroke-width="1.2" d="M517.91,-286.01C534.35,-296.25 555.14,-309.2 572.9,-320.27"/>
<polygon fill="black" stroke="black" stroke-width="1.2" points="571.53,-323.54 581.87,-325.85 575.24,-317.6 571.53,-323.54"/>
</g>
<!-- mnt_comp4&#45;&gt;fail_comp2 -->
<g id="edge35" class="edge">
<title>mnt_comp4&#45;&gt;fail_comp2</title>
<path fill="none" stroke="black" stroke-width="1.2" d="M537.04,-252.19C576.91,-239.43 635.24,-221.59 687,-209 728.12,-199 775.15,-190.16 810.68,-184.01"/>
<polygon fill="black" stroke="black" stroke-width="1.2" points="811.59,-187.4 820.85,-182.26 810.41,-180.5 811.59,-187.4"/>
</g>
<!-- fail_comp1 -->
<g id="node14" class="node">
<title>fail_comp1</title>
<path fill="white" stroke="black" d="M80,-598C80,-598 12,-598 12,-598 6,-598 0,-592 0,-586 0,-586 0,-574 0,-574 0,-568 6,-562 12,-562 12,-562 80,-562 80,-562 86,-562 92,-568 92,-574 92,-574 92,-586 92,-586 92,-592 86,-598 80,-598"/>
<text text-anchor="middle" x="46" y="-576.3" font-family="Helvetica,sans-Serif" font-size="14.00">fail_comp1</text>
</g>
<!-- fail_comp1&#45;&gt;volt -->
<g id="edge7" class="edge">
<title>fail_comp1&#45;&gt;volt</title>
<path fill="none" stroke="black" stroke-width="1.2" d="M67.38,-561.91C84.04,-547.12 107.76,-526.05 126.17,-509.71"/>
<polygon fill="black" stroke="black" stroke-width="1.2" points="128.54,-512.28 133.7,-503.03 123.9,-507.05 128.54,-512.28"/>
</g>
<!-- fail_comp1&#45;&gt;pressure -->
<g id="edge21" class="edge">
<title>fail_comp1&#45;&gt;pressure</title>
<path fill="none" stroke="black" stroke-width="1.2" d="M74.65,-598.01C111.88,-620.49 180.92,-656 245.5,-656 245.5,-656 245.5,-656 489,-656 633.23,-656 674.93,-616.19 785,-523 807.01,-504.36 802.59,-491.2 821,-469 826.3,-462.61 832.41,-456.14 838.39,-450.2"/>
<polygon fill="black" stroke="black" stroke-width="1.2" points="841.07,-452.48 845.82,-443.01 836.2,-447.45 841.07,-452.48"/>
</g>
<!-- fail_comp2&#45;&gt;volt -->
<g id="edge8" class="edge">
<title>fail_comp2&#45;&gt;volt</title>
<path fill="none" stroke="black" stroke-width="1.2" d="M847.86,-156.81C808.67,-119.54 711.65,-38 613,-38 356,-38 356,-38 356,-38 171.62,-38 156.1,-358.79 155.67,-456.86"/>
<polygon fill="black" stroke="black" stroke-width="1.2" points="152.17,-456.93 155.67,-466.92 159.17,-456.92 152.17,-456.93"/>
</g>
<!-- fail_comp2&#45;&gt;mnt_comp2 -->
<g id="edge34" class="edge">
<title>fail_comp2&#45;&gt;mnt_comp2</title>
<path fill="none" stroke="black" stroke-width="1.2" d="M913.12,-175C921.28,-175 929.9,-175 938.38,-175"/>
<polygon fill="black" stroke="black" stroke-width="1.2" points="938.62,-178.5 948.62,-175 938.62,-171.5 938.62,-178.5"/>
</g>
<!-- fail_comp4&#45;&gt;mnt_comp4 -->
<g id="edge36" class="edge">
<title>fail_comp4&#45;&gt;mnt_comp4</title>
<path fill="none" stroke="black" stroke-width="1.2" d="M403.12,-292.71C411.46,-290.25 420.28,-287.66 428.94,-285.1"/>
<polygon fill="black" stroke="black" stroke-width="1.2" points="430.01,-288.44 438.62,-282.25 428.03,-281.72 430.01,-288.44"/>
</g>
</g>
</svg>
