<?xml version="1.0" encoding="UTF-8" standalone="no"?>
<!DOCTYPE svg PUBLIC "-//W3C//DTD SVG 1.1//EN"
 "http://www.w3.org/Graphics/SVG/1.1/DTD/svg11.dtd">
<!-- Generated by graphviz version 2.50.0 (0)
 -->
<!-- Title: G Pages: 1 -->
<svg width="1544pt" height="886pt"
 viewBox="0.00 0.00 1544.00 886.12" xmlns="http://www.w3.org/2000/svg" xmlns:xlink="http://www.w3.org/1999/xlink">
<g id="graph0" class="graph" transform="scale(1 1) rotate(0) translate(4 882.12)">
<title>G</title>
<polygon fill="white" stroke="transparent" points="-4,4 -4,-882.12 1540,-882.12 1540,4 -4,4"/>
<text text-anchor="middle" x="768" y="-861.32" font-family="Times,serif" font-size="16.00">model=model1/nbcb_w_mixed.json [machine 58]</text>
<!-- volt -->
<g id="node1" class="node">
<title>volt</title>
<path fill="white" stroke="black" d="M42,-398.12C42,-398.12 12,-398.12 12,-398.12 6,-398.12 0,-392.12 0,-386.12 0,-386.12 0,-374.12 0,-374.12 0,-368.12 6,-362.12 12,-362.12 12,-362.12 42,-362.12 42,-362.12 48,-362.12 54,-368.12 54,-374.12 54,-374.12 54,-386.12 54,-386.12 54,-392.12 48,-398.12 42,-398.12"/>
<text text-anchor="middle" x="27" y="-376.42" font-family="Helvetica,sans-Serif" font-size="14.00">volt</text>
</g>
<!-- rotate -->
<g id="node2" class="node">
<title>rotate</title>
<path fill="white" stroke="black" d="M135,-263.12C135,-263.12 102,-263.12 102,-263.12 96,-263.12 90,-257.12 90,-251.12 90,-251.12 90,-239.12 90,-239.12 90,-233.12 96,-227.12 102,-227.12 102,-227.12 135,-227.12 135,-227.12 141,-227.12 147,-233.12 147,-239.12 147,-239.12 147,-251.12 147,-251.12 147,-257.12 141,-263.12 135,-263.12"/>
<text text-anchor="middle" x="118.5" y="-241.42" font-family="Helvetica,sans-Serif" font-size="14.00">rotate</text>
</g>
<!-- volt&#45;&gt;rotate -->
<g id="edge1" class="edge">
<title>volt&#45;&gt;rotate</title>
<path fill="none" stroke="black" stroke-width="1.2" d="M45.68,-353.46C61.32,-329.87 84.02,-295.62 99.7,-271.97"/>
<polygon fill="black" stroke="black" stroke-width="1.2" points="42.68,-351.65 40.07,-361.92 48.51,-355.52 42.68,-351.65"/>
<polygon fill="black" stroke="black" stroke-width="1.2" points="102.73,-273.74 105.34,-263.47 96.89,-269.87 102.73,-273.74"/>
</g>
<!-- vibration -->
<g id="node4" class="node">
<title>vibration</title>
<path fill="white" stroke="black" d="M377,-592.12C377,-592.12 323,-592.12 323,-592.12 317,-592.12 311,-586.12 311,-580.12 311,-580.12 311,-568.12 311,-568.12 311,-562.12 317,-556.12 323,-556.12 323,-556.12 377,-556.12 377,-556.12 383,-556.12 389,-562.12 389,-568.12 389,-568.12 389,-580.12 389,-580.12 389,-586.12 383,-592.12 377,-592.12"/>
<text text-anchor="middle" x="350" y="-570.42" font-family="Helvetica,sans-Serif" font-size="14.00">vibration</text>
</g>
<!-- volt&#45;&gt;vibration -->
<g id="edge2" class="edge">
<title>volt&#45;&gt;vibration</title>
<path fill="none" stroke="black" stroke-width="1.2" d="M44.77,-398.13C56.92,-410.87 73.96,-428.09 90,-442.12 129.14,-476.36 137.42,-488.1 183,-513.12 220.72,-533.84 266.9,-550.15 300.97,-560.68"/>
<polygon fill="black" stroke="black" stroke-width="1.2" points="300.1,-564.07 310.68,-563.63 302.13,-557.38 300.1,-564.07"/>
</g>
<!-- err_error5 -->
<g id="node9" class="node">
<title>err_error5</title>
<path fill="white" stroke="black" d="M876.5,-672.12C876.5,-672.12 815.5,-672.12 815.5,-672.12 809.5,-672.12 803.5,-666.12 803.5,-660.12 803.5,-660.12 803.5,-648.12 803.5,-648.12 803.5,-642.12 809.5,-636.12 815.5,-636.12 815.5,-636.12 876.5,-636.12 876.5,-636.12 882.5,-636.12 888.5,-642.12 888.5,-648.12 888.5,-648.12 888.5,-660.12 888.5,-660.12 888.5,-666.12 882.5,-672.12 876.5,-672.12"/>
<text text-anchor="middle" x="846" y="-650.42" font-family="Helvetica,sans-Serif" font-size="14.00">err_error5</text>
</g>
<!-- volt&#45;&gt;err_error5 -->
<g id="edge5" class="edge">
<title>volt&#45;&gt;err_error5</title>
<path fill="none" stroke="black" stroke-width="1.2" d="M29.38,-398.31C34.45,-461.42 53.68,-670.17 90,-725.12 130.24,-786.01 155.02,-814.12 228,-814.12 228,-814.12 228,-814.12 603,-814.12 699.02,-814.12 786.23,-725.4 824.5,-680.09"/>
<polygon fill="black" stroke="black" stroke-width="1.2" points="827.39,-682.1 831.07,-672.17 822,-677.63 827.39,-682.1"/>
</g>
<!-- mnt_comp3 -->
<g id="node12" class="node">
<title>mnt_comp3</title>
<path fill="white" stroke="black" d="M1014,-238.12C1014,-238.12 940,-238.12 940,-238.12 934,-238.12 928,-232.12 928,-226.12 928,-226.12 928,-214.12 928,-214.12 928,-208.12 934,-202.12 940,-202.12 940,-202.12 1014,-202.12 1014,-202.12 1020,-202.12 1026,-208.12 1026,-214.12 1026,-214.12 1026,-226.12 1026,-226.12 1026,-232.12 1020,-238.12 1014,-238.12"/>
<text text-anchor="middle" x="977" y="-216.42" font-family="Helvetica,sans-Serif" font-size="14.00">mnt_comp3</text>
</g>
<!-- volt&#45;&gt;mnt_comp3 -->
<g id="edge7" class="edge">
<title>volt&#45;&gt;mnt_comp3</title>
<path fill="none" stroke="black" stroke-width="1.2" d="M32.64,-351.83C46.8,-276.39 96.73,-76.12 228,-76.12 228,-76.12 228,-76.12 603,-76.12 734.93,-76.12 876.56,-155.5 940.77,-196.39"/>
<polygon fill="black" stroke="black" stroke-width="1.2" points="29.14,-351.56 30.81,-362.02 36.03,-352.8 29.14,-351.56"/>
<polygon fill="black" stroke="black" stroke-width="1.2" points="939,-199.41 949.3,-201.89 942.79,-193.53 939,-199.41"/>
</g>
<!-- fail_comp1 -->
<g id="node14" class="node">
<title>fail_comp1</title>
<path fill="white" stroke="black" d="M505,-748.12C505,-748.12 437,-748.12 437,-748.12 431,-748.12 425,-742.12 425,-736.12 425,-736.12 425,-724.12 425,-724.12 425,-718.12 431,-712.12 437,-712.12 437,-712.12 505,-712.12 505,-712.12 511,-712.12 517,-718.12 517,-724.12 517,-724.12 517,-736.12 517,-736.12 517,-742.12 511,-748.12 505,-748.12"/>
<text text-anchor="middle" x="471" y="-726.42" font-family="Helvetica,sans-Serif" font-size="14.00">fail_comp1</text>
</g>
<!-- volt&#45;&gt;fail_comp1 -->
<g id="edge9" class="edge">
<title>volt&#45;&gt;fail_comp1</title>
<path fill="none" stroke="black" stroke-width="1.2" d="M42.6,-407.15C54.31,-427.9 71.75,-456.84 90,-480.12 171.55,-584.14 194.78,-616.18 311,-679.12 343.55,-696.75 383.18,-709.48 414.74,-717.82"/>
<polygon fill="black" stroke="black" stroke-width="1.2" points="45.56,-405.28 37.64,-398.25 39.45,-408.69 45.56,-405.28"/>
<polygon fill="black" stroke="black" stroke-width="1.2" points="414.12,-721.27 424.68,-720.37 415.86,-714.49 414.12,-721.27"/>
</g>
<!-- fail_comp2 -->
<g id="node15" class="node">
<title>fail_comp2</title>
<path fill="white" stroke="black" d="M263,-332.12C263,-332.12 195,-332.12 195,-332.12 189,-332.12 183,-326.12 183,-320.12 183,-320.12 183,-308.12 183,-308.12 183,-302.12 189,-296.12 195,-296.12 195,-296.12 263,-296.12 263,-296.12 269,-296.12 275,-302.12 275,-308.12 275,-308.12 275,-320.12 275,-320.12 275,-326.12 269,-332.12 263,-332.12"/>
<text text-anchor="middle" x="229" y="-310.42" font-family="Helvetica,sans-Serif" font-size="14.00">fail_comp2</text>
</g>
<!-- volt&#45;&gt;fail_comp2 -->
<g id="edge10" class="edge">
<title>volt&#45;&gt;fail_comp2</title>
<path fill="none" stroke="black" stroke-width="1.2" d="M63.91,-368.27C94.31,-358.24 138.36,-343.7 173.17,-332.22"/>
<polygon fill="black" stroke="black" stroke-width="1.2" points="62.55,-365.04 54.15,-371.5 64.74,-371.69 62.55,-365.04"/>
<polygon fill="black" stroke="black" stroke-width="1.2" points="174.33,-335.52 182.73,-329.07 172.13,-328.88 174.33,-335.52"/>
</g>
<!-- fail_comp3 -->
<g id="node16" class="node">
<title>fail_comp3</title>
<path fill="white" stroke="black" d="M880,-474.12C880,-474.12 812,-474.12 812,-474.12 806,-474.12 800,-468.12 800,-462.12 800,-462.12 800,-450.12 800,-450.12 800,-444.12 806,-438.12 812,-438.12 812,-438.12 880,-438.12 880,-438.12 886,-438.12 892,-444.12 892,-450.12 892,-450.12 892,-462.12 892,-462.12 892,-468.12 886,-474.12 880,-474.12"/>
<text text-anchor="middle" x="846" y="-452.42" font-family="Helvetica,sans-Serif" font-size="14.00">fail_comp3</text>
</g>
<!-- volt&#45;&gt;fail_comp3 -->
<g id="edge11" class="edge">
<title>volt&#45;&gt;fail_comp3</title>
<path fill="none" stroke="black" stroke-width="1.2" d="M54.21,-380.12C92.42,-380.12 165.67,-380.12 228,-380.12 228,-380.12 228,-380.12 603,-380.12 675.25,-380.12 754.29,-411.34 801.74,-433.76"/>
<polygon fill="black" stroke="black" stroke-width="1.2" points="800.27,-436.94 810.79,-438.11 803.3,-430.63 800.27,-436.94"/>
</g>
<!-- err_error1 -->
<g id="node5" class="node">
<title>err_error1</title>
<path fill="white" stroke="black" d="M1403,-211.12C1403,-211.12 1342,-211.12 1342,-211.12 1336,-211.12 1330,-205.12 1330,-199.12 1330,-199.12 1330,-187.12 1330,-187.12 1330,-181.12 1336,-175.12 1342,-175.12 1342,-175.12 1403,-175.12 1403,-175.12 1409,-175.12 1415,-181.12 1415,-187.12 1415,-187.12 1415,-199.12 1415,-199.12 1415,-205.12 1409,-211.12 1403,-211.12"/>
<text text-anchor="middle" x="1372.5" y="-189.42" font-family="Helvetica,sans-Serif" font-size="14.00">err_error1</text>
</g>
<!-- rotate&#45;&gt;err_error1 -->
<g id="edge12" class="edge">
<title>rotate&#45;&gt;err_error1</title>
<path fill="none" stroke="black" stroke-width="1.2" d="M142.16,-219.46C153.38,-208.25 167.78,-195.9 183,-188.12 250.22,-153.76 273.51,-152.12 349,-152.12 349,-152.12 349,-152.12 726.5,-152.12 979.03,-152.12 1042.94,-152.97 1294,-180.12 1302.38,-181.03 1311.24,-182.26 1319.85,-183.6"/>
<polygon fill="black" stroke="black" stroke-width="1.2" points="139.33,-217.35 134.92,-226.98 144.38,-222.2 139.33,-217.35"/>
<polygon fill="black" stroke="black" stroke-width="1.2" points="1319.36,-187.07 1329.79,-185.21 1320.48,-180.16 1319.36,-187.07"/>
</g>
<!-- err_error4 -->
<g id="node8" class="node">
<title>err_error4</title>
<path fill="white" stroke="black" d="M259.5,-504.12C259.5,-504.12 198.5,-504.12 198.5,-504.12 192.5,-504.12 186.5,-498.12 186.5,-492.12 186.5,-492.12 186.5,-480.12 186.5,-480.12 186.5,-474.12 192.5,-468.12 198.5,-468.12 198.5,-468.12 259.5,-468.12 259.5,-468.12 265.5,-468.12 271.5,-474.12 271.5,-480.12 271.5,-480.12 271.5,-492.12 271.5,-492.12 271.5,-498.12 265.5,-504.12 259.5,-504.12"/>
<text text-anchor="middle" x="229" y="-482.42" font-family="Helvetica,sans-Serif" font-size="14.00">err_error4</text>
</g>
<!-- rotate&#45;&gt;err_error4 -->
<g id="edge14" class="edge">
<title>rotate&#45;&gt;err_error4</title>
<path fill="none" stroke="black" stroke-width="1.2" d="M131.78,-272.4C152.63,-318.71 194.71,-412.19 215.62,-458.64"/>
<polygon fill="black" stroke="black" stroke-width="1.2" points="134.95,-270.92 127.66,-263.24 128.57,-273.79 134.95,-270.92"/>
<polygon fill="black" stroke="black" stroke-width="1.2" points="212.45,-460.12 219.75,-467.8 218.84,-457.25 212.45,-460.12"/>
</g>
<!-- rotate&#45;&gt;mnt_comp3 -->
<g id="edge16" class="edge">
<title>rotate&#45;&gt;mnt_comp3</title>
<path fill="none" stroke="black" stroke-width="1.2" d="M156.19,-224.83C164.78,-220.76 174.05,-216.88 183,-214.12 254.24,-192.18 274.46,-190.12 349,-190.12 349,-190.12 349,-190.12 726.5,-190.12 792.42,-190.12 867.44,-200.57 917.85,-209.14"/>
<polygon fill="black" stroke="black" stroke-width="1.2" points="154.59,-221.72 147.18,-229.29 157.69,-227.99 154.59,-221.72"/>
<polygon fill="black" stroke="black" stroke-width="1.2" points="917.46,-212.62 927.91,-210.88 918.65,-205.73 917.46,-212.62"/>
</g>
<!-- rotate&#45;&gt;fail_comp2 -->
<g id="edge18" class="edge">
<title>rotate&#45;&gt;fail_comp2</title>
<path fill="none" stroke="black" stroke-width="1.2" d="M155.77,-268.19C167.16,-275.43 179.74,-283.43 191.16,-290.7"/>
<polygon fill="black" stroke="black" stroke-width="1.2" points="157.48,-265.13 147.16,-262.71 153.72,-271.03 157.48,-265.13"/>
<polygon fill="black" stroke="black" stroke-width="1.2" points="189.32,-293.67 199.63,-296.09 193.07,-287.77 189.32,-293.67"/>
</g>
<!-- pressure -->
<g id="node3" class="node">
<title>pressure</title>
<path fill="white" stroke="black" d="M752,-580.12C752,-580.12 699,-580.12 699,-580.12 693,-580.12 687,-574.12 687,-568.12 687,-568.12 687,-556.12 687,-556.12 687,-550.12 693,-544.12 699,-544.12 699,-544.12 752,-544.12 752,-544.12 758,-544.12 764,-550.12 764,-556.12 764,-556.12 764,-568.12 764,-568.12 764,-574.12 758,-580.12 752,-580.12"/>
<text text-anchor="middle" x="725.5" y="-558.42" font-family="Helvetica,sans-Serif" font-size="14.00">pressure</text>
</g>
<!-- pressure&#45;&gt;err_error5 -->
<g id="edge22" class="edge">
<title>pressure&#45;&gt;err_error5</title>
<path fill="none" stroke="black" stroke-width="1.2" d="M749.91,-580.3C768.17,-594.48 793.7,-614.3 813.71,-629.84"/>
<polygon fill="black" stroke="black" stroke-width="1.2" points="811.59,-632.62 821.64,-635.99 815.88,-627.09 811.59,-632.62"/>
</g>
<!-- pressure&#45;&gt;fail_comp3 -->
<g id="edge24" class="edge">
<title>pressure&#45;&gt;fail_comp3</title>
<path fill="none" stroke="black" stroke-width="1.2" d="M754.41,-537.16C773.21,-520.34 797.94,-498.22 816.81,-481.35"/>
<polygon fill="black" stroke="black" stroke-width="1.2" points="751.99,-534.63 746.87,-543.9 756.66,-539.84 751.99,-534.63"/>
<polygon fill="black" stroke="black" stroke-width="1.2" points="819.38,-483.74 824.5,-474.46 814.71,-478.52 819.38,-483.74"/>
</g>
<!-- vibration&#45;&gt;pressure -->
<g id="edge19" class="edge">
<title>vibration&#45;&gt;pressure</title>
<path fill="none" stroke="black" stroke-width="1.2" d="M389.22,-572.9C457.85,-570.69 601.8,-566.07 676.79,-563.66"/>
<polygon fill="black" stroke="black" stroke-width="1.2" points="677.01,-567.15 686.89,-563.33 676.79,-560.16 677.01,-567.15"/>
</g>
<!-- vibration&#45;&gt;err_error1 -->
<g id="edge25" class="edge">
<title>vibration&#45;&gt;err_error1</title>
<path fill="none" stroke="black" stroke-width="1.2" d="M358.55,-546.02C368.38,-515.37 388.76,-467.57 425,-444.12 750.74,-233.37 977.53,-585.57 1294,-361.12 1340.58,-328.09 1359.84,-259.91 1367.26,-221.34"/>
<polygon fill="black" stroke="black" stroke-width="1.2" points="355.17,-545.11 355.61,-555.7 361.87,-547.14 355.17,-545.11"/>
<polygon fill="black" stroke="black" stroke-width="1.2" points="1370.74,-221.76 1369.05,-211.3 1363.85,-220.53 1370.74,-221.76"/>
</g>
<!-- mnt_comp2 -->
<g id="node11" class="node">
<title>mnt_comp2</title>
<path fill="white" stroke="black" d="M1282,-352.12C1282,-352.12 1208,-352.12 1208,-352.12 1202,-352.12 1196,-346.12 1196,-340.12 1196,-340.12 1196,-328.12 1196,-328.12 1196,-322.12 1202,-316.12 1208,-316.12 1208,-316.12 1282,-316.12 1282,-316.12 1288,-316.12 1294,-322.12 1294,-328.12 1294,-328.12 1294,-340.12 1294,-340.12 1294,-346.12 1288,-352.12 1282,-352.12"/>
<text text-anchor="middle" x="1245" y="-330.42" font-family="Helvetica,sans-Serif" font-size="14.00">mnt_comp2</text>
</g>
<!-- vibration&#45;&gt;mnt_comp2 -->
<g id="edge30" class="edge">
<title>vibration&#45;&gt;mnt_comp2</title>
<path fill="none" stroke="black" stroke-width="1.2" d="M389.26,-568.56C496.02,-552.89 795.61,-507.94 892,-483.12 1014.24,-451.65 1046.81,-445 1160,-389.12 1177.77,-380.35 1196.32,-368.53 1211.46,-358.09"/>
<polygon fill="black" stroke="black" stroke-width="1.2" points="1213.77,-360.74 1219.95,-352.13 1209.75,-355.01 1213.77,-360.74"/>
</g>
<!-- vibration&#45;&gt;fail_comp1 -->
<g id="edge31" class="edge">
<title>vibration&#45;&gt;fail_comp1</title>
<path fill="none" stroke="black" stroke-width="1.2" d="M366.44,-601.33C385.86,-635.34 417.58,-690.08 425,-698.12 427.28,-700.59 429.77,-702.98 432.38,-705.27"/>
<polygon fill="black" stroke="black" stroke-width="1.2" points="369.31,-599.3 361.32,-592.35 363.23,-602.77 369.31,-599.3"/>
<polygon fill="black" stroke="black" stroke-width="1.2" points="430.49,-708.24 440.46,-711.8 434.89,-702.79 430.49,-708.24"/>
</g>
<!-- vibration&#45;&gt;fail_comp3 -->
<g id="edge33" class="edge">
<title>vibration&#45;&gt;fail_comp3</title>
<path fill="none" stroke="black" stroke-width="1.2" d="M359.44,-555.74C370.81,-533.39 393.32,-496.64 425,-480.12 542.97,-418.63 705.7,-432.5 789.77,-445.61"/>
<polygon fill="black" stroke="black" stroke-width="1.2" points="789.43,-449.11 799.87,-447.25 790.55,-442.19 789.43,-449.11"/>
</g>
<!-- err_error1&#45;&gt;volt -->
<g id="edge3" class="edge">
<title>err_error1&#45;&gt;volt</title>
<path fill="none" stroke="black" stroke-width="1.2" d="M1359.63,-174.97C1326.63,-126.92 1228.5,-0.12 1112,-0.12 228,-0.12 228,-0.12 228,-0.12 163.21,-0.12 132.4,1.87 90,-47.12 50.47,-92.81 34.46,-279.65 29.67,-351.65"/>
<polygon fill="black" stroke="black" stroke-width="1.2" points="26.17,-351.59 29.02,-361.79 33.16,-352.04 26.17,-351.59"/>
</g>
<!-- err_error2 -->
<g id="node6" class="node">
<title>err_error2</title>
<path fill="white" stroke="black" d="M1524,-295.12C1524,-295.12 1463,-295.12 1463,-295.12 1457,-295.12 1451,-289.12 1451,-283.12 1451,-283.12 1451,-271.12 1451,-271.12 1451,-265.12 1457,-259.12 1463,-259.12 1463,-259.12 1524,-259.12 1524,-259.12 1530,-259.12 1536,-265.12 1536,-271.12 1536,-271.12 1536,-283.12 1536,-283.12 1536,-289.12 1530,-295.12 1524,-295.12"/>
<text text-anchor="middle" x="1493.5" y="-273.42" font-family="Helvetica,sans-Serif" font-size="14.00">err_error2</text>
</g>
<!-- err_error2&#45;&gt;rotate -->
<g id="edge13" class="edge">
<title>err_error2&#45;&gt;rotate</title>
<path fill="none" stroke="black" stroke-width="1.2" d="M1483.28,-259C1455.33,-206.84 1366.02,-60.12 1246,-60.12 1110,-60.12 1110,-60.12 1110,-60.12 883.39,-60.12 829.61,-114.12 603,-114.12 349,-114.12 349,-114.12 349,-114.12 273.41,-114.12 245.47,-108.57 183,-151.12 159,-167.47 141.59,-196.16 131.13,-217.56"/>
<polygon fill="black" stroke="black" stroke-width="1.2" points="127.87,-216.27 126.82,-226.81 134.22,-219.23 127.87,-216.27"/>
</g>
<!-- err_error3 -->
<g id="node7" class="node">
<title>err_error3</title>
<path fill="white" stroke="black" d="M1403,-550.12C1403,-550.12 1342,-550.12 1342,-550.12 1336,-550.12 1330,-544.12 1330,-538.12 1330,-538.12 1330,-526.12 1330,-526.12 1330,-520.12 1336,-514.12 1342,-514.12 1342,-514.12 1403,-514.12 1403,-514.12 1409,-514.12 1415,-520.12 1415,-526.12 1415,-526.12 1415,-538.12 1415,-538.12 1415,-544.12 1409,-550.12 1403,-550.12"/>
<text text-anchor="middle" x="1372.5" y="-528.42" font-family="Helvetica,sans-Serif" font-size="14.00">err_error3</text>
</g>
<!-- err_error3&#45;&gt;pressure -->
<g id="edge20" class="edge">
<title>err_error3&#45;&gt;pressure</title>
<path fill="none" stroke="black" stroke-width="1.2" d="M1329.98,-542.01C1278.96,-553.27 1189.63,-570.12 1112,-570.12 976,-570.12 976,-570.12 976,-570.12 905.8,-570.12 824.55,-566.92 774.34,-564.57"/>
<polygon fill="black" stroke="black" stroke-width="1.2" points="774.26,-561.06 764.11,-564.08 773.93,-568.05 774.26,-561.06"/>
</g>
<!-- err_error3&#45;&gt;vibration -->
<g id="edge26" class="edge">
<title>err_error3&#45;&gt;vibration</title>
<path fill="none" stroke="black" stroke-width="1.2" d="M1340.28,-550.22C1326.47,-557.59 1309.8,-565.65 1294,-571.12 1216,-598.14 1194.54,-608.12 1112,-608.12 601,-608.12 601,-608.12 601,-608.12 530.31,-608.12 449.4,-594.61 399.24,-584.63"/>
<polygon fill="black" stroke="black" stroke-width="1.2" points="399.82,-581.17 389.32,-582.62 398.43,-588.03 399.82,-581.17"/>
</g>
<!-- err_error3&#45;&gt;err_error2 -->
<g id="edge37" class="edge">
<title>err_error3&#45;&gt;err_error2</title>
<path fill="none" stroke="black" stroke-width="1.2" d="M1382.06,-513.79C1402.69,-469.59 1455.24,-356.96 1479.66,-304.63"/>
<polygon fill="black" stroke="black" stroke-width="1.2" points="1482.96,-305.84 1484.02,-295.3 1476.62,-302.88 1482.96,-305.84"/>
</g>
<!-- err_error4&#45;&gt;volt -->
<g id="edge4" class="edge">
<title>err_error4&#45;&gt;volt</title>
<path fill="none" stroke="black" stroke-width="1.2" d="M193.81,-468C157.33,-448.67 99.83,-418.2 63.03,-398.69"/>
<polygon fill="black" stroke="black" stroke-width="1.2" points="64.62,-395.57 54.15,-393.98 61.34,-401.76 64.62,-395.57"/>
</g>
<!-- err_error4&#45;&gt;pressure -->
<g id="edge21" class="edge">
<title>err_error4&#45;&gt;pressure</title>
<path fill="none" stroke="black" stroke-width="1.2" d="M271.73,-492.54C363.06,-506.57 580.15,-539.94 676.74,-554.78"/>
<polygon fill="black" stroke="black" stroke-width="1.2" points="676.39,-558.27 686.81,-556.33 677.46,-551.35 676.39,-558.27"/>
</g>
<!-- err_error4&#45;&gt;vibration -->
<g id="edge27" class="edge">
<title>err_error4&#45;&gt;vibration</title>
<path fill="none" stroke="black" stroke-width="1.2" d="M254.37,-504.15C272.22,-517.34 296.64,-535.4 316.2,-549.87"/>
<polygon fill="black" stroke="black" stroke-width="1.2" points="314.13,-552.69 324.26,-555.83 318.3,-547.07 314.13,-552.69"/>
</g>
<!-- err_error5&#45;&gt;vibration -->
<g id="edge28" class="edge">
<title>err_error5&#45;&gt;vibration</title>
<path fill="none" stroke="black" stroke-width="1.2" d="M803.42,-657.61C726.44,-662.62 557.5,-666.88 425,-622.12 409.32,-616.83 393.69,-607.45 380.87,-598.38"/>
<polygon fill="black" stroke="black" stroke-width="1.2" points="382.6,-595.31 372.47,-592.21 378.45,-600.95 382.6,-595.31"/>
</g>
<!-- mnt_comp1 -->
<g id="node10" class="node">
<title>mnt_comp1</title>
<path fill="white" stroke="black" d="M639,-748.12C639,-748.12 565,-748.12 565,-748.12 559,-748.12 553,-742.12 553,-736.12 553,-736.12 553,-724.12 553,-724.12 553,-718.12 559,-712.12 565,-712.12 565,-712.12 639,-712.12 639,-712.12 645,-712.12 651,-718.12 651,-724.12 651,-724.12 651,-736.12 651,-736.12 651,-742.12 645,-748.12 639,-748.12"/>
<text text-anchor="middle" x="602" y="-726.42" font-family="Helvetica,sans-Serif" font-size="14.00">mnt_comp1</text>
</g>
<!-- mnt_comp1&#45;&gt;volt -->
<g id="edge6" class="edge">
<title>mnt_comp1&#45;&gt;volt</title>
<path fill="none" stroke="black" stroke-width="1.2" d="M552.58,-747.48C541.04,-751.11 528.68,-754.61 517,-757.12 444.41,-772.78 425.26,-776.12 351,-776.12 228,-776.12 228,-776.12 228,-776.12 62.95,-776.12 34.08,-498.66 29.05,-408.24"/>
<polygon fill="black" stroke="black" stroke-width="1.2" points="32.55,-407.98 28.55,-398.17 25.55,-408.33 32.55,-407.98"/>
</g>
<!-- mnt_comp1&#45;&gt;pressure -->
<g id="edge23" class="edge">
<title>mnt_comp1&#45;&gt;pressure</title>
<path fill="none" stroke="black" stroke-width="1.2" d="M616.23,-711.83C637.84,-681.96 680.75,-622.62 705.57,-588.3"/>
<polygon fill="black" stroke="black" stroke-width="1.2" points="708.44,-590.3 711.47,-580.15 702.77,-586.2 708.44,-590.3"/>
</g>
<!-- mnt_comp1&#45;&gt;vibration -->
<g id="edge29" class="edge">
<title>mnt_comp1&#45;&gt;vibration</title>
<path fill="none" stroke="black" stroke-width="1.2" d="M552.67,-713.83C508.24,-698.34 446.15,-675.21 425,-660.12 402.29,-643.94 382.07,-619.35 368.53,-600.61"/>
<polygon fill="black" stroke="black" stroke-width="1.2" points="371.23,-598.36 362.61,-592.2 365.5,-602.39 371.23,-598.36"/>
</g>
<!-- mnt_comp1&#45;&gt;err_error3 -->
<g id="edge38" class="edge">
<title>mnt_comp1&#45;&gt;err_error3</title>
<path fill="none" stroke="black" stroke-width="1.2" d="M622.65,-748.13C661.81,-782.06 753.72,-852.12 845,-852.12 845,-852.12 845,-852.12 1112,-852.12 1261.91,-852.12 1340.29,-637.63 1363.79,-559.86"/>
<polygon fill="black" stroke="black" stroke-width="1.2" points="1367.15,-560.83 1366.62,-550.25 1360.44,-558.85 1367.15,-560.83"/>
</g>
<!-- mnt_comp2&#45;&gt;rotate -->
<g id="edge15" class="edge">
<title>mnt_comp2&#45;&gt;rotate</title>
<path fill="none" stroke="black" stroke-width="1.2" d="M1195.8,-320.59C1089.63,-292.02 827.18,-228.12 603,-228.12 349,-228.12 349,-228.12 349,-228.12 281.17,-228.12 202.37,-235.6 156.98,-240.64"/>
<polygon fill="black" stroke="black" stroke-width="1.2" points="156.55,-237.16 147.01,-241.77 157.34,-244.12 156.55,-237.16"/>
</g>
<!-- mnt_comp2&#45;&gt;err_error1 -->
<g id="edge34" class="edge">
<title>mnt_comp2&#45;&gt;err_error1</title>
<path fill="none" stroke="black" stroke-width="1.2" d="M1262.15,-315.98C1284.08,-291.34 1323.42,-247.15 1348.45,-219.02"/>
<polygon fill="black" stroke="black" stroke-width="1.2" points="1351.38,-221 1355.41,-211.2 1346.15,-216.34 1351.38,-221"/>
</g>
<!-- mnt_comp2&#45;&gt;err_error3 -->
<g id="edge39" class="edge">
<title>mnt_comp2&#45;&gt;err_error3</title>
<path fill="none" stroke="black" stroke-width="1.2" d="M1257.58,-352.4C1279.81,-387.46 1328.54,-464.35 1354.47,-505.26"/>
<polygon fill="black" stroke="black" stroke-width="1.2" points="1351.64,-507.32 1359.95,-513.9 1357.55,-503.58 1351.64,-507.32"/>
</g>
<!-- mnt_comp4 -->
<g id="node13" class="node">
<title>mnt_comp4</title>
<path fill="white" stroke="black" d="M1148,-238.12C1148,-238.12 1074,-238.12 1074,-238.12 1068,-238.12 1062,-232.12 1062,-226.12 1062,-226.12 1062,-214.12 1062,-214.12 1062,-208.12 1068,-202.12 1074,-202.12 1074,-202.12 1148,-202.12 1148,-202.12 1154,-202.12 1160,-208.12 1160,-214.12 1160,-214.12 1160,-226.12 1160,-226.12 1160,-232.12 1154,-238.12 1148,-238.12"/>
<text text-anchor="middle" x="1111" y="-216.42" font-family="Helvetica,sans-Serif" font-size="14.00">mnt_comp4</text>
</g>
<!-- mnt_comp3&#45;&gt;mnt_comp4 -->
<g id="edge45" class="edge">
<title>mnt_comp3&#45;&gt;mnt_comp4</title>
<path fill="none" stroke="black" stroke-width="1.2" d="M1026.03,-220.12C1034.31,-220.12 1043,-220.12 1051.52,-220.12"/>
<polygon fill="black" stroke="black" stroke-width="1.2" points="1051.79,-223.62 1061.79,-220.12 1051.79,-216.62 1051.79,-223.62"/>
</g>
<!-- mnt_comp4&#45;&gt;volt -->
<g id="edge8" class="edge">
<title>mnt_comp4&#45;&gt;volt</title>
<path fill="none" stroke="black" stroke-width="1.2" d="M1089.2,-202.01C1034.13,-155.97 878.32,-38.12 726.5,-38.12 228,-38.12 228,-38.12 228,-38.12 160.2,-38.12 132.39,-50.21 90,-103.12 59.13,-141.66 38.6,-289.62 31.13,-352.06"/>
<polygon fill="black" stroke="black" stroke-width="1.2" points="27.66,-351.66 29.97,-362 34.61,-352.48 27.66,-351.66"/>
</g>
<!-- mnt_comp4&#45;&gt;err_error1 -->
<g id="edge35" class="edge">
<title>mnt_comp4&#45;&gt;err_error1</title>
<path fill="none" stroke="black" stroke-width="1.2" d="M1160.2,-215.11C1205.58,-210.39 1273.33,-203.34 1319.81,-198.5"/>
<polygon fill="black" stroke="black" stroke-width="1.2" points="1320.39,-201.96 1329.98,-197.45 1319.67,-195 1320.39,-201.96"/>
</g>
<!-- mnt_comp4&#45;&gt;mnt_comp2 -->
<g id="edge42" class="edge">
<title>mnt_comp4&#45;&gt;mnt_comp2</title>
<path fill="none" stroke="black" stroke-width="1.2" d="M1141.05,-238.23C1147.45,-242.57 1154.08,-247.33 1160,-252.12 1181.56,-269.59 1203.95,-291.67 1220.18,-308.52"/>
<polygon fill="black" stroke="black" stroke-width="1.2" points="1217.75,-311.04 1227.19,-315.85 1222.81,-306.2 1217.75,-311.04"/>
</g>
<!-- fail_comp1&#45;&gt;rotate -->
<g id="edge17" class="edge">
<title>fail_comp1&#45;&gt;rotate</title>
<path fill="none" stroke="black" stroke-width="1.2" d="M431.35,-712.02C368.89,-680.71 246.4,-610.3 183,-513.12 133.12,-436.67 122.32,-325.19 120.05,-273.45"/>
<polygon fill="black" stroke="black" stroke-width="1.2" points="123.55,-273.22 119.69,-263.36 116.55,-273.48 123.55,-273.22"/>
</g>
<!-- fail_comp1&#45;&gt;mnt_comp1 -->
<g id="edge41" class="edge">
<title>fail_comp1&#45;&gt;mnt_comp1</title>
<path fill="none" stroke="black" stroke-width="1.2" d="M517.12,-730.12C525.28,-730.12 533.9,-730.12 542.38,-730.12"/>
<polygon fill="black" stroke="black" stroke-width="1.2" points="542.62,-733.62 552.62,-730.12 542.62,-726.62 542.62,-733.62"/>
</g>
<!-- fail_comp2&#45;&gt;vibration -->
<g id="edge32" class="edge">
<title>fail_comp2&#45;&gt;vibration</title>
<path fill="none" stroke="black" stroke-width="1.2" d="M238.37,-332.41C258.94,-377.35 312.06,-493.42 336.44,-546.68"/>
<polygon fill="black" stroke="black" stroke-width="1.2" points="333.3,-548.23 340.64,-555.86 339.66,-545.31 333.3,-548.23"/>
</g>
<!-- fail_comp2&#45;&gt;err_error1 -->
<g id="edge36" class="edge">
<title>fail_comp2&#45;&gt;err_error1</title>
<path fill="none" stroke="black" stroke-width="1.2" d="M275.03,-299.59C322.86,-285.47 400.95,-266.12 470,-266.12 470,-266.12 470,-266.12 603,-266.12 751.04,-266.12 780.86,-209.45 928,-193.12 1068.91,-177.49 1236.55,-184.35 1319.57,-189.43"/>
<polygon fill="black" stroke="black" stroke-width="1.2" points="1319.55,-192.93 1329.75,-190.07 1319.99,-185.95 1319.55,-192.93"/>
</g>
<!-- fail_comp2&#45;&gt;mnt_comp2 -->
<g id="edge43" class="edge">
<title>fail_comp2&#45;&gt;mnt_comp2</title>
<path fill="none" stroke="black" stroke-width="1.2" d="M275.38,-322.6C323.5,-330.84 401.83,-342.12 470,-342.12 470,-342.12 470,-342.12 978,-342.12 1049.62,-342.12 1132.03,-339.19 1185.91,-336.88"/>
<polygon fill="black" stroke="black" stroke-width="1.2" points="1186.12,-340.37 1195.96,-336.44 1185.82,-333.38 1186.12,-340.37"/>
</g>
<!-- fail_comp2&#45;&gt;mnt_comp4 -->
<g id="edge47" class="edge">
<title>fail_comp2&#45;&gt;mnt_comp4</title>
<path fill="none" stroke="black" stroke-width="1.2" d="M275.1,-311.12C323.31,-308.18 402.02,-304.12 470,-304.12 470,-304.12 470,-304.12 847,-304.12 928,-304.12 1016.66,-267.52 1067.57,-242.64"/>
<polygon fill="black" stroke="black" stroke-width="1.2" points="1069.23,-245.73 1076.63,-238.14 1066.12,-239.46 1069.23,-245.73"/>
</g>
<!-- fail_comp3&#45;&gt;err_error3 -->
<g id="edge40" class="edge">
<title>fail_comp3&#45;&gt;err_error3</title>
<path fill="none" stroke="black" stroke-width="1.2" d="M892.17,-462.67C989.23,-476.73 1217.15,-509.76 1319.79,-524.63"/>
<polygon fill="black" stroke="black" stroke-width="1.2" points="1319.52,-528.13 1329.92,-526.1 1320.52,-521.2 1319.52,-528.13"/>
</g>
<!-- fail_comp3&#45;&gt;mnt_comp2 -->
<g id="edge44" class="edge">
<title>fail_comp3&#45;&gt;mnt_comp2</title>
<path fill="none" stroke="black" stroke-width="1.2" d="M892.15,-442.25C964.46,-420.03 1106.17,-376.48 1185.92,-351.97"/>
<polygon fill="black" stroke="black" stroke-width="1.2" points="1187.27,-355.22 1195.8,-348.94 1185.21,-348.53 1187.27,-355.22"/>
</g>
<!-- fail_comp3&#45;&gt;mnt_comp3 -->
<g id="edge46" class="edge">
<title>fail_comp3&#45;&gt;mnt_comp3</title>
<path fill="none" stroke="black" stroke-width="1.2" d="M856.91,-438C879.42,-396.81 934.52,-296.01 961.13,-247.32"/>
<polygon fill="black" stroke="black" stroke-width="1.2" points="964.33,-248.77 966.06,-238.31 958.19,-245.41 964.33,-248.77"/>
</g>
<!-- fail_comp3&#45;&gt;mnt_comp4 -->
<g id="edge48" class="edge">
<title>fail_comp3&#45;&gt;mnt_comp4</title>
<path fill="none" stroke="black" stroke-width="1.2" d="M873.84,-438.05C910.09,-413.07 975.92,-365.68 1026,-318.12 1049.71,-295.61 1073.68,-266.93 1089.91,-246.42"/>
<polygon fill="black" stroke="black" stroke-width="1.2" points="1092.74,-248.48 1096.16,-238.45 1087.23,-244.16 1092.74,-248.48"/>
</g>
</g>
</svg>
