<?xml version="1.0" encoding="UTF-8" standalone="no"?>
<!DOCTYPE svg PUBLIC "-//W3C//DTD SVG 1.1//EN"
 "http://www.w3.org/Graphics/SVG/1.1/DTD/svg11.dtd">
<!-- Generated by graphviz version 2.50.0 (0)
 -->
<!-- Title: G Pages: 1 -->
<svg width="454pt" height="124pt"
 viewBox="0.00 0.00 454.00 124.00" xmlns="http://www.w3.org/2000/svg" xmlns:xlink="http://www.w3.org/1999/xlink">
<g id="graph0" class="graph" transform="scale(1 1) rotate(0) translate(4 120)">
<title>G</title>
<polygon fill="white" stroke="transparent" points="-4,4 -4,-120 450,-120 450,4 -4,4"/>
<text text-anchor="middle" x="223" y="-99.2" font-family="Times,serif" font-size="16.00">model=model2/nbcb_w_telemetry.json [machine 54]</text>
<!-- volt -->
<g id="node1" class="node">
<title>volt</title>
<path fill="white" stroke="black" d="M181,-36C181,-36 151,-36 151,-36 145,-36 139,-30 139,-24 139,-24 139,-12 139,-12 139,-6 145,0 151,0 151,0 181,0 181,0 187,0 193,-6 193,-12 193,-12 193,-24 193,-24 193,-30 187,-36 181,-36"/>
<text text-anchor="middle" x="166" y="-14.3" font-family="Helvetica,sans-Serif" font-size="14.00">volt</text>
</g>
<!-- pressure -->
<g id="node3" class="node">
<title>pressure</title>
<path fill="white" stroke="black" d="M296,-36C296,-36 243,-36 243,-36 237,-36 231,-30 231,-24 231,-24 231,-12 231,-12 231,-6 237,0 243,0 243,0 296,0 296,0 302,0 308,-6 308,-12 308,-12 308,-24 308,-24 308,-30 302,-36 296,-36"/>
<text text-anchor="middle" x="269.5" y="-14.3" font-family="Helvetica,sans-Serif" font-size="14.00">pressure</text>
</g>
<!-- volt&#45;&gt;pressure -->
<g id="edge1" class="edge">
<title>volt&#45;&gt;pressure</title>
<path fill="none" stroke="black" stroke-width="1.2" d="M193.14,-18C201.59,-18 211.25,-18 220.77,-18"/>
<polygon fill="black" stroke="black" stroke-width="1.2" points="220.97,-21.5 230.97,-18 220.97,-14.5 220.97,-21.5"/>
</g>
<!-- rotate -->
<g id="node2" class="node">
<title>rotate</title>
<path fill="white" stroke="black" d="M182.5,-90C182.5,-90 149.5,-90 149.5,-90 143.5,-90 137.5,-84 137.5,-78 137.5,-78 137.5,-66 137.5,-66 137.5,-60 143.5,-54 149.5,-54 149.5,-54 182.5,-54 182.5,-54 188.5,-54 194.5,-60 194.5,-66 194.5,-66 194.5,-78 194.5,-78 194.5,-84 188.5,-90 182.5,-90"/>
<text text-anchor="middle" x="166" y="-68.3" font-family="Helvetica,sans-Serif" font-size="14.00">rotate</text>
</g>
<!-- vibration -->
<g id="node4" class="node">
<title>vibration</title>
<path fill="white" stroke="black" d="M296.5,-90C296.5,-90 242.5,-90 242.5,-90 236.5,-90 230.5,-84 230.5,-78 230.5,-78 230.5,-66 230.5,-66 230.5,-60 236.5,-54 242.5,-54 242.5,-54 296.5,-54 296.5,-54 302.5,-54 308.5,-60 308.5,-66 308.5,-66 308.5,-78 308.5,-78 308.5,-84 302.5,-90 296.5,-90"/>
<text text-anchor="middle" x="269.5" y="-68.3" font-family="Helvetica,sans-Serif" font-size="14.00">vibration</text>
</g>
<!-- rotate&#45;&gt;vibration -->
<g id="edge2" class="edge">
<title>rotate&#45;&gt;vibration</title>
<path fill="none" stroke="black" stroke-width="1.2" d="M194.74,-72C202.58,-72 211.36,-72 220.05,-72"/>
<polygon fill="black" stroke="black" stroke-width="1.2" points="220.15,-75.5 230.15,-72 220.15,-68.5 220.15,-75.5"/>
</g>
</g>
</svg>
