<?xml version="1.0" encoding="UTF-8" standalone="no"?>
<!DOCTYPE svg PUBLIC "-//W3C//DTD SVG 1.1//EN"
 "http://www.w3.org/Graphics/SVG/1.1/DTD/svg11.dtd">
<!-- Generated by graphviz version 2.50.0 (0)
 -->
<!-- Title: G Pages: 1 -->
<svg width="451pt" height="93pt"
 viewBox="0.00 0.00 451.00 93.00" xmlns="http://www.w3.org/2000/svg" xmlns:xlink="http://www.w3.org/1999/xlink">
<g id="graph0" class="graph" transform="scale(1 1) rotate(0) translate(4 89)">
<title>G</title>
<polygon fill="white" stroke="transparent" points="-4,4 -4,-89 447,-89 447,4 -4,4"/>
<text text-anchor="middle" x="221.5" y="-68.2" font-family="Times,serif" font-size="16.00">model=model2/nbcb_e_telemetry.json [machine 94]</text>
<!-- volt -->
<g id="node1" class="node">
<title>volt</title>
<path fill="white" stroke="black" d="M76.5,-36C76.5,-36 46.5,-36 46.5,-36 40.5,-36 34.5,-30 34.5,-24 34.5,-24 34.5,-12 34.5,-12 34.5,-6 40.5,0 46.5,0 46.5,0 76.5,0 76.5,0 82.5,0 88.5,-6 88.5,-12 88.5,-12 88.5,-24 88.5,-24 88.5,-30 82.5,-36 76.5,-36"/>
<text text-anchor="middle" x="61.5" y="-14.3" font-family="Helvetica,sans-Serif" font-size="14.00">volt</text>
</g>
<!-- rotate -->
<g id="node2" class="node">
<title>rotate</title>
<path fill="white" stroke="black" d="M169.5,-59C169.5,-59 136.5,-59 136.5,-59 130.5,-59 124.5,-53 124.5,-47 124.5,-47 124.5,-35 124.5,-35 124.5,-29 130.5,-23 136.5,-23 136.5,-23 169.5,-23 169.5,-23 175.5,-23 181.5,-29 181.5,-35 181.5,-35 181.5,-47 181.5,-47 181.5,-53 175.5,-59 169.5,-59"/>
<text text-anchor="middle" x="153" y="-37.3" font-family="Helvetica,sans-Serif" font-size="14.00">rotate</text>
</g>
<!-- volt&#45;&gt;rotate -->
<g id="edge1" class="edge">
<title>volt&#45;&gt;rotate</title>
<path fill="none" stroke="black" stroke-width="1.2" d="M88.87,-24.78C96.87,-26.83 105.83,-29.13 114.42,-31.34"/>
<polygon fill="black" stroke="black" stroke-width="1.2" points="113.71,-34.77 124.26,-33.87 115.45,-27.99 113.71,-34.77"/>
</g>
<!-- vibration -->
<g id="node4" class="node">
<title>vibration</title>
<path fill="white" stroke="black" d="M283.5,-59C283.5,-59 229.5,-59 229.5,-59 223.5,-59 217.5,-53 217.5,-47 217.5,-47 217.5,-35 217.5,-35 217.5,-29 223.5,-23 229.5,-23 229.5,-23 283.5,-23 283.5,-23 289.5,-23 295.5,-29 295.5,-35 295.5,-35 295.5,-47 295.5,-47 295.5,-53 289.5,-59 283.5,-59"/>
<text text-anchor="middle" x="256.5" y="-37.3" font-family="Helvetica,sans-Serif" font-size="14.00">vibration</text>
</g>
<!-- rotate&#45;&gt;vibration -->
<g id="edge3" class="edge">
<title>rotate&#45;&gt;vibration</title>
<path fill="none" stroke="black" stroke-width="1.2" d="M181.74,-41C189.58,-41 198.36,-41 207.05,-41"/>
<polygon fill="black" stroke="black" stroke-width="1.2" points="207.15,-44.5 217.15,-41 207.15,-37.5 207.15,-44.5"/>
</g>
<!-- pressure -->
<g id="node3" class="node">
<title>pressure</title>
<path fill="white" stroke="black" d="M396.5,-36C396.5,-36 343.5,-36 343.5,-36 337.5,-36 331.5,-30 331.5,-24 331.5,-24 331.5,-12 331.5,-12 331.5,-6 337.5,0 343.5,0 343.5,0 396.5,0 396.5,0 402.5,0 408.5,-6 408.5,-12 408.5,-12 408.5,-24 408.5,-24 408.5,-30 402.5,-36 396.5,-36"/>
<text text-anchor="middle" x="370" y="-14.3" font-family="Helvetica,sans-Serif" font-size="14.00">pressure</text>
</g>
<!-- pressure&#45;&gt;volt -->
<g id="edge2" class="edge">
<title>pressure&#45;&gt;volt</title>
<path fill="none" stroke="black" stroke-width="1.2" d="M331.25,-15.55C319.77,-14.91 307.12,-14.32 295.5,-14 219.53,-11.93 200.46,-11.55 124.5,-14 116.15,-14.27 107.17,-14.74 98.71,-15.27"/>
<polygon fill="black" stroke="black" stroke-width="1.2" points="98.47,-11.78 88.73,-15.93 98.94,-18.76 98.47,-11.78"/>
</g>
<!-- vibration&#45;&gt;pressure -->
<g id="edge4" class="edge">
<title>vibration&#45;&gt;pressure</title>
<path fill="none" stroke="black" stroke-width="1.2" d="M295.56,-33.15C303.9,-31.43 312.84,-29.59 321.5,-27.8"/>
<polygon fill="black" stroke="black" stroke-width="1.2" points="322.4,-31.19 331.49,-25.74 320.99,-24.33 322.4,-31.19"/>
</g>
</g>
</svg>
