<?xml version="1.0" encoding="UTF-8" standalone="no"?>
<!DOCTYPE svg PUBLIC "-//W3C//DTD SVG 1.1//EN"
 "http://www.w3.org/Graphics/SVG/1.1/DTD/svg11.dtd">
<!-- Generated by graphviz version 2.50.0 (0)
 -->
<!-- Title: G Pages: 1 -->
<svg width="1290pt" height="690pt"
 viewBox="0.00 0.00 1290.00 690.00" xmlns="http://www.w3.org/2000/svg" xmlns:xlink="http://www.w3.org/1999/xlink">
<g id="graph0" class="graph" transform="scale(1 1) rotate(0) translate(4 686)">
<title>G</title>
<polygon fill="white" stroke="transparent" points="-4,4 -4,-686 1286,-686 1286,4 -4,4"/>
<text text-anchor="middle" x="641" y="-665.2" font-family="Times,serif" font-size="16.00">model=model2/nbcb_w_mixed.json [machine 98]</text>
<!-- volt -->
<g id="node1" class="node">
<title>volt</title>
<path fill="white" stroke="black" d="M42,-470C42,-470 12,-470 12,-470 6,-470 0,-464 0,-458 0,-458 0,-446 0,-446 0,-440 6,-434 12,-434 12,-434 42,-434 42,-434 48,-434 54,-440 54,-446 54,-446 54,-458 54,-458 54,-464 48,-470 42,-470"/>
<text text-anchor="middle" x="27" y="-448.3" font-family="Helvetica,sans-Serif" font-size="14.00">volt</text>
</g>
<!-- rotate -->
<g id="node2" class="node">
<title>rotate</title>
<path fill="white" stroke="black" d="M135,-371C135,-371 102,-371 102,-371 96,-371 90,-365 90,-359 90,-359 90,-347 90,-347 90,-341 96,-335 102,-335 102,-335 135,-335 135,-335 141,-335 147,-341 147,-347 147,-347 147,-359 147,-359 147,-365 141,-371 135,-371"/>
<text text-anchor="middle" x="118.5" y="-349.3" font-family="Helvetica,sans-Serif" font-size="14.00">rotate</text>
</g>
<!-- volt&#45;&gt;rotate -->
<g id="edge1" class="edge">
<title>volt&#45;&gt;rotate</title>
<path fill="none" stroke="black" stroke-width="1.2" d="M44.42,-433.84C58.42,-418.35 78.71,-395.9 94.36,-378.59"/>
<polygon fill="black" stroke="black" stroke-width="1.2" points="97.08,-380.81 101.19,-371.04 91.89,-376.11 97.08,-380.81"/>
</g>
<!-- err_error5 -->
<g id="node9" class="node">
<title>err_error5</title>
<path fill="white" stroke="black" d="M256,-246C256,-246 195,-246 195,-246 189,-246 183,-240 183,-234 183,-234 183,-222 183,-222 183,-216 189,-210 195,-210 195,-210 256,-210 256,-210 262,-210 268,-216 268,-222 268,-222 268,-234 268,-234 268,-240 262,-246 256,-246"/>
<text text-anchor="middle" x="225.5" y="-224.3" font-family="Helvetica,sans-Serif" font-size="14.00">err_error5</text>
</g>
<!-- volt&#45;&gt;err_error5 -->
<g id="edge4" class="edge">
<title>volt&#45;&gt;err_error5</title>
<path fill="none" stroke="black" stroke-width="1.2" d="M33.83,-433.72C42.79,-407.69 61.91,-359.4 90,-326 115.95,-295.14 153.58,-268.8 182.44,-251.23"/>
<polygon fill="black" stroke="black" stroke-width="1.2" points="184.31,-254.19 191.1,-246.06 180.72,-248.18 184.31,-254.19"/>
</g>
<!-- fail_comp1 -->
<g id="node14" class="node">
<title>fail_comp1</title>
<path fill="white" stroke="black" d="M868,-422C868,-422 800,-422 800,-422 794,-422 788,-416 788,-410 788,-410 788,-398 788,-398 788,-392 794,-386 800,-386 800,-386 868,-386 868,-386 874,-386 880,-392 880,-398 880,-398 880,-410 880,-410 880,-416 874,-422 868,-422"/>
<text text-anchor="middle" x="834" y="-400.3" font-family="Helvetica,sans-Serif" font-size="14.00">fail_comp1</text>
</g>
<!-- volt&#45;&gt;fail_comp1 -->
<g id="edge6" class="edge">
<title>volt&#45;&gt;fail_comp1</title>
<path fill="none" stroke="black" stroke-width="1.2" d="M63.86,-463.92C72.35,-466.32 81.42,-468.54 90,-470 130.81,-476.93 141.64,-473.38 183,-475 285.41,-479.02 549.71,-483.92 660,-485 700.89,-485.4 714.22,-500.65 752,-485 778.57,-473.99 800.97,-449.58 815.43,-430.41"/>
<polygon fill="black" stroke="black" stroke-width="1.2" points="64.82,-460.55 54.24,-461.06 62.83,-467.26 64.82,-460.55"/>
<polygon fill="black" stroke="black" stroke-width="1.2" points="818.27,-432.46 821.31,-422.31 812.61,-428.34 818.27,-432.46"/>
</g>
<!-- fail_comp3 -->
<g id="node16" class="node">
<title>fail_comp3</title>
<path fill="white" stroke="black" d="M1133,-590C1133,-590 1065,-590 1065,-590 1059,-590 1053,-584 1053,-578 1053,-578 1053,-566 1053,-566 1053,-560 1059,-554 1065,-554 1065,-554 1133,-554 1133,-554 1139,-554 1145,-560 1145,-566 1145,-566 1145,-578 1145,-578 1145,-584 1139,-590 1133,-590"/>
<text text-anchor="middle" x="1099" y="-568.3" font-family="Helvetica,sans-Serif" font-size="14.00">fail_comp3</text>
</g>
<!-- volt&#45;&gt;fail_comp3 -->
<g id="edge7" class="edge">
<title>volt&#45;&gt;fail_comp3</title>
<path fill="none" stroke="black" stroke-width="1.2" d="M32.91,-470.3C40.95,-497.32 59.18,-548.25 90,-581 136.91,-630.84 156.06,-656 224.5,-656 224.5,-656 224.5,-656 835,-656 915.74,-656 938.64,-653.98 1014,-625 1032.43,-617.91 1051.18,-606.56 1066.28,-596.17"/>
<polygon fill="black" stroke="black" stroke-width="1.2" points="1068.57,-598.84 1074.72,-590.21 1064.53,-593.13 1068.57,-598.84"/>
</g>
<!-- fail_comp4 -->
<g id="node17" class="node">
<title>fail_comp4</title>
<path fill="white" stroke="black" d="M740,-476C740,-476 672,-476 672,-476 666,-476 660,-470 660,-464 660,-464 660,-452 660,-452 660,-446 666,-440 672,-440 672,-440 740,-440 740,-440 746,-440 752,-446 752,-452 752,-452 752,-464 752,-464 752,-470 746,-476 740,-476"/>
<text text-anchor="middle" x="706" y="-454.3" font-family="Helvetica,sans-Serif" font-size="14.00">fail_comp4</text>
</g>
<!-- volt&#45;&gt;fail_comp4 -->
<g id="edge8" class="edge">
<title>volt&#45;&gt;fail_comp4</title>
<path fill="none" stroke="black" stroke-width="1.2" d="M64.46,-453.99C117.26,-456.79 218.1,-461.78 304,-464 411.52,-466.78 438.44,-465.56 546,-466 580.67,-466.14 589.38,-467.71 624,-466 632.23,-465.59 640.91,-464.96 649.41,-464.22"/>
<polygon fill="black" stroke="black" stroke-width="1.2" points="64.42,-450.49 54.25,-453.45 64.05,-457.48 64.42,-450.49"/>
<polygon fill="black" stroke="black" stroke-width="1.2" points="650.01,-467.68 659.65,-463.27 649.37,-460.71 650.01,-467.68"/>
</g>
<!-- vibration -->
<g id="node4" class="node">
<title>vibration</title>
<path fill="white" stroke="black" d="M612,-327C612,-327 558,-327 558,-327 552,-327 546,-321 546,-315 546,-315 546,-303 546,-303 546,-297 552,-291 558,-291 558,-291 612,-291 612,-291 618,-291 624,-297 624,-303 624,-303 624,-315 624,-315 624,-321 618,-327 612,-327"/>
<text text-anchor="middle" x="585" y="-305.3" font-family="Helvetica,sans-Serif" font-size="14.00">vibration</text>
</g>
<!-- rotate&#45;&gt;vibration -->
<g id="edge9" class="edge">
<title>rotate&#45;&gt;vibration</title>
<path fill="none" stroke="black" stroke-width="1.2" d="M147,-354.06C158.17,-354.43 171.2,-354.81 183,-355 274.54,-356.44 297.85,-363.59 389,-355 443.5,-349.87 456.89,-345.26 510,-332 518.54,-329.87 527.54,-327.33 536.21,-324.72"/>
<polygon fill="black" stroke="black" stroke-width="1.2" points="537.29,-328.05 545.83,-321.77 535.24,-321.36 537.29,-328.05"/>
</g>
<!-- err_error1 -->
<g id="node5" class="node">
<title>err_error1</title>
<path fill="white" stroke="black" d="M377,-102C377,-102 316,-102 316,-102 310,-102 304,-96 304,-90 304,-90 304,-78 304,-78 304,-72 310,-66 316,-66 316,-66 377,-66 377,-66 383,-66 389,-72 389,-78 389,-78 389,-90 389,-90 389,-96 383,-102 377,-102"/>
<text text-anchor="middle" x="346.5" y="-80.3" font-family="Helvetica,sans-Serif" font-size="14.00">err_error1</text>
</g>
<!-- rotate&#45;&gt;err_error1 -->
<g id="edge10" class="edge">
<title>rotate&#45;&gt;err_error1</title>
<path fill="none" stroke="black" stroke-width="1.2" d="M126.14,-325.23C134.95,-292.8 152.99,-238.79 183,-201 215.19,-160.47 264.9,-127.51 300.87,-107.02"/>
<polygon fill="black" stroke="black" stroke-width="1.2" points="122.74,-324.39 123.6,-334.95 129.52,-326.16 122.74,-324.39"/>
<polygon fill="black" stroke="black" stroke-width="1.2" points="302.67,-110.02 309.69,-102.09 299.26,-103.91 302.67,-110.02"/>
</g>
<!-- err_error3 -->
<g id="node7" class="node">
<title>err_error3</title>
<path fill="white" stroke="black" d="M377,-346C377,-346 316,-346 316,-346 310,-346 304,-340 304,-334 304,-334 304,-322 304,-322 304,-316 310,-310 316,-310 316,-310 377,-310 377,-310 383,-310 389,-316 389,-322 389,-322 389,-334 389,-334 389,-340 383,-346 377,-346"/>
<text text-anchor="middle" x="346.5" y="-324.3" font-family="Helvetica,sans-Serif" font-size="14.00">err_error3</text>
</g>
<!-- rotate&#45;&gt;err_error3 -->
<g id="edge12" class="edge">
<title>rotate&#45;&gt;err_error3</title>
<path fill="none" stroke="black" stroke-width="1.2" d="M157.21,-348.83C194.59,-344.69 252.13,-338.33 293.76,-333.72"/>
<polygon fill="black" stroke="black" stroke-width="1.2" points="156.77,-345.36 147.21,-349.93 157.54,-352.31 156.77,-345.36"/>
<polygon fill="black" stroke="black" stroke-width="1.2" points="294.16,-337.2 303.72,-332.62 293.39,-330.24 294.16,-337.2"/>
</g>
<!-- err_error4 -->
<g id="node8" class="node">
<title>err_error4</title>
<path fill="white" stroke="black" d="M1263.5,-110C1263.5,-110 1202.5,-110 1202.5,-110 1196.5,-110 1190.5,-104 1190.5,-98 1190.5,-98 1190.5,-86 1190.5,-86 1190.5,-80 1196.5,-74 1202.5,-74 1202.5,-74 1263.5,-74 1263.5,-74 1269.5,-74 1275.5,-80 1275.5,-86 1275.5,-86 1275.5,-98 1275.5,-98 1275.5,-104 1269.5,-110 1263.5,-110"/>
<text text-anchor="middle" x="1233" y="-88.3" font-family="Helvetica,sans-Serif" font-size="14.00">err_error4</text>
</g>
<!-- rotate&#45;&gt;err_error4 -->
<g id="edge13" class="edge">
<title>rotate&#45;&gt;err_error4</title>
<path fill="none" stroke="black" stroke-width="1.2" d="M120.66,-324.54C123.92,-278.27 136.27,-185.88 183,-126 233.53,-61.25 263.37,-38 345.5,-38 345.5,-38 345.5,-38 966,-38 1041.7,-38 1127.14,-59.26 1180.29,-75.11"/>
<polygon fill="black" stroke="black" stroke-width="1.2" points="117.16,-324.54 120.04,-334.74 124.14,-324.97 117.16,-324.54"/>
<polygon fill="black" stroke="black" stroke-width="1.2" points="1179.56,-78.54 1190.15,-78.09 1181.59,-71.84 1179.56,-78.54"/>
</g>
<!-- rotate&#45;&gt;err_error5 -->
<g id="edge14" class="edge">
<title>rotate&#45;&gt;err_error5</title>
<path fill="none" stroke="black" stroke-width="1.2" d="M131.83,-334.76C144.07,-317.09 163.75,-289.83 183,-268 187.34,-263.07 192.19,-258.05 196.99,-253.29"/>
<polygon fill="black" stroke="black" stroke-width="1.2" points="199.67,-255.57 204.42,-246.1 194.8,-250.54 199.67,-255.57"/>
</g>
<!-- mnt_comp4 -->
<g id="node13" class="node">
<title>mnt_comp4</title>
<path fill="white" stroke="black" d="M1136,-521C1136,-521 1062,-521 1062,-521 1056,-521 1050,-515 1050,-509 1050,-509 1050,-497 1050,-497 1050,-491 1056,-485 1062,-485 1062,-485 1136,-485 1136,-485 1142,-485 1148,-491 1148,-497 1148,-497 1148,-509 1148,-509 1148,-515 1142,-521 1136,-521"/>
<text text-anchor="middle" x="1099" y="-499.3" font-family="Helvetica,sans-Serif" font-size="14.00">mnt_comp4</text>
</g>
<!-- rotate&#45;&gt;mnt_comp4 -->
<g id="edge15" class="edge">
<title>rotate&#45;&gt;mnt_comp4</title>
<path fill="none" stroke="black" stroke-width="1.2" d="M147.08,-365.08C189.06,-382.34 271.9,-412 345.5,-412 345.5,-412 345.5,-412 586,-412 682.24,-412 920.37,-455.74 1014,-478 1022.5,-480.02 1031.41,-482.39 1040.12,-484.85"/>
<polygon fill="black" stroke="black" stroke-width="1.2" points="1039.25,-488.25 1049.83,-487.66 1041.2,-481.52 1039.25,-488.25"/>
</g>
<!-- fail_comp2 -->
<g id="node15" class="node">
<title>fail_comp2</title>
<path fill="white" stroke="black" d="M868,-552C868,-552 800,-552 800,-552 794,-552 788,-546 788,-540 788,-540 788,-528 788,-528 788,-522 794,-516 800,-516 800,-516 868,-516 868,-516 874,-516 880,-522 880,-528 880,-528 880,-540 880,-540 880,-546 874,-552 868,-552"/>
<text text-anchor="middle" x="834" y="-530.3" font-family="Helvetica,sans-Serif" font-size="14.00">fail_comp2</text>
</g>
<!-- rotate&#45;&gt;fail_comp2 -->
<g id="edge16" class="edge">
<title>rotate&#45;&gt;fail_comp2</title>
<path fill="none" stroke="black" stroke-width="1.2" d="M126.05,-371.11C135.19,-393.71 154,-431.83 183,-452 361.15,-575.87 444.27,-532.76 660,-556 700.65,-560.38 711.47,-561.41 752,-556 760.41,-554.88 769.18,-553.13 777.72,-551.1"/>
<polygon fill="black" stroke="black" stroke-width="1.2" points="778.76,-554.44 787.6,-548.6 777.04,-547.66 778.76,-554.44"/>
</g>
<!-- rotate&#45;&gt;fail_comp4 -->
<g id="edge17" class="edge">
<title>rotate&#45;&gt;fail_comp4</title>
<path fill="none" stroke="black" stroke-width="1.2" d="M130.06,-371.3C140.99,-388.44 159.72,-413.26 183,-426 247.04,-461.05 272.49,-450 345.5,-450 345.5,-450 345.5,-450 468.5,-450 530.5,-450 601.6,-452.78 649.52,-455.06"/>
<polygon fill="black" stroke="black" stroke-width="1.2" points="649.52,-458.57 659.68,-455.56 649.86,-451.58 649.52,-458.57"/>
</g>
<!-- pressure -->
<g id="node3" class="node">
<title>pressure</title>
<path fill="white" stroke="black" d="M1125.5,-201C1125.5,-201 1072.5,-201 1072.5,-201 1066.5,-201 1060.5,-195 1060.5,-189 1060.5,-189 1060.5,-177 1060.5,-177 1060.5,-171 1066.5,-165 1072.5,-165 1072.5,-165 1125.5,-165 1125.5,-165 1131.5,-165 1137.5,-171 1137.5,-177 1137.5,-177 1137.5,-189 1137.5,-189 1137.5,-195 1131.5,-201 1125.5,-201"/>
<text text-anchor="middle" x="1099" y="-179.3" font-family="Helvetica,sans-Serif" font-size="14.00">pressure</text>
</g>
<!-- pressure&#45;&gt;err_error4 -->
<g id="edge20" class="edge">
<title>pressure&#45;&gt;err_error4</title>
<path fill="none" stroke="black" stroke-width="1.2" d="M1126.39,-164.8C1146.72,-150.79 1175,-131.3 1197.17,-116.01"/>
<polygon fill="black" stroke="black" stroke-width="1.2" points="1199.4,-118.72 1205.65,-110.16 1195.43,-112.96 1199.4,-118.72"/>
</g>
<!-- vibration&#45;&gt;pressure -->
<g id="edge18" class="edge">
<title>vibration&#45;&gt;pressure</title>
<path fill="none" stroke="black" stroke-width="1.2" d="M597.35,-290.71C610.08,-271.96 632.59,-243.67 660,-230 727.59,-196.3 951.61,-186.63 1050.44,-183.96"/>
<polygon fill="black" stroke="black" stroke-width="1.2" points="1050.54,-187.46 1060.45,-183.7 1050.36,-180.46 1050.54,-187.46"/>
</g>
<!-- vibration&#45;&gt;err_error4 -->
<g id="edge26" class="edge">
<title>vibration&#45;&gt;err_error4</title>
<path fill="none" stroke="black" stroke-width="1.2" d="M624.11,-292.43C671.95,-273.17 756.95,-244 833,-244 833,-244 833,-244 966,-244 1048.29,-244 1078.65,-254.3 1148,-210 1182.31,-188.08 1206.82,-146.69 1220.21,-119.22"/>
<polygon fill="black" stroke="black" stroke-width="1.2" points="1223.39,-120.68 1224.47,-110.14 1217.05,-117.7 1223.39,-120.68"/>
</g>
<!-- vibration&#45;&gt;fail_comp2 -->
<g id="edge30" class="edge">
<title>vibration&#45;&gt;fail_comp2</title>
<path fill="none" stroke="black" stroke-width="1.2" d="M588.4,-327.19C594.09,-362.88 611.72,-442.28 660,-485 692.37,-513.65 740.35,-525.64 777.57,-530.61"/>
<polygon fill="black" stroke="black" stroke-width="1.2" points="777.41,-534.12 787.76,-531.84 778.25,-527.17 777.41,-534.12"/>
</g>
<!-- vibration&#45;&gt;fail_comp4 -->
<g id="edge31" class="edge">
<title>vibration&#45;&gt;fail_comp4</title>
<path fill="none" stroke="black" stroke-width="1.2" d="M600.59,-327.27C621.47,-353.41 659.98,-401.63 683.94,-431.63"/>
<polygon fill="black" stroke="black" stroke-width="1.2" points="681.31,-433.95 690.29,-439.58 686.78,-429.58 681.31,-433.95"/>
</g>
<!-- err_error1&#45;&gt;volt -->
<g id="edge2" class="edge">
<title>err_error1&#45;&gt;volt</title>
<path fill="none" stroke="black" stroke-width="1.2" d="M303.86,-86.32C268.7,-90.13 218.56,-100.08 183,-126 81.06,-200.3 43.6,-359.31 32.24,-423.88"/>
<polygon fill="black" stroke="black" stroke-width="1.2" points="28.79,-423.31 30.58,-433.75 35.69,-424.47 28.79,-423.31"/>
</g>
<!-- mnt_comp1 -->
<g id="node10" class="node">
<title>mnt_comp1</title>
<path fill="white" stroke="black" d="M1002,-346C1002,-346 928,-346 928,-346 922,-346 916,-340 916,-334 916,-334 916,-322 916,-322 916,-316 922,-310 928,-310 928,-310 1002,-310 1002,-310 1008,-310 1014,-316 1014,-322 1014,-322 1014,-334 1014,-334 1014,-340 1008,-346 1002,-346"/>
<text text-anchor="middle" x="965" y="-324.3" font-family="Helvetica,sans-Serif" font-size="14.00">mnt_comp1</text>
</g>
<!-- err_error1&#45;&gt;mnt_comp1 -->
<g id="edge33" class="edge">
<title>err_error1&#45;&gt;mnt_comp1</title>
<path fill="none" stroke="black" stroke-width="1.2" d="M389.39,-100.58C497.71,-143.45 787.06,-257.97 908.81,-306.16"/>
<polygon fill="black" stroke="black" stroke-width="1.2" points="907.74,-309.5 918.32,-309.92 910.31,-302.99 907.74,-309.5"/>
</g>
<!-- err_error2 -->
<g id="node6" class="node">
<title>err_error2</title>
<path fill="white" stroke="black" d="M498,-300C498,-300 437,-300 437,-300 431,-300 425,-294 425,-288 425,-288 425,-276 425,-276 425,-270 431,-264 437,-264 437,-264 498,-264 498,-264 504,-264 510,-270 510,-276 510,-276 510,-288 510,-288 510,-294 504,-300 498,-300"/>
<text text-anchor="middle" x="467.5" y="-278.3" font-family="Helvetica,sans-Serif" font-size="14.00">err_error2</text>
</g>
<!-- err_error2&#45;&gt;rotate -->
<g id="edge11" class="edge">
<title>err_error2&#45;&gt;rotate</title>
<path fill="none" stroke="black" stroke-width="1.2" d="M424.86,-285.32C391.89,-288.31 344.77,-293.43 304,-301 249.42,-311.14 236.27,-316.39 183,-332 174.51,-334.49 165.45,-337.36 156.91,-340.16"/>
<polygon fill="black" stroke="black" stroke-width="1.2" points="155.58,-336.91 147.19,-343.39 157.78,-343.55 155.58,-336.91"/>
</g>
<!-- err_error2&#45;&gt;pressure -->
<g id="edge19" class="edge">
<title>err_error2&#45;&gt;pressure</title>
<path fill="none" stroke="black" stroke-width="1.2" d="M489.35,-263.94C528.68,-231.79 617.71,-168 705,-168 705,-168 705,-168 835,-168 910.25,-168 997.41,-174.2 1050.09,-178.62"/>
<polygon fill="black" stroke="black" stroke-width="1.2" points="1049.89,-182.12 1060.15,-179.48 1050.48,-175.14 1049.89,-182.12"/>
</g>
<!-- err_error2&#45;&gt;vibration -->
<g id="edge24" class="edge">
<title>err_error2&#45;&gt;vibration</title>
<path fill="none" stroke="black" stroke-width="1.2" d="M510.2,-291.75C518.56,-293.7 527.41,-295.77 535.96,-297.77"/>
<polygon fill="black" stroke="black" stroke-width="1.2" points="535.29,-301.21 545.82,-300.07 536.88,-294.39 535.29,-301.21"/>
</g>
<!-- err_error3&#45;&gt;vibration -->
<g id="edge25" class="edge">
<title>err_error3&#45;&gt;vibration</title>
<path fill="none" stroke="black" stroke-width="1.2" d="M389.24,-324.65C430.15,-321.36 492.49,-316.35 535.57,-312.89"/>
<polygon fill="black" stroke="black" stroke-width="1.2" points="536.12,-316.36 545.81,-312.07 535.56,-309.38 536.12,-316.36"/>
</g>
<!-- err_error3&#45;&gt;err_error2 -->
<g id="edge34" class="edge">
<title>err_error3&#45;&gt;err_error2</title>
<path fill="none" stroke="black" stroke-width="1.2" d="M389.12,-311.91C397.59,-308.64 406.58,-305.16 415.34,-301.78"/>
<polygon fill="black" stroke="black" stroke-width="1.2" points="416.64,-305.03 424.7,-298.16 414.11,-298.5 416.64,-305.03"/>
</g>
<!-- err_error4&#45;&gt;volt -->
<g id="edge3" class="edge">
<title>err_error4&#45;&gt;volt</title>
<path fill="none" stroke="black" stroke-width="1.2" d="M1206.23,-73.8C1190.14,-63.18 1168.63,-50.28 1148,-42 1070.96,-11.07 1049.01,0 966,0 224.5,0 224.5,0 224.5,0 38.93,0 26.75,-324.38 27.36,-423.55"/>
<polygon fill="black" stroke="black" stroke-width="1.2" points="23.86,-423.76 27.48,-433.72 30.86,-423.68 23.86,-423.76"/>
</g>
<!-- err_error5&#45;&gt;pressure -->
<g id="edge21" class="edge">
<title>err_error5&#45;&gt;pressure</title>
<path fill="none" stroke="black" stroke-width="1.2" d="M268.16,-213.54C350.52,-186.28 540.49,-130 705,-130 705,-130 705,-130 835,-130 911.58,-130 998.26,-151.86 1050.5,-167.5"/>
<polygon fill="black" stroke="black" stroke-width="1.2" points="1049.57,-170.88 1060.15,-170.44 1051.61,-164.18 1049.57,-170.88"/>
</g>
<!-- err_error5&#45;&gt;vibration -->
<g id="edge27" class="edge">
<title>err_error5&#45;&gt;vibration</title>
<path fill="none" stroke="black" stroke-width="1.2" d="M268.03,-225C324.76,-222.43 428.73,-223.22 510,-255 527.17,-261.72 543.97,-273.42 557.21,-284.23"/>
<polygon fill="black" stroke="black" stroke-width="1.2" points="555.06,-287 564.96,-290.78 559.58,-281.65 555.06,-287"/>
</g>
<!-- err_error5&#45;&gt;err_error1 -->
<g id="edge32" class="edge">
<title>err_error5&#45;&gt;err_error1</title>
<path fill="none" stroke="black" stroke-width="1.2" d="M243.5,-209.57C251.37,-200.65 260.58,-189.59 268,-179 286.5,-152.58 282.82,-140.32 304,-116 306.15,-113.53 308.52,-111.12 311,-108.81"/>
<polygon fill="black" stroke="black" stroke-width="1.2" points="313.39,-111.36 318.67,-102.17 308.82,-106.07 313.39,-111.36"/>
</g>
<!-- err_error5&#45;&gt;err_error2 -->
<g id="edge35" class="edge">
<title>err_error5&#45;&gt;err_error2</title>
<path fill="none" stroke="black" stroke-width="1.2" d="M268.03,-237.34C308.73,-246.5 370.88,-260.49 414.77,-270.36"/>
<polygon fill="black" stroke="black" stroke-width="1.2" points="414.15,-273.81 424.67,-272.59 415.69,-266.98 414.15,-273.81"/>
</g>
<!-- err_error5&#45;&gt;err_error3 -->
<g id="edge36" class="edge">
<title>err_error5&#45;&gt;err_error3</title>
<path fill="none" stroke="black" stroke-width="1.2" d="M248.05,-246.11C267.05,-262.08 294.93,-285.5 316,-303.21"/>
<polygon fill="black" stroke="black" stroke-width="1.2" points="313.8,-305.93 323.71,-309.69 318.3,-300.57 313.8,-305.93"/>
</g>
<!-- err_error5&#45;&gt;err_error4 -->
<g id="edge37" class="edge">
<title>err_error5&#45;&gt;err_error4</title>
<path fill="none" stroke="black" stroke-width="1.2" d="M249.09,-209.75C263.97,-198.46 284.28,-184.38 304,-175 421.21,-119.25 454.2,-92 584,-92 584,-92 584,-92 966,-92 1040.25,-92 1126.16,-92 1179.79,-92"/>
<polygon fill="black" stroke="black" stroke-width="1.2" points="1180.08,-95.5 1190.08,-92 1180.08,-88.5 1180.08,-95.5"/>
</g>
<!-- mnt_comp1&#45;&gt;pressure -->
<g id="edge22" class="edge">
<title>mnt_comp1&#45;&gt;pressure</title>
<path fill="none" stroke="black" stroke-width="1.2" d="M982.45,-309.93C1005.57,-284.53 1047.81,-238.13 1074.31,-209.02"/>
<polygon fill="black" stroke="black" stroke-width="1.2" points="1077.2,-211.05 1081.34,-201.3 1072.02,-206.34 1077.2,-211.05"/>
</g>
<!-- mnt_comp1&#45;&gt;mnt_comp4 -->
<g id="edge38" class="edge">
<title>mnt_comp1&#45;&gt;mnt_comp4</title>
<path fill="none" stroke="black" stroke-width="1.2" d="M979.63,-346.07C1003.05,-377.11 1051.01,-440.7 1078.15,-476.68"/>
<polygon fill="black" stroke="black" stroke-width="1.2" points="1075.43,-478.89 1084.25,-484.77 1081.02,-474.68 1075.43,-478.89"/>
</g>
<!-- mnt_comp2 -->
<g id="node11" class="node">
<title>mnt_comp2</title>
<path fill="white" stroke="black" d="M1002,-590C1002,-590 928,-590 928,-590 922,-590 916,-584 916,-578 916,-578 916,-566 916,-566 916,-560 922,-554 928,-554 928,-554 1002,-554 1002,-554 1008,-554 1014,-560 1014,-566 1014,-566 1014,-578 1014,-578 1014,-584 1008,-590 1002,-590"/>
<text text-anchor="middle" x="965" y="-568.3" font-family="Helvetica,sans-Serif" font-size="14.00">mnt_comp2</text>
</g>
<!-- mnt_comp2&#45;&gt;mnt_comp4 -->
<g id="edge41" class="edge">
<title>mnt_comp2&#45;&gt;mnt_comp4</title>
<path fill="none" stroke="black" stroke-width="1.2" d="M1000.68,-553.87C1017.2,-545.23 1037.13,-534.82 1054.64,-525.66"/>
<polygon fill="black" stroke="black" stroke-width="1.2" points="1056.31,-528.74 1063.55,-521.01 1053.07,-522.54 1056.31,-528.74"/>
</g>
<!-- mnt_comp2&#45;&gt;fail_comp3 -->
<g id="edge43" class="edge">
<title>mnt_comp2&#45;&gt;fail_comp3</title>
<path fill="none" stroke="black" stroke-width="1.2" d="M1014.03,-572C1023.34,-572 1033.17,-572 1042.69,-572"/>
<polygon fill="black" stroke="black" stroke-width="1.2" points="1042.86,-575.5 1052.86,-572 1042.86,-568.5 1042.86,-575.5"/>
</g>
<!-- mnt_comp3 -->
<g id="node12" class="node">
<title>mnt_comp3</title>
<path fill="white" stroke="black" d="M1270,-392C1270,-392 1196,-392 1196,-392 1190,-392 1184,-386 1184,-380 1184,-380 1184,-368 1184,-368 1184,-362 1190,-356 1196,-356 1196,-356 1270,-356 1270,-356 1276,-356 1282,-362 1282,-368 1282,-368 1282,-380 1282,-380 1282,-386 1276,-392 1270,-392"/>
<text text-anchor="middle" x="1233" y="-370.3" font-family="Helvetica,sans-Serif" font-size="14.00">mnt_comp3</text>
</g>
<!-- mnt_comp3&#45;&gt;vibration -->
<g id="edge28" class="edge">
<title>mnt_comp3&#45;&gt;vibration</title>
<path fill="none" stroke="black" stroke-width="1.2" d="M1201.26,-355.82C1152.93,-329.01 1055.42,-282 966,-282 833,-282 833,-282 833,-282 763.73,-282 684.18,-292.62 634.5,-300.54"/>
<polygon fill="black" stroke="black" stroke-width="1.2" points="633.67,-297.13 624.36,-302.19 634.79,-304.04 633.67,-297.13"/>
</g>
<!-- mnt_comp4&#45;&gt;volt -->
<g id="edge5" class="edge">
<title>mnt_comp4&#45;&gt;volt</title>
<path fill="none" stroke="black" stroke-width="1.2" d="M1074.87,-521.09C1066.58,-528.12 1057.45,-536.51 1050,-545 1030.98,-566.69 1038.68,-584.06 1014,-599 945.56,-640.42 915,-618 835,-618 224.5,-618 224.5,-618 224.5,-618 139.3,-618 71.96,-525.81 43.17,-478.83"/>
<polygon fill="black" stroke="black" stroke-width="1.2" points="46.07,-476.86 37.94,-470.08 40.07,-480.46 46.07,-476.86"/>
</g>
<!-- fail_comp1&#45;&gt;vibration -->
<g id="edge29" class="edge">
<title>fail_comp1&#45;&gt;vibration</title>
<path fill="none" stroke="black" stroke-width="1.2" d="M787.77,-386.61C744.02,-369.78 677.98,-344.38 633.48,-327.26"/>
<polygon fill="black" stroke="black" stroke-width="1.2" points="634.64,-323.96 624.05,-323.64 632.13,-330.49 634.64,-323.96"/>
</g>
<!-- fail_comp1&#45;&gt;mnt_comp1 -->
<g id="edge39" class="edge">
<title>fail_comp1&#45;&gt;mnt_comp1</title>
<path fill="none" stroke="black" stroke-width="1.2" d="M865.57,-385.99C883.19,-375.61 905.54,-362.44 924.49,-351.28"/>
<polygon fill="black" stroke="black" stroke-width="1.2" points="926.36,-354.24 933.2,-346.15 922.81,-348.21 926.36,-354.24"/>
</g>
<!-- fail_comp1&#45;&gt;mnt_comp3 -->
<g id="edge44" class="edge">
<title>fail_comp1&#45;&gt;mnt_comp3</title>
<path fill="none" stroke="black" stroke-width="1.2" d="M880.15,-400.59C952.31,-395.14 1093.6,-384.46 1173.43,-378.43"/>
<polygon fill="black" stroke="black" stroke-width="1.2" points="1174.09,-381.89 1183.8,-377.64 1173.56,-374.91 1174.09,-381.89"/>
</g>
<!-- fail_comp2&#45;&gt;pressure -->
<g id="edge23" class="edge">
<title>fail_comp2&#45;&gt;pressure</title>
<path fill="none" stroke="black" stroke-width="1.2" d="M857.47,-515.85C893.93,-485.53 966.64,-421.36 1014,-355 1047.38,-308.22 1074,-246.16 1087.75,-210.8"/>
<polygon fill="black" stroke="black" stroke-width="1.2" points="1091.14,-211.74 1091.44,-201.15 1084.6,-209.24 1091.14,-211.74"/>
</g>
<!-- fail_comp2&#45;&gt;mnt_comp2 -->
<g id="edge42" class="edge">
<title>fail_comp2&#45;&gt;mnt_comp2</title>
<path fill="none" stroke="black" stroke-width="1.2" d="M880.12,-547.29C888.46,-549.75 897.28,-552.34 905.94,-554.9"/>
<polygon fill="black" stroke="black" stroke-width="1.2" points="905.03,-558.28 915.62,-557.75 907.01,-551.56 905.03,-558.28"/>
</g>
<!-- fail_comp2&#45;&gt;mnt_comp4 -->
<g id="edge46" class="edge">
<title>fail_comp2&#45;&gt;mnt_comp4</title>
<path fill="none" stroke="black" stroke-width="1.2" d="M880.21,-528.67C924.36,-523.47 991.75,-515.52 1039.86,-509.85"/>
<polygon fill="black" stroke="black" stroke-width="1.2" points="1040.3,-513.33 1049.82,-508.68 1039.48,-506.37 1040.3,-513.33"/>
</g>
<!-- fail_comp3&#45;&gt;mnt_comp3 -->
<g id="edge45" class="edge">
<title>fail_comp3&#45;&gt;mnt_comp3</title>
<path fill="none" stroke="black" stroke-width="1.2" d="M1124.06,-553.87C1132.26,-546.96 1141.1,-538.66 1148,-530 1180.49,-489.24 1206.78,-434.08 1220.83,-401.45"/>
<polygon fill="black" stroke="black" stroke-width="1.2" points="1224.12,-402.66 1224.8,-392.09 1217.67,-399.93 1224.12,-402.66"/>
</g>
<!-- fail_comp4&#45;&gt;mnt_comp1 -->
<g id="edge40" class="edge">
<title>fail_comp4&#45;&gt;mnt_comp1</title>
<path fill="none" stroke="black" stroke-width="1.2" d="M720.49,-439.83C735.13,-421.37 760.18,-393.24 788,-377 824.15,-355.89 869.8,-343.53 905.55,-336.5"/>
<polygon fill="black" stroke="black" stroke-width="1.2" points="906.65,-339.85 915.83,-334.57 905.35,-332.97 906.65,-339.85"/>
</g>
<!-- fail_comp4&#45;&gt;mnt_comp4 -->
<g id="edge47" class="edge">
<title>fail_comp4&#45;&gt;mnt_comp4</title>
<path fill="none" stroke="black" stroke-width="1.2" d="M752.23,-463.21C823.32,-471.39 961.15,-487.25 1039.62,-496.28"/>
<polygon fill="black" stroke="black" stroke-width="1.2" points="1039.48,-499.79 1049.82,-497.45 1040.28,-492.83 1039.48,-499.79"/>
</g>
<!-- fail_comp4&#45;&gt;fail_comp1 -->
<g id="edge48" class="edge">
<title>fail_comp4&#45;&gt;fail_comp1</title>
<path fill="none" stroke="black" stroke-width="1.2" d="M749.31,-439.87C759.59,-435.46 770.7,-430.7 781.37,-426.13"/>
<polygon fill="black" stroke="black" stroke-width="1.2" points="782.78,-429.33 790.59,-422.18 780.02,-422.9 782.78,-429.33"/>
</g>
<!-- fail_comp4&#45;&gt;fail_comp2 -->
<g id="edge49" class="edge">
<title>fail_comp4&#45;&gt;fail_comp2</title>
<path fill="none" stroke="black" stroke-width="1.2" d="M736.86,-476.01C754,-486.35 775.7,-499.44 794.16,-510.57"/>
<polygon fill="black" stroke="black" stroke-width="1.2" points="792.55,-513.69 802.92,-515.85 796.16,-507.69 792.55,-513.69"/>
</g>
</g>
</svg>
