<?xml version="1.0" encoding="UTF-8" standalone="no"?>
<!DOCTYPE svg PUBLIC "-//W3C//DTD SVG 1.1//EN"
 "http://www.w3.org/Graphics/SVG/1.1/DTD/svg11.dtd">
<!-- Generated by graphviz version 2.50.0 (0)
 -->
<!-- Title: G Pages: 1 -->
<svg width="1096pt" height="922pt"
 viewBox="0.00 0.00 1096.00 922.31" xmlns="http://www.w3.org/2000/svg" xmlns:xlink="http://www.w3.org/1999/xlink">
<g id="graph0" class="graph" transform="scale(1 1) rotate(0) translate(4 918.31)">
<title>G</title>
<polygon fill="white" stroke="transparent" points="-4,4 -4,-918.31 1092,-918.31 1092,4 -4,4"/>
<text text-anchor="middle" x="544" y="-897.51" font-family="Times,serif" font-size="16.00">model=model1/nbcb_w_mixed.json [machine 99]</text>
<!-- volt -->
<g id="node1" class="node">
<title>volt</title>
<path fill="white" stroke="black" d="M42,-319.31C42,-319.31 12,-319.31 12,-319.31 6,-319.31 0,-313.31 0,-307.31 0,-307.31 0,-295.31 0,-295.31 0,-289.31 6,-283.31 12,-283.31 12,-283.31 42,-283.31 42,-283.31 48,-283.31 54,-289.31 54,-295.31 54,-295.31 54,-307.31 54,-307.31 54,-313.31 48,-319.31 42,-319.31"/>
<text text-anchor="middle" x="27" y="-297.61" font-family="Helvetica,sans-Serif" font-size="14.00">volt</text>
</g>
<!-- rotate -->
<g id="node2" class="node">
<title>rotate</title>
<path fill="white" stroke="black" d="M266.5,-502.31C266.5,-502.31 233.5,-502.31 233.5,-502.31 227.5,-502.31 221.5,-496.31 221.5,-490.31 221.5,-490.31 221.5,-478.31 221.5,-478.31 221.5,-472.31 227.5,-466.31 233.5,-466.31 233.5,-466.31 266.5,-466.31 266.5,-466.31 272.5,-466.31 278.5,-472.31 278.5,-478.31 278.5,-478.31 278.5,-490.31 278.5,-490.31 278.5,-496.31 272.5,-502.31 266.5,-502.31"/>
<text text-anchor="middle" x="250" y="-480.61" font-family="Helvetica,sans-Serif" font-size="14.00">rotate</text>
</g>
<!-- volt&#45;&gt;rotate -->
<g id="edge1" class="edge">
<title>volt&#45;&gt;rotate</title>
<path fill="none" stroke="black" stroke-width="1.2" d="M42.56,-319.58C54.55,-334.09 72.38,-354.5 90,-370.31 136.46,-411.98 153.23,-416 204,-452.31 207.51,-454.82 211.17,-457.43 214.83,-460.04"/>
<polygon fill="black" stroke="black" stroke-width="1.2" points="213.11,-463.11 223.28,-466.05 217.17,-457.4 213.11,-463.11"/>
</g>
<!-- pressure -->
<g id="node3" class="node">
<title>pressure</title>
<path fill="white" stroke="black" d="M407.5,-570.31C407.5,-570.31 354.5,-570.31 354.5,-570.31 348.5,-570.31 342.5,-564.31 342.5,-558.31 342.5,-558.31 342.5,-546.31 342.5,-546.31 342.5,-540.31 348.5,-534.31 354.5,-534.31 354.5,-534.31 407.5,-534.31 407.5,-534.31 413.5,-534.31 419.5,-540.31 419.5,-546.31 419.5,-546.31 419.5,-558.31 419.5,-558.31 419.5,-564.31 413.5,-570.31 407.5,-570.31"/>
<text text-anchor="middle" x="381" y="-548.61" font-family="Helvetica,sans-Serif" font-size="14.00">pressure</text>
</g>
<!-- volt&#45;&gt;pressure -->
<g id="edge2" class="edge">
<title>volt&#45;&gt;pressure</title>
<path fill="none" stroke="black" stroke-width="1.2" d="M35.73,-319.4C46.07,-342.4 65.91,-382.67 90,-412.31 132.33,-464.38 144.23,-480.8 204,-511.31 244.61,-532.04 295.84,-542.44 332.54,-547.57"/>
<polygon fill="black" stroke="black" stroke-width="1.2" points="332.11,-551.04 342.48,-548.88 333.02,-544.1 332.11,-551.04"/>
</g>
<!-- vibration -->
<g id="node4" class="node">
<title>vibration</title>
<path fill="white" stroke="black" d="M156,-361.31C156,-361.31 102,-361.31 102,-361.31 96,-361.31 90,-355.31 90,-349.31 90,-349.31 90,-337.31 90,-337.31 90,-331.31 96,-325.31 102,-325.31 102,-325.31 156,-325.31 156,-325.31 162,-325.31 168,-331.31 168,-337.31 168,-337.31 168,-349.31 168,-349.31 168,-355.31 162,-361.31 156,-361.31"/>
<text text-anchor="middle" x="129" y="-339.61" font-family="Helvetica,sans-Serif" font-size="14.00">vibration</text>
</g>
<!-- volt&#45;&gt;vibration -->
<g id="edge3" class="edge">
<title>volt&#45;&gt;vibration</title>
<path fill="none" stroke="black" stroke-width="1.2" d="M54.01,-312.23C62.09,-315.62 71.26,-319.47 80.32,-323.28"/>
<polygon fill="black" stroke="black" stroke-width="1.2" points="79.11,-326.57 89.68,-327.21 81.82,-320.11 79.11,-326.57"/>
</g>
<!-- err_error3 -->
<g id="node7" class="node">
<title>err_error3</title>
<path fill="white" stroke="black" d="M807.5,-593.31C807.5,-593.31 746.5,-593.31 746.5,-593.31 740.5,-593.31 734.5,-587.31 734.5,-581.31 734.5,-581.31 734.5,-569.31 734.5,-569.31 734.5,-563.31 740.5,-557.31 746.5,-557.31 746.5,-557.31 807.5,-557.31 807.5,-557.31 813.5,-557.31 819.5,-563.31 819.5,-569.31 819.5,-569.31 819.5,-581.31 819.5,-581.31 819.5,-587.31 813.5,-593.31 807.5,-593.31"/>
<text text-anchor="middle" x="777" y="-571.61" font-family="Helvetica,sans-Serif" font-size="14.00">err_error3</text>
</g>
<!-- volt&#45;&gt;err_error3 -->
<g id="edge5" class="edge">
<title>volt&#45;&gt;err_error3</title>
<path fill="none" stroke="black" stroke-width="1.2" d="M27.42,-319.49C25.52,-410.52 29.59,-812.31 249,-812.31 249,-812.31 249,-812.31 382,-812.31 534.48,-812.31 577,-765.43 692,-665.31 714.85,-645.41 738.15,-619.96 754.39,-601.2"/>
<polygon fill="black" stroke="black" stroke-width="1.2" points="757.05,-603.47 760.9,-593.6 751.74,-598.92 757.05,-603.47"/>
</g>
<!-- mnt_comp1 -->
<g id="node10" class="node">
<title>mnt_comp1</title>
<path fill="white" stroke="black" d="M552,-196.31C552,-196.31 478,-196.31 478,-196.31 472,-196.31 466,-190.31 466,-184.31 466,-184.31 466,-172.31 466,-172.31 466,-166.31 472,-160.31 478,-160.31 478,-160.31 552,-160.31 552,-160.31 558,-160.31 564,-166.31 564,-172.31 564,-172.31 564,-184.31 564,-184.31 564,-190.31 558,-196.31 552,-196.31"/>
<text text-anchor="middle" x="515" y="-174.61" font-family="Helvetica,sans-Serif" font-size="14.00">mnt_comp1</text>
</g>
<!-- volt&#45;&gt;mnt_comp1 -->
<g id="edge7" class="edge">
<title>volt&#45;&gt;mnt_comp1</title>
<path fill="none" stroke="black" stroke-width="1.2" d="M27.3,-283.24C26.86,-243.1 32.18,-146.72 90,-104.31 209.22,-16.84 397.45,-108.8 476.79,-155.07"/>
<polygon fill="black" stroke="black" stroke-width="1.2" points="475.08,-158.12 485.47,-160.2 478.64,-152.1 475.08,-158.12"/>
</g>
<!-- mnt_comp3 -->
<g id="node12" class="node">
<title>mnt_comp3</title>
<path fill="white" stroke="black" d="M1076,-280.31C1076,-280.31 1002,-280.31 1002,-280.31 996,-280.31 990,-274.31 990,-268.31 990,-268.31 990,-256.31 990,-256.31 990,-250.31 996,-244.31 1002,-244.31 1002,-244.31 1076,-244.31 1076,-244.31 1082,-244.31 1088,-250.31 1088,-256.31 1088,-256.31 1088,-268.31 1088,-268.31 1088,-274.31 1082,-280.31 1076,-280.31"/>
<text text-anchor="middle" x="1039" y="-258.61" font-family="Helvetica,sans-Serif" font-size="14.00">mnt_comp3</text>
</g>
<!-- volt&#45;&gt;mnt_comp3 -->
<g id="edge9" class="edge">
<title>volt&#45;&gt;mnt_comp3</title>
<path fill="none" stroke="black" stroke-width="1.2" d="M27.96,-319.37C28.09,-400.29 32.23,-729.04 90,-810.31 135.6,-874.46 170.29,-888.31 249,-888.31 249,-888.31 249,-888.31 778,-888.31 876.05,-888.31 903.07,-839.09 954,-755.31 1002.43,-675.65 1028.72,-382.72 1035.93,-290.38"/>
<polygon fill="black" stroke="black" stroke-width="1.2" points="1039.42,-290.62 1036.7,-280.38 1032.44,-290.08 1039.42,-290.62"/>
</g>
<!-- fail_comp1 -->
<g id="node14" class="node">
<title>fail_comp1</title>
<path fill="white" stroke="black" d="M415,-326.31C415,-326.31 347,-326.31 347,-326.31 341,-326.31 335,-320.31 335,-314.31 335,-314.31 335,-302.31 335,-302.31 335,-296.31 341,-290.31 347,-290.31 347,-290.31 415,-290.31 415,-290.31 421,-290.31 427,-296.31 427,-302.31 427,-302.31 427,-314.31 427,-314.31 427,-320.31 421,-326.31 415,-326.31"/>
<text text-anchor="middle" x="381" y="-304.61" font-family="Helvetica,sans-Serif" font-size="14.00">fail_comp1</text>
</g>
<!-- volt&#45;&gt;fail_comp1 -->
<g id="edge11" class="edge">
<title>volt&#45;&gt;fail_comp1</title>
<path fill="none" stroke="black" stroke-width="1.2" d="M58.34,-276.91C108.86,-239.45 212.85,-175.84 296,-213.31 312.14,-220.58 341.15,-256.21 360.49,-281.69"/>
<polygon fill="black" stroke="black" stroke-width="1.2" points="55.99,-274.3 50.13,-283.12 60.22,-279.88 55.99,-274.3"/>
<polygon fill="black" stroke="black" stroke-width="1.2" points="357.85,-283.99 366.65,-289.89 363.44,-279.79 357.85,-283.99"/>
</g>
<!-- fail_comp3 -->
<g id="node16" class="node">
<title>fail_comp3</title>
<path fill="white" stroke="black" d="M942,-280.31C942,-280.31 874,-280.31 874,-280.31 868,-280.31 862,-274.31 862,-268.31 862,-268.31 862,-256.31 862,-256.31 862,-250.31 868,-244.31 874,-244.31 874,-244.31 942,-244.31 942,-244.31 948,-244.31 954,-250.31 954,-256.31 954,-256.31 954,-268.31 954,-268.31 954,-274.31 948,-280.31 942,-280.31"/>
<text text-anchor="middle" x="908" y="-258.61" font-family="Helvetica,sans-Serif" font-size="14.00">fail_comp3</text>
</g>
<!-- volt&#45;&gt;fail_comp3 -->
<g id="edge13" class="edge">
<title>volt&#45;&gt;fail_comp3</title>
<path fill="none" stroke="black" stroke-width="1.2" d="M30.72,-272.85C37.22,-210.99 55.74,-67.17 90,-34.31 141.9,15.47 177.09,-4.31 249,-4.31 249,-4.31 249,-4.31 647,-4.31 776.74,-4.31 864.83,-168.18 895.24,-234.72"/>
<polygon fill="black" stroke="black" stroke-width="1.2" points="27.21,-272.76 29.68,-283.07 34.17,-273.47 27.21,-272.76"/>
<polygon fill="black" stroke="black" stroke-width="1.2" points="892.19,-236.47 899.47,-244.16 898.58,-233.61 892.19,-236.47"/>
</g>
<!-- rotate&#45;&gt;pressure -->
<g id="edge15" class="edge">
<title>rotate&#45;&gt;pressure</title>
<path fill="none" stroke="black" stroke-width="1.2" d="M278.67,-498.89C295.55,-507.79 317.47,-519.35 336.61,-529.44"/>
<polygon fill="black" stroke="black" stroke-width="1.2" points="334.99,-532.54 345.47,-534.1 338.25,-526.34 334.99,-532.54"/>
</g>
<!-- rotate&#45;&gt;err_error3 -->
<g id="edge18" class="edge">
<title>rotate&#45;&gt;err_error3</title>
<path fill="none" stroke="black" stroke-width="1.2" d="M278.86,-489.13C362.85,-503.69 614.57,-547.32 724.12,-566.31"/>
<polygon fill="black" stroke="black" stroke-width="1.2" points="723.81,-569.81 734.26,-568.07 725.01,-562.92 723.81,-569.81"/>
</g>
<!-- err_error4 -->
<g id="node8" class="node">
<title>err_error4</title>
<path fill="white" stroke="black" d="M545.5,-746.31C545.5,-746.31 484.5,-746.31 484.5,-746.31 478.5,-746.31 472.5,-740.31 472.5,-734.31 472.5,-734.31 472.5,-722.31 472.5,-722.31 472.5,-716.31 478.5,-710.31 484.5,-710.31 484.5,-710.31 545.5,-710.31 545.5,-710.31 551.5,-710.31 557.5,-716.31 557.5,-722.31 557.5,-722.31 557.5,-734.31 557.5,-734.31 557.5,-740.31 551.5,-746.31 545.5,-746.31"/>
<text text-anchor="middle" x="515" y="-724.61" font-family="Helvetica,sans-Serif" font-size="14.00">err_error4</text>
</g>
<!-- rotate&#45;&gt;err_error4 -->
<g id="edge19" class="edge">
<title>rotate&#45;&gt;err_error4</title>
<path fill="none" stroke="black" stroke-width="1.2" d="M265.18,-502.5C280.8,-522.15 307.01,-554.02 332,-579.31 359.79,-607.42 434.6,-672.29 466,-696.31 469.59,-699.05 473.4,-701.82 477.25,-704.52"/>
<polygon fill="black" stroke="black" stroke-width="1.2" points="475.43,-707.52 485.65,-710.29 479.39,-701.75 475.43,-707.52"/>
</g>
<!-- err_error5 -->
<g id="node9" class="node">
<title>err_error5</title>
<path fill="white" stroke="black" d="M545.5,-448.31C545.5,-448.31 484.5,-448.31 484.5,-448.31 478.5,-448.31 472.5,-442.31 472.5,-436.31 472.5,-436.31 472.5,-424.31 472.5,-424.31 472.5,-418.31 478.5,-412.31 484.5,-412.31 484.5,-412.31 545.5,-412.31 545.5,-412.31 551.5,-412.31 557.5,-418.31 557.5,-424.31 557.5,-424.31 557.5,-436.31 557.5,-436.31 557.5,-442.31 551.5,-448.31 545.5,-448.31"/>
<text text-anchor="middle" x="515" y="-426.61" font-family="Helvetica,sans-Serif" font-size="14.00">err_error5</text>
</g>
<!-- rotate&#45;&gt;err_error5 -->
<g id="edge20" class="edge">
<title>rotate&#45;&gt;err_error5</title>
<path fill="none" stroke="black" stroke-width="1.2" d="M278.65,-478.63C322.1,-469.71 407.1,-452.26 462.17,-440.95"/>
<polygon fill="black" stroke="black" stroke-width="1.2" points="463,-444.35 472.09,-438.91 461.59,-437.49 463,-444.35"/>
</g>
<!-- rotate&#45;&gt;fail_comp1 -->
<g id="edge21" class="edge">
<title>rotate&#45;&gt;fail_comp1</title>
<path fill="none" stroke="black" stroke-width="1.2" d="M257.91,-466.2C269.69,-437.09 295.92,-379.22 332,-340.31 334.5,-337.61 337.26,-335.04 340.17,-332.6"/>
<polygon fill="black" stroke="black" stroke-width="1.2" points="342.32,-335.35 348.1,-326.47 338.05,-329.81 342.32,-335.35"/>
</g>
<!-- fail_comp2 -->
<g id="node15" class="node">
<title>fail_comp2</title>
<path fill="white" stroke="black" d="M680,-280.31C680,-280.31 612,-280.31 612,-280.31 606,-280.31 600,-274.31 600,-268.31 600,-268.31 600,-256.31 600,-256.31 600,-250.31 606,-244.31 612,-244.31 612,-244.31 680,-244.31 680,-244.31 686,-244.31 692,-250.31 692,-256.31 692,-256.31 692,-268.31 692,-268.31 692,-274.31 686,-280.31 680,-280.31"/>
<text text-anchor="middle" x="646" y="-258.61" font-family="Helvetica,sans-Serif" font-size="14.00">fail_comp2</text>
</g>
<!-- rotate&#45;&gt;fail_comp2 -->
<g id="edge22" class="edge">
<title>rotate&#45;&gt;fail_comp2</title>
<path fill="none" stroke="black" stroke-width="1.2" d="M278.71,-468.7C347.01,-430.21 523.76,-330.62 604.14,-285.33"/>
<polygon fill="black" stroke="black" stroke-width="1.2" points="605.99,-288.3 612.99,-280.34 602.56,-282.2 605.99,-288.3"/>
</g>
<!-- err_error1 -->
<g id="node5" class="node">
<title>err_error1</title>
<path fill="white" stroke="black" d="M545.5,-654.31C545.5,-654.31 484.5,-654.31 484.5,-654.31 478.5,-654.31 472.5,-648.31 472.5,-642.31 472.5,-642.31 472.5,-630.31 472.5,-630.31 472.5,-624.31 478.5,-618.31 484.5,-618.31 484.5,-618.31 545.5,-618.31 545.5,-618.31 551.5,-618.31 557.5,-624.31 557.5,-630.31 557.5,-630.31 557.5,-642.31 557.5,-642.31 557.5,-648.31 551.5,-654.31 545.5,-654.31"/>
<text text-anchor="middle" x="515" y="-632.61" font-family="Helvetica,sans-Serif" font-size="14.00">err_error1</text>
</g>
<!-- pressure&#45;&gt;err_error1 -->
<g id="edge23" class="edge">
<title>pressure&#45;&gt;err_error1</title>
<path fill="none" stroke="black" stroke-width="1.2" d="M410.32,-570.33C429.67,-582.64 455.53,-599.1 476.58,-612.49"/>
<polygon fill="black" stroke="black" stroke-width="1.2" points="474.96,-615.61 485.27,-618.03 478.72,-609.7 474.96,-615.61"/>
</g>
<!-- pressure&#45;&gt;err_error3 -->
<g id="edge25" class="edge">
<title>pressure&#45;&gt;err_error3</title>
<path fill="none" stroke="black" stroke-width="1.2" d="M419.91,-559.75C434.29,-562.28 450.84,-564.83 466,-566.31 556.42,-575.11 662.33,-576.22 724.02,-575.95"/>
<polygon fill="black" stroke="black" stroke-width="1.2" points="724.29,-579.45 734.27,-575.89 724.25,-572.45 724.29,-579.45"/>
</g>
<!-- pressure&#45;&gt;err_error4 -->
<g id="edge26" class="edge">
<title>pressure&#45;&gt;err_error4</title>
<path fill="none" stroke="black" stroke-width="1.2" d="M407.37,-577.78C415.3,-586.63 423.64,-596.95 430,-607.31 452.34,-643.66 439.05,-663.22 466,-696.31 468.09,-698.87 470.43,-701.3 472.94,-703.6"/>
<polygon fill="black" stroke="black" stroke-width="1.2" points="409.92,-575.38 400.56,-570.42 404.78,-580.13 409.92,-575.38"/>
<polygon fill="black" stroke="black" stroke-width="1.2" points="470.87,-706.43 480.83,-710.06 475.31,-701.01 470.87,-706.43"/>
</g>
<!-- pressure&#45;&gt;err_error5 -->
<g id="edge27" class="edge">
<title>pressure&#45;&gt;err_error5</title>
<path fill="none" stroke="black" stroke-width="1.2" d="M401.48,-534.3C424.09,-513.4 461.54,-478.79 486.97,-455.29"/>
<polygon fill="black" stroke="black" stroke-width="1.2" points="489.47,-457.74 494.44,-448.38 484.72,-452.6 489.47,-457.74"/>
</g>
<!-- mnt_comp2 -->
<g id="node11" class="node">
<title>mnt_comp2</title>
<path fill="white" stroke="black" d="M814,-280.31C814,-280.31 740,-280.31 740,-280.31 734,-280.31 728,-274.31 728,-268.31 728,-268.31 728,-256.31 728,-256.31 728,-250.31 734,-244.31 740,-244.31 740,-244.31 814,-244.31 814,-244.31 820,-244.31 826,-250.31 826,-256.31 826,-256.31 826,-268.31 826,-268.31 826,-274.31 820,-280.31 814,-280.31"/>
<text text-anchor="middle" x="777" y="-258.61" font-family="Helvetica,sans-Serif" font-size="14.00">mnt_comp2</text>
</g>
<!-- pressure&#45;&gt;mnt_comp2 -->
<g id="edge28" class="edge">
<title>pressure&#45;&gt;mnt_comp2</title>
<path fill="none" stroke="black" stroke-width="1.2" d="M419.54,-536.24C457.54,-519.18 517.19,-490.19 564,-457.31 639,-404.62 715.27,-327.42 752.56,-287.82"/>
<polygon fill="black" stroke="black" stroke-width="1.2" points="755.2,-290.11 759.48,-280.42 750.09,-285.33 755.2,-290.11"/>
</g>
<!-- pressure&#45;&gt;fail_comp3 -->
<g id="edge29" class="edge">
<title>pressure&#45;&gt;fail_comp3</title>
<path fill="none" stroke="black" stroke-width="1.2" d="M419.53,-545.08C457.24,-536.97 516.45,-521.92 564,-499.31 690.47,-439.15 821.7,-334.54 878.25,-287.04"/>
<polygon fill="black" stroke="black" stroke-width="1.2" points="880.66,-289.59 886.04,-280.46 876.15,-284.24 880.66,-289.59"/>
</g>
<!-- vibration&#45;&gt;rotate -->
<g id="edge16" class="edge">
<title>vibration&#45;&gt;rotate</title>
<path fill="none" stroke="black" stroke-width="1.2" d="M139.56,-361.33C152.26,-384.19 176.33,-424.02 204,-452.31 206.79,-455.15 209.85,-457.92 213.04,-460.56"/>
<polygon fill="black" stroke="black" stroke-width="1.2" points="211.06,-463.45 221.1,-466.82 215.35,-457.92 211.06,-463.45"/>
</g>
<!-- vibration&#45;&gt;err_error3 -->
<g id="edge30" class="edge">
<title>vibration&#45;&gt;err_error3</title>
<path fill="none" stroke="black" stroke-width="1.2" d="M168.38,-349.74C179.83,-351.6 192.41,-353.59 204,-355.31 363.68,-378.89 415.77,-339.4 564,-403.31 643.44,-437.56 717.36,-510.4 753.26,-549.39"/>
<polygon fill="black" stroke="black" stroke-width="1.2" points="751.02,-552.13 760.33,-557.17 756.2,-547.42 751.02,-552.13"/>
</g>
<!-- vibration&#45;&gt;err_error5 -->
<g id="edge31" class="edge">
<title>vibration&#45;&gt;err_error5</title>
<path fill="none" stroke="black" stroke-width="1.2" d="M169.47,-368.78C186.54,-387.99 183.04,-403.14 204,-414.31 247.27,-437.35 385.62,-435.72 462.04,-432.85"/>
<polygon fill="black" stroke="black" stroke-width="1.2" points="171.72,-366.08 162.17,-361.51 166.79,-371.05 171.72,-366.08"/>
<polygon fill="black" stroke="black" stroke-width="1.2" points="462.55,-436.33 472.4,-432.44 462.27,-429.34 462.55,-436.33"/>
</g>
<!-- vibration&#45;&gt;mnt_comp1 -->
<g id="edge32" class="edge">
<title>vibration&#45;&gt;mnt_comp1</title>
<path fill="none" stroke="black" stroke-width="1.2" d="M178.18,-334.57C211.88,-327.63 257.56,-316.55 296,-301.31 313.01,-294.56 315.43,-289.08 332,-281.31 374.3,-261.47 389.33,-266.28 430,-243.31 450.1,-231.95 470.62,-216.16 486.36,-202.99"/>
<polygon fill="black" stroke="black" stroke-width="1.2" points="177.24,-331.18 168.12,-336.59 178.62,-338.05 177.24,-331.18"/>
<polygon fill="black" stroke="black" stroke-width="1.2" points="488.78,-205.52 494.12,-196.37 484.24,-200.19 488.78,-205.52"/>
</g>
<!-- vibration&#45;&gt;fail_comp1 -->
<g id="edge34" class="edge">
<title>vibration&#45;&gt;fail_comp1</title>
<path fill="none" stroke="black" stroke-width="1.2" d="M168.27,-345.51C202.16,-346.68 252.79,-346.46 296,-338.31 306.49,-336.33 317.43,-333.23 327.81,-329.78"/>
<polygon fill="black" stroke="black" stroke-width="1.2" points="329.27,-332.97 337.55,-326.37 326.96,-326.37 329.27,-332.97"/>
</g>
<!-- fail_comp4 -->
<g id="node17" class="node">
<title>fail_comp4</title>
<path fill="white" stroke="black" d="M284,-258.31C284,-258.31 216,-258.31 216,-258.31 210,-258.31 204,-252.31 204,-246.31 204,-246.31 204,-234.31 204,-234.31 204,-228.31 210,-222.31 216,-222.31 216,-222.31 284,-222.31 284,-222.31 290,-222.31 296,-228.31 296,-234.31 296,-234.31 296,-246.31 296,-246.31 296,-252.31 290,-258.31 284,-258.31"/>
<text text-anchor="middle" x="250" y="-236.61" font-family="Helvetica,sans-Serif" font-size="14.00">fail_comp4</text>
</g>
<!-- vibration&#45;&gt;fail_comp4 -->
<g id="edge35" class="edge">
<title>vibration&#45;&gt;fail_comp4</title>
<path fill="none" stroke="black" stroke-width="1.2" d="M147.56,-325.03C162.14,-310.21 183.7,-289.11 204,-272.31 207.07,-269.77 210.33,-267.21 213.63,-264.7"/>
<polygon fill="black" stroke="black" stroke-width="1.2" points="215.9,-267.38 221.87,-258.63 211.74,-261.75 215.9,-267.38"/>
</g>
<!-- err_error2 -->
<g id="node6" class="node">
<title>err_error2</title>
<path fill="white" stroke="black" d="M938.5,-746.31C938.5,-746.31 877.5,-746.31 877.5,-746.31 871.5,-746.31 865.5,-740.31 865.5,-734.31 865.5,-734.31 865.5,-722.31 865.5,-722.31 865.5,-716.31 871.5,-710.31 877.5,-710.31 877.5,-710.31 938.5,-710.31 938.5,-710.31 944.5,-710.31 950.5,-716.31 950.5,-722.31 950.5,-722.31 950.5,-734.31 950.5,-734.31 950.5,-740.31 944.5,-746.31 938.5,-746.31"/>
<text text-anchor="middle" x="908" y="-724.61" font-family="Helvetica,sans-Serif" font-size="14.00">err_error2</text>
</g>
<!-- err_error2&#45;&gt;volt -->
<g id="edge4" class="edge">
<title>err_error2&#45;&gt;volt</title>
<path fill="none" stroke="black" stroke-width="1.2" d="M885.66,-746.31C843.17,-780.24 743.73,-850.31 647,-850.31 249,-850.31 249,-850.31 249,-850.31 167.13,-850.31 135.43,-825.41 90,-757.31 42.75,-686.49 31.2,-417.57 28.66,-329.45"/>
<polygon fill="black" stroke="black" stroke-width="1.2" points="32.16,-329.3 28.39,-319.4 25.16,-329.49 32.16,-329.3"/>
</g>
<!-- err_error2&#45;&gt;rotate -->
<g id="edge17" class="edge">
<title>err_error2&#45;&gt;rotate</title>
<path fill="none" stroke="black" stroke-width="1.2" d="M865.07,-740.39C814.01,-754.02 724.93,-774.31 647,-774.31 514,-774.31 514,-774.31 514,-774.31 373.13,-774.31 287.98,-584.24 260.65,-511.85"/>
<polygon fill="black" stroke="black" stroke-width="1.2" points="263.93,-510.62 257.18,-502.45 257.36,-513.04 263.93,-510.62"/>
</g>
<!-- err_error2&#45;&gt;pressure -->
<g id="edge24" class="edge">
<title>err_error2&#45;&gt;pressure</title>
<path fill="none" stroke="black" stroke-width="1.2" d="M865.35,-727.31C767.72,-724.17 527.69,-711.62 466,-663.31 432.73,-637.25 458.99,-606.05 430,-575.31 429.24,-574.5 428.44,-573.72 427.62,-572.96"/>
<polygon fill="black" stroke="black" stroke-width="1.2" points="429.62,-570.08 419.54,-566.79 425.37,-575.64 429.62,-570.08"/>
</g>
<!-- err_error3&#45;&gt;err_error2 -->
<g id="edge36" class="edge">
<title>err_error3&#45;&gt;err_error2</title>
<path fill="none" stroke="black" stroke-width="1.2" d="M793.3,-593.46C816.1,-620.49 859.06,-671.45 885.15,-702.39"/>
<polygon fill="black" stroke="black" stroke-width="1.2" points="882.59,-704.79 891.72,-710.18 887.95,-700.28 882.59,-704.79"/>
</g>
<!-- err_error3&#45;&gt;fail_comp3 -->
<g id="edge39" class="edge">
<title>err_error3&#45;&gt;fail_comp3</title>
<path fill="none" stroke="black" stroke-width="1.2" d="M801.02,-557.14C809.9,-549.12 819.46,-539.07 826,-528.31 873.62,-449.89 895.18,-341.3 903.12,-290.55"/>
<polygon fill="black" stroke="black" stroke-width="1.2" points="906.63,-290.76 904.66,-280.35 899.71,-289.72 906.63,-290.76"/>
</g>
<!-- err_error4&#45;&gt;volt -->
<g id="edge6" class="edge">
<title>err_error4&#45;&gt;volt</title>
<path fill="none" stroke="black" stroke-width="1.2" d="M472.49,-713.99C387.74,-682.63 194.03,-599.75 90,-465.31 58.01,-423.96 41.04,-364.29 33.33,-329.48"/>
<polygon fill="black" stroke="black" stroke-width="1.2" points="36.72,-328.58 31.23,-319.52 29.87,-330.03 36.72,-328.58"/>
</g>
<!-- err_error4&#45;&gt;err_error3 -->
<g id="edge37" class="edge">
<title>err_error4&#45;&gt;err_error3</title>
<path fill="none" stroke="black" stroke-width="1.2" d="M546.59,-710.31C593.79,-682.53 684.38,-629.22 736.48,-598.56"/>
<polygon fill="black" stroke="black" stroke-width="1.2" points="738.28,-601.56 745.12,-593.48 734.73,-595.53 738.28,-601.56"/>
</g>
<!-- mnt_comp1&#45;&gt;mnt_comp3 -->
<g id="edge40" class="edge">
<title>mnt_comp1&#45;&gt;mnt_comp3</title>
<path fill="none" stroke="black" stroke-width="1.2" d="M564.01,-180.82C645.36,-185.9 815,-200.08 954,-235.31 962.52,-237.47 971.45,-240.01 980.16,-242.67"/>
<polygon fill="black" stroke="black" stroke-width="1.2" points="979.3,-246.06 989.88,-245.7 981.38,-239.38 979.3,-246.06"/>
</g>
<!-- mnt_comp1&#45;&gt;fail_comp2 -->
<g id="edge42" class="edge">
<title>mnt_comp1&#45;&gt;fail_comp2</title>
<path fill="none" stroke="black" stroke-width="1.2" d="M543.67,-196.33C562.59,-208.64 587.86,-225.1 608.43,-238.49"/>
<polygon fill="black" stroke="black" stroke-width="1.2" points="606.64,-241.5 616.93,-244.03 610.46,-235.64 606.64,-241.5"/>
</g>
<!-- mnt_comp1&#45;&gt;fail_comp3 -->
<g id="edge43" class="edge">
<title>mnt_comp1&#45;&gt;fail_comp3</title>
<path fill="none" stroke="black" stroke-width="1.2" d="M564.2,-186.32C638.43,-198.8 777.24,-222.76 826,-235.31 834.55,-237.51 843.51,-240.15 852.22,-242.9"/>
<polygon fill="black" stroke="black" stroke-width="1.2" points="851.33,-246.29 861.92,-246.04 853.49,-239.63 851.33,-246.29"/>
</g>
<!-- mnt_comp2&#45;&gt;volt -->
<g id="edge8" class="edge">
<title>mnt_comp2&#45;&gt;volt</title>
<path fill="none" stroke="black" stroke-width="1.2" d="M766.29,-244.3C736.49,-191.76 640.76,-42.31 516,-42.31 249,-42.31 249,-42.31 249,-42.31 177.32,-42.31 142.98,-21.03 90,-69.31 59.95,-96.68 39.71,-216.96 31.77,-272.73"/>
<polygon fill="black" stroke="black" stroke-width="1.2" points="28.25,-272.59 30.34,-282.98 35.18,-273.55 28.25,-272.59"/>
</g>
<!-- mnt_comp2&#45;&gt;fail_comp3 -->
<g id="edge45" class="edge">
<title>mnt_comp2&#45;&gt;fail_comp3</title>
<path fill="none" stroke="black" stroke-width="1.2" d="M826.03,-262.31C834.39,-262.31 843.13,-262.31 851.66,-262.31"/>
<polygon fill="black" stroke="black" stroke-width="1.2" points="851.92,-265.81 861.92,-262.31 851.92,-258.81 851.92,-265.81"/>
</g>
<!-- mnt_comp4 -->
<g id="node13" class="node">
<title>mnt_comp4</title>
<path fill="white" stroke="black" d="M418,-234.31C418,-234.31 344,-234.31 344,-234.31 338,-234.31 332,-228.31 332,-222.31 332,-222.31 332,-210.31 332,-210.31 332,-204.31 338,-198.31 344,-198.31 344,-198.31 418,-198.31 418,-198.31 424,-198.31 430,-204.31 430,-210.31 430,-210.31 430,-222.31 430,-222.31 430,-228.31 424,-234.31 418,-234.31"/>
<text text-anchor="middle" x="381" y="-212.61" font-family="Helvetica,sans-Serif" font-size="14.00">mnt_comp4</text>
</g>
<!-- mnt_comp4&#45;&gt;volt -->
<g id="edge10" class="edge">
<title>mnt_comp4&#45;&gt;volt</title>
<path fill="none" stroke="black" stroke-width="1.2" d="M331.84,-201.14C270.82,-184.98 164.61,-167.35 90,-212.31 66.47,-226.48 49.62,-253.41 39.48,-273.95"/>
<polygon fill="black" stroke="black" stroke-width="1.2" points="36.24,-272.61 35.17,-283.15 42.58,-275.58 36.24,-272.61"/>
</g>
<!-- mnt_comp4&#45;&gt;vibration -->
<g id="edge33" class="edge">
<title>mnt_comp4&#45;&gt;vibration</title>
<path fill="none" stroke="black" stroke-width="1.2" d="M352.09,-234.37C335.97,-244.53 315.14,-257.16 296,-267.31 284.79,-273.25 222.67,-301.49 177.7,-321.81"/>
<polygon fill="black" stroke="black" stroke-width="1.2" points="176.07,-318.71 168.39,-326.01 178.95,-325.09 176.07,-318.71"/>
</g>
<!-- mnt_comp4&#45;&gt;fail_comp2 -->
<g id="edge47" class="edge">
<title>mnt_comp4&#45;&gt;fail_comp2</title>
<path fill="none" stroke="black" stroke-width="1.2" d="M430.18,-230.01C441.84,-233.02 454.32,-236 466,-238.31 507.16,-246.42 554.19,-252.61 589.71,-256.67"/>
<polygon fill="black" stroke="black" stroke-width="1.2" points="589.55,-260.17 599.88,-257.81 590.33,-253.22 589.55,-260.17"/>
</g>
<!-- fail_comp1&#45;&gt;mnt_comp1 -->
<g id="edge41" class="edge">
<title>fail_comp1&#45;&gt;mnt_comp1</title>
<path fill="none" stroke="black" stroke-width="1.2" d="M411.88,-290.23C418.1,-285.97 424.45,-281.22 430,-276.31 454.62,-254.49 478.62,-225.48 494.62,-204.69"/>
<polygon fill="black" stroke="black" stroke-width="1.2" points="497.5,-206.69 500.76,-196.61 491.92,-202.45 497.5,-206.69"/>
</g>
<!-- fail_comp2&#45;&gt;volt -->
<g id="edge12" class="edge">
<title>fail_comp2&#45;&gt;volt</title>
<path fill="none" stroke="black" stroke-width="1.2" d="M599.9,-248.56C555.41,-234.9 490.62,-214.66 466,-205.31 449.63,-199.08 447,-193.51 430,-189.31 332.42,-165.15 304.52,-178.98 204,-180.31 153.32,-180.97 133.03,-156.53 90,-183.31 58.29,-203.04 41.92,-244.79 34.15,-272.95"/>
<polygon fill="black" stroke="black" stroke-width="1.2" points="30.67,-272.45 31.58,-283.01 37.45,-274.18 30.67,-272.45"/>
</g>
<!-- fail_comp2&#45;&gt;err_error3 -->
<g id="edge38" class="edge">
<title>fail_comp2&#45;&gt;err_error3</title>
<path fill="none" stroke="black" stroke-width="1.2" d="M654.68,-280.64C663.66,-302.11 678.97,-338.77 692,-370.31 718.21,-433.75 748.7,-508.36 764.77,-547.74"/>
<polygon fill="black" stroke="black" stroke-width="1.2" points="761.6,-549.25 768.62,-557.19 768.08,-546.61 761.6,-549.25"/>
</g>
<!-- fail_comp2&#45;&gt;mnt_comp2 -->
<g id="edge44" class="edge">
<title>fail_comp2&#45;&gt;mnt_comp2</title>
<path fill="none" stroke="black" stroke-width="1.2" d="M692.12,-262.31C700.28,-262.31 708.9,-262.31 717.38,-262.31"/>
<polygon fill="black" stroke="black" stroke-width="1.2" points="717.62,-265.81 727.62,-262.31 717.62,-258.81 717.62,-265.81"/>
</g>
<!-- fail_comp3&#45;&gt;mnt_comp3 -->
<g id="edge46" class="edge">
<title>fail_comp3&#45;&gt;mnt_comp3</title>
<path fill="none" stroke="black" stroke-width="1.2" d="M954.12,-262.31C962.28,-262.31 970.9,-262.31 979.38,-262.31"/>
<polygon fill="black" stroke="black" stroke-width="1.2" points="979.62,-265.81 989.62,-262.31 979.62,-258.81 979.62,-265.81"/>
</g>
<!-- fail_comp4&#45;&gt;volt -->
<g id="edge14" class="edge">
<title>fail_comp4&#45;&gt;volt</title>
<path fill="none" stroke="black" stroke-width="1.2" d="M203.65,-252.82C162.28,-264.24 101.97,-280.89 63.87,-291.41"/>
<polygon fill="black" stroke="black" stroke-width="1.2" points="62.93,-288.03 54.22,-294.07 64.79,-294.78 62.93,-288.03"/>
</g>
<!-- fail_comp4&#45;&gt;mnt_comp4 -->
<g id="edge48" class="edge">
<title>fail_comp4&#45;&gt;mnt_comp4</title>
<path fill="none" stroke="black" stroke-width="1.2" d="M296.12,-231.91C304.37,-230.38 313.09,-228.76 321.66,-227.16"/>
<polygon fill="black" stroke="black" stroke-width="1.2" points="322.42,-230.58 331.62,-225.31 321.14,-223.7 322.42,-230.58"/>
</g>
</g>
</svg>
