<?xml version="1.0" encoding="UTF-8" standalone="no"?>
<!DOCTYPE svg PUBLIC "-//W3C//DTD SVG 1.1//EN"
 "http://www.w3.org/Graphics/SVG/1.1/DTD/svg11.dtd">
<!-- Generated by graphviz version 2.50.0 (0)
 -->
<!-- Title: G Pages: 1 -->
<svg width="1289pt" height="582pt"
 viewBox="0.00 0.00 1289.00 582.00" xmlns="http://www.w3.org/2000/svg" xmlns:xlink="http://www.w3.org/1999/xlink">
<g id="graph0" class="graph" transform="scale(1 1) rotate(0) translate(4 578)">
<title>G</title>
<polygon fill="white" stroke="transparent" points="-4,4 -4,-578 1285,-578 1285,4 -4,4"/>
<text text-anchor="middle" x="640.5" y="-557.2" font-family="Times,serif" font-size="16.00">model=model4/nbcb_w_mixed.json [machine 9]</text>
<!-- volt -->
<g id="node1" class="node">
<title>volt</title>
<path fill="white" stroke="black" d="M42,-331C42,-331 12,-331 12,-331 6,-331 0,-325 0,-319 0,-319 0,-307 0,-307 0,-301 6,-295 12,-295 12,-295 42,-295 42,-295 48,-295 54,-301 54,-307 54,-307 54,-319 54,-319 54,-325 48,-331 42,-331"/>
<text text-anchor="middle" x="27" y="-309.3" font-family="Helvetica,sans-Serif" font-size="14.00">volt</text>
</g>
<!-- pressure -->
<g id="node3" class="node">
<title>pressure</title>
<path fill="white" stroke="black" d="M155,-285C155,-285 102,-285 102,-285 96,-285 90,-279 90,-273 90,-273 90,-261 90,-261 90,-255 96,-249 102,-249 102,-249 155,-249 155,-249 161,-249 167,-255 167,-261 167,-261 167,-273 167,-273 167,-279 161,-285 155,-285"/>
<text text-anchor="middle" x="128.5" y="-263.3" font-family="Helvetica,sans-Serif" font-size="14.00">pressure</text>
</g>
<!-- volt&#45;&gt;pressure -->
<g id="edge2" class="edge">
<title>volt&#45;&gt;pressure</title>
<path fill="none" stroke="black" stroke-width="1.2" d="M54.14,-300.91C62.35,-297.12 71.67,-292.81 80.85,-288.57"/>
<polygon fill="black" stroke="black" stroke-width="1.2" points="82.32,-291.74 89.93,-284.37 79.39,-285.39 82.32,-291.74"/>
</g>
<!-- vibration -->
<g id="node4" class="node">
<title>vibration</title>
<path fill="white" stroke="black" d="M1003.5,-319C1003.5,-319 949.5,-319 949.5,-319 943.5,-319 937.5,-313 937.5,-307 937.5,-307 937.5,-295 937.5,-295 937.5,-289 943.5,-283 949.5,-283 949.5,-283 1003.5,-283 1003.5,-283 1009.5,-283 1015.5,-289 1015.5,-295 1015.5,-295 1015.5,-307 1015.5,-307 1015.5,-313 1009.5,-319 1003.5,-319"/>
<text text-anchor="middle" x="976.5" y="-297.3" font-family="Helvetica,sans-Serif" font-size="14.00">vibration</text>
</g>
<!-- volt&#45;&gt;vibration -->
<g id="edge3" class="edge">
<title>volt&#45;&gt;vibration</title>
<path fill="none" stroke="black" stroke-width="1.2" d="M54.14,-325.05C95.16,-342.83 177.55,-374 251,-374 251,-374 251,-374 384,-374 587.32,-374 827.01,-330.99 927.45,-311"/>
<polygon fill="black" stroke="black" stroke-width="1.2" points="928.18,-314.42 937.29,-309.02 926.8,-307.56 928.18,-314.42"/>
</g>
<!-- err_error1 -->
<g id="node5" class="node">
<title>err_error1</title>
<path fill="white" stroke="black" d="M1007,-64C1007,-64 946,-64 946,-64 940,-64 934,-58 934,-52 934,-52 934,-40 934,-40 934,-34 940,-28 946,-28 946,-28 1007,-28 1007,-28 1013,-28 1019,-34 1019,-40 1019,-40 1019,-52 1019,-52 1019,-58 1013,-64 1007,-64"/>
<text text-anchor="middle" x="976.5" y="-42.3" font-family="Helvetica,sans-Serif" font-size="14.00">err_error1</text>
</g>
<!-- volt&#45;&gt;err_error1 -->
<g id="edge4" class="edge">
<title>volt&#45;&gt;err_error1</title>
<path fill="none" stroke="black" stroke-width="1.2" d="M35.88,-285.07C57.5,-215.12 124.71,-38 251,-38 251,-38 251,-38 735.5,-38 800.36,-38 875.03,-40.95 923.63,-43.27"/>
<polygon fill="black" stroke="black" stroke-width="1.2" points="32.43,-284.37 32.91,-294.96 39.14,-286.39 32.43,-284.37"/>
<polygon fill="black" stroke="black" stroke-width="1.2" points="923.73,-46.78 933.89,-43.77 924.07,-39.79 923.73,-46.78"/>
</g>
<!-- err_error5 -->
<g id="node9" class="node">
<title>err_error5</title>
<path fill="white" stroke="black" d="M282.5,-308C282.5,-308 221.5,-308 221.5,-308 215.5,-308 209.5,-302 209.5,-296 209.5,-296 209.5,-284 209.5,-284 209.5,-278 215.5,-272 221.5,-272 221.5,-272 282.5,-272 282.5,-272 288.5,-272 294.5,-278 294.5,-284 294.5,-284 294.5,-296 294.5,-296 294.5,-302 288.5,-308 282.5,-308"/>
<text text-anchor="middle" x="252" y="-286.3" font-family="Helvetica,sans-Serif" font-size="14.00">err_error5</text>
</g>
<!-- volt&#45;&gt;err_error5 -->
<g id="edge5" class="edge">
<title>volt&#45;&gt;err_error5</title>
<path fill="none" stroke="black" stroke-width="1.2" d="M64.05,-309.28C100.62,-305.51 157.6,-299.63 199.04,-295.36"/>
<polygon fill="black" stroke="black" stroke-width="1.2" points="63.61,-305.81 54.02,-310.32 64.32,-312.77 63.61,-305.81"/>
<polygon fill="black" stroke="black" stroke-width="1.2" points="199.63,-298.82 209.22,-294.31 198.92,-291.85 199.63,-298.82"/>
</g>
<!-- mnt_comp3 -->
<g id="node12" class="node">
<title>mnt_comp3</title>
<path fill="white" stroke="black" d="M289,-476C289,-476 215,-476 215,-476 209,-476 203,-470 203,-464 203,-464 203,-452 203,-452 203,-446 209,-440 215,-440 215,-440 289,-440 289,-440 295,-440 301,-446 301,-452 301,-452 301,-464 301,-464 301,-470 295,-476 289,-476"/>
<text text-anchor="middle" x="252" y="-454.3" font-family="Helvetica,sans-Serif" font-size="14.00">mnt_comp3</text>
</g>
<!-- volt&#45;&gt;mnt_comp3 -->
<g id="edge6" class="edge">
<title>volt&#45;&gt;mnt_comp3</title>
<path fill="none" stroke="black" stroke-width="1.2" d="M45.1,-339.44C56.34,-355.18 72.23,-374.63 90,-388 120.9,-411.25 160.72,-428.65 193.02,-440.28"/>
<polygon fill="black" stroke="black" stroke-width="1.2" points="47.92,-337.37 39.35,-331.14 42.17,-341.35 47.92,-337.37"/>
<polygon fill="black" stroke="black" stroke-width="1.2" points="192.19,-443.7 202.79,-443.71 194.51,-437.1 192.19,-443.7"/>
</g>
<!-- fail_comp1 -->
<g id="node14" class="node">
<title>fail_comp1</title>
<path fill="white" stroke="black" d="M417,-476C417,-476 349,-476 349,-476 343,-476 337,-470 337,-464 337,-464 337,-452 337,-452 337,-446 343,-440 349,-440 349,-440 417,-440 417,-440 423,-440 429,-446 429,-452 429,-452 429,-464 429,-464 429,-470 423,-476 417,-476"/>
<text text-anchor="middle" x="383" y="-454.3" font-family="Helvetica,sans-Serif" font-size="14.00">fail_comp1</text>
</g>
<!-- volt&#45;&gt;fail_comp1 -->
<g id="edge7" class="edge">
<title>volt&#45;&gt;fail_comp1</title>
<path fill="none" stroke="black" stroke-width="1.2" d="M34.73,-331.18C44.12,-354.56 63.1,-395.33 90,-422 130.83,-462.48 147.35,-470.53 203,-485 245.15,-495.96 258.01,-491.98 301,-485 309.61,-483.6 318.54,-481.42 327.19,-478.89"/>
<polygon fill="black" stroke="black" stroke-width="1.2" points="328.3,-482.21 336.81,-475.91 326.22,-475.53 328.3,-482.21"/>
</g>
<!-- rotate -->
<g id="node2" class="node">
<title>rotate</title>
<path fill="white" stroke="black" d="M510,-216C510,-216 477,-216 477,-216 471,-216 465,-210 465,-204 465,-204 465,-192 465,-192 465,-186 471,-180 477,-180 477,-180 510,-180 510,-180 516,-180 522,-186 522,-192 522,-192 522,-204 522,-204 522,-210 516,-216 510,-216"/>
<text text-anchor="middle" x="493.5" y="-194.3" font-family="Helvetica,sans-Serif" font-size="14.00">rotate</text>
</g>
<!-- rotate&#45;&gt;volt -->
<g id="edge1" class="edge">
<title>rotate&#45;&gt;volt</title>
<path fill="none" stroke="black" stroke-width="1.2" d="M465,-192.85C395.54,-181.4 210.05,-160.74 90,-240 71.74,-252.06 55.86,-271.02 44.75,-286.59"/>
<polygon fill="black" stroke="black" stroke-width="1.2" points="41.87,-284.61 39.08,-294.83 47.63,-288.57 41.87,-284.61"/>
</g>
<!-- rotate&#45;&gt;vibration -->
<g id="edge9" class="edge">
<title>rotate&#45;&gt;vibration</title>
<path fill="none" stroke="black" stroke-width="1.2" d="M522.09,-207.96C533.16,-211.74 546.09,-215.88 558,-219 690.14,-253.68 849.26,-281.05 927.4,-293.57"/>
<polygon fill="black" stroke="black" stroke-width="1.2" points="927.01,-297.05 937.43,-295.17 928.11,-290.14 927.01,-297.05"/>
</g>
<!-- err_error2 -->
<g id="node6" class="node">
<title>err_error2</title>
<path fill="white" stroke="black" d="M637.5,-140C637.5,-140 576.5,-140 576.5,-140 570.5,-140 564.5,-134 564.5,-128 564.5,-128 564.5,-116 564.5,-116 564.5,-110 570.5,-104 576.5,-104 576.5,-104 637.5,-104 637.5,-104 643.5,-104 649.5,-110 649.5,-116 649.5,-116 649.5,-128 649.5,-128 649.5,-134 643.5,-140 637.5,-140"/>
<text text-anchor="middle" x="607" y="-118.3" font-family="Helvetica,sans-Serif" font-size="14.00">err_error2</text>
</g>
<!-- rotate&#45;&gt;err_error2 -->
<g id="edge10" class="edge">
<title>rotate&#45;&gt;err_error2</title>
<path fill="none" stroke="black" stroke-width="1.2" d="M528.78,-174.08C538.22,-167.54 548.49,-160.47 558,-154 561.98,-151.29 566.16,-148.47 570.33,-145.68"/>
<polygon fill="black" stroke="black" stroke-width="1.2" points="526.6,-171.33 520.38,-179.91 530.59,-177.08 526.6,-171.33"/>
<polygon fill="black" stroke="black" stroke-width="1.2" points="572.42,-148.49 578.78,-140.02 568.52,-142.67 572.42,-148.49"/>
</g>
<!-- err_error3 -->
<g id="node7" class="node">
<title>err_error3</title>
<path fill="white" stroke="black" d="M765,-232C765,-232 704,-232 704,-232 698,-232 692,-226 692,-220 692,-220 692,-208 692,-208 692,-202 698,-196 704,-196 704,-196 765,-196 765,-196 771,-196 777,-202 777,-208 777,-208 777,-220 777,-220 777,-226 771,-232 765,-232"/>
<text text-anchor="middle" x="734.5" y="-210.3" font-family="Helvetica,sans-Serif" font-size="14.00">err_error3</text>
</g>
<!-- rotate&#45;&gt;err_error3 -->
<g id="edge11" class="edge">
<title>rotate&#45;&gt;err_error3</title>
<path fill="none" stroke="black" stroke-width="1.2" d="M522.38,-199.87C561.36,-202.48 632.81,-207.26 681.71,-210.53"/>
<polygon fill="black" stroke="black" stroke-width="1.2" points="681.57,-214.03 691.78,-211.21 682.03,-207.05 681.57,-214.03"/>
</g>
<!-- err_error4 -->
<g id="node8" class="node">
<title>err_error4</title>
<path fill="white" stroke="black" d="M886,-186C886,-186 825,-186 825,-186 819,-186 813,-180 813,-174 813,-174 813,-162 813,-162 813,-156 819,-150 825,-150 825,-150 886,-150 886,-150 892,-150 898,-156 898,-162 898,-162 898,-174 898,-174 898,-180 892,-186 886,-186"/>
<text text-anchor="middle" x="855.5" y="-164.3" font-family="Helvetica,sans-Serif" font-size="14.00">err_error4</text>
</g>
<!-- rotate&#45;&gt;err_error4 -->
<g id="edge12" class="edge">
<title>rotate&#45;&gt;err_error4</title>
<path fill="none" stroke="black" stroke-width="1.2" d="M532.4,-194.84C597.19,-189.44 729.3,-178.43 802.6,-172.32"/>
<polygon fill="black" stroke="black" stroke-width="1.2" points="531.83,-191.38 522.15,-195.7 532.41,-198.35 531.83,-191.38"/>
<polygon fill="black" stroke="black" stroke-width="1.2" points="803.3,-175.78 812.97,-171.46 802.72,-168.8 803.3,-175.78"/>
</g>
<!-- fail_comp2 -->
<g id="node15" class="node">
<title>fail_comp2</title>
<path fill="white" stroke="black" d="M1135,-319C1135,-319 1067,-319 1067,-319 1061,-319 1055,-313 1055,-307 1055,-307 1055,-295 1055,-295 1055,-289 1061,-283 1067,-283 1067,-283 1135,-283 1135,-283 1141,-283 1147,-289 1147,-295 1147,-295 1147,-307 1147,-307 1147,-313 1141,-319 1135,-319"/>
<text text-anchor="middle" x="1101" y="-297.3" font-family="Helvetica,sans-Serif" font-size="14.00">fail_comp2</text>
</g>
<!-- rotate&#45;&gt;fail_comp2 -->
<g id="edge14" class="edge">
<title>rotate&#45;&gt;fail_comp2</title>
<path fill="none" stroke="black" stroke-width="1.2" d="M499.63,-179.81C507.61,-155.42 525.53,-113.12 558,-95 627.88,-55.99 835.47,-112.41 898,-141 971.12,-174.43 1041.13,-239.78 1076.36,-275.75"/>
<polygon fill="black" stroke="black" stroke-width="1.2" points="1073.87,-278.21 1083.34,-282.96 1078.9,-273.34 1073.87,-278.21"/>
</g>
<!-- pressure&#45;&gt;rotate -->
<g id="edge8" class="edge">
<title>pressure&#45;&gt;rotate</title>
<path fill="none" stroke="black" stroke-width="1.2" d="M159.25,-248.98C172.24,-241.93 187.93,-234.47 203,-230 290.45,-204.07 398.39,-198.8 454.53,-197.94"/>
<polygon fill="black" stroke="black" stroke-width="1.2" points="454.76,-201.44 464.72,-197.83 454.68,-194.44 454.76,-201.44"/>
</g>
<!-- pressure&#45;&gt;err_error2 -->
<g id="edge15" class="edge">
<title>pressure&#45;&gt;err_error2</title>
<path fill="none" stroke="black" stroke-width="1.2" d="M159.91,-241.95C162.31,-239.94 164.7,-237.94 167,-236 183.14,-222.38 184.05,-214.32 203,-205 319.87,-147.53 474.67,-129.82 554.1,-124.39"/>
<polygon fill="black" stroke="black" stroke-width="1.2" points="157.22,-239.63 151.77,-248.71 161.7,-245.01 157.22,-239.63"/>
<polygon fill="black" stroke="black" stroke-width="1.2" points="554.58,-127.86 564.34,-123.73 554.13,-120.88 554.58,-127.86"/>
</g>
<!-- pressure&#45;&gt;err_error5 -->
<g id="edge17" class="edge">
<title>pressure&#45;&gt;err_error5</title>
<path fill="none" stroke="black" stroke-width="1.2" d="M167.28,-274.15C177.41,-276.07 188.55,-278.18 199.3,-280.21"/>
<polygon fill="black" stroke="black" stroke-width="1.2" points="198.96,-283.71 209.44,-282.13 200.27,-276.83 198.96,-283.71"/>
</g>
<!-- pressure&#45;&gt;mnt_comp3 -->
<g id="edge19" class="edge">
<title>pressure&#45;&gt;mnt_comp3</title>
<path fill="none" stroke="black" stroke-width="1.2" d="M134.43,-285.5C143.61,-317.18 165.82,-382.56 203,-426 205.21,-428.59 207.69,-431.05 210.31,-433.38"/>
<polygon fill="black" stroke="black" stroke-width="1.2" points="208.53,-436.44 218.53,-439.95 212.9,-430.97 208.53,-436.44"/>
</g>
<!-- mnt_comp4 -->
<g id="node13" class="node">
<title>mnt_comp4</title>
<path fill="white" stroke="black" d="M1269,-201C1269,-201 1195,-201 1195,-201 1189,-201 1183,-195 1183,-189 1183,-189 1183,-177 1183,-177 1183,-171 1189,-165 1195,-165 1195,-165 1269,-165 1269,-165 1275,-165 1281,-171 1281,-177 1281,-177 1281,-189 1281,-189 1281,-195 1275,-201 1269,-201"/>
<text text-anchor="middle" x="1232" y="-179.3" font-family="Helvetica,sans-Serif" font-size="14.00">mnt_comp4</text>
</g>
<!-- pressure&#45;&gt;mnt_comp4 -->
<g id="edge20" class="edge">
<title>pressure&#45;&gt;mnt_comp4</title>
<path fill="none" stroke="black" stroke-width="1.2" d="M137.75,-248.95C149.19,-225.92 172.01,-186.38 203,-164 403.08,-19.52 486.71,0 733.5,0 733.5,0 733.5,0 977.5,0 1083.2,0 1174.78,-105.89 1212.55,-156.57"/>
<polygon fill="black" stroke="black" stroke-width="1.2" points="1209.83,-158.78 1218.56,-164.78 1215.48,-154.65 1209.83,-158.78"/>
</g>
<!-- vibration&#45;&gt;fail_comp2 -->
<g id="edge26" class="edge">
<title>vibration&#45;&gt;fail_comp2</title>
<path fill="none" stroke="black" stroke-width="1.2" d="M1015.59,-301C1024.76,-301 1034.75,-301 1044.54,-301"/>
<polygon fill="black" stroke="black" stroke-width="1.2" points="1044.62,-304.5 1054.62,-301 1044.62,-297.5 1044.62,-304.5"/>
</g>
<!-- err_error1&#45;&gt;mnt_comp4 -->
<g id="edge28" class="edge">
<title>err_error1&#45;&gt;mnt_comp4</title>
<path fill="none" stroke="black" stroke-width="1.2" d="M1010.9,-64.05C1056.59,-88.74 1138.6,-133.06 1188.58,-160.08"/>
<polygon fill="black" stroke="black" stroke-width="1.2" points="1187.06,-163.23 1197.52,-164.91 1190.39,-157.08 1187.06,-163.23"/>
</g>
<!-- err_error2&#45;&gt;err_error3 -->
<g id="edge29" class="edge">
<title>err_error2&#45;&gt;err_error3</title>
<path fill="none" stroke="black" stroke-width="1.2" d="M632.79,-140.18C652.22,-154.42 679.41,-174.35 700.65,-189.92"/>
<polygon fill="black" stroke="black" stroke-width="1.2" points="698.62,-192.77 708.76,-195.86 702.76,-187.13 698.62,-192.77"/>
</g>
<!-- err_error2&#45;&gt;err_error4 -->
<g id="edge30" class="edge">
<title>err_error2&#45;&gt;err_error4</title>
<path fill="none" stroke="black" stroke-width="1.2" d="M649.54,-129.75C691.76,-137.63 757.27,-149.86 802.82,-158.36"/>
<polygon fill="black" stroke="black" stroke-width="1.2" points="802.32,-161.82 812.79,-160.22 803.6,-154.94 802.32,-161.82"/>
</g>
<!-- err_error3&#45;&gt;pressure -->
<g id="edge16" class="edge">
<title>err_error3&#45;&gt;pressure</title>
<path fill="none" stroke="black" stroke-width="1.2" d="M691.82,-222.44C644.28,-231.31 564.13,-244 494.5,-244 382,-244 382,-244 382,-244 310.34,-244 227.72,-253.3 177.05,-260.07"/>
<polygon fill="black" stroke="black" stroke-width="1.2" points="176.49,-256.62 167.05,-261.43 177.43,-263.55 176.49,-256.62"/>
</g>
<!-- err_error3&#45;&gt;vibration -->
<g id="edge22" class="edge">
<title>err_error3&#45;&gt;vibration</title>
<path fill="none" stroke="black" stroke-width="1.2" d="M777.24,-226.84C810.26,-237.24 857.4,-252.64 898,-268 907.74,-271.69 918.06,-275.88 927.89,-280"/>
<polygon fill="black" stroke="black" stroke-width="1.2" points="926.55,-283.24 937.12,-283.92 929.28,-276.79 926.55,-283.24"/>
</g>
<!-- err_error3&#45;&gt;err_error4 -->
<g id="edge31" class="edge">
<title>err_error3&#45;&gt;err_error4</title>
<path fill="none" stroke="black" stroke-width="1.2" d="M777.12,-197.91C785.59,-194.64 794.58,-191.16 803.34,-187.78"/>
<polygon fill="black" stroke="black" stroke-width="1.2" points="804.64,-191.03 812.7,-184.16 802.11,-184.5 804.64,-191.03"/>
</g>
<!-- err_error4&#45;&gt;vibration -->
<g id="edge23" class="edge">
<title>err_error4&#45;&gt;vibration</title>
<path fill="none" stroke="black" stroke-width="1.2" d="M872.8,-186.21C893.33,-209.17 928.77,-248.77 952.17,-274.93"/>
<polygon fill="black" stroke="black" stroke-width="1.2" points="949.74,-277.46 959.02,-282.58 954.96,-272.79 949.74,-277.46"/>
</g>
<!-- err_error4&#45;&gt;err_error1 -->
<g id="edge27" class="edge">
<title>err_error4&#45;&gt;err_error1</title>
<path fill="none" stroke="black" stroke-width="1.2" d="M874.06,-150C894.36,-129.18 927.92,-94.78 950.83,-71.29"/>
<polygon fill="black" stroke="black" stroke-width="1.2" points="953.39,-73.68 957.87,-64.08 948.38,-68.79 953.39,-73.68"/>
</g>
<!-- err_error5&#45;&gt;vibration -->
<g id="edge24" class="edge">
<title>err_error5&#45;&gt;vibration</title>
<path fill="none" stroke="black" stroke-width="1.2" d="M294.7,-290.63C420.08,-292.54 793.16,-298.22 927.02,-300.26"/>
<polygon fill="black" stroke="black" stroke-width="1.2" points="927.31,-303.77 937.36,-300.42 927.41,-296.77 927.31,-303.77"/>
</g>
<!-- mnt_comp1 -->
<g id="node10" class="node">
<title>mnt_comp1</title>
<path fill="white" stroke="black" d="M644,-437C644,-437 570,-437 570,-437 564,-437 558,-431 558,-425 558,-425 558,-413 558,-413 558,-407 564,-401 570,-401 570,-401 644,-401 644,-401 650,-401 656,-407 656,-413 656,-413 656,-425 656,-425 656,-431 650,-437 644,-437"/>
<text text-anchor="middle" x="607" y="-415.3" font-family="Helvetica,sans-Serif" font-size="14.00">mnt_comp1</text>
</g>
<!-- mnt_comp1&#45;&gt;pressure -->
<g id="edge18" class="edge">
<title>mnt_comp1&#45;&gt;pressure</title>
<path fill="none" stroke="black" stroke-width="1.2" d="M557.98,-412.4C480.58,-400.57 324.61,-371.69 203,-317 188.02,-310.26 172.79,-300.48 160.11,-291.36"/>
<polygon fill="black" stroke="black" stroke-width="1.2" points="161.89,-288.32 151.77,-285.19 157.73,-293.95 161.89,-288.32"/>
</g>
<!-- mnt_comp1&#45;&gt;vibration -->
<g id="edge25" class="edge">
<title>mnt_comp1&#45;&gt;vibration</title>
<path fill="none" stroke="black" stroke-width="1.2" d="M656.2,-419.48C715.88,-418.27 819.28,-410.14 898,-372 919.96,-361.36 940.12,-342.47 954.37,-326.85"/>
<polygon fill="black" stroke="black" stroke-width="1.2" points="957.27,-328.85 961.26,-319.04 952.02,-324.22 957.27,-328.85"/>
</g>
<!-- mnt_comp2 -->
<g id="node11" class="node">
<title>mnt_comp2</title>
<path fill="white" stroke="black" d="M1269,-528C1269,-528 1195,-528 1195,-528 1189,-528 1183,-522 1183,-516 1183,-516 1183,-504 1183,-504 1183,-498 1189,-492 1195,-492 1195,-492 1269,-492 1269,-492 1275,-492 1281,-498 1281,-504 1281,-504 1281,-516 1281,-516 1281,-522 1275,-528 1269,-528"/>
<text text-anchor="middle" x="1232" y="-506.3" font-family="Helvetica,sans-Serif" font-size="14.00">mnt_comp2</text>
</g>
<!-- mnt_comp1&#45;&gt;mnt_comp2 -->
<g id="edge32" class="edge">
<title>mnt_comp1&#45;&gt;mnt_comp2</title>
<path fill="none" stroke="black" stroke-width="1.2" d="M656.11,-426.03C768.96,-442.51 1050.35,-483.61 1172.68,-501.48"/>
<polygon fill="black" stroke="black" stroke-width="1.2" points="1172.21,-504.95 1182.61,-502.93 1173.22,-498.02 1172.21,-504.95"/>
</g>
<!-- mnt_comp3&#45;&gt;fail_comp1 -->
<g id="edge36" class="edge">
<title>mnt_comp3&#45;&gt;fail_comp1</title>
<path fill="none" stroke="black" stroke-width="1.2" d="M301.03,-458C309.39,-458 318.13,-458 326.66,-458"/>
<polygon fill="black" stroke="black" stroke-width="1.2" points="326.92,-461.5 336.92,-458 326.92,-454.5 326.92,-461.5"/>
</g>
<!-- mnt_comp3&#45;&gt;fail_comp2 -->
<g id="edge37" class="edge">
<title>mnt_comp3&#45;&gt;fail_comp2</title>
<path fill="none" stroke="black" stroke-width="1.2" d="M300.8,-476.12C312.48,-479.77 325.05,-483.08 337,-485 414.55,-497.47 684.94,-510.5 777,-486 895.26,-454.53 1015.3,-368.39 1069.78,-325.68"/>
<polygon fill="black" stroke="black" stroke-width="1.2" points="1072.28,-328.16 1077.95,-319.21 1067.94,-322.67 1072.28,-328.16"/>
</g>
<!-- fail_comp1&#45;&gt;rotate -->
<g id="edge13" class="edge">
<title>fail_comp1&#45;&gt;rotate</title>
<path fill="none" stroke="black" stroke-width="1.2" d="M391.63,-439.72C410.34,-394.87 458.62,-279.18 480.91,-225.78"/>
<polygon fill="black" stroke="black" stroke-width="1.2" points="484.26,-226.84 484.88,-216.26 477.8,-224.14 484.26,-226.84"/>
</g>
<!-- fail_comp1&#45;&gt;pressure -->
<g id="edge21" class="edge">
<title>fail_comp1&#45;&gt;pressure</title>
<path fill="none" stroke="black" stroke-width="1.2" d="M344.89,-439.87C307.12,-420.47 247.9,-387.4 203,-350 182.79,-333.17 163.22,-310.66 149.35,-293.33"/>
<polygon fill="black" stroke="black" stroke-width="1.2" points="151.96,-290.98 143.03,-285.28 146.46,-295.31 151.96,-290.98"/>
</g>
<!-- fail_comp1&#45;&gt;mnt_comp1 -->
<g id="edge33" class="edge">
<title>fail_comp1&#45;&gt;mnt_comp1</title>
<path fill="none" stroke="black" stroke-width="1.2" d="M429.19,-450.06C463.38,-444.06 510.6,-435.76 547.64,-429.25"/>
<polygon fill="black" stroke="black" stroke-width="1.2" points="548.55,-432.65 557.8,-427.47 547.34,-425.75 548.55,-432.65"/>
</g>
<!-- fail_comp1&#45;&gt;mnt_comp2 -->
<g id="edge34" class="edge">
<title>fail_comp1&#45;&gt;mnt_comp2</title>
<path fill="none" stroke="black" stroke-width="1.2" d="M429.41,-475.26C440.91,-479.19 453.31,-483.07 465,-486 635.04,-528.58 679.21,-548 854.5,-548 854.5,-548 854.5,-548 977.5,-548 1045.09,-548 1121.7,-534.63 1172.85,-523.75"/>
<polygon fill="black" stroke="black" stroke-width="1.2" points="1173.69,-527.14 1182.72,-521.61 1172.21,-520.3 1173.69,-527.14"/>
</g>
<!-- fail_comp1&#45;&gt;mnt_comp4 -->
<g id="edge38" class="edge">
<title>fail_comp1&#45;&gt;mnt_comp4</title>
<path fill="none" stroke="black" stroke-width="1.2" d="M429.34,-463.96C557.21,-478.17 925.76,-500.99 1147,-328 1185.88,-297.6 1210.12,-243.82 1222.05,-210.99"/>
<polygon fill="black" stroke="black" stroke-width="1.2" points="1225.5,-211.72 1225.49,-201.13 1218.89,-209.41 1225.5,-211.72"/>
</g>
<!-- fail_comp2&#45;&gt;mnt_comp2 -->
<g id="edge35" class="edge">
<title>fail_comp2&#45;&gt;mnt_comp2</title>
<path fill="none" stroke="black" stroke-width="1.2" d="M1113.22,-319.18C1136,-356.08 1187.75,-439.92 1214.42,-483.14"/>
<polygon fill="black" stroke="black" stroke-width="1.2" points="1211.48,-485.04 1219.71,-491.71 1217.44,-481.36 1211.48,-485.04"/>
</g>
<!-- fail_comp2&#45;&gt;mnt_comp4 -->
<g id="edge39" class="edge">
<title>fail_comp2&#45;&gt;mnt_comp4</title>
<path fill="none" stroke="black" stroke-width="1.2" d="M1121.87,-282.82C1143.81,-262.75 1179.26,-230.33 1203.77,-207.91"/>
<polygon fill="black" stroke="black" stroke-width="1.2" points="1206.3,-210.34 1211.32,-201.01 1201.57,-205.17 1206.3,-210.34"/>
</g>
</g>
</svg>
