<?xml version="1.0" encoding="UTF-8" standalone="no"?>
<!DOCTYPE svg PUBLIC "-//W3C//DTD SVG 1.1//EN"
 "http://www.w3.org/Graphics/SVG/1.1/DTD/svg11.dtd">
<!-- Generated by graphviz version 2.50.0 (0)
 -->
<!-- Title: G Pages: 1 -->
<svg width="454pt" height="124pt"
 viewBox="0.00 0.00 454.00 124.00" xmlns="http://www.w3.org/2000/svg" xmlns:xlink="http://www.w3.org/1999/xlink">
<g id="graph0" class="graph" transform="scale(1 1) rotate(0) translate(4 120)">
<title>G</title>
<polygon fill="white" stroke="transparent" points="-4,4 -4,-120 450,-120 450,4 -4,4"/>
<text text-anchor="middle" x="223" y="-99.2" font-family="Times,serif" font-size="16.00">model=model3/nbcb_w_telemetry.json [machine 19]</text>
<!-- volt -->
<g id="node1" class="node">
<title>volt</title>
<path fill="white" stroke="black" d="M248,-36C248,-36 218,-36 218,-36 212,-36 206,-30 206,-24 206,-24 206,-12 206,-12 206,-6 212,0 218,0 218,0 248,0 248,0 254,0 260,-6 260,-12 260,-12 260,-24 260,-24 260,-30 254,-36 248,-36"/>
<text text-anchor="middle" x="233" y="-14.3" font-family="Helvetica,sans-Serif" font-size="14.00">volt</text>
</g>
<!-- rotate -->
<g id="node2" class="node">
<title>rotate</title>
<path fill="white" stroke="black" d="M353,-63C353,-63 320,-63 320,-63 314,-63 308,-57 308,-51 308,-51 308,-39 308,-39 308,-33 314,-27 320,-27 320,-27 353,-27 353,-27 359,-27 365,-33 365,-39 365,-39 365,-51 365,-51 365,-57 359,-63 353,-63"/>
<text text-anchor="middle" x="336.5" y="-41.3" font-family="Helvetica,sans-Serif" font-size="14.00">rotate</text>
</g>
<!-- volt&#45;&gt;rotate -->
<g id="edge1" class="edge">
<title>volt&#45;&gt;rotate</title>
<path fill="none" stroke="black" stroke-width="1.2" d="M270.14,-27.61C279.11,-30 288.74,-32.56 297.78,-34.97"/>
<polygon fill="black" stroke="black" stroke-width="1.2" points="270.7,-24.14 260.14,-24.95 268.9,-30.91 270.7,-24.14"/>
<polygon fill="black" stroke="black" stroke-width="1.2" points="297.11,-38.41 307.67,-37.6 298.91,-31.64 297.11,-38.41"/>
</g>
<!-- pressure -->
<g id="node3" class="node">
<title>pressure</title>
<path fill="white" stroke="black" d="M146,-36C146,-36 93,-36 93,-36 87,-36 81,-30 81,-24 81,-24 81,-12 81,-12 81,-6 87,0 93,0 93,0 146,0 146,0 152,0 158,-6 158,-12 158,-12 158,-24 158,-24 158,-30 152,-36 146,-36"/>
<text text-anchor="middle" x="119.5" y="-14.3" font-family="Helvetica,sans-Serif" font-size="14.00">pressure</text>
</g>
<!-- pressure&#45;&gt;volt -->
<g id="edge2" class="edge">
<title>pressure&#45;&gt;volt</title>
<path fill="none" stroke="black" stroke-width="1.2" d="M158.25,-18C170.37,-18 183.76,-18 195.76,-18"/>
<polygon fill="black" stroke="black" stroke-width="1.2" points="195.89,-21.5 205.89,-18 195.89,-14.5 195.89,-21.5"/>
</g>
<!-- vibration -->
<g id="node4" class="node">
<title>vibration</title>
<path fill="white" stroke="black" d="M260,-90C260,-90 206,-90 206,-90 200,-90 194,-84 194,-78 194,-78 194,-66 194,-66 194,-60 200,-54 206,-54 206,-54 260,-54 260,-54 266,-54 272,-60 272,-66 272,-66 272,-78 272,-78 272,-84 266,-90 260,-90"/>
<text text-anchor="middle" x="233" y="-68.3" font-family="Helvetica,sans-Serif" font-size="14.00">vibration</text>
</g>
<!-- vibration&#45;&gt;rotate -->
<g id="edge3" class="edge">
<title>vibration&#45;&gt;rotate</title>
<path fill="none" stroke="black" stroke-width="1.2" d="M272.08,-61.87C280.66,-59.59 289.74,-57.17 298.28,-54.9"/>
<polygon fill="black" stroke="black" stroke-width="1.2" points="299.22,-58.27 307.98,-52.32 297.42,-51.51 299.22,-58.27"/>
</g>
</g>
</svg>
