<?xml version="1.0" encoding="UTF-8" standalone="no"?>
<!DOCTYPE svg PUBLIC "-//W3C//DTD SVG 1.1//EN"
 "http://www.w3.org/Graphics/SVG/1.1/DTD/svg11.dtd">
<!-- Generated by graphviz version 2.50.0 (0)
 -->
<!-- Title: G Pages: 1 -->
<svg width="454pt" height="147pt"
 viewBox="0.00 0.00 454.00 147.00" xmlns="http://www.w3.org/2000/svg" xmlns:xlink="http://www.w3.org/1999/xlink">
<g id="graph0" class="graph" transform="scale(1 1) rotate(0) translate(4 143)">
<title>G</title>
<polygon fill="white" stroke="transparent" points="-4,4 -4,-143 450,-143 450,4 -4,4"/>
<text text-anchor="middle" x="223" y="-122.2" font-family="Times,serif" font-size="16.00">model=model4/nbcb_w_telemetry.json [machine 88]</text>
<!-- volt -->
<g id="node1" class="node">
<title>volt</title>
<path fill="white" stroke="black" d="M134.5,-59C134.5,-59 104.5,-59 104.5,-59 98.5,-59 92.5,-53 92.5,-47 92.5,-47 92.5,-35 92.5,-35 92.5,-29 98.5,-23 104.5,-23 104.5,-23 134.5,-23 134.5,-23 140.5,-23 146.5,-29 146.5,-35 146.5,-35 146.5,-47 146.5,-47 146.5,-53 140.5,-59 134.5,-59"/>
<text text-anchor="middle" x="119.5" y="-37.3" font-family="Helvetica,sans-Serif" font-size="14.00">volt</text>
</g>
<!-- rotate -->
<g id="node2" class="node">
<title>rotate</title>
<path fill="white" stroke="black" d="M353,-59C353,-59 320,-59 320,-59 314,-59 308,-53 308,-47 308,-47 308,-35 308,-35 308,-29 314,-23 320,-23 320,-23 353,-23 353,-23 359,-23 365,-29 365,-35 365,-35 365,-47 365,-47 365,-53 359,-59 353,-59"/>
<text text-anchor="middle" x="336.5" y="-37.3" font-family="Helvetica,sans-Serif" font-size="14.00">rotate</text>
</g>
<!-- volt&#45;&gt;rotate -->
<g id="edge1" class="edge">
<title>volt&#45;&gt;rotate</title>
<path fill="none" stroke="black" stroke-width="1.2" d="M146.68,-42.77C160.71,-43.63 178.29,-44.57 194,-45 228.65,-45.94 237.35,-46.09 272,-45 280.32,-44.74 289.24,-44.28 297.7,-43.77"/>
<polygon fill="black" stroke="black" stroke-width="1.2" points="297.94,-47.26 307.7,-43.13 297.5,-40.28 297.94,-47.26"/>
</g>
<!-- vibration -->
<g id="node4" class="node">
<title>vibration</title>
<path fill="white" stroke="black" d="M260,-36C260,-36 206,-36 206,-36 200,-36 194,-30 194,-24 194,-24 194,-12 194,-12 194,-6 200,0 206,0 206,0 260,0 260,0 266,0 272,-6 272,-12 272,-12 272,-24 272,-24 272,-30 266,-36 260,-36"/>
<text text-anchor="middle" x="233" y="-14.3" font-family="Helvetica,sans-Serif" font-size="14.00">vibration</text>
</g>
<!-- volt&#45;&gt;vibration -->
<g id="edge2" class="edge">
<title>volt&#45;&gt;vibration</title>
<path fill="none" stroke="black" stroke-width="1.2" d="M146.64,-35.61C157.71,-33.32 170.98,-30.59 183.72,-27.96"/>
<polygon fill="black" stroke="black" stroke-width="1.2" points="184.68,-31.33 193.77,-25.89 183.27,-24.48 184.68,-31.33"/>
</g>
<!-- pressure -->
<g id="node3" class="node">
<title>pressure</title>
<path fill="white" stroke="black" d="M146,-113C146,-113 93,-113 93,-113 87,-113 81,-107 81,-101 81,-101 81,-89 81,-89 81,-83 87,-77 93,-77 93,-77 146,-77 146,-77 152,-77 158,-83 158,-89 158,-89 158,-101 158,-101 158,-107 152,-113 146,-113"/>
<text text-anchor="middle" x="119.5" y="-91.3" font-family="Helvetica,sans-Serif" font-size="14.00">pressure</text>
</g>
<!-- vibration&#45;&gt;rotate -->
<g id="edge3" class="edge">
<title>vibration&#45;&gt;rotate</title>
<path fill="none" stroke="black" stroke-width="1.2" d="M272.08,-26.63C280.56,-28.55 289.54,-30.59 298,-32.5"/>
<polygon fill="black" stroke="black" stroke-width="1.2" points="297.45,-35.97 307.98,-34.76 299,-29.14 297.45,-35.97"/>
</g>
</g>
</svg>
