<?xml version="1.0" encoding="UTF-8" standalone="no"?>
<!DOCTYPE svg PUBLIC "-//W3C//DTD SVG 1.1//EN"
 "http://www.w3.org/Graphics/SVG/1.1/DTD/svg11.dtd">
<!-- Generated by graphviz version 2.50.0 (0)
 -->
<!-- Title: G Pages: 1 -->
<svg width="1544pt" height="793pt"
 viewBox="0.00 0.00 1544.00 792.85" xmlns="http://www.w3.org/2000/svg" xmlns:xlink="http://www.w3.org/1999/xlink">
<g id="graph0" class="graph" transform="scale(1 1) rotate(0) translate(4 788.85)">
<title>G</title>
<polygon fill="white" stroke="transparent" points="-4,4 -4,-788.85 1540,-788.85 1540,4 -4,4"/>
<text text-anchor="middle" x="768" y="-768.05" font-family="Times,serif" font-size="16.00">model=model1/nbcb_w_mixed.json [machine 35]</text>
<!-- volt -->
<g id="node1" class="node">
<title>volt</title>
<path fill="white" stroke="black" d="M304,-260C304,-260 274,-260 274,-260 268,-260 262,-254 262,-248 262,-248 262,-236 262,-236 262,-230 268,-224 274,-224 274,-224 304,-224 304,-224 310,-224 316,-230 316,-236 316,-236 316,-248 316,-248 316,-254 310,-260 304,-260"/>
<text text-anchor="middle" x="289" y="-238.3" font-family="Helvetica,sans-Serif" font-size="14.00">volt</text>
</g>
<!-- err_error2 -->
<g id="node6" class="node">
<title>err_error2</title>
<path fill="white" stroke="black" d="M1252.5,-224C1252.5,-224 1191.5,-224 1191.5,-224 1185.5,-224 1179.5,-218 1179.5,-212 1179.5,-212 1179.5,-200 1179.5,-200 1179.5,-194 1185.5,-188 1191.5,-188 1191.5,-188 1252.5,-188 1252.5,-188 1258.5,-188 1264.5,-194 1264.5,-200 1264.5,-200 1264.5,-212 1264.5,-212 1264.5,-218 1258.5,-224 1252.5,-224"/>
<text text-anchor="middle" x="1222" y="-202.3" font-family="Helvetica,sans-Serif" font-size="14.00">err_error2</text>
</g>
<!-- volt&#45;&gt;err_error2 -->
<g id="edge2" class="edge">
<title>volt&#45;&gt;err_error2</title>
<path fill="none" stroke="black" stroke-width="1.2" d="M305.54,-223.9C350.23,-173.97 485.1,-38 628.5,-38 628.5,-38 628.5,-38 979,-38 1077.19,-38 1164.2,-132.47 1201.58,-179.73"/>
<polygon fill="black" stroke="black" stroke-width="1.2" points="1198.88,-181.95 1207.77,-187.7 1204.4,-177.66 1198.88,-181.95"/>
</g>
<!-- err_error5 -->
<g id="node9" class="node">
<title>err_error5</title>
<path fill="white" stroke="black" d="M425,-354C425,-354 364,-354 364,-354 358,-354 352,-348 352,-342 352,-342 352,-330 352,-330 352,-324 358,-318 364,-318 364,-318 425,-318 425,-318 431,-318 437,-324 437,-330 437,-330 437,-342 437,-342 437,-348 431,-354 425,-354"/>
<text text-anchor="middle" x="394.5" y="-332.3" font-family="Helvetica,sans-Serif" font-size="14.00">err_error5</text>
</g>
<!-- volt&#45;&gt;err_error5 -->
<g id="edge4" class="edge">
<title>volt&#45;&gt;err_error5</title>
<path fill="none" stroke="black" stroke-width="1.2" d="M309.96,-260.12C325.85,-274.56 348.27,-294.93 365.89,-310.93"/>
<polygon fill="black" stroke="black" stroke-width="1.2" points="363.85,-313.8 373.61,-317.93 368.56,-308.62 363.85,-313.8"/>
</g>
<!-- mnt_comp2 -->
<g id="node11" class="node">
<title>mnt_comp2</title>
<path fill="white" stroke="black" d="M1015,-178C1015,-178 941,-178 941,-178 935,-178 929,-172 929,-166 929,-166 929,-154 929,-154 929,-148 935,-142 941,-142 941,-142 1015,-142 1015,-142 1021,-142 1027,-148 1027,-154 1027,-154 1027,-166 1027,-166 1027,-172 1021,-178 1015,-178"/>
<text text-anchor="middle" x="978" y="-156.3" font-family="Helvetica,sans-Serif" font-size="14.00">mnt_comp2</text>
</g>
<!-- volt&#45;&gt;mnt_comp2 -->
<g id="edge6" class="edge">
<title>volt&#45;&gt;mnt_comp2</title>
<path fill="none" stroke="black" stroke-width="1.2" d="M316.38,-230.74C367.46,-209.62 483.92,-164.76 587,-149 703.55,-131.18 841.91,-142.68 918.54,-151.86"/>
<polygon fill="black" stroke="black" stroke-width="1.2" points="918.58,-155.4 928.93,-153.14 919.43,-148.45 918.58,-155.4"/>
</g>
<!-- rotate -->
<g id="node2" class="node">
<title>rotate</title>
<path fill="white" stroke="black" d="M753,-374C753,-374 720,-374 720,-374 714,-374 708,-368 708,-362 708,-362 708,-350 708,-350 708,-344 714,-338 720,-338 720,-338 753,-338 753,-338 759,-338 765,-344 765,-350 765,-350 765,-362 765,-362 765,-368 759,-374 753,-374"/>
<text text-anchor="middle" x="736.5" y="-352.3" font-family="Helvetica,sans-Serif" font-size="14.00">rotate</text>
</g>
<!-- pressure -->
<g id="node3" class="node">
<title>pressure</title>
<path fill="white" stroke="black" d="M1128,-357C1128,-357 1075,-357 1075,-357 1069,-357 1063,-351 1063,-345 1063,-345 1063,-333 1063,-333 1063,-327 1069,-321 1075,-321 1075,-321 1128,-321 1128,-321 1134,-321 1140,-327 1140,-333 1140,-333 1140,-345 1140,-345 1140,-351 1134,-357 1128,-357"/>
<text text-anchor="middle" x="1101.5" y="-335.3" font-family="Helvetica,sans-Serif" font-size="14.00">pressure</text>
</g>
<!-- rotate&#45;&gt;pressure -->
<g id="edge8" class="edge">
<title>rotate&#45;&gt;pressure</title>
<path fill="none" stroke="black" stroke-width="1.2" d="M765.08,-354.71C826.55,-351.83 975.43,-344.86 1052.49,-341.25"/>
<polygon fill="black" stroke="black" stroke-width="1.2" points="1053.05,-344.73 1062.87,-340.76 1052.72,-337.73 1053.05,-344.73"/>
</g>
<!-- rotate&#45;&gt;err_error2 -->
<g id="edge9" class="edge">
<title>rotate&#45;&gt;err_error2</title>
<path fill="none" stroke="black" stroke-width="1.2" d="M754.48,-329.58C765.79,-314.16 782.04,-295.69 801,-285 809.05,-280.46 1059.07,-235.12 1169.47,-215.25"/>
<polygon fill="black" stroke="black" stroke-width="1.2" points="751.61,-327.57 748.71,-337.76 757.33,-331.6 751.61,-327.57"/>
<polygon fill="black" stroke="black" stroke-width="1.2" points="1170.16,-218.68 1179.39,-213.46 1168.92,-211.79 1170.16,-218.68"/>
</g>
<!-- fail_comp2 -->
<g id="node15" class="node">
<title>fail_comp2</title>
<path fill="white" stroke="black" d="M881,-330C881,-330 813,-330 813,-330 807,-330 801,-324 801,-318 801,-318 801,-306 801,-306 801,-300 807,-294 813,-294 813,-294 881,-294 881,-294 887,-294 893,-300 893,-306 893,-306 893,-318 893,-318 893,-324 887,-330 881,-330"/>
<text text-anchor="middle" x="847" y="-308.3" font-family="Helvetica,sans-Serif" font-size="14.00">fail_comp2</text>
</g>
<!-- rotate&#45;&gt;fail_comp2 -->
<g id="edge13" class="edge">
<title>rotate&#45;&gt;fail_comp2</title>
<path fill="none" stroke="black" stroke-width="1.2" d="M774.61,-340.95C780.29,-338.65 786.26,-336.23 792.21,-333.81"/>
<polygon fill="black" stroke="black" stroke-width="1.2" points="773.11,-337.78 765.16,-344.78 775.74,-344.27 773.11,-337.78"/>
<polygon fill="black" stroke="black" stroke-width="1.2" points="793.57,-337.04 801.53,-330.04 790.94,-330.55 793.57,-337.04"/>
</g>
<!-- fail_comp3 -->
<g id="node16" class="node">
<title>fail_comp3</title>
<path fill="white" stroke="black" d="M1256,-452C1256,-452 1188,-452 1188,-452 1182,-452 1176,-446 1176,-440 1176,-440 1176,-428 1176,-428 1176,-422 1182,-416 1188,-416 1188,-416 1256,-416 1256,-416 1262,-416 1268,-422 1268,-428 1268,-428 1268,-440 1268,-440 1268,-446 1262,-452 1256,-452"/>
<text text-anchor="middle" x="1222" y="-430.3" font-family="Helvetica,sans-Serif" font-size="14.00">fail_comp3</text>
</g>
<!-- rotate&#45;&gt;fail_comp3 -->
<g id="edge14" class="edge">
<title>rotate&#45;&gt;fail_comp3</title>
<path fill="none" stroke="black" stroke-width="1.2" d="M775.64,-361.89C847.15,-372.97 1006.22,-397.8 1140,-420 1148.3,-421.38 1157.07,-422.86 1165.65,-424.33"/>
<polygon fill="black" stroke="black" stroke-width="1.2" points="775.75,-358.37 765.34,-360.29 774.68,-365.28 775.75,-358.37"/>
<polygon fill="black" stroke="black" stroke-width="1.2" points="1165.16,-427.8 1175.61,-426.04 1166.35,-420.9 1165.16,-427.8"/>
</g>
<!-- fail_comp4 -->
<g id="node17" class="node">
<title>fail_comp4</title>
<path fill="white" stroke="black" d="M881,-566C881,-566 813,-566 813,-566 807,-566 801,-560 801,-554 801,-554 801,-542 801,-542 801,-536 807,-530 813,-530 813,-530 881,-530 881,-530 887,-530 893,-536 893,-542 893,-542 893,-554 893,-554 893,-560 887,-566 881,-566"/>
<text text-anchor="middle" x="847" y="-544.3" font-family="Helvetica,sans-Serif" font-size="14.00">fail_comp4</text>
</g>
<!-- rotate&#45;&gt;fail_comp4 -->
<g id="edge15" class="edge">
<title>rotate&#45;&gt;fail_comp4</title>
<path fill="none" stroke="black" stroke-width="1.2" d="M747.71,-374.06C766.85,-407.94 808.24,-481.18 830.72,-520.96"/>
<polygon fill="black" stroke="black" stroke-width="1.2" points="827.77,-522.86 835.74,-529.85 833.87,-519.42 827.77,-522.86"/>
</g>
<!-- err_error1 -->
<g id="node5" class="node">
<title>err_error1</title>
<path fill="white" stroke="black" d="M1252.5,-688C1252.5,-688 1191.5,-688 1191.5,-688 1185.5,-688 1179.5,-682 1179.5,-676 1179.5,-676 1179.5,-664 1179.5,-664 1179.5,-658 1185.5,-652 1191.5,-652 1191.5,-652 1252.5,-652 1252.5,-652 1258.5,-652 1264.5,-658 1264.5,-664 1264.5,-664 1264.5,-676 1264.5,-676 1264.5,-682 1258.5,-688 1252.5,-688"/>
<text text-anchor="middle" x="1222" y="-666.3" font-family="Helvetica,sans-Serif" font-size="14.00">err_error1</text>
</g>
<!-- pressure&#45;&gt;err_error1 -->
<g id="edge16" class="edge">
<title>pressure&#45;&gt;err_error1</title>
<path fill="none" stroke="black" stroke-width="1.2" d="M1109.04,-357.27C1128.71,-412.2 1187.4,-576.14 1211,-642.08"/>
<polygon fill="black" stroke="black" stroke-width="1.2" points="1207.81,-643.55 1214.48,-651.79 1214.4,-641.19 1207.81,-643.55"/>
</g>
<!-- pressure&#45;&gt;err_error2 -->
<g id="edge17" class="edge">
<title>pressure&#45;&gt;err_error2</title>
<path fill="none" stroke="black" stroke-width="1.2" d="M1118.73,-320.79C1139.18,-297.83 1174.46,-258.23 1197.77,-232.07"/>
<polygon fill="black" stroke="black" stroke-width="1.2" points="1200.55,-234.22 1204.59,-224.42 1195.32,-229.56 1200.55,-234.22"/>
</g>
<!-- pressure&#45;&gt;fail_comp3 -->
<g id="edge20" class="edge">
<title>pressure&#45;&gt;fail_comp3</title>
<path fill="none" stroke="black" stroke-width="1.2" d="M1133.14,-363.56C1150.71,-377.65 1172.69,-395.27 1190.28,-409.37"/>
<polygon fill="black" stroke="black" stroke-width="1.2" points="1135.06,-360.62 1125.07,-357.09 1130.68,-366.08 1135.06,-360.62"/>
<polygon fill="black" stroke="black" stroke-width="1.2" points="1188.52,-412.45 1198.52,-415.97 1192.9,-406.99 1188.52,-412.45"/>
</g>
<!-- vibration -->
<g id="node4" class="node">
<title>vibration</title>
<path fill="white" stroke="black" d="M539,-293C539,-293 485,-293 485,-293 479,-293 473,-287 473,-281 473,-281 473,-269 473,-269 473,-263 479,-257 485,-257 485,-257 539,-257 539,-257 545,-257 551,-263 551,-269 551,-269 551,-281 551,-281 551,-287 545,-293 539,-293"/>
<text text-anchor="middle" x="512" y="-271.3" font-family="Helvetica,sans-Serif" font-size="14.00">vibration</text>
</g>
<!-- vibration&#45;&gt;volt -->
<g id="edge1" class="edge">
<title>vibration&#45;&gt;volt</title>
<path fill="none" stroke="black" stroke-width="1.2" d="M472.99,-269.32C431.82,-263.18 366.63,-253.44 326.19,-247.4"/>
<polygon fill="black" stroke="black" stroke-width="1.2" points="326.63,-243.93 316.22,-245.92 325.59,-250.85 326.63,-243.93"/>
</g>
<!-- vibration&#45;&gt;err_error2 -->
<g id="edge21" class="edge">
<title>vibration&#45;&gt;err_error2</title>
<path fill="none" stroke="black" stroke-width="1.2" d="M561.28,-269.99C656.97,-260.09 877.49,-237.49 1063,-220 1098.47,-216.66 1138.44,-213.12 1169.31,-210.43"/>
<polygon fill="black" stroke="black" stroke-width="1.2" points="560.91,-266.51 551.33,-271.02 561.63,-273.47 560.91,-266.51"/>
<polygon fill="black" stroke="black" stroke-width="1.2" points="1169.75,-213.91 1179.41,-209.56 1169.14,-206.93 1169.75,-213.91"/>
</g>
<!-- err_error3 -->
<g id="node7" class="node">
<title>err_error3</title>
<path fill="white" stroke="black" d="M660,-194C660,-194 599,-194 599,-194 593,-194 587,-188 587,-182 587,-182 587,-170 587,-170 587,-164 593,-158 599,-158 599,-158 660,-158 660,-158 666,-158 672,-164 672,-170 672,-170 672,-182 672,-182 672,-188 666,-194 660,-194"/>
<text text-anchor="middle" x="629.5" y="-172.3" font-family="Helvetica,sans-Serif" font-size="14.00">err_error3</text>
</g>
<!-- vibration&#45;&gt;err_error3 -->
<g id="edge22" class="edge">
<title>vibration&#45;&gt;err_error3</title>
<path fill="none" stroke="black" stroke-width="1.2" d="M534.18,-256.84C552.58,-241.07 579.39,-218.09 599.73,-200.66"/>
<polygon fill="black" stroke="black" stroke-width="1.2" points="602.14,-203.21 607.45,-194.04 597.58,-197.89 602.14,-203.21"/>
</g>
<!-- vibration&#45;&gt;mnt_comp2 -->
<g id="edge24" class="edge">
<title>vibration&#45;&gt;mnt_comp2</title>
<path fill="none" stroke="black" stroke-width="1.2" d="M551.37,-265.49C632.63,-245.35 822.51,-198.29 918.8,-174.42"/>
<polygon fill="black" stroke="black" stroke-width="1.2" points="919.8,-177.78 928.66,-171.98 918.11,-170.99 919.8,-177.78"/>
</g>
<!-- vibration&#45;&gt;fail_comp3 -->
<g id="edge26" class="edge">
<title>vibration&#45;&gt;fail_comp3</title>
<path fill="none" stroke="black" stroke-width="1.2" d="M525.72,-293.24C556.51,-335 639.59,-434 735.5,-434 735.5,-434 735.5,-434 979,-434 1043.13,-434 1116.82,-434 1165.87,-434"/>
<polygon fill="black" stroke="black" stroke-width="1.2" points="1165.95,-437.5 1175.95,-434 1165.95,-430.5 1165.95,-437.5"/>
</g>
<!-- vibration&#45;&gt;fail_comp4 -->
<g id="edge27" class="edge">
<title>vibration&#45;&gt;fail_comp4</title>
<path fill="none" stroke="black" stroke-width="1.2" d="M515.94,-293.05C522.51,-327.73 541.51,-404.11 587,-448 643.61,-502.62 733.3,-528.24 790.89,-539.64"/>
<polygon fill="black" stroke="black" stroke-width="1.2" points="790.42,-543.11 800.9,-541.54 791.73,-536.23 790.42,-543.11"/>
</g>
<!-- err_error3&#45;&gt;volt -->
<g id="edge3" class="edge">
<title>err_error3&#45;&gt;volt</title>
<path fill="none" stroke="black" stroke-width="1.2" d="M586.76,-184.14C519.79,-197.2 389.47,-222.61 326.2,-234.94"/>
<polygon fill="black" stroke="black" stroke-width="1.2" points="325.43,-231.53 316.28,-236.88 326.76,-238.4 325.43,-231.53"/>
</g>
<!-- err_error3&#45;&gt;rotate -->
<g id="edge10" class="edge">
<title>err_error3&#45;&gt;rotate</title>
<path fill="none" stroke="black" stroke-width="1.2" d="M641.15,-194.25C659.75,-226.14 698.24,-292.12 719.87,-329.2"/>
<polygon fill="black" stroke="black" stroke-width="1.2" points="716.92,-331.1 724.98,-337.97 722.97,-327.57 716.92,-331.1"/>
</g>
<!-- err_error3&#45;&gt;err_error2 -->
<g id="edge31" class="edge">
<title>err_error3&#45;&gt;err_error2</title>
<path fill="none" stroke="black" stroke-width="1.2" d="M672.17,-163.66C744.72,-143.9 898.76,-109.67 1027,-133 1079.88,-142.62 1137.08,-165.86 1175.57,-183.55"/>
<polygon fill="black" stroke="black" stroke-width="1.2" points="1174.4,-186.87 1184.94,-187.92 1177.35,-180.52 1174.4,-186.87"/>
</g>
<!-- err_error4 -->
<g id="node8" class="node">
<title>err_error4</title>
<path fill="white" stroke="black" d="M660,-574C660,-574 599,-574 599,-574 593,-574 587,-568 587,-562 587,-562 587,-550 587,-550 587,-544 593,-538 599,-538 599,-538 660,-538 660,-538 666,-538 672,-544 672,-550 672,-550 672,-562 672,-562 672,-568 666,-574 660,-574"/>
<text text-anchor="middle" x="629.5" y="-552.3" font-family="Helvetica,sans-Serif" font-size="14.00">err_error4</text>
</g>
<!-- err_error4&#45;&gt;rotate -->
<g id="edge11" class="edge">
<title>err_error4&#45;&gt;rotate</title>
<path fill="none" stroke="black" stroke-width="1.2" d="M640,-537.9C658.5,-502.66 699.44,-424.68 721.22,-383.2"/>
<polygon fill="black" stroke="black" stroke-width="1.2" points="724.39,-384.69 725.94,-374.2 718.2,-381.43 724.39,-384.69"/>
</g>
<!-- mnt_comp3 -->
<g id="node12" class="node">
<title>mnt_comp3</title>
<path fill="white" stroke="black" d="M1390,-574C1390,-574 1316,-574 1316,-574 1310,-574 1304,-568 1304,-562 1304,-562 1304,-550 1304,-550 1304,-544 1310,-538 1316,-538 1316,-538 1390,-538 1390,-538 1396,-538 1402,-544 1402,-550 1402,-550 1402,-562 1402,-562 1402,-568 1396,-574 1390,-574"/>
<text text-anchor="middle" x="1353" y="-552.3" font-family="Helvetica,sans-Serif" font-size="14.00">mnt_comp3</text>
</g>
<!-- err_error4&#45;&gt;mnt_comp3 -->
<g id="edge32" class="edge">
<title>err_error4&#45;&gt;mnt_comp3</title>
<path fill="none" stroke="black" stroke-width="1.2" d="M664.91,-574.04C706.59,-594.19 779.5,-624 846,-624 846,-624 846,-624 1102.5,-624 1173.84,-624 1252.75,-597.8 1302.34,-577.93"/>
<polygon fill="black" stroke="black" stroke-width="1.2" points="1303.92,-581.06 1311.86,-574.04 1301.28,-574.58 1303.92,-581.06"/>
</g>
<!-- err_error4&#45;&gt;fail_comp4 -->
<g id="edge33" class="edge">
<title>err_error4&#45;&gt;fail_comp4</title>
<path fill="none" stroke="black" stroke-width="1.2" d="M682.39,-554.07C715.15,-552.86 757.43,-551.29 790.81,-550.05"/>
<polygon fill="black" stroke="black" stroke-width="1.2" points="681.91,-550.59 672.05,-554.46 682.17,-557.58 681.91,-550.59"/>
<polygon fill="black" stroke="black" stroke-width="1.2" points="790.99,-553.54 800.86,-549.68 790.73,-546.55 790.99,-553.54"/>
</g>
<!-- err_error5&#45;&gt;rotate -->
<g id="edge12" class="edge">
<title>err_error5&#45;&gt;rotate</title>
<path fill="none" stroke="black" stroke-width="1.2" d="M437.19,-338.45C503.88,-342.38 633.54,-350 697.68,-353.78"/>
<polygon fill="black" stroke="black" stroke-width="1.2" points="697.58,-357.28 707.77,-354.37 697.99,-350.29 697.58,-357.28"/>
</g>
<!-- err_error5&#45;&gt;vibration -->
<g id="edge23" class="edge">
<title>err_error5&#45;&gt;vibration</title>
<path fill="none" stroke="black" stroke-width="1.2" d="M429.84,-317.86C441.72,-311.59 455.19,-304.48 467.69,-297.87"/>
<polygon fill="black" stroke="black" stroke-width="1.2" points="469.38,-300.94 476.59,-293.17 466.11,-294.75 469.38,-300.94"/>
</g>
<!-- err_error5&#45;&gt;err_error1 -->
<g id="edge28" class="edge">
<title>err_error5&#45;&gt;err_error1</title>
<path fill="none" stroke="black" stroke-width="1.2" d="M404.54,-354.32C428.04,-400.04 495.65,-520.01 587,-583 636.54,-617.16 785.83,-662 846,-662 846,-662 846,-662 979,-662 1044.74,-662 1120.46,-664.99 1169.44,-667.31"/>
<polygon fill="black" stroke="black" stroke-width="1.2" points="1169.32,-670.81 1179.48,-667.79 1169.66,-663.81 1169.32,-670.81"/>
</g>
<!-- mnt_comp1 -->
<g id="node10" class="node">
<title>mnt_comp1</title>
<path fill="white" stroke="black" d="M214,-260C214,-260 140,-260 140,-260 134,-260 128,-254 128,-248 128,-248 128,-236 128,-236 128,-230 134,-224 140,-224 140,-224 214,-224 214,-224 220,-224 226,-230 226,-236 226,-236 226,-248 226,-248 226,-254 220,-260 214,-260"/>
<text text-anchor="middle" x="177" y="-238.3" font-family="Helvetica,sans-Serif" font-size="14.00">mnt_comp1</text>
</g>
<!-- mnt_comp1&#45;&gt;volt -->
<g id="edge5" class="edge">
<title>mnt_comp1&#45;&gt;volt</title>
<path fill="none" stroke="black" stroke-width="1.2" d="M226.25,-242C234.76,-242 243.48,-242 251.6,-242"/>
<polygon fill="black" stroke="black" stroke-width="1.2" points="251.85,-245.5 261.85,-242 251.85,-238.5 251.85,-245.5"/>
</g>
<!-- mnt_comp1&#45;&gt;mnt_comp2 -->
<g id="edge34" class="edge">
<title>mnt_comp1&#45;&gt;mnt_comp2</title>
<path fill="none" stroke="black" stroke-width="1.2" d="M189.35,-223.92C217.91,-180.9 297.39,-76 393.5,-76 393.5,-76 393.5,-76 737.5,-76 811.65,-76 891.8,-112.3 938.03,-137.17"/>
<polygon fill="black" stroke="black" stroke-width="1.2" points="936.36,-140.25 946.81,-141.98 939.72,-134.11 936.36,-140.25"/>
</g>
<!-- mnt_comp1&#45;&gt;mnt_comp3 -->
<g id="edge35" class="edge">
<title>mnt_comp1&#45;&gt;mnt_comp3</title>
<path fill="none" stroke="black" stroke-width="1.2" d="M179.08,-260.14C184.8,-338 218.28,-640 393.5,-640 393.5,-640 393.5,-640 513,-640 849.51,-640 975.43,-863.26 1268,-697 1310.54,-672.82 1333.81,-617.63 1344.52,-583.92"/>
<polygon fill="black" stroke="black" stroke-width="1.2" points="1347.91,-584.78 1347.44,-574.2 1341.21,-582.77 1347.91,-584.78"/>
</g>
<!-- mnt_comp2&#45;&gt;pressure -->
<g id="edge18" class="edge">
<title>mnt_comp2&#45;&gt;pressure</title>
<path fill="none" stroke="black" stroke-width="1.2" d="M991.32,-178.15C1012.79,-209.78 1057.15,-275.14 1082.22,-312.07"/>
<polygon fill="black" stroke="black" stroke-width="1.2" points="1079.64,-314.5 1088.15,-320.8 1085.43,-310.56 1079.64,-314.5"/>
</g>
<!-- mnt_comp4 -->
<g id="node13" class="node">
<title>mnt_comp4</title>
<path fill="white" stroke="black" d="M1524,-300C1524,-300 1450,-300 1450,-300 1444,-300 1438,-294 1438,-288 1438,-288 1438,-276 1438,-276 1438,-270 1444,-264 1450,-264 1450,-264 1524,-264 1524,-264 1530,-264 1536,-270 1536,-276 1536,-276 1536,-288 1536,-288 1536,-294 1530,-300 1524,-300"/>
<text text-anchor="middle" x="1487" y="-278.3" font-family="Helvetica,sans-Serif" font-size="14.00">mnt_comp4</text>
</g>
<!-- mnt_comp2&#45;&gt;mnt_comp4 -->
<g id="edge37" class="edge">
<title>mnt_comp2&#45;&gt;mnt_comp4</title>
<path fill="none" stroke="black" stroke-width="1.2" d="M1027.17,-157.73C1085.26,-156.22 1185.37,-157.59 1268,-179 1334.82,-196.31 1406.01,-234.06 1448.21,-258.73"/>
<polygon fill="black" stroke="black" stroke-width="1.2" points="1446.63,-261.86 1457.02,-263.94 1450.19,-255.84 1446.63,-261.86"/>
</g>
<!-- mnt_comp3&#45;&gt;mnt_comp4 -->
<g id="edge39" class="edge">
<title>mnt_comp3&#45;&gt;mnt_comp4</title>
<path fill="none" stroke="black" stroke-width="1.2" d="M1387.39,-537.92C1392.81,-533.89 1397.96,-529.23 1402,-524 1453.1,-457.94 1474.43,-358.57 1482.17,-310.31"/>
<polygon fill="black" stroke="black" stroke-width="1.2" points="1485.66,-310.69 1483.7,-300.28 1478.73,-309.63 1485.66,-310.69"/>
</g>
<!-- fail_comp1 -->
<g id="node14" class="node">
<title>fail_comp1</title>
<path fill="white" stroke="black" d="M80,-306C80,-306 12,-306 12,-306 6,-306 0,-300 0,-294 0,-294 0,-282 0,-282 0,-276 6,-270 12,-270 12,-270 80,-270 80,-270 86,-270 92,-276 92,-282 92,-282 92,-294 92,-294 92,-300 86,-306 80,-306"/>
<text text-anchor="middle" x="46" y="-284.3" font-family="Helvetica,sans-Serif" font-size="14.00">fail_comp1</text>
</g>
<!-- fail_comp1&#45;&gt;vibration -->
<g id="edge25" class="edge">
<title>fail_comp1&#45;&gt;vibration</title>
<path fill="none" stroke="black" stroke-width="1.2" d="M92.34,-286.73C180.08,-284.27 372.38,-278.88 462.54,-276.36"/>
<polygon fill="black" stroke="black" stroke-width="1.2" points="462.86,-279.85 472.76,-276.07 462.66,-272.85 462.86,-279.85"/>
</g>
<!-- fail_comp1&#45;&gt;err_error1 -->
<g id="edge29" class="edge">
<title>fail_comp1&#45;&gt;err_error1</title>
<path fill="none" stroke="black" stroke-width="1.2" d="M46.81,-306.24C47.1,-360.7 54.4,-524.93 128,-631 176.77,-701.28 202.45,-738 288,-738 288,-738 288,-738 848,-738 964.62,-738 1098.47,-705.43 1169.85,-685.37"/>
<polygon fill="black" stroke="black" stroke-width="1.2" points="1170.83,-688.73 1179.5,-682.63 1168.92,-682 1170.83,-688.73"/>
</g>
<!-- fail_comp1&#45;&gt;mnt_comp1 -->
<g id="edge36" class="edge">
<title>fail_comp1&#45;&gt;mnt_comp1</title>
<path fill="none" stroke="black" stroke-width="1.2" d="M92.12,-271.91C100.46,-268.94 109.28,-265.79 117.94,-262.7"/>
<polygon fill="black" stroke="black" stroke-width="1.2" points="119.37,-265.91 127.62,-259.25 117.02,-259.32 119.37,-265.91"/>
</g>
<!-- fail_comp1&#45;&gt;mnt_comp4 -->
<g id="edge42" class="edge">
<title>fail_comp1&#45;&gt;mnt_comp4</title>
<path fill="none" stroke="black" stroke-width="1.2" d="M52.23,-269.98C71.73,-206.93 146.52,0 288,0 288,0 288,0 1223,0 1361.14,0 1447.46,-183.22 1475.75,-254.29"/>
<polygon fill="black" stroke="black" stroke-width="1.2" points="1472.61,-255.88 1479.5,-263.93 1479.13,-253.34 1472.61,-255.88"/>
</g>
<!-- fail_comp1&#45;&gt;fail_comp4 -->
<g id="edge45" class="edge">
<title>fail_comp1&#45;&gt;fail_comp4</title>
<path fill="none" stroke="black" stroke-width="1.2" d="M49.17,-306.03C59.48,-382.73 110.71,-678 288,-678 288,-678 288,-678 513,-678 628.7,-678 752.49,-609.06 811.22,-571.58"/>
<polygon fill="black" stroke="black" stroke-width="1.2" points="813.25,-574.44 819.74,-566.08 809.45,-568.57 813.25,-574.44"/>
</g>
<!-- fail_comp2&#45;&gt;pressure -->
<g id="edge19" class="edge">
<title>fail_comp2&#45;&gt;pressure</title>
<path fill="none" stroke="black" stroke-width="1.2" d="M893.14,-316.83C938.11,-321.64 1006.89,-328.99 1052.75,-333.89"/>
<polygon fill="black" stroke="black" stroke-width="1.2" points="1052.43,-337.38 1062.75,-334.96 1053.18,-330.42 1052.43,-337.38"/>
</g>
<!-- fail_comp2&#45;&gt;mnt_comp2 -->
<g id="edge38" class="edge">
<title>fail_comp2&#45;&gt;mnt_comp2</title>
<path fill="none" stroke="black" stroke-width="1.2" d="M863.3,-293.97C886.1,-267.11 929.06,-216.49 955.15,-185.74"/>
<polygon fill="black" stroke="black" stroke-width="1.2" points="957.91,-187.9 961.72,-178.01 952.58,-183.37 957.91,-187.9"/>
</g>
<!-- fail_comp2&#45;&gt;mnt_comp4 -->
<g id="edge43" class="edge">
<title>fail_comp2&#45;&gt;mnt_comp4</title>
<path fill="none" stroke="black" stroke-width="1.2" d="M893.42,-303.32C943.82,-294.46 1027.66,-282 1100.5,-282 1100.5,-282 1100.5,-282 1223,-282 1293.2,-282 1373.94,-282 1427.24,-282"/>
<polygon fill="black" stroke="black" stroke-width="1.2" points="1427.53,-285.5 1437.53,-282 1427.53,-278.5 1427.53,-285.5"/>
</g>
<!-- fail_comp3&#45;&gt;volt -->
<g id="edge7" class="edge">
<title>fail_comp3&#45;&gt;volt</title>
<path fill="none" stroke="black" stroke-width="1.2" d="M1175.84,-445.4C1127.48,-456.59 1048.32,-472 979,-472 846,-472 846,-472 846,-472 621.16,-472 529,-501.65 352,-363 322.18,-339.64 305.38,-298.01 297,-270.2"/>
<polygon fill="black" stroke="black" stroke-width="1.2" points="300.28,-268.95 294.19,-260.29 293.55,-270.86 300.28,-268.95"/>
</g>
<!-- fail_comp3&#45;&gt;mnt_comp3 -->
<g id="edge40" class="edge">
<title>fail_comp3&#45;&gt;mnt_comp3</title>
<path fill="none" stroke="black" stroke-width="1.2" d="M1242.03,-452C1264.14,-472.91 1300.73,-507.52 1325.58,-531.02"/>
<polygon fill="black" stroke="black" stroke-width="1.2" points="1323.22,-533.6 1332.89,-537.92 1328.03,-528.51 1323.22,-533.6"/>
</g>
<!-- fail_comp4&#45;&gt;err_error1 -->
<g id="edge30" class="edge">
<title>fail_comp4&#45;&gt;err_error1</title>
<path fill="none" stroke="black" stroke-width="1.2" d="M893.36,-562.84C963.09,-585.64 1096.18,-629.17 1169.45,-653.14"/>
<polygon fill="black" stroke="black" stroke-width="1.2" points="1168.79,-656.61 1179.38,-656.39 1170.97,-649.95 1168.79,-656.61"/>
</g>
<!-- fail_comp4&#45;&gt;mnt_comp3 -->
<g id="edge41" class="edge">
<title>fail_comp4&#45;&gt;mnt_comp3</title>
<path fill="none" stroke="black" stroke-width="1.2" d="M893.17,-548.72C984.74,-550.17 1192.14,-553.46 1293.73,-555.08"/>
<polygon fill="black" stroke="black" stroke-width="1.2" points="1293.76,-558.58 1303.81,-555.24 1293.87,-551.58 1293.76,-558.58"/>
</g>
<!-- fail_comp4&#45;&gt;mnt_comp4 -->
<g id="edge44" class="edge">
<title>fail_comp4&#45;&gt;mnt_comp4</title>
<path fill="none" stroke="black" stroke-width="1.2" d="M893.31,-537.01C943.6,-525.79 1027.35,-510 1100.5,-510 1100.5,-510 1100.5,-510 1223,-510 1344.32,-510 1437.1,-369.78 1471.49,-309.27"/>
<polygon fill="black" stroke="black" stroke-width="1.2" points="1474.7,-310.71 1476.51,-300.27 1468.58,-307.3 1474.7,-310.71"/>
</g>
</g>
</svg>
