<?xml version="1.0" encoding="UTF-8" standalone="no"?>
<!DOCTYPE svg PUBLIC "-//W3C//DTD SVG 1.1//EN"
 "http://www.w3.org/Graphics/SVG/1.1/DTD/svg11.dtd">
<!-- Generated by graphviz version 2.50.0 (0)
 -->
<!-- Title: G Pages: 1 -->
<svg width="1295pt" height="709pt"
 viewBox="0.00 0.00 1295.00 709.35" xmlns="http://www.w3.org/2000/svg" xmlns:xlink="http://www.w3.org/1999/xlink">
<g id="graph0" class="graph" transform="scale(1 1) rotate(0) translate(4 705.35)">
<title>G</title>
<polygon fill="white" stroke="transparent" points="-4,4 -4,-705.35 1291,-705.35 1291,4 -4,4"/>
<text text-anchor="middle" x="643.5" y="-684.55" font-family="Times,serif" font-size="16.00">model=model3/nbcb_w_mixed.json [machine 33]</text>
<!-- volt -->
<g id="node1" class="node">
<title>volt</title>
<path fill="white" stroke="black" d="M42,-415.22C42,-415.22 12,-415.22 12,-415.22 6,-415.22 0,-409.22 0,-403.22 0,-403.22 0,-391.22 0,-391.22 0,-385.22 6,-379.22 12,-379.22 12,-379.22 42,-379.22 42,-379.22 48,-379.22 54,-385.22 54,-391.22 54,-391.22 54,-403.22 54,-403.22 54,-409.22 48,-415.22 42,-415.22"/>
<text text-anchor="middle" x="27" y="-393.52" font-family="Helvetica,sans-Serif" font-size="14.00">volt</text>
</g>
<!-- rotate -->
<g id="node2" class="node">
<title>rotate</title>
<path fill="white" stroke="black" d="M135,-316.22C135,-316.22 102,-316.22 102,-316.22 96,-316.22 90,-310.22 90,-304.22 90,-304.22 90,-292.22 90,-292.22 90,-286.22 96,-280.22 102,-280.22 102,-280.22 135,-280.22 135,-280.22 141,-280.22 147,-286.22 147,-292.22 147,-292.22 147,-304.22 147,-304.22 147,-310.22 141,-316.22 135,-316.22"/>
<text text-anchor="middle" x="118.5" y="-294.52" font-family="Helvetica,sans-Serif" font-size="14.00">rotate</text>
</g>
<!-- volt&#45;&gt;rotate -->
<g id="edge1" class="edge">
<title>volt&#45;&gt;rotate</title>
<path fill="none" stroke="black" stroke-width="1.2" d="M51.25,-371.49C64.48,-356.87 80.99,-338.6 94.22,-323.97"/>
<polygon fill="black" stroke="black" stroke-width="1.2" points="48.53,-369.29 44.42,-379.06 53.72,-373.99 48.53,-369.29"/>
<polygon fill="black" stroke="black" stroke-width="1.2" points="97.08,-326.02 101.19,-316.26 91.89,-321.33 97.08,-326.02"/>
</g>
<!-- pressure -->
<g id="node3" class="node">
<title>pressure</title>
<path fill="white" stroke="black" d="M248,-415.22C248,-415.22 195,-415.22 195,-415.22 189,-415.22 183,-409.22 183,-403.22 183,-403.22 183,-391.22 183,-391.22 183,-385.22 189,-379.22 195,-379.22 195,-379.22 248,-379.22 248,-379.22 254,-379.22 260,-385.22 260,-391.22 260,-391.22 260,-403.22 260,-403.22 260,-409.22 254,-415.22 248,-415.22"/>
<text text-anchor="middle" x="221.5" y="-393.52" font-family="Helvetica,sans-Serif" font-size="14.00">pressure</text>
</g>
<!-- volt&#45;&gt;pressure -->
<g id="edge2" class="edge">
<title>volt&#45;&gt;pressure</title>
<path fill="none" stroke="black" stroke-width="1.2" d="M54.36,-397.22C84.76,-397.22 135.35,-397.22 172.73,-397.22"/>
<polygon fill="black" stroke="black" stroke-width="1.2" points="172.89,-400.72 182.89,-397.22 172.89,-393.72 172.89,-400.72"/>
</g>
<!-- err_error1 -->
<g id="node5" class="node">
<title>err_error1</title>
<path fill="white" stroke="black" d="M493.5,-140.22C493.5,-140.22 432.5,-140.22 432.5,-140.22 426.5,-140.22 420.5,-134.22 420.5,-128.22 420.5,-128.22 420.5,-116.22 420.5,-116.22 420.5,-110.22 426.5,-104.22 432.5,-104.22 432.5,-104.22 493.5,-104.22 493.5,-104.22 499.5,-104.22 505.5,-110.22 505.5,-116.22 505.5,-116.22 505.5,-128.22 505.5,-128.22 505.5,-134.22 499.5,-140.22 493.5,-140.22"/>
<text text-anchor="middle" x="463" y="-118.52" font-family="Helvetica,sans-Serif" font-size="14.00">err_error1</text>
</g>
<!-- volt&#45;&gt;err_error1 -->
<g id="edge3" class="edge">
<title>volt&#45;&gt;err_error1</title>
<path fill="none" stroke="black" stroke-width="1.2" d="M30.4,-379.18C35.74,-344.74 51.36,-268.58 90,-218.22 120.39,-178.6 137.57,-175.91 183,-155.22 256.7,-121.64 352.15,-117.74 410.15,-119.14"/>
<polygon fill="black" stroke="black" stroke-width="1.2" points="410.08,-122.64 420.18,-119.44 410.29,-115.64 410.08,-122.64"/>
</g>
<!-- err_error2 -->
<g id="node6" class="node">
<title>err_error2</title>
<path fill="white" stroke="black" d="M493.5,-593.22C493.5,-593.22 432.5,-593.22 432.5,-593.22 426.5,-593.22 420.5,-587.22 420.5,-581.22 420.5,-581.22 420.5,-569.22 420.5,-569.22 420.5,-563.22 426.5,-557.22 432.5,-557.22 432.5,-557.22 493.5,-557.22 493.5,-557.22 499.5,-557.22 505.5,-563.22 505.5,-569.22 505.5,-569.22 505.5,-581.22 505.5,-581.22 505.5,-587.22 499.5,-593.22 493.5,-593.22"/>
<text text-anchor="middle" x="463" y="-571.52" font-family="Helvetica,sans-Serif" font-size="14.00">err_error2</text>
</g>
<!-- volt&#45;&gt;err_error2 -->
<g id="edge4" class="edge">
<title>volt&#45;&gt;err_error2</title>
<path fill="none" stroke="black" stroke-width="1.2" d="M34.28,-425.02C42.69,-457.49 60.12,-511.53 90,-549.22 121.49,-588.93 136.41,-595.26 183,-615.22 264.39,-650.08 297.14,-665.63 381,-637.22 402.71,-629.86 423.17,-614.09 438.1,-600.3"/>
<polygon fill="black" stroke="black" stroke-width="1.2" points="37.67,-424.15 31.87,-415.29 30.88,-425.84 37.67,-424.15"/>
<polygon fill="black" stroke="black" stroke-width="1.2" points="440.58,-602.77 445.38,-593.32 435.74,-597.72 440.58,-602.77"/>
</g>
<!-- err_error3 -->
<g id="node7" class="node">
<title>err_error3</title>
<path fill="white" stroke="black" d="M369,-628.22C369,-628.22 308,-628.22 308,-628.22 302,-628.22 296,-622.22 296,-616.22 296,-616.22 296,-604.22 296,-604.22 296,-598.22 302,-592.22 308,-592.22 308,-592.22 369,-592.22 369,-592.22 375,-592.22 381,-598.22 381,-604.22 381,-604.22 381,-616.22 381,-616.22 381,-622.22 375,-628.22 369,-628.22"/>
<text text-anchor="middle" x="338.5" y="-606.52" font-family="Helvetica,sans-Serif" font-size="14.00">err_error3</text>
</g>
<!-- volt&#45;&gt;err_error3 -->
<g id="edge5" class="edge">
<title>volt&#45;&gt;err_error3</title>
<path fill="none" stroke="black" stroke-width="1.2" d="M36.35,-415.26C55.73,-454.88 107.92,-549.26 183,-591.22 214.05,-608.57 254.02,-613.1 285.52,-613.4"/>
<polygon fill="black" stroke="black" stroke-width="1.2" points="285.87,-616.9 295.85,-613.36 285.84,-609.9 285.87,-616.9"/>
</g>
<!-- err_error5 -->
<g id="node9" class="node">
<title>err_error5</title>
<path fill="white" stroke="black" d="M369,-194.22C369,-194.22 308,-194.22 308,-194.22 302,-194.22 296,-188.22 296,-182.22 296,-182.22 296,-170.22 296,-170.22 296,-164.22 302,-158.22 308,-158.22 308,-158.22 369,-158.22 369,-158.22 375,-158.22 381,-164.22 381,-170.22 381,-170.22 381,-182.22 381,-182.22 381,-188.22 375,-194.22 369,-194.22"/>
<text text-anchor="middle" x="338.5" y="-172.52" font-family="Helvetica,sans-Serif" font-size="14.00">err_error5</text>
</g>
<!-- volt&#45;&gt;err_error5 -->
<g id="edge6" class="edge">
<title>volt&#45;&gt;err_error5</title>
<path fill="none" stroke="black" stroke-width="1.2" d="M33.81,-378.92C42.74,-352.86 61.82,-304.54 90,-271.22 122.89,-232.31 136.11,-224.14 183,-204.22 215.57,-190.38 254.84,-183.37 285.64,-179.83"/>
<polygon fill="black" stroke="black" stroke-width="1.2" points="286.16,-183.29 295.74,-178.76 285.42,-176.33 286.16,-183.29"/>
</g>
<!-- mnt_comp1 -->
<g id="node10" class="node">
<title>mnt_comp1</title>
<path fill="white" stroke="black" d="M1007,-281.22C1007,-281.22 933,-281.22 933,-281.22 927,-281.22 921,-275.22 921,-269.22 921,-269.22 921,-257.22 921,-257.22 921,-251.22 927,-245.22 933,-245.22 933,-245.22 1007,-245.22 1007,-245.22 1013,-245.22 1019,-251.22 1019,-257.22 1019,-257.22 1019,-269.22 1019,-269.22 1019,-275.22 1013,-281.22 1007,-281.22"/>
<text text-anchor="middle" x="970" y="-259.52" font-family="Helvetica,sans-Serif" font-size="14.00">mnt_comp1</text>
</g>
<!-- volt&#45;&gt;mnt_comp1 -->
<g id="edge7" class="edge">
<title>volt&#45;&gt;mnt_comp1</title>
<path fill="none" stroke="black" stroke-width="1.2" d="M30.99,-425.5C36.49,-465.4 51.41,-538.72 90,-587.22 172.89,-691.39 250.69,-685.47 381,-658.22 636.45,-604.78 872.44,-368.51 945.7,-289.24"/>
<polygon fill="black" stroke="black" stroke-width="1.2" points="34.44,-424.9 29.71,-415.42 27.5,-425.78 34.44,-424.9"/>
<polygon fill="black" stroke="black" stroke-width="1.2" points="948.48,-291.38 952.66,-281.64 943.32,-286.65 948.48,-291.38"/>
</g>
<!-- rotate&#45;&gt;pressure -->
<g id="edge8" class="edge">
<title>rotate&#45;&gt;pressure</title>
<path fill="none" stroke="black" stroke-width="1.2" d="M145.26,-323.47C160.38,-338.29 179.42,-356.95 194.57,-371.8"/>
<polygon fill="black" stroke="black" stroke-width="1.2" points="147.62,-320.87 138.02,-316.37 142.72,-325.87 147.62,-320.87"/>
<polygon fill="black" stroke="black" stroke-width="1.2" points="192.5,-374.67 202.09,-379.17 197.4,-369.67 192.5,-374.67"/>
</g>
<!-- rotate&#45;&gt;err_error1 -->
<g id="edge9" class="edge">
<title>rotate&#45;&gt;err_error1</title>
<path fill="none" stroke="black" stroke-width="1.2" d="M128.18,-279.85C138.71,-259.21 158.16,-225.77 183,-204.22 247.7,-148.06 349.2,-130.32 410.3,-124.74"/>
<polygon fill="black" stroke="black" stroke-width="1.2" points="410.81,-128.21 420.48,-123.89 410.23,-121.24 410.81,-128.21"/>
</g>
<!-- rotate&#45;&gt;err_error2 -->
<g id="edge10" class="edge">
<title>rotate&#45;&gt;err_error2</title>
<path fill="none" stroke="black" stroke-width="1.2" d="M130.2,-325.61C152.24,-377.84 208.11,-490.76 296,-539.22 331.22,-558.63 376.03,-567.58 410.22,-571.7"/>
<polygon fill="black" stroke="black" stroke-width="1.2" points="133.41,-324.21 126.36,-316.3 126.94,-326.88 133.41,-324.21"/>
<polygon fill="black" stroke="black" stroke-width="1.2" points="410.14,-575.21 420.46,-572.83 410.91,-568.25 410.14,-575.21"/>
</g>
<!-- rotate&#45;&gt;err_error3 -->
<g id="edge11" class="edge">
<title>rotate&#45;&gt;err_error3</title>
<path fill="none" stroke="black" stroke-width="1.2" d="M123.05,-326.59C131.06,-386.34 152.25,-522.4 183,-556.22 209.25,-585.08 251.78,-598.51 285.58,-604.77"/>
<polygon fill="black" stroke="black" stroke-width="1.2" points="126.48,-325.82 121.71,-316.36 119.54,-326.73 126.48,-325.82"/>
<polygon fill="black" stroke="black" stroke-width="1.2" points="285.32,-608.27 295.76,-606.49 286.48,-601.37 285.32,-608.27"/>
</g>
<!-- rotate&#45;&gt;mnt_comp1 -->
<g id="edge13" class="edge">
<title>rotate&#45;&gt;mnt_comp1</title>
<path fill="none" stroke="black" stroke-width="1.2" d="M147.11,-290.25C188.22,-279.11 268.16,-260.22 337.5,-260.22 337.5,-260.22 337.5,-260.22 464,-260.22 559.56,-260.22 583.44,-262.13 679,-263.22 729.67,-263.79 742.33,-263.99 793,-264.22 833.89,-264.39 844.11,-264.46 885,-264.22 893.19,-264.17 901.83,-264.09 910.33,-264"/>
<polygon fill="black" stroke="black" stroke-width="1.2" points="910.62,-267.5 920.58,-263.89 910.55,-260.5 910.62,-267.5"/>
</g>
<!-- fail_comp2 -->
<g id="node15" class="node">
<title>fail_comp2</title>
<path fill="white" stroke="black" d="M497,-368.22C497,-368.22 429,-368.22 429,-368.22 423,-368.22 417,-362.22 417,-356.22 417,-356.22 417,-344.22 417,-344.22 417,-338.22 423,-332.22 429,-332.22 429,-332.22 497,-332.22 497,-332.22 503,-332.22 509,-338.22 509,-344.22 509,-344.22 509,-356.22 509,-356.22 509,-362.22 503,-368.22 497,-368.22"/>
<text text-anchor="middle" x="463" y="-346.52" font-family="Helvetica,sans-Serif" font-size="14.00">fail_comp2</text>
</g>
<!-- rotate&#45;&gt;fail_comp2 -->
<g id="edge16" class="edge">
<title>rotate&#45;&gt;fail_comp2</title>
<path fill="none" stroke="black" stroke-width="1.2" d="M157.23,-303.94C217.79,-313.14 336.98,-331.23 407.01,-341.87"/>
<polygon fill="black" stroke="black" stroke-width="1.2" points="157.65,-300.47 147.24,-302.43 156.6,-307.39 157.65,-300.47"/>
<polygon fill="black" stroke="black" stroke-width="1.2" points="406.56,-345.34 416.98,-343.38 407.61,-338.42 406.56,-345.34"/>
</g>
<!-- pressure&#45;&gt;err_error2 -->
<g id="edge19" class="edge">
<title>pressure&#45;&gt;err_error2</title>
<path fill="none" stroke="black" stroke-width="1.2" d="M231.28,-415.47C243.14,-438.43 266.24,-477.8 296,-502.22 329.81,-529.96 375.82,-549.09 410.82,-560.79"/>
<polygon fill="black" stroke="black" stroke-width="1.2" points="409.79,-564.13 420.39,-563.89 411.95,-557.48 409.79,-564.13"/>
</g>
<!-- pressure&#45;&gt;err_error3 -->
<g id="edge20" class="edge">
<title>pressure&#45;&gt;err_error3</title>
<path fill="none" stroke="black" stroke-width="1.2" d="M235.94,-424.56C250.32,-453.53 274.04,-500.49 296,-540.22 303.92,-554.54 313.17,-570.24 320.93,-583.13"/>
<polygon fill="black" stroke="black" stroke-width="1.2" points="239.01,-422.87 231.44,-415.46 232.73,-425.97 239.01,-422.87"/>
<polygon fill="black" stroke="black" stroke-width="1.2" points="318.1,-585.22 326.27,-591.97 324.09,-581.6 318.1,-585.22"/>
</g>
<!-- pressure&#45;&gt;err_error5 -->
<g id="edge21" class="edge">
<title>pressure&#45;&gt;err_error5</title>
<path fill="none" stroke="black" stroke-width="1.2" d="M226.14,-378.95C233.97,-343.24 255.08,-262.9 296,-208.22 297.79,-205.82 299.8,-203.52 301.95,-201.32"/>
<polygon fill="black" stroke="black" stroke-width="1.2" points="304.64,-203.6 309.65,-194.27 299.91,-198.44 304.64,-203.6"/>
</g>
<!-- mnt_comp2 -->
<g id="node11" class="node">
<title>mnt_comp2</title>
<path fill="white" stroke="black" d="M1275,-167.22C1275,-167.22 1201,-167.22 1201,-167.22 1195,-167.22 1189,-161.22 1189,-155.22 1189,-155.22 1189,-143.22 1189,-143.22 1189,-137.22 1195,-131.22 1201,-131.22 1201,-131.22 1275,-131.22 1275,-131.22 1281,-131.22 1287,-137.22 1287,-143.22 1287,-143.22 1287,-155.22 1287,-155.22 1287,-161.22 1281,-167.22 1275,-167.22"/>
<text text-anchor="middle" x="1238" y="-145.52" font-family="Helvetica,sans-Serif" font-size="14.00">mnt_comp2</text>
</g>
<!-- pressure&#45;&gt;mnt_comp2 -->
<g id="edge23" class="edge">
<title>pressure&#45;&gt;mnt_comp2</title>
<path fill="none" stroke="black" stroke-width="1.2" d="M249.83,-415.44C270.7,-429.36 295.92,-446.18 296,-446.22 472.31,-518.25 526.54,-526.22 717,-526.22 717,-526.22 717,-526.22 971,-526.22 1141.71,-526.22 1212.54,-264.95 1231.48,-177.41"/>
<polygon fill="black" stroke="black" stroke-width="1.2" points="1234.95,-177.9 1233.58,-167.4 1228.1,-176.47 1234.95,-177.9"/>
</g>
<!-- pressure&#45;&gt;fail_comp2 -->
<g id="edge25" class="edge">
<title>pressure&#45;&gt;fail_comp2</title>
<path fill="none" stroke="black" stroke-width="1.2" d="M260.19,-389.82C299.62,-382.08 361.93,-369.85 406.89,-361.03"/>
<polygon fill="black" stroke="black" stroke-width="1.2" points="407.64,-364.45 416.77,-359.09 406.29,-357.58 407.64,-364.45"/>
</g>
<!-- vibration -->
<g id="node4" class="node">
<title>vibration</title>
<path fill="white" stroke="black" d="M745,-254.22C745,-254.22 691,-254.22 691,-254.22 685,-254.22 679,-248.22 679,-242.22 679,-242.22 679,-230.22 679,-230.22 679,-224.22 685,-218.22 691,-218.22 691,-218.22 745,-218.22 745,-218.22 751,-218.22 757,-224.22 757,-230.22 757,-230.22 757,-242.22 757,-242.22 757,-248.22 751,-254.22 745,-254.22"/>
<text text-anchor="middle" x="718" y="-232.52" font-family="Helvetica,sans-Serif" font-size="14.00">vibration</text>
</g>
<!-- vibration&#45;&gt;pressure -->
<g id="edge17" class="edge">
<title>vibration&#45;&gt;pressure</title>
<path fill="none" stroke="black" stroke-width="1.2" d="M678.8,-245.26C603.96,-263.5 433.38,-307.65 296,-362.22 286.54,-365.97 276.59,-370.38 267.17,-374.79"/>
<polygon fill="black" stroke="black" stroke-width="1.2" points="265.5,-371.71 257.97,-379.16 268.5,-378.03 265.5,-371.71"/>
</g>
<!-- vibration&#45;&gt;err_error1 -->
<g id="edge26" class="edge">
<title>vibration&#45;&gt;err_error1</title>
<path fill="none" stroke="black" stroke-width="1.2" d="M693.67,-218.13C688.62,-213.8 683.46,-209.02 679,-204.22 660.39,-184.13 666.17,-168.8 643,-154.22 604.9,-130.23 553.71,-123.04 515.83,-121.37"/>
<polygon fill="black" stroke="black" stroke-width="1.2" points="515.63,-117.86 505.52,-121.04 515.4,-124.86 515.63,-117.86"/>
</g>
<!-- vibration&#45;&gt;err_error5 -->
<g id="edge28" class="edge">
<title>vibration&#45;&gt;err_error5</title>
<path fill="none" stroke="black" stroke-width="1.2" d="M688.26,-211.83C675.29,-202.3 659.25,-192.43 643,-187.22 558.17,-159.99 453.1,-163.91 391.46,-169.73"/>
<polygon fill="black" stroke="black" stroke-width="1.2" points="686.24,-214.69 696.31,-217.98 690.49,-209.13 686.24,-214.69"/>
<polygon fill="black" stroke="black" stroke-width="1.2" points="390.82,-166.27 381.22,-170.75 391.51,-173.24 390.82,-166.27"/>
</g>
<!-- fail_comp1 -->
<g id="node14" class="node">
<title>fail_comp1</title>
<path fill="white" stroke="black" d="M873,-178.22C873,-178.22 805,-178.22 805,-178.22 799,-178.22 793,-172.22 793,-166.22 793,-166.22 793,-154.22 793,-154.22 793,-148.22 799,-142.22 805,-142.22 805,-142.22 873,-142.22 873,-142.22 879,-142.22 885,-148.22 885,-154.22 885,-154.22 885,-166.22 885,-166.22 885,-172.22 879,-178.22 873,-178.22"/>
<text text-anchor="middle" x="839" y="-156.52" font-family="Helvetica,sans-Serif" font-size="14.00">fail_comp1</text>
</g>
<!-- vibration&#45;&gt;fail_comp1 -->
<g id="edge31" class="edge">
<title>vibration&#45;&gt;fail_comp1</title>
<path fill="none" stroke="black" stroke-width="1.2" d="M755.94,-212.63C770.26,-203.48 786.63,-193.02 800.96,-183.87"/>
<polygon fill="black" stroke="black" stroke-width="1.2" points="753.75,-209.87 747.2,-218.2 757.51,-215.77 753.75,-209.87"/>
<polygon fill="black" stroke="black" stroke-width="1.2" points="803.04,-186.69 809.59,-178.36 799.28,-180.79 803.04,-186.69"/>
</g>
<!-- err_error1&#45;&gt;pressure -->
<g id="edge18" class="edge">
<title>err_error1&#45;&gt;pressure</title>
<path fill="none" stroke="black" stroke-width="1.2" d="M444.11,-140.36C427.78,-156.85 402.92,-181.82 381,-203.22 343.66,-239.67 329.34,-244.07 296,-284.22 273.16,-311.71 251.42,-346.62 237.58,-370.31"/>
<polygon fill="black" stroke="black" stroke-width="1.2" points="234.47,-368.69 232.51,-379.1 240.54,-372.19 234.47,-368.69"/>
</g>
<!-- err_error1&#45;&gt;mnt_comp2 -->
<g id="edge34" class="edge">
<title>err_error1&#45;&gt;mnt_comp2</title>
<path fill="none" stroke="black" stroke-width="1.2" d="M480.71,-103.95C495.88,-88.66 519.68,-67.71 545,-57.22 616.04,-27.75 640.09,-38.22 717,-38.22 717,-38.22 717,-38.22 971,-38.22 1054.32,-38.22 1078.12,-46.66 1153,-83.22 1174.43,-93.68 1195.52,-110.28 1211.21,-124.22"/>
<polygon fill="black" stroke="black" stroke-width="1.2" points="1209.15,-127.07 1218.9,-131.21 1213.86,-121.89 1209.15,-127.07"/>
</g>
<!-- mnt_comp3 -->
<g id="node12" class="node">
<title>mnt_comp3</title>
<path fill="white" stroke="black" d="M631,-102.22C631,-102.22 557,-102.22 557,-102.22 551,-102.22 545,-96.22 545,-90.22 545,-90.22 545,-78.22 545,-78.22 545,-72.22 551,-66.22 557,-66.22 557,-66.22 631,-66.22 631,-66.22 637,-66.22 643,-72.22 643,-78.22 643,-78.22 643,-90.22 643,-90.22 643,-96.22 637,-102.22 631,-102.22"/>
<text text-anchor="middle" x="594" y="-80.52" font-family="Helvetica,sans-Serif" font-size="14.00">mnt_comp3</text>
</g>
<!-- err_error1&#45;&gt;mnt_comp3 -->
<g id="edge35" class="edge">
<title>err_error1&#45;&gt;mnt_comp3</title>
<path fill="none" stroke="black" stroke-width="1.2" d="M505.53,-109.98C514.92,-107.22 525.06,-104.23 534.99,-101.3"/>
<polygon fill="black" stroke="black" stroke-width="1.2" points="536.21,-104.59 544.81,-98.41 534.23,-97.88 536.21,-104.59"/>
</g>
<!-- err_error3&#45;&gt;err_error2 -->
<g id="edge36" class="edge">
<title>err_error3&#45;&gt;err_error2</title>
<path fill="none" stroke="black" stroke-width="1.2" d="M381.31,-598.27C390.78,-595.56 400.93,-592.66 410.73,-589.86"/>
<polygon fill="black" stroke="black" stroke-width="1.2" points="411.72,-593.22 420.37,-587.11 409.8,-586.49 411.72,-593.22"/>
</g>
<!-- err_error4 -->
<g id="node8" class="node">
<title>err_error4</title>
<path fill="white" stroke="black" d="M624.5,-232.22C624.5,-232.22 563.5,-232.22 563.5,-232.22 557.5,-232.22 551.5,-226.22 551.5,-220.22 551.5,-220.22 551.5,-208.22 551.5,-208.22 551.5,-202.22 557.5,-196.22 563.5,-196.22 563.5,-196.22 624.5,-196.22 624.5,-196.22 630.5,-196.22 636.5,-202.22 636.5,-208.22 636.5,-208.22 636.5,-220.22 636.5,-220.22 636.5,-226.22 630.5,-232.22 624.5,-232.22"/>
<text text-anchor="middle" x="594" y="-210.52" font-family="Helvetica,sans-Serif" font-size="14.00">err_error4</text>
</g>
<!-- err_error4&#45;&gt;vibration -->
<g id="edge27" class="edge">
<title>err_error4&#45;&gt;vibration</title>
<path fill="none" stroke="black" stroke-width="1.2" d="M636.64,-221.72C647,-223.59 658.19,-225.61 668.83,-227.53"/>
<polygon fill="black" stroke="black" stroke-width="1.2" points="668.36,-231 678.82,-229.33 669.6,-224.11 668.36,-231"/>
</g>
<!-- err_error5&#45;&gt;rotate -->
<g id="edge12" class="edge">
<title>err_error5&#45;&gt;rotate</title>
<path fill="none" stroke="black" stroke-width="1.2" d="M295.68,-191.71C263.71,-204.36 219.15,-223.76 183,-246.22 170.36,-254.06 157.47,-264.16 146.64,-273.36"/>
<polygon fill="black" stroke="black" stroke-width="1.2" points="144.05,-270.97 138.79,-280.17 148.64,-276.26 144.05,-270.97"/>
</g>
<!-- err_error5&#45;&gt;err_error1 -->
<g id="edge33" class="edge">
<title>err_error5&#45;&gt;err_error1</title>
<path fill="none" stroke="black" stroke-width="1.2" d="M380.63,-158.08C390.53,-153.72 401.22,-149.01 411.49,-144.48"/>
<polygon fill="black" stroke="black" stroke-width="1.2" points="413.03,-147.63 420.77,-140.39 410.21,-141.22 413.03,-147.63"/>
</g>
<!-- mnt_comp1&#45;&gt;pressure -->
<g id="edge22" class="edge">
<title>mnt_comp1&#45;&gt;pressure</title>
<path fill="none" stroke="black" stroke-width="1.2" d="M926.74,-281.36C913.53,-286.61 898.8,-292.05 885,-296.22 667.02,-362.04 608.12,-372.01 381,-388.22 343.95,-390.86 301.98,-393.21 270.55,-394.85"/>
<polygon fill="black" stroke="black" stroke-width="1.2" points="270.12,-391.37 260.31,-395.38 270.48,-398.36 270.12,-391.37"/>
</g>
<!-- mnt_comp1&#45;&gt;vibration -->
<g id="edge29" class="edge">
<title>mnt_comp1&#45;&gt;vibration</title>
<path fill="none" stroke="black" stroke-width="1.2" d="M920.91,-258.02C876.77,-253.25 811.71,-246.23 767.46,-241.45"/>
<polygon fill="black" stroke="black" stroke-width="1.2" points="767.56,-237.94 757.24,-240.35 766.81,-244.9 767.56,-237.94"/>
</g>
<!-- mnt_comp1&#45;&gt;mnt_comp3 -->
<g id="edge37" class="edge">
<title>mnt_comp1&#45;&gt;mnt_comp3</title>
<path fill="none" stroke="black" stroke-width="1.2" d="M924.85,-245.19C889.01,-230.31 837.34,-208.29 793,-187.22 738.29,-161.21 676.57,-128.56 636.8,-107.08"/>
<polygon fill="black" stroke="black" stroke-width="1.2" points="638.37,-103.95 627.91,-102.27 635.04,-110.11 638.37,-103.95"/>
</g>
<!-- mnt_comp2&#45;&gt;rotate -->
<g id="edge14" class="edge">
<title>mnt_comp2&#45;&gt;rotate</title>
<path fill="none" stroke="black" stroke-width="1.2" d="M1228.08,-131.15C1215.06,-106.75 1188.49,-63.75 1153,-41.22 1083,3.23 1053.92,-0.22 971,-0.22 717,-0.22 717,-0.22 717,-0.22 346.28,-0.22 247.7,-45.87 183,-107.22 137.05,-150.79 124.33,-228.39 120.83,-270"/>
<polygon fill="black" stroke="black" stroke-width="1.2" points="117.33,-269.78 120.1,-280 124.31,-270.28 117.33,-269.78"/>
</g>
<!-- mnt_comp3&#45;&gt;rotate -->
<g id="edge15" class="edge">
<title>mnt_comp3&#45;&gt;rotate</title>
<path fill="none" stroke="black" stroke-width="1.2" d="M544.8,-78.05C460.85,-70.14 286.88,-66.61 183,-155.22 148.28,-184.83 131.78,-237.17 124.54,-269.64"/>
<polygon fill="black" stroke="black" stroke-width="1.2" points="121.03,-269.33 122.43,-279.83 127.89,-270.75 121.03,-269.33"/>
</g>
<!-- mnt_comp3&#45;&gt;vibration -->
<g id="edge30" class="edge">
<title>mnt_comp3&#45;&gt;vibration</title>
<path fill="none" stroke="black" stroke-width="1.2" d="M628.16,-102.48C633.6,-106.49 638.82,-111.1 643,-116.22 669.75,-148.93 654.12,-170.06 679,-204.22 680.71,-206.57 682.64,-208.86 684.68,-211.06"/>
<polygon fill="black" stroke="black" stroke-width="1.2" points="682.38,-213.7 691.99,-218.16 687.26,-208.68 682.38,-213.7"/>
</g>
<!-- mnt_comp3&#45;&gt;mnt_comp2 -->
<g id="edge39" class="edge">
<title>mnt_comp3&#45;&gt;mnt_comp2</title>
<path fill="none" stroke="black" stroke-width="1.2" d="M643.39,-81.68C692.43,-79.34 770.46,-76.22 838,-76.22 838,-76.22 838,-76.22 971,-76.22 1048.99,-76.22 1135.41,-105.76 1187.96,-127.26"/>
<polygon fill="black" stroke="black" stroke-width="1.2" points="1186.8,-130.56 1197.37,-131.17 1189.48,-124.1 1186.8,-130.56"/>
</g>
<!-- mnt_comp4 -->
<g id="node13" class="node">
<title>mnt_comp4</title>
<path fill="white" stroke="black" d="M1141,-232.22C1141,-232.22 1067,-232.22 1067,-232.22 1061,-232.22 1055,-226.22 1055,-220.22 1055,-220.22 1055,-208.22 1055,-208.22 1055,-202.22 1061,-196.22 1067,-196.22 1067,-196.22 1141,-196.22 1141,-196.22 1147,-196.22 1153,-202.22 1153,-208.22 1153,-208.22 1153,-220.22 1153,-220.22 1153,-226.22 1147,-232.22 1141,-232.22"/>
<text text-anchor="middle" x="1104" y="-210.52" font-family="Helvetica,sans-Serif" font-size="14.00">mnt_comp4</text>
</g>
<!-- mnt_comp4&#45;&gt;pressure -->
<g id="edge24" class="edge">
<title>mnt_comp4&#45;&gt;pressure</title>
<path fill="none" stroke="black" stroke-width="1.2" d="M1094.09,-232.34C1065.52,-287.6 970.36,-450.22 840,-450.22 462,-450.22 462,-450.22 462,-450.22 394.01,-450.22 317.68,-429.6 269.85,-414.09"/>
<polygon fill="black" stroke="black" stroke-width="1.2" points="270.69,-410.68 260.09,-410.86 268.49,-417.32 270.69,-410.68"/>
</g>
<!-- mnt_comp4&#45;&gt;mnt_comp2 -->
<g id="edge40" class="edge">
<title>mnt_comp4&#45;&gt;mnt_comp2</title>
<path fill="none" stroke="black" stroke-width="1.2" d="M1141.77,-196.11C1157.07,-188.57 1175.01,-179.74 1191.16,-171.79"/>
<polygon fill="black" stroke="black" stroke-width="1.2" points="1193,-174.78 1200.43,-167.22 1189.91,-168.5 1193,-174.78"/>
</g>
<!-- fail_comp1&#45;&gt;mnt_comp1 -->
<g id="edge38" class="edge">
<title>fail_comp1&#45;&gt;mnt_comp1</title>
<path fill="none" stroke="black" stroke-width="1.2" d="M866.45,-178.46C872.61,-182.87 879.09,-187.63 885,-192.22 903.88,-206.87 924.38,-224.17 940.41,-238.02"/>
<polygon fill="black" stroke="black" stroke-width="1.2" points="938.5,-241 948.34,-244.92 943.09,-235.72 938.5,-241"/>
</g>
<!-- fail_comp1&#45;&gt;mnt_comp2 -->
<g id="edge41" class="edge">
<title>fail_comp1&#45;&gt;mnt_comp2</title>
<path fill="none" stroke="black" stroke-width="1.2" d="M885.15,-158.96C957.31,-156.96 1098.6,-153.05 1178.43,-150.84"/>
<polygon fill="black" stroke="black" stroke-width="1.2" points="1178.9,-154.33 1188.8,-150.55 1178.71,-147.33 1178.9,-154.33"/>
</g>
<!-- fail_comp4 -->
<g id="node16" class="node">
<title>fail_comp4</title>
<path fill="white" stroke="black" d="M1004,-140.22C1004,-140.22 936,-140.22 936,-140.22 930,-140.22 924,-134.22 924,-128.22 924,-128.22 924,-116.22 924,-116.22 924,-110.22 930,-104.22 936,-104.22 936,-104.22 1004,-104.22 1004,-104.22 1010,-104.22 1016,-110.22 1016,-116.22 1016,-116.22 1016,-128.22 1016,-128.22 1016,-134.22 1010,-140.22 1004,-140.22"/>
<text text-anchor="middle" x="970" y="-118.52" font-family="Helvetica,sans-Serif" font-size="14.00">fail_comp4</text>
</g>
<!-- fail_comp1&#45;&gt;fail_comp4 -->
<g id="edge46" class="edge">
<title>fail_comp1&#45;&gt;fail_comp4</title>
<path fill="none" stroke="black" stroke-width="1.2" d="M885.12,-146.92C894.39,-144.19 904.26,-141.29 913.84,-138.46"/>
<polygon fill="black" stroke="black" stroke-width="1.2" points="915.09,-141.75 923.69,-135.56 913.11,-135.03 915.09,-141.75"/>
</g>
<!-- fail_comp2&#45;&gt;vibration -->
<g id="edge32" class="edge">
<title>fail_comp2&#45;&gt;vibration</title>
<path fill="none" stroke="black" stroke-width="1.2" d="M509.19,-347.9C546.99,-344.32 601.27,-335.23 643,-312.22 664.97,-300.1 684.52,-279.35 698,-262.59"/>
<polygon fill="black" stroke="black" stroke-width="1.2" points="701.1,-264.3 704.47,-254.26 695.57,-260.01 701.1,-264.3"/>
</g>
<!-- fail_comp2&#45;&gt;mnt_comp2 -->
<g id="edge42" class="edge">
<title>fail_comp2&#45;&gt;mnt_comp2</title>
<path fill="none" stroke="black" stroke-width="1.2" d="M509.35,-368.31C559.36,-386.61 642.61,-412.22 717,-412.22 717,-412.22 717,-412.22 971,-412.22 1104.08,-412.22 1194.55,-243.69 1225.35,-176.45"/>
<polygon fill="black" stroke="black" stroke-width="1.2" points="1228.56,-177.85 1229.46,-167.29 1222.17,-174.98 1228.56,-177.85"/>
</g>
<!-- fail_comp4&#45;&gt;mnt_comp2 -->
<g id="edge43" class="edge">
<title>fail_comp4&#45;&gt;mnt_comp2</title>
<path fill="none" stroke="black" stroke-width="1.2" d="M1016.12,-126.8C1060.96,-131.35 1129.91,-138.35 1178.83,-143.31"/>
<polygon fill="black" stroke="black" stroke-width="1.2" points="1178.65,-146.81 1188.95,-144.34 1179.36,-139.85 1178.65,-146.81"/>
</g>
<!-- fail_comp4&#45;&gt;mnt_comp3 -->
<g id="edge44" class="edge">
<title>fail_comp4&#45;&gt;mnt_comp3</title>
<path fill="none" stroke="black" stroke-width="1.2" d="M923.98,-117.64C856.24,-110.76 728.11,-97.74 653.32,-90.14"/>
<polygon fill="black" stroke="black" stroke-width="1.2" points="653.43,-86.63 643.13,-89.11 652.72,-93.6 653.43,-86.63"/>
</g>
<!-- fail_comp4&#45;&gt;mnt_comp4 -->
<g id="edge45" class="edge">
<title>fail_comp4&#45;&gt;mnt_comp4</title>
<path fill="none" stroke="black" stroke-width="1.2" d="M997.08,-140.39C1017.6,-154.69 1046.37,-174.74 1068.74,-190.34"/>
<polygon fill="black" stroke="black" stroke-width="1.2" points="1066.77,-193.23 1076.98,-196.08 1070.77,-187.49 1066.77,-193.23"/>
</g>
</g>
</svg>
