<?xml version="1.0" encoding="UTF-8" standalone="no"?>
<!DOCTYPE svg PUBLIC "-//W3C//DTD SVG 1.1//EN"
 "http://www.w3.org/Graphics/SVG/1.1/DTD/svg11.dtd">
<!-- Generated by graphviz version 2.50.0 (0)
 -->
<!-- Title: G Pages: 1 -->
<svg width="1289pt" height="506pt"
 viewBox="0.00 0.00 1289.00 506.41" xmlns="http://www.w3.org/2000/svg" xmlns:xlink="http://www.w3.org/1999/xlink">
<g id="graph0" class="graph" transform="scale(1 1) rotate(0) translate(4 502.41)">
<title>G</title>
<polygon fill="white" stroke="transparent" points="-4,4 -4,-502.41 1285,-502.41 1285,4 -4,4"/>
<text text-anchor="middle" x="640.5" y="-481.61" font-family="Times,serif" font-size="16.00">model=model4/nbcb_w_mixed.json [machine 77]</text>
<!-- volt -->
<g id="node1" class="node">
<title>volt</title>
<path fill="white" stroke="black" d="M163,-262C163,-262 133,-262 133,-262 127,-262 121,-256 121,-250 121,-250 121,-238 121,-238 121,-232 127,-226 133,-226 133,-226 163,-226 163,-226 169,-226 175,-232 175,-238 175,-238 175,-250 175,-250 175,-256 169,-262 163,-262"/>
<text text-anchor="middle" x="148" y="-240.3" font-family="Helvetica,sans-Serif" font-size="14.00">volt</text>
</g>
<!-- rotate -->
<g id="node2" class="node">
<title>rotate</title>
<path fill="white" stroke="black" d="M256,-262C256,-262 223,-262 223,-262 217,-262 211,-256 211,-250 211,-250 211,-238 211,-238 211,-232 217,-226 223,-226 223,-226 256,-226 256,-226 262,-226 268,-232 268,-238 268,-238 268,-250 268,-250 268,-256 262,-262 256,-262"/>
<text text-anchor="middle" x="239.5" y="-240.3" font-family="Helvetica,sans-Serif" font-size="14.00">rotate</text>
</g>
<!-- volt&#45;&gt;rotate -->
<g id="edge1" class="edge">
<title>volt&#45;&gt;rotate</title>
<path fill="none" stroke="black" stroke-width="1.2" d="M185.4,-244C190.43,-244 195.6,-244 200.65,-244"/>
<polygon fill="black" stroke="black" stroke-width="1.2" points="185.37,-240.5 175.37,-244 185.37,-247.5 185.37,-240.5"/>
<polygon fill="black" stroke="black" stroke-width="1.2" points="200.76,-247.5 210.76,-244 200.76,-240.5 200.76,-247.5"/>
</g>
<!-- err_error1 -->
<g id="node5" class="node">
<title>err_error1</title>
<path fill="white" stroke="black" d="M1269,-212C1269,-212 1208,-212 1208,-212 1202,-212 1196,-206 1196,-200 1196,-200 1196,-188 1196,-188 1196,-182 1202,-176 1208,-176 1208,-176 1269,-176 1269,-176 1275,-176 1281,-182 1281,-188 1281,-188 1281,-200 1281,-200 1281,-206 1275,-212 1269,-212"/>
<text text-anchor="middle" x="1238.5" y="-190.3" font-family="Helvetica,sans-Serif" font-size="14.00">err_error1</text>
</g>
<!-- volt&#45;&gt;err_error1 -->
<g id="edge4" class="edge">
<title>volt&#45;&gt;err_error1</title>
<path fill="none" stroke="black" stroke-width="1.2" d="M149.38,-262.03C151.18,-299.94 160.85,-388.34 211,-436 255.85,-478.63 283.62,-472 345.5,-472 345.5,-472 345.5,-472 978,-472 1113.93,-472 1199.06,-292.21 1227.18,-221.8"/>
<polygon fill="black" stroke="black" stroke-width="1.2" points="1230.54,-222.83 1230.92,-212.24 1224.02,-220.28 1230.54,-222.83"/>
</g>
<!-- mnt_comp1 -->
<g id="node10" class="node">
<title>mnt_comp1</title>
<path fill="white" stroke="black" d="M1014,-298C1014,-298 940,-298 940,-298 934,-298 928,-292 928,-286 928,-286 928,-274 928,-274 928,-268 934,-262 940,-262 940,-262 1014,-262 1014,-262 1020,-262 1026,-268 1026,-274 1026,-274 1026,-286 1026,-286 1026,-292 1020,-298 1014,-298"/>
<text text-anchor="middle" x="977" y="-276.3" font-family="Helvetica,sans-Serif" font-size="14.00">mnt_comp1</text>
</g>
<!-- volt&#45;&gt;mnt_comp1 -->
<g id="edge7" class="edge">
<title>volt&#45;&gt;mnt_comp1</title>
<path fill="none" stroke="black" stroke-width="1.2" d="M173.73,-269.47C202.35,-297.27 252.2,-340.78 304,-363 435.28,-419.32 482.38,-411.69 624,-393 746.27,-376.86 776.5,-364.25 892,-321 905.82,-315.83 920.42,-309.15 933.5,-302.7"/>
<polygon fill="black" stroke="black" stroke-width="1.2" points="176.16,-266.95 166.59,-262.42 171.25,-271.94 176.16,-266.95"/>
<polygon fill="black" stroke="black" stroke-width="1.2" points="935.36,-305.68 942.73,-298.07 932.22,-299.43 935.36,-305.68"/>
</g>
<!-- vibration -->
<g id="node4" class="node">
<title>vibration</title>
<path fill="white" stroke="black" d="M491,-231C491,-231 437,-231 437,-231 431,-231 425,-225 425,-219 425,-219 425,-207 425,-207 425,-201 431,-195 437,-195 437,-195 491,-195 491,-195 497,-195 503,-201 503,-207 503,-207 503,-219 503,-219 503,-225 497,-231 491,-231"/>
<text text-anchor="middle" x="464" y="-209.3" font-family="Helvetica,sans-Serif" font-size="14.00">vibration</text>
</g>
<!-- rotate&#45;&gt;vibration -->
<g id="edge9" class="edge">
<title>rotate&#45;&gt;vibration</title>
<path fill="none" stroke="black" stroke-width="1.2" d="M278.23,-239.53C308.28,-235.88 351.38,-230.46 389,-225 397.33,-223.79 406.18,-222.43 414.75,-221.06"/>
<polygon fill="black" stroke="black" stroke-width="1.2" points="277.69,-236.07 268.18,-240.74 278.53,-243.02 277.69,-236.07"/>
<polygon fill="black" stroke="black" stroke-width="1.2" points="415.31,-224.52 424.63,-219.47 414.2,-217.61 415.31,-224.52"/>
</g>
<!-- rotate&#45;&gt;err_error1 -->
<g id="edge10" class="edge">
<title>rotate&#45;&gt;err_error1</title>
<path fill="none" stroke="black" stroke-width="1.2" d="M255.89,-216.95C266.93,-200.41 283.47,-180.63 304,-171 594.53,-34.69 705.19,-152.63 1026,-161 1085.62,-162.56 1101.41,-156.86 1160,-168 1168.61,-169.64 1177.58,-172 1186.23,-174.64"/>
<polygon fill="black" stroke="black" stroke-width="1.2" points="252.73,-215.4 250.33,-225.72 258.64,-219.15 252.73,-215.4"/>
<polygon fill="black" stroke="black" stroke-width="1.2" points="1185.23,-177.99 1195.82,-177.71 1187.37,-171.33 1185.23,-177.99"/>
</g>
<!-- err_error3 -->
<g id="node7" class="node">
<title>err_error3</title>
<path fill="white" stroke="black" d="M377,-216C377,-216 316,-216 316,-216 310,-216 304,-210 304,-204 304,-204 304,-192 304,-192 304,-186 310,-180 316,-180 316,-180 377,-180 377,-180 383,-180 389,-186 389,-192 389,-192 389,-204 389,-204 389,-210 383,-216 377,-216"/>
<text text-anchor="middle" x="346.5" y="-194.3" font-family="Helvetica,sans-Serif" font-size="14.00">err_error3</text>
</g>
<!-- rotate&#45;&gt;err_error3 -->
<g id="edge11" class="edge">
<title>rotate&#45;&gt;err_error3</title>
<path fill="none" stroke="black" stroke-width="1.2" d="M277.25,-227.9C282.98,-225.39 288.98,-222.76 294.95,-220.14"/>
<polygon fill="black" stroke="black" stroke-width="1.2" points="275.84,-224.7 268.09,-231.91 278.65,-231.11 275.84,-224.7"/>
<polygon fill="black" stroke="black" stroke-width="1.2" points="296.51,-223.29 304.26,-216.07 293.7,-216.87 296.51,-223.29"/>
</g>
<!-- err_error5 -->
<g id="node9" class="node">
<title>err_error5</title>
<path fill="white" stroke="black" d="M612,-292C612,-292 551,-292 551,-292 545,-292 539,-286 539,-280 539,-280 539,-268 539,-268 539,-262 545,-256 551,-256 551,-256 612,-256 612,-256 618,-256 624,-262 624,-268 624,-268 624,-280 624,-280 624,-286 618,-292 612,-292"/>
<text text-anchor="middle" x="581.5" y="-270.3" font-family="Helvetica,sans-Serif" font-size="14.00">err_error5</text>
</g>
<!-- rotate&#45;&gt;err_error5 -->
<g id="edge13" class="edge">
<title>rotate&#45;&gt;err_error5</title>
<path fill="none" stroke="black" stroke-width="1.2" d="M278.11,-247.32C339.1,-252.7 459.68,-263.34 528.73,-269.43"/>
<polygon fill="black" stroke="black" stroke-width="1.2" points="278.3,-243.82 268.04,-246.43 277.69,-250.8 278.3,-243.82"/>
<polygon fill="black" stroke="black" stroke-width="1.2" points="528.67,-272.94 538.94,-270.33 529.28,-265.97 528.67,-272.94"/>
</g>
<!-- rotate&#45;&gt;mnt_comp1 -->
<g id="edge14" class="edge">
<title>rotate&#45;&gt;mnt_comp1</title>
<path fill="none" stroke="black" stroke-width="1.2" d="M277.22,-264.89C320.3,-287.39 394.55,-320 463,-320 463,-320 463,-320 710,-320 782.17,-320 864.14,-305.42 917.78,-293.87"/>
<polygon fill="black" stroke="black" stroke-width="1.2" points="278.73,-261.73 268.26,-260.12 275.44,-267.91 278.73,-261.73"/>
<polygon fill="black" stroke="black" stroke-width="1.2" points="918.77,-297.24 927.79,-291.68 917.27,-290.4 918.77,-297.24"/>
</g>
<!-- pressure -->
<g id="node3" class="node">
<title>pressure</title>
<path fill="white" stroke="black" d="M608,-94C608,-94 555,-94 555,-94 549,-94 543,-88 543,-82 543,-82 543,-70 543,-70 543,-64 549,-58 555,-58 555,-58 608,-58 608,-58 614,-58 620,-64 620,-70 620,-70 620,-82 620,-82 620,-88 614,-94 608,-94"/>
<text text-anchor="middle" x="581.5" y="-72.3" font-family="Helvetica,sans-Serif" font-size="14.00">pressure</text>
</g>
<!-- pressure&#45;&gt;volt -->
<g id="edge2" class="edge">
<title>pressure&#45;&gt;volt</title>
<path fill="none" stroke="black" stroke-width="1.2" d="M542.91,-69.67C487.52,-62.18 382.09,-55.07 304,-93 244.5,-121.9 193.52,-182.48 167.49,-217.49"/>
<polygon fill="black" stroke="black" stroke-width="1.2" points="164.49,-215.66 161.42,-225.8 170.14,-219.79 164.49,-215.66"/>
</g>
<!-- pressure&#45;&gt;rotate -->
<g id="edge8" class="edge">
<title>pressure&#45;&gt;rotate</title>
<path fill="none" stroke="black" stroke-width="1.2" d="M542.74,-75.4C485.7,-76.34 376.57,-85.55 304,-138 277.11,-157.44 259.53,-192.09 249.83,-216.47"/>
<polygon fill="black" stroke="black" stroke-width="1.2" points="246.53,-215.3 246.26,-225.89 253.07,-217.78 246.53,-215.3"/>
</g>
<!-- pressure&#45;&gt;err_error1 -->
<g id="edge16" class="edge">
<title>pressure&#45;&gt;err_error1</title>
<path fill="none" stroke="black" stroke-width="1.2" d="M620.32,-76C670.84,-76 763.16,-76 842,-76 842,-76 842,-76 978,-76 1059.59,-76 1088.64,-60.44 1160,-100 1187.84,-115.43 1209.73,-145.21 1223.05,-167.13"/>
<polygon fill="black" stroke="black" stroke-width="1.2" points="1220.15,-169.11 1228.22,-175.98 1226.19,-165.58 1220.15,-169.11"/>
</g>
<!-- mnt_comp4 -->
<g id="node13" class="node">
<title>mnt_comp4</title>
<path fill="white" stroke="black" d="M746,-208C746,-208 672,-208 672,-208 666,-208 660,-202 660,-196 660,-196 660,-184 660,-184 660,-178 666,-172 672,-172 672,-172 746,-172 746,-172 752,-172 758,-178 758,-184 758,-184 758,-196 758,-196 758,-202 752,-208 746,-208"/>
<text text-anchor="middle" x="709" y="-186.3" font-family="Helvetica,sans-Serif" font-size="14.00">mnt_comp4</text>
</g>
<!-- pressure&#45;&gt;mnt_comp4 -->
<g id="edge18" class="edge">
<title>pressure&#45;&gt;mnt_comp4</title>
<path fill="none" stroke="black" stroke-width="1.2" d="M602.39,-94.06C623.37,-113.13 656.62,-143.33 680.2,-164.75"/>
<polygon fill="black" stroke="black" stroke-width="1.2" points="678.04,-167.51 687.79,-171.64 682.74,-162.33 678.04,-167.51"/>
</g>
<!-- vibration&#45;&gt;volt -->
<g id="edge3" class="edge">
<title>vibration&#45;&gt;volt</title>
<path fill="none" stroke="black" stroke-width="1.2" d="M438.72,-194.96C424.92,-185.84 406.85,-175.71 389,-171 352.47,-161.36 340.87,-162.75 304,-171 260.33,-180.77 214.46,-204.27 184.06,-221.98"/>
<polygon fill="black" stroke="black" stroke-width="1.2" points="181.95,-219.16 175.14,-227.27 185.52,-225.18 181.95,-219.16"/>
</g>
<!-- vibration&#45;&gt;pressure -->
<g id="edge15" class="edge">
<title>vibration&#45;&gt;pressure</title>
<path fill="none" stroke="black" stroke-width="1.2" d="M480.34,-194.81C500.36,-171.06 535.53,-129.34 558.42,-102.19"/>
<polygon fill="black" stroke="black" stroke-width="1.2" points="561.33,-104.17 565.1,-94.27 555.98,-99.66 561.33,-104.17"/>
</g>
<!-- err_error4 -->
<g id="node8" class="node">
<title>err_error4</title>
<path fill="white" stroke="black" d="M612,-384C612,-384 551,-384 551,-384 545,-384 539,-378 539,-372 539,-372 539,-360 539,-360 539,-354 545,-348 551,-348 551,-348 612,-348 612,-348 618,-348 624,-354 624,-360 624,-360 624,-372 624,-372 624,-378 618,-384 612,-384"/>
<text text-anchor="middle" x="581.5" y="-362.3" font-family="Helvetica,sans-Serif" font-size="14.00">err_error4</text>
</g>
<!-- vibration&#45;&gt;err_error4 -->
<g id="edge20" class="edge">
<title>vibration&#45;&gt;err_error4</title>
<path fill="none" stroke="black" stroke-width="1.2" d="M484.88,-239.34C506.09,-267.42 539.47,-311.65 560.66,-339.72"/>
<polygon fill="black" stroke="black" stroke-width="1.2" points="487.52,-237.02 478.7,-231.15 481.93,-241.24 487.52,-237.02"/>
<polygon fill="black" stroke="black" stroke-width="1.2" points="558,-342 566.81,-347.87 563.58,-337.78 558,-342"/>
</g>
<!-- vibration&#45;&gt;err_error5 -->
<g id="edge21" class="edge">
<title>vibration&#45;&gt;err_error5</title>
<path fill="none" stroke="black" stroke-width="1.2" d="M499.34,-231.14C511.22,-237.41 524.69,-244.52 537.19,-251.13"/>
<polygon fill="black" stroke="black" stroke-width="1.2" points="535.61,-254.25 546.09,-255.83 538.88,-248.06 535.61,-254.25"/>
</g>
<!-- vibration&#45;&gt;mnt_comp1 -->
<g id="edge22" class="edge">
<title>vibration&#45;&gt;mnt_comp1</title>
<path fill="none" stroke="black" stroke-width="1.2" d="M513.6,-219.37C608.11,-231.76 816.29,-259.06 917.91,-272.38"/>
<polygon fill="black" stroke="black" stroke-width="1.2" points="513.78,-215.87 503.41,-218.04 512.87,-222.81 513.78,-215.87"/>
<polygon fill="black" stroke="black" stroke-width="1.2" points="917.62,-275.88 927.99,-273.71 918.53,-268.93 917.62,-275.88"/>
</g>
<!-- err_error2 -->
<g id="node6" class="node">
<title>err_error2</title>
<path fill="white" stroke="black" d="M73,-140C73,-140 12,-140 12,-140 6,-140 0,-134 0,-128 0,-128 0,-116 0,-116 0,-110 6,-104 12,-104 12,-104 73,-104 73,-104 79,-104 85,-110 85,-116 85,-116 85,-128 85,-128 85,-134 79,-140 73,-140"/>
<text text-anchor="middle" x="42.5" y="-118.3" font-family="Helvetica,sans-Serif" font-size="14.00">err_error2</text>
</g>
<!-- err_error2&#45;&gt;volt -->
<g id="edge5" class="edge">
<title>err_error2&#45;&gt;volt</title>
<path fill="none" stroke="black" stroke-width="1.2" d="M58.77,-140C76.28,-160.63 105.11,-194.62 125.03,-218.1"/>
<polygon fill="black" stroke="black" stroke-width="1.2" points="122.53,-220.56 131.67,-225.92 127.87,-216.03 122.53,-220.56"/>
</g>
<!-- err_error2&#45;&gt;pressure -->
<g id="edge17" class="edge">
<title>err_error2&#45;&gt;pressure</title>
<path fill="none" stroke="black" stroke-width="1.2" d="M58.64,-104C88.99,-70.06 161.03,0 238.5,0 238.5,0 238.5,0 347.5,0 417.16,0 493.02,-31.08 538.66,-53.49"/>
<polygon fill="black" stroke="black" stroke-width="1.2" points="537.14,-56.65 547.65,-57.99 540.27,-50.39 537.14,-56.65"/>
</g>
<!-- err_error3&#45;&gt;vibration -->
<g id="edge19" class="edge">
<title>err_error3&#45;&gt;vibration</title>
<path fill="none" stroke="black" stroke-width="1.2" d="M389.2,-203.42C397.47,-204.49 406.21,-205.63 414.68,-206.72"/>
<polygon fill="black" stroke="black" stroke-width="1.2" points="414.45,-210.22 424.82,-208.04 415.35,-203.28 414.45,-210.22"/>
</g>
<!-- err_error4&#45;&gt;volt -->
<g id="edge6" class="edge">
<title>err_error4&#45;&gt;volt</title>
<path fill="none" stroke="black" stroke-width="1.2" d="M546.27,-384.01C476.36,-418.05 315.03,-482.19 211,-410 166.07,-378.82 153.64,-310.88 150.24,-272.29"/>
<polygon fill="black" stroke="black" stroke-width="1.2" points="153.73,-271.95 149.5,-262.23 146.75,-272.46 153.73,-271.95"/>
</g>
<!-- err_error4&#45;&gt;rotate -->
<g id="edge12" class="edge">
<title>err_error4&#45;&gt;rotate</title>
<path fill="none" stroke="black" stroke-width="1.2" d="M538.77,-371.21C481.57,-376.25 377.55,-377.67 304,-334 279.76,-319.61 262.38,-291.95 252,-271.07"/>
<polygon fill="black" stroke="black" stroke-width="1.2" points="255.16,-269.57 247.72,-262.03 248.83,-272.56 255.16,-269.57"/>
</g>
<!-- err_error4&#45;&gt;err_error1 -->
<g id="edge24" class="edge">
<title>err_error4&#45;&gt;err_error1</title>
<path fill="none" stroke="black" stroke-width="1.2" d="M624.3,-364.96C675.58,-363.77 765.18,-362 842,-362 842,-362 842,-362 978,-362 1081.24,-362 1175.86,-267.13 1216.51,-219.98"/>
<polygon fill="black" stroke="black" stroke-width="1.2" points="1219.22,-222.19 1223.01,-212.3 1213.88,-217.67 1219.22,-222.19"/>
</g>
<!-- mnt_comp2 -->
<g id="node11" class="node">
<title>mnt_comp2</title>
<path fill="white" stroke="black" d="M1148,-258C1148,-258 1074,-258 1074,-258 1068,-258 1062,-252 1062,-246 1062,-246 1062,-234 1062,-234 1062,-228 1068,-222 1074,-222 1074,-222 1148,-222 1148,-222 1154,-222 1160,-228 1160,-234 1160,-234 1160,-246 1160,-246 1160,-252 1154,-258 1148,-258"/>
<text text-anchor="middle" x="1111" y="-236.3" font-family="Helvetica,sans-Serif" font-size="14.00">mnt_comp2</text>
</g>
<!-- mnt_comp1&#45;&gt;mnt_comp2 -->
<g id="edge28" class="edge">
<title>mnt_comp1&#45;&gt;mnt_comp2</title>
<path fill="none" stroke="black" stroke-width="1.2" d="M1026.03,-265.45C1034.49,-262.88 1043.38,-260.19 1052.08,-257.55"/>
<polygon fill="black" stroke="black" stroke-width="1.2" points="1053.23,-260.86 1061.79,-254.61 1051.2,-254.16 1053.23,-260.86"/>
</g>
<!-- mnt_comp2&#45;&gt;err_error1 -->
<g id="edge25" class="edge">
<title>mnt_comp2&#45;&gt;err_error1</title>
<path fill="none" stroke="black" stroke-width="1.2" d="M1160.16,-222.35C1168.7,-219.22 1177.62,-215.95 1186.24,-212.79"/>
<polygon fill="black" stroke="black" stroke-width="1.2" points="1187.62,-216.01 1195.81,-209.28 1185.21,-209.44 1187.62,-216.01"/>
</g>
<!-- mnt_comp3 -->
<g id="node12" class="node">
<title>mnt_comp3</title>
<path fill="white" stroke="black" d="M880,-216C880,-216 806,-216 806,-216 800,-216 794,-210 794,-204 794,-204 794,-192 794,-192 794,-186 800,-180 806,-180 806,-180 880,-180 880,-180 886,-180 892,-186 892,-192 892,-192 892,-204 892,-204 892,-210 886,-216 880,-216"/>
<text text-anchor="middle" x="843" y="-194.3" font-family="Helvetica,sans-Serif" font-size="14.00">mnt_comp3</text>
</g>
<!-- mnt_comp3&#45;&gt;err_error1 -->
<g id="edge26" class="edge">
<title>mnt_comp3&#45;&gt;err_error1</title>
<path fill="none" stroke="black" stroke-width="1.2" d="M892.25,-197.51C966.64,-196.75 1108.72,-195.31 1185.38,-194.53"/>
<polygon fill="black" stroke="black" stroke-width="1.2" points="1185.79,-198.03 1195.75,-194.42 1185.71,-191.03 1185.79,-198.03"/>
</g>
<!-- mnt_comp3&#45;&gt;mnt_comp1 -->
<g id="edge29" class="edge">
<title>mnt_comp3&#45;&gt;mnt_comp1</title>
<path fill="none" stroke="black" stroke-width="1.2" d="M873.3,-216.2C892.44,-228.09 917.61,-243.73 938.25,-256.55"/>
<polygon fill="black" stroke="black" stroke-width="1.2" points="936.45,-259.55 946.79,-261.85 940.14,-253.6 936.45,-259.55"/>
</g>
<!-- mnt_comp3&#45;&gt;mnt_comp2 -->
<g id="edge31" class="edge">
<title>mnt_comp3&#45;&gt;mnt_comp2</title>
<path fill="none" stroke="black" stroke-width="1.2" d="M892.17,-205.61C937.04,-212.69 1004.01,-223.26 1051.84,-230.82"/>
<polygon fill="black" stroke="black" stroke-width="1.2" points="1051.32,-234.28 1061.74,-232.38 1052.41,-227.36 1051.32,-234.28"/>
</g>
<!-- mnt_comp4&#45;&gt;vibration -->
<g id="edge23" class="edge">
<title>mnt_comp4&#45;&gt;vibration</title>
<path fill="none" stroke="black" stroke-width="1.2" d="M659.96,-194.55C617.5,-198.57 555.89,-204.4 513.35,-208.42"/>
<polygon fill="black" stroke="black" stroke-width="1.2" points="512.86,-204.95 503.24,-209.38 513.52,-211.92 512.86,-204.95"/>
</g>
<!-- mnt_comp4&#45;&gt;err_error1 -->
<g id="edge27" class="edge">
<title>mnt_comp4&#45;&gt;err_error1</title>
<path fill="none" stroke="black" stroke-width="1.2" d="M758.1,-177.19C769.77,-174.62 782.26,-172.31 794,-171 935.23,-155.23 1102.99,-174.09 1185.87,-185.89"/>
<polygon fill="black" stroke="black" stroke-width="1.2" points="1185.39,-189.36 1195.79,-187.33 1186.39,-182.43 1185.39,-189.36"/>
</g>
<!-- mnt_comp4&#45;&gt;mnt_comp1 -->
<g id="edge30" class="edge">
<title>mnt_comp4&#45;&gt;mnt_comp1</title>
<path fill="none" stroke="black" stroke-width="1.2" d="M751.12,-208.11C764.66,-213.81 779.87,-219.94 794,-225 834.9,-239.66 881.86,-253.78 917.83,-264.05"/>
<polygon fill="black" stroke="black" stroke-width="1.2" points="917.09,-267.48 927.67,-266.84 919,-260.74 917.09,-267.48"/>
</g>
<!-- mnt_comp4&#45;&gt;mnt_comp3 -->
<g id="edge32" class="edge">
<title>mnt_comp4&#45;&gt;mnt_comp3</title>
<path fill="none" stroke="black" stroke-width="1.2" d="M758.03,-192.91C766.4,-193.42 775.19,-193.95 783.8,-194.47"/>
<polygon fill="black" stroke="black" stroke-width="1.2" points="783.59,-197.97 793.79,-195.08 784.02,-190.98 783.59,-197.97"/>
</g>
</g>
</svg>
