<?xml version="1.0" encoding="UTF-8" standalone="no"?>
<!DOCTYPE svg PUBLIC "-//W3C//DTD SVG 1.1//EN"
 "http://www.w3.org/Graphics/SVG/1.1/DTD/svg11.dtd">
<!-- Generated by graphviz version 2.50.0 (0)
 -->
<!-- Title: G Pages: 1 -->
<svg width="1423pt" height="690pt"
 viewBox="0.00 0.00 1423.00 690.00" xmlns="http://www.w3.org/2000/svg" xmlns:xlink="http://www.w3.org/1999/xlink">
<g id="graph0" class="graph" transform="scale(1 1) rotate(0) translate(4 686)">
<title>G</title>
<polygon fill="white" stroke="transparent" points="-4,4 -4,-686 1419,-686 1419,4 -4,4"/>
<text text-anchor="middle" x="707.5" y="-665.2" font-family="Times,serif" font-size="16.00">model=model4/nbcb_w_mixed.json [machine 88]</text>
<!-- volt -->
<g id="node1" class="node">
<title>volt</title>
<path fill="white" stroke="black" d="M42,-492C42,-492 12,-492 12,-492 6,-492 0,-486 0,-480 0,-480 0,-468 0,-468 0,-462 6,-456 12,-456 12,-456 42,-456 42,-456 48,-456 54,-462 54,-468 54,-468 54,-480 54,-480 54,-486 48,-492 42,-492"/>
<text text-anchor="middle" x="27" y="-470.3" font-family="Helvetica,sans-Serif" font-size="14.00">volt</text>
</g>
<!-- rotate -->
<g id="node2" class="node">
<title>rotate</title>
<path fill="white" stroke="black" d="M135,-294C135,-294 102,-294 102,-294 96,-294 90,-288 90,-282 90,-282 90,-270 90,-270 90,-264 96,-258 102,-258 102,-258 135,-258 135,-258 141,-258 147,-264 147,-270 147,-270 147,-282 147,-282 147,-288 141,-294 135,-294"/>
<text text-anchor="middle" x="118.5" y="-272.3" font-family="Helvetica,sans-Serif" font-size="14.00">rotate</text>
</g>
<!-- volt&#45;&gt;rotate -->
<g id="edge1" class="edge">
<title>volt&#45;&gt;rotate</title>
<path fill="none" stroke="black" stroke-width="1.2" d="M36.26,-455.73C52.04,-420.81 86.57,-344.42 105.12,-303.38"/>
<polygon fill="black" stroke="black" stroke-width="1.2" points="108.33,-304.78 109.26,-294.23 101.95,-301.9 108.33,-304.78"/>
</g>
<!-- vibration -->
<g id="node4" class="node">
<title>vibration</title>
<path fill="white" stroke="black" d="M745,-278C745,-278 691,-278 691,-278 685,-278 679,-272 679,-266 679,-266 679,-254 679,-254 679,-248 685,-242 691,-242 691,-242 745,-242 745,-242 751,-242 757,-248 757,-254 757,-254 757,-266 757,-266 757,-272 751,-278 745,-278"/>
<text text-anchor="middle" x="718" y="-256.3" font-family="Helvetica,sans-Serif" font-size="14.00">vibration</text>
</g>
<!-- volt&#45;&gt;vibration -->
<g id="edge2" class="edge">
<title>volt&#45;&gt;vibration</title>
<path fill="none" stroke="black" stroke-width="1.2" d="M54.21,-469.67C78.47,-465.43 115.43,-458.41 147,-450 276.02,-415.63 303.91,-392.69 432,-355 524.86,-327.68 553.04,-336.75 643,-301 650.11,-298.17 663.69,-290.86 677.29,-283.18"/>
<polygon fill="black" stroke="black" stroke-width="1.2" points="679.21,-286.11 686.17,-278.12 675.75,-280.03 679.21,-286.11"/>
</g>
<!-- err_error1 -->
<g id="node5" class="node">
<title>err_error1</title>
<path fill="white" stroke="black" d="M1265.5,-411C1265.5,-411 1204.5,-411 1204.5,-411 1198.5,-411 1192.5,-405 1192.5,-399 1192.5,-399 1192.5,-387 1192.5,-387 1192.5,-381 1198.5,-375 1204.5,-375 1204.5,-375 1265.5,-375 1265.5,-375 1271.5,-375 1277.5,-381 1277.5,-387 1277.5,-387 1277.5,-399 1277.5,-399 1277.5,-405 1271.5,-411 1265.5,-411"/>
<text text-anchor="middle" x="1235" y="-389.3" font-family="Helvetica,sans-Serif" font-size="14.00">err_error1</text>
</g>
<!-- volt&#45;&gt;err_error1 -->
<g id="edge3" class="edge">
<title>volt&#45;&gt;err_error1</title>
<path fill="none" stroke="black" stroke-width="1.2" d="M37.68,-492.22C48.37,-510.85 67.12,-539.6 90,-558 141.01,-599.02 159.04,-618 224.5,-618 224.5,-618 224.5,-618 351,-618 406.07,-618 782.93,-526 838,-526 838,-526 838,-526 971,-526 1053.46,-526 1084.44,-535.81 1153,-490 1176.98,-473.98 1170.46,-458.1 1189,-436 1193.97,-430.08 1199.67,-424.11 1205.31,-418.59"/>
<polygon fill="black" stroke="black" stroke-width="1.2" points="1208.06,-420.8 1212.89,-411.37 1203.23,-415.73 1208.06,-420.8"/>
</g>
<!-- err_error4 -->
<g id="node8" class="node">
<title>err_error4</title>
<path fill="white" stroke="black" d="M1134.5,-178C1134.5,-178 1073.5,-178 1073.5,-178 1067.5,-178 1061.5,-172 1061.5,-166 1061.5,-166 1061.5,-154 1061.5,-154 1061.5,-148 1067.5,-142 1073.5,-142 1073.5,-142 1134.5,-142 1134.5,-142 1140.5,-142 1146.5,-148 1146.5,-154 1146.5,-154 1146.5,-166 1146.5,-166 1146.5,-172 1140.5,-178 1134.5,-178"/>
<text text-anchor="middle" x="1104" y="-156.3" font-family="Helvetica,sans-Serif" font-size="14.00">err_error4</text>
</g>
<!-- volt&#45;&gt;err_error4 -->
<g id="edge6" class="edge">
<title>volt&#45;&gt;err_error4</title>
<path fill="none" stroke="black" stroke-width="1.2" d="M28.28,-455.86C30.51,-377.24 50.38,-70 224.5,-70 224.5,-70 224.5,-70 351,-70 386.12,-70 886.55,-132.71 1051.03,-153.44"/>
<polygon fill="black" stroke="black" stroke-width="1.2" points="1051.01,-156.96 1061.37,-154.74 1051.89,-150.02 1051.01,-156.96"/>
</g>
<!-- fail_comp1 -->
<g id="node14" class="node">
<title>fail_comp1</title>
<path fill="white" stroke="black" d="M384,-552C384,-552 316,-552 316,-552 310,-552 304,-546 304,-540 304,-540 304,-528 304,-528 304,-522 310,-516 316,-516 316,-516 384,-516 384,-516 390,-516 396,-522 396,-528 396,-528 396,-540 396,-540 396,-546 390,-552 384,-552"/>
<text text-anchor="middle" x="350" y="-530.3" font-family="Helvetica,sans-Serif" font-size="14.00">fail_comp1</text>
</g>
<!-- volt&#45;&gt;fail_comp1 -->
<g id="edge9" class="edge">
<title>volt&#45;&gt;fail_comp1</title>
<path fill="none" stroke="black" stroke-width="1.2" d="M64.17,-482.46C72.63,-484.36 81.62,-486.31 90,-488 160.09,-502.13 241.32,-516.18 293.85,-524.97"/>
<polygon fill="black" stroke="black" stroke-width="1.2" points="64.72,-479 54.19,-480.2 63.16,-485.82 64.72,-479"/>
<polygon fill="black" stroke="black" stroke-width="1.2" points="293.52,-528.46 303.96,-526.65 294.67,-521.56 293.52,-528.46"/>
</g>
<!-- err_error3 -->
<g id="node7" class="node">
<title>err_error3</title>
<path fill="white" stroke="black" d="M380.5,-357C380.5,-357 319.5,-357 319.5,-357 313.5,-357 307.5,-351 307.5,-345 307.5,-345 307.5,-333 307.5,-333 307.5,-327 313.5,-321 319.5,-321 319.5,-321 380.5,-321 380.5,-321 386.5,-321 392.5,-327 392.5,-333 392.5,-333 392.5,-345 392.5,-345 392.5,-351 386.5,-357 380.5,-357"/>
<text text-anchor="middle" x="350" y="-335.3" font-family="Helvetica,sans-Serif" font-size="14.00">err_error3</text>
</g>
<!-- rotate&#45;&gt;err_error3 -->
<g id="edge13" class="edge">
<title>rotate&#45;&gt;err_error3</title>
<path fill="none" stroke="black" stroke-width="1.2" d="M156.57,-293.14C165.13,-296.71 174.29,-300.23 183,-303 220.57,-314.94 264.16,-324.23 297.25,-330.38"/>
<polygon fill="black" stroke="black" stroke-width="1.2" points="157.77,-289.85 147.2,-289.12 155.01,-296.28 157.77,-289.85"/>
<polygon fill="black" stroke="black" stroke-width="1.2" points="296.69,-333.83 307.16,-332.18 297.95,-326.95 296.69,-333.83"/>
</g>
<!-- err_error5 -->
<g id="node9" class="node">
<title>err_error5</title>
<path fill="white" stroke="black" d="M256,-294C256,-294 195,-294 195,-294 189,-294 183,-288 183,-282 183,-282 183,-270 183,-270 183,-264 189,-258 195,-258 195,-258 256,-258 256,-258 262,-258 268,-264 268,-270 268,-270 268,-282 268,-282 268,-288 262,-294 256,-294"/>
<text text-anchor="middle" x="225.5" y="-272.3" font-family="Helvetica,sans-Serif" font-size="14.00">err_error5</text>
</g>
<!-- rotate&#45;&gt;err_error5 -->
<g id="edge14" class="edge">
<title>rotate&#45;&gt;err_error5</title>
<path fill="none" stroke="black" stroke-width="1.2" d="M147.09,-276C154.95,-276 163.78,-276 172.59,-276"/>
<polygon fill="black" stroke="black" stroke-width="1.2" points="172.86,-279.5 182.86,-276 172.86,-272.5 172.86,-279.5"/>
</g>
<!-- rotate&#45;&gt;fail_comp1 -->
<g id="edge15" class="edge">
<title>rotate&#45;&gt;fail_comp1</title>
<path fill="none" stroke="black" stroke-width="1.2" d="M129.82,-294.01C141.68,-314.19 162.2,-347.54 183,-374 231.37,-435.55 244.93,-450.63 304,-502 307.01,-504.61 310.22,-507.22 313.5,-509.76"/>
<polygon fill="black" stroke="black" stroke-width="1.2" points="311.59,-512.7 321.7,-515.88 315.78,-507.09 311.59,-512.7"/>
</g>
<!-- fail_comp2 -->
<g id="node15" class="node">
<title>fail_comp2</title>
<path fill="white" stroke="black" d="M1269,-132C1269,-132 1201,-132 1201,-132 1195,-132 1189,-126 1189,-120 1189,-120 1189,-108 1189,-108 1189,-102 1195,-96 1201,-96 1201,-96 1269,-96 1269,-96 1275,-96 1281,-102 1281,-108 1281,-108 1281,-120 1281,-120 1281,-126 1275,-132 1269,-132"/>
<text text-anchor="middle" x="1235" y="-110.3" font-family="Helvetica,sans-Serif" font-size="14.00">fail_comp2</text>
</g>
<!-- rotate&#45;&gt;fail_comp2 -->
<g id="edge16" class="edge">
<title>rotate&#45;&gt;fail_comp2</title>
<path fill="none" stroke="black" stroke-width="1.2" d="M125.12,-248.23C132.84,-217.17 149.73,-167.5 183,-139 296.01,-42.21 689.2,0 838,0 838,0 838,0 971,0 1060.72,0 1154.5,-56.53 1202.13,-89.98"/>
<polygon fill="black" stroke="black" stroke-width="1.2" points="121.7,-247.45 122.84,-257.99 128.52,-249.04 121.7,-247.45"/>
<polygon fill="black" stroke="black" stroke-width="1.2" points="1200.3,-92.97 1210.48,-95.94 1204.37,-87.28 1200.3,-92.97"/>
</g>
<!-- fail_comp4 -->
<g id="node16" class="node">
<title>fail_comp4</title>
<path fill="white" stroke="black" d="M873,-232C873,-232 805,-232 805,-232 799,-232 793,-226 793,-220 793,-220 793,-208 793,-208 793,-202 799,-196 805,-196 805,-196 873,-196 873,-196 879,-196 885,-202 885,-208 885,-208 885,-220 885,-220 885,-226 879,-232 873,-232"/>
<text text-anchor="middle" x="839" y="-210.3" font-family="Helvetica,sans-Serif" font-size="14.00">fail_comp4</text>
</g>
<!-- rotate&#45;&gt;fail_comp4 -->
<g id="edge17" class="edge">
<title>rotate&#45;&gt;fail_comp4</title>
<path fill="none" stroke="black" stroke-width="1.2" d="M128.32,-248.4C137.75,-223.65 155.22,-188.49 183,-170 245.05,-128.69 274.46,-146 349,-146 349,-146 349,-146 471.5,-146 599.75,-146 632.23,-158.31 757,-188 765.56,-190.04 774.52,-192.53 783.24,-195.17"/>
<polygon fill="black" stroke="black" stroke-width="1.2" points="124.98,-247.36 124.88,-257.96 131.56,-249.74 124.98,-247.36"/>
<polygon fill="black" stroke="black" stroke-width="1.2" points="782.35,-198.56 792.94,-198.18 784.42,-191.87 782.35,-198.56"/>
</g>
<!-- pressure -->
<g id="node3" class="node">
<title>pressure</title>
<path fill="white" stroke="black" d="M497,-400C497,-400 444,-400 444,-400 438,-400 432,-394 432,-388 432,-388 432,-376 432,-376 432,-370 438,-364 444,-364 444,-364 497,-364 497,-364 503,-364 509,-370 509,-376 509,-376 509,-388 509,-388 509,-394 503,-400 497,-400"/>
<text text-anchor="middle" x="470.5" y="-378.3" font-family="Helvetica,sans-Serif" font-size="14.00">pressure</text>
</g>
<!-- pressure&#45;&gt;err_error1 -->
<g id="edge18" class="edge">
<title>pressure&#45;&gt;err_error1</title>
<path fill="none" stroke="black" stroke-width="1.2" d="M509.29,-399.34C556.75,-419.48 641.15,-450 717,-450 717,-450 717,-450 971,-450 1045.83,-450 1129.98,-427.69 1182.49,-410.98"/>
<polygon fill="black" stroke="black" stroke-width="1.2" points="1183.8,-414.23 1192.24,-407.83 1181.65,-407.57 1183.8,-414.23"/>
</g>
<!-- err_error2 -->
<g id="node6" class="node">
<title>err_error2</title>
<path fill="white" stroke="black" d="M624.5,-552C624.5,-552 563.5,-552 563.5,-552 557.5,-552 551.5,-546 551.5,-540 551.5,-540 551.5,-528 551.5,-528 551.5,-522 557.5,-516 563.5,-516 563.5,-516 624.5,-516 624.5,-516 630.5,-516 636.5,-522 636.5,-528 636.5,-528 636.5,-540 636.5,-540 636.5,-546 630.5,-552 624.5,-552"/>
<text text-anchor="middle" x="594" y="-530.3" font-family="Helvetica,sans-Serif" font-size="14.00">err_error2</text>
</g>
<!-- pressure&#45;&gt;err_error2 -->
<g id="edge19" class="edge">
<title>pressure&#45;&gt;err_error2</title>
<path fill="none" stroke="black" stroke-width="1.2" d="M496.17,-400.09C500.84,-404.29 505.39,-409.01 509,-414 533.77,-448.24 518.25,-469.29 545,-502 547.09,-504.56 549.44,-506.99 551.95,-509.28"/>
<polygon fill="black" stroke="black" stroke-width="1.2" points="549.89,-512.12 559.84,-515.74 554.32,-506.7 549.89,-512.12"/>
</g>
<!-- mnt_comp1 -->
<g id="node10" class="node">
<title>mnt_comp1</title>
<path fill="white" stroke="black" d="M1403,-232C1403,-232 1329,-232 1329,-232 1323,-232 1317,-226 1317,-220 1317,-220 1317,-208 1317,-208 1317,-202 1323,-196 1329,-196 1329,-196 1403,-196 1403,-196 1409,-196 1415,-202 1415,-208 1415,-208 1415,-220 1415,-220 1415,-226 1409,-232 1403,-232"/>
<text text-anchor="middle" x="1366" y="-210.3" font-family="Helvetica,sans-Serif" font-size="14.00">mnt_comp1</text>
</g>
<!-- pressure&#45;&gt;mnt_comp1 -->
<g id="edge21" class="edge">
<title>pressure&#45;&gt;mnt_comp1</title>
<path fill="none" stroke="black" stroke-width="1.2" d="M502.59,-400.26C504.8,-401.81 506.96,-403.39 509,-405 526.77,-419.01 526.22,-428.38 545,-441 603.62,-480.37 767.38,-564 838,-564 838,-564 838,-564 1105,-564 1265.06,-564 1338.09,-325.2 1358.66,-242.1"/>
<polygon fill="black" stroke="black" stroke-width="1.2" points="1362.08,-242.87 1361.02,-232.32 1355.27,-241.23 1362.08,-242.87"/>
</g>
<!-- mnt_comp2 -->
<g id="node11" class="node">
<title>mnt_comp2</title>
<path fill="white" stroke="black" d="M631,-80C631,-80 557,-80 557,-80 551,-80 545,-74 545,-68 545,-68 545,-56 545,-56 545,-50 551,-44 557,-44 557,-44 631,-44 631,-44 637,-44 643,-50 643,-56 643,-56 643,-68 643,-68 643,-74 637,-80 631,-80"/>
<text text-anchor="middle" x="594" y="-58.3" font-family="Helvetica,sans-Serif" font-size="14.00">mnt_comp2</text>
</g>
<!-- pressure&#45;&gt;mnt_comp2 -->
<g id="edge22" class="edge">
<title>pressure&#45;&gt;mnt_comp2</title>
<path fill="none" stroke="black" stroke-width="1.2" d="M478.38,-363.88C498.63,-310.54 558.13,-153.84 582.45,-89.78"/>
<polygon fill="black" stroke="black" stroke-width="1.2" points="585.77,-90.91 586.04,-80.32 579.22,-88.43 585.77,-90.91"/>
</g>
<!-- mnt_comp4 -->
<g id="node13" class="node">
<title>mnt_comp4</title>
<path fill="white" stroke="black" d="M1007,-232C1007,-232 933,-232 933,-232 927,-232 921,-226 921,-220 921,-220 921,-208 921,-208 921,-202 927,-196 933,-196 933,-196 1007,-196 1007,-196 1013,-196 1019,-202 1019,-208 1019,-208 1019,-220 1019,-220 1019,-226 1013,-232 1007,-232"/>
<text text-anchor="middle" x="970" y="-210.3" font-family="Helvetica,sans-Serif" font-size="14.00">mnt_comp4</text>
</g>
<!-- pressure&#45;&gt;mnt_comp4 -->
<g id="edge23" class="edge">
<title>pressure&#45;&gt;mnt_comp4</title>
<path fill="none" stroke="black" stroke-width="1.2" d="M509.17,-384.43C544.27,-385.77 597.85,-385.43 643,-375 757.13,-348.63 877.1,-275.89 934.47,-237.86"/>
<polygon fill="black" stroke="black" stroke-width="1.2" points="936.76,-240.54 943.13,-232.07 932.87,-234.72 936.76,-240.54"/>
</g>
<!-- pressure&#45;&gt;fail_comp4 -->
<g id="edge25" class="edge">
<title>pressure&#45;&gt;fail_comp4</title>
<path fill="none" stroke="black" stroke-width="1.2" d="M509.2,-378.47C544.57,-374.36 598.53,-365.96 643,-350 697.48,-330.44 709.86,-320.6 757,-287 776.95,-272.78 797.44,-254.28 812.81,-239.46"/>
<polygon fill="black" stroke="black" stroke-width="1.2" points="815.65,-241.58 820.36,-232.09 810.76,-236.57 815.65,-241.58"/>
</g>
<!-- vibration&#45;&gt;rotate -->
<g id="edge10" class="edge">
<title>vibration&#45;&gt;rotate</title>
<path fill="none" stroke="black" stroke-width="1.2" d="M678.59,-250.31C630.51,-239.05 545.47,-222 471.5,-222 349,-222 349,-222 349,-222 274.25,-222 254.8,-228.23 183,-249 174.22,-251.54 165.04,-254.96 156.46,-258.52"/>
<polygon fill="black" stroke="black" stroke-width="1.2" points="154.9,-255.38 147.1,-262.55 157.67,-261.81 154.9,-255.38"/>
</g>
<!-- vibration&#45;&gt;err_error1 -->
<g id="edge26" class="edge">
<title>vibration&#45;&gt;err_error1</title>
<path fill="none" stroke="black" stroke-width="1.2" d="M757.29,-269.89C848.54,-293.45 1078.93,-352.95 1182.35,-379.66"/>
<polygon fill="black" stroke="black" stroke-width="1.2" points="1181.69,-383.11 1192.25,-382.22 1183.44,-376.33 1181.69,-383.11"/>
</g>
<!-- vibration&#45;&gt;err_error3 -->
<g id="edge27" class="edge">
<title>vibration&#45;&gt;err_error3</title>
<path fill="none" stroke="black" stroke-width="1.2" d="M668.85,-270.39C599.91,-285.27 473.58,-312.54 402.72,-327.84"/>
<polygon fill="black" stroke="black" stroke-width="1.2" points="669.96,-273.73 679,-268.2 668.48,-266.89 669.96,-273.73"/>
<polygon fill="black" stroke="black" stroke-width="1.2" points="401.66,-324.48 392.63,-330.01 403.14,-331.33 401.66,-324.48"/>
</g>
<!-- vibration&#45;&gt;fail_comp4 -->
<g id="edge30" class="edge">
<title>vibration&#45;&gt;fail_comp4</title>
<path fill="none" stroke="black" stroke-width="1.2" d="M757.31,-245.19C765.59,-241.99 774.5,-238.54 783.28,-235.15"/>
<polygon fill="black" stroke="black" stroke-width="1.2" points="784.64,-238.38 792.71,-231.51 782.12,-231.85 784.64,-238.38"/>
</g>
<!-- err_error1&#45;&gt;rotate -->
<g id="edge11" class="edge">
<title>err_error1&#45;&gt;rotate</title>
<path fill="none" stroke="black" stroke-width="1.2" d="M1207.98,-374.77C1192.55,-364.61 1172.3,-352.36 1153,-344 1069.13,-307.68 846.16,-253.09 757,-233 631.4,-204.7 600.24,-184 471.5,-184 349,-184 349,-184 349,-184 273.11,-184 250.96,-190.22 183,-224 169.14,-230.89 155.61,-241.3 144.62,-250.99"/>
<polygon fill="black" stroke="black" stroke-width="1.2" points="142.12,-248.54 137.1,-257.87 146.84,-253.7 142.12,-248.54"/>
</g>
<!-- err_error2&#45;&gt;volt -->
<g id="edge4" class="edge">
<title>err_error2&#45;&gt;volt</title>
<path fill="none" stroke="black" stroke-width="1.2" d="M551.49,-546.81C503.64,-560.42 422.42,-580 351,-580 224.5,-580 224.5,-580 224.5,-580 156.57,-580 89.56,-530.33 54.05,-498.99"/>
<polygon fill="black" stroke="black" stroke-width="1.2" points="56.31,-496.32 46.54,-492.22 51.62,-501.52 56.31,-496.32"/>
</g>
<!-- err_error2&#45;&gt;rotate -->
<g id="edge12" class="edge">
<title>err_error2&#45;&gt;rotate</title>
<path fill="none" stroke="black" stroke-width="1.2" d="M551.41,-523.19C518.36,-513.98 471.32,-499.48 432,-482 371.95,-455.31 356.69,-447.27 304,-408 286.35,-394.85 285.77,-386.98 268,-374 233.14,-348.53 218.85,-351.05 183,-327 171.12,-319.03 158.7,-309.39 148.04,-300.65"/>
<polygon fill="black" stroke="black" stroke-width="1.2" points="150.19,-297.88 140.26,-294.18 145.71,-303.26 150.19,-297.88"/>
</g>
<!-- err_error2&#45;&gt;err_error1 -->
<g id="edge31" class="edge">
<title>err_error2&#45;&gt;err_error1</title>
<path fill="none" stroke="black" stroke-width="1.2" d="M636.69,-521.19C684.73,-507.58 766.3,-488 838,-488 838,-488 838,-488 971,-488 1052.59,-488 1078.68,-497.67 1153,-464 1175.98,-453.59 1197.24,-434.43 1212.2,-418.64"/>
<polygon fill="black" stroke="black" stroke-width="1.2" points="1214.84,-420.94 1219.03,-411.21 1209.68,-416.2 1214.84,-420.94"/>
</g>
<!-- err_error3&#45;&gt;volt -->
<g id="edge5" class="edge">
<title>err_error3&#45;&gt;volt</title>
<path fill="none" stroke="black" stroke-width="1.2" d="M307.44,-356.48C243.86,-383.22 123.54,-433.82 63.68,-458.99"/>
<polygon fill="black" stroke="black" stroke-width="1.2" points="62.13,-455.85 54.27,-462.95 64.84,-462.3 62.13,-455.85"/>
</g>
<!-- err_error3&#45;&gt;pressure -->
<g id="edge20" class="edge">
<title>err_error3&#45;&gt;pressure</title>
<path fill="none" stroke="black" stroke-width="1.2" d="M392.78,-354.16C402.27,-357.61 412.43,-361.29 422.14,-364.81"/>
<polygon fill="black" stroke="black" stroke-width="1.2" points="421.06,-368.15 431.66,-368.27 423.45,-361.57 421.06,-368.15"/>
</g>
<!-- err_error3&#45;&gt;err_error2 -->
<g id="edge33" class="edge">
<title>err_error3&#45;&gt;err_error2</title>
<path fill="none" stroke="black" stroke-width="1.2" d="M369.73,-357.14C385.6,-372.01 409.32,-393.11 432,-409 464.11,-431.49 479.74,-425.92 509,-452 529.44,-470.22 525.29,-482.99 545,-502 547.84,-504.74 550.94,-507.39 554.15,-509.92"/>
<polygon fill="black" stroke="black" stroke-width="1.2" points="552.17,-512.81 562.3,-515.93 556.33,-507.18 552.17,-512.81"/>
</g>
<!-- err_error4&#45;&gt;err_error1 -->
<g id="edge32" class="edge">
<title>err_error4&#45;&gt;err_error1</title>
<path fill="none" stroke="black" stroke-width="1.2" d="M1143.08,-178C1146.71,-180.69 1150.11,-183.68 1153,-187 1199.07,-239.9 1220.62,-322.09 1229.2,-364.91"/>
<polygon fill="black" stroke="black" stroke-width="1.2" points="1225.79,-365.74 1231.11,-374.91 1232.67,-364.43 1225.79,-365.74"/>
</g>
<!-- err_error4&#45;&gt;mnt_comp1 -->
<g id="edge36" class="edge">
<title>err_error4&#45;&gt;mnt_comp1</title>
<path fill="none" stroke="black" stroke-width="1.2" d="M1156.66,-170.73C1199.96,-179.72 1261.74,-192.55 1306.78,-201.91"/>
<polygon fill="black" stroke="black" stroke-width="1.2" points="1157.28,-167.28 1146.77,-168.68 1155.85,-174.14 1157.28,-167.28"/>
<polygon fill="black" stroke="black" stroke-width="1.2" points="1306.2,-205.36 1316.7,-203.97 1307.62,-198.51 1306.2,-205.36"/>
</g>
<!-- err_error4&#45;&gt;fail_comp2 -->
<g id="edge38" class="edge">
<title>err_error4&#45;&gt;fail_comp2</title>
<path fill="none" stroke="black" stroke-width="1.2" d="M1156.28,-141.72C1163.88,-139 1171.74,-136.2 1179.41,-133.47"/>
<polygon fill="black" stroke="black" stroke-width="1.2" points="1154.77,-138.54 1146.53,-145.19 1157.12,-145.13 1154.77,-138.54"/>
<polygon fill="black" stroke="black" stroke-width="1.2" points="1180.74,-136.71 1188.98,-130.05 1178.39,-130.11 1180.74,-136.71"/>
</g>
<!-- err_error5&#45;&gt;vibration -->
<g id="edge28" class="edge">
<title>err_error5&#45;&gt;vibration</title>
<path fill="none" stroke="black" stroke-width="1.2" d="M268.32,-274.64C358.85,-271.68 572.54,-264.71 668.67,-261.58"/>
<polygon fill="black" stroke="black" stroke-width="1.2" points="668.82,-265.07 678.7,-261.25 668.59,-258.08 668.82,-265.07"/>
</g>
<!-- err_error5&#45;&gt;err_error2 -->
<g id="edge34" class="edge">
<title>err_error5&#45;&gt;err_error2</title>
<path fill="none" stroke="black" stroke-width="1.2" d="M239.34,-294.04C253.66,-313.34 278.21,-344.12 304,-366 345.19,-400.94 479.27,-473.89 549.39,-511.1"/>
<polygon fill="black" stroke="black" stroke-width="1.2" points="547.95,-514.31 558.43,-515.89 551.23,-508.12 547.95,-514.31"/>
</g>
<!-- err_error5&#45;&gt;err_error3 -->
<g id="edge35" class="edge">
<title>err_error5&#45;&gt;err_error3</title>
<path fill="none" stroke="black" stroke-width="1.2" d="M261.6,-294.05C275.06,-300.97 290.59,-308.96 304.79,-316.26"/>
<polygon fill="black" stroke="black" stroke-width="1.2" points="303.4,-319.48 313.89,-320.94 306.6,-313.26 303.4,-319.48"/>
</g>
<!-- mnt_comp1&#45;&gt;volt -->
<g id="edge7" class="edge">
<title>mnt_comp1&#45;&gt;volt</title>
<path fill="none" stroke="black" stroke-width="1.2" d="M1365.55,-232.11C1366.32,-287.68 1361.62,-458.33 1281,-563 1233.48,-624.7 1138.53,-656 1105,-656 224.5,-656 224.5,-656 224.5,-656 158.3,-656 137.73,-637.87 90,-592 63.78,-566.8 46.39,-528.08 36.87,-501.93"/>
<polygon fill="black" stroke="black" stroke-width="1.2" points="40.09,-500.53 33.49,-492.24 33.48,-502.83 40.09,-500.53"/>
</g>
<!-- mnt_comp2&#45;&gt;volt -->
<g id="edge8" class="edge">
<title>mnt_comp2&#45;&gt;volt</title>
<path fill="none" stroke="black" stroke-width="1.2" d="M544.55,-52.43C495.85,-43.65 418.53,-32 351,-32 224.5,-32 224.5,-32 224.5,-32 163.78,-32 132.3,-12.44 90,-56 35.9,-111.71 28.88,-361.18 28.07,-445.81"/>
<polygon fill="black" stroke="black" stroke-width="1.2" points="24.57,-445.93 27.99,-455.96 31.57,-445.98 24.57,-445.93"/>
</g>
<!-- mnt_comp2&#45;&gt;vibration -->
<g id="edge29" class="edge">
<title>mnt_comp2&#45;&gt;vibration</title>
<path fill="none" stroke="black" stroke-width="1.2" d="M606.26,-80.27C627.87,-115.34 675.24,-192.22 700.45,-233.14"/>
<polygon fill="black" stroke="black" stroke-width="1.2" points="697.54,-235.09 705.77,-241.77 703.5,-231.42 697.54,-235.09"/>
</g>
<!-- mnt_comp2&#45;&gt;mnt_comp1 -->
<g id="edge39" class="edge">
<title>mnt_comp2&#45;&gt;mnt_comp1</title>
<path fill="none" stroke="black" stroke-width="1.2" d="M643.27,-54.41C692.21,-47.38 770.17,-38 838,-38 838,-38 838,-38 1105,-38 1186.2,-38 1215.34,-39.23 1281,-87 1316.15,-112.57 1340.79,-157.68 1353.93,-186.68"/>
<polygon fill="black" stroke="black" stroke-width="1.2" points="1350.73,-188.09 1357.95,-195.85 1357.14,-185.29 1350.73,-188.09"/>
</g>
<!-- mnt_comp3 -->
<g id="node12" class="node">
<title>mnt_comp3</title>
<path fill="white" stroke="black" d="M1141,-232C1141,-232 1067,-232 1067,-232 1061,-232 1055,-226 1055,-220 1055,-220 1055,-208 1055,-208 1055,-202 1061,-196 1067,-196 1067,-196 1141,-196 1141,-196 1147,-196 1153,-202 1153,-208 1153,-208 1153,-220 1153,-220 1153,-226 1147,-232 1141,-232"/>
<text text-anchor="middle" x="1104" y="-210.3" font-family="Helvetica,sans-Serif" font-size="14.00">mnt_comp3</text>
</g>
<!-- mnt_comp3&#45;&gt;mnt_comp1 -->
<g id="edge40" class="edge">
<title>mnt_comp3&#45;&gt;mnt_comp1</title>
<path fill="none" stroke="black" stroke-width="1.2" d="M1153.29,-214C1196.71,-214 1260.57,-214 1306.8,-214"/>
<polygon fill="black" stroke="black" stroke-width="1.2" points="1306.96,-217.5 1316.96,-214 1306.96,-210.5 1306.96,-217.5"/>
</g>
<!-- mnt_comp4&#45;&gt;err_error4 -->
<g id="edge37" class="edge">
<title>mnt_comp4&#45;&gt;err_error4</title>
<path fill="none" stroke="black" stroke-width="1.2" d="M1015.32,-195.87C1027.02,-191.08 1039.75,-185.88 1051.78,-180.95"/>
<polygon fill="black" stroke="black" stroke-width="1.2" points="1053.32,-184.11 1061.25,-177.08 1050.67,-177.63 1053.32,-184.11"/>
</g>
<!-- mnt_comp4&#45;&gt;mnt_comp3 -->
<g id="edge44" class="edge">
<title>mnt_comp4&#45;&gt;mnt_comp3</title>
<path fill="none" stroke="black" stroke-width="1.2" d="M1019.03,-214C1027.31,-214 1036,-214 1044.52,-214"/>
<polygon fill="black" stroke="black" stroke-width="1.2" points="1044.79,-217.5 1054.79,-214 1044.79,-210.5 1044.79,-217.5"/>
</g>
<!-- fail_comp1&#45;&gt;pressure -->
<g id="edge24" class="edge">
<title>fail_comp1&#45;&gt;pressure</title>
<path fill="none" stroke="black" stroke-width="1.2" d="M365.06,-515.97C385.91,-489.23 425.13,-438.92 449.12,-408.14"/>
<polygon fill="black" stroke="black" stroke-width="1.2" points="452.07,-410.05 455.46,-400.01 446.55,-405.74 452.07,-410.05"/>
</g>
<!-- fail_comp1&#45;&gt;mnt_comp1 -->
<g id="edge41" class="edge">
<title>fail_comp1&#45;&gt;mnt_comp1</title>
<path fill="none" stroke="black" stroke-width="1.2" d="M396.17,-551.3C464.53,-575.89 598.84,-618 717,-618 717,-618 717,-618 1105,-618 1198.93,-618 1225.33,-576.65 1281,-501 1340.72,-419.85 1358.17,-296.81 1363.11,-242.02"/>
<polygon fill="black" stroke="black" stroke-width="1.2" points="1366.61,-242.26 1363.95,-232.01 1359.63,-241.68 1366.61,-242.26"/>
</g>
<!-- fail_comp2&#45;&gt;mnt_comp1 -->
<g id="edge42" class="edge">
<title>fail_comp2&#45;&gt;mnt_comp1</title>
<path fill="none" stroke="black" stroke-width="1.2" d="M1259.36,-132.11C1280.05,-148.15 1310.44,-171.71 1333.32,-189.44"/>
<polygon fill="black" stroke="black" stroke-width="1.2" points="1331.33,-192.33 1341.38,-195.69 1335.62,-186.79 1331.33,-192.33"/>
</g>
<!-- fail_comp2&#45;&gt;mnt_comp2 -->
<g id="edge43" class="edge">
<title>fail_comp2&#45;&gt;mnt_comp2</title>
<path fill="none" stroke="black" stroke-width="1.2" d="M1188.68,-103.41C1136.49,-92.17 1048.04,-76 971,-76 838,-76 838,-76 838,-76 774.88,-76 702.69,-71.23 653.5,-67.26"/>
<polygon fill="black" stroke="black" stroke-width="1.2" points="653.62,-63.76 643.36,-66.43 653.04,-70.74 653.62,-63.76"/>
</g>
<!-- fail_comp4&#45;&gt;mnt_comp4 -->
<g id="edge45" class="edge">
<title>fail_comp4&#45;&gt;mnt_comp4</title>
<path fill="none" stroke="black" stroke-width="1.2" d="M885.12,-214C893.28,-214 901.9,-214 910.38,-214"/>
<polygon fill="black" stroke="black" stroke-width="1.2" points="910.62,-217.5 920.62,-214 910.62,-210.5 910.62,-217.5"/>
</g>
<!-- fail_comp4&#45;&gt;fail_comp2 -->
<g id="edge46" class="edge">
<title>fail_comp4&#45;&gt;fail_comp2</title>
<path fill="none" stroke="black" stroke-width="1.2" d="M878.68,-195.99C921.02,-177.1 991.35,-148.11 1055,-133 1095.82,-123.31 1143.05,-118.56 1178.75,-116.23"/>
<polygon fill="black" stroke="black" stroke-width="1.2" points="1179.19,-119.71 1188.96,-115.61 1178.77,-112.72 1179.19,-119.71"/>
</g>
</g>
</svg>
