<?xml version="1.0" encoding="UTF-8" standalone="no"?>
<!DOCTYPE svg PUBLIC "-//W3C//DTD SVG 1.1//EN"
 "http://www.w3.org/Graphics/SVG/1.1/DTD/svg11.dtd">
<!-- Generated by graphviz version 2.50.0 (0)
 -->
<!-- Title: G Pages: 1 -->
<svg width="1048pt" height="714pt"
 viewBox="0.00 0.00 1048.00 713.58" xmlns="http://www.w3.org/2000/svg" xmlns:xlink="http://www.w3.org/1999/xlink">
<g id="graph0" class="graph" transform="scale(1 1) rotate(0) translate(4 709.58)">
<title>G</title>
<polygon fill="white" stroke="transparent" points="-4,4 -4,-709.58 1044,-709.58 1044,4 -4,4"/>
<text text-anchor="middle" x="520" y="-688.78" font-family="Times,serif" font-size="16.00">model=model2/nbcb_w_mixed.json [machine 11]</text>
<!-- volt -->
<g id="node1" class="node">
<title>volt</title>
<path fill="white" stroke="black" d="M42,-456C42,-456 12,-456 12,-456 6,-456 0,-450 0,-444 0,-444 0,-432 0,-432 0,-426 6,-420 12,-420 12,-420 42,-420 42,-420 48,-420 54,-426 54,-432 54,-432 54,-444 54,-444 54,-450 48,-456 42,-456"/>
<text text-anchor="middle" x="27" y="-434.3" font-family="Helvetica,sans-Serif" font-size="14.00">volt</text>
</g>
<!-- err_error1 -->
<g id="node5" class="node">
<title>err_error1</title>
<path fill="white" stroke="black" d="M498,-536C498,-536 437,-536 437,-536 431,-536 425,-530 425,-524 425,-524 425,-512 425,-512 425,-506 431,-500 437,-500 437,-500 498,-500 498,-500 504,-500 510,-506 510,-512 510,-512 510,-524 510,-524 510,-530 504,-536 498,-536"/>
<text text-anchor="middle" x="467.5" y="-514.3" font-family="Helvetica,sans-Serif" font-size="14.00">err_error1</text>
</g>
<!-- volt&#45;&gt;err_error1 -->
<g id="edge2" class="edge">
<title>volt&#45;&gt;err_error1</title>
<path fill="none" stroke="black" stroke-width="1.2" d="M64.29,-444.62C142.07,-458.81 325.04,-492.19 414.89,-508.58"/>
<polygon fill="black" stroke="black" stroke-width="1.2" points="64.58,-441.12 54.12,-442.76 63.33,-448 64.58,-441.12"/>
<polygon fill="black" stroke="black" stroke-width="1.2" points="414.38,-512.05 424.85,-510.4 415.64,-505.16 414.38,-512.05"/>
</g>
<!-- err_error2 -->
<g id="node6" class="node">
<title>err_error2</title>
<path fill="white" stroke="black" d="M163,-376C163,-376 102,-376 102,-376 96,-376 90,-370 90,-364 90,-364 90,-352 90,-352 90,-346 96,-340 102,-340 102,-340 163,-340 163,-340 169,-340 175,-346 175,-352 175,-352 175,-364 175,-364 175,-370 169,-376 163,-376"/>
<text text-anchor="middle" x="132.5" y="-354.3" font-family="Helvetica,sans-Serif" font-size="14.00">err_error2</text>
</g>
<!-- volt&#45;&gt;err_error2 -->
<g id="edge3" class="edge">
<title>volt&#45;&gt;err_error2</title>
<path fill="none" stroke="black" stroke-width="1.2" d="M51.49,-419.85C65.78,-408.8 84.22,-394.55 99.79,-382.51"/>
<polygon fill="black" stroke="black" stroke-width="1.2" points="102.34,-384.97 108.11,-376.08 98.05,-379.43 102.34,-384.97"/>
</g>
<!-- rotate -->
<g id="node2" class="node">
<title>rotate</title>
<path fill="white" stroke="black" d="M377,-376C377,-376 344,-376 344,-376 338,-376 332,-370 332,-364 332,-364 332,-352 332,-352 332,-346 338,-340 344,-340 344,-340 377,-340 377,-340 383,-340 389,-346 389,-352 389,-352 389,-364 389,-364 389,-370 383,-376 377,-376"/>
<text text-anchor="middle" x="360.5" y="-354.3" font-family="Helvetica,sans-Serif" font-size="14.00">rotate</text>
</g>
<!-- pressure -->
<g id="node3" class="node">
<title>pressure</title>
<path fill="white" stroke="black" d="M494,-330C494,-330 441,-330 441,-330 435,-330 429,-324 429,-318 429,-318 429,-306 429,-306 429,-300 435,-294 441,-294 441,-294 494,-294 494,-294 500,-294 506,-300 506,-306 506,-306 506,-318 506,-318 506,-324 500,-330 494,-330"/>
<text text-anchor="middle" x="467.5" y="-308.3" font-family="Helvetica,sans-Serif" font-size="14.00">pressure</text>
</g>
<!-- rotate&#45;&gt;pressure -->
<g id="edge9" class="edge">
<title>rotate&#45;&gt;pressure</title>
<path fill="none" stroke="black" stroke-width="1.2" d="M389.09,-345.91C398.39,-341.84 409.05,-337.17 419.43,-332.62"/>
<polygon fill="black" stroke="black" stroke-width="1.2" points="421.08,-335.72 428.83,-328.5 418.27,-329.31 421.08,-335.72"/>
</g>
<!-- vibration -->
<g id="node4" class="node">
<title>vibration</title>
<path fill="white" stroke="black" d="M619,-288C619,-288 565,-288 565,-288 559,-288 553,-282 553,-276 553,-276 553,-264 553,-264 553,-258 559,-252 565,-252 565,-252 619,-252 619,-252 625,-252 631,-258 631,-264 631,-264 631,-276 631,-276 631,-282 625,-288 619,-288"/>
<text text-anchor="middle" x="592" y="-266.3" font-family="Helvetica,sans-Serif" font-size="14.00">vibration</text>
</g>
<!-- rotate&#45;&gt;vibration -->
<g id="edge10" class="edge">
<title>rotate&#45;&gt;vibration</title>
<path fill="none" stroke="black" stroke-width="1.2" d="M377.32,-331.1C388.46,-314.81 404.93,-295.26 425,-285 461.31,-266.44 507.95,-263.77 542.54,-265.12"/>
<polygon fill="black" stroke="black" stroke-width="1.2" points="374.23,-329.45 371.7,-339.74 380.09,-333.27 374.23,-329.45"/>
<polygon fill="black" stroke="black" stroke-width="1.2" points="542.69,-268.63 552.86,-265.65 543.06,-261.64 542.69,-268.63"/>
</g>
<!-- rotate&#45;&gt;err_error1 -->
<g id="edge11" class="edge">
<title>rotate&#45;&gt;err_error1</title>
<path fill="none" stroke="black" stroke-width="1.2" d="M371.05,-385.76C381.4,-413.2 399.88,-455.39 425,-486 426.89,-488.31 428.98,-490.55 431.19,-492.7"/>
<polygon fill="black" stroke="black" stroke-width="1.2" points="374.2,-384.2 367.48,-376.02 367.63,-386.61 374.2,-384.2"/>
<polygon fill="black" stroke="black" stroke-width="1.2" points="429.21,-495.63 439.01,-499.67 433.87,-490.4 429.21,-495.63"/>
</g>
<!-- rotate&#45;&gt;err_error2 -->
<g id="edge12" class="edge">
<title>rotate&#45;&gt;err_error2</title>
<path fill="none" stroke="black" stroke-width="1.2" d="M331.91,-358C295.53,-358 230.82,-358 185.22,-358"/>
<polygon fill="black" stroke="black" stroke-width="1.2" points="185.22,-354.5 175.22,-358 185.22,-361.5 185.22,-354.5"/>
</g>
<!-- err_error3 -->
<g id="node7" class="node">
<title>err_error3</title>
<path fill="white" stroke="black" d="M753.5,-187C753.5,-187 692.5,-187 692.5,-187 686.5,-187 680.5,-181 680.5,-175 680.5,-175 680.5,-163 680.5,-163 680.5,-157 686.5,-151 692.5,-151 692.5,-151 753.5,-151 753.5,-151 759.5,-151 765.5,-157 765.5,-163 765.5,-163 765.5,-175 765.5,-175 765.5,-181 759.5,-187 753.5,-187"/>
<text text-anchor="middle" x="723" y="-165.3" font-family="Helvetica,sans-Serif" font-size="14.00">err_error3</text>
</g>
<!-- rotate&#45;&gt;err_error3 -->
<g id="edge13" class="edge">
<title>rotate&#45;&gt;err_error3</title>
<path fill="none" stroke="black" stroke-width="1.2" d="M372.96,-330.77C383.48,-308.93 401.06,-279.04 425,-261 498.81,-205.38 606.74,-183 670.14,-174.29"/>
<polygon fill="black" stroke="black" stroke-width="1.2" points="369.77,-329.32 368.76,-339.87 376.13,-332.26 369.77,-329.32"/>
<polygon fill="black" stroke="black" stroke-width="1.2" points="670.84,-177.72 680.3,-172.95 669.93,-170.78 670.84,-177.72"/>
</g>
<!-- mnt_comp1 -->
<g id="node9" class="node">
<title>mnt_comp1</title>
<path fill="white" stroke="black" d="M894,-376C894,-376 820,-376 820,-376 814,-376 808,-370 808,-364 808,-364 808,-352 808,-352 808,-346 814,-340 820,-340 820,-340 894,-340 894,-340 900,-340 906,-346 906,-352 906,-352 906,-364 906,-364 906,-370 900,-376 894,-376"/>
<text text-anchor="middle" x="857" y="-354.3" font-family="Helvetica,sans-Serif" font-size="14.00">mnt_comp1</text>
</g>
<!-- rotate&#45;&gt;mnt_comp1 -->
<g id="edge15" class="edge">
<title>rotate&#45;&gt;mnt_comp1</title>
<path fill="none" stroke="black" stroke-width="1.2" d="M389.15,-358C467.19,-358 690.48,-358 797.47,-358"/>
<polygon fill="black" stroke="black" stroke-width="1.2" points="797.76,-361.5 807.76,-358 797.76,-354.5 797.76,-361.5"/>
</g>
<!-- mnt_comp3 -->
<g id="node11" class="node">
<title>mnt_comp3</title>
<path fill="white" stroke="black" d="M894,-467C894,-467 820,-467 820,-467 814,-467 808,-461 808,-455 808,-455 808,-443 808,-443 808,-437 814,-431 820,-431 820,-431 894,-431 894,-431 900,-431 906,-437 906,-443 906,-443 906,-455 906,-455 906,-461 900,-467 894,-467"/>
<text text-anchor="middle" x="857" y="-445.3" font-family="Helvetica,sans-Serif" font-size="14.00">mnt_comp3</text>
</g>
<!-- rotate&#45;&gt;mnt_comp3 -->
<g id="edge16" class="edge">
<title>rotate&#45;&gt;mnt_comp3</title>
<path fill="none" stroke="black" stroke-width="1.2" d="M399.23,-366.8C407.69,-368.64 416.63,-370.48 425,-372 578.3,-399.9 620.18,-386.92 772,-422 780.57,-423.98 789.51,-426.43 798.24,-429.04"/>
<polygon fill="black" stroke="black" stroke-width="1.2" points="399.75,-363.33 389.23,-364.58 398.23,-370.16 399.75,-363.33"/>
<polygon fill="black" stroke="black" stroke-width="1.2" points="797.38,-432.43 807.97,-432.03 799.44,-425.74 797.38,-432.43"/>
</g>
<!-- fail_comp2 -->
<g id="node13" class="node">
<title>fail_comp2</title>
<path fill="white" stroke="black" d="M626,-574C626,-574 558,-574 558,-574 552,-574 546,-568 546,-562 546,-562 546,-550 546,-550 546,-544 552,-538 558,-538 558,-538 626,-538 626,-538 632,-538 638,-544 638,-550 638,-550 638,-562 638,-562 638,-568 632,-574 626,-574"/>
<text text-anchor="middle" x="592" y="-552.3" font-family="Helvetica,sans-Serif" font-size="14.00">fail_comp2</text>
</g>
<!-- rotate&#45;&gt;fail_comp2 -->
<g id="edge17" class="edge">
<title>rotate&#45;&gt;fail_comp2</title>
<path fill="none" stroke="black" stroke-width="1.2" d="M370.81,-376.21C381.64,-395.95 401.12,-427.38 425,-448 457.04,-475.67 474.41,-468.07 510,-491 528.54,-502.95 547.86,-518.32 562.98,-531.12"/>
<polygon fill="black" stroke="black" stroke-width="1.2" points="561.05,-534.07 570.92,-537.92 565.61,-528.76 561.05,-534.07"/>
</g>
<!-- pressure&#45;&gt;vibration -->
<g id="edge19" class="edge">
<title>pressure&#45;&gt;vibration</title>
<path fill="none" stroke="black" stroke-width="1.2" d="M506.25,-299.06C517.9,-295.06 530.89,-290.61 543.12,-286.41"/>
<polygon fill="black" stroke="black" stroke-width="1.2" points="544.41,-289.67 552.74,-283.12 542.14,-283.05 544.41,-289.67"/>
</g>
<!-- err_error4 -->
<g id="node8" class="node">
<title>err_error4</title>
<path fill="white" stroke="black" d="M284,-330C284,-330 223,-330 223,-330 217,-330 211,-324 211,-318 211,-318 211,-306 211,-306 211,-300 217,-294 223,-294 223,-294 284,-294 284,-294 290,-294 296,-300 296,-306 296,-306 296,-318 296,-318 296,-324 290,-330 284,-330"/>
<text text-anchor="middle" x="253.5" y="-308.3" font-family="Helvetica,sans-Serif" font-size="14.00">err_error4</text>
</g>
<!-- pressure&#45;&gt;err_error4 -->
<g id="edge21" class="edge">
<title>pressure&#45;&gt;err_error4</title>
<path fill="none" stroke="black" stroke-width="1.2" d="M418.46,-312C385.09,-312 340.65,-312 306.46,-312"/>
<polygon fill="black" stroke="black" stroke-width="1.2" points="418.87,-315.5 428.87,-312 418.87,-308.5 418.87,-315.5"/>
<polygon fill="black" stroke="black" stroke-width="1.2" points="306.13,-308.5 296.13,-312 306.13,-315.5 306.13,-308.5"/>
</g>
<!-- pressure&#45;&gt;fail_comp2 -->
<g id="edge23" class="edge">
<title>pressure&#45;&gt;fail_comp2</title>
<path fill="none" stroke="black" stroke-width="1.2" d="M475.54,-330.22C488.21,-362.37 516.3,-431.01 546,-486 553.98,-500.77 563.98,-516.55 572.53,-529.38"/>
<polygon fill="black" stroke="black" stroke-width="1.2" points="569.68,-531.42 578.18,-537.75 575.48,-527.5 569.68,-531.42"/>
</g>
<!-- vibration&#45;&gt;volt -->
<g id="edge1" class="edge">
<title>vibration&#45;&gt;volt</title>
<path fill="none" stroke="black" stroke-width="1.2" d="M583.64,-251.8C560.18,-197.1 481.61,-38 361.5,-38 252.5,-38 252.5,-38 252.5,-38 81.85,-38 39.59,-318.27 30.35,-409.6"/>
<polygon fill="black" stroke="black" stroke-width="1.2" points="26.84,-409.49 29.38,-419.77 33.81,-410.15 26.84,-409.49"/>
</g>
<!-- vibration&#45;&gt;err_error2 -->
<g id="edge24" class="edge">
<title>vibration&#45;&gt;err_error2</title>
<path fill="none" stroke="black" stroke-width="1.2" d="M552.91,-260.89C539.44,-258.09 524.12,-255.38 510,-254 377.03,-240.99 330.49,-225.25 211,-285 188.76,-296.12 168.49,-315.72 154.26,-331.81"/>
<polygon fill="black" stroke="black" stroke-width="1.2" points="151.23,-329.96 147.39,-339.84 156.55,-334.51 151.23,-329.96"/>
</g>
<!-- vibration&#45;&gt;err_error3 -->
<g id="edge25" class="edge">
<title>vibration&#45;&gt;err_error3</title>
<path fill="none" stroke="black" stroke-width="1.2" d="M627.61,-245.76C631.14,-243.17 634.66,-240.56 638,-238 656.51,-223.84 676.71,-207.29 692.66,-193.95"/>
<polygon fill="black" stroke="black" stroke-width="1.2" points="625.45,-243 619.4,-251.69 629.55,-248.67 625.45,-243"/>
<polygon fill="black" stroke="black" stroke-width="1.2" points="695.17,-196.4 700.58,-187.29 690.67,-191.04 695.17,-196.4"/>
</g>
<!-- vibration&#45;&gt;err_error4 -->
<g id="edge26" class="edge">
<title>vibration&#45;&gt;err_error4</title>
<path fill="none" stroke="black" stroke-width="1.2" d="M552.75,-264.87C539.27,-263.3 523.99,-261.77 510,-261 472.28,-258.91 462.38,-255.53 425,-261 383.96,-267.01 339.07,-280.74 305.66,-292.44"/>
<polygon fill="black" stroke="black" stroke-width="1.2" points="304.37,-289.19 296.12,-295.84 306.71,-295.78 304.37,-289.19"/>
</g>
<!-- vibration&#45;&gt;mnt_comp1 -->
<g id="edge27" class="edge">
<title>vibration&#45;&gt;mnt_comp1</title>
<path fill="none" stroke="black" stroke-width="1.2" d="M631.24,-282.8C675.14,-297.48 747.61,-321.73 798.36,-338.71"/>
<polygon fill="black" stroke="black" stroke-width="1.2" points="797.29,-342.05 807.89,-341.9 799.51,-335.41 797.29,-342.05"/>
</g>
<!-- fail_comp3 -->
<g id="node14" class="node">
<title>fail_comp3</title>
<path fill="white" stroke="black" d="M757,-467C757,-467 689,-467 689,-467 683,-467 677,-461 677,-455 677,-455 677,-443 677,-443 677,-437 683,-431 689,-431 689,-431 757,-431 757,-431 763,-431 769,-437 769,-443 769,-443 769,-455 769,-455 769,-461 763,-467 757,-467"/>
<text text-anchor="middle" x="723" y="-445.3" font-family="Helvetica,sans-Serif" font-size="14.00">fail_comp3</text>
</g>
<!-- vibration&#45;&gt;fail_comp3 -->
<g id="edge29" class="edge">
<title>vibration&#45;&gt;fail_comp3</title>
<path fill="none" stroke="black" stroke-width="1.2" d="M606.08,-288.15C628.97,-319.91 676.38,-385.69 702.93,-422.53"/>
<polygon fill="black" stroke="black" stroke-width="1.2" points="700.2,-424.74 708.89,-430.8 705.88,-420.64 700.2,-424.74"/>
</g>
<!-- err_error2&#45;&gt;err_error4 -->
<g id="edge31" class="edge">
<title>err_error2&#45;&gt;err_error4</title>
<path fill="none" stroke="black" stroke-width="1.2" d="M175.12,-341.91C183.59,-338.64 192.58,-335.16 201.34,-331.78"/>
<polygon fill="black" stroke="black" stroke-width="1.2" points="202.64,-335.03 210.7,-328.16 200.11,-328.5 202.64,-335.03"/>
</g>
<!-- err_error2&#45;&gt;fail_comp3 -->
<g id="edge32" class="edge">
<title>err_error2&#45;&gt;fail_comp3</title>
<path fill="none" stroke="black" stroke-width="1.2" d="M152.68,-376.07C196.6,-416.06 309.61,-511.17 425,-545 461.25,-555.63 473.07,-552.97 510,-545 511.08,-544.77 610.31,-499.74 672.61,-471.44"/>
<polygon fill="black" stroke="black" stroke-width="1.2" points="674.23,-474.55 681.89,-467.23 671.34,-468.17 674.23,-474.55"/>
</g>
<!-- err_error3&#45;&gt;volt -->
<g id="edge4" class="edge">
<title>err_error3&#45;&gt;volt</title>
<path fill="none" stroke="black" stroke-width="1.2" d="M708.23,-150.91C673.31,-107.32 576.4,0 468.5,0 252.5,0 252.5,0 252.5,0 175.36,0 138.95,-1.37 90,-61 46.09,-114.5 32.57,-331.29 29.07,-409.61"/>
<polygon fill="black" stroke="black" stroke-width="1.2" points="25.57,-409.57 28.64,-419.71 32.56,-409.86 25.57,-409.57"/>
</g>
<!-- err_error3&#45;&gt;pressure -->
<g id="edge20" class="edge">
<title>err_error3&#45;&gt;pressure</title>
<path fill="none" stroke="black" stroke-width="1.2" d="M715.94,-187.25C705.27,-216.15 680.2,-271.75 638,-297 601.43,-318.88 552.25,-320.86 516.29,-318.43"/>
<polygon fill="black" stroke="black" stroke-width="1.2" points="516.3,-314.92 506.05,-317.59 515.73,-321.89 516.3,-314.92"/>
</g>
<!-- err_error3&#45;&gt;err_error2 -->
<g id="edge30" class="edge">
<title>err_error3&#45;&gt;err_error2</title>
<path fill="none" stroke="black" stroke-width="1.2" d="M693.22,-150.85C647.47,-123.78 554.52,-76 468.5,-76 359.5,-76 359.5,-76 359.5,-76 230.03,-76 162.44,-259.22 141.1,-330.29"/>
<polygon fill="black" stroke="black" stroke-width="1.2" points="137.72,-329.35 138.28,-339.93 144.44,-331.31 137.72,-329.35"/>
</g>
<!-- err_error3&#45;&gt;err_error4 -->
<g id="edge33" class="edge">
<title>err_error3&#45;&gt;err_error4</title>
<path fill="none" stroke="black" stroke-width="1.2" d="M680.23,-166.25C644.24,-164.87 591.11,-165.19 546,-175 447.86,-196.34 343.94,-255.17 290.66,-288.38"/>
<polygon fill="black" stroke="black" stroke-width="1.2" points="288.53,-285.59 281.93,-293.88 292.26,-291.51 288.53,-285.59"/>
</g>
<!-- err_error4&#45;&gt;volt -->
<g id="edge5" class="edge">
<title>err_error4&#45;&gt;volt</title>
<path fill="none" stroke="black" stroke-width="1.2" d="M210.66,-307.07C175.61,-305.09 125.73,-307.54 90,-331 62.08,-349.33 45.2,-384.9 36.25,-409.98"/>
<polygon fill="black" stroke="black" stroke-width="1.2" points="32.86,-409.08 32.99,-419.68 39.49,-411.31 32.86,-409.08"/>
</g>
<!-- err_error4&#45;&gt;rotate -->
<g id="edge14" class="edge">
<title>err_error4&#45;&gt;rotate</title>
<path fill="none" stroke="black" stroke-width="1.2" d="M295.7,-330.05C304.46,-333.89 313.67,-337.92 322.28,-341.69"/>
<polygon fill="black" stroke="black" stroke-width="1.2" points="321.12,-345.01 331.69,-345.81 323.93,-338.6 321.12,-345.01"/>
</g>
<!-- mnt_comp2 -->
<g id="node10" class="node">
<title>mnt_comp2</title>
<path fill="white" stroke="black" d="M760,-524C760,-524 686,-524 686,-524 680,-524 674,-518 674,-512 674,-512 674,-500 674,-500 674,-494 680,-488 686,-488 686,-488 760,-488 760,-488 766,-488 772,-494 772,-500 772,-500 772,-512 772,-512 772,-518 766,-524 760,-524"/>
<text text-anchor="middle" x="723" y="-502.3" font-family="Helvetica,sans-Serif" font-size="14.00">mnt_comp2</text>
</g>
<!-- mnt_comp2&#45;&gt;volt -->
<g id="edge6" class="edge">
<title>mnt_comp2&#45;&gt;volt</title>
<path fill="none" stroke="black" stroke-width="1.2" d="M708.97,-524.13C694.21,-542.95 668.24,-571.24 638,-583 599.89,-597.82 586.74,-586.51 546,-583 337.97,-565.08 284.5,-545.94 90,-470 81.13,-466.54 71.87,-462.19 63.29,-457.82"/>
<polygon fill="black" stroke="black" stroke-width="1.2" points="64.77,-454.65 54.29,-453.11 61.53,-460.85 64.77,-454.65"/>
</g>
<!-- mnt_comp2&#45;&gt;pressure -->
<g id="edge22" class="edge">
<title>mnt_comp2&#45;&gt;pressure</title>
<path fill="none" stroke="black" stroke-width="1.2" d="M691.95,-487.96C685.92,-484.13 679.69,-480.03 674,-476 608.61,-429.71 536.29,-369.8 497.28,-336.71"/>
<polygon fill="black" stroke="black" stroke-width="1.2" points="499.36,-333.88 489.47,-330.07 494.82,-339.22 499.36,-333.88"/>
</g>
<!-- mnt_comp2&#45;&gt;mnt_comp1 -->
<g id="edge34" class="edge">
<title>mnt_comp2&#45;&gt;mnt_comp1</title>
<path fill="none" stroke="black" stroke-width="1.2" d="M757.14,-487.91C762.4,-484.32 767.56,-480.31 772,-476 792.69,-455.91 791.34,-445.55 808,-422 816.89,-409.44 827.07,-395.77 835.76,-384.3"/>
<polygon fill="black" stroke="black" stroke-width="1.2" points="838.8,-386.09 842.07,-376.01 833.23,-381.84 838.8,-386.09"/>
</g>
<!-- mnt_comp3&#45;&gt;volt -->
<g id="edge7" class="edge">
<title>mnt_comp3&#45;&gt;volt</title>
<path fill="none" stroke="black" stroke-width="1.2" d="M846.53,-467.35C817.03,-521.69 721.05,-678 593,-678 252.5,-678 252.5,-678 252.5,-678 178.33,-678 144.2,-690.63 90,-640 40.82,-594.06 30.29,-510.23 28.27,-466.4"/>
<polygon fill="black" stroke="black" stroke-width="1.2" points="31.76,-466.05 27.92,-456.17 24.76,-466.29 31.76,-466.05"/>
</g>
<!-- mnt_comp4 -->
<g id="node12" class="node">
<title>mnt_comp4</title>
<path fill="white" stroke="black" d="M1028,-467C1028,-467 954,-467 954,-467 948,-467 942,-461 942,-455 942,-455 942,-443 942,-443 942,-437 948,-431 954,-431 954,-431 1028,-431 1028,-431 1034,-431 1040,-437 1040,-443 1040,-443 1040,-455 1040,-455 1040,-461 1034,-467 1028,-467"/>
<text text-anchor="middle" x="991" y="-445.3" font-family="Helvetica,sans-Serif" font-size="14.00">mnt_comp4</text>
</g>
<!-- mnt_comp3&#45;&gt;mnt_comp4 -->
<g id="edge36" class="edge">
<title>mnt_comp3&#45;&gt;mnt_comp4</title>
<path fill="none" stroke="black" stroke-width="1.2" d="M906.03,-449C914.31,-449 923,-449 931.52,-449"/>
<polygon fill="black" stroke="black" stroke-width="1.2" points="931.79,-452.5 941.79,-449 931.79,-445.5 931.79,-452.5"/>
</g>
<!-- mnt_comp4&#45;&gt;vibration -->
<g id="edge28" class="edge">
<title>mnt_comp4&#45;&gt;vibration</title>
<path fill="none" stroke="black" stroke-width="1.2" d="M981.99,-430.84C969.54,-404.75 943.08,-356.96 906,-331 825.82,-274.87 707.11,-267.17 641.32,-267.78"/>
<polygon fill="black" stroke="black" stroke-width="1.2" points="641.18,-264.29 631.23,-267.95 641.29,-271.29 641.18,-264.29"/>
</g>
<!-- fail_comp2&#45;&gt;volt -->
<g id="edge8" class="edge">
<title>fail_comp2&#45;&gt;volt</title>
<path fill="none" stroke="black" stroke-width="1.2" d="M555.8,-574.07C468.09,-616.3 236.34,-710.4 90,-608 43.9,-575.75 31.96,-505.43 28.94,-466.08"/>
<polygon fill="black" stroke="black" stroke-width="1.2" points="32.44,-465.86 28.32,-456.1 25.45,-466.3 32.44,-465.86"/>
</g>
<!-- fail_comp2&#45;&gt;mnt_comp2 -->
<g id="edge35" class="edge">
<title>fail_comp2&#45;&gt;mnt_comp2</title>
<path fill="none" stroke="black" stroke-width="1.2" d="M638.12,-538.51C647.07,-535.04 656.57,-531.36 665.84,-527.77"/>
<polygon fill="black" stroke="black" stroke-width="1.2" points="667.32,-530.95 675.38,-524.07 664.79,-524.42 667.32,-530.95"/>
</g>
<!-- fail_comp2&#45;&gt;mnt_comp4 -->
<g id="edge38" class="edge">
<title>fail_comp2&#45;&gt;mnt_comp4</title>
<path fill="none" stroke="black" stroke-width="1.2" d="M638.06,-553.22C674.6,-550.24 727.2,-544.33 772,-533 832.44,-517.71 898.9,-490.49 942.36,-471.19"/>
<polygon fill="black" stroke="black" stroke-width="1.2" points="943.84,-474.36 951.54,-467.07 940.98,-467.97 943.84,-474.36"/>
</g>
<!-- fail_comp2&#45;&gt;fail_comp3 -->
<g id="edge39" class="edge">
<title>fail_comp2&#45;&gt;fail_comp3</title>
<path fill="none" stroke="black" stroke-width="1.2" d="M621.08,-537.86C626.91,-533.6 632.84,-528.87 638,-524 656.62,-506.41 654.87,-496.03 674,-479 676.24,-477.01 678.62,-475.07 681.09,-473.19"/>
<polygon fill="black" stroke="black" stroke-width="1.2" points="683.55,-475.73 689.68,-467.09 679.5,-470.02 683.55,-475.73"/>
</g>
<!-- fail_comp3&#45;&gt;rotate -->
<g id="edge18" class="edge">
<title>fail_comp3&#45;&gt;rotate</title>
<path fill="none" stroke="black" stroke-width="1.2" d="M676.96,-450.61C616.95,-451.11 508.64,-446.19 425,-410 410.58,-403.76 396.81,-393.25 385.79,-383.31"/>
<polygon fill="black" stroke="black" stroke-width="1.2" points="387.97,-380.55 378.29,-376.24 383.17,-385.64 387.97,-380.55"/>
</g>
<!-- fail_comp3&#45;&gt;mnt_comp3 -->
<g id="edge37" class="edge">
<title>fail_comp3&#45;&gt;mnt_comp3</title>
<path fill="none" stroke="black" stroke-width="1.2" d="M769.06,-449C778.27,-449 788.09,-449 797.7,-449"/>
<polygon fill="black" stroke="black" stroke-width="1.2" points="797.99,-452.5 807.99,-449 797.99,-445.5 797.99,-452.5"/>
</g>
</g>
</svg>
