<?xml version="1.0" encoding="UTF-8" standalone="no"?>
<!DOCTYPE svg PUBLIC "-//W3C//DTD SVG 1.1//EN"
 "http://www.w3.org/Graphics/SVG/1.1/DTD/svg11.dtd">
<!-- Generated by graphviz version 2.50.0 (0)
 -->
<!-- Title: G Pages: 1 -->
<svg width="1168pt" height="925pt"
 viewBox="0.00 0.00 1168.00 925.05" xmlns="http://www.w3.org/2000/svg" xmlns:xlink="http://www.w3.org/1999/xlink">
<g id="graph0" class="graph" transform="scale(1 1) rotate(0) translate(4 921.05)">
<title>G</title>
<polygon fill="white" stroke="transparent" points="-4,4 -4,-921.05 1164,-921.05 1164,4 -4,4"/>
<text text-anchor="middle" x="580" y="-900.25" font-family="Times,serif" font-size="16.00">model=model1/nbcb_w_mixed.json [machine 37]</text>
<!-- volt -->
<g id="node1" class="node">
<title>volt</title>
<path fill="white" stroke="black" d="M42,-542C42,-542 12,-542 12,-542 6,-542 0,-536 0,-530 0,-530 0,-518 0,-518 0,-512 6,-506 12,-506 12,-506 42,-506 42,-506 48,-506 54,-512 54,-518 54,-518 54,-530 54,-530 54,-536 48,-542 42,-542"/>
<text text-anchor="middle" x="27" y="-520.3" font-family="Helvetica,sans-Serif" font-size="14.00">volt</text>
</g>
<!-- rotate -->
<g id="node2" class="node">
<title>rotate</title>
<path fill="white" stroke="black" d="M135,-390C135,-390 102,-390 102,-390 96,-390 90,-384 90,-378 90,-378 90,-366 90,-366 90,-360 96,-354 102,-354 102,-354 135,-354 135,-354 141,-354 147,-360 147,-366 147,-366 147,-378 147,-378 147,-384 141,-390 135,-390"/>
<text text-anchor="middle" x="118.5" y="-368.3" font-family="Helvetica,sans-Serif" font-size="14.00">rotate</text>
</g>
<!-- volt&#45;&gt;rotate -->
<g id="edge1" class="edge">
<title>volt&#45;&gt;rotate</title>
<path fill="none" stroke="black" stroke-width="1.2" d="M38.62,-505.97C54.23,-479.46 83.48,-429.78 101.64,-398.93"/>
<polygon fill="black" stroke="black" stroke-width="1.2" points="104.84,-400.4 106.9,-390.01 98.81,-396.85 104.84,-400.4"/>
</g>
<!-- pressure -->
<g id="node3" class="node">
<title>pressure</title>
<path fill="white" stroke="black" d="M369,-588C369,-588 316,-588 316,-588 310,-588 304,-582 304,-576 304,-576 304,-564 304,-564 304,-558 310,-552 316,-552 316,-552 369,-552 369,-552 375,-552 381,-558 381,-564 381,-564 381,-576 381,-576 381,-582 375,-588 369,-588"/>
<text text-anchor="middle" x="342.5" y="-566.3" font-family="Helvetica,sans-Serif" font-size="14.00">pressure</text>
</g>
<!-- volt&#45;&gt;pressure -->
<g id="edge2" class="edge">
<title>volt&#45;&gt;pressure</title>
<path fill="none" stroke="black" stroke-width="1.2" d="M54.13,-530.48C65.16,-533.07 78.15,-535.91 90,-538 160.56,-550.43 243.08,-559.99 293.82,-565.3"/>
<polygon fill="black" stroke="black" stroke-width="1.2" points="293.53,-568.79 303.83,-566.34 294.25,-561.83 293.53,-568.79"/>
</g>
<!-- err_error1 -->
<g id="node5" class="node">
<title>err_error1</title>
<path fill="white" stroke="black" d="M886,-780C886,-780 825,-780 825,-780 819,-780 813,-774 813,-768 813,-768 813,-756 813,-756 813,-750 819,-744 825,-744 825,-744 886,-744 886,-744 892,-744 898,-750 898,-756 898,-756 898,-768 898,-768 898,-774 892,-780 886,-780"/>
<text text-anchor="middle" x="855.5" y="-758.3" font-family="Helvetica,sans-Serif" font-size="14.00">err_error1</text>
</g>
<!-- volt&#45;&gt;err_error1 -->
<g id="edge3" class="edge">
<title>volt&#45;&gt;err_error1</title>
<path fill="none" stroke="black" stroke-width="1.2" d="M54.16,-538.79C140.14,-586.23 423.15,-733.01 679,-760 720.51,-764.38 767.84,-764.64 802.88,-763.94"/>
<polygon fill="black" stroke="black" stroke-width="1.2" points="802.97,-767.44 812.88,-763.71 802.81,-760.45 802.97,-767.44"/>
</g>
<!-- err_error2 -->
<g id="node6" class="node">
<title>err_error2</title>
<path fill="white" stroke="black" d="M886,-444C886,-444 825,-444 825,-444 819,-444 813,-438 813,-432 813,-432 813,-420 813,-420 813,-414 819,-408 825,-408 825,-408 886,-408 886,-408 892,-408 898,-414 898,-420 898,-420 898,-432 898,-432 898,-438 892,-444 886,-444"/>
<text text-anchor="middle" x="855.5" y="-422.3" font-family="Helvetica,sans-Serif" font-size="14.00">err_error2</text>
</g>
<!-- volt&#45;&gt;err_error2 -->
<g id="edge4" class="edge">
<title>volt&#45;&gt;err_error2</title>
<path fill="none" stroke="black" stroke-width="1.2" d="M54,-520.95C78.11,-518.12 114.98,-513.78 147,-510 392.33,-481 685.49,-446.12 802.53,-432.19"/>
<polygon fill="black" stroke="black" stroke-width="1.2" points="803.12,-435.64 812.64,-430.99 802.29,-428.69 803.12,-435.64"/>
</g>
<!-- err_error4 -->
<g id="node8" class="node">
<title>err_error4</title>
<path fill="white" stroke="black" d="M1010.5,-593C1010.5,-593 949.5,-593 949.5,-593 943.5,-593 937.5,-587 937.5,-581 937.5,-581 937.5,-569 937.5,-569 937.5,-563 943.5,-557 949.5,-557 949.5,-557 1010.5,-557 1010.5,-557 1016.5,-557 1022.5,-563 1022.5,-569 1022.5,-569 1022.5,-581 1022.5,-581 1022.5,-587 1016.5,-593 1010.5,-593"/>
<text text-anchor="middle" x="980" y="-571.3" font-family="Helvetica,sans-Serif" font-size="14.00">err_error4</text>
</g>
<!-- volt&#45;&gt;err_error4 -->
<g id="edge6" class="edge">
<title>volt&#45;&gt;err_error4</title>
<path fill="none" stroke="black" stroke-width="1.2" d="M33.04,-551.99C47.92,-624.71 98.71,-814 224.5,-814 224.5,-814 224.5,-814 729,-814 804.93,-814 839.25,-837.1 898,-789 934.55,-759.08 917.33,-733.2 934,-689 945.19,-659.35 958.59,-625.6 967.84,-602.57"/>
<polygon fill="black" stroke="black" stroke-width="1.2" points="36.47,-551.28 31.1,-542.14 29.6,-552.63 36.47,-551.28"/>
<polygon fill="black" stroke="black" stroke-width="1.2" points="971.17,-603.68 971.66,-593.1 964.68,-601.07 971.17,-603.68"/>
</g>
<!-- err_error3 -->
<g id="node7" class="node">
<title>err_error3</title>
<path fill="white" stroke="black" d="M256,-260C256,-260 195,-260 195,-260 189,-260 183,-254 183,-248 183,-248 183,-236 183,-236 183,-230 189,-224 195,-224 195,-224 256,-224 256,-224 262,-224 268,-230 268,-236 268,-236 268,-248 268,-248 268,-254 262,-260 256,-260"/>
<text text-anchor="middle" x="225.5" y="-238.3" font-family="Helvetica,sans-Serif" font-size="14.00">err_error3</text>
</g>
<!-- rotate&#45;&gt;err_error3 -->
<g id="edge11" class="edge">
<title>rotate&#45;&gt;err_error3</title>
<path fill="none" stroke="black" stroke-width="1.2" d="M135.13,-344.96C147.05,-325.4 164.51,-298.87 183,-278 186.39,-274.17 190.18,-270.37 194.06,-266.75"/>
<polygon fill="black" stroke="black" stroke-width="1.2" points="132.05,-343.29 129.91,-353.67 138.05,-346.89 132.05,-343.29"/>
<polygon fill="black" stroke="black" stroke-width="1.2" points="196.42,-269.33 201.53,-260.05 191.75,-264.12 196.42,-269.33"/>
</g>
<!-- fail_comp1 -->
<g id="node14" class="node">
<title>fail_comp1</title>
<path fill="white" stroke="black" d="M497,-306C497,-306 429,-306 429,-306 423,-306 417,-300 417,-294 417,-294 417,-282 417,-282 417,-276 423,-270 429,-270 429,-270 497,-270 497,-270 503,-270 509,-276 509,-282 509,-282 509,-294 509,-294 509,-300 503,-306 497,-306"/>
<text text-anchor="middle" x="463" y="-284.3" font-family="Helvetica,sans-Serif" font-size="14.00">fail_comp1</text>
</g>
<!-- rotate&#45;&gt;fail_comp1 -->
<g id="edge14" class="edge">
<title>rotate&#45;&gt;fail_comp1</title>
<path fill="none" stroke="black" stroke-width="1.2" d="M135.99,-353.92C147.85,-342.17 164.89,-327.66 183,-320 255.86,-289.18 348.44,-284.57 406.47,-285.33"/>
<polygon fill="black" stroke="black" stroke-width="1.2" points="406.48,-288.83 416.54,-285.52 406.61,-281.83 406.48,-288.83"/>
</g>
<!-- fail_comp2 -->
<g id="node15" class="node">
<title>fail_comp2</title>
<path fill="white" stroke="black" d="M497,-436C497,-436 429,-436 429,-436 423,-436 417,-430 417,-424 417,-424 417,-412 417,-412 417,-406 423,-400 429,-400 429,-400 497,-400 497,-400 503,-400 509,-406 509,-412 509,-412 509,-424 509,-424 509,-430 503,-436 497,-436"/>
<text text-anchor="middle" x="463" y="-414.3" font-family="Helvetica,sans-Serif" font-size="14.00">fail_comp2</text>
</g>
<!-- rotate&#45;&gt;fail_comp2 -->
<g id="edge15" class="edge">
<title>rotate&#45;&gt;fail_comp2</title>
<path fill="none" stroke="black" stroke-width="1.2" d="M147.2,-378.76C158.28,-381.29 171.2,-384.03 183,-386 260.19,-398.9 350.26,-408.2 406.72,-413.35"/>
<polygon fill="black" stroke="black" stroke-width="1.2" points="406.59,-416.85 416.86,-414.26 407.22,-409.88 406.59,-416.85"/>
</g>
<!-- fail_comp3 -->
<g id="node16" class="node">
<title>fail_comp3</title>
<path fill="white" stroke="black" d="M1014,-734C1014,-734 946,-734 946,-734 940,-734 934,-728 934,-722 934,-722 934,-710 934,-710 934,-704 940,-698 946,-698 946,-698 1014,-698 1014,-698 1020,-698 1026,-704 1026,-710 1026,-710 1026,-722 1026,-722 1026,-728 1020,-734 1014,-734"/>
<text text-anchor="middle" x="980" y="-712.3" font-family="Helvetica,sans-Serif" font-size="14.00">fail_comp3</text>
</g>
<!-- rotate&#45;&gt;fail_comp3 -->
<g id="edge16" class="edge">
<title>rotate&#45;&gt;fail_comp3</title>
<path fill="none" stroke="black" stroke-width="1.2" d="M123.54,-390.37C131.12,-421.89 149.82,-487.29 183,-533 249.31,-624.35 527.49,-852 593,-852 593,-852 593,-852 729,-852 804.86,-852 833.04,-867.19 898,-828 930.76,-808.24 954.13,-769.65 967.1,-743.36"/>
<polygon fill="black" stroke="black" stroke-width="1.2" points="970.28,-744.81 971.41,-734.28 963.96,-741.81 970.28,-744.81"/>
</g>
<!-- fail_comp4 -->
<g id="node17" class="node">
<title>fail_comp4</title>
<path fill="white" stroke="black" d="M1014,-265C1014,-265 946,-265 946,-265 940,-265 934,-259 934,-253 934,-253 934,-241 934,-241 934,-235 940,-229 946,-229 946,-229 1014,-229 1014,-229 1020,-229 1026,-235 1026,-241 1026,-241 1026,-253 1026,-253 1026,-259 1020,-265 1014,-265"/>
<text text-anchor="middle" x="980" y="-243.3" font-family="Helvetica,sans-Serif" font-size="14.00">fail_comp4</text>
</g>
<!-- rotate&#45;&gt;fail_comp4 -->
<g id="edge17" class="edge">
<title>rotate&#45;&gt;fail_comp4</title>
<path fill="none" stroke="black" stroke-width="1.2" d="M157.31,-366.5C293.87,-346.64 761.95,-278.57 923.58,-255.06"/>
<polygon fill="black" stroke="black" stroke-width="1.2" points="156.52,-363.08 147.12,-367.98 157.52,-370.01 156.52,-363.08"/>
<polygon fill="black" stroke="black" stroke-width="1.2" points="924.39,-258.48 933.78,-253.58 923.38,-251.55 924.39,-258.48"/>
</g>
<!-- pressure&#45;&gt;err_error4 -->
<g id="edge21" class="edge">
<title>pressure&#45;&gt;err_error4</title>
<path fill="none" stroke="black" stroke-width="1.2" d="M390.92,-583.53C399.54,-585.63 408.5,-587.57 417,-589 591.12,-618.32 636.57,-613.88 813,-621 850.75,-622.52 861.47,-630.65 898,-621 915.09,-616.49 932.36,-607.44 946.53,-598.55"/>
<polygon fill="black" stroke="black" stroke-width="1.2" points="391.55,-580.08 381,-581.02 389.84,-586.87 391.55,-580.08"/>
<polygon fill="black" stroke="black" stroke-width="1.2" points="948.46,-601.48 954.92,-593.09 944.64,-595.61 948.46,-601.48"/>
</g>
<!-- pressure&#45;&gt;fail_comp1 -->
<g id="edge23" class="edge">
<title>pressure&#45;&gt;fail_comp1</title>
<path fill="none" stroke="black" stroke-width="1.2" d="M350.77,-551.91C363.82,-519.54 392.16,-449.62 417,-391 427.91,-365.25 440.71,-336.05 449.86,-315.34"/>
<polygon fill="black" stroke="black" stroke-width="1.2" points="453.06,-316.74 453.91,-306.18 446.66,-313.91 453.06,-316.74"/>
</g>
<!-- pressure&#45;&gt;fail_comp2 -->
<g id="edge24" class="edge">
<title>pressure&#45;&gt;fail_comp2</title>
<path fill="none" stroke="black" stroke-width="1.2" d="M357.56,-551.97C378.41,-525.23 417.63,-474.92 441.62,-444.14"/>
<polygon fill="black" stroke="black" stroke-width="1.2" points="444.57,-446.05 447.96,-436.01 439.05,-441.74 444.57,-446.05"/>
</g>
<!-- pressure&#45;&gt;fail_comp3 -->
<g id="edge25" class="edge">
<title>pressure&#45;&gt;fail_comp3</title>
<path fill="none" stroke="black" stroke-width="1.2" d="M381.94,-593.07C392.97,-598.94 405.21,-604.78 417,-609 586.06,-669.49 636.35,-656.8 813,-689 849.81,-695.71 891.35,-702.47 923.68,-707.54"/>
<polygon fill="black" stroke="black" stroke-width="1.2" points="383.45,-589.91 373,-588.16 380.08,-596.04 383.45,-589.91"/>
<polygon fill="black" stroke="black" stroke-width="1.2" points="923.41,-711.04 933.83,-709.13 924.49,-704.13 923.41,-711.04"/>
</g>
<!-- vibration -->
<g id="node4" class="node">
<title>vibration</title>
<path fill="white" stroke="black" d="M755,-558C755,-558 701,-558 701,-558 695,-558 689,-552 689,-546 689,-546 689,-534 689,-534 689,-528 695,-522 701,-522 701,-522 755,-522 755,-522 761,-522 767,-528 767,-534 767,-534 767,-546 767,-546 767,-552 761,-558 755,-558"/>
<text text-anchor="middle" x="728" y="-536.3" font-family="Helvetica,sans-Serif" font-size="14.00">vibration</text>
</g>
<!-- vibration&#45;&gt;pressure -->
<g id="edge18" class="edge">
<title>vibration&#45;&gt;pressure</title>
<path fill="none" stroke="black" stroke-width="1.2" d="M688.9,-542.98C618.66,-548.48 468.9,-560.19 391.72,-566.23"/>
<polygon fill="black" stroke="black" stroke-width="1.2" points="391.02,-562.77 381.32,-567.04 391.56,-569.75 391.02,-562.77"/>
</g>
<!-- vibration&#45;&gt;err_error1 -->
<g id="edge26" class="edge">
<title>vibration&#45;&gt;err_error1</title>
<path fill="none" stroke="black" stroke-width="1.2" d="M739.27,-558.17C761.34,-597.21 813.39,-689.28 839.3,-735.11"/>
<polygon fill="black" stroke="black" stroke-width="1.2" points="836.3,-736.91 844.26,-743.89 842.39,-733.47 836.3,-736.91"/>
</g>
<!-- vibration&#45;&gt;err_error2 -->
<g id="edge27" class="edge">
<title>vibration&#45;&gt;err_error2</title>
<path fill="none" stroke="black" stroke-width="1.2" d="M767.85,-515.92C771.06,-513.39 774.16,-510.74 777,-508 796.71,-488.99 793.96,-477.68 813,-458 815.34,-455.58 817.87,-453.19 820.49,-450.88"/>
<polygon fill="black" stroke="black" stroke-width="1.2" points="765.67,-513.18 759.7,-521.93 769.83,-518.81 765.67,-513.18"/>
<polygon fill="black" stroke="black" stroke-width="1.2" points="823.07,-453.29 828.5,-444.19 818.58,-447.91 823.07,-453.29"/>
</g>
<!-- vibration&#45;&gt;err_error4 -->
<g id="edge28" class="edge">
<title>vibration&#45;&gt;err_error4</title>
<path fill="none" stroke="black" stroke-width="1.2" d="M777.35,-531.5C811.52,-527.13 858.15,-524.49 898,-534 913.32,-537.66 929.02,-544.71 942.48,-551.94"/>
<polygon fill="black" stroke="black" stroke-width="1.2" points="776.59,-528.07 767.16,-532.9 777.55,-535.01 776.59,-528.07"/>
<polygon fill="black" stroke="black" stroke-width="1.2" points="940.96,-555.11 951.4,-556.94 944.39,-549 940.96,-555.11"/>
</g>
<!-- err_error5 -->
<g id="node9" class="node">
<title>err_error5</title>
<path fill="white" stroke="black" d="M886,-612C886,-612 825,-612 825,-612 819,-612 813,-606 813,-600 813,-600 813,-588 813,-588 813,-582 819,-576 825,-576 825,-576 886,-576 886,-576 892,-576 898,-582 898,-588 898,-588 898,-600 898,-600 898,-606 892,-612 886,-612"/>
<text text-anchor="middle" x="855.5" y="-590.3" font-family="Helvetica,sans-Serif" font-size="14.00">err_error5</text>
</g>
<!-- vibration&#45;&gt;err_error5 -->
<g id="edge29" class="edge">
<title>vibration&#45;&gt;err_error5</title>
<path fill="none" stroke="black" stroke-width="1.2" d="M776.7,-560.52C785.45,-564.29 794.62,-568.23 803.47,-572.04"/>
<polygon fill="black" stroke="black" stroke-width="1.2" points="777.91,-557.23 767.34,-556.5 775.14,-563.66 777.91,-557.23"/>
<polygon fill="black" stroke="black" stroke-width="1.2" points="802.34,-575.37 812.91,-576.1 805.1,-568.94 802.34,-575.37"/>
</g>
<!-- vibration&#45;&gt;fail_comp2 -->
<g id="edge31" class="edge">
<title>vibration&#45;&gt;fail_comp2</title>
<path fill="none" stroke="black" stroke-width="1.2" d="M679.76,-518.08C632.33,-496.08 559.64,-462.36 511.96,-440.25"/>
<polygon fill="black" stroke="black" stroke-width="1.2" points="678.34,-521.29 688.89,-522.32 681.29,-514.94 678.34,-521.29"/>
<polygon fill="black" stroke="black" stroke-width="1.2" points="513.35,-437.03 502.81,-436 510.41,-443.38 513.35,-437.03"/>
</g>
<!-- vibration&#45;&gt;fail_comp3 -->
<g id="edge32" class="edge">
<title>vibration&#45;&gt;fail_comp3</title>
<path fill="none" stroke="black" stroke-width="1.2" d="M767.14,-536.93C803.93,-535.93 859.55,-539.8 898,-567 939.39,-596.28 961.75,-653.58 971.95,-687.96"/>
<polygon fill="black" stroke="black" stroke-width="1.2" points="968.65,-689.16 974.73,-697.84 975.39,-687.26 968.65,-689.16"/>
</g>
<!-- vibration&#45;&gt;fail_comp4 -->
<g id="edge33" class="edge">
<title>vibration&#45;&gt;fail_comp4</title>
<path fill="none" stroke="black" stroke-width="1.2" d="M776.88,-525.78C814.34,-512.44 865.4,-489.07 898,-453 945.04,-400.96 966.18,-318.41 974.44,-275.3"/>
<polygon fill="black" stroke="black" stroke-width="1.2" points="775.5,-522.55 767.18,-529.11 777.78,-529.17 775.5,-522.55"/>
<polygon fill="black" stroke="black" stroke-width="1.2" points="977.92,-275.7 976.27,-265.24 971.04,-274.45 977.92,-275.7"/>
</g>
<!-- err_error1&#45;&gt;rotate -->
<g id="edge10" class="edge">
<title>err_error1&#45;&gt;rotate</title>
<path fill="none" stroke="black" stroke-width="1.2" d="M812.65,-758.46C715.12,-748.41 468.54,-712.52 304,-597 225.9,-542.17 162.6,-445.74 134.78,-398.96"/>
<polygon fill="black" stroke="black" stroke-width="1.2" points="137.78,-397.15 129.7,-390.3 131.74,-400.69 137.78,-397.15"/>
</g>
<!-- err_error1&#45;&gt;fail_comp3 -->
<g id="edge34" class="edge">
<title>err_error1&#45;&gt;fail_comp3</title>
<path fill="none" stroke="black" stroke-width="1.2" d="M898.31,-746.3C906.57,-743.2 915.36,-739.9 923.98,-736.66"/>
<polygon fill="black" stroke="black" stroke-width="1.2" points="925.47,-739.84 933.6,-733.05 923.01,-733.29 925.47,-739.84"/>
</g>
<!-- err_error2&#45;&gt;pressure -->
<g id="edge19" class="edge">
<title>err_error2&#45;&gt;pressure</title>
<path fill="none" stroke="black" stroke-width="1.2" d="M821.84,-444.01C818.85,-445.69 815.86,-447.37 813,-449 796.9,-458.16 794.22,-463.18 777,-470 624.35,-530.5 576.99,-516.06 417,-553 408.65,-554.93 399.77,-556.98 391.18,-558.97"/>
<polygon fill="black" stroke="black" stroke-width="1.2" points="390.22,-555.6 381.27,-561.26 391.8,-562.42 390.22,-555.6"/>
</g>
<!-- err_error2&#45;&gt;err_error4 -->
<g id="edge36" class="edge">
<title>err_error2&#45;&gt;err_error4</title>
<path fill="none" stroke="black" stroke-width="1.2" d="M871.52,-444.27C893.01,-470.41 932.65,-518.63 957.32,-548.63"/>
<polygon fill="black" stroke="black" stroke-width="1.2" points="954.8,-551.08 963.86,-556.58 960.21,-546.63 954.8,-551.08"/>
</g>
<!-- err_error2&#45;&gt;fail_comp4 -->
<g id="edge38" class="edge">
<title>err_error2&#45;&gt;fail_comp4</title>
<path fill="none" stroke="black" stroke-width="1.2" d="M874.57,-399.59C897.7,-365.8 937.53,-307.59 960.75,-273.67"/>
<polygon fill="black" stroke="black" stroke-width="1.2" points="871.68,-397.62 868.92,-407.85 877.46,-401.58 871.68,-397.62"/>
<polygon fill="black" stroke="black" stroke-width="1.2" points="963.79,-275.43 966.55,-265.2 958.01,-271.47 963.79,-275.43"/>
</g>
<!-- err_error3&#45;&gt;volt -->
<g id="edge5" class="edge">
<title>err_error3&#45;&gt;volt</title>
<path fill="none" stroke="black" stroke-width="1.2" d="M190.97,-260.01C160.65,-277.88 116.77,-307.92 90,-345 56.27,-391.72 39.67,-458.33 32.55,-495.73"/>
<polygon fill="black" stroke="black" stroke-width="1.2" points="29.05,-495.43 30.71,-505.9 35.93,-496.68 29.05,-495.43"/>
</g>
<!-- err_error3&#45;&gt;pressure -->
<g id="edge20" class="edge">
<title>err_error3&#45;&gt;pressure</title>
<path fill="none" stroke="black" stroke-width="1.2" d="M232.85,-260.1C251.93,-314.54 308.89,-476.99 331.8,-542.33"/>
<polygon fill="black" stroke="black" stroke-width="1.2" points="328.56,-543.68 335.17,-551.95 335.17,-541.36 328.56,-543.68"/>
</g>
<!-- err_error3&#45;&gt;err_error2 -->
<g id="edge35" class="edge">
<title>err_error3&#45;&gt;err_error2</title>
<path fill="none" stroke="black" stroke-width="1.2" d="M268.46,-239.95C324.33,-238.32 425.79,-239.19 509,-261 628.51,-292.32 756.6,-365.14 817.82,-402.68"/>
<polygon fill="black" stroke="black" stroke-width="1.2" points="816.01,-405.68 826.36,-407.96 819.69,-399.72 816.01,-405.68"/>
</g>
<!-- mnt_comp2 -->
<g id="node11" class="node">
<title>mnt_comp2</title>
<path fill="white" stroke="black" d="M631,-158C631,-158 557,-158 557,-158 551,-158 545,-152 545,-146 545,-146 545,-134 545,-134 545,-128 551,-122 557,-122 557,-122 631,-122 631,-122 637,-122 643,-128 643,-134 643,-134 643,-146 643,-146 643,-152 637,-158 631,-158"/>
<text text-anchor="middle" x="594" y="-136.3" font-family="Helvetica,sans-Serif" font-size="14.00">mnt_comp2</text>
</g>
<!-- err_error3&#45;&gt;mnt_comp2 -->
<g id="edge39" class="edge">
<title>err_error3&#45;&gt;mnt_comp2</title>
<path fill="none" stroke="black" stroke-width="1.2" d="M242.02,-223.84C256.4,-208.34 279.25,-186.89 304,-176 378.8,-143.07 474.37,-137.37 534.65,-137.65"/>
<polygon fill="black" stroke="black" stroke-width="1.2" points="534.71,-141.15 544.75,-137.75 534.78,-134.15 534.71,-141.15"/>
</g>
<!-- mnt_comp4 -->
<g id="node13" class="node">
<title>mnt_comp4</title>
<path fill="white" stroke="black" d="M1148,-132C1148,-132 1074,-132 1074,-132 1068,-132 1062,-126 1062,-120 1062,-120 1062,-108 1062,-108 1062,-102 1068,-96 1074,-96 1074,-96 1148,-96 1148,-96 1154,-96 1160,-102 1160,-108 1160,-108 1160,-120 1160,-120 1160,-126 1154,-132 1148,-132"/>
<text text-anchor="middle" x="1111" y="-110.3" font-family="Helvetica,sans-Serif" font-size="14.00">mnt_comp4</text>
</g>
<!-- err_error3&#45;&gt;mnt_comp4 -->
<g id="edge40" class="edge">
<title>err_error3&#45;&gt;mnt_comp4</title>
<path fill="none" stroke="black" stroke-width="1.2" d="M236.1,-223.88C248.62,-202.19 272.67,-166.61 304,-149 551.45,-9.88 912.29,-69.11 1051.87,-99.82"/>
<polygon fill="black" stroke="black" stroke-width="1.2" points="1051.41,-103.3 1061.93,-102.06 1052.93,-96.47 1051.41,-103.3"/>
</g>
<!-- err_error3&#45;&gt;fail_comp4 -->
<g id="edge41" class="edge">
<title>err_error3&#45;&gt;fail_comp4</title>
<path fill="none" stroke="black" stroke-width="1.2" d="M268.28,-237.53C279.84,-236.48 292.39,-235.52 304,-235 338.19,-233.46 346.78,-234.66 381,-235 580.97,-237.01 818.5,-242.79 923.91,-245.53"/>
<polygon fill="black" stroke="black" stroke-width="1.2" points="923.91,-249.03 933.99,-245.79 924.09,-242.03 923.91,-249.03"/>
</g>
<!-- err_error5&#45;&gt;pressure -->
<g id="edge22" class="edge">
<title>err_error5&#45;&gt;pressure</title>
<path fill="none" stroke="black" stroke-width="1.2" d="M812.98,-592.05C719.04,-587.64 490.64,-576.91 391.14,-572.24"/>
<polygon fill="black" stroke="black" stroke-width="1.2" points="391.23,-568.74 381.08,-571.76 390.9,-575.73 391.23,-568.74"/>
</g>
<!-- mnt_comp1 -->
<g id="node10" class="node">
<title>mnt_comp1</title>
<path fill="white" stroke="black" d="M765,-200C765,-200 691,-200 691,-200 685,-200 679,-194 679,-188 679,-188 679,-176 679,-176 679,-170 685,-164 691,-164 691,-164 765,-164 765,-164 771,-164 777,-170 777,-176 777,-176 777,-188 777,-188 777,-194 771,-200 765,-200"/>
<text text-anchor="middle" x="728" y="-178.3" font-family="Helvetica,sans-Serif" font-size="14.00">mnt_comp1</text>
</g>
<!-- mnt_comp1&#45;&gt;mnt_comp4 -->
<g id="edge43" class="edge">
<title>mnt_comp1&#45;&gt;mnt_comp4</title>
<path fill="none" stroke="black" stroke-width="1.2" d="M777.25,-173.39C847.15,-160.91 976.41,-137.84 1051.6,-124.42"/>
<polygon fill="black" stroke="black" stroke-width="1.2" points="1052.61,-127.8 1061.84,-122.6 1051.38,-120.91 1052.61,-127.8"/>
</g>
<!-- mnt_comp1&#45;&gt;fail_comp4 -->
<g id="edge45" class="edge">
<title>mnt_comp1&#45;&gt;fail_comp4</title>
<path fill="none" stroke="black" stroke-width="1.2" d="M777.32,-188.52C811.45,-193.77 858.05,-202.21 898,-214 908.48,-217.09 919.47,-221.06 929.86,-225.15"/>
<polygon fill="black" stroke="black" stroke-width="1.2" points="928.61,-228.42 939.19,-228.93 931.23,-221.94 928.61,-228.42"/>
</g>
<!-- mnt_comp2&#45;&gt;volt -->
<g id="edge7" class="edge">
<title>mnt_comp2&#45;&gt;volt</title>
<path fill="none" stroke="black" stroke-width="1.2" d="M567.82,-122C524.3,-92.72 431.24,-38 343.5,-38 224.5,-38 224.5,-38 224.5,-38 125.06,-38 52.21,-392.1 33.01,-495.79"/>
<polygon fill="black" stroke="black" stroke-width="1.2" points="29.53,-495.37 31.17,-505.84 36.41,-496.63 29.53,-495.37"/>
</g>
<!-- mnt_comp2&#45;&gt;mnt_comp1 -->
<g id="edge42" class="edge">
<title>mnt_comp2&#45;&gt;mnt_comp1</title>
<path fill="none" stroke="black" stroke-width="1.2" d="M643.03,-155.28C651.49,-157.97 660.38,-160.8 669.08,-163.57"/>
<polygon fill="black" stroke="black" stroke-width="1.2" points="668.2,-166.96 678.79,-166.66 670.32,-160.29 668.2,-166.96"/>
</g>
<!-- mnt_comp2&#45;&gt;mnt_comp4 -->
<g id="edge46" class="edge">
<title>mnt_comp2&#45;&gt;mnt_comp4</title>
<path fill="none" stroke="black" stroke-width="1.2" d="M643.45,-137.55C738.47,-132.76 948.92,-122.13 1051.5,-116.95"/>
<polygon fill="black" stroke="black" stroke-width="1.2" points="1051.87,-120.44 1061.68,-116.44 1051.52,-113.45 1051.87,-120.44"/>
</g>
<!-- mnt_comp2&#45;&gt;fail_comp4 -->
<g id="edge48" class="edge">
<title>mnt_comp2&#45;&gt;fail_comp4</title>
<path fill="none" stroke="black" stroke-width="1.2" d="M643.12,-140.01C705.03,-141.79 814.54,-150.99 898,-191 915.78,-199.53 933.99,-211.74 948.62,-222.59"/>
<polygon fill="black" stroke="black" stroke-width="1.2" points="946.71,-225.53 956.8,-228.78 950.94,-219.95 946.71,-225.53"/>
</g>
<!-- mnt_comp3 -->
<g id="node12" class="node">
<title>mnt_comp3</title>
<path fill="white" stroke="black" d="M631,-398C631,-398 557,-398 557,-398 551,-398 545,-392 545,-386 545,-386 545,-374 545,-374 545,-368 551,-362 557,-362 557,-362 631,-362 631,-362 637,-362 643,-368 643,-374 643,-374 643,-386 643,-386 643,-392 637,-398 631,-398"/>
<text text-anchor="middle" x="594" y="-376.3" font-family="Helvetica,sans-Serif" font-size="14.00">mnt_comp3</text>
</g>
<!-- mnt_comp3&#45;&gt;rotate -->
<g id="edge12" class="edge">
<title>mnt_comp3&#45;&gt;rotate</title>
<path fill="none" stroke="black" stroke-width="1.2" d="M544.87,-379.19C450.34,-377.59 242.23,-374.07 157.01,-372.63"/>
<polygon fill="black" stroke="black" stroke-width="1.2" points="157.06,-369.13 147,-372.46 156.94,-376.13 157.06,-369.13"/>
</g>
<!-- mnt_comp3&#45;&gt;vibration -->
<g id="edge30" class="edge">
<title>mnt_comp3&#45;&gt;vibration</title>
<path fill="none" stroke="black" stroke-width="1.2" d="M626.12,-398.07C632.07,-402.24 637.99,-406.95 643,-412 673.15,-442.37 698.61,-485.17 713.34,-512.76"/>
<polygon fill="black" stroke="black" stroke-width="1.2" points="710.36,-514.6 718.1,-521.83 716.56,-511.35 710.36,-514.6"/>
</g>
<!-- mnt_comp3&#45;&gt;err_error2 -->
<g id="edge37" class="edge">
<title>mnt_comp3&#45;&gt;err_error2</title>
<path fill="none" stroke="black" stroke-width="1.2" d="M643.2,-388.54C688.67,-396.61 756.62,-408.65 803.11,-416.89"/>
<polygon fill="black" stroke="black" stroke-width="1.2" points="802.52,-420.34 812.98,-418.64 803.74,-413.45 802.52,-420.34"/>
</g>
<!-- mnt_comp3&#45;&gt;mnt_comp4 -->
<g id="edge49" class="edge">
<title>mnt_comp3&#45;&gt;mnt_comp4</title>
<path fill="none" stroke="black" stroke-width="1.2" d="M643.07,-381.21C729.66,-380.83 913.3,-368.06 1026,-274 1067.98,-238.96 1091.74,-177.47 1102.62,-141.78"/>
<polygon fill="black" stroke="black" stroke-width="1.2" points="1106.03,-142.6 1105.47,-132.02 1099.31,-140.64 1106.03,-142.6"/>
</g>
<!-- mnt_comp3&#45;&gt;fail_comp4 -->
<g id="edge52" class="edge">
<title>mnt_comp3&#45;&gt;fail_comp4</title>
<path fill="none" stroke="black" stroke-width="1.2" d="M643.1,-365.24C703.16,-346.55 808.85,-312.83 898,-280 907.4,-276.54 917.34,-272.67 926.92,-268.83"/>
<polygon fill="black" stroke="black" stroke-width="1.2" points="928.38,-272.01 936.33,-265.02 925.75,-265.52 928.38,-272.01"/>
</g>
<!-- mnt_comp4&#45;&gt;rotate -->
<g id="edge13" class="edge">
<title>mnt_comp4&#45;&gt;rotate</title>
<path fill="none" stroke="black" stroke-width="1.2" d="M1087.43,-95.94C1044.92,-63.79 948.91,0 856.5,0 462,0 462,0 462,0 305.45,0 274.59,-88.04 183,-215 153.97,-255.23 135.62,-310.64 126.49,-343.74"/>
<polygon fill="black" stroke="black" stroke-width="1.2" points="123.04,-343.09 123.84,-353.65 129.8,-344.89 123.04,-343.09"/>
</g>
<!-- fail_comp1&#45;&gt;mnt_comp1 -->
<g id="edge44" class="edge">
<title>fail_comp1&#45;&gt;mnt_comp1</title>
<path fill="none" stroke="black" stroke-width="1.2" d="M503.79,-269.83C516.86,-263.99 531.49,-257.59 545,-252 586.17,-234.95 633.12,-216.93 669.02,-203.44"/>
<polygon fill="black" stroke="black" stroke-width="1.2" points="670.7,-206.55 678.84,-199.76 668.24,-199.99 670.7,-206.55"/>
</g>
<!-- fail_comp2&#45;&gt;volt -->
<g id="edge8" class="edge">
<title>fail_comp2&#45;&gt;volt</title>
<path fill="none" stroke="black" stroke-width="1.2" d="M416.79,-429.04C330.28,-450.17 142.94,-495.93 64.11,-515.18"/>
<polygon fill="black" stroke="black" stroke-width="1.2" points="63.06,-511.84 54.17,-517.61 64.72,-518.64 63.06,-511.84"/>
</g>
<!-- fail_comp2&#45;&gt;mnt_comp2 -->
<g id="edge47" class="edge">
<title>fail_comp2&#45;&gt;mnt_comp2</title>
<path fill="none" stroke="black" stroke-width="1.2" d="M472.46,-399.76C494.51,-352.24 553.84,-224.4 580.14,-167.72"/>
<polygon fill="black" stroke="black" stroke-width="1.2" points="583.47,-168.85 584.5,-158.31 577.12,-165.91 583.47,-168.85"/>
</g>
<!-- fail_comp2&#45;&gt;mnt_comp3 -->
<g id="edge50" class="edge">
<title>fail_comp2&#45;&gt;mnt_comp3</title>
<path fill="none" stroke="black" stroke-width="1.2" d="M509.12,-404.71C517.46,-402.25 526.28,-399.66 534.94,-397.1"/>
<polygon fill="black" stroke="black" stroke-width="1.2" points="536.01,-400.44 544.62,-394.25 534.03,-393.72 536.01,-400.44"/>
</g>
<!-- fail_comp3&#45;&gt;volt -->
<g id="edge9" class="edge">
<title>fail_comp3&#45;&gt;volt</title>
<path fill="none" stroke="black" stroke-width="1.2" d="M973.76,-734.2C964.07,-764.39 940.4,-824.5 898,-855 835.74,-899.8 805.7,-890 729,-890 224.5,-890 224.5,-890 224.5,-890 71.31,-890 37.05,-638.02 29.83,-552.21"/>
<polygon fill="black" stroke="black" stroke-width="1.2" points="33.31,-551.85 29.04,-542.15 26.33,-552.39 33.31,-551.85"/>
</g>
<!-- fail_comp3&#45;&gt;mnt_comp3 -->
<g id="edge51" class="edge">
<title>fail_comp3&#45;&gt;mnt_comp3</title>
<path fill="none" stroke="black" stroke-width="1.2" d="M933.76,-704.11C869.41,-685.1 751.27,-642.12 679,-567 634.83,-521.09 611.36,-447.95 601.24,-408.11"/>
<polygon fill="black" stroke="black" stroke-width="1.2" points="604.61,-407.16 598.84,-398.27 597.81,-408.82 604.61,-407.16"/>
</g>
<!-- fail_comp3&#45;&gt;mnt_comp4 -->
<g id="edge53" class="edge">
<title>fail_comp3&#45;&gt;mnt_comp4</title>
<path fill="none" stroke="black" stroke-width="1.2" d="M989.52,-697.84C999.6,-675.67 1016.24,-636.83 1026,-602 1073.98,-430.79 1099.26,-217.69 1107.2,-142.15"/>
<polygon fill="black" stroke="black" stroke-width="1.2" points="1110.7,-142.33 1108.25,-132.02 1103.74,-141.61 1110.7,-142.33"/>
</g>
<!-- fail_comp4&#45;&gt;mnt_comp4 -->
<g id="edge54" class="edge">
<title>fail_comp4&#45;&gt;mnt_comp4</title>
<path fill="none" stroke="black" stroke-width="1.2" d="M998.67,-228.79C1021.02,-205.73 1059.67,-165.89 1085.04,-139.74"/>
<polygon fill="black" stroke="black" stroke-width="1.2" points="1087.68,-142.04 1092.13,-132.42 1082.66,-137.16 1087.68,-142.04"/>
</g>
</g>
</svg>
