<?xml version="1.0" encoding="UTF-8" standalone="no"?>
<!DOCTYPE svg PUBLIC "-//W3C//DTD SVG 1.1//EN"
 "http://www.w3.org/Graphics/SVG/1.1/DTD/svg11.dtd">
<!-- Generated by graphviz version 2.50.0 (0)
 -->
<!-- Title: G Pages: 1 -->
<svg width="454pt" height="124pt"
 viewBox="0.00 0.00 454.00 124.00" xmlns="http://www.w3.org/2000/svg" xmlns:xlink="http://www.w3.org/1999/xlink">
<g id="graph0" class="graph" transform="scale(1 1) rotate(0) translate(4 120)">
<title>G</title>
<polygon fill="white" stroke="transparent" points="-4,4 -4,-120 450,-120 450,4 -4,4"/>
<text text-anchor="middle" x="223" y="-99.2" font-family="Times,serif" font-size="16.00">model=model2/nbcb_w_telemetry.json [machine 97]</text>
<!-- volt -->
<g id="node1" class="node">
<title>volt</title>
<path fill="white" stroke="black" d="M295,-90C295,-90 265,-90 265,-90 259,-90 253,-84 253,-78 253,-78 253,-66 253,-66 253,-60 259,-54 265,-54 265,-54 295,-54 295,-54 301,-54 307,-60 307,-66 307,-66 307,-78 307,-78 307,-84 301,-90 295,-90"/>
<text text-anchor="middle" x="280" y="-68.3" font-family="Helvetica,sans-Serif" font-size="14.00">volt</text>
</g>
<!-- rotate -->
<g id="node2" class="node">
<title>rotate</title>
<path fill="white" stroke="black" d="M296.5,-36C296.5,-36 263.5,-36 263.5,-36 257.5,-36 251.5,-30 251.5,-24 251.5,-24 251.5,-12 251.5,-12 251.5,-6 257.5,0 263.5,0 263.5,0 296.5,0 296.5,0 302.5,0 308.5,-6 308.5,-12 308.5,-12 308.5,-24 308.5,-24 308.5,-30 302.5,-36 296.5,-36"/>
<text text-anchor="middle" x="280" y="-14.3" font-family="Helvetica,sans-Serif" font-size="14.00">rotate</text>
</g>
<!-- pressure -->
<g id="node3" class="node">
<title>pressure</title>
<path fill="white" stroke="black" d="M203,-90C203,-90 150,-90 150,-90 144,-90 138,-84 138,-78 138,-78 138,-66 138,-66 138,-60 144,-54 150,-54 150,-54 203,-54 203,-54 209,-54 215,-60 215,-66 215,-66 215,-78 215,-78 215,-84 209,-90 203,-90"/>
<text text-anchor="middle" x="176.5" y="-68.3" font-family="Helvetica,sans-Serif" font-size="14.00">pressure</text>
</g>
<!-- pressure&#45;&gt;volt -->
<g id="edge1" class="edge">
<title>pressure&#45;&gt;volt</title>
<path fill="none" stroke="black" stroke-width="1.2" d="M215.01,-72C224.02,-72 233.63,-72 242.59,-72"/>
<polygon fill="black" stroke="black" stroke-width="1.2" points="242.73,-75.5 252.73,-72 242.73,-68.5 242.73,-75.5"/>
</g>
<!-- pressure&#45;&gt;rotate -->
<g id="edge3" class="edge">
<title>pressure&#45;&gt;rotate</title>
<path fill="none" stroke="black" stroke-width="1.2" d="M211.58,-53.87C221.46,-48.61 232.28,-42.85 242.31,-37.52"/>
<polygon fill="black" stroke="black" stroke-width="1.2" points="244.06,-40.55 251.25,-32.76 240.78,-34.37 244.06,-40.55"/>
</g>
<!-- vibration -->
<g id="node4" class="node">
<title>vibration</title>
<path fill="white" stroke="black" d="M203.5,-36C203.5,-36 149.5,-36 149.5,-36 143.5,-36 137.5,-30 137.5,-24 137.5,-24 137.5,-12 137.5,-12 137.5,-6 143.5,0 149.5,0 149.5,0 203.5,0 203.5,0 209.5,0 215.5,-6 215.5,-12 215.5,-12 215.5,-24 215.5,-24 215.5,-30 209.5,-36 203.5,-36"/>
<text text-anchor="middle" x="176.5" y="-14.3" font-family="Helvetica,sans-Serif" font-size="14.00">vibration</text>
</g>
<!-- vibration&#45;&gt;volt -->
<g id="edge2" class="edge">
<title>vibration&#45;&gt;volt</title>
<path fill="none" stroke="black" stroke-width="1.2" d="M211.58,-36.13C222,-41.68 233.48,-47.78 243.97,-53.36"/>
<polygon fill="black" stroke="black" stroke-width="1.2" points="242.4,-56.49 252.87,-58.1 245.69,-50.31 242.4,-56.49"/>
</g>
<!-- vibration&#45;&gt;rotate -->
<g id="edge4" class="edge">
<title>vibration&#45;&gt;rotate</title>
<path fill="none" stroke="black" stroke-width="1.2" d="M215.58,-18C223.97,-18 232.85,-18 241.22,-18"/>
<polygon fill="black" stroke="black" stroke-width="1.2" points="241.48,-21.5 251.48,-18 241.48,-14.5 241.48,-21.5"/>
</g>
</g>
</svg>
