<?xml version="1.0" encoding="UTF-8" standalone="no"?>
<!DOCTYPE svg PUBLIC "-//W3C//DTD SVG 1.1//EN"
 "http://www.w3.org/Graphics/SVG/1.1/DTD/svg11.dtd">
<!-- Generated by graphviz version 2.50.0 (0)
 -->
<!-- Title: G Pages: 1 -->
<svg width="454pt" height="124pt"
 viewBox="0.00 0.00 454.00 124.00" xmlns="http://www.w3.org/2000/svg" xmlns:xlink="http://www.w3.org/1999/xlink">
<g id="graph0" class="graph" transform="scale(1 1) rotate(0) translate(4 120)">
<title>G</title>
<polygon fill="white" stroke="transparent" points="-4,4 -4,-120 450,-120 450,4 -4,4"/>
<text text-anchor="middle" x="223" y="-99.2" font-family="Times,serif" font-size="16.00">model=model4/nbcb_w_telemetry.json [machine 51]</text>
<!-- volt -->
<g id="node1" class="node">
<title>volt</title>
<path fill="white" stroke="black" d="M135,-90C135,-90 105,-90 105,-90 99,-90 93,-84 93,-78 93,-78 93,-66 93,-66 93,-60 99,-54 105,-54 105,-54 135,-54 135,-54 141,-54 147,-60 147,-66 147,-66 147,-78 147,-78 147,-84 141,-90 135,-90"/>
<text text-anchor="middle" x="120" y="-68.3" font-family="Helvetica,sans-Serif" font-size="14.00">volt</text>
</g>
<!-- rotate -->
<g id="node2" class="node">
<title>rotate</title>
<path fill="white" stroke="black" d="M240,-82C240,-82 207,-82 207,-82 201,-82 195,-76 195,-70 195,-70 195,-58 195,-58 195,-52 201,-46 207,-46 207,-46 240,-46 240,-46 246,-46 252,-52 252,-58 252,-58 252,-70 252,-70 252,-76 246,-82 240,-82"/>
<text text-anchor="middle" x="223.5" y="-60.3" font-family="Helvetica,sans-Serif" font-size="14.00">rotate</text>
</g>
<!-- volt&#45;&gt;rotate -->
<g id="edge1" class="edge">
<title>volt&#45;&gt;rotate</title>
<path fill="none" stroke="black" stroke-width="1.2" d="M157.14,-69.15C166.01,-68.45 175.53,-67.7 184.49,-67"/>
<polygon fill="black" stroke="black" stroke-width="1.2" points="156.83,-65.66 147.14,-69.94 157.38,-72.64 156.83,-65.66"/>
<polygon fill="black" stroke="black" stroke-width="1.2" points="184.98,-70.47 194.67,-66.19 184.43,-63.49 184.98,-70.47"/>
</g>
<!-- pressure -->
<g id="node3" class="node">
<title>pressure</title>
<path fill="white" stroke="black" d="M353,-59C353,-59 300,-59 300,-59 294,-59 288,-53 288,-47 288,-47 288,-35 288,-35 288,-29 294,-23 300,-23 300,-23 353,-23 353,-23 359,-23 365,-29 365,-35 365,-35 365,-47 365,-47 365,-53 359,-59 353,-59"/>
<text text-anchor="middle" x="326.5" y="-37.3" font-family="Helvetica,sans-Serif" font-size="14.00">pressure</text>
</g>
<!-- rotate&#45;&gt;pressure -->
<g id="edge2" class="edge">
<title>rotate&#45;&gt;pressure</title>
<path fill="none" stroke="black" stroke-width="1.2" d="M252.1,-57.72C260.08,-55.9 269.02,-53.86 277.85,-51.85"/>
<polygon fill="black" stroke="black" stroke-width="1.2" points="278.74,-55.24 287.71,-49.61 277.18,-48.41 278.74,-55.24"/>
</g>
<!-- vibration -->
<g id="node4" class="node">
<title>vibration</title>
<path fill="white" stroke="black" d="M147,-36C147,-36 93,-36 93,-36 87,-36 81,-30 81,-24 81,-24 81,-12 81,-12 81,-6 87,0 93,0 93,0 147,0 147,0 153,0 159,-6 159,-12 159,-12 159,-24 159,-24 159,-30 153,-36 147,-36"/>
<text text-anchor="middle" x="120" y="-14.3" font-family="Helvetica,sans-Serif" font-size="14.00">vibration</text>
</g>
<!-- vibration&#45;&gt;rotate -->
<g id="edge3" class="edge">
<title>vibration&#45;&gt;rotate</title>
<path fill="none" stroke="black" stroke-width="1.2" d="M159.08,-35.26C167.84,-39.23 177.14,-43.44 185.83,-47.38"/>
<polygon fill="black" stroke="black" stroke-width="1.2" points="184.43,-50.59 194.98,-51.53 187.32,-44.21 184.43,-50.59"/>
</g>
<!-- vibration&#45;&gt;pressure -->
<g id="edge4" class="edge">
<title>vibration&#45;&gt;pressure</title>
<path fill="none" stroke="black" stroke-width="1.2" d="M159.46,-22.33C192.95,-26.09 241.64,-31.57 277.64,-35.62"/>
<polygon fill="black" stroke="black" stroke-width="1.2" points="277.57,-39.13 287.9,-36.77 278.35,-32.18 277.57,-39.13"/>
</g>
</g>
</svg>
