<?xml version="1.0" encoding="UTF-8" standalone="no"?>
<!DOCTYPE svg PUBLIC "-//W3C//DTD SVG 1.1//EN"
 "http://www.w3.org/Graphics/SVG/1.1/DTD/svg11.dtd">
<!-- Generated by graphviz version 2.50.0 (0)
 -->
<!-- Title: G Pages: 1 -->
<svg width="1182pt" height="864pt"
 viewBox="0.00 0.00 1182.00 864.00" xmlns="http://www.w3.org/2000/svg" xmlns:xlink="http://www.w3.org/1999/xlink">
<g id="graph0" class="graph" transform="scale(1 1) rotate(0) translate(4 860)">
<title>G</title>
<polygon fill="white" stroke="transparent" points="-4,4 -4,-860 1178,-860 1178,4 -4,4"/>
<text text-anchor="middle" x="587" y="-839.2" font-family="Times,serif" font-size="16.00">model=model4/nbcb_w_mixed.json [machine 62]</text>
<!-- volt -->
<g id="node1" class="node">
<title>volt</title>
<path fill="white" stroke="black" d="M42,-369C42,-369 12,-369 12,-369 6,-369 0,-363 0,-357 0,-357 0,-345 0,-345 0,-339 6,-333 12,-333 12,-333 42,-333 42,-333 48,-333 54,-339 54,-345 54,-345 54,-357 54,-357 54,-363 48,-369 42,-369"/>
<text text-anchor="middle" x="27" y="-347.3" font-family="Helvetica,sans-Serif" font-size="14.00">volt</text>
</g>
<!-- rotate -->
<g id="node2" class="node">
<title>rotate</title>
<path fill="white" stroke="black" d="M135,-390C135,-390 102,-390 102,-390 96,-390 90,-384 90,-378 90,-378 90,-366 90,-366 90,-360 96,-354 102,-354 102,-354 135,-354 135,-354 141,-354 147,-360 147,-366 147,-366 147,-378 147,-378 147,-384 141,-390 135,-390"/>
<text text-anchor="middle" x="118.5" y="-368.3" font-family="Helvetica,sans-Serif" font-size="14.00">rotate</text>
</g>
<!-- volt&#45;&gt;rotate -->
<g id="edge1" class="edge">
<title>volt&#45;&gt;rotate</title>
<path fill="none" stroke="black" stroke-width="1.2" d="M64.12,-359.48C69.33,-360.7 74.7,-361.96 79.94,-363.19"/>
<polygon fill="black" stroke="black" stroke-width="1.2" points="64.9,-356.06 54.37,-357.19 63.3,-362.88 64.9,-356.06"/>
<polygon fill="black" stroke="black" stroke-width="1.2" points="79.23,-366.62 89.76,-365.49 80.83,-359.8 79.23,-366.62"/>
</g>
<!-- pressure -->
<g id="node3" class="node">
<title>pressure</title>
<path fill="white" stroke="black" d="M520.5,-574C520.5,-574 467.5,-574 467.5,-574 461.5,-574 455.5,-568 455.5,-562 455.5,-562 455.5,-550 455.5,-550 455.5,-544 461.5,-538 467.5,-538 467.5,-538 520.5,-538 520.5,-538 526.5,-538 532.5,-544 532.5,-550 532.5,-550 532.5,-562 532.5,-562 532.5,-568 526.5,-574 520.5,-574"/>
<text text-anchor="middle" x="494" y="-552.3" font-family="Helvetica,sans-Serif" font-size="14.00">pressure</text>
</g>
<!-- volt&#45;&gt;pressure -->
<g id="edge2" class="edge">
<title>volt&#45;&gt;pressure</title>
<path fill="none" stroke="black" stroke-width="1.2" d="M28.25,-369.19C29.63,-416.14 38.25,-543.93 90,-633 117.98,-681.16 132.54,-693.42 183,-717 274.29,-759.66 323.95,-789.04 409,-735 461.64,-701.55 481.87,-625.42 489.18,-584.04"/>
<polygon fill="black" stroke="black" stroke-width="1.2" points="492.65,-584.51 490.81,-574.07 485.74,-583.38 492.65,-584.51"/>
</g>
<!-- vibration -->
<g id="node4" class="node">
<title>vibration</title>
<path fill="white" stroke="black" d="M256,-482C256,-482 202,-482 202,-482 196,-482 190,-476 190,-470 190,-470 190,-458 190,-458 190,-452 196,-446 202,-446 202,-446 256,-446 256,-446 262,-446 268,-452 268,-458 268,-458 268,-470 268,-470 268,-476 262,-482 256,-482"/>
<text text-anchor="middle" x="229" y="-460.3" font-family="Helvetica,sans-Serif" font-size="14.00">vibration</text>
</g>
<!-- volt&#45;&gt;vibration -->
<g id="edge3" class="edge">
<title>volt&#45;&gt;vibration</title>
<path fill="none" stroke="black" stroke-width="1.2" d="M48.97,-369.09C60.61,-378.65 75.61,-390.18 90,-399 118.89,-416.69 153.36,-432.93 180.63,-444.76"/>
<polygon fill="black" stroke="black" stroke-width="1.2" points="179.38,-448.03 189.95,-448.75 182.14,-441.59 179.38,-448.03"/>
</g>
<!-- err_error1 -->
<g id="node5" class="node">
<title>err_error1</title>
<path fill="white" stroke="black" d="M390.5,-726C390.5,-726 329.5,-726 329.5,-726 323.5,-726 317.5,-720 317.5,-714 317.5,-714 317.5,-702 317.5,-702 317.5,-696 323.5,-690 329.5,-690 329.5,-690 390.5,-690 390.5,-690 396.5,-690 402.5,-696 402.5,-702 402.5,-702 402.5,-714 402.5,-714 402.5,-720 396.5,-726 390.5,-726"/>
<text text-anchor="middle" x="360" y="-704.3" font-family="Helvetica,sans-Serif" font-size="14.00">err_error1</text>
</g>
<!-- volt&#45;&gt;err_error1 -->
<g id="edge4" class="edge">
<title>volt&#45;&gt;err_error1</title>
<path fill="none" stroke="black" stroke-width="1.2" d="M31.51,-379.6C41.41,-446.8 76.2,-614.8 183,-691 218.63,-716.42 269.18,-718.8 306.96,-715.91"/>
<polygon fill="black" stroke="black" stroke-width="1.2" points="34.92,-378.77 30.07,-369.35 27.99,-379.74 34.92,-378.77"/>
<polygon fill="black" stroke="black" stroke-width="1.2" points="307.62,-719.37 317.26,-714.98 306.98,-712.4 307.62,-719.37"/>
</g>
<!-- err_error3 -->
<g id="node7" class="node">
<title>err_error3</title>
<path fill="white" stroke="black" d="M1041,-490C1041,-490 980,-490 980,-490 974,-490 968,-484 968,-478 968,-478 968,-466 968,-466 968,-460 974,-454 980,-454 980,-454 1041,-454 1041,-454 1047,-454 1053,-460 1053,-466 1053,-466 1053,-478 1053,-478 1053,-484 1047,-490 1041,-490"/>
<text text-anchor="middle" x="1010.5" y="-468.3" font-family="Helvetica,sans-Serif" font-size="14.00">err_error3</text>
</g>
<!-- volt&#45;&gt;err_error3 -->
<g id="edge6" class="edge">
<title>volt&#45;&gt;err_error3</title>
<path fill="none" stroke="black" stroke-width="1.2" d="M28.81,-369.04C32.19,-438.05 47.1,-684.59 90,-748 129.98,-807.09 156.66,-830 228,-830 228,-830 228,-830 361,-830 639.3,-830 741.41,-775.79 932,-573 955.42,-548.08 946.16,-531.31 968,-505 970.37,-502.14 973.03,-499.36 975.82,-496.71"/>
<polygon fill="black" stroke="black" stroke-width="1.2" points="978.23,-499.25 983.43,-490.02 973.61,-494 978.23,-499.25"/>
</g>
<!-- err_error4 -->
<g id="node8" class="node">
<title>err_error4</title>
<path fill="white" stroke="black" d="M1162,-466C1162,-466 1101,-466 1101,-466 1095,-466 1089,-460 1089,-454 1089,-454 1089,-442 1089,-442 1089,-436 1095,-430 1101,-430 1101,-430 1162,-430 1162,-430 1168,-430 1174,-436 1174,-442 1174,-442 1174,-454 1174,-454 1174,-460 1168,-466 1162,-466"/>
<text text-anchor="middle" x="1131.5" y="-444.3" font-family="Helvetica,sans-Serif" font-size="14.00">err_error4</text>
</g>
<!-- volt&#45;&gt;err_error4 -->
<g id="edge7" class="edge">
<title>volt&#45;&gt;err_error4</title>
<path fill="none" stroke="black" stroke-width="1.2" d="M29.89,-332.84C36.01,-277 56.83,-109.13 90,-67 132.17,-13.43 159.82,0 228,0 228,0 228,0 890.5,0 1081.86,0 1121.24,-321.51 1128.8,-419.8"/>
<polygon fill="black" stroke="black" stroke-width="1.2" points="1125.32,-420.16 1129.53,-429.88 1132.3,-419.66 1125.32,-420.16"/>
</g>
<!-- mnt_comp2 -->
<g id="node11" class="node">
<title>mnt_comp2</title>
<path fill="white" stroke="black" d="M799,-300C799,-300 725,-300 725,-300 719,-300 713,-294 713,-288 713,-288 713,-276 713,-276 713,-270 719,-264 725,-264 725,-264 799,-264 799,-264 805,-264 811,-270 811,-276 811,-276 811,-288 811,-288 811,-294 805,-300 799,-300"/>
<text text-anchor="middle" x="762" y="-278.3" font-family="Helvetica,sans-Serif" font-size="14.00">mnt_comp2</text>
</g>
<!-- volt&#45;&gt;mnt_comp2 -->
<g id="edge9" class="edge">
<title>volt&#45;&gt;mnt_comp2</title>
<path fill="none" stroke="black" stroke-width="1.2" d="M38.32,-332.77C49.38,-314.36 68.31,-285.85 90,-266 174.57,-188.6 200.54,-163.67 311,-133 470.5,-88.71 547.13,-99.36 677,-202 696.29,-217.24 695.28,-226.96 713,-244 717.73,-248.54 722.96,-253.11 728.19,-257.41"/>
<polygon fill="black" stroke="black" stroke-width="1.2" points="726.32,-260.4 736.31,-263.93 730.7,-254.94 726.32,-260.4"/>
</g>
<!-- mnt_comp3 -->
<g id="node12" class="node">
<title>mnt_comp3</title>
<path fill="white" stroke="black" d="M665,-422C665,-422 591,-422 591,-422 585,-422 579,-416 579,-410 579,-410 579,-398 579,-398 579,-392 585,-386 591,-386 591,-386 665,-386 665,-386 671,-386 677,-392 677,-398 677,-398 677,-410 677,-410 677,-416 671,-422 665,-422"/>
<text text-anchor="middle" x="628" y="-400.3" font-family="Helvetica,sans-Serif" font-size="14.00">mnt_comp3</text>
</g>
<!-- volt&#45;&gt;mnt_comp3 -->
<g id="edge10" class="edge">
<title>volt&#45;&gt;mnt_comp3</title>
<path fill="none" stroke="black" stroke-width="1.2" d="M47.01,-332.89C118.22,-267.28 373.66,-52.04 543,-171 610.2,-218.21 623.88,-324.66 626.5,-375.68"/>
<polygon fill="black" stroke="black" stroke-width="1.2" points="623.02,-376.12 626.92,-385.98 630.01,-375.84 623.02,-376.12"/>
</g>
<!-- fail_comp1 -->
<g id="node14" class="node">
<title>fail_comp1</title>
<path fill="white" stroke="black" d="M263,-298C263,-298 195,-298 195,-298 189,-298 183,-292 183,-286 183,-286 183,-274 183,-274 183,-268 189,-262 195,-262 195,-262 263,-262 263,-262 269,-262 275,-268 275,-274 275,-274 275,-286 275,-286 275,-292 269,-298 263,-298"/>
<text text-anchor="middle" x="229" y="-276.3" font-family="Helvetica,sans-Serif" font-size="14.00">fail_comp1</text>
</g>
<!-- volt&#45;&gt;fail_comp1 -->
<g id="edge12" class="edge">
<title>volt&#45;&gt;fail_comp1</title>
<path fill="none" stroke="black" stroke-width="1.2" d="M63.91,-338.25C94.31,-327.46 138.36,-311.82 173.17,-299.46"/>
<polygon fill="black" stroke="black" stroke-width="1.2" points="62.4,-335.07 54.15,-341.72 64.74,-341.67 62.4,-335.07"/>
<polygon fill="black" stroke="black" stroke-width="1.2" points="174.47,-302.72 182.73,-296.07 172.13,-296.12 174.47,-302.72"/>
</g>
<!-- rotate&#45;&gt;vibration -->
<g id="edge13" class="edge">
<title>rotate&#45;&gt;vibration</title>
<path fill="none" stroke="black" stroke-width="1.2" d="M140.94,-390.18C157.43,-404.16 180.41,-423.65 198.62,-439.09"/>
<polygon fill="black" stroke="black" stroke-width="1.2" points="196.72,-442.06 206.61,-445.86 201.24,-436.72 196.72,-442.06"/>
</g>
<!-- rotate&#45;&gt;err_error1 -->
<g id="edge14" class="edge">
<title>rotate&#45;&gt;err_error1</title>
<path fill="none" stroke="black" stroke-width="1.2" d="M122.3,-400.45C129.15,-464.44 148.74,-617.03 183,-654 214.77,-688.29 267.69,-701.03 307.22,-705.64"/>
<polygon fill="black" stroke="black" stroke-width="1.2" points="125.76,-399.85 121.24,-390.27 118.79,-400.58 125.76,-399.85"/>
<polygon fill="black" stroke="black" stroke-width="1.2" points="306.91,-709.13 317.22,-706.67 307.63,-702.17 306.91,-709.13"/>
</g>
<!-- err_error2 -->
<g id="node6" class="node">
<title>err_error2</title>
<path fill="white" stroke="black" d="M920,-324C920,-324 859,-324 859,-324 853,-324 847,-318 847,-312 847,-312 847,-300 847,-300 847,-294 853,-288 859,-288 859,-288 920,-288 920,-288 926,-288 932,-294 932,-300 932,-300 932,-312 932,-312 932,-318 926,-324 920,-324"/>
<text text-anchor="middle" x="889.5" y="-302.3" font-family="Helvetica,sans-Serif" font-size="14.00">err_error2</text>
</g>
<!-- rotate&#45;&gt;err_error2 -->
<g id="edge15" class="edge">
<title>rotate&#45;&gt;err_error2</title>
<path fill="none" stroke="black" stroke-width="1.2" d="M124.39,-353.87C132.34,-327.8 150.54,-279.89 183,-253 276.95,-175.15 324.39,-189.43 445,-171 609.98,-145.79 662.91,-178.03 811,-255 826.12,-262.86 841.99,-272.94 855.39,-282.05"/>
<polygon fill="black" stroke="black" stroke-width="1.2" points="853.6,-285.07 863.82,-287.87 857.58,-279.31 853.6,-285.07"/>
</g>
<!-- fail_comp2 -->
<g id="node15" class="node">
<title>fail_comp2</title>
<path fill="white" stroke="black" d="M394,-336C394,-336 326,-336 326,-336 320,-336 314,-330 314,-324 314,-324 314,-312 314,-312 314,-306 320,-300 326,-300 326,-300 394,-300 394,-300 400,-300 406,-306 406,-312 406,-312 406,-324 406,-324 406,-330 400,-336 394,-336"/>
<text text-anchor="middle" x="360" y="-314.3" font-family="Helvetica,sans-Serif" font-size="14.00">fail_comp2</text>
</g>
<!-- rotate&#45;&gt;fail_comp2 -->
<g id="edge17" class="edge">
<title>rotate&#45;&gt;fail_comp2</title>
<path fill="none" stroke="black" stroke-width="1.2" d="M147.44,-365.7C185.65,-357.08 255.03,-341.44 303.9,-330.42"/>
<polygon fill="black" stroke="black" stroke-width="1.2" points="304.7,-333.83 313.69,-328.22 303.16,-327 304.7,-333.83"/>
</g>
<!-- pressure&#45;&gt;vibration -->
<g id="edge19" class="edge">
<title>pressure&#45;&gt;vibration</title>
<path fill="none" stroke="black" stroke-width="1.2" d="M445.1,-553.61C407.36,-550.32 354.11,-542.52 311,-524 291.19,-515.49 271.69,-501.28 256.79,-488.82"/>
<polygon fill="black" stroke="black" stroke-width="1.2" points="445.06,-557.12 455.31,-554.42 445.62,-550.14 445.06,-557.12"/>
<polygon fill="black" stroke="black" stroke-width="1.2" points="258.87,-486 249.01,-482.13 254.31,-491.3 258.87,-486"/>
</g>
<!-- pressure&#45;&gt;err_error4 -->
<g id="edge20" class="edge">
<title>pressure&#45;&gt;err_error4</title>
<path fill="none" stroke="black" stroke-width="1.2" d="M532.65,-564.06C609.35,-578.97 788.58,-606.02 932,-568 998.95,-550.25 1065.54,-502.19 1102.03,-472.55"/>
<polygon fill="black" stroke="black" stroke-width="1.2" points="1104.29,-475.23 1109.78,-466.17 1099.84,-469.82 1104.29,-475.23"/>
</g>
<!-- err_error5 -->
<g id="node9" class="node">
<title>err_error5</title>
<path fill="white" stroke="black" d="M658.5,-656C658.5,-656 597.5,-656 597.5,-656 591.5,-656 585.5,-650 585.5,-644 585.5,-644 585.5,-632 585.5,-632 585.5,-626 591.5,-620 597.5,-620 597.5,-620 658.5,-620 658.5,-620 664.5,-620 670.5,-626 670.5,-632 670.5,-632 670.5,-644 670.5,-644 670.5,-650 664.5,-656 658.5,-656"/>
<text text-anchor="middle" x="628" y="-634.3" font-family="Helvetica,sans-Serif" font-size="14.00">err_error5</text>
</g>
<!-- pressure&#45;&gt;err_error5 -->
<g id="edge21" class="edge">
<title>pressure&#45;&gt;err_error5</title>
<path fill="none" stroke="black" stroke-width="1.2" d="M532.84,-579.5C550.42,-590.43 571.29,-603.39 588.91,-614.34"/>
<polygon fill="black" stroke="black" stroke-width="1.2" points="534.64,-576.5 524.3,-574.2 530.94,-582.45 534.64,-576.5"/>
<polygon fill="black" stroke="black" stroke-width="1.2" points="587.45,-617.55 597.79,-619.85 591.14,-611.6 587.45,-617.55"/>
</g>
<!-- pressure&#45;&gt;mnt_comp3 -->
<g id="edge23" class="edge">
<title>pressure&#45;&gt;mnt_comp3</title>
<path fill="none" stroke="black" stroke-width="1.2" d="M525.75,-537.98C531.79,-533.78 537.84,-529.04 543,-524 571.67,-495.98 596.88,-456.96 612.02,-431.12"/>
<polygon fill="black" stroke="black" stroke-width="1.2" points="615.18,-432.65 617.13,-422.24 609.11,-429.16 615.18,-432.65"/>
</g>
<!-- vibration&#45;&gt;err_error1 -->
<g id="edge26" class="edge">
<title>vibration&#45;&gt;err_error1</title>
<path fill="none" stroke="black" stroke-width="1.2" d="M241.15,-491.54C255.65,-526.44 282.52,-588.08 311,-638 319.48,-652.87 330.15,-668.66 339.28,-681.48"/>
<polygon fill="black" stroke="black" stroke-width="1.2" points="244.27,-489.93 237.22,-482.02 237.8,-492.6 244.27,-489.93"/>
<polygon fill="black" stroke="black" stroke-width="1.2" points="336.61,-683.76 345.3,-689.82 342.29,-679.67 336.61,-683.76"/>
</g>
<!-- vibration&#45;&gt;err_error5 -->
<g id="edge28" class="edge">
<title>vibration&#45;&gt;err_error5</title>
<path fill="none" stroke="black" stroke-width="1.2" d="M238.27,-491.82C249.31,-523.68 272.13,-574.72 311,-600 391.46,-652.33 508.22,-651.14 574.98,-644.97"/>
<polygon fill="black" stroke="black" stroke-width="1.2" points="241.55,-490.6 235.09,-482.21 234.91,-492.8 241.55,-490.6"/>
<polygon fill="black" stroke="black" stroke-width="1.2" points="575.64,-648.42 585.25,-643.94 574.95,-641.45 575.64,-648.42"/>
</g>
<!-- mnt_comp1 -->
<g id="node10" class="node">
<title>mnt_comp1</title>
<path fill="white" stroke="black" d="M397,-482C397,-482 323,-482 323,-482 317,-482 311,-476 311,-470 311,-470 311,-458 311,-458 311,-452 317,-446 323,-446 323,-446 397,-446 397,-446 403,-446 409,-452 409,-458 409,-458 409,-470 409,-470 409,-476 403,-482 397,-482"/>
<text text-anchor="middle" x="360" y="-460.3" font-family="Helvetica,sans-Serif" font-size="14.00">mnt_comp1</text>
</g>
<!-- vibration&#45;&gt;mnt_comp1 -->
<g id="edge29" class="edge">
<title>vibration&#45;&gt;mnt_comp1</title>
<path fill="none" stroke="black" stroke-width="1.2" d="M268.01,-464C278.25,-464 289.57,-464 300.65,-464"/>
<polygon fill="black" stroke="black" stroke-width="1.2" points="300.71,-467.5 310.71,-464 300.71,-460.5 300.71,-467.5"/>
</g>
<!-- vibration&#45;&gt;mnt_comp2 -->
<g id="edge30" class="edge">
<title>vibration&#45;&gt;mnt_comp2</title>
<path fill="none" stroke="black" stroke-width="1.2" d="M268.18,-450.81C316.85,-433.89 396.24,-405.9 409,-399 426.59,-389.48 427.77,-382.15 445,-372 501.23,-338.89 516.51,-330.8 579,-312 619.33,-299.87 666.26,-292.28 702.36,-287.78"/>
<polygon fill="black" stroke="black" stroke-width="1.2" points="703.21,-291.2 712.72,-286.53 702.37,-284.25 703.21,-291.2"/>
</g>
<!-- vibration&#45;&gt;mnt_comp3 -->
<g id="edge31" class="edge">
<title>vibration&#45;&gt;mnt_comp3</title>
<path fill="none" stroke="black" stroke-width="1.2" d="M277.75,-482.73C288.52,-486.16 300.02,-489.22 311,-491 353.99,-497.98 365.97,-497.74 409,-491 470.79,-481.33 485.31,-472.16 543,-448 557.56,-441.9 572.99,-434.2 586.61,-426.95"/>
<polygon fill="black" stroke="black" stroke-width="1.2" points="278.69,-479.35 268.09,-479.5 276.46,-485.99 278.69,-479.35"/>
<polygon fill="black" stroke="black" stroke-width="1.2" points="588.58,-429.87 595.71,-422.03 585.25,-423.71 588.58,-429.87"/>
</g>
<!-- vibration&#45;&gt;fail_comp2 -->
<g id="edge32" class="edge">
<title>vibration&#45;&gt;fail_comp2</title>
<path fill="none" stroke="black" stroke-width="1.2" d="M238.85,-445.97C251.87,-420.87 278.23,-375.09 311,-345 312.1,-343.99 313.25,-343 314.43,-342.04"/>
<polygon fill="black" stroke="black" stroke-width="1.2" points="316.62,-344.77 322.62,-336.03 312.48,-339.12 316.62,-344.77"/>
</g>
<!-- fail_comp4 -->
<g id="node16" class="node">
<title>fail_comp4</title>
<path fill="white" stroke="black" d="M394,-390C394,-390 326,-390 326,-390 320,-390 314,-384 314,-378 314,-378 314,-366 314,-366 314,-360 320,-354 326,-354 326,-354 394,-354 394,-354 400,-354 406,-360 406,-366 406,-366 406,-378 406,-378 406,-384 400,-390 394,-390"/>
<text text-anchor="middle" x="360" y="-368.3" font-family="Helvetica,sans-Serif" font-size="14.00">fail_comp4</text>
</g>
<!-- vibration&#45;&gt;fail_comp4 -->
<g id="edge33" class="edge">
<title>vibration&#45;&gt;fail_comp4</title>
<path fill="none" stroke="black" stroke-width="1.2" d="M262.18,-439.6C276.93,-428.56 294.72,-415.44 311,-404 314.89,-401.26 318.99,-398.44 323.09,-395.66"/>
<polygon fill="black" stroke="black" stroke-width="1.2" points="259.77,-437.03 253.87,-445.83 263.97,-442.63 259.77,-437.03"/>
<polygon fill="black" stroke="black" stroke-width="1.2" points="325.09,-398.53 331.43,-390.04 321.18,-392.73 325.09,-398.53"/>
</g>
<!-- err_error2&#45;&gt;volt -->
<g id="edge5" class="edge">
<title>err_error2&#45;&gt;volt</title>
<path fill="none" stroke="black" stroke-width="1.2" d="M881.55,-288C857.05,-227.91 768.57,-38 629,-38 228,-38 228,-38 228,-38 93.43,-38 45.35,-245.99 32.18,-322.88"/>
<polygon fill="black" stroke="black" stroke-width="1.2" points="28.71,-322.38 30.55,-332.82 35.62,-323.52 28.71,-322.38"/>
</g>
<!-- err_error2&#45;&gt;err_error3 -->
<g id="edge34" class="edge">
<title>err_error2&#45;&gt;err_error3</title>
<path fill="none" stroke="black" stroke-width="1.2" d="M903.46,-324.08C924.47,-353.39 966.08,-411.42 990.46,-445.44"/>
<polygon fill="black" stroke="black" stroke-width="1.2" points="987.88,-447.85 996.55,-453.94 993.57,-443.77 987.88,-447.85"/>
</g>
<!-- err_error2&#45;&gt;err_error4 -->
<g id="edge35" class="edge">
<title>err_error2&#45;&gt;err_error4</title>
<path fill="none" stroke="black" stroke-width="1.2" d="M921.38,-324.27C964.68,-349.89 1043.42,-396.48 1090.95,-424.6"/>
<polygon fill="black" stroke="black" stroke-width="1.2" points="1089.35,-427.72 1099.73,-429.8 1092.91,-421.69 1089.35,-427.72"/>
</g>
<!-- err_error3&#45;&gt;rotate -->
<g id="edge16" class="edge">
<title>err_error3&#45;&gt;rotate</title>
<path fill="none" stroke="black" stroke-width="1.2" d="M986.52,-490.17C967.8,-504.85 942.77,-524.14 932,-531 824.02,-599.79 801.3,-634.33 677,-665 576.87,-689.71 547.37,-672.51 445,-660 384.61,-652.62 363.8,-662.22 311,-632 237.54,-589.96 231.74,-560.2 183,-491 162.17,-461.42 143.35,-424.21 131.71,-399.34"/>
<polygon fill="black" stroke="black" stroke-width="1.2" points="134.83,-397.75 127.46,-390.14 128.47,-400.69 134.83,-397.75"/>
</g>
<!-- err_error3&#45;&gt;vibration -->
<g id="edge27" class="edge">
<title>err_error3&#45;&gt;vibration</title>
<path fill="none" stroke="black" stroke-width="1.2" d="M967.7,-489.48C874.56,-526.38 642.56,-606.97 445,-583 384.11,-575.61 363.97,-580.92 311,-550 285.39,-535.05 262.87,-509.55 248.11,-490.19"/>
<polygon fill="black" stroke="black" stroke-width="1.2" points="250.85,-488.01 242.09,-482.05 245.23,-492.17 250.85,-488.01"/>
</g>
<!-- err_error3&#45;&gt;err_error4 -->
<g id="edge38" class="edge">
<title>err_error3&#45;&gt;err_error4</title>
<path fill="none" stroke="black" stroke-width="1.2" d="M1053.12,-463.61C1061.41,-461.93 1070.2,-460.16 1078.78,-458.43"/>
<polygon fill="black" stroke="black" stroke-width="1.2" points="1079.59,-461.84 1088.7,-456.43 1078.21,-454.98 1079.59,-461.84"/>
</g>
<!-- err_error3&#45;&gt;mnt_comp1 -->
<g id="edge39" class="edge">
<title>err_error3&#45;&gt;mnt_comp1</title>
<path fill="none" stroke="black" stroke-width="1.2" d="M967.63,-472C918.59,-472 834.9,-472 763,-472 627,-472 627,-472 627,-472 555.38,-472 472.97,-469.07 419.09,-466.75"/>
<polygon fill="black" stroke="black" stroke-width="1.2" points="419.18,-463.25 409.04,-466.31 418.88,-470.25 419.18,-463.25"/>
</g>
<!-- err_error3&#45;&gt;mnt_comp3 -->
<g id="edge40" class="edge">
<title>err_error3&#45;&gt;mnt_comp3</title>
<path fill="none" stroke="black" stroke-width="1.2" d="M967.67,-464.43C956.12,-462.34 943.57,-460.08 932,-458 846.86,-442.72 748.23,-425.17 687.22,-414.33"/>
<polygon fill="black" stroke="black" stroke-width="1.2" points="687.48,-410.83 677.02,-412.52 686.26,-417.72 687.48,-410.83"/>
</g>
<!-- err_error5&#45;&gt;volt -->
<g id="edge8" class="edge">
<title>err_error5&#45;&gt;volt</title>
<path fill="none" stroke="black" stroke-width="1.2" d="M610.29,-656.27C571.07,-697.06 468.26,-792 361,-792 228,-792 228,-792 228,-792 46.07,-792 28.81,-476.85 27.82,-379.38"/>
<polygon fill="black" stroke="black" stroke-width="1.2" points="31.32,-379.09 27.77,-369.11 24.32,-379.13 31.32,-379.09"/>
</g>
<!-- mnt_comp1&#45;&gt;pressure -->
<g id="edge22" class="edge">
<title>mnt_comp1&#45;&gt;pressure</title>
<path fill="none" stroke="black" stroke-width="1.2" d="M387.08,-482.18C407.6,-496.48 436.37,-516.53 458.74,-532.12"/>
<polygon fill="black" stroke="black" stroke-width="1.2" points="456.77,-535.01 466.98,-537.86 460.77,-529.27 456.77,-535.01"/>
</g>
<!-- mnt_comp1&#45;&gt;mnt_comp2 -->
<g id="edge41" class="edge">
<title>mnt_comp1&#45;&gt;mnt_comp2</title>
<path fill="none" stroke="black" stroke-width="1.2" d="M393.39,-445.84C408.86,-437.38 427.72,-427.36 445,-419 535.5,-375.23 643.42,-329.87 706.85,-303.88"/>
<polygon fill="black" stroke="black" stroke-width="1.2" points="708.32,-307.05 716.25,-300.03 705.67,-300.57 708.32,-307.05"/>
</g>
<!-- mnt_comp1&#45;&gt;mnt_comp3 -->
<g id="edge42" class="edge">
<title>mnt_comp1&#45;&gt;mnt_comp3</title>
<path fill="none" stroke="black" stroke-width="1.2" d="M409.17,-453.13C454.04,-443.01 521.01,-427.91 568.84,-417.12"/>
<polygon fill="black" stroke="black" stroke-width="1.2" points="569.75,-420.5 578.74,-414.89 568.21,-413.67 569.75,-420.5"/>
</g>
<!-- mnt_comp2&#45;&gt;err_error2 -->
<g id="edge36" class="edge">
<title>mnt_comp2&#45;&gt;err_error2</title>
<path fill="none" stroke="black" stroke-width="1.2" d="M811.16,-291.21C819.61,-292.83 828.43,-294.51 836.96,-296.14"/>
<polygon fill="black" stroke="black" stroke-width="1.2" points="836.33,-299.59 846.81,-298.03 837.64,-292.71 836.33,-299.59"/>
</g>
<!-- mnt_comp3&#45;&gt;err_error2 -->
<g id="edge37" class="edge">
<title>mnt_comp3&#45;&gt;err_error2</title>
<path fill="none" stroke="black" stroke-width="1.2" d="M676.9,-385.91C722.43,-368.72 790.68,-342.94 837.28,-325.34"/>
<polygon fill="black" stroke="black" stroke-width="1.2" points="838.76,-328.53 846.88,-321.72 836.28,-321.98 838.76,-328.53"/>
</g>
<!-- mnt_comp3&#45;&gt;mnt_comp2 -->
<g id="edge44" class="edge">
<title>mnt_comp3&#45;&gt;mnt_comp2</title>
<path fill="none" stroke="black" stroke-width="1.2" d="M658.47,-385.92C664.78,-381.62 671.27,-376.86 677,-372 700.24,-352.27 723.66,-326.59 739.84,-307.71"/>
<polygon fill="black" stroke="black" stroke-width="1.2" points="742.52,-309.97 746.31,-300.08 737.18,-305.44 742.52,-309.97"/>
</g>
<!-- mnt_comp4 -->
<g id="node13" class="node">
<title>mnt_comp4</title>
<path fill="white" stroke="black" d="M531,-216C531,-216 457,-216 457,-216 451,-216 445,-210 445,-204 445,-204 445,-192 445,-192 445,-186 451,-180 457,-180 457,-180 531,-180 531,-180 537,-180 543,-186 543,-192 543,-192 543,-204 543,-204 543,-210 537,-216 531,-216"/>
<text text-anchor="middle" x="494" y="-194.3" font-family="Helvetica,sans-Serif" font-size="14.00">mnt_comp4</text>
</g>
<!-- mnt_comp4&#45;&gt;volt -->
<g id="edge11" class="edge">
<title>mnt_comp4&#45;&gt;volt</title>
<path fill="none" stroke="black" stroke-width="1.2" d="M444.86,-200.45C382.45,-204.97 271.16,-217.68 183,-253 136.54,-271.62 88.68,-304.33 58.67,-326.8"/>
<polygon fill="black" stroke="black" stroke-width="1.2" points="56.55,-324.02 50.69,-332.85 60.78,-329.6 56.55,-324.02"/>
</g>
<!-- mnt_comp4&#45;&gt;mnt_comp2 -->
<g id="edge45" class="edge">
<title>mnt_comp4&#45;&gt;mnt_comp2</title>
<path fill="none" stroke="black" stroke-width="1.2" d="M543.07,-201.45C580.55,-205.31 633.38,-213.37 677,-230 695.22,-236.95 713.82,-247.98 728.88,-258.1"/>
<polygon fill="black" stroke="black" stroke-width="1.2" points="727.08,-261.11 737.3,-263.91 731.06,-255.35 727.08,-261.11"/>
</g>
<!-- fail_comp1&#45;&gt;mnt_comp1 -->
<g id="edge43" class="edge">
<title>fail_comp1&#45;&gt;mnt_comp1</title>
<path fill="none" stroke="black" stroke-width="1.2" d="M242.14,-298.29C257.79,-321.79 285.99,-363.73 311,-399 320.14,-411.89 330.53,-426.02 339.3,-437.81"/>
<polygon fill="black" stroke="black" stroke-width="1.2" points="336.58,-440.01 345.36,-445.92 342.18,-435.82 336.58,-440.01"/>
</g>
<!-- fail_comp1&#45;&gt;mnt_comp3 -->
<g id="edge47" class="edge">
<title>fail_comp1&#45;&gt;mnt_comp3</title>
<path fill="none" stroke="black" stroke-width="1.2" d="M275.35,-277.66C312.06,-276.97 364.74,-278.76 409,-291 478.43,-310.2 551.18,-353.29 592.62,-380.36"/>
<polygon fill="black" stroke="black" stroke-width="1.2" points="590.71,-383.29 600.98,-385.88 594.57,-377.45 590.71,-383.29"/>
</g>
<!-- fail_comp1&#45;&gt;mnt_comp4 -->
<g id="edge49" class="edge">
<title>fail_comp1&#45;&gt;mnt_comp4</title>
<path fill="none" stroke="black" stroke-width="1.2" d="M275.21,-265.9C319.45,-252.11 387.03,-231.04 435.16,-216.03"/>
<polygon fill="black" stroke="black" stroke-width="1.2" points="436.32,-219.34 444.82,-213.02 434.23,-212.66 436.32,-219.34"/>
</g>
<!-- fail_comp2&#45;&gt;pressure -->
<g id="edge24" class="edge">
<title>fail_comp2&#45;&gt;pressure</title>
<path fill="none" stroke="black" stroke-width="1.2" d="M399.06,-336.01C402.7,-338.7 406.1,-341.69 409,-345 456.6,-399.42 479.11,-484.15 488.05,-527.83"/>
<polygon fill="black" stroke="black" stroke-width="1.2" points="484.64,-528.62 489.99,-537.76 491.51,-527.28 484.64,-528.62"/>
</g>
<!-- fail_comp2&#45;&gt;mnt_comp2 -->
<g id="edge46" class="edge">
<title>fail_comp2&#45;&gt;mnt_comp2</title>
<path fill="none" stroke="black" stroke-width="1.2" d="M383.69,-299.88C399.77,-288.26 422.42,-274.21 445,-268 532.45,-243.94 638.59,-256.75 702.91,-268.88"/>
<polygon fill="black" stroke="black" stroke-width="1.2" points="702.38,-272.34 712.86,-270.81 703.71,-265.47 702.38,-272.34"/>
</g>
<!-- fail_comp2&#45;&gt;mnt_comp4 -->
<g id="edge50" class="edge">
<title>fail_comp2&#45;&gt;mnt_comp4</title>
<path fill="none" stroke="black" stroke-width="1.2" d="M376.36,-299.67C392.45,-281.03 418.96,-251.86 445,-230 448.24,-227.28 451.71,-224.59 455.25,-221.99"/>
<polygon fill="black" stroke="black" stroke-width="1.2" points="457.42,-224.75 463.57,-216.13 453.38,-219.03 457.42,-224.75"/>
</g>
<!-- fail_comp4&#45;&gt;rotate -->
<g id="edge18" class="edge">
<title>fail_comp4&#45;&gt;rotate</title>
<path fill="none" stroke="black" stroke-width="1.2" d="M313.69,-372C268.56,-372 200.06,-372 157.64,-372"/>
<polygon fill="black" stroke="black" stroke-width="1.2" points="157.44,-368.5 147.44,-372 157.44,-375.5 157.44,-368.5"/>
</g>
<!-- fail_comp4&#45;&gt;pressure -->
<g id="edge25" class="edge">
<title>fail_comp4&#45;&gt;pressure</title>
<path fill="none" stroke="black" stroke-width="1.2" d="M374.55,-390.14C384.23,-403.13 397.5,-421.08 409,-437 431.81,-468.59 457.59,-505.26 474.5,-529.45"/>
<polygon fill="black" stroke="black" stroke-width="1.2" points="471.72,-531.58 480.31,-537.77 477.46,-527.57 471.72,-531.58"/>
</g>
<!-- fail_comp4&#45;&gt;mnt_comp3 -->
<g id="edge48" class="edge">
<title>fail_comp4&#45;&gt;mnt_comp3</title>
<path fill="none" stroke="black" stroke-width="1.2" d="M406.12,-377.43C450.96,-382.82 519.91,-391.12 568.83,-397"/>
<polygon fill="black" stroke="black" stroke-width="1.2" points="568.61,-400.5 578.95,-398.22 569.44,-393.55 568.61,-400.5"/>
</g>
<!-- fail_comp4&#45;&gt;mnt_comp4 -->
<g id="edge51" class="edge">
<title>fail_comp4&#45;&gt;mnt_comp4</title>
<path fill="none" stroke="black" stroke-width="1.2" d="M398.87,-353.81C402.54,-351.16 406.01,-348.22 409,-345 434.69,-317.3 426.26,-300.8 445,-268 453.5,-253.14 464.17,-237.34 473.29,-224.53"/>
<polygon fill="black" stroke="black" stroke-width="1.2" points="476.3,-226.34 479.31,-216.18 470.62,-222.24 476.3,-226.34"/>
</g>
</g>
</svg>
