<?xml version="1.0" encoding="UTF-8" standalone="no"?>
<!DOCTYPE svg PUBLIC "-//W3C//DTD SVG 1.1//EN"
 "http://www.w3.org/Graphics/SVG/1.1/DTD/svg11.dtd">
<!-- Generated by graphviz version 2.50.0 (0)
 -->
<!-- Title: G Pages: 1 -->
<svg width="1327pt" height="658pt"
 viewBox="0.00 0.00 1327.00 658.05" xmlns="http://www.w3.org/2000/svg" xmlns:xlink="http://www.w3.org/1999/xlink">
<g id="graph0" class="graph" transform="scale(1 1) rotate(0) translate(4 654.05)">
<title>G</title>
<polygon fill="white" stroke="transparent" points="-4,4 -4,-654.05 1323,-654.05 1323,4 -4,4"/>
<text text-anchor="middle" x="659.5" y="-633.25" font-family="Times,serif" font-size="16.00">model=model4/nbcb_w_mixed.json [machine 36]</text>
<!-- volt -->
<g id="node1" class="node">
<title>volt</title>
<path fill="white" stroke="black" d="M57.5,-327.05C57.5,-327.05 27.5,-327.05 27.5,-327.05 21.5,-327.05 15.5,-321.05 15.5,-315.05 15.5,-315.05 15.5,-303.05 15.5,-303.05 15.5,-297.05 21.5,-291.05 27.5,-291.05 27.5,-291.05 57.5,-291.05 57.5,-291.05 63.5,-291.05 69.5,-297.05 69.5,-303.05 69.5,-303.05 69.5,-315.05 69.5,-315.05 69.5,-321.05 63.5,-327.05 57.5,-327.05"/>
<text text-anchor="middle" x="42.5" y="-305.35" font-family="Helvetica,sans-Serif" font-size="14.00">volt</text>
</g>
<!-- rotate -->
<g id="node2" class="node">
<title>rotate</title>
<path fill="white" stroke="black" d="M166,-327.05C166,-327.05 133,-327.05 133,-327.05 127,-327.05 121,-321.05 121,-315.05 121,-315.05 121,-303.05 121,-303.05 121,-297.05 127,-291.05 133,-291.05 133,-291.05 166,-291.05 166,-291.05 172,-291.05 178,-297.05 178,-303.05 178,-303.05 178,-315.05 178,-315.05 178,-321.05 172,-327.05 166,-327.05"/>
<text text-anchor="middle" x="149.5" y="-305.35" font-family="Helvetica,sans-Serif" font-size="14.00">rotate</text>
</g>
<!-- volt&#45;&gt;rotate -->
<g id="edge1" class="edge">
<title>volt&#45;&gt;rotate</title>
<path fill="none" stroke="black" stroke-width="1.2" d="M80.04,-309.05C89.96,-309.05 100.73,-309.05 110.71,-309.05"/>
<polygon fill="black" stroke="black" stroke-width="1.2" points="79.73,-305.55 69.73,-309.05 79.73,-312.55 79.73,-305.55"/>
<polygon fill="black" stroke="black" stroke-width="1.2" points="110.78,-312.55 120.78,-309.05 110.78,-305.55 110.78,-312.55"/>
</g>
<!-- vibration -->
<g id="node4" class="node">
<title>vibration</title>
<path fill="white" stroke="black" d="M408,-262.05C408,-262.05 354,-262.05 354,-262.05 348,-262.05 342,-256.05 342,-250.05 342,-250.05 342,-238.05 342,-238.05 342,-232.05 348,-226.05 354,-226.05 354,-226.05 408,-226.05 408,-226.05 414,-226.05 420,-232.05 420,-238.05 420,-238.05 420,-250.05 420,-250.05 420,-256.05 414,-262.05 408,-262.05"/>
<text text-anchor="middle" x="381" y="-240.35" font-family="Helvetica,sans-Serif" font-size="14.00">vibration</text>
</g>
<!-- volt&#45;&gt;vibration -->
<g id="edge2" class="edge">
<title>volt&#45;&gt;vibration</title>
<path fill="none" stroke="black" stroke-width="1.2" d="M79.34,-295.61C92.36,-290.99 107.25,-285.99 121,-282.05 161.74,-270.4 172.18,-267.89 214,-261.05 253.34,-254.62 298.35,-250.19 331.57,-247.47"/>
<polygon fill="black" stroke="black" stroke-width="1.2" points="78.02,-292.37 69.81,-299.06 80.4,-298.95 78.02,-292.37"/>
<polygon fill="black" stroke="black" stroke-width="1.2" points="332.23,-250.93 341.92,-246.65 331.67,-243.95 332.23,-250.93"/>
</g>
<!-- err_error1 -->
<g id="node5" class="node">
<title>err_error1</title>
<path fill="white" stroke="black" d="M1052,-330.05C1052,-330.05 991,-330.05 991,-330.05 985,-330.05 979,-324.05 979,-318.05 979,-318.05 979,-306.05 979,-306.05 979,-300.05 985,-294.05 991,-294.05 991,-294.05 1052,-294.05 1052,-294.05 1058,-294.05 1064,-300.05 1064,-306.05 1064,-306.05 1064,-318.05 1064,-318.05 1064,-324.05 1058,-330.05 1052,-330.05"/>
<text text-anchor="middle" x="1021.5" y="-308.35" font-family="Helvetica,sans-Serif" font-size="14.00">err_error1</text>
</g>
<!-- volt&#45;&gt;err_error1 -->
<g id="edge3" class="edge">
<title>volt&#45;&gt;err_error1</title>
<path fill="none" stroke="black" stroke-width="1.2" d="M78.14,-330.03C80.55,-331.96 82.87,-333.97 85,-336.05 157.53,-406.82 124.34,-476.84 214,-524.05 503.42,-676.46 668.43,-600.82 943,-423.05 951.44,-417.59 983.22,-369.84 1003.37,-338.77"/>
<polygon fill="black" stroke="black" stroke-width="1.2" points="79.83,-326.94 69.7,-323.85 75.7,-332.58 79.83,-326.94"/>
<polygon fill="black" stroke="black" stroke-width="1.2" points="1006.48,-340.41 1008.96,-330.12 1000.6,-336.61 1006.48,-340.41"/>
</g>
<!-- err_error4 -->
<g id="node8" class="node">
<title>err_error4</title>
<path fill="white" stroke="black" d="M931,-414.05C931,-414.05 870,-414.05 870,-414.05 864,-414.05 858,-408.05 858,-402.05 858,-402.05 858,-390.05 858,-390.05 858,-384.05 864,-378.05 870,-378.05 870,-378.05 931,-378.05 931,-378.05 937,-378.05 943,-384.05 943,-390.05 943,-390.05 943,-402.05 943,-402.05 943,-408.05 937,-414.05 931,-414.05"/>
<text text-anchor="middle" x="900.5" y="-392.35" font-family="Helvetica,sans-Serif" font-size="14.00">err_error4</text>
</g>
<!-- volt&#45;&gt;err_error4 -->
<g id="edge4" class="edge">
<title>volt&#45;&gt;err_error4</title>
<path fill="none" stroke="black" stroke-width="1.2" d="M69.76,-322.22C102.72,-338.3 161.35,-365.4 214,-382.05 416.17,-445.97 476.06,-442.37 688,-436.05 747.64,-434.27 763.85,-441.4 822,-428.05 832.43,-425.66 843.26,-422 853.4,-418"/>
<polygon fill="black" stroke="black" stroke-width="1.2" points="854.96,-421.14 862.87,-414.1 852.3,-414.67 854.96,-421.14"/>
</g>
<!-- mnt_comp3 -->
<g id="node12" class="node">
<title>mnt_comp3</title>
<path fill="white" stroke="black" d="M1307,-208.05C1307,-208.05 1233,-208.05 1233,-208.05 1227,-208.05 1221,-202.05 1221,-196.05 1221,-196.05 1221,-184.05 1221,-184.05 1221,-178.05 1227,-172.05 1233,-172.05 1233,-172.05 1307,-172.05 1307,-172.05 1313,-172.05 1319,-178.05 1319,-184.05 1319,-184.05 1319,-196.05 1319,-196.05 1319,-202.05 1313,-208.05 1307,-208.05"/>
<text text-anchor="middle" x="1270" y="-186.35" font-family="Helvetica,sans-Serif" font-size="14.00">mnt_comp3</text>
</g>
<!-- volt&#45;&gt;mnt_comp3 -->
<g id="edge6" class="edge">
<title>volt&#45;&gt;mnt_comp3</title>
<path fill="none" stroke="black" stroke-width="1.2" d="M69.9,-323.66C75.24,-327.29 80.58,-331.48 85,-336.05 188.97,-443.54 109.45,-624.05 259,-624.05 259,-624.05 259,-624.05 1022.5,-624.05 1209.82,-624.05 1256.55,-314.6 1266.56,-218.3"/>
<polygon fill="black" stroke="black" stroke-width="1.2" points="1270.06,-218.44 1267.56,-208.15 1263.1,-217.76 1270.06,-218.44"/>
</g>
<!-- fail_comp1 -->
<g id="node14" class="node">
<title>fail_comp1</title>
<path fill="white" stroke="black" d="M539,-216.05C539,-216.05 471,-216.05 471,-216.05 465,-216.05 459,-210.05 459,-204.05 459,-204.05 459,-192.05 459,-192.05 459,-186.05 465,-180.05 471,-180.05 471,-180.05 539,-180.05 539,-180.05 545,-180.05 551,-186.05 551,-192.05 551,-192.05 551,-204.05 551,-204.05 551,-210.05 545,-216.05 539,-216.05"/>
<text text-anchor="middle" x="505" y="-194.35" font-family="Helvetica,sans-Serif" font-size="14.00">fail_comp1</text>
</g>
<!-- volt&#45;&gt;fail_comp1 -->
<g id="edge7" class="edge">
<title>volt&#45;&gt;fail_comp1</title>
<path fill="none" stroke="black" stroke-width="1.2" d="M77.6,-285.5C90.69,-277.37 106.07,-268.85 121,-263.05 232.08,-219.91 372.28,-205.36 448.48,-200.48"/>
<polygon fill="black" stroke="black" stroke-width="1.2" points="75.48,-282.7 68.94,-291.03 79.25,-288.6 75.48,-282.7"/>
<polygon fill="black" stroke="black" stroke-width="1.2" points="449.03,-203.95 458.8,-199.85 448.61,-196.97 449.03,-203.95"/>
</g>
<!-- pressure -->
<g id="node3" class="node">
<title>pressure</title>
<path fill="white" stroke="black" d="M286.5,-346.05C286.5,-346.05 233.5,-346.05 233.5,-346.05 227.5,-346.05 221.5,-340.05 221.5,-334.05 221.5,-334.05 221.5,-322.05 221.5,-322.05 221.5,-316.05 227.5,-310.05 233.5,-310.05 233.5,-310.05 286.5,-310.05 286.5,-310.05 292.5,-310.05 298.5,-316.05 298.5,-322.05 298.5,-322.05 298.5,-334.05 298.5,-334.05 298.5,-340.05 292.5,-346.05 286.5,-346.05"/>
<text text-anchor="middle" x="260" y="-324.35" font-family="Helvetica,sans-Serif" font-size="14.00">pressure</text>
</g>
<!-- rotate&#45;&gt;pressure -->
<g id="edge8" class="edge">
<title>rotate&#45;&gt;pressure</title>
<path fill="none" stroke="black" stroke-width="1.2" d="M178.16,-313.9C188.16,-315.65 199.76,-317.68 210.99,-319.65"/>
<polygon fill="black" stroke="black" stroke-width="1.2" points="210.7,-323.15 221.16,-321.42 211.91,-316.25 210.7,-323.15"/>
</g>
<!-- rotate&#45;&gt;err_error4 -->
<g id="edge11" class="edge">
<title>rotate&#45;&gt;err_error4</title>
<path fill="none" stroke="black" stroke-width="1.2" d="M179.21,-333.35C189.64,-341.2 201.85,-349.34 214,-355.05 267.16,-380.05 284.58,-375.63 342,-388.05 550.73,-433.19 609.29,-429.11 822,-410.05 830.42,-409.3 839.29,-408.09 847.9,-406.7"/>
<polygon fill="black" stroke="black" stroke-width="1.2" points="181.31,-330.55 171.27,-327.17 177.01,-336.07 181.31,-330.55"/>
<polygon fill="black" stroke="black" stroke-width="1.2" points="848.59,-410.13 857.86,-404.99 847.41,-403.23 848.59,-410.13"/>
</g>
<!-- rotate&#45;&gt;mnt_comp3 -->
<g id="edge12" class="edge">
<title>rotate&#45;&gt;mnt_comp3</title>
<path fill="none" stroke="black" stroke-width="1.2" d="M151.21,-290.77C153.69,-252.25 164.73,-162.04 214,-110.05 308.82,-10 366.15,-0.05 504,-0.05 504,-0.05 504,-0.05 1022.5,-0.05 1097.44,-0.05 1125.7,0.77 1185,-45.05 1224.22,-75.36 1248.44,-129.55 1260.26,-162.41"/>
<polygon fill="black" stroke="black" stroke-width="1.2" points="1256.95,-163.57 1263.53,-171.87 1263.57,-161.28 1256.95,-163.57"/>
</g>
<!-- fail_comp2 -->
<g id="node15" class="node">
<title>fail_comp2</title>
<path fill="white" stroke="black" d="M294,-155.05C294,-155.05 226,-155.05 226,-155.05 220,-155.05 214,-149.05 214,-143.05 214,-143.05 214,-131.05 214,-131.05 214,-125.05 220,-119.05 226,-119.05 226,-119.05 294,-119.05 294,-119.05 300,-119.05 306,-125.05 306,-131.05 306,-131.05 306,-143.05 306,-143.05 306,-149.05 300,-155.05 294,-155.05"/>
<text text-anchor="middle" x="260" y="-133.35" font-family="Helvetica,sans-Serif" font-size="14.00">fail_comp2</text>
</g>
<!-- rotate&#45;&gt;fail_comp2 -->
<g id="edge13" class="edge">
<title>rotate&#45;&gt;fail_comp2</title>
<path fill="none" stroke="black" stroke-width="1.2" d="M161.91,-290.97C181.04,-260.65 219.68,-199.39 242.01,-163.98"/>
<polygon fill="black" stroke="black" stroke-width="1.2" points="245.21,-165.47 247.58,-155.15 239.29,-161.74 245.21,-165.47"/>
</g>
<!-- pressure&#45;&gt;vibration -->
<g id="edge14" class="edge">
<title>pressure&#45;&gt;vibration</title>
<path fill="none" stroke="black" stroke-width="1.2" d="M294.84,-304.16C310.73,-292.95 329.63,-279.61 345.58,-268.35"/>
<polygon fill="black" stroke="black" stroke-width="1.2" points="292.68,-301.41 286.53,-310.03 296.72,-307.12 292.68,-301.41"/>
<polygon fill="black" stroke="black" stroke-width="1.2" points="347.95,-270.96 354.1,-262.33 343.92,-265.24 347.95,-270.96"/>
</g>
<!-- err_error2 -->
<g id="node6" class="node">
<title>err_error2</title>
<path fill="white" stroke="black" d="M1173,-365.05C1173,-365.05 1112,-365.05 1112,-365.05 1106,-365.05 1100,-359.05 1100,-353.05 1100,-353.05 1100,-341.05 1100,-341.05 1100,-335.05 1106,-329.05 1112,-329.05 1112,-329.05 1173,-329.05 1173,-329.05 1179,-329.05 1185,-335.05 1185,-341.05 1185,-341.05 1185,-353.05 1185,-353.05 1185,-359.05 1179,-365.05 1173,-365.05"/>
<text text-anchor="middle" x="1142.5" y="-343.35" font-family="Helvetica,sans-Serif" font-size="14.00">err_error2</text>
</g>
<!-- pressure&#45;&gt;err_error2 -->
<g id="edge15" class="edge">
<title>pressure&#45;&gt;err_error2</title>
<path fill="none" stroke="black" stroke-width="1.2" d="M298.88,-346.23C301.34,-347.77 303.74,-349.38 306,-351.05 324.46,-364.68 321.72,-377.33 342,-388.05 387.47,-412.1 404.85,-402.64 456,-408.05 671.34,-430.85 730.06,-462.42 943,-423.05 998.09,-412.87 1057.66,-388.03 1097.01,-369.5"/>
<polygon fill="black" stroke="black" stroke-width="1.2" points="1098.56,-372.64 1106.07,-365.18 1095.54,-366.33 1098.56,-372.64"/>
</g>
<!-- pressure&#45;&gt;err_error4 -->
<g id="edge17" class="edge">
<title>pressure&#45;&gt;err_error4</title>
<path fill="none" stroke="black" stroke-width="1.2" d="M298.8,-345.56C345.83,-365.71 429.09,-396.05 504,-396.05 504,-396.05 504,-396.05 640,-396.05 712.01,-396.05 795.27,-396.05 847.65,-396.05"/>
<polygon fill="black" stroke="black" stroke-width="1.2" points="847.7,-399.55 857.7,-396.05 847.7,-392.55 847.7,-399.55"/>
</g>
<!-- pressure&#45;&gt;fail_comp1 -->
<g id="edge18" class="edge">
<title>pressure&#45;&gt;fail_comp1</title>
<path fill="none" stroke="black" stroke-width="1.2" d="M308.48,-316.05C341.19,-306.61 384.91,-291.6 420,-271.05 442.21,-258.04 464.05,-238.81 479.89,-223.35"/>
<polygon fill="black" stroke="black" stroke-width="1.2" points="307.38,-312.73 298.7,-318.81 309.28,-319.47 307.38,-312.73"/>
<polygon fill="black" stroke="black" stroke-width="1.2" points="482.54,-225.64 487.16,-216.11 477.6,-220.68 482.54,-225.64"/>
</g>
<!-- vibration&#45;&gt;rotate -->
<g id="edge9" class="edge">
<title>vibration&#45;&gt;rotate</title>
<path fill="none" stroke="black" stroke-width="1.2" d="M341.92,-254.84C299.18,-266.94 230.29,-286.45 187.85,-298.47"/>
<polygon fill="black" stroke="black" stroke-width="1.2" points="186.85,-295.12 178.18,-301.21 188.76,-301.85 186.85,-295.12"/>
</g>
<!-- vibration&#45;&gt;err_error1 -->
<g id="edge19" class="edge">
<title>vibration&#45;&gt;err_error1</title>
<path fill="none" stroke="black" stroke-width="1.2" d="M420.26,-248.03C455.12,-251.66 508.02,-257.18 554,-262.05 704.61,-278 882.54,-297.16 968.65,-306.45"/>
<polygon fill="black" stroke="black" stroke-width="1.2" points="968.37,-309.94 978.69,-307.53 969.12,-302.98 968.37,-309.94"/>
</g>
<!-- vibration&#45;&gt;err_error2 -->
<g id="edge20" class="edge">
<title>vibration&#45;&gt;err_error2</title>
<path fill="none" stroke="black" stroke-width="1.2" d="M420.34,-259.21C431.68,-263.23 444.21,-267.24 456,-270.05 684.04,-324.54 745.49,-317.94 979,-339.05 1015.93,-342.39 1057.72,-344.41 1089.68,-345.58"/>
<polygon fill="black" stroke="black" stroke-width="1.2" points="1089.57,-349.08 1099.69,-345.94 1089.82,-342.09 1089.57,-349.08"/>
</g>
<!-- vibration&#45;&gt;err_error4 -->
<g id="edge21" class="edge">
<title>vibration&#45;&gt;err_error4</title>
<path fill="none" stroke="black" stroke-width="1.2" d="M429.65,-258.05C526.98,-286.64 747.88,-351.52 848.21,-380.99"/>
<polygon fill="black" stroke="black" stroke-width="1.2" points="430.63,-254.69 420.05,-255.23 428.66,-261.4 430.63,-254.69"/>
<polygon fill="black" stroke="black" stroke-width="1.2" points="847.24,-384.35 857.82,-383.81 849.21,-377.63 847.24,-384.35"/>
</g>
<!-- vibration&#45;&gt;fail_comp1 -->
<g id="edge22" class="edge">
<title>vibration&#45;&gt;fail_comp1</title>
<path fill="none" stroke="black" stroke-width="1.2" d="M420.27,-229.62C429.39,-226.18 439.3,-222.45 449,-218.79"/>
<polygon fill="black" stroke="black" stroke-width="1.2" points="450.48,-221.97 458.6,-215.17 448.01,-215.42 450.48,-221.97"/>
</g>
<!-- err_error1&#45;&gt;err_error2 -->
<g id="edge24" class="edge">
<title>err_error1&#45;&gt;err_error2</title>
<path fill="none" stroke="black" stroke-width="1.2" d="M1064.12,-324.29C1072.5,-326.76 1081.39,-329.37 1090.06,-331.92"/>
<polygon fill="black" stroke="black" stroke-width="1.2" points="1089.12,-335.29 1099.7,-334.76 1091.1,-328.58 1089.12,-335.29"/>
</g>
<!-- err_error1&#45;&gt;mnt_comp3 -->
<g id="edge26" class="edge">
<title>err_error1&#45;&gt;mnt_comp3</title>
<path fill="none" stroke="black" stroke-width="1.2" d="M1064.01,-296.14C1097.32,-282.91 1144.96,-262.92 1185,-242.05 1201.25,-233.58 1218.56,-223.13 1233.22,-213.82"/>
<polygon fill="black" stroke="black" stroke-width="1.2" points="1235.45,-216.54 1241.98,-208.2 1231.67,-210.65 1235.45,-216.54"/>
</g>
<!-- err_error2&#45;&gt;rotate -->
<g id="edge10" class="edge">
<title>err_error2&#45;&gt;rotate</title>
<path fill="none" stroke="black" stroke-width="1.2" d="M1133.89,-365.41C1109.33,-421.37 1026.46,-586.05 901.5,-586.05 772,-586.05 772,-586.05 772,-586.05 507.95,-586.05 431.53,-531.73 214,-382.05 195.9,-369.6 179.72,-350.82 168.23,-335.42"/>
<polygon fill="black" stroke="black" stroke-width="1.2" points="171.03,-333.33 162.34,-327.28 165.36,-337.44 171.03,-333.33"/>
</g>
<!-- err_error3 -->
<g id="node7" class="node">
<title>err_error3</title>
<path fill="white" stroke="black" d="M931,-254.05C931,-254.05 870,-254.05 870,-254.05 864,-254.05 858,-248.05 858,-242.05 858,-242.05 858,-230.05 858,-230.05 858,-224.05 864,-218.05 870,-218.05 870,-218.05 931,-218.05 931,-218.05 937,-218.05 943,-224.05 943,-230.05 943,-230.05 943,-242.05 943,-242.05 943,-248.05 937,-254.05 931,-254.05"/>
<text text-anchor="middle" x="900.5" y="-232.35" font-family="Helvetica,sans-Serif" font-size="14.00">err_error3</text>
</g>
<!-- err_error2&#45;&gt;err_error3 -->
<g id="edge27" class="edge">
<title>err_error2&#45;&gt;err_error3</title>
<path fill="none" stroke="black" stroke-width="1.2" d="M1115.74,-322.28C1101.44,-309.65 1082.79,-294.92 1064,-285.05 1029.01,-266.67 986.08,-254.1 953.13,-246.29"/>
<polygon fill="black" stroke="black" stroke-width="1.2" points="1113.44,-324.92 1123.2,-329.03 1118.14,-319.73 1113.44,-324.92"/>
<polygon fill="black" stroke="black" stroke-width="1.2" points="953.78,-242.85 943.25,-244.03 952.21,-249.67 953.78,-242.85"/>
</g>
<!-- err_error2&#45;&gt;mnt_comp3 -->
<g id="edge28" class="edge">
<title>err_error2&#45;&gt;mnt_comp3</title>
<path fill="none" stroke="black" stroke-width="1.2" d="M1161.77,-328.65C1169.19,-320.93 1177.71,-311.74 1185,-303.05 1208.95,-274.48 1234.18,-239.85 1250.66,-216.51"/>
<polygon fill="black" stroke="black" stroke-width="1.2" points="1253.64,-218.35 1256.53,-208.16 1247.92,-214.33 1253.64,-218.35"/>
</g>
<!-- err_error3&#45;&gt;pressure -->
<g id="edge16" class="edge">
<title>err_error3&#45;&gt;pressure</title>
<path fill="none" stroke="black" stroke-width="1.2" d="M857.89,-242.05C744.23,-258.42 428.98,-303.85 308.58,-321.2"/>
<polygon fill="black" stroke="black" stroke-width="1.2" points="307.96,-317.75 298.56,-322.64 308.95,-324.68 307.96,-317.75"/>
</g>
<!-- err_error3&#45;&gt;err_error1 -->
<g id="edge25" class="edge">
<title>err_error3&#45;&gt;err_error1</title>
<path fill="none" stroke="black" stroke-width="1.2" d="M929.7,-254.06C945.74,-264.3 966.02,-277.25 983.34,-288.32"/>
<polygon fill="black" stroke="black" stroke-width="1.2" points="981.78,-291.47 992.09,-293.91 985.54,-285.57 981.78,-291.47"/>
</g>
<!-- err_error5 -->
<g id="node9" class="node">
<title>err_error5</title>
<path fill="white" stroke="black" d="M73,-381.05C73,-381.05 12,-381.05 12,-381.05 6,-381.05 0,-375.05 0,-369.05 0,-369.05 0,-357.05 0,-357.05 0,-351.05 6,-345.05 12,-345.05 12,-345.05 73,-345.05 73,-345.05 79,-345.05 85,-351.05 85,-357.05 85,-357.05 85,-369.05 85,-369.05 85,-375.05 79,-381.05 73,-381.05"/>
<text text-anchor="middle" x="42.5" y="-359.35" font-family="Helvetica,sans-Serif" font-size="14.00">err_error5</text>
</g>
<!-- mnt_comp1 -->
<g id="node10" class="node">
<title>mnt_comp1</title>
<path fill="white" stroke="black" d="M676,-216.05C676,-216.05 602,-216.05 602,-216.05 596,-216.05 590,-210.05 590,-204.05 590,-204.05 590,-192.05 590,-192.05 590,-186.05 596,-180.05 602,-180.05 602,-180.05 676,-180.05 676,-180.05 682,-180.05 688,-186.05 688,-192.05 688,-192.05 688,-204.05 688,-204.05 688,-210.05 682,-216.05 676,-216.05"/>
<text text-anchor="middle" x="639" y="-194.35" font-family="Helvetica,sans-Serif" font-size="14.00">mnt_comp1</text>
</g>
<!-- mnt_comp4 -->
<g id="node13" class="node">
<title>mnt_comp4</title>
<path fill="white" stroke="black" d="M810,-216.05C810,-216.05 736,-216.05 736,-216.05 730,-216.05 724,-210.05 724,-204.05 724,-204.05 724,-192.05 724,-192.05 724,-186.05 730,-180.05 736,-180.05 736,-180.05 810,-180.05 810,-180.05 816,-180.05 822,-186.05 822,-192.05 822,-192.05 822,-204.05 822,-204.05 822,-210.05 816,-216.05 810,-216.05"/>
<text text-anchor="middle" x="773" y="-194.35" font-family="Helvetica,sans-Serif" font-size="14.00">mnt_comp4</text>
</g>
<!-- mnt_comp1&#45;&gt;mnt_comp4 -->
<g id="edge32" class="edge">
<title>mnt_comp1&#45;&gt;mnt_comp4</title>
<path fill="none" stroke="black" stroke-width="1.2" d="M688.03,-198.05C696.31,-198.05 705,-198.05 713.52,-198.05"/>
<polygon fill="black" stroke="black" stroke-width="1.2" points="713.79,-201.55 723.79,-198.05 713.79,-194.55 713.79,-201.55"/>
</g>
<!-- mnt_comp2 -->
<g id="node11" class="node">
<title>mnt_comp2</title>
<path fill="white" stroke="black" d="M542,-75.05C542,-75.05 468,-75.05 468,-75.05 462,-75.05 456,-69.05 456,-63.05 456,-63.05 456,-51.05 456,-51.05 456,-45.05 462,-39.05 468,-39.05 468,-39.05 542,-39.05 542,-39.05 548,-39.05 554,-45.05 554,-51.05 554,-51.05 554,-63.05 554,-63.05 554,-69.05 548,-75.05 542,-75.05"/>
<text text-anchor="middle" x="505" y="-53.35" font-family="Helvetica,sans-Serif" font-size="14.00">mnt_comp2</text>
</g>
<!-- mnt_comp2&#45;&gt;volt -->
<g id="edge5" class="edge">
<title>mnt_comp2&#45;&gt;volt</title>
<path fill="none" stroke="black" stroke-width="1.2" d="M455.79,-55.04C394.72,-54.77 288.45,-62.13 214,-110.05 143.25,-155.59 85.75,-239.18 59.27,-282.08"/>
<polygon fill="black" stroke="black" stroke-width="1.2" points="56.15,-280.48 53.95,-290.84 62.13,-284.11 56.15,-280.48"/>
</g>
<!-- mnt_comp2&#45;&gt;mnt_comp3 -->
<g id="edge34" class="edge">
<title>mnt_comp2&#45;&gt;mnt_comp3</title>
<path fill="none" stroke="black" stroke-width="1.2" d="M554.46,-51.5C607.72,-45.9 695.84,-38.05 772,-38.05 772,-38.05 772,-38.05 1022.5,-38.05 1099.8,-38.05 1120.86,-56.9 1185,-100.05 1210.76,-117.38 1234.33,-144.02 1249.9,-163.82"/>
<polygon fill="black" stroke="black" stroke-width="1.2" points="1247.2,-166.05 1256.07,-171.84 1252.75,-161.78 1247.2,-166.05"/>
</g>
<!-- mnt_comp2&#45;&gt;mnt_comp4 -->
<g id="edge35" class="edge">
<title>mnt_comp2&#45;&gt;mnt_comp4</title>
<path fill="none" stroke="black" stroke-width="1.2" d="M539.96,-75.05C588.05,-100.55 676.01,-147.17 728.72,-175.11"/>
<polygon fill="black" stroke="black" stroke-width="1.2" points="727.35,-178.34 737.82,-179.94 730.63,-172.16 727.35,-178.34"/>
</g>
<!-- mnt_comp3&#45;&gt;err_error3 -->
<g id="edge29" class="edge">
<title>mnt_comp3&#45;&gt;err_error3</title>
<path fill="none" stroke="black" stroke-width="1.2" d="M1220.65,-198.56C1208.99,-200.48 1196.57,-202.44 1185,-204.05 1104.41,-215.31 1010.51,-225.29 953.57,-231.01"/>
<polygon fill="black" stroke="black" stroke-width="1.2" points="952.98,-227.55 943.38,-232.02 953.68,-234.51 952.98,-227.55"/>
</g>
<!-- mnt_comp3&#45;&gt;mnt_comp4 -->
<g id="edge37" class="edge">
<title>mnt_comp3&#45;&gt;mnt_comp4</title>
<path fill="none" stroke="black" stroke-width="1.2" d="M1220.8,-190.83C1129.42,-192.31 931.28,-195.51 832.47,-197.11"/>
<polygon fill="black" stroke="black" stroke-width="1.2" points="832.31,-193.61 822.36,-197.27 832.42,-200.61 832.31,-193.61"/>
</g>
<!-- mnt_comp4&#45;&gt;err_error3 -->
<g id="edge30" class="edge">
<title>mnt_comp4&#45;&gt;err_error3</title>
<path fill="none" stroke="black" stroke-width="1.2" d="M822.16,-212.63C830.61,-215.19 839.43,-217.86 847.96,-220.45"/>
<polygon fill="black" stroke="black" stroke-width="1.2" points="847.22,-223.88 857.81,-223.43 849.25,-217.18 847.22,-223.88"/>
</g>
<!-- mnt_comp4&#45;&gt;err_error4 -->
<g id="edge31" class="edge">
<title>mnt_comp4&#45;&gt;err_error4</title>
<path fill="none" stroke="black" stroke-width="1.2" d="M785.58,-216.32C807.81,-251.39 856.54,-328.27 882.47,-369.19"/>
<polygon fill="black" stroke="black" stroke-width="1.2" points="879.64,-371.25 887.95,-377.82 885.55,-367.5 879.64,-371.25"/>
</g>
<!-- fail_comp1&#45;&gt;mnt_comp1 -->
<g id="edge33" class="edge">
<title>fail_comp1&#45;&gt;mnt_comp1</title>
<path fill="none" stroke="black" stroke-width="1.2" d="M551.06,-198.05C560.27,-198.05 570.09,-198.05 579.7,-198.05"/>
<polygon fill="black" stroke="black" stroke-width="1.2" points="579.99,-201.55 589.99,-198.05 579.99,-194.55 579.99,-201.55"/>
</g>
<!-- fail_comp1&#45;&gt;mnt_comp3 -->
<g id="edge38" class="edge">
<title>fail_comp1&#45;&gt;mnt_comp3</title>
<path fill="none" stroke="black" stroke-width="1.2" d="M551.31,-181.6C563.72,-177.61 577.26,-173.73 590,-171.05 669.58,-154.3 690.67,-152.05 772,-152.05 772,-152.05 772,-152.05 1022.5,-152.05 1087.52,-152.05 1161.07,-165.12 1210.77,-175.94"/>
<polygon fill="black" stroke="black" stroke-width="1.2" points="1210.18,-179.39 1220.7,-178.13 1211.69,-172.55 1210.18,-179.39"/>
</g>
<!-- fail_comp2&#45;&gt;vibration -->
<g id="edge23" class="edge">
<title>fail_comp2&#45;&gt;vibration</title>
<path fill="none" stroke="black" stroke-width="1.2" d="M281.19,-155.2C300.68,-172.73 330.35,-199.41 352.1,-218.96"/>
<polygon fill="black" stroke="black" stroke-width="1.2" points="349.94,-221.73 359.71,-225.81 354.62,-216.52 349.94,-221.73"/>
</g>
<!-- fail_comp2&#45;&gt;mnt_comp2 -->
<g id="edge36" class="edge">
<title>fail_comp2&#45;&gt;mnt_comp2</title>
<path fill="none" stroke="black" stroke-width="1.2" d="M297.15,-118.95C310.97,-112.46 327.01,-105.42 342,-100.05 375.87,-87.92 414.8,-77.48 446.01,-69.92"/>
<polygon fill="black" stroke="black" stroke-width="1.2" points="446.94,-73.3 455.86,-67.57 445.32,-66.49 446.94,-73.3"/>
</g>
<!-- fail_comp2&#45;&gt;mnt_comp3 -->
<g id="edge39" class="edge">
<title>fail_comp2&#45;&gt;mnt_comp3</title>
<path fill="none" stroke="black" stroke-width="1.2" d="M306.11,-130.21C354.81,-123.43 434.72,-114.05 504,-114.05 504,-114.05 504,-114.05 1022.5,-114.05 1095.97,-114.05 1176.51,-145.27 1224.89,-167.69"/>
<polygon fill="black" stroke="black" stroke-width="1.2" points="1223.58,-170.94 1234.12,-172.04 1226.57,-164.61 1223.58,-170.94"/>
</g>
</g>
</svg>
