<?xml version="1.0" encoding="UTF-8" standalone="no"?>
<!DOCTYPE svg PUBLIC "-//W3C//DTD SVG 1.1//EN"
 "http://www.w3.org/Graphics/SVG/1.1/DTD/svg11.dtd">
<!-- Generated by graphviz version 2.50.0 (0)
 -->
<!-- Title: G Pages: 1 -->
<svg width="454pt" height="131pt"
 viewBox="0.00 0.00 454.00 131.00" xmlns="http://www.w3.org/2000/svg" xmlns:xlink="http://www.w3.org/1999/xlink">
<g id="graph0" class="graph" transform="scale(1 1) rotate(0) translate(4 127)">
<title>G</title>
<polygon fill="white" stroke="transparent" points="-4,4 -4,-127 450,-127 450,4 -4,4"/>
<text text-anchor="middle" x="223" y="-106.2" font-family="Times,serif" font-size="16.00">model=model4/nbcb_w_telemetry.json [machine 61]</text>
<!-- volt -->
<g id="node1" class="node">
<title>volt</title>
<path fill="white" stroke="black" d="M398,-82C398,-82 368,-82 368,-82 362,-82 356,-76 356,-70 356,-70 356,-58 356,-58 356,-52 362,-46 368,-46 368,-46 398,-46 398,-46 404,-46 410,-52 410,-58 410,-58 410,-70 410,-70 410,-76 404,-82 398,-82"/>
<text text-anchor="middle" x="383" y="-60.3" font-family="Helvetica,sans-Serif" font-size="14.00">volt</text>
</g>
<!-- rotate -->
<g id="node2" class="node">
<title>rotate</title>
<path fill="white" stroke="black" d="M308,-36C308,-36 275,-36 275,-36 269,-36 263,-30 263,-24 263,-24 263,-12 263,-12 263,-6 269,0 275,0 275,0 308,0 308,0 314,0 320,-6 320,-12 320,-12 320,-24 320,-24 320,-30 314,-36 308,-36"/>
<text text-anchor="middle" x="291.5" y="-14.3" font-family="Helvetica,sans-Serif" font-size="14.00">rotate</text>
</g>
<!-- rotate&#45;&gt;volt -->
<g id="edge1" class="edge">
<title>rotate&#45;&gt;volt</title>
<path fill="none" stroke="black" stroke-width="1.2" d="M320.33,-32.3C328.71,-36.61 338.01,-41.39 346.8,-45.91"/>
<polygon fill="black" stroke="black" stroke-width="1.2" points="345.22,-49.03 355.72,-50.49 348.42,-42.81 345.22,-49.03"/>
</g>
<!-- pressure -->
<g id="node3" class="node">
<title>pressure</title>
<path fill="white" stroke="black" d="M101,-97C101,-97 48,-97 48,-97 42,-97 36,-91 36,-85 36,-85 36,-73 36,-73 36,-67 42,-61 48,-61 48,-61 101,-61 101,-61 107,-61 113,-67 113,-73 113,-73 113,-85 113,-85 113,-91 107,-97 101,-97"/>
<text text-anchor="middle" x="74.5" y="-75.3" font-family="Helvetica,sans-Serif" font-size="14.00">pressure</text>
</g>
<!-- pressure&#45;&gt;volt -->
<g id="edge2" class="edge">
<title>pressure&#45;&gt;volt</title>
<path fill="none" stroke="black" stroke-width="1.2" d="M113.25,-81.45C124.73,-82.09 137.38,-82.68 149,-83 225.06,-85.07 244.57,-84.92 320,-75 328.4,-73.9 337.39,-72.45 345.86,-70.98"/>
<polygon fill="black" stroke="black" stroke-width="1.2" points="346.61,-74.4 355.83,-69.18 345.37,-67.51 346.61,-74.4"/>
</g>
<!-- vibration -->
<g id="node4" class="node">
<title>vibration</title>
<path fill="white" stroke="black" d="M215,-74C215,-74 161,-74 161,-74 155,-74 149,-68 149,-62 149,-62 149,-50 149,-50 149,-44 155,-38 161,-38 161,-38 215,-38 215,-38 221,-38 227,-44 227,-50 227,-50 227,-62 227,-62 227,-68 221,-74 215,-74"/>
<text text-anchor="middle" x="188" y="-52.3" font-family="Helvetica,sans-Serif" font-size="14.00">vibration</text>
</g>
<!-- pressure&#45;&gt;vibration -->
<g id="edge5" class="edge">
<title>pressure&#45;&gt;vibration</title>
<path fill="none" stroke="black" stroke-width="1.2" d="M113.25,-71.21C121.51,-69.51 130.37,-67.68 138.97,-65.91"/>
<polygon fill="black" stroke="black" stroke-width="1.2" points="139.82,-69.31 148.91,-63.86 138.41,-62.45 139.82,-69.31"/>
</g>
<!-- vibration&#45;&gt;volt -->
<g id="edge3" class="edge">
<title>vibration&#45;&gt;volt</title>
<path fill="none" stroke="black" stroke-width="1.2" d="M227.13,-57.58C261.53,-59.01 311.77,-61.09 345.62,-62.49"/>
<polygon fill="black" stroke="black" stroke-width="1.2" points="345.86,-66 355.99,-62.92 346.15,-59.01 345.86,-66"/>
</g>
<!-- vibration&#45;&gt;rotate -->
<g id="edge4" class="edge">
<title>vibration&#45;&gt;rotate</title>
<path fill="none" stroke="black" stroke-width="1.2" d="M227.08,-41.74C235.75,-38.5 244.94,-35.06 253.56,-31.83"/>
<polygon fill="black" stroke="black" stroke-width="1.2" points="254.84,-35.09 262.98,-28.3 252.39,-28.53 254.84,-35.09"/>
</g>
</g>
</svg>
