<?xml version="1.0" encoding="UTF-8" standalone="no"?>
<!DOCTYPE svg PUBLIC "-//W3C//DTD SVG 1.1//EN"
 "http://www.w3.org/Graphics/SVG/1.1/DTD/svg11.dtd">
<!-- Generated by graphviz version 2.50.0 (0)
 -->
<!-- Title: G Pages: 1 -->
<svg width="454pt" height="124pt"
 viewBox="0.00 0.00 454.00 124.00" xmlns="http://www.w3.org/2000/svg" xmlns:xlink="http://www.w3.org/1999/xlink">
<g id="graph0" class="graph" transform="scale(1 1) rotate(0) translate(4 120)">
<title>G</title>
<polygon fill="white" stroke="transparent" points="-4,4 -4,-120 450,-120 450,4 -4,4"/>
<text text-anchor="middle" x="223" y="-99.2" font-family="Times,serif" font-size="16.00">model=model3/nbcb_w_telemetry.json [machine 33]</text>
<!-- volt -->
<g id="node1" class="node">
<title>volt</title>
<path fill="white" stroke="black" d="M135,-90C135,-90 105,-90 105,-90 99,-90 93,-84 93,-78 93,-78 93,-66 93,-66 93,-60 99,-54 105,-54 105,-54 135,-54 135,-54 141,-54 147,-60 147,-66 147,-66 147,-78 147,-78 147,-84 141,-90 135,-90"/>
<text text-anchor="middle" x="120" y="-68.3" font-family="Helvetica,sans-Serif" font-size="14.00">volt</text>
</g>
<!-- rotate -->
<g id="node2" class="node">
<title>rotate</title>
<path fill="white" stroke="black" d="M353,-67C353,-67 320,-67 320,-67 314,-67 308,-61 308,-55 308,-55 308,-43 308,-43 308,-37 314,-31 320,-31 320,-31 353,-31 353,-31 359,-31 365,-37 365,-43 365,-43 365,-55 365,-55 365,-61 359,-67 353,-67"/>
<text text-anchor="middle" x="336.5" y="-45.3" font-family="Helvetica,sans-Serif" font-size="14.00">rotate</text>
</g>
<!-- volt&#45;&gt;rotate -->
<g id="edge1" class="edge">
<title>volt&#45;&gt;rotate</title>
<path fill="none" stroke="black" stroke-width="1.2" d="M157.25,-68.11C196.35,-63.92 258.3,-57.28 297.91,-53.03"/>
<polygon fill="black" stroke="black" stroke-width="1.2" points="156.87,-64.63 147.3,-69.18 157.62,-71.59 156.87,-64.63"/>
<polygon fill="black" stroke="black" stroke-width="1.2" points="298.4,-56.5 307.97,-51.95 297.65,-49.54 298.4,-56.5"/>
</g>
<!-- pressure -->
<g id="node3" class="node">
<title>pressure</title>
<path fill="white" stroke="black" d="M260,-44C260,-44 207,-44 207,-44 201,-44 195,-38 195,-32 195,-32 195,-20 195,-20 195,-14 201,-8 207,-8 207,-8 260,-8 260,-8 266,-8 272,-14 272,-20 272,-20 272,-32 272,-32 272,-38 266,-44 260,-44"/>
<text text-anchor="middle" x="233.5" y="-22.3" font-family="Helvetica,sans-Serif" font-size="14.00">pressure</text>
</g>
<!-- volt&#45;&gt;pressure -->
<g id="edge2" class="edge">
<title>volt&#45;&gt;pressure</title>
<path fill="none" stroke="black" stroke-width="1.2" d="M147.14,-61.22C158.54,-56.51 172.26,-50.85 185.33,-45.46"/>
<polygon fill="black" stroke="black" stroke-width="1.2" points="186.79,-48.65 194.7,-41.6 184.12,-42.17 186.79,-48.65"/>
</g>
<!-- pressure&#45;&gt;rotate -->
<g id="edge3" class="edge">
<title>pressure&#45;&gt;rotate</title>
<path fill="none" stroke="black" stroke-width="1.2" d="M272.11,-34.56C280.56,-36.49 289.53,-38.53 297.98,-40.46"/>
<polygon fill="black" stroke="black" stroke-width="1.2" points="297.43,-43.92 307.96,-42.73 298.99,-37.1 297.43,-43.92"/>
</g>
<!-- vibration -->
<g id="node4" class="node">
<title>vibration</title>
<path fill="white" stroke="black" d="M147,-36C147,-36 93,-36 93,-36 87,-36 81,-30 81,-24 81,-24 81,-12 81,-12 81,-6 87,0 93,0 93,0 147,0 147,0 153,0 159,-6 159,-12 159,-12 159,-24 159,-24 159,-30 153,-36 147,-36"/>
<text text-anchor="middle" x="120" y="-14.3" font-family="Helvetica,sans-Serif" font-size="14.00">vibration</text>
</g>
<!-- vibration&#45;&gt;pressure -->
<g id="edge4" class="edge">
<title>vibration&#45;&gt;pressure</title>
<path fill="none" stroke="black" stroke-width="1.2" d="M159.06,-20.73C167.4,-21.33 176.34,-21.97 185,-22.59"/>
<polygon fill="black" stroke="black" stroke-width="1.2" points="184.76,-26.08 194.99,-23.31 185.27,-19.1 184.76,-26.08"/>
</g>
</g>
</svg>
