<?xml version="1.0" encoding="UTF-8" standalone="no"?>
<!DOCTYPE svg PUBLIC "-//W3C//DTD SVG 1.1//EN"
 "http://www.w3.org/Graphics/SVG/1.1/DTD/svg11.dtd">
<!-- Generated by graphviz version 2.50.0 (0)
 -->
<!-- Title: G Pages: 1 -->
<svg width="1537pt" height="902pt"
 viewBox="0.00 0.00 1537.00 902.00" xmlns="http://www.w3.org/2000/svg" xmlns:xlink="http://www.w3.org/1999/xlink">
<g id="graph0" class="graph" transform="scale(1 1) rotate(0) translate(4 898)">
<title>G</title>
<polygon fill="white" stroke="transparent" points="-4,4 -4,-898 1533,-898 1533,4 -4,4"/>
<text text-anchor="middle" x="764.5" y="-877.2" font-family="Times,serif" font-size="16.00">model=model4/nbcb_w_mixed.json [machine 83]</text>
<!-- volt -->
<g id="node1" class="node">
<title>volt</title>
<path fill="white" stroke="black" d="M42,-479C42,-479 12,-479 12,-479 6,-479 0,-473 0,-467 0,-467 0,-455 0,-455 0,-449 6,-443 12,-443 12,-443 42,-443 42,-443 48,-443 54,-449 54,-455 54,-455 54,-467 54,-467 54,-473 48,-479 42,-479"/>
<text text-anchor="middle" x="27" y="-457.3" font-family="Helvetica,sans-Serif" font-size="14.00">volt</text>
</g>
<!-- vibration -->
<g id="node4" class="node">
<title>vibration</title>
<path fill="white" stroke="black" d="M156,-479C156,-479 102,-479 102,-479 96,-479 90,-473 90,-467 90,-467 90,-455 90,-455 90,-449 96,-443 102,-443 102,-443 156,-443 156,-443 162,-443 168,-449 168,-455 168,-455 168,-467 168,-467 168,-473 162,-479 156,-479"/>
<text text-anchor="middle" x="129" y="-457.3" font-family="Helvetica,sans-Serif" font-size="14.00">vibration</text>
</g>
<!-- volt&#45;&gt;vibration -->
<g id="edge2" class="edge">
<title>volt&#45;&gt;vibration</title>
<path fill="none" stroke="black" stroke-width="1.2" d="M54.01,-461C61.83,-461 70.68,-461 79.46,-461"/>
<polygon fill="black" stroke="black" stroke-width="1.2" points="79.68,-464.5 89.68,-461 79.68,-457.5 79.68,-464.5"/>
</g>
<!-- err_error1 -->
<g id="node5" class="node">
<title>err_error1</title>
<path fill="white" stroke="black" d="M725,-612C725,-612 664,-612 664,-612 658,-612 652,-606 652,-600 652,-600 652,-588 652,-588 652,-582 658,-576 664,-576 664,-576 725,-576 725,-576 731,-576 737,-582 737,-588 737,-588 737,-600 737,-600 737,-606 731,-612 725,-612"/>
<text text-anchor="middle" x="694.5" y="-590.3" font-family="Helvetica,sans-Serif" font-size="14.00">err_error1</text>
</g>
<!-- volt&#45;&gt;err_error1 -->
<g id="edge3" class="edge">
<title>volt&#45;&gt;err_error1</title>
<path fill="none" stroke="black" stroke-width="1.2" d="M39.4,-488.49C65.66,-546.89 136.33,-678 241.5,-678 241.5,-678 241.5,-678 481.5,-678 547.57,-678 617.59,-642.31 658.33,-617.45"/>
<polygon fill="black" stroke="black" stroke-width="1.2" points="42.52,-486.88 35.29,-479.13 36.11,-489.69 42.52,-486.88"/>
<polygon fill="black" stroke="black" stroke-width="1.2" points="660.42,-620.28 667.06,-612.02 656.72,-614.33 660.42,-620.28"/>
</g>
<!-- err_error2 -->
<g id="node6" class="node">
<title>err_error2</title>
<path fill="white" stroke="black" d="M390,-574C390,-574 329,-574 329,-574 323,-574 317,-568 317,-562 317,-562 317,-550 317,-550 317,-544 323,-538 329,-538 329,-538 390,-538 390,-538 396,-538 402,-544 402,-550 402,-550 402,-562 402,-562 402,-568 396,-574 390,-574"/>
<text text-anchor="middle" x="359.5" y="-552.3" font-family="Helvetica,sans-Serif" font-size="14.00">err_error2</text>
</g>
<!-- volt&#45;&gt;err_error2 -->
<g id="edge4" class="edge">
<title>volt&#45;&gt;err_error2</title>
<path fill="none" stroke="black" stroke-width="1.2" d="M54.18,-473.53C65.09,-478.45 78,-483.9 90,-488 164.1,-513.33 252.59,-533.95 307.17,-545.61"/>
<polygon fill="black" stroke="black" stroke-width="1.2" points="306.44,-549.03 316.95,-547.68 307.89,-542.18 306.44,-549.03"/>
</g>
<!-- fail_comp1 -->
<g id="node14" class="node">
<title>fail_comp1</title>
<path fill="white" stroke="black" d="M853,-612C853,-612 785,-612 785,-612 779,-612 773,-606 773,-600 773,-600 773,-588 773,-588 773,-582 779,-576 785,-576 785,-576 853,-576 853,-576 859,-576 865,-582 865,-588 865,-588 865,-600 865,-600 865,-606 859,-612 853,-612"/>
<text text-anchor="middle" x="819" y="-590.3" font-family="Helvetica,sans-Serif" font-size="14.00">fail_comp1</text>
</g>
<!-- volt&#45;&gt;fail_comp1 -->
<g id="edge9" class="edge">
<title>volt&#45;&gt;fail_comp1</title>
<path fill="none" stroke="black" stroke-width="1.2" d="M31.95,-489.05C38.38,-525.67 54.19,-590.01 90,-632 139.96,-690.58 164.51,-716 241.5,-716 241.5,-716 241.5,-716 588.5,-716 670.57,-716 751.86,-654.42 792.06,-618.76"/>
<polygon fill="black" stroke="black" stroke-width="1.2" points="35.38,-488.37 30.31,-479.07 28.48,-489.5 35.38,-488.37"/>
<polygon fill="black" stroke="black" stroke-width="1.2" points="794.47,-621.3 799.54,-612 789.77,-616.11 794.47,-621.3"/>
</g>
<!-- rotate -->
<g id="node2" class="node">
<title>rotate</title>
<path fill="white" stroke="black" d="M604,-454C604,-454 571,-454 571,-454 565,-454 559,-448 559,-442 559,-442 559,-430 559,-430 559,-424 565,-418 571,-418 571,-418 604,-418 604,-418 610,-418 616,-424 616,-430 616,-430 616,-442 616,-442 616,-448 610,-454 604,-454"/>
<text text-anchor="middle" x="587.5" y="-432.3" font-family="Helvetica,sans-Serif" font-size="14.00">rotate</text>
</g>
<!-- rotate&#45;&gt;volt -->
<g id="edge1" class="edge">
<title>rotate&#45;&gt;volt</title>
<path fill="none" stroke="black" stroke-width="1.2" d="M558.8,-420.76C523.59,-402.34 460.37,-372.41 402,-361 275.63,-336.3 128.95,-404.57 63.12,-440.5"/>
<polygon fill="black" stroke="black" stroke-width="1.2" points="61.06,-437.64 54.01,-445.55 64.45,-443.76 61.06,-437.64"/>
</g>
<!-- pressure -->
<g id="node3" class="node">
<title>pressure</title>
<path fill="white" stroke="black" d="M269,-452C269,-452 216,-452 216,-452 210,-452 204,-446 204,-440 204,-440 204,-428 204,-428 204,-422 210,-416 216,-416 216,-416 269,-416 269,-416 275,-416 281,-422 281,-428 281,-428 281,-440 281,-440 281,-446 275,-452 269,-452"/>
<text text-anchor="middle" x="242.5" y="-430.3" font-family="Helvetica,sans-Serif" font-size="14.00">pressure</text>
</g>
<!-- rotate&#45;&gt;pressure -->
<g id="edge10" class="edge">
<title>rotate&#45;&gt;pressure</title>
<path fill="none" stroke="black" stroke-width="1.2" d="M548.33,-435.78C485.45,-435.41 360.21,-434.68 291.44,-434.28"/>
<polygon fill="black" stroke="black" stroke-width="1.2" points="548.58,-439.28 558.6,-435.84 548.62,-432.28 548.58,-439.28"/>
<polygon fill="black" stroke="black" stroke-width="1.2" points="291.21,-430.78 281.19,-434.22 291.17,-437.78 291.21,-430.78"/>
</g>
<!-- rotate&#45;&gt;err_error1 -->
<g id="edge11" class="edge">
<title>rotate&#45;&gt;err_error1</title>
<path fill="none" stroke="black" stroke-width="1.2" d="M600.54,-454.12C618.96,-481.83 654.22,-534.9 675.63,-567.11"/>
<polygon fill="black" stroke="black" stroke-width="1.2" points="672.82,-569.21 681.27,-575.6 678.65,-565.33 672.82,-569.21"/>
</g>
<!-- rotate&#45;&gt;err_error2 -->
<g id="edge12" class="edge">
<title>rotate&#45;&gt;err_error2</title>
<path fill="none" stroke="black" stroke-width="1.2" d="M550.12,-455.32C510.26,-476.48 446.36,-510.41 403.91,-532.95"/>
<polygon fill="black" stroke="black" stroke-width="1.2" points="551.79,-458.39 558.98,-450.61 548.51,-452.21 551.79,-458.39"/>
<polygon fill="black" stroke="black" stroke-width="1.2" points="402.02,-529.99 394.82,-537.77 405.3,-536.18 402.02,-529.99"/>
</g>
<!-- err_error5 -->
<g id="node9" class="node">
<title>err_error5</title>
<path fill="white" stroke="black" d="M849.5,-338C849.5,-338 788.5,-338 788.5,-338 782.5,-338 776.5,-332 776.5,-326 776.5,-326 776.5,-314 776.5,-314 776.5,-308 782.5,-302 788.5,-302 788.5,-302 849.5,-302 849.5,-302 855.5,-302 861.5,-308 861.5,-314 861.5,-314 861.5,-326 861.5,-326 861.5,-332 855.5,-338 849.5,-338"/>
<text text-anchor="middle" x="819" y="-316.3" font-family="Helvetica,sans-Serif" font-size="14.00">err_error5</text>
</g>
<!-- rotate&#45;&gt;err_error5 -->
<g id="edge14" class="edge">
<title>rotate&#45;&gt;err_error5</title>
<path fill="none" stroke="black" stroke-width="1.2" d="M613.93,-410.83C624.96,-400.89 638.44,-389.96 652,-382 688.09,-360.8 732.72,-344.62 766.6,-334.11"/>
<polygon fill="black" stroke="black" stroke-width="1.2" points="611.32,-408.48 606.36,-417.84 616.07,-413.62 611.32,-408.48"/>
<polygon fill="black" stroke="black" stroke-width="1.2" points="767.75,-337.42 776.31,-331.17 765.72,-330.72 767.75,-337.42"/>
</g>
<!-- mnt_comp2 -->
<g id="node11" class="node">
<title>mnt_comp2</title>
<path fill="white" stroke="black" d="M1121,-336C1121,-336 1047,-336 1047,-336 1041,-336 1035,-330 1035,-324 1035,-324 1035,-312 1035,-312 1035,-306 1041,-300 1047,-300 1047,-300 1121,-300 1121,-300 1127,-300 1133,-306 1133,-312 1133,-312 1133,-324 1133,-324 1133,-330 1127,-336 1121,-336"/>
<text text-anchor="middle" x="1084" y="-314.3" font-family="Helvetica,sans-Serif" font-size="14.00">mnt_comp2</text>
</g>
<!-- rotate&#45;&gt;mnt_comp2 -->
<g id="edge15" class="edge">
<title>rotate&#45;&gt;mnt_comp2</title>
<path fill="none" stroke="black" stroke-width="1.2" d="M616.15,-429.4C694.27,-410.76 917.93,-357.39 1024.79,-331.89"/>
<polygon fill="black" stroke="black" stroke-width="1.2" points="1025.84,-335.24 1034.76,-329.51 1024.22,-328.43 1025.84,-335.24"/>
</g>
<!-- mnt_comp3 -->
<g id="node12" class="node">
<title>mnt_comp3</title>
<path fill="white" stroke="black" d="M1255,-273C1255,-273 1181,-273 1181,-273 1175,-273 1169,-267 1169,-261 1169,-261 1169,-249 1169,-249 1169,-243 1175,-237 1181,-237 1181,-237 1255,-237 1255,-237 1261,-237 1267,-243 1267,-249 1267,-249 1267,-261 1267,-261 1267,-267 1261,-273 1255,-273"/>
<text text-anchor="middle" x="1218" y="-251.3" font-family="Helvetica,sans-Serif" font-size="14.00">mnt_comp3</text>
</g>
<!-- rotate&#45;&gt;mnt_comp3 -->
<g id="edge16" class="edge">
<title>rotate&#45;&gt;mnt_comp3</title>
<path fill="none" stroke="black" stroke-width="1.2" d="M616.19,-443.2C659.1,-453.7 744.4,-472 818,-472 818,-472 818,-472 951,-472 1070.08,-472 1165.32,-339.8 1201.39,-281.77"/>
<polygon fill="black" stroke="black" stroke-width="1.2" points="1204.45,-283.49 1206.67,-273.13 1198.47,-279.84 1204.45,-283.49"/>
</g>
<!-- rotate&#45;&gt;fail_comp1 -->
<g id="edge17" class="edge">
<title>rotate&#45;&gt;fail_comp1</title>
<path fill="none" stroke="black" stroke-width="1.2" d="M609.92,-454.21C621.95,-464.08 637.43,-476.23 652,-486 688.04,-510.16 700.61,-510.38 737,-534 753.93,-544.99 772.05,-558.26 786.85,-569.52"/>
<polygon fill="black" stroke="black" stroke-width="1.2" points="785.08,-572.58 795.15,-575.89 789.35,-567.03 785.08,-572.58"/>
</g>
<!-- fail_comp2 -->
<g id="node15" class="node">
<title>fail_comp2</title>
<path fill="white" stroke="black" d="M984,-444C984,-444 916,-444 916,-444 910,-444 904,-438 904,-432 904,-432 904,-420 904,-420 904,-414 910,-408 916,-408 916,-408 984,-408 984,-408 990,-408 996,-414 996,-420 996,-420 996,-432 996,-432 996,-438 990,-444 984,-444"/>
<text text-anchor="middle" x="950" y="-422.3" font-family="Helvetica,sans-Serif" font-size="14.00">fail_comp2</text>
</g>
<!-- rotate&#45;&gt;fail_comp2 -->
<g id="edge18" class="edge">
<title>rotate&#45;&gt;fail_comp2</title>
<path fill="none" stroke="black" stroke-width="1.2" d="M626.28,-434.95C690.15,-433.18 819.72,-429.59 893.78,-427.53"/>
<polygon fill="black" stroke="black" stroke-width="1.2" points="626.09,-431.46 616.19,-435.23 626.28,-438.45 626.09,-431.46"/>
<polygon fill="black" stroke="black" stroke-width="1.2" points="893.95,-431.03 903.85,-427.25 893.76,-424.03 893.95,-431.03"/>
</g>
<!-- pressure&#45;&gt;err_error2 -->
<g id="edge20" class="edge">
<title>pressure&#45;&gt;err_error2</title>
<path fill="none" stroke="black" stroke-width="1.2" d="M260.47,-452C280,-472.72 312.24,-506.92 334.37,-530.41"/>
<polygon fill="black" stroke="black" stroke-width="1.2" points="332.06,-533.05 341.46,-537.92 337.15,-528.25 332.06,-533.05"/>
</g>
<!-- err_error4 -->
<g id="node8" class="node">
<title>err_error4</title>
<path fill="white" stroke="black" d="M390,-406C390,-406 329,-406 329,-406 323,-406 317,-400 317,-394 317,-394 317,-382 317,-382 317,-376 323,-370 329,-370 329,-370 390,-370 390,-370 396,-370 402,-376 402,-382 402,-382 402,-394 402,-394 402,-400 396,-406 390,-406"/>
<text text-anchor="middle" x="359.5" y="-384.3" font-family="Helvetica,sans-Serif" font-size="14.00">err_error4</text>
</g>
<!-- pressure&#45;&gt;err_error4 -->
<g id="edge22" class="edge">
<title>pressure&#45;&gt;err_error4</title>
<path fill="none" stroke="black" stroke-width="1.2" d="M281.16,-418.94C289.53,-415.59 298.54,-411.99 307.34,-408.46"/>
<polygon fill="black" stroke="black" stroke-width="1.2" points="308.8,-411.65 316.78,-404.69 306.2,-405.15 308.8,-411.65"/>
</g>
<!-- pressure&#45;&gt;err_error5 -->
<g id="edge23" class="edge">
<title>pressure&#45;&gt;err_error5</title>
<path fill="none" stroke="black" stroke-width="1.2" d="M262.09,-407.76C275.36,-391.27 294.75,-371.26 317,-361 468.07,-291.38 671.91,-302.7 766.2,-313.03"/>
<polygon fill="black" stroke="black" stroke-width="1.2" points="259.08,-405.93 255.73,-415.98 264.62,-410.21 259.08,-405.93"/>
<polygon fill="black" stroke="black" stroke-width="1.2" points="766,-316.53 776.33,-314.18 766.79,-309.58 766,-316.53"/>
</g>
<!-- mnt_comp1 -->
<g id="node10" class="node">
<title>mnt_comp1</title>
<path fill="white" stroke="black" d="M987,-767C987,-767 913,-767 913,-767 907,-767 901,-761 901,-755 901,-755 901,-743 901,-743 901,-737 907,-731 913,-731 913,-731 987,-731 987,-731 993,-731 999,-737 999,-743 999,-743 999,-755 999,-755 999,-761 993,-767 987,-767"/>
<text text-anchor="middle" x="950" y="-745.3" font-family="Helvetica,sans-Serif" font-size="14.00">mnt_comp1</text>
</g>
<!-- pressure&#45;&gt;mnt_comp1 -->
<g id="edge24" class="edge">
<title>pressure&#45;&gt;mnt_comp1</title>
<path fill="none" stroke="black" stroke-width="1.2" d="M257.39,-461.18C264.77,-476.03 273.78,-494.85 281,-512 340.19,-652.59 326.96,-792 479.5,-792 479.5,-792 479.5,-792 695.5,-792 763.3,-792 839.87,-776.87 890.95,-764.55"/>
<polygon fill="black" stroke="black" stroke-width="1.2" points="260.42,-459.42 252.81,-452.05 254.16,-462.56 260.42,-459.42"/>
<polygon fill="black" stroke="black" stroke-width="1.2" points="891.94,-767.92 900.81,-762.14 890.27,-761.12 891.94,-767.92"/>
</g>
<!-- pressure&#45;&gt;fail_comp1 -->
<g id="edge27" class="edge">
<title>pressure&#45;&gt;fail_comp1</title>
<path fill="none" stroke="black" stroke-width="1.2" d="M281.17,-443.35C364.02,-464.09 568.13,-516.15 737,-567 745.46,-569.55 754.36,-572.37 763.05,-575.2"/>
<polygon fill="black" stroke="black" stroke-width="1.2" points="762.15,-578.59 772.74,-578.39 764.34,-571.94 762.15,-578.59"/>
</g>
<!-- vibration&#45;&gt;pressure -->
<g id="edge19" class="edge">
<title>vibration&#45;&gt;pressure</title>
<path fill="none" stroke="black" stroke-width="1.2" d="M168.06,-451.78C176.4,-449.76 185.34,-447.6 194,-445.5"/>
<polygon fill="black" stroke="black" stroke-width="1.2" points="195.09,-448.84 203.99,-443.08 193.45,-442.04 195.09,-448.84"/>
</g>
<!-- vibration&#45;&gt;err_error1 -->
<g id="edge29" class="edge">
<title>vibration&#45;&gt;err_error1</title>
<path fill="none" stroke="black" stroke-width="1.2" d="M168.15,-469.81C250.17,-488.79 449.35,-535.03 616,-575 624.33,-577 633.15,-579.14 641.75,-581.24"/>
<polygon fill="black" stroke="black" stroke-width="1.2" points="641.14,-584.69 651.69,-583.67 642.81,-577.89 641.14,-584.69"/>
</g>
<!-- vibration&#45;&gt;err_error5 -->
<g id="edge30" class="edge">
<title>vibration&#45;&gt;err_error5</title>
<path fill="none" stroke="black" stroke-width="1.2" d="M156.58,-435.81C190.81,-404.91 253.49,-353.4 317,-327 489.7,-255.21 551.22,-279.5 737,-301 746.58,-302.11 756.68,-303.93 766.37,-306.02"/>
<polygon fill="black" stroke="black" stroke-width="1.2" points="153.93,-433.49 148.91,-442.82 158.65,-438.66 153.93,-433.49"/>
<polygon fill="black" stroke="black" stroke-width="1.2" points="765.76,-309.47 776.28,-308.28 767.31,-302.65 765.76,-309.47"/>
</g>
<!-- vibration&#45;&gt;mnt_comp1 -->
<g id="edge31" class="edge">
<title>vibration&#45;&gt;mnt_comp1</title>
<path fill="none" stroke="black" stroke-width="1.2" d="M163.8,-479.05C205.88,-501.8 273.21,-539.25 281,-550 324.79,-610.42 276.33,-651.43 317,-714 365.36,-788.4 390.76,-830 479.5,-830 479.5,-830 479.5,-830 695.5,-830 772.7,-830 792.39,-818.24 865,-792 879.9,-786.62 895.52,-779.16 909.2,-771.98"/>
<polygon fill="black" stroke="black" stroke-width="1.2" points="911.18,-774.89 918.33,-767.07 907.87,-768.72 911.18,-774.89"/>
</g>
<!-- fail_comp4 -->
<g id="node16" class="node">
<title>fail_comp4</title>
<path fill="white" stroke="black" d="M1383,-639C1383,-639 1315,-639 1315,-639 1309,-639 1303,-633 1303,-627 1303,-627 1303,-615 1303,-615 1303,-609 1309,-603 1315,-603 1315,-603 1383,-603 1383,-603 1389,-603 1395,-609 1395,-615 1395,-615 1395,-627 1395,-627 1395,-633 1389,-639 1383,-639"/>
<text text-anchor="middle" x="1349" y="-617.3" font-family="Helvetica,sans-Serif" font-size="14.00">fail_comp4</text>
</g>
<!-- vibration&#45;&gt;fail_comp4 -->
<g id="edge33" class="edge">
<title>vibration&#45;&gt;fail_comp4</title>
<path fill="none" stroke="black" stroke-width="1.2" d="M138.53,-488.71C168.63,-580.38 279.06,-868 479.5,-868 479.5,-868 479.5,-868 1085,-868 1212.2,-868 1303.09,-712.57 1335.24,-648.31"/>
<polygon fill="black" stroke="black" stroke-width="1.2" points="141.8,-487.46 135.4,-479.01 135.14,-489.6 141.8,-487.46"/>
<polygon fill="black" stroke="black" stroke-width="1.2" points="1338.46,-649.68 1339.72,-639.16 1332.17,-646.6 1338.46,-649.68"/>
</g>
<!-- err_error1&#45;&gt;err_error2 -->
<g id="edge34" class="edge">
<title>err_error1&#45;&gt;err_error2</title>
<path fill="none" stroke="black" stroke-width="1.2" d="M652,-589.26C591.26,-582.33 478.23,-569.43 412.18,-561.9"/>
<polygon fill="black" stroke="black" stroke-width="1.2" points="412.33,-558.39 402,-560.74 411.54,-565.35 412.33,-558.39"/>
</g>
<!-- err_error3 -->
<g id="node7" class="node">
<title>err_error3</title>
<path fill="white" stroke="black" d="M511,-628C511,-628 450,-628 450,-628 444,-628 438,-622 438,-616 438,-616 438,-604 438,-604 438,-598 444,-592 450,-592 450,-592 511,-592 511,-592 517,-592 523,-598 523,-604 523,-604 523,-616 523,-616 523,-622 517,-628 511,-628"/>
<text text-anchor="middle" x="480.5" y="-606.3" font-family="Helvetica,sans-Serif" font-size="14.00">err_error3</text>
</g>
<!-- err_error1&#45;&gt;err_error3 -->
<g id="edge35" class="edge">
<title>err_error1&#45;&gt;err_error3</title>
<path fill="none" stroke="black" stroke-width="1.2" d="M651.96,-597.13C618.08,-599.69 570.02,-603.32 533.56,-606.07"/>
<polygon fill="black" stroke="black" stroke-width="1.2" points="532.84,-602.62 523.13,-606.86 533.37,-609.6 532.84,-602.62"/>
</g>
<!-- err_error1&#45;&gt;err_error5 -->
<g id="edge36" class="edge">
<title>err_error1&#45;&gt;err_error5</title>
<path fill="none" stroke="black" stroke-width="1.2" d="M703.73,-575.6C724.78,-528.51 780.69,-403.44 805.66,-347.6"/>
<polygon fill="black" stroke="black" stroke-width="1.2" points="808.92,-348.88 809.81,-338.32 802.53,-346.02 808.92,-348.88"/>
</g>
<!-- err_error1&#45;&gt;fail_comp1 -->
<g id="edge37" class="edge">
<title>err_error1&#45;&gt;fail_comp1</title>
<path fill="none" stroke="black" stroke-width="1.2" d="M737.31,-594C745.4,-594 753.98,-594 762.42,-594"/>
<polygon fill="black" stroke="black" stroke-width="1.2" points="762.6,-597.5 772.6,-594 762.6,-590.5 762.6,-597.5"/>
</g>
<!-- err_error2&#45;&gt;err_error3 -->
<g id="edge38" class="edge">
<title>err_error2&#45;&gt;err_error3</title>
<path fill="none" stroke="black" stroke-width="1.2" d="M400.46,-574.13C409.97,-578.45 420.24,-583.11 430.13,-587.59"/>
<polygon fill="black" stroke="black" stroke-width="1.2" points="428.89,-590.88 439.45,-591.82 431.79,-584.5 428.89,-590.88"/>
</g>
<!-- err_error3&#45;&gt;volt -->
<g id="edge5" class="edge">
<title>err_error3&#45;&gt;volt</title>
<path fill="none" stroke="black" stroke-width="1.2" d="M437.96,-614.98C404.84,-617.83 357.48,-619.36 317,-611 209.38,-588.76 183.53,-570.69 90,-513 77.52,-505.3 64.91,-495.23 54.35,-486.01"/>
<polygon fill="black" stroke="black" stroke-width="1.2" points="56.49,-483.23 46.71,-479.18 51.83,-488.45 56.49,-483.23"/>
</g>
<!-- err_error3&#45;&gt;rotate -->
<g id="edge13" class="edge">
<title>err_error3&#45;&gt;rotate</title>
<path fill="none" stroke="black" stroke-width="1.2" d="M492.54,-591.71C511.1,-560.95 548.64,-498.74 570.23,-462.96"/>
<polygon fill="black" stroke="black" stroke-width="1.2" points="573.44,-464.42 575.61,-454.05 567.45,-460.8 573.44,-464.42"/>
</g>
<!-- err_error3&#45;&gt;pressure -->
<g id="edge21" class="edge">
<title>err_error3&#45;&gt;pressure</title>
<path fill="none" stroke="black" stroke-width="1.2" d="M437.76,-613.09C402.31,-613.54 351.79,-608.83 317,-583 314.32,-581.01 277.1,-504.02 256.68,-461.51"/>
<polygon fill="black" stroke="black" stroke-width="1.2" points="259.72,-459.76 252.24,-452.26 253.41,-462.79 259.72,-459.76"/>
</g>
<!-- err_error3&#45;&gt;mnt_comp1 -->
<g id="edge39" class="edge">
<title>err_error3&#45;&gt;mnt_comp1</title>
<path fill="none" stroke="black" stroke-width="1.2" d="M508.91,-628.04C523.33,-636.89 541.6,-647.1 559,-654 672.45,-699 813.2,-726.89 890.8,-740.02"/>
<polygon fill="black" stroke="black" stroke-width="1.2" points="890.43,-743.51 900.87,-741.7 891.58,-736.6 890.43,-743.51"/>
</g>
<!-- err_error3&#45;&gt;fail_comp4 -->
<g id="edge40" class="edge">
<title>err_error3&#45;&gt;fail_comp4</title>
<path fill="none" stroke="black" stroke-width="1.2" d="M523.09,-619.41C565.66,-628.21 633.84,-640 693.5,-640 693.5,-640 693.5,-640 1085,-640 1156.89,-640 1239.54,-632.85 1292.7,-627.32"/>
<polygon fill="black" stroke="black" stroke-width="1.2" points="1293.35,-630.77 1302.93,-626.24 1292.62,-623.81 1293.35,-630.77"/>
</g>
<!-- err_error5&#45;&gt;volt -->
<g id="edge6" class="edge">
<title>err_error5&#45;&gt;volt</title>
<path fill="none" stroke="black" stroke-width="1.2" d="M781.73,-301.9C768.04,-295.85 752.11,-289.7 737,-286 555.66,-241.63 496.83,-242.84 317,-293 211.65,-322.38 178.27,-323.43 90,-388 72.61,-400.72 56.94,-419.26 45.71,-434.48"/>
<polygon fill="black" stroke="black" stroke-width="1.2" points="42.59,-432.81 39.62,-442.98 48.29,-436.89 42.59,-432.81"/>
</g>
<!-- mnt_comp4 -->
<g id="node13" class="node">
<title>mnt_comp4</title>
<path fill="white" stroke="black" d="M1517,-551C1517,-551 1443,-551 1443,-551 1437,-551 1431,-545 1431,-539 1431,-539 1431,-527 1431,-527 1431,-521 1437,-515 1443,-515 1443,-515 1517,-515 1517,-515 1523,-515 1529,-521 1529,-527 1529,-527 1529,-539 1529,-539 1529,-545 1523,-551 1517,-551"/>
<text text-anchor="middle" x="1480" y="-529.3" font-family="Helvetica,sans-Serif" font-size="14.00">mnt_comp4</text>
</g>
<!-- mnt_comp1&#45;&gt;mnt_comp4 -->
<g id="edge41" class="edge">
<title>mnt_comp1&#45;&gt;mnt_comp4</title>
<path fill="none" stroke="black" stroke-width="1.2" d="M999.1,-749.52C1086.02,-748.15 1271.66,-734.41 1395,-648 1427.28,-625.38 1451.93,-586.34 1465.94,-560.1"/>
<polygon fill="black" stroke="black" stroke-width="1.2" points="1469.13,-561.55 1470.61,-551.06 1462.91,-558.34 1469.13,-561.55"/>
</g>
<!-- mnt_comp1&#45;&gt;fail_comp4 -->
<g id="edge43" class="edge">
<title>mnt_comp1&#45;&gt;fail_comp4</title>
<path fill="none" stroke="black" stroke-width="1.2" d="M999.21,-735.11C1074.64,-713.29 1217.1,-671.62 1267,-654 1276.56,-650.63 1286.64,-646.77 1296.32,-642.91"/>
<polygon fill="black" stroke="black" stroke-width="1.2" points="1297.87,-646.05 1305.83,-639.06 1295.25,-639.56 1297.87,-646.05"/>
</g>
<!-- mnt_comp2&#45;&gt;pressure -->
<g id="edge25" class="edge">
<title>mnt_comp2&#45;&gt;pressure</title>
<path fill="none" stroke="black" stroke-width="1.2" d="M1058.73,-299.76C1014.01,-268.02 914.54,-206 820,-206 586.5,-206 586.5,-206 586.5,-206 455.2,-206 417.8,-242.87 317,-327 290.54,-349.08 269.46,-382.97 256.78,-406.67"/>
<polygon fill="black" stroke="black" stroke-width="1.2" points="253.53,-405.34 252.03,-415.83 259.74,-408.57 253.53,-405.34"/>
</g>
<!-- mnt_comp2&#45;&gt;mnt_comp3 -->
<g id="edge44" class="edge">
<title>mnt_comp2&#45;&gt;mnt_comp3</title>
<path fill="none" stroke="black" stroke-width="1.2" d="M1122.83,-299.95C1137.46,-292.96 1154.38,-284.89 1169.79,-277.53"/>
<polygon fill="black" stroke="black" stroke-width="1.2" points="1171.65,-280.52 1179.17,-273.06 1168.64,-274.2 1171.65,-280.52"/>
</g>
<!-- mnt_comp3&#45;&gt;volt -->
<g id="edge7" class="edge">
<title>mnt_comp3&#45;&gt;volt</title>
<path fill="none" stroke="black" stroke-width="1.2" d="M1213.59,-236.77C1205.93,-201.07 1183.87,-121.85 1133,-81 1068.19,-28.96 1034.12,-38 951,-38 241.5,-38 241.5,-38 241.5,-38 64.25,-38 34.13,-337.66 29.03,-432.55"/>
<polygon fill="black" stroke="black" stroke-width="1.2" points="25.52,-432.67 28.54,-442.82 32.51,-433 25.52,-432.67"/>
</g>
<!-- mnt_comp3&#45;&gt;pressure -->
<g id="edge26" class="edge">
<title>mnt_comp3&#45;&gt;pressure</title>
<path fill="none" stroke="black" stroke-width="1.2" d="M1195.5,-236.82C1152.23,-202.16 1050.24,-130 951,-130 586.5,-130 586.5,-130 586.5,-130 463.18,-130 406.75,-111.43 317,-196 257.33,-252.23 245.73,-355.71 243.73,-405.61"/>
<polygon fill="black" stroke="black" stroke-width="1.2" points="240.23,-405.59 243.42,-415.69 247.22,-405.8 240.23,-405.59"/>
</g>
<!-- mnt_comp3&#45;&gt;vibration -->
<g id="edge32" class="edge">
<title>mnt_comp3&#45;&gt;vibration</title>
<path fill="none" stroke="black" stroke-width="1.2" d="M1208.14,-236.97C1195.01,-212.03 1168.12,-167.11 1133,-141 1064.07,-89.75 1036.89,-76 951,-76 479.5,-76 479.5,-76 479.5,-76 402.51,-76 375.82,-86.33 317,-136 217.59,-219.94 159.42,-370.92 138.69,-433.09"/>
<polygon fill="black" stroke="black" stroke-width="1.2" points="135.35,-432.03 135.57,-442.62 142.01,-434.2 135.35,-432.03"/>
</g>
<!-- mnt_comp3&#45;&gt;fail_comp4 -->
<g id="edge46" class="edge">
<title>mnt_comp3&#45;&gt;fail_comp4</title>
<path fill="none" stroke="black" stroke-width="1.2" d="M1225.4,-273.15C1246.33,-332.54 1312.89,-521.37 1338.15,-593.05"/>
<polygon fill="black" stroke="black" stroke-width="1.2" points="1334.94,-594.47 1341.56,-602.74 1341.54,-592.15 1334.94,-594.47"/>
</g>
<!-- mnt_comp4&#45;&gt;volt -->
<g id="edge8" class="edge">
<title>mnt_comp4&#45;&gt;volt</title>
<path fill="none" stroke="black" stroke-width="1.2" d="M1478.77,-514.96C1476.53,-421.86 1453.49,0 1219,0 241.5,0 241.5,0 241.5,0 169.71,0 135.38,-0.38 90,-56 42.66,-114.02 31.25,-350.55 28.69,-432.72"/>
<polygon fill="black" stroke="black" stroke-width="1.2" points="25.19,-432.72 28.4,-442.82 32.19,-432.93 25.19,-432.72"/>
</g>
<!-- fail_comp1&#45;&gt;mnt_comp1 -->
<g id="edge42" class="edge">
<title>fail_comp1&#45;&gt;mnt_comp1</title>
<path fill="none" stroke="black" stroke-width="1.2" d="M835.05,-612.08C857.75,-639.35 900.86,-691.15 927.05,-722.63"/>
<polygon fill="black" stroke="black" stroke-width="1.2" points="924.56,-725.1 933.65,-730.55 929.94,-720.63 924.56,-725.1"/>
</g>
<!-- fail_comp1&#45;&gt;fail_comp2 -->
<g id="edge49" class="edge">
<title>fail_comp1&#45;&gt;fail_comp2</title>
<path fill="none" stroke="black" stroke-width="1.2" d="M834.05,-575.7C856.99,-545.83 902.55,-486.49 928.9,-452.17"/>
<polygon fill="black" stroke="black" stroke-width="1.2" points="931.85,-454.09 935.16,-444.02 926.3,-449.82 931.85,-454.09"/>
</g>
<!-- fail_comp1&#45;&gt;fail_comp4 -->
<g id="edge50" class="edge">
<title>fail_comp1&#45;&gt;fail_comp4</title>
<path fill="none" stroke="black" stroke-width="1.2" d="M865.02,-596.3C961.44,-601.23 1187.64,-612.8 1292.65,-618.17"/>
<polygon fill="black" stroke="black" stroke-width="1.2" points="1292.56,-621.67 1302.72,-618.68 1292.91,-614.68 1292.56,-621.67"/>
</g>
<!-- fail_comp2&#45;&gt;pressure -->
<g id="edge28" class="edge">
<title>fail_comp2&#45;&gt;pressure</title>
<path fill="none" stroke="black" stroke-width="1.2" d="M941.47,-407.88C929.12,-380.02 902.16,-326.42 865,-293 720,-162.6 627.87,-147.51 438,-192 379.56,-205.69 357.79,-207.96 317,-252 275.83,-296.45 256.4,-366.94 248.36,-405.86"/>
<polygon fill="black" stroke="black" stroke-width="1.2" points="244.87,-405.47 246.39,-415.95 251.74,-406.81 244.87,-405.47"/>
</g>
<!-- fail_comp2&#45;&gt;mnt_comp2 -->
<g id="edge45" class="edge">
<title>fail_comp2&#45;&gt;mnt_comp2</title>
<path fill="none" stroke="black" stroke-width="1.2" d="M979.66,-407.89C986.15,-403.52 992.92,-398.74 999,-394 1019.4,-378.11 1041,-358.49 1057.19,-343.17"/>
<polygon fill="black" stroke="black" stroke-width="1.2" points="1059.86,-345.47 1064.68,-336.03 1055.03,-340.4 1059.86,-345.47"/>
</g>
<!-- fail_comp2&#45;&gt;mnt_comp4 -->
<g id="edge47" class="edge">
<title>fail_comp2&#45;&gt;mnt_comp4</title>
<path fill="none" stroke="black" stroke-width="1.2" d="M996.02,-435.12C1091.57,-454.49 1314.58,-499.68 1420.78,-521.2"/>
<polygon fill="black" stroke="black" stroke-width="1.2" points="1420.19,-524.65 1430.68,-523.21 1421.58,-517.79 1420.19,-524.65"/>
</g>
<!-- fail_comp4&#45;&gt;mnt_comp4 -->
<g id="edge48" class="edge">
<title>fail_comp4&#45;&gt;mnt_comp4</title>
<path fill="none" stroke="black" stroke-width="1.2" d="M1376.42,-602.98C1395.85,-589.72 1422.48,-571.56 1443.73,-557.06"/>
<polygon fill="black" stroke="black" stroke-width="1.2" points="1445.89,-559.83 1452.18,-551.3 1441.94,-554.04 1445.89,-559.83"/>
</g>
</g>
</svg>
