<?xml version="1.0" encoding="UTF-8" standalone="no"?>
<!DOCTYPE svg PUBLIC "-//W3C//DTD SVG 1.1//EN"
 "http://www.w3.org/Graphics/SVG/1.1/DTD/svg11.dtd">
<!-- Generated by graphviz version 2.50.0 (0)
 -->
<!-- Title: G Pages: 1 -->
<svg width="1082pt" height="679pt"
 viewBox="0.00 0.00 1082.00 679.23" xmlns="http://www.w3.org/2000/svg" xmlns:xlink="http://www.w3.org/1999/xlink">
<g id="graph0" class="graph" transform="scale(1 1) rotate(0) translate(4 675.23)">
<title>G</title>
<polygon fill="white" stroke="transparent" points="-4,4 -4,-675.23 1078,-675.23 1078,4 -4,4"/>
<text text-anchor="middle" x="537" y="-654.43" font-family="Times,serif" font-size="16.00">model=model4/nbcb_w_mixed.json [machine 34]</text>
<!-- volt -->
<g id="node1" class="node">
<title>volt</title>
<path fill="white" stroke="black" d="M42,-338C42,-338 12,-338 12,-338 6,-338 0,-332 0,-326 0,-326 0,-314 0,-314 0,-308 6,-302 12,-302 12,-302 42,-302 42,-302 48,-302 54,-308 54,-314 54,-314 54,-326 54,-326 54,-332 48,-338 42,-338"/>
<text text-anchor="middle" x="27" y="-316.3" font-family="Helvetica,sans-Serif" font-size="14.00">volt</text>
</g>
<!-- pressure -->
<g id="node3" class="node">
<title>pressure</title>
<path fill="white" stroke="black" d="M159,-338C159,-338 106,-338 106,-338 100,-338 94,-332 94,-326 94,-326 94,-314 94,-314 94,-308 100,-302 106,-302 106,-302 159,-302 159,-302 165,-302 171,-308 171,-314 171,-314 171,-326 171,-326 171,-332 165,-338 159,-338"/>
<text text-anchor="middle" x="132.5" y="-316.3" font-family="Helvetica,sans-Serif" font-size="14.00">pressure</text>
</g>
<!-- volt&#45;&gt;pressure -->
<g id="edge2" class="edge">
<title>volt&#45;&gt;pressure</title>
<path fill="none" stroke="black" stroke-width="1.2" d="M54.12,-320C63.1,-320 73.46,-320 83.62,-320"/>
<polygon fill="black" stroke="black" stroke-width="1.2" points="83.66,-323.5 93.66,-320 83.66,-316.5 83.66,-323.5"/>
</g>
<!-- err_error4 -->
<g id="node8" class="node">
<title>err_error4</title>
<path fill="white" stroke="black" d="M934.5,-361C934.5,-361 873.5,-361 873.5,-361 867.5,-361 861.5,-355 861.5,-349 861.5,-349 861.5,-337 861.5,-337 861.5,-331 867.5,-325 873.5,-325 873.5,-325 934.5,-325 934.5,-325 940.5,-325 946.5,-331 946.5,-337 946.5,-337 946.5,-349 946.5,-349 946.5,-355 940.5,-361 934.5,-361"/>
<text text-anchor="middle" x="904" y="-339.3" font-family="Helvetica,sans-Serif" font-size="14.00">err_error4</text>
</g>
<!-- volt&#45;&gt;err_error4 -->
<g id="edge4" class="edge">
<title>volt&#45;&gt;err_error4</title>
<path fill="none" stroke="black" stroke-width="1.2" d="M28.58,-338.08C30.76,-377.11 41.1,-470.28 90,-526 144.32,-587.9 176.64,-602 259,-602 259,-602 259,-602 657,-602 763.97,-602 753.15,-508.3 819,-424 836.76,-401.27 833.85,-389.61 855,-370 855.95,-369.12 856.93,-368.26 857.93,-367.42"/>
<polygon fill="black" stroke="black" stroke-width="1.2" points="860.18,-370.12 866.1,-361.33 855.99,-364.51 860.18,-370.12"/>
</g>
<!-- err_error5 -->
<g id="node9" class="node">
<title>err_error5</title>
<path fill="white" stroke="black" d="M163,-262C163,-262 102,-262 102,-262 96,-262 90,-256 90,-250 90,-250 90,-238 90,-238 90,-232 96,-226 102,-226 102,-226 163,-226 163,-226 169,-226 175,-232 175,-238 175,-238 175,-250 175,-250 175,-256 169,-262 163,-262"/>
<text text-anchor="middle" x="132.5" y="-240.3" font-family="Helvetica,sans-Serif" font-size="14.00">err_error5</text>
</g>
<!-- volt&#45;&gt;err_error5 -->
<g id="edge5" class="edge">
<title>volt&#45;&gt;err_error5</title>
<path fill="none" stroke="black" stroke-width="1.2" d="M60.96,-295.8C72.91,-287.02 86.42,-277.1 98.39,-268.31"/>
<polygon fill="black" stroke="black" stroke-width="1.2" points="58.52,-293.25 52.53,-301.99 62.66,-298.89 58.52,-293.25"/>
<polygon fill="black" stroke="black" stroke-width="1.2" points="100.8,-270.88 106.79,-262.15 96.66,-265.24 100.8,-270.88"/>
</g>
<!-- mnt_comp4 -->
<g id="node13" class="node">
<title>mnt_comp4</title>
<path fill="white" stroke="black" d="M297,-498C297,-498 223,-498 223,-498 217,-498 211,-492 211,-486 211,-486 211,-474 211,-474 211,-468 217,-462 223,-462 223,-462 297,-462 297,-462 303,-462 309,-468 309,-474 309,-474 309,-486 309,-486 309,-492 303,-498 297,-498"/>
<text text-anchor="middle" x="260" y="-476.3" font-family="Helvetica,sans-Serif" font-size="14.00">mnt_comp4</text>
</g>
<!-- volt&#45;&gt;mnt_comp4 -->
<g id="edge7" class="edge">
<title>volt&#45;&gt;mnt_comp4</title>
<path fill="none" stroke="black" stroke-width="1.2" d="M31.39,-338.13C37.68,-366.34 53.93,-420.38 90,-448 121.29,-471.96 165.23,-479.72 200.47,-481.61"/>
<polygon fill="black" stroke="black" stroke-width="1.2" points="200.5,-485.12 210.63,-482.01 200.77,-478.12 200.5,-485.12"/>
</g>
<!-- fail_comp1 -->
<g id="node14" class="node">
<title>fail_comp1</title>
<path fill="white" stroke="black" d="M425,-384C425,-384 357,-384 357,-384 351,-384 345,-378 345,-372 345,-372 345,-360 345,-360 345,-354 351,-348 357,-348 357,-348 425,-348 425,-348 431,-348 437,-354 437,-360 437,-360 437,-372 437,-372 437,-378 431,-384 425,-384"/>
<text text-anchor="middle" x="391" y="-362.3" font-family="Helvetica,sans-Serif" font-size="14.00">fail_comp1</text>
</g>
<!-- volt&#45;&gt;fail_comp1 -->
<g id="edge8" class="edge">
<title>volt&#45;&gt;fail_comp1</title>
<path fill="none" stroke="black" stroke-width="1.2" d="M54.17,-333.73C64.97,-338.77 77.81,-343.98 90,-347 173.45,-367.64 273.71,-369.59 334.61,-368.35"/>
<polygon fill="black" stroke="black" stroke-width="1.2" points="334.85,-371.84 344.77,-368.1 334.69,-364.85 334.85,-371.84"/>
</g>
<!-- rotate -->
<g id="node2" class="node">
<title>rotate</title>
<path fill="white" stroke="black" d="M276.5,-140C276.5,-140 243.5,-140 243.5,-140 237.5,-140 231.5,-134 231.5,-128 231.5,-128 231.5,-116 231.5,-116 231.5,-110 237.5,-104 243.5,-104 243.5,-104 276.5,-104 276.5,-104 282.5,-104 288.5,-110 288.5,-116 288.5,-116 288.5,-128 288.5,-128 288.5,-134 282.5,-140 276.5,-140"/>
<text text-anchor="middle" x="260" y="-118.3" font-family="Helvetica,sans-Serif" font-size="14.00">rotate</text>
</g>
<!-- rotate&#45;&gt;volt -->
<g id="edge1" class="edge">
<title>rotate&#45;&gt;volt</title>
<path fill="none" stroke="black" stroke-width="1.2" d="M231.33,-132.32C195.36,-146.81 132.14,-176.09 90,-217 67.69,-238.65 50.35,-269.98 39.75,-292.39"/>
<polygon fill="black" stroke="black" stroke-width="1.2" points="36.47,-291.15 35.5,-301.7 42.84,-294.06 36.47,-291.15"/>
</g>
<!-- rotate&#45;&gt;fail_comp1 -->
<g id="edge15" class="edge">
<title>rotate&#45;&gt;fail_comp1</title>
<path fill="none" stroke="black" stroke-width="1.2" d="M270.7,-140.34C293.21,-182.92 349.12,-288.68 375.63,-338.81"/>
<polygon fill="black" stroke="black" stroke-width="1.2" points="372.6,-340.58 380.37,-347.78 378.79,-337.3 372.6,-340.58"/>
</g>
<!-- fail_comp2 -->
<g id="node15" class="node">
<title>fail_comp2</title>
<path fill="white" stroke="black" d="M425,-140C425,-140 357,-140 357,-140 351,-140 345,-134 345,-128 345,-128 345,-116 345,-116 345,-110 351,-104 357,-104 357,-104 425,-104 425,-104 431,-104 437,-110 437,-116 437,-116 437,-128 437,-128 437,-134 431,-140 425,-140"/>
<text text-anchor="middle" x="391" y="-118.3" font-family="Helvetica,sans-Serif" font-size="14.00">fail_comp2</text>
</g>
<!-- rotate&#45;&gt;fail_comp2 -->
<g id="edge16" class="edge">
<title>rotate&#45;&gt;fail_comp2</title>
<path fill="none" stroke="black" stroke-width="1.2" d="M298.75,-122C310.03,-122 322.64,-122 334.8,-122"/>
<polygon fill="black" stroke="black" stroke-width="1.2" points="298.67,-118.5 288.67,-122 298.67,-125.5 298.67,-118.5"/>
<polygon fill="black" stroke="black" stroke-width="1.2" points="334.87,-125.5 344.87,-122 334.87,-118.5 334.87,-125.5"/>
</g>
<!-- pressure&#45;&gt;rotate -->
<g id="edge10" class="edge">
<title>pressure&#45;&gt;rotate</title>
<path fill="none" stroke="black" stroke-width="1.2" d="M152.01,-301.79C160,-293.09 168.9,-282.15 175,-271 201.11,-223.27 178.48,-197.62 211,-154 214.37,-149.48 218.57,-145.41 223.08,-141.79"/>
<polygon fill="black" stroke="black" stroke-width="1.2" points="225.35,-144.48 231.42,-135.8 221.26,-138.8 225.35,-144.48"/>
</g>
<!-- vibration -->
<g id="node4" class="node">
<title>vibration</title>
<path fill="white" stroke="black" d="M807,-361C807,-361 753,-361 753,-361 747,-361 741,-355 741,-349 741,-349 741,-337 741,-337 741,-331 747,-325 753,-325 753,-325 807,-325 807,-325 813,-325 819,-331 819,-337 819,-337 819,-349 819,-349 819,-355 813,-361 807,-361"/>
<text text-anchor="middle" x="780" y="-339.3" font-family="Helvetica,sans-Serif" font-size="14.00">vibration</text>
</g>
<!-- pressure&#45;&gt;vibration -->
<g id="edge17" class="edge">
<title>pressure&#45;&gt;vibration</title>
<path fill="none" stroke="black" stroke-width="1.2" d="M171.03,-316.58C246.77,-310.25 423.31,-298.36 571,-310 626.22,-314.35 688.94,-325.11 730.93,-333.17"/>
<polygon fill="black" stroke="black" stroke-width="1.2" points="730.4,-336.63 740.88,-335.1 731.73,-329.76 730.4,-336.63"/>
</g>
<!-- pressure&#45;&gt;err_error4 -->
<g id="edge19" class="edge">
<title>pressure&#45;&gt;err_error4</title>
<path fill="none" stroke="black" stroke-width="1.2" d="M166.48,-338.05C254.34,-383.8 501.22,-497.26 705,-447 721.57,-442.91 808.78,-395.38 861.78,-366.01"/>
<polygon fill="black" stroke="black" stroke-width="1.2" points="863.57,-369.02 870.62,-361.11 860.17,-362.9 863.57,-369.02"/>
</g>
<!-- mnt_comp1 -->
<g id="node10" class="node">
<title>mnt_comp1</title>
<path fill="white" stroke="black" d="M559,-355C559,-355 485,-355 485,-355 479,-355 473,-349 473,-343 473,-343 473,-331 473,-331 473,-325 479,-319 485,-319 485,-319 559,-319 559,-319 565,-319 571,-325 571,-331 571,-331 571,-343 571,-343 571,-349 565,-355 559,-355"/>
<text text-anchor="middle" x="522" y="-333.3" font-family="Helvetica,sans-Serif" font-size="14.00">mnt_comp1</text>
</g>
<!-- pressure&#45;&gt;mnt_comp1 -->
<g id="edge20" class="edge">
<title>pressure&#45;&gt;mnt_comp1</title>
<path fill="none" stroke="black" stroke-width="1.2" d="M171.01,-321.65C238.72,-324.62 381.82,-330.89 462.49,-334.43"/>
<polygon fill="black" stroke="black" stroke-width="1.2" points="462.83,-337.95 472.97,-334.89 463.13,-330.96 462.83,-337.95"/>
</g>
<!-- mnt_comp2 -->
<g id="node11" class="node">
<title>mnt_comp2</title>
<path fill="white" stroke="black" d="M941,-186C941,-186 867,-186 867,-186 861,-186 855,-180 855,-174 855,-174 855,-162 855,-162 855,-156 861,-150 867,-150 867,-150 941,-150 941,-150 947,-150 953,-156 953,-162 953,-162 953,-174 953,-174 953,-180 947,-186 941,-186"/>
<text text-anchor="middle" x="904" y="-164.3" font-family="Helvetica,sans-Serif" font-size="14.00">mnt_comp2</text>
</g>
<!-- pressure&#45;&gt;mnt_comp2 -->
<g id="edge21" class="edge">
<title>pressure&#45;&gt;mnt_comp2</title>
<path fill="none" stroke="black" stroke-width="1.2" d="M159.36,-301.97C219.7,-261.7 375.75,-168 521,-168 521,-168 521,-168 657,-168 721.19,-168 794.81,-168 844.66,-168"/>
<polygon fill="black" stroke="black" stroke-width="1.2" points="844.92,-171.5 854.92,-168 844.92,-164.5 844.92,-171.5"/>
</g>
<!-- pressure&#45;&gt;mnt_comp4 -->
<g id="edge22" class="edge">
<title>pressure&#45;&gt;mnt_comp4</title>
<path fill="none" stroke="black" stroke-width="1.2" d="M147.65,-338.04C169.78,-366.25 212.68,-420.94 238.28,-453.59"/>
<polygon fill="black" stroke="black" stroke-width="1.2" points="235.78,-456.07 244.71,-461.78 241.29,-451.75 235.78,-456.07"/>
</g>
<!-- pressure&#45;&gt;fail_comp1 -->
<g id="edge23" class="edge">
<title>pressure&#45;&gt;fail_comp1</title>
<path fill="none" stroke="black" stroke-width="1.2" d="M171.34,-326.85C183.95,-329.13 198.08,-331.68 211,-334 252.43,-341.45 299.26,-349.82 334.63,-356.13"/>
<polygon fill="black" stroke="black" stroke-width="1.2" points="334.29,-359.62 344.75,-357.93 335.52,-352.73 334.29,-359.62"/>
</g>
<!-- err_error2 -->
<g id="node6" class="node">
<title>err_error2</title>
<path fill="white" stroke="black" d="M934.5,-415C934.5,-415 873.5,-415 873.5,-415 867.5,-415 861.5,-409 861.5,-403 861.5,-403 861.5,-391 861.5,-391 861.5,-385 867.5,-379 873.5,-379 873.5,-379 934.5,-379 934.5,-379 940.5,-379 946.5,-385 946.5,-391 946.5,-391 946.5,-403 946.5,-403 946.5,-409 940.5,-415 934.5,-415"/>
<text text-anchor="middle" x="904" y="-393.3" font-family="Helvetica,sans-Serif" font-size="14.00">err_error2</text>
</g>
<!-- vibration&#45;&gt;err_error2 -->
<g id="edge26" class="edge">
<title>vibration&#45;&gt;err_error2</title>
<path fill="none" stroke="black" stroke-width="1.2" d="M828.71,-364.12C836.6,-367.61 844.79,-371.23 852.73,-374.75"/>
<polygon fill="black" stroke="black" stroke-width="1.2" points="829.83,-360.78 819.27,-359.94 826.99,-367.19 829.83,-360.78"/>
<polygon fill="black" stroke="black" stroke-width="1.2" points="851.35,-377.97 861.91,-378.81 854.18,-371.56 851.35,-377.97"/>
</g>
<!-- vibration&#45;&gt;err_error4 -->
<g id="edge27" class="edge">
<title>vibration&#45;&gt;err_error4</title>
<path fill="none" stroke="black" stroke-width="1.2" d="M829.27,-343C836.51,-343 844.01,-343 851.32,-343"/>
<polygon fill="black" stroke="black" stroke-width="1.2" points="829.27,-339.5 819.27,-343 829.27,-346.5 829.27,-339.5"/>
<polygon fill="black" stroke="black" stroke-width="1.2" points="851.48,-346.5 861.48,-343 851.48,-339.5 851.48,-346.5"/>
</g>
<!-- vibration&#45;&gt;mnt_comp2 -->
<g id="edge29" class="edge">
<title>vibration&#45;&gt;mnt_comp2</title>
<path fill="none" stroke="black" stroke-width="1.2" d="M793.6,-324.93C815.15,-294.02 859.2,-230.83 884.33,-194.78"/>
<polygon fill="black" stroke="black" stroke-width="1.2" points="887.44,-196.44 890.29,-186.23 881.7,-192.43 887.44,-196.44"/>
</g>
<!-- err_error1 -->
<g id="node5" class="node">
<title>err_error1</title>
<path fill="white" stroke="black" d="M686.5,-384C686.5,-384 625.5,-384 625.5,-384 619.5,-384 613.5,-378 613.5,-372 613.5,-372 613.5,-360 613.5,-360 613.5,-354 619.5,-348 625.5,-348 625.5,-348 686.5,-348 686.5,-348 692.5,-348 698.5,-354 698.5,-360 698.5,-360 698.5,-372 698.5,-372 698.5,-378 692.5,-384 686.5,-384"/>
<text text-anchor="middle" x="656" y="-362.3" font-family="Helvetica,sans-Serif" font-size="14.00">err_error1</text>
</g>
<!-- err_error1&#45;&gt;vibration -->
<g id="edge25" class="edge">
<title>err_error1&#45;&gt;vibration</title>
<path fill="none" stroke="black" stroke-width="1.2" d="M698.64,-358.15C709,-356.2 720.19,-354.09 730.83,-352.08"/>
<polygon fill="black" stroke="black" stroke-width="1.2" points="731.64,-355.49 740.82,-350.2 730.35,-348.61 731.64,-355.49"/>
</g>
<!-- err_error2&#45;&gt;pressure -->
<g id="edge18" class="edge">
<title>err_error2&#45;&gt;pressure</title>
<path fill="none" stroke="black" stroke-width="1.2" d="M901.93,-415.25C898.37,-457.94 883.18,-564.55 819,-616 762.21,-661.53 729.79,-640 657,-640 521,-640 521,-640 521,-640 371.08,-640 316.35,-613.67 211,-507 166.68,-462.13 146.41,-388.27 138.26,-348.12"/>
<polygon fill="black" stroke="black" stroke-width="1.2" points="141.67,-347.37 136.35,-338.21 134.8,-348.69 141.67,-347.37"/>
</g>
<!-- err_error3 -->
<g id="node7" class="node">
<title>err_error3</title>
<path fill="white" stroke="black" d="M1062,-56C1062,-56 1001,-56 1001,-56 995,-56 989,-50 989,-44 989,-44 989,-32 989,-32 989,-26 995,-20 1001,-20 1001,-20 1062,-20 1062,-20 1068,-20 1074,-26 1074,-32 1074,-32 1074,-44 1074,-44 1074,-50 1068,-56 1062,-56"/>
<text text-anchor="middle" x="1031.5" y="-34.3" font-family="Helvetica,sans-Serif" font-size="14.00">err_error3</text>
</g>
<!-- err_error2&#45;&gt;err_error3 -->
<g id="edge31" class="edge">
<title>err_error2&#45;&gt;err_error3</title>
<path fill="none" stroke="black" stroke-width="1.2" d="M951.83,-371.48C952.23,-371 952.62,-370.5 953,-370 1023.56,-276 1031.28,-128.07 1031.2,-66.43"/>
<polygon fill="black" stroke="black" stroke-width="1.2" points="949.19,-369.18 944.49,-378.67 954.09,-374.18 949.19,-369.18"/>
<polygon fill="black" stroke="black" stroke-width="1.2" points="1034.7,-66.26 1031.11,-56.29 1027.7,-66.32 1034.7,-66.26"/>
</g>
<!-- err_error3&#45;&gt;volt -->
<g id="edge3" class="edge">
<title>err_error3&#45;&gt;volt</title>
<path fill="none" stroke="black" stroke-width="1.2" d="M988.86,-27.72C939.56,-16.46 854.83,0 781,0 259,0 259,0 259,0 173.9,0 143,-23.42 90,-90 41.97,-150.33 31.01,-244.81 28.61,-291.67"/>
<polygon fill="black" stroke="black" stroke-width="1.2" points="25.11,-291.58 28.19,-301.72 32.1,-291.87 25.11,-291.58"/>
</g>
<!-- err_error3&#45;&gt;rotate -->
<g id="edge11" class="edge">
<title>err_error3&#45;&gt;rotate</title>
<path fill="none" stroke="black" stroke-width="1.2" d="M988.56,-38C938.98,-38 853.99,-38 781,-38 521,-38 521,-38 521,-38 441.07,-38 419.85,-46.94 345,-75 328.54,-81.17 311.43,-90.2 296.98,-98.7"/>
<polygon fill="black" stroke="black" stroke-width="1.2" points="295.11,-95.74 288.35,-103.9 298.73,-101.74 295.11,-95.74"/>
</g>
<!-- err_error4&#45;&gt;rotate -->
<g id="edge12" class="edge">
<title>err_error4&#45;&gt;rotate</title>
<path fill="none" stroke="black" stroke-width="1.2" d="M866.78,-324.88C827.55,-305.7 762.82,-275.31 705,-254 548.62,-196.36 504.35,-197.84 345,-149 329.65,-144.3 312.79,-138.92 298.23,-134.21"/>
<polygon fill="black" stroke="black" stroke-width="1.2" points="299.15,-130.83 288.56,-131.07 296.99,-137.48 299.15,-130.83"/>
</g>
<!-- err_error5&#45;&gt;rotate -->
<g id="edge13" class="edge">
<title>err_error5&#45;&gt;rotate</title>
<path fill="none" stroke="black" stroke-width="1.2" d="M146.78,-225.81C161.29,-206.66 185.82,-176.26 211,-154 214.7,-150.73 218.75,-147.53 222.89,-144.5"/>
<polygon fill="black" stroke="black" stroke-width="1.2" points="225.21,-147.15 231.4,-138.55 221.2,-141.41 225.21,-147.15"/>
</g>
<!-- err_error5&#45;&gt;vibration -->
<g id="edge28" class="edge">
<title>err_error5&#45;&gt;vibration</title>
<path fill="none" stroke="black" stroke-width="1.2" d="M175.26,-244C226.03,-244 314.3,-244 390,-244 390,-244 390,-244 523,-244 606.27,-244 695.13,-290.12 743.16,-319.41"/>
<polygon fill="black" stroke="black" stroke-width="1.2" points="741.58,-322.55 751.93,-324.84 745.27,-316.6 741.58,-322.55"/>
</g>
<!-- mnt_comp1&#45;&gt;mnt_comp2 -->
<g id="edge32" class="edge">
<title>mnt_comp1&#45;&gt;mnt_comp2</title>
<path fill="none" stroke="black" stroke-width="1.2" d="M563.67,-318.91C633.71,-287.76 776.92,-224.07 852.96,-190.25"/>
<polygon fill="black" stroke="black" stroke-width="1.2" points="854.62,-193.35 862.34,-186.08 851.78,-186.95 854.62,-193.35"/>
</g>
<!-- mnt_comp3 -->
<g id="node12" class="node">
<title>mnt_comp3</title>
<path fill="white" stroke="black" d="M693,-438C693,-438 619,-438 619,-438 613,-438 607,-432 607,-426 607,-426 607,-414 607,-414 607,-408 613,-402 619,-402 619,-402 693,-402 693,-402 699,-402 705,-408 705,-414 705,-414 705,-426 705,-426 705,-432 699,-438 693,-438"/>
<text text-anchor="middle" x="656" y="-416.3" font-family="Helvetica,sans-Serif" font-size="14.00">mnt_comp3</text>
</g>
<!-- mnt_comp1&#45;&gt;mnt_comp3 -->
<g id="edge33" class="edge">
<title>mnt_comp1&#45;&gt;mnt_comp3</title>
<path fill="none" stroke="black" stroke-width="1.2" d="M549.15,-355.17C565.56,-366.39 587.28,-380.9 607,-393 608.95,-394.2 610.96,-395.41 613,-396.62"/>
<polygon fill="black" stroke="black" stroke-width="1.2" points="611.62,-399.86 622.02,-401.88 615.14,-393.82 611.62,-399.86"/>
</g>
<!-- mnt_comp2&#45;&gt;rotate -->
<g id="edge14" class="edge">
<title>mnt_comp2&#45;&gt;rotate</title>
<path fill="none" stroke="black" stroke-width="1.2" d="M874.75,-149.82C830.3,-123.01 740.44,-76 657,-76 521,-76 521,-76 521,-76 442.32,-76 421.96,-78.66 345,-95 329.42,-98.31 312.63,-103.39 298.19,-108.25"/>
<polygon fill="black" stroke="black" stroke-width="1.2" points="296.93,-104.98 288.62,-111.55 299.21,-111.6 296.93,-104.98"/>
</g>
<!-- mnt_comp3&#45;&gt;volt -->
<g id="edge6" class="edge">
<title>mnt_comp3&#45;&gt;volt</title>
<path fill="none" stroke="black" stroke-width="1.2" d="M637.1,-438.24C597.05,-476.99 495.59,-564 392,-564 259,-564 259,-564 259,-564 174.52,-564 146.7,-539.63 90,-477 56.46,-439.95 40.09,-382.59 32.9,-348.42"/>
<polygon fill="black" stroke="black" stroke-width="1.2" points="36.25,-347.33 30.88,-338.2 29.39,-348.68 36.25,-347.33"/>
</g>
<!-- mnt_comp3&#45;&gt;vibration -->
<g id="edge30" class="edge">
<title>mnt_comp3&#45;&gt;vibration</title>
<path fill="none" stroke="black" stroke-width="1.2" d="M690,-401.91C695.06,-399 700.2,-395.96 705,-393 718.29,-384.79 732.58,-375.3 745.03,-366.81"/>
<polygon fill="black" stroke="black" stroke-width="1.2" points="747.05,-369.66 753.31,-361.11 743.09,-363.89 747.05,-369.66"/>
</g>
<!-- mnt_comp4&#45;&gt;mnt_comp3 -->
<g id="edge36" class="edge">
<title>mnt_comp4&#45;&gt;mnt_comp3</title>
<path fill="none" stroke="black" stroke-width="1.2" d="M309.31,-472.64C381.88,-461.59 518.8,-440.74 596.77,-428.87"/>
<polygon fill="black" stroke="black" stroke-width="1.2" points="597.55,-432.29 606.91,-427.32 596.5,-425.37 597.55,-432.29"/>
</g>
<!-- fail_comp1&#45;&gt;mnt_comp1 -->
<g id="edge34" class="edge">
<title>fail_comp1&#45;&gt;mnt_comp1</title>
<path fill="none" stroke="black" stroke-width="1.2" d="M437.12,-355.86C445.37,-354 454.09,-352.04 462.66,-350.12"/>
<polygon fill="black" stroke="black" stroke-width="1.2" points="463.63,-353.49 472.62,-347.88 462.09,-346.66 463.63,-353.49"/>
</g>
<!-- fail_comp1&#45;&gt;mnt_comp3 -->
<g id="edge37" class="edge">
<title>fail_comp1&#45;&gt;mnt_comp3</title>
<path fill="none" stroke="black" stroke-width="1.2" d="M437.21,-375.28C481.36,-384.35 548.75,-398.18 596.86,-408.06"/>
<polygon fill="black" stroke="black" stroke-width="1.2" points="596.32,-411.52 606.82,-410.11 597.73,-404.67 596.32,-411.52"/>
</g>
<!-- fail_comp2&#45;&gt;volt -->
<g id="edge9" class="edge">
<title>fail_comp2&#45;&gt;volt</title>
<path fill="none" stroke="black" stroke-width="1.2" d="M344.81,-104.09C333.31,-100.33 320.85,-96.92 309,-95 209.38,-78.83 157.67,-80.13 90,-155 54.48,-194.3 38.65,-255.89 32.12,-291.66"/>
<polygon fill="black" stroke="black" stroke-width="1.2" points="28.61,-291.43 30.38,-301.88 35.51,-292.61 28.61,-291.43"/>
</g>
<!-- fail_comp2&#45;&gt;pressure -->
<g id="edge24" class="edge">
<title>fail_comp2&#45;&gt;pressure</title>
<path fill="none" stroke="black" stroke-width="1.2" d="M344.7,-137.71C295.09,-155.23 221.18,-182.37 211,-192 182.98,-218.53 195.66,-238.41 175,-271 170.02,-278.85 163.89,-286.78 157.87,-293.91"/>
<polygon fill="black" stroke="black" stroke-width="1.2" points="154.88,-292.02 150.95,-301.86 160.15,-296.62 154.88,-292.02"/>
</g>
<!-- fail_comp2&#45;&gt;mnt_comp2 -->
<g id="edge35" class="edge">
<title>fail_comp2&#45;&gt;mnt_comp2</title>
<path fill="none" stroke="black" stroke-width="1.2" d="M437.01,-124.03C515,-127.86 680.25,-137.27 819,-154 827.33,-155 836.1,-156.25 844.71,-157.59"/>
<polygon fill="black" stroke="black" stroke-width="1.2" points="844.26,-161.06 854.69,-159.18 845.37,-154.15 844.26,-161.06"/>
</g>
</g>
</svg>
