<?xml version="1.0" encoding="UTF-8" standalone="no"?>
<!DOCTYPE svg PUBLIC "-//W3C//DTD SVG 1.1//EN"
 "http://www.w3.org/Graphics/SVG/1.1/DTD/svg11.dtd">
<!-- Generated by graphviz version 2.50.0 (0)
 -->
<!-- Title: G Pages: 1 -->
<svg width="1459pt" height="684pt"
 viewBox="0.00 0.00 1459.00 683.78" xmlns="http://www.w3.org/2000/svg" xmlns:xlink="http://www.w3.org/1999/xlink">
<g id="graph0" class="graph" transform="scale(1 1) rotate(0) translate(4 679.78)">
<title>G</title>
<polygon fill="white" stroke="transparent" points="-4,4 -4,-679.78 1455,-679.78 1455,4 -4,4"/>
<text text-anchor="middle" x="725.5" y="-658.98" font-family="Times,serif" font-size="16.00">model=model2/nbcb_w_mixed.json [machine 71]</text>
<!-- volt -->
<g id="node1" class="node">
<title>volt</title>
<path fill="white" stroke="black" d="M42,-182.97C42,-182.97 12,-182.97 12,-182.97 6,-182.97 0,-176.97 0,-170.97 0,-170.97 0,-158.97 0,-158.97 0,-152.97 6,-146.97 12,-146.97 12,-146.97 42,-146.97 42,-146.97 48,-146.97 54,-152.97 54,-158.97 54,-158.97 54,-170.97 54,-170.97 54,-176.97 48,-182.97 42,-182.97"/>
<text text-anchor="middle" x="27" y="-161.27" font-family="Helvetica,sans-Serif" font-size="14.00">volt</text>
</g>
<!-- pressure -->
<g id="node3" class="node">
<title>pressure</title>
<path fill="white" stroke="black" d="M159,-294.97C159,-294.97 106,-294.97 106,-294.97 100,-294.97 94,-288.97 94,-282.97 94,-282.97 94,-270.97 94,-270.97 94,-264.97 100,-258.97 106,-258.97 106,-258.97 159,-258.97 159,-258.97 165,-258.97 171,-264.97 171,-270.97 171,-270.97 171,-282.97 171,-282.97 171,-288.97 165,-294.97 159,-294.97"/>
<text text-anchor="middle" x="132.5" y="-273.27" font-family="Helvetica,sans-Serif" font-size="14.00">pressure</text>
</g>
<!-- volt&#45;&gt;pressure -->
<g id="edge1" class="edge">
<title>volt&#45;&gt;pressure</title>
<path fill="none" stroke="black" stroke-width="1.2" d="M45.09,-183.47C62.2,-201.98 88.65,-230.61 107.79,-251.31"/>
<polygon fill="black" stroke="black" stroke-width="1.2" points="105.37,-253.85 114.73,-258.82 110.51,-249.1 105.37,-253.85"/>
</g>
<!-- err_error1 -->
<g id="node5" class="node">
<title>err_error1</title>
<path fill="white" stroke="black" d="M163,-348.97C163,-348.97 102,-348.97 102,-348.97 96,-348.97 90,-342.97 90,-336.97 90,-336.97 90,-324.97 90,-324.97 90,-318.97 96,-312.97 102,-312.97 102,-312.97 163,-312.97 163,-312.97 169,-312.97 175,-318.97 175,-324.97 175,-324.97 175,-336.97 175,-336.97 175,-342.97 169,-348.97 163,-348.97"/>
<text text-anchor="middle" x="132.5" y="-327.27" font-family="Helvetica,sans-Serif" font-size="14.00">err_error1</text>
</g>
<!-- volt&#45;&gt;err_error1 -->
<g id="edge2" class="edge">
<title>volt&#45;&gt;err_error1</title>
<path fill="none" stroke="black" stroke-width="1.2" d="M32.46,-183C40.21,-211.37 58.43,-267 90,-303.97 90.5,-304.56 91.02,-305.14 91.55,-305.71"/>
<polygon fill="black" stroke="black" stroke-width="1.2" points="89.4,-308.49 99.14,-312.68 94.14,-303.34 89.4,-308.49"/>
</g>
<!-- err_error3 -->
<g id="node7" class="node">
<title>err_error3</title>
<path fill="white" stroke="black" d="M905.5,-372.97C905.5,-372.97 844.5,-372.97 844.5,-372.97 838.5,-372.97 832.5,-366.97 832.5,-360.97 832.5,-360.97 832.5,-348.97 832.5,-348.97 832.5,-342.97 838.5,-336.97 844.5,-336.97 844.5,-336.97 905.5,-336.97 905.5,-336.97 911.5,-336.97 917.5,-342.97 917.5,-348.97 917.5,-348.97 917.5,-360.97 917.5,-360.97 917.5,-366.97 911.5,-372.97 905.5,-372.97"/>
<text text-anchor="middle" x="875" y="-351.27" font-family="Helvetica,sans-Serif" font-size="14.00">err_error3</text>
</g>
<!-- volt&#45;&gt;err_error3 -->
<g id="edge3" class="edge">
<title>volt&#45;&gt;err_error3</title>
<path fill="none" stroke="black" stroke-width="1.2" d="M46.32,-146.97C82.88,-113.04 168.91,-42.97 256,-42.97 256,-42.97 256,-42.97 513,-42.97 578.71,-42.97 749.9,-88.38 793,-137.97 849.38,-202.84 779.85,-257.47 829,-327.97 829.36,-328.49 829.73,-328.99 830.11,-329.49"/>
<polygon fill="black" stroke="black" stroke-width="1.2" points="827.78,-332.11 837.25,-336.86 832.81,-327.24 827.78,-332.11"/>
</g>
<!-- fail_comp1 -->
<g id="node14" class="node">
<title>fail_comp1</title>
<path fill="white" stroke="black" d="M909,-318.97C909,-318.97 841,-318.97 841,-318.97 835,-318.97 829,-312.97 829,-306.97 829,-306.97 829,-294.97 829,-294.97 829,-288.97 835,-282.97 841,-282.97 841,-282.97 909,-282.97 909,-282.97 915,-282.97 921,-288.97 921,-294.97 921,-294.97 921,-306.97 921,-306.97 921,-312.97 915,-318.97 909,-318.97"/>
<text text-anchor="middle" x="875" y="-297.27" font-family="Helvetica,sans-Serif" font-size="14.00">fail_comp1</text>
</g>
<!-- volt&#45;&gt;fail_comp1 -->
<g id="edge5" class="edge">
<title>volt&#45;&gt;fail_comp1</title>
<path fill="none" stroke="black" stroke-width="1.2" d="M32.69,-136.58C39.49,-104.99 55.3,-54.99 90,-28.97 149.64,15.74 181.46,-4.97 256,-4.97 256,-4.97 256,-4.97 630.5,-4.97 658.69,-4.97 727.62,-27.5 793,-104.97 835.81,-155.71 858.5,-232.2 868.17,-273.01"/>
<polygon fill="black" stroke="black" stroke-width="1.2" points="29.22,-136.03 30.71,-146.52 36.09,-137.4 29.22,-136.03"/>
<polygon fill="black" stroke="black" stroke-width="1.2" points="864.77,-273.84 870.41,-282.81 871.6,-272.28 864.77,-273.84"/>
</g>
<!-- fail_comp4 -->
<g id="node17" class="node">
<title>fail_comp4</title>
<path fill="white" stroke="black" d="M291,-632.97C291,-632.97 223,-632.97 223,-632.97 217,-632.97 211,-626.97 211,-620.97 211,-620.97 211,-608.97 211,-608.97 211,-602.97 217,-596.97 223,-596.97 223,-596.97 291,-596.97 291,-596.97 297,-596.97 303,-602.97 303,-608.97 303,-608.97 303,-620.97 303,-620.97 303,-626.97 297,-632.97 291,-632.97"/>
<text text-anchor="middle" x="257" y="-611.27" font-family="Helvetica,sans-Serif" font-size="14.00">fail_comp4</text>
</g>
<!-- volt&#45;&gt;fail_comp4 -->
<g id="edge6" class="edge">
<title>volt&#45;&gt;fail_comp4</title>
<path fill="none" stroke="black" stroke-width="1.2" d="M31.71,-183C45.34,-245.3 97.78,-454.67 211,-582.97 213.22,-585.49 215.67,-587.92 218.26,-590.23"/>
<polygon fill="black" stroke="black" stroke-width="1.2" points="216.33,-593.18 226.29,-596.81 220.77,-587.76 216.33,-593.18"/>
</g>
<!-- rotate -->
<g id="node2" class="node">
<title>rotate</title>
<path fill="white" stroke="black" d="M767,-426.97C767,-426.97 734,-426.97 734,-426.97 728,-426.97 722,-420.97 722,-414.97 722,-414.97 722,-402.97 722,-402.97 722,-396.97 728,-390.97 734,-390.97 734,-390.97 767,-390.97 767,-390.97 773,-390.97 779,-396.97 779,-402.97 779,-402.97 779,-414.97 779,-414.97 779,-420.97 773,-426.97 767,-426.97"/>
<text text-anchor="middle" x="750.5" y="-405.27" font-family="Helvetica,sans-Serif" font-size="14.00">rotate</text>
</g>
<!-- rotate&#45;&gt;pressure -->
<g id="edge7" class="edge">
<title>rotate&#45;&gt;pressure</title>
<path fill="none" stroke="black" stroke-width="1.2" d="M721.75,-414.45C689.29,-420.03 633.99,-426.94 587,-419.97 433.78,-397.26 261.56,-331.03 180.48,-297.27"/>
<polygon fill="black" stroke="black" stroke-width="1.2" points="181.63,-293.95 171.06,-293.32 178.93,-300.41 181.63,-293.95"/>
</g>
<!-- vibration -->
<g id="node4" class="node">
<title>vibration</title>
<path fill="white" stroke="black" d="M539,-342.97C539,-342.97 485,-342.97 485,-342.97 479,-342.97 473,-336.97 473,-330.97 473,-330.97 473,-318.97 473,-318.97 473,-312.97 479,-306.97 485,-306.97 485,-306.97 539,-306.97 539,-306.97 545,-306.97 551,-312.97 551,-318.97 551,-318.97 551,-330.97 551,-330.97 551,-336.97 545,-342.97 539,-342.97"/>
<text text-anchor="middle" x="512" y="-321.27" font-family="Helvetica,sans-Serif" font-size="14.00">vibration</text>
</g>
<!-- rotate&#45;&gt;vibration -->
<g id="edge8" class="edge">
<title>rotate&#45;&gt;vibration</title>
<path fill="none" stroke="black" stroke-width="1.2" d="M721.94,-412.74C688.45,-416.08 630.96,-417.77 587,-397.97 564.58,-387.88 545.06,-367.85 531.71,-351.32"/>
<polygon fill="black" stroke="black" stroke-width="1.2" points="534.2,-348.83 525.31,-343.07 528.67,-353.12 534.2,-348.83"/>
</g>
<!-- rotate&#45;&gt;err_error3 -->
<g id="edge10" class="edge">
<title>rotate&#45;&gt;err_error3</title>
<path fill="none" stroke="black" stroke-width="1.2" d="M788.6,-392.62C799.62,-387.76 811.87,-382.36 823.58,-377.2"/>
<polygon fill="black" stroke="black" stroke-width="1.2" points="787.04,-389.48 779.3,-396.72 789.86,-395.89 787.04,-389.48"/>
<polygon fill="black" stroke="black" stroke-width="1.2" points="825.09,-380.36 832.83,-373.12 822.26,-373.96 825.09,-380.36"/>
</g>
<!-- mnt_comp2 -->
<g id="node11" class="node">
<title>mnt_comp2</title>
<path fill="white" stroke="black" d="M1043,-464.97C1043,-464.97 969,-464.97 969,-464.97 963,-464.97 957,-458.97 957,-452.97 957,-452.97 957,-440.97 957,-440.97 957,-434.97 963,-428.97 969,-428.97 969,-428.97 1043,-428.97 1043,-428.97 1049,-428.97 1055,-434.97 1055,-440.97 1055,-440.97 1055,-452.97 1055,-452.97 1055,-458.97 1049,-464.97 1043,-464.97"/>
<text text-anchor="middle" x="1006" y="-443.27" font-family="Helvetica,sans-Serif" font-size="14.00">mnt_comp2</text>
</g>
<!-- rotate&#45;&gt;mnt_comp2 -->
<g id="edge11" class="edge">
<title>rotate&#45;&gt;mnt_comp2</title>
<path fill="none" stroke="black" stroke-width="1.2" d="M779.33,-420.74C793.86,-426.35 812.1,-432.57 829,-435.97 867.62,-443.76 911.89,-446.49 946.36,-447.29"/>
<polygon fill="black" stroke="black" stroke-width="1.2" points="946.67,-450.8 956.73,-447.48 946.8,-443.8 946.67,-450.8"/>
</g>
<!-- rotate&#45;&gt;fail_comp1 -->
<g id="edge12" class="edge">
<title>rotate&#45;&gt;fail_comp1</title>
<path fill="none" stroke="black" stroke-width="1.2" d="M766.31,-390.89C781.08,-373.52 804.97,-347.16 829,-327.97 830.32,-326.92 831.69,-325.87 833.09,-324.84"/>
<polygon fill="black" stroke="black" stroke-width="1.2" points="835.1,-327.7 841.34,-319.14 831.13,-321.95 835.1,-327.7"/>
</g>
<!-- fail_comp2 -->
<g id="node15" class="node">
<title>fail_comp2</title>
<path fill="white" stroke="black" d="M909,-426.97C909,-426.97 841,-426.97 841,-426.97 835,-426.97 829,-420.97 829,-414.97 829,-414.97 829,-402.97 829,-402.97 829,-396.97 835,-390.97 841,-390.97 841,-390.97 909,-390.97 909,-390.97 915,-390.97 921,-396.97 921,-402.97 921,-402.97 921,-414.97 921,-414.97 921,-420.97 915,-426.97 909,-426.97"/>
<text text-anchor="middle" x="875" y="-405.27" font-family="Helvetica,sans-Serif" font-size="14.00">fail_comp2</text>
</g>
<!-- rotate&#45;&gt;fail_comp2 -->
<g id="edge13" class="edge">
<title>rotate&#45;&gt;fail_comp2</title>
<path fill="none" stroke="black" stroke-width="1.2" d="M789.31,-408.97C798.51,-408.97 808.55,-408.97 818.39,-408.97"/>
<polygon fill="black" stroke="black" stroke-width="1.2" points="789.3,-405.47 779.3,-408.97 789.3,-412.47 789.3,-405.47"/>
<polygon fill="black" stroke="black" stroke-width="1.2" points="818.54,-412.47 828.54,-408.97 818.54,-405.47 818.54,-412.47"/>
</g>
<!-- pressure&#45;&gt;vibration -->
<g id="edge14" class="edge">
<title>pressure&#45;&gt;vibration</title>
<path fill="none" stroke="black" stroke-width="1.2" d="M181.29,-283.05C253.53,-292.24 389.82,-309.57 462.49,-318.81"/>
<polygon fill="black" stroke="black" stroke-width="1.2" points="181.44,-279.54 171.08,-281.75 180.55,-286.49 181.44,-279.54"/>
<polygon fill="black" stroke="black" stroke-width="1.2" points="462.37,-322.32 472.73,-320.11 463.26,-315.37 462.37,-322.32"/>
</g>
<!-- pressure&#45;&gt;err_error3 -->
<g id="edge15" class="edge">
<title>pressure&#45;&gt;err_error3</title>
<path fill="none" stroke="black" stroke-width="1.2" d="M171.15,-270.2C220.53,-261.91 309.96,-248.97 387,-248.97 387,-248.97 387,-248.97 630.5,-248.97 671.75,-248.97 774.29,-300.76 832.29,-331.94"/>
<polygon fill="black" stroke="black" stroke-width="1.2" points="830.74,-335.08 841.2,-336.75 834.07,-328.92 830.74,-335.08"/>
</g>
<!-- err_error4 -->
<g id="node8" class="node">
<title>err_error4</title>
<path fill="white" stroke="black" d="M781,-182.97C781,-182.97 720,-182.97 720,-182.97 714,-182.97 708,-176.97 708,-170.97 708,-170.97 708,-158.97 708,-158.97 708,-152.97 714,-146.97 720,-146.97 720,-146.97 781,-146.97 781,-146.97 787,-146.97 793,-152.97 793,-158.97 793,-158.97 793,-170.97 793,-170.97 793,-176.97 787,-182.97 781,-182.97"/>
<text text-anchor="middle" x="750.5" y="-161.27" font-family="Helvetica,sans-Serif" font-size="14.00">err_error4</text>
</g>
<!-- pressure&#45;&gt;err_error4 -->
<g id="edge16" class="edge">
<title>pressure&#45;&gt;err_error4</title>
<path fill="none" stroke="black" stroke-width="1.2" d="M162.81,-252.51C207.95,-217.42 298.53,-156.97 387,-156.97 387,-156.97 387,-156.97 513,-156.97 576.54,-156.97 649.62,-159.89 697.52,-162.21"/>
<polygon fill="black" stroke="black" stroke-width="1.2" points="160.6,-249.8 154.93,-258.75 164.94,-255.29 160.6,-249.8"/>
<polygon fill="black" stroke="black" stroke-width="1.2" points="697.49,-165.71 707.65,-162.7 697.83,-158.72 697.49,-165.71"/>
</g>
<!-- mnt_comp1 -->
<g id="node10" class="node">
<title>mnt_comp1</title>
<path fill="white" stroke="black" d="M1439,-506.97C1439,-506.97 1365,-506.97 1365,-506.97 1359,-506.97 1353,-500.97 1353,-494.97 1353,-494.97 1353,-482.97 1353,-482.97 1353,-476.97 1359,-470.97 1365,-470.97 1365,-470.97 1439,-470.97 1439,-470.97 1445,-470.97 1451,-476.97 1451,-482.97 1451,-482.97 1451,-494.97 1451,-494.97 1451,-500.97 1445,-506.97 1439,-506.97"/>
<text text-anchor="middle" x="1402" y="-485.27" font-family="Helvetica,sans-Serif" font-size="14.00">mnt_comp1</text>
</g>
<!-- pressure&#45;&gt;mnt_comp1 -->
<g id="edge17" class="edge">
<title>pressure&#45;&gt;mnt_comp1</title>
<path fill="none" stroke="black" stroke-width="1.2" d="M173.88,-302.49C174.26,-302.98 174.64,-303.47 175,-303.97 211.45,-354.25 177.13,-386.93 211,-438.97 264.04,-520.48 289.75,-568.97 387,-568.97 387,-568.97 387,-568.97 630.5,-568.97 797.8,-568.97 837.7,-606.97 1005,-606.97 1005,-606.97 1005,-606.97 1138,-606.97 1228.69,-606.97 1322.78,-547.84 1370,-513.3"/>
<polygon fill="black" stroke="black" stroke-width="1.2" points="176.26,-299.93 166.78,-295.21 171.25,-304.81 176.26,-299.93"/>
<polygon fill="black" stroke="black" stroke-width="1.2" points="1372.33,-515.93 1378.26,-507.15 1368.15,-510.31 1372.33,-515.93"/>
</g>
<!-- mnt_comp3 -->
<g id="node12" class="node">
<title>mnt_comp3</title>
<path fill="white" stroke="black" d="M1305,-506.97C1305,-506.97 1231,-506.97 1231,-506.97 1225,-506.97 1219,-500.97 1219,-494.97 1219,-494.97 1219,-482.97 1219,-482.97 1219,-476.97 1225,-470.97 1231,-470.97 1231,-470.97 1305,-470.97 1305,-470.97 1311,-470.97 1317,-476.97 1317,-482.97 1317,-482.97 1317,-494.97 1317,-494.97 1317,-500.97 1311,-506.97 1305,-506.97"/>
<text text-anchor="middle" x="1268" y="-485.27" font-family="Helvetica,sans-Serif" font-size="14.00">mnt_comp3</text>
</g>
<!-- pressure&#45;&gt;mnt_comp3 -->
<g id="edge18" class="edge">
<title>pressure&#45;&gt;mnt_comp3</title>
<path fill="none" stroke="black" stroke-width="1.2" d="M163.84,-295.03C167.74,-297.83 171.57,-300.84 175,-303.97 276.95,-397.05 248.96,-530.97 387,-530.97 387,-530.97 387,-530.97 1007,-530.97 1077.23,-530.97 1156.79,-515.85 1209.19,-503.76"/>
<polygon fill="black" stroke="black" stroke-width="1.2" points="1210.04,-507.15 1218.98,-501.46 1208.44,-500.34 1210.04,-507.15"/>
</g>
<!-- fail_comp3 -->
<g id="node16" class="node">
<title>fail_comp3</title>
<path fill="white" stroke="black" d="M1171,-483.97C1171,-483.97 1103,-483.97 1103,-483.97 1097,-483.97 1091,-477.97 1091,-471.97 1091,-471.97 1091,-459.97 1091,-459.97 1091,-453.97 1097,-447.97 1103,-447.97 1103,-447.97 1171,-447.97 1171,-447.97 1177,-447.97 1183,-453.97 1183,-459.97 1183,-459.97 1183,-471.97 1183,-471.97 1183,-477.97 1177,-483.97 1171,-483.97"/>
<text text-anchor="middle" x="1137" y="-462.27" font-family="Helvetica,sans-Serif" font-size="14.00">fail_comp3</text>
</g>
<!-- pressure&#45;&gt;fail_comp3 -->
<g id="edge19" class="edge">
<title>pressure&#45;&gt;fail_comp3</title>
<path fill="none" stroke="black" stroke-width="1.2" d="M146.75,-249.51C159.84,-225.18 182.08,-190.45 211,-169.97 324.5,-89.6 371.92,-80.97 511,-80.97 511,-80.97 511,-80.97 630.5,-80.97 867.56,-80.97 1062.83,-352.26 1119.42,-439.38"/>
<polygon fill="black" stroke="black" stroke-width="1.2" points="143.54,-248.1 142.03,-258.58 149.75,-251.33 143.54,-248.1"/>
<polygon fill="black" stroke="black" stroke-width="1.2" points="1116.56,-441.4 1124.91,-447.92 1122.45,-437.62 1116.56,-441.4"/>
</g>
<!-- pressure&#45;&gt;fail_comp4 -->
<g id="edge20" class="edge">
<title>pressure&#45;&gt;fail_comp4</title>
<path fill="none" stroke="black" stroke-width="1.2" d="M167.6,-295.27C170.44,-297.87 172.99,-300.77 175,-303.97 241.54,-409.83 146.67,-475.77 211,-582.97 212.38,-585.28 214,-587.46 215.78,-589.52"/>
<polygon fill="black" stroke="black" stroke-width="1.2" points="213.74,-592.41 223.36,-596.85 218.61,-587.38 213.74,-592.41"/>
</g>
<!-- err_error2 -->
<g id="node6" class="node">
<title>err_error2</title>
<path fill="white" stroke="black" d="M660,-388.97C660,-388.97 599,-388.97 599,-388.97 593,-388.97 587,-382.97 587,-376.97 587,-376.97 587,-364.97 587,-364.97 587,-358.97 593,-352.97 599,-352.97 599,-352.97 660,-352.97 660,-352.97 666,-352.97 672,-358.97 672,-364.97 672,-364.97 672,-376.97 672,-376.97 672,-382.97 666,-388.97 660,-388.97"/>
<text text-anchor="middle" x="629.5" y="-367.27" font-family="Helvetica,sans-Serif" font-size="14.00">err_error2</text>
</g>
<!-- vibration&#45;&gt;err_error2 -->
<g id="edge21" class="edge">
<title>vibration&#45;&gt;err_error2</title>
<path fill="none" stroke="black" stroke-width="1.2" d="M551.14,-340.16C559.54,-343.51 568.56,-347.1 577.37,-350.61"/>
<polygon fill="black" stroke="black" stroke-width="1.2" points="576.23,-353.92 586.82,-354.37 578.82,-347.42 576.23,-353.92"/>
</g>
<!-- err_error5 -->
<g id="node9" class="node">
<title>err_error5</title>
<path fill="white" stroke="black" d="M660,-220.97C660,-220.97 599,-220.97 599,-220.97 593,-220.97 587,-214.97 587,-208.97 587,-208.97 587,-196.97 587,-196.97 587,-190.97 593,-184.97 599,-184.97 599,-184.97 660,-184.97 660,-184.97 666,-184.97 672,-190.97 672,-196.97 672,-196.97 672,-208.97 672,-208.97 672,-214.97 666,-220.97 660,-220.97"/>
<text text-anchor="middle" x="629.5" y="-199.27" font-family="Helvetica,sans-Serif" font-size="14.00">err_error5</text>
</g>
<!-- vibration&#45;&gt;err_error5 -->
<g id="edge23" class="edge">
<title>vibration&#45;&gt;err_error5</title>
<path fill="none" stroke="black" stroke-width="1.2" d="M537.15,-299.46C556.85,-278.66 584.53,-249.41 604.25,-228.59"/>
<polygon fill="black" stroke="black" stroke-width="1.2" points="534.38,-297.3 530.04,-306.97 539.46,-302.12 534.38,-297.3"/>
<polygon fill="black" stroke="black" stroke-width="1.2" points="607.05,-230.72 611.39,-221.05 601.97,-225.9 607.05,-230.72"/>
</g>
<!-- err_error2&#45;&gt;rotate -->
<g id="edge9" class="edge">
<title>err_error2&#45;&gt;rotate</title>
<path fill="none" stroke="black" stroke-width="1.2" d="M672.12,-384.26C685.13,-388.42 699.4,-392.97 712.1,-397.03"/>
<polygon fill="black" stroke="black" stroke-width="1.2" points="711.3,-400.45 721.9,-400.16 713.43,-393.78 711.3,-400.45"/>
</g>
<!-- err_error3&#45;&gt;vibration -->
<g id="edge22" class="edge">
<title>err_error3&#45;&gt;vibration</title>
<path fill="none" stroke="black" stroke-width="1.2" d="M832.23,-351.5C764.89,-345.91 632.68,-334.92 561.36,-328.99"/>
<polygon fill="black" stroke="black" stroke-width="1.2" points="561.55,-325.5 551.29,-328.16 560.97,-332.47 561.55,-325.5"/>
</g>
<!-- err_error3&#45;&gt;err_error2 -->
<g id="edge26" class="edge">
<title>err_error3&#45;&gt;err_error2</title>
<path fill="none" stroke="black" stroke-width="1.2" d="M832.18,-357.72C790.64,-360.45 726.84,-364.64 682.16,-367.58"/>
<polygon fill="black" stroke="black" stroke-width="1.2" points="681.83,-364.09 672.08,-368.24 682.29,-371.08 681.83,-364.09"/>
</g>
<!-- err_error4&#45;&gt;volt -->
<g id="edge4" class="edge">
<title>err_error4&#45;&gt;volt</title>
<path fill="none" stroke="black" stroke-width="1.2" d="M707.72,-158.65C696.16,-157.01 683.61,-155.32 672,-153.97 618.36,-147.73 604.94,-145.42 551,-142.97 368.17,-134.68 149.34,-153.05 64.29,-161.26"/>
<polygon fill="black" stroke="black" stroke-width="1.2" points="63.74,-157.8 54.12,-162.26 64.42,-164.77 63.74,-157.8"/>
</g>
<!-- err_error5&#45;&gt;err_error4 -->
<g id="edge27" class="edge">
<title>err_error5&#45;&gt;err_error4</title>
<path fill="none" stroke="black" stroke-width="1.2" d="M672.12,-189.68C680.5,-187.01 689.39,-184.17 698.06,-181.4"/>
<polygon fill="black" stroke="black" stroke-width="1.2" points="699.24,-184.7 707.7,-178.32 697.11,-178.03 699.24,-184.7"/>
</g>
<!-- mnt_comp1&#45;&gt;vibration -->
<g id="edge24" class="edge">
<title>mnt_comp1&#45;&gt;vibration</title>
<path fill="none" stroke="black" stroke-width="1.2" d="M1394.25,-470.73C1370.08,-408.89 1281.51,-210.97 1138,-210.97 874,-210.97 874,-210.97 874,-210.97 754.04,-210.97 621.63,-268.93 555.5,-302.19"/>
<polygon fill="black" stroke="black" stroke-width="1.2" points="553.55,-299.25 546.23,-306.91 556.73,-305.49 553.55,-299.25"/>
</g>
<!-- mnt_comp2&#45;&gt;fail_comp3 -->
<g id="edge34" class="edge">
<title>mnt_comp2&#45;&gt;fail_comp3</title>
<path fill="none" stroke="black" stroke-width="1.2" d="M1055.03,-454.05C1063.48,-455.29 1072.33,-456.6 1080.94,-457.86"/>
<polygon fill="black" stroke="black" stroke-width="1.2" points="1080.51,-461.34 1090.92,-459.33 1081.53,-454.41 1080.51,-461.34"/>
</g>
<!-- mnt_comp3&#45;&gt;mnt_comp1 -->
<g id="edge28" class="edge">
<title>mnt_comp3&#45;&gt;mnt_comp1</title>
<path fill="none" stroke="black" stroke-width="1.2" d="M1317.03,-488.97C1325.31,-488.97 1334,-488.97 1342.52,-488.97"/>
<polygon fill="black" stroke="black" stroke-width="1.2" points="1342.79,-492.47 1352.79,-488.97 1342.79,-485.47 1342.79,-492.47"/>
</g>
<!-- mnt_comp4 -->
<g id="node13" class="node">
<title>mnt_comp4</title>
<path fill="white" stroke="black" d="M425,-502.97C425,-502.97 351,-502.97 351,-502.97 345,-502.97 339,-496.97 339,-490.97 339,-490.97 339,-478.97 339,-478.97 339,-472.97 345,-466.97 351,-466.97 351,-466.97 425,-466.97 425,-466.97 431,-466.97 437,-472.97 437,-478.97 437,-478.97 437,-490.97 437,-490.97 437,-496.97 431,-502.97 425,-502.97"/>
<text text-anchor="middle" x="388" y="-481.27" font-family="Helvetica,sans-Serif" font-size="14.00">mnt_comp4</text>
</g>
<!-- mnt_comp4&#45;&gt;vibration -->
<g id="edge25" class="edge">
<title>mnt_comp4&#45;&gt;vibration</title>
<path fill="none" stroke="black" stroke-width="1.2" d="M402.76,-466.93C424.27,-438.72 465.97,-384.03 490.86,-351.39"/>
<polygon fill="black" stroke="black" stroke-width="1.2" points="493.83,-353.27 497.11,-343.2 488.26,-349.03 493.83,-353.27"/>
</g>
<!-- mnt_comp4&#45;&gt;mnt_comp2 -->
<g id="edge31" class="edge">
<title>mnt_comp4&#45;&gt;mnt_comp2</title>
<path fill="none" stroke="black" stroke-width="1.2" d="M437.15,-487.53C485.5,-489.87 562.14,-492.97 628.5,-492.97 628.5,-492.97 628.5,-492.97 751.5,-492.97 819.43,-492.97 895.98,-476.78 947.02,-463.61"/>
<polygon fill="black" stroke="black" stroke-width="1.2" points="948.09,-466.95 956.87,-461.03 946.31,-460.18 948.09,-466.95"/>
</g>
<!-- fail_comp1&#45;&gt;mnt_comp1 -->
<g id="edge29" class="edge">
<title>fail_comp1&#45;&gt;mnt_comp1</title>
<path fill="none" stroke="black" stroke-width="1.2" d="M921.22,-317.17C1016.49,-351.28 1237.74,-430.51 1343.15,-468.26"/>
<polygon fill="black" stroke="black" stroke-width="1.2" points="1342.08,-471.59 1352.68,-471.67 1344.44,-465 1342.08,-471.59"/>
</g>
<!-- fail_comp1&#45;&gt;mnt_comp2 -->
<g id="edge32" class="edge">
<title>fail_comp1&#45;&gt;mnt_comp2</title>
<path fill="none" stroke="black" stroke-width="1.2" d="M910.04,-319.27C913.91,-321.96 917.66,-324.87 921,-327.97 950.22,-355.1 975.3,-393.94 990.27,-419.78"/>
<polygon fill="black" stroke="black" stroke-width="1.2" points="987.33,-421.7 995.31,-428.67 993.42,-418.25 987.33,-421.7"/>
</g>
<!-- fail_comp2&#45;&gt;mnt_comp2 -->
<g id="edge33" class="edge">
<title>fail_comp2&#45;&gt;mnt_comp2</title>
<path fill="none" stroke="black" stroke-width="1.2" d="M921.12,-422.26C929.46,-424.72 938.28,-427.32 946.94,-429.87"/>
<polygon fill="black" stroke="black" stroke-width="1.2" points="946.03,-433.25 956.62,-432.72 948.01,-426.54 946.03,-433.25"/>
</g>
<!-- fail_comp3&#45;&gt;mnt_comp3 -->
<g id="edge35" class="edge">
<title>fail_comp3&#45;&gt;mnt_comp3</title>
<path fill="none" stroke="black" stroke-width="1.2" d="M1183.12,-474.02C1191.37,-475.49 1200.09,-477.04 1208.66,-478.57"/>
<polygon fill="black" stroke="black" stroke-width="1.2" points="1208.16,-482.04 1218.62,-480.35 1209.38,-475.15 1208.16,-482.04"/>
</g>
<!-- fail_comp4&#45;&gt;mnt_comp1 -->
<g id="edge30" class="edge">
<title>fail_comp4&#45;&gt;mnt_comp1</title>
<path fill="none" stroke="black" stroke-width="1.2" d="M303.05,-623.57C353.5,-632.44 437.8,-644.97 511,-644.97 511,-644.97 511,-644.97 1138,-644.97 1218.27,-644.97 1249.37,-664.2 1317,-620.97 1355.25,-596.53 1379.36,-547.75 1391.48,-516.82"/>
<polygon fill="black" stroke="black" stroke-width="1.2" points="1394.9,-517.67 1395.14,-507.08 1388.35,-515.21 1394.9,-517.67"/>
</g>
<!-- fail_comp4&#45;&gt;mnt_comp4 -->
<g id="edge36" class="edge">
<title>fail_comp4&#45;&gt;mnt_comp4</title>
<path fill="none" stroke="black" stroke-width="1.2" d="M275.94,-596.9C298.24,-574.42 336.46,-535.91 361.72,-510.45"/>
<polygon fill="black" stroke="black" stroke-width="1.2" points="364.24,-512.88 368.8,-503.32 359.27,-507.95 364.24,-512.88"/>
</g>
<!-- fail_comp4&#45;&gt;fail_comp3 -->
<g id="edge37" class="edge">
<title>fail_comp4&#45;&gt;fail_comp3</title>
<path fill="none" stroke="black" stroke-width="1.2" d="M303.23,-612.68C353.84,-610.32 438.27,-606.97 511,-606.97 511,-606.97 511,-606.97 630.5,-606.97 805.22,-606.97 1001.82,-527.86 1089.49,-488.15"/>
<polygon fill="black" stroke="black" stroke-width="1.2" points="1090.99,-491.31 1098.63,-483.97 1088.08,-484.95 1090.99,-491.31"/>
</g>
</g>
</svg>
