<?xml version="1.0" encoding="UTF-8" standalone="no"?>
<!DOCTYPE svg PUBLIC "-//W3C//DTD SVG 1.1//EN"
 "http://www.w3.org/Graphics/SVG/1.1/DTD/svg11.dtd">
<!-- Generated by graphviz version 2.50.0 (0)
 -->
<!-- Title: G Pages: 1 -->
<svg width="961pt" height="720pt"
 viewBox="0.00 0.00 961.00 720.00" xmlns="http://www.w3.org/2000/svg" xmlns:xlink="http://www.w3.org/1999/xlink">
<g id="graph0" class="graph" transform="scale(1 1) rotate(0) translate(4 716)">
<title>G</title>
<polygon fill="white" stroke="transparent" points="-4,4 -4,-716 957,-716 957,4 -4,4"/>
<text text-anchor="middle" x="476.5" y="-695.2" font-family="Times,serif" font-size="16.00">model=model4/nbcb_w_mixed.json [machine 32]</text>
<!-- volt -->
<g id="node1" class="node">
<title>volt</title>
<path fill="white" stroke="black" d="M42,-375C42,-375 12,-375 12,-375 6,-375 0,-369 0,-363 0,-363 0,-351 0,-351 0,-345 6,-339 12,-339 12,-339 42,-339 42,-339 48,-339 54,-345 54,-351 54,-351 54,-363 54,-363 54,-369 48,-375 42,-375"/>
<text text-anchor="middle" x="27" y="-353.3" font-family="Helvetica,sans-Serif" font-size="14.00">volt</text>
</g>
<!-- pressure -->
<g id="node3" class="node">
<title>pressure</title>
<path fill="white" stroke="black" d="M155,-289C155,-289 102,-289 102,-289 96,-289 90,-283 90,-277 90,-277 90,-265 90,-265 90,-259 96,-253 102,-253 102,-253 155,-253 155,-253 161,-253 167,-259 167,-265 167,-265 167,-277 167,-277 167,-283 161,-289 155,-289"/>
<text text-anchor="middle" x="128.5" y="-267.3" font-family="Helvetica,sans-Serif" font-size="14.00">pressure</text>
</g>
<!-- volt&#45;&gt;pressure -->
<g id="edge2" class="edge">
<title>volt&#45;&gt;pressure</title>
<path fill="none" stroke="black" stroke-width="1.2" d="M57.02,-331.92C70.12,-320.6 85.55,-307.26 98.63,-295.95"/>
<polygon fill="black" stroke="black" stroke-width="1.2" points="54.38,-329.57 49.1,-338.76 58.96,-334.87 54.38,-329.57"/>
<polygon fill="black" stroke="black" stroke-width="1.2" points="101.15,-298.4 106.43,-289.21 96.57,-293.1 101.15,-298.4"/>
</g>
<!-- vibration -->
<g id="node4" class="node">
<title>vibration</title>
<path fill="white" stroke="black" d="M931,-628C931,-628 877,-628 877,-628 871,-628 865,-622 865,-616 865,-616 865,-604 865,-604 865,-598 871,-592 877,-592 877,-592 931,-592 931,-592 937,-592 943,-598 943,-604 943,-604 943,-616 943,-616 943,-622 937,-628 931,-628"/>
<text text-anchor="middle" x="904" y="-606.3" font-family="Helvetica,sans-Serif" font-size="14.00">vibration</text>
</g>
<!-- volt&#45;&gt;vibration -->
<g id="edge3" class="edge">
<title>volt&#45;&gt;vibration</title>
<path fill="none" stroke="black" stroke-width="1.2" d="M30.94,-375.16C43.25,-444.13 97.18,-686 248,-686 248,-686 248,-686 637,-686 716.13,-686 803.57,-654.53 855.86,-632.09"/>
<polygon fill="black" stroke="black" stroke-width="1.2" points="857.44,-635.22 865.21,-628.01 854.64,-628.8 857.44,-635.22"/>
</g>
<!-- err_error1 -->
<g id="node5" class="node">
<title>err_error1</title>
<path fill="white" stroke="black" d="M407.5,-354C407.5,-354 346.5,-354 346.5,-354 340.5,-354 334.5,-348 334.5,-342 334.5,-342 334.5,-330 334.5,-330 334.5,-324 340.5,-318 346.5,-318 346.5,-318 407.5,-318 407.5,-318 413.5,-318 419.5,-324 419.5,-330 419.5,-330 419.5,-342 419.5,-342 419.5,-348 413.5,-354 407.5,-354"/>
<text text-anchor="middle" x="377" y="-332.3" font-family="Helvetica,sans-Serif" font-size="14.00">err_error1</text>
</g>
<!-- volt&#45;&gt;err_error1 -->
<g id="edge4" class="edge">
<title>volt&#45;&gt;err_error1</title>
<path fill="none" stroke="black" stroke-width="1.2" d="M64.34,-354.81C126.37,-351.06 252.87,-343.43 324.15,-339.13"/>
<polygon fill="black" stroke="black" stroke-width="1.2" points="63.93,-351.33 54.16,-355.42 64.35,-358.31 63.93,-351.33"/>
<polygon fill="black" stroke="black" stroke-width="1.2" points="324.49,-342.61 334.26,-338.52 324.07,-335.63 324.49,-342.61"/>
</g>
<!-- err_error2 -->
<g id="node6" class="node">
<title>err_error2</title>
<path fill="white" stroke="black" d="M800.5,-457C800.5,-457 739.5,-457 739.5,-457 733.5,-457 727.5,-451 727.5,-445 727.5,-445 727.5,-433 727.5,-433 727.5,-427 733.5,-421 739.5,-421 739.5,-421 800.5,-421 800.5,-421 806.5,-421 812.5,-427 812.5,-433 812.5,-433 812.5,-445 812.5,-445 812.5,-451 806.5,-457 800.5,-457"/>
<text text-anchor="middle" x="770" y="-435.3" font-family="Helvetica,sans-Serif" font-size="14.00">err_error2</text>
</g>
<!-- volt&#45;&gt;err_error2 -->
<g id="edge5" class="edge">
<title>volt&#45;&gt;err_error2</title>
<path fill="none" stroke="black" stroke-width="1.2" d="M40.25,-384.55C51.15,-407.05 68.64,-438.8 90,-462 177.24,-556.77 207.28,-587.14 331,-623 492.76,-669.88 675.14,-524.9 742.33,-464.31"/>
<polygon fill="black" stroke="black" stroke-width="1.2" points="43.29,-382.78 35.86,-375.23 36.96,-385.77 43.29,-382.78"/>
<polygon fill="black" stroke="black" stroke-width="1.2" points="744.92,-466.69 749.94,-457.36 740.2,-461.52 744.92,-466.69"/>
</g>
<!-- err_error5 -->
<g id="node9" class="node">
<title>err_error5</title>
<path fill="white" stroke="black" d="M407.5,-522C407.5,-522 346.5,-522 346.5,-522 340.5,-522 334.5,-516 334.5,-510 334.5,-510 334.5,-498 334.5,-498 334.5,-492 340.5,-486 346.5,-486 346.5,-486 407.5,-486 407.5,-486 413.5,-486 419.5,-492 419.5,-498 419.5,-498 419.5,-510 419.5,-510 419.5,-516 413.5,-522 407.5,-522"/>
<text text-anchor="middle" x="377" y="-500.3" font-family="Helvetica,sans-Serif" font-size="14.00">err_error5</text>
</g>
<!-- volt&#45;&gt;err_error5 -->
<g id="edge7" class="edge">
<title>volt&#45;&gt;err_error5</title>
<path fill="none" stroke="black" stroke-width="1.2" d="M54.19,-371.34C87.99,-389.53 148.88,-421.27 203,-444 243.01,-460.8 289.55,-476.75 324.27,-487.97"/>
<polygon fill="black" stroke="black" stroke-width="1.2" points="323.6,-491.43 334.19,-491.15 325.74,-484.77 323.6,-491.43"/>
</g>
<!-- fail_comp1 -->
<g id="node14" class="node">
<title>fail_comp1</title>
<path fill="white" stroke="black" d="M283,-72C283,-72 215,-72 215,-72 209,-72 203,-66 203,-60 203,-60 203,-48 203,-48 203,-42 209,-36 215,-36 215,-36 283,-36 283,-36 289,-36 295,-42 295,-48 295,-48 295,-60 295,-60 295,-66 289,-72 283,-72"/>
<text text-anchor="middle" x="249" y="-50.3" font-family="Helvetica,sans-Serif" font-size="14.00">fail_comp1</text>
</g>
<!-- volt&#45;&gt;fail_comp1 -->
<g id="edge9" class="edge">
<title>volt&#45;&gt;fail_comp1</title>
<path fill="none" stroke="black" stroke-width="1.2" d="M27.78,-338.85C28.23,-296.19 35.08,-188.29 90,-124 116.25,-93.27 158.62,-75.5 192.88,-65.56"/>
<polygon fill="black" stroke="black" stroke-width="1.2" points="194.05,-68.86 202.76,-62.84 192.19,-62.12 194.05,-68.86"/>
</g>
<!-- rotate -->
<g id="node2" class="node">
<title>rotate</title>
<path fill="white" stroke="black" d="M265.5,-400C265.5,-400 232.5,-400 232.5,-400 226.5,-400 220.5,-394 220.5,-388 220.5,-388 220.5,-376 220.5,-376 220.5,-370 226.5,-364 232.5,-364 232.5,-364 265.5,-364 265.5,-364 271.5,-364 277.5,-370 277.5,-376 277.5,-376 277.5,-388 277.5,-388 277.5,-394 271.5,-400 265.5,-400"/>
<text text-anchor="middle" x="249" y="-378.3" font-family="Helvetica,sans-Serif" font-size="14.00">rotate</text>
</g>
<!-- rotate&#45;&gt;volt -->
<g id="edge1" class="edge">
<title>rotate&#45;&gt;volt</title>
<path fill="none" stroke="black" stroke-width="1.2" d="M220.2,-378.84C180.65,-374.35 108.07,-366.1 64.3,-361.13"/>
<polygon fill="black" stroke="black" stroke-width="1.2" points="64.43,-357.62 54.1,-359.97 63.64,-364.57 64.43,-357.62"/>
</g>
<!-- rotate&#45;&gt;err_error1 -->
<g id="edge13" class="edge">
<title>rotate&#45;&gt;err_error1</title>
<path fill="none" stroke="black" stroke-width="1.2" d="M277.65,-371.91C291.33,-366.91 308.29,-360.72 324.26,-354.89"/>
<polygon fill="black" stroke="black" stroke-width="1.2" points="325.84,-358.04 334.04,-351.32 323.44,-351.46 325.84,-358.04"/>
</g>
<!-- rotate&#45;&gt;err_error2 -->
<g id="edge14" class="edge">
<title>rotate&#45;&gt;err_error2</title>
<path fill="none" stroke="black" stroke-width="1.2" d="M277.66,-387.3C293.28,-390.16 313.18,-393.59 331,-396 470.05,-414.82 635,-428.76 717.14,-435.15"/>
<polygon fill="black" stroke="black" stroke-width="1.2" points="716.97,-438.64 727.21,-435.92 717.51,-431.66 716.97,-438.64"/>
</g>
<!-- err_error4 -->
<g id="node8" class="node">
<title>err_error4</title>
<path fill="white" stroke="black" d="M407.5,-614C407.5,-614 346.5,-614 346.5,-614 340.5,-614 334.5,-608 334.5,-602 334.5,-602 334.5,-590 334.5,-590 334.5,-584 340.5,-578 346.5,-578 346.5,-578 407.5,-578 407.5,-578 413.5,-578 419.5,-584 419.5,-590 419.5,-590 419.5,-602 419.5,-602 419.5,-608 413.5,-614 407.5,-614"/>
<text text-anchor="middle" x="377" y="-592.3" font-family="Helvetica,sans-Serif" font-size="14.00">err_error4</text>
</g>
<!-- rotate&#45;&gt;err_error4 -->
<g id="edge16" class="edge">
<title>rotate&#45;&gt;err_error4</title>
<path fill="none" stroke="black" stroke-width="1.2" d="M269.38,-408.52C278.04,-421.22 287.88,-436.93 295,-452 317.33,-499.28 300.12,-521.81 331,-564 332.75,-566.39 334.74,-568.68 336.87,-570.84"/>
<polygon fill="black" stroke="black" stroke-width="1.2" points="272.2,-406.45 263.61,-400.24 266.46,-410.45 272.2,-406.45"/>
<polygon fill="black" stroke="black" stroke-width="1.2" points="334.81,-573.69 344.61,-577.72 339.46,-568.46 334.81,-573.69"/>
</g>
<!-- rotate&#45;&gt;err_error5 -->
<g id="edge17" class="edge">
<title>rotate&#45;&gt;err_error5</title>
<path fill="none" stroke="black" stroke-width="1.2" d="M277.59,-398.99C283.7,-403.45 289.88,-408.55 295,-414 315.77,-436.11 310.23,-449.89 331,-472 333.51,-474.67 336.28,-477.26 339.16,-479.73"/>
<polygon fill="black" stroke="black" stroke-width="1.2" points="337,-482.48 347,-485.97 341.35,-477 337,-482.48"/>
</g>
<!-- mnt_comp3 -->
<g id="node12" class="node">
<title>mnt_comp3</title>
<path fill="white" stroke="black" d="M941,-151C941,-151 867,-151 867,-151 861,-151 855,-145 855,-139 855,-139 855,-127 855,-127 855,-121 861,-115 867,-115 867,-115 941,-115 941,-115 947,-115 953,-121 953,-127 953,-127 953,-139 953,-139 953,-145 947,-151 941,-151"/>
<text text-anchor="middle" x="904" y="-129.3" font-family="Helvetica,sans-Serif" font-size="14.00">mnt_comp3</text>
</g>
<!-- rotate&#45;&gt;mnt_comp3 -->
<g id="edge18" class="edge">
<title>rotate&#45;&gt;mnt_comp3</title>
<path fill="none" stroke="black" stroke-width="1.2" d="M277.81,-382C324.54,-382 421.76,-382 504,-382 504,-382 504,-382 637,-382 765.46,-382 857.5,-225.31 890.07,-160.53"/>
<polygon fill="black" stroke="black" stroke-width="1.2" points="893.33,-161.83 894.61,-151.31 887.05,-158.73 893.33,-161.83"/>
</g>
<!-- fail_comp2 -->
<g id="node15" class="node">
<title>fail_comp2</title>
<path fill="white" stroke="black" d="M411,-224C411,-224 343,-224 343,-224 337,-224 331,-218 331,-212 331,-212 331,-200 331,-200 331,-194 337,-188 343,-188 343,-188 411,-188 411,-188 417,-188 423,-194 423,-200 423,-200 423,-212 423,-212 423,-218 417,-224 411,-224"/>
<text text-anchor="middle" x="377" y="-202.3" font-family="Helvetica,sans-Serif" font-size="14.00">fail_comp2</text>
</g>
<!-- rotate&#45;&gt;fail_comp2 -->
<g id="edge19" class="edge">
<title>rotate&#45;&gt;fail_comp2</title>
<path fill="none" stroke="black" stroke-width="1.2" d="M268.83,-355.7C292.61,-322.48 333.29,-265.65 357.11,-232.39"/>
<polygon fill="black" stroke="black" stroke-width="1.2" points="265.98,-353.66 263.01,-363.83 271.68,-357.73 265.98,-353.66"/>
<polygon fill="black" stroke="black" stroke-width="1.2" points="360.09,-234.24 363.06,-224.07 354.39,-230.17 360.09,-234.24"/>
</g>
<!-- pressure&#45;&gt;rotate -->
<g id="edge11" class="edge">
<title>pressure&#45;&gt;rotate</title>
<path fill="none" stroke="black" stroke-width="1.2" d="M148.8,-289.08C168.51,-307.55 199.27,-336.35 221.31,-357"/>
<polygon fill="black" stroke="black" stroke-width="1.2" points="219.01,-359.64 228.71,-363.93 223.8,-354.54 219.01,-359.64"/>
</g>
<!-- pressure&#45;&gt;err_error2 -->
<g id="edge20" class="edge">
<title>pressure&#45;&gt;err_error2</title>
<path fill="none" stroke="black" stroke-width="1.2" d="M167.18,-274.78C235.08,-281.79 375.32,-297.13 423,-309 532.5,-336.27 654.83,-387.42 720.69,-416.77"/>
<polygon fill="black" stroke="black" stroke-width="1.2" points="719.43,-420.04 729.99,-420.94 722.3,-413.65 719.43,-420.04"/>
</g>
<!-- pressure&#45;&gt;fail_comp1 -->
<g id="edge25" class="edge">
<title>pressure&#45;&gt;fail_comp1</title>
<path fill="none" stroke="black" stroke-width="1.2" d="M133.06,-252.98C140.74,-217.79 161.61,-138.74 203,-86 205.01,-83.44 207.28,-80.99 209.71,-78.67"/>
<polygon fill="black" stroke="black" stroke-width="1.2" points="212.03,-81.29 217.35,-72.13 207.48,-75.98 212.03,-81.29"/>
</g>
<!-- pressure&#45;&gt;fail_comp2 -->
<g id="edge26" class="edge">
<title>pressure&#45;&gt;fail_comp2</title>
<path fill="none" stroke="black" stroke-width="1.2" d="M165.1,-252.96C176.92,-247.52 190.31,-241.96 203,-238 241.45,-226 286.19,-217.88 320.53,-212.81"/>
<polygon fill="black" stroke="black" stroke-width="1.2" points="321.44,-216.22 330.84,-211.34 320.45,-209.29 321.44,-216.22"/>
</g>
<!-- fail_comp4 -->
<g id="node16" class="node">
<title>fail_comp4</title>
<path fill="white" stroke="black" d="M539,-178C539,-178 471,-178 471,-178 465,-178 459,-172 459,-166 459,-166 459,-154 459,-154 459,-148 465,-142 471,-142 471,-142 539,-142 539,-142 545,-142 551,-148 551,-154 551,-154 551,-166 551,-166 551,-172 545,-178 539,-178"/>
<text text-anchor="middle" x="505" y="-156.3" font-family="Helvetica,sans-Serif" font-size="14.00">fail_comp4</text>
</g>
<!-- pressure&#45;&gt;fail_comp4 -->
<g id="edge27" class="edge">
<title>pressure&#45;&gt;fail_comp4</title>
<path fill="none" stroke="black" stroke-width="1.2" d="M147.96,-252.88C162,-240.04 182.36,-223.33 203,-213 282.23,-173.37 386.14,-162.89 448.84,-160.39"/>
<polygon fill="black" stroke="black" stroke-width="1.2" points="449.04,-163.89 458.92,-160.04 448.8,-156.89 449.04,-163.89"/>
</g>
<!-- vibration&#45;&gt;rotate -->
<g id="edge12" class="edge">
<title>vibration&#45;&gt;rotate</title>
<path fill="none" stroke="black" stroke-width="1.2" d="M864.89,-609.53C827.99,-608.75 770.51,-606.64 721,-601 633.51,-591.03 399.14,-586.77 331,-531 297.34,-503.45 316.55,-477.78 295,-440 288.7,-428.95 280.48,-417.71 272.78,-408.1"/>
<polygon fill="black" stroke="black" stroke-width="1.2" points="275.28,-405.62 266.22,-400.12 269.87,-410.06 275.28,-405.62"/>
</g>
<!-- err_error3 -->
<g id="node7" class="node">
<title>err_error3</title>
<path fill="white" stroke="black" d="M535.5,-495C535.5,-495 474.5,-495 474.5,-495 468.5,-495 462.5,-489 462.5,-483 462.5,-483 462.5,-471 462.5,-471 462.5,-465 468.5,-459 474.5,-459 474.5,-459 535.5,-459 535.5,-459 541.5,-459 547.5,-465 547.5,-471 547.5,-471 547.5,-483 547.5,-483 547.5,-489 541.5,-495 535.5,-495"/>
<text text-anchor="middle" x="505" y="-473.3" font-family="Helvetica,sans-Serif" font-size="14.00">err_error3</text>
</g>
<!-- err_error3&#45;&gt;rotate -->
<g id="edge15" class="edge">
<title>err_error3&#45;&gt;rotate</title>
<path fill="none" stroke="black" stroke-width="1.2" d="M462.22,-470.57C426.39,-464.14 373.91,-452.51 331,-434 321.44,-429.88 301.99,-417.45 284.55,-405.77"/>
<polygon fill="black" stroke="black" stroke-width="1.2" points="286.45,-402.83 276.2,-400.14 282.54,-408.64 286.45,-402.83"/>
</g>
<!-- err_error3&#45;&gt;vibration -->
<g id="edge28" class="edge">
<title>err_error3&#45;&gt;vibration</title>
<path fill="none" stroke="black" stroke-width="1.2" d="M547.74,-490.98C622,-515.86 776.64,-567.67 855.11,-593.96"/>
<polygon fill="black" stroke="black" stroke-width="1.2" points="854.16,-597.33 864.75,-597.19 856.38,-590.69 854.16,-597.33"/>
</g>
<!-- err_error3&#45;&gt;err_error2 -->
<g id="edge31" class="edge">
<title>err_error3&#45;&gt;err_error2</title>
<path fill="none" stroke="black" stroke-width="1.2" d="M547.67,-470.98C593.51,-464.36 667.25,-453.7 716.88,-446.53"/>
<polygon fill="black" stroke="black" stroke-width="1.2" points="717.69,-449.95 727.09,-445.06 716.69,-443.02 717.69,-449.95"/>
</g>
<!-- err_error4&#45;&gt;volt -->
<g id="edge6" class="edge">
<title>err_error4&#45;&gt;volt</title>
<path fill="none" stroke="black" stroke-width="1.2" d="M339.71,-577.89C283.4,-548.95 172.85,-488.7 90,-422 75.41,-410.26 60.87,-395.23 49.54,-382.58"/>
<polygon fill="black" stroke="black" stroke-width="1.2" points="52.16,-380.26 42.93,-375.07 46.9,-384.89 52.16,-380.26"/>
</g>
<!-- err_error4&#45;&gt;pressure -->
<g id="edge21" class="edge">
<title>err_error4&#45;&gt;pressure</title>
<path fill="none" stroke="black" stroke-width="1.2" d="M348,-577.87C310.33,-552.18 243.41,-501.85 203,-444 170.6,-397.61 148.37,-334.7 137.4,-298.93"/>
<polygon fill="black" stroke="black" stroke-width="1.2" points="140.7,-297.75 134.48,-289.17 133.99,-299.75 140.7,-297.75"/>
</g>
<!-- err_error5&#45;&gt;pressure -->
<g id="edge22" class="edge">
<title>err_error5&#45;&gt;pressure</title>
<path fill="none" stroke="black" stroke-width="1.2" d="M349.91,-485.99C334.3,-475.53 313.88,-462.41 295,-452 255.48,-430.2 235.74,-440.07 203,-409 170.45,-378.11 149.29,-329.57 138.38,-299.05"/>
<polygon fill="black" stroke="black" stroke-width="1.2" points="141.64,-297.76 135.07,-289.45 135.02,-300.04 141.64,-297.76"/>
</g>
<!-- err_error5&#45;&gt;vibration -->
<g id="edge29" class="edge">
<title>err_error5&#45;&gt;vibration</title>
<path fill="none" stroke="black" stroke-width="1.2" d="M419.58,-513.75C483.98,-528.7 611.8,-557.77 721,-579 766.3,-587.8 818.2,-596.51 854.96,-602.44"/>
<polygon fill="black" stroke="black" stroke-width="1.2" points="854.48,-605.91 864.91,-604.04 855.59,-599 854.48,-605.91"/>
</g>
<!-- err_error5&#45;&gt;err_error2 -->
<g id="edge32" class="edge">
<title>err_error5&#45;&gt;err_error2</title>
<path fill="none" stroke="black" stroke-width="1.2" d="M419.76,-506.73C454.9,-508.37 506.41,-509.25 551,-504 611.81,-496.84 626.58,-490.35 685,-472 695.64,-468.66 706.86,-464.62 717.52,-460.53"/>
<polygon fill="black" stroke="black" stroke-width="1.2" points="719.07,-463.69 727.11,-456.79 716.52,-457.17 719.07,-463.69"/>
</g>
<!-- err_error5&#45;&gt;err_error3 -->
<g id="edge34" class="edge">
<title>err_error5&#45;&gt;err_error3</title>
<path fill="none" stroke="black" stroke-width="1.2" d="M419.61,-495.08C430.14,-492.83 441.59,-490.37 452.55,-488.03"/>
<polygon fill="black" stroke="black" stroke-width="1.2" points="453.39,-491.42 462.44,-485.91 451.93,-484.58 453.39,-491.42"/>
</g>
<!-- mnt_comp1 -->
<g id="node10" class="node">
<title>mnt_comp1</title>
<path fill="white" stroke="black" d="M673,-48C673,-48 599,-48 599,-48 593,-48 587,-42 587,-36 587,-36 587,-24 587,-24 587,-18 593,-12 599,-12 599,-12 673,-12 673,-12 679,-12 685,-18 685,-24 685,-24 685,-36 685,-36 685,-42 679,-48 673,-48"/>
<text text-anchor="middle" x="636" y="-26.3" font-family="Helvetica,sans-Serif" font-size="14.00">mnt_comp1</text>
</g>
<!-- mnt_comp1&#45;&gt;volt -->
<g id="edge8" class="edge">
<title>mnt_comp1&#45;&gt;volt</title>
<path fill="none" stroke="black" stroke-width="1.2" d="M586.88,-21C535.39,-12.16 451.22,0 378,0 248,0 248,0 248,0 170.83,0 138.45,-11.93 90,-72 58.07,-111.59 38.08,-264.53 30.94,-328.56"/>
<polygon fill="black" stroke="black" stroke-width="1.2" points="27.44,-328.42 29.84,-338.74 34.4,-329.17 27.44,-328.42"/>
</g>
<!-- mnt_comp1&#45;&gt;mnt_comp3 -->
<g id="edge35" class="edge">
<title>mnt_comp1&#45;&gt;mnt_comp3</title>
<path fill="none" stroke="black" stroke-width="1.2" d="M685.05,-31.62C722.98,-34.47 776.43,-42.07 819,-62 842.18,-72.85 864.12,-91.81 879.76,-107.41"/>
<polygon fill="black" stroke="black" stroke-width="1.2" points="877.42,-110.03 886.91,-114.74 882.44,-105.14 877.42,-110.03"/>
</g>
<!-- mnt_comp2 -->
<g id="node11" class="node">
<title>mnt_comp2</title>
<path fill="white" stroke="black" d="M807,-247C807,-247 733,-247 733,-247 727,-247 721,-241 721,-235 721,-235 721,-223 721,-223 721,-217 727,-211 733,-211 733,-211 807,-211 807,-211 813,-211 819,-217 819,-223 819,-223 819,-235 819,-235 819,-241 813,-247 807,-247"/>
<text text-anchor="middle" x="770" y="-225.3" font-family="Helvetica,sans-Serif" font-size="14.00">mnt_comp2</text>
</g>
<!-- mnt_comp2&#45;&gt;vibration -->
<g id="edge30" class="edge">
<title>mnt_comp2&#45;&gt;vibration</title>
<path fill="none" stroke="black" stroke-width="1.2" d="M777.28,-247.12C798.52,-308.42 867.77,-508.3 893.37,-582.2"/>
<polygon fill="black" stroke="black" stroke-width="1.2" points="890.1,-583.47 896.68,-591.77 896.72,-581.17 890.1,-583.47"/>
</g>
<!-- mnt_comp2&#45;&gt;mnt_comp3 -->
<g id="edge38" class="edge">
<title>mnt_comp2&#45;&gt;mnt_comp3</title>
<path fill="none" stroke="black" stroke-width="1.2" d="M795.83,-210.94C816.71,-195.75 846.76,-173.9 869.72,-157.2"/>
<polygon fill="black" stroke="black" stroke-width="1.2" points="871.81,-160.01 877.83,-151.3 867.69,-154.35 871.81,-160.01"/>
</g>
<!-- mnt_comp3&#45;&gt;pressure -->
<g id="edge23" class="edge">
<title>mnt_comp3&#45;&gt;pressure</title>
<path fill="none" stroke="black" stroke-width="1.2" d="M854.54,-127.45C801.28,-121.85 713.16,-114 637,-114 504,-114 504,-114 504,-114 367.32,-114 319.04,-104.78 203,-177 176.8,-193.31 156.21,-222.46 143.56,-243.99"/>
<polygon fill="black" stroke="black" stroke-width="1.2" points="140.36,-242.56 138.48,-252.98 146.45,-246 140.36,-242.56"/>
</g>
<!-- mnt_comp4 -->
<g id="node13" class="node">
<title>mnt_comp4</title>
<path fill="white" stroke="black" d="M673,-270C673,-270 599,-270 599,-270 593,-270 587,-264 587,-258 587,-258 587,-246 587,-246 587,-240 593,-234 599,-234 599,-234 673,-234 673,-234 679,-234 685,-240 685,-246 685,-246 685,-258 685,-258 685,-264 679,-270 673,-270"/>
<text text-anchor="middle" x="636" y="-248.3" font-family="Helvetica,sans-Serif" font-size="14.00">mnt_comp4</text>
</g>
<!-- mnt_comp4&#45;&gt;pressure -->
<g id="edge24" class="edge">
<title>mnt_comp4&#45;&gt;pressure</title>
<path fill="none" stroke="black" stroke-width="1.2" d="M586.64,-253.82C489.83,-257.46 273.29,-265.6 177.1,-269.21"/>
<polygon fill="black" stroke="black" stroke-width="1.2" points="176.94,-265.71 167.08,-269.59 177.21,-272.71 176.94,-265.71"/>
</g>
<!-- mnt_comp4&#45;&gt;err_error2 -->
<g id="edge33" class="edge">
<title>mnt_comp4&#45;&gt;err_error2</title>
<path fill="none" stroke="black" stroke-width="1.2" d="M669.21,-270.29C674.87,-274.35 680.41,-278.97 685,-284 720.15,-322.52 745.72,-378.42 758.89,-411.51"/>
<polygon fill="black" stroke="black" stroke-width="1.2" points="755.7,-412.94 762.58,-421 762.22,-410.41 755.7,-412.94"/>
</g>
<!-- mnt_comp4&#45;&gt;mnt_comp2 -->
<g id="edge39" class="edge">
<title>mnt_comp4&#45;&gt;mnt_comp2</title>
<path fill="none" stroke="black" stroke-width="1.2" d="M685.03,-243.63C693.4,-242.17 702.19,-240.64 710.8,-239.14"/>
<polygon fill="black" stroke="black" stroke-width="1.2" points="711.54,-242.57 720.79,-237.4 710.33,-235.67 711.54,-242.57"/>
</g>
<!-- fail_comp1&#45;&gt;mnt_comp1 -->
<g id="edge36" class="edge">
<title>fail_comp1&#45;&gt;mnt_comp1</title>
<path fill="none" stroke="black" stroke-width="1.2" d="M295.3,-51.18C365.3,-46.81 499.73,-38.43 576.83,-33.63"/>
<polygon fill="black" stroke="black" stroke-width="1.2" points="577.1,-37.12 586.86,-33 576.66,-30.13 577.1,-37.12"/>
</g>
<!-- fail_comp1&#45;&gt;mnt_comp3 -->
<g id="edge41" class="edge">
<title>fail_comp1&#45;&gt;mnt_comp3</title>
<path fill="none" stroke="black" stroke-width="1.2" d="M295.32,-60.3C346.05,-66.81 430.75,-76 504,-76 504,-76 504,-76 637,-76 718.59,-76 740,-79.6 819,-100 830.26,-102.91 842.06,-106.91 853.13,-111.12"/>
<polygon fill="black" stroke="black" stroke-width="1.2" points="852.06,-114.45 862.65,-114.85 854.61,-107.94 852.06,-114.45"/>
</g>
<!-- fail_comp2&#45;&gt;volt -->
<g id="edge10" class="edge">
<title>fail_comp2&#45;&gt;volt</title>
<path fill="none" stroke="black" stroke-width="1.2" d="M330.98,-198.93C269.67,-191.93 159.58,-189.06 90,-244 62.4,-265.79 45.32,-303.41 36.25,-329.21"/>
<polygon fill="black" stroke="black" stroke-width="1.2" points="32.9,-328.2 33.05,-338.8 39.54,-330.42 32.9,-328.2"/>
</g>
<!-- fail_comp2&#45;&gt;mnt_comp2 -->
<g id="edge40" class="edge">
<title>fail_comp2&#45;&gt;mnt_comp2</title>
<path fill="none" stroke="black" stroke-width="1.2" d="M423.23,-208.66C494.32,-212.84 632.15,-220.95 710.62,-225.57"/>
<polygon fill="black" stroke="black" stroke-width="1.2" points="710.63,-229.07 720.82,-226.17 711.04,-222.08 710.63,-229.07"/>
</g>
<!-- fail_comp2&#45;&gt;fail_comp4 -->
<g id="edge44" class="edge">
<title>fail_comp2&#45;&gt;fail_comp4</title>
<path fill="none" stroke="black" stroke-width="1.2" d="M423.13,-189.52C431.55,-186.45 440.42,-183.21 449.09,-180.04"/>
<polygon fill="black" stroke="black" stroke-width="1.2" points="450.57,-183.23 458.76,-176.52 448.16,-176.66 450.57,-183.23"/>
</g>
<!-- fail_comp4&#45;&gt;mnt_comp1 -->
<g id="edge37" class="edge">
<title>fail_comp4&#45;&gt;mnt_comp1</title>
<path fill="none" stroke="black" stroke-width="1.2" d="M523.94,-141.92C546.24,-119.45 584.46,-80.94 609.72,-55.47"/>
<polygon fill="black" stroke="black" stroke-width="1.2" points="612.24,-57.91 616.8,-48.34 607.27,-52.97 612.24,-57.91"/>
</g>
<!-- fail_comp4&#45;&gt;mnt_comp3 -->
<g id="edge42" class="edge">
<title>fail_comp4&#45;&gt;mnt_comp3</title>
<path fill="none" stroke="black" stroke-width="1.2" d="M551.15,-156.93C623.31,-152.02 764.6,-142.41 844.43,-136.98"/>
<polygon fill="black" stroke="black" stroke-width="1.2" points="845.06,-140.45 854.8,-136.28 844.59,-133.46 845.06,-140.45"/>
</g>
<!-- fail_comp4&#45;&gt;mnt_comp4 -->
<g id="edge43" class="edge">
<title>fail_comp4&#45;&gt;mnt_comp4</title>
<path fill="none" stroke="black" stroke-width="1.2" d="M531.49,-178.18C551.45,-192.42 579.41,-212.35 601.23,-227.92"/>
<polygon fill="black" stroke="black" stroke-width="1.2" points="599.39,-230.9 609.57,-233.86 603.46,-225.21 599.39,-230.9"/>
</g>
</g>
</svg>
