<?xml version="1.0" encoding="UTF-8" standalone="no"?>
<!DOCTYPE svg PUBLIC "-//W3C//DTD SVG 1.1//EN"
 "http://www.w3.org/Graphics/SVG/1.1/DTD/svg11.dtd">
<!-- Generated by graphviz version 2.50.0 (0)
 -->
<!-- Title: G Pages: 1 -->
<svg width="1167pt" height="710pt"
 viewBox="0.00 0.00 1167.00 710.24" xmlns="http://www.w3.org/2000/svg" xmlns:xlink="http://www.w3.org/1999/xlink">
<g id="graph0" class="graph" transform="scale(1 1) rotate(0) translate(4 706.24)">
<title>G</title>
<polygon fill="white" stroke="transparent" points="-4,4 -4,-706.24 1163,-706.24 1163,4 -4,4"/>
<text text-anchor="middle" x="579.5" y="-685.44" font-family="Times,serif" font-size="16.00">model=model3/nbcb_w_mixed.json [machine 3]</text>
<!-- volt -->
<g id="node1" class="node">
<title>volt</title>
<path fill="white" stroke="black" d="M42,-488.24C42,-488.24 12,-488.24 12,-488.24 6,-488.24 0,-482.24 0,-476.24 0,-476.24 0,-464.24 0,-464.24 0,-458.24 6,-452.24 12,-452.24 12,-452.24 42,-452.24 42,-452.24 48,-452.24 54,-458.24 54,-464.24 54,-464.24 54,-476.24 54,-476.24 54,-482.24 48,-488.24 42,-488.24"/>
<text text-anchor="middle" x="27" y="-466.54" font-family="Helvetica,sans-Serif" font-size="14.00">volt</text>
</g>
<!-- err_error1 -->
<g id="node5" class="node">
<title>err_error1</title>
<path fill="white" stroke="black" d="M166.5,-416.24C166.5,-416.24 105.5,-416.24 105.5,-416.24 99.5,-416.24 93.5,-410.24 93.5,-404.24 93.5,-404.24 93.5,-392.24 93.5,-392.24 93.5,-386.24 99.5,-380.24 105.5,-380.24 105.5,-380.24 166.5,-380.24 166.5,-380.24 172.5,-380.24 178.5,-386.24 178.5,-392.24 178.5,-392.24 178.5,-404.24 178.5,-404.24 178.5,-410.24 172.5,-416.24 166.5,-416.24"/>
<text text-anchor="middle" x="136" y="-394.54" font-family="Helvetica,sans-Serif" font-size="14.00">err_error1</text>
</g>
<!-- volt&#45;&gt;err_error1 -->
<g id="edge1" class="edge">
<title>volt&#45;&gt;err_error1</title>
<path fill="none" stroke="black" stroke-width="1.2" d="M54.18,-452.63C67.83,-443.44 84.73,-432.07 99.54,-422.1"/>
<polygon fill="black" stroke="black" stroke-width="1.2" points="101.64,-424.91 107.98,-416.42 97.73,-419.1 101.64,-424.91"/>
</g>
<!-- err_error2 -->
<g id="node6" class="node">
<title>err_error2</title>
<path fill="white" stroke="black" d="M384,-534.24C384,-534.24 323,-534.24 323,-534.24 317,-534.24 311,-528.24 311,-522.24 311,-522.24 311,-510.24 311,-510.24 311,-504.24 317,-498.24 323,-498.24 323,-498.24 384,-498.24 384,-498.24 390,-498.24 396,-504.24 396,-510.24 396,-510.24 396,-522.24 396,-522.24 396,-528.24 390,-534.24 384,-534.24"/>
<text text-anchor="middle" x="353.5" y="-512.54" font-family="Helvetica,sans-Serif" font-size="14.00">err_error2</text>
</g>
<!-- volt&#45;&gt;err_error2 -->
<g id="edge2" class="edge">
<title>volt&#45;&gt;err_error2</title>
<path fill="none" stroke="black" stroke-width="1.2" d="M64.11,-479.04C72.57,-480.92 81.57,-482.78 90,-484.24 162.73,-496.85 247.65,-506.24 300.75,-511.49"/>
<polygon fill="black" stroke="black" stroke-width="1.2" points="64.66,-475.57 54.13,-476.75 63.1,-482.4 64.66,-475.57"/>
<polygon fill="black" stroke="black" stroke-width="1.2" points="300.65,-514.99 310.94,-512.48 301.32,-508.03 300.65,-514.99"/>
</g>
<!-- err_error3 -->
<g id="node7" class="node">
<title>err_error3</title>
<path fill="white" stroke="black" d="M624.5,-593.24C624.5,-593.24 563.5,-593.24 563.5,-593.24 557.5,-593.24 551.5,-587.24 551.5,-581.24 551.5,-581.24 551.5,-569.24 551.5,-569.24 551.5,-563.24 557.5,-557.24 563.5,-557.24 563.5,-557.24 624.5,-557.24 624.5,-557.24 630.5,-557.24 636.5,-563.24 636.5,-569.24 636.5,-569.24 636.5,-581.24 636.5,-581.24 636.5,-587.24 630.5,-593.24 624.5,-593.24"/>
<text text-anchor="middle" x="594" y="-571.54" font-family="Helvetica,sans-Serif" font-size="14.00">err_error3</text>
</g>
<!-- volt&#45;&gt;err_error3 -->
<g id="edge3" class="edge">
<title>volt&#45;&gt;err_error3</title>
<path fill="none" stroke="black" stroke-width="1.2" d="M34.64,-488.46C43.83,-511.34 62.47,-550.49 90,-574.24 146.59,-623.06 170.76,-638.24 245.5,-638.24 245.5,-638.24 245.5,-638.24 354.5,-638.24 420.81,-638.24 494.15,-615.19 541.77,-596.98"/>
<polygon fill="black" stroke="black" stroke-width="1.2" points="543.18,-600.18 551.23,-593.29 540.64,-593.66 543.18,-600.18"/>
</g>
<!-- err_error4 -->
<g id="node8" class="node">
<title>err_error4</title>
<path fill="white" stroke="black" d="M1006.5,-380.24C1006.5,-380.24 945.5,-380.24 945.5,-380.24 939.5,-380.24 933.5,-374.24 933.5,-368.24 933.5,-368.24 933.5,-356.24 933.5,-356.24 933.5,-350.24 939.5,-344.24 945.5,-344.24 945.5,-344.24 1006.5,-344.24 1006.5,-344.24 1012.5,-344.24 1018.5,-350.24 1018.5,-356.24 1018.5,-356.24 1018.5,-368.24 1018.5,-368.24 1018.5,-374.24 1012.5,-380.24 1006.5,-380.24"/>
<text text-anchor="middle" x="976" y="-358.54" font-family="Helvetica,sans-Serif" font-size="14.00">err_error4</text>
</g>
<!-- volt&#45;&gt;err_error4 -->
<g id="edge4" class="edge">
<title>volt&#45;&gt;err_error4</title>
<path fill="none" stroke="black" stroke-width="1.2" d="M54.32,-467.24C183.19,-452.54 748.53,-388.07 923.32,-368.13"/>
<polygon fill="black" stroke="black" stroke-width="1.2" points="923.76,-371.61 933.3,-367 922.97,-364.65 923.76,-371.61"/>
</g>
<!-- err_error5 -->
<g id="node9" class="node">
<title>err_error5</title>
<path fill="white" stroke="black" d="M624.5,-501.24C624.5,-501.24 563.5,-501.24 563.5,-501.24 557.5,-501.24 551.5,-495.24 551.5,-489.24 551.5,-489.24 551.5,-477.24 551.5,-477.24 551.5,-471.24 557.5,-465.24 563.5,-465.24 563.5,-465.24 624.5,-465.24 624.5,-465.24 630.5,-465.24 636.5,-471.24 636.5,-477.24 636.5,-477.24 636.5,-489.24 636.5,-489.24 636.5,-495.24 630.5,-501.24 624.5,-501.24"/>
<text text-anchor="middle" x="594" y="-479.54" font-family="Helvetica,sans-Serif" font-size="14.00">err_error5</text>
</g>
<!-- volt&#45;&gt;err_error5 -->
<g id="edge5" class="edge">
<title>volt&#45;&gt;err_error5</title>
<path fill="none" stroke="black" stroke-width="1.2" d="M44.03,-488.32C77.59,-524.04 159.28,-600.24 245.5,-600.24 245.5,-600.24 245.5,-600.24 354.5,-600.24 437.73,-600.24 522.14,-542.1 564.7,-507.79"/>
<polygon fill="black" stroke="black" stroke-width="1.2" points="567.14,-510.32 572.64,-501.27 562.69,-504.91 567.14,-510.32"/>
</g>
<!-- mnt_comp2 -->
<g id="node11" class="node">
<title>mnt_comp2</title>
<path fill="white" stroke="black" d="M1147,-258.24C1147,-258.24 1073,-258.24 1073,-258.24 1067,-258.24 1061,-252.24 1061,-246.24 1061,-246.24 1061,-234.24 1061,-234.24 1061,-228.24 1067,-222.24 1073,-222.24 1073,-222.24 1147,-222.24 1147,-222.24 1153,-222.24 1159,-228.24 1159,-234.24 1159,-234.24 1159,-246.24 1159,-246.24 1159,-252.24 1153,-258.24 1147,-258.24"/>
<text text-anchor="middle" x="1110" y="-236.54" font-family="Helvetica,sans-Serif" font-size="14.00">mnt_comp2</text>
</g>
<!-- volt&#45;&gt;mnt_comp2 -->
<g id="edge6" class="edge">
<title>volt&#45;&gt;mnt_comp2</title>
<path fill="none" stroke="black" stroke-width="1.2" d="M33.15,-498.73C40.44,-531.25 56.74,-584.08 90,-616.24 143.25,-667.74 171.42,-676.24 245.5,-676.24 245.5,-676.24 245.5,-676.24 853,-676.24 1042.75,-676.24 1094.58,-365.36 1106.12,-268.62"/>
<polygon fill="black" stroke="black" stroke-width="1.2" points="36.49,-497.61 31.02,-488.54 29.64,-499.04 36.49,-497.61"/>
<polygon fill="black" stroke="black" stroke-width="1.2" points="1109.62,-268.75 1107.28,-258.42 1102.67,-267.96 1109.62,-268.75"/>
</g>
<!-- mnt_comp3 -->
<g id="node12" class="node">
<title>mnt_comp3</title>
<path fill="white" stroke="black" d="M1013,-105.24C1013,-105.24 939,-105.24 939,-105.24 933,-105.24 927,-99.24 927,-93.24 927,-93.24 927,-81.24 927,-81.24 927,-75.24 933,-69.24 939,-69.24 939,-69.24 1013,-69.24 1013,-69.24 1019,-69.24 1025,-75.24 1025,-81.24 1025,-81.24 1025,-93.24 1025,-93.24 1025,-99.24 1019,-105.24 1013,-105.24"/>
<text text-anchor="middle" x="976" y="-83.54" font-family="Helvetica,sans-Serif" font-size="14.00">mnt_comp3</text>
</g>
<!-- volt&#45;&gt;mnt_comp3 -->
<g id="edge7" class="edge">
<title>volt&#45;&gt;mnt_comp3</title>
<path fill="none" stroke="black" stroke-width="1.2" d="M28.46,-441.82C30.38,-357.62 40.22,-111.62 90,-52.24 136.82,3.61 172.63,-0.24 245.5,-0.24 245.5,-0.24 245.5,-0.24 729,-0.24 805.87,-0.24 888.92,-38.46 936.18,-64.24"/>
<polygon fill="black" stroke="black" stroke-width="1.2" points="24.96,-441.86 28.25,-451.93 31.95,-442.01 24.96,-441.86"/>
<polygon fill="black" stroke="black" stroke-width="1.2" points="934.7,-67.42 945.14,-69.21 938.1,-61.3 934.7,-67.42"/>
</g>
<!-- mnt_comp4 -->
<g id="node13" class="node">
<title>mnt_comp4</title>
<path fill="white" stroke="black" d="M765,-214.24C765,-214.24 691,-214.24 691,-214.24 685,-214.24 679,-208.24 679,-202.24 679,-202.24 679,-190.24 679,-190.24 679,-184.24 685,-178.24 691,-178.24 691,-178.24 765,-178.24 765,-178.24 771,-178.24 777,-184.24 777,-190.24 777,-190.24 777,-202.24 777,-202.24 777,-208.24 771,-214.24 765,-214.24"/>
<text text-anchor="middle" x="728" y="-192.54" font-family="Helvetica,sans-Serif" font-size="14.00">mnt_comp4</text>
</g>
<!-- volt&#45;&gt;mnt_comp4 -->
<g id="edge8" class="edge">
<title>volt&#45;&gt;mnt_comp4</title>
<path fill="none" stroke="black" stroke-width="1.2" d="M28.97,-442.12C33.93,-346.27 63.98,-38.24 245.5,-38.24 245.5,-38.24 245.5,-38.24 354.5,-38.24 490.02,-38.24 632.84,-127.97 694.99,-172.19"/>
<polygon fill="black" stroke="black" stroke-width="1.2" points="25.47,-442.08 28.51,-452.23 32.47,-442.4 25.47,-442.08"/>
<polygon fill="black" stroke="black" stroke-width="1.2" points="693.05,-175.11 703.21,-178.12 697.14,-169.43 693.05,-175.11"/>
</g>
<!-- fail_comp1 -->
<g id="node14" class="node">
<title>fail_comp1</title>
<path fill="white" stroke="black" d="M170,-336.24C170,-336.24 102,-336.24 102,-336.24 96,-336.24 90,-330.24 90,-324.24 90,-324.24 90,-312.24 90,-312.24 90,-306.24 96,-300.24 102,-300.24 102,-300.24 170,-300.24 170,-300.24 176,-300.24 182,-306.24 182,-312.24 182,-312.24 182,-324.24 182,-324.24 182,-330.24 176,-336.24 170,-336.24"/>
<text text-anchor="middle" x="136" y="-314.54" font-family="Helvetica,sans-Serif" font-size="14.00">fail_comp1</text>
</g>
<!-- volt&#45;&gt;fail_comp1 -->
<g id="edge9" class="edge">
<title>volt&#45;&gt;fail_comp1</title>
<path fill="none" stroke="black" stroke-width="1.2" d="M43.33,-443.49C55.3,-423.17 72.76,-394.8 90,-371.24 96.7,-362.09 104.54,-352.51 111.79,-344.06"/>
<polygon fill="black" stroke="black" stroke-width="1.2" points="40.25,-441.81 38.23,-452.21 46.3,-445.34 40.25,-441.81"/>
<polygon fill="black" stroke="black" stroke-width="1.2" points="114.57,-346.19 118.5,-336.35 109.29,-341.6 114.57,-346.19"/>
</g>
<!-- rotate -->
<g id="node2" class="node">
<title>rotate</title>
<path fill="white" stroke="black" d="M263,-336.24C263,-336.24 230,-336.24 230,-336.24 224,-336.24 218,-330.24 218,-324.24 218,-324.24 218,-312.24 218,-312.24 218,-306.24 224,-300.24 230,-300.24 230,-300.24 263,-300.24 263,-300.24 269,-300.24 275,-306.24 275,-312.24 275,-312.24 275,-324.24 275,-324.24 275,-330.24 269,-336.24 263,-336.24"/>
<text text-anchor="middle" x="246.5" y="-314.54" font-family="Helvetica,sans-Serif" font-size="14.00">rotate</text>
</g>
<!-- rotate&#45;&gt;err_error2 -->
<g id="edge13" class="edge">
<title>rotate&#45;&gt;err_error2</title>
<path fill="none" stroke="black" stroke-width="1.2" d="M260.31,-345.54C272.75,-371.66 292.41,-412.03 311,-446.24 318.82,-460.62 328.06,-476.33 335.84,-489.21"/>
<polygon fill="black" stroke="black" stroke-width="1.2" points="263.36,-343.8 255.92,-336.26 257.04,-346.8 263.36,-343.8"/>
<polygon fill="black" stroke="black" stroke-width="1.2" points="333.01,-491.31 341.2,-498.03 339,-487.67 333.01,-491.31"/>
</g>
<!-- rotate&#45;&gt;err_error3 -->
<g id="edge14" class="edge">
<title>rotate&#45;&gt;err_error3</title>
<path fill="none" stroke="black" stroke-width="1.2" d="M258.1,-336.25C269.74,-355.26 289.65,-385.53 311,-408.24 358.22,-458.45 372.89,-469.78 432,-505.24 463.93,-524.39 474.85,-523.4 509,-538.24 519.96,-543 531.71,-548.15 542.84,-553.05"/>
<polygon fill="black" stroke="black" stroke-width="1.2" points="541.46,-556.26 552.02,-557.09 544.28,-549.86 541.46,-556.26"/>
</g>
<!-- rotate&#45;&gt;err_error4 -->
<g id="edge15" class="edge">
<title>rotate&#45;&gt;err_error4</title>
<path fill="none" stroke="black" stroke-width="1.2" d="M285.27,-320.52C406.14,-327.83 783.61,-350.67 922.79,-359.08"/>
<polygon fill="black" stroke="black" stroke-width="1.2" points="285.32,-317.02 275.13,-319.91 284.9,-324.01 285.32,-317.02"/>
<polygon fill="black" stroke="black" stroke-width="1.2" points="922.98,-362.6 933.17,-359.71 923.4,-355.61 922.98,-362.6"/>
</g>
<!-- rotate&#45;&gt;err_error5 -->
<g id="edge16" class="edge">
<title>rotate&#45;&gt;err_error5</title>
<path fill="none" stroke="black" stroke-width="1.2" d="M284.99,-329.26C315.47,-338.72 359.28,-353.45 396,-370.24 454.1,-396.8 517.56,-435 556.33,-459.47"/>
<polygon fill="black" stroke="black" stroke-width="1.2" points="285.78,-325.84 275.19,-326.26 283.73,-332.54 285.78,-325.84"/>
<polygon fill="black" stroke="black" stroke-width="1.2" points="554.84,-462.67 565.16,-465.08 558.59,-456.76 554.84,-462.67"/>
</g>
<!-- mnt_comp1 -->
<g id="node10" class="node">
<title>mnt_comp1</title>
<path fill="white" stroke="black" d="M631,-252.24C631,-252.24 557,-252.24 557,-252.24 551,-252.24 545,-246.24 545,-240.24 545,-240.24 545,-228.24 545,-228.24 545,-222.24 551,-216.24 557,-216.24 557,-216.24 631,-216.24 631,-216.24 637,-216.24 643,-222.24 643,-228.24 643,-228.24 643,-240.24 643,-240.24 643,-246.24 637,-252.24 631,-252.24"/>
<text text-anchor="middle" x="594" y="-230.54" font-family="Helvetica,sans-Serif" font-size="14.00">mnt_comp1</text>
</g>
<!-- rotate&#45;&gt;mnt_comp1 -->
<g id="edge17" class="edge">
<title>rotate&#45;&gt;mnt_comp1</title>
<path fill="none" stroke="black" stroke-width="1.2" d="M263.99,-300.16C275.85,-288.4 292.89,-273.89 311,-266.24 383.69,-235.55 475.78,-230.73 534.56,-231.43"/>
<polygon fill="black" stroke="black" stroke-width="1.2" points="534.72,-234.93 544.78,-231.61 534.84,-227.93 534.72,-234.93"/>
</g>
<!-- fail_comp2 -->
<g id="node15" class="node">
<title>fail_comp2</title>
<path fill="white" stroke="black" d="M1010,-170.24C1010,-170.24 942,-170.24 942,-170.24 936,-170.24 930,-164.24 930,-158.24 930,-158.24 930,-146.24 930,-146.24 930,-140.24 936,-134.24 942,-134.24 942,-134.24 1010,-134.24 1010,-134.24 1016,-134.24 1022,-140.24 1022,-146.24 1022,-146.24 1022,-158.24 1022,-158.24 1022,-164.24 1016,-170.24 1010,-170.24"/>
<text text-anchor="middle" x="976" y="-148.54" font-family="Helvetica,sans-Serif" font-size="14.00">fail_comp2</text>
</g>
<!-- rotate&#45;&gt;fail_comp2 -->
<g id="edge21" class="edge">
<title>rotate&#45;&gt;fail_comp2</title>
<path fill="none" stroke="black" stroke-width="1.2" d="M265.75,-291.51C268.95,-286.51 272.16,-281.27 275,-276.24 293.17,-244.04 281.33,-223.31 311,-201.24 406.46,-130.24 777.73,-141.74 919.53,-148.97"/>
<polygon fill="black" stroke="black" stroke-width="1.2" points="262.63,-289.88 260.08,-300.17 268.49,-293.72 262.63,-289.88"/>
<polygon fill="black" stroke="black" stroke-width="1.2" points="919.56,-152.48 929.73,-149.5 919.93,-145.49 919.56,-152.48"/>
</g>
<!-- pressure -->
<g id="node3" class="node">
<title>pressure</title>
<path fill="white" stroke="black" d="M497,-496.24C497,-496.24 444,-496.24 444,-496.24 438,-496.24 432,-490.24 432,-484.24 432,-484.24 432,-472.24 432,-472.24 432,-466.24 438,-460.24 444,-460.24 444,-460.24 497,-460.24 497,-460.24 503,-460.24 509,-466.24 509,-472.24 509,-472.24 509,-484.24 509,-484.24 509,-490.24 503,-496.24 497,-496.24"/>
<text text-anchor="middle" x="470.5" y="-474.54" font-family="Helvetica,sans-Serif" font-size="14.00">pressure</text>
</g>
<!-- pressure&#45;&gt;rotate -->
<g id="edge10" class="edge">
<title>pressure&#45;&gt;rotate</title>
<path fill="none" stroke="black" stroke-width="1.2" d="M449.32,-460.19C434.95,-447.74 414.91,-431.16 396,-418.24 360.18,-393.77 346.8,-394.74 311,-370.24 298.91,-361.97 286.29,-351.95 275.52,-342.93"/>
<polygon fill="black" stroke="black" stroke-width="1.2" points="277.56,-340.08 267.68,-336.27 273.03,-345.41 277.56,-340.08"/>
</g>
<!-- pressure&#45;&gt;err_error3 -->
<g id="edge23" class="edge">
<title>pressure&#45;&gt;err_error3</title>
<path fill="none" stroke="black" stroke-width="1.2" d="M493.03,-496.39C498.29,-500.88 503.87,-505.7 509,-510.24 525.26,-524.62 527.92,-529.85 545,-543.24 548.51,-545.99 552.25,-548.75 556.03,-551.44"/>
<polygon fill="black" stroke="black" stroke-width="1.2" points="554.1,-554.36 564.32,-557.16 558.08,-548.6 554.1,-554.36"/>
</g>
<!-- pressure&#45;&gt;err_error5 -->
<g id="edge25" class="edge">
<title>pressure&#45;&gt;err_error5</title>
<path fill="none" stroke="black" stroke-width="1.2" d="M509.28,-479.79C519.41,-480.21 530.55,-480.67 541.3,-481.11"/>
<polygon fill="black" stroke="black" stroke-width="1.2" points="541.31,-484.62 551.44,-481.53 541.59,-477.62 541.31,-484.62"/>
</g>
<!-- pressure&#45;&gt;mnt_comp1 -->
<g id="edge26" class="edge">
<title>pressure&#45;&gt;mnt_comp1</title>
<path fill="none" stroke="black" stroke-width="1.2" d="M480.63,-459.9C501.84,-417.32 554.5,-311.56 579.46,-261.43"/>
<polygon fill="black" stroke="black" stroke-width="1.2" points="582.6,-262.97 583.93,-252.46 576.34,-259.85 582.6,-262.97"/>
</g>
<!-- vibration -->
<g id="node4" class="node">
<title>vibration</title>
<path fill="white" stroke="black" d="M879,-258.24C879,-258.24 825,-258.24 825,-258.24 819,-258.24 813,-252.24 813,-246.24 813,-246.24 813,-234.24 813,-234.24 813,-228.24 819,-222.24 825,-222.24 825,-222.24 879,-222.24 879,-222.24 885,-222.24 891,-228.24 891,-234.24 891,-234.24 891,-246.24 891,-246.24 891,-252.24 885,-258.24 879,-258.24"/>
<text text-anchor="middle" x="852" y="-236.54" font-family="Helvetica,sans-Serif" font-size="14.00">vibration</text>
</g>
<!-- vibration&#45;&gt;rotate -->
<g id="edge11" class="edge">
<title>vibration&#45;&gt;rotate</title>
<path fill="none" stroke="black" stroke-width="1.2" d="M812.91,-244.26C706.64,-255.54 408.27,-287.79 311,-304.24 302.61,-305.66 293.66,-307.45 285.2,-309.28"/>
<polygon fill="black" stroke="black" stroke-width="1.2" points="284.2,-305.92 275.2,-311.51 285.72,-312.75 284.2,-305.92"/>
</g>
<!-- vibration&#45;&gt;err_error4 -->
<g id="edge29" class="edge">
<title>vibration&#45;&gt;err_error4</title>
<path fill="none" stroke="black" stroke-width="1.2" d="M871,-258.24C891.82,-279.06 926.22,-313.46 949.71,-336.95"/>
<polygon fill="black" stroke="black" stroke-width="1.2" points="947.38,-339.57 956.92,-344.16 952.33,-334.62 947.38,-339.57"/>
</g>
<!-- vibration&#45;&gt;mnt_comp2 -->
<g id="edge30" class="edge">
<title>vibration&#45;&gt;mnt_comp2</title>
<path fill="none" stroke="black" stroke-width="1.2" d="M891.05,-240.24C933.18,-240.24 1001.6,-240.24 1050.55,-240.24"/>
<polygon fill="black" stroke="black" stroke-width="1.2" points="1050.68,-243.74 1060.68,-240.24 1050.68,-236.74 1050.68,-243.74"/>
</g>
<!-- vibration&#45;&gt;mnt_comp3 -->
<g id="edge31" class="edge">
<title>vibration&#45;&gt;mnt_comp3</title>
<path fill="none" stroke="black" stroke-width="1.2" d="M862.16,-222.23C874.76,-198.46 899.09,-156.02 927,-125.24 931.22,-120.59 936.04,-116.06 940.97,-111.85"/>
<polygon fill="black" stroke="black" stroke-width="1.2" points="943.2,-114.55 948.73,-105.51 938.77,-109.13 943.2,-114.55"/>
</g>
<!-- vibration&#45;&gt;fail_comp2 -->
<g id="edge33" class="edge">
<title>vibration&#45;&gt;fail_comp2</title>
<path fill="none" stroke="black" stroke-width="1.2" d="M877.98,-222.22C896.28,-209.02 921.32,-190.96 941.38,-176.49"/>
<polygon fill="black" stroke="black" stroke-width="1.2" points="943.57,-179.23 949.63,-170.54 939.47,-173.55 943.57,-179.23"/>
</g>
<!-- err_error1&#45;&gt;rotate -->
<g id="edge12" class="edge">
<title>err_error1&#45;&gt;rotate</title>
<path fill="none" stroke="black" stroke-width="1.2" d="M161.62,-380.09C176.74,-368.94 196.29,-354.52 212.71,-342.41"/>
<polygon fill="black" stroke="black" stroke-width="1.2" points="215.01,-345.07 220.98,-336.32 210.85,-339.44 215.01,-345.07"/>
</g>
<!-- err_error2&#45;&gt;pressure -->
<g id="edge22" class="edge">
<title>err_error2&#45;&gt;pressure</title>
<path fill="none" stroke="black" stroke-width="1.2" d="M396.02,-502.52C404.53,-499.71 413.54,-496.73 422.23,-493.86"/>
<polygon fill="black" stroke="black" stroke-width="1.2" points="423.47,-497.14 431.86,-490.68 421.27,-490.49 423.47,-497.14"/>
</g>
<!-- err_error2&#45;&gt;vibration -->
<g id="edge28" class="edge">
<title>err_error2&#45;&gt;vibration</title>
<path fill="none" stroke="black" stroke-width="1.2" d="M373.58,-498.07C388.69,-484.24 410.73,-465.24 432,-451.24 559.15,-367.54 723.98,-293.59 803.69,-259.76"/>
<polygon fill="black" stroke="black" stroke-width="1.2" points="805.13,-262.95 812.98,-255.84 802.41,-256.51 805.13,-262.95"/>
</g>
<!-- err_error3&#45;&gt;err_error2 -->
<g id="edge34" class="edge">
<title>err_error3&#45;&gt;err_error2</title>
<path fill="none" stroke="black" stroke-width="1.2" d="M551.5,-566.31C518.9,-559.15 472.42,-548.61 432,-538.24 423.54,-536.07 414.59,-533.64 405.89,-531.22"/>
<polygon fill="black" stroke="black" stroke-width="1.2" points="406.8,-527.84 396.22,-528.5 404.9,-534.58 406.8,-527.84"/>
</g>
<!-- err_error4&#45;&gt;pressure -->
<g id="edge24" class="edge">
<title>err_error4&#45;&gt;pressure</title>
<path fill="none" stroke="black" stroke-width="1.2" d="M951.79,-380.46C935.67,-392.11 913.17,-406.46 891,-414.24 744.84,-465.54 696.64,-424.58 545,-456.24 536.57,-458 527.7,-460.28 519.16,-462.69"/>
<polygon fill="black" stroke="black" stroke-width="1.2" points="517.94,-459.4 509.33,-465.58 519.91,-466.12 517.94,-459.4"/>
</g>
<!-- err_error4&#45;&gt;mnt_comp4 -->
<g id="edge35" class="edge">
<title>err_error4&#45;&gt;mnt_comp4</title>
<path fill="none" stroke="black" stroke-width="1.2" d="M940.44,-344.22C906.9,-326.22 855.04,-297.01 813,-267.24 793.23,-253.24 772.42,-235.68 756.46,-221.52"/>
<polygon fill="black" stroke="black" stroke-width="1.2" points="758.37,-218.53 748.59,-214.47 753.7,-223.75 758.37,-218.53"/>
</g>
<!-- mnt_comp1&#45;&gt;mnt_comp2 -->
<g id="edge36" class="edge">
<title>mnt_comp1&#45;&gt;mnt_comp2</title>
<path fill="none" stroke="black" stroke-width="1.2" d="M643.25,-243.68C687.27,-251.77 754.22,-262.82 813,-267.24 907.13,-274.32 931.41,-266.56 1025,-254.24 1033.32,-253.14 1042.09,-251.85 1050.69,-250.49"/>
<polygon fill="black" stroke="black" stroke-width="1.2" points="1051.35,-253.93 1060.67,-248.88 1050.24,-247.02 1051.35,-253.93"/>
</g>
<!-- mnt_comp1&#45;&gt;mnt_comp4 -->
<g id="edge38" class="edge">
<title>mnt_comp1&#45;&gt;mnt_comp4</title>
<path fill="none" stroke="black" stroke-width="1.2" d="M643.03,-220.41C651.49,-217.98 660.38,-215.42 669.08,-212.91"/>
<polygon fill="black" stroke="black" stroke-width="1.2" points="670.14,-216.25 678.79,-210.12 668.21,-209.52 670.14,-216.25"/>
</g>
<!-- mnt_comp2&#45;&gt;pressure -->
<g id="edge27" class="edge">
<title>mnt_comp2&#45;&gt;pressure</title>
<path fill="none" stroke="black" stroke-width="1.2" d="M1103.11,-258.32C1081.26,-321.59 998.45,-529.24 853,-529.24 727,-529.24 727,-529.24 727,-529.24 645.67,-529.24 623.65,-530.94 545,-510.24 535.51,-507.74 525.67,-504.19 516.4,-500.36"/>
<polygon fill="black" stroke="black" stroke-width="1.2" points="517.54,-497.04 506.98,-496.3 514.77,-503.47 517.54,-497.04"/>
</g>
<!-- mnt_comp3&#45;&gt;rotate -->
<g id="edge18" class="edge">
<title>mnt_comp3&#45;&gt;rotate</title>
<path fill="none" stroke="black" stroke-width="1.2" d="M926.83,-76.83C807.09,-53.96 492.57,-12.81 311,-165.24 271.28,-198.59 297.4,-229.47 275,-276.24 272.55,-281.35 269.58,-286.57 266.5,-291.52"/>
<polygon fill="black" stroke="black" stroke-width="1.2" points="263.46,-289.76 260.93,-300.05 269.33,-293.59 263.46,-289.76"/>
</g>
<!-- mnt_comp3&#45;&gt;mnt_comp1 -->
<g id="edge37" class="edge">
<title>mnt_comp3&#45;&gt;mnt_comp1</title>
<path fill="none" stroke="black" stroke-width="1.2" d="M926.86,-93.7C866.12,-103.35 759.81,-125.31 679,-169.24 658.72,-180.27 638.19,-196.05 622.5,-209.3"/>
<polygon fill="black" stroke="black" stroke-width="1.2" points="620.06,-206.79 614.77,-215.96 624.63,-212.09 620.06,-206.79"/>
</g>
<!-- mnt_comp3&#45;&gt;mnt_comp2 -->
<g id="edge40" class="edge">
<title>mnt_comp3&#45;&gt;mnt_comp2</title>
<path fill="none" stroke="black" stroke-width="1.2" d="M1002.51,-105.37C1010.12,-111.3 1018.22,-118.19 1025,-125.24 1051.45,-152.73 1076.53,-188.86 1092.28,-213.22"/>
<polygon fill="black" stroke="black" stroke-width="1.2" points="1089.52,-215.4 1097.85,-221.95 1095.42,-211.63 1089.52,-215.4"/>
</g>
<!-- mnt_comp3&#45;&gt;mnt_comp4 -->
<g id="edge43" class="edge">
<title>mnt_comp3&#45;&gt;mnt_comp4</title>
<path fill="none" stroke="black" stroke-width="1.2" d="M934,-105.41C891.49,-124.24 824.98,-153.71 779.31,-173.95"/>
<polygon fill="black" stroke="black" stroke-width="1.2" points="777.62,-170.87 769.9,-178.12 780.46,-177.27 777.62,-170.87"/>
</g>
<!-- mnt_comp4&#45;&gt;rotate -->
<g id="edge19" class="edge">
<title>mnt_comp4&#45;&gt;rotate</title>
<path fill="none" stroke="black" stroke-width="1.2" d="M678.69,-189.2C597.07,-179.76 429.24,-171.2 311,-238.24 299.46,-244.78 279.72,-271.01 265.3,-291.67"/>
<polygon fill="black" stroke="black" stroke-width="1.2" points="262.28,-289.89 259.49,-300.11 268.04,-293.86 262.28,-289.89"/>
</g>
<!-- mnt_comp4&#45;&gt;vibration -->
<g id="edge32" class="edge">
<title>mnt_comp4&#45;&gt;vibration</title>
<path fill="none" stroke="black" stroke-width="1.2" d="M777.22,-213.63C785.83,-216.74 794.8,-219.97 803.4,-223.07"/>
<polygon fill="black" stroke="black" stroke-width="1.2" points="802.31,-226.4 812.91,-226.5 804.69,-219.82 802.31,-226.4"/>
</g>
<!-- mnt_comp4&#45;&gt;mnt_comp2 -->
<g id="edge41" class="edge">
<title>mnt_comp4&#45;&gt;mnt_comp2</title>
<path fill="none" stroke="black" stroke-width="1.2" d="M777.23,-201.06C809.46,-204.34 852.79,-208.87 891,-213.24 945.31,-219.45 1007.14,-227.17 1051.05,-232.76"/>
<polygon fill="black" stroke="black" stroke-width="1.2" points="1050.61,-236.24 1060.97,-234.03 1051.5,-229.29 1050.61,-236.24"/>
</g>
<!-- fail_comp1&#45;&gt;rotate -->
<g id="edge20" class="edge">
<title>fail_comp1&#45;&gt;rotate</title>
<path fill="none" stroke="black" stroke-width="1.2" d="M182.07,-318.24C190.59,-318.24 199.41,-318.24 207.68,-318.24"/>
<polygon fill="black" stroke="black" stroke-width="1.2" points="207.78,-321.74 217.78,-318.24 207.78,-314.74 207.78,-321.74"/>
</g>
<!-- fail_comp1&#45;&gt;mnt_comp1 -->
<g id="edge39" class="edge">
<title>fail_comp1&#45;&gt;mnt_comp1</title>
<path fill="none" stroke="black" stroke-width="1.2" d="M167.52,-300.21C201.34,-281.2 258.1,-252.13 311,-238.24 386.39,-218.45 477.07,-221.73 534.86,-227.03"/>
<polygon fill="black" stroke="black" stroke-width="1.2" points="534.62,-230.53 544.91,-228.01 535.29,-223.56 534.62,-230.53"/>
</g>
<!-- fail_comp2&#45;&gt;mnt_comp2 -->
<g id="edge42" class="edge">
<title>fail_comp2&#45;&gt;mnt_comp2</title>
<path fill="none" stroke="black" stroke-width="1.2" d="M1004.03,-170.26C1024.01,-183.58 1051.4,-201.84 1073.2,-216.37"/>
<polygon fill="black" stroke="black" stroke-width="1.2" points="1071.29,-219.31 1081.55,-221.94 1075.17,-213.48 1071.29,-219.31"/>
</g>
</g>
</svg>
