<?xml version="1.0" encoding="UTF-8" standalone="no"?>
<!DOCTYPE svg PUBLIC "-//W3C//DTD SVG 1.1//EN"
 "http://www.w3.org/Graphics/SVG/1.1/DTD/svg11.dtd">
<!-- Generated by graphviz version 2.50.0 (0)
 -->
<!-- Title: G Pages: 1 -->
<svg width="793pt" height="522pt"
 viewBox="0.00 0.00 793.00 522.17" xmlns="http://www.w3.org/2000/svg" xmlns:xlink="http://www.w3.org/1999/xlink">
<g id="graph0" class="graph" transform="scale(1 1) rotate(0) translate(4 518.17)">
<title>G</title>
<polygon fill="white" stroke="transparent" points="-4,4 -4,-518.17 789,-518.17 789,4 -4,4"/>
<text text-anchor="middle" x="392.5" y="-497.37" font-family="Times,serif" font-size="16.00">model=model4/pcmci_mixed.json [machine 62]</text>
<!-- volt -->
<g id="node1" class="node">
<title>volt</title>
<path fill="white" stroke="black" d="M525,-114.17C525,-114.17 495,-114.17 495,-114.17 489,-114.17 483,-108.17 483,-102.17 483,-102.17 483,-90.17 483,-90.17 483,-84.17 489,-78.17 495,-78.17 495,-78.17 525,-78.17 525,-78.17 531,-78.17 537,-84.17 537,-90.17 537,-90.17 537,-102.17 537,-102.17 537,-108.17 531,-114.17 525,-114.17"/>
<text text-anchor="middle" x="510" y="-92.47" font-family="Helvetica,sans-Serif" font-size="14.00">volt</text>
</g>
<!-- pressure -->
<g id="node3" class="node">
<title>pressure</title>
<path fill="white" stroke="black" d="M648.5,-114.17C648.5,-114.17 595.5,-114.17 595.5,-114.17 589.5,-114.17 583.5,-108.17 583.5,-102.17 583.5,-102.17 583.5,-90.17 583.5,-90.17 583.5,-84.17 589.5,-78.17 595.5,-78.17 595.5,-78.17 648.5,-78.17 648.5,-78.17 654.5,-78.17 660.5,-84.17 660.5,-90.17 660.5,-90.17 660.5,-102.17 660.5,-102.17 660.5,-108.17 654.5,-114.17 648.5,-114.17"/>
<text text-anchor="middle" x="622" y="-92.47" font-family="Helvetica,sans-Serif" font-size="14.00">pressure</text>
</g>
<!-- volt&#45;&gt;pressure -->
<g id="edge2" class="edge">
<title>volt&#45;&gt;pressure</title>
<path fill="none" stroke="black" stroke-width="1.2" d="M537.07,-96.17C547.89,-96.17 560.8,-96.17 573.21,-96.17"/>
<polygon fill="black" stroke="black" stroke-width="1.2" points="573.46,-99.67 583.46,-96.17 573.46,-92.67 573.46,-99.67"/>
</g>
<!-- vibration -->
<g id="node4" class="node">
<title>vibration</title>
<path fill="white" stroke="black" d="M773,-91.17C773,-91.17 719,-91.17 719,-91.17 713,-91.17 707,-85.17 707,-79.17 707,-79.17 707,-67.17 707,-67.17 707,-61.17 713,-55.17 719,-55.17 719,-55.17 773,-55.17 773,-55.17 779,-55.17 785,-61.17 785,-67.17 785,-67.17 785,-79.17 785,-79.17 785,-85.17 779,-91.17 773,-91.17"/>
<text text-anchor="middle" x="746" y="-69.47" font-family="Helvetica,sans-Serif" font-size="14.00">vibration</text>
</g>
<!-- volt&#45;&gt;vibration -->
<g id="edge3" class="edge">
<title>volt&#45;&gt;vibration</title>
<path fill="none" stroke="black" stroke-width="1.2" d="M537.06,-81.98C547.85,-76.87 560.7,-71.73 573,-69.17 614.08,-60.61 661.86,-62.65 696.62,-66.23"/>
<polygon fill="black" stroke="black" stroke-width="1.2" points="696.65,-69.76 706.97,-67.38 697.42,-62.8 696.65,-69.76"/>
</g>
<!-- err_error3 -->
<g id="node7" class="node">
<title>err_error3</title>
<path fill="white" stroke="black" d="M652.5,-222.17C652.5,-222.17 591.5,-222.17 591.5,-222.17 585.5,-222.17 579.5,-216.17 579.5,-210.17 579.5,-210.17 579.5,-198.17 579.5,-198.17 579.5,-192.17 585.5,-186.17 591.5,-186.17 591.5,-186.17 652.5,-186.17 652.5,-186.17 658.5,-186.17 664.5,-192.17 664.5,-198.17 664.5,-198.17 664.5,-210.17 664.5,-210.17 664.5,-216.17 658.5,-222.17 652.5,-222.17"/>
<text text-anchor="middle" x="622" y="-200.47" font-family="Helvetica,sans-Serif" font-size="14.00">err_error3</text>
</g>
<!-- volt&#45;&gt;err_error3 -->
<g id="edge5" class="edge">
<title>volt&#45;&gt;err_error3</title>
<path fill="none" stroke="black" stroke-width="1.2" d="M521.8,-114.29C532.97,-131.93 551.74,-158.71 573,-177.17 574.13,-178.15 575.3,-179.11 576.5,-180.05"/>
<polygon fill="black" stroke="black" stroke-width="1.2" points="574.61,-183 584.79,-185.95 578.67,-177.3 574.61,-183"/>
</g>
<!-- mnt_comp2 -->
<g id="node11" class="node">
<title>mnt_comp2</title>
<path fill="white" stroke="black" d="M659,-168.17C659,-168.17 585,-168.17 585,-168.17 579,-168.17 573,-162.17 573,-156.17 573,-156.17 573,-144.17 573,-144.17 573,-138.17 579,-132.17 585,-132.17 585,-132.17 659,-132.17 659,-132.17 665,-132.17 671,-138.17 671,-144.17 671,-144.17 671,-156.17 671,-156.17 671,-162.17 665,-168.17 659,-168.17"/>
<text text-anchor="middle" x="622" y="-146.47" font-family="Helvetica,sans-Serif" font-size="14.00">mnt_comp2</text>
</g>
<!-- volt&#45;&gt;mnt_comp2 -->
<g id="edge6" class="edge">
<title>volt&#45;&gt;mnt_comp2</title>
<path fill="none" stroke="black" stroke-width="1.2" d="M537.07,-108.97C548.42,-114.54 562.07,-121.24 575.02,-127.6"/>
<polygon fill="black" stroke="black" stroke-width="1.2" points="573.78,-130.89 584.3,-132.15 576.86,-124.6 573.78,-130.89"/>
</g>
<!-- rotate -->
<g id="node2" class="node">
<title>rotate</title>
<path fill="white" stroke="black" d="M307,-114.17C307,-114.17 274,-114.17 274,-114.17 268,-114.17 262,-108.17 262,-102.17 262,-102.17 262,-90.17 262,-90.17 262,-84.17 268,-78.17 274,-78.17 274,-78.17 307,-78.17 307,-78.17 313,-78.17 319,-84.17 319,-90.17 319,-90.17 319,-102.17 319,-102.17 319,-108.17 313,-114.17 307,-114.17"/>
<text text-anchor="middle" x="290.5" y="-92.47" font-family="Helvetica,sans-Serif" font-size="14.00">rotate</text>
</g>
<!-- rotate&#45;&gt;volt -->
<g id="edge1" class="edge">
<title>rotate&#45;&gt;volt</title>
<path fill="none" stroke="black" stroke-width="1.2" d="M319.05,-96.17C358.01,-96.17 429.3,-96.17 472.59,-96.17"/>
<polygon fill="black" stroke="black" stroke-width="1.2" points="472.7,-99.67 482.7,-96.17 472.7,-92.67 472.7,-99.67"/>
</g>
<!-- rotate&#45;&gt;vibration -->
<g id="edge7" class="edge">
<title>rotate&#45;&gt;vibration</title>
<path fill="none" stroke="black" stroke-width="1.2" d="M301.08,-78.1C311.62,-60.36 330.39,-34.38 355,-23.17 469.68,29.07 621.77,-20.03 697.68,-51.48"/>
<polygon fill="black" stroke="black" stroke-width="1.2" points="696.42,-54.75 706.99,-55.41 699.14,-48.3 696.42,-54.75"/>
</g>
<!-- err_error1 -->
<g id="node5" class="node">
<title>err_error1</title>
<path fill="white" stroke="black" d="M431.5,-68.17C431.5,-68.17 370.5,-68.17 370.5,-68.17 364.5,-68.17 358.5,-62.17 358.5,-56.17 358.5,-56.17 358.5,-44.17 358.5,-44.17 358.5,-38.17 364.5,-32.17 370.5,-32.17 370.5,-32.17 431.5,-32.17 431.5,-32.17 437.5,-32.17 443.5,-38.17 443.5,-44.17 443.5,-44.17 443.5,-56.17 443.5,-56.17 443.5,-62.17 437.5,-68.17 431.5,-68.17"/>
<text text-anchor="middle" x="401" y="-46.47" font-family="Helvetica,sans-Serif" font-size="14.00">err_error1</text>
</g>
<!-- rotate&#45;&gt;err_error1 -->
<g id="edge8" class="edge">
<title>rotate&#45;&gt;err_error1</title>
<path fill="none" stroke="black" stroke-width="1.2" d="M319.16,-84.44C328.29,-80.57 338.76,-76.13 349.07,-71.76"/>
<polygon fill="black" stroke="black" stroke-width="1.2" points="350.61,-74.91 358.45,-67.79 347.88,-68.47 350.61,-74.91"/>
</g>
<!-- fail_comp2 -->
<g id="node15" class="node">
<title>fail_comp2</title>
<path fill="white" stroke="black" d="M435,-160.17C435,-160.17 367,-160.17 367,-160.17 361,-160.17 355,-154.17 355,-148.17 355,-148.17 355,-136.17 355,-136.17 355,-130.17 361,-124.17 367,-124.17 367,-124.17 435,-124.17 435,-124.17 441,-124.17 447,-130.17 447,-136.17 447,-136.17 447,-148.17 447,-148.17 447,-154.17 441,-160.17 435,-160.17"/>
<text text-anchor="middle" x="401" y="-138.47" font-family="Helvetica,sans-Serif" font-size="14.00">fail_comp2</text>
</g>
<!-- rotate&#45;&gt;fail_comp2 -->
<g id="edge9" class="edge">
<title>rotate&#45;&gt;fail_comp2</title>
<path fill="none" stroke="black" stroke-width="1.2" d="M319.16,-107.9C327.91,-111.61 337.9,-115.84 347.79,-120.03"/>
<polygon fill="black" stroke="black" stroke-width="1.2" points="346.63,-123.34 357.2,-124.02 349.36,-116.9 346.63,-123.34"/>
</g>
<!-- pressure&#45;&gt;vibration -->
<g id="edge11" class="edge">
<title>pressure&#45;&gt;vibration</title>
<path fill="none" stroke="black" stroke-width="1.2" d="M660.6,-89.08C672.09,-86.92 684.88,-84.5 696.96,-82.23"/>
<polygon fill="black" stroke="black" stroke-width="1.2" points="697.72,-85.65 706.89,-80.35 696.42,-78.77 697.72,-85.65"/>
</g>
<!-- err_error1&#45;&gt;volt -->
<g id="edge4" class="edge">
<title>err_error1&#45;&gt;volt</title>
<path fill="none" stroke="black" stroke-width="1.2" d="M443.68,-68.09C453.53,-72.32 463.96,-76.81 473.51,-80.91"/>
<polygon fill="black" stroke="black" stroke-width="1.2" points="472.15,-84.14 482.72,-84.87 474.92,-77.71 472.15,-84.14"/>
</g>
<!-- err_error1&#45;&gt;vibration -->
<g id="edge12" class="edge">
<title>err_error1&#45;&gt;vibration</title>
<path fill="none" stroke="black" stroke-width="1.2" d="M443.62,-49.59C496.6,-49.3 590.88,-50.3 671,-59.17 679.41,-60.1 688.29,-61.45 696.87,-62.96"/>
<polygon fill="black" stroke="black" stroke-width="1.2" points="696.29,-66.41 706.76,-64.78 697.56,-59.53 696.29,-66.41"/>
</g>
<!-- err_error2 -->
<g id="node6" class="node">
<title>err_error2</title>
<path fill="white" stroke="black" d="M79.5,-272.17C79.5,-272.17 18.5,-272.17 18.5,-272.17 12.5,-272.17 6.5,-266.17 6.5,-260.17 6.5,-260.17 6.5,-248.17 6.5,-248.17 6.5,-242.17 12.5,-236.17 18.5,-236.17 18.5,-236.17 79.5,-236.17 79.5,-236.17 85.5,-236.17 91.5,-242.17 91.5,-248.17 91.5,-248.17 91.5,-260.17 91.5,-260.17 91.5,-266.17 85.5,-272.17 79.5,-272.17"/>
<text text-anchor="middle" x="49" y="-250.47" font-family="Helvetica,sans-Serif" font-size="14.00">err_error2</text>
</g>
<!-- err_error4 -->
<g id="node8" class="node">
<title>err_error4</title>
<path fill="white" stroke="black" d="M79.5,-326.17C79.5,-326.17 18.5,-326.17 18.5,-326.17 12.5,-326.17 6.5,-320.17 6.5,-314.17 6.5,-314.17 6.5,-302.17 6.5,-302.17 6.5,-296.17 12.5,-290.17 18.5,-290.17 18.5,-290.17 79.5,-290.17 79.5,-290.17 85.5,-290.17 91.5,-296.17 91.5,-302.17 91.5,-302.17 91.5,-314.17 91.5,-314.17 91.5,-320.17 85.5,-326.17 79.5,-326.17"/>
<text text-anchor="middle" x="49" y="-304.47" font-family="Helvetica,sans-Serif" font-size="14.00">err_error4</text>
</g>
<!-- err_error5 -->
<g id="node9" class="node">
<title>err_error5</title>
<path fill="white" stroke="black" d="M652.5,-276.17C652.5,-276.17 591.5,-276.17 591.5,-276.17 585.5,-276.17 579.5,-270.17 579.5,-264.17 579.5,-264.17 579.5,-252.17 579.5,-252.17 579.5,-246.17 585.5,-240.17 591.5,-240.17 591.5,-240.17 652.5,-240.17 652.5,-240.17 658.5,-240.17 664.5,-246.17 664.5,-252.17 664.5,-252.17 664.5,-264.17 664.5,-264.17 664.5,-270.17 658.5,-276.17 652.5,-276.17"/>
<text text-anchor="middle" x="622" y="-254.47" font-family="Helvetica,sans-Serif" font-size="14.00">err_error5</text>
</g>
<!-- err_error5&#45;&gt;vibration -->
<g id="edge13" class="edge">
<title>err_error5&#45;&gt;vibration</title>
<path fill="none" stroke="black" stroke-width="1.2" d="M660.87,-239.98C664.54,-237.33 668.01,-234.39 671,-231.17 706.3,-193.15 727.49,-135.27 737.65,-101.14"/>
<polygon fill="black" stroke="black" stroke-width="1.2" points="741.06,-101.93 740.45,-91.35 734.33,-100 741.06,-101.93"/>
</g>
<!-- mnt_comp1 -->
<g id="node10" class="node">
<title>mnt_comp1</title>
<path fill="white" stroke="black" d="M86,-380.17C86,-380.17 12,-380.17 12,-380.17 6,-380.17 0,-374.17 0,-368.17 0,-368.17 0,-356.17 0,-356.17 0,-350.17 6,-344.17 12,-344.17 12,-344.17 86,-344.17 86,-344.17 92,-344.17 98,-350.17 98,-356.17 98,-356.17 98,-368.17 98,-368.17 98,-374.17 92,-380.17 86,-380.17"/>
<text text-anchor="middle" x="49" y="-358.47" font-family="Helvetica,sans-Serif" font-size="14.00">mnt_comp1</text>
</g>
<!-- mnt_comp3 -->
<g id="node12" class="node">
<title>mnt_comp3</title>
<path fill="white" stroke="black" d="M86,-434.17C86,-434.17 12,-434.17 12,-434.17 6,-434.17 0,-428.17 0,-422.17 0,-422.17 0,-410.17 0,-410.17 0,-404.17 6,-398.17 12,-398.17 12,-398.17 86,-398.17 86,-398.17 92,-398.17 98,-404.17 98,-410.17 98,-410.17 98,-422.17 98,-422.17 98,-428.17 92,-434.17 86,-434.17"/>
<text text-anchor="middle" x="49" y="-412.47" font-family="Helvetica,sans-Serif" font-size="14.00">mnt_comp3</text>
</g>
<!-- mnt_comp4 -->
<g id="node13" class="node">
<title>mnt_comp4</title>
<path fill="white" stroke="black" d="M86,-218.17C86,-218.17 12,-218.17 12,-218.17 6,-218.17 0,-212.17 0,-206.17 0,-206.17 0,-194.17 0,-194.17 0,-188.17 6,-182.17 12,-182.17 12,-182.17 86,-182.17 86,-182.17 92,-182.17 98,-188.17 98,-194.17 98,-194.17 98,-206.17 98,-206.17 98,-212.17 92,-218.17 86,-218.17"/>
<text text-anchor="middle" x="49" y="-196.47" font-family="Helvetica,sans-Serif" font-size="14.00">mnt_comp4</text>
</g>
<!-- fail_comp4 -->
<g id="node16" class="node">
<title>fail_comp4</title>
<path fill="white" stroke="black" d="M214,-218.17C214,-218.17 146,-218.17 146,-218.17 140,-218.17 134,-212.17 134,-206.17 134,-206.17 134,-194.17 134,-194.17 134,-188.17 140,-182.17 146,-182.17 146,-182.17 214,-182.17 214,-182.17 220,-182.17 226,-188.17 226,-194.17 226,-194.17 226,-206.17 226,-206.17 226,-212.17 220,-218.17 214,-218.17"/>
<text text-anchor="middle" x="180" y="-196.47" font-family="Helvetica,sans-Serif" font-size="14.00">fail_comp4</text>
</g>
<!-- mnt_comp4&#45;&gt;fail_comp4 -->
<g id="edge15" class="edge">
<title>mnt_comp4&#45;&gt;fail_comp4</title>
<path fill="none" stroke="black" stroke-width="1.2" d="M98.03,-200.17C106.39,-200.17 115.13,-200.17 123.66,-200.17"/>
<polygon fill="black" stroke="black" stroke-width="1.2" points="123.92,-203.67 133.92,-200.17 123.92,-196.67 123.92,-203.67"/>
</g>
<!-- fail_comp1 -->
<g id="node14" class="node">
<title>fail_comp1</title>
<path fill="white" stroke="black" d="M83,-488.17C83,-488.17 15,-488.17 15,-488.17 9,-488.17 3,-482.17 3,-476.17 3,-476.17 3,-464.17 3,-464.17 3,-458.17 9,-452.17 15,-452.17 15,-452.17 83,-452.17 83,-452.17 89,-452.17 95,-458.17 95,-464.17 95,-464.17 95,-476.17 95,-476.17 95,-482.17 89,-488.17 83,-488.17"/>
<text text-anchor="middle" x="49" y="-466.47" font-family="Helvetica,sans-Serif" font-size="14.00">fail_comp1</text>
</g>
<!-- fail_comp4&#45;&gt;rotate -->
<g id="edge10" class="edge">
<title>fail_comp4&#45;&gt;rotate</title>
<path fill="none" stroke="black" stroke-width="1.2" d="M199.9,-182.05C217.37,-165.31 243.51,-140.25 263.06,-121.52"/>
<polygon fill="black" stroke="black" stroke-width="1.2" points="265.66,-123.87 270.45,-114.43 260.81,-118.82 265.66,-123.87"/>
</g>
<!-- fail_comp4&#45;&gt;vibration -->
<g id="edge14" class="edge">
<title>fail_comp4&#45;&gt;vibration</title>
<path fill="none" stroke="black" stroke-width="1.2" d="M202.4,-218.29C239.85,-248.08 320.87,-304.17 400,-304.17 400,-304.17 400,-304.17 511,-304.17 582.61,-304.17 615.16,-330.01 671,-285.17 727.7,-239.64 741.06,-147.89 744.14,-101.46"/>
<polygon fill="black" stroke="black" stroke-width="1.2" points="747.64,-101.39 744.69,-91.22 740.66,-101.01 747.64,-101.39"/>
</g>
</g>
</svg>
