<?xml version="1.0" encoding="UTF-8" standalone="no"?>
<!DOCTYPE svg PUBLIC "-//W3C//DTD SVG 1.1//EN"
 "http://www.w3.org/Graphics/SVG/1.1/DTD/svg11.dtd">
<!-- Generated by graphviz version 2.50.0 (0)
 -->
<!-- Title: G Pages: 1 -->
<svg width="585pt" height="455pt"
 viewBox="0.00 0.00 585.00 455.00" xmlns="http://www.w3.org/2000/svg" xmlns:xlink="http://www.w3.org/1999/xlink">
<g id="graph0" class="graph" transform="scale(1 1) rotate(0) translate(4 451)">
<title>G</title>
<polygon fill="white" stroke="transparent" points="-4,4 -4,-451 581,-451 581,4 -4,4"/>
<text text-anchor="middle" x="288.5" y="-430.2" font-family="Times,serif" font-size="16.00">model=model3/pcmci_mixed.json [machine 6]</text>
<!-- volt -->
<g id="node1" class="node">
<title>volt</title>
<path fill="white" stroke="black" d="M565,-132C565,-132 535,-132 535,-132 529,-132 523,-126 523,-120 523,-120 523,-108 523,-108 523,-102 529,-96 535,-96 535,-96 565,-96 565,-96 571,-96 577,-102 577,-108 577,-108 577,-120 577,-120 577,-126 571,-132 565,-132"/>
<text text-anchor="middle" x="550" y="-110.3" font-family="Helvetica,sans-Serif" font-size="14.00">volt</text>
</g>
<!-- rotate -->
<g id="node2" class="node">
<title>rotate</title>
<path fill="white" stroke="black" d="M199.5,-174C199.5,-174 166.5,-174 166.5,-174 160.5,-174 154.5,-168 154.5,-162 154.5,-162 154.5,-150 154.5,-150 154.5,-144 160.5,-138 166.5,-138 166.5,-138 199.5,-138 199.5,-138 205.5,-138 211.5,-144 211.5,-150 211.5,-150 211.5,-162 211.5,-162 211.5,-168 205.5,-174 199.5,-174"/>
<text text-anchor="middle" x="183" y="-152.3" font-family="Helvetica,sans-Serif" font-size="14.00">rotate</text>
</g>
<!-- vibration -->
<g id="node4" class="node">
<title>vibration</title>
<path fill="white" stroke="black" d="M337.5,-132C337.5,-132 283.5,-132 283.5,-132 277.5,-132 271.5,-126 271.5,-120 271.5,-120 271.5,-108 271.5,-108 271.5,-102 277.5,-96 283.5,-96 283.5,-96 337.5,-96 337.5,-96 343.5,-96 349.5,-102 349.5,-108 349.5,-108 349.5,-120 349.5,-120 349.5,-126 343.5,-132 337.5,-132"/>
<text text-anchor="middle" x="310.5" y="-110.3" font-family="Helvetica,sans-Serif" font-size="14.00">vibration</text>
</g>
<!-- rotate&#45;&gt;vibration -->
<g id="edge6" class="edge">
<title>rotate&#45;&gt;vibration</title>
<path fill="none" stroke="black" stroke-width="1.2" d="M211.54,-146.78C226.14,-141.9 244.49,-135.76 261.36,-130.11"/>
<polygon fill="black" stroke="black" stroke-width="1.2" points="262.7,-133.35 271.07,-126.86 260.48,-126.71 262.7,-133.35"/>
</g>
<!-- pressure -->
<g id="node3" class="node">
<title>pressure</title>
<path fill="white" stroke="black" d="M75.5,-151C75.5,-151 22.5,-151 22.5,-151 16.5,-151 10.5,-145 10.5,-139 10.5,-139 10.5,-127 10.5,-127 10.5,-121 16.5,-115 22.5,-115 22.5,-115 75.5,-115 75.5,-115 81.5,-115 87.5,-121 87.5,-127 87.5,-127 87.5,-139 87.5,-139 87.5,-145 81.5,-151 75.5,-151"/>
<text text-anchor="middle" x="49" y="-129.3" font-family="Helvetica,sans-Serif" font-size="14.00">pressure</text>
</g>
<!-- pressure&#45;&gt;volt -->
<g id="edge1" class="edge">
<title>pressure&#45;&gt;volt</title>
<path fill="none" stroke="black" stroke-width="1.2" d="M82.68,-151.06C87.83,-154 93.08,-157.05 98,-160 114.28,-169.77 115.78,-177.68 134,-183 207.43,-204.45 424.08,-186.44 487,-162 500.45,-156.78 513.39,-147.65 523.94,-138.75"/>
<polygon fill="black" stroke="black" stroke-width="1.2" points="526.33,-141.3 531.5,-132.05 521.69,-136.06 526.33,-141.3"/>
</g>
<!-- pressure&#45;&gt;rotate -->
<g id="edge5" class="edge">
<title>pressure&#45;&gt;rotate</title>
<path fill="none" stroke="black" stroke-width="1.2" d="M87.83,-139.59C105.53,-142.68 126.56,-146.34 144.26,-149.42"/>
<polygon fill="black" stroke="black" stroke-width="1.2" points="143.79,-152.89 154.24,-151.16 144.99,-146 143.79,-152.89"/>
</g>
<!-- pressure&#45;&gt;vibration -->
<g id="edge7" class="edge">
<title>pressure&#45;&gt;vibration</title>
<path fill="none" stroke="black" stroke-width="1.2" d="M87.73,-130.24C133.53,-126.88 210.85,-121.22 261.02,-117.55"/>
<polygon fill="black" stroke="black" stroke-width="1.2" points="261.58,-121.02 271.3,-116.8 261.07,-114.04 261.58,-121.02"/>
</g>
<!-- err_error2 -->
<g id="node6" class="node">
<title>err_error2</title>
<path fill="white" stroke="black" d="M341,-36C341,-36 280,-36 280,-36 274,-36 268,-30 268,-24 268,-24 268,-12 268,-12 268,-6 274,0 280,0 280,0 341,0 341,0 347,0 353,-6 353,-12 353,-12 353,-24 353,-24 353,-30 347,-36 341,-36"/>
<text text-anchor="middle" x="310.5" y="-14.3" font-family="Helvetica,sans-Serif" font-size="14.00">err_error2</text>
</g>
<!-- pressure&#45;&gt;err_error2 -->
<g id="edge8" class="edge">
<title>pressure&#45;&gt;err_error2</title>
<path fill="none" stroke="black" stroke-width="1.2" d="M60.05,-114.85C73.6,-92.31 100.02,-54.69 134,-37 171.98,-17.23 220.77,-13.38 257.27,-13.96"/>
<polygon fill="black" stroke="black" stroke-width="1.2" points="257.6,-17.47 267.69,-14.25 257.8,-10.48 257.6,-17.47"/>
</g>
<!-- vibration&#45;&gt;volt -->
<g id="edge2" class="edge">
<title>vibration&#45;&gt;volt</title>
<path fill="none" stroke="black" stroke-width="1.2" d="M348.47,-132.11C361.03,-137.35 375.34,-142.37 389,-145 431.77,-153.24 444.61,-155.01 487,-145 496.12,-142.85 505.42,-139.14 513.96,-135.02"/>
<polygon fill="black" stroke="black" stroke-width="1.2" points="515.58,-138.12 522.87,-130.44 512.38,-131.89 515.58,-138.12"/>
</g>
<!-- err_error4 -->
<g id="node8" class="node">
<title>err_error4</title>
<path fill="white" stroke="black" d="M468.5,-136C468.5,-136 407.5,-136 407.5,-136 401.5,-136 395.5,-130 395.5,-124 395.5,-124 395.5,-112 395.5,-112 395.5,-106 401.5,-100 407.5,-100 407.5,-100 468.5,-100 468.5,-100 474.5,-100 480.5,-106 480.5,-112 480.5,-112 480.5,-124 480.5,-124 480.5,-130 474.5,-136 468.5,-136"/>
<text text-anchor="middle" x="438" y="-114.3" font-family="Helvetica,sans-Serif" font-size="14.00">err_error4</text>
</g>
<!-- vibration&#45;&gt;err_error4 -->
<g id="edge9" class="edge">
<title>vibration&#45;&gt;err_error4</title>
<path fill="none" stroke="black" stroke-width="1.2" d="M349.84,-115.22C360.99,-115.58 373.36,-115.97 385.19,-116.35"/>
<polygon fill="black" stroke="black" stroke-width="1.2" points="385.3,-119.85 395.41,-116.67 385.52,-112.86 385.3,-119.85"/>
</g>
<!-- mnt_comp1 -->
<g id="node10" class="node">
<title>mnt_comp1</title>
<path fill="white" stroke="black" d="M475,-82C475,-82 401,-82 401,-82 395,-82 389,-76 389,-70 389,-70 389,-58 389,-58 389,-52 395,-46 401,-46 401,-46 475,-46 475,-46 481,-46 487,-52 487,-58 487,-58 487,-70 487,-70 487,-76 481,-82 475,-82"/>
<text text-anchor="middle" x="438" y="-60.3" font-family="Helvetica,sans-Serif" font-size="14.00">mnt_comp1</text>
</g>
<!-- vibration&#45;&gt;mnt_comp1 -->
<g id="edge10" class="edge">
<title>vibration&#45;&gt;mnt_comp1</title>
<path fill="none" stroke="black" stroke-width="1.2" d="M349.84,-98.73C359.98,-94.68 371.14,-90.24 381.98,-85.92"/>
<polygon fill="black" stroke="black" stroke-width="1.2" points="383.4,-89.12 391.4,-82.17 380.81,-82.62 383.4,-89.12"/>
</g>
<!-- err_error1 -->
<g id="node5" class="node">
<title>err_error1</title>
<path fill="white" stroke="black" d="M79.5,-205C79.5,-205 18.5,-205 18.5,-205 12.5,-205 6.5,-199 6.5,-193 6.5,-193 6.5,-181 6.5,-181 6.5,-175 12.5,-169 18.5,-169 18.5,-169 79.5,-169 79.5,-169 85.5,-169 91.5,-175 91.5,-181 91.5,-181 91.5,-193 91.5,-193 91.5,-199 85.5,-205 79.5,-205"/>
<text text-anchor="middle" x="49" y="-183.3" font-family="Helvetica,sans-Serif" font-size="14.00">err_error1</text>
</g>
<!-- err_error2&#45;&gt;volt -->
<g id="edge3" class="edge">
<title>err_error2&#45;&gt;volt</title>
<path fill="none" stroke="black" stroke-width="1.2" d="M353.16,-13.86C390.49,-12.08 445.59,-14.36 487,-37 507.77,-48.36 524.16,-69.84 534.86,-87.23"/>
<polygon fill="black" stroke="black" stroke-width="1.2" points="531.85,-89.02 539.93,-95.87 537.89,-85.48 531.85,-89.02"/>
</g>
<!-- err_error3 -->
<g id="node7" class="node">
<title>err_error3</title>
<path fill="white" stroke="black" d="M79.5,-259C79.5,-259 18.5,-259 18.5,-259 12.5,-259 6.5,-253 6.5,-247 6.5,-247 6.5,-235 6.5,-235 6.5,-229 12.5,-223 18.5,-223 18.5,-223 79.5,-223 79.5,-223 85.5,-223 91.5,-229 91.5,-235 91.5,-235 91.5,-247 91.5,-247 91.5,-253 85.5,-259 79.5,-259"/>
<text text-anchor="middle" x="49" y="-237.3" font-family="Helvetica,sans-Serif" font-size="14.00">err_error3</text>
</g>
<!-- err_error5 -->
<g id="node9" class="node">
<title>err_error5</title>
<path fill="white" stroke="black" d="M79.5,-313C79.5,-313 18.5,-313 18.5,-313 12.5,-313 6.5,-307 6.5,-301 6.5,-301 6.5,-289 6.5,-289 6.5,-283 12.5,-277 18.5,-277 18.5,-277 79.5,-277 79.5,-277 85.5,-277 91.5,-283 91.5,-289 91.5,-289 91.5,-301 91.5,-301 91.5,-307 85.5,-313 79.5,-313"/>
<text text-anchor="middle" x="49" y="-291.3" font-family="Helvetica,sans-Serif" font-size="14.00">err_error5</text>
</g>
<!-- mnt_comp1&#45;&gt;volt -->
<g id="edge4" class="edge">
<title>mnt_comp1&#45;&gt;volt</title>
<path fill="none" stroke="black" stroke-width="1.2" d="M478.71,-82.05C490.04,-87.2 502.31,-92.78 513.38,-97.81"/>
<polygon fill="black" stroke="black" stroke-width="1.2" points="512.19,-101.11 522.74,-102.06 515.08,-94.74 512.19,-101.11"/>
</g>
<!-- mnt_comp2 -->
<g id="node11" class="node">
<title>mnt_comp2</title>
<path fill="white" stroke="black" d="M86,-367C86,-367 12,-367 12,-367 6,-367 0,-361 0,-355 0,-355 0,-343 0,-343 0,-337 6,-331 12,-331 12,-331 86,-331 86,-331 92,-331 98,-337 98,-343 98,-343 98,-355 98,-355 98,-361 92,-367 86,-367"/>
<text text-anchor="middle" x="49" y="-345.3" font-family="Helvetica,sans-Serif" font-size="14.00">mnt_comp2</text>
</g>
<!-- mnt_comp3 -->
<g id="node12" class="node">
<title>mnt_comp3</title>
<path fill="white" stroke="black" d="M86,-421C86,-421 12,-421 12,-421 6,-421 0,-415 0,-409 0,-409 0,-397 0,-397 0,-391 6,-385 12,-385 12,-385 86,-385 86,-385 92,-385 98,-391 98,-397 98,-397 98,-409 98,-409 98,-415 92,-421 86,-421"/>
<text text-anchor="middle" x="49" y="-399.3" font-family="Helvetica,sans-Serif" font-size="14.00">mnt_comp3</text>
</g>
<!-- mnt_comp4 -->
<g id="node13" class="node">
<title>mnt_comp4</title>
<path fill="white" stroke="black" d="M220,-82C220,-82 146,-82 146,-82 140,-82 134,-76 134,-70 134,-70 134,-58 134,-58 134,-52 140,-46 146,-46 146,-46 220,-46 220,-46 226,-46 232,-52 232,-58 232,-58 232,-70 232,-70 232,-76 226,-82 220,-82"/>
<text text-anchor="middle" x="183" y="-60.3" font-family="Helvetica,sans-Serif" font-size="14.00">mnt_comp4</text>
</g>
<!-- mnt_comp4&#45;&gt;vibration -->
<g id="edge11" class="edge">
<title>mnt_comp4&#45;&gt;vibration</title>
<path fill="none" stroke="black" stroke-width="1.2" d="M229.31,-82.05C239.84,-86.25 251.09,-90.73 261.73,-94.97"/>
<polygon fill="black" stroke="black" stroke-width="1.2" points="260.71,-98.33 271.29,-98.78 263.3,-91.83 260.71,-98.33"/>
</g>
</g>
</svg>
