<?xml version="1.0" encoding="UTF-8" standalone="no"?>
<!DOCTYPE svg PUBLIC "-//W3C//DTD SVG 1.1//EN"
 "http://www.w3.org/Graphics/SVG/1.1/DTD/svg11.dtd">
<!-- Generated by graphviz version 2.50.0 (0)
 -->
<!-- Title: G Pages: 1 -->
<svg width="682pt" height="501pt"
 viewBox="0.00 0.00 682.00 501.00" xmlns="http://www.w3.org/2000/svg" xmlns:xlink="http://www.w3.org/1999/xlink">
<g id="graph0" class="graph" transform="scale(1 1) rotate(0) translate(4 497)">
<title>G</title>
<polygon fill="white" stroke="transparent" points="-4,4 -4,-497 678,-497 678,4 -4,4"/>
<text text-anchor="middle" x="337" y="-476.2" font-family="Times,serif" font-size="16.00">model=model1/pcmci_mixed.json [machine 23]</text>
<!-- volt -->
<g id="node1" class="node">
<title>volt</title>
<path fill="white" stroke="black" d="M191.5,-89C191.5,-89 161.5,-89 161.5,-89 155.5,-89 149.5,-83 149.5,-77 149.5,-77 149.5,-65 149.5,-65 149.5,-59 155.5,-53 161.5,-53 161.5,-53 191.5,-53 191.5,-53 197.5,-53 203.5,-59 203.5,-65 203.5,-65 203.5,-77 203.5,-77 203.5,-83 197.5,-89 191.5,-89"/>
<text text-anchor="middle" x="176.5" y="-67.3" font-family="Helvetica,sans-Serif" font-size="14.00">volt</text>
</g>
<!-- vibration -->
<g id="node4" class="node">
<title>vibration</title>
<path fill="white" stroke="black" d="M328,-189C328,-189 274,-189 274,-189 268,-189 262,-183 262,-177 262,-177 262,-165 262,-165 262,-159 268,-153 274,-153 274,-153 328,-153 328,-153 334,-153 340,-159 340,-165 340,-165 340,-177 340,-177 340,-183 334,-189 328,-189"/>
<text text-anchor="middle" x="301" y="-167.3" font-family="Helvetica,sans-Serif" font-size="14.00">vibration</text>
</g>
<!-- volt&#45;&gt;vibration -->
<g id="edge3" class="edge">
<title>volt&#45;&gt;vibration</title>
<path fill="none" stroke="black" stroke-width="1.2" d="M194.69,-89.27C209.78,-104.78 232.75,-127.15 255,-144 256.4,-145.06 257.84,-146.11 259.31,-147.15"/>
<polygon fill="black" stroke="black" stroke-width="1.2" points="257.71,-150.29 267.97,-152.95 261.61,-144.48 257.71,-150.29"/>
</g>
<!-- fail_comp2 -->
<g id="node15" class="node">
<title>fail_comp2</title>
<path fill="white" stroke="black" d="M335,-135C335,-135 267,-135 267,-135 261,-135 255,-129 255,-123 255,-123 255,-111 255,-111 255,-105 261,-99 267,-99 267,-99 335,-99 335,-99 341,-99 347,-105 347,-111 347,-111 347,-123 347,-123 347,-129 341,-135 335,-135"/>
<text text-anchor="middle" x="301" y="-113.3" font-family="Helvetica,sans-Serif" font-size="14.00">fail_comp2</text>
</g>
<!-- volt&#45;&gt;fail_comp2 -->
<g id="edge6" class="edge">
<title>volt&#45;&gt;fail_comp2</title>
<path fill="none" stroke="black" stroke-width="1.2" d="M203.78,-80.87C216.01,-85.46 231.03,-91.1 245.53,-96.55"/>
<polygon fill="black" stroke="black" stroke-width="1.2" points="244.37,-99.85 254.96,-100.09 246.83,-93.29 244.37,-99.85"/>
</g>
<!-- rotate -->
<g id="node2" class="node">
<title>rotate</title>
<path fill="white" stroke="black" d="M428,-189C428,-189 395,-189 395,-189 389,-189 383,-183 383,-177 383,-177 383,-165 383,-165 383,-159 389,-153 395,-153 395,-153 428,-153 428,-153 434,-153 440,-159 440,-165 440,-165 440,-177 440,-177 440,-183 434,-189 428,-189"/>
<text text-anchor="middle" x="411.5" y="-167.3" font-family="Helvetica,sans-Serif" font-size="14.00">rotate</text>
</g>
<!-- rotate&#45;&gt;volt -->
<g id="edge1" class="edge">
<title>rotate&#45;&gt;volt</title>
<path fill="none" stroke="black" stroke-width="1.2" d="M401.71,-152.67C391.46,-133.5 372.59,-104.27 347,-90 305.69,-66.96 249.94,-65.28 213.86,-67.27"/>
<polygon fill="black" stroke="black" stroke-width="1.2" points="213.52,-63.78 203.78,-67.95 213.99,-70.76 213.52,-63.78"/>
</g>
<!-- pressure -->
<g id="node3" class="node">
<title>pressure</title>
<path fill="white" stroke="black" d="M541,-59C541,-59 488,-59 488,-59 482,-59 476,-53 476,-47 476,-47 476,-35 476,-35 476,-29 482,-23 488,-23 488,-23 541,-23 541,-23 547,-23 553,-29 553,-35 553,-35 553,-47 553,-47 553,-53 547,-59 541,-59"/>
<text text-anchor="middle" x="514.5" y="-37.3" font-family="Helvetica,sans-Serif" font-size="14.00">pressure</text>
</g>
<!-- rotate&#45;&gt;pressure -->
<g id="edge7" class="edge">
<title>rotate&#45;&gt;pressure</title>
<path fill="none" stroke="black" stroke-width="1.2" d="M426.54,-152.92C443.78,-130.74 473.16,-92.92 492.94,-67.46"/>
<polygon fill="black" stroke="black" stroke-width="1.2" points="495.88,-69.39 499.25,-59.34 490.35,-65.09 495.88,-69.39"/>
</g>
<!-- pressure&#45;&gt;volt -->
<g id="edge2" class="edge">
<title>pressure&#45;&gt;volt</title>
<path fill="none" stroke="black" stroke-width="1.2" d="M475.83,-44.34C425.49,-48.8 333.53,-56.96 255,-64 241.52,-65.21 226.71,-66.54 213.69,-67.72"/>
<polygon fill="black" stroke="black" stroke-width="1.2" points="213.33,-64.24 203.69,-68.63 213.96,-71.21 213.33,-64.24"/>
</g>
<!-- err_error4 -->
<g id="node8" class="node">
<title>err_error4</title>
<path fill="white" stroke="black" d="M662,-36C662,-36 601,-36 601,-36 595,-36 589,-30 589,-24 589,-24 589,-12 589,-12 589,-6 595,0 601,0 601,0 662,0 662,0 668,0 674,-6 674,-12 674,-12 674,-24 674,-24 674,-30 668,-36 662,-36"/>
<text text-anchor="middle" x="631.5" y="-14.3" font-family="Helvetica,sans-Serif" font-size="14.00">err_error4</text>
</g>
<!-- pressure&#45;&gt;err_error4 -->
<g id="edge11" class="edge">
<title>pressure&#45;&gt;err_error4</title>
<path fill="none" stroke="black" stroke-width="1.2" d="M553.16,-33.47C561.35,-31.83 570.15,-30.07 578.78,-28.34"/>
<polygon fill="black" stroke="black" stroke-width="1.2" points="579.66,-31.74 588.78,-26.34 578.29,-24.87 579.66,-31.74"/>
</g>
<!-- vibration&#45;&gt;rotate -->
<g id="edge8" class="edge">
<title>vibration&#45;&gt;rotate</title>
<path fill="none" stroke="black" stroke-width="1.2" d="M340.25,-171C350.78,-171 362.18,-171 372.68,-171"/>
<polygon fill="black" stroke="black" stroke-width="1.2" points="372.81,-174.5 382.81,-171 372.81,-167.5 372.81,-174.5"/>
</g>
<!-- err_error1 -->
<g id="node5" class="node">
<title>err_error1</title>
<path fill="white" stroke="black" d="M331.5,-297C331.5,-297 270.5,-297 270.5,-297 264.5,-297 258.5,-291 258.5,-285 258.5,-285 258.5,-273 258.5,-273 258.5,-267 264.5,-261 270.5,-261 270.5,-261 331.5,-261 331.5,-261 337.5,-261 343.5,-267 343.5,-273 343.5,-273 343.5,-285 343.5,-285 343.5,-291 337.5,-297 331.5,-297"/>
<text text-anchor="middle" x="301" y="-275.3" font-family="Helvetica,sans-Serif" font-size="14.00">err_error1</text>
</g>
<!-- err_error1&#45;&gt;rotate -->
<g id="edge9" class="edge">
<title>err_error1&#45;&gt;rotate</title>
<path fill="none" stroke="black" stroke-width="1.2" d="M335.42,-260.86C339.48,-258.11 343.45,-255.14 347,-252 365.02,-236.09 381.64,-214.53 393.35,-197.65"/>
<polygon fill="black" stroke="black" stroke-width="1.2" points="396.3,-199.55 399.01,-189.31 390.5,-195.62 396.3,-199.55"/>
</g>
<!-- err_error2 -->
<g id="node6" class="node">
<title>err_error2</title>
<path fill="white" stroke="black" d="M79.5,-143C79.5,-143 18.5,-143 18.5,-143 12.5,-143 6.5,-137 6.5,-131 6.5,-131 6.5,-119 6.5,-119 6.5,-113 12.5,-107 18.5,-107 18.5,-107 79.5,-107 79.5,-107 85.5,-107 91.5,-113 91.5,-119 91.5,-119 91.5,-131 91.5,-131 91.5,-137 85.5,-143 79.5,-143"/>
<text text-anchor="middle" x="49" y="-121.3" font-family="Helvetica,sans-Serif" font-size="14.00">err_error2</text>
</g>
<!-- err_error3 -->
<g id="node7" class="node">
<title>err_error3</title>
<path fill="white" stroke="black" d="M79.5,-197C79.5,-197 18.5,-197 18.5,-197 12.5,-197 6.5,-191 6.5,-185 6.5,-185 6.5,-173 6.5,-173 6.5,-167 12.5,-161 18.5,-161 18.5,-161 79.5,-161 79.5,-161 85.5,-161 91.5,-167 91.5,-173 91.5,-173 91.5,-185 91.5,-185 91.5,-191 85.5,-197 79.5,-197"/>
<text text-anchor="middle" x="49" y="-175.3" font-family="Helvetica,sans-Serif" font-size="14.00">err_error3</text>
</g>
<!-- err_error4&#45;&gt;volt -->
<g id="edge4" class="edge">
<title>err_error4&#45;&gt;volt</title>
<path fill="none" stroke="black" stroke-width="1.2" d="M588.69,-15.45C577.13,-14.85 564.58,-14.3 553,-14 518.79,-13.12 510.1,-11.09 476,-14 376.7,-22.48 352.57,-31.68 255,-52 241.41,-54.83 226.58,-58.36 213.57,-61.6"/>
<polygon fill="black" stroke="black" stroke-width="1.2" points="212.42,-58.28 203.58,-64.12 214.14,-65.07 212.42,-58.28"/>
</g>
<!-- err_error5 -->
<g id="node9" class="node">
<title>err_error5</title>
<path fill="white" stroke="black" d="M207,-189C207,-189 146,-189 146,-189 140,-189 134,-183 134,-177 134,-177 134,-165 134,-165 134,-159 140,-153 146,-153 146,-153 207,-153 207,-153 213,-153 219,-159 219,-165 219,-165 219,-177 219,-177 219,-183 213,-189 207,-189"/>
<text text-anchor="middle" x="176.5" y="-167.3" font-family="Helvetica,sans-Serif" font-size="14.00">err_error5</text>
</g>
<!-- err_error5&#45;&gt;vibration -->
<g id="edge12" class="edge">
<title>err_error5&#45;&gt;vibration</title>
<path fill="none" stroke="black" stroke-width="1.2" d="M219.31,-171C229.71,-171 240.95,-171 251.63,-171"/>
<polygon fill="black" stroke="black" stroke-width="1.2" points="251.67,-174.5 261.67,-171 251.67,-167.5 251.67,-174.5"/>
</g>
<!-- mnt_comp1 -->
<g id="node10" class="node">
<title>mnt_comp1</title>
<path fill="white" stroke="black" d="M86,-251C86,-251 12,-251 12,-251 6,-251 0,-245 0,-239 0,-239 0,-227 0,-227 0,-221 6,-215 12,-215 12,-215 86,-215 86,-215 92,-215 98,-221 98,-227 98,-227 98,-239 98,-239 98,-245 92,-251 86,-251"/>
<text text-anchor="middle" x="49" y="-229.3" font-family="Helvetica,sans-Serif" font-size="14.00">mnt_comp1</text>
</g>
<!-- mnt_comp2 -->
<g id="node11" class="node">
<title>mnt_comp2</title>
<path fill="white" stroke="black" d="M86,-89C86,-89 12,-89 12,-89 6,-89 0,-83 0,-77 0,-77 0,-65 0,-65 0,-59 6,-53 12,-53 12,-53 86,-53 86,-53 92,-53 98,-59 98,-65 98,-65 98,-77 98,-77 98,-83 92,-89 86,-89"/>
<text text-anchor="middle" x="49" y="-67.3" font-family="Helvetica,sans-Serif" font-size="14.00">mnt_comp2</text>
</g>
<!-- mnt_comp2&#45;&gt;volt -->
<g id="edge5" class="edge">
<title>mnt_comp2&#45;&gt;volt</title>
<path fill="none" stroke="black" stroke-width="1.2" d="M98.16,-71C111.77,-71 126.35,-71 139.14,-71"/>
<polygon fill="black" stroke="black" stroke-width="1.2" points="139.4,-74.5 149.4,-71 139.4,-67.5 139.4,-74.5"/>
</g>
<!-- mnt_comp3 -->
<g id="node12" class="node">
<title>mnt_comp3</title>
<path fill="white" stroke="black" d="M86,-305C86,-305 12,-305 12,-305 6,-305 0,-299 0,-293 0,-293 0,-281 0,-281 0,-275 6,-269 12,-269 12,-269 86,-269 86,-269 92,-269 98,-275 98,-281 98,-281 98,-293 98,-293 98,-299 92,-305 86,-305"/>
<text text-anchor="middle" x="49" y="-283.3" font-family="Helvetica,sans-Serif" font-size="14.00">mnt_comp3</text>
</g>
<!-- mnt_comp4 -->
<g id="node13" class="node">
<title>mnt_comp4</title>
<path fill="white" stroke="black" d="M86,-359C86,-359 12,-359 12,-359 6,-359 0,-353 0,-347 0,-347 0,-335 0,-335 0,-329 6,-323 12,-323 12,-323 86,-323 86,-323 92,-323 98,-329 98,-335 98,-335 98,-347 98,-347 98,-353 92,-359 86,-359"/>
<text text-anchor="middle" x="49" y="-337.3" font-family="Helvetica,sans-Serif" font-size="14.00">mnt_comp4</text>
</g>
<!-- fail_comp1 -->
<g id="node14" class="node">
<title>fail_comp1</title>
<path fill="white" stroke="black" d="M335,-243C335,-243 267,-243 267,-243 261,-243 255,-237 255,-231 255,-231 255,-219 255,-219 255,-213 261,-207 267,-207 267,-207 335,-207 335,-207 341,-207 347,-213 347,-219 347,-219 347,-231 347,-231 347,-237 341,-243 335,-243"/>
<text text-anchor="middle" x="301" y="-221.3" font-family="Helvetica,sans-Serif" font-size="14.00">fail_comp1</text>
</g>
<!-- fail_comp1&#45;&gt;rotate -->
<g id="edge10" class="edge">
<title>fail_comp1&#45;&gt;rotate</title>
<path fill="none" stroke="black" stroke-width="1.2" d="M338.43,-206.87C349.78,-201.22 362.3,-194.99 373.68,-189.33"/>
<polygon fill="black" stroke="black" stroke-width="1.2" points="375.52,-192.32 382.92,-184.73 372.4,-186.05 375.52,-192.32"/>
</g>
<!-- fail_comp3 -->
<g id="node16" class="node">
<title>fail_comp3</title>
<path fill="white" stroke="black" d="M83,-413C83,-413 15,-413 15,-413 9,-413 3,-407 3,-401 3,-401 3,-389 3,-389 3,-383 9,-377 15,-377 15,-377 83,-377 83,-377 89,-377 95,-383 95,-389 95,-389 95,-401 95,-401 95,-407 89,-413 83,-413"/>
<text text-anchor="middle" x="49" y="-391.3" font-family="Helvetica,sans-Serif" font-size="14.00">fail_comp3</text>
</g>
<!-- fail_comp4 -->
<g id="node17" class="node">
<title>fail_comp4</title>
<path fill="white" stroke="black" d="M83,-467C83,-467 15,-467 15,-467 9,-467 3,-461 3,-455 3,-455 3,-443 3,-443 3,-437 9,-431 15,-431 15,-431 83,-431 83,-431 89,-431 95,-437 95,-443 95,-443 95,-455 95,-455 95,-461 89,-467 83,-467"/>
<text text-anchor="middle" x="49" y="-445.3" font-family="Helvetica,sans-Serif" font-size="14.00">fail_comp4</text>
</g>
</g>
</svg>
