<?xml version="1.0" encoding="UTF-8" standalone="no"?>
<!DOCTYPE svg PUBLIC "-//W3C//DTD SVG 1.1//EN"
 "http://www.w3.org/Graphics/SVG/1.1/DTD/svg11.dtd">
<!-- Generated by graphviz version 2.50.0 (0)
 -->
<!-- Title: G Pages: 1 -->
<svg width="403pt" height="469pt"
 viewBox="0.00 0.00 403.00 469.00" xmlns="http://www.w3.org/2000/svg" xmlns:xlink="http://www.w3.org/1999/xlink">
<g id="graph0" class="graph" transform="scale(1 1) rotate(0) translate(4 465)">
<title>G</title>
<polygon fill="white" stroke="transparent" points="-4,4 -4,-465 399,-465 399,4 -4,4"/>
<text text-anchor="middle" x="197.5" y="-444.2" font-family="Times,serif" font-size="16.00">model=model4/pcmci_mixed.json [machine 2]</text>
<!-- volt -->
<g id="node1" class="node">
<title>volt</title>
<path fill="white" stroke="black" d="M219,-94C219,-94 189,-94 189,-94 183,-94 177,-88 177,-82 177,-82 177,-70 177,-70 177,-64 183,-58 189,-58 189,-58 219,-58 219,-58 225,-58 231,-64 231,-70 231,-70 231,-82 231,-82 231,-88 225,-94 219,-94"/>
<text text-anchor="middle" x="204" y="-72.3" font-family="Helvetica,sans-Serif" font-size="14.00">volt</text>
</g>
<!-- vibration -->
<g id="node4" class="node">
<title>vibration</title>
<path fill="white" stroke="black" d="M358.5,-148C358.5,-148 304.5,-148 304.5,-148 298.5,-148 292.5,-142 292.5,-136 292.5,-136 292.5,-124 292.5,-124 292.5,-118 298.5,-112 304.5,-112 304.5,-112 358.5,-112 358.5,-112 364.5,-112 370.5,-118 370.5,-124 370.5,-124 370.5,-136 370.5,-136 370.5,-142 364.5,-148 358.5,-148"/>
<text text-anchor="middle" x="331.5" y="-126.3" font-family="Helvetica,sans-Serif" font-size="14.00">vibration</text>
</g>
<!-- volt&#45;&gt;vibration -->
<g id="edge2" class="edge">
<title>volt&#45;&gt;vibration</title>
<path fill="none" stroke="black" stroke-width="1.2" d="M231,-87.19C245.91,-93.6 265.08,-101.85 282.61,-109.39"/>
<polygon fill="black" stroke="black" stroke-width="1.2" points="281.57,-112.76 292.14,-113.49 284.34,-106.33 281.57,-112.76"/>
</g>
<!-- err_error1 -->
<g id="node5" class="node">
<title>err_error1</title>
<path fill="white" stroke="black" d="M362,-94C362,-94 301,-94 301,-94 295,-94 289,-88 289,-82 289,-82 289,-70 289,-70 289,-64 295,-58 301,-58 301,-58 362,-58 362,-58 368,-58 374,-64 374,-70 374,-70 374,-82 374,-82 374,-88 368,-94 362,-94"/>
<text text-anchor="middle" x="331.5" y="-72.3" font-family="Helvetica,sans-Serif" font-size="14.00">err_error1</text>
</g>
<!-- volt&#45;&gt;err_error1 -->
<g id="edge3" class="edge">
<title>volt&#45;&gt;err_error1</title>
<path fill="none" stroke="black" stroke-width="1.2" d="M231,-76C244.8,-76 262.25,-76 278.67,-76"/>
<polygon fill="black" stroke="black" stroke-width="1.2" points="278.72,-79.5 288.72,-76 278.72,-72.5 278.72,-79.5"/>
</g>
<!-- rotate -->
<g id="node2" class="node">
<title>rotate</title>
<path fill="white" stroke="black" d="M86.5,-219C86.5,-219 53.5,-219 53.5,-219 47.5,-219 41.5,-213 41.5,-207 41.5,-207 41.5,-195 41.5,-195 41.5,-189 47.5,-183 53.5,-183 53.5,-183 86.5,-183 86.5,-183 92.5,-183 98.5,-189 98.5,-195 98.5,-195 98.5,-207 98.5,-207 98.5,-213 92.5,-219 86.5,-219"/>
<text text-anchor="middle" x="70" y="-197.3" font-family="Helvetica,sans-Serif" font-size="14.00">rotate</text>
</g>
<!-- rotate&#45;&gt;volt -->
<g id="edge1" class="edge">
<title>rotate&#45;&gt;volt</title>
<path fill="none" stroke="black" stroke-width="1.2" d="M90.42,-182.98C99.46,-174.25 110.14,-163.41 119,-153 136.74,-132.14 134.59,-121.25 155,-103 158.91,-99.5 163.35,-96.27 167.91,-93.34"/>
<polygon fill="black" stroke="black" stroke-width="1.2" points="169.91,-96.22 176.72,-88.1 166.33,-90.2 169.91,-96.22"/>
</g>
<!-- rotate&#45;&gt;vibration -->
<g id="edge6" class="edge">
<title>rotate&#45;&gt;vibration</title>
<path fill="none" stroke="black" stroke-width="1.2" d="M98.66,-195.2C134.53,-187.47 198.89,-172.92 253,-157 262.64,-154.16 272.84,-150.84 282.57,-147.52"/>
<polygon fill="black" stroke="black" stroke-width="1.2" points="283.81,-150.79 292.11,-144.21 281.51,-144.18 283.81,-150.79"/>
</g>
<!-- err_error3 -->
<g id="node7" class="node">
<title>err_error3</title>
<path fill="white" stroke="black" d="M234.5,-294C234.5,-294 173.5,-294 173.5,-294 167.5,-294 161.5,-288 161.5,-282 161.5,-282 161.5,-270 161.5,-270 161.5,-264 167.5,-258 173.5,-258 173.5,-258 234.5,-258 234.5,-258 240.5,-258 246.5,-264 246.5,-270 246.5,-270 246.5,-282 246.5,-282 246.5,-288 240.5,-294 234.5,-294"/>
<text text-anchor="middle" x="204" y="-272.3" font-family="Helvetica,sans-Serif" font-size="14.00">err_error3</text>
</g>
<!-- rotate&#45;&gt;err_error3 -->
<g id="edge7" class="edge">
<title>rotate&#45;&gt;err_error3</title>
<path fill="none" stroke="black" stroke-width="1.2" d="M98.71,-216.49C105.37,-220.24 112.45,-224.25 119,-228 135.07,-237.21 138.93,-239.79 155,-249 157.21,-250.27 159.49,-251.57 161.79,-252.87"/>
<polygon fill="black" stroke="black" stroke-width="1.2" points="160.26,-256.03 170.69,-257.91 163.71,-249.94 160.26,-256.03"/>
</g>
<!-- fail_comp1 -->
<g id="node14" class="node">
<title>fail_comp1</title>
<path fill="white" stroke="black" d="M238,-240C238,-240 170,-240 170,-240 164,-240 158,-234 158,-228 158,-228 158,-216 158,-216 158,-210 164,-204 170,-204 170,-204 238,-204 238,-204 244,-204 250,-210 250,-216 250,-216 250,-228 250,-228 250,-234 244,-240 238,-240"/>
<text text-anchor="middle" x="204" y="-218.3" font-family="Helvetica,sans-Serif" font-size="14.00">fail_comp1</text>
</g>
<!-- rotate&#45;&gt;fail_comp1 -->
<g id="edge8" class="edge">
<title>rotate&#45;&gt;fail_comp1</title>
<path fill="none" stroke="black" stroke-width="1.2" d="M98.67,-205.4C112.88,-207.66 130.72,-210.5 147.61,-213.19"/>
<polygon fill="black" stroke="black" stroke-width="1.2" points="147.54,-216.72 157.96,-214.83 148.64,-209.81 147.54,-216.72"/>
</g>
<!-- pressure -->
<g id="node3" class="node">
<title>pressure</title>
<path fill="white" stroke="black" d="M230.5,-38C230.5,-38 177.5,-38 177.5,-38 171.5,-38 165.5,-32 165.5,-26 165.5,-26 165.5,-14 165.5,-14 165.5,-8 171.5,-2 177.5,-2 177.5,-2 230.5,-2 230.5,-2 236.5,-2 242.5,-8 242.5,-14 242.5,-14 242.5,-26 242.5,-26 242.5,-32 236.5,-38 230.5,-38"/>
<text text-anchor="middle" x="204" y="-16.3" font-family="Helvetica,sans-Serif" font-size="14.00">pressure</text>
</g>
<!-- err_error2 -->
<g id="node6" class="node">
<title>err_error2</title>
<path fill="white" stroke="black" d="M100.5,-144C100.5,-144 39.5,-144 39.5,-144 33.5,-144 27.5,-138 27.5,-132 27.5,-132 27.5,-120 27.5,-120 27.5,-114 33.5,-108 39.5,-108 39.5,-108 100.5,-108 100.5,-108 106.5,-108 112.5,-114 112.5,-120 112.5,-120 112.5,-132 112.5,-132 112.5,-138 106.5,-144 100.5,-144"/>
<text text-anchor="middle" x="70" y="-122.3" font-family="Helvetica,sans-Serif" font-size="14.00">err_error2</text>
</g>
<!-- err_error2&#45;&gt;volt -->
<g id="edge4" class="edge">
<title>err_error2&#45;&gt;volt</title>
<path fill="none" stroke="black" stroke-width="1.2" d="M112.77,-110.18C130.32,-103.53 150.53,-95.88 167.36,-89.5"/>
<polygon fill="black" stroke="black" stroke-width="1.2" points="168.73,-92.72 176.84,-85.91 166.25,-86.18 168.73,-92.72"/>
</g>
<!-- err_error4 -->
<g id="node8" class="node">
<title>err_error4</title>
<path fill="white" stroke="black" d="M100.5,-273C100.5,-273 39.5,-273 39.5,-273 33.5,-273 27.5,-267 27.5,-261 27.5,-261 27.5,-249 27.5,-249 27.5,-243 33.5,-237 39.5,-237 39.5,-237 100.5,-237 100.5,-237 106.5,-237 112.5,-243 112.5,-249 112.5,-249 112.5,-261 112.5,-261 112.5,-267 106.5,-273 100.5,-273"/>
<text text-anchor="middle" x="70" y="-251.3" font-family="Helvetica,sans-Serif" font-size="14.00">err_error4</text>
</g>
<!-- err_error5 -->
<g id="node9" class="node">
<title>err_error5</title>
<path fill="white" stroke="black" d="M100.5,-327C100.5,-327 39.5,-327 39.5,-327 33.5,-327 27.5,-321 27.5,-315 27.5,-315 27.5,-303 27.5,-303 27.5,-297 33.5,-291 39.5,-291 39.5,-291 100.5,-291 100.5,-291 106.5,-291 112.5,-297 112.5,-303 112.5,-303 112.5,-315 112.5,-315 112.5,-321 106.5,-327 100.5,-327"/>
<text text-anchor="middle" x="70" y="-305.3" font-family="Helvetica,sans-Serif" font-size="14.00">err_error5</text>
</g>
<!-- mnt_comp1 -->
<g id="node10" class="node">
<title>mnt_comp1</title>
<path fill="white" stroke="black" d="M241,-148C241,-148 167,-148 167,-148 161,-148 155,-142 155,-136 155,-136 155,-124 155,-124 155,-118 161,-112 167,-112 167,-112 241,-112 241,-112 247,-112 253,-118 253,-124 253,-124 253,-136 253,-136 253,-142 247,-148 241,-148"/>
<text text-anchor="middle" x="204" y="-126.3" font-family="Helvetica,sans-Serif" font-size="14.00">mnt_comp1</text>
</g>
<!-- mnt_comp1&#45;&gt;vibration -->
<g id="edge11" class="edge">
<title>mnt_comp1&#45;&gt;vibration</title>
<path fill="none" stroke="black" stroke-width="1.2" d="M253.16,-130C262.71,-130 272.73,-130 282.27,-130"/>
<polygon fill="black" stroke="black" stroke-width="1.2" points="282.4,-133.5 292.4,-130 282.4,-126.5 282.4,-133.5"/>
</g>
<!-- mnt_comp2 -->
<g id="node11" class="node">
<title>mnt_comp2</title>
<path fill="white" stroke="black" d="M107,-36C107,-36 33,-36 33,-36 27,-36 21,-30 21,-24 21,-24 21,-12 21,-12 21,-6 27,0 33,0 33,0 107,0 107,0 113,0 119,-6 119,-12 119,-12 119,-24 119,-24 119,-30 113,-36 107,-36"/>
<text text-anchor="middle" x="70" y="-14.3" font-family="Helvetica,sans-Serif" font-size="14.00">mnt_comp2</text>
</g>
<!-- mnt_comp2&#45;&gt;pressure -->
<g id="edge9" class="edge">
<title>mnt_comp2&#45;&gt;pressure</title>
<path fill="none" stroke="black" stroke-width="1.2" d="M119.03,-18.73C130.77,-18.91 143.34,-19.1 155.08,-19.27"/>
<polygon fill="black" stroke="black" stroke-width="1.2" points="155.09,-22.77 165.14,-19.43 155.2,-15.78 155.09,-22.77"/>
</g>
<!-- mnt_comp3 -->
<g id="node12" class="node">
<title>mnt_comp3</title>
<path fill="white" stroke="black" d="M107,-381C107,-381 33,-381 33,-381 27,-381 21,-375 21,-369 21,-369 21,-357 21,-357 21,-351 27,-345 33,-345 33,-345 107,-345 107,-345 113,-345 119,-351 119,-357 119,-357 119,-369 119,-369 119,-375 113,-381 107,-381"/>
<text text-anchor="middle" x="70" y="-359.3" font-family="Helvetica,sans-Serif" font-size="14.00">mnt_comp3</text>
</g>
<!-- mnt_comp4 -->
<g id="node13" class="node">
<title>mnt_comp4</title>
<path fill="white" stroke="black" d="M107,-90C107,-90 33,-90 33,-90 27,-90 21,-84 21,-78 21,-78 21,-66 21,-66 21,-60 27,-54 33,-54 33,-54 107,-54 107,-54 113,-54 119,-60 119,-66 119,-66 119,-78 119,-78 119,-84 113,-90 107,-90"/>
<text text-anchor="middle" x="70" y="-68.3" font-family="Helvetica,sans-Serif" font-size="14.00">mnt_comp4</text>
</g>
<!-- mnt_comp4&#45;&gt;volt -->
<g id="edge5" class="edge">
<title>mnt_comp4&#45;&gt;volt</title>
<path fill="none" stroke="black" stroke-width="1.2" d="M119.03,-73.46C134.69,-73.93 151.81,-74.45 166.48,-74.89"/>
<polygon fill="black" stroke="black" stroke-width="1.2" points="166.58,-78.4 176.68,-75.2 166.79,-71.4 166.58,-78.4"/>
</g>
<!-- mnt_comp4&#45;&gt;pressure -->
<g id="edge10" class="edge">
<title>mnt_comp4&#45;&gt;pressure</title>
<path fill="none" stroke="black" stroke-width="1.2" d="M116.8,-53.96C129.38,-49 143.04,-43.62 155.7,-38.63"/>
<polygon fill="black" stroke="black" stroke-width="1.2" points="157.13,-41.83 165.15,-34.91 154.57,-35.32 157.13,-41.83"/>
</g>
<!-- fail_comp2 -->
<g id="node15" class="node">
<title>fail_comp2</title>
<path fill="white" stroke="black" d="M104,-435C104,-435 36,-435 36,-435 30,-435 24,-429 24,-423 24,-423 24,-411 24,-411 24,-405 30,-399 36,-399 36,-399 104,-399 104,-399 110,-399 116,-405 116,-411 116,-411 116,-423 116,-423 116,-429 110,-435 104,-435"/>
<text text-anchor="middle" x="70" y="-413.3" font-family="Helvetica,sans-Serif" font-size="14.00">fail_comp2</text>
</g>
</g>
</svg>
