<?xml version="1.0" encoding="UTF-8" standalone="no"?>
<!DOCTYPE svg PUBLIC "-//W3C//DTD SVG 1.1//EN"
 "http://www.w3.org/Graphics/SVG/1.1/DTD/svg11.dtd">
<!-- Generated by graphviz version 2.50.0 (0)
 -->
<!-- Title: G Pages: 1 -->
<svg width="812pt" height="471pt"
 viewBox="0.00 0.00 812.00 471.00" xmlns="http://www.w3.org/2000/svg" xmlns:xlink="http://www.w3.org/1999/xlink">
<g id="graph0" class="graph" transform="scale(1 1) rotate(0) translate(4 467)">
<title>G</title>
<polygon fill="white" stroke="transparent" points="-4,4 -4,-467 808,-467 808,4 -4,4"/>
<text text-anchor="middle" x="402" y="-446.2" font-family="Times,serif" font-size="16.00">model=model1/pcmci_mixed.json [machine 92]</text>
<!-- volt -->
<g id="node1" class="node">
<title>volt</title>
<path fill="white" stroke="black" d="M658,-117C658,-117 628,-117 628,-117 622,-117 616,-111 616,-105 616,-105 616,-93 616,-93 616,-87 622,-81 628,-81 628,-81 658,-81 658,-81 664,-81 670,-87 670,-93 670,-93 670,-105 670,-105 670,-111 664,-117 658,-117"/>
<text text-anchor="middle" x="643" y="-95.3" font-family="Helvetica,sans-Serif" font-size="14.00">volt</text>
</g>
<!-- mnt_comp1 -->
<g id="node10" class="node">
<title>mnt_comp1</title>
<path fill="white" stroke="black" d="M792,-144C792,-144 718,-144 718,-144 712,-144 706,-138 706,-132 706,-132 706,-120 706,-120 706,-114 712,-108 718,-108 718,-108 792,-108 792,-108 798,-108 804,-114 804,-120 804,-120 804,-132 804,-132 804,-138 798,-144 792,-144"/>
<text text-anchor="middle" x="755" y="-122.3" font-family="Helvetica,sans-Serif" font-size="14.00">mnt_comp1</text>
</g>
<!-- volt&#45;&gt;mnt_comp1 -->
<g id="edge3" class="edge">
<title>volt&#45;&gt;mnt_comp1</title>
<path fill="none" stroke="black" stroke-width="1.2" d="M670.07,-105.4C677.91,-107.32 686.84,-109.52 695.89,-111.74"/>
<polygon fill="black" stroke="black" stroke-width="1.2" points="695.16,-115.16 705.7,-114.15 696.83,-108.36 695.16,-115.16"/>
</g>
<!-- fail_comp1 -->
<g id="node14" class="node">
<title>fail_comp1</title>
<path fill="white" stroke="black" d="M789,-90C789,-90 721,-90 721,-90 715,-90 709,-84 709,-78 709,-78 709,-66 709,-66 709,-60 715,-54 721,-54 721,-54 789,-54 789,-54 795,-54 801,-60 801,-66 801,-66 801,-78 801,-78 801,-84 795,-90 789,-90"/>
<text text-anchor="middle" x="755" y="-68.3" font-family="Helvetica,sans-Serif" font-size="14.00">fail_comp1</text>
</g>
<!-- volt&#45;&gt;fail_comp1 -->
<g id="edge6" class="edge">
<title>volt&#45;&gt;fail_comp1</title>
<path fill="none" stroke="black" stroke-width="1.2" d="M670.07,-92.6C678.74,-90.47 688.75,-88.01 698.78,-85.55"/>
<polygon fill="black" stroke="black" stroke-width="1.2" points="699.88,-88.89 708.76,-83.11 698.21,-82.09 699.88,-88.89"/>
</g>
<!-- rotate -->
<g id="node2" class="node">
<title>rotate</title>
<path fill="white" stroke="black" d="M306,-190C306,-190 273,-190 273,-190 267,-190 261,-184 261,-178 261,-178 261,-166 261,-166 261,-160 267,-154 273,-154 273,-154 306,-154 306,-154 312,-154 318,-160 318,-166 318,-166 318,-178 318,-178 318,-184 312,-190 306,-190"/>
<text text-anchor="middle" x="289.5" y="-168.3" font-family="Helvetica,sans-Serif" font-size="14.00">rotate</text>
</g>
<!-- rotate&#45;&gt;volt -->
<g id="edge1" class="edge">
<title>rotate&#45;&gt;volt</title>
<path fill="none" stroke="black" stroke-width="1.2" d="M318.14,-175.85C371.22,-182.04 490.13,-190.05 580,-153 595.12,-146.77 609.12,-135.3 619.98,-124.53"/>
<polygon fill="black" stroke="black" stroke-width="1.2" points="622.56,-126.89 626.97,-117.26 617.52,-122.04 622.56,-126.89"/>
</g>
<!-- vibration -->
<g id="node4" class="node">
<title>vibration</title>
<path fill="white" stroke="black" d="M434,-144C434,-144 380,-144 380,-144 374,-144 368,-138 368,-132 368,-132 368,-120 368,-120 368,-114 374,-108 380,-108 380,-108 434,-108 434,-108 440,-108 446,-114 446,-120 446,-120 446,-132 446,-132 446,-138 440,-144 434,-144"/>
<text text-anchor="middle" x="407" y="-122.3" font-family="Helvetica,sans-Serif" font-size="14.00">vibration</text>
</g>
<!-- rotate&#45;&gt;vibration -->
<g id="edge8" class="edge">
<title>rotate&#45;&gt;vibration</title>
<path fill="none" stroke="black" stroke-width="1.2" d="M318.17,-160.98C330.2,-156.19 344.66,-150.43 358.34,-144.98"/>
<polygon fill="black" stroke="black" stroke-width="1.2" points="359.65,-148.23 367.64,-141.28 357.06,-141.72 359.65,-148.23"/>
</g>
<!-- pressure -->
<g id="node3" class="node">
<title>pressure</title>
<path fill="white" stroke="black" d="M199,-190C199,-190 146,-190 146,-190 140,-190 134,-184 134,-178 134,-178 134,-166 134,-166 134,-160 140,-154 146,-154 146,-154 199,-154 199,-154 205,-154 211,-160 211,-166 211,-166 211,-178 211,-178 211,-184 205,-190 199,-190"/>
<text text-anchor="middle" x="172.5" y="-168.3" font-family="Helvetica,sans-Serif" font-size="14.00">pressure</text>
</g>
<!-- pressure&#45;&gt;rotate -->
<g id="edge7" class="edge">
<title>pressure&#45;&gt;rotate</title>
<path fill="none" stroke="black" stroke-width="1.2" d="M211.16,-172C223.85,-172 238.01,-172 250.71,-172"/>
<polygon fill="black" stroke="black" stroke-width="1.2" points="250.97,-175.5 260.97,-172 250.97,-168.5 250.97,-175.5"/>
</g>
<!-- err_error2 -->
<g id="node6" class="node">
<title>err_error2</title>
<path fill="white" stroke="black" d="M561.5,-144C561.5,-144 500.5,-144 500.5,-144 494.5,-144 488.5,-138 488.5,-132 488.5,-132 488.5,-120 488.5,-120 488.5,-114 494.5,-108 500.5,-108 500.5,-108 561.5,-108 561.5,-108 567.5,-108 573.5,-114 573.5,-120 573.5,-120 573.5,-132 573.5,-132 573.5,-138 567.5,-144 561.5,-144"/>
<text text-anchor="middle" x="531" y="-122.3" font-family="Helvetica,sans-Serif" font-size="14.00">err_error2</text>
</g>
<!-- vibration&#45;&gt;err_error2 -->
<g id="edge10" class="edge">
<title>vibration&#45;&gt;err_error2</title>
<path fill="none" stroke="black" stroke-width="1.2" d="M446.27,-126C456.43,-126 467.59,-126 478.34,-126"/>
<polygon fill="black" stroke="black" stroke-width="1.2" points="478.48,-129.5 488.48,-126 478.48,-122.5 478.48,-129.5"/>
</g>
<!-- err_error1 -->
<g id="node5" class="node">
<title>err_error1</title>
<path fill="white" stroke="black" d="M79.5,-221C79.5,-221 18.5,-221 18.5,-221 12.5,-221 6.5,-215 6.5,-209 6.5,-209 6.5,-197 6.5,-197 6.5,-191 12.5,-185 18.5,-185 18.5,-185 79.5,-185 79.5,-185 85.5,-185 91.5,-191 91.5,-197 91.5,-197 91.5,-209 91.5,-209 91.5,-215 85.5,-221 79.5,-221"/>
<text text-anchor="middle" x="49" y="-199.3" font-family="Helvetica,sans-Serif" font-size="14.00">err_error1</text>
</g>
<!-- err_error2&#45;&gt;volt -->
<g id="edge2" class="edge">
<title>err_error2&#45;&gt;volt</title>
<path fill="none" stroke="black" stroke-width="1.2" d="M573.59,-115.79C584.26,-113.17 595.66,-110.37 606.03,-107.83"/>
<polygon fill="black" stroke="black" stroke-width="1.2" points="607.11,-111.17 615.99,-105.39 605.44,-104.37 607.11,-111.17"/>
</g>
<!-- err_error3 -->
<g id="node7" class="node">
<title>err_error3</title>
<path fill="white" stroke="black" d="M79.5,-275C79.5,-275 18.5,-275 18.5,-275 12.5,-275 6.5,-269 6.5,-263 6.5,-263 6.5,-251 6.5,-251 6.5,-245 12.5,-239 18.5,-239 18.5,-239 79.5,-239 79.5,-239 85.5,-239 91.5,-245 91.5,-251 91.5,-251 91.5,-263 91.5,-263 91.5,-269 85.5,-275 79.5,-275"/>
<text text-anchor="middle" x="49" y="-253.3" font-family="Helvetica,sans-Serif" font-size="14.00">err_error3</text>
</g>
<!-- err_error4 -->
<g id="node8" class="node">
<title>err_error4</title>
<path fill="white" stroke="black" d="M79.5,-167C79.5,-167 18.5,-167 18.5,-167 12.5,-167 6.5,-161 6.5,-155 6.5,-155 6.5,-143 6.5,-143 6.5,-137 12.5,-131 18.5,-131 18.5,-131 79.5,-131 79.5,-131 85.5,-131 91.5,-137 91.5,-143 91.5,-143 91.5,-155 91.5,-155 91.5,-161 85.5,-167 79.5,-167"/>
<text text-anchor="middle" x="49" y="-145.3" font-family="Helvetica,sans-Serif" font-size="14.00">err_error4</text>
</g>
<!-- err_error4&#45;&gt;pressure -->
<g id="edge9" class="edge">
<title>err_error4&#45;&gt;pressure</title>
<path fill="none" stroke="black" stroke-width="1.2" d="M91.81,-156.92C102.11,-158.87 113.22,-160.97 123.78,-162.97"/>
<polygon fill="black" stroke="black" stroke-width="1.2" points="123.21,-166.42 133.68,-164.84 124.51,-159.54 123.21,-166.42"/>
</g>
<!-- err_error4&#45;&gt;vibration -->
<g id="edge11" class="edge">
<title>err_error4&#45;&gt;vibration</title>
<path fill="none" stroke="black" stroke-width="1.2" d="M91.53,-146.32C157.83,-142.03 287.24,-133.67 357.62,-129.13"/>
<polygon fill="black" stroke="black" stroke-width="1.2" points="358.22,-132.59 367.97,-128.46 357.77,-125.61 358.22,-132.59"/>
</g>
<!-- err_error5 -->
<g id="node9" class="node">
<title>err_error5</title>
<path fill="white" stroke="black" d="M320,-98C320,-98 259,-98 259,-98 253,-98 247,-92 247,-86 247,-86 247,-74 247,-74 247,-68 253,-62 259,-62 259,-62 320,-62 320,-62 326,-62 332,-68 332,-74 332,-74 332,-86 332,-86 332,-92 326,-98 320,-98"/>
<text text-anchor="middle" x="289.5" y="-76.3" font-family="Helvetica,sans-Serif" font-size="14.00">err_error5</text>
</g>
<!-- err_error5&#45;&gt;vibration -->
<g id="edge12" class="edge">
<title>err_error5&#45;&gt;vibration</title>
<path fill="none" stroke="black" stroke-width="1.2" d="M332.2,-96.61C340.74,-100.01 349.79,-103.61 358.52,-107.09"/>
<polygon fill="black" stroke="black" stroke-width="1.2" points="357.24,-110.35 367.82,-110.79 359.83,-103.84 357.24,-110.35"/>
</g>
<!-- mnt_comp2 -->
<g id="node11" class="node">
<title>mnt_comp2</title>
<path fill="white" stroke="black" d="M86,-329C86,-329 12,-329 12,-329 6,-329 0,-323 0,-317 0,-317 0,-305 0,-305 0,-299 6,-293 12,-293 12,-293 86,-293 86,-293 92,-293 98,-299 98,-305 98,-305 98,-317 98,-317 98,-323 92,-329 86,-329"/>
<text text-anchor="middle" x="49" y="-307.3" font-family="Helvetica,sans-Serif" font-size="14.00">mnt_comp2</text>
</g>
<!-- mnt_comp3 -->
<g id="node12" class="node">
<title>mnt_comp3</title>
<path fill="white" stroke="black" d="M568,-90C568,-90 494,-90 494,-90 488,-90 482,-84 482,-78 482,-78 482,-66 482,-66 482,-60 488,-54 494,-54 494,-54 568,-54 568,-54 574,-54 580,-60 580,-66 580,-66 580,-78 580,-78 580,-84 574,-90 568,-90"/>
<text text-anchor="middle" x="531" y="-68.3" font-family="Helvetica,sans-Serif" font-size="14.00">mnt_comp3</text>
</g>
<!-- mnt_comp3&#45;&gt;volt -->
<g id="edge4" class="edge">
<title>mnt_comp3&#45;&gt;volt</title>
<path fill="none" stroke="black" stroke-width="1.2" d="M580.25,-83.84C588.85,-85.95 597.68,-88.12 605.87,-90.13"/>
<polygon fill="black" stroke="black" stroke-width="1.2" points="605.3,-93.6 615.85,-92.58 606.97,-86.8 605.3,-93.6"/>
</g>
<!-- mnt_comp4 -->
<g id="node13" class="node">
<title>mnt_comp4</title>
<path fill="white" stroke="black" d="M568,-36C568,-36 494,-36 494,-36 488,-36 482,-30 482,-24 482,-24 482,-12 482,-12 482,-6 488,0 494,0 494,0 568,0 568,0 574,0 580,-6 580,-12 580,-12 580,-24 580,-24 580,-30 574,-36 568,-36"/>
<text text-anchor="middle" x="531" y="-14.3" font-family="Helvetica,sans-Serif" font-size="14.00">mnt_comp4</text>
</g>
<!-- mnt_comp4&#45;&gt;volt -->
<g id="edge5" class="edge">
<title>mnt_comp4&#45;&gt;volt</title>
<path fill="none" stroke="black" stroke-width="1.2" d="M566.1,-36.04C570.87,-38.88 575.63,-41.91 580,-45 592.39,-53.74 605.17,-64.53 615.89,-74.15"/>
<polygon fill="black" stroke="black" stroke-width="1.2" points="613.54,-76.75 623.29,-80.91 618.26,-71.58 613.54,-76.75"/>
</g>
<!-- fail_comp2 -->
<g id="node15" class="node">
<title>fail_comp2</title>
<path fill="white" stroke="black" d="M83,-383C83,-383 15,-383 15,-383 9,-383 3,-377 3,-371 3,-371 3,-359 3,-359 3,-353 9,-347 15,-347 15,-347 83,-347 83,-347 89,-347 95,-353 95,-359 95,-359 95,-371 95,-371 95,-377 89,-383 83,-383"/>
<text text-anchor="middle" x="49" y="-361.3" font-family="Helvetica,sans-Serif" font-size="14.00">fail_comp2</text>
</g>
<!-- fail_comp3 -->
<g id="node16" class="node">
<title>fail_comp3</title>
<path fill="white" stroke="black" d="M83,-437C83,-437 15,-437 15,-437 9,-437 3,-431 3,-425 3,-425 3,-413 3,-413 3,-407 9,-401 15,-401 15,-401 83,-401 83,-401 89,-401 95,-407 95,-413 95,-413 95,-425 95,-425 95,-431 89,-437 83,-437"/>
<text text-anchor="middle" x="49" y="-415.3" font-family="Helvetica,sans-Serif" font-size="14.00">fail_comp3</text>
</g>
</g>
</svg>
