<?xml version="1.0" encoding="UTF-8" standalone="no"?>
<!DOCTYPE svg PUBLIC "-//W3C//DTD SVG 1.1//EN"
 "http://www.w3.org/Graphics/SVG/1.1/DTD/svg11.dtd">
<!-- Generated by graphviz version 2.50.0 (0)
 -->
<!-- Title: G Pages: 1 -->
<svg width="616pt" height="382pt"
 viewBox="0.00 0.00 616.00 382.00" xmlns="http://www.w3.org/2000/svg" xmlns:xlink="http://www.w3.org/1999/xlink">
<g id="graph0" class="graph" transform="scale(1 1) rotate(0) translate(4 378)">
<title>G</title>
<polygon fill="white" stroke="transparent" points="-4,4 -4,-378 612,-378 612,4 -4,4"/>
<text text-anchor="middle" x="304" y="-357.2" font-family="Times,serif" font-size="16.00">model=model4/pcmci_mixed.json [machine 46]</text>
<!-- volt -->
<g id="node1" class="node">
<title>volt</title>
<path fill="white" stroke="black" d="M198,-132C198,-132 168,-132 168,-132 162,-132 156,-126 156,-120 156,-120 156,-108 156,-108 156,-102 162,-96 168,-96 168,-96 198,-96 198,-96 204,-96 210,-102 210,-108 210,-108 210,-120 210,-120 210,-126 204,-132 198,-132"/>
<text text-anchor="middle" x="183" y="-110.3" font-family="Helvetica,sans-Serif" font-size="14.00">volt</text>
</g>
<!-- rotate -->
<g id="node2" class="node">
<title>rotate</title>
<path fill="white" stroke="black" d="M323.5,-182C323.5,-182 290.5,-182 290.5,-182 284.5,-182 278.5,-176 278.5,-170 278.5,-170 278.5,-158 278.5,-158 278.5,-152 284.5,-146 290.5,-146 290.5,-146 323.5,-146 323.5,-146 329.5,-146 335.5,-152 335.5,-158 335.5,-158 335.5,-170 335.5,-170 335.5,-176 329.5,-182 323.5,-182"/>
<text text-anchor="middle" x="307" y="-160.3" font-family="Helvetica,sans-Serif" font-size="14.00">rotate</text>
</g>
<!-- volt&#45;&gt;rotate -->
<g id="edge1" class="edge">
<title>volt&#45;&gt;rotate</title>
<path fill="none" stroke="black" stroke-width="1.2" d="M210.17,-124.73C227.3,-131.75 249.94,-141.03 268.92,-148.8"/>
<polygon fill="black" stroke="black" stroke-width="1.2" points="267.59,-152.04 278.17,-152.6 270.25,-145.57 267.59,-152.04"/>
</g>
<!-- mnt_comp3 -->
<g id="node12" class="node">
<title>mnt_comp3</title>
<path fill="white" stroke="black" d="M596,-128C596,-128 522,-128 522,-128 516,-128 510,-122 510,-116 510,-116 510,-104 510,-104 510,-98 516,-92 522,-92 522,-92 596,-92 596,-92 602,-92 608,-98 608,-104 608,-104 608,-116 608,-116 608,-122 602,-128 596,-128"/>
<text text-anchor="middle" x="559" y="-106.3" font-family="Helvetica,sans-Serif" font-size="14.00">mnt_comp3</text>
</g>
<!-- volt&#45;&gt;mnt_comp3 -->
<g id="edge5" class="edge">
<title>volt&#45;&gt;mnt_comp3</title>
<path fill="none" stroke="black" stroke-width="1.2" d="M210,-113.72C269.57,-113.08 417.14,-111.51 499.7,-110.62"/>
<polygon fill="black" stroke="black" stroke-width="1.2" points="499.97,-114.12 509.93,-110.51 499.89,-107.12 499.97,-114.12"/>
</g>
<!-- pressure -->
<g id="node3" class="node">
<title>pressure</title>
<path fill="white" stroke="black" d="M454.5,-174C454.5,-174 401.5,-174 401.5,-174 395.5,-174 389.5,-168 389.5,-162 389.5,-162 389.5,-150 389.5,-150 389.5,-144 395.5,-138 401.5,-138 401.5,-138 454.5,-138 454.5,-138 460.5,-138 466.5,-144 466.5,-150 466.5,-150 466.5,-162 466.5,-162 466.5,-168 460.5,-174 454.5,-174"/>
<text text-anchor="middle" x="428" y="-152.3" font-family="Helvetica,sans-Serif" font-size="14.00">pressure</text>
</g>
<!-- rotate&#45;&gt;pressure -->
<g id="edge6" class="edge">
<title>rotate&#45;&gt;pressure</title>
<path fill="none" stroke="black" stroke-width="1.2" d="M335.6,-162.14C348.54,-161.27 364.34,-160.21 379.14,-159.22"/>
<polygon fill="black" stroke="black" stroke-width="1.2" points="379.44,-162.71 389.18,-158.54 378.97,-155.72 379.44,-162.71"/>
</g>
<!-- fail_comp2 -->
<g id="node14" class="node">
<title>fail_comp2</title>
<path fill="white" stroke="black" d="M462,-228C462,-228 394,-228 394,-228 388,-228 382,-222 382,-216 382,-216 382,-204 382,-204 382,-198 388,-192 394,-192 394,-192 462,-192 462,-192 468,-192 474,-198 474,-204 474,-204 474,-216 474,-216 474,-222 468,-228 462,-228"/>
<text text-anchor="middle" x="428" y="-206.3" font-family="Helvetica,sans-Serif" font-size="14.00">fail_comp2</text>
</g>
<!-- rotate&#45;&gt;fail_comp2 -->
<g id="edge9" class="edge">
<title>rotate&#45;&gt;fail_comp2</title>
<path fill="none" stroke="black" stroke-width="1.2" d="M335.6,-174.67C346.54,-178.9 359.53,-183.92 372.23,-188.83"/>
<polygon fill="black" stroke="black" stroke-width="1.2" points="371.25,-192.2 381.84,-192.54 373.78,-185.67 371.25,-192.2"/>
</g>
<!-- pressure&#45;&gt;mnt_comp3 -->
<g id="edge11" class="edge">
<title>pressure&#45;&gt;mnt_comp3</title>
<path fill="none" stroke="black" stroke-width="1.2" d="M466.66,-142.57C477.23,-138.8 488.98,-134.61 500.43,-130.53"/>
<polygon fill="black" stroke="black" stroke-width="1.2" points="501.7,-133.79 509.95,-127.14 499.35,-127.2 501.7,-133.79"/>
</g>
<!-- vibration -->
<g id="node4" class="node">
<title>vibration</title>
<path fill="white" stroke="black" d="M334,-82C334,-82 280,-82 280,-82 274,-82 268,-76 268,-70 268,-70 268,-58 268,-58 268,-52 274,-46 280,-46 280,-46 334,-46 334,-46 340,-46 346,-52 346,-58 346,-58 346,-70 346,-70 346,-76 340,-82 334,-82"/>
<text text-anchor="middle" x="307" y="-60.3" font-family="Helvetica,sans-Serif" font-size="14.00">vibration</text>
</g>
<!-- vibration&#45;&gt;pressure -->
<g id="edge10" class="edge">
<title>vibration&#45;&gt;pressure</title>
<path fill="none" stroke="black" stroke-width="1.2" d="M331.51,-82.18C349.85,-96.35 375.49,-116.17 395.58,-131.71"/>
<polygon fill="black" stroke="black" stroke-width="1.2" points="393.49,-134.51 403.54,-137.86 397.77,-128.98 393.49,-134.51"/>
</g>
<!-- vibration&#45;&gt;mnt_comp3 -->
<g id="edge13" class="edge">
<title>vibration&#45;&gt;mnt_comp3</title>
<path fill="none" stroke="black" stroke-width="1.2" d="M346.24,-71.04C387.15,-78.56 452.51,-90.59 499.81,-99.29"/>
<polygon fill="black" stroke="black" stroke-width="1.2" points="499.44,-102.78 509.91,-101.15 500.71,-95.9 499.44,-102.78"/>
</g>
<!-- err_error1 -->
<g id="node5" class="node">
<title>err_error1</title>
<path fill="white" stroke="black" d="M213.5,-228C213.5,-228 152.5,-228 152.5,-228 146.5,-228 140.5,-222 140.5,-216 140.5,-216 140.5,-204 140.5,-204 140.5,-198 146.5,-192 152.5,-192 152.5,-192 213.5,-192 213.5,-192 219.5,-192 225.5,-198 225.5,-204 225.5,-204 225.5,-216 225.5,-216 225.5,-222 219.5,-228 213.5,-228"/>
<text text-anchor="middle" x="183" y="-206.3" font-family="Helvetica,sans-Serif" font-size="14.00">err_error1</text>
</g>
<!-- err_error1&#45;&gt;rotate -->
<g id="edge7" class="edge">
<title>err_error1&#45;&gt;rotate</title>
<path fill="none" stroke="black" stroke-width="1.2" d="M225.64,-194.3C239.64,-189.02 255.16,-183.17 268.79,-178.03"/>
<polygon fill="black" stroke="black" stroke-width="1.2" points="270.22,-181.23 278.34,-174.43 267.75,-174.68 270.22,-181.23"/>
</g>
<!-- err_error2 -->
<g id="node6" class="node">
<title>err_error2</title>
<path fill="white" stroke="black" d="M79.5,-78C79.5,-78 18.5,-78 18.5,-78 12.5,-78 6.5,-72 6.5,-66 6.5,-66 6.5,-54 6.5,-54 6.5,-48 12.5,-42 18.5,-42 18.5,-42 79.5,-42 79.5,-42 85.5,-42 91.5,-48 91.5,-54 91.5,-54 91.5,-66 91.5,-66 91.5,-72 85.5,-78 79.5,-78"/>
<text text-anchor="middle" x="49" y="-56.3" font-family="Helvetica,sans-Serif" font-size="14.00">err_error2</text>
</g>
<!-- err_error2&#45;&gt;volt -->
<g id="edge2" class="edge">
<title>err_error2&#45;&gt;volt</title>
<path fill="none" stroke="black" stroke-width="1.2" d="M91.77,-77.09C109.32,-84.27 129.53,-92.53 146.36,-99.42"/>
<polygon fill="black" stroke="black" stroke-width="1.2" points="145.26,-102.75 155.84,-103.3 147.91,-96.27 145.26,-102.75"/>
</g>
<!-- err_error2&#45;&gt;vibration -->
<g id="edge12" class="edge">
<title>err_error2&#45;&gt;vibration</title>
<path fill="none" stroke="black" stroke-width="1.2" d="M91.7,-60.65C137.11,-61.36 209.63,-62.49 257.54,-63.24"/>
<polygon fill="black" stroke="black" stroke-width="1.2" points="257.61,-66.74 267.67,-63.4 257.72,-59.75 257.61,-66.74"/>
</g>
<!-- err_error3 -->
<g id="node7" class="node">
<title>err_error3</title>
<path fill="white" stroke="black" d="M79.5,-186C79.5,-186 18.5,-186 18.5,-186 12.5,-186 6.5,-180 6.5,-174 6.5,-174 6.5,-162 6.5,-162 6.5,-156 12.5,-150 18.5,-150 18.5,-150 79.5,-150 79.5,-150 85.5,-150 91.5,-156 91.5,-162 91.5,-162 91.5,-174 91.5,-174 91.5,-180 85.5,-186 79.5,-186"/>
<text text-anchor="middle" x="49" y="-164.3" font-family="Helvetica,sans-Serif" font-size="14.00">err_error3</text>
</g>
<!-- err_error3&#45;&gt;volt -->
<g id="edge3" class="edge">
<title>err_error3&#45;&gt;volt</title>
<path fill="none" stroke="black" stroke-width="1.2" d="M91.77,-150.91C109.32,-143.73 129.53,-135.47 146.36,-128.58"/>
<polygon fill="black" stroke="black" stroke-width="1.2" points="147.91,-131.73 155.84,-124.7 145.26,-125.25 147.91,-131.73"/>
</g>
<!-- err_error3&#45;&gt;rotate -->
<g id="edge8" class="edge">
<title>err_error3&#45;&gt;rotate</title>
<path fill="none" stroke="black" stroke-width="1.2" d="M91.7,-167.35C140.57,-166.58 220.85,-165.33 268.04,-164.59"/>
<polygon fill="black" stroke="black" stroke-width="1.2" points="268.21,-168.09 278.15,-164.44 268.1,-161.09 268.21,-168.09"/>
</g>
<!-- err_error4 -->
<g id="node8" class="node">
<title>err_error4</title>
<path fill="white" stroke="black" d="M79.5,-240C79.5,-240 18.5,-240 18.5,-240 12.5,-240 6.5,-234 6.5,-228 6.5,-228 6.5,-216 6.5,-216 6.5,-210 12.5,-204 18.5,-204 18.5,-204 79.5,-204 79.5,-204 85.5,-204 91.5,-210 91.5,-216 91.5,-216 91.5,-228 91.5,-228 91.5,-234 85.5,-240 79.5,-240"/>
<text text-anchor="middle" x="49" y="-218.3" font-family="Helvetica,sans-Serif" font-size="14.00">err_error4</text>
</g>
<!-- err_error5 -->
<g id="node9" class="node">
<title>err_error5</title>
<path fill="white" stroke="black" d="M79.5,-294C79.5,-294 18.5,-294 18.5,-294 12.5,-294 6.5,-288 6.5,-282 6.5,-282 6.5,-270 6.5,-270 6.5,-264 12.5,-258 18.5,-258 18.5,-258 79.5,-258 79.5,-258 85.5,-258 91.5,-264 91.5,-270 91.5,-270 91.5,-282 91.5,-282 91.5,-288 85.5,-294 79.5,-294"/>
<text text-anchor="middle" x="49" y="-272.3" font-family="Helvetica,sans-Serif" font-size="14.00">err_error5</text>
</g>
<!-- mnt_comp1 -->
<g id="node10" class="node">
<title>mnt_comp1</title>
<path fill="white" stroke="black" d="M86,-348C86,-348 12,-348 12,-348 6,-348 0,-342 0,-336 0,-336 0,-324 0,-324 0,-318 6,-312 12,-312 12,-312 86,-312 86,-312 92,-312 98,-318 98,-324 98,-324 98,-336 98,-336 98,-342 92,-348 86,-348"/>
<text text-anchor="middle" x="49" y="-326.3" font-family="Helvetica,sans-Serif" font-size="14.00">mnt_comp1</text>
</g>
<!-- mnt_comp2 -->
<g id="node11" class="node">
<title>mnt_comp2</title>
<path fill="white" stroke="black" d="M86,-132C86,-132 12,-132 12,-132 6,-132 0,-126 0,-120 0,-120 0,-108 0,-108 0,-102 6,-96 12,-96 12,-96 86,-96 86,-96 92,-96 98,-102 98,-108 98,-108 98,-120 98,-120 98,-126 92,-132 86,-132"/>
<text text-anchor="middle" x="49" y="-110.3" font-family="Helvetica,sans-Serif" font-size="14.00">mnt_comp2</text>
</g>
<!-- mnt_comp2&#45;&gt;volt -->
<g id="edge4" class="edge">
<title>mnt_comp2&#45;&gt;volt</title>
<path fill="none" stroke="black" stroke-width="1.2" d="M98.03,-114C113.69,-114 130.81,-114 145.48,-114"/>
<polygon fill="black" stroke="black" stroke-width="1.2" points="145.68,-117.5 155.68,-114 145.68,-110.5 145.68,-117.5"/>
</g>
<!-- mnt_comp4 -->
<g id="node13" class="node">
<title>mnt_comp4</title>
<path fill="white" stroke="black" d="M220,-36C220,-36 146,-36 146,-36 140,-36 134,-30 134,-24 134,-24 134,-12 134,-12 134,-6 140,0 146,0 146,0 220,0 220,0 226,0 232,-6 232,-12 232,-12 232,-24 232,-24 232,-30 226,-36 220,-36"/>
<text text-anchor="middle" x="183" y="-14.3" font-family="Helvetica,sans-Serif" font-size="14.00">mnt_comp4</text>
</g>
<!-- mnt_comp4&#45;&gt;vibration -->
<g id="edge14" class="edge">
<title>mnt_comp4&#45;&gt;vibration</title>
<path fill="none" stroke="black" stroke-width="1.2" d="M231.87,-36.05C240.5,-39.3 249.5,-42.7 258.14,-45.95"/>
<polygon fill="black" stroke="black" stroke-width="1.2" points="257.1,-49.3 267.69,-49.55 259.57,-42.75 257.1,-49.3"/>
</g>
</g>
</svg>
