<?xml version="1.0" encoding="UTF-8" standalone="no"?>
<!DOCTYPE svg PUBLIC "-//W3C//DTD SVG 1.1//EN"
 "http://www.w3.org/Graphics/SVG/1.1/DTD/svg11.dtd">
<!-- Generated by graphviz version 2.50.0 (0)
 -->
<!-- Title: G Pages: 1 -->
<svg width="468pt" height="528pt"
 viewBox="0.00 0.00 468.00 528.00" xmlns="http://www.w3.org/2000/svg" xmlns:xlink="http://www.w3.org/1999/xlink">
<g id="graph0" class="graph" transform="scale(1 1) rotate(0) translate(4 524)">
<title>G</title>
<polygon fill="white" stroke="transparent" points="-4,4 -4,-524 464,-524 464,4 -4,4"/>
<text text-anchor="middle" x="230" y="-503.2" font-family="Times,serif" font-size="16.00">model=model1/pcmci_mixed.json [machine 16]</text>
<!-- volt -->
<g id="node1" class="node">
<title>volt</title>
<path fill="white" stroke="black" d="M64,-278C64,-278 34,-278 34,-278 28,-278 22,-272 22,-266 22,-266 22,-254 22,-254 22,-248 28,-242 34,-242 34,-242 64,-242 64,-242 70,-242 76,-248 76,-254 76,-254 76,-266 76,-266 76,-272 70,-278 64,-278"/>
<text text-anchor="middle" x="49" y="-256.3" font-family="Helvetica,sans-Serif" font-size="14.00">volt</text>
</g>
<!-- rotate -->
<g id="node2" class="node">
<title>rotate</title>
<path fill="white" stroke="black" d="M196.5,-94C196.5,-94 163.5,-94 163.5,-94 157.5,-94 151.5,-88 151.5,-82 151.5,-82 151.5,-70 151.5,-70 151.5,-64 157.5,-58 163.5,-58 163.5,-58 196.5,-58 196.5,-58 202.5,-58 208.5,-64 208.5,-70 208.5,-70 208.5,-82 208.5,-82 208.5,-88 202.5,-94 196.5,-94"/>
<text text-anchor="middle" x="180" y="-72.3" font-family="Helvetica,sans-Serif" font-size="14.00">rotate</text>
</g>
<!-- volt&#45;&gt;rotate -->
<g id="edge1" class="edge">
<title>volt&#45;&gt;rotate</title>
<path fill="none" stroke="black" stroke-width="1.2" d="M62.84,-241.68C85.73,-209.03 133.68,-140.65 160.26,-102.74"/>
<polygon fill="black" stroke="black" stroke-width="1.2" points="163.34,-104.44 166.21,-94.24 157.6,-100.42 163.34,-104.44"/>
</g>
<!-- err_error1 -->
<g id="node5" class="node">
<title>err_error1</title>
<path fill="white" stroke="black" d="M210.5,-386C210.5,-386 149.5,-386 149.5,-386 143.5,-386 137.5,-380 137.5,-374 137.5,-374 137.5,-362 137.5,-362 137.5,-356 143.5,-350 149.5,-350 149.5,-350 210.5,-350 210.5,-350 216.5,-350 222.5,-356 222.5,-362 222.5,-362 222.5,-374 222.5,-374 222.5,-380 216.5,-386 210.5,-386"/>
<text text-anchor="middle" x="180" y="-364.3" font-family="Helvetica,sans-Serif" font-size="14.00">err_error1</text>
</g>
<!-- volt&#45;&gt;err_error1 -->
<g id="edge2" class="edge">
<title>volt&#45;&gt;err_error1</title>
<path fill="none" stroke="black" stroke-width="1.2" d="M76.41,-271.96C83.88,-276.08 91.69,-281.15 98,-287 119.15,-306.61 113.12,-321.09 134,-341 134.93,-341.88 135.89,-342.75 136.88,-343.6"/>
<polygon fill="black" stroke="black" stroke-width="1.2" points="134.83,-346.45 144.88,-349.79 139.11,-340.91 134.83,-346.45"/>
</g>
<!-- err_error5 -->
<g id="node9" class="node">
<title>err_error5</title>
<path fill="white" stroke="black" d="M210.5,-332C210.5,-332 149.5,-332 149.5,-332 143.5,-332 137.5,-326 137.5,-320 137.5,-320 137.5,-308 137.5,-308 137.5,-302 143.5,-296 149.5,-296 149.5,-296 210.5,-296 210.5,-296 216.5,-296 222.5,-302 222.5,-308 222.5,-308 222.5,-320 222.5,-320 222.5,-326 216.5,-332 210.5,-332"/>
<text text-anchor="middle" x="180" y="-310.3" font-family="Helvetica,sans-Serif" font-size="14.00">err_error5</text>
</g>
<!-- volt&#45;&gt;err_error5 -->
<g id="edge4" class="edge">
<title>volt&#45;&gt;err_error5</title>
<path fill="none" stroke="black" stroke-width="1.2" d="M76.11,-270.93C90.95,-277.14 110.06,-285.14 127.78,-292.56"/>
<polygon fill="black" stroke="black" stroke-width="1.2" points="126.87,-295.97 137.44,-296.6 129.57,-289.51 126.87,-295.97"/>
</g>
<!-- fail_comp1 -->
<g id="node14" class="node">
<title>fail_comp1</title>
<path fill="white" stroke="black" d="M214,-278C214,-278 146,-278 146,-278 140,-278 134,-272 134,-266 134,-266 134,-254 134,-254 134,-248 140,-242 146,-242 146,-242 214,-242 214,-242 220,-242 226,-248 226,-254 226,-254 226,-266 226,-266 226,-272 220,-278 214,-278"/>
<text text-anchor="middle" x="180" y="-256.3" font-family="Helvetica,sans-Serif" font-size="14.00">fail_comp1</text>
</g>
<!-- volt&#45;&gt;fail_comp1 -->
<g id="edge5" class="edge">
<title>volt&#45;&gt;fail_comp1</title>
<path fill="none" stroke="black" stroke-width="1.2" d="M76.11,-260C89.82,-260 107.18,-260 123.72,-260"/>
<polygon fill="black" stroke="black" stroke-width="1.2" points="123.87,-263.5 133.87,-260 123.87,-256.5 123.87,-263.5"/>
</g>
<!-- err_error4 -->
<g id="node8" class="node">
<title>err_error4</title>
<path fill="white" stroke="black" d="M335,-170C335,-170 274,-170 274,-170 268,-170 262,-164 262,-158 262,-158 262,-146 262,-146 262,-140 268,-134 274,-134 274,-134 335,-134 335,-134 341,-134 347,-140 347,-146 347,-146 347,-158 347,-158 347,-164 341,-170 335,-170"/>
<text text-anchor="middle" x="304.5" y="-148.3" font-family="Helvetica,sans-Serif" font-size="14.00">err_error4</text>
</g>
<!-- rotate&#45;&gt;err_error4 -->
<g id="edge9" class="edge">
<title>rotate&#45;&gt;err_error4</title>
<path fill="none" stroke="black" stroke-width="1.2" d="M208.8,-93.25C225.54,-103.63 247.09,-117.01 265.41,-128.37"/>
<polygon fill="black" stroke="black" stroke-width="1.2" points="263.76,-131.47 274.1,-133.76 267.45,-125.52 263.76,-131.47"/>
</g>
<!-- pressure -->
<g id="node3" class="node">
<title>pressure</title>
<path fill="white" stroke="black" d="M448,-170C448,-170 395,-170 395,-170 389,-170 383,-164 383,-158 383,-158 383,-146 383,-146 383,-140 389,-134 395,-134 395,-134 448,-134 448,-134 454,-134 460,-140 460,-146 460,-146 460,-158 460,-158 460,-164 454,-170 448,-170"/>
<text text-anchor="middle" x="421.5" y="-148.3" font-family="Helvetica,sans-Serif" font-size="14.00">pressure</text>
</g>
<!-- pressure&#45;&gt;rotate -->
<g id="edge6" class="edge">
<title>pressure&#45;&gt;rotate</title>
<path fill="none" stroke="black" stroke-width="1.2" d="M382.9,-137.65C371.43,-133.42 358.74,-128.89 347,-125 303.31,-110.54 252.48,-95.85 218.69,-86.37"/>
<polygon fill="black" stroke="black" stroke-width="1.2" points="219.35,-82.92 208.78,-83.6 217.47,-89.66 219.35,-82.92"/>
</g>
<!-- vibration -->
<g id="node4" class="node">
<title>vibration</title>
<path fill="white" stroke="black" d="M331.5,-231C331.5,-231 277.5,-231 277.5,-231 271.5,-231 265.5,-225 265.5,-219 265.5,-219 265.5,-207 265.5,-207 265.5,-201 271.5,-195 277.5,-195 277.5,-195 331.5,-195 331.5,-195 337.5,-195 343.5,-201 343.5,-207 343.5,-207 343.5,-219 343.5,-219 343.5,-225 337.5,-231 331.5,-231"/>
<text text-anchor="middle" x="304.5" y="-209.3" font-family="Helvetica,sans-Serif" font-size="14.00">vibration</text>
</g>
<!-- err_error1&#45;&gt;pressure -->
<g id="edge11" class="edge">
<title>err_error1&#45;&gt;pressure</title>
<path fill="none" stroke="black" stroke-width="1.2" d="M212.87,-349.72C217.35,-346.91 221.84,-343.96 226,-341 283.09,-300.41 297.46,-289.53 347,-240 366.48,-220.53 386.37,-196.4 400.54,-178.33"/>
<polygon fill="black" stroke="black" stroke-width="1.2" points="403.64,-180.05 407.01,-170 398.11,-175.75 403.64,-180.05"/>
</g>
<!-- err_error1&#45;&gt;vibration -->
<g id="edge13" class="edge">
<title>err_error1&#45;&gt;vibration</title>
<path fill="none" stroke="black" stroke-width="1.2" d="M215.25,-349.93C219.09,-347.2 222.77,-344.21 226,-341 255.64,-311.48 278.65,-268.46 291.65,-240.6"/>
<polygon fill="black" stroke="black" stroke-width="1.2" points="294.87,-241.97 295.82,-231.42 288.5,-239.07 294.87,-241.97"/>
</g>
<!-- err_error2 -->
<g id="node6" class="node">
<title>err_error2</title>
<path fill="white" stroke="black" d="M79.5,-36C79.5,-36 18.5,-36 18.5,-36 12.5,-36 6.5,-30 6.5,-24 6.5,-24 6.5,-12 6.5,-12 6.5,-6 12.5,0 18.5,0 18.5,0 79.5,0 79.5,0 85.5,0 91.5,-6 91.5,-12 91.5,-12 91.5,-24 91.5,-24 91.5,-30 85.5,-36 79.5,-36"/>
<text text-anchor="middle" x="49" y="-14.3" font-family="Helvetica,sans-Serif" font-size="14.00">err_error2</text>
</g>
<!-- err_error2&#45;&gt;rotate -->
<g id="edge7" class="edge">
<title>err_error2&#45;&gt;rotate</title>
<path fill="none" stroke="black" stroke-width="1.2" d="M90.11,-36.03C106.68,-43.48 125.77,-52.07 142,-59.36"/>
<polygon fill="black" stroke="black" stroke-width="1.2" points="140.63,-62.58 151.18,-63.49 143.5,-56.2 140.63,-62.58"/>
</g>
<!-- err_error3 -->
<g id="node7" class="node">
<title>err_error3</title>
<path fill="white" stroke="black" d="M79.5,-144C79.5,-144 18.5,-144 18.5,-144 12.5,-144 6.5,-138 6.5,-132 6.5,-132 6.5,-120 6.5,-120 6.5,-114 12.5,-108 18.5,-108 18.5,-108 79.5,-108 79.5,-108 85.5,-108 91.5,-114 91.5,-120 91.5,-120 91.5,-132 91.5,-132 91.5,-138 85.5,-144 79.5,-144"/>
<text text-anchor="middle" x="49" y="-122.3" font-family="Helvetica,sans-Serif" font-size="14.00">err_error3</text>
</g>
<!-- err_error3&#45;&gt;rotate -->
<g id="edge8" class="edge">
<title>err_error3&#45;&gt;rotate</title>
<path fill="none" stroke="black" stroke-width="1.2" d="M91.53,-109.9C107.75,-103.62 126.21,-96.46 141.97,-90.35"/>
<polygon fill="black" stroke="black" stroke-width="1.2" points="143.33,-93.58 151.39,-86.7 140.8,-87.05 143.33,-93.58"/>
</g>
<!-- err_error3&#45;&gt;vibration -->
<g id="edge14" class="edge">
<title>err_error3&#45;&gt;vibration</title>
<path fill="none" stroke="black" stroke-width="1.2" d="M91.72,-137.03C127.68,-146.9 180.78,-162.34 226,-179 235.82,-182.62 246.18,-186.86 256.01,-191.09"/>
<polygon fill="black" stroke="black" stroke-width="1.2" points="254.68,-194.32 265.24,-195.12 257.48,-187.91 254.68,-194.32"/>
</g>
<!-- err_error4&#45;&gt;volt -->
<g id="edge3" class="edge">
<title>err_error4&#45;&gt;volt</title>
<path fill="none" stroke="black" stroke-width="1.2" d="M261.67,-151.77C226,-153.13 174.27,-158.92 134,-179 108.22,-191.86 85.16,-215.43 69.75,-233.84"/>
<polygon fill="black" stroke="black" stroke-width="1.2" points="66.81,-231.91 63.23,-241.88 72.25,-236.32 66.81,-231.91"/>
</g>
<!-- err_error4&#45;&gt;pressure -->
<g id="edge12" class="edge">
<title>err_error4&#45;&gt;pressure</title>
<path fill="none" stroke="black" stroke-width="1.2" d="M347.02,-152C355.34,-152 364.15,-152 372.67,-152"/>
<polygon fill="black" stroke="black" stroke-width="1.2" points="372.86,-155.5 382.86,-152 372.86,-148.5 372.86,-155.5"/>
</g>
<!-- err_error5&#45;&gt;vibration -->
<g id="edge15" class="edge">
<title>err_error5&#45;&gt;vibration</title>
<path fill="none" stroke="black" stroke-width="1.2" d="M213.05,-295.97C217.51,-293.13 221.94,-290.09 226,-287 245.15,-272.4 264.75,-253.65 279.44,-238.67"/>
<polygon fill="black" stroke="black" stroke-width="1.2" points="282.21,-240.85 286.65,-231.23 277.18,-235.98 282.21,-240.85"/>
</g>
<!-- mnt_comp1 -->
<g id="node10" class="node">
<title>mnt_comp1</title>
<path fill="white" stroke="black" d="M86,-332C86,-332 12,-332 12,-332 6,-332 0,-326 0,-320 0,-320 0,-308 0,-308 0,-302 6,-296 12,-296 12,-296 86,-296 86,-296 92,-296 98,-302 98,-308 98,-308 98,-320 98,-320 98,-326 92,-332 86,-332"/>
<text text-anchor="middle" x="49" y="-310.3" font-family="Helvetica,sans-Serif" font-size="14.00">mnt_comp1</text>
</g>
<!-- mnt_comp2 -->
<g id="node11" class="node">
<title>mnt_comp2</title>
<path fill="white" stroke="black" d="M86,-386C86,-386 12,-386 12,-386 6,-386 0,-380 0,-374 0,-374 0,-362 0,-362 0,-356 6,-350 12,-350 12,-350 86,-350 86,-350 92,-350 98,-356 98,-362 98,-362 98,-374 98,-374 98,-380 92,-386 86,-386"/>
<text text-anchor="middle" x="49" y="-364.3" font-family="Helvetica,sans-Serif" font-size="14.00">mnt_comp2</text>
</g>
<!-- mnt_comp3 -->
<g id="node12" class="node">
<title>mnt_comp3</title>
<path fill="white" stroke="black" d="M86,-440C86,-440 12,-440 12,-440 6,-440 0,-434 0,-428 0,-428 0,-416 0,-416 0,-410 6,-404 12,-404 12,-404 86,-404 86,-404 92,-404 98,-410 98,-416 98,-416 98,-428 98,-428 98,-434 92,-440 86,-440"/>
<text text-anchor="middle" x="49" y="-418.3" font-family="Helvetica,sans-Serif" font-size="14.00">mnt_comp3</text>
</g>
<!-- mnt_comp4 -->
<g id="node13" class="node">
<title>mnt_comp4</title>
<path fill="white" stroke="black" d="M86,-494C86,-494 12,-494 12,-494 6,-494 0,-488 0,-482 0,-482 0,-470 0,-470 0,-464 6,-458 12,-458 12,-458 86,-458 86,-458 92,-458 98,-464 98,-470 98,-470 98,-482 98,-482 98,-488 92,-494 86,-494"/>
<text text-anchor="middle" x="49" y="-472.3" font-family="Helvetica,sans-Serif" font-size="14.00">mnt_comp4</text>
</g>
<!-- fail_comp2 -->
<g id="node15" class="node">
<title>fail_comp2</title>
<path fill="white" stroke="black" d="M83,-90C83,-90 15,-90 15,-90 9,-90 3,-84 3,-78 3,-78 3,-66 3,-66 3,-60 9,-54 15,-54 15,-54 83,-54 83,-54 89,-54 95,-60 95,-66 95,-66 95,-78 95,-78 95,-84 89,-90 83,-90"/>
<text text-anchor="middle" x="49" y="-68.3" font-family="Helvetica,sans-Serif" font-size="14.00">fail_comp2</text>
</g>
<!-- fail_comp2&#45;&gt;rotate -->
<g id="edge10" class="edge">
<title>fail_comp2&#45;&gt;rotate</title>
<path fill="none" stroke="black" stroke-width="1.2" d="M95.12,-73.4C110.2,-73.87 126.85,-74.38 141.3,-74.83"/>
<polygon fill="black" stroke="black" stroke-width="1.2" points="141.29,-78.33 151.39,-75.14 141.5,-71.34 141.29,-78.33"/>
</g>
<!-- fail_comp3 -->
<g id="node16" class="node">
<title>fail_comp3</title>
<path fill="white" stroke="black" d="M214,-224C214,-224 146,-224 146,-224 140,-224 134,-218 134,-212 134,-212 134,-200 134,-200 134,-194 140,-188 146,-188 146,-188 214,-188 214,-188 220,-188 226,-194 226,-200 226,-200 226,-212 226,-212 226,-218 220,-224 214,-224"/>
<text text-anchor="middle" x="180" y="-202.3" font-family="Helvetica,sans-Serif" font-size="14.00">fail_comp3</text>
</g>
<!-- fail_comp3&#45;&gt;vibration -->
<g id="edge16" class="edge">
<title>fail_comp3&#45;&gt;vibration</title>
<path fill="none" stroke="black" stroke-width="1.2" d="M226.27,-208.59C235.68,-209.12 245.63,-209.69 255.14,-210.24"/>
<polygon fill="black" stroke="black" stroke-width="1.2" points="255.07,-213.74 265.25,-210.81 255.47,-206.75 255.07,-213.74"/>
</g>
</g>
</svg>
