<?xml version="1.0" encoding="UTF-8" standalone="no"?>
<!DOCTYPE svg PUBLIC "-//W3C//DTD SVG 1.1//EN"
 "http://www.w3.org/Graphics/SVG/1.1/DTD/svg11.dtd">
<!-- Generated by graphviz version 2.50.0 (0)
 -->
<!-- Title: G Pages: 1 -->
<svg width="413pt" height="461pt"
 viewBox="0.00 0.00 413.00 461.00" xmlns="http://www.w3.org/2000/svg" xmlns:xlink="http://www.w3.org/1999/xlink">
<g id="graph0" class="graph" transform="scale(1 1) rotate(0) translate(4 457)">
<title>G</title>
<polygon fill="white" stroke="transparent" points="-4,4 -4,-457 409,-457 409,4 -4,4"/>
<text text-anchor="middle" x="202.5" y="-436.2" font-family="Times,serif" font-size="16.00">model=model3/pcmci_mixed.json [machine 27]</text>
<!-- volt -->
<g id="node1" class="node">
<title>volt</title>
<path fill="white" stroke="black" d="M220.5,-36C220.5,-36 190.5,-36 190.5,-36 184.5,-36 178.5,-30 178.5,-24 178.5,-24 178.5,-12 178.5,-12 178.5,-6 184.5,0 190.5,0 190.5,0 220.5,0 220.5,0 226.5,0 232.5,-6 232.5,-12 232.5,-12 232.5,-24 232.5,-24 232.5,-30 226.5,-36 220.5,-36"/>
<text text-anchor="middle" x="205.5" y="-14.3" font-family="Helvetica,sans-Serif" font-size="14.00">volt</text>
</g>
<!-- fail_comp1 -->
<g id="node14" class="node">
<title>fail_comp1</title>
<path fill="white" stroke="black" d="M360.5,-36C360.5,-36 292.5,-36 292.5,-36 286.5,-36 280.5,-30 280.5,-24 280.5,-24 280.5,-12 280.5,-12 280.5,-6 286.5,0 292.5,0 292.5,0 360.5,0 360.5,0 366.5,0 372.5,-6 372.5,-12 372.5,-12 372.5,-24 372.5,-24 372.5,-30 366.5,-36 360.5,-36"/>
<text text-anchor="middle" x="326.5" y="-14.3" font-family="Helvetica,sans-Serif" font-size="14.00">fail_comp1</text>
</g>
<!-- volt&#45;&gt;fail_comp1 -->
<g id="edge2" class="edge">
<title>volt&#45;&gt;fail_comp1</title>
<path fill="none" stroke="black" stroke-width="1.2" d="M232.62,-18C243.63,-18 256.9,-18 269.92,-18"/>
<polygon fill="black" stroke="black" stroke-width="1.2" points="270.25,-21.5 280.25,-18 270.25,-14.5 270.25,-21.5"/>
</g>
<!-- rotate -->
<g id="node2" class="node">
<title>rotate</title>
<path fill="white" stroke="black" d="M222,-191C222,-191 189,-191 189,-191 183,-191 177,-185 177,-179 177,-179 177,-167 177,-167 177,-161 183,-155 189,-155 189,-155 222,-155 222,-155 228,-155 234,-161 234,-167 234,-167 234,-179 234,-179 234,-185 228,-191 222,-191"/>
<text text-anchor="middle" x="205.5" y="-169.3" font-family="Helvetica,sans-Serif" font-size="14.00">rotate</text>
</g>
<!-- err_error2 -->
<g id="node6" class="node">
<title>err_error2</title>
<path fill="white" stroke="black" d="M357,-178C357,-178 296,-178 296,-178 290,-178 284,-172 284,-166 284,-166 284,-154 284,-154 284,-148 290,-142 296,-142 296,-142 357,-142 357,-142 363,-142 369,-148 369,-154 369,-154 369,-166 369,-166 369,-172 363,-178 357,-178"/>
<text text-anchor="middle" x="326.5" y="-156.3" font-family="Helvetica,sans-Serif" font-size="14.00">err_error2</text>
</g>
<!-- rotate&#45;&gt;err_error2 -->
<g id="edge4" class="edge">
<title>rotate&#45;&gt;err_error2</title>
<path fill="none" stroke="black" stroke-width="1.2" d="M234.1,-169.98C245.81,-168.71 259.86,-167.17 273.39,-165.69"/>
<polygon fill="black" stroke="black" stroke-width="1.2" points="274.03,-169.14 283.59,-164.58 273.27,-162.19 274.03,-169.14"/>
</g>
<!-- fail_comp2 -->
<g id="node15" class="node">
<title>fail_comp2</title>
<path fill="white" stroke="black" d="M360.5,-232C360.5,-232 292.5,-232 292.5,-232 286.5,-232 280.5,-226 280.5,-220 280.5,-220 280.5,-208 280.5,-208 280.5,-202 286.5,-196 292.5,-196 292.5,-196 360.5,-196 360.5,-196 366.5,-196 372.5,-202 372.5,-208 372.5,-208 372.5,-220 372.5,-220 372.5,-226 366.5,-232 360.5,-232"/>
<text text-anchor="middle" x="326.5" y="-210.3" font-family="Helvetica,sans-Serif" font-size="14.00">fail_comp2</text>
</g>
<!-- rotate&#45;&gt;fail_comp2 -->
<g id="edge8" class="edge">
<title>rotate&#45;&gt;fail_comp2</title>
<path fill="none" stroke="black" stroke-width="1.2" d="M234.1,-182.51C245.04,-186.28 258.03,-190.75 270.73,-195.13"/>
<polygon fill="black" stroke="black" stroke-width="1.2" points="269.75,-198.49 280.34,-198.44 272.03,-191.87 269.75,-198.49"/>
</g>
<!-- pressure -->
<g id="node3" class="node">
<title>pressure</title>
<path fill="white" stroke="black" d="M108,-157C108,-157 55,-157 55,-157 49,-157 43,-151 43,-145 43,-145 43,-133 43,-133 43,-127 49,-121 55,-121 55,-121 108,-121 108,-121 114,-121 120,-127 120,-133 120,-133 120,-145 120,-145 120,-151 114,-157 108,-157"/>
<text text-anchor="middle" x="81.5" y="-135.3" font-family="Helvetica,sans-Serif" font-size="14.00">pressure</text>
</g>
<!-- pressure&#45;&gt;rotate -->
<g id="edge3" class="edge">
<title>pressure&#45;&gt;rotate</title>
<path fill="none" stroke="black" stroke-width="1.2" d="M120.1,-149.48C135,-153.63 152.1,-158.4 167,-162.55"/>
<polygon fill="black" stroke="black" stroke-width="1.2" points="166.33,-166 176.9,-165.31 168.21,-159.25 166.33,-166"/>
</g>
<!-- vibration -->
<g id="node4" class="node">
<title>vibration</title>
<path fill="white" stroke="black" d="M232.5,-117C232.5,-117 178.5,-117 178.5,-117 172.5,-117 166.5,-111 166.5,-105 166.5,-105 166.5,-93 166.5,-93 166.5,-87 172.5,-81 178.5,-81 178.5,-81 232.5,-81 232.5,-81 238.5,-81 244.5,-87 244.5,-93 244.5,-93 244.5,-105 244.5,-105 244.5,-111 238.5,-117 232.5,-117"/>
<text text-anchor="middle" x="205.5" y="-95.3" font-family="Helvetica,sans-Serif" font-size="14.00">vibration</text>
</g>
<!-- pressure&#45;&gt;vibration -->
<g id="edge9" class="edge">
<title>pressure&#45;&gt;vibration</title>
<path fill="none" stroke="black" stroke-width="1.2" d="M120.1,-126.67C131.7,-122.87 144.63,-118.63 156.82,-114.63"/>
<polygon fill="black" stroke="black" stroke-width="1.2" points="157.98,-117.94 166.39,-111.49 155.8,-111.28 157.98,-117.94"/>
</g>
<!-- err_error1 -->
<g id="node5" class="node">
<title>err_error1</title>
<path fill="white" stroke="black" d="M357,-117C357,-117 296,-117 296,-117 290,-117 284,-111 284,-105 284,-105 284,-93 284,-93 284,-87 290,-81 296,-81 296,-81 357,-81 357,-81 363,-81 369,-87 369,-93 369,-93 369,-105 369,-105 369,-111 363,-117 357,-117"/>
<text text-anchor="middle" x="326.5" y="-95.3" font-family="Helvetica,sans-Serif" font-size="14.00">err_error1</text>
</g>
<!-- vibration&#45;&gt;err_error1 -->
<g id="edge10" class="edge">
<title>vibration&#45;&gt;err_error1</title>
<path fill="none" stroke="black" stroke-width="1.2" d="M244.81,-99C254.09,-99 264.16,-99 273.93,-99"/>
<polygon fill="black" stroke="black" stroke-width="1.2" points="273.97,-102.5 283.97,-99 273.97,-95.5 273.97,-102.5"/>
</g>
<!-- err_error3 -->
<g id="node7" class="node">
<title>err_error3</title>
<path fill="white" stroke="black" d="M112,-265C112,-265 51,-265 51,-265 45,-265 39,-259 39,-253 39,-253 39,-241 39,-241 39,-235 45,-229 51,-229 51,-229 112,-229 112,-229 118,-229 124,-235 124,-241 124,-241 124,-253 124,-253 124,-259 118,-265 112,-265"/>
<text text-anchor="middle" x="81.5" y="-243.3" font-family="Helvetica,sans-Serif" font-size="14.00">err_error3</text>
</g>
<!-- err_error3&#45;&gt;rotate -->
<g id="edge5" class="edge">
<title>err_error3&#45;&gt;rotate</title>
<path fill="none" stroke="black" stroke-width="1.2" d="M115.17,-228.93C120.32,-225.99 125.58,-222.95 130.5,-220 143.01,-212.52 156.51,-204.06 168.52,-196.4"/>
<polygon fill="black" stroke="black" stroke-width="1.2" points="170.43,-199.33 176.96,-190.99 166.65,-193.44 170.43,-199.33"/>
</g>
<!-- err_error4 -->
<g id="node8" class="node">
<title>err_error4</title>
<path fill="white" stroke="black" d="M112,-103C112,-103 51,-103 51,-103 45,-103 39,-97 39,-91 39,-91 39,-79 39,-79 39,-73 45,-67 51,-67 51,-67 112,-67 112,-67 118,-67 124,-73 124,-79 124,-79 124,-91 124,-91 124,-97 118,-103 112,-103"/>
<text text-anchor="middle" x="81.5" y="-81.3" font-family="Helvetica,sans-Serif" font-size="14.00">err_error4</text>
</g>
<!-- err_error4&#45;&gt;rotate -->
<g id="edge6" class="edge">
<title>err_error4&#45;&gt;rotate</title>
<path fill="none" stroke="black" stroke-width="1.2" d="M116.53,-103.15C121.3,-105.98 126.08,-108.97 130.5,-112 146.57,-123.02 163.41,-136.71 176.96,-148.33"/>
<polygon fill="black" stroke="black" stroke-width="1.2" points="174.68,-150.98 184.53,-154.89 179.27,-145.7 174.68,-150.98"/>
</g>
<!-- err_error4&#45;&gt;vibration -->
<g id="edge11" class="edge">
<title>err_error4&#45;&gt;vibration</title>
<path fill="none" stroke="black" stroke-width="1.2" d="M124.14,-89.78C134.5,-90.97 145.69,-92.25 156.33,-93.47"/>
<polygon fill="black" stroke="black" stroke-width="1.2" points="155.99,-96.96 166.32,-94.62 156.79,-90 155.99,-96.96"/>
</g>
<!-- err_error5 -->
<g id="node9" class="node">
<title>err_error5</title>
<path fill="white" stroke="black" d="M112,-319C112,-319 51,-319 51,-319 45,-319 39,-313 39,-307 39,-307 39,-295 39,-295 39,-289 45,-283 51,-283 51,-283 112,-283 112,-283 118,-283 124,-289 124,-295 124,-295 124,-307 124,-307 124,-313 118,-319 112,-319"/>
<text text-anchor="middle" x="81.5" y="-297.3" font-family="Helvetica,sans-Serif" font-size="14.00">err_error5</text>
</g>
<!-- mnt_comp1 -->
<g id="node10" class="node">
<title>mnt_comp1</title>
<path fill="white" stroke="black" d="M118.5,-373C118.5,-373 44.5,-373 44.5,-373 38.5,-373 32.5,-367 32.5,-361 32.5,-361 32.5,-349 32.5,-349 32.5,-343 38.5,-337 44.5,-337 44.5,-337 118.5,-337 118.5,-337 124.5,-337 130.5,-343 130.5,-349 130.5,-349 130.5,-361 130.5,-361 130.5,-367 124.5,-373 118.5,-373"/>
<text text-anchor="middle" x="81.5" y="-351.3" font-family="Helvetica,sans-Serif" font-size="14.00">mnt_comp1</text>
</g>
<!-- mnt_comp2 -->
<g id="node11" class="node">
<title>mnt_comp2</title>
<path fill="white" stroke="black" d="M118.5,-211C118.5,-211 44.5,-211 44.5,-211 38.5,-211 32.5,-205 32.5,-199 32.5,-199 32.5,-187 32.5,-187 32.5,-181 38.5,-175 44.5,-175 44.5,-175 118.5,-175 118.5,-175 124.5,-175 130.5,-181 130.5,-187 130.5,-187 130.5,-199 130.5,-199 130.5,-205 124.5,-211 118.5,-211"/>
<text text-anchor="middle" x="81.5" y="-189.3" font-family="Helvetica,sans-Serif" font-size="14.00">mnt_comp2</text>
</g>
<!-- mnt_comp2&#45;&gt;rotate -->
<g id="edge7" class="edge">
<title>mnt_comp2&#45;&gt;rotate</title>
<path fill="none" stroke="black" stroke-width="1.2" d="M130.72,-185.1C142.75,-183.12 155.48,-181.04 166.92,-179.16"/>
<polygon fill="black" stroke="black" stroke-width="1.2" points="167.7,-182.58 177,-177.51 166.56,-175.67 167.7,-182.58"/>
</g>
<!-- mnt_comp3 -->
<g id="node12" class="node">
<title>mnt_comp3</title>
<path fill="white" stroke="black" d="M118.5,-427C118.5,-427 44.5,-427 44.5,-427 38.5,-427 32.5,-421 32.5,-415 32.5,-415 32.5,-403 32.5,-403 32.5,-397 38.5,-391 44.5,-391 44.5,-391 118.5,-391 118.5,-391 124.5,-391 130.5,-397 130.5,-403 130.5,-403 130.5,-415 130.5,-415 130.5,-421 124.5,-427 118.5,-427"/>
<text text-anchor="middle" x="81.5" y="-405.3" font-family="Helvetica,sans-Serif" font-size="14.00">mnt_comp3</text>
</g>
<!-- mnt_comp4 -->
<g id="node13" class="node">
<title>mnt_comp4</title>
<path fill="white" stroke="black" d="M118.5,-36C118.5,-36 44.5,-36 44.5,-36 38.5,-36 32.5,-30 32.5,-24 32.5,-24 32.5,-12 32.5,-12 32.5,-6 38.5,0 44.5,0 44.5,0 118.5,0 118.5,0 124.5,0 130.5,-6 130.5,-12 130.5,-12 130.5,-24 130.5,-24 130.5,-30 124.5,-36 118.5,-36"/>
<text text-anchor="middle" x="81.5" y="-14.3" font-family="Helvetica,sans-Serif" font-size="14.00">mnt_comp4</text>
</g>
<!-- mnt_comp4&#45;&gt;volt -->
<g id="edge1" class="edge">
<title>mnt_comp4&#45;&gt;volt</title>
<path fill="none" stroke="black" stroke-width="1.2" d="M130.72,-18C143.16,-18 156.35,-18 168.07,-18"/>
<polygon fill="black" stroke="black" stroke-width="1.2" points="168.37,-21.5 178.37,-18 168.37,-14.5 168.37,-21.5"/>
</g>
</g>
</svg>
