<?xml version="1.0" encoding="UTF-8" standalone="no"?>
<!DOCTYPE svg PUBLIC "-//W3C//DTD SVG 1.1//EN"
 "http://www.w3.org/Graphics/SVG/1.1/DTD/svg11.dtd">
<!-- Generated by graphviz version 2.50.0 (0)
 -->
<!-- Title: G Pages: 1 -->
<svg width="715pt" height="336pt"
 viewBox="0.00 0.00 715.00 336.00" xmlns="http://www.w3.org/2000/svg" xmlns:xlink="http://www.w3.org/1999/xlink">
<g id="graph0" class="graph" transform="scale(1 1) rotate(0) translate(4 332)">
<title>G</title>
<polygon fill="white" stroke="transparent" points="-4,4 -4,-332 711,-332 711,4 -4,4"/>
<text text-anchor="middle" x="353.5" y="-311.2" font-family="Times,serif" font-size="16.00">model=model4/pcmci_mixed.json [machine 57]</text>
<!-- volt -->
<g id="node1" class="node">
<title>volt</title>
<path fill="white" stroke="black" d="M188,-232C188,-232 158,-232 158,-232 152,-232 146,-226 146,-220 146,-220 146,-208 146,-208 146,-202 152,-196 158,-196 158,-196 188,-196 188,-196 194,-196 200,-202 200,-208 200,-208 200,-220 200,-220 200,-226 194,-232 188,-232"/>
<text text-anchor="middle" x="173" y="-210.3" font-family="Helvetica,sans-Serif" font-size="14.00">volt</text>
</g>
<!-- mnt_comp1 -->
<g id="node9" class="node">
<title>mnt_comp1</title>
<path fill="white" stroke="black" d="M334,-113C334,-113 260,-113 260,-113 254,-113 248,-107 248,-101 248,-101 248,-89 248,-89 248,-83 254,-77 260,-77 260,-77 334,-77 334,-77 340,-77 346,-83 346,-89 346,-89 346,-101 346,-101 346,-107 340,-113 334,-113"/>
<text text-anchor="middle" x="297" y="-91.3" font-family="Helvetica,sans-Serif" font-size="14.00">mnt_comp1</text>
</g>
<!-- volt&#45;&gt;mnt_comp1 -->
<g id="edge3" class="edge">
<title>volt&#45;&gt;mnt_comp1</title>
<path fill="none" stroke="black" stroke-width="1.2" d="M185.62,-195.68C198.91,-175.76 222.2,-143.86 248,-122 249.14,-121.03 250.32,-120.09 251.53,-119.16"/>
<polygon fill="black" stroke="black" stroke-width="1.2" points="253.69,-121.92 259.86,-113.31 249.67,-116.19 253.69,-121.92"/>
</g>
<!-- fail_comp1 -->
<g id="node13" class="node">
<title>fail_comp1</title>
<path fill="white" stroke="black" d="M558,-221C558,-221 490,-221 490,-221 484,-221 478,-215 478,-209 478,-209 478,-197 478,-197 478,-191 484,-185 490,-185 490,-185 558,-185 558,-185 564,-185 570,-191 570,-197 570,-197 570,-209 570,-209 570,-215 564,-221 558,-221"/>
<text text-anchor="middle" x="524" y="-199.3" font-family="Helvetica,sans-Serif" font-size="14.00">fail_comp1</text>
</g>
<!-- volt&#45;&gt;fail_comp1 -->
<g id="edge4" class="edge">
<title>volt&#45;&gt;fail_comp1</title>
<path fill="none" stroke="black" stroke-width="1.2" d="M200.23,-213.17C256.78,-211.39 391.21,-207.15 467.55,-204.75"/>
<polygon fill="black" stroke="black" stroke-width="1.2" points="468.04,-208.23 477.92,-204.42 467.82,-201.24 468.04,-208.23"/>
</g>
<!-- rotate -->
<g id="node2" class="node">
<title>rotate</title>
<path fill="white" stroke="black" d="M427,-167C427,-167 394,-167 394,-167 388,-167 382,-161 382,-155 382,-155 382,-143 382,-143 382,-137 388,-131 394,-131 394,-131 427,-131 427,-131 433,-131 439,-137 439,-143 439,-143 439,-155 439,-155 439,-161 433,-167 427,-167"/>
<text text-anchor="middle" x="410.5" y="-145.3" font-family="Helvetica,sans-Serif" font-size="14.00">rotate</text>
</g>
<!-- rotate&#45;&gt;volt -->
<g id="edge1" class="edge">
<title>rotate&#45;&gt;volt</title>
<path fill="none" stroke="black" stroke-width="1.2" d="M381.79,-162.1C370.82,-166.93 357.98,-172.17 346,-176 300.07,-190.7 245.46,-201.71 210.3,-207.99"/>
<polygon fill="black" stroke="black" stroke-width="1.2" points="209.28,-204.62 200.04,-209.79 210.49,-211.51 209.28,-204.62"/>
</g>
<!-- pressure -->
<g id="node3" class="node">
<title>pressure</title>
<path fill="white" stroke="black" d="M550.5,-275C550.5,-275 497.5,-275 497.5,-275 491.5,-275 485.5,-269 485.5,-263 485.5,-263 485.5,-251 485.5,-251 485.5,-245 491.5,-239 497.5,-239 497.5,-239 550.5,-239 550.5,-239 556.5,-239 562.5,-245 562.5,-251 562.5,-251 562.5,-263 562.5,-263 562.5,-269 556.5,-275 550.5,-275"/>
<text text-anchor="middle" x="524" y="-253.3" font-family="Helvetica,sans-Serif" font-size="14.00">pressure</text>
</g>
<!-- rotate&#45;&gt;pressure -->
<g id="edge5" class="edge">
<title>rotate&#45;&gt;pressure</title>
<path fill="none" stroke="black" stroke-width="1.2" d="M422.65,-167.11C434.16,-184.73 453.44,-211.5 475,-230 476.13,-230.97 477.31,-231.93 478.51,-232.86"/>
<polygon fill="black" stroke="black" stroke-width="1.2" points="476.64,-235.82 486.83,-238.73 480.68,-230.11 476.64,-235.82"/>
</g>
<!-- mnt_comp3 -->
<g id="node11" class="node">
<title>mnt_comp3</title>
<path fill="white" stroke="black" d="M561,-167C561,-167 487,-167 487,-167 481,-167 475,-161 475,-155 475,-155 475,-143 475,-143 475,-137 481,-131 487,-131 487,-131 561,-131 561,-131 567,-131 573,-137 573,-143 573,-143 573,-155 573,-155 573,-161 567,-167 561,-167"/>
<text text-anchor="middle" x="524" y="-145.3" font-family="Helvetica,sans-Serif" font-size="14.00">mnt_comp3</text>
</g>
<!-- rotate&#45;&gt;mnt_comp3 -->
<g id="edge10" class="edge">
<title>rotate&#45;&gt;mnt_comp3</title>
<path fill="none" stroke="black" stroke-width="1.2" d="M439.06,-149C446.93,-149 455.82,-149 464.8,-149"/>
<polygon fill="black" stroke="black" stroke-width="1.2" points="464.92,-152.5 474.92,-149 464.92,-145.5 464.92,-152.5"/>
</g>
<!-- rotate&#45;&gt;fail_comp1 -->
<g id="edge11" class="edge">
<title>rotate&#45;&gt;fail_comp1</title>
<path fill="none" stroke="black" stroke-width="1.2" d="M439.06,-162.35C450.37,-167.83 463.79,-174.32 476.54,-180.5"/>
<polygon fill="black" stroke="black" stroke-width="1.2" points="475.14,-183.71 485.66,-184.92 478.19,-177.41 475.14,-183.71"/>
</g>
<!-- pressure&#45;&gt;volt -->
<g id="edge2" class="edge">
<title>pressure&#45;&gt;volt</title>
<path fill="none" stroke="black" stroke-width="1.2" d="M485.17,-252.64C432.13,-246.49 332.67,-234.8 248,-224 235.67,-222.43 222.19,-220.63 210.15,-219"/>
<polygon fill="black" stroke="black" stroke-width="1.2" points="210.4,-215.5 200.02,-217.61 209.45,-222.43 210.4,-215.5"/>
</g>
<!-- err_error1 -->
<g id="node5" class="node">
<title>err_error1</title>
<path fill="white" stroke="black" d="M688.5,-121C688.5,-121 627.5,-121 627.5,-121 621.5,-121 615.5,-115 615.5,-109 615.5,-109 615.5,-97 615.5,-97 615.5,-91 621.5,-85 627.5,-85 627.5,-85 688.5,-85 688.5,-85 694.5,-85 700.5,-91 700.5,-97 700.5,-97 700.5,-109 700.5,-109 700.5,-115 694.5,-121 688.5,-121"/>
<text text-anchor="middle" x="658" y="-99.3" font-family="Helvetica,sans-Serif" font-size="14.00">err_error1</text>
</g>
<!-- pressure&#45;&gt;err_error1 -->
<g id="edge12" class="edge">
<title>pressure&#45;&gt;err_error1</title>
<path fill="none" stroke="black" stroke-width="1.2" d="M561.92,-238.68C565.85,-236.03 569.64,-233.13 573,-230 604.16,-201 629.35,-158.24 643.76,-130.5"/>
<polygon fill="black" stroke="black" stroke-width="1.2" points="646.99,-131.86 648.4,-121.36 640.75,-128.7 646.99,-131.86"/>
</g>
<!-- err_error3 -->
<g id="node7" class="node">
<title>err_error3</title>
<path fill="white" stroke="black" d="M688.5,-302C688.5,-302 627.5,-302 627.5,-302 621.5,-302 615.5,-296 615.5,-290 615.5,-290 615.5,-278 615.5,-278 615.5,-272 621.5,-266 627.5,-266 627.5,-266 688.5,-266 688.5,-266 694.5,-266 700.5,-272 700.5,-278 700.5,-278 700.5,-290 700.5,-290 700.5,-296 694.5,-302 688.5,-302"/>
<text text-anchor="middle" x="658" y="-280.3" font-family="Helvetica,sans-Serif" font-size="14.00">err_error3</text>
</g>
<!-- pressure&#45;&gt;err_error3 -->
<g id="edge13" class="edge">
<title>pressure&#45;&gt;err_error3</title>
<path fill="none" stroke="black" stroke-width="1.2" d="M562.83,-264.74C576.07,-267.45 591.17,-270.54 605.35,-273.43"/>
<polygon fill="black" stroke="black" stroke-width="1.2" points="604.97,-276.93 615.47,-275.5 606.37,-270.07 604.97,-276.93"/>
</g>
<!-- mnt_comp4 -->
<g id="node12" class="node">
<title>mnt_comp4</title>
<path fill="white" stroke="black" d="M695,-248C695,-248 621,-248 621,-248 615,-248 609,-242 609,-236 609,-236 609,-224 609,-224 609,-218 615,-212 621,-212 621,-212 695,-212 695,-212 701,-212 707,-218 707,-224 707,-224 707,-236 707,-236 707,-242 701,-248 695,-248"/>
<text text-anchor="middle" x="658" y="-226.3" font-family="Helvetica,sans-Serif" font-size="14.00">mnt_comp4</text>
</g>
<!-- pressure&#45;&gt;mnt_comp4 -->
<g id="edge14" class="edge">
<title>pressure&#45;&gt;mnt_comp4</title>
<path fill="none" stroke="black" stroke-width="1.2" d="M562.83,-249.26C574.02,-246.97 586.53,-244.41 598.7,-241.92"/>
<polygon fill="black" stroke="black" stroke-width="1.2" points="599.7,-245.29 608.8,-239.86 598.3,-238.43 599.7,-245.29"/>
</g>
<!-- vibration -->
<g id="node4" class="node">
<title>vibration</title>
<path fill="white" stroke="black" d="M200,-36C200,-36 146,-36 146,-36 140,-36 134,-30 134,-24 134,-24 134,-12 134,-12 134,-6 140,0 146,0 146,0 200,0 200,0 206,0 212,-6 212,-12 212,-12 212,-24 212,-24 212,-30 206,-36 200,-36"/>
<text text-anchor="middle" x="173" y="-14.3" font-family="Helvetica,sans-Serif" font-size="14.00">vibration</text>
</g>
<!-- vibration&#45;&gt;err_error1 -->
<g id="edge15" class="edge">
<title>vibration&#45;&gt;err_error1</title>
<path fill="none" stroke="black" stroke-width="1.2" d="M212.12,-13.59C247.11,-10.37 300.3,-7.59 346,-14 439.51,-27.12 544.35,-61.4 605.29,-83.38"/>
<polygon fill="black" stroke="black" stroke-width="1.2" points="604.46,-86.8 615.05,-86.93 606.85,-80.22 604.46,-86.8"/>
</g>
<!-- err_error2 -->
<g id="node6" class="node">
<title>err_error2</title>
<path fill="white" stroke="black" d="M327.5,-59C327.5,-59 266.5,-59 266.5,-59 260.5,-59 254.5,-53 254.5,-47 254.5,-47 254.5,-35 254.5,-35 254.5,-29 260.5,-23 266.5,-23 266.5,-23 327.5,-23 327.5,-23 333.5,-23 339.5,-29 339.5,-35 339.5,-35 339.5,-47 339.5,-47 339.5,-53 333.5,-59 327.5,-59"/>
<text text-anchor="middle" x="297" y="-37.3" font-family="Helvetica,sans-Serif" font-size="14.00">err_error2</text>
</g>
<!-- vibration&#45;&gt;err_error2 -->
<g id="edge16" class="edge">
<title>vibration&#45;&gt;err_error2</title>
<path fill="none" stroke="black" stroke-width="1.2" d="M212.27,-25.21C222.43,-27.13 233.59,-29.23 244.34,-31.26"/>
<polygon fill="black" stroke="black" stroke-width="1.2" points="244.01,-34.76 254.48,-33.17 245.31,-27.88 244.01,-34.76"/>
</g>
<!-- err_error1&#45;&gt;rotate -->
<g id="edge6" class="edge">
<title>err_error1&#45;&gt;rotate</title>
<path fill="none" stroke="black" stroke-width="1.2" d="M615.17,-103.84C577.88,-105.42 522.06,-109.83 475,-122 466.15,-124.29 456.94,-127.61 448.36,-131.15"/>
<polygon fill="black" stroke="black" stroke-width="1.2" points="446.8,-128.01 439,-135.19 449.57,-134.44 446.8,-128.01"/>
</g>
<!-- err_error2&#45;&gt;rotate -->
<g id="edge7" class="edge">
<title>err_error2&#45;&gt;rotate</title>
<path fill="none" stroke="black" stroke-width="1.2" d="M334.17,-59.27C338.33,-61.96 342.37,-64.89 346,-68 364.36,-83.75 381.06,-105.5 392.72,-122.5"/>
<polygon fill="black" stroke="black" stroke-width="1.2" points="389.87,-124.53 398.35,-130.89 395.69,-120.64 389.87,-124.53"/>
</g>
<!-- err_error4 -->
<g id="node8" class="node">
<title>err_error4</title>
<path fill="white" stroke="black" d="M327.5,-167C327.5,-167 266.5,-167 266.5,-167 260.5,-167 254.5,-161 254.5,-155 254.5,-155 254.5,-143 254.5,-143 254.5,-137 260.5,-131 266.5,-131 266.5,-131 327.5,-131 327.5,-131 333.5,-131 339.5,-137 339.5,-143 339.5,-143 339.5,-155 339.5,-155 339.5,-161 333.5,-167 327.5,-167"/>
<text text-anchor="middle" x="297" y="-145.3" font-family="Helvetica,sans-Serif" font-size="14.00">err_error4</text>
</g>
<!-- err_error4&#45;&gt;rotate -->
<g id="edge8" class="edge">
<title>err_error4&#45;&gt;rotate</title>
<path fill="none" stroke="black" stroke-width="1.2" d="M339.52,-149C350.11,-149 361.43,-149 371.81,-149"/>
<polygon fill="black" stroke="black" stroke-width="1.2" points="371.82,-152.5 381.82,-149 371.82,-145.5 371.82,-152.5"/>
</g>
<!-- mnt_comp1&#45;&gt;rotate -->
<g id="edge9" class="edge">
<title>mnt_comp1&#45;&gt;rotate</title>
<path fill="none" stroke="black" stroke-width="1.2" d="M335.44,-113.13C347.42,-118.93 360.67,-125.35 372.61,-131.13"/>
<polygon fill="black" stroke="black" stroke-width="1.2" points="371.33,-134.4 381.86,-135.61 374.38,-128.1 371.33,-134.4"/>
</g>
<!-- mnt_comp2 -->
<g id="node10" class="node">
<title>mnt_comp2</title>
<path fill="white" stroke="black" d="M86,-36C86,-36 12,-36 12,-36 6,-36 0,-30 0,-24 0,-24 0,-12 0,-12 0,-6 6,0 12,0 12,0 86,0 86,0 92,0 98,-6 98,-12 98,-12 98,-24 98,-24 98,-30 92,-36 86,-36"/>
<text text-anchor="middle" x="49" y="-14.3" font-family="Helvetica,sans-Serif" font-size="14.00">mnt_comp2</text>
</g>
<!-- mnt_comp2&#45;&gt;vibration -->
<g id="edge17" class="edge">
<title>mnt_comp2&#45;&gt;vibration</title>
<path fill="none" stroke="black" stroke-width="1.2" d="M98.22,-18C106.65,-18 115.42,-18 123.84,-18"/>
<polygon fill="black" stroke="black" stroke-width="1.2" points="123.91,-21.5 133.91,-18 123.91,-14.5 123.91,-21.5"/>
</g>
</g>
</svg>
