<?xml version="1.0" encoding="UTF-8" standalone="no"?>
<!DOCTYPE svg PUBLIC "-//W3C//DTD SVG 1.1//EN"
 "http://www.w3.org/Graphics/SVG/1.1/DTD/svg11.dtd">
<!-- Generated by graphviz version 2.50.0 (0)
 -->
<!-- Title: G Pages: 1 -->
<svg width="709pt" height="509pt"
 viewBox="0.00 0.00 709.00 509.00" xmlns="http://www.w3.org/2000/svg" xmlns:xlink="http://www.w3.org/1999/xlink">
<g id="graph0" class="graph" transform="scale(1 1) rotate(0) translate(4 505)">
<title>G</title>
<polygon fill="white" stroke="transparent" points="-4,4 -4,-505 705,-505 705,4 -4,4"/>
<text text-anchor="middle" x="350.5" y="-484.2" font-family="Times,serif" font-size="16.00">model=model4/pcmci_mixed.json [machine 67]</text>
<!-- volt -->
<g id="node1" class="node">
<title>volt</title>
<path fill="white" stroke="black" d="M305.5,-174C305.5,-174 275.5,-174 275.5,-174 269.5,-174 263.5,-168 263.5,-162 263.5,-162 263.5,-150 263.5,-150 263.5,-144 269.5,-138 275.5,-138 275.5,-138 305.5,-138 305.5,-138 311.5,-138 317.5,-144 317.5,-150 317.5,-150 317.5,-162 317.5,-162 317.5,-168 311.5,-174 305.5,-174"/>
<text text-anchor="middle" x="290.5" y="-152.3" font-family="Helvetica,sans-Serif" font-size="14.00">volt</text>
</g>
<!-- rotate -->
<g id="node2" class="node">
<title>rotate</title>
<path fill="white" stroke="black" d="M428,-128C428,-128 395,-128 395,-128 389,-128 383,-122 383,-116 383,-116 383,-104 383,-104 383,-98 389,-92 395,-92 395,-92 428,-92 428,-92 434,-92 440,-98 440,-104 440,-104 440,-116 440,-116 440,-122 434,-128 428,-128"/>
<text text-anchor="middle" x="411.5" y="-106.3" font-family="Helvetica,sans-Serif" font-size="14.00">rotate</text>
</g>
<!-- volt&#45;&gt;rotate -->
<g id="edge1" class="edge">
<title>volt&#45;&gt;rotate</title>
<path fill="none" stroke="black" stroke-width="1.2" d="M317.62,-145.91C333.89,-139.61 355.1,-131.41 373.14,-124.44"/>
<polygon fill="black" stroke="black" stroke-width="1.2" points="374.72,-127.58 382.79,-120.71 372.2,-121.05 374.72,-127.58"/>
</g>
<!-- pressure -->
<g id="node3" class="node">
<title>pressure</title>
<path fill="white" stroke="black" d="M689,-82C689,-82 636,-82 636,-82 630,-82 624,-76 624,-70 624,-70 624,-58 624,-58 624,-52 630,-46 636,-46 636,-46 689,-46 689,-46 695,-46 701,-52 701,-58 701,-58 701,-70 701,-70 701,-76 695,-82 689,-82"/>
<text text-anchor="middle" x="662.5" y="-60.3" font-family="Helvetica,sans-Serif" font-size="14.00">pressure</text>
</g>
<!-- rotate&#45;&gt;pressure -->
<g id="edge3" class="edge">
<title>rotate&#45;&gt;pressure</title>
<path fill="none" stroke="black" stroke-width="1.2" d="M440.21,-109.09C475.09,-107.46 536.67,-103.01 588,-91 596.66,-88.97 605.68,-86.22 614.33,-83.25"/>
<polygon fill="black" stroke="black" stroke-width="1.2" points="615.66,-86.49 623.89,-79.82 613.3,-79.9 615.66,-86.49"/>
</g>
<!-- mnt_comp3 -->
<g id="node12" class="node">
<title>mnt_comp3</title>
<path fill="white" stroke="black" d="M576,-82C576,-82 502,-82 502,-82 496,-82 490,-76 490,-70 490,-70 490,-58 490,-58 490,-52 496,-46 502,-46 502,-46 576,-46 576,-46 582,-46 588,-52 588,-58 588,-58 588,-70 588,-70 588,-76 582,-82 576,-82"/>
<text text-anchor="middle" x="539" y="-60.3" font-family="Helvetica,sans-Serif" font-size="14.00">mnt_comp3</text>
</g>
<!-- rotate&#45;&gt;mnt_comp3 -->
<g id="edge6" class="edge">
<title>rotate&#45;&gt;mnt_comp3</title>
<path fill="none" stroke="black" stroke-width="1.2" d="M440.04,-99.91C451.88,-95.56 466.2,-90.32 480.19,-85.19"/>
<polygon fill="black" stroke="black" stroke-width="1.2" points="481.6,-88.4 489.78,-81.67 479.19,-81.83 481.6,-88.4"/>
</g>
<!-- fail_comp2 -->
<g id="node15" class="node">
<title>fail_comp2</title>
<path fill="white" stroke="black" d="M573,-174C573,-174 505,-174 505,-174 499,-174 493,-168 493,-162 493,-162 493,-150 493,-150 493,-144 499,-138 505,-138 505,-138 573,-138 573,-138 579,-138 585,-144 585,-150 585,-150 585,-162 585,-162 585,-168 579,-174 573,-174"/>
<text text-anchor="middle" x="539" y="-152.3" font-family="Helvetica,sans-Serif" font-size="14.00">fail_comp2</text>
</g>
<!-- rotate&#45;&gt;fail_comp2 -->
<g id="edge7" class="edge">
<title>rotate&#45;&gt;fail_comp2</title>
<path fill="none" stroke="black" stroke-width="1.2" d="M440.04,-120.09C452.71,-124.74 468.2,-130.42 483.1,-135.88"/>
<polygon fill="black" stroke="black" stroke-width="1.2" points="482.17,-139.27 492.77,-139.42 484.58,-132.69 482.17,-139.27"/>
</g>
<!-- vibration -->
<g id="node4" class="node">
<title>vibration</title>
<path fill="white" stroke="black" d="M200,-151C200,-151 146,-151 146,-151 140,-151 134,-145 134,-139 134,-139 134,-127 134,-127 134,-121 140,-115 146,-115 146,-115 200,-115 200,-115 206,-115 212,-121 212,-127 212,-127 212,-139 212,-139 212,-145 206,-151 200,-151"/>
<text text-anchor="middle" x="173" y="-129.3" font-family="Helvetica,sans-Serif" font-size="14.00">vibration</text>
</g>
<!-- vibration&#45;&gt;volt -->
<g id="edge2" class="edge">
<title>vibration&#45;&gt;volt</title>
<path fill="none" stroke="black" stroke-width="1.2" d="M212.14,-140.59C225.41,-143.24 240.25,-146.19 253.36,-148.8"/>
<polygon fill="black" stroke="black" stroke-width="1.2" points="252.94,-152.29 263.44,-150.81 254.31,-145.42 252.94,-152.29"/>
</g>
<!-- vibration&#45;&gt;rotate -->
<g id="edge4" class="edge">
<title>vibration&#45;&gt;rotate</title>
<path fill="none" stroke="black" stroke-width="1.2" d="M212.26,-129.28C256.44,-124.98 328.65,-117.96 372.65,-113.68"/>
<polygon fill="black" stroke="black" stroke-width="1.2" points="373.05,-117.16 382.66,-112.71 372.37,-110.19 373.05,-117.16"/>
</g>
<!-- err_error4 -->
<g id="node8" class="node">
<title>err_error4</title>
<path fill="white" stroke="black" d="M442,-36C442,-36 381,-36 381,-36 375,-36 369,-30 369,-24 369,-24 369,-12 369,-12 369,-6 375,0 381,0 381,0 442,0 442,0 448,0 454,-6 454,-12 454,-12 454,-24 454,-24 454,-30 448,-36 442,-36"/>
<text text-anchor="middle" x="411.5" y="-14.3" font-family="Helvetica,sans-Serif" font-size="14.00">err_error4</text>
</g>
<!-- vibration&#45;&gt;err_error4 -->
<g id="edge11" class="edge">
<title>vibration&#45;&gt;err_error4</title>
<path fill="none" stroke="black" stroke-width="1.2" d="M182.3,-114.93C193.66,-92.47 216.32,-54.94 248,-37 281.49,-18.04 325.04,-13.82 358.63,-14.06"/>
<polygon fill="black" stroke="black" stroke-width="1.2" points="358.64,-17.56 368.71,-14.27 358.79,-10.56 358.64,-17.56"/>
</g>
<!-- err_error5 -->
<g id="node9" class="node">
<title>err_error5</title>
<path fill="white" stroke="black" d="M321,-228C321,-228 260,-228 260,-228 254,-228 248,-222 248,-216 248,-216 248,-204 248,-204 248,-198 254,-192 260,-192 260,-192 321,-192 321,-192 327,-192 333,-198 333,-204 333,-204 333,-216 333,-216 333,-222 327,-228 321,-228"/>
<text text-anchor="middle" x="290.5" y="-206.3" font-family="Helvetica,sans-Serif" font-size="14.00">err_error5</text>
</g>
<!-- vibration&#45;&gt;err_error5 -->
<g id="edge12" class="edge">
<title>vibration&#45;&gt;err_error5</title>
<path fill="none" stroke="black" stroke-width="1.2" d="M200.64,-151.16C214.69,-160.7 232.23,-172.55 248,-183 249.61,-184.07 251.26,-185.16 252.93,-186.26"/>
<polygon fill="black" stroke="black" stroke-width="1.2" points="251.05,-189.21 261.33,-191.77 254.89,-183.36 251.05,-189.21"/>
</g>
<!-- err_error1 -->
<g id="node5" class="node">
<title>err_error1</title>
<path fill="white" stroke="black" d="M79.5,-205C79.5,-205 18.5,-205 18.5,-205 12.5,-205 6.5,-199 6.5,-193 6.5,-193 6.5,-181 6.5,-181 6.5,-175 12.5,-169 18.5,-169 18.5,-169 79.5,-169 79.5,-169 85.5,-169 91.5,-175 91.5,-181 91.5,-181 91.5,-193 91.5,-193 91.5,-199 85.5,-205 79.5,-205"/>
<text text-anchor="middle" x="49" y="-183.3" font-family="Helvetica,sans-Serif" font-size="14.00">err_error1</text>
</g>
<!-- err_error2 -->
<g id="node6" class="node">
<title>err_error2</title>
<path fill="white" stroke="black" d="M79.5,-151C79.5,-151 18.5,-151 18.5,-151 12.5,-151 6.5,-145 6.5,-139 6.5,-139 6.5,-127 6.5,-127 6.5,-121 12.5,-115 18.5,-115 18.5,-115 79.5,-115 79.5,-115 85.5,-115 91.5,-121 91.5,-127 91.5,-127 91.5,-139 91.5,-139 91.5,-145 85.5,-151 79.5,-151"/>
<text text-anchor="middle" x="49" y="-129.3" font-family="Helvetica,sans-Serif" font-size="14.00">err_error2</text>
</g>
<!-- err_error2&#45;&gt;vibration -->
<g id="edge10" class="edge">
<title>err_error2&#45;&gt;vibration</title>
<path fill="none" stroke="black" stroke-width="1.2" d="M91.64,-133C101.89,-133 112.96,-133 123.5,-133"/>
<polygon fill="black" stroke="black" stroke-width="1.2" points="123.82,-136.5 133.82,-133 123.82,-129.5 123.82,-136.5"/>
</g>
<!-- err_error3 -->
<g id="node7" class="node">
<title>err_error3</title>
<path fill="white" stroke="black" d="M321,-82C321,-82 260,-82 260,-82 254,-82 248,-76 248,-70 248,-70 248,-58 248,-58 248,-52 254,-46 260,-46 260,-46 321,-46 321,-46 327,-46 333,-52 333,-58 333,-58 333,-70 333,-70 333,-76 327,-82 321,-82"/>
<text text-anchor="middle" x="290.5" y="-60.3" font-family="Helvetica,sans-Serif" font-size="14.00">err_error3</text>
</g>
<!-- err_error3&#45;&gt;rotate -->
<g id="edge5" class="edge">
<title>err_error3&#45;&gt;rotate</title>
<path fill="none" stroke="black" stroke-width="1.2" d="M333.12,-80.09C346.26,-85.17 360.68,-90.74 373.48,-95.69"/>
<polygon fill="black" stroke="black" stroke-width="1.2" points="372.31,-98.99 382.9,-99.33 374.83,-92.46 372.31,-98.99"/>
</g>
<!-- err_error4&#45;&gt;pressure -->
<g id="edge8" class="edge">
<title>err_error4&#45;&gt;pressure</title>
<path fill="none" stroke="black" stroke-width="1.2" d="M454.11,-19.64C489.98,-21.74 542.94,-26.45 588,-37 596.66,-39.03 605.68,-41.78 614.33,-44.75"/>
<polygon fill="black" stroke="black" stroke-width="1.2" points="613.3,-48.1 623.89,-48.18 615.66,-41.51 613.3,-48.1"/>
</g>
<!-- mnt_comp1 -->
<g id="node10" class="node">
<title>mnt_comp1</title>
<path fill="white" stroke="black" d="M86,-259C86,-259 12,-259 12,-259 6,-259 0,-253 0,-247 0,-247 0,-235 0,-235 0,-229 6,-223 12,-223 12,-223 86,-223 86,-223 92,-223 98,-229 98,-235 98,-235 98,-247 98,-247 98,-253 92,-259 86,-259"/>
<text text-anchor="middle" x="49" y="-237.3" font-family="Helvetica,sans-Serif" font-size="14.00">mnt_comp1</text>
</g>
<!-- mnt_comp2 -->
<g id="node11" class="node">
<title>mnt_comp2</title>
<path fill="white" stroke="black" d="M86,-313C86,-313 12,-313 12,-313 6,-313 0,-307 0,-301 0,-301 0,-289 0,-289 0,-283 6,-277 12,-277 12,-277 86,-277 86,-277 92,-277 98,-283 98,-289 98,-289 98,-301 98,-301 98,-307 92,-313 86,-313"/>
<text text-anchor="middle" x="49" y="-291.3" font-family="Helvetica,sans-Serif" font-size="14.00">mnt_comp2</text>
</g>
<!-- mnt_comp3&#45;&gt;pressure -->
<g id="edge9" class="edge">
<title>mnt_comp3&#45;&gt;pressure</title>
<path fill="none" stroke="black" stroke-width="1.2" d="M588.02,-64C596.51,-64 605.34,-64 613.82,-64"/>
<polygon fill="black" stroke="black" stroke-width="1.2" points="613.94,-67.5 623.94,-64 613.94,-60.5 613.94,-67.5"/>
</g>
<!-- mnt_comp4 -->
<g id="node13" class="node">
<title>mnt_comp4</title>
<path fill="white" stroke="black" d="M86,-367C86,-367 12,-367 12,-367 6,-367 0,-361 0,-355 0,-355 0,-343 0,-343 0,-337 6,-331 12,-331 12,-331 86,-331 86,-331 92,-331 98,-337 98,-343 98,-343 98,-355 98,-355 98,-361 92,-367 86,-367"/>
<text text-anchor="middle" x="49" y="-345.3" font-family="Helvetica,sans-Serif" font-size="14.00">mnt_comp4</text>
</g>
<!-- fail_comp1 -->
<g id="node14" class="node">
<title>fail_comp1</title>
<path fill="white" stroke="black" d="M83,-421C83,-421 15,-421 15,-421 9,-421 3,-415 3,-409 3,-409 3,-397 3,-397 3,-391 9,-385 15,-385 15,-385 83,-385 83,-385 89,-385 95,-391 95,-397 95,-397 95,-409 95,-409 95,-415 89,-421 83,-421"/>
<text text-anchor="middle" x="49" y="-399.3" font-family="Helvetica,sans-Serif" font-size="14.00">fail_comp1</text>
</g>
<!-- fail_comp4 -->
<g id="node16" class="node">
<title>fail_comp4</title>
<path fill="white" stroke="black" d="M83,-475C83,-475 15,-475 15,-475 9,-475 3,-469 3,-463 3,-463 3,-451 3,-451 3,-445 9,-439 15,-439 15,-439 83,-439 83,-439 89,-439 95,-445 95,-451 95,-451 95,-463 95,-463 95,-469 89,-475 83,-475"/>
<text text-anchor="middle" x="49" y="-453.3" font-family="Helvetica,sans-Serif" font-size="14.00">fail_comp4</text>
</g>
</g>
</svg>
