<?xml version="1.0" encoding="UTF-8" standalone="no"?>
<!DOCTYPE svg PUBLIC "-//W3C//DTD SVG 1.1//EN"
 "http://www.w3.org/Graphics/SVG/1.1/DTD/svg11.dtd">
<!-- Generated by graphviz version 2.50.0 (0)
 -->
<!-- Title: G Pages: 1 -->
<svg width="443pt" height="556pt"
 viewBox="0.00 0.00 443.00 556.00" xmlns="http://www.w3.org/2000/svg" xmlns:xlink="http://www.w3.org/1999/xlink">
<g id="graph0" class="graph" transform="scale(1 1) rotate(0) translate(4 552)">
<title>G</title>
<polygon fill="white" stroke="transparent" points="-4,4 -4,-552 439,-552 439,4 -4,4"/>
<text text-anchor="middle" x="217.5" y="-531.2" font-family="Times,serif" font-size="16.00">model=model2/pcmci_mixed.json [machine 47]</text>
<!-- volt -->
<g id="node1" class="node">
<title>volt</title>
<path fill="white" stroke="black" d="M176,-90C176,-90 146,-90 146,-90 140,-90 134,-84 134,-78 134,-78 134,-66 134,-66 134,-60 140,-54 146,-54 146,-54 176,-54 176,-54 182,-54 188,-60 188,-66 188,-66 188,-78 188,-78 188,-84 182,-90 176,-90"/>
<text text-anchor="middle" x="161" y="-68.3" font-family="Helvetica,sans-Serif" font-size="14.00">volt</text>
</g>
<!-- vibration -->
<g id="node4" class="node">
<title>vibration</title>
<path fill="white" stroke="black" d="M300,-140C300,-140 246,-140 246,-140 240,-140 234,-134 234,-128 234,-128 234,-116 234,-116 234,-110 240,-104 246,-104 246,-104 300,-104 300,-104 306,-104 312,-110 312,-116 312,-116 312,-128 312,-128 312,-134 306,-140 300,-140"/>
<text text-anchor="middle" x="273" y="-118.3" font-family="Helvetica,sans-Serif" font-size="14.00">vibration</text>
</g>
<!-- volt&#45;&gt;vibration -->
<g id="edge2" class="edge">
<title>volt&#45;&gt;vibration</title>
<path fill="none" stroke="black" stroke-width="1.2" d="M188.07,-83.85C198.9,-88.77 211.83,-94.65 224.26,-100.3"/>
<polygon fill="black" stroke="black" stroke-width="1.2" points="223.06,-103.6 233.62,-104.55 225.96,-97.23 223.06,-103.6"/>
</g>
<!-- rotate -->
<g id="node2" class="node">
<title>rotate</title>
<path fill="white" stroke="black" d="M413,-167C413,-167 380,-167 380,-167 374,-167 368,-161 368,-155 368,-155 368,-143 368,-143 368,-137 374,-131 380,-131 380,-131 413,-131 413,-131 419,-131 425,-137 425,-143 425,-143 425,-155 425,-155 425,-161 419,-167 413,-167"/>
<text text-anchor="middle" x="396.5" y="-145.3" font-family="Helvetica,sans-Serif" font-size="14.00">rotate</text>
</g>
<!-- pressure -->
<g id="node3" class="node">
<title>pressure</title>
<path fill="white" stroke="black" d="M423,-86C423,-86 370,-86 370,-86 364,-86 358,-80 358,-74 358,-74 358,-62 358,-62 358,-56 364,-50 370,-50 370,-50 423,-50 423,-50 429,-50 435,-56 435,-62 435,-62 435,-74 435,-74 435,-80 429,-86 423,-86"/>
<text text-anchor="middle" x="396.5" y="-64.3" font-family="Helvetica,sans-Serif" font-size="14.00">pressure</text>
</g>
<!-- pressure&#45;&gt;volt -->
<g id="edge1" class="edge">
<title>pressure&#45;&gt;volt</title>
<path fill="none" stroke="black" stroke-width="1.2" d="M357.68,-51.23C346.42,-47.03 333.91,-43.12 322,-41 279.12,-33.37 266.39,-30.99 224,-41 214.88,-43.15 205.58,-46.86 197.04,-50.98"/>
<polygon fill="black" stroke="black" stroke-width="1.2" points="195.42,-47.88 188.13,-55.56 198.62,-54.11 195.42,-47.88"/>
</g>
<!-- vibration&#45;&gt;rotate -->
<g id="edge6" class="edge">
<title>vibration&#45;&gt;rotate</title>
<path fill="none" stroke="black" stroke-width="1.2" d="M312.11,-130.47C326.67,-133.7 343.26,-137.39 357.78,-140.62"/>
<polygon fill="black" stroke="black" stroke-width="1.2" points="357.41,-144.12 367.93,-142.87 358.93,-137.29 357.41,-144.12"/>
</g>
<!-- vibration&#45;&gt;pressure -->
<g id="edge8" class="edge">
<title>vibration&#45;&gt;pressure</title>
<path fill="none" stroke="black" stroke-width="1.2" d="M312.11,-105.06C323.64,-99.94 336.44,-94.25 348.49,-88.9"/>
<polygon fill="black" stroke="black" stroke-width="1.2" points="350.23,-91.95 357.94,-84.69 347.38,-85.56 350.23,-91.95"/>
</g>
<!-- err_error1 -->
<g id="node5" class="node">
<title>err_error1</title>
<path fill="white" stroke="black" d="M79.5,-144C79.5,-144 18.5,-144 18.5,-144 12.5,-144 6.5,-138 6.5,-132 6.5,-132 6.5,-120 6.5,-120 6.5,-114 12.5,-108 18.5,-108 18.5,-108 79.5,-108 79.5,-108 85.5,-108 91.5,-114 91.5,-120 91.5,-120 91.5,-132 91.5,-132 91.5,-138 85.5,-144 79.5,-144"/>
<text text-anchor="middle" x="49" y="-122.3" font-family="Helvetica,sans-Serif" font-size="14.00">err_error1</text>
</g>
<!-- err_error1&#45;&gt;volt -->
<g id="edge3" class="edge">
<title>err_error1&#45;&gt;volt</title>
<path fill="none" stroke="black" stroke-width="1.2" d="M86.93,-107.87C99.05,-101.92 112.48,-95.33 124.49,-89.43"/>
<polygon fill="black" stroke="black" stroke-width="1.2" points="126.33,-92.43 133.76,-84.88 123.24,-86.15 126.33,-92.43"/>
</g>
<!-- err_error2 -->
<g id="node6" class="node">
<title>err_error2</title>
<path fill="white" stroke="black" d="M303.5,-194C303.5,-194 242.5,-194 242.5,-194 236.5,-194 230.5,-188 230.5,-182 230.5,-182 230.5,-170 230.5,-170 230.5,-164 236.5,-158 242.5,-158 242.5,-158 303.5,-158 303.5,-158 309.5,-158 315.5,-164 315.5,-170 315.5,-170 315.5,-182 315.5,-182 315.5,-188 309.5,-194 303.5,-194"/>
<text text-anchor="middle" x="273" y="-172.3" font-family="Helvetica,sans-Serif" font-size="14.00">err_error2</text>
</g>
<!-- err_error2&#45;&gt;rotate -->
<g id="edge7" class="edge">
<title>err_error2&#45;&gt;rotate</title>
<path fill="none" stroke="black" stroke-width="1.2" d="M315.81,-166.71C329.49,-163.67 344.59,-160.31 357.93,-157.35"/>
<polygon fill="black" stroke="black" stroke-width="1.2" points="358.73,-160.76 367.74,-155.17 357.22,-153.92 358.73,-160.76"/>
</g>
<!-- err_error3 -->
<g id="node7" class="node">
<title>err_error3</title>
<path fill="white" stroke="black" d="M79.5,-198C79.5,-198 18.5,-198 18.5,-198 12.5,-198 6.5,-192 6.5,-186 6.5,-186 6.5,-174 6.5,-174 6.5,-168 12.5,-162 18.5,-162 18.5,-162 79.5,-162 79.5,-162 85.5,-162 91.5,-168 91.5,-174 91.5,-174 91.5,-186 91.5,-186 91.5,-192 85.5,-198 79.5,-198"/>
<text text-anchor="middle" x="49" y="-176.3" font-family="Helvetica,sans-Serif" font-size="14.00">err_error3</text>
</g>
<!-- err_error4 -->
<g id="node8" class="node">
<title>err_error4</title>
<path fill="white" stroke="black" d="M79.5,-252C79.5,-252 18.5,-252 18.5,-252 12.5,-252 6.5,-246 6.5,-240 6.5,-240 6.5,-228 6.5,-228 6.5,-222 12.5,-216 18.5,-216 18.5,-216 79.5,-216 79.5,-216 85.5,-216 91.5,-222 91.5,-228 91.5,-228 91.5,-240 91.5,-240 91.5,-246 85.5,-252 79.5,-252"/>
<text text-anchor="middle" x="49" y="-230.3" font-family="Helvetica,sans-Serif" font-size="14.00">err_error4</text>
</g>
<!-- err_error5 -->
<g id="node9" class="node">
<title>err_error5</title>
<path fill="white" stroke="black" d="M79.5,-90C79.5,-90 18.5,-90 18.5,-90 12.5,-90 6.5,-84 6.5,-78 6.5,-78 6.5,-66 6.5,-66 6.5,-60 12.5,-54 18.5,-54 18.5,-54 79.5,-54 79.5,-54 85.5,-54 91.5,-60 91.5,-66 91.5,-66 91.5,-78 91.5,-78 91.5,-84 85.5,-90 79.5,-90"/>
<text text-anchor="middle" x="49" y="-68.3" font-family="Helvetica,sans-Serif" font-size="14.00">err_error5</text>
</g>
<!-- err_error5&#45;&gt;volt -->
<g id="edge4" class="edge">
<title>err_error5&#45;&gt;volt</title>
<path fill="none" stroke="black" stroke-width="1.2" d="M91.59,-72C102.15,-72 113.42,-72 123.7,-72"/>
<polygon fill="black" stroke="black" stroke-width="1.2" points="123.99,-75.5 133.99,-72 123.99,-68.5 123.99,-75.5"/>
</g>
<!-- mnt_comp1 -->
<g id="node10" class="node">
<title>mnt_comp1</title>
<path fill="white" stroke="black" d="M86,-306C86,-306 12,-306 12,-306 6,-306 0,-300 0,-294 0,-294 0,-282 0,-282 0,-276 6,-270 12,-270 12,-270 86,-270 86,-270 92,-270 98,-276 98,-282 98,-282 98,-294 98,-294 98,-300 92,-306 86,-306"/>
<text text-anchor="middle" x="49" y="-284.3" font-family="Helvetica,sans-Serif" font-size="14.00">mnt_comp1</text>
</g>
<!-- mnt_comp2 -->
<g id="node11" class="node">
<title>mnt_comp2</title>
<path fill="white" stroke="black" d="M86,-360C86,-360 12,-360 12,-360 6,-360 0,-354 0,-348 0,-348 0,-336 0,-336 0,-330 6,-324 12,-324 12,-324 86,-324 86,-324 92,-324 98,-330 98,-336 98,-336 98,-348 98,-348 98,-354 92,-360 86,-360"/>
<text text-anchor="middle" x="49" y="-338.3" font-family="Helvetica,sans-Serif" font-size="14.00">mnt_comp2</text>
</g>
<!-- mnt_comp3 -->
<g id="node12" class="node">
<title>mnt_comp3</title>
<path fill="white" stroke="black" d="M86,-414C86,-414 12,-414 12,-414 6,-414 0,-408 0,-402 0,-402 0,-390 0,-390 0,-384 6,-378 12,-378 12,-378 86,-378 86,-378 92,-378 98,-384 98,-390 98,-390 98,-402 98,-402 98,-408 92,-414 86,-414"/>
<text text-anchor="middle" x="49" y="-392.3" font-family="Helvetica,sans-Serif" font-size="14.00">mnt_comp3</text>
</g>
<!-- mnt_comp4 -->
<g id="node13" class="node">
<title>mnt_comp4</title>
<path fill="white" stroke="black" d="M310,-86C310,-86 236,-86 236,-86 230,-86 224,-80 224,-74 224,-74 224,-62 224,-62 224,-56 230,-50 236,-50 236,-50 310,-50 310,-50 316,-50 322,-56 322,-62 322,-62 322,-74 322,-74 322,-80 316,-86 310,-86"/>
<text text-anchor="middle" x="273" y="-64.3" font-family="Helvetica,sans-Serif" font-size="14.00">mnt_comp4</text>
</g>
<!-- mnt_comp4&#45;&gt;pressure -->
<g id="edge9" class="edge">
<title>mnt_comp4&#45;&gt;pressure</title>
<path fill="none" stroke="black" stroke-width="1.2" d="M322.02,-68C330.51,-68 339.34,-68 347.82,-68"/>
<polygon fill="black" stroke="black" stroke-width="1.2" points="347.94,-71.5 357.94,-68 347.94,-64.5 347.94,-71.5"/>
</g>
<!-- fail_comp1 -->
<g id="node14" class="node">
<title>fail_comp1</title>
<path fill="white" stroke="black" d="M83,-36C83,-36 15,-36 15,-36 9,-36 3,-30 3,-24 3,-24 3,-12 3,-12 3,-6 9,0 15,0 15,0 83,0 83,0 89,0 95,-6 95,-12 95,-12 95,-24 95,-24 95,-30 89,-36 83,-36"/>
<text text-anchor="middle" x="49" y="-14.3" font-family="Helvetica,sans-Serif" font-size="14.00">fail_comp1</text>
</g>
<!-- fail_comp1&#45;&gt;volt -->
<g id="edge5" class="edge">
<title>fail_comp1&#45;&gt;volt</title>
<path fill="none" stroke="black" stroke-width="1.2" d="M86.93,-36.13C99.05,-42.08 112.48,-48.67 124.49,-54.57"/>
<polygon fill="black" stroke="black" stroke-width="1.2" points="123.24,-57.85 133.76,-59.12 126.33,-51.57 123.24,-57.85"/>
</g>
<!-- fail_comp2 -->
<g id="node15" class="node">
<title>fail_comp2</title>
<path fill="white" stroke="black" d="M83,-468C83,-468 15,-468 15,-468 9,-468 3,-462 3,-456 3,-456 3,-444 3,-444 3,-438 9,-432 15,-432 15,-432 83,-432 83,-432 89,-432 95,-438 95,-444 95,-444 95,-456 95,-456 95,-462 89,-468 83,-468"/>
<text text-anchor="middle" x="49" y="-446.3" font-family="Helvetica,sans-Serif" font-size="14.00">fail_comp2</text>
</g>
<!-- fail_comp3 -->
<g id="node16" class="node">
<title>fail_comp3</title>
<path fill="white" stroke="black" d="M83,-522C83,-522 15,-522 15,-522 9,-522 3,-516 3,-510 3,-510 3,-498 3,-498 3,-492 9,-486 15,-486 15,-486 83,-486 83,-486 89,-486 95,-492 95,-498 95,-498 95,-510 95,-510 95,-516 89,-522 83,-522"/>
<text text-anchor="middle" x="49" y="-500.3" font-family="Helvetica,sans-Serif" font-size="14.00">fail_comp3</text>
</g>
</g>
</svg>
