<?xml version="1.0" encoding="UTF-8" standalone="no"?>
<!DOCTYPE svg PUBLIC "-//W3C//DTD SVG 1.1//EN"
 "http://www.w3.org/Graphics/SVG/1.1/DTD/svg11.dtd">
<!-- Generated by graphviz version 2.50.0 (0)
 -->
<!-- Title: G Pages: 1 -->
<svg width="779pt" height="586pt"
 viewBox="0.00 0.00 779.00 586.00" xmlns="http://www.w3.org/2000/svg" xmlns:xlink="http://www.w3.org/1999/xlink">
<g id="graph0" class="graph" transform="scale(1 1) rotate(0) translate(4 582)">
<title>G</title>
<polygon fill="white" stroke="transparent" points="-4,4 -4,-582 775,-582 775,4 -4,4"/>
<text text-anchor="middle" x="385.5" y="-561.2" font-family="Times,serif" font-size="16.00">model=model2/pcmci_mixed.json [machine 87]</text>
<!-- volt -->
<g id="node1" class="node">
<title>volt</title>
<path fill="white" stroke="black" d="M631,-144C631,-144 601,-144 601,-144 595,-144 589,-138 589,-132 589,-132 589,-120 589,-120 589,-114 595,-108 601,-108 601,-108 631,-108 631,-108 637,-108 643,-114 643,-120 643,-120 643,-132 643,-132 643,-138 637,-144 631,-144"/>
<text text-anchor="middle" x="616" y="-122.3" font-family="Helvetica,sans-Serif" font-size="14.00">volt</text>
</g>
<!-- fail_comp1 -->
<g id="node14" class="node">
<title>fail_comp1</title>
<path fill="white" stroke="black" d="M759,-144C759,-144 691,-144 691,-144 685,-144 679,-138 679,-132 679,-132 679,-120 679,-120 679,-114 685,-108 691,-108 691,-108 759,-108 759,-108 765,-108 771,-114 771,-120 771,-120 771,-132 771,-132 771,-138 765,-144 759,-144"/>
<text text-anchor="middle" x="725" y="-122.3" font-family="Helvetica,sans-Serif" font-size="14.00">fail_comp1</text>
</g>
<!-- volt&#45;&gt;fail_comp1 -->
<g id="edge5" class="edge">
<title>volt&#45;&gt;fail_comp1</title>
<path fill="none" stroke="black" stroke-width="1.2" d="M643.18,-126C651,-126 659.88,-126 668.83,-126"/>
<polygon fill="black" stroke="black" stroke-width="1.2" points="668.91,-129.5 678.91,-126 668.91,-122.5 668.91,-129.5"/>
</g>
<!-- rotate -->
<g id="node2" class="node">
<title>rotate</title>
<path fill="white" stroke="black" d="M179,-178C179,-178 146,-178 146,-178 140,-178 134,-172 134,-166 134,-166 134,-154 134,-154 134,-148 140,-142 146,-142 146,-142 179,-142 179,-142 185,-142 191,-148 191,-154 191,-154 191,-166 191,-166 191,-172 185,-178 179,-178"/>
<text text-anchor="middle" x="162.5" y="-156.3" font-family="Helvetica,sans-Serif" font-size="14.00">rotate</text>
</g>
<!-- rotate&#45;&gt;volt -->
<g id="edge1" class="edge">
<title>rotate&#45;&gt;volt</title>
<path fill="none" stroke="black" stroke-width="1.2" d="M191.32,-163.17C255.81,-169.74 420.17,-181.92 553,-153 561.92,-151.06 571.14,-147.81 579.65,-144.22"/>
<polygon fill="black" stroke="black" stroke-width="1.2" points="581.21,-147.35 588.91,-140.08 578.36,-140.96 581.21,-147.35"/>
</g>
<!-- err_error2 -->
<g id="node6" class="node">
<title>err_error2</title>
<path fill="white" stroke="black" d="M300,-144C300,-144 239,-144 239,-144 233,-144 227,-138 227,-132 227,-132 227,-120 227,-120 227,-114 233,-108 239,-108 239,-108 300,-108 300,-108 306,-108 312,-114 312,-120 312,-120 312,-132 312,-132 312,-138 306,-144 300,-144"/>
<text text-anchor="middle" x="269.5" y="-122.3" font-family="Helvetica,sans-Serif" font-size="14.00">err_error2</text>
</g>
<!-- rotate&#45;&gt;err_error2 -->
<g id="edge8" class="edge">
<title>rotate&#45;&gt;err_error2</title>
<path fill="none" stroke="black" stroke-width="1.2" d="M191.09,-151.07C199.12,-148.47 208.16,-145.54 217.16,-142.62"/>
<polygon fill="black" stroke="black" stroke-width="1.2" points="218.42,-145.89 226.86,-139.48 216.27,-139.23 218.42,-145.89"/>
</g>
<!-- pressure -->
<g id="node3" class="node">
<title>pressure</title>
<path fill="white" stroke="black" d="M413,-144C413,-144 360,-144 360,-144 354,-144 348,-138 348,-132 348,-132 348,-120 348,-120 348,-114 354,-108 360,-108 360,-108 413,-108 413,-108 419,-108 425,-114 425,-120 425,-120 425,-132 425,-132 425,-138 419,-144 413,-144"/>
<text text-anchor="middle" x="386.5" y="-122.3" font-family="Helvetica,sans-Serif" font-size="14.00">pressure</text>
</g>
<!-- err_error4 -->
<g id="node8" class="node">
<title>err_error4</title>
<path fill="white" stroke="black" d="M537.5,-144C537.5,-144 476.5,-144 476.5,-144 470.5,-144 464.5,-138 464.5,-132 464.5,-132 464.5,-120 464.5,-120 464.5,-114 470.5,-108 476.5,-108 476.5,-108 537.5,-108 537.5,-108 543.5,-108 549.5,-114 549.5,-120 549.5,-120 549.5,-132 549.5,-132 549.5,-138 543.5,-144 537.5,-144"/>
<text text-anchor="middle" x="507" y="-122.3" font-family="Helvetica,sans-Serif" font-size="14.00">err_error4</text>
</g>
<!-- pressure&#45;&gt;err_error4 -->
<g id="edge11" class="edge">
<title>pressure&#45;&gt;err_error4</title>
<path fill="none" stroke="black" stroke-width="1.2" d="M425.32,-126C434.57,-126 444.63,-126 454.4,-126"/>
<polygon fill="black" stroke="black" stroke-width="1.2" points="454.43,-129.5 464.43,-126 454.43,-122.5 454.43,-129.5"/>
</g>
<!-- vibration -->
<g id="node4" class="node">
<title>vibration</title>
<path fill="white" stroke="black" d="M76,-228C76,-228 22,-228 22,-228 16,-228 10,-222 10,-216 10,-216 10,-204 10,-204 10,-198 16,-192 22,-192 22,-192 76,-192 76,-192 82,-192 88,-198 88,-204 88,-204 88,-216 88,-216 88,-222 82,-228 76,-228"/>
<text text-anchor="middle" x="49" y="-206.3" font-family="Helvetica,sans-Serif" font-size="14.00">vibration</text>
</g>
<!-- vibration&#45;&gt;volt -->
<g id="edge2" class="edge">
<title>vibration&#45;&gt;volt</title>
<path fill="none" stroke="black" stroke-width="1.2" d="M88.29,-210C131.91,-210 205.34,-210 268.5,-210 268.5,-210 268.5,-210 387.5,-210 462.87,-210 484.63,-204.71 553,-173 565.38,-167.26 577.64,-158.73 587.95,-150.51"/>
<polygon fill="black" stroke="black" stroke-width="1.2" points="590.29,-153.12 595.76,-144.04 585.83,-147.72 590.29,-153.12"/>
</g>
<!-- vibration&#45;&gt;rotate -->
<g id="edge7" class="edge">
<title>vibration&#45;&gt;rotate</title>
<path fill="none" stroke="black" stroke-width="1.2" d="M88.06,-192.93C99.79,-187.67 112.69,-181.89 124.35,-176.66"/>
<polygon fill="black" stroke="black" stroke-width="1.2" points="126.12,-179.7 133.81,-172.42 123.26,-173.31 126.12,-179.7"/>
</g>
<!-- err_error1 -->
<g id="node5" class="node">
<title>err_error1</title>
<path fill="white" stroke="black" d="M537.5,-90C537.5,-90 476.5,-90 476.5,-90 470.5,-90 464.5,-84 464.5,-78 464.5,-78 464.5,-66 464.5,-66 464.5,-60 470.5,-54 476.5,-54 476.5,-54 537.5,-54 537.5,-54 543.5,-54 549.5,-60 549.5,-66 549.5,-66 549.5,-78 549.5,-78 549.5,-84 543.5,-90 537.5,-90"/>
<text text-anchor="middle" x="507" y="-68.3" font-family="Helvetica,sans-Serif" font-size="14.00">err_error1</text>
</g>
<!-- err_error1&#45;&gt;volt -->
<g id="edge3" class="edge">
<title>err_error1&#45;&gt;volt</title>
<path fill="none" stroke="black" stroke-width="1.2" d="M543.93,-90.13C555.41,-95.92 568.1,-102.33 579.54,-108.11"/>
<polygon fill="black" stroke="black" stroke-width="1.2" points="578.3,-111.4 588.81,-112.78 581.46,-105.15 578.3,-111.4"/>
</g>
<!-- err_error2&#45;&gt;pressure -->
<g id="edge10" class="edge">
<title>err_error2&#45;&gt;pressure</title>
<path fill="none" stroke="black" stroke-width="1.2" d="M312.02,-126C320.34,-126 329.15,-126 337.67,-126"/>
<polygon fill="black" stroke="black" stroke-width="1.2" points="337.86,-129.5 347.86,-126 337.86,-122.5 337.86,-129.5"/>
</g>
<!-- err_error3 -->
<g id="node7" class="node">
<title>err_error3</title>
<path fill="white" stroke="black" d="M79.5,-174C79.5,-174 18.5,-174 18.5,-174 12.5,-174 6.5,-168 6.5,-162 6.5,-162 6.5,-150 6.5,-150 6.5,-144 12.5,-138 18.5,-138 18.5,-138 79.5,-138 79.5,-138 85.5,-138 91.5,-144 91.5,-150 91.5,-150 91.5,-162 91.5,-162 91.5,-168 85.5,-174 79.5,-174"/>
<text text-anchor="middle" x="49" y="-152.3" font-family="Helvetica,sans-Serif" font-size="14.00">err_error3</text>
</g>
<!-- err_error3&#45;&gt;rotate -->
<g id="edge9" class="edge">
<title>err_error3&#45;&gt;rotate</title>
<path fill="none" stroke="black" stroke-width="1.2" d="M91.52,-157.49C102.11,-157.87 113.43,-158.28 123.81,-158.65"/>
<polygon fill="black" stroke="black" stroke-width="1.2" points="123.7,-162.15 133.82,-159.01 123.95,-155.15 123.7,-162.15"/>
</g>
<!-- err_error4&#45;&gt;volt -->
<g id="edge4" class="edge">
<title>err_error4&#45;&gt;volt</title>
<path fill="none" stroke="black" stroke-width="1.2" d="M549.68,-126C559.23,-126 569.3,-126 578.61,-126"/>
<polygon fill="black" stroke="black" stroke-width="1.2" points="578.72,-129.5 588.72,-126 578.72,-122.5 578.72,-129.5"/>
</g>
<!-- err_error5 -->
<g id="node9" class="node">
<title>err_error5</title>
<path fill="white" stroke="black" d="M79.5,-282C79.5,-282 18.5,-282 18.5,-282 12.5,-282 6.5,-276 6.5,-270 6.5,-270 6.5,-258 6.5,-258 6.5,-252 12.5,-246 18.5,-246 18.5,-246 79.5,-246 79.5,-246 85.5,-246 91.5,-252 91.5,-258 91.5,-258 91.5,-270 91.5,-270 91.5,-276 85.5,-282 79.5,-282"/>
<text text-anchor="middle" x="49" y="-260.3" font-family="Helvetica,sans-Serif" font-size="14.00">err_error5</text>
</g>
<!-- mnt_comp1 -->
<g id="node10" class="node">
<title>mnt_comp1</title>
<path fill="white" stroke="black" d="M86,-336C86,-336 12,-336 12,-336 6,-336 0,-330 0,-324 0,-324 0,-312 0,-312 0,-306 6,-300 12,-300 12,-300 86,-300 86,-300 92,-300 98,-306 98,-312 98,-312 98,-324 98,-324 98,-330 92,-336 86,-336"/>
<text text-anchor="middle" x="49" y="-314.3" font-family="Helvetica,sans-Serif" font-size="14.00">mnt_comp1</text>
</g>
<!-- mnt_comp2 -->
<g id="node11" class="node">
<title>mnt_comp2</title>
<path fill="white" stroke="black" d="M86,-390C86,-390 12,-390 12,-390 6,-390 0,-384 0,-378 0,-378 0,-366 0,-366 0,-360 6,-354 12,-354 12,-354 86,-354 86,-354 92,-354 98,-360 98,-366 98,-366 98,-378 98,-378 98,-384 92,-390 86,-390"/>
<text text-anchor="middle" x="49" y="-368.3" font-family="Helvetica,sans-Serif" font-size="14.00">mnt_comp2</text>
</g>
<!-- mnt_comp3 -->
<g id="node12" class="node">
<title>mnt_comp3</title>
<path fill="white" stroke="black" d="M86,-444C86,-444 12,-444 12,-444 6,-444 0,-438 0,-432 0,-432 0,-420 0,-420 0,-414 6,-408 12,-408 12,-408 86,-408 86,-408 92,-408 98,-414 98,-420 98,-420 98,-432 98,-432 98,-438 92,-444 86,-444"/>
<text text-anchor="middle" x="49" y="-422.3" font-family="Helvetica,sans-Serif" font-size="14.00">mnt_comp3</text>
</g>
<!-- mnt_comp4 -->
<g id="node13" class="node">
<title>mnt_comp4</title>
<path fill="white" stroke="black" d="M86,-498C86,-498 12,-498 12,-498 6,-498 0,-492 0,-486 0,-486 0,-474 0,-474 0,-468 6,-462 12,-462 12,-462 86,-462 86,-462 92,-462 98,-468 98,-474 98,-474 98,-486 98,-486 98,-492 92,-498 86,-498"/>
<text text-anchor="middle" x="49" y="-476.3" font-family="Helvetica,sans-Serif" font-size="14.00">mnt_comp4</text>
</g>
<!-- fail_comp2 -->
<g id="node15" class="node">
<title>fail_comp2</title>
<path fill="white" stroke="black" d="M541,-36C541,-36 473,-36 473,-36 467,-36 461,-30 461,-24 461,-24 461,-12 461,-12 461,-6 467,0 473,0 473,0 541,0 541,0 547,0 553,-6 553,-12 553,-12 553,-24 553,-24 553,-30 547,-36 541,-36"/>
<text text-anchor="middle" x="507" y="-14.3" font-family="Helvetica,sans-Serif" font-size="14.00">fail_comp2</text>
</g>
<!-- fail_comp2&#45;&gt;volt -->
<g id="edge6" class="edge">
<title>fail_comp2&#45;&gt;volt</title>
<path fill="none" stroke="black" stroke-width="1.2" d="M541.45,-36.1C545.51,-38.86 549.47,-41.84 553,-45 570.61,-60.73 586.69,-82.04 598.06,-98.86"/>
<polygon fill="black" stroke="black" stroke-width="1.2" points="595.45,-101.25 603.87,-107.67 601.29,-97.4 595.45,-101.25"/>
</g>
<!-- fail_comp3 -->
<g id="node16" class="node">
<title>fail_comp3</title>
<path fill="white" stroke="black" d="M83,-552C83,-552 15,-552 15,-552 9,-552 3,-546 3,-540 3,-540 3,-528 3,-528 3,-522 9,-516 15,-516 15,-516 83,-516 83,-516 89,-516 95,-522 95,-528 95,-528 95,-540 95,-540 95,-546 89,-552 83,-552"/>
<text text-anchor="middle" x="49" y="-530.3" font-family="Helvetica,sans-Serif" font-size="14.00">fail_comp3</text>
</g>
</g>
</svg>
