<?xml version="1.0" encoding="UTF-8" standalone="no"?>
<!DOCTYPE svg PUBLIC "-//W3C//DTD SVG 1.1//EN"
 "http://www.w3.org/Graphics/SVG/1.1/DTD/svg11.dtd">
<!-- Generated by graphviz version 2.50.0 (0)
 -->
<!-- Title: G Pages: 1 -->
<svg width="551pt" height="529pt"
 viewBox="0.00 0.00 551.00 529.00" xmlns="http://www.w3.org/2000/svg" xmlns:xlink="http://www.w3.org/1999/xlink">
<g id="graph0" class="graph" transform="scale(1 1) rotate(0) translate(4 525)">
<title>G</title>
<polygon fill="white" stroke="transparent" points="-4,4 -4,-525 547,-525 547,4 -4,4"/>
<text text-anchor="middle" x="271.5" y="-504.2" font-family="Times,serif" font-size="16.00">model=model3/pcmci_mixed.json [machine 7]</text>
<!-- volt -->
<g id="node1" class="node">
<title>volt</title>
<path fill="white" stroke="black" d="M531,-144C531,-144 501,-144 501,-144 495,-144 489,-138 489,-132 489,-132 489,-120 489,-120 489,-114 495,-108 501,-108 501,-108 531,-108 531,-108 537,-108 543,-114 543,-120 543,-120 543,-132 543,-132 543,-138 537,-144 531,-144"/>
<text text-anchor="middle" x="516" y="-122.3" font-family="Helvetica,sans-Serif" font-size="14.00">volt</text>
</g>
<!-- rotate -->
<g id="node2" class="node">
<title>rotate</title>
<path fill="white" stroke="black" d="M306,-117C306,-117 273,-117 273,-117 267,-117 261,-111 261,-105 261,-105 261,-93 261,-93 261,-87 267,-81 273,-81 273,-81 306,-81 306,-81 312,-81 318,-87 318,-93 318,-93 318,-105 318,-105 318,-111 312,-117 306,-117"/>
<text text-anchor="middle" x="289.5" y="-95.3" font-family="Helvetica,sans-Serif" font-size="14.00">rotate</text>
</g>
<!-- vibration -->
<g id="node4" class="node">
<title>vibration</title>
<path fill="white" stroke="black" d="M437.5,-198C437.5,-198 383.5,-198 383.5,-198 377.5,-198 371.5,-192 371.5,-186 371.5,-186 371.5,-174 371.5,-174 371.5,-168 377.5,-162 383.5,-162 383.5,-162 437.5,-162 437.5,-162 443.5,-162 449.5,-168 449.5,-174 449.5,-174 449.5,-186 449.5,-186 449.5,-192 443.5,-198 437.5,-198"/>
<text text-anchor="middle" x="410.5" y="-176.3" font-family="Helvetica,sans-Serif" font-size="14.00">vibration</text>
</g>
<!-- rotate&#45;&gt;vibration -->
<g id="edge3" class="edge">
<title>rotate&#45;&gt;vibration</title>
<path fill="none" stroke="black" stroke-width="1.2" d="M316.19,-117.21C331.21,-127.77 350.59,-141.27 368,-153 369.6,-154.08 371.25,-155.18 372.91,-156.29"/>
<polygon fill="black" stroke="black" stroke-width="1.2" points="371.02,-159.23 381.29,-161.82 374.88,-153.39 371.02,-159.23"/>
</g>
<!-- err_error3 -->
<g id="node7" class="node">
<title>err_error3</title>
<path fill="white" stroke="black" d="M441,-144C441,-144 380,-144 380,-144 374,-144 368,-138 368,-132 368,-132 368,-120 368,-120 368,-114 374,-108 380,-108 380,-108 441,-108 441,-108 447,-108 453,-114 453,-120 453,-120 453,-132 453,-132 453,-138 447,-144 441,-144"/>
<text text-anchor="middle" x="410.5" y="-122.3" font-family="Helvetica,sans-Serif" font-size="14.00">err_error3</text>
</g>
<!-- rotate&#45;&gt;err_error3 -->
<g id="edge4" class="edge">
<title>rotate&#45;&gt;err_error3</title>
<path fill="none" stroke="black" stroke-width="1.2" d="M318.1,-105.26C329.92,-107.94 344.13,-111.17 357.79,-114.27"/>
<polygon fill="black" stroke="black" stroke-width="1.2" points="357.06,-117.69 367.59,-116.49 358.61,-110.86 357.06,-117.69"/>
</g>
<!-- err_error4 -->
<g id="node8" class="node">
<title>err_error4</title>
<path fill="white" stroke="black" d="M441,-90C441,-90 380,-90 380,-90 374,-90 368,-84 368,-78 368,-78 368,-66 368,-66 368,-60 374,-54 380,-54 380,-54 441,-54 441,-54 447,-54 453,-60 453,-66 453,-66 453,-78 453,-78 453,-84 447,-90 441,-90"/>
<text text-anchor="middle" x="410.5" y="-68.3" font-family="Helvetica,sans-Serif" font-size="14.00">err_error4</text>
</g>
<!-- rotate&#45;&gt;err_error4 -->
<g id="edge5" class="edge">
<title>rotate&#45;&gt;err_error4</title>
<path fill="none" stroke="black" stroke-width="1.2" d="M318.1,-92.74C329.92,-90.06 344.13,-86.83 357.79,-83.73"/>
<polygon fill="black" stroke="black" stroke-width="1.2" points="358.61,-87.14 367.59,-81.51 357.06,-80.31 358.61,-87.14"/>
</g>
<!-- err_error5 -->
<g id="node9" class="node">
<title>err_error5</title>
<path fill="white" stroke="black" d="M441,-36C441,-36 380,-36 380,-36 374,-36 368,-30 368,-24 368,-24 368,-12 368,-12 368,-6 374,0 380,0 380,0 441,0 441,0 447,0 453,-6 453,-12 453,-12 453,-24 453,-24 453,-30 447,-36 441,-36"/>
<text text-anchor="middle" x="410.5" y="-14.3" font-family="Helvetica,sans-Serif" font-size="14.00">err_error5</text>
</g>
<!-- rotate&#45;&gt;err_error5 -->
<g id="edge6" class="edge">
<title>rotate&#45;&gt;err_error5</title>
<path fill="none" stroke="black" stroke-width="1.2" d="M316.19,-80.79C331.21,-70.23 350.59,-56.73 368,-45 369.6,-43.92 371.25,-42.82 372.91,-41.71"/>
<polygon fill="black" stroke="black" stroke-width="1.2" points="374.88,-44.61 381.29,-36.18 371.02,-38.77 374.88,-44.61"/>
</g>
<!-- pressure -->
<g id="node3" class="node">
<title>pressure</title>
<path fill="white" stroke="black" d="M199,-198C199,-198 146,-198 146,-198 140,-198 134,-192 134,-186 134,-186 134,-174 134,-174 134,-168 140,-162 146,-162 146,-162 199,-162 199,-162 205,-162 211,-168 211,-174 211,-174 211,-186 211,-186 211,-192 205,-198 199,-198"/>
<text text-anchor="middle" x="172.5" y="-176.3" font-family="Helvetica,sans-Serif" font-size="14.00">pressure</text>
</g>
<!-- err_error2 -->
<g id="node6" class="node">
<title>err_error2</title>
<path fill="white" stroke="black" d="M320,-198C320,-198 259,-198 259,-198 253,-198 247,-192 247,-186 247,-186 247,-174 247,-174 247,-168 253,-162 259,-162 259,-162 320,-162 320,-162 326,-162 332,-168 332,-174 332,-174 332,-186 332,-186 332,-192 326,-198 320,-198"/>
<text text-anchor="middle" x="289.5" y="-176.3" font-family="Helvetica,sans-Serif" font-size="14.00">err_error2</text>
</g>
<!-- pressure&#45;&gt;err_error2 -->
<g id="edge7" class="edge">
<title>pressure&#45;&gt;err_error2</title>
<path fill="none" stroke="black" stroke-width="1.2" d="M211.16,-180C219.35,-180 228.15,-180 236.78,-180"/>
<polygon fill="black" stroke="black" stroke-width="1.2" points="236.78,-183.5 246.78,-180 236.78,-176.5 236.78,-183.5"/>
</g>
<!-- err_error1 -->
<g id="node5" class="node">
<title>err_error1</title>
<path fill="white" stroke="black" d="M441,-252C441,-252 380,-252 380,-252 374,-252 368,-246 368,-240 368,-240 368,-228 368,-228 368,-222 374,-216 380,-216 380,-216 441,-216 441,-216 447,-216 453,-222 453,-228 453,-228 453,-240 453,-240 453,-246 447,-252 441,-252"/>
<text text-anchor="middle" x="410.5" y="-230.3" font-family="Helvetica,sans-Serif" font-size="14.00">err_error1</text>
</g>
<!-- err_error1&#45;&gt;volt -->
<g id="edge1" class="edge">
<title>err_error1&#45;&gt;volt</title>
<path fill="none" stroke="black" stroke-width="1.2" d="M441.88,-215.99C445.78,-213.18 449.59,-210.15 453,-207 470.32,-190.96 486.41,-169.66 497.86,-152.93"/>
<polygon fill="black" stroke="black" stroke-width="1.2" points="501.07,-154.42 503.72,-144.16 495.25,-150.53 501.07,-154.42"/>
</g>
<!-- err_error2&#45;&gt;vibration -->
<g id="edge10" class="edge">
<title>err_error2&#45;&gt;vibration</title>
<path fill="none" stroke="black" stroke-width="1.2" d="M332.12,-180C341.47,-180 351.47,-180 361.08,-180"/>
<polygon fill="black" stroke="black" stroke-width="1.2" points="361.29,-183.5 371.29,-180 361.29,-176.5 361.29,-183.5"/>
</g>
<!-- err_error5&#45;&gt;volt -->
<g id="edge2" class="edge">
<title>err_error5&#45;&gt;volt</title>
<path fill="none" stroke="black" stroke-width="1.2" d="M441.88,-36.01C445.78,-38.82 449.59,-41.85 453,-45 470.32,-61.04 486.41,-82.34 497.86,-99.07"/>
<polygon fill="black" stroke="black" stroke-width="1.2" points="495.25,-101.47 503.72,-107.84 501.07,-97.58 495.25,-101.47"/>
</g>
<!-- mnt_comp1 -->
<g id="node10" class="node">
<title>mnt_comp1</title>
<path fill="white" stroke="black" d="M86,-279C86,-279 12,-279 12,-279 6,-279 0,-273 0,-267 0,-267 0,-255 0,-255 0,-249 6,-243 12,-243 12,-243 86,-243 86,-243 92,-243 98,-249 98,-255 98,-255 98,-267 98,-267 98,-273 92,-279 86,-279"/>
<text text-anchor="middle" x="49" y="-257.3" font-family="Helvetica,sans-Serif" font-size="14.00">mnt_comp1</text>
</g>
<!-- mnt_comp2 -->
<g id="node11" class="node">
<title>mnt_comp2</title>
<path fill="white" stroke="black" d="M86,-333C86,-333 12,-333 12,-333 6,-333 0,-327 0,-321 0,-321 0,-309 0,-309 0,-303 6,-297 12,-297 12,-297 86,-297 86,-297 92,-297 98,-303 98,-309 98,-309 98,-321 98,-321 98,-327 92,-333 86,-333"/>
<text text-anchor="middle" x="49" y="-311.3" font-family="Helvetica,sans-Serif" font-size="14.00">mnt_comp2</text>
</g>
<!-- mnt_comp3 -->
<g id="node12" class="node">
<title>mnt_comp3</title>
<path fill="white" stroke="black" d="M86,-225C86,-225 12,-225 12,-225 6,-225 0,-219 0,-213 0,-213 0,-201 0,-201 0,-195 6,-189 12,-189 12,-189 86,-189 86,-189 92,-189 98,-195 98,-201 98,-201 98,-213 98,-213 98,-219 92,-225 86,-225"/>
<text text-anchor="middle" x="49" y="-203.3" font-family="Helvetica,sans-Serif" font-size="14.00">mnt_comp3</text>
</g>
<!-- mnt_comp3&#45;&gt;pressure -->
<g id="edge8" class="edge">
<title>mnt_comp3&#45;&gt;pressure</title>
<path fill="none" stroke="black" stroke-width="1.2" d="M98.02,-196.33C106.6,-194.42 115.54,-192.44 124.1,-190.53"/>
<polygon fill="black" stroke="black" stroke-width="1.2" points="124.94,-193.93 133.94,-188.35 123.42,-187.1 124.94,-193.93"/>
</g>
<!-- mnt_comp4 -->
<g id="node13" class="node">
<title>mnt_comp4</title>
<path fill="white" stroke="black" d="M86,-387C86,-387 12,-387 12,-387 6,-387 0,-381 0,-375 0,-375 0,-363 0,-363 0,-357 6,-351 12,-351 12,-351 86,-351 86,-351 92,-351 98,-357 98,-363 98,-363 98,-375 98,-375 98,-381 92,-387 86,-387"/>
<text text-anchor="middle" x="49" y="-365.3" font-family="Helvetica,sans-Serif" font-size="14.00">mnt_comp4</text>
</g>
<!-- fail_comp1 -->
<g id="node14" class="node">
<title>fail_comp1</title>
<path fill="white" stroke="black" d="M83,-441C83,-441 15,-441 15,-441 9,-441 3,-435 3,-429 3,-429 3,-417 3,-417 3,-411 9,-405 15,-405 15,-405 83,-405 83,-405 89,-405 95,-411 95,-417 95,-417 95,-429 95,-429 95,-435 89,-441 83,-441"/>
<text text-anchor="middle" x="49" y="-419.3" font-family="Helvetica,sans-Serif" font-size="14.00">fail_comp1</text>
</g>
<!-- fail_comp2 -->
<g id="node15" class="node">
<title>fail_comp2</title>
<path fill="white" stroke="black" d="M83,-171C83,-171 15,-171 15,-171 9,-171 3,-165 3,-159 3,-159 3,-147 3,-147 3,-141 9,-135 15,-135 15,-135 83,-135 83,-135 89,-135 95,-141 95,-147 95,-147 95,-159 95,-159 95,-165 89,-171 83,-171"/>
<text text-anchor="middle" x="49" y="-149.3" font-family="Helvetica,sans-Serif" font-size="14.00">fail_comp2</text>
</g>
<!-- fail_comp2&#45;&gt;pressure -->
<g id="edge9" class="edge">
<title>fail_comp2&#45;&gt;pressure</title>
<path fill="none" stroke="black" stroke-width="1.2" d="M95.24,-163.05C104.56,-165.12 114.39,-167.31 123.79,-169.4"/>
<polygon fill="black" stroke="black" stroke-width="1.2" points="123.25,-172.86 133.77,-171.62 124.77,-166.03 123.25,-172.86"/>
</g>
<!-- fail_comp4 -->
<g id="node16" class="node">
<title>fail_comp4</title>
<path fill="white" stroke="black" d="M83,-495C83,-495 15,-495 15,-495 9,-495 3,-489 3,-483 3,-483 3,-471 3,-471 3,-465 9,-459 15,-459 15,-459 83,-459 83,-459 89,-459 95,-465 95,-471 95,-471 95,-483 95,-483 95,-489 89,-495 83,-495"/>
<text text-anchor="middle" x="49" y="-473.3" font-family="Helvetica,sans-Serif" font-size="14.00">fail_comp4</text>
</g>
</g>
</svg>
