<?xml version="1.0" encoding="UTF-8" standalone="no"?>
<!DOCTYPE svg PUBLIC "-//W3C//DTD SVG 1.1//EN"
 "http://www.w3.org/Graphics/SVG/1.1/DTD/svg11.dtd">
<!-- Generated by graphviz version 2.50.0 (0)
 -->
<!-- Title: G Pages: 1 -->
<svg width="595pt" height="446pt"
 viewBox="0.00 0.00 595.00 445.74" xmlns="http://www.w3.org/2000/svg" xmlns:xlink="http://www.w3.org/1999/xlink">
<g id="graph0" class="graph" transform="scale(1 1) rotate(0) translate(4 441.74)">
<title>G</title>
<polygon fill="white" stroke="transparent" points="-4,4 -4,-441.74 591,-441.74 591,4 -4,4"/>
<text text-anchor="middle" x="293.5" y="-420.94" font-family="Times,serif" font-size="16.00">model=model3/pcmci_mixed.json [machine 15]</text>
<!-- volt -->
<g id="node1" class="node">
<title>volt</title>
<path fill="white" stroke="black" d="M64,-195.74C64,-195.74 34,-195.74 34,-195.74 28,-195.74 22,-189.74 22,-183.74 22,-183.74 22,-171.74 22,-171.74 22,-165.74 28,-159.74 34,-159.74 34,-159.74 64,-159.74 64,-159.74 70,-159.74 76,-165.74 76,-171.74 76,-171.74 76,-183.74 76,-183.74 76,-189.74 70,-195.74 64,-195.74"/>
<text text-anchor="middle" x="49" y="-174.04" font-family="Helvetica,sans-Serif" font-size="14.00">volt</text>
</g>
<!-- pressure -->
<g id="node3" class="node">
<title>pressure</title>
<path fill="white" stroke="black" d="M199,-287.74C199,-287.74 146,-287.74 146,-287.74 140,-287.74 134,-281.74 134,-275.74 134,-275.74 134,-263.74 134,-263.74 134,-257.74 140,-251.74 146,-251.74 146,-251.74 199,-251.74 199,-251.74 205,-251.74 211,-257.74 211,-263.74 211,-263.74 211,-275.74 211,-275.74 211,-281.74 205,-287.74 199,-287.74"/>
<text text-anchor="middle" x="172.5" y="-266.04" font-family="Helvetica,sans-Serif" font-size="14.00">pressure</text>
</g>
<!-- volt&#45;&gt;pressure -->
<g id="edge2" class="edge">
<title>volt&#45;&gt;pressure</title>
<path fill="none" stroke="black" stroke-width="1.2" d="M76.03,-191.06C83.33,-195.15 91.14,-199.86 98,-204.74 114.71,-216.62 131.96,-231.7 145.54,-244.34"/>
<polygon fill="black" stroke="black" stroke-width="1.2" points="143.41,-247.14 153.08,-251.46 148.21,-242.05 143.41,-247.14"/>
</g>
<!-- fail_comp2 -->
<g id="node15" class="node">
<title>fail_comp2</title>
<path fill="white" stroke="black" d="M575,-195.74C575,-195.74 507,-195.74 507,-195.74 501,-195.74 495,-189.74 495,-183.74 495,-183.74 495,-171.74 495,-171.74 495,-165.74 501,-159.74 507,-159.74 507,-159.74 575,-159.74 575,-159.74 581,-159.74 587,-165.74 587,-171.74 587,-171.74 587,-183.74 587,-183.74 587,-189.74 581,-195.74 575,-195.74"/>
<text text-anchor="middle" x="541" y="-174.04" font-family="Helvetica,sans-Serif" font-size="14.00">fail_comp2</text>
</g>
<!-- volt&#45;&gt;fail_comp2 -->
<g id="edge5" class="edge">
<title>volt&#45;&gt;fail_comp2</title>
<path fill="none" stroke="black" stroke-width="1.2" d="M76.34,-177.74C153.39,-177.74 379.5,-177.74 484.83,-177.74"/>
<polygon fill="black" stroke="black" stroke-width="1.2" points="484.94,-181.24 494.94,-177.74 484.94,-174.24 484.94,-181.24"/>
</g>
<!-- rotate -->
<g id="node2" class="node">
<title>rotate</title>
<path fill="white" stroke="black" d="M436.5,-126.74C436.5,-126.74 403.5,-126.74 403.5,-126.74 397.5,-126.74 391.5,-120.74 391.5,-114.74 391.5,-114.74 391.5,-102.74 391.5,-102.74 391.5,-96.74 397.5,-90.74 403.5,-90.74 403.5,-90.74 436.5,-90.74 436.5,-90.74 442.5,-90.74 448.5,-96.74 448.5,-102.74 448.5,-102.74 448.5,-114.74 448.5,-114.74 448.5,-120.74 442.5,-126.74 436.5,-126.74"/>
<text text-anchor="middle" x="420" y="-105.04" font-family="Helvetica,sans-Serif" font-size="14.00">rotate</text>
</g>
<!-- rotate&#45;&gt;volt -->
<g id="edge1" class="edge">
<title>rotate&#45;&gt;volt</title>
<path fill="none" stroke="black" stroke-width="1.2" d="M391.25,-106.88C377.37,-106.04 360.3,-105.15 345,-104.74 301.46,-103.56 289.87,-97.05 247,-104.74 188.25,-115.27 124.12,-142.16 85.49,-160.2"/>
<polygon fill="black" stroke="black" stroke-width="1.2" points="83.78,-157.14 76.23,-164.58 86.77,-163.46 83.78,-157.14"/>
</g>
<!-- err_error1 -->
<g id="node5" class="node">
<title>err_error1</title>
<path fill="white" stroke="black" d="M571.5,-76.74C571.5,-76.74 510.5,-76.74 510.5,-76.74 504.5,-76.74 498.5,-70.74 498.5,-64.74 498.5,-64.74 498.5,-52.74 498.5,-52.74 498.5,-46.74 504.5,-40.74 510.5,-40.74 510.5,-40.74 571.5,-40.74 571.5,-40.74 577.5,-40.74 583.5,-46.74 583.5,-52.74 583.5,-52.74 583.5,-64.74 583.5,-64.74 583.5,-70.74 577.5,-76.74 571.5,-76.74"/>
<text text-anchor="middle" x="541" y="-55.04" font-family="Helvetica,sans-Serif" font-size="14.00">err_error1</text>
</g>
<!-- rotate&#45;&gt;err_error1 -->
<g id="edge6" class="edge">
<title>rotate&#45;&gt;err_error1</title>
<path fill="none" stroke="black" stroke-width="1.2" d="M448.6,-97.14C460.54,-92.12 474.91,-86.09 488.68,-80.3"/>
<polygon fill="black" stroke="black" stroke-width="1.2" points="490.22,-83.45 498.09,-76.35 487.51,-76.99 490.22,-83.45"/>
</g>
<!-- rotate&#45;&gt;fail_comp2 -->
<g id="edge10" class="edge">
<title>rotate&#45;&gt;fail_comp2</title>
<path fill="none" stroke="black" stroke-width="1.2" d="M448.6,-124.74C463.78,-133.54 482.89,-144.62 499.71,-154.37"/>
<polygon fill="black" stroke="black" stroke-width="1.2" points="498.37,-157.64 508.77,-159.63 501.88,-151.59 498.37,-157.64"/>
</g>
<!-- vibration -->
<g id="node4" class="node">
<title>vibration</title>
<path fill="white" stroke="black" d="M447,-268.74C447,-268.74 393,-268.74 393,-268.74 387,-268.74 381,-262.74 381,-256.74 381,-256.74 381,-244.74 381,-244.74 381,-238.74 387,-232.74 393,-232.74 393,-232.74 447,-232.74 447,-232.74 453,-232.74 459,-238.74 459,-244.74 459,-244.74 459,-256.74 459,-256.74 459,-262.74 453,-268.74 447,-268.74"/>
<text text-anchor="middle" x="420" y="-247.04" font-family="Helvetica,sans-Serif" font-size="14.00">vibration</text>
</g>
<!-- pressure&#45;&gt;vibration -->
<g id="edge11" class="edge">
<title>pressure&#45;&gt;vibration</title>
<path fill="none" stroke="black" stroke-width="1.2" d="M211.05,-266.83C253.76,-263.53 323.62,-258.12 370.44,-254.5"/>
<polygon fill="black" stroke="black" stroke-width="1.2" points="370.94,-257.97 380.64,-253.71 370.4,-250.99 370.94,-257.97"/>
</g>
<!-- err_error3 -->
<g id="node7" class="node">
<title>err_error3</title>
<path fill="white" stroke="black" d="M326.5,-387.74C326.5,-387.74 265.5,-387.74 265.5,-387.74 259.5,-387.74 253.5,-381.74 253.5,-375.74 253.5,-375.74 253.5,-363.74 253.5,-363.74 253.5,-357.74 259.5,-351.74 265.5,-351.74 265.5,-351.74 326.5,-351.74 326.5,-351.74 332.5,-351.74 338.5,-357.74 338.5,-363.74 338.5,-363.74 338.5,-375.74 338.5,-375.74 338.5,-381.74 332.5,-387.74 326.5,-387.74"/>
<text text-anchor="middle" x="296" y="-366.04" font-family="Helvetica,sans-Serif" font-size="14.00">err_error3</text>
</g>
<!-- pressure&#45;&gt;err_error3 -->
<g id="edge12" class="edge">
<title>pressure&#45;&gt;err_error3</title>
<path fill="none" stroke="black" stroke-width="1.2" d="M189.24,-287.93C203.37,-303.61 225.19,-326.25 247,-342.74 248.54,-343.9 250.15,-345.06 251.78,-346.19"/>
<polygon fill="black" stroke="black" stroke-width="1.2" points="249.91,-349.14 260.2,-351.65 253.72,-343.27 249.91,-349.14"/>
</g>
<!-- err_error5 -->
<g id="node9" class="node">
<title>err_error5</title>
<path fill="white" stroke="black" d="M326.5,-241.74C326.5,-241.74 265.5,-241.74 265.5,-241.74 259.5,-241.74 253.5,-235.74 253.5,-229.74 253.5,-229.74 253.5,-217.74 253.5,-217.74 253.5,-211.74 259.5,-205.74 265.5,-205.74 265.5,-205.74 326.5,-205.74 326.5,-205.74 332.5,-205.74 338.5,-211.74 338.5,-217.74 338.5,-217.74 338.5,-229.74 338.5,-229.74 338.5,-235.74 332.5,-241.74 326.5,-241.74"/>
<text text-anchor="middle" x="296" y="-220.04" font-family="Helvetica,sans-Serif" font-size="14.00">err_error5</text>
</g>
<!-- pressure&#45;&gt;err_error5 -->
<g id="edge13" class="edge">
<title>pressure&#45;&gt;err_error5</title>
<path fill="none" stroke="black" stroke-width="1.2" d="M211.28,-255.43C221.62,-251.52 233.01,-247.21 243.96,-243.06"/>
<polygon fill="black" stroke="black" stroke-width="1.2" points="245.33,-246.29 253.44,-239.47 242.85,-239.74 245.33,-246.29"/>
</g>
<!-- mnt_comp3 -->
<g id="node12" class="node">
<title>mnt_comp3</title>
<path fill="white" stroke="black" d="M333,-333.74C333,-333.74 259,-333.74 259,-333.74 253,-333.74 247,-327.74 247,-321.74 247,-321.74 247,-309.74 247,-309.74 247,-303.74 253,-297.74 259,-297.74 259,-297.74 333,-297.74 333,-297.74 339,-297.74 345,-303.74 345,-309.74 345,-309.74 345,-321.74 345,-321.74 345,-327.74 339,-333.74 333,-333.74"/>
<text text-anchor="middle" x="296" y="-312.04" font-family="Helvetica,sans-Serif" font-size="14.00">mnt_comp3</text>
</g>
<!-- pressure&#45;&gt;mnt_comp3 -->
<g id="edge14" class="edge">
<title>pressure&#45;&gt;mnt_comp3</title>
<path fill="none" stroke="black" stroke-width="1.2" d="M211.28,-284.04C219.76,-287.25 228.94,-290.73 238,-294.16"/>
<polygon fill="black" stroke="black" stroke-width="1.2" points="236.79,-297.44 247.38,-297.71 239.26,-290.89 236.79,-297.44"/>
</g>
<!-- vibration&#45;&gt;volt -->
<g id="edge3" class="edge">
<title>vibration&#45;&gt;volt</title>
<path fill="none" stroke="black" stroke-width="1.2" d="M416,-268.95C409.58,-301.39 391.13,-368.4 345,-396.74 307.89,-419.53 287.73,-412.17 247,-396.74 184.29,-372.97 172.4,-351.72 134,-296.74 108.86,-260.74 126.81,-237.87 98,-204.74 94.31,-200.5 89.79,-196.78 85.01,-193.57"/>
<polygon fill="black" stroke="black" stroke-width="1.2" points="86.63,-190.47 76.25,-188.34 83.04,-196.47 86.63,-190.47"/>
</g>
<!-- err_error4 -->
<g id="node8" class="node">
<title>err_error4</title>
<path fill="white" stroke="black" d="M571.5,-268.74C571.5,-268.74 510.5,-268.74 510.5,-268.74 504.5,-268.74 498.5,-262.74 498.5,-256.74 498.5,-256.74 498.5,-244.74 498.5,-244.74 498.5,-238.74 504.5,-232.74 510.5,-232.74 510.5,-232.74 571.5,-232.74 571.5,-232.74 577.5,-232.74 583.5,-238.74 583.5,-244.74 583.5,-244.74 583.5,-256.74 583.5,-256.74 583.5,-262.74 577.5,-268.74 571.5,-268.74"/>
<text text-anchor="middle" x="541" y="-247.04" font-family="Helvetica,sans-Serif" font-size="14.00">err_error4</text>
</g>
<!-- vibration&#45;&gt;err_error4 -->
<g id="edge15" class="edge">
<title>vibration&#45;&gt;err_error4</title>
<path fill="none" stroke="black" stroke-width="1.2" d="M459.31,-250.74C468.59,-250.74 478.66,-250.74 488.43,-250.74"/>
<polygon fill="black" stroke="black" stroke-width="1.2" points="488.47,-254.24 498.47,-250.74 488.47,-247.24 488.47,-254.24"/>
</g>
<!-- vibration&#45;&gt;fail_comp2 -->
<g id="edge17" class="edge">
<title>vibration&#45;&gt;fail_comp2</title>
<path fill="none" stroke="black" stroke-width="1.2" d="M450.42,-232.69C465.86,-223.22 484.98,-211.49 501.58,-201.3"/>
<polygon fill="black" stroke="black" stroke-width="1.2" points="503.82,-204.04 510.51,-195.83 500.16,-198.07 503.82,-204.04"/>
</g>
<!-- err_error1&#45;&gt;volt -->
<g id="edge4" class="edge">
<title>err_error1&#45;&gt;volt</title>
<path fill="none" stroke="black" stroke-width="1.2" d="M500.89,-40.61C443.58,-16.68 334.11,18.92 247,-12.74 170.28,-40.62 102.58,-112.95 70.21,-151.93"/>
<polygon fill="black" stroke="black" stroke-width="1.2" points="67.47,-149.76 63.85,-159.72 72.89,-154.19 67.47,-149.76"/>
</g>
<!-- err_error2 -->
<g id="node6" class="node">
<title>err_error2</title>
<path fill="white" stroke="black" d="M326.5,-57.74C326.5,-57.74 265.5,-57.74 265.5,-57.74 259.5,-57.74 253.5,-51.74 253.5,-45.74 253.5,-45.74 253.5,-33.74 253.5,-33.74 253.5,-27.74 259.5,-21.74 265.5,-21.74 265.5,-21.74 326.5,-21.74 326.5,-21.74 332.5,-21.74 338.5,-27.74 338.5,-33.74 338.5,-33.74 338.5,-45.74 338.5,-45.74 338.5,-51.74 332.5,-57.74 326.5,-57.74"/>
<text text-anchor="middle" x="296" y="-36.04" font-family="Helvetica,sans-Serif" font-size="14.00">err_error2</text>
</g>
<!-- err_error2&#45;&gt;rotate -->
<g id="edge7" class="edge">
<title>err_error2&#45;&gt;rotate</title>
<path fill="none" stroke="black" stroke-width="1.2" d="M329.05,-57.87C345.38,-67.1 365.3,-78.36 382.24,-87.95"/>
<polygon fill="black" stroke="black" stroke-width="1.2" points="380.87,-91.2 391.3,-93.07 384.32,-85.1 380.87,-91.2"/>
</g>
<!-- err_error5&#45;&gt;rotate -->
<g id="edge8" class="edge">
<title>err_error5&#45;&gt;rotate</title>
<path fill="none" stroke="black" stroke-width="1.2" d="M316.33,-205.51C336.86,-186.17 369.43,-155.46 392.38,-133.83"/>
<polygon fill="black" stroke="black" stroke-width="1.2" points="394.88,-136.28 399.76,-126.87 390.08,-131.19 394.88,-136.28"/>
</g>
<!-- err_error5&#45;&gt;vibration -->
<g id="edge16" class="edge">
<title>err_error5&#45;&gt;vibration</title>
<path fill="none" stroke="black" stroke-width="1.2" d="M338.64,-232.95C349,-235.25 360.19,-237.72 370.83,-240.08"/>
<polygon fill="black" stroke="black" stroke-width="1.2" points="370.3,-243.54 380.82,-242.29 371.82,-236.71 370.3,-243.54"/>
</g>
<!-- mnt_comp1 -->
<g id="node10" class="node">
<title>mnt_comp1</title>
<path fill="white" stroke="black" d="M333,-149.74C333,-149.74 259,-149.74 259,-149.74 253,-149.74 247,-143.74 247,-137.74 247,-137.74 247,-125.74 247,-125.74 247,-119.74 253,-113.74 259,-113.74 259,-113.74 333,-113.74 333,-113.74 339,-113.74 345,-119.74 345,-125.74 345,-125.74 345,-137.74 345,-137.74 345,-143.74 339,-149.74 333,-149.74"/>
<text text-anchor="middle" x="296" y="-128.04" font-family="Helvetica,sans-Serif" font-size="14.00">mnt_comp1</text>
</g>
<!-- mnt_comp1&#45;&gt;rotate -->
<g id="edge9" class="edge">
<title>mnt_comp1&#45;&gt;rotate</title>
<path fill="none" stroke="black" stroke-width="1.2" d="M345.22,-122.65C357.25,-120.38 369.98,-117.98 381.42,-115.82"/>
<polygon fill="black" stroke="black" stroke-width="1.2" points="382.32,-119.21 391.5,-113.92 381.02,-112.34 382.32,-119.21"/>
</g>
<!-- mnt_comp2 -->
<g id="node11" class="node">
<title>mnt_comp2</title>
<path fill="white" stroke="black" d="M86,-249.74C86,-249.74 12,-249.74 12,-249.74 6,-249.74 0,-243.74 0,-237.74 0,-237.74 0,-225.74 0,-225.74 0,-219.74 6,-213.74 12,-213.74 12,-213.74 86,-213.74 86,-213.74 92,-213.74 98,-219.74 98,-225.74 98,-225.74 98,-237.74 98,-237.74 98,-243.74 92,-249.74 86,-249.74"/>
<text text-anchor="middle" x="49" y="-228.04" font-family="Helvetica,sans-Serif" font-size="14.00">mnt_comp2</text>
</g>
<!-- mnt_comp4 -->
<g id="node13" class="node">
<title>mnt_comp4</title>
<path fill="white" stroke="black" d="M86,-303.74C86,-303.74 12,-303.74 12,-303.74 6,-303.74 0,-297.74 0,-291.74 0,-291.74 0,-279.74 0,-279.74 0,-273.74 6,-267.74 12,-267.74 12,-267.74 86,-267.74 86,-267.74 92,-267.74 98,-273.74 98,-279.74 98,-279.74 98,-291.74 98,-291.74 98,-297.74 92,-303.74 86,-303.74"/>
<text text-anchor="middle" x="49" y="-282.04" font-family="Helvetica,sans-Serif" font-size="14.00">mnt_comp4</text>
</g>
<!-- fail_comp1 -->
<g id="node14" class="node">
<title>fail_comp1</title>
<path fill="white" stroke="black" d="M83,-357.74C83,-357.74 15,-357.74 15,-357.74 9,-357.74 3,-351.74 3,-345.74 3,-345.74 3,-333.74 3,-333.74 3,-327.74 9,-321.74 15,-321.74 15,-321.74 83,-321.74 83,-321.74 89,-321.74 95,-327.74 95,-333.74 95,-333.74 95,-345.74 95,-345.74 95,-351.74 89,-357.74 83,-357.74"/>
<text text-anchor="middle" x="49" y="-336.04" font-family="Helvetica,sans-Serif" font-size="14.00">fail_comp1</text>
</g>
<!-- fail_comp4 -->
<g id="node16" class="node">
<title>fail_comp4</title>
<path fill="white" stroke="black" d="M83,-411.74C83,-411.74 15,-411.74 15,-411.74 9,-411.74 3,-405.74 3,-399.74 3,-399.74 3,-387.74 3,-387.74 3,-381.74 9,-375.74 15,-375.74 15,-375.74 83,-375.74 83,-375.74 89,-375.74 95,-381.74 95,-387.74 95,-387.74 95,-399.74 95,-399.74 95,-405.74 89,-411.74 83,-411.74"/>
<text text-anchor="middle" x="49" y="-390.04" font-family="Helvetica,sans-Serif" font-size="14.00">fail_comp4</text>
</g>
</g>
</svg>
