<?xml version="1.0" encoding="UTF-8" standalone="no"?>
<!DOCTYPE svg PUBLIC "-//W3C//DTD SVG 1.1//EN"
 "http://www.w3.org/Graphics/SVG/1.1/DTD/svg11.dtd">
<!-- Generated by graphviz version 2.50.0 (0)
 -->
<!-- Title: G Pages: 1 -->
<svg width="451pt" height="502pt"
 viewBox="0.00 0.00 451.00 502.00" xmlns="http://www.w3.org/2000/svg" xmlns:xlink="http://www.w3.org/1999/xlink">
<g id="graph0" class="graph" transform="scale(1 1) rotate(0) translate(4 498)">
<title>G</title>
<polygon fill="white" stroke="transparent" points="-4,4 -4,-498 447,-498 447,4 -4,4"/>
<text text-anchor="middle" x="221.5" y="-477.2" font-family="Times,serif" font-size="16.00">model=model4/pcmci_mixed.json [machine 51]</text>
<!-- volt -->
<g id="node1" class="node">
<title>volt</title>
<path fill="white" stroke="black" d="M431,-252C431,-252 401,-252 401,-252 395,-252 389,-246 389,-240 389,-240 389,-228 389,-228 389,-222 395,-216 401,-216 401,-216 431,-216 431,-216 437,-216 443,-222 443,-228 443,-228 443,-240 443,-240 443,-246 437,-252 431,-252"/>
<text text-anchor="middle" x="416" y="-230.3" font-family="Helvetica,sans-Serif" font-size="14.00">volt</text>
</g>
<!-- rotate -->
<g id="node2" class="node">
<title>rotate</title>
<path fill="white" stroke="black" d="M320.5,-252C320.5,-252 287.5,-252 287.5,-252 281.5,-252 275.5,-246 275.5,-240 275.5,-240 275.5,-228 275.5,-228 275.5,-222 281.5,-216 287.5,-216 287.5,-216 320.5,-216 320.5,-216 326.5,-216 332.5,-222 332.5,-228 332.5,-228 332.5,-240 332.5,-240 332.5,-246 326.5,-252 320.5,-252"/>
<text text-anchor="middle" x="304" y="-230.3" font-family="Helvetica,sans-Serif" font-size="14.00">rotate</text>
</g>
<!-- rotate&#45;&gt;volt -->
<g id="edge1" class="edge">
<title>rotate&#45;&gt;volt</title>
<path fill="none" stroke="black" stroke-width="1.2" d="M332.76,-234C346.59,-234 363.49,-234 378.36,-234"/>
<polygon fill="black" stroke="black" stroke-width="1.2" points="378.77,-237.5 388.77,-234 378.77,-230.5 378.77,-237.5"/>
</g>
<!-- pressure -->
<g id="node3" class="node">
<title>pressure</title>
<path fill="white" stroke="black" d="M330.5,-198C330.5,-198 277.5,-198 277.5,-198 271.5,-198 265.5,-192 265.5,-186 265.5,-186 265.5,-174 265.5,-174 265.5,-168 271.5,-162 277.5,-162 277.5,-162 330.5,-162 330.5,-162 336.5,-162 342.5,-168 342.5,-174 342.5,-174 342.5,-186 342.5,-186 342.5,-192 336.5,-198 330.5,-198"/>
<text text-anchor="middle" x="304" y="-176.3" font-family="Helvetica,sans-Serif" font-size="14.00">pressure</text>
</g>
<!-- vibration -->
<g id="node4" class="node">
<title>vibration</title>
<path fill="white" stroke="black" d="M203.5,-144C203.5,-144 149.5,-144 149.5,-144 143.5,-144 137.5,-138 137.5,-132 137.5,-132 137.5,-120 137.5,-120 137.5,-114 143.5,-108 149.5,-108 149.5,-108 203.5,-108 203.5,-108 209.5,-108 215.5,-114 215.5,-120 215.5,-120 215.5,-132 215.5,-132 215.5,-138 209.5,-144 203.5,-144"/>
<text text-anchor="middle" x="176.5" y="-122.3" font-family="Helvetica,sans-Serif" font-size="14.00">vibration</text>
</g>
<!-- vibration&#45;&gt;rotate -->
<g id="edge2" class="edge">
<title>vibration&#45;&gt;rotate</title>
<path fill="none" stroke="black" stroke-width="1.2" d="M192.2,-144.23C206.88,-161.71 230.71,-188.15 255,-207 258.62,-209.81 262.58,-212.52 266.61,-215.06"/>
<polygon fill="black" stroke="black" stroke-width="1.2" points="265.07,-218.22 275.45,-220.34 268.66,-212.21 265.07,-218.22"/>
</g>
<!-- vibration&#45;&gt;pressure -->
<g id="edge5" class="edge">
<title>vibration&#45;&gt;pressure</title>
<path fill="none" stroke="black" stroke-width="1.2" d="M215.84,-142.5C228.48,-147.94 242.69,-154.05 255.91,-159.74"/>
<polygon fill="black" stroke="black" stroke-width="1.2" points="254.76,-163.05 265.33,-163.79 257.53,-156.62 254.76,-163.05"/>
</g>
<!-- err_error4 -->
<g id="node8" class="node">
<title>err_error4</title>
<path fill="white" stroke="black" d="M334.5,-144C334.5,-144 273.5,-144 273.5,-144 267.5,-144 261.5,-138 261.5,-132 261.5,-132 261.5,-120 261.5,-120 261.5,-114 267.5,-108 273.5,-108 273.5,-108 334.5,-108 334.5,-108 340.5,-108 346.5,-114 346.5,-120 346.5,-120 346.5,-132 346.5,-132 346.5,-138 340.5,-144 334.5,-144"/>
<text text-anchor="middle" x="304" y="-122.3" font-family="Helvetica,sans-Serif" font-size="14.00">err_error4</text>
</g>
<!-- vibration&#45;&gt;err_error4 -->
<g id="edge6" class="edge">
<title>vibration&#45;&gt;err_error4</title>
<path fill="none" stroke="black" stroke-width="1.2" d="M215.84,-126C226.99,-126 239.36,-126 251.19,-126"/>
<polygon fill="black" stroke="black" stroke-width="1.2" points="251.41,-129.5 261.41,-126 251.41,-122.5 251.41,-129.5"/>
</g>
<!-- mnt_comp1 -->
<g id="node10" class="node">
<title>mnt_comp1</title>
<path fill="white" stroke="black" d="M341,-90C341,-90 267,-90 267,-90 261,-90 255,-84 255,-78 255,-78 255,-66 255,-66 255,-60 261,-54 267,-54 267,-54 341,-54 341,-54 347,-54 353,-60 353,-66 353,-66 353,-78 353,-78 353,-84 347,-90 341,-90"/>
<text text-anchor="middle" x="304" y="-68.3" font-family="Helvetica,sans-Serif" font-size="14.00">mnt_comp1</text>
</g>
<!-- vibration&#45;&gt;mnt_comp1 -->
<g id="edge7" class="edge">
<title>vibration&#45;&gt;mnt_comp1</title>
<path fill="none" stroke="black" stroke-width="1.2" d="M215.84,-109.5C227.1,-104.66 239.6,-99.28 251.54,-94.14"/>
<polygon fill="black" stroke="black" stroke-width="1.2" points="253.16,-97.25 260.96,-90.09 250.4,-90.82 253.16,-97.25"/>
</g>
<!-- mnt_comp3 -->
<g id="node12" class="node">
<title>mnt_comp3</title>
<path fill="white" stroke="black" d="M341,-36C341,-36 267,-36 267,-36 261,-36 255,-30 255,-24 255,-24 255,-12 255,-12 255,-6 261,0 267,0 267,0 341,0 341,0 347,0 353,-6 353,-12 353,-12 353,-24 353,-24 353,-30 347,-36 341,-36"/>
<text text-anchor="middle" x="304" y="-14.3" font-family="Helvetica,sans-Serif" font-size="14.00">mnt_comp3</text>
</g>
<!-- vibration&#45;&gt;mnt_comp3 -->
<g id="edge8" class="edge">
<title>vibration&#45;&gt;mnt_comp3</title>
<path fill="none" stroke="black" stroke-width="1.2" d="M192.2,-107.77C206.88,-90.29 230.71,-63.85 255,-45 256.38,-43.93 257.8,-42.88 259.26,-41.85"/>
<polygon fill="black" stroke="black" stroke-width="1.2" points="261.46,-44.58 267.87,-36.15 257.6,-38.74 261.46,-44.58"/>
</g>
<!-- err_error1 -->
<g id="node5" class="node">
<title>err_error1</title>
<path fill="white" stroke="black" d="M79.5,-198C79.5,-198 18.5,-198 18.5,-198 12.5,-198 6.5,-192 6.5,-186 6.5,-186 6.5,-174 6.5,-174 6.5,-168 12.5,-162 18.5,-162 18.5,-162 79.5,-162 79.5,-162 85.5,-162 91.5,-168 91.5,-174 91.5,-174 91.5,-186 91.5,-186 91.5,-192 85.5,-198 79.5,-198"/>
<text text-anchor="middle" x="49" y="-176.3" font-family="Helvetica,sans-Serif" font-size="14.00">err_error1</text>
</g>
<!-- err_error2 -->
<g id="node6" class="node">
<title>err_error2</title>
<path fill="white" stroke="black" d="M207,-279C207,-279 146,-279 146,-279 140,-279 134,-273 134,-267 134,-267 134,-255 134,-255 134,-249 140,-243 146,-243 146,-243 207,-243 207,-243 213,-243 219,-249 219,-255 219,-255 219,-267 219,-267 219,-273 213,-279 207,-279"/>
<text text-anchor="middle" x="176.5" y="-257.3" font-family="Helvetica,sans-Serif" font-size="14.00">err_error2</text>
</g>
<!-- err_error2&#45;&gt;rotate -->
<g id="edge3" class="edge">
<title>err_error2&#45;&gt;rotate</title>
<path fill="none" stroke="black" stroke-width="1.2" d="M219.29,-252.01C234.09,-248.82 250.66,-245.26 265.12,-242.15"/>
<polygon fill="black" stroke="black" stroke-width="1.2" points="266.18,-245.5 275.22,-239.98 264.71,-238.66 266.18,-245.5"/>
</g>
<!-- err_error3 -->
<g id="node7" class="node">
<title>err_error3</title>
<path fill="white" stroke="black" d="M207,-225C207,-225 146,-225 146,-225 140,-225 134,-219 134,-213 134,-213 134,-201 134,-201 134,-195 140,-189 146,-189 146,-189 207,-189 207,-189 213,-189 219,-195 219,-201 219,-201 219,-213 219,-213 219,-219 213,-225 207,-225"/>
<text text-anchor="middle" x="176.5" y="-203.3" font-family="Helvetica,sans-Serif" font-size="14.00">err_error3</text>
</g>
<!-- err_error3&#45;&gt;rotate -->
<g id="edge4" class="edge">
<title>err_error3&#45;&gt;rotate</title>
<path fill="none" stroke="black" stroke-width="1.2" d="M219.29,-215.99C234.09,-219.18 250.66,-222.74 265.12,-225.85"/>
<polygon fill="black" stroke="black" stroke-width="1.2" points="264.71,-229.34 275.22,-228.02 266.18,-222.5 264.71,-229.34"/>
</g>
<!-- err_error5 -->
<g id="node9" class="node">
<title>err_error5</title>
<path fill="white" stroke="black" d="M79.5,-252C79.5,-252 18.5,-252 18.5,-252 12.5,-252 6.5,-246 6.5,-240 6.5,-240 6.5,-228 6.5,-228 6.5,-222 12.5,-216 18.5,-216 18.5,-216 79.5,-216 79.5,-216 85.5,-216 91.5,-222 91.5,-228 91.5,-228 91.5,-240 91.5,-240 91.5,-246 85.5,-252 79.5,-252"/>
<text text-anchor="middle" x="49" y="-230.3" font-family="Helvetica,sans-Serif" font-size="14.00">err_error5</text>
</g>
<!-- mnt_comp2 -->
<g id="node11" class="node">
<title>mnt_comp2</title>
<path fill="white" stroke="black" d="M86,-306C86,-306 12,-306 12,-306 6,-306 0,-300 0,-294 0,-294 0,-282 0,-282 0,-276 6,-270 12,-270 12,-270 86,-270 86,-270 92,-270 98,-276 98,-282 98,-282 98,-294 98,-294 98,-300 92,-306 86,-306"/>
<text text-anchor="middle" x="49" y="-284.3" font-family="Helvetica,sans-Serif" font-size="14.00">mnt_comp2</text>
</g>
<!-- mnt_comp4 -->
<g id="node13" class="node">
<title>mnt_comp4</title>
<path fill="white" stroke="black" d="M86,-144C86,-144 12,-144 12,-144 6,-144 0,-138 0,-132 0,-132 0,-120 0,-120 0,-114 6,-108 12,-108 12,-108 86,-108 86,-108 92,-108 98,-114 98,-120 98,-120 98,-132 98,-132 98,-138 92,-144 86,-144"/>
<text text-anchor="middle" x="49" y="-122.3" font-family="Helvetica,sans-Serif" font-size="14.00">mnt_comp4</text>
</g>
<!-- mnt_comp4&#45;&gt;vibration -->
<g id="edge9" class="edge">
<title>mnt_comp4&#45;&gt;vibration</title>
<path fill="none" stroke="black" stroke-width="1.2" d="M98.16,-126C107.71,-126 117.73,-126 127.27,-126"/>
<polygon fill="black" stroke="black" stroke-width="1.2" points="127.4,-129.5 137.4,-126 127.4,-122.5 127.4,-129.5"/>
</g>
<!-- fail_comp1 -->
<g id="node14" class="node">
<title>fail_comp1</title>
<path fill="white" stroke="black" d="M83,-360C83,-360 15,-360 15,-360 9,-360 3,-354 3,-348 3,-348 3,-336 3,-336 3,-330 9,-324 15,-324 15,-324 83,-324 83,-324 89,-324 95,-330 95,-336 95,-336 95,-348 95,-348 95,-354 89,-360 83,-360"/>
<text text-anchor="middle" x="49" y="-338.3" font-family="Helvetica,sans-Serif" font-size="14.00">fail_comp1</text>
</g>
<!-- fail_comp2 -->
<g id="node15" class="node">
<title>fail_comp2</title>
<path fill="white" stroke="black" d="M83,-414C83,-414 15,-414 15,-414 9,-414 3,-408 3,-402 3,-402 3,-390 3,-390 3,-384 9,-378 15,-378 15,-378 83,-378 83,-378 89,-378 95,-384 95,-390 95,-390 95,-402 95,-402 95,-408 89,-414 83,-414"/>
<text text-anchor="middle" x="49" y="-392.3" font-family="Helvetica,sans-Serif" font-size="14.00">fail_comp2</text>
</g>
<!-- fail_comp4 -->
<g id="node16" class="node">
<title>fail_comp4</title>
<path fill="white" stroke="black" d="M83,-468C83,-468 15,-468 15,-468 9,-468 3,-462 3,-456 3,-456 3,-444 3,-444 3,-438 9,-432 15,-432 15,-432 83,-432 83,-432 89,-432 95,-438 95,-444 95,-444 95,-456 95,-456 95,-462 89,-468 83,-468"/>
<text text-anchor="middle" x="49" y="-446.3" font-family="Helvetica,sans-Serif" font-size="14.00">fail_comp4</text>
</g>
</g>
</svg>
