<?xml version="1.0" encoding="UTF-8" standalone="no"?>
<!DOCTYPE svg PUBLIC "-//W3C//DTD SVG 1.1//EN"
 "http://www.w3.org/Graphics/SVG/1.1/DTD/svg11.dtd">
<!-- Generated by graphviz version 2.50.0 (0)
 -->
<!-- Title: G Pages: 1 -->
<svg width="451pt" height="548pt"
 viewBox="0.00 0.00 451.00 548.00" xmlns="http://www.w3.org/2000/svg" xmlns:xlink="http://www.w3.org/1999/xlink">
<g id="graph0" class="graph" transform="scale(1 1) rotate(0) translate(4 544)">
<title>G</title>
<polygon fill="white" stroke="transparent" points="-4,4 -4,-544 447,-544 447,4 -4,4"/>
<text text-anchor="middle" x="221.5" y="-523.2" font-family="Times,serif" font-size="16.00">model=model3/pcmci_mixed.json [machine 26]</text>
<!-- volt -->
<g id="node1" class="node">
<title>volt</title>
<path fill="white" stroke="black" d="M431,-163C431,-163 401,-163 401,-163 395,-163 389,-157 389,-151 389,-151 389,-139 389,-139 389,-133 395,-127 401,-127 401,-127 431,-127 431,-127 437,-127 443,-133 443,-139 443,-139 443,-151 443,-151 443,-157 437,-163 431,-163"/>
<text text-anchor="middle" x="416" y="-141.3" font-family="Helvetica,sans-Serif" font-size="14.00">volt</text>
</g>
<!-- rotate -->
<g id="node2" class="node">
<title>rotate</title>
<path fill="white" stroke="black" d="M327,-236C327,-236 294,-236 294,-236 288,-236 282,-230 282,-224 282,-224 282,-212 282,-212 282,-206 288,-200 294,-200 294,-200 327,-200 327,-200 333,-200 339,-206 339,-212 339,-212 339,-224 339,-224 339,-230 333,-236 327,-236"/>
<text text-anchor="middle" x="310.5" y="-214.3" font-family="Helvetica,sans-Serif" font-size="14.00">rotate</text>
</g>
<!-- rotate&#45;&gt;volt -->
<g id="edge1" class="edge">
<title>rotate&#45;&gt;volt</title>
<path fill="none" stroke="black" stroke-width="1.2" d="M337.08,-199.96C350.27,-190.65 366.53,-179.18 380.78,-169.13"/>
<polygon fill="black" stroke="black" stroke-width="1.2" points="383.2,-171.71 389.35,-163.09 379.16,-165.99 383.2,-171.71"/>
</g>
<!-- pressure -->
<g id="node3" class="node">
<title>pressure</title>
<path fill="white" stroke="black" d="M75.5,-190C75.5,-190 22.5,-190 22.5,-190 16.5,-190 10.5,-184 10.5,-178 10.5,-178 10.5,-166 10.5,-166 10.5,-160 16.5,-154 22.5,-154 22.5,-154 75.5,-154 75.5,-154 81.5,-154 87.5,-160 87.5,-166 87.5,-166 87.5,-178 87.5,-178 87.5,-184 81.5,-190 75.5,-190"/>
<text text-anchor="middle" x="49" y="-168.3" font-family="Helvetica,sans-Serif" font-size="14.00">pressure</text>
</g>
<!-- pressure&#45;&gt;volt -->
<g id="edge2" class="edge">
<title>pressure&#45;&gt;volt</title>
<path fill="none" stroke="black" stroke-width="1.2" d="M87.16,-190.06C91.06,-192.76 94.77,-195.74 98,-199 121.27,-222.43 105.55,-247.23 134,-264 171.52,-286.11 188.58,-267.39 232,-264 286.27,-259.76 307.64,-275.1 353,-245 378.92,-227.81 395.94,-195.69 405.47,-172.49"/>
<polygon fill="black" stroke="black" stroke-width="1.2" points="408.74,-173.75 409.11,-163.16 402.22,-171.21 408.74,-173.75"/>
</g>
<!-- pressure&#45;&gt;rotate -->
<g id="edge6" class="edge">
<title>pressure&#45;&gt;rotate</title>
<path fill="none" stroke="black" stroke-width="1.2" d="M86.18,-190.26C90.33,-192.96 94.37,-195.89 98,-199 117.7,-215.91 110.66,-233.63 134,-245 178.26,-266.57 235.61,-250.71 272.49,-235.73"/>
<polygon fill="black" stroke="black" stroke-width="1.2" points="274.01,-238.89 281.86,-231.77 271.29,-232.44 274.01,-238.89"/>
</g>
<!-- vibration -->
<g id="node4" class="node">
<title>vibration</title>
<path fill="white" stroke="black" d="M337.5,-163C337.5,-163 283.5,-163 283.5,-163 277.5,-163 271.5,-157 271.5,-151 271.5,-151 271.5,-139 271.5,-139 271.5,-133 277.5,-127 283.5,-127 283.5,-127 337.5,-127 337.5,-127 343.5,-127 349.5,-133 349.5,-139 349.5,-139 349.5,-151 349.5,-151 349.5,-157 343.5,-163 337.5,-163"/>
<text text-anchor="middle" x="310.5" y="-141.3" font-family="Helvetica,sans-Serif" font-size="14.00">vibration</text>
</g>
<!-- pressure&#45;&gt;vibration -->
<g id="edge8" class="edge">
<title>pressure&#45;&gt;vibration</title>
<path fill="none" stroke="black" stroke-width="1.2" d="M87.73,-168.07C133.63,-163.3 211.18,-155.23 261.34,-150.01"/>
<polygon fill="black" stroke="black" stroke-width="1.2" points="261.71,-153.49 271.3,-148.97 260.99,-146.53 261.71,-153.49"/>
</g>
<!-- err_error2 -->
<g id="node6" class="node">
<title>err_error2</title>
<path fill="white" stroke="black" d="M213.5,-36C213.5,-36 152.5,-36 152.5,-36 146.5,-36 140.5,-30 140.5,-24 140.5,-24 140.5,-12 140.5,-12 140.5,-6 146.5,0 152.5,0 152.5,0 213.5,0 213.5,0 219.5,0 225.5,-6 225.5,-12 225.5,-12 225.5,-24 225.5,-24 225.5,-30 219.5,-36 213.5,-36"/>
<text text-anchor="middle" x="183" y="-14.3" font-family="Helvetica,sans-Serif" font-size="14.00">err_error2</text>
</g>
<!-- pressure&#45;&gt;err_error2 -->
<g id="edge9" class="edge">
<title>pressure&#45;&gt;err_error2</title>
<path fill="none" stroke="black" stroke-width="1.2" d="M58.6,-153.64C71.79,-127.03 99.16,-77.41 134,-45 134.94,-44.12 135.92,-43.26 136.93,-42.42"/>
<polygon fill="black" stroke="black" stroke-width="1.2" points="139.17,-45.11 145.08,-36.32 134.98,-39.5 139.17,-45.11"/>
</g>
<!-- mnt_comp3 -->
<g id="node12" class="node">
<title>mnt_comp3</title>
<path fill="white" stroke="black" d="M220,-144C220,-144 146,-144 146,-144 140,-144 134,-138 134,-132 134,-132 134,-120 134,-120 134,-114 140,-108 146,-108 146,-108 220,-108 220,-108 226,-108 232,-114 232,-120 232,-120 232,-132 232,-132 232,-138 226,-144 220,-144"/>
<text text-anchor="middle" x="183" y="-122.3" font-family="Helvetica,sans-Serif" font-size="14.00">mnt_comp3</text>
</g>
<!-- pressure&#45;&gt;mnt_comp3 -->
<g id="edge10" class="edge">
<title>pressure&#45;&gt;mnt_comp3</title>
<path fill="none" stroke="black" stroke-width="1.2" d="M87.83,-158.82C99.13,-154.88 111.79,-150.47 124.07,-146.19"/>
<polygon fill="black" stroke="black" stroke-width="1.2" points="125.51,-149.39 133.8,-142.8 123.2,-142.78 125.51,-149.39"/>
</g>
<!-- vibration&#45;&gt;volt -->
<g id="edge3" class="edge">
<title>vibration&#45;&gt;volt</title>
<path fill="none" stroke="black" stroke-width="1.2" d="M349.75,-145C359.2,-145 369.3,-145 378.67,-145"/>
<polygon fill="black" stroke="black" stroke-width="1.2" points="378.85,-148.5 388.85,-145 378.85,-141.5 378.85,-148.5"/>
</g>
<!-- err_error1 -->
<g id="node5" class="node">
<title>err_error1</title>
<path fill="white" stroke="black" d="M213.5,-90C213.5,-90 152.5,-90 152.5,-90 146.5,-90 140.5,-84 140.5,-78 140.5,-78 140.5,-66 140.5,-66 140.5,-60 146.5,-54 152.5,-54 152.5,-54 213.5,-54 213.5,-54 219.5,-54 225.5,-60 225.5,-66 225.5,-66 225.5,-78 225.5,-78 225.5,-84 219.5,-90 213.5,-90"/>
<text text-anchor="middle" x="183" y="-68.3" font-family="Helvetica,sans-Serif" font-size="14.00">err_error1</text>
</g>
<!-- err_error1&#45;&gt;vibration -->
<g id="edge11" class="edge">
<title>err_error1&#45;&gt;vibration</title>
<path fill="none" stroke="black" stroke-width="1.2" d="M216.33,-90.05C221.58,-93.02 226.95,-96.08 232,-99 244.65,-106.31 258.37,-114.4 270.71,-121.74"/>
<polygon fill="black" stroke="black" stroke-width="1.2" points="269.03,-124.81 279.42,-126.92 272.62,-118.8 269.03,-124.81"/>
</g>
<!-- err_error2&#45;&gt;volt -->
<g id="edge4" class="edge">
<title>err_error2&#45;&gt;volt</title>
<path fill="none" stroke="black" stroke-width="1.2" d="M218.77,-36.13C223.34,-38.92 227.86,-41.91 232,-45 249.87,-58.36 249.5,-67.51 268,-80 270.51,-81.69 337.05,-110.91 379.74,-129.59"/>
<polygon fill="black" stroke="black" stroke-width="1.2" points="378.41,-132.83 388.98,-133.63 381.22,-126.42 378.41,-132.83"/>
</g>
<!-- err_error2&#45;&gt;vibration -->
<g id="edge12" class="edge">
<title>err_error2&#45;&gt;vibration</title>
<path fill="none" stroke="black" stroke-width="1.2" d="M221.71,-36.34C225.41,-38.96 228.93,-41.85 232,-45 255.87,-69.49 245.96,-86.85 268,-113 270.11,-115.5 272.45,-117.94 274.91,-120.27"/>
<polygon fill="black" stroke="black" stroke-width="1.2" points="272.71,-122.99 282.55,-126.93 277.31,-117.72 272.71,-122.99"/>
</g>
<!-- err_error3 -->
<g id="node7" class="node">
<title>err_error3</title>
<path fill="white" stroke="black" d="M341,-71C341,-71 280,-71 280,-71 274,-71 268,-65 268,-59 268,-59 268,-47 268,-47 268,-41 274,-35 280,-35 280,-35 341,-35 341,-35 347,-35 353,-41 353,-47 353,-47 353,-59 353,-59 353,-65 347,-71 341,-71"/>
<text text-anchor="middle" x="310.5" y="-49.3" font-family="Helvetica,sans-Serif" font-size="14.00">err_error3</text>
</g>
<!-- err_error3&#45;&gt;volt -->
<g id="edge5" class="edge">
<title>err_error3&#45;&gt;volt</title>
<path fill="none" stroke="black" stroke-width="1.2" d="M336,-71.17C341.68,-75.57 347.63,-80.36 353,-85 365.61,-95.91 378.98,-108.67 390.06,-119.62"/>
<polygon fill="black" stroke="black" stroke-width="1.2" points="387.77,-122.28 397.33,-126.86 392.71,-117.32 387.77,-122.28"/>
</g>
<!-- err_error4 -->
<g id="node8" class="node">
<title>err_error4</title>
<path fill="white" stroke="black" d="M79.5,-244C79.5,-244 18.5,-244 18.5,-244 12.5,-244 6.5,-238 6.5,-232 6.5,-232 6.5,-220 6.5,-220 6.5,-214 12.5,-208 18.5,-208 18.5,-208 79.5,-208 79.5,-208 85.5,-208 91.5,-214 91.5,-220 91.5,-220 91.5,-232 91.5,-232 91.5,-238 85.5,-244 79.5,-244"/>
<text text-anchor="middle" x="49" y="-222.3" font-family="Helvetica,sans-Serif" font-size="14.00">err_error4</text>
</g>
<!-- err_error5 -->
<g id="node9" class="node">
<title>err_error5</title>
<path fill="white" stroke="black" d="M79.5,-298C79.5,-298 18.5,-298 18.5,-298 12.5,-298 6.5,-292 6.5,-286 6.5,-286 6.5,-274 6.5,-274 6.5,-268 12.5,-262 18.5,-262 18.5,-262 79.5,-262 79.5,-262 85.5,-262 91.5,-268 91.5,-274 91.5,-274 91.5,-286 91.5,-286 91.5,-292 85.5,-298 79.5,-298"/>
<text text-anchor="middle" x="49" y="-276.3" font-family="Helvetica,sans-Serif" font-size="14.00">err_error5</text>
</g>
<!-- mnt_comp1 -->
<g id="node10" class="node">
<title>mnt_comp1</title>
<path fill="white" stroke="black" d="M86,-352C86,-352 12,-352 12,-352 6,-352 0,-346 0,-340 0,-340 0,-328 0,-328 0,-322 6,-316 12,-316 12,-316 86,-316 86,-316 92,-316 98,-322 98,-328 98,-328 98,-340 98,-340 98,-346 92,-352 86,-352"/>
<text text-anchor="middle" x="49" y="-330.3" font-family="Helvetica,sans-Serif" font-size="14.00">mnt_comp1</text>
</g>
<!-- mnt_comp2 -->
<g id="node11" class="node">
<title>mnt_comp2</title>
<path fill="white" stroke="black" d="M220,-236C220,-236 146,-236 146,-236 140,-236 134,-230 134,-224 134,-224 134,-212 134,-212 134,-206 140,-200 146,-200 146,-200 220,-200 220,-200 226,-200 232,-206 232,-212 232,-212 232,-224 232,-224 232,-230 226,-236 220,-236"/>
<text text-anchor="middle" x="183" y="-214.3" font-family="Helvetica,sans-Serif" font-size="14.00">mnt_comp2</text>
</g>
<!-- mnt_comp2&#45;&gt;rotate -->
<g id="edge7" class="edge">
<title>mnt_comp2&#45;&gt;rotate</title>
<path fill="none" stroke="black" stroke-width="1.2" d="M232.16,-218C245.34,-218 259.42,-218 271.92,-218"/>
<polygon fill="black" stroke="black" stroke-width="1.2" points="271.98,-221.5 281.98,-218 271.98,-214.5 271.98,-221.5"/>
</g>
<!-- mnt_comp2&#45;&gt;vibration -->
<g id="edge13" class="edge">
<title>mnt_comp2&#45;&gt;vibration</title>
<path fill="none" stroke="black" stroke-width="1.2" d="M215.02,-199.96C231.46,-190.39 251.85,-178.53 269.47,-168.28"/>
<polygon fill="black" stroke="black" stroke-width="1.2" points="271.52,-171.14 278.4,-163.09 268,-165.09 271.52,-171.14"/>
</g>
<!-- mnt_comp3&#45;&gt;vibration -->
<g id="edge14" class="edge">
<title>mnt_comp3&#45;&gt;vibration</title>
<path fill="none" stroke="black" stroke-width="1.2" d="M232.16,-133.29C241.71,-134.74 251.73,-136.25 261.27,-137.7"/>
<polygon fill="black" stroke="black" stroke-width="1.2" points="260.99,-141.2 271.4,-139.23 262.04,-134.27 260.99,-141.2"/>
</g>
<!-- mnt_comp4 -->
<g id="node13" class="node">
<title>mnt_comp4</title>
<path fill="white" stroke="black" d="M86,-406C86,-406 12,-406 12,-406 6,-406 0,-400 0,-394 0,-394 0,-382 0,-382 0,-376 6,-370 12,-370 12,-370 86,-370 86,-370 92,-370 98,-376 98,-382 98,-382 98,-394 98,-394 98,-400 92,-406 86,-406"/>
<text text-anchor="middle" x="49" y="-384.3" font-family="Helvetica,sans-Serif" font-size="14.00">mnt_comp4</text>
</g>
<!-- fail_comp1 -->
<g id="node14" class="node">
<title>fail_comp1</title>
<path fill="white" stroke="black" d="M83,-460C83,-460 15,-460 15,-460 9,-460 3,-454 3,-448 3,-448 3,-436 3,-436 3,-430 9,-424 15,-424 15,-424 83,-424 83,-424 89,-424 95,-430 95,-436 95,-436 95,-448 95,-448 95,-454 89,-460 83,-460"/>
<text text-anchor="middle" x="49" y="-438.3" font-family="Helvetica,sans-Serif" font-size="14.00">fail_comp1</text>
</g>
<!-- fail_comp2 -->
<g id="node15" class="node">
<title>fail_comp2</title>
<path fill="white" stroke="black" d="M83,-514C83,-514 15,-514 15,-514 9,-514 3,-508 3,-502 3,-502 3,-490 3,-490 3,-484 9,-478 15,-478 15,-478 83,-478 83,-478 89,-478 95,-484 95,-490 95,-490 95,-502 95,-502 95,-508 89,-514 83,-514"/>
<text text-anchor="middle" x="49" y="-492.3" font-family="Helvetica,sans-Serif" font-size="14.00">fail_comp2</text>
</g>
</g>
</svg>
