<?xml version="1.0" encoding="UTF-8" standalone="no"?>
<!DOCTYPE svg PUBLIC "-//W3C//DTD SVG 1.1//EN"
 "http://www.w3.org/Graphics/SVG/1.1/DTD/svg11.dtd">
<!-- Generated by graphviz version 2.50.0 (0)
 -->
<!-- Title: G Pages: 1 -->
<svg width="830pt" height="432pt"
 viewBox="0.00 0.00 830.00 432.00" xmlns="http://www.w3.org/2000/svg" xmlns:xlink="http://www.w3.org/1999/xlink">
<g id="graph0" class="graph" transform="scale(1 1) rotate(0) translate(4 428)">
<title>G</title>
<polygon fill="white" stroke="transparent" points="-4,4 -4,-428 826,-428 826,4 -4,4"/>
<text text-anchor="middle" x="411" y="-407.2" font-family="Times,serif" font-size="16.00">model=model2/pcmci_mixed.json [machine 69]</text>
<!-- volt -->
<g id="node1" class="node">
<title>volt</title>
<path fill="white" stroke="black" d="M198,-178C198,-178 168,-178 168,-178 162,-178 156,-172 156,-166 156,-166 156,-154 156,-154 156,-148 162,-142 168,-142 168,-142 198,-142 198,-142 204,-142 210,-148 210,-154 210,-154 210,-166 210,-166 210,-172 204,-178 198,-178"/>
<text text-anchor="middle" x="183" y="-156.3" font-family="Helvetica,sans-Serif" font-size="14.00">volt</text>
</g>
<!-- rotate -->
<g id="node2" class="node">
<title>rotate</title>
<path fill="white" stroke="black" d="M313,-101C313,-101 280,-101 280,-101 274,-101 268,-95 268,-89 268,-89 268,-77 268,-77 268,-71 274,-65 280,-65 280,-65 313,-65 313,-65 319,-65 325,-71 325,-77 325,-77 325,-89 325,-89 325,-95 319,-101 313,-101"/>
<text text-anchor="middle" x="296.5" y="-79.3" font-family="Helvetica,sans-Serif" font-size="14.00">rotate</text>
</g>
<!-- volt&#45;&gt;rotate -->
<g id="edge1" class="edge">
<title>volt&#45;&gt;rotate</title>
<path fill="none" stroke="black" stroke-width="1.2" d="M210.1,-146.28C217.33,-142.23 225.09,-137.63 232,-133 243.5,-125.3 255.57,-116.12 266.05,-107.73"/>
<polygon fill="black" stroke="black" stroke-width="1.2" points="268.52,-110.23 274.09,-101.22 264.11,-104.8 268.52,-110.23"/>
</g>
<!-- vibration -->
<g id="node4" class="node">
<title>vibration</title>
<path fill="white" stroke="black" d="M561,-96C561,-96 507,-96 507,-96 501,-96 495,-90 495,-84 495,-84 495,-72 495,-72 495,-66 501,-60 507,-60 507,-60 561,-60 561,-60 567,-60 573,-66 573,-72 573,-72 573,-84 573,-84 573,-90 567,-96 561,-96"/>
<text text-anchor="middle" x="534" y="-74.3" font-family="Helvetica,sans-Serif" font-size="14.00">vibration</text>
</g>
<!-- volt&#45;&gt;vibration -->
<g id="edge2" class="edge">
<title>volt&#45;&gt;vibration</title>
<path fill="none" stroke="black" stroke-width="1.2" d="M210.15,-167.49C260.88,-180.53 375.02,-202.53 459,-164 485.36,-151.91 505.87,-125.28 518.55,-104.84"/>
<polygon fill="black" stroke="black" stroke-width="1.2" points="521.56,-106.62 523.65,-96.24 515.54,-103.05 521.56,-106.62"/>
</g>
<!-- err_error2 -->
<g id="node6" class="node">
<title>err_error2</title>
<path fill="white" stroke="black" d="M440.5,-155C440.5,-155 379.5,-155 379.5,-155 373.5,-155 367.5,-149 367.5,-143 367.5,-143 367.5,-131 367.5,-131 367.5,-125 373.5,-119 379.5,-119 379.5,-119 440.5,-119 440.5,-119 446.5,-119 452.5,-125 452.5,-131 452.5,-131 452.5,-143 452.5,-143 452.5,-149 446.5,-155 440.5,-155"/>
<text text-anchor="middle" x="410" y="-133.3" font-family="Helvetica,sans-Serif" font-size="14.00">err_error2</text>
</g>
<!-- rotate&#45;&gt;err_error2 -->
<g id="edge5" class="edge">
<title>rotate&#45;&gt;err_error2</title>
<path fill="none" stroke="black" stroke-width="1.2" d="M325.06,-96.35C336.37,-101.83 349.79,-108.32 362.54,-114.5"/>
<polygon fill="black" stroke="black" stroke-width="1.2" points="361.14,-117.71 371.66,-118.92 364.19,-111.41 361.14,-117.71"/>
</g>
<!-- mnt_comp1 -->
<g id="node10" class="node">
<title>mnt_comp1</title>
<path fill="white" stroke="black" d="M447,-101C447,-101 373,-101 373,-101 367,-101 361,-95 361,-89 361,-89 361,-77 361,-77 361,-71 367,-65 373,-65 373,-65 447,-65 447,-65 453,-65 459,-71 459,-77 459,-77 459,-89 459,-89 459,-95 453,-101 447,-101"/>
<text text-anchor="middle" x="410" y="-79.3" font-family="Helvetica,sans-Serif" font-size="14.00">mnt_comp1</text>
</g>
<!-- rotate&#45;&gt;mnt_comp1 -->
<g id="edge8" class="edge">
<title>rotate&#45;&gt;mnt_comp1</title>
<path fill="none" stroke="black" stroke-width="1.2" d="M325.06,-83C332.93,-83 341.82,-83 350.8,-83"/>
<polygon fill="black" stroke="black" stroke-width="1.2" points="350.92,-86.5 360.92,-83 350.92,-79.5 350.92,-86.5"/>
</g>
<!-- pressure -->
<g id="node3" class="node">
<title>pressure</title>
<path fill="white" stroke="black" d="M678,-137C678,-137 625,-137 625,-137 619,-137 613,-131 613,-125 613,-125 613,-113 613,-113 613,-107 619,-101 625,-101 625,-101 678,-101 678,-101 684,-101 690,-107 690,-113 690,-113 690,-125 690,-125 690,-131 684,-137 678,-137"/>
<text text-anchor="middle" x="651.5" y="-115.3" font-family="Helvetica,sans-Serif" font-size="14.00">pressure</text>
</g>
<!-- err_error5 -->
<g id="node9" class="node">
<title>err_error5</title>
<path fill="white" stroke="black" d="M806.5,-91C806.5,-91 745.5,-91 745.5,-91 739.5,-91 733.5,-85 733.5,-79 733.5,-79 733.5,-67 733.5,-67 733.5,-61 739.5,-55 745.5,-55 745.5,-55 806.5,-55 806.5,-55 812.5,-55 818.5,-61 818.5,-67 818.5,-67 818.5,-79 818.5,-79 818.5,-85 812.5,-91 806.5,-91"/>
<text text-anchor="middle" x="776" y="-69.3" font-family="Helvetica,sans-Serif" font-size="14.00">err_error5</text>
</g>
<!-- pressure&#45;&gt;err_error5 -->
<g id="edge11" class="edge">
<title>pressure&#45;&gt;err_error5</title>
<path fill="none" stroke="black" stroke-width="1.2" d="M690.25,-104.82C700.8,-100.86 712.45,-96.49 723.64,-92.29"/>
<polygon fill="black" stroke="black" stroke-width="1.2" points="725.19,-95.44 733.32,-88.65 722.73,-88.89 725.19,-95.44"/>
</g>
<!-- fail_comp3 -->
<g id="node15" class="node">
<title>fail_comp3</title>
<path fill="white" stroke="black" d="M810,-145C810,-145 742,-145 742,-145 736,-145 730,-139 730,-133 730,-133 730,-121 730,-121 730,-115 736,-109 742,-109 742,-109 810,-109 810,-109 816,-109 822,-115 822,-121 822,-121 822,-133 822,-133 822,-139 816,-145 810,-145"/>
<text text-anchor="middle" x="776" y="-123.3" font-family="Helvetica,sans-Serif" font-size="14.00">fail_comp3</text>
</g>
<!-- pressure&#45;&gt;fail_comp3 -->
<g id="edge12" class="edge">
<title>pressure&#45;&gt;fail_comp3</title>
<path fill="none" stroke="black" stroke-width="1.2" d="M690.25,-121.47C699.54,-122.07 709.68,-122.73 719.61,-123.38"/>
<polygon fill="black" stroke="black" stroke-width="1.2" points="719.63,-126.89 729.84,-124.05 720.08,-119.91 719.63,-126.89"/>
</g>
<!-- vibration&#45;&gt;rotate -->
<g id="edge4" class="edge">
<title>vibration&#45;&gt;rotate</title>
<path fill="none" stroke="black" stroke-width="1.2" d="M494.68,-64.32C483.34,-60.9 470.8,-57.72 459,-56 415.9,-49.73 403.68,-47.3 361,-56 352.13,-57.81 342.96,-60.9 334.45,-64.36"/>
<polygon fill="black" stroke="black" stroke-width="1.2" points="332.95,-61.2 325.16,-68.38 335.73,-67.62 332.95,-61.2"/>
</g>
<!-- vibration&#45;&gt;pressure -->
<g id="edge10" class="edge">
<title>vibration&#45;&gt;pressure</title>
<path fill="none" stroke="black" stroke-width="1.2" d="M573.14,-91.54C582.8,-94.97 593.29,-98.69 603.34,-102.26"/>
<polygon fill="black" stroke="black" stroke-width="1.2" points="602.2,-105.57 612.79,-105.62 604.54,-98.97 602.2,-105.57"/>
</g>
<!-- err_error3 -->
<g id="node7" class="node">
<title>err_error3</title>
<path fill="white" stroke="black" d="M682,-36C682,-36 621,-36 621,-36 615,-36 609,-30 609,-24 609,-24 609,-12 609,-12 609,-6 615,0 621,0 621,0 682,0 682,0 688,0 694,-6 694,-12 694,-12 694,-24 694,-24 694,-30 688,-36 682,-36"/>
<text text-anchor="middle" x="651.5" y="-14.3" font-family="Helvetica,sans-Serif" font-size="14.00">err_error3</text>
</g>
<!-- vibration&#45;&gt;err_error3 -->
<g id="edge13" class="edge">
<title>vibration&#45;&gt;err_error3</title>
<path fill="none" stroke="black" stroke-width="1.2" d="M569.65,-60C581.2,-54 594.21,-47.24 606.38,-40.92"/>
<polygon fill="black" stroke="black" stroke-width="1.2" points="608.21,-43.91 615.47,-36.2 604.98,-37.7 608.21,-43.91"/>
</g>
<!-- err_error1 -->
<g id="node5" class="node">
<title>err_error1</title>
<path fill="white" stroke="black" d="M79.5,-182C79.5,-182 18.5,-182 18.5,-182 12.5,-182 6.5,-176 6.5,-170 6.5,-170 6.5,-158 6.5,-158 6.5,-152 12.5,-146 18.5,-146 18.5,-146 79.5,-146 79.5,-146 85.5,-146 91.5,-152 91.5,-158 91.5,-158 91.5,-170 91.5,-170 91.5,-176 85.5,-182 79.5,-182"/>
<text text-anchor="middle" x="49" y="-160.3" font-family="Helvetica,sans-Serif" font-size="14.00">err_error1</text>
</g>
<!-- err_error3&#45;&gt;rotate -->
<g id="edge6" class="edge">
<title>err_error3&#45;&gt;rotate</title>
<path fill="none" stroke="black" stroke-width="1.2" d="M608.66,-16.84C551.38,-16.44 445.96,-19.99 361,-47 351.22,-50.11 341.27,-54.86 332.24,-59.89"/>
<polygon fill="black" stroke="black" stroke-width="1.2" points="330.42,-56.9 323.55,-64.97 333.95,-62.94 330.42,-56.9"/>
</g>
<!-- err_error4 -->
<g id="node8" class="node">
<title>err_error4</title>
<path fill="white" stroke="black" d="M79.5,-128C79.5,-128 18.5,-128 18.5,-128 12.5,-128 6.5,-122 6.5,-116 6.5,-116 6.5,-104 6.5,-104 6.5,-98 12.5,-92 18.5,-92 18.5,-92 79.5,-92 79.5,-92 85.5,-92 91.5,-98 91.5,-104 91.5,-104 91.5,-116 91.5,-116 91.5,-122 85.5,-128 79.5,-128"/>
<text text-anchor="middle" x="49" y="-106.3" font-family="Helvetica,sans-Serif" font-size="14.00">err_error4</text>
</g>
<!-- err_error4&#45;&gt;volt -->
<g id="edge3" class="edge">
<title>err_error4&#45;&gt;volt</title>
<path fill="none" stroke="black" stroke-width="1.2" d="M91.77,-125.82C109.32,-132.47 129.53,-140.12 146.36,-146.5"/>
<polygon fill="black" stroke="black" stroke-width="1.2" points="145.25,-149.82 155.84,-150.09 147.73,-143.28 145.25,-149.82"/>
</g>
<!-- err_error4&#45;&gt;rotate -->
<g id="edge7" class="edge">
<title>err_error4&#45;&gt;rotate</title>
<path fill="none" stroke="black" stroke-width="1.2" d="M90.21,-91.88C103.82,-86.64 119.31,-81.62 134,-79 175.85,-71.52 224.77,-74.3 257.71,-77.82"/>
<polygon fill="black" stroke="black" stroke-width="1.2" points="257.48,-81.31 267.81,-78.97 258.27,-74.36 257.48,-81.31"/>
</g>
<!-- err_error5&#45;&gt;vibration -->
<g id="edge14" class="edge">
<title>err_error5&#45;&gt;vibration</title>
<path fill="none" stroke="black" stroke-width="1.2" d="M733.12,-73.87C691.29,-74.74 627.09,-76.08 583.18,-77"/>
<polygon fill="black" stroke="black" stroke-width="1.2" points="582.95,-73.5 573.03,-77.21 583.1,-80.5 582.95,-73.5"/>
</g>
<!-- mnt_comp1&#45;&gt;vibration -->
<g id="edge15" class="edge">
<title>mnt_comp1&#45;&gt;vibration</title>
<path fill="none" stroke="black" stroke-width="1.2" d="M459.22,-81.02C467.65,-80.68 476.42,-80.32 484.84,-79.97"/>
<polygon fill="black" stroke="black" stroke-width="1.2" points="485.06,-83.47 494.91,-79.56 484.77,-76.47 485.06,-83.47"/>
</g>
<!-- mnt_comp2 -->
<g id="node11" class="node">
<title>mnt_comp2</title>
<path fill="white" stroke="black" d="M86,-236C86,-236 12,-236 12,-236 6,-236 0,-230 0,-224 0,-224 0,-212 0,-212 0,-206 6,-200 12,-200 12,-200 86,-200 86,-200 92,-200 98,-206 98,-212 98,-212 98,-224 98,-224 98,-230 92,-236 86,-236"/>
<text text-anchor="middle" x="49" y="-214.3" font-family="Helvetica,sans-Serif" font-size="14.00">mnt_comp2</text>
</g>
<!-- mnt_comp3 -->
<g id="node12" class="node">
<title>mnt_comp3</title>
<path fill="white" stroke="black" d="M86,-290C86,-290 12,-290 12,-290 6,-290 0,-284 0,-278 0,-278 0,-266 0,-266 0,-260 6,-254 12,-254 12,-254 86,-254 86,-254 92,-254 98,-260 98,-266 98,-266 98,-278 98,-278 98,-284 92,-290 86,-290"/>
<text text-anchor="middle" x="49" y="-268.3" font-family="Helvetica,sans-Serif" font-size="14.00">mnt_comp3</text>
</g>
<!-- mnt_comp4 -->
<g id="node13" class="node">
<title>mnt_comp4</title>
<path fill="white" stroke="black" d="M220,-124C220,-124 146,-124 146,-124 140,-124 134,-118 134,-112 134,-112 134,-100 134,-100 134,-94 140,-88 146,-88 146,-88 220,-88 220,-88 226,-88 232,-94 232,-100 232,-100 232,-112 232,-112 232,-118 226,-124 220,-124"/>
<text text-anchor="middle" x="183" y="-102.3" font-family="Helvetica,sans-Serif" font-size="14.00">mnt_comp4</text>
</g>
<!-- mnt_comp4&#45;&gt;rotate -->
<g id="edge9" class="edge">
<title>mnt_comp4&#45;&gt;rotate</title>
<path fill="none" stroke="black" stroke-width="1.2" d="M232.26,-96.05C240.78,-94.29 249.54,-92.48 257.73,-90.79"/>
<polygon fill="black" stroke="black" stroke-width="1.2" points="258.64,-94.18 267.72,-88.73 257.22,-87.32 258.64,-94.18"/>
</g>
<!-- fail_comp2 -->
<g id="node14" class="node">
<title>fail_comp2</title>
<path fill="white" stroke="black" d="M83,-344C83,-344 15,-344 15,-344 9,-344 3,-338 3,-332 3,-332 3,-320 3,-320 3,-314 9,-308 15,-308 15,-308 83,-308 83,-308 89,-308 95,-314 95,-320 95,-320 95,-332 95,-332 95,-338 89,-344 83,-344"/>
<text text-anchor="middle" x="49" y="-322.3" font-family="Helvetica,sans-Serif" font-size="14.00">fail_comp2</text>
</g>
<!-- fail_comp4 -->
<g id="node16" class="node">
<title>fail_comp4</title>
<path fill="white" stroke="black" d="M83,-398C83,-398 15,-398 15,-398 9,-398 3,-392 3,-386 3,-386 3,-374 3,-374 3,-368 9,-362 15,-362 15,-362 83,-362 83,-362 89,-362 95,-368 95,-374 95,-374 95,-386 95,-386 95,-392 89,-398 83,-398"/>
<text text-anchor="middle" x="49" y="-376.3" font-family="Helvetica,sans-Serif" font-size="14.00">fail_comp4</text>
</g>
</g>
</svg>
