<?xml version="1.0" encoding="UTF-8" standalone="no"?>
<!DOCTYPE svg PUBLIC "-//W3C//DTD SVG 1.1//EN"
 "http://www.w3.org/Graphics/SVG/1.1/DTD/svg11.dtd">
<!-- Generated by graphviz version 2.50.0 (0)
 -->
<!-- Title: G Pages: 1 -->
<svg width="685pt" height="605pt"
 viewBox="0.00 0.00 685.00 605.00" xmlns="http://www.w3.org/2000/svg" xmlns:xlink="http://www.w3.org/1999/xlink">
<g id="graph0" class="graph" transform="scale(1 1) rotate(0) translate(4 601)">
<title>G</title>
<polygon fill="white" stroke="transparent" points="-4,4 -4,-601 681,-601 681,4 -4,4"/>
<text text-anchor="middle" x="338.5" y="-580.2" font-family="Times,serif" font-size="16.00">model=model3/pcmci_mixed.json [machine 59]</text>
<!-- volt -->
<g id="node1" class="node">
<title>volt</title>
<path fill="white" stroke="black" d="M176,-212C176,-212 146,-212 146,-212 140,-212 134,-206 134,-200 134,-200 134,-188 134,-188 134,-182 140,-176 146,-176 146,-176 176,-176 176,-176 182,-176 188,-182 188,-188 188,-188 188,-200 188,-200 188,-206 182,-212 176,-212"/>
<text text-anchor="middle" x="161" y="-190.3" font-family="Helvetica,sans-Serif" font-size="14.00">volt</text>
</g>
<!-- rotate -->
<g id="node2" class="node">
<title>rotate</title>
<path fill="white" stroke="black" d="M289.5,-212C289.5,-212 256.5,-212 256.5,-212 250.5,-212 244.5,-206 244.5,-200 244.5,-200 244.5,-188 244.5,-188 244.5,-182 250.5,-176 256.5,-176 256.5,-176 289.5,-176 289.5,-176 295.5,-176 301.5,-182 301.5,-188 301.5,-188 301.5,-200 301.5,-200 301.5,-206 295.5,-212 289.5,-212"/>
<text text-anchor="middle" x="273" y="-190.3" font-family="Helvetica,sans-Serif" font-size="14.00">rotate</text>
</g>
<!-- volt&#45;&gt;rotate -->
<g id="edge1" class="edge">
<title>volt&#45;&gt;rotate</title>
<path fill="none" stroke="black" stroke-width="1.2" d="M188.07,-194C201.8,-194 218.89,-194 234.06,-194"/>
<polygon fill="black" stroke="black" stroke-width="1.2" points="234.2,-197.5 244.2,-194 234.2,-190.5 234.2,-197.5"/>
</g>
<!-- pressure -->
<g id="node3" class="node">
<title>pressure</title>
<path fill="white" stroke="black" d="M665,-250C665,-250 612,-250 612,-250 606,-250 600,-244 600,-238 600,-238 600,-226 600,-226 600,-220 606,-214 612,-214 612,-214 665,-214 665,-214 671,-214 677,-220 677,-226 677,-226 677,-238 677,-238 677,-244 671,-250 665,-250"/>
<text text-anchor="middle" x="638.5" y="-228.3" font-family="Helvetica,sans-Serif" font-size="14.00">pressure</text>
</g>
<!-- volt&#45;&gt;pressure -->
<g id="edge2" class="edge">
<title>volt&#45;&gt;pressure</title>
<path fill="none" stroke="black" stroke-width="1.2" d="M188.13,-207.88C198.93,-212.95 211.77,-218.13 224,-221 353.48,-251.34 512.01,-243.54 589.81,-236.9"/>
<polygon fill="black" stroke="black" stroke-width="1.2" points="590.14,-240.39 599.79,-236.02 589.52,-233.42 590.14,-240.39"/>
</g>
<!-- vibration -->
<g id="node4" class="node">
<title>vibration</title>
<path fill="white" stroke="black" d="M552,-143C552,-143 498,-143 498,-143 492,-143 486,-137 486,-131 486,-131 486,-119 486,-119 486,-113 492,-107 498,-107 498,-107 552,-107 552,-107 558,-107 564,-113 564,-119 564,-119 564,-131 564,-131 564,-137 558,-143 552,-143"/>
<text text-anchor="middle" x="525" y="-121.3" font-family="Helvetica,sans-Serif" font-size="14.00">vibration</text>
</g>
<!-- volt&#45;&gt;vibration -->
<g id="edge3" class="edge">
<title>volt&#45;&gt;vibration</title>
<path fill="none" stroke="black" stroke-width="1.2" d="M188.05,-182.1C199.06,-177.22 212.07,-171.64 224,-167 282.69,-144.19 295.89,-131.36 358,-121 398.33,-114.27 409.13,-119.9 450,-121 458.32,-121.22 467.16,-121.59 475.73,-122.01"/>
<polygon fill="black" stroke="black" stroke-width="1.2" points="475.82,-125.52 485.99,-122.55 476.19,-118.53 475.82,-125.52"/>
</g>
<!-- mnt_comp4 -->
<g id="node13" class="node">
<title>mnt_comp4</title>
<path fill="white" stroke="black" d="M310,-334C310,-334 236,-334 236,-334 230,-334 224,-328 224,-322 224,-322 224,-310 224,-310 224,-304 230,-298 236,-298 236,-298 310,-298 310,-298 316,-298 322,-304 322,-310 322,-310 322,-322 322,-322 322,-328 316,-334 310,-334"/>
<text text-anchor="middle" x="273" y="-312.3" font-family="Helvetica,sans-Serif" font-size="14.00">mnt_comp4</text>
</g>
<!-- volt&#45;&gt;mnt_comp4 -->
<g id="edge7" class="edge">
<title>volt&#45;&gt;mnt_comp4</title>
<path fill="none" stroke="black" stroke-width="1.2" d="M171.68,-212.06C182.62,-231.37 201.83,-262.17 224,-284 226.69,-286.65 229.63,-289.22 232.69,-291.66"/>
<polygon fill="black" stroke="black" stroke-width="1.2" points="230.86,-294.66 240.97,-297.84 235.04,-289.05 230.86,-294.66"/>
</g>
<!-- rotate&#45;&gt;vibration -->
<g id="edge9" class="edge">
<title>rotate&#45;&gt;vibration</title>
<path fill="none" stroke="black" stroke-width="1.2" d="M301.76,-195.07C337.25,-195.53 400.07,-193.28 450,-175 466.12,-169.1 482.15,-158.95 495.14,-149.32"/>
<polygon fill="black" stroke="black" stroke-width="1.2" points="497.41,-152 503.21,-143.13 493.14,-146.44 497.41,-152"/>
</g>
<!-- fail_comp2 -->
<g id="node15" class="node">
<title>fail_comp2</title>
<path fill="white" stroke="black" d="M438,-166C438,-166 370,-166 370,-166 364,-166 358,-160 358,-154 358,-154 358,-142 358,-142 358,-136 364,-130 370,-130 370,-130 438,-130 438,-130 444,-130 450,-136 450,-142 450,-142 450,-154 450,-154 450,-160 444,-166 438,-166"/>
<text text-anchor="middle" x="404" y="-144.3" font-family="Helvetica,sans-Serif" font-size="14.00">fail_comp2</text>
</g>
<!-- rotate&#45;&gt;fail_comp2 -->
<g id="edge10" class="edge">
<title>rotate&#45;&gt;fail_comp2</title>
<path fill="none" stroke="black" stroke-width="1.2" d="M301.67,-184.13C315.22,-179.3 332.03,-173.31 348.04,-167.6"/>
<polygon fill="black" stroke="black" stroke-width="1.2" points="349.62,-170.75 357.87,-164.09 347.27,-164.16 349.62,-170.75"/>
</g>
<!-- pressure&#45;&gt;rotate -->
<g id="edge8" class="edge">
<title>pressure&#45;&gt;rotate</title>
<path fill="none" stroke="black" stroke-width="1.2" d="M599.82,-228.06C530.05,-220.77 381.53,-205.24 311.73,-197.94"/>
<polygon fill="black" stroke="black" stroke-width="1.2" points="311.93,-194.45 301.62,-196.89 311.2,-201.41 311.93,-194.45"/>
</g>
<!-- vibration&#45;&gt;pressure -->
<g id="edge11" class="edge">
<title>vibration&#45;&gt;pressure</title>
<path fill="none" stroke="black" stroke-width="1.2" d="M544.91,-143.15C563.1,-160.6 590.74,-187.12 611.09,-206.65"/>
<polygon fill="black" stroke="black" stroke-width="1.2" points="608.85,-209.36 618.49,-213.76 613.7,-204.31 608.85,-209.36"/>
</g>
<!-- err_error1 -->
<g id="node5" class="node">
<title>err_error1</title>
<path fill="white" stroke="black" d="M79.5,-301C79.5,-301 18.5,-301 18.5,-301 12.5,-301 6.5,-295 6.5,-289 6.5,-289 6.5,-277 6.5,-277 6.5,-271 12.5,-265 18.5,-265 18.5,-265 79.5,-265 79.5,-265 85.5,-265 91.5,-271 91.5,-277 91.5,-277 91.5,-289 91.5,-289 91.5,-295 85.5,-301 79.5,-301"/>
<text text-anchor="middle" x="49" y="-279.3" font-family="Helvetica,sans-Serif" font-size="14.00">err_error1</text>
</g>
<!-- err_error2 -->
<g id="node6" class="node">
<title>err_error2</title>
<path fill="white" stroke="black" d="M434.5,-36C434.5,-36 373.5,-36 373.5,-36 367.5,-36 361.5,-30 361.5,-24 361.5,-24 361.5,-12 361.5,-12 361.5,-6 367.5,0 373.5,0 373.5,0 434.5,0 434.5,0 440.5,0 446.5,-6 446.5,-12 446.5,-12 446.5,-24 446.5,-24 446.5,-30 440.5,-36 434.5,-36"/>
<text text-anchor="middle" x="404" y="-14.3" font-family="Helvetica,sans-Serif" font-size="14.00">err_error2</text>
</g>
<!-- err_error2&#45;&gt;vibration -->
<g id="edge12" class="edge">
<title>err_error2&#45;&gt;vibration</title>
<path fill="none" stroke="black" stroke-width="1.2" d="M432.23,-36.21C438.23,-40.54 444.45,-45.28 450,-50 468.03,-65.35 486.75,-84.35 500.84,-99.38"/>
<polygon fill="black" stroke="black" stroke-width="1.2" points="498.4,-101.9 507.77,-106.85 503.53,-97.13 498.4,-101.9"/>
</g>
<!-- err_error3 -->
<g id="node7" class="node">
<title>err_error3</title>
<path fill="white" stroke="black" d="M79.5,-355C79.5,-355 18.5,-355 18.5,-355 12.5,-355 6.5,-349 6.5,-343 6.5,-343 6.5,-331 6.5,-331 6.5,-325 12.5,-319 18.5,-319 18.5,-319 79.5,-319 79.5,-319 85.5,-319 91.5,-325 91.5,-331 91.5,-331 91.5,-343 91.5,-343 91.5,-349 85.5,-355 79.5,-355"/>
<text text-anchor="middle" x="49" y="-333.3" font-family="Helvetica,sans-Serif" font-size="14.00">err_error3</text>
</g>
<!-- err_error4 -->
<g id="node8" class="node">
<title>err_error4</title>
<path fill="white" stroke="black" d="M79.5,-193C79.5,-193 18.5,-193 18.5,-193 12.5,-193 6.5,-187 6.5,-181 6.5,-181 6.5,-169 6.5,-169 6.5,-163 12.5,-157 18.5,-157 18.5,-157 79.5,-157 79.5,-157 85.5,-157 91.5,-163 91.5,-169 91.5,-169 91.5,-181 91.5,-181 91.5,-187 85.5,-193 79.5,-193"/>
<text text-anchor="middle" x="49" y="-171.3" font-family="Helvetica,sans-Serif" font-size="14.00">err_error4</text>
</g>
<!-- err_error4&#45;&gt;volt -->
<g id="edge4" class="edge">
<title>err_error4&#45;&gt;volt</title>
<path fill="none" stroke="black" stroke-width="1.2" d="M91.59,-182.18C102.26,-184.03 113.66,-186 124.03,-187.79"/>
<polygon fill="black" stroke="black" stroke-width="1.2" points="123.54,-191.25 133.99,-189.51 124.73,-184.36 123.54,-191.25"/>
</g>
<!-- err_error5 -->
<g id="node9" class="node">
<title>err_error5</title>
<path fill="white" stroke="black" d="M79.5,-409C79.5,-409 18.5,-409 18.5,-409 12.5,-409 6.5,-403 6.5,-397 6.5,-397 6.5,-385 6.5,-385 6.5,-379 12.5,-373 18.5,-373 18.5,-373 79.5,-373 79.5,-373 85.5,-373 91.5,-379 91.5,-385 91.5,-385 91.5,-397 91.5,-397 91.5,-403 85.5,-409 79.5,-409"/>
<text text-anchor="middle" x="49" y="-387.3" font-family="Helvetica,sans-Serif" font-size="14.00">err_error5</text>
</g>
<!-- mnt_comp1 -->
<g id="node10" class="node">
<title>mnt_comp1</title>
<path fill="white" stroke="black" d="M86,-247C86,-247 12,-247 12,-247 6,-247 0,-241 0,-235 0,-235 0,-223 0,-223 0,-217 6,-211 12,-211 12,-211 86,-211 86,-211 92,-211 98,-217 98,-223 98,-223 98,-235 98,-235 98,-241 92,-247 86,-247"/>
<text text-anchor="middle" x="49" y="-225.3" font-family="Helvetica,sans-Serif" font-size="14.00">mnt_comp1</text>
</g>
<!-- mnt_comp1&#45;&gt;volt -->
<g id="edge5" class="edge">
<title>mnt_comp1&#45;&gt;volt</title>
<path fill="none" stroke="black" stroke-width="1.2" d="M98.25,-213.65C106.95,-210.88 115.88,-208.04 124.15,-205.41"/>
<polygon fill="black" stroke="black" stroke-width="1.2" points="125.38,-208.69 133.85,-202.32 123.26,-202.02 125.38,-208.69"/>
</g>
<!-- mnt_comp2 -->
<g id="node11" class="node">
<title>mnt_comp2</title>
<path fill="white" stroke="black" d="M86,-101C86,-101 12,-101 12,-101 6,-101 0,-95 0,-89 0,-89 0,-77 0,-77 0,-71 6,-65 12,-65 12,-65 86,-65 86,-65 92,-65 98,-71 98,-77 98,-77 98,-89 98,-89 98,-95 92,-101 86,-101"/>
<text text-anchor="middle" x="49" y="-79.3" font-family="Helvetica,sans-Serif" font-size="14.00">mnt_comp2</text>
</g>
<!-- mnt_comp2&#45;&gt;volt -->
<g id="edge6" class="edge">
<title>mnt_comp2&#45;&gt;volt</title>
<path fill="none" stroke="black" stroke-width="1.2" d="M68.16,-101.33C86.32,-119.65 114.38,-147.96 134.7,-168.47"/>
<polygon fill="black" stroke="black" stroke-width="1.2" points="132.28,-171 141.81,-175.64 137.26,-166.08 132.28,-171"/>
</g>
<!-- mnt_comp2&#45;&gt;vibration -->
<g id="edge13" class="edge">
<title>mnt_comp2&#45;&gt;vibration</title>
<path fill="none" stroke="black" stroke-width="1.2" d="M98.15,-85.27C173.42,-89.13 323.44,-98.02 450,-113 458.36,-113.99 467.22,-115.25 475.79,-116.57"/>
<polygon fill="black" stroke="black" stroke-width="1.2" points="475.25,-120.03 485.68,-118.14 476.36,-113.11 475.25,-120.03"/>
</g>
<!-- mnt_comp3 -->
<g id="node12" class="node">
<title>mnt_comp3</title>
<path fill="white" stroke="black" d="M86,-463C86,-463 12,-463 12,-463 6,-463 0,-457 0,-451 0,-451 0,-439 0,-439 0,-433 6,-427 12,-427 12,-427 86,-427 86,-427 92,-427 98,-433 98,-439 98,-439 98,-451 98,-451 98,-457 92,-463 86,-463"/>
<text text-anchor="middle" x="49" y="-441.3" font-family="Helvetica,sans-Serif" font-size="14.00">mnt_comp3</text>
</g>
<!-- fail_comp1 -->
<g id="node14" class="node">
<title>fail_comp1</title>
<path fill="white" stroke="black" d="M83,-517C83,-517 15,-517 15,-517 9,-517 3,-511 3,-505 3,-505 3,-493 3,-493 3,-487 9,-481 15,-481 15,-481 83,-481 83,-481 89,-481 95,-487 95,-493 95,-493 95,-505 95,-505 95,-511 89,-517 83,-517"/>
<text text-anchor="middle" x="49" y="-495.3" font-family="Helvetica,sans-Serif" font-size="14.00">fail_comp1</text>
</g>
<!-- fail_comp2&#45;&gt;vibration -->
<g id="edge14" class="edge">
<title>fail_comp2&#45;&gt;vibration</title>
<path fill="none" stroke="black" stroke-width="1.2" d="M450.33,-139.24C458.64,-137.63 467.34,-135.95 475.74,-134.33"/>
<polygon fill="black" stroke="black" stroke-width="1.2" points="476.62,-137.72 485.78,-132.39 475.29,-130.85 476.62,-137.72"/>
</g>
<!-- fail_comp4 -->
<g id="node16" class="node">
<title>fail_comp4</title>
<path fill="white" stroke="black" d="M83,-571C83,-571 15,-571 15,-571 9,-571 3,-565 3,-559 3,-559 3,-547 3,-547 3,-541 9,-535 15,-535 15,-535 83,-535 83,-535 89,-535 95,-541 95,-547 95,-547 95,-559 95,-559 95,-565 89,-571 83,-571"/>
<text text-anchor="middle" x="49" y="-549.3" font-family="Helvetica,sans-Serif" font-size="14.00">fail_comp4</text>
</g>
</g>
</svg>
