<?xml version="1.0" encoding="UTF-8" standalone="no"?>
<!DOCTYPE svg PUBLIC "-//W3C//DTD SVG 1.1//EN"
 "http://www.w3.org/Graphics/SVG/1.1/DTD/svg11.dtd">
<!-- Generated by graphviz version 2.50.0 (0)
 -->
<!-- Title: G Pages: 1 -->
<svg width="695pt" height="328pt"
 viewBox="0.00 0.00 695.00 328.00" xmlns="http://www.w3.org/2000/svg" xmlns:xlink="http://www.w3.org/1999/xlink">
<g id="graph0" class="graph" transform="scale(1 1) rotate(0) translate(4 324)">
<title>G</title>
<polygon fill="white" stroke="transparent" points="-4,4 -4,-324 691,-324 691,4 -4,4"/>
<text text-anchor="middle" x="343.5" y="-303.2" font-family="Times,serif" font-size="16.00">model=model4/pcmci_mixed.json [machine 88]</text>
<!-- volt -->
<g id="node1" class="node">
<title>volt</title>
<path fill="white" stroke="black" d="M438.5,-201C438.5,-201 408.5,-201 408.5,-201 402.5,-201 396.5,-195 396.5,-189 396.5,-189 396.5,-177 396.5,-177 396.5,-171 402.5,-165 408.5,-165 408.5,-165 438.5,-165 438.5,-165 444.5,-165 450.5,-171 450.5,-177 450.5,-177 450.5,-189 450.5,-189 450.5,-195 444.5,-201 438.5,-201"/>
<text text-anchor="middle" x="423.5" y="-179.3" font-family="Helvetica,sans-Serif" font-size="14.00">volt</text>
</g>
<!-- rotate -->
<g id="node2" class="node">
<title>rotate</title>
<path fill="white" stroke="black" d="M675,-136C675,-136 642,-136 642,-136 636,-136 630,-130 630,-124 630,-124 630,-112 630,-112 630,-106 636,-100 642,-100 642,-100 675,-100 675,-100 681,-100 687,-106 687,-112 687,-112 687,-124 687,-124 687,-130 681,-136 675,-136"/>
<text text-anchor="middle" x="658.5" y="-114.3" font-family="Helvetica,sans-Serif" font-size="14.00">rotate</text>
</g>
<!-- volt&#45;&gt;rotate -->
<g id="edge1" class="edge">
<title>volt&#45;&gt;rotate</title>
<path fill="none" stroke="black" stroke-width="1.2" d="M450.58,-191.31C485.1,-200.79 547.08,-212.37 594,-191 614.77,-181.54 631.37,-161.57 642.39,-144.9"/>
<polygon fill="black" stroke="black" stroke-width="1.2" points="645.58,-146.4 647.92,-136.07 639.65,-142.68 645.58,-146.4"/>
</g>
<!-- vibration -->
<g id="node4" class="node">
<title>vibration</title>
<path fill="white" stroke="black" d="M575,-274C575,-274 521,-274 521,-274 515,-274 509,-268 509,-262 509,-262 509,-250 509,-250 509,-244 515,-238 521,-238 521,-238 575,-238 575,-238 581,-238 587,-244 587,-250 587,-250 587,-262 587,-262 587,-268 581,-274 575,-274"/>
<text text-anchor="middle" x="548" y="-252.3" font-family="Helvetica,sans-Serif" font-size="14.00">vibration</text>
</g>
<!-- volt&#45;&gt;vibration -->
<g id="edge2" class="edge">
<title>volt&#45;&gt;vibration</title>
<path fill="none" stroke="black" stroke-width="1.2" d="M450.78,-198.66C467.33,-208.53 489.01,-221.44 507.6,-232.52"/>
<polygon fill="black" stroke="black" stroke-width="1.2" points="506.06,-235.68 516.44,-237.79 509.64,-229.66 506.06,-235.68"/>
</g>
<!-- err_error4 -->
<g id="node8" class="node">
<title>err_error4</title>
<path fill="white" stroke="black" d="M578.5,-182C578.5,-182 517.5,-182 517.5,-182 511.5,-182 505.5,-176 505.5,-170 505.5,-170 505.5,-158 505.5,-158 505.5,-152 511.5,-146 517.5,-146 517.5,-146 578.5,-146 578.5,-146 584.5,-146 590.5,-152 590.5,-158 590.5,-158 590.5,-170 590.5,-170 590.5,-176 584.5,-182 578.5,-182"/>
<text text-anchor="middle" x="548" y="-160.3" font-family="Helvetica,sans-Serif" font-size="14.00">err_error4</text>
</g>
<!-- volt&#45;&gt;err_error4 -->
<g id="edge4" class="edge">
<title>volt&#45;&gt;err_error4</title>
<path fill="none" stroke="black" stroke-width="1.2" d="M450.78,-178.92C463.81,-176.9 480.02,-174.39 495.4,-172"/>
<polygon fill="black" stroke="black" stroke-width="1.2" points="496,-175.45 505.34,-170.46 494.93,-168.54 496,-175.45"/>
</g>
<!-- pressure -->
<g id="node3" class="node">
<title>pressure</title>
<path fill="white" stroke="black" d="M199,-132C199,-132 146,-132 146,-132 140,-132 134,-126 134,-120 134,-120 134,-108 134,-108 134,-102 140,-96 146,-96 146,-96 199,-96 199,-96 205,-96 211,-102 211,-108 211,-108 211,-120 211,-120 211,-126 205,-132 199,-132"/>
<text text-anchor="middle" x="172.5" y="-110.3" font-family="Helvetica,sans-Serif" font-size="14.00">pressure</text>
</g>
<!-- err_error1 -->
<g id="node5" class="node">
<title>err_error1</title>
<path fill="white" stroke="black" d="M326.5,-213C326.5,-213 265.5,-213 265.5,-213 259.5,-213 253.5,-207 253.5,-201 253.5,-201 253.5,-189 253.5,-189 253.5,-183 259.5,-177 265.5,-177 265.5,-177 326.5,-177 326.5,-177 332.5,-177 338.5,-183 338.5,-189 338.5,-189 338.5,-201 338.5,-201 338.5,-207 332.5,-213 326.5,-213"/>
<text text-anchor="middle" x="296" y="-191.3" font-family="Helvetica,sans-Serif" font-size="14.00">err_error1</text>
</g>
<!-- pressure&#45;&gt;err_error1 -->
<g id="edge9" class="edge">
<title>pressure&#45;&gt;err_error1</title>
<path fill="none" stroke="black" stroke-width="1.2" d="M196.49,-132.01C210.73,-142.88 229.57,-156.75 247,-168 248.89,-169.22 250.84,-170.45 252.83,-171.66"/>
<polygon fill="black" stroke="black" stroke-width="1.2" points="251.26,-174.8 261.64,-176.93 254.85,-168.79 251.26,-174.8"/>
</g>
<!-- err_error2 -->
<g id="node6" class="node">
<title>err_error2</title>
<path fill="white" stroke="black" d="M326.5,-159C326.5,-159 265.5,-159 265.5,-159 259.5,-159 253.5,-153 253.5,-147 253.5,-147 253.5,-135 253.5,-135 253.5,-129 259.5,-123 265.5,-123 265.5,-123 326.5,-123 326.5,-123 332.5,-123 338.5,-129 338.5,-135 338.5,-135 338.5,-147 338.5,-147 338.5,-153 332.5,-159 326.5,-159"/>
<text text-anchor="middle" x="296" y="-137.3" font-family="Helvetica,sans-Serif" font-size="14.00">err_error2</text>
</g>
<!-- pressure&#45;&gt;err_error2 -->
<g id="edge10" class="edge">
<title>pressure&#45;&gt;err_error2</title>
<path fill="none" stroke="black" stroke-width="1.2" d="M211.28,-122.39C221.52,-124.67 232.78,-127.17 243.63,-129.58"/>
<polygon fill="black" stroke="black" stroke-width="1.2" points="242.92,-133.01 253.44,-131.76 244.44,-126.18 242.92,-133.01"/>
</g>
<!-- mnt_comp1 -->
<g id="node10" class="node">
<title>mnt_comp1</title>
<path fill="white" stroke="black" d="M333,-105C333,-105 259,-105 259,-105 253,-105 247,-99 247,-93 247,-93 247,-81 247,-81 247,-75 253,-69 259,-69 259,-69 333,-69 333,-69 339,-69 345,-75 345,-81 345,-81 345,-93 345,-93 345,-99 339,-105 333,-105"/>
<text text-anchor="middle" x="296" y="-83.3" font-family="Helvetica,sans-Serif" font-size="14.00">mnt_comp1</text>
</g>
<!-- pressure&#45;&gt;mnt_comp1 -->
<g id="edge11" class="edge">
<title>pressure&#45;&gt;mnt_comp1</title>
<path fill="none" stroke="black" stroke-width="1.2" d="M211.28,-105.61C219.48,-103.78 228.33,-101.82 237.11,-99.87"/>
<polygon fill="black" stroke="black" stroke-width="1.2" points="237.94,-103.27 246.94,-97.68 236.42,-96.43 237.94,-103.27"/>
</g>
<!-- fail_comp4 -->
<g id="node16" class="node">
<title>fail_comp4</title>
<path fill="white" stroke="black" d="M330,-51C330,-51 262,-51 262,-51 256,-51 250,-45 250,-39 250,-39 250,-27 250,-27 250,-21 256,-15 262,-15 262,-15 330,-15 330,-15 336,-15 342,-21 342,-27 342,-27 342,-39 342,-39 342,-45 336,-51 330,-51"/>
<text text-anchor="middle" x="296" y="-29.3" font-family="Helvetica,sans-Serif" font-size="14.00">fail_comp4</text>
</g>
<!-- pressure&#45;&gt;fail_comp4 -->
<g id="edge13" class="edge">
<title>pressure&#45;&gt;fail_comp4</title>
<path fill="none" stroke="black" stroke-width="1.2" d="M196.49,-95.99C210.73,-85.12 229.57,-71.25 247,-60 248.89,-58.78 250.84,-57.55 252.83,-56.34"/>
<polygon fill="black" stroke="black" stroke-width="1.2" points="254.85,-59.21 261.64,-51.07 251.26,-53.2 254.85,-59.21"/>
</g>
<!-- vibration&#45;&gt;rotate -->
<g id="edge5" class="edge">
<title>vibration&#45;&gt;rotate</title>
<path fill="none" stroke="black" stroke-width="1.2" d="M578.53,-237.67C584.02,-233.55 589.44,-228.93 594,-224 615.79,-200.43 633.8,-168.2 645.01,-145.49"/>
<polygon fill="black" stroke="black" stroke-width="1.2" points="648.2,-146.92 649.38,-136.39 641.89,-143.88 648.2,-146.92"/>
</g>
<!-- err_error2&#45;&gt;volt -->
<g id="edge3" class="edge">
<title>err_error2&#45;&gt;volt</title>
<path fill="none" stroke="black" stroke-width="1.2" d="M338.79,-154.99C354.2,-160.14 371.52,-165.94 386.38,-170.91"/>
<polygon fill="black" stroke="black" stroke-width="1.2" points="385.64,-174.35 396.23,-174.21 387.86,-167.72 385.64,-174.35"/>
</g>
<!-- err_error2&#45;&gt;rotate -->
<g id="edge6" class="edge">
<title>err_error2&#45;&gt;rotate</title>
<path fill="none" stroke="black" stroke-width="1.2" d="M338.71,-138.34C409.43,-133.83 551.81,-124.74 619.75,-120.41"/>
<polygon fill="black" stroke="black" stroke-width="1.2" points="620.24,-123.88 630,-119.75 619.79,-116.9 620.24,-123.88"/>
</g>
<!-- err_error3 -->
<g id="node7" class="node">
<title>err_error3</title>
<path fill="white" stroke="black" d="M578.5,-90C578.5,-90 517.5,-90 517.5,-90 511.5,-90 505.5,-84 505.5,-78 505.5,-78 505.5,-66 505.5,-66 505.5,-60 511.5,-54 517.5,-54 517.5,-54 578.5,-54 578.5,-54 584.5,-54 590.5,-60 590.5,-66 590.5,-66 590.5,-78 590.5,-78 590.5,-84 584.5,-90 578.5,-90"/>
<text text-anchor="middle" x="548" y="-68.3" font-family="Helvetica,sans-Serif" font-size="14.00">err_error3</text>
</g>
<!-- err_error3&#45;&gt;rotate -->
<g id="edge7" class="edge">
<title>err_error3&#45;&gt;rotate</title>
<path fill="none" stroke="black" stroke-width="1.2" d="M590.64,-89.65C600.5,-93.83 610.95,-98.26 620.58,-102.35"/>
<polygon fill="black" stroke="black" stroke-width="1.2" points="619.32,-105.61 629.89,-106.3 622.05,-99.17 619.32,-105.61"/>
</g>
<!-- err_error5 -->
<g id="node9" class="node">
<title>err_error5</title>
<path fill="white" stroke="black" d="M454,-274C454,-274 393,-274 393,-274 387,-274 381,-268 381,-262 381,-262 381,-250 381,-250 381,-244 387,-238 393,-238 393,-238 454,-238 454,-238 460,-238 466,-244 466,-250 466,-250 466,-262 466,-262 466,-268 460,-274 454,-274"/>
<text text-anchor="middle" x="423.5" y="-252.3" font-family="Helvetica,sans-Serif" font-size="14.00">err_error5</text>
</g>
<!-- err_error5&#45;&gt;vibration -->
<g id="edge14" class="edge">
<title>err_error5&#45;&gt;vibration</title>
<path fill="none" stroke="black" stroke-width="1.2" d="M466.31,-256C476.71,-256 487.95,-256 498.63,-256"/>
<polygon fill="black" stroke="black" stroke-width="1.2" points="498.67,-259.5 508.67,-256 498.67,-252.5 498.67,-259.5"/>
</g>
<!-- mnt_comp2 -->
<g id="node11" class="node">
<title>mnt_comp2</title>
<path fill="white" stroke="black" d="M86,-186C86,-186 12,-186 12,-186 6,-186 0,-180 0,-174 0,-174 0,-162 0,-162 0,-156 6,-150 12,-150 12,-150 86,-150 86,-150 92,-150 98,-156 98,-162 98,-162 98,-174 98,-174 98,-180 92,-186 86,-186"/>
<text text-anchor="middle" x="49" y="-164.3" font-family="Helvetica,sans-Serif" font-size="14.00">mnt_comp2</text>
</g>
<!-- mnt_comp3 -->
<g id="node12" class="node">
<title>mnt_comp3</title>
<path fill="white" stroke="black" d="M86,-240C86,-240 12,-240 12,-240 6,-240 0,-234 0,-228 0,-228 0,-216 0,-216 0,-210 6,-204 12,-204 12,-204 86,-204 86,-204 92,-204 98,-210 98,-216 98,-216 98,-228 98,-228 98,-234 92,-240 86,-240"/>
<text text-anchor="middle" x="49" y="-218.3" font-family="Helvetica,sans-Serif" font-size="14.00">mnt_comp3</text>
</g>
<!-- mnt_comp4 -->
<g id="node13" class="node">
<title>mnt_comp4</title>
<path fill="white" stroke="black" d="M86,-294C86,-294 12,-294 12,-294 6,-294 0,-288 0,-282 0,-282 0,-270 0,-270 0,-264 6,-258 12,-258 12,-258 86,-258 86,-258 92,-258 98,-264 98,-270 98,-270 98,-282 98,-282 98,-288 92,-294 86,-294"/>
<text text-anchor="middle" x="49" y="-272.3" font-family="Helvetica,sans-Serif" font-size="14.00">mnt_comp4</text>
</g>
<!-- fail_comp1 -->
<g id="node14" class="node">
<title>fail_comp1</title>
<path fill="white" stroke="black" d="M83,-132C83,-132 15,-132 15,-132 9,-132 3,-126 3,-120 3,-120 3,-108 3,-108 3,-102 9,-96 15,-96 15,-96 83,-96 83,-96 89,-96 95,-102 95,-108 95,-108 95,-120 95,-120 95,-126 89,-132 83,-132"/>
<text text-anchor="middle" x="49" y="-110.3" font-family="Helvetica,sans-Serif" font-size="14.00">fail_comp1</text>
</g>
<!-- fail_comp1&#45;&gt;pressure -->
<g id="edge12" class="edge">
<title>fail_comp1&#45;&gt;pressure</title>
<path fill="none" stroke="black" stroke-width="1.2" d="M95.24,-114C104.46,-114 114.18,-114 123.49,-114"/>
<polygon fill="black" stroke="black" stroke-width="1.2" points="123.77,-117.5 133.77,-114 123.77,-110.5 123.77,-117.5"/>
</g>
<!-- fail_comp2 -->
<g id="node15" class="node">
<title>fail_comp2</title>
<path fill="white" stroke="black" d="M582,-36C582,-36 514,-36 514,-36 508,-36 502,-30 502,-24 502,-24 502,-12 502,-12 502,-6 508,0 514,0 514,0 582,0 582,0 588,0 594,-6 594,-12 594,-12 594,-24 594,-24 594,-30 588,-36 582,-36"/>
<text text-anchor="middle" x="548" y="-14.3" font-family="Helvetica,sans-Serif" font-size="14.00">fail_comp2</text>
</g>
<!-- fail_comp2&#45;&gt;rotate -->
<g id="edge8" class="edge">
<title>fail_comp2&#45;&gt;rotate</title>
<path fill="none" stroke="black" stroke-width="1.2" d="M582.27,-36.31C586.36,-39.04 590.37,-41.96 594,-45 610.36,-58.71 626.12,-76.8 637.85,-91.53"/>
<polygon fill="black" stroke="black" stroke-width="1.2" points="635.36,-94.03 644.26,-99.77 640.88,-89.73 635.36,-94.03"/>
</g>
</g>
</svg>
