<?xml version="1.0" encoding="UTF-8" standalone="no"?>
<!DOCTYPE svg PUBLIC "-//W3C//DTD SVG 1.1//EN"
 "http://www.w3.org/Graphics/SVG/1.1/DTD/svg11.dtd">
<!-- Generated by graphviz version 2.50.0 (0)
 -->
<!-- Title: G Pages: 1 -->
<svg width="636pt" height="478pt"
 viewBox="0.00 0.00 636.00 478.00" xmlns="http://www.w3.org/2000/svg" xmlns:xlink="http://www.w3.org/1999/xlink">
<g id="graph0" class="graph" transform="scale(1 1) rotate(0) translate(4 474)">
<title>G</title>
<polygon fill="white" stroke="transparent" points="-4,4 -4,-474 632,-474 632,4 -4,4"/>
<text text-anchor="middle" x="314" y="-453.2" font-family="Times,serif" font-size="16.00">model=model2/pcmci_mixed.json [machine 98]</text>
<!-- volt -->
<g id="node1" class="node">
<title>volt</title>
<path fill="white" stroke="black" d="M61,-228C61,-228 31,-228 31,-228 25,-228 19,-222 19,-216 19,-216 19,-204 19,-204 19,-198 25,-192 31,-192 31,-192 61,-192 61,-192 67,-192 73,-198 73,-204 73,-204 73,-216 73,-216 73,-222 67,-228 61,-228"/>
<text text-anchor="middle" x="46" y="-206.3" font-family="Helvetica,sans-Serif" font-size="14.00">volt</text>
</g>
<!-- rotate -->
<g id="node2" class="node">
<title>rotate</title>
<path fill="white" stroke="black" d="M193.5,-228C193.5,-228 160.5,-228 160.5,-228 154.5,-228 148.5,-222 148.5,-216 148.5,-216 148.5,-204 148.5,-204 148.5,-198 154.5,-192 160.5,-192 160.5,-192 193.5,-192 193.5,-192 199.5,-192 205.5,-198 205.5,-204 205.5,-204 205.5,-216 205.5,-216 205.5,-222 199.5,-228 193.5,-228"/>
<text text-anchor="middle" x="177" y="-206.3" font-family="Helvetica,sans-Serif" font-size="14.00">rotate</text>
</g>
<!-- volt&#45;&gt;rotate -->
<g id="edge1" class="edge">
<title>volt&#45;&gt;rotate</title>
<path fill="none" stroke="black" stroke-width="1.2" d="M73.11,-210C91.75,-210 117.12,-210 138,-210"/>
<polygon fill="black" stroke="black" stroke-width="1.2" points="138.15,-213.5 148.15,-210 138.15,-206.5 138.15,-213.5"/>
</g>
<!-- err_error5 -->
<g id="node9" class="node">
<title>err_error5</title>
<path fill="white" stroke="black" d="M207.5,-82C207.5,-82 146.5,-82 146.5,-82 140.5,-82 134.5,-76 134.5,-70 134.5,-70 134.5,-58 134.5,-58 134.5,-52 140.5,-46 146.5,-46 146.5,-46 207.5,-46 207.5,-46 213.5,-46 219.5,-52 219.5,-58 219.5,-58 219.5,-70 219.5,-70 219.5,-76 213.5,-82 207.5,-82"/>
<text text-anchor="middle" x="177" y="-60.3" font-family="Helvetica,sans-Serif" font-size="14.00">err_error5</text>
</g>
<!-- volt&#45;&gt;err_error5 -->
<g id="edge3" class="edge">
<title>volt&#45;&gt;err_error5</title>
<path fill="none" stroke="black" stroke-width="1.2" d="M63.73,-191.53C72.23,-182.12 82.7,-170.48 92,-160 112.97,-136.38 136.64,-109.28 153.5,-89.91"/>
<polygon fill="black" stroke="black" stroke-width="1.2" points="156.36,-91.96 160.28,-82.11 151.08,-87.36 156.36,-91.96"/>
</g>
<!-- vibration -->
<g id="node4" class="node">
<title>vibration</title>
<path fill="white" stroke="black" d="M338,-128C338,-128 284,-128 284,-128 278,-128 272,-122 272,-116 272,-116 272,-104 272,-104 272,-98 278,-92 284,-92 284,-92 338,-92 338,-92 344,-92 350,-98 350,-104 350,-104 350,-116 350,-116 350,-122 344,-128 338,-128"/>
<text text-anchor="middle" x="311" y="-106.3" font-family="Helvetica,sans-Serif" font-size="14.00">vibration</text>
</g>
<!-- rotate&#45;&gt;vibration -->
<g id="edge4" class="edge">
<title>rotate&#45;&gt;vibration</title>
<path fill="none" stroke="black" stroke-width="1.2" d="M205.69,-196.52C212.62,-192.59 219.84,-188 226,-183 244.84,-167.73 243.75,-157.97 262,-142 265.14,-139.25 268.52,-136.55 271.99,-133.96"/>
<polygon fill="black" stroke="black" stroke-width="1.2" points="274.06,-136.78 280.17,-128.12 270,-131.08 274.06,-136.78"/>
</g>
<!-- err_error1 -->
<g id="node5" class="node">
<title>err_error1</title>
<path fill="white" stroke="black" d="M341.5,-312C341.5,-312 280.5,-312 280.5,-312 274.5,-312 268.5,-306 268.5,-300 268.5,-300 268.5,-288 268.5,-288 268.5,-282 274.5,-276 280.5,-276 280.5,-276 341.5,-276 341.5,-276 347.5,-276 353.5,-282 353.5,-288 353.5,-288 353.5,-300 353.5,-300 353.5,-306 347.5,-312 341.5,-312"/>
<text text-anchor="middle" x="311" y="-290.3" font-family="Helvetica,sans-Serif" font-size="14.00">err_error1</text>
</g>
<!-- rotate&#45;&gt;err_error1 -->
<g id="edge5" class="edge">
<title>rotate&#45;&gt;err_error1</title>
<path fill="none" stroke="black" stroke-width="1.2" d="M205.67,-227.61C225.21,-240.04 251.6,-256.83 272.95,-270.42"/>
<polygon fill="black" stroke="black" stroke-width="1.2" points="271.14,-273.42 281.45,-275.83 274.9,-267.51 271.14,-273.42"/>
</g>
<!-- err_error4 -->
<g id="node8" class="node">
<title>err_error4</title>
<path fill="white" stroke="black" d="M475.5,-151C475.5,-151 414.5,-151 414.5,-151 408.5,-151 402.5,-145 402.5,-139 402.5,-139 402.5,-127 402.5,-127 402.5,-121 408.5,-115 414.5,-115 414.5,-115 475.5,-115 475.5,-115 481.5,-115 487.5,-121 487.5,-127 487.5,-127 487.5,-139 487.5,-139 487.5,-145 481.5,-151 475.5,-151"/>
<text text-anchor="middle" x="445" y="-129.3" font-family="Helvetica,sans-Serif" font-size="14.00">err_error4</text>
</g>
<!-- rotate&#45;&gt;err_error4 -->
<g id="edge7" class="edge">
<title>rotate&#45;&gt;err_error4</title>
<path fill="none" stroke="black" stroke-width="1.2" d="M205.56,-197.14C221.75,-189.93 242.75,-181.18 262,-175 305.18,-161.13 355.5,-149.88 392.27,-142.53"/>
<polygon fill="black" stroke="black" stroke-width="1.2" points="393.13,-145.92 402.26,-140.56 391.77,-139.06 393.13,-145.92"/>
</g>
<!-- mnt_comp4 -->
<g id="node13" class="node">
<title>mnt_comp4</title>
<path fill="white" stroke="black" d="M616,-243C616,-243 542,-243 542,-243 536,-243 530,-237 530,-231 530,-231 530,-219 530,-219 530,-213 536,-207 542,-207 542,-207 616,-207 616,-207 622,-207 628,-213 628,-219 628,-219 628,-231 628,-231 628,-237 622,-243 616,-243"/>
<text text-anchor="middle" x="579" y="-221.3" font-family="Helvetica,sans-Serif" font-size="14.00">mnt_comp4</text>
</g>
<!-- rotate&#45;&gt;mnt_comp4 -->
<g id="edge8" class="edge">
<title>rotate&#45;&gt;mnt_comp4</title>
<path fill="none" stroke="black" stroke-width="1.2" d="M205.74,-217.91C221.98,-222.13 242.98,-226.88 262,-229 351.49,-238.99 456.1,-234.53 519.68,-230.04"/>
<polygon fill="black" stroke="black" stroke-width="1.2" points="520.19,-233.51 529.9,-229.29 519.68,-226.53 520.19,-233.51"/>
</g>
<!-- fail_comp2 -->
<g id="node15" class="node">
<title>fail_comp2</title>
<path fill="white" stroke="black" d="M345,-220C345,-220 277,-220 277,-220 271,-220 265,-214 265,-208 265,-208 265,-196 265,-196 265,-190 271,-184 277,-184 277,-184 345,-184 345,-184 351,-184 357,-190 357,-196 357,-196 357,-208 357,-208 357,-214 351,-220 345,-220"/>
<text text-anchor="middle" x="311" y="-198.3" font-family="Helvetica,sans-Serif" font-size="14.00">fail_comp2</text>
</g>
<!-- rotate&#45;&gt;fail_comp2 -->
<g id="edge9" class="edge">
<title>rotate&#45;&gt;fail_comp2</title>
<path fill="none" stroke="black" stroke-width="1.2" d="M205.67,-208.32C219.88,-207.46 237.72,-206.38 254.61,-205.36"/>
<polygon fill="black" stroke="black" stroke-width="1.2" points="255.19,-208.83 264.96,-204.73 254.77,-201.84 255.19,-208.83"/>
</g>
<!-- pressure -->
<g id="node3" class="node">
<title>pressure</title>
<path fill="white" stroke="black" d="M471.5,-82C471.5,-82 418.5,-82 418.5,-82 412.5,-82 406.5,-76 406.5,-70 406.5,-70 406.5,-58 406.5,-58 406.5,-52 412.5,-46 418.5,-46 418.5,-46 471.5,-46 471.5,-46 477.5,-46 483.5,-52 483.5,-58 483.5,-58 483.5,-70 483.5,-70 483.5,-76 477.5,-82 471.5,-82"/>
<text text-anchor="middle" x="445" y="-60.3" font-family="Helvetica,sans-Serif" font-size="14.00">pressure</text>
</g>
<!-- vibration&#45;&gt;pressure -->
<g id="edge10" class="edge">
<title>vibration&#45;&gt;pressure</title>
<path fill="none" stroke="black" stroke-width="1.2" d="M350.18,-96.69C364.67,-91.65 381.35,-85.83 396.59,-80.52"/>
<polygon fill="black" stroke="black" stroke-width="1.2" points="398.07,-83.71 406.36,-77.12 395.77,-77.1 398.07,-83.71"/>
</g>
<!-- vibration&#45;&gt;err_error4 -->
<g id="edge14" class="edge">
<title>vibration&#45;&gt;err_error4</title>
<path fill="none" stroke="black" stroke-width="1.2" d="M350.18,-116.65C363.29,-118.94 378.2,-121.53 392.21,-123.98"/>
<polygon fill="black" stroke="black" stroke-width="1.2" points="391.76,-127.45 402.21,-125.72 392.96,-120.55 391.76,-127.45"/>
</g>
<!-- err_error1&#45;&gt;volt -->
<g id="edge2" class="edge">
<title>err_error1&#45;&gt;volt</title>
<path fill="none" stroke="black" stroke-width="1.2" d="M268.37,-281.2C231.43,-269.78 176.05,-252.53 128,-237 113.25,-232.23 97.02,-226.85 83,-222.16"/>
<polygon fill="black" stroke="black" stroke-width="1.2" points="83.82,-218.74 73.23,-218.88 81.59,-225.38 83.82,-218.74"/>
</g>
<!-- err_error2 -->
<g id="node6" class="node">
<title>err_error2</title>
<path fill="white" stroke="black" d="M76.5,-282C76.5,-282 15.5,-282 15.5,-282 9.5,-282 3.5,-276 3.5,-270 3.5,-270 3.5,-258 3.5,-258 3.5,-252 9.5,-246 15.5,-246 15.5,-246 76.5,-246 76.5,-246 82.5,-246 88.5,-252 88.5,-258 88.5,-258 88.5,-270 88.5,-270 88.5,-276 82.5,-282 76.5,-282"/>
<text text-anchor="middle" x="46" y="-260.3" font-family="Helvetica,sans-Serif" font-size="14.00">err_error2</text>
</g>
<!-- err_error3 -->
<g id="node7" class="node">
<title>err_error3</title>
<path fill="white" stroke="black" d="M76.5,-151C76.5,-151 15.5,-151 15.5,-151 9.5,-151 3.5,-145 3.5,-139 3.5,-139 3.5,-127 3.5,-127 3.5,-121 9.5,-115 15.5,-115 15.5,-115 76.5,-115 76.5,-115 82.5,-115 88.5,-121 88.5,-127 88.5,-127 88.5,-139 88.5,-139 88.5,-145 82.5,-151 76.5,-151"/>
<text text-anchor="middle" x="46" y="-129.3" font-family="Helvetica,sans-Serif" font-size="14.00">err_error3</text>
</g>
<!-- err_error3&#45;&gt;rotate -->
<g id="edge6" class="edge">
<title>err_error3&#45;&gt;rotate</title>
<path fill="none" stroke="black" stroke-width="1.2" d="M75.69,-151.1C91.11,-160.73 110.49,-172.68 128,-183 131.71,-185.19 135.59,-187.44 139.48,-189.66"/>
<polygon fill="black" stroke="black" stroke-width="1.2" points="138.05,-192.88 148.48,-194.77 141.51,-186.79 138.05,-192.88"/>
</g>
<!-- err_error3&#45;&gt;vibration -->
<g id="edge13" class="edge">
<title>err_error3&#45;&gt;vibration</title>
<path fill="none" stroke="black" stroke-width="1.2" d="M88.67,-129.36C135.73,-125.24 212.19,-118.55 261.78,-114.22"/>
<polygon fill="black" stroke="black" stroke-width="1.2" points="262.28,-117.69 271.94,-113.33 261.67,-110.71 262.28,-117.69"/>
</g>
<!-- err_error5&#45;&gt;pressure -->
<g id="edge11" class="edge">
<title>err_error5&#45;&gt;pressure</title>
<path fill="none" stroke="black" stroke-width="1.2" d="M219.56,-64C267.31,-64 345.52,-64 395.87,-64"/>
<polygon fill="black" stroke="black" stroke-width="1.2" points="396.17,-67.5 406.17,-64 396.17,-60.5 396.17,-67.5"/>
</g>
<!-- mnt_comp1 -->
<g id="node10" class="node">
<title>mnt_comp1</title>
<path fill="white" stroke="black" d="M348,-36C348,-36 274,-36 274,-36 268,-36 262,-30 262,-24 262,-24 262,-12 262,-12 262,-6 268,0 274,0 274,0 348,0 348,0 354,0 360,-6 360,-12 360,-12 360,-24 360,-24 360,-30 354,-36 348,-36"/>
<text text-anchor="middle" x="311" y="-14.3" font-family="Helvetica,sans-Serif" font-size="14.00">mnt_comp1</text>
</g>
<!-- mnt_comp1&#45;&gt;pressure -->
<g id="edge12" class="edge">
<title>mnt_comp1&#45;&gt;pressure</title>
<path fill="none" stroke="black" stroke-width="1.2" d="M360.03,-34.74C371.89,-38.87 384.59,-43.3 396.44,-47.42"/>
<polygon fill="black" stroke="black" stroke-width="1.2" points="395.55,-50.82 406.14,-50.81 397.85,-44.21 395.55,-50.82"/>
</g>
<!-- mnt_comp2 -->
<g id="node11" class="node">
<title>mnt_comp2</title>
<path fill="white" stroke="black" d="M482,-220C482,-220 408,-220 408,-220 402,-220 396,-214 396,-208 396,-208 396,-196 396,-196 396,-190 402,-184 408,-184 408,-184 482,-184 482,-184 488,-184 494,-190 494,-196 494,-196 494,-208 494,-208 494,-214 488,-220 482,-220"/>
<text text-anchor="middle" x="445" y="-198.3" font-family="Helvetica,sans-Serif" font-size="14.00">mnt_comp2</text>
</g>
<!-- mnt_comp2&#45;&gt;mnt_comp4 -->
<g id="edge16" class="edge">
<title>mnt_comp2&#45;&gt;mnt_comp4</title>
<path fill="none" stroke="black" stroke-width="1.2" d="M494.03,-210.37C502.4,-211.83 511.19,-213.36 519.8,-214.86"/>
<polygon fill="black" stroke="black" stroke-width="1.2" points="519.33,-218.33 529.79,-216.6 520.54,-211.43 519.33,-218.33"/>
</g>
<!-- mnt_comp3 -->
<g id="node12" class="node">
<title>mnt_comp3</title>
<path fill="white" stroke="black" d="M214,-174C214,-174 140,-174 140,-174 134,-174 128,-168 128,-162 128,-162 128,-150 128,-150 128,-144 134,-138 140,-138 140,-138 214,-138 214,-138 220,-138 226,-144 226,-150 226,-150 226,-162 226,-162 226,-168 220,-174 214,-174"/>
<text text-anchor="middle" x="177" y="-152.3" font-family="Helvetica,sans-Serif" font-size="14.00">mnt_comp3</text>
</g>
<!-- mnt_comp3&#45;&gt;vibration -->
<g id="edge15" class="edge">
<title>mnt_comp3&#45;&gt;vibration</title>
<path fill="none" stroke="black" stroke-width="1.2" d="M226.03,-139.26C237.78,-135.17 250.35,-130.79 262.09,-126.7"/>
<polygon fill="black" stroke="black" stroke-width="1.2" points="263.43,-129.93 271.72,-123.34 261.13,-123.32 263.43,-129.93"/>
</g>
<!-- fail_comp1 -->
<g id="node14" class="node">
<title>fail_comp1</title>
<path fill="white" stroke="black" d="M80,-336C80,-336 12,-336 12,-336 6,-336 0,-330 0,-324 0,-324 0,-312 0,-312 0,-306 6,-300 12,-300 12,-300 80,-300 80,-300 86,-300 92,-306 92,-312 92,-312 92,-324 92,-324 92,-330 86,-336 80,-336"/>
<text text-anchor="middle" x="46" y="-314.3" font-family="Helvetica,sans-Serif" font-size="14.00">fail_comp1</text>
</g>
<!-- fail_comp2&#45;&gt;mnt_comp2 -->
<g id="edge17" class="edge">
<title>fail_comp2&#45;&gt;mnt_comp2</title>
<path fill="none" stroke="black" stroke-width="1.2" d="M357.06,-202C366.27,-202 376.09,-202 385.7,-202"/>
<polygon fill="black" stroke="black" stroke-width="1.2" points="385.99,-205.5 395.99,-202 385.99,-198.5 385.99,-205.5"/>
</g>
<!-- fail_comp3 -->
<g id="node16" class="node">
<title>fail_comp3</title>
<path fill="white" stroke="black" d="M80,-390C80,-390 12,-390 12,-390 6,-390 0,-384 0,-378 0,-378 0,-366 0,-366 0,-360 6,-354 12,-354 12,-354 80,-354 80,-354 86,-354 92,-360 92,-366 92,-366 92,-378 92,-378 92,-384 86,-390 80,-390"/>
<text text-anchor="middle" x="46" y="-368.3" font-family="Helvetica,sans-Serif" font-size="14.00">fail_comp3</text>
</g>
<!-- fail_comp4 -->
<g id="node17" class="node">
<title>fail_comp4</title>
<path fill="white" stroke="black" d="M80,-444C80,-444 12,-444 12,-444 6,-444 0,-438 0,-432 0,-432 0,-420 0,-420 0,-414 6,-408 12,-408 12,-408 80,-408 80,-408 86,-408 92,-414 92,-420 92,-420 92,-432 92,-432 92,-438 86,-444 80,-444"/>
<text text-anchor="middle" x="46" y="-422.3" font-family="Helvetica,sans-Serif" font-size="14.00">fail_comp4</text>
</g>
</g>
</svg>
