<?xml version="1.0" encoding="UTF-8" standalone="no"?>
<!DOCTYPE svg PUBLIC "-//W3C//DTD SVG 1.1//EN"
 "http://www.w3.org/Graphics/SVG/1.1/DTD/svg11.dtd">
<!-- Generated by graphviz version 2.50.0 (0)
 -->
<!-- Title: G Pages: 1 -->
<svg width="475pt" height="576pt"
 viewBox="0.00 0.00 475.00 576.00" xmlns="http://www.w3.org/2000/svg" xmlns:xlink="http://www.w3.org/1999/xlink">
<g id="graph0" class="graph" transform="scale(1 1) rotate(0) translate(4 572)">
<title>G</title>
<polygon fill="white" stroke="transparent" points="-4,4 -4,-572 471,-572 471,4 -4,4"/>
<text text-anchor="middle" x="233.5" y="-551.2" font-family="Times,serif" font-size="16.00">model=model2/pcmci_mixed.json [machine 54]</text>
<!-- volt -->
<g id="node1" class="node">
<title>volt</title>
<path fill="white" stroke="black" d="M195,-178C195,-178 165,-178 165,-178 159,-178 153,-172 153,-166 153,-166 153,-154 153,-154 153,-148 159,-142 165,-142 165,-142 195,-142 195,-142 201,-142 207,-148 207,-154 207,-154 207,-166 207,-166 207,-172 201,-178 195,-178"/>
<text text-anchor="middle" x="180" y="-156.3" font-family="Helvetica,sans-Serif" font-size="14.00">volt</text>
</g>
<!-- pressure -->
<g id="node3" class="node">
<title>pressure</title>
<path fill="white" stroke="black" d="M455,-143C455,-143 402,-143 402,-143 396,-143 390,-137 390,-131 390,-131 390,-119 390,-119 390,-113 396,-107 402,-107 402,-107 455,-107 455,-107 461,-107 467,-113 467,-119 467,-119 467,-131 467,-131 467,-137 461,-143 455,-143"/>
<text text-anchor="middle" x="428.5" y="-121.3" font-family="Helvetica,sans-Serif" font-size="14.00">pressure</text>
</g>
<!-- volt&#45;&gt;pressure -->
<g id="edge1" class="edge">
<title>volt&#45;&gt;pressure</title>
<path fill="none" stroke="black" stroke-width="1.2" d="M207.15,-168.3C241.61,-177.89 303.72,-190.48 354,-175 370.7,-169.86 387,-159.49 399.99,-149.52"/>
<polygon fill="black" stroke="black" stroke-width="1.2" points="402.41,-152.07 408.02,-143.08 398.03,-146.6 402.41,-152.07"/>
</g>
<!-- err_error5 -->
<g id="node9" class="node">
<title>err_error5</title>
<path fill="white" stroke="black" d="M338.5,-166C338.5,-166 277.5,-166 277.5,-166 271.5,-166 265.5,-160 265.5,-154 265.5,-154 265.5,-142 265.5,-142 265.5,-136 271.5,-130 277.5,-130 277.5,-130 338.5,-130 338.5,-130 344.5,-130 350.5,-136 350.5,-142 350.5,-142 350.5,-154 350.5,-154 350.5,-160 344.5,-166 338.5,-166"/>
<text text-anchor="middle" x="308" y="-144.3" font-family="Helvetica,sans-Serif" font-size="14.00">err_error5</text>
</g>
<!-- volt&#45;&gt;err_error5 -->
<g id="edge5" class="edge">
<title>volt&#45;&gt;err_error5</title>
<path fill="none" stroke="black" stroke-width="1.2" d="M207.11,-157.51C220.96,-156.19 238.48,-154.53 254.96,-152.96"/>
<polygon fill="black" stroke="black" stroke-width="1.2" points="255.43,-156.43 265.05,-151.99 254.77,-149.46 255.43,-156.43"/>
</g>
<!-- rotate -->
<g id="node2" class="node">
<title>rotate</title>
<path fill="white" stroke="black" d="M65.5,-326C65.5,-326 32.5,-326 32.5,-326 26.5,-326 20.5,-320 20.5,-314 20.5,-314 20.5,-302 20.5,-302 20.5,-296 26.5,-290 32.5,-290 32.5,-290 65.5,-290 65.5,-290 71.5,-290 77.5,-296 77.5,-302 77.5,-302 77.5,-314 77.5,-314 77.5,-320 71.5,-326 65.5,-326"/>
<text text-anchor="middle" x="49" y="-304.3" font-family="Helvetica,sans-Serif" font-size="14.00">rotate</text>
</g>
<!-- vibration -->
<g id="node4" class="node">
<title>vibration</title>
<path fill="white" stroke="black" d="M207,-354C207,-354 153,-354 153,-354 147,-354 141,-348 141,-342 141,-342 141,-330 141,-330 141,-324 147,-318 153,-318 153,-318 207,-318 207,-318 213,-318 219,-324 219,-330 219,-330 219,-342 219,-342 219,-348 213,-354 207,-354"/>
<text text-anchor="middle" x="180" y="-332.3" font-family="Helvetica,sans-Serif" font-size="14.00">vibration</text>
</g>
<!-- rotate&#45;&gt;vibration -->
<g id="edge7" class="edge">
<title>rotate&#45;&gt;vibration</title>
<path fill="none" stroke="black" stroke-width="1.2" d="M77.67,-314.01C93.02,-317.34 112.55,-321.58 130.36,-325.44"/>
<polygon fill="black" stroke="black" stroke-width="1.2" points="130.09,-328.97 140.61,-327.67 131.58,-322.13 130.09,-328.97"/>
</g>
<!-- fail_comp2 -->
<g id="node14" class="node">
<title>fail_comp2</title>
<path fill="white" stroke="black" d="M214,-300C214,-300 146,-300 146,-300 140,-300 134,-294 134,-288 134,-288 134,-276 134,-276 134,-270 140,-264 146,-264 146,-264 214,-264 214,-264 220,-264 226,-270 226,-276 226,-276 226,-288 226,-288 226,-294 220,-300 214,-300"/>
<text text-anchor="middle" x="180" y="-278.3" font-family="Helvetica,sans-Serif" font-size="14.00">fail_comp2</text>
</g>
<!-- rotate&#45;&gt;fail_comp2 -->
<g id="edge8" class="edge">
<title>rotate&#45;&gt;fail_comp2</title>
<path fill="none" stroke="black" stroke-width="1.2" d="M77.67,-302.42C91.22,-299.69 108.03,-296.3 124.04,-293.08"/>
<polygon fill="black" stroke="black" stroke-width="1.2" points="124.76,-296.5 133.87,-291.1 123.37,-289.64 124.76,-296.5"/>
</g>
<!-- err_error1 -->
<g id="node5" class="node">
<title>err_error1</title>
<path fill="white" stroke="black" d="M79.5,-247C79.5,-247 18.5,-247 18.5,-247 12.5,-247 6.5,-241 6.5,-235 6.5,-235 6.5,-223 6.5,-223 6.5,-217 12.5,-211 18.5,-211 18.5,-211 79.5,-211 79.5,-211 85.5,-211 91.5,-217 91.5,-223 91.5,-223 91.5,-235 91.5,-235 91.5,-241 85.5,-247 79.5,-247"/>
<text text-anchor="middle" x="49" y="-225.3" font-family="Helvetica,sans-Serif" font-size="14.00">err_error1</text>
</g>
<!-- err_error1&#45;&gt;volt -->
<g id="edge2" class="edge">
<title>err_error1&#45;&gt;volt</title>
<path fill="none" stroke="black" stroke-width="1.2" d="M83.89,-210.87C102.28,-201.03 125,-188.88 143.62,-178.93"/>
<polygon fill="black" stroke="black" stroke-width="1.2" points="145.49,-181.89 152.66,-174.09 142.19,-175.72 145.49,-181.89"/>
</g>
<!-- err_error1&#45;&gt;pressure -->
<g id="edge9" class="edge">
<title>err_error1&#45;&gt;pressure</title>
<path fill="none" stroke="black" stroke-width="1.2" d="M91.72,-231.71C152.38,-233.98 267.14,-231.85 354,-192 374.39,-182.64 393.02,-165.53 406.42,-150.93"/>
<polygon fill="black" stroke="black" stroke-width="1.2" points="409.3,-152.96 413.3,-143.15 404.06,-148.32 409.3,-152.96"/>
</g>
<!-- err_error2 -->
<g id="node6" class="node">
<title>err_error2</title>
<path fill="white" stroke="black" d="M79.5,-136C79.5,-136 18.5,-136 18.5,-136 12.5,-136 6.5,-130 6.5,-124 6.5,-124 6.5,-112 6.5,-112 6.5,-106 12.5,-100 18.5,-100 18.5,-100 79.5,-100 79.5,-100 85.5,-100 91.5,-106 91.5,-112 91.5,-112 91.5,-124 91.5,-124 91.5,-130 85.5,-136 79.5,-136"/>
<text text-anchor="middle" x="49" y="-114.3" font-family="Helvetica,sans-Serif" font-size="14.00">err_error2</text>
</g>
<!-- err_error2&#45;&gt;volt -->
<g id="edge3" class="edge">
<title>err_error2&#45;&gt;volt</title>
<path fill="none" stroke="black" stroke-width="1.2" d="M91.53,-131.52C108.24,-136.96 127.32,-143.17 143.38,-148.4"/>
<polygon fill="black" stroke="black" stroke-width="1.2" points="142.36,-151.75 152.95,-151.52 144.53,-145.09 142.36,-151.75"/>
</g>
<!-- err_error2&#45;&gt;pressure -->
<g id="edge10" class="edge">
<title>err_error2&#45;&gt;pressure</title>
<path fill="none" stroke="black" stroke-width="1.2" d="M91.81,-117.82C150.43,-117.71 260.36,-117.99 354,-121 362.26,-121.27 371.04,-121.65 379.55,-122.08"/>
<polygon fill="black" stroke="black" stroke-width="1.2" points="379.57,-125.59 389.74,-122.62 379.94,-118.6 379.57,-125.59"/>
</g>
<!-- err_error3 -->
<g id="node7" class="node">
<title>err_error3</title>
<path fill="white" stroke="black" d="M79.5,-380C79.5,-380 18.5,-380 18.5,-380 12.5,-380 6.5,-374 6.5,-368 6.5,-368 6.5,-356 6.5,-356 6.5,-350 12.5,-344 18.5,-344 18.5,-344 79.5,-344 79.5,-344 85.5,-344 91.5,-350 91.5,-356 91.5,-356 91.5,-368 91.5,-368 91.5,-374 85.5,-380 79.5,-380"/>
<text text-anchor="middle" x="49" y="-358.3" font-family="Helvetica,sans-Serif" font-size="14.00">err_error3</text>
</g>
<!-- err_error4 -->
<g id="node8" class="node">
<title>err_error4</title>
<path fill="white" stroke="black" d="M79.5,-82C79.5,-82 18.5,-82 18.5,-82 12.5,-82 6.5,-76 6.5,-70 6.5,-70 6.5,-58 6.5,-58 6.5,-52 12.5,-46 18.5,-46 18.5,-46 79.5,-46 79.5,-46 85.5,-46 91.5,-52 91.5,-58 91.5,-58 91.5,-70 91.5,-70 91.5,-76 85.5,-82 79.5,-82"/>
<text text-anchor="middle" x="49" y="-60.3" font-family="Helvetica,sans-Serif" font-size="14.00">err_error4</text>
</g>
<!-- err_error4&#45;&gt;volt -->
<g id="edge4" class="edge">
<title>err_error4&#45;&gt;volt</title>
<path fill="none" stroke="black" stroke-width="1.2" d="M84.07,-82.08C88.84,-84.92 93.61,-87.94 98,-91 117.1,-104.32 137.02,-121.25 152.33,-135"/>
<polygon fill="black" stroke="black" stroke-width="1.2" points="150.13,-137.73 159.89,-141.87 154.84,-132.55 150.13,-137.73"/>
</g>
<!-- err_error4&#45;&gt;pressure -->
<g id="edge11" class="edge">
<title>err_error4&#45;&gt;pressure</title>
<path fill="none" stroke="black" stroke-width="1.2" d="M91.84,-70.76C162.61,-82.2 305.49,-105.28 379.95,-117.32"/>
<polygon fill="black" stroke="black" stroke-width="1.2" points="379.55,-120.8 389.98,-118.94 380.67,-113.89 379.55,-120.8"/>
</g>
<!-- err_error5&#45;&gt;pressure -->
<g id="edge12" class="edge">
<title>err_error5&#45;&gt;pressure</title>
<path fill="none" stroke="black" stroke-width="1.2" d="M350.78,-139.89C360.18,-138.07 370.22,-136.12 379.83,-134.25"/>
<polygon fill="black" stroke="black" stroke-width="1.2" points="380.51,-137.69 389.66,-132.35 379.17,-130.81 380.51,-137.69"/>
</g>
<!-- mnt_comp1 -->
<g id="node10" class="node">
<title>mnt_comp1</title>
<path fill="white" stroke="black" d="M86,-434C86,-434 12,-434 12,-434 6,-434 0,-428 0,-422 0,-422 0,-410 0,-410 0,-404 6,-398 12,-398 12,-398 86,-398 86,-398 92,-398 98,-404 98,-410 98,-410 98,-422 98,-422 98,-428 92,-434 86,-434"/>
<text text-anchor="middle" x="49" y="-412.3" font-family="Helvetica,sans-Serif" font-size="14.00">mnt_comp1</text>
</g>
<!-- mnt_comp2 -->
<g id="node11" class="node">
<title>mnt_comp2</title>
<path fill="white" stroke="black" d="M86,-190C86,-190 12,-190 12,-190 6,-190 0,-184 0,-178 0,-178 0,-166 0,-166 0,-160 6,-154 12,-154 12,-154 86,-154 86,-154 92,-154 98,-160 98,-166 98,-166 98,-178 98,-178 98,-184 92,-190 86,-190"/>
<text text-anchor="middle" x="49" y="-168.3" font-family="Helvetica,sans-Serif" font-size="14.00">mnt_comp2</text>
</g>
<!-- mnt_comp2&#45;&gt;volt -->
<g id="edge6" class="edge">
<title>mnt_comp2&#45;&gt;volt</title>
<path fill="none" stroke="black" stroke-width="1.2" d="M98.03,-167.53C112.76,-166.16 128.72,-164.68 142.54,-163.39"/>
<polygon fill="black" stroke="black" stroke-width="1.2" points="143,-166.86 152.64,-162.45 142.36,-159.89 143,-166.86"/>
</g>
<!-- mnt_comp3 -->
<g id="node12" class="node">
<title>mnt_comp3</title>
<path fill="white" stroke="black" d="M86,-488C86,-488 12,-488 12,-488 6,-488 0,-482 0,-476 0,-476 0,-464 0,-464 0,-458 6,-452 12,-452 12,-452 86,-452 86,-452 92,-452 98,-458 98,-464 98,-464 98,-476 98,-476 98,-482 92,-488 86,-488"/>
<text text-anchor="middle" x="49" y="-466.3" font-family="Helvetica,sans-Serif" font-size="14.00">mnt_comp3</text>
</g>
<!-- mnt_comp4 -->
<g id="node13" class="node">
<title>mnt_comp4</title>
<path fill="white" stroke="black" d="M86,-542C86,-542 12,-542 12,-542 6,-542 0,-536 0,-530 0,-530 0,-518 0,-518 0,-512 6,-506 12,-506 12,-506 86,-506 86,-506 92,-506 98,-512 98,-518 98,-518 98,-530 98,-530 98,-536 92,-542 86,-542"/>
<text text-anchor="middle" x="49" y="-520.3" font-family="Helvetica,sans-Serif" font-size="14.00">mnt_comp4</text>
</g>
<!-- fail_comp3 -->
<g id="node15" class="node">
<title>fail_comp3</title>
<path fill="white" stroke="black" d="M342,-36C342,-36 274,-36 274,-36 268,-36 262,-30 262,-24 262,-24 262,-12 262,-12 262,-6 268,0 274,0 274,0 342,0 342,0 348,0 354,-6 354,-12 354,-12 354,-24 354,-24 354,-30 348,-36 342,-36"/>
<text text-anchor="middle" x="308" y="-14.3" font-family="Helvetica,sans-Serif" font-size="14.00">fail_comp3</text>
</g>
<!-- fail_comp3&#45;&gt;pressure -->
<g id="edge13" class="edge">
<title>fail_comp3&#45;&gt;pressure</title>
<path fill="none" stroke="black" stroke-width="1.2" d="M336.24,-36.2C342.24,-40.53 348.46,-45.27 354,-50 371.94,-65.32 390.53,-84.33 404.53,-99.37"/>
<polygon fill="black" stroke="black" stroke-width="1.2" points="402.05,-101.85 411.4,-106.83 407.2,-97.11 402.05,-101.85"/>
</g>
</g>
</svg>
