<?xml version="1.0" encoding="UTF-8" standalone="no"?>
<!DOCTYPE svg PUBLIC "-//W3C//DTD SVG 1.1//EN"
 "http://www.w3.org/Graphics/SVG/1.1/DTD/svg11.dtd">
<!-- Generated by graphviz version 2.50.0 (0)
 -->
<!-- Title: G Pages: 1 -->
<svg width="476pt" height="502pt"
 viewBox="0.00 0.00 476.00 502.00" xmlns="http://www.w3.org/2000/svg" xmlns:xlink="http://www.w3.org/1999/xlink">
<g id="graph0" class="graph" transform="scale(1 1) rotate(0) translate(4 498)">
<title>G</title>
<polygon fill="white" stroke="transparent" points="-4,4 -4,-498 472,-498 472,4 -4,4"/>
<text text-anchor="middle" x="234" y="-477.2" font-family="Times,serif" font-size="16.00">model=model1/pcmci_mixed.json [machine 31]</text>
<!-- volt -->
<g id="node1" class="node">
<title>volt</title>
<path fill="white" stroke="black" d="M191.5,-144C191.5,-144 161.5,-144 161.5,-144 155.5,-144 149.5,-138 149.5,-132 149.5,-132 149.5,-120 149.5,-120 149.5,-114 155.5,-108 161.5,-108 161.5,-108 191.5,-108 191.5,-108 197.5,-108 203.5,-114 203.5,-120 203.5,-120 203.5,-132 203.5,-132 203.5,-138 197.5,-144 191.5,-144"/>
<text text-anchor="middle" x="176.5" y="-122.3" font-family="Helvetica,sans-Serif" font-size="14.00">volt</text>
</g>
<!-- rotate -->
<g id="node2" class="node">
<title>rotate</title>
<path fill="white" stroke="black" d="M317.5,-198C317.5,-198 284.5,-198 284.5,-198 278.5,-198 272.5,-192 272.5,-186 272.5,-186 272.5,-174 272.5,-174 272.5,-168 278.5,-162 284.5,-162 284.5,-162 317.5,-162 317.5,-162 323.5,-162 329.5,-168 329.5,-174 329.5,-174 329.5,-186 329.5,-186 329.5,-192 323.5,-198 317.5,-198"/>
<text text-anchor="middle" x="301" y="-176.3" font-family="Helvetica,sans-Serif" font-size="14.00">rotate</text>
</g>
<!-- volt&#45;&gt;rotate -->
<g id="edge1" class="edge">
<title>volt&#45;&gt;rotate</title>
<path fill="none" stroke="black" stroke-width="1.2" d="M203.78,-137.58C221.1,-145.22 244.03,-155.33 263.16,-163.76"/>
<polygon fill="black" stroke="black" stroke-width="1.2" points="261.93,-167.04 272.49,-167.87 264.75,-160.64 261.93,-167.04"/>
</g>
<!-- err_error1 -->
<g id="node5" class="node">
<title>err_error1</title>
<path fill="white" stroke="black" d="M331.5,-90C331.5,-90 270.5,-90 270.5,-90 264.5,-90 258.5,-84 258.5,-78 258.5,-78 258.5,-66 258.5,-66 258.5,-60 264.5,-54 270.5,-54 270.5,-54 331.5,-54 331.5,-54 337.5,-54 343.5,-60 343.5,-66 343.5,-66 343.5,-78 343.5,-78 343.5,-84 337.5,-90 331.5,-90"/>
<text text-anchor="middle" x="301" y="-68.3" font-family="Helvetica,sans-Serif" font-size="14.00">err_error1</text>
</g>
<!-- volt&#45;&gt;err_error1 -->
<g id="edge2" class="edge">
<title>volt&#45;&gt;err_error1</title>
<path fill="none" stroke="black" stroke-width="1.2" d="M203.78,-114.42C217.05,-108.56 233.62,-101.26 249.25,-94.37"/>
<polygon fill="black" stroke="black" stroke-width="1.2" points="251.08,-97.39 258.82,-90.15 248.26,-90.98 251.08,-97.39"/>
</g>
<!-- fail_comp1 -->
<g id="node14" class="node">
<title>fail_comp1</title>
<path fill="white" stroke="black" d="M335,-144C335,-144 267,-144 267,-144 261,-144 255,-138 255,-132 255,-132 255,-120 255,-120 255,-114 261,-108 267,-108 267,-108 335,-108 335,-108 341,-108 347,-114 347,-120 347,-120 347,-132 347,-132 347,-138 341,-144 335,-144"/>
<text text-anchor="middle" x="301" y="-122.3" font-family="Helvetica,sans-Serif" font-size="14.00">fail_comp1</text>
</g>
<!-- volt&#45;&gt;fail_comp1 -->
<g id="edge5" class="edge">
<title>volt&#45;&gt;fail_comp1</title>
<path fill="none" stroke="black" stroke-width="1.2" d="M203.78,-126C215.77,-126 230.46,-126 244.7,-126"/>
<polygon fill="black" stroke="black" stroke-width="1.2" points="244.96,-129.5 254.96,-126 244.96,-122.5 244.96,-129.5"/>
</g>
<!-- err_error3 -->
<g id="node7" class="node">
<title>err_error3</title>
<path fill="white" stroke="black" d="M456,-198C456,-198 395,-198 395,-198 389,-198 383,-192 383,-186 383,-186 383,-174 383,-174 383,-168 389,-162 395,-162 395,-162 456,-162 456,-162 462,-162 468,-168 468,-174 468,-174 468,-186 468,-186 468,-192 462,-198 456,-198"/>
<text text-anchor="middle" x="425.5" y="-176.3" font-family="Helvetica,sans-Serif" font-size="14.00">err_error3</text>
</g>
<!-- rotate&#45;&gt;err_error3 -->
<g id="edge7" class="edge">
<title>rotate&#45;&gt;err_error3</title>
<path fill="none" stroke="black" stroke-width="1.2" d="M329.8,-180C342.53,-180 358.05,-180 372.8,-180"/>
<polygon fill="black" stroke="black" stroke-width="1.2" points="372.85,-183.5 382.85,-180 372.85,-176.5 372.85,-183.5"/>
</g>
<!-- pressure -->
<g id="node3" class="node">
<title>pressure</title>
<path fill="white" stroke="black" d="M203,-90C203,-90 150,-90 150,-90 144,-90 138,-84 138,-78 138,-78 138,-66 138,-66 138,-60 144,-54 150,-54 150,-54 203,-54 203,-54 209,-54 215,-60 215,-66 215,-66 215,-78 215,-78 215,-84 209,-90 203,-90"/>
<text text-anchor="middle" x="176.5" y="-68.3" font-family="Helvetica,sans-Serif" font-size="14.00">pressure</text>
</g>
<!-- pressure&#45;&gt;err_error1 -->
<g id="edge9" class="edge">
<title>pressure&#45;&gt;err_error1</title>
<path fill="none" stroke="black" stroke-width="1.2" d="M215.25,-72C225.7,-72 237.21,-72 248.3,-72"/>
<polygon fill="black" stroke="black" stroke-width="1.2" points="248.32,-75.5 258.32,-72 248.32,-68.5 248.32,-75.5"/>
</g>
<!-- fail_comp3 -->
<g id="node16" class="node">
<title>fail_comp3</title>
<path fill="white" stroke="black" d="M335,-36C335,-36 267,-36 267,-36 261,-36 255,-30 255,-24 255,-24 255,-12 255,-12 255,-6 261,0 267,0 267,0 335,0 335,0 341,0 347,-6 347,-12 347,-12 347,-24 347,-24 347,-30 341,-36 335,-36"/>
<text text-anchor="middle" x="301" y="-14.3" font-family="Helvetica,sans-Serif" font-size="14.00">fail_comp3</text>
</g>
<!-- pressure&#45;&gt;fail_comp3 -->
<g id="edge11" class="edge">
<title>pressure&#45;&gt;fail_comp3</title>
<path fill="none" stroke="black" stroke-width="1.2" d="M215.25,-55.36C226.02,-50.61 237.92,-45.36 249.33,-40.34"/>
<polygon fill="black" stroke="black" stroke-width="1.2" points="251.01,-43.42 258.75,-36.18 248.19,-37.02 251.01,-43.42"/>
</g>
<!-- vibration -->
<g id="node4" class="node">
<title>vibration</title>
<path fill="white" stroke="black" d="M203.5,-252C203.5,-252 149.5,-252 149.5,-252 143.5,-252 137.5,-246 137.5,-240 137.5,-240 137.5,-228 137.5,-228 137.5,-222 143.5,-216 149.5,-216 149.5,-216 203.5,-216 203.5,-216 209.5,-216 215.5,-222 215.5,-228 215.5,-228 215.5,-240 215.5,-240 215.5,-246 209.5,-252 203.5,-252"/>
<text text-anchor="middle" x="176.5" y="-230.3" font-family="Helvetica,sans-Serif" font-size="14.00">vibration</text>
</g>
<!-- vibration&#45;&gt;rotate -->
<g id="edge6" class="edge">
<title>vibration&#45;&gt;rotate</title>
<path fill="none" stroke="black" stroke-width="1.2" d="M215.59,-217.21C230.68,-210.56 247.98,-202.93 262.97,-196.32"/>
<polygon fill="black" stroke="black" stroke-width="1.2" points="264.7,-199.39 272.44,-192.15 261.88,-192.98 264.7,-199.39"/>
</g>
<!-- err_error2 -->
<g id="node6" class="node">
<title>err_error2</title>
<path fill="white" stroke="black" d="M79.5,-306C79.5,-306 18.5,-306 18.5,-306 12.5,-306 6.5,-300 6.5,-294 6.5,-294 6.5,-282 6.5,-282 6.5,-276 12.5,-270 18.5,-270 18.5,-270 79.5,-270 79.5,-270 85.5,-270 91.5,-276 91.5,-282 91.5,-282 91.5,-294 91.5,-294 91.5,-300 85.5,-306 79.5,-306"/>
<text text-anchor="middle" x="49" y="-284.3" font-family="Helvetica,sans-Serif" font-size="14.00">err_error2</text>
</g>
<!-- err_error4 -->
<g id="node8" class="node">
<title>err_error4</title>
<path fill="white" stroke="black" d="M79.5,-90C79.5,-90 18.5,-90 18.5,-90 12.5,-90 6.5,-84 6.5,-78 6.5,-78 6.5,-66 6.5,-66 6.5,-60 12.5,-54 18.5,-54 18.5,-54 79.5,-54 79.5,-54 85.5,-54 91.5,-60 91.5,-66 91.5,-66 91.5,-78 91.5,-78 91.5,-84 85.5,-90 79.5,-90"/>
<text text-anchor="middle" x="49" y="-68.3" font-family="Helvetica,sans-Serif" font-size="14.00">err_error4</text>
</g>
<!-- err_error4&#45;&gt;volt -->
<g id="edge3" class="edge">
<title>err_error4&#45;&gt;volt</title>
<path fill="none" stroke="black" stroke-width="1.2" d="M91.79,-89.98C107.35,-96.68 124.85,-104.21 139.81,-110.64"/>
<polygon fill="black" stroke="black" stroke-width="1.2" points="138.66,-113.96 149.23,-114.7 141.43,-107.53 138.66,-113.96"/>
</g>
<!-- err_error4&#45;&gt;pressure -->
<g id="edge10" class="edge">
<title>err_error4&#45;&gt;pressure</title>
<path fill="none" stroke="black" stroke-width="1.2" d="M91.79,-72C103.26,-72 115.79,-72 127.57,-72"/>
<polygon fill="black" stroke="black" stroke-width="1.2" points="127.7,-75.5 137.7,-72 127.7,-68.5 127.7,-75.5"/>
</g>
<!-- err_error5 -->
<g id="node9" class="node">
<title>err_error5</title>
<path fill="white" stroke="black" d="M207,-198C207,-198 146,-198 146,-198 140,-198 134,-192 134,-186 134,-186 134,-174 134,-174 134,-168 140,-162 146,-162 146,-162 207,-162 207,-162 213,-162 219,-168 219,-174 219,-174 219,-186 219,-186 219,-192 213,-198 207,-198"/>
<text text-anchor="middle" x="176.5" y="-176.3" font-family="Helvetica,sans-Serif" font-size="14.00">err_error5</text>
</g>
<!-- err_error5&#45;&gt;rotate -->
<g id="edge8" class="edge">
<title>err_error5&#45;&gt;rotate</title>
<path fill="none" stroke="black" stroke-width="1.2" d="M219.31,-180C233.1,-180 248.34,-180 261.84,-180"/>
<polygon fill="black" stroke="black" stroke-width="1.2" points="262.22,-183.5 272.22,-180 262.22,-176.5 262.22,-183.5"/>
</g>
<!-- mnt_comp1 -->
<g id="node10" class="node">
<title>mnt_comp1</title>
<path fill="white" stroke="black" d="M86,-360C86,-360 12,-360 12,-360 6,-360 0,-354 0,-348 0,-348 0,-336 0,-336 0,-330 6,-324 12,-324 12,-324 86,-324 86,-324 92,-324 98,-330 98,-336 98,-336 98,-348 98,-348 98,-354 92,-360 86,-360"/>
<text text-anchor="middle" x="49" y="-338.3" font-family="Helvetica,sans-Serif" font-size="14.00">mnt_comp1</text>
</g>
<!-- mnt_comp2 -->
<g id="node11" class="node">
<title>mnt_comp2</title>
<path fill="white" stroke="black" d="M86,-414C86,-414 12,-414 12,-414 6,-414 0,-408 0,-402 0,-402 0,-390 0,-390 0,-384 6,-378 12,-378 12,-378 86,-378 86,-378 92,-378 98,-384 98,-390 98,-390 98,-402 98,-402 98,-408 92,-414 86,-414"/>
<text text-anchor="middle" x="49" y="-392.3" font-family="Helvetica,sans-Serif" font-size="14.00">mnt_comp2</text>
</g>
<!-- mnt_comp3 -->
<g id="node12" class="node">
<title>mnt_comp3</title>
<path fill="white" stroke="black" d="M86,-468C86,-468 12,-468 12,-468 6,-468 0,-462 0,-456 0,-456 0,-444 0,-444 0,-438 6,-432 12,-432 12,-432 86,-432 86,-432 92,-432 98,-438 98,-444 98,-444 98,-456 98,-456 98,-462 92,-468 86,-468"/>
<text text-anchor="middle" x="49" y="-446.3" font-family="Helvetica,sans-Serif" font-size="14.00">mnt_comp3</text>
</g>
<!-- mnt_comp4 -->
<g id="node13" class="node">
<title>mnt_comp4</title>
<path fill="white" stroke="black" d="M86,-144C86,-144 12,-144 12,-144 6,-144 0,-138 0,-132 0,-132 0,-120 0,-120 0,-114 6,-108 12,-108 12,-108 86,-108 86,-108 92,-108 98,-114 98,-120 98,-120 98,-132 98,-132 98,-138 92,-144 86,-144"/>
<text text-anchor="middle" x="49" y="-122.3" font-family="Helvetica,sans-Serif" font-size="14.00">mnt_comp4</text>
</g>
<!-- mnt_comp4&#45;&gt;volt -->
<g id="edge4" class="edge">
<title>mnt_comp4&#45;&gt;volt</title>
<path fill="none" stroke="black" stroke-width="1.2" d="M98.16,-126C111.77,-126 126.35,-126 139.14,-126"/>
<polygon fill="black" stroke="black" stroke-width="1.2" points="139.4,-129.5 149.4,-126 139.4,-122.5 139.4,-129.5"/>
</g>
<!-- fail_comp2 -->
<g id="node15" class="node">
<title>fail_comp2</title>
<path fill="white" stroke="black" d="M83,-252C83,-252 15,-252 15,-252 9,-252 3,-246 3,-240 3,-240 3,-228 3,-228 3,-222 9,-216 15,-216 15,-216 83,-216 83,-216 89,-216 95,-222 95,-228 95,-228 95,-240 95,-240 95,-246 89,-252 83,-252"/>
<text text-anchor="middle" x="49" y="-230.3" font-family="Helvetica,sans-Serif" font-size="14.00">fail_comp2</text>
</g>
<!-- fail_comp2&#45;&gt;vibration -->
<g id="edge12" class="edge">
<title>fail_comp2&#45;&gt;vibration</title>
<path fill="none" stroke="black" stroke-width="1.2" d="M95.31,-234C105.63,-234 116.63,-234 127.08,-234"/>
<polygon fill="black" stroke="black" stroke-width="1.2" points="127.29,-237.5 137.29,-234 127.29,-230.5 127.29,-237.5"/>
</g>
</g>
</svg>
