<?xml version="1.0" encoding="UTF-8" standalone="no"?>
<!DOCTYPE svg PUBLIC "-//W3C//DTD SVG 1.1//EN"
 "http://www.w3.org/Graphics/SVG/1.1/DTD/svg11.dtd">
<!-- Generated by graphviz version 2.50.0 (0)
 -->
<!-- Title: G Pages: 1 -->
<svg width="738pt" height="440pt"
 viewBox="0.00 0.00 738.00 439.97" xmlns="http://www.w3.org/2000/svg" xmlns:xlink="http://www.w3.org/1999/xlink">
<g id="graph0" class="graph" transform="scale(1 1) rotate(0) translate(4 435.97)">
<title>G</title>
<polygon fill="white" stroke="transparent" points="-4,4 -4,-435.97 734,-435.97 734,4 -4,4"/>
<text text-anchor="middle" x="365" y="-415.17" font-family="Times,serif" font-size="16.00">model=model1/pcmci_mixed.json [machine 13]</text>
<!-- volt -->
<g id="node1" class="node">
<title>volt</title>
<path fill="white" stroke="black" d="M64,-135.97C64,-135.97 34,-135.97 34,-135.97 28,-135.97 22,-129.97 22,-123.97 22,-123.97 22,-111.97 22,-111.97 22,-105.97 28,-99.97 34,-99.97 34,-99.97 64,-99.97 64,-99.97 70,-99.97 76,-105.97 76,-111.97 76,-111.97 76,-123.97 76,-123.97 76,-129.97 70,-135.97 64,-135.97"/>
<text text-anchor="middle" x="49" y="-114.27" font-family="Helvetica,sans-Serif" font-size="14.00">volt</text>
</g>
<!-- rotate -->
<g id="node2" class="node">
<title>rotate</title>
<path fill="white" stroke="black" d="M196.5,-108.97C196.5,-108.97 163.5,-108.97 163.5,-108.97 157.5,-108.97 151.5,-102.97 151.5,-96.97 151.5,-96.97 151.5,-84.97 151.5,-84.97 151.5,-78.97 157.5,-72.97 163.5,-72.97 163.5,-72.97 196.5,-72.97 196.5,-72.97 202.5,-72.97 208.5,-78.97 208.5,-84.97 208.5,-84.97 208.5,-96.97 208.5,-96.97 208.5,-102.97 202.5,-108.97 196.5,-108.97"/>
<text text-anchor="middle" x="180" y="-87.27" font-family="Helvetica,sans-Serif" font-size="14.00">rotate</text>
</g>
<!-- volt&#45;&gt;rotate -->
<g id="edge1" class="edge">
<title>volt&#45;&gt;rotate</title>
<path fill="none" stroke="black" stroke-width="1.2" d="M76.11,-112.5C94.83,-108.58 120.35,-103.24 141.29,-98.86"/>
<polygon fill="black" stroke="black" stroke-width="1.2" points="142.08,-102.27 151.15,-96.8 140.64,-95.42 142.08,-102.27"/>
</g>
<!-- err_error5 -->
<g id="node9" class="node">
<title>err_error5</title>
<path fill="white" stroke="black" d="M469,-100.97C469,-100.97 408,-100.97 408,-100.97 402,-100.97 396,-94.97 396,-88.97 396,-88.97 396,-76.97 396,-76.97 396,-70.97 402,-64.97 408,-64.97 408,-64.97 469,-64.97 469,-64.97 475,-64.97 481,-70.97 481,-76.97 481,-76.97 481,-88.97 481,-88.97 481,-94.97 475,-100.97 469,-100.97"/>
<text text-anchor="middle" x="438.5" y="-79.27" font-family="Helvetica,sans-Serif" font-size="14.00">err_error5</text>
</g>
<!-- volt&#45;&gt;err_error5 -->
<g id="edge4" class="edge">
<title>volt&#45;&gt;err_error5</title>
<path fill="none" stroke="black" stroke-width="1.2" d="M64,-99.72C79.2,-81.24 105.19,-53.27 134,-37.97 185.43,-10.65 204.1,-16.22 262,-9.97 305.3,-5.29 320.84,9.11 360,-9.97 383.34,-21.34 376.86,-38.43 396,-55.97 396.96,-56.85 397.96,-57.72 398.98,-58.58"/>
<polygon fill="black" stroke="black" stroke-width="1.2" points="397.11,-61.56 407.15,-64.92 401.39,-56.03 397.11,-61.56"/>
</g>
<!-- fail_comp1 -->
<g id="node14" class="node">
<title>fail_comp1</title>
<path fill="white" stroke="black" d="M214,-162.97C214,-162.97 146,-162.97 146,-162.97 140,-162.97 134,-156.97 134,-150.97 134,-150.97 134,-138.97 134,-138.97 134,-132.97 140,-126.97 146,-126.97 146,-126.97 214,-126.97 214,-126.97 220,-126.97 226,-132.97 226,-138.97 226,-138.97 226,-150.97 226,-150.97 226,-156.97 220,-162.97 214,-162.97"/>
<text text-anchor="middle" x="180" y="-141.27" font-family="Helvetica,sans-Serif" font-size="14.00">fail_comp1</text>
</g>
<!-- volt&#45;&gt;fail_comp1 -->
<g id="edge5" class="edge">
<title>volt&#45;&gt;fail_comp1</title>
<path fill="none" stroke="black" stroke-width="1.2" d="M76.11,-123.43C89.82,-126.3 107.18,-129.94 123.72,-133.4"/>
<polygon fill="black" stroke="black" stroke-width="1.2" points="123.36,-136.9 133.87,-135.52 124.8,-130.05 123.36,-136.9"/>
</g>
<!-- err_error1 -->
<g id="node5" class="node">
<title>err_error1</title>
<path fill="white" stroke="black" d="M341.5,-54.97C341.5,-54.97 280.5,-54.97 280.5,-54.97 274.5,-54.97 268.5,-48.97 268.5,-42.97 268.5,-42.97 268.5,-30.97 268.5,-30.97 268.5,-24.97 274.5,-18.97 280.5,-18.97 280.5,-18.97 341.5,-18.97 341.5,-18.97 347.5,-18.97 353.5,-24.97 353.5,-30.97 353.5,-30.97 353.5,-42.97 353.5,-42.97 353.5,-48.97 347.5,-54.97 341.5,-54.97"/>
<text text-anchor="middle" x="311" y="-33.27" font-family="Helvetica,sans-Serif" font-size="14.00">err_error1</text>
</g>
<!-- rotate&#45;&gt;err_error1 -->
<g id="edge7" class="edge">
<title>rotate&#45;&gt;err_error1</title>
<path fill="none" stroke="black" stroke-width="1.2" d="M208.67,-79.38C223.29,-73.26 241.7,-65.56 258.81,-58.4"/>
<polygon fill="black" stroke="black" stroke-width="1.2" points="260.27,-61.58 268.14,-54.49 257.57,-55.12 260.27,-61.58"/>
</g>
<!-- mnt_comp3 -->
<g id="node12" class="node">
<title>mnt_comp3</title>
<path fill="white" stroke="black" d="M348,-108.97C348,-108.97 274,-108.97 274,-108.97 268,-108.97 262,-102.97 262,-96.97 262,-96.97 262,-84.97 262,-84.97 262,-78.97 268,-72.97 274,-72.97 274,-72.97 348,-72.97 348,-72.97 354,-72.97 360,-78.97 360,-84.97 360,-84.97 360,-96.97 360,-96.97 360,-102.97 354,-108.97 348,-108.97"/>
<text text-anchor="middle" x="311" y="-87.27" font-family="Helvetica,sans-Serif" font-size="14.00">mnt_comp3</text>
</g>
<!-- rotate&#45;&gt;mnt_comp3 -->
<g id="edge8" class="edge">
<title>rotate&#45;&gt;mnt_comp3</title>
<path fill="none" stroke="black" stroke-width="1.2" d="M208.67,-90.97C221.25,-90.97 236.62,-90.97 251.56,-90.97"/>
<polygon fill="black" stroke="black" stroke-width="1.2" points="251.8,-94.47 261.8,-90.97 251.8,-87.47 251.8,-94.47"/>
</g>
<!-- fail_comp2 -->
<g id="node15" class="node">
<title>fail_comp2</title>
<path fill="white" stroke="black" d="M345,-162.97C345,-162.97 277,-162.97 277,-162.97 271,-162.97 265,-156.97 265,-150.97 265,-150.97 265,-138.97 265,-138.97 265,-132.97 271,-126.97 277,-126.97 277,-126.97 345,-126.97 345,-126.97 351,-126.97 357,-132.97 357,-138.97 357,-138.97 357,-150.97 357,-150.97 357,-156.97 351,-162.97 345,-162.97"/>
<text text-anchor="middle" x="311" y="-141.27" font-family="Helvetica,sans-Serif" font-size="14.00">fail_comp2</text>
</g>
<!-- rotate&#45;&gt;fail_comp2 -->
<g id="edge9" class="edge">
<title>rotate&#45;&gt;fail_comp2</title>
<path fill="none" stroke="black" stroke-width="1.2" d="M208.67,-102.55C222.85,-108.48 240.58,-115.91 257.24,-122.88"/>
<polygon fill="black" stroke="black" stroke-width="1.2" points="256.31,-126.29 266.89,-126.92 259.02,-119.83 256.31,-126.29"/>
</g>
<!-- pressure -->
<g id="node3" class="node">
<title>pressure</title>
<path fill="white" stroke="black" d="M586,-100.97C586,-100.97 533,-100.97 533,-100.97 527,-100.97 521,-94.97 521,-88.97 521,-88.97 521,-76.97 521,-76.97 521,-70.97 527,-64.97 533,-64.97 533,-64.97 586,-64.97 586,-64.97 592,-64.97 598,-70.97 598,-76.97 598,-76.97 598,-88.97 598,-88.97 598,-94.97 592,-100.97 586,-100.97"/>
<text text-anchor="middle" x="559.5" y="-79.27" font-family="Helvetica,sans-Serif" font-size="14.00">pressure</text>
</g>
<!-- fail_comp3 -->
<g id="node16" class="node">
<title>fail_comp3</title>
<path fill="white" stroke="black" d="M718,-196.97C718,-196.97 650,-196.97 650,-196.97 644,-196.97 638,-190.97 638,-184.97 638,-184.97 638,-172.97 638,-172.97 638,-166.97 644,-160.97 650,-160.97 650,-160.97 718,-160.97 718,-160.97 724,-160.97 730,-166.97 730,-172.97 730,-172.97 730,-184.97 730,-184.97 730,-190.97 724,-196.97 718,-196.97"/>
<text text-anchor="middle" x="684" y="-175.27" font-family="Helvetica,sans-Serif" font-size="14.00">fail_comp3</text>
</g>
<!-- pressure&#45;&gt;fail_comp3 -->
<g id="edge13" class="edge">
<title>pressure&#45;&gt;fail_comp3</title>
<path fill="none" stroke="black" stroke-width="1.2" d="M589.4,-101.09C593.69,-103.97 598,-106.98 602,-109.97 620.53,-123.8 640.31,-140.6 655.68,-154.16"/>
<polygon fill="black" stroke="black" stroke-width="1.2" points="653.49,-156.9 663.29,-160.93 658.14,-151.67 653.49,-156.9"/>
</g>
<!-- vibration -->
<g id="node4" class="node">
<title>vibration</title>
<path fill="white" stroke="black" d="M465.5,-154.97C465.5,-154.97 411.5,-154.97 411.5,-154.97 405.5,-154.97 399.5,-148.97 399.5,-142.97 399.5,-142.97 399.5,-130.97 399.5,-130.97 399.5,-124.97 405.5,-118.97 411.5,-118.97 411.5,-118.97 465.5,-118.97 465.5,-118.97 471.5,-118.97 477.5,-124.97 477.5,-130.97 477.5,-130.97 477.5,-142.97 477.5,-142.97 477.5,-148.97 471.5,-154.97 465.5,-154.97"/>
<text text-anchor="middle" x="438.5" y="-133.27" font-family="Helvetica,sans-Serif" font-size="14.00">vibration</text>
</g>
<!-- vibration&#45;&gt;volt -->
<g id="edge2" class="edge">
<title>vibration&#45;&gt;volt</title>
<path fill="none" stroke="black" stroke-width="1.2" d="M405.75,-154.98C392.12,-161.73 375.73,-168.58 360,-171.97 261.81,-193.11 229.29,-203.73 134,-171.97 115.03,-165.64 114.75,-155.89 98,-144.97 93.86,-142.27 89.44,-139.56 85.02,-136.95"/>
<polygon fill="black" stroke="black" stroke-width="1.2" points="86.44,-133.74 76.03,-131.79 82.96,-139.81 86.44,-133.74"/>
</g>
<!-- vibration&#45;&gt;pressure -->
<g id="edge10" class="edge">
<title>vibration&#45;&gt;pressure</title>
<path fill="none" stroke="black" stroke-width="1.2" d="M477.81,-119.58C488.53,-114.72 500.31,-109.37 511.47,-104.31"/>
<polygon fill="black" stroke="black" stroke-width="1.2" points="513.01,-107.45 520.67,-100.13 510.12,-101.08 513.01,-107.45"/>
</g>
<!-- err_error2 -->
<g id="node6" class="node">
<title>err_error2</title>
<path fill="white" stroke="black" d="M590,-154.97C590,-154.97 529,-154.97 529,-154.97 523,-154.97 517,-148.97 517,-142.97 517,-142.97 517,-130.97 517,-130.97 517,-124.97 523,-118.97 529,-118.97 529,-118.97 590,-118.97 590,-118.97 596,-118.97 602,-124.97 602,-130.97 602,-130.97 602,-142.97 602,-142.97 602,-148.97 596,-154.97 590,-154.97"/>
<text text-anchor="middle" x="559.5" y="-133.27" font-family="Helvetica,sans-Serif" font-size="14.00">err_error2</text>
</g>
<!-- vibration&#45;&gt;err_error2 -->
<g id="edge14" class="edge">
<title>vibration&#45;&gt;err_error2</title>
<path fill="none" stroke="black" stroke-width="1.2" d="M477.81,-136.97C487.09,-136.97 497.16,-136.97 506.93,-136.97"/>
<polygon fill="black" stroke="black" stroke-width="1.2" points="506.97,-140.47 516.97,-136.97 506.97,-133.47 506.97,-140.47"/>
</g>
<!-- err_error1&#45;&gt;volt -->
<g id="edge3" class="edge">
<title>err_error1&#45;&gt;volt</title>
<path fill="none" stroke="black" stroke-width="1.2" d="M268.22,-38.48C231.75,-40.94 177.95,-47.34 134,-63.97 115.16,-71.1 96.12,-82.88 80.94,-93.62"/>
<polygon fill="black" stroke="black" stroke-width="1.2" points="78.5,-91.07 72.48,-99.78 82.62,-96.73 78.5,-91.07"/>
</g>
<!-- err_error3 -->
<g id="node7" class="node">
<title>err_error3</title>
<path fill="white" stroke="black" d="M79.5,-189.97C79.5,-189.97 18.5,-189.97 18.5,-189.97 12.5,-189.97 6.5,-183.97 6.5,-177.97 6.5,-177.97 6.5,-165.97 6.5,-165.97 6.5,-159.97 12.5,-153.97 18.5,-153.97 18.5,-153.97 79.5,-153.97 79.5,-153.97 85.5,-153.97 91.5,-159.97 91.5,-165.97 91.5,-165.97 91.5,-177.97 91.5,-177.97 91.5,-183.97 85.5,-189.97 79.5,-189.97"/>
<text text-anchor="middle" x="49" y="-168.27" font-family="Helvetica,sans-Serif" font-size="14.00">err_error3</text>
</g>
<!-- err_error4 -->
<g id="node8" class="node">
<title>err_error4</title>
<path fill="white" stroke="black" d="M469,-46.97C469,-46.97 408,-46.97 408,-46.97 402,-46.97 396,-40.97 396,-34.97 396,-34.97 396,-22.97 396,-22.97 396,-16.97 402,-10.97 408,-10.97 408,-10.97 469,-10.97 469,-10.97 475,-10.97 481,-16.97 481,-22.97 481,-22.97 481,-34.97 481,-34.97 481,-40.97 475,-46.97 469,-46.97"/>
<text text-anchor="middle" x="438.5" y="-25.27" font-family="Helvetica,sans-Serif" font-size="14.00">err_error4</text>
</g>
<!-- err_error4&#45;&gt;pressure -->
<g id="edge11" class="edge">
<title>err_error4&#45;&gt;pressure</title>
<path fill="none" stroke="black" stroke-width="1.2" d="M479.46,-47.1C489.8,-51.79 501.02,-56.88 511.68,-61.72"/>
<polygon fill="black" stroke="black" stroke-width="1.2" points="510.31,-64.94 520.86,-65.89 513.2,-58.57 510.31,-64.94"/>
</g>
<!-- err_error5&#45;&gt;pressure -->
<g id="edge12" class="edge">
<title>err_error5&#45;&gt;pressure</title>
<path fill="none" stroke="black" stroke-width="1.2" d="M481.12,-82.97C490.57,-82.97 500.68,-82.97 510.38,-82.97"/>
<polygon fill="black" stroke="black" stroke-width="1.2" points="510.68,-86.47 520.68,-82.97 510.68,-79.47 510.68,-86.47"/>
</g>
<!-- mnt_comp1 -->
<g id="node10" class="node">
<title>mnt_comp1</title>
<path fill="white" stroke="black" d="M86,-243.97C86,-243.97 12,-243.97 12,-243.97 6,-243.97 0,-237.97 0,-231.97 0,-231.97 0,-219.97 0,-219.97 0,-213.97 6,-207.97 12,-207.97 12,-207.97 86,-207.97 86,-207.97 92,-207.97 98,-213.97 98,-219.97 98,-219.97 98,-231.97 98,-231.97 98,-237.97 92,-243.97 86,-243.97"/>
<text text-anchor="middle" x="49" y="-222.27" font-family="Helvetica,sans-Serif" font-size="14.00">mnt_comp1</text>
</g>
<!-- mnt_comp2 -->
<g id="node11" class="node">
<title>mnt_comp2</title>
<path fill="white" stroke="black" d="M86,-297.97C86,-297.97 12,-297.97 12,-297.97 6,-297.97 0,-291.97 0,-285.97 0,-285.97 0,-273.97 0,-273.97 0,-267.97 6,-261.97 12,-261.97 12,-261.97 86,-261.97 86,-261.97 92,-261.97 98,-267.97 98,-273.97 98,-273.97 98,-285.97 98,-285.97 98,-291.97 92,-297.97 86,-297.97"/>
<text text-anchor="middle" x="49" y="-276.27" font-family="Helvetica,sans-Serif" font-size="14.00">mnt_comp2</text>
</g>
<!-- mnt_comp3&#45;&gt;vibration -->
<g id="edge15" class="edge">
<title>mnt_comp3&#45;&gt;vibration</title>
<path fill="none" stroke="black" stroke-width="1.2" d="M360.16,-108.62C369.91,-112.19 380.15,-115.95 389.88,-119.51"/>
<polygon fill="black" stroke="black" stroke-width="1.2" points="388.8,-122.85 399.4,-123 391.21,-116.27 388.8,-122.85"/>
</g>
<!-- mnt_comp4 -->
<g id="node13" class="node">
<title>mnt_comp4</title>
<path fill="white" stroke="black" d="M86,-351.97C86,-351.97 12,-351.97 12,-351.97 6,-351.97 0,-345.97 0,-339.97 0,-339.97 0,-327.97 0,-327.97 0,-321.97 6,-315.97 12,-315.97 12,-315.97 86,-315.97 86,-315.97 92,-315.97 98,-321.97 98,-327.97 98,-327.97 98,-339.97 98,-339.97 98,-345.97 92,-351.97 86,-351.97"/>
<text text-anchor="middle" x="49" y="-330.27" font-family="Helvetica,sans-Serif" font-size="14.00">mnt_comp4</text>
</g>
<!-- fail_comp3&#45;&gt;volt -->
<g id="edge6" class="edge">
<title>fail_comp3&#45;&gt;volt</title>
<path fill="none" stroke="black" stroke-width="1.2" d="M637.79,-193.97C589.33,-208.7 509.84,-228.97 439.5,-228.97 310,-228.97 310,-228.97 310,-228.97 230.33,-228.97 201.12,-237.88 134,-194.97 110.93,-180.22 118.41,-163.22 98,-144.97 94.09,-141.47 89.65,-138.23 85.09,-135.31"/>
<polygon fill="black" stroke="black" stroke-width="1.2" points="86.67,-132.17 76.28,-130.07 83.09,-138.19 86.67,-132.17"/>
</g>
<!-- fail_comp4 -->
<g id="node17" class="node">
<title>fail_comp4</title>
<path fill="white" stroke="black" d="M83,-405.97C83,-405.97 15,-405.97 15,-405.97 9,-405.97 3,-399.97 3,-393.97 3,-393.97 3,-381.97 3,-381.97 3,-375.97 9,-369.97 15,-369.97 15,-369.97 83,-369.97 83,-369.97 89,-369.97 95,-375.97 95,-381.97 95,-381.97 95,-393.97 95,-393.97 95,-399.97 89,-405.97 83,-405.97"/>
<text text-anchor="middle" x="49" y="-384.27" font-family="Helvetica,sans-Serif" font-size="14.00">fail_comp4</text>
</g>
</g>
</svg>
