<?xml version="1.0" encoding="UTF-8" standalone="no"?>
<!DOCTYPE svg PUBLIC "-//W3C//DTD SVG 1.1//EN"
 "http://www.w3.org/Graphics/SVG/1.1/DTD/svg11.dtd">
<!-- Generated by graphviz version 2.50.0 (0)
 -->
<!-- Title: G Pages: 1 -->
<svg width="458pt" height="610pt"
 viewBox="0.00 0.00 458.00 610.00" xmlns="http://www.w3.org/2000/svg" xmlns:xlink="http://www.w3.org/1999/xlink">
<g id="graph0" class="graph" transform="scale(1 1) rotate(0) translate(4 606)">
<title>G</title>
<polygon fill="white" stroke="transparent" points="-4,4 -4,-606 454,-606 454,4 -4,4"/>
<text text-anchor="middle" x="225" y="-585.2" font-family="Times,serif" font-size="16.00">model=model3/pcmci_mixed.json [machine 89]</text>
<!-- volt -->
<g id="node1" class="node">
<title>volt</title>
<path fill="white" stroke="black" d="M438,-63C438,-63 408,-63 408,-63 402,-63 396,-57 396,-51 396,-51 396,-39 396,-39 396,-33 402,-27 408,-27 408,-27 438,-27 438,-27 444,-27 450,-33 450,-39 450,-39 450,-51 450,-51 450,-57 444,-63 438,-63"/>
<text text-anchor="middle" x="423" y="-41.3" font-family="Helvetica,sans-Serif" font-size="14.00">volt</text>
</g>
<!-- rotate -->
<g id="node2" class="node">
<title>rotate</title>
<path fill="white" stroke="black" d="M65.5,-144C65.5,-144 32.5,-144 32.5,-144 26.5,-144 20.5,-138 20.5,-132 20.5,-132 20.5,-120 20.5,-120 20.5,-114 26.5,-108 32.5,-108 32.5,-108 65.5,-108 65.5,-108 71.5,-108 77.5,-114 77.5,-120 77.5,-120 77.5,-132 77.5,-132 77.5,-138 71.5,-144 65.5,-144"/>
<text text-anchor="middle" x="49" y="-122.3" font-family="Helvetica,sans-Serif" font-size="14.00">rotate</text>
</g>
<!-- pressure -->
<g id="node3" class="node">
<title>pressure</title>
<path fill="white" stroke="black" d="M340.5,-144C340.5,-144 287.5,-144 287.5,-144 281.5,-144 275.5,-138 275.5,-132 275.5,-132 275.5,-120 275.5,-120 275.5,-114 281.5,-108 287.5,-108 287.5,-108 340.5,-108 340.5,-108 346.5,-108 352.5,-114 352.5,-120 352.5,-120 352.5,-132 352.5,-132 352.5,-138 346.5,-144 340.5,-144"/>
<text text-anchor="middle" x="314" y="-122.3" font-family="Helvetica,sans-Serif" font-size="14.00">pressure</text>
</g>
<!-- vibration -->
<g id="node4" class="node">
<title>vibration</title>
<path fill="white" stroke="black" d="M210,-90C210,-90 156,-90 156,-90 150,-90 144,-84 144,-78 144,-78 144,-66 144,-66 144,-60 150,-54 156,-54 156,-54 210,-54 210,-54 216,-54 222,-60 222,-66 222,-66 222,-78 222,-78 222,-84 216,-90 210,-90"/>
<text text-anchor="middle" x="183" y="-68.3" font-family="Helvetica,sans-Serif" font-size="14.00">vibration</text>
</g>
<!-- vibration&#45;&gt;pressure -->
<g id="edge3" class="edge">
<title>vibration&#45;&gt;pressure</title>
<path fill="none" stroke="black" stroke-width="1.2" d="M222.01,-87.91C235.78,-93.68 251.52,-100.26 265.98,-106.32"/>
<polygon fill="black" stroke="black" stroke-width="1.2" points="264.69,-109.57 275.27,-110.2 267.39,-103.11 264.69,-109.57"/>
</g>
<!-- err_error1 -->
<g id="node5" class="node">
<title>err_error1</title>
<path fill="white" stroke="black" d="M344.5,-90C344.5,-90 283.5,-90 283.5,-90 277.5,-90 271.5,-84 271.5,-78 271.5,-78 271.5,-66 271.5,-66 271.5,-60 277.5,-54 283.5,-54 283.5,-54 344.5,-54 344.5,-54 350.5,-54 356.5,-60 356.5,-66 356.5,-66 356.5,-78 356.5,-78 356.5,-84 350.5,-90 344.5,-90"/>
<text text-anchor="middle" x="314" y="-68.3" font-family="Helvetica,sans-Serif" font-size="14.00">err_error1</text>
</g>
<!-- vibration&#45;&gt;err_error1 -->
<g id="edge5" class="edge">
<title>vibration&#45;&gt;err_error1</title>
<path fill="none" stroke="black" stroke-width="1.2" d="M222.01,-72C234.2,-72 247.93,-72 260.96,-72"/>
<polygon fill="black" stroke="black" stroke-width="1.2" points="261.21,-75.5 271.21,-72 261.21,-68.5 261.21,-75.5"/>
</g>
<!-- err_error1&#45;&gt;volt -->
<g id="edge1" class="edge">
<title>err_error1&#45;&gt;volt</title>
<path fill="none" stroke="black" stroke-width="1.2" d="M356.68,-61.48C366.33,-59.05 376.52,-56.48 385.91,-54.11"/>
<polygon fill="black" stroke="black" stroke-width="1.2" points="386.88,-57.47 395.72,-51.63 385.17,-50.68 386.88,-57.47"/>
</g>
<!-- err_error2 -->
<g id="node6" class="node">
<title>err_error2</title>
<path fill="white" stroke="black" d="M79.5,-198C79.5,-198 18.5,-198 18.5,-198 12.5,-198 6.5,-192 6.5,-186 6.5,-186 6.5,-174 6.5,-174 6.5,-168 12.5,-162 18.5,-162 18.5,-162 79.5,-162 79.5,-162 85.5,-162 91.5,-168 91.5,-174 91.5,-174 91.5,-186 91.5,-186 91.5,-192 85.5,-198 79.5,-198"/>
<text text-anchor="middle" x="49" y="-176.3" font-family="Helvetica,sans-Serif" font-size="14.00">err_error2</text>
</g>
<!-- err_error3 -->
<g id="node7" class="node">
<title>err_error3</title>
<path fill="white" stroke="black" d="M79.5,-252C79.5,-252 18.5,-252 18.5,-252 12.5,-252 6.5,-246 6.5,-240 6.5,-240 6.5,-228 6.5,-228 6.5,-222 12.5,-216 18.5,-216 18.5,-216 79.5,-216 79.5,-216 85.5,-216 91.5,-222 91.5,-228 91.5,-228 91.5,-240 91.5,-240 91.5,-246 85.5,-252 79.5,-252"/>
<text text-anchor="middle" x="49" y="-230.3" font-family="Helvetica,sans-Serif" font-size="14.00">err_error3</text>
</g>
<!-- err_error4 -->
<g id="node8" class="node">
<title>err_error4</title>
<path fill="white" stroke="black" d="M79.5,-306C79.5,-306 18.5,-306 18.5,-306 12.5,-306 6.5,-300 6.5,-294 6.5,-294 6.5,-282 6.5,-282 6.5,-276 12.5,-270 18.5,-270 18.5,-270 79.5,-270 79.5,-270 85.5,-270 91.5,-276 91.5,-282 91.5,-282 91.5,-294 91.5,-294 91.5,-300 85.5,-306 79.5,-306"/>
<text text-anchor="middle" x="49" y="-284.3" font-family="Helvetica,sans-Serif" font-size="14.00">err_error4</text>
</g>
<!-- err_error5 -->
<g id="node9" class="node">
<title>err_error5</title>
<path fill="white" stroke="black" d="M79.5,-90C79.5,-90 18.5,-90 18.5,-90 12.5,-90 6.5,-84 6.5,-78 6.5,-78 6.5,-66 6.5,-66 6.5,-60 12.5,-54 18.5,-54 18.5,-54 79.5,-54 79.5,-54 85.5,-54 91.5,-60 91.5,-66 91.5,-66 91.5,-78 91.5,-78 91.5,-84 85.5,-90 79.5,-90"/>
<text text-anchor="middle" x="49" y="-68.3" font-family="Helvetica,sans-Serif" font-size="14.00">err_error5</text>
</g>
<!-- err_error5&#45;&gt;vibration -->
<g id="edge6" class="edge">
<title>err_error5&#45;&gt;vibration</title>
<path fill="none" stroke="black" stroke-width="1.2" d="M91.77,-72C105.01,-72 119.76,-72 133.44,-72"/>
<polygon fill="black" stroke="black" stroke-width="1.2" points="133.64,-75.5 143.64,-72 133.64,-68.5 133.64,-75.5"/>
</g>
<!-- mnt_comp1 -->
<g id="node10" class="node">
<title>mnt_comp1</title>
<path fill="white" stroke="black" d="M220,-144C220,-144 146,-144 146,-144 140,-144 134,-138 134,-132 134,-132 134,-120 134,-120 134,-114 140,-108 146,-108 146,-108 220,-108 220,-108 226,-108 232,-114 232,-120 232,-120 232,-132 232,-132 232,-138 226,-144 220,-144"/>
<text text-anchor="middle" x="183" y="-122.3" font-family="Helvetica,sans-Serif" font-size="14.00">mnt_comp1</text>
</g>
<!-- mnt_comp1&#45;&gt;pressure -->
<g id="edge4" class="edge">
<title>mnt_comp1&#45;&gt;pressure</title>
<path fill="none" stroke="black" stroke-width="1.2" d="M232.03,-126C242.89,-126 254.42,-126 265.26,-126"/>
<polygon fill="black" stroke="black" stroke-width="1.2" points="265.41,-129.5 275.41,-126 265.41,-122.5 265.41,-129.5"/>
</g>
<!-- mnt_comp2 -->
<g id="node11" class="node">
<title>mnt_comp2</title>
<path fill="white" stroke="black" d="M86,-360C86,-360 12,-360 12,-360 6,-360 0,-354 0,-348 0,-348 0,-336 0,-336 0,-330 6,-324 12,-324 12,-324 86,-324 86,-324 92,-324 98,-330 98,-336 98,-336 98,-348 98,-348 98,-354 92,-360 86,-360"/>
<text text-anchor="middle" x="49" y="-338.3" font-family="Helvetica,sans-Serif" font-size="14.00">mnt_comp2</text>
</g>
<!-- mnt_comp3 -->
<g id="node12" class="node">
<title>mnt_comp3</title>
<path fill="white" stroke="black" d="M86,-414C86,-414 12,-414 12,-414 6,-414 0,-408 0,-402 0,-402 0,-390 0,-390 0,-384 6,-378 12,-378 12,-378 86,-378 86,-378 92,-378 98,-384 98,-390 98,-390 98,-402 98,-402 98,-408 92,-414 86,-414"/>
<text text-anchor="middle" x="49" y="-392.3" font-family="Helvetica,sans-Serif" font-size="14.00">mnt_comp3</text>
</g>
<!-- mnt_comp4 -->
<g id="node13" class="node">
<title>mnt_comp4</title>
<path fill="white" stroke="black" d="M86,-468C86,-468 12,-468 12,-468 6,-468 0,-462 0,-456 0,-456 0,-444 0,-444 0,-438 6,-432 12,-432 12,-432 86,-432 86,-432 92,-432 98,-438 98,-444 98,-444 98,-456 98,-456 98,-462 92,-468 86,-468"/>
<text text-anchor="middle" x="49" y="-446.3" font-family="Helvetica,sans-Serif" font-size="14.00">mnt_comp4</text>
</g>
<!-- fail_comp1 -->
<g id="node14" class="node">
<title>fail_comp1</title>
<path fill="white" stroke="black" d="M83,-522C83,-522 15,-522 15,-522 9,-522 3,-516 3,-510 3,-510 3,-498 3,-498 3,-492 9,-486 15,-486 15,-486 83,-486 83,-486 89,-486 95,-492 95,-498 95,-498 95,-510 95,-510 95,-516 89,-522 83,-522"/>
<text text-anchor="middle" x="49" y="-500.3" font-family="Helvetica,sans-Serif" font-size="14.00">fail_comp1</text>
</g>
<!-- fail_comp2 -->
<g id="node15" class="node">
<title>fail_comp2</title>
<path fill="white" stroke="black" d="M83,-576C83,-576 15,-576 15,-576 9,-576 3,-570 3,-564 3,-564 3,-552 3,-552 3,-546 9,-540 15,-540 15,-540 83,-540 83,-540 89,-540 95,-546 95,-552 95,-552 95,-564 95,-564 95,-570 89,-576 83,-576"/>
<text text-anchor="middle" x="49" y="-554.3" font-family="Helvetica,sans-Serif" font-size="14.00">fail_comp2</text>
</g>
<!-- fail_comp4 -->
<g id="node16" class="node">
<title>fail_comp4</title>
<path fill="white" stroke="black" d="M348,-36C348,-36 280,-36 280,-36 274,-36 268,-30 268,-24 268,-24 268,-12 268,-12 268,-6 274,0 280,0 280,0 348,0 348,0 354,0 360,-6 360,-12 360,-12 360,-24 360,-24 360,-30 354,-36 348,-36"/>
<text text-anchor="middle" x="314" y="-14.3" font-family="Helvetica,sans-Serif" font-size="14.00">fail_comp4</text>
</g>
<!-- fail_comp4&#45;&gt;volt -->
<g id="edge2" class="edge">
<title>fail_comp4&#45;&gt;volt</title>
<path fill="none" stroke="black" stroke-width="1.2" d="M360.07,-29.37C368.76,-31.56 377.75,-33.83 386.1,-35.94"/>
<polygon fill="black" stroke="black" stroke-width="1.2" points="385.35,-39.36 395.9,-38.41 387.06,-32.57 385.35,-39.36"/>
</g>
</g>
</svg>
