<?xml version="1.0" encoding="UTF-8" standalone="no"?>
<!DOCTYPE svg PUBLIC "-//W3C//DTD SVG 1.1//EN"
 "http://www.w3.org/Graphics/SVG/1.1/DTD/svg11.dtd">
<!-- Generated by graphviz version 2.50.0 (0)
 -->
<!-- Title: G Pages: 1 -->
<svg width="464pt" height="571pt"
 viewBox="0.00 0.00 464.00 571.00" xmlns="http://www.w3.org/2000/svg" xmlns:xlink="http://www.w3.org/1999/xlink">
<g id="graph0" class="graph" transform="scale(1 1) rotate(0) translate(4 567)">
<title>G</title>
<polygon fill="white" stroke="transparent" points="-4,4 -4,-567 460,-567 460,4 -4,4"/>
<text text-anchor="middle" x="228" y="-546.2" font-family="Times,serif" font-size="16.00">model=model4/pcmci_mixed.json [machine 34]</text>
<!-- volt -->
<g id="node1" class="node">
<title>volt</title>
<path fill="white" stroke="black" d="M310,-244C310,-244 280,-244 280,-244 274,-244 268,-238 268,-232 268,-232 268,-220 268,-220 268,-214 274,-208 280,-208 280,-208 310,-208 310,-208 316,-208 322,-214 322,-220 322,-220 322,-232 322,-232 322,-238 316,-244 310,-244"/>
<text text-anchor="middle" x="295" y="-222.3" font-family="Helvetica,sans-Serif" font-size="14.00">volt</text>
</g>
<!-- err_error4 -->
<g id="node8" class="node">
<title>err_error4</title>
<path fill="white" stroke="black" d="M437.5,-175C437.5,-175 376.5,-175 376.5,-175 370.5,-175 364.5,-169 364.5,-163 364.5,-163 364.5,-151 364.5,-151 364.5,-145 370.5,-139 376.5,-139 376.5,-139 437.5,-139 437.5,-139 443.5,-139 449.5,-145 449.5,-151 449.5,-151 449.5,-163 449.5,-163 449.5,-169 443.5,-175 437.5,-175"/>
<text text-anchor="middle" x="407" y="-153.3" font-family="Helvetica,sans-Serif" font-size="14.00">err_error4</text>
</g>
<!-- volt&#45;&gt;err_error4 -->
<g id="edge2" class="edge">
<title>volt&#45;&gt;err_error4</title>
<path fill="none" stroke="black" stroke-width="1.2" d="M322.07,-209.65C335.88,-200.99 353.09,-190.19 368.32,-180.63"/>
<polygon fill="black" stroke="black" stroke-width="1.2" points="370.41,-183.46 377.02,-175.18 366.69,-177.53 370.41,-183.46"/>
</g>
<!-- mnt_comp2 -->
<g id="node11" class="node">
<title>mnt_comp2</title>
<path fill="white" stroke="black" d="M444,-236C444,-236 370,-236 370,-236 364,-236 358,-230 358,-224 358,-224 358,-212 358,-212 358,-206 364,-200 370,-200 370,-200 444,-200 444,-200 450,-200 456,-206 456,-212 456,-212 456,-224 456,-224 456,-230 450,-236 444,-236"/>
<text text-anchor="middle" x="407" y="-214.3" font-family="Helvetica,sans-Serif" font-size="14.00">mnt_comp2</text>
</g>
<!-- volt&#45;&gt;mnt_comp2 -->
<g id="edge3" class="edge">
<title>volt&#45;&gt;mnt_comp2</title>
<path fill="none" stroke="black" stroke-width="1.2" d="M322.07,-224.1C329.82,-223.54 338.65,-222.9 347.6,-222.25"/>
<polygon fill="black" stroke="black" stroke-width="1.2" points="347.98,-225.73 357.7,-221.51 347.47,-218.75 347.98,-225.73"/>
</g>
<!-- rotate -->
<g id="node2" class="node">
<title>rotate</title>
<path fill="white" stroke="black" d="M199.5,-298C199.5,-298 166.5,-298 166.5,-298 160.5,-298 154.5,-292 154.5,-286 154.5,-286 154.5,-274 154.5,-274 154.5,-268 160.5,-262 166.5,-262 166.5,-262 199.5,-262 199.5,-262 205.5,-262 211.5,-268 211.5,-274 211.5,-274 211.5,-286 211.5,-286 211.5,-292 205.5,-298 199.5,-298"/>
<text text-anchor="middle" x="183" y="-276.3" font-family="Helvetica,sans-Serif" font-size="14.00">rotate</text>
</g>
<!-- rotate&#45;&gt;volt -->
<g id="edge1" class="edge">
<title>rotate&#45;&gt;volt</title>
<path fill="none" stroke="black" stroke-width="1.2" d="M211.76,-266.37C225.99,-259.39 243.47,-250.8 258.66,-243.35"/>
<polygon fill="black" stroke="black" stroke-width="1.2" points="260.33,-246.43 267.77,-238.88 257.25,-240.14 260.33,-246.43"/>
</g>
<!-- pressure -->
<g id="node3" class="node">
<title>pressure</title>
<path fill="white" stroke="black" d="M75.5,-198C75.5,-198 22.5,-198 22.5,-198 16.5,-198 10.5,-192 10.5,-186 10.5,-186 10.5,-174 10.5,-174 10.5,-168 16.5,-162 22.5,-162 22.5,-162 75.5,-162 75.5,-162 81.5,-162 87.5,-168 87.5,-174 87.5,-174 87.5,-186 87.5,-186 87.5,-192 81.5,-198 75.5,-198"/>
<text text-anchor="middle" x="49" y="-176.3" font-family="Helvetica,sans-Serif" font-size="14.00">pressure</text>
</g>
<!-- pressure&#45;&gt;rotate -->
<g id="edge6" class="edge">
<title>pressure&#45;&gt;rotate</title>
<path fill="none" stroke="black" stroke-width="1.2" d="M68.77,-198.29C85.21,-213.82 110.15,-236.19 134,-253 137.66,-255.58 141.59,-258.12 145.56,-260.55"/>
<polygon fill="black" stroke="black" stroke-width="1.2" points="143.86,-263.6 154.25,-265.65 147.4,-257.57 143.86,-263.6"/>
</g>
<!-- vibration -->
<g id="node4" class="node">
<title>vibration</title>
<path fill="white" stroke="black" d="M210,-102C210,-102 156,-102 156,-102 150,-102 144,-96 144,-90 144,-90 144,-78 144,-78 144,-72 150,-66 156,-66 156,-66 210,-66 210,-66 216,-66 222,-72 222,-78 222,-78 222,-90 222,-90 222,-96 216,-102 210,-102"/>
<text text-anchor="middle" x="183" y="-80.3" font-family="Helvetica,sans-Serif" font-size="14.00">vibration</text>
</g>
<!-- pressure&#45;&gt;vibration -->
<g id="edge8" class="edge">
<title>pressure&#45;&gt;vibration</title>
<path fill="none" stroke="black" stroke-width="1.2" d="M83.77,-162C88.63,-159.12 93.5,-156.08 98,-153 117.63,-139.57 138.29,-122.64 154.21,-108.91"/>
<polygon fill="black" stroke="black" stroke-width="1.2" points="156.83,-111.27 162.07,-102.06 152.23,-105.99 156.83,-111.27"/>
</g>
<!-- pressure&#45;&gt;err_error4 -->
<g id="edge9" class="edge">
<title>pressure&#45;&gt;err_error4</title>
<path fill="none" stroke="black" stroke-width="1.2" d="M87.91,-172.59C102.29,-170.07 118.85,-167.51 134,-166 210.41,-158.4 299.43,-156.82 354.25,-156.68"/>
<polygon fill="black" stroke="black" stroke-width="1.2" points="354.42,-160.18 364.41,-156.67 354.41,-153.18 354.42,-160.18"/>
</g>
<!-- pressure&#45;&gt;mnt_comp2 -->
<g id="edge10" class="edge">
<title>pressure&#45;&gt;mnt_comp2</title>
<path fill="none" stroke="black" stroke-width="1.2" d="M87.59,-180.81C140.26,-182.36 238.87,-186.77 322,-199 330.4,-200.24 339.21,-201.86 347.82,-203.63"/>
<polygon fill="black" stroke="black" stroke-width="1.2" points="347.31,-207.1 357.82,-205.78 348.78,-200.26 347.31,-207.1"/>
</g>
<!-- err_error1 -->
<g id="node5" class="node">
<title>err_error1</title>
<path fill="white" stroke="black" d="M79.5,-144C79.5,-144 18.5,-144 18.5,-144 12.5,-144 6.5,-138 6.5,-132 6.5,-132 6.5,-120 6.5,-120 6.5,-114 12.5,-108 18.5,-108 18.5,-108 79.5,-108 79.5,-108 85.5,-108 91.5,-114 91.5,-120 91.5,-120 91.5,-132 91.5,-132 91.5,-138 85.5,-144 79.5,-144"/>
<text text-anchor="middle" x="49" y="-122.3" font-family="Helvetica,sans-Serif" font-size="14.00">err_error1</text>
</g>
<!-- err_error1&#45;&gt;vibration -->
<g id="edge11" class="edge">
<title>err_error1&#45;&gt;vibration</title>
<path fill="none" stroke="black" stroke-width="1.2" d="M91.77,-112.71C105.14,-108.46 120.05,-103.71 133.84,-99.32"/>
<polygon fill="black" stroke="black" stroke-width="1.2" points="135.17,-102.57 143.64,-96.2 133.05,-95.9 135.17,-102.57"/>
</g>
<!-- err_error2 -->
<g id="node6" class="node">
<title>err_error2</title>
<path fill="white" stroke="black" d="M79.5,-90C79.5,-90 18.5,-90 18.5,-90 12.5,-90 6.5,-84 6.5,-78 6.5,-78 6.5,-66 6.5,-66 6.5,-60 12.5,-54 18.5,-54 18.5,-54 79.5,-54 79.5,-54 85.5,-54 91.5,-60 91.5,-66 91.5,-66 91.5,-78 91.5,-78 91.5,-84 85.5,-90 79.5,-90"/>
<text text-anchor="middle" x="49" y="-68.3" font-family="Helvetica,sans-Serif" font-size="14.00">err_error2</text>
</g>
<!-- err_error2&#45;&gt;vibration -->
<g id="edge12" class="edge">
<title>err_error2&#45;&gt;vibration</title>
<path fill="none" stroke="black" stroke-width="1.2" d="M91.77,-75.8C105.01,-77 119.76,-78.34 133.44,-79.59"/>
<polygon fill="black" stroke="black" stroke-width="1.2" points="133.37,-83.09 143.64,-80.51 134,-76.12 133.37,-83.09"/>
</g>
<!-- err_error3 -->
<g id="node7" class="node">
<title>err_error3</title>
<path fill="white" stroke="black" d="M79.5,-375C79.5,-375 18.5,-375 18.5,-375 12.5,-375 6.5,-369 6.5,-363 6.5,-363 6.5,-351 6.5,-351 6.5,-345 12.5,-339 18.5,-339 18.5,-339 79.5,-339 79.5,-339 85.5,-339 91.5,-345 91.5,-351 91.5,-351 91.5,-363 91.5,-363 91.5,-369 85.5,-375 79.5,-375"/>
<text text-anchor="middle" x="49" y="-353.3" font-family="Helvetica,sans-Serif" font-size="14.00">err_error3</text>
</g>
<!-- err_error5 -->
<g id="node9" class="node">
<title>err_error5</title>
<path fill="white" stroke="black" d="M79.5,-36C79.5,-36 18.5,-36 18.5,-36 12.5,-36 6.5,-30 6.5,-24 6.5,-24 6.5,-12 6.5,-12 6.5,-6 12.5,0 18.5,0 18.5,0 79.5,0 79.5,0 85.5,0 91.5,-6 91.5,-12 91.5,-12 91.5,-24 91.5,-24 91.5,-30 85.5,-36 79.5,-36"/>
<text text-anchor="middle" x="49" y="-14.3" font-family="Helvetica,sans-Serif" font-size="14.00">err_error5</text>
</g>
<!-- err_error5&#45;&gt;vibration -->
<g id="edge13" class="edge">
<title>err_error5&#45;&gt;vibration</title>
<path fill="none" stroke="black" stroke-width="1.2" d="M86.07,-36.03C101.78,-43.89 120.37,-53.19 136.98,-61.49"/>
<polygon fill="black" stroke="black" stroke-width="1.2" points="135.46,-64.65 145.97,-65.99 138.6,-58.38 135.46,-64.65"/>
</g>
<!-- mnt_comp1 -->
<g id="node10" class="node">
<title>mnt_comp1</title>
<path fill="white" stroke="black" d="M86,-429C86,-429 12,-429 12,-429 6,-429 0,-423 0,-417 0,-417 0,-405 0,-405 0,-399 6,-393 12,-393 12,-393 86,-393 86,-393 92,-393 98,-399 98,-405 98,-405 98,-417 98,-417 98,-423 92,-429 86,-429"/>
<text text-anchor="middle" x="49" y="-407.3" font-family="Helvetica,sans-Serif" font-size="14.00">mnt_comp1</text>
</g>
<!-- mnt_comp3 -->
<g id="node12" class="node">
<title>mnt_comp3</title>
<path fill="white" stroke="black" d="M220,-244C220,-244 146,-244 146,-244 140,-244 134,-238 134,-232 134,-232 134,-220 134,-220 134,-214 140,-208 146,-208 146,-208 220,-208 220,-208 226,-208 232,-214 232,-220 232,-220 232,-232 232,-232 232,-238 226,-244 220,-244"/>
<text text-anchor="middle" x="183" y="-222.3" font-family="Helvetica,sans-Serif" font-size="14.00">mnt_comp3</text>
</g>
<!-- mnt_comp3&#45;&gt;volt -->
<g id="edge4" class="edge">
<title>mnt_comp3&#45;&gt;volt</title>
<path fill="none" stroke="black" stroke-width="1.2" d="M232.25,-226C240.76,-226 249.48,-226 257.6,-226"/>
<polygon fill="black" stroke="black" stroke-width="1.2" points="257.85,-229.5 267.85,-226 257.85,-222.5 257.85,-229.5"/>
</g>
<!-- mnt_comp4 -->
<g id="node13" class="node">
<title>mnt_comp4</title>
<path fill="white" stroke="black" d="M86,-483C86,-483 12,-483 12,-483 6,-483 0,-477 0,-471 0,-471 0,-459 0,-459 0,-453 6,-447 12,-447 12,-447 86,-447 86,-447 92,-447 98,-453 98,-459 98,-459 98,-471 98,-471 98,-477 92,-483 86,-483"/>
<text text-anchor="middle" x="49" y="-461.3" font-family="Helvetica,sans-Serif" font-size="14.00">mnt_comp4</text>
</g>
<!-- fail_comp1 -->
<g id="node14" class="node">
<title>fail_comp1</title>
<path fill="white" stroke="black" d="M83,-537C83,-537 15,-537 15,-537 9,-537 3,-531 3,-525 3,-525 3,-513 3,-513 3,-507 9,-501 15,-501 15,-501 83,-501 83,-501 89,-501 95,-507 95,-513 95,-513 95,-525 95,-525 95,-531 89,-537 83,-537"/>
<text text-anchor="middle" x="49" y="-515.3" font-family="Helvetica,sans-Serif" font-size="14.00">fail_comp1</text>
</g>
<!-- fail_comp2 -->
<g id="node15" class="node">
<title>fail_comp2</title>
<path fill="white" stroke="black" d="M83,-321C83,-321 15,-321 15,-321 9,-321 3,-315 3,-309 3,-309 3,-297 3,-297 3,-291 9,-285 15,-285 15,-285 83,-285 83,-285 89,-285 95,-291 95,-297 95,-297 95,-309 95,-309 95,-315 89,-321 83,-321"/>
<text text-anchor="middle" x="49" y="-299.3" font-family="Helvetica,sans-Serif" font-size="14.00">fail_comp2</text>
</g>
<!-- fail_comp2&#45;&gt;volt -->
<g id="edge5" class="edge">
<title>fail_comp2&#45;&gt;volt</title>
<path fill="none" stroke="black" stroke-width="1.2" d="M95.14,-315.13C133.58,-322.94 189.21,-328.13 232,-307 254.55,-295.86 271.16,-272.16 281.48,-253.25"/>
<polygon fill="black" stroke="black" stroke-width="1.2" points="284.69,-254.66 286.17,-244.17 278.47,-251.45 284.69,-254.66"/>
</g>
<!-- fail_comp2&#45;&gt;rotate -->
<g id="edge7" class="edge">
<title>fail_comp2&#45;&gt;rotate</title>
<path fill="none" stroke="black" stroke-width="1.2" d="M95.06,-295.15C111.08,-292.36 128.93,-289.25 144.28,-286.57"/>
<polygon fill="black" stroke="black" stroke-width="1.2" points="145.19,-289.97 154.44,-284.8 143.99,-283.07 145.19,-289.97"/>
</g>
</g>
</svg>
