<?xml version="1.0" encoding="UTF-8" standalone="no"?>
<!DOCTYPE svg PUBLIC "-//W3C//DTD SVG 1.1//EN"
 "http://www.w3.org/Graphics/SVG/1.1/DTD/svg11.dtd">
<!-- Generated by graphviz version 2.50.0 (0)
 -->
<!-- Title: G Pages: 1 -->
<svg width="703pt" height="539pt"
 viewBox="0.00 0.00 703.00 539.00" xmlns="http://www.w3.org/2000/svg" xmlns:xlink="http://www.w3.org/1999/xlink">
<g id="graph0" class="graph" transform="scale(1 1) rotate(0) translate(4 535)">
<title>G</title>
<polygon fill="white" stroke="transparent" points="-4,4 -4,-535 699,-535 699,4 -4,4"/>
<text text-anchor="middle" x="347.5" y="-514.2" font-family="Times,serif" font-size="16.00">model=model1/pcmci_mixed.json [machine 24]</text>
<!-- volt -->
<g id="node1" class="node">
<title>volt</title>
<path fill="white" stroke="black" d="M312.5,-147C312.5,-147 282.5,-147 282.5,-147 276.5,-147 270.5,-141 270.5,-135 270.5,-135 270.5,-123 270.5,-123 270.5,-117 276.5,-111 282.5,-111 282.5,-111 312.5,-111 312.5,-111 318.5,-111 324.5,-117 324.5,-123 324.5,-123 324.5,-135 324.5,-135 324.5,-141 318.5,-147 312.5,-147"/>
<text text-anchor="middle" x="297.5" y="-125.3" font-family="Helvetica,sans-Serif" font-size="14.00">volt</text>
</g>
<!-- pressure -->
<g id="node3" class="node">
<title>pressure</title>
<path fill="white" stroke="black" d="M448.5,-128C448.5,-128 395.5,-128 395.5,-128 389.5,-128 383.5,-122 383.5,-116 383.5,-116 383.5,-104 383.5,-104 383.5,-98 389.5,-92 395.5,-92 395.5,-92 448.5,-92 448.5,-92 454.5,-92 460.5,-98 460.5,-104 460.5,-104 460.5,-116 460.5,-116 460.5,-122 454.5,-128 448.5,-128"/>
<text text-anchor="middle" x="422" y="-106.3" font-family="Helvetica,sans-Serif" font-size="14.00">pressure</text>
</g>
<!-- volt&#45;&gt;pressure -->
<g id="edge2" class="edge">
<title>volt&#45;&gt;pressure</title>
<path fill="none" stroke="black" stroke-width="1.2" d="M324.78,-124.92C338.87,-122.74 356.67,-119.98 373.12,-117.43"/>
<polygon fill="black" stroke="black" stroke-width="1.2" points="373.8,-120.86 383.14,-115.87 372.72,-113.95 373.8,-120.86"/>
</g>
<!-- err_error3 -->
<g id="node7" class="node">
<title>err_error3</title>
<path fill="white" stroke="black" d="M452.5,-36C452.5,-36 391.5,-36 391.5,-36 385.5,-36 379.5,-30 379.5,-24 379.5,-24 379.5,-12 379.5,-12 379.5,-6 385.5,0 391.5,0 391.5,0 452.5,0 452.5,0 458.5,0 464.5,-6 464.5,-12 464.5,-12 464.5,-24 464.5,-24 464.5,-30 458.5,-36 452.5,-36"/>
<text text-anchor="middle" x="422" y="-14.3" font-family="Helvetica,sans-Serif" font-size="14.00">err_error3</text>
</g>
<!-- volt&#45;&gt;err_error3 -->
<g id="edge5" class="edge">
<title>volt&#45;&gt;err_error3</title>
<path fill="none" stroke="black" stroke-width="1.2" d="M314.59,-110.84C329.72,-94.22 353.35,-69.33 376,-50 379.03,-47.41 382.26,-44.82 385.55,-42.3"/>
<polygon fill="black" stroke="black" stroke-width="1.2" points="387.82,-44.97 393.76,-36.2 383.65,-39.35 387.82,-44.97"/>
</g>
<!-- fail_comp1 -->
<g id="node14" class="node">
<title>fail_comp1</title>
<path fill="white" stroke="black" d="M456,-220C456,-220 388,-220 388,-220 382,-220 376,-214 376,-208 376,-208 376,-196 376,-196 376,-190 382,-184 388,-184 388,-184 456,-184 456,-184 462,-184 468,-190 468,-196 468,-196 468,-208 468,-208 468,-214 462,-220 456,-220"/>
<text text-anchor="middle" x="422" y="-198.3" font-family="Helvetica,sans-Serif" font-size="14.00">fail_comp1</text>
</g>
<!-- volt&#45;&gt;fail_comp1 -->
<g id="edge7" class="edge">
<title>volt&#45;&gt;fail_comp1</title>
<path fill="none" stroke="black" stroke-width="1.2" d="M324.78,-144.66C341.33,-154.53 363.01,-167.44 381.6,-178.52"/>
<polygon fill="black" stroke="black" stroke-width="1.2" points="380.06,-181.68 390.44,-183.79 383.64,-175.66 380.06,-181.68"/>
</g>
<!-- rotate -->
<g id="node2" class="node">
<title>rotate</title>
<path fill="white" stroke="black" d="M549,-174C549,-174 516,-174 516,-174 510,-174 504,-168 504,-162 504,-162 504,-150 504,-150 504,-144 510,-138 516,-138 516,-138 549,-138 549,-138 555,-138 561,-144 561,-150 561,-150 561,-162 561,-162 561,-168 555,-174 549,-174"/>
<text text-anchor="middle" x="532.5" y="-152.3" font-family="Helvetica,sans-Serif" font-size="14.00">rotate</text>
</g>
<!-- rotate&#45;&gt;volt -->
<g id="edge1" class="edge">
<title>rotate&#45;&gt;volt</title>
<path fill="none" stroke="black" stroke-width="1.2" d="M503.88,-152.8C461.78,-147.92 381.53,-138.62 334.78,-133.2"/>
<polygon fill="black" stroke="black" stroke-width="1.2" points="335.11,-129.72 324.78,-132.04 334.31,-136.67 335.11,-129.72"/>
</g>
<!-- err_error4 -->
<g id="node8" class="node">
<title>err_error4</title>
<path fill="white" stroke="black" d="M676.5,-164C676.5,-164 615.5,-164 615.5,-164 609.5,-164 603.5,-158 603.5,-152 603.5,-152 603.5,-140 603.5,-140 603.5,-134 609.5,-128 615.5,-128 615.5,-128 676.5,-128 676.5,-128 682.5,-128 688.5,-134 688.5,-140 688.5,-140 688.5,-152 688.5,-152 688.5,-158 682.5,-164 676.5,-164"/>
<text text-anchor="middle" x="646" y="-142.3" font-family="Helvetica,sans-Serif" font-size="14.00">err_error4</text>
</g>
<!-- rotate&#45;&gt;err_error4 -->
<g id="edge11" class="edge">
<title>rotate&#45;&gt;err_error4</title>
<path fill="none" stroke="black" stroke-width="1.2" d="M561.06,-153.53C570.84,-152.65 582.18,-151.63 593.31,-150.64"/>
<polygon fill="black" stroke="black" stroke-width="1.2" points="593.77,-154.11 603.42,-149.73 593.15,-147.14 593.77,-154.11"/>
</g>
<!-- mnt_comp2 -->
<g id="node11" class="node">
<title>mnt_comp2</title>
<path fill="white" stroke="black" d="M683,-101C683,-101 609,-101 609,-101 603,-101 597,-95 597,-89 597,-89 597,-77 597,-77 597,-71 603,-65 609,-65 609,-65 683,-65 683,-65 689,-65 695,-71 695,-77 695,-77 695,-89 695,-89 695,-95 689,-101 683,-101"/>
<text text-anchor="middle" x="646" y="-79.3" font-family="Helvetica,sans-Serif" font-size="14.00">mnt_comp2</text>
</g>
<!-- rotate&#45;&gt;mnt_comp2 -->
<g id="edge12" class="edge">
<title>rotate&#45;&gt;mnt_comp2</title>
<path fill="none" stroke="black" stroke-width="1.2" d="M561.06,-137.96C575.4,-128.57 593.12,-116.97 608.57,-106.85"/>
<polygon fill="black" stroke="black" stroke-width="1.2" points="610.92,-109.5 617.37,-101.09 607.09,-103.64 610.92,-109.5"/>
</g>
<!-- pressure&#45;&gt;rotate -->
<g id="edge8" class="edge">
<title>pressure&#45;&gt;rotate</title>
<path fill="none" stroke="black" stroke-width="1.2" d="M460.64,-125.96C471.63,-130.62 483.61,-135.7 494.55,-140.34"/>
<polygon fill="black" stroke="black" stroke-width="1.2" points="493.27,-143.59 503.84,-144.28 496,-137.15 493.27,-143.59"/>
</g>
<!-- vibration -->
<g id="node4" class="node">
<title>vibration</title>
<path fill="white" stroke="black" d="M203.5,-228C203.5,-228 149.5,-228 149.5,-228 143.5,-228 137.5,-222 137.5,-216 137.5,-216 137.5,-204 137.5,-204 137.5,-198 143.5,-192 149.5,-192 149.5,-192 203.5,-192 203.5,-192 209.5,-192 215.5,-198 215.5,-204 215.5,-204 215.5,-216 215.5,-216 215.5,-222 209.5,-228 203.5,-228"/>
<text text-anchor="middle" x="176.5" y="-206.3" font-family="Helvetica,sans-Serif" font-size="14.00">vibration</text>
</g>
<!-- vibration&#45;&gt;volt -->
<g id="edge3" class="edge">
<title>vibration&#45;&gt;volt</title>
<path fill="none" stroke="black" stroke-width="1.2" d="M204.21,-191.82C221.17,-180.28 243.3,-165.21 261.63,-152.73"/>
<polygon fill="black" stroke="black" stroke-width="1.2" points="264,-155.36 270.29,-146.84 260.06,-149.57 264,-155.36"/>
</g>
<!-- vibration&#45;&gt;rotate -->
<g id="edge9" class="edge">
<title>vibration&#45;&gt;rotate</title>
<path fill="none" stroke="black" stroke-width="1.2" d="M215.78,-223.55C273.39,-241.58 384.52,-267.03 468,-229 488.77,-219.54 505.37,-199.57 516.39,-182.9"/>
<polygon fill="black" stroke="black" stroke-width="1.2" points="519.58,-184.4 521.92,-174.07 513.65,-180.68 519.58,-184.4"/>
</g>
<!-- err_error5 -->
<g id="node9" class="node">
<title>err_error5</title>
<path fill="white" stroke="black" d="M328,-220C328,-220 267,-220 267,-220 261,-220 255,-214 255,-208 255,-208 255,-196 255,-196 255,-190 261,-184 267,-184 267,-184 328,-184 328,-184 334,-184 340,-190 340,-196 340,-196 340,-208 340,-208 340,-214 334,-220 328,-220"/>
<text text-anchor="middle" x="297.5" y="-198.3" font-family="Helvetica,sans-Serif" font-size="14.00">err_error5</text>
</g>
<!-- vibration&#45;&gt;err_error5 -->
<g id="edge15" class="edge">
<title>vibration&#45;&gt;err_error5</title>
<path fill="none" stroke="black" stroke-width="1.2" d="M215.81,-207.42C225.09,-206.8 235.16,-206.12 244.93,-205.47"/>
<polygon fill="black" stroke="black" stroke-width="1.2" points="245.23,-208.95 254.97,-204.79 244.76,-201.97 245.23,-208.95"/>
</g>
<!-- err_error1 -->
<g id="node5" class="node">
<title>err_error1</title>
<path fill="white" stroke="black" d="M207,-147C207,-147 146,-147 146,-147 140,-147 134,-141 134,-135 134,-135 134,-123 134,-123 134,-117 140,-111 146,-111 146,-111 207,-111 207,-111 213,-111 219,-117 219,-123 219,-123 219,-135 219,-135 219,-141 213,-147 207,-147"/>
<text text-anchor="middle" x="176.5" y="-125.3" font-family="Helvetica,sans-Serif" font-size="14.00">err_error1</text>
</g>
<!-- err_error1&#45;&gt;volt -->
<g id="edge4" class="edge">
<title>err_error1&#45;&gt;volt</title>
<path fill="none" stroke="black" stroke-width="1.2" d="M219.12,-129C232.42,-129 247.03,-129 259.95,-129"/>
<polygon fill="black" stroke="black" stroke-width="1.2" points="260.33,-132.5 270.33,-129 260.33,-125.5 260.33,-132.5"/>
</g>
<!-- err_error2 -->
<g id="node6" class="node">
<title>err_error2</title>
<path fill="white" stroke="black" d="M79.5,-289C79.5,-289 18.5,-289 18.5,-289 12.5,-289 6.5,-283 6.5,-277 6.5,-277 6.5,-265 6.5,-265 6.5,-259 12.5,-253 18.5,-253 18.5,-253 79.5,-253 79.5,-253 85.5,-253 91.5,-259 91.5,-265 91.5,-265 91.5,-277 91.5,-277 91.5,-283 85.5,-289 79.5,-289"/>
<text text-anchor="middle" x="49" y="-267.3" font-family="Helvetica,sans-Serif" font-size="14.00">err_error2</text>
</g>
<!-- err_error2&#45;&gt;rotate -->
<g id="edge10" class="edge">
<title>err_error2&#45;&gt;rotate</title>
<path fill="none" stroke="black" stroke-width="1.2" d="M91.64,-280.74C170.85,-296.91 346.2,-321.08 468,-252 494.19,-237.14 511.55,-206.51 521.4,-183.82"/>
<polygon fill="black" stroke="black" stroke-width="1.2" points="524.73,-184.93 525.29,-174.35 518.25,-182.28 524.73,-184.93"/>
</g>
<!-- err_error2&#45;&gt;vibration -->
<g id="edge14" class="edge">
<title>err_error2&#45;&gt;vibration</title>
<path fill="none" stroke="black" stroke-width="1.2" d="M87.31,-252.86C100.35,-246.53 115.14,-239.34 128.84,-232.68"/>
<polygon fill="black" stroke="black" stroke-width="1.2" points="130.65,-235.69 138.11,-228.17 127.59,-229.4 130.65,-235.69"/>
</g>
<!-- err_error4&#45;&gt;pressure -->
<g id="edge13" class="edge">
<title>err_error4&#45;&gt;pressure</title>
<path fill="none" stroke="black" stroke-width="1.2" d="M603.22,-137.01C589.78,-134.26 574.79,-131.34 561,-129 531.11,-123.92 497.4,-119.26 470.78,-115.83"/>
<polygon fill="black" stroke="black" stroke-width="1.2" points="470.95,-112.32 460.58,-114.53 470.06,-119.26 470.95,-112.32"/>
</g>
<!-- mnt_comp1 -->
<g id="node10" class="node">
<title>mnt_comp1</title>
<path fill="white" stroke="black" d="M86,-343C86,-343 12,-343 12,-343 6,-343 0,-337 0,-331 0,-331 0,-319 0,-319 0,-313 6,-307 12,-307 12,-307 86,-307 86,-307 92,-307 98,-313 98,-319 98,-319 98,-331 98,-331 98,-337 92,-343 86,-343"/>
<text text-anchor="middle" x="49" y="-321.3" font-family="Helvetica,sans-Serif" font-size="14.00">mnt_comp1</text>
</g>
<!-- mnt_comp2&#45;&gt;volt -->
<g id="edge6" class="edge">
<title>mnt_comp2&#45;&gt;volt</title>
<path fill="none" stroke="black" stroke-width="1.2" d="M596.85,-75.45C542.22,-68.61 450.99,-62.42 376,-83 359.66,-87.48 343.28,-96.4 329.81,-105.21"/>
<polygon fill="black" stroke="black" stroke-width="1.2" points="327.71,-102.4 321.42,-110.92 331.65,-108.19 327.71,-102.4"/>
</g>
<!-- mnt_comp3 -->
<g id="node12" class="node">
<title>mnt_comp3</title>
<path fill="white" stroke="black" d="M86,-397C86,-397 12,-397 12,-397 6,-397 0,-391 0,-385 0,-385 0,-373 0,-373 0,-367 6,-361 12,-361 12,-361 86,-361 86,-361 92,-361 98,-367 98,-373 98,-373 98,-385 98,-385 98,-391 92,-397 86,-397"/>
<text text-anchor="middle" x="49" y="-375.3" font-family="Helvetica,sans-Serif" font-size="14.00">mnt_comp3</text>
</g>
<!-- mnt_comp4 -->
<g id="node13" class="node">
<title>mnt_comp4</title>
<path fill="white" stroke="black" d="M86,-228C86,-228 12,-228 12,-228 6,-228 0,-222 0,-216 0,-216 0,-204 0,-204 0,-198 6,-192 12,-192 12,-192 86,-192 86,-192 92,-192 98,-198 98,-204 98,-204 98,-216 98,-216 98,-222 92,-228 86,-228"/>
<text text-anchor="middle" x="49" y="-206.3" font-family="Helvetica,sans-Serif" font-size="14.00">mnt_comp4</text>
</g>
<!-- mnt_comp4&#45;&gt;vibration -->
<g id="edge16" class="edge">
<title>mnt_comp4&#45;&gt;vibration</title>
<path fill="none" stroke="black" stroke-width="1.2" d="M98.16,-210C107.71,-210 117.73,-210 127.27,-210"/>
<polygon fill="black" stroke="black" stroke-width="1.2" points="127.4,-213.5 137.4,-210 127.4,-206.5 127.4,-213.5"/>
</g>
<!-- fail_comp3 -->
<g id="node15" class="node">
<title>fail_comp3</title>
<path fill="white" stroke="black" d="M83,-451C83,-451 15,-451 15,-451 9,-451 3,-445 3,-439 3,-439 3,-427 3,-427 3,-421 9,-415 15,-415 15,-415 83,-415 83,-415 89,-415 95,-421 95,-427 95,-427 95,-439 95,-439 95,-445 89,-451 83,-451"/>
<text text-anchor="middle" x="49" y="-429.3" font-family="Helvetica,sans-Serif" font-size="14.00">fail_comp3</text>
</g>
<!-- fail_comp4 -->
<g id="node16" class="node">
<title>fail_comp4</title>
<path fill="white" stroke="black" d="M83,-505C83,-505 15,-505 15,-505 9,-505 3,-499 3,-493 3,-493 3,-481 3,-481 3,-475 9,-469 15,-469 15,-469 83,-469 83,-469 89,-469 95,-475 95,-481 95,-481 95,-493 95,-493 95,-499 89,-505 83,-505"/>
<text text-anchor="middle" x="49" y="-483.3" font-family="Helvetica,sans-Serif" font-size="14.00">fail_comp4</text>
</g>
</g>
</svg>
