<?xml version="1.0" encoding="UTF-8" standalone="no"?>
<!DOCTYPE svg PUBLIC "-//W3C//DTD SVG 1.1//EN"
 "http://www.w3.org/Graphics/SVG/1.1/DTD/svg11.dtd">
<!-- Generated by graphviz version 2.50.0 (0)
 -->
<!-- Title: G Pages: 1 -->
<svg width="402pt" height="772pt"
 viewBox="0.00 0.00 402.00 772.00" xmlns="http://www.w3.org/2000/svg" xmlns:xlink="http://www.w3.org/1999/xlink">
<g id="graph0" class="graph" transform="scale(1 1) rotate(0) translate(4 768)">
<title>G</title>
<polygon fill="white" stroke="transparent" points="-4,4 -4,-768 398,-768 398,4 -4,4"/>
<text text-anchor="middle" x="197" y="-747.2" font-family="Times,serif" font-size="16.00">model=model4/pcmci_mixed.json [aggregate]</text>
<!-- err_error1 -->
<g id="node1" class="node">
<title>err_error1</title>
<path fill="white" stroke="black" d="M136,-36C136,-36 75,-36 75,-36 69,-36 63,-30 63,-24 63,-24 63,-12 63,-12 63,-6 69,0 75,0 75,0 136,0 136,0 142,0 148,-6 148,-12 148,-12 148,-24 148,-24 148,-30 142,-36 136,-36"/>
<text text-anchor="middle" x="105.5" y="-14.3" font-family="Helvetica,sans-Serif" font-size="14.00">err_error1</text>
</g>
<!-- err_error2 -->
<g id="node2" class="node">
<title>err_error2</title>
<path fill="white" stroke="black" d="M136,-90C136,-90 75,-90 75,-90 69,-90 63,-84 63,-78 63,-78 63,-66 63,-66 63,-60 69,-54 75,-54 75,-54 136,-54 136,-54 142,-54 148,-60 148,-66 148,-66 148,-78 148,-78 148,-84 142,-90 136,-90"/>
<text text-anchor="middle" x="105.5" y="-68.3" font-family="Helvetica,sans-Serif" font-size="14.00">err_error2</text>
</g>
<!-- err_error3 -->
<g id="node3" class="node">
<title>err_error3</title>
<path fill="white" stroke="black" d="M136,-198C136,-198 75,-198 75,-198 69,-198 63,-192 63,-186 63,-186 63,-174 63,-174 63,-168 69,-162 75,-162 75,-162 136,-162 136,-162 142,-162 148,-168 148,-174 148,-174 148,-186 148,-186 148,-192 142,-198 136,-198"/>
<text text-anchor="middle" x="105.5" y="-176.3" font-family="Helvetica,sans-Serif" font-size="14.00">err_error3</text>
</g>
<!-- rotate -->
<g id="node14" class="node">
<title>rotate</title>
<path fill="white" stroke="black" d="M235.5,-171C235.5,-171 202.5,-171 202.5,-171 196.5,-171 190.5,-165 190.5,-159 190.5,-159 190.5,-147 190.5,-147 190.5,-141 196.5,-135 202.5,-135 202.5,-135 235.5,-135 235.5,-135 241.5,-135 247.5,-141 247.5,-147 247.5,-147 247.5,-159 247.5,-159 247.5,-165 241.5,-171 235.5,-171"/>
<text text-anchor="middle" x="219" y="-149.3" font-family="Helvetica,sans-Serif" font-size="14.00">rotate</text>
</g>
<!-- err_error3&#45;&gt;rotate -->
<g id="edge1" class="edge">
<title>err_error3&#45;&gt;rotate</title>
<path fill="none" stroke="black" stroke-width="1.2" d="M148.02,-169.95C158.61,-167.38 169.93,-164.64 180.31,-162.13"/>
<polygon fill="black" stroke="black" stroke-width="1.2" points="181.43,-165.46 190.32,-159.7 179.78,-158.65 181.43,-165.46"/>
</g>
<!-- err_error4 -->
<g id="node4" class="node">
<title>err_error4</title>
<path fill="white" stroke="black" d="M136,-252C136,-252 75,-252 75,-252 69,-252 63,-246 63,-240 63,-240 63,-228 63,-228 63,-222 69,-216 75,-216 75,-216 136,-216 136,-216 142,-216 148,-222 148,-228 148,-228 148,-240 148,-240 148,-246 142,-252 136,-252"/>
<text text-anchor="middle" x="105.5" y="-230.3" font-family="Helvetica,sans-Serif" font-size="14.00">err_error4</text>
</g>
<!-- err_error5 -->
<g id="node5" class="node">
<title>err_error5</title>
<path fill="white" stroke="black" d="M136,-306C136,-306 75,-306 75,-306 69,-306 63,-300 63,-294 63,-294 63,-282 63,-282 63,-276 69,-270 75,-270 75,-270 136,-270 136,-270 142,-270 148,-276 148,-282 148,-282 148,-294 148,-294 148,-300 142,-306 136,-306"/>
<text text-anchor="middle" x="105.5" y="-284.3" font-family="Helvetica,sans-Serif" font-size="14.00">err_error5</text>
</g>
<!-- fail_comp1 -->
<g id="node6" class="node">
<title>fail_comp1</title>
<path fill="white" stroke="black" d="M139.5,-360C139.5,-360 71.5,-360 71.5,-360 65.5,-360 59.5,-354 59.5,-348 59.5,-348 59.5,-336 59.5,-336 59.5,-330 65.5,-324 71.5,-324 71.5,-324 139.5,-324 139.5,-324 145.5,-324 151.5,-330 151.5,-336 151.5,-336 151.5,-348 151.5,-348 151.5,-354 145.5,-360 139.5,-360"/>
<text text-anchor="middle" x="105.5" y="-338.3" font-family="Helvetica,sans-Serif" font-size="14.00">fail_comp1</text>
</g>
<!-- fail_comp2 -->
<g id="node7" class="node">
<title>fail_comp2</title>
<path fill="white" stroke="black" d="M139.5,-414C139.5,-414 71.5,-414 71.5,-414 65.5,-414 59.5,-408 59.5,-402 59.5,-402 59.5,-390 59.5,-390 59.5,-384 65.5,-378 71.5,-378 71.5,-378 139.5,-378 139.5,-378 145.5,-378 151.5,-384 151.5,-390 151.5,-390 151.5,-402 151.5,-402 151.5,-408 145.5,-414 139.5,-414"/>
<text text-anchor="middle" x="105.5" y="-392.3" font-family="Helvetica,sans-Serif" font-size="14.00">fail_comp2</text>
</g>
<!-- fail_comp4 -->
<g id="node8" class="node">
<title>fail_comp4</title>
<path fill="white" stroke="black" d="M139.5,-468C139.5,-468 71.5,-468 71.5,-468 65.5,-468 59.5,-462 59.5,-456 59.5,-456 59.5,-444 59.5,-444 59.5,-438 65.5,-432 71.5,-432 71.5,-432 139.5,-432 139.5,-432 145.5,-432 151.5,-438 151.5,-444 151.5,-444 151.5,-456 151.5,-456 151.5,-462 145.5,-468 139.5,-468"/>
<text text-anchor="middle" x="105.5" y="-446.3" font-family="Helvetica,sans-Serif" font-size="14.00">fail_comp4</text>
</g>
<!-- mnt_comp1 -->
<g id="node9" class="node">
<title>mnt_comp1</title>
<path fill="white" stroke="black" d="M142.5,-522C142.5,-522 68.5,-522 68.5,-522 62.5,-522 56.5,-516 56.5,-510 56.5,-510 56.5,-498 56.5,-498 56.5,-492 62.5,-486 68.5,-486 68.5,-486 142.5,-486 142.5,-486 148.5,-486 154.5,-492 154.5,-498 154.5,-498 154.5,-510 154.5,-510 154.5,-516 148.5,-522 142.5,-522"/>
<text text-anchor="middle" x="105.5" y="-500.3" font-family="Helvetica,sans-Serif" font-size="14.00">mnt_comp1</text>
</g>
<!-- mnt_comp2 -->
<g id="node10" class="node">
<title>mnt_comp2</title>
<path fill="white" stroke="black" d="M142.5,-576C142.5,-576 68.5,-576 68.5,-576 62.5,-576 56.5,-570 56.5,-564 56.5,-564 56.5,-552 56.5,-552 56.5,-546 62.5,-540 68.5,-540 68.5,-540 142.5,-540 142.5,-540 148.5,-540 154.5,-546 154.5,-552 154.5,-552 154.5,-564 154.5,-564 154.5,-570 148.5,-576 142.5,-576"/>
<text text-anchor="middle" x="105.5" y="-554.3" font-family="Helvetica,sans-Serif" font-size="14.00">mnt_comp2</text>
</g>
<!-- mnt_comp3 -->
<g id="node11" class="node">
<title>mnt_comp3</title>
<path fill="white" stroke="black" d="M142.5,-630C142.5,-630 68.5,-630 68.5,-630 62.5,-630 56.5,-624 56.5,-618 56.5,-618 56.5,-606 56.5,-606 56.5,-600 62.5,-594 68.5,-594 68.5,-594 142.5,-594 142.5,-594 148.5,-594 154.5,-600 154.5,-606 154.5,-606 154.5,-618 154.5,-618 154.5,-624 148.5,-630 142.5,-630"/>
<text text-anchor="middle" x="105.5" y="-608.3" font-family="Helvetica,sans-Serif" font-size="14.00">mnt_comp3</text>
</g>
<!-- mnt_comp4 -->
<g id="node12" class="node">
<title>mnt_comp4</title>
<path fill="white" stroke="black" d="M142.5,-684C142.5,-684 68.5,-684 68.5,-684 62.5,-684 56.5,-678 56.5,-672 56.5,-672 56.5,-660 56.5,-660 56.5,-654 62.5,-648 68.5,-648 68.5,-648 142.5,-648 142.5,-648 148.5,-648 154.5,-654 154.5,-660 154.5,-660 154.5,-672 154.5,-672 154.5,-678 148.5,-684 142.5,-684"/>
<text text-anchor="middle" x="105.5" y="-662.3" font-family="Helvetica,sans-Serif" font-size="14.00">mnt_comp4</text>
</g>
<!-- pressure -->
<g id="node13" class="node">
<title>pressure</title>
<path fill="white" stroke="black" d="M132,-738C132,-738 79,-738 79,-738 73,-738 67,-732 67,-726 67,-726 67,-714 67,-714 67,-708 73,-702 79,-702 79,-702 132,-702 132,-702 138,-702 144,-708 144,-714 144,-714 144,-726 144,-726 144,-732 138,-738 132,-738"/>
<text text-anchor="middle" x="105.5" y="-716.3" font-family="Helvetica,sans-Serif" font-size="14.00">pressure</text>
</g>
<!-- volt -->
<g id="node16" class="node">
<title>volt</title>
<path fill="white" stroke="black" d="M325.5,-171C325.5,-171 295.5,-171 295.5,-171 289.5,-171 283.5,-165 283.5,-159 283.5,-159 283.5,-147 283.5,-147 283.5,-141 289.5,-135 295.5,-135 295.5,-135 325.5,-135 325.5,-135 331.5,-135 337.5,-141 337.5,-147 337.5,-147 337.5,-159 337.5,-159 337.5,-165 331.5,-171 325.5,-171"/>
<text text-anchor="middle" x="310.5" y="-149.3" font-family="Helvetica,sans-Serif" font-size="14.00">volt</text>
</g>
<!-- rotate&#45;&gt;volt -->
<g id="edge3" class="edge">
<title>rotate&#45;&gt;volt</title>
<path fill="none" stroke="black" stroke-width="1.2" d="M247.83,-153C255.85,-153 264.73,-153 273.19,-153"/>
<polygon fill="black" stroke="black" stroke-width="1.2" points="273.22,-156.5 283.22,-153 273.22,-149.5 273.22,-156.5"/>
</g>
<!-- vibration -->
<g id="node15" class="node">
<title>vibration</title>
<path fill="white" stroke="black" d="M132.5,-144C132.5,-144 78.5,-144 78.5,-144 72.5,-144 66.5,-138 66.5,-132 66.5,-132 66.5,-120 66.5,-120 66.5,-114 72.5,-108 78.5,-108 78.5,-108 132.5,-108 132.5,-108 138.5,-108 144.5,-114 144.5,-120 144.5,-120 144.5,-132 144.5,-132 144.5,-138 138.5,-144 132.5,-144"/>
<text text-anchor="middle" x="105.5" y="-122.3" font-family="Helvetica,sans-Serif" font-size="14.00">vibration</text>
</g>
<!-- vibration&#45;&gt;rotate -->
<g id="edge2" class="edge">
<title>vibration&#45;&gt;rotate</title>
<path fill="none" stroke="black" stroke-width="1.2" d="M144.56,-135.22C156.17,-138.03 168.93,-141.12 180.5,-143.92"/>
<polygon fill="black" stroke="black" stroke-width="1.2" points="179.77,-147.34 190.31,-146.3 181.42,-140.54 179.77,-147.34"/>
</g>
</g>
</svg>
