<?xml version="1.0" encoding="UTF-8" standalone="no"?>
<!DOCTYPE svg PUBLIC "-//W3C//DTD SVG 1.1//EN"
 "http://www.w3.org/Graphics/SVG/1.1/DTD/svg11.dtd">
<!-- Generated by graphviz version 2.50.0 (0)
 -->
<!-- Title: G Pages: 1 -->
<svg width="403pt" height="556pt"
 viewBox="0.00 0.00 403.00 556.00" xmlns="http://www.w3.org/2000/svg" xmlns:xlink="http://www.w3.org/1999/xlink">
<g id="graph0" class="graph" transform="scale(1 1) rotate(0) translate(4 552)">
<title>G</title>
<polygon fill="white" stroke="transparent" points="-4,4 -4,-552 399,-552 399,4 -4,4"/>
<text text-anchor="middle" x="197.5" y="-531.2" font-family="Times,serif" font-size="16.00">model=model3/pcmci_mixed.json [machine 8]</text>
<!-- volt -->
<g id="node1" class="node">
<title>volt</title>
<path fill="white" stroke="black" d="M222.5,-36C222.5,-36 192.5,-36 192.5,-36 186.5,-36 180.5,-30 180.5,-24 180.5,-24 180.5,-12 180.5,-12 180.5,-6 186.5,0 192.5,0 192.5,0 222.5,0 222.5,0 228.5,0 234.5,-6 234.5,-12 234.5,-12 234.5,-24 234.5,-24 234.5,-30 228.5,-36 222.5,-36"/>
<text text-anchor="middle" x="207.5" y="-14.3" font-family="Helvetica,sans-Serif" font-size="14.00">volt</text>
</g>
<!-- rotate -->
<g id="node2" class="node">
<title>rotate</title>
<path fill="white" stroke="black" d="M224,-171C224,-171 191,-171 191,-171 185,-171 179,-165 179,-159 179,-159 179,-147 179,-147 179,-141 185,-135 191,-135 191,-135 224,-135 224,-135 230,-135 236,-141 236,-147 236,-147 236,-159 236,-159 236,-165 230,-171 224,-171"/>
<text text-anchor="middle" x="207.5" y="-149.3" font-family="Helvetica,sans-Serif" font-size="14.00">rotate</text>
</g>
<!-- vibration -->
<g id="node4" class="node">
<title>vibration</title>
<path fill="white" stroke="black" d="M358.5,-198C358.5,-198 304.5,-198 304.5,-198 298.5,-198 292.5,-192 292.5,-186 292.5,-186 292.5,-174 292.5,-174 292.5,-168 298.5,-162 304.5,-162 304.5,-162 358.5,-162 358.5,-162 364.5,-162 370.5,-168 370.5,-174 370.5,-174 370.5,-186 370.5,-186 370.5,-192 364.5,-198 358.5,-198"/>
<text text-anchor="middle" x="331.5" y="-176.3" font-family="Helvetica,sans-Serif" font-size="14.00">vibration</text>
</g>
<!-- rotate&#45;&gt;vibration -->
<g id="edge4" class="edge">
<title>rotate&#45;&gt;vibration</title>
<path fill="none" stroke="black" stroke-width="1.2" d="M236.18,-159.13C249.79,-162.14 266.6,-165.86 282.23,-169.32"/>
<polygon fill="black" stroke="black" stroke-width="1.2" points="281.77,-172.8 292.29,-171.54 283.28,-165.97 281.77,-172.8"/>
</g>
<!-- pressure -->
<g id="node3" class="node">
<title>pressure</title>
<path fill="white" stroke="black" d="M100,-144C100,-144 47,-144 47,-144 41,-144 35,-138 35,-132 35,-132 35,-120 35,-120 35,-114 41,-108 47,-108 47,-108 100,-108 100,-108 106,-108 112,-114 112,-120 112,-120 112,-132 112,-132 112,-138 106,-144 100,-144"/>
<text text-anchor="middle" x="73.5" y="-122.3" font-family="Helvetica,sans-Serif" font-size="14.00">pressure</text>
</g>
<!-- pressure&#45;&gt;rotate -->
<g id="edge3" class="edge">
<title>pressure&#45;&gt;rotate</title>
<path fill="none" stroke="black" stroke-width="1.2" d="M112.33,-133.74C130.03,-137.36 151.06,-141.66 168.76,-145.28"/>
<polygon fill="black" stroke="black" stroke-width="1.2" points="168.24,-148.75 178.74,-147.32 169.64,-141.89 168.24,-148.75"/>
</g>
<!-- mnt_comp2 -->
<g id="node11" class="node">
<title>mnt_comp2</title>
<path fill="white" stroke="black" d="M244.5,-117C244.5,-117 170.5,-117 170.5,-117 164.5,-117 158.5,-111 158.5,-105 158.5,-105 158.5,-93 158.5,-93 158.5,-87 164.5,-81 170.5,-81 170.5,-81 244.5,-81 244.5,-81 250.5,-81 256.5,-87 256.5,-93 256.5,-93 256.5,-105 256.5,-105 256.5,-111 250.5,-117 244.5,-117"/>
<text text-anchor="middle" x="207.5" y="-95.3" font-family="Helvetica,sans-Serif" font-size="14.00">mnt_comp2</text>
</g>
<!-- pressure&#45;&gt;mnt_comp2 -->
<g id="edge5" class="edge">
<title>pressure&#45;&gt;mnt_comp2</title>
<path fill="none" stroke="black" stroke-width="1.2" d="M112.33,-118.26C123.52,-115.97 136.03,-113.41 148.2,-110.92"/>
<polygon fill="black" stroke="black" stroke-width="1.2" points="149.2,-114.29 158.3,-108.86 147.8,-107.43 149.2,-114.29"/>
</g>
<!-- err_error1 -->
<g id="node5" class="node">
<title>err_error1</title>
<path fill="white" stroke="black" d="M104,-198C104,-198 43,-198 43,-198 37,-198 31,-192 31,-186 31,-186 31,-174 31,-174 31,-168 37,-162 43,-162 43,-162 104,-162 104,-162 110,-162 116,-168 116,-174 116,-174 116,-186 116,-186 116,-192 110,-198 104,-198"/>
<text text-anchor="middle" x="73.5" y="-176.3" font-family="Helvetica,sans-Serif" font-size="14.00">err_error1</text>
</g>
<!-- err_error2 -->
<g id="node6" class="node">
<title>err_error2</title>
<path fill="white" stroke="black" d="M104,-90C104,-90 43,-90 43,-90 37,-90 31,-84 31,-78 31,-78 31,-66 31,-66 31,-60 37,-54 43,-54 43,-54 104,-54 104,-54 110,-54 116,-60 116,-66 116,-66 116,-78 116,-78 116,-84 110,-90 104,-90"/>
<text text-anchor="middle" x="73.5" y="-68.3" font-family="Helvetica,sans-Serif" font-size="14.00">err_error2</text>
</g>
<!-- err_error2&#45;&gt;volt -->
<g id="edge1" class="edge">
<title>err_error2&#45;&gt;volt</title>
<path fill="none" stroke="black" stroke-width="1.2" d="M116.27,-54.91C133.82,-47.73 154.03,-39.47 170.86,-32.58"/>
<polygon fill="black" stroke="black" stroke-width="1.2" points="172.41,-35.73 180.34,-28.7 169.76,-29.25 172.41,-35.73"/>
</g>
<!-- err_error3 -->
<g id="node7" class="node">
<title>err_error3</title>
<path fill="white" stroke="black" d="M104,-252C104,-252 43,-252 43,-252 37,-252 31,-246 31,-240 31,-240 31,-228 31,-228 31,-222 37,-216 43,-216 43,-216 104,-216 104,-216 110,-216 116,-222 116,-228 116,-228 116,-240 116,-240 116,-246 110,-252 104,-252"/>
<text text-anchor="middle" x="73.5" y="-230.3" font-family="Helvetica,sans-Serif" font-size="14.00">err_error3</text>
</g>
<!-- err_error4 -->
<g id="node8" class="node">
<title>err_error4</title>
<path fill="white" stroke="black" d="M104,-306C104,-306 43,-306 43,-306 37,-306 31,-300 31,-294 31,-294 31,-282 31,-282 31,-276 37,-270 43,-270 43,-270 104,-270 104,-270 110,-270 116,-276 116,-282 116,-282 116,-294 116,-294 116,-300 110,-306 104,-306"/>
<text text-anchor="middle" x="73.5" y="-284.3" font-family="Helvetica,sans-Serif" font-size="14.00">err_error4</text>
</g>
<!-- err_error5 -->
<g id="node9" class="node">
<title>err_error5</title>
<path fill="white" stroke="black" d="M238,-225C238,-225 177,-225 177,-225 171,-225 165,-219 165,-213 165,-213 165,-201 165,-201 165,-195 171,-189 177,-189 177,-189 238,-189 238,-189 244,-189 250,-195 250,-201 250,-201 250,-213 250,-213 250,-219 244,-225 238,-225"/>
<text text-anchor="middle" x="207.5" y="-203.3" font-family="Helvetica,sans-Serif" font-size="14.00">err_error5</text>
</g>
<!-- err_error5&#45;&gt;vibration -->
<g id="edge6" class="edge">
<title>err_error5&#45;&gt;vibration</title>
<path fill="none" stroke="black" stroke-width="1.2" d="M250.14,-197.78C260.5,-195.49 271.69,-193.02 282.33,-190.66"/>
<polygon fill="black" stroke="black" stroke-width="1.2" points="283.32,-194.03 292.32,-188.45 281.8,-187.19 283.32,-194.03"/>
</g>
<!-- mnt_comp1 -->
<g id="node10" class="node">
<title>mnt_comp1</title>
<path fill="white" stroke="black" d="M110.5,-360C110.5,-360 36.5,-360 36.5,-360 30.5,-360 24.5,-354 24.5,-348 24.5,-348 24.5,-336 24.5,-336 24.5,-330 30.5,-324 36.5,-324 36.5,-324 110.5,-324 110.5,-324 116.5,-324 122.5,-330 122.5,-336 122.5,-336 122.5,-348 122.5,-348 122.5,-354 116.5,-360 110.5,-360"/>
<text text-anchor="middle" x="73.5" y="-338.3" font-family="Helvetica,sans-Serif" font-size="14.00">mnt_comp1</text>
</g>
<!-- mnt_comp3 -->
<g id="node12" class="node">
<title>mnt_comp3</title>
<path fill="white" stroke="black" d="M110.5,-414C110.5,-414 36.5,-414 36.5,-414 30.5,-414 24.5,-408 24.5,-402 24.5,-402 24.5,-390 24.5,-390 24.5,-384 30.5,-378 36.5,-378 36.5,-378 110.5,-378 110.5,-378 116.5,-378 122.5,-384 122.5,-390 122.5,-390 122.5,-402 122.5,-402 122.5,-408 116.5,-414 110.5,-414"/>
<text text-anchor="middle" x="73.5" y="-392.3" font-family="Helvetica,sans-Serif" font-size="14.00">mnt_comp3</text>
</g>
<!-- mnt_comp4 -->
<g id="node13" class="node">
<title>mnt_comp4</title>
<path fill="white" stroke="black" d="M110.5,-468C110.5,-468 36.5,-468 36.5,-468 30.5,-468 24.5,-462 24.5,-456 24.5,-456 24.5,-444 24.5,-444 24.5,-438 30.5,-432 36.5,-432 36.5,-432 110.5,-432 110.5,-432 116.5,-432 122.5,-438 122.5,-444 122.5,-444 122.5,-456 122.5,-456 122.5,-462 116.5,-468 110.5,-468"/>
<text text-anchor="middle" x="73.5" y="-446.3" font-family="Helvetica,sans-Serif" font-size="14.00">mnt_comp4</text>
</g>
<!-- fail_comp2 -->
<g id="node14" class="node">
<title>fail_comp2</title>
<path fill="white" stroke="black" d="M107.5,-36C107.5,-36 39.5,-36 39.5,-36 33.5,-36 27.5,-30 27.5,-24 27.5,-24 27.5,-12 27.5,-12 27.5,-6 33.5,0 39.5,0 39.5,0 107.5,0 107.5,0 113.5,0 119.5,-6 119.5,-12 119.5,-12 119.5,-24 119.5,-24 119.5,-30 113.5,-36 107.5,-36"/>
<text text-anchor="middle" x="73.5" y="-14.3" font-family="Helvetica,sans-Serif" font-size="14.00">fail_comp2</text>
</g>
<!-- fail_comp2&#45;&gt;volt -->
<g id="edge2" class="edge">
<title>fail_comp2&#45;&gt;volt</title>
<path fill="none" stroke="black" stroke-width="1.2" d="M119.56,-18C136.06,-18 154.52,-18 170.17,-18"/>
<polygon fill="black" stroke="black" stroke-width="1.2" points="170.49,-21.5 180.49,-18 170.49,-14.5 170.49,-21.5"/>
</g>
<!-- fail_comp4 -->
<g id="node15" class="node">
<title>fail_comp4</title>
<path fill="white" stroke="black" d="M107.5,-522C107.5,-522 39.5,-522 39.5,-522 33.5,-522 27.5,-516 27.5,-510 27.5,-510 27.5,-498 27.5,-498 27.5,-492 33.5,-486 39.5,-486 39.5,-486 107.5,-486 107.5,-486 113.5,-486 119.5,-492 119.5,-498 119.5,-498 119.5,-510 119.5,-510 119.5,-516 113.5,-522 107.5,-522"/>
<text text-anchor="middle" x="73.5" y="-500.3" font-family="Helvetica,sans-Serif" font-size="14.00">fail_comp4</text>
</g>
</g>
</svg>
