<?xml version="1.0" encoding="UTF-8" standalone="no"?>
<!DOCTYPE svg PUBLIC "-//W3C//DTD SVG 1.1//EN"
 "http://www.w3.org/Graphics/SVG/1.1/DTD/svg11.dtd">
<!-- Generated by graphviz version 2.50.0 (0)
 -->
<!-- Title: G Pages: 1 -->
<svg width="685pt" height="529pt"
 viewBox="0.00 0.00 685.00 529.00" xmlns="http://www.w3.org/2000/svg" xmlns:xlink="http://www.w3.org/1999/xlink">
<g id="graph0" class="graph" transform="scale(1 1) rotate(0) translate(4 525)">
<title>G</title>
<polygon fill="white" stroke="transparent" points="-4,4 -4,-525 681,-525 681,4 -4,4"/>
<text text-anchor="middle" x="338.5" y="-504.2" font-family="Times,serif" font-size="16.00">model=model3/pcmci_mixed.json [machine 19]</text>
<!-- volt -->
<g id="node1" class="node">
<title>volt</title>
<path fill="white" stroke="black" d="M424,-144C424,-144 394,-144 394,-144 388,-144 382,-138 382,-132 382,-132 382,-120 382,-120 382,-114 388,-108 394,-108 394,-108 424,-108 424,-108 430,-108 436,-114 436,-120 436,-120 436,-132 436,-132 436,-138 430,-144 424,-144"/>
<text text-anchor="middle" x="409" y="-122.3" font-family="Helvetica,sans-Serif" font-size="14.00">volt</text>
</g>
<!-- fail_comp1 -->
<g id="node14" class="node">
<title>fail_comp1</title>
<path fill="white" stroke="black" d="M552,-167C552,-167 484,-167 484,-167 478,-167 472,-161 472,-155 472,-155 472,-143 472,-143 472,-137 478,-131 484,-131 484,-131 552,-131 552,-131 558,-131 564,-137 564,-143 564,-143 564,-155 564,-155 564,-161 558,-167 552,-167"/>
<text text-anchor="middle" x="518" y="-145.3" font-family="Helvetica,sans-Serif" font-size="14.00">fail_comp1</text>
</g>
<!-- volt&#45;&gt;fail_comp1 -->
<g id="edge7" class="edge">
<title>volt&#45;&gt;fail_comp1</title>
<path fill="none" stroke="black" stroke-width="1.2" d="M436.18,-131.63C444.08,-133.33 453.07,-135.26 462.12,-137.2"/>
<polygon fill="black" stroke="black" stroke-width="1.2" points="461.4,-140.63 471.91,-139.31 462.87,-133.78 461.4,-140.63"/>
</g>
<!-- rotate -->
<g id="node2" class="node">
<title>rotate</title>
<path fill="white" stroke="black" d="M313.5,-306C313.5,-306 280.5,-306 280.5,-306 274.5,-306 268.5,-300 268.5,-294 268.5,-294 268.5,-282 268.5,-282 268.5,-276 274.5,-270 280.5,-270 280.5,-270 313.5,-270 313.5,-270 319.5,-270 325.5,-276 325.5,-282 325.5,-282 325.5,-294 325.5,-294 325.5,-300 319.5,-306 313.5,-306"/>
<text text-anchor="middle" x="297" y="-284.3" font-family="Helvetica,sans-Serif" font-size="14.00">rotate</text>
</g>
<!-- rotate&#45;&gt;volt -->
<g id="edge1" class="edge">
<title>rotate&#45;&gt;volt</title>
<path fill="none" stroke="black" stroke-width="1.2" d="M325.52,-276.37C332.85,-272.31 340.3,-267.19 346,-261 374.61,-229.95 391.98,-183.41 400.79,-153.88"/>
<polygon fill="black" stroke="black" stroke-width="1.2" points="404.17,-154.78 403.55,-144.2 397.44,-152.86 404.17,-154.78"/>
</g>
<!-- pressure -->
<g id="node3" class="node">
<title>pressure</title>
<path fill="white" stroke="black" d="M665,-144C665,-144 612,-144 612,-144 606,-144 600,-138 600,-132 600,-132 600,-120 600,-120 600,-114 606,-108 612,-108 612,-108 665,-108 665,-108 671,-108 677,-114 677,-120 677,-120 677,-132 677,-132 677,-138 671,-144 665,-144"/>
<text text-anchor="middle" x="638.5" y="-122.3" font-family="Helvetica,sans-Serif" font-size="14.00">pressure</text>
</g>
<!-- pressure&#45;&gt;volt -->
<g id="edge2" class="edge">
<title>pressure&#45;&gt;volt</title>
<path fill="none" stroke="black" stroke-width="1.2" d="M599.75,-123.55C588.27,-122.91 575.62,-122.32 564,-122 523.13,-120.89 512.87,-120.68 472,-122 463.65,-122.27 454.67,-122.74 446.21,-123.27"/>
<polygon fill="black" stroke="black" stroke-width="1.2" points="445.97,-119.78 436.23,-123.93 446.44,-126.76 445.97,-119.78"/>
</g>
<!-- vibration -->
<g id="node4" class="node">
<title>vibration</title>
<path fill="white" stroke="black" d="M200,-279C200,-279 146,-279 146,-279 140,-279 134,-273 134,-267 134,-267 134,-255 134,-255 134,-249 140,-243 146,-243 146,-243 200,-243 200,-243 206,-243 212,-249 212,-255 212,-255 212,-267 212,-267 212,-273 206,-279 200,-279"/>
<text text-anchor="middle" x="173" y="-257.3" font-family="Helvetica,sans-Serif" font-size="14.00">vibration</text>
</g>
<!-- vibration&#45;&gt;rotate -->
<g id="edge8" class="edge">
<title>vibration&#45;&gt;rotate</title>
<path fill="none" stroke="black" stroke-width="1.2" d="M212.27,-269.47C227.03,-272.74 243.86,-276.46 258.55,-279.71"/>
<polygon fill="black" stroke="black" stroke-width="1.2" points="257.8,-283.13 268.32,-281.87 259.31,-276.3 257.8,-283.13"/>
</g>
<!-- err_error2 -->
<g id="node6" class="node">
<title>err_error2</title>
<path fill="white" stroke="black" d="M327.5,-252C327.5,-252 266.5,-252 266.5,-252 260.5,-252 254.5,-246 254.5,-240 254.5,-240 254.5,-228 254.5,-228 254.5,-222 260.5,-216 266.5,-216 266.5,-216 327.5,-216 327.5,-216 333.5,-216 339.5,-222 339.5,-228 339.5,-228 339.5,-240 339.5,-240 339.5,-246 333.5,-252 327.5,-252"/>
<text text-anchor="middle" x="297" y="-230.3" font-family="Helvetica,sans-Serif" font-size="14.00">err_error2</text>
</g>
<!-- vibration&#45;&gt;err_error2 -->
<g id="edge10" class="edge">
<title>vibration&#45;&gt;err_error2</title>
<path fill="none" stroke="black" stroke-width="1.2" d="M212.27,-252.53C222.54,-250.26 233.82,-247.76 244.67,-245.36"/>
<polygon fill="black" stroke="black" stroke-width="1.2" points="245.48,-248.77 254.48,-243.19 243.96,-241.93 245.48,-248.77"/>
</g>
<!-- err_error1 -->
<g id="node5" class="node">
<title>err_error1</title>
<path fill="white" stroke="black" d="M327.5,-198C327.5,-198 266.5,-198 266.5,-198 260.5,-198 254.5,-192 254.5,-186 254.5,-186 254.5,-174 254.5,-174 254.5,-168 260.5,-162 266.5,-162 266.5,-162 327.5,-162 327.5,-162 333.5,-162 339.5,-168 339.5,-174 339.5,-174 339.5,-186 339.5,-186 339.5,-192 333.5,-198 327.5,-198"/>
<text text-anchor="middle" x="297" y="-176.3" font-family="Helvetica,sans-Serif" font-size="14.00">err_error1</text>
</g>
<!-- err_error1&#45;&gt;volt -->
<g id="edge3" class="edge">
<title>err_error1&#45;&gt;volt</title>
<path fill="none" stroke="black" stroke-width="1.2" d="M334.93,-161.87C347.05,-155.92 360.48,-149.33 372.49,-143.43"/>
<polygon fill="black" stroke="black" stroke-width="1.2" points="374.33,-146.43 381.76,-138.88 371.24,-140.15 374.33,-146.43"/>
</g>
<!-- err_error3 -->
<g id="node7" class="node">
<title>err_error3</title>
<path fill="white" stroke="black" d="M327.5,-144C327.5,-144 266.5,-144 266.5,-144 260.5,-144 254.5,-138 254.5,-132 254.5,-132 254.5,-120 254.5,-120 254.5,-114 260.5,-108 266.5,-108 266.5,-108 327.5,-108 327.5,-108 333.5,-108 339.5,-114 339.5,-120 339.5,-120 339.5,-132 339.5,-132 339.5,-138 333.5,-144 327.5,-144"/>
<text text-anchor="middle" x="297" y="-122.3" font-family="Helvetica,sans-Serif" font-size="14.00">err_error3</text>
</g>
<!-- err_error3&#45;&gt;volt -->
<g id="edge4" class="edge">
<title>err_error3&#45;&gt;volt</title>
<path fill="none" stroke="black" stroke-width="1.2" d="M339.59,-126C350.15,-126 361.42,-126 371.7,-126"/>
<polygon fill="black" stroke="black" stroke-width="1.2" points="371.99,-129.5 381.99,-126 371.99,-122.5 371.99,-129.5"/>
</g>
<!-- err_error4 -->
<g id="node8" class="node">
<title>err_error4</title>
<path fill="white" stroke="black" d="M327.5,-90C327.5,-90 266.5,-90 266.5,-90 260.5,-90 254.5,-84 254.5,-78 254.5,-78 254.5,-66 254.5,-66 254.5,-60 260.5,-54 266.5,-54 266.5,-54 327.5,-54 327.5,-54 333.5,-54 339.5,-60 339.5,-66 339.5,-66 339.5,-78 339.5,-78 339.5,-84 333.5,-90 327.5,-90"/>
<text text-anchor="middle" x="297" y="-68.3" font-family="Helvetica,sans-Serif" font-size="14.00">err_error4</text>
</g>
<!-- err_error4&#45;&gt;volt -->
<g id="edge5" class="edge">
<title>err_error4&#45;&gt;volt</title>
<path fill="none" stroke="black" stroke-width="1.2" d="M334.93,-90.13C347.05,-96.08 360.48,-102.67 372.49,-108.57"/>
<polygon fill="black" stroke="black" stroke-width="1.2" points="371.24,-111.85 381.76,-113.12 374.33,-105.57 371.24,-111.85"/>
</g>
<!-- err_error5 -->
<g id="node9" class="node">
<title>err_error5</title>
<path fill="white" stroke="black" d="M79.5,-279C79.5,-279 18.5,-279 18.5,-279 12.5,-279 6.5,-273 6.5,-267 6.5,-267 6.5,-255 6.5,-255 6.5,-249 12.5,-243 18.5,-243 18.5,-243 79.5,-243 79.5,-243 85.5,-243 91.5,-249 91.5,-255 91.5,-255 91.5,-267 91.5,-267 91.5,-273 85.5,-279 79.5,-279"/>
<text text-anchor="middle" x="49" y="-257.3" font-family="Helvetica,sans-Serif" font-size="14.00">err_error5</text>
</g>
<!-- err_error5&#45;&gt;vibration -->
<g id="edge11" class="edge">
<title>err_error5&#45;&gt;vibration</title>
<path fill="none" stroke="black" stroke-width="1.2" d="M91.64,-261C101.89,-261 112.96,-261 123.5,-261"/>
<polygon fill="black" stroke="black" stroke-width="1.2" points="123.82,-264.5 133.82,-261 123.82,-257.5 123.82,-264.5"/>
</g>
<!-- mnt_comp1 -->
<g id="node10" class="node">
<title>mnt_comp1</title>
<path fill="white" stroke="black" d="M86,-333C86,-333 12,-333 12,-333 6,-333 0,-327 0,-321 0,-321 0,-309 0,-309 0,-303 6,-297 12,-297 12,-297 86,-297 86,-297 92,-297 98,-303 98,-309 98,-309 98,-321 98,-321 98,-327 92,-333 86,-333"/>
<text text-anchor="middle" x="49" y="-311.3" font-family="Helvetica,sans-Serif" font-size="14.00">mnt_comp1</text>
</g>
<!-- mnt_comp2 -->
<g id="node11" class="node">
<title>mnt_comp2</title>
<path fill="white" stroke="black" d="M334,-36C334,-36 260,-36 260,-36 254,-36 248,-30 248,-24 248,-24 248,-12 248,-12 248,-6 254,0 260,0 260,0 334,0 334,0 340,0 346,-6 346,-12 346,-12 346,-24 346,-24 346,-30 340,-36 334,-36"/>
<text text-anchor="middle" x="297" y="-14.3" font-family="Helvetica,sans-Serif" font-size="14.00">mnt_comp2</text>
</g>
<!-- mnt_comp2&#45;&gt;volt -->
<g id="edge6" class="edge">
<title>mnt_comp2&#45;&gt;volt</title>
<path fill="none" stroke="black" stroke-width="1.2" d="M334.21,-36.22C338.36,-38.93 342.39,-41.87 346,-45 364.11,-60.72 380.4,-82.47 391.74,-99.47"/>
<polygon fill="black" stroke="black" stroke-width="1.2" points="388.82,-101.4 397.2,-107.88 394.69,-97.58 388.82,-101.4"/>
</g>
<!-- mnt_comp3 -->
<g id="node12" class="node">
<title>mnt_comp3</title>
<path fill="white" stroke="black" d="M86,-387C86,-387 12,-387 12,-387 6,-387 0,-381 0,-375 0,-375 0,-363 0,-363 0,-357 6,-351 12,-351 12,-351 86,-351 86,-351 92,-351 98,-357 98,-363 98,-363 98,-375 98,-375 98,-381 92,-387 86,-387"/>
<text text-anchor="middle" x="49" y="-365.3" font-family="Helvetica,sans-Serif" font-size="14.00">mnt_comp3</text>
</g>
<!-- mnt_comp4 -->
<g id="node13" class="node">
<title>mnt_comp4</title>
<path fill="white" stroke="black" d="M86,-441C86,-441 12,-441 12,-441 6,-441 0,-435 0,-429 0,-429 0,-417 0,-417 0,-411 6,-405 12,-405 12,-405 86,-405 86,-405 92,-405 98,-411 98,-417 98,-417 98,-429 98,-429 98,-435 92,-441 86,-441"/>
<text text-anchor="middle" x="49" y="-419.3" font-family="Helvetica,sans-Serif" font-size="14.00">mnt_comp4</text>
</g>
<!-- fail_comp1&#45;&gt;pressure -->
<g id="edge9" class="edge">
<title>fail_comp1&#45;&gt;pressure</title>
<path fill="none" stroke="black" stroke-width="1.2" d="M564.14,-140.24C572.51,-138.61 581.28,-136.91 589.72,-135.27"/>
<polygon fill="black" stroke="black" stroke-width="1.2" points="590.67,-138.66 599.82,-133.31 589.33,-131.78 590.67,-138.66"/>
</g>
<!-- fail_comp4 -->
<g id="node15" class="node">
<title>fail_comp4</title>
<path fill="white" stroke="black" d="M83,-495C83,-495 15,-495 15,-495 9,-495 3,-489 3,-483 3,-483 3,-471 3,-471 3,-465 9,-459 15,-459 15,-459 83,-459 83,-459 89,-459 95,-465 95,-471 95,-471 95,-483 95,-483 95,-489 89,-495 83,-495"/>
<text text-anchor="middle" x="49" y="-473.3" font-family="Helvetica,sans-Serif" font-size="14.00">fail_comp4</text>
</g>
</g>
</svg>
