<?xml version="1.0" encoding="UTF-8" standalone="no"?>
<!DOCTYPE svg PUBLIC "-//W3C//DTD SVG 1.1//EN"
 "http://www.w3.org/Graphics/SVG/1.1/DTD/svg11.dtd">
<!-- Generated by graphviz version 2.50.0 (0)
 -->
<!-- Title: G Pages: 1 -->
<svg width="712pt" height="391pt"
 viewBox="0.00 0.00 712.00 391.24" xmlns="http://www.w3.org/2000/svg" xmlns:xlink="http://www.w3.org/1999/xlink">
<g id="graph0" class="graph" transform="scale(1 1) rotate(0) translate(4 387.24)">
<title>G</title>
<polygon fill="white" stroke="transparent" points="-4,4 -4,-387.24 708,-387.24 708,4 -4,4"/>
<text text-anchor="middle" x="352" y="-366.44" font-family="Times,serif" font-size="16.00">model=model4/pcmci_mixed.json [machine 60]</text>
<!-- volt -->
<g id="node1" class="node">
<title>volt</title>
<path fill="white" stroke="black" d="M176,-195.24C176,-195.24 146,-195.24 146,-195.24 140,-195.24 134,-189.24 134,-183.24 134,-183.24 134,-171.24 134,-171.24 134,-165.24 140,-159.24 146,-159.24 146,-159.24 176,-159.24 176,-159.24 182,-159.24 188,-165.24 188,-171.24 188,-171.24 188,-183.24 188,-183.24 188,-189.24 182,-195.24 176,-195.24"/>
<text text-anchor="middle" x="161" y="-173.54" font-family="Helvetica,sans-Serif" font-size="14.00">volt</text>
</g>
<!-- pressure -->
<g id="node3" class="node">
<title>pressure</title>
<path fill="white" stroke="black" d="M433.5,-203.24C433.5,-203.24 380.5,-203.24 380.5,-203.24 374.5,-203.24 368.5,-197.24 368.5,-191.24 368.5,-191.24 368.5,-179.24 368.5,-179.24 368.5,-173.24 374.5,-167.24 380.5,-167.24 380.5,-167.24 433.5,-167.24 433.5,-167.24 439.5,-167.24 445.5,-173.24 445.5,-179.24 445.5,-179.24 445.5,-191.24 445.5,-191.24 445.5,-197.24 439.5,-203.24 433.5,-203.24"/>
<text text-anchor="middle" x="407" y="-181.54" font-family="Helvetica,sans-Serif" font-size="14.00">pressure</text>
</g>
<!-- volt&#45;&gt;pressure -->
<g id="edge2" class="edge">
<title>volt&#45;&gt;pressure</title>
<path fill="none" stroke="black" stroke-width="1.2" d="M188.11,-178.1C228.6,-179.43 307.14,-182 358.04,-183.67"/>
<polygon fill="black" stroke="black" stroke-width="1.2" points="358.03,-187.17 368.14,-184 358.26,-180.18 358.03,-187.17"/>
</g>
<!-- err_error3 -->
<g id="node7" class="node">
<title>err_error3</title>
<path fill="white" stroke="black" d="M685.5,-159.24C685.5,-159.24 624.5,-159.24 624.5,-159.24 618.5,-159.24 612.5,-153.24 612.5,-147.24 612.5,-147.24 612.5,-135.24 612.5,-135.24 612.5,-129.24 618.5,-123.24 624.5,-123.24 624.5,-123.24 685.5,-123.24 685.5,-123.24 691.5,-123.24 697.5,-129.24 697.5,-135.24 697.5,-135.24 697.5,-147.24 697.5,-147.24 697.5,-153.24 691.5,-159.24 685.5,-159.24"/>
<text text-anchor="middle" x="655" y="-137.54" font-family="Helvetica,sans-Serif" font-size="14.00">err_error3</text>
</g>
<!-- volt&#45;&gt;err_error3 -->
<g id="edge4" class="edge">
<title>volt&#45;&gt;err_error3</title>
<path fill="none" stroke="black" stroke-width="1.2" d="M188.28,-174.37C225.87,-170.32 297.16,-162.94 358,-158.24 443.45,-151.65 542.96,-146.44 602.1,-143.61"/>
<polygon fill="black" stroke="black" stroke-width="1.2" points="602.48,-147.09 612.3,-143.12 602.14,-140.1 602.48,-147.09"/>
</g>
<!-- mnt_comp1 -->
<g id="node10" class="node">
<title>mnt_comp1</title>
<path fill="white" stroke="black" d="M310,-241.24C310,-241.24 236,-241.24 236,-241.24 230,-241.24 224,-235.24 224,-229.24 224,-229.24 224,-217.24 224,-217.24 224,-211.24 230,-205.24 236,-205.24 236,-205.24 310,-205.24 310,-205.24 316,-205.24 322,-211.24 322,-217.24 322,-217.24 322,-229.24 322,-229.24 322,-235.24 316,-241.24 310,-241.24"/>
<text text-anchor="middle" x="273" y="-219.54" font-family="Helvetica,sans-Serif" font-size="14.00">mnt_comp1</text>
</g>
<!-- volt&#45;&gt;mnt_comp1 -->
<g id="edge5" class="edge">
<title>volt&#45;&gt;mnt_comp1</title>
<path fill="none" stroke="black" stroke-width="1.2" d="M188.07,-188.15C197.5,-192.09 208.53,-196.7 219.42,-201.26"/>
<polygon fill="black" stroke="black" stroke-width="1.2" points="218.34,-204.6 228.92,-205.23 221.04,-198.14 218.34,-204.6"/>
</g>
<!-- rotate -->
<g id="node2" class="node">
<title>rotate</title>
<path fill="white" stroke="black" d="M547.5,-249.24C547.5,-249.24 514.5,-249.24 514.5,-249.24 508.5,-249.24 502.5,-243.24 502.5,-237.24 502.5,-237.24 502.5,-225.24 502.5,-225.24 502.5,-219.24 508.5,-213.24 514.5,-213.24 514.5,-213.24 547.5,-213.24 547.5,-213.24 553.5,-213.24 559.5,-219.24 559.5,-225.24 559.5,-225.24 559.5,-237.24 559.5,-237.24 559.5,-243.24 553.5,-249.24 547.5,-249.24"/>
<text text-anchor="middle" x="531" y="-227.54" font-family="Helvetica,sans-Serif" font-size="14.00">rotate</text>
</g>
<!-- rotate&#45;&gt;volt -->
<g id="edge1" class="edge">
<title>rotate&#45;&gt;volt</title>
<path fill="none" stroke="black" stroke-width="1.2" d="M502.2,-241.39C446.44,-259.99 318.2,-293.83 224,-250.24 203.5,-240.76 187.3,-220.79 176.61,-204.12"/>
<polygon fill="black" stroke="black" stroke-width="1.2" points="179.43,-202.02 171.24,-195.3 173.44,-205.66 179.43,-202.02"/>
</g>
<!-- mnt_comp4 -->
<g id="node13" class="node">
<title>mnt_comp4</title>
<path fill="white" stroke="black" d="M692,-249.24C692,-249.24 618,-249.24 618,-249.24 612,-249.24 606,-243.24 606,-237.24 606,-237.24 606,-225.24 606,-225.24 606,-219.24 612,-213.24 618,-213.24 618,-213.24 692,-213.24 692,-213.24 698,-213.24 704,-219.24 704,-225.24 704,-225.24 704,-237.24 704,-237.24 704,-243.24 698,-249.24 692,-249.24"/>
<text text-anchor="middle" x="655" y="-227.54" font-family="Helvetica,sans-Serif" font-size="14.00">mnt_comp4</text>
</g>
<!-- rotate&#45;&gt;mnt_comp4 -->
<g id="edge9" class="edge">
<title>rotate&#45;&gt;mnt_comp4</title>
<path fill="none" stroke="black" stroke-width="1.2" d="M559.68,-231.24C570.45,-231.24 583.2,-231.24 595.8,-231.24"/>
<polygon fill="black" stroke="black" stroke-width="1.2" points="595.83,-234.74 605.83,-231.24 595.83,-227.74 595.83,-234.74"/>
</g>
<!-- pressure&#45;&gt;rotate -->
<g id="edge7" class="edge">
<title>pressure&#45;&gt;rotate</title>
<path fill="none" stroke="black" stroke-width="1.2" d="M445.6,-199.42C460.65,-205.09 477.93,-211.61 492.93,-217.27"/>
<polygon fill="black" stroke="black" stroke-width="1.2" points="491.81,-220.59 502.4,-220.84 494.28,-214.04 491.81,-220.59"/>
</g>
<!-- vibration -->
<g id="node4" class="node">
<title>vibration</title>
<path fill="white" stroke="black" d="M558,-109.24C558,-109.24 504,-109.24 504,-109.24 498,-109.24 492,-103.24 492,-97.24 492,-97.24 492,-85.24 492,-85.24 492,-79.24 498,-73.24 504,-73.24 504,-73.24 558,-73.24 558,-73.24 564,-73.24 570,-79.24 570,-85.24 570,-85.24 570,-97.24 570,-97.24 570,-103.24 564,-109.24 558,-109.24"/>
<text text-anchor="middle" x="531" y="-87.54" font-family="Helvetica,sans-Serif" font-size="14.00">vibration</text>
</g>
<!-- pressure&#45;&gt;vibration -->
<g id="edge10" class="edge">
<title>pressure&#45;&gt;vibration</title>
<path fill="none" stroke="black" stroke-width="1.2" d="M431.52,-167.12C450.59,-152.43 477.65,-131.58 498.57,-115.46"/>
<polygon fill="black" stroke="black" stroke-width="1.2" points="500.76,-118.19 506.55,-109.31 496.49,-112.64 500.76,-118.19"/>
</g>
<!-- pressure&#45;&gt;err_error3 -->
<g id="edge11" class="edge">
<title>pressure&#45;&gt;err_error3</title>
<path fill="none" stroke="black" stroke-width="1.2" d="M445.63,-178.51C487.51,-171.02 555.45,-158.87 602.3,-150.49"/>
<polygon fill="black" stroke="black" stroke-width="1.2" points="603.03,-153.92 612.26,-148.71 601.8,-147.03 603.03,-153.92"/>
</g>
<!-- vibration&#45;&gt;volt -->
<g id="edge3" class="edge">
<title>vibration&#45;&gt;volt</title>
<path fill="none" stroke="black" stroke-width="1.2" d="M519.38,-73.07C506.97,-53.83 484.45,-24.58 456,-12.24 416.04,5.08 398.92,2.69 358,-12.24 281.54,-40.14 214.24,-112.46 182.08,-151.44"/>
<polygon fill="black" stroke="black" stroke-width="1.2" points="179.34,-149.26 175.76,-159.23 184.78,-153.67 179.34,-149.26"/>
</g>
<!-- err_error1 -->
<g id="node5" class="node">
<title>err_error1</title>
<path fill="white" stroke="black" d="M685.5,-105.24C685.5,-105.24 624.5,-105.24 624.5,-105.24 618.5,-105.24 612.5,-99.24 612.5,-93.24 612.5,-93.24 612.5,-81.24 612.5,-81.24 612.5,-75.24 618.5,-69.24 624.5,-69.24 624.5,-69.24 685.5,-69.24 685.5,-69.24 691.5,-69.24 697.5,-75.24 697.5,-81.24 697.5,-81.24 697.5,-93.24 697.5,-93.24 697.5,-99.24 691.5,-105.24 685.5,-105.24"/>
<text text-anchor="middle" x="655" y="-83.54" font-family="Helvetica,sans-Serif" font-size="14.00">err_error1</text>
</g>
<!-- vibration&#45;&gt;err_error1 -->
<g id="edge13" class="edge">
<title>vibration&#45;&gt;err_error1</title>
<path fill="none" stroke="black" stroke-width="1.2" d="M570.27,-89.99C580.43,-89.66 591.59,-89.29 602.34,-88.94"/>
<polygon fill="black" stroke="black" stroke-width="1.2" points="602.6,-92.43 612.48,-88.61 602.37,-85.44 602.6,-92.43"/>
</g>
<!-- vibration&#45;&gt;err_error3 -->
<g id="edge14" class="edge">
<title>vibration&#45;&gt;err_error3</title>
<path fill="none" stroke="black" stroke-width="1.2" d="M570.27,-106.93C580.64,-111.18 592.05,-115.85 603,-120.34"/>
<polygon fill="black" stroke="black" stroke-width="1.2" points="601.9,-123.68 612.48,-124.23 604.56,-117.2 601.9,-123.68"/>
</g>
<!-- err_error2 -->
<g id="node6" class="node">
<title>err_error2</title>
<path fill="white" stroke="black" d="M79.5,-249.24C79.5,-249.24 18.5,-249.24 18.5,-249.24 12.5,-249.24 6.5,-243.24 6.5,-237.24 6.5,-237.24 6.5,-225.24 6.5,-225.24 6.5,-219.24 12.5,-213.24 18.5,-213.24 18.5,-213.24 79.5,-213.24 79.5,-213.24 85.5,-213.24 91.5,-219.24 91.5,-225.24 91.5,-225.24 91.5,-237.24 91.5,-237.24 91.5,-243.24 85.5,-249.24 79.5,-249.24"/>
<text text-anchor="middle" x="49" y="-227.54" font-family="Helvetica,sans-Serif" font-size="14.00">err_error2</text>
</g>
<!-- err_error4 -->
<g id="node8" class="node">
<title>err_error4</title>
<path fill="white" stroke="black" d="M79.5,-303.24C79.5,-303.24 18.5,-303.24 18.5,-303.24 12.5,-303.24 6.5,-297.24 6.5,-291.24 6.5,-291.24 6.5,-279.24 6.5,-279.24 6.5,-273.24 12.5,-267.24 18.5,-267.24 18.5,-267.24 79.5,-267.24 79.5,-267.24 85.5,-267.24 91.5,-273.24 91.5,-279.24 91.5,-279.24 91.5,-291.24 91.5,-291.24 91.5,-297.24 85.5,-303.24 79.5,-303.24"/>
<text text-anchor="middle" x="49" y="-281.54" font-family="Helvetica,sans-Serif" font-size="14.00">err_error4</text>
</g>
<!-- err_error5 -->
<g id="node9" class="node">
<title>err_error5</title>
<path fill="white" stroke="black" d="M437.5,-111.24C437.5,-111.24 376.5,-111.24 376.5,-111.24 370.5,-111.24 364.5,-105.24 364.5,-99.24 364.5,-99.24 364.5,-87.24 364.5,-87.24 364.5,-81.24 370.5,-75.24 376.5,-75.24 376.5,-75.24 437.5,-75.24 437.5,-75.24 443.5,-75.24 449.5,-81.24 449.5,-87.24 449.5,-87.24 449.5,-99.24 449.5,-99.24 449.5,-105.24 443.5,-111.24 437.5,-111.24"/>
<text text-anchor="middle" x="407" y="-89.54" font-family="Helvetica,sans-Serif" font-size="14.00">err_error5</text>
</g>
<!-- err_error5&#45;&gt;vibration -->
<g id="edge15" class="edge">
<title>err_error5&#45;&gt;vibration</title>
<path fill="none" stroke="black" stroke-width="1.2" d="M449.64,-92.56C459.89,-92.39 470.96,-92.21 481.5,-92.04"/>
<polygon fill="black" stroke="black" stroke-width="1.2" points="481.88,-95.53 491.82,-91.87 481.77,-88.53 481.88,-95.53"/>
</g>
<!-- mnt_comp1&#45;&gt;rotate -->
<g id="edge8" class="edge">
<title>mnt_comp1&#45;&gt;rotate</title>
<path fill="none" stroke="black" stroke-width="1.2" d="M322.15,-224.75C371.36,-226.29 446.79,-228.64 491.97,-230.06"/>
<polygon fill="black" stroke="black" stroke-width="1.2" points="492.12,-233.56 502.22,-230.38 492.34,-226.57 492.12,-233.56"/>
</g>
<!-- mnt_comp1&#45;&gt;pressure -->
<g id="edge12" class="edge">
<title>mnt_comp1&#45;&gt;pressure</title>
<path fill="none" stroke="black" stroke-width="1.2" d="M322.03,-209.42C333.89,-206 346.59,-202.35 358.44,-198.94"/>
<polygon fill="black" stroke="black" stroke-width="1.2" points="359.5,-202.27 368.14,-196.14 357.56,-195.55 359.5,-202.27"/>
</g>
<!-- mnt_comp2 -->
<g id="node11" class="node">
<title>mnt_comp2</title>
<path fill="white" stroke="black" d="M86,-195.24C86,-195.24 12,-195.24 12,-195.24 6,-195.24 0,-189.24 0,-183.24 0,-183.24 0,-171.24 0,-171.24 0,-165.24 6,-159.24 12,-159.24 12,-159.24 86,-159.24 86,-159.24 92,-159.24 98,-165.24 98,-171.24 98,-171.24 98,-183.24 98,-183.24 98,-189.24 92,-195.24 86,-195.24"/>
<text text-anchor="middle" x="49" y="-173.54" font-family="Helvetica,sans-Serif" font-size="14.00">mnt_comp2</text>
</g>
<!-- mnt_comp2&#45;&gt;volt -->
<g id="edge6" class="edge">
<title>mnt_comp2&#45;&gt;volt</title>
<path fill="none" stroke="black" stroke-width="1.2" d="M98.25,-177.24C106.76,-177.24 115.48,-177.24 123.6,-177.24"/>
<polygon fill="black" stroke="black" stroke-width="1.2" points="123.85,-180.74 133.85,-177.24 123.85,-173.74 123.85,-180.74"/>
</g>
<!-- mnt_comp3 -->
<g id="node12" class="node">
<title>mnt_comp3</title>
<path fill="white" stroke="black" d="M444,-57.24C444,-57.24 370,-57.24 370,-57.24 364,-57.24 358,-51.24 358,-45.24 358,-45.24 358,-33.24 358,-33.24 358,-27.24 364,-21.24 370,-21.24 370,-21.24 444,-21.24 444,-21.24 450,-21.24 456,-27.24 456,-33.24 456,-33.24 456,-45.24 456,-45.24 456,-51.24 450,-57.24 444,-57.24"/>
<text text-anchor="middle" x="407" y="-35.54" font-family="Helvetica,sans-Serif" font-size="14.00">mnt_comp3</text>
</g>
<!-- mnt_comp3&#45;&gt;vibration -->
<g id="edge16" class="edge">
<title>mnt_comp3&#45;&gt;vibration</title>
<path fill="none" stroke="black" stroke-width="1.2" d="M450.33,-57.29C460.65,-61.69 471.77,-66.43 482.33,-70.93"/>
<polygon fill="black" stroke="black" stroke-width="1.2" points="481.26,-74.27 491.83,-74.98 484,-67.83 481.26,-74.27"/>
</g>
<!-- fail_comp2 -->
<g id="node14" class="node">
<title>fail_comp2</title>
<path fill="white" stroke="black" d="M83,-357.24C83,-357.24 15,-357.24 15,-357.24 9,-357.24 3,-351.24 3,-345.24 3,-345.24 3,-333.24 3,-333.24 3,-327.24 9,-321.24 15,-321.24 15,-321.24 83,-321.24 83,-321.24 89,-321.24 95,-327.24 95,-333.24 95,-333.24 95,-345.24 95,-345.24 95,-351.24 89,-357.24 83,-357.24"/>
<text text-anchor="middle" x="49" y="-335.54" font-family="Helvetica,sans-Serif" font-size="14.00">fail_comp2</text>
</g>
</g>
</svg>
