<?xml version="1.0" encoding="UTF-8" standalone="no"?>
<!DOCTYPE svg PUBLIC "-//W3C//DTD SVG 1.1//EN"
 "http://www.w3.org/Graphics/SVG/1.1/DTD/svg11.dtd">
<!-- Generated by graphviz version 2.50.0 (0)
 -->
<!-- Title: G Pages: 1 -->
<svg width="726pt" height="486pt"
 viewBox="0.00 0.00 726.00 486.00" xmlns="http://www.w3.org/2000/svg" xmlns:xlink="http://www.w3.org/1999/xlink">
<g id="graph0" class="graph" transform="scale(1 1) rotate(0) translate(4 482)">
<title>G</title>
<polygon fill="white" stroke="transparent" points="-4,4 -4,-482 722,-482 722,4 -4,4"/>
<text text-anchor="middle" x="359" y="-461.2" font-family="Times,serif" font-size="16.00">model=model3/pcmci_mixed.json [machine 55]</text>
<!-- volt -->
<g id="node1" class="node">
<title>volt</title>
<path fill="white" stroke="black" d="M444,-144C444,-144 414,-144 414,-144 408,-144 402,-138 402,-132 402,-132 402,-120 402,-120 402,-114 408,-108 414,-108 414,-108 444,-108 444,-108 450,-108 456,-114 456,-120 456,-120 456,-132 456,-132 456,-138 450,-144 444,-144"/>
<text text-anchor="middle" x="429" y="-122.3" font-family="Helvetica,sans-Serif" font-size="14.00">volt</text>
</g>
<!-- fail_comp1 -->
<g id="node14" class="node">
<title>fail_comp1</title>
<path fill="white" stroke="black" d="M572,-144C572,-144 504,-144 504,-144 498,-144 492,-138 492,-132 492,-132 492,-120 492,-120 492,-114 498,-108 504,-108 504,-108 572,-108 572,-108 578,-108 584,-114 584,-120 584,-120 584,-132 584,-132 584,-138 578,-144 572,-144"/>
<text text-anchor="middle" x="538" y="-122.3" font-family="Helvetica,sans-Serif" font-size="14.00">fail_comp1</text>
</g>
<!-- volt&#45;&gt;fail_comp1 -->
<g id="edge6" class="edge">
<title>volt&#45;&gt;fail_comp1</title>
<path fill="none" stroke="black" stroke-width="1.2" d="M456.18,-126C464,-126 472.88,-126 481.83,-126"/>
<polygon fill="black" stroke="black" stroke-width="1.2" points="481.91,-129.5 491.91,-126 481.91,-122.5 481.91,-129.5"/>
</g>
<!-- rotate -->
<g id="node2" class="node">
<title>rotate</title>
<path fill="white" stroke="black" d="M199.5,-236C199.5,-236 166.5,-236 166.5,-236 160.5,-236 154.5,-230 154.5,-224 154.5,-224 154.5,-212 154.5,-212 154.5,-206 160.5,-200 166.5,-200 166.5,-200 199.5,-200 199.5,-200 205.5,-200 211.5,-206 211.5,-212 211.5,-212 211.5,-224 211.5,-224 211.5,-230 205.5,-236 199.5,-236"/>
<text text-anchor="middle" x="183" y="-214.3" font-family="Helvetica,sans-Serif" font-size="14.00">rotate</text>
</g>
<!-- rotate&#45;&gt;volt -->
<g id="edge1" class="edge">
<title>rotate&#45;&gt;volt</title>
<path fill="none" stroke="black" stroke-width="1.2" d="M211.8,-223.11C249.24,-228.55 316.81,-233.17 366,-207 388.07,-195.26 404.65,-171.84 415.09,-153.19"/>
<polygon fill="black" stroke="black" stroke-width="1.2" points="418.25,-154.7 419.85,-144.23 412.06,-151.42 418.25,-154.7"/>
</g>
<!-- vibration -->
<g id="node4" class="node">
<title>vibration</title>
<path fill="white" stroke="black" d="M344,-290C344,-290 290,-290 290,-290 284,-290 278,-284 278,-278 278,-278 278,-266 278,-266 278,-260 284,-254 290,-254 290,-254 344,-254 344,-254 350,-254 356,-260 356,-266 356,-266 356,-278 356,-278 356,-284 350,-290 344,-290"/>
<text text-anchor="middle" x="317" y="-268.3" font-family="Helvetica,sans-Serif" font-size="14.00">vibration</text>
</g>
<!-- rotate&#45;&gt;vibration -->
<g id="edge8" class="edge">
<title>rotate&#45;&gt;vibration</title>
<path fill="none" stroke="black" stroke-width="1.2" d="M211.67,-229.32C228.1,-236.04 249.37,-244.74 268.42,-252.54"/>
<polygon fill="black" stroke="black" stroke-width="1.2" points="267.27,-255.85 277.85,-256.39 269.92,-249.37 267.27,-255.85"/>
</g>
<!-- fail_comp2 -->
<g id="node15" class="node">
<title>fail_comp2</title>
<path fill="white" stroke="black" d="M351,-198C351,-198 283,-198 283,-198 277,-198 271,-192 271,-186 271,-186 271,-174 271,-174 271,-168 277,-162 283,-162 283,-162 351,-162 351,-162 357,-162 363,-168 363,-174 363,-174 363,-186 363,-186 363,-192 357,-198 351,-198"/>
<text text-anchor="middle" x="317" y="-176.3" font-family="Helvetica,sans-Serif" font-size="14.00">fail_comp2</text>
</g>
<!-- rotate&#45;&gt;fail_comp2 -->
<g id="edge9" class="edge">
<title>rotate&#45;&gt;fail_comp2</title>
<path fill="none" stroke="black" stroke-width="1.2" d="M211.67,-210.03C226.02,-205.9 244.06,-200.71 261.09,-195.81"/>
<polygon fill="black" stroke="black" stroke-width="1.2" points="262.32,-199.1 270.96,-192.97 260.38,-192.37 262.32,-199.1"/>
</g>
<!-- pressure -->
<g id="node3" class="node">
<title>pressure</title>
<path fill="white" stroke="black" d="M75.5,-236C75.5,-236 22.5,-236 22.5,-236 16.5,-236 10.5,-230 10.5,-224 10.5,-224 10.5,-212 10.5,-212 10.5,-206 16.5,-200 22.5,-200 22.5,-200 75.5,-200 75.5,-200 81.5,-200 87.5,-206 87.5,-212 87.5,-212 87.5,-224 87.5,-224 87.5,-230 81.5,-236 75.5,-236"/>
<text text-anchor="middle" x="49" y="-214.3" font-family="Helvetica,sans-Serif" font-size="14.00">pressure</text>
</g>
<!-- pressure&#45;&gt;rotate -->
<g id="edge7" class="edge">
<title>pressure&#45;&gt;rotate</title>
<path fill="none" stroke="black" stroke-width="1.2" d="M87.83,-218C105.36,-218 126.17,-218 143.76,-218"/>
<polygon fill="black" stroke="black" stroke-width="1.2" points="144.24,-221.5 154.24,-218 144.24,-214.5 144.24,-221.5"/>
</g>
<!-- vibration&#45;&gt;volt -->
<g id="edge2" class="edge">
<title>vibration&#45;&gt;volt</title>
<path fill="none" stroke="black" stroke-width="1.2" d="M350.21,-253.71C355.87,-249.64 361.41,-245.03 366,-240 389.38,-214.42 407.04,-178.43 417.42,-153.77"/>
<polygon fill="black" stroke="black" stroke-width="1.2" points="420.76,-154.86 421.3,-144.28 414.28,-152.21 420.76,-154.86"/>
</g>
<!-- err_error1 -->
<g id="node5" class="node">
<title>err_error1</title>
<path fill="white" stroke="black" d="M347.5,-144C347.5,-144 286.5,-144 286.5,-144 280.5,-144 274.5,-138 274.5,-132 274.5,-132 274.5,-120 274.5,-120 274.5,-114 280.5,-108 286.5,-108 286.5,-108 347.5,-108 347.5,-108 353.5,-108 359.5,-114 359.5,-120 359.5,-120 359.5,-132 359.5,-132 359.5,-138 353.5,-144 347.5,-144"/>
<text text-anchor="middle" x="317" y="-122.3" font-family="Helvetica,sans-Serif" font-size="14.00">err_error1</text>
</g>
<!-- err_error1&#45;&gt;volt -->
<g id="edge3" class="edge">
<title>err_error1&#45;&gt;volt</title>
<path fill="none" stroke="black" stroke-width="1.2" d="M359.59,-126C370.15,-126 381.42,-126 391.7,-126"/>
<polygon fill="black" stroke="black" stroke-width="1.2" points="391.99,-129.5 401.99,-126 391.99,-122.5 391.99,-129.5"/>
</g>
<!-- err_error2 -->
<g id="node6" class="node">
<title>err_error2</title>
<path fill="white" stroke="black" d="M79.5,-290C79.5,-290 18.5,-290 18.5,-290 12.5,-290 6.5,-284 6.5,-278 6.5,-278 6.5,-266 6.5,-266 6.5,-260 12.5,-254 18.5,-254 18.5,-254 79.5,-254 79.5,-254 85.5,-254 91.5,-260 91.5,-266 91.5,-266 91.5,-278 91.5,-278 91.5,-284 85.5,-290 79.5,-290"/>
<text text-anchor="middle" x="49" y="-268.3" font-family="Helvetica,sans-Serif" font-size="14.00">err_error2</text>
</g>
<!-- err_error3 -->
<g id="node7" class="node">
<title>err_error3</title>
<path fill="white" stroke="black" d="M79.5,-344C79.5,-344 18.5,-344 18.5,-344 12.5,-344 6.5,-338 6.5,-332 6.5,-332 6.5,-320 6.5,-320 6.5,-314 12.5,-308 18.5,-308 18.5,-308 79.5,-308 79.5,-308 85.5,-308 91.5,-314 91.5,-320 91.5,-320 91.5,-332 91.5,-332 91.5,-338 85.5,-344 79.5,-344"/>
<text text-anchor="middle" x="49" y="-322.3" font-family="Helvetica,sans-Serif" font-size="14.00">err_error3</text>
</g>
<!-- err_error4 -->
<g id="node8" class="node">
<title>err_error4</title>
<path fill="white" stroke="black" d="M347.5,-90C347.5,-90 286.5,-90 286.5,-90 280.5,-90 274.5,-84 274.5,-78 274.5,-78 274.5,-66 274.5,-66 274.5,-60 280.5,-54 286.5,-54 286.5,-54 347.5,-54 347.5,-54 353.5,-54 359.5,-60 359.5,-66 359.5,-66 359.5,-78 359.5,-78 359.5,-84 353.5,-90 347.5,-90"/>
<text text-anchor="middle" x="317" y="-68.3" font-family="Helvetica,sans-Serif" font-size="14.00">err_error4</text>
</g>
<!-- err_error4&#45;&gt;volt -->
<g id="edge4" class="edge">
<title>err_error4&#45;&gt;volt</title>
<path fill="none" stroke="black" stroke-width="1.2" d="M354.93,-90.13C367.05,-96.08 380.48,-102.67 392.49,-108.57"/>
<polygon fill="black" stroke="black" stroke-width="1.2" points="391.24,-111.85 401.76,-113.12 394.33,-105.57 391.24,-111.85"/>
</g>
<!-- err_error5 -->
<g id="node9" class="node">
<title>err_error5</title>
<path fill="white" stroke="black" d="M213.5,-344C213.5,-344 152.5,-344 152.5,-344 146.5,-344 140.5,-338 140.5,-332 140.5,-332 140.5,-320 140.5,-320 140.5,-314 146.5,-308 152.5,-308 152.5,-308 213.5,-308 213.5,-308 219.5,-308 225.5,-314 225.5,-320 225.5,-320 225.5,-332 225.5,-332 225.5,-338 219.5,-344 213.5,-344"/>
<text text-anchor="middle" x="183" y="-322.3" font-family="Helvetica,sans-Serif" font-size="14.00">err_error5</text>
</g>
<!-- err_error5&#45;&gt;vibration -->
<g id="edge10" class="edge">
<title>err_error5&#45;&gt;vibration</title>
<path fill="none" stroke="black" stroke-width="1.2" d="M225.77,-308.91C239.27,-303.39 254.34,-297.22 268.24,-291.54"/>
<polygon fill="black" stroke="black" stroke-width="1.2" points="269.71,-294.72 277.64,-287.69 267.06,-288.24 269.71,-294.72"/>
</g>
<!-- mnt_comp1 -->
<g id="node10" class="node">
<title>mnt_comp1</title>
<path fill="white" stroke="black" d="M706,-144C706,-144 632,-144 632,-144 626,-144 620,-138 620,-132 620,-132 620,-120 620,-120 620,-114 626,-108 632,-108 632,-108 706,-108 706,-108 712,-108 718,-114 718,-120 718,-120 718,-132 718,-132 718,-138 712,-144 706,-144"/>
<text text-anchor="middle" x="669" y="-122.3" font-family="Helvetica,sans-Serif" font-size="14.00">mnt_comp1</text>
</g>
<!-- mnt_comp2 -->
<g id="node11" class="node">
<title>mnt_comp2</title>
<path fill="white" stroke="black" d="M220,-290C220,-290 146,-290 146,-290 140,-290 134,-284 134,-278 134,-278 134,-266 134,-266 134,-260 140,-254 146,-254 146,-254 220,-254 220,-254 226,-254 232,-260 232,-266 232,-266 232,-278 232,-278 232,-284 226,-290 220,-290"/>
<text text-anchor="middle" x="183" y="-268.3" font-family="Helvetica,sans-Serif" font-size="14.00">mnt_comp2</text>
</g>
<!-- mnt_comp2&#45;&gt;vibration -->
<g id="edge11" class="edge">
<title>mnt_comp2&#45;&gt;vibration</title>
<path fill="none" stroke="black" stroke-width="1.2" d="M232.03,-272C243.54,-272 255.84,-272 267.38,-272"/>
<polygon fill="black" stroke="black" stroke-width="1.2" points="267.72,-275.5 277.72,-272 267.72,-268.5 267.72,-275.5"/>
</g>
<!-- mnt_comp3 -->
<g id="node12" class="node">
<title>mnt_comp3</title>
<path fill="white" stroke="black" d="M354,-36C354,-36 280,-36 280,-36 274,-36 268,-30 268,-24 268,-24 268,-12 268,-12 268,-6 274,0 280,0 280,0 354,0 354,0 360,0 366,-6 366,-12 366,-12 366,-24 366,-24 366,-30 360,-36 354,-36"/>
<text text-anchor="middle" x="317" y="-14.3" font-family="Helvetica,sans-Serif" font-size="14.00">mnt_comp3</text>
</g>
<!-- mnt_comp3&#45;&gt;volt -->
<g id="edge5" class="edge">
<title>mnt_comp3&#45;&gt;volt</title>
<path fill="none" stroke="black" stroke-width="1.2" d="M354.21,-36.22C358.36,-38.93 362.39,-41.87 366,-45 384.11,-60.72 400.4,-82.47 411.74,-99.47"/>
<polygon fill="black" stroke="black" stroke-width="1.2" points="408.82,-101.4 417.2,-107.88 414.69,-97.58 408.82,-101.4"/>
</g>
<!-- mnt_comp4 -->
<g id="node13" class="node">
<title>mnt_comp4</title>
<path fill="white" stroke="black" d="M86,-398C86,-398 12,-398 12,-398 6,-398 0,-392 0,-386 0,-386 0,-374 0,-374 0,-368 6,-362 12,-362 12,-362 86,-362 86,-362 92,-362 98,-368 98,-374 98,-374 98,-386 98,-386 98,-392 92,-398 86,-398"/>
<text text-anchor="middle" x="49" y="-376.3" font-family="Helvetica,sans-Serif" font-size="14.00">mnt_comp4</text>
</g>
<!-- fail_comp1&#45;&gt;mnt_comp1 -->
<g id="edge12" class="edge">
<title>fail_comp1&#45;&gt;mnt_comp1</title>
<path fill="none" stroke="black" stroke-width="1.2" d="M584.12,-126C592.28,-126 600.9,-126 609.38,-126"/>
<polygon fill="black" stroke="black" stroke-width="1.2" points="609.62,-129.5 619.62,-126 609.62,-122.5 609.62,-129.5"/>
</g>
<!-- fail_comp4 -->
<g id="node16" class="node">
<title>fail_comp4</title>
<path fill="white" stroke="black" d="M83,-452C83,-452 15,-452 15,-452 9,-452 3,-446 3,-440 3,-440 3,-428 3,-428 3,-422 9,-416 15,-416 15,-416 83,-416 83,-416 89,-416 95,-422 95,-428 95,-428 95,-440 95,-440 95,-446 89,-452 83,-452"/>
<text text-anchor="middle" x="49" y="-430.3" font-family="Helvetica,sans-Serif" font-size="14.00">fail_comp4</text>
</g>
</g>
</svg>
