<?xml version="1.0" encoding="UTF-8" standalone="no"?>
<!DOCTYPE svg PUBLIC "-//W3C//DTD SVG 1.1//EN"
 "http://www.w3.org/Graphics/SVG/1.1/DTD/svg11.dtd">
<!-- Generated by graphviz version 2.50.0 (0)
 -->
<!-- Title: G Pages: 1 -->
<svg width="629pt" height="342pt"
 viewBox="0.00 0.00 629.00 342.00" xmlns="http://www.w3.org/2000/svg" xmlns:xlink="http://www.w3.org/1999/xlink">
<g id="graph0" class="graph" transform="scale(1 1) rotate(0) translate(4 338)">
<title>G</title>
<polygon fill="white" stroke="transparent" points="-4,4 -4,-338 625,-338 625,4 -4,4"/>
<text text-anchor="middle" x="310.5" y="-317.2" font-family="Times,serif" font-size="16.00">model=model3/pcmci_mixed.json [machine 52]</text>
<!-- volt -->
<g id="node1" class="node">
<title>volt</title>
<path fill="white" stroke="black" d="M332,-247C332,-247 302,-247 302,-247 296,-247 290,-241 290,-235 290,-235 290,-223 290,-223 290,-217 296,-211 302,-211 302,-211 332,-211 332,-211 338,-211 344,-217 344,-223 344,-223 344,-235 344,-235 344,-241 338,-247 332,-247"/>
<text text-anchor="middle" x="317" y="-225.3" font-family="Helvetica,sans-Serif" font-size="14.00">volt</text>
</g>
<!-- pressure -->
<g id="node3" class="node">
<title>pressure</title>
<path fill="white" stroke="black" d="M477.5,-111C477.5,-111 424.5,-111 424.5,-111 418.5,-111 412.5,-105 412.5,-99 412.5,-99 412.5,-87 412.5,-87 412.5,-81 418.5,-75 424.5,-75 424.5,-75 477.5,-75 477.5,-75 483.5,-75 489.5,-81 489.5,-87 489.5,-87 489.5,-99 489.5,-99 489.5,-105 483.5,-111 477.5,-111"/>
<text text-anchor="middle" x="451" y="-89.3" font-family="Helvetica,sans-Serif" font-size="14.00">pressure</text>
</g>
<!-- volt&#45;&gt;pressure -->
<g id="edge2" class="edge">
<title>volt&#45;&gt;pressure</title>
<path fill="none" stroke="black" stroke-width="1.2" d="M335.53,-210.94C358.51,-187.27 398.96,-145.59 425.1,-118.65"/>
<polygon fill="black" stroke="black" stroke-width="1.2" points="427.95,-120.75 432.4,-111.13 422.92,-115.87 427.95,-120.75"/>
</g>
<!-- mnt_comp3 -->
<g id="node12" class="node">
<title>mnt_comp3</title>
<path fill="white" stroke="black" d="M488,-308C488,-308 414,-308 414,-308 408,-308 402,-302 402,-296 402,-296 402,-284 402,-284 402,-278 408,-272 414,-272 414,-272 488,-272 488,-272 494,-272 500,-278 500,-284 500,-284 500,-296 500,-296 500,-302 494,-308 488,-308"/>
<text text-anchor="middle" x="451" y="-286.3" font-family="Helvetica,sans-Serif" font-size="14.00">mnt_comp3</text>
</g>
<!-- volt&#45;&gt;mnt_comp3 -->
<g id="edge5" class="edge">
<title>volt&#45;&gt;mnt_comp3</title>
<path fill="none" stroke="black" stroke-width="1.2" d="M344.08,-241.05C360.55,-248.67 382.34,-258.74 401.88,-267.76"/>
<polygon fill="black" stroke="black" stroke-width="1.2" points="400.41,-270.94 410.96,-271.96 403.35,-264.59 400.41,-270.94"/>
</g>
<!-- rotate -->
<g id="node2" class="node">
<title>rotate</title>
<path fill="white" stroke="black" d="M595,-184C595,-184 562,-184 562,-184 556,-184 550,-178 550,-172 550,-172 550,-160 550,-160 550,-154 556,-148 562,-148 562,-148 595,-148 595,-148 601,-148 607,-154 607,-160 607,-160 607,-172 607,-172 607,-178 601,-184 595,-184"/>
<text text-anchor="middle" x="578.5" y="-162.3" font-family="Helvetica,sans-Serif" font-size="14.00">rotate</text>
</g>
<!-- rotate&#45;&gt;volt -->
<g id="edge1" class="edge">
<title>rotate&#45;&gt;volt</title>
<path fill="none" stroke="black" stroke-width="1.2" d="M560.37,-184.23C545.84,-198.31 523.62,-216.74 500,-225 451.73,-241.88 391.78,-239.02 354.19,-234.63"/>
<polygon fill="black" stroke="black" stroke-width="1.2" points="354.57,-231.15 344.21,-233.37 353.69,-238.09 354.57,-231.15"/>
</g>
<!-- pressure&#45;&gt;rotate -->
<g id="edge7" class="edge">
<title>pressure&#45;&gt;rotate</title>
<path fill="none" stroke="black" stroke-width="1.2" d="M483.02,-111.04C500.61,-121.28 522.72,-134.13 541.12,-144.84"/>
<polygon fill="black" stroke="black" stroke-width="1.2" points="539.42,-147.9 549.82,-149.9 542.94,-141.85 539.42,-147.9"/>
</g>
<!-- err_error5 -->
<g id="node9" class="node">
<title>err_error5</title>
<path fill="white" stroke="black" d="M609,-111C609,-111 548,-111 548,-111 542,-111 536,-105 536,-99 536,-99 536,-87 536,-87 536,-81 542,-75 548,-75 548,-75 609,-75 609,-75 615,-75 621,-81 621,-87 621,-87 621,-99 621,-99 621,-105 615,-111 609,-111"/>
<text text-anchor="middle" x="578.5" y="-89.3" font-family="Helvetica,sans-Serif" font-size="14.00">err_error5</text>
</g>
<!-- pressure&#45;&gt;err_error5 -->
<g id="edge12" class="edge">
<title>pressure&#45;&gt;err_error5</title>
<path fill="none" stroke="black" stroke-width="1.2" d="M489.65,-93C501.05,-93 513.76,-93 525.9,-93"/>
<polygon fill="black" stroke="black" stroke-width="1.2" points="525.93,-96.5 535.93,-93 525.93,-89.5 525.93,-96.5"/>
</g>
<!-- vibration -->
<g id="node4" class="node">
<title>vibration</title>
<path fill="white" stroke="black" d="M210,-124C210,-124 156,-124 156,-124 150,-124 144,-118 144,-112 144,-112 144,-100 144,-100 144,-94 150,-88 156,-88 156,-88 210,-88 210,-88 216,-88 222,-94 222,-100 222,-100 222,-112 222,-112 222,-118 216,-124 210,-124"/>
<text text-anchor="middle" x="183" y="-102.3" font-family="Helvetica,sans-Serif" font-size="14.00">vibration</text>
</g>
<!-- vibration&#45;&gt;volt -->
<g id="edge3" class="edge">
<title>vibration&#45;&gt;volt</title>
<path fill="none" stroke="black" stroke-width="1.2" d="M203.48,-124.15C226.09,-145.22 263.54,-180.12 288.97,-203.81"/>
<polygon fill="black" stroke="black" stroke-width="1.2" points="286.74,-206.52 296.44,-210.78 291.51,-201.4 286.74,-206.52"/>
</g>
<!-- vibration&#45;&gt;rotate -->
<g id="edge8" class="edge">
<title>vibration&#45;&gt;rotate</title>
<path fill="none" stroke="black" stroke-width="1.2" d="M222.03,-120.04C236.27,-124.82 252.71,-129.76 268,-133 364.55,-153.44 480.86,-161.51 539.6,-164.46"/>
<polygon fill="black" stroke="black" stroke-width="1.2" points="539.72,-167.97 549.88,-164.95 540.06,-160.98 539.72,-167.97"/>
</g>
<!-- err_error2 -->
<g id="node6" class="node">
<title>err_error2</title>
<path fill="white" stroke="black" d="M347.5,-70C347.5,-70 286.5,-70 286.5,-70 280.5,-70 274.5,-64 274.5,-58 274.5,-58 274.5,-46 274.5,-46 274.5,-40 280.5,-34 286.5,-34 286.5,-34 347.5,-34 347.5,-34 353.5,-34 359.5,-40 359.5,-46 359.5,-46 359.5,-58 359.5,-58 359.5,-64 353.5,-70 347.5,-70"/>
<text text-anchor="middle" x="317" y="-48.3" font-family="Helvetica,sans-Serif" font-size="14.00">err_error2</text>
</g>
<!-- vibration&#45;&gt;err_error2 -->
<g id="edge13" class="edge">
<title>vibration&#45;&gt;err_error2</title>
<path fill="none" stroke="black" stroke-width="1.2" d="M222.18,-90.38C235.42,-84.96 250.49,-78.8 264.61,-73.02"/>
<polygon fill="black" stroke="black" stroke-width="1.2" points="266.28,-76.12 274.21,-69.1 263.63,-69.64 266.28,-76.12"/>
</g>
<!-- mnt_comp4 -->
<g id="node13" class="node">
<title>mnt_comp4</title>
<path fill="white" stroke="black" d="M354,-124C354,-124 280,-124 280,-124 274,-124 268,-118 268,-112 268,-112 268,-100 268,-100 268,-94 274,-88 280,-88 280,-88 354,-88 354,-88 360,-88 366,-94 366,-100 366,-100 366,-112 366,-112 366,-118 360,-124 354,-124"/>
<text text-anchor="middle" x="317" y="-102.3" font-family="Helvetica,sans-Serif" font-size="14.00">mnt_comp4</text>
</g>
<!-- vibration&#45;&gt;mnt_comp4 -->
<g id="edge15" class="edge">
<title>vibration&#45;&gt;mnt_comp4</title>
<path fill="none" stroke="black" stroke-width="1.2" d="M222.18,-106C233.13,-106 245.34,-106 257.23,-106"/>
<polygon fill="black" stroke="black" stroke-width="1.2" points="257.55,-109.5 267.55,-106 257.55,-102.5 257.55,-109.5"/>
</g>
<!-- err_error1 -->
<g id="node5" class="node">
<title>err_error1</title>
<path fill="white" stroke="black" d="M79.5,-221C79.5,-221 18.5,-221 18.5,-221 12.5,-221 6.5,-215 6.5,-209 6.5,-209 6.5,-197 6.5,-197 6.5,-191 12.5,-185 18.5,-185 18.5,-185 79.5,-185 79.5,-185 85.5,-185 91.5,-191 91.5,-197 91.5,-197 91.5,-209 91.5,-209 91.5,-215 85.5,-221 79.5,-221"/>
<text text-anchor="middle" x="49" y="-199.3" font-family="Helvetica,sans-Serif" font-size="14.00">err_error1</text>
</g>
<!-- err_error2&#45;&gt;pressure -->
<g id="edge10" class="edge">
<title>err_error2&#45;&gt;pressure</title>
<path fill="none" stroke="black" stroke-width="1.2" d="M359.77,-64.97C373.26,-69.16 388.32,-73.84 402.21,-78.16"/>
<polygon fill="black" stroke="black" stroke-width="1.2" points="401.5,-81.6 412.09,-81.22 403.57,-74.91 401.5,-81.6"/>
</g>
<!-- err_error3 -->
<g id="node7" class="node">
<title>err_error3</title>
<path fill="white" stroke="black" d="M481.5,-216C481.5,-216 420.5,-216 420.5,-216 414.5,-216 408.5,-210 408.5,-204 408.5,-204 408.5,-192 408.5,-192 408.5,-186 414.5,-180 420.5,-180 420.5,-180 481.5,-180 481.5,-180 487.5,-180 493.5,-186 493.5,-192 493.5,-192 493.5,-204 493.5,-204 493.5,-210 487.5,-216 481.5,-216"/>
<text text-anchor="middle" x="451" y="-194.3" font-family="Helvetica,sans-Serif" font-size="14.00">err_error3</text>
</g>
<!-- err_error3&#45;&gt;rotate -->
<g id="edge9" class="edge">
<title>err_error3&#45;&gt;rotate</title>
<path fill="none" stroke="black" stroke-width="1.2" d="M493.79,-187.34C508.59,-183.57 525.16,-179.35 539.62,-175.66"/>
<polygon fill="black" stroke="black" stroke-width="1.2" points="540.89,-178.95 549.72,-173.08 539.16,-172.16 540.89,-178.95"/>
</g>
<!-- err_error4 -->
<g id="node8" class="node">
<title>err_error4</title>
<path fill="white" stroke="black" d="M79.5,-36C79.5,-36 18.5,-36 18.5,-36 12.5,-36 6.5,-30 6.5,-24 6.5,-24 6.5,-12 6.5,-12 6.5,-6 12.5,0 18.5,0 18.5,0 79.5,0 79.5,0 85.5,0 91.5,-6 91.5,-12 91.5,-12 91.5,-24 91.5,-24 91.5,-30 85.5,-36 79.5,-36"/>
<text text-anchor="middle" x="49" y="-14.3" font-family="Helvetica,sans-Serif" font-size="14.00">err_error4</text>
</g>
<!-- err_error4&#45;&gt;pressure -->
<g id="edge11" class="edge">
<title>err_error4&#45;&gt;pressure</title>
<path fill="none" stroke="black" stroke-width="1.2" d="M91.72,-10.61C153.72,-1.44 272.87,9.13 366,-25 389.77,-33.71 411.82,-52.13 427.35,-67.6"/>
<polygon fill="black" stroke="black" stroke-width="1.2" points="424.96,-70.16 434.44,-74.91 429.99,-65.29 424.96,-70.16"/>
</g>
<!-- err_error4&#45;&gt;vibration -->
<g id="edge14" class="edge">
<title>err_error4&#45;&gt;vibration</title>
<path fill="none" stroke="black" stroke-width="1.2" d="M77.03,-36.02C97.01,-49.34 124.4,-67.6 146.2,-82.13"/>
<polygon fill="black" stroke="black" stroke-width="1.2" points="144.29,-85.07 154.55,-87.7 148.17,-79.24 144.29,-85.07"/>
</g>
<!-- mnt_comp1 -->
<g id="node10" class="node">
<title>mnt_comp1</title>
<path fill="white" stroke="black" d="M86,-275C86,-275 12,-275 12,-275 6,-275 0,-269 0,-263 0,-263 0,-251 0,-251 0,-245 6,-239 12,-239 12,-239 86,-239 86,-239 92,-239 98,-245 98,-251 98,-251 98,-263 98,-263 98,-269 92,-275 86,-275"/>
<text text-anchor="middle" x="49" y="-253.3" font-family="Helvetica,sans-Serif" font-size="14.00">mnt_comp1</text>
</g>
<!-- mnt_comp2 -->
<g id="node11" class="node">
<title>mnt_comp2</title>
<path fill="white" stroke="black" d="M220,-274C220,-274 146,-274 146,-274 140,-274 134,-268 134,-262 134,-262 134,-250 134,-250 134,-244 140,-238 146,-238 146,-238 220,-238 220,-238 226,-238 232,-244 232,-250 232,-250 232,-262 232,-262 232,-268 226,-274 220,-274"/>
<text text-anchor="middle" x="183" y="-252.3" font-family="Helvetica,sans-Serif" font-size="14.00">mnt_comp2</text>
</g>
<!-- mnt_comp2&#45;&gt;volt -->
<g id="edge4" class="edge">
<title>mnt_comp2&#45;&gt;volt</title>
<path fill="none" stroke="black" stroke-width="1.2" d="M232.03,-246.18C247.69,-242.97 264.81,-239.47 279.48,-236.47"/>
<polygon fill="black" stroke="black" stroke-width="1.2" points="280.58,-239.82 289.68,-234.38 279.18,-232.96 280.58,-239.82"/>
</g>
<!-- fail_comp1 -->
<g id="node14" class="node">
<title>fail_comp1</title>
<path fill="white" stroke="black" d="M83,-113C83,-113 15,-113 15,-113 9,-113 3,-107 3,-101 3,-101 3,-89 3,-89 3,-83 9,-77 15,-77 15,-77 83,-77 83,-77 89,-77 95,-83 95,-89 95,-89 95,-101 95,-101 95,-107 89,-113 83,-113"/>
<text text-anchor="middle" x="49" y="-91.3" font-family="Helvetica,sans-Serif" font-size="14.00">fail_comp1</text>
</g>
<!-- fail_comp1&#45;&gt;vibration -->
<g id="edge16" class="edge">
<title>fail_comp1&#45;&gt;vibration</title>
<path fill="none" stroke="black" stroke-width="1.2" d="M95.06,-98.75C107.43,-99.79 120.89,-100.91 133.45,-101.95"/>
<polygon fill="black" stroke="black" stroke-width="1.2" points="133.48,-105.47 143.74,-102.81 134.07,-98.49 133.48,-105.47"/>
</g>
<!-- fail_comp2 -->
<g id="node15" class="node">
<title>fail_comp2</title>
<path fill="white" stroke="black" d="M83,-167C83,-167 15,-167 15,-167 9,-167 3,-161 3,-155 3,-155 3,-143 3,-143 3,-137 9,-131 15,-131 15,-131 83,-131 83,-131 89,-131 95,-137 95,-143 95,-143 95,-155 95,-155 95,-161 89,-167 83,-167"/>
<text text-anchor="middle" x="49" y="-145.3" font-family="Helvetica,sans-Serif" font-size="14.00">fail_comp2</text>
</g>
<!-- fail_comp2&#45;&gt;vibration -->
<g id="edge17" class="edge">
<title>fail_comp2&#45;&gt;vibration</title>
<path fill="none" stroke="black" stroke-width="1.2" d="M95.06,-134.32C107.68,-130.21 121.43,-125.73 134.2,-121.57"/>
<polygon fill="black" stroke="black" stroke-width="1.2" points="135.32,-124.89 143.74,-118.46 133.15,-118.23 135.32,-124.89"/>
</g>
<!-- fail_comp4 -->
<g id="node16" class="node">
<title>fail_comp4</title>
<path fill="white" stroke="black" d="M217,-220C217,-220 149,-220 149,-220 143,-220 137,-214 137,-208 137,-208 137,-196 137,-196 137,-190 143,-184 149,-184 149,-184 217,-184 217,-184 223,-184 229,-190 229,-196 229,-196 229,-208 229,-208 229,-214 223,-220 217,-220"/>
<text text-anchor="middle" x="183" y="-198.3" font-family="Helvetica,sans-Serif" font-size="14.00">fail_comp4</text>
</g>
<!-- fail_comp4&#45;&gt;volt -->
<g id="edge6" class="edge">
<title>fail_comp4&#45;&gt;volt</title>
<path fill="none" stroke="black" stroke-width="1.2" d="M229.06,-211.22C245.72,-214.62 264.37,-218.44 280.12,-221.66"/>
<polygon fill="black" stroke="black" stroke-width="1.2" points="279.49,-225.1 289.99,-223.68 280.89,-218.25 279.49,-225.1"/>
</g>
</g>
</svg>
