<?xml version="1.0" encoding="UTF-8" standalone="no"?>
<!DOCTYPE svg PUBLIC "-//W3C//DTD SVG 1.1//EN"
 "http://www.w3.org/Graphics/SVG/1.1/DTD/svg11.dtd">
<!-- Generated by graphviz version 2.50.0 (0)
 -->
<!-- Title: G Pages: 1 -->
<svg width="689pt" height="448pt"
 viewBox="0.00 0.00 689.00 448.00" xmlns="http://www.w3.org/2000/svg" xmlns:xlink="http://www.w3.org/1999/xlink">
<g id="graph0" class="graph" transform="scale(1 1) rotate(0) translate(4 444)">
<title>G</title>
<polygon fill="white" stroke="transparent" points="-4,4 -4,-444 685,-444 685,4 -4,4"/>
<text text-anchor="middle" x="340.5" y="-423.2" font-family="Times,serif" font-size="16.00">model=model1/pcmci_mixed.json [machine 49]</text>
<!-- volt -->
<g id="node1" class="node">
<title>volt</title>
<path fill="white" stroke="black" d="M305.5,-90C305.5,-90 275.5,-90 275.5,-90 269.5,-90 263.5,-84 263.5,-78 263.5,-78 263.5,-66 263.5,-66 263.5,-60 269.5,-54 275.5,-54 275.5,-54 305.5,-54 305.5,-54 311.5,-54 317.5,-60 317.5,-66 317.5,-66 317.5,-78 317.5,-78 317.5,-84 311.5,-90 305.5,-90"/>
<text text-anchor="middle" x="290.5" y="-68.3" font-family="Helvetica,sans-Serif" font-size="14.00">volt</text>
</g>
<!-- err_error1 -->
<g id="node5" class="node">
<title>err_error1</title>
<path fill="white" stroke="black" d="M448.5,-90C448.5,-90 387.5,-90 387.5,-90 381.5,-90 375.5,-84 375.5,-78 375.5,-78 375.5,-66 375.5,-66 375.5,-60 381.5,-54 387.5,-54 387.5,-54 448.5,-54 448.5,-54 454.5,-54 460.5,-60 460.5,-66 460.5,-66 460.5,-78 460.5,-78 460.5,-84 454.5,-90 448.5,-90"/>
<text text-anchor="middle" x="418" y="-68.3" font-family="Helvetica,sans-Serif" font-size="14.00">err_error1</text>
</g>
<!-- volt&#45;&gt;err_error1 -->
<g id="edge3" class="edge">
<title>volt&#45;&gt;err_error1</title>
<path fill="none" stroke="black" stroke-width="1.2" d="M317.5,-72C331.3,-72 348.75,-72 365.17,-72"/>
<polygon fill="black" stroke="black" stroke-width="1.2" points="365.22,-75.5 375.22,-72 365.22,-68.5 365.22,-75.5"/>
</g>
<!-- rotate -->
<g id="node2" class="node">
<title>rotate</title>
<path fill="white" stroke="black" d="M548,-117C548,-117 515,-117 515,-117 509,-117 503,-111 503,-105 503,-105 503,-93 503,-93 503,-87 509,-81 515,-81 515,-81 548,-81 548,-81 554,-81 560,-87 560,-93 560,-93 560,-105 560,-105 560,-111 554,-117 548,-117"/>
<text text-anchor="middle" x="531.5" y="-95.3" font-family="Helvetica,sans-Serif" font-size="14.00">rotate</text>
</g>
<!-- err_error4 -->
<g id="node8" class="node">
<title>err_error4</title>
<path fill="white" stroke="black" d="M669,-117C669,-117 608,-117 608,-117 602,-117 596,-111 596,-105 596,-105 596,-93 596,-93 596,-87 602,-81 608,-81 608,-81 669,-81 669,-81 675,-81 681,-87 681,-93 681,-93 681,-105 681,-105 681,-111 675,-117 669,-117"/>
<text text-anchor="middle" x="638.5" y="-95.3" font-family="Helvetica,sans-Serif" font-size="14.00">err_error4</text>
</g>
<!-- rotate&#45;&gt;err_error4 -->
<g id="edge5" class="edge">
<title>rotate&#45;&gt;err_error4</title>
<path fill="none" stroke="black" stroke-width="1.2" d="M560.09,-99C567.95,-99 576.78,-99 585.59,-99"/>
<polygon fill="black" stroke="black" stroke-width="1.2" points="585.86,-102.5 595.86,-99 585.86,-95.5 585.86,-102.5"/>
</g>
<!-- pressure -->
<g id="node3" class="node">
<title>pressure</title>
<path fill="white" stroke="black" d="M199.5,-90C199.5,-90 146.5,-90 146.5,-90 140.5,-90 134.5,-84 134.5,-78 134.5,-78 134.5,-66 134.5,-66 134.5,-60 140.5,-54 146.5,-54 146.5,-54 199.5,-54 199.5,-54 205.5,-54 211.5,-60 211.5,-66 211.5,-66 211.5,-78 211.5,-78 211.5,-84 205.5,-90 199.5,-90"/>
<text text-anchor="middle" x="173" y="-68.3" font-family="Helvetica,sans-Serif" font-size="14.00">pressure</text>
</g>
<!-- pressure&#45;&gt;volt -->
<g id="edge1" class="edge">
<title>pressure&#45;&gt;volt</title>
<path fill="none" stroke="black" stroke-width="1.2" d="M211.82,-72C225.11,-72 240,-72 253.17,-72"/>
<polygon fill="black" stroke="black" stroke-width="1.2" points="253.29,-75.5 263.29,-72 253.29,-68.5 253.29,-75.5"/>
</g>
<!-- vibration -->
<g id="node4" class="node">
<title>vibration</title>
<path fill="white" stroke="black" d="M200,-36C200,-36 146,-36 146,-36 140,-36 134,-30 134,-24 134,-24 134,-12 134,-12 134,-6 140,0 146,0 146,0 200,0 200,0 206,0 212,-6 212,-12 212,-12 212,-24 212,-24 212,-30 206,-36 200,-36"/>
<text text-anchor="middle" x="173" y="-14.3" font-family="Helvetica,sans-Serif" font-size="14.00">vibration</text>
</g>
<!-- vibration&#45;&gt;volt -->
<g id="edge2" class="edge">
<title>vibration&#45;&gt;volt</title>
<path fill="none" stroke="black" stroke-width="1.2" d="M212.14,-35.83C225.68,-42.16 240.84,-49.25 254.14,-55.47"/>
<polygon fill="black" stroke="black" stroke-width="1.2" points="252.89,-58.75 263.44,-59.81 255.86,-52.41 252.89,-58.75"/>
</g>
<!-- err_error3 -->
<g id="node7" class="node">
<title>err_error3</title>
<path fill="white" stroke="black" d="M321,-36C321,-36 260,-36 260,-36 254,-36 248,-30 248,-24 248,-24 248,-12 248,-12 248,-6 254,0 260,0 260,0 321,0 321,0 327,0 333,-6 333,-12 333,-12 333,-24 333,-24 333,-30 327,-36 321,-36"/>
<text text-anchor="middle" x="290.5" y="-14.3" font-family="Helvetica,sans-Serif" font-size="14.00">err_error3</text>
</g>
<!-- vibration&#45;&gt;err_error3 -->
<g id="edge8" class="edge">
<title>vibration&#45;&gt;err_error3</title>
<path fill="none" stroke="black" stroke-width="1.2" d="M212.14,-18C220.36,-18 229.18,-18 237.81,-18"/>
<polygon fill="black" stroke="black" stroke-width="1.2" points="237.82,-21.5 247.82,-18 237.82,-14.5 237.82,-21.5"/>
</g>
<!-- err_error1&#45;&gt;rotate -->
<g id="edge4" class="edge">
<title>err_error1&#45;&gt;rotate</title>
<path fill="none" stroke="black" stroke-width="1.2" d="M460.52,-82.05C471.11,-84.62 482.43,-87.36 492.81,-89.87"/>
<polygon fill="black" stroke="black" stroke-width="1.2" points="492.28,-93.35 502.82,-92.3 493.93,-86.54 492.28,-93.35"/>
</g>
<!-- err_error2 -->
<g id="node6" class="node">
<title>err_error2</title>
<path fill="white" stroke="black" d="M79.5,-90C79.5,-90 18.5,-90 18.5,-90 12.5,-90 6.5,-84 6.5,-78 6.5,-78 6.5,-66 6.5,-66 6.5,-60 12.5,-54 18.5,-54 18.5,-54 79.5,-54 79.5,-54 85.5,-54 91.5,-60 91.5,-66 91.5,-66 91.5,-78 91.5,-78 91.5,-84 85.5,-90 79.5,-90"/>
<text text-anchor="middle" x="49" y="-68.3" font-family="Helvetica,sans-Serif" font-size="14.00">err_error2</text>
</g>
<!-- err_error2&#45;&gt;pressure -->
<g id="edge7" class="edge">
<title>err_error2&#45;&gt;pressure</title>
<path fill="none" stroke="black" stroke-width="1.2" d="M91.64,-72C102.11,-72 113.42,-72 124.15,-72"/>
<polygon fill="black" stroke="black" stroke-width="1.2" points="124.23,-75.5 134.23,-72 124.23,-68.5 124.23,-75.5"/>
</g>
<!-- err_error5 -->
<g id="node9" class="node">
<title>err_error5</title>
<path fill="white" stroke="black" d="M79.5,-36C79.5,-36 18.5,-36 18.5,-36 12.5,-36 6.5,-30 6.5,-24 6.5,-24 6.5,-12 6.5,-12 6.5,-6 12.5,0 18.5,0 18.5,0 79.5,0 79.5,0 85.5,0 91.5,-6 91.5,-12 91.5,-12 91.5,-24 91.5,-24 91.5,-30 85.5,-36 79.5,-36"/>
<text text-anchor="middle" x="49" y="-14.3" font-family="Helvetica,sans-Serif" font-size="14.00">err_error5</text>
</g>
<!-- err_error5&#45;&gt;vibration -->
<g id="edge9" class="edge">
<title>err_error5&#45;&gt;vibration</title>
<path fill="none" stroke="black" stroke-width="1.2" d="M91.64,-18C101.89,-18 112.96,-18 123.5,-18"/>
<polygon fill="black" stroke="black" stroke-width="1.2" points="123.82,-21.5 133.82,-18 123.82,-14.5 123.82,-21.5"/>
</g>
<!-- mnt_comp1 -->
<g id="node10" class="node">
<title>mnt_comp1</title>
<path fill="white" stroke="black" d="M86,-144C86,-144 12,-144 12,-144 6,-144 0,-138 0,-132 0,-132 0,-120 0,-120 0,-114 6,-108 12,-108 12,-108 86,-108 86,-108 92,-108 98,-114 98,-120 98,-120 98,-132 98,-132 98,-138 92,-144 86,-144"/>
<text text-anchor="middle" x="49" y="-122.3" font-family="Helvetica,sans-Serif" font-size="14.00">mnt_comp1</text>
</g>
<!-- mnt_comp2 -->
<g id="node11" class="node">
<title>mnt_comp2</title>
<path fill="white" stroke="black" d="M455,-144C455,-144 381,-144 381,-144 375,-144 369,-138 369,-132 369,-132 369,-120 369,-120 369,-114 375,-108 381,-108 381,-108 455,-108 455,-108 461,-108 467,-114 467,-120 467,-120 467,-132 467,-132 467,-138 461,-144 455,-144"/>
<text text-anchor="middle" x="418" y="-122.3" font-family="Helvetica,sans-Serif" font-size="14.00">mnt_comp2</text>
</g>
<!-- mnt_comp2&#45;&gt;rotate -->
<g id="edge6" class="edge">
<title>mnt_comp2&#45;&gt;rotate</title>
<path fill="none" stroke="black" stroke-width="1.2" d="M467.26,-114.31C475.88,-112.23 484.74,-110.08 493,-108.08"/>
<polygon fill="black" stroke="black" stroke-width="1.2" points="493.83,-111.48 502.72,-105.73 492.18,-104.68 493.83,-111.48"/>
</g>
<!-- mnt_comp3 -->
<g id="node12" class="node">
<title>mnt_comp3</title>
<path fill="white" stroke="black" d="M86,-198C86,-198 12,-198 12,-198 6,-198 0,-192 0,-186 0,-186 0,-174 0,-174 0,-168 6,-162 12,-162 12,-162 86,-162 86,-162 92,-162 98,-168 98,-174 98,-174 98,-186 98,-186 98,-192 92,-198 86,-198"/>
<text text-anchor="middle" x="49" y="-176.3" font-family="Helvetica,sans-Serif" font-size="14.00">mnt_comp3</text>
</g>
<!-- mnt_comp4 -->
<g id="node13" class="node">
<title>mnt_comp4</title>
<path fill="white" stroke="black" d="M86,-252C86,-252 12,-252 12,-252 6,-252 0,-246 0,-240 0,-240 0,-228 0,-228 0,-222 6,-216 12,-216 12,-216 86,-216 86,-216 92,-216 98,-222 98,-228 98,-228 98,-240 98,-240 98,-246 92,-252 86,-252"/>
<text text-anchor="middle" x="49" y="-230.3" font-family="Helvetica,sans-Serif" font-size="14.00">mnt_comp4</text>
</g>
<!-- fail_comp2 -->
<g id="node14" class="node">
<title>fail_comp2</title>
<path fill="white" stroke="black" d="M83,-306C83,-306 15,-306 15,-306 9,-306 3,-300 3,-294 3,-294 3,-282 3,-282 3,-276 9,-270 15,-270 15,-270 83,-270 83,-270 89,-270 95,-276 95,-282 95,-282 95,-294 95,-294 95,-300 89,-306 83,-306"/>
<text text-anchor="middle" x="49" y="-284.3" font-family="Helvetica,sans-Serif" font-size="14.00">fail_comp2</text>
</g>
<!-- fail_comp3 -->
<g id="node15" class="node">
<title>fail_comp3</title>
<path fill="white" stroke="black" d="M83,-360C83,-360 15,-360 15,-360 9,-360 3,-354 3,-348 3,-348 3,-336 3,-336 3,-330 9,-324 15,-324 15,-324 83,-324 83,-324 89,-324 95,-330 95,-336 95,-336 95,-348 95,-348 95,-354 89,-360 83,-360"/>
<text text-anchor="middle" x="49" y="-338.3" font-family="Helvetica,sans-Serif" font-size="14.00">fail_comp3</text>
</g>
<!-- fail_comp4 -->
<g id="node16" class="node">
<title>fail_comp4</title>
<path fill="white" stroke="black" d="M83,-414C83,-414 15,-414 15,-414 9,-414 3,-408 3,-402 3,-402 3,-390 3,-390 3,-384 9,-378 15,-378 15,-378 83,-378 83,-378 89,-378 95,-384 95,-390 95,-390 95,-402 95,-402 95,-408 89,-414 83,-414"/>
<text text-anchor="middle" x="49" y="-392.3" font-family="Helvetica,sans-Serif" font-size="14.00">fail_comp4</text>
</g>
</g>
</svg>
