<?xml version="1.0" encoding="UTF-8" standalone="no"?>
<!DOCTYPE svg PUBLIC "-//W3C//DTD SVG 1.1//EN"
 "http://www.w3.org/Graphics/SVG/1.1/DTD/svg11.dtd">
<!-- Generated by graphviz version 2.50.0 (0)
 -->
<!-- Title: G Pages: 1 -->
<svg width="699pt" height="488pt"
 viewBox="0.00 0.00 699.00 488.00" xmlns="http://www.w3.org/2000/svg" xmlns:xlink="http://www.w3.org/1999/xlink">
<g id="graph0" class="graph" transform="scale(1 1) rotate(0) translate(4 484)">
<title>G</title>
<polygon fill="white" stroke="transparent" points="-4,4 -4,-484 695,-484 695,4 -4,4"/>
<text text-anchor="middle" x="345.5" y="-463.2" font-family="Times,serif" font-size="16.00">model=model1/pcmci_mixed.json [machine 58]</text>
<!-- volt -->
<g id="node1" class="node">
<title>volt</title>
<path fill="white" stroke="black" d="M310,-106C310,-106 280,-106 280,-106 274,-106 268,-100 268,-94 268,-94 268,-82 268,-82 268,-76 274,-70 280,-70 280,-70 310,-70 310,-70 316,-70 322,-76 322,-82 322,-82 322,-94 322,-94 322,-100 316,-106 310,-106"/>
<text text-anchor="middle" x="295" y="-84.3" font-family="Helvetica,sans-Serif" font-size="14.00">volt</text>
</g>
<!-- vibration -->
<g id="node4" class="node">
<title>vibration</title>
<path fill="white" stroke="black" d="M545,-104C545,-104 491,-104 491,-104 485,-104 479,-98 479,-92 479,-92 479,-80 479,-80 479,-74 485,-68 491,-68 491,-68 545,-68 545,-68 551,-68 557,-74 557,-80 557,-80 557,-92 557,-92 557,-98 551,-104 545,-104"/>
<text text-anchor="middle" x="518" y="-82.3" font-family="Helvetica,sans-Serif" font-size="14.00">vibration</text>
</g>
<!-- volt&#45;&gt;vibration -->
<g id="edge2" class="edge">
<title>volt&#45;&gt;vibration</title>
<path fill="none" stroke="black" stroke-width="1.2" d="M322.17,-101.14C332.98,-105.88 345.81,-110.63 358,-113 395.09,-120.2 405.8,-119.57 443,-113 451.71,-111.46 460.74,-108.98 469.37,-106.12"/>
<polygon fill="black" stroke="black" stroke-width="1.2" points="470.64,-109.39 478.91,-102.77 468.32,-102.78 470.64,-109.39"/>
</g>
<!-- err_error5 -->
<g id="node9" class="node">
<title>err_error5</title>
<path fill="white" stroke="black" d="M431,-104C431,-104 370,-104 370,-104 364,-104 358,-98 358,-92 358,-92 358,-80 358,-80 358,-74 364,-68 370,-68 370,-68 431,-68 431,-68 437,-68 443,-74 443,-80 443,-80 443,-92 443,-92 443,-98 437,-104 431,-104"/>
<text text-anchor="middle" x="400.5" y="-82.3" font-family="Helvetica,sans-Serif" font-size="14.00">err_error5</text>
</g>
<!-- volt&#45;&gt;err_error5 -->
<g id="edge3" class="edge">
<title>volt&#45;&gt;err_error5</title>
<path fill="none" stroke="black" stroke-width="1.2" d="M322.12,-87.5C329.87,-87.35 338.64,-87.18 347.42,-87.01"/>
<polygon fill="black" stroke="black" stroke-width="1.2" points="347.75,-90.5 357.68,-86.81 347.62,-83.5 347.75,-90.5"/>
</g>
<!-- rotate -->
<g id="node2" class="node">
<title>rotate</title>
<path fill="white" stroke="black" d="M199.5,-113C199.5,-113 166.5,-113 166.5,-113 160.5,-113 154.5,-107 154.5,-101 154.5,-101 154.5,-89 154.5,-89 154.5,-83 160.5,-77 166.5,-77 166.5,-77 199.5,-77 199.5,-77 205.5,-77 211.5,-83 211.5,-89 211.5,-89 211.5,-101 211.5,-101 211.5,-107 205.5,-113 199.5,-113"/>
<text text-anchor="middle" x="183" y="-91.3" font-family="Helvetica,sans-Serif" font-size="14.00">rotate</text>
</g>
<!-- rotate&#45;&gt;volt -->
<g id="edge1" class="edge">
<title>rotate&#45;&gt;volt</title>
<path fill="none" stroke="black" stroke-width="1.2" d="M211.76,-93.23C225.59,-92.35 242.49,-91.28 257.36,-90.33"/>
<polygon fill="black" stroke="black" stroke-width="1.2" points="258.01,-93.8 267.77,-89.67 257.56,-86.81 258.01,-93.8"/>
</g>
<!-- pressure -->
<g id="node3" class="node">
<title>pressure</title>
<path fill="white" stroke="black" d="M668.5,-50C668.5,-50 615.5,-50 615.5,-50 609.5,-50 603.5,-44 603.5,-38 603.5,-38 603.5,-26 603.5,-26 603.5,-20 609.5,-14 615.5,-14 615.5,-14 668.5,-14 668.5,-14 674.5,-14 680.5,-20 680.5,-26 680.5,-26 680.5,-38 680.5,-38 680.5,-44 674.5,-50 668.5,-50"/>
<text text-anchor="middle" x="642" y="-28.3" font-family="Helvetica,sans-Serif" font-size="14.00">pressure</text>
</g>
<!-- vibration&#45;&gt;pressure -->
<g id="edge8" class="edge">
<title>vibration&#45;&gt;pressure</title>
<path fill="none" stroke="black" stroke-width="1.2" d="M557.27,-69.06C568.85,-63.94 581.7,-58.25 593.79,-52.9"/>
<polygon fill="black" stroke="black" stroke-width="1.2" points="595.56,-55.94 603.29,-48.69 592.73,-49.54 595.56,-55.94"/>
</g>
<!-- mnt_comp2 -->
<g id="node11" class="node">
<title>mnt_comp2</title>
<path fill="white" stroke="black" d="M679,-104C679,-104 605,-104 605,-104 599,-104 593,-98 593,-92 593,-92 593,-80 593,-80 593,-74 599,-68 605,-68 605,-68 679,-68 679,-68 685,-68 691,-74 691,-80 691,-80 691,-92 691,-92 691,-98 685,-104 679,-104"/>
<text text-anchor="middle" x="642" y="-82.3" font-family="Helvetica,sans-Serif" font-size="14.00">mnt_comp2</text>
</g>
<!-- vibration&#45;&gt;mnt_comp2 -->
<g id="edge14" class="edge">
<title>vibration&#45;&gt;mnt_comp2</title>
<path fill="none" stroke="black" stroke-width="1.2" d="M557.27,-86C565.4,-86 574.17,-86 582.86,-86"/>
<polygon fill="black" stroke="black" stroke-width="1.2" points="582.98,-89.5 592.98,-86 582.98,-82.5 582.98,-89.5"/>
</g>
<!-- err_error1 -->
<g id="node5" class="node">
<title>err_error1</title>
<path fill="white" stroke="black" d="M79.5,-184C79.5,-184 18.5,-184 18.5,-184 12.5,-184 6.5,-178 6.5,-172 6.5,-172 6.5,-160 6.5,-160 6.5,-154 12.5,-148 18.5,-148 18.5,-148 79.5,-148 79.5,-148 85.5,-148 91.5,-154 91.5,-160 91.5,-160 91.5,-172 91.5,-172 91.5,-178 85.5,-184 79.5,-184"/>
<text text-anchor="middle" x="49" y="-162.3" font-family="Helvetica,sans-Serif" font-size="14.00">err_error1</text>
</g>
<!-- err_error1&#45;&gt;rotate -->
<g id="edge5" class="edge">
<title>err_error1&#45;&gt;rotate</title>
<path fill="none" stroke="black" stroke-width="1.2" d="M83.65,-147.9C102.51,-137.76 126.05,-125.09 145.37,-114.7"/>
<polygon fill="black" stroke="black" stroke-width="1.2" points="147.05,-117.77 154.2,-109.95 143.73,-111.61 147.05,-117.77"/>
</g>
<!-- err_error1&#45;&gt;vibration -->
<g id="edge11" class="edge">
<title>err_error1&#45;&gt;vibration</title>
<path fill="none" stroke="black" stroke-width="1.2" d="M91.61,-167.85C164.64,-169.85 319.82,-168.48 443,-129 457.12,-124.48 471.47,-116.95 483.74,-109.44"/>
<polygon fill="black" stroke="black" stroke-width="1.2" points="485.7,-112.34 492.26,-104.02 481.94,-106.43 485.7,-112.34"/>
</g>
<!-- err_error2 -->
<g id="node6" class="node">
<title>err_error2</title>
<path fill="white" stroke="black" d="M79.5,-238C79.5,-238 18.5,-238 18.5,-238 12.5,-238 6.5,-232 6.5,-226 6.5,-226 6.5,-214 6.5,-214 6.5,-208 12.5,-202 18.5,-202 18.5,-202 79.5,-202 79.5,-202 85.5,-202 91.5,-208 91.5,-214 91.5,-214 91.5,-226 91.5,-226 91.5,-232 85.5,-238 79.5,-238"/>
<text text-anchor="middle" x="49" y="-216.3" font-family="Helvetica,sans-Serif" font-size="14.00">err_error2</text>
</g>
<!-- err_error3 -->
<g id="node7" class="node">
<title>err_error3</title>
<path fill="white" stroke="black" d="M431,-50C431,-50 370,-50 370,-50 364,-50 358,-44 358,-38 358,-38 358,-26 358,-26 358,-20 364,-14 370,-14 370,-14 431,-14 431,-14 437,-14 443,-20 443,-26 443,-26 443,-38 443,-38 443,-44 437,-50 431,-50"/>
<text text-anchor="middle" x="400.5" y="-28.3" font-family="Helvetica,sans-Serif" font-size="14.00">err_error3</text>
</g>
<!-- err_error3&#45;&gt;pressure -->
<g id="edge9" class="edge">
<title>err_error3&#45;&gt;pressure</title>
<path fill="none" stroke="black" stroke-width="1.2" d="M443.22,-32C485.03,-32 549.32,-32 593.18,-32"/>
<polygon fill="black" stroke="black" stroke-width="1.2" points="593.31,-35.5 603.31,-32 593.31,-28.5 593.31,-35.5"/>
</g>
<!-- err_error3&#45;&gt;vibration -->
<g id="edge12" class="edge">
<title>err_error3&#45;&gt;vibration</title>
<path fill="none" stroke="black" stroke-width="1.2" d="M440.28,-50.13C449.72,-54.54 459.91,-59.31 469.7,-63.88"/>
<polygon fill="black" stroke="black" stroke-width="1.2" points="468.37,-67.13 478.91,-68.19 471.33,-60.79 468.37,-67.13"/>
</g>
<!-- err_error4 -->
<g id="node8" class="node">
<title>err_error4</title>
<path fill="white" stroke="black" d="M79.5,-292C79.5,-292 18.5,-292 18.5,-292 12.5,-292 6.5,-286 6.5,-280 6.5,-280 6.5,-268 6.5,-268 6.5,-262 12.5,-256 18.5,-256 18.5,-256 79.5,-256 79.5,-256 85.5,-256 91.5,-262 91.5,-268 91.5,-268 91.5,-280 91.5,-280 91.5,-286 85.5,-292 79.5,-292"/>
<text text-anchor="middle" x="49" y="-270.3" font-family="Helvetica,sans-Serif" font-size="14.00">err_error4</text>
</g>
<!-- err_error5&#45;&gt;vibration -->
<g id="edge13" class="edge">
<title>err_error5&#45;&gt;vibration</title>
<path fill="none" stroke="black" stroke-width="1.2" d="M443.2,-86C451.47,-86 460.21,-86 468.68,-86"/>
<polygon fill="black" stroke="black" stroke-width="1.2" points="468.82,-89.5 478.82,-86 468.82,-82.5 468.82,-89.5"/>
</g>
<!-- mnt_comp1 -->
<g id="node10" class="node">
<title>mnt_comp1</title>
<path fill="white" stroke="black" d="M220,-36C220,-36 146,-36 146,-36 140,-36 134,-30 134,-24 134,-24 134,-12 134,-12 134,-6 140,0 146,0 146,0 220,0 220,0 226,0 232,-6 232,-12 232,-12 232,-24 232,-24 232,-30 226,-36 220,-36"/>
<text text-anchor="middle" x="183" y="-14.3" font-family="Helvetica,sans-Serif" font-size="14.00">mnt_comp1</text>
</g>
<!-- mnt_comp1&#45;&gt;volt -->
<g id="edge4" class="edge">
<title>mnt_comp1&#45;&gt;volt</title>
<path fill="none" stroke="black" stroke-width="1.2" d="M212.33,-36.03C226.59,-45.1 244.01,-56.19 259.09,-65.78"/>
<polygon fill="black" stroke="black" stroke-width="1.2" points="257.34,-68.82 267.66,-71.24 261.1,-62.91 257.34,-68.82"/>
</g>
<!-- mnt_comp1&#45;&gt;pressure -->
<g id="edge10" class="edge">
<title>mnt_comp1&#45;&gt;pressure</title>
<path fill="none" stroke="black" stroke-width="1.2" d="M232.32,-13.42C267.21,-10.35 315.47,-6.59 358,-5 395.75,-3.59 405.31,-2.44 443,-5 494.58,-8.5 553.21,-17.08 593.2,-23.63"/>
<polygon fill="black" stroke="black" stroke-width="1.2" points="592.76,-27.11 603.2,-25.29 593.91,-20.2 592.76,-27.11"/>
</g>
<!-- mnt_comp3 -->
<g id="node12" class="node">
<title>mnt_comp3</title>
<path fill="white" stroke="black" d="M86,-115C86,-115 12,-115 12,-115 6,-115 0,-109 0,-103 0,-103 0,-91 0,-91 0,-85 6,-79 12,-79 12,-79 86,-79 86,-79 92,-79 98,-85 98,-91 98,-91 98,-103 98,-103 98,-109 92,-115 86,-115"/>
<text text-anchor="middle" x="49" y="-93.3" font-family="Helvetica,sans-Serif" font-size="14.00">mnt_comp3</text>
</g>
<!-- mnt_comp3&#45;&gt;rotate -->
<g id="edge6" class="edge">
<title>mnt_comp3&#45;&gt;rotate</title>
<path fill="none" stroke="black" stroke-width="1.2" d="M98.03,-96.27C113.21,-96.04 129.77,-95.79 144.14,-95.57"/>
<polygon fill="black" stroke="black" stroke-width="1.2" points="144.22,-99.07 154.17,-95.42 144.12,-92.07 144.22,-99.07"/>
</g>
<!-- mnt_comp4 -->
<g id="node13" class="node">
<title>mnt_comp4</title>
<path fill="white" stroke="black" d="M86,-346C86,-346 12,-346 12,-346 6,-346 0,-340 0,-334 0,-334 0,-322 0,-322 0,-316 6,-310 12,-310 12,-310 86,-310 86,-310 92,-310 98,-316 98,-322 98,-322 98,-334 98,-334 98,-340 92,-346 86,-346"/>
<text text-anchor="middle" x="49" y="-324.3" font-family="Helvetica,sans-Serif" font-size="14.00">mnt_comp4</text>
</g>
<!-- fail_comp1 -->
<g id="node14" class="node">
<title>fail_comp1</title>
<path fill="white" stroke="black" d="M83,-61C83,-61 15,-61 15,-61 9,-61 3,-55 3,-49 3,-49 3,-37 3,-37 3,-31 9,-25 15,-25 15,-25 83,-25 83,-25 89,-25 95,-31 95,-37 95,-37 95,-49 95,-49 95,-55 89,-61 83,-61"/>
<text text-anchor="middle" x="49" y="-39.3" font-family="Helvetica,sans-Serif" font-size="14.00">fail_comp1</text>
</g>
<!-- fail_comp1&#45;&gt;rotate -->
<g id="edge7" class="edge">
<title>fail_comp1&#45;&gt;rotate</title>
<path fill="none" stroke="black" stroke-width="1.2" d="M95.06,-60.75C111.23,-67.12 129.28,-74.23 144.72,-80.31"/>
<polygon fill="black" stroke="black" stroke-width="1.2" points="143.86,-83.74 154.44,-84.14 146.42,-77.22 143.86,-83.74"/>
</g>
<!-- fail_comp2 -->
<g id="node15" class="node">
<title>fail_comp2</title>
<path fill="white" stroke="black" d="M83,-400C83,-400 15,-400 15,-400 9,-400 3,-394 3,-388 3,-388 3,-376 3,-376 3,-370 9,-364 15,-364 15,-364 83,-364 83,-364 89,-364 95,-370 95,-376 95,-376 95,-388 95,-388 95,-394 89,-400 83,-400"/>
<text text-anchor="middle" x="49" y="-378.3" font-family="Helvetica,sans-Serif" font-size="14.00">fail_comp2</text>
</g>
<!-- fail_comp3 -->
<g id="node16" class="node">
<title>fail_comp3</title>
<path fill="white" stroke="black" d="M83,-454C83,-454 15,-454 15,-454 9,-454 3,-448 3,-442 3,-442 3,-430 3,-430 3,-424 9,-418 15,-418 15,-418 83,-418 83,-418 89,-418 95,-424 95,-430 95,-430 95,-442 95,-442 95,-448 89,-454 83,-454"/>
<text text-anchor="middle" x="49" y="-432.3" font-family="Helvetica,sans-Serif" font-size="14.00">fail_comp3</text>
</g>
</g>
</svg>
