<?xml version="1.0" encoding="UTF-8" standalone="no"?>
<!DOCTYPE svg PUBLIC "-//W3C//DTD SVG 1.1//EN"
 "http://www.w3.org/Graphics/SVG/1.1/DTD/svg11.dtd">
<!-- Generated by graphviz version 2.50.0 (0)
 -->
<!-- Title: G Pages: 1 -->
<svg width="403pt" height="556pt"
 viewBox="0.00 0.00 403.00 556.00" xmlns="http://www.w3.org/2000/svg" xmlns:xlink="http://www.w3.org/1999/xlink">
<g id="graph0" class="graph" transform="scale(1 1) rotate(0) translate(4 552)">
<title>G</title>
<polygon fill="white" stroke="transparent" points="-4,4 -4,-552 399,-552 399,4 -4,4"/>
<text text-anchor="middle" x="197.5" y="-531.2" font-family="Times,serif" font-size="16.00">model=model3/pcmci_mixed.json [machine 5]</text>
<!-- volt -->
<g id="node1" class="node">
<title>volt</title>
<path fill="white" stroke="black" d="M343.5,-44C343.5,-44 313.5,-44 313.5,-44 307.5,-44 301.5,-38 301.5,-32 301.5,-32 301.5,-20 301.5,-20 301.5,-14 307.5,-8 313.5,-8 313.5,-8 343.5,-8 343.5,-8 349.5,-8 355.5,-14 355.5,-20 355.5,-20 355.5,-32 355.5,-32 355.5,-38 349.5,-44 343.5,-44"/>
<text text-anchor="middle" x="328.5" y="-22.3" font-family="Helvetica,sans-Serif" font-size="14.00">volt</text>
</g>
<!-- rotate -->
<g id="node2" class="node">
<title>rotate</title>
<path fill="white" stroke="black" d="M93,-144C93,-144 60,-144 60,-144 54,-144 48,-138 48,-132 48,-132 48,-120 48,-120 48,-114 54,-108 60,-108 60,-108 93,-108 93,-108 99,-108 105,-114 105,-120 105,-120 105,-132 105,-132 105,-138 99,-144 93,-144"/>
<text text-anchor="middle" x="76.5" y="-122.3" font-family="Helvetica,sans-Serif" font-size="14.00">rotate</text>
</g>
<!-- err_error2 -->
<g id="node6" class="node">
<title>err_error2</title>
<path fill="white" stroke="black" d="M238,-198C238,-198 177,-198 177,-198 171,-198 165,-192 165,-186 165,-186 165,-174 165,-174 165,-168 171,-162 177,-162 177,-162 238,-162 238,-162 244,-162 250,-168 250,-174 250,-174 250,-186 250,-186 250,-192 244,-198 238,-198"/>
<text text-anchor="middle" x="207.5" y="-176.3" font-family="Helvetica,sans-Serif" font-size="14.00">err_error2</text>
</g>
<!-- rotate&#45;&gt;err_error2 -->
<g id="edge3" class="edge">
<title>rotate&#45;&gt;err_error2</title>
<path fill="none" stroke="black" stroke-width="1.2" d="M105.17,-137.58C119.79,-143.7 138.2,-151.41 155.31,-158.57"/>
<polygon fill="black" stroke="black" stroke-width="1.2" points="154.07,-161.85 164.64,-162.48 156.77,-155.39 154.07,-161.85"/>
</g>
<!-- fail_comp2 -->
<g id="node15" class="node">
<title>fail_comp2</title>
<path fill="white" stroke="black" d="M241.5,-144C241.5,-144 173.5,-144 173.5,-144 167.5,-144 161.5,-138 161.5,-132 161.5,-132 161.5,-120 161.5,-120 161.5,-114 167.5,-108 173.5,-108 173.5,-108 241.5,-108 241.5,-108 247.5,-108 253.5,-114 253.5,-120 253.5,-120 253.5,-132 253.5,-132 253.5,-138 247.5,-144 241.5,-144"/>
<text text-anchor="middle" x="207.5" y="-122.3" font-family="Helvetica,sans-Serif" font-size="14.00">fail_comp2</text>
</g>
<!-- rotate&#45;&gt;fail_comp2 -->
<g id="edge4" class="edge">
<title>rotate&#45;&gt;fail_comp2</title>
<path fill="none" stroke="black" stroke-width="1.2" d="M105.17,-126C118.59,-126 135.22,-126 151.09,-126"/>
<polygon fill="black" stroke="black" stroke-width="1.2" points="151.37,-129.5 161.37,-126 151.37,-122.5 151.37,-129.5"/>
</g>
<!-- pressure -->
<g id="node3" class="node">
<title>pressure</title>
<path fill="white" stroke="black" d="M234,-44C234,-44 181,-44 181,-44 175,-44 169,-38 169,-32 169,-32 169,-20 169,-20 169,-14 175,-8 181,-8 181,-8 234,-8 234,-8 240,-8 246,-14 246,-20 246,-20 246,-32 246,-32 246,-38 240,-44 234,-44"/>
<text text-anchor="middle" x="207.5" y="-22.3" font-family="Helvetica,sans-Serif" font-size="14.00">pressure</text>
</g>
<!-- pressure&#45;&gt;volt -->
<g id="edge1" class="edge">
<title>pressure&#45;&gt;volt</title>
<path fill="none" stroke="black" stroke-width="1.2" d="M246.15,-26C260.48,-26 276.76,-26 290.98,-26"/>
<polygon fill="black" stroke="black" stroke-width="1.2" points="291.38,-29.5 301.38,-26 291.38,-22.5 291.38,-29.5"/>
</g>
<!-- vibration -->
<g id="node4" class="node">
<title>vibration</title>
<path fill="white" stroke="black" d="M355.5,-121C355.5,-121 301.5,-121 301.5,-121 295.5,-121 289.5,-115 289.5,-109 289.5,-109 289.5,-97 289.5,-97 289.5,-91 295.5,-85 301.5,-85 301.5,-85 355.5,-85 355.5,-85 361.5,-85 367.5,-91 367.5,-97 367.5,-97 367.5,-109 367.5,-109 367.5,-115 361.5,-121 355.5,-121"/>
<text text-anchor="middle" x="328.5" y="-99.3" font-family="Helvetica,sans-Serif" font-size="14.00">vibration</text>
</g>
<!-- vibration&#45;&gt;rotate -->
<g id="edge2" class="edge">
<title>vibration&#45;&gt;rotate</title>
<path fill="none" stroke="black" stroke-width="1.2" d="M289.34,-98.23C255.53,-94.91 204.93,-92.19 161.5,-99 145.88,-101.45 129.21,-106.31 114.87,-111.24"/>
<polygon fill="black" stroke="black" stroke-width="1.2" points="113.59,-107.98 105.35,-114.64 115.95,-114.57 113.59,-107.98"/>
</g>
<!-- err_error1 -->
<g id="node5" class="node">
<title>err_error1</title>
<path fill="white" stroke="black" d="M107,-90C107,-90 46,-90 46,-90 40,-90 34,-84 34,-78 34,-78 34,-66 34,-66 34,-60 40,-54 46,-54 46,-54 107,-54 107,-54 113,-54 119,-60 119,-66 119,-66 119,-78 119,-78 119,-84 113,-90 107,-90"/>
<text text-anchor="middle" x="76.5" y="-68.3" font-family="Helvetica,sans-Serif" font-size="14.00">err_error1</text>
</g>
<!-- err_error1&#45;&gt;pressure -->
<g id="edge5" class="edge">
<title>err_error1&#45;&gt;pressure</title>
<path fill="none" stroke="black" stroke-width="1.2" d="M119.03,-57.19C131.95,-52.58 146.28,-47.47 159.55,-42.74"/>
<polygon fill="black" stroke="black" stroke-width="1.2" points="160.74,-46.03 168.98,-39.38 158.38,-39.44 160.74,-46.03"/>
</g>
<!-- err_error3 -->
<g id="node7" class="node">
<title>err_error3</title>
<path fill="white" stroke="black" d="M107,-198C107,-198 46,-198 46,-198 40,-198 34,-192 34,-186 34,-186 34,-174 34,-174 34,-168 40,-162 46,-162 46,-162 107,-162 107,-162 113,-162 119,-168 119,-174 119,-174 119,-186 119,-186 119,-192 113,-198 107,-198"/>
<text text-anchor="middle" x="76.5" y="-176.3" font-family="Helvetica,sans-Serif" font-size="14.00">err_error3</text>
</g>
<!-- err_error4 -->
<g id="node8" class="node">
<title>err_error4</title>
<path fill="white" stroke="black" d="M107,-252C107,-252 46,-252 46,-252 40,-252 34,-246 34,-240 34,-240 34,-228 34,-228 34,-222 40,-216 46,-216 46,-216 107,-216 107,-216 113,-216 119,-222 119,-228 119,-228 119,-240 119,-240 119,-246 113,-252 107,-252"/>
<text text-anchor="middle" x="76.5" y="-230.3" font-family="Helvetica,sans-Serif" font-size="14.00">err_error4</text>
</g>
<!-- err_error5 -->
<g id="node9" class="node">
<title>err_error5</title>
<path fill="white" stroke="black" d="M107,-306C107,-306 46,-306 46,-306 40,-306 34,-300 34,-294 34,-294 34,-282 34,-282 34,-276 40,-270 46,-270 46,-270 107,-270 107,-270 113,-270 119,-276 119,-282 119,-282 119,-294 119,-294 119,-300 113,-306 107,-306"/>
<text text-anchor="middle" x="76.5" y="-284.3" font-family="Helvetica,sans-Serif" font-size="14.00">err_error5</text>
</g>
<!-- mnt_comp1 -->
<g id="node10" class="node">
<title>mnt_comp1</title>
<path fill="white" stroke="black" d="M113.5,-360C113.5,-360 39.5,-360 39.5,-360 33.5,-360 27.5,-354 27.5,-348 27.5,-348 27.5,-336 27.5,-336 27.5,-330 33.5,-324 39.5,-324 39.5,-324 113.5,-324 113.5,-324 119.5,-324 125.5,-330 125.5,-336 125.5,-336 125.5,-348 125.5,-348 125.5,-354 119.5,-360 113.5,-360"/>
<text text-anchor="middle" x="76.5" y="-338.3" font-family="Helvetica,sans-Serif" font-size="14.00">mnt_comp1</text>
</g>
<!-- mnt_comp2 -->
<g id="node11" class="node">
<title>mnt_comp2</title>
<path fill="white" stroke="black" d="M113.5,-414C113.5,-414 39.5,-414 39.5,-414 33.5,-414 27.5,-408 27.5,-402 27.5,-402 27.5,-390 27.5,-390 27.5,-384 33.5,-378 39.5,-378 39.5,-378 113.5,-378 113.5,-378 119.5,-378 125.5,-384 125.5,-390 125.5,-390 125.5,-402 125.5,-402 125.5,-408 119.5,-414 113.5,-414"/>
<text text-anchor="middle" x="76.5" y="-392.3" font-family="Helvetica,sans-Serif" font-size="14.00">mnt_comp2</text>
</g>
<!-- mnt_comp3 -->
<g id="node12" class="node">
<title>mnt_comp3</title>
<path fill="white" stroke="black" d="M113.5,-468C113.5,-468 39.5,-468 39.5,-468 33.5,-468 27.5,-462 27.5,-456 27.5,-456 27.5,-444 27.5,-444 27.5,-438 33.5,-432 39.5,-432 39.5,-432 113.5,-432 113.5,-432 119.5,-432 125.5,-438 125.5,-444 125.5,-444 125.5,-456 125.5,-456 125.5,-462 119.5,-468 113.5,-468"/>
<text text-anchor="middle" x="76.5" y="-446.3" font-family="Helvetica,sans-Serif" font-size="14.00">mnt_comp3</text>
</g>
<!-- mnt_comp4 -->
<g id="node13" class="node">
<title>mnt_comp4</title>
<path fill="white" stroke="black" d="M113.5,-36C113.5,-36 39.5,-36 39.5,-36 33.5,-36 27.5,-30 27.5,-24 27.5,-24 27.5,-12 27.5,-12 27.5,-6 33.5,0 39.5,0 39.5,0 113.5,0 113.5,0 119.5,0 125.5,-6 125.5,-12 125.5,-12 125.5,-24 125.5,-24 125.5,-30 119.5,-36 113.5,-36"/>
<text text-anchor="middle" x="76.5" y="-14.3" font-family="Helvetica,sans-Serif" font-size="14.00">mnt_comp4</text>
</g>
<!-- mnt_comp4&#45;&gt;pressure -->
<g id="edge6" class="edge">
<title>mnt_comp4&#45;&gt;pressure</title>
<path fill="none" stroke="black" stroke-width="1.2" d="M125.53,-20.98C136.39,-21.65 147.92,-22.37 158.76,-23.04"/>
<polygon fill="black" stroke="black" stroke-width="1.2" points="158.71,-26.54 168.91,-23.67 159.14,-19.56 158.71,-26.54"/>
</g>
<!-- fail_comp1 -->
<g id="node14" class="node">
<title>fail_comp1</title>
<path fill="white" stroke="black" d="M110.5,-522C110.5,-522 42.5,-522 42.5,-522 36.5,-522 30.5,-516 30.5,-510 30.5,-510 30.5,-498 30.5,-498 30.5,-492 36.5,-486 42.5,-486 42.5,-486 110.5,-486 110.5,-486 116.5,-486 122.5,-492 122.5,-498 122.5,-498 122.5,-510 122.5,-510 122.5,-516 116.5,-522 110.5,-522"/>
<text text-anchor="middle" x="76.5" y="-500.3" font-family="Helvetica,sans-Serif" font-size="14.00">fail_comp1</text>
</g>
<!-- fail_comp2&#45;&gt;vibration -->
<g id="edge7" class="edge">
<title>fail_comp2&#45;&gt;vibration</title>
<path fill="none" stroke="black" stroke-width="1.2" d="M253.83,-117.24C262.14,-115.63 270.84,-113.95 279.24,-112.33"/>
<polygon fill="black" stroke="black" stroke-width="1.2" points="280.12,-115.72 289.28,-110.39 278.79,-108.85 280.12,-115.72"/>
</g>
</g>
</svg>
