<?xml version="1.0" encoding="UTF-8" standalone="no"?>
<!DOCTYPE svg PUBLIC "-//W3C//DTD SVG 1.1//EN"
 "http://www.w3.org/Graphics/SVG/1.1/DTD/svg11.dtd">
<!-- Generated by graphviz version 2.50.0 (0)
 -->
<!-- Title: G Pages: 1 -->
<svg width="482pt" height="548pt"
 viewBox="0.00 0.00 482.00 548.00" xmlns="http://www.w3.org/2000/svg" xmlns:xlink="http://www.w3.org/1999/xlink">
<g id="graph0" class="graph" transform="scale(1 1) rotate(0) translate(4 544)">
<title>G</title>
<polygon fill="white" stroke="transparent" points="-4,4 -4,-544 478,-544 478,4 -4,4"/>
<text text-anchor="middle" x="237" y="-523.2" font-family="Times,serif" font-size="16.00">model=model4/pcmci_mixed.json [machine 91]</text>
<!-- volt -->
<g id="node1" class="node">
<title>volt</title>
<path fill="white" stroke="black" d="M312.5,-163C312.5,-163 282.5,-163 282.5,-163 276.5,-163 270.5,-157 270.5,-151 270.5,-151 270.5,-139 270.5,-139 270.5,-133 276.5,-127 282.5,-127 282.5,-127 312.5,-127 312.5,-127 318.5,-127 324.5,-133 324.5,-139 324.5,-139 324.5,-151 324.5,-151 324.5,-157 318.5,-163 312.5,-163"/>
<text text-anchor="middle" x="297.5" y="-141.3" font-family="Helvetica,sans-Serif" font-size="14.00">volt</text>
</g>
<!-- mnt_comp3 -->
<g id="node12" class="node">
<title>mnt_comp3</title>
<path fill="white" stroke="black" d="M462,-163C462,-163 388,-163 388,-163 382,-163 376,-157 376,-151 376,-151 376,-139 376,-139 376,-133 382,-127 388,-127 388,-127 462,-127 462,-127 468,-127 474,-133 474,-139 474,-139 474,-151 474,-151 474,-157 468,-163 462,-163"/>
<text text-anchor="middle" x="425" y="-141.3" font-family="Helvetica,sans-Serif" font-size="14.00">mnt_comp3</text>
</g>
<!-- volt&#45;&gt;mnt_comp3 -->
<g id="edge5" class="edge">
<title>volt&#45;&gt;mnt_comp3</title>
<path fill="none" stroke="black" stroke-width="1.2" d="M324.5,-145C336.46,-145 351.17,-145 365.57,-145"/>
<polygon fill="black" stroke="black" stroke-width="1.2" points="365.96,-148.5 375.96,-145 365.96,-141.5 365.96,-148.5"/>
</g>
<!-- rotate -->
<g id="node2" class="node">
<title>rotate</title>
<path fill="white" stroke="black" d="M193,-236C193,-236 160,-236 160,-236 154,-236 148,-230 148,-224 148,-224 148,-212 148,-212 148,-206 154,-200 160,-200 160,-200 193,-200 193,-200 199,-200 205,-206 205,-212 205,-212 205,-224 205,-224 205,-230 199,-236 193,-236"/>
<text text-anchor="middle" x="176.5" y="-214.3" font-family="Helvetica,sans-Serif" font-size="14.00">rotate</text>
</g>
<!-- rotate&#45;&gt;volt -->
<g id="edge1" class="edge">
<title>rotate&#45;&gt;volt</title>
<path fill="none" stroke="black" stroke-width="1.2" d="M205.1,-201.07C221.82,-190.81 243.32,-177.63 261.26,-166.62"/>
<polygon fill="black" stroke="black" stroke-width="1.2" points="263.58,-169.3 270.27,-161.09 259.92,-163.33 263.58,-169.3"/>
</g>
<!-- err_error3 -->
<g id="node7" class="node">
<title>err_error3</title>
<path fill="white" stroke="black" d="M328,-236C328,-236 267,-236 267,-236 261,-236 255,-230 255,-224 255,-224 255,-212 255,-212 255,-206 261,-200 267,-200 267,-200 328,-200 328,-200 334,-200 340,-206 340,-212 340,-212 340,-224 340,-224 340,-230 334,-236 328,-236"/>
<text text-anchor="middle" x="297.5" y="-214.3" font-family="Helvetica,sans-Serif" font-size="14.00">err_error3</text>
</g>
<!-- rotate&#45;&gt;err_error3 -->
<g id="edge6" class="edge">
<title>rotate&#45;&gt;err_error3</title>
<path fill="none" stroke="black" stroke-width="1.2" d="M205.1,-218C216.81,-218 230.86,-218 244.39,-218"/>
<polygon fill="black" stroke="black" stroke-width="1.2" points="244.59,-221.5 254.59,-218 244.59,-214.5 244.59,-221.5"/>
</g>
<!-- pressure -->
<g id="node3" class="node">
<title>pressure</title>
<path fill="white" stroke="black" d="M203,-144C203,-144 150,-144 150,-144 144,-144 138,-138 138,-132 138,-132 138,-120 138,-120 138,-114 144,-108 150,-108 150,-108 203,-108 203,-108 209,-108 215,-114 215,-120 215,-120 215,-132 215,-132 215,-138 209,-144 203,-144"/>
<text text-anchor="middle" x="176.5" y="-122.3" font-family="Helvetica,sans-Serif" font-size="14.00">pressure</text>
</g>
<!-- pressure&#45;&gt;volt -->
<g id="edge2" class="edge">
<title>pressure&#45;&gt;volt</title>
<path fill="none" stroke="black" stroke-width="1.2" d="M215.15,-132.01C229.62,-134.32 246.08,-136.95 260.4,-139.24"/>
<polygon fill="black" stroke="black" stroke-width="1.2" points="259.96,-142.71 270.38,-140.83 261.06,-135.8 259.96,-142.71"/>
</g>
<!-- vibration -->
<g id="node4" class="node">
<title>vibration</title>
<path fill="white" stroke="black" d="M203.5,-90C203.5,-90 149.5,-90 149.5,-90 143.5,-90 137.5,-84 137.5,-78 137.5,-78 137.5,-66 137.5,-66 137.5,-60 143.5,-54 149.5,-54 149.5,-54 203.5,-54 203.5,-54 209.5,-54 215.5,-60 215.5,-66 215.5,-66 215.5,-78 215.5,-78 215.5,-84 209.5,-90 203.5,-90"/>
<text text-anchor="middle" x="176.5" y="-68.3" font-family="Helvetica,sans-Serif" font-size="14.00">vibration</text>
</g>
<!-- err_error1 -->
<g id="node5" class="node">
<title>err_error1</title>
<path fill="white" stroke="black" d="M79.5,-190C79.5,-190 18.5,-190 18.5,-190 12.5,-190 6.5,-184 6.5,-178 6.5,-178 6.5,-166 6.5,-166 6.5,-160 12.5,-154 18.5,-154 18.5,-154 79.5,-154 79.5,-154 85.5,-154 91.5,-160 91.5,-166 91.5,-166 91.5,-178 91.5,-178 91.5,-184 85.5,-190 79.5,-190"/>
<text text-anchor="middle" x="49" y="-168.3" font-family="Helvetica,sans-Serif" font-size="14.00">err_error1</text>
</g>
<!-- err_error1&#45;&gt;volt -->
<g id="edge3" class="edge">
<title>err_error1&#45;&gt;volt</title>
<path fill="none" stroke="black" stroke-width="1.2" d="M91.54,-167.45C138.79,-162.27 215.21,-153.9 260.18,-148.98"/>
<polygon fill="black" stroke="black" stroke-width="1.2" points="260.8,-152.43 270.36,-147.86 260.03,-145.47 260.8,-152.43"/>
</g>
<!-- err_error1&#45;&gt;pressure -->
<g id="edge7" class="edge">
<title>err_error1&#45;&gt;pressure</title>
<path fill="none" stroke="black" stroke-width="1.2" d="M91.79,-156.68C103.49,-152.39 116.29,-147.7 128.29,-143.3"/>
<polygon fill="black" stroke="black" stroke-width="1.2" points="129.51,-146.58 137.7,-139.86 127.1,-140.01 129.51,-146.58"/>
</g>
<!-- err_error2 -->
<g id="node6" class="node">
<title>err_error2</title>
<path fill="white" stroke="black" d="M79.5,-244C79.5,-244 18.5,-244 18.5,-244 12.5,-244 6.5,-238 6.5,-232 6.5,-232 6.5,-220 6.5,-220 6.5,-214 12.5,-208 18.5,-208 18.5,-208 79.5,-208 79.5,-208 85.5,-208 91.5,-214 91.5,-220 91.5,-220 91.5,-232 91.5,-232 91.5,-238 85.5,-244 79.5,-244"/>
<text text-anchor="middle" x="49" y="-222.3" font-family="Helvetica,sans-Serif" font-size="14.00">err_error2</text>
</g>
<!-- err_error4 -->
<g id="node8" class="node">
<title>err_error4</title>
<path fill="white" stroke="black" d="M79.5,-82C79.5,-82 18.5,-82 18.5,-82 12.5,-82 6.5,-76 6.5,-70 6.5,-70 6.5,-58 6.5,-58 6.5,-52 12.5,-46 18.5,-46 18.5,-46 79.5,-46 79.5,-46 85.5,-46 91.5,-52 91.5,-58 91.5,-58 91.5,-70 91.5,-70 91.5,-76 85.5,-82 79.5,-82"/>
<text text-anchor="middle" x="49" y="-60.3" font-family="Helvetica,sans-Serif" font-size="14.00">err_error4</text>
</g>
<!-- err_error4&#45;&gt;vibration -->
<g id="edge9" class="edge">
<title>err_error4&#45;&gt;vibration</title>
<path fill="none" stroke="black" stroke-width="1.2" d="M91.79,-66.66C103.15,-67.39 115.55,-68.18 127.23,-68.92"/>
<polygon fill="black" stroke="black" stroke-width="1.2" points="127.08,-72.42 137.28,-69.56 127.52,-65.43 127.08,-72.42"/>
</g>
<!-- err_error5 -->
<g id="node9" class="node">
<title>err_error5</title>
<path fill="white" stroke="black" d="M207,-36C207,-36 146,-36 146,-36 140,-36 134,-30 134,-24 134,-24 134,-12 134,-12 134,-6 140,0 146,0 146,0 207,0 207,0 213,0 219,-6 219,-12 219,-12 219,-24 219,-24 219,-30 213,-36 207,-36"/>
<text text-anchor="middle" x="176.5" y="-14.3" font-family="Helvetica,sans-Serif" font-size="14.00">err_error5</text>
</g>
<!-- err_error5&#45;&gt;volt -->
<g id="edge4" class="edge">
<title>err_error5&#45;&gt;volt</title>
<path fill="none" stroke="black" stroke-width="1.2" d="M207.86,-36.03C211.76,-38.84 215.59,-41.86 219,-45 242.89,-67 265.04,-96.95 279.49,-118.33"/>
<polygon fill="black" stroke="black" stroke-width="1.2" points="276.75,-120.52 285.19,-126.91 282.58,-116.65 276.75,-120.52"/>
</g>
<!-- mnt_comp1 -->
<g id="node10" class="node">
<title>mnt_comp1</title>
<path fill="white" stroke="black" d="M86,-298C86,-298 12,-298 12,-298 6,-298 0,-292 0,-286 0,-286 0,-274 0,-274 0,-268 6,-262 12,-262 12,-262 86,-262 86,-262 92,-262 98,-268 98,-274 98,-274 98,-286 98,-286 98,-292 92,-298 86,-298"/>
<text text-anchor="middle" x="49" y="-276.3" font-family="Helvetica,sans-Serif" font-size="14.00">mnt_comp1</text>
</g>
<!-- mnt_comp2 -->
<g id="node11" class="node">
<title>mnt_comp2</title>
<path fill="white" stroke="black" d="M86,-352C86,-352 12,-352 12,-352 6,-352 0,-346 0,-340 0,-340 0,-328 0,-328 0,-322 6,-316 12,-316 12,-316 86,-316 86,-316 92,-316 98,-322 98,-328 98,-328 98,-340 98,-340 98,-346 92,-352 86,-352"/>
<text text-anchor="middle" x="49" y="-330.3" font-family="Helvetica,sans-Serif" font-size="14.00">mnt_comp2</text>
</g>
<!-- mnt_comp4 -->
<g id="node13" class="node">
<title>mnt_comp4</title>
<path fill="white" stroke="black" d="M86,-406C86,-406 12,-406 12,-406 6,-406 0,-400 0,-394 0,-394 0,-382 0,-382 0,-376 6,-370 12,-370 12,-370 86,-370 86,-370 92,-370 98,-376 98,-382 98,-382 98,-394 98,-394 98,-400 92,-406 86,-406"/>
<text text-anchor="middle" x="49" y="-384.3" font-family="Helvetica,sans-Serif" font-size="14.00">mnt_comp4</text>
</g>
<!-- fail_comp1 -->
<g id="node14" class="node">
<title>fail_comp1</title>
<path fill="white" stroke="black" d="M83,-460C83,-460 15,-460 15,-460 9,-460 3,-454 3,-448 3,-448 3,-436 3,-436 3,-430 9,-424 15,-424 15,-424 83,-424 83,-424 89,-424 95,-430 95,-436 95,-436 95,-448 95,-448 95,-454 89,-460 83,-460"/>
<text text-anchor="middle" x="49" y="-438.3" font-family="Helvetica,sans-Serif" font-size="14.00">fail_comp1</text>
</g>
<!-- fail_comp2 -->
<g id="node15" class="node">
<title>fail_comp2</title>
<path fill="white" stroke="black" d="M83,-136C83,-136 15,-136 15,-136 9,-136 3,-130 3,-124 3,-124 3,-112 3,-112 3,-106 9,-100 15,-100 15,-100 83,-100 83,-100 89,-100 95,-106 95,-112 95,-112 95,-124 95,-124 95,-130 89,-136 83,-136"/>
<text text-anchor="middle" x="49" y="-114.3" font-family="Helvetica,sans-Serif" font-size="14.00">fail_comp2</text>
</g>
<!-- fail_comp2&#45;&gt;pressure -->
<g id="edge8" class="edge">
<title>fail_comp2&#45;&gt;pressure</title>
<path fill="none" stroke="black" stroke-width="1.2" d="M95.31,-120.89C105.73,-121.55 116.86,-122.26 127.4,-122.93"/>
<polygon fill="black" stroke="black" stroke-width="1.2" points="127.49,-126.45 137.7,-123.59 127.94,-119.46 127.49,-126.45"/>
</g>
<!-- fail_comp2&#45;&gt;vibration -->
<g id="edge10" class="edge">
<title>fail_comp2&#45;&gt;vibration</title>
<path fill="none" stroke="black" stroke-width="1.2" d="M95.31,-101.39C105.84,-97.53 117.09,-93.41 127.73,-89.51"/>
<polygon fill="black" stroke="black" stroke-width="1.2" points="129.11,-92.73 137.29,-86 126.7,-86.16 129.11,-92.73"/>
</g>
<!-- fail_comp4 -->
<g id="node16" class="node">
<title>fail_comp4</title>
<path fill="white" stroke="black" d="M83,-514C83,-514 15,-514 15,-514 9,-514 3,-508 3,-502 3,-502 3,-490 3,-490 3,-484 9,-478 15,-478 15,-478 83,-478 83,-478 89,-478 95,-484 95,-490 95,-490 95,-502 95,-502 95,-508 89,-514 83,-514"/>
<text text-anchor="middle" x="49" y="-492.3" font-family="Helvetica,sans-Serif" font-size="14.00">fail_comp4</text>
</g>
</g>
</svg>
