<?xml version="1.0" encoding="UTF-8" standalone="no"?>
<!DOCTYPE svg PUBLIC "-//W3C//DTD SVG 1.1//EN"
 "http://www.w3.org/Graphics/SVG/1.1/DTD/svg11.dtd">
<!-- Generated by graphviz version 2.50.0 (0)
 -->
<!-- Title: G Pages: 1 -->
<svg width="446pt" height="502pt"
 viewBox="0.00 0.00 446.00 502.00" xmlns="http://www.w3.org/2000/svg" xmlns:xlink="http://www.w3.org/1999/xlink">
<g id="graph0" class="graph" transform="scale(1 1) rotate(0) translate(4 498)">
<title>G</title>
<polygon fill="white" stroke="transparent" points="-4,4 -4,-498 442,-498 442,4 -4,4"/>
<text text-anchor="middle" x="219" y="-477.2" font-family="Times,serif" font-size="16.00">model=model3/pcmci_mixed.json [machine 12]</text>
<!-- volt -->
<g id="node1" class="node">
<title>volt</title>
<path fill="white" stroke="black" d="M177.5,-140C177.5,-140 147.5,-140 147.5,-140 141.5,-140 135.5,-134 135.5,-128 135.5,-128 135.5,-116 135.5,-116 135.5,-110 141.5,-104 147.5,-104 147.5,-104 177.5,-104 177.5,-104 183.5,-104 189.5,-110 189.5,-116 189.5,-116 189.5,-128 189.5,-128 189.5,-134 183.5,-140 177.5,-140"/>
<text text-anchor="middle" x="162.5" y="-118.3" font-family="Helvetica,sans-Serif" font-size="14.00">volt</text>
</g>
<!-- mnt_comp4 -->
<g id="node13" class="node">
<title>mnt_comp4</title>
<path fill="white" stroke="black" d="M313,-178C313,-178 239,-178 239,-178 233,-178 227,-172 227,-166 227,-166 227,-154 227,-154 227,-148 233,-142 239,-142 239,-142 313,-142 313,-142 319,-142 325,-148 325,-154 325,-154 325,-166 325,-166 325,-172 319,-178 313,-178"/>
<text text-anchor="middle" x="276" y="-156.3" font-family="Helvetica,sans-Serif" font-size="14.00">mnt_comp4</text>
</g>
<!-- volt&#45;&gt;mnt_comp4 -->
<g id="edge2" class="edge">
<title>volt&#45;&gt;mnt_comp4</title>
<path fill="none" stroke="black" stroke-width="1.2" d="M189.64,-130.91C197.95,-133.74 207.48,-136.99 217.11,-140.27"/>
<polygon fill="black" stroke="black" stroke-width="1.2" points="216.12,-143.63 226.72,-143.54 218.38,-137.01 216.12,-143.63"/>
</g>
<!-- fail_comp1 -->
<g id="node14" class="node">
<title>fail_comp1</title>
<path fill="white" stroke="black" d="M310,-124C310,-124 242,-124 242,-124 236,-124 230,-118 230,-112 230,-112 230,-100 230,-100 230,-94 236,-88 242,-88 242,-88 310,-88 310,-88 316,-88 322,-94 322,-100 322,-100 322,-112 322,-112 322,-118 316,-124 310,-124"/>
<text text-anchor="middle" x="276" y="-102.3" font-family="Helvetica,sans-Serif" font-size="14.00">fail_comp1</text>
</g>
<!-- volt&#45;&gt;fail_comp1 -->
<g id="edge3" class="edge">
<title>volt&#45;&gt;fail_comp1</title>
<path fill="none" stroke="black" stroke-width="1.2" d="M189.64,-118.25C198.71,-116.95 209.26,-115.43 219.78,-113.92"/>
<polygon fill="black" stroke="black" stroke-width="1.2" points="220.41,-117.37 229.81,-112.48 219.42,-110.44 220.41,-117.37"/>
</g>
<!-- rotate -->
<g id="node2" class="node">
<title>rotate</title>
<path fill="white" stroke="black" d="M179,-82C179,-82 146,-82 146,-82 140,-82 134,-76 134,-70 134,-70 134,-58 134,-58 134,-52 140,-46 146,-46 146,-46 179,-46 179,-46 185,-46 191,-52 191,-58 191,-58 191,-70 191,-70 191,-76 185,-82 179,-82"/>
<text text-anchor="middle" x="162.5" y="-60.3" font-family="Helvetica,sans-Serif" font-size="14.00">rotate</text>
</g>
<!-- vibration -->
<g id="node4" class="node">
<title>vibration</title>
<path fill="white" stroke="black" d="M303,-59C303,-59 249,-59 249,-59 243,-59 237,-53 237,-47 237,-47 237,-35 237,-35 237,-29 243,-23 249,-23 249,-23 303,-23 303,-23 309,-23 315,-29 315,-35 315,-35 315,-47 315,-47 315,-53 309,-59 303,-59"/>
<text text-anchor="middle" x="276" y="-37.3" font-family="Helvetica,sans-Serif" font-size="14.00">vibration</text>
</g>
<!-- rotate&#45;&gt;vibration -->
<g id="edge5" class="edge">
<title>rotate&#45;&gt;vibration</title>
<path fill="none" stroke="black" stroke-width="1.2" d="M191.06,-58.31C201.84,-56.09 214.53,-53.47 226.74,-50.96"/>
<polygon fill="black" stroke="black" stroke-width="1.2" points="227.73,-54.32 236.82,-48.88 226.32,-47.47 227.73,-54.32"/>
</g>
<!-- pressure -->
<g id="node3" class="node">
<title>pressure</title>
<path fill="white" stroke="black" d="M426,-59C426,-59 373,-59 373,-59 367,-59 361,-53 361,-47 361,-47 361,-35 361,-35 361,-29 367,-23 373,-23 373,-23 426,-23 426,-23 432,-23 438,-29 438,-35 438,-35 438,-47 438,-47 438,-53 432,-59 426,-59"/>
<text text-anchor="middle" x="399.5" y="-37.3" font-family="Helvetica,sans-Serif" font-size="14.00">pressure</text>
</g>
<!-- vibration&#45;&gt;pressure -->
<g id="edge8" class="edge">
<title>vibration&#45;&gt;pressure</title>
<path fill="none" stroke="black" stroke-width="1.2" d="M315.11,-41C326.41,-41 338.94,-41 350.77,-41"/>
<polygon fill="black" stroke="black" stroke-width="1.2" points="350.94,-44.5 360.94,-41 350.94,-37.5 350.94,-44.5"/>
</g>
<!-- err_error1 -->
<g id="node5" class="node">
<title>err_error1</title>
<path fill="white" stroke="black" d="M79.5,-198C79.5,-198 18.5,-198 18.5,-198 12.5,-198 6.5,-192 6.5,-186 6.5,-186 6.5,-174 6.5,-174 6.5,-168 12.5,-162 18.5,-162 18.5,-162 79.5,-162 79.5,-162 85.5,-162 91.5,-168 91.5,-174 91.5,-174 91.5,-186 91.5,-186 91.5,-192 85.5,-198 79.5,-198"/>
<text text-anchor="middle" x="49" y="-176.3" font-family="Helvetica,sans-Serif" font-size="14.00">err_error1</text>
</g>
<!-- err_error2 -->
<g id="node6" class="node">
<title>err_error2</title>
<path fill="white" stroke="black" d="M79.5,-252C79.5,-252 18.5,-252 18.5,-252 12.5,-252 6.5,-246 6.5,-240 6.5,-240 6.5,-228 6.5,-228 6.5,-222 12.5,-216 18.5,-216 18.5,-216 79.5,-216 79.5,-216 85.5,-216 91.5,-222 91.5,-228 91.5,-228 91.5,-240 91.5,-240 91.5,-246 85.5,-252 79.5,-252"/>
<text text-anchor="middle" x="49" y="-230.3" font-family="Helvetica,sans-Serif" font-size="14.00">err_error2</text>
</g>
<!-- err_error3 -->
<g id="node7" class="node">
<title>err_error3</title>
<path fill="white" stroke="black" d="M79.5,-144C79.5,-144 18.5,-144 18.5,-144 12.5,-144 6.5,-138 6.5,-132 6.5,-132 6.5,-120 6.5,-120 6.5,-114 12.5,-108 18.5,-108 18.5,-108 79.5,-108 79.5,-108 85.5,-108 91.5,-114 91.5,-120 91.5,-120 91.5,-132 91.5,-132 91.5,-138 85.5,-144 79.5,-144"/>
<text text-anchor="middle" x="49" y="-122.3" font-family="Helvetica,sans-Serif" font-size="14.00">err_error3</text>
</g>
<!-- err_error3&#45;&gt;volt -->
<g id="edge1" class="edge">
<title>err_error3&#45;&gt;volt</title>
<path fill="none" stroke="black" stroke-width="1.2" d="M91.52,-124.51C102.57,-124.11 114.42,-123.69 125.17,-123.3"/>
<polygon fill="black" stroke="black" stroke-width="1.2" points="125.62,-126.79 135.49,-122.93 125.37,-119.79 125.62,-126.79"/>
</g>
<!-- err_error4 -->
<g id="node8" class="node">
<title>err_error4</title>
<path fill="white" stroke="black" d="M79.5,-36C79.5,-36 18.5,-36 18.5,-36 12.5,-36 6.5,-30 6.5,-24 6.5,-24 6.5,-12 6.5,-12 6.5,-6 12.5,0 18.5,0 18.5,0 79.5,0 79.5,0 85.5,0 91.5,-6 91.5,-12 91.5,-12 91.5,-24 91.5,-24 91.5,-30 85.5,-36 79.5,-36"/>
<text text-anchor="middle" x="49" y="-14.3" font-family="Helvetica,sans-Serif" font-size="14.00">err_error4</text>
</g>
<!-- err_error4&#45;&gt;rotate -->
<g id="edge6" class="edge">
<title>err_error4&#45;&gt;rotate</title>
<path fill="none" stroke="black" stroke-width="1.2" d="M91.52,-35.13C102.33,-39.59 113.9,-44.36 124.46,-48.72"/>
<polygon fill="black" stroke="black" stroke-width="1.2" points="123.24,-52 133.82,-52.58 125.91,-45.53 123.24,-52"/>
</g>
<!-- err_error4&#45;&gt;vibration -->
<g id="edge9" class="edge">
<title>err_error4&#45;&gt;vibration</title>
<path fill="none" stroke="black" stroke-width="1.2" d="M91.53,-22.25C129.73,-26.15 186.37,-31.94 226.6,-36.05"/>
<polygon fill="black" stroke="black" stroke-width="1.2" points="226.41,-39.55 236.71,-37.09 227.12,-32.59 226.41,-39.55"/>
</g>
<!-- err_error5 -->
<g id="node9" class="node">
<title>err_error5</title>
<path fill="white" stroke="black" d="M79.5,-306C79.5,-306 18.5,-306 18.5,-306 12.5,-306 6.5,-300 6.5,-294 6.5,-294 6.5,-282 6.5,-282 6.5,-276 12.5,-270 18.5,-270 18.5,-270 79.5,-270 79.5,-270 85.5,-270 91.5,-276 91.5,-282 91.5,-282 91.5,-294 91.5,-294 91.5,-300 85.5,-306 79.5,-306"/>
<text text-anchor="middle" x="49" y="-284.3" font-family="Helvetica,sans-Serif" font-size="14.00">err_error5</text>
</g>
<!-- mnt_comp1 -->
<g id="node10" class="node">
<title>mnt_comp1</title>
<path fill="white" stroke="black" d="M86,-360C86,-360 12,-360 12,-360 6,-360 0,-354 0,-348 0,-348 0,-336 0,-336 0,-330 6,-324 12,-324 12,-324 86,-324 86,-324 92,-324 98,-330 98,-336 98,-336 98,-348 98,-348 98,-354 92,-360 86,-360"/>
<text text-anchor="middle" x="49" y="-338.3" font-family="Helvetica,sans-Serif" font-size="14.00">mnt_comp1</text>
</g>
<!-- mnt_comp2 -->
<g id="node11" class="node">
<title>mnt_comp2</title>
<path fill="white" stroke="black" d="M86,-414C86,-414 12,-414 12,-414 6,-414 0,-408 0,-402 0,-402 0,-390 0,-390 0,-384 6,-378 12,-378 12,-378 86,-378 86,-378 92,-378 98,-384 98,-390 98,-390 98,-402 98,-402 98,-408 92,-414 86,-414"/>
<text text-anchor="middle" x="49" y="-392.3" font-family="Helvetica,sans-Serif" font-size="14.00">mnt_comp2</text>
</g>
<!-- mnt_comp3 -->
<g id="node12" class="node">
<title>mnt_comp3</title>
<path fill="white" stroke="black" d="M86,-468C86,-468 12,-468 12,-468 6,-468 0,-462 0,-456 0,-456 0,-444 0,-444 0,-438 6,-432 12,-432 12,-432 86,-432 86,-432 92,-432 98,-438 98,-444 98,-444 98,-456 98,-456 98,-462 92,-468 86,-468"/>
<text text-anchor="middle" x="49" y="-446.3" font-family="Helvetica,sans-Serif" font-size="14.00">mnt_comp3</text>
</g>
<!-- fail_comp2 -->
<g id="node15" class="node">
<title>fail_comp2</title>
<path fill="white" stroke="black" d="M83,-90C83,-90 15,-90 15,-90 9,-90 3,-84 3,-78 3,-78 3,-66 3,-66 3,-60 9,-54 15,-54 15,-54 83,-54 83,-54 89,-54 95,-60 95,-66 95,-66 95,-78 95,-78 95,-84 89,-90 83,-90"/>
<text text-anchor="middle" x="49" y="-68.3" font-family="Helvetica,sans-Serif" font-size="14.00">fail_comp2</text>
</g>
<!-- fail_comp2&#45;&gt;volt -->
<g id="edge4" class="edge">
<title>fail_comp2&#45;&gt;volt</title>
<path fill="none" stroke="black" stroke-width="1.2" d="M90.25,-90.05C101.95,-95.3 114.63,-100.98 126.01,-106.09"/>
<polygon fill="black" stroke="black" stroke-width="1.2" points="124.66,-109.32 135.22,-110.21 127.52,-102.93 124.66,-109.32"/>
</g>
<!-- fail_comp2&#45;&gt;rotate -->
<g id="edge7" class="edge">
<title>fail_comp2&#45;&gt;rotate</title>
<path fill="none" stroke="black" stroke-width="1.2" d="M95.03,-68.77C104.6,-68.08 114.61,-67.36 123.88,-66.7"/>
<polygon fill="black" stroke="black" stroke-width="1.2" points="124.23,-70.18 133.95,-65.98 123.73,-63.2 124.23,-70.18"/>
</g>
</g>
</svg>
