<?xml version="1.0" encoding="UTF-8" standalone="no"?>
<!DOCTYPE svg PUBLIC "-//W3C//DTD SVG 1.1//EN"
 "http://www.w3.org/Graphics/SVG/1.1/DTD/svg11.dtd">
<!-- Generated by graphviz version 2.50.0 (0)
 -->
<!-- Title: G Pages: 1 -->
<svg width="557pt" height="424pt"
 viewBox="0.00 0.00 557.00 424.12" xmlns="http://www.w3.org/2000/svg" xmlns:xlink="http://www.w3.org/1999/xlink">
<g id="graph0" class="graph" transform="scale(1 1) rotate(0) translate(4 420.12)">
<title>G</title>
<polygon fill="white" stroke="transparent" points="-4,4 -4,-420.12 553,-420.12 553,4 -4,4"/>
<text text-anchor="middle" x="274.5" y="-399.32" font-family="Times,serif" font-size="16.00">model=model3/pcmci_mixed.json [machine 3]</text>
<!-- volt -->
<g id="node1" class="node">
<title>volt</title>
<path fill="white" stroke="black" d="M176,-111.12C176,-111.12 146,-111.12 146,-111.12 140,-111.12 134,-105.12 134,-99.12 134,-99.12 134,-87.12 134,-87.12 134,-81.12 140,-75.12 146,-75.12 146,-75.12 176,-75.12 176,-75.12 182,-75.12 188,-81.12 188,-87.12 188,-87.12 188,-99.12 188,-99.12 188,-105.12 182,-111.12 176,-111.12"/>
<text text-anchor="middle" x="161" y="-89.42" font-family="Helvetica,sans-Serif" font-size="14.00">volt</text>
</g>
<!-- err_error1 -->
<g id="node5" class="node">
<title>err_error1</title>
<path fill="white" stroke="black" d="M303.5,-79.12C303.5,-79.12 242.5,-79.12 242.5,-79.12 236.5,-79.12 230.5,-73.12 230.5,-67.12 230.5,-67.12 230.5,-55.12 230.5,-55.12 230.5,-49.12 236.5,-43.12 242.5,-43.12 242.5,-43.12 303.5,-43.12 303.5,-43.12 309.5,-43.12 315.5,-49.12 315.5,-55.12 315.5,-55.12 315.5,-67.12 315.5,-67.12 315.5,-73.12 309.5,-79.12 303.5,-79.12"/>
<text text-anchor="middle" x="273" y="-57.42" font-family="Helvetica,sans-Serif" font-size="14.00">err_error1</text>
</g>
<!-- volt&#45;&gt;err_error1 -->
<g id="edge1" class="edge">
<title>volt&#45;&gt;err_error1</title>
<path fill="none" stroke="black" stroke-width="1.2" d="M188.07,-85.53C197.8,-82.7 209.22,-79.38 220.44,-76.12"/>
<polygon fill="black" stroke="black" stroke-width="1.2" points="221.59,-79.43 230.21,-73.28 219.63,-72.71 221.59,-79.43"/>
</g>
<!-- err_error4 -->
<g id="node8" class="node">
<title>err_error4</title>
<path fill="white" stroke="black" d="M303.5,-133.12C303.5,-133.12 242.5,-133.12 242.5,-133.12 236.5,-133.12 230.5,-127.12 230.5,-121.12 230.5,-121.12 230.5,-109.12 230.5,-109.12 230.5,-103.12 236.5,-97.12 242.5,-97.12 242.5,-97.12 303.5,-97.12 303.5,-97.12 309.5,-97.12 315.5,-103.12 315.5,-109.12 315.5,-109.12 315.5,-121.12 315.5,-121.12 315.5,-127.12 309.5,-133.12 303.5,-133.12"/>
<text text-anchor="middle" x="273" y="-111.42" font-family="Helvetica,sans-Serif" font-size="14.00">err_error4</text>
</g>
<!-- volt&#45;&gt;err_error4 -->
<g id="edge3" class="edge">
<title>volt&#45;&gt;err_error4</title>
<path fill="none" stroke="black" stroke-width="1.2" d="M188.07,-98.33C197.7,-100.26 208.99,-102.52 220.1,-104.74"/>
<polygon fill="black" stroke="black" stroke-width="1.2" points="219.72,-108.23 230.21,-106.76 221.09,-101.37 219.72,-108.23"/>
</g>
<!-- rotate -->
<g id="node2" class="node">
<title>rotate</title>
<path fill="white" stroke="black" d="M403,-179.12C403,-179.12 370,-179.12 370,-179.12 364,-179.12 358,-173.12 358,-167.12 358,-167.12 358,-155.12 358,-155.12 358,-149.12 364,-143.12 370,-143.12 370,-143.12 403,-143.12 403,-143.12 409,-143.12 415,-149.12 415,-155.12 415,-155.12 415,-167.12 415,-167.12 415,-173.12 409,-179.12 403,-179.12"/>
<text text-anchor="middle" x="386.5" y="-157.42" font-family="Helvetica,sans-Serif" font-size="14.00">rotate</text>
</g>
<!-- err_error5 -->
<g id="node9" class="node">
<title>err_error5</title>
<path fill="white" stroke="black" d="M530.5,-206.12C530.5,-206.12 469.5,-206.12 469.5,-206.12 463.5,-206.12 457.5,-200.12 457.5,-194.12 457.5,-194.12 457.5,-182.12 457.5,-182.12 457.5,-176.12 463.5,-170.12 469.5,-170.12 469.5,-170.12 530.5,-170.12 530.5,-170.12 536.5,-170.12 542.5,-176.12 542.5,-182.12 542.5,-182.12 542.5,-194.12 542.5,-194.12 542.5,-200.12 536.5,-206.12 530.5,-206.12"/>
<text text-anchor="middle" x="500" y="-184.42" font-family="Helvetica,sans-Serif" font-size="14.00">err_error5</text>
</g>
<!-- rotate&#45;&gt;err_error5 -->
<g id="edge8" class="edge">
<title>rotate&#45;&gt;err_error5</title>
<path fill="none" stroke="black" stroke-width="1.2" d="M415.06,-167.79C424.94,-170.18 436.42,-172.96 447.65,-175.68"/>
<polygon fill="black" stroke="black" stroke-width="1.2" points="446.88,-179.1 457.42,-178.05 448.52,-172.29 446.88,-179.1"/>
</g>
<!-- mnt_comp1 -->
<g id="node10" class="node">
<title>mnt_comp1</title>
<path fill="white" stroke="black" d="M537,-152.12C537,-152.12 463,-152.12 463,-152.12 457,-152.12 451,-146.12 451,-140.12 451,-140.12 451,-128.12 451,-128.12 451,-122.12 457,-116.12 463,-116.12 463,-116.12 537,-116.12 537,-116.12 543,-116.12 549,-122.12 549,-128.12 549,-128.12 549,-140.12 549,-140.12 549,-146.12 543,-152.12 537,-152.12"/>
<text text-anchor="middle" x="500" y="-130.42" font-family="Helvetica,sans-Serif" font-size="14.00">mnt_comp1</text>
</g>
<!-- rotate&#45;&gt;mnt_comp1 -->
<g id="edge9" class="edge">
<title>rotate&#45;&gt;mnt_comp1</title>
<path fill="none" stroke="black" stroke-width="1.2" d="M415.06,-154.44C423.02,-152.52 432.01,-150.34 441.09,-148.14"/>
<polygon fill="black" stroke="black" stroke-width="1.2" points="442.02,-151.52 450.92,-145.76 440.37,-144.71 442.02,-151.52"/>
</g>
<!-- pressure -->
<g id="node3" class="node">
<title>pressure</title>
<path fill="white" stroke="black" d="M75.5,-228.12C75.5,-228.12 22.5,-228.12 22.5,-228.12 16.5,-228.12 10.5,-222.12 10.5,-216.12 10.5,-216.12 10.5,-204.12 10.5,-204.12 10.5,-198.12 16.5,-192.12 22.5,-192.12 22.5,-192.12 75.5,-192.12 75.5,-192.12 81.5,-192.12 87.5,-198.12 87.5,-204.12 87.5,-204.12 87.5,-216.12 87.5,-216.12 87.5,-222.12 81.5,-228.12 75.5,-228.12"/>
<text text-anchor="middle" x="49" y="-206.42" font-family="Helvetica,sans-Serif" font-size="14.00">pressure</text>
</g>
<!-- vibration -->
<g id="node4" class="node">
<title>vibration</title>
<path fill="white" stroke="black" d="M300,-279.12C300,-279.12 246,-279.12 246,-279.12 240,-279.12 234,-273.12 234,-267.12 234,-267.12 234,-255.12 234,-255.12 234,-249.12 240,-243.12 246,-243.12 246,-243.12 300,-243.12 300,-243.12 306,-243.12 312,-249.12 312,-255.12 312,-255.12 312,-267.12 312,-267.12 312,-273.12 306,-279.12 300,-279.12"/>
<text text-anchor="middle" x="273" y="-257.42" font-family="Helvetica,sans-Serif" font-size="14.00">vibration</text>
</g>
<!-- vibration&#45;&gt;rotate -->
<g id="edge6" class="edge">
<title>vibration&#45;&gt;rotate</title>
<path fill="none" stroke="black" stroke-width="1.2" d="M309.52,-242.99C313.88,-240.24 318.15,-237.26 322,-234.12 338.66,-220.55 354.52,-202.32 366.22,-187.47"/>
<polygon fill="black" stroke="black" stroke-width="1.2" points="369.28,-189.24 372.61,-179.18 363.73,-184.96 369.28,-189.24"/>
</g>
<!-- err_error1&#45;&gt;rotate -->
<g id="edge7" class="edge">
<title>err_error1&#45;&gt;rotate</title>
<path fill="none" stroke="black" stroke-width="1.2" d="M309.52,-79.25C313.88,-82 318.15,-84.98 322,-88.12 338.66,-101.69 354.52,-119.92 366.22,-134.77"/>
<polygon fill="black" stroke="black" stroke-width="1.2" points="363.73,-137.27 372.61,-143.06 369.28,-133 363.73,-137.27"/>
</g>
<!-- err_error2 -->
<g id="node6" class="node">
<title>err_error2</title>
<path fill="white" stroke="black" d="M79.5,-111.12C79.5,-111.12 18.5,-111.12 18.5,-111.12 12.5,-111.12 6.5,-105.12 6.5,-99.12 6.5,-99.12 6.5,-87.12 6.5,-87.12 6.5,-81.12 12.5,-75.12 18.5,-75.12 18.5,-75.12 79.5,-75.12 79.5,-75.12 85.5,-75.12 91.5,-81.12 91.5,-87.12 91.5,-87.12 91.5,-99.12 91.5,-99.12 91.5,-105.12 85.5,-111.12 79.5,-111.12"/>
<text text-anchor="middle" x="49" y="-89.42" font-family="Helvetica,sans-Serif" font-size="14.00">err_error2</text>
</g>
<!-- err_error2&#45;&gt;volt -->
<g id="edge2" class="edge">
<title>err_error2&#45;&gt;volt</title>
<path fill="none" stroke="black" stroke-width="1.2" d="M91.59,-93.12C102.15,-93.12 113.42,-93.12 123.7,-93.12"/>
<polygon fill="black" stroke="black" stroke-width="1.2" points="123.99,-96.62 133.99,-93.12 123.99,-89.62 123.99,-96.62"/>
</g>
<!-- err_error3 -->
<g id="node7" class="node">
<title>err_error3</title>
<path fill="white" stroke="black" d="M79.5,-282.12C79.5,-282.12 18.5,-282.12 18.5,-282.12 12.5,-282.12 6.5,-276.12 6.5,-270.12 6.5,-270.12 6.5,-258.12 6.5,-258.12 6.5,-252.12 12.5,-246.12 18.5,-246.12 18.5,-246.12 79.5,-246.12 79.5,-246.12 85.5,-246.12 91.5,-252.12 91.5,-258.12 91.5,-258.12 91.5,-270.12 91.5,-270.12 91.5,-276.12 85.5,-282.12 79.5,-282.12"/>
<text text-anchor="middle" x="49" y="-260.42" font-family="Helvetica,sans-Serif" font-size="14.00">err_error3</text>
</g>
<!-- mnt_comp2 -->
<g id="node11" class="node">
<title>mnt_comp2</title>
<path fill="white" stroke="black" d="M86,-336.12C86,-336.12 12,-336.12 12,-336.12 6,-336.12 0,-330.12 0,-324.12 0,-324.12 0,-312.12 0,-312.12 0,-306.12 6,-300.12 12,-300.12 12,-300.12 86,-300.12 86,-300.12 92,-300.12 98,-306.12 98,-312.12 98,-312.12 98,-324.12 98,-324.12 98,-330.12 92,-336.12 86,-336.12"/>
<text text-anchor="middle" x="49" y="-314.42" font-family="Helvetica,sans-Serif" font-size="14.00">mnt_comp2</text>
</g>
<!-- mnt_comp3 -->
<g id="node12" class="node">
<title>mnt_comp3</title>
<path fill="white" stroke="black" d="M310,-225.12C310,-225.12 236,-225.12 236,-225.12 230,-225.12 224,-219.12 224,-213.12 224,-213.12 224,-201.12 224,-201.12 224,-195.12 230,-189.12 236,-189.12 236,-189.12 310,-189.12 310,-189.12 316,-189.12 322,-195.12 322,-201.12 322,-201.12 322,-213.12 322,-213.12 322,-219.12 316,-225.12 310,-225.12"/>
<text text-anchor="middle" x="273" y="-203.42" font-family="Helvetica,sans-Serif" font-size="14.00">mnt_comp3</text>
</g>
<!-- mnt_comp3&#45;&gt;rotate -->
<g id="edge10" class="edge">
<title>mnt_comp3&#45;&gt;rotate</title>
<path fill="none" stroke="black" stroke-width="1.2" d="M317.75,-189.07C327.91,-184.88 338.62,-180.46 348.46,-176.4"/>
<polygon fill="black" stroke="black" stroke-width="1.2" points="350.04,-179.53 357.95,-172.48 347.37,-173.06 350.04,-179.53"/>
</g>
<!-- mnt_comp4 -->
<g id="node13" class="node">
<title>mnt_comp4</title>
<path fill="white" stroke="black" d="M86,-174.12C86,-174.12 12,-174.12 12,-174.12 6,-174.12 0,-168.12 0,-162.12 0,-162.12 0,-150.12 0,-150.12 0,-144.12 6,-138.12 12,-138.12 12,-138.12 86,-138.12 86,-138.12 92,-138.12 98,-144.12 98,-150.12 98,-150.12 98,-162.12 98,-162.12 98,-168.12 92,-174.12 86,-174.12"/>
<text text-anchor="middle" x="49" y="-152.42" font-family="Helvetica,sans-Serif" font-size="14.00">mnt_comp4</text>
</g>
<!-- mnt_comp4&#45;&gt;volt -->
<g id="edge4" class="edge">
<title>mnt_comp4&#45;&gt;volt</title>
<path fill="none" stroke="black" stroke-width="1.2" d="M81.52,-138.06C95.06,-130.31 110.94,-121.22 124.86,-113.25"/>
<polygon fill="black" stroke="black" stroke-width="1.2" points="126.74,-116.2 133.68,-108.19 123.26,-110.13 126.74,-116.2"/>
</g>
<!-- mnt_comp4&#45;&gt;rotate -->
<g id="edge11" class="edge">
<title>mnt_comp4&#45;&gt;rotate</title>
<path fill="none" stroke="black" stroke-width="1.2" d="M98.07,-156.83C165.38,-157.84 286.34,-159.64 347.66,-160.55"/>
<polygon fill="black" stroke="black" stroke-width="1.2" points="347.63,-164.05 357.68,-160.7 347.73,-157.05 347.63,-164.05"/>
</g>
<!-- fail_comp1 -->
<g id="node14" class="node">
<title>fail_comp1</title>
<path fill="white" stroke="black" d="M83,-38.12C83,-38.12 15,-38.12 15,-38.12 9,-38.12 3,-32.12 3,-26.12 3,-26.12 3,-14.12 3,-14.12 3,-8.12 9,-2.12 15,-2.12 15,-2.12 83,-2.12 83,-2.12 89,-2.12 95,-8.12 95,-14.12 95,-14.12 95,-26.12 95,-26.12 95,-32.12 89,-38.12 83,-38.12"/>
<text text-anchor="middle" x="49" y="-16.42" font-family="Helvetica,sans-Serif" font-size="14.00">fail_comp1</text>
</g>
<!-- fail_comp1&#45;&gt;volt -->
<g id="edge5" class="edge">
<title>fail_comp1&#45;&gt;volt</title>
<path fill="none" stroke="black" stroke-width="1.2" d="M77.19,-38.16C91.79,-47.85 109.94,-59.9 125.52,-70.24"/>
<polygon fill="black" stroke="black" stroke-width="1.2" points="123.61,-73.17 133.88,-75.78 127.48,-67.34 123.61,-73.17"/>
</g>
<!-- fail_comp1&#45;&gt;rotate -->
<g id="edge12" class="edge">
<title>fail_comp1&#45;&gt;rotate</title>
<path fill="none" stroke="black" stroke-width="1.2" d="M95.15,-9.55C152.81,1.26 253.35,10.79 322,-34.12 356.14,-56.45 372.68,-102.98 380.1,-133.09"/>
<polygon fill="black" stroke="black" stroke-width="1.2" points="376.72,-134.02 382.36,-142.99 383.55,-132.46 376.72,-134.02"/>
</g>
<!-- fail_comp2 -->
<g id="node15" class="node">
<title>fail_comp2</title>
<path fill="white" stroke="black" d="M83,-390.12C83,-390.12 15,-390.12 15,-390.12 9,-390.12 3,-384.12 3,-378.12 3,-378.12 3,-366.12 3,-366.12 3,-360.12 9,-354.12 15,-354.12 15,-354.12 83,-354.12 83,-354.12 89,-354.12 95,-360.12 95,-366.12 95,-366.12 95,-378.12 95,-378.12 95,-384.12 89,-390.12 83,-390.12"/>
<text text-anchor="middle" x="49" y="-368.42" font-family="Helvetica,sans-Serif" font-size="14.00">fail_comp2</text>
</g>
</g>
</svg>
