<?xml version="1.0" encoding="UTF-8" standalone="no"?>
<!DOCTYPE svg PUBLIC "-//W3C//DTD SVG 1.1//EN"
 "http://www.w3.org/Graphics/SVG/1.1/DTD/svg11.dtd">
<!-- Generated by graphviz version 2.50.0 (0)
 -->
<!-- Title: G Pages: 1 -->
<svg width="502pt" height="594pt"
 viewBox="0.00 0.00 502.00 593.96" xmlns="http://www.w3.org/2000/svg" xmlns:xlink="http://www.w3.org/1999/xlink">
<g id="graph0" class="graph" transform="scale(1 1) rotate(0) translate(4 589.96)">
<title>G</title>
<polygon fill="white" stroke="transparent" points="-4,4 -4,-589.96 498,-589.96 498,4 -4,4"/>
<text text-anchor="middle" x="247" y="-569.16" font-family="Times,serif" font-size="16.00">model=model4/pcmci_mixed.json [machine 63]</text>
<!-- volt -->
<g id="node1" class="node">
<title>volt</title>
<path fill="white" stroke="black" d="M64,-105.96C64,-105.96 34,-105.96 34,-105.96 28,-105.96 22,-99.96 22,-93.96 22,-93.96 22,-81.96 22,-81.96 22,-75.96 28,-69.96 34,-69.96 34,-69.96 64,-69.96 64,-69.96 70,-69.96 76,-75.96 76,-81.96 76,-81.96 76,-93.96 76,-93.96 76,-99.96 70,-105.96 64,-105.96"/>
<text text-anchor="middle" x="49" y="-84.26" font-family="Helvetica,sans-Serif" font-size="14.00">volt</text>
</g>
<!-- pressure -->
<g id="node3" class="node">
<title>pressure</title>
<path fill="white" stroke="black" d="M209.5,-197.96C209.5,-197.96 156.5,-197.96 156.5,-197.96 150.5,-197.96 144.5,-191.96 144.5,-185.96 144.5,-185.96 144.5,-173.96 144.5,-173.96 144.5,-167.96 150.5,-161.96 156.5,-161.96 156.5,-161.96 209.5,-161.96 209.5,-161.96 215.5,-161.96 221.5,-167.96 221.5,-173.96 221.5,-173.96 221.5,-185.96 221.5,-185.96 221.5,-191.96 215.5,-197.96 209.5,-197.96"/>
<text text-anchor="middle" x="183" y="-176.26" font-family="Helvetica,sans-Serif" font-size="14.00">pressure</text>
</g>
<!-- volt&#45;&gt;pressure -->
<g id="edge1" class="edge">
<title>volt&#45;&gt;pressure</title>
<path fill="none" stroke="black" stroke-width="1.2" d="M74.85,-106.03C91.49,-118.05 113.94,-134.12 134,-147.96 137.92,-150.67 142.03,-153.47 146.14,-156.24"/>
<polygon fill="black" stroke="black" stroke-width="1.2" points="144.23,-159.17 154.48,-161.84 148.13,-153.36 144.23,-159.17"/>
</g>
<!-- err_error3 -->
<g id="node7" class="node">
<title>err_error3</title>
<path fill="white" stroke="black" d="M213.5,-105.96C213.5,-105.96 152.5,-105.96 152.5,-105.96 146.5,-105.96 140.5,-99.96 140.5,-93.96 140.5,-93.96 140.5,-81.96 140.5,-81.96 140.5,-75.96 146.5,-69.96 152.5,-69.96 152.5,-69.96 213.5,-69.96 213.5,-69.96 219.5,-69.96 225.5,-75.96 225.5,-81.96 225.5,-81.96 225.5,-93.96 225.5,-93.96 225.5,-99.96 219.5,-105.96 213.5,-105.96"/>
<text text-anchor="middle" x="183" y="-84.26" font-family="Helvetica,sans-Serif" font-size="14.00">err_error3</text>
</g>
<!-- volt&#45;&gt;err_error3 -->
<g id="edge3" class="edge">
<title>volt&#45;&gt;err_error3</title>
<path fill="none" stroke="black" stroke-width="1.2" d="M76.08,-87.96C91.55,-87.96 111.7,-87.96 130.27,-87.96"/>
<polygon fill="black" stroke="black" stroke-width="1.2" points="130.39,-91.46 140.39,-87.96 130.39,-84.46 130.39,-91.46"/>
</g>
<!-- fail_comp1 -->
<g id="node14" class="node">
<title>fail_comp1</title>
<path fill="white" stroke="black" d="M482,-305.96C482,-305.96 414,-305.96 414,-305.96 408,-305.96 402,-299.96 402,-293.96 402,-293.96 402,-281.96 402,-281.96 402,-275.96 408,-269.96 414,-269.96 414,-269.96 482,-269.96 482,-269.96 488,-269.96 494,-275.96 494,-281.96 494,-281.96 494,-293.96 494,-293.96 494,-299.96 488,-305.96 482,-305.96"/>
<text text-anchor="middle" x="448" y="-284.26" font-family="Helvetica,sans-Serif" font-size="14.00">fail_comp1</text>
</g>
<!-- volt&#45;&gt;fail_comp1 -->
<g id="edge4" class="edge">
<title>volt&#45;&gt;fail_comp1</title>
<path fill="none" stroke="black" stroke-width="1.2" d="M76.34,-77.16C92.64,-71.07 114.18,-64.07 134,-60.96 237.22,-44.78 287.52,-29.98 366,-98.96 391.29,-121.2 423.3,-213.3 438.38,-260.22"/>
<polygon fill="black" stroke="black" stroke-width="1.2" points="435.06,-261.31 441.42,-269.78 441.73,-259.19 435.06,-261.31"/>
</g>
<!-- fail_comp2 -->
<g id="node15" class="node">
<title>fail_comp2</title>
<path fill="white" stroke="black" d="M482,-136.96C482,-136.96 414,-136.96 414,-136.96 408,-136.96 402,-130.96 402,-124.96 402,-124.96 402,-112.96 402,-112.96 402,-106.96 408,-100.96 414,-100.96 414,-100.96 482,-100.96 482,-100.96 488,-100.96 494,-106.96 494,-112.96 494,-112.96 494,-124.96 494,-124.96 494,-130.96 488,-136.96 482,-136.96"/>
<text text-anchor="middle" x="448" y="-115.26" font-family="Helvetica,sans-Serif" font-size="14.00">fail_comp2</text>
</g>
<!-- volt&#45;&gt;fail_comp2 -->
<g id="edge5" class="edge">
<title>volt&#45;&gt;fail_comp2</title>
<path fill="none" stroke="black" stroke-width="1.2" d="M68.11,-69.84C83.96,-55.36 108.4,-36.17 134,-27.96 232.19,3.5 271.92,14.24 366,-27.96 395.17,-41.05 418.14,-70.42 432.05,-92.27"/>
<polygon fill="black" stroke="black" stroke-width="1.2" points="429.08,-94.11 437.28,-100.81 435.05,-90.45 429.08,-94.11"/>
</g>
<!-- rotate -->
<g id="node2" class="node">
<title>rotate</title>
<path fill="white" stroke="black" d="M333.5,-305.96C333.5,-305.96 300.5,-305.96 300.5,-305.96 294.5,-305.96 288.5,-299.96 288.5,-293.96 288.5,-293.96 288.5,-281.96 288.5,-281.96 288.5,-275.96 294.5,-269.96 300.5,-269.96 300.5,-269.96 333.5,-269.96 333.5,-269.96 339.5,-269.96 345.5,-275.96 345.5,-281.96 345.5,-281.96 345.5,-293.96 345.5,-293.96 345.5,-299.96 339.5,-305.96 333.5,-305.96"/>
<text text-anchor="middle" x="317" y="-284.26" font-family="Helvetica,sans-Serif" font-size="14.00">rotate</text>
</g>
<!-- rotate&#45;&gt;fail_comp1 -->
<g id="edge12" class="edge">
<title>rotate&#45;&gt;fail_comp1</title>
<path fill="none" stroke="black" stroke-width="1.2" d="M345.67,-287.96C359.09,-287.96 375.72,-287.96 391.59,-287.96"/>
<polygon fill="black" stroke="black" stroke-width="1.2" points="391.87,-291.46 401.87,-287.96 391.87,-284.46 391.87,-291.46"/>
</g>
<!-- rotate&#45;&gt;fail_comp2 -->
<g id="edge13" class="edge">
<title>rotate&#45;&gt;fail_comp2</title>
<path fill="none" stroke="black" stroke-width="1.2" d="M345.67,-275.73C352.84,-271.71 360.17,-266.76 366,-260.96 399.6,-227.56 423.82,-177.34 436.61,-146.44"/>
<polygon fill="black" stroke="black" stroke-width="1.2" points="439.87,-147.71 440.36,-137.13 433.38,-145.1 439.87,-147.71"/>
</g>
<!-- pressure&#45;&gt;rotate -->
<g id="edge6" class="edge">
<title>pressure&#45;&gt;rotate</title>
<path fill="none" stroke="black" stroke-width="1.2" d="M220.9,-198.29C224.84,-200.94 228.63,-203.84 232,-206.96 253.15,-226.57 246.85,-241.35 268,-260.96 271.54,-264.24 275.55,-267.28 279.7,-270.04"/>
<polygon fill="black" stroke="black" stroke-width="1.2" points="277.98,-273.09 288.34,-275.31 281.63,-267.12 277.98,-273.09"/>
</g>
<!-- err_error1 -->
<g id="node5" class="node">
<title>err_error1</title>
<path fill="white" stroke="black" d="M347.5,-143.96C347.5,-143.96 286.5,-143.96 286.5,-143.96 280.5,-143.96 274.5,-137.96 274.5,-131.96 274.5,-131.96 274.5,-119.96 274.5,-119.96 274.5,-113.96 280.5,-107.96 286.5,-107.96 286.5,-107.96 347.5,-107.96 347.5,-107.96 353.5,-107.96 359.5,-113.96 359.5,-119.96 359.5,-119.96 359.5,-131.96 359.5,-131.96 359.5,-137.96 353.5,-143.96 347.5,-143.96"/>
<text text-anchor="middle" x="317" y="-122.26" font-family="Helvetica,sans-Serif" font-size="14.00">err_error1</text>
</g>
<!-- pressure&#45;&gt;err_error1 -->
<g id="edge14" class="edge">
<title>pressure&#45;&gt;err_error1</title>
<path fill="none" stroke="black" stroke-width="1.2" d="M221.83,-164.49C235.32,-158.97 250.76,-152.65 265.17,-146.76"/>
<polygon fill="black" stroke="black" stroke-width="1.2" points="266.54,-149.98 274.47,-142.95 263.89,-143.5 266.54,-149.98"/>
</g>
<!-- mnt_comp4 -->
<g id="node13" class="node">
<title>mnt_comp4</title>
<path fill="white" stroke="black" d="M354,-197.96C354,-197.96 280,-197.96 280,-197.96 274,-197.96 268,-191.96 268,-185.96 268,-185.96 268,-173.96 268,-173.96 268,-167.96 274,-161.96 280,-161.96 280,-161.96 354,-161.96 354,-161.96 360,-161.96 366,-167.96 366,-173.96 366,-173.96 366,-185.96 366,-185.96 366,-191.96 360,-197.96 354,-197.96"/>
<text text-anchor="middle" x="317" y="-176.26" font-family="Helvetica,sans-Serif" font-size="14.00">mnt_comp4</text>
</g>
<!-- pressure&#45;&gt;mnt_comp4 -->
<g id="edge15" class="edge">
<title>pressure&#45;&gt;mnt_comp4</title>
<path fill="none" stroke="black" stroke-width="1.2" d="M221.83,-179.96C233.02,-179.96 245.53,-179.96 257.7,-179.96"/>
<polygon fill="black" stroke="black" stroke-width="1.2" points="257.8,-183.46 267.8,-179.96 257.8,-176.46 257.8,-183.46"/>
</g>
<!-- fail_comp4 -->
<g id="node16" class="node">
<title>fail_comp4</title>
<path fill="white" stroke="black" d="M351,-251.96C351,-251.96 283,-251.96 283,-251.96 277,-251.96 271,-245.96 271,-239.96 271,-239.96 271,-227.96 271,-227.96 271,-221.96 277,-215.96 283,-215.96 283,-215.96 351,-215.96 351,-215.96 357,-215.96 363,-221.96 363,-227.96 363,-227.96 363,-239.96 363,-239.96 363,-245.96 357,-251.96 351,-251.96"/>
<text text-anchor="middle" x="317" y="-230.26" font-family="Helvetica,sans-Serif" font-size="14.00">fail_comp4</text>
</g>
<!-- pressure&#45;&gt;fail_comp4 -->
<g id="edge16" class="edge">
<title>pressure&#45;&gt;fail_comp4</title>
<path fill="none" stroke="black" stroke-width="1.2" d="M221.83,-195.44C234.45,-200.6 248.77,-206.46 262.37,-212.02"/>
<polygon fill="black" stroke="black" stroke-width="1.2" points="261.05,-215.27 271.64,-215.81 263.71,-208.79 261.05,-215.27"/>
</g>
<!-- vibration -->
<g id="node4" class="node">
<title>vibration</title>
<path fill="white" stroke="black" d="M76,-451.96C76,-451.96 22,-451.96 22,-451.96 16,-451.96 10,-445.96 10,-439.96 10,-439.96 10,-427.96 10,-427.96 10,-421.96 16,-415.96 22,-415.96 22,-415.96 76,-415.96 76,-415.96 82,-415.96 88,-421.96 88,-427.96 88,-427.96 88,-439.96 88,-439.96 88,-445.96 82,-451.96 76,-451.96"/>
<text text-anchor="middle" x="49" y="-430.26" font-family="Helvetica,sans-Serif" font-size="14.00">vibration</text>
</g>
<!-- vibration&#45;&gt;rotate -->
<g id="edge7" class="edge">
<title>vibration&#45;&gt;rotate</title>
<path fill="none" stroke="black" stroke-width="1.2" d="M88.11,-421.31C137.67,-404.71 219.42,-376.77 232,-368.96 256.04,-354.06 278.84,-331.32 294.61,-313.72"/>
<polygon fill="black" stroke="black" stroke-width="1.2" points="297.37,-315.87 301.33,-306.05 292.11,-311.26 297.37,-315.87"/>
</g>
<!-- mnt_comp2 -->
<g id="node11" class="node">
<title>mnt_comp2</title>
<path fill="white" stroke="black" d="M220,-451.96C220,-451.96 146,-451.96 146,-451.96 140,-451.96 134,-445.96 134,-439.96 134,-439.96 134,-427.96 134,-427.96 134,-421.96 140,-415.96 146,-415.96 146,-415.96 220,-415.96 220,-415.96 226,-415.96 232,-421.96 232,-427.96 232,-427.96 232,-439.96 232,-439.96 232,-445.96 226,-451.96 220,-451.96"/>
<text text-anchor="middle" x="183" y="-430.26" font-family="Helvetica,sans-Serif" font-size="14.00">mnt_comp2</text>
</g>
<!-- vibration&#45;&gt;mnt_comp2 -->
<g id="edge17" class="edge">
<title>vibration&#45;&gt;mnt_comp2</title>
<path fill="none" stroke="black" stroke-width="1.2" d="M88.18,-433.96C99.13,-433.96 111.34,-433.96 123.23,-433.96"/>
<polygon fill="black" stroke="black" stroke-width="1.2" points="123.55,-437.46 133.55,-433.96 123.55,-430.46 123.55,-437.46"/>
</g>
<!-- vibration&#45;&gt;fail_comp1 -->
<g id="edge18" class="edge">
<title>vibration&#45;&gt;fail_comp1</title>
<path fill="none" stroke="black" stroke-width="1.2" d="M88.31,-450.05C125.86,-463.43 184.25,-477.79 232,-460.96 315.49,-431.54 390.46,-354.47 425.72,-313.86"/>
<polygon fill="black" stroke="black" stroke-width="1.2" points="428.59,-315.89 432.43,-306.01 423.27,-311.34 428.59,-315.89"/>
</g>
<!-- err_error1&#45;&gt;volt -->
<g id="edge2" class="edge">
<title>err_error1&#45;&gt;volt</title>
<path fill="none" stroke="black" stroke-width="1.2" d="M274.44,-126.4C237.31,-126.09 181.6,-123.91 134,-114.96 117.85,-111.93 100.49,-106.7 85.77,-101.65"/>
<polygon fill="black" stroke="black" stroke-width="1.2" points="86.64,-98.24 76.04,-98.2 84.3,-104.84 86.64,-98.24"/>
</g>
<!-- err_error2 -->
<g id="node6" class="node">
<title>err_error2</title>
<path fill="white" stroke="black" d="M213.5,-359.96C213.5,-359.96 152.5,-359.96 152.5,-359.96 146.5,-359.96 140.5,-353.96 140.5,-347.96 140.5,-347.96 140.5,-335.96 140.5,-335.96 140.5,-329.96 146.5,-323.96 152.5,-323.96 152.5,-323.96 213.5,-323.96 213.5,-323.96 219.5,-323.96 225.5,-329.96 225.5,-335.96 225.5,-335.96 225.5,-347.96 225.5,-347.96 225.5,-353.96 219.5,-359.96 213.5,-359.96"/>
<text text-anchor="middle" x="183" y="-338.26" font-family="Helvetica,sans-Serif" font-size="14.00">err_error2</text>
</g>
<!-- err_error2&#45;&gt;rotate -->
<g id="edge8" class="edge">
<title>err_error2&#45;&gt;rotate</title>
<path fill="none" stroke="black" stroke-width="1.2" d="M225.77,-324.88C242.81,-317.9 262.37,-309.91 278.9,-303.14"/>
<polygon fill="black" stroke="black" stroke-width="1.2" points="280.32,-306.34 288.25,-299.32 277.67,-299.86 280.32,-306.34"/>
</g>
<!-- err_error4 -->
<g id="node8" class="node">
<title>err_error4</title>
<path fill="white" stroke="black" d="M213.5,-305.96C213.5,-305.96 152.5,-305.96 152.5,-305.96 146.5,-305.96 140.5,-299.96 140.5,-293.96 140.5,-293.96 140.5,-281.96 140.5,-281.96 140.5,-275.96 146.5,-269.96 152.5,-269.96 152.5,-269.96 213.5,-269.96 213.5,-269.96 219.5,-269.96 225.5,-275.96 225.5,-281.96 225.5,-281.96 225.5,-293.96 225.5,-293.96 225.5,-299.96 219.5,-305.96 213.5,-305.96"/>
<text text-anchor="middle" x="183" y="-284.26" font-family="Helvetica,sans-Serif" font-size="14.00">err_error4</text>
</g>
<!-- err_error4&#45;&gt;rotate -->
<g id="edge9" class="edge">
<title>err_error4&#45;&gt;rotate</title>
<path fill="none" stroke="black" stroke-width="1.2" d="M225.77,-287.96C242.49,-287.96 261.64,-287.96 277.97,-287.96"/>
<polygon fill="black" stroke="black" stroke-width="1.2" points="278.25,-291.46 288.25,-287.96 278.25,-284.46 278.25,-291.46"/>
</g>
<!-- err_error5 -->
<g id="node9" class="node">
<title>err_error5</title>
<path fill="white" stroke="black" d="M79.5,-505.96C79.5,-505.96 18.5,-505.96 18.5,-505.96 12.5,-505.96 6.5,-499.96 6.5,-493.96 6.5,-493.96 6.5,-481.96 6.5,-481.96 6.5,-475.96 12.5,-469.96 18.5,-469.96 18.5,-469.96 79.5,-469.96 79.5,-469.96 85.5,-469.96 91.5,-475.96 91.5,-481.96 91.5,-481.96 91.5,-493.96 91.5,-493.96 91.5,-499.96 85.5,-505.96 79.5,-505.96"/>
<text text-anchor="middle" x="49" y="-484.26" font-family="Helvetica,sans-Serif" font-size="14.00">err_error5</text>
</g>
<!-- mnt_comp1 -->
<g id="node10" class="node">
<title>mnt_comp1</title>
<path fill="white" stroke="black" d="M220,-251.96C220,-251.96 146,-251.96 146,-251.96 140,-251.96 134,-245.96 134,-239.96 134,-239.96 134,-227.96 134,-227.96 134,-221.96 140,-215.96 146,-215.96 146,-215.96 220,-215.96 220,-215.96 226,-215.96 232,-221.96 232,-227.96 232,-227.96 232,-239.96 232,-239.96 232,-245.96 226,-251.96 220,-251.96"/>
<text text-anchor="middle" x="183" y="-230.26" font-family="Helvetica,sans-Serif" font-size="14.00">mnt_comp1</text>
</g>
<!-- mnt_comp1&#45;&gt;rotate -->
<g id="edge10" class="edge">
<title>mnt_comp1&#45;&gt;rotate</title>
<path fill="none" stroke="black" stroke-width="1.2" d="M228.32,-252.1C244.7,-258.79 263.07,-266.31 278.76,-272.73"/>
<polygon fill="black" stroke="black" stroke-width="1.2" points="277.55,-276.02 288.13,-276.56 280.2,-269.54 277.55,-276.02"/>
</g>
<!-- mnt_comp2&#45;&gt;rotate -->
<g id="edge11" class="edge">
<title>mnt_comp2&#45;&gt;rotate</title>
<path fill="none" stroke="black" stroke-width="1.2" d="M214.66,-415.85C220.7,-411.65 226.78,-406.94 232,-401.96 259.6,-375.63 284.61,-339.33 300.02,-314.83"/>
<polygon fill="black" stroke="black" stroke-width="1.2" points="303.16,-316.41 305.44,-306.06 297.21,-312.72 303.16,-316.41"/>
</g>
<!-- mnt_comp3 -->
<g id="node12" class="node">
<title>mnt_comp3</title>
<path fill="white" stroke="black" d="M86,-559.96C86,-559.96 12,-559.96 12,-559.96 6,-559.96 0,-553.96 0,-547.96 0,-547.96 0,-535.96 0,-535.96 0,-529.96 6,-523.96 12,-523.96 12,-523.96 86,-523.96 86,-523.96 92,-523.96 98,-529.96 98,-535.96 98,-535.96 98,-547.96 98,-547.96 98,-553.96 92,-559.96 86,-559.96"/>
<text text-anchor="middle" x="49" y="-538.26" font-family="Helvetica,sans-Serif" font-size="14.00">mnt_comp3</text>
</g>
</g>
</svg>
