<?xml version="1.0" encoding="UTF-8" standalone="no"?>
<!DOCTYPE svg PUBLIC "-//W3C//DTD SVG 1.1//EN"
 "http://www.w3.org/Graphics/SVG/1.1/DTD/svg11.dtd">
<!-- Generated by graphviz version 2.50.0 (0)
 -->
<!-- Title: G Pages: 1 -->
<svg width="772pt" height="502pt"
 viewBox="0.00 0.00 772.00 502.24" xmlns="http://www.w3.org/2000/svg" xmlns:xlink="http://www.w3.org/1999/xlink">
<g id="graph0" class="graph" transform="scale(1 1) rotate(0) translate(4 498.24)">
<title>G</title>
<polygon fill="white" stroke="transparent" points="-4,4 -4,-498.24 768,-498.24 768,4 -4,4"/>
<text text-anchor="middle" x="382" y="-477.44" font-family="Times,serif" font-size="16.00">model=model2/pcmci_mixed.json [machine 40]</text>
<!-- volt -->
<g id="node1" class="node">
<title>volt</title>
<path fill="white" stroke="black" d="M176,-90.24C176,-90.24 146,-90.24 146,-90.24 140,-90.24 134,-84.24 134,-78.24 134,-78.24 134,-66.24 134,-66.24 134,-60.24 140,-54.24 146,-54.24 146,-54.24 176,-54.24 176,-54.24 182,-54.24 188,-60.24 188,-66.24 188,-66.24 188,-78.24 188,-78.24 188,-84.24 182,-90.24 176,-90.24"/>
<text text-anchor="middle" x="161" y="-68.54" font-family="Helvetica,sans-Serif" font-size="14.00">volt</text>
</g>
<!-- vibration -->
<g id="node4" class="node">
<title>vibration</title>
<path fill="white" stroke="black" d="M290,-114.24C290,-114.24 236,-114.24 236,-114.24 230,-114.24 224,-108.24 224,-102.24 224,-102.24 224,-90.24 224,-90.24 224,-84.24 230,-78.24 236,-78.24 236,-78.24 290,-78.24 290,-78.24 296,-78.24 302,-84.24 302,-90.24 302,-90.24 302,-102.24 302,-102.24 302,-108.24 296,-114.24 290,-114.24"/>
<text text-anchor="middle" x="263" y="-92.54" font-family="Helvetica,sans-Serif" font-size="14.00">vibration</text>
</g>
<!-- volt&#45;&gt;vibration -->
<g id="edge2" class="edge">
<title>volt&#45;&gt;vibration</title>
<path fill="none" stroke="black" stroke-width="1.2" d="M188.01,-78.48C195.92,-80.38 204.87,-82.53 213.75,-84.66"/>
<polygon fill="black" stroke="black" stroke-width="1.2" points="213.14,-88.11 223.68,-87.04 214.78,-81.31 213.14,-88.11"/>
</g>
<!-- rotate -->
<g id="node2" class="node">
<title>rotate</title>
<path fill="white" stroke="black" d="M624,-89.24C624,-89.24 591,-89.24 591,-89.24 585,-89.24 579,-83.24 579,-77.24 579,-77.24 579,-65.24 579,-65.24 579,-59.24 585,-53.24 591,-53.24 591,-53.24 624,-53.24 624,-53.24 630,-53.24 636,-59.24 636,-65.24 636,-65.24 636,-77.24 636,-77.24 636,-83.24 630,-89.24 624,-89.24"/>
<text text-anchor="middle" x="607.5" y="-67.54" font-family="Helvetica,sans-Serif" font-size="14.00">rotate</text>
</g>
<!-- rotate&#45;&gt;volt -->
<g id="edge1" class="edge">
<title>rotate&#45;&gt;volt</title>
<path fill="none" stroke="black" stroke-width="1.2" d="M591.66,-53.14C579.96,-40.39 562.42,-24.38 543,-17.24 421.94,27.28 266.85,-26.59 197.86,-55.8"/>
<polygon fill="black" stroke="black" stroke-width="1.2" points="196.12,-52.74 188.32,-59.92 198.89,-59.17 196.12,-52.74"/>
</g>
<!-- fail_comp2 -->
<g id="node15" class="node">
<title>fail_comp2</title>
<path fill="white" stroke="black" d="M752,-112.24C752,-112.24 684,-112.24 684,-112.24 678,-112.24 672,-106.24 672,-100.24 672,-100.24 672,-88.24 672,-88.24 672,-82.24 678,-76.24 684,-76.24 684,-76.24 752,-76.24 752,-76.24 758,-76.24 764,-82.24 764,-88.24 764,-88.24 764,-100.24 764,-100.24 764,-106.24 758,-112.24 752,-112.24"/>
<text text-anchor="middle" x="718" y="-90.54" font-family="Helvetica,sans-Serif" font-size="14.00">fail_comp2</text>
</g>
<!-- rotate&#45;&gt;fail_comp2 -->
<g id="edge7" class="edge">
<title>rotate&#45;&gt;fail_comp2</title>
<path fill="none" stroke="black" stroke-width="1.2" d="M636.16,-77.1C644.01,-78.77 652.84,-80.64 661.71,-82.52"/>
<polygon fill="black" stroke="black" stroke-width="1.2" points="661.18,-85.98 671.69,-84.63 662.63,-79.14 661.18,-85.98"/>
</g>
<!-- pressure -->
<g id="node3" class="node">
<title>pressure</title>
<path fill="white" stroke="black" d="M403,-114.24C403,-114.24 350,-114.24 350,-114.24 344,-114.24 338,-108.24 338,-102.24 338,-102.24 338,-90.24 338,-90.24 338,-84.24 344,-78.24 350,-78.24 350,-78.24 403,-78.24 403,-78.24 409,-78.24 415,-84.24 415,-90.24 415,-90.24 415,-102.24 415,-102.24 415,-108.24 409,-114.24 403,-114.24"/>
<text text-anchor="middle" x="376.5" y="-92.54" font-family="Helvetica,sans-Serif" font-size="14.00">pressure</text>
</g>
<!-- err_error1 -->
<g id="node5" class="node">
<title>err_error1</title>
<path fill="white" stroke="black" d="M527.5,-208.24C527.5,-208.24 466.5,-208.24 466.5,-208.24 460.5,-208.24 454.5,-202.24 454.5,-196.24 454.5,-196.24 454.5,-184.24 454.5,-184.24 454.5,-178.24 460.5,-172.24 466.5,-172.24 466.5,-172.24 527.5,-172.24 527.5,-172.24 533.5,-172.24 539.5,-178.24 539.5,-184.24 539.5,-184.24 539.5,-196.24 539.5,-196.24 539.5,-202.24 533.5,-208.24 527.5,-208.24"/>
<text text-anchor="middle" x="497" y="-186.54" font-family="Helvetica,sans-Serif" font-size="14.00">err_error1</text>
</g>
<!-- pressure&#45;&gt;err_error1 -->
<g id="edge10" class="edge">
<title>pressure&#45;&gt;err_error1</title>
<path fill="none" stroke="black" stroke-width="1.2" d="M400.35,-114.36C418.79,-128.99 444.92,-149.72 465.2,-165.81"/>
<polygon fill="black" stroke="black" stroke-width="1.2" points="463.21,-168.7 473.22,-172.17 467.56,-163.21 463.21,-168.7"/>
</g>
<!-- err_error2 -->
<g id="node6" class="node">
<title>err_error2</title>
<path fill="white" stroke="black" d="M527.5,-62.24C527.5,-62.24 466.5,-62.24 466.5,-62.24 460.5,-62.24 454.5,-56.24 454.5,-50.24 454.5,-50.24 454.5,-38.24 454.5,-38.24 454.5,-32.24 460.5,-26.24 466.5,-26.24 466.5,-26.24 527.5,-26.24 527.5,-26.24 533.5,-26.24 539.5,-32.24 539.5,-38.24 539.5,-38.24 539.5,-50.24 539.5,-50.24 539.5,-56.24 533.5,-62.24 527.5,-62.24"/>
<text text-anchor="middle" x="497" y="-40.54" font-family="Helvetica,sans-Serif" font-size="14.00">err_error2</text>
</g>
<!-- pressure&#45;&gt;err_error2 -->
<g id="edge11" class="edge">
<title>pressure&#45;&gt;err_error2</title>
<path fill="none" stroke="black" stroke-width="1.2" d="M415.32,-79.64C424.97,-75.41 435.49,-70.79 445.65,-66.33"/>
<polygon fill="black" stroke="black" stroke-width="1.2" points="447.1,-69.52 454.85,-62.3 444.29,-63.11 447.1,-69.52"/>
</g>
<!-- vibration&#45;&gt;pressure -->
<g id="edge9" class="edge">
<title>vibration&#45;&gt;pressure</title>
<path fill="none" stroke="black" stroke-width="1.2" d="M302.06,-96.24C310.31,-96.24 319.14,-96.24 327.72,-96.24"/>
<polygon fill="black" stroke="black" stroke-width="1.2" points="327.99,-99.74 337.99,-96.24 327.99,-92.74 327.99,-99.74"/>
</g>
<!-- err_error1&#45;&gt;volt -->
<g id="edge3" class="edge">
<title>err_error1&#45;&gt;volt</title>
<path fill="none" stroke="black" stroke-width="1.2" d="M454.06,-186.46C398.55,-180.04 298.97,-163.53 224,-123.24 211.09,-116.3 198.32,-106.45 187.75,-97.26"/>
<polygon fill="black" stroke="black" stroke-width="1.2" points="189.92,-94.5 180.14,-90.41 185.24,-99.7 189.92,-94.5"/>
</g>
<!-- err_error2&#45;&gt;volt -->
<g id="edge4" class="edge">
<title>err_error2&#45;&gt;volt</title>
<path fill="none" stroke="black" stroke-width="1.2" d="M454.35,-47.73C388.37,-53.26 260.91,-63.95 198.38,-69.19"/>
<polygon fill="black" stroke="black" stroke-width="1.2" points="197.88,-65.72 188.21,-70.04 198.47,-72.69 197.88,-65.72"/>
</g>
<!-- err_error2&#45;&gt;rotate -->
<g id="edge6" class="edge">
<title>err_error2&#45;&gt;rotate</title>
<path fill="none" stroke="black" stroke-width="1.2" d="M539.64,-54.6C549.29,-57 559.51,-59.55 568.98,-61.9"/>
<polygon fill="black" stroke="black" stroke-width="1.2" points="568.34,-65.35 578.89,-64.37 570.03,-58.56 568.34,-65.35"/>
</g>
<!-- err_error3 -->
<g id="node7" class="node">
<title>err_error3</title>
<path fill="white" stroke="black" d="M79.5,-144.24C79.5,-144.24 18.5,-144.24 18.5,-144.24 12.5,-144.24 6.5,-138.24 6.5,-132.24 6.5,-132.24 6.5,-120.24 6.5,-120.24 6.5,-114.24 12.5,-108.24 18.5,-108.24 18.5,-108.24 79.5,-108.24 79.5,-108.24 85.5,-108.24 91.5,-114.24 91.5,-120.24 91.5,-120.24 91.5,-132.24 91.5,-132.24 91.5,-138.24 85.5,-144.24 79.5,-144.24"/>
<text text-anchor="middle" x="49" y="-122.54" font-family="Helvetica,sans-Serif" font-size="14.00">err_error3</text>
</g>
<!-- err_error4 -->
<g id="node8" class="node">
<title>err_error4</title>
<path fill="white" stroke="black" d="M79.5,-198.24C79.5,-198.24 18.5,-198.24 18.5,-198.24 12.5,-198.24 6.5,-192.24 6.5,-186.24 6.5,-186.24 6.5,-174.24 6.5,-174.24 6.5,-168.24 12.5,-162.24 18.5,-162.24 18.5,-162.24 79.5,-162.24 79.5,-162.24 85.5,-162.24 91.5,-168.24 91.5,-174.24 91.5,-174.24 91.5,-186.24 91.5,-186.24 91.5,-192.24 85.5,-198.24 79.5,-198.24"/>
<text text-anchor="middle" x="49" y="-176.54" font-family="Helvetica,sans-Serif" font-size="14.00">err_error4</text>
</g>
<!-- err_error5 -->
<g id="node9" class="node">
<title>err_error5</title>
<path fill="white" stroke="black" d="M79.5,-252.24C79.5,-252.24 18.5,-252.24 18.5,-252.24 12.5,-252.24 6.5,-246.24 6.5,-240.24 6.5,-240.24 6.5,-228.24 6.5,-228.24 6.5,-222.24 12.5,-216.24 18.5,-216.24 18.5,-216.24 79.5,-216.24 79.5,-216.24 85.5,-216.24 91.5,-222.24 91.5,-228.24 91.5,-228.24 91.5,-240.24 91.5,-240.24 91.5,-246.24 85.5,-252.24 79.5,-252.24"/>
<text text-anchor="middle" x="49" y="-230.54" font-family="Helvetica,sans-Serif" font-size="14.00">err_error5</text>
</g>
<!-- mnt_comp1 -->
<g id="node10" class="node">
<title>mnt_comp1</title>
<path fill="white" stroke="black" d="M86,-90.24C86,-90.24 12,-90.24 12,-90.24 6,-90.24 0,-84.24 0,-78.24 0,-78.24 0,-66.24 0,-66.24 0,-60.24 6,-54.24 12,-54.24 12,-54.24 86,-54.24 86,-54.24 92,-54.24 98,-60.24 98,-66.24 98,-66.24 98,-78.24 98,-78.24 98,-84.24 92,-90.24 86,-90.24"/>
<text text-anchor="middle" x="49" y="-68.54" font-family="Helvetica,sans-Serif" font-size="14.00">mnt_comp1</text>
</g>
<!-- mnt_comp1&#45;&gt;volt -->
<g id="edge5" class="edge">
<title>mnt_comp1&#45;&gt;volt</title>
<path fill="none" stroke="black" stroke-width="1.2" d="M98.25,-72.24C106.76,-72.24 115.48,-72.24 123.6,-72.24"/>
<polygon fill="black" stroke="black" stroke-width="1.2" points="123.85,-75.74 133.85,-72.24 123.85,-68.74 123.85,-75.74"/>
</g>
<!-- mnt_comp2 -->
<g id="node11" class="node">
<title>mnt_comp2</title>
<path fill="white" stroke="black" d="M86,-306.24C86,-306.24 12,-306.24 12,-306.24 6,-306.24 0,-300.24 0,-294.24 0,-294.24 0,-282.24 0,-282.24 0,-276.24 6,-270.24 12,-270.24 12,-270.24 86,-270.24 86,-270.24 92,-270.24 98,-276.24 98,-282.24 98,-282.24 98,-294.24 98,-294.24 98,-300.24 92,-306.24 86,-306.24"/>
<text text-anchor="middle" x="49" y="-284.54" font-family="Helvetica,sans-Serif" font-size="14.00">mnt_comp2</text>
</g>
<!-- mnt_comp3 -->
<g id="node12" class="node">
<title>mnt_comp3</title>
<path fill="white" stroke="black" d="M86,-360.24C86,-360.24 12,-360.24 12,-360.24 6,-360.24 0,-354.24 0,-348.24 0,-348.24 0,-336.24 0,-336.24 0,-330.24 6,-324.24 12,-324.24 12,-324.24 86,-324.24 86,-324.24 92,-324.24 98,-330.24 98,-336.24 98,-336.24 98,-348.24 98,-348.24 98,-354.24 92,-360.24 86,-360.24"/>
<text text-anchor="middle" x="49" y="-338.54" font-family="Helvetica,sans-Serif" font-size="14.00">mnt_comp3</text>
</g>
<!-- mnt_comp4 -->
<g id="node13" class="node">
<title>mnt_comp4</title>
<path fill="white" stroke="black" d="M86,-414.24C86,-414.24 12,-414.24 12,-414.24 6,-414.24 0,-408.24 0,-402.24 0,-402.24 0,-390.24 0,-390.24 0,-384.24 6,-378.24 12,-378.24 12,-378.24 86,-378.24 86,-378.24 92,-378.24 98,-384.24 98,-390.24 98,-390.24 98,-402.24 98,-402.24 98,-408.24 92,-414.24 86,-414.24"/>
<text text-anchor="middle" x="49" y="-392.54" font-family="Helvetica,sans-Serif" font-size="14.00">mnt_comp4</text>
</g>
<!-- fail_comp1 -->
<g id="node14" class="node">
<title>fail_comp1</title>
<path fill="white" stroke="black" d="M83,-468.24C83,-468.24 15,-468.24 15,-468.24 9,-468.24 3,-462.24 3,-456.24 3,-456.24 3,-444.24 3,-444.24 3,-438.24 9,-432.24 15,-432.24 15,-432.24 83,-432.24 83,-432.24 89,-432.24 95,-438.24 95,-444.24 95,-444.24 95,-456.24 95,-456.24 95,-462.24 89,-468.24 83,-468.24"/>
<text text-anchor="middle" x="49" y="-446.54" font-family="Helvetica,sans-Serif" font-size="14.00">fail_comp1</text>
</g>
<!-- fail_comp2&#45;&gt;vibration -->
<g id="edge12" class="edge">
<title>fail_comp2&#45;&gt;vibration</title>
<path fill="none" stroke="black" stroke-width="1.2" d="M671.96,-105.16C600.55,-120.81 457.22,-145.4 338,-123.24 329.31,-121.62 320.28,-119.1 311.65,-116.23"/>
<polygon fill="black" stroke="black" stroke-width="1.2" points="312.7,-112.89 302.11,-112.88 310.38,-119.5 312.7,-112.89"/>
</g>
<!-- fail_comp3 -->
<g id="node16" class="node">
<title>fail_comp3</title>
<path fill="white" stroke="black" d="M531,-116.24C531,-116.24 463,-116.24 463,-116.24 457,-116.24 451,-110.24 451,-104.24 451,-104.24 451,-92.24 451,-92.24 451,-86.24 457,-80.24 463,-80.24 463,-80.24 531,-80.24 531,-80.24 537,-80.24 543,-86.24 543,-92.24 543,-92.24 543,-104.24 543,-104.24 543,-110.24 537,-116.24 531,-116.24"/>
<text text-anchor="middle" x="497" y="-94.54" font-family="Helvetica,sans-Serif" font-size="14.00">fail_comp3</text>
</g>
<!-- fail_comp3&#45;&gt;rotate -->
<g id="edge8" class="edge">
<title>fail_comp3&#45;&gt;rotate</title>
<path fill="none" stroke="black" stroke-width="1.2" d="M543.07,-87.02C551.68,-84.88 560.61,-82.66 568.95,-80.58"/>
<polygon fill="black" stroke="black" stroke-width="1.2" points="569.92,-83.95 578.78,-78.14 568.23,-77.16 569.92,-83.95"/>
</g>
</g>
</svg>
