<?xml version="1.0" encoding="UTF-8" standalone="no"?>
<!DOCTYPE svg PUBLIC "-//W3C//DTD SVG 1.1//EN"
 "http://www.w3.org/Graphics/SVG/1.1/DTD/svg11.dtd">
<!-- Generated by graphviz version 2.50.0 (0)
 -->
<!-- Title: G Pages: 1 -->
<svg width="610pt" height="425pt"
 viewBox="0.00 0.00 610.00 425.00" xmlns="http://www.w3.org/2000/svg" xmlns:xlink="http://www.w3.org/1999/xlink">
<g id="graph0" class="graph" transform="scale(1 1) rotate(0) translate(4 421)">
<title>G</title>
<polygon fill="white" stroke="transparent" points="-4,4 -4,-421 606,-421 606,4 -4,4"/>
<text text-anchor="middle" x="301" y="-400.2" font-family="Times,serif" font-size="16.00">model=model4/pcmci_mixed.json [machine 61]</text>
<!-- volt -->
<g id="node1" class="node">
<title>volt</title>
<path fill="white" stroke="black" d="M450,-110C450,-110 420,-110 420,-110 414,-110 408,-104 408,-98 408,-98 408,-86 408,-86 408,-80 414,-74 420,-74 420,-74 450,-74 450,-74 456,-74 462,-80 462,-86 462,-86 462,-98 462,-98 462,-104 456,-110 450,-110"/>
<text text-anchor="middle" x="435" y="-88.3" font-family="Helvetica,sans-Serif" font-size="14.00">volt</text>
</g>
<!-- err_error1 -->
<g id="node5" class="node">
<title>err_error1</title>
<path fill="white" stroke="black" d="M590,-106C590,-106 529,-106 529,-106 523,-106 517,-100 517,-94 517,-94 517,-82 517,-82 517,-76 523,-70 529,-70 529,-70 590,-70 590,-70 596,-70 602,-76 602,-82 602,-82 602,-94 602,-94 602,-100 596,-106 590,-106"/>
<text text-anchor="middle" x="559.5" y="-84.3" font-family="Helvetica,sans-Serif" font-size="14.00">err_error1</text>
</g>
<!-- volt&#45;&gt;err_error1 -->
<g id="edge4" class="edge">
<title>volt&#45;&gt;err_error1</title>
<path fill="none" stroke="black" stroke-width="1.2" d="M462.28,-91.14C475.19,-90.72 491.21,-90.2 506.46,-89.7"/>
<polygon fill="black" stroke="black" stroke-width="1.2" points="506.96,-93.18 516.84,-89.36 506.74,-86.19 506.96,-93.18"/>
</g>
<!-- err_error4 -->
<g id="node8" class="node">
<title>err_error4</title>
<path fill="white" stroke="black" d="M590,-160C590,-160 529,-160 529,-160 523,-160 517,-154 517,-148 517,-148 517,-136 517,-136 517,-130 523,-124 529,-124 529,-124 590,-124 590,-124 596,-124 602,-130 602,-136 602,-136 602,-148 602,-148 602,-154 596,-160 590,-160"/>
<text text-anchor="middle" x="559.5" y="-138.3" font-family="Helvetica,sans-Serif" font-size="14.00">err_error4</text>
</g>
<!-- volt&#45;&gt;err_error4 -->
<g id="edge5" class="edge">
<title>volt&#45;&gt;err_error4</title>
<path fill="none" stroke="black" stroke-width="1.2" d="M462.28,-102.73C475.44,-108.1 491.83,-114.79 507.34,-121.12"/>
<polygon fill="black" stroke="black" stroke-width="1.2" points="506.26,-124.46 516.84,-125 508.91,-117.98 506.26,-124.46"/>
</g>
<!-- rotate -->
<g id="node2" class="node">
<title>rotate</title>
<path fill="white" stroke="black" d="M320.5,-258C320.5,-258 287.5,-258 287.5,-258 281.5,-258 275.5,-252 275.5,-246 275.5,-246 275.5,-234 275.5,-234 275.5,-228 281.5,-222 287.5,-222 287.5,-222 320.5,-222 320.5,-222 326.5,-222 332.5,-228 332.5,-234 332.5,-234 332.5,-246 332.5,-246 332.5,-252 326.5,-258 320.5,-258"/>
<text text-anchor="middle" x="304" y="-236.3" font-family="Helvetica,sans-Serif" font-size="14.00">rotate</text>
</g>
<!-- rotate&#45;&gt;volt -->
<g id="edge1" class="edge">
<title>rotate&#45;&gt;volt</title>
<path fill="none" stroke="black" stroke-width="1.2" d="M332.65,-227.34C339.74,-223.35 347.03,-218.52 353,-213 361.06,-205.55 395.46,-152.52 416.76,-119.18"/>
<polygon fill="black" stroke="black" stroke-width="1.2" points="419.96,-120.67 422.38,-110.35 414.06,-116.91 419.96,-120.67"/>
</g>
<!-- err_error3 -->
<g id="node7" class="node">
<title>err_error3</title>
<path fill="white" stroke="black" d="M465.5,-208C465.5,-208 404.5,-208 404.5,-208 398.5,-208 392.5,-202 392.5,-196 392.5,-196 392.5,-184 392.5,-184 392.5,-178 398.5,-172 404.5,-172 404.5,-172 465.5,-172 465.5,-172 471.5,-172 477.5,-178 477.5,-184 477.5,-184 477.5,-196 477.5,-196 477.5,-202 471.5,-208 465.5,-208"/>
<text text-anchor="middle" x="435" y="-186.3" font-family="Helvetica,sans-Serif" font-size="14.00">err_error3</text>
</g>
<!-- rotate&#45;&gt;err_error3 -->
<g id="edge9" class="edge">
<title>rotate&#45;&gt;err_error3</title>
<path fill="none" stroke="black" stroke-width="1.2" d="M332.67,-229.27C347.29,-223.61 365.7,-216.47 382.81,-209.84"/>
<polygon fill="black" stroke="black" stroke-width="1.2" points="384.08,-213.1 392.14,-206.22 381.55,-206.57 384.08,-213.1"/>
</g>
<!-- rotate&#45;&gt;err_error4 -->
<g id="edge10" class="edge">
<title>rotate&#45;&gt;err_error4</title>
<path fill="none" stroke="black" stroke-width="1.2" d="M332.74,-241.6C368.75,-242.55 432.71,-240.3 481,-217 504.19,-205.81 524.82,-185.01 538.96,-168.14"/>
<polygon fill="black" stroke="black" stroke-width="1.2" points="541.79,-170.21 545.36,-160.24 536.35,-165.81 541.79,-170.21"/>
</g>
<!-- fail_comp2 -->
<g id="node15" class="node">
<title>fail_comp2</title>
<path fill="white" stroke="black" d="M469,-300C469,-300 401,-300 401,-300 395,-300 389,-294 389,-288 389,-288 389,-276 389,-276 389,-270 395,-264 401,-264 401,-264 469,-264 469,-264 475,-264 481,-270 481,-276 481,-276 481,-288 481,-288 481,-294 475,-300 469,-300"/>
<text text-anchor="middle" x="435" y="-278.3" font-family="Helvetica,sans-Serif" font-size="14.00">fail_comp2</text>
</g>
<!-- rotate&#45;&gt;fail_comp2 -->
<g id="edge11" class="edge">
<title>rotate&#45;&gt;fail_comp2</title>
<path fill="none" stroke="black" stroke-width="1.2" d="M332.67,-249.01C346.22,-253.42 363.03,-258.89 379.04,-264.11"/>
<polygon fill="black" stroke="black" stroke-width="1.2" points="378.27,-267.54 388.87,-267.31 380.44,-260.88 378.27,-267.54"/>
</g>
<!-- pressure -->
<g id="node3" class="node">
<title>pressure</title>
<path fill="white" stroke="black" d="M75.5,-82C75.5,-82 22.5,-82 22.5,-82 16.5,-82 10.5,-76 10.5,-70 10.5,-70 10.5,-58 10.5,-58 10.5,-52 16.5,-46 22.5,-46 22.5,-46 75.5,-46 75.5,-46 81.5,-46 87.5,-52 87.5,-58 87.5,-58 87.5,-70 87.5,-70 87.5,-76 81.5,-82 75.5,-82"/>
<text text-anchor="middle" x="49" y="-60.3" font-family="Helvetica,sans-Serif" font-size="14.00">pressure</text>
</g>
<!-- pressure&#45;&gt;volt -->
<g id="edge2" class="edge">
<title>pressure&#45;&gt;volt</title>
<path fill="none" stroke="black" stroke-width="1.2" d="M87.52,-66.74C161.45,-72.13 325.07,-84.06 397.87,-89.37"/>
<polygon fill="black" stroke="black" stroke-width="1.2" points="397.7,-92.86 407.93,-90.1 398.21,-85.88 397.7,-92.86"/>
</g>
<!-- vibration -->
<g id="node4" class="node">
<title>vibration</title>
<path fill="white" stroke="black" d="M203.5,-169C203.5,-169 149.5,-169 149.5,-169 143.5,-169 137.5,-163 137.5,-157 137.5,-157 137.5,-145 137.5,-145 137.5,-139 143.5,-133 149.5,-133 149.5,-133 203.5,-133 203.5,-133 209.5,-133 215.5,-139 215.5,-145 215.5,-145 215.5,-157 215.5,-157 215.5,-163 209.5,-169 203.5,-169"/>
<text text-anchor="middle" x="176.5" y="-147.3" font-family="Helvetica,sans-Serif" font-size="14.00">vibration</text>
</g>
<!-- pressure&#45;&gt;vibration -->
<g id="edge12" class="edge">
<title>pressure&#45;&gt;vibration</title>
<path fill="none" stroke="black" stroke-width="1.2" d="M76,-82.03C94.85,-95.09 120.52,-112.89 141.07,-127.13"/>
<polygon fill="black" stroke="black" stroke-width="1.2" points="139.32,-130.18 149.53,-133 143.31,-124.42 139.32,-130.18"/>
</g>
<!-- err_error5 -->
<g id="node9" class="node">
<title>err_error5</title>
<path fill="white" stroke="black" d="M207,-36C207,-36 146,-36 146,-36 140,-36 134,-30 134,-24 134,-24 134,-12 134,-12 134,-6 140,0 146,0 146,0 207,0 207,0 213,0 219,-6 219,-12 219,-12 219,-24 219,-24 219,-30 213,-36 207,-36"/>
<text text-anchor="middle" x="176.5" y="-14.3" font-family="Helvetica,sans-Serif" font-size="14.00">err_error5</text>
</g>
<!-- pressure&#45;&gt;err_error5 -->
<g id="edge13" class="edge">
<title>pressure&#45;&gt;err_error5</title>
<path fill="none" stroke="black" stroke-width="1.2" d="M87.65,-50.2C99.16,-45.98 112.02,-41.27 124.27,-36.78"/>
<polygon fill="black" stroke="black" stroke-width="1.2" points="125.74,-39.97 133.93,-33.24 123.33,-33.39 125.74,-39.97"/>
</g>
<!-- vibration&#45;&gt;volt -->
<g id="edge3" class="edge">
<title>vibration&#45;&gt;volt</title>
<path fill="none" stroke="black" stroke-width="1.2" d="M215.86,-137.58C228.25,-133.53 242.12,-129.29 255,-126 303.96,-113.51 361.51,-103.37 397.87,-97.51"/>
<polygon fill="black" stroke="black" stroke-width="1.2" points="398.66,-100.93 407.99,-95.9 397.56,-94.01 398.66,-100.93"/>
</g>
<!-- vibration&#45;&gt;rotate -->
<g id="edge7" class="edge">
<title>vibration&#45;&gt;rotate</title>
<path fill="none" stroke="black" stroke-width="1.2" d="M198.17,-169.07C213.4,-181.98 234.86,-199.41 255,-213 258.71,-215.5 262.67,-218 266.66,-220.4"/>
<polygon fill="black" stroke="black" stroke-width="1.2" points="264.97,-223.46 275.38,-225.47 268.5,-217.41 264.97,-223.46"/>
</g>
<!-- vibration&#45;&gt;err_error4 -->
<g id="edge15" class="edge">
<title>vibration&#45;&gt;err_error4</title>
<path fill="none" stroke="black" stroke-width="1.2" d="M215.78,-150.1C284.58,-148.47 429.21,-145.05 506.76,-143.22"/>
<polygon fill="black" stroke="black" stroke-width="1.2" points="506.88,-146.72 516.79,-142.99 506.71,-139.72 506.88,-146.72"/>
</g>
<!-- mnt_comp4 -->
<g id="node13" class="node">
<title>mnt_comp4</title>
<path fill="white" stroke="black" d="M341,-204C341,-204 267,-204 267,-204 261,-204 255,-198 255,-192 255,-192 255,-180 255,-180 255,-174 261,-168 267,-168 267,-168 341,-168 341,-168 347,-168 353,-174 353,-180 353,-180 353,-192 353,-192 353,-198 347,-204 341,-204"/>
<text text-anchor="middle" x="304" y="-182.3" font-family="Helvetica,sans-Serif" font-size="14.00">mnt_comp4</text>
</g>
<!-- vibration&#45;&gt;mnt_comp4 -->
<g id="edge17" class="edge">
<title>vibration&#45;&gt;mnt_comp4</title>
<path fill="none" stroke="black" stroke-width="1.2" d="M215.84,-161.69C225.03,-164.25 235.05,-167.05 244.91,-169.8"/>
<polygon fill="black" stroke="black" stroke-width="1.2" points="244.11,-173.21 254.69,-172.53 245.99,-166.47 244.11,-173.21"/>
</g>
<!-- err_error2 -->
<g id="node6" class="node">
<title>err_error2</title>
<path fill="white" stroke="black" d="M79.5,-229C79.5,-229 18.5,-229 18.5,-229 12.5,-229 6.5,-223 6.5,-217 6.5,-217 6.5,-205 6.5,-205 6.5,-199 12.5,-193 18.5,-193 18.5,-193 79.5,-193 79.5,-193 85.5,-193 91.5,-199 91.5,-205 91.5,-205 91.5,-217 91.5,-217 91.5,-223 85.5,-229 79.5,-229"/>
<text text-anchor="middle" x="49" y="-207.3" font-family="Helvetica,sans-Serif" font-size="14.00">err_error2</text>
</g>
<!-- err_error2&#45;&gt;rotate -->
<g id="edge8" class="edge">
<title>err_error2&#45;&gt;rotate</title>
<path fill="none" stroke="black" stroke-width="1.2" d="M91.78,-215.79C140.06,-221.32 218.8,-230.35 265.29,-235.68"/>
<polygon fill="black" stroke="black" stroke-width="1.2" points="264.92,-239.16 275.25,-236.82 265.72,-232.2 264.92,-239.16"/>
</g>
<!-- err_error2&#45;&gt;vibration -->
<g id="edge14" class="edge">
<title>err_error2&#45;&gt;vibration</title>
<path fill="none" stroke="black" stroke-width="1.2" d="M87.65,-193C100.44,-186.88 114.9,-179.97 128.33,-173.55"/>
<polygon fill="black" stroke="black" stroke-width="1.2" points="129.93,-176.67 137.44,-169.2 126.91,-170.35 129.93,-176.67"/>
</g>
<!-- err_error5&#45;&gt;volt -->
<g id="edge6" class="edge">
<title>err_error5&#45;&gt;volt</title>
<path fill="none" stroke="black" stroke-width="1.2" d="M219.16,-22.06C255.29,-26.4 308.6,-34.82 353,-50 368.74,-55.38 385.19,-63.41 399.13,-71.02"/>
<polygon fill="black" stroke="black" stroke-width="1.2" points="397.45,-74.09 407.89,-75.92 400.87,-67.98 397.45,-74.09"/>
</g>
<!-- mnt_comp1 -->
<g id="node10" class="node">
<title>mnt_comp1</title>
<path fill="white" stroke="black" d="M86,-283C86,-283 12,-283 12,-283 6,-283 0,-277 0,-271 0,-271 0,-259 0,-259 0,-253 6,-247 12,-247 12,-247 86,-247 86,-247 92,-247 98,-253 98,-259 98,-259 98,-271 98,-271 98,-277 92,-283 86,-283"/>
<text text-anchor="middle" x="49" y="-261.3" font-family="Helvetica,sans-Serif" font-size="14.00">mnt_comp1</text>
</g>
<!-- mnt_comp2 -->
<g id="node11" class="node">
<title>mnt_comp2</title>
<path fill="white" stroke="black" d="M86,-337C86,-337 12,-337 12,-337 6,-337 0,-331 0,-325 0,-325 0,-313 0,-313 0,-307 6,-301 12,-301 12,-301 86,-301 86,-301 92,-301 98,-307 98,-313 98,-313 98,-325 98,-325 98,-331 92,-337 86,-337"/>
<text text-anchor="middle" x="49" y="-315.3" font-family="Helvetica,sans-Serif" font-size="14.00">mnt_comp2</text>
</g>
<!-- mnt_comp3 -->
<g id="node12" class="node">
<title>mnt_comp3</title>
<path fill="white" stroke="black" d="M86,-169C86,-169 12,-169 12,-169 6,-169 0,-163 0,-157 0,-157 0,-145 0,-145 0,-139 6,-133 12,-133 12,-133 86,-133 86,-133 92,-133 98,-139 98,-145 98,-145 98,-157 98,-157 98,-163 92,-169 86,-169"/>
<text text-anchor="middle" x="49" y="-147.3" font-family="Helvetica,sans-Serif" font-size="14.00">mnt_comp3</text>
</g>
<!-- mnt_comp3&#45;&gt;vibration -->
<g id="edge16" class="edge">
<title>mnt_comp3&#45;&gt;vibration</title>
<path fill="none" stroke="black" stroke-width="1.2" d="M98.16,-151C107.71,-151 117.73,-151 127.27,-151"/>
<polygon fill="black" stroke="black" stroke-width="1.2" points="127.4,-154.5 137.4,-151 127.4,-147.5 127.4,-154.5"/>
</g>
<!-- fail_comp1 -->
<g id="node14" class="node">
<title>fail_comp1</title>
<path fill="white" stroke="black" d="M83,-391C83,-391 15,-391 15,-391 9,-391 3,-385 3,-379 3,-379 3,-367 3,-367 3,-361 9,-355 15,-355 15,-355 83,-355 83,-355 89,-355 95,-361 95,-367 95,-367 95,-379 95,-379 95,-385 89,-391 83,-391"/>
<text text-anchor="middle" x="49" y="-369.3" font-family="Helvetica,sans-Serif" font-size="14.00">fail_comp1</text>
</g>
</g>
</svg>
