<?xml version="1.0" encoding="UTF-8" standalone="no"?>
<!DOCTYPE svg PUBLIC "-//W3C//DTD SVG 1.1//EN"
 "http://www.w3.org/Graphics/SVG/1.1/DTD/svg11.dtd">
<!-- Generated by graphviz version 2.50.0 (0)
 -->
<!-- Title: G Pages: 1 -->
<svg width="737pt" height="401pt"
 viewBox="0.00 0.00 737.00 401.00" xmlns="http://www.w3.org/2000/svg" xmlns:xlink="http://www.w3.org/1999/xlink">
<g id="graph0" class="graph" transform="scale(1 1) rotate(0) translate(4 397)">
<title>G</title>
<polygon fill="white" stroke="transparent" points="-4,4 -4,-397 733,-397 733,4 -4,4"/>
<text text-anchor="middle" x="364.5" y="-376.2" font-family="Times,serif" font-size="16.00">model=model3/pcmci_mixed.json [machine 84]</text>
<!-- volt -->
<g id="node1" class="node">
<title>volt</title>
<path fill="white" stroke="black" d="M198,-97C198,-97 168,-97 168,-97 162,-97 156,-91 156,-85 156,-85 156,-73 156,-73 156,-67 162,-61 168,-61 168,-61 198,-61 198,-61 204,-61 210,-67 210,-73 210,-73 210,-85 210,-85 210,-91 204,-97 198,-97"/>
<text text-anchor="middle" x="183" y="-75.3" font-family="Helvetica,sans-Serif" font-size="14.00">volt</text>
</g>
<!-- pressure -->
<g id="node3" class="node">
<title>pressure</title>
<path fill="white" stroke="black" d="M340.5,-174C340.5,-174 287.5,-174 287.5,-174 281.5,-174 275.5,-168 275.5,-162 275.5,-162 275.5,-150 275.5,-150 275.5,-144 281.5,-138 287.5,-138 287.5,-138 340.5,-138 340.5,-138 346.5,-138 352.5,-144 352.5,-150 352.5,-150 352.5,-162 352.5,-162 352.5,-168 346.5,-174 340.5,-174"/>
<text text-anchor="middle" x="314" y="-152.3" font-family="Helvetica,sans-Serif" font-size="14.00">pressure</text>
</g>
<!-- volt&#45;&gt;pressure -->
<g id="edge2" class="edge">
<title>volt&#45;&gt;pressure</title>
<path fill="none" stroke="black" stroke-width="1.2" d="M210.11,-94.58C228.32,-105.45 252.95,-120.16 273.55,-132.45"/>
<polygon fill="black" stroke="black" stroke-width="1.2" points="272.02,-135.61 282.4,-137.73 275.61,-129.6 272.02,-135.61"/>
</g>
<!-- fail_comp1 -->
<g id="node14" class="node">
<title>fail_comp1</title>
<path fill="white" stroke="black" d="M348,-120C348,-120 280,-120 280,-120 274,-120 268,-114 268,-108 268,-108 268,-96 268,-96 268,-90 274,-84 280,-84 280,-84 348,-84 348,-84 354,-84 360,-90 360,-96 360,-96 360,-108 360,-108 360,-114 354,-120 348,-120"/>
<text text-anchor="middle" x="314" y="-98.3" font-family="Helvetica,sans-Serif" font-size="14.00">fail_comp1</text>
</g>
<!-- volt&#45;&gt;fail_comp1 -->
<g id="edge5" class="edge">
<title>volt&#45;&gt;fail_comp1</title>
<path fill="none" stroke="black" stroke-width="1.2" d="M210.11,-83.65C223.82,-86.1 241.18,-89.2 257.72,-92.14"/>
<polygon fill="black" stroke="black" stroke-width="1.2" points="257.41,-95.64 267.87,-93.95 258.64,-88.75 257.41,-95.64"/>
</g>
<!-- rotate -->
<g id="node2" class="node">
<title>rotate</title>
<path fill="white" stroke="black" d="M575.5,-36C575.5,-36 542.5,-36 542.5,-36 536.5,-36 530.5,-30 530.5,-24 530.5,-24 530.5,-12 530.5,-12 530.5,-6 536.5,0 542.5,0 542.5,0 575.5,0 575.5,0 581.5,0 587.5,-6 587.5,-12 587.5,-12 587.5,-24 587.5,-24 587.5,-30 581.5,-36 575.5,-36"/>
<text text-anchor="middle" x="559" y="-14.3" font-family="Helvetica,sans-Serif" font-size="14.00">rotate</text>
</g>
<!-- rotate&#45;&gt;volt -->
<g id="edge1" class="edge">
<title>rotate&#45;&gt;volt</title>
<path fill="none" stroke="black" stroke-width="1.2" d="M530.41,-22.5C463.93,-33.34 294.88,-60.92 220.3,-73.08"/>
<polygon fill="black" stroke="black" stroke-width="1.2" points="219.31,-69.69 210,-74.76 220.44,-76.6 219.31,-69.69"/>
</g>
<!-- err_error3 -->
<g id="node7" class="node">
<title>err_error3</title>
<path fill="white" stroke="black" d="M717,-113C717,-113 656,-113 656,-113 650,-113 644,-107 644,-101 644,-101 644,-89 644,-89 644,-83 650,-77 656,-77 656,-77 717,-77 717,-77 723,-77 729,-83 729,-89 729,-89 729,-101 729,-101 729,-107 723,-113 717,-113"/>
<text text-anchor="middle" x="686.5" y="-91.3" font-family="Helvetica,sans-Serif" font-size="14.00">err_error3</text>
</g>
<!-- rotate&#45;&gt;err_error3 -->
<g id="edge7" class="edge">
<title>rotate&#45;&gt;err_error3</title>
<path fill="none" stroke="black" stroke-width="1.2" d="M587.58,-33.14C594.31,-36.93 601.45,-41.05 608,-45 621.7,-53.26 636.52,-62.7 649.49,-71.12"/>
<polygon fill="black" stroke="black" stroke-width="1.2" points="647.85,-74.23 658.14,-76.77 651.68,-68.37 647.85,-74.23"/>
</g>
<!-- vibration -->
<g id="node4" class="node">
<title>vibration</title>
<path fill="white" stroke="black" d="M462,-144C462,-144 408,-144 408,-144 402,-144 396,-138 396,-132 396,-132 396,-120 396,-120 396,-114 402,-108 408,-108 408,-108 462,-108 462,-108 468,-108 474,-114 474,-120 474,-120 474,-132 474,-132 474,-138 468,-144 462,-144"/>
<text text-anchor="middle" x="435" y="-122.3" font-family="Helvetica,sans-Serif" font-size="14.00">vibration</text>
</g>
<!-- pressure&#45;&gt;vibration -->
<g id="edge8" class="edge">
<title>pressure&#45;&gt;vibration</title>
<path fill="none" stroke="black" stroke-width="1.2" d="M352.65,-146.51C363.18,-143.85 374.77,-140.93 385.82,-138.15"/>
<polygon fill="black" stroke="black" stroke-width="1.2" points="386.93,-141.48 395.77,-135.64 385.22,-134.69 386.93,-141.48"/>
</g>
<!-- vibration&#45;&gt;rotate -->
<g id="edge6" class="edge">
<title>vibration&#45;&gt;rotate</title>
<path fill="none" stroke="black" stroke-width="1.2" d="M449.87,-107.71C463.77,-90.19 486.44,-63.72 510,-45 513.59,-42.15 517.52,-39.41 521.54,-36.86"/>
<polygon fill="black" stroke="black" stroke-width="1.2" points="523.6,-39.7 530.38,-31.56 520,-33.7 523.6,-39.7"/>
</g>
<!-- err_error1 -->
<g id="node5" class="node">
<title>err_error1</title>
<path fill="white" stroke="black" d="M589.5,-90C589.5,-90 528.5,-90 528.5,-90 522.5,-90 516.5,-84 516.5,-78 516.5,-78 516.5,-66 516.5,-66 516.5,-60 522.5,-54 528.5,-54 528.5,-54 589.5,-54 589.5,-54 595.5,-54 601.5,-60 601.5,-66 601.5,-66 601.5,-78 601.5,-78 601.5,-84 595.5,-90 589.5,-90"/>
<text text-anchor="middle" x="559" y="-68.3" font-family="Helvetica,sans-Serif" font-size="14.00">err_error1</text>
</g>
<!-- vibration&#45;&gt;err_error1 -->
<g id="edge10" class="edge">
<title>vibration&#45;&gt;err_error1</title>
<path fill="none" stroke="black" stroke-width="1.2" d="M474.27,-109.06C484.86,-104.37 496.52,-99.21 507.68,-94.27"/>
<polygon fill="black" stroke="black" stroke-width="1.2" points="509.18,-97.44 516.91,-90.19 506.35,-91.03 509.18,-97.44"/>
</g>
<!-- mnt_comp3 -->
<g id="node12" class="node">
<title>mnt_comp3</title>
<path fill="white" stroke="black" d="M596,-144C596,-144 522,-144 522,-144 516,-144 510,-138 510,-132 510,-132 510,-120 510,-120 510,-114 516,-108 522,-108 522,-108 596,-108 596,-108 602,-108 608,-114 608,-120 608,-120 608,-132 608,-132 608,-138 602,-144 596,-144"/>
<text text-anchor="middle" x="559" y="-122.3" font-family="Helvetica,sans-Serif" font-size="14.00">mnt_comp3</text>
</g>
<!-- vibration&#45;&gt;mnt_comp3 -->
<g id="edge12" class="edge">
<title>vibration&#45;&gt;mnt_comp3</title>
<path fill="none" stroke="black" stroke-width="1.2" d="M474.27,-126C482.4,-126 491.17,-126 499.86,-126"/>
<polygon fill="black" stroke="black" stroke-width="1.2" points="499.98,-129.5 509.98,-126 499.98,-122.5 499.98,-129.5"/>
</g>
<!-- err_error1&#45;&gt;volt -->
<g id="edge3" class="edge">
<title>err_error1&#45;&gt;volt</title>
<path fill="none" stroke="black" stroke-width="1.2" d="M516.21,-71.94C459.84,-71.98 356.33,-72.44 268,-75 252.38,-75.45 235.14,-76.23 220.36,-76.97"/>
<polygon fill="black" stroke="black" stroke-width="1.2" points="219.9,-73.49 210.1,-77.51 220.27,-80.48 219.9,-73.49"/>
</g>
<!-- err_error2 -->
<g id="node6" class="node">
<title>err_error2</title>
<path fill="white" stroke="black" d="M79.5,-97C79.5,-97 18.5,-97 18.5,-97 12.5,-97 6.5,-91 6.5,-85 6.5,-85 6.5,-73 6.5,-73 6.5,-67 12.5,-61 18.5,-61 18.5,-61 79.5,-61 79.5,-61 85.5,-61 91.5,-67 91.5,-73 91.5,-73 91.5,-85 91.5,-85 91.5,-91 85.5,-97 79.5,-97"/>
<text text-anchor="middle" x="49" y="-75.3" font-family="Helvetica,sans-Serif" font-size="14.00">err_error2</text>
</g>
<!-- err_error2&#45;&gt;volt -->
<g id="edge4" class="edge">
<title>err_error2&#45;&gt;volt</title>
<path fill="none" stroke="black" stroke-width="1.2" d="M91.77,-79C108.99,-79 128.77,-79 145.42,-79"/>
<polygon fill="black" stroke="black" stroke-width="1.2" points="145.84,-82.5 155.84,-79 145.84,-75.5 145.84,-82.5"/>
</g>
<!-- err_error3&#45;&gt;vibration -->
<g id="edge11" class="edge">
<title>err_error3&#45;&gt;vibration</title>
<path fill="none" stroke="black" stroke-width="1.2" d="M668.36,-113.07C653.82,-126.99 631.6,-145.15 608,-153 566.67,-166.75 552.89,-160.58 510,-153 501.29,-151.46 492.26,-148.98 483.63,-146.12"/>
<polygon fill="black" stroke="black" stroke-width="1.2" points="484.68,-142.78 474.09,-142.77 482.36,-149.39 484.68,-142.78"/>
</g>
<!-- err_error4 -->
<g id="node8" class="node">
<title>err_error4</title>
<path fill="white" stroke="black" d="M79.5,-151C79.5,-151 18.5,-151 18.5,-151 12.5,-151 6.5,-145 6.5,-139 6.5,-139 6.5,-127 6.5,-127 6.5,-121 12.5,-115 18.5,-115 18.5,-115 79.5,-115 79.5,-115 85.5,-115 91.5,-121 91.5,-127 91.5,-127 91.5,-139 91.5,-139 91.5,-145 85.5,-151 79.5,-151"/>
<text text-anchor="middle" x="49" y="-129.3" font-family="Helvetica,sans-Serif" font-size="14.00">err_error4</text>
</g>
<!-- err_error5 -->
<g id="node9" class="node">
<title>err_error5</title>
<path fill="white" stroke="black" d="M79.5,-205C79.5,-205 18.5,-205 18.5,-205 12.5,-205 6.5,-199 6.5,-193 6.5,-193 6.5,-181 6.5,-181 6.5,-175 12.5,-169 18.5,-169 18.5,-169 79.5,-169 79.5,-169 85.5,-169 91.5,-175 91.5,-181 91.5,-181 91.5,-193 91.5,-193 91.5,-199 85.5,-205 79.5,-205"/>
<text text-anchor="middle" x="49" y="-183.3" font-family="Helvetica,sans-Serif" font-size="14.00">err_error5</text>
</g>
<!-- mnt_comp1 -->
<g id="node10" class="node">
<title>mnt_comp1</title>
<path fill="white" stroke="black" d="M220,-174C220,-174 146,-174 146,-174 140,-174 134,-168 134,-162 134,-162 134,-150 134,-150 134,-144 140,-138 146,-138 146,-138 220,-138 220,-138 226,-138 232,-144 232,-150 232,-150 232,-162 232,-162 232,-168 226,-174 220,-174"/>
<text text-anchor="middle" x="183" y="-152.3" font-family="Helvetica,sans-Serif" font-size="14.00">mnt_comp1</text>
</g>
<!-- mnt_comp1&#45;&gt;pressure -->
<g id="edge9" class="edge">
<title>mnt_comp1&#45;&gt;pressure</title>
<path fill="none" stroke="black" stroke-width="1.2" d="M232.03,-156C242.89,-156 254.42,-156 265.26,-156"/>
<polygon fill="black" stroke="black" stroke-width="1.2" points="265.41,-159.5 275.41,-156 265.41,-152.5 265.41,-159.5"/>
</g>
<!-- mnt_comp2 -->
<g id="node11" class="node">
<title>mnt_comp2</title>
<path fill="white" stroke="black" d="M86,-259C86,-259 12,-259 12,-259 6,-259 0,-253 0,-247 0,-247 0,-235 0,-235 0,-229 6,-223 12,-223 12,-223 86,-223 86,-223 92,-223 98,-229 98,-235 98,-235 98,-247 98,-247 98,-253 92,-259 86,-259"/>
<text text-anchor="middle" x="49" y="-237.3" font-family="Helvetica,sans-Serif" font-size="14.00">mnt_comp2</text>
</g>
<!-- mnt_comp4 -->
<g id="node13" class="node">
<title>mnt_comp4</title>
<path fill="white" stroke="black" d="M86,-313C86,-313 12,-313 12,-313 6,-313 0,-307 0,-301 0,-301 0,-289 0,-289 0,-283 6,-277 12,-277 12,-277 86,-277 86,-277 92,-277 98,-283 98,-289 98,-289 98,-301 98,-301 98,-307 92,-313 86,-313"/>
<text text-anchor="middle" x="49" y="-291.3" font-family="Helvetica,sans-Serif" font-size="14.00">mnt_comp4</text>
</g>
<!-- fail_comp2 -->
<g id="node15" class="node">
<title>fail_comp2</title>
<path fill="white" stroke="black" d="M83,-367C83,-367 15,-367 15,-367 9,-367 3,-361 3,-355 3,-355 3,-343 3,-343 3,-337 9,-331 15,-331 15,-331 83,-331 83,-331 89,-331 95,-337 95,-343 95,-343 95,-355 95,-355 95,-361 89,-367 83,-367"/>
<text text-anchor="middle" x="49" y="-345.3" font-family="Helvetica,sans-Serif" font-size="14.00">fail_comp2</text>
</g>
</g>
</svg>
