<?xml version="1.0" encoding="UTF-8" standalone="no"?>
<!DOCTYPE svg PUBLIC "-//W3C//DTD SVG 1.1//EN"
 "http://www.w3.org/Graphics/SVG/1.1/DTD/svg11.dtd">
<!-- Generated by graphviz version 2.50.0 (0)
 -->
<!-- Title: G Pages: 1 -->
<svg width="487pt" height="473pt"
 viewBox="0.00 0.00 487.00 472.61" xmlns="http://www.w3.org/2000/svg" xmlns:xlink="http://www.w3.org/1999/xlink">
<g id="graph0" class="graph" transform="scale(1 1) rotate(0) translate(4 468.61)">
<title>G</title>
<polygon fill="white" stroke="transparent" points="-4,4 -4,-468.61 483,-468.61 483,4 -4,4"/>
<text text-anchor="middle" x="239.5" y="-447.81" font-family="Times,serif" font-size="16.00">model=model3/pcmci_mixed.json [machine 82]</text>
<!-- volt -->
<g id="node1" class="node">
<title>volt</title>
<path fill="white" stroke="black" d="M321.5,-226.61C321.5,-226.61 291.5,-226.61 291.5,-226.61 285.5,-226.61 279.5,-220.61 279.5,-214.61 279.5,-214.61 279.5,-202.61 279.5,-202.61 279.5,-196.61 285.5,-190.61 291.5,-190.61 291.5,-190.61 321.5,-190.61 321.5,-190.61 327.5,-190.61 333.5,-196.61 333.5,-202.61 333.5,-202.61 333.5,-214.61 333.5,-214.61 333.5,-220.61 327.5,-226.61 321.5,-226.61"/>
<text text-anchor="middle" x="306.5" y="-204.91" font-family="Helvetica,sans-Serif" font-size="14.00">volt</text>
</g>
<!-- mnt_comp2 -->
<g id="node11" class="node">
<title>mnt_comp2</title>
<path fill="white" stroke="black" d="M467,-163.61C467,-163.61 393,-163.61 393,-163.61 387,-163.61 381,-157.61 381,-151.61 381,-151.61 381,-139.61 381,-139.61 381,-133.61 387,-127.61 393,-127.61 393,-127.61 467,-127.61 467,-127.61 473,-127.61 479,-133.61 479,-139.61 479,-139.61 479,-151.61 479,-151.61 479,-157.61 473,-163.61 467,-163.61"/>
<text text-anchor="middle" x="430" y="-141.91" font-family="Helvetica,sans-Serif" font-size="14.00">mnt_comp2</text>
</g>
<!-- volt&#45;&gt;mnt_comp2 -->
<g id="edge5" class="edge">
<title>volt&#45;&gt;mnt_comp2</title>
<path fill="none" stroke="black" stroke-width="1.2" d="M333.56,-195.09C348.51,-187.34 367.66,-177.41 384.88,-168.48"/>
<polygon fill="black" stroke="black" stroke-width="1.2" points="386.95,-171.35 394.21,-163.64 383.73,-165.14 386.95,-171.35"/>
</g>
<!-- mnt_comp4 -->
<g id="node13" class="node">
<title>mnt_comp4</title>
<path fill="white" stroke="black" d="M467,-226.61C467,-226.61 393,-226.61 393,-226.61 387,-226.61 381,-220.61 381,-214.61 381,-214.61 381,-202.61 381,-202.61 381,-196.61 387,-190.61 393,-190.61 393,-190.61 467,-190.61 467,-190.61 473,-190.61 479,-196.61 479,-202.61 479,-202.61 479,-214.61 479,-214.61 479,-220.61 473,-226.61 467,-226.61"/>
<text text-anchor="middle" x="430" y="-204.91" font-family="Helvetica,sans-Serif" font-size="14.00">mnt_comp4</text>
</g>
<!-- volt&#45;&gt;mnt_comp4 -->
<g id="edge7" class="edge">
<title>volt&#45;&gt;mnt_comp4</title>
<path fill="none" stroke="black" stroke-width="1.2" d="M333.56,-208.61C344.46,-208.61 357.59,-208.61 370.58,-208.61"/>
<polygon fill="black" stroke="black" stroke-width="1.2" points="370.92,-212.11 380.92,-208.61 370.92,-205.11 370.92,-212.11"/>
</g>
<!-- rotate -->
<g id="node2" class="node">
<title>rotate</title>
<path fill="white" stroke="black" d="M65.5,-80.61C65.5,-80.61 32.5,-80.61 32.5,-80.61 26.5,-80.61 20.5,-74.61 20.5,-68.61 20.5,-68.61 20.5,-56.61 20.5,-56.61 20.5,-50.61 26.5,-44.61 32.5,-44.61 32.5,-44.61 65.5,-44.61 65.5,-44.61 71.5,-44.61 77.5,-50.61 77.5,-56.61 77.5,-56.61 77.5,-68.61 77.5,-68.61 77.5,-74.61 71.5,-80.61 65.5,-80.61"/>
<text text-anchor="middle" x="49" y="-58.91" font-family="Helvetica,sans-Serif" font-size="14.00">rotate</text>
</g>
<!-- rotate&#45;&gt;volt -->
<g id="edge1" class="edge">
<title>rotate&#45;&gt;volt</title>
<path fill="none" stroke="black" stroke-width="1.2" d="M75.31,-80.78C91.58,-91.98 113.45,-106.15 134,-116.61 175.64,-137.79 191.04,-132.14 232,-154.61 247.26,-162.98 262.97,-174.12 275.92,-184.1"/>
<polygon fill="black" stroke="black" stroke-width="1.2" points="273.98,-187.03 284.01,-190.46 278.31,-181.53 273.98,-187.03"/>
</g>
<!-- err_error2 -->
<g id="node6" class="node">
<title>err_error2</title>
<path fill="white" stroke="black" d="M213.5,-53.61C213.5,-53.61 152.5,-53.61 152.5,-53.61 146.5,-53.61 140.5,-47.61 140.5,-41.61 140.5,-41.61 140.5,-29.61 140.5,-29.61 140.5,-23.61 146.5,-17.61 152.5,-17.61 152.5,-17.61 213.5,-17.61 213.5,-17.61 219.5,-17.61 225.5,-23.61 225.5,-29.61 225.5,-29.61 225.5,-41.61 225.5,-41.61 225.5,-47.61 219.5,-53.61 213.5,-53.61"/>
<text text-anchor="middle" x="183" y="-31.91" font-family="Helvetica,sans-Serif" font-size="14.00">err_error2</text>
</g>
<!-- rotate&#45;&gt;err_error2 -->
<g id="edge8" class="edge">
<title>rotate&#45;&gt;err_error2</title>
<path fill="none" stroke="black" stroke-width="1.2" d="M77.67,-56.95C92.98,-53.82 112.5,-49.82 130.5,-46.14"/>
<polygon fill="black" stroke="black" stroke-width="1.2" points="131.22,-49.57 140.31,-44.13 129.82,-42.71 131.22,-49.57"/>
</g>
<!-- err_error4 -->
<g id="node8" class="node">
<title>err_error4</title>
<path fill="white" stroke="black" d="M213.5,-107.61C213.5,-107.61 152.5,-107.61 152.5,-107.61 146.5,-107.61 140.5,-101.61 140.5,-95.61 140.5,-95.61 140.5,-83.61 140.5,-83.61 140.5,-77.61 146.5,-71.61 152.5,-71.61 152.5,-71.61 213.5,-71.61 213.5,-71.61 219.5,-71.61 225.5,-77.61 225.5,-83.61 225.5,-83.61 225.5,-95.61 225.5,-95.61 225.5,-101.61 219.5,-107.61 213.5,-107.61"/>
<text text-anchor="middle" x="183" y="-85.91" font-family="Helvetica,sans-Serif" font-size="14.00">err_error4</text>
</g>
<!-- rotate&#45;&gt;err_error4 -->
<g id="edge9" class="edge">
<title>rotate&#45;&gt;err_error4</title>
<path fill="none" stroke="black" stroke-width="1.2" d="M77.67,-68.27C92.98,-71.4 112.5,-75.39 130.5,-79.07"/>
<polygon fill="black" stroke="black" stroke-width="1.2" points="129.82,-82.5 140.31,-81.08 131.22,-75.65 129.82,-82.5"/>
</g>
<!-- fail_comp2 -->
<g id="node15" class="node">
<title>fail_comp2</title>
<path fill="white" stroke="black" d="M464,-90.61C464,-90.61 396,-90.61 396,-90.61 390,-90.61 384,-84.61 384,-78.61 384,-78.61 384,-66.61 384,-66.61 384,-60.61 390,-54.61 396,-54.61 396,-54.61 464,-54.61 464,-54.61 470,-54.61 476,-60.61 476,-66.61 476,-66.61 476,-78.61 476,-78.61 476,-84.61 470,-90.61 464,-90.61"/>
<text text-anchor="middle" x="430" y="-68.91" font-family="Helvetica,sans-Serif" font-size="14.00">fail_comp2</text>
</g>
<!-- rotate&#45;&gt;fail_comp2 -->
<g id="edge10" class="edge">
<title>rotate&#45;&gt;fail_comp2</title>
<path fill="none" stroke="black" stroke-width="1.2" d="M70.75,-44.41C86.79,-31.62 110.21,-15.59 134,-8.61 222.36,17.34 328.4,-22.48 386.23,-50.02"/>
<polygon fill="black" stroke="black" stroke-width="1.2" points="384.9,-53.26 395.43,-54.49 387.96,-46.97 384.9,-53.26"/>
</g>
<!-- pressure -->
<g id="node3" class="node">
<title>pressure</title>
<path fill="white" stroke="black" d="M333,-126.61C333,-126.61 280,-126.61 280,-126.61 274,-126.61 268,-120.61 268,-114.61 268,-114.61 268,-102.61 268,-102.61 268,-96.61 274,-90.61 280,-90.61 280,-90.61 333,-90.61 333,-90.61 339,-90.61 345,-96.61 345,-102.61 345,-102.61 345,-114.61 345,-114.61 345,-120.61 339,-126.61 333,-126.61"/>
<text text-anchor="middle" x="306.5" y="-104.91" font-family="Helvetica,sans-Serif" font-size="14.00">pressure</text>
</g>
<!-- pressure&#45;&gt;mnt_comp2 -->
<g id="edge13" class="edge">
<title>pressure&#45;&gt;mnt_comp2</title>
<path fill="none" stroke="black" stroke-width="1.2" d="M345.28,-120.11C353.48,-122.61 362.33,-125.3 371.11,-127.98"/>
<polygon fill="black" stroke="black" stroke-width="1.2" points="370.35,-131.41 380.94,-130.97 372.39,-124.71 370.35,-131.41"/>
</g>
<!-- pressure&#45;&gt;fail_comp2 -->
<g id="edge14" class="edge">
<title>pressure&#45;&gt;fail_comp2</title>
<path fill="none" stroke="black" stroke-width="1.2" d="M345.28,-97.41C354.47,-94.69 364.49,-91.72 374.3,-88.81"/>
<polygon fill="black" stroke="black" stroke-width="1.2" points="375.4,-92.14 384,-85.94 373.41,-85.43 375.4,-92.14"/>
</g>
<!-- vibration -->
<g id="node4" class="node">
<title>vibration</title>
<path fill="white" stroke="black" d="M210,-199.61C210,-199.61 156,-199.61 156,-199.61 150,-199.61 144,-193.61 144,-187.61 144,-187.61 144,-175.61 144,-175.61 144,-169.61 150,-163.61 156,-163.61 156,-163.61 210,-163.61 210,-163.61 216,-163.61 222,-169.61 222,-175.61 222,-175.61 222,-187.61 222,-187.61 222,-193.61 216,-199.61 210,-199.61"/>
<text text-anchor="middle" x="183" y="-177.91" font-family="Helvetica,sans-Serif" font-size="14.00">vibration</text>
</g>
<!-- vibration&#45;&gt;volt -->
<g id="edge2" class="edge">
<title>vibration&#45;&gt;volt</title>
<path fill="none" stroke="black" stroke-width="1.2" d="M222.11,-190.08C237.26,-193.44 254.61,-197.3 269.55,-200.62"/>
<polygon fill="black" stroke="black" stroke-width="1.2" points="268.92,-204.06 279.44,-202.82 270.44,-197.23 268.92,-204.06"/>
</g>
<!-- vibration&#45;&gt;pressure -->
<g id="edge11" class="edge">
<title>vibration&#45;&gt;pressure</title>
<path fill="none" stroke="black" stroke-width="1.2" d="M214.03,-163.56C229.95,-154 249.69,-142.14 266.75,-131.89"/>
<polygon fill="black" stroke="black" stroke-width="1.2" points="268.62,-134.85 275.39,-126.7 265.02,-128.85 268.62,-134.85"/>
</g>
<!-- err_error1 -->
<g id="node5" class="node">
<title>err_error1</title>
<path fill="white" stroke="black" d="M79.5,-276.61C79.5,-276.61 18.5,-276.61 18.5,-276.61 12.5,-276.61 6.5,-270.61 6.5,-264.61 6.5,-264.61 6.5,-252.61 6.5,-252.61 6.5,-246.61 12.5,-240.61 18.5,-240.61 18.5,-240.61 79.5,-240.61 79.5,-240.61 85.5,-240.61 91.5,-246.61 91.5,-252.61 91.5,-252.61 91.5,-264.61 91.5,-264.61 91.5,-270.61 85.5,-276.61 79.5,-276.61"/>
<text text-anchor="middle" x="49" y="-254.91" font-family="Helvetica,sans-Serif" font-size="14.00">err_error1</text>
</g>
<!-- err_error1&#45;&gt;volt -->
<g id="edge3" class="edge">
<title>err_error1&#45;&gt;volt</title>
<path fill="none" stroke="black" stroke-width="1.2" d="M84.09,-276.67C88.85,-279.51 93.62,-282.53 98,-285.61 115.29,-297.73 114.21,-309.26 134,-316.61 174.83,-331.76 193.5,-336.98 232,-316.61 263.82,-299.77 284.44,-262.3 295.51,-236.25"/>
<polygon fill="black" stroke="black" stroke-width="1.2" points="298.79,-237.47 299.29,-226.89 292.3,-234.85 298.79,-237.47"/>
</g>
<!-- err_error1&#45;&gt;vibration -->
<g id="edge15" class="edge">
<title>err_error1&#45;&gt;vibration</title>
<path fill="none" stroke="black" stroke-width="1.2" d="M80.22,-240.38C96.16,-230.82 116.08,-218.98 134,-208.61 136.21,-207.33 138.48,-206.02 140.77,-204.71"/>
<polygon fill="black" stroke="black" stroke-width="1.2" points="142.7,-207.64 149.66,-199.65 139.24,-201.56 142.7,-207.64"/>
</g>
<!-- err_error2&#45;&gt;pressure -->
<g id="edge12" class="edge">
<title>err_error2&#45;&gt;pressure</title>
<path fill="none" stroke="black" stroke-width="1.2" d="M216.65,-53.7C221.81,-56.64 227.07,-59.68 232,-62.61 244.07,-69.77 257.09,-77.82 268.78,-85.16"/>
<polygon fill="black" stroke="black" stroke-width="1.2" points="267.09,-88.23 277.42,-90.6 270.83,-82.31 267.09,-88.23"/>
</g>
<!-- err_error3 -->
<g id="node7" class="node">
<title>err_error3</title>
<path fill="white" stroke="black" d="M213.5,-307.61C213.5,-307.61 152.5,-307.61 152.5,-307.61 146.5,-307.61 140.5,-301.61 140.5,-295.61 140.5,-295.61 140.5,-283.61 140.5,-283.61 140.5,-277.61 146.5,-271.61 152.5,-271.61 152.5,-271.61 213.5,-271.61 213.5,-271.61 219.5,-271.61 225.5,-277.61 225.5,-283.61 225.5,-283.61 225.5,-295.61 225.5,-295.61 225.5,-301.61 219.5,-307.61 213.5,-307.61"/>
<text text-anchor="middle" x="183" y="-285.91" font-family="Helvetica,sans-Serif" font-size="14.00">err_error3</text>
</g>
<!-- err_error3&#45;&gt;volt -->
<g id="edge4" class="edge">
<title>err_error3&#45;&gt;volt</title>
<path fill="none" stroke="black" stroke-width="1.2" d="M217.36,-271.53C222.33,-268.64 227.34,-265.61 232,-262.61 246.3,-253.38 261.54,-242.39 274.42,-232.73"/>
<polygon fill="black" stroke="black" stroke-width="1.2" points="276.65,-235.44 282.51,-226.61 272.42,-229.86 276.65,-235.44"/>
</g>
<!-- err_error5 -->
<g id="node9" class="node">
<title>err_error5</title>
<path fill="white" stroke="black" d="M79.5,-330.61C79.5,-330.61 18.5,-330.61 18.5,-330.61 12.5,-330.61 6.5,-324.61 6.5,-318.61 6.5,-318.61 6.5,-306.61 6.5,-306.61 6.5,-300.61 12.5,-294.61 18.5,-294.61 18.5,-294.61 79.5,-294.61 79.5,-294.61 85.5,-294.61 91.5,-300.61 91.5,-306.61 91.5,-306.61 91.5,-318.61 91.5,-318.61 91.5,-324.61 85.5,-330.61 79.5,-330.61"/>
<text text-anchor="middle" x="49" y="-308.91" font-family="Helvetica,sans-Serif" font-size="14.00">err_error5</text>
</g>
<!-- mnt_comp1 -->
<g id="node10" class="node">
<title>mnt_comp1</title>
<path fill="white" stroke="black" d="M86,-384.61C86,-384.61 12,-384.61 12,-384.61 6,-384.61 0,-378.61 0,-372.61 0,-372.61 0,-360.61 0,-360.61 0,-354.61 6,-348.61 12,-348.61 12,-348.61 86,-348.61 86,-348.61 92,-348.61 98,-354.61 98,-360.61 98,-360.61 98,-372.61 98,-372.61 98,-378.61 92,-384.61 86,-384.61"/>
<text text-anchor="middle" x="49" y="-362.91" font-family="Helvetica,sans-Serif" font-size="14.00">mnt_comp1</text>
</g>
<!-- mnt_comp3 -->
<g id="node12" class="node">
<title>mnt_comp3</title>
<path fill="white" stroke="black" d="M220,-253.61C220,-253.61 146,-253.61 146,-253.61 140,-253.61 134,-247.61 134,-241.61 134,-241.61 134,-229.61 134,-229.61 134,-223.61 140,-217.61 146,-217.61 146,-217.61 220,-217.61 220,-217.61 226,-217.61 232,-223.61 232,-229.61 232,-229.61 232,-241.61 232,-241.61 232,-247.61 226,-253.61 220,-253.61"/>
<text text-anchor="middle" x="183" y="-231.91" font-family="Helvetica,sans-Serif" font-size="14.00">mnt_comp3</text>
</g>
<!-- mnt_comp3&#45;&gt;volt -->
<g id="edge6" class="edge">
<title>mnt_comp3&#45;&gt;volt</title>
<path fill="none" stroke="black" stroke-width="1.2" d="M232.02,-224.94C244.54,-222.15 257.81,-219.2 269.58,-216.59"/>
<polygon fill="black" stroke="black" stroke-width="1.2" points="270.48,-219.97 279.48,-214.39 268.96,-213.14 270.48,-219.97"/>
</g>
<!-- fail_comp1 -->
<g id="node14" class="node">
<title>fail_comp1</title>
<path fill="white" stroke="black" d="M83,-438.61C83,-438.61 15,-438.61 15,-438.61 9,-438.61 3,-432.61 3,-426.61 3,-426.61 3,-414.61 3,-414.61 3,-408.61 9,-402.61 15,-402.61 15,-402.61 83,-402.61 83,-402.61 89,-402.61 95,-408.61 95,-414.61 95,-414.61 95,-426.61 95,-426.61 95,-432.61 89,-438.61 83,-438.61"/>
<text text-anchor="middle" x="49" y="-416.91" font-family="Helvetica,sans-Serif" font-size="14.00">fail_comp1</text>
</g>
</g>
</svg>
