<?xml version="1.0" encoding="UTF-8" standalone="no"?>
<!DOCTYPE svg PUBLIC "-//W3C//DTD SVG 1.1//EN"
 "http://www.w3.org/Graphics/SVG/1.1/DTD/svg11.dtd">
<!-- Generated by graphviz version 2.50.0 (0)
 -->
<!-- Title: G Pages: 1 -->
<svg width="413pt" height="610pt"
 viewBox="0.00 0.00 413.00 610.00" xmlns="http://www.w3.org/2000/svg" xmlns:xlink="http://www.w3.org/1999/xlink">
<g id="graph0" class="graph" transform="scale(1 1) rotate(0) translate(4 606)">
<title>G</title>
<polygon fill="white" stroke="transparent" points="-4,4 -4,-606 409,-606 409,4 -4,4"/>
<text text-anchor="middle" x="202.5" y="-585.2" font-family="Times,serif" font-size="16.00">model=model2/pcmci_mixed.json [machine 97]</text>
<!-- volt -->
<g id="node1" class="node">
<title>volt</title>
<path fill="white" stroke="black" d="M345,-144C345,-144 315,-144 315,-144 309,-144 303,-138 303,-132 303,-132 303,-120 303,-120 303,-114 309,-108 315,-108 315,-108 345,-108 345,-108 351,-108 357,-114 357,-120 357,-120 357,-132 357,-132 357,-138 351,-144 345,-144"/>
<text text-anchor="middle" x="330" y="-122.3" font-family="Helvetica,sans-Serif" font-size="14.00">volt</text>
</g>
<!-- rotate -->
<g id="node2" class="node">
<title>rotate</title>
<path fill="white" stroke="black" d="M346.5,-198C346.5,-198 313.5,-198 313.5,-198 307.5,-198 301.5,-192 301.5,-186 301.5,-186 301.5,-174 301.5,-174 301.5,-168 307.5,-162 313.5,-162 313.5,-162 346.5,-162 346.5,-162 352.5,-162 358.5,-168 358.5,-174 358.5,-174 358.5,-186 358.5,-186 358.5,-192 352.5,-198 346.5,-198"/>
<text text-anchor="middle" x="330" y="-176.3" font-family="Helvetica,sans-Serif" font-size="14.00">rotate</text>
</g>
<!-- pressure -->
<g id="node3" class="node">
<title>pressure</title>
<path fill="white" stroke="black" d="M229,-90C229,-90 176,-90 176,-90 170,-90 164,-84 164,-78 164,-78 164,-66 164,-66 164,-60 170,-54 176,-54 176,-54 229,-54 229,-54 235,-54 241,-60 241,-66 241,-66 241,-78 241,-78 241,-84 235,-90 229,-90"/>
<text text-anchor="middle" x="202.5" y="-68.3" font-family="Helvetica,sans-Serif" font-size="14.00">pressure</text>
</g>
<!-- pressure&#45;&gt;volt -->
<g id="edge1" class="edge">
<title>pressure&#45;&gt;volt</title>
<path fill="none" stroke="black" stroke-width="1.2" d="M241.15,-88.2C257.81,-95.37 277.3,-103.75 293.67,-110.8"/>
<polygon fill="black" stroke="black" stroke-width="1.2" points="292.35,-114.04 302.92,-114.78 295.11,-107.61 292.35,-114.04"/>
</g>
<!-- pressure&#45;&gt;rotate -->
<g id="edge3" class="edge">
<title>pressure&#45;&gt;rotate</title>
<path fill="none" stroke="black" stroke-width="1.2" d="M234.5,-90.12C238.22,-92.88 241.82,-95.86 245,-99 265.51,-119.28 259.85,-133.39 281,-153 284.54,-156.28 288.55,-159.32 292.7,-162.08"/>
<polygon fill="black" stroke="black" stroke-width="1.2" points="290.98,-165.13 301.34,-167.35 294.63,-159.15 290.98,-165.13"/>
</g>
<!-- err_error2 -->
<g id="node6" class="node">
<title>err_error2</title>
<path fill="white" stroke="black" d="M360.5,-90C360.5,-90 299.5,-90 299.5,-90 293.5,-90 287.5,-84 287.5,-78 287.5,-78 287.5,-66 287.5,-66 287.5,-60 293.5,-54 299.5,-54 299.5,-54 360.5,-54 360.5,-54 366.5,-54 372.5,-60 372.5,-66 372.5,-66 372.5,-78 372.5,-78 372.5,-84 366.5,-90 360.5,-90"/>
<text text-anchor="middle" x="330" y="-68.3" font-family="Helvetica,sans-Serif" font-size="14.00">err_error2</text>
</g>
<!-- pressure&#45;&gt;err_error2 -->
<g id="edge6" class="edge">
<title>pressure&#45;&gt;err_error2</title>
<path fill="none" stroke="black" stroke-width="1.2" d="M241.15,-72C252.55,-72 265.26,-72 277.4,-72"/>
<polygon fill="black" stroke="black" stroke-width="1.2" points="277.43,-75.5 287.43,-72 277.43,-68.5 277.43,-75.5"/>
</g>
<!-- mnt_comp2 -->
<g id="node11" class="node">
<title>mnt_comp2</title>
<path fill="white" stroke="black" d="M367,-36C367,-36 293,-36 293,-36 287,-36 281,-30 281,-24 281,-24 281,-12 281,-12 281,-6 287,0 293,0 293,0 367,0 367,0 373,0 379,-6 379,-12 379,-12 379,-24 379,-24 379,-30 373,-36 367,-36"/>
<text text-anchor="middle" x="330" y="-14.3" font-family="Helvetica,sans-Serif" font-size="14.00">mnt_comp2</text>
</g>
<!-- pressure&#45;&gt;mnt_comp2 -->
<g id="edge7" class="edge">
<title>pressure&#45;&gt;mnt_comp2</title>
<path fill="none" stroke="black" stroke-width="1.2" d="M241.15,-55.8C252.66,-50.85 265.52,-45.32 277.77,-40.05"/>
<polygon fill="black" stroke="black" stroke-width="1.2" points="279.18,-43.25 286.98,-36.08 276.41,-36.82 279.18,-43.25"/>
</g>
<!-- vibration -->
<g id="node4" class="node">
<title>vibration</title>
<path fill="white" stroke="black" d="M229.5,-144C229.5,-144 175.5,-144 175.5,-144 169.5,-144 163.5,-138 163.5,-132 163.5,-132 163.5,-120 163.5,-120 163.5,-114 169.5,-108 175.5,-108 175.5,-108 229.5,-108 229.5,-108 235.5,-108 241.5,-114 241.5,-120 241.5,-120 241.5,-132 241.5,-132 241.5,-138 235.5,-144 229.5,-144"/>
<text text-anchor="middle" x="202.5" y="-122.3" font-family="Helvetica,sans-Serif" font-size="14.00">vibration</text>
</g>
<!-- vibration&#45;&gt;volt -->
<g id="edge2" class="edge">
<title>vibration&#45;&gt;volt</title>
<path fill="none" stroke="black" stroke-width="1.2" d="M241.84,-126C258.04,-126 276.81,-126 292.78,-126"/>
<polygon fill="black" stroke="black" stroke-width="1.2" points="292.81,-129.5 302.81,-126 292.81,-122.5 292.81,-129.5"/>
</g>
<!-- vibration&#45;&gt;rotate -->
<g id="edge4" class="edge">
<title>vibration&#45;&gt;rotate</title>
<path fill="none" stroke="black" stroke-width="1.2" d="M241.84,-142.5C257.71,-149.33 276.06,-157.22 291.82,-164"/>
<polygon fill="black" stroke="black" stroke-width="1.2" points="290.68,-167.32 301.25,-168.06 293.45,-160.89 290.68,-167.32"/>
</g>
<!-- err_error1 -->
<g id="node5" class="node">
<title>err_error1</title>
<path fill="white" stroke="black" d="M105.5,-144C105.5,-144 44.5,-144 44.5,-144 38.5,-144 32.5,-138 32.5,-132 32.5,-132 32.5,-120 32.5,-120 32.5,-114 38.5,-108 44.5,-108 44.5,-108 105.5,-108 105.5,-108 111.5,-108 117.5,-114 117.5,-120 117.5,-120 117.5,-132 117.5,-132 117.5,-138 111.5,-144 105.5,-144"/>
<text text-anchor="middle" x="75" y="-122.3" font-family="Helvetica,sans-Serif" font-size="14.00">err_error1</text>
</g>
<!-- err_error1&#45;&gt;vibration -->
<g id="edge8" class="edge">
<title>err_error1&#45;&gt;vibration</title>
<path fill="none" stroke="black" stroke-width="1.2" d="M117.79,-126C129.15,-126 141.55,-126 153.23,-126"/>
<polygon fill="black" stroke="black" stroke-width="1.2" points="153.28,-129.5 163.28,-126 153.28,-122.5 153.28,-129.5"/>
</g>
<!-- err_error3 -->
<g id="node7" class="node">
<title>err_error3</title>
<path fill="white" stroke="black" d="M233,-198C233,-198 172,-198 172,-198 166,-198 160,-192 160,-186 160,-186 160,-174 160,-174 160,-168 166,-162 172,-162 172,-162 233,-162 233,-162 239,-162 245,-168 245,-174 245,-174 245,-186 245,-186 245,-192 239,-198 233,-198"/>
<text text-anchor="middle" x="202.5" y="-176.3" font-family="Helvetica,sans-Serif" font-size="14.00">err_error3</text>
</g>
<!-- err_error3&#45;&gt;rotate -->
<g id="edge5" class="edge">
<title>err_error3&#45;&gt;rotate</title>
<path fill="none" stroke="black" stroke-width="1.2" d="M245.29,-180C260.09,-180 276.66,-180 291.12,-180"/>
<polygon fill="black" stroke="black" stroke-width="1.2" points="291.22,-183.5 301.22,-180 291.22,-176.5 291.22,-183.5"/>
</g>
<!-- err_error4 -->
<g id="node8" class="node">
<title>err_error4</title>
<path fill="white" stroke="black" d="M105.5,-198C105.5,-198 44.5,-198 44.5,-198 38.5,-198 32.5,-192 32.5,-186 32.5,-186 32.5,-174 32.5,-174 32.5,-168 38.5,-162 44.5,-162 44.5,-162 105.5,-162 105.5,-162 111.5,-162 117.5,-168 117.5,-174 117.5,-174 117.5,-186 117.5,-186 117.5,-192 111.5,-198 105.5,-198"/>
<text text-anchor="middle" x="75" y="-176.3" font-family="Helvetica,sans-Serif" font-size="14.00">err_error4</text>
</g>
<!-- err_error5 -->
<g id="node9" class="node">
<title>err_error5</title>
<path fill="white" stroke="black" d="M105.5,-252C105.5,-252 44.5,-252 44.5,-252 38.5,-252 32.5,-246 32.5,-240 32.5,-240 32.5,-228 32.5,-228 32.5,-222 38.5,-216 44.5,-216 44.5,-216 105.5,-216 105.5,-216 111.5,-216 117.5,-222 117.5,-228 117.5,-228 117.5,-240 117.5,-240 117.5,-246 111.5,-252 105.5,-252"/>
<text text-anchor="middle" x="75" y="-230.3" font-family="Helvetica,sans-Serif" font-size="14.00">err_error5</text>
</g>
<!-- mnt_comp1 -->
<g id="node10" class="node">
<title>mnt_comp1</title>
<path fill="white" stroke="black" d="M112,-306C112,-306 38,-306 38,-306 32,-306 26,-300 26,-294 26,-294 26,-282 26,-282 26,-276 32,-270 38,-270 38,-270 112,-270 112,-270 118,-270 124,-276 124,-282 124,-282 124,-294 124,-294 124,-300 118,-306 112,-306"/>
<text text-anchor="middle" x="75" y="-284.3" font-family="Helvetica,sans-Serif" font-size="14.00">mnt_comp1</text>
</g>
<!-- mnt_comp3 -->
<g id="node12" class="node">
<title>mnt_comp3</title>
<path fill="white" stroke="black" d="M112,-360C112,-360 38,-360 38,-360 32,-360 26,-354 26,-348 26,-348 26,-336 26,-336 26,-330 32,-324 38,-324 38,-324 112,-324 112,-324 118,-324 124,-330 124,-336 124,-336 124,-348 124,-348 124,-354 118,-360 112,-360"/>
<text text-anchor="middle" x="75" y="-338.3" font-family="Helvetica,sans-Serif" font-size="14.00">mnt_comp3</text>
</g>
<!-- mnt_comp4 -->
<g id="node13" class="node">
<title>mnt_comp4</title>
<path fill="white" stroke="black" d="M112,-414C112,-414 38,-414 38,-414 32,-414 26,-408 26,-402 26,-402 26,-390 26,-390 26,-384 32,-378 38,-378 38,-378 112,-378 112,-378 118,-378 124,-384 124,-390 124,-390 124,-402 124,-402 124,-408 118,-414 112,-414"/>
<text text-anchor="middle" x="75" y="-392.3" font-family="Helvetica,sans-Serif" font-size="14.00">mnt_comp4</text>
</g>
<!-- fail_comp2 -->
<g id="node14" class="node">
<title>fail_comp2</title>
<path fill="white" stroke="black" d="M109,-468C109,-468 41,-468 41,-468 35,-468 29,-462 29,-456 29,-456 29,-444 29,-444 29,-438 35,-432 41,-432 41,-432 109,-432 109,-432 115,-432 121,-438 121,-444 121,-444 121,-456 121,-456 121,-462 115,-468 109,-468"/>
<text text-anchor="middle" x="75" y="-446.3" font-family="Helvetica,sans-Serif" font-size="14.00">fail_comp2</text>
</g>
<!-- fail_comp3 -->
<g id="node15" class="node">
<title>fail_comp3</title>
<path fill="white" stroke="black" d="M109,-522C109,-522 41,-522 41,-522 35,-522 29,-516 29,-510 29,-510 29,-498 29,-498 29,-492 35,-486 41,-486 41,-486 109,-486 109,-486 115,-486 121,-492 121,-498 121,-498 121,-510 121,-510 121,-516 115,-522 109,-522"/>
<text text-anchor="middle" x="75" y="-500.3" font-family="Helvetica,sans-Serif" font-size="14.00">fail_comp3</text>
</g>
<!-- fail_comp4 -->
<g id="node16" class="node">
<title>fail_comp4</title>
<path fill="white" stroke="black" d="M109,-576C109,-576 41,-576 41,-576 35,-576 29,-570 29,-564 29,-564 29,-552 29,-552 29,-546 35,-540 41,-540 41,-540 109,-540 109,-540 115,-540 121,-546 121,-552 121,-552 121,-564 121,-564 121,-570 115,-576 109,-576"/>
<text text-anchor="middle" x="75" y="-554.3" font-family="Helvetica,sans-Serif" font-size="14.00">fail_comp4</text>
</g>
</g>
</svg>
