<?xml version="1.0" encoding="UTF-8" standalone="no"?>
<!DOCTYPE svg PUBLIC "-//W3C//DTD SVG 1.1//EN"
 "http://www.w3.org/Graphics/SVG/1.1/DTD/svg11.dtd">
<!-- Generated by graphviz version 2.50.0 (0)
 -->
<!-- Title: G Pages: 1 -->
<svg width="685pt" height="623pt"
 viewBox="0.00 0.00 685.00 622.68" xmlns="http://www.w3.org/2000/svg" xmlns:xlink="http://www.w3.org/1999/xlink">
<g id="graph0" class="graph" transform="scale(1 1) rotate(0) translate(4 618.68)">
<title>G</title>
<polygon fill="white" stroke="transparent" points="-4,4 -4,-618.68 681,-618.68 681,4 -4,4"/>
<text text-anchor="middle" x="338.5" y="-597.88" font-family="Times,serif" font-size="16.00">model=model2/pcmci_mixed.json [machine 71]</text>
<!-- volt -->
<g id="node1" class="node">
<title>volt</title>
<path fill="white" stroke="black" d="M176,-156.68C176,-156.68 146,-156.68 146,-156.68 140,-156.68 134,-150.68 134,-144.68 134,-144.68 134,-132.68 134,-132.68 134,-126.68 140,-120.68 146,-120.68 146,-120.68 176,-120.68 176,-120.68 182,-120.68 188,-126.68 188,-132.68 188,-132.68 188,-144.68 188,-144.68 188,-150.68 182,-156.68 176,-156.68"/>
<text text-anchor="middle" x="161" y="-134.98" font-family="Helvetica,sans-Serif" font-size="14.00">volt</text>
</g>
<!-- pressure -->
<g id="node3" class="node">
<title>pressure</title>
<path fill="white" stroke="black" d="M289,-133.68C289,-133.68 236,-133.68 236,-133.68 230,-133.68 224,-127.68 224,-121.68 224,-121.68 224,-109.68 224,-109.68 224,-103.68 230,-97.68 236,-97.68 236,-97.68 289,-97.68 289,-97.68 295,-97.68 301,-103.68 301,-109.68 301,-109.68 301,-121.68 301,-121.68 301,-127.68 295,-133.68 289,-133.68"/>
<text text-anchor="middle" x="262.5" y="-111.98" font-family="Helvetica,sans-Serif" font-size="14.00">pressure</text>
</g>
<!-- volt&#45;&gt;pressure -->
<g id="edge1" class="edge">
<title>volt&#45;&gt;pressure</title>
<path fill="none" stroke="black" stroke-width="1.2" d="M188.14,-132.64C196.09,-130.8 205.09,-128.72 213.99,-126.67"/>
<polygon fill="black" stroke="black" stroke-width="1.2" points="214.98,-130.03 223.93,-124.37 213.4,-123.21 214.98,-130.03"/>
</g>
<!-- err_error3 -->
<g id="node7" class="node">
<title>err_error3</title>
<path fill="white" stroke="black" d="M413.5,-202.68C413.5,-202.68 352.5,-202.68 352.5,-202.68 346.5,-202.68 340.5,-196.68 340.5,-190.68 340.5,-190.68 340.5,-178.68 340.5,-178.68 340.5,-172.68 346.5,-166.68 352.5,-166.68 352.5,-166.68 413.5,-166.68 413.5,-166.68 419.5,-166.68 425.5,-172.68 425.5,-178.68 425.5,-178.68 425.5,-190.68 425.5,-190.68 425.5,-196.68 419.5,-202.68 413.5,-202.68"/>
<text text-anchor="middle" x="383" y="-180.98" font-family="Helvetica,sans-Serif" font-size="14.00">err_error3</text>
</g>
<!-- volt&#45;&gt;err_error3 -->
<g id="edge2" class="edge">
<title>volt&#45;&gt;err_error3</title>
<path fill="none" stroke="black" stroke-width="1.2" d="M188.1,-144.14C223.02,-151.44 285.71,-164.55 330.36,-173.89"/>
<polygon fill="black" stroke="black" stroke-width="1.2" points="329.65,-177.31 340.15,-175.93 331.08,-170.46 329.65,-177.31"/>
</g>
<!-- rotate -->
<g id="node2" class="node">
<title>rotate</title>
<path fill="white" stroke="black" d="M530.5,-156.68C530.5,-156.68 497.5,-156.68 497.5,-156.68 491.5,-156.68 485.5,-150.68 485.5,-144.68 485.5,-144.68 485.5,-132.68 485.5,-132.68 485.5,-126.68 491.5,-120.68 497.5,-120.68 497.5,-120.68 530.5,-120.68 530.5,-120.68 536.5,-120.68 542.5,-126.68 542.5,-132.68 542.5,-132.68 542.5,-144.68 542.5,-144.68 542.5,-150.68 536.5,-156.68 530.5,-156.68"/>
<text text-anchor="middle" x="514" y="-134.98" font-family="Helvetica,sans-Serif" font-size="14.00">rotate</text>
</g>
<!-- rotate&#45;&gt;pressure -->
<g id="edge4" class="edge">
<title>rotate&#45;&gt;pressure</title>
<path fill="none" stroke="black" stroke-width="1.2" d="M485.5,-136.15C443.56,-132.28 363.04,-124.86 311.37,-120.1"/>
<polygon fill="black" stroke="black" stroke-width="1.2" points="311.4,-116.59 301.12,-119.15 310.76,-123.56 311.4,-116.59"/>
</g>
<!-- vibration -->
<g id="node4" class="node">
<title>vibration</title>
<path fill="white" stroke="black" d="M665,-156.68C665,-156.68 611,-156.68 611,-156.68 605,-156.68 599,-150.68 599,-144.68 599,-144.68 599,-132.68 599,-132.68 599,-126.68 605,-120.68 611,-120.68 611,-120.68 665,-120.68 665,-120.68 671,-120.68 677,-126.68 677,-132.68 677,-132.68 677,-144.68 677,-144.68 677,-150.68 671,-156.68 665,-156.68"/>
<text text-anchor="middle" x="638" y="-134.98" font-family="Helvetica,sans-Serif" font-size="14.00">vibration</text>
</g>
<!-- rotate&#45;&gt;vibration -->
<g id="edge5" class="edge">
<title>rotate&#45;&gt;vibration</title>
<path fill="none" stroke="black" stroke-width="1.2" d="M542.68,-138.68C556.29,-138.68 573.1,-138.68 588.73,-138.68"/>
<polygon fill="black" stroke="black" stroke-width="1.2" points="588.79,-142.18 598.79,-138.68 588.79,-135.18 588.79,-142.18"/>
</g>
<!-- pressure&#45;&gt;err_error3 -->
<g id="edge8" class="edge">
<title>pressure&#45;&gt;err_error3</title>
<path fill="none" stroke="black" stroke-width="1.2" d="M294.63,-133.81C309.19,-142.29 326.7,-152.49 342.21,-161.52"/>
<polygon fill="black" stroke="black" stroke-width="1.2" points="340.67,-164.67 351.07,-166.68 344.19,-158.62 340.67,-164.67"/>
</g>
<!-- err_error4 -->
<g id="node8" class="node">
<title>err_error4</title>
<path fill="white" stroke="black" d="M413.5,-110.68C413.5,-110.68 352.5,-110.68 352.5,-110.68 346.5,-110.68 340.5,-104.68 340.5,-98.68 340.5,-98.68 340.5,-86.68 340.5,-86.68 340.5,-80.68 346.5,-74.68 352.5,-74.68 352.5,-74.68 413.5,-74.68 413.5,-74.68 419.5,-74.68 425.5,-80.68 425.5,-86.68 425.5,-86.68 425.5,-98.68 425.5,-98.68 425.5,-104.68 419.5,-110.68 413.5,-110.68"/>
<text text-anchor="middle" x="383" y="-88.98" font-family="Helvetica,sans-Serif" font-size="14.00">err_error4</text>
</g>
<!-- pressure&#45;&gt;err_error4 -->
<g id="edge9" class="edge">
<title>pressure&#45;&gt;err_error4</title>
<path fill="none" stroke="black" stroke-width="1.2" d="M301.32,-108.34C310.57,-106.55 320.63,-104.6 330.4,-102.7"/>
<polygon fill="black" stroke="black" stroke-width="1.2" points="331.28,-106.09 340.43,-100.75 329.95,-99.22 331.28,-106.09"/>
</g>
<!-- fail_comp3 -->
<g id="node16" class="node">
<title>fail_comp3</title>
<path fill="white" stroke="black" d="M417,-56.68C417,-56.68 349,-56.68 349,-56.68 343,-56.68 337,-50.68 337,-44.68 337,-44.68 337,-32.68 337,-32.68 337,-26.68 343,-20.68 349,-20.68 349,-20.68 417,-20.68 417,-20.68 423,-20.68 429,-26.68 429,-32.68 429,-32.68 429,-44.68 429,-44.68 429,-50.68 423,-56.68 417,-56.68"/>
<text text-anchor="middle" x="383" y="-34.98" font-family="Helvetica,sans-Serif" font-size="14.00">fail_comp3</text>
</g>
<!-- pressure&#45;&gt;fail_comp3 -->
<g id="edge10" class="edge">
<title>pressure&#45;&gt;fail_comp3</title>
<path fill="none" stroke="black" stroke-width="1.2" d="M289.45,-97.5C303.41,-87.85 321.01,-75.91 337,-65.68 338.87,-64.49 340.79,-63.27 342.74,-62.06"/>
<polygon fill="black" stroke="black" stroke-width="1.2" points="344.68,-64.98 351.36,-56.75 341.01,-59.02 344.68,-64.98"/>
</g>
<!-- vibration&#45;&gt;pressure -->
<g id="edge7" class="edge">
<title>vibration&#45;&gt;pressure</title>
<path fill="none" stroke="black" stroke-width="1.2" d="M616.41,-120.65C581.04,-90.99 505.17,-33.1 429,-11.68 389.64,-0.62 373.31,7.12 337,-11.68 306.15,-27.66 285.48,-63.21 274.11,-88.28"/>
<polygon fill="black" stroke="black" stroke-width="1.2" points="270.82,-87.07 270.08,-97.64 277.25,-89.85 270.82,-87.07"/>
</g>
<!-- err_error1 -->
<g id="node5" class="node">
<title>err_error1</title>
<path fill="white" stroke="black" d="M79.5,-210.68C79.5,-210.68 18.5,-210.68 18.5,-210.68 12.5,-210.68 6.5,-204.68 6.5,-198.68 6.5,-198.68 6.5,-186.68 6.5,-186.68 6.5,-180.68 12.5,-174.68 18.5,-174.68 18.5,-174.68 79.5,-174.68 79.5,-174.68 85.5,-174.68 91.5,-180.68 91.5,-186.68 91.5,-186.68 91.5,-198.68 91.5,-198.68 91.5,-204.68 85.5,-210.68 79.5,-210.68"/>
<text text-anchor="middle" x="49" y="-188.98" font-family="Helvetica,sans-Serif" font-size="14.00">err_error1</text>
</g>
<!-- err_error2 -->
<g id="node6" class="node">
<title>err_error2</title>
<path fill="white" stroke="black" d="M79.5,-264.68C79.5,-264.68 18.5,-264.68 18.5,-264.68 12.5,-264.68 6.5,-258.68 6.5,-252.68 6.5,-252.68 6.5,-240.68 6.5,-240.68 6.5,-234.68 12.5,-228.68 18.5,-228.68 18.5,-228.68 79.5,-228.68 79.5,-228.68 85.5,-228.68 91.5,-234.68 91.5,-240.68 91.5,-240.68 91.5,-252.68 91.5,-252.68 91.5,-258.68 85.5,-264.68 79.5,-264.68"/>
<text text-anchor="middle" x="49" y="-242.98" font-family="Helvetica,sans-Serif" font-size="14.00">err_error2</text>
</g>
<!-- err_error3&#45;&gt;rotate -->
<g id="edge6" class="edge">
<title>err_error3&#45;&gt;rotate</title>
<path fill="none" stroke="black" stroke-width="1.2" d="M425.53,-169.88C441.75,-164.09 460.21,-157.51 475.97,-151.89"/>
<polygon fill="black" stroke="black" stroke-width="1.2" points="477.15,-155.18 485.39,-148.53 474.8,-148.59 477.15,-155.18"/>
</g>
<!-- err_error5 -->
<g id="node9" class="node">
<title>err_error5</title>
<path fill="white" stroke="black" d="M79.5,-318.68C79.5,-318.68 18.5,-318.68 18.5,-318.68 12.5,-318.68 6.5,-312.68 6.5,-306.68 6.5,-306.68 6.5,-294.68 6.5,-294.68 6.5,-288.68 12.5,-282.68 18.5,-282.68 18.5,-282.68 79.5,-282.68 79.5,-282.68 85.5,-282.68 91.5,-288.68 91.5,-294.68 91.5,-294.68 91.5,-306.68 91.5,-306.68 91.5,-312.68 85.5,-318.68 79.5,-318.68"/>
<text text-anchor="middle" x="49" y="-296.98" font-family="Helvetica,sans-Serif" font-size="14.00">err_error5</text>
</g>
<!-- mnt_comp1 -->
<g id="node10" class="node">
<title>mnt_comp1</title>
<path fill="white" stroke="black" d="M86,-372.68C86,-372.68 12,-372.68 12,-372.68 6,-372.68 0,-366.68 0,-360.68 0,-360.68 0,-348.68 0,-348.68 0,-342.68 6,-336.68 12,-336.68 12,-336.68 86,-336.68 86,-336.68 92,-336.68 98,-342.68 98,-348.68 98,-348.68 98,-360.68 98,-360.68 98,-366.68 92,-372.68 86,-372.68"/>
<text text-anchor="middle" x="49" y="-350.98" font-family="Helvetica,sans-Serif" font-size="14.00">mnt_comp1</text>
</g>
<!-- mnt_comp2 -->
<g id="node11" class="node">
<title>mnt_comp2</title>
<path fill="white" stroke="black" d="M86,-426.68C86,-426.68 12,-426.68 12,-426.68 6,-426.68 0,-420.68 0,-414.68 0,-414.68 0,-402.68 0,-402.68 0,-396.68 6,-390.68 12,-390.68 12,-390.68 86,-390.68 86,-390.68 92,-390.68 98,-396.68 98,-402.68 98,-402.68 98,-414.68 98,-414.68 98,-420.68 92,-426.68 86,-426.68"/>
<text text-anchor="middle" x="49" y="-404.98" font-family="Helvetica,sans-Serif" font-size="14.00">mnt_comp2</text>
</g>
<!-- mnt_comp3 -->
<g id="node12" class="node">
<title>mnt_comp3</title>
<path fill="white" stroke="black" d="M86,-480.68C86,-480.68 12,-480.68 12,-480.68 6,-480.68 0,-474.68 0,-468.68 0,-468.68 0,-456.68 0,-456.68 0,-450.68 6,-444.68 12,-444.68 12,-444.68 86,-444.68 86,-444.68 92,-444.68 98,-450.68 98,-456.68 98,-456.68 98,-468.68 98,-468.68 98,-474.68 92,-480.68 86,-480.68"/>
<text text-anchor="middle" x="49" y="-458.98" font-family="Helvetica,sans-Serif" font-size="14.00">mnt_comp3</text>
</g>
<!-- mnt_comp4 -->
<g id="node13" class="node">
<title>mnt_comp4</title>
<path fill="white" stroke="black" d="M551,-210.68C551,-210.68 477,-210.68 477,-210.68 471,-210.68 465,-204.68 465,-198.68 465,-198.68 465,-186.68 465,-186.68 465,-180.68 471,-174.68 477,-174.68 477,-174.68 551,-174.68 551,-174.68 557,-174.68 563,-180.68 563,-186.68 563,-186.68 563,-198.68 563,-198.68 563,-204.68 557,-210.68 551,-210.68"/>
<text text-anchor="middle" x="514" y="-188.98" font-family="Helvetica,sans-Serif" font-size="14.00">mnt_comp4</text>
</g>
<!-- mnt_comp4&#45;&gt;vibration -->
<g id="edge11" class="edge">
<title>mnt_comp4&#45;&gt;vibration</title>
<path fill="none" stroke="black" stroke-width="1.2" d="M555.96,-174.55C566.78,-169.77 578.54,-164.56 589.66,-159.64"/>
<polygon fill="black" stroke="black" stroke-width="1.2" points="591.09,-162.83 598.82,-155.58 588.26,-156.43 591.09,-162.83"/>
</g>
<!-- fail_comp1 -->
<g id="node14" class="node">
<title>fail_comp1</title>
<path fill="white" stroke="black" d="M83,-156.68C83,-156.68 15,-156.68 15,-156.68 9,-156.68 3,-150.68 3,-144.68 3,-144.68 3,-132.68 3,-132.68 3,-126.68 9,-120.68 15,-120.68 15,-120.68 83,-120.68 83,-120.68 89,-120.68 95,-126.68 95,-132.68 95,-132.68 95,-144.68 95,-144.68 95,-150.68 89,-156.68 83,-156.68"/>
<text text-anchor="middle" x="49" y="-134.98" font-family="Helvetica,sans-Serif" font-size="14.00">fail_comp1</text>
</g>
<!-- fail_comp1&#45;&gt;volt -->
<g id="edge3" class="edge">
<title>fail_comp1&#45;&gt;volt</title>
<path fill="none" stroke="black" stroke-width="1.2" d="M95.06,-138.68C104.53,-138.68 114.4,-138.68 123.51,-138.68"/>
<polygon fill="black" stroke="black" stroke-width="1.2" points="123.78,-142.18 133.78,-138.68 123.78,-135.18 123.78,-142.18"/>
</g>
<!-- fail_comp2 -->
<g id="node15" class="node">
<title>fail_comp2</title>
<path fill="white" stroke="black" d="M83,-534.68C83,-534.68 15,-534.68 15,-534.68 9,-534.68 3,-528.68 3,-522.68 3,-522.68 3,-510.68 3,-510.68 3,-504.68 9,-498.68 15,-498.68 15,-498.68 83,-498.68 83,-498.68 89,-498.68 95,-504.68 95,-510.68 95,-510.68 95,-522.68 95,-522.68 95,-528.68 89,-534.68 83,-534.68"/>
<text text-anchor="middle" x="49" y="-512.98" font-family="Helvetica,sans-Serif" font-size="14.00">fail_comp2</text>
</g>
<!-- fail_comp4 -->
<g id="node17" class="node">
<title>fail_comp4</title>
<path fill="white" stroke="black" d="M83,-588.68C83,-588.68 15,-588.68 15,-588.68 9,-588.68 3,-582.68 3,-576.68 3,-576.68 3,-564.68 3,-564.68 3,-558.68 9,-552.68 15,-552.68 15,-552.68 83,-552.68 83,-552.68 89,-552.68 95,-558.68 95,-564.68 95,-564.68 95,-576.68 95,-576.68 95,-582.68 89,-588.68 83,-588.68"/>
<text text-anchor="middle" x="49" y="-566.98" font-family="Helvetica,sans-Serif" font-size="14.00">fail_comp4</text>
</g>
</g>
</svg>
