<?xml version="1.0" encoding="UTF-8" standalone="no"?>
<!DOCTYPE svg PUBLIC "-//W3C//DTD SVG 1.1//EN"
 "http://www.w3.org/Graphics/SVG/1.1/DTD/svg11.dtd">
<!-- Generated by graphviz version 2.50.0 (0)
 -->
<!-- Title: G Pages: 1 -->
<svg width="579pt" height="432pt"
 viewBox="0.00 0.00 579.00 432.00" xmlns="http://www.w3.org/2000/svg" xmlns:xlink="http://www.w3.org/1999/xlink">
<g id="graph0" class="graph" transform="scale(1 1) rotate(0) translate(4 428)">
<title>G</title>
<polygon fill="white" stroke="transparent" points="-4,4 -4,-428 575,-428 575,4 -4,4"/>
<text text-anchor="middle" x="285.5" y="-407.2" font-family="Times,serif" font-size="16.00">model=model4/pcmci_mixed.json [machine 36]</text>
<!-- volt -->
<g id="node1" class="node">
<title>volt</title>
<path fill="white" stroke="black" d="M176,-101C176,-101 146,-101 146,-101 140,-101 134,-95 134,-89 134,-89 134,-77 134,-77 134,-71 140,-65 146,-65 146,-65 176,-65 176,-65 182,-65 188,-71 188,-77 188,-77 188,-89 188,-89 188,-95 182,-101 176,-101"/>
<text text-anchor="middle" x="161" y="-79.3" font-family="Helvetica,sans-Serif" font-size="14.00">volt</text>
</g>
<!-- rotate -->
<g id="node2" class="node">
<title>rotate</title>
<path fill="white" stroke="black" d="M289.5,-166C289.5,-166 256.5,-166 256.5,-166 250.5,-166 244.5,-160 244.5,-154 244.5,-154 244.5,-142 244.5,-142 244.5,-136 250.5,-130 256.5,-130 256.5,-130 289.5,-130 289.5,-130 295.5,-130 301.5,-136 301.5,-142 301.5,-142 301.5,-154 301.5,-154 301.5,-160 295.5,-166 289.5,-166"/>
<text text-anchor="middle" x="273" y="-144.3" font-family="Helvetica,sans-Serif" font-size="14.00">rotate</text>
</g>
<!-- volt&#45;&gt;rotate -->
<g id="edge1" class="edge">
<title>volt&#45;&gt;rotate</title>
<path fill="none" stroke="black" stroke-width="1.2" d="M188.07,-98.4C202.2,-106.75 219.88,-117.2 235.37,-126.36"/>
<polygon fill="black" stroke="black" stroke-width="1.2" points="233.81,-129.5 244.2,-131.57 237.37,-123.47 233.81,-129.5"/>
</g>
<!-- err_error4 -->
<g id="node8" class="node">
<title>err_error4</title>
<path fill="white" stroke="black" d="M559,-108C559,-108 498,-108 498,-108 492,-108 486,-102 486,-96 486,-96 486,-84 486,-84 486,-78 492,-72 498,-72 498,-72 559,-72 559,-72 565,-72 571,-78 571,-84 571,-84 571,-96 571,-96 571,-102 565,-108 559,-108"/>
<text text-anchor="middle" x="528.5" y="-86.3" font-family="Helvetica,sans-Serif" font-size="14.00">err_error4</text>
</g>
<!-- volt&#45;&gt;err_error4 -->
<g id="edge4" class="edge">
<title>volt&#45;&gt;err_error4</title>
<path fill="none" stroke="black" stroke-width="1.2" d="M188.29,-83.5C248.36,-84.65 396.62,-87.49 475.76,-89.01"/>
<polygon fill="black" stroke="black" stroke-width="1.2" points="475.92,-92.51 485.99,-89.2 476.06,-85.51 475.92,-92.51"/>
</g>
<!-- mnt_comp3 -->
<g id="node12" class="node">
<title>mnt_comp3</title>
<path fill="white" stroke="black" d="M310,-36C310,-36 236,-36 236,-36 230,-36 224,-30 224,-24 224,-24 224,-12 224,-12 224,-6 230,0 236,0 236,0 310,0 310,0 316,0 322,-6 322,-12 322,-12 322,-24 322,-24 322,-30 316,-36 310,-36"/>
<text text-anchor="middle" x="273" y="-14.3" font-family="Helvetica,sans-Serif" font-size="14.00">mnt_comp3</text>
</g>
<!-- volt&#45;&gt;mnt_comp3 -->
<g id="edge5" class="edge">
<title>volt&#45;&gt;mnt_comp3</title>
<path fill="none" stroke="black" stroke-width="1.2" d="M188.07,-67.6C201.33,-59.76 217.72,-50.07 232.49,-41.35"/>
<polygon fill="black" stroke="black" stroke-width="1.2" points="234.61,-44.16 241.44,-36.06 231.05,-38.13 234.61,-44.16"/>
</g>
<!-- pressure -->
<g id="node3" class="node">
<title>pressure</title>
<path fill="white" stroke="black" d="M555,-216C555,-216 502,-216 502,-216 496,-216 490,-210 490,-204 490,-204 490,-192 490,-192 490,-186 496,-180 502,-180 502,-180 555,-180 555,-180 561,-180 567,-186 567,-192 567,-192 567,-204 567,-204 567,-210 561,-216 555,-216"/>
<text text-anchor="middle" x="528.5" y="-194.3" font-family="Helvetica,sans-Serif" font-size="14.00">pressure</text>
</g>
<!-- rotate&#45;&gt;pressure -->
<g id="edge7" class="edge">
<title>rotate&#45;&gt;pressure</title>
<path fill="none" stroke="black" stroke-width="1.2" d="M301.66,-158.25C317.88,-163.91 338.88,-170.66 358,-175 398.55,-184.19 445.45,-190.21 479.62,-193.78"/>
<polygon fill="black" stroke="black" stroke-width="1.2" points="479.49,-197.28 489.8,-194.8 480.2,-190.32 479.49,-197.28"/>
</g>
<!-- vibration -->
<g id="node4" class="node">
<title>vibration</title>
<path fill="white" stroke="black" d="M431,-166C431,-166 377,-166 377,-166 371,-166 365,-160 365,-154 365,-154 365,-142 365,-142 365,-136 371,-130 377,-130 377,-130 431,-130 431,-130 437,-130 443,-136 443,-142 443,-142 443,-154 443,-154 443,-160 437,-166 431,-166"/>
<text text-anchor="middle" x="404" y="-144.3" font-family="Helvetica,sans-Serif" font-size="14.00">vibration</text>
</g>
<!-- rotate&#45;&gt;vibration -->
<g id="edge8" class="edge">
<title>rotate&#45;&gt;vibration</title>
<path fill="none" stroke="black" stroke-width="1.2" d="M301.67,-148C317.02,-148 336.55,-148 354.36,-148"/>
<polygon fill="black" stroke="black" stroke-width="1.2" points="354.61,-151.5 364.61,-148 354.61,-144.5 354.61,-151.5"/>
</g>
<!-- fail_comp2 -->
<g id="node15" class="node">
<title>fail_comp2</title>
<path fill="white" stroke="black" d="M438,-258C438,-258 370,-258 370,-258 364,-258 358,-252 358,-246 358,-246 358,-234 358,-234 358,-228 364,-222 370,-222 370,-222 438,-222 438,-222 444,-222 450,-228 450,-234 450,-234 450,-246 450,-246 450,-252 444,-258 438,-258"/>
<text text-anchor="middle" x="404" y="-236.3" font-family="Helvetica,sans-Serif" font-size="14.00">fail_comp2</text>
</g>
<!-- rotate&#45;&gt;fail_comp2 -->
<g id="edge10" class="edge">
<title>rotate&#45;&gt;fail_comp2</title>
<path fill="none" stroke="black" stroke-width="1.2" d="M299.35,-166.13C316.02,-178.04 338.3,-193.96 358,-208 361.51,-210.5 365.18,-213.12 368.84,-215.72"/>
<polygon fill="black" stroke="black" stroke-width="1.2" points="367.12,-218.79 377.29,-221.73 371.17,-213.08 367.12,-218.79"/>
</g>
<!-- vibration&#45;&gt;volt -->
<g id="edge2" class="edge">
<title>vibration&#45;&gt;volt</title>
<path fill="none" stroke="black" stroke-width="1.2" d="M364.9,-134.53C351.42,-129.97 336.11,-125.02 322,-121 279.88,-109 230.79,-97.74 198.2,-90.64"/>
<polygon fill="black" stroke="black" stroke-width="1.2" points="198.75,-87.17 188.23,-88.48 197.27,-94.02 198.75,-87.17"/>
</g>
<!-- vibration&#45;&gt;pressure -->
<g id="edge11" class="edge">
<title>vibration&#45;&gt;pressure</title>
<path fill="none" stroke="black" stroke-width="1.2" d="M443.09,-163.55C454.95,-168.39 468.18,-173.79 480.57,-178.85"/>
<polygon fill="black" stroke="black" stroke-width="1.2" points="479.27,-182.1 489.86,-182.64 481.92,-175.62 479.27,-182.1"/>
</g>
<!-- err_error2 -->
<g id="node6" class="node">
<title>err_error2</title>
<path fill="white" stroke="black" d="M559,-162C559,-162 498,-162 498,-162 492,-162 486,-156 486,-150 486,-150 486,-138 486,-138 486,-132 492,-126 498,-126 498,-126 559,-126 559,-126 565,-126 571,-132 571,-138 571,-138 571,-150 571,-150 571,-156 565,-162 559,-162"/>
<text text-anchor="middle" x="528.5" y="-140.3" font-family="Helvetica,sans-Serif" font-size="14.00">err_error2</text>
</g>
<!-- vibration&#45;&gt;err_error2 -->
<g id="edge12" class="edge">
<title>vibration&#45;&gt;err_error2</title>
<path fill="none" stroke="black" stroke-width="1.2" d="M443.09,-146.76C453.31,-146.42 464.54,-146.06 475.37,-145.7"/>
<polygon fill="black" stroke="black" stroke-width="1.2" points="475.72,-149.19 485.6,-145.37 475.49,-142.2 475.72,-149.19"/>
</g>
<!-- vibration&#45;&gt;err_error4 -->
<g id="edge13" class="edge">
<title>vibration&#45;&gt;err_error4</title>
<path fill="none" stroke="black" stroke-width="1.2" d="M443.09,-129.97C454.84,-124.4 467.93,-118.2 480.22,-112.38"/>
<polygon fill="black" stroke="black" stroke-width="1.2" points="481.89,-115.47 489.44,-108.02 478.9,-109.14 481.89,-115.47"/>
</g>
<!-- err_error1 -->
<g id="node5" class="node">
<title>err_error1</title>
<path fill="white" stroke="black" d="M79.5,-128C79.5,-128 18.5,-128 18.5,-128 12.5,-128 6.5,-122 6.5,-116 6.5,-116 6.5,-104 6.5,-104 6.5,-98 12.5,-92 18.5,-92 18.5,-92 79.5,-92 79.5,-92 85.5,-92 91.5,-98 91.5,-104 91.5,-104 91.5,-116 91.5,-116 91.5,-122 85.5,-128 79.5,-128"/>
<text text-anchor="middle" x="49" y="-106.3" font-family="Helvetica,sans-Serif" font-size="14.00">err_error1</text>
</g>
<!-- err_error1&#45;&gt;volt -->
<g id="edge3" class="edge">
<title>err_error1&#45;&gt;volt</title>
<path fill="none" stroke="black" stroke-width="1.2" d="M91.59,-99.79C102.26,-97.17 113.66,-94.37 124.03,-91.83"/>
<polygon fill="black" stroke="black" stroke-width="1.2" points="125.11,-95.17 133.99,-89.39 123.44,-88.37 125.11,-95.17"/>
</g>
<!-- err_error3 -->
<g id="node7" class="node">
<title>err_error3</title>
<path fill="white" stroke="black" d="M79.5,-182C79.5,-182 18.5,-182 18.5,-182 12.5,-182 6.5,-176 6.5,-170 6.5,-170 6.5,-158 6.5,-158 6.5,-152 12.5,-146 18.5,-146 18.5,-146 79.5,-146 79.5,-146 85.5,-146 91.5,-152 91.5,-158 91.5,-158 91.5,-170 91.5,-170 91.5,-176 85.5,-182 79.5,-182"/>
<text text-anchor="middle" x="49" y="-160.3" font-family="Helvetica,sans-Serif" font-size="14.00">err_error3</text>
</g>
<!-- err_error4&#45;&gt;rotate -->
<g id="edge9" class="edge">
<title>err_error4&#45;&gt;rotate</title>
<path fill="none" stroke="black" stroke-width="1.2" d="M485.73,-96.09C451.22,-101.48 401.09,-110.18 358,-121 342.55,-124.88 325.79,-130.06 311.33,-134.85"/>
<polygon fill="black" stroke="black" stroke-width="1.2" points="310.1,-131.57 301.74,-138.08 312.33,-138.21 310.1,-131.57"/>
</g>
<!-- err_error5 -->
<g id="node9" class="node">
<title>err_error5</title>
<path fill="white" stroke="black" d="M79.5,-236C79.5,-236 18.5,-236 18.5,-236 12.5,-236 6.5,-230 6.5,-224 6.5,-224 6.5,-212 6.5,-212 6.5,-206 12.5,-200 18.5,-200 18.5,-200 79.5,-200 79.5,-200 85.5,-200 91.5,-206 91.5,-212 91.5,-212 91.5,-224 91.5,-224 91.5,-230 85.5,-236 79.5,-236"/>
<text text-anchor="middle" x="49" y="-214.3" font-family="Helvetica,sans-Serif" font-size="14.00">err_error5</text>
</g>
<!-- mnt_comp1 -->
<g id="node10" class="node">
<title>mnt_comp1</title>
<path fill="white" stroke="black" d="M86,-290C86,-290 12,-290 12,-290 6,-290 0,-284 0,-278 0,-278 0,-266 0,-266 0,-260 6,-254 12,-254 12,-254 86,-254 86,-254 92,-254 98,-260 98,-266 98,-266 98,-278 98,-278 98,-284 92,-290 86,-290"/>
<text text-anchor="middle" x="49" y="-268.3" font-family="Helvetica,sans-Serif" font-size="14.00">mnt_comp1</text>
</g>
<!-- mnt_comp2 -->
<g id="node11" class="node">
<title>mnt_comp2</title>
<path fill="white" stroke="black" d="M86,-344C86,-344 12,-344 12,-344 6,-344 0,-338 0,-332 0,-332 0,-320 0,-320 0,-314 6,-308 12,-308 12,-308 86,-308 86,-308 92,-308 98,-314 98,-320 98,-320 98,-332 98,-332 98,-338 92,-344 86,-344"/>
<text text-anchor="middle" x="49" y="-322.3" font-family="Helvetica,sans-Serif" font-size="14.00">mnt_comp2</text>
</g>
<!-- mnt_comp4 -->
<g id="node13" class="node">
<title>mnt_comp4</title>
<path fill="white" stroke="black" d="M86,-398C86,-398 12,-398 12,-398 6,-398 0,-392 0,-386 0,-386 0,-374 0,-374 0,-368 6,-362 12,-362 12,-362 86,-362 86,-362 92,-362 98,-368 98,-374 98,-374 98,-386 98,-386 98,-392 92,-398 86,-398"/>
<text text-anchor="middle" x="49" y="-376.3" font-family="Helvetica,sans-Serif" font-size="14.00">mnt_comp4</text>
</g>
<!-- fail_comp1 -->
<g id="node14" class="node">
<title>fail_comp1</title>
<path fill="white" stroke="black" d="M83,-74C83,-74 15,-74 15,-74 9,-74 3,-68 3,-62 3,-62 3,-50 3,-50 3,-44 9,-38 15,-38 15,-38 83,-38 83,-38 89,-38 95,-44 95,-50 95,-50 95,-62 95,-62 95,-68 89,-74 83,-74"/>
<text text-anchor="middle" x="49" y="-52.3" font-family="Helvetica,sans-Serif" font-size="14.00">fail_comp1</text>
</g>
<!-- fail_comp1&#45;&gt;volt -->
<g id="edge6" class="edge">
<title>fail_comp1&#45;&gt;volt</title>
<path fill="none" stroke="black" stroke-width="1.2" d="M95.06,-67.06C104.63,-69.41 114.61,-71.86 123.8,-74.12"/>
<polygon fill="black" stroke="black" stroke-width="1.2" points="123.23,-77.58 133.78,-76.56 124.9,-70.78 123.23,-77.58"/>
</g>
</g>
</svg>
