<?xml version="1.0" encoding="UTF-8" standalone="no"?>
<!DOCTYPE svg PUBLIC "-//W3C//DTD SVG 1.1//EN"
 "http://www.w3.org/Graphics/SVG/1.1/DTD/svg11.dtd">
<!-- Generated by graphviz version 2.50.0 (0)
 -->
<!-- Title: G Pages: 1 -->
<svg width="483pt" height="522pt"
 viewBox="0.00 0.00 483.00 522.00" xmlns="http://www.w3.org/2000/svg" xmlns:xlink="http://www.w3.org/1999/xlink">
<g id="graph0" class="graph" transform="scale(1 1) rotate(0) translate(4 518)">
<title>G</title>
<polygon fill="white" stroke="transparent" points="-4,4 -4,-518 479,-518 479,4 -4,4"/>
<text text-anchor="middle" x="237.5" y="-497.2" font-family="Times,serif" font-size="16.00">model=model2/pcmci_mixed.json [machine 95]</text>
<!-- volt -->
<g id="node1" class="node">
<title>volt</title>
<path fill="white" stroke="black" d="M195,-171C195,-171 165,-171 165,-171 159,-171 153,-165 153,-159 153,-159 153,-147 153,-147 153,-141 159,-135 165,-135 165,-135 195,-135 195,-135 201,-135 207,-141 207,-147 207,-147 207,-159 207,-159 207,-165 201,-171 195,-171"/>
<text text-anchor="middle" x="180" y="-149.3" font-family="Helvetica,sans-Serif" font-size="14.00">volt</text>
</g>
<!-- fail_comp1 -->
<g id="node14" class="node">
<title>fail_comp1</title>
<path fill="white" stroke="black" d="M342,-198C342,-198 274,-198 274,-198 268,-198 262,-192 262,-186 262,-186 262,-174 262,-174 262,-168 268,-162 274,-162 274,-162 342,-162 342,-162 348,-162 354,-168 354,-174 354,-174 354,-186 354,-186 354,-192 348,-198 342,-198"/>
<text text-anchor="middle" x="308" y="-176.3" font-family="Helvetica,sans-Serif" font-size="14.00">fail_comp1</text>
</g>
<!-- volt&#45;&gt;fail_comp1 -->
<g id="edge2" class="edge">
<title>volt&#45;&gt;fail_comp1</title>
<path fill="none" stroke="black" stroke-width="1.2" d="M207.11,-158.59C220.06,-161.37 236.22,-164.83 251.74,-168.16"/>
<polygon fill="black" stroke="black" stroke-width="1.2" points="251.3,-171.64 261.81,-170.32 252.77,-164.8 251.3,-171.64"/>
</g>
<!-- rotate -->
<g id="node2" class="node">
<title>rotate</title>
<path fill="white" stroke="black" d="M324.5,-63C324.5,-63 291.5,-63 291.5,-63 285.5,-63 279.5,-57 279.5,-51 279.5,-51 279.5,-39 279.5,-39 279.5,-33 285.5,-27 291.5,-27 291.5,-27 324.5,-27 324.5,-27 330.5,-27 336.5,-33 336.5,-39 336.5,-39 336.5,-51 336.5,-51 336.5,-57 330.5,-63 324.5,-63"/>
<text text-anchor="middle" x="308" y="-41.3" font-family="Helvetica,sans-Serif" font-size="14.00">rotate</text>
</g>
<!-- pressure -->
<g id="node3" class="node">
<title>pressure</title>
<path fill="white" stroke="black" d="M75.5,-63C75.5,-63 22.5,-63 22.5,-63 16.5,-63 10.5,-57 10.5,-51 10.5,-51 10.5,-39 10.5,-39 10.5,-33 16.5,-27 22.5,-27 22.5,-27 75.5,-27 75.5,-27 81.5,-27 87.5,-33 87.5,-39 87.5,-39 87.5,-51 87.5,-51 87.5,-57 81.5,-63 75.5,-63"/>
<text text-anchor="middle" x="49" y="-41.3" font-family="Helvetica,sans-Serif" font-size="14.00">pressure</text>
</g>
<!-- rotate&#45;&gt;pressure -->
<g id="edge4" class="edge">
<title>rotate&#45;&gt;pressure</title>
<path fill="none" stroke="black" stroke-width="1.2" d="M279.44,-33.36C264.03,-27.47 244.29,-20.97 226,-18 185.64,-11.45 174.4,-11.67 134,-18 121.94,-19.89 109.25,-23.22 97.49,-26.91"/>
<polygon fill="black" stroke="black" stroke-width="1.2" points="96.27,-23.63 87.86,-30.07 98.46,-30.28 96.27,-23.63"/>
</g>
<!-- err_error1 -->
<g id="node5" class="node">
<title>err_error1</title>
<path fill="white" stroke="black" d="M463,-90C463,-90 402,-90 402,-90 396,-90 390,-84 390,-78 390,-78 390,-66 390,-66 390,-60 396,-54 402,-54 402,-54 463,-54 463,-54 469,-54 475,-60 475,-66 475,-66 475,-78 475,-78 475,-84 469,-90 463,-90"/>
<text text-anchor="middle" x="432.5" y="-68.3" font-family="Helvetica,sans-Serif" font-size="14.00">err_error1</text>
</g>
<!-- rotate&#45;&gt;err_error1 -->
<g id="edge5" class="edge">
<title>rotate&#45;&gt;err_error1</title>
<path fill="none" stroke="black" stroke-width="1.2" d="M336.8,-51.13C349.53,-53.93 365.05,-57.35 379.8,-60.61"/>
<polygon fill="black" stroke="black" stroke-width="1.2" points="379.33,-64.09 389.85,-62.82 380.84,-57.25 379.33,-64.09"/>
</g>
<!-- err_error3 -->
<g id="node7" class="node">
<title>err_error3</title>
<path fill="white" stroke="black" d="M463,-36C463,-36 402,-36 402,-36 396,-36 390,-30 390,-24 390,-24 390,-12 390,-12 390,-6 396,0 402,0 402,0 463,0 463,0 469,0 475,-6 475,-12 475,-12 475,-24 475,-24 475,-30 469,-36 463,-36"/>
<text text-anchor="middle" x="432.5" y="-14.3" font-family="Helvetica,sans-Serif" font-size="14.00">err_error3</text>
</g>
<!-- rotate&#45;&gt;err_error3 -->
<g id="edge6" class="edge">
<title>rotate&#45;&gt;err_error3</title>
<path fill="none" stroke="black" stroke-width="1.2" d="M336.8,-38.87C349.53,-36.07 365.05,-32.65 379.8,-29.39"/>
<polygon fill="black" stroke="black" stroke-width="1.2" points="380.84,-32.75 389.85,-27.18 379.33,-25.91 380.84,-32.75"/>
</g>
<!-- pressure&#45;&gt;volt -->
<g id="edge1" class="edge">
<title>pressure&#45;&gt;volt</title>
<path fill="none" stroke="black" stroke-width="1.2" d="M66.64,-63.29C82.88,-80.57 108.75,-106.65 134,-126 137.16,-128.42 140.56,-130.81 144.02,-133.1"/>
<polygon fill="black" stroke="black" stroke-width="1.2" points="142.32,-136.16 152.64,-138.55 146.06,-130.25 142.32,-136.16"/>
</g>
<!-- fail_comp3 -->
<g id="node16" class="node">
<title>fail_comp3</title>
<path fill="white" stroke="black" d="M214,-63C214,-63 146,-63 146,-63 140,-63 134,-57 134,-51 134,-51 134,-39 134,-39 134,-33 140,-27 146,-27 146,-27 214,-27 214,-27 220,-27 226,-33 226,-39 226,-39 226,-51 226,-51 226,-57 220,-63 214,-63"/>
<text text-anchor="middle" x="180" y="-41.3" font-family="Helvetica,sans-Serif" font-size="14.00">fail_comp3</text>
</g>
<!-- pressure&#45;&gt;fail_comp3 -->
<g id="edge9" class="edge">
<title>pressure&#45;&gt;fail_comp3</title>
<path fill="none" stroke="black" stroke-width="1.2" d="M87.66,-45C98.93,-45 111.53,-45 123.69,-45"/>
<polygon fill="black" stroke="black" stroke-width="1.2" points="123.76,-48.5 133.76,-45 123.76,-41.5 123.76,-48.5"/>
</g>
<!-- vibration -->
<g id="node4" class="node">
<title>vibration</title>
<path fill="white" stroke="black" d="M207,-265C207,-265 153,-265 153,-265 147,-265 141,-259 141,-253 141,-253 141,-241 141,-241 141,-235 147,-229 153,-229 153,-229 207,-229 207,-229 213,-229 219,-235 219,-241 219,-241 219,-253 219,-253 219,-259 213,-265 207,-265"/>
<text text-anchor="middle" x="180" y="-243.3" font-family="Helvetica,sans-Serif" font-size="14.00">vibration</text>
</g>
<!-- err_error2 -->
<g id="node6" class="node">
<title>err_error2</title>
<path fill="white" stroke="black" d="M338.5,-265C338.5,-265 277.5,-265 277.5,-265 271.5,-265 265.5,-259 265.5,-253 265.5,-253 265.5,-241 265.5,-241 265.5,-235 271.5,-229 277.5,-229 277.5,-229 338.5,-229 338.5,-229 344.5,-229 350.5,-235 350.5,-241 350.5,-241 350.5,-253 350.5,-253 350.5,-259 344.5,-265 338.5,-265"/>
<text text-anchor="middle" x="308" y="-243.3" font-family="Helvetica,sans-Serif" font-size="14.00">err_error2</text>
</g>
<!-- vibration&#45;&gt;err_error2 -->
<g id="edge10" class="edge">
<title>vibration&#45;&gt;err_error2</title>
<path fill="none" stroke="black" stroke-width="1.2" d="M219.15,-247C230.58,-247 243.31,-247 255.45,-247"/>
<polygon fill="black" stroke="black" stroke-width="1.2" points="255.47,-250.5 265.47,-247 255.47,-243.5 255.47,-250.5"/>
</g>
<!-- vibration&#45;&gt;fail_comp1 -->
<g id="edge14" class="edge">
<title>vibration&#45;&gt;fail_comp1</title>
<path fill="none" stroke="black" stroke-width="1.2" d="M215.1,-228.87C230.08,-220.9 247.86,-211.45 263.76,-202.99"/>
<polygon fill="black" stroke="black" stroke-width="1.2" points="265.69,-205.93 272.88,-198.15 262.4,-199.75 265.69,-205.93"/>
</g>
<!-- err_error4 -->
<g id="node8" class="node">
<title>err_error4</title>
<path fill="white" stroke="black" d="M79.5,-380C79.5,-380 18.5,-380 18.5,-380 12.5,-380 6.5,-374 6.5,-368 6.5,-368 6.5,-356 6.5,-356 6.5,-350 12.5,-344 18.5,-344 18.5,-344 79.5,-344 79.5,-344 85.5,-344 91.5,-350 91.5,-356 91.5,-356 91.5,-368 91.5,-368 91.5,-374 85.5,-380 79.5,-380"/>
<text text-anchor="middle" x="49" y="-358.3" font-family="Helvetica,sans-Serif" font-size="14.00">err_error4</text>
</g>
<!-- err_error5 -->
<g id="node9" class="node">
<title>err_error5</title>
<path fill="white" stroke="black" d="M79.5,-218C79.5,-218 18.5,-218 18.5,-218 12.5,-218 6.5,-212 6.5,-206 6.5,-206 6.5,-194 6.5,-194 6.5,-188 12.5,-182 18.5,-182 18.5,-182 79.5,-182 79.5,-182 85.5,-182 91.5,-188 91.5,-194 91.5,-194 91.5,-206 91.5,-206 91.5,-212 85.5,-218 79.5,-218"/>
<text text-anchor="middle" x="49" y="-196.3" font-family="Helvetica,sans-Serif" font-size="14.00">err_error5</text>
</g>
<!-- err_error5&#45;&gt;vibration -->
<g id="edge11" class="edge">
<title>err_error5&#45;&gt;vibration</title>
<path fill="none" stroke="black" stroke-width="1.2" d="M91.53,-215.13C104.09,-219.71 117.98,-224.77 130.93,-229.49"/>
<polygon fill="black" stroke="black" stroke-width="1.2" points="130.02,-232.88 140.62,-233.01 132.42,-226.3 130.02,-232.88"/>
</g>
<!-- mnt_comp1 -->
<g id="node10" class="node">
<title>mnt_comp1</title>
<path fill="white" stroke="black" d="M86,-434C86,-434 12,-434 12,-434 6,-434 0,-428 0,-422 0,-422 0,-410 0,-410 0,-404 6,-398 12,-398 12,-398 86,-398 86,-398 92,-398 98,-404 98,-410 98,-410 98,-422 98,-422 98,-428 92,-434 86,-434"/>
<text text-anchor="middle" x="49" y="-412.3" font-family="Helvetica,sans-Serif" font-size="14.00">mnt_comp1</text>
</g>
<!-- mnt_comp2 -->
<g id="node11" class="node">
<title>mnt_comp2</title>
<path fill="white" stroke="black" d="M86,-326C86,-326 12,-326 12,-326 6,-326 0,-320 0,-314 0,-314 0,-302 0,-302 0,-296 6,-290 12,-290 12,-290 86,-290 86,-290 92,-290 98,-296 98,-302 98,-302 98,-314 98,-314 98,-320 92,-326 86,-326"/>
<text text-anchor="middle" x="49" y="-304.3" font-family="Helvetica,sans-Serif" font-size="14.00">mnt_comp2</text>
</g>
<!-- mnt_comp2&#45;&gt;vibration -->
<g id="edge12" class="edge">
<title>mnt_comp2&#45;&gt;vibration</title>
<path fill="none" stroke="black" stroke-width="1.2" d="M88.35,-289.86C101.88,-283.47 117.25,-276.2 131.44,-269.49"/>
<polygon fill="black" stroke="black" stroke-width="1.2" points="133.03,-272.61 140.57,-265.17 130.03,-266.28 133.03,-272.61"/>
</g>
<!-- mnt_comp3 -->
<g id="node12" class="node">
<title>mnt_comp3</title>
<path fill="white" stroke="black" d="M86,-272C86,-272 12,-272 12,-272 6,-272 0,-266 0,-260 0,-260 0,-248 0,-248 0,-242 6,-236 12,-236 12,-236 86,-236 86,-236 92,-236 98,-242 98,-248 98,-248 98,-260 98,-260 98,-266 92,-272 86,-272"/>
<text text-anchor="middle" x="49" y="-250.3" font-family="Helvetica,sans-Serif" font-size="14.00">mnt_comp3</text>
</g>
<!-- mnt_comp3&#45;&gt;vibration -->
<g id="edge13" class="edge">
<title>mnt_comp3&#45;&gt;vibration</title>
<path fill="none" stroke="black" stroke-width="1.2" d="M98.03,-251.39C108.78,-250.81 120.19,-250.19 130.94,-249.61"/>
<polygon fill="black" stroke="black" stroke-width="1.2" points="131.2,-253.1 141,-249.06 130.82,-246.11 131.2,-253.1"/>
</g>
<!-- mnt_comp4 -->
<g id="node13" class="node">
<title>mnt_comp4</title>
<path fill="white" stroke="black" d="M86,-488C86,-488 12,-488 12,-488 6,-488 0,-482 0,-476 0,-476 0,-464 0,-464 0,-458 6,-452 12,-452 12,-452 86,-452 86,-452 92,-452 98,-458 98,-464 98,-464 98,-476 98,-476 98,-482 92,-488 86,-488"/>
<text text-anchor="middle" x="49" y="-466.3" font-family="Helvetica,sans-Serif" font-size="14.00">mnt_comp4</text>
</g>
<!-- fail_comp2 -->
<g id="node15" class="node">
<title>fail_comp2</title>
<path fill="white" stroke="black" d="M214,-117C214,-117 146,-117 146,-117 140,-117 134,-111 134,-105 134,-105 134,-93 134,-93 134,-87 140,-81 146,-81 146,-81 214,-81 214,-81 220,-81 226,-87 226,-93 226,-93 226,-105 226,-105 226,-111 220,-117 214,-117"/>
<text text-anchor="middle" x="180" y="-95.3" font-family="Helvetica,sans-Serif" font-size="14.00">fail_comp2</text>
</g>
<!-- fail_comp2&#45;&gt;rotate -->
<g id="edge7" class="edge">
<title>fail_comp2&#45;&gt;rotate</title>
<path fill="none" stroke="black" stroke-width="1.2" d="M223.31,-80.87C238.44,-74.38 255.36,-67.13 270.01,-60.85"/>
<polygon fill="black" stroke="black" stroke-width="1.2" points="271.45,-64.04 279.26,-56.89 268.69,-57.61 271.45,-64.04"/>
</g>
<!-- fail_comp3&#45;&gt;rotate -->
<g id="edge8" class="edge">
<title>fail_comp3&#45;&gt;rotate</title>
<path fill="none" stroke="black" stroke-width="1.2" d="M226.13,-45C240.17,-45 255.51,-45 269.01,-45"/>
<polygon fill="black" stroke="black" stroke-width="1.2" points="269.39,-48.5 279.39,-45 269.39,-41.5 269.39,-48.5"/>
</g>
<!-- fail_comp4 -->
<g id="node17" class="node">
<title>fail_comp4</title>
<path fill="white" stroke="black" d="M83,-164C83,-164 15,-164 15,-164 9,-164 3,-158 3,-152 3,-152 3,-140 3,-140 3,-134 9,-128 15,-128 15,-128 83,-128 83,-128 89,-128 95,-134 95,-140 95,-140 95,-152 95,-152 95,-158 89,-164 83,-164"/>
<text text-anchor="middle" x="49" y="-142.3" font-family="Helvetica,sans-Serif" font-size="14.00">fail_comp4</text>
</g>
<!-- fail_comp4&#45;&gt;volt -->
<g id="edge3" class="edge">
<title>fail_comp4&#45;&gt;volt</title>
<path fill="none" stroke="black" stroke-width="1.2" d="M95.12,-148.45C110.67,-149.29 127.88,-150.23 142.64,-151.03"/>
<polygon fill="black" stroke="black" stroke-width="1.2" points="142.72,-154.54 152.9,-151.58 143.1,-147.55 142.72,-154.54"/>
</g>
</g>
</svg>
