<?xml version="1.0" encoding="UTF-8" standalone="no"?>
<!DOCTYPE svg PUBLIC "-//W3C//DTD SVG 1.1//EN"
 "http://www.w3.org/Graphics/SVG/1.1/DTD/svg11.dtd">
<!-- Generated by graphviz version 2.50.0 (0)
 -->
<!-- Title: G Pages: 1 -->
<svg width="601pt" height="493pt"
 viewBox="0.00 0.00 601.00 493.00" xmlns="http://www.w3.org/2000/svg" xmlns:xlink="http://www.w3.org/1999/xlink">
<g id="graph0" class="graph" transform="scale(1 1) rotate(0) translate(4 489)">
<title>G</title>
<polygon fill="white" stroke="transparent" points="-4,4 -4,-489 597,-489 597,4 -4,4"/>
<text text-anchor="middle" x="296.5" y="-468.2" font-family="Times,serif" font-size="16.00">model=model2/pcmci_mixed.json [machine 21]</text>
<!-- volt -->
<g id="node1" class="node">
<title>volt</title>
<path fill="white" stroke="black" d="M312,-58C312,-58 282,-58 282,-58 276,-58 270,-52 270,-46 270,-46 270,-34 270,-34 270,-28 276,-22 282,-22 282,-22 312,-22 312,-22 318,-22 324,-28 324,-34 324,-34 324,-46 324,-46 324,-52 318,-58 312,-58"/>
<text text-anchor="middle" x="297" y="-36.3" font-family="Helvetica,sans-Serif" font-size="14.00">volt</text>
</g>
<!-- rotate -->
<g id="node2" class="node">
<title>rotate</title>
<path fill="white" stroke="black" d="M437,-166C437,-166 404,-166 404,-166 398,-166 392,-160 392,-154 392,-154 392,-142 392,-142 392,-136 398,-130 404,-130 404,-130 437,-130 437,-130 443,-130 449,-136 449,-142 449,-142 449,-154 449,-154 449,-160 443,-166 437,-166"/>
<text text-anchor="middle" x="420.5" y="-144.3" font-family="Helvetica,sans-Serif" font-size="14.00">rotate</text>
</g>
<!-- volt&#45;&gt;rotate -->
<g id="edge1" class="edge">
<title>volt&#45;&gt;rotate</title>
<path fill="none" stroke="black" stroke-width="1.2" d="M324.41,-51.96C331.88,-56.08 339.69,-61.15 346,-67 367.15,-86.61 361.97,-100.24 382,-121 382.75,-121.78 383.53,-122.55 384.33,-123.32"/>
<polygon fill="black" stroke="black" stroke-width="1.2" points="382.08,-126 391.92,-129.92 386.67,-120.72 382.08,-126"/>
</g>
<!-- pressure -->
<g id="node3" class="node">
<title>pressure</title>
<path fill="white" stroke="black" d="M447,-112C447,-112 394,-112 394,-112 388,-112 382,-106 382,-100 382,-100 382,-88 382,-88 382,-82 388,-76 394,-76 394,-76 447,-76 447,-76 453,-76 459,-82 459,-88 459,-88 459,-100 459,-100 459,-106 453,-112 447,-112"/>
<text text-anchor="middle" x="420.5" y="-90.3" font-family="Helvetica,sans-Serif" font-size="14.00">pressure</text>
</g>
<!-- volt&#45;&gt;pressure -->
<g id="edge2" class="edge">
<title>volt&#45;&gt;pressure</title>
<path fill="none" stroke="black" stroke-width="1.2" d="M324.06,-51.58C338.17,-57.85 356.03,-65.79 372.47,-73.1"/>
<polygon fill="black" stroke="black" stroke-width="1.2" points="371.39,-76.45 381.95,-77.31 374.23,-70.05 371.39,-76.45"/>
</g>
<!-- fail_comp1 -->
<g id="node14" class="node">
<title>fail_comp1</title>
<path fill="white" stroke="black" d="M578,-36C578,-36 510,-36 510,-36 504,-36 498,-30 498,-24 498,-24 498,-12 498,-12 498,-6 504,0 510,0 510,0 578,0 578,0 584,0 590,-6 590,-12 590,-12 590,-24 590,-24 590,-30 584,-36 578,-36"/>
<text text-anchor="middle" x="544" y="-14.3" font-family="Helvetica,sans-Serif" font-size="14.00">fail_comp1</text>
</g>
<!-- volt&#45;&gt;fail_comp1 -->
<g id="edge4" class="edge">
<title>volt&#45;&gt;fail_comp1</title>
<path fill="none" stroke="black" stroke-width="1.2" d="M324.22,-37.65C363.02,-34.16 436.65,-27.55 487.71,-22.97"/>
<polygon fill="black" stroke="black" stroke-width="1.2" points="488.27,-26.43 497.92,-22.05 487.65,-19.46 488.27,-26.43"/>
</g>
<!-- err_error4 -->
<g id="node8" class="node">
<title>err_error4</title>
<path fill="white" stroke="black" d="M574.5,-166C574.5,-166 513.5,-166 513.5,-166 507.5,-166 501.5,-160 501.5,-154 501.5,-154 501.5,-142 501.5,-142 501.5,-136 507.5,-130 513.5,-130 513.5,-130 574.5,-130 574.5,-130 580.5,-130 586.5,-136 586.5,-142 586.5,-142 586.5,-154 586.5,-154 586.5,-160 580.5,-166 574.5,-166"/>
<text text-anchor="middle" x="544" y="-144.3" font-family="Helvetica,sans-Serif" font-size="14.00">err_error4</text>
</g>
<!-- rotate&#45;&gt;err_error4 -->
<g id="edge7" class="edge">
<title>rotate&#45;&gt;err_error4</title>
<path fill="none" stroke="black" stroke-width="1.2" d="M449.07,-148C461.47,-148 476.52,-148 490.91,-148"/>
<polygon fill="black" stroke="black" stroke-width="1.2" points="491.22,-151.5 501.22,-148 491.22,-144.5 491.22,-151.5"/>
</g>
<!-- err_error5 -->
<g id="node9" class="node">
<title>err_error5</title>
<path fill="white" stroke="black" d="M574.5,-105C574.5,-105 513.5,-105 513.5,-105 507.5,-105 501.5,-99 501.5,-93 501.5,-93 501.5,-81 501.5,-81 501.5,-75 507.5,-69 513.5,-69 513.5,-69 574.5,-69 574.5,-69 580.5,-69 586.5,-75 586.5,-81 586.5,-81 586.5,-93 586.5,-93 586.5,-99 580.5,-105 574.5,-105"/>
<text text-anchor="middle" x="544" y="-83.3" font-family="Helvetica,sans-Serif" font-size="14.00">err_error5</text>
</g>
<!-- rotate&#45;&gt;err_error5 -->
<g id="edge8" class="edge">
<title>rotate&#45;&gt;err_error5</title>
<path fill="none" stroke="black" stroke-width="1.2" d="M449.07,-134.16C463.35,-126.99 481.16,-118.05 497.42,-109.88"/>
<polygon fill="black" stroke="black" stroke-width="1.2" points="499.41,-112.8 506.78,-105.19 496.27,-106.54 499.41,-112.8"/>
</g>
<!-- mnt_comp3 -->
<g id="node12" class="node">
<title>mnt_comp3</title>
<path fill="white" stroke="black" d="M581,-229C581,-229 507,-229 507,-229 501,-229 495,-223 495,-217 495,-217 495,-205 495,-205 495,-199 501,-193 507,-193 507,-193 581,-193 581,-193 587,-193 593,-199 593,-205 593,-205 593,-217 593,-217 593,-223 587,-229 581,-229"/>
<text text-anchor="middle" x="544" y="-207.3" font-family="Helvetica,sans-Serif" font-size="14.00">mnt_comp3</text>
</g>
<!-- rotate&#45;&gt;mnt_comp3 -->
<g id="edge11" class="edge">
<title>rotate&#45;&gt;mnt_comp3</title>
<path fill="none" stroke="black" stroke-width="1.2" d="M449.07,-162.3C463.84,-169.95 482.38,-179.57 499.08,-188.23"/>
<polygon fill="black" stroke="black" stroke-width="1.2" points="497.65,-191.43 508.13,-192.92 500.87,-185.21 497.65,-191.43"/>
</g>
<!-- pressure&#45;&gt;fail_comp1 -->
<g id="edge13" class="edge">
<title>pressure&#45;&gt;fail_comp1</title>
<path fill="none" stroke="black" stroke-width="1.2" d="M450.29,-75.99C466.67,-65.75 487.37,-52.8 505.06,-41.73"/>
<polygon fill="black" stroke="black" stroke-width="1.2" points="507.37,-44.42 513.99,-36.15 503.66,-38.48 507.37,-44.42"/>
</g>
<!-- vibration -->
<g id="node4" class="node">
<title>vibration</title>
<path fill="white" stroke="black" d="M200,-166C200,-166 146,-166 146,-166 140,-166 134,-160 134,-154 134,-154 134,-142 134,-142 134,-136 140,-130 146,-130 146,-130 200,-130 200,-130 206,-130 212,-136 212,-142 212,-142 212,-154 212,-154 212,-160 206,-166 200,-166"/>
<text text-anchor="middle" x="173" y="-144.3" font-family="Helvetica,sans-Serif" font-size="14.00">vibration</text>
</g>
<!-- err_error2 -->
<g id="node6" class="node">
<title>err_error2</title>
<path fill="white" stroke="black" d="M327.5,-166C327.5,-166 266.5,-166 266.5,-166 260.5,-166 254.5,-160 254.5,-154 254.5,-154 254.5,-142 254.5,-142 254.5,-136 260.5,-130 266.5,-130 266.5,-130 327.5,-130 327.5,-130 333.5,-130 339.5,-136 339.5,-142 339.5,-142 339.5,-154 339.5,-154 339.5,-160 333.5,-166 327.5,-166"/>
<text text-anchor="middle" x="297" y="-144.3" font-family="Helvetica,sans-Serif" font-size="14.00">err_error2</text>
</g>
<!-- vibration&#45;&gt;err_error2 -->
<g id="edge14" class="edge">
<title>vibration&#45;&gt;err_error2</title>
<path fill="none" stroke="black" stroke-width="1.2" d="M212.27,-148C222.43,-148 233.59,-148 244.34,-148"/>
<polygon fill="black" stroke="black" stroke-width="1.2" points="244.48,-151.5 254.48,-148 244.48,-144.5 244.48,-151.5"/>
</g>
<!-- err_error1 -->
<g id="node5" class="node">
<title>err_error1</title>
<path fill="white" stroke="black" d="M79.5,-243C79.5,-243 18.5,-243 18.5,-243 12.5,-243 6.5,-237 6.5,-231 6.5,-231 6.5,-219 6.5,-219 6.5,-213 12.5,-207 18.5,-207 18.5,-207 79.5,-207 79.5,-207 85.5,-207 91.5,-213 91.5,-219 91.5,-219 91.5,-231 91.5,-231 91.5,-237 85.5,-243 79.5,-243"/>
<text text-anchor="middle" x="49" y="-221.3" font-family="Helvetica,sans-Serif" font-size="14.00">err_error1</text>
</g>
<!-- err_error2&#45;&gt;rotate -->
<g id="edge5" class="edge">
<title>err_error2&#45;&gt;rotate</title>
<path fill="none" stroke="black" stroke-width="1.2" d="M339.81,-148C353.35,-148 368.29,-148 381.54,-148"/>
<polygon fill="black" stroke="black" stroke-width="1.2" points="381.74,-151.5 391.74,-148 381.74,-144.5 381.74,-151.5"/>
</g>
<!-- err_error3 -->
<g id="node7" class="node">
<title>err_error3</title>
<path fill="white" stroke="black" d="M327.5,-112C327.5,-112 266.5,-112 266.5,-112 260.5,-112 254.5,-106 254.5,-100 254.5,-100 254.5,-88 254.5,-88 254.5,-82 260.5,-76 266.5,-76 266.5,-76 327.5,-76 327.5,-76 333.5,-76 339.5,-82 339.5,-88 339.5,-88 339.5,-100 339.5,-100 339.5,-106 333.5,-112 327.5,-112"/>
<text text-anchor="middle" x="297" y="-90.3" font-family="Helvetica,sans-Serif" font-size="14.00">err_error3</text>
</g>
<!-- err_error3&#45;&gt;rotate -->
<g id="edge6" class="edge">
<title>err_error3&#45;&gt;rotate</title>
<path fill="none" stroke="black" stroke-width="1.2" d="M338.8,-112.13C352.91,-118.4 368.64,-125.4 382.44,-131.53"/>
<polygon fill="black" stroke="black" stroke-width="1.2" points="381.08,-134.76 391.64,-135.62 383.93,-128.36 381.08,-134.76"/>
</g>
<!-- err_error3&#45;&gt;pressure -->
<g id="edge12" class="edge">
<title>err_error3&#45;&gt;pressure</title>
<path fill="none" stroke="black" stroke-width="1.2" d="M339.81,-94C350.01,-94 360.99,-94 371.45,-94"/>
<polygon fill="black" stroke="black" stroke-width="1.2" points="371.68,-97.5 381.68,-94 371.68,-90.5 371.68,-97.5"/>
</g>
<!-- err_error5&#45;&gt;volt -->
<g id="edge3" class="edge">
<title>err_error5&#45;&gt;volt</title>
<path fill="none" stroke="black" stroke-width="1.2" d="M501.25,-76.47C487.8,-73.24 472.81,-69.8 459,-67 416.27,-58.34 366.75,-50.34 334.03,-45.33"/>
<polygon fill="black" stroke="black" stroke-width="1.2" points="334.44,-41.85 324.03,-43.81 333.39,-48.77 334.44,-41.85"/>
</g>
<!-- mnt_comp1 -->
<g id="node10" class="node">
<title>mnt_comp1</title>
<path fill="white" stroke="black" d="M86,-189C86,-189 12,-189 12,-189 6,-189 0,-183 0,-177 0,-177 0,-165 0,-165 0,-159 6,-153 12,-153 12,-153 86,-153 86,-153 92,-153 98,-159 98,-165 98,-165 98,-177 98,-177 98,-183 92,-189 86,-189"/>
<text text-anchor="middle" x="49" y="-167.3" font-family="Helvetica,sans-Serif" font-size="14.00">mnt_comp1</text>
</g>
<!-- mnt_comp1&#45;&gt;rotate -->
<g id="edge9" class="edge">
<title>mnt_comp1&#45;&gt;rotate</title>
<path fill="none" stroke="black" stroke-width="1.2" d="M98.13,-177.18C157.07,-183.48 259.73,-190.34 346,-175 358.11,-172.85 370.84,-168.84 382.25,-164.56"/>
<polygon fill="black" stroke="black" stroke-width="1.2" points="383.85,-167.69 391.87,-160.77 381.29,-161.18 383.85,-167.69"/>
</g>
<!-- mnt_comp1&#45;&gt;vibration -->
<g id="edge15" class="edge">
<title>mnt_comp1&#45;&gt;vibration</title>
<path fill="none" stroke="black" stroke-width="1.2" d="M98.22,-161.91C106.65,-160.32 115.42,-158.67 123.84,-157.08"/>
<polygon fill="black" stroke="black" stroke-width="1.2" points="124.73,-160.47 133.91,-155.18 123.43,-153.6 124.73,-160.47"/>
</g>
<!-- mnt_comp2 -->
<g id="node11" class="node">
<title>mnt_comp2</title>
<path fill="white" stroke="black" d="M334,-258C334,-258 260,-258 260,-258 254,-258 248,-252 248,-246 248,-246 248,-234 248,-234 248,-228 254,-222 260,-222 260,-222 334,-222 334,-222 340,-222 346,-228 346,-234 346,-234 346,-246 346,-246 346,-252 340,-258 334,-258"/>
<text text-anchor="middle" x="297" y="-236.3" font-family="Helvetica,sans-Serif" font-size="14.00">mnt_comp2</text>
</g>
<!-- mnt_comp2&#45;&gt;rotate -->
<g id="edge10" class="edge">
<title>mnt_comp2&#45;&gt;rotate</title>
<path fill="none" stroke="black" stroke-width="1.2" d="M326.23,-221.83C332.81,-217.43 339.72,-212.64 346,-208 361.03,-196.89 377.17,-183.85 390.49,-172.76"/>
<polygon fill="black" stroke="black" stroke-width="1.2" points="392.97,-175.25 398.39,-166.15 388.47,-169.89 392.97,-175.25"/>
</g>
<!-- mnt_comp2&#45;&gt;mnt_comp3 -->
<g id="edge16" class="edge">
<title>mnt_comp2&#45;&gt;mnt_comp3</title>
<path fill="none" stroke="black" stroke-width="1.2" d="M346.11,-234.31C385.89,-229.6 442.52,-222.89 484.84,-217.88"/>
<polygon fill="black" stroke="black" stroke-width="1.2" points="485.48,-221.33 495,-216.68 484.66,-214.38 485.48,-221.33"/>
</g>
<!-- mnt_comp4 -->
<g id="node13" class="node">
<title>mnt_comp4</title>
<path fill="white" stroke="black" d="M86,-297C86,-297 12,-297 12,-297 6,-297 0,-291 0,-285 0,-285 0,-273 0,-273 0,-267 6,-261 12,-261 12,-261 86,-261 86,-261 92,-261 98,-267 98,-273 98,-273 98,-285 98,-285 98,-291 92,-297 86,-297"/>
<text text-anchor="middle" x="49" y="-275.3" font-family="Helvetica,sans-Serif" font-size="14.00">mnt_comp4</text>
</g>
<!-- fail_comp2 -->
<g id="node15" class="node">
<title>fail_comp2</title>
<path fill="white" stroke="black" d="M83,-351C83,-351 15,-351 15,-351 9,-351 3,-345 3,-339 3,-339 3,-327 3,-327 3,-321 9,-315 15,-315 15,-315 83,-315 83,-315 89,-315 95,-321 95,-327 95,-327 95,-339 95,-339 95,-345 89,-351 83,-351"/>
<text text-anchor="middle" x="49" y="-329.3" font-family="Helvetica,sans-Serif" font-size="14.00">fail_comp2</text>
</g>
<!-- fail_comp3 -->
<g id="node16" class="node">
<title>fail_comp3</title>
<path fill="white" stroke="black" d="M83,-405C83,-405 15,-405 15,-405 9,-405 3,-399 3,-393 3,-393 3,-381 3,-381 3,-375 9,-369 15,-369 15,-369 83,-369 83,-369 89,-369 95,-375 95,-381 95,-381 95,-393 95,-393 95,-399 89,-405 83,-405"/>
<text text-anchor="middle" x="49" y="-383.3" font-family="Helvetica,sans-Serif" font-size="14.00">fail_comp3</text>
</g>
<!-- fail_comp4 -->
<g id="node17" class="node">
<title>fail_comp4</title>
<path fill="white" stroke="black" d="M83,-459C83,-459 15,-459 15,-459 9,-459 3,-453 3,-447 3,-447 3,-435 3,-435 3,-429 9,-423 15,-423 15,-423 83,-423 83,-423 89,-423 95,-429 95,-435 95,-435 95,-447 95,-447 95,-453 89,-459 83,-459"/>
<text text-anchor="middle" x="49" y="-437.3" font-family="Helvetica,sans-Serif" font-size="14.00">fail_comp4</text>
</g>
</g>
</svg>
