<?xml version="1.0" encoding="UTF-8" standalone="no"?>
<!DOCTYPE svg PUBLIC "-//W3C//DTD SVG 1.1//EN"
 "http://www.w3.org/Graphics/SVG/1.1/DTD/svg11.dtd">
<!-- Generated by graphviz version 2.50.0 (0)
 -->
<!-- Title: G Pages: 1 -->
<svg width="447pt" height="529pt"
 viewBox="0.00 0.00 447.00 529.00" xmlns="http://www.w3.org/2000/svg" xmlns:xlink="http://www.w3.org/1999/xlink">
<g id="graph0" class="graph" transform="scale(1 1) rotate(0) translate(4 525)">
<title>G</title>
<polygon fill="white" stroke="transparent" points="-4,4 -4,-525 443,-525 443,4 -4,4"/>
<text text-anchor="middle" x="219.5" y="-504.2" font-family="Times,serif" font-size="16.00">model=model4/pcmci_mixed.json [machine 74]</text>
<!-- volt -->
<g id="node1" class="node">
<title>volt</title>
<path fill="white" stroke="black" d="M177.5,-63C177.5,-63 147.5,-63 147.5,-63 141.5,-63 135.5,-57 135.5,-51 135.5,-51 135.5,-39 135.5,-39 135.5,-33 141.5,-27 147.5,-27 147.5,-27 177.5,-27 177.5,-27 183.5,-27 189.5,-33 189.5,-39 189.5,-39 189.5,-51 189.5,-51 189.5,-57 183.5,-63 177.5,-63"/>
<text text-anchor="middle" x="162.5" y="-41.3" font-family="Helvetica,sans-Serif" font-size="14.00">volt</text>
</g>
<!-- err_error1 -->
<g id="node5" class="node">
<title>err_error1</title>
<path fill="white" stroke="black" d="M306.5,-90C306.5,-90 245.5,-90 245.5,-90 239.5,-90 233.5,-84 233.5,-78 233.5,-78 233.5,-66 233.5,-66 233.5,-60 239.5,-54 245.5,-54 245.5,-54 306.5,-54 306.5,-54 312.5,-54 318.5,-60 318.5,-66 318.5,-66 318.5,-78 318.5,-78 318.5,-84 312.5,-90 306.5,-90"/>
<text text-anchor="middle" x="276" y="-68.3" font-family="Helvetica,sans-Serif" font-size="14.00">err_error1</text>
</g>
<!-- volt&#45;&gt;err_error1 -->
<g id="edge1" class="edge">
<title>volt&#45;&gt;err_error1</title>
<path fill="none" stroke="black" stroke-width="1.2" d="M189.64,-51.33C199.8,-53.79 211.81,-56.7 223.55,-59.54"/>
<polygon fill="black" stroke="black" stroke-width="1.2" points="222.77,-62.95 233.32,-61.91 224.42,-56.15 222.77,-62.95"/>
</g>
<!-- err_error4 -->
<g id="node8" class="node">
<title>err_error4</title>
<path fill="white" stroke="black" d="M306.5,-36C306.5,-36 245.5,-36 245.5,-36 239.5,-36 233.5,-30 233.5,-24 233.5,-24 233.5,-12 233.5,-12 233.5,-6 239.5,0 245.5,0 245.5,0 306.5,0 306.5,0 312.5,0 318.5,-6 318.5,-12 318.5,-12 318.5,-24 318.5,-24 318.5,-30 312.5,-36 306.5,-36"/>
<text text-anchor="middle" x="276" y="-14.3" font-family="Helvetica,sans-Serif" font-size="14.00">err_error4</text>
</g>
<!-- volt&#45;&gt;err_error4 -->
<g id="edge2" class="edge">
<title>volt&#45;&gt;err_error4</title>
<path fill="none" stroke="black" stroke-width="1.2" d="M189.64,-38.67C199.8,-36.21 211.81,-33.3 223.55,-30.46"/>
<polygon fill="black" stroke="black" stroke-width="1.2" points="224.42,-33.85 233.32,-28.09 222.77,-27.05 224.42,-33.85"/>
</g>
<!-- rotate -->
<g id="node2" class="node">
<title>rotate</title>
<path fill="white" stroke="black" d="M179,-171C179,-171 146,-171 146,-171 140,-171 134,-165 134,-159 134,-159 134,-147 134,-147 134,-141 140,-135 146,-135 146,-135 179,-135 179,-135 185,-135 191,-141 191,-147 191,-147 191,-159 191,-159 191,-165 185,-171 179,-171"/>
<text text-anchor="middle" x="162.5" y="-149.3" font-family="Helvetica,sans-Serif" font-size="14.00">rotate</text>
</g>
<!-- mnt_comp2 -->
<g id="node11" class="node">
<title>mnt_comp2</title>
<path fill="white" stroke="black" d="M313,-171C313,-171 239,-171 239,-171 233,-171 227,-165 227,-159 227,-159 227,-147 227,-147 227,-141 233,-135 239,-135 239,-135 313,-135 313,-135 319,-135 325,-141 325,-147 325,-147 325,-159 325,-159 325,-165 319,-171 313,-171"/>
<text text-anchor="middle" x="276" y="-149.3" font-family="Helvetica,sans-Serif" font-size="14.00">mnt_comp2</text>
</g>
<!-- rotate&#45;&gt;mnt_comp2 -->
<g id="edge6" class="edge">
<title>rotate&#45;&gt;mnt_comp2</title>
<path fill="none" stroke="black" stroke-width="1.2" d="M191.06,-153C198.93,-153 207.82,-153 216.8,-153"/>
<polygon fill="black" stroke="black" stroke-width="1.2" points="216.92,-156.5 226.92,-153 216.92,-149.5 216.92,-156.5"/>
</g>
<!-- pressure -->
<g id="node3" class="node">
<title>pressure</title>
<path fill="white" stroke="black" d="M75.5,-279C75.5,-279 22.5,-279 22.5,-279 16.5,-279 10.5,-273 10.5,-267 10.5,-267 10.5,-255 10.5,-255 10.5,-249 16.5,-243 22.5,-243 22.5,-243 75.5,-243 75.5,-243 81.5,-243 87.5,-249 87.5,-255 87.5,-255 87.5,-267 87.5,-267 87.5,-273 81.5,-279 75.5,-279"/>
<text text-anchor="middle" x="49" y="-257.3" font-family="Helvetica,sans-Serif" font-size="14.00">pressure</text>
</g>
<!-- vibration -->
<g id="node4" class="node">
<title>vibration</title>
<path fill="white" stroke="black" d="M427,-171C427,-171 373,-171 373,-171 367,-171 361,-165 361,-159 361,-159 361,-147 361,-147 361,-141 367,-135 373,-135 373,-135 427,-135 427,-135 433,-135 439,-141 439,-147 439,-147 439,-159 439,-159 439,-165 433,-171 427,-171"/>
<text text-anchor="middle" x="400" y="-149.3" font-family="Helvetica,sans-Serif" font-size="14.00">vibration</text>
</g>
<!-- err_error2 -->
<g id="node6" class="node">
<title>err_error2</title>
<path fill="white" stroke="black" d="M79.5,-333C79.5,-333 18.5,-333 18.5,-333 12.5,-333 6.5,-327 6.5,-321 6.5,-321 6.5,-309 6.5,-309 6.5,-303 12.5,-297 18.5,-297 18.5,-297 79.5,-297 79.5,-297 85.5,-297 91.5,-303 91.5,-309 91.5,-309 91.5,-321 91.5,-321 91.5,-327 85.5,-333 79.5,-333"/>
<text text-anchor="middle" x="49" y="-311.3" font-family="Helvetica,sans-Serif" font-size="14.00">err_error2</text>
</g>
<!-- err_error3 -->
<g id="node7" class="node">
<title>err_error3</title>
<path fill="white" stroke="black" d="M79.5,-225C79.5,-225 18.5,-225 18.5,-225 12.5,-225 6.5,-219 6.5,-213 6.5,-213 6.5,-201 6.5,-201 6.5,-195 12.5,-189 18.5,-189 18.5,-189 79.5,-189 79.5,-189 85.5,-189 91.5,-195 91.5,-201 91.5,-201 91.5,-213 91.5,-213 91.5,-219 85.5,-225 79.5,-225"/>
<text text-anchor="middle" x="49" y="-203.3" font-family="Helvetica,sans-Serif" font-size="14.00">err_error3</text>
</g>
<!-- err_error3&#45;&gt;rotate -->
<g id="edge4" class="edge">
<title>err_error3&#45;&gt;rotate</title>
<path fill="none" stroke="black" stroke-width="1.2" d="M87.44,-188.87C99.42,-183.07 112.67,-176.65 124.61,-170.87"/>
<polygon fill="black" stroke="black" stroke-width="1.2" points="126.38,-173.9 133.86,-166.39 123.33,-167.6 126.38,-173.9"/>
</g>
<!-- err_error5 -->
<g id="node9" class="node">
<title>err_error5</title>
<path fill="white" stroke="black" d="M79.5,-387C79.5,-387 18.5,-387 18.5,-387 12.5,-387 6.5,-381 6.5,-375 6.5,-375 6.5,-363 6.5,-363 6.5,-357 12.5,-351 18.5,-351 18.5,-351 79.5,-351 79.5,-351 85.5,-351 91.5,-357 91.5,-363 91.5,-363 91.5,-375 91.5,-375 91.5,-381 85.5,-387 79.5,-387"/>
<text text-anchor="middle" x="49" y="-365.3" font-family="Helvetica,sans-Serif" font-size="14.00">err_error5</text>
</g>
<!-- mnt_comp1 -->
<g id="node10" class="node">
<title>mnt_comp1</title>
<path fill="white" stroke="black" d="M86,-171C86,-171 12,-171 12,-171 6,-171 0,-165 0,-159 0,-159 0,-147 0,-147 0,-141 6,-135 12,-135 12,-135 86,-135 86,-135 92,-135 98,-141 98,-147 98,-147 98,-159 98,-159 98,-165 92,-171 86,-171"/>
<text text-anchor="middle" x="49" y="-149.3" font-family="Helvetica,sans-Serif" font-size="14.00">mnt_comp1</text>
</g>
<!-- mnt_comp1&#45;&gt;rotate -->
<g id="edge5" class="edge">
<title>mnt_comp1&#45;&gt;rotate</title>
<path fill="none" stroke="black" stroke-width="1.2" d="M98.26,-153C106.69,-153 115.35,-153 123.46,-153"/>
<polygon fill="black" stroke="black" stroke-width="1.2" points="123.72,-156.5 133.72,-153 123.72,-149.5 123.72,-156.5"/>
</g>
<!-- mnt_comp2&#45;&gt;vibration -->
<g id="edge8" class="edge">
<title>mnt_comp2&#45;&gt;vibration</title>
<path fill="none" stroke="black" stroke-width="1.2" d="M325.22,-153C333.65,-153 342.42,-153 350.84,-153"/>
<polygon fill="black" stroke="black" stroke-width="1.2" points="350.91,-156.5 360.91,-153 350.91,-149.5 350.91,-156.5"/>
</g>
<!-- mnt_comp3 -->
<g id="node12" class="node">
<title>mnt_comp3</title>
<path fill="white" stroke="black" d="M86,-441C86,-441 12,-441 12,-441 6,-441 0,-435 0,-429 0,-429 0,-417 0,-417 0,-411 6,-405 12,-405 12,-405 86,-405 86,-405 92,-405 98,-411 98,-417 98,-417 98,-429 98,-429 98,-435 92,-441 86,-441"/>
<text text-anchor="middle" x="49" y="-419.3" font-family="Helvetica,sans-Serif" font-size="14.00">mnt_comp3</text>
</g>
<!-- mnt_comp4 -->
<g id="node13" class="node">
<title>mnt_comp4</title>
<path fill="white" stroke="black" d="M86,-117C86,-117 12,-117 12,-117 6,-117 0,-111 0,-105 0,-105 0,-93 0,-93 0,-87 6,-81 12,-81 12,-81 86,-81 86,-81 92,-81 98,-87 98,-93 98,-93 98,-105 98,-105 98,-111 92,-117 86,-117"/>
<text text-anchor="middle" x="49" y="-95.3" font-family="Helvetica,sans-Serif" font-size="14.00">mnt_comp4</text>
</g>
<!-- mnt_comp4&#45;&gt;rotate -->
<g id="edge7" class="edge">
<title>mnt_comp4&#45;&gt;rotate</title>
<path fill="none" stroke="black" stroke-width="1.2" d="M87.44,-117.13C99.42,-122.93 112.67,-129.35 124.61,-135.13"/>
<polygon fill="black" stroke="black" stroke-width="1.2" points="123.33,-138.4 133.86,-139.61 126.38,-132.1 123.33,-138.4"/>
</g>
<!-- fail_comp1 -->
<g id="node14" class="node">
<title>fail_comp1</title>
<path fill="white" stroke="black" d="M83,-63C83,-63 15,-63 15,-63 9,-63 3,-57 3,-51 3,-51 3,-39 3,-39 3,-33 9,-27 15,-27 15,-27 83,-27 83,-27 89,-27 95,-33 95,-39 95,-39 95,-51 95,-51 95,-57 89,-63 83,-63"/>
<text text-anchor="middle" x="49" y="-41.3" font-family="Helvetica,sans-Serif" font-size="14.00">fail_comp1</text>
</g>
<!-- fail_comp1&#45;&gt;volt -->
<g id="edge3" class="edge">
<title>fail_comp1&#45;&gt;volt</title>
<path fill="none" stroke="black" stroke-width="1.2" d="M95.03,-45C105.06,-45 115.57,-45 125.2,-45"/>
<polygon fill="black" stroke="black" stroke-width="1.2" points="125.24,-48.5 135.24,-45 125.24,-41.5 125.24,-48.5"/>
</g>
<!-- fail_comp2 -->
<g id="node15" class="node">
<title>fail_comp2</title>
<path fill="white" stroke="black" d="M83,-495C83,-495 15,-495 15,-495 9,-495 3,-489 3,-483 3,-483 3,-471 3,-471 3,-465 9,-459 15,-459 15,-459 83,-459 83,-459 89,-459 95,-465 95,-471 95,-471 95,-483 95,-483 95,-489 89,-495 83,-495"/>
<text text-anchor="middle" x="49" y="-473.3" font-family="Helvetica,sans-Serif" font-size="14.00">fail_comp2</text>
</g>
</g>
</svg>
