<?xml version="1.0" encoding="UTF-8" standalone="no"?>
<!DOCTYPE svg PUBLIC "-//W3C//DTD SVG 1.1//EN"
 "http://www.w3.org/Graphics/SVG/1.1/DTD/svg11.dtd">
<!-- Generated by graphviz version 2.50.0 (0)
 -->
<!-- Title: G Pages: 1 -->
<svg width="508pt" height="488pt"
 viewBox="0.00 0.00 508.00 488.00" xmlns="http://www.w3.org/2000/svg" xmlns:xlink="http://www.w3.org/1999/xlink">
<g id="graph0" class="graph" transform="scale(1 1) rotate(0) translate(4 484)">
<title>G</title>
<polygon fill="white" stroke="transparent" points="-4,4 -4,-484 504,-484 504,4 -4,4"/>
<text text-anchor="middle" x="250" y="-463.2" font-family="Times,serif" font-size="16.00">model=model1/pcmci_mixed.json [machine 85]</text>
<!-- volt -->
<g id="node1" class="node">
<title>volt</title>
<path fill="white" stroke="black" d="M198,-184C198,-184 168,-184 168,-184 162,-184 156,-178 156,-172 156,-172 156,-160 156,-160 156,-154 162,-148 168,-148 168,-148 198,-148 198,-148 204,-148 210,-154 210,-160 210,-160 210,-172 210,-172 210,-178 204,-184 198,-184"/>
<text text-anchor="middle" x="183" y="-162.3" font-family="Helvetica,sans-Serif" font-size="14.00">volt</text>
</g>
<!-- pressure -->
<g id="node3" class="node">
<title>pressure</title>
<path fill="white" stroke="black" d="M343.5,-157C343.5,-157 290.5,-157 290.5,-157 284.5,-157 278.5,-151 278.5,-145 278.5,-145 278.5,-133 278.5,-133 278.5,-127 284.5,-121 290.5,-121 290.5,-121 343.5,-121 343.5,-121 349.5,-121 355.5,-127 355.5,-133 355.5,-133 355.5,-145 355.5,-145 355.5,-151 349.5,-157 343.5,-157"/>
<text text-anchor="middle" x="317" y="-135.3" font-family="Helvetica,sans-Serif" font-size="14.00">pressure</text>
</g>
<!-- volt&#45;&gt;pressure -->
<g id="edge1" class="edge">
<title>volt&#45;&gt;pressure</title>
<path fill="none" stroke="black" stroke-width="1.2" d="M210.08,-160.67C226.71,-157.26 248.77,-152.75 268.45,-148.73"/>
<polygon fill="black" stroke="black" stroke-width="1.2" points="269.38,-152.11 278.48,-146.68 267.98,-145.25 269.38,-152.11"/>
</g>
<!-- rotate -->
<g id="node2" class="node">
<title>rotate</title>
<path fill="white" stroke="black" d="M199.5,-76C199.5,-76 166.5,-76 166.5,-76 160.5,-76 154.5,-70 154.5,-64 154.5,-64 154.5,-52 154.5,-52 154.5,-46 160.5,-40 166.5,-40 166.5,-40 199.5,-40 199.5,-40 205.5,-40 211.5,-46 211.5,-52 211.5,-52 211.5,-64 211.5,-64 211.5,-70 205.5,-76 199.5,-76"/>
<text text-anchor="middle" x="183" y="-54.3" font-family="Helvetica,sans-Serif" font-size="14.00">rotate</text>
</g>
<!-- mnt_comp1 -->
<g id="node10" class="node">
<title>mnt_comp1</title>
<path fill="white" stroke="black" d="M354,-36C354,-36 280,-36 280,-36 274,-36 268,-30 268,-24 268,-24 268,-12 268,-12 268,-6 274,0 280,0 280,0 354,0 354,0 360,0 366,-6 366,-12 366,-12 366,-24 366,-24 366,-30 360,-36 354,-36"/>
<text text-anchor="middle" x="317" y="-14.3" font-family="Helvetica,sans-Serif" font-size="14.00">mnt_comp1</text>
</g>
<!-- rotate&#45;&gt;mnt_comp1 -->
<g id="edge4" class="edge">
<title>rotate&#45;&gt;mnt_comp1</title>
<path fill="none" stroke="black" stroke-width="1.2" d="M211.67,-49.61C225.13,-45.54 241.85,-40.47 257.92,-35.6"/>
<polygon fill="black" stroke="black" stroke-width="1.2" points="259.26,-38.85 267.82,-32.6 257.23,-32.15 259.26,-38.85"/>
</g>
<!-- fail_comp2 -->
<g id="node15" class="node">
<title>fail_comp2</title>
<path fill="white" stroke="black" d="M351,-90C351,-90 283,-90 283,-90 277,-90 271,-84 271,-78 271,-78 271,-66 271,-66 271,-60 277,-54 283,-54 283,-54 351,-54 351,-54 357,-54 363,-60 363,-66 363,-66 363,-78 363,-78 363,-84 357,-90 351,-90"/>
<text text-anchor="middle" x="317" y="-68.3" font-family="Helvetica,sans-Serif" font-size="14.00">fail_comp2</text>
</g>
<!-- rotate&#45;&gt;fail_comp2 -->
<g id="edge5" class="edge">
<title>rotate&#45;&gt;fail_comp2</title>
<path fill="none" stroke="black" stroke-width="1.2" d="M211.67,-60.93C225.88,-62.44 243.72,-64.33 260.61,-66.13"/>
<polygon fill="black" stroke="black" stroke-width="1.2" points="260.65,-69.65 270.96,-67.22 261.39,-62.69 260.65,-69.65"/>
</g>
<!-- err_error4 -->
<g id="node8" class="node">
<title>err_error4</title>
<path fill="white" stroke="black" d="M481.5,-157C481.5,-157 420.5,-157 420.5,-157 414.5,-157 408.5,-151 408.5,-145 408.5,-145 408.5,-133 408.5,-133 408.5,-127 414.5,-121 420.5,-121 420.5,-121 481.5,-121 481.5,-121 487.5,-121 493.5,-127 493.5,-133 493.5,-133 493.5,-145 493.5,-145 493.5,-151 487.5,-157 481.5,-157"/>
<text text-anchor="middle" x="451" y="-135.3" font-family="Helvetica,sans-Serif" font-size="14.00">err_error4</text>
</g>
<!-- pressure&#45;&gt;err_error4 -->
<g id="edge8" class="edge">
<title>pressure&#45;&gt;err_error4</title>
<path fill="none" stroke="black" stroke-width="1.2" d="M355.83,-139C369.07,-139 384.17,-139 398.35,-139"/>
<polygon fill="black" stroke="black" stroke-width="1.2" points="398.47,-142.5 408.47,-139 398.47,-135.5 398.47,-142.5"/>
</g>
<!-- vibration -->
<g id="node4" class="node">
<title>vibration</title>
<path fill="white" stroke="black" d="M210,-130C210,-130 156,-130 156,-130 150,-130 144,-124 144,-118 144,-118 144,-106 144,-106 144,-100 150,-94 156,-94 156,-94 210,-94 210,-94 216,-94 222,-100 222,-106 222,-106 222,-118 222,-118 222,-124 216,-130 210,-130"/>
<text text-anchor="middle" x="183" y="-108.3" font-family="Helvetica,sans-Serif" font-size="14.00">vibration</text>
</g>
<!-- vibration&#45;&gt;pressure -->
<g id="edge7" class="edge">
<title>vibration&#45;&gt;pressure</title>
<path fill="none" stroke="black" stroke-width="1.2" d="M222.18,-119.81C236.53,-122.75 253.03,-126.12 268.16,-129.21"/>
<polygon fill="black" stroke="black" stroke-width="1.2" points="267.86,-132.73 278.36,-131.3 269.27,-125.87 267.86,-132.73"/>
</g>
<!-- err_error1 -->
<g id="node5" class="node">
<title>err_error1</title>
<path fill="white" stroke="black" d="M79.5,-238C79.5,-238 18.5,-238 18.5,-238 12.5,-238 6.5,-232 6.5,-226 6.5,-226 6.5,-214 6.5,-214 6.5,-208 12.5,-202 18.5,-202 18.5,-202 79.5,-202 79.5,-202 85.5,-202 91.5,-208 91.5,-214 91.5,-214 91.5,-226 91.5,-226 91.5,-232 85.5,-238 79.5,-238"/>
<text text-anchor="middle" x="49" y="-216.3" font-family="Helvetica,sans-Serif" font-size="14.00">err_error1</text>
</g>
<!-- err_error2 -->
<g id="node6" class="node">
<title>err_error2</title>
<path fill="white" stroke="black" d="M79.5,-292C79.5,-292 18.5,-292 18.5,-292 12.5,-292 6.5,-286 6.5,-280 6.5,-280 6.5,-268 6.5,-268 6.5,-262 12.5,-256 18.5,-256 18.5,-256 79.5,-256 79.5,-256 85.5,-256 91.5,-262 91.5,-268 91.5,-268 91.5,-280 91.5,-280 91.5,-286 85.5,-292 79.5,-292"/>
<text text-anchor="middle" x="49" y="-270.3" font-family="Helvetica,sans-Serif" font-size="14.00">err_error2</text>
</g>
<!-- err_error3 -->
<g id="node7" class="node">
<title>err_error3</title>
<path fill="white" stroke="black" d="M79.5,-76C79.5,-76 18.5,-76 18.5,-76 12.5,-76 6.5,-70 6.5,-64 6.5,-64 6.5,-52 6.5,-52 6.5,-46 12.5,-40 18.5,-40 18.5,-40 79.5,-40 79.5,-40 85.5,-40 91.5,-46 91.5,-52 91.5,-52 91.5,-64 91.5,-64 91.5,-70 85.5,-76 79.5,-76"/>
<text text-anchor="middle" x="49" y="-54.3" font-family="Helvetica,sans-Serif" font-size="14.00">err_error3</text>
</g>
<!-- err_error3&#45;&gt;rotate -->
<g id="edge3" class="edge">
<title>err_error3&#45;&gt;rotate</title>
<path fill="none" stroke="black" stroke-width="1.2" d="M91.77,-58C108.49,-58 127.64,-58 143.97,-58"/>
<polygon fill="black" stroke="black" stroke-width="1.2" points="144.25,-61.5 154.25,-58 144.25,-54.5 144.25,-61.5"/>
</g>
<!-- err_error3&#45;&gt;vibration -->
<g id="edge9" class="edge">
<title>err_error3&#45;&gt;vibration</title>
<path fill="none" stroke="black" stroke-width="1.2" d="M91.77,-75.09C105.27,-80.61 120.34,-86.78 134.24,-92.46"/>
<polygon fill="black" stroke="black" stroke-width="1.2" points="133.06,-95.76 143.64,-96.31 135.71,-89.28 133.06,-95.76"/>
</g>
<!-- err_error5 -->
<g id="node9" class="node">
<title>err_error5</title>
<path fill="white" stroke="black" d="M79.5,-130C79.5,-130 18.5,-130 18.5,-130 12.5,-130 6.5,-124 6.5,-118 6.5,-118 6.5,-106 6.5,-106 6.5,-100 12.5,-94 18.5,-94 18.5,-94 79.5,-94 79.5,-94 85.5,-94 91.5,-100 91.5,-106 91.5,-106 91.5,-118 91.5,-118 91.5,-124 85.5,-130 79.5,-130"/>
<text text-anchor="middle" x="49" y="-108.3" font-family="Helvetica,sans-Serif" font-size="14.00">err_error5</text>
</g>
<!-- err_error5&#45;&gt;vibration -->
<g id="edge10" class="edge">
<title>err_error5&#45;&gt;vibration</title>
<path fill="none" stroke="black" stroke-width="1.2" d="M91.77,-112C105.01,-112 119.76,-112 133.44,-112"/>
<polygon fill="black" stroke="black" stroke-width="1.2" points="133.64,-115.5 143.64,-112 133.64,-108.5 133.64,-115.5"/>
</g>
<!-- mnt_comp2 -->
<g id="node11" class="node">
<title>mnt_comp2</title>
<path fill="white" stroke="black" d="M488,-90C488,-90 414,-90 414,-90 408,-90 402,-84 402,-78 402,-78 402,-66 402,-66 402,-60 408,-54 414,-54 414,-54 488,-54 488,-54 494,-54 500,-60 500,-66 500,-66 500,-78 500,-78 500,-84 494,-90 488,-90"/>
<text text-anchor="middle" x="451" y="-68.3" font-family="Helvetica,sans-Serif" font-size="14.00">mnt_comp2</text>
</g>
<!-- mnt_comp3 -->
<g id="node12" class="node">
<title>mnt_comp3</title>
<path fill="white" stroke="black" d="M86,-346C86,-346 12,-346 12,-346 6,-346 0,-340 0,-334 0,-334 0,-322 0,-322 0,-316 6,-310 12,-310 12,-310 86,-310 86,-310 92,-310 98,-316 98,-322 98,-322 98,-334 98,-334 98,-340 92,-346 86,-346"/>
<text text-anchor="middle" x="49" y="-324.3" font-family="Helvetica,sans-Serif" font-size="14.00">mnt_comp3</text>
</g>
<!-- mnt_comp4 -->
<g id="node13" class="node">
<title>mnt_comp4</title>
<path fill="white" stroke="black" d="M220,-238C220,-238 146,-238 146,-238 140,-238 134,-232 134,-226 134,-226 134,-214 134,-214 134,-208 140,-202 146,-202 146,-202 220,-202 220,-202 226,-202 232,-208 232,-214 232,-214 232,-226 232,-226 232,-232 226,-238 220,-238"/>
<text text-anchor="middle" x="183" y="-216.3" font-family="Helvetica,sans-Serif" font-size="14.00">mnt_comp4</text>
</g>
<!-- fail_comp1 -->
<g id="node14" class="node">
<title>fail_comp1</title>
<path fill="white" stroke="black" d="M83,-400C83,-400 15,-400 15,-400 9,-400 3,-394 3,-388 3,-388 3,-376 3,-376 3,-370 9,-364 15,-364 15,-364 83,-364 83,-364 89,-364 95,-370 95,-376 95,-376 95,-388 95,-388 95,-394 89,-400 83,-400"/>
<text text-anchor="middle" x="49" y="-378.3" font-family="Helvetica,sans-Serif" font-size="14.00">fail_comp1</text>
</g>
<!-- fail_comp2&#45;&gt;mnt_comp2 -->
<g id="edge12" class="edge">
<title>fail_comp2&#45;&gt;mnt_comp2</title>
<path fill="none" stroke="black" stroke-width="1.2" d="M363.06,-72C372.27,-72 382.09,-72 391.7,-72"/>
<polygon fill="black" stroke="black" stroke-width="1.2" points="391.99,-75.5 401.99,-72 391.99,-68.5 391.99,-75.5"/>
</g>
<!-- fail_comp3 -->
<g id="node16" class="node">
<title>fail_comp3</title>
<path fill="white" stroke="black" d="M83,-454C83,-454 15,-454 15,-454 9,-454 3,-448 3,-442 3,-442 3,-430 3,-430 3,-424 9,-418 15,-418 15,-418 83,-418 83,-418 89,-418 95,-424 95,-430 95,-430 95,-442 95,-442 95,-448 89,-454 83,-454"/>
<text text-anchor="middle" x="49" y="-432.3" font-family="Helvetica,sans-Serif" font-size="14.00">fail_comp3</text>
</g>
<!-- fail_comp4 -->
<g id="node17" class="node">
<title>fail_comp4</title>
<path fill="white" stroke="black" d="M83,-184C83,-184 15,-184 15,-184 9,-184 3,-178 3,-172 3,-172 3,-160 3,-160 3,-154 9,-148 15,-148 15,-148 83,-148 83,-148 89,-148 95,-154 95,-160 95,-160 95,-172 95,-172 95,-178 89,-184 83,-184"/>
<text text-anchor="middle" x="49" y="-162.3" font-family="Helvetica,sans-Serif" font-size="14.00">fail_comp4</text>
</g>
<!-- fail_comp4&#45;&gt;volt -->
<g id="edge2" class="edge">
<title>fail_comp4&#45;&gt;volt</title>
<path fill="none" stroke="black" stroke-width="1.2" d="M95.06,-166C111.56,-166 130.02,-166 145.67,-166"/>
<polygon fill="black" stroke="black" stroke-width="1.2" points="145.99,-169.5 155.99,-166 145.99,-162.5 145.99,-169.5"/>
</g>
<!-- fail_comp4&#45;&gt;rotate -->
<g id="edge6" class="edge">
<title>fail_comp4&#45;&gt;rotate</title>
<path fill="none" stroke="black" stroke-width="1.2" d="M86.9,-147.67C90.84,-145.02 94.63,-142.12 98,-139 119.15,-119.39 112.85,-104.61 134,-85 137.54,-81.72 141.55,-78.68 145.7,-75.92"/>
<polygon fill="black" stroke="black" stroke-width="1.2" points="147.63,-78.85 154.34,-70.65 143.98,-72.87 147.63,-78.85"/>
</g>
<!-- fail_comp4&#45;&gt;vibration -->
<g id="edge11" class="edge">
<title>fail_comp4&#45;&gt;vibration</title>
<path fill="none" stroke="black" stroke-width="1.2" d="M94.32,-147.87C107.22,-142.59 121.36,-136.81 134.45,-131.45"/>
<polygon fill="black" stroke="black" stroke-width="1.2" points="135.83,-134.67 143.76,-127.64 133.18,-128.19 135.83,-134.67"/>
</g>
<!-- fail_comp4&#45;&gt;mnt_comp4 -->
<g id="edge13" class="edge">
<title>fail_comp4&#45;&gt;mnt_comp4</title>
<path fill="none" stroke="black" stroke-width="1.2" d="M94.32,-184.13C105.2,-188.58 116.97,-193.4 128.25,-198.01"/>
<polygon fill="black" stroke="black" stroke-width="1.2" points="126.99,-201.28 137.57,-201.82 129.64,-194.8 126.99,-201.28"/>
</g>
</g>
</svg>
