<?xml version="1.0" encoding="UTF-8" standalone="no"?>
<!DOCTYPE svg PUBLIC "-//W3C//DTD SVG 1.1//EN"
 "http://www.w3.org/Graphics/SVG/1.1/DTD/svg11.dtd">
<!-- Generated by graphviz version 2.50.0 (0)
 -->
<!-- Title: G Pages: 1 -->
<svg width="585pt" height="442pt"
 viewBox="0.00 0.00 585.00 442.00" xmlns="http://www.w3.org/2000/svg" xmlns:xlink="http://www.w3.org/1999/xlink">
<g id="graph0" class="graph" transform="scale(1 1) rotate(0) translate(4 438)">
<title>G</title>
<polygon fill="white" stroke="transparent" points="-4,4 -4,-438 581,-438 581,4 -4,4"/>
<text text-anchor="middle" x="288.5" y="-417.2" font-family="Times,serif" font-size="16.00">model=model4/pcmci_mixed.json [machine 77]</text>
<!-- volt -->
<g id="node1" class="node">
<title>volt</title>
<path fill="white" stroke="black" d="M565,-121C565,-121 535,-121 535,-121 529,-121 523,-115 523,-109 523,-109 523,-97 523,-97 523,-91 529,-85 535,-85 535,-85 565,-85 565,-85 571,-85 577,-91 577,-97 577,-97 577,-109 577,-109 577,-115 571,-121 565,-121"/>
<text text-anchor="middle" x="550" y="-99.3" font-family="Helvetica,sans-Serif" font-size="14.00">volt</text>
</g>
<!-- rotate -->
<g id="node2" class="node">
<title>rotate</title>
<path fill="white" stroke="black" d="M461,-144C461,-144 428,-144 428,-144 422,-144 416,-138 416,-132 416,-132 416,-120 416,-120 416,-114 422,-108 428,-108 428,-108 461,-108 461,-108 467,-108 473,-114 473,-120 473,-120 473,-132 473,-132 473,-138 467,-144 461,-144"/>
<text text-anchor="middle" x="444.5" y="-122.3" font-family="Helvetica,sans-Serif" font-size="14.00">rotate</text>
</g>
<!-- rotate&#45;&gt;volt -->
<g id="edge1" class="edge">
<title>rotate&#45;&gt;volt</title>
<path fill="none" stroke="black" stroke-width="1.2" d="M473.24,-119.84C485.43,-117.13 499.9,-113.91 512.92,-111.02"/>
<polygon fill="black" stroke="black" stroke-width="1.2" points="513.97,-114.37 522.97,-108.78 512.45,-107.54 513.97,-114.37"/>
</g>
<!-- pressure -->
<g id="node3" class="node">
<title>pressure</title>
<path fill="white" stroke="black" d="M75.5,-192C75.5,-192 22.5,-192 22.5,-192 16.5,-192 10.5,-186 10.5,-180 10.5,-180 10.5,-168 10.5,-168 10.5,-162 16.5,-156 22.5,-156 22.5,-156 75.5,-156 75.5,-156 81.5,-156 87.5,-162 87.5,-168 87.5,-168 87.5,-180 87.5,-180 87.5,-186 81.5,-192 75.5,-192"/>
<text text-anchor="middle" x="49" y="-170.3" font-family="Helvetica,sans-Serif" font-size="14.00">pressure</text>
</g>
<!-- pressure&#45;&gt;volt -->
<g id="edge2" class="edge">
<title>pressure&#45;&gt;volt</title>
<path fill="none" stroke="black" stroke-width="1.2" d="M83.39,-192.03C88.35,-194.93 93.36,-197.97 98,-201 114.75,-211.93 115.07,-221.53 134,-228 231.58,-261.34 267,-258.83 366,-230 430.28,-211.28 491.31,-159.8 524.09,-128.43"/>
<polygon fill="black" stroke="black" stroke-width="1.2" points="526.69,-130.78 531.42,-121.3 521.81,-125.76 526.69,-130.78"/>
</g>
<!-- pressure&#45;&gt;rotate -->
<g id="edge5" class="edge">
<title>pressure&#45;&gt;rotate</title>
<path fill="none" stroke="black" stroke-width="1.2" d="M87.78,-189.46C148.92,-212 272.16,-247.09 366,-207 391.76,-195.99 413.06,-171.75 426.76,-152.64"/>
<polygon fill="black" stroke="black" stroke-width="1.2" points="429.73,-154.51 432.52,-144.29 423.96,-150.54 429.73,-154.51"/>
</g>
<!-- mnt_comp4 -->
<g id="node13" class="node">
<title>mnt_comp4</title>
<path fill="white" stroke="black" d="M220,-169C220,-169 146,-169 146,-169 140,-169 134,-163 134,-157 134,-157 134,-145 134,-145 134,-139 140,-133 146,-133 146,-133 220,-133 220,-133 226,-133 232,-139 232,-145 232,-145 232,-157 232,-157 232,-163 226,-169 220,-169"/>
<text text-anchor="middle" x="183" y="-147.3" font-family="Helvetica,sans-Serif" font-size="14.00">mnt_comp4</text>
</g>
<!-- pressure&#45;&gt;mnt_comp4 -->
<g id="edge11" class="edge">
<title>pressure&#45;&gt;mnt_comp4</title>
<path fill="none" stroke="black" stroke-width="1.2" d="M87.83,-167.41C99.02,-165.46 111.53,-163.28 123.7,-161.16"/>
<polygon fill="black" stroke="black" stroke-width="1.2" points="124.55,-164.56 133.8,-159.4 123.35,-157.67 124.55,-164.56"/>
</g>
<!-- vibration -->
<g id="node4" class="node">
<title>vibration</title>
<path fill="white" stroke="black" d="M344,-36C344,-36 290,-36 290,-36 284,-36 278,-30 278,-24 278,-24 278,-12 278,-12 278,-6 284,0 290,0 290,0 344,0 344,0 350,0 356,-6 356,-12 356,-12 356,-24 356,-24 356,-30 350,-36 344,-36"/>
<text text-anchor="middle" x="317" y="-14.3" font-family="Helvetica,sans-Serif" font-size="14.00">vibration</text>
</g>
<!-- vibration&#45;&gt;volt -->
<g id="edge3" class="edge">
<title>vibration&#45;&gt;volt</title>
<path fill="none" stroke="black" stroke-width="1.2" d="M349.63,-36.04C365.09,-44.38 384.17,-53.97 402,-61 438.77,-75.51 482.52,-87.35 512.67,-94.72"/>
<polygon fill="black" stroke="black" stroke-width="1.2" points="512.19,-98.2 522.74,-97.13 513.83,-91.4 512.19,-98.2"/>
</g>
<!-- vibration&#45;&gt;rotate -->
<g id="edge6" class="edge">
<title>vibration&#45;&gt;rotate</title>
<path fill="none" stroke="black" stroke-width="1.2" d="M354.27,-36.16C358.41,-38.87 362.42,-41.83 366,-45 386.23,-62.92 383.11,-74.67 402,-94 404.35,-96.41 406.89,-98.79 409.52,-101.1"/>
<polygon fill="black" stroke="black" stroke-width="1.2" points="407.61,-104.07 417.53,-107.78 412.09,-98.69 407.61,-104.07"/>
</g>
<!-- vibration&#45;&gt;pressure -->
<g id="edge10" class="edge">
<title>vibration&#45;&gt;pressure</title>
<path fill="none" stroke="black" stroke-width="1.2" d="M283.67,-36.06C278.42,-39.03 273.05,-42.09 268,-45 205.03,-81.27 132.52,-124.46 89.02,-150.53"/>
<polygon fill="black" stroke="black" stroke-width="1.2" points="86.97,-147.68 80.2,-155.83 90.57,-153.68 86.97,-147.68"/>
</g>
<!-- err_error1 -->
<g id="node5" class="node">
<title>err_error1</title>
<path fill="white" stroke="black" d="M79.5,-246C79.5,-246 18.5,-246 18.5,-246 12.5,-246 6.5,-240 6.5,-234 6.5,-234 6.5,-222 6.5,-222 6.5,-216 12.5,-210 18.5,-210 18.5,-210 79.5,-210 79.5,-210 85.5,-210 91.5,-216 91.5,-222 91.5,-222 91.5,-234 91.5,-234 91.5,-240 85.5,-246 79.5,-246"/>
<text text-anchor="middle" x="49" y="-224.3" font-family="Helvetica,sans-Serif" font-size="14.00">err_error1</text>
</g>
<!-- err_error2 -->
<g id="node6" class="node">
<title>err_error2</title>
<path fill="white" stroke="black" d="M475,-52C475,-52 414,-52 414,-52 408,-52 402,-46 402,-40 402,-40 402,-28 402,-28 402,-22 408,-16 414,-16 414,-16 475,-16 475,-16 481,-16 487,-22 487,-28 487,-28 487,-40 487,-40 487,-46 481,-52 475,-52"/>
<text text-anchor="middle" x="444.5" y="-30.3" font-family="Helvetica,sans-Serif" font-size="14.00">err_error2</text>
</g>
<!-- err_error2&#45;&gt;volt -->
<g id="edge4" class="edge">
<title>err_error2&#45;&gt;volt</title>
<path fill="none" stroke="black" stroke-width="1.2" d="M472.69,-52.13C485.37,-60.58 500.6,-70.74 514.12,-79.74"/>
<polygon fill="black" stroke="black" stroke-width="1.2" points="512.44,-82.83 522.7,-85.47 516.32,-77.01 512.44,-82.83"/>
</g>
<!-- err_error3 -->
<g id="node7" class="node">
<title>err_error3</title>
<path fill="white" stroke="black" d="M347.5,-198C347.5,-198 286.5,-198 286.5,-198 280.5,-198 274.5,-192 274.5,-186 274.5,-186 274.5,-174 274.5,-174 274.5,-168 280.5,-162 286.5,-162 286.5,-162 347.5,-162 347.5,-162 353.5,-162 359.5,-168 359.5,-174 359.5,-174 359.5,-186 359.5,-186 359.5,-192 353.5,-198 347.5,-198"/>
<text text-anchor="middle" x="317" y="-176.3" font-family="Helvetica,sans-Serif" font-size="14.00">err_error3</text>
</g>
<!-- err_error3&#45;&gt;rotate -->
<g id="edge7" class="edge">
<title>err_error3&#45;&gt;rotate</title>
<path fill="none" stroke="black" stroke-width="1.2" d="M359.79,-162.02C374.88,-155.53 391.8,-148.25 406.46,-141.94"/>
<polygon fill="black" stroke="black" stroke-width="1.2" points="407.92,-145.12 415.72,-137.95 405.15,-138.69 407.92,-145.12"/>
</g>
<!-- err_error4 -->
<g id="node8" class="node">
<title>err_error4</title>
<path fill="white" stroke="black" d="M347.5,-144C347.5,-144 286.5,-144 286.5,-144 280.5,-144 274.5,-138 274.5,-132 274.5,-132 274.5,-120 274.5,-120 274.5,-114 280.5,-108 286.5,-108 286.5,-108 347.5,-108 347.5,-108 353.5,-108 359.5,-114 359.5,-120 359.5,-120 359.5,-132 359.5,-132 359.5,-138 353.5,-144 347.5,-144"/>
<text text-anchor="middle" x="317" y="-122.3" font-family="Helvetica,sans-Serif" font-size="14.00">err_error4</text>
</g>
<!-- err_error4&#45;&gt;rotate -->
<g id="edge8" class="edge">
<title>err_error4&#45;&gt;rotate</title>
<path fill="none" stroke="black" stroke-width="1.2" d="M359.79,-126C374.59,-126 391.16,-126 405.62,-126"/>
<polygon fill="black" stroke="black" stroke-width="1.2" points="405.72,-129.5 415.72,-126 405.72,-122.5 405.72,-129.5"/>
</g>
<!-- err_error5 -->
<g id="node9" class="node">
<title>err_error5</title>
<path fill="white" stroke="black" d="M79.5,-300C79.5,-300 18.5,-300 18.5,-300 12.5,-300 6.5,-294 6.5,-288 6.5,-288 6.5,-276 6.5,-276 6.5,-270 12.5,-264 18.5,-264 18.5,-264 79.5,-264 79.5,-264 85.5,-264 91.5,-270 91.5,-276 91.5,-276 91.5,-288 91.5,-288 91.5,-294 85.5,-300 79.5,-300"/>
<text text-anchor="middle" x="49" y="-278.3" font-family="Helvetica,sans-Serif" font-size="14.00">err_error5</text>
</g>
<!-- mnt_comp1 -->
<g id="node10" class="node">
<title>mnt_comp1</title>
<path fill="white" stroke="black" d="M354,-90C354,-90 280,-90 280,-90 274,-90 268,-84 268,-78 268,-78 268,-66 268,-66 268,-60 274,-54 280,-54 280,-54 354,-54 354,-54 360,-54 366,-60 366,-66 366,-66 366,-78 366,-78 366,-84 360,-90 354,-90"/>
<text text-anchor="middle" x="317" y="-68.3" font-family="Helvetica,sans-Serif" font-size="14.00">mnt_comp1</text>
</g>
<!-- mnt_comp1&#45;&gt;rotate -->
<g id="edge9" class="edge">
<title>mnt_comp1&#45;&gt;rotate</title>
<path fill="none" stroke="black" stroke-width="1.2" d="M360.14,-90.13C375.21,-96.62 392.06,-103.87 406.65,-110.15"/>
<polygon fill="black" stroke="black" stroke-width="1.2" points="405.3,-113.37 415.87,-114.11 408.07,-106.94 405.3,-113.37"/>
</g>
<!-- mnt_comp2 -->
<g id="node11" class="node">
<title>mnt_comp2</title>
<path fill="white" stroke="black" d="M86,-354C86,-354 12,-354 12,-354 6,-354 0,-348 0,-342 0,-342 0,-330 0,-330 0,-324 6,-318 12,-318 12,-318 86,-318 86,-318 92,-318 98,-324 98,-330 98,-330 98,-342 98,-342 98,-348 92,-354 86,-354"/>
<text text-anchor="middle" x="49" y="-332.3" font-family="Helvetica,sans-Serif" font-size="14.00">mnt_comp2</text>
</g>
<!-- mnt_comp3 -->
<g id="node12" class="node">
<title>mnt_comp3</title>
<path fill="white" stroke="black" d="M86,-408C86,-408 12,-408 12,-408 6,-408 0,-402 0,-396 0,-396 0,-384 0,-384 0,-378 6,-372 12,-372 12,-372 86,-372 86,-372 92,-372 98,-378 98,-384 98,-384 98,-396 98,-396 98,-402 92,-408 86,-408"/>
<text text-anchor="middle" x="49" y="-386.3" font-family="Helvetica,sans-Serif" font-size="14.00">mnt_comp3</text>
</g>
<!-- mnt_comp4&#45;&gt;vibration -->
<g id="edge12" class="edge">
<title>mnt_comp4&#45;&gt;vibration</title>
<path fill="none" stroke="black" stroke-width="1.2" d="M195.27,-132.72C209.92,-110.06 237.28,-71.22 268,-45 269.14,-44.03 270.31,-43.08 271.52,-42.15"/>
<polygon fill="black" stroke="black" stroke-width="1.2" points="273.68,-44.9 279.84,-36.28 269.65,-39.18 273.68,-44.9"/>
</g>
</g>
</svg>
