<?xml version="1.0" encoding="UTF-8" standalone="no"?>
<!DOCTYPE svg PUBLIC "-//W3C//DTD SVG 1.1//EN"
 "http://www.w3.org/Graphics/SVG/1.1/DTD/svg11.dtd">
<!-- Generated by graphviz version 2.50.0 (0)
 -->
<!-- Title: G Pages: 1 -->
<svg width="844pt" height="417pt"
 viewBox="0.00 0.00 844.00 417.00" xmlns="http://www.w3.org/2000/svg" xmlns:xlink="http://www.w3.org/1999/xlink">
<g id="graph0" class="graph" transform="scale(1 1) rotate(0) translate(4 413)">
<title>G</title>
<polygon fill="white" stroke="transparent" points="-4,4 -4,-413 840,-413 840,4 -4,4"/>
<text text-anchor="middle" x="418" y="-392.2" font-family="Times,serif" font-size="16.00">model=model1/pcmci_mixed.json [machine 99]</text>
<!-- volt -->
<g id="node1" class="node">
<title>volt</title>
<path fill="white" stroke="black" d="M195,-125C195,-125 165,-125 165,-125 159,-125 153,-119 153,-113 153,-113 153,-101 153,-101 153,-95 159,-89 165,-89 165,-89 195,-89 195,-89 201,-89 207,-95 207,-101 207,-101 207,-113 207,-113 207,-119 201,-125 195,-125"/>
<text text-anchor="middle" x="180" y="-103.3" font-family="Helvetica,sans-Serif" font-size="14.00">volt</text>
</g>
<!-- rotate -->
<g id="node2" class="node">
<title>rotate</title>
<path fill="white" stroke="black" d="M455,-109C455,-109 422,-109 422,-109 416,-109 410,-103 410,-97 410,-97 410,-85 410,-85 410,-79 416,-73 422,-73 422,-73 455,-73 455,-73 461,-73 467,-79 467,-85 467,-85 467,-97 467,-97 467,-103 461,-109 455,-109"/>
<text text-anchor="middle" x="438.5" y="-87.3" font-family="Helvetica,sans-Serif" font-size="14.00">rotate</text>
</g>
<!-- volt&#45;&gt;rotate -->
<g id="edge1" class="edge">
<title>volt&#45;&gt;rotate</title>
<path fill="none" stroke="black" stroke-width="1.2" d="M207.01,-105.38C252.52,-102.54 346.8,-96.66 399.59,-93.36"/>
<polygon fill="black" stroke="black" stroke-width="1.2" points="400.11,-96.84 409.88,-92.72 399.68,-89.85 400.11,-96.84"/>
</g>
<!-- pressure -->
<g id="node3" class="node">
<title>pressure</title>
<path fill="white" stroke="black" d="M703,-155C703,-155 650,-155 650,-155 644,-155 638,-149 638,-143 638,-143 638,-131 638,-131 638,-125 644,-119 650,-119 650,-119 703,-119 703,-119 709,-119 715,-125 715,-131 715,-131 715,-143 715,-143 715,-149 709,-155 703,-155"/>
<text text-anchor="middle" x="676.5" y="-133.3" font-family="Helvetica,sans-Serif" font-size="14.00">pressure</text>
</g>
<!-- volt&#45;&gt;pressure -->
<g id="edge2" class="edge">
<title>volt&#45;&gt;pressure</title>
<path fill="none" stroke="black" stroke-width="1.2" d="M196.56,-125.04C211.5,-140.86 235.64,-162.73 262,-172 388.61,-216.52 549.91,-177.72 628.37,-153.28"/>
<polygon fill="black" stroke="black" stroke-width="1.2" points="629.5,-156.59 637.98,-150.23 627.38,-149.92 629.5,-156.59"/>
</g>
<!-- vibration -->
<g id="node4" class="node">
<title>vibration</title>
<path fill="white" stroke="black" d="M338,-163C338,-163 284,-163 284,-163 278,-163 272,-157 272,-151 272,-151 272,-139 272,-139 272,-133 278,-127 284,-127 284,-127 338,-127 338,-127 344,-127 350,-133 350,-139 350,-139 350,-151 350,-151 350,-157 344,-163 338,-163"/>
<text text-anchor="middle" x="311" y="-141.3" font-family="Helvetica,sans-Serif" font-size="14.00">vibration</text>
</g>
<!-- volt&#45;&gt;vibration -->
<g id="edge3" class="edge">
<title>volt&#45;&gt;vibration</title>
<path fill="none" stroke="black" stroke-width="1.2" d="M207.11,-114.69C222.83,-119.32 243.35,-125.37 261.91,-130.84"/>
<polygon fill="black" stroke="black" stroke-width="1.2" points="261.12,-134.25 271.7,-133.72 263.1,-127.53 261.12,-134.25"/>
</g>
<!-- mnt_comp3 -->
<g id="node12" class="node">
<title>mnt_comp3</title>
<path fill="white" stroke="black" d="M348,-71C348,-71 274,-71 274,-71 268,-71 262,-65 262,-59 262,-59 262,-47 262,-47 262,-41 268,-35 274,-35 274,-35 348,-35 348,-35 354,-35 360,-41 360,-47 360,-47 360,-59 360,-59 360,-65 354,-71 348,-71"/>
<text text-anchor="middle" x="311" y="-49.3" font-family="Helvetica,sans-Serif" font-size="14.00">mnt_comp3</text>
</g>
<!-- volt&#45;&gt;mnt_comp3 -->
<g id="edge5" class="edge">
<title>volt&#45;&gt;mnt_comp3</title>
<path fill="none" stroke="black" stroke-width="1.2" d="M207.11,-96.07C221.58,-90.01 240.11,-82.26 257.44,-75"/>
<polygon fill="black" stroke="black" stroke-width="1.2" points="259.05,-78.12 266.92,-71.03 256.34,-71.67 259.05,-78.12"/>
</g>
<!-- rotate&#45;&gt;pressure -->
<g id="edge8" class="edge">
<title>rotate&#45;&gt;pressure</title>
<path fill="none" stroke="black" stroke-width="1.2" d="M467.05,-102.23C481.67,-107.77 500.06,-114.08 517,-118 553.63,-126.47 595.95,-131.3 627.64,-133.97"/>
<polygon fill="black" stroke="black" stroke-width="1.2" points="627.71,-137.48 637.96,-134.79 628.27,-130.51 627.71,-137.48"/>
</g>
<!-- err_error4 -->
<g id="node8" class="node">
<title>err_error4</title>
<path fill="white" stroke="black" d="M590,-109C590,-109 529,-109 529,-109 523,-109 517,-103 517,-97 517,-97 517,-85 517,-85 517,-79 523,-73 529,-73 529,-73 590,-73 590,-73 596,-73 602,-79 602,-85 602,-85 602,-97 602,-97 602,-103 596,-109 590,-109"/>
<text text-anchor="middle" x="559.5" y="-87.3" font-family="Helvetica,sans-Serif" font-size="14.00">err_error4</text>
</g>
<!-- rotate&#45;&gt;err_error4 -->
<g id="edge11" class="edge">
<title>rotate&#45;&gt;err_error4</title>
<path fill="none" stroke="black" stroke-width="1.2" d="M467.1,-91C478.81,-91 492.86,-91 506.39,-91"/>
<polygon fill="black" stroke="black" stroke-width="1.2" points="506.59,-94.5 516.59,-91 506.59,-87.5 506.59,-94.5"/>
</g>
<!-- err_error1 -->
<g id="node5" class="node">
<title>err_error1</title>
<path fill="white" stroke="black" d="M824,-182C824,-182 763,-182 763,-182 757,-182 751,-176 751,-170 751,-170 751,-158 751,-158 751,-152 757,-146 763,-146 763,-146 824,-146 824,-146 830,-146 836,-152 836,-158 836,-158 836,-170 836,-170 836,-176 830,-182 824,-182"/>
<text text-anchor="middle" x="793.5" y="-160.3" font-family="Helvetica,sans-Serif" font-size="14.00">err_error1</text>
</g>
<!-- pressure&#45;&gt;err_error1 -->
<g id="edge12" class="edge">
<title>pressure&#45;&gt;err_error1</title>
<path fill="none" stroke="black" stroke-width="1.2" d="M715.16,-145.84C723.35,-147.76 732.15,-149.83 740.78,-151.86"/>
<polygon fill="black" stroke="black" stroke-width="1.2" points="740.25,-155.33 750.78,-154.21 741.85,-148.51 740.25,-155.33"/>
</g>
<!-- err_error3 -->
<g id="node7" class="node">
<title>err_error3</title>
<path fill="white" stroke="black" d="M824,-128C824,-128 763,-128 763,-128 757,-128 751,-122 751,-116 751,-116 751,-104 751,-104 751,-98 757,-92 763,-92 763,-92 824,-92 824,-92 830,-92 836,-98 836,-104 836,-104 836,-116 836,-116 836,-122 830,-128 824,-128"/>
<text text-anchor="middle" x="793.5" y="-106.3" font-family="Helvetica,sans-Serif" font-size="14.00">err_error3</text>
</g>
<!-- pressure&#45;&gt;err_error3 -->
<g id="edge13" class="edge">
<title>pressure&#45;&gt;err_error3</title>
<path fill="none" stroke="black" stroke-width="1.2" d="M715.16,-128.16C723.35,-126.24 732.15,-124.17 740.78,-122.14"/>
<polygon fill="black" stroke="black" stroke-width="1.2" points="741.85,-125.49 750.78,-119.79 740.25,-118.67 741.85,-125.49"/>
</g>
<!-- vibration&#45;&gt;rotate -->
<g id="edge9" class="edge">
<title>vibration&#45;&gt;rotate</title>
<path fill="none" stroke="black" stroke-width="1.2" d="M350.34,-128.5C366.21,-121.67 384.56,-113.78 400.32,-107"/>
<polygon fill="black" stroke="black" stroke-width="1.2" points="401.95,-110.11 409.75,-102.94 399.18,-103.68 401.95,-110.11"/>
</g>
<!-- err_error5 -->
<g id="node9" class="node">
<title>err_error5</title>
<path fill="white" stroke="black" d="M469,-163C469,-163 408,-163 408,-163 402,-163 396,-157 396,-151 396,-151 396,-139 396,-139 396,-133 402,-127 408,-127 408,-127 469,-127 469,-127 475,-127 481,-133 481,-139 481,-139 481,-151 481,-151 481,-157 475,-163 469,-163"/>
<text text-anchor="middle" x="438.5" y="-141.3" font-family="Helvetica,sans-Serif" font-size="14.00">err_error5</text>
</g>
<!-- vibration&#45;&gt;err_error5 -->
<g id="edge15" class="edge">
<title>vibration&#45;&gt;err_error5</title>
<path fill="none" stroke="black" stroke-width="1.2" d="M350.34,-145C361.49,-145 373.86,-145 385.69,-145"/>
<polygon fill="black" stroke="black" stroke-width="1.2" points="385.91,-148.5 395.91,-145 385.91,-141.5 385.91,-148.5"/>
</g>
<!-- err_error2 -->
<g id="node6" class="node">
<title>err_error2</title>
<path fill="white" stroke="black" d="M79.5,-36C79.5,-36 18.5,-36 18.5,-36 12.5,-36 6.5,-30 6.5,-24 6.5,-24 6.5,-12 6.5,-12 6.5,-6 12.5,0 18.5,0 18.5,0 79.5,0 79.5,0 85.5,0 91.5,-6 91.5,-12 91.5,-12 91.5,-24 91.5,-24 91.5,-30 85.5,-36 79.5,-36"/>
<text text-anchor="middle" x="49" y="-14.3" font-family="Helvetica,sans-Serif" font-size="14.00">err_error2</text>
</g>
<!-- err_error2&#45;&gt;volt -->
<g id="edge4" class="edge">
<title>err_error2&#45;&gt;volt</title>
<path fill="none" stroke="black" stroke-width="1.2" d="M73.46,-36.25C90.08,-48.94 113.04,-66.02 134,-80 137.14,-82.09 140.44,-84.22 143.77,-86.31"/>
<polygon fill="black" stroke="black" stroke-width="1.2" points="142.21,-89.45 152.56,-91.71 145.88,-83.49 142.21,-89.45"/>
</g>
<!-- err_error2&#45;&gt;rotate -->
<g id="edge10" class="edge">
<title>err_error2&#45;&gt;rotate</title>
<path fill="none" stroke="black" stroke-width="1.2" d="M91.53,-10.66C152.6,-1.7 269.24,8.35 360,-26 381.54,-34.15 401.35,-51.01 415.55,-65.51"/>
<polygon fill="black" stroke="black" stroke-width="1.2" points="413.03,-67.95 422.44,-72.83 418.13,-63.15 413.03,-67.95"/>
</g>
<!-- err_error4&#45;&gt;pressure -->
<g id="edge14" class="edge">
<title>err_error4&#45;&gt;pressure</title>
<path fill="none" stroke="black" stroke-width="1.2" d="M602.02,-107.61C610.62,-111.05 619.73,-114.69 628.51,-118.2"/>
<polygon fill="black" stroke="black" stroke-width="1.2" points="627.28,-121.48 637.86,-121.95 629.88,-114.98 627.28,-121.48"/>
</g>
<!-- mnt_comp1 -->
<g id="node10" class="node">
<title>mnt_comp1</title>
<path fill="white" stroke="black" d="M86,-221C86,-221 12,-221 12,-221 6,-221 0,-215 0,-209 0,-209 0,-197 0,-197 0,-191 6,-185 12,-185 12,-185 86,-185 86,-185 92,-185 98,-191 98,-197 98,-197 98,-209 98,-209 98,-215 92,-221 86,-221"/>
<text text-anchor="middle" x="49" y="-199.3" font-family="Helvetica,sans-Serif" font-size="14.00">mnt_comp1</text>
</g>
<!-- mnt_comp2 -->
<g id="node11" class="node">
<title>mnt_comp2</title>
<path fill="white" stroke="black" d="M86,-275C86,-275 12,-275 12,-275 6,-275 0,-269 0,-263 0,-263 0,-251 0,-251 0,-245 6,-239 12,-239 12,-239 86,-239 86,-239 92,-239 98,-245 98,-251 98,-251 98,-263 98,-263 98,-269 92,-275 86,-275"/>
<text text-anchor="middle" x="49" y="-253.3" font-family="Helvetica,sans-Serif" font-size="14.00">mnt_comp2</text>
</g>
<!-- mnt_comp4 -->
<g id="node13" class="node">
<title>mnt_comp4</title>
<path fill="white" stroke="black" d="M86,-167C86,-167 12,-167 12,-167 6,-167 0,-161 0,-155 0,-155 0,-143 0,-143 0,-137 6,-131 12,-131 12,-131 86,-131 86,-131 92,-131 98,-137 98,-143 98,-143 98,-155 98,-155 98,-161 92,-167 86,-167"/>
<text text-anchor="middle" x="49" y="-145.3" font-family="Helvetica,sans-Serif" font-size="14.00">mnt_comp4</text>
</g>
<!-- mnt_comp4&#45;&gt;volt -->
<g id="edge6" class="edge">
<title>mnt_comp4&#45;&gt;volt</title>
<path fill="none" stroke="black" stroke-width="1.2" d="M98.03,-133.36C112.91,-128.52 129.03,-123.27 142.94,-118.74"/>
<polygon fill="black" stroke="black" stroke-width="1.2" points="144.21,-122.01 152.64,-115.58 142.04,-115.35 144.21,-122.01"/>
</g>
<!-- fail_comp1 -->
<g id="node14" class="node">
<title>fail_comp1</title>
<path fill="white" stroke="black" d="M83,-329C83,-329 15,-329 15,-329 9,-329 3,-323 3,-317 3,-317 3,-305 3,-305 3,-299 9,-293 15,-293 15,-293 83,-293 83,-293 89,-293 95,-299 95,-305 95,-305 95,-317 95,-317 95,-323 89,-329 83,-329"/>
<text text-anchor="middle" x="49" y="-307.3" font-family="Helvetica,sans-Serif" font-size="14.00">fail_comp1</text>
</g>
<!-- fail_comp2 -->
<g id="node15" class="node">
<title>fail_comp2</title>
<path fill="white" stroke="black" d="M83,-383C83,-383 15,-383 15,-383 9,-383 3,-377 3,-371 3,-371 3,-359 3,-359 3,-353 9,-347 15,-347 15,-347 83,-347 83,-347 89,-347 95,-353 95,-359 95,-359 95,-371 95,-371 95,-377 89,-383 83,-383"/>
<text text-anchor="middle" x="49" y="-361.3" font-family="Helvetica,sans-Serif" font-size="14.00">fail_comp2</text>
</g>
<!-- fail_comp3 -->
<g id="node16" class="node">
<title>fail_comp3</title>
<path fill="white" stroke="black" d="M214,-71C214,-71 146,-71 146,-71 140,-71 134,-65 134,-59 134,-59 134,-47 134,-47 134,-41 140,-35 146,-35 146,-35 214,-35 214,-35 220,-35 226,-41 226,-47 226,-47 226,-59 226,-59 226,-65 220,-71 214,-71"/>
<text text-anchor="middle" x="180" y="-49.3" font-family="Helvetica,sans-Serif" font-size="14.00">fail_comp3</text>
</g>
<!-- fail_comp3&#45;&gt;mnt_comp3 -->
<g id="edge16" class="edge">
<title>fail_comp3&#45;&gt;mnt_comp3</title>
<path fill="none" stroke="black" stroke-width="1.2" d="M226.12,-53C234.28,-53 242.9,-53 251.38,-53"/>
<polygon fill="black" stroke="black" stroke-width="1.2" points="251.62,-56.5 261.62,-53 251.62,-49.5 251.62,-56.5"/>
</g>
<!-- fail_comp4 -->
<g id="node17" class="node">
<title>fail_comp4</title>
<path fill="white" stroke="black" d="M83,-113C83,-113 15,-113 15,-113 9,-113 3,-107 3,-101 3,-101 3,-89 3,-89 3,-83 9,-77 15,-77 15,-77 83,-77 83,-77 89,-77 95,-83 95,-89 95,-89 95,-101 95,-101 95,-107 89,-113 83,-113"/>
<text text-anchor="middle" x="49" y="-91.3" font-family="Helvetica,sans-Serif" font-size="14.00">fail_comp4</text>
</g>
<!-- fail_comp4&#45;&gt;volt -->
<g id="edge7" class="edge">
<title>fail_comp4&#45;&gt;volt</title>
<path fill="none" stroke="black" stroke-width="1.2" d="M95.12,-99.2C110.67,-100.64 127.88,-102.24 142.64,-103.62"/>
<polygon fill="black" stroke="black" stroke-width="1.2" points="142.62,-107.13 152.9,-104.57 143.27,-100.16 142.62,-107.13"/>
</g>
</g>
</svg>
