<?xml version="1.0" encoding="UTF-8" standalone="no"?>
<!DOCTYPE svg PUBLIC "-//W3C//DTD SVG 1.1//EN"
 "http://www.w3.org/Graphics/SVG/1.1/DTD/svg11.dtd">
<!-- Generated by graphviz version 2.50.0 (0)
 -->
<!-- Title: G Pages: 1 -->
<svg width="464pt" height="178pt"
 viewBox="0.00 0.00 464.00 178.00" xmlns="http://www.w3.org/2000/svg" xmlns:xlink="http://www.w3.org/1999/xlink">
<g id="graph0" class="graph" transform="scale(1 1) rotate(0) translate(4 174)">
<title>G</title>
<polygon fill="white" stroke="transparent" points="-4,4 -4,-174 460,-174 460,4 -4,4"/>
<text text-anchor="middle" x="228" y="-153.2" font-family="Times,serif" font-size="16.00">model=model4/varlingam_telemetry.json [machine 2]</text>
<!-- volt -->
<g id="node1" class="node">
<title>volt</title>
<path fill="white" stroke="black" d="M300,-36C300,-36 270,-36 270,-36 264,-36 258,-30 258,-24 258,-24 258,-12 258,-12 258,-6 264,0 270,0 270,0 300,0 300,0 306,0 312,-6 312,-12 312,-12 312,-24 312,-24 312,-30 306,-36 300,-36"/>
<text text-anchor="middle" x="285" y="-14.3" font-family="Helvetica,sans-Serif" font-size="14.00">volt</text>
</g>
<!-- rotate -->
<g id="node2" class="node">
<title>rotate</title>
<path fill="white" stroke="black" d="M199.5,-36C199.5,-36 166.5,-36 166.5,-36 160.5,-36 154.5,-30 154.5,-24 154.5,-24 154.5,-12 154.5,-12 154.5,-6 160.5,0 166.5,0 166.5,0 199.5,0 199.5,0 205.5,0 211.5,-6 211.5,-12 211.5,-12 211.5,-24 211.5,-24 211.5,-30 205.5,-36 199.5,-36"/>
<text text-anchor="middle" x="183" y="-14.3" font-family="Helvetica,sans-Serif" font-size="14.00">rotate</text>
</g>
<!-- rotate&#45;&gt;volt -->
<g id="edge1" class="edge">
<title>rotate&#45;&gt;volt</title>
<path fill="none" stroke="black" stroke-width="1.2" d="M211.59,-18C222.77,-18 235.83,-18 247.76,-18"/>
<polygon fill="black" stroke="black" stroke-width="1.2" points="247.88,-21.5 257.88,-18 247.88,-14.5 247.88,-21.5"/>
</g>
<!-- pressure -->
<g id="node3" class="node">
<title>pressure</title>
<path fill="white" stroke="black" d="M209.5,-90C209.5,-90 156.5,-90 156.5,-90 150.5,-90 144.5,-84 144.5,-78 144.5,-78 144.5,-66 144.5,-66 144.5,-60 150.5,-54 156.5,-54 156.5,-54 209.5,-54 209.5,-54 215.5,-54 221.5,-60 221.5,-66 221.5,-66 221.5,-78 221.5,-78 221.5,-84 215.5,-90 209.5,-90"/>
<text text-anchor="middle" x="183" y="-68.3" font-family="Helvetica,sans-Serif" font-size="14.00">pressure</text>
</g>
<!-- vibration -->
<g id="node4" class="node">
<title>vibration</title>
<path fill="white" stroke="black" d="M210,-144C210,-144 156,-144 156,-144 150,-144 144,-138 144,-132 144,-132 144,-120 144,-120 144,-114 150,-108 156,-108 156,-108 210,-108 210,-108 216,-108 222,-114 222,-120 222,-120 222,-132 222,-132 222,-138 216,-144 210,-144"/>
<text text-anchor="middle" x="183" y="-122.3" font-family="Helvetica,sans-Serif" font-size="14.00">vibration</text>
</g>
</g>
</svg>
