<?xml version="1.0" encoding="UTF-8" standalone="no"?>
<!DOCTYPE svg PUBLIC "-//W3C//DTD SVG 1.1//EN"
 "http://www.w3.org/Graphics/SVG/1.1/DTD/svg11.dtd">
<!-- Generated by graphviz version 2.50.0 (0)
 -->
<!-- Title: G Pages: 1 -->
<svg width="475pt" height="232pt"
 viewBox="0.00 0.00 475.00 232.00" xmlns="http://www.w3.org/2000/svg" xmlns:xlink="http://www.w3.org/1999/xlink">
<g id="graph0" class="graph" transform="scale(1 1) rotate(0) translate(4 228)">
<title>G</title>
<polygon fill="white" stroke="transparent" points="-4,4 -4,-228 471,-228 471,4 -4,4"/>
<text text-anchor="middle" x="233.5" y="-207.2" font-family="Times,serif" font-size="16.00">model=model1/varlingam_telemetry.json [machine 16]</text>
<!-- volt -->
<g id="node1" class="node">
<title>volt</title>
<path fill="white" stroke="black" d="M248.5,-36C248.5,-36 218.5,-36 218.5,-36 212.5,-36 206.5,-30 206.5,-24 206.5,-24 206.5,-12 206.5,-12 206.5,-6 212.5,0 218.5,0 218.5,0 248.5,0 248.5,0 254.5,0 260.5,-6 260.5,-12 260.5,-12 260.5,-24 260.5,-24 260.5,-30 254.5,-36 248.5,-36"/>
<text text-anchor="middle" x="233.5" y="-14.3" font-family="Helvetica,sans-Serif" font-size="14.00">volt</text>
</g>
<!-- rotate -->
<g id="node2" class="node">
<title>rotate</title>
<path fill="white" stroke="black" d="M250,-90C250,-90 217,-90 217,-90 211,-90 205,-84 205,-78 205,-78 205,-66 205,-66 205,-60 211,-54 217,-54 217,-54 250,-54 250,-54 256,-54 262,-60 262,-66 262,-66 262,-78 262,-78 262,-84 256,-90 250,-90"/>
<text text-anchor="middle" x="233.5" y="-68.3" font-family="Helvetica,sans-Serif" font-size="14.00">rotate</text>
</g>
<!-- pressure -->
<g id="node3" class="node">
<title>pressure</title>
<path fill="white" stroke="black" d="M260,-144C260,-144 207,-144 207,-144 201,-144 195,-138 195,-132 195,-132 195,-120 195,-120 195,-114 201,-108 207,-108 207,-108 260,-108 260,-108 266,-108 272,-114 272,-120 272,-120 272,-132 272,-132 272,-138 266,-144 260,-144"/>
<text text-anchor="middle" x="233.5" y="-122.3" font-family="Helvetica,sans-Serif" font-size="14.00">pressure</text>
</g>
<!-- vibration -->
<g id="node4" class="node">
<title>vibration</title>
<path fill="white" stroke="black" d="M260.5,-198C260.5,-198 206.5,-198 206.5,-198 200.5,-198 194.5,-192 194.5,-186 194.5,-186 194.5,-174 194.5,-174 194.5,-168 200.5,-162 206.5,-162 206.5,-162 260.5,-162 260.5,-162 266.5,-162 272.5,-168 272.5,-174 272.5,-174 272.5,-186 272.5,-186 272.5,-192 266.5,-198 260.5,-198"/>
<text text-anchor="middle" x="233.5" y="-176.3" font-family="Helvetica,sans-Serif" font-size="14.00">vibration</text>
</g>
</g>
</svg>
