<?xml version="1.0" encoding="UTF-8" standalone="no"?>
<!DOCTYPE svg PUBLIC "-//W3C//DTD SVG 1.1//EN"
 "http://www.w3.org/Graphics/SVG/1.1/DTD/svg11.dtd">
<!-- Generated by graphviz version 2.50.0 (0)
 -->
<!-- Title: G Pages: 1 -->
<svg width="636pt" height="428pt"
 viewBox="0.00 0.00 636.00 427.90" xmlns="http://www.w3.org/2000/svg" xmlns:xlink="http://www.w3.org/1999/xlink">
<g id="graph0" class="graph" transform="scale(1 1) rotate(0) translate(4 423.9)">
<title>G</title>
<polygon fill="white" stroke="transparent" points="-4,4 -4,-423.9 632,-423.9 632,4 -4,4"/>
<text text-anchor="middle" x="314" y="-403.1" font-family="Times,serif" font-size="16.00">model=model4/varlingam_mixed.json [machine 9]</text>
<!-- volt -->
<g id="node1" class="node">
<title>volt</title>
<path fill="white" stroke="black" d="M64,-36C64,-36 34,-36 34,-36 28,-36 22,-30 22,-24 22,-24 22,-12 22,-12 22,-6 28,0 34,0 34,0 64,0 64,0 70,0 76,-6 76,-12 76,-12 76,-24 76,-24 76,-30 70,-36 64,-36"/>
<text text-anchor="middle" x="49" y="-14.3" font-family="Helvetica,sans-Serif" font-size="14.00">volt</text>
</g>
<!-- rotate -->
<g id="node2" class="node">
<title>rotate</title>
<path fill="white" stroke="black" d="M196.5,-144C196.5,-144 163.5,-144 163.5,-144 157.5,-144 151.5,-138 151.5,-132 151.5,-132 151.5,-120 151.5,-120 151.5,-114 157.5,-108 163.5,-108 163.5,-108 196.5,-108 196.5,-108 202.5,-108 208.5,-114 208.5,-120 208.5,-120 208.5,-132 208.5,-132 208.5,-138 202.5,-144 196.5,-144"/>
<text text-anchor="middle" x="180" y="-122.3" font-family="Helvetica,sans-Serif" font-size="14.00">rotate</text>
</g>
<!-- pressure -->
<g id="node3" class="node">
<title>pressure</title>
<path fill="white" stroke="black" d="M75.5,-149C75.5,-149 22.5,-149 22.5,-149 16.5,-149 10.5,-143 10.5,-137 10.5,-137 10.5,-125 10.5,-125 10.5,-119 16.5,-113 22.5,-113 22.5,-113 75.5,-113 75.5,-113 81.5,-113 87.5,-119 87.5,-125 87.5,-125 87.5,-137 87.5,-137 87.5,-143 81.5,-149 75.5,-149"/>
<text text-anchor="middle" x="49" y="-127.3" font-family="Helvetica,sans-Serif" font-size="14.00">pressure</text>
</g>
<!-- vibration -->
<g id="node4" class="node">
<title>vibration</title>
<path fill="white" stroke="black" d="M76,-212C76,-212 22,-212 22,-212 16,-212 10,-206 10,-200 10,-200 10,-188 10,-188 10,-182 16,-176 22,-176 22,-176 76,-176 76,-176 82,-176 88,-182 88,-188 88,-188 88,-200 88,-200 88,-206 82,-212 76,-212"/>
<text text-anchor="middle" x="49" y="-190.3" font-family="Helvetica,sans-Serif" font-size="14.00">vibration</text>
</g>
<!-- err_error1 -->
<g id="node5" class="node">
<title>err_error1</title>
<path fill="white" stroke="black" d="M475.5,-390C475.5,-390 414.5,-390 414.5,-390 408.5,-390 402.5,-384 402.5,-378 402.5,-378 402.5,-366 402.5,-366 402.5,-360 408.5,-354 414.5,-354 414.5,-354 475.5,-354 475.5,-354 481.5,-354 487.5,-360 487.5,-366 487.5,-366 487.5,-378 487.5,-378 487.5,-384 481.5,-390 475.5,-390"/>
<text text-anchor="middle" x="445" y="-368.3" font-family="Helvetica,sans-Serif" font-size="14.00">err_error1</text>
</g>
<!-- mnt_comp4 -->
<g id="node13" class="node">
<title>mnt_comp4</title>
<path fill="white" stroke="black" d="M616,-290C616,-290 542,-290 542,-290 536,-290 530,-284 530,-278 530,-278 530,-266 530,-266 530,-260 536,-254 542,-254 542,-254 616,-254 616,-254 622,-254 628,-260 628,-266 628,-266 628,-278 628,-278 628,-284 622,-290 616,-290"/>
<text text-anchor="middle" x="579" y="-268.3" font-family="Helvetica,sans-Serif" font-size="14.00">mnt_comp4</text>
</g>
<!-- err_error1&#45;&gt;mnt_comp4 -->
<g id="edge2" class="edge">
<title>err_error1&#45;&gt;mnt_comp4</title>
<path fill="none" stroke="black" stroke-width="1.2" d="M480.1,-353.96C484.86,-351.11 489.62,-348.08 494,-345 514.49,-330.56 535.79,-312 551.82,-297.21"/>
<polygon fill="black" stroke="black" stroke-width="1.2" points="554.31,-299.67 559.23,-290.29 549.54,-294.55 554.31,-299.67"/>
</g>
<!-- err_error2 -->
<g id="node6" class="node">
<title>err_error2</title>
<path fill="white" stroke="black" d="M79.5,-90C79.5,-90 18.5,-90 18.5,-90 12.5,-90 6.5,-84 6.5,-78 6.5,-78 6.5,-66 6.5,-66 6.5,-60 12.5,-54 18.5,-54 18.5,-54 79.5,-54 79.5,-54 85.5,-54 91.5,-60 91.5,-66 91.5,-66 91.5,-78 91.5,-78 91.5,-84 85.5,-90 79.5,-90"/>
<text text-anchor="middle" x="49" y="-68.3" font-family="Helvetica,sans-Serif" font-size="14.00">err_error2</text>
</g>
<!-- err_error2&#45;&gt;rotate -->
<g id="edge1" class="edge">
<title>err_error2&#45;&gt;rotate</title>
<path fill="none" stroke="black" stroke-width="1.2" d="M91.53,-89.38C107.75,-96.17 126.21,-103.9 141.97,-110.5"/>
<polygon fill="black" stroke="black" stroke-width="1.2" points="140.82,-113.81 151.39,-114.44 143.52,-107.35 140.82,-113.81"/>
</g>
<!-- err_error3 -->
<g id="node7" class="node">
<title>err_error3</title>
<path fill="white" stroke="black" d="M210.5,-90C210.5,-90 149.5,-90 149.5,-90 143.5,-90 137.5,-84 137.5,-78 137.5,-78 137.5,-66 137.5,-66 137.5,-60 143.5,-54 149.5,-54 149.5,-54 210.5,-54 210.5,-54 216.5,-54 222.5,-60 222.5,-66 222.5,-66 222.5,-78 222.5,-78 222.5,-84 216.5,-90 210.5,-90"/>
<text text-anchor="middle" x="180" y="-68.3" font-family="Helvetica,sans-Serif" font-size="14.00">err_error3</text>
</g>
<!-- err_error2&#45;&gt;err_error3 -->
<g id="edge3" class="edge">
<title>err_error2&#45;&gt;err_error3</title>
<path fill="none" stroke="black" stroke-width="1.2" d="M91.53,-72C102.81,-72 115.16,-72 126.95,-72"/>
<polygon fill="black" stroke="black" stroke-width="1.2" points="127.11,-75.5 137.11,-72 127.11,-68.5 127.11,-75.5"/>
</g>
<!-- err_error4 -->
<g id="node8" class="node">
<title>err_error4</title>
<path fill="white" stroke="black" d="M341.5,-67C341.5,-67 280.5,-67 280.5,-67 274.5,-67 268.5,-61 268.5,-55 268.5,-55 268.5,-43 268.5,-43 268.5,-37 274.5,-31 280.5,-31 280.5,-31 341.5,-31 341.5,-31 347.5,-31 353.5,-37 353.5,-43 353.5,-43 353.5,-55 353.5,-55 353.5,-61 347.5,-67 341.5,-67"/>
<text text-anchor="middle" x="311" y="-45.3" font-family="Helvetica,sans-Serif" font-size="14.00">err_error4</text>
</g>
<!-- err_error2&#45;&gt;err_error4 -->
<g id="edge4" class="edge">
<title>err_error2&#45;&gt;err_error4</title>
<path fill="none" stroke="black" stroke-width="1.2" d="M91.68,-55.78C104.99,-51.37 119.93,-47.21 134,-45 175.5,-38.49 223.16,-40.13 258.42,-43.03"/>
<polygon fill="black" stroke="black" stroke-width="1.2" points="258.2,-46.53 268.47,-43.93 258.82,-39.56 258.2,-46.53"/>
</g>
<!-- err_error3&#45;&gt;err_error4 -->
<g id="edge5" class="edge">
<title>err_error3&#45;&gt;err_error4</title>
<path fill="none" stroke="black" stroke-width="1.2" d="M222.53,-64.6C233.81,-62.58 246.16,-60.38 257.95,-58.28"/>
<polygon fill="black" stroke="black" stroke-width="1.2" points="258.88,-61.67 268.11,-56.47 257.65,-54.78 258.88,-61.67"/>
</g>
<!-- err_error5 -->
<g id="node9" class="node">
<title>err_error5</title>
<path fill="white" stroke="black" d="M79.5,-339C79.5,-339 18.5,-339 18.5,-339 12.5,-339 6.5,-333 6.5,-327 6.5,-327 6.5,-315 6.5,-315 6.5,-309 12.5,-303 18.5,-303 18.5,-303 79.5,-303 79.5,-303 85.5,-303 91.5,-309 91.5,-315 91.5,-315 91.5,-327 91.5,-327 91.5,-333 85.5,-339 79.5,-339"/>
<text text-anchor="middle" x="49" y="-317.3" font-family="Helvetica,sans-Serif" font-size="14.00">err_error5</text>
</g>
<!-- mnt_comp1 -->
<g id="node10" class="node">
<title>mnt_comp1</title>
<path fill="white" stroke="black" d="M348,-374C348,-374 274,-374 274,-374 268,-374 262,-368 262,-362 262,-362 262,-350 262,-350 262,-344 268,-338 274,-338 274,-338 348,-338 348,-338 354,-338 360,-344 360,-350 360,-350 360,-362 360,-362 360,-368 354,-374 348,-374"/>
<text text-anchor="middle" x="311" y="-352.3" font-family="Helvetica,sans-Serif" font-size="14.00">mnt_comp1</text>
</g>
<!-- mnt_comp2 -->
<g id="node11" class="node">
<title>mnt_comp2</title>
<path fill="white" stroke="black" d="M482,-336C482,-336 408,-336 408,-336 402,-336 396,-330 396,-324 396,-324 396,-312 396,-312 396,-306 402,-300 408,-300 408,-300 482,-300 482,-300 488,-300 494,-306 494,-312 494,-312 494,-324 494,-324 494,-330 488,-336 482,-336"/>
<text text-anchor="middle" x="445" y="-314.3" font-family="Helvetica,sans-Serif" font-size="14.00">mnt_comp2</text>
</g>
<!-- mnt_comp1&#45;&gt;mnt_comp2 -->
<g id="edge6" class="edge">
<title>mnt_comp1&#45;&gt;mnt_comp2</title>
<path fill="none" stroke="black" stroke-width="1.2" d="M360.03,-342.17C368.49,-339.74 377.38,-337.18 386.08,-334.67"/>
<polygon fill="black" stroke="black" stroke-width="1.2" points="387.14,-338.01 395.79,-331.88 385.21,-331.28 387.14,-338.01"/>
</g>
<!-- mnt_comp2&#45;&gt;mnt_comp4 -->
<g id="edge9" class="edge">
<title>mnt_comp2&#45;&gt;mnt_comp4</title>
<path fill="none" stroke="black" stroke-width="1.2" d="M494.03,-301.26C502.49,-298.31 511.38,-295.22 520.08,-292.18"/>
<polygon fill="black" stroke="black" stroke-width="1.2" points="521.49,-295.4 529.79,-288.8 519.19,-288.79 521.49,-295.4"/>
</g>
<!-- mnt_comp3 -->
<g id="node12" class="node">
<title>mnt_comp3</title>
<path fill="white" stroke="black" d="M86,-285C86,-285 12,-285 12,-285 6,-285 0,-279 0,-273 0,-273 0,-261 0,-261 0,-255 6,-249 12,-249 12,-249 86,-249 86,-249 92,-249 98,-255 98,-261 98,-261 98,-273 98,-273 98,-279 92,-285 86,-285"/>
<text text-anchor="middle" x="49" y="-263.3" font-family="Helvetica,sans-Serif" font-size="14.00">mnt_comp3</text>
</g>
<!-- mnt_comp3&#45;&gt;mnt_comp2 -->
<g id="edge8" class="edge">
<title>mnt_comp3&#45;&gt;mnt_comp2</title>
<path fill="none" stroke="black" stroke-width="1.2" d="M82.67,-285.14C140.92,-317.46 257.14,-381.76 262,-383 304.2,-393.79 319.99,-400.21 360,-383 381.37,-373.81 377.66,-359.31 396,-345 397.37,-343.93 398.79,-342.87 400.25,-341.84"/>
<polygon fill="black" stroke="black" stroke-width="1.2" points="402.46,-344.57 408.86,-336.13 398.59,-338.74 402.46,-344.57"/>
</g>
<!-- mnt_comp3&#45;&gt;mnt_comp4 -->
<g id="edge12" class="edge">
<title>mnt_comp3&#45;&gt;mnt_comp4</title>
<path fill="none" stroke="black" stroke-width="1.2" d="M84.47,-248.99C99.4,-241.71 117.26,-233.71 134,-228 229.85,-195.31 259.65,-185.4 360,-199 420.3,-207.17 486.1,-231.5 529.46,-249.85"/>
<polygon fill="black" stroke="black" stroke-width="1.2" points="528.33,-253.17 538.9,-253.9 531.09,-246.74 528.33,-253.17"/>
</g>
<!-- fail_comp1 -->
<g id="node14" class="node">
<title>fail_comp1</title>
<path fill="white" stroke="black" d="M214,-290C214,-290 146,-290 146,-290 140,-290 134,-284 134,-278 134,-278 134,-266 134,-266 134,-260 140,-254 146,-254 146,-254 214,-254 214,-254 220,-254 226,-260 226,-266 226,-266 226,-278 226,-278 226,-284 220,-290 214,-290"/>
<text text-anchor="middle" x="180" y="-268.3" font-family="Helvetica,sans-Serif" font-size="14.00">fail_comp1</text>
</g>
<!-- mnt_comp3&#45;&gt;fail_comp1 -->
<g id="edge13" class="edge">
<title>mnt_comp3&#45;&gt;fail_comp1</title>
<path fill="none" stroke="black" stroke-width="1.2" d="M98.03,-268.86C106.39,-269.19 115.13,-269.52 123.66,-269.86"/>
<polygon fill="black" stroke="black" stroke-width="1.2" points="123.79,-273.36 133.92,-270.25 124.06,-266.37 123.79,-273.36"/>
</g>
<!-- fail_comp2 -->
<g id="node15" class="node">
<title>fail_comp2</title>
<path fill="white" stroke="black" d="M345,-244C345,-244 277,-244 277,-244 271,-244 265,-238 265,-232 265,-232 265,-220 265,-220 265,-214 271,-208 277,-208 277,-208 345,-208 345,-208 351,-208 357,-214 357,-220 357,-220 357,-232 357,-232 357,-238 351,-244 345,-244"/>
<text text-anchor="middle" x="311" y="-222.3" font-family="Helvetica,sans-Serif" font-size="14.00">fail_comp2</text>
</g>
<!-- mnt_comp3&#45;&gt;fail_comp2 -->
<g id="edge14" class="edge">
<title>mnt_comp3&#45;&gt;fail_comp2</title>
<path fill="none" stroke="black" stroke-width="1.2" d="M98.14,-253.08C109.8,-250.07 122.29,-247.15 134,-245 174.17,-237.61 220.05,-232.78 254.9,-229.83"/>
<polygon fill="black" stroke="black" stroke-width="1.2" points="255.2,-233.32 264.88,-229.01 254.63,-226.34 255.2,-233.32"/>
</g>
<!-- fail_comp1&#45;&gt;mnt_comp1 -->
<g id="edge7" class="edge">
<title>fail_comp1&#45;&gt;mnt_comp1</title>
<path fill="none" stroke="black" stroke-width="1.2" d="M208.67,-290.02C227.59,-302.34 252.86,-318.79 273.43,-332.19"/>
<polygon fill="black" stroke="black" stroke-width="1.2" points="271.64,-335.2 281.93,-337.72 275.46,-329.33 271.64,-335.2"/>
</g>
<!-- fail_comp1&#45;&gt;mnt_comp2 -->
<g id="edge10" class="edge">
<title>fail_comp1&#45;&gt;mnt_comp2</title>
<path fill="none" stroke="black" stroke-width="1.2" d="M226.21,-279.91C270.36,-287.63 337.75,-299.42 385.86,-307.83"/>
<polygon fill="black" stroke="black" stroke-width="1.2" points="385.37,-311.3 395.82,-309.57 386.57,-304.4 385.37,-311.3"/>
</g>
<!-- fail_comp1&#45;&gt;mnt_comp4 -->
<g id="edge15" class="edge">
<title>fail_comp1&#45;&gt;mnt_comp4</title>
<path fill="none" stroke="black" stroke-width="1.2" d="M226.15,-272C298.31,-272 439.6,-272 519.43,-272"/>
<polygon fill="black" stroke="black" stroke-width="1.2" points="519.8,-275.5 529.8,-272 519.8,-268.5 519.8,-275.5"/>
</g>
<!-- fail_comp1&#45;&gt;fail_comp2 -->
<g id="edge17" class="edge">
<title>fail_comp1&#45;&gt;fail_comp2</title>
<path fill="none" stroke="black" stroke-width="1.2" d="M226.12,-255.91C235.49,-252.57 245.47,-249.01 255.14,-245.56"/>
<polygon fill="black" stroke="black" stroke-width="1.2" points="256.45,-248.81 264.69,-242.16 254.09,-242.22 256.45,-248.81"/>
</g>
<!-- fail_comp2&#45;&gt;mnt_comp2 -->
<g id="edge11" class="edge">
<title>fail_comp2&#45;&gt;mnt_comp2</title>
<path fill="none" stroke="black" stroke-width="1.2" d="M338.08,-244.18C358.6,-258.48 387.37,-278.53 409.74,-294.12"/>
<polygon fill="black" stroke="black" stroke-width="1.2" points="407.77,-297.01 417.98,-299.86 411.77,-291.27 407.77,-297.01"/>
</g>
<!-- fail_comp2&#45;&gt;mnt_comp4 -->
<g id="edge16" class="edge">
<title>fail_comp2&#45;&gt;mnt_comp4</title>
<path fill="none" stroke="black" stroke-width="1.2" d="M357.12,-233.8C401.96,-241.56 470.91,-253.48 519.83,-261.94"/>
<polygon fill="black" stroke="black" stroke-width="1.2" points="519.5,-265.44 529.95,-263.69 520.7,-258.54 519.5,-265.44"/>
</g>
</g>
</svg>
