<?xml version="1.0" encoding="UTF-8" standalone="no"?>
<!DOCTYPE svg PUBLIC "-//W3C//DTD SVG 1.1//EN"
 "http://www.w3.org/Graphics/SVG/1.1/DTD/svg11.dtd">
<!-- Generated by graphviz version 2.50.0 (0)
 -->
<!-- Title: G Pages: 1 -->
<svg width="475pt" height="124pt"
 viewBox="0.00 0.00 475.00 124.00" xmlns="http://www.w3.org/2000/svg" xmlns:xlink="http://www.w3.org/1999/xlink">
<g id="graph0" class="graph" transform="scale(1 1) rotate(0) translate(4 120)">
<title>G</title>
<polygon fill="white" stroke="transparent" points="-4,4 -4,-120 471,-120 471,4 -4,4"/>
<text text-anchor="middle" x="233.5" y="-99.2" font-family="Times,serif" font-size="16.00">model=model3/varlingam_telemetry.json [machine 82]</text>
<!-- volt -->
<g id="node1" class="node">
<title>volt</title>
<path fill="white" stroke="black" d="M192,-90C192,-90 162,-90 162,-90 156,-90 150,-84 150,-78 150,-78 150,-66 150,-66 150,-60 156,-54 162,-54 162,-54 192,-54 192,-54 198,-54 204,-60 204,-66 204,-66 204,-78 204,-78 204,-84 198,-90 192,-90"/>
<text text-anchor="middle" x="177" y="-68.3" font-family="Helvetica,sans-Serif" font-size="14.00">volt</text>
</g>
<!-- rotate -->
<g id="node2" class="node">
<title>rotate</title>
<path fill="white" stroke="black" d="M307,-90C307,-90 274,-90 274,-90 268,-90 262,-84 262,-78 262,-78 262,-66 262,-66 262,-60 268,-54 274,-54 274,-54 307,-54 307,-54 313,-54 319,-60 319,-66 319,-66 319,-78 319,-78 319,-84 313,-90 307,-90"/>
<text text-anchor="middle" x="290.5" y="-68.3" font-family="Helvetica,sans-Serif" font-size="14.00">rotate</text>
</g>
<!-- volt&#45;&gt;rotate -->
<g id="edge1" class="edge">
<title>volt&#45;&gt;rotate</title>
<path fill="none" stroke="black" stroke-width="1.2" d="M204.14,-72C218.26,-72 235.95,-72 251.56,-72"/>
<polygon fill="black" stroke="black" stroke-width="1.2" points="251.97,-75.5 261.97,-72 251.97,-68.5 251.97,-75.5"/>
</g>
<!-- pressure -->
<g id="node3" class="node">
<title>pressure</title>
<path fill="white" stroke="black" d="M317,-36C317,-36 264,-36 264,-36 258,-36 252,-30 252,-24 252,-24 252,-12 252,-12 252,-6 258,0 264,0 264,0 317,0 317,0 323,0 329,-6 329,-12 329,-12 329,-24 329,-24 329,-30 323,-36 317,-36"/>
<text text-anchor="middle" x="290.5" y="-14.3" font-family="Helvetica,sans-Serif" font-size="14.00">pressure</text>
</g>
<!-- volt&#45;&gt;pressure -->
<g id="edge2" class="edge">
<title>volt&#45;&gt;pressure</title>
<path fill="none" stroke="black" stroke-width="1.2" d="M204.14,-59.34C215.75,-53.72 229.78,-46.92 243.07,-40.49"/>
<polygon fill="black" stroke="black" stroke-width="1.2" points="244.65,-43.61 252.12,-36.1 241.6,-37.31 244.65,-43.61"/>
</g>
<!-- vibration -->
<g id="node4" class="node">
<title>vibration</title>
<path fill="white" stroke="black" d="M204,-36C204,-36 150,-36 150,-36 144,-36 138,-30 138,-24 138,-24 138,-12 138,-12 138,-6 144,0 150,0 150,0 204,0 204,0 210,0 216,-6 216,-12 216,-12 216,-24 216,-24 216,-30 210,-36 204,-36"/>
<text text-anchor="middle" x="177" y="-14.3" font-family="Helvetica,sans-Serif" font-size="14.00">vibration</text>
</g>
<!-- vibration&#45;&gt;pressure -->
<g id="edge3" class="edge">
<title>vibration&#45;&gt;pressure</title>
<path fill="none" stroke="black" stroke-width="1.2" d="M216.06,-18C224.31,-18 233.14,-18 241.72,-18"/>
<polygon fill="black" stroke="black" stroke-width="1.2" points="241.99,-21.5 251.99,-18 241.99,-14.5 241.99,-21.5"/>
</g>
</g>
</svg>
