<?xml version="1.0" encoding="UTF-8" standalone="no"?>
<!DOCTYPE svg PUBLIC "-//W3C//DTD SVG 1.1//EN"
 "http://www.w3.org/Graphics/SVG/1.1/DTD/svg11.dtd">
<!-- Generated by graphviz version 2.50.0 (0)
 -->
<!-- Title: G Pages: 1 -->
<svg width="764pt" height="447pt"
 viewBox="0.00 0.00 764.00 447.00" xmlns="http://www.w3.org/2000/svg" xmlns:xlink="http://www.w3.org/1999/xlink">
<g id="graph0" class="graph" transform="scale(1 1) rotate(0) translate(4 443)">
<title>G</title>
<polygon fill="white" stroke="transparent" points="-4,4 -4,-443 760,-443 760,4 -4,4"/>
<text text-anchor="middle" x="378" y="-422.2" font-family="Times,serif" font-size="16.00">model=model3/varlingam_mixed.json [machine 7]</text>
<!-- volt -->
<g id="node1" class="node">
<title>volt</title>
<path fill="white" stroke="black" d="M454,-411C454,-411 424,-411 424,-411 418,-411 412,-405 412,-399 412,-399 412,-387 412,-387 412,-381 418,-375 424,-375 424,-375 454,-375 454,-375 460,-375 466,-381 466,-387 466,-387 466,-399 466,-399 466,-405 460,-411 454,-411"/>
<text text-anchor="middle" x="439" y="-389.3" font-family="Helvetica,sans-Serif" font-size="14.00">volt</text>
</g>
<!-- rotate -->
<g id="node2" class="node">
<title>rotate</title>
<path fill="white" stroke="black" d="M62.5,-251C62.5,-251 29.5,-251 29.5,-251 23.5,-251 17.5,-245 17.5,-239 17.5,-239 17.5,-227 17.5,-227 17.5,-221 23.5,-215 29.5,-215 29.5,-215 62.5,-215 62.5,-215 68.5,-215 74.5,-221 74.5,-227 74.5,-227 74.5,-239 74.5,-239 74.5,-245 68.5,-251 62.5,-251"/>
<text text-anchor="middle" x="46" y="-229.3" font-family="Helvetica,sans-Serif" font-size="14.00">rotate</text>
</g>
<!-- pressure -->
<g id="node3" class="node">
<title>pressure</title>
<path fill="white" stroke="black" d="M72.5,-305C72.5,-305 19.5,-305 19.5,-305 13.5,-305 7.5,-299 7.5,-293 7.5,-293 7.5,-281 7.5,-281 7.5,-275 13.5,-269 19.5,-269 19.5,-269 72.5,-269 72.5,-269 78.5,-269 84.5,-275 84.5,-281 84.5,-281 84.5,-293 84.5,-293 84.5,-299 78.5,-305 72.5,-305"/>
<text text-anchor="middle" x="46" y="-283.3" font-family="Helvetica,sans-Serif" font-size="14.00">pressure</text>
</g>
<!-- vibration -->
<g id="node4" class="node">
<title>vibration</title>
<path fill="white" stroke="black" d="M204,-113C204,-113 150,-113 150,-113 144,-113 138,-107 138,-101 138,-101 138,-89 138,-89 138,-83 144,-77 150,-77 150,-77 204,-77 204,-77 210,-77 216,-83 216,-89 216,-89 216,-101 216,-101 216,-107 210,-113 204,-113"/>
<text text-anchor="middle" x="177" y="-91.3" font-family="Helvetica,sans-Serif" font-size="14.00">vibration</text>
</g>
<!-- err_error1 -->
<g id="node5" class="node">
<title>err_error1</title>
<path fill="white" stroke="black" d="M76.5,-359C76.5,-359 15.5,-359 15.5,-359 9.5,-359 3.5,-353 3.5,-347 3.5,-347 3.5,-335 3.5,-335 3.5,-329 9.5,-323 15.5,-323 15.5,-323 76.5,-323 76.5,-323 82.5,-323 88.5,-329 88.5,-335 88.5,-335 88.5,-347 88.5,-347 88.5,-353 82.5,-359 76.5,-359"/>
<text text-anchor="middle" x="46" y="-337.3" font-family="Helvetica,sans-Serif" font-size="14.00">err_error1</text>
</g>
<!-- err_error2 -->
<g id="node6" class="node">
<title>err_error2</title>
<path fill="white" stroke="black" d="M338.5,-36C338.5,-36 277.5,-36 277.5,-36 271.5,-36 265.5,-30 265.5,-24 265.5,-24 265.5,-12 265.5,-12 265.5,-6 271.5,0 277.5,0 277.5,0 338.5,0 338.5,0 344.5,0 350.5,-6 350.5,-12 350.5,-12 350.5,-24 350.5,-24 350.5,-30 344.5,-36 338.5,-36"/>
<text text-anchor="middle" x="308" y="-14.3" font-family="Helvetica,sans-Serif" font-size="14.00">err_error2</text>
</g>
<!-- err_error3 -->
<g id="node7" class="node">
<title>err_error3</title>
<path fill="white" stroke="black" d="M207.5,-59C207.5,-59 146.5,-59 146.5,-59 140.5,-59 134.5,-53 134.5,-47 134.5,-47 134.5,-35 134.5,-35 134.5,-29 140.5,-23 146.5,-23 146.5,-23 207.5,-23 207.5,-23 213.5,-23 219.5,-29 219.5,-35 219.5,-35 219.5,-47 219.5,-47 219.5,-53 213.5,-59 207.5,-59"/>
<text text-anchor="middle" x="177" y="-37.3" font-family="Helvetica,sans-Serif" font-size="14.00">err_error3</text>
</g>
<!-- err_error3&#45;&gt;err_error2 -->
<g id="edge4" class="edge">
<title>err_error3&#45;&gt;err_error2</title>
<path fill="none" stroke="black" stroke-width="1.2" d="M219.53,-33.6C230.81,-31.58 243.16,-29.38 254.95,-27.28"/>
<polygon fill="black" stroke="black" stroke-width="1.2" points="255.88,-30.67 265.11,-25.47 254.65,-23.78 255.88,-30.67"/>
</g>
<!-- err_error4 -->
<g id="node8" class="node">
<title>err_error4</title>
<path fill="white" stroke="black" d="M76.5,-413C76.5,-413 15.5,-413 15.5,-413 9.5,-413 3.5,-407 3.5,-401 3.5,-401 3.5,-389 3.5,-389 3.5,-383 9.5,-377 15.5,-377 15.5,-377 76.5,-377 76.5,-377 82.5,-377 88.5,-383 88.5,-389 88.5,-389 88.5,-401 88.5,-401 88.5,-407 82.5,-413 76.5,-413"/>
<text text-anchor="middle" x="46" y="-391.3" font-family="Helvetica,sans-Serif" font-size="14.00">err_error4</text>
</g>
<!-- err_error5 -->
<g id="node9" class="node">
<title>err_error5</title>
<path fill="white" stroke="black" d="M76.5,-59C76.5,-59 15.5,-59 15.5,-59 9.5,-59 3.5,-53 3.5,-47 3.5,-47 3.5,-35 3.5,-35 3.5,-29 9.5,-23 15.5,-23 15.5,-23 76.5,-23 76.5,-23 82.5,-23 88.5,-29 88.5,-35 88.5,-35 88.5,-47 88.5,-47 88.5,-53 82.5,-59 76.5,-59"/>
<text text-anchor="middle" x="46" y="-37.3" font-family="Helvetica,sans-Serif" font-size="14.00">err_error5</text>
</g>
<!-- err_error5&#45;&gt;vibration -->
<g id="edge2" class="edge">
<title>err_error5&#45;&gt;vibration</title>
<path fill="none" stroke="black" stroke-width="1.2" d="M88.53,-58.38C101.21,-63.69 115.26,-69.57 128.31,-75.04"/>
<polygon fill="black" stroke="black" stroke-width="1.2" points="127.04,-78.3 137.62,-78.93 129.74,-71.84 127.04,-78.3"/>
</g>
<!-- err_error5&#45;&gt;err_error2 -->
<g id="edge5" class="edge">
<title>err_error5&#45;&gt;err_error2</title>
<path fill="none" stroke="black" stroke-width="1.2" d="M88.81,-24.22C101.22,-20.02 114.98,-16.11 128,-14 170.45,-7.11 219.29,-8.84 255.22,-11.88"/>
<polygon fill="black" stroke="black" stroke-width="1.2" points="255.19,-15.39 265.47,-12.81 255.83,-8.42 255.19,-15.39"/>
</g>
<!-- err_error5&#45;&gt;err_error3 -->
<g id="edge6" class="edge">
<title>err_error5&#45;&gt;err_error3</title>
<path fill="none" stroke="black" stroke-width="1.2" d="M88.53,-41C99.81,-41 112.16,-41 123.95,-41"/>
<polygon fill="black" stroke="black" stroke-width="1.2" points="124.11,-44.5 134.11,-41 124.11,-37.5 124.11,-44.5"/>
</g>
<!-- mnt_comp1 -->
<g id="node10" class="node">
<title>mnt_comp1</title>
<path fill="white" stroke="black" d="M476,-357C476,-357 402,-357 402,-357 396,-357 390,-351 390,-345 390,-345 390,-333 390,-333 390,-327 396,-321 402,-321 402,-321 476,-321 476,-321 482,-321 488,-327 488,-333 488,-333 488,-345 488,-345 488,-351 482,-357 476,-357"/>
<text text-anchor="middle" x="439" y="-335.3" font-family="Helvetica,sans-Serif" font-size="14.00">mnt_comp1</text>
</g>
<!-- mnt_comp2 -->
<g id="node11" class="node">
<title>mnt_comp2</title>
<path fill="white" stroke="black" d="M744,-269C744,-269 670,-269 670,-269 664,-269 658,-263 658,-257 658,-257 658,-245 658,-245 658,-239 664,-233 670,-233 670,-233 744,-233 744,-233 750,-233 756,-239 756,-245 756,-245 756,-257 756,-257 756,-263 750,-269 744,-269"/>
<text text-anchor="middle" x="707" y="-247.3" font-family="Helvetica,sans-Serif" font-size="14.00">mnt_comp2</text>
</g>
<!-- mnt_comp1&#45;&gt;mnt_comp2 -->
<g id="edge7" class="edge">
<title>mnt_comp1&#45;&gt;mnt_comp2</title>
<path fill="none" stroke="black" stroke-width="1.2" d="M488.3,-343.03C526.15,-344.33 579.34,-341.98 622,-324 646.48,-313.68 668.9,-293.39 684.4,-276.81"/>
<polygon fill="black" stroke="black" stroke-width="1.2" points="687.33,-278.8 691.44,-269.03 682.14,-274.1 687.33,-278.8"/>
</g>
<!-- mnt_comp3 -->
<g id="node12" class="node">
<title>mnt_comp3</title>
<path fill="white" stroke="black" d="M610,-315C610,-315 536,-315 536,-315 530,-315 524,-309 524,-303 524,-303 524,-291 524,-291 524,-285 530,-279 536,-279 536,-279 610,-279 610,-279 616,-279 622,-285 622,-291 622,-291 622,-303 622,-303 622,-309 616,-315 610,-315"/>
<text text-anchor="middle" x="573" y="-293.3" font-family="Helvetica,sans-Serif" font-size="14.00">mnt_comp3</text>
</g>
<!-- mnt_comp1&#45;&gt;mnt_comp3 -->
<g id="edge8" class="edge">
<title>mnt_comp1&#45;&gt;mnt_comp3</title>
<path fill="none" stroke="black" stroke-width="1.2" d="M488.03,-323.72C496.49,-321.03 505.38,-318.2 514.08,-315.43"/>
<polygon fill="black" stroke="black" stroke-width="1.2" points="515.32,-318.71 523.79,-312.34 513.2,-312.04 515.32,-318.71"/>
</g>
<!-- mnt_comp3&#45;&gt;mnt_comp2 -->
<g id="edge13" class="edge">
<title>mnt_comp3&#45;&gt;mnt_comp2</title>
<path fill="none" stroke="black" stroke-width="1.2" d="M622.03,-280.26C630.49,-277.31 639.38,-274.22 648.08,-271.18"/>
<polygon fill="black" stroke="black" stroke-width="1.2" points="649.49,-274.4 657.79,-267.8 647.19,-267.79 649.49,-274.4"/>
</g>
<!-- mnt_comp4 -->
<g id="node13" class="node">
<title>mnt_comp4</title>
<path fill="white" stroke="black" d="M214,-235C214,-235 140,-235 140,-235 134,-235 128,-229 128,-223 128,-223 128,-211 128,-211 128,-205 134,-199 140,-199 140,-199 214,-199 214,-199 220,-199 226,-205 226,-211 226,-211 226,-223 226,-223 226,-229 220,-235 214,-235"/>
<text text-anchor="middle" x="177" y="-213.3" font-family="Helvetica,sans-Serif" font-size="14.00">mnt_comp4</text>
</g>
<!-- mnt_comp4&#45;&gt;mnt_comp1 -->
<g id="edge9" class="edge">
<title>mnt_comp4&#45;&gt;mnt_comp1</title>
<path fill="none" stroke="black" stroke-width="1.2" d="M194.29,-235.18C210.07,-251.74 235.46,-275.72 262,-290 298.74,-309.76 344.18,-322.15 379.69,-329.53"/>
<polygon fill="black" stroke="black" stroke-width="1.2" points="379.4,-333.04 389.89,-331.57 380.77,-326.17 379.4,-333.04"/>
</g>
<!-- mnt_comp4&#45;&gt;mnt_comp2 -->
<g id="edge14" class="edge">
<title>mnt_comp4&#45;&gt;mnt_comp2</title>
<path fill="none" stroke="black" stroke-width="1.2" d="M226.21,-216.9C261.6,-217.06 310.82,-217.73 354,-220 457.58,-225.44 577.88,-237.21 647.63,-244.58"/>
<polygon fill="black" stroke="black" stroke-width="1.2" points="647.65,-248.11 657.96,-245.68 648.39,-241.15 647.65,-248.11"/>
</g>
<!-- mnt_comp4&#45;&gt;mnt_comp3 -->
<g id="edge17" class="edge">
<title>mnt_comp4&#45;&gt;mnt_comp3</title>
<path fill="none" stroke="black" stroke-width="1.2" d="M226.05,-220.44C261.57,-223.41 311.02,-228.42 354,-236 414.4,-246.65 429.08,-251.96 488,-269 496.48,-271.45 505.37,-274.21 514.08,-277.02"/>
<polygon fill="black" stroke="black" stroke-width="1.2" points="513.2,-280.41 523.79,-280.19 515.37,-273.76 513.2,-280.41"/>
</g>
<!-- fail_comp2 -->
<g id="node15" class="node">
<title>fail_comp2</title>
<path fill="white" stroke="black" d="M342,-281C342,-281 274,-281 274,-281 268,-281 262,-275 262,-269 262,-269 262,-257 262,-257 262,-251 268,-245 274,-245 274,-245 342,-245 342,-245 348,-245 354,-251 354,-257 354,-257 354,-269 354,-269 354,-275 348,-281 342,-281"/>
<text text-anchor="middle" x="308" y="-259.3" font-family="Helvetica,sans-Serif" font-size="14.00">fail_comp2</text>
</g>
<!-- mnt_comp4&#45;&gt;fail_comp2 -->
<g id="edge19" class="edge">
<title>mnt_comp4&#45;&gt;fail_comp2</title>
<path fill="none" stroke="black" stroke-width="1.2" d="M226.03,-234.13C234.57,-237.17 243.52,-240.36 252.22,-243.47"/>
<polygon fill="black" stroke="black" stroke-width="1.2" points="251.32,-246.86 261.92,-246.92 253.67,-240.27 251.32,-246.86"/>
</g>
<!-- fail_comp1 -->
<g id="node14" class="node">
<title>fail_comp1</title>
<path fill="white" stroke="black" d="M342,-411C342,-411 274,-411 274,-411 268,-411 262,-405 262,-399 262,-399 262,-387 262,-387 262,-381 268,-375 274,-375 274,-375 342,-375 342,-375 348,-375 354,-381 354,-387 354,-387 354,-399 354,-399 354,-405 348,-411 342,-411"/>
<text text-anchor="middle" x="308" y="-389.3" font-family="Helvetica,sans-Serif" font-size="14.00">fail_comp1</text>
</g>
<!-- fail_comp1&#45;&gt;volt -->
<g id="edge1" class="edge">
<title>fail_comp1&#45;&gt;volt</title>
<path fill="none" stroke="black" stroke-width="1.2" d="M354.12,-393C369.67,-393 386.88,-393 401.64,-393"/>
<polygon fill="black" stroke="black" stroke-width="1.2" points="401.9,-396.5 411.9,-393 401.9,-389.5 401.9,-396.5"/>
</g>
<!-- fail_comp1&#45;&gt;mnt_comp1 -->
<g id="edge10" class="edge">
<title>fail_comp1&#45;&gt;mnt_comp1</title>
<path fill="none" stroke="black" stroke-width="1.2" d="M352.31,-374.87C362.84,-370.46 374.22,-365.7 385.14,-361.13"/>
<polygon fill="black" stroke="black" stroke-width="1.2" points="386.71,-364.27 394.58,-357.18 384,-357.81 386.71,-364.27"/>
</g>
<!-- fail_comp2&#45;&gt;mnt_comp1 -->
<g id="edge11" class="edge">
<title>fail_comp2&#45;&gt;mnt_comp1</title>
<path fill="none" stroke="black" stroke-width="1.2" d="M339.57,-281.01C357.19,-291.39 379.54,-304.56 398.49,-315.72"/>
<polygon fill="black" stroke="black" stroke-width="1.2" points="396.81,-318.79 407.2,-320.85 400.36,-312.76 396.81,-318.79"/>
</g>
<!-- fail_comp2&#45;&gt;mnt_comp2 -->
<g id="edge15" class="edge">
<title>fail_comp2&#45;&gt;mnt_comp2</title>
<path fill="none" stroke="black" stroke-width="1.2" d="M354.15,-261.64C426.31,-259.45 567.6,-255.18 647.43,-252.77"/>
<polygon fill="black" stroke="black" stroke-width="1.2" points="647.91,-256.26 657.8,-252.46 647.7,-249.26 647.91,-256.26"/>
</g>
<!-- fail_comp2&#45;&gt;mnt_comp3 -->
<g id="edge18" class="edge">
<title>fail_comp2&#45;&gt;mnt_comp3</title>
<path fill="none" stroke="black" stroke-width="1.2" d="M354.21,-268.84C398.36,-274.55 465.75,-283.26 513.86,-289.48"/>
<polygon fill="black" stroke="black" stroke-width="1.2" points="513.46,-292.96 523.82,-290.77 514.35,-286.02 513.46,-292.96"/>
</g>
<!-- fail_comp4 -->
<g id="node16" class="node">
<title>fail_comp4</title>
<path fill="white" stroke="black" d="M80,-197C80,-197 12,-197 12,-197 6,-197 0,-191 0,-185 0,-185 0,-173 0,-173 0,-167 6,-161 12,-161 12,-161 80,-161 80,-161 86,-161 92,-167 92,-173 92,-173 92,-185 92,-185 92,-191 86,-197 80,-197"/>
<text text-anchor="middle" x="46" y="-175.3" font-family="Helvetica,sans-Serif" font-size="14.00">fail_comp4</text>
</g>
<!-- fail_comp4&#45;&gt;vibration -->
<g id="edge3" class="edge">
<title>fail_comp4&#45;&gt;vibration</title>
<path fill="none" stroke="black" stroke-width="1.2" d="M74.67,-160.98C93.59,-148.66 118.86,-132.21 139.43,-118.81"/>
<polygon fill="black" stroke="black" stroke-width="1.2" points="141.46,-121.67 147.93,-113.28 137.64,-115.8 141.46,-121.67"/>
</g>
<!-- fail_comp4&#45;&gt;mnt_comp1 -->
<g id="edge12" class="edge">
<title>fail_comp4&#45;&gt;mnt_comp1</title>
<path fill="none" stroke="black" stroke-width="1.2" d="M79.67,-197.15C83.94,-199.94 88.16,-202.92 92,-206 110.14,-220.56 109.68,-229.66 128,-244 181.91,-286.2 196.83,-299 262,-320 300.07,-332.27 344.92,-336.97 379.82,-338.63"/>
<polygon fill="black" stroke="black" stroke-width="1.2" points="379.71,-342.13 389.85,-339.04 380,-335.14 379.71,-342.13"/>
</g>
<!-- fail_comp4&#45;&gt;mnt_comp2 -->
<g id="edge16" class="edge">
<title>fail_comp4&#45;&gt;mnt_comp2</title>
<path fill="none" stroke="black" stroke-width="1.2" d="M92.27,-168.31C143.91,-157.07 231.05,-141 307,-141 307,-141 307,-141 440,-141 529.39,-141 623.72,-194.7 672.45,-227.06"/>
<polygon fill="black" stroke="black" stroke-width="1.2" points="670.76,-230.14 681.01,-232.84 674.68,-224.34 670.76,-230.14"/>
</g>
<!-- fail_comp4&#45;&gt;mnt_comp4 -->
<g id="edge20" class="edge">
<title>fail_comp4&#45;&gt;mnt_comp4</title>
<path fill="none" stroke="black" stroke-width="1.2" d="M92.12,-192.29C100.46,-194.75 109.28,-197.34 117.94,-199.9"/>
<polygon fill="black" stroke="black" stroke-width="1.2" points="117.03,-203.28 127.62,-202.75 119.01,-196.56 117.03,-203.28"/>
</g>
</g>
</svg>
