<?xml version="1.0" encoding="UTF-8" standalone="no"?>
<!DOCTYPE svg PUBLIC "-//W3C//DTD SVG 1.1//EN"
 "http://www.w3.org/Graphics/SVG/1.1/DTD/svg11.dtd">
<!-- Generated by graphviz version 2.50.0 (0)
 -->
<!-- Title: G Pages: 1 -->
<svg width="475pt" height="178pt"
 viewBox="0.00 0.00 475.00 178.00" xmlns="http://www.w3.org/2000/svg" xmlns:xlink="http://www.w3.org/1999/xlink">
<g id="graph0" class="graph" transform="scale(1 1) rotate(0) translate(4 174)">
<title>G</title>
<polygon fill="white" stroke="transparent" points="-4,4 -4,-174 471,-174 471,4 -4,4"/>
<text text-anchor="middle" x="233.5" y="-153.2" font-family="Times,serif" font-size="16.00">model=model3/varlingam_telemetry.json [machine 65]</text>
<!-- volt -->
<g id="node1" class="node">
<title>volt</title>
<path fill="white" stroke="black" d="M192,-36C192,-36 162,-36 162,-36 156,-36 150,-30 150,-24 150,-24 150,-12 150,-12 150,-6 156,0 162,0 162,0 192,0 192,0 198,0 204,-6 204,-12 204,-12 204,-24 204,-24 204,-30 198,-36 192,-36"/>
<text text-anchor="middle" x="177" y="-14.3" font-family="Helvetica,sans-Serif" font-size="14.00">volt</text>
</g>
<!-- rotate -->
<g id="node2" class="node">
<title>rotate</title>
<path fill="white" stroke="black" d="M193.5,-90C193.5,-90 160.5,-90 160.5,-90 154.5,-90 148.5,-84 148.5,-78 148.5,-78 148.5,-66 148.5,-66 148.5,-60 154.5,-54 160.5,-54 160.5,-54 193.5,-54 193.5,-54 199.5,-54 205.5,-60 205.5,-66 205.5,-66 205.5,-78 205.5,-78 205.5,-84 199.5,-90 193.5,-90"/>
<text text-anchor="middle" x="177" y="-68.3" font-family="Helvetica,sans-Serif" font-size="14.00">rotate</text>
</g>
<!-- pressure -->
<g id="node3" class="node">
<title>pressure</title>
<path fill="white" stroke="black" d="M317,-90C317,-90 264,-90 264,-90 258,-90 252,-84 252,-78 252,-78 252,-66 252,-66 252,-60 258,-54 264,-54 264,-54 317,-54 317,-54 323,-54 329,-60 329,-66 329,-66 329,-78 329,-78 329,-84 323,-90 317,-90"/>
<text text-anchor="middle" x="290.5" y="-68.3" font-family="Helvetica,sans-Serif" font-size="14.00">pressure</text>
</g>
<!-- rotate&#45;&gt;pressure -->
<g id="edge1" class="edge">
<title>rotate&#45;&gt;pressure</title>
<path fill="none" stroke="black" stroke-width="1.2" d="M205.56,-72C216.44,-72 229.27,-72 241.58,-72"/>
<polygon fill="black" stroke="black" stroke-width="1.2" points="241.74,-75.5 251.74,-72 241.74,-68.5 241.74,-75.5"/>
</g>
<!-- vibration -->
<g id="node4" class="node">
<title>vibration</title>
<path fill="white" stroke="black" d="M204,-144C204,-144 150,-144 150,-144 144,-144 138,-138 138,-132 138,-132 138,-120 138,-120 138,-114 144,-108 150,-108 150,-108 204,-108 204,-108 210,-108 216,-114 216,-120 216,-120 216,-132 216,-132 216,-138 210,-144 204,-144"/>
<text text-anchor="middle" x="177" y="-122.3" font-family="Helvetica,sans-Serif" font-size="14.00">vibration</text>
</g>
</g>
</svg>
