<?xml version="1.0" encoding="UTF-8" standalone="no"?>
<!DOCTYPE svg PUBLIC "-//W3C//DTD SVG 1.1//EN"
 "http://www.w3.org/Graphics/SVG/1.1/DTD/svg11.dtd">
<!-- Generated by graphviz version 2.50.0 (0)
 -->
<!-- Title: G Pages: 1 -->
<svg width="502pt" height="467pt"
 viewBox="0.00 0.00 502.00 467.00" xmlns="http://www.w3.org/2000/svg" xmlns:xlink="http://www.w3.org/1999/xlink">
<g id="graph0" class="graph" transform="scale(1 1) rotate(0) translate(4 463)">
<title>G</title>
<polygon fill="white" stroke="transparent" points="-4,4 -4,-463 498,-463 498,4 -4,4"/>
<text text-anchor="middle" x="247" y="-442.2" font-family="Times,serif" font-size="16.00">model=model3/varlingam_mixed.json [machine 33]</text>
<!-- volt -->
<g id="node1" class="node">
<title>volt</title>
<path fill="white" stroke="black" d="M61,-36C61,-36 31,-36 31,-36 25,-36 19,-30 19,-24 19,-24 19,-12 19,-12 19,-6 25,0 31,0 31,0 61,0 61,0 67,0 73,-6 73,-12 73,-12 73,-24 73,-24 73,-30 67,-36 61,-36"/>
<text text-anchor="middle" x="46" y="-14.3" font-family="Helvetica,sans-Serif" font-size="14.00">volt</text>
</g>
<!-- rotate -->
<g id="node2" class="node">
<title>rotate</title>
<path fill="white" stroke="black" d="M62.5,-90C62.5,-90 29.5,-90 29.5,-90 23.5,-90 17.5,-84 17.5,-78 17.5,-78 17.5,-66 17.5,-66 17.5,-60 23.5,-54 29.5,-54 29.5,-54 62.5,-54 62.5,-54 68.5,-54 74.5,-60 74.5,-66 74.5,-66 74.5,-78 74.5,-78 74.5,-84 68.5,-90 62.5,-90"/>
<text text-anchor="middle" x="46" y="-68.3" font-family="Helvetica,sans-Serif" font-size="14.00">rotate</text>
</g>
<!-- pressure -->
<g id="node3" class="node">
<title>pressure</title>
<path fill="white" stroke="black" d="M72.5,-144C72.5,-144 19.5,-144 19.5,-144 13.5,-144 7.5,-138 7.5,-132 7.5,-132 7.5,-120 7.5,-120 7.5,-114 13.5,-108 19.5,-108 19.5,-108 72.5,-108 72.5,-108 78.5,-108 84.5,-114 84.5,-120 84.5,-120 84.5,-132 84.5,-132 84.5,-138 78.5,-144 72.5,-144"/>
<text text-anchor="middle" x="46" y="-122.3" font-family="Helvetica,sans-Serif" font-size="14.00">pressure</text>
</g>
<!-- vibration -->
<g id="node4" class="node">
<title>vibration</title>
<path fill="white" stroke="black" d="M73,-271C73,-271 19,-271 19,-271 13,-271 7,-265 7,-259 7,-259 7,-247 7,-247 7,-241 13,-235 19,-235 19,-235 73,-235 73,-235 79,-235 85,-241 85,-247 85,-247 85,-259 85,-259 85,-265 79,-271 73,-271"/>
<text text-anchor="middle" x="46" y="-249.3" font-family="Helvetica,sans-Serif" font-size="14.00">vibration</text>
</g>
<!-- fail_comp4 -->
<g id="node16" class="node">
<title>fail_comp4</title>
<path fill="white" stroke="black" d="M211,-271C211,-271 143,-271 143,-271 137,-271 131,-265 131,-259 131,-259 131,-247 131,-247 131,-241 137,-235 143,-235 143,-235 211,-235 211,-235 217,-235 223,-241 223,-247 223,-247 223,-259 223,-259 223,-265 217,-271 211,-271"/>
<text text-anchor="middle" x="177" y="-249.3" font-family="Helvetica,sans-Serif" font-size="14.00">fail_comp4</text>
</g>
<!-- vibration&#45;&gt;fail_comp4 -->
<g id="edge1" class="edge">
<title>vibration&#45;&gt;fail_comp4</title>
<path fill="none" stroke="black" stroke-width="1.2" d="M85.01,-253C96.27,-253 108.84,-253 120.95,-253"/>
<polygon fill="black" stroke="black" stroke-width="1.2" points="120.98,-256.5 130.98,-253 120.98,-249.5 120.98,-256.5"/>
</g>
<!-- err_error1 -->
<g id="node5" class="node">
<title>err_error1</title>
<path fill="white" stroke="black" d="M207.5,-325C207.5,-325 146.5,-325 146.5,-325 140.5,-325 134.5,-319 134.5,-313 134.5,-313 134.5,-301 134.5,-301 134.5,-295 140.5,-289 146.5,-289 146.5,-289 207.5,-289 207.5,-289 213.5,-289 219.5,-295 219.5,-301 219.5,-301 219.5,-313 219.5,-313 219.5,-319 213.5,-325 207.5,-325"/>
<text text-anchor="middle" x="177" y="-303.3" font-family="Helvetica,sans-Serif" font-size="14.00">err_error1</text>
</g>
<!-- err_error2 -->
<g id="node6" class="node">
<title>err_error2</title>
<path fill="white" stroke="black" d="M207.5,-379C207.5,-379 146.5,-379 146.5,-379 140.5,-379 134.5,-373 134.5,-367 134.5,-367 134.5,-355 134.5,-355 134.5,-349 140.5,-343 146.5,-343 146.5,-343 207.5,-343 207.5,-343 213.5,-343 219.5,-349 219.5,-355 219.5,-355 219.5,-367 219.5,-367 219.5,-373 213.5,-379 207.5,-379"/>
<text text-anchor="middle" x="177" y="-357.3" font-family="Helvetica,sans-Serif" font-size="14.00">err_error2</text>
</g>
<!-- err_error3 -->
<g id="node7" class="node">
<title>err_error3</title>
<path fill="white" stroke="black" d="M76.5,-379C76.5,-379 15.5,-379 15.5,-379 9.5,-379 3.5,-373 3.5,-367 3.5,-367 3.5,-355 3.5,-355 3.5,-349 9.5,-343 15.5,-343 15.5,-343 76.5,-343 76.5,-343 82.5,-343 88.5,-349 88.5,-355 88.5,-355 88.5,-367 88.5,-367 88.5,-373 82.5,-379 76.5,-379"/>
<text text-anchor="middle" x="46" y="-357.3" font-family="Helvetica,sans-Serif" font-size="14.00">err_error3</text>
</g>
<!-- err_error3&#45;&gt;err_error2 -->
<g id="edge3" class="edge">
<title>err_error3&#45;&gt;err_error2</title>
<path fill="none" stroke="black" stroke-width="1.2" d="M88.53,-361C99.81,-361 112.16,-361 123.95,-361"/>
<polygon fill="black" stroke="black" stroke-width="1.2" points="124.11,-364.5 134.11,-361 124.11,-357.5 124.11,-364.5"/>
</g>
<!-- err_error4 -->
<g id="node8" class="node">
<title>err_error4</title>
<path fill="white" stroke="black" d="M76.5,-433C76.5,-433 15.5,-433 15.5,-433 9.5,-433 3.5,-427 3.5,-421 3.5,-421 3.5,-409 3.5,-409 3.5,-403 9.5,-397 15.5,-397 15.5,-397 76.5,-397 76.5,-397 82.5,-397 88.5,-403 88.5,-409 88.5,-409 88.5,-421 88.5,-421 88.5,-427 82.5,-433 76.5,-433"/>
<text text-anchor="middle" x="46" y="-411.3" font-family="Helvetica,sans-Serif" font-size="14.00">err_error4</text>
</g>
<!-- err_error5 -->
<g id="node9" class="node">
<title>err_error5</title>
<path fill="white" stroke="black" d="M76.5,-325C76.5,-325 15.5,-325 15.5,-325 9.5,-325 3.5,-319 3.5,-313 3.5,-313 3.5,-301 3.5,-301 3.5,-295 9.5,-289 15.5,-289 15.5,-289 76.5,-289 76.5,-289 82.5,-289 88.5,-295 88.5,-301 88.5,-301 88.5,-313 88.5,-313 88.5,-319 82.5,-325 76.5,-325"/>
<text text-anchor="middle" x="46" y="-303.3" font-family="Helvetica,sans-Serif" font-size="14.00">err_error5</text>
</g>
<!-- err_error5&#45;&gt;err_error1 -->
<g id="edge2" class="edge">
<title>err_error5&#45;&gt;err_error1</title>
<path fill="none" stroke="black" stroke-width="1.2" d="M88.53,-307C99.81,-307 112.16,-307 123.95,-307"/>
<polygon fill="black" stroke="black" stroke-width="1.2" points="124.11,-310.5 134.11,-307 124.11,-303.5 124.11,-310.5"/>
</g>
<!-- mnt_comp1 -->
<g id="node10" class="node">
<title>mnt_comp1</title>
<path fill="white" stroke="black" d="M214,-179C214,-179 140,-179 140,-179 134,-179 128,-173 128,-167 128,-167 128,-155 128,-155 128,-149 134,-143 140,-143 140,-143 214,-143 214,-143 220,-143 226,-149 226,-155 226,-155 226,-167 226,-167 226,-173 220,-179 214,-179"/>
<text text-anchor="middle" x="177" y="-157.3" font-family="Helvetica,sans-Serif" font-size="14.00">mnt_comp1</text>
</g>
<!-- mnt_comp2 -->
<g id="node11" class="node">
<title>mnt_comp2</title>
<path fill="white" stroke="black" d="M482,-194C482,-194 408,-194 408,-194 402,-194 396,-188 396,-182 396,-182 396,-170 396,-170 396,-164 402,-158 408,-158 408,-158 482,-158 482,-158 488,-158 494,-164 494,-170 494,-170 494,-182 494,-182 494,-188 488,-194 482,-194"/>
<text text-anchor="middle" x="445" y="-172.3" font-family="Helvetica,sans-Serif" font-size="14.00">mnt_comp2</text>
</g>
<!-- mnt_comp1&#45;&gt;mnt_comp2 -->
<g id="edge4" class="edge">
<title>mnt_comp1&#45;&gt;mnt_comp2</title>
<path fill="none" stroke="black" stroke-width="1.2" d="M226.17,-163.72C270.94,-166.24 337.73,-170.01 385.54,-172.7"/>
<polygon fill="black" stroke="black" stroke-width="1.2" points="385.56,-176.21 395.74,-173.28 385.95,-169.22 385.56,-176.21"/>
</g>
<!-- mnt_comp3 -->
<g id="node12" class="node">
<title>mnt_comp3</title>
<path fill="white" stroke="black" d="M348,-217C348,-217 274,-217 274,-217 268,-217 262,-211 262,-205 262,-205 262,-193 262,-193 262,-187 268,-181 274,-181 274,-181 348,-181 348,-181 354,-181 360,-187 360,-193 360,-193 360,-205 360,-205 360,-211 354,-217 348,-217"/>
<text text-anchor="middle" x="311" y="-195.3" font-family="Helvetica,sans-Serif" font-size="14.00">mnt_comp3</text>
</g>
<!-- mnt_comp1&#45;&gt;mnt_comp3 -->
<g id="edge5" class="edge">
<title>mnt_comp1&#45;&gt;mnt_comp3</title>
<path fill="none" stroke="black" stroke-width="1.2" d="M226.03,-174.83C234.49,-177.26 243.38,-179.82 252.08,-182.33"/>
<polygon fill="black" stroke="black" stroke-width="1.2" points="251.21,-185.72 261.79,-185.12 253.14,-178.99 251.21,-185.72"/>
</g>
<!-- mnt_comp3&#45;&gt;mnt_comp2 -->
<g id="edge7" class="edge">
<title>mnt_comp3&#45;&gt;mnt_comp2</title>
<path fill="none" stroke="black" stroke-width="1.2" d="M360.03,-190.63C368.4,-189.17 377.19,-187.64 385.8,-186.14"/>
<polygon fill="black" stroke="black" stroke-width="1.2" points="386.54,-189.57 395.79,-184.4 385.33,-182.67 386.54,-189.57"/>
</g>
<!-- mnt_comp4 -->
<g id="node13" class="node">
<title>mnt_comp4</title>
<path fill="white" stroke="black" d="M348,-271C348,-271 274,-271 274,-271 268,-271 262,-265 262,-259 262,-259 262,-247 262,-247 262,-241 268,-235 274,-235 274,-235 348,-235 348,-235 354,-235 360,-241 360,-247 360,-247 360,-259 360,-259 360,-265 354,-271 348,-271"/>
<text text-anchor="middle" x="311" y="-249.3" font-family="Helvetica,sans-Serif" font-size="14.00">mnt_comp4</text>
</g>
<!-- mnt_comp4&#45;&gt;mnt_comp2 -->
<g id="edge8" class="edge">
<title>mnt_comp4&#45;&gt;mnt_comp2</title>
<path fill="none" stroke="black" stroke-width="1.2" d="M344.34,-234.95C349.58,-231.98 354.95,-228.92 360,-226 374.7,-217.49 390.74,-208 404.83,-199.58"/>
<polygon fill="black" stroke="black" stroke-width="1.2" points="406.99,-202.37 413.78,-194.23 403.4,-196.36 406.99,-202.37"/>
</g>
<!-- fail_comp1 -->
<g id="node14" class="node">
<title>fail_comp1</title>
<path fill="white" stroke="black" d="M80,-198C80,-198 12,-198 12,-198 6,-198 0,-192 0,-186 0,-186 0,-174 0,-174 0,-168 6,-162 12,-162 12,-162 80,-162 80,-162 86,-162 92,-168 92,-174 92,-174 92,-186 92,-186 92,-192 86,-198 80,-198"/>
<text text-anchor="middle" x="46" y="-176.3" font-family="Helvetica,sans-Serif" font-size="14.00">fail_comp1</text>
</g>
<!-- fail_comp1&#45;&gt;mnt_comp1 -->
<g id="edge6" class="edge">
<title>fail_comp1&#45;&gt;mnt_comp1</title>
<path fill="none" stroke="black" stroke-width="1.2" d="M92.12,-173.35C100.37,-172.14 109.09,-170.86 117.66,-169.59"/>
<polygon fill="black" stroke="black" stroke-width="1.2" points="118.23,-173.05 127.62,-168.13 117.21,-166.12 118.23,-173.05"/>
</g>
<!-- fail_comp1&#45;&gt;mnt_comp2 -->
<g id="edge9" class="edge">
<title>fail_comp1&#45;&gt;mnt_comp2</title>
<path fill="none" stroke="black" stroke-width="1.2" d="M77.15,-161.89C97.79,-149.66 122.41,-135.48 128,-134 216.25,-110.69 321.95,-134.85 385.98,-154.98"/>
<polygon fill="black" stroke="black" stroke-width="1.2" points="385.3,-158.44 395.89,-158.17 387.45,-151.78 385.3,-158.44"/>
</g>
<!-- fail_comp1&#45;&gt;mnt_comp3 -->
<g id="edge12" class="edge">
<title>fail_comp1&#45;&gt;mnt_comp3</title>
<path fill="none" stroke="black" stroke-width="1.2" d="M92.38,-184.79C103.99,-185.93 116.45,-187.08 128,-188 169.21,-191.28 215.75,-194.08 251.44,-196.03"/>
<polygon fill="black" stroke="black" stroke-width="1.2" points="251.51,-199.54 261.68,-196.58 251.89,-192.55 251.51,-199.54"/>
</g>
<!-- fail_comp1&#45;&gt;fail_comp4 -->
<g id="edge15" class="edge">
<title>fail_comp1&#45;&gt;fail_comp4</title>
<path fill="none" stroke="black" stroke-width="1.2" d="M78.89,-198.04C95.79,-207.61 116.74,-219.47 134.86,-229.72"/>
<polygon fill="black" stroke="black" stroke-width="1.2" points="133.61,-233.03 144.03,-234.91 137.05,-226.94 133.61,-233.03"/>
</g>
<!-- fail_comp2 -->
<g id="node15" class="node">
<title>fail_comp2</title>
<path fill="white" stroke="black" d="M345,-87C345,-87 277,-87 277,-87 271,-87 265,-81 265,-75 265,-75 265,-63 265,-63 265,-57 271,-51 277,-51 277,-51 345,-51 345,-51 351,-51 357,-57 357,-63 357,-63 357,-75 357,-75 357,-81 351,-87 345,-87"/>
<text text-anchor="middle" x="311" y="-65.3" font-family="Helvetica,sans-Serif" font-size="14.00">fail_comp2</text>
</g>
<!-- fail_comp2&#45;&gt;mnt_comp2 -->
<g id="edge10" class="edge">
<title>fail_comp2&#45;&gt;mnt_comp2</title>
<path fill="none" stroke="black" stroke-width="1.2" d="M340.64,-87.14C347.13,-91.51 353.9,-96.28 360,-101 380.2,-116.63 401.66,-135.83 417.83,-150.9"/>
<polygon fill="black" stroke="black" stroke-width="1.2" points="415.63,-153.63 425.31,-157.93 420.42,-148.53 415.63,-153.63"/>
</g>
<!-- fail_comp4&#45;&gt;mnt_comp2 -->
<g id="edge11" class="edge">
<title>fail_comp4&#45;&gt;mnt_comp2</title>
<path fill="none" stroke="black" stroke-width="1.2" d="M216.85,-271.12C255.06,-286.18 314.17,-301.89 360,-280 393.05,-264.21 417.28,-228.36 431,-203.18"/>
<polygon fill="black" stroke="black" stroke-width="1.2" points="434.21,-204.6 435.74,-194.12 428,-201.36 434.21,-204.6"/>
</g>
<!-- fail_comp4&#45;&gt;mnt_comp3 -->
<g id="edge13" class="edge">
<title>fail_comp4&#45;&gt;mnt_comp3</title>
<path fill="none" stroke="black" stroke-width="1.2" d="M222.32,-234.87C233.2,-230.42 244.97,-225.6 256.25,-220.99"/>
<polygon fill="black" stroke="black" stroke-width="1.2" points="257.64,-224.2 265.57,-217.18 254.99,-217.72 257.64,-224.2"/>
</g>
<!-- fail_comp4&#45;&gt;mnt_comp4 -->
<g id="edge14" class="edge">
<title>fail_comp4&#45;&gt;mnt_comp4</title>
<path fill="none" stroke="black" stroke-width="1.2" d="M223.06,-253C232.27,-253 242.09,-253 251.7,-253"/>
<polygon fill="black" stroke="black" stroke-width="1.2" points="251.99,-256.5 261.99,-253 251.99,-249.5 251.99,-256.5"/>
</g>
</g>
</svg>
