<?xml version="1.0" encoding="UTF-8" standalone="no"?>
<!DOCTYPE svg PUBLIC "-//W3C//DTD SVG 1.1//EN"
 "http://www.w3.org/Graphics/SVG/1.1/DTD/svg11.dtd">
<!-- Generated by graphviz version 2.50.0 (0)
 -->
<!-- Title: G Pages: 1 -->
<svg width="489pt" height="444pt"
 viewBox="0.00 0.00 489.00 444.00" xmlns="http://www.w3.org/2000/svg" xmlns:xlink="http://www.w3.org/1999/xlink">
<g id="graph0" class="graph" transform="scale(1 1) rotate(0) translate(4 440)">
<title>G</title>
<polygon fill="white" stroke="transparent" points="-4,4 -4,-440 485,-440 485,4 -4,4"/>
<text text-anchor="middle" x="240.5" y="-419.2" font-family="Times,serif" font-size="16.00">model=model2/varlingam_mixed.json [machine 20]</text>
<!-- volt -->
<g id="node1" class="node">
<title>volt</title>
<path fill="white" stroke="black" d="M57.5,-36C57.5,-36 27.5,-36 27.5,-36 21.5,-36 15.5,-30 15.5,-24 15.5,-24 15.5,-12 15.5,-12 15.5,-6 21.5,0 27.5,0 27.5,0 57.5,0 57.5,0 63.5,0 69.5,-6 69.5,-12 69.5,-12 69.5,-24 69.5,-24 69.5,-30 63.5,-36 57.5,-36"/>
<text text-anchor="middle" x="42.5" y="-14.3" font-family="Helvetica,sans-Serif" font-size="14.00">volt</text>
</g>
<!-- rotate -->
<g id="node2" class="node">
<title>rotate</title>
<path fill="white" stroke="black" d="M59,-248C59,-248 26,-248 26,-248 20,-248 14,-242 14,-236 14,-236 14,-224 14,-224 14,-218 20,-212 26,-212 26,-212 59,-212 59,-212 65,-212 71,-218 71,-224 71,-224 71,-236 71,-236 71,-242 65,-248 59,-248"/>
<text text-anchor="middle" x="42.5" y="-226.3" font-family="Helvetica,sans-Serif" font-size="14.00">rotate</text>
</g>
<!-- fail_comp2 -->
<g id="node15" class="node">
<title>fail_comp2</title>
<path fill="white" stroke="black" d="M201,-248C201,-248 133,-248 133,-248 127,-248 121,-242 121,-236 121,-236 121,-224 121,-224 121,-218 127,-212 133,-212 133,-212 201,-212 201,-212 207,-212 213,-218 213,-224 213,-224 213,-236 213,-236 213,-242 207,-248 201,-248"/>
<text text-anchor="middle" x="167" y="-226.3" font-family="Helvetica,sans-Serif" font-size="14.00">fail_comp2</text>
</g>
<!-- rotate&#45;&gt;fail_comp2 -->
<g id="edge1" class="edge">
<title>rotate&#45;&gt;fail_comp2</title>
<path fill="none" stroke="black" stroke-width="1.2" d="M71.3,-230C82.89,-230 96.78,-230 110.31,-230"/>
<polygon fill="black" stroke="black" stroke-width="1.2" points="110.54,-233.5 120.54,-230 110.54,-226.5 110.54,-233.5"/>
</g>
<!-- pressure -->
<g id="node3" class="node">
<title>pressure</title>
<path fill="white" stroke="black" d="M69,-194C69,-194 16,-194 16,-194 10,-194 4,-188 4,-182 4,-182 4,-170 4,-170 4,-164 10,-158 16,-158 16,-158 69,-158 69,-158 75,-158 81,-164 81,-170 81,-170 81,-182 81,-182 81,-188 75,-194 69,-194"/>
<text text-anchor="middle" x="42.5" y="-172.3" font-family="Helvetica,sans-Serif" font-size="14.00">pressure</text>
</g>
<!-- fail_comp3 -->
<g id="node16" class="node">
<title>fail_comp3</title>
<path fill="white" stroke="black" d="M201,-194C201,-194 133,-194 133,-194 127,-194 121,-188 121,-182 121,-182 121,-170 121,-170 121,-164 127,-158 133,-158 133,-158 201,-158 201,-158 207,-158 213,-164 213,-170 213,-170 213,-182 213,-182 213,-188 207,-194 201,-194"/>
<text text-anchor="middle" x="167" y="-172.3" font-family="Helvetica,sans-Serif" font-size="14.00">fail_comp3</text>
</g>
<!-- pressure&#45;&gt;fail_comp3 -->
<g id="edge2" class="edge">
<title>pressure&#45;&gt;fail_comp3</title>
<path fill="none" stroke="black" stroke-width="1.2" d="M81.25,-176C90.54,-176 100.68,-176 110.61,-176"/>
<polygon fill="black" stroke="black" stroke-width="1.2" points="110.84,-179.5 120.84,-176 110.84,-172.5 110.84,-179.5"/>
</g>
<!-- vibration -->
<g id="node4" class="node">
<title>vibration</title>
<path fill="white" stroke="black" d="M69.5,-90C69.5,-90 15.5,-90 15.5,-90 9.5,-90 3.5,-84 3.5,-78 3.5,-78 3.5,-66 3.5,-66 3.5,-60 9.5,-54 15.5,-54 15.5,-54 69.5,-54 69.5,-54 75.5,-54 81.5,-60 81.5,-66 81.5,-66 81.5,-78 81.5,-78 81.5,-84 75.5,-90 69.5,-90"/>
<text text-anchor="middle" x="42.5" y="-68.3" font-family="Helvetica,sans-Serif" font-size="14.00">vibration</text>
</g>
<!-- err_error5 -->
<g id="node9" class="node">
<title>err_error5</title>
<path fill="white" stroke="black" d="M197.5,-63C197.5,-63 136.5,-63 136.5,-63 130.5,-63 124.5,-57 124.5,-51 124.5,-51 124.5,-39 124.5,-39 124.5,-33 130.5,-27 136.5,-27 136.5,-27 197.5,-27 197.5,-27 203.5,-27 209.5,-33 209.5,-39 209.5,-39 209.5,-51 209.5,-51 209.5,-57 203.5,-63 197.5,-63"/>
<text text-anchor="middle" x="167" y="-41.3" font-family="Helvetica,sans-Serif" font-size="14.00">err_error5</text>
</g>
<!-- vibration&#45;&gt;err_error5 -->
<g id="edge3" class="edge">
<title>vibration&#45;&gt;err_error5</title>
<path fill="none" stroke="black" stroke-width="1.2" d="M81.59,-63.61C91.91,-61.33 103.27,-58.83 114.21,-56.42"/>
<polygon fill="black" stroke="black" stroke-width="1.2" points="115.09,-59.81 124.1,-54.24 113.58,-52.97 115.09,-59.81"/>
</g>
<!-- fail_comp4 -->
<g id="node17" class="node">
<title>fail_comp4</title>
<path fill="white" stroke="black" d="M201,-117C201,-117 133,-117 133,-117 127,-117 121,-111 121,-105 121,-105 121,-93 121,-93 121,-87 127,-81 133,-81 133,-81 201,-81 201,-81 207,-81 213,-87 213,-93 213,-93 213,-105 213,-105 213,-111 207,-117 201,-117"/>
<text text-anchor="middle" x="167" y="-95.3" font-family="Helvetica,sans-Serif" font-size="14.00">fail_comp4</text>
</g>
<!-- vibration&#45;&gt;fail_comp4 -->
<g id="edge4" class="edge">
<title>vibration&#45;&gt;fail_comp4</title>
<path fill="none" stroke="black" stroke-width="1.2" d="M81.59,-80.39C90.86,-82.44 100.96,-84.66 110.85,-86.84"/>
<polygon fill="black" stroke="black" stroke-width="1.2" points="110.11,-90.26 120.62,-89 111.61,-83.43 110.11,-90.26"/>
</g>
<!-- err_error1 -->
<g id="node5" class="node">
<title>err_error1</title>
<path fill="white" stroke="black" d="M73,-302C73,-302 12,-302 12,-302 6,-302 0,-296 0,-290 0,-290 0,-278 0,-278 0,-272 6,-266 12,-266 12,-266 73,-266 73,-266 79,-266 85,-272 85,-278 85,-278 85,-290 85,-290 85,-296 79,-302 73,-302"/>
<text text-anchor="middle" x="42.5" y="-280.3" font-family="Helvetica,sans-Serif" font-size="14.00">err_error1</text>
</g>
<!-- err_error2 -->
<g id="node6" class="node">
<title>err_error2</title>
<path fill="white" stroke="black" d="M73,-356C73,-356 12,-356 12,-356 6,-356 0,-350 0,-344 0,-344 0,-332 0,-332 0,-326 6,-320 12,-320 12,-320 73,-320 73,-320 79,-320 85,-326 85,-332 85,-332 85,-344 85,-344 85,-350 79,-356 73,-356"/>
<text text-anchor="middle" x="42.5" y="-334.3" font-family="Helvetica,sans-Serif" font-size="14.00">err_error2</text>
</g>
<!-- err_error3 -->
<g id="node7" class="node">
<title>err_error3</title>
<path fill="white" stroke="black" d="M197.5,-356C197.5,-356 136.5,-356 136.5,-356 130.5,-356 124.5,-350 124.5,-344 124.5,-344 124.5,-332 124.5,-332 124.5,-326 130.5,-320 136.5,-320 136.5,-320 197.5,-320 197.5,-320 203.5,-320 209.5,-326 209.5,-332 209.5,-332 209.5,-344 209.5,-344 209.5,-350 203.5,-356 197.5,-356"/>
<text text-anchor="middle" x="167" y="-334.3" font-family="Helvetica,sans-Serif" font-size="14.00">err_error3</text>
</g>
<!-- err_error2&#45;&gt;err_error3 -->
<g id="edge5" class="edge">
<title>err_error2&#45;&gt;err_error3</title>
<path fill="none" stroke="black" stroke-width="1.2" d="M85.31,-338C94.58,-338 104.5,-338 114.11,-338"/>
<polygon fill="black" stroke="black" stroke-width="1.2" points="114.37,-341.5 124.37,-338 114.37,-334.5 114.37,-341.5"/>
</g>
<!-- err_error4 -->
<g id="node8" class="node">
<title>err_error4</title>
<path fill="white" stroke="black" d="M73,-410C73,-410 12,-410 12,-410 6,-410 0,-404 0,-398 0,-398 0,-386 0,-386 0,-380 6,-374 12,-374 12,-374 73,-374 73,-374 79,-374 85,-380 85,-386 85,-386 85,-398 85,-398 85,-404 79,-410 73,-410"/>
<text text-anchor="middle" x="42.5" y="-388.3" font-family="Helvetica,sans-Serif" font-size="14.00">err_error4</text>
</g>
<!-- mnt_comp1 -->
<g id="node10" class="node">
<title>mnt_comp1</title>
<path fill="white" stroke="black" d="M469,-244C469,-244 395,-244 395,-244 389,-244 383,-238 383,-232 383,-232 383,-220 383,-220 383,-214 389,-208 395,-208 395,-208 469,-208 469,-208 475,-208 481,-214 481,-220 481,-220 481,-232 481,-232 481,-238 475,-244 469,-244"/>
<text text-anchor="middle" x="432" y="-222.3" font-family="Helvetica,sans-Serif" font-size="14.00">mnt_comp1</text>
</g>
<!-- mnt_comp2 -->
<g id="node11" class="node">
<title>mnt_comp2</title>
<path fill="white" stroke="black" d="M335,-244C335,-244 261,-244 261,-244 255,-244 249,-238 249,-232 249,-232 249,-220 249,-220 249,-214 255,-208 261,-208 261,-208 335,-208 335,-208 341,-208 347,-214 347,-220 347,-220 347,-232 347,-232 347,-238 341,-244 335,-244"/>
<text text-anchor="middle" x="298" y="-222.3" font-family="Helvetica,sans-Serif" font-size="14.00">mnt_comp2</text>
</g>
<!-- mnt_comp2&#45;&gt;mnt_comp1 -->
<g id="edge6" class="edge">
<title>mnt_comp2&#45;&gt;mnt_comp1</title>
<path fill="none" stroke="black" stroke-width="1.2" d="M347.03,-226C355.31,-226 364,-226 372.52,-226"/>
<polygon fill="black" stroke="black" stroke-width="1.2" points="372.79,-229.5 382.79,-226 372.79,-222.5 372.79,-229.5"/>
</g>
<!-- mnt_comp3 -->
<g id="node12" class="node">
<title>mnt_comp3</title>
<path fill="white" stroke="black" d="M335,-152C335,-152 261,-152 261,-152 255,-152 249,-146 249,-140 249,-140 249,-128 249,-128 249,-122 255,-116 261,-116 261,-116 335,-116 335,-116 341,-116 347,-122 347,-128 347,-128 347,-140 347,-140 347,-146 341,-152 335,-152"/>
<text text-anchor="middle" x="298" y="-130.3" font-family="Helvetica,sans-Serif" font-size="14.00">mnt_comp3</text>
</g>
<!-- mnt_comp3&#45;&gt;mnt_comp1 -->
<g id="edge7" class="edge">
<title>mnt_comp3&#45;&gt;mnt_comp1</title>
<path fill="none" stroke="black" stroke-width="1.2" d="M326.52,-152.12C333.25,-156.62 340.41,-161.45 347,-166 363.92,-177.68 382.55,-190.95 397.96,-202.03"/>
<polygon fill="black" stroke="black" stroke-width="1.2" points="396,-204.93 406.15,-207.94 400.09,-199.25 396,-204.93"/>
</g>
<!-- mnt_comp4 -->
<g id="node13" class="node">
<title>mnt_comp4</title>
<path fill="white" stroke="black" d="M335,-98C335,-98 261,-98 261,-98 255,-98 249,-92 249,-86 249,-86 249,-74 249,-74 249,-68 255,-62 261,-62 261,-62 335,-62 335,-62 341,-62 347,-68 347,-74 347,-74 347,-86 347,-86 347,-92 341,-98 335,-98"/>
<text text-anchor="middle" x="298" y="-76.3" font-family="Helvetica,sans-Serif" font-size="14.00">mnt_comp4</text>
</g>
<!-- fail_comp1 -->
<g id="node14" class="node">
<title>fail_comp1</title>
<path fill="white" stroke="black" d="M332,-336C332,-336 264,-336 264,-336 258,-336 252,-330 252,-324 252,-324 252,-312 252,-312 252,-306 258,-300 264,-300 264,-300 332,-300 332,-300 338,-300 344,-306 344,-312 344,-312 344,-324 344,-324 344,-330 338,-336 332,-336"/>
<text text-anchor="middle" x="298" y="-314.3" font-family="Helvetica,sans-Serif" font-size="14.00">fail_comp1</text>
</g>
<!-- fail_comp1&#45;&gt;mnt_comp1 -->
<g id="edge8" class="edge">
<title>fail_comp1&#45;&gt;mnt_comp1</title>
<path fill="none" stroke="black" stroke-width="1.2" d="M326.52,-299.88C333.25,-295.38 340.41,-290.55 347,-286 363.92,-274.32 382.55,-261.05 397.96,-249.97"/>
<polygon fill="black" stroke="black" stroke-width="1.2" points="400.09,-252.75 406.15,-244.06 396,-247.07 400.09,-252.75"/>
</g>
<!-- fail_comp2&#45;&gt;mnt_comp1 -->
<g id="edge9" class="edge">
<title>fail_comp2&#45;&gt;mnt_comp1</title>
<path fill="none" stroke="black" stroke-width="1.2" d="M213.36,-245.26C224.86,-248.47 237.27,-251.37 249,-253 292.14,-259.01 303.97,-259.75 347,-253 355.8,-251.62 364.93,-249.48 373.79,-246.98"/>
<polygon fill="black" stroke="black" stroke-width="1.2" points="375.07,-250.26 383.65,-244.05 373.07,-243.55 375.07,-250.26"/>
</g>
<!-- fail_comp2&#45;&gt;mnt_comp2 -->
<g id="edge11" class="edge">
<title>fail_comp2&#45;&gt;mnt_comp2</title>
<path fill="none" stroke="black" stroke-width="1.2" d="M213.12,-228.6C221.28,-228.35 229.9,-228.08 238.38,-227.82"/>
<polygon fill="black" stroke="black" stroke-width="1.2" points="238.73,-231.31 248.62,-227.5 238.51,-224.31 238.73,-231.31"/>
</g>
<!-- fail_comp2&#45;&gt;mnt_comp3 -->
<g id="edge13" class="edge">
<title>fail_comp2&#45;&gt;mnt_comp3</title>
<path fill="none" stroke="black" stroke-width="1.2" d="M199.37,-211.99C204.01,-209.1 208.68,-206.04 213,-203 232.31,-189.39 252.82,-172.59 268.74,-158.98"/>
<polygon fill="black" stroke="black" stroke-width="1.2" points="271.33,-161.36 276.61,-152.18 266.76,-156.06 271.33,-161.36"/>
</g>
<!-- fail_comp3&#45;&gt;mnt_comp1 -->
<g id="edge10" class="edge">
<title>fail_comp3&#45;&gt;mnt_comp1</title>
<path fill="none" stroke="black" stroke-width="1.2" d="M213.27,-179.51C249.7,-182.88 302.05,-188.98 347,-199 355.58,-200.91 364.54,-203.33 373.27,-205.92"/>
<polygon fill="black" stroke="black" stroke-width="1.2" points="372.41,-209.32 383,-208.9 374.47,-202.62 372.41,-209.32"/>
</g>
<!-- fail_comp3&#45;&gt;mnt_comp2 -->
<g id="edge12" class="edge">
<title>fail_comp3&#45;&gt;mnt_comp2</title>
<path fill="none" stroke="black" stroke-width="1.2" d="M213.12,-193.49C222.07,-196.96 231.57,-200.64 240.84,-204.23"/>
<polygon fill="black" stroke="black" stroke-width="1.2" points="239.79,-207.58 250.38,-207.93 242.32,-201.05 239.79,-207.58"/>
</g>
<!-- fail_comp3&#45;&gt;mnt_comp3 -->
<g id="edge14" class="edge">
<title>fail_comp3&#45;&gt;mnt_comp3</title>
<path fill="none" stroke="black" stroke-width="1.2" d="M213.12,-161.31C221.46,-158.59 230.28,-155.72 238.94,-152.9"/>
<polygon fill="black" stroke="black" stroke-width="1.2" points="240.19,-156.18 248.62,-149.75 238.02,-149.52 240.19,-156.18"/>
</g>
<!-- fail_comp4&#45;&gt;mnt_comp3 -->
<g id="edge15" class="edge">
<title>fail_comp4&#45;&gt;mnt_comp3</title>
<path fill="none" stroke="black" stroke-width="1.2" d="M213.12,-111.24C221.46,-113.5 230.28,-115.9 238.94,-118.25"/>
<polygon fill="black" stroke="black" stroke-width="1.2" points="238.05,-121.63 248.62,-120.87 239.88,-114.88 238.05,-121.63"/>
</g>
<!-- fail_comp4&#45;&gt;mnt_comp4 -->
<g id="edge16" class="edge">
<title>fail_comp4&#45;&gt;mnt_comp4</title>
<path fill="none" stroke="black" stroke-width="1.2" d="M213.12,-92.35C221.37,-91.14 230.09,-89.86 238.66,-88.59"/>
<polygon fill="black" stroke="black" stroke-width="1.2" points="239.23,-92.05 248.62,-87.13 238.21,-85.12 239.23,-92.05"/>
</g>
</g>
</svg>
