<?xml version="1.0" encoding="UTF-8" standalone="no"?>
<!DOCTYPE svg PUBLIC "-//W3C//DTD SVG 1.1//EN"
 "http://www.w3.org/Graphics/SVG/1.1/DTD/svg11.dtd">
<!-- Generated by graphviz version 2.50.0 (0)
 -->
<!-- Title: G Pages: 1 -->
<svg width="475pt" height="124pt"
 viewBox="0.00 0.00 475.00 124.00" xmlns="http://www.w3.org/2000/svg" xmlns:xlink="http://www.w3.org/1999/xlink">
<g id="graph0" class="graph" transform="scale(1 1) rotate(0) translate(4 120)">
<title>G</title>
<polygon fill="white" stroke="transparent" points="-4,4 -4,-120 471,-120 471,4 -4,4"/>
<text text-anchor="middle" x="233.5" y="-99.2" font-family="Times,serif" font-size="16.00">model=model2/varlingam_telemetry.json [machine 94]</text>
<!-- volt -->
<g id="node1" class="node">
<title>volt</title>
<path fill="white" stroke="black" d="M145,-36C145,-36 115,-36 115,-36 109,-36 103,-30 103,-24 103,-24 103,-12 103,-12 103,-6 109,0 115,0 115,0 145,0 145,0 151,0 157,-6 157,-12 157,-12 157,-24 157,-24 157,-30 151,-36 145,-36"/>
<text text-anchor="middle" x="130" y="-14.3" font-family="Helvetica,sans-Serif" font-size="14.00">volt</text>
</g>
<!-- rotate -->
<g id="node2" class="node">
<title>rotate</title>
<path fill="white" stroke="black" d="M363.5,-90C363.5,-90 330.5,-90 330.5,-90 324.5,-90 318.5,-84 318.5,-78 318.5,-78 318.5,-66 318.5,-66 318.5,-60 324.5,-54 330.5,-54 330.5,-54 363.5,-54 363.5,-54 369.5,-54 375.5,-60 375.5,-66 375.5,-66 375.5,-78 375.5,-78 375.5,-84 369.5,-90 363.5,-90"/>
<text text-anchor="middle" x="347" y="-68.3" font-family="Helvetica,sans-Serif" font-size="14.00">rotate</text>
</g>
<!-- pressure -->
<g id="node3" class="node">
<title>pressure</title>
<path fill="white" stroke="black" d="M156.5,-90C156.5,-90 103.5,-90 103.5,-90 97.5,-90 91.5,-84 91.5,-78 91.5,-78 91.5,-66 91.5,-66 91.5,-60 97.5,-54 103.5,-54 103.5,-54 156.5,-54 156.5,-54 162.5,-54 168.5,-60 168.5,-66 168.5,-66 168.5,-78 168.5,-78 168.5,-84 162.5,-90 156.5,-90"/>
<text text-anchor="middle" x="130" y="-68.3" font-family="Helvetica,sans-Serif" font-size="14.00">pressure</text>
</g>
<!-- vibration -->
<g id="node4" class="node">
<title>vibration</title>
<path fill="white" stroke="black" d="M270.5,-90C270.5,-90 216.5,-90 216.5,-90 210.5,-90 204.5,-84 204.5,-78 204.5,-78 204.5,-66 204.5,-66 204.5,-60 210.5,-54 216.5,-54 216.5,-54 270.5,-54 270.5,-54 276.5,-54 282.5,-60 282.5,-66 282.5,-66 282.5,-78 282.5,-78 282.5,-84 276.5,-90 270.5,-90"/>
<text text-anchor="middle" x="243.5" y="-68.3" font-family="Helvetica,sans-Serif" font-size="14.00">vibration</text>
</g>
<!-- pressure&#45;&gt;vibration -->
<g id="edge2" class="edge">
<title>pressure&#45;&gt;vibration</title>
<path fill="none" stroke="black" stroke-width="1.2" d="M168.75,-72C176.92,-72 185.68,-72 194.19,-72"/>
<polygon fill="black" stroke="black" stroke-width="1.2" points="194.41,-75.5 204.41,-72 194.41,-68.5 194.41,-75.5"/>
</g>
<!-- vibration&#45;&gt;rotate -->
<g id="edge1" class="edge">
<title>vibration&#45;&gt;rotate</title>
<path fill="none" stroke="black" stroke-width="1.2" d="M282.58,-72C290.97,-72 299.85,-72 308.22,-72"/>
<polygon fill="black" stroke="black" stroke-width="1.2" points="308.48,-75.5 318.48,-72 308.48,-68.5 308.48,-75.5"/>
</g>
</g>
</svg>
