<?xml version="1.0" encoding="UTF-8" standalone="no"?>
<!DOCTYPE svg PUBLIC "-//W3C//DTD SVG 1.1//EN"
 "http://www.w3.org/Graphics/SVG/1.1/DTD/svg11.dtd">
<!-- Generated by graphviz version 2.50.0 (0)
 -->
<!-- Title: G Pages: 1 -->
<svg width="502pt" height="646pt"
 viewBox="0.00 0.00 502.00 645.56" xmlns="http://www.w3.org/2000/svg" xmlns:xlink="http://www.w3.org/1999/xlink">
<g id="graph0" class="graph" transform="scale(1 1) rotate(0) translate(4 641.56)">
<title>G</title>
<polygon fill="white" stroke="transparent" points="-4,4 -4,-641.56 498,-641.56 498,4 -4,4"/>
<text text-anchor="middle" x="247" y="-620.76" font-family="Times,serif" font-size="16.00">model=model4/varlingam_mixed.json [machine 50]</text>
<!-- volt -->
<g id="node1" class="node">
<title>volt</title>
<path fill="white" stroke="black" d="M61,-36C61,-36 31,-36 31,-36 25,-36 19,-30 19,-24 19,-24 19,-12 19,-12 19,-6 25,0 31,0 31,0 61,0 61,0 67,0 73,-6 73,-12 73,-12 73,-24 73,-24 73,-30 67,-36 61,-36"/>
<text text-anchor="middle" x="46" y="-14.3" font-family="Helvetica,sans-Serif" font-size="14.00">volt</text>
</g>
<!-- rotate -->
<g id="node2" class="node">
<title>rotate</title>
<path fill="white" stroke="black" d="M62.5,-90C62.5,-90 29.5,-90 29.5,-90 23.5,-90 17.5,-84 17.5,-78 17.5,-78 17.5,-66 17.5,-66 17.5,-60 23.5,-54 29.5,-54 29.5,-54 62.5,-54 62.5,-54 68.5,-54 74.5,-60 74.5,-66 74.5,-66 74.5,-78 74.5,-78 74.5,-84 68.5,-90 62.5,-90"/>
<text text-anchor="middle" x="46" y="-68.3" font-family="Helvetica,sans-Serif" font-size="14.00">rotate</text>
</g>
<!-- pressure -->
<g id="node3" class="node">
<title>pressure</title>
<path fill="white" stroke="black" d="M72.5,-144C72.5,-144 19.5,-144 19.5,-144 13.5,-144 7.5,-138 7.5,-132 7.5,-132 7.5,-120 7.5,-120 7.5,-114 13.5,-108 19.5,-108 19.5,-108 72.5,-108 72.5,-108 78.5,-108 84.5,-114 84.5,-120 84.5,-120 84.5,-132 84.5,-132 84.5,-138 78.5,-144 72.5,-144"/>
<text text-anchor="middle" x="46" y="-122.3" font-family="Helvetica,sans-Serif" font-size="14.00">pressure</text>
</g>
<!-- vibration -->
<g id="node4" class="node">
<title>vibration</title>
<path fill="white" stroke="black" d="M73,-198C73,-198 19,-198 19,-198 13,-198 7,-192 7,-186 7,-186 7,-174 7,-174 7,-168 13,-162 19,-162 19,-162 73,-162 73,-162 79,-162 85,-168 85,-174 85,-174 85,-186 85,-186 85,-192 79,-198 73,-198"/>
<text text-anchor="middle" x="46" y="-176.3" font-family="Helvetica,sans-Serif" font-size="14.00">vibration</text>
</g>
<!-- err_error1 -->
<g id="node5" class="node">
<title>err_error1</title>
<path fill="white" stroke="black" d="M76.5,-252C76.5,-252 15.5,-252 15.5,-252 9.5,-252 3.5,-246 3.5,-240 3.5,-240 3.5,-228 3.5,-228 3.5,-222 9.5,-216 15.5,-216 15.5,-216 76.5,-216 76.5,-216 82.5,-216 88.5,-222 88.5,-228 88.5,-228 88.5,-240 88.5,-240 88.5,-246 82.5,-252 76.5,-252"/>
<text text-anchor="middle" x="46" y="-230.3" font-family="Helvetica,sans-Serif" font-size="14.00">err_error1</text>
</g>
<!-- err_error2 -->
<g id="node6" class="node">
<title>err_error2</title>
<path fill="white" stroke="black" d="M207.5,-306C207.5,-306 146.5,-306 146.5,-306 140.5,-306 134.5,-300 134.5,-294 134.5,-294 134.5,-282 134.5,-282 134.5,-276 140.5,-270 146.5,-270 146.5,-270 207.5,-270 207.5,-270 213.5,-270 219.5,-276 219.5,-282 219.5,-282 219.5,-294 219.5,-294 219.5,-300 213.5,-306 207.5,-306"/>
<text text-anchor="middle" x="177" y="-284.3" font-family="Helvetica,sans-Serif" font-size="14.00">err_error2</text>
</g>
<!-- err_error3 -->
<g id="node7" class="node">
<title>err_error3</title>
<path fill="white" stroke="black" d="M76.5,-306C76.5,-306 15.5,-306 15.5,-306 9.5,-306 3.5,-300 3.5,-294 3.5,-294 3.5,-282 3.5,-282 3.5,-276 9.5,-270 15.5,-270 15.5,-270 76.5,-270 76.5,-270 82.5,-270 88.5,-276 88.5,-282 88.5,-282 88.5,-294 88.5,-294 88.5,-300 82.5,-306 76.5,-306"/>
<text text-anchor="middle" x="46" y="-284.3" font-family="Helvetica,sans-Serif" font-size="14.00">err_error3</text>
</g>
<!-- err_error3&#45;&gt;err_error2 -->
<g id="edge1" class="edge">
<title>err_error3&#45;&gt;err_error2</title>
<path fill="none" stroke="black" stroke-width="1.2" d="M88.53,-288C99.81,-288 112.16,-288 123.95,-288"/>
<polygon fill="black" stroke="black" stroke-width="1.2" points="124.11,-291.5 134.11,-288 124.11,-284.5 124.11,-291.5"/>
</g>
<!-- err_error4 -->
<g id="node8" class="node">
<title>err_error4</title>
<path fill="white" stroke="black" d="M76.5,-360C76.5,-360 15.5,-360 15.5,-360 9.5,-360 3.5,-354 3.5,-348 3.5,-348 3.5,-336 3.5,-336 3.5,-330 9.5,-324 15.5,-324 15.5,-324 76.5,-324 76.5,-324 82.5,-324 88.5,-330 88.5,-336 88.5,-336 88.5,-348 88.5,-348 88.5,-354 82.5,-360 76.5,-360"/>
<text text-anchor="middle" x="46" y="-338.3" font-family="Helvetica,sans-Serif" font-size="14.00">err_error4</text>
</g>
<!-- err_error5 -->
<g id="node9" class="node">
<title>err_error5</title>
<path fill="white" stroke="black" d="M76.5,-414C76.5,-414 15.5,-414 15.5,-414 9.5,-414 3.5,-408 3.5,-402 3.5,-402 3.5,-390 3.5,-390 3.5,-384 9.5,-378 15.5,-378 15.5,-378 76.5,-378 76.5,-378 82.5,-378 88.5,-384 88.5,-390 88.5,-390 88.5,-402 88.5,-402 88.5,-408 82.5,-414 76.5,-414"/>
<text text-anchor="middle" x="46" y="-392.3" font-family="Helvetica,sans-Serif" font-size="14.00">err_error5</text>
</g>
<!-- mnt_comp1 -->
<g id="node10" class="node">
<title>mnt_comp1</title>
<path fill="white" stroke="black" d="M214,-598C214,-598 140,-598 140,-598 134,-598 128,-592 128,-586 128,-586 128,-574 128,-574 128,-568 134,-562 140,-562 140,-562 214,-562 214,-562 220,-562 226,-568 226,-574 226,-574 226,-586 226,-586 226,-592 220,-598 214,-598"/>
<text text-anchor="middle" x="177" y="-576.3" font-family="Helvetica,sans-Serif" font-size="14.00">mnt_comp1</text>
</g>
<!-- mnt_comp3 -->
<g id="node12" class="node">
<title>mnt_comp3</title>
<path fill="white" stroke="black" d="M482,-575C482,-575 408,-575 408,-575 402,-575 396,-569 396,-563 396,-563 396,-551 396,-551 396,-545 402,-539 408,-539 408,-539 482,-539 482,-539 488,-539 494,-545 494,-551 494,-551 494,-563 494,-563 494,-569 488,-575 482,-575"/>
<text text-anchor="middle" x="445" y="-553.3" font-family="Helvetica,sans-Serif" font-size="14.00">mnt_comp3</text>
</g>
<!-- mnt_comp1&#45;&gt;mnt_comp3 -->
<g id="edge2" class="edge">
<title>mnt_comp1&#45;&gt;mnt_comp3</title>
<path fill="none" stroke="black" stroke-width="1.2" d="M226.17,-575.83C270.94,-571.96 337.73,-566.19 385.54,-562.05"/>
<polygon fill="black" stroke="black" stroke-width="1.2" points="386.08,-565.52 395.74,-561.17 385.47,-558.55 386.08,-565.52"/>
</g>
<!-- mnt_comp4 -->
<g id="node13" class="node">
<title>mnt_comp4</title>
<path fill="white" stroke="black" d="M348,-552C348,-552 274,-552 274,-552 268,-552 262,-546 262,-540 262,-540 262,-528 262,-528 262,-522 268,-516 274,-516 274,-516 348,-516 348,-516 354,-516 360,-522 360,-528 360,-528 360,-540 360,-540 360,-546 354,-552 348,-552"/>
<text text-anchor="middle" x="311" y="-530.3" font-family="Helvetica,sans-Serif" font-size="14.00">mnt_comp4</text>
</g>
<!-- mnt_comp1&#45;&gt;mnt_comp4 -->
<g id="edge3" class="edge">
<title>mnt_comp1&#45;&gt;mnt_comp4</title>
<path fill="none" stroke="black" stroke-width="1.2" d="M226.03,-563.26C234.49,-560.31 243.38,-557.22 252.08,-554.18"/>
<polygon fill="black" stroke="black" stroke-width="1.2" points="253.49,-557.4 261.79,-550.8 251.19,-550.79 253.49,-557.4"/>
</g>
<!-- mnt_comp2 -->
<g id="node11" class="node">
<title>mnt_comp2</title>
<path fill="white" stroke="black" d="M214,-468C214,-468 140,-468 140,-468 134,-468 128,-462 128,-456 128,-456 128,-444 128,-444 128,-438 134,-432 140,-432 140,-432 214,-432 214,-432 220,-432 226,-438 226,-444 226,-444 226,-456 226,-456 226,-462 220,-468 214,-468"/>
<text text-anchor="middle" x="177" y="-446.3" font-family="Helvetica,sans-Serif" font-size="14.00">mnt_comp2</text>
</g>
<!-- mnt_comp2&#45;&gt;mnt_comp4 -->
<g id="edge5" class="edge">
<title>mnt_comp2&#45;&gt;mnt_comp4</title>
<path fill="none" stroke="black" stroke-width="1.2" d="M206.32,-468.02C225.67,-480.34 251.53,-496.79 272.58,-510.19"/>
<polygon fill="black" stroke="black" stroke-width="1.2" points="270.96,-513.3 281.27,-515.72 274.72,-507.4 270.96,-513.3"/>
</g>
<!-- mnt_comp4&#45;&gt;mnt_comp3 -->
<g id="edge7" class="edge">
<title>mnt_comp4&#45;&gt;mnt_comp3</title>
<path fill="none" stroke="black" stroke-width="1.2" d="M360.03,-542.37C368.4,-543.83 377.19,-545.36 385.8,-546.86"/>
<polygon fill="black" stroke="black" stroke-width="1.2" points="385.33,-550.33 395.79,-548.6 386.54,-543.43 385.33,-550.33"/>
</g>
<!-- fail_comp1 -->
<g id="node14" class="node">
<title>fail_comp1</title>
<path fill="white" stroke="black" d="M80,-598C80,-598 12,-598 12,-598 6,-598 0,-592 0,-586 0,-586 0,-574 0,-574 0,-568 6,-562 12,-562 12,-562 80,-562 80,-562 86,-562 92,-568 92,-574 92,-574 92,-586 92,-586 92,-592 86,-598 80,-598"/>
<text text-anchor="middle" x="46" y="-576.3" font-family="Helvetica,sans-Serif" font-size="14.00">fail_comp1</text>
</g>
<!-- fail_comp1&#45;&gt;mnt_comp1 -->
<g id="edge4" class="edge">
<title>fail_comp1&#45;&gt;mnt_comp1</title>
<path fill="none" stroke="black" stroke-width="1.2" d="M92.12,-580C100.28,-580 108.9,-580 117.38,-580"/>
<polygon fill="black" stroke="black" stroke-width="1.2" points="117.62,-583.5 127.62,-580 117.62,-576.5 117.62,-583.5"/>
</g>
<!-- fail_comp1&#45;&gt;mnt_comp3 -->
<g id="edge8" class="edge">
<title>fail_comp1&#45;&gt;mnt_comp3</title>
<path fill="none" stroke="black" stroke-width="1.2" d="M92.19,-597.91C103.69,-601.67 116.15,-605.08 128,-607 218.03,-621.61 322.59,-596.9 385.99,-577.31"/>
<polygon fill="black" stroke="black" stroke-width="1.2" points="387.31,-580.56 395.8,-574.21 385.21,-573.88 387.31,-580.56"/>
</g>
<!-- fail_comp1&#45;&gt;mnt_comp4 -->
<g id="edge10" class="edge">
<title>fail_comp1&#45;&gt;mnt_comp4</title>
<path fill="none" stroke="black" stroke-width="1.2" d="M92.35,-562.95C103.85,-559.17 116.26,-555.54 128,-553 168.7,-544.2 215.43,-539.43 251.35,-536.87"/>
<polygon fill="black" stroke="black" stroke-width="1.2" points="251.91,-540.34 261.65,-536.18 251.44,-533.36 251.91,-540.34"/>
</g>
<!-- fail_comp2 -->
<g id="node15" class="node">
<title>fail_comp2</title>
<path fill="white" stroke="black" d="M80,-468C80,-468 12,-468 12,-468 6,-468 0,-462 0,-456 0,-456 0,-444 0,-444 0,-438 6,-432 12,-432 12,-432 80,-432 80,-432 86,-432 92,-438 92,-444 92,-444 92,-456 92,-456 92,-462 86,-468 80,-468"/>
<text text-anchor="middle" x="46" y="-446.3" font-family="Helvetica,sans-Serif" font-size="14.00">fail_comp2</text>
</g>
<!-- fail_comp2&#45;&gt;mnt_comp2 -->
<g id="edge6" class="edge">
<title>fail_comp2&#45;&gt;mnt_comp2</title>
<path fill="none" stroke="black" stroke-width="1.2" d="M92.12,-450C100.28,-450 108.9,-450 117.38,-450"/>
<polygon fill="black" stroke="black" stroke-width="1.2" points="117.62,-453.5 127.62,-450 117.62,-446.5 117.62,-453.5"/>
</g>
<!-- fail_comp2&#45;&gt;mnt_comp3 -->
<g id="edge9" class="edge">
<title>fail_comp2&#45;&gt;mnt_comp3</title>
<path fill="none" stroke="black" stroke-width="1.2" d="M92.19,-432.09C103.69,-428.33 116.15,-424.92 128,-423 170.99,-416.02 184.09,-411.15 226,-423 301.43,-444.33 376.45,-499.92 415.78,-532.4"/>
<polygon fill="black" stroke="black" stroke-width="1.2" points="413.71,-535.23 423.62,-538.96 418.2,-529.86 413.71,-535.23"/>
</g>
<!-- fail_comp2&#45;&gt;mnt_comp4 -->
<g id="edge11" class="edge">
<title>fail_comp2&#45;&gt;mnt_comp4</title>
<path fill="none" stroke="black" stroke-width="1.2" d="M92.36,-465.28C103.97,-469.15 116.43,-473.26 128,-477 169.33,-490.36 216.08,-504.99 251.86,-516.09"/>
<polygon fill="black" stroke="black" stroke-width="1.2" points="251.05,-519.5 261.64,-519.12 253.13,-512.82 251.05,-519.5"/>
</g>
</g>
</svg>
