<?xml version="1.0" encoding="UTF-8" standalone="no"?>
<!DOCTYPE svg PUBLIC "-//W3C//DTD SVG 1.1//EN"
 "http://www.w3.org/Graphics/SVG/1.1/DTD/svg11.dtd">
<!-- Generated by graphviz version 2.50.0 (0)
 -->
<!-- Title: G Pages: 1 -->
<svg width="463pt" height="232pt"
 viewBox="0.00 0.00 463.00 232.00" xmlns="http://www.w3.org/2000/svg" xmlns:xlink="http://www.w3.org/1999/xlink">
<g id="graph0" class="graph" transform="scale(1 1) rotate(0) translate(4 228)">
<title>G</title>
<polygon fill="white" stroke="transparent" points="-4,4 -4,-228 459,-228 459,4 -4,4"/>
<text text-anchor="middle" x="227.5" y="-207.2" font-family="Times,serif" font-size="16.00">model=model4/varlingam_telemetry.json [aggregate]</text>
<!-- pressure -->
<g id="node1" class="node">
<title>pressure</title>
<path fill="white" stroke="black" d="M254,-36C254,-36 201,-36 201,-36 195,-36 189,-30 189,-24 189,-24 189,-12 189,-12 189,-6 195,0 201,0 201,0 254,0 254,0 260,0 266,-6 266,-12 266,-12 266,-24 266,-24 266,-30 260,-36 254,-36"/>
<text text-anchor="middle" x="227.5" y="-14.3" font-family="Helvetica,sans-Serif" font-size="14.00">pressure</text>
</g>
<!-- rotate -->
<g id="node2" class="node">
<title>rotate</title>
<path fill="white" stroke="black" d="M244,-90C244,-90 211,-90 211,-90 205,-90 199,-84 199,-78 199,-78 199,-66 199,-66 199,-60 205,-54 211,-54 211,-54 244,-54 244,-54 250,-54 256,-60 256,-66 256,-66 256,-78 256,-78 256,-84 250,-90 244,-90"/>
<text text-anchor="middle" x="227.5" y="-68.3" font-family="Helvetica,sans-Serif" font-size="14.00">rotate</text>
</g>
<!-- vibration -->
<g id="node3" class="node">
<title>vibration</title>
<path fill="white" stroke="black" d="M254.5,-144C254.5,-144 200.5,-144 200.5,-144 194.5,-144 188.5,-138 188.5,-132 188.5,-132 188.5,-120 188.5,-120 188.5,-114 194.5,-108 200.5,-108 200.5,-108 254.5,-108 254.5,-108 260.5,-108 266.5,-114 266.5,-120 266.5,-120 266.5,-132 266.5,-132 266.5,-138 260.5,-144 254.5,-144"/>
<text text-anchor="middle" x="227.5" y="-122.3" font-family="Helvetica,sans-Serif" font-size="14.00">vibration</text>
</g>
<!-- volt -->
<g id="node4" class="node">
<title>volt</title>
<path fill="white" stroke="black" d="M242.5,-198C242.5,-198 212.5,-198 212.5,-198 206.5,-198 200.5,-192 200.5,-186 200.5,-186 200.5,-174 200.5,-174 200.5,-168 206.5,-162 212.5,-162 212.5,-162 242.5,-162 242.5,-162 248.5,-162 254.5,-168 254.5,-174 254.5,-174 254.5,-186 254.5,-186 254.5,-192 248.5,-198 242.5,-198"/>
<text text-anchor="middle" x="227.5" y="-176.3" font-family="Helvetica,sans-Serif" font-size="14.00">volt</text>
</g>
</g>
</svg>
