<?xml version="1.0" encoding="UTF-8" standalone="no"?>
<!DOCTYPE svg PUBLIC "-//W3C//DTD SVG 1.1//EN"
 "http://www.w3.org/Graphics/SVG/1.1/DTD/svg11.dtd">
<!-- Generated by graphviz version 2.50.0 (0)
 -->
<!-- Title: G Pages: 1 -->
<svg width="757pt" height="401pt"
 viewBox="0.00 0.00 757.00 401.00" xmlns="http://www.w3.org/2000/svg" xmlns:xlink="http://www.w3.org/1999/xlink">
<g id="graph0" class="graph" transform="scale(1 1) rotate(0) translate(4 397)">
<title>G</title>
<polygon fill="white" stroke="transparent" points="-4,4 -4,-397 753,-397 753,4 -4,4"/>
<text text-anchor="middle" x="374.5" y="-376.2" font-family="Times,serif" font-size="16.00">model=model3/varlingam_mixed.json [machine 84]</text>
<!-- volt -->
<g id="node1" class="node">
<title>volt</title>
<path fill="white" stroke="black" d="M57.5,-151C57.5,-151 27.5,-151 27.5,-151 21.5,-151 15.5,-145 15.5,-139 15.5,-139 15.5,-127 15.5,-127 15.5,-121 21.5,-115 27.5,-115 27.5,-115 57.5,-115 57.5,-115 63.5,-115 69.5,-121 69.5,-127 69.5,-127 69.5,-139 69.5,-139 69.5,-145 63.5,-151 57.5,-151"/>
<text text-anchor="middle" x="42.5" y="-129.3" font-family="Helvetica,sans-Serif" font-size="14.00">volt</text>
</g>
<!-- fail_comp1 -->
<g id="node14" class="node">
<title>fail_comp1</title>
<path fill="white" stroke="black" d="M201,-151C201,-151 133,-151 133,-151 127,-151 121,-145 121,-139 121,-139 121,-127 121,-127 121,-121 127,-115 133,-115 133,-115 201,-115 201,-115 207,-115 213,-121 213,-127 213,-127 213,-139 213,-139 213,-145 207,-151 201,-151"/>
<text text-anchor="middle" x="167" y="-129.3" font-family="Helvetica,sans-Serif" font-size="14.00">fail_comp1</text>
</g>
<!-- volt&#45;&gt;fail_comp1 -->
<g id="edge1" class="edge">
<title>volt&#45;&gt;fail_comp1</title>
<path fill="none" stroke="black" stroke-width="1.2" d="M69.78,-133C81.77,-133 96.46,-133 110.7,-133"/>
<polygon fill="black" stroke="black" stroke-width="1.2" points="110.96,-136.5 120.96,-133 110.96,-129.5 110.96,-136.5"/>
</g>
<!-- rotate -->
<g id="node2" class="node">
<title>rotate</title>
<path fill="white" stroke="black" d="M183.5,-36C183.5,-36 150.5,-36 150.5,-36 144.5,-36 138.5,-30 138.5,-24 138.5,-24 138.5,-12 138.5,-12 138.5,-6 144.5,0 150.5,0 150.5,0 183.5,0 183.5,0 189.5,0 195.5,-6 195.5,-12 195.5,-12 195.5,-24 195.5,-24 195.5,-30 189.5,-36 183.5,-36"/>
<text text-anchor="middle" x="167" y="-14.3" font-family="Helvetica,sans-Serif" font-size="14.00">rotate</text>
</g>
<!-- fail_comp2 -->
<g id="node15" class="node">
<title>fail_comp2</title>
<path fill="white" stroke="black" d="M332,-36C332,-36 264,-36 264,-36 258,-36 252,-30 252,-24 252,-24 252,-12 252,-12 252,-6 258,0 264,0 264,0 332,0 332,0 338,0 344,-6 344,-12 344,-12 344,-24 344,-24 344,-30 338,-36 332,-36"/>
<text text-anchor="middle" x="298" y="-14.3" font-family="Helvetica,sans-Serif" font-size="14.00">fail_comp2</text>
</g>
<!-- rotate&#45;&gt;fail_comp2 -->
<g id="edge2" class="edge">
<title>rotate&#45;&gt;fail_comp2</title>
<path fill="none" stroke="black" stroke-width="1.2" d="M195.67,-18C209.09,-18 225.72,-18 241.59,-18"/>
<polygon fill="black" stroke="black" stroke-width="1.2" points="241.87,-21.5 251.87,-18 241.87,-14.5 241.87,-21.5"/>
</g>
<!-- pressure -->
<g id="node3" class="node">
<title>pressure</title>
<path fill="white" stroke="black" d="M69,-205C69,-205 16,-205 16,-205 10,-205 4,-199 4,-193 4,-193 4,-181 4,-181 4,-175 10,-169 16,-169 16,-169 69,-169 69,-169 75,-169 81,-175 81,-181 81,-181 81,-193 81,-193 81,-199 75,-205 69,-205"/>
<text text-anchor="middle" x="42.5" y="-183.3" font-family="Helvetica,sans-Serif" font-size="14.00">pressure</text>
</g>
<!-- vibration -->
<g id="node4" class="node">
<title>vibration</title>
<path fill="white" stroke="black" d="M69.5,-259C69.5,-259 15.5,-259 15.5,-259 9.5,-259 3.5,-253 3.5,-247 3.5,-247 3.5,-235 3.5,-235 3.5,-229 9.5,-223 15.5,-223 15.5,-223 69.5,-223 69.5,-223 75.5,-223 81.5,-229 81.5,-235 81.5,-235 81.5,-247 81.5,-247 81.5,-253 75.5,-259 69.5,-259"/>
<text text-anchor="middle" x="42.5" y="-237.3" font-family="Helvetica,sans-Serif" font-size="14.00">vibration</text>
</g>
<!-- err_error1 -->
<g id="node5" class="node">
<title>err_error1</title>
<path fill="white" stroke="black" d="M730.5,-334C730.5,-334 669.5,-334 669.5,-334 663.5,-334 657.5,-328 657.5,-322 657.5,-322 657.5,-310 657.5,-310 657.5,-304 663.5,-298 669.5,-298 669.5,-298 730.5,-298 730.5,-298 736.5,-298 742.5,-304 742.5,-310 742.5,-310 742.5,-322 742.5,-322 742.5,-328 736.5,-334 730.5,-334"/>
<text text-anchor="middle" x="700" y="-312.3" font-family="Helvetica,sans-Serif" font-size="14.00">err_error1</text>
</g>
<!-- err_error2 -->
<g id="node6" class="node">
<title>err_error2</title>
<path fill="white" stroke="black" d="M462.5,-315C462.5,-315 401.5,-315 401.5,-315 395.5,-315 389.5,-309 389.5,-303 389.5,-303 389.5,-291 389.5,-291 389.5,-285 395.5,-279 401.5,-279 401.5,-279 462.5,-279 462.5,-279 468.5,-279 474.5,-285 474.5,-291 474.5,-291 474.5,-303 474.5,-303 474.5,-309 468.5,-315 462.5,-315"/>
<text text-anchor="middle" x="432" y="-293.3" font-family="Helvetica,sans-Serif" font-size="14.00">err_error2</text>
</g>
<!-- err_error3 -->
<g id="node7" class="node">
<title>err_error3</title>
<path fill="white" stroke="black" d="M596.5,-334C596.5,-334 535.5,-334 535.5,-334 529.5,-334 523.5,-328 523.5,-322 523.5,-322 523.5,-310 523.5,-310 523.5,-304 529.5,-298 535.5,-298 535.5,-298 596.5,-298 596.5,-298 602.5,-298 608.5,-304 608.5,-310 608.5,-310 608.5,-322 608.5,-322 608.5,-328 602.5,-334 596.5,-334"/>
<text text-anchor="middle" x="566" y="-312.3" font-family="Helvetica,sans-Serif" font-size="14.00">err_error3</text>
</g>
<!-- err_error2&#45;&gt;err_error3 -->
<g id="edge4" class="edge">
<title>err_error2&#45;&gt;err_error3</title>
<path fill="none" stroke="black" stroke-width="1.2" d="M474.77,-303.01C486.92,-304.76 500.36,-306.7 513.06,-308.52"/>
<polygon fill="black" stroke="black" stroke-width="1.2" points="512.66,-312 523.05,-309.96 513.65,-305.07 512.66,-312"/>
</g>
<!-- mnt_comp4 -->
<g id="node13" class="node">
<title>mnt_comp4</title>
<path fill="white" stroke="black" d="M737,-231C737,-231 663,-231 663,-231 657,-231 651,-225 651,-219 651,-219 651,-207 651,-207 651,-201 657,-195 663,-195 663,-195 737,-195 737,-195 743,-195 749,-201 749,-207 749,-207 749,-219 749,-219 749,-225 743,-231 737,-231"/>
<text text-anchor="middle" x="700" y="-209.3" font-family="Helvetica,sans-Serif" font-size="14.00">mnt_comp4</text>
</g>
<!-- err_error2&#45;&gt;mnt_comp4 -->
<g id="edge5" class="edge">
<title>err_error2&#45;&gt;mnt_comp4</title>
<path fill="none" stroke="black" stroke-width="1.2" d="M474.56,-286.63C511.69,-277.07 567.4,-261.97 615,-246 625.02,-242.64 635.59,-238.76 645.72,-234.86"/>
<polygon fill="black" stroke="black" stroke-width="1.2" points="647.23,-238.03 655.28,-231.14 644.69,-231.51 647.23,-238.03"/>
</g>
<!-- err_error3&#45;&gt;err_error1 -->
<g id="edge3" class="edge">
<title>err_error3&#45;&gt;err_error1</title>
<path fill="none" stroke="black" stroke-width="1.2" d="M608.77,-316C620.8,-316 634.09,-316 646.68,-316"/>
<polygon fill="black" stroke="black" stroke-width="1.2" points="647.05,-319.5 657.05,-316 647.05,-312.5 647.05,-319.5"/>
</g>
<!-- err_error3&#45;&gt;mnt_comp4 -->
<g id="edge6" class="edge">
<title>err_error3&#45;&gt;mnt_comp4</title>
<path fill="none" stroke="black" stroke-width="1.2" d="M595.29,-297.91C601.86,-293.5 608.76,-288.7 615,-284 634.23,-269.53 654.89,-252.1 670.9,-238.13"/>
<polygon fill="black" stroke="black" stroke-width="1.2" points="673.62,-240.41 678.82,-231.18 669,-235.15 673.62,-240.41"/>
</g>
<!-- err_error4 -->
<g id="node8" class="node">
<title>err_error4</title>
<path fill="white" stroke="black" d="M73,-313C73,-313 12,-313 12,-313 6,-313 0,-307 0,-301 0,-301 0,-289 0,-289 0,-283 6,-277 12,-277 12,-277 73,-277 73,-277 79,-277 85,-283 85,-289 85,-289 85,-301 85,-301 85,-307 79,-313 73,-313"/>
<text text-anchor="middle" x="42.5" y="-291.3" font-family="Helvetica,sans-Serif" font-size="14.00">err_error4</text>
</g>
<!-- err_error5 -->
<g id="node9" class="node">
<title>err_error5</title>
<path fill="white" stroke="black" d="M73,-367C73,-367 12,-367 12,-367 6,-367 0,-361 0,-355 0,-355 0,-343 0,-343 0,-337 6,-331 12,-331 12,-331 73,-331 73,-331 79,-331 85,-337 85,-343 85,-343 85,-355 85,-355 85,-361 79,-367 73,-367"/>
<text text-anchor="middle" x="42.5" y="-345.3" font-family="Helvetica,sans-Serif" font-size="14.00">err_error5</text>
</g>
<!-- mnt_comp1 -->
<g id="node10" class="node">
<title>mnt_comp1</title>
<path fill="white" stroke="black" d="M335,-174C335,-174 261,-174 261,-174 255,-174 249,-168 249,-162 249,-162 249,-150 249,-150 249,-144 255,-138 261,-138 261,-138 335,-138 335,-138 341,-138 347,-144 347,-150 347,-150 347,-162 347,-162 347,-168 341,-174 335,-174"/>
<text text-anchor="middle" x="298" y="-152.3" font-family="Helvetica,sans-Serif" font-size="14.00">mnt_comp1</text>
</g>
<!-- mnt_comp2 -->
<g id="node11" class="node">
<title>mnt_comp2</title>
<path fill="white" stroke="black" d="M469,-128C469,-128 395,-128 395,-128 389,-128 383,-122 383,-116 383,-116 383,-104 383,-104 383,-98 389,-92 395,-92 395,-92 469,-92 469,-92 475,-92 481,-98 481,-104 481,-104 481,-116 481,-116 481,-122 475,-128 469,-128"/>
<text text-anchor="middle" x="432" y="-106.3" font-family="Helvetica,sans-Serif" font-size="14.00">mnt_comp2</text>
</g>
<!-- mnt_comp1&#45;&gt;mnt_comp2 -->
<g id="edge7" class="edge">
<title>mnt_comp1&#45;&gt;mnt_comp2</title>
<path fill="none" stroke="black" stroke-width="1.2" d="M347.03,-139.26C355.49,-136.31 364.38,-133.22 373.08,-130.18"/>
<polygon fill="black" stroke="black" stroke-width="1.2" points="374.49,-133.4 382.79,-126.8 372.19,-126.79 374.49,-133.4"/>
</g>
<!-- mnt_comp3 -->
<g id="node12" class="node">
<title>mnt_comp3</title>
<path fill="white" stroke="black" d="M603,-128C603,-128 529,-128 529,-128 523,-128 517,-122 517,-116 517,-116 517,-104 517,-104 517,-98 523,-92 529,-92 529,-92 603,-92 603,-92 609,-92 615,-98 615,-104 615,-104 615,-116 615,-116 615,-122 609,-128 603,-128"/>
<text text-anchor="middle" x="566" y="-106.3" font-family="Helvetica,sans-Serif" font-size="14.00">mnt_comp3</text>
</g>
<!-- mnt_comp1&#45;&gt;mnt_comp3 -->
<g id="edge8" class="edge">
<title>mnt_comp1&#45;&gt;mnt_comp3</title>
<path fill="none" stroke="black" stroke-width="1.2" d="M347.32,-153.68C384.24,-151.26 436.23,-146.42 481,-137 489.49,-135.21 498.35,-132.89 506.98,-130.36"/>
<polygon fill="black" stroke="black" stroke-width="1.2" points="508.05,-133.7 516.6,-127.44 506.01,-127 508.05,-133.7"/>
</g>
<!-- mnt_comp1&#45;&gt;mnt_comp4 -->
<g id="edge9" class="edge">
<title>mnt_comp1&#45;&gt;mnt_comp4</title>
<path fill="none" stroke="black" stroke-width="1.2" d="M347.25,-162.88C420.93,-173.37 561.26,-193.37 640.59,-204.68"/>
<polygon fill="black" stroke="black" stroke-width="1.2" points="640.5,-208.2 650.89,-206.14 641.49,-201.27 640.5,-208.2"/>
</g>
<!-- mnt_comp2&#45;&gt;mnt_comp3 -->
<g id="edge11" class="edge">
<title>mnt_comp2&#45;&gt;mnt_comp3</title>
<path fill="none" stroke="black" stroke-width="1.2" d="M481.03,-110C489.31,-110 498,-110 506.52,-110"/>
<polygon fill="black" stroke="black" stroke-width="1.2" points="506.79,-113.5 516.79,-110 506.79,-106.5 506.79,-113.5"/>
</g>
<!-- mnt_comp3&#45;&gt;mnt_comp4 -->
<g id="edge14" class="edge">
<title>mnt_comp3&#45;&gt;mnt_comp4</title>
<path fill="none" stroke="black" stroke-width="1.2" d="M590.3,-128.18C611.75,-144.92 643.74,-169.88 667.48,-188.4"/>
<polygon fill="black" stroke="black" stroke-width="1.2" points="665.46,-191.27 675.49,-194.66 669.76,-185.75 665.46,-191.27"/>
</g>
<!-- fail_comp1&#45;&gt;mnt_comp1 -->
<g id="edge10" class="edge">
<title>fail_comp1&#45;&gt;mnt_comp1</title>
<path fill="none" stroke="black" stroke-width="1.2" d="M213.12,-141.04C221.37,-142.52 230.09,-144.07 238.66,-145.6"/>
<polygon fill="black" stroke="black" stroke-width="1.2" points="238.16,-149.06 248.62,-147.37 239.38,-142.17 238.16,-149.06"/>
</g>
<!-- fail_comp1&#45;&gt;mnt_comp2 -->
<g id="edge12" class="edge">
<title>fail_comp1&#45;&gt;mnt_comp2</title>
<path fill="none" stroke="black" stroke-width="1.2" d="M213.21,-129.05C257.27,-125.19 324.46,-119.32 372.56,-115.11"/>
<polygon fill="black" stroke="black" stroke-width="1.2" points="373.16,-118.57 382.82,-114.21 372.55,-111.6 373.16,-118.57"/>
</g>
<!-- fail_comp1&#45;&gt;mnt_comp3 -->
<g id="edge15" class="edge">
<title>fail_comp1&#45;&gt;mnt_comp3</title>
<path fill="none" stroke="black" stroke-width="1.2" d="M213.08,-116.84C273.89,-97.09 385.59,-68.04 481,-83 489.8,-84.38 498.93,-86.52 507.79,-89.02"/>
<polygon fill="black" stroke="black" stroke-width="1.2" points="507.07,-92.45 517.65,-91.95 509.07,-85.74 507.07,-92.45"/>
</g>
<!-- fail_comp1&#45;&gt;mnt_comp4 -->
<g id="edge17" class="edge">
<title>fail_comp1&#45;&gt;mnt_comp4</title>
<path fill="none" stroke="black" stroke-width="1.2" d="M191,-151.2C206.48,-162.4 227.84,-175.92 249,-183 383.63,-228.07 553.3,-224.34 640.83,-218.34"/>
<polygon fill="black" stroke="black" stroke-width="1.2" points="641.11,-221.82 650.83,-217.61 640.61,-214.84 641.11,-221.82"/>
</g>
<!-- fail_comp2&#45;&gt;mnt_comp2 -->
<g id="edge13" class="edge">
<title>fail_comp2&#45;&gt;mnt_comp2</title>
<path fill="none" stroke="black" stroke-width="1.2" d="M325.08,-36.18C345.6,-50.48 374.37,-70.53 396.74,-86.12"/>
<polygon fill="black" stroke="black" stroke-width="1.2" points="394.77,-89.01 404.98,-91.86 398.77,-83.27 394.77,-89.01"/>
</g>
<!-- fail_comp2&#45;&gt;mnt_comp3 -->
<g id="edge16" class="edge">
<title>fail_comp2&#45;&gt;mnt_comp3</title>
<path fill="none" stroke="black" stroke-width="1.2" d="M344.32,-20.37C382.13,-23.65 436.77,-31.45 481,-50 501.36,-58.54 521.57,-72.75 537.07,-85.2"/>
<polygon fill="black" stroke="black" stroke-width="1.2" points="535.23,-88.22 545.17,-91.89 539.69,-82.82 535.23,-88.22"/>
</g>
<!-- fail_comp2&#45;&gt;mnt_comp4 -->
<g id="edge18" class="edge">
<title>fail_comp2&#45;&gt;mnt_comp4</title>
<path fill="none" stroke="black" stroke-width="1.2" d="M344.12,-13.99C381.33,-11.88 435.25,-11.55 481,-22 544.79,-36.57 565.47,-40.24 615,-83 648.26,-111.71 673.3,-156.78 687.05,-185.6"/>
<polygon fill="black" stroke="black" stroke-width="1.2" points="683.89,-187.11 691.28,-194.7 690.24,-184.16 683.89,-187.11"/>
</g>
</g>
</svg>
