<?xml version="1.0" encoding="UTF-8" standalone="no"?>
<!DOCTYPE svg PUBLIC "-//W3C//DTD SVG 1.1//EN"
 "http://www.w3.org/Graphics/SVG/1.1/DTD/svg11.dtd">
<!-- Generated by graphviz version 2.50.0 (0)
 -->
<!-- Title: G Pages: 1 -->
<svg width="502pt" height="574pt"
 viewBox="0.00 0.00 502.00 574.27" xmlns="http://www.w3.org/2000/svg" xmlns:xlink="http://www.w3.org/1999/xlink">
<g id="graph0" class="graph" transform="scale(1 1) rotate(0) translate(4 570.27)">
<title>G</title>
<polygon fill="white" stroke="transparent" points="-4,4 -4,-570.27 498,-570.27 498,4 -4,4"/>
<text text-anchor="middle" x="247" y="-549.47" font-family="Times,serif" font-size="16.00">model=model3/varlingam_mixed.json [machine 70]</text>
<!-- volt -->
<g id="node1" class="node">
<title>volt</title>
<path fill="white" stroke="black" d="M192,-208.27C192,-208.27 162,-208.27 162,-208.27 156,-208.27 150,-202.27 150,-196.27 150,-196.27 150,-184.27 150,-184.27 150,-178.27 156,-172.27 162,-172.27 162,-172.27 192,-172.27 192,-172.27 198,-172.27 204,-178.27 204,-184.27 204,-184.27 204,-196.27 204,-196.27 204,-202.27 198,-208.27 192,-208.27"/>
<text text-anchor="middle" x="177" y="-186.57" font-family="Helvetica,sans-Serif" font-size="14.00">volt</text>
</g>
<!-- rotate -->
<g id="node2" class="node">
<title>rotate</title>
<path fill="white" stroke="black" d="M62.5,-216.27C62.5,-216.27 29.5,-216.27 29.5,-216.27 23.5,-216.27 17.5,-210.27 17.5,-204.27 17.5,-204.27 17.5,-192.27 17.5,-192.27 17.5,-186.27 23.5,-180.27 29.5,-180.27 29.5,-180.27 62.5,-180.27 62.5,-180.27 68.5,-180.27 74.5,-186.27 74.5,-192.27 74.5,-192.27 74.5,-204.27 74.5,-204.27 74.5,-210.27 68.5,-216.27 62.5,-216.27"/>
<text text-anchor="middle" x="46" y="-194.57" font-family="Helvetica,sans-Serif" font-size="14.00">rotate</text>
</g>
<!-- pressure -->
<g id="node3" class="node">
<title>pressure</title>
<path fill="white" stroke="black" d="M72.5,-270.27C72.5,-270.27 19.5,-270.27 19.5,-270.27 13.5,-270.27 7.5,-264.27 7.5,-258.27 7.5,-258.27 7.5,-246.27 7.5,-246.27 7.5,-240.27 13.5,-234.27 19.5,-234.27 19.5,-234.27 72.5,-234.27 72.5,-234.27 78.5,-234.27 84.5,-240.27 84.5,-246.27 84.5,-246.27 84.5,-258.27 84.5,-258.27 84.5,-264.27 78.5,-270.27 72.5,-270.27"/>
<text text-anchor="middle" x="46" y="-248.57" font-family="Helvetica,sans-Serif" font-size="14.00">pressure</text>
</g>
<!-- vibration -->
<g id="node4" class="node">
<title>vibration</title>
<path fill="white" stroke="black" d="M73,-324.27C73,-324.27 19,-324.27 19,-324.27 13,-324.27 7,-318.27 7,-312.27 7,-312.27 7,-300.27 7,-300.27 7,-294.27 13,-288.27 19,-288.27 19,-288.27 73,-288.27 73,-288.27 79,-288.27 85,-294.27 85,-300.27 85,-300.27 85,-312.27 85,-312.27 85,-318.27 79,-324.27 73,-324.27"/>
<text text-anchor="middle" x="46" y="-302.57" font-family="Helvetica,sans-Serif" font-size="14.00">vibration</text>
</g>
<!-- err_error1 -->
<g id="node5" class="node">
<title>err_error1</title>
<path fill="white" stroke="black" d="M76.5,-378.27C76.5,-378.27 15.5,-378.27 15.5,-378.27 9.5,-378.27 3.5,-372.27 3.5,-366.27 3.5,-366.27 3.5,-354.27 3.5,-354.27 3.5,-348.27 9.5,-342.27 15.5,-342.27 15.5,-342.27 76.5,-342.27 76.5,-342.27 82.5,-342.27 88.5,-348.27 88.5,-354.27 88.5,-354.27 88.5,-366.27 88.5,-366.27 88.5,-372.27 82.5,-378.27 76.5,-378.27"/>
<text text-anchor="middle" x="46" y="-356.57" font-family="Helvetica,sans-Serif" font-size="14.00">err_error1</text>
</g>
<!-- err_error2 -->
<g id="node6" class="node">
<title>err_error2</title>
<path fill="white" stroke="black" d="M76.5,-432.27C76.5,-432.27 15.5,-432.27 15.5,-432.27 9.5,-432.27 3.5,-426.27 3.5,-420.27 3.5,-420.27 3.5,-408.27 3.5,-408.27 3.5,-402.27 9.5,-396.27 15.5,-396.27 15.5,-396.27 76.5,-396.27 76.5,-396.27 82.5,-396.27 88.5,-402.27 88.5,-408.27 88.5,-408.27 88.5,-420.27 88.5,-420.27 88.5,-426.27 82.5,-432.27 76.5,-432.27"/>
<text text-anchor="middle" x="46" y="-410.57" font-family="Helvetica,sans-Serif" font-size="14.00">err_error2</text>
</g>
<!-- err_error3 -->
<g id="node7" class="node">
<title>err_error3</title>
<path fill="white" stroke="black" d="M207.5,-432.27C207.5,-432.27 146.5,-432.27 146.5,-432.27 140.5,-432.27 134.5,-426.27 134.5,-420.27 134.5,-420.27 134.5,-408.27 134.5,-408.27 134.5,-402.27 140.5,-396.27 146.5,-396.27 146.5,-396.27 207.5,-396.27 207.5,-396.27 213.5,-396.27 219.5,-402.27 219.5,-408.27 219.5,-408.27 219.5,-420.27 219.5,-420.27 219.5,-426.27 213.5,-432.27 207.5,-432.27"/>
<text text-anchor="middle" x="177" y="-410.57" font-family="Helvetica,sans-Serif" font-size="14.00">err_error3</text>
</g>
<!-- err_error2&#45;&gt;err_error3 -->
<g id="edge2" class="edge">
<title>err_error2&#45;&gt;err_error3</title>
<path fill="none" stroke="black" stroke-width="1.2" d="M88.53,-414.27C99.81,-414.27 112.16,-414.27 123.95,-414.27"/>
<polygon fill="black" stroke="black" stroke-width="1.2" points="124.11,-417.77 134.11,-414.27 124.11,-410.77 124.11,-417.77"/>
</g>
<!-- err_error4 -->
<g id="node8" class="node">
<title>err_error4</title>
<path fill="white" stroke="black" d="M76.5,-486.27C76.5,-486.27 15.5,-486.27 15.5,-486.27 9.5,-486.27 3.5,-480.27 3.5,-474.27 3.5,-474.27 3.5,-462.27 3.5,-462.27 3.5,-456.27 9.5,-450.27 15.5,-450.27 15.5,-450.27 76.5,-450.27 76.5,-450.27 82.5,-450.27 88.5,-456.27 88.5,-462.27 88.5,-462.27 88.5,-474.27 88.5,-474.27 88.5,-480.27 82.5,-486.27 76.5,-486.27"/>
<text text-anchor="middle" x="46" y="-464.57" font-family="Helvetica,sans-Serif" font-size="14.00">err_error4</text>
</g>
<!-- err_error5 -->
<g id="node9" class="node">
<title>err_error5</title>
<path fill="white" stroke="black" d="M76.5,-540.27C76.5,-540.27 15.5,-540.27 15.5,-540.27 9.5,-540.27 3.5,-534.27 3.5,-528.27 3.5,-528.27 3.5,-516.27 3.5,-516.27 3.5,-510.27 9.5,-504.27 15.5,-504.27 15.5,-504.27 76.5,-504.27 76.5,-504.27 82.5,-504.27 88.5,-510.27 88.5,-516.27 88.5,-516.27 88.5,-528.27 88.5,-528.27 88.5,-534.27 82.5,-540.27 76.5,-540.27"/>
<text text-anchor="middle" x="46" y="-518.57" font-family="Helvetica,sans-Serif" font-size="14.00">err_error5</text>
</g>
<!-- mnt_comp1 -->
<g id="node10" class="node">
<title>mnt_comp1</title>
<path fill="white" stroke="black" d="M214,-116.27C214,-116.27 140,-116.27 140,-116.27 134,-116.27 128,-110.27 128,-104.27 128,-104.27 128,-92.27 128,-92.27 128,-86.27 134,-80.27 140,-80.27 140,-80.27 214,-80.27 214,-80.27 220,-80.27 226,-86.27 226,-92.27 226,-92.27 226,-104.27 226,-104.27 226,-110.27 220,-116.27 214,-116.27"/>
<text text-anchor="middle" x="177" y="-94.57" font-family="Helvetica,sans-Serif" font-size="14.00">mnt_comp1</text>
</g>
<!-- mnt_comp4 -->
<g id="node13" class="node">
<title>mnt_comp4</title>
<path fill="white" stroke="black" d="M348,-89.27C348,-89.27 274,-89.27 274,-89.27 268,-89.27 262,-83.27 262,-77.27 262,-77.27 262,-65.27 262,-65.27 262,-59.27 268,-53.27 274,-53.27 274,-53.27 348,-53.27 348,-53.27 354,-53.27 360,-59.27 360,-65.27 360,-65.27 360,-77.27 360,-77.27 360,-83.27 354,-89.27 348,-89.27"/>
<text text-anchor="middle" x="311" y="-67.57" font-family="Helvetica,sans-Serif" font-size="14.00">mnt_comp4</text>
</g>
<!-- mnt_comp1&#45;&gt;mnt_comp4 -->
<g id="edge3" class="edge">
<title>mnt_comp1&#45;&gt;mnt_comp4</title>
<path fill="none" stroke="black" stroke-width="1.2" d="M226.03,-88.45C234.4,-86.74 243.19,-84.94 251.8,-83.18"/>
<polygon fill="black" stroke="black" stroke-width="1.2" points="252.69,-86.57 261.79,-81.13 251.29,-79.71 252.69,-86.57"/>
</g>
<!-- mnt_comp2 -->
<g id="node11" class="node">
<title>mnt_comp2</title>
<path fill="white" stroke="black" d="M214,-62.27C214,-62.27 140,-62.27 140,-62.27 134,-62.27 128,-56.27 128,-50.27 128,-50.27 128,-38.27 128,-38.27 128,-32.27 134,-26.27 140,-26.27 140,-26.27 214,-26.27 214,-26.27 220,-26.27 226,-32.27 226,-38.27 226,-38.27 226,-50.27 226,-50.27 226,-56.27 220,-62.27 214,-62.27"/>
<text text-anchor="middle" x="177" y="-40.57" font-family="Helvetica,sans-Serif" font-size="14.00">mnt_comp2</text>
</g>
<!-- mnt_comp2&#45;&gt;mnt_comp4 -->
<g id="edge6" class="edge">
<title>mnt_comp2&#45;&gt;mnt_comp4</title>
<path fill="none" stroke="black" stroke-width="1.2" d="M226.03,-54.1C234.4,-55.81 243.19,-57.61 251.8,-59.37"/>
<polygon fill="black" stroke="black" stroke-width="1.2" points="251.29,-62.83 261.79,-61.41 252.69,-55.98 251.29,-62.83"/>
</g>
<!-- mnt_comp3 -->
<g id="node12" class="node">
<title>mnt_comp3</title>
<path fill="white" stroke="black" d="M482,-89.27C482,-89.27 408,-89.27 408,-89.27 402,-89.27 396,-83.27 396,-77.27 396,-77.27 396,-65.27 396,-65.27 396,-59.27 402,-53.27 408,-53.27 408,-53.27 482,-53.27 482,-53.27 488,-53.27 494,-59.27 494,-65.27 494,-65.27 494,-77.27 494,-77.27 494,-83.27 488,-89.27 482,-89.27"/>
<text text-anchor="middle" x="445" y="-67.57" font-family="Helvetica,sans-Serif" font-size="14.00">mnt_comp3</text>
</g>
<!-- mnt_comp4&#45;&gt;mnt_comp3 -->
<g id="edge9" class="edge">
<title>mnt_comp4&#45;&gt;mnt_comp3</title>
<path fill="none" stroke="black" stroke-width="1.2" d="M360.03,-71.27C368.31,-71.27 377,-71.27 385.52,-71.27"/>
<polygon fill="black" stroke="black" stroke-width="1.2" points="385.79,-74.77 395.79,-71.27 385.79,-67.77 385.79,-74.77"/>
</g>
<!-- fail_comp1 -->
<g id="node14" class="node">
<title>fail_comp1</title>
<path fill="white" stroke="black" d="M80,-162.27C80,-162.27 12,-162.27 12,-162.27 6,-162.27 0,-156.27 0,-150.27 0,-150.27 0,-138.27 0,-138.27 0,-132.27 6,-126.27 12,-126.27 12,-126.27 80,-126.27 80,-126.27 86,-126.27 92,-132.27 92,-138.27 92,-138.27 92,-150.27 92,-150.27 92,-156.27 86,-162.27 80,-162.27"/>
<text text-anchor="middle" x="46" y="-140.57" font-family="Helvetica,sans-Serif" font-size="14.00">fail_comp1</text>
</g>
<!-- fail_comp1&#45;&gt;volt -->
<g id="edge1" class="edge">
<title>fail_comp1&#45;&gt;volt</title>
<path fill="none" stroke="black" stroke-width="1.2" d="M92.12,-160.36C107.82,-165.96 125.21,-172.16 140.07,-177.46"/>
<polygon fill="black" stroke="black" stroke-width="1.2" points="139.31,-180.9 149.9,-180.96 141.66,-174.31 139.31,-180.9"/>
</g>
<!-- fail_comp1&#45;&gt;mnt_comp1 -->
<g id="edge4" class="edge">
<title>fail_comp1&#45;&gt;mnt_comp1</title>
<path fill="none" stroke="black" stroke-width="1.2" d="M92.12,-128.18C100.46,-125.21 109.28,-122.07 117.94,-118.98"/>
<polygon fill="black" stroke="black" stroke-width="1.2" points="119.37,-122.18 127.62,-115.53 117.02,-115.59 119.37,-122.18"/>
</g>
<!-- fail_comp1&#45;&gt;mnt_comp2 -->
<g id="edge7" class="edge">
<title>fail_comp1&#45;&gt;mnt_comp2</title>
<path fill="none" stroke="black" stroke-width="1.2" d="M64.67,-126.23C80.46,-110.65 104.63,-88.06 128,-71.27 129.6,-70.12 131.26,-68.98 132.95,-67.86"/>
<polygon fill="black" stroke="black" stroke-width="1.2" points="135.01,-70.69 141.59,-62.39 131.27,-64.78 135.01,-70.69"/>
</g>
<!-- fail_comp1&#45;&gt;mnt_comp3 -->
<g id="edge10" class="edge">
<title>fail_comp1&#45;&gt;mnt_comp3</title>
<path fill="none" stroke="black" stroke-width="1.2" d="M80.42,-162.41C84.48,-165.16 88.45,-168.14 92,-171.27 111.46,-188.46 104.66,-205.9 128,-217.27 167.16,-236.35 184.33,-229.94 226,-217.27 304.12,-193.53 379.72,-131.46 418.03,-96.37"/>
<polygon fill="black" stroke="black" stroke-width="1.2" points="420.68,-98.69 425.63,-89.32 415.92,-93.56 420.68,-98.69"/>
</g>
<!-- fail_comp1&#45;&gt;mnt_comp4 -->
<g id="edge12" class="edge">
<title>fail_comp1&#45;&gt;mnt_comp4</title>
<path fill="none" stroke="black" stroke-width="1.2" d="M92.03,-145.19C129.01,-144.61 182.23,-140.68 226,-125.27 245.14,-118.53 264.33,-106.67 279.53,-95.78"/>
<polygon fill="black" stroke="black" stroke-width="1.2" points="282.03,-98.28 287.99,-89.52 277.87,-92.65 282.03,-98.28"/>
</g>
<!-- fail_comp2 -->
<g id="node15" class="node">
<title>fail_comp2</title>
<path fill="white" stroke="black" d="M80,-39.27C80,-39.27 12,-39.27 12,-39.27 6,-39.27 0,-33.27 0,-27.27 0,-27.27 0,-15.27 0,-15.27 0,-9.27 6,-3.27 12,-3.27 12,-3.27 80,-3.27 80,-3.27 86,-3.27 92,-9.27 92,-15.27 92,-15.27 92,-27.27 92,-27.27 92,-33.27 86,-39.27 80,-39.27"/>
<text text-anchor="middle" x="46" y="-17.57" font-family="Helvetica,sans-Serif" font-size="14.00">fail_comp2</text>
</g>
<!-- fail_comp2&#45;&gt;mnt_comp1 -->
<g id="edge5" class="edge">
<title>fail_comp2&#45;&gt;mnt_comp1</title>
<path fill="none" stroke="black" stroke-width="1.2" d="M75.69,-39.38C91.11,-49 110.49,-60.95 128,-71.27 130.16,-72.55 132.39,-73.84 134.63,-75.15"/>
<polygon fill="black" stroke="black" stroke-width="1.2" points="132.95,-78.21 143.36,-80.15 136.43,-72.14 132.95,-78.21"/>
</g>
<!-- fail_comp2&#45;&gt;mnt_comp2 -->
<g id="edge8" class="edge">
<title>fail_comp2&#45;&gt;mnt_comp2</title>
<path fill="none" stroke="black" stroke-width="1.2" d="M92.12,-29.32C100.37,-30.79 109.09,-32.34 117.66,-33.87"/>
<polygon fill="black" stroke="black" stroke-width="1.2" points="117.16,-37.34 127.62,-35.65 118.38,-30.44 117.16,-37.34"/>
</g>
<!-- fail_comp2&#45;&gt;mnt_comp3 -->
<g id="edge11" class="edge">
<title>fail_comp2&#45;&gt;mnt_comp3</title>
<path fill="none" stroke="black" stroke-width="1.2" d="M92.15,-10.07C103.76,-7.67 116.28,-5.49 128,-4.27 171.32,0.23 182.9,2.02 226,-4.27 287.5,-13.26 300.63,-25.87 360,-44.27 368.4,-46.87 377.25,-49.67 385.94,-52.43"/>
<polygon fill="black" stroke="black" stroke-width="1.2" points="385.05,-55.82 395.64,-55.54 387.18,-49.16 385.05,-55.82"/>
</g>
<!-- fail_comp2&#45;&gt;mnt_comp4 -->
<g id="edge13" class="edge">
<title>fail_comp2&#45;&gt;mnt_comp4</title>
<path fill="none" stroke="black" stroke-width="1.2" d="M92.13,-12.81C128.93,-7.67 181.86,-4.31 226,-17.27 246.07,-23.17 265.88,-35.5 281.22,-46.89"/>
<polygon fill="black" stroke="black" stroke-width="1.2" points="279.19,-49.75 289.25,-53.08 283.46,-44.21 279.19,-49.75"/>
</g>
</g>
</svg>
