<?xml version="1.0" encoding="UTF-8" standalone="no"?>
<!DOCTYPE svg PUBLIC "-//W3C//DTD SVG 1.1//EN"
 "http://www.w3.org/Graphics/SVG/1.1/DTD/svg11.dtd">
<!-- Generated by graphviz version 2.50.0 (0)
 -->
<!-- Title: G Pages: 1 -->
<svg width="508pt" height="521pt"
 viewBox="0.00 0.00 508.00 521.00" xmlns="http://www.w3.org/2000/svg" xmlns:xlink="http://www.w3.org/1999/xlink">
<g id="graph0" class="graph" transform="scale(1 1) rotate(0) translate(4 517)">
<title>G</title>
<polygon fill="white" stroke="transparent" points="-4,4 -4,-517 504,-517 504,4 -4,4"/>
<text text-anchor="middle" x="250" y="-496.2" font-family="Times,serif" font-size="16.00">model=model3/varlingam_mixed.json [machine 3]</text>
<!-- volt -->
<g id="node1" class="node">
<title>volt</title>
<path fill="white" stroke="black" d="M64,-36C64,-36 34,-36 34,-36 28,-36 22,-30 22,-24 22,-24 22,-12 22,-12 22,-6 28,0 34,0 34,0 64,0 64,0 70,0 76,-6 76,-12 76,-12 76,-24 76,-24 76,-30 70,-36 64,-36"/>
<text text-anchor="middle" x="49" y="-14.3" font-family="Helvetica,sans-Serif" font-size="14.00">volt</text>
</g>
<!-- rotate -->
<g id="node2" class="node">
<title>rotate</title>
<path fill="white" stroke="black" d="M467.5,-247C467.5,-247 434.5,-247 434.5,-247 428.5,-247 422.5,-241 422.5,-235 422.5,-235 422.5,-223 422.5,-223 422.5,-217 428.5,-211 434.5,-211 434.5,-211 467.5,-211 467.5,-211 473.5,-211 479.5,-217 479.5,-223 479.5,-223 479.5,-235 479.5,-235 479.5,-241 473.5,-247 467.5,-247"/>
<text text-anchor="middle" x="451" y="-225.3" font-family="Helvetica,sans-Serif" font-size="14.00">rotate</text>
</g>
<!-- pressure -->
<g id="node3" class="node">
<title>pressure</title>
<path fill="white" stroke="black" d="M75.5,-217C75.5,-217 22.5,-217 22.5,-217 16.5,-217 10.5,-211 10.5,-205 10.5,-205 10.5,-193 10.5,-193 10.5,-187 16.5,-181 22.5,-181 22.5,-181 75.5,-181 75.5,-181 81.5,-181 87.5,-187 87.5,-193 87.5,-193 87.5,-205 87.5,-205 87.5,-211 81.5,-217 75.5,-217"/>
<text text-anchor="middle" x="49" y="-195.3" font-family="Helvetica,sans-Serif" font-size="14.00">pressure</text>
</g>
<!-- vibration -->
<g id="node4" class="node">
<title>vibration</title>
<path fill="white" stroke="black" d="M76,-271C76,-271 22,-271 22,-271 16,-271 10,-265 10,-259 10,-259 10,-247 10,-247 10,-241 16,-235 22,-235 22,-235 76,-235 76,-235 82,-235 88,-241 88,-247 88,-247 88,-259 88,-259 88,-265 82,-271 76,-271"/>
<text text-anchor="middle" x="49" y="-249.3" font-family="Helvetica,sans-Serif" font-size="14.00">vibration</text>
</g>
<!-- err_error1 -->
<g id="node5" class="node">
<title>err_error1</title>
<path fill="white" stroke="black" d="M79.5,-325C79.5,-325 18.5,-325 18.5,-325 12.5,-325 6.5,-319 6.5,-313 6.5,-313 6.5,-301 6.5,-301 6.5,-295 12.5,-289 18.5,-289 18.5,-289 79.5,-289 79.5,-289 85.5,-289 91.5,-295 91.5,-301 91.5,-301 91.5,-313 91.5,-313 91.5,-319 85.5,-325 79.5,-325"/>
<text text-anchor="middle" x="49" y="-303.3" font-family="Helvetica,sans-Serif" font-size="14.00">err_error1</text>
</g>
<!-- err_error2 -->
<g id="node6" class="node">
<title>err_error2</title>
<path fill="white" stroke="black" d="M213.5,-379C213.5,-379 152.5,-379 152.5,-379 146.5,-379 140.5,-373 140.5,-367 140.5,-367 140.5,-355 140.5,-355 140.5,-349 146.5,-343 152.5,-343 152.5,-343 213.5,-343 213.5,-343 219.5,-343 225.5,-349 225.5,-355 225.5,-355 225.5,-367 225.5,-367 225.5,-373 219.5,-379 213.5,-379"/>
<text text-anchor="middle" x="183" y="-357.3" font-family="Helvetica,sans-Serif" font-size="14.00">err_error2</text>
</g>
<!-- err_error3 -->
<g id="node7" class="node">
<title>err_error3</title>
<path fill="white" stroke="black" d="M79.5,-379C79.5,-379 18.5,-379 18.5,-379 12.5,-379 6.5,-373 6.5,-367 6.5,-367 6.5,-355 6.5,-355 6.5,-349 12.5,-343 18.5,-343 18.5,-343 79.5,-343 79.5,-343 85.5,-343 91.5,-349 91.5,-355 91.5,-355 91.5,-367 91.5,-367 91.5,-373 85.5,-379 79.5,-379"/>
<text text-anchor="middle" x="49" y="-357.3" font-family="Helvetica,sans-Serif" font-size="14.00">err_error3</text>
</g>
<!-- err_error3&#45;&gt;err_error2 -->
<g id="edge2" class="edge">
<title>err_error3&#45;&gt;err_error2</title>
<path fill="none" stroke="black" stroke-width="1.2" d="M91.77,-361C103.8,-361 117.09,-361 129.68,-361"/>
<polygon fill="black" stroke="black" stroke-width="1.2" points="130.05,-364.5 140.05,-361 130.05,-357.5 130.05,-364.5"/>
</g>
<!-- err_error4 -->
<g id="node8" class="node">
<title>err_error4</title>
<path fill="white" stroke="black" d="M79.5,-433C79.5,-433 18.5,-433 18.5,-433 12.5,-433 6.5,-427 6.5,-421 6.5,-421 6.5,-409 6.5,-409 6.5,-403 12.5,-397 18.5,-397 18.5,-397 79.5,-397 79.5,-397 85.5,-397 91.5,-403 91.5,-409 91.5,-409 91.5,-421 91.5,-421 91.5,-427 85.5,-433 79.5,-433"/>
<text text-anchor="middle" x="49" y="-411.3" font-family="Helvetica,sans-Serif" font-size="14.00">err_error4</text>
</g>
<!-- err_error5 -->
<g id="node9" class="node">
<title>err_error5</title>
<path fill="white" stroke="black" d="M79.5,-487C79.5,-487 18.5,-487 18.5,-487 12.5,-487 6.5,-481 6.5,-475 6.5,-475 6.5,-463 6.5,-463 6.5,-457 12.5,-451 18.5,-451 18.5,-451 79.5,-451 79.5,-451 85.5,-451 91.5,-457 91.5,-463 91.5,-463 91.5,-475 91.5,-475 91.5,-481 85.5,-487 79.5,-487"/>
<text text-anchor="middle" x="49" y="-465.3" font-family="Helvetica,sans-Serif" font-size="14.00">err_error5</text>
</g>
<!-- mnt_comp1 -->
<g id="node10" class="node">
<title>mnt_comp1</title>
<path fill="white" stroke="black" d="M220,-117C220,-117 146,-117 146,-117 140,-117 134,-111 134,-105 134,-105 134,-93 134,-93 134,-87 140,-81 146,-81 146,-81 220,-81 220,-81 226,-81 232,-87 232,-93 232,-93 232,-105 232,-105 232,-111 226,-117 220,-117"/>
<text text-anchor="middle" x="183" y="-95.3" font-family="Helvetica,sans-Serif" font-size="14.00">mnt_comp1</text>
</g>
<!-- mnt_comp2 -->
<g id="node11" class="node">
<title>mnt_comp2</title>
<path fill="white" stroke="black" d="M488,-174C488,-174 414,-174 414,-174 408,-174 402,-168 402,-162 402,-162 402,-150 402,-150 402,-144 408,-138 414,-138 414,-138 488,-138 488,-138 494,-138 500,-144 500,-150 500,-150 500,-162 500,-162 500,-168 494,-174 488,-174"/>
<text text-anchor="middle" x="451" y="-152.3" font-family="Helvetica,sans-Serif" font-size="14.00">mnt_comp2</text>
</g>
<!-- mnt_comp1&#45;&gt;mnt_comp2 -->
<g id="edge3" class="edge">
<title>mnt_comp1&#45;&gt;mnt_comp2</title>
<path fill="none" stroke="black" stroke-width="1.2" d="M232.1,-96.24C269.37,-95.44 321.9,-97.28 366,-110 383.2,-114.96 400.79,-123.88 415.4,-132.56"/>
<polygon fill="black" stroke="black" stroke-width="1.2" points="413.73,-135.64 424.08,-137.89 417.39,-129.67 413.73,-135.64"/>
</g>
<!-- mnt_comp4 -->
<g id="node13" class="node">
<title>mnt_comp4</title>
<path fill="white" stroke="black" d="M354,-155C354,-155 280,-155 280,-155 274,-155 268,-149 268,-143 268,-143 268,-131 268,-131 268,-125 274,-119 280,-119 280,-119 354,-119 354,-119 360,-119 366,-125 366,-131 366,-131 366,-143 366,-143 366,-149 360,-155 354,-155"/>
<text text-anchor="middle" x="317" y="-133.3" font-family="Helvetica,sans-Serif" font-size="14.00">mnt_comp4</text>
</g>
<!-- mnt_comp1&#45;&gt;mnt_comp4 -->
<g id="edge5" class="edge">
<title>mnt_comp1&#45;&gt;mnt_comp4</title>
<path fill="none" stroke="black" stroke-width="1.2" d="M232.03,-112.83C240.49,-115.26 249.38,-117.82 258.08,-120.33"/>
<polygon fill="black" stroke="black" stroke-width="1.2" points="257.21,-123.72 267.79,-123.12 259.14,-116.99 257.21,-123.72"/>
</g>
<!-- mnt_comp3 -->
<g id="node12" class="node">
<title>mnt_comp3</title>
<path fill="white" stroke="black" d="M86,-163C86,-163 12,-163 12,-163 6,-163 0,-157 0,-151 0,-151 0,-139 0,-139 0,-133 6,-127 12,-127 12,-127 86,-127 86,-127 92,-127 98,-133 98,-139 98,-139 98,-151 98,-151 98,-157 92,-163 86,-163"/>
<text text-anchor="middle" x="49" y="-141.3" font-family="Helvetica,sans-Serif" font-size="14.00">mnt_comp3</text>
</g>
<!-- mnt_comp3&#45;&gt;mnt_comp1 -->
<g id="edge4" class="edge">
<title>mnt_comp3&#45;&gt;mnt_comp1</title>
<path fill="none" stroke="black" stroke-width="1.2" d="M98.03,-128.26C106.49,-125.31 115.38,-122.22 124.08,-119.18"/>
<polygon fill="black" stroke="black" stroke-width="1.2" points="125.49,-122.4 133.79,-115.8 123.19,-115.79 125.49,-122.4"/>
</g>
<!-- mnt_comp3&#45;&gt;mnt_comp2 -->
<g id="edge7" class="edge">
<title>mnt_comp3&#45;&gt;mnt_comp2</title>
<path fill="none" stroke="black" stroke-width="1.2" d="M98.37,-151.19C110.03,-152.56 122.45,-153.93 134,-155 236.74,-164.56 262.93,-168.9 366,-164 374.31,-163.61 383.06,-162.99 391.66,-162.28"/>
<polygon fill="black" stroke="black" stroke-width="1.2" points="391.99,-165.76 401.64,-161.4 391.37,-158.79 391.99,-165.76"/>
</g>
<!-- mnt_comp3&#45;&gt;mnt_comp4 -->
<g id="edge10" class="edge">
<title>mnt_comp3&#45;&gt;mnt_comp4</title>
<path fill="none" stroke="black" stroke-width="1.2" d="M98.17,-143.55C142.94,-142.2 209.73,-140.2 257.54,-138.76"/>
<polygon fill="black" stroke="black" stroke-width="1.2" points="257.85,-142.25 267.74,-138.45 257.64,-135.25 257.85,-142.25"/>
</g>
<!-- mnt_comp4&#45;&gt;mnt_comp2 -->
<g id="edge8" class="edge">
<title>mnt_comp4&#45;&gt;mnt_comp2</title>
<path fill="none" stroke="black" stroke-width="1.2" d="M366.03,-143.91C374.4,-145.12 383.19,-146.38 391.8,-147.62"/>
<polygon fill="black" stroke="black" stroke-width="1.2" points="391.39,-151.1 401.79,-149.06 392.39,-144.17 391.39,-151.1"/>
</g>
<!-- fail_comp1 -->
<g id="node14" class="node">
<title>fail_comp1</title>
<path fill="white" stroke="black" d="M83,-90C83,-90 15,-90 15,-90 9,-90 3,-84 3,-78 3,-78 3,-66 3,-66 3,-60 9,-54 15,-54 15,-54 83,-54 83,-54 89,-54 95,-60 95,-66 95,-66 95,-78 95,-78 95,-84 89,-90 83,-90"/>
<text text-anchor="middle" x="49" y="-68.3" font-family="Helvetica,sans-Serif" font-size="14.00">fail_comp1</text>
</g>
<!-- fail_comp1&#45;&gt;mnt_comp1 -->
<g id="edge6" class="edge">
<title>fail_comp1&#45;&gt;mnt_comp1</title>
<path fill="none" stroke="black" stroke-width="1.2" d="M95.06,-81.22C104.37,-83.12 114.3,-85.15 124,-87.14"/>
<polygon fill="black" stroke="black" stroke-width="1.2" points="123.49,-90.6 133.99,-89.18 124.89,-83.75 123.49,-90.6"/>
</g>
<!-- fail_comp1&#45;&gt;mnt_comp4 -->
<g id="edge11" class="edge">
<title>fail_comp1&#45;&gt;mnt_comp4</title>
<path fill="none" stroke="black" stroke-width="1.2" d="M95.08,-64.07C132.74,-59.29 187.3,-56.72 232,-72 255.03,-79.87 276.64,-96.9 292.18,-111.56"/>
<polygon fill="black" stroke="black" stroke-width="1.2" points="290.13,-114.45 299.72,-118.95 295.02,-109.45 290.13,-114.45"/>
</g>
<!-- fail_comp2 -->
<g id="node15" class="node">
<title>fail_comp2</title>
<path fill="white" stroke="black" d="M351,-247C351,-247 283,-247 283,-247 277,-247 271,-241 271,-235 271,-235 271,-223 271,-223 271,-217 277,-211 283,-211 283,-211 351,-211 351,-211 357,-211 363,-217 363,-223 363,-223 363,-235 363,-235 363,-241 357,-247 351,-247"/>
<text text-anchor="middle" x="317" y="-225.3" font-family="Helvetica,sans-Serif" font-size="14.00">fail_comp2</text>
</g>
<!-- fail_comp2&#45;&gt;rotate -->
<g id="edge1" class="edge">
<title>fail_comp2&#45;&gt;rotate</title>
<path fill="none" stroke="black" stroke-width="1.2" d="M363.06,-229C379.08,-229 396.93,-229 412.28,-229"/>
<polygon fill="black" stroke="black" stroke-width="1.2" points="412.44,-232.5 422.44,-229 412.44,-225.5 412.44,-232.5"/>
</g>
<!-- fail_comp2&#45;&gt;mnt_comp2 -->
<g id="edge9" class="edge">
<title>fail_comp2&#45;&gt;mnt_comp2</title>
<path fill="none" stroke="black" stroke-width="1.2" d="M350.63,-210.96C368.08,-201.3 389.76,-189.32 408.41,-179"/>
<polygon fill="black" stroke="black" stroke-width="1.2" points="410.23,-181.99 417.29,-174.09 406.84,-175.87 410.23,-181.99"/>
</g>
</g>
</svg>
