<?xml version="1.0" encoding="UTF-8" standalone="no"?>
<!DOCTYPE svg PUBLIC "-//W3C//DTD SVG 1.1//EN"
 "http://www.w3.org/Graphics/SVG/1.1/DTD/svg11.dtd">
<!-- Generated by graphviz version 2.50.0 (0)
 -->
<!-- Title: G Pages: 1 -->
<svg width="475pt" height="178pt"
 viewBox="0.00 0.00 475.00 178.00" xmlns="http://www.w3.org/2000/svg" xmlns:xlink="http://www.w3.org/1999/xlink">
<g id="graph0" class="graph" transform="scale(1 1) rotate(0) translate(4 174)">
<title>G</title>
<polygon fill="white" stroke="transparent" points="-4,4 -4,-174 471,-174 471,4 -4,4"/>
<text text-anchor="middle" x="233.5" y="-153.2" font-family="Times,serif" font-size="16.00">model=model3/varlingam_telemetry.json [machine 84]</text>
<!-- volt -->
<g id="node1" class="node">
<title>volt</title>
<path fill="white" stroke="black" d="M202,-36C202,-36 172,-36 172,-36 166,-36 160,-30 160,-24 160,-24 160,-12 160,-12 160,-6 166,0 172,0 172,0 202,0 202,0 208,0 214,-6 214,-12 214,-12 214,-24 214,-24 214,-30 208,-36 202,-36"/>
<text text-anchor="middle" x="187" y="-14.3" font-family="Helvetica,sans-Serif" font-size="14.00">volt</text>
</g>
<!-- rotate -->
<g id="node2" class="node">
<title>rotate</title>
<path fill="white" stroke="black" d="M307,-90C307,-90 274,-90 274,-90 268,-90 262,-84 262,-78 262,-78 262,-66 262,-66 262,-60 268,-54 274,-54 274,-54 307,-54 307,-54 313,-54 319,-60 319,-66 319,-66 319,-78 319,-78 319,-84 313,-90 307,-90"/>
<text text-anchor="middle" x="290.5" y="-68.3" font-family="Helvetica,sans-Serif" font-size="14.00">rotate</text>
</g>
<!-- pressure -->
<g id="node3" class="node">
<title>pressure</title>
<path fill="white" stroke="black" d="M213.5,-144C213.5,-144 160.5,-144 160.5,-144 154.5,-144 148.5,-138 148.5,-132 148.5,-132 148.5,-120 148.5,-120 148.5,-114 154.5,-108 160.5,-108 160.5,-108 213.5,-108 213.5,-108 219.5,-108 225.5,-114 225.5,-120 225.5,-120 225.5,-132 225.5,-132 225.5,-138 219.5,-144 213.5,-144"/>
<text text-anchor="middle" x="187" y="-122.3" font-family="Helvetica,sans-Serif" font-size="14.00">pressure</text>
</g>
<!-- vibration -->
<g id="node4" class="node">
<title>vibration</title>
<path fill="white" stroke="black" d="M214,-90C214,-90 160,-90 160,-90 154,-90 148,-84 148,-78 148,-78 148,-66 148,-66 148,-60 154,-54 160,-54 160,-54 214,-54 214,-54 220,-54 226,-60 226,-66 226,-66 226,-78 226,-78 226,-84 220,-90 214,-90"/>
<text text-anchor="middle" x="187" y="-68.3" font-family="Helvetica,sans-Serif" font-size="14.00">vibration</text>
</g>
<!-- vibration&#45;&gt;rotate -->
<g id="edge1" class="edge">
<title>vibration&#45;&gt;rotate</title>
<path fill="none" stroke="black" stroke-width="1.2" d="M226.08,-72C234.47,-72 243.35,-72 251.72,-72"/>
<polygon fill="black" stroke="black" stroke-width="1.2" points="251.98,-75.5 261.98,-72 251.98,-68.5 251.98,-75.5"/>
</g>
</g>
</svg>
