<?xml version="1.0" encoding="UTF-8" standalone="no"?>
<!DOCTYPE svg PUBLIC "-//W3C//DTD SVG 1.1//EN"
 "http://www.w3.org/Graphics/SVG/1.1/DTD/svg11.dtd">
<!-- Generated by graphviz version 2.50.0 (0)
 -->
<!-- Title: G Pages: 1 -->
<svg width="636pt" height="558pt"
 viewBox="0.00 0.00 636.00 558.00" xmlns="http://www.w3.org/2000/svg" xmlns:xlink="http://www.w3.org/1999/xlink">
<g id="graph0" class="graph" transform="scale(1 1) rotate(0) translate(4 554)">
<title>G</title>
<polygon fill="white" stroke="transparent" points="-4,4 -4,-554 632,-554 632,4 -4,4"/>
<text text-anchor="middle" x="314" y="-533.2" font-family="Times,serif" font-size="16.00">model=model2/varlingam_mixed.json [machine 96]</text>
<!-- volt -->
<g id="node1" class="node">
<title>volt</title>
<path fill="white" stroke="black" d="M64,-36C64,-36 34,-36 34,-36 28,-36 22,-30 22,-24 22,-24 22,-12 22,-12 22,-6 28,0 34,0 34,0 64,0 64,0 70,0 76,-6 76,-12 76,-12 76,-24 76,-24 76,-30 70,-36 64,-36"/>
<text text-anchor="middle" x="49" y="-14.3" font-family="Helvetica,sans-Serif" font-size="14.00">volt</text>
</g>
<!-- rotate -->
<g id="node2" class="node">
<title>rotate</title>
<path fill="white" stroke="black" d="M65.5,-90C65.5,-90 32.5,-90 32.5,-90 26.5,-90 20.5,-84 20.5,-78 20.5,-78 20.5,-66 20.5,-66 20.5,-60 26.5,-54 32.5,-54 32.5,-54 65.5,-54 65.5,-54 71.5,-54 77.5,-60 77.5,-66 77.5,-66 77.5,-78 77.5,-78 77.5,-84 71.5,-90 65.5,-90"/>
<text text-anchor="middle" x="49" y="-68.3" font-family="Helvetica,sans-Serif" font-size="14.00">rotate</text>
</g>
<!-- err_error3 -->
<g id="node7" class="node">
<title>err_error3</title>
<path fill="white" stroke="black" d="M210.5,-90C210.5,-90 149.5,-90 149.5,-90 143.5,-90 137.5,-84 137.5,-78 137.5,-78 137.5,-66 137.5,-66 137.5,-60 143.5,-54 149.5,-54 149.5,-54 210.5,-54 210.5,-54 216.5,-54 222.5,-60 222.5,-66 222.5,-66 222.5,-78 222.5,-78 222.5,-84 216.5,-90 210.5,-90"/>
<text text-anchor="middle" x="180" y="-68.3" font-family="Helvetica,sans-Serif" font-size="14.00">err_error3</text>
</g>
<!-- rotate&#45;&gt;err_error3 -->
<g id="edge1" class="edge">
<title>rotate&#45;&gt;err_error3</title>
<path fill="none" stroke="black" stroke-width="1.2" d="M77.67,-72C92.02,-72 110.02,-72 126.86,-72"/>
<polygon fill="black" stroke="black" stroke-width="1.2" points="127.14,-75.5 137.14,-72 127.14,-68.5 127.14,-75.5"/>
</g>
<!-- pressure -->
<g id="node3" class="node">
<title>pressure</title>
<path fill="white" stroke="black" d="M337.5,-316C337.5,-316 284.5,-316 284.5,-316 278.5,-316 272.5,-310 272.5,-304 272.5,-304 272.5,-292 272.5,-292 272.5,-286 278.5,-280 284.5,-280 284.5,-280 337.5,-280 337.5,-280 343.5,-280 349.5,-286 349.5,-292 349.5,-292 349.5,-304 349.5,-304 349.5,-310 343.5,-316 337.5,-316"/>
<text text-anchor="middle" x="311" y="-294.3" font-family="Helvetica,sans-Serif" font-size="14.00">pressure</text>
</g>
<!-- err_error4 -->
<g id="node8" class="node">
<title>err_error4</title>
<path fill="white" stroke="black" d="M475.5,-316C475.5,-316 414.5,-316 414.5,-316 408.5,-316 402.5,-310 402.5,-304 402.5,-304 402.5,-292 402.5,-292 402.5,-286 408.5,-280 414.5,-280 414.5,-280 475.5,-280 475.5,-280 481.5,-280 487.5,-286 487.5,-292 487.5,-292 487.5,-304 487.5,-304 487.5,-310 481.5,-316 475.5,-316"/>
<text text-anchor="middle" x="445" y="-294.3" font-family="Helvetica,sans-Serif" font-size="14.00">err_error4</text>
</g>
<!-- pressure&#45;&gt;err_error4 -->
<g id="edge2" class="edge">
<title>pressure&#45;&gt;err_error4</title>
<path fill="none" stroke="black" stroke-width="1.2" d="M349.83,-298C363.07,-298 378.17,-298 392.35,-298"/>
<polygon fill="black" stroke="black" stroke-width="1.2" points="392.47,-301.5 402.47,-298 392.47,-294.5 392.47,-301.5"/>
</g>
<!-- vibration -->
<g id="node4" class="node">
<title>vibration</title>
<path fill="white" stroke="black" d="M76,-416C76,-416 22,-416 22,-416 16,-416 10,-410 10,-404 10,-404 10,-392 10,-392 10,-386 16,-380 22,-380 22,-380 76,-380 76,-380 82,-380 88,-386 88,-392 88,-392 88,-404 88,-404 88,-410 82,-416 76,-416"/>
<text text-anchor="middle" x="49" y="-394.3" font-family="Helvetica,sans-Serif" font-size="14.00">vibration</text>
</g>
<!-- err_error1 -->
<g id="node5" class="node">
<title>err_error1</title>
<path fill="white" stroke="black" d="M79.5,-470C79.5,-470 18.5,-470 18.5,-470 12.5,-470 6.5,-464 6.5,-458 6.5,-458 6.5,-446 6.5,-446 6.5,-440 12.5,-434 18.5,-434 18.5,-434 79.5,-434 79.5,-434 85.5,-434 91.5,-440 91.5,-446 91.5,-446 91.5,-458 91.5,-458 91.5,-464 85.5,-470 79.5,-470"/>
<text text-anchor="middle" x="49" y="-448.3" font-family="Helvetica,sans-Serif" font-size="14.00">err_error1</text>
</g>
<!-- err_error2 -->
<g id="node6" class="node">
<title>err_error2</title>
<path fill="white" stroke="black" d="M79.5,-524C79.5,-524 18.5,-524 18.5,-524 12.5,-524 6.5,-518 6.5,-512 6.5,-512 6.5,-500 6.5,-500 6.5,-494 12.5,-488 18.5,-488 18.5,-488 79.5,-488 79.5,-488 85.5,-488 91.5,-494 91.5,-500 91.5,-500 91.5,-512 91.5,-512 91.5,-518 85.5,-524 79.5,-524"/>
<text text-anchor="middle" x="49" y="-502.3" font-family="Helvetica,sans-Serif" font-size="14.00">err_error2</text>
</g>
<!-- err_error5 -->
<g id="node9" class="node">
<title>err_error5</title>
<path fill="white" stroke="black" d="M79.5,-184C79.5,-184 18.5,-184 18.5,-184 12.5,-184 6.5,-178 6.5,-172 6.5,-172 6.5,-160 6.5,-160 6.5,-154 12.5,-148 18.5,-148 18.5,-148 79.5,-148 79.5,-148 85.5,-148 91.5,-154 91.5,-160 91.5,-160 91.5,-172 91.5,-172 91.5,-178 85.5,-184 79.5,-184"/>
<text text-anchor="middle" x="49" y="-162.3" font-family="Helvetica,sans-Serif" font-size="14.00">err_error5</text>
</g>
<!-- mnt_comp1 -->
<g id="node10" class="node">
<title>mnt_comp1</title>
<path fill="white" stroke="black" d="M482,-243C482,-243 408,-243 408,-243 402,-243 396,-237 396,-231 396,-231 396,-219 396,-219 396,-213 402,-207 408,-207 408,-207 482,-207 482,-207 488,-207 494,-213 494,-219 494,-219 494,-231 494,-231 494,-237 488,-243 482,-243"/>
<text text-anchor="middle" x="445" y="-221.3" font-family="Helvetica,sans-Serif" font-size="14.00">mnt_comp1</text>
</g>
<!-- err_error5&#45;&gt;mnt_comp1 -->
<g id="edge4" class="edge">
<title>err_error5&#45;&gt;mnt_comp1</title>
<path fill="none" stroke="black" stroke-width="1.2" d="M91.55,-161.84C151.92,-157.11 266.85,-153.07 360,-179 377.38,-183.84 395.11,-192.83 409.78,-201.6"/>
<polygon fill="black" stroke="black" stroke-width="1.2" points="408.14,-204.7 418.48,-206.99 411.82,-198.75 408.14,-204.7"/>
</g>
<!-- fail_comp3 -->
<g id="node14" class="node">
<title>fail_comp3</title>
<path fill="white" stroke="black" d="M214,-247C214,-247 146,-247 146,-247 140,-247 134,-241 134,-235 134,-235 134,-223 134,-223 134,-217 140,-211 146,-211 146,-211 214,-211 214,-211 220,-211 226,-217 226,-223 226,-223 226,-235 226,-235 226,-241 220,-247 214,-247"/>
<text text-anchor="middle" x="180" y="-225.3" font-family="Helvetica,sans-Serif" font-size="14.00">fail_comp3</text>
</g>
<!-- err_error5&#45;&gt;fail_comp3 -->
<g id="edge5" class="edge">
<title>err_error5&#45;&gt;fail_comp3</title>
<path fill="none" stroke="black" stroke-width="1.2" d="M86.97,-184.05C101.27,-191.04 117.8,-199.11 132.87,-206.47"/>
<polygon fill="black" stroke="black" stroke-width="1.2" points="131.51,-209.7 142.03,-210.94 134.58,-203.41 131.51,-209.7"/>
</g>
<!-- mnt_comp4 -->
<g id="node13" class="node">
<title>mnt_comp4</title>
<path fill="white" stroke="black" d="M616,-243C616,-243 542,-243 542,-243 536,-243 530,-237 530,-231 530,-231 530,-219 530,-219 530,-213 536,-207 542,-207 542,-207 616,-207 616,-207 622,-207 628,-213 628,-219 628,-219 628,-231 628,-231 628,-237 622,-243 616,-243"/>
<text text-anchor="middle" x="579" y="-221.3" font-family="Helvetica,sans-Serif" font-size="14.00">mnt_comp4</text>
</g>
<!-- mnt_comp1&#45;&gt;mnt_comp4 -->
<g id="edge8" class="edge">
<title>mnt_comp1&#45;&gt;mnt_comp4</title>
<path fill="none" stroke="black" stroke-width="1.2" d="M494.03,-225C502.31,-225 511,-225 519.52,-225"/>
<polygon fill="black" stroke="black" stroke-width="1.2" points="519.79,-228.5 529.79,-225 519.79,-221.5 519.79,-228.5"/>
</g>
<!-- mnt_comp2 -->
<g id="node11" class="node">
<title>mnt_comp2</title>
<path fill="white" stroke="black" d="M86,-362C86,-362 12,-362 12,-362 6,-362 0,-356 0,-350 0,-350 0,-338 0,-338 0,-332 6,-326 12,-326 12,-326 86,-326 86,-326 92,-326 98,-332 98,-338 98,-338 98,-350 98,-350 98,-356 92,-362 86,-362"/>
<text text-anchor="middle" x="49" y="-340.3" font-family="Helvetica,sans-Serif" font-size="14.00">mnt_comp2</text>
</g>
<!-- mnt_comp2&#45;&gt;mnt_comp1 -->
<g id="edge6" class="edge">
<title>mnt_comp2&#45;&gt;mnt_comp1</title>
<path fill="none" stroke="black" stroke-width="1.2" d="M98.07,-353.5C162.39,-363.58 277.86,-372.25 360,-325 385,-310.62 377.48,-293.11 396,-271 401.86,-264 408.68,-256.94 415.31,-250.52"/>
<polygon fill="black" stroke="black" stroke-width="1.2" points="418.06,-252.73 422.93,-243.32 413.25,-247.65 418.06,-252.73"/>
</g>
<!-- mnt_comp2&#45;&gt;mnt_comp4 -->
<g id="edge10" class="edge">
<title>mnt_comp2&#45;&gt;mnt_comp4</title>
<path fill="none" stroke="black" stroke-width="1.2" d="M98.37,-360.29C109.91,-363.49 122.28,-366.36 134,-368 293.58,-390.35 356.01,-408.21 494,-325 523.65,-307.12 547.82,-274.98 562.5,-251.96"/>
<polygon fill="black" stroke="black" stroke-width="1.2" points="565.55,-253.68 567.83,-243.33 559.59,-250 565.55,-253.68"/>
</g>
<!-- mnt_comp2&#45;&gt;fail_comp3 -->
<g id="edge11" class="edge">
<title>mnt_comp2&#45;&gt;fail_comp3</title>
<path fill="none" stroke="black" stroke-width="1.2" d="M70.44,-325.78C92.24,-306.35 126.89,-275.45 151.17,-253.81"/>
<polygon fill="black" stroke="black" stroke-width="1.2" points="153.52,-256.4 158.66,-247.14 148.86,-251.18 153.52,-256.4"/>
</g>
<!-- mnt_comp3 -->
<g id="node12" class="node">
<title>mnt_comp3</title>
<path fill="white" stroke="black" d="M348,-224C348,-224 274,-224 274,-224 268,-224 262,-218 262,-212 262,-212 262,-200 262,-200 262,-194 268,-188 274,-188 274,-188 348,-188 348,-188 354,-188 360,-194 360,-200 360,-200 360,-212 360,-212 360,-218 354,-224 348,-224"/>
<text text-anchor="middle" x="311" y="-202.3" font-family="Helvetica,sans-Serif" font-size="14.00">mnt_comp3</text>
</g>
<!-- mnt_comp3&#45;&gt;mnt_comp1 -->
<g id="edge7" class="edge">
<title>mnt_comp3&#45;&gt;mnt_comp1</title>
<path fill="none" stroke="black" stroke-width="1.2" d="M360.03,-212.91C368.4,-214.12 377.19,-215.38 385.8,-216.62"/>
<polygon fill="black" stroke="black" stroke-width="1.2" points="385.39,-220.1 395.79,-218.06 386.39,-213.17 385.39,-220.1"/>
</g>
<!-- fail_comp3&#45;&gt;pressure -->
<g id="edge3" class="edge">
<title>fail_comp3&#45;&gt;pressure</title>
<path fill="none" stroke="black" stroke-width="1.2" d="M214.89,-247.13C230.89,-255.69 250.16,-265.99 267.16,-275.08"/>
<polygon fill="black" stroke="black" stroke-width="1.2" points="265.86,-278.36 276.33,-279.99 269.17,-272.19 265.86,-278.36"/>
</g>
<!-- fail_comp3&#45;&gt;mnt_comp1 -->
<g id="edge9" class="edge">
<title>fail_comp3&#45;&gt;mnt_comp1</title>
<path fill="none" stroke="black" stroke-width="1.2" d="M226.4,-231.64C238,-232.2 250.46,-232.72 262,-233 305.54,-234.07 316.49,-235.07 360,-233 368.31,-232.61 377.06,-231.99 385.66,-231.28"/>
<polygon fill="black" stroke="black" stroke-width="1.2" points="385.99,-234.76 395.64,-230.4 385.37,-227.79 385.99,-234.76"/>
</g>
<!-- fail_comp3&#45;&gt;mnt_comp3 -->
<g id="edge12" class="edge">
<title>fail_comp3&#45;&gt;mnt_comp3</title>
<path fill="none" stroke="black" stroke-width="1.2" d="M226.12,-220.96C234.37,-219.48 243.09,-217.93 251.66,-216.4"/>
<polygon fill="black" stroke="black" stroke-width="1.2" points="252.38,-219.83 261.62,-214.63 251.16,-212.94 252.38,-219.83"/>
</g>
<!-- fail_comp3&#45;&gt;mnt_comp4 -->
<g id="edge13" class="edge">
<title>fail_comp3&#45;&gt;mnt_comp4</title>
<path fill="none" stroke="black" stroke-width="1.2" d="M202.78,-210.89C218.24,-199.27 240.06,-185.23 262,-179 351.79,-153.52 460.15,-181.45 523.82,-203.56"/>
<polygon fill="black" stroke="black" stroke-width="1.2" points="522.67,-206.86 533.26,-206.91 525.01,-200.27 522.67,-206.86"/>
</g>
</g>
</svg>
