<?xml version="1.0" encoding="UTF-8" standalone="no"?>
<!DOCTYPE svg PUBLIC "-//W3C//DTD SVG 1.1//EN"
 "http://www.w3.org/Graphics/SVG/1.1/DTD/svg11.dtd">
<!-- Generated by graphviz version 2.50.0 (0)
 -->
<!-- Title: G Pages: 1 -->
<svg width="623pt" height="448pt"
 viewBox="0.00 0.00 623.00 448.00" xmlns="http://www.w3.org/2000/svg" xmlns:xlink="http://www.w3.org/1999/xlink">
<g id="graph0" class="graph" transform="scale(1 1) rotate(0) translate(4 444)">
<title>G</title>
<polygon fill="white" stroke="transparent" points="-4,4 -4,-444 619,-444 619,4 -4,4"/>
<text text-anchor="middle" x="307.5" y="-423.2" font-family="Times,serif" font-size="16.00">model=model4/varlingam_mixed.json [machine 46]</text>
<!-- volt -->
<g id="node1" class="node">
<title>volt</title>
<path fill="white" stroke="black" d="M61,-36C61,-36 31,-36 31,-36 25,-36 19,-30 19,-24 19,-24 19,-12 19,-12 19,-6 25,0 31,0 31,0 61,0 61,0 67,0 73,-6 73,-12 73,-12 73,-24 73,-24 73,-30 67,-36 61,-36"/>
<text text-anchor="middle" x="46" y="-14.3" font-family="Helvetica,sans-Serif" font-size="14.00">volt</text>
</g>
<!-- rotate -->
<g id="node2" class="node">
<title>rotate</title>
<path fill="white" stroke="black" d="M62.5,-90C62.5,-90 29.5,-90 29.5,-90 23.5,-90 17.5,-84 17.5,-78 17.5,-78 17.5,-66 17.5,-66 17.5,-60 23.5,-54 29.5,-54 29.5,-54 62.5,-54 62.5,-54 68.5,-54 74.5,-60 74.5,-66 74.5,-66 74.5,-78 74.5,-78 74.5,-84 68.5,-90 62.5,-90"/>
<text text-anchor="middle" x="46" y="-68.3" font-family="Helvetica,sans-Serif" font-size="14.00">rotate</text>
</g>
<!-- pressure -->
<g id="node3" class="node">
<title>pressure</title>
<path fill="white" stroke="black" d="M72.5,-144C72.5,-144 19.5,-144 19.5,-144 13.5,-144 7.5,-138 7.5,-132 7.5,-132 7.5,-120 7.5,-120 7.5,-114 13.5,-108 19.5,-108 19.5,-108 72.5,-108 72.5,-108 78.5,-108 84.5,-114 84.5,-120 84.5,-120 84.5,-132 84.5,-132 84.5,-138 78.5,-144 72.5,-144"/>
<text text-anchor="middle" x="46" y="-122.3" font-family="Helvetica,sans-Serif" font-size="14.00">pressure</text>
</g>
<!-- vibration -->
<g id="node4" class="node">
<title>vibration</title>
<path fill="white" stroke="black" d="M73,-198C73,-198 19,-198 19,-198 13,-198 7,-192 7,-186 7,-186 7,-174 7,-174 7,-168 13,-162 19,-162 19,-162 73,-162 73,-162 79,-162 85,-168 85,-174 85,-174 85,-186 85,-186 85,-192 79,-198 73,-198"/>
<text text-anchor="middle" x="46" y="-176.3" font-family="Helvetica,sans-Serif" font-size="14.00">vibration</text>
</g>
<!-- err_error1 -->
<g id="node5" class="node">
<title>err_error1</title>
<path fill="white" stroke="black" d="M76.5,-252C76.5,-252 15.5,-252 15.5,-252 9.5,-252 3.5,-246 3.5,-240 3.5,-240 3.5,-228 3.5,-228 3.5,-222 9.5,-216 15.5,-216 15.5,-216 76.5,-216 76.5,-216 82.5,-216 88.5,-222 88.5,-228 88.5,-228 88.5,-240 88.5,-240 88.5,-246 82.5,-252 76.5,-252"/>
<text text-anchor="middle" x="46" y="-230.3" font-family="Helvetica,sans-Serif" font-size="14.00">err_error1</text>
</g>
<!-- err_error2 -->
<g id="node6" class="node">
<title>err_error2</title>
<path fill="white" stroke="black" d="M603,-213C603,-213 542,-213 542,-213 536,-213 530,-207 530,-201 530,-201 530,-189 530,-189 530,-183 536,-177 542,-177 542,-177 603,-177 603,-177 609,-177 615,-183 615,-189 615,-189 615,-201 615,-201 615,-207 609,-213 603,-213"/>
<text text-anchor="middle" x="572.5" y="-191.3" font-family="Helvetica,sans-Serif" font-size="14.00">err_error2</text>
</g>
<!-- err_error3 -->
<g id="node7" class="node">
<title>err_error3</title>
<path fill="white" stroke="black" d="M475.5,-190C475.5,-190 414.5,-190 414.5,-190 408.5,-190 402.5,-184 402.5,-178 402.5,-178 402.5,-166 402.5,-166 402.5,-160 408.5,-154 414.5,-154 414.5,-154 475.5,-154 475.5,-154 481.5,-154 487.5,-160 487.5,-166 487.5,-166 487.5,-178 487.5,-178 487.5,-184 481.5,-190 475.5,-190"/>
<text text-anchor="middle" x="445" y="-168.3" font-family="Helvetica,sans-Serif" font-size="14.00">err_error3</text>
</g>
<!-- err_error3&#45;&gt;err_error2 -->
<g id="edge1" class="edge">
<title>err_error3&#45;&gt;err_error2</title>
<path fill="none" stroke="black" stroke-width="1.2" d="M487.79,-179.66C498.06,-181.54 509.17,-183.58 519.84,-185.53"/>
<polygon fill="black" stroke="black" stroke-width="1.2" points="519.43,-189.01 529.89,-187.37 520.69,-182.13 519.43,-189.01"/>
</g>
<!-- err_error4 -->
<g id="node8" class="node">
<title>err_error4</title>
<path fill="white" stroke="black" d="M76.5,-360C76.5,-360 15.5,-360 15.5,-360 9.5,-360 3.5,-354 3.5,-348 3.5,-348 3.5,-336 3.5,-336 3.5,-330 9.5,-324 15.5,-324 15.5,-324 76.5,-324 76.5,-324 82.5,-324 88.5,-330 88.5,-336 88.5,-336 88.5,-348 88.5,-348 88.5,-354 82.5,-360 76.5,-360"/>
<text text-anchor="middle" x="46" y="-338.3" font-family="Helvetica,sans-Serif" font-size="14.00">err_error4</text>
</g>
<!-- err_error5 -->
<g id="node9" class="node">
<title>err_error5</title>
<path fill="white" stroke="black" d="M76.5,-414C76.5,-414 15.5,-414 15.5,-414 9.5,-414 3.5,-408 3.5,-402 3.5,-402 3.5,-390 3.5,-390 3.5,-384 9.5,-378 15.5,-378 15.5,-378 76.5,-378 76.5,-378 82.5,-378 88.5,-384 88.5,-390 88.5,-390 88.5,-402 88.5,-402 88.5,-408 82.5,-414 76.5,-414"/>
<text text-anchor="middle" x="46" y="-392.3" font-family="Helvetica,sans-Serif" font-size="14.00">err_error5</text>
</g>
<!-- mnt_comp1 -->
<g id="node10" class="node">
<title>mnt_comp1</title>
<path fill="white" stroke="black" d="M348,-226C348,-226 274,-226 274,-226 268,-226 262,-220 262,-214 262,-214 262,-202 262,-202 262,-196 268,-190 274,-190 274,-190 348,-190 348,-190 354,-190 360,-196 360,-202 360,-202 360,-214 360,-214 360,-220 354,-226 348,-226"/>
<text text-anchor="middle" x="311" y="-204.3" font-family="Helvetica,sans-Serif" font-size="14.00">mnt_comp1</text>
</g>
<!-- mnt_comp1&#45;&gt;err_error2 -->
<g id="edge2" class="edge">
<title>mnt_comp1&#45;&gt;err_error2</title>
<path fill="none" stroke="black" stroke-width="1.2" d="M360.28,-205.64C396.96,-203.84 448.66,-201.29 494,-199 502.23,-198.58 510.94,-198.14 519.45,-197.7"/>
<polygon fill="black" stroke="black" stroke-width="1.2" points="519.86,-201.19 529.67,-197.18 519.5,-194.19 519.86,-201.19"/>
</g>
<!-- mnt_comp1&#45;&gt;err_error3 -->
<g id="edge3" class="edge">
<title>mnt_comp1&#45;&gt;err_error3</title>
<path fill="none" stroke="black" stroke-width="1.2" d="M360.03,-194.9C370.64,-192.01 381.92,-188.93 392.66,-186"/>
<polygon fill="black" stroke="black" stroke-width="1.2" points="393.6,-189.37 402.33,-183.37 391.76,-182.62 393.6,-189.37"/>
</g>
<!-- mnt_comp4 -->
<g id="node13" class="node">
<title>mnt_comp4</title>
<path fill="white" stroke="black" d="M482,-301C482,-301 408,-301 408,-301 402,-301 396,-295 396,-289 396,-289 396,-277 396,-277 396,-271 402,-265 408,-265 408,-265 482,-265 482,-265 488,-265 494,-271 494,-277 494,-277 494,-289 494,-289 494,-295 488,-301 482,-301"/>
<text text-anchor="middle" x="445" y="-279.3" font-family="Helvetica,sans-Serif" font-size="14.00">mnt_comp4</text>
</g>
<!-- mnt_comp1&#45;&gt;mnt_comp4 -->
<g id="edge6" class="edge">
<title>mnt_comp1&#45;&gt;mnt_comp4</title>
<path fill="none" stroke="black" stroke-width="1.2" d="M343.95,-226.16C361.74,-236.26 384.06,-248.95 403.11,-259.77"/>
<polygon fill="black" stroke="black" stroke-width="1.2" points="401.46,-262.85 411.88,-264.75 404.92,-256.77 401.46,-262.85"/>
</g>
<!-- mnt_comp2 -->
<g id="node11" class="node">
<title>mnt_comp2</title>
<path fill="white" stroke="black" d="M214,-306C214,-306 140,-306 140,-306 134,-306 128,-300 128,-294 128,-294 128,-282 128,-282 128,-276 134,-270 140,-270 140,-270 214,-270 214,-270 220,-270 226,-276 226,-282 226,-282 226,-294 226,-294 226,-300 220,-306 214,-306"/>
<text text-anchor="middle" x="177" y="-284.3" font-family="Helvetica,sans-Serif" font-size="14.00">mnt_comp2</text>
</g>
<!-- mnt_comp2&#45;&gt;mnt_comp1 -->
<g id="edge4" class="edge">
<title>mnt_comp2&#45;&gt;mnt_comp1</title>
<path fill="none" stroke="black" stroke-width="1.2" d="M210.66,-269.92C215.82,-266.98 221.07,-263.94 226,-261 241.7,-251.64 258.8,-240.94 273.45,-231.62"/>
<polygon fill="black" stroke="black" stroke-width="1.2" points="275.67,-234.36 282.22,-226.02 271.91,-228.46 275.67,-234.36"/>
</g>
<!-- mnt_comp2&#45;&gt;mnt_comp4 -->
<g id="edge8" class="edge">
<title>mnt_comp2&#45;&gt;mnt_comp4</title>
<path fill="none" stroke="black" stroke-width="1.2" d="M226.17,-287.09C270.94,-286.25 337.73,-285 385.54,-284.1"/>
<polygon fill="black" stroke="black" stroke-width="1.2" points="385.81,-287.59 395.74,-283.91 385.68,-280.6 385.81,-287.59"/>
</g>
<!-- mnt_comp3 -->
<g id="node12" class="node">
<title>mnt_comp3</title>
<path fill="white" stroke="black" d="M214,-252C214,-252 140,-252 140,-252 134,-252 128,-246 128,-240 128,-240 128,-228 128,-228 128,-222 134,-216 140,-216 140,-216 214,-216 214,-216 220,-216 226,-222 226,-228 226,-228 226,-240 226,-240 226,-246 220,-252 214,-252"/>
<text text-anchor="middle" x="177" y="-230.3" font-family="Helvetica,sans-Serif" font-size="14.00">mnt_comp3</text>
</g>
<!-- mnt_comp3&#45;&gt;mnt_comp1 -->
<g id="edge5" class="edge">
<title>mnt_comp3&#45;&gt;mnt_comp1</title>
<path fill="none" stroke="black" stroke-width="1.2" d="M226.03,-224.54C234.4,-222.89 243.19,-221.16 251.8,-219.46"/>
<polygon fill="black" stroke="black" stroke-width="1.2" points="252.65,-222.86 261.79,-217.5 251.3,-216 252.65,-222.86"/>
</g>
<!-- mnt_comp3&#45;&gt;mnt_comp4 -->
<g id="edge10" class="edge">
<title>mnt_comp3&#45;&gt;mnt_comp4</title>
<path fill="none" stroke="black" stroke-width="1.2" d="M226.17,-242.87C271.04,-251.14 338.01,-263.48 385.84,-272.29"/>
<polygon fill="black" stroke="black" stroke-width="1.2" points="385.27,-275.74 395.74,-274.11 386.54,-268.86 385.27,-275.74"/>
</g>
<!-- fail_comp2 -->
<g id="node14" class="node">
<title>fail_comp2</title>
<path fill="white" stroke="black" d="M80,-306C80,-306 12,-306 12,-306 6,-306 0,-300 0,-294 0,-294 0,-282 0,-282 0,-276 6,-270 12,-270 12,-270 80,-270 80,-270 86,-270 92,-276 92,-282 92,-282 92,-294 92,-294 92,-300 86,-306 80,-306"/>
<text text-anchor="middle" x="46" y="-284.3" font-family="Helvetica,sans-Serif" font-size="14.00">fail_comp2</text>
</g>
<!-- fail_comp2&#45;&gt;mnt_comp1 -->
<g id="edge7" class="edge">
<title>fail_comp2&#45;&gt;mnt_comp1</title>
<path fill="none" stroke="black" stroke-width="1.2" d="M81.12,-269.79C84.98,-267.09 88.7,-264.14 92,-261 112.88,-241.09 102.57,-220.61 128,-207 165.56,-186.9 214.04,-188.25 251.52,-194.03"/>
<polygon fill="black" stroke="black" stroke-width="1.2" points="251.33,-197.55 261.78,-195.76 252.5,-190.64 251.33,-197.55"/>
</g>
<!-- fail_comp2&#45;&gt;mnt_comp2 -->
<g id="edge9" class="edge">
<title>fail_comp2&#45;&gt;mnt_comp2</title>
<path fill="none" stroke="black" stroke-width="1.2" d="M92.12,-288C100.28,-288 108.9,-288 117.38,-288"/>
<polygon fill="black" stroke="black" stroke-width="1.2" points="117.62,-291.5 127.62,-288 117.62,-284.5 117.62,-291.5"/>
</g>
<!-- fail_comp2&#45;&gt;mnt_comp4 -->
<g id="edge11" class="edge">
<title>fail_comp2&#45;&gt;mnt_comp4</title>
<path fill="none" stroke="black" stroke-width="1.2" d="M92.19,-305.91C103.69,-309.67 116.15,-313.08 128,-315 217.51,-329.53 322.42,-312.18 386.01,-297.92"/>
<polygon fill="black" stroke="black" stroke-width="1.2" points="386.89,-301.31 395.85,-295.67 385.32,-294.49 386.89,-301.31"/>
</g>
</g>
</svg>
