<?xml version="1.0" encoding="UTF-8" standalone="no"?>
<!DOCTYPE svg PUBLIC "-//W3C//DTD SVG 1.1//EN"
 "http://www.w3.org/Graphics/SVG/1.1/DTD/svg11.dtd">
<!-- Generated by graphviz version 2.50.0 (0)
 -->
<!-- Title: G Pages: 1 -->
<svg width="475pt" height="70pt"
 viewBox="0.00 0.00 475.00 70.00" xmlns="http://www.w3.org/2000/svg" xmlns:xlink="http://www.w3.org/1999/xlink">
<g id="graph0" class="graph" transform="scale(1 1) rotate(0) translate(4 66)">
<title>G</title>
<polygon fill="white" stroke="transparent" points="-4,4 -4,-66 471,-66 471,4 -4,4"/>
<text text-anchor="middle" x="233.5" y="-45.2" font-family="Times,serif" font-size="16.00">model=model1/varlingam_telemetry.json [machine 42]</text>
<!-- volt -->
<g id="node1" class="node">
<title>volt</title>
<path fill="white" stroke="black" d="M294.5,-36C294.5,-36 264.5,-36 264.5,-36 258.5,-36 252.5,-30 252.5,-24 252.5,-24 252.5,-12 252.5,-12 252.5,-6 258.5,0 264.5,0 264.5,0 294.5,0 294.5,0 300.5,0 306.5,-6 306.5,-12 306.5,-12 306.5,-24 306.5,-24 306.5,-30 300.5,-36 294.5,-36"/>
<text text-anchor="middle" x="279.5" y="-14.3" font-family="Helvetica,sans-Serif" font-size="14.00">volt</text>
</g>
<!-- vibration -->
<g id="node4" class="node">
<title>vibration</title>
<path fill="white" stroke="black" d="M408.5,-36C408.5,-36 354.5,-36 354.5,-36 348.5,-36 342.5,-30 342.5,-24 342.5,-24 342.5,-12 342.5,-12 342.5,-6 348.5,0 354.5,0 354.5,0 408.5,0 408.5,0 414.5,0 420.5,-6 420.5,-12 420.5,-12 420.5,-24 420.5,-24 420.5,-30 414.5,-36 408.5,-36"/>
<text text-anchor="middle" x="381.5" y="-14.3" font-family="Helvetica,sans-Serif" font-size="14.00">vibration</text>
</g>
<!-- volt&#45;&gt;vibration -->
<g id="edge2" class="edge">
<title>volt&#45;&gt;vibration</title>
<path fill="none" stroke="black" stroke-width="1.2" d="M306.51,-18C314.33,-18 323.18,-18 331.96,-18"/>
<polygon fill="black" stroke="black" stroke-width="1.2" points="332.18,-21.5 342.18,-18 332.18,-14.5 332.18,-21.5"/>
</g>
<!-- rotate -->
<g id="node2" class="node">
<title>rotate</title>
<path fill="white" stroke="black" d="M204.5,-36C204.5,-36 171.5,-36 171.5,-36 165.5,-36 159.5,-30 159.5,-24 159.5,-24 159.5,-12 159.5,-12 159.5,-6 165.5,0 171.5,0 171.5,0 204.5,0 204.5,0 210.5,0 216.5,-6 216.5,-12 216.5,-12 216.5,-24 216.5,-24 216.5,-30 210.5,-36 204.5,-36"/>
<text text-anchor="middle" x="188" y="-14.3" font-family="Helvetica,sans-Serif" font-size="14.00">rotate</text>
</g>
<!-- rotate&#45;&gt;volt -->
<g id="edge1" class="edge">
<title>rotate&#45;&gt;volt</title>
<path fill="none" stroke="black" stroke-width="1.2" d="M216.83,-18C224.85,-18 233.73,-18 242.19,-18"/>
<polygon fill="black" stroke="black" stroke-width="1.2" points="242.22,-21.5 252.22,-18 242.22,-14.5 242.22,-21.5"/>
</g>
<!-- pressure -->
<g id="node3" class="node">
<title>pressure</title>
<path fill="white" stroke="black" d="M111.5,-36C111.5,-36 58.5,-36 58.5,-36 52.5,-36 46.5,-30 46.5,-24 46.5,-24 46.5,-12 46.5,-12 46.5,-6 52.5,0 58.5,0 58.5,0 111.5,0 111.5,0 117.5,0 123.5,-6 123.5,-12 123.5,-12 123.5,-24 123.5,-24 123.5,-30 117.5,-36 111.5,-36"/>
<text text-anchor="middle" x="85" y="-14.3" font-family="Helvetica,sans-Serif" font-size="14.00">pressure</text>
</g>
<!-- pressure&#45;&gt;rotate -->
<g id="edge3" class="edge">
<title>pressure&#45;&gt;rotate</title>
<path fill="none" stroke="black" stroke-width="1.2" d="M123.61,-18C131.97,-18 140.83,-18 149.2,-18"/>
<polygon fill="black" stroke="black" stroke-width="1.2" points="149.46,-21.5 159.46,-18 149.46,-14.5 149.46,-21.5"/>
</g>
</g>
</svg>
