<?xml version="1.0" encoding="UTF-8" standalone="no"?>
<!DOCTYPE svg PUBLIC "-//W3C//DTD SVG 1.1//EN"
 "http://www.w3.org/Graphics/SVG/1.1/DTD/svg11.dtd">
<!-- Generated by graphviz version 2.50.0 (0)
 -->
<!-- Title: G Pages: 1 -->
<svg width="475pt" height="178pt"
 viewBox="0.00 0.00 475.00 178.00" xmlns="http://www.w3.org/2000/svg" xmlns:xlink="http://www.w3.org/1999/xlink">
<g id="graph0" class="graph" transform="scale(1 1) rotate(0) translate(4 174)">
<title>G</title>
<polygon fill="white" stroke="transparent" points="-4,4 -4,-174 471,-174 471,4 -4,4"/>
<text text-anchor="middle" x="233.5" y="-153.2" font-family="Times,serif" font-size="16.00">model=model2/varlingam_telemetry.json [machine 98]</text>
<!-- volt -->
<g id="node1" class="node">
<title>volt</title>
<path fill="white" stroke="black" d="M191.5,-36C191.5,-36 161.5,-36 161.5,-36 155.5,-36 149.5,-30 149.5,-24 149.5,-24 149.5,-12 149.5,-12 149.5,-6 155.5,0 161.5,0 161.5,0 191.5,0 191.5,0 197.5,0 203.5,-6 203.5,-12 203.5,-12 203.5,-24 203.5,-24 203.5,-30 197.5,-36 191.5,-36"/>
<text text-anchor="middle" x="176.5" y="-14.3" font-family="Helvetica,sans-Serif" font-size="14.00">volt</text>
</g>
<!-- rotate -->
<g id="node2" class="node">
<title>rotate</title>
<path fill="white" stroke="black" d="M193,-90C193,-90 160,-90 160,-90 154,-90 148,-84 148,-78 148,-78 148,-66 148,-66 148,-60 154,-54 160,-54 160,-54 193,-54 193,-54 199,-54 205,-60 205,-66 205,-66 205,-78 205,-78 205,-84 199,-90 193,-90"/>
<text text-anchor="middle" x="176.5" y="-68.3" font-family="Helvetica,sans-Serif" font-size="14.00">rotate</text>
</g>
<!-- vibration -->
<g id="node4" class="node">
<title>vibration</title>
<path fill="white" stroke="black" d="M317,-90C317,-90 263,-90 263,-90 257,-90 251,-84 251,-78 251,-78 251,-66 251,-66 251,-60 257,-54 263,-54 263,-54 317,-54 317,-54 323,-54 329,-60 329,-66 329,-66 329,-78 329,-78 329,-84 323,-90 317,-90"/>
<text text-anchor="middle" x="290" y="-68.3" font-family="Helvetica,sans-Serif" font-size="14.00">vibration</text>
</g>
<!-- rotate&#45;&gt;vibration -->
<g id="edge1" class="edge">
<title>rotate&#45;&gt;vibration</title>
<path fill="none" stroke="black" stroke-width="1.2" d="M205.06,-72C215.84,-72 228.53,-72 240.74,-72"/>
<polygon fill="black" stroke="black" stroke-width="1.2" points="240.82,-75.5 250.82,-72 240.82,-68.5 240.82,-75.5"/>
</g>
<!-- pressure -->
<g id="node3" class="node">
<title>pressure</title>
<path fill="white" stroke="black" d="M203,-144C203,-144 150,-144 150,-144 144,-144 138,-138 138,-132 138,-132 138,-120 138,-120 138,-114 144,-108 150,-108 150,-108 203,-108 203,-108 209,-108 215,-114 215,-120 215,-120 215,-132 215,-132 215,-138 209,-144 203,-144"/>
<text text-anchor="middle" x="176.5" y="-122.3" font-family="Helvetica,sans-Serif" font-size="14.00">pressure</text>
</g>
</g>
</svg>
