<?xml version="1.0" encoding="UTF-8" standalone="no"?>
<!DOCTYPE svg PUBLIC "-//W3C//DTD SVG 1.1//EN"
 "http://www.w3.org/Graphics/SVG/1.1/DTD/svg11.dtd">
<!-- Generated by graphviz version 2.50.0 (0)
 -->
<!-- Title: G Pages: 1 -->
<svg width="464pt" height="232pt"
 viewBox="0.00 0.00 464.00 232.00" xmlns="http://www.w3.org/2000/svg" xmlns:xlink="http://www.w3.org/1999/xlink">
<g id="graph0" class="graph" transform="scale(1 1) rotate(0) translate(4 228)">
<title>G</title>
<polygon fill="white" stroke="transparent" points="-4,4 -4,-228 460,-228 460,4 -4,4"/>
<text text-anchor="middle" x="228" y="-207.2" font-family="Times,serif" font-size="16.00">model=model3/varlingam_telemetry.json [machine 3]</text>
<!-- volt -->
<g id="node1" class="node">
<title>volt</title>
<path fill="white" stroke="black" d="M243,-36C243,-36 213,-36 213,-36 207,-36 201,-30 201,-24 201,-24 201,-12 201,-12 201,-6 207,0 213,0 213,0 243,0 243,0 249,0 255,-6 255,-12 255,-12 255,-24 255,-24 255,-30 249,-36 243,-36"/>
<text text-anchor="middle" x="228" y="-14.3" font-family="Helvetica,sans-Serif" font-size="14.00">volt</text>
</g>
<!-- rotate -->
<g id="node2" class="node">
<title>rotate</title>
<path fill="white" stroke="black" d="M244.5,-90C244.5,-90 211.5,-90 211.5,-90 205.5,-90 199.5,-84 199.5,-78 199.5,-78 199.5,-66 199.5,-66 199.5,-60 205.5,-54 211.5,-54 211.5,-54 244.5,-54 244.5,-54 250.5,-54 256.5,-60 256.5,-66 256.5,-66 256.5,-78 256.5,-78 256.5,-84 250.5,-90 244.5,-90"/>
<text text-anchor="middle" x="228" y="-68.3" font-family="Helvetica,sans-Serif" font-size="14.00">rotate</text>
</g>
<!-- pressure -->
<g id="node3" class="node">
<title>pressure</title>
<path fill="white" stroke="black" d="M254.5,-144C254.5,-144 201.5,-144 201.5,-144 195.5,-144 189.5,-138 189.5,-132 189.5,-132 189.5,-120 189.5,-120 189.5,-114 195.5,-108 201.5,-108 201.5,-108 254.5,-108 254.5,-108 260.5,-108 266.5,-114 266.5,-120 266.5,-120 266.5,-132 266.5,-132 266.5,-138 260.5,-144 254.5,-144"/>
<text text-anchor="middle" x="228" y="-122.3" font-family="Helvetica,sans-Serif" font-size="14.00">pressure</text>
</g>
<!-- vibration -->
<g id="node4" class="node">
<title>vibration</title>
<path fill="white" stroke="black" d="M255,-198C255,-198 201,-198 201,-198 195,-198 189,-192 189,-186 189,-186 189,-174 189,-174 189,-168 195,-162 201,-162 201,-162 255,-162 255,-162 261,-162 267,-168 267,-174 267,-174 267,-186 267,-186 267,-192 261,-198 255,-198"/>
<text text-anchor="middle" x="228" y="-176.3" font-family="Helvetica,sans-Serif" font-size="14.00">vibration</text>
</g>
</g>
</svg>
