<?xml version="1.0" encoding="UTF-8" standalone="no"?>
<!DOCTYPE svg PUBLIC "-//W3C//DTD SVG 1.1//EN"
 "http://www.w3.org/Graphics/SVG/1.1/DTD/svg11.dtd">
<!-- Generated by graphviz version 2.50.0 (0)
 -->
<!-- Title: G Pages: 1 -->
<svg width="623pt" height="496pt"
 viewBox="0.00 0.00 623.00 496.00" xmlns="http://www.w3.org/2000/svg" xmlns:xlink="http://www.w3.org/1999/xlink">
<g id="graph0" class="graph" transform="scale(1 1) rotate(0) translate(4 492)">
<title>G</title>
<polygon fill="white" stroke="transparent" points="-4,4 -4,-492 619,-492 619,4 -4,4"/>
<text text-anchor="middle" x="307.5" y="-471.2" font-family="Times,serif" font-size="16.00">model=model1/varlingam_mixed.json [machine 24]</text>
<!-- volt -->
<g id="node1" class="node">
<title>volt</title>
<path fill="white" stroke="black" d="M182,-300C182,-300 152,-300 152,-300 146,-300 140,-294 140,-288 140,-288 140,-276 140,-276 140,-270 146,-264 152,-264 152,-264 182,-264 182,-264 188,-264 194,-270 194,-276 194,-276 194,-288 194,-288 194,-294 188,-300 182,-300"/>
<text text-anchor="middle" x="167" y="-278.3" font-family="Helvetica,sans-Serif" font-size="14.00">volt</text>
</g>
<!-- fail_comp1 -->
<g id="node14" class="node">
<title>fail_comp1</title>
<path fill="white" stroke="black" d="M332,-296C332,-296 264,-296 264,-296 258,-296 252,-290 252,-284 252,-284 252,-272 252,-272 252,-266 258,-260 264,-260 264,-260 332,-260 332,-260 338,-260 344,-266 344,-272 344,-272 344,-284 344,-284 344,-290 338,-296 332,-296"/>
<text text-anchor="middle" x="298" y="-274.3" font-family="Helvetica,sans-Serif" font-size="14.00">fail_comp1</text>
</g>
<!-- volt&#45;&gt;fail_comp1 -->
<g id="edge1" class="edge">
<title>volt&#45;&gt;fail_comp1</title>
<path fill="none" stroke="black" stroke-width="1.2" d="M194.11,-281.19C207.82,-280.77 225.18,-280.23 241.72,-279.71"/>
<polygon fill="black" stroke="black" stroke-width="1.2" points="241.98,-283.21 251.87,-279.4 241.76,-276.21 241.98,-283.21"/>
</g>
<!-- rotate -->
<g id="node2" class="node">
<title>rotate</title>
<path fill="white" stroke="black" d="M59,-300C59,-300 26,-300 26,-300 20,-300 14,-294 14,-288 14,-288 14,-276 14,-276 14,-270 20,-264 26,-264 26,-264 59,-264 59,-264 65,-264 71,-270 71,-276 71,-276 71,-288 71,-288 71,-294 65,-300 59,-300"/>
<text text-anchor="middle" x="42.5" y="-278.3" font-family="Helvetica,sans-Serif" font-size="14.00">rotate</text>
</g>
<!-- pressure -->
<g id="node3" class="node">
<title>pressure</title>
<path fill="white" stroke="black" d="M69,-246C69,-246 16,-246 16,-246 10,-246 4,-240 4,-234 4,-234 4,-222 4,-222 4,-216 10,-210 16,-210 16,-210 69,-210 69,-210 75,-210 81,-216 81,-222 81,-222 81,-234 81,-234 81,-240 75,-246 69,-246"/>
<text text-anchor="middle" x="42.5" y="-224.3" font-family="Helvetica,sans-Serif" font-size="14.00">pressure</text>
</g>
<!-- fail_comp3 -->
<g id="node15" class="node">
<title>fail_comp3</title>
<path fill="white" stroke="black" d="M201,-246C201,-246 133,-246 133,-246 127,-246 121,-240 121,-234 121,-234 121,-222 121,-222 121,-216 127,-210 133,-210 133,-210 201,-210 201,-210 207,-210 213,-216 213,-222 213,-222 213,-234 213,-234 213,-240 207,-246 201,-246"/>
<text text-anchor="middle" x="167" y="-224.3" font-family="Helvetica,sans-Serif" font-size="14.00">fail_comp3</text>
</g>
<!-- pressure&#45;&gt;fail_comp3 -->
<g id="edge2" class="edge">
<title>pressure&#45;&gt;fail_comp3</title>
<path fill="none" stroke="black" stroke-width="1.2" d="M81.25,-228C90.54,-228 100.68,-228 110.61,-228"/>
<polygon fill="black" stroke="black" stroke-width="1.2" points="110.84,-231.5 120.84,-228 110.84,-224.5 110.84,-231.5"/>
</g>
<!-- vibration -->
<g id="node4" class="node">
<title>vibration</title>
<path fill="white" stroke="black" d="M325,-36C325,-36 271,-36 271,-36 265,-36 259,-30 259,-24 259,-24 259,-12 259,-12 259,-6 265,0 271,0 271,0 325,0 325,0 331,0 337,-6 337,-12 337,-12 337,-24 337,-24 337,-30 331,-36 325,-36"/>
<text text-anchor="middle" x="298" y="-14.3" font-family="Helvetica,sans-Serif" font-size="14.00">vibration</text>
</g>
<!-- err_error1 -->
<g id="node5" class="node">
<title>err_error1</title>
<path fill="white" stroke="black" d="M73,-354C73,-354 12,-354 12,-354 6,-354 0,-348 0,-342 0,-342 0,-330 0,-330 0,-324 6,-318 12,-318 12,-318 73,-318 73,-318 79,-318 85,-324 85,-330 85,-330 85,-342 85,-342 85,-348 79,-354 73,-354"/>
<text text-anchor="middle" x="42.5" y="-332.3" font-family="Helvetica,sans-Serif" font-size="14.00">err_error1</text>
</g>
<!-- err_error4 -->
<g id="node8" class="node">
<title>err_error4</title>
<path fill="white" stroke="black" d="M197.5,-354C197.5,-354 136.5,-354 136.5,-354 130.5,-354 124.5,-348 124.5,-342 124.5,-342 124.5,-330 124.5,-330 124.5,-324 130.5,-318 136.5,-318 136.5,-318 197.5,-318 197.5,-318 203.5,-318 209.5,-324 209.5,-330 209.5,-330 209.5,-342 209.5,-342 209.5,-348 203.5,-354 197.5,-354"/>
<text text-anchor="middle" x="167" y="-332.3" font-family="Helvetica,sans-Serif" font-size="14.00">err_error4</text>
</g>
<!-- err_error1&#45;&gt;err_error4 -->
<g id="edge5" class="edge">
<title>err_error1&#45;&gt;err_error4</title>
<path fill="none" stroke="black" stroke-width="1.2" d="M85.31,-336C94.58,-336 104.5,-336 114.11,-336"/>
<polygon fill="black" stroke="black" stroke-width="1.2" points="114.37,-339.5 124.37,-336 114.37,-332.5 114.37,-339.5"/>
</g>
<!-- err_error2 -->
<g id="node6" class="node">
<title>err_error2</title>
<path fill="white" stroke="black" d="M73,-408C73,-408 12,-408 12,-408 6,-408 0,-402 0,-396 0,-396 0,-384 0,-384 0,-378 6,-372 12,-372 12,-372 73,-372 73,-372 79,-372 85,-378 85,-384 85,-384 85,-396 85,-396 85,-402 79,-408 73,-408"/>
<text text-anchor="middle" x="42.5" y="-386.3" font-family="Helvetica,sans-Serif" font-size="14.00">err_error2</text>
</g>
<!-- err_error3 -->
<g id="node7" class="node">
<title>err_error3</title>
<path fill="white" stroke="black" d="M73,-462C73,-462 12,-462 12,-462 6,-462 0,-456 0,-450 0,-450 0,-438 0,-438 0,-432 6,-426 12,-426 12,-426 73,-426 73,-426 79,-426 85,-432 85,-438 85,-438 85,-450 85,-450 85,-456 79,-462 73,-462"/>
<text text-anchor="middle" x="42.5" y="-440.3" font-family="Helvetica,sans-Serif" font-size="14.00">err_error3</text>
</g>
<!-- err_error5 -->
<g id="node9" class="node">
<title>err_error5</title>
<path fill="white" stroke="black" d="M197.5,-36C197.5,-36 136.5,-36 136.5,-36 130.5,-36 124.5,-30 124.5,-24 124.5,-24 124.5,-12 124.5,-12 124.5,-6 130.5,0 136.5,0 136.5,0 197.5,0 197.5,0 203.5,0 209.5,-6 209.5,-12 209.5,-12 209.5,-24 209.5,-24 209.5,-30 203.5,-36 197.5,-36"/>
<text text-anchor="middle" x="167" y="-14.3" font-family="Helvetica,sans-Serif" font-size="14.00">err_error5</text>
</g>
<!-- err_error5&#45;&gt;vibration -->
<g id="edge3" class="edge">
<title>err_error5&#45;&gt;vibration</title>
<path fill="none" stroke="black" stroke-width="1.2" d="M209.53,-18C221.96,-18 235.71,-18 248.55,-18"/>
<polygon fill="black" stroke="black" stroke-width="1.2" points="248.62,-21.5 258.62,-18 248.61,-14.5 248.62,-21.5"/>
</g>
<!-- mnt_comp1 -->
<g id="node10" class="node">
<title>mnt_comp1</title>
<path fill="white" stroke="black" d="M469,-212C469,-212 395,-212 395,-212 389,-212 383,-206 383,-200 383,-200 383,-188 383,-188 383,-182 389,-176 395,-176 395,-176 469,-176 469,-176 475,-176 481,-182 481,-188 481,-188 481,-200 481,-200 481,-206 475,-212 469,-212"/>
<text text-anchor="middle" x="432" y="-190.3" font-family="Helvetica,sans-Serif" font-size="14.00">mnt_comp1</text>
</g>
<!-- mnt_comp2 -->
<g id="node11" class="node">
<title>mnt_comp2</title>
<path fill="white" stroke="black" d="M603,-166C603,-166 529,-166 529,-166 523,-166 517,-160 517,-154 517,-154 517,-142 517,-142 517,-136 523,-130 529,-130 529,-130 603,-130 603,-130 609,-130 615,-136 615,-142 615,-142 615,-154 615,-154 615,-160 609,-166 603,-166"/>
<text text-anchor="middle" x="566" y="-144.3" font-family="Helvetica,sans-Serif" font-size="14.00">mnt_comp2</text>
</g>
<!-- mnt_comp1&#45;&gt;mnt_comp2 -->
<g id="edge6" class="edge">
<title>mnt_comp1&#45;&gt;mnt_comp2</title>
<path fill="none" stroke="black" stroke-width="1.2" d="M481.03,-177.26C489.49,-174.31 498.38,-171.22 507.08,-168.18"/>
<polygon fill="black" stroke="black" stroke-width="1.2" points="508.49,-171.4 516.79,-164.8 506.19,-164.79 508.49,-171.4"/>
</g>
<!-- mnt_comp3 -->
<g id="node12" class="node">
<title>mnt_comp3</title>
<path fill="white" stroke="black" d="M335,-166C335,-166 261,-166 261,-166 255,-166 249,-160 249,-154 249,-154 249,-142 249,-142 249,-136 255,-130 261,-130 261,-130 335,-130 335,-130 341,-130 347,-136 347,-142 347,-142 347,-154 347,-154 347,-160 341,-166 335,-166"/>
<text text-anchor="middle" x="298" y="-144.3" font-family="Helvetica,sans-Serif" font-size="14.00">mnt_comp3</text>
</g>
<!-- mnt_comp3&#45;&gt;mnt_comp1 -->
<g id="edge7" class="edge">
<title>mnt_comp3&#45;&gt;mnt_comp1</title>
<path fill="none" stroke="black" stroke-width="1.2" d="M347.03,-164.74C355.49,-167.69 364.38,-170.78 373.08,-173.82"/>
<polygon fill="black" stroke="black" stroke-width="1.2" points="372.19,-177.21 382.79,-177.2 374.49,-170.6 372.19,-177.21"/>
</g>
<!-- mnt_comp3&#45;&gt;mnt_comp2 -->
<g id="edge11" class="edge">
<title>mnt_comp3&#45;&gt;mnt_comp2</title>
<path fill="none" stroke="black" stroke-width="1.2" d="M347.17,-148C391.94,-148 458.73,-148 506.54,-148"/>
<polygon fill="black" stroke="black" stroke-width="1.2" points="506.74,-151.5 516.74,-148 506.74,-144.5 506.74,-151.5"/>
</g>
<!-- mnt_comp4 -->
<g id="node13" class="node">
<title>mnt_comp4</title>
<path fill="white" stroke="black" d="M469,-74C469,-74 395,-74 395,-74 389,-74 383,-68 383,-62 383,-62 383,-50 383,-50 383,-44 389,-38 395,-38 395,-38 469,-38 469,-38 475,-38 481,-44 481,-50 481,-50 481,-62 481,-62 481,-68 475,-74 469,-74"/>
<text text-anchor="middle" x="432" y="-52.3" font-family="Helvetica,sans-Serif" font-size="14.00">mnt_comp4</text>
</g>
<!-- mnt_comp4&#45;&gt;mnt_comp2 -->
<g id="edge12" class="edge">
<title>mnt_comp4&#45;&gt;mnt_comp2</title>
<path fill="none" stroke="black" stroke-width="1.2" d="M460.52,-74.12C467.25,-78.62 474.41,-83.45 481,-88 497.92,-99.68 516.55,-112.95 531.96,-124.03"/>
<polygon fill="black" stroke="black" stroke-width="1.2" points="530,-126.93 540.15,-129.94 534.09,-121.25 530,-126.93"/>
</g>
<!-- fail_comp1&#45;&gt;mnt_comp1 -->
<g id="edge8" class="edge">
<title>fail_comp1&#45;&gt;mnt_comp1</title>
<path fill="none" stroke="black" stroke-width="1.2" d="M327.32,-259.98C346.67,-247.66 372.53,-231.21 393.58,-217.81"/>
<polygon fill="black" stroke="black" stroke-width="1.2" points="395.72,-220.6 402.27,-212.28 391.96,-214.7 395.72,-220.6"/>
</g>
<!-- fail_comp3&#45;&gt;mnt_comp1 -->
<g id="edge9" class="edge">
<title>fail_comp3&#45;&gt;mnt_comp1</title>
<path fill="none" stroke="black" stroke-width="1.2" d="M213.33,-223.62C249.56,-219.95 301.63,-214.31 347,-208 355.31,-206.84 364.07,-205.51 372.67,-204.14"/>
<polygon fill="black" stroke="black" stroke-width="1.2" points="373.34,-207.57 382.65,-202.52 372.22,-200.67 373.34,-207.57"/>
</g>
<!-- fail_comp3&#45;&gt;mnt_comp2 -->
<g id="edge13" class="edge">
<title>fail_comp3&#45;&gt;mnt_comp2</title>
<path fill="none" stroke="black" stroke-width="1.2" d="M201.54,-246C205.59,-248.77 209.51,-251.79 213,-255 233.15,-273.54 224.63,-292.52 249,-305 287.77,-324.86 305.14,-317.04 347,-305 428.6,-281.54 504.39,-212.05 541.37,-173.86"/>
<polygon fill="black" stroke="black" stroke-width="1.2" points="544.29,-175.87 548.65,-166.21 539.22,-171.04 544.29,-175.87"/>
</g>
<!-- fail_comp3&#45;&gt;mnt_comp3 -->
<g id="edge15" class="edge">
<title>fail_comp3&#45;&gt;mnt_comp3</title>
<path fill="none" stroke="black" stroke-width="1.2" d="M197.27,-209.85C215.58,-198.49 239.35,-183.75 259.09,-171.51"/>
<polygon fill="black" stroke="black" stroke-width="1.2" points="261.19,-174.33 267.84,-166.08 257.5,-168.38 261.19,-174.33"/>
</g>
<!-- fail_comp4 -->
<g id="node16" class="node">
<title>fail_comp4</title>
<path fill="white" stroke="black" d="M201,-120C201,-120 133,-120 133,-120 127,-120 121,-114 121,-108 121,-108 121,-96 121,-96 121,-90 127,-84 133,-84 133,-84 201,-84 201,-84 207,-84 213,-90 213,-96 213,-96 213,-108 213,-108 213,-114 207,-120 201,-120"/>
<text text-anchor="middle" x="167" y="-98.3" font-family="Helvetica,sans-Serif" font-size="14.00">fail_comp4</text>
</g>
<!-- fail_comp4&#45;&gt;vibration -->
<g id="edge4" class="edge">
<title>fail_comp4&#45;&gt;vibration</title>
<path fill="none" stroke="black" stroke-width="1.2" d="M195.67,-83.98C214.59,-71.66 239.86,-55.21 260.43,-41.81"/>
<polygon fill="black" stroke="black" stroke-width="1.2" points="262.46,-44.67 268.93,-36.28 258.64,-38.8 262.46,-44.67"/>
</g>
<!-- fail_comp4&#45;&gt;mnt_comp1 -->
<g id="edge10" class="edge">
<title>fail_comp4&#45;&gt;mnt_comp1</title>
<path fill="none" stroke="black" stroke-width="1.2" d="M182.23,-120.23C196.91,-137.56 221.5,-162.76 249,-175 287.87,-192.3 335.87,-196.7 372.82,-196.96"/>
<polygon fill="black" stroke="black" stroke-width="1.2" points="372.94,-200.46 382.93,-196.93 372.92,-193.46 372.94,-200.46"/>
</g>
<!-- fail_comp4&#45;&gt;mnt_comp2 -->
<g id="edge14" class="edge">
<title>fail_comp4&#45;&gt;mnt_comp2</title>
<path fill="none" stroke="black" stroke-width="1.2" d="M213.27,-106.58C249.47,-110.3 301.52,-115.77 347,-121 401.3,-127.24 463.14,-134.96 507.05,-140.54"/>
<polygon fill="black" stroke="black" stroke-width="1.2" points="506.61,-144.02 516.97,-141.81 507.49,-137.07 506.61,-144.02"/>
</g>
<!-- fail_comp4&#45;&gt;mnt_comp3 -->
<g id="edge16" class="edge">
<title>fail_comp4&#45;&gt;mnt_comp3</title>
<path fill="none" stroke="black" stroke-width="1.2" d="M213.12,-118.09C221.46,-121.06 230.28,-124.21 238.94,-127.3"/>
<polygon fill="black" stroke="black" stroke-width="1.2" points="238.02,-130.68 248.62,-130.75 240.37,-124.09 238.02,-130.68"/>
</g>
<!-- fail_comp4&#45;&gt;mnt_comp4 -->
<g id="edge17" class="edge">
<title>fail_comp4&#45;&gt;mnt_comp4</title>
<path fill="none" stroke="black" stroke-width="1.2" d="M213.21,-94.09C257.36,-86.37 324.75,-74.58 372.86,-66.17"/>
<polygon fill="black" stroke="black" stroke-width="1.2" points="373.57,-69.6 382.82,-64.43 372.37,-62.7 373.57,-69.6"/>
</g>
</g>
</svg>
