<?xml version="1.0" encoding="UTF-8" standalone="no"?>
<!DOCTYPE svg PUBLIC "-//W3C//DTD SVG 1.1//EN"
 "http://www.w3.org/Graphics/SVG/1.1/DTD/svg11.dtd">
<!-- Generated by graphviz version 2.50.0 (0)
 -->
<!-- Title: G Pages: 1 -->
<svg width="629pt" height="448pt"
 viewBox="0.00 0.00 629.00 448.00" xmlns="http://www.w3.org/2000/svg" xmlns:xlink="http://www.w3.org/1999/xlink">
<g id="graph0" class="graph" transform="scale(1 1) rotate(0) translate(4 444)">
<title>G</title>
<polygon fill="white" stroke="transparent" points="-4,4 -4,-444 625,-444 625,4 -4,4"/>
<text text-anchor="middle" x="310.5" y="-423.2" font-family="Times,serif" font-size="16.00">model=model3/varlingam_mixed.json [machine 6]</text>
<!-- volt -->
<g id="node1" class="node">
<title>volt</title>
<path fill="white" stroke="black" d="M57.5,-36C57.5,-36 27.5,-36 27.5,-36 21.5,-36 15.5,-30 15.5,-24 15.5,-24 15.5,-12 15.5,-12 15.5,-6 21.5,0 27.5,0 27.5,0 57.5,0 57.5,0 63.5,0 69.5,-6 69.5,-12 69.5,-12 69.5,-24 69.5,-24 69.5,-30 63.5,-36 57.5,-36"/>
<text text-anchor="middle" x="42.5" y="-14.3" font-family="Helvetica,sans-Serif" font-size="14.00">volt</text>
</g>
<!-- rotate -->
<g id="node2" class="node">
<title>rotate</title>
<path fill="white" stroke="black" d="M186.5,-90C186.5,-90 153.5,-90 153.5,-90 147.5,-90 141.5,-84 141.5,-78 141.5,-78 141.5,-66 141.5,-66 141.5,-60 147.5,-54 153.5,-54 153.5,-54 186.5,-54 186.5,-54 192.5,-54 198.5,-60 198.5,-66 198.5,-66 198.5,-78 198.5,-78 198.5,-84 192.5,-90 186.5,-90"/>
<text text-anchor="middle" x="170" y="-68.3" font-family="Helvetica,sans-Serif" font-size="14.00">rotate</text>
</g>
<!-- pressure -->
<g id="node3" class="node">
<title>pressure</title>
<path fill="white" stroke="black" d="M69,-90C69,-90 16,-90 16,-90 10,-90 4,-84 4,-78 4,-78 4,-66 4,-66 4,-60 10,-54 16,-54 16,-54 69,-54 69,-54 75,-54 81,-60 81,-66 81,-66 81,-78 81,-78 81,-84 75,-90 69,-90"/>
<text text-anchor="middle" x="42.5" y="-68.3" font-family="Helvetica,sans-Serif" font-size="14.00">pressure</text>
</g>
<!-- pressure&#45;&gt;rotate -->
<g id="edge1" class="edge">
<title>pressure&#45;&gt;rotate</title>
<path fill="none" stroke="black" stroke-width="1.2" d="M81.15,-72C97.03,-72 115.46,-72 131.34,-72"/>
<polygon fill="black" stroke="black" stroke-width="1.2" points="131.35,-75.5 141.35,-72 131.35,-68.5 131.35,-75.5"/>
</g>
<!-- vibration -->
<g id="node4" class="node">
<title>vibration</title>
<path fill="white" stroke="black" d="M69.5,-144C69.5,-144 15.5,-144 15.5,-144 9.5,-144 3.5,-138 3.5,-132 3.5,-132 3.5,-120 3.5,-120 3.5,-114 9.5,-108 15.5,-108 15.5,-108 69.5,-108 69.5,-108 75.5,-108 81.5,-114 81.5,-120 81.5,-120 81.5,-132 81.5,-132 81.5,-138 75.5,-144 69.5,-144"/>
<text text-anchor="middle" x="42.5" y="-122.3" font-family="Helvetica,sans-Serif" font-size="14.00">vibration</text>
</g>
<!-- err_error1 -->
<g id="node5" class="node">
<title>err_error1</title>
<path fill="white" stroke="black" d="M73,-198C73,-198 12,-198 12,-198 6,-198 0,-192 0,-186 0,-186 0,-174 0,-174 0,-168 6,-162 12,-162 12,-162 73,-162 73,-162 79,-162 85,-168 85,-174 85,-174 85,-186 85,-186 85,-192 79,-198 73,-198"/>
<text text-anchor="middle" x="42.5" y="-176.3" font-family="Helvetica,sans-Serif" font-size="14.00">err_error1</text>
</g>
<!-- err_error2 -->
<g id="node6" class="node">
<title>err_error2</title>
<path fill="white" stroke="black" d="M73,-252C73,-252 12,-252 12,-252 6,-252 0,-246 0,-240 0,-240 0,-228 0,-228 0,-222 6,-216 12,-216 12,-216 73,-216 73,-216 79,-216 85,-222 85,-228 85,-228 85,-240 85,-240 85,-246 79,-252 73,-252"/>
<text text-anchor="middle" x="42.5" y="-230.3" font-family="Helvetica,sans-Serif" font-size="14.00">err_error2</text>
</g>
<!-- err_error3 -->
<g id="node7" class="node">
<title>err_error3</title>
<path fill="white" stroke="black" d="M73,-306C73,-306 12,-306 12,-306 6,-306 0,-300 0,-294 0,-294 0,-282 0,-282 0,-276 6,-270 12,-270 12,-270 73,-270 73,-270 79,-270 85,-276 85,-282 85,-282 85,-294 85,-294 85,-300 79,-306 73,-306"/>
<text text-anchor="middle" x="42.5" y="-284.3" font-family="Helvetica,sans-Serif" font-size="14.00">err_error3</text>
</g>
<!-- err_error4 -->
<g id="node8" class="node">
<title>err_error4</title>
<path fill="white" stroke="black" d="M73,-360C73,-360 12,-360 12,-360 6,-360 0,-354 0,-348 0,-348 0,-336 0,-336 0,-330 6,-324 12,-324 12,-324 73,-324 73,-324 79,-324 85,-330 85,-336 85,-336 85,-348 85,-348 85,-354 79,-360 73,-360"/>
<text text-anchor="middle" x="42.5" y="-338.3" font-family="Helvetica,sans-Serif" font-size="14.00">err_error4</text>
</g>
<!-- mnt_comp1 -->
<g id="node10" class="node">
<title>mnt_comp1</title>
<path fill="white" stroke="black" d="M207,-293C207,-293 133,-293 133,-293 127,-293 121,-287 121,-281 121,-281 121,-269 121,-269 121,-263 127,-257 133,-257 133,-257 207,-257 207,-257 213,-257 219,-263 219,-269 219,-269 219,-281 219,-281 219,-287 213,-293 207,-293"/>
<text text-anchor="middle" x="170" y="-271.3" font-family="Helvetica,sans-Serif" font-size="14.00">mnt_comp1</text>
</g>
<!-- err_error4&#45;&gt;mnt_comp1 -->
<g id="edge2" class="edge">
<title>err_error4&#45;&gt;mnt_comp1</title>
<path fill="none" stroke="black" stroke-width="1.2" d="M77.46,-323.87C92.39,-315.9 110.09,-306.45 125.93,-297.99"/>
<polygon fill="black" stroke="black" stroke-width="1.2" points="127.84,-300.94 135.01,-293.15 124.54,-294.77 127.84,-300.94"/>
</g>
<!-- mnt_comp2 -->
<g id="node11" class="node">
<title>mnt_comp2</title>
<path fill="white" stroke="black" d="M341,-385C341,-385 267,-385 267,-385 261,-385 255,-379 255,-373 255,-373 255,-361 255,-361 255,-355 261,-349 267,-349 267,-349 341,-349 341,-349 347,-349 353,-355 353,-361 353,-361 353,-373 353,-373 353,-379 347,-385 341,-385"/>
<text text-anchor="middle" x="304" y="-363.3" font-family="Helvetica,sans-Serif" font-size="14.00">mnt_comp2</text>
</g>
<!-- err_error4&#45;&gt;mnt_comp2 -->
<g id="edge3" class="edge">
<title>err_error4&#45;&gt;mnt_comp2</title>
<path fill="none" stroke="black" stroke-width="1.2" d="M85.19,-346.02C128.4,-350.18 196.26,-356.72 244.75,-361.39"/>
<polygon fill="black" stroke="black" stroke-width="1.2" points="244.5,-364.88 254.79,-362.36 245.17,-357.91 244.5,-364.88"/>
</g>
<!-- mnt_comp3 -->
<g id="node12" class="node">
<title>mnt_comp3</title>
<path fill="white" stroke="black" d="M475,-339C475,-339 401,-339 401,-339 395,-339 389,-333 389,-327 389,-327 389,-315 389,-315 389,-309 395,-303 401,-303 401,-303 475,-303 475,-303 481,-303 487,-309 487,-315 487,-315 487,-327 487,-327 487,-333 481,-339 475,-339"/>
<text text-anchor="middle" x="438" y="-317.3" font-family="Helvetica,sans-Serif" font-size="14.00">mnt_comp3</text>
</g>
<!-- err_error4&#45;&gt;mnt_comp3 -->
<g id="edge4" class="edge">
<title>err_error4&#45;&gt;mnt_comp3</title>
<path fill="none" stroke="black" stroke-width="1.2" d="M85.24,-339.77C155.66,-336.01 298.22,-328.41 378.55,-324.12"/>
<polygon fill="black" stroke="black" stroke-width="1.2" points="379.19,-327.59 388.99,-323.56 378.81,-320.6 379.19,-327.59"/>
</g>
<!-- mnt_comp4 -->
<g id="node13" class="node">
<title>mnt_comp4</title>
<path fill="white" stroke="black" d="M609,-362C609,-362 535,-362 535,-362 529,-362 523,-356 523,-350 523,-350 523,-338 523,-338 523,-332 529,-326 535,-326 535,-326 609,-326 609,-326 615,-326 621,-332 621,-338 621,-338 621,-350 621,-350 621,-356 615,-362 609,-362"/>
<text text-anchor="middle" x="572" y="-340.3" font-family="Helvetica,sans-Serif" font-size="14.00">mnt_comp4</text>
</g>
<!-- err_error4&#45;&gt;mnt_comp4 -->
<g id="edge5" class="edge">
<title>err_error4&#45;&gt;mnt_comp4</title>
<path fill="none" stroke="black" stroke-width="1.2" d="M85.02,-357.05C96.58,-360.94 109.2,-364.89 121,-368 179.66,-383.46 194.61,-388.2 255,-394 358.23,-403.92 386.19,-393.34 487,-369 495.49,-366.95 504.4,-364.56 513.1,-362.09"/>
<polygon fill="black" stroke="black" stroke-width="1.2" points="514.19,-365.42 522.82,-359.28 512.24,-358.7 514.19,-365.42"/>
</g>
<!-- err_error5 -->
<g id="node9" class="node">
<title>err_error5</title>
<path fill="white" stroke="black" d="M73,-414C73,-414 12,-414 12,-414 6,-414 0,-408 0,-402 0,-402 0,-390 0,-390 0,-384 6,-378 12,-378 12,-378 73,-378 73,-378 79,-378 85,-384 85,-390 85,-390 85,-402 85,-402 85,-408 79,-414 73,-414"/>
<text text-anchor="middle" x="42.5" y="-392.3" font-family="Helvetica,sans-Serif" font-size="14.00">err_error5</text>
</g>
<!-- mnt_comp1&#45;&gt;mnt_comp2 -->
<g id="edge6" class="edge">
<title>mnt_comp1&#45;&gt;mnt_comp2</title>
<path fill="none" stroke="black" stroke-width="1.2" d="M197.08,-293.18C217.6,-307.48 246.37,-327.53 268.74,-343.12"/>
<polygon fill="black" stroke="black" stroke-width="1.2" points="266.77,-346.01 276.98,-348.86 270.77,-340.27 266.77,-346.01"/>
</g>
<!-- mnt_comp1&#45;&gt;mnt_comp3 -->
<g id="edge7" class="edge">
<title>mnt_comp1&#45;&gt;mnt_comp3</title>
<path fill="none" stroke="black" stroke-width="1.2" d="M219.17,-283.33C264.04,-291.09 331.01,-302.67 378.84,-310.94"/>
<polygon fill="black" stroke="black" stroke-width="1.2" points="378.29,-314.4 388.74,-312.65 379.48,-307.5 378.29,-314.4"/>
</g>
<!-- mnt_comp1&#45;&gt;mnt_comp4 -->
<g id="edge8" class="edge">
<title>mnt_comp1&#45;&gt;mnt_comp4</title>
<path fill="none" stroke="black" stroke-width="1.2" d="M219.12,-270.86C282.2,-267.01 395.57,-265.52 487,-294 505.42,-299.74 524.05,-310.24 539.06,-320.14"/>
<polygon fill="black" stroke="black" stroke-width="1.2" points="537.22,-323.13 547.46,-325.87 541.17,-317.34 537.22,-323.13"/>
</g>
<!-- mnt_comp2&#45;&gt;mnt_comp3 -->
<g id="edge9" class="edge">
<title>mnt_comp2&#45;&gt;mnt_comp3</title>
<path fill="none" stroke="black" stroke-width="1.2" d="M353.03,-350.26C361.49,-347.31 370.38,-344.22 379.08,-341.18"/>
<polygon fill="black" stroke="black" stroke-width="1.2" points="380.49,-344.4 388.79,-337.8 378.19,-337.79 380.49,-344.4"/>
</g>
<!-- mnt_comp2&#45;&gt;mnt_comp4 -->
<g id="edge10" class="edge">
<title>mnt_comp2&#45;&gt;mnt_comp4</title>
<path fill="none" stroke="black" stroke-width="1.2" d="M353.17,-362.83C397.94,-358.96 464.73,-353.19 512.54,-349.05"/>
<polygon fill="black" stroke="black" stroke-width="1.2" points="513.08,-352.52 522.74,-348.17 512.47,-345.55 513.08,-352.52"/>
</g>
<!-- mnt_comp3&#45;&gt;mnt_comp4 -->
<g id="edge11" class="edge">
<title>mnt_comp3&#45;&gt;mnt_comp4</title>
<path fill="none" stroke="black" stroke-width="1.2" d="M487.03,-329.37C495.4,-330.83 504.19,-332.36 512.8,-333.86"/>
<polygon fill="black" stroke="black" stroke-width="1.2" points="512.33,-337.33 522.79,-335.6 513.54,-330.43 512.33,-337.33"/>
</g>
</g>
</svg>
