<?xml version="1.0" encoding="UTF-8" standalone="no"?>
<!DOCTYPE svg PUBLIC "-//W3C//DTD SVG 1.1//EN"
 "http://www.w3.org/Graphics/SVG/1.1/DTD/svg11.dtd">
<!-- Generated by graphviz version 2.50.0 (0)
 -->
<!-- Title: G Pages: 1 -->
<svg width="502pt" height="436pt"
 viewBox="0.00 0.00 502.00 436.00" xmlns="http://www.w3.org/2000/svg" xmlns:xlink="http://www.w3.org/1999/xlink">
<g id="graph0" class="graph" transform="scale(1 1) rotate(0) translate(4 432)">
<title>G</title>
<polygon fill="white" stroke="transparent" points="-4,4 -4,-432 498,-432 498,4 -4,4"/>
<text text-anchor="middle" x="247" y="-411.2" font-family="Times,serif" font-size="16.00">model=model2/varlingam_mixed.json [machine 11]</text>
<!-- volt -->
<g id="node1" class="node">
<title>volt</title>
<path fill="white" stroke="black" d="M61,-36C61,-36 31,-36 31,-36 25,-36 19,-30 19,-24 19,-24 19,-12 19,-12 19,-6 25,0 31,0 31,0 61,0 61,0 67,0 73,-6 73,-12 73,-12 73,-24 73,-24 73,-30 67,-36 61,-36"/>
<text text-anchor="middle" x="46" y="-14.3" font-family="Helvetica,sans-Serif" font-size="14.00">volt</text>
</g>
<!-- rotate -->
<g id="node2" class="node">
<title>rotate</title>
<path fill="white" stroke="black" d="M62.5,-90C62.5,-90 29.5,-90 29.5,-90 23.5,-90 17.5,-84 17.5,-78 17.5,-78 17.5,-66 17.5,-66 17.5,-60 23.5,-54 29.5,-54 29.5,-54 62.5,-54 62.5,-54 68.5,-54 74.5,-60 74.5,-66 74.5,-66 74.5,-78 74.5,-78 74.5,-84 68.5,-90 62.5,-90"/>
<text text-anchor="middle" x="46" y="-68.3" font-family="Helvetica,sans-Serif" font-size="14.00">rotate</text>
</g>
<!-- pressure -->
<g id="node3" class="node">
<title>pressure</title>
<path fill="white" stroke="black" d="M72.5,-217C72.5,-217 19.5,-217 19.5,-217 13.5,-217 7.5,-211 7.5,-205 7.5,-205 7.5,-193 7.5,-193 7.5,-187 13.5,-181 19.5,-181 19.5,-181 72.5,-181 72.5,-181 78.5,-181 84.5,-187 84.5,-193 84.5,-193 84.5,-205 84.5,-205 84.5,-211 78.5,-217 72.5,-217"/>
<text text-anchor="middle" x="46" y="-195.3" font-family="Helvetica,sans-Serif" font-size="14.00">pressure</text>
</g>
<!-- fail_comp3 -->
<g id="node14" class="node">
<title>fail_comp3</title>
<path fill="white" stroke="black" d="M211,-217C211,-217 143,-217 143,-217 137,-217 131,-211 131,-205 131,-205 131,-193 131,-193 131,-187 137,-181 143,-181 143,-181 211,-181 211,-181 217,-181 223,-187 223,-193 223,-193 223,-205 223,-205 223,-211 217,-217 211,-217"/>
<text text-anchor="middle" x="177" y="-195.3" font-family="Helvetica,sans-Serif" font-size="14.00">fail_comp3</text>
</g>
<!-- pressure&#45;&gt;fail_comp3 -->
<g id="edge1" class="edge">
<title>pressure&#45;&gt;fail_comp3</title>
<path fill="none" stroke="black" stroke-width="1.2" d="M84.66,-199C95.93,-199 108.53,-199 120.69,-199"/>
<polygon fill="black" stroke="black" stroke-width="1.2" points="120.76,-202.5 130.76,-199 120.76,-195.5 120.76,-202.5"/>
</g>
<!-- vibration -->
<g id="node4" class="node">
<title>vibration</title>
<path fill="white" stroke="black" d="M73,-271C73,-271 19,-271 19,-271 13,-271 7,-265 7,-259 7,-259 7,-247 7,-247 7,-241 13,-235 19,-235 19,-235 73,-235 73,-235 79,-235 85,-241 85,-247 85,-247 85,-259 85,-259 85,-265 79,-271 73,-271"/>
<text text-anchor="middle" x="46" y="-249.3" font-family="Helvetica,sans-Serif" font-size="14.00">vibration</text>
</g>
<!-- err_error1 -->
<g id="node5" class="node">
<title>err_error1</title>
<path fill="white" stroke="black" d="M76.5,-325C76.5,-325 15.5,-325 15.5,-325 9.5,-325 3.5,-319 3.5,-313 3.5,-313 3.5,-301 3.5,-301 3.5,-295 9.5,-289 15.5,-289 15.5,-289 76.5,-289 76.5,-289 82.5,-289 88.5,-295 88.5,-301 88.5,-301 88.5,-313 88.5,-313 88.5,-319 82.5,-325 76.5,-325"/>
<text text-anchor="middle" x="46" y="-303.3" font-family="Helvetica,sans-Serif" font-size="14.00">err_error1</text>
</g>
<!-- err_error2 -->
<g id="node6" class="node">
<title>err_error2</title>
<path fill="white" stroke="black" d="M207.5,-402C207.5,-402 146.5,-402 146.5,-402 140.5,-402 134.5,-396 134.5,-390 134.5,-390 134.5,-378 134.5,-378 134.5,-372 140.5,-366 146.5,-366 146.5,-366 207.5,-366 207.5,-366 213.5,-366 219.5,-372 219.5,-378 219.5,-378 219.5,-390 219.5,-390 219.5,-396 213.5,-402 207.5,-402"/>
<text text-anchor="middle" x="177" y="-380.3" font-family="Helvetica,sans-Serif" font-size="14.00">err_error2</text>
</g>
<!-- err_error4 -->
<g id="node8" class="node">
<title>err_error4</title>
<path fill="white" stroke="black" d="M341.5,-379C341.5,-379 280.5,-379 280.5,-379 274.5,-379 268.5,-373 268.5,-367 268.5,-367 268.5,-355 268.5,-355 268.5,-349 274.5,-343 280.5,-343 280.5,-343 341.5,-343 341.5,-343 347.5,-343 353.5,-349 353.5,-355 353.5,-355 353.5,-367 353.5,-367 353.5,-373 347.5,-379 341.5,-379"/>
<text text-anchor="middle" x="311" y="-357.3" font-family="Helvetica,sans-Serif" font-size="14.00">err_error4</text>
</g>
<!-- err_error2&#45;&gt;err_error4 -->
<g id="edge3" class="edge">
<title>err_error2&#45;&gt;err_error4</title>
<path fill="none" stroke="black" stroke-width="1.2" d="M219.77,-376.72C231.92,-374.6 245.36,-372.26 258.06,-370.05"/>
<polygon fill="black" stroke="black" stroke-width="1.2" points="258.8,-373.47 268.05,-368.31 257.6,-366.58 258.8,-373.47"/>
</g>
<!-- err_error3 -->
<g id="node7" class="node">
<title>err_error3</title>
<path fill="white" stroke="black" d="M76.5,-379C76.5,-379 15.5,-379 15.5,-379 9.5,-379 3.5,-373 3.5,-367 3.5,-367 3.5,-355 3.5,-355 3.5,-349 9.5,-343 15.5,-343 15.5,-343 76.5,-343 76.5,-343 82.5,-343 88.5,-349 88.5,-355 88.5,-355 88.5,-367 88.5,-367 88.5,-373 82.5,-379 76.5,-379"/>
<text text-anchor="middle" x="46" y="-357.3" font-family="Helvetica,sans-Serif" font-size="14.00">err_error3</text>
</g>
<!-- err_error3&#45;&gt;err_error2 -->
<g id="edge2" class="edge">
<title>err_error3&#45;&gt;err_error2</title>
<path fill="none" stroke="black" stroke-width="1.2" d="M88.53,-368.4C99.81,-370.42 112.16,-372.62 123.95,-374.72"/>
<polygon fill="black" stroke="black" stroke-width="1.2" points="123.65,-378.22 134.11,-376.53 124.88,-371.33 123.65,-378.22"/>
</g>
<!-- err_error3&#45;&gt;err_error4 -->
<g id="edge4" class="edge">
<title>err_error3&#45;&gt;err_error4</title>
<path fill="none" stroke="black" stroke-width="1.2" d="M88.61,-358.55C101.25,-357.91 115.19,-357.32 128,-357 171.54,-355.93 182.46,-355.96 226,-357 236.4,-357.25 247.51,-357.67 258.14,-358.14"/>
<polygon fill="black" stroke="black" stroke-width="1.2" points="257.99,-361.64 268.14,-358.61 258.32,-354.65 257.99,-361.64"/>
</g>
<!-- mnt_comp1 -->
<g id="node9" class="node">
<title>mnt_comp1</title>
<path fill="white" stroke="black" d="M348,-125C348,-125 274,-125 274,-125 268,-125 262,-119 262,-113 262,-113 262,-101 262,-101 262,-95 268,-89 274,-89 274,-89 348,-89 348,-89 354,-89 360,-95 360,-101 360,-101 360,-113 360,-113 360,-119 354,-125 348,-125"/>
<text text-anchor="middle" x="311" y="-103.3" font-family="Helvetica,sans-Serif" font-size="14.00">mnt_comp1</text>
</g>
<!-- mnt_comp2 -->
<g id="node10" class="node">
<title>mnt_comp2</title>
<path fill="white" stroke="black" d="M214,-125C214,-125 140,-125 140,-125 134,-125 128,-119 128,-113 128,-113 128,-101 128,-101 128,-95 134,-89 140,-89 140,-89 214,-89 214,-89 220,-89 226,-95 226,-101 226,-101 226,-113 226,-113 226,-119 220,-125 214,-125"/>
<text text-anchor="middle" x="177" y="-103.3" font-family="Helvetica,sans-Serif" font-size="14.00">mnt_comp2</text>
</g>
<!-- mnt_comp2&#45;&gt;mnt_comp1 -->
<g id="edge5" class="edge">
<title>mnt_comp2&#45;&gt;mnt_comp1</title>
<path fill="none" stroke="black" stroke-width="1.2" d="M226.03,-107C234.31,-107 243,-107 251.52,-107"/>
<polygon fill="black" stroke="black" stroke-width="1.2" points="251.79,-110.5 261.79,-107 251.79,-103.5 251.79,-110.5"/>
</g>
<!-- mnt_comp3 -->
<g id="node11" class="node">
<title>mnt_comp3</title>
<path fill="white" stroke="black" d="M348,-217C348,-217 274,-217 274,-217 268,-217 262,-211 262,-205 262,-205 262,-193 262,-193 262,-187 268,-181 274,-181 274,-181 348,-181 348,-181 354,-181 360,-187 360,-193 360,-193 360,-205 360,-205 360,-211 354,-217 348,-217"/>
<text text-anchor="middle" x="311" y="-195.3" font-family="Helvetica,sans-Serif" font-size="14.00">mnt_comp3</text>
</g>
<!-- mnt_comp4 -->
<g id="node12" class="node">
<title>mnt_comp4</title>
<path fill="white" stroke="black" d="M482,-171C482,-171 408,-171 408,-171 402,-171 396,-165 396,-159 396,-159 396,-147 396,-147 396,-141 402,-135 408,-135 408,-135 482,-135 482,-135 488,-135 494,-141 494,-147 494,-147 494,-159 494,-159 494,-165 488,-171 482,-171"/>
<text text-anchor="middle" x="445" y="-149.3" font-family="Helvetica,sans-Serif" font-size="14.00">mnt_comp4</text>
</g>
<!-- mnt_comp3&#45;&gt;mnt_comp4 -->
<g id="edge8" class="edge">
<title>mnt_comp3&#45;&gt;mnt_comp4</title>
<path fill="none" stroke="black" stroke-width="1.2" d="M360.03,-182.26C368.49,-179.31 377.38,-176.22 386.08,-173.18"/>
<polygon fill="black" stroke="black" stroke-width="1.2" points="387.49,-176.4 395.79,-169.8 385.19,-169.79 387.49,-176.4"/>
</g>
<!-- fail_comp2 -->
<g id="node13" class="node">
<title>fail_comp2</title>
<path fill="white" stroke="black" d="M80,-144C80,-144 12,-144 12,-144 6,-144 0,-138 0,-132 0,-132 0,-120 0,-120 0,-114 6,-108 12,-108 12,-108 80,-108 80,-108 86,-108 92,-114 92,-120 92,-120 92,-132 92,-132 92,-138 86,-144 80,-144"/>
<text text-anchor="middle" x="46" y="-122.3" font-family="Helvetica,sans-Serif" font-size="14.00">fail_comp2</text>
</g>
<!-- fail_comp2&#45;&gt;mnt_comp1 -->
<g id="edge6" class="edge">
<title>fail_comp2&#45;&gt;mnt_comp1</title>
<path fill="none" stroke="black" stroke-width="1.2" d="M92.15,-132.97C128.51,-137.39 180.82,-141.08 226,-134 234.8,-132.62 243.93,-130.48 252.79,-127.98"/>
<polygon fill="black" stroke="black" stroke-width="1.2" points="254.07,-131.26 262.65,-125.05 252.07,-124.55 254.07,-131.26"/>
</g>
<!-- fail_comp2&#45;&gt;mnt_comp2 -->
<g id="edge7" class="edge">
<title>fail_comp2&#45;&gt;mnt_comp2</title>
<path fill="none" stroke="black" stroke-width="1.2" d="M92.12,-119.35C100.37,-118.14 109.09,-116.86 117.66,-115.59"/>
<polygon fill="black" stroke="black" stroke-width="1.2" points="118.23,-119.05 127.62,-114.13 117.21,-112.12 118.23,-119.05"/>
</g>
<!-- fail_comp2&#45;&gt;mnt_comp4 -->
<g id="edge10" class="edge">
<title>fail_comp2&#45;&gt;mnt_comp4</title>
<path fill="none" stroke="black" stroke-width="1.2" d="M77.15,-107.89C97.79,-95.66 122.41,-81.48 128,-80 227.69,-53.67 263.42,-43.9 360,-80 385.04,-89.36 407.55,-109.93 422.95,-126.85"/>
<polygon fill="black" stroke="black" stroke-width="1.2" points="420.7,-129.59 429.92,-134.8 425.96,-124.98 420.7,-129.59"/>
</g>
<!-- fail_comp2&#45;&gt;fail_comp3 -->
<g id="edge12" class="edge">
<title>fail_comp2&#45;&gt;fail_comp3</title>
<path fill="none" stroke="black" stroke-width="1.2" d="M78.89,-144.04C95.79,-153.61 116.74,-165.47 134.86,-175.72"/>
<polygon fill="black" stroke="black" stroke-width="1.2" points="133.61,-179.03 144.03,-180.91 137.05,-172.94 133.61,-179.03"/>
</g>
<!-- fail_comp3&#45;&gt;mnt_comp3 -->
<g id="edge9" class="edge">
<title>fail_comp3&#45;&gt;mnt_comp3</title>
<path fill="none" stroke="black" stroke-width="1.2" d="M223.06,-199C232.27,-199 242.09,-199 251.7,-199"/>
<polygon fill="black" stroke="black" stroke-width="1.2" points="251.99,-202.5 261.99,-199 251.99,-195.5 251.99,-202.5"/>
</g>
<!-- fail_comp3&#45;&gt;mnt_comp4 -->
<g id="edge11" class="edge">
<title>fail_comp3&#45;&gt;mnt_comp4</title>
<path fill="none" stroke="black" stroke-width="1.2" d="M223.31,-182.54C235.72,-178.56 249.26,-174.68 262,-172 302.74,-163.42 349.47,-158.65 385.38,-156.03"/>
<polygon fill="black" stroke="black" stroke-width="1.2" points="385.94,-159.5 395.68,-155.32 385.46,-152.52 385.94,-159.5"/>
</g>
</g>
</svg>
