<?xml version="1.0" encoding="UTF-8" standalone="no"?>
<!DOCTYPE svg PUBLIC "-//W3C//DTD SVG 1.1//EN"
 "http://www.w3.org/Graphics/SVG/1.1/DTD/svg11.dtd">
<!-- Generated by graphviz version 2.50.0 (0)
 -->
<!-- Title: G Pages: 1 -->
<svg width="502pt" height="494pt"
 viewBox="0.00 0.00 502.00 494.00" xmlns="http://www.w3.org/2000/svg" xmlns:xlink="http://www.w3.org/1999/xlink">
<g id="graph0" class="graph" transform="scale(1 1) rotate(0) translate(4 490)">
<title>G</title>
<polygon fill="white" stroke="transparent" points="-4,4 -4,-490 498,-490 498,4 -4,4"/>
<text text-anchor="middle" x="247" y="-469.2" font-family="Times,serif" font-size="16.00">model=model4/varlingam_mixed.json [machine 51]</text>
<!-- volt -->
<g id="node1" class="node">
<title>volt</title>
<path fill="white" stroke="black" d="M64,-36C64,-36 34,-36 34,-36 28,-36 22,-30 22,-24 22,-24 22,-12 22,-12 22,-6 28,0 34,0 34,0 64,0 64,0 70,0 76,-6 76,-12 76,-12 76,-24 76,-24 76,-30 70,-36 64,-36"/>
<text text-anchor="middle" x="49" y="-14.3" font-family="Helvetica,sans-Serif" font-size="14.00">volt</text>
</g>
<!-- rotate -->
<g id="node2" class="node">
<title>rotate</title>
<path fill="white" stroke="black" d="M199.5,-244C199.5,-244 166.5,-244 166.5,-244 160.5,-244 154.5,-238 154.5,-232 154.5,-232 154.5,-220 154.5,-220 154.5,-214 160.5,-208 166.5,-208 166.5,-208 199.5,-208 199.5,-208 205.5,-208 211.5,-214 211.5,-220 211.5,-220 211.5,-232 211.5,-232 211.5,-238 205.5,-244 199.5,-244"/>
<text text-anchor="middle" x="183" y="-222.3" font-family="Helvetica,sans-Serif" font-size="14.00">rotate</text>
</g>
<!-- fail_comp2 -->
<g id="node15" class="node">
<title>fail_comp2</title>
<path fill="white" stroke="black" d="M348,-163C348,-163 280,-163 280,-163 274,-163 268,-157 268,-151 268,-151 268,-139 268,-139 268,-133 274,-127 280,-127 280,-127 348,-127 348,-127 354,-127 360,-133 360,-139 360,-139 360,-151 360,-151 360,-157 354,-163 348,-163"/>
<text text-anchor="middle" x="314" y="-141.3" font-family="Helvetica,sans-Serif" font-size="14.00">fail_comp2</text>
</g>
<!-- rotate&#45;&gt;fail_comp2 -->
<g id="edge1" class="edge">
<title>rotate&#45;&gt;fail_comp2</title>
<path fill="none" stroke="black" stroke-width="1.2" d="M211.62,-210.93C218.35,-207.14 225.48,-203 232,-199 247.51,-189.49 264.3,-178.42 278.55,-168.8"/>
<polygon fill="black" stroke="black" stroke-width="1.2" points="280.75,-171.53 287.06,-163.02 276.82,-165.74 280.75,-171.53"/>
</g>
<!-- pressure -->
<g id="node3" class="node">
<title>pressure</title>
<path fill="white" stroke="black" d="M75.5,-155C75.5,-155 22.5,-155 22.5,-155 16.5,-155 10.5,-149 10.5,-143 10.5,-143 10.5,-131 10.5,-131 10.5,-125 16.5,-119 22.5,-119 22.5,-119 75.5,-119 75.5,-119 81.5,-119 87.5,-125 87.5,-131 87.5,-131 87.5,-143 87.5,-143 87.5,-149 81.5,-155 75.5,-155"/>
<text text-anchor="middle" x="49" y="-133.3" font-family="Helvetica,sans-Serif" font-size="14.00">pressure</text>
</g>
<!-- vibration -->
<g id="node4" class="node">
<title>vibration</title>
<path fill="white" stroke="black" d="M210,-44C210,-44 156,-44 156,-44 150,-44 144,-38 144,-32 144,-32 144,-20 144,-20 144,-14 150,-8 156,-8 156,-8 210,-8 210,-8 216,-8 222,-14 222,-20 222,-20 222,-32 222,-32 222,-38 216,-44 210,-44"/>
<text text-anchor="middle" x="183" y="-22.3" font-family="Helvetica,sans-Serif" font-size="14.00">vibration</text>
</g>
<!-- err_error5 -->
<g id="node9" class="node">
<title>err_error5</title>
<path fill="white" stroke="black" d="M344.5,-44C344.5,-44 283.5,-44 283.5,-44 277.5,-44 271.5,-38 271.5,-32 271.5,-32 271.5,-20 271.5,-20 271.5,-14 277.5,-8 283.5,-8 283.5,-8 344.5,-8 344.5,-8 350.5,-8 356.5,-14 356.5,-20 356.5,-20 356.5,-32 356.5,-32 356.5,-38 350.5,-44 344.5,-44"/>
<text text-anchor="middle" x="314" y="-22.3" font-family="Helvetica,sans-Serif" font-size="14.00">err_error5</text>
</g>
<!-- vibration&#45;&gt;err_error5 -->
<g id="edge2" class="edge">
<title>vibration&#45;&gt;err_error5</title>
<path fill="none" stroke="black" stroke-width="1.2" d="M222.01,-26C234.2,-26 247.93,-26 260.96,-26"/>
<polygon fill="black" stroke="black" stroke-width="1.2" points="261.21,-29.5 271.21,-26 261.21,-22.5 261.21,-29.5"/>
</g>
<!-- err_error1 -->
<g id="node5" class="node">
<title>err_error1</title>
<path fill="white" stroke="black" d="M79.5,-232C79.5,-232 18.5,-232 18.5,-232 12.5,-232 6.5,-226 6.5,-220 6.5,-220 6.5,-208 6.5,-208 6.5,-202 12.5,-196 18.5,-196 18.5,-196 79.5,-196 79.5,-196 85.5,-196 91.5,-202 91.5,-208 91.5,-208 91.5,-220 91.5,-220 91.5,-226 85.5,-232 79.5,-232"/>
<text text-anchor="middle" x="49" y="-210.3" font-family="Helvetica,sans-Serif" font-size="14.00">err_error1</text>
</g>
<!-- err_error2 -->
<g id="node6" class="node">
<title>err_error2</title>
<path fill="white" stroke="black" d="M213.5,-298C213.5,-298 152.5,-298 152.5,-298 146.5,-298 140.5,-292 140.5,-286 140.5,-286 140.5,-274 140.5,-274 140.5,-268 146.5,-262 152.5,-262 152.5,-262 213.5,-262 213.5,-262 219.5,-262 225.5,-268 225.5,-274 225.5,-274 225.5,-286 225.5,-286 225.5,-292 219.5,-298 213.5,-298"/>
<text text-anchor="middle" x="183" y="-276.3" font-family="Helvetica,sans-Serif" font-size="14.00">err_error2</text>
</g>
<!-- err_error3 -->
<g id="node7" class="node">
<title>err_error3</title>
<path fill="white" stroke="black" d="M79.5,-298C79.5,-298 18.5,-298 18.5,-298 12.5,-298 6.5,-292 6.5,-286 6.5,-286 6.5,-274 6.5,-274 6.5,-268 12.5,-262 18.5,-262 18.5,-262 79.5,-262 79.5,-262 85.5,-262 91.5,-268 91.5,-274 91.5,-274 91.5,-286 91.5,-286 91.5,-292 85.5,-298 79.5,-298"/>
<text text-anchor="middle" x="49" y="-276.3" font-family="Helvetica,sans-Serif" font-size="14.00">err_error3</text>
</g>
<!-- err_error3&#45;&gt;err_error2 -->
<g id="edge4" class="edge">
<title>err_error3&#45;&gt;err_error2</title>
<path fill="none" stroke="black" stroke-width="1.2" d="M91.77,-280C103.8,-280 117.09,-280 129.68,-280"/>
<polygon fill="black" stroke="black" stroke-width="1.2" points="130.05,-283.5 140.05,-280 130.05,-276.5 130.05,-283.5"/>
</g>
<!-- err_error4 -->
<g id="node8" class="node">
<title>err_error4</title>
<path fill="white" stroke="black" d="M79.5,-352C79.5,-352 18.5,-352 18.5,-352 12.5,-352 6.5,-346 6.5,-340 6.5,-340 6.5,-328 6.5,-328 6.5,-322 12.5,-316 18.5,-316 18.5,-316 79.5,-316 79.5,-316 85.5,-316 91.5,-322 91.5,-328 91.5,-328 91.5,-340 91.5,-340 91.5,-346 85.5,-352 79.5,-352"/>
<text text-anchor="middle" x="49" y="-330.3" font-family="Helvetica,sans-Serif" font-size="14.00">err_error4</text>
</g>
<!-- mnt_comp1 -->
<g id="node10" class="node">
<title>mnt_comp1</title>
<path fill="white" stroke="black" d="M220,-190C220,-190 146,-190 146,-190 140,-190 134,-184 134,-178 134,-178 134,-166 134,-166 134,-160 140,-154 146,-154 146,-154 220,-154 220,-154 226,-154 232,-160 232,-166 232,-166 232,-178 232,-178 232,-184 226,-190 220,-190"/>
<text text-anchor="middle" x="183" y="-168.3" font-family="Helvetica,sans-Serif" font-size="14.00">mnt_comp1</text>
</g>
<!-- mnt_comp1&#45;&gt;fail_comp2 -->
<g id="edge5" class="edge">
<title>mnt_comp1&#45;&gt;fail_comp2</title>
<path fill="none" stroke="black" stroke-width="1.2" d="M232.03,-161.95C240.48,-160.18 249.33,-158.33 257.94,-156.52"/>
<polygon fill="black" stroke="black" stroke-width="1.2" points="258.85,-159.91 267.92,-154.44 257.41,-153.06 258.85,-159.91"/>
</g>
<!-- mnt_comp2 -->
<g id="node11" class="node">
<title>mnt_comp2</title>
<path fill="white" stroke="black" d="M482,-163C482,-163 408,-163 408,-163 402,-163 396,-157 396,-151 396,-151 396,-139 396,-139 396,-133 402,-127 408,-127 408,-127 482,-127 482,-127 488,-127 494,-133 494,-139 494,-139 494,-151 494,-151 494,-157 488,-163 482,-163"/>
<text text-anchor="middle" x="445" y="-141.3" font-family="Helvetica,sans-Serif" font-size="14.00">mnt_comp2</text>
</g>
<!-- mnt_comp3 -->
<g id="node12" class="node">
<title>mnt_comp3</title>
<path fill="white" stroke="black" d="M86,-406C86,-406 12,-406 12,-406 6,-406 0,-400 0,-394 0,-394 0,-382 0,-382 0,-376 6,-370 12,-370 12,-370 86,-370 86,-370 92,-370 98,-376 98,-382 98,-382 98,-394 98,-394 98,-400 92,-406 86,-406"/>
<text text-anchor="middle" x="49" y="-384.3" font-family="Helvetica,sans-Serif" font-size="14.00">mnt_comp3</text>
</g>
<!-- mnt_comp4 -->
<g id="node13" class="node">
<title>mnt_comp4</title>
<path fill="white" stroke="black" d="M220,-136C220,-136 146,-136 146,-136 140,-136 134,-130 134,-124 134,-124 134,-112 134,-112 134,-106 140,-100 146,-100 146,-100 220,-100 220,-100 226,-100 232,-106 232,-112 232,-112 232,-124 232,-124 232,-130 226,-136 220,-136"/>
<text text-anchor="middle" x="183" y="-114.3" font-family="Helvetica,sans-Serif" font-size="14.00">mnt_comp4</text>
</g>
<!-- mnt_comp4&#45;&gt;fail_comp2 -->
<g id="edge7" class="edge">
<title>mnt_comp4&#45;&gt;fail_comp2</title>
<path fill="none" stroke="black" stroke-width="1.2" d="M232.03,-128.05C240.48,-129.82 249.33,-131.67 257.94,-133.48"/>
<polygon fill="black" stroke="black" stroke-width="1.2" points="257.41,-136.94 267.92,-135.56 258.85,-130.09 257.41,-136.94"/>
</g>
<!-- fail_comp1 -->
<g id="node14" class="node">
<title>fail_comp1</title>
<path fill="white" stroke="black" d="M83,-460C83,-460 15,-460 15,-460 9,-460 3,-454 3,-448 3,-448 3,-436 3,-436 3,-430 9,-424 15,-424 15,-424 83,-424 83,-424 89,-424 95,-430 95,-436 95,-436 95,-448 95,-448 95,-454 89,-460 83,-460"/>
<text text-anchor="middle" x="49" y="-438.3" font-family="Helvetica,sans-Serif" font-size="14.00">fail_comp1</text>
</g>
<!-- fail_comp2&#45;&gt;mnt_comp2 -->
<g id="edge6" class="edge">
<title>fail_comp2&#45;&gt;mnt_comp2</title>
<path fill="none" stroke="black" stroke-width="1.2" d="M360.12,-145C368.28,-145 376.9,-145 385.38,-145"/>
<polygon fill="black" stroke="black" stroke-width="1.2" points="385.62,-148.5 395.62,-145 385.62,-141.5 385.62,-148.5"/>
</g>
<!-- fail_comp4 -->
<g id="node16" class="node">
<title>fail_comp4</title>
<path fill="white" stroke="black" d="M83,-90C83,-90 15,-90 15,-90 9,-90 3,-84 3,-78 3,-78 3,-66 3,-66 3,-60 9,-54 15,-54 15,-54 83,-54 83,-54 89,-54 95,-60 95,-66 95,-66 95,-78 95,-78 95,-84 89,-90 83,-90"/>
<text text-anchor="middle" x="49" y="-68.3" font-family="Helvetica,sans-Serif" font-size="14.00">fail_comp4</text>
</g>
<!-- fail_comp4&#45;&gt;vibration -->
<g id="edge3" class="edge">
<title>fail_comp4&#45;&gt;vibration</title>
<path fill="none" stroke="black" stroke-width="1.2" d="M95.06,-56.3C107.68,-51.9 121.43,-47.11 134.2,-42.66"/>
<polygon fill="black" stroke="black" stroke-width="1.2" points="135.45,-45.93 143.74,-39.33 133.14,-39.32 135.45,-45.93"/>
</g>
<!-- fail_comp4&#45;&gt;mnt_comp4 -->
<g id="edge8" class="edge">
<title>fail_comp4&#45;&gt;mnt_comp4</title>
<path fill="none" stroke="black" stroke-width="1.2" d="M95.06,-87.7C104.47,-90.98 114.51,-94.48 124.31,-97.9"/>
<polygon fill="black" stroke="black" stroke-width="1.2" points="123.39,-101.28 133.99,-101.27 125.7,-94.67 123.39,-101.28"/>
</g>
<!-- fail_comp4&#45;&gt;fail_comp2 -->
<g id="edge9" class="edge">
<title>fail_comp4&#45;&gt;fail_comp2</title>
<path fill="none" stroke="black" stroke-width="1.2" d="M95.09,-70.77C132.76,-71.12 187.32,-74.89 232,-91 250.74,-97.76 269.39,-109.74 284.07,-120.7"/>
<polygon fill="black" stroke="black" stroke-width="1.2" points="282.17,-123.65 292.22,-126.99 286.44,-118.11 282.17,-123.65"/>
</g>
</g>
</svg>
