<?xml version="1.0" encoding="UTF-8" standalone="no"?>
<!DOCTYPE svg PUBLIC "-//W3C//DTD SVG 1.1//EN"
 "http://www.w3.org/Graphics/SVG/1.1/DTD/svg11.dtd">
<!-- Generated by graphviz version 2.50.0 (0)
 -->
<!-- Title: G Pages: 1 -->
<svg width="475pt" height="178pt"
 viewBox="0.00 0.00 475.00 178.00" xmlns="http://www.w3.org/2000/svg" xmlns:xlink="http://www.w3.org/1999/xlink">
<g id="graph0" class="graph" transform="scale(1 1) rotate(0) translate(4 174)">
<title>G</title>
<polygon fill="white" stroke="transparent" points="-4,4 -4,-174 471,-174 471,4 -4,4"/>
<text text-anchor="middle" x="233.5" y="-153.2" font-family="Times,serif" font-size="16.00">model=model4/varlingam_telemetry.json [machine 61]</text>
<!-- volt -->
<g id="node1" class="node">
<title>volt</title>
<path fill="white" stroke="black" d="M305.5,-63C305.5,-63 275.5,-63 275.5,-63 269.5,-63 263.5,-57 263.5,-51 263.5,-51 263.5,-39 263.5,-39 263.5,-33 269.5,-27 275.5,-27 275.5,-27 305.5,-27 305.5,-27 311.5,-27 317.5,-33 317.5,-39 317.5,-39 317.5,-51 317.5,-51 317.5,-57 311.5,-63 305.5,-63"/>
<text text-anchor="middle" x="290.5" y="-41.3" font-family="Helvetica,sans-Serif" font-size="14.00">volt</text>
</g>
<!-- rotate -->
<g id="node2" class="node">
<title>rotate</title>
<path fill="white" stroke="black" d="M205,-90C205,-90 172,-90 172,-90 166,-90 160,-84 160,-78 160,-78 160,-66 160,-66 160,-60 166,-54 172,-54 172,-54 205,-54 205,-54 211,-54 217,-60 217,-66 217,-66 217,-78 217,-78 217,-84 211,-90 205,-90"/>
<text text-anchor="middle" x="188.5" y="-68.3" font-family="Helvetica,sans-Serif" font-size="14.00">rotate</text>
</g>
<!-- rotate&#45;&gt;volt -->
<g id="edge1" class="edge">
<title>rotate&#45;&gt;volt</title>
<path fill="none" stroke="black" stroke-width="1.2" d="M217.09,-64.55C228.38,-61.5 241.6,-57.93 253.62,-54.69"/>
<polygon fill="black" stroke="black" stroke-width="1.2" points="254.63,-58.04 263.38,-52.05 252.81,-51.28 254.63,-58.04"/>
</g>
<!-- pressure -->
<g id="node3" class="node">
<title>pressure</title>
<path fill="white" stroke="black" d="M215,-144C215,-144 162,-144 162,-144 156,-144 150,-138 150,-132 150,-132 150,-120 150,-120 150,-114 156,-108 162,-108 162,-108 215,-108 215,-108 221,-108 227,-114 227,-120 227,-120 227,-132 227,-132 227,-138 221,-144 215,-144"/>
<text text-anchor="middle" x="188.5" y="-122.3" font-family="Helvetica,sans-Serif" font-size="14.00">pressure</text>
</g>
<!-- vibration -->
<g id="node4" class="node">
<title>vibration</title>
<path fill="white" stroke="black" d="M215.5,-36C215.5,-36 161.5,-36 161.5,-36 155.5,-36 149.5,-30 149.5,-24 149.5,-24 149.5,-12 149.5,-12 149.5,-6 155.5,0 161.5,0 161.5,0 215.5,0 215.5,0 221.5,0 227.5,-6 227.5,-12 227.5,-12 227.5,-24 227.5,-24 227.5,-30 221.5,-36 215.5,-36"/>
<text text-anchor="middle" x="188.5" y="-14.3" font-family="Helvetica,sans-Serif" font-size="14.00">vibration</text>
</g>
<!-- vibration&#45;&gt;volt -->
<g id="edge2" class="edge">
<title>vibration&#45;&gt;volt</title>
<path fill="none" stroke="black" stroke-width="1.2" d="M227.59,-28.28C236.07,-30.57 245.03,-32.99 253.42,-35.26"/>
<polygon fill="black" stroke="black" stroke-width="1.2" points="252.74,-38.7 263.3,-37.93 254.56,-31.94 252.74,-38.7"/>
</g>
</g>
</svg>
