<?xml version="1.0" encoding="UTF-8" standalone="no"?>
<!DOCTYPE svg PUBLIC "-//W3C//DTD SVG 1.1//EN"
 "http://www.w3.org/Graphics/SVG/1.1/DTD/svg11.dtd">
<!-- Generated by graphviz version 2.50.0 (0)
 -->
<!-- Title: G Pages: 1 -->
<svg width="502pt" height="546pt"
 viewBox="0.00 0.00 502.00 546.00" xmlns="http://www.w3.org/2000/svg" xmlns:xlink="http://www.w3.org/1999/xlink">
<g id="graph0" class="graph" transform="scale(1 1) rotate(0) translate(4 542)">
<title>G</title>
<polygon fill="white" stroke="transparent" points="-4,4 -4,-542 498,-542 498,4 -4,4"/>
<text text-anchor="middle" x="247" y="-521.2" font-family="Times,serif" font-size="16.00">model=model4/varlingam_mixed.json [machine 36]</text>
<!-- volt -->
<g id="node1" class="node">
<title>volt</title>
<path fill="white" stroke="black" d="M61,-36C61,-36 31,-36 31,-36 25,-36 19,-30 19,-24 19,-24 19,-12 19,-12 19,-6 25,0 31,0 31,0 61,0 61,0 67,0 73,-6 73,-12 73,-12 73,-24 73,-24 73,-30 67,-36 61,-36"/>
<text text-anchor="middle" x="46" y="-14.3" font-family="Helvetica,sans-Serif" font-size="14.00">volt</text>
</g>
<!-- rotate -->
<g id="node2" class="node">
<title>rotate</title>
<path fill="white" stroke="black" d="M62.5,-90C62.5,-90 29.5,-90 29.5,-90 23.5,-90 17.5,-84 17.5,-78 17.5,-78 17.5,-66 17.5,-66 17.5,-60 23.5,-54 29.5,-54 29.5,-54 62.5,-54 62.5,-54 68.5,-54 74.5,-60 74.5,-66 74.5,-66 74.5,-78 74.5,-78 74.5,-84 68.5,-90 62.5,-90"/>
<text text-anchor="middle" x="46" y="-68.3" font-family="Helvetica,sans-Serif" font-size="14.00">rotate</text>
</g>
<!-- pressure -->
<g id="node3" class="node">
<title>pressure</title>
<path fill="white" stroke="black" d="M72.5,-144C72.5,-144 19.5,-144 19.5,-144 13.5,-144 7.5,-138 7.5,-132 7.5,-132 7.5,-120 7.5,-120 7.5,-114 13.5,-108 19.5,-108 19.5,-108 72.5,-108 72.5,-108 78.5,-108 84.5,-114 84.5,-120 84.5,-120 84.5,-132 84.5,-132 84.5,-138 78.5,-144 72.5,-144"/>
<text text-anchor="middle" x="46" y="-122.3" font-family="Helvetica,sans-Serif" font-size="14.00">pressure</text>
</g>
<!-- vibration -->
<g id="node4" class="node">
<title>vibration</title>
<path fill="white" stroke="black" d="M73,-198C73,-198 19,-198 19,-198 13,-198 7,-192 7,-186 7,-186 7,-174 7,-174 7,-168 13,-162 19,-162 19,-162 73,-162 73,-162 79,-162 85,-168 85,-174 85,-174 85,-186 85,-186 85,-192 79,-198 73,-198"/>
<text text-anchor="middle" x="46" y="-176.3" font-family="Helvetica,sans-Serif" font-size="14.00">vibration</text>
</g>
<!-- err_error1 -->
<g id="node5" class="node">
<title>err_error1</title>
<path fill="white" stroke="black" d="M76.5,-252C76.5,-252 15.5,-252 15.5,-252 9.5,-252 3.5,-246 3.5,-240 3.5,-240 3.5,-228 3.5,-228 3.5,-222 9.5,-216 15.5,-216 15.5,-216 76.5,-216 76.5,-216 82.5,-216 88.5,-222 88.5,-228 88.5,-228 88.5,-240 88.5,-240 88.5,-246 82.5,-252 76.5,-252"/>
<text text-anchor="middle" x="46" y="-230.3" font-family="Helvetica,sans-Serif" font-size="14.00">err_error1</text>
</g>
<!-- err_error2 -->
<g id="node6" class="node">
<title>err_error2</title>
<path fill="white" stroke="black" d="M207.5,-252C207.5,-252 146.5,-252 146.5,-252 140.5,-252 134.5,-246 134.5,-240 134.5,-240 134.5,-228 134.5,-228 134.5,-222 140.5,-216 146.5,-216 146.5,-216 207.5,-216 207.5,-216 213.5,-216 219.5,-222 219.5,-228 219.5,-228 219.5,-240 219.5,-240 219.5,-246 213.5,-252 207.5,-252"/>
<text text-anchor="middle" x="177" y="-230.3" font-family="Helvetica,sans-Serif" font-size="14.00">err_error2</text>
</g>
<!-- err_error1&#45;&gt;err_error2 -->
<g id="edge1" class="edge">
<title>err_error1&#45;&gt;err_error2</title>
<path fill="none" stroke="black" stroke-width="1.2" d="M88.53,-234C99.81,-234 112.16,-234 123.95,-234"/>
<polygon fill="black" stroke="black" stroke-width="1.2" points="124.11,-237.5 134.11,-234 124.11,-230.5 124.11,-237.5"/>
</g>
<!-- err_error3 -->
<g id="node7" class="node">
<title>err_error3</title>
<path fill="white" stroke="black" d="M341.5,-252C341.5,-252 280.5,-252 280.5,-252 274.5,-252 268.5,-246 268.5,-240 268.5,-240 268.5,-228 268.5,-228 268.5,-222 274.5,-216 280.5,-216 280.5,-216 341.5,-216 341.5,-216 347.5,-216 353.5,-222 353.5,-228 353.5,-228 353.5,-240 353.5,-240 353.5,-246 347.5,-252 341.5,-252"/>
<text text-anchor="middle" x="311" y="-230.3" font-family="Helvetica,sans-Serif" font-size="14.00">err_error3</text>
</g>
<!-- err_error2&#45;&gt;err_error3 -->
<g id="edge2" class="edge">
<title>err_error2&#45;&gt;err_error3</title>
<path fill="none" stroke="black" stroke-width="1.2" d="M219.77,-234C231.8,-234 245.09,-234 257.68,-234"/>
<polygon fill="black" stroke="black" stroke-width="1.2" points="258.05,-237.5 268.05,-234 258.05,-230.5 258.05,-237.5"/>
</g>
<!-- err_error4 -->
<g id="node8" class="node">
<title>err_error4</title>
<path fill="white" stroke="black" d="M76.5,-306C76.5,-306 15.5,-306 15.5,-306 9.5,-306 3.5,-300 3.5,-294 3.5,-294 3.5,-282 3.5,-282 3.5,-276 9.5,-270 15.5,-270 15.5,-270 76.5,-270 76.5,-270 82.5,-270 88.5,-276 88.5,-282 88.5,-282 88.5,-294 88.5,-294 88.5,-300 82.5,-306 76.5,-306"/>
<text text-anchor="middle" x="46" y="-284.3" font-family="Helvetica,sans-Serif" font-size="14.00">err_error4</text>
</g>
<!-- err_error5 -->
<g id="node9" class="node">
<title>err_error5</title>
<path fill="white" stroke="black" d="M76.5,-360C76.5,-360 15.5,-360 15.5,-360 9.5,-360 3.5,-354 3.5,-348 3.5,-348 3.5,-336 3.5,-336 3.5,-330 9.5,-324 15.5,-324 15.5,-324 76.5,-324 76.5,-324 82.5,-324 88.5,-330 88.5,-336 88.5,-336 88.5,-348 88.5,-348 88.5,-354 82.5,-360 76.5,-360"/>
<text text-anchor="middle" x="46" y="-338.3" font-family="Helvetica,sans-Serif" font-size="14.00">err_error5</text>
</g>
<!-- mnt_comp1 -->
<g id="node10" class="node">
<title>mnt_comp1</title>
<path fill="white" stroke="black" d="M348,-512C348,-512 274,-512 274,-512 268,-512 262,-506 262,-500 262,-500 262,-488 262,-488 262,-482 268,-476 274,-476 274,-476 348,-476 348,-476 354,-476 360,-482 360,-488 360,-488 360,-500 360,-500 360,-506 354,-512 348,-512"/>
<text text-anchor="middle" x="311" y="-490.3" font-family="Helvetica,sans-Serif" font-size="14.00">mnt_comp1</text>
</g>
<!-- mnt_comp4 -->
<g id="node13" class="node">
<title>mnt_comp4</title>
<path fill="white" stroke="black" d="M482,-435C482,-435 408,-435 408,-435 402,-435 396,-429 396,-423 396,-423 396,-411 396,-411 396,-405 402,-399 408,-399 408,-399 482,-399 482,-399 488,-399 494,-405 494,-411 494,-411 494,-423 494,-423 494,-429 488,-435 482,-435"/>
<text text-anchor="middle" x="445" y="-413.3" font-family="Helvetica,sans-Serif" font-size="14.00">mnt_comp4</text>
</g>
<!-- mnt_comp1&#45;&gt;mnt_comp4 -->
<g id="edge3" class="edge">
<title>mnt_comp1&#45;&gt;mnt_comp4</title>
<path fill="none" stroke="black" stroke-width="1.2" d="M344.34,-475.95C349.58,-472.98 354.95,-469.92 360,-467 374.7,-458.49 390.74,-449 404.83,-440.58"/>
<polygon fill="black" stroke="black" stroke-width="1.2" points="406.99,-443.37 413.78,-435.23 403.4,-437.36 406.99,-443.37"/>
</g>
<!-- mnt_comp2 -->
<g id="node11" class="node">
<title>mnt_comp2</title>
<path fill="white" stroke="black" d="M214,-414C214,-414 140,-414 140,-414 134,-414 128,-408 128,-402 128,-402 128,-390 128,-390 128,-384 134,-378 140,-378 140,-378 214,-378 214,-378 220,-378 226,-384 226,-390 226,-390 226,-402 226,-402 226,-408 220,-414 214,-414"/>
<text text-anchor="middle" x="177" y="-392.3" font-family="Helvetica,sans-Serif" font-size="14.00">mnt_comp2</text>
</g>
<!-- mnt_comp3 -->
<g id="node12" class="node">
<title>mnt_comp3</title>
<path fill="white" stroke="black" d="M348,-458C348,-458 274,-458 274,-458 268,-458 262,-452 262,-446 262,-446 262,-434 262,-434 262,-428 268,-422 274,-422 274,-422 348,-422 348,-422 354,-422 360,-428 360,-434 360,-434 360,-446 360,-446 360,-452 354,-458 348,-458"/>
<text text-anchor="middle" x="311" y="-436.3" font-family="Helvetica,sans-Serif" font-size="14.00">mnt_comp3</text>
</g>
<!-- mnt_comp2&#45;&gt;mnt_comp3 -->
<g id="edge5" class="edge">
<title>mnt_comp2&#45;&gt;mnt_comp3</title>
<path fill="none" stroke="black" stroke-width="1.2" d="M226.03,-412.01C234.49,-414.83 243.38,-417.79 252.08,-420.69"/>
<polygon fill="black" stroke="black" stroke-width="1.2" points="251.19,-424.09 261.79,-423.93 253.41,-417.45 251.19,-424.09"/>
</g>
<!-- mnt_comp2&#45;&gt;mnt_comp4 -->
<g id="edge6" class="edge">
<title>mnt_comp2&#45;&gt;mnt_comp4</title>
<path fill="none" stroke="black" stroke-width="1.2" d="M226.17,-399.8C270.94,-403.34 337.73,-408.61 385.54,-412.38"/>
<polygon fill="black" stroke="black" stroke-width="1.2" points="385.49,-415.89 395.74,-413.19 386.05,-408.91 385.49,-415.89"/>
</g>
<!-- mnt_comp3&#45;&gt;mnt_comp4 -->
<g id="edge8" class="edge">
<title>mnt_comp3&#45;&gt;mnt_comp4</title>
<path fill="none" stroke="black" stroke-width="1.2" d="M360.03,-431.63C368.4,-430.17 377.19,-428.64 385.8,-427.14"/>
<polygon fill="black" stroke="black" stroke-width="1.2" points="386.54,-430.57 395.79,-425.4 385.33,-423.67 386.54,-430.57"/>
</g>
<!-- fail_comp1 -->
<g id="node14" class="node">
<title>fail_comp1</title>
<path fill="white" stroke="black" d="M211,-508C211,-508 143,-508 143,-508 137,-508 131,-502 131,-496 131,-496 131,-484 131,-484 131,-478 137,-472 143,-472 143,-472 211,-472 211,-472 217,-472 223,-478 223,-484 223,-484 223,-496 223,-496 223,-502 217,-508 211,-508"/>
<text text-anchor="middle" x="177" y="-486.3" font-family="Helvetica,sans-Serif" font-size="14.00">fail_comp1</text>
</g>
<!-- fail_comp1&#45;&gt;mnt_comp1 -->
<g id="edge4" class="edge">
<title>fail_comp1&#45;&gt;mnt_comp1</title>
<path fill="none" stroke="black" stroke-width="1.2" d="M223.06,-491.37C232.27,-491.64 242.09,-491.94 251.7,-492.23"/>
<polygon fill="black" stroke="black" stroke-width="1.2" points="251.89,-495.74 261.99,-492.55 252.1,-488.74 251.89,-495.74"/>
</g>
<!-- fail_comp1&#45;&gt;mnt_comp3 -->
<g id="edge9" class="edge">
<title>fail_comp1&#45;&gt;mnt_comp3</title>
<path fill="none" stroke="black" stroke-width="1.2" d="M223.06,-472.93C232.68,-469.29 242.96,-465.39 252.97,-461.6"/>
<polygon fill="black" stroke="black" stroke-width="1.2" points="254.33,-464.83 262.44,-458.01 251.85,-458.28 254.33,-464.83"/>
</g>
<!-- fail_comp2 -->
<g id="node15" class="node">
<title>fail_comp2</title>
<path fill="white" stroke="black" d="M80,-414C80,-414 12,-414 12,-414 6,-414 0,-408 0,-402 0,-402 0,-390 0,-390 0,-384 6,-378 12,-378 12,-378 80,-378 80,-378 86,-378 92,-384 92,-390 92,-390 92,-402 92,-402 92,-408 86,-414 80,-414"/>
<text text-anchor="middle" x="46" y="-392.3" font-family="Helvetica,sans-Serif" font-size="14.00">fail_comp2</text>
</g>
<!-- fail_comp2&#45;&gt;mnt_comp2 -->
<g id="edge7" class="edge">
<title>fail_comp2&#45;&gt;mnt_comp2</title>
<path fill="none" stroke="black" stroke-width="1.2" d="M92.12,-396C100.28,-396 108.9,-396 117.38,-396"/>
<polygon fill="black" stroke="black" stroke-width="1.2" points="117.62,-399.5 127.62,-396 117.62,-392.5 117.62,-399.5"/>
</g>
<!-- fail_comp2&#45;&gt;mnt_comp3 -->
<g id="edge10" class="edge">
<title>fail_comp2&#45;&gt;mnt_comp3</title>
<path fill="none" stroke="black" stroke-width="1.2" d="M92.33,-413.13C103.83,-416.92 116.25,-420.53 128,-423 168.7,-431.57 215.43,-435.82 251.35,-437.93"/>
<polygon fill="black" stroke="black" stroke-width="1.2" points="251.48,-441.44 261.65,-438.49 251.86,-434.45 251.48,-441.44"/>
</g>
<!-- fail_comp2&#45;&gt;mnt_comp4 -->
<g id="edge11" class="edge">
<title>fail_comp2&#45;&gt;mnt_comp4</title>
<path fill="none" stroke="black" stroke-width="1.2" d="M92.19,-378.09C103.69,-374.33 116.15,-370.92 128,-369 217.95,-354.4 322.52,-378.28 385.95,-397.28"/>
<polygon fill="black" stroke="black" stroke-width="1.2" points="385.18,-400.71 395.77,-400.29 387.23,-394.02 385.18,-400.71"/>
</g>
</g>
</svg>
