<?xml version="1.0" encoding="UTF-8" standalone="no"?>
<!DOCTYPE svg PUBLIC "-//W3C//DTD SVG 1.1//EN"
 "http://www.w3.org/Graphics/SVG/1.1/DTD/svg11.dtd">
<!-- Generated by graphviz version 2.50.0 (0)
 -->
<!-- Title: G Pages: 1 -->
<svg width="475pt" height="178pt"
 viewBox="0.00 0.00 475.00 178.00" xmlns="http://www.w3.org/2000/svg" xmlns:xlink="http://www.w3.org/1999/xlink">
<g id="graph0" class="graph" transform="scale(1 1) rotate(0) translate(4 174)">
<title>G</title>
<polygon fill="white" stroke="transparent" points="-4,4 -4,-174 471,-174 471,4 -4,4"/>
<text text-anchor="middle" x="233.5" y="-153.2" font-family="Times,serif" font-size="16.00">model=model3/varlingam_telemetry.json [machine 27]</text>
<!-- volt -->
<g id="node1" class="node">
<title>volt</title>
<path fill="white" stroke="black" d="M202,-36C202,-36 172,-36 172,-36 166,-36 160,-30 160,-24 160,-24 160,-12 160,-12 160,-6 166,0 172,0 172,0 202,0 202,0 208,0 214,-6 214,-12 214,-12 214,-24 214,-24 214,-30 208,-36 202,-36"/>
<text text-anchor="middle" x="187" y="-14.3" font-family="Helvetica,sans-Serif" font-size="14.00">volt</text>
</g>
<!-- rotate -->
<g id="node2" class="node">
<title>rotate</title>
<path fill="white" stroke="black" d="M307,-90C307,-90 274,-90 274,-90 268,-90 262,-84 262,-78 262,-78 262,-66 262,-66 262,-60 268,-54 274,-54 274,-54 307,-54 307,-54 313,-54 319,-60 319,-66 319,-66 319,-78 319,-78 319,-84 313,-90 307,-90"/>
<text text-anchor="middle" x="290.5" y="-68.3" font-family="Helvetica,sans-Serif" font-size="14.00">rotate</text>
</g>
<!-- pressure -->
<g id="node3" class="node">
<title>pressure</title>
<path fill="white" stroke="black" d="M213.5,-90C213.5,-90 160.5,-90 160.5,-90 154.5,-90 148.5,-84 148.5,-78 148.5,-78 148.5,-66 148.5,-66 148.5,-60 154.5,-54 160.5,-54 160.5,-54 213.5,-54 213.5,-54 219.5,-54 225.5,-60 225.5,-66 225.5,-66 225.5,-78 225.5,-78 225.5,-84 219.5,-90 213.5,-90"/>
<text text-anchor="middle" x="187" y="-68.3" font-family="Helvetica,sans-Serif" font-size="14.00">pressure</text>
</g>
<!-- pressure&#45;&gt;rotate -->
<g id="edge1" class="edge">
<title>pressure&#45;&gt;rotate</title>
<path fill="none" stroke="black" stroke-width="1.2" d="M225.51,-72C234.1,-72 243.23,-72 251.83,-72"/>
<polygon fill="black" stroke="black" stroke-width="1.2" points="251.98,-75.5 261.98,-72 251.98,-68.5 251.98,-75.5"/>
</g>
<!-- vibration -->
<g id="node4" class="node">
<title>vibration</title>
<path fill="white" stroke="black" d="M214,-144C214,-144 160,-144 160,-144 154,-144 148,-138 148,-132 148,-132 148,-120 148,-120 148,-114 154,-108 160,-108 160,-108 214,-108 214,-108 220,-108 226,-114 226,-120 226,-120 226,-132 226,-132 226,-138 220,-144 214,-144"/>
<text text-anchor="middle" x="187" y="-122.3" font-family="Helvetica,sans-Serif" font-size="14.00">vibration</text>
</g>
</g>
</svg>
