<?xml version="1.0" encoding="UTF-8" standalone="no"?>
<!DOCTYPE svg PUBLIC "-//W3C//DTD SVG 1.1//EN"
 "http://www.w3.org/Graphics/SVG/1.1/DTD/svg11.dtd">
<!-- Generated by graphviz version 2.50.0 (0)
 -->
<!-- Title: G Pages: 1 -->
<svg width="758pt" height="476pt"
 viewBox="0.00 0.00 758.00 476.00" xmlns="http://www.w3.org/2000/svg" xmlns:xlink="http://www.w3.org/1999/xlink">
<g id="graph0" class="graph" transform="scale(1 1) rotate(0) translate(4 472)">
<title>G</title>
<polygon fill="white" stroke="transparent" points="-4,4 -4,-472 754,-472 754,4 -4,4"/>
<text text-anchor="middle" x="375" y="-451.2" font-family="Times,serif" font-size="16.00">model=model1/varlingam_mixed.json [machine 99]</text>
<!-- volt -->
<g id="node1" class="node">
<title>volt</title>
<path fill="white" stroke="black" d="M61,-36C61,-36 31,-36 31,-36 25,-36 19,-30 19,-24 19,-24 19,-12 19,-12 19,-6 25,0 31,0 31,0 61,0 61,0 67,0 73,-6 73,-12 73,-12 73,-24 73,-24 73,-30 67,-36 61,-36"/>
<text text-anchor="middle" x="46" y="-14.3" font-family="Helvetica,sans-Serif" font-size="14.00">volt</text>
</g>
<!-- rotate -->
<g id="node2" class="node">
<title>rotate</title>
<path fill="white" stroke="black" d="M193.5,-144C193.5,-144 160.5,-144 160.5,-144 154.5,-144 148.5,-138 148.5,-132 148.5,-132 148.5,-120 148.5,-120 148.5,-114 154.5,-108 160.5,-108 160.5,-108 193.5,-108 193.5,-108 199.5,-108 205.5,-114 205.5,-120 205.5,-120 205.5,-132 205.5,-132 205.5,-138 199.5,-144 193.5,-144"/>
<text text-anchor="middle" x="177" y="-122.3" font-family="Helvetica,sans-Serif" font-size="14.00">rotate</text>
</g>
<!-- fail_comp2 -->
<g id="node15" class="node">
<title>fail_comp2</title>
<path fill="white" stroke="black" d="M342,-175C342,-175 274,-175 274,-175 268,-175 262,-169 262,-163 262,-163 262,-151 262,-151 262,-145 268,-139 274,-139 274,-139 342,-139 342,-139 348,-139 354,-145 354,-151 354,-151 354,-163 354,-163 354,-169 348,-175 342,-175"/>
<text text-anchor="middle" x="308" y="-153.3" font-family="Helvetica,sans-Serif" font-size="14.00">fail_comp2</text>
</g>
<!-- rotate&#45;&gt;fail_comp2 -->
<g id="edge1" class="edge">
<title>rotate&#45;&gt;fail_comp2</title>
<path fill="none" stroke="black" stroke-width="1.2" d="M205.67,-132.65C219.22,-135.91 236.03,-139.95 252.04,-143.79"/>
<polygon fill="black" stroke="black" stroke-width="1.2" points="251.33,-147.22 261.87,-146.15 252.96,-140.41 251.33,-147.22"/>
</g>
<!-- pressure -->
<g id="node3" class="node">
<title>pressure</title>
<path fill="white" stroke="black" d="M727.5,-148C727.5,-148 674.5,-148 674.5,-148 668.5,-148 662.5,-142 662.5,-136 662.5,-136 662.5,-124 662.5,-124 662.5,-118 668.5,-112 674.5,-112 674.5,-112 727.5,-112 727.5,-112 733.5,-112 739.5,-118 739.5,-124 739.5,-124 739.5,-136 739.5,-136 739.5,-142 733.5,-148 727.5,-148"/>
<text text-anchor="middle" x="701" y="-126.3" font-family="Helvetica,sans-Serif" font-size="14.00">pressure</text>
</g>
<!-- vibration -->
<g id="node4" class="node">
<title>vibration</title>
<path fill="white" stroke="black" d="M204,-198C204,-198 150,-198 150,-198 144,-198 138,-192 138,-186 138,-186 138,-174 138,-174 138,-168 144,-162 150,-162 150,-162 204,-162 204,-162 210,-162 216,-168 216,-174 216,-174 216,-186 216,-186 216,-192 210,-198 204,-198"/>
<text text-anchor="middle" x="177" y="-176.3" font-family="Helvetica,sans-Serif" font-size="14.00">vibration</text>
</g>
<!-- err_error1 -->
<g id="node5" class="node">
<title>err_error1</title>
<path fill="white" stroke="black" d="M76.5,-375C76.5,-375 15.5,-375 15.5,-375 9.5,-375 3.5,-369 3.5,-363 3.5,-363 3.5,-351 3.5,-351 3.5,-345 9.5,-339 15.5,-339 15.5,-339 76.5,-339 76.5,-339 82.5,-339 88.5,-345 88.5,-351 88.5,-351 88.5,-363 88.5,-363 88.5,-369 82.5,-375 76.5,-375"/>
<text text-anchor="middle" x="46" y="-353.3" font-family="Helvetica,sans-Serif" font-size="14.00">err_error1</text>
</g>
<!-- err_error2 -->
<g id="node6" class="node">
<title>err_error2</title>
<path fill="white" stroke="black" d="M207.5,-442C207.5,-442 146.5,-442 146.5,-442 140.5,-442 134.5,-436 134.5,-430 134.5,-430 134.5,-418 134.5,-418 134.5,-412 140.5,-406 146.5,-406 146.5,-406 207.5,-406 207.5,-406 213.5,-406 219.5,-412 219.5,-418 219.5,-418 219.5,-430 219.5,-430 219.5,-436 213.5,-442 207.5,-442"/>
<text text-anchor="middle" x="177" y="-420.3" font-family="Helvetica,sans-Serif" font-size="14.00">err_error2</text>
</g>
<!-- err_error3 -->
<g id="node7" class="node">
<title>err_error3</title>
<path fill="white" stroke="black" d="M76.5,-442C76.5,-442 15.5,-442 15.5,-442 9.5,-442 3.5,-436 3.5,-430 3.5,-430 3.5,-418 3.5,-418 3.5,-412 9.5,-406 15.5,-406 15.5,-406 76.5,-406 76.5,-406 82.5,-406 88.5,-412 88.5,-418 88.5,-418 88.5,-430 88.5,-430 88.5,-436 82.5,-442 76.5,-442"/>
<text text-anchor="middle" x="46" y="-420.3" font-family="Helvetica,sans-Serif" font-size="14.00">err_error3</text>
</g>
<!-- err_error3&#45;&gt;err_error2 -->
<g id="edge6" class="edge">
<title>err_error3&#45;&gt;err_error2</title>
<path fill="none" stroke="black" stroke-width="1.2" d="M88.53,-424C99.81,-424 112.16,-424 123.95,-424"/>
<polygon fill="black" stroke="black" stroke-width="1.2" points="124.11,-427.5 134.11,-424 124.11,-420.5 124.11,-427.5"/>
</g>
<!-- err_error4 -->
<g id="node8" class="node">
<title>err_error4</title>
<path fill="white" stroke="black" d="M600.5,-106C600.5,-106 539.5,-106 539.5,-106 533.5,-106 527.5,-100 527.5,-94 527.5,-94 527.5,-82 527.5,-82 527.5,-76 533.5,-70 539.5,-70 539.5,-70 600.5,-70 600.5,-70 606.5,-70 612.5,-76 612.5,-82 612.5,-82 612.5,-94 612.5,-94 612.5,-100 606.5,-106 600.5,-106"/>
<text text-anchor="middle" x="570" y="-84.3" font-family="Helvetica,sans-Serif" font-size="14.00">err_error4</text>
</g>
<!-- err_error4&#45;&gt;pressure -->
<g id="edge2" class="edge">
<title>err_error4&#45;&gt;pressure</title>
<path fill="none" stroke="black" stroke-width="1.2" d="M612.53,-101.52C625.32,-105.69 639.5,-110.3 652.66,-114.59"/>
<polygon fill="black" stroke="black" stroke-width="1.2" points="651.89,-118.02 662.48,-117.78 654.05,-111.36 651.89,-118.02"/>
</g>
<!-- err_error5 -->
<g id="node9" class="node">
<title>err_error5</title>
<path fill="white" stroke="black" d="M76.5,-198C76.5,-198 15.5,-198 15.5,-198 9.5,-198 3.5,-192 3.5,-186 3.5,-186 3.5,-174 3.5,-174 3.5,-168 9.5,-162 15.5,-162 15.5,-162 76.5,-162 76.5,-162 82.5,-162 88.5,-168 88.5,-174 88.5,-174 88.5,-186 88.5,-186 88.5,-192 82.5,-198 76.5,-198"/>
<text text-anchor="middle" x="46" y="-176.3" font-family="Helvetica,sans-Serif" font-size="14.00">err_error5</text>
</g>
<!-- err_error5&#45;&gt;vibration -->
<g id="edge4" class="edge">
<title>err_error5&#45;&gt;vibration</title>
<path fill="none" stroke="black" stroke-width="1.2" d="M88.53,-180C100.96,-180 114.71,-180 127.55,-180"/>
<polygon fill="black" stroke="black" stroke-width="1.2" points="127.62,-183.5 137.62,-180 127.61,-176.5 127.62,-183.5"/>
</g>
<!-- mnt_comp1 -->
<g id="node10" class="node">
<title>mnt_comp1</title>
<path fill="white" stroke="black" d="M214,-328C214,-328 140,-328 140,-328 134,-328 128,-322 128,-316 128,-316 128,-304 128,-304 128,-298 134,-292 140,-292 140,-292 214,-292 214,-292 220,-292 226,-298 226,-304 226,-304 226,-316 226,-316 226,-322 220,-328 214,-328"/>
<text text-anchor="middle" x="177" y="-306.3" font-family="Helvetica,sans-Serif" font-size="14.00">mnt_comp1</text>
</g>
<!-- mnt_comp3 -->
<g id="node12" class="node">
<title>mnt_comp3</title>
<path fill="white" stroke="black" d="M738,-244C738,-244 664,-244 664,-244 658,-244 652,-238 652,-232 652,-232 652,-220 652,-220 652,-214 658,-208 664,-208 664,-208 738,-208 738,-208 744,-208 750,-214 750,-220 750,-220 750,-232 750,-232 750,-238 744,-244 738,-244"/>
<text text-anchor="middle" x="701" y="-222.3" font-family="Helvetica,sans-Serif" font-size="14.00">mnt_comp3</text>
</g>
<!-- mnt_comp1&#45;&gt;mnt_comp3 -->
<g id="edge7" class="edge">
<title>mnt_comp1&#45;&gt;mnt_comp3</title>
<path fill="none" stroke="black" stroke-width="1.2" d="M226.13,-306.61C307.31,-300.26 476.25,-284.28 616,-253 624.58,-251.08 633.54,-248.66 642.27,-246.07"/>
<polygon fill="black" stroke="black" stroke-width="1.2" points="643.46,-249.36 652,-243.08 641.41,-242.67 643.46,-249.36"/>
</g>
<!-- mnt_comp1&#45;&gt;fail_comp2 -->
<g id="edge9" class="edge">
<title>mnt_comp1&#45;&gt;fail_comp2</title>
<path fill="none" stroke="black" stroke-width="1.2" d="M193.3,-291.85C216.1,-264.82 259.06,-213.86 285.15,-182.91"/>
<polygon fill="black" stroke="black" stroke-width="1.2" points="287.95,-185.03 291.72,-175.13 282.59,-180.52 287.95,-185.03"/>
</g>
<!-- fail_comp3 -->
<g id="node16" class="node">
<title>fail_comp3</title>
<path fill="white" stroke="black" d="M604,-244C604,-244 536,-244 536,-244 530,-244 524,-238 524,-232 524,-232 524,-220 524,-220 524,-214 530,-208 536,-208 536,-208 604,-208 604,-208 610,-208 616,-214 616,-220 616,-220 616,-232 616,-232 616,-238 610,-244 604,-244"/>
<text text-anchor="middle" x="570" y="-222.3" font-family="Helvetica,sans-Serif" font-size="14.00">fail_comp3</text>
</g>
<!-- mnt_comp1&#45;&gt;fail_comp3 -->
<g id="edge10" class="edge">
<title>mnt_comp1&#45;&gt;fail_comp3</title>
<path fill="none" stroke="black" stroke-width="1.2" d="M226.23,-311.84C288.5,-312.69 399.4,-309.02 488,-278 506.19,-271.63 524.44,-260.44 538.99,-250.07"/>
<polygon fill="black" stroke="black" stroke-width="1.2" points="541.13,-252.85 547.11,-244.1 536.98,-247.21 541.13,-252.85"/>
</g>
<!-- mnt_comp2 -->
<g id="node11" class="node">
<title>mnt_comp2</title>
<path fill="white" stroke="black" d="M476,-198C476,-198 402,-198 402,-198 396,-198 390,-192 390,-186 390,-186 390,-174 390,-174 390,-168 396,-162 402,-162 402,-162 476,-162 476,-162 482,-162 488,-168 488,-174 488,-174 488,-186 488,-186 488,-192 482,-198 476,-198"/>
<text text-anchor="middle" x="439" y="-176.3" font-family="Helvetica,sans-Serif" font-size="14.00">mnt_comp2</text>
</g>
<!-- mnt_comp2&#45;&gt;mnt_comp3 -->
<g id="edge11" class="edge">
<title>mnt_comp2&#45;&gt;mnt_comp3</title>
<path fill="none" stroke="black" stroke-width="1.2" d="M488.22,-182.55C523.83,-185.08 573.31,-189.93 616,-199 624.49,-200.8 633.34,-203.13 641.97,-205.66"/>
<polygon fill="black" stroke="black" stroke-width="1.2" points="641.01,-209.03 651.59,-208.59 643.05,-202.33 641.01,-209.03"/>
</g>
<!-- mnt_comp2&#45;&gt;fail_comp3 -->
<g id="edge13" class="edge">
<title>mnt_comp2&#45;&gt;fail_comp3</title>
<path fill="none" stroke="black" stroke-width="1.2" d="M488.03,-197.13C496.57,-200.17 505.52,-203.36 514.22,-206.47"/>
<polygon fill="black" stroke="black" stroke-width="1.2" points="513.32,-209.86 523.92,-209.92 515.67,-203.27 513.32,-209.86"/>
</g>
<!-- mnt_comp4 -->
<g id="node13" class="node">
<title>mnt_comp4</title>
<path fill="white" stroke="black" d="M214,-90C214,-90 140,-90 140,-90 134,-90 128,-84 128,-78 128,-78 128,-66 128,-66 128,-60 134,-54 140,-54 140,-54 214,-54 214,-54 220,-54 226,-60 226,-66 226,-66 226,-78 226,-78 226,-84 220,-90 214,-90"/>
<text text-anchor="middle" x="177" y="-68.3" font-family="Helvetica,sans-Serif" font-size="14.00">mnt_comp4</text>
</g>
<!-- mnt_comp4&#45;&gt;fail_comp2 -->
<g id="edge17" class="edge">
<title>mnt_comp4&#45;&gt;fail_comp2</title>
<path fill="none" stroke="black" stroke-width="1.2" d="M211.33,-90.13C216.3,-93.01 221.32,-96.02 226,-99 242.47,-109.48 260.15,-121.99 274.79,-132.71"/>
<polygon fill="black" stroke="black" stroke-width="1.2" points="272.89,-135.66 283.02,-138.78 277.05,-130.03 272.89,-135.66"/>
</g>
<!-- fail_comp1 -->
<g id="node14" class="node">
<title>fail_comp1</title>
<path fill="white" stroke="black" d="M80,-295C80,-295 12,-295 12,-295 6,-295 0,-289 0,-283 0,-283 0,-271 0,-271 0,-265 6,-259 12,-259 12,-259 80,-259 80,-259 86,-259 92,-265 92,-271 92,-271 92,-283 92,-283 92,-289 86,-295 80,-295"/>
<text text-anchor="middle" x="46" y="-273.3" font-family="Helvetica,sans-Serif" font-size="14.00">fail_comp1</text>
</g>
<!-- fail_comp1&#45;&gt;mnt_comp1 -->
<g id="edge8" class="edge">
<title>fail_comp1&#45;&gt;mnt_comp1</title>
<path fill="none" stroke="black" stroke-width="1.2" d="M92.12,-288.54C100.37,-290.65 109.09,-292.88 117.66,-295.08"/>
<polygon fill="black" stroke="black" stroke-width="1.2" points="117.06,-298.53 127.62,-297.62 118.79,-291.75 117.06,-298.53"/>
</g>
<!-- fail_comp1&#45;&gt;mnt_comp3 -->
<g id="edge14" class="edge">
<title>fail_comp1&#45;&gt;mnt_comp3</title>
<path fill="none" stroke="black" stroke-width="1.2" d="M66.48,-295.07C82.02,-308.55 104.95,-326.39 128,-337 202.14,-371.12 225.38,-378 307,-378 307,-378 307,-378 440,-378 539.14,-378 634.06,-294.61 676.62,-251.36"/>
<polygon fill="black" stroke="black" stroke-width="1.2" points="679.27,-253.65 683.71,-244.03 674.24,-248.79 679.27,-253.65"/>
</g>
<!-- fail_comp1&#45;&gt;fail_comp2 -->
<g id="edge19" class="edge">
<title>fail_comp1&#45;&gt;fail_comp2</title>
<path fill="none" stroke="black" stroke-width="1.2" d="M92.1,-261.91C128.89,-249 181.81,-229.05 226,-207 241.4,-199.31 257.69,-189.6 271.58,-180.79"/>
<polygon fill="black" stroke="black" stroke-width="1.2" points="273.82,-183.51 280.33,-175.15 270.03,-177.62 273.82,-183.51"/>
</g>
<!-- fail_comp1&#45;&gt;fail_comp3 -->
<g id="edge20" class="edge">
<title>fail_comp1&#45;&gt;fail_comp3</title>
<path fill="none" stroke="black" stroke-width="1.2" d="M92.41,-272.56C188.07,-263.22 410.02,-241.53 513.74,-231.4"/>
<polygon fill="black" stroke="black" stroke-width="1.2" points="514.08,-234.88 523.69,-230.43 513.4,-227.92 514.08,-234.88"/>
</g>
<!-- fail_comp2&#45;&gt;mnt_comp2 -->
<g id="edge12" class="edge">
<title>fail_comp2&#45;&gt;mnt_comp2</title>
<path fill="none" stroke="black" stroke-width="1.2" d="M354.12,-165.04C362.37,-166.52 371.09,-168.07 379.66,-169.6"/>
<polygon fill="black" stroke="black" stroke-width="1.2" points="379.16,-173.06 389.62,-171.37 380.38,-166.17 379.16,-173.06"/>
</g>
<!-- fail_comp2&#45;&gt;mnt_comp3 -->
<g id="edge15" class="edge">
<title>fail_comp2&#45;&gt;mnt_comp3</title>
<path fill="none" stroke="black" stroke-width="1.2" d="M354.4,-154.36C366,-153.8 378.46,-153.28 390,-153 491.18,-150.5 521.05,-145.95 616,-181 631.66,-186.78 648.02,-194.99 662.11,-202.83"/>
<polygon fill="black" stroke="black" stroke-width="1.2" points="660.58,-205.98 671,-207.89 664.04,-199.9 660.58,-205.98"/>
</g>
<!-- fail_comp2&#45;&gt;fail_comp3 -->
<g id="edge21" class="edge">
<title>fail_comp2&#45;&gt;fail_comp3</title>
<path fill="none" stroke="black" stroke-width="1.2" d="M332.03,-175.11C347.52,-186.27 368.89,-199.78 390,-207 429.83,-220.62 477.31,-225.16 513.35,-226.42"/>
<polygon fill="black" stroke="black" stroke-width="1.2" points="513.58,-229.92 523.67,-226.7 513.77,-222.93 513.58,-229.92"/>
</g>
<!-- fail_comp3&#45;&gt;pressure -->
<g id="edge3" class="edge">
<title>fail_comp3&#45;&gt;pressure</title>
<path fill="none" stroke="black" stroke-width="1.2" d="M595.26,-207.94C615.59,-192.82 644.78,-171.1 667.18,-154.42"/>
<polygon fill="black" stroke="black" stroke-width="1.2" points="669.47,-157.08 675.41,-148.3 665.29,-151.46 669.47,-157.08"/>
</g>
<!-- fail_comp3&#45;&gt;mnt_comp3 -->
<g id="edge16" class="edge">
<title>fail_comp3&#45;&gt;mnt_comp3</title>
<path fill="none" stroke="black" stroke-width="1.2" d="M616.12,-226C624.28,-226 632.9,-226 641.38,-226"/>
<polygon fill="black" stroke="black" stroke-width="1.2" points="641.62,-229.5 651.62,-226 641.62,-222.5 641.62,-229.5"/>
</g>
<!-- fail_comp4 -->
<g id="node17" class="node">
<title>fail_comp4</title>
<path fill="white" stroke="black" d="M80,-90C80,-90 12,-90 12,-90 6,-90 0,-84 0,-78 0,-78 0,-66 0,-66 0,-60 6,-54 12,-54 12,-54 80,-54 80,-54 86,-54 92,-60 92,-66 92,-66 92,-78 92,-78 92,-84 86,-90 80,-90"/>
<text text-anchor="middle" x="46" y="-68.3" font-family="Helvetica,sans-Serif" font-size="14.00">fail_comp4</text>
</g>
<!-- fail_comp4&#45;&gt;vibration -->
<g id="edge5" class="edge">
<title>fail_comp4&#45;&gt;vibration</title>
<path fill="none" stroke="black" stroke-width="1.2" d="M62.52,-90.17C77.98,-107.61 102.96,-134.01 128,-153 129.54,-154.17 131.14,-155.32 132.78,-156.46"/>
<polygon fill="black" stroke="black" stroke-width="1.2" points="130.9,-159.41 141.19,-161.93 134.71,-153.54 130.9,-159.41"/>
</g>
<!-- fail_comp4&#45;&gt;mnt_comp4 -->
<g id="edge18" class="edge">
<title>fail_comp4&#45;&gt;mnt_comp4</title>
<path fill="none" stroke="black" stroke-width="1.2" d="M92.12,-72C100.28,-72 108.9,-72 117.38,-72"/>
<polygon fill="black" stroke="black" stroke-width="1.2" points="117.62,-75.5 127.62,-72 117.62,-68.5 117.62,-75.5"/>
</g>
<!-- fail_comp4&#45;&gt;fail_comp2 -->
<g id="edge22" class="edge">
<title>fail_comp4&#45;&gt;fail_comp2</title>
<path fill="none" stroke="black" stroke-width="1.2" d="M84.39,-53.95C122.13,-38.49 181.08,-22.05 226,-45 260.45,-62.6 283.63,-102.44 296.08,-129.54"/>
<polygon fill="black" stroke="black" stroke-width="1.2" points="292.95,-131.13 300.18,-138.88 299.36,-128.32 292.95,-131.13"/>
</g>
</g>
</svg>
