<?xml version="1.0" encoding="UTF-8" standalone="no"?>
<!DOCTYPE svg PUBLIC "-//W3C//DTD SVG 1.1//EN"
 "http://www.w3.org/Graphics/SVG/1.1/DTD/svg11.dtd">
<!-- Generated by graphviz version 2.50.0 (0)
 -->
<!-- Title: G Pages: 1 -->
<svg width="502pt" height="694pt"
 viewBox="0.00 0.00 502.00 694.00" xmlns="http://www.w3.org/2000/svg" xmlns:xlink="http://www.w3.org/1999/xlink">
<g id="graph0" class="graph" transform="scale(1 1) rotate(0) translate(4 690)">
<title>G</title>
<polygon fill="white" stroke="transparent" points="-4,4 -4,-690 498,-690 498,4 -4,4"/>
<text text-anchor="middle" x="247" y="-669.2" font-family="Times,serif" font-size="16.00">model=model4/varlingam_mixed.json [aggregate]</text>
<!-- err_error1 -->
<g id="node1" class="node">
<title>err_error1</title>
<path fill="white" stroke="black" d="M76.5,-36C76.5,-36 15.5,-36 15.5,-36 9.5,-36 3.5,-30 3.5,-24 3.5,-24 3.5,-12 3.5,-12 3.5,-6 9.5,0 15.5,0 15.5,0 76.5,0 76.5,0 82.5,0 88.5,-6 88.5,-12 88.5,-12 88.5,-24 88.5,-24 88.5,-30 82.5,-36 76.5,-36"/>
<text text-anchor="middle" x="46" y="-14.3" font-family="Helvetica,sans-Serif" font-size="14.00">err_error1</text>
</g>
<!-- err_error2 -->
<g id="node2" class="node">
<title>err_error2</title>
<path fill="white" stroke="black" d="M207.5,-90C207.5,-90 146.5,-90 146.5,-90 140.5,-90 134.5,-84 134.5,-78 134.5,-78 134.5,-66 134.5,-66 134.5,-60 140.5,-54 146.5,-54 146.5,-54 207.5,-54 207.5,-54 213.5,-54 219.5,-60 219.5,-66 219.5,-66 219.5,-78 219.5,-78 219.5,-84 213.5,-90 207.5,-90"/>
<text text-anchor="middle" x="177" y="-68.3" font-family="Helvetica,sans-Serif" font-size="14.00">err_error2</text>
</g>
<!-- err_error3 -->
<g id="node3" class="node">
<title>err_error3</title>
<path fill="white" stroke="black" d="M76.5,-90C76.5,-90 15.5,-90 15.5,-90 9.5,-90 3.5,-84 3.5,-78 3.5,-78 3.5,-66 3.5,-66 3.5,-60 9.5,-54 15.5,-54 15.5,-54 76.5,-54 76.5,-54 82.5,-54 88.5,-60 88.5,-66 88.5,-66 88.5,-78 88.5,-78 88.5,-84 82.5,-90 76.5,-90"/>
<text text-anchor="middle" x="46" y="-68.3" font-family="Helvetica,sans-Serif" font-size="14.00">err_error3</text>
</g>
<!-- err_error3&#45;&gt;err_error2 -->
<g id="edge1" class="edge">
<title>err_error3&#45;&gt;err_error2</title>
<path fill="none" stroke="black" stroke-width="1.2" d="M88.53,-72C99.81,-72 112.16,-72 123.95,-72"/>
<polygon fill="black" stroke="black" stroke-width="1.2" points="124.11,-75.5 134.11,-72 124.11,-68.5 124.11,-75.5"/>
</g>
<!-- err_error4 -->
<g id="node4" class="node">
<title>err_error4</title>
<path fill="white" stroke="black" d="M76.5,-144C76.5,-144 15.5,-144 15.5,-144 9.5,-144 3.5,-138 3.5,-132 3.5,-132 3.5,-120 3.5,-120 3.5,-114 9.5,-108 15.5,-108 15.5,-108 76.5,-108 76.5,-108 82.5,-108 88.5,-114 88.5,-120 88.5,-120 88.5,-132 88.5,-132 88.5,-138 82.5,-144 76.5,-144"/>
<text text-anchor="middle" x="46" y="-122.3" font-family="Helvetica,sans-Serif" font-size="14.00">err_error4</text>
</g>
<!-- err_error5 -->
<g id="node5" class="node">
<title>err_error5</title>
<path fill="white" stroke="black" d="M76.5,-198C76.5,-198 15.5,-198 15.5,-198 9.5,-198 3.5,-192 3.5,-186 3.5,-186 3.5,-174 3.5,-174 3.5,-168 9.5,-162 15.5,-162 15.5,-162 76.5,-162 76.5,-162 82.5,-162 88.5,-168 88.5,-174 88.5,-174 88.5,-186 88.5,-186 88.5,-192 82.5,-198 76.5,-198"/>
<text text-anchor="middle" x="46" y="-176.3" font-family="Helvetica,sans-Serif" font-size="14.00">err_error5</text>
</g>
<!-- fail_comp1 -->
<g id="node6" class="node">
<title>fail_comp1</title>
<path fill="white" stroke="black" d="M80,-390C80,-390 12,-390 12,-390 6,-390 0,-384 0,-378 0,-378 0,-366 0,-366 0,-360 6,-354 12,-354 12,-354 80,-354 80,-354 86,-354 92,-360 92,-366 92,-366 92,-378 92,-378 92,-384 86,-390 80,-390"/>
<text text-anchor="middle" x="46" y="-368.3" font-family="Helvetica,sans-Serif" font-size="14.00">fail_comp1</text>
</g>
<!-- mnt_comp1 -->
<g id="node9" class="node">
<title>mnt_comp1</title>
<path fill="white" stroke="black" d="M214,-390C214,-390 140,-390 140,-390 134,-390 128,-384 128,-378 128,-378 128,-366 128,-366 128,-360 134,-354 140,-354 140,-354 214,-354 214,-354 220,-354 226,-360 226,-366 226,-366 226,-378 226,-378 226,-384 220,-390 214,-390"/>
<text text-anchor="middle" x="177" y="-368.3" font-family="Helvetica,sans-Serif" font-size="14.00">mnt_comp1</text>
</g>
<!-- fail_comp1&#45;&gt;mnt_comp1 -->
<g id="edge2" class="edge">
<title>fail_comp1&#45;&gt;mnt_comp1</title>
<path fill="none" stroke="black" stroke-width="1.2" d="M92.12,-372C100.28,-372 108.9,-372 117.38,-372"/>
<polygon fill="black" stroke="black" stroke-width="1.2" points="117.62,-375.5 127.62,-372 117.62,-368.5 117.62,-375.5"/>
</g>
<!-- mnt_comp3 -->
<g id="node11" class="node">
<title>mnt_comp3</title>
<path fill="white" stroke="black" d="M482,-367C482,-367 408,-367 408,-367 402,-367 396,-361 396,-355 396,-355 396,-343 396,-343 396,-337 402,-331 408,-331 408,-331 482,-331 482,-331 488,-331 494,-337 494,-343 494,-343 494,-355 494,-355 494,-361 488,-367 482,-367"/>
<text text-anchor="middle" x="445" y="-345.3" font-family="Helvetica,sans-Serif" font-size="14.00">mnt_comp3</text>
</g>
<!-- fail_comp1&#45;&gt;mnt_comp3 -->
<g id="edge3" class="edge">
<title>fail_comp1&#45;&gt;mnt_comp3</title>
<path fill="none" stroke="black" stroke-width="1.2" d="M92.19,-389.91C103.69,-393.67 116.15,-397.08 128,-399 218.03,-413.61 322.59,-388.9 385.99,-369.31"/>
<polygon fill="black" stroke="black" stroke-width="1.2" points="387.31,-372.56 395.8,-366.21 385.21,-365.88 387.31,-372.56"/>
</g>
<!-- mnt_comp4 -->
<g id="node12" class="node">
<title>mnt_comp4</title>
<path fill="white" stroke="black" d="M348,-344C348,-344 274,-344 274,-344 268,-344 262,-338 262,-332 262,-332 262,-320 262,-320 262,-314 268,-308 274,-308 274,-308 348,-308 348,-308 354,-308 360,-314 360,-320 360,-320 360,-332 360,-332 360,-338 354,-344 348,-344"/>
<text text-anchor="middle" x="311" y="-322.3" font-family="Helvetica,sans-Serif" font-size="14.00">mnt_comp4</text>
</g>
<!-- fail_comp1&#45;&gt;mnt_comp4 -->
<g id="edge4" class="edge">
<title>fail_comp1&#45;&gt;mnt_comp4</title>
<path fill="none" stroke="black" stroke-width="1.2" d="M92.35,-354.95C103.85,-351.17 116.26,-347.54 128,-345 168.7,-336.2 215.43,-331.43 251.35,-328.87"/>
<polygon fill="black" stroke="black" stroke-width="1.2" points="251.91,-332.34 261.65,-328.18 251.44,-325.36 251.91,-332.34"/>
</g>
<!-- fail_comp2 -->
<g id="node7" class="node">
<title>fail_comp2</title>
<path fill="white" stroke="black" d="M80,-252C80,-252 12,-252 12,-252 6,-252 0,-246 0,-240 0,-240 0,-228 0,-228 0,-222 6,-216 12,-216 12,-216 80,-216 80,-216 86,-216 92,-222 92,-228 92,-228 92,-240 92,-240 92,-246 86,-252 80,-252"/>
<text text-anchor="middle" x="46" y="-230.3" font-family="Helvetica,sans-Serif" font-size="14.00">fail_comp2</text>
</g>
<!-- mnt_comp2 -->
<g id="node10" class="node">
<title>mnt_comp2</title>
<path fill="white" stroke="black" d="M214,-298C214,-298 140,-298 140,-298 134,-298 128,-292 128,-286 128,-286 128,-274 128,-274 128,-268 134,-262 140,-262 140,-262 214,-262 214,-262 220,-262 226,-268 226,-274 226,-274 226,-286 226,-286 226,-292 220,-298 214,-298"/>
<text text-anchor="middle" x="177" y="-276.3" font-family="Helvetica,sans-Serif" font-size="14.00">mnt_comp2</text>
</g>
<!-- fail_comp2&#45;&gt;mnt_comp2 -->
<g id="edge5" class="edge">
<title>fail_comp2&#45;&gt;mnt_comp2</title>
<path fill="none" stroke="black" stroke-width="1.2" d="M92.12,-250.09C100.46,-253.06 109.28,-256.21 117.94,-259.3"/>
<polygon fill="black" stroke="black" stroke-width="1.2" points="117.02,-262.68 127.62,-262.75 119.37,-256.09 117.02,-262.68"/>
</g>
<!-- fail_comp2&#45;&gt;mnt_comp3 -->
<g id="edge6" class="edge">
<title>fail_comp2&#45;&gt;mnt_comp3</title>
<path fill="none" stroke="black" stroke-width="1.2" d="M92.22,-225.72C128.85,-220.61 181.49,-216.94 226,-228 298.75,-246.08 372.84,-295.07 413.16,-324.88"/>
<polygon fill="black" stroke="black" stroke-width="1.2" points="411.13,-327.74 421.24,-330.93 415.33,-322.13 411.13,-327.74"/>
</g>
<!-- fail_comp2&#45;&gt;mnt_comp4 -->
<g id="edge7" class="edge">
<title>fail_comp2&#45;&gt;mnt_comp4</title>
<path fill="none" stroke="black" stroke-width="1.2" d="M92.3,-231.44C129.67,-231.03 183.31,-234.41 226,-253 250.21,-263.54 272.5,-283.62 288.03,-300.06"/>
<polygon fill="black" stroke="black" stroke-width="1.2" points="285.76,-302.76 295.09,-307.78 290.93,-298.04 285.76,-302.76"/>
</g>
<!-- fail_comp4 -->
<g id="node8" class="node">
<title>fail_comp4</title>
<path fill="white" stroke="black" d="M80,-444C80,-444 12,-444 12,-444 6,-444 0,-438 0,-432 0,-432 0,-420 0,-420 0,-414 6,-408 12,-408 12,-408 80,-408 80,-408 86,-408 92,-414 92,-420 92,-420 92,-432 92,-432 92,-438 86,-444 80,-444"/>
<text text-anchor="middle" x="46" y="-422.3" font-family="Helvetica,sans-Serif" font-size="14.00">fail_comp4</text>
</g>
<!-- mnt_comp1&#45;&gt;mnt_comp3 -->
<g id="edge8" class="edge">
<title>mnt_comp1&#45;&gt;mnt_comp3</title>
<path fill="none" stroke="black" stroke-width="1.2" d="M226.17,-367.83C270.94,-363.96 337.73,-358.19 385.54,-354.05"/>
<polygon fill="black" stroke="black" stroke-width="1.2" points="386.08,-357.52 395.74,-353.17 385.47,-350.55 386.08,-357.52"/>
</g>
<!-- mnt_comp1&#45;&gt;mnt_comp4 -->
<g id="edge9" class="edge">
<title>mnt_comp1&#45;&gt;mnt_comp4</title>
<path fill="none" stroke="black" stroke-width="1.2" d="M226.03,-355.26C234.49,-352.31 243.38,-349.22 252.08,-346.18"/>
<polygon fill="black" stroke="black" stroke-width="1.2" points="253.49,-349.4 261.79,-342.8 251.19,-342.79 253.49,-349.4"/>
</g>
<!-- mnt_comp2&#45;&gt;mnt_comp4 -->
<g id="edge10" class="edge">
<title>mnt_comp2&#45;&gt;mnt_comp4</title>
<path fill="none" stroke="black" stroke-width="1.2" d="M226.03,-296.74C234.49,-299.69 243.38,-302.78 252.08,-305.82"/>
<polygon fill="black" stroke="black" stroke-width="1.2" points="251.19,-309.21 261.79,-309.2 253.49,-302.6 251.19,-309.21"/>
</g>
<!-- mnt_comp4&#45;&gt;mnt_comp3 -->
<g id="edge11" class="edge">
<title>mnt_comp4&#45;&gt;mnt_comp3</title>
<path fill="none" stroke="black" stroke-width="1.2" d="M360.03,-334.37C368.4,-335.83 377.19,-337.36 385.8,-338.86"/>
<polygon fill="black" stroke="black" stroke-width="1.2" points="385.33,-342.33 395.79,-340.6 386.54,-335.43 385.33,-342.33"/>
</g>
<!-- pressure -->
<g id="node13" class="node">
<title>pressure</title>
<path fill="white" stroke="black" d="M72.5,-498C72.5,-498 19.5,-498 19.5,-498 13.5,-498 7.5,-492 7.5,-486 7.5,-486 7.5,-474 7.5,-474 7.5,-468 13.5,-462 19.5,-462 19.5,-462 72.5,-462 72.5,-462 78.5,-462 84.5,-468 84.5,-474 84.5,-474 84.5,-486 84.5,-486 84.5,-492 78.5,-498 72.5,-498"/>
<text text-anchor="middle" x="46" y="-476.3" font-family="Helvetica,sans-Serif" font-size="14.00">pressure</text>
</g>
<!-- rotate -->
<g id="node14" class="node">
<title>rotate</title>
<path fill="white" stroke="black" d="M62.5,-552C62.5,-552 29.5,-552 29.5,-552 23.5,-552 17.5,-546 17.5,-540 17.5,-540 17.5,-528 17.5,-528 17.5,-522 23.5,-516 29.5,-516 29.5,-516 62.5,-516 62.5,-516 68.5,-516 74.5,-522 74.5,-528 74.5,-528 74.5,-540 74.5,-540 74.5,-546 68.5,-552 62.5,-552"/>
<text text-anchor="middle" x="46" y="-530.3" font-family="Helvetica,sans-Serif" font-size="14.00">rotate</text>
</g>
<!-- vibration -->
<g id="node15" class="node">
<title>vibration</title>
<path fill="white" stroke="black" d="M73,-606C73,-606 19,-606 19,-606 13,-606 7,-600 7,-594 7,-594 7,-582 7,-582 7,-576 13,-570 19,-570 19,-570 73,-570 73,-570 79,-570 85,-576 85,-582 85,-582 85,-594 85,-594 85,-600 79,-606 73,-606"/>
<text text-anchor="middle" x="46" y="-584.3" font-family="Helvetica,sans-Serif" font-size="14.00">vibration</text>
</g>
<!-- volt -->
<g id="node16" class="node">
<title>volt</title>
<path fill="white" stroke="black" d="M61,-660C61,-660 31,-660 31,-660 25,-660 19,-654 19,-648 19,-648 19,-636 19,-636 19,-630 25,-624 31,-624 31,-624 61,-624 61,-624 67,-624 73,-630 73,-636 73,-636 73,-648 73,-648 73,-654 67,-660 61,-660"/>
<text text-anchor="middle" x="46" y="-638.3" font-family="Helvetica,sans-Serif" font-size="14.00">volt</text>
</g>
</g>
</svg>
