<?xml version="1.0" encoding="UTF-8" standalone="no"?>
<!DOCTYPE svg PUBLIC "-//W3C//DTD SVG 1.1//EN"
 "http://www.w3.org/Graphics/SVG/1.1/DTD/svg11.dtd">
<!-- Generated by graphviz version 2.50.0 (0)
 -->
<!-- Title: G Pages: 1 -->
<svg width="630pt" height="498pt"
 viewBox="0.00 0.00 630.00 498.00" xmlns="http://www.w3.org/2000/svg" xmlns:xlink="http://www.w3.org/1999/xlink">
<g id="graph0" class="graph" transform="scale(1 1) rotate(0) translate(4 494)">
<title>G</title>
<polygon fill="white" stroke="transparent" points="-4,4 -4,-494 626,-494 626,4 -4,4"/>
<text text-anchor="middle" x="311" y="-473.2" font-family="Times,serif" font-size="16.00">model=model1/varlingam_mixed.json [machine 92]</text>
<!-- volt -->
<g id="node1" class="node">
<title>volt</title>
<path fill="white" stroke="black" d="M61,-166C61,-166 31,-166 31,-166 25,-166 19,-160 19,-154 19,-154 19,-142 19,-142 19,-136 25,-130 31,-130 31,-130 61,-130 61,-130 67,-130 73,-136 73,-142 73,-142 73,-154 73,-154 73,-160 67,-166 61,-166"/>
<text text-anchor="middle" x="46" y="-144.3" font-family="Helvetica,sans-Serif" font-size="14.00">volt</text>
</g>
<!-- rotate -->
<g id="node2" class="node">
<title>rotate</title>
<path fill="white" stroke="black" d="M62.5,-220C62.5,-220 29.5,-220 29.5,-220 23.5,-220 17.5,-214 17.5,-208 17.5,-208 17.5,-196 17.5,-196 17.5,-190 23.5,-184 29.5,-184 29.5,-184 62.5,-184 62.5,-184 68.5,-184 74.5,-190 74.5,-196 74.5,-196 74.5,-208 74.5,-208 74.5,-214 68.5,-220 62.5,-220"/>
<text text-anchor="middle" x="46" y="-198.3" font-family="Helvetica,sans-Serif" font-size="14.00">rotate</text>
</g>
<!-- pressure -->
<g id="node3" class="node">
<title>pressure</title>
<path fill="white" stroke="black" d="M465.5,-180C465.5,-180 412.5,-180 412.5,-180 406.5,-180 400.5,-174 400.5,-168 400.5,-168 400.5,-156 400.5,-156 400.5,-150 406.5,-144 412.5,-144 412.5,-144 465.5,-144 465.5,-144 471.5,-144 477.5,-150 477.5,-156 477.5,-156 477.5,-168 477.5,-168 477.5,-174 471.5,-180 465.5,-180"/>
<text text-anchor="middle" x="439" y="-158.3" font-family="Helvetica,sans-Serif" font-size="14.00">pressure</text>
</g>
<!-- vibration -->
<g id="node4" class="node">
<title>vibration</title>
<path fill="white" stroke="black" d="M73,-347C73,-347 19,-347 19,-347 13,-347 7,-341 7,-335 7,-335 7,-323 7,-323 7,-317 13,-311 19,-311 19,-311 73,-311 73,-311 79,-311 85,-317 85,-323 85,-323 85,-335 85,-335 85,-341 79,-347 73,-347"/>
<text text-anchor="middle" x="46" y="-325.3" font-family="Helvetica,sans-Serif" font-size="14.00">vibration</text>
</g>
<!-- err_error1 -->
<g id="node5" class="node">
<title>err_error1</title>
<path fill="white" stroke="black" d="M335.5,-397C335.5,-397 274.5,-397 274.5,-397 268.5,-397 262.5,-391 262.5,-385 262.5,-385 262.5,-373 262.5,-373 262.5,-367 268.5,-361 274.5,-361 274.5,-361 335.5,-361 335.5,-361 341.5,-361 347.5,-367 347.5,-373 347.5,-373 347.5,-385 347.5,-385 347.5,-391 341.5,-397 335.5,-397"/>
<text text-anchor="middle" x="305" y="-375.3" font-family="Helvetica,sans-Serif" font-size="14.00">err_error1</text>
</g>
<!-- err_error2 -->
<g id="node6" class="node">
<title>err_error2</title>
<path fill="white" stroke="black" d="M76.5,-410C76.5,-410 15.5,-410 15.5,-410 9.5,-410 3.5,-404 3.5,-398 3.5,-398 3.5,-386 3.5,-386 3.5,-380 9.5,-374 15.5,-374 15.5,-374 76.5,-374 76.5,-374 82.5,-374 88.5,-380 88.5,-386 88.5,-386 88.5,-398 88.5,-398 88.5,-404 82.5,-410 76.5,-410"/>
<text text-anchor="middle" x="46" y="-388.3" font-family="Helvetica,sans-Serif" font-size="14.00">err_error2</text>
</g>
<!-- err_error2&#45;&gt;err_error1 -->
<g id="edge3" class="edge">
<title>err_error2&#45;&gt;err_error1</title>
<path fill="none" stroke="black" stroke-width="1.2" d="M88.58,-389.9C133.18,-387.64 204.09,-384.05 252.26,-381.62"/>
<polygon fill="black" stroke="black" stroke-width="1.2" points="252.67,-385.1 262.48,-381.1 252.32,-378.11 252.67,-385.1"/>
</g>
<!-- err_error3 -->
<g id="node7" class="node">
<title>err_error3</title>
<path fill="white" stroke="black" d="M204.5,-374C204.5,-374 143.5,-374 143.5,-374 137.5,-374 131.5,-368 131.5,-362 131.5,-362 131.5,-350 131.5,-350 131.5,-344 137.5,-338 143.5,-338 143.5,-338 204.5,-338 204.5,-338 210.5,-338 216.5,-344 216.5,-350 216.5,-350 216.5,-362 216.5,-362 216.5,-368 210.5,-374 204.5,-374"/>
<text text-anchor="middle" x="174" y="-352.3" font-family="Helvetica,sans-Serif" font-size="14.00">err_error3</text>
</g>
<!-- err_error2&#45;&gt;err_error3 -->
<g id="edge5" class="edge">
<title>err_error2&#45;&gt;err_error3</title>
<path fill="none" stroke="black" stroke-width="1.2" d="M88.61,-380.11C99.14,-377.1 110.59,-373.83 121.55,-370.7"/>
<polygon fill="black" stroke="black" stroke-width="1.2" points="122.78,-373.99 131.44,-367.88 120.86,-367.26 122.78,-373.99"/>
</g>
<!-- err_error3&#45;&gt;err_error1 -->
<g id="edge4" class="edge">
<title>err_error3&#45;&gt;err_error1</title>
<path fill="none" stroke="black" stroke-width="1.2" d="M216.53,-363.4C227.81,-365.42 240.16,-367.62 251.95,-369.72"/>
<polygon fill="black" stroke="black" stroke-width="1.2" points="251.65,-373.22 262.11,-371.53 252.88,-366.33 251.65,-373.22"/>
</g>
<!-- err_error4 -->
<g id="node8" class="node">
<title>err_error4</title>
<path fill="white" stroke="black" d="M335.5,-182C335.5,-182 274.5,-182 274.5,-182 268.5,-182 262.5,-176 262.5,-170 262.5,-170 262.5,-158 262.5,-158 262.5,-152 268.5,-146 274.5,-146 274.5,-146 335.5,-146 335.5,-146 341.5,-146 347.5,-152 347.5,-158 347.5,-158 347.5,-170 347.5,-170 347.5,-176 341.5,-182 335.5,-182"/>
<text text-anchor="middle" x="305" y="-160.3" font-family="Helvetica,sans-Serif" font-size="14.00">err_error4</text>
</g>
<!-- err_error4&#45;&gt;pressure -->
<g id="edge1" class="edge">
<title>err_error4&#45;&gt;pressure</title>
<path fill="none" stroke="black" stroke-width="1.2" d="M347.77,-163.37C361.13,-163.16 376.03,-162.94 389.81,-162.73"/>
<polygon fill="black" stroke="black" stroke-width="1.2" points="390.14,-166.23 400.09,-162.57 390.03,-159.23 390.14,-166.23"/>
</g>
<!-- err_error5 -->
<g id="node9" class="node">
<title>err_error5</title>
<path fill="white" stroke="black" d="M76.5,-464C76.5,-464 15.5,-464 15.5,-464 9.5,-464 3.5,-458 3.5,-452 3.5,-452 3.5,-440 3.5,-440 3.5,-434 9.5,-428 15.5,-428 15.5,-428 76.5,-428 76.5,-428 82.5,-428 88.5,-434 88.5,-440 88.5,-440 88.5,-452 88.5,-452 88.5,-458 82.5,-464 76.5,-464"/>
<text text-anchor="middle" x="46" y="-442.3" font-family="Helvetica,sans-Serif" font-size="14.00">err_error5</text>
</g>
<!-- mnt_comp1 -->
<g id="node10" class="node">
<title>mnt_comp1</title>
<path fill="white" stroke="black" d="M342,-274C342,-274 268,-274 268,-274 262,-274 256,-268 256,-262 256,-262 256,-250 256,-250 256,-244 262,-238 268,-238 268,-238 342,-238 342,-238 348,-238 354,-244 354,-250 354,-250 354,-262 354,-262 354,-268 348,-274 342,-274"/>
<text text-anchor="middle" x="305" y="-252.3" font-family="Helvetica,sans-Serif" font-size="14.00">mnt_comp1</text>
</g>
<!-- mnt_comp4 -->
<g id="node13" class="node">
<title>mnt_comp4</title>
<path fill="white" stroke="black" d="M610,-182C610,-182 536,-182 536,-182 530,-182 524,-176 524,-170 524,-170 524,-158 524,-158 524,-152 530,-146 536,-146 536,-146 610,-146 610,-146 616,-146 622,-152 622,-158 622,-158 622,-170 622,-170 622,-176 616,-182 610,-182"/>
<text text-anchor="middle" x="573" y="-160.3" font-family="Helvetica,sans-Serif" font-size="14.00">mnt_comp4</text>
</g>
<!-- mnt_comp1&#45;&gt;mnt_comp4 -->
<g id="edge6" class="edge">
<title>mnt_comp1&#45;&gt;mnt_comp4</title>
<path fill="none" stroke="black" stroke-width="1.2" d="M354.01,-253.39C391.68,-249.98 444.81,-242.12 488,-224 508.36,-215.46 528.57,-201.25 544.07,-188.8"/>
<polygon fill="black" stroke="black" stroke-width="1.2" points="546.69,-191.18 552.17,-182.11 542.23,-185.78 546.69,-191.18"/>
</g>
<!-- mnt_comp2 -->
<g id="node11" class="node">
<title>mnt_comp2</title>
<path fill="white" stroke="black" d="M342,-36C342,-36 268,-36 268,-36 262,-36 256,-30 256,-24 256,-24 256,-12 256,-12 256,-6 262,0 268,0 268,0 342,0 342,0 348,0 354,-6 354,-12 354,-12 354,-24 354,-24 354,-30 348,-36 342,-36"/>
<text text-anchor="middle" x="305" y="-14.3" font-family="Helvetica,sans-Serif" font-size="14.00">mnt_comp2</text>
</g>
<!-- mnt_comp3 -->
<g id="node12" class="node">
<title>mnt_comp3</title>
<path fill="white" stroke="black" d="M476,-86C476,-86 402,-86 402,-86 396,-86 390,-80 390,-74 390,-74 390,-62 390,-62 390,-56 396,-50 402,-50 402,-50 476,-50 476,-50 482,-50 488,-56 488,-62 488,-62 488,-74 488,-74 488,-80 482,-86 476,-86"/>
<text text-anchor="middle" x="439" y="-64.3" font-family="Helvetica,sans-Serif" font-size="14.00">mnt_comp3</text>
</g>
<!-- mnt_comp2&#45;&gt;mnt_comp3 -->
<g id="edge9" class="edge">
<title>mnt_comp2&#45;&gt;mnt_comp3</title>
<path fill="none" stroke="black" stroke-width="1.2" d="M353.66,-36.05C362.53,-39.41 371.89,-42.96 381.02,-46.42"/>
<polygon fill="black" stroke="black" stroke-width="1.2" points="379.82,-49.71 390.41,-49.98 382.3,-43.16 379.82,-49.71"/>
</g>
<!-- mnt_comp2&#45;&gt;mnt_comp4 -->
<g id="edge10" class="edge">
<title>mnt_comp2&#45;&gt;mnt_comp4</title>
<path fill="none" stroke="black" stroke-width="1.2" d="M354.37,-13.7C393.24,-12.57 447.78,-16.42 488,-41 524.12,-63.08 548.39,-107.21 561.2,-136.17"/>
<polygon fill="black" stroke="black" stroke-width="1.2" points="558.12,-137.88 565.25,-145.72 564.57,-135.15 558.12,-137.88"/>
</g>
<!-- mnt_comp3&#45;&gt;mnt_comp4 -->
<g id="edge12" class="edge">
<title>mnt_comp3&#45;&gt;mnt_comp4</title>
<path fill="none" stroke="black" stroke-width="1.2" d="M467.87,-86.15C474.52,-90.6 481.56,-95.41 488,-100 505.76,-112.67 525.15,-127.38 540.83,-139.51"/>
<polygon fill="black" stroke="black" stroke-width="1.2" points="539.07,-142.58 549.12,-145.95 543.37,-137.05 539.07,-142.58"/>
</g>
<!-- fail_comp1 -->
<g id="node14" class="node">
<title>fail_comp1</title>
<path fill="white" stroke="black" d="M80,-274C80,-274 12,-274 12,-274 6,-274 0,-268 0,-262 0,-262 0,-250 0,-250 0,-244 6,-238 12,-238 12,-238 80,-238 80,-238 86,-238 92,-244 92,-250 92,-250 92,-262 92,-262 92,-268 86,-274 80,-274"/>
<text text-anchor="middle" x="46" y="-252.3" font-family="Helvetica,sans-Serif" font-size="14.00">fail_comp1</text>
</g>
<!-- fail_comp1&#45;&gt;mnt_comp1 -->
<g id="edge7" class="edge">
<title>fail_comp1&#45;&gt;mnt_comp1</title>
<path fill="none" stroke="black" stroke-width="1.2" d="M92.06,-256C134.75,-256 199.1,-256 245.69,-256"/>
<polygon fill="black" stroke="black" stroke-width="1.2" points="245.93,-259.5 255.93,-256 245.93,-252.5 245.93,-259.5"/>
</g>
<!-- fail_comp1&#45;&gt;mnt_comp4 -->
<g id="edge15" class="edge">
<title>fail_comp1&#45;&gt;mnt_comp4</title>
<path fill="none" stroke="black" stroke-width="1.2" d="M92.09,-265.84C152.03,-277.57 261.18,-294.26 354,-283 414.89,-275.61 434.75,-280.44 488,-250 514.2,-235.02 537.6,-209.53 553.01,-190.17"/>
<polygon fill="black" stroke="black" stroke-width="1.2" points="555.95,-192.09 559.31,-182.04 550.42,-187.8 555.95,-192.09"/>
</g>
<!-- fail_comp2 -->
<g id="node15" class="node">
<title>fail_comp2</title>
<path fill="white" stroke="black" d="M208,-228C208,-228 140,-228 140,-228 134,-228 128,-222 128,-216 128,-216 128,-204 128,-204 128,-198 134,-192 140,-192 140,-192 208,-192 208,-192 214,-192 220,-198 220,-204 220,-204 220,-216 220,-216 220,-222 214,-228 208,-228"/>
<text text-anchor="middle" x="174" y="-206.3" font-family="Helvetica,sans-Serif" font-size="14.00">fail_comp2</text>
</g>
<!-- fail_comp1&#45;&gt;fail_comp2 -->
<g id="edge18" class="edge">
<title>fail_comp1&#45;&gt;fail_comp2</title>
<path fill="none" stroke="black" stroke-width="1.2" d="M92.13,-239.52C100.55,-236.45 109.42,-233.21 118.09,-230.04"/>
<polygon fill="black" stroke="black" stroke-width="1.2" points="119.57,-233.23 127.76,-226.52 117.16,-226.66 119.57,-233.23"/>
</g>
<!-- fail_comp2&#45;&gt;mnt_comp1 -->
<g id="edge8" class="edge">
<title>fail_comp2&#45;&gt;mnt_comp1</title>
<path fill="none" stroke="black" stroke-width="1.2" d="M220.12,-226.09C228.46,-229.06 237.28,-232.21 245.94,-235.3"/>
<polygon fill="black" stroke="black" stroke-width="1.2" points="245.02,-238.68 255.62,-238.75 247.37,-232.09 245.02,-238.68"/>
</g>
<!-- fail_comp2&#45;&gt;mnt_comp2 -->
<g id="edge11" class="edge">
<title>fail_comp2&#45;&gt;mnt_comp2</title>
<path fill="none" stroke="black" stroke-width="1.2" d="M180.72,-191.9C191.41,-160.25 216.95,-94.02 256,-50 258.33,-47.37 260.92,-44.87 263.66,-42.49"/>
<polygon fill="black" stroke="black" stroke-width="1.2" points="265.98,-45.12 271.67,-36.18 261.65,-39.62 265.98,-45.12"/>
</g>
<!-- fail_comp2&#45;&gt;mnt_comp3 -->
<g id="edge13" class="edge">
<title>fail_comp2&#45;&gt;mnt_comp3</title>
<path fill="none" stroke="black" stroke-width="1.2" d="M180.68,-191.88C190.72,-163.18 214.57,-107.98 256,-83 292.73,-60.85 341.46,-57.92 379.26,-60.09"/>
<polygon fill="black" stroke="black" stroke-width="1.2" points="379.39,-63.6 389.61,-60.82 379.88,-56.62 379.39,-63.6"/>
</g>
<!-- fail_comp2&#45;&gt;mnt_comp4 -->
<g id="edge16" class="edge">
<title>fail_comp2&#45;&gt;mnt_comp4</title>
<path fill="none" stroke="black" stroke-width="1.2" d="M220.22,-210.1C281.42,-209.53 393.8,-205.96 488,-189 496.4,-187.49 505.14,-185.44 513.68,-183.16"/>
<polygon fill="black" stroke="black" stroke-width="1.2" points="514.89,-186.46 523.58,-180.4 513.01,-179.72 514.89,-186.46"/>
</g>
<!-- fail_comp3 -->
<g id="node16" class="node">
<title>fail_comp3</title>
<path fill="white" stroke="black" d="M339,-128C339,-128 271,-128 271,-128 265,-128 259,-122 259,-116 259,-116 259,-104 259,-104 259,-98 265,-92 271,-92 271,-92 339,-92 339,-92 345,-92 351,-98 351,-104 351,-104 351,-116 351,-116 351,-122 345,-128 339,-128"/>
<text text-anchor="middle" x="305" y="-106.3" font-family="Helvetica,sans-Serif" font-size="14.00">fail_comp3</text>
</g>
<!-- fail_comp3&#45;&gt;pressure -->
<g id="edge2" class="edge">
<title>fail_comp3&#45;&gt;pressure</title>
<path fill="none" stroke="black" stroke-width="1.2" d="M351.06,-127.75C363.79,-132.77 377.69,-138.24 390.56,-143.31"/>
<polygon fill="black" stroke="black" stroke-width="1.2" points="389.58,-146.69 400.17,-147.1 392.15,-140.18 389.58,-146.69"/>
</g>
<!-- fail_comp3&#45;&gt;mnt_comp3 -->
<g id="edge14" class="edge">
<title>fail_comp3&#45;&gt;mnt_comp3</title>
<path fill="none" stroke="black" stroke-width="1.2" d="M351.06,-95.66C360.47,-92.67 370.51,-89.47 380.31,-86.36"/>
<polygon fill="black" stroke="black" stroke-width="1.2" points="381.52,-89.64 389.99,-83.28 379.4,-82.97 381.52,-89.64"/>
</g>
<!-- fail_comp3&#45;&gt;mnt_comp4 -->
<g id="edge17" class="edge">
<title>fail_comp3&#45;&gt;mnt_comp4</title>
<path fill="none" stroke="black" stroke-width="1.2" d="M351.33,-113.74C388.43,-117.39 442.09,-124.03 488,-135 496.93,-137.13 506.24,-139.84 515.28,-142.74"/>
<polygon fill="black" stroke="black" stroke-width="1.2" points="514.35,-146.12 524.95,-145.94 516.56,-139.47 514.35,-146.12"/>
</g>
</g>
</svg>
