<?xml version="1.0" encoding="UTF-8" standalone="no"?>
<!DOCTYPE svg PUBLIC "-//W3C//DTD SVG 1.1//EN"
 "http://www.w3.org/Graphics/SVG/1.1/DTD/svg11.dtd">
<!-- Generated by graphviz version 2.50.0 (0)
 -->
<!-- Title: G Pages: 1 -->
<svg width="885pt" height="595pt"
 viewBox="0.00 0.00 885.00 595.49" xmlns="http://www.w3.org/2000/svg" xmlns:xlink="http://www.w3.org/1999/xlink">
<g id="graph0" class="graph" transform="scale(1 1) rotate(0) translate(4 591.49)">
<title>G</title>
<polygon fill="white" stroke="transparent" points="-4,4 -4,-591.49 881,-591.49 881,4 -4,4"/>
<text text-anchor="middle" x="438.5" y="-570.69" font-family="Times,serif" font-size="16.00">model=model1/varlingam_mixed.json [machine 35]</text>
<!-- volt -->
<g id="node1" class="node">
<title>volt</title>
<path fill="white" stroke="black" d="M61,-140C61,-140 31,-140 31,-140 25,-140 19,-134 19,-128 19,-128 19,-116 19,-116 19,-110 25,-104 31,-104 31,-104 61,-104 61,-104 67,-104 73,-110 73,-116 73,-116 73,-128 73,-128 73,-134 67,-140 61,-140"/>
<text text-anchor="middle" x="46" y="-118.3" font-family="Helvetica,sans-Serif" font-size="14.00">volt</text>
</g>
<!-- rotate -->
<g id="node2" class="node">
<title>rotate</title>
<path fill="white" stroke="black" d="M193.5,-393C193.5,-393 160.5,-393 160.5,-393 154.5,-393 148.5,-387 148.5,-381 148.5,-381 148.5,-369 148.5,-369 148.5,-363 154.5,-357 160.5,-357 160.5,-357 193.5,-357 193.5,-357 199.5,-357 205.5,-363 205.5,-369 205.5,-369 205.5,-381 205.5,-381 205.5,-387 199.5,-393 193.5,-393"/>
<text text-anchor="middle" x="177" y="-371.3" font-family="Helvetica,sans-Serif" font-size="14.00">rotate</text>
</g>
<!-- fail_comp4 -->
<g id="node17" class="node">
<title>fail_comp4</title>
<path fill="white" stroke="black" d="M342,-378C342,-378 274,-378 274,-378 268,-378 262,-372 262,-366 262,-366 262,-354 262,-354 262,-348 268,-342 274,-342 274,-342 342,-342 342,-342 348,-342 354,-348 354,-354 354,-354 354,-366 354,-366 354,-372 348,-378 342,-378"/>
<text text-anchor="middle" x="308" y="-356.3" font-family="Helvetica,sans-Serif" font-size="14.00">fail_comp4</text>
</g>
<!-- rotate&#45;&gt;fail_comp4 -->
<g id="edge1" class="edge">
<title>rotate&#45;&gt;fail_comp4</title>
<path fill="none" stroke="black" stroke-width="1.2" d="M205.67,-371.78C219.09,-370.22 235.72,-368.29 251.59,-366.44"/>
<polygon fill="black" stroke="black" stroke-width="1.2" points="252.34,-369.88 261.87,-365.25 251.53,-362.93 252.34,-369.88"/>
</g>
<!-- pressure -->
<g id="node3" class="node">
<title>pressure</title>
<path fill="white" stroke="black" d="M203.5,-194C203.5,-194 150.5,-194 150.5,-194 144.5,-194 138.5,-188 138.5,-182 138.5,-182 138.5,-170 138.5,-170 138.5,-164 144.5,-158 150.5,-158 150.5,-158 203.5,-158 203.5,-158 209.5,-158 215.5,-164 215.5,-170 215.5,-170 215.5,-182 215.5,-182 215.5,-188 209.5,-194 203.5,-194"/>
<text text-anchor="middle" x="177" y="-172.3" font-family="Helvetica,sans-Serif" font-size="14.00">pressure</text>
</g>
<!-- fail_comp3 -->
<g id="node16" class="node">
<title>fail_comp3</title>
<path fill="white" stroke="black" d="M342,-194C342,-194 274,-194 274,-194 268,-194 262,-188 262,-182 262,-182 262,-170 262,-170 262,-164 268,-158 274,-158 274,-158 342,-158 342,-158 348,-158 354,-164 354,-170 354,-170 354,-182 354,-182 354,-188 348,-194 342,-194"/>
<text text-anchor="middle" x="308" y="-172.3" font-family="Helvetica,sans-Serif" font-size="14.00">fail_comp3</text>
</g>
<!-- pressure&#45;&gt;fail_comp3 -->
<g id="edge2" class="edge">
<title>pressure&#45;&gt;fail_comp3</title>
<path fill="none" stroke="black" stroke-width="1.2" d="M215.66,-176C226.93,-176 239.53,-176 251.69,-176"/>
<polygon fill="black" stroke="black" stroke-width="1.2" points="251.76,-179.5 261.76,-176 251.76,-172.5 251.76,-179.5"/>
</g>
<!-- vibration -->
<g id="node4" class="node">
<title>vibration</title>
<path fill="white" stroke="black" d="M466,-492C466,-492 412,-492 412,-492 406,-492 400,-486 400,-480 400,-480 400,-468 400,-468 400,-462 406,-456 412,-456 412,-456 466,-456 466,-456 472,-456 478,-462 478,-468 478,-468 478,-480 478,-480 478,-486 472,-492 466,-492"/>
<text text-anchor="middle" x="439" y="-470.3" font-family="Helvetica,sans-Serif" font-size="14.00">vibration</text>
</g>
<!-- err_error1 -->
<g id="node5" class="node">
<title>err_error1</title>
<path fill="white" stroke="black" d="M865,-392C865,-392 804,-392 804,-392 798,-392 792,-386 792,-380 792,-380 792,-368 792,-368 792,-362 798,-356 804,-356 804,-356 865,-356 865,-356 871,-356 877,-362 877,-368 877,-368 877,-380 877,-380 877,-386 871,-392 865,-392"/>
<text text-anchor="middle" x="834.5" y="-370.3" font-family="Helvetica,sans-Serif" font-size="14.00">err_error1</text>
</g>
<!-- err_error2 -->
<g id="node6" class="node">
<title>err_error2</title>
<path fill="white" stroke="black" d="M207.5,-447C207.5,-447 146.5,-447 146.5,-447 140.5,-447 134.5,-441 134.5,-435 134.5,-435 134.5,-423 134.5,-423 134.5,-417 140.5,-411 146.5,-411 146.5,-411 207.5,-411 207.5,-411 213.5,-411 219.5,-417 219.5,-423 219.5,-423 219.5,-435 219.5,-435 219.5,-441 213.5,-447 207.5,-447"/>
<text text-anchor="middle" x="177" y="-425.3" font-family="Helvetica,sans-Serif" font-size="14.00">err_error2</text>
</g>
<!-- err_error3 -->
<g id="node7" class="node">
<title>err_error3</title>
<path fill="white" stroke="black" d="M76.5,-447C76.5,-447 15.5,-447 15.5,-447 9.5,-447 3.5,-441 3.5,-435 3.5,-435 3.5,-423 3.5,-423 3.5,-417 9.5,-411 15.5,-411 15.5,-411 76.5,-411 76.5,-411 82.5,-411 88.5,-417 88.5,-423 88.5,-423 88.5,-435 88.5,-435 88.5,-441 82.5,-447 76.5,-447"/>
<text text-anchor="middle" x="46" y="-425.3" font-family="Helvetica,sans-Serif" font-size="14.00">err_error3</text>
</g>
<!-- err_error3&#45;&gt;err_error2 -->
<g id="edge11" class="edge">
<title>err_error3&#45;&gt;err_error2</title>
<path fill="none" stroke="black" stroke-width="1.2" d="M88.53,-429C99.81,-429 112.16,-429 123.95,-429"/>
<polygon fill="black" stroke="black" stroke-width="1.2" points="124.11,-432.5 134.11,-429 124.11,-425.5 124.11,-432.5"/>
</g>
<!-- err_error4 -->
<g id="node8" class="node">
<title>err_error4</title>
<path fill="white" stroke="black" d="M469.5,-362C469.5,-362 408.5,-362 408.5,-362 402.5,-362 396.5,-356 396.5,-350 396.5,-350 396.5,-338 396.5,-338 396.5,-332 402.5,-326 408.5,-326 408.5,-326 469.5,-326 469.5,-326 475.5,-326 481.5,-332 481.5,-338 481.5,-338 481.5,-350 481.5,-350 481.5,-356 475.5,-362 469.5,-362"/>
<text text-anchor="middle" x="439" y="-340.3" font-family="Helvetica,sans-Serif" font-size="14.00">err_error4</text>
</g>
<!-- err_error5 -->
<g id="node9" class="node">
<title>err_error5</title>
<path fill="white" stroke="black" d="M338.5,-511C338.5,-511 277.5,-511 277.5,-511 271.5,-511 265.5,-505 265.5,-499 265.5,-499 265.5,-487 265.5,-487 265.5,-481 271.5,-475 277.5,-475 277.5,-475 338.5,-475 338.5,-475 344.5,-475 350.5,-481 350.5,-487 350.5,-487 350.5,-499 350.5,-499 350.5,-505 344.5,-511 338.5,-511"/>
<text text-anchor="middle" x="308" y="-489.3" font-family="Helvetica,sans-Serif" font-size="14.00">err_error5</text>
</g>
<!-- err_error5&#45;&gt;vibration -->
<g id="edge3" class="edge">
<title>err_error5&#45;&gt;vibration</title>
<path fill="none" stroke="black" stroke-width="1.2" d="M350.53,-486.88C362.96,-485.05 376.71,-483.03 389.55,-481.14"/>
<polygon fill="black" stroke="black" stroke-width="1.2" points="390.23,-484.57 399.62,-479.65 389.21,-477.65 390.23,-484.57"/>
</g>
<!-- err_error5&#45;&gt;err_error1 -->
<g id="edge5" class="edge">
<title>err_error5&#45;&gt;err_error1</title>
<path fill="none" stroke="black" stroke-width="1.2" d="M350.56,-499.89C387.04,-504.75 441.41,-509.09 488,-501 600.52,-481.45 724.32,-427.31 788.81,-396.39"/>
<polygon fill="black" stroke="black" stroke-width="1.2" points="790.4,-399.51 797.88,-392.01 787.36,-393.21 790.4,-399.51"/>
</g>
<!-- mnt_comp1 -->
<g id="node10" class="node">
<title>mnt_comp1</title>
<path fill="white" stroke="black" d="M214,-301C214,-301 140,-301 140,-301 134,-301 128,-295 128,-289 128,-289 128,-277 128,-277 128,-271 134,-265 140,-265 140,-265 214,-265 214,-265 220,-265 226,-271 226,-277 226,-277 226,-289 226,-289 226,-295 220,-301 214,-301"/>
<text text-anchor="middle" x="177" y="-279.3" font-family="Helvetica,sans-Serif" font-size="14.00">mnt_comp1</text>
</g>
<!-- mnt_comp1&#45;&gt;err_error1 -->
<g id="edge6" class="edge">
<title>mnt_comp1&#45;&gt;err_error1</title>
<path fill="none" stroke="black" stroke-width="1.2" d="M194.84,-301.25C205.33,-313.59 218.26,-330.72 226,-348 257.93,-419.27 206.95,-464.6 262,-520 318.41,-576.76 357.98,-558 438,-558 438,-558 438,-558 574,-558 681.55,-558 775.63,-451.53 814.51,-400.57"/>
<polygon fill="black" stroke="black" stroke-width="1.2" points="817.5,-402.42 820.69,-392.32 811.89,-398.22 817.5,-402.42"/>
</g>
<!-- mnt_comp2 -->
<g id="node11" class="node">
<title>mnt_comp2</title>
<path fill="white" stroke="black" d="M610,-178C610,-178 536,-178 536,-178 530,-178 524,-172 524,-166 524,-166 524,-154 524,-154 524,-148 530,-142 536,-142 536,-142 610,-142 610,-142 616,-142 622,-148 622,-154 622,-154 622,-166 622,-166 622,-172 616,-178 610,-178"/>
<text text-anchor="middle" x="573" y="-156.3" font-family="Helvetica,sans-Serif" font-size="14.00">mnt_comp2</text>
</g>
<!-- mnt_comp1&#45;&gt;mnt_comp2 -->
<g id="edge13" class="edge">
<title>mnt_comp1&#45;&gt;mnt_comp2</title>
<path fill="none" stroke="black" stroke-width="1.2" d="M226.31,-267.92C299.03,-245.22 436.36,-202.35 514.25,-178.03"/>
<polygon fill="black" stroke="black" stroke-width="1.2" points="515.41,-181.33 523.91,-175.01 513.32,-174.65 515.41,-181.33"/>
</g>
<!-- mnt_comp3 -->
<g id="node12" class="node">
<title>mnt_comp3</title>
<path fill="white" stroke="black" d="M476,-308C476,-308 402,-308 402,-308 396,-308 390,-302 390,-296 390,-296 390,-284 390,-284 390,-278 396,-272 402,-272 402,-272 476,-272 476,-272 482,-272 488,-278 488,-284 488,-284 488,-296 488,-296 488,-302 482,-308 476,-308"/>
<text text-anchor="middle" x="439" y="-286.3" font-family="Helvetica,sans-Serif" font-size="14.00">mnt_comp3</text>
</g>
<!-- mnt_comp1&#45;&gt;mnt_comp3 -->
<g id="edge14" class="edge">
<title>mnt_comp1&#45;&gt;mnt_comp3</title>
<path fill="none" stroke="black" stroke-width="1.2" d="M226.29,-284.3C269.71,-285.47 333.57,-287.19 379.8,-288.43"/>
<polygon fill="black" stroke="black" stroke-width="1.2" points="379.87,-291.94 389.96,-288.71 380.06,-284.94 379.87,-291.94"/>
</g>
<!-- mnt_comp1&#45;&gt;fail_comp4 -->
<g id="edge16" class="edge">
<title>mnt_comp1&#45;&gt;fail_comp4</title>
<path fill="none" stroke="black" stroke-width="1.2" d="M208.24,-301.05C225.99,-311.64 248.6,-325.14 267.71,-336.55"/>
<polygon fill="black" stroke="black" stroke-width="1.2" points="266.12,-339.67 276.5,-341.79 269.7,-333.66 266.12,-339.67"/>
</g>
<!-- mnt_comp4 -->
<g id="node13" class="node">
<title>mnt_comp4</title>
<path fill="white" stroke="black" d="M744,-224C744,-224 670,-224 670,-224 664,-224 658,-218 658,-212 658,-212 658,-200 658,-200 658,-194 664,-188 670,-188 670,-188 744,-188 744,-188 750,-188 756,-194 756,-200 756,-200 756,-212 756,-212 756,-218 750,-224 744,-224"/>
<text text-anchor="middle" x="707" y="-202.3" font-family="Helvetica,sans-Serif" font-size="14.00">mnt_comp4</text>
</g>
<!-- mnt_comp2&#45;&gt;mnt_comp4 -->
<g id="edge18" class="edge">
<title>mnt_comp2&#45;&gt;mnt_comp4</title>
<path fill="none" stroke="black" stroke-width="1.2" d="M622.03,-176.74C630.49,-179.69 639.38,-182.78 648.08,-185.82"/>
<polygon fill="black" stroke="black" stroke-width="1.2" points="647.19,-189.21 657.79,-189.2 649.49,-182.6 647.19,-189.21"/>
</g>
<!-- mnt_comp3&#45;&gt;err_error1 -->
<g id="edge7" class="edge">
<title>mnt_comp3&#45;&gt;err_error1</title>
<path fill="none" stroke="black" stroke-width="1.2" d="M488.25,-300.3C562.79,-316.21 705.3,-346.63 781.85,-362.97"/>
<polygon fill="black" stroke="black" stroke-width="1.2" points="781.24,-366.42 791.75,-365.09 782.7,-359.58 781.24,-366.42"/>
</g>
<!-- mnt_comp3&#45;&gt;mnt_comp2 -->
<g id="edge17" class="edge">
<title>mnt_comp3&#45;&gt;mnt_comp2</title>
<path fill="none" stroke="black" stroke-width="1.2" d="M469.88,-271.93C476.1,-267.66 482.45,-262.92 488,-258 512.62,-236.19 536.62,-207.17 552.62,-186.38"/>
<polygon fill="black" stroke="black" stroke-width="1.2" points="555.5,-188.38 558.76,-178.3 549.92,-184.15 555.5,-188.38"/>
</g>
<!-- mnt_comp3&#45;&gt;mnt_comp4 -->
<g id="edge22" class="edge">
<title>mnt_comp3&#45;&gt;mnt_comp4</title>
<path fill="none" stroke="black" stroke-width="1.2" d="M488.17,-274.79C533.13,-260.59 600.29,-239.38 648.14,-224.27"/>
<polygon fill="black" stroke="black" stroke-width="1.2" points="649.26,-227.59 657.74,-221.24 647.15,-220.91 649.26,-227.59"/>
</g>
<!-- mnt_comp4&#45;&gt;err_error1 -->
<g id="edge8" class="edge">
<title>mnt_comp4&#45;&gt;err_error1</title>
<path fill="none" stroke="black" stroke-width="1.2" d="M721.67,-224.3C743.98,-254.17 788.31,-313.51 813.95,-347.83"/>
<polygon fill="black" stroke="black" stroke-width="1.2" points="811.25,-350.06 820.04,-355.98 816.86,-345.87 811.25,-350.06"/>
</g>
<!-- fail_comp1 -->
<g id="node14" class="node">
<title>fail_comp1</title>
<path fill="white" stroke="black" d="M80,-194C80,-194 12,-194 12,-194 6,-194 0,-188 0,-182 0,-182 0,-170 0,-170 0,-164 6,-158 12,-158 12,-158 80,-158 80,-158 86,-158 92,-164 92,-170 92,-170 92,-182 92,-182 92,-188 86,-194 80,-194"/>
<text text-anchor="middle" x="46" y="-172.3" font-family="Helvetica,sans-Serif" font-size="14.00">fail_comp1</text>
</g>
<!-- fail_comp1&#45;&gt;err_error1 -->
<g id="edge9" class="edge">
<title>fail_comp1&#45;&gt;err_error1</title>
<path fill="none" stroke="black" stroke-width="1.2" d="M82.05,-157.92C85.66,-155.23 89.07,-152.25 92,-149 117.3,-120.95 100.56,-97.97 128,-72 190.28,-13.05 221.25,0 307,0 307,0 307,0 574,0 742.42,0 810.27,-259.18 828.27,-346.03"/>
<polygon fill="black" stroke="black" stroke-width="1.2" points="824.87,-346.85 830.27,-355.96 831.73,-345.47 824.87,-346.85"/>
</g>
<!-- fail_comp1&#45;&gt;mnt_comp1 -->
<g id="edge15" class="edge">
<title>fail_comp1&#45;&gt;mnt_comp1</title>
<path fill="none" stroke="black" stroke-width="1.2" d="M68.88,-194.15C90.1,-211.75 122.46,-238.59 146.06,-258.17"/>
<polygon fill="black" stroke="black" stroke-width="1.2" points="144.08,-261.07 154.01,-264.76 148.55,-255.68 144.08,-261.07"/>
</g>
<!-- fail_comp1&#45;&gt;mnt_comp2 -->
<g id="edge19" class="edge">
<title>fail_comp1&#45;&gt;mnt_comp2</title>
<path fill="none" stroke="black" stroke-width="1.2" d="M92.19,-158.09C103.69,-154.33 116.15,-150.92 128,-149 264.95,-126.78 428.73,-141.23 513.97,-151.78"/>
<polygon fill="black" stroke="black" stroke-width="1.2" points="513.61,-155.26 523.97,-153.04 514.49,-148.31 513.61,-155.26"/>
</g>
<!-- fail_comp1&#45;&gt;mnt_comp3 -->
<g id="edge23" class="edge">
<title>fail_comp1&#45;&gt;mnt_comp3</title>
<path fill="none" stroke="black" stroke-width="1.2" d="M92.29,-191.52C103.89,-195.38 116.38,-199.43 128,-203 215.5,-229.85 317.89,-257.94 380.33,-274.71"/>
<polygon fill="black" stroke="black" stroke-width="1.2" points="379.43,-278.09 390,-277.3 381.24,-271.33 379.43,-278.09"/>
</g>
<!-- fail_comp1&#45;&gt;mnt_comp4 -->
<g id="edge26" class="edge">
<title>fail_comp1&#45;&gt;mnt_comp4</title>
<path fill="none" stroke="black" stroke-width="1.2" d="M77.1,-157.96C140,-120.55 281.7,-38 307,-38 307,-38 307,-38 440,-38 524.76,-38 552.68,-46.22 622,-95 653.02,-116.83 677.58,-153.61 691.94,-178.81"/>
<polygon fill="black" stroke="black" stroke-width="1.2" points="689.03,-180.79 696.93,-187.85 695.16,-177.4 689.03,-180.79"/>
</g>
<!-- fail_comp1&#45;&gt;fail_comp4 -->
<g id="edge30" class="edge">
<title>fail_comp1&#45;&gt;fail_comp4</title>
<path fill="none" stroke="black" stroke-width="1.2" d="M53,-194.18C63.49,-223.14 87.96,-279.58 128,-310 147.47,-324.79 206.61,-339.59 251.63,-349.21"/>
<polygon fill="black" stroke="black" stroke-width="1.2" points="251.08,-352.67 261.58,-351.3 252.52,-345.82 251.08,-352.67"/>
</g>
<!-- fail_comp2 -->
<g id="node15" class="node">
<title>fail_comp2</title>
<path fill="white" stroke="black" d="M473,-102C473,-102 405,-102 405,-102 399,-102 393,-96 393,-90 393,-90 393,-78 393,-78 393,-72 399,-66 405,-66 405,-66 473,-66 473,-66 479,-66 485,-72 485,-78 485,-78 485,-90 485,-90 485,-96 479,-102 473,-102"/>
<text text-anchor="middle" x="439" y="-80.3" font-family="Helvetica,sans-Serif" font-size="14.00">fail_comp2</text>
</g>
<!-- fail_comp2&#45;&gt;mnt_comp2 -->
<g id="edge20" class="edge">
<title>fail_comp2&#45;&gt;mnt_comp2</title>
<path fill="none" stroke="black" stroke-width="1.2" d="M471.28,-102.01C489.32,-112.39 512.18,-125.56 531.57,-136.72"/>
<polygon fill="black" stroke="black" stroke-width="1.2" points="530.07,-139.9 540.48,-141.85 533.57,-133.83 530.07,-139.9"/>
</g>
<!-- fail_comp2&#45;&gt;mnt_comp4 -->
<g id="edge27" class="edge">
<title>fail_comp2&#45;&gt;mnt_comp4</title>
<path fill="none" stroke="black" stroke-width="1.2" d="M485.1,-90.32C523.27,-96.99 578.53,-109.86 622,-133 644.86,-145.17 666.82,-164.62 682.54,-180.38"/>
<polygon fill="black" stroke="black" stroke-width="1.2" points="680.26,-183.05 689.74,-187.77 685.27,-178.16 680.26,-183.05"/>
</g>
<!-- fail_comp3&#45;&gt;mnt_comp2 -->
<g id="edge21" class="edge">
<title>fail_comp3&#45;&gt;mnt_comp2</title>
<path fill="none" stroke="black" stroke-width="1.2" d="M354.21,-173.25C398.27,-170.57 465.46,-166.48 513.56,-163.56"/>
<polygon fill="black" stroke="black" stroke-width="1.2" points="514.05,-167.03 523.82,-162.93 513.63,-160.04 514.05,-167.03"/>
</g>
<!-- fail_comp3&#45;&gt;mnt_comp3 -->
<g id="edge24" class="edge">
<title>fail_comp3&#45;&gt;mnt_comp3</title>
<path fill="none" stroke="black" stroke-width="1.2" d="M336.16,-194.29C342.17,-198.61 348.41,-203.33 354,-208 375.3,-225.78 397.7,-247.85 414.01,-264.6"/>
<polygon fill="black" stroke="black" stroke-width="1.2" points="411.58,-267.13 421.05,-271.9 416.62,-262.27 411.58,-267.13"/>
</g>
<!-- fail_comp3&#45;&gt;mnt_comp4 -->
<g id="edge28" class="edge">
<title>fail_comp3&#45;&gt;mnt_comp4</title>
<path fill="none" stroke="black" stroke-width="1.2" d="M354.15,-179.41C426.31,-184.86 567.6,-195.54 647.43,-201.57"/>
<polygon fill="black" stroke="black" stroke-width="1.2" points="647.56,-205.09 657.8,-202.36 648.09,-198.11 647.56,-205.09"/>
</g>
<!-- fail_comp4&#45;&gt;vibration -->
<g id="edge4" class="edge">
<title>fail_comp4&#45;&gt;vibration</title>
<path fill="none" stroke="black" stroke-width="1.2" d="M324.8,-378C340.47,-395.36 365.61,-421.88 390,-442 393.3,-444.72 396.84,-447.43 400.44,-450.05"/>
<polygon fill="black" stroke="black" stroke-width="1.2" points="398.69,-453.1 408.89,-455.97 402.71,-447.36 398.69,-453.1"/>
</g>
<!-- fail_comp4&#45;&gt;err_error1 -->
<g id="edge10" class="edge">
<title>fail_comp4&#45;&gt;err_error1</title>
<path fill="none" stroke="black" stroke-width="1.2" d="M350.72,-378.02C363.12,-382.53 376.9,-386.73 390,-389 530.08,-413.32 698.68,-394.78 781.88,-382.54"/>
<polygon fill="black" stroke="black" stroke-width="1.2" points="782.47,-385.99 791.84,-381.04 781.43,-379.07 782.47,-385.99"/>
</g>
<!-- fail_comp4&#45;&gt;err_error4 -->
<g id="edge12" class="edge">
<title>fail_comp4&#45;&gt;err_error4</title>
<path fill="none" stroke="black" stroke-width="1.2" d="M354.12,-354.4C364.47,-353.12 375.55,-351.75 386.16,-350.43"/>
<polygon fill="black" stroke="black" stroke-width="1.2" points="386.66,-353.89 396.15,-349.19 385.8,-346.95 386.66,-353.89"/>
</g>
<!-- fail_comp4&#45;&gt;mnt_comp3 -->
<g id="edge25" class="edge">
<title>fail_comp4&#45;&gt;mnt_comp3</title>
<path fill="none" stroke="black" stroke-width="1.2" d="M342.22,-341.97C358.49,-333.14 378.27,-322.41 395.62,-312.99"/>
<polygon fill="black" stroke="black" stroke-width="1.2" points="397.32,-316.05 404.44,-308.21 393.98,-309.9 397.32,-316.05"/>
</g>
<!-- fail_comp4&#45;&gt;mnt_comp4 -->
<g id="edge29" class="edge">
<title>fail_comp4&#45;&gt;mnt_comp4</title>
<path fill="none" stroke="black" stroke-width="1.2" d="M354.37,-372.05C391.32,-379.7 444.32,-385.67 488,-371 570.34,-343.35 646.35,-270.93 683.01,-231.86"/>
<polygon fill="black" stroke="black" stroke-width="1.2" points="686,-233.78 690.22,-224.06 680.86,-229.03 686,-233.78"/>
</g>
</g>
</svg>
