<?xml version="1.0" encoding="UTF-8" standalone="no"?>
<!DOCTYPE svg PUBLIC "-//W3C//DTD SVG 1.1//EN"
 "http://www.w3.org/Graphics/SVG/1.1/DTD/svg11.dtd">
<!-- Generated by graphviz version 2.50.0 (0)
 -->
<!-- Title: G Pages: 1 -->
<svg width="495pt" height="394pt"
 viewBox="0.00 0.00 495.00 394.00" xmlns="http://www.w3.org/2000/svg" xmlns:xlink="http://www.w3.org/1999/xlink">
<g id="graph0" class="graph" transform="scale(1 1) rotate(0) translate(4 390)">
<title>G</title>
<polygon fill="white" stroke="transparent" points="-4,4 -4,-390 491,-390 491,4 -4,4"/>
<text text-anchor="middle" x="243.5" y="-369.2" font-family="Times,serif" font-size="16.00">model=model2/varlingam_mixed.json [machine 54]</text>
<!-- volt -->
<g id="node1" class="node">
<title>volt</title>
<path fill="white" stroke="black" d="M57.5,-36C57.5,-36 27.5,-36 27.5,-36 21.5,-36 15.5,-30 15.5,-24 15.5,-24 15.5,-12 15.5,-12 15.5,-6 21.5,0 27.5,0 27.5,0 57.5,0 57.5,0 63.5,0 69.5,-6 69.5,-12 69.5,-12 69.5,-24 69.5,-24 69.5,-30 63.5,-36 57.5,-36"/>
<text text-anchor="middle" x="42.5" y="-14.3" font-family="Helvetica,sans-Serif" font-size="14.00">volt</text>
</g>
<!-- rotate -->
<g id="node2" class="node">
<title>rotate</title>
<path fill="white" stroke="black" d="M454.5,-244C454.5,-244 421.5,-244 421.5,-244 415.5,-244 409.5,-238 409.5,-232 409.5,-232 409.5,-220 409.5,-220 409.5,-214 415.5,-208 421.5,-208 421.5,-208 454.5,-208 454.5,-208 460.5,-208 466.5,-214 466.5,-220 466.5,-220 466.5,-232 466.5,-232 466.5,-238 460.5,-244 454.5,-244"/>
<text text-anchor="middle" x="438" y="-222.3" font-family="Helvetica,sans-Serif" font-size="14.00">rotate</text>
</g>
<!-- pressure -->
<g id="node3" class="node">
<title>pressure</title>
<path fill="white" stroke="black" d="M69,-90C69,-90 16,-90 16,-90 10,-90 4,-84 4,-78 4,-78 4,-66 4,-66 4,-60 10,-54 16,-54 16,-54 69,-54 69,-54 75,-54 81,-60 81,-66 81,-66 81,-78 81,-78 81,-84 75,-90 69,-90"/>
<text text-anchor="middle" x="42.5" y="-68.3" font-family="Helvetica,sans-Serif" font-size="14.00">pressure</text>
</g>
<!-- fail_comp3 -->
<g id="node15" class="node">
<title>fail_comp3</title>
<path fill="white" stroke="black" d="M204,-90C204,-90 136,-90 136,-90 130,-90 124,-84 124,-78 124,-78 124,-66 124,-66 124,-60 130,-54 136,-54 136,-54 204,-54 204,-54 210,-54 216,-60 216,-66 216,-66 216,-78 216,-78 216,-84 210,-90 204,-90"/>
<text text-anchor="middle" x="170" y="-68.3" font-family="Helvetica,sans-Serif" font-size="14.00">fail_comp3</text>
</g>
<!-- pressure&#45;&gt;fail_comp3 -->
<g id="edge2" class="edge">
<title>pressure&#45;&gt;fail_comp3</title>
<path fill="none" stroke="black" stroke-width="1.2" d="M81.15,-72C91.44,-72 102.79,-72 113.83,-72"/>
<polygon fill="black" stroke="black" stroke-width="1.2" points="113.84,-75.5 123.84,-72 113.84,-68.5 113.84,-75.5"/>
</g>
<!-- vibration -->
<g id="node4" class="node">
<title>vibration</title>
<path fill="white" stroke="black" d="M69.5,-144C69.5,-144 15.5,-144 15.5,-144 9.5,-144 3.5,-138 3.5,-132 3.5,-132 3.5,-120 3.5,-120 3.5,-114 9.5,-108 15.5,-108 15.5,-108 69.5,-108 69.5,-108 75.5,-108 81.5,-114 81.5,-120 81.5,-120 81.5,-132 81.5,-132 81.5,-138 75.5,-144 69.5,-144"/>
<text text-anchor="middle" x="42.5" y="-122.3" font-family="Helvetica,sans-Serif" font-size="14.00">vibration</text>
</g>
<!-- err_error1 -->
<g id="node5" class="node">
<title>err_error1</title>
<path fill="white" stroke="black" d="M73,-198C73,-198 12,-198 12,-198 6,-198 0,-192 0,-186 0,-186 0,-174 0,-174 0,-168 6,-162 12,-162 12,-162 73,-162 73,-162 79,-162 85,-168 85,-174 85,-174 85,-186 85,-186 85,-192 79,-198 73,-198"/>
<text text-anchor="middle" x="42.5" y="-176.3" font-family="Helvetica,sans-Serif" font-size="14.00">err_error1</text>
</g>
<!-- err_error2 -->
<g id="node6" class="node">
<title>err_error2</title>
<path fill="white" stroke="black" d="M200.5,-252C200.5,-252 139.5,-252 139.5,-252 133.5,-252 127.5,-246 127.5,-240 127.5,-240 127.5,-228 127.5,-228 127.5,-222 133.5,-216 139.5,-216 139.5,-216 200.5,-216 200.5,-216 206.5,-216 212.5,-222 212.5,-228 212.5,-228 212.5,-240 212.5,-240 212.5,-246 206.5,-252 200.5,-252"/>
<text text-anchor="middle" x="170" y="-230.3" font-family="Helvetica,sans-Serif" font-size="14.00">err_error2</text>
</g>
<!-- err_error3 -->
<g id="node7" class="node">
<title>err_error3</title>
<path fill="white" stroke="black" d="M73,-252C73,-252 12,-252 12,-252 6,-252 0,-246 0,-240 0,-240 0,-228 0,-228 0,-222 6,-216 12,-216 12,-216 73,-216 73,-216 79,-216 85,-222 85,-228 85,-228 85,-240 85,-240 85,-246 79,-252 73,-252"/>
<text text-anchor="middle" x="42.5" y="-230.3" font-family="Helvetica,sans-Serif" font-size="14.00">err_error3</text>
</g>
<!-- err_error3&#45;&gt;err_error2 -->
<g id="edge3" class="edge">
<title>err_error3&#45;&gt;err_error2</title>
<path fill="none" stroke="black" stroke-width="1.2" d="M85.29,-234C95.56,-234 106.67,-234 117.34,-234"/>
<polygon fill="black" stroke="black" stroke-width="1.2" points="117.39,-237.5 127.39,-234 117.39,-230.5 117.39,-237.5"/>
</g>
<!-- err_error4 -->
<g id="node8" class="node">
<title>err_error4</title>
<path fill="white" stroke="black" d="M73,-306C73,-306 12,-306 12,-306 6,-306 0,-300 0,-294 0,-294 0,-282 0,-282 0,-276 6,-270 12,-270 12,-270 73,-270 73,-270 79,-270 85,-276 85,-282 85,-282 85,-294 85,-294 85,-300 79,-306 73,-306"/>
<text text-anchor="middle" x="42.5" y="-284.3" font-family="Helvetica,sans-Serif" font-size="14.00">err_error4</text>
</g>
<!-- err_error5 -->
<g id="node9" class="node">
<title>err_error5</title>
<path fill="white" stroke="black" d="M73,-360C73,-360 12,-360 12,-360 6,-360 0,-354 0,-348 0,-348 0,-336 0,-336 0,-330 6,-324 12,-324 12,-324 73,-324 73,-324 79,-324 85,-330 85,-336 85,-336 85,-348 85,-348 85,-354 79,-360 73,-360"/>
<text text-anchor="middle" x="42.5" y="-338.3" font-family="Helvetica,sans-Serif" font-size="14.00">err_error5</text>
</g>
<!-- mnt_comp1 -->
<g id="node10" class="node">
<title>mnt_comp1</title>
<path fill="white" stroke="black" d="M341,-190C341,-190 267,-190 267,-190 261,-190 255,-184 255,-178 255,-178 255,-166 255,-166 255,-160 261,-154 267,-154 267,-154 341,-154 341,-154 347,-154 353,-160 353,-166 353,-166 353,-178 353,-178 353,-184 347,-190 341,-190"/>
<text text-anchor="middle" x="304" y="-168.3" font-family="Helvetica,sans-Serif" font-size="14.00">mnt_comp1</text>
</g>
<!-- mnt_comp2 -->
<g id="node11" class="node">
<title>mnt_comp2</title>
<path fill="white" stroke="black" d="M475,-167C475,-167 401,-167 401,-167 395,-167 389,-161 389,-155 389,-155 389,-143 389,-143 389,-137 395,-131 401,-131 401,-131 475,-131 475,-131 481,-131 487,-137 487,-143 487,-143 487,-155 487,-155 487,-161 481,-167 475,-167"/>
<text text-anchor="middle" x="438" y="-145.3" font-family="Helvetica,sans-Serif" font-size="14.00">mnt_comp2</text>
</g>
<!-- mnt_comp1&#45;&gt;mnt_comp2 -->
<g id="edge4" class="edge">
<title>mnt_comp1&#45;&gt;mnt_comp2</title>
<path fill="none" stroke="black" stroke-width="1.2" d="M353.03,-163.63C361.4,-162.17 370.19,-160.64 378.8,-159.14"/>
<polygon fill="black" stroke="black" stroke-width="1.2" points="379.54,-162.57 388.79,-157.4 378.33,-155.67 379.54,-162.57"/>
</g>
<!-- mnt_comp3 -->
<g id="node12" class="node">
<title>mnt_comp3</title>
<path fill="white" stroke="black" d="M341,-98C341,-98 267,-98 267,-98 261,-98 255,-92 255,-86 255,-86 255,-74 255,-74 255,-68 261,-62 267,-62 267,-62 341,-62 341,-62 347,-62 353,-68 353,-74 353,-74 353,-86 353,-86 353,-92 347,-98 341,-98"/>
<text text-anchor="middle" x="304" y="-76.3" font-family="Helvetica,sans-Serif" font-size="14.00">mnt_comp3</text>
</g>
<!-- mnt_comp3&#45;&gt;mnt_comp2 -->
<g id="edge5" class="edge">
<title>mnt_comp3&#45;&gt;mnt_comp2</title>
<path fill="none" stroke="black" stroke-width="1.2" d="M339.68,-98.13C356.2,-106.77 376.13,-117.18 393.64,-126.34"/>
<polygon fill="black" stroke="black" stroke-width="1.2" points="392.07,-129.46 402.55,-130.99 395.31,-123.26 392.07,-129.46"/>
</g>
<!-- mnt_comp4 -->
<g id="node13" class="node">
<title>mnt_comp4</title>
<path fill="white" stroke="black" d="M207,-144C207,-144 133,-144 133,-144 127,-144 121,-138 121,-132 121,-132 121,-120 121,-120 121,-114 127,-108 133,-108 133,-108 207,-108 207,-108 213,-108 219,-114 219,-120 219,-120 219,-132 219,-132 219,-138 213,-144 207,-144"/>
<text text-anchor="middle" x="170" y="-122.3" font-family="Helvetica,sans-Serif" font-size="14.00">mnt_comp4</text>
</g>
<!-- mnt_comp4&#45;&gt;mnt_comp2 -->
<g id="edge6" class="edge">
<title>mnt_comp4&#45;&gt;mnt_comp2</title>
<path fill="none" stroke="black" stroke-width="1.2" d="M219.17,-130.17C263.94,-134.04 330.73,-139.81 378.54,-143.95"/>
<polygon fill="black" stroke="black" stroke-width="1.2" points="378.47,-147.45 388.74,-144.83 379.08,-140.48 378.47,-147.45"/>
</g>
<!-- mnt_comp4&#45;&gt;mnt_comp3 -->
<g id="edge8" class="edge">
<title>mnt_comp4&#45;&gt;mnt_comp3</title>
<path fill="none" stroke="black" stroke-width="1.2" d="M219.03,-109.26C227.49,-106.31 236.38,-103.22 245.08,-100.18"/>
<polygon fill="black" stroke="black" stroke-width="1.2" points="246.49,-103.4 254.79,-96.8 244.19,-96.79 246.49,-103.4"/>
</g>
<!-- fail_comp2 -->
<g id="node14" class="node">
<title>fail_comp2</title>
<path fill="white" stroke="black" d="M338,-244C338,-244 270,-244 270,-244 264,-244 258,-238 258,-232 258,-232 258,-220 258,-220 258,-214 264,-208 270,-208 270,-208 338,-208 338,-208 344,-208 350,-214 350,-220 350,-220 350,-232 350,-232 350,-238 344,-244 338,-244"/>
<text text-anchor="middle" x="304" y="-222.3" font-family="Helvetica,sans-Serif" font-size="14.00">fail_comp2</text>
</g>
<!-- fail_comp2&#45;&gt;rotate -->
<g id="edge1" class="edge">
<title>fail_comp2&#45;&gt;rotate</title>
<path fill="none" stroke="black" stroke-width="1.2" d="M350.06,-226C366.08,-226 383.93,-226 399.28,-226"/>
<polygon fill="black" stroke="black" stroke-width="1.2" points="399.44,-229.5 409.44,-226 399.44,-222.5 399.44,-229.5"/>
</g>
<!-- fail_comp2&#45;&gt;mnt_comp2 -->
<g id="edge7" class="edge">
<title>fail_comp2&#45;&gt;mnt_comp2</title>
<path fill="none" stroke="black" stroke-width="1.2" d="M337.34,-207.95C342.58,-204.98 347.95,-201.92 353,-199 367.7,-190.49 383.74,-181 397.83,-172.58"/>
<polygon fill="black" stroke="black" stroke-width="1.2" points="399.99,-175.37 406.78,-167.23 396.4,-169.36 399.99,-175.37"/>
</g>
<!-- fail_comp3&#45;&gt;mnt_comp3 -->
<g id="edge9" class="edge">
<title>fail_comp3&#45;&gt;mnt_comp3</title>
<path fill="none" stroke="black" stroke-width="1.2" d="M216.06,-74.73C225.37,-75.3 235.3,-75.9 245,-76.48"/>
<polygon fill="black" stroke="black" stroke-width="1.2" points="244.8,-79.98 254.99,-77.09 245.22,-72.99 244.8,-79.98"/>
</g>
</g>
</svg>
