<?xml version="1.0" encoding="UTF-8" standalone="no"?>
<!DOCTYPE svg PUBLIC "-//W3C//DTD SVG 1.1//EN"
 "http://www.w3.org/Graphics/SVG/1.1/DTD/svg11.dtd">
<!-- Generated by graphviz version 2.50.0 (0)
 -->
<!-- Title: G Pages: 1 -->
<svg width="475pt" height="178pt"
 viewBox="0.00 0.00 475.00 178.00" xmlns="http://www.w3.org/2000/svg" xmlns:xlink="http://www.w3.org/1999/xlink">
<g id="graph0" class="graph" transform="scale(1 1) rotate(0) translate(4 174)">
<title>G</title>
<polygon fill="white" stroke="transparent" points="-4,4 -4,-174 471,-174 471,4 -4,4"/>
<text text-anchor="middle" x="233.5" y="-153.2" font-family="Times,serif" font-size="16.00">model=model4/varlingam_telemetry.json [machine 51]</text>
<!-- volt -->
<g id="node1" class="node">
<title>volt</title>
<path fill="white" stroke="black" d="M202,-90C202,-90 172,-90 172,-90 166,-90 160,-84 160,-78 160,-78 160,-66 160,-66 160,-60 166,-54 172,-54 172,-54 202,-54 202,-54 208,-54 214,-60 214,-66 214,-66 214,-78 214,-78 214,-84 208,-90 202,-90"/>
<text text-anchor="middle" x="187" y="-68.3" font-family="Helvetica,sans-Serif" font-size="14.00">volt</text>
</g>
<!-- rotate -->
<g id="node2" class="node">
<title>rotate</title>
<path fill="white" stroke="black" d="M307,-63C307,-63 274,-63 274,-63 268,-63 262,-57 262,-51 262,-51 262,-39 262,-39 262,-33 268,-27 274,-27 274,-27 307,-27 307,-27 313,-27 319,-33 319,-39 319,-39 319,-51 319,-51 319,-57 313,-63 307,-63"/>
<text text-anchor="middle" x="290.5" y="-41.3" font-family="Helvetica,sans-Serif" font-size="14.00">rotate</text>
</g>
<!-- volt&#45;&gt;rotate -->
<g id="edge1" class="edge">
<title>volt&#45;&gt;rotate</title>
<path fill="none" stroke="black" stroke-width="1.2" d="M214.14,-65.05C225.63,-61.99 239.35,-58.34 251.91,-55"/>
<polygon fill="black" stroke="black" stroke-width="1.2" points="252.91,-58.36 261.67,-52.4 251.11,-51.59 252.91,-58.36"/>
</g>
<!-- pressure -->
<g id="node3" class="node">
<title>pressure</title>
<path fill="white" stroke="black" d="M213.5,-144C213.5,-144 160.5,-144 160.5,-144 154.5,-144 148.5,-138 148.5,-132 148.5,-132 148.5,-120 148.5,-120 148.5,-114 154.5,-108 160.5,-108 160.5,-108 213.5,-108 213.5,-108 219.5,-108 225.5,-114 225.5,-120 225.5,-120 225.5,-132 225.5,-132 225.5,-138 219.5,-144 213.5,-144"/>
<text text-anchor="middle" x="187" y="-122.3" font-family="Helvetica,sans-Serif" font-size="14.00">pressure</text>
</g>
<!-- vibration -->
<g id="node4" class="node">
<title>vibration</title>
<path fill="white" stroke="black" d="M214,-36C214,-36 160,-36 160,-36 154,-36 148,-30 148,-24 148,-24 148,-12 148,-12 148,-6 154,0 160,0 160,0 214,0 214,0 220,0 226,-6 226,-12 226,-12 226,-24 226,-24 226,-30 220,-36 214,-36"/>
<text text-anchor="middle" x="187" y="-14.3" font-family="Helvetica,sans-Serif" font-size="14.00">vibration</text>
</g>
<!-- vibration&#45;&gt;rotate -->
<g id="edge2" class="edge">
<title>vibration&#45;&gt;rotate</title>
<path fill="none" stroke="black" stroke-width="1.2" d="M226.08,-28.13C234.66,-30.41 243.74,-32.83 252.28,-35.1"/>
<polygon fill="black" stroke="black" stroke-width="1.2" points="251.42,-38.49 261.98,-37.68 253.22,-31.73 251.42,-38.49"/>
</g>
</g>
</svg>
