<?xml version="1.0" encoding="UTF-8" standalone="no"?>
<!DOCTYPE svg PUBLIC "-//W3C//DTD SVG 1.1//EN"
 "http://www.w3.org/Graphics/SVG/1.1/DTD/svg11.dtd">
<!-- Generated by graphviz version 2.50.0 (0)
 -->
<!-- Title: G Pages: 1 -->
<svg width="475pt" height="178pt"
 viewBox="0.00 0.00 475.00 178.00" xmlns="http://www.w3.org/2000/svg" xmlns:xlink="http://www.w3.org/1999/xlink">
<g id="graph0" class="graph" transform="scale(1 1) rotate(0) translate(4 174)">
<title>G</title>
<polygon fill="white" stroke="transparent" points="-4,4 -4,-174 471,-174 471,4 -4,4"/>
<text text-anchor="middle" x="233.5" y="-153.2" font-family="Times,serif" font-size="16.00">model=model3/varlingam_telemetry.json [machine 26]</text>
<!-- volt -->
<g id="node1" class="node">
<title>volt</title>
<path fill="white" stroke="black" d="M305.5,-36C305.5,-36 275.5,-36 275.5,-36 269.5,-36 263.5,-30 263.5,-24 263.5,-24 263.5,-12 263.5,-12 263.5,-6 269.5,0 275.5,0 275.5,0 305.5,0 305.5,0 311.5,0 317.5,-6 317.5,-12 317.5,-12 317.5,-24 317.5,-24 317.5,-30 311.5,-36 305.5,-36"/>
<text text-anchor="middle" x="290.5" y="-14.3" font-family="Helvetica,sans-Serif" font-size="14.00">volt</text>
</g>
<!-- rotate -->
<g id="node2" class="node">
<title>rotate</title>
<path fill="white" stroke="black" d="M205,-36C205,-36 172,-36 172,-36 166,-36 160,-30 160,-24 160,-24 160,-12 160,-12 160,-6 166,0 172,0 172,0 205,0 205,0 211,0 217,-6 217,-12 217,-12 217,-24 217,-24 217,-30 211,-36 205,-36"/>
<text text-anchor="middle" x="188.5" y="-14.3" font-family="Helvetica,sans-Serif" font-size="14.00">rotate</text>
</g>
<!-- rotate&#45;&gt;volt -->
<g id="edge1" class="edge">
<title>rotate&#45;&gt;volt</title>
<path fill="none" stroke="black" stroke-width="1.2" d="M217.09,-18C228.27,-18 241.33,-18 253.26,-18"/>
<polygon fill="black" stroke="black" stroke-width="1.2" points="253.38,-21.5 263.38,-18 253.38,-14.5 253.38,-21.5"/>
</g>
<!-- pressure -->
<g id="node3" class="node">
<title>pressure</title>
<path fill="white" stroke="black" d="M215,-90C215,-90 162,-90 162,-90 156,-90 150,-84 150,-78 150,-78 150,-66 150,-66 150,-60 156,-54 162,-54 162,-54 215,-54 215,-54 221,-54 227,-60 227,-66 227,-66 227,-78 227,-78 227,-84 221,-90 215,-90"/>
<text text-anchor="middle" x="188.5" y="-68.3" font-family="Helvetica,sans-Serif" font-size="14.00">pressure</text>
</g>
<!-- vibration -->
<g id="node4" class="node">
<title>vibration</title>
<path fill="white" stroke="black" d="M215.5,-144C215.5,-144 161.5,-144 161.5,-144 155.5,-144 149.5,-138 149.5,-132 149.5,-132 149.5,-120 149.5,-120 149.5,-114 155.5,-108 161.5,-108 161.5,-108 215.5,-108 215.5,-108 221.5,-108 227.5,-114 227.5,-120 227.5,-120 227.5,-132 227.5,-132 227.5,-138 221.5,-144 215.5,-144"/>
<text text-anchor="middle" x="188.5" y="-122.3" font-family="Helvetica,sans-Serif" font-size="14.00">vibration</text>
</g>
</g>
</svg>
