<?xml version="1.0" encoding="UTF-8" standalone="no"?>
<!DOCTYPE svg PUBLIC "-//W3C//DTD SVG 1.1//EN"
 "http://www.w3.org/Graphics/SVG/1.1/DTD/svg11.dtd">
<!-- Generated by graphviz version 2.50.0 (0)
 -->
<!-- Title: G Pages: 1 -->
<svg width="502pt" height="439pt"
 viewBox="0.00 0.00 502.00 439.00" xmlns="http://www.w3.org/2000/svg" xmlns:xlink="http://www.w3.org/1999/xlink">
<g id="graph0" class="graph" transform="scale(1 1) rotate(0) translate(4 435)">
<title>G</title>
<polygon fill="white" stroke="transparent" points="-4,4 -4,-435 498,-435 498,4 -4,4"/>
<text text-anchor="middle" x="247" y="-414.2" font-family="Times,serif" font-size="16.00">model=model4/varlingam_mixed.json [machine 88]</text>
<!-- volt -->
<g id="node1" class="node">
<title>volt</title>
<path fill="white" stroke="black" d="M460,-312C460,-312 430,-312 430,-312 424,-312 418,-306 418,-300 418,-300 418,-288 418,-288 418,-282 424,-276 430,-276 430,-276 460,-276 460,-276 466,-276 472,-282 472,-288 472,-288 472,-300 472,-300 472,-306 466,-312 460,-312"/>
<text text-anchor="middle" x="445" y="-290.3" font-family="Helvetica,sans-Serif" font-size="14.00">volt</text>
</g>
<!-- rotate -->
<g id="node2" class="node">
<title>rotate</title>
<path fill="white" stroke="black" d="M62.5,-166C62.5,-166 29.5,-166 29.5,-166 23.5,-166 17.5,-160 17.5,-154 17.5,-154 17.5,-142 17.5,-142 17.5,-136 23.5,-130 29.5,-130 29.5,-130 62.5,-130 62.5,-130 68.5,-130 74.5,-136 74.5,-142 74.5,-142 74.5,-154 74.5,-154 74.5,-160 68.5,-166 62.5,-166"/>
<text text-anchor="middle" x="46" y="-144.3" font-family="Helvetica,sans-Serif" font-size="14.00">rotate</text>
</g>
<!-- err_error3 -->
<g id="node7" class="node">
<title>err_error3</title>
<path fill="white" stroke="black" d="M207.5,-220C207.5,-220 146.5,-220 146.5,-220 140.5,-220 134.5,-214 134.5,-208 134.5,-208 134.5,-196 134.5,-196 134.5,-190 140.5,-184 146.5,-184 146.5,-184 207.5,-184 207.5,-184 213.5,-184 219.5,-190 219.5,-196 219.5,-196 219.5,-208 219.5,-208 219.5,-214 213.5,-220 207.5,-220"/>
<text text-anchor="middle" x="177" y="-198.3" font-family="Helvetica,sans-Serif" font-size="14.00">err_error3</text>
</g>
<!-- rotate&#45;&gt;err_error3 -->
<g id="edge2" class="edge">
<title>rotate&#45;&gt;err_error3</title>
<path fill="none" stroke="black" stroke-width="1.2" d="M74.67,-159.58C89.29,-165.7 107.7,-173.41 124.81,-180.57"/>
<polygon fill="black" stroke="black" stroke-width="1.2" points="123.57,-183.85 134.14,-184.48 126.27,-177.39 123.57,-183.85"/>
</g>
<!-- fail_comp2 -->
<g id="node15" class="node">
<title>fail_comp2</title>
<path fill="white" stroke="black" d="M211,-166C211,-166 143,-166 143,-166 137,-166 131,-160 131,-154 131,-154 131,-142 131,-142 131,-136 137,-130 143,-130 143,-130 211,-130 211,-130 217,-130 223,-136 223,-142 223,-142 223,-154 223,-154 223,-160 217,-166 211,-166"/>
<text text-anchor="middle" x="177" y="-144.3" font-family="Helvetica,sans-Serif" font-size="14.00">fail_comp2</text>
</g>
<!-- rotate&#45;&gt;fail_comp2 -->
<g id="edge3" class="edge">
<title>rotate&#45;&gt;fail_comp2</title>
<path fill="none" stroke="black" stroke-width="1.2" d="M74.67,-148C88.09,-148 104.72,-148 120.59,-148"/>
<polygon fill="black" stroke="black" stroke-width="1.2" points="120.87,-151.5 130.87,-148 120.87,-144.5 120.87,-151.5"/>
</g>
<!-- pressure -->
<g id="node3" class="node">
<title>pressure</title>
<path fill="white" stroke="black" d="M72.5,-297C72.5,-297 19.5,-297 19.5,-297 13.5,-297 7.5,-291 7.5,-285 7.5,-285 7.5,-273 7.5,-273 7.5,-267 13.5,-261 19.5,-261 19.5,-261 72.5,-261 72.5,-261 78.5,-261 84.5,-267 84.5,-273 84.5,-273 84.5,-285 84.5,-285 84.5,-291 78.5,-297 72.5,-297"/>
<text text-anchor="middle" x="46" y="-275.3" font-family="Helvetica,sans-Serif" font-size="14.00">pressure</text>
</g>
<!-- vibration -->
<g id="node4" class="node">
<title>vibration</title>
<path fill="white" stroke="black" d="M73,-351C73,-351 19,-351 19,-351 13,-351 7,-345 7,-339 7,-339 7,-327 7,-327 7,-321 13,-315 19,-315 19,-315 73,-315 73,-315 79,-315 85,-321 85,-327 85,-327 85,-339 85,-339 85,-345 79,-351 73,-351"/>
<text text-anchor="middle" x="46" y="-329.3" font-family="Helvetica,sans-Serif" font-size="14.00">vibration</text>
</g>
<!-- err_error1 -->
<g id="node5" class="node">
<title>err_error1</title>
<path fill="white" stroke="black" d="M207.5,-405C207.5,-405 146.5,-405 146.5,-405 140.5,-405 134.5,-399 134.5,-393 134.5,-393 134.5,-381 134.5,-381 134.5,-375 140.5,-369 146.5,-369 146.5,-369 207.5,-369 207.5,-369 213.5,-369 219.5,-375 219.5,-381 219.5,-381 219.5,-393 219.5,-393 219.5,-399 213.5,-405 207.5,-405"/>
<text text-anchor="middle" x="177" y="-383.3" font-family="Helvetica,sans-Serif" font-size="14.00">err_error1</text>
</g>
<!-- err_error2 -->
<g id="node6" class="node">
<title>err_error2</title>
<path fill="white" stroke="black" d="M341.5,-258C341.5,-258 280.5,-258 280.5,-258 274.5,-258 268.5,-252 268.5,-246 268.5,-246 268.5,-234 268.5,-234 268.5,-228 274.5,-222 280.5,-222 280.5,-222 341.5,-222 341.5,-222 347.5,-222 353.5,-228 353.5,-234 353.5,-234 353.5,-246 353.5,-246 353.5,-252 347.5,-258 341.5,-258"/>
<text text-anchor="middle" x="311" y="-236.3" font-family="Helvetica,sans-Serif" font-size="14.00">err_error2</text>
</g>
<!-- err_error3&#45;&gt;err_error2 -->
<g id="edge5" class="edge">
<title>err_error3&#45;&gt;err_error2</title>
<path fill="none" stroke="black" stroke-width="1.2" d="M219.77,-214.02C232.04,-217.56 245.62,-221.47 258.44,-225.16"/>
<polygon fill="black" stroke="black" stroke-width="1.2" points="257.47,-228.52 268.05,-227.92 259.41,-221.79 257.47,-228.52"/>
</g>
<!-- err_error4 -->
<g id="node8" class="node">
<title>err_error4</title>
<path fill="white" stroke="black" d="M76.5,-405C76.5,-405 15.5,-405 15.5,-405 9.5,-405 3.5,-399 3.5,-393 3.5,-393 3.5,-381 3.5,-381 3.5,-375 9.5,-369 15.5,-369 15.5,-369 76.5,-369 76.5,-369 82.5,-369 88.5,-375 88.5,-381 88.5,-381 88.5,-393 88.5,-393 88.5,-399 82.5,-405 76.5,-405"/>
<text text-anchor="middle" x="46" y="-383.3" font-family="Helvetica,sans-Serif" font-size="14.00">err_error4</text>
</g>
<!-- err_error4&#45;&gt;err_error1 -->
<g id="edge4" class="edge">
<title>err_error4&#45;&gt;err_error1</title>
<path fill="none" stroke="black" stroke-width="1.2" d="M88.53,-387C99.81,-387 112.16,-387 123.95,-387"/>
<polygon fill="black" stroke="black" stroke-width="1.2" points="124.11,-390.5 134.11,-387 124.11,-383.5 124.11,-390.5"/>
</g>
<!-- err_error5 -->
<g id="node9" class="node">
<title>err_error5</title>
<path fill="white" stroke="black" d="M76.5,-243C76.5,-243 15.5,-243 15.5,-243 9.5,-243 3.5,-237 3.5,-231 3.5,-231 3.5,-219 3.5,-219 3.5,-213 9.5,-207 15.5,-207 15.5,-207 76.5,-207 76.5,-207 82.5,-207 88.5,-213 88.5,-219 88.5,-219 88.5,-231 88.5,-231 88.5,-237 82.5,-243 76.5,-243"/>
<text text-anchor="middle" x="46" y="-221.3" font-family="Helvetica,sans-Serif" font-size="14.00">err_error5</text>
</g>
<!-- err_error5&#45;&gt;err_error2 -->
<g id="edge6" class="edge">
<title>err_error5&#45;&gt;err_error2</title>
<path fill="none" stroke="black" stroke-width="1.2" d="M88.67,-227.38C134.51,-229.99 208.25,-234.2 257.88,-237.03"/>
<polygon fill="black" stroke="black" stroke-width="1.2" points="257.9,-240.53 268.09,-237.61 258.3,-233.55 257.9,-240.53"/>
</g>
<!-- err_error5&#45;&gt;err_error3 -->
<g id="edge7" class="edge">
<title>err_error5&#45;&gt;err_error3</title>
<path fill="none" stroke="black" stroke-width="1.2" d="M88.53,-217.6C99.81,-215.58 112.16,-213.38 123.95,-211.28"/>
<polygon fill="black" stroke="black" stroke-width="1.2" points="124.88,-214.67 134.11,-209.47 123.65,-207.78 124.88,-214.67"/>
</g>
<!-- mnt_comp1 -->
<g id="node10" class="node">
<title>mnt_comp1</title>
<path fill="white" stroke="black" d="M482,-143C482,-143 408,-143 408,-143 402,-143 396,-137 396,-131 396,-131 396,-119 396,-119 396,-113 402,-107 408,-107 408,-107 482,-107 482,-107 488,-107 494,-113 494,-119 494,-119 494,-131 494,-131 494,-137 488,-143 482,-143"/>
<text text-anchor="middle" x="445" y="-121.3" font-family="Helvetica,sans-Serif" font-size="14.00">mnt_comp1</text>
</g>
<!-- mnt_comp2 -->
<g id="node11" class="node">
<title>mnt_comp2</title>
<path fill="white" stroke="black" d="M348,-166C348,-166 274,-166 274,-166 268,-166 262,-160 262,-154 262,-154 262,-142 262,-142 262,-136 268,-130 274,-130 274,-130 348,-130 348,-130 354,-130 360,-136 360,-142 360,-142 360,-154 360,-154 360,-160 354,-166 348,-166"/>
<text text-anchor="middle" x="311" y="-144.3" font-family="Helvetica,sans-Serif" font-size="14.00">mnt_comp2</text>
</g>
<!-- mnt_comp2&#45;&gt;mnt_comp1 -->
<g id="edge8" class="edge">
<title>mnt_comp2&#45;&gt;mnt_comp1</title>
<path fill="none" stroke="black" stroke-width="1.2" d="M360.03,-139.63C368.4,-138.17 377.19,-136.64 385.8,-135.14"/>
<polygon fill="black" stroke="black" stroke-width="1.2" points="386.54,-138.57 395.79,-133.4 385.33,-131.67 386.54,-138.57"/>
</g>
<!-- mnt_comp3 -->
<g id="node12" class="node">
<title>mnt_comp3</title>
<path fill="white" stroke="black" d="M348,-74C348,-74 274,-74 274,-74 268,-74 262,-68 262,-62 262,-62 262,-50 262,-50 262,-44 268,-38 274,-38 274,-38 348,-38 348,-38 354,-38 360,-44 360,-50 360,-50 360,-62 360,-62 360,-68 354,-74 348,-74"/>
<text text-anchor="middle" x="311" y="-52.3" font-family="Helvetica,sans-Serif" font-size="14.00">mnt_comp3</text>
</g>
<!-- mnt_comp3&#45;&gt;mnt_comp1 -->
<g id="edge9" class="edge">
<title>mnt_comp3&#45;&gt;mnt_comp1</title>
<path fill="none" stroke="black" stroke-width="1.2" d="M346.68,-74.13C363.2,-82.77 383.13,-93.18 400.64,-102.34"/>
<polygon fill="black" stroke="black" stroke-width="1.2" points="399.07,-105.46 409.55,-106.99 402.31,-99.26 399.07,-105.46"/>
</g>
<!-- mnt_comp4 -->
<g id="node13" class="node">
<title>mnt_comp4</title>
<path fill="white" stroke="black" d="M214,-36C214,-36 140,-36 140,-36 134,-36 128,-30 128,-24 128,-24 128,-12 128,-12 128,-6 134,0 140,0 140,0 214,0 214,0 220,0 226,-6 226,-12 226,-12 226,-24 226,-24 226,-30 220,-36 214,-36"/>
<text text-anchor="middle" x="177" y="-14.3" font-family="Helvetica,sans-Serif" font-size="14.00">mnt_comp4</text>
</g>
<!-- mnt_comp4&#45;&gt;mnt_comp1 -->
<g id="edge10" class="edge">
<title>mnt_comp4&#45;&gt;mnt_comp1</title>
<path fill="none" stroke="black" stroke-width="1.2" d="M226.17,-11.14C264.42,-7.92 318.23,-8.5 360,-29 390.54,-43.99 414.67,-75.55 429.09,-98.4"/>
<polygon fill="black" stroke="black" stroke-width="1.2" points="426.13,-100.26 434.31,-106.99 432.11,-96.62 426.13,-100.26"/>
</g>
<!-- mnt_comp4&#45;&gt;mnt_comp3 -->
<g id="edge15" class="edge">
<title>mnt_comp4&#45;&gt;mnt_comp3</title>
<path fill="none" stroke="black" stroke-width="1.2" d="M226.03,-31.83C234.49,-34.26 243.38,-36.82 252.08,-39.33"/>
<polygon fill="black" stroke="black" stroke-width="1.2" points="251.21,-42.72 261.79,-42.12 253.14,-35.99 251.21,-42.72"/>
</g>
<!-- fail_comp1 -->
<g id="node14" class="node">
<title>fail_comp1</title>
<path fill="white" stroke="black" d="M345,-312C345,-312 277,-312 277,-312 271,-312 265,-306 265,-300 265,-300 265,-288 265,-288 265,-282 271,-276 277,-276 277,-276 345,-276 345,-276 351,-276 357,-282 357,-288 357,-288 357,-300 357,-300 357,-306 351,-312 345,-312"/>
<text text-anchor="middle" x="311" y="-290.3" font-family="Helvetica,sans-Serif" font-size="14.00">fail_comp1</text>
</g>
<!-- fail_comp1&#45;&gt;volt -->
<g id="edge1" class="edge">
<title>fail_comp1&#45;&gt;volt</title>
<path fill="none" stroke="black" stroke-width="1.2" d="M357.06,-294C373.56,-294 392.02,-294 407.67,-294"/>
<polygon fill="black" stroke="black" stroke-width="1.2" points="407.99,-297.5 417.99,-294 407.99,-290.5 407.99,-297.5"/>
</g>
<!-- fail_comp1&#45;&gt;mnt_comp1 -->
<g id="edge11" class="edge">
<title>fail_comp1&#45;&gt;mnt_comp1</title>
<path fill="none" stroke="black" stroke-width="1.2" d="M349.07,-275.85C352.98,-273.16 356.72,-270.21 360,-267 394.18,-233.56 419.5,-183.35 432.98,-152.46"/>
<polygon fill="black" stroke="black" stroke-width="1.2" points="436.25,-153.73 436.94,-143.16 429.81,-150.99 436.25,-153.73"/>
</g>
<!-- fail_comp2&#45;&gt;mnt_comp1 -->
<g id="edge12" class="edge">
<title>fail_comp2&#45;&gt;mnt_comp1</title>
<path fill="none" stroke="black" stroke-width="1.2" d="M223.15,-165.35C235.55,-169.33 249.14,-172.98 262,-175 305.03,-181.75 318,-186.55 360,-175 378.88,-169.81 397.8,-159.14 412.89,-148.99"/>
<polygon fill="black" stroke="black" stroke-width="1.2" points="415.11,-151.71 421.31,-143.12 411.1,-145.97 415.11,-151.71"/>
</g>
<!-- fail_comp2&#45;&gt;mnt_comp2 -->
<g id="edge14" class="edge">
<title>fail_comp2&#45;&gt;mnt_comp2</title>
<path fill="none" stroke="black" stroke-width="1.2" d="M223.06,-148C232.27,-148 242.09,-148 251.7,-148"/>
<polygon fill="black" stroke="black" stroke-width="1.2" points="251.99,-151.5 261.99,-148 251.99,-144.5 251.99,-151.5"/>
</g>
<!-- fail_comp4 -->
<g id="node16" class="node">
<title>fail_comp4</title>
<path fill="white" stroke="black" d="M80,-97C80,-97 12,-97 12,-97 6,-97 0,-91 0,-85 0,-85 0,-73 0,-73 0,-67 6,-61 12,-61 12,-61 80,-61 80,-61 86,-61 92,-67 92,-73 92,-73 92,-85 92,-85 92,-91 86,-97 80,-97"/>
<text text-anchor="middle" x="46" y="-75.3" font-family="Helvetica,sans-Serif" font-size="14.00">fail_comp4</text>
</g>
<!-- fail_comp4&#45;&gt;mnt_comp1 -->
<g id="edge13" class="edge">
<title>fail_comp4&#45;&gt;mnt_comp1</title>
<path fill="none" stroke="black" stroke-width="1.2" d="M92.15,-84.23C164.31,-92.59 305.6,-108.96 385.43,-118.21"/>
<polygon fill="black" stroke="black" stroke-width="1.2" points="385.46,-121.74 395.8,-119.42 386.27,-114.79 385.46,-121.74"/>
</g>
<!-- fail_comp4&#45;&gt;mnt_comp3 -->
<g id="edge16" class="edge">
<title>fail_comp4&#45;&gt;mnt_comp3</title>
<path fill="none" stroke="black" stroke-width="1.2" d="M92.21,-75.05C136.27,-71.19 203.46,-65.32 251.56,-61.11"/>
<polygon fill="black" stroke="black" stroke-width="1.2" points="252.16,-64.57 261.82,-60.21 251.55,-57.6 252.16,-64.57"/>
</g>
<!-- fail_comp4&#45;&gt;mnt_comp4 -->
<g id="edge17" class="edge">
<title>fail_comp4&#45;&gt;mnt_comp4</title>
<path fill="none" stroke="black" stroke-width="1.2" d="M85.35,-60.86C98.88,-54.47 114.25,-47.2 128.44,-40.49"/>
<polygon fill="black" stroke="black" stroke-width="1.2" points="130.03,-43.61 137.57,-36.17 127.03,-37.28 130.03,-43.61"/>
</g>
<!-- fail_comp4&#45;&gt;fail_comp2 -->
<g id="edge18" class="edge">
<title>fail_comp4&#45;&gt;fail_comp2</title>
<path fill="none" stroke="black" stroke-width="1.2" d="M80.89,-97.13C96.89,-105.69 116.16,-115.99 133.16,-125.08"/>
<polygon fill="black" stroke="black" stroke-width="1.2" points="131.86,-128.36 142.33,-129.99 135.17,-122.19 131.86,-128.36"/>
</g>
</g>
</svg>
