<?xml version="1.0" encoding="UTF-8" standalone="no"?>
<!DOCTYPE svg PUBLIC "-//W3C//DTD SVG 1.1//EN"
 "http://www.w3.org/Graphics/SVG/1.1/DTD/svg11.dtd">
<!-- Generated by graphviz version 2.50.0 (0)
 -->
<!-- Title: G Pages: 1 -->
<svg width="502pt" height="583pt"
 viewBox="0.00 0.00 502.00 582.87" xmlns="http://www.w3.org/2000/svg" xmlns:xlink="http://www.w3.org/1999/xlink">
<g id="graph0" class="graph" transform="scale(1 1) rotate(0) translate(4 578.87)">
<title>G</title>
<polygon fill="white" stroke="transparent" points="-4,4 -4,-578.87 498,-578.87 498,4 -4,4"/>
<text text-anchor="middle" x="247" y="-558.07" font-family="Times,serif" font-size="16.00">model=model3/varlingam_mixed.json [machine 27]</text>
<!-- volt -->
<g id="node1" class="node">
<title>volt</title>
<path fill="white" stroke="black" d="M460,-146.87C460,-146.87 430,-146.87 430,-146.87 424,-146.87 418,-140.87 418,-134.87 418,-134.87 418,-122.87 418,-122.87 418,-116.87 424,-110.87 430,-110.87 430,-110.87 460,-110.87 460,-110.87 466,-110.87 472,-116.87 472,-122.87 472,-122.87 472,-134.87 472,-134.87 472,-140.87 466,-146.87 460,-146.87"/>
<text text-anchor="middle" x="445" y="-125.17" font-family="Helvetica,sans-Serif" font-size="14.00">volt</text>
</g>
<!-- rotate -->
<g id="node2" class="node">
<title>rotate</title>
<path fill="white" stroke="black" d="M62.5,-224.87C62.5,-224.87 29.5,-224.87 29.5,-224.87 23.5,-224.87 17.5,-218.87 17.5,-212.87 17.5,-212.87 17.5,-200.87 17.5,-200.87 17.5,-194.87 23.5,-188.87 29.5,-188.87 29.5,-188.87 62.5,-188.87 62.5,-188.87 68.5,-188.87 74.5,-194.87 74.5,-200.87 74.5,-200.87 74.5,-212.87 74.5,-212.87 74.5,-218.87 68.5,-224.87 62.5,-224.87"/>
<text text-anchor="middle" x="46" y="-203.17" font-family="Helvetica,sans-Serif" font-size="14.00">rotate</text>
</g>
<!-- pressure -->
<g id="node3" class="node">
<title>pressure</title>
<path fill="white" stroke="black" d="M72.5,-278.87C72.5,-278.87 19.5,-278.87 19.5,-278.87 13.5,-278.87 7.5,-272.87 7.5,-266.87 7.5,-266.87 7.5,-254.87 7.5,-254.87 7.5,-248.87 13.5,-242.87 19.5,-242.87 19.5,-242.87 72.5,-242.87 72.5,-242.87 78.5,-242.87 84.5,-248.87 84.5,-254.87 84.5,-254.87 84.5,-266.87 84.5,-266.87 84.5,-272.87 78.5,-278.87 72.5,-278.87"/>
<text text-anchor="middle" x="46" y="-257.17" font-family="Helvetica,sans-Serif" font-size="14.00">pressure</text>
</g>
<!-- vibration -->
<g id="node4" class="node">
<title>vibration</title>
<path fill="white" stroke="black" d="M73,-332.87C73,-332.87 19,-332.87 19,-332.87 13,-332.87 7,-326.87 7,-320.87 7,-320.87 7,-308.87 7,-308.87 7,-302.87 13,-296.87 19,-296.87 19,-296.87 73,-296.87 73,-296.87 79,-296.87 85,-302.87 85,-308.87 85,-308.87 85,-320.87 85,-320.87 85,-326.87 79,-332.87 73,-332.87"/>
<text text-anchor="middle" x="46" y="-311.17" font-family="Helvetica,sans-Serif" font-size="14.00">vibration</text>
</g>
<!-- err_error1 -->
<g id="node5" class="node">
<title>err_error1</title>
<path fill="white" stroke="black" d="M76.5,-386.87C76.5,-386.87 15.5,-386.87 15.5,-386.87 9.5,-386.87 3.5,-380.87 3.5,-374.87 3.5,-374.87 3.5,-362.87 3.5,-362.87 3.5,-356.87 9.5,-350.87 15.5,-350.87 15.5,-350.87 76.5,-350.87 76.5,-350.87 82.5,-350.87 88.5,-356.87 88.5,-362.87 88.5,-362.87 88.5,-374.87 88.5,-374.87 88.5,-380.87 82.5,-386.87 76.5,-386.87"/>
<text text-anchor="middle" x="46" y="-365.17" font-family="Helvetica,sans-Serif" font-size="14.00">err_error1</text>
</g>
<!-- err_error2 -->
<g id="node6" class="node">
<title>err_error2</title>
<path fill="white" stroke="black" d="M207.5,-440.87C207.5,-440.87 146.5,-440.87 146.5,-440.87 140.5,-440.87 134.5,-434.87 134.5,-428.87 134.5,-428.87 134.5,-416.87 134.5,-416.87 134.5,-410.87 140.5,-404.87 146.5,-404.87 146.5,-404.87 207.5,-404.87 207.5,-404.87 213.5,-404.87 219.5,-410.87 219.5,-416.87 219.5,-416.87 219.5,-428.87 219.5,-428.87 219.5,-434.87 213.5,-440.87 207.5,-440.87"/>
<text text-anchor="middle" x="177" y="-419.17" font-family="Helvetica,sans-Serif" font-size="14.00">err_error2</text>
</g>
<!-- err_error3 -->
<g id="node7" class="node">
<title>err_error3</title>
<path fill="white" stroke="black" d="M76.5,-440.87C76.5,-440.87 15.5,-440.87 15.5,-440.87 9.5,-440.87 3.5,-434.87 3.5,-428.87 3.5,-428.87 3.5,-416.87 3.5,-416.87 3.5,-410.87 9.5,-404.87 15.5,-404.87 15.5,-404.87 76.5,-404.87 76.5,-404.87 82.5,-404.87 88.5,-410.87 88.5,-416.87 88.5,-416.87 88.5,-428.87 88.5,-428.87 88.5,-434.87 82.5,-440.87 76.5,-440.87"/>
<text text-anchor="middle" x="46" y="-419.17" font-family="Helvetica,sans-Serif" font-size="14.00">err_error3</text>
</g>
<!-- err_error3&#45;&gt;err_error2 -->
<g id="edge2" class="edge">
<title>err_error3&#45;&gt;err_error2</title>
<path fill="none" stroke="black" stroke-width="1.2" d="M88.53,-422.87C99.81,-422.87 112.16,-422.87 123.95,-422.87"/>
<polygon fill="black" stroke="black" stroke-width="1.2" points="124.11,-426.37 134.11,-422.87 124.11,-419.37 124.11,-426.37"/>
</g>
<!-- err_error4 -->
<g id="node8" class="node">
<title>err_error4</title>
<path fill="white" stroke="black" d="M76.5,-494.87C76.5,-494.87 15.5,-494.87 15.5,-494.87 9.5,-494.87 3.5,-488.87 3.5,-482.87 3.5,-482.87 3.5,-470.87 3.5,-470.87 3.5,-464.87 9.5,-458.87 15.5,-458.87 15.5,-458.87 76.5,-458.87 76.5,-458.87 82.5,-458.87 88.5,-464.87 88.5,-470.87 88.5,-470.87 88.5,-482.87 88.5,-482.87 88.5,-488.87 82.5,-494.87 76.5,-494.87"/>
<text text-anchor="middle" x="46" y="-473.17" font-family="Helvetica,sans-Serif" font-size="14.00">err_error4</text>
</g>
<!-- err_error5 -->
<g id="node9" class="node">
<title>err_error5</title>
<path fill="white" stroke="black" d="M76.5,-548.87C76.5,-548.87 15.5,-548.87 15.5,-548.87 9.5,-548.87 3.5,-542.87 3.5,-536.87 3.5,-536.87 3.5,-524.87 3.5,-524.87 3.5,-518.87 9.5,-512.87 15.5,-512.87 15.5,-512.87 76.5,-512.87 76.5,-512.87 82.5,-512.87 88.5,-518.87 88.5,-524.87 88.5,-524.87 88.5,-536.87 88.5,-536.87 88.5,-542.87 82.5,-548.87 76.5,-548.87"/>
<text text-anchor="middle" x="46" y="-527.17" font-family="Helvetica,sans-Serif" font-size="14.00">err_error5</text>
</g>
<!-- mnt_comp1 -->
<g id="node10" class="node">
<title>mnt_comp1</title>
<path fill="white" stroke="black" d="M214,-216.87C214,-216.87 140,-216.87 140,-216.87 134,-216.87 128,-210.87 128,-204.87 128,-204.87 128,-192.87 128,-192.87 128,-186.87 134,-180.87 140,-180.87 140,-180.87 214,-180.87 214,-180.87 220,-180.87 226,-186.87 226,-192.87 226,-192.87 226,-204.87 226,-204.87 226,-210.87 220,-216.87 214,-216.87"/>
<text text-anchor="middle" x="177" y="-195.17" font-family="Helvetica,sans-Serif" font-size="14.00">mnt_comp1</text>
</g>
<!-- mnt_comp3 -->
<g id="node12" class="node">
<title>mnt_comp3</title>
<path fill="white" stroke="black" d="M482,-92.87C482,-92.87 408,-92.87 408,-92.87 402,-92.87 396,-86.87 396,-80.87 396,-80.87 396,-68.87 396,-68.87 396,-62.87 402,-56.87 408,-56.87 408,-56.87 482,-56.87 482,-56.87 488,-56.87 494,-62.87 494,-68.87 494,-68.87 494,-80.87 494,-80.87 494,-86.87 488,-92.87 482,-92.87"/>
<text text-anchor="middle" x="445" y="-71.17" font-family="Helvetica,sans-Serif" font-size="14.00">mnt_comp3</text>
</g>
<!-- mnt_comp1&#45;&gt;mnt_comp3 -->
<g id="edge3" class="edge">
<title>mnt_comp1&#45;&gt;mnt_comp3</title>
<path fill="none" stroke="black" stroke-width="1.2" d="M226.16,-195.43C265.16,-190.66 320,-179.22 360,-151.87 382.6,-136.41 375.59,-120.12 396,-101.87 397.11,-100.87 398.27,-99.9 399.46,-98.94"/>
<polygon fill="black" stroke="black" stroke-width="1.2" points="401.65,-101.68 407.7,-92.99 397.55,-96.01 401.65,-101.68"/>
</g>
<!-- mnt_comp4 -->
<g id="node13" class="node">
<title>mnt_comp4</title>
<path fill="white" stroke="black" d="M348,-142.87C348,-142.87 274,-142.87 274,-142.87 268,-142.87 262,-136.87 262,-130.87 262,-130.87 262,-118.87 262,-118.87 262,-112.87 268,-106.87 274,-106.87 274,-106.87 348,-106.87 348,-106.87 354,-106.87 360,-112.87 360,-118.87 360,-118.87 360,-130.87 360,-130.87 360,-136.87 354,-142.87 348,-142.87"/>
<text text-anchor="middle" x="311" y="-121.17" font-family="Helvetica,sans-Serif" font-size="14.00">mnt_comp4</text>
</g>
<!-- mnt_comp1&#45;&gt;mnt_comp4 -->
<g id="edge4" class="edge">
<title>mnt_comp1&#45;&gt;mnt_comp4</title>
<path fill="none" stroke="black" stroke-width="1.2" d="M210.29,-180.77C227.87,-170.91 249.81,-158.61 268.63,-148.06"/>
<polygon fill="black" stroke="black" stroke-width="1.2" points="270.57,-150.98 277.59,-143.04 267.15,-144.88 270.57,-150.98"/>
</g>
<!-- mnt_comp2 -->
<g id="node11" class="node">
<title>mnt_comp2</title>
<path fill="white" stroke="black" d="M214,-48.87C214,-48.87 140,-48.87 140,-48.87 134,-48.87 128,-42.87 128,-36.87 128,-36.87 128,-24.87 128,-24.87 128,-18.87 134,-12.87 140,-12.87 140,-12.87 214,-12.87 214,-12.87 220,-12.87 226,-18.87 226,-24.87 226,-24.87 226,-36.87 226,-36.87 226,-42.87 220,-48.87 214,-48.87"/>
<text text-anchor="middle" x="177" y="-27.17" font-family="Helvetica,sans-Serif" font-size="14.00">mnt_comp2</text>
</g>
<!-- mnt_comp2&#45;&gt;mnt_comp3 -->
<g id="edge6" class="edge">
<title>mnt_comp2&#45;&gt;mnt_comp3</title>
<path fill="none" stroke="black" stroke-width="1.2" d="M226.17,-38.84C271.04,-46.26 338.01,-57.34 385.84,-65.25"/>
<polygon fill="black" stroke="black" stroke-width="1.2" points="385.3,-68.71 395.74,-66.88 386.44,-61.8 385.3,-68.71"/>
</g>
<!-- mnt_comp2&#45;&gt;mnt_comp4 -->
<g id="edge7" class="edge">
<title>mnt_comp2&#45;&gt;mnt_comp4</title>
<path fill="none" stroke="black" stroke-width="1.2" d="M203.45,-48.99C224.18,-63.75 253.61,-84.71 276.3,-100.87"/>
<polygon fill="black" stroke="black" stroke-width="1.2" points="274.45,-103.85 284.63,-106.8 278.51,-98.15 274.45,-103.85"/>
</g>
<!-- mnt_comp4&#45;&gt;volt -->
<g id="edge1" class="edge">
<title>mnt_comp4&#45;&gt;volt</title>
<path fill="none" stroke="black" stroke-width="1.2" d="M360.03,-126.32C375.69,-126.8 392.81,-127.32 407.48,-127.76"/>
<polygon fill="black" stroke="black" stroke-width="1.2" points="407.58,-131.27 417.68,-128.07 407.79,-124.27 407.58,-131.27"/>
</g>
<!-- mnt_comp4&#45;&gt;mnt_comp3 -->
<g id="edge9" class="edge">
<title>mnt_comp4&#45;&gt;mnt_comp3</title>
<path fill="none" stroke="black" stroke-width="1.2" d="M359.66,-106.82C368.53,-103.45 377.89,-99.91 387.02,-96.45"/>
<polygon fill="black" stroke="black" stroke-width="1.2" points="388.3,-99.71 396.41,-92.89 385.82,-93.16 388.3,-99.71"/>
</g>
<!-- fail_comp1 -->
<g id="node14" class="node">
<title>fail_comp1</title>
<path fill="white" stroke="black" d="M80,-170.87C80,-170.87 12,-170.87 12,-170.87 6,-170.87 0,-164.87 0,-158.87 0,-158.87 0,-146.87 0,-146.87 0,-140.87 6,-134.87 12,-134.87 12,-134.87 80,-134.87 80,-134.87 86,-134.87 92,-140.87 92,-146.87 92,-146.87 92,-158.87 92,-158.87 92,-164.87 86,-170.87 80,-170.87"/>
<text text-anchor="middle" x="46" y="-149.17" font-family="Helvetica,sans-Serif" font-size="14.00">fail_comp1</text>
</g>
<!-- fail_comp1&#45;&gt;mnt_comp1 -->
<g id="edge5" class="edge">
<title>fail_comp1&#45;&gt;mnt_comp1</title>
<path fill="none" stroke="black" stroke-width="1.2" d="M92.12,-168.96C100.46,-171.93 109.28,-175.07 117.94,-178.16"/>
<polygon fill="black" stroke="black" stroke-width="1.2" points="117.02,-181.55 127.62,-181.61 119.37,-174.96 117.02,-181.55"/>
</g>
<!-- fail_comp1&#45;&gt;mnt_comp3 -->
<g id="edge10" class="edge">
<title>fail_comp1&#45;&gt;mnt_comp3</title>
<path fill="none" stroke="black" stroke-width="1.2" d="M92.36,-140.34C103.96,-137.2 116.43,-133.86 128,-130.87 187.38,-115.5 201.7,-109.06 262,-97.87 303.04,-90.25 349.76,-84.4 385.59,-80.51"/>
<polygon fill="black" stroke="black" stroke-width="1.2" points="386.29,-83.96 395.87,-79.42 385.55,-76.99 386.29,-83.96"/>
</g>
<!-- fail_comp1&#45;&gt;mnt_comp4 -->
<g id="edge12" class="edge">
<title>fail_comp1&#45;&gt;mnt_comp4</title>
<path fill="none" stroke="black" stroke-width="1.2" d="M92.21,-148.05C136.36,-143.35 203.75,-136.18 251.86,-131.06"/>
<polygon fill="black" stroke="black" stroke-width="1.2" points="252.25,-134.54 261.82,-130 251.51,-127.58 252.25,-134.54"/>
</g>
<!-- fail_comp2 -->
<g id="node15" class="node">
<title>fail_comp2</title>
<path fill="white" stroke="black" d="M80,-48.87C80,-48.87 12,-48.87 12,-48.87 6,-48.87 0,-42.87 0,-36.87 0,-36.87 0,-24.87 0,-24.87 0,-18.87 6,-12.87 12,-12.87 12,-12.87 80,-12.87 80,-12.87 86,-12.87 92,-18.87 92,-24.87 92,-24.87 92,-36.87 92,-36.87 92,-42.87 86,-48.87 80,-48.87"/>
<text text-anchor="middle" x="46" y="-27.17" font-family="Helvetica,sans-Serif" font-size="14.00">fail_comp2</text>
</g>
<!-- fail_comp2&#45;&gt;mnt_comp2 -->
<g id="edge8" class="edge">
<title>fail_comp2&#45;&gt;mnt_comp2</title>
<path fill="none" stroke="black" stroke-width="1.2" d="M92.12,-30.87C100.28,-30.87 108.9,-30.87 117.38,-30.87"/>
<polygon fill="black" stroke="black" stroke-width="1.2" points="117.62,-34.37 127.62,-30.87 117.62,-27.37 117.62,-34.37"/>
</g>
<!-- fail_comp2&#45;&gt;mnt_comp3 -->
<g id="edge11" class="edge">
<title>fail_comp2&#45;&gt;mnt_comp3</title>
<path fill="none" stroke="black" stroke-width="1.2" d="M92.19,-12.96C103.69,-9.2 116.15,-5.79 128,-3.87 224.41,11.78 335.48,-26.5 396.92,-52.72"/>
<polygon fill="black" stroke="black" stroke-width="1.2" points="395.78,-56.04 406.35,-56.82 398.57,-49.62 395.78,-56.04"/>
</g>
<!-- fail_comp2&#45;&gt;mnt_comp4 -->
<g id="edge13" class="edge">
<title>fail_comp2&#45;&gt;mnt_comp4</title>
<path fill="none" stroke="black" stroke-width="1.2" d="M92.21,-47.03C136.45,-62.84 204.03,-86.99 252.16,-104.2"/>
<polygon fill="black" stroke="black" stroke-width="1.2" points="251.23,-107.58 261.82,-107.65 253.58,-100.99 251.23,-107.58"/>
</g>
</g>
</svg>
