<?xml version="1.0" encoding="UTF-8" standalone="no"?>
<!DOCTYPE svg PUBLIC "-//W3C//DTD SVG 1.1//EN"
 "http://www.w3.org/Graphics/SVG/1.1/DTD/svg11.dtd">
<!-- Generated by graphviz version 2.50.0 (0)
 -->
<!-- Title: G Pages: 1 -->
<svg width="623pt" height="570pt"
 viewBox="0.00 0.00 623.00 570.00" xmlns="http://www.w3.org/2000/svg" xmlns:xlink="http://www.w3.org/1999/xlink">
<g id="graph0" class="graph" transform="scale(1 1) rotate(0) translate(4 566)">
<title>G</title>
<polygon fill="white" stroke="transparent" points="-4,4 -4,-566 619,-566 619,4 -4,4"/>
<text text-anchor="middle" x="307.5" y="-545.2" font-family="Times,serif" font-size="16.00">model=model4/varlingam_mixed.json [machine 61]</text>
<!-- volt -->
<g id="node1" class="node">
<title>volt</title>
<path fill="white" stroke="black" d="M57.5,-212C57.5,-212 27.5,-212 27.5,-212 21.5,-212 15.5,-206 15.5,-200 15.5,-200 15.5,-188 15.5,-188 15.5,-182 21.5,-176 27.5,-176 27.5,-176 57.5,-176 57.5,-176 63.5,-176 69.5,-182 69.5,-188 69.5,-188 69.5,-200 69.5,-200 69.5,-206 63.5,-212 57.5,-212"/>
<text text-anchor="middle" x="42.5" y="-190.3" font-family="Helvetica,sans-Serif" font-size="14.00">volt</text>
</g>
<!-- rotate -->
<g id="node2" class="node">
<title>rotate</title>
<path fill="white" stroke="black" d="M314.5,-266C314.5,-266 281.5,-266 281.5,-266 275.5,-266 269.5,-260 269.5,-254 269.5,-254 269.5,-242 269.5,-242 269.5,-236 275.5,-230 281.5,-230 281.5,-230 314.5,-230 314.5,-230 320.5,-230 326.5,-236 326.5,-242 326.5,-242 326.5,-254 326.5,-254 326.5,-260 320.5,-266 314.5,-266"/>
<text text-anchor="middle" x="298" y="-244.3" font-family="Helvetica,sans-Serif" font-size="14.00">rotate</text>
</g>
<!-- pressure -->
<g id="node3" class="node">
<title>pressure</title>
<path fill="white" stroke="black" d="M69,-320C69,-320 16,-320 16,-320 10,-320 4,-314 4,-308 4,-308 4,-296 4,-296 4,-290 10,-284 16,-284 16,-284 69,-284 69,-284 75,-284 81,-290 81,-296 81,-296 81,-308 81,-308 81,-314 75,-320 69,-320"/>
<text text-anchor="middle" x="42.5" y="-298.3" font-family="Helvetica,sans-Serif" font-size="14.00">pressure</text>
</g>
<!-- vibration -->
<g id="node4" class="node">
<title>vibration</title>
<path fill="white" stroke="black" d="M69.5,-374C69.5,-374 15.5,-374 15.5,-374 9.5,-374 3.5,-368 3.5,-362 3.5,-362 3.5,-350 3.5,-350 3.5,-344 9.5,-338 15.5,-338 15.5,-338 69.5,-338 69.5,-338 75.5,-338 81.5,-344 81.5,-350 81.5,-350 81.5,-362 81.5,-362 81.5,-368 75.5,-374 69.5,-374"/>
<text text-anchor="middle" x="42.5" y="-352.3" font-family="Helvetica,sans-Serif" font-size="14.00">vibration</text>
</g>
<!-- err_error1 -->
<g id="node5" class="node">
<title>err_error1</title>
<path fill="white" stroke="black" d="M73,-428C73,-428 12,-428 12,-428 6,-428 0,-422 0,-416 0,-416 0,-404 0,-404 0,-398 6,-392 12,-392 12,-392 73,-392 73,-392 79,-392 85,-398 85,-404 85,-404 85,-416 85,-416 85,-422 79,-428 73,-428"/>
<text text-anchor="middle" x="42.5" y="-406.3" font-family="Helvetica,sans-Serif" font-size="14.00">err_error1</text>
</g>
<!-- err_error2 -->
<g id="node6" class="node">
<title>err_error2</title>
<path fill="white" stroke="black" d="M73,-266C73,-266 12,-266 12,-266 6,-266 0,-260 0,-254 0,-254 0,-242 0,-242 0,-236 6,-230 12,-230 12,-230 73,-230 73,-230 79,-230 85,-236 85,-242 85,-242 85,-254 85,-254 85,-260 79,-266 73,-266"/>
<text text-anchor="middle" x="42.5" y="-244.3" font-family="Helvetica,sans-Serif" font-size="14.00">err_error2</text>
</g>
<!-- err_error3 -->
<g id="node7" class="node">
<title>err_error3</title>
<path fill="white" stroke="black" d="M197.5,-266C197.5,-266 136.5,-266 136.5,-266 130.5,-266 124.5,-260 124.5,-254 124.5,-254 124.5,-242 124.5,-242 124.5,-236 130.5,-230 136.5,-230 136.5,-230 197.5,-230 197.5,-230 203.5,-230 209.5,-236 209.5,-242 209.5,-242 209.5,-254 209.5,-254 209.5,-260 203.5,-266 197.5,-266"/>
<text text-anchor="middle" x="167" y="-244.3" font-family="Helvetica,sans-Serif" font-size="14.00">err_error3</text>
</g>
<!-- err_error2&#45;&gt;err_error3 -->
<g id="edge3" class="edge">
<title>err_error2&#45;&gt;err_error3</title>
<path fill="none" stroke="black" stroke-width="1.2" d="M85.31,-248C94.58,-248 104.5,-248 114.11,-248"/>
<polygon fill="black" stroke="black" stroke-width="1.2" points="114.37,-251.5 124.37,-248 114.37,-244.5 114.37,-251.5"/>
</g>
<!-- err_error3&#45;&gt;rotate -->
<g id="edge1" class="edge">
<title>err_error3&#45;&gt;rotate</title>
<path fill="none" stroke="black" stroke-width="1.2" d="M209.53,-248C225.44,-248 243.51,-248 259.07,-248"/>
<polygon fill="black" stroke="black" stroke-width="1.2" points="259.39,-251.5 269.39,-248 259.39,-244.5 259.39,-251.5"/>
</g>
<!-- err_error4 -->
<g id="node8" class="node">
<title>err_error4</title>
<path fill="white" stroke="black" d="M73,-482C73,-482 12,-482 12,-482 6,-482 0,-476 0,-470 0,-470 0,-458 0,-458 0,-452 6,-446 12,-446 12,-446 73,-446 73,-446 79,-446 85,-452 85,-458 85,-458 85,-470 85,-470 85,-476 79,-482 73,-482"/>
<text text-anchor="middle" x="42.5" y="-460.3" font-family="Helvetica,sans-Serif" font-size="14.00">err_error4</text>
</g>
<!-- err_error5 -->
<g id="node9" class="node">
<title>err_error5</title>
<path fill="white" stroke="black" d="M73,-536C73,-536 12,-536 12,-536 6,-536 0,-530 0,-524 0,-524 0,-512 0,-512 0,-506 6,-500 12,-500 12,-500 73,-500 73,-500 79,-500 85,-506 85,-512 85,-512 85,-524 85,-524 85,-530 79,-536 73,-536"/>
<text text-anchor="middle" x="42.5" y="-514.3" font-family="Helvetica,sans-Serif" font-size="14.00">err_error5</text>
</g>
<!-- mnt_comp1 -->
<g id="node10" class="node">
<title>mnt_comp1</title>
<path fill="white" stroke="black" d="M469,-82C469,-82 395,-82 395,-82 389,-82 383,-76 383,-70 383,-70 383,-58 383,-58 383,-52 389,-46 395,-46 395,-46 469,-46 469,-46 475,-46 481,-52 481,-58 481,-58 481,-70 481,-70 481,-76 475,-82 469,-82"/>
<text text-anchor="middle" x="432" y="-60.3" font-family="Helvetica,sans-Serif" font-size="14.00">mnt_comp1</text>
</g>
<!-- mnt_comp3 -->
<g id="node12" class="node">
<title>mnt_comp3</title>
<path fill="white" stroke="black" d="M603,-128C603,-128 529,-128 529,-128 523,-128 517,-122 517,-116 517,-116 517,-104 517,-104 517,-98 523,-92 529,-92 529,-92 603,-92 603,-92 609,-92 615,-98 615,-104 615,-104 615,-116 615,-116 615,-122 609,-128 603,-128"/>
<text text-anchor="middle" x="566" y="-106.3" font-family="Helvetica,sans-Serif" font-size="14.00">mnt_comp3</text>
</g>
<!-- mnt_comp1&#45;&gt;mnt_comp3 -->
<g id="edge5" class="edge">
<title>mnt_comp1&#45;&gt;mnt_comp3</title>
<path fill="none" stroke="black" stroke-width="1.2" d="M481.03,-80.74C489.49,-83.69 498.38,-86.78 507.08,-89.82"/>
<polygon fill="black" stroke="black" stroke-width="1.2" points="506.19,-93.21 516.79,-93.2 508.49,-86.6 506.19,-93.21"/>
</g>
<!-- mnt_comp2 -->
<g id="node11" class="node">
<title>mnt_comp2</title>
<path fill="white" stroke="black" d="M335,-128C335,-128 261,-128 261,-128 255,-128 249,-122 249,-116 249,-116 249,-104 249,-104 249,-98 255,-92 261,-92 261,-92 335,-92 335,-92 341,-92 347,-98 347,-104 347,-104 347,-116 347,-116 347,-122 341,-128 335,-128"/>
<text text-anchor="middle" x="298" y="-106.3" font-family="Helvetica,sans-Serif" font-size="14.00">mnt_comp2</text>
</g>
<!-- mnt_comp2&#45;&gt;mnt_comp1 -->
<g id="edge4" class="edge">
<title>mnt_comp2&#45;&gt;mnt_comp1</title>
<path fill="none" stroke="black" stroke-width="1.2" d="M347.03,-93.26C355.49,-90.31 364.38,-87.22 373.08,-84.18"/>
<polygon fill="black" stroke="black" stroke-width="1.2" points="374.49,-87.4 382.79,-80.8 372.19,-80.79 374.49,-87.4"/>
</g>
<!-- mnt_comp2&#45;&gt;mnt_comp3 -->
<g id="edge8" class="edge">
<title>mnt_comp2&#45;&gt;mnt_comp3</title>
<path fill="none" stroke="black" stroke-width="1.2" d="M347.17,-110C391.94,-110 458.73,-110 506.54,-110"/>
<polygon fill="black" stroke="black" stroke-width="1.2" points="506.74,-113.5 516.74,-110 506.74,-106.5 506.74,-113.5"/>
</g>
<!-- mnt_comp4 -->
<g id="node13" class="node">
<title>mnt_comp4</title>
<path fill="white" stroke="black" d="M469,-174C469,-174 395,-174 395,-174 389,-174 383,-168 383,-162 383,-162 383,-150 383,-150 383,-144 389,-138 395,-138 395,-138 469,-138 469,-138 475,-138 481,-144 481,-150 481,-150 481,-162 481,-162 481,-168 475,-174 469,-174"/>
<text text-anchor="middle" x="432" y="-152.3" font-family="Helvetica,sans-Serif" font-size="14.00">mnt_comp4</text>
</g>
<!-- mnt_comp4&#45;&gt;mnt_comp3 -->
<g id="edge10" class="edge">
<title>mnt_comp4&#45;&gt;mnt_comp3</title>
<path fill="none" stroke="black" stroke-width="1.2" d="M481.03,-139.26C489.49,-136.31 498.38,-133.22 507.08,-130.18"/>
<polygon fill="black" stroke="black" stroke-width="1.2" points="508.49,-133.4 516.79,-126.8 506.19,-126.79 508.49,-133.4"/>
</g>
<!-- fail_comp1 -->
<g id="node14" class="node">
<title>fail_comp1</title>
<path fill="white" stroke="black" d="M332,-36C332,-36 264,-36 264,-36 258,-36 252,-30 252,-24 252,-24 252,-12 252,-12 252,-6 258,0 264,0 264,0 332,0 332,0 338,0 344,-6 344,-12 344,-12 344,-24 344,-24 344,-30 338,-36 332,-36"/>
<text text-anchor="middle" x="298" y="-14.3" font-family="Helvetica,sans-Serif" font-size="14.00">fail_comp1</text>
</g>
<!-- fail_comp1&#45;&gt;mnt_comp1 -->
<g id="edge6" class="edge">
<title>fail_comp1&#45;&gt;mnt_comp1</title>
<path fill="none" stroke="black" stroke-width="1.2" d="M344.06,-33.7C353.47,-36.98 363.51,-40.48 373.31,-43.9"/>
<polygon fill="black" stroke="black" stroke-width="1.2" points="372.39,-47.28 382.99,-47.27 374.7,-40.67 372.39,-47.28"/>
</g>
<!-- fail_comp1&#45;&gt;mnt_comp3 -->
<g id="edge11" class="edge">
<title>fail_comp1&#45;&gt;mnt_comp3</title>
<path fill="none" stroke="black" stroke-width="1.2" d="M344.29,-15.31C382.32,-14.76 437.29,-18.02 481,-37 505.21,-47.52 527.51,-67.6 543.04,-84.05"/>
<polygon fill="black" stroke="black" stroke-width="1.2" points="540.77,-86.75 550.1,-91.77 545.93,-82.03 540.77,-86.75"/>
</g>
<!-- fail_comp2 -->
<g id="node15" class="node">
<title>fail_comp2</title>
<path fill="white" stroke="black" d="M201,-174C201,-174 133,-174 133,-174 127,-174 121,-168 121,-162 121,-162 121,-150 121,-150 121,-144 127,-138 133,-138 133,-138 201,-138 201,-138 207,-138 213,-144 213,-150 213,-150 213,-162 213,-162 213,-168 207,-174 201,-174"/>
<text text-anchor="middle" x="167" y="-152.3" font-family="Helvetica,sans-Serif" font-size="14.00">fail_comp2</text>
</g>
<!-- fail_comp2&#45;&gt;rotate -->
<g id="edge2" class="edge">
<title>fail_comp2&#45;&gt;rotate</title>
<path fill="none" stroke="black" stroke-width="1.2" d="M191.87,-174.17C207.89,-186.23 229.53,-202.31 249,-216 252.89,-218.74 256.99,-221.56 261.09,-224.34"/>
<polygon fill="black" stroke="black" stroke-width="1.2" points="259.18,-227.27 269.43,-229.96 263.09,-221.47 259.18,-227.27"/>
</g>
<!-- fail_comp2&#45;&gt;mnt_comp1 -->
<g id="edge7" class="edge">
<title>fail_comp2&#45;&gt;mnt_comp1</title>
<path fill="none" stroke="black" stroke-width="1.2" d="M182.23,-137.77C196.91,-120.44 221.5,-95.24 249,-83 287.87,-65.7 335.87,-61.3 372.82,-61.04"/>
<polygon fill="black" stroke="black" stroke-width="1.2" points="372.92,-64.54 382.93,-61.07 372.94,-57.54 372.92,-64.54"/>
</g>
<!-- fail_comp2&#45;&gt;mnt_comp2 -->
<g id="edge9" class="edge">
<title>fail_comp2&#45;&gt;mnt_comp2</title>
<path fill="none" stroke="black" stroke-width="1.2" d="M213.12,-139.91C221.46,-136.94 230.28,-133.79 238.94,-130.7"/>
<polygon fill="black" stroke="black" stroke-width="1.2" points="240.37,-133.91 248.62,-127.25 238.02,-127.32 240.37,-133.91"/>
</g>
<!-- fail_comp2&#45;&gt;mnt_comp3 -->
<g id="edge12" class="edge">
<title>fail_comp2&#45;&gt;mnt_comp3</title>
<path fill="none" stroke="black" stroke-width="1.2" d="M213.19,-171.78C275.56,-190.96 390.57,-216.8 481,-183 506.04,-173.64 528.55,-153.07 543.95,-136.15"/>
<polygon fill="black" stroke="black" stroke-width="1.2" points="546.96,-138.02 550.92,-128.2 541.7,-133.41 546.96,-138.02"/>
</g>
<!-- fail_comp2&#45;&gt;mnt_comp4 -->
<g id="edge13" class="edge">
<title>fail_comp2&#45;&gt;mnt_comp4</title>
<path fill="none" stroke="black" stroke-width="1.2" d="M213.21,-156C257.27,-156 324.46,-156 372.56,-156"/>
<polygon fill="black" stroke="black" stroke-width="1.2" points="372.82,-159.5 382.82,-156 372.82,-152.5 372.82,-159.5"/>
</g>
</g>
</svg>
