<?xml version="1.0" encoding="UTF-8" standalone="no"?>
<!DOCTYPE svg PUBLIC "-//W3C//DTD SVG 1.1//EN"
 "http://www.w3.org/Graphics/SVG/1.1/DTD/svg11.dtd">
<!-- Generated by graphviz version 2.50.0 (0)
 -->
<!-- Title: G Pages: 1 -->
<svg width="447pt" height="675pt"
 viewBox="0.00 0.00 447.00 675.00" xmlns="http://www.w3.org/2000/svg" xmlns:xlink="http://www.w3.org/1999/xlink">
<g id="graph0" class="graph" transform="scale(1 1) rotate(0) translate(4 671)">
<title>G</title>
<polygon fill="white" stroke="transparent" points="-4,4 -4,-671 443,-671 443,4 -4,4"/>
<text text-anchor="middle" x="219.5" y="-650.2" font-family="Times,serif" font-size="16.00">model=model3/varlingam_mixed.json [machine 55]</text>
<!-- volt -->
<g id="node1" class="node">
<title>volt</title>
<path fill="white" stroke="black" d="M100.5,-36C100.5,-36 70.5,-36 70.5,-36 64.5,-36 58.5,-30 58.5,-24 58.5,-24 58.5,-12 58.5,-12 58.5,-6 64.5,0 70.5,0 70.5,0 100.5,0 100.5,0 106.5,0 112.5,-6 112.5,-12 112.5,-12 112.5,-24 112.5,-24 112.5,-30 106.5,-36 100.5,-36"/>
<text text-anchor="middle" x="85.5" y="-14.3" font-family="Helvetica,sans-Serif" font-size="14.00">volt</text>
</g>
<!-- rotate -->
<g id="node2" class="node">
<title>rotate</title>
<path fill="white" stroke="black" d="M102,-90C102,-90 69,-90 69,-90 63,-90 57,-84 57,-78 57,-78 57,-66 57,-66 57,-60 63,-54 69,-54 69,-54 102,-54 102,-54 108,-54 114,-60 114,-66 114,-66 114,-78 114,-78 114,-84 108,-90 102,-90"/>
<text text-anchor="middle" x="85.5" y="-68.3" font-family="Helvetica,sans-Serif" font-size="14.00">rotate</text>
</g>
<!-- pressure -->
<g id="node3" class="node">
<title>pressure</title>
<path fill="white" stroke="black" d="M112,-144C112,-144 59,-144 59,-144 53,-144 47,-138 47,-132 47,-132 47,-120 47,-120 47,-114 53,-108 59,-108 59,-108 112,-108 112,-108 118,-108 124,-114 124,-120 124,-120 124,-132 124,-132 124,-138 118,-144 112,-144"/>
<text text-anchor="middle" x="85.5" y="-122.3" font-family="Helvetica,sans-Serif" font-size="14.00">pressure</text>
</g>
<!-- vibration -->
<g id="node4" class="node">
<title>vibration</title>
<path fill="white" stroke="black" d="M112.5,-198C112.5,-198 58.5,-198 58.5,-198 52.5,-198 46.5,-192 46.5,-186 46.5,-186 46.5,-174 46.5,-174 46.5,-168 52.5,-162 58.5,-162 58.5,-162 112.5,-162 112.5,-162 118.5,-162 124.5,-168 124.5,-174 124.5,-174 124.5,-186 124.5,-186 124.5,-192 118.5,-198 112.5,-198"/>
<text text-anchor="middle" x="85.5" y="-176.3" font-family="Helvetica,sans-Serif" font-size="14.00">vibration</text>
</g>
<!-- err_error1 -->
<g id="node5" class="node">
<title>err_error1</title>
<path fill="white" stroke="black" d="M116,-252C116,-252 55,-252 55,-252 49,-252 43,-246 43,-240 43,-240 43,-228 43,-228 43,-222 49,-216 55,-216 55,-216 116,-216 116,-216 122,-216 128,-222 128,-228 128,-228 128,-240 128,-240 128,-246 122,-252 116,-252"/>
<text text-anchor="middle" x="85.5" y="-230.3" font-family="Helvetica,sans-Serif" font-size="14.00">err_error1</text>
</g>
<!-- err_error2 -->
<g id="node6" class="node">
<title>err_error2</title>
<path fill="white" stroke="black" d="M116,-306C116,-306 55,-306 55,-306 49,-306 43,-300 43,-294 43,-294 43,-282 43,-282 43,-276 49,-270 55,-270 55,-270 116,-270 116,-270 122,-270 128,-276 128,-282 128,-282 128,-294 128,-294 128,-300 122,-306 116,-306"/>
<text text-anchor="middle" x="85.5" y="-284.3" font-family="Helvetica,sans-Serif" font-size="14.00">err_error2</text>
</g>
<!-- err_error3 -->
<g id="node7" class="node">
<title>err_error3</title>
<path fill="white" stroke="black" d="M247,-306C247,-306 186,-306 186,-306 180,-306 174,-300 174,-294 174,-294 174,-282 174,-282 174,-276 180,-270 186,-270 186,-270 247,-270 247,-270 253,-270 259,-276 259,-282 259,-282 259,-294 259,-294 259,-300 253,-306 247,-306"/>
<text text-anchor="middle" x="216.5" y="-284.3" font-family="Helvetica,sans-Serif" font-size="14.00">err_error3</text>
</g>
<!-- err_error2&#45;&gt;err_error3 -->
<g id="edge1" class="edge">
<title>err_error2&#45;&gt;err_error3</title>
<path fill="none" stroke="black" stroke-width="1.2" d="M128.03,-288C139.31,-288 151.66,-288 163.45,-288"/>
<polygon fill="black" stroke="black" stroke-width="1.2" points="163.61,-291.5 173.61,-288 163.61,-284.5 163.61,-291.5"/>
</g>
<!-- err_error4 -->
<g id="node8" class="node">
<title>err_error4</title>
<path fill="white" stroke="black" d="M116,-360C116,-360 55,-360 55,-360 49,-360 43,-354 43,-348 43,-348 43,-336 43,-336 43,-330 49,-324 55,-324 55,-324 116,-324 116,-324 122,-324 128,-330 128,-336 128,-336 128,-348 128,-348 128,-354 122,-360 116,-360"/>
<text text-anchor="middle" x="85.5" y="-338.3" font-family="Helvetica,sans-Serif" font-size="14.00">err_error4</text>
</g>
<!-- err_error5 -->
<g id="node9" class="node">
<title>err_error5</title>
<path fill="white" stroke="black" d="M116,-414C116,-414 55,-414 55,-414 49,-414 43,-408 43,-402 43,-402 43,-390 43,-390 43,-384 49,-378 55,-378 55,-378 116,-378 116,-378 122,-378 128,-384 128,-390 128,-390 128,-402 128,-402 128,-408 122,-414 116,-414"/>
<text text-anchor="middle" x="85.5" y="-392.3" font-family="Helvetica,sans-Serif" font-size="14.00">err_error5</text>
</g>
<!-- mnt_comp1 -->
<g id="node10" class="node">
<title>mnt_comp1</title>
<path fill="white" stroke="black" d="M253.5,-587C253.5,-587 179.5,-587 179.5,-587 173.5,-587 167.5,-581 167.5,-575 167.5,-575 167.5,-563 167.5,-563 167.5,-557 173.5,-551 179.5,-551 179.5,-551 253.5,-551 253.5,-551 259.5,-551 265.5,-557 265.5,-563 265.5,-563 265.5,-575 265.5,-575 265.5,-581 259.5,-587 253.5,-587"/>
<text text-anchor="middle" x="216.5" y="-565.3" font-family="Helvetica,sans-Serif" font-size="14.00">mnt_comp1</text>
</g>
<!-- mnt_comp2 -->
<g id="node11" class="node">
<title>mnt_comp2</title>
<path fill="white" stroke="black" d="M253.5,-495C253.5,-495 179.5,-495 179.5,-495 173.5,-495 167.5,-489 167.5,-483 167.5,-483 167.5,-471 167.5,-471 167.5,-465 173.5,-459 179.5,-459 179.5,-459 253.5,-459 253.5,-459 259.5,-459 265.5,-465 265.5,-471 265.5,-471 265.5,-483 265.5,-483 265.5,-489 259.5,-495 253.5,-495"/>
<text text-anchor="middle" x="216.5" y="-473.3" font-family="Helvetica,sans-Serif" font-size="14.00">mnt_comp2</text>
</g>
<!-- mnt_comp3 -->
<g id="node12" class="node">
<title>mnt_comp3</title>
<path fill="white" stroke="black" d="M387.5,-495C387.5,-495 313.5,-495 313.5,-495 307.5,-495 301.5,-489 301.5,-483 301.5,-483 301.5,-471 301.5,-471 301.5,-465 307.5,-459 313.5,-459 313.5,-459 387.5,-459 387.5,-459 393.5,-459 399.5,-465 399.5,-471 399.5,-471 399.5,-483 399.5,-483 399.5,-489 393.5,-495 387.5,-495"/>
<text text-anchor="middle" x="350.5" y="-473.3" font-family="Helvetica,sans-Serif" font-size="14.00">mnt_comp3</text>
</g>
<!-- mnt_comp2&#45;&gt;mnt_comp3 -->
<g id="edge3" class="edge">
<title>mnt_comp2&#45;&gt;mnt_comp3</title>
<path fill="none" stroke="black" stroke-width="1.2" d="M265.53,-477C273.81,-477 282.5,-477 291.02,-477"/>
<polygon fill="black" stroke="black" stroke-width="1.2" points="291.29,-480.5 301.29,-477 291.29,-473.5 291.29,-480.5"/>
</g>
<!-- mnt_comp4 -->
<g id="node13" class="node">
<title>mnt_comp4</title>
<path fill="white" stroke="black" d="M253.5,-641C253.5,-641 179.5,-641 179.5,-641 173.5,-641 167.5,-635 167.5,-629 167.5,-629 167.5,-617 167.5,-617 167.5,-611 173.5,-605 179.5,-605 179.5,-605 253.5,-605 253.5,-605 259.5,-605 265.5,-611 265.5,-617 265.5,-617 265.5,-629 265.5,-629 265.5,-635 259.5,-641 253.5,-641"/>
<text text-anchor="middle" x="216.5" y="-619.3" font-family="Helvetica,sans-Serif" font-size="14.00">mnt_comp4</text>
</g>
<!-- fail_comp1 -->
<g id="node14" class="node">
<title>fail_comp1</title>
<path fill="white" stroke="black" d="M119.5,-541C119.5,-541 51.5,-541 51.5,-541 45.5,-541 39.5,-535 39.5,-529 39.5,-529 39.5,-517 39.5,-517 39.5,-511 45.5,-505 51.5,-505 51.5,-505 119.5,-505 119.5,-505 125.5,-505 131.5,-511 131.5,-517 131.5,-517 131.5,-529 131.5,-529 131.5,-535 125.5,-541 119.5,-541"/>
<text text-anchor="middle" x="85.5" y="-519.3" font-family="Helvetica,sans-Serif" font-size="14.00">fail_comp1</text>
</g>
<!-- fail_comp1&#45;&gt;mnt_comp1 -->
<g id="edge2" class="edge">
<title>fail_comp1&#45;&gt;mnt_comp1</title>
<path fill="none" stroke="black" stroke-width="1.2" d="M131.62,-539.09C139.96,-542.06 148.78,-545.21 157.44,-548.3"/>
<polygon fill="black" stroke="black" stroke-width="1.2" points="156.52,-551.68 167.12,-551.75 158.87,-545.09 156.52,-551.68"/>
</g>
<!-- fail_comp1&#45;&gt;mnt_comp2 -->
<g id="edge4" class="edge">
<title>fail_comp1&#45;&gt;mnt_comp2</title>
<path fill="none" stroke="black" stroke-width="1.2" d="M131.62,-506.91C139.96,-503.94 148.78,-500.79 157.44,-497.7"/>
<polygon fill="black" stroke="black" stroke-width="1.2" points="158.87,-500.91 167.12,-494.25 156.52,-494.32 158.87,-500.91"/>
</g>
<!-- fail_comp1&#45;&gt;mnt_comp3 -->
<g id="edge6" class="edge">
<title>fail_comp1&#45;&gt;mnt_comp3</title>
<path fill="none" stroke="black" stroke-width="1.2" d="M131.77,-520.77C168.21,-518.36 220.55,-513.5 265.5,-504 273.99,-502.2 282.84,-499.88 291.47,-497.35"/>
<polygon fill="black" stroke="black" stroke-width="1.2" points="292.55,-500.68 301.1,-494.42 290.51,-493.98 292.55,-500.68"/>
</g>
<!-- fail_comp2 -->
<g id="node15" class="node">
<title>fail_comp2</title>
<path fill="white" stroke="black" d="M119.5,-468C119.5,-468 51.5,-468 51.5,-468 45.5,-468 39.5,-462 39.5,-456 39.5,-456 39.5,-444 39.5,-444 39.5,-438 45.5,-432 51.5,-432 51.5,-432 119.5,-432 119.5,-432 125.5,-432 131.5,-438 131.5,-444 131.5,-444 131.5,-456 131.5,-456 131.5,-462 125.5,-468 119.5,-468"/>
<text text-anchor="middle" x="85.5" y="-446.3" font-family="Helvetica,sans-Serif" font-size="14.00">fail_comp2</text>
</g>
<!-- fail_comp2&#45;&gt;mnt_comp2 -->
<g id="edge5" class="edge">
<title>fail_comp2&#45;&gt;mnt_comp2</title>
<path fill="none" stroke="black" stroke-width="1.2" d="M131.62,-459.44C139.87,-461.17 148.59,-462.99 157.16,-464.79"/>
<polygon fill="black" stroke="black" stroke-width="1.2" points="156.61,-468.25 167.12,-466.87 158.04,-461.4 156.61,-468.25"/>
</g>
<!-- fail_comp2&#45;&gt;mnt_comp3 -->
<g id="edge7" class="edge">
<title>fail_comp2&#45;&gt;mnt_comp3</title>
<path fill="none" stroke="black" stroke-width="1.2" d="M131.67,-446.15C168.05,-443.98 220.37,-442.93 265.5,-450 274.3,-451.38 283.43,-453.52 292.29,-456.02"/>
<polygon fill="black" stroke="black" stroke-width="1.2" points="291.57,-459.45 302.15,-458.95 293.57,-452.74 291.57,-459.45"/>
</g>
<!-- fail_comp4 -->
<g id="node16" class="node">
<title>fail_comp4</title>
<path fill="white" stroke="black" d="M119.5,-641C119.5,-641 51.5,-641 51.5,-641 45.5,-641 39.5,-635 39.5,-629 39.5,-629 39.5,-617 39.5,-617 39.5,-611 45.5,-605 51.5,-605 51.5,-605 119.5,-605 119.5,-605 125.5,-605 131.5,-611 131.5,-617 131.5,-617 131.5,-629 131.5,-629 131.5,-635 125.5,-641 119.5,-641"/>
<text text-anchor="middle" x="85.5" y="-619.3" font-family="Helvetica,sans-Serif" font-size="14.00">fail_comp4</text>
</g>
<!-- fail_comp4&#45;&gt;mnt_comp4 -->
<g id="edge8" class="edge">
<title>fail_comp4&#45;&gt;mnt_comp4</title>
<path fill="none" stroke="black" stroke-width="1.2" d="M131.62,-623C139.78,-623 148.4,-623 156.88,-623"/>
<polygon fill="black" stroke="black" stroke-width="1.2" points="157.12,-626.5 167.12,-623 157.12,-619.5 157.12,-626.5"/>
</g>
</g>
</svg>
