<?xml version="1.0" encoding="UTF-8" standalone="no"?>
<!DOCTYPE svg PUBLIC "-//W3C//DTD SVG 1.1//EN"
 "http://www.w3.org/Graphics/SVG/1.1/DTD/svg11.dtd">
<!-- Generated by graphviz version 2.50.0 (0)
 -->
<!-- Title: G Pages: 1 -->
<svg width="751pt" height="538pt"
 viewBox="0.00 0.00 751.00 538.00" xmlns="http://www.w3.org/2000/svg" xmlns:xlink="http://www.w3.org/1999/xlink">
<g id="graph0" class="graph" transform="scale(1 1) rotate(0) translate(4 534)">
<title>G</title>
<polygon fill="white" stroke="transparent" points="-4,4 -4,-534 747,-534 747,4 -4,4"/>
<text text-anchor="middle" x="371.5" y="-513.2" font-family="Times,serif" font-size="16.00">model=model1/varlingam_mixed.json [machine 85]</text>
<!-- volt -->
<g id="node1" class="node">
<title>volt</title>
<path fill="white" stroke="black" d="M313,-182C313,-182 283,-182 283,-182 277,-182 271,-176 271,-170 271,-170 271,-158 271,-158 271,-152 277,-146 283,-146 283,-146 313,-146 313,-146 319,-146 325,-152 325,-158 325,-158 325,-170 325,-170 325,-176 319,-182 313,-182"/>
<text text-anchor="middle" x="298" y="-160.3" font-family="Helvetica,sans-Serif" font-size="14.00">volt</text>
</g>
<!-- rotate -->
<g id="node2" class="node">
<title>rotate</title>
<path fill="white" stroke="black" d="M314.5,-274C314.5,-274 281.5,-274 281.5,-274 275.5,-274 269.5,-268 269.5,-262 269.5,-262 269.5,-250 269.5,-250 269.5,-244 275.5,-238 281.5,-238 281.5,-238 314.5,-238 314.5,-238 320.5,-238 326.5,-244 326.5,-250 326.5,-250 326.5,-262 326.5,-262 326.5,-268 320.5,-274 314.5,-274"/>
<text text-anchor="middle" x="298" y="-252.3" font-family="Helvetica,sans-Serif" font-size="14.00">rotate</text>
</g>
<!-- fail_comp2 -->
<g id="node15" class="node">
<title>fail_comp2</title>
<path fill="white" stroke="black" d="M463,-358C463,-358 395,-358 395,-358 389,-358 383,-352 383,-346 383,-346 383,-334 383,-334 383,-328 389,-322 395,-322 395,-322 463,-322 463,-322 469,-322 475,-328 475,-334 475,-334 475,-346 475,-346 475,-352 469,-358 463,-358"/>
<text text-anchor="middle" x="429" y="-336.3" font-family="Helvetica,sans-Serif" font-size="14.00">fail_comp2</text>
</g>
<!-- rotate&#45;&gt;fail_comp2 -->
<g id="edge2" class="edge">
<title>rotate&#45;&gt;fail_comp2</title>
<path fill="none" stroke="black" stroke-width="1.2" d="M326.67,-274.02C345.59,-286.34 370.86,-302.79 391.43,-316.19"/>
<polygon fill="black" stroke="black" stroke-width="1.2" points="389.64,-319.2 399.93,-321.72 393.46,-313.33 389.64,-319.2"/>
</g>
<!-- pressure -->
<g id="node3" class="node">
<title>pressure</title>
<path fill="white" stroke="black" d="M586.5,-40C586.5,-40 533.5,-40 533.5,-40 527.5,-40 521.5,-34 521.5,-28 521.5,-28 521.5,-16 521.5,-16 521.5,-10 527.5,-4 533.5,-4 533.5,-4 586.5,-4 586.5,-4 592.5,-4 598.5,-10 598.5,-16 598.5,-16 598.5,-28 598.5,-28 598.5,-34 592.5,-40 586.5,-40"/>
<text text-anchor="middle" x="560" y="-18.3" font-family="Helvetica,sans-Serif" font-size="14.00">pressure</text>
</g>
<!-- vibration -->
<g id="node4" class="node">
<title>vibration</title>
<path fill="white" stroke="black" d="M69.5,-159C69.5,-159 15.5,-159 15.5,-159 9.5,-159 3.5,-153 3.5,-147 3.5,-147 3.5,-135 3.5,-135 3.5,-129 9.5,-123 15.5,-123 15.5,-123 69.5,-123 69.5,-123 75.5,-123 81.5,-129 81.5,-135 81.5,-135 81.5,-147 81.5,-147 81.5,-153 75.5,-159 69.5,-159"/>
<text text-anchor="middle" x="42.5" y="-137.3" font-family="Helvetica,sans-Serif" font-size="14.00">vibration</text>
</g>
<!-- fail_comp4 -->
<g id="node17" class="node">
<title>fail_comp4</title>
<path fill="white" stroke="black" d="M201,-159C201,-159 133,-159 133,-159 127,-159 121,-153 121,-147 121,-147 121,-135 121,-135 121,-129 127,-123 133,-123 133,-123 201,-123 201,-123 207,-123 213,-129 213,-135 213,-135 213,-147 213,-147 213,-153 207,-159 201,-159"/>
<text text-anchor="middle" x="167" y="-137.3" font-family="Helvetica,sans-Serif" font-size="14.00">fail_comp4</text>
</g>
<!-- vibration&#45;&gt;fail_comp4 -->
<g id="edge6" class="edge">
<title>vibration&#45;&gt;fail_comp4</title>
<path fill="none" stroke="black" stroke-width="1.2" d="M81.59,-141C90.76,-141 100.75,-141 110.54,-141"/>
<polygon fill="black" stroke="black" stroke-width="1.2" points="110.62,-144.5 120.62,-141 110.62,-137.5 110.62,-144.5"/>
</g>
<!-- err_error1 -->
<g id="node5" class="node">
<title>err_error1</title>
<path fill="white" stroke="black" d="M590.5,-450C590.5,-450 529.5,-450 529.5,-450 523.5,-450 517.5,-444 517.5,-438 517.5,-438 517.5,-426 517.5,-426 517.5,-420 523.5,-414 529.5,-414 529.5,-414 590.5,-414 590.5,-414 596.5,-414 602.5,-420 602.5,-426 602.5,-426 602.5,-438 602.5,-438 602.5,-444 596.5,-450 590.5,-450"/>
<text text-anchor="middle" x="560" y="-428.3" font-family="Helvetica,sans-Serif" font-size="14.00">err_error1</text>
</g>
<!-- err_error2 -->
<g id="node6" class="node">
<title>err_error2</title>
<path fill="white" stroke="black" d="M724.5,-450C724.5,-450 663.5,-450 663.5,-450 657.5,-450 651.5,-444 651.5,-438 651.5,-438 651.5,-426 651.5,-426 651.5,-420 657.5,-414 663.5,-414 663.5,-414 724.5,-414 724.5,-414 730.5,-414 736.5,-420 736.5,-426 736.5,-426 736.5,-438 736.5,-438 736.5,-444 730.5,-450 724.5,-450"/>
<text text-anchor="middle" x="694" y="-428.3" font-family="Helvetica,sans-Serif" font-size="14.00">err_error2</text>
</g>
<!-- err_error1&#45;&gt;err_error2 -->
<g id="edge7" class="edge">
<title>err_error1&#45;&gt;err_error2</title>
<path fill="none" stroke="black" stroke-width="1.2" d="M602.77,-432C614.8,-432 628.09,-432 640.68,-432"/>
<polygon fill="black" stroke="black" stroke-width="1.2" points="641.05,-435.5 651.05,-432 641.05,-428.5 641.05,-435.5"/>
</g>
<!-- err_error3 -->
<g id="node7" class="node">
<title>err_error3</title>
<path fill="white" stroke="black" d="M590.5,-504C590.5,-504 529.5,-504 529.5,-504 523.5,-504 517.5,-498 517.5,-492 517.5,-492 517.5,-480 517.5,-480 517.5,-474 523.5,-468 529.5,-468 529.5,-468 590.5,-468 590.5,-468 596.5,-468 602.5,-474 602.5,-480 602.5,-480 602.5,-492 602.5,-492 602.5,-498 596.5,-504 590.5,-504"/>
<text text-anchor="middle" x="560" y="-482.3" font-family="Helvetica,sans-Serif" font-size="14.00">err_error3</text>
</g>
<!-- err_error3&#45;&gt;err_error2 -->
<g id="edge8" class="edge">
<title>err_error3&#45;&gt;err_error2</title>
<path fill="none" stroke="black" stroke-width="1.2" d="M602.77,-468.91C615.04,-463.89 628.62,-458.34 641.44,-453.09"/>
<polygon fill="black" stroke="black" stroke-width="1.2" points="643.12,-456.19 651.05,-449.16 640.47,-449.71 643.12,-456.19"/>
</g>
<!-- err_error4 -->
<g id="node8" class="node">
<title>err_error4</title>
<path fill="white" stroke="black" d="M459.5,-36C459.5,-36 398.5,-36 398.5,-36 392.5,-36 386.5,-30 386.5,-24 386.5,-24 386.5,-12 386.5,-12 386.5,-6 392.5,0 398.5,0 398.5,0 459.5,0 459.5,0 465.5,0 471.5,-6 471.5,-12 471.5,-12 471.5,-24 471.5,-24 471.5,-30 465.5,-36 459.5,-36"/>
<text text-anchor="middle" x="429" y="-14.3" font-family="Helvetica,sans-Serif" font-size="14.00">err_error4</text>
</g>
<!-- err_error4&#45;&gt;pressure -->
<g id="edge4" class="edge">
<title>err_error4&#45;&gt;pressure</title>
<path fill="none" stroke="black" stroke-width="1.2" d="M471.53,-19.29C484.2,-19.68 498.23,-20.12 511.27,-20.52"/>
<polygon fill="black" stroke="black" stroke-width="1.2" points="511.38,-24.02 521.48,-20.84 511.59,-17.03 511.38,-24.02"/>
</g>
<!-- err_error5 -->
<g id="node9" class="node">
<title>err_error5</title>
<path fill="white" stroke="black" d="M73,-213C73,-213 12,-213 12,-213 6,-213 0,-207 0,-201 0,-201 0,-189 0,-189 0,-183 6,-177 12,-177 12,-177 73,-177 73,-177 79,-177 85,-183 85,-189 85,-189 85,-201 85,-201 85,-207 79,-213 73,-213"/>
<text text-anchor="middle" x="42.5" y="-191.3" font-family="Helvetica,sans-Serif" font-size="14.00">err_error5</text>
</g>
<!-- mnt_comp1 -->
<g id="node10" class="node">
<title>mnt_comp1</title>
<path fill="white" stroke="black" d="M335,-404C335,-404 261,-404 261,-404 255,-404 249,-398 249,-392 249,-392 249,-380 249,-380 249,-374 255,-368 261,-368 261,-368 335,-368 335,-368 341,-368 347,-374 347,-380 347,-380 347,-392 347,-392 347,-398 341,-404 335,-404"/>
<text text-anchor="middle" x="298" y="-382.3" font-family="Helvetica,sans-Serif" font-size="14.00">mnt_comp1</text>
</g>
<!-- mnt_comp1&#45;&gt;err_error3 -->
<g id="edge10" class="edge">
<title>mnt_comp1&#45;&gt;err_error3</title>
<path fill="none" stroke="black" stroke-width="1.2" d="M346.08,-404.11C391.81,-421.7 461.03,-448.32 508.03,-466.4"/>
<polygon fill="black" stroke="black" stroke-width="1.2" points="506.82,-469.68 517.41,-470.01 509.34,-463.15 506.82,-469.68"/>
</g>
<!-- mnt_comp3 -->
<g id="node12" class="node">
<title>mnt_comp3</title>
<path fill="white" stroke="black" d="M731,-259C731,-259 657,-259 657,-259 651,-259 645,-253 645,-247 645,-247 645,-235 645,-235 645,-229 651,-223 657,-223 657,-223 731,-223 731,-223 737,-223 743,-229 743,-235 743,-235 743,-247 743,-247 743,-253 737,-259 731,-259"/>
<text text-anchor="middle" x="694" y="-237.3" font-family="Helvetica,sans-Serif" font-size="14.00">mnt_comp3</text>
</g>
<!-- mnt_comp1&#45;&gt;mnt_comp3 -->
<g id="edge12" class="edge">
<title>mnt_comp1&#45;&gt;mnt_comp3</title>
<path fill="none" stroke="black" stroke-width="1.2" d="M347.2,-385.4C411.41,-382.56 526.47,-370.15 609,-320 632.59,-305.67 655.14,-283.85 670.92,-266.78"/>
<polygon fill="black" stroke="black" stroke-width="1.2" points="673.56,-269.08 677.68,-259.31 668.37,-264.38 673.56,-269.08"/>
</g>
<!-- mnt_comp1&#45;&gt;fail_comp2 -->
<g id="edge14" class="edge">
<title>mnt_comp1&#45;&gt;fail_comp2</title>
<path fill="none" stroke="black" stroke-width="1.2" d="M347.03,-368.87C355.57,-365.83 364.52,-362.64 373.22,-359.53"/>
<polygon fill="black" stroke="black" stroke-width="1.2" points="374.67,-362.73 382.92,-356.08 372.32,-356.14 374.67,-362.73"/>
</g>
<!-- mnt_comp2 -->
<g id="node11" class="node">
<title>mnt_comp2</title>
<path fill="white" stroke="black" d="M597,-282C597,-282 523,-282 523,-282 517,-282 511,-276 511,-270 511,-270 511,-258 511,-258 511,-252 517,-246 523,-246 523,-246 597,-246 597,-246 603,-246 609,-252 609,-258 609,-258 609,-270 609,-270 609,-276 603,-282 597,-282"/>
<text text-anchor="middle" x="560" y="-260.3" font-family="Helvetica,sans-Serif" font-size="14.00">mnt_comp2</text>
</g>
<!-- mnt_comp2&#45;&gt;mnt_comp3 -->
<g id="edge15" class="edge">
<title>mnt_comp2&#45;&gt;mnt_comp3</title>
<path fill="none" stroke="black" stroke-width="1.2" d="M609.03,-255.63C617.4,-254.17 626.19,-252.64 634.8,-251.14"/>
<polygon fill="black" stroke="black" stroke-width="1.2" points="635.54,-254.57 644.79,-249.4 634.33,-247.67 635.54,-254.57"/>
</g>
<!-- mnt_comp4 -->
<g id="node13" class="node">
<title>mnt_comp4</title>
<path fill="white" stroke="black" d="M335,-52C335,-52 261,-52 261,-52 255,-52 249,-46 249,-40 249,-40 249,-28 249,-28 249,-22 255,-16 261,-16 261,-16 335,-16 335,-16 341,-16 347,-22 347,-28 347,-28 347,-40 347,-40 347,-46 341,-52 335,-52"/>
<text text-anchor="middle" x="298" y="-30.3" font-family="Helvetica,sans-Serif" font-size="14.00">mnt_comp4</text>
</g>
<!-- fail_comp3 -->
<g id="node16" class="node">
<title>fail_comp3</title>
<path fill="white" stroke="black" d="M463,-90C463,-90 395,-90 395,-90 389,-90 383,-84 383,-78 383,-78 383,-66 383,-66 383,-60 389,-54 395,-54 395,-54 463,-54 463,-54 469,-54 475,-60 475,-66 475,-66 475,-78 475,-78 475,-84 469,-90 463,-90"/>
<text text-anchor="middle" x="429" y="-68.3" font-family="Helvetica,sans-Serif" font-size="14.00">fail_comp3</text>
</g>
<!-- mnt_comp4&#45;&gt;fail_comp3 -->
<g id="edge22" class="edge">
<title>mnt_comp4&#45;&gt;fail_comp3</title>
<path fill="none" stroke="black" stroke-width="1.2" d="M347.03,-48.15C355.57,-50.66 364.52,-53.3 373.22,-55.86"/>
<polygon fill="black" stroke="black" stroke-width="1.2" points="372.33,-59.25 382.92,-58.72 374.31,-52.54 372.33,-59.25"/>
</g>
<!-- fail_comp1 -->
<g id="node14" class="node">
<title>fail_comp1</title>
<path fill="white" stroke="black" d="M201,-358C201,-358 133,-358 133,-358 127,-358 121,-352 121,-346 121,-346 121,-334 121,-334 121,-328 127,-322 133,-322 133,-322 201,-322 201,-322 207,-322 213,-328 213,-334 213,-334 213,-346 213,-346 213,-352 207,-358 201,-358"/>
<text text-anchor="middle" x="167" y="-336.3" font-family="Helvetica,sans-Serif" font-size="14.00">fail_comp1</text>
</g>
<!-- fail_comp1&#45;&gt;mnt_comp1 -->
<g id="edge13" class="edge">
<title>fail_comp1&#45;&gt;mnt_comp1</title>
<path fill="none" stroke="black" stroke-width="1.2" d="M213.12,-356.09C221.46,-359.06 230.28,-362.21 238.94,-365.3"/>
<polygon fill="black" stroke="black" stroke-width="1.2" points="238.02,-368.68 248.62,-368.75 240.37,-362.09 238.02,-368.68"/>
</g>
<!-- fail_comp1&#45;&gt;mnt_comp3 -->
<g id="edge18" class="edge">
<title>fail_comp1&#45;&gt;mnt_comp3</title>
<path fill="none" stroke="black" stroke-width="1.2" d="M213.03,-325.68C299.1,-298.42 481.13,-241.39 511,-237 551.98,-230.98 598.71,-232.17 634.55,-234.77"/>
<polygon fill="black" stroke="black" stroke-width="1.2" points="634.59,-238.28 644.83,-235.57 635.13,-231.3 634.59,-238.28"/>
</g>
<!-- fail_comp1&#45;&gt;fail_comp2 -->
<g id="edge24" class="edge">
<title>fail_comp1&#45;&gt;fail_comp2</title>
<path fill="none" stroke="black" stroke-width="1.2" d="M213.29,-340C257.61,-340 325.21,-340 372.69,-340"/>
<polygon fill="black" stroke="black" stroke-width="1.2" points="372.8,-343.5 382.8,-340 372.79,-336.5 372.8,-343.5"/>
</g>
<!-- fail_comp2&#45;&gt;err_error2 -->
<g id="edge9" class="edge">
<title>fail_comp2&#45;&gt;err_error2</title>
<path fill="none" stroke="black" stroke-width="1.2" d="M475.21,-355.82C521.52,-372.01 593.38,-397.15 641.76,-414.08"/>
<polygon fill="black" stroke="black" stroke-width="1.2" points="640.81,-417.45 651.41,-417.45 643.13,-410.85 640.81,-417.45"/>
</g>
<!-- fail_comp2&#45;&gt;err_error3 -->
<g id="edge11" class="edge">
<title>fail_comp2&#45;&gt;err_error3</title>
<path fill="none" stroke="black" stroke-width="1.2" d="M438.85,-358.03C451.87,-383.13 478.23,-428.91 511,-459 512.1,-460.01 513.25,-461 514.43,-461.96"/>
<polygon fill="black" stroke="black" stroke-width="1.2" points="512.48,-464.88 522.62,-467.97 516.62,-459.23 512.48,-464.88"/>
</g>
<!-- fail_comp2&#45;&gt;mnt_comp2 -->
<g id="edge16" class="edge">
<title>fail_comp2&#45;&gt;mnt_comp2</title>
<path fill="none" stroke="black" stroke-width="1.2" d="M460.57,-321.99C478.19,-311.61 500.54,-298.44 519.49,-287.28"/>
<polygon fill="black" stroke="black" stroke-width="1.2" points="521.36,-290.24 528.2,-282.15 517.81,-284.21 521.36,-290.24"/>
</g>
<!-- fail_comp2&#45;&gt;mnt_comp3 -->
<g id="edge19" class="edge">
<title>fail_comp2&#45;&gt;mnt_comp3</title>
<path fill="none" stroke="black" stroke-width="1.2" d="M475.26,-331.16C512.15,-323.12 565.12,-309.66 609,-291 625.81,-283.85 643.34,-273.87 658.01,-264.71"/>
<polygon fill="black" stroke="black" stroke-width="1.2" points="660.19,-267.47 666.74,-259.14 656.43,-261.57 660.19,-267.47"/>
</g>
<!-- fail_comp3&#45;&gt;pressure -->
<g id="edge5" class="edge">
<title>fail_comp3&#45;&gt;pressure</title>
<path fill="none" stroke="black" stroke-width="1.2" d="M475.12,-54.51C487.04,-49.89 499.94,-44.89 511.97,-40.23"/>
<polygon fill="black" stroke="black" stroke-width="1.2" points="513.33,-43.46 521.38,-36.58 510.8,-36.93 513.33,-43.46"/>
</g>
<!-- fail_comp3&#45;&gt;mnt_comp3 -->
<g id="edge20" class="edge">
<title>fail_comp3&#45;&gt;mnt_comp3</title>
<path fill="none" stroke="black" stroke-width="1.2" d="M475.38,-70.17C514.06,-70.78 569.5,-77.04 609,-104 647.89,-130.54 672,-181.61 683.93,-213.35"/>
<polygon fill="black" stroke="black" stroke-width="1.2" points="680.69,-214.69 687.37,-222.92 687.28,-212.32 680.69,-214.69"/>
</g>
<!-- fail_comp4&#45;&gt;volt -->
<g id="edge1" class="edge">
<title>fail_comp4&#45;&gt;volt</title>
<path fill="none" stroke="black" stroke-width="1.2" d="M213.12,-149.04C228.67,-151.82 245.88,-154.89 260.64,-157.52"/>
<polygon fill="black" stroke="black" stroke-width="1.2" points="260.44,-161.04 270.9,-159.35 261.67,-154.15 260.44,-161.04"/>
</g>
<!-- fail_comp4&#45;&gt;rotate -->
<g id="edge3" class="edge">
<title>fail_comp4&#45;&gt;rotate</title>
<path fill="none" stroke="black" stroke-width="1.2" d="M183.76,-159.24C199.4,-176.83 224.52,-203.68 249,-224 252.75,-227.11 256.81,-230.2 260.93,-233.16"/>
<polygon fill="black" stroke="black" stroke-width="1.2" points="259.17,-236.19 269.38,-239.02 263.15,-230.44 259.17,-236.19"/>
</g>
<!-- fail_comp4&#45;&gt;mnt_comp2 -->
<g id="edge17" class="edge">
<title>fail_comp4&#45;&gt;mnt_comp2</title>
<path fill="none" stroke="black" stroke-width="1.2" d="M192.77,-159.2C208.25,-169.83 228.99,-182.73 249,-191 332.97,-225.73 436.89,-245.95 500.54,-255.98"/>
<polygon fill="black" stroke="black" stroke-width="1.2" points="500.37,-259.5 510.79,-257.56 501.44,-252.58 500.37,-259.5"/>
</g>
<!-- fail_comp4&#45;&gt;mnt_comp3 -->
<g id="edge21" class="edge">
<title>fail_comp4&#45;&gt;mnt_comp3</title>
<path fill="none" stroke="black" stroke-width="1.2" d="M213.13,-135.83C249.48,-132.66 301.79,-130.35 347,-137 453.02,-152.59 571.64,-193.69 638.81,-219.31"/>
<polygon fill="black" stroke="black" stroke-width="1.2" points="637.75,-222.65 648.34,-222.97 640.27,-216.12 637.75,-222.65"/>
</g>
<!-- fail_comp4&#45;&gt;mnt_comp4 -->
<g id="edge23" class="edge">
<title>fail_comp4&#45;&gt;mnt_comp4</title>
<path fill="none" stroke="black" stroke-width="1.2" d="M185.92,-122.85C201.86,-107.09 226.12,-84.03 249,-66 252.5,-63.24 256.24,-60.47 260.02,-57.78"/>
<polygon fill="black" stroke="black" stroke-width="1.2" points="262.07,-60.62 268.3,-52.05 258.08,-54.87 262.07,-60.62"/>
</g>
<!-- fail_comp4&#45;&gt;fail_comp3 -->
<g id="edge25" class="edge">
<title>fail_comp4&#45;&gt;fail_comp3</title>
<path fill="none" stroke="black" stroke-width="1.2" d="M202.33,-123C216.47,-116.2 233.21,-108.93 249,-104 289.45,-91.37 336.7,-83.18 372.5,-78.26"/>
<polygon fill="black" stroke="black" stroke-width="1.2" points="373.3,-81.68 382.75,-76.89 372.37,-74.74 373.3,-81.68"/>
</g>
</g>
</svg>
