<?xml version="1.0" encoding="UTF-8" standalone="no"?>
<!DOCTYPE svg PUBLIC "-//W3C//DTD SVG 1.1//EN"
 "http://www.w3.org/Graphics/SVG/1.1/DTD/svg11.dtd">
<!-- Generated by graphviz version 2.50.0 (0)
 -->
<!-- Title: G Pages: 1 -->
<svg width="723pt" height="640pt"
 viewBox="0.00 0.00 723.00 640.00" xmlns="http://www.w3.org/2000/svg" xmlns:xlink="http://www.w3.org/1999/xlink">
<g id="graph0" class="graph" transform="scale(1 1) rotate(0) translate(4 636)">
<title>G</title>
<polygon fill="white" stroke="transparent" points="-4,4 -4,-636 719,-636 719,4 -4,4"/>
<text text-anchor="middle" x="357.5" y="-615.2" font-family="Times,serif" font-size="16.00">model=model1/varlingam_mixed.json [machine 17]</text>
<!-- volt -->
<g id="node1" class="node">
<title>volt</title>
<path fill="white" stroke="black" d="M61,-376C61,-376 31,-376 31,-376 25,-376 19,-370 19,-364 19,-364 19,-352 19,-352 19,-346 25,-340 31,-340 31,-340 61,-340 61,-340 67,-340 73,-346 73,-352 73,-352 73,-364 73,-364 73,-370 67,-376 61,-376"/>
<text text-anchor="middle" x="46" y="-354.3" font-family="Helvetica,sans-Serif" font-size="14.00">volt</text>
</g>
<!-- fail_comp1 -->
<g id="node14" class="node">
<title>fail_comp1</title>
<path fill="white" stroke="black" d="M211,-376C211,-376 143,-376 143,-376 137,-376 131,-370 131,-364 131,-364 131,-352 131,-352 131,-346 137,-340 143,-340 143,-340 211,-340 211,-340 217,-340 223,-346 223,-352 223,-352 223,-364 223,-364 223,-370 217,-376 211,-376"/>
<text text-anchor="middle" x="177" y="-354.3" font-family="Helvetica,sans-Serif" font-size="14.00">fail_comp1</text>
</g>
<!-- volt&#45;&gt;fail_comp1 -->
<g id="edge1" class="edge">
<title>volt&#45;&gt;fail_comp1</title>
<path fill="none" stroke="black" stroke-width="1.2" d="M73.11,-358C86.82,-358 104.18,-358 120.72,-358"/>
<polygon fill="black" stroke="black" stroke-width="1.2" points="120.87,-361.5 130.87,-358 120.87,-354.5 120.87,-361.5"/>
</g>
<!-- rotate -->
<g id="node2" class="node">
<title>rotate</title>
<path fill="white" stroke="black" d="M703,-463C703,-463 670,-463 670,-463 664,-463 658,-457 658,-451 658,-451 658,-439 658,-439 658,-433 664,-427 670,-427 670,-427 703,-427 703,-427 709,-427 715,-433 715,-439 715,-439 715,-451 715,-451 715,-457 709,-463 703,-463"/>
<text text-anchor="middle" x="686.5" y="-441.3" font-family="Helvetica,sans-Serif" font-size="14.00">rotate</text>
</g>
<!-- pressure -->
<g id="node3" class="node">
<title>pressure</title>
<path fill="white" stroke="black" d="M203.5,-36C203.5,-36 150.5,-36 150.5,-36 144.5,-36 138.5,-30 138.5,-24 138.5,-24 138.5,-12 138.5,-12 138.5,-6 144.5,0 150.5,0 150.5,0 203.5,0 203.5,0 209.5,0 215.5,-6 215.5,-12 215.5,-12 215.5,-24 215.5,-24 215.5,-30 209.5,-36 203.5,-36"/>
<text text-anchor="middle" x="177" y="-14.3" font-family="Helvetica,sans-Serif" font-size="14.00">pressure</text>
</g>
<!-- vibration -->
<g id="node4" class="node">
<title>vibration</title>
<path fill="white" stroke="black" d="M600,-338C600,-338 546,-338 546,-338 540,-338 534,-332 534,-326 534,-326 534,-314 534,-314 534,-308 540,-302 546,-302 546,-302 600,-302 600,-302 606,-302 612,-308 612,-314 612,-314 612,-326 612,-326 612,-332 606,-338 600,-338"/>
<text text-anchor="middle" x="573" y="-316.3" font-family="Helvetica,sans-Serif" font-size="14.00">vibration</text>
</g>
<!-- vibration&#45;&gt;rotate -->
<g id="edge2" class="edge">
<title>vibration&#45;&gt;rotate</title>
<path fill="none" stroke="black" stroke-width="1.2" d="M590.21,-338.18C609.21,-359.47 640.81,-394.9 662.37,-419.07"/>
<polygon fill="black" stroke="black" stroke-width="1.2" points="660,-421.67 669.27,-426.8 665.22,-417.01 660,-421.67"/>
</g>
<!-- err_error1 -->
<g id="node5" class="node">
<title>err_error1</title>
<path fill="white" stroke="black" d="M76.5,-430C76.5,-430 15.5,-430 15.5,-430 9.5,-430 3.5,-424 3.5,-418 3.5,-418 3.5,-406 3.5,-406 3.5,-400 9.5,-394 15.5,-394 15.5,-394 76.5,-394 76.5,-394 82.5,-394 88.5,-400 88.5,-406 88.5,-406 88.5,-418 88.5,-418 88.5,-424 82.5,-430 76.5,-430"/>
<text text-anchor="middle" x="46" y="-408.3" font-family="Helvetica,sans-Serif" font-size="14.00">err_error1</text>
</g>
<!-- err_error2 -->
<g id="node6" class="node">
<title>err_error2</title>
<path fill="white" stroke="black" d="M603.5,-486C603.5,-486 542.5,-486 542.5,-486 536.5,-486 530.5,-480 530.5,-474 530.5,-474 530.5,-462 530.5,-462 530.5,-456 536.5,-450 542.5,-450 542.5,-450 603.5,-450 603.5,-450 609.5,-450 615.5,-456 615.5,-462 615.5,-462 615.5,-474 615.5,-474 615.5,-480 609.5,-486 603.5,-486"/>
<text text-anchor="middle" x="573" y="-464.3" font-family="Helvetica,sans-Serif" font-size="14.00">err_error2</text>
</g>
<!-- err_error2&#45;&gt;rotate -->
<g id="edge3" class="edge">
<title>err_error2&#45;&gt;rotate</title>
<path fill="none" stroke="black" stroke-width="1.2" d="M615.52,-459.44C626.11,-457.25 637.43,-454.92 647.81,-452.77"/>
<polygon fill="black" stroke="black" stroke-width="1.2" points="648.74,-456.16 657.82,-450.71 647.32,-449.3 648.74,-456.16"/>
</g>
<!-- err_error3 -->
<g id="node7" class="node">
<title>err_error3</title>
<path fill="white" stroke="black" d="M472.5,-578C472.5,-578 411.5,-578 411.5,-578 405.5,-578 399.5,-572 399.5,-566 399.5,-566 399.5,-554 399.5,-554 399.5,-548 405.5,-542 411.5,-542 411.5,-542 472.5,-542 472.5,-542 478.5,-542 484.5,-548 484.5,-554 484.5,-554 484.5,-566 484.5,-566 484.5,-572 478.5,-578 472.5,-578"/>
<text text-anchor="middle" x="442" y="-556.3" font-family="Helvetica,sans-Serif" font-size="14.00">err_error3</text>
</g>
<!-- err_error3&#45;&gt;err_error2 -->
<g id="edge8" class="edge">
<title>err_error3&#45;&gt;err_error2</title>
<path fill="none" stroke="black" stroke-width="1.2" d="M474.29,-541.88C478.94,-539 483.64,-535.98 488,-533 506.54,-520.33 526.45,-505.01 542.23,-492.42"/>
<polygon fill="black" stroke="black" stroke-width="1.2" points="544.47,-495.11 550.07,-486.12 540.09,-489.65 544.47,-495.11"/>
</g>
<!-- err_error4 -->
<g id="node8" class="node">
<title>err_error4</title>
<path fill="white" stroke="black" d="M472.5,-524C472.5,-524 411.5,-524 411.5,-524 405.5,-524 399.5,-518 399.5,-512 399.5,-512 399.5,-500 399.5,-500 399.5,-494 405.5,-488 411.5,-488 411.5,-488 472.5,-488 472.5,-488 478.5,-488 484.5,-494 484.5,-500 484.5,-500 484.5,-512 484.5,-512 484.5,-518 478.5,-524 472.5,-524"/>
<text text-anchor="middle" x="442" y="-502.3" font-family="Helvetica,sans-Serif" font-size="14.00">err_error4</text>
</g>
<!-- err_error5 -->
<g id="node9" class="node">
<title>err_error5</title>
<path fill="white" stroke="black" d="M341.5,-524C341.5,-524 280.5,-524 280.5,-524 274.5,-524 268.5,-518 268.5,-512 268.5,-512 268.5,-500 268.5,-500 268.5,-494 274.5,-488 280.5,-488 280.5,-488 341.5,-488 341.5,-488 347.5,-488 353.5,-494 353.5,-500 353.5,-500 353.5,-512 353.5,-512 353.5,-518 347.5,-524 341.5,-524"/>
<text text-anchor="middle" x="311" y="-502.3" font-family="Helvetica,sans-Serif" font-size="14.00">err_error5</text>
</g>
<!-- err_error5&#45;&gt;err_error2 -->
<g id="edge9" class="edge">
<title>err_error5&#45;&gt;err_error2</title>
<path fill="none" stroke="black" stroke-width="1.2" d="M353.77,-490.32C367.09,-485.93 382,-481.64 396,-479 437.34,-471.19 485.02,-468.6 520.32,-467.87"/>
<polygon fill="black" stroke="black" stroke-width="1.2" points="520.45,-471.37 530.39,-467.7 520.33,-464.37 520.45,-471.37"/>
</g>
<!-- err_error5&#45;&gt;err_error3 -->
<g id="edge10" class="edge">
<title>err_error5&#45;&gt;err_error3</title>
<path fill="none" stroke="black" stroke-width="1.2" d="M353.53,-523.38C365.03,-528.2 377.66,-533.49 389.66,-538.51"/>
<polygon fill="black" stroke="black" stroke-width="1.2" points="388.53,-541.83 399.11,-542.46 391.24,-535.37 388.53,-541.83"/>
</g>
<!-- err_error5&#45;&gt;err_error4 -->
<g id="edge11" class="edge">
<title>err_error5&#45;&gt;err_error4</title>
<path fill="none" stroke="black" stroke-width="1.2" d="M353.53,-506C364.81,-506 377.16,-506 388.95,-506"/>
<polygon fill="black" stroke="black" stroke-width="1.2" points="389.11,-509.5 399.11,-506 389.11,-502.5 389.11,-509.5"/>
</g>
<!-- mnt_comp1 -->
<g id="node10" class="node">
<title>mnt_comp1</title>
<path fill="white" stroke="black" d="M348,-204C348,-204 274,-204 274,-204 268,-204 262,-198 262,-192 262,-192 262,-180 262,-180 262,-174 268,-168 274,-168 274,-168 348,-168 348,-168 354,-168 360,-174 360,-180 360,-180 360,-192 360,-192 360,-198 354,-204 348,-204"/>
<text text-anchor="middle" x="311" y="-182.3" font-family="Helvetica,sans-Serif" font-size="14.00">mnt_comp1</text>
</g>
<!-- mnt_comp4 -->
<g id="node13" class="node">
<title>mnt_comp4</title>
<path fill="white" stroke="black" d="M610,-227C610,-227 536,-227 536,-227 530,-227 524,-221 524,-215 524,-215 524,-203 524,-203 524,-197 530,-191 536,-191 536,-191 610,-191 610,-191 616,-191 622,-197 622,-203 622,-203 622,-215 622,-215 622,-221 616,-227 610,-227"/>
<text text-anchor="middle" x="573" y="-205.3" font-family="Helvetica,sans-Serif" font-size="14.00">mnt_comp4</text>
</g>
<!-- mnt_comp1&#45;&gt;mnt_comp4 -->
<g id="edge13" class="edge">
<title>mnt_comp1&#45;&gt;mnt_comp4</title>
<path fill="none" stroke="black" stroke-width="1.2" d="M360.29,-190.27C403.71,-194.11 467.57,-199.76 513.8,-203.85"/>
<polygon fill="black" stroke="black" stroke-width="1.2" points="513.69,-207.36 523.96,-204.75 514.31,-200.38 513.69,-207.36"/>
</g>
<!-- fail_comp4 -->
<g id="node17" class="node">
<title>fail_comp4</title>
<path fill="white" stroke="black" d="M476,-250C476,-250 408,-250 408,-250 402,-250 396,-244 396,-238 396,-238 396,-226 396,-226 396,-220 402,-214 408,-214 408,-214 476,-214 476,-214 482,-214 488,-220 488,-226 488,-226 488,-238 488,-238 488,-244 482,-250 476,-250"/>
<text text-anchor="middle" x="442" y="-228.3" font-family="Helvetica,sans-Serif" font-size="14.00">fail_comp4</text>
</g>
<!-- mnt_comp1&#45;&gt;fail_comp4 -->
<g id="edge17" class="edge">
<title>mnt_comp1&#45;&gt;fail_comp4</title>
<path fill="none" stroke="black" stroke-width="1.2" d="M360.03,-203.13C368.57,-206.17 377.52,-209.36 386.22,-212.47"/>
<polygon fill="black" stroke="black" stroke-width="1.2" points="385.32,-215.86 395.92,-215.92 387.67,-209.27 385.32,-215.86"/>
</g>
<!-- mnt_comp2 -->
<g id="node11" class="node">
<title>mnt_comp2</title>
<path fill="white" stroke="black" d="M348,-448C348,-448 274,-448 274,-448 268,-448 262,-442 262,-436 262,-436 262,-424 262,-424 262,-418 268,-412 274,-412 274,-412 348,-412 348,-412 354,-412 360,-418 360,-424 360,-424 360,-436 360,-436 360,-442 354,-448 348,-448"/>
<text text-anchor="middle" x="311" y="-426.3" font-family="Helvetica,sans-Serif" font-size="14.00">mnt_comp2</text>
</g>
<!-- mnt_comp2&#45;&gt;rotate -->
<g id="edge4" class="edge">
<title>mnt_comp2&#45;&gt;rotate</title>
<path fill="none" stroke="black" stroke-width="1.2" d="M360.08,-431.3C421.03,-433.04 529.35,-436.44 622,-441 630.31,-441.41 639.24,-441.92 647.69,-442.45"/>
<polygon fill="black" stroke="black" stroke-width="1.2" points="647.49,-445.94 657.69,-443.08 647.93,-438.96 647.49,-445.94"/>
</g>
<!-- mnt_comp3 -->
<g id="node12" class="node">
<title>mnt_comp3</title>
<path fill="white" stroke="black" d="M214,-128C214,-128 140,-128 140,-128 134,-128 128,-122 128,-116 128,-116 128,-104 128,-104 128,-98 134,-92 140,-92 140,-92 214,-92 214,-92 220,-92 226,-98 226,-104 226,-104 226,-116 226,-116 226,-122 220,-128 214,-128"/>
<text text-anchor="middle" x="177" y="-106.3" font-family="Helvetica,sans-Serif" font-size="14.00">mnt_comp3</text>
</g>
<!-- mnt_comp3&#45;&gt;mnt_comp1 -->
<g id="edge12" class="edge">
<title>mnt_comp3&#45;&gt;mnt_comp1</title>
<path fill="none" stroke="black" stroke-width="1.2" d="M209.28,-128.01C227.32,-138.39 250.18,-151.56 269.57,-162.72"/>
<polygon fill="black" stroke="black" stroke-width="1.2" points="268.07,-165.9 278.48,-167.85 271.57,-159.83 268.07,-165.9"/>
</g>
<!-- mnt_comp3&#45;&gt;mnt_comp4 -->
<g id="edge20" class="edge">
<title>mnt_comp3&#45;&gt;mnt_comp4</title>
<path fill="none" stroke="black" stroke-width="1.2" d="M226.14,-108.59C263.19,-108.53 315.43,-110.71 360,-121 421.19,-135.13 487.37,-165.21 529.22,-186.25"/>
<polygon fill="black" stroke="black" stroke-width="1.2" points="527.79,-189.44 538.29,-190.85 530.96,-183.2 527.79,-189.44"/>
</g>
<!-- mnt_comp3&#45;&gt;fail_comp4 -->
<g id="edge23" class="edge">
<title>mnt_comp3&#45;&gt;fail_comp4</title>
<path fill="none" stroke="black" stroke-width="1.2" d="M226.3,-116.65C264.37,-123.36 317.89,-136.09 360,-159 382.29,-171.13 403.45,-190.57 418.55,-206.35"/>
<polygon fill="black" stroke="black" stroke-width="1.2" points="416.07,-208.82 425.45,-213.75 421.19,-204.05 416.07,-208.82"/>
</g>
<!-- fail_comp1&#45;&gt;mnt_comp1 -->
<g id="edge14" class="edge">
<title>fail_comp1&#45;&gt;mnt_comp1</title>
<path fill="none" stroke="black" stroke-width="1.2" d="M191.88,-339.92C215.35,-309.34 262.96,-247.29 290.02,-212.03"/>
<polygon fill="black" stroke="black" stroke-width="1.2" points="292.8,-214.16 296.11,-204.1 287.25,-209.9 292.8,-214.16"/>
</g>
<!-- fail_comp1&#45;&gt;mnt_comp2 -->
<g id="edge18" class="edge">
<title>fail_comp1&#45;&gt;mnt_comp2</title>
<path fill="none" stroke="black" stroke-width="1.2" d="M211.31,-376.17C228.43,-385.51 249.47,-396.98 267.72,-406.94"/>
<polygon fill="black" stroke="black" stroke-width="1.2" points="266.25,-410.12 276.7,-411.84 269.6,-403.98 266.25,-410.12"/>
</g>
<!-- fail_comp1&#45;&gt;mnt_comp4 -->
<g id="edge24" class="edge">
<title>fail_comp1&#45;&gt;mnt_comp4</title>
<path fill="none" stroke="black" stroke-width="1.2" d="M223,-363.39C286.57,-368.78 404.24,-370.36 488,-322 521.94,-302.41 546.31,-263.04 559.79,-236.35"/>
<polygon fill="black" stroke="black" stroke-width="1.2" points="563.04,-237.67 564.26,-227.15 556.74,-234.61 563.04,-237.67"/>
</g>
<!-- fail_comp1&#45;&gt;fail_comp4 -->
<g id="edge28" class="edge">
<title>fail_comp1&#45;&gt;fail_comp4</title>
<path fill="none" stroke="black" stroke-width="1.2" d="M223.16,-342.29C260.63,-328.63 314.88,-307.4 360,-284 375.97,-275.72 392.83,-265.2 407.01,-255.8"/>
<polygon fill="black" stroke="black" stroke-width="1.2" points="409.12,-258.61 415.46,-250.12 405.21,-252.8 409.12,-258.61"/>
</g>
<!-- fail_comp2 -->
<g id="node15" class="node">
<title>fail_comp2</title>
<path fill="white" stroke="black" d="M80,-305C80,-305 12,-305 12,-305 6,-305 0,-299 0,-293 0,-293 0,-281 0,-281 0,-275 6,-269 12,-269 12,-269 80,-269 80,-269 86,-269 92,-275 92,-281 92,-281 92,-293 92,-293 92,-299 86,-305 80,-305"/>
<text text-anchor="middle" x="46" y="-283.3" font-family="Helvetica,sans-Serif" font-size="14.00">fail_comp2</text>
</g>
<!-- fail_comp2&#45;&gt;rotate -->
<g id="edge5" class="edge">
<title>fail_comp2&#45;&gt;rotate</title>
<path fill="none" stroke="black" stroke-width="1.2" d="M69,-305.17C76.99,-312.57 85.62,-321.6 92,-331 115.28,-365.28 105.24,-382.37 128,-417 192.05,-514.45 193.39,-606 310,-606 310,-606 310,-606 443,-606 539.34,-606 626.67,-516.72 664.99,-471.13"/>
<polygon fill="black" stroke="black" stroke-width="1.2" points="667.9,-473.1 671.56,-463.16 662.5,-468.64 667.9,-473.1"/>
</g>
<!-- fail_comp2&#45;&gt;mnt_comp1 -->
<g id="edge15" class="edge">
<title>fail_comp2&#45;&gt;mnt_comp1</title>
<path fill="none" stroke="black" stroke-width="1.2" d="M92.21,-269.64C136.82,-252.51 205.15,-226.26 253.36,-207.75"/>
<polygon fill="black" stroke="black" stroke-width="1.2" points="254.64,-211.01 262.72,-204.16 252.13,-204.47 254.64,-211.01"/>
</g>
<!-- fail_comp2&#45;&gt;mnt_comp2 -->
<g id="edge19" class="edge">
<title>fail_comp2&#45;&gt;mnt_comp2</title>
<path fill="none" stroke="black" stroke-width="1.2" d="M67.18,-305.01C75.28,-312.67 84.47,-321.92 92,-331 110.41,-353.2 104.4,-368.41 128,-385 164.42,-410.6 213.88,-421.69 252.05,-426.47"/>
<polygon fill="black" stroke="black" stroke-width="1.2" points="251.66,-429.94 261.99,-427.6 252.45,-422.99 251.66,-429.94"/>
</g>
<!-- fail_comp2&#45;&gt;mnt_comp3 -->
<g id="edge21" class="edge">
<title>fail_comp2&#45;&gt;mnt_comp3</title>
<path fill="none" stroke="black" stroke-width="1.2" d="M60.32,-268.72C83.26,-237.24 130.32,-172.67 156.8,-136.34"/>
<polygon fill="black" stroke="black" stroke-width="1.2" points="159.69,-138.32 162.75,-128.18 154.03,-134.2 159.69,-138.32"/>
</g>
<!-- fail_comp2&#45;&gt;mnt_comp4 -->
<g id="edge25" class="edge">
<title>fail_comp2&#45;&gt;mnt_comp4</title>
<path fill="none" stroke="black" stroke-width="1.2" d="M92.2,-291.41C173.64,-297.78 349.46,-304.3 488,-259 506.2,-253.05 524.68,-242.63 539.65,-232.83"/>
<polygon fill="black" stroke="black" stroke-width="1.2" points="541.7,-235.67 548.04,-227.18 537.79,-229.87 541.7,-235.67"/>
</g>
<!-- fail_comp2&#45;&gt;fail_comp4 -->
<g id="edge29" class="edge">
<title>fail_comp2&#45;&gt;fail_comp4</title>
<path fill="none" stroke="black" stroke-width="1.2" d="M92.18,-281.67C153.09,-274.35 264.91,-260.44 360,-246 368.32,-244.74 377.1,-243.31 385.69,-241.87"/>
<polygon fill="black" stroke="black" stroke-width="1.2" points="386.37,-245.3 395.64,-240.18 385.2,-238.4 386.37,-245.3"/>
</g>
<!-- fail_comp3 -->
<g id="node16" class="node">
<title>fail_comp3</title>
<path fill="white" stroke="black" d="M80,-128C80,-128 12,-128 12,-128 6,-128 0,-122 0,-116 0,-116 0,-104 0,-104 0,-98 6,-92 12,-92 12,-92 80,-92 80,-92 86,-92 92,-98 92,-104 92,-104 92,-116 92,-116 92,-122 86,-128 80,-128"/>
<text text-anchor="middle" x="46" y="-106.3" font-family="Helvetica,sans-Serif" font-size="14.00">fail_comp3</text>
</g>
<!-- fail_comp3&#45;&gt;pressure -->
<g id="edge6" class="edge">
<title>fail_comp3&#45;&gt;pressure</title>
<path fill="none" stroke="black" stroke-width="1.2" d="M70.87,-91.83C86.89,-79.77 108.53,-63.69 128,-50 131.89,-47.26 135.99,-44.44 140.09,-41.66"/>
<polygon fill="black" stroke="black" stroke-width="1.2" points="142.09,-44.53 148.43,-36.04 138.18,-38.73 142.09,-44.53"/>
</g>
<!-- fail_comp3&#45;&gt;mnt_comp1 -->
<g id="edge16" class="edge">
<title>fail_comp3&#45;&gt;mnt_comp1</title>
<path fill="none" stroke="black" stroke-width="1.2" d="M92.26,-125.61C103.87,-129.47 116.36,-133.5 128,-137 169.24,-149.41 216.19,-162.02 252.07,-171.33"/>
<polygon fill="black" stroke="black" stroke-width="1.2" points="251.32,-174.75 261.88,-173.87 253.08,-167.98 251.32,-174.75"/>
</g>
<!-- fail_comp3&#45;&gt;mnt_comp3 -->
<g id="edge22" class="edge">
<title>fail_comp3&#45;&gt;mnt_comp3</title>
<path fill="none" stroke="black" stroke-width="1.2" d="M92.12,-110C100.28,-110 108.9,-110 117.38,-110"/>
<polygon fill="black" stroke="black" stroke-width="1.2" points="117.62,-113.5 127.62,-110 117.62,-106.5 117.62,-113.5"/>
</g>
<!-- fail_comp3&#45;&gt;mnt_comp4 -->
<g id="edge26" class="edge">
<title>fail_comp3&#45;&gt;mnt_comp4</title>
<path fill="none" stroke="black" stroke-width="1.2" d="M92.19,-92.09C103.69,-88.33 116.15,-84.92 128,-83 287.16,-57.17 344.15,-55.16 488,-128 513.7,-141.02 536.77,-164.57 552.2,-182.93"/>
<polygon fill="black" stroke="black" stroke-width="1.2" points="549.71,-185.41 558.74,-190.95 555.13,-180.99 549.71,-185.41"/>
</g>
<!-- fail_comp3&#45;&gt;fail_comp4 -->
<g id="edge30" class="edge">
<title>fail_comp3&#45;&gt;fail_comp4</title>
<path fill="none" stroke="black" stroke-width="1.2" d="M70.12,-128.02C85.82,-139.66 107.39,-154.53 128,-165 184.39,-193.66 200.33,-198.89 262,-213 302.76,-222.32 349.81,-227.09 385.44,-229.52"/>
<polygon fill="black" stroke="black" stroke-width="1.2" points="385.43,-233.02 395.64,-230.17 385.88,-226.04 385.43,-233.02"/>
</g>
<!-- fail_comp4&#45;&gt;vibration -->
<g id="edge7" class="edge">
<title>fail_comp4&#45;&gt;vibration</title>
<path fill="none" stroke="black" stroke-width="1.2" d="M469.42,-250.02C488.85,-263.28 515.48,-281.44 536.73,-295.94"/>
<polygon fill="black" stroke="black" stroke-width="1.2" points="534.94,-298.96 545.18,-301.7 538.89,-293.17 534.94,-298.96"/>
</g>
<!-- fail_comp4&#45;&gt;mnt_comp4 -->
<g id="edge27" class="edge">
<title>fail_comp4&#45;&gt;mnt_comp4</title>
<path fill="none" stroke="black" stroke-width="1.2" d="M488.12,-223.96C496.37,-222.48 505.09,-220.93 513.66,-219.4"/>
<polygon fill="black" stroke="black" stroke-width="1.2" points="514.38,-222.83 523.62,-217.63 513.16,-215.94 514.38,-222.83"/>
</g>
</g>
</svg>
