<?xml version="1.0" encoding="UTF-8" standalone="no"?>
<!DOCTYPE svg PUBLIC "-//W3C//DTD SVG 1.1//EN"
 "http://www.w3.org/Graphics/SVG/1.1/DTD/svg11.dtd">
<!-- Generated by graphviz version 2.50.0 (0)
 -->
<!-- Title: G Pages: 1 -->
<svg width="764pt" height="503pt"
 viewBox="0.00 0.00 764.00 502.73" xmlns="http://www.w3.org/2000/svg" xmlns:xlink="http://www.w3.org/1999/xlink">
<g id="graph0" class="graph" transform="scale(1 1) rotate(0) translate(4 498.73)">
<title>G</title>
<polygon fill="white" stroke="transparent" points="-4,4 -4,-498.73 760,-498.73 760,4 -4,4"/>
<text text-anchor="middle" x="378" y="-477.93" font-family="Times,serif" font-size="16.00">model=model4/varlingam_mixed.json [machine 63]</text>
<!-- volt -->
<g id="node1" class="node">
<title>volt</title>
<path fill="white" stroke="black" d="M61,-36C61,-36 31,-36 31,-36 25,-36 19,-30 19,-24 19,-24 19,-12 19,-12 19,-6 25,0 31,0 31,0 61,0 61,0 67,0 73,-6 73,-12 73,-12 73,-24 73,-24 73,-30 67,-36 61,-36"/>
<text text-anchor="middle" x="46" y="-14.3" font-family="Helvetica,sans-Serif" font-size="14.00">volt</text>
</g>
<!-- rotate -->
<g id="node2" class="node">
<title>rotate</title>
<path fill="white" stroke="black" d="M62.5,-90C62.5,-90 29.5,-90 29.5,-90 23.5,-90 17.5,-84 17.5,-78 17.5,-78 17.5,-66 17.5,-66 17.5,-60 23.5,-54 29.5,-54 29.5,-54 62.5,-54 62.5,-54 68.5,-54 74.5,-60 74.5,-66 74.5,-66 74.5,-78 74.5,-78 74.5,-84 68.5,-90 62.5,-90"/>
<text text-anchor="middle" x="46" y="-68.3" font-family="Helvetica,sans-Serif" font-size="14.00">rotate</text>
</g>
<!-- pressure -->
<g id="node3" class="node">
<title>pressure</title>
<path fill="white" stroke="black" d="M72.5,-144C72.5,-144 19.5,-144 19.5,-144 13.5,-144 7.5,-138 7.5,-132 7.5,-132 7.5,-120 7.5,-120 7.5,-114 13.5,-108 19.5,-108 19.5,-108 72.5,-108 72.5,-108 78.5,-108 84.5,-114 84.5,-120 84.5,-120 84.5,-132 84.5,-132 84.5,-138 78.5,-144 72.5,-144"/>
<text text-anchor="middle" x="46" y="-122.3" font-family="Helvetica,sans-Serif" font-size="14.00">pressure</text>
</g>
<!-- vibration -->
<g id="node4" class="node">
<title>vibration</title>
<path fill="white" stroke="black" d="M73,-198C73,-198 19,-198 19,-198 13,-198 7,-192 7,-186 7,-186 7,-174 7,-174 7,-168 13,-162 19,-162 19,-162 73,-162 73,-162 79,-162 85,-168 85,-174 85,-174 85,-186 85,-186 85,-192 79,-198 73,-198"/>
<text text-anchor="middle" x="46" y="-176.3" font-family="Helvetica,sans-Serif" font-size="14.00">vibration</text>
</g>
<!-- err_error5 -->
<g id="node9" class="node">
<title>err_error5</title>
<path fill="white" stroke="black" d="M204.5,-198C204.5,-198 143.5,-198 143.5,-198 137.5,-198 131.5,-192 131.5,-186 131.5,-186 131.5,-174 131.5,-174 131.5,-168 137.5,-162 143.5,-162 143.5,-162 204.5,-162 204.5,-162 210.5,-162 216.5,-168 216.5,-174 216.5,-174 216.5,-186 216.5,-186 216.5,-192 210.5,-198 204.5,-198"/>
<text text-anchor="middle" x="174" y="-176.3" font-family="Helvetica,sans-Serif" font-size="14.00">err_error5</text>
</g>
<!-- vibration&#45;&gt;err_error5 -->
<g id="edge1" class="edge">
<title>vibration&#45;&gt;err_error5</title>
<path fill="none" stroke="black" stroke-width="1.2" d="M85.15,-180C96.58,-180 109.31,-180 121.45,-180"/>
<polygon fill="black" stroke="black" stroke-width="1.2" points="121.47,-183.5 131.47,-180 121.47,-176.5 121.47,-183.5"/>
</g>
<!-- err_error1 -->
<g id="node5" class="node">
<title>err_error1</title>
<path fill="white" stroke="black" d="M335.5,-254C335.5,-254 274.5,-254 274.5,-254 268.5,-254 262.5,-248 262.5,-242 262.5,-242 262.5,-230 262.5,-230 262.5,-224 268.5,-218 274.5,-218 274.5,-218 335.5,-218 335.5,-218 341.5,-218 347.5,-224 347.5,-230 347.5,-230 347.5,-242 347.5,-242 347.5,-248 341.5,-254 335.5,-254"/>
<text text-anchor="middle" x="305" y="-232.3" font-family="Helvetica,sans-Serif" font-size="14.00">err_error1</text>
</g>
<!-- err_error2 -->
<g id="node6" class="node">
<title>err_error2</title>
<path fill="white" stroke="black" d="M76.5,-280C76.5,-280 15.5,-280 15.5,-280 9.5,-280 3.5,-274 3.5,-268 3.5,-268 3.5,-256 3.5,-256 3.5,-250 9.5,-244 15.5,-244 15.5,-244 76.5,-244 76.5,-244 82.5,-244 88.5,-250 88.5,-256 88.5,-256 88.5,-268 88.5,-268 88.5,-274 82.5,-280 76.5,-280"/>
<text text-anchor="middle" x="46" y="-258.3" font-family="Helvetica,sans-Serif" font-size="14.00">err_error2</text>
</g>
<!-- err_error2&#45;&gt;err_error1 -->
<g id="edge2" class="edge">
<title>err_error2&#45;&gt;err_error1</title>
<path fill="none" stroke="black" stroke-width="1.2" d="M88.85,-265.05C124.05,-266.83 175.59,-267.6 220,-261 230.61,-259.42 241.74,-256.82 252.31,-253.88"/>
<polygon fill="black" stroke="black" stroke-width="1.2" points="253.61,-257.14 262.23,-250.97 251.65,-250.42 253.61,-257.14"/>
</g>
<!-- err_error3 -->
<g id="node7" class="node">
<title>err_error3</title>
<path fill="white" stroke="black" d="M204.5,-252C204.5,-252 143.5,-252 143.5,-252 137.5,-252 131.5,-246 131.5,-240 131.5,-240 131.5,-228 131.5,-228 131.5,-222 137.5,-216 143.5,-216 143.5,-216 204.5,-216 204.5,-216 210.5,-216 216.5,-222 216.5,-228 216.5,-228 216.5,-240 216.5,-240 216.5,-246 210.5,-252 204.5,-252"/>
<text text-anchor="middle" x="174" y="-230.3" font-family="Helvetica,sans-Serif" font-size="14.00">err_error3</text>
</g>
<!-- err_error2&#45;&gt;err_error3 -->
<g id="edge4" class="edge">
<title>err_error2&#45;&gt;err_error3</title>
<path fill="none" stroke="black" stroke-width="1.2" d="M88.61,-252.75C99.14,-250.41 110.59,-247.87 121.55,-245.43"/>
<polygon fill="black" stroke="black" stroke-width="1.2" points="122.43,-248.82 131.44,-243.24 120.92,-241.99 122.43,-248.82"/>
</g>
<!-- err_error3&#45;&gt;err_error1 -->
<g id="edge3" class="edge">
<title>err_error3&#45;&gt;err_error1</title>
<path fill="none" stroke="black" stroke-width="1.2" d="M216.53,-234.64C227.81,-234.82 240.16,-235.01 251.95,-235.19"/>
<polygon fill="black" stroke="black" stroke-width="1.2" points="252.06,-238.69 262.11,-235.35 252.16,-231.7 252.06,-238.69"/>
</g>
<!-- err_error4 -->
<g id="node8" class="node">
<title>err_error4</title>
<path fill="white" stroke="black" d="M76.5,-356C76.5,-356 15.5,-356 15.5,-356 9.5,-356 3.5,-350 3.5,-344 3.5,-344 3.5,-332 3.5,-332 3.5,-326 9.5,-320 15.5,-320 15.5,-320 76.5,-320 76.5,-320 82.5,-320 88.5,-326 88.5,-332 88.5,-332 88.5,-344 88.5,-344 88.5,-350 82.5,-356 76.5,-356"/>
<text text-anchor="middle" x="46" y="-334.3" font-family="Helvetica,sans-Serif" font-size="14.00">err_error4</text>
</g>
<!-- mnt_comp1 -->
<g id="node10" class="node">
<title>mnt_comp1</title>
<path fill="white" stroke="black" d="M744,-427C744,-427 670,-427 670,-427 664,-427 658,-421 658,-415 658,-415 658,-403 658,-403 658,-397 664,-391 670,-391 670,-391 744,-391 744,-391 750,-391 756,-397 756,-403 756,-403 756,-415 756,-415 756,-421 750,-427 744,-427"/>
<text text-anchor="middle" x="707" y="-405.3" font-family="Helvetica,sans-Serif" font-size="14.00">mnt_comp1</text>
</g>
<!-- mnt_comp2 -->
<g id="node11" class="node">
<title>mnt_comp2</title>
<path fill="white" stroke="black" d="M342,-450C342,-450 268,-450 268,-450 262,-450 256,-444 256,-438 256,-438 256,-426 256,-426 256,-420 262,-414 268,-414 268,-414 342,-414 342,-414 348,-414 354,-420 354,-426 354,-426 354,-438 354,-438 354,-444 348,-450 342,-450"/>
<text text-anchor="middle" x="305" y="-428.3" font-family="Helvetica,sans-Serif" font-size="14.00">mnt_comp2</text>
</g>
<!-- mnt_comp2&#45;&gt;mnt_comp1 -->
<g id="edge5" class="edge">
<title>mnt_comp2&#45;&gt;mnt_comp1</title>
<path fill="none" stroke="black" stroke-width="1.2" d="M354.41,-434.02C366.06,-434.43 378.47,-434.79 390,-435 433.55,-435.78 444.52,-437.58 488,-435 542.36,-431.77 603.94,-424.05 647.76,-417.85"/>
<polygon fill="black" stroke="black" stroke-width="1.2" points="648.26,-421.32 657.66,-416.44 647.27,-414.39 648.26,-421.32"/>
</g>
<!-- mnt_comp3 -->
<g id="node12" class="node">
<title>mnt_comp3</title>
<path fill="white" stroke="black" d="M610,-381C610,-381 536,-381 536,-381 530,-381 524,-375 524,-369 524,-369 524,-357 524,-357 524,-351 530,-345 536,-345 536,-345 610,-345 610,-345 616,-345 622,-351 622,-357 622,-357 622,-369 622,-369 622,-375 616,-381 610,-381"/>
<text text-anchor="middle" x="573" y="-359.3" font-family="Helvetica,sans-Serif" font-size="14.00">mnt_comp3</text>
</g>
<!-- mnt_comp2&#45;&gt;mnt_comp3 -->
<g id="edge10" class="edge">
<title>mnt_comp2&#45;&gt;mnt_comp3</title>
<path fill="none" stroke="black" stroke-width="1.2" d="M354.32,-432.57C391.7,-431.68 444.28,-427.51 488,-413 506.18,-406.97 524.65,-396.54 539.63,-386.76"/>
<polygon fill="black" stroke="black" stroke-width="1.2" points="541.67,-389.6 548.02,-381.11 537.77,-383.79 541.67,-389.6"/>
</g>
<!-- mnt_comp4 -->
<g id="node13" class="node">
<title>mnt_comp4</title>
<path fill="white" stroke="black" d="M476,-404C476,-404 402,-404 402,-404 396,-404 390,-398 390,-392 390,-392 390,-380 390,-380 390,-374 396,-368 402,-368 402,-368 476,-368 476,-368 482,-368 488,-374 488,-380 488,-380 488,-392 488,-392 488,-398 482,-404 476,-404"/>
<text text-anchor="middle" x="439" y="-382.3" font-family="Helvetica,sans-Serif" font-size="14.00">mnt_comp4</text>
</g>
<!-- mnt_comp2&#45;&gt;mnt_comp4 -->
<g id="edge11" class="edge">
<title>mnt_comp2&#45;&gt;mnt_comp4</title>
<path fill="none" stroke="black" stroke-width="1.2" d="M354.03,-415.26C362.49,-412.31 371.38,-409.22 380.08,-406.18"/>
<polygon fill="black" stroke="black" stroke-width="1.2" points="381.49,-409.4 389.79,-402.8 379.19,-402.79 381.49,-409.4"/>
</g>
<!-- mnt_comp3&#45;&gt;mnt_comp1 -->
<g id="edge6" class="edge">
<title>mnt_comp3&#45;&gt;mnt_comp1</title>
<path fill="none" stroke="black" stroke-width="1.2" d="M622.03,-379.74C630.49,-382.69 639.38,-385.78 648.08,-388.82"/>
<polygon fill="black" stroke="black" stroke-width="1.2" points="647.19,-392.21 657.79,-392.2 649.49,-385.6 647.19,-392.21"/>
</g>
<!-- mnt_comp4&#45;&gt;mnt_comp1 -->
<g id="edge7" class="edge">
<title>mnt_comp4&#45;&gt;mnt_comp1</title>
<path fill="none" stroke="black" stroke-width="1.2" d="M488.17,-390.17C532.94,-394.04 599.73,-399.81 647.54,-403.95"/>
<polygon fill="black" stroke="black" stroke-width="1.2" points="647.47,-407.45 657.74,-404.83 648.08,-400.48 647.47,-407.45"/>
</g>
<!-- mnt_comp4&#45;&gt;mnt_comp3 -->
<g id="edge13" class="edge">
<title>mnt_comp4&#45;&gt;mnt_comp3</title>
<path fill="none" stroke="black" stroke-width="1.2" d="M488.03,-377.63C496.4,-376.17 505.19,-374.64 513.8,-373.14"/>
<polygon fill="black" stroke="black" stroke-width="1.2" points="514.54,-376.57 523.79,-371.4 513.33,-369.67 514.54,-376.57"/>
</g>
<!-- fail_comp1 -->
<g id="node14" class="node">
<title>fail_comp1</title>
<path fill="white" stroke="black" d="M80,-421C80,-421 12,-421 12,-421 6,-421 0,-415 0,-409 0,-409 0,-397 0,-397 0,-391 6,-385 12,-385 12,-385 80,-385 80,-385 86,-385 92,-391 92,-397 92,-397 92,-409 92,-409 92,-415 86,-421 80,-421"/>
<text text-anchor="middle" x="46" y="-399.3" font-family="Helvetica,sans-Serif" font-size="14.00">fail_comp1</text>
</g>
<!-- fail_comp2 -->
<g id="node15" class="node">
<title>fail_comp2</title>
<path fill="white" stroke="black" d="M208,-421C208,-421 140,-421 140,-421 134,-421 128,-415 128,-409 128,-409 128,-397 128,-397 128,-391 134,-385 140,-385 140,-385 208,-385 208,-385 214,-385 220,-391 220,-397 220,-397 220,-409 220,-409 220,-415 214,-421 208,-421"/>
<text text-anchor="middle" x="174" y="-399.3" font-family="Helvetica,sans-Serif" font-size="14.00">fail_comp2</text>
</g>
<!-- fail_comp1&#45;&gt;fail_comp2 -->
<g id="edge18" class="edge">
<title>fail_comp1&#45;&gt;fail_comp2</title>
<path fill="none" stroke="black" stroke-width="1.2" d="M92.13,-403C100.37,-403 109.04,-403 117.53,-403"/>
<polygon fill="black" stroke="black" stroke-width="1.2" points="117.76,-406.5 127.76,-403 117.76,-399.5 117.76,-406.5"/>
</g>
<!-- fail_comp2&#45;&gt;mnt_comp1 -->
<g id="edge8" class="edge">
<title>fail_comp2&#45;&gt;mnt_comp1</title>
<path fill="none" stroke="black" stroke-width="1.2" d="M193.82,-421.01C209.18,-434.4 232.17,-451.57 256,-459 318.08,-478.37 507.37,-464.69 622,-440 632.7,-437.69 643.88,-434.31 654.45,-430.62"/>
<polygon fill="black" stroke="black" stroke-width="1.2" points="655.76,-433.87 663.96,-427.16 653.37,-427.29 655.76,-433.87"/>
</g>
<!-- fail_comp2&#45;&gt;mnt_comp2 -->
<g id="edge12" class="edge">
<title>fail_comp2&#45;&gt;mnt_comp2</title>
<path fill="none" stroke="black" stroke-width="1.2" d="M220.12,-413.14C228.37,-415 237.09,-416.96 245.66,-418.88"/>
<polygon fill="black" stroke="black" stroke-width="1.2" points="245.09,-422.34 255.62,-421.12 246.63,-415.51 245.09,-422.34"/>
</g>
<!-- fail_comp2&#45;&gt;mnt_comp3 -->
<g id="edge14" class="edge">
<title>fail_comp2&#45;&gt;mnt_comp3</title>
<path fill="none" stroke="black" stroke-width="1.2" d="M220.3,-390.95C263.54,-380.11 330.68,-365.01 390,-359 433.33,-354.61 444.46,-357.96 488,-359 496.2,-359.2 504.84,-359.5 513.34,-359.85"/>
<polygon fill="black" stroke="black" stroke-width="1.2" points="513.45,-363.36 523.6,-360.3 513.76,-356.36 513.45,-363.36"/>
</g>
<!-- fail_comp2&#45;&gt;mnt_comp4 -->
<g id="edge16" class="edge">
<title>fail_comp2&#45;&gt;mnt_comp4</title>
<path fill="none" stroke="black" stroke-width="1.2" d="M220.21,-400.08C264.27,-397.23 331.46,-392.89 379.56,-389.78"/>
<polygon fill="black" stroke="black" stroke-width="1.2" points="380.07,-393.25 389.82,-389.11 379.62,-386.27 380.07,-393.25"/>
</g>
<!-- fail_comp4 -->
<g id="node16" class="node">
<title>fail_comp4</title>
<path fill="white" stroke="black" d="M339,-312C339,-312 271,-312 271,-312 265,-312 259,-306 259,-300 259,-300 259,-288 259,-288 259,-282 265,-276 271,-276 271,-276 339,-276 339,-276 345,-276 351,-282 351,-288 351,-288 351,-300 351,-300 351,-306 345,-312 339,-312"/>
<text text-anchor="middle" x="305" y="-290.3" font-family="Helvetica,sans-Serif" font-size="14.00">fail_comp4</text>
</g>
<!-- fail_comp4&#45;&gt;mnt_comp1 -->
<g id="edge9" class="edge">
<title>fail_comp4&#45;&gt;mnt_comp1</title>
<path fill="none" stroke="black" stroke-width="1.2" d="M351.06,-290.56C415.13,-287.66 534.5,-289.84 622,-336 644.91,-348.09 666.86,-367.53 682.57,-383.32"/>
<polygon fill="black" stroke="black" stroke-width="1.2" points="680.29,-385.99 689.76,-390.72 685.31,-381.11 680.29,-385.99"/>
</g>
<!-- fail_comp4&#45;&gt;mnt_comp3 -->
<g id="edge15" class="edge">
<title>fail_comp4&#45;&gt;mnt_comp3</title>
<path fill="none" stroke="black" stroke-width="1.2" d="M351.21,-298.87C388.47,-303.62 442.41,-312.17 488,-326 500.88,-329.91 514.41,-335.26 526.75,-340.69"/>
<polygon fill="black" stroke="black" stroke-width="1.2" points="525.37,-343.91 535.93,-344.83 528.25,-337.53 525.37,-343.91"/>
</g>
<!-- fail_comp4&#45;&gt;mnt_comp4 -->
<g id="edge17" class="edge">
<title>fail_comp4&#45;&gt;mnt_comp4</title>
<path fill="none" stroke="black" stroke-width="1.2" d="M332.08,-312.18C352.6,-326.48 381.37,-346.53 403.74,-362.12"/>
<polygon fill="black" stroke="black" stroke-width="1.2" points="401.77,-365.01 411.98,-367.86 405.77,-359.27 401.77,-365.01"/>
</g>
</g>
</svg>
