<?xml version="1.0" encoding="UTF-8" standalone="no"?>
<!DOCTYPE svg PUBLIC "-//W3C//DTD SVG 1.1//EN"
 "http://www.w3.org/Graphics/SVG/1.1/DTD/svg11.dtd">
<!-- Generated by graphviz version 2.50.0 (0)
 -->
<!-- Title: G Pages: 1 -->
<svg width="1141pt" height="477pt"
 viewBox="0.00 0.00 1141.00 477.00" xmlns="http://www.w3.org/2000/svg" xmlns:xlink="http://www.w3.org/1999/xlink">
<g id="graph0" class="graph" transform="scale(1 1) rotate(0) translate(4 473)">
<title>G</title>
<polygon fill="white" stroke="transparent" points="-4,4 -4,-473 1137,-473 1137,4 -4,4"/>
<text text-anchor="middle" x="566.5" y="-452.2" font-family="Times,serif" font-size="16.00">model=model2/varlingam_mixed.json [machine 98]</text>
<!-- volt -->
<g id="node1" class="node">
<title>volt</title>
<path fill="white" stroke="black" d="M441,-102C441,-102 411,-102 411,-102 405,-102 399,-96 399,-90 399,-90 399,-78 399,-78 399,-72 405,-66 411,-66 411,-66 441,-66 441,-66 447,-66 453,-72 453,-78 453,-78 453,-90 453,-90 453,-96 447,-102 441,-102"/>
<text text-anchor="middle" x="426" y="-80.3" font-family="Helvetica,sans-Serif" font-size="14.00">volt</text>
</g>
<!-- rotate -->
<g id="node2" class="node">
<title>rotate</title>
<path fill="white" stroke="black" d="M59,-299C59,-299 26,-299 26,-299 20,-299 14,-293 14,-287 14,-287 14,-275 14,-275 14,-269 20,-263 26,-263 26,-263 59,-263 59,-263 65,-263 71,-269 71,-275 71,-275 71,-287 71,-287 71,-293 65,-299 59,-299"/>
<text text-anchor="middle" x="42.5" y="-277.3" font-family="Helvetica,sans-Serif" font-size="14.00">rotate</text>
</g>
<!-- pressure -->
<g id="node3" class="node">
<title>pressure</title>
<path fill="white" stroke="black" d="M583.5,-319C583.5,-319 530.5,-319 530.5,-319 524.5,-319 518.5,-313 518.5,-307 518.5,-307 518.5,-295 518.5,-295 518.5,-289 524.5,-283 530.5,-283 530.5,-283 583.5,-283 583.5,-283 589.5,-283 595.5,-289 595.5,-295 595.5,-295 595.5,-307 595.5,-307 595.5,-313 589.5,-319 583.5,-319"/>
<text text-anchor="middle" x="557" y="-297.3" font-family="Helvetica,sans-Serif" font-size="14.00">pressure</text>
</g>
<!-- mnt_comp2 -->
<g id="node11" class="node">
<title>mnt_comp2</title>
<path fill="white" stroke="black" d="M725,-384C725,-384 651,-384 651,-384 645,-384 639,-378 639,-372 639,-372 639,-360 639,-360 639,-354 645,-348 651,-348 651,-348 725,-348 725,-348 731,-348 737,-354 737,-360 737,-360 737,-372 737,-372 737,-378 731,-384 725,-384"/>
<text text-anchor="middle" x="688" y="-362.3" font-family="Helvetica,sans-Serif" font-size="14.00">mnt_comp2</text>
</g>
<!-- pressure&#45;&gt;mnt_comp2 -->
<g id="edge2" class="edge">
<title>pressure&#45;&gt;mnt_comp2</title>
<path fill="none" stroke="black" stroke-width="1.2" d="M593.93,-319.11C608.89,-326.64 626.42,-335.47 642.2,-343.43"/>
<polygon fill="black" stroke="black" stroke-width="1.2" points="640.75,-346.62 651.26,-347.99 643.9,-340.37 640.75,-346.62"/>
</g>
<!-- fail_comp3 -->
<g id="node16" class="node">
<title>fail_comp3</title>
<path fill="white" stroke="black" d="M853,-365C853,-365 785,-365 785,-365 779,-365 773,-359 773,-353 773,-353 773,-341 773,-341 773,-335 779,-329 785,-329 785,-329 853,-329 853,-329 859,-329 865,-335 865,-341 865,-341 865,-353 865,-353 865,-359 859,-365 853,-365"/>
<text text-anchor="middle" x="819" y="-343.3" font-family="Helvetica,sans-Serif" font-size="14.00">fail_comp3</text>
</g>
<!-- pressure&#45;&gt;fail_comp3 -->
<g id="edge3" class="edge">
<title>pressure&#45;&gt;fail_comp3</title>
<path fill="none" stroke="black" stroke-width="1.2" d="M595.53,-307.64C639.34,-315.39 712.2,-328.28 762.54,-337.19"/>
<polygon fill="black" stroke="black" stroke-width="1.2" points="762.15,-340.67 772.61,-338.97 763.37,-333.78 762.15,-340.67"/>
</g>
<!-- vibration -->
<g id="node4" class="node">
<title>vibration</title>
<path fill="white" stroke="black" d="M69.5,-186C69.5,-186 15.5,-186 15.5,-186 9.5,-186 3.5,-180 3.5,-174 3.5,-174 3.5,-162 3.5,-162 3.5,-156 9.5,-150 15.5,-150 15.5,-150 69.5,-150 69.5,-150 75.5,-150 81.5,-156 81.5,-162 81.5,-162 81.5,-174 81.5,-174 81.5,-180 75.5,-186 69.5,-186"/>
<text text-anchor="middle" x="42.5" y="-164.3" font-family="Helvetica,sans-Serif" font-size="14.00">vibration</text>
</g>
<!-- fail_comp4 -->
<g id="node17" class="node">
<title>fail_comp4</title>
<path fill="white" stroke="black" d="M201,-186C201,-186 133,-186 133,-186 127,-186 121,-180 121,-174 121,-174 121,-162 121,-162 121,-156 127,-150 133,-150 133,-150 201,-150 201,-150 207,-150 213,-156 213,-162 213,-162 213,-174 213,-174 213,-180 207,-186 201,-186"/>
<text text-anchor="middle" x="167" y="-164.3" font-family="Helvetica,sans-Serif" font-size="14.00">fail_comp4</text>
</g>
<!-- vibration&#45;&gt;fail_comp4 -->
<g id="edge4" class="edge">
<title>vibration&#45;&gt;fail_comp4</title>
<path fill="none" stroke="black" stroke-width="1.2" d="M81.59,-168C90.76,-168 100.75,-168 110.54,-168"/>
<polygon fill="black" stroke="black" stroke-width="1.2" points="110.62,-171.5 120.62,-168 110.62,-164.5 110.62,-171.5"/>
</g>
<!-- err_error1 -->
<g id="node5" class="node">
<title>err_error1</title>
<path fill="white" stroke="black" d="M197.5,-435C197.5,-435 136.5,-435 136.5,-435 130.5,-435 124.5,-429 124.5,-423 124.5,-423 124.5,-411 124.5,-411 124.5,-405 130.5,-399 136.5,-399 136.5,-399 197.5,-399 197.5,-399 203.5,-399 209.5,-405 209.5,-411 209.5,-411 209.5,-423 209.5,-423 209.5,-429 203.5,-435 197.5,-435"/>
<text text-anchor="middle" x="167" y="-413.3" font-family="Helvetica,sans-Serif" font-size="14.00">err_error1</text>
</g>
<!-- err_error2 -->
<g id="node6" class="node">
<title>err_error2</title>
<path fill="white" stroke="black" d="M325.5,-366C325.5,-366 264.5,-366 264.5,-366 258.5,-366 252.5,-360 252.5,-354 252.5,-354 252.5,-342 252.5,-342 252.5,-336 258.5,-330 264.5,-330 264.5,-330 325.5,-330 325.5,-330 331.5,-330 337.5,-336 337.5,-342 337.5,-342 337.5,-354 337.5,-354 337.5,-360 331.5,-366 325.5,-366"/>
<text text-anchor="middle" x="295" y="-344.3" font-family="Helvetica,sans-Serif" font-size="14.00">err_error2</text>
</g>
<!-- err_error3 -->
<g id="node7" class="node">
<title>err_error3</title>
<path fill="white" stroke="black" d="M197.5,-343C197.5,-343 136.5,-343 136.5,-343 130.5,-343 124.5,-337 124.5,-331 124.5,-331 124.5,-319 124.5,-319 124.5,-313 130.5,-307 136.5,-307 136.5,-307 197.5,-307 197.5,-307 203.5,-307 209.5,-313 209.5,-319 209.5,-319 209.5,-331 209.5,-331 209.5,-337 203.5,-343 197.5,-343"/>
<text text-anchor="middle" x="167" y="-321.3" font-family="Helvetica,sans-Serif" font-size="14.00">err_error3</text>
</g>
<!-- err_error3&#45;&gt;err_error2 -->
<g id="edge6" class="edge">
<title>err_error3&#45;&gt;err_error2</title>
<path fill="none" stroke="black" stroke-width="1.2" d="M209.61,-332.59C220.14,-334.52 231.59,-336.61 242.55,-338.61"/>
<polygon fill="black" stroke="black" stroke-width="1.2" points="241.97,-342.06 252.44,-340.41 243.23,-335.17 241.97,-342.06"/>
</g>
<!-- err_error4 -->
<g id="node8" class="node">
<title>err_error4</title>
<path fill="white" stroke="black" d="M73,-443C73,-443 12,-443 12,-443 6,-443 0,-437 0,-431 0,-431 0,-419 0,-419 0,-413 6,-407 12,-407 12,-407 73,-407 73,-407 79,-407 85,-413 85,-419 85,-419 85,-431 85,-431 85,-437 79,-443 73,-443"/>
<text text-anchor="middle" x="42.5" y="-421.3" font-family="Helvetica,sans-Serif" font-size="14.00">err_error4</text>
</g>
<!-- err_error5 -->
<g id="node9" class="node">
<title>err_error5</title>
<path fill="white" stroke="black" d="M73,-389C73,-389 12,-389 12,-389 6,-389 0,-383 0,-377 0,-377 0,-365 0,-365 0,-359 6,-353 12,-353 12,-353 73,-353 73,-353 79,-353 85,-359 85,-365 85,-365 85,-377 85,-377 85,-383 79,-389 73,-389"/>
<text text-anchor="middle" x="42.5" y="-367.3" font-family="Helvetica,sans-Serif" font-size="14.00">err_error5</text>
</g>
<!-- err_error5&#45;&gt;err_error1 -->
<g id="edge5" class="edge">
<title>err_error5&#45;&gt;err_error1</title>
<path fill="none" stroke="black" stroke-width="1.2" d="M85.31,-386.7C94.78,-390.25 104.93,-394.07 114.73,-397.75"/>
<polygon fill="black" stroke="black" stroke-width="1.2" points="113.78,-401.13 124.37,-401.37 116.24,-394.58 113.78,-401.13"/>
</g>
<!-- err_error5&#45;&gt;err_error2 -->
<g id="edge7" class="edge">
<title>err_error5&#45;&gt;err_error2</title>
<path fill="none" stroke="black" stroke-width="1.2" d="M85.15,-367.18C128.22,-363.22 195.56,-357.04 242.08,-352.77"/>
<polygon fill="black" stroke="black" stroke-width="1.2" points="242.62,-356.23 252.25,-351.83 241.98,-349.26 242.62,-356.23"/>
</g>
<!-- err_error5&#45;&gt;err_error3 -->
<g id="edge8" class="edge">
<title>err_error5&#45;&gt;err_error3</title>
<path fill="none" stroke="black" stroke-width="1.2" d="M85.31,-355.3C94.78,-351.75 104.93,-347.93 114.73,-344.25"/>
<polygon fill="black" stroke="black" stroke-width="1.2" points="116.24,-347.42 124.37,-340.63 113.78,-340.87 116.24,-347.42"/>
</g>
<!-- mnt_comp1 -->
<g id="node10" class="node">
<title>mnt_comp1</title>
<path fill="white" stroke="black" d="M463,-232C463,-232 389,-232 389,-232 383,-232 377,-226 377,-220 377,-220 377,-208 377,-208 377,-202 383,-196 389,-196 389,-196 463,-196 463,-196 469,-196 475,-202 475,-208 475,-208 475,-220 475,-220 475,-226 469,-232 463,-232"/>
<text text-anchor="middle" x="426" y="-210.3" font-family="Helvetica,sans-Serif" font-size="14.00">mnt_comp1</text>
</g>
<!-- mnt_comp3 -->
<g id="node12" class="node">
<title>mnt_comp3</title>
<path fill="white" stroke="black" d="M987,-216C987,-216 913,-216 913,-216 907,-216 901,-210 901,-204 901,-204 901,-192 901,-192 901,-186 907,-180 913,-180 913,-180 987,-180 987,-180 993,-180 999,-186 999,-192 999,-192 999,-204 999,-204 999,-210 993,-216 987,-216"/>
<text text-anchor="middle" x="950" y="-194.3" font-family="Helvetica,sans-Serif" font-size="14.00">mnt_comp3</text>
</g>
<!-- mnt_comp1&#45;&gt;mnt_comp3 -->
<g id="edge9" class="edge">
<title>mnt_comp1&#45;&gt;mnt_comp3</title>
<path fill="none" stroke="black" stroke-width="1.2" d="M475.17,-212.52C571.31,-209.58 786.67,-202.98 890.64,-199.79"/>
<polygon fill="black" stroke="black" stroke-width="1.2" points="891.06,-203.28 900.94,-199.47 890.84,-196.28 891.06,-203.28"/>
</g>
<!-- mnt_comp4 -->
<g id="node13" class="node">
<title>mnt_comp4</title>
<path fill="white" stroke="black" d="M1121,-262C1121,-262 1047,-262 1047,-262 1041,-262 1035,-256 1035,-250 1035,-250 1035,-238 1035,-238 1035,-232 1041,-226 1047,-226 1047,-226 1121,-226 1121,-226 1127,-226 1133,-232 1133,-238 1133,-238 1133,-250 1133,-250 1133,-256 1127,-262 1121,-262"/>
<text text-anchor="middle" x="1084" y="-240.3" font-family="Helvetica,sans-Serif" font-size="14.00">mnt_comp4</text>
</g>
<!-- mnt_comp1&#45;&gt;mnt_comp4 -->
<g id="edge10" class="edge">
<title>mnt_comp1&#45;&gt;mnt_comp4</title>
<path fill="none" stroke="black" stroke-width="1.2" d="M475.21,-222.92C527.26,-231.76 612.71,-244 687,-244 687,-244 687,-244 820,-244 890.2,-244 970.94,-244 1024.24,-244"/>
<polygon fill="black" stroke="black" stroke-width="1.2" points="1024.53,-247.5 1034.53,-244 1024.53,-240.5 1024.53,-247.5"/>
</g>
<!-- fail_comp2 -->
<g id="node15" class="node">
<title>fail_comp2</title>
<path fill="white" stroke="black" d="M591,-378C591,-378 523,-378 523,-378 517,-378 511,-372 511,-366 511,-366 511,-354 511,-354 511,-348 517,-342 523,-342 523,-342 591,-342 591,-342 597,-342 603,-348 603,-354 603,-354 603,-366 603,-366 603,-372 597,-378 591,-378"/>
<text text-anchor="middle" x="557" y="-356.3" font-family="Helvetica,sans-Serif" font-size="14.00">fail_comp2</text>
</g>
<!-- mnt_comp1&#45;&gt;fail_comp2 -->
<g id="edge12" class="edge">
<title>mnt_comp1&#45;&gt;fail_comp2</title>
<path fill="none" stroke="black" stroke-width="1.2" d="M437.95,-232.36C452.65,-256.12 480.5,-298.01 511,-328 513.61,-330.57 516.45,-333.09 519.39,-335.51"/>
<polygon fill="black" stroke="black" stroke-width="1.2" points="517.26,-338.29 527.3,-341.67 521.56,-332.77 517.26,-338.29"/>
</g>
<!-- mnt_comp2&#45;&gt;mnt_comp4 -->
<g id="edge14" class="edge">
<title>mnt_comp2&#45;&gt;mnt_comp4</title>
<path fill="none" stroke="black" stroke-width="1.2" d="M737.06,-375.08C772.8,-380.17 822.52,-383.76 865,-374 940.78,-356.59 1015.66,-301.42 1054.88,-268.81"/>
<polygon fill="black" stroke="black" stroke-width="1.2" points="1057.31,-271.34 1062.7,-262.22 1052.8,-265.99 1057.31,-271.34"/>
</g>
<!-- mnt_comp2&#45;&gt;fail_comp3 -->
<g id="edge16" class="edge">
<title>mnt_comp2&#45;&gt;fail_comp3</title>
<path fill="none" stroke="black" stroke-width="1.2" d="M737.03,-358.93C745.48,-357.68 754.33,-356.38 762.94,-355.11"/>
<polygon fill="black" stroke="black" stroke-width="1.2" points="763.53,-358.56 772.92,-353.64 762.51,-351.63 763.53,-358.56"/>
</g>
<!-- mnt_comp3&#45;&gt;mnt_comp4 -->
<g id="edge17" class="edge">
<title>mnt_comp3&#45;&gt;mnt_comp4</title>
<path fill="none" stroke="black" stroke-width="1.2" d="M999.03,-214.74C1007.49,-217.69 1016.38,-220.78 1025.08,-223.82"/>
<polygon fill="black" stroke="black" stroke-width="1.2" points="1024.19,-227.21 1034.79,-227.2 1026.49,-220.6 1024.19,-227.21"/>
</g>
<!-- fail_comp1 -->
<g id="node14" class="node">
<title>fail_comp1</title>
<path fill="white" stroke="black" d="M329,-140C329,-140 261,-140 261,-140 255,-140 249,-134 249,-128 249,-128 249,-116 249,-116 249,-110 255,-104 261,-104 261,-104 329,-104 329,-104 335,-104 341,-110 341,-116 341,-116 341,-128 341,-128 341,-134 335,-140 329,-140"/>
<text text-anchor="middle" x="295" y="-118.3" font-family="Helvetica,sans-Serif" font-size="14.00">fail_comp1</text>
</g>
<!-- fail_comp1&#45;&gt;volt -->
<g id="edge1" class="edge">
<title>fail_comp1&#45;&gt;volt</title>
<path fill="none" stroke="black" stroke-width="1.2" d="M341.12,-108.71C356.82,-104.08 374.21,-98.96 389.07,-94.58"/>
<polygon fill="black" stroke="black" stroke-width="1.2" points="390.3,-97.87 398.9,-91.69 388.32,-91.16 390.3,-97.87"/>
</g>
<!-- fail_comp1&#45;&gt;mnt_comp1 -->
<g id="edge11" class="edge">
<title>fail_comp1&#45;&gt;mnt_comp1</title>
<path fill="none" stroke="black" stroke-width="1.2" d="M321.49,-140.18C341.45,-154.42 369.41,-174.35 391.23,-189.92"/>
<polygon fill="black" stroke="black" stroke-width="1.2" points="389.39,-192.9 399.57,-195.86 393.46,-187.21 389.39,-192.9"/>
</g>
<!-- fail_comp1&#45;&gt;mnt_comp3 -->
<g id="edge18" class="edge">
<title>fail_comp1&#45;&gt;mnt_comp3</title>
<path fill="none" stroke="black" stroke-width="1.2" d="M341.08,-124.23C392.92,-126.6 480.58,-130 556,-130 556,-130 556,-130 689,-130 767.95,-130 789.79,-129.99 865,-154 880.95,-159.09 897.49,-167.09 911.63,-174.87"/>
<polygon fill="black" stroke="black" stroke-width="1.2" points="910.12,-178.04 920.54,-179.92 913.57,-171.95 910.12,-178.04"/>
</g>
<!-- fail_comp1&#45;&gt;mnt_comp4 -->
<g id="edge22" class="edge">
<title>fail_comp1&#45;&gt;mnt_comp4</title>
<path fill="none" stroke="black" stroke-width="1.2" d="M312.7,-103.7C327.86,-88.4 351.66,-67.44 377,-57 450.96,-26.51 476,-38 556,-38 556,-38 556,-38 820,-38 934.83,-38 1029.34,-161.2 1066.29,-217.05"/>
<polygon fill="black" stroke="black" stroke-width="1.2" points="1063.54,-219.24 1071.92,-225.72 1069.41,-215.43 1063.54,-219.24"/>
</g>
<!-- fail_comp2&#45;&gt;mnt_comp2 -->
<g id="edge15" class="edge">
<title>fail_comp2&#45;&gt;mnt_comp2</title>
<path fill="none" stroke="black" stroke-width="1.2" d="M603.12,-362.1C611.28,-362.48 619.9,-362.88 628.38,-363.27"/>
<polygon fill="black" stroke="black" stroke-width="1.2" points="628.46,-366.78 638.62,-363.75 628.79,-359.79 628.46,-366.78"/>
</g>
<!-- fail_comp2&#45;&gt;mnt_comp3 -->
<g id="edge19" class="edge">
<title>fail_comp2&#45;&gt;mnt_comp3</title>
<path fill="none" stroke="black" stroke-width="1.2" d="M601.71,-341.89C673.86,-312 817.6,-252.44 895.63,-220.11"/>
<polygon fill="black" stroke="black" stroke-width="1.2" points="897.37,-223.18 905.27,-216.12 894.69,-216.71 897.37,-223.18"/>
</g>
<!-- fail_comp2&#45;&gt;mnt_comp4 -->
<g id="edge23" class="edge">
<title>fail_comp2&#45;&gt;mnt_comp4</title>
<path fill="none" stroke="black" stroke-width="1.2" d="M579.78,-378.11C595.24,-389.73 617.06,-403.77 639,-410 735.97,-437.52 766.6,-412.87 865,-391 925.67,-377.51 947.62,-385.97 999,-351 1029.29,-330.38 1053.73,-295.44 1068.27,-271.12"/>
<polygon fill="black" stroke="black" stroke-width="1.2" points="1071.36,-272.78 1073.35,-262.37 1065.3,-269.26 1071.36,-272.78"/>
</g>
<!-- fail_comp2&#45;&gt;fail_comp3 -->
<g id="edge27" class="edge">
<title>fail_comp2&#45;&gt;fail_comp3</title>
<path fill="none" stroke="black" stroke-width="1.2" d="M593.77,-378.05C607.54,-384.06 623.65,-389.99 639,-393 681.74,-401.37 694.89,-404.12 737,-393 754.09,-388.49 771.36,-379.44 785.53,-370.55"/>
<polygon fill="black" stroke="black" stroke-width="1.2" points="787.46,-373.48 793.92,-365.09 783.64,-367.61 787.46,-373.48"/>
</g>
<!-- fail_comp3&#45;&gt;mnt_comp3 -->
<g id="edge20" class="edge">
<title>fail_comp3&#45;&gt;mnt_comp3</title>
<path fill="none" stroke="black" stroke-width="1.2" d="M848.74,-328.72C854.41,-324.53 860.11,-319.87 865,-315 892.78,-287.35 918.03,-249.69 933.44,-224.65"/>
<polygon fill="black" stroke="black" stroke-width="1.2" points="936.47,-226.41 938.66,-216.04 930.48,-222.78 936.47,-226.41"/>
</g>
<!-- fail_comp3&#45;&gt;mnt_comp4 -->
<g id="edge24" class="edge">
<title>fail_comp3&#45;&gt;mnt_comp4</title>
<path fill="none" stroke="black" stroke-width="1.2" d="M865.21,-329.29C910.1,-311.71 979,-284.73 1027.25,-265.83"/>
<polygon fill="black" stroke="black" stroke-width="1.2" points="1028.58,-269.07 1036.61,-262.17 1026.02,-262.55 1028.58,-269.07"/>
</g>
<!-- fail_comp4&#45;&gt;mnt_comp1 -->
<g id="edge13" class="edge">
<title>fail_comp4&#45;&gt;mnt_comp1</title>
<path fill="none" stroke="black" stroke-width="1.2" d="M213.06,-176.07C255.84,-183.72 320.37,-195.27 366.98,-203.61"/>
<polygon fill="black" stroke="black" stroke-width="1.2" points="366.47,-207.08 376.93,-205.4 367.71,-200.19 366.47,-207.08"/>
</g>
<!-- fail_comp4&#45;&gt;mnt_comp3 -->
<g id="edge21" class="edge">
<title>fail_comp4&#45;&gt;mnt_comp3</title>
<path fill="none" stroke="black" stroke-width="1.2" d="M213.03,-168C264.34,-168 350.71,-168 425,-168 425,-168 425,-168 689,-168 758.65,-168 838.1,-178.76 890.65,-187.39"/>
<polygon fill="black" stroke="black" stroke-width="1.2" points="890.35,-190.88 900.79,-189.08 891.51,-183.98 890.35,-190.88"/>
</g>
<!-- fail_comp4&#45;&gt;mnt_comp4 -->
<g id="edge25" class="edge">
<title>fail_comp4&#45;&gt;mnt_comp4</title>
<path fill="none" stroke="black" stroke-width="1.2" d="M182.31,-149.7C218.11,-106.16 316.52,0 425,0 425,0 425,0 820,0 903.36,0 936.71,-0.6 999,-56 1047.29,-98.94 1069.26,-174.98 1078.01,-215.96"/>
<polygon fill="black" stroke="black" stroke-width="1.2" points="1074.59,-216.71 1080,-225.82 1081.45,-215.32 1074.59,-216.71"/>
</g>
<!-- fail_comp4&#45;&gt;fail_comp1 -->
<g id="edge26" class="edge">
<title>fail_comp4&#45;&gt;fail_comp1</title>
<path fill="none" stroke="black" stroke-width="1.2" d="M213.13,-151.52C221.55,-148.45 230.42,-145.21 239.09,-142.04"/>
<polygon fill="black" stroke="black" stroke-width="1.2" points="240.57,-145.23 248.76,-138.52 238.16,-138.66 240.57,-145.23"/>
</g>
<!-- fail_comp4&#45;&gt;fail_comp2 -->
<g id="edge28" class="edge">
<title>fail_comp4&#45;&gt;fail_comp2</title>
<path fill="none" stroke="black" stroke-width="1.2" d="M204.5,-186.06C275.65,-221.27 432.72,-299 510.51,-337.49"/>
<polygon fill="black" stroke="black" stroke-width="1.2" points="509.08,-340.69 519.6,-341.99 512.18,-334.41 509.08,-340.69"/>
</g>
</g>
</svg>
