<?xml version="1.0" encoding="UTF-8" standalone="no"?>
<!DOCTYPE svg PUBLIC "-//W3C//DTD SVG 1.1//EN"
 "http://www.w3.org/Graphics/SVG/1.1/DTD/svg11.dtd">
<!-- Generated by graphviz version 2.50.0 (0)
 -->
<!-- Title: G Pages: 1 -->
<svg width="636pt" height="488pt"
 viewBox="0.00 0.00 636.00 488.00" xmlns="http://www.w3.org/2000/svg" xmlns:xlink="http://www.w3.org/1999/xlink">
<g id="graph0" class="graph" transform="scale(1 1) rotate(0) translate(4 484)">
<title>G</title>
<polygon fill="white" stroke="transparent" points="-4,4 -4,-484 632,-484 632,4 -4,4"/>
<text text-anchor="middle" x="314" y="-463.2" font-family="Times,serif" font-size="16.00">model=model2/varlingam_mixed.json [machine 73]</text>
<!-- volt -->
<g id="node1" class="node">
<title>volt</title>
<path fill="white" stroke="black" d="M61,-36C61,-36 31,-36 31,-36 25,-36 19,-30 19,-24 19,-24 19,-12 19,-12 19,-6 25,0 31,0 31,0 61,0 61,0 67,0 73,-6 73,-12 73,-12 73,-24 73,-24 73,-30 67,-36 61,-36"/>
<text text-anchor="middle" x="46" y="-14.3" font-family="Helvetica,sans-Serif" font-size="14.00">volt</text>
</g>
<!-- rotate -->
<g id="node2" class="node">
<title>rotate</title>
<path fill="white" stroke="black" d="M193.5,-36C193.5,-36 160.5,-36 160.5,-36 154.5,-36 148.5,-30 148.5,-24 148.5,-24 148.5,-12 148.5,-12 148.5,-6 154.5,0 160.5,0 160.5,0 193.5,0 193.5,0 199.5,0 205.5,-6 205.5,-12 205.5,-12 205.5,-24 205.5,-24 205.5,-30 199.5,-36 193.5,-36"/>
<text text-anchor="middle" x="177" y="-14.3" font-family="Helvetica,sans-Serif" font-size="14.00">rotate</text>
</g>
<!-- volt&#45;&gt;rotate -->
<g id="edge1" class="edge">
<title>volt&#45;&gt;rotate</title>
<path fill="none" stroke="black" stroke-width="1.2" d="M73.11,-18C91.75,-18 117.12,-18 138,-18"/>
<polygon fill="black" stroke="black" stroke-width="1.2" points="138.15,-21.5 148.15,-18 138.15,-14.5 138.15,-21.5"/>
</g>
<!-- pressure -->
<g id="node3" class="node">
<title>pressure</title>
<path fill="white" stroke="black" d="M72.5,-292C72.5,-292 19.5,-292 19.5,-292 13.5,-292 7.5,-286 7.5,-280 7.5,-280 7.5,-268 7.5,-268 7.5,-262 13.5,-256 19.5,-256 19.5,-256 72.5,-256 72.5,-256 78.5,-256 84.5,-262 84.5,-268 84.5,-268 84.5,-280 84.5,-280 84.5,-286 78.5,-292 72.5,-292"/>
<text text-anchor="middle" x="46" y="-270.3" font-family="Helvetica,sans-Serif" font-size="14.00">pressure</text>
</g>
<!-- err_error4 -->
<g id="node8" class="node">
<title>err_error4</title>
<path fill="white" stroke="black" d="M207.5,-334C207.5,-334 146.5,-334 146.5,-334 140.5,-334 134.5,-328 134.5,-322 134.5,-322 134.5,-310 134.5,-310 134.5,-304 140.5,-298 146.5,-298 146.5,-298 207.5,-298 207.5,-298 213.5,-298 219.5,-304 219.5,-310 219.5,-310 219.5,-322 219.5,-322 219.5,-328 213.5,-334 207.5,-334"/>
<text text-anchor="middle" x="177" y="-312.3" font-family="Helvetica,sans-Serif" font-size="14.00">err_error4</text>
</g>
<!-- pressure&#45;&gt;err_error4 -->
<g id="edge2" class="edge">
<title>pressure&#45;&gt;err_error4</title>
<path fill="none" stroke="black" stroke-width="1.2" d="M84.66,-286.26C97.23,-290.35 111.45,-294.98 124.86,-299.35"/>
<polygon fill="black" stroke="black" stroke-width="1.2" points="123.86,-302.71 134.45,-302.47 126.03,-296.05 123.86,-302.71"/>
</g>
<!-- fail_comp3 -->
<g id="node16" class="node">
<title>fail_comp3</title>
<path fill="white" stroke="black" d="M211,-280C211,-280 143,-280 143,-280 137,-280 131,-274 131,-268 131,-268 131,-256 131,-256 131,-250 137,-244 143,-244 143,-244 211,-244 211,-244 217,-244 223,-250 223,-256 223,-256 223,-268 223,-268 223,-274 217,-280 211,-280"/>
<text text-anchor="middle" x="177" y="-258.3" font-family="Helvetica,sans-Serif" font-size="14.00">fail_comp3</text>
</g>
<!-- pressure&#45;&gt;fail_comp3 -->
<g id="edge3" class="edge">
<title>pressure&#45;&gt;fail_comp3</title>
<path fill="none" stroke="black" stroke-width="1.2" d="M84.66,-270.5C95.93,-269.45 108.53,-268.28 120.69,-267.15"/>
<polygon fill="black" stroke="black" stroke-width="1.2" points="121.13,-270.62 130.76,-266.21 120.48,-263.65 121.13,-270.62"/>
</g>
<!-- vibration -->
<g id="node4" class="node">
<title>vibration</title>
<path fill="white" stroke="black" d="M73,-346C73,-346 19,-346 19,-346 13,-346 7,-340 7,-334 7,-334 7,-322 7,-322 7,-316 13,-310 19,-310 19,-310 73,-310 73,-310 79,-310 85,-316 85,-322 85,-322 85,-334 85,-334 85,-340 79,-346 73,-346"/>
<text text-anchor="middle" x="46" y="-324.3" font-family="Helvetica,sans-Serif" font-size="14.00">vibration</text>
</g>
<!-- err_error1 -->
<g id="node5" class="node">
<title>err_error1</title>
<path fill="white" stroke="black" d="M76.5,-400C76.5,-400 15.5,-400 15.5,-400 9.5,-400 3.5,-394 3.5,-388 3.5,-388 3.5,-376 3.5,-376 3.5,-370 9.5,-364 15.5,-364 15.5,-364 76.5,-364 76.5,-364 82.5,-364 88.5,-370 88.5,-376 88.5,-376 88.5,-388 88.5,-388 88.5,-394 82.5,-400 76.5,-400"/>
<text text-anchor="middle" x="46" y="-378.3" font-family="Helvetica,sans-Serif" font-size="14.00">err_error1</text>
</g>
<!-- err_error2 -->
<g id="node6" class="node">
<title>err_error2</title>
<path fill="white" stroke="black" d="M207.5,-144C207.5,-144 146.5,-144 146.5,-144 140.5,-144 134.5,-138 134.5,-132 134.5,-132 134.5,-120 134.5,-120 134.5,-114 140.5,-108 146.5,-108 146.5,-108 207.5,-108 207.5,-108 213.5,-108 219.5,-114 219.5,-120 219.5,-120 219.5,-132 219.5,-132 219.5,-138 213.5,-144 207.5,-144"/>
<text text-anchor="middle" x="177" y="-122.3" font-family="Helvetica,sans-Serif" font-size="14.00">err_error2</text>
</g>
<!-- err_error5 -->
<g id="node9" class="node">
<title>err_error5</title>
<path fill="white" stroke="black" d="M341.5,-90C341.5,-90 280.5,-90 280.5,-90 274.5,-90 268.5,-84 268.5,-78 268.5,-78 268.5,-66 268.5,-66 268.5,-60 274.5,-54 280.5,-54 280.5,-54 341.5,-54 341.5,-54 347.5,-54 353.5,-60 353.5,-66 353.5,-66 353.5,-78 353.5,-78 353.5,-84 347.5,-90 341.5,-90"/>
<text text-anchor="middle" x="311" y="-68.3" font-family="Helvetica,sans-Serif" font-size="14.00">err_error5</text>
</g>
<!-- err_error2&#45;&gt;err_error5 -->
<g id="edge4" class="edge">
<title>err_error2&#45;&gt;err_error5</title>
<path fill="none" stroke="black" stroke-width="1.2" d="M219.77,-108.91C232.04,-103.89 245.62,-98.34 258.44,-93.09"/>
<polygon fill="black" stroke="black" stroke-width="1.2" points="260.12,-96.19 268.05,-89.16 257.47,-89.71 260.12,-96.19"/>
</g>
<!-- fail_comp4 -->
<g id="node17" class="node">
<title>fail_comp4</title>
<path fill="white" stroke="black" d="M345,-144C345,-144 277,-144 277,-144 271,-144 265,-138 265,-132 265,-132 265,-120 265,-120 265,-114 271,-108 277,-108 277,-108 345,-108 345,-108 351,-108 357,-114 357,-120 357,-120 357,-132 357,-132 357,-138 351,-144 345,-144"/>
<text text-anchor="middle" x="311" y="-122.3" font-family="Helvetica,sans-Serif" font-size="14.00">fail_comp4</text>
</g>
<!-- err_error2&#45;&gt;fail_comp4 -->
<g id="edge5" class="edge">
<title>err_error2&#45;&gt;fail_comp4</title>
<path fill="none" stroke="black" stroke-width="1.2" d="M219.77,-126C230.87,-126 243.03,-126 254.73,-126"/>
<polygon fill="black" stroke="black" stroke-width="1.2" points="254.85,-129.5 264.85,-126 254.85,-122.5 254.85,-129.5"/>
</g>
<!-- err_error3 -->
<g id="node7" class="node">
<title>err_error3</title>
<path fill="white" stroke="black" d="M76.5,-454C76.5,-454 15.5,-454 15.5,-454 9.5,-454 3.5,-448 3.5,-442 3.5,-442 3.5,-430 3.5,-430 3.5,-424 9.5,-418 15.5,-418 15.5,-418 76.5,-418 76.5,-418 82.5,-418 88.5,-424 88.5,-430 88.5,-430 88.5,-442 88.5,-442 88.5,-448 82.5,-454 76.5,-454"/>
<text text-anchor="middle" x="46" y="-432.3" font-family="Helvetica,sans-Serif" font-size="14.00">err_error3</text>
</g>
<!-- mnt_comp1 -->
<g id="node10" class="node">
<title>mnt_comp1</title>
<path fill="white" stroke="black" d="M214,-90C214,-90 140,-90 140,-90 134,-90 128,-84 128,-78 128,-78 128,-66 128,-66 128,-60 134,-54 140,-54 140,-54 214,-54 214,-54 220,-54 226,-60 226,-66 226,-66 226,-78 226,-78 226,-84 220,-90 214,-90"/>
<text text-anchor="middle" x="177" y="-68.3" font-family="Helvetica,sans-Serif" font-size="14.00">mnt_comp1</text>
</g>
<!-- mnt_comp2 -->
<g id="node11" class="node">
<title>mnt_comp2</title>
<path fill="white" stroke="black" d="M348,-236C348,-236 274,-236 274,-236 268,-236 262,-230 262,-224 262,-224 262,-212 262,-212 262,-206 268,-200 274,-200 274,-200 348,-200 348,-200 354,-200 360,-206 360,-212 360,-212 360,-224 360,-224 360,-230 354,-236 348,-236"/>
<text text-anchor="middle" x="311" y="-214.3" font-family="Helvetica,sans-Serif" font-size="14.00">mnt_comp2</text>
</g>
<!-- mnt_comp3 -->
<g id="node12" class="node">
<title>mnt_comp3</title>
<path fill="white" stroke="black" d="M616,-213C616,-213 542,-213 542,-213 536,-213 530,-207 530,-201 530,-201 530,-189 530,-189 530,-183 536,-177 542,-177 542,-177 616,-177 616,-177 622,-177 628,-183 628,-189 628,-189 628,-201 628,-201 628,-207 622,-213 616,-213"/>
<text text-anchor="middle" x="579" y="-191.3" font-family="Helvetica,sans-Serif" font-size="14.00">mnt_comp3</text>
</g>
<!-- mnt_comp2&#45;&gt;mnt_comp3 -->
<g id="edge8" class="edge">
<title>mnt_comp2&#45;&gt;mnt_comp3</title>
<path fill="none" stroke="black" stroke-width="1.2" d="M360.17,-213.83C404.94,-209.96 471.73,-204.19 519.54,-200.05"/>
<polygon fill="black" stroke="black" stroke-width="1.2" points="520.08,-203.52 529.74,-199.17 519.47,-196.55 520.08,-203.52"/>
</g>
<!-- mnt_comp4 -->
<g id="node13" class="node">
<title>mnt_comp4</title>
<path fill="white" stroke="black" d="M482,-190C482,-190 408,-190 408,-190 402,-190 396,-184 396,-178 396,-178 396,-166 396,-166 396,-160 402,-154 408,-154 408,-154 482,-154 482,-154 488,-154 494,-160 494,-166 494,-166 494,-178 494,-178 494,-184 488,-190 482,-190"/>
<text text-anchor="middle" x="445" y="-168.3" font-family="Helvetica,sans-Serif" font-size="14.00">mnt_comp4</text>
</g>
<!-- mnt_comp2&#45;&gt;mnt_comp4 -->
<g id="edge9" class="edge">
<title>mnt_comp2&#45;&gt;mnt_comp4</title>
<path fill="none" stroke="black" stroke-width="1.2" d="M360.03,-201.26C368.49,-198.31 377.38,-195.22 386.08,-192.18"/>
<polygon fill="black" stroke="black" stroke-width="1.2" points="387.49,-195.4 395.79,-188.8 385.19,-188.79 387.49,-195.4"/>
</g>
<!-- mnt_comp4&#45;&gt;mnt_comp3 -->
<g id="edge12" class="edge">
<title>mnt_comp4&#45;&gt;mnt_comp3</title>
<path fill="none" stroke="black" stroke-width="1.2" d="M494.03,-180.37C502.4,-181.83 511.19,-183.36 519.8,-184.86"/>
<polygon fill="black" stroke="black" stroke-width="1.2" points="519.33,-188.33 529.79,-186.6 520.54,-181.43 519.33,-188.33"/>
</g>
<!-- fail_comp1 -->
<g id="node14" class="node">
<title>fail_comp1</title>
<path fill="white" stroke="black" d="M80,-90C80,-90 12,-90 12,-90 6,-90 0,-84 0,-78 0,-78 0,-66 0,-66 0,-60 6,-54 12,-54 12,-54 80,-54 80,-54 86,-54 92,-60 92,-66 92,-66 92,-78 92,-78 92,-84 86,-90 80,-90"/>
<text text-anchor="middle" x="46" y="-68.3" font-family="Helvetica,sans-Serif" font-size="14.00">fail_comp1</text>
</g>
<!-- fail_comp1&#45;&gt;mnt_comp1 -->
<g id="edge6" class="edge">
<title>fail_comp1&#45;&gt;mnt_comp1</title>
<path fill="none" stroke="black" stroke-width="1.2" d="M92.12,-72C100.28,-72 108.9,-72 117.38,-72"/>
<polygon fill="black" stroke="black" stroke-width="1.2" points="117.62,-75.5 127.62,-72 117.62,-68.5 117.62,-75.5"/>
</g>
<!-- fail_comp2 -->
<g id="node15" class="node">
<title>fail_comp2</title>
<path fill="white" stroke="black" d="M80,-220C80,-220 12,-220 12,-220 6,-220 0,-214 0,-208 0,-208 0,-196 0,-196 0,-190 6,-184 12,-184 12,-184 80,-184 80,-184 86,-184 92,-190 92,-196 92,-196 92,-208 92,-208 92,-214 86,-220 80,-220"/>
<text text-anchor="middle" x="46" y="-198.3" font-family="Helvetica,sans-Serif" font-size="14.00">fail_comp2</text>
</g>
<!-- fail_comp2&#45;&gt;mnt_comp1 -->
<g id="edge7" class="edge">
<title>fail_comp2&#45;&gt;mnt_comp1</title>
<path fill="none" stroke="black" stroke-width="1.2" d="M58.09,-183.85C72.24,-161.76 98.46,-124.31 128,-99 129.13,-98.03 130.31,-97.07 131.52,-96.14"/>
<polygon fill="black" stroke="black" stroke-width="1.2" points="133.68,-98.9 139.83,-90.27 129.64,-93.18 133.68,-98.9"/>
</g>
<!-- fail_comp2&#45;&gt;mnt_comp2 -->
<g id="edge10" class="edge">
<title>fail_comp2&#45;&gt;mnt_comp2</title>
<path fill="none" stroke="black" stroke-width="1.2" d="M92.21,-204.75C136.27,-207.43 203.46,-211.52 251.56,-214.44"/>
<polygon fill="black" stroke="black" stroke-width="1.2" points="251.63,-217.96 261.82,-215.07 252.05,-210.97 251.63,-217.96"/>
</g>
<!-- fail_comp2&#45;&gt;mnt_comp4 -->
<g id="edge15" class="edge">
<title>fail_comp2&#45;&gt;mnt_comp4</title>
<path fill="none" stroke="black" stroke-width="1.2" d="M92.15,-198.59C164.31,-193.14 305.6,-182.46 385.43,-176.43"/>
<polygon fill="black" stroke="black" stroke-width="1.2" points="386.09,-179.89 395.8,-175.64 385.56,-172.91 386.09,-179.89"/>
</g>
<!-- fail_comp2&#45;&gt;fail_comp3 -->
<g id="edge18" class="edge">
<title>fail_comp2&#45;&gt;fail_comp3</title>
<path fill="none" stroke="black" stroke-width="1.2" d="M85.7,-220C98.85,-226.12 113.71,-233.03 127.52,-239.45"/>
<polygon fill="black" stroke="black" stroke-width="1.2" points="126.33,-242.76 136.88,-243.8 129.29,-236.41 126.33,-242.76"/>
</g>
<!-- fail_comp3&#45;&gt;mnt_comp2 -->
<g id="edge11" class="edge">
<title>fail_comp3&#45;&gt;mnt_comp2</title>
<path fill="none" stroke="black" stroke-width="1.2" d="M223.06,-246.98C232.47,-243.84 242.51,-240.5 252.31,-237.23"/>
<polygon fill="black" stroke="black" stroke-width="1.2" points="253.61,-240.49 261.99,-234 251.4,-233.85 253.61,-240.49"/>
</g>
<!-- fail_comp3&#45;&gt;mnt_comp3 -->
<g id="edge13" class="edge">
<title>fail_comp3&#45;&gt;mnt_comp3</title>
<path fill="none" stroke="black" stroke-width="1.2" d="M223.31,-265.83C235.83,-266.73 249.43,-267.55 262,-268 305.53,-269.55 317.01,-275.01 360,-268 419.33,-258.33 484.3,-234.77 527.75,-217.01"/>
<polygon fill="black" stroke="black" stroke-width="1.2" points="529.32,-220.15 537.22,-213.09 526.64,-213.68 529.32,-220.15"/>
</g>
<!-- fail_comp3&#45;&gt;mnt_comp4 -->
<g id="edge16" class="edge">
<title>fail_comp3&#45;&gt;mnt_comp4</title>
<path fill="none" stroke="black" stroke-width="1.2" d="M223.26,-265.3C261.27,-266.34 316.24,-263.73 360,-245 384.27,-234.62 406.56,-214.52 422.08,-198.04"/>
<polygon fill="black" stroke="black" stroke-width="1.2" points="424.98,-200.05 429.12,-190.29 419.8,-195.33 424.98,-200.05"/>
</g>
<!-- fail_comp4&#45;&gt;mnt_comp3 -->
<g id="edge14" class="edge">
<title>fail_comp4&#45;&gt;mnt_comp3</title>
<path fill="none" stroke="black" stroke-width="1.2" d="M357.26,-125.37C394.79,-126.1 449.07,-130.09 494,-145 512.18,-151.03 530.65,-161.46 545.63,-171.24"/>
<polygon fill="black" stroke="black" stroke-width="1.2" points="543.77,-174.21 554.02,-176.89 547.67,-168.4 543.77,-174.21"/>
</g>
<!-- fail_comp4&#45;&gt;mnt_comp4 -->
<g id="edge17" class="edge">
<title>fail_comp4&#45;&gt;mnt_comp4</title>
<path fill="none" stroke="black" stroke-width="1.2" d="M357.06,-141.7C366.47,-144.98 376.51,-148.48 386.31,-151.9"/>
<polygon fill="black" stroke="black" stroke-width="1.2" points="385.39,-155.28 395.99,-155.27 387.7,-148.67 385.39,-155.28"/>
</g>
</g>
</svg>
