<?xml version="1.0" encoding="UTF-8" standalone="no"?>
<!DOCTYPE svg PUBLIC "-//W3C//DTD SVG 1.1//EN"
 "http://www.w3.org/Graphics/SVG/1.1/DTD/svg11.dtd">
<!-- Generated by graphviz version 2.50.0 (0)
 -->
<!-- Title: G Pages: 1 -->
<svg width="757pt" height="438pt"
 viewBox="0.00 0.00 757.00 438.00" xmlns="http://www.w3.org/2000/svg" xmlns:xlink="http://www.w3.org/1999/xlink">
<g id="graph0" class="graph" transform="scale(1 1) rotate(0) translate(4 434)">
<title>G</title>
<polygon fill="white" stroke="transparent" points="-4,4 -4,-434 753,-434 753,4 -4,4"/>
<text text-anchor="middle" x="374.5" y="-413.2" font-family="Times,serif" font-size="16.00">model=model2/varlingam_mixed.json [machine 97]</text>
<!-- volt -->
<g id="node1" class="node">
<title>volt</title>
<path fill="white" stroke="black" d="M57.5,-177C57.5,-177 27.5,-177 27.5,-177 21.5,-177 15.5,-171 15.5,-165 15.5,-165 15.5,-153 15.5,-153 15.5,-147 21.5,-141 27.5,-141 27.5,-141 57.5,-141 57.5,-141 63.5,-141 69.5,-147 69.5,-153 69.5,-153 69.5,-165 69.5,-165 69.5,-171 63.5,-177 57.5,-177"/>
<text text-anchor="middle" x="42.5" y="-155.3" font-family="Helvetica,sans-Serif" font-size="14.00">volt</text>
</g>
<!-- rotate -->
<g id="node2" class="node">
<title>rotate</title>
<path fill="white" stroke="black" d="M59,-231C59,-231 26,-231 26,-231 20,-231 14,-225 14,-219 14,-219 14,-207 14,-207 14,-201 20,-195 26,-195 26,-195 59,-195 59,-195 65,-195 71,-201 71,-207 71,-207 71,-219 71,-219 71,-225 65,-231 59,-231"/>
<text text-anchor="middle" x="42.5" y="-209.3" font-family="Helvetica,sans-Serif" font-size="14.00">rotate</text>
</g>
<!-- pressure -->
<g id="node3" class="node">
<title>pressure</title>
<path fill="white" stroke="black" d="M69,-285C69,-285 16,-285 16,-285 10,-285 4,-279 4,-273 4,-273 4,-261 4,-261 4,-255 10,-249 16,-249 16,-249 69,-249 69,-249 75,-249 81,-255 81,-261 81,-261 81,-273 81,-273 81,-279 75,-285 69,-285"/>
<text text-anchor="middle" x="42.5" y="-263.3" font-family="Helvetica,sans-Serif" font-size="14.00">pressure</text>
</g>
<!-- fail_comp3 -->
<g id="node15" class="node">
<title>fail_comp3</title>
<path fill="white" stroke="black" d="M201,-285C201,-285 133,-285 133,-285 127,-285 121,-279 121,-273 121,-273 121,-261 121,-261 121,-255 127,-249 133,-249 133,-249 201,-249 201,-249 207,-249 213,-255 213,-261 213,-261 213,-273 213,-273 213,-279 207,-285 201,-285"/>
<text text-anchor="middle" x="167" y="-263.3" font-family="Helvetica,sans-Serif" font-size="14.00">fail_comp3</text>
</g>
<!-- pressure&#45;&gt;fail_comp3 -->
<g id="edge1" class="edge">
<title>pressure&#45;&gt;fail_comp3</title>
<path fill="none" stroke="black" stroke-width="1.2" d="M81.25,-267C90.54,-267 100.68,-267 110.61,-267"/>
<polygon fill="black" stroke="black" stroke-width="1.2" points="110.84,-270.5 120.84,-267 110.84,-263.5 110.84,-270.5"/>
</g>
<!-- vibration -->
<g id="node4" class="node">
<title>vibration</title>
<path fill="white" stroke="black" d="M459,-258C459,-258 405,-258 405,-258 399,-258 393,-252 393,-246 393,-246 393,-234 393,-234 393,-228 399,-222 405,-222 405,-222 459,-222 459,-222 465,-222 471,-228 471,-234 471,-234 471,-246 471,-246 471,-252 465,-258 459,-258"/>
<text text-anchor="middle" x="432" y="-236.3" font-family="Helvetica,sans-Serif" font-size="14.00">vibration</text>
</g>
<!-- err_error1 -->
<g id="node5" class="node">
<title>err_error1</title>
<path fill="white" stroke="black" d="M73,-339C73,-339 12,-339 12,-339 6,-339 0,-333 0,-327 0,-327 0,-315 0,-315 0,-309 6,-303 12,-303 12,-303 73,-303 73,-303 79,-303 85,-309 85,-315 85,-315 85,-327 85,-327 85,-333 79,-339 73,-339"/>
<text text-anchor="middle" x="42.5" y="-317.3" font-family="Helvetica,sans-Serif" font-size="14.00">err_error1</text>
</g>
<!-- err_error2 -->
<g id="node6" class="node">
<title>err_error2</title>
<path fill="white" stroke="black" d="M197.5,-393C197.5,-393 136.5,-393 136.5,-393 130.5,-393 124.5,-387 124.5,-381 124.5,-381 124.5,-369 124.5,-369 124.5,-363 130.5,-357 136.5,-357 136.5,-357 197.5,-357 197.5,-357 203.5,-357 209.5,-363 209.5,-369 209.5,-369 209.5,-381 209.5,-381 209.5,-387 203.5,-393 197.5,-393"/>
<text text-anchor="middle" x="167" y="-371.3" font-family="Helvetica,sans-Serif" font-size="14.00">err_error2</text>
</g>
<!-- err_error3 -->
<g id="node7" class="node">
<title>err_error3</title>
<path fill="white" stroke="black" d="M73,-393C73,-393 12,-393 12,-393 6,-393 0,-387 0,-381 0,-381 0,-369 0,-369 0,-363 6,-357 12,-357 12,-357 73,-357 73,-357 79,-357 85,-363 85,-369 85,-369 85,-381 85,-381 85,-387 79,-393 73,-393"/>
<text text-anchor="middle" x="42.5" y="-371.3" font-family="Helvetica,sans-Serif" font-size="14.00">err_error3</text>
</g>
<!-- err_error3&#45;&gt;err_error2 -->
<g id="edge4" class="edge">
<title>err_error3&#45;&gt;err_error2</title>
<path fill="none" stroke="black" stroke-width="1.2" d="M85.31,-375C94.58,-375 104.5,-375 114.11,-375"/>
<polygon fill="black" stroke="black" stroke-width="1.2" points="114.37,-378.5 124.37,-375 114.37,-371.5 114.37,-378.5"/>
</g>
<!-- err_error4 -->
<g id="node8" class="node">
<title>err_error4</title>
<path fill="white" stroke="black" d="M462.5,-312C462.5,-312 401.5,-312 401.5,-312 395.5,-312 389.5,-306 389.5,-300 389.5,-300 389.5,-288 389.5,-288 389.5,-282 395.5,-276 401.5,-276 401.5,-276 462.5,-276 462.5,-276 468.5,-276 474.5,-282 474.5,-288 474.5,-288 474.5,-300 474.5,-300 474.5,-306 468.5,-312 462.5,-312"/>
<text text-anchor="middle" x="432" y="-290.3" font-family="Helvetica,sans-Serif" font-size="14.00">err_error4</text>
</g>
<!-- err_error5 -->
<g id="node9" class="node">
<title>err_error5</title>
<path fill="white" stroke="black" d="M328.5,-289C328.5,-289 267.5,-289 267.5,-289 261.5,-289 255.5,-283 255.5,-277 255.5,-277 255.5,-265 255.5,-265 255.5,-259 261.5,-253 267.5,-253 267.5,-253 328.5,-253 328.5,-253 334.5,-253 340.5,-259 340.5,-265 340.5,-265 340.5,-277 340.5,-277 340.5,-283 334.5,-289 328.5,-289"/>
<text text-anchor="middle" x="298" y="-267.3" font-family="Helvetica,sans-Serif" font-size="14.00">err_error5</text>
</g>
<!-- err_error5&#45;&gt;vibration -->
<g id="edge2" class="edge">
<title>err_error5&#45;&gt;vibration</title>
<path fill="none" stroke="black" stroke-width="1.2" d="M340.77,-261.19C354.14,-258.05 369.05,-254.55 382.84,-251.31"/>
<polygon fill="black" stroke="black" stroke-width="1.2" points="383.71,-254.7 392.64,-249.01 382.11,-247.89 383.71,-254.7"/>
</g>
<!-- err_error5&#45;&gt;err_error4 -->
<g id="edge5" class="edge">
<title>err_error5&#45;&gt;err_error4</title>
<path fill="none" stroke="black" stroke-width="1.2" d="M340.77,-278.28C352.92,-280.4 366.36,-282.74 379.06,-284.95"/>
<polygon fill="black" stroke="black" stroke-width="1.2" points="378.6,-288.42 389.05,-286.69 379.8,-281.53 378.6,-288.42"/>
</g>
<!-- mnt_comp1 -->
<g id="node10" class="node">
<title>mnt_comp1</title>
<path fill="white" stroke="black" d="M737,-166C737,-166 663,-166 663,-166 657,-166 651,-160 651,-154 651,-154 651,-142 651,-142 651,-136 657,-130 663,-130 663,-130 737,-130 737,-130 743,-130 749,-136 749,-142 749,-142 749,-154 749,-154 749,-160 743,-166 737,-166"/>
<text text-anchor="middle" x="700" y="-144.3" font-family="Helvetica,sans-Serif" font-size="14.00">mnt_comp1</text>
</g>
<!-- mnt_comp2 -->
<g id="node11" class="node">
<title>mnt_comp2</title>
<path fill="white" stroke="black" d="M603,-120C603,-120 529,-120 529,-120 523,-120 517,-114 517,-108 517,-108 517,-96 517,-96 517,-90 523,-84 529,-84 529,-84 603,-84 603,-84 609,-84 615,-90 615,-96 615,-96 615,-108 615,-108 615,-114 609,-120 603,-120"/>
<text text-anchor="middle" x="566" y="-98.3" font-family="Helvetica,sans-Serif" font-size="14.00">mnt_comp2</text>
</g>
<!-- mnt_comp2&#45;&gt;mnt_comp1 -->
<g id="edge6" class="edge">
<title>mnt_comp2&#45;&gt;mnt_comp1</title>
<path fill="none" stroke="black" stroke-width="1.2" d="M615.03,-118.74C623.49,-121.69 632.38,-124.78 641.08,-127.82"/>
<polygon fill="black" stroke="black" stroke-width="1.2" points="640.19,-131.21 650.79,-131.2 642.49,-124.6 640.19,-131.21"/>
</g>
<!-- mnt_comp3 -->
<g id="node12" class="node">
<title>mnt_comp3</title>
<path fill="white" stroke="black" d="M335,-404C335,-404 261,-404 261,-404 255,-404 249,-398 249,-392 249,-392 249,-380 249,-380 249,-374 255,-368 261,-368 261,-368 335,-368 335,-368 341,-368 347,-374 347,-380 347,-380 347,-392 347,-392 347,-398 341,-404 335,-404"/>
<text text-anchor="middle" x="298" y="-382.3" font-family="Helvetica,sans-Serif" font-size="14.00">mnt_comp3</text>
</g>
<!-- mnt_comp4 -->
<g id="node13" class="node">
<title>mnt_comp4</title>
<path fill="white" stroke="black" d="M469,-166C469,-166 395,-166 395,-166 389,-166 383,-160 383,-154 383,-154 383,-142 383,-142 383,-136 389,-130 395,-130 395,-130 469,-130 469,-130 475,-130 481,-136 481,-142 481,-142 481,-154 481,-154 481,-160 475,-166 469,-166"/>
<text text-anchor="middle" x="432" y="-144.3" font-family="Helvetica,sans-Serif" font-size="14.00">mnt_comp4</text>
</g>
<!-- mnt_comp4&#45;&gt;mnt_comp1 -->
<g id="edge7" class="edge">
<title>mnt_comp4&#45;&gt;mnt_comp1</title>
<path fill="none" stroke="black" stroke-width="1.2" d="M481.17,-148C525.94,-148 592.73,-148 640.54,-148"/>
<polygon fill="black" stroke="black" stroke-width="1.2" points="640.74,-151.5 650.74,-148 640.74,-144.5 640.74,-151.5"/>
</g>
<!-- mnt_comp4&#45;&gt;mnt_comp2 -->
<g id="edge11" class="edge">
<title>mnt_comp4&#45;&gt;mnt_comp2</title>
<path fill="none" stroke="black" stroke-width="1.2" d="M481.03,-131.26C489.49,-128.31 498.38,-125.22 507.08,-122.18"/>
<polygon fill="black" stroke="black" stroke-width="1.2" points="508.49,-125.4 516.79,-118.8 506.19,-118.79 508.49,-125.4"/>
</g>
<!-- fail_comp2 -->
<g id="node14" class="node">
<title>fail_comp2</title>
<path fill="white" stroke="black" d="M466,-36C466,-36 398,-36 398,-36 392,-36 386,-30 386,-24 386,-24 386,-12 386,-12 386,-6 392,0 398,0 398,0 466,0 466,0 472,0 478,-6 478,-12 478,-12 478,-24 478,-24 478,-30 472,-36 466,-36"/>
<text text-anchor="middle" x="432" y="-14.3" font-family="Helvetica,sans-Serif" font-size="14.00">fail_comp2</text>
</g>
<!-- fail_comp2&#45;&gt;mnt_comp1 -->
<g id="edge8" class="edge">
<title>fail_comp2&#45;&gt;mnt_comp1</title>
<path fill="none" stroke="black" stroke-width="1.2" d="M478.09,-26.68C516.24,-35.27 571.5,-50.7 615,-75 637.47,-87.55 659.3,-106.81 675.07,-122.39"/>
<polygon fill="black" stroke="black" stroke-width="1.2" points="672.78,-125.05 682.3,-129.7 677.75,-120.13 672.78,-125.05"/>
</g>
<!-- fail_comp2&#45;&gt;mnt_comp2 -->
<g id="edge12" class="edge">
<title>fail_comp2&#45;&gt;mnt_comp2</title>
<path fill="none" stroke="black" stroke-width="1.2" d="M461.32,-36.02C480.67,-48.34 506.53,-64.79 527.58,-78.19"/>
<polygon fill="black" stroke="black" stroke-width="1.2" points="525.96,-81.3 536.27,-83.72 529.72,-75.4 525.96,-81.3"/>
</g>
<!-- fail_comp3&#45;&gt;mnt_comp1 -->
<g id="edge9" class="edge">
<title>fail_comp3&#45;&gt;mnt_comp1</title>
<path fill="none" stroke="black" stroke-width="1.2" d="M205.13,-285.12C264.76,-311.66 384.93,-354.49 481,-321 565.48,-291.55 641.79,-214.2 677.56,-173.65"/>
<polygon fill="black" stroke="black" stroke-width="1.2" points="680.25,-175.9 684.17,-166.05 674.96,-171.3 680.25,-175.9"/>
</g>
<!-- fail_comp3&#45;&gt;mnt_comp2 -->
<g id="edge13" class="edge">
<title>fail_comp3&#45;&gt;mnt_comp2</title>
<path fill="none" stroke="black" stroke-width="1.2" d="M179.33,-248.87C193.53,-227.26 219.6,-191.05 249,-167 301.01,-124.45 317.75,-113.02 383,-97 423.37,-87.09 470.3,-88.68 506.39,-92.57"/>
<polygon fill="black" stroke="black" stroke-width="1.2" points="506.4,-96.1 516.74,-93.78 507.22,-89.15 506.4,-96.1"/>
</g>
<!-- fail_comp3&#45;&gt;mnt_comp3 -->
<g id="edge15" class="edge">
<title>fail_comp3&#45;&gt;mnt_comp3</title>
<path fill="none" stroke="black" stroke-width="1.2" d="M182.73,-285.16C198.17,-303.62 223.69,-332.48 249,-354 252.22,-356.74 255.68,-359.44 259.22,-362.05"/>
<polygon fill="black" stroke="black" stroke-width="1.2" points="257.34,-365.01 267.53,-367.93 261.39,-359.29 257.34,-365.01"/>
</g>
<!-- fail_comp4 -->
<g id="node16" class="node">
<title>fail_comp4</title>
<path fill="white" stroke="black" d="M332,-212C332,-212 264,-212 264,-212 258,-212 252,-206 252,-200 252,-200 252,-188 252,-188 252,-182 258,-176 264,-176 264,-176 332,-176 332,-176 338,-176 344,-182 344,-188 344,-188 344,-200 344,-200 344,-206 338,-212 332,-212"/>
<text text-anchor="middle" x="298" y="-190.3" font-family="Helvetica,sans-Serif" font-size="14.00">fail_comp4</text>
</g>
<!-- fail_comp3&#45;&gt;fail_comp4 -->
<g id="edge17" class="edge">
<title>fail_comp3&#45;&gt;fail_comp4</title>
<path fill="none" stroke="black" stroke-width="1.2" d="M199.89,-248.96C216.79,-239.39 237.74,-227.53 255.86,-217.28"/>
<polygon fill="black" stroke="black" stroke-width="1.2" points="258.05,-220.06 265.03,-212.09 254.61,-213.97 258.05,-220.06"/>
</g>
<!-- fail_comp4&#45;&gt;vibration -->
<g id="edge3" class="edge">
<title>fail_comp4&#45;&gt;vibration</title>
<path fill="none" stroke="black" stroke-width="1.2" d="M344.06,-209.7C356.68,-214.1 370.43,-218.89 383.2,-223.34"/>
<polygon fill="black" stroke="black" stroke-width="1.2" points="382.14,-226.68 392.74,-226.67 384.45,-220.07 382.14,-226.68"/>
</g>
<!-- fail_comp4&#45;&gt;mnt_comp1 -->
<g id="edge10" class="edge">
<title>fail_comp4&#45;&gt;mnt_comp1</title>
<path fill="none" stroke="black" stroke-width="1.2" d="M344.11,-190.35C405.52,-185.17 518.81,-174.87 615,-162 623.32,-160.89 632.08,-159.58 640.68,-158.22"/>
<polygon fill="black" stroke="black" stroke-width="1.2" points="641.35,-161.65 650.66,-156.6 640.23,-154.74 641.35,-161.65"/>
</g>
<!-- fail_comp4&#45;&gt;mnt_comp2 -->
<g id="edge14" class="edge">
<title>fail_comp4&#45;&gt;mnt_comp2</title>
<path fill="none" stroke="black" stroke-width="1.2" d="M313.9,-175.77C329.24,-158.43 354.82,-133.24 383,-121 421.89,-104.11 469.69,-99.67 506.55,-99.28"/>
<polygon fill="black" stroke="black" stroke-width="1.2" points="506.64,-102.78 516.63,-99.27 506.63,-95.78 506.64,-102.78"/>
</g>
<!-- fail_comp4&#45;&gt;mnt_comp4 -->
<g id="edge16" class="edge">
<title>fail_comp4&#45;&gt;mnt_comp4</title>
<path fill="none" stroke="black" stroke-width="1.2" d="M344.06,-178.3C353.47,-175.02 363.51,-171.52 373.31,-168.1"/>
<polygon fill="black" stroke="black" stroke-width="1.2" points="374.7,-171.33 382.99,-164.73 372.39,-164.72 374.7,-171.33"/>
</g>
</g>
</svg>
