<?xml version="1.0" encoding="UTF-8" standalone="no"?>
<!DOCTYPE svg PUBLIC "-//W3C//DTD SVG 1.1//EN"
 "http://www.w3.org/Graphics/SVG/1.1/DTD/svg11.dtd">
<!-- Generated by graphviz version 2.50.0 (0)
 -->
<!-- Title: G Pages: 1 -->
<svg width="636pt" height="532pt"
 viewBox="0.00 0.00 636.00 532.49" xmlns="http://www.w3.org/2000/svg" xmlns:xlink="http://www.w3.org/1999/xlink">
<g id="graph0" class="graph" transform="scale(1 1) rotate(0) translate(4 528.49)">
<title>G</title>
<polygon fill="white" stroke="transparent" points="-4,4 -4,-528.49 632,-528.49 632,4 -4,4"/>
<text text-anchor="middle" x="314" y="-507.69" font-family="Times,serif" font-size="16.00">model=model3/varlingam_mixed.json [machine 59]</text>
<!-- volt -->
<g id="node1" class="node">
<title>volt</title>
<path fill="white" stroke="black" d="M61,-36C61,-36 31,-36 31,-36 25,-36 19,-30 19,-24 19,-24 19,-12 19,-12 19,-6 25,0 31,0 31,0 61,0 61,0 67,0 73,-6 73,-12 73,-12 73,-24 73,-24 73,-30 67,-36 61,-36"/>
<text text-anchor="middle" x="46" y="-14.3" font-family="Helvetica,sans-Serif" font-size="14.00">volt</text>
</g>
<!-- rotate -->
<g id="node2" class="node">
<title>rotate</title>
<path fill="white" stroke="black" d="M62.5,-90C62.5,-90 29.5,-90 29.5,-90 23.5,-90 17.5,-84 17.5,-78 17.5,-78 17.5,-66 17.5,-66 17.5,-60 23.5,-54 29.5,-54 29.5,-54 62.5,-54 62.5,-54 68.5,-54 74.5,-60 74.5,-66 74.5,-66 74.5,-78 74.5,-78 74.5,-84 68.5,-90 62.5,-90"/>
<text text-anchor="middle" x="46" y="-68.3" font-family="Helvetica,sans-Serif" font-size="14.00">rotate</text>
</g>
<!-- pressure -->
<g id="node3" class="node">
<title>pressure</title>
<path fill="white" stroke="black" d="M72.5,-144C72.5,-144 19.5,-144 19.5,-144 13.5,-144 7.5,-138 7.5,-132 7.5,-132 7.5,-120 7.5,-120 7.5,-114 13.5,-108 19.5,-108 19.5,-108 72.5,-108 72.5,-108 78.5,-108 84.5,-114 84.5,-120 84.5,-120 84.5,-132 84.5,-132 84.5,-138 78.5,-144 72.5,-144"/>
<text text-anchor="middle" x="46" y="-122.3" font-family="Helvetica,sans-Serif" font-size="14.00">pressure</text>
</g>
<!-- vibration -->
<g id="node4" class="node">
<title>vibration</title>
<path fill="white" stroke="black" d="M338,-435C338,-435 284,-435 284,-435 278,-435 272,-429 272,-423 272,-423 272,-411 272,-411 272,-405 278,-399 284,-399 284,-399 338,-399 338,-399 344,-399 350,-405 350,-411 350,-411 350,-423 350,-423 350,-429 344,-435 338,-435"/>
<text text-anchor="middle" x="311" y="-413.3" font-family="Helvetica,sans-Serif" font-size="14.00">vibration</text>
</g>
<!-- err_error1 -->
<g id="node5" class="node">
<title>err_error1</title>
<path fill="white" stroke="black" d="M76.5,-252C76.5,-252 15.5,-252 15.5,-252 9.5,-252 3.5,-246 3.5,-240 3.5,-240 3.5,-228 3.5,-228 3.5,-222 9.5,-216 15.5,-216 15.5,-216 76.5,-216 76.5,-216 82.5,-216 88.5,-222 88.5,-228 88.5,-228 88.5,-240 88.5,-240 88.5,-246 82.5,-252 76.5,-252"/>
<text text-anchor="middle" x="46" y="-230.3" font-family="Helvetica,sans-Serif" font-size="14.00">err_error1</text>
</g>
<!-- err_error2 -->
<g id="node6" class="node">
<title>err_error2</title>
<path fill="white" stroke="black" d="M475.5,-336C475.5,-336 414.5,-336 414.5,-336 408.5,-336 402.5,-330 402.5,-324 402.5,-324 402.5,-312 402.5,-312 402.5,-306 408.5,-300 414.5,-300 414.5,-300 475.5,-300 475.5,-300 481.5,-300 487.5,-306 487.5,-312 487.5,-312 487.5,-324 487.5,-324 487.5,-330 481.5,-336 475.5,-336"/>
<text text-anchor="middle" x="445" y="-314.3" font-family="Helvetica,sans-Serif" font-size="14.00">err_error2</text>
</g>
<!-- err_error3 -->
<g id="node7" class="node">
<title>err_error3</title>
<path fill="white" stroke="black" d="M341.5,-305C341.5,-305 280.5,-305 280.5,-305 274.5,-305 268.5,-299 268.5,-293 268.5,-293 268.5,-281 268.5,-281 268.5,-275 274.5,-269 280.5,-269 280.5,-269 341.5,-269 341.5,-269 347.5,-269 353.5,-275 353.5,-281 353.5,-281 353.5,-293 353.5,-293 353.5,-299 347.5,-305 341.5,-305"/>
<text text-anchor="middle" x="311" y="-283.3" font-family="Helvetica,sans-Serif" font-size="14.00">err_error3</text>
</g>
<!-- err_error3&#45;&gt;err_error2 -->
<g id="edge3" class="edge">
<title>err_error3&#45;&gt;err_error2</title>
<path fill="none" stroke="black" stroke-width="1.2" d="M353.77,-296.81C365.92,-299.66 379.36,-302.82 392.06,-305.8"/>
<polygon fill="black" stroke="black" stroke-width="1.2" points="391.52,-309.27 402.05,-308.15 393.12,-302.46 391.52,-309.27"/>
</g>
<!-- err_error4 -->
<g id="node8" class="node">
<title>err_error4</title>
<path fill="white" stroke="black" d="M76.5,-306C76.5,-306 15.5,-306 15.5,-306 9.5,-306 3.5,-300 3.5,-294 3.5,-294 3.5,-282 3.5,-282 3.5,-276 9.5,-270 15.5,-270 15.5,-270 76.5,-270 76.5,-270 82.5,-270 88.5,-276 88.5,-282 88.5,-282 88.5,-294 88.5,-294 88.5,-300 82.5,-306 76.5,-306"/>
<text text-anchor="middle" x="46" y="-284.3" font-family="Helvetica,sans-Serif" font-size="14.00">err_error4</text>
</g>
<!-- err_error5 -->
<g id="node9" class="node">
<title>err_error5</title>
<path fill="white" stroke="black" d="M207.5,-435C207.5,-435 146.5,-435 146.5,-435 140.5,-435 134.5,-429 134.5,-423 134.5,-423 134.5,-411 134.5,-411 134.5,-405 140.5,-399 146.5,-399 146.5,-399 207.5,-399 207.5,-399 213.5,-399 219.5,-405 219.5,-411 219.5,-411 219.5,-423 219.5,-423 219.5,-429 213.5,-435 207.5,-435"/>
<text text-anchor="middle" x="177" y="-413.3" font-family="Helvetica,sans-Serif" font-size="14.00">err_error5</text>
</g>
<!-- err_error5&#45;&gt;vibration -->
<g id="edge1" class="edge">
<title>err_error5&#45;&gt;vibration</title>
<path fill="none" stroke="black" stroke-width="1.2" d="M219.77,-417C233.01,-417 247.76,-417 261.44,-417"/>
<polygon fill="black" stroke="black" stroke-width="1.2" points="261.64,-420.5 271.64,-417 261.64,-413.5 261.64,-420.5"/>
</g>
<!-- mnt_comp1 -->
<g id="node10" class="node">
<title>mnt_comp1</title>
<path fill="white" stroke="black" d="M616,-251C616,-251 542,-251 542,-251 536,-251 530,-245 530,-239 530,-239 530,-227 530,-227 530,-221 536,-215 542,-215 542,-215 616,-215 616,-215 622,-215 628,-221 628,-227 628,-227 628,-239 628,-239 628,-245 622,-251 616,-251"/>
<text text-anchor="middle" x="579" y="-229.3" font-family="Helvetica,sans-Serif" font-size="14.00">mnt_comp1</text>
</g>
<!-- mnt_comp2 -->
<g id="node11" class="node">
<title>mnt_comp2</title>
<path fill="white" stroke="black" d="M214,-175C214,-175 140,-175 140,-175 134,-175 128,-169 128,-163 128,-163 128,-151 128,-151 128,-145 134,-139 140,-139 140,-139 214,-139 214,-139 220,-139 226,-145 226,-151 226,-151 226,-163 226,-163 226,-169 220,-175 214,-175"/>
<text text-anchor="middle" x="177" y="-153.3" font-family="Helvetica,sans-Serif" font-size="14.00">mnt_comp2</text>
</g>
<!-- mnt_comp2&#45;&gt;mnt_comp1 -->
<g id="edge6" class="edge">
<title>mnt_comp2&#45;&gt;mnt_comp1</title>
<path fill="none" stroke="black" stroke-width="1.2" d="M226.03,-140.49C290.24,-121.33 406.15,-97.14 494,-137 524.98,-151.06 549.02,-182.81 563.3,-205.96"/>
<polygon fill="black" stroke="black" stroke-width="1.2" points="560.35,-207.85 568.47,-214.66 566.37,-204.28 560.35,-207.85"/>
</g>
<!-- mnt_comp3 -->
<g id="node12" class="node">
<title>mnt_comp3</title>
<path fill="white" stroke="black" d="M482,-182C482,-182 408,-182 408,-182 402,-182 396,-176 396,-170 396,-170 396,-158 396,-158 396,-152 402,-146 408,-146 408,-146 482,-146 482,-146 488,-146 494,-152 494,-158 494,-158 494,-170 494,-170 494,-176 488,-182 482,-182"/>
<text text-anchor="middle" x="445" y="-160.3" font-family="Helvetica,sans-Serif" font-size="14.00">mnt_comp3</text>
</g>
<!-- mnt_comp2&#45;&gt;mnt_comp3 -->
<g id="edge12" class="edge">
<title>mnt_comp2&#45;&gt;mnt_comp3</title>
<path fill="none" stroke="black" stroke-width="1.2" d="M226.17,-158.27C270.94,-159.45 337.73,-161.2 385.54,-162.46"/>
<polygon fill="black" stroke="black" stroke-width="1.2" points="385.65,-165.97 395.74,-162.73 385.83,-158.97 385.65,-165.97"/>
</g>
<!-- mnt_comp4 -->
<g id="node13" class="node">
<title>mnt_comp4</title>
<path fill="white" stroke="black" d="M348,-213C348,-213 274,-213 274,-213 268,-213 262,-207 262,-201 262,-201 262,-189 262,-189 262,-183 268,-177 274,-177 274,-177 348,-177 348,-177 354,-177 360,-183 360,-189 360,-189 360,-201 360,-201 360,-207 354,-213 348,-213"/>
<text text-anchor="middle" x="311" y="-191.3" font-family="Helvetica,sans-Serif" font-size="14.00">mnt_comp4</text>
</g>
<!-- mnt_comp2&#45;&gt;mnt_comp4 -->
<g id="edge13" class="edge">
<title>mnt_comp2&#45;&gt;mnt_comp4</title>
<path fill="none" stroke="black" stroke-width="1.2" d="M226.03,-170.83C234.49,-173.26 243.38,-175.82 252.08,-178.33"/>
<polygon fill="black" stroke="black" stroke-width="1.2" points="251.21,-181.72 261.79,-181.12 253.14,-174.99 251.21,-181.72"/>
</g>
<!-- mnt_comp3&#45;&gt;mnt_comp1 -->
<g id="edge7" class="edge">
<title>mnt_comp3&#45;&gt;mnt_comp1</title>
<path fill="none" stroke="black" stroke-width="1.2" d="M480.68,-182.13C497.2,-190.77 517.13,-201.18 534.64,-210.34"/>
<polygon fill="black" stroke="black" stroke-width="1.2" points="533.07,-213.46 543.55,-214.99 536.31,-207.26 533.07,-213.46"/>
</g>
<!-- mnt_comp4&#45;&gt;mnt_comp1 -->
<g id="edge8" class="edge">
<title>mnt_comp4&#45;&gt;mnt_comp1</title>
<path fill="none" stroke="black" stroke-width="1.2" d="M360.17,-201.88C405.04,-208.29 472.01,-217.86 519.84,-224.69"/>
<polygon fill="black" stroke="black" stroke-width="1.2" points="519.34,-228.16 529.74,-226.11 520.33,-221.23 519.34,-228.16"/>
</g>
<!-- mnt_comp4&#45;&gt;mnt_comp3 -->
<g id="edge15" class="edge">
<title>mnt_comp4&#45;&gt;mnt_comp3</title>
<path fill="none" stroke="black" stroke-width="1.2" d="M360.03,-183.72C368.4,-181.75 377.19,-179.69 385.8,-177.67"/>
<polygon fill="black" stroke="black" stroke-width="1.2" points="386.85,-181.02 395.79,-175.32 385.25,-174.2 386.85,-181.02"/>
</g>
<!-- fail_comp1 -->
<g id="node14" class="node">
<title>fail_comp1</title>
<path fill="white" stroke="black" d="M479,-274C479,-274 411,-274 411,-274 405,-274 399,-268 399,-262 399,-262 399,-250 399,-250 399,-244 405,-238 411,-238 411,-238 479,-238 479,-238 485,-238 491,-244 491,-250 491,-250 491,-262 491,-262 491,-268 485,-274 479,-274"/>
<text text-anchor="middle" x="445" y="-252.3" font-family="Helvetica,sans-Serif" font-size="14.00">fail_comp1</text>
</g>
<!-- fail_comp1&#45;&gt;mnt_comp1 -->
<g id="edge9" class="edge">
<title>fail_comp1&#45;&gt;mnt_comp1</title>
<path fill="none" stroke="black" stroke-width="1.2" d="M491.06,-248.15C500.37,-246.53 510.3,-244.8 520,-243.11"/>
<polygon fill="black" stroke="black" stroke-width="1.2" points="520.74,-246.53 529.99,-241.37 519.54,-239.63 520.74,-246.53"/>
</g>
<!-- fail_comp2 -->
<g id="node15" class="node">
<title>fail_comp2</title>
<path fill="white" stroke="black" d="M80,-198C80,-198 12,-198 12,-198 6,-198 0,-192 0,-186 0,-186 0,-174 0,-174 0,-168 6,-162 12,-162 12,-162 80,-162 80,-162 86,-162 92,-168 92,-174 92,-174 92,-186 92,-186 92,-192 86,-198 80,-198"/>
<text text-anchor="middle" x="46" y="-176.3" font-family="Helvetica,sans-Serif" font-size="14.00">fail_comp2</text>
</g>
<!-- fail_comp2&#45;&gt;mnt_comp1 -->
<g id="edge10" class="edge">
<title>fail_comp2&#45;&gt;mnt_comp1</title>
<path fill="none" stroke="black" stroke-width="1.2" d="M83.88,-198.03C86.97,-200.69 89.77,-203.67 92,-207 151.33,-295.5 47.2,-374.55 128,-444 253.92,-552.24 374.09,-483.86 494,-369 526.95,-337.44 552.22,-290.32 566.09,-260.65"/>
<polygon fill="black" stroke="black" stroke-width="1.2" points="569.39,-261.85 570.35,-251.3 563.02,-258.95 569.39,-261.85"/>
</g>
<!-- fail_comp2&#45;&gt;mnt_comp2 -->
<g id="edge14" class="edge">
<title>fail_comp2&#45;&gt;mnt_comp2</title>
<path fill="none" stroke="black" stroke-width="1.2" d="M92.12,-171.96C100.37,-170.48 109.09,-168.93 117.66,-167.4"/>
<polygon fill="black" stroke="black" stroke-width="1.2" points="118.38,-170.83 127.62,-165.63 117.16,-163.94 118.38,-170.83"/>
</g>
<!-- fail_comp2&#45;&gt;mnt_comp3 -->
<g id="edge16" class="edge">
<title>fail_comp2&#45;&gt;mnt_comp3</title>
<path fill="none" stroke="black" stroke-width="1.2" d="M77.57,-161.82C82.41,-158.89 87.35,-155.88 92,-153 108.14,-143 109.78,-135.32 128,-130 215.48,-104.44 321.61,-126.01 385.92,-144.54"/>
<polygon fill="black" stroke="black" stroke-width="1.2" points="385.29,-148.01 395.87,-147.48 387.27,-141.29 385.29,-148.01"/>
</g>
<!-- fail_comp2&#45;&gt;mnt_comp4 -->
<g id="edge18" class="edge">
<title>fail_comp2&#45;&gt;mnt_comp4</title>
<path fill="none" stroke="black" stroke-width="1.2" d="M92.21,-182.58C136.27,-185.09 203.46,-188.92 251.56,-191.67"/>
<polygon fill="black" stroke="black" stroke-width="1.2" points="251.64,-195.18 261.82,-192.25 252.04,-188.19 251.64,-195.18"/>
</g>
<!-- fail_comp4 -->
<g id="node16" class="node">
<title>fail_comp4</title>
<path fill="white" stroke="black" d="M211,-328C211,-328 143,-328 143,-328 137,-328 131,-322 131,-316 131,-316 131,-304 131,-304 131,-298 137,-292 143,-292 143,-292 211,-292 211,-292 217,-292 223,-298 223,-304 223,-304 223,-316 223,-316 223,-322 217,-328 211,-328"/>
<text text-anchor="middle" x="177" y="-306.3" font-family="Helvetica,sans-Serif" font-size="14.00">fail_comp4</text>
</g>
<!-- fail_comp4&#45;&gt;vibration -->
<g id="edge2" class="edge">
<title>fail_comp4&#45;&gt;vibration</title>
<path fill="none" stroke="black" stroke-width="1.2" d="M196.69,-328.07C213.29,-343.79 238.5,-366.82 262,-385 265.53,-387.73 269.28,-390.47 273.07,-393.15"/>
<polygon fill="black" stroke="black" stroke-width="1.2" points="271.14,-396.07 281.36,-398.86 275.11,-390.31 271.14,-396.07"/>
</g>
<!-- fail_comp4&#45;&gt;err_error2 -->
<g id="edge4" class="edge">
<title>fail_comp4&#45;&gt;err_error2</title>
<path fill="none" stroke="black" stroke-width="1.2" d="M223.33,-312.37C235.85,-312.97 249.45,-313.56 262,-314 305.84,-315.53 355.64,-316.57 392.06,-317.21"/>
<polygon fill="black" stroke="black" stroke-width="1.2" points="392.37,-320.72 402.43,-317.39 392.49,-313.72 392.37,-320.72"/>
</g>
<!-- fail_comp4&#45;&gt;err_error3 -->
<g id="edge5" class="edge">
<title>fail_comp4&#45;&gt;err_error3</title>
<path fill="none" stroke="black" stroke-width="1.2" d="M223.06,-302.15C234.38,-300.18 246.62,-298.04 258.24,-296.02"/>
<polygon fill="black" stroke="black" stroke-width="1.2" points="259,-299.44 268.25,-294.27 257.8,-292.54 259,-299.44"/>
</g>
<!-- fail_comp4&#45;&gt;mnt_comp1 -->
<g id="edge11" class="edge">
<title>fail_comp4&#45;&gt;mnt_comp1</title>
<path fill="none" stroke="black" stroke-width="1.2" d="M218.65,-328.04C281.33,-352.98 403.78,-390.11 494,-345 529.04,-327.48 553.26,-287.61 566.39,-260.49"/>
<polygon fill="black" stroke="black" stroke-width="1.2" points="569.7,-261.69 570.73,-251.14 563.35,-258.74 569.7,-261.69"/>
</g>
<!-- fail_comp4&#45;&gt;mnt_comp3 -->
<g id="edge17" class="edge">
<title>fail_comp4&#45;&gt;mnt_comp3</title>
<path fill="none" stroke="black" stroke-width="1.2" d="M205.73,-291.9C221.8,-281.82 242.62,-269.44 262,-260 304,-239.54 318.72,-243.87 360,-222 378.37,-212.27 397.54,-199.28 412.92,-188.06"/>
<polygon fill="black" stroke="black" stroke-width="1.2" points="415.09,-190.81 421.04,-182.05 410.92,-185.19 415.09,-190.81"/>
</g>
<!-- fail_comp4&#45;&gt;mnt_comp4 -->
<g id="edge19" class="edge">
<title>fail_comp4&#45;&gt;mnt_comp4</title>
<path fill="none" stroke="black" stroke-width="1.2" d="M194.46,-291.82C210.78,-274.28 236.89,-247.46 262,-227 265.32,-224.3 268.87,-221.6 272.48,-218.99"/>
<polygon fill="black" stroke="black" stroke-width="1.2" points="274.74,-221.68 280.93,-213.08 270.73,-215.94 274.74,-221.68"/>
</g>
</g>
</svg>
