<?xml version="1.0" encoding="UTF-8" standalone="no"?>
<!DOCTYPE svg PUBLIC "-//W3C//DTD SVG 1.1//EN"
 "http://www.w3.org/Graphics/SVG/1.1/DTD/svg11.dtd">
<!-- Generated by graphviz version 2.50.0 (0)
 -->
<!-- Title: G Pages: 1 -->
<svg width="617pt" height="411pt"
 viewBox="0.00 0.00 617.00 410.94" xmlns="http://www.w3.org/2000/svg" xmlns:xlink="http://www.w3.org/1999/xlink">
<g id="graph0" class="graph" transform="scale(1 1) rotate(0) translate(4 406.94)">
<title>G</title>
<polygon fill="white" stroke="transparent" points="-4,4 -4,-406.94 613,-406.94 613,4 -4,4"/>
<text text-anchor="middle" x="304.5" y="-386.14" font-family="Times,serif" font-size="16.00">model=model1/varlingam_mixed.json [machine 31]</text>
<!-- volt -->
<g id="node1" class="node">
<title>volt</title>
<path fill="white" stroke="black" d="M189,-272.94C189,-272.94 159,-272.94 159,-272.94 153,-272.94 147,-266.94 147,-260.94 147,-260.94 147,-248.94 147,-248.94 147,-242.94 153,-236.94 159,-236.94 159,-236.94 189,-236.94 189,-236.94 195,-236.94 201,-242.94 201,-248.94 201,-248.94 201,-260.94 201,-260.94 201,-266.94 195,-272.94 189,-272.94"/>
<text text-anchor="middle" x="174" y="-251.24" font-family="Helvetica,sans-Serif" font-size="14.00">volt</text>
</g>
<!-- err_error1 -->
<g id="node5" class="node">
<title>err_error1</title>
<path fill="white" stroke="black" d="M335.5,-322.94C335.5,-322.94 274.5,-322.94 274.5,-322.94 268.5,-322.94 262.5,-316.94 262.5,-310.94 262.5,-310.94 262.5,-298.94 262.5,-298.94 262.5,-292.94 268.5,-286.94 274.5,-286.94 274.5,-286.94 335.5,-286.94 335.5,-286.94 341.5,-286.94 347.5,-292.94 347.5,-298.94 347.5,-298.94 347.5,-310.94 347.5,-310.94 347.5,-316.94 341.5,-322.94 335.5,-322.94"/>
<text text-anchor="middle" x="305" y="-301.24" font-family="Helvetica,sans-Serif" font-size="14.00">err_error1</text>
</g>
<!-- volt&#45;&gt;err_error1 -->
<g id="edge1" class="edge">
<title>volt&#45;&gt;err_error1</title>
<path fill="none" stroke="black" stroke-width="1.2" d="M201.11,-265.05C215.95,-270.81 235.06,-278.22 252.78,-285.08"/>
<polygon fill="black" stroke="black" stroke-width="1.2" points="251.85,-288.48 262.44,-288.83 254.38,-281.95 251.85,-288.48"/>
</g>
<!-- rotate -->
<g id="node2" class="node">
<title>rotate</title>
<path fill="white" stroke="black" d="M62.5,-199.94C62.5,-199.94 29.5,-199.94 29.5,-199.94 23.5,-199.94 17.5,-193.94 17.5,-187.94 17.5,-187.94 17.5,-175.94 17.5,-175.94 17.5,-169.94 23.5,-163.94 29.5,-163.94 29.5,-163.94 62.5,-163.94 62.5,-163.94 68.5,-163.94 74.5,-169.94 74.5,-175.94 74.5,-175.94 74.5,-187.94 74.5,-187.94 74.5,-193.94 68.5,-199.94 62.5,-199.94"/>
<text text-anchor="middle" x="46" y="-178.24" font-family="Helvetica,sans-Serif" font-size="14.00">rotate</text>
</g>
<!-- pressure -->
<g id="node3" class="node">
<title>pressure</title>
<path fill="white" stroke="black" d="M331.5,-268.94C331.5,-268.94 278.5,-268.94 278.5,-268.94 272.5,-268.94 266.5,-262.94 266.5,-256.94 266.5,-256.94 266.5,-244.94 266.5,-244.94 266.5,-238.94 272.5,-232.94 278.5,-232.94 278.5,-232.94 331.5,-232.94 331.5,-232.94 337.5,-232.94 343.5,-238.94 343.5,-244.94 343.5,-244.94 343.5,-256.94 343.5,-256.94 343.5,-262.94 337.5,-268.94 331.5,-268.94"/>
<text text-anchor="middle" x="305" y="-247.24" font-family="Helvetica,sans-Serif" font-size="14.00">pressure</text>
</g>
<!-- err_error4 -->
<g id="node8" class="node">
<title>err_error4</title>
<path fill="white" stroke="black" d="M469.5,-326.94C469.5,-326.94 408.5,-326.94 408.5,-326.94 402.5,-326.94 396.5,-320.94 396.5,-314.94 396.5,-314.94 396.5,-302.94 396.5,-302.94 396.5,-296.94 402.5,-290.94 408.5,-290.94 408.5,-290.94 469.5,-290.94 469.5,-290.94 475.5,-290.94 481.5,-296.94 481.5,-302.94 481.5,-302.94 481.5,-314.94 481.5,-314.94 481.5,-320.94 475.5,-326.94 469.5,-326.94"/>
<text text-anchor="middle" x="439" y="-305.24" font-family="Helvetica,sans-Serif" font-size="14.00">err_error4</text>
</g>
<!-- pressure&#45;&gt;err_error4 -->
<g id="edge3" class="edge">
<title>pressure&#45;&gt;err_error4</title>
<path fill="none" stroke="black" stroke-width="1.2" d="M343.83,-267.56C357.45,-273.54 373.04,-280.4 387.57,-286.78"/>
<polygon fill="black" stroke="black" stroke-width="1.2" points="386.37,-290.07 396.93,-290.89 389.19,-283.66 386.37,-290.07"/>
</g>
<!-- vibration -->
<g id="node4" class="node">
<title>vibration</title>
<path fill="white" stroke="black" d="M73,-253.94C73,-253.94 19,-253.94 19,-253.94 13,-253.94 7,-247.94 7,-241.94 7,-241.94 7,-229.94 7,-229.94 7,-223.94 13,-217.94 19,-217.94 19,-217.94 73,-217.94 73,-217.94 79,-217.94 85,-223.94 85,-229.94 85,-229.94 85,-241.94 85,-241.94 85,-247.94 79,-253.94 73,-253.94"/>
<text text-anchor="middle" x="46" y="-232.24" font-family="Helvetica,sans-Serif" font-size="14.00">vibration</text>
</g>
<!-- err_error1&#45;&gt;err_error4 -->
<g id="edge5" class="edge">
<title>err_error1&#45;&gt;err_error4</title>
<path fill="none" stroke="black" stroke-width="1.2" d="M347.77,-306.2C359.8,-306.57 373.09,-306.97 385.68,-307.35"/>
<polygon fill="black" stroke="black" stroke-width="1.2" points="385.95,-310.86 396.05,-307.66 386.16,-303.86 385.95,-310.86"/>
</g>
<!-- err_error2 -->
<g id="node6" class="node">
<title>err_error2</title>
<path fill="white" stroke="black" d="M597,-350.94C597,-350.94 536,-350.94 536,-350.94 530,-350.94 524,-344.94 524,-338.94 524,-338.94 524,-326.94 524,-326.94 524,-320.94 530,-314.94 536,-314.94 536,-314.94 597,-314.94 597,-314.94 603,-314.94 609,-320.94 609,-326.94 609,-326.94 609,-338.94 609,-338.94 609,-344.94 603,-350.94 597,-350.94"/>
<text text-anchor="middle" x="566.5" y="-329.24" font-family="Helvetica,sans-Serif" font-size="14.00">err_error2</text>
</g>
<!-- err_error3 -->
<g id="node7" class="node">
<title>err_error3</title>
<path fill="white" stroke="black" d="M335.5,-376.94C335.5,-376.94 274.5,-376.94 274.5,-376.94 268.5,-376.94 262.5,-370.94 262.5,-364.94 262.5,-364.94 262.5,-352.94 262.5,-352.94 262.5,-346.94 268.5,-340.94 274.5,-340.94 274.5,-340.94 335.5,-340.94 335.5,-340.94 341.5,-340.94 347.5,-346.94 347.5,-352.94 347.5,-352.94 347.5,-364.94 347.5,-364.94 347.5,-370.94 341.5,-376.94 335.5,-376.94"/>
<text text-anchor="middle" x="305" y="-355.24" font-family="Helvetica,sans-Serif" font-size="14.00">err_error3</text>
</g>
<!-- err_error3&#45;&gt;err_error2 -->
<g id="edge6" class="edge">
<title>err_error3&#45;&gt;err_error2</title>
<path fill="none" stroke="black" stroke-width="1.2" d="M347.69,-354.76C392.9,-350.23 465.12,-342.99 513.88,-338.11"/>
<polygon fill="black" stroke="black" stroke-width="1.2" points="514.31,-341.58 523.91,-337.1 513.61,-334.62 514.31,-341.58"/>
</g>
<!-- err_error3&#45;&gt;err_error4 -->
<g id="edge8" class="edge">
<title>err_error3&#45;&gt;err_error4</title>
<path fill="none" stroke="black" stroke-width="1.2" d="M347.77,-343.12C360.04,-338.46 373.62,-333.32 386.44,-328.47"/>
<polygon fill="black" stroke="black" stroke-width="1.2" points="387.94,-331.64 396.05,-324.82 385.46,-325.09 387.94,-331.64"/>
</g>
<!-- err_error4&#45;&gt;err_error2 -->
<g id="edge7" class="edge">
<title>err_error4&#45;&gt;err_error2</title>
<path fill="none" stroke="black" stroke-width="1.2" d="M481.79,-316.93C492.06,-318.89 503.17,-321.02 513.84,-323.06"/>
<polygon fill="black" stroke="black" stroke-width="1.2" points="513.41,-326.54 523.89,-324.98 514.73,-319.66 513.41,-326.54"/>
</g>
<!-- err_error5 -->
<g id="node9" class="node">
<title>err_error5</title>
<path fill="white" stroke="black" d="M76.5,-307.94C76.5,-307.94 15.5,-307.94 15.5,-307.94 9.5,-307.94 3.5,-301.94 3.5,-295.94 3.5,-295.94 3.5,-283.94 3.5,-283.94 3.5,-277.94 9.5,-271.94 15.5,-271.94 15.5,-271.94 76.5,-271.94 76.5,-271.94 82.5,-271.94 88.5,-277.94 88.5,-283.94 88.5,-283.94 88.5,-295.94 88.5,-295.94 88.5,-301.94 82.5,-307.94 76.5,-307.94"/>
<text text-anchor="middle" x="46" y="-286.24" font-family="Helvetica,sans-Serif" font-size="14.00">err_error5</text>
</g>
<!-- mnt_comp1 -->
<g id="node10" class="node">
<title>mnt_comp1</title>
<path fill="white" stroke="black" d="M342,-122.94C342,-122.94 268,-122.94 268,-122.94 262,-122.94 256,-116.94 256,-110.94 256,-110.94 256,-98.94 256,-98.94 256,-92.94 262,-86.94 268,-86.94 268,-86.94 342,-86.94 342,-86.94 348,-86.94 354,-92.94 354,-98.94 354,-98.94 354,-110.94 354,-110.94 354,-116.94 348,-122.94 342,-122.94"/>
<text text-anchor="middle" x="305" y="-101.24" font-family="Helvetica,sans-Serif" font-size="14.00">mnt_comp1</text>
</g>
<!-- mnt_comp4 -->
<g id="node13" class="node">
<title>mnt_comp4</title>
<path fill="white" stroke="black" d="M476,-95.94C476,-95.94 402,-95.94 402,-95.94 396,-95.94 390,-89.94 390,-83.94 390,-83.94 390,-71.94 390,-71.94 390,-65.94 396,-59.94 402,-59.94 402,-59.94 476,-59.94 476,-59.94 482,-59.94 488,-65.94 488,-71.94 488,-71.94 488,-83.94 488,-83.94 488,-89.94 482,-95.94 476,-95.94"/>
<text text-anchor="middle" x="439" y="-74.24" font-family="Helvetica,sans-Serif" font-size="14.00">mnt_comp4</text>
</g>
<!-- mnt_comp1&#45;&gt;mnt_comp4 -->
<g id="edge9" class="edge">
<title>mnt_comp1&#45;&gt;mnt_comp4</title>
<path fill="none" stroke="black" stroke-width="1.2" d="M354.03,-95.11C362.4,-93.4 371.19,-91.6 379.8,-89.84"/>
<polygon fill="black" stroke="black" stroke-width="1.2" points="380.69,-93.23 389.79,-87.8 379.29,-86.37 380.69,-93.23"/>
</g>
<!-- mnt_comp2 -->
<g id="node11" class="node">
<title>mnt_comp2</title>
<path fill="white" stroke="black" d="M342,-68.94C342,-68.94 268,-68.94 268,-68.94 262,-68.94 256,-62.94 256,-56.94 256,-56.94 256,-44.94 256,-44.94 256,-38.94 262,-32.94 268,-32.94 268,-32.94 342,-32.94 342,-32.94 348,-32.94 354,-38.94 354,-44.94 354,-44.94 354,-56.94 354,-56.94 354,-62.94 348,-68.94 342,-68.94"/>
<text text-anchor="middle" x="305" y="-47.24" font-family="Helvetica,sans-Serif" font-size="14.00">mnt_comp2</text>
</g>
<!-- mnt_comp2&#45;&gt;mnt_comp4 -->
<g id="edge12" class="edge">
<title>mnt_comp2&#45;&gt;mnt_comp4</title>
<path fill="none" stroke="black" stroke-width="1.2" d="M354.03,-60.76C362.4,-62.47 371.19,-64.27 379.8,-66.03"/>
<polygon fill="black" stroke="black" stroke-width="1.2" points="379.29,-69.5 389.79,-68.07 380.69,-62.64 379.29,-69.5"/>
</g>
<!-- mnt_comp3 -->
<g id="node12" class="node">
<title>mnt_comp3</title>
<path fill="white" stroke="black" d="M342,-214.94C342,-214.94 268,-214.94 268,-214.94 262,-214.94 256,-208.94 256,-202.94 256,-202.94 256,-190.94 256,-190.94 256,-184.94 262,-178.94 268,-178.94 268,-178.94 342,-178.94 342,-178.94 348,-178.94 354,-184.94 354,-190.94 354,-190.94 354,-202.94 354,-202.94 354,-208.94 348,-214.94 342,-214.94"/>
<text text-anchor="middle" x="305" y="-193.24" font-family="Helvetica,sans-Serif" font-size="14.00">mnt_comp3</text>
</g>
<!-- mnt_comp3&#45;&gt;mnt_comp4 -->
<g id="edge14" class="edge">
<title>mnt_comp3&#45;&gt;mnt_comp4</title>
<path fill="none" stroke="black" stroke-width="1.2" d="M335.41,-178.78C341.73,-174.49 348.23,-169.75 354,-164.94 376.51,-146.15 399.45,-121.98 415.66,-103.88"/>
<polygon fill="black" stroke="black" stroke-width="1.2" points="418.59,-105.85 422.6,-96.04 413.35,-101.2 418.59,-105.85"/>
</g>
<!-- fail_comp1 -->
<g id="node14" class="node">
<title>fail_comp1</title>
<path fill="white" stroke="black" d="M80,-145.94C80,-145.94 12,-145.94 12,-145.94 6,-145.94 0,-139.94 0,-133.94 0,-133.94 0,-121.94 0,-121.94 0,-115.94 6,-109.94 12,-109.94 12,-109.94 80,-109.94 80,-109.94 86,-109.94 92,-115.94 92,-121.94 92,-121.94 92,-133.94 92,-133.94 92,-139.94 86,-145.94 80,-145.94"/>
<text text-anchor="middle" x="46" y="-124.24" font-family="Helvetica,sans-Serif" font-size="14.00">fail_comp1</text>
</g>
<!-- fail_comp1&#45;&gt;volt -->
<g id="edge2" class="edge">
<title>fail_comp1&#45;&gt;volt</title>
<path fill="none" stroke="black" stroke-width="1.2" d="M80.37,-146.13C84.44,-148.87 88.42,-151.83 92,-154.94 117.05,-176.7 140.3,-206.87 155.41,-228.37"/>
<polygon fill="black" stroke="black" stroke-width="1.2" points="152.61,-230.48 161.17,-236.72 158.37,-226.5 152.61,-230.48"/>
</g>
<!-- fail_comp1&#45;&gt;mnt_comp1 -->
<g id="edge10" class="edge">
<title>fail_comp1&#45;&gt;mnt_comp1</title>
<path fill="none" stroke="black" stroke-width="1.2" d="M92.06,-123.9C134.75,-120.08 199.1,-114.32 245.69,-110.15"/>
<polygon fill="black" stroke="black" stroke-width="1.2" points="246.29,-113.62 255.93,-109.24 245.66,-106.64 246.29,-113.62"/>
</g>
<!-- fail_comp1&#45;&gt;mnt_comp4 -->
<g id="edge16" class="edge">
<title>fail_comp1&#45;&gt;mnt_comp4</title>
<path fill="none" stroke="black" stroke-width="1.2" d="M52.79,-109.52C62.86,-81.03 86.58,-27.25 128,-4.94 149.66,6.73 339.2,-6.38 354,-11.94 376.77,-20.48 398.26,-37.59 413.8,-52.25"/>
<polygon fill="black" stroke="black" stroke-width="1.2" points="411.76,-55.15 421.36,-59.63 416.65,-50.14 411.76,-55.15"/>
</g>
<!-- fail_comp3 -->
<g id="node16" class="node">
<title>fail_comp3</title>
<path fill="white" stroke="black" d="M208,-168.94C208,-168.94 140,-168.94 140,-168.94 134,-168.94 128,-162.94 128,-156.94 128,-156.94 128,-144.94 128,-144.94 128,-138.94 134,-132.94 140,-132.94 140,-132.94 208,-132.94 208,-132.94 214,-132.94 220,-138.94 220,-144.94 220,-144.94 220,-156.94 220,-156.94 220,-162.94 214,-168.94 208,-168.94"/>
<text text-anchor="middle" x="174" y="-147.24" font-family="Helvetica,sans-Serif" font-size="14.00">fail_comp3</text>
</g>
<!-- fail_comp1&#45;&gt;fail_comp3 -->
<g id="edge19" class="edge">
<title>fail_comp1&#45;&gt;fail_comp3</title>
<path fill="none" stroke="black" stroke-width="1.2" d="M92.13,-136.17C100.46,-137.69 109.23,-139.3 117.81,-140.86"/>
<polygon fill="black" stroke="black" stroke-width="1.2" points="117.29,-144.32 127.76,-142.68 118.55,-137.44 117.29,-144.32"/>
</g>
<!-- fail_comp2 -->
<g id="node15" class="node">
<title>fail_comp2</title>
<path fill="white" stroke="black" d="M208,-49.94C208,-49.94 140,-49.94 140,-49.94 134,-49.94 128,-43.94 128,-37.94 128,-37.94 128,-25.94 128,-25.94 128,-19.94 134,-13.94 140,-13.94 140,-13.94 208,-13.94 208,-13.94 214,-13.94 220,-19.94 220,-25.94 220,-25.94 220,-37.94 220,-37.94 220,-43.94 214,-49.94 208,-49.94"/>
<text text-anchor="middle" x="174" y="-28.24" font-family="Helvetica,sans-Serif" font-size="14.00">fail_comp2</text>
</g>
<!-- fail_comp2&#45;&gt;mnt_comp2 -->
<g id="edge13" class="edge">
<title>fail_comp2&#45;&gt;mnt_comp2</title>
<path fill="none" stroke="black" stroke-width="1.2" d="M220.12,-38.58C228.37,-39.8 237.09,-41.08 245.66,-42.34"/>
<polygon fill="black" stroke="black" stroke-width="1.2" points="245.21,-45.81 255.62,-43.81 246.23,-38.89 245.21,-45.81"/>
</g>
<!-- fail_comp2&#45;&gt;mnt_comp4 -->
<g id="edge17" class="edge">
<title>fail_comp2&#45;&gt;mnt_comp4</title>
<path fill="none" stroke="black" stroke-width="1.2" d="M220.11,-21.94C256.9,-15.66 309.83,-10.96 354,-23.94 374.07,-29.83 393.88,-42.16 409.22,-53.56"/>
<polygon fill="black" stroke="black" stroke-width="1.2" points="407.19,-56.42 417.25,-59.74 411.46,-50.87 407.19,-56.42"/>
</g>
<!-- fail_comp3&#45;&gt;pressure -->
<g id="edge4" class="edge">
<title>fail_comp3&#45;&gt;pressure</title>
<path fill="none" stroke="black" stroke-width="1.2" d="M192.67,-168.98C208.46,-184.56 232.63,-207.15 256,-223.94 257.6,-225.09 259.26,-226.23 260.95,-227.35"/>
<polygon fill="black" stroke="black" stroke-width="1.2" points="259.27,-230.43 269.59,-232.81 263.01,-224.51 259.27,-230.43"/>
</g>
<!-- fail_comp3&#45;&gt;mnt_comp1 -->
<g id="edge11" class="edge">
<title>fail_comp3&#45;&gt;mnt_comp1</title>
<path fill="none" stroke="black" stroke-width="1.2" d="M220.12,-134.85C228.46,-131.87 237.28,-128.73 245.94,-125.64"/>
<polygon fill="black" stroke="black" stroke-width="1.2" points="247.37,-128.84 255.62,-122.19 245.02,-122.25 247.37,-128.84"/>
</g>
<!-- fail_comp3&#45;&gt;mnt_comp3 -->
<g id="edge15" class="edge">
<title>fail_comp3&#45;&gt;mnt_comp3</title>
<path fill="none" stroke="black" stroke-width="1.2" d="M220.12,-167.02C228.46,-170 237.28,-173.14 245.94,-176.23"/>
<polygon fill="black" stroke="black" stroke-width="1.2" points="245.02,-179.62 255.62,-179.68 247.37,-173.03 245.02,-179.62"/>
</g>
<!-- fail_comp3&#45;&gt;mnt_comp4 -->
<g id="edge18" class="edge">
<title>fail_comp3&#45;&gt;mnt_comp4</title>
<path fill="none" stroke="black" stroke-width="1.2" d="M220.03,-151.85C257.01,-151.27 310.23,-147.35 354,-131.94 373.14,-125.2 392.33,-113.33 407.53,-102.44"/>
<polygon fill="black" stroke="black" stroke-width="1.2" points="410.03,-104.95 415.99,-96.18 405.87,-99.32 410.03,-104.95"/>
</g>
</g>
</svg>
