<?xml version="1.0" encoding="UTF-8" standalone="no"?>
<!DOCTYPE svg PUBLIC "-//W3C//DTD SVG 1.1//EN"
 "http://www.w3.org/Graphics/SVG/1.1/DTD/svg11.dtd">
<!-- Generated by graphviz version 2.50.0 (0)
 -->
<!-- Title: G Pages: 1 -->
<svg width="475pt" height="124pt"
 viewBox="0.00 0.00 475.00 124.00" xmlns="http://www.w3.org/2000/svg" xmlns:xlink="http://www.w3.org/1999/xlink">
<g id="graph0" class="graph" transform="scale(1 1) rotate(0) translate(4 120)">
<title>G</title>
<polygon fill="white" stroke="transparent" points="-4,4 -4,-120 471,-120 471,4 -4,4"/>
<text text-anchor="middle" x="233.5" y="-99.2" font-family="Times,serif" font-size="16.00">model=model2/varlingam_telemetry.json [machine 73]</text>
<!-- volt -->
<g id="node1" class="node">
<title>volt</title>
<path fill="white" stroke="black" d="M191.5,-36C191.5,-36 161.5,-36 161.5,-36 155.5,-36 149.5,-30 149.5,-24 149.5,-24 149.5,-12 149.5,-12 149.5,-6 155.5,0 161.5,0 161.5,0 191.5,0 191.5,0 197.5,0 203.5,-6 203.5,-12 203.5,-12 203.5,-24 203.5,-24 203.5,-30 197.5,-36 191.5,-36"/>
<text text-anchor="middle" x="176.5" y="-14.3" font-family="Helvetica,sans-Serif" font-size="14.00">volt</text>
</g>
<!-- rotate -->
<g id="node2" class="node">
<title>rotate</title>
<path fill="white" stroke="black" d="M306.5,-36C306.5,-36 273.5,-36 273.5,-36 267.5,-36 261.5,-30 261.5,-24 261.5,-24 261.5,-12 261.5,-12 261.5,-6 267.5,0 273.5,0 273.5,0 306.5,0 306.5,0 312.5,0 318.5,-6 318.5,-12 318.5,-12 318.5,-24 318.5,-24 318.5,-30 312.5,-36 306.5,-36"/>
<text text-anchor="middle" x="290" y="-14.3" font-family="Helvetica,sans-Serif" font-size="14.00">rotate</text>
</g>
<!-- volt&#45;&gt;rotate -->
<g id="edge1" class="edge">
<title>volt&#45;&gt;rotate</title>
<path fill="none" stroke="black" stroke-width="1.2" d="M203.64,-18C217.76,-18 235.45,-18 251.06,-18"/>
<polygon fill="black" stroke="black" stroke-width="1.2" points="251.47,-21.5 261.47,-18 251.47,-14.5 251.47,-21.5"/>
</g>
<!-- pressure -->
<g id="node3" class="node">
<title>pressure</title>
<path fill="white" stroke="black" d="M203,-90C203,-90 150,-90 150,-90 144,-90 138,-84 138,-78 138,-78 138,-66 138,-66 138,-60 144,-54 150,-54 150,-54 203,-54 203,-54 209,-54 215,-60 215,-66 215,-66 215,-78 215,-78 215,-84 209,-90 203,-90"/>
<text text-anchor="middle" x="176.5" y="-68.3" font-family="Helvetica,sans-Serif" font-size="14.00">pressure</text>
</g>
<!-- vibration -->
<g id="node4" class="node">
<title>vibration</title>
<path fill="white" stroke="black" d="M317,-90C317,-90 263,-90 263,-90 257,-90 251,-84 251,-78 251,-78 251,-66 251,-66 251,-60 257,-54 263,-54 263,-54 317,-54 317,-54 323,-54 329,-60 329,-66 329,-66 329,-78 329,-78 329,-84 323,-90 317,-90"/>
<text text-anchor="middle" x="290" y="-68.3" font-family="Helvetica,sans-Serif" font-size="14.00">vibration</text>
</g>
<!-- pressure&#45;&gt;vibration -->
<g id="edge2" class="edge">
<title>pressure&#45;&gt;vibration</title>
<path fill="none" stroke="black" stroke-width="1.2" d="M215.25,-72C223.42,-72 232.18,-72 240.69,-72"/>
<polygon fill="black" stroke="black" stroke-width="1.2" points="240.91,-75.5 250.91,-72 240.91,-68.5 240.91,-75.5"/>
</g>
</g>
</svg>
