<?xml version="1.0" encoding="UTF-8" standalone="no"?>
<!DOCTYPE svg PUBLIC "-//W3C//DTD SVG 1.1//EN"
 "http://www.w3.org/Graphics/SVG/1.1/DTD/svg11.dtd">
<!-- Generated by graphviz version 2.50.0 (0)
 -->
<!-- Title: G Pages: 1 -->
<svg width="636pt" height="415pt"
 viewBox="0.00 0.00 636.00 415.00" xmlns="http://www.w3.org/2000/svg" xmlns:xlink="http://www.w3.org/1999/xlink">
<g id="graph0" class="graph" transform="scale(1 1) rotate(0) translate(4 411)">
<title>G</title>
<polygon fill="white" stroke="transparent" points="-4,4 -4,-411 632,-411 632,4 -4,4"/>
<text text-anchor="middle" x="314" y="-390.2" font-family="Times,serif" font-size="16.00">model=model3/varlingam_mixed.json [machine 65]</text>
<!-- volt -->
<g id="node1" class="node">
<title>volt</title>
<path fill="white" stroke="black" d="M61,-36C61,-36 31,-36 31,-36 25,-36 19,-30 19,-24 19,-24 19,-12 19,-12 19,-6 25,0 31,0 31,0 61,0 61,0 67,0 73,-6 73,-12 73,-12 73,-24 73,-24 73,-30 67,-36 61,-36"/>
<text text-anchor="middle" x="46" y="-14.3" font-family="Helvetica,sans-Serif" font-size="14.00">volt</text>
</g>
<!-- rotate -->
<g id="node2" class="node">
<title>rotate</title>
<path fill="white" stroke="black" d="M62.5,-90C62.5,-90 29.5,-90 29.5,-90 23.5,-90 17.5,-84 17.5,-78 17.5,-78 17.5,-66 17.5,-66 17.5,-60 23.5,-54 29.5,-54 29.5,-54 62.5,-54 62.5,-54 68.5,-54 74.5,-60 74.5,-66 74.5,-66 74.5,-78 74.5,-78 74.5,-84 68.5,-90 62.5,-90"/>
<text text-anchor="middle" x="46" y="-68.3" font-family="Helvetica,sans-Serif" font-size="14.00">rotate</text>
</g>
<!-- pressure -->
<g id="node3" class="node">
<title>pressure</title>
<path fill="white" stroke="black" d="M72.5,-144C72.5,-144 19.5,-144 19.5,-144 13.5,-144 7.5,-138 7.5,-132 7.5,-132 7.5,-120 7.5,-120 7.5,-114 13.5,-108 19.5,-108 19.5,-108 72.5,-108 72.5,-108 78.5,-108 84.5,-114 84.5,-120 84.5,-120 84.5,-132 84.5,-132 84.5,-138 78.5,-144 72.5,-144"/>
<text text-anchor="middle" x="46" y="-122.3" font-family="Helvetica,sans-Serif" font-size="14.00">pressure</text>
</g>
<!-- fail_comp2 -->
<g id="node15" class="node">
<title>fail_comp2</title>
<path fill="white" stroke="black" d="M211,-144C211,-144 143,-144 143,-144 137,-144 131,-138 131,-132 131,-132 131,-120 131,-120 131,-114 137,-108 143,-108 143,-108 211,-108 211,-108 217,-108 223,-114 223,-120 223,-120 223,-132 223,-132 223,-138 217,-144 211,-144"/>
<text text-anchor="middle" x="177" y="-122.3" font-family="Helvetica,sans-Serif" font-size="14.00">fail_comp2</text>
</g>
<!-- pressure&#45;&gt;fail_comp2 -->
<g id="edge1" class="edge">
<title>pressure&#45;&gt;fail_comp2</title>
<path fill="none" stroke="black" stroke-width="1.2" d="M84.66,-126C95.93,-126 108.53,-126 120.69,-126"/>
<polygon fill="black" stroke="black" stroke-width="1.2" points="120.76,-129.5 130.76,-126 120.76,-122.5 120.76,-129.5"/>
</g>
<!-- vibration -->
<g id="node4" class="node">
<title>vibration</title>
<path fill="white" stroke="black" d="M204,-198C204,-198 150,-198 150,-198 144,-198 138,-192 138,-186 138,-186 138,-174 138,-174 138,-168 144,-162 150,-162 150,-162 204,-162 204,-162 210,-162 216,-168 216,-174 216,-174 216,-186 216,-186 216,-192 210,-198 204,-198"/>
<text text-anchor="middle" x="177" y="-176.3" font-family="Helvetica,sans-Serif" font-size="14.00">vibration</text>
</g>
<!-- err_error1 -->
<g id="node5" class="node">
<title>err_error1</title>
<path fill="white" stroke="black" d="M207.5,-294C207.5,-294 146.5,-294 146.5,-294 140.5,-294 134.5,-288 134.5,-282 134.5,-282 134.5,-270 134.5,-270 134.5,-264 140.5,-258 146.5,-258 146.5,-258 207.5,-258 207.5,-258 213.5,-258 219.5,-264 219.5,-270 219.5,-270 219.5,-282 219.5,-282 219.5,-288 213.5,-294 207.5,-294"/>
<text text-anchor="middle" x="177" y="-272.3" font-family="Helvetica,sans-Serif" font-size="14.00">err_error1</text>
</g>
<!-- err_error2 -->
<g id="node6" class="node">
<title>err_error2</title>
<path fill="white" stroke="black" d="M341.5,-281C341.5,-281 280.5,-281 280.5,-281 274.5,-281 268.5,-275 268.5,-269 268.5,-269 268.5,-257 268.5,-257 268.5,-251 274.5,-245 280.5,-245 280.5,-245 341.5,-245 341.5,-245 347.5,-245 353.5,-251 353.5,-257 353.5,-257 353.5,-269 353.5,-269 353.5,-275 347.5,-281 341.5,-281"/>
<text text-anchor="middle" x="311" y="-259.3" font-family="Helvetica,sans-Serif" font-size="14.00">err_error2</text>
</g>
<!-- err_error1&#45;&gt;err_error2 -->
<g id="edge3" class="edge">
<title>err_error1&#45;&gt;err_error2</title>
<path fill="none" stroke="black" stroke-width="1.2" d="M219.77,-271.89C231.92,-270.69 245.36,-269.37 258.06,-268.12"/>
<polygon fill="black" stroke="black" stroke-width="1.2" points="258.44,-271.59 268.05,-267.13 257.76,-264.63 258.44,-271.59"/>
</g>
<!-- err_error3 -->
<g id="node7" class="node">
<title>err_error3</title>
<path fill="white" stroke="black" d="M76.5,-273C76.5,-273 15.5,-273 15.5,-273 9.5,-273 3.5,-267 3.5,-261 3.5,-261 3.5,-249 3.5,-249 3.5,-243 9.5,-237 15.5,-237 15.5,-237 76.5,-237 76.5,-237 82.5,-237 88.5,-243 88.5,-249 88.5,-249 88.5,-261 88.5,-261 88.5,-267 82.5,-273 76.5,-273"/>
<text text-anchor="middle" x="46" y="-251.3" font-family="Helvetica,sans-Serif" font-size="14.00">err_error3</text>
</g>
<!-- err_error3&#45;&gt;err_error1 -->
<g id="edge4" class="edge">
<title>err_error3&#45;&gt;err_error1</title>
<path fill="none" stroke="black" stroke-width="1.2" d="M88.53,-261.76C99.81,-263.6 112.16,-265.61 123.95,-267.53"/>
<polygon fill="black" stroke="black" stroke-width="1.2" points="123.68,-271.03 134.11,-269.18 124.8,-264.12 123.68,-271.03"/>
</g>
<!-- err_error3&#45;&gt;err_error2 -->
<g id="edge5" class="edge">
<title>err_error3&#45;&gt;err_error2</title>
<path fill="none" stroke="black" stroke-width="1.2" d="M88.59,-251.33C101.24,-250.37 115.18,-249.47 128,-249 171.53,-247.39 182.59,-245.41 226,-249 236.5,-249.87 247.65,-251.34 258.29,-253.01"/>
<polygon fill="black" stroke="black" stroke-width="1.2" points="257.86,-256.48 268.3,-254.65 259,-249.58 257.86,-256.48"/>
</g>
<!-- err_error4 -->
<g id="node8" class="node">
<title>err_error4</title>
<path fill="white" stroke="black" d="M76.5,-327C76.5,-327 15.5,-327 15.5,-327 9.5,-327 3.5,-321 3.5,-315 3.5,-315 3.5,-303 3.5,-303 3.5,-297 9.5,-291 15.5,-291 15.5,-291 76.5,-291 76.5,-291 82.5,-291 88.5,-297 88.5,-303 88.5,-303 88.5,-315 88.5,-315 88.5,-321 82.5,-327 76.5,-327"/>
<text text-anchor="middle" x="46" y="-305.3" font-family="Helvetica,sans-Serif" font-size="14.00">err_error4</text>
</g>
<!-- err_error5 -->
<g id="node9" class="node">
<title>err_error5</title>
<path fill="white" stroke="black" d="M76.5,-198C76.5,-198 15.5,-198 15.5,-198 9.5,-198 3.5,-192 3.5,-186 3.5,-186 3.5,-174 3.5,-174 3.5,-168 9.5,-162 15.5,-162 15.5,-162 76.5,-162 76.5,-162 82.5,-162 88.5,-168 88.5,-174 88.5,-174 88.5,-186 88.5,-186 88.5,-192 82.5,-198 76.5,-198"/>
<text text-anchor="middle" x="46" y="-176.3" font-family="Helvetica,sans-Serif" font-size="14.00">err_error5</text>
</g>
<!-- err_error5&#45;&gt;vibration -->
<g id="edge2" class="edge">
<title>err_error5&#45;&gt;vibration</title>
<path fill="none" stroke="black" stroke-width="1.2" d="M88.53,-180C100.96,-180 114.71,-180 127.55,-180"/>
<polygon fill="black" stroke="black" stroke-width="1.2" points="127.62,-183.5 137.62,-180 127.61,-176.5 127.62,-183.5"/>
</g>
<!-- mnt_comp1 -->
<g id="node10" class="node">
<title>mnt_comp1</title>
<path fill="white" stroke="black" d="M482,-167C482,-167 408,-167 408,-167 402,-167 396,-161 396,-155 396,-155 396,-143 396,-143 396,-137 402,-131 408,-131 408,-131 482,-131 482,-131 488,-131 494,-137 494,-143 494,-143 494,-155 494,-155 494,-161 488,-167 482,-167"/>
<text text-anchor="middle" x="445" y="-145.3" font-family="Helvetica,sans-Serif" font-size="14.00">mnt_comp1</text>
</g>
<!-- mnt_comp3 -->
<g id="node12" class="node">
<title>mnt_comp3</title>
<path fill="white" stroke="black" d="M616,-144C616,-144 542,-144 542,-144 536,-144 530,-138 530,-132 530,-132 530,-120 530,-120 530,-114 536,-108 542,-108 542,-108 616,-108 616,-108 622,-108 628,-114 628,-120 628,-120 628,-132 628,-132 628,-138 622,-144 616,-144"/>
<text text-anchor="middle" x="579" y="-122.3" font-family="Helvetica,sans-Serif" font-size="14.00">mnt_comp3</text>
</g>
<!-- mnt_comp1&#45;&gt;mnt_comp3 -->
<g id="edge7" class="edge">
<title>mnt_comp1&#45;&gt;mnt_comp3</title>
<path fill="none" stroke="black" stroke-width="1.2" d="M494.03,-140.63C502.4,-139.17 511.19,-137.64 519.8,-136.14"/>
<polygon fill="black" stroke="black" stroke-width="1.2" points="520.54,-139.57 529.79,-134.4 519.33,-132.67 520.54,-139.57"/>
</g>
<!-- mnt_comp2 -->
<g id="node11" class="node">
<title>mnt_comp2</title>
<path fill="white" stroke="black" d="M348,-213C348,-213 274,-213 274,-213 268,-213 262,-207 262,-201 262,-201 262,-189 262,-189 262,-183 268,-177 274,-177 274,-177 348,-177 348,-177 354,-177 360,-183 360,-189 360,-189 360,-201 360,-201 360,-207 354,-213 348,-213"/>
<text text-anchor="middle" x="311" y="-191.3" font-family="Helvetica,sans-Serif" font-size="14.00">mnt_comp2</text>
</g>
<!-- mnt_comp2&#45;&gt;mnt_comp1 -->
<g id="edge6" class="edge">
<title>mnt_comp2&#45;&gt;mnt_comp1</title>
<path fill="none" stroke="black" stroke-width="1.2" d="M360.03,-178.26C368.49,-175.31 377.38,-172.22 386.08,-169.18"/>
<polygon fill="black" stroke="black" stroke-width="1.2" points="387.49,-172.4 395.79,-165.8 385.19,-165.79 387.49,-172.4"/>
</g>
<!-- mnt_comp2&#45;&gt;mnt_comp3 -->
<g id="edge10" class="edge">
<title>mnt_comp2&#45;&gt;mnt_comp3</title>
<path fill="none" stroke="black" stroke-width="1.2" d="M360.32,-195.57C397.7,-194.68 450.28,-190.51 494,-176 512.18,-169.97 530.65,-159.54 545.63,-149.76"/>
<polygon fill="black" stroke="black" stroke-width="1.2" points="547.67,-152.6 554.02,-144.11 543.77,-146.79 547.67,-152.6"/>
</g>
<!-- mnt_comp4 -->
<g id="node13" class="node">
<title>mnt_comp4</title>
<path fill="white" stroke="black" d="M214,-381C214,-381 140,-381 140,-381 134,-381 128,-375 128,-369 128,-369 128,-357 128,-357 128,-351 134,-345 140,-345 140,-345 214,-345 214,-345 220,-345 226,-351 226,-357 226,-357 226,-369 226,-369 226,-375 220,-381 214,-381"/>
<text text-anchor="middle" x="177" y="-359.3" font-family="Helvetica,sans-Serif" font-size="14.00">mnt_comp4</text>
</g>
<!-- fail_comp1 -->
<g id="node14" class="node">
<title>fail_comp1</title>
<path fill="white" stroke="black" d="M345,-121C345,-121 277,-121 277,-121 271,-121 265,-115 265,-109 265,-109 265,-97 265,-97 265,-91 271,-85 277,-85 277,-85 345,-85 345,-85 351,-85 357,-91 357,-97 357,-97 357,-109 357,-109 357,-115 351,-121 345,-121"/>
<text text-anchor="middle" x="311" y="-99.3" font-family="Helvetica,sans-Serif" font-size="14.00">fail_comp1</text>
</g>
<!-- fail_comp1&#45;&gt;mnt_comp1 -->
<g id="edge8" class="edge">
<title>fail_comp1&#45;&gt;mnt_comp1</title>
<path fill="none" stroke="black" stroke-width="1.2" d="M357.06,-118.7C366.47,-121.98 376.51,-125.48 386.31,-128.9"/>
<polygon fill="black" stroke="black" stroke-width="1.2" points="385.39,-132.28 395.99,-132.27 387.7,-125.67 385.39,-132.28"/>
</g>
<!-- fail_comp1&#45;&gt;mnt_comp3 -->
<g id="edge12" class="edge">
<title>fail_comp1&#45;&gt;mnt_comp3</title>
<path fill="none" stroke="black" stroke-width="1.2" d="M357.12,-106.9C401.96,-110.78 470.91,-116.74 519.83,-120.97"/>
<polygon fill="black" stroke="black" stroke-width="1.2" points="519.69,-124.47 529.95,-121.85 520.29,-117.5 519.69,-124.47"/>
</g>
<!-- fail_comp2&#45;&gt;mnt_comp1 -->
<g id="edge9" class="edge">
<title>fail_comp2&#45;&gt;mnt_comp1</title>
<path fill="none" stroke="black" stroke-width="1.2" d="M223.12,-129.9C267.96,-133.78 336.91,-139.74 385.83,-143.97"/>
<polygon fill="black" stroke="black" stroke-width="1.2" points="385.69,-147.47 395.95,-144.85 386.29,-140.5 385.69,-147.47"/>
</g>
<!-- fail_comp2&#45;&gt;mnt_comp2 -->
<g id="edge11" class="edge">
<title>fail_comp2&#45;&gt;mnt_comp2</title>
<path fill="none" stroke="black" stroke-width="1.2" d="M212.68,-144.13C229.2,-152.77 249.13,-163.18 266.64,-172.34"/>
<polygon fill="black" stroke="black" stroke-width="1.2" points="265.07,-175.46 275.55,-176.99 268.31,-169.26 265.07,-175.46"/>
</g>
<!-- fail_comp2&#45;&gt;mnt_comp3 -->
<g id="edge13" class="edge">
<title>fail_comp2&#45;&gt;mnt_comp3</title>
<path fill="none" stroke="black" stroke-width="1.2" d="M200.69,-107.88C216.77,-96.26 239.42,-82.21 262,-76 352.99,-50.97 462.4,-81.19 525.7,-104.35"/>
<polygon fill="black" stroke="black" stroke-width="1.2" points="524.86,-107.77 535.45,-107.99 527.31,-101.21 524.86,-107.77"/>
</g>
<!-- fail_comp2&#45;&gt;fail_comp1 -->
<g id="edge15" class="edge">
<title>fail_comp2&#45;&gt;fail_comp1</title>
<path fill="none" stroke="black" stroke-width="1.2" d="M223.06,-118.15C233.25,-116.37 244.18,-114.47 254.73,-112.63"/>
<polygon fill="black" stroke="black" stroke-width="1.2" points="255.45,-116.06 264.7,-110.89 254.24,-109.16 255.45,-116.06"/>
</g>
<!-- fail_comp4 -->
<g id="node16" class="node">
<title>fail_comp4</title>
<path fill="white" stroke="black" d="M80,-381C80,-381 12,-381 12,-381 6,-381 0,-375 0,-369 0,-369 0,-357 0,-357 0,-351 6,-345 12,-345 12,-345 80,-345 80,-345 86,-345 92,-351 92,-357 92,-357 92,-369 92,-369 92,-375 86,-381 80,-381"/>
<text text-anchor="middle" x="46" y="-359.3" font-family="Helvetica,sans-Serif" font-size="14.00">fail_comp4</text>
</g>
<!-- fail_comp4&#45;&gt;mnt_comp4 -->
<g id="edge14" class="edge">
<title>fail_comp4&#45;&gt;mnt_comp4</title>
<path fill="none" stroke="black" stroke-width="1.2" d="M92.12,-363C100.28,-363 108.9,-363 117.38,-363"/>
<polygon fill="black" stroke="black" stroke-width="1.2" points="117.62,-366.5 127.62,-363 117.62,-359.5 117.62,-366.5"/>
</g>
</g>
</svg>
