<?xml version="1.0" encoding="UTF-8" standalone="no"?>
<!DOCTYPE svg PUBLIC "-//W3C//DTD SVG 1.1//EN"
 "http://www.w3.org/Graphics/SVG/1.1/DTD/svg11.dtd">
<!-- Generated by graphviz version 2.50.0 (0)
 -->
<!-- Title: G Pages: 1 -->
<svg width="502pt" height="568pt"
 viewBox="0.00 0.00 502.00 568.00" xmlns="http://www.w3.org/2000/svg" xmlns:xlink="http://www.w3.org/1999/xlink">
<g id="graph0" class="graph" transform="scale(1 1) rotate(0) translate(4 564)">
<title>G</title>
<polygon fill="white" stroke="transparent" points="-4,4 -4,-564 498,-564 498,4 -4,4"/>
<text text-anchor="middle" x="247" y="-543.2" font-family="Times,serif" font-size="16.00">model=model1/varlingam_mixed.json [machine 42]</text>
<!-- volt -->
<g id="node1" class="node">
<title>volt</title>
<path fill="white" stroke="black" d="M61,-36C61,-36 31,-36 31,-36 25,-36 19,-30 19,-24 19,-24 19,-12 19,-12 19,-6 25,0 31,0 31,0 61,0 61,0 67,0 73,-6 73,-12 73,-12 73,-24 73,-24 73,-30 67,-36 61,-36"/>
<text text-anchor="middle" x="46" y="-14.3" font-family="Helvetica,sans-Serif" font-size="14.00">volt</text>
</g>
<!-- rotate -->
<g id="node2" class="node">
<title>rotate</title>
<path fill="white" stroke="black" d="M327.5,-90C327.5,-90 294.5,-90 294.5,-90 288.5,-90 282.5,-84 282.5,-78 282.5,-78 282.5,-66 282.5,-66 282.5,-60 288.5,-54 294.5,-54 294.5,-54 327.5,-54 327.5,-54 333.5,-54 339.5,-60 339.5,-66 339.5,-66 339.5,-78 339.5,-78 339.5,-84 333.5,-90 327.5,-90"/>
<text text-anchor="middle" x="311" y="-68.3" font-family="Helvetica,sans-Serif" font-size="14.00">rotate</text>
</g>
<!-- pressure -->
<g id="node3" class="node">
<title>pressure</title>
<path fill="white" stroke="black" d="M203.5,-424C203.5,-424 150.5,-424 150.5,-424 144.5,-424 138.5,-418 138.5,-412 138.5,-412 138.5,-400 138.5,-400 138.5,-394 144.5,-388 150.5,-388 150.5,-388 203.5,-388 203.5,-388 209.5,-388 215.5,-394 215.5,-400 215.5,-400 215.5,-412 215.5,-412 215.5,-418 209.5,-424 203.5,-424"/>
<text text-anchor="middle" x="177" y="-402.3" font-family="Helvetica,sans-Serif" font-size="14.00">pressure</text>
</g>
<!-- vibration -->
<g id="node4" class="node">
<title>vibration</title>
<path fill="white" stroke="black" d="M73,-480C73,-480 19,-480 19,-480 13,-480 7,-474 7,-468 7,-468 7,-456 7,-456 7,-450 13,-444 19,-444 19,-444 73,-444 73,-444 79,-444 85,-450 85,-456 85,-456 85,-468 85,-468 85,-474 79,-480 73,-480"/>
<text text-anchor="middle" x="46" y="-458.3" font-family="Helvetica,sans-Serif" font-size="14.00">vibration</text>
</g>
<!-- err_error1 -->
<g id="node5" class="node">
<title>err_error1</title>
<path fill="white" stroke="black" d="M76.5,-534C76.5,-534 15.5,-534 15.5,-534 9.5,-534 3.5,-528 3.5,-522 3.5,-522 3.5,-510 3.5,-510 3.5,-504 9.5,-498 15.5,-498 15.5,-498 76.5,-498 76.5,-498 82.5,-498 88.5,-504 88.5,-510 88.5,-510 88.5,-522 88.5,-522 88.5,-528 82.5,-534 76.5,-534"/>
<text text-anchor="middle" x="46" y="-512.3" font-family="Helvetica,sans-Serif" font-size="14.00">err_error1</text>
</g>
<!-- err_error2 -->
<g id="node6" class="node">
<title>err_error2</title>
<path fill="white" stroke="black" d="M76.5,-90C76.5,-90 15.5,-90 15.5,-90 9.5,-90 3.5,-84 3.5,-78 3.5,-78 3.5,-66 3.5,-66 3.5,-60 9.5,-54 15.5,-54 15.5,-54 76.5,-54 76.5,-54 82.5,-54 88.5,-60 88.5,-66 88.5,-66 88.5,-78 88.5,-78 88.5,-84 82.5,-90 76.5,-90"/>
<text text-anchor="middle" x="46" y="-68.3" font-family="Helvetica,sans-Serif" font-size="14.00">err_error2</text>
</g>
<!-- err_error3 -->
<g id="node7" class="node">
<title>err_error3</title>
<path fill="white" stroke="black" d="M207.5,-90C207.5,-90 146.5,-90 146.5,-90 140.5,-90 134.5,-84 134.5,-78 134.5,-78 134.5,-66 134.5,-66 134.5,-60 140.5,-54 146.5,-54 146.5,-54 207.5,-54 207.5,-54 213.5,-54 219.5,-60 219.5,-66 219.5,-66 219.5,-78 219.5,-78 219.5,-84 213.5,-90 207.5,-90"/>
<text text-anchor="middle" x="177" y="-68.3" font-family="Helvetica,sans-Serif" font-size="14.00">err_error3</text>
</g>
<!-- err_error2&#45;&gt;err_error3 -->
<g id="edge4" class="edge">
<title>err_error2&#45;&gt;err_error3</title>
<path fill="none" stroke="black" stroke-width="1.2" d="M88.53,-72C99.81,-72 112.16,-72 123.95,-72"/>
<polygon fill="black" stroke="black" stroke-width="1.2" points="124.11,-75.5 134.11,-72 124.11,-68.5 124.11,-75.5"/>
</g>
<!-- err_error3&#45;&gt;rotate -->
<g id="edge1" class="edge">
<title>err_error3&#45;&gt;rotate</title>
<path fill="none" stroke="black" stroke-width="1.2" d="M219.77,-72C236.49,-72 255.64,-72 271.97,-72"/>
<polygon fill="black" stroke="black" stroke-width="1.2" points="272.25,-75.5 282.25,-72 272.25,-68.5 272.25,-75.5"/>
</g>
<!-- err_error4 -->
<g id="node8" class="node">
<title>err_error4</title>
<path fill="white" stroke="black" d="M76.5,-426C76.5,-426 15.5,-426 15.5,-426 9.5,-426 3.5,-420 3.5,-414 3.5,-414 3.5,-402 3.5,-402 3.5,-396 9.5,-390 15.5,-390 15.5,-390 76.5,-390 76.5,-390 82.5,-390 88.5,-396 88.5,-402 88.5,-402 88.5,-414 88.5,-414 88.5,-420 82.5,-426 76.5,-426"/>
<text text-anchor="middle" x="46" y="-404.3" font-family="Helvetica,sans-Serif" font-size="14.00">err_error4</text>
</g>
<!-- err_error4&#45;&gt;pressure -->
<g id="edge2" class="edge">
<title>err_error4&#45;&gt;pressure</title>
<path fill="none" stroke="black" stroke-width="1.2" d="M88.53,-407.36C101.2,-407.16 115.23,-406.94 128.27,-406.74"/>
<polygon fill="black" stroke="black" stroke-width="1.2" points="128.53,-410.24 138.48,-406.58 128.43,-403.24 128.53,-410.24"/>
</g>
<!-- mnt_comp1 -->
<g id="node9" class="node">
<title>mnt_comp1</title>
<path fill="white" stroke="black" d="M214,-274C214,-274 140,-274 140,-274 134,-274 128,-268 128,-262 128,-262 128,-250 128,-250 128,-244 134,-238 140,-238 140,-238 214,-238 214,-238 220,-238 226,-244 226,-250 226,-250 226,-262 226,-262 226,-268 220,-274 214,-274"/>
<text text-anchor="middle" x="177" y="-252.3" font-family="Helvetica,sans-Serif" font-size="14.00">mnt_comp1</text>
</g>
<!-- mnt_comp2 -->
<g id="node10" class="node">
<title>mnt_comp2</title>
<path fill="white" stroke="black" d="M348,-228C348,-228 274,-228 274,-228 268,-228 262,-222 262,-216 262,-216 262,-204 262,-204 262,-198 268,-192 274,-192 274,-192 348,-192 348,-192 354,-192 360,-198 360,-204 360,-204 360,-216 360,-216 360,-222 354,-228 348,-228"/>
<text text-anchor="middle" x="311" y="-206.3" font-family="Helvetica,sans-Serif" font-size="14.00">mnt_comp2</text>
</g>
<!-- mnt_comp1&#45;&gt;mnt_comp2 -->
<g id="edge5" class="edge">
<title>mnt_comp1&#45;&gt;mnt_comp2</title>
<path fill="none" stroke="black" stroke-width="1.2" d="M226.03,-239.26C234.49,-236.31 243.38,-233.22 252.08,-230.18"/>
<polygon fill="black" stroke="black" stroke-width="1.2" points="253.49,-233.4 261.79,-226.8 251.19,-226.79 253.49,-233.4"/>
</g>
<!-- mnt_comp4 -->
<g id="node12" class="node">
<title>mnt_comp4</title>
<path fill="white" stroke="black" d="M482,-251C482,-251 408,-251 408,-251 402,-251 396,-245 396,-239 396,-239 396,-227 396,-227 396,-221 402,-215 408,-215 408,-215 482,-215 482,-215 488,-215 494,-221 494,-227 494,-227 494,-239 494,-239 494,-245 488,-251 482,-251"/>
<text text-anchor="middle" x="445" y="-229.3" font-family="Helvetica,sans-Serif" font-size="14.00">mnt_comp4</text>
</g>
<!-- mnt_comp1&#45;&gt;mnt_comp4 -->
<g id="edge6" class="edge">
<title>mnt_comp1&#45;&gt;mnt_comp4</title>
<path fill="none" stroke="black" stroke-width="1.2" d="M226.17,-251.83C270.94,-247.96 337.73,-242.19 385.54,-238.05"/>
<polygon fill="black" stroke="black" stroke-width="1.2" points="386.08,-241.52 395.74,-237.17 385.47,-234.55 386.08,-241.52"/>
</g>
<!-- mnt_comp2&#45;&gt;mnt_comp4 -->
<g id="edge9" class="edge">
<title>mnt_comp2&#45;&gt;mnt_comp4</title>
<path fill="none" stroke="black" stroke-width="1.2" d="M360.03,-218.37C368.4,-219.83 377.19,-221.36 385.8,-222.86"/>
<polygon fill="black" stroke="black" stroke-width="1.2" points="385.33,-226.33 395.79,-224.6 386.54,-219.43 385.33,-226.33"/>
</g>
<!-- mnt_comp3 -->
<g id="node11" class="node">
<title>mnt_comp3</title>
<path fill="white" stroke="black" d="M214,-328C214,-328 140,-328 140,-328 134,-328 128,-322 128,-316 128,-316 128,-304 128,-304 128,-298 134,-292 140,-292 140,-292 214,-292 214,-292 220,-292 226,-298 226,-304 226,-304 226,-316 226,-316 226,-322 220,-328 214,-328"/>
<text text-anchor="middle" x="177" y="-306.3" font-family="Helvetica,sans-Serif" font-size="14.00">mnt_comp3</text>
</g>
<!-- mnt_comp3&#45;&gt;mnt_comp2 -->
<g id="edge8" class="edge">
<title>mnt_comp3&#45;&gt;mnt_comp2</title>
<path fill="none" stroke="black" stroke-width="1.2" d="M212.1,-291.96C216.86,-289.11 221.62,-286.08 226,-283 246.49,-268.56 267.79,-250 283.82,-235.21"/>
<polygon fill="black" stroke="black" stroke-width="1.2" points="286.31,-237.67 291.23,-228.29 281.54,-232.55 286.31,-237.67"/>
</g>
<!-- mnt_comp3&#45;&gt;mnt_comp4 -->
<g id="edge12" class="edge">
<title>mnt_comp3&#45;&gt;mnt_comp4</title>
<path fill="none" stroke="black" stroke-width="1.2" d="M226.32,-296.35C263.02,-285.94 314.73,-271.2 360,-258 368.38,-255.55 377.23,-252.95 385.91,-250.38"/>
<polygon fill="black" stroke="black" stroke-width="1.2" points="387.02,-253.7 395.61,-247.5 385.03,-246.99 387.02,-253.7"/>
</g>
<!-- fail_comp1 -->
<g id="node13" class="node">
<title>fail_comp1</title>
<path fill="white" stroke="black" d="M80,-228C80,-228 12,-228 12,-228 6,-228 0,-222 0,-216 0,-216 0,-204 0,-204 0,-198 6,-192 12,-192 12,-192 80,-192 80,-192 86,-192 92,-198 92,-204 92,-204 92,-216 92,-216 92,-222 86,-228 80,-228"/>
<text text-anchor="middle" x="46" y="-206.3" font-family="Helvetica,sans-Serif" font-size="14.00">fail_comp1</text>
</g>
<!-- fail_comp1&#45;&gt;mnt_comp1 -->
<g id="edge7" class="edge">
<title>fail_comp1&#45;&gt;mnt_comp1</title>
<path fill="none" stroke="black" stroke-width="1.2" d="M92.12,-226.09C100.46,-229.06 109.28,-232.21 117.94,-235.3"/>
<polygon fill="black" stroke="black" stroke-width="1.2" points="117.02,-238.68 127.62,-238.75 119.37,-232.09 117.02,-238.68"/>
</g>
<!-- fail_comp1&#45;&gt;mnt_comp2 -->
<g id="edge10" class="edge">
<title>fail_comp1&#45;&gt;mnt_comp2</title>
<path fill="none" stroke="black" stroke-width="1.2" d="M92.21,-210C136.27,-210 203.46,-210 251.56,-210"/>
<polygon fill="black" stroke="black" stroke-width="1.2" points="251.82,-213.5 261.82,-210 251.82,-206.5 251.82,-213.5"/>
</g>
<!-- fail_comp1&#45;&gt;mnt_comp4 -->
<g id="edge14" class="edge">
<title>fail_comp1&#45;&gt;mnt_comp4</title>
<path fill="none" stroke="black" stroke-width="1.2" d="M60.43,-191.82C74.85,-173.98 99.55,-147.93 128,-137 168.66,-121.38 182.62,-133.15 226,-137 286.27,-142.35 305.34,-135.07 360,-161 383.41,-172.11 405.48,-191.51 421.12,-207.37"/>
<polygon fill="black" stroke="black" stroke-width="1.2" points="418.81,-210.02 428.25,-214.82 423.86,-205.18 418.81,-210.02"/>
</g>
<!-- fail_comp2 -->
<g id="node14" class="node">
<title>fail_comp2</title>
<path fill="white" stroke="black" d="M211,-182C211,-182 143,-182 143,-182 137,-182 131,-176 131,-170 131,-170 131,-158 131,-158 131,-152 137,-146 143,-146 143,-146 211,-146 211,-146 217,-146 223,-152 223,-158 223,-158 223,-170 223,-170 223,-176 217,-182 211,-182"/>
<text text-anchor="middle" x="177" y="-160.3" font-family="Helvetica,sans-Serif" font-size="14.00">fail_comp2</text>
</g>
<!-- fail_comp2&#45;&gt;mnt_comp2 -->
<g id="edge11" class="edge">
<title>fail_comp2&#45;&gt;mnt_comp2</title>
<path fill="none" stroke="black" stroke-width="1.2" d="M223.06,-179.7C232.47,-182.98 242.51,-186.48 252.31,-189.9"/>
<polygon fill="black" stroke="black" stroke-width="1.2" points="251.39,-193.28 261.99,-193.27 253.7,-186.67 251.39,-193.28"/>
</g>
<!-- fail_comp2&#45;&gt;mnt_comp4 -->
<g id="edge15" class="edge">
<title>fail_comp2&#45;&gt;mnt_comp4</title>
<path fill="none" stroke="black" stroke-width="1.2" d="M223.26,-163.37C260.79,-164.1 315.07,-168.09 360,-183 378.18,-189.03 396.65,-199.46 411.63,-209.24"/>
<polygon fill="black" stroke="black" stroke-width="1.2" points="409.77,-212.21 420.02,-214.89 413.67,-206.4 409.77,-212.21"/>
</g>
<!-- fail_comp3 -->
<g id="node15" class="node">
<title>fail_comp3</title>
<path fill="white" stroke="black" d="M80,-372C80,-372 12,-372 12,-372 6,-372 0,-366 0,-360 0,-360 0,-348 0,-348 0,-342 6,-336 12,-336 12,-336 80,-336 80,-336 86,-336 92,-342 92,-348 92,-348 92,-360 92,-360 92,-366 86,-372 80,-372"/>
<text text-anchor="middle" x="46" y="-350.3" font-family="Helvetica,sans-Serif" font-size="14.00">fail_comp3</text>
</g>
<!-- fail_comp3&#45;&gt;pressure -->
<g id="edge3" class="edge">
<title>fail_comp3&#45;&gt;pressure</title>
<path fill="none" stroke="black" stroke-width="1.2" d="M91.76,-372.04C103.7,-376.86 116.64,-382.07 128.72,-386.94"/>
<polygon fill="black" stroke="black" stroke-width="1.2" points="127.59,-390.26 138.18,-390.75 130.21,-383.77 127.59,-390.26"/>
</g>
<!-- fail_comp3&#45;&gt;mnt_comp3 -->
<g id="edge13" class="edge">
<title>fail_comp3&#45;&gt;mnt_comp3</title>
<path fill="none" stroke="black" stroke-width="1.2" d="M92.12,-338.61C100.46,-335.77 109.28,-332.76 117.94,-329.8"/>
<polygon fill="black" stroke="black" stroke-width="1.2" points="119.28,-333.04 127.62,-326.5 117.02,-326.42 119.28,-333.04"/>
</g>
<!-- fail_comp3&#45;&gt;mnt_comp4 -->
<g id="edge16" class="edge">
<title>fail_comp3&#45;&gt;mnt_comp4</title>
<path fill="none" stroke="black" stroke-width="1.2" d="M92.06,-353.14C128.6,-351.63 181.19,-347.61 226,-337 288.16,-322.29 302.82,-313.49 360,-285 376.53,-276.77 394.01,-266.26 408.72,-256.85"/>
<polygon fill="black" stroke="black" stroke-width="1.2" points="411,-259.54 417.49,-251.16 407.19,-253.67 411,-259.54"/>
</g>
</g>
</svg>
