<?xml version="1.0" encoding="UTF-8" standalone="no"?>
<!DOCTYPE svg PUBLIC "-//W3C//DTD SVG 1.1//EN"
 "http://www.w3.org/Graphics/SVG/1.1/DTD/svg11.dtd">
<!-- Generated by graphviz version 2.50.0 (0)
 -->
<!-- Title: G Pages: 1 -->
<svg width="636pt" height="568pt"
 viewBox="0.00 0.00 636.00 568.00" xmlns="http://www.w3.org/2000/svg" xmlns:xlink="http://www.w3.org/1999/xlink">
<g id="graph0" class="graph" transform="scale(1 1) rotate(0) translate(4 564)">
<title>G</title>
<polygon fill="white" stroke="transparent" points="-4,4 -4,-564 632,-564 632,4 -4,4"/>
<text text-anchor="middle" x="314" y="-543.2" font-family="Times,serif" font-size="16.00">model=model3/varlingam_mixed.json [machine 82]</text>
<!-- volt -->
<g id="node1" class="node">
<title>volt</title>
<path fill="white" stroke="black" d="M61,-258C61,-258 31,-258 31,-258 25,-258 19,-252 19,-246 19,-246 19,-234 19,-234 19,-228 25,-222 31,-222 31,-222 61,-222 61,-222 67,-222 73,-228 73,-234 73,-234 73,-246 73,-246 73,-252 67,-258 61,-258"/>
<text text-anchor="middle" x="46" y="-236.3" font-family="Helvetica,sans-Serif" font-size="14.00">volt</text>
</g>
<!-- mnt_comp2 -->
<g id="node11" class="node">
<title>mnt_comp2</title>
<path fill="white" stroke="black" d="M214,-258C214,-258 140,-258 140,-258 134,-258 128,-252 128,-246 128,-246 128,-234 128,-234 128,-228 134,-222 140,-222 140,-222 214,-222 214,-222 220,-222 226,-228 226,-234 226,-234 226,-246 226,-246 226,-252 220,-258 214,-258"/>
<text text-anchor="middle" x="177" y="-236.3" font-family="Helvetica,sans-Serif" font-size="14.00">mnt_comp2</text>
</g>
<!-- volt&#45;&gt;mnt_comp2 -->
<g id="edge1" class="edge">
<title>volt&#45;&gt;mnt_comp2</title>
<path fill="none" stroke="black" stroke-width="1.2" d="M73.11,-240C85.97,-240 102.04,-240 117.62,-240"/>
<polygon fill="black" stroke="black" stroke-width="1.2" points="117.76,-243.5 127.76,-240 117.76,-236.5 117.76,-243.5"/>
</g>
<!-- rotate -->
<g id="node2" class="node">
<title>rotate</title>
<path fill="white" stroke="black" d="M193.5,-128C193.5,-128 160.5,-128 160.5,-128 154.5,-128 148.5,-122 148.5,-116 148.5,-116 148.5,-104 148.5,-104 148.5,-98 154.5,-92 160.5,-92 160.5,-92 193.5,-92 193.5,-92 199.5,-92 205.5,-98 205.5,-104 205.5,-104 205.5,-116 205.5,-116 205.5,-122 199.5,-128 193.5,-128"/>
<text text-anchor="middle" x="177" y="-106.3" font-family="Helvetica,sans-Serif" font-size="14.00">rotate</text>
</g>
<!-- pressure -->
<g id="node3" class="node">
<title>pressure</title>
<path fill="white" stroke="black" d="M72.5,-36C72.5,-36 19.5,-36 19.5,-36 13.5,-36 7.5,-30 7.5,-24 7.5,-24 7.5,-12 7.5,-12 7.5,-6 13.5,0 19.5,0 19.5,0 72.5,0 72.5,0 78.5,0 84.5,-6 84.5,-12 84.5,-12 84.5,-24 84.5,-24 84.5,-30 78.5,-36 72.5,-36"/>
<text text-anchor="middle" x="46" y="-14.3" font-family="Helvetica,sans-Serif" font-size="14.00">pressure</text>
</g>
<!-- vibration -->
<g id="node4" class="node">
<title>vibration</title>
<path fill="white" stroke="black" d="M204,-36C204,-36 150,-36 150,-36 144,-36 138,-30 138,-24 138,-24 138,-12 138,-12 138,-6 144,0 150,0 150,0 204,0 204,0 210,0 216,-6 216,-12 216,-12 216,-24 216,-24 216,-30 210,-36 204,-36"/>
<text text-anchor="middle" x="177" y="-14.3" font-family="Helvetica,sans-Serif" font-size="14.00">vibration</text>
</g>
<!-- pressure&#45;&gt;vibration -->
<g id="edge3" class="edge">
<title>pressure&#45;&gt;vibration</title>
<path fill="none" stroke="black" stroke-width="1.2" d="M84.66,-18C98.06,-18 113.35,-18 127.53,-18"/>
<polygon fill="black" stroke="black" stroke-width="1.2" points="127.62,-21.5 137.62,-18 127.62,-14.5 127.62,-21.5"/>
</g>
<!-- err_error1 -->
<g id="node5" class="node">
<title>err_error1</title>
<path fill="white" stroke="black" d="M76.5,-370C76.5,-370 15.5,-370 15.5,-370 9.5,-370 3.5,-364 3.5,-358 3.5,-358 3.5,-346 3.5,-346 3.5,-340 9.5,-334 15.5,-334 15.5,-334 76.5,-334 76.5,-334 82.5,-334 88.5,-340 88.5,-346 88.5,-346 88.5,-358 88.5,-358 88.5,-364 82.5,-370 76.5,-370"/>
<text text-anchor="middle" x="46" y="-348.3" font-family="Helvetica,sans-Serif" font-size="14.00">err_error1</text>
</g>
<!-- err_error2 -->
<g id="node6" class="node">
<title>err_error2</title>
<path fill="white" stroke="black" d="M207.5,-426C207.5,-426 146.5,-426 146.5,-426 140.5,-426 134.5,-420 134.5,-414 134.5,-414 134.5,-402 134.5,-402 134.5,-396 140.5,-390 146.5,-390 146.5,-390 207.5,-390 207.5,-390 213.5,-390 219.5,-396 219.5,-402 219.5,-402 219.5,-414 219.5,-414 219.5,-420 213.5,-426 207.5,-426"/>
<text text-anchor="middle" x="177" y="-404.3" font-family="Helvetica,sans-Serif" font-size="14.00">err_error2</text>
</g>
<!-- err_error3 -->
<g id="node7" class="node">
<title>err_error3</title>
<path fill="white" stroke="black" d="M76.5,-426C76.5,-426 15.5,-426 15.5,-426 9.5,-426 3.5,-420 3.5,-414 3.5,-414 3.5,-402 3.5,-402 3.5,-396 9.5,-390 15.5,-390 15.5,-390 76.5,-390 76.5,-390 82.5,-390 88.5,-396 88.5,-402 88.5,-402 88.5,-414 88.5,-414 88.5,-420 82.5,-426 76.5,-426"/>
<text text-anchor="middle" x="46" y="-404.3" font-family="Helvetica,sans-Serif" font-size="14.00">err_error3</text>
</g>
<!-- err_error3&#45;&gt;err_error2 -->
<g id="edge5" class="edge">
<title>err_error3&#45;&gt;err_error2</title>
<path fill="none" stroke="black" stroke-width="1.2" d="M88.53,-408C99.81,-408 112.16,-408 123.95,-408"/>
<polygon fill="black" stroke="black" stroke-width="1.2" points="124.11,-411.5 134.11,-408 124.11,-404.5 124.11,-411.5"/>
</g>
<!-- err_error4 -->
<g id="node8" class="node">
<title>err_error4</title>
<path fill="white" stroke="black" d="M76.5,-480C76.5,-480 15.5,-480 15.5,-480 9.5,-480 3.5,-474 3.5,-468 3.5,-468 3.5,-456 3.5,-456 3.5,-450 9.5,-444 15.5,-444 15.5,-444 76.5,-444 76.5,-444 82.5,-444 88.5,-450 88.5,-456 88.5,-456 88.5,-468 88.5,-468 88.5,-474 82.5,-480 76.5,-480"/>
<text text-anchor="middle" x="46" y="-458.3" font-family="Helvetica,sans-Serif" font-size="14.00">err_error4</text>
</g>
<!-- err_error5 -->
<g id="node9" class="node">
<title>err_error5</title>
<path fill="white" stroke="black" d="M76.5,-534C76.5,-534 15.5,-534 15.5,-534 9.5,-534 3.5,-528 3.5,-522 3.5,-522 3.5,-510 3.5,-510 3.5,-504 9.5,-498 15.5,-498 15.5,-498 76.5,-498 76.5,-498 82.5,-498 88.5,-504 88.5,-510 88.5,-510 88.5,-522 88.5,-522 88.5,-528 82.5,-534 76.5,-534"/>
<text text-anchor="middle" x="46" y="-512.3" font-family="Helvetica,sans-Serif" font-size="14.00">err_error5</text>
</g>
<!-- mnt_comp1 -->
<g id="node10" class="node">
<title>mnt_comp1</title>
<path fill="white" stroke="black" d="M616,-254C616,-254 542,-254 542,-254 536,-254 530,-248 530,-242 530,-242 530,-230 530,-230 530,-224 536,-218 542,-218 542,-218 616,-218 616,-218 622,-218 628,-224 628,-230 628,-230 628,-242 628,-242 628,-248 622,-254 616,-254"/>
<text text-anchor="middle" x="579" y="-232.3" font-family="Helvetica,sans-Serif" font-size="14.00">mnt_comp1</text>
</g>
<!-- mnt_comp3 -->
<g id="node12" class="node">
<title>mnt_comp3</title>
<path fill="white" stroke="black" d="M482,-231C482,-231 408,-231 408,-231 402,-231 396,-225 396,-219 396,-219 396,-207 396,-207 396,-201 402,-195 408,-195 408,-195 482,-195 482,-195 488,-195 494,-201 494,-207 494,-207 494,-219 494,-219 494,-225 488,-231 482,-231"/>
<text text-anchor="middle" x="445" y="-209.3" font-family="Helvetica,sans-Serif" font-size="14.00">mnt_comp3</text>
</g>
<!-- mnt_comp2&#45;&gt;mnt_comp3 -->
<g id="edge10" class="edge">
<title>mnt_comp2&#45;&gt;mnt_comp3</title>
<path fill="none" stroke="black" stroke-width="1.2" d="M226.17,-235.11C270.94,-230.57 337.73,-223.79 385.54,-218.93"/>
<polygon fill="black" stroke="black" stroke-width="1.2" points="386.14,-222.39 395.74,-217.9 385.44,-215.43 386.14,-222.39"/>
</g>
<!-- mnt_comp4 -->
<g id="node13" class="node">
<title>mnt_comp4</title>
<path fill="white" stroke="black" d="M348,-277C348,-277 274,-277 274,-277 268,-277 262,-271 262,-265 262,-265 262,-253 262,-253 262,-247 268,-241 274,-241 274,-241 348,-241 348,-241 354,-241 360,-247 360,-253 360,-253 360,-265 360,-265 360,-271 354,-277 348,-277"/>
<text text-anchor="middle" x="311" y="-255.3" font-family="Helvetica,sans-Serif" font-size="14.00">mnt_comp4</text>
</g>
<!-- mnt_comp2&#45;&gt;mnt_comp4 -->
<g id="edge11" class="edge">
<title>mnt_comp2&#45;&gt;mnt_comp4</title>
<path fill="none" stroke="black" stroke-width="1.2" d="M226.03,-246.91C234.4,-248.12 243.19,-249.38 251.8,-250.62"/>
<polygon fill="black" stroke="black" stroke-width="1.2" points="251.39,-254.1 261.79,-252.06 252.39,-247.17 251.39,-254.1"/>
</g>
<!-- mnt_comp3&#45;&gt;mnt_comp1 -->
<g id="edge6" class="edge">
<title>mnt_comp3&#45;&gt;mnt_comp1</title>
<path fill="none" stroke="black" stroke-width="1.2" d="M494.03,-221.37C502.4,-222.83 511.19,-224.36 519.8,-225.86"/>
<polygon fill="black" stroke="black" stroke-width="1.2" points="519.33,-229.33 529.79,-227.6 520.54,-222.43 519.33,-229.33"/>
</g>
<!-- mnt_comp4&#45;&gt;mnt_comp1 -->
<g id="edge7" class="edge">
<title>mnt_comp4&#45;&gt;mnt_comp1</title>
<path fill="none" stroke="black" stroke-width="1.2" d="M360.17,-254.83C404.94,-250.96 471.73,-245.19 519.54,-241.05"/>
<polygon fill="black" stroke="black" stroke-width="1.2" points="520.08,-244.52 529.74,-240.17 519.47,-237.55 520.08,-244.52"/>
</g>
<!-- mnt_comp4&#45;&gt;mnt_comp3 -->
<g id="edge14" class="edge">
<title>mnt_comp4&#45;&gt;mnt_comp3</title>
<path fill="none" stroke="black" stroke-width="1.2" d="M360.03,-242.26C368.49,-239.31 377.38,-236.22 386.08,-233.18"/>
<polygon fill="black" stroke="black" stroke-width="1.2" points="387.49,-236.4 395.79,-229.8 385.19,-229.79 387.49,-236.4"/>
</g>
<!-- fail_comp1 -->
<g id="node14" class="node">
<title>fail_comp1</title>
<path fill="white" stroke="black" d="M80,-313C80,-313 12,-313 12,-313 6,-313 0,-307 0,-301 0,-301 0,-289 0,-289 0,-283 6,-277 12,-277 12,-277 80,-277 80,-277 86,-277 92,-283 92,-289 92,-289 92,-301 92,-301 92,-307 86,-313 80,-313"/>
<text text-anchor="middle" x="46" y="-291.3" font-family="Helvetica,sans-Serif" font-size="14.00">fail_comp1</text>
</g>
<!-- fail_comp1&#45;&gt;mnt_comp1 -->
<g id="edge8" class="edge">
<title>fail_comp1&#45;&gt;mnt_comp1</title>
<path fill="none" stroke="black" stroke-width="1.2" d="M90.87,-313.13C102.72,-317.2 115.67,-320.93 128,-323 170.95,-330.21 182.49,-324.94 226,-323 285.73,-320.33 301.52,-323.48 360,-311 418.22,-298.57 482.39,-275.26 525.93,-257.92"/>
<polygon fill="black" stroke="black" stroke-width="1.2" points="527.47,-261.07 535.44,-254.09 524.86,-254.57 527.47,-261.07"/>
</g>
<!-- fail_comp1&#45;&gt;mnt_comp2 -->
<g id="edge12" class="edge">
<title>fail_comp1&#45;&gt;mnt_comp2</title>
<path fill="none" stroke="black" stroke-width="1.2" d="M89.24,-276.99C100.49,-272.2 112.77,-266.96 124.45,-261.98"/>
<polygon fill="black" stroke="black" stroke-width="1.2" points="125.84,-265.19 133.67,-258.05 123.09,-258.75 125.84,-265.19"/>
</g>
<!-- fail_comp1&#45;&gt;mnt_comp3 -->
<g id="edge15" class="edge">
<title>fail_comp1&#45;&gt;mnt_comp3</title>
<path fill="none" stroke="black" stroke-width="1.2" d="M92.19,-303.02C154.82,-312.1 270.39,-321.42 360,-286 384.71,-276.24 407.11,-255.9 422.55,-239.17"/>
<polygon fill="black" stroke="black" stroke-width="1.2" points="425.51,-241.1 429.55,-231.3 420.29,-236.44 425.51,-241.1"/>
</g>
<!-- fail_comp1&#45;&gt;mnt_comp4 -->
<g id="edge17" class="edge">
<title>fail_comp1&#45;&gt;mnt_comp4</title>
<path fill="none" stroke="black" stroke-width="1.2" d="M92.21,-288.81C136.36,-282.77 203.75,-273.54 251.86,-266.96"/>
<polygon fill="black" stroke="black" stroke-width="1.2" points="252.39,-270.42 261.82,-265.59 251.44,-263.48 252.39,-270.42"/>
</g>
<!-- fail_comp2 -->
<g id="node15" class="node">
<title>fail_comp2</title>
<path fill="white" stroke="black" d="M80,-151C80,-151 12,-151 12,-151 6,-151 0,-145 0,-139 0,-139 0,-127 0,-127 0,-121 6,-115 12,-115 12,-115 80,-115 80,-115 86,-115 92,-121 92,-127 92,-127 92,-139 92,-139 92,-145 86,-151 80,-151"/>
<text text-anchor="middle" x="46" y="-129.3" font-family="Helvetica,sans-Serif" font-size="14.00">fail_comp2</text>
</g>
<!-- fail_comp2&#45;&gt;rotate -->
<g id="edge2" class="edge">
<title>fail_comp2&#45;&gt;rotate</title>
<path fill="none" stroke="black" stroke-width="1.2" d="M92.12,-124.96C107.2,-122.27 123.85,-119.3 138.3,-116.72"/>
<polygon fill="black" stroke="black" stroke-width="1.2" points="139.16,-120.12 148.39,-114.92 137.93,-113.23 139.16,-120.12"/>
</g>
<!-- fail_comp2&#45;&gt;vibration -->
<g id="edge4" class="edge">
<title>fail_comp2&#45;&gt;vibration</title>
<path fill="none" stroke="black" stroke-width="1.2" d="M62.76,-114.76C78.4,-97.17 103.52,-70.32 128,-50 131.29,-47.27 134.83,-44.55 138.43,-41.93"/>
<polygon fill="black" stroke="black" stroke-width="1.2" points="140.69,-44.61 146.87,-36 136.67,-38.88 140.69,-44.61"/>
</g>
<!-- fail_comp2&#45;&gt;mnt_comp1 -->
<g id="edge9" class="edge">
<title>fail_comp2&#45;&gt;mnt_comp1</title>
<path fill="none" stroke="black" stroke-width="1.2" d="M68.78,-114.89C84.24,-103.27 106.06,-89.23 128,-83 169.9,-71.11 183.18,-75.05 226,-83 351.46,-106.28 379.2,-130.28 494,-186 510.06,-193.79 527.1,-203.62 541.6,-212.5"/>
<polygon fill="black" stroke="black" stroke-width="1.2" points="539.93,-215.58 550.28,-217.88 543.62,-209.63 539.93,-215.58"/>
</g>
<!-- fail_comp2&#45;&gt;mnt_comp2 -->
<g id="edge13" class="edge">
<title>fail_comp2&#45;&gt;mnt_comp2</title>
<path fill="none" stroke="black" stroke-width="1.2" d="M64.92,-151.15C80.86,-166.91 105.12,-189.97 128,-208 131.5,-210.76 135.24,-213.53 139.02,-216.22"/>
<polygon fill="black" stroke="black" stroke-width="1.2" points="137.08,-219.13 147.3,-221.95 141.07,-213.38 137.08,-219.13"/>
</g>
<!-- fail_comp2&#45;&gt;mnt_comp3 -->
<g id="edge16" class="edge">
<title>fail_comp2&#45;&gt;mnt_comp3</title>
<path fill="none" stroke="black" stroke-width="1.2" d="M92.15,-142.1C164.46,-156.67 306.17,-185.23 385.92,-201.3"/>
<polygon fill="black" stroke="black" stroke-width="1.2" points="385.31,-204.74 395.8,-203.29 386.69,-197.88 385.31,-204.74"/>
</g>
<!-- fail_comp2&#45;&gt;mnt_comp4 -->
<g id="edge18" class="edge">
<title>fail_comp2&#45;&gt;mnt_comp4</title>
<path fill="none" stroke="black" stroke-width="1.2" d="M86.5,-151.19C99.68,-157.22 114.45,-163.93 128,-170 171.41,-189.44 183.32,-192 226,-213 240.3,-220.04 255.67,-228.26 269.31,-235.78"/>
<polygon fill="black" stroke="black" stroke-width="1.2" points="267.99,-239.06 278.43,-240.86 271.4,-232.94 267.99,-239.06"/>
</g>
</g>
</svg>
