<?xml version="1.0" encoding="UTF-8" standalone="no"?>
<!DOCTYPE svg PUBLIC "-//W3C//DTD SVG 1.1//EN"
 "http://www.w3.org/Graphics/SVG/1.1/DTD/svg11.dtd">
<!-- Generated by graphviz version 2.50.0 (0)
 -->
<!-- Title: G Pages: 1 -->
<svg width="502pt" height="521pt"
 viewBox="0.00 0.00 502.00 521.00" xmlns="http://www.w3.org/2000/svg" xmlns:xlink="http://www.w3.org/1999/xlink">
<g id="graph0" class="graph" transform="scale(1 1) rotate(0) translate(4 517)">
<title>G</title>
<polygon fill="white" stroke="transparent" points="-4,4 -4,-517 498,-517 498,4 -4,4"/>
<text text-anchor="middle" x="247" y="-496.2" font-family="Times,serif" font-size="16.00">model=model4/varlingam_mixed.json [machine 2]</text>
<!-- volt -->
<g id="node1" class="node">
<title>volt</title>
<path fill="white" stroke="black" d="M61,-36C61,-36 31,-36 31,-36 25,-36 19,-30 19,-24 19,-24 19,-12 19,-12 19,-6 25,0 31,0 31,0 61,0 61,0 67,0 73,-6 73,-12 73,-12 73,-24 73,-24 73,-30 67,-36 61,-36"/>
<text text-anchor="middle" x="46" y="-14.3" font-family="Helvetica,sans-Serif" font-size="14.00">volt</text>
</g>
<!-- rotate -->
<g id="node2" class="node">
<title>rotate</title>
<path fill="white" stroke="black" d="M62.5,-90C62.5,-90 29.5,-90 29.5,-90 23.5,-90 17.5,-84 17.5,-78 17.5,-78 17.5,-66 17.5,-66 17.5,-60 23.5,-54 29.5,-54 29.5,-54 62.5,-54 62.5,-54 68.5,-54 74.5,-60 74.5,-66 74.5,-66 74.5,-78 74.5,-78 74.5,-84 68.5,-90 62.5,-90"/>
<text text-anchor="middle" x="46" y="-68.3" font-family="Helvetica,sans-Serif" font-size="14.00">rotate</text>
</g>
<!-- pressure -->
<g id="node3" class="node">
<title>pressure</title>
<path fill="white" stroke="black" d="M72.5,-144C72.5,-144 19.5,-144 19.5,-144 13.5,-144 7.5,-138 7.5,-132 7.5,-132 7.5,-120 7.5,-120 7.5,-114 13.5,-108 19.5,-108 19.5,-108 72.5,-108 72.5,-108 78.5,-108 84.5,-114 84.5,-120 84.5,-120 84.5,-132 84.5,-132 84.5,-138 78.5,-144 72.5,-144"/>
<text text-anchor="middle" x="46" y="-122.3" font-family="Helvetica,sans-Serif" font-size="14.00">pressure</text>
</g>
<!-- vibration -->
<g id="node4" class="node">
<title>vibration</title>
<path fill="white" stroke="black" d="M73,-198C73,-198 19,-198 19,-198 13,-198 7,-192 7,-186 7,-186 7,-174 7,-174 7,-168 13,-162 19,-162 19,-162 73,-162 73,-162 79,-162 85,-168 85,-174 85,-174 85,-186 85,-186 85,-192 79,-198 73,-198"/>
<text text-anchor="middle" x="46" y="-176.3" font-family="Helvetica,sans-Serif" font-size="14.00">vibration</text>
</g>
<!-- err_error1 -->
<g id="node5" class="node">
<title>err_error1</title>
<path fill="white" stroke="black" d="M207.5,-295C207.5,-295 146.5,-295 146.5,-295 140.5,-295 134.5,-289 134.5,-283 134.5,-283 134.5,-271 134.5,-271 134.5,-265 140.5,-259 146.5,-259 146.5,-259 207.5,-259 207.5,-259 213.5,-259 219.5,-265 219.5,-271 219.5,-271 219.5,-283 219.5,-283 219.5,-289 213.5,-295 207.5,-295"/>
<text text-anchor="middle" x="177" y="-273.3" font-family="Helvetica,sans-Serif" font-size="14.00">err_error1</text>
</g>
<!-- err_error2 -->
<g id="node6" class="node">
<title>err_error2</title>
<path fill="white" stroke="black" d="M341.5,-253C341.5,-253 280.5,-253 280.5,-253 274.5,-253 268.5,-247 268.5,-241 268.5,-241 268.5,-229 268.5,-229 268.5,-223 274.5,-217 280.5,-217 280.5,-217 341.5,-217 341.5,-217 347.5,-217 353.5,-223 353.5,-229 353.5,-229 353.5,-241 353.5,-241 353.5,-247 347.5,-253 341.5,-253"/>
<text text-anchor="middle" x="311" y="-231.3" font-family="Helvetica,sans-Serif" font-size="14.00">err_error2</text>
</g>
<!-- err_error1&#45;&gt;err_error2 -->
<g id="edge1" class="edge">
<title>err_error1&#45;&gt;err_error2</title>
<path fill="none" stroke="black" stroke-width="1.2" d="M219.77,-263.71C232.04,-259.8 245.62,-255.48 258.44,-251.41"/>
<polygon fill="black" stroke="black" stroke-width="1.2" points="259.58,-254.71 268.05,-248.35 257.46,-248.04 259.58,-254.71"/>
</g>
<!-- err_error3 -->
<g id="node7" class="node">
<title>err_error3</title>
<path fill="white" stroke="black" d="M76.5,-252C76.5,-252 15.5,-252 15.5,-252 9.5,-252 3.5,-246 3.5,-240 3.5,-240 3.5,-228 3.5,-228 3.5,-222 9.5,-216 15.5,-216 15.5,-216 76.5,-216 76.5,-216 82.5,-216 88.5,-222 88.5,-228 88.5,-228 88.5,-240 88.5,-240 88.5,-246 82.5,-252 76.5,-252"/>
<text text-anchor="middle" x="46" y="-230.3" font-family="Helvetica,sans-Serif" font-size="14.00">err_error3</text>
</g>
<!-- err_error3&#45;&gt;err_error1 -->
<g id="edge2" class="edge">
<title>err_error3&#45;&gt;err_error1</title>
<path fill="none" stroke="black" stroke-width="1.2" d="M88.53,-247.84C99.92,-251.64 112.41,-255.8 124.3,-259.77"/>
<polygon fill="black" stroke="black" stroke-width="1.2" points="123.52,-263.19 134.11,-263.04 125.73,-256.55 123.52,-263.19"/>
</g>
<!-- err_error3&#45;&gt;err_error2 -->
<g id="edge3" class="edge">
<title>err_error3&#45;&gt;err_error2</title>
<path fill="none" stroke="black" stroke-width="1.2" d="M88.67,-234.16C134.51,-234.33 208.25,-234.61 257.88,-234.8"/>
<polygon fill="black" stroke="black" stroke-width="1.2" points="258.07,-238.3 268.09,-234.84 258.1,-231.3 258.07,-238.3"/>
</g>
<!-- err_error4 -->
<g id="node8" class="node">
<title>err_error4</title>
<path fill="white" stroke="black" d="M76.5,-315C76.5,-315 15.5,-315 15.5,-315 9.5,-315 3.5,-309 3.5,-303 3.5,-303 3.5,-291 3.5,-291 3.5,-285 9.5,-279 15.5,-279 15.5,-279 76.5,-279 76.5,-279 82.5,-279 88.5,-285 88.5,-291 88.5,-291 88.5,-303 88.5,-303 88.5,-309 82.5,-315 76.5,-315"/>
<text text-anchor="middle" x="46" y="-293.3" font-family="Helvetica,sans-Serif" font-size="14.00">err_error4</text>
</g>
<!-- err_error5 -->
<g id="node9" class="node">
<title>err_error5</title>
<path fill="white" stroke="black" d="M76.5,-374C76.5,-374 15.5,-374 15.5,-374 9.5,-374 3.5,-368 3.5,-362 3.5,-362 3.5,-350 3.5,-350 3.5,-344 9.5,-338 15.5,-338 15.5,-338 76.5,-338 76.5,-338 82.5,-338 88.5,-344 88.5,-350 88.5,-350 88.5,-362 88.5,-362 88.5,-368 82.5,-374 76.5,-374"/>
<text text-anchor="middle" x="46" y="-352.3" font-family="Helvetica,sans-Serif" font-size="14.00">err_error5</text>
</g>
<!-- mnt_comp1 -->
<g id="node10" class="node">
<title>mnt_comp1</title>
<path fill="white" stroke="black" d="M214,-449C214,-449 140,-449 140,-449 134,-449 128,-443 128,-437 128,-437 128,-425 128,-425 128,-419 134,-413 140,-413 140,-413 214,-413 214,-413 220,-413 226,-419 226,-425 226,-425 226,-437 226,-437 226,-443 220,-449 214,-449"/>
<text text-anchor="middle" x="177" y="-427.3" font-family="Helvetica,sans-Serif" font-size="14.00">mnt_comp1</text>
</g>
<!-- mnt_comp3 -->
<g id="node12" class="node">
<title>mnt_comp3</title>
<path fill="white" stroke="black" d="M348,-487C348,-487 274,-487 274,-487 268,-487 262,-481 262,-475 262,-475 262,-463 262,-463 262,-457 268,-451 274,-451 274,-451 348,-451 348,-451 354,-451 360,-457 360,-463 360,-463 360,-475 360,-475 360,-481 354,-487 348,-487"/>
<text text-anchor="middle" x="311" y="-465.3" font-family="Helvetica,sans-Serif" font-size="14.00">mnt_comp3</text>
</g>
<!-- mnt_comp1&#45;&gt;mnt_comp3 -->
<g id="edge4" class="edge">
<title>mnt_comp1&#45;&gt;mnt_comp3</title>
<path fill="none" stroke="black" stroke-width="1.2" d="M226.03,-444.83C234.49,-447.26 243.38,-449.82 252.08,-452.33"/>
<polygon fill="black" stroke="black" stroke-width="1.2" points="251.21,-455.72 261.79,-455.12 253.14,-448.99 251.21,-455.72"/>
</g>
<!-- mnt_comp4 -->
<g id="node13" class="node">
<title>mnt_comp4</title>
<path fill="white" stroke="black" d="M482,-403C482,-403 408,-403 408,-403 402,-403 396,-397 396,-391 396,-391 396,-379 396,-379 396,-373 402,-367 408,-367 408,-367 482,-367 482,-367 488,-367 494,-373 494,-379 494,-379 494,-391 494,-391 494,-397 488,-403 482,-403"/>
<text text-anchor="middle" x="445" y="-381.3" font-family="Helvetica,sans-Serif" font-size="14.00">mnt_comp4</text>
</g>
<!-- mnt_comp1&#45;&gt;mnt_comp4 -->
<g id="edge5" class="edge">
<title>mnt_comp1&#45;&gt;mnt_comp4</title>
<path fill="none" stroke="black" stroke-width="1.2" d="M226.17,-422.67C271.04,-414.91 338.01,-403.33 385.84,-395.06"/>
<polygon fill="black" stroke="black" stroke-width="1.2" points="386.48,-398.5 395.74,-393.35 385.29,-391.6 386.48,-398.5"/>
</g>
<!-- mnt_comp2 -->
<g id="node11" class="node">
<title>mnt_comp2</title>
<path fill="white" stroke="black" d="M348,-357C348,-357 274,-357 274,-357 268,-357 262,-351 262,-345 262,-345 262,-333 262,-333 262,-327 268,-321 274,-321 274,-321 348,-321 348,-321 354,-321 360,-327 360,-333 360,-333 360,-345 360,-345 360,-351 354,-357 348,-357"/>
<text text-anchor="middle" x="311" y="-335.3" font-family="Helvetica,sans-Serif" font-size="14.00">mnt_comp2</text>
</g>
<!-- mnt_comp2&#45;&gt;mnt_comp4 -->
<g id="edge7" class="edge">
<title>mnt_comp2&#45;&gt;mnt_comp4</title>
<path fill="none" stroke="black" stroke-width="1.2" d="M360.03,-355.74C368.49,-358.69 377.38,-361.78 386.08,-364.82"/>
<polygon fill="black" stroke="black" stroke-width="1.2" points="385.19,-368.21 395.79,-368.2 387.49,-361.6 385.19,-368.21"/>
</g>
<!-- mnt_comp3&#45;&gt;mnt_comp4 -->
<g id="edge9" class="edge">
<title>mnt_comp3&#45;&gt;mnt_comp4</title>
<path fill="none" stroke="black" stroke-width="1.2" d="M340.32,-450.98C359.67,-438.66 385.53,-422.21 406.58,-408.81"/>
<polygon fill="black" stroke="black" stroke-width="1.2" points="408.72,-411.6 415.27,-403.28 404.96,-405.7 408.72,-411.6"/>
</g>
<!-- fail_comp1 -->
<g id="node14" class="node">
<title>fail_comp1</title>
<path fill="white" stroke="black" d="M80,-430C80,-430 12,-430 12,-430 6,-430 0,-424 0,-418 0,-418 0,-406 0,-406 0,-400 6,-394 12,-394 12,-394 80,-394 80,-394 86,-394 92,-400 92,-406 92,-406 92,-418 92,-418 92,-424 86,-430 80,-430"/>
<text text-anchor="middle" x="46" y="-408.3" font-family="Helvetica,sans-Serif" font-size="14.00">fail_comp1</text>
</g>
<!-- fail_comp1&#45;&gt;mnt_comp1 -->
<g id="edge6" class="edge">
<title>fail_comp1&#45;&gt;mnt_comp1</title>
<path fill="none" stroke="black" stroke-width="1.2" d="M92.12,-418.65C100.37,-419.86 109.09,-421.14 117.66,-422.41"/>
<polygon fill="black" stroke="black" stroke-width="1.2" points="117.21,-425.88 127.62,-423.87 118.23,-418.95 117.21,-425.88"/>
</g>
<!-- fail_comp1&#45;&gt;mnt_comp3 -->
<g id="edge10" class="edge">
<title>fail_comp1&#45;&gt;mnt_comp3</title>
<path fill="none" stroke="black" stroke-width="1.2" d="M71.9,-430.12C87.27,-440.25 107.84,-452.02 128,-458 168.05,-469.88 215.18,-472.44 251.44,-472.12"/>
<polygon fill="black" stroke="black" stroke-width="1.2" points="251.9,-475.62 261.84,-471.95 251.78,-468.62 251.9,-475.62"/>
</g>
<!-- fail_comp1&#45;&gt;mnt_comp4 -->
<g id="edge11" class="edge">
<title>fail_comp1&#45;&gt;mnt_comp4</title>
<path fill="none" stroke="black" stroke-width="1.2" d="M92.38,-407.21C103.99,-406.07 116.45,-404.92 128,-404 217.78,-396.87 322.11,-391.08 385.57,-387.84"/>
<polygon fill="black" stroke="black" stroke-width="1.2" points="385.97,-391.32 395.78,-387.32 385.61,-384.33 385.97,-391.32"/>
</g>
<!-- fail_comp2 -->
<g id="node15" class="node">
<title>fail_comp2</title>
<path fill="white" stroke="black" d="M211,-357C211,-357 143,-357 143,-357 137,-357 131,-351 131,-345 131,-345 131,-333 131,-333 131,-327 137,-321 143,-321 143,-321 211,-321 211,-321 217,-321 223,-327 223,-333 223,-333 223,-345 223,-345 223,-351 217,-357 211,-357"/>
<text text-anchor="middle" x="177" y="-335.3" font-family="Helvetica,sans-Serif" font-size="14.00">fail_comp2</text>
</g>
<!-- fail_comp1&#45;&gt;fail_comp2 -->
<g id="edge13" class="edge">
<title>fail_comp1&#45;&gt;fail_comp2</title>
<path fill="none" stroke="black" stroke-width="1.2" d="M78.89,-393.96C95.79,-384.39 116.74,-372.53 134.86,-362.28"/>
<polygon fill="black" stroke="black" stroke-width="1.2" points="137.05,-365.06 144.03,-357.09 133.61,-358.97 137.05,-365.06"/>
</g>
<!-- fail_comp2&#45;&gt;mnt_comp2 -->
<g id="edge8" class="edge">
<title>fail_comp2&#45;&gt;mnt_comp2</title>
<path fill="none" stroke="black" stroke-width="1.2" d="M223.06,-339C232.27,-339 242.09,-339 251.7,-339"/>
<polygon fill="black" stroke="black" stroke-width="1.2" points="251.99,-342.5 261.99,-339 251.99,-335.5 251.99,-342.5"/>
</g>
<!-- fail_comp2&#45;&gt;mnt_comp4 -->
<g id="edge12" class="edge">
<title>fail_comp2&#45;&gt;mnt_comp4</title>
<path fill="none" stroke="black" stroke-width="1.2" d="M220.82,-320.96C258.52,-307.79 314.37,-294.94 360,-312 385.04,-321.36 407.55,-341.93 422.95,-358.85"/>
<polygon fill="black" stroke="black" stroke-width="1.2" points="420.7,-361.59 429.92,-366.8 425.96,-356.98 420.7,-361.59"/>
</g>
</g>
</svg>
