<?xml version="1.0" encoding="UTF-8" standalone="no"?>
<!DOCTYPE svg PUBLIC "-//W3C//DTD SVG 1.1//EN"
 "http://www.w3.org/Graphics/SVG/1.1/DTD/svg11.dtd">
<!-- Generated by graphviz version 2.50.0 (0)
 -->
<!-- Title: G Pages: 1 -->
<svg width="758pt" height="583pt"
 viewBox="0.00 0.00 758.00 583.00" xmlns="http://www.w3.org/2000/svg" xmlns:xlink="http://www.w3.org/1999/xlink">
<g id="graph0" class="graph" transform="scale(1 1) rotate(0) translate(4 579)">
<title>G</title>
<polygon fill="white" stroke="transparent" points="-4,4 -4,-579 754,-579 754,4 -4,4"/>
<text text-anchor="middle" x="375" y="-558.2" font-family="Times,serif" font-size="16.00">model=model1/varlingam_mixed.json [machine 13]</text>
<!-- volt -->
<g id="node1" class="node">
<title>volt</title>
<path fill="white" stroke="black" d="M61,-334C61,-334 31,-334 31,-334 25,-334 19,-328 19,-322 19,-322 19,-310 19,-310 19,-304 25,-298 31,-298 31,-298 61,-298 61,-298 67,-298 73,-304 73,-310 73,-310 73,-322 73,-322 73,-328 67,-334 61,-334"/>
<text text-anchor="middle" x="46" y="-312.3" font-family="Helvetica,sans-Serif" font-size="14.00">volt</text>
</g>
<!-- rotate -->
<g id="node2" class="node">
<title>rotate</title>
<path fill="white" stroke="black" d="M452.5,-323C452.5,-323 419.5,-323 419.5,-323 413.5,-323 407.5,-317 407.5,-311 407.5,-311 407.5,-299 407.5,-299 407.5,-293 413.5,-287 419.5,-287 419.5,-287 452.5,-287 452.5,-287 458.5,-287 464.5,-293 464.5,-299 464.5,-299 464.5,-311 464.5,-311 464.5,-317 458.5,-323 452.5,-323"/>
<text text-anchor="middle" x="436" y="-301.3" font-family="Helvetica,sans-Serif" font-size="14.00">rotate</text>
</g>
<!-- mnt_comp2 -->
<g id="node11" class="node">
<title>mnt_comp2</title>
<path fill="white" stroke="black" d="M604,-331C604,-331 530,-331 530,-331 524,-331 518,-325 518,-319 518,-319 518,-307 518,-307 518,-301 524,-295 530,-295 530,-295 604,-295 604,-295 610,-295 616,-301 616,-307 616,-307 616,-319 616,-319 616,-325 610,-331 604,-331"/>
<text text-anchor="middle" x="567" y="-309.3" font-family="Helvetica,sans-Serif" font-size="14.00">mnt_comp2</text>
</g>
<!-- rotate&#45;&gt;mnt_comp2 -->
<g id="edge1" class="edge">
<title>rotate&#45;&gt;mnt_comp2</title>
<path fill="none" stroke="black" stroke-width="1.2" d="M464.67,-306.72C477.25,-307.5 492.62,-308.45 507.56,-309.38"/>
<polygon fill="black" stroke="black" stroke-width="1.2" points="507.6,-312.88 517.8,-310.01 508.03,-305.9 507.6,-312.88"/>
</g>
<!-- pressure -->
<g id="node3" class="node">
<title>pressure</title>
<path fill="white" stroke="black" d="M203.5,-155C203.5,-155 150.5,-155 150.5,-155 144.5,-155 138.5,-149 138.5,-143 138.5,-143 138.5,-131 138.5,-131 138.5,-125 144.5,-119 150.5,-119 150.5,-119 203.5,-119 203.5,-119 209.5,-119 215.5,-125 215.5,-131 215.5,-131 215.5,-143 215.5,-143 215.5,-149 209.5,-155 203.5,-155"/>
<text text-anchor="middle" x="177" y="-133.3" font-family="Helvetica,sans-Serif" font-size="14.00">pressure</text>
</g>
<!-- err_error4 -->
<g id="node8" class="node">
<title>err_error4</title>
<path fill="white" stroke="black" d="M338.5,-113C338.5,-113 277.5,-113 277.5,-113 271.5,-113 265.5,-107 265.5,-101 265.5,-101 265.5,-89 265.5,-89 265.5,-83 271.5,-77 277.5,-77 277.5,-77 338.5,-77 338.5,-77 344.5,-77 350.5,-83 350.5,-89 350.5,-89 350.5,-101 350.5,-101 350.5,-107 344.5,-113 338.5,-113"/>
<text text-anchor="middle" x="308" y="-91.3" font-family="Helvetica,sans-Serif" font-size="14.00">err_error4</text>
</g>
<!-- pressure&#45;&gt;err_error4 -->
<g id="edge3" class="edge">
<title>pressure&#45;&gt;err_error4</title>
<path fill="none" stroke="black" stroke-width="1.2" d="M215.66,-124.74C228.23,-120.65 242.45,-116.02 255.86,-111.65"/>
<polygon fill="black" stroke="black" stroke-width="1.2" points="257.03,-114.95 265.45,-108.53 254.86,-108.29 257.03,-114.95"/>
</g>
<!-- fail_comp3 -->
<g id="node16" class="node">
<title>fail_comp3</title>
<path fill="white" stroke="black" d="M342,-277C342,-277 274,-277 274,-277 268,-277 262,-271 262,-265 262,-265 262,-253 262,-253 262,-247 268,-241 274,-241 274,-241 342,-241 342,-241 348,-241 354,-247 354,-253 354,-253 354,-265 354,-265 354,-271 348,-277 342,-277"/>
<text text-anchor="middle" x="308" y="-255.3" font-family="Helvetica,sans-Serif" font-size="14.00">fail_comp3</text>
</g>
<!-- pressure&#45;&gt;fail_comp3 -->
<g id="edge4" class="edge">
<title>pressure&#45;&gt;fail_comp3</title>
<path fill="none" stroke="black" stroke-width="1.2" d="M197.03,-155C219.14,-175.91 255.73,-210.52 280.58,-234.02"/>
<polygon fill="black" stroke="black" stroke-width="1.2" points="278.22,-236.6 287.89,-240.92 283.03,-231.51 278.22,-236.6"/>
</g>
<!-- vibration -->
<g id="node4" class="node">
<title>vibration</title>
<path fill="white" stroke="black" d="M335,-407C335,-407 281,-407 281,-407 275,-407 269,-401 269,-395 269,-395 269,-383 269,-383 269,-377 275,-371 281,-371 281,-371 335,-371 335,-371 341,-371 347,-377 347,-383 347,-383 347,-395 347,-395 347,-401 341,-407 335,-407"/>
<text text-anchor="middle" x="308" y="-385.3" font-family="Helvetica,sans-Serif" font-size="14.00">vibration</text>
</g>
<!-- fail_comp4 -->
<g id="node17" class="node">
<title>fail_comp4</title>
<path fill="white" stroke="black" d="M470,-415C470,-415 402,-415 402,-415 396,-415 390,-409 390,-403 390,-403 390,-391 390,-391 390,-385 396,-379 402,-379 402,-379 470,-379 470,-379 476,-379 482,-385 482,-391 482,-391 482,-403 482,-403 482,-409 476,-415 470,-415"/>
<text text-anchor="middle" x="436" y="-393.3" font-family="Helvetica,sans-Serif" font-size="14.00">fail_comp4</text>
</g>
<!-- vibration&#45;&gt;fail_comp4 -->
<g id="edge5" class="edge">
<title>vibration&#45;&gt;fail_comp4</title>
<path fill="none" stroke="black" stroke-width="1.2" d="M347.15,-391.42C357.46,-392.08 368.83,-392.8 379.88,-393.5"/>
<polygon fill="black" stroke="black" stroke-width="1.2" points="379.69,-397 389.89,-394.14 380.13,-390.01 379.69,-397"/>
</g>
<!-- err_error1 -->
<g id="node5" class="node">
<title>err_error1</title>
<path fill="white" stroke="black" d="M466.5,-59C466.5,-59 405.5,-59 405.5,-59 399.5,-59 393.5,-53 393.5,-47 393.5,-47 393.5,-35 393.5,-35 393.5,-29 399.5,-23 405.5,-23 405.5,-23 466.5,-23 466.5,-23 472.5,-23 478.5,-29 478.5,-35 478.5,-35 478.5,-47 478.5,-47 478.5,-53 472.5,-59 466.5,-59"/>
<text text-anchor="middle" x="436" y="-37.3" font-family="Helvetica,sans-Serif" font-size="14.00">err_error1</text>
</g>
<!-- err_error2 -->
<g id="node6" class="node">
<title>err_error2</title>
<path fill="white" stroke="black" d="M207.5,-36C207.5,-36 146.5,-36 146.5,-36 140.5,-36 134.5,-30 134.5,-24 134.5,-24 134.5,-12 134.5,-12 134.5,-6 140.5,0 146.5,0 146.5,0 207.5,0 207.5,0 213.5,0 219.5,-6 219.5,-12 219.5,-12 219.5,-24 219.5,-24 219.5,-30 213.5,-36 207.5,-36"/>
<text text-anchor="middle" x="177" y="-14.3" font-family="Helvetica,sans-Serif" font-size="14.00">err_error2</text>
</g>
<!-- err_error2&#45;&gt;err_error1 -->
<g id="edge6" class="edge">
<title>err_error2&#45;&gt;err_error1</title>
<path fill="none" stroke="black" stroke-width="1.2" d="M219.55,-12.8C255.4,-9.33 308.45,-6.61 354,-14 363.77,-15.58 373.95,-18.18 383.66,-21.15"/>
<polygon fill="black" stroke="black" stroke-width="1.2" points="382.6,-24.48 393.19,-24.22 384.74,-17.82 382.6,-24.48"/>
</g>
<!-- err_error3 -->
<g id="node7" class="node">
<title>err_error3</title>
<path fill="white" stroke="black" d="M338.5,-59C338.5,-59 277.5,-59 277.5,-59 271.5,-59 265.5,-53 265.5,-47 265.5,-47 265.5,-35 265.5,-35 265.5,-29 271.5,-23 277.5,-23 277.5,-23 338.5,-23 338.5,-23 344.5,-23 350.5,-29 350.5,-35 350.5,-35 350.5,-47 350.5,-47 350.5,-53 344.5,-59 338.5,-59"/>
<text text-anchor="middle" x="308" y="-37.3" font-family="Helvetica,sans-Serif" font-size="14.00">err_error3</text>
</g>
<!-- err_error2&#45;&gt;err_error3 -->
<g id="edge9" class="edge">
<title>err_error2&#45;&gt;err_error3</title>
<path fill="none" stroke="black" stroke-width="1.2" d="M219.53,-25.4C230.81,-27.42 243.16,-29.62 254.95,-31.72"/>
<polygon fill="black" stroke="black" stroke-width="1.2" points="254.65,-35.22 265.11,-33.53 255.88,-28.33 254.65,-35.22"/>
</g>
<!-- err_error3&#45;&gt;err_error1 -->
<g id="edge7" class="edge">
<title>err_error3&#45;&gt;err_error1</title>
<path fill="none" stroke="black" stroke-width="1.2" d="M350.61,-41C361.04,-41 372.35,-41 383.21,-41"/>
<polygon fill="black" stroke="black" stroke-width="1.2" points="383.44,-44.5 393.44,-41 383.44,-37.5 383.44,-44.5"/>
</g>
<!-- err_error4&#45;&gt;err_error1 -->
<g id="edge8" class="edge">
<title>err_error4&#45;&gt;err_error1</title>
<path fill="none" stroke="black" stroke-width="1.2" d="M350.61,-77.17C361.36,-72.56 373.05,-67.55 384.22,-62.76"/>
<polygon fill="black" stroke="black" stroke-width="1.2" points="385.62,-65.97 393.44,-58.81 382.87,-59.53 385.62,-65.97"/>
</g>
<!-- err_error5 -->
<g id="node9" class="node">
<title>err_error5</title>
<path fill="white" stroke="black" d="M207.5,-101C207.5,-101 146.5,-101 146.5,-101 140.5,-101 134.5,-95 134.5,-89 134.5,-89 134.5,-77 134.5,-77 134.5,-71 140.5,-65 146.5,-65 146.5,-65 207.5,-65 207.5,-65 213.5,-65 219.5,-71 219.5,-77 219.5,-77 219.5,-89 219.5,-89 219.5,-95 213.5,-101 207.5,-101"/>
<text text-anchor="middle" x="177" y="-79.3" font-family="Helvetica,sans-Serif" font-size="14.00">err_error5</text>
</g>
<!-- err_error5&#45;&gt;err_error4 -->
<g id="edge10" class="edge">
<title>err_error5&#45;&gt;err_error4</title>
<path fill="none" stroke="black" stroke-width="1.2" d="M219.53,-86.86C230.81,-87.91 243.16,-89.06 254.95,-90.16"/>
<polygon fill="black" stroke="black" stroke-width="1.2" points="254.83,-93.66 265.11,-91.1 255.48,-86.69 254.83,-93.66"/>
</g>
<!-- mnt_comp1 -->
<g id="node10" class="node">
<title>mnt_comp1</title>
<path fill="white" stroke="black" d="M214,-415C214,-415 140,-415 140,-415 134,-415 128,-409 128,-403 128,-403 128,-391 128,-391 128,-385 134,-379 140,-379 140,-379 214,-379 214,-379 220,-379 226,-385 226,-391 226,-391 226,-403 226,-403 226,-409 220,-415 214,-415"/>
<text text-anchor="middle" x="177" y="-393.3" font-family="Helvetica,sans-Serif" font-size="14.00">mnt_comp1</text>
</g>
<!-- mnt_comp3 -->
<g id="node12" class="node">
<title>mnt_comp3</title>
<path fill="white" stroke="black" d="M738,-423C738,-423 664,-423 664,-423 658,-423 652,-417 652,-411 652,-411 652,-399 652,-399 652,-393 658,-387 664,-387 664,-387 738,-387 738,-387 744,-387 750,-393 750,-399 750,-399 750,-411 750,-411 750,-417 744,-423 738,-423"/>
<text text-anchor="middle" x="701" y="-401.3" font-family="Helvetica,sans-Serif" font-size="14.00">mnt_comp3</text>
</g>
<!-- mnt_comp2&#45;&gt;mnt_comp3 -->
<g id="edge12" class="edge">
<title>mnt_comp2&#45;&gt;mnt_comp3</title>
<path fill="none" stroke="black" stroke-width="1.2" d="M594.08,-331.18C614.6,-345.48 643.37,-365.53 665.74,-381.12"/>
<polygon fill="black" stroke="black" stroke-width="1.2" points="663.77,-384.01 673.98,-386.86 667.77,-378.27 663.77,-384.01"/>
</g>
<!-- mnt_comp4 -->
<g id="node13" class="node">
<title>mnt_comp4</title>
<path fill="white" stroke="black" d="M604,-400C604,-400 530,-400 530,-400 524,-400 518,-394 518,-388 518,-388 518,-376 518,-376 518,-370 524,-364 530,-364 530,-364 604,-364 604,-364 610,-364 616,-370 616,-376 616,-376 616,-388 616,-388 616,-394 610,-400 604,-400"/>
<text text-anchor="middle" x="567" y="-378.3" font-family="Helvetica,sans-Serif" font-size="14.00">mnt_comp4</text>
</g>
<!-- mnt_comp4&#45;&gt;mnt_comp3 -->
<g id="edge17" class="edge">
<title>mnt_comp4&#45;&gt;mnt_comp3</title>
<path fill="none" stroke="black" stroke-width="1.2" d="M616.03,-390.37C624.4,-391.83 633.19,-393.36 641.8,-394.86"/>
<polygon fill="black" stroke="black" stroke-width="1.2" points="641.33,-398.33 651.79,-396.6 642.54,-391.43 641.33,-398.33"/>
</g>
<!-- fail_comp1 -->
<g id="node14" class="node">
<title>fail_comp1</title>
<path fill="white" stroke="black" d="M80,-388C80,-388 12,-388 12,-388 6,-388 0,-382 0,-376 0,-376 0,-364 0,-364 0,-358 6,-352 12,-352 12,-352 80,-352 80,-352 86,-352 92,-358 92,-364 92,-364 92,-376 92,-376 92,-382 86,-388 80,-388"/>
<text text-anchor="middle" x="46" y="-366.3" font-family="Helvetica,sans-Serif" font-size="14.00">fail_comp1</text>
</g>
<!-- fail_comp1&#45;&gt;mnt_comp1 -->
<g id="edge11" class="edge">
<title>fail_comp1&#45;&gt;mnt_comp1</title>
<path fill="none" stroke="black" stroke-width="1.2" d="M92.12,-379.44C100.37,-381.17 109.09,-382.99 117.66,-384.79"/>
<polygon fill="black" stroke="black" stroke-width="1.2" points="117.11,-388.25 127.62,-386.87 118.54,-381.4 117.11,-388.25"/>
</g>
<!-- fail_comp1&#45;&gt;mnt_comp2 -->
<g id="edge13" class="edge">
<title>fail_comp1&#45;&gt;mnt_comp2</title>
<path fill="none" stroke="black" stroke-width="1.2" d="M81.89,-351.78C85.53,-349.11 88.99,-346.17 92,-343 115.52,-318.18 101.78,-296.96 128,-275 175.95,-234.84 200.21,-241.67 262,-232 359.33,-216.77 390.87,-221.58 482,-259 500.5,-266.6 519.38,-278.31 534.55,-288.89"/>
<polygon fill="black" stroke="black" stroke-width="1.2" points="532.85,-291.98 543.02,-294.95 536.92,-286.28 532.85,-291.98"/>
</g>
<!-- fail_comp1&#45;&gt;mnt_comp3 -->
<g id="edge18" class="edge">
<title>fail_comp1&#45;&gt;mnt_comp3</title>
<path fill="none" stroke="black" stroke-width="1.2" d="M60.21,-388.15C95.03,-433.66 194.38,-549 307,-549 307,-549 307,-549 437,-549 534.72,-549 630.55,-471.56 674.71,-430.26"/>
<polygon fill="black" stroke="black" stroke-width="1.2" points="677.26,-432.67 682.1,-423.24 672.44,-427.59 677.26,-432.67"/>
</g>
<!-- fail_comp2 -->
<g id="node15" class="node">
<title>fail_comp2</title>
<path fill="white" stroke="black" d="M211,-361C211,-361 143,-361 143,-361 137,-361 131,-355 131,-349 131,-349 131,-337 131,-337 131,-331 137,-325 143,-325 143,-325 211,-325 211,-325 217,-325 223,-331 223,-337 223,-337 223,-349 223,-349 223,-355 217,-361 211,-361"/>
<text text-anchor="middle" x="177" y="-339.3" font-family="Helvetica,sans-Serif" font-size="14.00">fail_comp2</text>
</g>
<!-- fail_comp1&#45;&gt;fail_comp2 -->
<g id="edge23" class="edge">
<title>fail_comp1&#45;&gt;fail_comp2</title>
<path fill="none" stroke="black" stroke-width="1.2" d="M92.12,-360.56C101.39,-358.62 111.26,-356.55 120.84,-354.54"/>
<polygon fill="black" stroke="black" stroke-width="1.2" points="121.62,-357.96 130.69,-352.48 120.18,-351.11 121.62,-357.96"/>
</g>
<!-- fail_comp1&#45;&gt;fail_comp3 -->
<g id="edge24" class="edge">
<title>fail_comp1&#45;&gt;fail_comp3</title>
<path fill="none" stroke="black" stroke-width="1.2" d="M78.25,-351.82C82.91,-348.95 87.61,-345.95 92,-343 108.6,-331.84 110.22,-325.16 128,-316 167.48,-295.65 215.62,-280.82 252.03,-271.4"/>
<polygon fill="black" stroke="black" stroke-width="1.2" points="253.13,-274.73 261.97,-268.88 251.41,-267.94 253.13,-274.73"/>
</g>
<!-- fail_comp1&#45;&gt;fail_comp4 -->
<g id="edge25" class="edge">
<title>fail_comp1&#45;&gt;fail_comp4</title>
<path fill="none" stroke="black" stroke-width="1.2" d="M67.73,-388.16C83.21,-400.58 105.49,-416.17 128,-424 222.97,-457.06 255.85,-456.88 354,-435 368.15,-431.85 382.75,-425.94 395.59,-419.71"/>
<polygon fill="black" stroke="black" stroke-width="1.2" points="397.26,-422.79 404.6,-415.15 394.1,-416.54 397.26,-422.79"/>
</g>
<!-- fail_comp2&#45;&gt;rotate -->
<g id="edge2" class="edge">
<title>fail_comp2&#45;&gt;rotate</title>
<path fill="none" stroke="black" stroke-width="1.2" d="M223.3,-335.22C235.83,-333.13 249.43,-330.92 262,-329 308.45,-321.91 362.06,-314.61 397.14,-309.95"/>
<polygon fill="black" stroke="black" stroke-width="1.2" points="397.95,-313.37 407.4,-308.59 397.03,-306.43 397.95,-313.37"/>
</g>
<!-- fail_comp2&#45;&gt;mnt_comp2 -->
<g id="edge14" class="edge">
<title>fail_comp2&#45;&gt;mnt_comp2</title>
<path fill="none" stroke="black" stroke-width="1.2" d="M223.03,-343.98C282.56,-344.68 390.61,-343.88 482,-332 490.42,-330.91 499.24,-329.36 507.86,-327.62"/>
<polygon fill="black" stroke="black" stroke-width="1.2" points="508.8,-331 517.86,-325.5 507.35,-324.15 508.8,-331"/>
</g>
<!-- fail_comp2&#45;&gt;mnt_comp3 -->
<g id="edge19" class="edge">
<title>fail_comp2&#45;&gt;mnt_comp3</title>
<path fill="none" stroke="black" stroke-width="1.2" d="M215.16,-361.06C219.06,-363.76 222.77,-366.74 226,-370 249.27,-393.43 233.55,-418.23 262,-435 384.32,-507.08 560.52,-458.38 647.44,-426.51"/>
<polygon fill="black" stroke="black" stroke-width="1.2" points="648.68,-429.78 656.83,-423 646.23,-423.22 648.68,-429.78"/>
</g>
<!-- fail_comp2&#45;&gt;fail_comp3 -->
<g id="edge26" class="edge">
<title>fail_comp2&#45;&gt;fail_comp3</title>
<path fill="none" stroke="black" stroke-width="1.2" d="M205.67,-324.98C224.59,-312.66 249.86,-296.21 270.43,-282.81"/>
<polygon fill="black" stroke="black" stroke-width="1.2" points="272.46,-285.67 278.93,-277.28 268.64,-279.8 272.46,-285.67"/>
</g>
<!-- fail_comp2&#45;&gt;fail_comp4 -->
<g id="edge27" class="edge">
<title>fail_comp2&#45;&gt;fail_comp4</title>
<path fill="none" stroke="black" stroke-width="1.2" d="M214.18,-361.26C218.33,-363.96 222.37,-366.89 226,-370 245.7,-386.91 238.66,-404.63 262,-416 298.62,-433.84 344.65,-427.62 380.03,-417.73"/>
<polygon fill="black" stroke="black" stroke-width="1.2" points="381.11,-421.06 389.7,-414.87 379.12,-414.35 381.11,-421.06"/>
</g>
<!-- fail_comp3&#45;&gt;mnt_comp2 -->
<g id="edge15" class="edge">
<title>fail_comp3&#45;&gt;mnt_comp2</title>
<path fill="none" stroke="black" stroke-width="1.2" d="M354.08,-260.43C389.36,-262.4 439.43,-267.03 482,-278 494.55,-281.23 507.69,-285.99 519.75,-290.96"/>
<polygon fill="black" stroke="black" stroke-width="1.2" points="518.58,-294.27 529.15,-294.97 521.33,-287.83 518.58,-294.27"/>
</g>
<!-- fail_comp3&#45;&gt;mnt_comp3 -->
<g id="edge20" class="edge">
<title>fail_comp3&#45;&gt;mnt_comp3</title>
<path fill="none" stroke="black" stroke-width="1.2" d="M354.1,-250.63C417.96,-241.33 535.87,-233.79 616,-286 650.3,-308.35 674.82,-350.03 688.2,-377.65"/>
<polygon fill="black" stroke="black" stroke-width="1.2" points="685.06,-379.2 692.47,-386.78 691.4,-376.24 685.06,-379.2"/>
</g>
<!-- fail_comp3&#45;&gt;fail_comp4 -->
<g id="edge28" class="edge">
<title>fail_comp3&#45;&gt;fail_comp4</title>
<path fill="none" stroke="black" stroke-width="1.2" d="M325.47,-277.04C347.45,-301.11 386.5,-343.88 411.55,-371.31"/>
<polygon fill="black" stroke="black" stroke-width="1.2" points="409.2,-373.93 418.52,-378.95 414.37,-369.21 409.2,-373.93"/>
</g>
<!-- fail_comp4&#45;&gt;mnt_comp2 -->
<g id="edge16" class="edge">
<title>fail_comp4&#45;&gt;mnt_comp2</title>
<path fill="none" stroke="black" stroke-width="1.2" d="M464.67,-378.98C483.59,-366.66 508.86,-350.21 529.43,-336.81"/>
<polygon fill="black" stroke="black" stroke-width="1.2" points="531.46,-339.67 537.93,-331.28 527.64,-333.8 531.46,-339.67"/>
</g>
<!-- fail_comp4&#45;&gt;mnt_comp3 -->
<g id="edge21" class="edge">
<title>fail_comp4&#45;&gt;mnt_comp3</title>
<path fill="none" stroke="black" stroke-width="1.2" d="M482.28,-404.91C493.89,-406.6 506.37,-408.14 518,-409 559.17,-412.03 605.7,-410.93 641.41,-409.12"/>
<polygon fill="black" stroke="black" stroke-width="1.2" points="641.86,-412.6 651.65,-408.57 641.48,-405.61 641.86,-412.6"/>
</g>
<!-- fail_comp4&#45;&gt;mnt_comp4 -->
<g id="edge22" class="edge">
<title>fail_comp4&#45;&gt;mnt_comp4</title>
<path fill="none" stroke="black" stroke-width="1.2" d="M482.12,-391.75C490.37,-390.79 499.09,-389.78 507.66,-388.78"/>
<polygon fill="black" stroke="black" stroke-width="1.2" points="508.09,-392.26 517.62,-387.63 507.28,-385.3 508.09,-392.26"/>
</g>
</g>
</svg>
