<?xml version="1.0" encoding="UTF-8" standalone="no"?>
<!DOCTYPE svg PUBLIC "-//W3C//DTD SVG 1.1//EN"
 "http://www.w3.org/Graphics/SVG/1.1/DTD/svg11.dtd">
<!-- Generated by graphviz version 2.50.0 (0)
 -->
<!-- Title: G Pages: 1 -->
<svg width="630pt" height="530pt"
 viewBox="0.00 0.00 630.00 530.00" xmlns="http://www.w3.org/2000/svg" xmlns:xlink="http://www.w3.org/1999/xlink">
<g id="graph0" class="graph" transform="scale(1 1) rotate(0) translate(4 526)">
<title>G</title>
<polygon fill="white" stroke="transparent" points="-4,4 -4,-526 626,-526 626,4 -4,4"/>
<text text-anchor="middle" x="311" y="-505.2" font-family="Times,serif" font-size="16.00">model=model3/varlingam_mixed.json [machine 52]</text>
<!-- volt -->
<g id="node1" class="node">
<title>volt</title>
<path fill="white" stroke="black" d="M61,-36C61,-36 31,-36 31,-36 25,-36 19,-30 19,-24 19,-24 19,-12 19,-12 19,-6 25,0 31,0 31,0 61,0 61,0 67,0 73,-6 73,-12 73,-12 73,-24 73,-24 73,-30 67,-36 61,-36"/>
<text text-anchor="middle" x="46" y="-14.3" font-family="Helvetica,sans-Serif" font-size="14.00">volt</text>
</g>
<!-- rotate -->
<g id="node2" class="node">
<title>rotate</title>
<path fill="white" stroke="black" d="M62.5,-90C62.5,-90 29.5,-90 29.5,-90 23.5,-90 17.5,-84 17.5,-78 17.5,-78 17.5,-66 17.5,-66 17.5,-60 23.5,-54 29.5,-54 29.5,-54 62.5,-54 62.5,-54 68.5,-54 74.5,-60 74.5,-66 74.5,-66 74.5,-78 74.5,-78 74.5,-84 68.5,-90 62.5,-90"/>
<text text-anchor="middle" x="46" y="-68.3" font-family="Helvetica,sans-Serif" font-size="14.00">rotate</text>
</g>
<!-- pressure -->
<g id="node3" class="node">
<title>pressure</title>
<path fill="white" stroke="black" d="M72.5,-144C72.5,-144 19.5,-144 19.5,-144 13.5,-144 7.5,-138 7.5,-132 7.5,-132 7.5,-120 7.5,-120 7.5,-114 13.5,-108 19.5,-108 19.5,-108 72.5,-108 72.5,-108 78.5,-108 84.5,-114 84.5,-120 84.5,-120 84.5,-132 84.5,-132 84.5,-138 78.5,-144 72.5,-144"/>
<text text-anchor="middle" x="46" y="-122.3" font-family="Helvetica,sans-Serif" font-size="14.00">pressure</text>
</g>
<!-- vibration -->
<g id="node4" class="node">
<title>vibration</title>
<path fill="white" stroke="black" d="M466,-129C466,-129 412,-129 412,-129 406,-129 400,-123 400,-117 400,-117 400,-105 400,-105 400,-99 406,-93 412,-93 412,-93 466,-93 466,-93 472,-93 478,-99 478,-105 478,-105 478,-117 478,-117 478,-123 472,-129 466,-129"/>
<text text-anchor="middle" x="439" y="-107.3" font-family="Helvetica,sans-Serif" font-size="14.00">vibration</text>
</g>
<!-- err_error1 -->
<g id="node5" class="node">
<title>err_error1</title>
<path fill="white" stroke="black" d="M204.5,-488C204.5,-488 143.5,-488 143.5,-488 137.5,-488 131.5,-482 131.5,-476 131.5,-476 131.5,-464 131.5,-464 131.5,-458 137.5,-452 143.5,-452 143.5,-452 204.5,-452 204.5,-452 210.5,-452 216.5,-458 216.5,-464 216.5,-464 216.5,-476 216.5,-476 216.5,-482 210.5,-488 204.5,-488"/>
<text text-anchor="middle" x="174" y="-466.3" font-family="Helvetica,sans-Serif" font-size="14.00">err_error1</text>
</g>
<!-- err_error2 -->
<g id="node6" class="node">
<title>err_error2</title>
<path fill="white" stroke="black" d="M335.5,-419C335.5,-419 274.5,-419 274.5,-419 268.5,-419 262.5,-413 262.5,-407 262.5,-407 262.5,-395 262.5,-395 262.5,-389 268.5,-383 274.5,-383 274.5,-383 335.5,-383 335.5,-383 341.5,-383 347.5,-389 347.5,-395 347.5,-395 347.5,-407 347.5,-407 347.5,-413 341.5,-419 335.5,-419"/>
<text text-anchor="middle" x="305" y="-397.3" font-family="Helvetica,sans-Serif" font-size="14.00">err_error2</text>
</g>
<!-- err_error3 -->
<g id="node7" class="node">
<title>err_error3</title>
<path fill="white" stroke="black" d="M204.5,-396C204.5,-396 143.5,-396 143.5,-396 137.5,-396 131.5,-390 131.5,-384 131.5,-384 131.5,-372 131.5,-372 131.5,-366 137.5,-360 143.5,-360 143.5,-360 204.5,-360 204.5,-360 210.5,-360 216.5,-366 216.5,-372 216.5,-372 216.5,-384 216.5,-384 216.5,-390 210.5,-396 204.5,-396"/>
<text text-anchor="middle" x="174" y="-374.3" font-family="Helvetica,sans-Serif" font-size="14.00">err_error3</text>
</g>
<!-- err_error3&#45;&gt;err_error2 -->
<g id="edge3" class="edge">
<title>err_error3&#45;&gt;err_error2</title>
<path fill="none" stroke="black" stroke-width="1.2" d="M216.53,-385.4C227.81,-387.42 240.16,-389.62 251.95,-391.72"/>
<polygon fill="black" stroke="black" stroke-width="1.2" points="251.65,-395.22 262.11,-393.53 252.88,-388.33 251.65,-395.22"/>
</g>
<!-- err_error4 -->
<g id="node8" class="node">
<title>err_error4</title>
<path fill="white" stroke="black" d="M76.5,-496C76.5,-496 15.5,-496 15.5,-496 9.5,-496 3.5,-490 3.5,-484 3.5,-484 3.5,-472 3.5,-472 3.5,-466 9.5,-460 15.5,-460 15.5,-460 76.5,-460 76.5,-460 82.5,-460 88.5,-466 88.5,-472 88.5,-472 88.5,-484 88.5,-484 88.5,-490 82.5,-496 76.5,-496"/>
<text text-anchor="middle" x="46" y="-474.3" font-family="Helvetica,sans-Serif" font-size="14.00">err_error4</text>
</g>
<!-- err_error5 -->
<g id="node9" class="node">
<title>err_error5</title>
<path fill="white" stroke="black" d="M76.5,-442C76.5,-442 15.5,-442 15.5,-442 9.5,-442 3.5,-436 3.5,-430 3.5,-430 3.5,-418 3.5,-418 3.5,-412 9.5,-406 15.5,-406 15.5,-406 76.5,-406 76.5,-406 82.5,-406 88.5,-412 88.5,-418 88.5,-418 88.5,-430 88.5,-430 88.5,-436 82.5,-442 76.5,-442"/>
<text text-anchor="middle" x="46" y="-420.3" font-family="Helvetica,sans-Serif" font-size="14.00">err_error5</text>
</g>
<!-- err_error5&#45;&gt;err_error1 -->
<g id="edge2" class="edge">
<title>err_error5&#45;&gt;err_error1</title>
<path fill="none" stroke="black" stroke-width="1.2" d="M88.61,-439.19C99.25,-443.08 110.82,-447.3 121.88,-451.34"/>
<polygon fill="black" stroke="black" stroke-width="1.2" points="120.84,-454.68 131.44,-454.83 123.24,-448.11 120.84,-454.68"/>
</g>
<!-- err_error5&#45;&gt;err_error2 -->
<g id="edge4" class="edge">
<title>err_error5&#45;&gt;err_error2</title>
<path fill="none" stroke="black" stroke-width="1.2" d="M88.58,-420.28C133.18,-416.29 204.09,-409.94 252.26,-405.63"/>
<polygon fill="black" stroke="black" stroke-width="1.2" points="252.83,-409.09 262.48,-404.72 252.21,-402.12 252.83,-409.09"/>
</g>
<!-- err_error5&#45;&gt;err_error3 -->
<g id="edge5" class="edge">
<title>err_error5&#45;&gt;err_error3</title>
<path fill="none" stroke="black" stroke-width="1.2" d="M88.61,-408.81C99.25,-404.92 110.82,-400.7 121.88,-396.66"/>
<polygon fill="black" stroke="black" stroke-width="1.2" points="123.24,-399.89 131.44,-393.17 120.84,-393.32 123.24,-399.89"/>
</g>
<!-- mnt_comp1 -->
<g id="node10" class="node">
<title>mnt_comp1</title>
<path fill="white" stroke="black" d="M342,-198C342,-198 268,-198 268,-198 262,-198 256,-192 256,-186 256,-186 256,-174 256,-174 256,-168 262,-162 268,-162 268,-162 342,-162 342,-162 348,-162 354,-168 354,-174 354,-174 354,-186 354,-186 354,-192 348,-198 342,-198"/>
<text text-anchor="middle" x="305" y="-176.3" font-family="Helvetica,sans-Serif" font-size="14.00">mnt_comp1</text>
</g>
<!-- mnt_comp2 -->
<g id="node11" class="node">
<title>mnt_comp2</title>
<path fill="white" stroke="black" d="M476,-259C476,-259 402,-259 402,-259 396,-259 390,-253 390,-247 390,-247 390,-235 390,-235 390,-229 396,-223 402,-223 402,-223 476,-223 476,-223 482,-223 488,-229 488,-235 488,-235 488,-247 488,-247 488,-253 482,-259 476,-259"/>
<text text-anchor="middle" x="439" y="-237.3" font-family="Helvetica,sans-Serif" font-size="14.00">mnt_comp2</text>
</g>
<!-- mnt_comp1&#45;&gt;mnt_comp2 -->
<g id="edge6" class="edge">
<title>mnt_comp1&#45;&gt;mnt_comp2</title>
<path fill="none" stroke="black" stroke-width="1.2" d="M345.25,-198.14C359.09,-204.53 374.82,-211.8 389.34,-218.51"/>
<polygon fill="black" stroke="black" stroke-width="1.2" points="388.13,-221.81 398.68,-222.83 391.07,-215.46 388.13,-221.81"/>
</g>
<!-- mnt_comp3 -->
<g id="node12" class="node">
<title>mnt_comp3</title>
<path fill="white" stroke="black" d="M610,-213C610,-213 536,-213 536,-213 530,-213 524,-207 524,-201 524,-201 524,-189 524,-189 524,-183 530,-177 536,-177 536,-177 610,-177 610,-177 616,-177 622,-183 622,-189 622,-189 622,-201 622,-201 622,-207 616,-213 610,-213"/>
<text text-anchor="middle" x="573" y="-191.3" font-family="Helvetica,sans-Serif" font-size="14.00">mnt_comp3</text>
</g>
<!-- mnt_comp1&#45;&gt;mnt_comp3 -->
<g id="edge7" class="edge">
<title>mnt_comp1&#45;&gt;mnt_comp3</title>
<path fill="none" stroke="black" stroke-width="1.2" d="M354.17,-182.72C398.94,-185.24 465.73,-189.01 513.54,-191.7"/>
<polygon fill="black" stroke="black" stroke-width="1.2" points="513.56,-195.21 523.74,-192.28 513.95,-188.22 513.56,-195.21"/>
</g>
<!-- mnt_comp2&#45;&gt;mnt_comp3 -->
<g id="edge11" class="edge">
<title>mnt_comp2&#45;&gt;mnt_comp3</title>
<path fill="none" stroke="black" stroke-width="1.2" d="M488.03,-224.26C496.49,-221.31 505.38,-218.22 514.08,-215.18"/>
<polygon fill="black" stroke="black" stroke-width="1.2" points="515.49,-218.4 523.79,-211.8 513.19,-211.79 515.49,-218.4"/>
</g>
<!-- mnt_comp4 -->
<g id="node13" class="node">
<title>mnt_comp4</title>
<path fill="white" stroke="black" d="M342,-144C342,-144 268,-144 268,-144 262,-144 256,-138 256,-132 256,-132 256,-120 256,-120 256,-114 262,-108 268,-108 268,-108 342,-108 342,-108 348,-108 354,-114 354,-120 354,-120 354,-132 354,-132 354,-138 348,-144 342,-144"/>
<text text-anchor="middle" x="305" y="-122.3" font-family="Helvetica,sans-Serif" font-size="14.00">mnt_comp4</text>
</g>
<!-- mnt_comp4&#45;&gt;vibration -->
<g id="edge1" class="edge">
<title>mnt_comp4&#45;&gt;vibration</title>
<path fill="none" stroke="black" stroke-width="1.2" d="M354.03,-120.54C365.66,-119.22 378.1,-117.81 389.74,-116.48"/>
<polygon fill="black" stroke="black" stroke-width="1.2" points="390.18,-119.96 399.72,-115.35 389.39,-113 390.18,-119.96"/>
</g>
<!-- mnt_comp4&#45;&gt;mnt_comp3 -->
<g id="edge14" class="edge">
<title>mnt_comp4&#45;&gt;mnt_comp3</title>
<path fill="none" stroke="black" stroke-width="1.2" d="M354.17,-138.5C399.04,-150.13 466.01,-167.51 513.84,-179.91"/>
<polygon fill="black" stroke="black" stroke-width="1.2" points="513.18,-183.36 523.74,-182.48 514.94,-176.58 513.18,-183.36"/>
</g>
<!-- fail_comp1 -->
<g id="node14" class="node">
<title>fail_comp1</title>
<path fill="white" stroke="black" d="M80,-198C80,-198 12,-198 12,-198 6,-198 0,-192 0,-186 0,-186 0,-174 0,-174 0,-168 6,-162 12,-162 12,-162 80,-162 80,-162 86,-162 92,-168 92,-174 92,-174 92,-186 92,-186 92,-192 86,-198 80,-198"/>
<text text-anchor="middle" x="46" y="-176.3" font-family="Helvetica,sans-Serif" font-size="14.00">fail_comp1</text>
</g>
<!-- fail_comp1&#45;&gt;mnt_comp1 -->
<g id="edge8" class="edge">
<title>fail_comp1&#45;&gt;mnt_comp1</title>
<path fill="none" stroke="black" stroke-width="1.2" d="M92.06,-180C134.75,-180 199.1,-180 245.69,-180"/>
<polygon fill="black" stroke="black" stroke-width="1.2" points="245.93,-183.5 255.93,-180 245.93,-176.5 245.93,-183.5"/>
</g>
<!-- fail_comp1&#45;&gt;mnt_comp2 -->
<g id="edge12" class="edge">
<title>fail_comp1&#45;&gt;mnt_comp2</title>
<path fill="none" stroke="black" stroke-width="1.2" d="M92.38,-188.01C103.99,-190.02 116.45,-192.13 128,-194 215.67,-208.22 317.52,-223.41 379.86,-232.55"/>
<polygon fill="black" stroke="black" stroke-width="1.2" points="379.49,-236.03 389.89,-234.02 380.5,-229.11 379.49,-236.03"/>
</g>
<!-- fail_comp4 -->
<g id="node16" class="node">
<title>fail_comp4</title>
<path fill="white" stroke="black" d="M208,-152C208,-152 140,-152 140,-152 134,-152 128,-146 128,-140 128,-140 128,-128 128,-128 128,-122 134,-116 140,-116 140,-116 208,-116 208,-116 214,-116 220,-122 220,-128 220,-128 220,-140 220,-140 220,-146 214,-152 208,-152"/>
<text text-anchor="middle" x="174" y="-130.3" font-family="Helvetica,sans-Serif" font-size="14.00">fail_comp4</text>
</g>
<!-- fail_comp1&#45;&gt;fail_comp4 -->
<g id="edge18" class="edge">
<title>fail_comp1&#45;&gt;fail_comp4</title>
<path fill="none" stroke="black" stroke-width="1.2" d="M92.13,-163.52C100.55,-160.45 109.42,-157.21 118.09,-154.04"/>
<polygon fill="black" stroke="black" stroke-width="1.2" points="119.57,-157.23 127.76,-150.52 117.16,-150.66 119.57,-157.23"/>
</g>
<!-- fail_comp2 -->
<g id="node15" class="node">
<title>fail_comp2</title>
<path fill="white" stroke="black" d="M80,-293C80,-293 12,-293 12,-293 6,-293 0,-287 0,-281 0,-281 0,-269 0,-269 0,-263 6,-257 12,-257 12,-257 80,-257 80,-257 86,-257 92,-263 92,-269 92,-269 92,-281 92,-281 92,-287 86,-293 80,-293"/>
<text text-anchor="middle" x="46" y="-271.3" font-family="Helvetica,sans-Serif" font-size="14.00">fail_comp2</text>
</g>
<!-- fail_comp2&#45;&gt;mnt_comp1 -->
<g id="edge9" class="edge">
<title>fail_comp2&#45;&gt;mnt_comp1</title>
<path fill="none" stroke="black" stroke-width="1.2" d="M92.06,-258.34C134.93,-242.5 199.64,-218.58 246.27,-201.34"/>
<polygon fill="black" stroke="black" stroke-width="1.2" points="247.77,-204.52 255.93,-197.77 245.34,-197.95 247.77,-204.52"/>
</g>
<!-- fail_comp2&#45;&gt;mnt_comp2 -->
<g id="edge13" class="edge">
<title>fail_comp2&#45;&gt;mnt_comp2</title>
<path fill="none" stroke="black" stroke-width="1.2" d="M92.23,-271.07C163.32,-264.89 301.15,-252.9 379.62,-246.08"/>
<polygon fill="black" stroke="black" stroke-width="1.2" points="380.16,-249.54 389.82,-245.19 379.55,-242.57 380.16,-249.54"/>
</g>
<!-- fail_comp2&#45;&gt;mnt_comp3 -->
<g id="edge15" class="edge">
<title>fail_comp2&#45;&gt;mnt_comp3</title>
<path fill="none" stroke="black" stroke-width="1.2" d="M92.17,-284.34C174.33,-299.18 352.24,-321.36 488,-268 512.72,-258.28 535.12,-237.94 550.56,-221.2"/>
<polygon fill="black" stroke="black" stroke-width="1.2" points="553.53,-223.13 557.56,-213.33 548.3,-218.47 553.53,-223.13"/>
</g>
<!-- fail_comp2&#45;&gt;fail_comp4 -->
<g id="edge19" class="edge">
<title>fail_comp2&#45;&gt;fail_comp4</title>
<path fill="none" stroke="black" stroke-width="1.2" d="M63.21,-256.86C85.33,-232.11 125.06,-187.64 150.18,-159.54"/>
<polygon fill="black" stroke="black" stroke-width="1.2" points="152.79,-161.86 156.85,-152.07 147.57,-157.2 152.79,-161.86"/>
</g>
<!-- fail_comp4&#45;&gt;mnt_comp1 -->
<g id="edge10" class="edge">
<title>fail_comp4&#45;&gt;mnt_comp1</title>
<path fill="none" stroke="black" stroke-width="1.2" d="M220.12,-150.09C228.46,-153.06 237.28,-156.21 245.94,-159.3"/>
<polygon fill="black" stroke="black" stroke-width="1.2" points="245.02,-162.68 255.62,-162.75 247.37,-156.09 245.02,-162.68"/>
</g>
<!-- fail_comp4&#45;&gt;mnt_comp3 -->
<g id="edge16" class="edge">
<title>fail_comp4&#45;&gt;mnt_comp3</title>
<path fill="none" stroke="black" stroke-width="1.2" d="M209.44,-115.77C269.32,-86.75 395.12,-37.81 488,-84 522.69,-101.25 546.87,-140.43 560.11,-167.3"/>
<polygon fill="black" stroke="black" stroke-width="1.2" points="557.05,-169.03 564.48,-176.58 563.38,-166.04 557.05,-169.03"/>
</g>
<!-- fail_comp4&#45;&gt;mnt_comp4 -->
<g id="edge17" class="edge">
<title>fail_comp4&#45;&gt;mnt_comp4</title>
<path fill="none" stroke="black" stroke-width="1.2" d="M220.12,-131.2C228.28,-130.7 236.9,-130.16 245.38,-129.64"/>
<polygon fill="black" stroke="black" stroke-width="1.2" points="245.85,-133.11 255.62,-129 245.42,-126.13 245.85,-133.11"/>
</g>
</g>
</svg>
