<?xml version="1.0" encoding="UTF-8" standalone="no"?>
<!DOCTYPE svg PUBLIC "-//W3C//DTD SVG 1.1//EN"
 "http://www.w3.org/Graphics/SVG/1.1/DTD/svg11.dtd">
<!-- Generated by graphviz version 2.50.0 (0)
 -->
<!-- Title: G Pages: 1 -->
<svg width="757pt" height="505pt"
 viewBox="0.00 0.00 757.00 505.00" xmlns="http://www.w3.org/2000/svg" xmlns:xlink="http://www.w3.org/1999/xlink">
<g id="graph0" class="graph" transform="scale(1 1) rotate(0) translate(4 501)">
<title>G</title>
<polygon fill="white" stroke="transparent" points="-4,4 -4,-501 753,-501 753,4 -4,4"/>
<text text-anchor="middle" x="374.5" y="-480.2" font-family="Times,serif" font-size="16.00">model=model3/varlingam_mixed.json [machine 26]</text>
<!-- volt -->
<g id="node1" class="node">
<title>volt</title>
<path fill="white" stroke="black" d="M57.5,-147C57.5,-147 27.5,-147 27.5,-147 21.5,-147 15.5,-141 15.5,-135 15.5,-135 15.5,-123 15.5,-123 15.5,-117 21.5,-111 27.5,-111 27.5,-111 57.5,-111 57.5,-111 63.5,-111 69.5,-117 69.5,-123 69.5,-123 69.5,-135 69.5,-135 69.5,-141 63.5,-147 57.5,-147"/>
<text text-anchor="middle" x="42.5" y="-125.3" font-family="Helvetica,sans-Serif" font-size="14.00">volt</text>
</g>
<!-- fail_comp1 -->
<g id="node14" class="node">
<title>fail_comp1</title>
<path fill="white" stroke="black" d="M201,-147C201,-147 133,-147 133,-147 127,-147 121,-141 121,-135 121,-135 121,-123 121,-123 121,-117 127,-111 133,-111 133,-111 201,-111 201,-111 207,-111 213,-117 213,-123 213,-123 213,-135 213,-135 213,-141 207,-147 201,-147"/>
<text text-anchor="middle" x="167" y="-125.3" font-family="Helvetica,sans-Serif" font-size="14.00">fail_comp1</text>
</g>
<!-- volt&#45;&gt;fail_comp1 -->
<g id="edge1" class="edge">
<title>volt&#45;&gt;fail_comp1</title>
<path fill="none" stroke="black" stroke-width="1.2" d="M69.78,-129C81.77,-129 96.46,-129 110.7,-129"/>
<polygon fill="black" stroke="black" stroke-width="1.2" points="110.96,-132.5 120.96,-129 110.96,-125.5 110.96,-132.5"/>
</g>
<!-- rotate -->
<g id="node2" class="node">
<title>rotate</title>
<path fill="white" stroke="black" d="M59,-201C59,-201 26,-201 26,-201 20,-201 14,-195 14,-189 14,-189 14,-177 14,-177 14,-171 20,-165 26,-165 26,-165 59,-165 59,-165 65,-165 71,-171 71,-177 71,-177 71,-189 71,-189 71,-195 65,-201 59,-201"/>
<text text-anchor="middle" x="42.5" y="-179.3" font-family="Helvetica,sans-Serif" font-size="14.00">rotate</text>
</g>
<!-- pressure -->
<g id="node3" class="node">
<title>pressure</title>
<path fill="white" stroke="black" d="M69,-255C69,-255 16,-255 16,-255 10,-255 4,-249 4,-243 4,-243 4,-231 4,-231 4,-225 10,-219 16,-219 16,-219 69,-219 69,-219 75,-219 81,-225 81,-231 81,-231 81,-243 81,-243 81,-249 75,-255 69,-255"/>
<text text-anchor="middle" x="42.5" y="-233.3" font-family="Helvetica,sans-Serif" font-size="14.00">pressure</text>
</g>
<!-- vibration -->
<g id="node4" class="node">
<title>vibration</title>
<path fill="white" stroke="black" d="M727,-36C727,-36 673,-36 673,-36 667,-36 661,-30 661,-24 661,-24 661,-12 661,-12 661,-6 667,0 673,0 673,0 727,0 727,0 733,0 739,-6 739,-12 739,-12 739,-24 739,-24 739,-30 733,-36 727,-36"/>
<text text-anchor="middle" x="700" y="-14.3" font-family="Helvetica,sans-Serif" font-size="14.00">vibration</text>
</g>
<!-- err_error1 -->
<g id="node5" class="node">
<title>err_error1</title>
<path fill="white" stroke="black" d="M73,-309C73,-309 12,-309 12,-309 6,-309 0,-303 0,-297 0,-297 0,-285 0,-285 0,-279 6,-273 12,-273 12,-273 73,-273 73,-273 79,-273 85,-279 85,-285 85,-285 85,-297 85,-297 85,-303 79,-309 73,-309"/>
<text text-anchor="middle" x="42.5" y="-287.3" font-family="Helvetica,sans-Serif" font-size="14.00">err_error1</text>
</g>
<!-- err_error2 -->
<g id="node6" class="node">
<title>err_error2</title>
<path fill="white" stroke="black" d="M73,-363C73,-363 12,-363 12,-363 6,-363 0,-357 0,-351 0,-351 0,-339 0,-339 0,-333 6,-327 12,-327 12,-327 73,-327 73,-327 79,-327 85,-333 85,-339 85,-339 85,-351 85,-351 85,-357 79,-363 73,-363"/>
<text text-anchor="middle" x="42.5" y="-341.3" font-family="Helvetica,sans-Serif" font-size="14.00">err_error2</text>
</g>
<!-- err_error3 -->
<g id="node7" class="node">
<title>err_error3</title>
<path fill="white" stroke="black" d="M197.5,-363C197.5,-363 136.5,-363 136.5,-363 130.5,-363 124.5,-357 124.5,-351 124.5,-351 124.5,-339 124.5,-339 124.5,-333 130.5,-327 136.5,-327 136.5,-327 197.5,-327 197.5,-327 203.5,-327 209.5,-333 209.5,-339 209.5,-339 209.5,-351 209.5,-351 209.5,-357 203.5,-363 197.5,-363"/>
<text text-anchor="middle" x="167" y="-341.3" font-family="Helvetica,sans-Serif" font-size="14.00">err_error3</text>
</g>
<!-- err_error2&#45;&gt;err_error3 -->
<g id="edge3" class="edge">
<title>err_error2&#45;&gt;err_error3</title>
<path fill="none" stroke="black" stroke-width="1.2" d="M85.31,-345C94.58,-345 104.5,-345 114.11,-345"/>
<polygon fill="black" stroke="black" stroke-width="1.2" points="114.37,-348.5 124.37,-345 114.37,-341.5 114.37,-348.5"/>
</g>
<!-- err_error4 -->
<g id="node8" class="node">
<title>err_error4</title>
<path fill="white" stroke="black" d="M73,-417C73,-417 12,-417 12,-417 6,-417 0,-411 0,-405 0,-405 0,-393 0,-393 0,-387 6,-381 12,-381 12,-381 73,-381 73,-381 79,-381 85,-387 85,-393 85,-393 85,-405 85,-405 85,-411 79,-417 73,-417"/>
<text text-anchor="middle" x="42.5" y="-395.3" font-family="Helvetica,sans-Serif" font-size="14.00">err_error4</text>
</g>
<!-- err_error5 -->
<g id="node9" class="node">
<title>err_error5</title>
<path fill="white" stroke="black" d="M73,-471C73,-471 12,-471 12,-471 6,-471 0,-465 0,-459 0,-459 0,-447 0,-447 0,-441 6,-435 12,-435 12,-435 73,-435 73,-435 79,-435 85,-441 85,-447 85,-447 85,-459 85,-459 85,-465 79,-471 73,-471"/>
<text text-anchor="middle" x="42.5" y="-449.3" font-family="Helvetica,sans-Serif" font-size="14.00">err_error5</text>
</g>
<!-- mnt_comp1 -->
<g id="node10" class="node">
<title>mnt_comp1</title>
<path fill="white" stroke="black" d="M335,-170C335,-170 261,-170 261,-170 255,-170 249,-164 249,-158 249,-158 249,-146 249,-146 249,-140 255,-134 261,-134 261,-134 335,-134 335,-134 341,-134 347,-140 347,-146 347,-146 347,-158 347,-158 347,-164 341,-170 335,-170"/>
<text text-anchor="middle" x="298" y="-148.3" font-family="Helvetica,sans-Serif" font-size="14.00">mnt_comp1</text>
</g>
<!-- mnt_comp2 -->
<g id="node11" class="node">
<title>mnt_comp2</title>
<path fill="white" stroke="black" d="M469,-124C469,-124 395,-124 395,-124 389,-124 383,-118 383,-112 383,-112 383,-100 383,-100 383,-94 389,-88 395,-88 395,-88 469,-88 469,-88 475,-88 481,-94 481,-100 481,-100 481,-112 481,-112 481,-118 475,-124 469,-124"/>
<text text-anchor="middle" x="432" y="-102.3" font-family="Helvetica,sans-Serif" font-size="14.00">mnt_comp2</text>
</g>
<!-- mnt_comp1&#45;&gt;mnt_comp2 -->
<g id="edge4" class="edge">
<title>mnt_comp1&#45;&gt;mnt_comp2</title>
<path fill="none" stroke="black" stroke-width="1.2" d="M347.03,-135.26C355.49,-132.31 364.38,-129.22 373.08,-126.18"/>
<polygon fill="black" stroke="black" stroke-width="1.2" points="374.49,-129.4 382.79,-122.8 372.19,-122.79 374.49,-129.4"/>
</g>
<!-- mnt_comp3 -->
<g id="node12" class="node">
<title>mnt_comp3</title>
<path fill="white" stroke="black" d="M603,-36C603,-36 529,-36 529,-36 523,-36 517,-30 517,-24 517,-24 517,-12 517,-12 517,-6 523,0 529,0 529,0 603,0 603,0 609,0 615,-6 615,-12 615,-12 615,-24 615,-24 615,-30 609,-36 603,-36"/>
<text text-anchor="middle" x="566" y="-14.3" font-family="Helvetica,sans-Serif" font-size="14.00">mnt_comp3</text>
</g>
<!-- mnt_comp1&#45;&gt;mnt_comp3 -->
<g id="edge5" class="edge">
<title>mnt_comp1&#45;&gt;mnt_comp3</title>
<path fill="none" stroke="black" stroke-width="1.2" d="M347.08,-157.23C385.78,-159.13 440.24,-156.44 481,-133 515.55,-113.13 539.89,-72.68 553.19,-45.45"/>
<polygon fill="black" stroke="black" stroke-width="1.2" points="556.51,-46.62 557.58,-36.08 550.17,-43.65 556.51,-46.62"/>
</g>
<!-- mnt_comp4 -->
<g id="node13" class="node">
<title>mnt_comp4</title>
<path fill="white" stroke="black" d="M737,-124C737,-124 663,-124 663,-124 657,-124 651,-118 651,-112 651,-112 651,-100 651,-100 651,-94 657,-88 663,-88 663,-88 737,-88 737,-88 743,-88 749,-94 749,-100 749,-100 749,-112 749,-112 749,-118 743,-124 737,-124"/>
<text text-anchor="middle" x="700" y="-102.3" font-family="Helvetica,sans-Serif" font-size="14.00">mnt_comp4</text>
</g>
<!-- mnt_comp1&#45;&gt;mnt_comp4 -->
<g id="edge6" class="edge">
<title>mnt_comp1&#45;&gt;mnt_comp4</title>
<path fill="none" stroke="black" stroke-width="1.2" d="M347.36,-157.4C359.02,-158.48 371.44,-159.45 383,-160 426.51,-162.07 437.77,-165.28 481,-160 536.12,-153.28 597.37,-137.32 640.88,-124.49"/>
<polygon fill="black" stroke="black" stroke-width="1.2" points="642.13,-127.77 650.71,-121.55 640.13,-121.06 642.13,-127.77"/>
</g>
<!-- mnt_comp2&#45;&gt;mnt_comp3 -->
<g id="edge8" class="edge">
<title>mnt_comp2&#45;&gt;mnt_comp3</title>
<path fill="none" stroke="black" stroke-width="1.2" d="M460.03,-87.98C480.01,-74.66 507.4,-56.4 529.2,-41.87"/>
<polygon fill="black" stroke="black" stroke-width="1.2" points="531.17,-44.76 537.55,-36.3 527.29,-38.93 531.17,-44.76"/>
</g>
<!-- mnt_comp2&#45;&gt;mnt_comp4 -->
<g id="edge9" class="edge">
<title>mnt_comp2&#45;&gt;mnt_comp4</title>
<path fill="none" stroke="black" stroke-width="1.2" d="M481.17,-106C525.94,-106 592.73,-106 640.54,-106"/>
<polygon fill="black" stroke="black" stroke-width="1.2" points="640.74,-109.5 650.74,-106 640.74,-102.5 640.74,-109.5"/>
</g>
<!-- mnt_comp3&#45;&gt;vibration -->
<g id="edge2" class="edge">
<title>mnt_comp3&#45;&gt;vibration</title>
<path fill="none" stroke="black" stroke-width="1.2" d="M615.03,-18C626.54,-18 638.84,-18 650.38,-18"/>
<polygon fill="black" stroke="black" stroke-width="1.2" points="650.72,-21.5 660.72,-18 650.72,-14.5 650.72,-21.5"/>
</g>
<!-- mnt_comp3&#45;&gt;mnt_comp4 -->
<g id="edge12" class="edge">
<title>mnt_comp3&#45;&gt;mnt_comp4</title>
<path fill="none" stroke="black" stroke-width="1.2" d="M594.03,-36.02C614.01,-49.34 641.4,-67.6 663.2,-82.13"/>
<polygon fill="black" stroke="black" stroke-width="1.2" points="661.29,-85.07 671.55,-87.7 665.17,-79.24 661.29,-85.07"/>
</g>
<!-- fail_comp1&#45;&gt;mnt_comp1 -->
<g id="edge7" class="edge">
<title>fail_comp1&#45;&gt;mnt_comp1</title>
<path fill="none" stroke="black" stroke-width="1.2" d="M213.12,-137.04C221.37,-138.52 230.09,-140.07 238.66,-141.6"/>
<polygon fill="black" stroke="black" stroke-width="1.2" points="238.16,-145.06 248.62,-143.37 239.38,-138.17 238.16,-145.06"/>
</g>
<!-- fail_comp1&#45;&gt;mnt_comp2 -->
<g id="edge10" class="edge">
<title>fail_comp1&#45;&gt;mnt_comp2</title>
<path fill="none" stroke="black" stroke-width="1.2" d="M213.21,-125.05C257.27,-121.19 324.46,-115.32 372.56,-111.11"/>
<polygon fill="black" stroke="black" stroke-width="1.2" points="373.16,-114.57 382.82,-110.21 372.55,-107.6 373.16,-114.57"/>
</g>
<!-- fail_comp1&#45;&gt;mnt_comp3 -->
<g id="edge13" class="edge">
<title>fail_comp1&#45;&gt;mnt_comp3</title>
<path fill="none" stroke="black" stroke-width="1.2" d="M177.14,-110.93C189.78,-88.11 214.98,-49.8 249,-33 331.15,7.57 440.43,1.63 506.59,-7.42"/>
<polygon fill="black" stroke="black" stroke-width="1.2" points="506.43,-10.94 516.83,-8.9 507.43,-4.01 506.43,-10.94"/>
</g>
<!-- fail_comp1&#45;&gt;mnt_comp4 -->
<g id="edge15" class="edge">
<title>fail_comp1&#45;&gt;mnt_comp4</title>
<path fill="none" stroke="black" stroke-width="1.2" d="M189.78,-147.11C205.24,-158.73 227.06,-172.77 249,-179 405.74,-223.48 461.61,-212.94 615,-158 633.49,-151.38 652.25,-140.27 667.33,-130.02"/>
<polygon fill="black" stroke="black" stroke-width="1.2" points="669.58,-132.73 675.76,-124.13 665.56,-126.99 669.58,-132.73"/>
</g>
<!-- fail_comp2 -->
<g id="node15" class="node">
<title>fail_comp2</title>
<path fill="white" stroke="black" d="M332,-78C332,-78 264,-78 264,-78 258,-78 252,-72 252,-66 252,-66 252,-54 252,-54 252,-48 258,-42 264,-42 264,-42 332,-42 332,-42 338,-42 344,-48 344,-54 344,-54 344,-66 344,-66 344,-72 338,-78 332,-78"/>
<text text-anchor="middle" x="298" y="-56.3" font-family="Helvetica,sans-Serif" font-size="14.00">fail_comp2</text>
</g>
<!-- fail_comp2&#45;&gt;mnt_comp2 -->
<g id="edge11" class="edge">
<title>fail_comp2&#45;&gt;mnt_comp2</title>
<path fill="none" stroke="black" stroke-width="1.2" d="M344.06,-75.7C353.47,-78.98 363.51,-82.48 373.31,-85.9"/>
<polygon fill="black" stroke="black" stroke-width="1.2" points="372.39,-89.28 382.99,-89.27 374.7,-82.67 372.39,-89.28"/>
</g>
<!-- fail_comp2&#45;&gt;mnt_comp3 -->
<g id="edge14" class="edge">
<title>fail_comp2&#45;&gt;mnt_comp3</title>
<path fill="none" stroke="black" stroke-width="1.2" d="M344.32,-52.34C356.85,-50.25 370.45,-48.01 383,-46 424.23,-39.39 470.76,-32.24 506.45,-26.82"/>
<polygon fill="black" stroke="black" stroke-width="1.2" points="507.33,-30.22 516.69,-25.26 506.28,-23.3 507.33,-30.22"/>
</g>
<!-- fail_comp2&#45;&gt;mnt_comp4 -->
<g id="edge16" class="edge">
<title>fail_comp2&#45;&gt;mnt_comp4</title>
<path fill="none" stroke="black" stroke-width="1.2" d="M344.28,-64.48C381.12,-68.19 434.44,-73.69 481,-79 535.31,-85.2 597.14,-92.92 641.05,-98.52"/>
<polygon fill="black" stroke="black" stroke-width="1.2" points="640.61,-101.99 650.97,-99.78 641.5,-95.04 640.61,-101.99"/>
</g>
</g>
</svg>
