<?xml version="1.0" encoding="UTF-8" standalone="no"?>
<!DOCTYPE svg PUBLIC "-//W3C//DTD SVG 1.1//EN"
 "http://www.w3.org/Graphics/SVG/1.1/DTD/svg11.dtd">
<!-- Generated by graphviz version 2.50.0 (0)
 -->
<!-- Title: G Pages: 1 -->
<svg width="958pt" height="388pt"
 viewBox="0.00 0.00 958.00 387.82" xmlns="http://www.w3.org/2000/svg" xmlns:xlink="http://www.w3.org/1999/xlink">
<g id="graph0" class="graph" transform="scale(1 1) rotate(0) translate(4 383.82)">
<title>G</title>
<polygon fill="white" stroke="transparent" points="-4,4 -4,-383.82 954,-383.82 954,4 -4,4"/>
<text text-anchor="middle" x="475" y="-363.02" font-family="Times,serif" font-size="16.00">model=model1/varlingam_mixed.json [machine 56]</text>
<!-- volt -->
<g id="node1" class="node">
<title>volt</title>
<path fill="white" stroke="black" d="M406,-287.82C406,-287.82 376,-287.82 376,-287.82 370,-287.82 364,-281.82 364,-275.82 364,-275.82 364,-263.82 364,-263.82 364,-257.82 370,-251.82 376,-251.82 376,-251.82 406,-251.82 406,-251.82 412,-251.82 418,-257.82 418,-263.82 418,-263.82 418,-275.82 418,-275.82 418,-281.82 412,-287.82 406,-287.82"/>
<text text-anchor="middle" x="391" y="-266.12" font-family="Helvetica,sans-Serif" font-size="14.00">volt</text>
</g>
<!-- rotate -->
<g id="node2" class="node">
<title>rotate</title>
<path fill="white" stroke="black" d="M166,-206.82C166,-206.82 133,-206.82 133,-206.82 127,-206.82 121,-200.82 121,-194.82 121,-194.82 121,-182.82 121,-182.82 121,-176.82 127,-170.82 133,-170.82 133,-170.82 166,-170.82 166,-170.82 172,-170.82 178,-176.82 178,-182.82 178,-182.82 178,-194.82 178,-194.82 178,-200.82 172,-206.82 166,-206.82"/>
<text text-anchor="middle" x="149.5" y="-185.12" font-family="Helvetica,sans-Serif" font-size="14.00">rotate</text>
</g>
<!-- err_error4 -->
<g id="node8" class="node">
<title>err_error4</title>
<path fill="white" stroke="black" d="M938,-210.82C938,-210.82 877,-210.82 877,-210.82 871,-210.82 865,-204.82 865,-198.82 865,-198.82 865,-186.82 865,-186.82 865,-180.82 871,-174.82 877,-174.82 877,-174.82 938,-174.82 938,-174.82 944,-174.82 950,-180.82 950,-186.82 950,-186.82 950,-198.82 950,-198.82 950,-204.82 944,-210.82 938,-210.82"/>
<text text-anchor="middle" x="907.5" y="-189.12" font-family="Helvetica,sans-Serif" font-size="14.00">err_error4</text>
</g>
<!-- rotate&#45;&gt;err_error4 -->
<g id="edge3" class="edge">
<title>rotate&#45;&gt;err_error4</title>
<path fill="none" stroke="black" stroke-width="1.2" d="M169.18,-207.02C207.3,-242.14 298.23,-315.82 390,-315.82 390,-315.82 390,-315.82 660,-315.82 747.17,-315.82 835.16,-253.48 878.62,-217.56"/>
<polygon fill="black" stroke="black" stroke-width="1.2" points="881.06,-220.09 886.45,-210.97 876.55,-214.73 881.06,-220.09"/>
</g>
<!-- fail_comp2 -->
<g id="node14" class="node">
<title>fail_comp2</title>
<path fill="white" stroke="black" d="M294,-183.82C294,-183.82 226,-183.82 226,-183.82 220,-183.82 214,-177.82 214,-171.82 214,-171.82 214,-159.82 214,-159.82 214,-153.82 220,-147.82 226,-147.82 226,-147.82 294,-147.82 294,-147.82 300,-147.82 306,-153.82 306,-159.82 306,-159.82 306,-171.82 306,-171.82 306,-177.82 300,-183.82 294,-183.82"/>
<text text-anchor="middle" x="260" y="-162.12" font-family="Helvetica,sans-Serif" font-size="14.00">fail_comp2</text>
</g>
<!-- rotate&#45;&gt;fail_comp2 -->
<g id="edge4" class="edge">
<title>rotate&#45;&gt;fail_comp2</title>
<path fill="none" stroke="black" stroke-width="1.2" d="M178.16,-182.96C186.01,-181.3 194.84,-179.42 203.71,-177.54"/>
<polygon fill="black" stroke="black" stroke-width="1.2" points="204.63,-180.93 213.69,-175.43 203.18,-174.08 204.63,-180.93"/>
</g>
<!-- pressure -->
<g id="node3" class="node">
<title>pressure</title>
<path fill="white" stroke="black" d="M69,-206.82C69,-206.82 16,-206.82 16,-206.82 10,-206.82 4,-200.82 4,-194.82 4,-194.82 4,-182.82 4,-182.82 4,-176.82 10,-170.82 16,-170.82 16,-170.82 69,-170.82 69,-170.82 75,-170.82 81,-176.82 81,-182.82 81,-182.82 81,-194.82 81,-194.82 81,-200.82 75,-206.82 69,-206.82"/>
<text text-anchor="middle" x="42.5" y="-185.12" font-family="Helvetica,sans-Serif" font-size="14.00">pressure</text>
</g>
<!-- pressure&#45;&gt;rotate -->
<g id="edge2" class="edge">
<title>pressure&#45;&gt;rotate</title>
<path fill="none" stroke="black" stroke-width="1.2" d="M81.11,-188.82C90.7,-188.82 101.02,-188.82 110.63,-188.82"/>
<polygon fill="black" stroke="black" stroke-width="1.2" points="110.71,-192.32 120.71,-188.82 110.71,-185.32 110.71,-192.32"/>
</g>
<!-- pressure&#45;&gt;err_error4 -->
<g id="edge5" class="edge">
<title>pressure&#45;&gt;err_error4</title>
<path fill="none" stroke="black" stroke-width="1.2" d="M72.31,-207.07C76.61,-209.93 80.95,-212.91 85,-215.82 165.12,-273.47 160.3,-353.82 259,-353.82 259,-353.82 259,-353.82 660,-353.82 740.01,-353.82 764.31,-338.9 829,-291.82 855.52,-272.52 877.62,-241.76 891.34,-219.65"/>
<polygon fill="black" stroke="black" stroke-width="1.2" points="894.35,-221.43 896.52,-211.05 888.36,-217.81 894.35,-221.43"/>
</g>
<!-- fail_comp3 -->
<g id="node15" class="node">
<title>fail_comp3</title>
<path fill="white" stroke="black" d="M425,-49.82C425,-49.82 357,-49.82 357,-49.82 351,-49.82 345,-43.82 345,-37.82 345,-37.82 345,-25.82 345,-25.82 345,-19.82 351,-13.82 357,-13.82 357,-13.82 425,-13.82 425,-13.82 431,-13.82 437,-19.82 437,-25.82 437,-25.82 437,-37.82 437,-37.82 437,-43.82 431,-49.82 425,-49.82"/>
<text text-anchor="middle" x="391" y="-28.12" font-family="Helvetica,sans-Serif" font-size="14.00">fail_comp3</text>
</g>
<!-- pressure&#45;&gt;fail_comp3 -->
<g id="edge6" class="edge">
<title>pressure&#45;&gt;fail_comp3</title>
<path fill="none" stroke="black" stroke-width="1.2" d="M81.24,-171.72C144.23,-143.18 270.75,-85.86 340.7,-54.16"/>
<polygon fill="black" stroke="black" stroke-width="1.2" points="342.51,-57.18 350.18,-49.87 339.62,-50.81 342.51,-57.18"/>
</g>
<!-- vibration -->
<g id="node4" class="node">
<title>vibration</title>
<path fill="white" stroke="black" d="M69.5,-260.82C69.5,-260.82 15.5,-260.82 15.5,-260.82 9.5,-260.82 3.5,-254.82 3.5,-248.82 3.5,-248.82 3.5,-236.82 3.5,-236.82 3.5,-230.82 9.5,-224.82 15.5,-224.82 15.5,-224.82 69.5,-224.82 69.5,-224.82 75.5,-224.82 81.5,-230.82 81.5,-236.82 81.5,-236.82 81.5,-248.82 81.5,-248.82 81.5,-254.82 75.5,-260.82 69.5,-260.82"/>
<text text-anchor="middle" x="42.5" y="-239.12" font-family="Helvetica,sans-Serif" font-size="14.00">vibration</text>
</g>
<!-- err_error1 -->
<g id="node5" class="node">
<title>err_error1</title>
<path fill="white" stroke="black" d="M73,-314.82C73,-314.82 12,-314.82 12,-314.82 6,-314.82 0,-308.82 0,-302.82 0,-302.82 0,-290.82 0,-290.82 0,-284.82 6,-278.82 12,-278.82 12,-278.82 73,-278.82 73,-278.82 79,-278.82 85,-284.82 85,-290.82 85,-290.82 85,-302.82 85,-302.82 85,-308.82 79,-314.82 73,-314.82"/>
<text text-anchor="middle" x="42.5" y="-293.12" font-family="Helvetica,sans-Serif" font-size="14.00">err_error1</text>
</g>
<!-- err_error2 -->
<g id="node6" class="node">
<title>err_error2</title>
<path fill="white" stroke="black" d="M689.5,-45.82C689.5,-45.82 628.5,-45.82 628.5,-45.82 622.5,-45.82 616.5,-39.82 616.5,-33.82 616.5,-33.82 616.5,-21.82 616.5,-21.82 616.5,-15.82 622.5,-9.82 628.5,-9.82 628.5,-9.82 689.5,-9.82 689.5,-9.82 695.5,-9.82 701.5,-15.82 701.5,-21.82 701.5,-21.82 701.5,-33.82 701.5,-33.82 701.5,-39.82 695.5,-45.82 689.5,-45.82"/>
<text text-anchor="middle" x="659" y="-24.12" font-family="Helvetica,sans-Serif" font-size="14.00">err_error2</text>
</g>
<!-- err_error3 -->
<g id="node7" class="node">
<title>err_error3</title>
<path fill="white" stroke="black" d="M817,-91.82C817,-91.82 756,-91.82 756,-91.82 750,-91.82 744,-85.82 744,-79.82 744,-79.82 744,-67.82 744,-67.82 744,-61.82 750,-55.82 756,-55.82 756,-55.82 817,-55.82 817,-55.82 823,-55.82 829,-61.82 829,-67.82 829,-67.82 829,-79.82 829,-79.82 829,-85.82 823,-91.82 817,-91.82"/>
<text text-anchor="middle" x="786.5" y="-70.12" font-family="Helvetica,sans-Serif" font-size="14.00">err_error3</text>
</g>
<!-- err_error2&#45;&gt;err_error3 -->
<g id="edge7" class="edge">
<title>err_error2&#45;&gt;err_error3</title>
<path fill="none" stroke="black" stroke-width="1.2" d="M701.79,-43.14C712.27,-46.98 723.63,-51.15 734.5,-55.13"/>
<polygon fill="black" stroke="black" stroke-width="1.2" points="733.3,-58.42 743.89,-58.57 735.71,-51.85 733.3,-58.42"/>
</g>
<!-- err_error2&#45;&gt;err_error4 -->
<g id="edge8" class="edge">
<title>err_error2&#45;&gt;err_error4</title>
<path fill="none" stroke="black" stroke-width="1.2" d="M701.56,-22.26C738.23,-19.58 791.53,-21.33 829,-46.82 869.75,-74.54 890.7,-130.78 900.08,-164.79"/>
<polygon fill="black" stroke="black" stroke-width="1.2" points="896.72,-165.78 902.63,-174.58 903.5,-164.02 896.72,-165.78"/>
</g>
<!-- err_error3&#45;&gt;err_error4 -->
<g id="edge11" class="edge">
<title>err_error3&#45;&gt;err_error4</title>
<path fill="none" stroke="black" stroke-width="1.2" d="M805.57,-91.9C825.67,-111.99 858.28,-144.6 880.97,-167.3"/>
<polygon fill="black" stroke="black" stroke-width="1.2" points="878.71,-169.98 888.26,-174.58 883.66,-165.03 878.71,-169.98"/>
</g>
<!-- mnt_comp1 -->
<g id="node9" class="node">
<title>mnt_comp1</title>
<path fill="white" stroke="black" d="M562,-179.82C562,-179.82 488,-179.82 488,-179.82 482,-179.82 476,-173.82 476,-167.82 476,-167.82 476,-155.82 476,-155.82 476,-149.82 482,-143.82 488,-143.82 488,-143.82 562,-143.82 562,-143.82 568,-143.82 574,-149.82 574,-155.82 574,-155.82 574,-167.82 574,-167.82 574,-173.82 568,-179.82 562,-179.82"/>
<text text-anchor="middle" x="525" y="-158.12" font-family="Helvetica,sans-Serif" font-size="14.00">mnt_comp1</text>
</g>
<!-- mnt_comp4 -->
<g id="node12" class="node">
<title>mnt_comp4</title>
<path fill="white" stroke="black" d="M696,-137.82C696,-137.82 622,-137.82 622,-137.82 616,-137.82 610,-131.82 610,-125.82 610,-125.82 610,-113.82 610,-113.82 610,-107.82 616,-101.82 622,-101.82 622,-101.82 696,-101.82 696,-101.82 702,-101.82 708,-107.82 708,-113.82 708,-113.82 708,-125.82 708,-125.82 708,-131.82 702,-137.82 696,-137.82"/>
<text text-anchor="middle" x="659" y="-116.12" font-family="Helvetica,sans-Serif" font-size="14.00">mnt_comp4</text>
</g>
<!-- mnt_comp1&#45;&gt;mnt_comp4 -->
<g id="edge13" class="edge">
<title>mnt_comp1&#45;&gt;mnt_comp4</title>
<path fill="none" stroke="black" stroke-width="1.2" d="M574.03,-146.54C582.49,-143.85 591.38,-141.02 600.08,-138.25"/>
<polygon fill="black" stroke="black" stroke-width="1.2" points="601.32,-141.53 609.79,-135.16 599.2,-134.86 601.32,-141.53"/>
</g>
<!-- mnt_comp2 -->
<g id="node10" class="node">
<title>mnt_comp2</title>
<path fill="white" stroke="black" d="M428,-233.82C428,-233.82 354,-233.82 354,-233.82 348,-233.82 342,-227.82 342,-221.82 342,-221.82 342,-209.82 342,-209.82 342,-203.82 348,-197.82 354,-197.82 354,-197.82 428,-197.82 428,-197.82 434,-197.82 440,-203.82 440,-209.82 440,-209.82 440,-221.82 440,-221.82 440,-227.82 434,-233.82 428,-233.82"/>
<text text-anchor="middle" x="391" y="-212.12" font-family="Helvetica,sans-Serif" font-size="14.00">mnt_comp2</text>
</g>
<!-- mnt_comp3 -->
<g id="node11" class="node">
<title>mnt_comp3</title>
<path fill="white" stroke="black" d="M562,-49.82C562,-49.82 488,-49.82 488,-49.82 482,-49.82 476,-43.82 476,-37.82 476,-37.82 476,-25.82 476,-25.82 476,-19.82 482,-13.82 488,-13.82 488,-13.82 562,-13.82 562,-13.82 568,-13.82 574,-19.82 574,-25.82 574,-25.82 574,-37.82 574,-37.82 574,-43.82 568,-49.82 562,-49.82"/>
<text text-anchor="middle" x="525" y="-28.12" font-family="Helvetica,sans-Serif" font-size="14.00">mnt_comp3</text>
</g>
<!-- mnt_comp3&#45;&gt;err_error2 -->
<g id="edge9" class="edge">
<title>mnt_comp3&#45;&gt;err_error2</title>
<path fill="none" stroke="black" stroke-width="1.2" d="M574.03,-30.37C584.53,-30.05 595.69,-29.71 606.33,-29.39"/>
<polygon fill="black" stroke="black" stroke-width="1.2" points="606.44,-32.89 616.33,-29.09 606.23,-25.89 606.44,-32.89"/>
</g>
<!-- mnt_comp3&#45;&gt;err_error3 -->
<g id="edge12" class="edge">
<title>mnt_comp3&#45;&gt;err_error3</title>
<path fill="none" stroke="black" stroke-width="1.2" d="M574.11,-46.41C585.77,-49.55 598.26,-52.6 610,-54.82 651.24,-62.65 698.6,-67.54 733.71,-70.4"/>
<polygon fill="black" stroke="black" stroke-width="1.2" points="733.49,-73.89 743.74,-71.18 734.04,-66.91 733.49,-73.89"/>
</g>
<!-- mnt_comp3&#45;&gt;mnt_comp4 -->
<g id="edge16" class="edge">
<title>mnt_comp3&#45;&gt;mnt_comp4</title>
<path fill="none" stroke="black" stroke-width="1.2" d="M553.03,-49.84C573.01,-63.16 600.4,-81.43 622.2,-95.96"/>
<polygon fill="black" stroke="black" stroke-width="1.2" points="620.29,-98.89 630.55,-101.52 624.17,-93.07 620.29,-98.89"/>
</g>
<!-- fail_comp1 -->
<g id="node13" class="node">
<title>fail_comp1</title>
<path fill="white" stroke="black" d="M425,-179.82C425,-179.82 357,-179.82 357,-179.82 351,-179.82 345,-173.82 345,-167.82 345,-167.82 345,-155.82 345,-155.82 345,-149.82 351,-143.82 357,-143.82 357,-143.82 425,-143.82 425,-143.82 431,-143.82 437,-149.82 437,-155.82 437,-155.82 437,-167.82 437,-167.82 437,-173.82 431,-179.82 425,-179.82"/>
<text text-anchor="middle" x="391" y="-158.12" font-family="Helvetica,sans-Serif" font-size="14.00">fail_comp1</text>
</g>
<!-- fail_comp1&#45;&gt;mnt_comp1 -->
<g id="edge14" class="edge">
<title>fail_comp1&#45;&gt;mnt_comp1</title>
<path fill="none" stroke="black" stroke-width="1.2" d="M437.06,-161.82C446.27,-161.82 456.09,-161.82 465.7,-161.82"/>
<polygon fill="black" stroke="black" stroke-width="1.2" points="465.99,-165.32 475.99,-161.82 465.99,-158.32 465.99,-165.32"/>
</g>
<!-- fail_comp1&#45;&gt;mnt_comp4 -->
<g id="edge19" class="edge">
<title>fail_comp1&#45;&gt;mnt_comp4</title>
<path fill="none" stroke="black" stroke-width="1.2" d="M435.82,-179.93C473.43,-192.77 528.59,-205.08 574,-188.82 598.13,-180.19 620.29,-161.3 635.79,-145.47"/>
<polygon fill="black" stroke="black" stroke-width="1.2" points="638.52,-147.67 642.84,-138 633.43,-142.87 638.52,-147.67"/>
</g>
<!-- fail_comp2&#45;&gt;volt -->
<g id="edge1" class="edge">
<title>fail_comp2&#45;&gt;volt</title>
<path fill="none" stroke="black" stroke-width="1.2" d="M277.58,-183.98C293.22,-200.5 317.81,-224.95 342,-242.82 346.12,-245.87 350.63,-248.82 355.17,-251.59"/>
<polygon fill="black" stroke="black" stroke-width="1.2" points="353.46,-254.65 363.86,-256.66 356.98,-248.6 353.46,-254.65"/>
</g>
<!-- fail_comp2&#45;&gt;mnt_comp2 -->
<g id="edge15" class="edge">
<title>fail_comp2&#45;&gt;mnt_comp2</title>
<path fill="none" stroke="black" stroke-width="1.2" d="M306.12,-183.31C315.07,-186.78 324.57,-190.46 333.84,-194.05"/>
<polygon fill="black" stroke="black" stroke-width="1.2" points="332.79,-197.4 343.38,-197.75 335.32,-190.88 332.79,-197.4"/>
</g>
<!-- fail_comp2&#45;&gt;mnt_comp3 -->
<g id="edge17" class="edge">
<title>fail_comp2&#45;&gt;mnt_comp3</title>
<path fill="none" stroke="black" stroke-width="1.2" d="M280.42,-147.7C296.12,-133.77 319.27,-114.78 342,-101.82 363.85,-89.37 421.66,-67.79 466.31,-51.87"/>
<polygon fill="black" stroke="black" stroke-width="1.2" points="467.66,-55.11 475.91,-48.47 465.32,-48.51 467.66,-55.11"/>
</g>
<!-- fail_comp2&#45;&gt;mnt_comp4 -->
<g id="edge20" class="edge">
<title>fail_comp2&#45;&gt;mnt_comp4</title>
<path fill="none" stroke="black" stroke-width="1.2" d="M300.61,-147.78C313.55,-142.68 328.15,-137.73 342,-134.82 430.35,-116.32 535.5,-115.39 599.47,-117.1"/>
<polygon fill="black" stroke="black" stroke-width="1.2" points="599.66,-120.61 609.76,-117.41 599.87,-113.61 599.66,-120.61"/>
</g>
<!-- fail_comp2&#45;&gt;fail_comp3 -->
<g id="edge22" class="edge">
<title>fail_comp2&#45;&gt;fail_comp3</title>
<path fill="none" stroke="black" stroke-width="1.2" d="M276.15,-147.61C284.95,-136.95 296.2,-123.2 306,-110.82 322.33,-90.19 322.79,-81.81 342,-63.82 344.92,-61.09 348.09,-58.43 351.38,-55.89"/>
<polygon fill="black" stroke="black" stroke-width="1.2" points="353.65,-58.56 359.66,-49.84 349.52,-52.91 353.65,-58.56"/>
</g>
<!-- fail_comp3&#45;&gt;err_error2 -->
<g id="edge10" class="edge">
<title>fail_comp3&#45;&gt;err_error2</title>
<path fill="none" stroke="black" stroke-width="1.2" d="M437.15,-14.48C449.55,-10.49 463.14,-6.84 476,-4.82 519.03,1.92 530.83,0.98 574,-4.82 584.56,-6.24 595.67,-8.62 606.23,-11.33"/>
<polygon fill="black" stroke="black" stroke-width="1.2" points="605.59,-14.78 616.15,-14 607.41,-8.02 605.59,-14.78"/>
</g>
<!-- fail_comp3&#45;&gt;mnt_comp3 -->
<g id="edge18" class="edge">
<title>fail_comp3&#45;&gt;mnt_comp3</title>
<path fill="none" stroke="black" stroke-width="1.2" d="M437.06,-31.82C446.27,-31.82 456.09,-31.82 465.7,-31.82"/>
<polygon fill="black" stroke="black" stroke-width="1.2" points="465.99,-35.32 475.99,-31.82 465.99,-28.32 465.99,-35.32"/>
</g>
<!-- fail_comp3&#45;&gt;mnt_comp4 -->
<g id="edge21" class="edge">
<title>fail_comp3&#45;&gt;mnt_comp4</title>
<path fill="none" stroke="black" stroke-width="1.2" d="M437.12,-46.75C482.15,-61.65 551.49,-84.59 600.45,-100.78"/>
<polygon fill="black" stroke="black" stroke-width="1.2" points="599.36,-104.11 609.95,-103.93 601.56,-97.47 599.36,-104.11"/>
</g>
</g>
</svg>
