<?xml version="1.0" encoding="UTF-8" standalone="no"?>
<!DOCTYPE svg PUBLIC "-//W3C//DTD SVG 1.1//EN"
 "http://www.w3.org/Graphics/SVG/1.1/DTD/svg11.dtd">
<!-- Generated by graphviz version 2.50.0 (0)
 -->
<!-- Title: G Pages: 1 -->
<svg width="1121pt" height="307pt"
 viewBox="0.00 0.00 1121.00 306.74" xmlns="http://www.w3.org/2000/svg" xmlns:xlink="http://www.w3.org/1999/xlink">
<g id="graph0" class="graph" transform="scale(1 1) rotate(0) translate(4 302.74)">
<title>G</title>
<polygon fill="white" stroke="transparent" points="-4,4 -4,-302.74 1117,-302.74 1117,4 -4,4"/>
<text text-anchor="middle" x="556.5" y="-281.94" font-family="Times,serif" font-size="16.00">model=model4/varlingam_mixed.json [machine 83]</text>
<!-- volt -->
<g id="node1" class="node">
<title>volt</title>
<path fill="white" stroke="black" d="M57.5,-109C57.5,-109 27.5,-109 27.5,-109 21.5,-109 15.5,-103 15.5,-97 15.5,-97 15.5,-85 15.5,-85 15.5,-79 21.5,-73 27.5,-73 27.5,-73 57.5,-73 57.5,-73 63.5,-73 69.5,-79 69.5,-85 69.5,-85 69.5,-97 69.5,-97 69.5,-103 63.5,-109 57.5,-109"/>
<text text-anchor="middle" x="42.5" y="-87.3" font-family="Helvetica,sans-Serif" font-size="14.00">volt</text>
</g>
<!-- rotate -->
<g id="node2" class="node">
<title>rotate</title>
<path fill="white" stroke="black" d="M59,-163C59,-163 26,-163 26,-163 20,-163 14,-157 14,-151 14,-151 14,-139 14,-139 14,-133 20,-127 26,-127 26,-127 59,-127 59,-127 65,-127 71,-133 71,-139 71,-139 71,-151 71,-151 71,-157 65,-163 59,-163"/>
<text text-anchor="middle" x="42.5" y="-141.3" font-family="Helvetica,sans-Serif" font-size="14.00">rotate</text>
</g>
<!-- fail_comp1 -->
<g id="node14" class="node">
<title>fail_comp1</title>
<path fill="white" stroke="black" d="M201,-140C201,-140 133,-140 133,-140 127,-140 121,-134 121,-128 121,-128 121,-116 121,-116 121,-110 127,-104 133,-104 133,-104 201,-104 201,-104 207,-104 213,-110 213,-116 213,-116 213,-128 213,-128 213,-134 207,-140 201,-140"/>
<text text-anchor="middle" x="167" y="-118.3" font-family="Helvetica,sans-Serif" font-size="14.00">fail_comp1</text>
</g>
<!-- rotate&#45;&gt;fail_comp1 -->
<g id="edge1" class="edge">
<title>rotate&#45;&gt;fail_comp1</title>
<path fill="none" stroke="black" stroke-width="1.2" d="M71.3,-139.78C83,-137.58 97.05,-134.95 110.7,-132.38"/>
<polygon fill="black" stroke="black" stroke-width="1.2" points="111.35,-135.82 120.54,-130.54 110.06,-128.94 111.35,-135.82"/>
</g>
<!-- pressure -->
<g id="node3" class="node">
<title>pressure</title>
<path fill="white" stroke="black" d="M69,-217C69,-217 16,-217 16,-217 10,-217 4,-211 4,-205 4,-205 4,-193 4,-193 4,-187 10,-181 16,-181 16,-181 69,-181 69,-181 75,-181 81,-187 81,-193 81,-193 81,-205 81,-205 81,-211 75,-217 69,-217"/>
<text text-anchor="middle" x="42.5" y="-195.3" font-family="Helvetica,sans-Serif" font-size="14.00">pressure</text>
</g>
<!-- vibration -->
<g id="node4" class="node">
<title>vibration</title>
<path fill="white" stroke="black" d="M849,-217C849,-217 795,-217 795,-217 789,-217 783,-211 783,-205 783,-205 783,-193 783,-193 783,-187 789,-181 795,-181 795,-181 849,-181 849,-181 855,-181 861,-187 861,-193 861,-193 861,-205 861,-205 861,-211 855,-217 849,-217"/>
<text text-anchor="middle" x="822" y="-195.3" font-family="Helvetica,sans-Serif" font-size="14.00">vibration</text>
</g>
<!-- err_error5 -->
<g id="node9" class="node">
<title>err_error5</title>
<path fill="white" stroke="black" d="M980,-182C980,-182 919,-182 919,-182 913,-182 907,-176 907,-170 907,-170 907,-158 907,-158 907,-152 913,-146 919,-146 919,-146 980,-146 980,-146 986,-146 992,-152 992,-158 992,-158 992,-170 992,-170 992,-176 986,-182 980,-182"/>
<text text-anchor="middle" x="949.5" y="-160.3" font-family="Helvetica,sans-Serif" font-size="14.00">err_error5</text>
</g>
<!-- vibration&#45;&gt;err_error5 -->
<g id="edge3" class="edge">
<title>vibration&#45;&gt;err_error5</title>
<path fill="none" stroke="black" stroke-width="1.2" d="M861.34,-188.31C872.6,-185.17 885.11,-181.68 897.05,-178.35"/>
<polygon fill="black" stroke="black" stroke-width="1.2" points="898.21,-181.66 906.91,-175.6 896.33,-174.91 898.21,-181.66"/>
</g>
<!-- err_error1 -->
<g id="node5" class="node">
<title>err_error1</title>
<path fill="white" stroke="black" d="M852.5,-94C852.5,-94 791.5,-94 791.5,-94 785.5,-94 779.5,-88 779.5,-82 779.5,-82 779.5,-70 779.5,-70 779.5,-64 785.5,-58 791.5,-58 791.5,-58 852.5,-58 852.5,-58 858.5,-58 864.5,-64 864.5,-70 864.5,-70 864.5,-82 864.5,-82 864.5,-88 858.5,-94 852.5,-94"/>
<text text-anchor="middle" x="822" y="-72.3" font-family="Helvetica,sans-Serif" font-size="14.00">err_error1</text>
</g>
<!-- err_error2 -->
<g id="node6" class="node">
<title>err_error2</title>
<path fill="white" stroke="black" d="M980,-71C980,-71 919,-71 919,-71 913,-71 907,-65 907,-59 907,-59 907,-47 907,-47 907,-41 913,-35 919,-35 919,-35 980,-35 980,-35 986,-35 992,-41 992,-47 992,-47 992,-59 992,-59 992,-65 986,-71 980,-71"/>
<text text-anchor="middle" x="949.5" y="-49.3" font-family="Helvetica,sans-Serif" font-size="14.00">err_error2</text>
</g>
<!-- err_error1&#45;&gt;err_error2 -->
<g id="edge5" class="edge">
<title>err_error1&#45;&gt;err_error2</title>
<path fill="none" stroke="black" stroke-width="1.2" d="M864.79,-68.34C875.06,-66.46 886.17,-64.42 896.84,-62.47"/>
<polygon fill="black" stroke="black" stroke-width="1.2" points="897.69,-65.87 906.89,-60.63 896.43,-58.99 897.69,-65.87"/>
</g>
<!-- err_error3 -->
<g id="node7" class="node">
<title>err_error3</title>
<path fill="white" stroke="black" d="M1101,-94C1101,-94 1040,-94 1040,-94 1034,-94 1028,-88 1028,-82 1028,-82 1028,-70 1028,-70 1028,-64 1034,-58 1040,-58 1040,-58 1101,-58 1101,-58 1107,-58 1113,-64 1113,-70 1113,-70 1113,-82 1113,-82 1113,-88 1107,-94 1101,-94"/>
<text text-anchor="middle" x="1070.5" y="-72.3" font-family="Helvetica,sans-Serif" font-size="14.00">err_error3</text>
</g>
<!-- err_error1&#45;&gt;err_error3 -->
<g id="edge6" class="edge">
<title>err_error1&#45;&gt;err_error3</title>
<path fill="none" stroke="black" stroke-width="1.2" d="M864.86,-78.39C878.31,-79.05 893.28,-79.67 907,-80 944.77,-80.9 954.23,-80.97 992,-80 1000.23,-79.79 1008.96,-79.45 1017.46,-79.06"/>
<polygon fill="black" stroke="black" stroke-width="1.2" points="1017.87,-82.54 1027.69,-78.55 1017.53,-75.55 1017.87,-82.54"/>
</g>
<!-- err_error1&#45;&gt;err_error5 -->
<g id="edge7" class="edge">
<title>err_error1&#45;&gt;err_error5</title>
<path fill="none" stroke="black" stroke-width="1.2" d="M856.71,-94.09C861.58,-96.95 866.47,-99.97 871,-103 887.66,-114.14 905.28,-127.85 919.51,-139.44"/>
<polygon fill="black" stroke="black" stroke-width="1.2" points="917.51,-142.33 927.46,-145.99 921.96,-136.93 917.51,-142.33"/>
</g>
<!-- err_error2&#45;&gt;err_error3 -->
<g id="edge8" class="edge">
<title>err_error2&#45;&gt;err_error3</title>
<path fill="none" stroke="black" stroke-width="1.2" d="M992.12,-61.04C1000.41,-62.65 1009.2,-64.35 1017.78,-66"/>
<polygon fill="black" stroke="black" stroke-width="1.2" points="1017.22,-69.46 1027.7,-67.92 1018.55,-62.59 1017.22,-69.46"/>
</g>
<!-- err_error4 -->
<g id="node8" class="node">
<title>err_error4</title>
<path fill="white" stroke="black" d="M73,-271C73,-271 12,-271 12,-271 6,-271 0,-265 0,-259 0,-259 0,-247 0,-247 0,-241 6,-235 12,-235 12,-235 73,-235 73,-235 79,-235 85,-241 85,-247 85,-247 85,-259 85,-259 85,-265 79,-271 73,-271"/>
<text text-anchor="middle" x="42.5" y="-249.3" font-family="Helvetica,sans-Serif" font-size="14.00">err_error4</text>
</g>
<!-- mnt_comp1 -->
<g id="node10" class="node">
<title>mnt_comp1</title>
<path fill="white" stroke="black" d="M597,-64C597,-64 523,-64 523,-64 517,-64 511,-58 511,-52 511,-52 511,-40 511,-40 511,-34 517,-28 523,-28 523,-28 597,-28 597,-28 603,-28 609,-34 609,-40 609,-40 609,-52 609,-52 609,-58 603,-64 597,-64"/>
<text text-anchor="middle" x="560" y="-42.3" font-family="Helvetica,sans-Serif" font-size="14.00">mnt_comp1</text>
</g>
<!-- mnt_comp4 -->
<g id="node13" class="node">
<title>mnt_comp4</title>
<path fill="white" stroke="black" d="M859,-148C859,-148 785,-148 785,-148 779,-148 773,-142 773,-136 773,-136 773,-124 773,-124 773,-118 779,-112 785,-112 785,-112 859,-112 859,-112 865,-112 871,-118 871,-124 871,-124 871,-136 871,-136 871,-142 865,-148 859,-148"/>
<text text-anchor="middle" x="822" y="-126.3" font-family="Helvetica,sans-Serif" font-size="14.00">mnt_comp4</text>
</g>
<!-- mnt_comp1&#45;&gt;mnt_comp4 -->
<g id="edge9" class="edge">
<title>mnt_comp1&#45;&gt;mnt_comp4</title>
<path fill="none" stroke="black" stroke-width="1.2" d="M609.25,-49.21C645.52,-52.93 695.84,-60.92 737,-78 754.99,-85.47 756.49,-92.66 773,-103 774.94,-104.22 776.94,-105.44 778.97,-106.66"/>
<polygon fill="black" stroke="black" stroke-width="1.2" points="777.57,-109.9 787.97,-111.96 781.13,-103.87 777.57,-109.9"/>
</g>
<!-- fail_comp4 -->
<g id="node16" class="node">
<title>fail_comp4</title>
<path fill="white" stroke="black" d="M725,-232C725,-232 657,-232 657,-232 651,-232 645,-226 645,-220 645,-220 645,-208 645,-208 645,-202 651,-196 657,-196 657,-196 725,-196 725,-196 731,-196 737,-202 737,-208 737,-208 737,-220 737,-220 737,-226 731,-232 725,-232"/>
<text text-anchor="middle" x="691" y="-210.3" font-family="Helvetica,sans-Serif" font-size="14.00">fail_comp4</text>
</g>
<!-- mnt_comp1&#45;&gt;fail_comp4 -->
<g id="edge11" class="edge">
<title>mnt_comp1&#45;&gt;fail_comp4</title>
<path fill="none" stroke="black" stroke-width="1.2" d="M575.05,-64.3C597.99,-94.17 643.55,-153.51 669.9,-187.83"/>
<polygon fill="black" stroke="black" stroke-width="1.2" points="667.3,-190.18 676.16,-195.98 672.85,-185.91 667.3,-190.18"/>
</g>
<!-- mnt_comp2 -->
<g id="node11" class="node">
<title>mnt_comp2</title>
<path fill="white" stroke="black" d="M463,-186C463,-186 389,-186 389,-186 383,-186 377,-180 377,-174 377,-174 377,-162 377,-162 377,-156 383,-150 389,-150 389,-150 463,-150 463,-150 469,-150 475,-156 475,-162 475,-162 475,-174 475,-174 475,-180 469,-186 463,-186"/>
<text text-anchor="middle" x="426" y="-164.3" font-family="Helvetica,sans-Serif" font-size="14.00">mnt_comp2</text>
</g>
<!-- mnt_comp3 -->
<g id="node12" class="node">
<title>mnt_comp3</title>
<path fill="white" stroke="black" d="M597,-232C597,-232 523,-232 523,-232 517,-232 511,-226 511,-220 511,-220 511,-208 511,-208 511,-202 517,-196 523,-196 523,-196 597,-196 597,-196 603,-196 609,-202 609,-208 609,-208 609,-220 609,-220 609,-226 603,-232 597,-232"/>
<text text-anchor="middle" x="560" y="-210.3" font-family="Helvetica,sans-Serif" font-size="14.00">mnt_comp3</text>
</g>
<!-- mnt_comp2&#45;&gt;mnt_comp3 -->
<g id="edge12" class="edge">
<title>mnt_comp2&#45;&gt;mnt_comp3</title>
<path fill="none" stroke="black" stroke-width="1.2" d="M475.03,-184.74C483.49,-187.69 492.38,-190.78 501.08,-193.82"/>
<polygon fill="black" stroke="black" stroke-width="1.2" points="500.19,-197.21 510.79,-197.2 502.49,-190.6 500.19,-197.21"/>
</g>
<!-- mnt_comp2&#45;&gt;mnt_comp4 -->
<g id="edge13" class="edge">
<title>mnt_comp2&#45;&gt;mnt_comp4</title>
<path fill="none" stroke="black" stroke-width="1.2" d="M475.31,-163.34C547.88,-156.34 684.8,-143.14 762.77,-135.62"/>
<polygon fill="black" stroke="black" stroke-width="1.2" points="763.29,-139.08 772.91,-134.64 762.62,-132.11 763.29,-139.08"/>
</g>
<!-- mnt_comp2&#45;&gt;fail_comp4 -->
<g id="edge15" class="edge">
<title>mnt_comp2&#45;&gt;fail_comp4</title>
<path fill="none" stroke="black" stroke-width="1.2" d="M475.35,-170.18C512.29,-172.53 564.29,-177.33 609,-187 617.53,-188.84 626.41,-191.27 635.04,-193.9"/>
<polygon fill="black" stroke="black" stroke-width="1.2" points="634.06,-197.26 644.65,-196.95 636.18,-190.59 634.06,-197.26"/>
</g>
<!-- mnt_comp3&#45;&gt;mnt_comp4 -->
<g id="edge16" class="edge">
<title>mnt_comp3&#45;&gt;mnt_comp4</title>
<path fill="none" stroke="black" stroke-width="1.2" d="M609.29,-198.4C652.89,-184.31 717.11,-163.56 763.38,-148.62"/>
<polygon fill="black" stroke="black" stroke-width="1.2" points="764.52,-151.92 772.96,-145.52 762.37,-145.26 764.52,-151.92"/>
</g>
<!-- mnt_comp3&#45;&gt;fail_comp4 -->
<g id="edge18" class="edge">
<title>mnt_comp3&#45;&gt;fail_comp4</title>
<path fill="none" stroke="black" stroke-width="1.2" d="M609.03,-214C617.39,-214 626.13,-214 634.66,-214"/>
<polygon fill="black" stroke="black" stroke-width="1.2" points="634.92,-217.5 644.92,-214 634.92,-210.5 634.92,-217.5"/>
</g>
<!-- fail_comp1&#45;&gt;mnt_comp1 -->
<g id="edge10" class="edge">
<title>fail_comp1&#45;&gt;mnt_comp1</title>
<path fill="none" stroke="black" stroke-width="1.2" d="M213.17,-112.04C255.44,-102.82 320.39,-88.93 377,-78 418.14,-70.05 464.68,-61.89 500.39,-55.79"/>
<polygon fill="black" stroke="black" stroke-width="1.2" points="501.37,-59.18 510.64,-54.05 500.19,-52.28 501.37,-59.18"/>
</g>
<!-- fail_comp1&#45;&gt;mnt_comp4 -->
<g id="edge19" class="edge">
<title>fail_comp1&#45;&gt;mnt_comp4</title>
<path fill="none" stroke="black" stroke-width="1.2" d="M189.06,-104C231,-70.06 329.18,0 425,0 425,0 425,0 561,0 642.32,0 671.08,-2.39 737,-50 760.08,-66.67 752.03,-83.73 773,-103 774.1,-104.01 775.24,-105 776.42,-105.96"/>
<polygon fill="black" stroke="black" stroke-width="1.2" points="774.48,-108.88 784.62,-111.97 778.62,-103.24 774.48,-108.88"/>
</g>
<!-- fail_comp2 -->
<g id="node15" class="node">
<title>fail_comp2</title>
<path fill="white" stroke="black" d="M329,-186C329,-186 261,-186 261,-186 255,-186 249,-180 249,-174 249,-174 249,-162 249,-162 249,-156 255,-150 261,-150 261,-150 329,-150 329,-150 335,-150 341,-156 341,-162 341,-162 341,-174 341,-174 341,-180 335,-186 329,-186"/>
<text text-anchor="middle" x="295" y="-164.3" font-family="Helvetica,sans-Serif" font-size="14.00">fail_comp2</text>
</g>
<!-- fail_comp1&#45;&gt;fail_comp2 -->
<g id="edge22" class="edge">
<title>fail_comp1&#45;&gt;fail_comp2</title>
<path fill="none" stroke="black" stroke-width="1.2" d="M213.13,-138.48C221.55,-141.55 230.42,-144.79 239.09,-147.96"/>
<polygon fill="black" stroke="black" stroke-width="1.2" points="238.16,-151.34 248.76,-151.48 240.57,-144.77 238.16,-151.34"/>
</g>
<!-- fail_comp1&#45;&gt;fail_comp4 -->
<g id="edge23" class="edge">
<title>fail_comp1&#45;&gt;fail_comp4</title>
<path fill="none" stroke="black" stroke-width="1.2" d="M184.49,-140.28C199.88,-156.45 224.14,-179.77 249,-195 300.95,-226.82 317.81,-229.61 377,-244 477.4,-268.41 508.98,-284.92 609,-259 625.61,-254.7 642.43,-246.17 656.42,-237.69"/>
<polygon fill="black" stroke="black" stroke-width="1.2" points="658.58,-240.46 665.16,-232.16 654.84,-234.54 658.58,-240.46"/>
</g>
<!-- fail_comp2&#45;&gt;rotate -->
<g id="edge2" class="edge">
<title>fail_comp2&#45;&gt;rotate</title>
<path fill="none" stroke="black" stroke-width="1.2" d="M248.77,-163.85C200.94,-159.46 126.33,-152.61 81.45,-148.48"/>
<polygon fill="black" stroke="black" stroke-width="1.2" points="81.54,-144.98 71.26,-147.55 80.9,-151.95 81.54,-144.98"/>
</g>
<!-- fail_comp2&#45;&gt;mnt_comp2 -->
<g id="edge14" class="edge">
<title>fail_comp2&#45;&gt;mnt_comp2</title>
<path fill="none" stroke="black" stroke-width="1.2" d="M341.12,-168C349.28,-168 357.9,-168 366.38,-168"/>
<polygon fill="black" stroke="black" stroke-width="1.2" points="366.62,-171.5 376.62,-168 366.62,-164.5 366.62,-171.5"/>
</g>
<!-- fail_comp2&#45;&gt;mnt_comp3 -->
<g id="edge17" class="edge">
<title>fail_comp2&#45;&gt;mnt_comp3</title>
<path fill="none" stroke="black" stroke-width="1.2" d="M341.35,-185.05C352.85,-188.83 365.26,-192.46 377,-195 417.7,-203.8 464.43,-208.57 500.35,-211.13"/>
<polygon fill="black" stroke="black" stroke-width="1.2" points="500.44,-214.64 510.65,-211.82 500.91,-207.66 500.44,-214.64"/>
</g>
<!-- fail_comp2&#45;&gt;mnt_comp4 -->
<g id="edge20" class="edge">
<title>fail_comp2&#45;&gt;mnt_comp4</title>
<path fill="none" stroke="black" stroke-width="1.2" d="M341.23,-150.31C352.72,-146.54 365.17,-143.08 377,-141 513.65,-116.99 677.55,-121.3 762.89,-125.98"/>
<polygon fill="black" stroke="black" stroke-width="1.2" points="762.72,-129.47 772.9,-126.55 763.12,-122.48 762.72,-129.47"/>
</g>
<!-- fail_comp2&#45;&gt;fail_comp4 -->
<g id="edge24" class="edge">
<title>fail_comp2&#45;&gt;fail_comp4</title>
<path fill="none" stroke="black" stroke-width="1.2" d="M321.89,-186.02C337.26,-195.94 357.51,-207.69 377,-215 474.15,-251.43 506.58,-257.62 609,-241 617.61,-239.6 626.54,-237.42 635.19,-234.89"/>
<polygon fill="black" stroke="black" stroke-width="1.2" points="636.3,-238.21 644.81,-231.91 634.22,-231.53 636.3,-238.21"/>
</g>
<!-- fail_comp4&#45;&gt;vibration -->
<g id="edge4" class="edge">
<title>fail_comp4&#45;&gt;vibration</title>
<path fill="none" stroke="black" stroke-width="1.2" d="M737.12,-208.75C748.69,-207.41 761.19,-205.95 772.91,-204.59"/>
<polygon fill="black" stroke="black" stroke-width="1.2" points="773.44,-208.05 782.97,-203.42 772.63,-201.1 773.44,-208.05"/>
</g>
<!-- fail_comp4&#45;&gt;mnt_comp4 -->
<g id="edge21" class="edge">
<title>fail_comp4&#45;&gt;mnt_comp4</title>
<path fill="none" stroke="black" stroke-width="1.2" d="M719.67,-195.98C738.59,-183.66 763.86,-167.21 784.43,-153.81"/>
<polygon fill="black" stroke="black" stroke-width="1.2" points="786.46,-156.67 792.93,-148.28 782.64,-150.8 786.46,-156.67"/>
</g>
</g>
</svg>
