<?xml version="1.0" encoding="UTF-8" standalone="no"?>
<!DOCTYPE svg PUBLIC "-//W3C//DTD SVG 1.1//EN"
 "http://www.w3.org/Graphics/SVG/1.1/DTD/svg11.dtd">
<!-- Generated by graphviz version 2.50.0 (0)
 -->
<!-- Title: G Pages: 1 -->
<svg width="630pt" height="529pt"
 viewBox="0.00 0.00 630.00 529.00" xmlns="http://www.w3.org/2000/svg" xmlns:xlink="http://www.w3.org/1999/xlink">
<g id="graph0" class="graph" transform="scale(1 1) rotate(0) translate(4 525)">
<title>G</title>
<polygon fill="white" stroke="transparent" points="-4,4 -4,-525 626,-525 626,4 -4,4"/>
<text text-anchor="middle" x="311" y="-504.2" font-family="Times,serif" font-size="16.00">model=model4/varlingam_mixed.json [machine 32]</text>
<!-- volt -->
<g id="node1" class="node">
<title>volt</title>
<path fill="white" stroke="black" d="M61,-387C61,-387 31,-387 31,-387 25,-387 19,-381 19,-375 19,-375 19,-363 19,-363 19,-357 25,-351 31,-351 31,-351 61,-351 61,-351 67,-351 73,-357 73,-363 73,-363 73,-375 73,-375 73,-381 67,-387 61,-387"/>
<text text-anchor="middle" x="46" y="-365.3" font-family="Helvetica,sans-Serif" font-size="14.00">volt</text>
</g>
<!-- fail_comp1 -->
<g id="node14" class="node">
<title>fail_comp1</title>
<path fill="white" stroke="black" d="M208,-387C208,-387 140,-387 140,-387 134,-387 128,-381 128,-375 128,-375 128,-363 128,-363 128,-357 134,-351 140,-351 140,-351 208,-351 208,-351 214,-351 220,-357 220,-363 220,-363 220,-375 220,-375 220,-381 214,-387 208,-387"/>
<text text-anchor="middle" x="174" y="-365.3" font-family="Helvetica,sans-Serif" font-size="14.00">fail_comp1</text>
</g>
<!-- volt&#45;&gt;fail_comp1 -->
<g id="edge1" class="edge">
<title>volt&#45;&gt;fail_comp1</title>
<path fill="none" stroke="black" stroke-width="1.2" d="M73.11,-369C86.06,-369 102.22,-369 117.74,-369"/>
<polygon fill="black" stroke="black" stroke-width="1.2" points="117.81,-372.5 127.81,-369 117.81,-365.5 117.81,-372.5"/>
</g>
<!-- rotate -->
<g id="node2" class="node">
<title>rotate</title>
<path fill="white" stroke="black" d="M455.5,-113C455.5,-113 422.5,-113 422.5,-113 416.5,-113 410.5,-107 410.5,-101 410.5,-101 410.5,-89 410.5,-89 410.5,-83 416.5,-77 422.5,-77 422.5,-77 455.5,-77 455.5,-77 461.5,-77 467.5,-83 467.5,-89 467.5,-89 467.5,-101 467.5,-101 467.5,-107 461.5,-113 455.5,-113"/>
<text text-anchor="middle" x="439" y="-91.3" font-family="Helvetica,sans-Serif" font-size="14.00">rotate</text>
</g>
<!-- err_error4 -->
<g id="node8" class="node">
<title>err_error4</title>
<path fill="white" stroke="black" d="M603.5,-113C603.5,-113 542.5,-113 542.5,-113 536.5,-113 530.5,-107 530.5,-101 530.5,-101 530.5,-89 530.5,-89 530.5,-83 536.5,-77 542.5,-77 542.5,-77 603.5,-77 603.5,-77 609.5,-77 615.5,-83 615.5,-89 615.5,-89 615.5,-101 615.5,-101 615.5,-107 609.5,-113 603.5,-113"/>
<text text-anchor="middle" x="573" y="-91.3" font-family="Helvetica,sans-Serif" font-size="14.00">err_error4</text>
</g>
<!-- rotate&#45;&gt;err_error4 -->
<g id="edge3" class="edge">
<title>rotate&#45;&gt;err_error4</title>
<path fill="none" stroke="black" stroke-width="1.2" d="M467.67,-95C482.91,-95 502.32,-95 520.25,-95"/>
<polygon fill="black" stroke="black" stroke-width="1.2" points="520.31,-98.5 530.31,-95 520.31,-91.5 520.31,-98.5"/>
</g>
<!-- pressure -->
<g id="node3" class="node">
<title>pressure</title>
<path fill="white" stroke="black" d="M72.5,-441C72.5,-441 19.5,-441 19.5,-441 13.5,-441 7.5,-435 7.5,-429 7.5,-429 7.5,-417 7.5,-417 7.5,-411 13.5,-405 19.5,-405 19.5,-405 72.5,-405 72.5,-405 78.5,-405 84.5,-411 84.5,-417 84.5,-417 84.5,-429 84.5,-429 84.5,-435 78.5,-441 72.5,-441"/>
<text text-anchor="middle" x="46" y="-419.3" font-family="Helvetica,sans-Serif" font-size="14.00">pressure</text>
</g>
<!-- vibration -->
<g id="node4" class="node">
<title>vibration</title>
<path fill="white" stroke="black" d="M332,-113C332,-113 278,-113 278,-113 272,-113 266,-107 266,-101 266,-101 266,-89 266,-89 266,-83 272,-77 278,-77 278,-77 332,-77 332,-77 338,-77 344,-83 344,-89 344,-89 344,-101 344,-101 344,-107 338,-113 332,-113"/>
<text text-anchor="middle" x="305" y="-91.3" font-family="Helvetica,sans-Serif" font-size="14.00">vibration</text>
</g>
<!-- vibration&#45;&gt;rotate -->
<g id="edge2" class="edge">
<title>vibration&#45;&gt;rotate</title>
<path fill="none" stroke="black" stroke-width="1.2" d="M344.18,-95C361.71,-95 382.44,-95 399.96,-95"/>
<polygon fill="black" stroke="black" stroke-width="1.2" points="400.39,-98.5 410.39,-95 400.39,-91.5 400.39,-98.5"/>
</g>
<!-- err_error1 -->
<g id="node5" class="node">
<title>err_error1</title>
<path fill="white" stroke="black" d="M76.5,-495C76.5,-495 15.5,-495 15.5,-495 9.5,-495 3.5,-489 3.5,-483 3.5,-483 3.5,-471 3.5,-471 3.5,-465 9.5,-459 15.5,-459 15.5,-459 76.5,-459 76.5,-459 82.5,-459 88.5,-465 88.5,-471 88.5,-471 88.5,-483 88.5,-483 88.5,-489 82.5,-495 76.5,-495"/>
<text text-anchor="middle" x="46" y="-473.3" font-family="Helvetica,sans-Serif" font-size="14.00">err_error1</text>
</g>
<!-- err_error2 -->
<g id="node6" class="node">
<title>err_error2</title>
<path fill="white" stroke="black" d="M469.5,-36C469.5,-36 408.5,-36 408.5,-36 402.5,-36 396.5,-30 396.5,-24 396.5,-24 396.5,-12 396.5,-12 396.5,-6 402.5,0 408.5,0 408.5,0 469.5,0 469.5,0 475.5,0 481.5,-6 481.5,-12 481.5,-12 481.5,-24 481.5,-24 481.5,-30 475.5,-36 469.5,-36"/>
<text text-anchor="middle" x="439" y="-14.3" font-family="Helvetica,sans-Serif" font-size="14.00">err_error2</text>
</g>
<!-- err_error3 -->
<g id="node7" class="node">
<title>err_error3</title>
<path fill="white" stroke="black" d="M335.5,-59C335.5,-59 274.5,-59 274.5,-59 268.5,-59 262.5,-53 262.5,-47 262.5,-47 262.5,-35 262.5,-35 262.5,-29 268.5,-23 274.5,-23 274.5,-23 335.5,-23 335.5,-23 341.5,-23 347.5,-29 347.5,-35 347.5,-35 347.5,-47 347.5,-47 347.5,-53 341.5,-59 335.5,-59"/>
<text text-anchor="middle" x="305" y="-37.3" font-family="Helvetica,sans-Serif" font-size="14.00">err_error3</text>
</g>
<!-- err_error3&#45;&gt;err_error2 -->
<g id="edge6" class="edge">
<title>err_error3&#45;&gt;err_error2</title>
<path fill="none" stroke="black" stroke-width="1.2" d="M347.77,-33.72C359.92,-31.6 373.36,-29.26 386.06,-27.05"/>
<polygon fill="black" stroke="black" stroke-width="1.2" points="386.8,-30.47 396.05,-25.31 385.6,-23.58 386.8,-30.47"/>
</g>
<!-- err_error5 -->
<g id="node9" class="node">
<title>err_error5</title>
<path fill="white" stroke="black" d="M204.5,-59C204.5,-59 143.5,-59 143.5,-59 137.5,-59 131.5,-53 131.5,-47 131.5,-47 131.5,-35 131.5,-35 131.5,-29 137.5,-23 143.5,-23 143.5,-23 204.5,-23 204.5,-23 210.5,-23 216.5,-29 216.5,-35 216.5,-35 216.5,-47 216.5,-47 216.5,-53 210.5,-59 204.5,-59"/>
<text text-anchor="middle" x="174" y="-37.3" font-family="Helvetica,sans-Serif" font-size="14.00">err_error5</text>
</g>
<!-- err_error5&#45;&gt;vibration -->
<g id="edge4" class="edge">
<title>err_error5&#45;&gt;vibration</title>
<path fill="none" stroke="black" stroke-width="1.2" d="M216.53,-58.38C229.21,-63.69 243.26,-69.57 256.31,-75.04"/>
<polygon fill="black" stroke="black" stroke-width="1.2" points="255.04,-78.3 265.62,-78.93 257.74,-71.84 255.04,-78.3"/>
</g>
<!-- err_error5&#45;&gt;err_error2 -->
<g id="edge7" class="edge">
<title>err_error5&#45;&gt;err_error2</title>
<path fill="none" stroke="black" stroke-width="1.2" d="M216.81,-24.22C229.22,-20.02 242.98,-16.11 256,-14 299.3,-6.97 349.15,-8.74 385.72,-11.83"/>
<polygon fill="black" stroke="black" stroke-width="1.2" points="385.86,-15.36 396.14,-12.78 386.5,-8.39 385.86,-15.36"/>
</g>
<!-- err_error5&#45;&gt;err_error3 -->
<g id="edge8" class="edge">
<title>err_error5&#45;&gt;err_error3</title>
<path fill="none" stroke="black" stroke-width="1.2" d="M216.53,-41C227.81,-41 240.16,-41 251.95,-41"/>
<polygon fill="black" stroke="black" stroke-width="1.2" points="252.11,-44.5 262.11,-41 252.11,-37.5 252.11,-44.5"/>
</g>
<!-- mnt_comp1 -->
<g id="node10" class="node">
<title>mnt_comp1</title>
<path fill="white" stroke="black" d="M342,-373C342,-373 268,-373 268,-373 262,-373 256,-367 256,-361 256,-361 256,-349 256,-349 256,-343 262,-337 268,-337 268,-337 342,-337 342,-337 348,-337 354,-343 354,-349 354,-349 354,-361 354,-361 354,-367 348,-373 342,-373"/>
<text text-anchor="middle" x="305" y="-351.3" font-family="Helvetica,sans-Serif" font-size="14.00">mnt_comp1</text>
</g>
<!-- mnt_comp3 -->
<g id="node12" class="node">
<title>mnt_comp3</title>
<path fill="white" stroke="black" d="M610,-306C610,-306 536,-306 536,-306 530,-306 524,-300 524,-294 524,-294 524,-282 524,-282 524,-276 530,-270 536,-270 536,-270 610,-270 610,-270 616,-270 622,-276 622,-282 622,-282 622,-294 622,-294 622,-300 616,-306 610,-306"/>
<text text-anchor="middle" x="573" y="-284.3" font-family="Helvetica,sans-Serif" font-size="14.00">mnt_comp3</text>
</g>
<!-- mnt_comp1&#45;&gt;mnt_comp3 -->
<g id="edge9" class="edge">
<title>mnt_comp1&#45;&gt;mnt_comp3</title>
<path fill="none" stroke="black" stroke-width="1.2" d="M354.18,-349.48C391.25,-344.53 443.5,-336.01 488,-323 499.97,-319.5 512.53,-314.84 524.2,-310.05"/>
<polygon fill="black" stroke="black" stroke-width="1.2" points="525.89,-313.14 533.75,-306.03 523.18,-306.69 525.89,-313.14"/>
</g>
<!-- mnt_comp2 -->
<g id="node11" class="node">
<title>mnt_comp2</title>
<path fill="white" stroke="black" d="M476,-239C476,-239 402,-239 402,-239 396,-239 390,-233 390,-227 390,-227 390,-215 390,-215 390,-209 396,-203 402,-203 402,-203 476,-203 476,-203 482,-203 488,-209 488,-215 488,-215 488,-227 488,-227 488,-233 482,-239 476,-239"/>
<text text-anchor="middle" x="439" y="-217.3" font-family="Helvetica,sans-Serif" font-size="14.00">mnt_comp2</text>
</g>
<!-- mnt_comp2&#45;&gt;mnt_comp3 -->
<g id="edge13" class="edge">
<title>mnt_comp2&#45;&gt;mnt_comp3</title>
<path fill="none" stroke="black" stroke-width="1.2" d="M475.72,-239.13C491.57,-247.18 510.39,-256.73 527.17,-265.25"/>
<polygon fill="black" stroke="black" stroke-width="1.2" points="525.75,-268.45 536.25,-269.85 528.92,-262.21 525.75,-268.45"/>
</g>
<!-- mnt_comp4 -->
<g id="node13" class="node">
<title>mnt_comp4</title>
<path fill="white" stroke="black" d="M342,-281C342,-281 268,-281 268,-281 262,-281 256,-275 256,-269 256,-269 256,-257 256,-257 256,-251 262,-245 268,-245 268,-245 342,-245 342,-245 348,-245 354,-251 354,-257 354,-257 354,-269 354,-269 354,-275 348,-281 342,-281"/>
<text text-anchor="middle" x="305" y="-259.3" font-family="Helvetica,sans-Serif" font-size="14.00">mnt_comp4</text>
</g>
<!-- mnt_comp4&#45;&gt;mnt_comp2 -->
<g id="edge14" class="edge">
<title>mnt_comp4&#45;&gt;mnt_comp2</title>
<path fill="none" stroke="black" stroke-width="1.2" d="M354.03,-247.72C362.49,-245.03 371.38,-242.2 380.08,-239.43"/>
<polygon fill="black" stroke="black" stroke-width="1.2" points="381.32,-242.71 389.79,-236.34 379.2,-236.04 381.32,-242.71"/>
</g>
<!-- mnt_comp4&#45;&gt;mnt_comp3 -->
<g id="edge17" class="edge">
<title>mnt_comp4&#45;&gt;mnt_comp3</title>
<path fill="none" stroke="black" stroke-width="1.2" d="M354.17,-267.53C398.94,-271.74 465.73,-278.01 513.54,-282.51"/>
<polygon fill="black" stroke="black" stroke-width="1.2" points="513.46,-286.01 523.74,-283.46 514.11,-279.04 513.46,-286.01"/>
</g>
<!-- fail_comp1&#45;&gt;mnt_comp1 -->
<g id="edge10" class="edge">
<title>fail_comp1&#45;&gt;mnt_comp1</title>
<path fill="none" stroke="black" stroke-width="1.2" d="M220.12,-364.1C228.37,-363.21 237.09,-362.26 245.66,-361.33"/>
<polygon fill="black" stroke="black" stroke-width="1.2" points="246.05,-364.81 255.62,-360.25 245.3,-357.85 246.05,-364.81"/>
</g>
<!-- fail_comp1&#45;&gt;mnt_comp3 -->
<g id="edge18" class="edge">
<title>fail_comp1&#45;&gt;mnt_comp3</title>
<path fill="none" stroke="black" stroke-width="1.2" d="M220.26,-377.57C231.86,-379.4 244.36,-381.07 256,-382 359.95,-390.29 393.39,-390.84 488,-347 507.51,-337.96 527.29,-324.34 542.75,-312.46"/>
<polygon fill="black" stroke="black" stroke-width="1.2" points="545.17,-315.01 550.86,-306.08 540.84,-309.5 545.17,-315.01"/>
</g>
<!-- fail_comp2 -->
<g id="node15" class="node">
<title>fail_comp2</title>
<path fill="white" stroke="black" d="M80,-232C80,-232 12,-232 12,-232 6,-232 0,-226 0,-220 0,-220 0,-208 0,-208 0,-202 6,-196 12,-196 12,-196 80,-196 80,-196 86,-196 92,-202 92,-208 92,-208 92,-220 92,-220 92,-226 86,-232 80,-232"/>
<text text-anchor="middle" x="46" y="-210.3" font-family="Helvetica,sans-Serif" font-size="14.00">fail_comp2</text>
</g>
<!-- fail_comp2&#45;&gt;mnt_comp1 -->
<g id="edge11" class="edge">
<title>fail_comp2&#45;&gt;mnt_comp1</title>
<path fill="none" stroke="black" stroke-width="1.2" d="M68.03,-232.27C83.84,-245.46 106.4,-263.12 128,-276 165.73,-298.5 211.01,-318.68 246.18,-333.01"/>
<polygon fill="black" stroke="black" stroke-width="1.2" points="245.24,-336.41 255.82,-336.9 247.86,-329.91 245.24,-336.41"/>
</g>
<!-- fail_comp2&#45;&gt;mnt_comp2 -->
<g id="edge15" class="edge">
<title>fail_comp2&#45;&gt;mnt_comp2</title>
<path fill="none" stroke="black" stroke-width="1.2" d="M92.23,-214.81C163.32,-216.08 301.15,-218.55 379.62,-219.95"/>
<polygon fill="black" stroke="black" stroke-width="1.2" points="379.76,-223.46 389.82,-220.14 379.88,-216.46 379.76,-223.46"/>
</g>
<!-- fail_comp2&#45;&gt;mnt_comp3 -->
<g id="edge19" class="edge">
<title>fail_comp2&#45;&gt;mnt_comp3</title>
<path fill="none" stroke="black" stroke-width="1.2" d="M92.01,-199.22C174.66,-174.77 354.38,-134.21 488,-194 518.38,-207.59 542.3,-238.2 556.72,-260.81"/>
<polygon fill="black" stroke="black" stroke-width="1.2" points="553.92,-262.95 562.13,-269.64 559.89,-259.29 553.92,-262.95"/>
</g>
<!-- fail_comp4 -->
<g id="node16" class="node">
<title>fail_comp4</title>
<path fill="white" stroke="black" d="M208,-267C208,-267 140,-267 140,-267 134,-267 128,-261 128,-255 128,-255 128,-243 128,-243 128,-237 134,-231 140,-231 140,-231 208,-231 208,-231 214,-231 220,-237 220,-243 220,-243 220,-255 220,-255 220,-261 214,-267 208,-267"/>
<text text-anchor="middle" x="174" y="-245.3" font-family="Helvetica,sans-Serif" font-size="14.00">fail_comp4</text>
</g>
<!-- fail_comp2&#45;&gt;fail_comp4 -->
<g id="edge22" class="edge">
<title>fail_comp2&#45;&gt;fail_comp4</title>
<path fill="none" stroke="black" stroke-width="1.2" d="M92.13,-226.54C100.55,-228.87 109.42,-231.34 118.09,-233.75"/>
<polygon fill="black" stroke="black" stroke-width="1.2" points="117.19,-237.13 127.76,-236.43 119.06,-230.38 117.19,-237.13"/>
</g>
<!-- fail_comp4&#45;&gt;vibration -->
<g id="edge5" class="edge">
<title>fail_comp4&#45;&gt;vibration</title>
<path fill="none" stroke="black" stroke-width="1.2" d="M190.3,-230.73C213.1,-203.52 256.06,-152.23 282.15,-121.08"/>
<polygon fill="black" stroke="black" stroke-width="1.2" points="284.98,-123.16 288.72,-113.25 279.61,-118.67 284.98,-123.16"/>
</g>
<!-- fail_comp4&#45;&gt;mnt_comp1 -->
<g id="edge12" class="edge">
<title>fail_comp4&#45;&gt;mnt_comp1</title>
<path fill="none" stroke="black" stroke-width="1.2" d="M193.27,-267.19C209.24,-282.71 233.35,-305.27 256,-323 259.51,-325.75 263.25,-328.51 267.04,-331.19"/>
<polygon fill="black" stroke="black" stroke-width="1.2" points="265.11,-334.11 275.32,-336.92 269.08,-328.35 265.11,-334.11"/>
</g>
<!-- fail_comp4&#45;&gt;mnt_comp2 -->
<g id="edge16" class="edge">
<title>fail_comp4&#45;&gt;mnt_comp2</title>
<path fill="none" stroke="black" stroke-width="1.2" d="M220.32,-241.1C231.93,-239.25 244.41,-237.41 256,-236 297.25,-231 343.97,-227.19 379.74,-224.66"/>
<polygon fill="black" stroke="black" stroke-width="1.2" points="380.26,-228.13 390,-223.94 379.78,-221.15 380.26,-228.13"/>
</g>
<!-- fail_comp4&#45;&gt;mnt_comp3 -->
<g id="edge20" class="edge">
<title>fail_comp4&#45;&gt;mnt_comp3</title>
<path fill="none" stroke="black" stroke-width="1.2" d="M210.34,-267C231.85,-277.94 255.34,-289.84 256,-290 343.83,-310.96 449.34,-304.14 513.5,-296.6"/>
<polygon fill="black" stroke="black" stroke-width="1.2" points="514.31,-300.03 523.81,-295.34 513.46,-293.08 514.31,-300.03"/>
</g>
<!-- fail_comp4&#45;&gt;mnt_comp4 -->
<g id="edge21" class="edge">
<title>fail_comp4&#45;&gt;mnt_comp4</title>
<path fill="none" stroke="black" stroke-width="1.2" d="M220.12,-253.9C228.37,-254.79 237.09,-255.74 245.66,-256.67"/>
<polygon fill="black" stroke="black" stroke-width="1.2" points="245.3,-260.15 255.62,-257.75 246.05,-253.19 245.3,-260.15"/>
</g>
</g>
</svg>
