<?xml version="1.0" encoding="UTF-8" standalone="no"?>
<!DOCTYPE svg PUBLIC "-//W3C//DTD SVG 1.1//EN"
 "http://www.w3.org/Graphics/SVG/1.1/DTD/svg11.dtd">
<!-- Generated by graphviz version 2.50.0 (0)
 -->
<!-- Title: G Pages: 1 -->
<svg width="436pt" height="610pt"
 viewBox="0.00 0.00 436.00 610.00" xmlns="http://www.w3.org/2000/svg" xmlns:xlink="http://www.w3.org/1999/xlink">
<g id="graph0" class="graph" transform="scale(1 1) rotate(0) translate(4 606)">
<title>G</title>
<polygon fill="white" stroke="transparent" points="-4,4 -4,-606 432,-606 432,4 -4,4"/>
<text text-anchor="middle" x="214" y="-585.2" font-family="Times,serif" font-size="16.00">model=model3/varlingam_mixed.json [machine 8]</text>
<!-- volt -->
<g id="node1" class="node">
<title>volt</title>
<path fill="white" stroke="black" d="M101.5,-36C101.5,-36 71.5,-36 71.5,-36 65.5,-36 59.5,-30 59.5,-24 59.5,-24 59.5,-12 59.5,-12 59.5,-6 65.5,0 71.5,0 71.5,0 101.5,0 101.5,0 107.5,0 113.5,-6 113.5,-12 113.5,-12 113.5,-24 113.5,-24 113.5,-30 107.5,-36 101.5,-36"/>
<text text-anchor="middle" x="86.5" y="-14.3" font-family="Helvetica,sans-Serif" font-size="14.00">volt</text>
</g>
<!-- rotate -->
<g id="node2" class="node">
<title>rotate</title>
<path fill="white" stroke="black" d="M103,-90C103,-90 70,-90 70,-90 64,-90 58,-84 58,-78 58,-78 58,-66 58,-66 58,-60 64,-54 70,-54 70,-54 103,-54 103,-54 109,-54 115,-60 115,-66 115,-66 115,-78 115,-78 115,-84 109,-90 103,-90"/>
<text text-anchor="middle" x="86.5" y="-68.3" font-family="Helvetica,sans-Serif" font-size="14.00">rotate</text>
</g>
<!-- pressure -->
<g id="node3" class="node">
<title>pressure</title>
<path fill="white" stroke="black" d="M113,-144C113,-144 60,-144 60,-144 54,-144 48,-138 48,-132 48,-132 48,-120 48,-120 48,-114 54,-108 60,-108 60,-108 113,-108 113,-108 119,-108 125,-114 125,-120 125,-120 125,-132 125,-132 125,-138 119,-144 113,-144"/>
<text text-anchor="middle" x="86.5" y="-122.3" font-family="Helvetica,sans-Serif" font-size="14.00">pressure</text>
</g>
<!-- vibration -->
<g id="node4" class="node">
<title>vibration</title>
<path fill="white" stroke="black" d="M247.5,-225C247.5,-225 193.5,-225 193.5,-225 187.5,-225 181.5,-219 181.5,-213 181.5,-213 181.5,-201 181.5,-201 181.5,-195 187.5,-189 193.5,-189 193.5,-189 247.5,-189 247.5,-189 253.5,-189 259.5,-195 259.5,-201 259.5,-201 259.5,-213 259.5,-213 259.5,-219 253.5,-225 247.5,-225"/>
<text text-anchor="middle" x="220.5" y="-203.3" font-family="Helvetica,sans-Serif" font-size="14.00">vibration</text>
</g>
<!-- err_error1 -->
<g id="node5" class="node">
<title>err_error1</title>
<path fill="white" stroke="black" d="M117,-252C117,-252 56,-252 56,-252 50,-252 44,-246 44,-240 44,-240 44,-228 44,-228 44,-222 50,-216 56,-216 56,-216 117,-216 117,-216 123,-216 129,-222 129,-228 129,-228 129,-240 129,-240 129,-246 123,-252 117,-252"/>
<text text-anchor="middle" x="86.5" y="-230.3" font-family="Helvetica,sans-Serif" font-size="14.00">err_error1</text>
</g>
<!-- err_error2 -->
<g id="node6" class="node">
<title>err_error2</title>
<path fill="white" stroke="black" d="M378.5,-360C378.5,-360 317.5,-360 317.5,-360 311.5,-360 305.5,-354 305.5,-348 305.5,-348 305.5,-336 305.5,-336 305.5,-330 311.5,-324 317.5,-324 317.5,-324 378.5,-324 378.5,-324 384.5,-324 390.5,-330 390.5,-336 390.5,-336 390.5,-348 390.5,-348 390.5,-354 384.5,-360 378.5,-360"/>
<text text-anchor="middle" x="348" y="-338.3" font-family="Helvetica,sans-Serif" font-size="14.00">err_error2</text>
</g>
<!-- err_error3 -->
<g id="node7" class="node">
<title>err_error3</title>
<path fill="white" stroke="black" d="M117,-414C117,-414 56,-414 56,-414 50,-414 44,-408 44,-402 44,-402 44,-390 44,-390 44,-384 50,-378 56,-378 56,-378 117,-378 117,-378 123,-378 129,-384 129,-390 129,-390 129,-402 129,-402 129,-408 123,-414 117,-414"/>
<text text-anchor="middle" x="86.5" y="-392.3" font-family="Helvetica,sans-Serif" font-size="14.00">err_error3</text>
</g>
<!-- err_error3&#45;&gt;err_error2 -->
<g id="edge2" class="edge">
<title>err_error3&#45;&gt;err_error2</title>
<path fill="none" stroke="black" stroke-width="1.2" d="M129.13,-392.08C166.3,-388.04 222.04,-380.68 269.5,-369 278.04,-366.9 286.98,-364.24 295.61,-361.41"/>
<polygon fill="black" stroke="black" stroke-width="1.2" points="296.85,-364.69 305.2,-358.17 294.61,-358.06 296.85,-364.69"/>
</g>
<!-- mnt_comp2 -->
<g id="node11" class="node">
<title>mnt_comp2</title>
<path fill="white" stroke="black" d="M257.5,-360C257.5,-360 183.5,-360 183.5,-360 177.5,-360 171.5,-354 171.5,-348 171.5,-348 171.5,-336 171.5,-336 171.5,-330 177.5,-324 183.5,-324 183.5,-324 257.5,-324 257.5,-324 263.5,-324 269.5,-330 269.5,-336 269.5,-336 269.5,-348 269.5,-348 269.5,-354 263.5,-360 257.5,-360"/>
<text text-anchor="middle" x="220.5" y="-338.3" font-family="Helvetica,sans-Serif" font-size="14.00">mnt_comp2</text>
</g>
<!-- err_error3&#45;&gt;mnt_comp2 -->
<g id="edge5" class="edge">
<title>err_error3&#45;&gt;mnt_comp2</title>
<path fill="none" stroke="black" stroke-width="1.2" d="M129.27,-378.91C140.83,-374.18 153.54,-368.98 165.69,-364.01"/>
<polygon fill="black" stroke="black" stroke-width="1.2" points="167.34,-367.12 175.27,-360.09 164.69,-360.64 167.34,-367.12"/>
</g>
<!-- err_error4 -->
<g id="node8" class="node">
<title>err_error4</title>
<path fill="white" stroke="black" d="M117,-468C117,-468 56,-468 56,-468 50,-468 44,-462 44,-456 44,-456 44,-444 44,-444 44,-438 50,-432 56,-432 56,-432 117,-432 117,-432 123,-432 129,-438 129,-444 129,-444 129,-456 129,-456 129,-462 123,-468 117,-468"/>
<text text-anchor="middle" x="86.5" y="-446.3" font-family="Helvetica,sans-Serif" font-size="14.00">err_error4</text>
</g>
<!-- err_error5 -->
<g id="node9" class="node">
<title>err_error5</title>
<path fill="white" stroke="black" d="M117,-522C117,-522 56,-522 56,-522 50,-522 44,-516 44,-510 44,-510 44,-498 44,-498 44,-492 50,-486 56,-486 56,-486 117,-486 117,-486 123,-486 129,-492 129,-498 129,-498 129,-510 129,-510 129,-516 123,-522 117,-522"/>
<text text-anchor="middle" x="86.5" y="-500.3" font-family="Helvetica,sans-Serif" font-size="14.00">err_error5</text>
</g>
<!-- mnt_comp1 -->
<g id="node10" class="node">
<title>mnt_comp1</title>
<path fill="white" stroke="black" d="M123.5,-576C123.5,-576 49.5,-576 49.5,-576 43.5,-576 37.5,-570 37.5,-564 37.5,-564 37.5,-552 37.5,-552 37.5,-546 43.5,-540 49.5,-540 49.5,-540 123.5,-540 123.5,-540 129.5,-540 135.5,-546 135.5,-552 135.5,-552 135.5,-564 135.5,-564 135.5,-570 129.5,-576 123.5,-576"/>
<text text-anchor="middle" x="86.5" y="-554.3" font-family="Helvetica,sans-Serif" font-size="14.00">mnt_comp1</text>
</g>
<!-- mnt_comp2&#45;&gt;err_error2 -->
<g id="edge3" class="edge">
<title>mnt_comp2&#45;&gt;err_error2</title>
<path fill="none" stroke="black" stroke-width="1.2" d="M269.66,-342C278.02,-342 286.74,-342 295.18,-342"/>
<polygon fill="black" stroke="black" stroke-width="1.2" points="295.31,-345.5 305.31,-342 295.31,-338.5 295.31,-345.5"/>
</g>
<!-- mnt_comp3 -->
<g id="node12" class="node">
<title>mnt_comp3</title>
<path fill="white" stroke="black" d="M123.5,-306C123.5,-306 49.5,-306 49.5,-306 43.5,-306 37.5,-300 37.5,-294 37.5,-294 37.5,-282 37.5,-282 37.5,-276 43.5,-270 49.5,-270 49.5,-270 123.5,-270 123.5,-270 129.5,-270 135.5,-276 135.5,-282 135.5,-282 135.5,-294 135.5,-294 135.5,-300 129.5,-306 123.5,-306"/>
<text text-anchor="middle" x="86.5" y="-284.3" font-family="Helvetica,sans-Serif" font-size="14.00">mnt_comp3</text>
</g>
<!-- mnt_comp3&#45;&gt;err_error2 -->
<g id="edge4" class="edge">
<title>mnt_comp3&#45;&gt;err_error2</title>
<path fill="none" stroke="black" stroke-width="1.2" d="M135.88,-292.67C172.83,-296.84 224.83,-304.01 269.5,-315 278.04,-317.1 286.98,-319.76 295.61,-322.59"/>
<polygon fill="black" stroke="black" stroke-width="1.2" points="294.61,-325.94 305.2,-325.83 296.85,-319.31 294.61,-325.94"/>
</g>
<!-- mnt_comp3&#45;&gt;mnt_comp2 -->
<g id="edge6" class="edge">
<title>mnt_comp3&#45;&gt;mnt_comp2</title>
<path fill="none" stroke="black" stroke-width="1.2" d="M131.82,-306.13C142.7,-310.58 154.47,-315.4 165.75,-320.01"/>
<polygon fill="black" stroke="black" stroke-width="1.2" points="164.49,-323.28 175.07,-323.82 167.14,-316.8 164.49,-323.28"/>
</g>
<!-- mnt_comp4 -->
<g id="node13" class="node">
<title>mnt_comp4</title>
<path fill="white" stroke="black" d="M257.5,-171C257.5,-171 183.5,-171 183.5,-171 177.5,-171 171.5,-165 171.5,-159 171.5,-159 171.5,-147 171.5,-147 171.5,-141 177.5,-135 183.5,-135 183.5,-135 257.5,-135 257.5,-135 263.5,-135 269.5,-141 269.5,-147 269.5,-147 269.5,-159 269.5,-159 269.5,-165 263.5,-171 257.5,-171"/>
<text text-anchor="middle" x="220.5" y="-149.3" font-family="Helvetica,sans-Serif" font-size="14.00">mnt_comp4</text>
</g>
<!-- fail_comp2 -->
<g id="node14" class="node">
<title>fail_comp2</title>
<path fill="white" stroke="black" d="M120.5,-360C120.5,-360 52.5,-360 52.5,-360 46.5,-360 40.5,-354 40.5,-348 40.5,-348 40.5,-336 40.5,-336 40.5,-330 46.5,-324 52.5,-324 52.5,-324 120.5,-324 120.5,-324 126.5,-324 132.5,-330 132.5,-336 132.5,-336 132.5,-348 132.5,-348 132.5,-354 126.5,-360 120.5,-360"/>
<text text-anchor="middle" x="86.5" y="-338.3" font-family="Helvetica,sans-Serif" font-size="14.00">fail_comp2</text>
</g>
<!-- fail_comp2&#45;&gt;mnt_comp2 -->
<g id="edge7" class="edge">
<title>fail_comp2&#45;&gt;mnt_comp2</title>
<path fill="none" stroke="black" stroke-width="1.2" d="M132.56,-342C141.77,-342 151.59,-342 161.2,-342"/>
<polygon fill="black" stroke="black" stroke-width="1.2" points="161.49,-345.5 171.49,-342 161.49,-338.5 161.49,-345.5"/>
</g>
<!-- fail_comp4 -->
<g id="node15" class="node">
<title>fail_comp4</title>
<path fill="white" stroke="black" d="M120.5,-198C120.5,-198 52.5,-198 52.5,-198 46.5,-198 40.5,-192 40.5,-186 40.5,-186 40.5,-174 40.5,-174 40.5,-168 46.5,-162 52.5,-162 52.5,-162 120.5,-162 120.5,-162 126.5,-162 132.5,-168 132.5,-174 132.5,-174 132.5,-186 132.5,-186 132.5,-192 126.5,-198 120.5,-198"/>
<text text-anchor="middle" x="86.5" y="-176.3" font-family="Helvetica,sans-Serif" font-size="14.00">fail_comp4</text>
</g>
<!-- fail_comp4&#45;&gt;vibration -->
<g id="edge1" class="edge">
<title>fail_comp4&#45;&gt;vibration</title>
<path fill="none" stroke="black" stroke-width="1.2" d="M132.56,-189.22C145.05,-191.77 158.66,-194.56 171.33,-197.15"/>
<polygon fill="black" stroke="black" stroke-width="1.2" points="170.74,-200.6 181.24,-199.17 172.14,-193.74 170.74,-200.6"/>
</g>
<!-- fail_comp4&#45;&gt;mnt_comp4 -->
<g id="edge8" class="edge">
<title>fail_comp4&#45;&gt;mnt_comp4</title>
<path fill="none" stroke="black" stroke-width="1.2" d="M132.56,-170.78C141.87,-168.88 151.8,-166.85 161.5,-164.86"/>
<polygon fill="black" stroke="black" stroke-width="1.2" points="162.39,-168.25 171.49,-162.82 160.99,-161.4 162.39,-168.25"/>
</g>
</g>
</svg>
