<?xml version="1.0" encoding="UTF-8" standalone="no"?>
<!DOCTYPE svg PUBLIC "-//W3C//DTD SVG 1.1//EN"
 "http://www.w3.org/Graphics/SVG/1.1/DTD/svg11.dtd">
<!-- Generated by graphviz version 2.50.0 (0)
 -->
<!-- Title: G Pages: 1 -->
<svg width="623pt" height="478pt"
 viewBox="0.00 0.00 623.00 478.00" xmlns="http://www.w3.org/2000/svg" xmlns:xlink="http://www.w3.org/1999/xlink">
<g id="graph0" class="graph" transform="scale(1 1) rotate(0) translate(4 474)">
<title>G</title>
<polygon fill="white" stroke="transparent" points="-4,4 -4,-474 619,-474 619,4 -4,4"/>
<text text-anchor="middle" x="307.5" y="-453.2" font-family="Times,serif" font-size="16.00">model=model4/varlingam_mixed.json [machine 62]</text>
<!-- volt -->
<g id="node1" class="node">
<title>volt</title>
<path fill="white" stroke="black" d="M57.5,-36C57.5,-36 27.5,-36 27.5,-36 21.5,-36 15.5,-30 15.5,-24 15.5,-24 15.5,-12 15.5,-12 15.5,-6 21.5,0 27.5,0 27.5,0 57.5,0 57.5,0 63.5,0 69.5,-6 69.5,-12 69.5,-12 69.5,-24 69.5,-24 69.5,-30 63.5,-36 57.5,-36"/>
<text text-anchor="middle" x="42.5" y="-14.3" font-family="Helvetica,sans-Serif" font-size="14.00">volt</text>
</g>
<!-- rotate -->
<g id="node2" class="node">
<title>rotate</title>
<path fill="white" stroke="black" d="M59,-174C59,-174 26,-174 26,-174 20,-174 14,-168 14,-162 14,-162 14,-150 14,-150 14,-144 20,-138 26,-138 26,-138 59,-138 59,-138 65,-138 71,-144 71,-150 71,-150 71,-162 71,-162 71,-168 65,-174 59,-174"/>
<text text-anchor="middle" x="42.5" y="-152.3" font-family="Helvetica,sans-Serif" font-size="14.00">rotate</text>
</g>
<!-- fail_comp2 -->
<g id="node15" class="node">
<title>fail_comp2</title>
<path fill="white" stroke="black" d="M201,-174C201,-174 133,-174 133,-174 127,-174 121,-168 121,-162 121,-162 121,-150 121,-150 121,-144 127,-138 133,-138 133,-138 201,-138 201,-138 207,-138 213,-144 213,-150 213,-150 213,-162 213,-162 213,-168 207,-174 201,-174"/>
<text text-anchor="middle" x="167" y="-152.3" font-family="Helvetica,sans-Serif" font-size="14.00">fail_comp2</text>
</g>
<!-- rotate&#45;&gt;fail_comp2 -->
<g id="edge1" class="edge">
<title>rotate&#45;&gt;fail_comp2</title>
<path fill="none" stroke="black" stroke-width="1.2" d="M71.3,-156C82.89,-156 96.78,-156 110.31,-156"/>
<polygon fill="black" stroke="black" stroke-width="1.2" points="110.54,-159.5 120.54,-156 110.54,-152.5 110.54,-159.5"/>
</g>
<!-- pressure -->
<g id="node3" class="node">
<title>pressure</title>
<path fill="white" stroke="black" d="M69,-228C69,-228 16,-228 16,-228 10,-228 4,-222 4,-216 4,-216 4,-204 4,-204 4,-198 10,-192 16,-192 16,-192 69,-192 69,-192 75,-192 81,-198 81,-204 81,-204 81,-216 81,-216 81,-222 75,-228 69,-228"/>
<text text-anchor="middle" x="42.5" y="-206.3" font-family="Helvetica,sans-Serif" font-size="14.00">pressure</text>
</g>
<!-- vibration -->
<g id="node4" class="node">
<title>vibration</title>
<path fill="white" stroke="black" d="M69.5,-90C69.5,-90 15.5,-90 15.5,-90 9.5,-90 3.5,-84 3.5,-78 3.5,-78 3.5,-66 3.5,-66 3.5,-60 9.5,-54 15.5,-54 15.5,-54 69.5,-54 69.5,-54 75.5,-54 81.5,-60 81.5,-66 81.5,-66 81.5,-78 81.5,-78 81.5,-84 75.5,-90 69.5,-90"/>
<text text-anchor="middle" x="42.5" y="-68.3" font-family="Helvetica,sans-Serif" font-size="14.00">vibration</text>
</g>
<!-- fail_comp4 -->
<g id="node16" class="node">
<title>fail_comp4</title>
<path fill="white" stroke="black" d="M201,-90C201,-90 133,-90 133,-90 127,-90 121,-84 121,-78 121,-78 121,-66 121,-66 121,-60 127,-54 133,-54 133,-54 201,-54 201,-54 207,-54 213,-60 213,-66 213,-66 213,-78 213,-78 213,-84 207,-90 201,-90"/>
<text text-anchor="middle" x="167" y="-68.3" font-family="Helvetica,sans-Serif" font-size="14.00">fail_comp4</text>
</g>
<!-- vibration&#45;&gt;fail_comp4 -->
<g id="edge2" class="edge">
<title>vibration&#45;&gt;fail_comp4</title>
<path fill="none" stroke="black" stroke-width="1.2" d="M81.59,-72C90.76,-72 100.75,-72 110.54,-72"/>
<polygon fill="black" stroke="black" stroke-width="1.2" points="110.62,-75.5 120.62,-72 110.62,-68.5 110.62,-75.5"/>
</g>
<!-- err_error1 -->
<g id="node5" class="node">
<title>err_error1</title>
<path fill="white" stroke="black" d="M73,-282C73,-282 12,-282 12,-282 6,-282 0,-276 0,-270 0,-270 0,-258 0,-258 0,-252 6,-246 12,-246 12,-246 73,-246 73,-246 79,-246 85,-252 85,-258 85,-258 85,-270 85,-270 85,-276 79,-282 73,-282"/>
<text text-anchor="middle" x="42.5" y="-260.3" font-family="Helvetica,sans-Serif" font-size="14.00">err_error1</text>
</g>
<!-- err_error2 -->
<g id="node6" class="node">
<title>err_error2</title>
<path fill="white" stroke="black" d="M73,-336C73,-336 12,-336 12,-336 6,-336 0,-330 0,-324 0,-324 0,-312 0,-312 0,-306 6,-300 12,-300 12,-300 73,-300 73,-300 79,-300 85,-306 85,-312 85,-312 85,-324 85,-324 85,-330 79,-336 73,-336"/>
<text text-anchor="middle" x="42.5" y="-314.3" font-family="Helvetica,sans-Serif" font-size="14.00">err_error2</text>
</g>
<!-- err_error3 -->
<g id="node7" class="node">
<title>err_error3</title>
<path fill="white" stroke="black" d="M197.5,-336C197.5,-336 136.5,-336 136.5,-336 130.5,-336 124.5,-330 124.5,-324 124.5,-324 124.5,-312 124.5,-312 124.5,-306 130.5,-300 136.5,-300 136.5,-300 197.5,-300 197.5,-300 203.5,-300 209.5,-306 209.5,-312 209.5,-312 209.5,-324 209.5,-324 209.5,-330 203.5,-336 197.5,-336"/>
<text text-anchor="middle" x="167" y="-314.3" font-family="Helvetica,sans-Serif" font-size="14.00">err_error3</text>
</g>
<!-- err_error2&#45;&gt;err_error3 -->
<g id="edge3" class="edge">
<title>err_error2&#45;&gt;err_error3</title>
<path fill="none" stroke="black" stroke-width="1.2" d="M85.31,-318C94.58,-318 104.5,-318 114.11,-318"/>
<polygon fill="black" stroke="black" stroke-width="1.2" points="114.37,-321.5 124.37,-318 114.37,-314.5 114.37,-321.5"/>
</g>
<!-- err_error4 -->
<g id="node8" class="node">
<title>err_error4</title>
<path fill="white" stroke="black" d="M73,-390C73,-390 12,-390 12,-390 6,-390 0,-384 0,-378 0,-378 0,-366 0,-366 0,-360 6,-354 12,-354 12,-354 73,-354 73,-354 79,-354 85,-360 85,-366 85,-366 85,-378 85,-378 85,-384 79,-390 73,-390"/>
<text text-anchor="middle" x="42.5" y="-368.3" font-family="Helvetica,sans-Serif" font-size="14.00">err_error4</text>
</g>
<!-- err_error5 -->
<g id="node9" class="node">
<title>err_error5</title>
<path fill="white" stroke="black" d="M73,-444C73,-444 12,-444 12,-444 6,-444 0,-438 0,-432 0,-432 0,-420 0,-420 0,-414 6,-408 12,-408 12,-408 73,-408 73,-408 79,-408 85,-414 85,-420 85,-420 85,-432 85,-432 85,-438 79,-444 73,-444"/>
<text text-anchor="middle" x="42.5" y="-422.3" font-family="Helvetica,sans-Serif" font-size="14.00">err_error5</text>
</g>
<!-- mnt_comp1 -->
<g id="node10" class="node">
<title>mnt_comp1</title>
<path fill="white" stroke="black" d="M335,-304C335,-304 261,-304 261,-304 255,-304 249,-298 249,-292 249,-292 249,-280 249,-280 249,-274 255,-268 261,-268 261,-268 335,-268 335,-268 341,-268 347,-274 347,-280 347,-280 347,-292 347,-292 347,-298 341,-304 335,-304"/>
<text text-anchor="middle" x="298" y="-282.3" font-family="Helvetica,sans-Serif" font-size="14.00">mnt_comp1</text>
</g>
<!-- mnt_comp2 -->
<g id="node11" class="node">
<title>mnt_comp2</title>
<path fill="white" stroke="black" d="M603,-197C603,-197 529,-197 529,-197 523,-197 517,-191 517,-185 517,-185 517,-173 517,-173 517,-167 523,-161 529,-161 529,-161 603,-161 603,-161 609,-161 615,-167 615,-173 615,-173 615,-185 615,-185 615,-191 609,-197 603,-197"/>
<text text-anchor="middle" x="566" y="-175.3" font-family="Helvetica,sans-Serif" font-size="14.00">mnt_comp2</text>
</g>
<!-- mnt_comp1&#45;&gt;mnt_comp2 -->
<g id="edge4" class="edge">
<title>mnt_comp1&#45;&gt;mnt_comp2</title>
<path fill="none" stroke="black" stroke-width="1.2" d="M347.26,-274.19C384.6,-264.27 437.17,-248.59 481,-229 497.55,-221.6 514.92,-211.67 529.54,-202.61"/>
<polygon fill="black" stroke="black" stroke-width="1.2" points="531.66,-205.41 538.25,-197.11 527.93,-199.49 531.66,-205.41"/>
</g>
<!-- mnt_comp3 -->
<g id="node12" class="node">
<title>mnt_comp3</title>
<path fill="white" stroke="black" d="M469,-220C469,-220 395,-220 395,-220 389,-220 383,-214 383,-208 383,-208 383,-196 383,-196 383,-190 389,-184 395,-184 395,-184 469,-184 469,-184 475,-184 481,-190 481,-196 481,-196 481,-208 481,-208 481,-214 475,-220 469,-220"/>
<text text-anchor="middle" x="432" y="-198.3" font-family="Helvetica,sans-Serif" font-size="14.00">mnt_comp3</text>
</g>
<!-- mnt_comp1&#45;&gt;mnt_comp3 -->
<g id="edge5" class="edge">
<title>mnt_comp1&#45;&gt;mnt_comp3</title>
<path fill="none" stroke="black" stroke-width="1.2" d="M327.32,-267.98C346.67,-255.66 372.53,-239.21 393.58,-225.81"/>
<polygon fill="black" stroke="black" stroke-width="1.2" points="395.72,-228.6 402.27,-220.28 391.96,-222.7 395.72,-228.6"/>
</g>
<!-- mnt_comp3&#45;&gt;mnt_comp2 -->
<g id="edge7" class="edge">
<title>mnt_comp3&#45;&gt;mnt_comp2</title>
<path fill="none" stroke="black" stroke-width="1.2" d="M481.03,-193.63C489.4,-192.17 498.19,-190.64 506.8,-189.14"/>
<polygon fill="black" stroke="black" stroke-width="1.2" points="507.54,-192.57 516.79,-187.4 506.33,-185.67 507.54,-192.57"/>
</g>
<!-- mnt_comp4 -->
<g id="node13" class="node">
<title>mnt_comp4</title>
<path fill="white" stroke="black" d="M335,-174C335,-174 261,-174 261,-174 255,-174 249,-168 249,-162 249,-162 249,-150 249,-150 249,-144 255,-138 261,-138 261,-138 335,-138 335,-138 341,-138 347,-144 347,-150 347,-150 347,-162 347,-162 347,-168 341,-174 335,-174"/>
<text text-anchor="middle" x="298" y="-152.3" font-family="Helvetica,sans-Serif" font-size="14.00">mnt_comp4</text>
</g>
<!-- mnt_comp4&#45;&gt;mnt_comp2 -->
<g id="edge8" class="edge">
<title>mnt_comp4&#45;&gt;mnt_comp2</title>
<path fill="none" stroke="black" stroke-width="1.2" d="M347.17,-160.17C391.94,-164.04 458.73,-169.81 506.54,-173.95"/>
<polygon fill="black" stroke="black" stroke-width="1.2" points="506.47,-177.45 516.74,-174.83 507.08,-170.48 506.47,-177.45"/>
</g>
<!-- mnt_comp4&#45;&gt;mnt_comp3 -->
<g id="edge12" class="edge">
<title>mnt_comp4&#45;&gt;mnt_comp3</title>
<path fill="none" stroke="black" stroke-width="1.2" d="M347.03,-172.74C355.49,-175.69 364.38,-178.78 373.08,-181.82"/>
<polygon fill="black" stroke="black" stroke-width="1.2" points="372.19,-185.21 382.79,-185.2 374.49,-178.6 372.19,-185.21"/>
</g>
<!-- fail_comp1 -->
<g id="node14" class="node">
<title>fail_comp1</title>
<path fill="white" stroke="black" d="M201,-270C201,-270 133,-270 133,-270 127,-270 121,-264 121,-258 121,-258 121,-246 121,-246 121,-240 127,-234 133,-234 133,-234 201,-234 201,-234 207,-234 213,-240 213,-246 213,-246 213,-258 213,-258 213,-264 207,-270 201,-270"/>
<text text-anchor="middle" x="167" y="-248.3" font-family="Helvetica,sans-Serif" font-size="14.00">fail_comp1</text>
</g>
<!-- fail_comp1&#45;&gt;mnt_comp1 -->
<g id="edge6" class="edge">
<title>fail_comp1&#45;&gt;mnt_comp1</title>
<path fill="none" stroke="black" stroke-width="1.2" d="M213.12,-263.89C221.46,-266.09 230.28,-268.41 238.94,-270.7"/>
<polygon fill="black" stroke="black" stroke-width="1.2" points="238.05,-274.08 248.62,-273.25 239.84,-267.31 238.05,-274.08"/>
</g>
<!-- fail_comp1&#45;&gt;mnt_comp2 -->
<g id="edge9" class="edge">
<title>fail_comp1&#45;&gt;mnt_comp2</title>
<path fill="none" stroke="black" stroke-width="1.2" d="M188.72,-270.03C208.05,-286.39 235.81,-308.59 249,-313 290.31,-326.81 304.21,-321.15 347,-313 409.91,-301.01 427.15,-294.66 481,-260 504.64,-244.79 527.33,-222.27 543.15,-204.84"/>
<polygon fill="black" stroke="black" stroke-width="1.2" points="545.89,-207.03 549.92,-197.23 540.66,-202.37 545.89,-207.03"/>
</g>
<!-- fail_comp1&#45;&gt;mnt_comp3 -->
<g id="edge13" class="edge">
<title>fail_comp1&#45;&gt;mnt_comp3</title>
<path fill="none" stroke="black" stroke-width="1.2" d="M213.21,-243.4C257.36,-235.01 324.75,-222.2 372.86,-213.05"/>
<polygon fill="black" stroke="black" stroke-width="1.2" points="373.65,-216.47 382.82,-211.16 372.34,-209.59 373.65,-216.47"/>
</g>
<!-- fail_comp1&#45;&gt;mnt_comp4 -->
<g id="edge16" class="edge">
<title>fail_comp1&#45;&gt;mnt_comp4</title>
<path fill="none" stroke="black" stroke-width="1.2" d="M192.26,-233.94C212.59,-218.82 241.78,-197.1 264.18,-180.42"/>
<polygon fill="black" stroke="black" stroke-width="1.2" points="266.47,-183.08 272.41,-174.3 262.29,-177.46 266.47,-183.08"/>
</g>
<!-- fail_comp2&#45;&gt;mnt_comp2 -->
<g id="edge10" class="edge">
<title>fail_comp2&#45;&gt;mnt_comp2</title>
<path fill="none" stroke="black" stroke-width="1.2" d="M213.19,-138.09C224.69,-134.33 237.15,-130.92 249,-129 339.03,-114.39 443.59,-139.1 506.99,-158.69"/>
<polygon fill="black" stroke="black" stroke-width="1.2" points="506.21,-162.12 516.8,-161.79 508.31,-155.44 506.21,-162.12"/>
</g>
<!-- fail_comp2&#45;&gt;mnt_comp3 -->
<g id="edge14" class="edge">
<title>fail_comp2&#45;&gt;mnt_comp3</title>
<path fill="none" stroke="black" stroke-width="1.2" d="M213.35,-173.05C224.85,-176.83 237.26,-180.46 249,-183 289.7,-191.8 336.43,-196.57 372.35,-199.13"/>
<polygon fill="black" stroke="black" stroke-width="1.2" points="372.44,-202.64 382.65,-199.82 372.91,-195.66 372.44,-202.64"/>
</g>
<!-- fail_comp2&#45;&gt;mnt_comp4 -->
<g id="edge17" class="edge">
<title>fail_comp2&#45;&gt;mnt_comp4</title>
<path fill="none" stroke="black" stroke-width="1.2" d="M213.12,-156C221.28,-156 229.9,-156 238.38,-156"/>
<polygon fill="black" stroke="black" stroke-width="1.2" points="238.62,-159.5 248.62,-156 238.62,-152.5 238.62,-159.5"/>
</g>
<!-- fail_comp4&#45;&gt;mnt_comp2 -->
<g id="edge11" class="edge">
<title>fail_comp4&#45;&gt;mnt_comp2</title>
<path fill="none" stroke="black" stroke-width="1.2" d="M213.03,-72.87C275.71,-75.58 391.61,-86.12 481,-126 498.64,-133.87 516.93,-145 531.91,-155.03"/>
<polygon fill="black" stroke="black" stroke-width="1.2" points="530.1,-158.03 540.33,-160.78 534.04,-152.25 530.1,-158.03"/>
</g>
<!-- fail_comp4&#45;&gt;mnt_comp3 -->
<g id="edge15" class="edge">
<title>fail_comp4&#45;&gt;mnt_comp3</title>
<path fill="none" stroke="black" stroke-width="1.2" d="M213.09,-80.99C250.59,-89.69 304.49,-105.12 347,-129 369.44,-141.61 391.27,-160.86 407.05,-176.43"/>
<polygon fill="black" stroke="black" stroke-width="1.2" points="404.76,-179.09 414.28,-183.73 409.73,-174.16 404.76,-179.09"/>
</g>
<!-- fail_comp4&#45;&gt;mnt_comp4 -->
<g id="edge18" class="edge">
<title>fail_comp4&#45;&gt;mnt_comp4</title>
<path fill="none" stroke="black" stroke-width="1.2" d="M195.67,-90.02C214.59,-102.34 239.86,-118.79 260.43,-132.19"/>
<polygon fill="black" stroke="black" stroke-width="1.2" points="258.64,-135.2 268.93,-137.72 262.46,-129.33 258.64,-135.2"/>
</g>
</g>
</svg>
